v 14.9 -17.0 -25.0
v 15.0 -17.0 -25.1
v 15.0 -17.1 -25.0
v 15.0 -17.0 -24.0
v 15.0 -17.0 -24.0
v 15.0 -17.0 -24.0
v 15.0 -16.9 -25.0
v 15.0 -17.0 -24.0
v 15.9 -20.0 -25.0
v 16.0 -20.0 -25.1
v 16.0 -20.1 -25.0
v 16.0 -21.0 -24.0
v 15.6 -20.0 -24.0
v 16.0 -20.0 -23.2
v 15.9 -19.0 -26.0
v 16.0 -19.0 -26.2
v 16.0 -19.1 -26.0
v 15.6 -19.0 -25.0
v 15.6 -19.0 -24.0
v 16.0 -19.0 -23.5
v 15.7 -18.0 -27.0
v 16.0 -18.0 -28.0
v 16.0 -18.5 -27.0
v 15.5 -18.0 -26.0
v 15.4 -18.0 -25.0
v 15.5 -18.0 -24.0
v 16.0 -18.0 -23.5
v 15.8 -17.0 -27.0
v 16.0 -17.0 -27.2
v 15.5 -17.0 -26.0
v 16.0 -17.0 -23.4
v 16.0 -16.8 -27.0
v 16.0 -16.4 -26.0
v 16.0 -16.3 -25.0
v 15.9 -16.0 -24.0
v 16.0 -16.0 -24.2
v 16.0 -16.0 -23.9
v 16.0 -15.9 -24.0
v 16.8 -33.0 3.0
v 17.0 -33.0 2.7
v 17.0 -33.2 3.0
v 17.0 -33.2 4.0
v 16.8 -33.0 4.0
v 17.0 -33.0 4.2
v 16.6 -32.0 3.0
v 17.0 -32.0 2.6
v 16.3 -32.0 4.0
v 17.0 -32.0 4.3
v 16.8 -31.0 3.0
v 17.0 -31.0 2.8
v 17.0 -31.0 4.0
v 17.0 -31.0 4.0
v 17.0 -30.6 3.0
v 16.2 -20.0 -25.0
v 17.0 -20.0 -24.2
v 17.0 -20.2 -24.0
v 17.0 -20.0 -23.8
v 16.2 -19.0 -26.0
v 17.0 -19.0 -25.5
v 17.0 -19.5 -25.0
v 17.0 -19.1 -23.0
v 16.9 -19.0 -23.0
v 17.0 -19.0 -22.9
v 17.0 -18.0 -27.4
v 17.0 -18.4 -27.0
v 17.0 -18.6 -26.0
v 16.8 -18.0 -23.0
v 17.0 -18.0 -22.8
v 17.0 -17.0 -27.2
v 16.7 -17.0 -23.0
v 17.0 -17.0 -22.8
v 17.0 -16.8 -27.0
v 17.0 -16.0 -26.0
v 17.0 -16.0 -26.0
v 16.6 -16.0 -25.0
v 17.0 -16.2 -23.0
v 17.0 -16.0 -23.1
v 17.0 -16.0 -26.0
v 17.0 -15.8 -25.0
v 17.0 -15.7 -24.0
v 17.7 -34.0 4.0
v 18.0 -34.0 3.6
v 18.0 -34.2 4.0
v 18.0 -34.0 4.9
v 18.0 -33.0 2.0
v 18.0 -33.0 2.0
v 18.0 -33.0 2.0
v 18.0 -33.6 3.0
v 18.0 -33.0 4.4
v 17.8 -32.0 2.0
v 18.0 -32.0 1.9
v 17.5 -32.0 4.0
v 18.0 -32.4 4.0
v 18.0 -32.0 3.5
v 18.0 -31.6 2.0
v 18.0 -31.6 3.0
v 17.3 -31.0 3.0
v 17.1 -20.0 -24.0
v 17.3 -19.0 -25.0
v 17.4 -19.0 -24.0
v 17.1 -19.0 -23.0
v 17.2 -18.0 -27.0
v 17.4 -18.0 -26.0
v 17.5 -18.0 -25.0
v 17.5 -18.0 -24.0
v 17.2 -18.0 -23.0
v 17.2 -17.0 -27.0
v 17.5 -17.0 -26.0
v 17.5 -17.0 -25.0
v 17.5 -17.0 -24.0
v 17.2 -17.0 -23.0
v 17.0 -16.0 -26.0
v 17.2 -16.0 -25.0
v 17.3 -16.0 -24.0
v 18.5 -34.0 3.0
v 19.0 -34.0 2.6
v 19.0 -34.3 3.0
v 19.0 -34.5 4.0
v 19.0 -34.2 5.0
v 18.1 -34.0 5.0
v 19.0 -34.0 5.2
v 18.0 -33.0 2.0
v 19.0 -33.0 2.4
v 19.0 -33.6 5.0
v 19.0 -33.0 4.6
v 18.2 -32.0 2.0
v 19.0 -32.4 3.0
v 18.5 -32.0 3.0
v 19.0 -32.6 4.0
v 19.8 -35.0 4.0
v 20.0 -35.0 3.7
v 20.0 -35.2 4.0
v 20.0 -35.0 4.3
v 19.7 -34.0 2.0
v 20.0 -34.0 1.8
v 20.0 -34.2 2.0
v 20.0 -34.7 3.0
v 20.0 -34.5 5.0
v 20.0 -34.0 5.4
v 19.5 -33.0 2.0
v 20.0 -33.0 1.7
v 19.6 -33.0 5.0
v 20.0 -33.0 5.2
v 20.0 -32.6 2.0
v 19.7 -32.0 3.0
v 20.0 -32.0 2.7
v 20.0 -32.0 3.3
v 20.0 -32.3 4.0
v 20.0 -32.7 5.0
v 20.0 -31.9 3.0
v 20.5 -35.0 3.0
v 21.0 -35.0 2.5
v 21.0 -35.3 3.0
v 21.0 -35.5 4.0
v 21.0 -35.1 5.0
v 20.8 -35.0 5.0
v 21.0 -35.0 5.1
v 21.0 -34.0 1.5
v 21.0 -34.6 2.0
v 21.0 -34.0 5.5
v 21.0 -33.0 1.3
v 21.0 -33.0 5.4
v 20.9 -32.0 1.0
v 21.0 -32.0 0.9
v 21.0 -32.1 1.0
v 20.5 -32.0 2.0
v 20.5 -32.0 4.0
v 21.0 -32.0 4.3
v 21.0 -32.6 5.0
v 21.0 -31.9 1.0
v 21.0 -31.6 2.0
v 21.0 -31.5 3.0
v 21.0 -31.7 4.0
v 20.8 -15.0 -25.0
v 21.0 -15.0 -25.2
v 21.0 -15.2 -25.0
v 21.0 -15.0 -24.0
v 21.0 -15.0 -24.0
v 21.0 -15.0 -24.0
v 20.8 -14.0 -25.0
v 21.0 -14.0 -25.8
v 21.0 -14.0 -24.8
v 21.0 -15.0 -24.0
v 21.0 -13.8 -25.0
v 21.5 -35.0 2.0
v 22.0 -35.0 1.5
v 22.0 -35.4 2.0
v 22.0 -35.7 3.0
v 22.0 -35.9 4.0
v 21.2 -35.0 5.0
v 22.0 -35.0 4.6
v 21.6 -34.0 1.0
v 22.0 -34.0 0.6
v 22.0 -34.5 1.0
v 22.0 -34.5 5.0
v 22.0 -34.0 5.3
v 21.3 -33.0 1.0
v 22.0 -33.0 0.3
v 22.0 -33.0 5.3
v 21.8 -32.0 0.0
v 22.0 -32.0 -0.3
v 22.0 -32.3 0.0
v 22.0 -32.6 5.0
v 22.0 -32.0 4.4
v 22.0 -31.0 -1.0
v 22.0 -31.0 -1.2
v 22.0 -31.0 -1.0
v 22.0 -31.8 0.0
v 22.0 -31.0 -1.0
v 22.0 -31.6 1.0
v 22.0 -31.5 2.0
v 22.0 -31.5 3.0
v 22.0 -31.7 4.0
v 22.0 -31.0 -1.0
v 21.8 -16.0 -24.0
v 22.0 -16.0 -24.2
v 22.0 -16.2 -24.0
v 22.0 -16.0 -23.5
v 22.0 -15.0 -25.5
v 22.0 -15.4 -25.0
v 22.0 -15.0 -23.6
v 21.2 -14.0 -26.0
v 22.0 -14.0 -26.2
v 22.0 -14.3 -26.0
v 22.0 -14.5 -24.0
v 22.0 -14.0 -24.4
v 22.0 -13.7 -26.0
v 22.0 -13.5 -25.0
v 22.9 -37.0 1.0
v 23.0 -37.0 0.9
v 23.0 -37.1 1.0
v 23.0 -37.4 2.0
v 22.7 -37.0 2.0
v 23.0 -37.2 3.0
v 22.8 -37.0 3.0
v 23.0 -37.0 3.3
v 23.0 -36.6 1.0
v 22.5 -36.0 2.0
v 23.0 -36.0 1.2
v 22.4 -36.0 3.0
v 23.0 -36.0 3.6
v 22.7 -35.0 0.0
v 23.0 -35.0 -0.4
v 23.0 -35.4 0.0
v 23.0 -35.8 1.0
v 22.4 -35.0 1.0
v 23.0 -35.5 4.0
v 23.0 -35.0 4.3
v 22.5 -34.0 0.0
v 23.0 -34.0 -0.6
v 22.5 -34.0 5.0
v 23.0 -34.0 4.7
v 22.7 -33.0 -1.0
v 23.0 -33.0 -1.5
v 23.0 -33.5 -1.0
v 22.3 -33.0 0.0
v 23.0 -33.1 5.0
v 23.0 -33.0 5.1
v 22.6 -32.0 -2.0
v 23.0 -32.0 -2.4
v 23.0 -32.5 -2.0
v 22.4 -32.0 -1.0
v 22.5 -32.0 4.0
v 23.0 -32.3 4.0
v 23.0 -32.0 3.5
v 23.0 -32.9 5.0
v 22.1 -31.0 -2.0
v 23.0 -31.0 -2.5
v 23.0 -31.0 -0.5
v 23.0 -31.4 0.0
v 23.0 -31.5 1.0
v 23.0 -31.5 2.0
v 23.0 -31.7 3.0
v 23.0 -30.6 -2.0
v 23.0 -30.6 -1.0
v 23.0 -16.0 -24.1
v 23.0 -16.1 -24.0
v 23.0 -16.0 -23.8
v 23.0 -15.0 -25.5
v 23.0 -15.5 -25.0
v 23.0 -15.0 -23.4
v 23.0 -14.0 -26.2
v 23.0 -14.3 -26.0
v 22.5 -14.0 -24.0
v 23.0 -14.0 -23.6
v 22.5 -13.0 -26.0
v 23.0 -13.0 -26.4
v 22.5 -13.0 -25.0
v 23.0 -13.0 -24.4
v 23.0 -13.4 -24.0
v 22.7 -12.0 -26.0
v 23.0 -12.0 -26.9
v 22.8 -12.0 -25.0
v 23.0 -12.0 -24.7
v 23.0 -11.7 -26.0
v 23.0 -11.8 -25.0
v 23.7 -37.0 0.0
v 24.0 -37.0 -0.3
v 24.0 -37.2 0.0
v 24.0 -37.5 1.0
v 24.0 -37.9 2.0
v 24.0 -37.4 3.0
v 24.0 -37.0 3.7
v 23.7 -36.0 -1.0
v 24.0 -36.0 -1.4
v 24.0 -36.3 -1.0
v 23.4 -36.0 0.0
v 23.1 -36.0 1.0
v 24.0 -36.0 3.5
v 23.7 -35.0 -2.0
v 24.0 -35.0 -2.4
v 24.0 -35.4 -2.0
v 23.4 -35.0 -1.0
v 23.5 -35.0 4.0
v 24.0 -35.0 3.6
v 23.6 -34.0 -2.0
v 24.0 -34.0 -2.6
v 23.3 -34.0 -1.0
v 24.0 -34.6 4.0
v 24.0 -34.0 4.4
v 23.7 -33.0 -3.0
v 24.0 -33.0 -3.4
v 24.0 -33.5 -3.0
v 23.3 -33.0 -2.0
v 23.1 -33.0 5.0
v 24.0 -33.0 4.3
v 23.5 -32.0 -3.0
v 24.0 -32.0 -3.5
v 23.5 -32.0 3.0
v 24.0 -32.3 3.0
v 24.0 -32.0 2.6
v 24.0 -32.7 4.0
v 23.5 -31.0 -3.0
v 24.0 -31.0 -3.5
v 24.0 -31.4 0.0
v 24.0 -31.0 -0.5
v 24.0 -31.5 1.0
v 24.0 -31.6 2.0
v 23.8 -30.0 -3.0
v 24.0 -30.0 -3.3
v 23.7 -30.0 -2.0
v 24.0 -30.0 -1.7
v 24.0 -30.5 -1.0
v 24.0 -29.8 -3.0
v 24.0 -29.8 -2.0
v 23.2 -16.0 -24.0
v 23.9 -16.0 -23.0
v 24.0 -16.0 -23.1
v 24.0 -16.1 -23.0
v 24.0 -16.0 -22.9
v 24.0 -15.0 -25.2
v 24.0 -15.2 -25.0
v 24.0 -15.6 -24.0
v 23.4 -15.0 -23.0
v 24.0 -15.1 -22.0
v 23.9 -15.0 -22.0
v 24.0 -15.0 -21.9
v 23.4 -14.0 -26.0
v 24.0 -14.0 -25.6
v 23.5 -14.0 -23.0
v 24.0 -14.0 -22.4
v 24.0 -14.9 -22.0
v 24.0 -13.0 -26.5
v 24.0 -13.6 -26.0
v 23.3 -13.0 -24.0
v 23.6 -13.0 -23.0
v 24.0 -13.0 -22.5
v 23.2 -12.0 -27.0
v 24.0 -12.0 -27.2
v 24.0 -12.2 -27.0
v 23.6 -12.0 -24.0
v 23.8 -12.0 -23.0
v 24.0 -12.0 -22.8
v 24.0 -11.8 -27.0
v 24.0 -11.5 -26.0
v 24.0 -11.5 -25.0
v 24.0 -11.6 -24.0
v 24.0 -11.8 -23.0
v 25.0 -37.0 -0.6
v 25.0 -37.4 0.0
v 25.0 -37.6 1.0
v 25.0 -37.3 2.0
v 24.4 -37.0 3.0
v 25.0 -37.0 2.4
v 24.9 -36.0 -4.0
v 25.0 -36.0 -4.2
v 25.0 -36.1 -4.0
v 25.0 -36.3 -3.0
v 24.7 -36.0 -3.0
v 25.0 -36.4 -2.0
v 24.4 -36.0 -2.0
v 25.0 -36.7 -1.0
v 24.5 -36.0 3.0
v 25.0 -36.0 2.5
v 24.7 -35.0 -5.0
v 25.0 -35.0 -5.3
v 25.0 -35.4 -5.0
v 24.5 -35.0 -4.0
v 24.4 -35.0 -3.0
v 24.7 -35.0 3.0
v 25.0 -35.0 2.6
v 24.6 -34.0 -5.0
v 25.0 -34.0 -5.5
v 24.5 -34.0 -4.0
v 24.3 -34.0 -3.0
v 25.0 -34.6 3.0
v 25.0 -34.0 4.0
v 25.0 -34.0 4.0
v 24.7 -33.0 -5.0
v 25.0 -33.0 -5.4
v 24.4 -33.0 -4.0
v 24.4 -33.0 4.0
v 25.0 -34.0 4.0
v 25.0 -33.0 3.4
v 25.0 -32.5 -5.0
v 24.5 -32.0 -4.0
v 25.0 -32.0 -4.6
v 25.0 -32.6 3.0
v 25.0 -32.0 2.3
v 24.5 -31.0 -4.0
v 25.0 -31.0 -4.5
v 25.0 -31.4 0.0
v 25.0 -31.0 -0.5
v 25.0 -31.5 1.0
v 25.0 -31.7 2.0
v 24.6 -30.0 -4.0
v 25.0 -30.0 -4.5
v 25.0 -30.5 -1.0
v 25.0 -30.0 -1.5
v 25.0 -29.0 -4.0
v 25.0 -29.0 -4.1
v 25.0 -29.4 -3.0
v 25.0 -29.0 -3.9
v 25.0 -29.6 -2.0
v 25.0 -29.0 -4.0
v 25.0 -16.0 -23.0
v 25.0 -16.0 -23.0
v 25.0 -16.0 -23.0
v 24.2 -15.0 -25.0
v 24.7 -15.0 -24.0
v 25.0 -15.0 -23.7
v 25.0 -15.4 -22.0
v 25.0 -15.0 -21.7
v 24.7 -14.0 -25.0
v 25.0 -14.0 -24.7
v 25.0 -14.7 -24.0
v 24.4 -14.0 -22.0
v 25.0 -14.0 -21.6
v 25.0 -13.0 -26.3
v 25.0 -13.3 -26.0
v 25.0 -13.7 -25.0
v 24.6 -13.0 -22.0
v 25.0 -13.0 -21.7
v 25.0 -12.0 -27.0
v 25.0 -12.0 -27.0
v 25.0 -12.6 -22.0
v 25.0 -12.0 -22.5
v 25.0 -12.0 -27.0
v 25.0 -11.6 -26.0
v 25.0 -11.5 -25.0
v 25.0 -11.5 -24.0
v 25.0 -11.6 -23.0
v 25.5 -37.0 -1.0
v 26.0 -37.0 -1.5
v 26.0 -37.3 -1.0
v 26.0 -37.5 0.0
v 26.0 -37.7 1.0
v 25.3 -37.0 2.0
v 26.0 -37.0 1.4
v 26.0 -36.0 -4.0
v 26.0 -36.0 -4.0
v 26.0 -36.4 -3.0
v 26.0 -36.7 -2.0
v 25.5 -36.0 2.0
v 26.0 -36.0 1.4
v 25.8 -35.0 -6.0
v 26.0 -35.0 -6.3
v 26.0 -35.2 -6.0
v 26.0 -36.0 -5.0
v 26.0 -36.0 -4.0
v 25.9 -35.0 1.0
v 26.0 -35.3 1.0
v 26.0 -35.0 0.8
v 25.5 -35.0 2.0
v 25.9 -34.0 -7.0
v 26.0 -34.0 -7.2
v 26.0 -34.2 -7.0
v 25.4 -34.0 -6.0
v 26.0 -34.8 1.0
v 26.0 -34.3 2.0
v 25.5 -34.0 3.0
v 26.0 -34.0 2.3
v 25.0 -34.0 4.0
v 26.0 -33.7 -7.0
v 25.5 -33.0 -6.0
v 26.0 -33.0 -6.6
v 25.4 -33.0 3.0
v 26.0 -33.0 2.4
v 25.6 -32.0 -6.0
v 26.0 -32.0 -6.5
v 25.3 -32.0 -5.0
v 25.4 -32.0 2.0
v 26.0 -32.6 2.0
v 26.0 -32.0 1.4
v 25.6 -31.0 -6.0
v 26.0 -31.0 -6.5
v 25.4 -31.0 -5.0
v 26.0 -31.4 0.0
v 26.0 -31.0 -0.5
v 26.0 -31.7 1.0
v 25.7 -30.0 -6.0
v 26.0 -30.0 -6.4
v 25.4 -30.0 -5.0
v 26.0 -30.5 -1.0
v 26.0 -30.0 -1.5
v 26.0 -29.5 -6.0
v 25.5 -29.0 -5.0
v 26.0 -29.0 -5.6
v 26.0 -29.3 -3.0
v 26.0 -29.0 -3.4
v 26.0 -29.6 -2.0
v 25.9 -28.0 -5.0
v 26.0 -28.0 -5.1
v 26.0 -28.4 -4.0
v 26.0 -28.0 -4.8
v 26.0 -27.9 -5.0
v 25.0 -16.0 -23.0
v 26.0 -15.0 -23.6
v 26.0 -15.5 -23.0
v 26.0 -15.4 -22.0
v 26.0 -15.0 -21.6
v 26.0 -14.0 -24.5
v 26.0 -14.6 -24.0
v 26.0 -14.0 -21.4
v 25.5 -13.0 -26.0
v 26.0 -13.0 -25.6
v 26.0 -13.5 -25.0
v 26.0 -13.0 -21.4
v 25.0 -12.0 -27.0
v 26.0 -12.0 -26.3
v 26.0 -12.4 -26.0
v 25.6 -12.0 -22.0
v 26.0 -12.0 -21.7
v 26.0 -11.8 -26.0
v 26.0 -11.5 -25.0
v 26.0 -11.5 -24.0
v 26.0 -11.5 -23.0
v 26.0 -11.8 -22.0
v 26.5 -37.0 -2.0
v 27.0 -37.0 -2.5
v 27.0 -37.3 -2.0
v 27.0 -37.4 -1.0
v 27.0 -37.1 0.0
v 26.4 -37.0 1.0
v 27.0 -37.0 0.1
v 26.0 -36.0 -4.0
v 27.0 -36.0 -4.5
v 27.0 -36.3 -4.0
v 27.0 -36.7 -3.0
v 26.7 -36.0 0.0
v 27.0 -36.8 0.0
v 27.0 -36.0 -0.4
v 26.3 -36.0 1.0
v 27.0 -35.0 -6.3
v 27.0 -35.0 -6.0
v 27.0 -35.6 -5.0
v 26.5 -35.0 0.0
v 27.0 -35.0 -0.6
v 26.8 -34.0 -8.0
v 27.0 -34.0 -8.2
v 27.0 -34.2 -8.0
v 27.0 -35.0 -7.0
v 26.9 -34.0 -1.0
v 27.0 -34.3 -1.0
v 27.0 -34.0 -1.2
v 26.6 -34.0 0.0
v 26.5 -34.0 1.0
v 26.3 -34.0 2.0
v 26.7 -33.0 -8.0
v 27.0 -33.0 -8.3
v 26.3 -33.0 -7.0
v 27.0 -33.8 -1.0
v 27.0 -33.5 0.0
v 27.0 -33.2 1.0
v 27.0 -33.0 1.1
v 26.3 -33.0 2.0
v 27.0 -32.6 -8.0
v 26.5 -32.0 -7.0
v 27.0 -32.0 -7.6
v 26.4 -32.0 1.0
v 27.0 -32.8 1.0
v 27.0 -32.0 0.4
v 26.5 -31.0 -7.0
v 27.0 -31.0 -7.5
v 27.0 -31.6 0.0
v 27.0 -31.0 -0.5
v 26.5 -30.0 -7.0
v 27.0 -30.0 -7.5
v 27.0 -30.5 -1.0
v 27.0 -30.0 -1.5
v 26.6 -29.0 -7.0
v 27.0 -29.0 -7.5
v 26.3 -29.0 -6.0
v 26.5 -29.0 -3.0
v 27.0 -29.0 -2.6
v 27.0 -29.5 -2.0
v 26.6 -28.0 -7.0
v 27.0 -28.0 -7.5
v 26.4 -28.0 -6.0
v 26.6 -28.0 -4.0
v 27.0 -28.0 -3.7
v 27.0 -28.6 -3.0
v 26.8 -27.0 -7.0
v 27.0 -27.0 -7.3
v 26.7 -27.0 -6.0
v 27.0 -27.3 -5.0
v 27.0 -27.0 -5.6
v 27.0 -27.7 -4.0
v 27.0 -26.7 -7.0
v 27.0 -26.7 -6.0
v 26.7 -20.0 -18.0
v 27.0 -20.0 -18.4
v 27.0 -20.4 -18.0
v 27.0 -20.5 -17.0
v 26.6 -20.0 -17.0
v 27.0 -20.3 -16.0
v 26.9 -20.0 -16.0
v 27.0 -20.0 -15.8
v 27.0 -19.0 -20.0
v 27.0 -19.0 -20.0
v 27.0 -19.0 -20.0
v 27.0 -19.5 -19.0
v 26.3 -19.0 -19.0
v 26.6 -19.0 -18.0
v 26.8 -19.0 -17.0
v 27.0 -19.0 -16.6
v 27.0 -19.8 -16.0
v 27.0 -18.0 -20.0
v 27.0 -18.0 -20.0
v 27.0 -18.0 -19.9
v 27.0 -18.5 -19.0
v 27.0 -18.6 -18.0
v 27.0 -18.7 -17.0
v 27.0 -18.0 -20.0
v 26.9 -16.0 -22.0
v 27.0 -16.0 -22.1
v 27.0 -16.1 -22.0
v 27.0 -16.0 -21.9
v 26.6 -15.0 -24.0
v 27.0 -15.0 -24.3
v 27.0 -15.2 -24.0
v 27.0 -15.6 -23.0
v 27.0 -15.0 -21.3
v 27.0 -14.0 -24.7
v 27.0 -14.6 -21.0
v 26.6 -14.0 -21.0
v 27.0 -14.0 -20.6
v 27.0 -13.0 -25.5
v 27.0 -13.6 -25.0
v 26.6 -13.0 -21.0
v 27.0 -13.0 -20.6
v 27.0 -12.0 -26.2
v 27.0 -12.2 -26.0
v 27.0 -12.5 -21.0
v 27.0 -12.0 -21.4
v 27.0 -11.8 -26.0
v 27.0 -11.5 -25.0
v 27.0 -11.5 -24.0
v 27.0 -11.5 -23.0
v 27.0 -11.6 -22.0
v 27.6 -37.0 -3.0
v 28.0 -37.0 -3.3
v 28.0 -37.3 -3.0
v 28.0 -37.4 -2.0
v 28.0 -37.1 -1.0
v 27.1 -37.0 0.0
v 28.0 -37.0 -0.9
v 28.0 -36.0 -4.6
v 28.0 -36.5 -4.0
v 27.6 -36.0 -1.0
v 28.0 -36.8 -1.0
v 28.0 -36.0 -1.5
v 28.0 -35.0 -6.5
v 28.0 -35.3 -6.0
v 28.0 -35.7 -5.0
v 27.7 -35.0 -2.0
v 28.0 -35.4 -2.0
v 28.0 -35.0 -2.3
v 27.3 -35.0 -1.0
v 27.4 -34.0 -8.0
v 28.0 -34.0 -7.8
v 28.0 -34.6 -7.0
v 27.6 -34.0 -2.0
v 28.0 -34.0 -2.5
v 27.9 -33.0 -9.0
v 28.0 -33.0 -9.1
v 28.0 -33.3 -9.0
v 28.0 -33.8 -8.0
v 27.7 -33.0 -2.0
v 28.0 -33.0 -2.4
v 27.5 -33.0 -1.0
v 27.4 -33.0 0.0
v 27.1 -33.0 1.0
v 28.0 -32.7 -9.0
v 27.4 -32.0 -8.0
v 28.0 -32.0 -8.8
v 28.0 -32.6 -2.0
v 28.0 -32.3 -1.0
v 28.0 -32.0 -0.7
v 27.4 -32.0 0.0
v 27.7 -31.0 -10.0
v 28.0 -31.0 -10.4
v 28.0 -31.3 -10.0
v 28.0 -31.8 -9.0
v 27.6 -31.0 -9.0
v 27.4 -31.0 -8.0
v 28.0 -31.0 -0.8
v 27.7 -30.0 -11.0
v 28.0 -30.0 -11.5
v 28.0 -30.4 -11.0
v 27.5 -30.0 -10.0
v 27.5 -30.0 -9.0
v 27.4 -30.0 -8.0
v 28.0 -30.7 -1.0
v 28.0 -30.0 -1.7
v 27.7 -29.0 -12.0
v 28.0 -29.0 -12.5
v 28.0 -29.5 -12.0
v 27.5 -29.0 -11.0
v 27.5 -29.0 -10.0
v 27.5 -29.0 -9.0
v 27.4 -29.0 -8.0
v 28.0 -29.7 -2.0
v 28.0 -29.0 -2.7
v 27.7 -28.0 -14.0
v 28.0 -28.0 -14.4
v 28.0 -28.3 -14.0
v 28.0 -28.6 -13.0
v 27.6 -28.0 -13.0
v 27.5 -28.0 -12.0
v 27.5 -28.0 -11.0
v 27.5 -28.0 -10.0
v 27.5 -28.0 -9.0
v 27.4 -28.0 -8.0
v 28.0 -28.7 -3.0
v 28.0 -28.0 -3.6
v 27.7 -27.0 -15.0
v 28.0 -27.0 -15.3
v 28.0 -27.4 -15.0
v 27.5 -27.0 -14.0
v 27.5 -27.0 -13.0
v 27.5 -27.0 -12.0
v 27.5 -27.0 -11.0
v 27.5 -27.0 -10.0
v 27.5 -27.0 -9.0
v 27.4 -27.0 -8.0
v 27.7 -27.0 -5.0
v 28.0 -27.0 -4.8
v 28.0 -27.7 -4.0
v 27.8 -26.0 -16.0
v 28.0 -26.0 -16.2
v 28.0 -26.3 -16.0
v 27.5 -26.0 -15.0
v 27.5 -26.0 -14.0
v 27.5 -26.0 -13.0
v 27.5 -26.0 -12.0
v 27.5 -26.0 -11.0
v 27.5 -26.0 -10.0
v 27.5 -26.0 -9.0
v 27.5 -26.0 -8.0
v 27.7 -26.0 -7.0
v 28.0 -26.0 -6.6
v 28.0 -26.4 -6.0
v 28.0 -26.9 -5.0
v 27.6 -25.0 -16.0
v 28.0 -25.0 -16.5
v 27.5 -25.0 -15.0
v 27.5 -25.0 -14.0
v 27.5 -25.0 -13.0
v 27.5 -25.0 -12.0
v 27.5 -25.0 -11.0
v 27.5 -25.0 -10.0
v 27.6 -25.0 -9.0
v 27.8 -25.0 -8.0
v 28.0 -25.0 -7.7
v 28.0 -25.7 -7.0
v 27.8 -24.0 -17.0
v 28.0 -24.0 -17.3
v 28.0 -24.4 -17.0
v 27.5 -24.0 -16.0
v 27.5 -24.0 -15.0
v 27.5 -24.0 -14.0
v 27.5 -24.0 -13.0
v 27.5 -24.0 -12.0
v 27.6 -24.0 -11.0
v 27.7 -24.0 -10.0
v 28.0 -24.0 -9.5
v 28.0 -24.4 -9.0
v 28.0 -24.7 -8.0
v 27.6 -23.0 -17.0
v 28.0 -23.0 -17.5
v 27.5 -23.0 -16.0
v 27.5 -23.0 -15.0
v 27.5 -23.0 -14.0
v 27.5 -23.0 -13.0
v 27.7 -23.0 -12.0
v 28.0 -23.0 -11.5
v 28.0 -23.4 -11.0
v 28.0 -23.6 -10.0
v 27.8 -22.0 -18.0
v 28.0 -22.0 -18.2
v 28.0 -22.4 -18.0
v 27.5 -22.0 -17.0
v 27.5 -22.0 -16.0
v 27.4 -22.0 -15.0
v 27.5 -22.0 -14.0
v 27.7 -22.0 -13.0
v 28.0 -22.0 -12.6
v 28.0 -22.6 -12.0
v 27.5 -21.0 -18.0
v 28.0 -21.0 -18.5
v 27.4 -21.0 -17.0
v 27.3 -21.0 -16.0
v 27.1 -21.0 -15.0
v 27.6 -21.0 -14.0
v 28.0 -21.0 -13.5
v 28.0 -21.6 -13.0
v 27.5 -20.0 -19.0
v 28.0 -20.0 -19.3
v 28.0 -20.4 -19.0
v 27.5 -20.0 -15.0
v 28.0 -20.0 -14.5
v 28.0 -20.5 -14.0
v 27.1 -19.0 -20.0
v 28.0 -19.0 -19.8
v 27.6 -19.0 -16.0
v 28.0 -19.0 -15.6
v 28.0 -19.5 -15.0
v 28.0 -18.0 -20.5
v 28.0 -18.7 -20.0
v 27.4 -18.0 -19.0
v 27.6 -18.0 -18.0
v 28.0 -18.0 -17.5
v 28.0 -18.3 -17.0
v 28.0 -18.7 -16.0
v 27.7 -17.0 -21.0
v 28.0 -17.0 -21.3
v 28.0 -17.3 -21.0
v 27.6 -17.0 -20.0
v 28.0 -17.0 -19.4
v 28.0 -17.4 -19.0
v 28.0 -17.7 -18.0
v 28.0 -16.0 -22.5
v 28.0 -16.4 -22.0
v 27.4 -16.0 -21.0
v 27.6 -16.0 -20.0
v 28.0 -16.0 -19.5
v 28.0 -15.0 -24.3
v 28.0 -15.3 -24.0
v 28.0 -15.6 -23.0
v 27.2 -15.0 -21.0
v 27.6 -15.0 -20.0
v 28.0 -15.0 -19.4
v 27.8 -14.0 -25.0
v 28.0 -14.0 -25.1
v 28.0 -14.1 -25.0
v 27.4 -14.0 -20.0
v 28.0 -14.3 -19.0
v 27.9 -14.0 -19.0
v 28.0 -14.0 -18.8
v 28.0 -13.0 -25.4
v 27.6 -13.0 -20.0
v 28.0 -13.0 -19.5
v 28.0 -13.7 -19.0
v 27.8 -12.0 -26.0
v 28.0 -12.0 -25.9
v 27.5 -12.0 -21.0
v 28.0 -12.0 -20.5
v 28.0 -12.5 -20.0
v 28.0 -11.7 -25.0
v 28.0 -11.6 -24.0
v 28.0 -11.6 -23.0
v 28.0 -11.5 -22.0
v 28.0 -11.7 -21.0
v 29.0 -37.0 -3.3
v 29.0 -37.2 -3.0
v 29.0 -37.1 -2.0
v 28.1 -37.0 -1.0
v 29.0 -37.0 -1.9
v 28.5 -36.0 -5.0
v 29.0 -36.0 -5.4
v 29.0 -36.3 -5.0
v 29.0 -36.6 -4.0
v 28.5 -36.0 -2.0
v 29.0 -36.9 -2.0
v 29.0 -36.0 -2.4
v 29.0 -35.0 -6.5
v 29.0 -35.5 -6.0
v 29.0 -35.0 -2.7
v 29.0 -34.0 -7.5
v 29.0 -34.5 -7.0
v 28.6 -34.0 -3.0
v 29.0 -34.5 -3.0
v 29.0 -34.0 -3.5
v 28.2 -33.0 -9.0
v 29.0 -33.0 -8.6
v 29.0 -33.5 -8.0
v 28.7 -33.0 -4.0
v 29.0 -33.4 -4.0
v 29.0 -33.0 -4.3
v 28.4 -33.0 -3.0
v 28.8 -32.0 -10.0
v 29.0 -32.0 -10.2
v 29.0 -32.2 -10.0
v 29.0 -32.6 -9.0
v 28.2 -32.0 -9.0
v 28.6 -32.0 -4.0
v 29.0 -32.0 -4.5
v 28.5 -32.0 -3.0
v 28.4 -32.0 -2.0
v 28.2 -32.0 -1.0
v 28.5 -31.0 -11.0
v 29.0 -31.0 -11.5
v 29.0 -31.5 -11.0
v 28.6 -31.0 -4.0
v 29.0 -31.0 -4.5
v 28.5 -31.0 -3.0
v 28.5 -31.0 -2.0
v 28.2 -31.0 -1.0
v 28.7 -30.0 -13.0
v 29.0 -30.0 -13.9
v 29.0 -30.3 -13.0
v 29.0 -30.6 -12.0
v 28.4 -30.0 -12.0
v 28.7 -30.0 -4.0
v 29.0 -30.0 -4.4
v 28.5 -30.0 -3.0
v 28.2 -30.0 -2.0
v 28.7 -29.0 -14.0
v 29.0 -29.0 -14.2
v 29.0 -29.8 -14.0
v 28.4 -29.0 -13.0
v 29.0 -29.3 -4.0
v 29.0 -29.0 -3.8
v 28.3 -29.0 -3.0
v 28.9 -28.0 -15.0
v 29.0 -28.0 -15.1
v 29.0 -28.1 -15.0
v 28.4 -28.0 -4.0
v 29.0 -28.8 -4.0
v 29.0 -28.0 -4.6
v 29.0 -27.0 -15.5
v 28.2 -27.0 -5.0
v 29.0 -27.6 -5.0
v 29.0 -27.0 -5.6
v 29.0 -26.0 -16.3
v 29.0 -26.4 -16.0
v 29.0 -26.7 -6.0
v 29.0 -26.0 -6.7
v 28.7 -25.0 -17.0
v 29.0 -25.0 -17.1
v 29.0 -25.2 -17.0
v 29.0 -25.7 -7.0
v 29.0 -25.0 -7.6
v 29.0 -24.0 -17.6
v 28.4 -24.0 -9.0
v 29.0 -24.0 -8.0
v 29.0 -24.0 -8.0
v 28.6 -23.0 -18.0
v 29.0 -23.0 -18.3
v 29.0 -23.4 -18.0
v 28.5 -23.0 -11.0
v 28.7 -23.0 -10.0
v 28.9 -23.0 -9.0
v 29.0 -23.0 -8.8
v 29.0 -24.0 -8.0
v 29.0 -22.0 -18.6
v 28.7 -22.0 -12.0
v 29.0 -22.0 -11.8
v 29.0 -22.7 -11.0
v 29.0 -22.8 -10.0
v 29.0 -22.7 -9.0
v 29.0 -21.0 -18.7
v 28.7 -21.0 -13.0
v 29.0 -21.0 -12.8
v 29.0 -21.8 -12.0
v 29.0 -20.0 -19.5
v 29.0 -20.7 -19.0
v 28.6 -20.0 -14.0
v 29.0 -20.0 -13.7
v 29.0 -20.8 -13.0
v 28.4 -19.0 -20.0
v 29.0 -19.0 -20.3
v 29.0 -19.4 -20.0
v 28.6 -19.0 -15.0
v 29.0 -19.0 -14.7
v 29.0 -19.6 -14.0
v 29.0 -18.0 -20.7
v 28.5 -18.0 -17.0
v 29.0 -18.0 -16.5
v 29.0 -18.3 -16.0
v 29.0 -18.7 -15.0
v 29.0 -17.0 -21.5
v 29.0 -17.6 -21.0
v 28.3 -17.0 -19.0
v 29.0 -17.0 -18.3
v 29.0 -17.3 -18.0
v 29.0 -17.7 -17.0
v 29.0 -16.0 -22.5
v 29.0 -16.5 -22.0
v 28.5 -16.0 -19.0
v 29.0 -16.0 -18.5
v 28.4 -15.0 -24.0
v 29.0 -15.0 -23.4
v 29.0 -15.4 -23.0
v 28.4 -15.0 -19.0
v 29.0 -15.0 -18.4
v 28.1 -14.0 -25.0
v 29.0 -14.0 -24.3
v 29.0 -14.4 -24.0
v 29.0 -14.4 -18.0
v 28.7 -14.0 -18.0
v 29.0 -14.0 -17.7
v 28.5 -13.0 -25.0
v 29.0 -13.0 -24.3
v 28.3 -13.0 -19.0
v 28.8 -13.0 -18.0
v 29.0 -13.0 -17.8
v 28.3 -12.0 -25.0
v 29.0 -12.7 -24.0
v 28.4 -12.0 -24.0
v 28.6 -12.0 -23.0
v 29.0 -12.4 -23.0
v 29.0 -12.0 -22.4
v 28.5 -12.0 -20.0
v 28.8 -12.0 -19.0
v 29.0 -12.0 -18.7
v 29.0 -12.7 -18.0
v 29.0 -11.8 -22.0
v 29.0 -11.6 -21.0
v 29.0 -11.6 -20.0
v 29.0 -11.8 -19.0
v 29.3 -37.0 -3.0
v 29.1 -37.0 -2.0
v 30.0 -36.0 -5.3
v 30.0 -36.2 -5.0
v 30.0 -36.3 -4.0
v 30.0 -36.1 -3.0
v 30.0 -36.0 -2.9
v 30.0 -35.0 -6.5
v 30.0 -35.5 -6.0
v 29.4 -35.0 -3.0
v 30.0 -35.9 -3.0
v 30.0 -35.0 -3.5
v 30.0 -34.0 -7.6
v 30.0 -34.5 -7.0
v 29.5 -34.0 -4.0
v 30.0 -34.5 -4.0
v 30.0 -34.0 -4.5
v 30.0 -33.0 -8.5
v 30.0 -33.6 -8.0
v 29.7 -33.0 -5.0
v 30.0 -33.4 -5.0
v 30.0 -33.0 -5.3
v 29.5 -32.0 -10.0
v 30.0 -32.0 -9.8
v 30.0 -32.5 -9.0
v 29.5 -32.0 -5.0
v 30.0 -32.0 -5.6
v 29.7 -31.0 -12.0
v 30.0 -31.0 -12.2
v 30.0 -31.2 -12.0
v 30.0 -31.9 -11.0
v 30.0 -31.8 -10.0
v 29.8 -31.0 -6.0
v 30.0 -31.4 -6.0
v 30.0 -31.0 -6.3
v 29.4 -31.0 -5.0
v 30.0 -30.0 -13.2
v 30.0 -30.2 -13.0
v 29.6 -30.0 -6.0
v 30.0 -30.0 -6.6
v 29.4 -30.0 -5.0
v 29.2 -29.0 -14.0
v 30.0 -29.3 -13.0
v 29.9 -29.0 -13.0
v 30.0 -29.0 -12.9
v 29.7 -29.0 -7.0
v 30.0 -29.4 -7.0
v 30.0 -29.0 -7.3
v 29.5 -29.0 -6.0
v 29.5 -29.0 -5.0
v 29.1 -29.0 -4.0
v 29.1 -28.0 -15.0
v 29.7 -28.0 -14.0
v 30.0 -28.0 -13.7
v 30.0 -28.9 -13.0
v 29.6 -28.0 -7.0
v 30.0 -28.0 -7.5
v 29.5 -28.0 -6.0
v 29.3 -28.0 -5.0
v 29.6 -27.0 -15.0
v 30.0 -27.0 -14.6
v 30.0 -27.7 -14.0
v 29.6 -27.0 -7.0
v 30.0 -27.0 -7.6
v 29.3 -27.0 -6.0
v 29.4 -26.0 -16.0
v 30.0 -26.0 -15.5
v 30.0 -26.6 -15.0
v 29.7 -26.0 -8.0
v 30.0 -26.5 -8.0
v 30.0 -26.0 -8.5
v 29.3 -26.0 -7.0
v 29.2 -25.0 -17.0
v 30.0 -25.0 -16.5
v 30.0 -25.5 -16.0
v 29.7 -25.0 -9.0
v 30.0 -25.5 -9.0
v 30.0 -25.0 -9.5
v 29.4 -25.0 -8.0
v 30.0 -24.0 -17.4
v 30.0 -24.5 -17.0
v 29.7 -24.0 -10.0
v 30.0 -24.5 -10.0
v 30.0 -24.0 -10.4
v 29.4 -24.0 -9.0
v 29.0 -24.0 -8.0
v 30.0 -23.0 -18.3
v 30.0 -23.4 -18.0
v 29.5 -23.0 -11.0
v 30.0 -23.4 -11.0
v 30.0 -23.0 -11.4
v 29.2 -23.0 -10.0
v 29.1 -23.0 -9.0
v 29.9 -22.0 -19.0
v 30.0 -22.0 -19.1
v 30.0 -22.1 -19.0
v 29.3 -22.0 -12.0
v 30.0 -22.4 -12.0
v 30.0 -22.0 -12.4
v 29.5 -21.0 -19.0
v 30.0 -21.0 -19.3
v 29.4 -21.0 -13.0
v 30.0 -21.3 -13.0
v 30.0 -21.0 -13.3
v 30.0 -20.0 -19.6
v 30.0 -20.0 -13.6
v 30.0 -19.0 -20.3
v 30.0 -19.4 -20.0
v 30.0 -19.5 -14.0
v 30.0 -19.0 -14.5
v 29.8 -18.0 -21.0
v 30.0 -18.0 -21.1
v 30.0 -18.1 -21.0
v 29.5 -18.0 -16.0
v 30.0 -18.0 -15.6
v 30.0 -18.5 -15.0
v 30.0 -17.0 -21.4
v 29.3 -17.0 -18.0
v 30.0 -17.0 -17.3
v 30.0 -17.3 -17.0
v 30.0 -17.7 -16.0
v 30.0 -16.0 -22.2
v 30.0 -16.3 -22.0
v 29.5 -16.0 -18.0
v 30.0 -16.0 -17.5
v 29.4 -15.0 -23.0
v 30.0 -15.0 -22.4
v 29.4 -15.0 -18.0
v 30.0 -15.0 -17.6
v 29.3 -14.0 -24.0
v 29.6 -14.0 -23.0
v 30.0 -14.0 -22.4
v 30.0 -14.0 -17.5
v 29.2 -13.0 -24.0
v 29.4 -13.0 -23.0
v 30.0 -13.5 -22.0
v 29.7 -13.0 -22.0
v 30.0 -13.0 -21.5
v 30.0 -13.0 -17.7
v 29.3 -12.0 -22.0
v 30.0 -12.5 -21.0
v 29.5 -12.0 -21.0
v 30.0 -12.0 -20.4
v 30.0 -12.7 -18.0
v 30.0 -12.0 -18.7
v 30.0 -11.7 -20.0
v 30.0 -11.8 -19.0
v 30.3 -36.0 -5.0
v 30.3 -36.0 -4.0
v 30.1 -36.0 -3.0
v 31.0 -35.0 -6.3
v 31.0 -35.2 -6.0
v 31.0 -35.1 -5.0
v 31.0 -35.0 -4.9
v 30.4 -35.0 -4.0
v 30.8 -34.0 -8.0
v 31.0 -34.0 -8.1
v 31.0 -34.1 -8.0
v 31.0 -34.5 -7.0
v 30.5 -34.0 -5.0
v 31.0 -34.8 -5.0
v 31.0 -34.0 -5.5
v 31.0 -33.0 -8.6
v 31.0 -33.0 -5.7
v 31.0 -32.0 -9.5
v 31.0 -32.5 -9.0
v 30.5 -32.0 -6.0
v 31.0 -32.6 -6.0
v 31.0 -32.0 -6.4
v 30.2 -31.0 -12.0
v 30.7 -31.0 -11.0
v 31.0 -31.0 -10.7
v 31.0 -31.5 -10.0
v 31.0 -31.0 -6.7
v 30.2 -30.0 -13.0
v 31.0 -30.0 -12.3
v 31.0 -30.3 -12.0
v 31.0 -30.8 -11.0
v 30.5 -30.0 -7.0
v 31.0 -30.6 -7.0
v 31.0 -30.0 -7.5
v 31.0 -29.0 -12.5
v 30.6 -29.0 -8.0
v 31.0 -29.4 -8.0
v 31.0 -29.0 -8.4
v 31.0 -28.0 -13.4
v 31.0 -28.4 -13.0
v 30.8 -28.0 -9.0
v 31.0 -28.3 -9.0
v 31.0 -28.0 -9.2
v 30.4 -28.0 -8.0
v 31.0 -27.0 -14.3
v 31.0 -27.3 -14.0
v 30.6 -27.0 -9.0
v 31.0 -27.0 -9.5
v 30.3 -27.0 -8.0
v 30.5 -26.0 -15.0
v 31.0 -26.0 -14.6
v 30.8 -26.0 -10.0
v 31.0 -26.3 -10.0
v 31.0 -26.0 -10.2
v 30.3 -26.0 -9.0
v 30.5 -25.0 -16.0
v 31.0 -25.0 -15.5
v 31.0 -25.5 -15.0
v 30.4 -25.0 -10.0
v 31.0 -25.0 -10.5
v 30.5 -24.0 -17.0
v 31.0 -24.0 -16.5
v 31.0 -24.5 -16.0
v 30.6 -24.0 -11.0
v 31.0 -24.4 -11.0
v 31.0 -24.0 -11.3
v 30.4 -23.0 -18.0
v 31.0 -23.0 -17.5
v 31.0 -23.5 -17.0
v 31.0 -23.0 -11.7
v 30.1 -22.0 -19.0
v 31.0 -22.0 -18.3
v 31.0 -22.4 -18.0
v 31.0 -22.6 -12.0
v 31.0 -22.0 -12.5
v 30.5 -21.0 -19.0
v 31.0 -21.0 -18.6
v 31.0 -21.5 -13.0
v 31.0 -21.0 -13.4
v 31.0 -20.0 -19.3
v 31.0 -20.5 -19.0
v 31.0 -20.0 -13.6
v 30.4 -19.0 -20.0
v 31.0 -19.0 -19.5
v 31.0 -19.5 -14.0
v 31.0 -19.0 -14.5
v 30.1 -18.0 -21.0
v 30.7 -18.0 -20.0
v 31.0 -18.0 -19.7
v 31.0 -18.4 -15.0
v 31.0 -18.0 -15.4
v 30.5 -17.0 -21.0
v 31.0 -17.0 -20.4
v 31.0 -17.5 -20.0
v 30.3 -17.0 -17.0
v 31.0 -17.0 -16.5
v 31.0 -17.5 -16.0
v 30.2 -16.0 -22.0
v 30.6 -16.0 -21.0
v 31.0 -16.0 -20.5
v 30.7 -16.0 -17.0
v 31.0 -16.0 -16.8
v 30.4 -15.0 -22.0
v 30.6 -15.0 -21.0
v 31.0 -15.0 -20.5
v 31.0 -15.7 -17.0
v 31.0 -15.0 -17.4
v 30.3 -14.0 -22.0
v 30.6 -14.0 -21.0
v 31.0 -14.0 -20.5
v 31.0 -14.0 -17.6
v 30.4 -13.0 -21.0
v 31.0 -13.0 -20.3
v 30.4 -13.0 -18.0
v 31.0 -13.5 -18.0
v 31.0 -13.0 -18.6
v 30.3 -12.0 -20.0
v 31.0 -12.7 -20.0
v 30.3 -12.0 -19.0
v 31.0 -12.7 -19.0
v 31.2 -35.0 -6.0
v 31.1 -35.0 -5.0
v 31.2 -34.0 -8.0
v 32.0 -34.0 -7.1
v 32.0 -34.1 -7.0
v 31.5 -34.0 -6.0
v 32.0 -34.0 -6.9
v 32.0 -33.0 -8.3
v 32.0 -33.4 -8.0
v 31.3 -33.0 -6.0
v 32.0 -33.0 -6.7
v 32.0 -32.0 -9.4
v 32.0 -32.4 -9.0
v 31.6 -32.0 -7.0
v 32.0 -32.6 -7.0
v 32.0 -32.0 -7.3
v 32.0 -31.0 -10.4
v 32.0 -31.4 -10.0
v 31.3 -31.0 -7.0
v 32.0 -31.0 -7.6
v 31.3 -30.0 -12.0
v 32.0 -30.0 -11.4
v 32.0 -30.4 -11.0
v 31.6 -30.0 -8.0
v 32.0 -30.5 -8.0
v 32.0 -30.0 -8.3
v 31.6 -29.0 -12.0
v 32.0 -29.0 -11.7
v 32.0 -29.0 -8.7
v 31.4 -28.0 -13.0
v 32.0 -28.0 -12.5
v 32.0 -28.6 -12.0
v 32.0 -28.6 -9.0
v 32.0 -28.0 -9.4
v 31.3 -27.0 -14.0
v 32.0 -27.0 -13.4
v 32.0 -27.4 -13.0
v 32.0 -27.0 -9.7
v 31.6 -26.0 -14.0
v 32.0 -26.0 -13.6
v 32.0 -26.6 -10.0
v 32.0 -26.0 -10.4
v 31.5 -25.0 -15.0
v 32.0 -25.0 -14.5
v 32.0 -25.6 -14.0
v 32.0 -25.0 -10.7
v 31.5 -24.0 -16.0
v 32.0 -24.0 -15.5
v 32.0 -24.5 -15.0
v 32.0 -24.7 -11.0
v 32.0 -24.0 -11.6
v 31.4 -23.0 -17.0
v 32.0 -23.0 -16.3
v 32.0 -23.4 -16.0
v 31.5 -23.0 -12.0
v 32.0 -23.5 -12.0
v 32.0 -23.0 -12.3
v 31.3 -22.0 -18.0
v 31.7 -22.0 -17.0
v 32.0 -22.0 -16.7
v 32.0 -22.0 -12.7
v 31.6 -21.0 -18.0
v 32.0 -21.0 -17.5
v 32.0 -21.6 -17.0
v 32.0 -21.6 -13.0
v 32.0 -21.0 -13.4
v 31.3 -20.0 -19.0
v 32.0 -20.0 -18.2
v 32.0 -20.3 -18.0
v 32.0 -20.0 -13.6
v 31.4 -19.0 -19.0
v 32.0 -19.5 -18.0
v 31.9 -19.0 -18.0
v 32.0 -19.0 -17.8
v 32.0 -19.5 -14.0
v 32.0 -19.0 -14.4
v 31.6 -18.0 -19.0
v 32.0 -18.0 -18.5
v 32.0 -18.7 -18.0
v 31.8 -18.0 -15.0
v 32.0 -18.0 -14.9
v 31.4 -17.0 -20.0
v 32.0 -17.0 -19.3
v 32.0 -17.4 -19.0
v 32.0 -17.4 -16.0
v 32.0 -17.0 -16.4
v 32.0 -17.9 -15.0
v 31.5 -16.0 -20.0
v 32.0 -16.0 -19.5
v 32.0 -16.0 -16.8
v 31.5 -15.0 -20.0
v 32.0 -15.0 -19.4
v 32.0 -15.7 -17.0
v 32.0 -15.0 -17.6
v 31.4 -14.0 -20.0
v 32.0 -14.5 -19.0
v 31.7 -14.0 -19.0
v 32.0 -14.0 -18.0
v 32.0 -14.0 -18.0
v 31.2 -13.0 -20.0
v 31.3 -13.0 -19.0
v 32.0 -14.0 -18.0
v 32.1 -34.0 -7.0
v 32.3 -33.0 -8.0
v 32.3 -33.0 -7.0
v 32.4 -32.0 -9.0
v 32.9 -32.0 -8.0
v 32.5 -31.0 -10.0
v 33.0 -31.0 -9.4
v 33.0 -31.4 -9.0
v 33.0 -31.0 -8.6
v 32.5 -31.0 -8.0
v 32.4 -30.0 -11.0
v 33.0 -30.0 -10.4
v 33.0 -30.5 -10.0
v 33.0 -30.0 -8.7
v 33.0 -29.0 -11.3
v 33.0 -29.4 -11.0
v 32.5 -29.0 -9.0
v 33.0 -29.6 -9.0
v 33.0 -29.0 -9.4
v 32.5 -28.0 -12.0
v 33.0 -28.0 -11.5
v 33.0 -28.0 -9.7
v 32.4 -27.0 -13.0
v 33.0 -27.0 -12.3
v 33.0 -27.4 -12.0
v 32.4 -27.0 -10.0
v 33.0 -27.6 -10.0
v 33.0 -27.0 -10.5
v 32.6 -26.0 -13.0
v 33.0 -26.0 -12.6
v 33.0 -26.0 -10.7
v 32.5 -25.0 -14.0
v 33.0 -25.0 -13.4
v 33.0 -25.5 -13.0
v 32.4 -25.0 -11.0
v 33.0 -25.6 -11.0
v 33.0 -25.0 -11.6
v 32.4 -24.0 -15.0
v 33.0 -24.0 -14.3
v 33.0 -24.4 -14.0
v 32.5 -24.0 -12.0
v 33.0 -24.6 -12.0
v 33.0 -24.0 -12.5
v 32.3 -23.0 -16.0
v 32.7 -23.0 -15.0
v 33.0 -23.0 -14.6
v 33.0 -23.0 -12.7
v 32.6 -22.0 -16.0
v 33.0 -22.0 -15.5
v 33.0 -22.6 -15.0
v 32.5 -22.0 -13.0
v 33.0 -22.6 -13.0
v 33.0 -22.0 -13.4
v 32.4 -21.0 -17.0
v 33.0 -21.0 -16.4
v 33.0 -21.5 -16.0
v 33.0 -21.0 -13.5
v 32.1 -20.0 -18.0
v 32.6 -20.0 -17.0
v 33.0 -20.0 -16.6
v 33.0 -20.0 -13.7
v 32.7 -19.0 -17.0
v 33.0 -19.0 -16.6
v 33.0 -19.7 -14.0
v 33.0 -19.0 -14.6
v 32.4 -18.0 -18.0
v 33.0 -18.0 -17.3
v 33.0 -18.4 -17.0
v 32.2 -18.0 -15.0
v 33.0 -18.6 -15.0
v 33.0 -18.0 -15.6
v 32.3 -17.0 -19.0
v 32.6 -17.0 -18.0
v 33.0 -17.0 -17.1
v 33.0 -17.7 -16.0
v 33.0 -17.0 -16.9
v 32.4 -16.0 -19.0
v 32.5 -16.0 -18.0
v 33.0 -16.9 -17.0
v 32.3 -16.0 -17.0
v 32.3 -15.0 -19.0
v 32.3 -15.0 -18.0
v 32.0 -14.0 -18.0
v 33.8 -31.0 -9.0
v 33.4 -30.0 -10.0
v 33.3 -30.0 -9.0
v 33.3 -29.0 -11.0
v 33.8 -29.0 -10.0
v 33.4 -28.0 -11.0
v 33.3 -28.0 -10.0
v 33.3 -27.0 -12.0
v 33.4 -27.0 -11.0
v 33.4 -26.0 -12.0
v 33.2 -26.0 -11.0
v 33.3 -25.0 -13.0
v 33.3 -25.0 -12.0
v 33.3 -24.0 -14.0
v 33.4 -24.0 -13.0
v 33.5 -23.0 -14.0
v 33.3 -23.0 -13.0
v 33.5 -22.0 -15.0
v 34.0 -22.0 -14.1
v 34.0 -22.1 -14.0
v 34.0 -22.0 -13.9
v 33.5 -21.0 -16.0
v 34.0 -21.0 -15.4
v 34.0 -21.4 -15.0
v 34.0 -21.0 -13.8
v 34.0 -20.0 -16.1
v 34.0 -20.1 -16.0
v 33.4 -20.0 -14.0
v 34.0 -20.7 -14.0
v 34.0 -20.0 -14.6
v 34.0 -19.9 -16.0
v 33.5 -19.0 -16.0
v 33.4 -19.0 -15.0
v 34.0 -19.7 -15.0
v 33.2 -18.0 -17.0
v 33.2 -18.0 -16.0
v 33.1 -17.0 -17.0
v 34.1 -22.0 -14.0
v 34.3 -21.0 -15.0
v 34.2 -21.0 -14.0
v 34.1 -20.0 -16.0
v 34.2 -20.0 -15.0
f 3 2 1
f 5 4 1
f 1 4 3
f 5 6 4
f 2 7 1
f 1 7 5
f 5 7 8
f 5 8 6
f 11 10 9
f 13 12 9
f 9 12 11
f 13 14 12
f 17 16 15
f 17 15 10
f 15 9 10
f 15 18 9
f 9 19 13
f 9 18 19
f 14 13 20
f 20 13 19
f 23 22 21
f 23 21 16
f 21 15 16
f 21 24 15
f 15 25 18
f 15 24 25
f 18 26 19
f 18 25 26
f 20 19 27
f 27 19 26
f 21 22 28
f 28 22 29
f 21 30 24
f 21 28 30
f 30 2 3
f 25 30 3
f 24 30 25
f 25 3 4
f 25 4 26
f 4 6 26
f 6 27 26
f 6 31 27
f 29 32 28
f 28 32 30
f 30 32 33
f 30 33 2
f 33 7 2
f 33 34 7
f 34 36 35
f 8 34 35
f 7 34 8
f 35 37 8
f 37 6 8
f 37 31 6
f 36 38 35
f 35 38 37
f 41 40 39
f 43 42 39
f 39 42 41
f 43 44 42
f 39 40 45
f 45 40 46
f 39 47 43
f 39 45 47
f 44 43 48
f 48 43 47
f 45 46 49
f 49 46 50
f 52 47 51
f 47 49 51
f 47 45 49
f 47 52 48
f 50 53 49
f 49 53 51
f 54 10 11
f 54 11 55
f 11 56 55
f 11 12 56
f 12 14 56
f 56 14 57
f 58 16 17
f 59 58 17
f 59 17 10
f 60 59 10
f 54 60 10
f 60 54 55
f 20 62 61
f 57 20 61
f 14 20 57
f 62 63 61
f 65 64 23
f 23 64 22
f 23 16 58
f 66 23 58
f 65 23 66
f 66 58 59
f 27 67 62
f 27 62 20
f 63 62 68
f 68 62 67
f 64 29 22
f 69 29 64
f 31 70 67
f 31 67 27
f 68 67 71
f 71 67 70
f 69 72 29
f 29 72 32
f 72 74 73
f 33 72 73
f 32 72 33
f 75 34 33
f 75 33 73
f 75 36 34
f 77 76 70
f 31 77 70
f 37 77 31
f 70 76 71
f 74 78 73
f 73 78 75
f 75 78 79
f 75 79 36
f 79 38 36
f 79 80 38
f 37 38 77
f 77 38 80
f 83 82 81
f 81 84 83
f 87 86 85
f 40 41 85
f 41 87 85
f 41 88 87
f 42 81 82
f 88 42 82
f 41 42 88
f 42 44 81
f 44 84 81
f 44 89 84
f 85 86 90
f 90 86 91
f 90 46 40
f 90 40 85
f 94 93 92
f 93 89 92
f 89 48 92
f 89 44 48
f 91 95 90
f 50 46 90
f 96 50 90
f 95 96 90
f 50 96 97
f 97 96 94
f 97 94 92
f 51 97 92
f 52 51 92
f 52 92 48
f 97 53 50
f 53 97 51
f 98 55 56
f 57 98 56
f 99 59 60
f 55 98 60
f 98 99 60
f 98 100 99
f 61 101 57
f 101 98 57
f 101 100 98
f 63 101 61
f 102 64 65
f 66 103 65
f 65 103 102
f 59 99 66
f 99 103 66
f 99 104 103
f 105 99 100
f 104 99 105
f 106 100 101
f 105 100 106
f 68 106 63
f 63 106 101
f 107 69 102
f 102 69 64
f 108 102 103
f 107 102 108
f 109 103 104
f 108 103 109
f 110 104 105
f 109 104 110
f 111 105 106
f 110 105 111
f 71 111 68
f 68 111 106
f 107 72 69
f 72 107 74
f 107 112 74
f 107 108 112
f 113 108 109
f 112 108 113
f 114 109 110
f 113 109 114
f 77 114 76
f 114 111 76
f 114 110 111
f 76 111 71
f 112 78 74
f 78 112 79
f 79 112 113
f 79 113 80
f 80 113 114
f 80 114 77
f 117 116 115
f 82 83 115
f 83 117 115
f 83 118 117
f 120 119 84
f 119 83 84
f 119 118 83
f 120 121 119
f 122 86 87
f 116 123 115
f 123 87 115
f 87 88 115
f 87 123 122
f 115 88 82
f 125 124 120
f 84 125 120
f 89 125 84
f 120 124 121
f 126 91 122
f 122 91 86
f 122 123 127
f 128 122 127
f 126 122 128
f 93 94 128
f 127 93 128
f 129 93 127
f 89 93 125
f 125 93 129
f 126 95 91
f 95 126 96
f 96 126 128
f 96 128 94
f 132 131 130
f 130 133 132
f 136 135 134
f 116 117 134
f 117 136 134
f 117 137 136
f 118 130 131
f 137 118 131
f 117 118 137
f 138 133 130
f 118 138 130
f 119 138 118
f 119 121 138
f 138 121 139
f 134 135 140
f 140 135 141
f 140 123 116
f 140 116 134
f 125 142 124
f 142 143 124
f 143 121 124
f 143 139 121
f 141 144 140
f 144 146 145
f 144 145 127
f 140 144 127
f 123 140 127
f 127 145 147
f 148 127 147
f 129 127 148
f 125 129 142
f 129 149 142
f 129 148 149
f 142 149 143
f 146 150 145
f 145 150 147
f 153 152 151
f 131 132 151
f 132 153 151
f 132 154 153
f 156 155 133
f 155 132 133
f 155 154 132
f 156 157 155
f 159 158 136
f 136 158 135
f 137 151 152
f 159 137 152
f 136 137 159
f 151 137 131
f 138 156 133
f 138 139 156
f 139 157 156
f 139 160 157
f 158 141 135
f 161 141 158
f 143 160 139
f 143 162 160
f 165 164 163
f 163 166 144
f 161 163 144
f 141 161 144
f 163 161 165
f 166 146 144
f 147 167 148
f 148 167 168
f 169 148 168
f 149 148 169
f 143 149 162
f 162 149 169
f 164 170 163
f 163 170 166
f 166 170 171
f 166 171 146
f 171 150 146
f 171 172 150
f 147 150 167
f 150 173 167
f 150 172 173
f 167 173 168
f 176 175 174
f 178 177 174
f 174 177 176
f 178 179 177
f 174 175 180
f 180 175 181
f 183 178 182
f 178 180 182
f 178 174 180
f 178 183 179
f 181 184 180
f 180 184 182
f 187 186 185
f 152 153 185
f 153 187 185
f 153 188 187
f 189 153 154
f 189 188 153
f 191 189 190
f 189 155 190
f 189 154 155
f 157 190 155
f 194 193 192
f 194 192 186
f 186 192 185
f 192 158 185
f 158 159 185
f 185 159 152
f 195 191 190
f 190 157 195
f 157 196 195
f 157 160 196
f 192 193 197
f 197 193 198
f 197 161 158
f 197 158 192
f 162 196 160
f 162 199 196
f 202 201 200
f 202 200 198
f 198 200 197
f 200 164 197
f 164 165 197
f 197 165 161
f 204 203 169
f 204 169 168
f 162 169 199
f 199 169 203
f 207 206 205
f 208 200 201
f 205 209 207
f 200 208 164
f 208 170 164
f 208 210 170
f 170 211 171
f 210 211 170
f 171 212 172
f 211 212 171
f 172 213 173
f 212 213 172
f 168 173 204
f 204 173 213
f 206 214 205
f 205 214 209
f 217 216 215
f 215 218 217
f 220 219 176
f 176 219 175
f 177 215 216
f 220 177 216
f 176 177 220
f 177 179 215
f 179 218 215
f 179 221 218
f 224 223 222
f 219 224 222
f 181 219 222
f 175 219 181
f 226 225 183
f 226 183 182
f 179 183 221
f 221 183 225
f 223 227 222
f 222 227 181
f 227 184 181
f 227 228 184
f 182 184 226
f 226 184 228
f 231 230 229
f 233 232 229
f 229 232 231
f 235 234 233
f 233 234 232
f 235 236 234
f 230 237 229
f 239 238 237
f 238 229 237
f 238 233 229
f 233 240 235
f 233 238 240
f 236 235 241
f 241 235 240
f 244 243 242
f 246 245 242
f 242 245 244
f 245 246 239
f 239 246 238
f 246 186 238
f 186 187 238
f 238 187 188
f 238 188 240
f 247 241 240
f 188 247 240
f 189 247 188
f 189 191 247
f 247 191 248
f 242 243 249
f 249 243 250
f 249 193 194
f 246 249 194
f 242 249 246
f 246 194 186
f 191 195 251
f 252 191 251
f 248 191 252
f 196 251 195
f 255 254 253
f 255 253 250
f 253 249 250
f 253 256 249
f 256 198 193
f 256 193 249
f 257 252 251
f 251 196 257
f 196 258 257
f 196 199 258
f 261 260 259
f 261 259 254
f 259 253 254
f 259 262 253
f 262 201 202
f 256 262 202
f 253 262 256
f 256 202 198
f 265 264 263
f 203 204 263
f 264 203 263
f 266 203 264
f 199 203 258
f 258 203 266
f 259 260 267
f 267 260 268
f 267 206 207
f 262 267 207
f 259 267 262
f 269 207 209
f 207 269 262
f 270 262 269
f 262 270 201
f 208 201 270
f 208 271 210
f 270 271 208
f 210 272 211
f 271 272 210
f 211 273 212
f 272 273 211
f 263 213 265
f 213 273 265
f 213 212 273
f 213 263 204
f 268 274 267
f 267 274 206
f 274 214 206
f 274 275 214
f 209 214 269
f 269 214 275
f 277 276 217
f 217 276 216
f 217 218 277
f 277 218 278
f 280 279 220
f 220 279 219
f 220 216 276
f 220 276 280
f 221 278 218
f 221 281 278
f 283 282 224
f 224 282 223
f 224 219 279
f 224 279 283
f 226 284 225
f 284 285 225
f 285 221 225
f 285 281 221
f 227 223 286
f 223 287 286
f 223 282 287
f 288 228 227
f 288 227 286
f 288 289 228
f 228 289 226
f 289 290 226
f 290 284 226
f 284 290 285
f 286 287 291
f 291 287 292
f 286 293 288
f 286 291 293
f 289 288 294
f 294 288 293
f 292 295 291
f 291 295 293
f 293 295 296
f 293 296 294
f 299 298 297
f 230 231 297
f 231 299 297
f 231 300 299
f 301 231 232
f 301 300 231
f 302 232 234
f 302 301 232
f 234 236 302
f 302 236 303
f 306 305 304
f 306 304 298
f 304 297 298
f 304 307 297
f 308 237 230
f 297 308 230
f 307 308 297
f 308 239 237
f 241 303 236
f 241 309 303
f 312 311 310
f 312 310 305
f 310 304 305
f 310 313 304
f 313 243 244
f 307 313 244
f 304 313 307
f 307 244 245
f 307 245 308
f 308 245 239
f 241 247 314
f 315 241 314
f 309 241 315
f 248 314 247
f 310 311 316
f 316 311 317
f 310 318 313
f 310 316 318
f 318 250 243
f 318 243 313
f 319 315 314
f 314 248 319
f 248 320 319
f 248 252 320
f 323 322 321
f 323 321 317
f 321 316 317
f 321 324 316
f 324 254 255
f 318 324 255
f 316 324 318
f 318 255 250
f 252 257 325
f 326 252 325
f 320 252 326
f 258 325 257
f 321 322 327
f 327 322 328
f 327 260 261
f 324 327 261
f 321 327 324
f 324 261 254
f 331 330 329
f 264 265 329
f 330 264 329
f 332 264 330
f 325 266 326
f 266 332 326
f 266 264 332
f 266 325 258
f 327 328 333
f 333 328 334
f 333 268 260
f 333 260 327
f 336 335 270
f 336 270 269
f 270 337 271
f 335 337 270
f 271 338 272
f 337 338 271
f 329 273 331
f 273 338 331
f 273 272 338
f 273 329 265
f 333 334 339
f 339 334 340
f 341 274 268
f 333 341 268
f 339 341 333
f 274 341 342
f 343 274 342
f 275 274 343
f 269 275 336
f 336 275 343
f 340 344 339
f 339 344 341
f 341 344 345
f 341 345 342
f 346 276 277
f 346 277 278
f 349 348 347
f 347 350 349
f 352 351 280
f 280 351 279
f 280 276 346
f 353 280 346
f 352 280 353
f 281 346 278
f 346 281 353
f 354 353 281
f 353 354 348
f 347 348 354
f 350 347 355
f 347 356 355
f 347 354 356
f 356 357 355
f 358 282 283
f 359 358 283
f 279 359 283
f 351 359 279
f 285 360 354
f 285 354 281
f 362 356 361
f 356 360 361
f 356 354 360
f 356 362 357
f 364 363 358
f 363 282 358
f 363 287 282
f 364 358 359
f 289 365 290
f 360 285 290
f 365 360 290
f 366 360 365
f 361 360 367
f 367 360 366
f 370 369 368
f 363 370 368
f 292 363 368
f 287 363 292
f 294 371 365
f 294 365 289
f 365 372 366
f 365 371 372
f 367 366 373
f 373 366 372
f 369 374 368
f 368 374 292
f 374 295 292
f 374 375 295
f 295 376 296
f 375 376 295
f 294 296 371
f 296 377 371
f 296 376 377
f 371 377 372
f 372 377 378
f 372 378 373
f 380 379 299
f 299 379 298
f 381 299 300
f 381 380 299
f 382 300 301
f 382 381 300
f 384 382 383
f 382 302 383
f 382 301 302
f 303 383 302
f 387 386 385
f 389 388 385
f 385 388 387
f 391 390 389
f 389 390 388
f 305 306 391
f 306 390 391
f 306 392 390
f 306 298 379
f 306 379 392
f 384 383 393
f 384 393 394
f 309 393 303
f 303 393 383
f 397 396 395
f 397 395 386
f 395 385 386
f 395 398 385
f 385 399 389
f 385 398 399
f 399 311 312
f 391 399 312
f 389 399 391
f 391 312 305
f 394 393 400
f 394 400 401
f 315 400 309
f 309 400 393
f 395 396 402
f 402 396 403
f 395 404 398
f 395 402 404
f 398 405 399
f 398 404 405
f 405 317 311
f 405 311 399
f 406 401 400
f 406 400 315
f 319 406 315
f 407 406 319
f 319 320 407
f 407 320 408
f 402 403 409
f 409 403 410
f 402 411 404
f 402 409 411
f 411 322 323
f 405 411 323
f 404 411 405
f 405 323 317
f 414 413 412
f 413 408 412
f 408 326 412
f 408 320 326
f 410 415 409
f 417 416 415
f 416 409 415
f 416 411 409
f 416 328 322
f 416 322 411
f 419 418 330
f 419 330 331
f 412 332 414
f 332 418 414
f 332 330 418
f 332 412 326
f 416 417 420
f 420 417 421
f 420 334 328
f 420 328 416
f 423 422 335
f 423 335 336
f 335 424 337
f 422 424 335
f 337 425 338
f 424 425 337
f 331 338 419
f 419 338 425
f 420 421 426
f 426 421 427
f 426 340 334
f 426 334 420
f 429 428 343
f 429 343 342
f 336 343 423
f 423 343 428
f 426 427 430
f 430 427 431
f 426 430 340
f 430 432 340
f 432 344 340
f 430 433 432
f 344 434 345
f 432 434 344
f 342 345 429
f 429 345 434
f 431 435 430
f 430 435 433
f 437 436 349
f 349 436 348
f 349 350 437
f 437 350 438
f 439 351 352
f 353 440 352
f 352 440 439
f 441 440 353
f 348 441 353
f 436 441 348
f 442 438 350
f 442 350 355
f 355 357 442
f 442 357 443
f 444 359 439
f 439 359 351
f 440 446 445
f 444 440 445
f 439 440 444
f 446 440 441
f 361 447 362
f 447 448 362
f 448 357 362
f 448 443 357
f 450 449 364
f 364 449 363
f 364 359 444
f 451 364 444
f 450 364 451
f 451 444 445
f 367 452 447
f 367 447 361
f 448 447 453
f 453 447 452
f 455 454 370
f 370 454 369
f 370 363 449
f 370 449 455
f 457 456 452
f 367 457 452
f 373 457 367
f 452 456 453
f 454 458 369
f 369 458 374
f 374 459 375
f 458 459 374
f 375 460 376
f 459 460 375
f 376 461 377
f 460 461 376
f 377 462 378
f 461 462 377
f 373 378 457
f 457 378 462
f 465 464 463
f 379 380 463
f 380 465 463
f 380 466 465
f 467 380 381
f 467 466 380
f 469 467 468
f 467 382 468
f 467 381 382
f 384 468 382
f 470 386 387
f 470 387 471
f 387 472 471
f 387 388 472
f 473 388 390
f 473 472 388
f 392 463 464
f 473 392 464
f 390 392 473
f 463 392 379
f 469 468 474
f 469 474 475
f 394 474 384
f 384 474 468
f 478 477 476
f 396 397 476
f 397 478 476
f 397 479 478
f 397 386 470
f 480 397 470
f 479 397 480
f 480 470 471
f 483 482 481
f 481 482 475
f 474 481 475
f 484 481 474
f 401 484 394
f 394 484 474
f 487 486 485
f 487 485 477
f 485 476 477
f 485 488 476
f 488 403 396
f 488 396 476
f 489 483 481
f 489 481 484
f 489 484 490
f 492 490 491
f 491 490 406
f 490 484 406
f 484 401 406
f 407 493 406
f 406 493 491
f 408 493 407
f 486 494 485
f 496 495 494
f 495 485 494
f 495 488 485
f 495 410 403
f 495 403 488
f 492 491 497
f 492 497 498
f 414 497 413
f 497 493 413
f 497 491 493
f 413 493 408
f 495 496 499
f 499 496 500
f 501 415 410
f 495 501 410
f 499 501 495
f 501 417 415
f 504 503 502
f 502 503 498
f 502 498 497
f 419 502 497
f 418 419 497
f 418 497 414
f 499 500 505
f 505 500 506
f 499 507 501
f 499 505 507
f 507 421 417
f 507 417 501
f 509 508 422
f 509 422 423
f 422 510 424
f 508 510 422
f 502 425 504
f 425 510 504
f 425 424 510
f 425 502 419
f 505 506 511
f 511 506 512
f 505 513 507
f 505 511 513
f 513 427 421
f 513 421 507
f 515 514 428
f 515 428 429
f 423 428 509
f 509 428 514
f 512 516 511
f 518 517 516
f 517 511 516
f 517 513 511
f 517 431 427
f 517 427 513
f 520 519 432
f 520 432 433
f 432 521 434
f 519 521 432
f 429 434 515
f 515 434 521
f 517 518 522
f 522 518 523
f 517 522 431
f 522 524 431
f 524 435 431
f 522 525 524
f 433 435 520
f 520 435 524
f 523 526 522
f 522 526 525
f 527 436 437
f 438 527 437
f 529 528 527
f 528 436 527
f 528 441 436
f 529 527 438
f 442 529 438
f 530 529 442
f 442 443 530
f 530 443 531
f 533 532 446
f 446 532 445
f 446 441 528
f 446 528 533
f 448 531 443
f 448 534 531
f 535 449 450
f 535 450 536
f 450 537 536
f 450 451 537
f 451 445 532
f 451 532 537
f 453 534 448
f 453 538 534
f 539 454 455
f 540 539 455
f 540 455 449
f 541 540 449
f 535 541 449
f 541 535 536
f 457 542 456
f 542 543 456
f 543 453 456
f 543 538 453
f 539 458 454
f 540 544 539
f 544 458 539
f 544 459 458
f 459 545 460
f 544 545 459
f 460 546 461
f 545 546 460
f 461 547 462
f 546 547 461
f 457 462 542
f 462 548 542
f 462 547 548
f 542 548 543
f 551 550 549
f 464 465 549
f 465 551 549
f 465 552 551
f 553 465 466
f 553 552 465
f 555 553 554
f 553 467 554
f 553 466 467
f 469 554 467
f 558 557 556
f 471 472 556
f 472 558 556
f 472 559 558
f 473 549 550
f 559 473 550
f 472 473 559
f 549 473 464
f 562 561 560
f 560 561 555
f 554 560 555
f 563 560 554
f 475 563 469
f 469 563 554
f 565 564 478
f 478 564 477
f 566 478 479
f 566 565 478
f 480 556 557
f 566 480 557
f 479 480 566
f 556 480 471
f 562 560 567
f 562 567 568
f 483 567 482
f 567 563 482
f 567 560 563
f 482 563 475
f 571 570 569
f 486 487 569
f 487 571 569
f 487 572 571
f 487 477 564
f 487 564 572
f 575 574 573
f 573 574 568
f 567 573 568
f 576 573 567
f 489 577 483
f 577 567 483
f 577 576 567
f 490 578 489
f 489 578 577
f 492 578 490
f 569 570 579
f 579 570 580
f 581 494 486
f 569 581 486
f 579 581 569
f 581 496 494
f 582 575 573
f 582 573 576
f 582 576 583
f 583 576 577
f 583 577 584
f 586 585 584
f 577 586 584
f 578 586 577
f 498 586 492
f 492 586 578
f 580 587 579
f 589 588 587
f 588 579 587
f 588 581 579
f 588 500 496
f 588 496 581
f 592 591 590
f 590 591 585
f 590 585 586
f 504 590 586
f 503 504 586
f 503 586 498
f 588 589 593
f 593 589 594
f 593 506 500
f 593 500 588
f 596 595 508
f 596 508 509
f 590 510 592
f 510 595 592
f 510 508 595
f 510 590 504
f 593 594 597
f 597 594 598
f 597 512 506
f 597 506 593
f 600 599 514
f 600 514 515
f 509 514 596
f 596 514 599
f 597 598 601
f 601 598 602
f 603 516 512
f 597 603 512
f 601 603 597
f 603 518 516
f 520 604 519
f 519 604 605
f 606 519 605
f 521 519 606
f 515 521 600
f 600 521 606
f 601 602 607
f 607 602 608
f 601 609 603
f 601 607 609
f 609 523 518
f 609 518 603
f 525 610 524
f 610 611 524
f 524 611 520
f 611 612 520
f 612 604 520
f 604 612 605
f 607 608 613
f 613 608 614
f 607 615 609
f 607 613 615
f 609 615 523
f 615 616 523
f 616 526 523
f 615 617 616
f 525 526 610
f 526 618 610
f 526 616 618
f 610 618 611
f 614 619 613
f 613 619 615
f 615 619 620
f 615 620 617
f 623 622 621
f 625 624 621
f 621 624 623
f 627 626 625
f 625 626 624
f 627 628 626
f 631 630 629
f 633 632 629
f 629 632 631
f 632 633 622
f 633 621 622
f 633 634 621
f 621 635 625
f 621 634 635
f 637 627 636
f 627 635 636
f 627 625 635
f 627 637 628
f 629 630 638
f 638 630 639
f 641 633 640
f 633 638 640
f 633 629 638
f 633 641 634
f 634 641 642
f 634 642 635
f 635 642 643
f 635 643 636
f 639 644 638
f 638 644 640
f 647 646 645
f 645 648 647
f 651 650 649
f 528 529 649
f 529 651 649
f 529 652 651
f 530 645 646
f 652 530 646
f 529 530 652
f 530 531 645
f 531 648 645
f 531 653 648
f 649 650 533
f 650 532 533
f 650 654 532
f 649 533 528
f 534 656 655
f 653 534 655
f 531 534 653
f 656 657 655
f 659 658 537
f 537 658 536
f 537 532 654
f 537 654 659
f 538 660 656
f 538 656 534
f 657 656 661
f 661 656 660
f 663 662 541
f 541 662 540
f 541 536 658
f 541 658 663
f 665 664 660
f 538 665 660
f 543 665 538
f 660 664 661
f 662 666 540
f 540 666 544
f 544 667 545
f 666 667 544
f 545 668 546
f 667 668 545
f 546 669 547
f 668 669 546
f 547 670 548
f 669 670 547
f 543 548 665
f 665 548 670
f 673 672 671
f 550 551 671
f 551 673 671
f 551 674 673
f 675 551 552
f 675 674 551
f 677 675 676
f 675 553 676
f 675 552 553
f 555 676 553
f 679 678 558
f 558 678 557
f 559 671 672
f 679 559 672
f 558 559 679
f 671 559 550
f 682 681 680
f 680 681 677
f 680 677 676
f 562 680 676
f 561 562 676
f 561 676 555
f 684 683 565
f 565 683 564
f 685 565 566
f 685 684 565
f 566 557 678
f 566 678 685
f 688 687 686
f 686 687 682
f 680 686 682
f 689 686 680
f 568 689 562
f 562 689 680
f 690 570 571
f 690 571 691
f 571 692 691
f 571 572 692
f 572 564 683
f 572 683 692
f 688 686 693
f 688 693 694
f 575 693 574
f 693 689 574
f 693 686 689
f 574 689 568
f 697 696 695
f 698 697 690
f 697 580 690
f 580 570 690
f 697 695 580
f 698 690 691
f 694 693 699
f 694 699 700
f 582 701 575
f 701 693 575
f 701 699 693
f 583 702 582
f 582 702 701
f 584 703 583
f 583 703 702
f 585 703 584
f 696 704 695
f 704 706 705
f 704 705 587
f 695 704 587
f 580 695 587
f 705 589 587
f 707 700 699
f 707 699 701
f 707 701 708
f 710 709 708
f 701 710 708
f 702 710 701
f 592 710 591
f 710 703 591
f 710 702 703
f 591 703 585
f 713 712 711
f 715 714 711
f 711 714 713
f 714 715 706
f 715 705 706
f 715 716 705
f 716 594 589
f 716 589 705
f 709 710 595
f 596 709 595
f 717 709 596
f 595 710 592
f 720 719 718
f 720 718 712
f 718 711 712
f 718 721 711
f 711 722 715
f 711 721 722
f 715 723 716
f 715 722 723
f 723 598 594
f 723 594 716
f 725 724 599
f 725 599 600
f 596 599 717
f 717 599 724
f 728 727 726
f 728 726 719
f 726 718 719
f 726 729 718
f 718 730 721
f 718 729 730
f 721 731 722
f 721 730 731
f 722 732 723
f 722 731 732
f 732 602 598
f 732 598 723
f 734 733 606
f 734 606 605
f 600 606 725
f 725 606 733
f 737 736 735
f 739 738 735
f 735 738 737
f 738 739 727
f 739 726 727
f 739 740 726
f 726 741 729
f 726 740 741
f 729 742 730
f 729 741 742
f 730 743 731
f 730 742 743
f 731 744 732
f 731 743 744
f 744 608 602
f 744 602 732
f 746 745 612
f 746 612 611
f 605 612 734
f 734 612 745
f 749 748 747
f 749 747 736
f 747 735 736
f 747 750 735
f 735 751 739
f 735 750 751
f 739 752 740
f 739 751 752
f 740 753 741
f 740 752 753
f 741 754 742
f 741 753 754
f 742 755 743
f 742 754 755
f 743 756 744
f 743 755 756
f 756 614 608
f 756 608 744
f 617 757 616
f 616 757 758
f 759 616 758
f 618 616 759
f 611 618 746
f 746 618 759
f 762 761 760
f 762 760 748
f 760 747 748
f 760 763 747
f 747 764 750
f 747 763 764
f 750 765 751
f 750 764 765
f 751 766 752
f 751 765 766
f 752 767 753
f 752 766 767
f 753 768 754
f 753 767 768
f 754 769 755
f 754 768 769
f 755 770 756
f 755 769 770
f 771 619 614
f 756 771 614
f 770 771 756
f 619 771 772
f 773 619 772
f 620 619 773
f 617 620 757
f 620 774 757
f 620 773 774
f 757 774 758
f 760 761 775
f 775 761 776
f 760 777 763
f 760 775 777
f 763 778 764
f 763 777 778
f 764 779 765
f 764 778 779
f 765 780 766
f 765 779 780
f 766 781 767
f 766 780 781
f 767 782 768
f 767 781 782
f 768 783 769
f 768 782 783
f 769 784 770
f 769 783 784
f 786 771 785
f 771 784 785
f 771 770 784
f 771 786 772
f 789 788 787
f 789 787 776
f 787 775 776
f 787 790 775
f 775 791 777
f 775 790 791
f 777 792 778
f 777 791 792
f 778 793 779
f 778 792 793
f 779 794 780
f 779 793 794
f 780 795 781
f 780 794 795
f 781 796 782
f 781 795 796
f 798 783 797
f 783 796 797
f 783 782 796
f 783 798 784
f 784 798 799
f 784 799 785
f 787 788 800
f 800 788 801
f 787 802 790
f 787 800 802
f 790 803 791
f 790 802 803
f 791 804 792
f 791 803 804
f 792 805 793
f 792 804 805
f 793 806 794
f 793 805 806
f 808 795 807
f 795 806 807
f 795 794 806
f 795 808 796
f 796 808 809
f 796 809 797
f 812 811 810
f 812 810 801
f 810 800 801
f 810 813 800
f 800 814 802
f 800 813 814
f 802 815 803
f 802 814 815
f 803 816 804
f 803 815 816
f 804 817 805
f 804 816 817
f 819 806 818
f 806 817 818
f 806 805 817
f 806 819 807
f 810 811 820
f 820 811 821
f 810 822 813
f 810 820 822
f 813 823 814
f 813 822 823
f 814 824 815
f 814 823 824
f 815 825 816
f 815 824 825
f 827 817 826
f 817 825 826
f 817 816 825
f 817 827 818
f 830 829 828
f 830 828 821
f 821 828 820
f 828 622 820
f 622 623 820
f 820 623 624
f 820 624 822
f 822 624 626
f 822 626 823
f 823 626 628
f 831 823 628
f 824 823 831
f 833 825 832
f 825 831 832
f 825 824 831
f 825 833 826
f 834 630 631
f 829 835 828
f 835 631 828
f 631 632 828
f 631 835 834
f 828 632 622
f 636 836 637
f 836 837 637
f 637 837 628
f 837 838 628
f 838 831 628
f 831 838 832
f 840 839 834
f 839 630 834
f 839 639 630
f 841 840 640
f 840 841 835
f 641 835 841
f 835 641 834
f 640 834 641
f 834 640 840
f 842 642 641
f 842 641 841
f 642 842 843
f 844 642 843
f 643 642 844
f 636 643 836
f 643 845 836
f 643 844 845
f 836 845 837
f 848 847 846
f 846 849 644
f 839 846 644
f 639 839 644
f 846 839 848
f 849 850 644
f 644 850 640
f 850 851 640
f 851 841 640
f 841 851 842
f 842 851 852
f 842 852 843
f 854 853 647
f 647 853 646
f 855 846 648
f 846 854 648
f 854 647 648
f 846 847 854
f 846 856 849
f 846 855 856
f 850 849 857
f 857 849 856
f 859 858 651
f 651 858 650
f 860 651 652
f 860 859 651
f 652 646 853
f 652 853 860
f 653 861 855
f 653 855 648
f 855 862 856
f 855 861 862
f 857 856 863
f 863 856 862
f 866 865 864
f 858 866 864
f 654 858 864
f 650 858 654
f 655 861 653
f 861 655 657
f 867 861 657
f 862 861 867
f 863 862 868
f 862 869 868
f 862 867 869
f 869 870 868
f 864 865 659
f 865 658 659
f 865 871 658
f 864 659 654
f 661 872 867
f 661 867 657
f 874 869 873
f 869 872 873
f 869 867 872
f 869 874 870
f 875 662 663
f 876 875 663
f 658 876 663
f 871 876 658
f 665 877 664
f 877 878 664
f 664 878 661
f 878 879 661
f 879 872 661
f 872 879 873
f 875 666 662
f 876 880 875
f 880 666 875
f 880 667 666
f 667 881 668
f 880 881 667
f 668 882 669
f 881 882 668
f 669 883 670
f 882 883 669
f 665 670 877
f 670 884 877
f 670 883 884
f 877 884 878
f 886 885 673
f 673 885 672
f 887 673 674
f 887 886 673
f 889 887 888
f 887 675 888
f 887 674 675
f 677 888 675
f 892 891 890
f 678 679 890
f 679 892 890
f 679 893 892
f 679 672 885
f 679 885 893
f 896 895 894
f 894 895 889
f 894 889 888
f 682 894 888
f 681 682 888
f 681 888 677
f 898 897 684
f 684 897 683
f 685 890 891
f 898 685 891
f 684 685 898
f 890 685 678
f 896 894 687
f 688 896 687
f 899 896 688
f 687 894 682
f 901 900 692
f 692 900 691
f 692 683 897
f 692 897 901
f 904 903 902
f 903 899 902
f 899 694 902
f 899 688 694
f 905 696 697
f 905 697 906
f 697 907 906
f 697 698 907
f 698 691 900
f 698 900 907
f 910 909 908
f 908 909 904
f 902 908 904
f 911 908 902
f 700 911 694
f 694 911 902
f 914 913 912
f 905 704 696
f 912 915 914
f 915 912 916
f 706 915 916
f 706 906 915
f 706 704 905
f 906 706 905
f 910 908 917
f 910 917 918
f 919 908 911
f 917 908 919
f 707 920 700
f 920 911 700
f 920 919 911
f 708 921 707
f 707 921 920
f 709 921 708
f 924 923 922
f 924 922 913
f 913 922 912
f 922 712 912
f 712 713 912
f 912 713 714
f 912 714 916
f 916 714 706
f 918 917 925
f 918 925 926
f 927 917 919
f 925 917 927
f 928 919 920
f 927 919 928
f 929 920 921
f 928 920 929
f 717 929 709
f 709 929 921
f 932 931 930
f 934 933 930
f 930 933 932
f 933 934 923
f 923 934 922
f 934 719 922
f 719 720 922
f 922 720 712
f 926 925 935
f 926 935 936
f 937 925 927
f 935 925 937
f 938 927 928
f 937 927 938
f 725 938 724
f 938 929 724
f 938 928 929
f 724 929 717
f 941 940 939
f 941 939 931
f 939 930 931
f 939 942 930
f 942 727 728
f 934 942 728
f 930 942 934
f 934 728 719
f 943 936 935
f 945 944 943
f 935 945 943
f 937 945 935
f 734 945 733
f 945 938 733
f 945 937 938
f 733 938 725
f 948 947 946
f 948 946 940
f 940 946 939
f 946 736 939
f 736 737 939
f 939 737 738
f 939 738 942
f 942 738 727
f 951 950 949
f 949 950 944
f 949 944 945
f 746 949 945
f 745 746 945
f 745 945 734
f 946 947 749
f 947 748 749
f 947 952 748
f 946 749 736
f 955 954 953
f 953 954 951
f 953 951 949
f 758 953 949
f 759 758 949
f 759 949 746
f 957 956 762
f 762 956 761
f 762 748 952
f 762 952 957
f 959 958 773
f 959 773 772
f 953 774 955
f 774 958 955
f 774 773 958
f 774 953 758
f 962 961 960
f 956 962 960
f 776 956 960
f 761 956 776
f 964 963 786
f 964 786 785
f 772 786 959
f 959 786 963
f 960 961 789
f 961 788 789
f 961 965 788
f 960 789 776
f 797 966 798
f 967 799 798
f 967 798 966
f 967 968 799
f 968 785 799
f 968 964 785
f 971 970 969
f 965 971 969
f 801 965 969
f 788 965 801
f 807 972 808
f 973 809 808
f 973 808 972
f 966 797 809
f 973 966 809
f 974 966 973
f 976 967 975
f 967 974 975
f 967 966 974
f 967 976 968
f 969 970 812
f 970 811 812
f 970 977 811
f 969 812 801
f 818 978 819
f 978 979 819
f 819 979 807
f 979 980 807
f 980 972 807
f 972 980 973
f 973 980 981
f 973 981 974
f 974 981 982
f 974 982 975
f 977 821 811
f 983 821 977
f 826 984 827
f 984 985 827
f 827 985 818
f 985 986 818
f 986 978 818
f 978 986 979
f 988 987 830
f 830 987 829
f 830 821 983
f 830 983 988
f 832 989 833
f 989 990 833
f 833 990 826
f 990 991 826
f 991 984 826
f 984 991 985
f 994 993 992
f 987 994 992
f 835 987 992
f 829 987 835
f 837 995 838
f 995 996 838
f 838 996 832
f 996 997 832
f 997 989 832
f 989 997 990
f 992 993 840
f 993 839 840
f 993 998 839
f 992 840 835
f 843 999 844
f 844 999 1000
f 1001 844 1000
f 845 844 1001
f 837 845 995
f 845 1002 995
f 845 1001 1002
f 995 1002 996
f 1004 1003 848
f 848 1003 847
f 848 839 998
f 848 998 1004
f 850 1005 851
f 851 1005 1006
f 1007 851 1006
f 852 851 1007
f 843 852 999
f 852 1008 999
f 852 1007 1008
f 999 1008 1000
f 1010 1009 854
f 854 1009 853
f 854 847 1003
f 854 1003 1010
f 857 1011 1005
f 857 1005 850
f 1006 1005 1012
f 1012 1005 1011
f 1013 858 859
f 1013 859 1014
f 859 1015 1014
f 859 860 1015
f 860 853 1009
f 860 1009 1015
f 863 1016 1011
f 863 1011 857
f 1012 1011 1017
f 1017 1011 1016
f 1018 865 866
f 1019 1018 866
f 1019 866 858
f 1020 1019 858
f 1013 1020 858
f 1020 1013 1014
f 868 1016 863
f 1022 1021 870
f 870 1021 868
f 1021 1017 868
f 1017 1016 868
f 1022 1023 1021
f 1024 871 1018
f 1018 871 865
f 1018 1019 1025
f 1018 1025 1024
f 873 1026 874
f 1022 870 874
f 1026 1022 874
f 1027 1022 1026
f 1023 1022 1028
f 1028 1022 1027
f 1029 876 1024
f 1024 876 871
f 1024 1025 1030
f 1031 1024 1030
f 1029 1024 1031
f 1033 1032 1031
f 1033 1031 1030
f 1034 1032 1033
f 878 1035 879
f 1026 873 879
f 1035 1026 879
f 1036 1026 1035
f 1038 1027 1037
f 1027 1036 1037
f 1027 1026 1036
f 1027 1038 1028
f 1029 880 876
f 880 1029 881
f 881 1029 1031
f 881 1031 882
f 882 1031 1032
f 1034 1039 1032
f 1039 882 1032
f 1039 883 882
f 883 1040 884
f 1039 1040 883
f 878 884 1035
f 884 1041 1035
f 884 1040 1041
f 1035 1041 1036
f 1036 1041 1042
f 1036 1042 1037
f 1043 885 886
f 887 1044 886
f 886 1044 1043
f 889 1044 887
f 1046 1045 892
f 892 1045 891
f 1047 892 893
f 1047 1046 892
f 893 885 1043
f 1048 893 1043
f 1047 893 1048
f 896 1049 895
f 1049 1043 895
f 1043 1044 895
f 1049 1048 1043
f 895 1044 889
f 1051 1050 898
f 898 1050 897
f 898 891 1045
f 898 1045 1051
f 1054 1053 1052
f 1053 1049 1052
f 1049 899 1052
f 1049 896 899
f 1056 1055 901
f 901 1055 900
f 901 897 1050
f 901 1050 1056
f 1059 1058 1057
f 1057 1058 1054
f 1057 1054 1052
f 904 1057 1052
f 903 904 1052
f 903 1052 899
f 1061 1060 907
f 907 1060 906
f 907 900 1055
f 907 1055 1061
f 1064 1063 1062
f 1062 1063 1059
f 1062 1059 1057
f 910 1062 1057
f 909 910 1057
f 909 1057 904
f 1065 913 914
f 1065 914 1066
f 914 1067 1066
f 914 915 1067
f 915 906 1060
f 915 1060 1067
f 1064 1062 1068
f 1064 1068 1069
f 918 1068 910
f 910 1068 1062
f 1072 1071 1070
f 923 924 1070
f 924 1072 1070
f 924 1073 1072
f 924 913 1065
f 1074 924 1065
f 1073 924 1074
f 1074 1065 1066
f 1077 1076 1075
f 1075 1076 1069
f 1068 1075 1069
f 1078 1075 1068
f 926 1078 918
f 918 1078 1068
f 1080 1079 932
f 932 1079 931
f 933 1070 1071
f 1080 933 1071
f 932 933 1080
f 1070 933 923
f 1077 1075 1081
f 1077 1081 1082
f 1083 1075 1078
f 1081 1075 1083
f 936 1083 926
f 926 1083 1078
f 1084 940 941
f 931 1079 1085
f 1084 931 1085
f 1086 1084 1085
f 941 931 1084
f 1087 1086 1085
f 1090 1089 1088
f 1088 1089 1082
f 1081 1088 1082
f 1091 1088 1081
f 1092 1081 1083
f 1091 1081 1092
f 943 1093 936
f 1093 1083 936
f 1093 1092 1083
f 944 1093 943
f 1094 947 948
f 940 1084 948
f 1084 1094 948
f 1084 1095 1094
f 1086 1097 1096
f 1095 1086 1096
f 1084 1086 1095
f 1097 1086 1087
f 1090 1088 1098
f 1090 1098 1099
f 1100 1088 1091
f 1098 1088 1100
f 1101 1091 1092
f 1100 1091 1101
f 951 1101 950
f 1101 1093 950
f 1101 1092 1093
f 950 1093 944
f 1102 952 1094
f 1094 952 947
f 1095 1104 1103
f 1102 1095 1103
f 1094 1095 1102
f 1104 1095 1096
f 1099 1098 1105
f 1099 1105 1106
f 1107 1098 1100
f 1105 1098 1107
f 955 1107 954
f 1107 1101 954
f 1107 1100 1101
f 954 1101 951
f 1108 956 957
f 1109 1108 957
f 1109 957 952
f 1110 1109 952
f 1102 1110 952
f 1110 1102 1103
f 1113 1112 1111
f 1111 1112 1106
f 1105 1111 1106
f 1114 1111 1105
f 959 1114 958
f 1114 1107 958
f 1114 1105 1107
f 958 1107 955
f 1115 961 962
f 1116 1115 962
f 1116 962 956
f 1117 1116 956
f 1108 1117 956
f 1117 1108 1109
f 1120 1119 1118
f 1118 1119 1113
f 1111 1118 1113
f 1121 1118 1111
f 964 1121 963
f 1121 1114 963
f 1121 1111 1114
f 963 1114 959
f 1123 1122 1115
f 1122 961 1115
f 1122 965 961
f 1123 1115 1116
f 1126 1125 1124
f 1124 1125 1120
f 1118 1124 1120
f 1127 1124 1118
f 1128 1118 1121
f 1127 1118 1128
f 968 1128 964
f 964 1128 1121
f 1130 1129 971
f 971 1129 970
f 971 965 1122
f 971 1122 1130
f 1133 1132 1131
f 1131 1132 1126
f 1124 1131 1126
f 1134 1131 1124
f 1135 1124 1127
f 1134 1124 1135
f 975 1135 976
f 1135 1128 976
f 1135 1127 1128
f 976 1128 968
f 1138 1137 1136
f 1129 1138 1136
f 977 1129 1136
f 970 1129 977
f 1141 1140 1139
f 1139 1140 1133
f 1139 1133 1131
f 979 1139 1131
f 980 979 1131
f 980 1131 981
f 981 1131 1134
f 981 1134 982
f 982 1134 1135
f 982 1135 975
f 1136 1137 1142
f 1142 1137 1143
f 1142 983 977
f 1142 977 1136
f 1146 1145 1144
f 1144 1145 1141
f 1144 1141 1139
f 985 1144 1139
f 986 985 1139
f 986 1139 979
f 1142 1143 988
f 1143 987 988
f 1143 1147 987
f 1142 988 983
f 1146 1144 991
f 990 1146 991
f 1148 1146 990
f 991 1144 985
f 1150 1149 994
f 994 1149 993
f 994 987 1147
f 994 1147 1150
f 1152 1151 997
f 1152 997 996
f 990 997 1148
f 1148 997 1151
f 1155 1154 1153
f 1149 1155 1153
f 998 1149 1153
f 993 1149 998
f 1000 1156 1001
f 1001 1156 1157
f 1158 1001 1157
f 1002 1001 1158
f 996 1002 1152
f 1152 1002 1158
f 1153 1154 1004
f 1154 1003 1004
f 1154 1159 1003
f 1153 1004 998
f 1006 1160 1007
f 1007 1160 1161
f 1162 1007 1161
f 1008 1007 1162
f 1000 1008 1156
f 1008 1163 1156
f 1008 1162 1163
f 1156 1163 1157
f 1165 1164 1010
f 1010 1164 1009
f 1010 1003 1159
f 1010 1159 1165
f 1012 1166 1160
f 1012 1160 1006
f 1161 1160 1167
f 1167 1160 1166
f 1168 1014 1015
f 1169 1168 1015
f 1009 1169 1015
f 1164 1169 1009
f 1017 1170 1166
f 1017 1166 1012
f 1167 1166 1171
f 1171 1166 1170
f 1172 1019 1020
f 1014 1168 1020
f 1168 1172 1020
f 1168 1173 1172
f 1168 1169 1174
f 1168 1174 1173
f 1021 1170 1017
f 1021 1023 1170
f 1023 1171 1170
f 1023 1175 1171
f 1176 1025 1172
f 1172 1025 1019
f 1177 1172 1173
f 1176 1172 1177
f 1173 1174 1178
f 1179 1173 1178
f 1177 1173 1179
f 1180 1179 1178
f 1028 1175 1023
f 1028 1181 1175
f 1176 1030 1025
f 1030 1176 1033
f 1033 1176 1177
f 1033 1177 1034
f 1177 1182 1034
f 1177 1179 1182
f 1179 1180 1183
f 1184 1179 1183
f 1182 1179 1184
f 1185 1184 1183
f 1187 1186 1038
f 1187 1038 1037
f 1028 1038 1181
f 1181 1038 1186
f 1182 1039 1034
f 1039 1182 1040
f 1040 1182 1184
f 1185 1188 1184
f 1188 1040 1184
f 1188 1041 1040
f 1041 1189 1042
f 1188 1189 1041
f 1037 1042 1187
f 1187 1042 1189
f 1190 1045 1046
f 1047 1191 1046
f 1046 1191 1190
f 1048 1192 1047
f 1047 1192 1191
f 1049 1192 1048
f 1194 1193 1051
f 1051 1193 1050
f 1051 1045 1190
f 1195 1051 1190
f 1194 1051 1195
f 1197 1196 1195
f 1190 1197 1195
f 1191 1197 1190
f 1054 1197 1053
f 1197 1192 1053
f 1197 1191 1192
f 1053 1192 1049
f 1200 1199 1198
f 1055 1056 1198
f 1056 1200 1198
f 1056 1201 1200
f 1056 1050 1193
f 1056 1193 1201
f 1204 1203 1202
f 1202 1203 1196
f 1202 1196 1197
f 1059 1202 1197
f 1058 1059 1197
f 1058 1197 1054
f 1198 1199 1061
f 1199 1060 1061
f 1199 1205 1060
f 1198 1061 1055
f 1204 1202 1063
f 1064 1204 1063
f 1206 1204 1064
f 1063 1202 1059
f 1208 1207 1067
f 1067 1207 1066
f 1067 1060 1205
f 1067 1205 1208
f 1211 1210 1209
f 1210 1206 1209
f 1206 1069 1209
f 1206 1064 1069
f 1212 1071 1072
f 1073 1213 1072
f 1072 1213 1212
f 1213 1073 1214
f 1073 1215 1214
f 1073 1074 1215
f 1074 1066 1207
f 1074 1207 1215
f 1211 1209 1076
f 1077 1211 1076
f 1216 1211 1077
f 1076 1209 1069
f 1217 1079 1080
f 1218 1217 1080
f 1218 1080 1071
f 1219 1218 1071
f 1212 1219 1071
f 1219 1212 1213
f 1219 1213 1220
f 1220 1213 1214
f 1223 1222 1221
f 1222 1216 1221
f 1216 1082 1221
f 1216 1077 1082
f 1217 1085 1079
f 1087 1085 1217
f 1218 1087 1217
f 1224 1087 1218
f 1227 1226 1225
f 1225 1226 1223
f 1225 1223 1221
f 1090 1225 1221
f 1089 1090 1221
f 1089 1221 1082
f 1229 1228 1097
f 1097 1228 1096
f 1097 1087 1224
f 1097 1224 1229
f 1232 1231 1230
f 1230 1231 1227
f 1225 1230 1227
f 1233 1230 1225
f 1099 1233 1090
f 1090 1233 1225
f 1235 1234 1104
f 1104 1234 1103
f 1104 1096 1228
f 1104 1228 1235
f 1232 1230 1236
f 1232 1236 1237
f 1238 1230 1233
f 1236 1230 1238
f 1106 1238 1099
f 1099 1238 1233
f 1239 1109 1110
f 1240 1239 1110
f 1103 1240 1110
f 1234 1240 1103
f 1243 1242 1241
f 1241 1242 1237
f 1236 1241 1237
f 1244 1241 1236
f 1113 1244 1112
f 1244 1238 1112
f 1244 1236 1238
f 1112 1238 1106
f 1245 1116 1117
f 1246 1245 1117
f 1246 1117 1109
f 1247 1246 1109
f 1239 1247 1109
f 1247 1239 1240
f 1243 1241 1248
f 1243 1248 1249
f 1120 1248 1119
f 1248 1244 1119
f 1248 1241 1244
f 1119 1244 1113
f 1250 1122 1123
f 1251 1250 1123
f 1251 1123 1116
f 1252 1251 1116
f 1245 1252 1116
f 1252 1245 1246
f 1255 1254 1253
f 1253 1254 1249
f 1253 1249 1248
f 1126 1253 1248
f 1125 1126 1248
f 1125 1248 1120
f 1256 1129 1130
f 1257 1256 1130
f 1257 1130 1122
f 1258 1257 1122
f 1250 1258 1122
f 1258 1250 1251
f 1255 1253 1132
f 1133 1255 1132
f 1259 1255 1133
f 1132 1253 1126
f 1260 1137 1138
f 1261 1260 1138
f 1261 1138 1129
f 1262 1261 1129
f 1256 1262 1129
f 1262 1256 1257
f 1264 1263 1140
f 1264 1140 1141
f 1133 1140 1259
f 1259 1140 1263
f 1265 1143 1260
f 1260 1143 1137
f 1260 1261 1266
f 1260 1266 1265
f 1268 1267 1145
f 1268 1145 1146
f 1141 1145 1264
f 1264 1145 1267
f 1270 1269 1265
f 1269 1143 1265
f 1269 1147 1143
f 1270 1265 1266
f 1148 1268 1146
f 1148 1271 1268
f 1272 1149 1150
f 1273 1272 1150
f 1147 1273 1150
f 1269 1273 1147
f 1275 1274 1151
f 1275 1151 1152
f 1148 1151 1271
f 1271 1151 1274
f 1276 1154 1155
f 1149 1272 1155
f 1272 1276 1155
f 1272 1277 1276
f 1272 1273 1278
f 1272 1278 1277
f 1280 1279 1158
f 1280 1158 1157
f 1152 1158 1275
f 1275 1158 1279
f 1281 1159 1276
f 1276 1159 1154
f 1277 1283 1282
f 1281 1277 1282
f 1276 1277 1281
f 1283 1277 1278
f 1161 1284 1162
f 1162 1284 1285
f 1286 1162 1285
f 1163 1162 1286
f 1157 1163 1280
f 1280 1163 1286
f 1287 1164 1165
f 1159 1281 1165
f 1281 1287 1165
f 1281 1288 1287
f 1281 1282 1289
f 1281 1289 1288
f 1167 1290 1284
f 1167 1284 1161
f 1285 1284 1291
f 1291 1284 1290
f 1292 1169 1287
f 1287 1169 1164
f 1293 1287 1288
f 1292 1287 1293
f 1288 1289 1294
f 1288 1294 1293
f 1296 1295 1290
f 1167 1296 1290
f 1171 1296 1167
f 1290 1295 1291
f 1297 1174 1292
f 1292 1174 1169
f 1298 1292 1293
f 1297 1292 1298
f 1293 1294 1299
f 1293 1299 1298
f 1175 1296 1171
f 1175 1300 1296
f 1297 1178 1174
f 1178 1297 1180
f 1297 1301 1180
f 1297 1298 1301
f 1298 1299 1302
f 1298 1302 1301
f 1305 1304 1303
f 1304 1300 1303
f 1300 1181 1303
f 1300 1175 1181
f 1301 1183 1180
f 1307 1306 1185
f 1307 1185 1183
f 1302 1307 1183
f 1301 1302 1183
f 1309 1308 1306
f 1309 1306 1307
f 1308 1309 1305
f 1308 1305 1303
f 1187 1308 1303
f 1186 1187 1303
f 1186 1303 1181
f 1306 1188 1185
f 1188 1306 1189
f 1189 1306 1308
f 1189 1308 1187
f 1310 1193 1194
f 1195 1311 1194
f 1194 1311 1310
f 1196 1311 1195
f 1312 1199 1200
f 1312 1200 1313
f 1200 1314 1313
f 1200 1201 1314
f 1314 1201 1193
f 1315 1314 1193
f 1310 1315 1193
f 1314 1315 1316
f 1204 1315 1203
f 1315 1311 1203
f 1315 1310 1311
f 1203 1311 1196
f 1318 1317 1312
f 1317 1199 1312
f 1317 1205 1199
f 1318 1312 1313
f 1316 1315 1319
f 1316 1319 1320
f 1206 1319 1204
f 1204 1319 1315
f 1322 1321 1208
f 1208 1321 1207
f 1208 1205 1317
f 1208 1317 1322
f 1325 1324 1323
f 1323 1324 1320
f 1323 1320 1319
f 1211 1323 1319
f 1210 1211 1319
f 1210 1319 1206
f 1327 1326 1215
f 1215 1326 1214
f 1215 1207 1321
f 1215 1321 1327
f 1325 1323 1328
f 1325 1328 1329
f 1216 1328 1211
f 1211 1328 1323
f 1330 1218 1219
f 1330 1219 1331
f 1219 1332 1331
f 1219 1220 1332
f 1220 1214 1326
f 1220 1326 1332
f 1335 1334 1333
f 1333 1334 1329
f 1333 1329 1328
f 1223 1333 1328
f 1222 1223 1328
f 1222 1328 1216
f 1336 1224 1330
f 1330 1224 1218
f 1330 1331 1337
f 1330 1337 1336
f 1335 1333 1226
f 1227 1335 1226
f 1338 1335 1227
f 1226 1333 1223
f 1339 1228 1229
f 1340 1339 1229
f 1340 1229 1224
f 1341 1340 1224
f 1336 1341 1224
f 1341 1336 1337
f 1343 1342 1231
f 1343 1231 1232
f 1227 1231 1338
f 1338 1231 1342
f 1344 1234 1235
f 1345 1344 1235
f 1345 1235 1228
f 1346 1345 1228
f 1339 1346 1228
f 1346 1339 1340
f 1237 1343 1232
f 1237 1347 1343
f 1348 1240 1344
f 1344 1240 1234
f 1344 1345 1349
f 1344 1349 1348
f 1351 1350 1242
f 1351 1242 1243
f 1237 1242 1347
f 1347 1242 1350
f 1352 1246 1247
f 1353 1352 1247
f 1353 1247 1240
f 1354 1353 1240
f 1348 1354 1240
f 1354 1348 1349
f 1249 1351 1243
f 1249 1355 1351
f 1356 1251 1252
f 1357 1356 1252
f 1357 1252 1246
f 1358 1357 1246
f 1352 1358 1246
f 1358 1352 1353
f 1360 1359 1254
f 1360 1254 1255
f 1249 1254 1355
f 1355 1254 1359
f 1361 1257 1258
f 1362 1361 1258
f 1362 1258 1251
f 1363 1362 1251
f 1356 1363 1251
f 1363 1356 1357
f 1366 1365 1364
f 1365 1360 1364
f 1360 1259 1364
f 1360 1255 1259
f 1367 1261 1262
f 1257 1361 1262
f 1361 1367 1262
f 1361 1368 1367
f 1361 1362 1369
f 1361 1369 1368
f 1366 1364 1263
f 1264 1366 1263
f 1370 1366 1264
f 1263 1364 1259
f 1371 1266 1367
f 1367 1266 1261
f 1368 1373 1372
f 1371 1368 1372
f 1367 1368 1371
f 1373 1368 1369
f 1375 1374 1267
f 1375 1267 1268
f 1264 1267 1370
f 1370 1267 1374
f 1376 1269 1270
f 1377 1376 1270
f 1377 1270 1266
f 1378 1377 1266
f 1371 1378 1266
f 1378 1371 1372
f 1271 1375 1268
f 1271 1379 1375
f 1380 1273 1376
f 1376 1273 1269
f 1376 1377 1381
f 1382 1376 1381
f 1380 1376 1382
f 1383 1382 1381
f 1385 1384 1274
f 1385 1274 1275
f 1271 1274 1379
f 1379 1274 1384
f 1386 1278 1380
f 1380 1278 1273
f 1382 1388 1387
f 1386 1382 1387
f 1380 1382 1386
f 1388 1382 1383
f 1280 1389 1279
f 1389 1390 1279
f 1390 1275 1279
f 1390 1385 1275
f 1391 1282 1283
f 1392 1391 1283
f 1392 1283 1278
f 1393 1392 1278
f 1386 1393 1278
f 1393 1386 1387
f 1395 1394 1286
f 1395 1286 1285
f 1280 1286 1389
f 1286 1396 1389
f 1286 1394 1396
f 1389 1396 1390
f 1397 1289 1391
f 1391 1289 1282
f 1391 1392 1398
f 1391 1398 1397
f 1291 1395 1285
f 1291 1399 1395
f 1400 1294 1397
f 1397 1294 1289
f 1397 1398 1401
f 1397 1401 1400
f 1403 1402 1295
f 1403 1295 1296
f 1291 1295 1399
f 1399 1295 1402
f 1404 1299 1400
f 1400 1299 1294
f 1400 1401 1405
f 1406 1400 1405
f 1404 1400 1406
f 1407 1406 1405
f 1300 1403 1296
f 1300 1408 1403
f 1409 1302 1404
f 1404 1302 1299
f 1410 1404 1406
f 1409 1404 1410
f 1411 1304 1305
f 1406 1411 1305
f 1410 1406 1305
f 1411 1406 1407
f 1300 1304 1408
f 1408 1304 1411
f 1409 1307 1302
f 1307 1409 1309
f 1309 1409 1410
f 1309 1410 1305
f 1412 1313 1314
f 1316 1412 1314
f 1413 1317 1318
f 1313 1412 1318
f 1412 1413 1318
f 1412 1414 1413
f 1320 1414 1316
f 1316 1414 1412
f 1415 1321 1322
f 1317 1413 1322
f 1413 1415 1322
f 1413 1416 1415
f 1325 1416 1324
f 1416 1414 1324
f 1416 1413 1414
f 1324 1414 1320
f 1417 1326 1327
f 1418 1417 1327
f 1418 1327 1321
f 1419 1418 1321
f 1415 1419 1321
f 1421 1420 1419
f 1415 1421 1419
f 1416 1421 1415
f 1329 1421 1325
f 1325 1421 1416
f 1422 1331 1332
f 1423 1422 1332
f 1423 1332 1326
f 1424 1423 1326
f 1417 1424 1326
f 1424 1417 1418
f 1420 1421 1334
f 1335 1420 1334
f 1425 1420 1335
f 1334 1421 1329
f 1427 1426 1422
f 1426 1331 1422
f 1426 1337 1331
f 1427 1422 1423
f 1430 1429 1428
f 1429 1425 1428
f 1425 1338 1428
f 1425 1335 1338
f 1431 1340 1341
f 1432 1431 1341
f 1337 1432 1341
f 1426 1432 1337
f 1430 1428 1342
f 1343 1430 1342
f 1433 1430 1343
f 1342 1428 1338
f 1434 1345 1346
f 1435 1434 1346
f 1435 1346 1340
f 1436 1435 1340
f 1431 1436 1340
f 1436 1431 1432
f 1439 1438 1437
f 1438 1433 1437
f 1433 1347 1437
f 1433 1343 1347
f 1440 1349 1434
f 1434 1349 1345
f 1434 1435 1441
f 1434 1441 1440
f 1439 1437 1350
f 1351 1439 1350
f 1442 1439 1351
f 1350 1437 1347
f 1443 1353 1354
f 1444 1443 1354
f 1444 1354 1349
f 1445 1444 1349
f 1440 1445 1349
f 1445 1440 1441
f 1448 1447 1446
f 1447 1442 1446
f 1442 1355 1446
f 1442 1351 1355
f 1449 1357 1358
f 1450 1449 1358
f 1450 1358 1353
f 1451 1450 1353
f 1443 1451 1353
f 1451 1443 1444
f 1454 1453 1452
f 1452 1453 1448
f 1452 1448 1446
f 1360 1452 1446
f 1359 1360 1446
f 1359 1446 1355
f 1455 1362 1363
f 1357 1449 1363
f 1449 1455 1363
f 1449 1456 1455
f 1449 1450 1457
f 1449 1457 1456
f 1454 1452 1365
f 1366 1454 1365
f 1458 1454 1366
f 1365 1452 1360
f 1459 1369 1455
f 1455 1369 1362
f 1456 1461 1460
f 1459 1456 1460
f 1455 1456 1459
f 1461 1456 1457
f 1464 1463 1462
f 1463 1458 1462
f 1458 1370 1462
f 1458 1366 1370
f 1465 1372 1373
f 1466 1465 1373
f 1466 1373 1369
f 1467 1466 1369
f 1459 1467 1369
f 1467 1459 1460
f 1464 1462 1374
f 1375 1464 1374
f 1468 1464 1375
f 1374 1462 1370
f 1469 1377 1378
f 1372 1465 1378
f 1465 1469 1378
f 1465 1470 1469
f 1465 1466 1471
f 1465 1471 1470
f 1379 1468 1375
f 1379 1472 1468
f 1469 1381 1377
f 1381 1469 1383
f 1469 1473 1383
f 1469 1470 1473
f 1470 1471 1474
f 1470 1474 1473
f 1476 1475 1384
f 1476 1384 1385
f 1379 1384 1472
f 1472 1384 1475
f 1477 1387 1388
f 1478 1477 1388
f 1478 1388 1383
f 1479 1478 1383
f 1473 1479 1383
f 1479 1473 1474
f 1482 1481 1480
f 1481 1476 1480
f 1476 1390 1480
f 1476 1385 1390
f 1483 1392 1393
f 1387 1477 1393
f 1477 1483 1393
f 1477 1484 1483
f 1477 1478 1485
f 1477 1485 1484
f 1487 1486 1394
f 1487 1394 1395
f 1480 1396 1482
f 1396 1486 1482
f 1396 1394 1486
f 1396 1480 1390
f 1488 1398 1483
f 1483 1398 1392
f 1489 1483 1484
f 1488 1483 1489
f 1484 1485 1490
f 1491 1484 1490
f 1489 1484 1491
f 1490 1487 1491
f 1487 1399 1491
f 1487 1395 1399
f 1492 1401 1488
f 1488 1401 1398
f 1493 1488 1489
f 1492 1488 1493
f 1403 1493 1402
f 1493 1491 1402
f 1493 1489 1491
f 1402 1491 1399
f 1492 1405 1401
f 1405 1492 1407
f 1492 1494 1407
f 1492 1493 1494
f 1408 1494 1403
f 1403 1494 1493
f 1494 1411 1407
f 1411 1494 1408
f 1495 1418 1419
f 1420 1495 1419
f 1496 1423 1424
f 1418 1495 1424
f 1495 1496 1424
f 1495 1497 1496
f 1425 1497 1420
f 1420 1497 1495
f 1498 1426 1427
f 1423 1496 1427
f 1496 1498 1427
f 1496 1499 1498
f 1430 1499 1429
f 1499 1497 1429
f 1499 1496 1497
f 1429 1497 1425
f 1500 1432 1498
f 1498 1432 1426
f 1501 1498 1499
f 1500 1498 1501
f 1433 1501 1430
f 1430 1501 1499
f 1502 1435 1436
f 1432 1500 1436
f 1500 1502 1436
f 1500 1503 1502
f 1439 1503 1438
f 1503 1501 1438
f 1503 1500 1501
f 1438 1501 1433
f 1504 1441 1502
f 1502 1441 1435
f 1505 1502 1503
f 1504 1502 1505
f 1442 1505 1439
f 1439 1505 1503
f 1506 1444 1445
f 1441 1504 1445
f 1504 1506 1445
f 1504 1507 1506
f 1448 1507 1447
f 1507 1505 1447
f 1507 1504 1505
f 1447 1505 1442
f 1508 1450 1451
f 1444 1506 1451
f 1506 1508 1451
f 1506 1509 1508
f 1454 1509 1453
f 1509 1507 1453
f 1509 1506 1507
f 1453 1507 1448
f 1510 1457 1508
f 1508 1457 1450
f 1511 1508 1509
f 1510 1508 1511
f 1458 1511 1454
f 1454 1511 1509
f 1512 1460 1461
f 1513 1512 1461
f 1513 1461 1457
f 1514 1513 1457
f 1510 1514 1457
f 1464 1515 1463
f 1515 1510 1463
f 1510 1511 1463
f 1515 1514 1510
f 1463 1511 1458
f 1516 1466 1467
f 1517 1516 1467
f 1517 1467 1460
f 1518 1517 1460
f 1512 1518 1460
f 1518 1512 1513
f 1468 1515 1464
f 1468 1519 1515
f 1521 1520 1516
f 1520 1466 1516
f 1520 1471 1466
f 1521 1516 1517
f 1524 1523 1522
f 1523 1519 1522
f 1519 1472 1522
f 1519 1468 1472
f 1526 1474 1525
f 1474 1520 1525
f 1474 1471 1520
f 1528 1527 1526
f 1528 1526 1525
f 1527 1528 1524
f 1527 1524 1522
f 1476 1527 1522
f 1475 1476 1522
f 1475 1522 1472
f 1529 1478 1479
f 1474 1526 1479
f 1526 1529 1479
f 1526 1530 1529
f 1482 1530 1481
f 1530 1527 1481
f 1530 1526 1527
f 1481 1527 1476
f 1531 1485 1529
f 1529 1485 1478
f 1487 1531 1486
f 1531 1530 1486
f 1531 1529 1530
f 1486 1530 1482
f 1531 1490 1485
f 1490 1531 1487
f 1532 1513 1514
f 1515 1532 1514
f 1533 1517 1518
f 1513 1532 1518
f 1532 1533 1518
f 1532 1534 1533
f 1519 1534 1515
f 1515 1534 1532
f 1535 1520 1521
f 1517 1533 1521
f 1533 1535 1521
f 1533 1536 1535
f 1524 1536 1523
f 1536 1534 1523
f 1536 1533 1534
f 1523 1534 1519
f 1535 1525 1520
f 1525 1535 1528
f 1528 1535 1536
f 1528 1536 1524
