v 14.8 7.0 -11.0
v 15.0 7.0 -11.3
v 15.0 6.7 -11.0
v 15.0 6.7 -10.0
v 14.7 7.0 -10.0
v 15.0 7.0 -9.5
v 14.7 8.0 -11.0
v 15.0 8.0 -11.4
v 14.5 8.0 -10.0
v 15.0 7.4 -9.0
v 14.5 8.0 -9.0
v 15.0 7.5 -8.0
v 14.6 8.0 -8.0
v 15.0 7.6 -7.0
v 14.7 8.0 -7.0
v 15.0 8.0 -6.5
v 14.9 8.0 -4.0
v 15.0 8.0 -4.1
v 15.0 7.9 -4.0
v 15.0 8.0 -3.9
v 15.0 8.5 -11.0
v 14.5 9.0 -10.0
v 15.0 9.0 -10.6
v 14.1 9.0 -9.0
v 14.4 9.0 -8.0
v 14.5 9.0 -7.0
v 15.0 8.4 -6.0
v 14.6 9.0 -6.0
v 15.0 8.4 -5.0
v 14.6 9.0 -5.0
v 14.7 9.0 -4.0
v 15.0 9.0 -3.7
v 14.6 10.0 -10.0
v 15.0 10.0 -10.5
v 14.4 10.0 -9.0
v 14.5 10.0 -8.0
v 14.5 10.0 -7.0
v 14.5 10.0 -6.0
v 14.5 10.0 -5.0
v 14.8 10.0 -4.0
v 15.0 10.0 -3.8
v 14.7 11.0 -10.0
v 15.0 11.0 -10.4
v 14.5 11.0 -9.0
v 14.5 11.0 -8.0
v 14.5 11.0 -7.0
v 14.5 11.0 -6.0
v 14.7 11.0 -5.0
v 15.0 11.0 -4.5
v 15.0 10.4 -4.0
v 15.0 11.7 -10.0
v 14.6 12.0 -9.0
v 15.0 12.0 -9.8
v 14.5 12.0 -8.0
v 14.5 12.0 -7.0
v 14.7 12.0 -6.0
v 15.0 12.0 -5.5
v 15.0 11.5 -5.0
v 15.0 13.0 -13.0
v 15.0 13.0 -13.0
v 15.0 13.0 -13.0
v 15.0 13.0 -13.0
v 14.7 13.0 -10.0
v 15.0 13.0 -10.4
v 15.0 12.3 -10.0
v 14.5 13.0 -9.0
v 14.5 13.0 -8.0
v 14.6 13.0 -7.0
v 15.0 13.0 -6.4
v 15.0 12.5 -6.0
v 15.0 14.0 -13.0
v 15.0 14.0 -13.0
v 15.0 14.0 -13.0
v 14.6 14.0 -10.0
v 15.0 14.0 -10.6
v 14.5 14.0 -9.0
v 14.6 14.0 -8.0
v 14.8 14.0 -7.0
v 15.0 14.0 -6.7
v 15.0 14.0 -13.0
v 15.0 14.6 -12.0
v 14.8 15.0 -12.0
v 15.0 15.0 -12.3
v 15.0 14.5 -11.0
v 14.7 15.0 -11.0
v 14.6 15.0 -10.0
v 14.7 15.0 -9.0
v 15.0 15.0 -8.5
v 15.0 14.6 -8.0
v 15.0 14.3 -7.0
v 15.0 16.0 -12.0
v 15.0 16.0 -12.0
v 15.0 16.0 -12.0
v 15.0 15.5 -11.0
v 15.0 15.5 -10.0
v 15.0 15.4 -9.0
v 15.0 16.0 -12.0
v 15.7 6.0 -11.0
v 16.0 6.0 -11.4
v 16.0 5.7 -11.0
v 16.0 5.7 -10.0
v 15.7 6.0 -10.0
v 16.0 6.0 -9.5
v 15.7 7.0 -12.0
v 16.0 7.0 -12.3
v 16.0 6.6 -12.0
v 16.0 6.4 -9.0
v 15.4 7.0 -9.0
v 16.0 6.5 -8.0
v 15.5 7.0 -8.0
v 16.0 6.5 -7.0
v 15.5 7.0 -7.0
v 16.0 6.5 -6.0
v 15.6 7.0 -6.0
v 16.0 6.5 -5.0
v 15.6 7.0 -5.0
v 16.0 6.7 -4.0
v 15.7 7.0 -4.0
v 16.0 7.0 -3.8
v 15.5 8.0 -12.0
v 16.0 8.0 -12.5
v 15.3 8.0 -6.0
v 15.3 8.0 -5.0
v 16.0 8.0 -3.5
v 15.6 9.0 -12.0
v 16.0 9.0 -12.6
v 15.3 9.0 -11.0
v 16.0 9.0 -3.5
v 15.7 10.0 -13.0
v 16.0 10.0 -13.6
v 16.0 9.5 -13.0
v 15.5 10.0 -12.0
v 15.4 10.0 -11.0
v 16.0 10.0 -3.5
v 15.7 11.0 -14.0
v 16.0 11.0 -14.3
v 16.0 10.4 -14.0
v 15.5 11.0 -13.0
v 15.5 11.0 -12.0
v 15.4 11.0 -11.0
v 15.5 11.0 -4.0
v 16.0 11.0 -3.6
v 15.7 12.0 -14.0
v 16.0 12.0 -14.2
v 15.4 12.0 -13.0
v 15.5 12.0 -12.0
v 15.5 12.0 -11.0
v 15.2 12.0 -10.0
v 15.3 12.0 -5.0
v 15.9 12.0 -4.0
v 16.0 12.0 -3.9
v 16.0 12.4 -14.0
v 16.0 13.0 -13.7
v 15.4 13.0 -12.0
v 15.4 13.0 -11.0
v 15.3 13.0 -6.0
v 15.7 13.0 -5.0
v 16.0 13.0 -4.7
v 16.0 12.1 -4.0
v 16.0 14.0 -13.4
v 15.3 14.0 -12.0
v 15.3 14.0 -11.0
v 15.5 14.0 -6.0
v 16.0 14.0 -5.4
v 16.0 13.4 -5.0
v 16.0 14.6 -13.0
v 16.0 15.0 -12.7
v 15.3 15.0 -8.0
v 15.5 15.0 -7.0
v 15.7 15.0 -6.0
v 16.0 15.0 -5.7
v 16.0 16.0 -12.5
v 15.3 16.0 -11.0
v 15.4 16.0 -10.0
v 15.5 16.0 -9.0
v 15.7 16.0 -8.0
v 16.0 16.0 -7.5
v 16.0 15.6 -7.0
v 16.0 15.3 -6.0
v 16.0 16.6 -12.0
v 15.6 17.0 -11.0
v 16.0 17.0 -11.6
v 15.7 17.0 -10.0
v 16.0 17.0 -9.5
v 16.0 16.6 -9.0
v 16.0 16.4 -8.0
v 15.9 18.0 -11.0
v 16.0 18.0 -11.1
v 16.0 18.0 -10.8
v 16.0 17.5 -10.0
v 16.0 18.1 -11.0
v 16.6 6.0 -12.0
v 17.0 6.0 -12.3
v 17.0 5.7 -12.0
v 17.0 5.4 -11.0
v 17.0 5.4 -10.0
v 17.0 5.5 -9.0
v 16.4 6.0 -9.0
v 17.0 5.5 -8.0
v 16.5 6.0 -8.0
v 17.0 5.5 -7.0
v 16.5 6.0 -7.0
v 17.0 5.5 -6.0
v 16.5 6.0 -6.0
v 17.0 5.6 -5.0
v 16.5 6.0 -5.0
v 17.0 5.8 -4.0
v 16.8 6.0 -4.0
v 17.0 6.0 -3.8
v 17.0 7.0 -12.7
v 17.0 7.0 -3.6
v 16.6 8.0 -13.0
v 17.0 8.0 -13.4
v 17.0 7.5 -13.0
v 17.0 8.0 -3.5
v 16.7 9.0 -14.0
v 17.0 9.0 -14.3
v 17.0 8.7 -14.0
v 16.3 9.0 -13.0
v 17.0 9.0 -3.4
v 16.5 10.0 -15.0
v 17.0 10.0 -15.2
v 17.0 9.8 -15.0
v 16.2 10.0 -14.0
v 17.0 10.0 -3.4
v 17.0 10.3 -15.0
v 17.0 11.0 -14.6
v 17.0 11.0 -3.5
v 17.0 12.0 -14.5
v 16.5 12.0 -4.0
v 17.0 11.9 -4.0
v 17.0 12.0 -4.1
v 16.5 13.0 -14.0
v 17.0 13.0 -14.3
v 17.0 13.0 -4.3
v 17.0 13.4 -14.0
v 17.0 14.0 -13.6
v 16.4 14.0 -5.0
v 17.0 14.0 -4.5
v 16.4 15.0 -13.0
v 17.0 15.0 -13.4
v 16.7 15.0 -5.0
v 17.0 15.0 -4.7
v 16.6 16.0 -13.0
v 17.0 16.0 -13.3
v 16.3 16.0 -7.0
v 16.6 16.0 -6.0
v 17.0 16.0 -5.5
v 17.0 15.4 -5.0
v 17.0 16.4 -13.0
v 16.4 17.0 -12.0
v 17.0 17.0 -12.5
v 16.3 17.0 -9.0
v 16.4 17.0 -8.0
v 16.7 17.0 -7.0
v 17.0 17.0 -6.6
v 17.0 16.5 -6.0
v 17.0 17.8 -12.0
v 17.0 18.0 -11.9
v 16.3 18.0 -10.0
v 16.6 18.0 -9.0
v 16.7 18.0 -8.0
v 17.0 18.0 -7.6
v 17.0 17.4 -7.0
v 16.6 19.0 -12.0
v 17.0 19.0 -12.9
v 17.0 18.2 -12.0
v 16.5 19.0 -11.0
v 16.7 19.0 -10.0
v 17.0 19.0 -9.5
v 17.0 18.6 -9.0
v 17.0 18.3 -8.0
v 16.9 20.0 -12.0
v 17.0 20.0 -12.1
v 17.0 20.0 -11.9
v 17.0 19.6 -11.0
v 17.0 19.4 -10.0
v 17.0 20.1 -12.0
v 17.6 5.0 -11.0
v 18.0 5.0 -11.3
v 18.0 4.7 -11.0
v 18.0 4.5 -10.0
v 17.5 5.0 -10.0
v 18.0 4.6 -9.0
v 17.5 5.0 -9.0
v 18.0 4.5 -8.0
v 17.5 5.0 -8.0
v 18.0 4.5 -7.0
v 17.5 5.0 -7.0
v 18.0 4.6 -6.0
v 17.6 5.0 -6.0
v 18.0 5.0 -5.5
v 18.0 6.0 -12.5
v 18.0 5.5 -12.0
v 18.0 5.3 -5.0
v 18.0 5.9 -4.0
v 18.0 6.0 -3.9
v 17.5 7.0 -13.0
v 18.0 7.0 -13.3
v 18.0 6.6 -13.0
v 17.8 7.0 -4.0
v 18.0 6.4 -4.0
v 18.0 7.0 -4.2
v 18.0 8.0 -13.7
v 18.0 7.3 -4.0
v 18.0 8.0 -3.6
v 18.0 9.0 -14.5
v 18.0 8.4 -14.0
v 18.0 8.7 -3.0
v 17.7 9.0 -3.0
v 18.0 9.0 -2.8
v 18.0 10.0 -15.1
v 18.0 9.9 -15.0
v 17.5 10.0 -3.0
v 18.0 10.0 -2.6
v 18.0 10.1 -15.0
v 18.0 11.0 -14.6
v 17.5 11.0 -3.0
v 18.0 11.0 -2.6
v 18.0 12.0 -14.5
v 17.1 12.0 -4.0
v 17.6 12.0 -3.0
v 18.0 12.0 -2.6
v 18.0 13.0 -14.4
v 17.3 13.0 -4.0
v 17.6 13.0 -3.0
v 18.0 13.0 -2.7
v 18.0 13.6 -14.0
v 18.0 14.0 -13.7
v 17.5 14.0 -4.0
v 17.8 14.0 -3.0
v 18.0 14.0 -2.8
v 18.0 15.0 -13.5
v 18.0 14.9 -4.0
v 18.0 15.0 -4.1
v 18.0 14.3 -3.0
v 18.0 16.0 -13.5
v 17.4 16.0 -5.0
v 18.0 15.5 -4.0
v 17.9 16.0 -4.0
v 18.0 16.0 -3.9
v 17.6 17.0 -13.0
v 18.0 17.0 -13.3
v 17.5 17.0 -6.0
v 18.0 17.0 -5.4
v 18.0 16.6 -5.0
v 18.0 16.1 -4.0
v 18.0 17.7 -13.0
v 17.1 18.0 -12.0
v 18.0 18.0 -12.8
v 17.5 18.0 -7.0
v 18.0 18.0 -6.4
v 18.0 17.6 -6.0
v 17.1 19.0 -13.0
v 18.0 19.0 -13.2
v 18.0 18.4 -13.0
v 17.3 19.0 -9.0
v 17.6 19.0 -8.0
v 18.0 19.0 -7.5
v 18.0 18.6 -7.0
v 18.0 19.3 -13.0
v 18.0 20.0 -12.4
v 17.4 20.0 -11.0
v 17.5 20.0 -10.0
v 17.7 20.0 -9.0
v 18.0 20.0 -8.5
v 18.0 19.5 -8.0
v 18.0 20.4 -12.0
v 18.0 20.4 -11.0
v 18.0 20.5 -10.0
v 18.0 20.4 -9.0
v 18.7 4.0 -10.0
v 19.0 4.0 -10.3
v 19.0 3.8 -10.0
v 19.0 4.0 -9.3
v 18.6 4.0 -8.0
v 19.0 4.0 -8.8
v 19.0 3.6 -8.0
v 19.0 3.5 -7.0
v 18.5 4.0 -7.0
v 19.0 3.7 -6.0
v 18.7 4.0 -6.0
v 19.0 4.0 -5.5
v 19.0 5.0 -11.6
v 19.0 4.4 -11.0
v 19.0 4.1 -9.0
v 19.0 4.4 -5.0
v 18.4 5.0 -5.0
v 19.0 4.8 -4.0
v 18.8 5.0 -4.0
v 19.0 5.0 -3.9
v 19.0 6.0 -12.5
v 19.0 5.4 -12.0
v 18.5 6.0 -4.0
v 19.0 6.0 -4.1
v 19.0 5.5 -4.0
v 19.0 7.0 -13.5
v 19.0 6.5 -13.0
v 19.0 7.0 -4.3
v 18.5 8.0 -14.0
v 19.0 8.0 -14.3
v 19.0 7.6 -14.0
v 19.0 8.0 -4.0
v 19.0 8.0 -4.0
v 19.0 9.0 -14.5
v 19.0 8.0 -4.0
v 19.0 8.5 -3.0
v 19.0 9.0 -2.6
v 18.1 10.0 -15.0
v 19.0 10.0 -14.6
v 19.0 10.0 -2.5
v 19.0 11.0 -14.5
v 19.0 11.0 -2.5
v 19.0 12.0 -14.5
v 19.0 12.0 -2.5
v 19.0 13.0 -14.5
v 19.0 13.0 -2.5
v 18.7 14.0 -14.0
v 19.0 14.0 -14.2
v 19.0 14.0 -2.5
v 19.0 14.2 -14.0
v 19.0 15.0 -13.6
v 18.1 15.0 -4.0
v 18.6 15.0 -3.0
v 19.0 15.0 -2.7
v 19.0 16.0 -13.5
v 19.0 15.5 -3.0
v 19.0 16.0 -3.3
v 19.0 17.0 -13.5
v 18.3 17.0 -5.0
v 18.5 17.0 -4.0
v 19.0 17.0 -3.6
v 18.2 18.0 -13.0
v 19.0 18.0 -13.4
v 18.3 18.0 -6.0
v 18.5 18.0 -5.0
v 18.8 18.0 -4.0
v 19.0 18.0 -3.8
v 19.0 19.0 -13.4
v 18.3 19.0 -7.0
v 18.5 19.0 -6.0
v 18.6 19.0 -5.0
v 19.0 19.0 -4.4
v 19.0 18.4 -4.0
v 19.0 19.4 -13.0
v 19.0 20.0 -12.5
v 18.3 20.0 -8.0
v 18.5 20.0 -7.0
v 18.6 20.0 -6.0
v 18.8 20.0 -5.0
v 19.0 20.0 -4.7
v 19.0 20.4 -12.0
v 19.0 20.7 -11.0
v 18.6 21.0 -10.0
v 19.0 21.0 -10.5
v 18.5 21.0 -9.0
v 18.5 21.0 -8.0
v 18.7 21.0 -7.0
v 19.0 21.0 -6.5
v 19.0 20.6 -6.0
v 19.0 20.3 -5.0
v 19.0 21.4 -10.0
v 19.0 21.6 -9.0
v 18.9 22.0 -8.0
v 19.0 22.0 -8.2
v 19.0 22.0 -7.8
v 19.0 21.4 -7.0
v 19.0 22.1 -8.0
v 19.7 3.0 -10.0
v 20.0 3.0 -10.3
v 20.0 2.7 -10.0
v 20.0 2.5 -9.0
v 19.6 3.0 -9.0
v 20.0 2.5 -8.0
v 19.5 3.0 -8.0
v 20.0 2.6 -7.0
v 19.6 3.0 -7.0
v 20.0 3.0 -6.5
v 19.5 4.0 -11.0
v 20.0 4.0 -11.4
v 20.0 3.6 -11.0
v 19.1 4.0 -9.0
v 20.0 3.3 -6.0
v 20.0 3.5 -5.0
v 19.4 4.0 -5.0
v 20.0 3.7 -4.0
v 19.7 4.0 -4.0
v 20.0 4.0 -3.7
v 19.5 5.0 -12.0
v 20.0 5.0 -12.3
v 20.0 4.7 -12.0
v 20.0 5.0 -3.3
v 20.0 6.0 -12.6
v 19.1 6.0 -4.0
v 20.0 5.6 -3.0
v 19.7 6.0 -3.0
v 20.0 6.0 -2.8
v 20.0 7.0 -13.5
v 20.0 6.5 -13.0
v 19.3 7.0 -4.0
v 19.6 7.0 -3.0
v 20.0 7.0 -2.7
v 20.0 8.0 -14.4
v 20.0 7.5 -14.0
v 19.0 8.0 -4.0
v 19.5 8.0 -3.0
v 20.0 8.0 -2.6
v 20.0 9.0 -14.5
v 20.0 9.0 -2.5
v 20.0 10.0 -14.5
v 20.0 10.0 -2.6
v 20.0 11.0 -14.5
v 20.0 11.0 -2.5
v 20.0 12.0 -14.5
v 20.0 12.0 -2.5
v 20.0 13.0 -14.3
v 20.0 13.0 -2.5
v 20.0 13.5 -14.0
v 19.3 14.0 -14.0
v 20.0 14.0 -13.7
v 20.0 14.0 -2.5
v 20.0 15.0 -13.5
v 20.0 15.0 -2.6
v 20.0 16.0 -13.5
v 19.8 16.0 -3.0
v 20.0 16.0 -2.9
v 20.0 17.0 -13.4
v 20.0 16.2 -3.0
v 20.0 17.0 -3.4
v 20.0 18.0 -13.5
v 20.0 18.0 -3.5
v 20.0 19.0 -13.3
v 19.4 19.0 -4.0
v 20.0 19.0 -3.6
v 20.0 19.3 -13.0
v 20.0 20.0 -12.4
v 19.7 20.0 -4.0
v 20.0 20.0 -3.8
v 20.0 20.4 -12.0
v 19.5 21.0 -11.0
v 20.0 21.0 -11.4
v 19.4 21.0 -6.0
v 19.7 21.0 -5.0
v 20.0 21.0 -4.7
v 20.0 20.3 -4.0
v 20.0 21.4 -11.0
v 19.7 22.0 -10.0
v 20.0 22.0 -10.3
v 19.4 22.0 -9.0
v 19.5 22.0 -7.0
v 20.0 22.0 -6.5
v 20.0 21.6 -6.0
v 20.0 21.3 -5.0
v 20.0 22.2 -10.0
v 20.0 22.4 -9.0
v 20.0 22.5 -8.0
v 20.0 22.4 -7.0
v 21.0 1.0 -9.0
v 21.0 1.0 -9.0
v 21.0 1.0 -9.0
v 21.0 1.0 -9.0
v 20.7 2.0 -10.0
v 21.0 2.0 -10.3
v 21.0 1.7 -10.0
v 20.4 2.0 -9.0
v 21.0 1.5 -8.0
v 20.5 2.0 -8.0
v 21.0 1.7 -7.0
v 20.7 2.0 -7.0
v 21.0 2.0 -6.5
v 21.0 3.0 -10.7
v 21.0 2.4 -6.0
v 20.3 3.0 -6.0
v 21.0 2.5 -5.0
v 20.5 3.0 -5.0
v 21.0 2.7 -4.0
v 20.7 3.0 -4.0
v 21.0 3.0 -3.7
v 21.0 4.0 -11.5
v 21.0 3.4 -11.0
v 21.0 4.0 -3.3
v 21.0 5.0 -12.4
v 21.0 4.5 -12.0
v 21.0 4.5 -3.0
v 20.5 5.0 -3.0
v 21.0 5.0 -2.7
v 21.0 6.0 -12.6
v 21.0 6.0 -2.5
v 21.0 7.0 -13.5
v 21.0 6.5 -13.0
v 21.0 7.0 -2.5
v 21.0 8.0 -14.2
v 21.0 7.7 -14.0
v 21.0 8.0 -2.5
v 21.0 9.0 -14.4
v 21.0 9.0 -2.7
v 21.0 10.0 -14.4
v 20.8 10.0 -3.0
v 21.0 9.7 -3.0
v 21.0 10.0 -3.2
v 21.0 11.0 -14.4
v 21.0 10.3 -3.0
v 21.0 11.0 -2.7
v 21.0 12.0 -14.3
v 21.0 12.0 -2.6
v 21.0 12.5 -14.0
v 20.5 13.0 -14.0
v 21.0 13.0 -13.7
v 21.0 13.0 -2.5
v 21.0 14.0 -13.5
v 21.0 14.0 -2.7
v 21.0 15.0 -13.5
v 20.6 15.0 -3.0
v 21.0 14.5 -3.0
v 21.0 15.0 -3.3
v 21.0 16.0 -13.3
v 20.2 16.0 -3.0
v 21.0 16.0 -3.4
v 21.0 16.7 -13.0
v 20.8 17.0 -13.0
v 21.0 17.0 -12.8
v 21.0 17.0 -3.5
v 21.0 18.0 -13.1
v 21.0 17.5 -13.0
v 21.0 18.0 -3.5
v 21.0 18.2 -13.0
v 20.4 19.0 -13.0
v 21.0 19.0 -12.5
v 21.0 19.0 -3.5
v 20.5 20.0 -12.0
v 21.0 19.5 -12.0
v 21.0 20.0 -11.6
v 21.0 20.0 -3.6
v 21.0 21.0 -11.2
v 21.0 20.5 -4.0
v 21.0 21.0 -4.5
v 21.0 21.3 -11.0
v 21.0 22.0 -10.3
v 20.5 22.0 -6.0
v 21.0 22.0 -5.6
v 21.0 21.5 -5.0
v 21.0 22.2 -10.0
v 21.0 22.4 -9.0
v 21.0 22.5 -8.0
v 21.0 22.9 -7.0
v 21.0 22.3 -6.0
v 22.0 1.0 -9.4
v 22.0 0.8 -9.0
v 22.0 1.0 -8.6
v 22.0 2.0 -10.6
v 22.0 1.4 -10.0
v 22.0 1.4 -8.0
v 22.0 1.5 -7.0
v 22.0 1.5 -6.0
v 21.4 2.0 -6.0
v 22.0 1.5 -5.0
v 21.5 2.0 -5.0
v 22.0 1.6 -4.0
v 21.6 2.0 -4.0
v 22.0 2.0 -3.6
v 21.5 3.0 -11.0
v 22.0 3.0 -11.3
v 22.0 2.5 -11.0
v 22.0 2.6 -3.0
v 21.7 3.0 -3.0
v 22.0 3.0 -2.7
v 22.0 4.0 -11.7
v 21.4 4.0 -3.0
v 22.0 4.0 -2.6
v 22.0 5.0 -12.4
v 22.0 4.4 -12.0
v 22.0 5.0 -2.5
v 22.0 6.0 -12.6
v 22.0 6.0 -2.5
v 22.0 7.0 -13.3
v 22.0 6.6 -13.0
v 22.0 7.0 -2.5
v 21.3 8.0 -14.0
v 22.0 8.0 -13.5
v 22.0 8.0 -2.7
v 21.5 9.0 -14.0
v 22.0 9.0 -13.6
v 21.5 9.0 -3.0
v 22.0 8.5 -3.0
v 22.0 9.0 -3.3
v 21.5 10.0 -14.0
v 22.0 10.0 -13.6
v 22.0 10.0 -3.5
v 21.5 11.0 -14.0
v 22.0 11.0 -13.6
v 21.4 11.0 -3.0
v 22.0 11.0 -3.4
v 21.4 12.0 -14.0
v 22.0 12.0 -13.6
v 21.6 12.0 -3.0
v 22.0 12.0 -3.3
v 22.0 13.0 -13.5
v 22.0 12.7 -3.0
v 22.0 13.0 -2.8
v 22.0 14.0 -13.4
v 21.5 14.0 -3.0
v 22.0 13.3 -3.0
v 22.0 14.0 -3.3
v 22.0 15.0 -13.3
v 22.0 15.0 -3.5
v 22.0 15.5 -13.0
v 21.5 16.0 -13.0
v 22.0 16.0 -12.7
v 22.0 16.0 -3.5
v 22.0 17.0 -12.4
v 22.0 17.0 -3.5
v 21.2 18.0 -13.0
v 22.0 18.0 -12.4
v 22.0 18.0 -3.5
v 21.5 19.0 -12.0
v 22.0 18.5 -12.0
v 22.0 19.0 -11.6
v 22.0 19.0 -3.5
v 21.6 20.0 -11.0
v 22.0 19.6 -11.0
v 22.0 20.0 -10.6
v 22.0 20.0 -3.6
v 21.2 21.0 -11.0
v 22.0 20.6 -10.0
v 21.7 21.0 -10.0
v 22.0 21.0 -9.5
v 22.0 20.4 -4.0
v 22.0 21.0 -4.6
v 21.2 22.0 -10.0
v 22.0 21.4 -9.0
v 21.4 22.0 -9.0
v 21.6 22.0 -8.0
v 22.0 21.6 -8.0
v 22.0 22.0 -7.5
v 22.0 21.4 -5.0
v 22.0 22.0 -5.7
v 22.0 22.3 -7.0
v 22.0 22.3 -6.0
v 22.5 1.0 -10.0
v 23.0 1.0 -10.3
v 23.0 0.7 -10.0
v 23.0 0.5 -9.0
v 23.0 1.0 -8.3
v 22.8 1.0 -6.0
v 23.0 1.0 -6.2
v 23.0 0.9 -6.0
v 23.0 0.5 -5.0
v 22.5 1.0 -5.0
v 23.0 0.6 -4.0
v 22.6 1.0 -4.0
v 23.0 1.0 -3.6
v 22.6 2.0 -11.0
v 23.0 2.0 -11.3
v 23.0 1.7 -11.0
v 23.0 1.2 -8.0
v 23.0 1.4 -7.0
v 23.0 1.6 -3.0
v 22.6 2.0 -3.0
v 23.0 2.0 -2.7
v 23.0 3.0 -11.6
v 23.0 3.0 -2.5
v 22.5 4.0 -12.0
v 23.0 4.0 -12.3
v 23.0 3.6 -12.0
v 23.0 4.0 -2.5
v 23.0 5.0 -12.5
v 23.0 5.0 -2.5
v 23.0 6.0 -12.5
v 23.0 6.0 -2.5
v 22.4 7.0 -13.0
v 23.0 7.0 -12.6
v 23.0 7.0 -2.6
v 22.6 8.0 -13.0
v 23.0 8.0 -12.7
v 22.5 8.0 -3.0
v 23.0 7.6 -3.0
v 23.0 8.0 -3.3
v 23.0 9.0 -13.3
v 23.0 8.5 -13.0
v 23.0 9.0 -3.5
v 23.0 10.0 -13.4
v 23.0 10.0 -3.6
v 23.0 11.0 -13.4
v 23.0 11.0 -3.6
v 23.0 12.0 -13.4
v 23.0 12.0 -3.5
v 23.0 13.0 -13.3
v 22.2 13.0 -3.0
v 23.0 13.0 -3.4
v 23.0 13.5 -13.0
v 22.6 14.0 -13.0
v 23.0 14.0 -12.7
v 23.0 14.0 -3.5
v 22.5 15.0 -13.0
v 23.0 15.0 -12.7
v 23.0 15.0 -3.5
v 23.0 16.0 -12.3
v 23.0 16.0 -3.5
v 23.0 16.5 -12.0
v 22.6 17.0 -12.0
v 23.0 17.0 -11.7
v 23.0 17.0 -3.6
v 22.4 18.0 -12.0
v 23.0 18.0 -11.5
v 23.0 18.0 -3.6
v 23.0 19.0 -11.2
v 23.0 19.0 -3.6
v 23.0 19.2 -11.0
v 22.5 20.0 -10.0
v 23.0 19.6 -10.0
v 23.0 20.0 -9.5
v 23.0 20.0 -3.8
v 22.4 21.0 -9.0
v 23.0 20.4 -9.0
v 22.7 21.0 -8.0
v 23.0 20.7 -8.0
v 23.0 21.0 -7.6
v 22.5 21.0 -5.0
v 23.0 20.6 -5.0
v 23.0 21.0 -5.5
v 23.0 20.2 -4.0
v 22.4 22.0 -7.0
v 23.0 21.5 -7.0
v 22.3 22.0 -6.0
v 23.0 21.4 -6.0
v 23.7 0.0 -9.0
v 24.0 0.0 -9.4
v 24.0 -0.3 -9.0
v 24.0 -0.2 -8.0
v 23.8 0.0 -8.0
v 24.0 0.0 -7.7
v 23.7 0.0 -5.0
v 24.0 0.0 -5.4
v 24.0 -0.7 -5.0
v 24.0 -0.4 -4.0
v 23.7 0.0 -4.0
v 24.0 0.0 -3.7
v 24.0 1.0 -10.5
v 24.0 0.4 -10.0
v 23.3 1.0 -8.0
v 24.0 1.0 -7.2
v 23.8 1.0 -6.0
v 24.0 1.0 -6.0
v 24.0 0.7 -3.0
v 23.6 1.0 -3.0
v 24.0 1.0 -2.7
v 24.0 2.0 -11.4
v 24.0 1.5 -11.0
v 24.0 1.2 -7.0
v 24.0 1.0 -6.0
v 24.0 2.0 -2.5
v 24.0 3.0 -11.6
v 24.0 3.0 -2.4
v 24.0 4.0 -12.2
v 24.0 3.7 -12.0
v 24.0 4.0 -2.5
v 24.0 5.0 -12.4
v 24.0 5.0 -2.5
v 24.0 6.0 -12.4
v 24.0 6.0 -2.6
v 24.0 7.0 -12.4
v 24.0 7.0 -2.7
v 24.0 8.0 -12.4
v 24.0 7.3 -3.0
v 24.0 8.0 -3.4
v 23.4 9.0 -13.0
v 24.0 9.0 -12.5
v 24.0 9.0 -3.8
v 23.5 10.0 -13.0
v 24.0 10.0 -12.5
v 23.8 10.0 -5.0
v 24.0 9.7 -5.0
v 24.0 10.0 -5.2
v 23.5 10.0 -4.0
v 24.0 9.3 -4.0
v 23.5 11.0 -13.0
v 24.0 11.0 -12.6
v 23.8 11.0 -5.0
v 24.0 11.0 -5.2
v 23.5 11.0 -4.0
v 23.5 12.0 -13.0
v 24.0 12.0 -12.6
v 24.0 11.3 -5.0
v 24.0 11.7 -4.0
v 24.0 12.0 -3.8
v 23.4 13.0 -13.0
v 24.0 13.0 -12.6
v 24.0 13.0 -3.5
v 24.0 14.0 -12.6
v 24.0 14.0 -3.5
v 24.0 15.0 -12.7
v 24.0 15.0 -3.6
v 24.0 15.6 -12.0
v 23.5 16.0 -12.0
v 24.0 16.0 -11.7
v 24.0 16.0 -3.8
v 24.0 17.0 -11.3
v 23.6 17.0 -4.0
v 24.0 16.4 -4.0
v 24.0 17.0 -4.4
v 24.0 17.5 -11.0
v 23.6 18.0 -11.0
v 24.0 18.0 -10.5
v 23.5 18.0 -4.0
v 24.0 18.0 -4.5
v 23.2 19.0 -11.0
v 24.0 18.5 -10.0
v 23.6 19.0 -10.0
v 24.0 19.0 -9.4
v 23.4 19.0 -4.0
v 24.0 19.0 -4.7
v 23.4 20.0 -9.0
v 24.0 19.3 -9.0
v 23.7 20.0 -8.0
v 24.0 19.6 -8.0
v 24.0 20.0 -7.5
v 23.7 20.0 -6.0
v 24.0 19.6 -6.0
v 24.0 20.0 -6.5
v 23.5 20.0 -5.0
v 24.0 19.3 -5.0
v 23.2 20.0 -4.0
v 24.0 21.0 -7.0
v 24.0 20.9 -7.0
v 23.4 21.0 -6.0
v 24.9 -1.0 -4.0
v 25.0 -1.0 -4.2
v 25.0 -1.1 -4.0
v 25.0 -1.0 -3.9
v 24.7 0.0 -10.0
v 25.0 0.0 -10.2
v 25.0 -0.2 -10.0
v 25.0 -0.4 -9.0
v 25.0 -0.6 -8.0
v 25.0 -0.5 -7.0
v 24.5 0.0 -7.0
v 25.0 -0.4 -6.0
v 24.6 0.0 -6.0
v 25.0 -0.3 -5.0
v 25.0 0.0 -3.4
v 25.0 1.0 -10.6
v 24.2 1.0 -7.0
v 24.0 1.0 -6.0
v 25.0 0.4 -3.0
v 25.0 1.0 -2.6
v 25.0 2.0 -11.3
v 25.0 1.6 -11.0
v 25.0 2.0 -2.3
v 25.0 3.0 -11.5
v 25.0 2.8 -2.0
v 24.8 3.0 -2.0
v 25.0 3.0 -1.9
v 24.3 4.0 -12.0
v 25.0 4.0 -11.6
v 25.0 3.2 -2.0
v 25.0 4.0 -2.4
v 24.5 5.0 -12.0
v 25.0 5.0 -11.6
v 25.0 5.0 -2.6
v 24.5 6.0 -12.0
v 25.0 6.0 -11.6
v 24.7 6.0 -3.0
v 25.0 5.7 -3.0
v 25.0 6.0 -3.3
v 24.5 7.0 -12.0
v 25.0 7.0 -11.6
v 24.3 7.0 -3.0
v 25.0 7.0 -3.4
v 24.5 8.0 -12.0
v 25.0 8.0 -11.6
v 25.0 8.0 -3.7
v 24.5 9.0 -12.0
v 25.0 9.0 -11.5
v 24.7 9.0 -5.0
v 25.0 8.7 -5.0
v 25.0 9.0 -5.2
v 24.3 9.0 -4.0
v 25.0 8.3 -4.0
v 24.6 10.0 -12.0
v 25.0 10.0 -11.6
v 25.0 10.0 -5.5
v 25.0 11.0 -12.3
v 25.0 10.6 -12.0
v 25.0 11.0 -5.5
v 25.0 12.0 -12.5
v 24.9 12.0 -5.0
v 25.0 12.0 -5.1
v 24.3 12.0 -4.0
v 25.0 13.0 -12.5
v 25.0 12.1 -5.0
v 25.0 12.7 -4.0
v 25.0 13.0 -3.8
v 25.0 14.0 -12.3
v 25.0 14.0 -3.7
v 25.0 14.5 -12.0
v 24.6 15.0 -12.0
v 25.0 15.0 -11.6
v 24.6 15.0 -4.0
v 25.0 14.4 -4.0
v 25.0 15.0 -4.5
v 25.0 16.0 -11.3
v 24.7 16.0 -5.0
v 25.0 15.6 -5.0
v 25.0 16.0 -5.3
v 24.3 16.0 -4.0
v 25.0 16.4 -11.0
v 24.4 17.0 -11.0
v 25.0 17.0 -10.4
v 24.5 17.0 -5.0
v 25.0 17.0 -5.6
v 24.4 18.0 -10.0
v 25.0 17.3 -10.0
v 24.6 18.0 -9.0
v 25.0 17.5 -9.0
v 24.7 18.0 -8.0
v 25.0 17.6 -8.0
v 25.0 18.0 -7.3
v 24.7 18.0 -6.0
v 25.0 17.5 -6.0
v 25.0 18.0 -6.7
v 24.4 18.0 -5.0
v 24.3 19.0 -9.0
v 24.4 19.0 -8.0
v 25.0 18.2 -7.0
v 24.5 19.0 -7.0
v 24.4 19.0 -6.0
v 24.2 19.0 -5.0
v 24.3 20.0 -7.0
v 25.9 -3.0 -6.0
v 26.0 -3.0 -6.1
v 26.0 -3.1 -6.0
v 26.0 -3.2 -5.0
v 25.8 -3.0 -5.0
v 26.0 -3.0 -4.8
v 26.0 -2.7 -6.0
v 25.3 -2.0 -5.0
v 26.0 -2.0 -5.7
v 26.0 -2.0 -4.5
v 25.7 -1.0 -8.0
v 26.0 -1.0 -8.3
v 26.0 -1.3 -8.0
v 26.0 -1.5 -7.0
v 25.5 -1.0 -7.0
v 26.0 -1.8 -6.0
v 25.5 -1.0 -6.0
v 25.7 -1.0 -5.0
v 26.0 -1.5 -4.0
v 26.0 -1.0 -3.6
v 26.0 0.0 -10.1
v 26.0 -0.1 -10.0
v 25.9 0.0 -9.0
v 26.0 0.0 -9.6
v 26.0 0.0 -8.9
v 26.0 -0.4 -3.0
v 25.5 0.0 -3.0
v 26.0 0.0 -2.7
v 26.0 1.0 -10.5
v 26.0 0.1 -9.0
v 26.0 1.0 -2.4
v 25.5 2.0 -11.0
v 26.0 2.0 -10.7
v 26.0 1.6 -2.0
v 25.5 2.0 -2.0
v 26.0 2.0 -1.7
v 26.0 3.0 -11.3
v 26.0 2.5 -11.0
v 26.0 3.0 -1.6
v 26.0 4.0 -11.4
v 26.0 3.5 -2.0
v 26.0 4.0 -2.4
v 26.0 5.0 -11.4
v 26.0 5.0 -2.6
v 26.0 6.0 -11.5
v 26.0 5.5 -3.0
v 26.0 6.0 -3.4
v 26.0 7.0 -11.4
v 26.0 7.0 -3.6
v 26.0 8.0 -11.3
v 25.7 8.0 -5.0
v 26.0 7.8 -5.0
v 26.0 8.0 -5.3
v 25.3 8.0 -4.0
v 26.0 7.4 -4.0
v 26.0 8.5 -11.0
v 25.6 9.0 -11.0
v 26.0 9.0 -10.6
v 26.0 9.0 -5.6
v 25.5 10.0 -11.0
v 26.0 10.0 -10.4
v 26.0 10.0 -5.8
v 25.3 11.0 -12.0
v 25.6 11.0 -11.0
v 26.0 10.8 -10.0
v 25.9 11.0 -10.0
v 26.0 11.0 -9.9
v 25.8 11.0 -6.0
v 26.0 10.7 -6.0
v 26.0 11.0 -6.1
v 26.0 12.0 -12.2
v 26.0 11.7 -12.0
v 26.0 11.5 -11.0
v 26.0 11.1 -10.0
v 26.0 11.2 -6.0
v 26.0 12.0 -5.0
v 25.7 12.0 -5.0
v 26.0 12.0 -5.0
v 26.0 13.0 -12.2
v 26.0 13.0 -4.6
v 25.3 13.0 -4.0
v 26.0 13.4 -12.0
v 25.4 14.0 -12.0
v 26.0 14.0 -11.4
v 25.3 14.0 -4.0
v 26.0 14.0 -4.7
v 25.5 15.0 -11.0
v 26.0 14.4 -11.0
v 25.7 15.0 -10.0
v 26.0 14.6 -10.0
v 26.0 15.0 -9.5
v 25.5 15.0 -5.0
v 26.0 14.4 -5.0
v 26.0 15.0 -5.6
v 25.2 16.0 -11.0
v 25.5 16.0 -10.0
v 26.0 15.4 -9.0
v 25.6 16.0 -9.0
v 25.7 16.0 -8.0
v 26.0 15.6 -8.0
v 26.0 16.0 -7.3
v 25.6 16.0 -6.0
v 26.0 15.5 -6.0
v 26.0 16.0 -6.7
v 25.3 17.0 -10.0
v 25.4 17.0 -9.0
v 25.4 17.0 -8.0
v 26.0 16.2 -7.0
v 25.5 17.0 -7.0
v 25.3 17.0 -6.0
v 25.2 18.0 -7.0
v 26.9 -4.0 -6.0
v 27.0 -4.0 -6.1
v 27.0 -4.1 -6.0
v 27.0 -4.0 -5.9
v 27.0 -3.0 -6.6
v 27.0 -3.6 -5.0
v 27.0 -3.0 -4.5
v 26.7 -2.0 -8.0
v 27.0 -2.0 -8.2
v 27.0 -2.2 -8.0
v 27.0 -2.5 -7.0
v 26.5 -2.0 -7.0
v 26.1 -2.0 -6.0
v 27.0 -2.4 -4.0
v 26.6 -2.0 -4.0
v 27.0 -2.0 -3.7
v 27.0 -1.0 -8.5
v 27.0 -1.0 -3.4
v 26.1 0.0 -10.0
v 27.0 0.0 -8.6
v 27.0 -0.5 -3.0
v 27.0 0.0 -2.6
v 27.0 1.0 -10.2
v 27.0 0.7 -10.0
v 27.0 0.4 -9.0
v 27.0 1.0 -2.4
v 27.0 2.0 -10.5
v 27.0 1.5 -2.0
v 27.0 2.0 -1.6
v 26.4 3.0 -11.0
v 27.0 3.0 -10.6
v 27.0 3.0 -1.7
v 26.5 4.0 -11.0
v 27.0 4.0 -10.6
v 27.0 3.4 -2.0
v 27.0 4.0 -2.4
v 26.6 5.0 -11.0
v 27.0 5.0 -10.7
v 27.0 5.0 -2.7
v 27.0 6.0 -11.1
v 27.0 5.7 -11.0
v 27.0 5.4 -3.0
v 27.0 6.0 -3.5
v 27.0 6.3 -11.0
v 26.6 7.0 -11.0
v 27.0 7.0 -10.6
v 26.9 7.0 -7.0
v 27.0 6.9 -7.0
v 27.0 7.0 -7.1
v 27.0 7.0 -6.8
v 27.0 7.0 -3.8
v 26.3 8.0 -11.0
v 27.0 8.0 -10.3
v 26.7 8.0 -8.0
v 27.0 7.7 -8.0
v 27.0 8.0 -8.5
v 26.5 8.0 -7.0
v 27.0 7.4 -6.0
v 26.5 8.0 -6.0
v 27.0 7.4 -5.0
v 27.0 7.2 -4.0
v 26.5 9.0 -10.0
v 27.0 8.3 -10.0
v 26.6 9.0 -9.0
v 27.0 8.4 -9.0
v 26.5 9.0 -8.0
v 26.5 9.0 -7.0
v 26.4 9.0 -6.0
v 26.3 10.0 -10.0
v 26.5 10.0 -9.0
v 26.6 10.0 -8.0
v 26.6 10.0 -7.0
v 26.3 10.0 -6.0
v 26.6 11.0 -9.0
v 27.0 11.0 -8.4
v 27.0 10.6 -8.0
v 27.0 10.7 -7.0
v 27.0 11.0 -6.8
v 26.2 12.0 -12.0
v 26.4 12.0 -11.0
v 26.6 12.0 -10.0
v 27.0 12.0 -9.2
v 27.0 11.7 -9.0
v 26.5 12.0 -6.0
v 27.0 12.0 -6.6
v 26.0 12.0 -5.0
v 26.2 13.0 -12.0
v 26.6 13.0 -11.0
v 26.9 13.0 -10.0
v 27.0 12.3 -9.0
v 26.7 13.0 -9.0
v 26.7 13.0 -8.0
v 27.0 12.6 -8.0
v 27.0 13.0 -7.3
v 26.6 13.0 -6.0
v 27.0 13.0 -6.8
v 26.4 13.0 -5.0
v 26.3 14.0 -11.0
v 26.5 14.0 -10.0
v 26.5 14.0 -9.0
v 26.5 14.0 -8.0
v 27.0 13.2 -7.0
v 26.6 14.0 -7.0
v 26.5 14.0 -6.0
v 26.3 14.0 -5.0
v 26.3 15.0 -9.0
v 26.4 15.0 -8.0
v 26.5 15.0 -7.0
v 26.3 15.0 -6.0
v 26.2 16.0 -7.0
v 28.0 -4.0 -6.3
v 28.0 -4.3 -6.0
v 28.0 -4.2 -5.0
v 27.6 -4.0 -5.0
v 28.0 -4.0 -4.8
v 28.0 -3.0 -6.8
v 28.0 -3.0 -4.4
v 28.0 -2.0 -8.4
v 28.0 -2.4 -8.0
v 28.0 -2.8 -7.0
v 28.0 -2.5 -4.0
v 28.0 -2.0 -3.6
v 28.0 -1.0 -8.5
v 28.0 -1.0 -3.4
v 28.0 0.0 -8.5
v 28.0 -0.5 -3.0
v 28.0 0.0 -2.6
v 27.3 1.0 -10.0
v 27.7 1.0 -9.0
v 28.0 1.0 -8.8
v 28.0 1.0 -2.4
v 28.0 2.0 -10.4
v 28.0 1.6 -10.0
v 28.0 1.2 -9.0
v 28.0 1.8 -2.0
v 28.0 2.0 -1.9
v 28.0 3.0 -10.5
v 27.5 3.0 -2.0
v 28.0 2.2 -2.0
v 28.0 3.0 -2.3
v 28.0 4.0 -10.4
v 28.0 4.0 -2.7
v 28.0 5.0 -10.4
v 27.4 5.0 -3.0
v 28.0 4.5 -3.0
v 28.0 5.0 -3.4
v 27.2 6.0 -11.0
v 28.0 6.0 -10.3
v 27.7 6.0 -6.0
v 28.0 5.8 -6.0
v 28.0 6.0 -6.4
v 27.7 6.0 -5.0
v 28.0 5.7 -5.0
v 27.5 6.0 -4.0
v 28.0 5.5 -4.0
v 27.6 7.0 -10.0
v 28.0 6.4 -10.0
v 28.0 7.0 -9.4
v 28.0 6.4 -7.0
v 28.0 7.0 -7.7
v 27.3 7.0 -6.0
v 27.4 7.0 -5.0
v 27.2 7.0 -4.0
v 27.3 8.0 -10.0
v 28.0 7.3 -9.0
v 27.4 8.0 -9.0
v 28.0 7.2 -8.0
v 27.3 11.0 -8.0
v 27.2 11.0 -7.0
v 27.1 12.0 -9.0
v 27.4 12.0 -8.0
v 27.3 12.0 -7.0
v 27.1 13.0 -7.0
v 29.0 -4.0 -6.4
v 29.0 -4.3 -6.0
v 29.0 -4.2 -5.0
v 29.0 -4.0 -4.8
v 28.5 -3.0 -7.0
v 29.0 -3.0 -7.3
v 29.0 -3.3 -7.0
v 29.0 -3.0 -4.4
v 29.0 -2.0 -8.3
v 29.0 -2.4 -8.0
v 29.0 -2.4 -4.0
v 29.0 -2.0 -3.7
v 29.0 -1.0 -8.4
v 29.0 -1.0 -3.4
v 29.0 0.0 -8.4
v 29.0 -0.3 -3.0
v 29.0 0.0 -2.8
v 29.0 1.0 -8.8
v 29.0 1.0 -2.6
v 29.0 2.0 -10.4
v 29.0 1.6 -10.0
v 29.0 1.2 -9.0
v 28.2 2.0 -2.0
v 29.0 2.0 -2.5
v 29.0 3.0 -10.4
v 29.0 3.0 -2.7
v 29.0 3.6 -10.0
v 28.6 4.0 -10.0
v 29.0 4.0 -9.6
v 28.5 4.0 -3.0
v 29.0 3.4 -3.0
v 29.0 4.0 -3.4
v 28.5 5.0 -10.0
v 29.0 5.0 -9.3
v 29.0 5.0 -3.8
v 28.3 6.0 -10.0
v 29.0 5.3 -9.0
v 28.6 6.0 -9.0
v 28.6 6.0 -8.0
v 29.0 5.5 -8.0
v 28.4 6.0 -7.0
v 29.0 5.6 -7.0
v 29.0 5.6 -6.0
v 29.0 5.6 -5.0
v 29.0 5.2 -4.0
v 28.3 7.0 -9.0
v 28.2 7.0 -8.0
v 30.0 -4.0 -6.2
v 30.0 -4.2 -6.0
v 29.4 -4.0 -5.0
v 30.0 -4.0 -5.6
v 29.4 -3.0 -7.0
v 30.0 -3.0 -6.7
v 30.0 -3.6 -5.0
v 30.0 -3.0 -4.6
v 30.0 -2.0 -8.0
v 30.0 -2.0 -8.0
v 30.0 -2.6 -7.0
v 29.5 -2.0 -4.0
v 30.0 -2.0 -4.3
v 30.0 -1.9 -8.0
v 29.7 -1.0 -8.0
v 30.0 -1.0 -7.7
v 30.0 -1.6 -4.0
v 30.0 -1.0 -3.6
v 30.0 0.0 -8.0
v 30.0 0.0 -8.0
v 29.3 0.0 -3.0
v 30.0 0.0 -3.4
v 29.7 1.0 -10.0
v 30.0 1.0 -10.2
v 30.0 0.7 -10.0
v 30.0 0.5 -9.0
v 29.3 1.0 -9.0
v 30.0 0.0 -8.0
v 29.5 1.0 -3.0
v 30.0 1.0 -3.4
v 30.0 2.0 -10.4
v 29.5 2.0 -3.0
v 30.0 2.0 -3.5
v 30.0 3.0 -10.2
v 29.3 3.0 -3.0
v 30.0 3.0 -3.6
v 30.0 3.2 -10.0
v 29.5 4.0 -9.0
v 30.0 3.6 -9.0
v 29.8 4.0 -8.0
v 30.0 3.8 -8.0
v 30.0 4.0 -7.8
v 29.6 4.0 -4.0
v 30.0 3.5 -4.0
v 30.0 4.0 -4.4
v 29.3 5.0 -9.0
v 29.5 5.0 -8.0
v 30.0 5.0 -7.3
v 29.3 5.0 -4.0
v 30.0 5.0 -4.6
v 30.0 5.3 -7.0
v 30.0 6.0 -6.0
v 30.0 6.0 -6.0
v 30.0 6.0 -5.7
v 30.0 5.9 -5.0
v 30.0 6.0 -6.0
v 31.0 -4.0 -6.0
v 31.0 -4.0 -6.0
v 31.0 -4.0 -6.0
v 31.0 -3.0 -6.6
v 31.0 -3.5 -5.0
v 31.0 -3.0 -4.6
v 30.1 -2.0 -8.0
v 31.0 -2.0 -7.0
v 31.0 -2.0 -7.0
v 31.0 -2.0 -4.2
v 31.0 -2.0 -7.0
v 31.0 -1.0 -7.7
v 31.0 -1.7 -4.0
v 31.0 -1.0 -3.5
v 31.0 0.0 -10.0
v 31.0 0.0 -10.0
v 31.0 -0.0 -10.0
v 31.0 -0.4 -9.0
v 30.5 0.0 -9.0
v 31.0 -0.7 -8.0
v 30.0 0.0 -8.0
v 31.0 0.0 -3.4
v 31.0 1.0 -10.2
v 31.0 1.0 -3.5
v 31.0 1.4 -10.0
v 30.5 2.0 -10.0
v 31.0 2.0 -9.6
v 30.8 2.0 -4.0
v 31.0 1.8 -4.0
v 31.0 2.0 -4.2
v 30.3 3.0 -10.0
v 31.0 3.0 -9.3
v 30.5 3.0 -4.0
v 31.0 3.0 -4.5
v 31.0 3.2 -9.0
v 31.0 3.5 -8.0
v 31.0 4.0 -7.2
v 30.7 4.0 -6.0
v 31.0 3.6 -6.0
v 31.0 4.0 -6.8
v 30.5 4.0 -5.0
v 31.0 3.4 -5.0
v 31.0 4.1 -7.0
v 30.3 5.0 -7.0
v 30.5 5.0 -6.0
v 30.4 5.0 -5.0
v 30.0 6.0 -6.0
v 31.1 -4.0 -6.0
v 31.6 -3.0 -7.0
v 32.0 -3.0 -7.4
v 32.0 -3.4 -7.0
v 32.0 -3.7 -6.0
v 32.0 -3.6 -5.0
v 32.0 -3.0 -4.4
v 31.6 -2.0 -8.0
v 32.0 -2.0 -8.3
v 32.0 -2.4 -8.0
v 31.0 -2.0 -7.0
v 32.0 -2.6 -4.0
v 31.3 -2.0 -4.0
v 32.0 -2.0 -3.0
v 31.9 -1.0 -9.0
v 32.0 -1.0 -9.1
v 32.0 -1.1 -9.0
v 31.3 -1.0 -8.0
v 32.0 -1.9 -3.0
v 31.7 -1.0 -3.0
v 32.0 -1.0 -2.8
v 31.0 0.0 -10.0
v 32.0 0.0 -9.3
v 31.7 0.0 -3.0
v 32.0 0.0 -2.8
v 31.2 1.0 -10.0
v 32.0 0.4 -9.0
v 31.7 1.0 -9.0
v 32.0 1.0 -8.5
v 31.9 1.0 -3.0
v 32.0 1.0 -2.9
v 31.4 2.0 -9.0
v 32.0 1.5 -8.0
v 31.7 2.0 -8.0
v 32.0 2.0 -7.3
v 31.8 2.0 -6.0
v 32.0 1.7 -6.0
v 32.0 2.0 -6.6
v 31.7 2.0 -5.0
v 32.0 1.8 -5.0
v 31.5 2.0 -4.0
v 32.0 2.0 -4.3
v 32.0 2.0 -3.9
v 32.0 1.1 -3.0
v 31.2 3.0 -9.0
v 31.4 3.0 -8.0
v 32.0 2.2 -7.0
v 31.5 3.0 -7.0
v 31.4 3.0 -6.0
v 31.4 3.0 -5.0
v 32.0 2.6 -4.0
v 31.1 4.0 -7.0
v 32.9 -6.0 -6.0
v 33.0 -6.0 -6.6
v 33.0 -6.1 -6.0
v 33.0 -6.0 -5.3
v 32.8 -5.0 -7.0
v 33.0 -5.0 -7.2
v 33.0 -5.6 -7.0
v 32.6 -5.0 -6.0
v 33.0 -5.9 -5.0
v 32.7 -5.0 -5.0
v 33.0 -5.0 -4.1
v 32.5 -4.0 -7.0
v 33.0 -4.0 -7.4
v 32.3 -4.0 -6.0
v 32.4 -4.0 -5.0
v 33.0 -4.8 -4.0
v 32.8 -4.0 -4.0
v 33.0 -4.0 -3.8
v 32.8 -3.0 -8.0
v 33.0 -3.0 -8.1
v 33.0 -3.1 -8.0
v 32.5 -3.0 -4.0
v 33.0 -3.0 -3.7
v 33.0 -2.0 -8.4
v 33.0 -2.0 -3.6
v 32.1 -1.0 -9.0
v 33.0 -1.0 -8.4
v 32.3 -1.0 -3.0
v 33.0 -1.0 -3.5
v 32.2 0.0 -9.0
v 33.0 -0.5 -8.0
v 32.7 0.0 -8.0
v 33.0 0.0 -7.6
v 32.3 0.0 -3.0
v 33.0 0.0 -3.5
v 32.3 1.0 -8.0
v 33.0 0.6 -7.0
v 32.7 1.0 -7.0
v 33.0 1.0 -6.4
v 32.1 1.0 -3.0
v 33.0 1.0 -3.7
v 32.2 2.0 -7.0
v 33.0 1.3 -6.0
v 33.0 1.4 -5.0
v 32.1 2.0 -4.0
v 33.0 1.3 -4.0
v 33.1 -6.0 -6.0
v 33.2 -5.0 -7.0
v 33.5 -5.0 -6.0
v 33.4 -5.0 -5.0
v 34.0 -4.0 -7.2
v 34.0 -4.3 -7.0
v 34.0 -4.5 -6.0
v 34.0 -4.3 -5.0
v 33.2 -4.0 -4.0
v 34.0 -4.0 -4.7
v 33.2 -3.0 -8.0
v 34.0 -3.0 -7.4
v 33.3 -3.0 -4.0
v 34.0 -3.0 -4.5
v 33.4 -2.0 -8.0
v 34.0 -2.0 -7.5
v 33.5 -2.0 -4.0
v 34.0 -2.0 -4.5
v 33.4 -1.0 -8.0
v 34.0 -1.0 -7.4
v 33.5 -1.0 -4.0
v 34.0 -1.0 -4.7
v 34.0 0.0 -7.0
v 33.7 0.0 -6.0
v 34.0 -0.4 -6.0
v 34.0 0.0 -6.9
v 33.6 0.0 -5.0
v 34.0 -0.7 -5.0
v 33.4 0.0 -4.0
v 34.0 0.0 -7.0
v 33.3 1.0 -6.0
v 33.4 1.0 -5.0
v 33.2 1.0 -4.0
v 34.2 -4.0 -7.0
v 34.4 -4.0 -6.0
v 34.2 -4.0 -5.0
v 34.4 -3.0 -7.0
v 34.5 -3.0 -6.0
v 34.4 -3.0 -5.0
v 34.4 -2.0 -7.0
v 34.5 -2.0 -6.0
v 34.4 -2.0 -5.0
v 34.3 -1.0 -7.0
v 34.4 -1.0 -6.0
v 34.2 -1.0 -5.0
v 34.0 0.0 -7.0
f 3 2 1
f 5 4 1
f 1 4 3
f 5 6 4
f 1 2 7
f 7 2 8
f 1 9 5
f 1 7 9
f 6 5 10
f 5 11 10
f 5 9 11
f 13 12 11
f 11 12 10
f 15 14 13
f 13 14 12
f 15 16 14
f 19 18 17
f 17 20 19
f 8 21 7
f 23 22 21
f 22 7 21
f 22 9 7
f 9 24 11
f 9 22 24
f 11 25 13
f 11 24 25
f 13 26 15
f 13 25 26
f 16 15 27
f 15 28 27
f 15 26 28
f 30 29 28
f 28 29 27
f 29 30 18
f 30 17 18
f 30 31 17
f 20 17 32
f 32 17 31
f 22 23 33
f 33 23 34
f 22 35 24
f 22 33 35
f 24 36 25
f 24 35 36
f 25 37 26
f 25 36 37
f 26 38 28
f 26 37 38
f 28 39 30
f 28 38 39
f 30 40 31
f 30 39 40
f 32 31 41
f 41 31 40
f 33 34 42
f 42 34 43
f 33 44 35
f 33 42 44
f 35 45 36
f 35 44 45
f 36 46 37
f 36 45 46
f 37 47 38
f 37 46 47
f 38 48 39
f 38 47 48
f 50 40 49
f 40 48 49
f 40 39 48
f 40 50 41
f 43 51 42
f 53 52 51
f 52 42 51
f 52 44 42
f 44 54 45
f 44 52 54
f 45 55 46
f 45 54 55
f 46 56 47
f 46 55 56
f 58 48 57
f 48 56 57
f 48 47 56
f 48 58 49
f 61 60 59
f 59 62 61
f 65 64 63
f 65 63 53
f 63 52 53
f 63 66 52
f 52 67 54
f 52 66 67
f 54 68 55
f 54 67 68
f 70 56 69
f 56 68 69
f 56 55 68
f 56 70 57
f 59 60 71
f 71 60 72
f 62 59 73
f 73 59 71
f 63 64 74
f 74 64 75
f 63 76 66
f 63 74 76
f 66 77 67
f 66 76 77
f 67 78 68
f 67 77 78
f 69 68 79
f 79 68 78
f 72 80 71
f 83 82 81
f 71 80 73
f 85 84 82
f 82 84 81
f 84 85 75
f 85 74 75
f 85 86 74
f 74 87 76
f 74 86 87
f 89 77 88
f 77 87 88
f 77 76 87
f 77 89 78
f 78 89 90
f 78 90 79
f 82 83 91
f 91 83 92
f 94 85 93
f 85 91 93
f 85 82 91
f 85 94 86
f 86 94 95
f 86 95 87
f 87 95 96
f 87 96 88
f 92 97 91
f 91 97 93
f 100 99 98
f 102 101 98
f 98 101 100
f 102 103 101
f 106 105 104
f 106 104 99
f 99 104 98
f 104 2 98
f 2 3 98
f 98 3 4
f 98 4 102
f 108 107 6
f 6 107 4
f 107 103 4
f 103 102 4
f 110 109 108
f 108 109 107
f 112 111 110
f 110 111 109
f 114 113 112
f 112 113 111
f 116 115 114
f 114 115 113
f 118 117 116
f 116 117 115
f 118 119 117
f 104 105 120
f 120 105 121
f 120 8 2
f 120 2 104
f 10 108 6
f 108 10 12
f 108 12 110
f 110 12 14
f 110 14 112
f 112 14 16
f 122 112 16
f 114 112 122
f 114 123 116
f 114 122 123
f 123 18 19
f 118 123 19
f 116 123 118
f 19 20 118
f 20 119 118
f 20 124 119
f 120 121 125
f 125 121 126
f 127 21 8
f 120 127 8
f 125 127 120
f 127 23 21
f 27 122 16
f 122 27 29
f 122 29 123
f 123 29 18
f 32 124 20
f 32 128 124
f 131 130 129
f 131 129 126
f 129 125 126
f 129 132 125
f 125 133 127
f 125 132 133
f 133 34 23
f 133 23 127
f 41 128 32
f 41 134 128
f 137 136 135
f 137 135 130
f 135 129 130
f 135 138 129
f 129 139 132
f 129 138 139
f 132 140 133
f 132 139 140
f 140 43 34
f 140 34 133
f 49 141 50
f 141 142 50
f 142 41 50
f 142 134 41
f 135 136 143
f 143 136 144
f 135 145 138
f 135 143 145
f 138 146 139
f 138 145 146
f 139 147 140
f 139 146 147
f 148 51 43
f 140 148 43
f 147 148 140
f 148 53 51
f 57 149 58
f 141 49 58
f 149 141 58
f 150 141 149
f 142 141 151
f 151 141 150
f 144 152 143
f 153 60 61
f 143 153 61
f 145 143 61
f 152 153 143
f 145 61 62
f 154 145 62
f 146 145 154
f 146 155 147
f 146 154 155
f 155 64 65
f 148 155 65
f 147 155 148
f 148 65 53
f 69 156 70
f 149 57 70
f 156 149 70
f 157 149 156
f 159 150 158
f 150 157 158
f 150 149 157
f 150 159 151
f 153 72 60
f 160 72 153
f 73 161 154
f 73 154 62
f 154 162 155
f 154 161 162
f 162 75 64
f 162 64 155
f 79 163 156
f 79 156 69
f 165 157 164
f 157 163 164
f 157 156 163
f 157 165 158
f 160 166 72
f 72 166 80
f 166 73 80
f 73 166 161
f 167 161 166
f 161 167 81
f 83 81 167
f 161 81 84
f 161 84 162
f 162 84 75
f 88 168 89
f 169 90 89
f 169 89 168
f 163 79 90
f 169 163 90
f 170 163 169
f 164 163 171
f 171 163 170
f 167 92 83
f 172 92 167
f 93 173 94
f 174 95 94
f 174 94 173
f 175 96 95
f 175 95 174
f 168 88 96
f 175 168 96
f 176 168 175
f 178 169 177
f 169 176 177
f 169 168 176
f 169 178 170
f 170 178 179
f 170 179 171
f 172 180 92
f 92 180 97
f 97 180 93
f 180 181 93
f 181 173 93
f 181 180 182
f 173 183 174
f 173 181 183
f 185 175 184
f 175 183 184
f 175 174 183
f 175 185 176
f 176 185 186
f 176 186 177
f 181 182 187
f 187 182 188
f 190 183 189
f 183 187 189
f 183 181 187
f 183 190 184
f 188 191 187
f 187 191 189
f 194 193 192
f 99 100 192
f 100 194 192
f 100 195 194
f 196 100 101
f 196 195 100
f 198 197 103
f 197 101 103
f 197 196 101
f 200 199 198
f 198 199 197
f 202 201 200
f 200 201 199
f 204 203 202
f 202 203 201
f 206 205 204
f 204 205 203
f 208 207 206
f 206 207 205
f 208 209 207
f 192 193 106
f 193 105 106
f 193 210 105
f 192 106 99
f 107 198 103
f 198 107 109
f 198 109 200
f 200 109 111
f 200 111 202
f 202 111 113
f 202 113 204
f 204 113 115
f 204 115 206
f 206 115 117
f 206 117 208
f 117 119 208
f 119 209 208
f 119 211 209
f 214 213 212
f 210 214 212
f 121 210 212
f 105 210 121
f 124 211 119
f 124 215 211
f 218 217 216
f 218 216 213
f 216 212 213
f 216 219 212
f 219 126 121
f 219 121 212
f 128 215 124
f 128 220 215
f 223 222 221
f 223 221 217
f 221 216 217
f 221 224 216
f 224 130 131
f 219 224 131
f 216 224 219
f 219 131 126
f 134 220 128
f 134 225 220
f 222 226 221
f 227 136 137
f 221 227 137
f 224 221 137
f 226 227 221
f 224 137 130
f 142 225 134
f 142 228 225
f 227 144 136
f 229 144 227
f 232 231 230
f 231 228 230
f 228 151 230
f 228 142 151
f 152 144 233
f 144 234 233
f 144 229 234
f 233 153 152
f 232 230 159
f 158 232 159
f 235 232 158
f 159 230 151
f 234 236 233
f 153 233 236
f 237 153 236
f 160 153 237
f 164 238 165
f 238 239 165
f 239 158 165
f 239 235 158
f 166 160 240
f 160 241 240
f 160 237 241
f 240 167 166
f 171 242 238
f 171 238 164
f 239 238 243
f 243 238 242
f 240 241 244
f 244 241 245
f 244 172 167
f 244 167 240
f 177 246 178
f 247 179 178
f 247 178 246
f 247 248 179
f 179 248 171
f 248 249 171
f 249 242 171
f 242 249 243
f 245 250 244
f 250 252 251
f 250 251 180
f 244 250 180
f 172 244 180
f 251 182 180
f 184 253 185
f 254 186 185
f 254 185 253
f 246 177 186
f 254 246 186
f 255 246 254
f 257 247 256
f 247 255 256
f 247 246 255
f 247 257 248
f 252 258 251
f 182 251 258
f 259 182 258
f 188 182 259
f 189 260 190
f 253 184 190
f 260 253 190
f 261 253 260
f 253 262 254
f 253 261 262
f 264 255 263
f 255 262 263
f 255 254 262
f 255 264 256
f 267 266 265
f 265 268 191
f 259 265 191
f 188 259 191
f 265 259 267
f 260 189 191
f 268 260 191
f 269 260 268
f 271 261 270
f 261 269 270
f 261 260 269
f 261 271 262
f 262 271 272
f 262 272 263
f 265 266 273
f 273 266 274
f 276 268 275
f 268 273 275
f 268 265 273
f 268 276 269
f 269 276 277
f 269 277 270
f 274 278 273
f 273 278 275
f 281 280 279
f 283 282 279
f 279 282 281
f 285 284 283
f 283 284 282
f 287 286 285
f 285 286 284
f 289 288 287
f 287 288 286
f 291 290 289
f 289 290 288
f 291 292 290
f 294 293 194
f 194 293 193
f 195 279 280
f 294 195 280
f 194 195 294
f 279 195 196
f 279 196 283
f 283 196 197
f 283 197 285
f 285 197 199
f 285 199 287
f 287 199 201
f 287 201 289
f 289 201 203
f 289 203 291
f 295 292 291
f 203 295 291
f 205 295 203
f 296 205 207
f 296 295 205
f 207 209 296
f 296 209 297
f 300 299 298
f 293 300 298
f 210 293 298
f 193 293 210
f 303 302 301
f 302 297 301
f 297 211 301
f 297 209 211
f 298 299 214
f 299 213 214
f 299 304 213
f 298 214 210
f 305 303 301
f 301 211 305
f 211 306 305
f 211 215 306
f 308 307 218
f 218 307 217
f 218 213 304
f 218 304 308
f 220 310 309
f 306 220 309
f 215 220 306
f 310 311 309
f 313 312 223
f 223 312 222
f 223 217 307
f 223 307 313
f 225 314 310
f 225 310 220
f 311 310 315
f 315 310 314
f 312 316 222
f 222 316 226
f 227 226 316
f 227 316 317
f 228 318 314
f 228 314 225
f 315 314 319
f 319 314 318
f 317 229 227
f 320 229 317
f 232 321 231
f 318 228 231
f 321 318 231
f 322 318 321
f 319 318 323
f 323 318 322
f 320 234 229
f 324 234 320
f 235 325 321
f 235 321 232
f 321 326 322
f 321 325 326
f 323 322 327
f 327 322 326
f 324 328 234
f 234 328 236
f 237 236 328
f 237 328 329
f 239 330 325
f 239 325 235
f 325 331 326
f 325 330 331
f 327 326 332
f 332 326 331
f 329 241 237
f 333 241 329
f 335 334 330
f 239 335 330
f 243 335 239
f 330 334 331
f 331 334 336
f 331 336 332
f 333 245 241
f 337 245 333
f 248 338 249
f 335 243 339
f 243 338 339
f 338 340 339
f 243 249 338
f 340 341 339
f 250 245 342
f 245 343 342
f 245 337 343
f 342 252 250
f 256 344 257
f 344 345 257
f 257 345 248
f 345 346 248
f 346 338 248
f 338 346 340
f 340 346 347
f 340 347 341
f 343 348 342
f 348 350 349
f 348 349 258
f 342 348 258
f 252 342 258
f 349 259 258
f 263 351 264
f 351 352 264
f 264 352 256
f 352 353 256
f 353 344 256
f 344 353 345
f 356 355 354
f 356 354 350
f 350 354 349
f 354 266 349
f 266 267 349
f 349 267 259
f 270 357 271
f 358 272 271
f 358 271 357
f 358 359 272
f 272 359 263
f 359 360 263
f 360 351 263
f 351 360 352
f 355 361 354
f 266 354 361
f 362 266 361
f 274 266 362
f 275 363 276
f 364 277 276
f 364 276 363
f 357 270 277
f 364 357 277
f 365 357 364
f 367 358 366
f 358 365 366
f 358 357 365
f 358 367 359
f 362 368 274
f 274 368 278
f 275 278 363
f 278 369 363
f 278 368 369
f 363 369 364
f 364 369 370
f 364 370 365
f 365 370 371
f 365 371 366
f 374 373 372
f 372 375 374
f 378 377 376
f 380 379 376
f 376 379 378
f 382 381 380
f 380 381 379
f 382 383 381
f 385 384 281
f 281 384 280
f 282 372 373
f 385 282 373
f 281 282 385
f 386 375 372
f 282 386 372
f 284 386 282
f 286 376 377
f 386 286 377
f 284 286 386
f 376 286 288
f 376 288 380
f 380 288 290
f 380 290 382
f 388 387 292
f 292 387 290
f 387 383 290
f 383 382 290
f 390 389 388
f 388 389 387
f 390 391 389
f 393 392 294
f 294 392 293
f 294 280 384
f 294 384 393
f 295 388 292
f 296 394 295
f 395 295 394
f 295 395 388
f 396 388 395
f 388 396 390
f 396 391 390
f 297 394 296
f 398 397 300
f 300 397 299
f 300 293 392
f 300 392 398
f 395 394 302
f 303 395 302
f 399 395 303
f 302 394 297
f 402 401 400
f 397 402 400
f 304 397 400
f 299 397 304
f 303 305 403
f 404 303 403
f 399 303 404
f 306 403 305
f 400 401 308
f 401 307 308
f 401 405 307
f 400 308 304
f 406 404 403
f 406 403 306
f 309 406 306
f 407 406 309
f 309 311 407
f 407 311 408
f 409 312 313
f 410 409 313
f 307 410 313
f 405 410 307
f 315 408 311
f 315 411 408
f 409 316 312
f 317 316 409
f 410 317 409
f 412 317 410
f 319 411 315
f 319 413 411
f 412 320 317
f 414 320 412
f 323 413 319
f 323 415 413
f 414 324 320
f 416 324 414
f 327 415 323
f 327 417 415
f 328 324 418
f 324 419 418
f 324 416 419
f 418 329 328
f 332 417 327
f 332 420 417
f 419 421 418
f 329 418 421
f 422 329 421
f 333 329 422
f 335 423 334
f 424 336 334
f 424 334 423
f 424 425 336
f 425 332 336
f 425 420 332
f 422 337 333
f 426 337 422
f 339 423 335
f 424 423 427
f 423 341 427
f 341 428 427
f 341 423 339
f 424 427 425
f 426 343 337
f 429 343 426
f 345 430 346
f 431 347 346
f 431 346 430
f 431 432 347
f 432 341 347
f 432 428 341
f 348 343 433
f 343 434 433
f 343 429 434
f 433 350 348
f 352 435 353
f 430 345 353
f 435 430 353
f 436 430 435
f 430 437 431
f 430 436 437
f 432 431 438
f 438 431 437
f 433 434 356
f 434 355 356
f 434 439 355
f 433 356 350
f 359 440 360
f 435 352 360
f 440 435 360
f 441 435 440
f 435 442 436
f 435 441 442
f 444 437 443
f 437 442 443
f 437 436 442
f 437 444 438
f 439 445 355
f 355 445 361
f 362 361 445
f 362 445 446
f 366 447 367
f 440 359 367
f 447 440 367
f 448 440 447
f 440 449 441
f 440 448 449
f 441 450 442
f 441 449 450
f 443 442 451
f 451 442 450
f 446 452 362
f 362 452 368
f 368 453 369
f 452 453 368
f 453 455 454
f 370 453 454
f 369 453 370
f 456 371 370
f 456 370 454
f 447 366 371
f 456 447 371
f 457 447 456
f 447 458 448
f 447 457 458
f 460 449 459
f 449 458 459
f 449 448 458
f 449 460 450
f 450 460 461
f 450 461 451
f 455 462 454
f 454 462 456
f 456 462 463
f 465 464 463
f 464 456 463
f 464 457 456
f 467 458 466
f 458 464 466
f 458 457 464
f 458 467 459
f 465 468 464
f 464 468 466
f 471 470 469
f 473 472 469
f 469 472 471
f 475 474 473
f 473 474 472
f 477 476 475
f 475 476 474
f 477 478 476
f 481 480 479
f 481 479 470
f 470 479 469
f 479 373 469
f 373 374 469
f 469 374 375
f 482 469 375
f 473 469 482
f 482 377 378
f 475 482 378
f 473 482 475
f 475 378 379
f 475 379 477
f 483 478 477
f 379 483 477
f 381 483 379
f 485 484 383
f 484 381 383
f 484 483 381
f 487 486 485
f 485 486 484
f 487 488 486
f 491 490 489
f 491 489 480
f 480 489 479
f 489 384 479
f 384 385 479
f 479 385 373
f 386 482 375
f 482 386 377
f 387 485 383
f 485 387 389
f 485 389 487
f 389 391 487
f 391 488 487
f 391 492 488
f 489 490 393
f 490 392 393
f 490 493 392
f 489 393 384
f 395 494 396
f 492 391 495
f 391 494 495
f 494 496 495
f 391 396 494
f 496 497 495
f 499 498 398
f 398 498 397
f 398 392 493
f 398 493 499
f 399 500 494
f 399 494 395
f 494 501 496
f 494 500 501
f 497 496 502
f 502 496 501
f 504 503 402
f 402 503 401
f 402 397 498
f 402 498 504
f 404 505 500
f 404 500 399
f 500 506 501
f 500 505 506
f 502 501 507
f 507 501 506
f 503 405 401
f 508 405 503
f 406 505 404
f 505 406 407
f 505 407 506
f 407 408 506
f 408 507 506
f 408 509 507
f 508 410 405
f 510 410 508
f 411 509 408
f 411 511 509
f 510 412 410
f 512 412 510
f 413 511 411
f 413 513 511
f 512 414 412
f 514 414 512
f 415 513 413
f 415 515 513
f 514 416 414
f 516 416 514
f 417 515 415
f 417 517 515
f 519 419 518
f 419 516 518
f 419 416 516
f 520 519 518
f 420 517 417
f 420 521 517
f 519 421 419
f 422 421 519
f 520 422 519
f 522 422 520
f 425 521 420
f 425 523 521
f 522 426 422
f 524 426 522
f 428 525 427
f 525 526 427
f 526 425 427
f 526 523 425
f 524 429 426
f 527 429 524
f 529 528 525
f 428 529 525
f 432 529 428
f 525 528 526
f 527 434 429
f 530 434 527
f 438 529 432
f 438 531 529
f 530 439 434
f 532 439 530
f 443 533 444
f 533 534 444
f 534 438 444
f 534 531 438
f 532 535 439
f 439 535 445
f 446 445 535
f 446 535 536
f 451 537 533
f 451 533 443
f 534 533 538
f 538 533 537
f 536 539 446
f 446 539 452
f 539 541 540
f 453 539 540
f 452 539 453
f 540 455 453
f 459 542 460
f 543 461 460
f 543 460 542
f 543 544 461
f 461 544 451
f 544 545 451
f 545 537 451
f 537 545 538
f 541 546 540
f 546 548 547
f 546 547 462
f 540 546 462
f 455 540 462
f 549 463 462
f 549 462 547
f 549 465 463
f 466 550 467
f 550 551 467
f 467 551 459
f 551 552 459
f 552 542 459
f 542 552 543
f 543 552 553
f 543 553 544
f 548 554 547
f 547 554 549
f 549 554 555
f 549 555 465
f 555 468 465
f 555 556 468
f 466 468 550
f 468 557 550
f 468 556 557
f 550 557 551
f 560 559 558
f 558 561 560
f 564 563 562
f 564 562 559
f 562 558 559
f 562 565 558
f 561 558 566
f 558 567 566
f 558 565 567
f 569 568 567
f 567 568 566
f 569 570 568
f 562 563 471
f 563 470 471
f 563 571 470
f 562 471 472
f 562 472 565
f 565 472 474
f 565 474 567
f 567 474 476
f 567 476 569
f 573 572 478
f 478 572 476
f 572 570 476
f 570 569 476
f 575 574 573
f 573 574 572
f 577 576 575
f 575 576 574
f 577 578 576
f 580 579 481
f 481 579 480
f 481 470 571
f 481 571 580
f 483 573 478
f 573 483 484
f 573 484 575
f 575 484 486
f 575 486 577
f 486 488 577
f 488 578 577
f 488 581 578
f 583 582 491
f 491 582 490
f 491 480 579
f 491 579 583
f 492 585 584
f 581 492 584
f 488 492 581
f 585 586 584
f 582 493 490
f 587 493 582
f 495 585 492
f 495 497 585
f 497 586 585
f 497 588 586
f 590 589 499
f 499 589 498
f 499 493 587
f 499 587 590
f 502 588 497
f 502 591 588
f 593 592 504
f 504 592 503
f 504 498 589
f 504 589 593
f 507 591 502
f 507 594 591
f 592 508 503
f 595 508 592
f 509 594 507
f 509 596 594
f 595 510 508
f 597 510 595
f 600 599 598
f 599 596 598
f 596 511 598
f 596 509 511
f 597 512 510
f 601 512 597
f 602 600 598
f 598 511 602
f 511 603 602
f 511 513 603
f 601 514 512
f 604 514 601
f 515 603 513
f 515 605 603
f 607 516 606
f 516 604 606
f 516 514 604
f 608 607 606
f 517 605 515
f 517 609 605
f 607 518 516
f 520 518 607
f 608 520 607
f 610 520 608
f 521 609 517
f 521 611 609
f 610 522 520
f 612 522 610
f 615 614 613
f 614 611 613
f 611 523 613
f 611 521 523
f 612 524 522
f 616 524 612
f 615 613 617
f 615 617 618
f 526 617 523
f 523 617 613
f 620 527 619
f 527 616 619
f 527 524 616
f 621 620 619
f 618 617 528
f 529 618 528
f 622 618 529
f 528 617 526
f 624 623 620
f 623 527 620
f 623 530 527
f 624 620 621
f 531 622 529
f 531 625 622
f 627 532 626
f 532 623 626
f 532 530 623
f 628 627 626
f 534 625 531
f 534 629 625
f 627 535 532
f 631 630 536
f 631 536 535
f 628 631 535
f 627 628 535
f 632 630 631
f 538 629 534
f 538 633 629
f 630 539 536
f 541 539 630
f 632 541 630
f 634 541 632
f 636 635 545
f 636 545 544
f 538 545 633
f 633 545 635
f 634 637 541
f 541 637 546
f 548 546 637
f 548 637 638
f 551 639 552
f 552 639 640
f 641 552 640
f 553 552 641
f 544 553 636
f 636 553 641
f 638 642 548
f 548 642 554
f 554 643 555
f 642 643 554
f 555 644 556
f 643 644 555
f 556 645 557
f 644 645 556
f 551 557 639
f 557 646 639
f 557 645 646
f 639 646 640
f 648 647 560
f 560 647 559
f 560 561 648
f 648 561 649
f 651 650 564
f 564 650 563
f 564 559 647
f 564 647 651
f 652 649 561
f 652 561 566
f 653 566 568
f 653 652 566
f 655 654 570
f 654 568 570
f 654 653 568
f 657 656 655
f 655 656 654
f 659 658 657
f 657 658 656
f 659 660 658
f 663 662 661
f 650 663 661
f 571 650 661
f 563 650 571
f 572 655 570
f 655 572 574
f 655 574 657
f 657 574 576
f 657 576 659
f 665 664 578
f 578 664 576
f 664 660 576
f 660 659 576
f 665 666 664
f 661 662 580
f 662 579 580
f 662 667 579
f 661 580 571
f 581 668 665
f 581 665 578
f 666 665 669
f 669 665 668
f 671 670 583
f 583 670 582
f 583 579 667
f 583 667 671
f 584 668 581
f 584 586 668
f 586 669 668
f 586 672 669
f 670 587 582
f 673 587 670
f 588 672 586
f 588 674 672
f 676 675 590
f 590 675 589
f 590 587 673
f 590 673 676
f 591 674 588
f 591 677 674
f 678 592 593
f 679 678 593
f 589 679 593
f 675 679 589
f 594 677 591
f 594 680 677
f 681 595 678
f 678 595 592
f 678 679 682
f 678 682 681
f 685 684 683
f 684 680 683
f 680 596 683
f 680 594 596
f 686 597 681
f 681 597 595
f 681 682 687
f 681 687 686
f 685 683 599
f 600 685 599
f 688 685 600
f 599 683 596
f 689 601 686
f 686 601 597
f 686 687 690
f 686 690 689
f 600 602 691
f 692 600 691
f 688 600 692
f 603 691 602
f 693 604 689
f 689 604 601
f 689 690 694
f 689 694 693
f 692 691 695
f 692 695 696
f 605 695 603
f 603 695 691
f 693 606 604
f 608 606 693
f 694 608 693
f 697 608 694
f 698 696 695
f 695 605 698
f 605 699 698
f 605 609 699
f 697 610 608
f 700 610 697
f 703 702 701
f 702 699 701
f 699 611 701
f 699 609 611
f 700 612 610
f 704 612 700
f 703 701 614
f 615 703 614
f 705 703 615
f 614 701 611
f 707 616 706
f 616 704 706
f 616 612 704
f 708 707 706
f 618 705 615
f 618 709 705
f 707 619 616
f 621 619 707
f 708 621 707
f 710 621 708
f 622 709 618
f 622 711 709
f 712 623 624
f 713 712 624
f 621 713 624
f 710 713 621
f 625 711 622
f 625 714 711
f 712 626 623
f 716 715 628
f 716 628 626
f 713 716 626
f 712 713 626
f 717 715 716
f 629 714 625
f 629 718 714
f 715 631 628
f 720 719 632
f 720 632 631
f 717 720 631
f 715 717 631
f 721 719 720
f 633 718 629
f 633 722 718
f 723 634 719
f 719 634 632
f 719 721 724
f 725 719 724
f 723 719 725
f 726 725 724
f 728 727 635
f 728 635 636
f 633 635 722
f 722 635 727
f 723 637 634
f 637 723 638
f 723 729 638
f 723 725 729
f 725 726 730
f 731 725 730
f 729 725 731
f 733 732 731
f 733 731 730
f 734 732 733
f 736 735 641
f 736 641 640
f 636 641 728
f 728 641 735
f 729 642 638
f 642 729 643
f 643 729 731
f 643 731 644
f 644 731 732
f 734 737 732
f 737 644 732
f 737 645 644
f 645 738 646
f 737 738 645
f 640 646 736
f 736 646 738
f 741 740 739
f 647 648 739
f 648 741 739
f 648 742 741
f 648 649 742
f 742 649 743
f 746 745 744
f 748 747 744
f 744 747 746
f 750 749 748
f 748 749 747
f 750 751 749
f 754 753 752
f 754 752 740
f 740 752 739
f 752 650 739
f 650 651 739
f 739 651 647
f 755 743 649
f 755 649 652
f 756 652 653
f 756 755 652
f 654 744 745
f 756 654 745
f 653 654 756
f 744 654 656
f 744 656 748
f 748 656 658
f 748 658 750
f 758 757 660
f 660 757 658
f 757 751 658
f 751 750 658
f 758 759 757
f 752 753 663
f 753 662 663
f 753 760 662
f 752 663 650
f 664 758 660
f 664 666 758
f 666 759 758
f 666 761 759
f 764 763 762
f 760 764 762
f 667 760 762
f 662 760 667
f 669 761 666
f 669 765 761
f 762 763 671
f 763 670 671
f 763 766 670
f 762 671 667
f 672 765 669
f 672 767 765
f 766 673 670
f 768 673 766
f 674 767 672
f 674 769 767
f 770 675 676
f 771 770 676
f 673 771 676
f 768 771 673
f 677 769 674
f 677 772 769
f 773 679 770
f 770 679 675
f 770 771 774
f 770 774 773
f 777 776 775
f 776 772 775
f 772 680 775
f 772 677 680
f 779 778 773
f 778 679 773
f 778 682 679
f 779 773 774
f 777 775 684
f 685 777 684
f 780 777 685
f 684 775 680
f 778 687 682
f 781 687 778
f 688 780 685
f 688 782 780
f 781 690 687
f 783 690 781
f 692 782 688
f 692 784 782
f 783 694 690
f 785 694 783
f 696 784 692
f 696 786 784
f 785 697 694
f 787 697 785
f 696 698 788
f 789 696 788
f 786 696 789
f 699 788 698
f 791 700 790
f 700 787 790
f 700 697 787
f 792 791 790
f 789 788 702
f 703 789 702
f 793 789 703
f 702 788 699
f 794 704 791
f 791 704 700
f 791 792 795
f 791 795 794
f 705 793 703
f 705 796 793
f 794 706 704
f 708 706 794
f 795 708 794
f 797 708 795
f 709 796 705
f 709 798 796
f 800 710 799
f 710 797 799
f 710 708 797
f 801 800 799
f 711 798 709
f 711 802 798
f 803 713 800
f 800 713 710
f 800 801 804
f 800 804 803
f 714 802 711
f 714 805 802
f 803 716 713
f 717 716 803
f 804 717 803
f 806 717 804
f 718 805 714
f 718 807 805
f 806 808 717
f 717 808 720
f 810 809 721
f 720 810 721
f 808 810 720
f 811 809 810
f 722 807 718
f 722 812 807
f 809 724 721
f 814 813 726
f 814 726 724
f 811 814 724
f 809 811 724
f 816 815 813
f 816 813 814
f 817 815 816
f 820 819 818
f 727 728 818
f 819 727 818
f 821 727 819
f 722 727 812
f 812 727 821
f 813 730 726
f 730 813 733
f 733 813 815
f 823 822 734
f 823 734 733
f 817 823 733
f 815 817 733
f 825 824 822
f 825 822 823
f 824 825 820
f 824 820 818
f 736 824 818
f 735 736 818
f 735 818 728
f 822 737 734
f 737 822 738
f 738 822 824
f 738 824 736
f 828 827 826
f 830 829 826
f 826 829 828
f 830 831 829
f 834 833 832
f 836 835 832
f 832 835 834
f 836 837 835
f 839 838 741
f 741 838 740
f 742 826 827
f 839 742 827
f 741 742 839
f 826 742 743
f 840 826 743
f 830 826 840
f 831 830 841
f 841 830 840
f 842 745 746
f 833 843 832
f 843 746 832
f 746 747 832
f 746 843 842
f 832 747 749
f 832 749 836
f 845 844 751
f 751 844 749
f 844 837 749
f 837 836 749
f 845 846 844
f 848 847 754
f 754 847 753
f 754 740 838
f 754 838 848
f 755 840 743
f 849 841 840
f 755 849 840
f 756 849 755
f 756 745 842
f 850 756 842
f 849 756 850
f 850 842 843
f 757 845 751
f 757 759 845
f 759 846 845
f 759 851 846
f 847 760 753
f 852 760 847
f 761 851 759
f 761 853 851
f 855 854 764
f 764 854 763
f 764 760 852
f 764 852 855
f 765 853 761
f 765 856 853
f 854 766 763
f 857 766 854
f 767 856 765
f 767 858 856
f 857 768 766
f 859 768 857
f 769 858 767
f 769 860 858
f 859 771 768
f 861 771 859
f 772 860 769
f 772 862 860
f 861 774 771
f 863 774 861
f 865 864 776
f 865 776 777
f 772 776 862
f 862 776 864
f 866 778 779
f 867 866 779
f 774 867 779
f 863 867 774
f 780 865 777
f 780 868 865
f 869 781 866
f 866 781 778
f 866 867 870
f 866 870 869
f 873 872 871
f 875 874 871
f 875 871 872
f 875 868 874
f 868 782 874
f 868 780 782
f 876 783 869
f 869 783 781
f 869 870 877
f 869 877 876
f 873 871 878
f 873 878 879
f 880 871 874
f 878 871 880
f 784 880 782
f 782 880 874
f 881 785 876
f 876 785 783
f 876 877 882
f 876 882 881
f 883 879 878
f 883 878 880
f 883 880 884
f 880 784 884
f 784 885 884
f 784 786 885
f 886 787 881
f 881 787 785
f 881 882 887
f 881 887 886
f 789 885 786
f 789 888 885
f 886 790 787
f 792 790 886
f 887 792 886
f 889 792 887
f 793 888 789
f 793 890 888
f 889 795 792
f 891 795 889
f 796 890 793
f 796 892 890
f 894 797 893
f 797 891 893
f 797 795 891
f 895 894 893
f 798 892 796
f 798 896 892
f 894 799 797
f 801 799 894
f 895 801 894
f 897 801 895
f 900 899 898
f 899 896 898
f 896 802 898
f 896 798 802
f 902 804 901
f 804 897 901
f 804 801 897
f 903 902 901
f 900 898 904
f 900 904 905
f 805 904 802
f 802 904 898
f 906 806 902
f 902 806 804
f 902 903 907
f 908 902 907
f 906 902 908
f 909 908 907
f 905 904 910
f 905 910 911
f 807 910 805
f 805 910 904
f 906 808 806
f 808 906 810
f 810 906 908
f 913 912 811
f 913 811 810
f 909 913 810
f 908 909 810
f 915 914 912
f 915 912 913
f 916 914 915
f 919 918 917
f 921 920 917
f 921 917 918
f 920 921 911
f 910 920 911
f 922 920 910
f 812 922 807
f 807 922 910
f 912 814 811
f 814 912 816
f 816 912 914
f 924 923 817
f 924 817 816
f 916 924 816
f 914 916 816
f 923 924 919
f 917 923 919
f 925 923 917
f 820 925 819
f 925 920 819
f 925 917 920
f 819 920 821
f 821 920 922
f 821 922 812
f 923 823 817
f 823 923 825
f 825 923 925
f 825 925 820
f 928 927 926
f 926 929 928
f 932 931 930
f 827 828 930
f 828 932 930
f 828 933 932
f 934 828 829
f 934 933 828
f 936 935 831
f 935 829 831
f 935 934 829
f 938 937 936
f 936 937 935
f 833 834 938
f 834 937 938
f 834 939 937
f 835 926 927
f 939 835 927
f 834 835 939
f 835 837 926
f 837 929 926
f 837 940 929
f 930 931 839
f 931 838 839
f 931 941 838
f 930 839 827
f 841 942 936
f 841 936 831
f 936 943 938
f 936 942 943
f 943 843 833
f 943 833 938
f 944 940 837
f 944 837 844
f 844 846 944
f 944 846 945
f 947 946 848
f 848 946 847
f 848 838 941
f 848 941 947
f 849 942 841
f 942 849 850
f 942 850 943
f 943 850 843
f 851 945 846
f 851 948 945
f 946 852 847
f 949 852 946
f 853 951 950
f 948 853 950
f 851 853 948
f 951 952 950
f 953 854 855
f 954 953 855
f 852 954 855
f 949 954 852
f 956 955 951
f 853 956 951
f 856 956 853
f 951 955 952
f 957 857 953
f 953 857 854
f 953 954 958
f 953 958 957
f 858 956 856
f 858 959 956
f 960 859 957
f 957 859 857
f 957 958 961
f 957 961 960
f 964 963 962
f 963 959 962
f 959 860 962
f 959 858 860
f 965 861 960
f 960 861 859
f 960 961 966
f 960 966 965
f 964 962 967
f 964 967 968
f 862 967 860
f 860 967 962
f 969 863 965
f 965 863 861
f 965 966 970
f 965 970 969
f 968 967 864
f 865 968 864
f 971 968 865
f 864 967 862
f 972 867 969
f 969 867 863
f 969 970 973
f 969 973 972
f 976 975 974
f 978 977 974
f 978 974 975
f 978 971 977
f 971 868 977
f 971 865 868
f 979 870 972
f 972 870 867
f 972 973 980
f 972 980 979
f 976 974 872
f 873 976 872
f 981 976 873
f 872 974 875
f 875 974 977
f 875 977 868
f 983 982 979
f 982 870 979
f 982 877 870
f 983 979 980
f 879 981 873
f 879 984 981
f 982 882 877
f 985 882 982
f 879 883 986
f 987 879 986
f 984 879 987
f 884 988 883
f 883 988 986
f 885 988 884
f 985 887 882
f 989 887 985
f 990 987 986
f 990 986 988
f 990 988 991
f 988 885 991
f 885 992 991
f 885 888 992
f 989 889 887
f 993 889 989
f 890 992 888
f 890 994 992
f 996 891 995
f 891 993 995
f 891 889 993
f 997 996 995
f 1000 999 998
f 999 994 998
f 994 892 998
f 994 890 892
f 996 893 891
f 895 893 996
f 997 895 996
f 1001 895 997
f 1004 1003 1002
f 1002 1003 1000
f 998 1002 1000
f 1005 1002 998
f 896 1005 892
f 892 1005 998
f 1007 897 1006
f 897 1001 1006
f 897 895 1001
f 1008 1007 1006
f 1004 1002 1009
f 1004 1009 1010
f 900 1009 899
f 1009 1005 899
f 1009 1002 1005
f 899 1005 896
f 1007 901 897
f 1012 1011 903
f 1012 903 901
f 1008 1012 901
f 1007 1008 901
f 1014 1013 1011
f 1014 1011 1012
f 1016 1015 1013
f 1016 1013 1014
f 1017 1015 1016
f 1020 1019 1018
f 1018 1019 1010
f 1009 1018 1010
f 1021 1018 1009
f 905 1021 900
f 900 1021 1009
f 1011 907 903
f 907 1011 909
f 1011 1022 909
f 1011 1013 1022
f 1023 1013 1015
f 1022 1013 1023
f 1015 1017 1024
f 1025 1015 1024
f 1023 1015 1025
f 1025 1024 1020
f 1018 1025 1020
f 1026 1025 1018
f 1027 1018 1021
f 1026 1018 1027
f 911 1027 905
f 905 1027 1021
f 1022 913 909
f 913 1022 915
f 915 1022 1023
f 915 1023 916
f 1023 1028 916
f 1023 1025 1028
f 919 1028 918
f 1028 1026 918
f 1028 1025 1026
f 918 1026 921
f 921 1026 1027
f 921 1027 911
f 1028 924 916
f 924 1028 919
f 1031 1030 1029
f 1033 1032 1029
f 1029 1032 1031
f 1033 1034 1032
f 1030 1035 1029
f 1037 1036 1035
f 1036 1029 1035
f 1036 1033 1029
f 1034 1033 1038
f 1038 1033 1036
f 1041 1040 1039
f 1043 1042 1039
f 1039 1042 1041
f 1045 1044 1043
f 1043 1044 1042
f 1044 1045 1037
f 1045 1036 1037
f 1045 1046 1036
f 928 1047 927
f 1047 1036 927
f 1036 1046 927
f 1036 1047 1038
f 928 929 1047
f 1047 929 1048
f 1050 1049 932
f 932 1049 931
f 1052 1050 1051
f 1050 933 1051
f 1050 932 933
f 1040 1053 1039
f 1053 933 1039
f 933 934 1039
f 933 1053 1051
f 1039 934 935
f 1039 935 1043
f 1043 935 937
f 1043 937 1045
f 1045 937 939
f 1045 939 1046
f 1046 939 927
f 940 1055 1054
f 1048 940 1054
f 929 940 1048
f 1055 1056 1054
f 1049 941 931
f 1057 941 1049
f 1058 1052 1051
f 1058 1051 1053
f 944 1055 940
f 944 945 1055
f 945 1056 1055
f 945 1059 1056
f 1060 946 947
f 1061 1060 947
f 941 1061 947
f 1057 1061 941
f 948 1063 1062
f 1059 948 1062
f 945 948 1059
f 1063 1064 1062
f 1066 1065 1060
f 1065 946 1060
f 1065 949 946
f 1066 1060 1061
f 950 1063 948
f 950 952 1063
f 952 1064 1063
f 952 1067 1064
f 1065 954 949
f 1068 954 1065
f 1070 1069 955
f 1070 955 956
f 952 955 1067
f 1067 955 1069
f 1068 958 954
f 1071 958 1068
f 959 1070 956
f 959 1072 1070
f 1071 961 958
f 1073 961 1071
f 1075 1074 963
f 1075 963 964
f 959 963 1072
f 1072 963 1074
f 1073 966 961
f 1076 966 1073
f 968 1075 964
f 968 1077 1075
f 1076 970 966
f 1078 970 1076
f 1081 1080 1079
f 1083 1082 1079
f 1083 1079 1080
f 1083 1077 1082
f 1077 971 1082
f 1077 968 971
f 1085 973 1084
f 973 1078 1084
f 973 970 1078
f 1086 1085 1084
f 1081 1079 975
f 976 1081 975
f 1087 1081 976
f 975 1079 978
f 978 1079 1082
f 978 1082 971
f 1088 980 1085
f 1085 980 973
f 1085 1086 1089
f 1085 1089 1088
f 981 1087 976
f 981 1090 1087
f 1091 982 983
f 980 1088 983
f 1088 1091 983
f 1088 1092 1091
f 1088 1089 1093
f 1094 1088 1093
f 1092 1088 1094
f 1095 1094 1093
f 1098 1097 1096
f 1097 1090 1096
f 1090 984 1096
f 1090 981 984
f 1100 1099 1091
f 1099 982 1091
f 1099 985 982
f 1100 1091 1092
f 1100 1092 1101
f 1101 1092 1094
f 1101 1094 1102
f 1102 1094 1095
f 1103 1098 1096
f 984 987 1096
f 987 1104 1096
f 1104 1103 1096
f 1104 987 1105
f 1105 1106 1104
f 1099 989 985
f 1107 989 1099
f 990 1105 987
f 990 991 1105
f 991 1108 1105
f 1108 1106 1105
f 991 1109 1108
f 992 1109 991
f 1111 993 1110
f 993 1107 1110
f 993 989 1107
f 1112 1111 1110
f 1108 1109 1113
f 1108 1113 1114
f 994 1113 992
f 992 1113 1109
f 1111 995 993
f 1116 1115 997
f 1116 997 995
f 1112 1116 995
f 1111 1112 995
f 1118 1117 1115
f 1118 1115 1116
f 1119 1117 1118
f 1122 1121 1120
f 1120 1121 1114
f 1120 1114 1113
f 1000 1120 1113
f 999 1000 1113
f 999 1113 994
f 1123 1001 1115
f 1115 1001 997
f 1124 1115 1117
f 1123 1115 1124
f 1117 1119 1125
f 1126 1117 1125
f 1124 1117 1126
f 1128 1127 1126
f 1128 1126 1125
f 1129 1127 1128
f 1132 1131 1130
f 1130 1131 1122
f 1130 1122 1120
f 1004 1130 1120
f 1003 1004 1120
f 1003 1120 1000
f 1123 1006 1001
f 1006 1123 1008
f 1123 1133 1008
f 1123 1124 1133
f 1134 1124 1126
f 1133 1124 1134
f 1135 1126 1127
f 1134 1126 1135
f 1127 1129 1136
f 1137 1127 1136
f 1135 1127 1137
f 1137 1136 1132
f 1130 1137 1132
f 1138 1137 1130
f 1010 1138 1004
f 1004 1138 1130
f 1133 1012 1008
f 1012 1133 1014
f 1014 1133 1134
f 1014 1134 1016
f 1016 1134 1135
f 1016 1135 1017
f 1135 1139 1017
f 1135 1137 1139
f 1020 1139 1019
f 1139 1138 1019
f 1139 1137 1138
f 1019 1138 1010
f 1139 1024 1017
f 1024 1139 1020
f 1142 1141 1140
f 1140 1143 1142
f 1140 1141 1031
f 1141 1030 1031
f 1141 1144 1030
f 1145 1143 1140
f 1031 1145 1140
f 1032 1145 1031
f 1032 1034 1145
f 1145 1034 1146
f 1149 1148 1147
f 1151 1150 1147
f 1147 1150 1149
f 1151 1152 1035
f 1144 1151 1035
f 1030 1144 1035
f 1151 1144 1150
f 1152 1037 1035
f 1038 1154 1153
f 1146 1038 1153
f 1034 1038 1146
f 1154 1155 1153
f 1147 1148 1041
f 1148 1040 1041
f 1148 1156 1040
f 1147 1041 1042
f 1147 1042 1151
f 1151 1042 1044
f 1151 1044 1152
f 1152 1044 1037
f 1047 1154 1038
f 1047 1048 1154
f 1048 1155 1154
f 1048 1157 1155
f 1158 1049 1050
f 1052 1158 1050
f 1156 1053 1040
f 1159 1053 1156
f 1160 1157 1048
f 1160 1048 1054
f 1054 1056 1160
f 1160 1056 1161
f 1163 1162 1158
f 1162 1049 1158
f 1162 1057 1049
f 1163 1158 1052
f 1058 1163 1052
f 1164 1163 1058
f 1058 1053 1159
f 1058 1159 1164
f 1059 1161 1056
f 1059 1165 1161
f 1162 1061 1057
f 1166 1061 1162
f 1167 1165 1059
f 1167 1059 1062
f 1062 1064 1167
f 1167 1064 1168
f 1169 1065 1066
f 1170 1169 1066
f 1061 1170 1066
f 1166 1170 1061
f 1067 1168 1064
f 1067 1171 1168
f 1172 1068 1169
f 1169 1068 1065
f 1169 1170 1173
f 1169 1173 1172
f 1175 1174 1069
f 1175 1069 1070
f 1067 1069 1171
f 1171 1069 1174
f 1176 1071 1172
f 1172 1071 1068
f 1172 1173 1177
f 1172 1177 1176
f 1072 1175 1070
f 1072 1178 1175
f 1180 1179 1176
f 1179 1071 1176
f 1179 1073 1071
f 1180 1176 1177
f 1182 1181 1074
f 1182 1074 1075
f 1072 1074 1178
f 1178 1074 1181
f 1184 1076 1183
f 1076 1179 1183
f 1076 1073 1179
f 1185 1184 1183
f 1188 1187 1186
f 1189 1186 1187
f 1077 1182 1075
f 1077 1190 1182
f 1191 1078 1184
f 1184 1078 1076
f 1184 1185 1192
f 1184 1192 1191
f 1195 1194 1193
f 1193 1194 1188
f 1186 1193 1188
f 1196 1193 1186
f 1186 1189 1197
f 1198 1186 1197
f 1196 1186 1198
f 1080 1081 1198
f 1197 1080 1198
f 1199 1080 1197
f 1080 1200 1083
f 1199 1200 1080
f 1077 1083 1190
f 1190 1083 1200
f 1191 1084 1078
f 1202 1201 1086
f 1202 1086 1084
f 1192 1202 1084
f 1191 1192 1084
f 1204 1203 1201
f 1204 1201 1202
f 1203 1204 1195
f 1193 1203 1195
f 1205 1203 1193
f 1206 1193 1196
f 1205 1193 1206
f 1207 1196 1198
f 1206 1196 1207
f 1087 1207 1081
f 1081 1207 1198
f 1208 1089 1201
f 1201 1089 1086
f 1209 1201 1203
f 1208 1201 1209
f 1210 1203 1205
f 1209 1203 1210
f 1211 1205 1206
f 1210 1205 1211
f 1212 1206 1207
f 1211 1206 1212
f 1090 1212 1087
f 1087 1212 1207
f 1208 1093 1089
f 1093 1208 1095
f 1208 1213 1095
f 1208 1209 1213
f 1210 1215 1214
f 1213 1210 1214
f 1209 1210 1213
f 1215 1210 1211
f 1215 1211 1216
f 1098 1217 1097
f 1217 1211 1097
f 1211 1212 1097
f 1217 1216 1211
f 1097 1212 1090
f 1218 1099 1100
f 1101 1219 1100
f 1100 1219 1218
f 1102 1220 1101
f 1101 1220 1219
f 1221 1220 1102
f 1221 1102 1095
f 1222 1221 1095
f 1213 1222 1095
f 1222 1213 1214
f 1098 1103 1223
f 1224 1098 1223
f 1217 1098 1224
f 1104 1225 1103
f 1103 1225 1223
f 1106 1225 1104
f 1226 1107 1218
f 1218 1107 1099
f 1227 1218 1219
f 1226 1218 1227
f 1228 1219 1220
f 1227 1219 1228
f 1220 1221 1229
f 1230 1220 1229
f 1228 1220 1230
f 1232 1231 1230
f 1232 1230 1229
f 1233 1231 1232
f 1224 1223 1234
f 1224 1234 1235
f 1236 1223 1225
f 1234 1223 1236
f 1108 1236 1106
f 1106 1236 1225
f 1226 1110 1107
f 1110 1226 1112
f 1226 1237 1112
f 1226 1227 1237
f 1238 1227 1228
f 1237 1227 1238
f 1239 1228 1230
f 1238 1228 1239
f 1240 1230 1231
f 1239 1230 1240
f 1231 1233 1241
f 1242 1231 1241
f 1240 1231 1242
f 1242 1241 1235
f 1234 1242 1235
f 1243 1242 1234
f 1244 1234 1236
f 1243 1234 1244
f 1114 1244 1108
f 1108 1244 1236
f 1237 1116 1112
f 1116 1237 1118
f 1118 1237 1238
f 1118 1238 1119
f 1238 1245 1119
f 1238 1239 1245
f 1246 1239 1240
f 1245 1239 1246
f 1247 1240 1242
f 1246 1240 1247
f 1248 1242 1243
f 1247 1242 1248
f 1122 1248 1121
f 1248 1244 1121
f 1248 1243 1244
f 1121 1244 1114
f 1245 1125 1119
f 1125 1245 1128
f 1128 1245 1246
f 1128 1246 1129
f 1246 1249 1129
f 1246 1247 1249
f 1132 1249 1131
f 1249 1248 1131
f 1249 1247 1248
f 1131 1248 1122
f 1249 1136 1129
f 1136 1249 1132
f 1251 1250 1142
f 1142 1250 1141
f 1253 1252 1143
f 1252 1142 1143
f 1252 1251 1142
f 1253 1254 1252
f 1250 1144 1141
f 1255 1144 1250
f 1145 1253 1143
f 1145 1146 1253
f 1146 1254 1253
f 1146 1256 1254
f 1258 1257 1149
f 1149 1257 1148
f 1259 1149 1150
f 1259 1258 1149
f 1150 1144 1255
f 1150 1255 1259
f 1260 1256 1146
f 1260 1146 1153
f 1153 1155 1260
f 1260 1155 1261
f 1257 1156 1148
f 1262 1156 1257
f 1157 1261 1155
f 1157 1263 1261
f 1262 1159 1156
f 1264 1159 1262
f 1265 1263 1157
f 1265 1157 1160
f 1160 1161 1265
f 1265 1161 1266
f 1267 1162 1163
f 1164 1268 1163
f 1163 1268 1267
f 1269 1268 1164
f 1159 1269 1164
f 1264 1269 1159
f 1165 1266 1161
f 1165 1270 1266
f 1272 1271 1267
f 1271 1162 1267
f 1271 1166 1162
f 1272 1267 1268
f 1272 1268 1273
f 1273 1268 1269
f 1274 1270 1165
f 1274 1165 1167
f 1167 1168 1274
f 1274 1168 1275
f 1271 1170 1166
f 1276 1170 1271
f 1279 1278 1277
f 1278 1275 1277
f 1275 1171 1277
f 1275 1168 1171
f 1276 1173 1170
f 1280 1173 1276
f 1279 1277 1174
f 1175 1279 1174
f 1281 1279 1175
f 1174 1277 1171
f 1280 1177 1173
f 1282 1177 1280
f 1285 1284 1283
f 1284 1281 1283
f 1281 1178 1283
f 1281 1175 1178
f 1286 1179 1180
f 1287 1286 1180
f 1177 1287 1180
f 1282 1287 1177
f 1290 1289 1288
f 1292 1291 1288
f 1292 1288 1289
f 1294 1293 1291
f 1294 1291 1292
f 1293 1294 1285
f 1293 1285 1283
f 1182 1293 1283
f 1181 1182 1283
f 1181 1283 1178
f 1286 1183 1179
f 1296 1295 1185
f 1296 1185 1183
f 1287 1296 1183
f 1286 1287 1183
f 1297 1295 1296
f 1299 1298 1187
f 1299 1187 1188
f 1288 1300 1189
f 1298 1288 1189
f 1187 1298 1189
f 1290 1288 1298
f 1301 1288 1291
f 1300 1288 1301
f 1302 1291 1293
f 1301 1291 1302
f 1190 1302 1182
f 1182 1302 1293
f 1303 1192 1295
f 1295 1192 1185
f 1295 1297 1304
f 1305 1295 1304
f 1303 1295 1305
f 1194 1195 1305
f 1304 1194 1305
f 1306 1194 1304
f 1188 1194 1299
f 1299 1194 1306
f 1300 1197 1189
f 1197 1300 1199
f 1199 1300 1301
f 1199 1301 1200
f 1200 1301 1302
f 1200 1302 1190
f 1303 1202 1192
f 1202 1303 1204
f 1204 1303 1305
f 1204 1305 1195
f 1307 1214 1215
f 1216 1308 1215
f 1215 1308 1307
f 1217 1308 1216
f 1309 1221 1222
f 1214 1307 1222
f 1307 1309 1222
f 1307 1310 1309
f 1311 1307 1308
f 1310 1307 1311
f 1224 1311 1217
f 1217 1311 1308
f 1309 1229 1221
f 1229 1309 1232
f 1232 1309 1310
f 1232 1310 1233
f 1310 1312 1233
f 1310 1311 1312
f 1235 1312 1224
f 1224 1312 1311
f 1312 1241 1233
f 1241 1312 1235
f 1314 1313 1251
f 1251 1313 1250
f 1315 1251 1252
f 1315 1314 1251
f 1252 1254 1315
f 1315 1254 1316
f 1319 1318 1317
f 1313 1319 1317
f 1255 1313 1317
f 1250 1313 1255
f 1256 1316 1254
f 1256 1320 1316
f 1322 1321 1258
f 1258 1321 1257
f 1259 1317 1318
f 1322 1259 1318
f 1258 1259 1322
f 1317 1259 1255
f 1323 1320 1256
f 1323 1256 1260
f 1260 1261 1323
f 1323 1261 1324
f 1321 1262 1257
f 1325 1262 1321
f 1263 1324 1261
f 1263 1326 1324
f 1325 1264 1262
f 1327 1264 1325
f 1328 1326 1263
f 1328 1263 1265
f 1265 1266 1328
f 1328 1266 1329
f 1327 1269 1264
f 1330 1269 1327
f 1270 1329 1266
f 1270 1331 1329
f 1333 1332 1272
f 1272 1332 1271
f 1334 1272 1273
f 1334 1333 1272
f 1273 1269 1330
f 1273 1330 1334
f 1270 1274 1335
f 1336 1270 1335
f 1331 1270 1336
f 1275 1335 1274
f 1332 1276 1271
f 1337 1276 1332
f 1336 1335 1278
f 1279 1336 1278
f 1338 1336 1279
f 1278 1335 1275
f 1340 1280 1339
f 1280 1337 1339
f 1280 1276 1337
f 1341 1340 1339
f 1344 1343 1342
f 1343 1338 1342
f 1338 1281 1342
f 1338 1279 1281
f 1345 1282 1340
f 1340 1282 1280
f 1340 1341 1346
f 1340 1346 1345
f 1344 1342 1284
f 1285 1344 1284
f 1347 1344 1285
f 1284 1342 1281
f 1348 1287 1345
f 1345 1287 1282
f 1345 1346 1349
f 1350 1345 1349
f 1348 1345 1350
f 1352 1351 1350
f 1352 1350 1349
f 1354 1353 1351
f 1354 1351 1352
f 1289 1290 1353
f 1354 1289 1353
f 1355 1289 1354
f 1289 1356 1292
f 1355 1356 1289
f 1292 1357 1294
f 1356 1357 1292
f 1285 1294 1347
f 1347 1294 1357
f 1348 1296 1287
f 1296 1348 1297
f 1348 1358 1297
f 1348 1350 1358
f 1359 1350 1351
f 1358 1350 1359
f 1299 1359 1298
f 1359 1353 1298
f 1359 1351 1353
f 1298 1353 1290
f 1358 1304 1297
f 1304 1358 1306
f 1306 1358 1359
f 1306 1359 1299
f 1361 1360 1314
f 1314 1360 1313
f 1363 1361 1362
f 1361 1315 1362
f 1361 1314 1315
f 1316 1362 1315
f 1364 1318 1319
f 1365 1364 1319
f 1313 1365 1319
f 1360 1365 1313
f 1366 1363 1362
f 1362 1316 1366
f 1316 1367 1366
f 1316 1320 1367
f 1369 1368 1322
f 1322 1368 1321
f 1322 1318 1364
f 1370 1322 1364
f 1369 1322 1370
f 1370 1364 1365
f 1320 1323 1371
f 1372 1320 1371
f 1367 1320 1372
f 1324 1371 1323
f 1374 1325 1373
f 1325 1368 1373
f 1325 1321 1368
f 1375 1374 1373
f 1376 1372 1371
f 1371 1324 1376
f 1324 1377 1376
f 1324 1326 1377
f 1378 1327 1374
f 1374 1327 1325
f 1374 1375 1379
f 1374 1379 1378
f 1326 1328 1380
f 1381 1326 1380
f 1377 1326 1381
f 1329 1380 1328
f 1384 1383 1382
f 1386 1385 1382
f 1382 1385 1384
f 1387 1385 1378
f 1385 1330 1378
f 1330 1327 1378
f 1385 1386 1330
f 1387 1378 1379
f 1381 1380 1388
f 1381 1388 1389
f 1331 1388 1329
f 1329 1388 1380
f 1382 1383 1333
f 1383 1332 1333
f 1383 1390 1332
f 1382 1333 1334
f 1382 1334 1386
f 1386 1334 1330
f 1389 1388 1391
f 1389 1391 1392
f 1336 1391 1331
f 1331 1391 1388
f 1390 1337 1332
f 1393 1337 1390
f 1392 1391 1394
f 1392 1394 1395
f 1338 1394 1336
f 1336 1394 1391
f 1393 1396 1337
f 1337 1396 1339
f 1398 1397 1341
f 1339 1398 1341
f 1396 1398 1339
f 1400 1399 1397
f 1400 1397 1398
f 1401 1399 1400
f 1404 1403 1402
f 1402 1403 1395
f 1402 1395 1394
f 1344 1402 1394
f 1343 1344 1394
f 1343 1394 1338
f 1405 1346 1397
f 1397 1346 1341
f 1406 1397 1399
f 1405 1397 1406
f 1399 1401 1407
f 1399 1407 1406
f 1404 1402 1408
f 1404 1408 1409
f 1347 1408 1344
f 1344 1408 1402
f 1405 1349 1346
f 1349 1405 1352
f 1352 1405 1406
f 1407 1410 1406
f 1410 1352 1406
f 1410 1354 1352
f 1410 1412 1411
f 1355 1410 1411
f 1354 1410 1355
f 1355 1411 1413
f 1414 1355 1413
f 1356 1355 1414
f 1408 1357 1409
f 1357 1414 1409
f 1357 1356 1414
f 1357 1408 1347
f 1412 1415 1411
f 1411 1415 1413
f 1417 1416 1361
f 1361 1416 1360
f 1361 1363 1417
f 1417 1363 1418
f 1416 1365 1360
f 1419 1365 1416
f 1420 1418 1363
f 1420 1363 1366
f 1366 1367 1420
f 1420 1367 1421
f 1422 1368 1369
f 1370 1423 1369
f 1369 1423 1422
f 1424 1423 1370
f 1365 1424 1370
f 1419 1424 1365
f 1372 1421 1367
f 1372 1425 1421
f 1422 1373 1368
f 1422 1423 1426
f 1375 1422 1426
f 1427 1375 1426
f 1422 1375 1373
f 1426 1423 1424
f 1428 1425 1372
f 1428 1372 1376
f 1376 1377 1428
f 1428 1377 1429
f 1432 1431 1430
f 1434 1433 1430
f 1430 1433 1432
f 1436 1435 1434
f 1434 1435 1433
f 1427 1435 1436
f 1379 1427 1436
f 1375 1427 1379
f 1381 1429 1377
f 1381 1437 1429
f 1430 1431 1384
f 1431 1383 1384
f 1431 1438 1383
f 1430 1384 1385
f 1430 1385 1434
f 1434 1385 1387
f 1434 1387 1436
f 1436 1387 1379
f 1389 1437 1381
f 1389 1439 1437
f 1441 1390 1440
f 1390 1438 1440
f 1390 1383 1438
f 1442 1441 1440
f 1445 1444 1443
f 1444 1439 1443
f 1439 1392 1443
f 1439 1389 1392
f 1446 1393 1441
f 1441 1393 1390
f 1441 1442 1447
f 1441 1447 1446
f 1445 1443 1448
f 1445 1448 1449
f 1395 1448 1392
f 1392 1448 1443
f 1446 1396 1393
f 1447 1450 1446
f 1450 1396 1446
f 1450 1398 1396
f 1398 1451 1400
f 1450 1451 1398
f 1401 1400 1451
f 1401 1451 1452
f 1455 1454 1453
f 1457 1456 1453
f 1457 1453 1454
f 1456 1457 1449
f 1456 1449 1448
f 1404 1456 1448
f 1403 1404 1448
f 1403 1448 1395
f 1459 1407 1458
f 1407 1452 1458
f 1407 1401 1452
f 1459 1458 1455
f 1453 1459 1455
f 1460 1459 1453
f 1461 1453 1456
f 1460 1453 1461
f 1409 1461 1404
f 1404 1461 1456
f 1459 1410 1407
f 1410 1459 1412
f 1459 1462 1412
f 1459 1460 1462
f 1413 1462 1414
f 1462 1461 1414
f 1462 1460 1461
f 1414 1461 1409
f 1462 1415 1412
f 1415 1462 1413
f 1463 1416 1417
f 1418 1463 1417
f 1466 1465 1464
f 1467 1466 1463
f 1466 1419 1463
f 1419 1416 1463
f 1466 1464 1419
f 1467 1463 1418
f 1420 1467 1418
f 1468 1467 1420
f 1420 1421 1468
f 1468 1421 1469
f 1472 1471 1470
f 1472 1470 1465
f 1470 1464 1465
f 1470 1473 1464
f 1473 1424 1419
f 1473 1419 1464
f 1425 1475 1474
f 1469 1425 1474
f 1421 1425 1469
f 1475 1476 1474
f 1479 1478 1477
f 1479 1477 1471
f 1477 1470 1471
f 1477 1480 1470
f 1480 1427 1426
f 1473 1480 1426
f 1470 1480 1473
f 1473 1426 1424
f 1428 1475 1425
f 1482 1481 1429
f 1429 1481 1428
f 1481 1476 1428
f 1476 1475 1428
f 1482 1483 1481
f 1484 1431 1432
f 1478 1485 1477
f 1485 1432 1477
f 1432 1433 1477
f 1432 1485 1484
f 1477 1433 1435
f 1477 1435 1480
f 1480 1435 1427
f 1437 1486 1482
f 1437 1482 1429
f 1483 1482 1487
f 1487 1482 1486
f 1488 1438 1484
f 1484 1438 1431
f 1484 1485 1489
f 1490 1484 1489
f 1488 1484 1490
f 1491 1490 1489
f 1439 1492 1486
f 1439 1486 1437
f 1487 1486 1493
f 1493 1486 1492
f 1488 1440 1438
f 1440 1488 1442
f 1488 1494 1442
f 1488 1490 1494
f 1490 1491 1495
f 1496 1490 1495
f 1494 1490 1496
f 1497 1496 1495
f 1500 1499 1498
f 1502 1501 1498
f 1502 1498 1499
f 1503 1444 1445
f 1504 1501 1502
f 1503 1505 1444
f 1444 1505 1439
f 1505 1506 1439
f 1506 1492 1439
f 1492 1506 1493
f 1507 1447 1494
f 1494 1447 1442
f 1508 1494 1496
f 1507 1494 1508
f 1496 1497 1509
f 1510 1496 1509
f 1508 1496 1510
f 1510 1509 1500
f 1498 1510 1500
f 1511 1510 1498
f 1512 1498 1501
f 1511 1498 1512
f 1449 1503 1445
f 1503 1449 1513
f 1512 1513 1449
f 1513 1512 1504
f 1501 1504 1512
f 1503 1513 1505
f 1507 1450 1447
f 1450 1507 1451
f 1451 1507 1508
f 1451 1508 1452
f 1508 1514 1452
f 1508 1510 1514
f 1455 1514 1454
f 1514 1511 1454
f 1514 1510 1511
f 1454 1511 1457
f 1457 1511 1512
f 1457 1512 1449
f 1514 1458 1452
f 1458 1514 1455
f 1517 1516 1515
f 1515 1518 1517
f 1521 1520 1519
f 1521 1519 1516
f 1519 1515 1516
f 1519 1522 1515
f 1518 1515 1523
f 1515 1524 1523
f 1515 1522 1524
f 1524 1525 1523
f 1519 1520 1526
f 1526 1520 1527
f 1519 1528 1522
f 1519 1526 1528
f 1522 1529 1524
f 1522 1528 1529
f 1525 1524 1530
f 1524 1531 1530
f 1524 1529 1531
f 1531 1532 1530
f 1535 1534 1533
f 1535 1533 1527
f 1527 1533 1526
f 1533 1465 1526
f 1465 1466 1526
f 1526 1466 1467
f 1526 1467 1528
f 1528 1467 1468
f 1528 1468 1529
f 1529 1468 1469
f 1536 1529 1469
f 1531 1529 1536
f 1532 1531 1537
f 1537 1531 1536
f 1533 1534 1472
f 1534 1471 1472
f 1534 1538 1471
f 1533 1472 1465
f 1474 1536 1469
f 1474 1476 1536
f 1476 1537 1536
f 1476 1539 1537
f 1540 1478 1479
f 1541 1540 1479
f 1471 1541 1479
f 1538 1541 1471
f 1476 1481 1542
f 1543 1476 1542
f 1539 1476 1543
f 1483 1542 1481
f 1544 1485 1540
f 1540 1485 1478
f 1540 1541 1545
f 1546 1540 1545
f 1544 1540 1546
f 1547 1546 1545
f 1543 1542 1548
f 1543 1548 1549
f 1487 1548 1483
f 1483 1548 1542
f 1544 1489 1485
f 1489 1544 1491
f 1544 1550 1491
f 1544 1546 1550
f 1546 1547 1551
f 1552 1546 1551
f 1550 1546 1552
f 1553 1552 1551
f 1549 1548 1554
f 1549 1554 1555
f 1493 1554 1487
f 1487 1554 1548
f 1550 1495 1491
f 1495 1550 1497
f 1550 1556 1497
f 1550 1552 1556
f 1557 1499 1500
f 1552 1557 1500
f 1556 1552 1500
f 1557 1552 1553
f 1499 1558 1502
f 1557 1558 1499
f 1560 1559 1504
f 1502 1560 1504
f 1558 1560 1502
f 1559 1560 1555
f 1559 1555 1554
f 1505 1559 1554
f 1506 1505 1554
f 1506 1554 1493
f 1556 1509 1497
f 1509 1556 1500
f 1559 1513 1504
f 1513 1559 1505
f 1561 1516 1517
f 1518 1561 1517
f 1562 1520 1521
f 1516 1561 1521
f 1561 1562 1521
f 1561 1563 1562
f 1523 1564 1518
f 1564 1561 1518
f 1564 1563 1561
f 1525 1564 1523
f 1566 1565 1562
f 1565 1520 1562
f 1565 1527 1520
f 1566 1562 1563
f 1566 1563 1567
f 1567 1563 1564
f 1567 1564 1568
f 1570 1568 1569
f 1569 1568 1530
f 1568 1564 1530
f 1564 1525 1530
f 1532 1569 1530
f 1571 1534 1535
f 1572 1571 1535
f 1527 1572 1535
f 1565 1572 1527
f 1570 1569 1573
f 1570 1573 1574
f 1537 1573 1532
f 1532 1573 1569
f 1575 1538 1571
f 1571 1538 1534
f 1571 1572 1576
f 1571 1576 1575
f 1574 1573 1577
f 1574 1577 1578
f 1539 1577 1537
f 1537 1577 1573
f 1579 1541 1575
f 1575 1541 1538
f 1575 1576 1580
f 1575 1580 1579
f 1578 1577 1581
f 1578 1581 1582
f 1543 1581 1539
f 1539 1581 1577
f 1579 1545 1541
f 1547 1545 1579
f 1580 1547 1579
f 1583 1547 1580
f 1586 1585 1584
f 1588 1587 1584
f 1588 1584 1585
f 1587 1588 1582
f 1581 1587 1582
f 1589 1587 1581
f 1549 1589 1543
f 1543 1589 1581
f 1583 1590 1547
f 1547 1590 1551
f 1584 1591 1553
f 1590 1584 1553
f 1551 1590 1553
f 1586 1584 1590
f 1592 1584 1587
f 1591 1584 1592
f 1593 1587 1589
f 1592 1587 1593
f 1555 1593 1549
f 1549 1593 1589
f 1591 1557 1553
f 1557 1591 1558
f 1558 1591 1592
f 1558 1592 1560
f 1560 1592 1593
f 1560 1593 1555
f 1594 1565 1566
f 1567 1595 1566
f 1566 1595 1594
f 1568 1596 1567
f 1567 1596 1595
f 1570 1596 1568
f 1597 1572 1594
f 1594 1572 1565
f 1598 1594 1595
f 1597 1594 1598
f 1599 1595 1596
f 1598 1595 1599
f 1574 1599 1570
f 1570 1599 1596
f 1600 1576 1597
f 1597 1576 1572
f 1601 1597 1598
f 1600 1597 1601
f 1602 1598 1599
f 1601 1598 1602
f 1578 1602 1574
f 1574 1602 1599
f 1603 1580 1600
f 1600 1580 1576
f 1604 1600 1601
f 1603 1600 1604
f 1605 1601 1602
f 1604 1601 1605
f 1582 1605 1578
f 1578 1605 1602
f 1606 1583 1603
f 1603 1583 1580
f 1586 1606 1585
f 1606 1604 1585
f 1606 1603 1604
f 1585 1604 1588
f 1588 1604 1605
f 1588 1605 1582
f 1606 1590 1583
f 1590 1606 1586
