v 2.9 -69.0 -31.0
v 3.0 -69.0 -31.2
v 3.0 -69.1 -31.0
v 3.0 -69.0 -30.8
v 2.8 -68.0 -31.0
v 3.0 -68.0 -31.3
v 3.0 -68.1 -30.0
v 2.9 -68.0 -30.0
v 3.0 -68.0 -29.9
v 3.0 -67.7 -31.0
v 3.0 -67.9 -30.0
v 3.7 -70.0 -32.0
v 4.0 -70.0 -32.3
v 4.0 -70.3 -32.0
v 4.0 -70.5 -31.0
v 3.6 -70.0 -31.0
v 4.0 -70.2 -30.0
v 3.8 -70.0 -30.0
v 4.0 -70.0 -29.8
v 3.5 -69.0 -32.0
v 4.0 -69.0 -32.5
v 3.5 -69.0 -30.0
v 4.0 -69.0 -29.6
v 3.5 -68.0 -32.0
v 4.0 -68.0 -32.5
v 4.0 -68.0 -29.5
v 3.7 -67.0 -32.0
v 4.0 -67.0 -32.3
v 3.4 -67.0 -31.0
v 3.5 -67.0 -30.0
v 4.0 -67.0 -29.4
v 4.0 -66.6 -32.0
v 3.6 -66.0 -31.0
v 4.0 -66.0 -31.6
v 3.5 -66.0 -30.0
v 4.0 -66.4 -29.0
v 3.7 -66.0 -29.0
v 4.0 -66.0 -28.7
v 3.7 -65.0 -31.0
v 4.0 -65.0 -31.4
v 3.5 -65.0 -30.0
v 3.5 -65.0 -29.0
v 4.0 -65.3 -28.0
v 3.8 -65.0 -28.0
v 4.0 -65.0 -27.8
v 4.0 -64.5 -31.0
v 3.6 -64.0 -30.0
v 4.0 -64.0 -30.6
v 3.5 -64.0 -29.0
v 3.7 -64.0 -28.0
v 4.0 -64.0 -27.7
v 3.7 -63.0 -30.0
v 4.0 -63.0 -30.4
v 3.5 -63.0 -29.0
v 3.6 -63.0 -28.0
v 4.0 -63.0 -27.6
v 4.0 -62.5 -30.0
v 3.7 -62.0 -29.0
v 4.0 -62.0 -29.5
v 3.6 -62.0 -28.0
v 4.0 -62.0 -27.5
v 4.0 -61.5 -29.0
v 3.8 -61.0 -28.0
v 4.0 -61.0 -28.4
v 4.0 -61.1 -27.0
v 3.9 -61.0 -27.0
v 4.0 -61.0 -26.9
v 4.0 -60.7 -28.0
v 4.0 -60.9 -27.0
v 4.7 -71.0 -32.0
v 5.0 -71.0 -32.3
v 5.0 -71.2 -32.0
v 5.0 -71.2 -31.0
v 4.7 -71.0 -31.0
v 5.0 -71.0 -30.7
v 4.7 -70.0 -33.0
v 5.0 -70.0 -33.2
v 5.0 -70.3 -33.0
v 5.0 -70.4 -30.0
v 5.0 -70.0 -29.6
v 4.5 -69.0 -33.0
v 5.0 -69.0 -33.4
v 5.0 -69.0 -29.5
v 4.6 -68.0 -33.0
v 5.0 -68.0 -33.3
v 5.0 -68.0 -29.4
v 5.0 -67.5 -33.0
v 5.0 -67.0 -32.7
v 5.0 -67.4 -29.0
v 4.6 -67.0 -29.0
v 5.0 -67.0 -28.7
v 4.4 -66.0 -32.0
v 5.0 -66.0 -32.5
v 5.0 -66.0 -28.4
v 4.5 -65.0 -32.0
v 5.0 -65.0 -32.5
v 5.0 -65.4 -28.0
v 5.0 -65.0 -27.7
v 4.6 -64.0 -32.0
v 5.0 -64.0 -32.5
v 4.3 -64.0 -31.0
v 5.0 -64.0 -27.5
v 4.7 -63.0 -32.0
v 5.0 -63.0 -32.4
v 4.4 -63.0 -31.0
v 5.0 -63.0 -27.4
v 5.0 -62.5 -32.0
v 4.6 -62.0 -31.0
v 5.0 -62.0 -31.6
v 4.3 -62.0 -30.0
v 5.0 -62.2 -27.0
v 4.7 -62.0 -27.0
v 5.0 -62.0 -26.8
v 4.6 -61.0 -31.0
v 5.0 -61.0 -31.5
v 4.5 -61.0 -30.0
v 4.3 -61.0 -29.0
v 5.0 -61.0 -26.6
v 4.8 -60.0 -31.0
v 5.0 -60.0 -31.3
v 4.6 -60.0 -30.0
v 4.6 -60.0 -29.0
v 4.4 -60.0 -28.0
v 4.6 -60.0 -27.0
v 5.0 -60.0 -26.6
v 5.0 -59.8 -31.0
v 5.0 -59.6 -30.0
v 5.0 -59.4 -29.0
v 4.8 -59.0 -28.0
v 5.0 -59.0 -28.4
v 4.8 -59.0 -27.0
v 5.0 -59.0 -26.8
v 5.0 -58.7 -28.0
v 5.0 -58.8 -27.0
v 6.0 -71.0 -32.4
v 6.0 -71.4 -32.0
v 6.0 -71.3 -31.0
v 6.0 -71.0 -30.7
v 6.0 -70.0 -33.4
v 6.0 -70.5 -33.0
v 6.0 -70.3 -30.0
v 6.0 -70.0 -29.7
v 6.0 -69.0 -33.5
v 6.0 -69.0 -29.5
v 6.0 -68.0 -33.5
v 6.0 -68.0 -29.4
v 5.4 -67.0 -33.0
v 6.0 -67.0 -33.4
v 6.0 -67.4 -29.0
v 6.0 -67.0 -28.7
v 5.5 -66.0 -33.0
v 6.0 -66.0 -33.4
v 6.0 -66.0 -28.5
v 5.5 -65.0 -33.0
v 6.0 -65.0 -33.5
v 5.5 -65.0 -28.0
v 6.0 -65.0 -28.3
v 5.5 -64.0 -33.0
v 6.0 -64.0 -33.5
v 6.0 -64.5 -28.0
v 6.0 -64.0 -27.7
v 5.5 -63.0 -33.0
v 6.0 -63.0 -33.5
v 6.0 -63.0 -27.6
v 5.6 -62.0 -33.0
v 6.0 -62.0 -33.5
v 5.3 -62.0 -32.0
v 5.3 -62.0 -27.0
v 6.0 -62.0 -27.3
v 5.7 -61.0 -33.0
v 6.0 -61.0 -33.3
v 5.4 -61.0 -32.0
v 6.0 -61.5 -27.0
v 6.0 -61.0 -26.7
v 6.0 -60.6 -33.0
v 5.7 -60.0 -32.0
v 6.0 -60.0 -32.4
v 6.0 -60.0 -26.6
v 6.0 -59.7 -32.0
v 6.0 -59.4 -31.0
v 5.9 -59.0 -30.0
v 6.0 -59.0 -30.1
v 5.6 -59.0 -29.0
v 6.0 -59.0 -26.6
v 6.0 -58.9 -30.0
v 6.0 -58.8 -29.0
v 6.0 -58.5 -28.0
v 6.0 -58.0 -27.0
v 7.0 -71.0 -32.1
v 7.0 -71.1 -32.0
v 6.4 -71.0 -31.0
v 7.0 -71.0 -31.8
v 7.0 -70.0 -33.2
v 7.0 -70.3 -33.0
v 7.0 -70.6 -31.0
v 6.5 -70.0 -30.0
v 7.0 -70.0 -30.4
v 7.0 -69.0 -33.4
v 7.0 -69.6 -30.0
v 7.0 -69.0 -29.6
v 7.0 -68.0 -33.5
v 7.0 -68.0 -29.5
v 7.0 -67.0 -33.4
v 6.5 -67.0 -29.0
v 7.0 -67.0 -29.3
v 7.0 -66.0 -33.6
v 7.0 -66.5 -29.0
v 7.0 -66.0 -28.7
v 6.7 -65.0 -34.0
v 7.0 -65.0 -34.2
v 7.0 -65.3 -34.0
v 7.0 -65.0 -28.6
v 6.5 -64.0 -34.0
v 7.0 -64.0 -34.4
v 6.4 -64.0 -28.0
v 7.0 -64.0 -28.4
v 6.5 -63.0 -34.0
v 7.0 -63.0 -34.4
v 6.6 -63.0 -28.0
v 7.0 -63.0 -28.3
v 6.5 -62.0 -34.0
v 7.0 -62.0 -34.5
v 7.0 -62.5 -28.0
v 7.0 -62.0 -27.7
v 6.6 -61.0 -34.0
v 7.0 -61.0 -34.4
v 6.4 -61.0 -27.0
v 7.0 -61.0 -27.4
v 7.0 -60.5 -34.0
v 6.5 -60.0 -33.0
v 7.0 -60.0 -33.5
v 6.6 -60.0 -27.0
v 7.0 -60.0 -27.4
v 7.0 -59.6 -33.0
v 7.0 -59.5 -32.0
v 7.0 -59.5 -31.0
v 6.1 -59.0 -30.0
v 7.0 -59.4 -30.0
v 6.4 -59.0 -29.0
v 7.0 -59.4 -29.0
v 6.6 -59.0 -28.0
v 7.0 -59.4 -28.0
v 6.8 -59.0 -27.0
v 7.1 -71.0 -32.0
v 7.3 -70.0 -33.0
v 8.0 -70.0 -32.3
v 8.0 -70.3 -32.0
v 8.0 -70.3 -31.0
v 8.0 -70.0 -30.7
v 7.6 -69.0 -33.0
v 8.0 -69.0 -32.7
v 8.0 -69.3 -30.0
v 8.0 -69.0 -29.7
v 8.0 -68.0 -33.2
v 8.0 -68.3 -33.0
v 8.0 -68.0 -29.5
v 8.0 -67.4 -33.0
v 7.8 -67.0 -33.0
v 8.0 -67.0 -32.9
v 8.0 -67.0 -29.5
v 8.0 -66.0 -33.5
v 8.0 -66.8 -33.0
v 7.4 -66.0 -29.0
v 8.0 -66.0 -29.4
v 8.0 -65.0 -34.3
v 8.0 -65.4 -34.0
v 7.6 -65.0 -29.0
v 8.0 -65.0 -29.3
v 8.0 -64.0 -34.5
v 8.0 -64.5 -29.0
v 8.0 -64.0 -28.7
v 8.0 -63.0 -34.6
v 8.0 -63.0 -28.5
v 7.7 -62.0 -35.0
v 8.0 -62.0 -35.2
v 8.0 -62.3 -35.0
v 7.5 -62.0 -28.0
v 8.0 -62.0 -28.3
v 7.6 -61.0 -35.0
v 8.0 -61.0 -35.4
v 8.0 -61.5 -28.0
v 8.0 -61.0 -27.7
v 7.7 -60.0 -35.0
v 8.0 -60.0 -35.2
v 7.3 -60.0 -34.0
v 8.0 -60.0 -27.6
v 8.0 -59.6 -35.0
v 7.7 -59.0 -34.0
v 8.0 -59.0 -34.4
v 7.6 -59.0 -33.0
v 8.0 -59.0 -32.4
v 8.0 -59.2 -32.0
v 8.0 -59.4 -31.0
v 8.0 -59.4 -30.0
v 8.0 -59.4 -29.0
v 8.0 -59.6 -28.0
v 8.0 -58.6 -34.0
v 8.0 -58.6 -33.0
v 7.8 -54.0 -33.0
v 8.0 -54.0 -33.2
v 8.0 -54.8 -33.0
v 8.0 -54.0 -32.8
v 7.8 -53.0 -33.0
v 8.0 -53.0 -33.2
v 8.0 -53.0 -32.8
v 7.9 -52.0 -33.0
v 8.0 -52.0 -33.1
v 8.0 -52.0 -32.9
v 8.0 -51.9 -33.0
v 8.3 -70.0 -32.0
v 8.3 -70.0 -31.0
v 9.0 -69.0 -32.3
v 9.0 -69.3 -32.0
v 9.0 -69.4 -31.0
v 8.4 -69.0 -30.0
v 9.0 -69.0 -30.5
v 8.2 -68.0 -33.0
v 9.0 -68.0 -32.6
v 9.0 -68.6 -30.0
v 9.0 -68.0 -29.6
v 9.0 -67.0 -32.6
v 9.0 -67.0 -29.5
v 9.0 -66.0 -33.4
v 9.0 -66.5 -33.0
v 9.0 -66.0 -29.4
v 8.5 -65.0 -34.0
v 9.0 -65.0 -33.7
v 9.0 -65.0 -29.4
v 9.0 -64.0 -34.4
v 9.0 -64.6 -34.0
v 8.7 -64.0 -29.0
v 9.0 -64.0 -29.2
v 9.0 -63.0 -34.6
v 9.0 -63.7 -29.0
v 9.0 -63.0 -28.6
v 9.0 -62.0 -35.3
v 9.0 -62.4 -35.0
v 9.0 -62.0 -28.4
v 9.0 -61.0 -35.5
v 8.6 -61.0 -28.0
v 9.0 -61.0 -28.2
v 9.0 -60.0 -35.5
v 9.0 -60.7 -28.0
v 9.0 -60.0 -27.5
v 8.5 -59.0 -35.0
v 9.0 -59.0 -35.4
v 8.2 -59.0 -32.0
v 8.4 -59.0 -31.0
v 8.4 -59.0 -30.0
v 8.5 -59.0 -29.0
v 8.6 -59.0 -28.0
v 9.0 -59.0 -27.7
v 8.7 -58.0 -35.0
v 9.0 -58.0 -35.2
v 8.4 -58.0 -34.0
v 8.4 -58.0 -33.0
v 8.5 -58.0 -32.0
v 8.7 -58.0 -31.0
v 9.0 -58.0 -30.5
v 9.0 -58.4 -30.0
v 9.0 -58.5 -29.0
v 9.0 -58.7 -28.0
v 9.0 -57.6 -35.0
v 8.7 -57.0 -34.0
v 9.0 -57.0 -34.5
v 8.5 -57.0 -33.0
v 8.7 -57.0 -32.0
v 9.0 -57.0 -31.5
v 9.0 -57.5 -31.0
v 9.0 -56.5 -34.0
v 8.6 -56.0 -33.0
v 9.0 -56.0 -33.5
v 9.0 -56.0 -32.5
v 9.0 -56.5 -32.0
v 8.1 -55.0 -33.0
v 9.0 -55.0 -33.6
v 9.0 -55.0 -32.5
v 8.6 -54.0 -34.0
v 9.0 -54.0 -34.4
v 9.0 -54.6 -34.0
v 9.0 -54.0 -32.4
v 8.5 -53.0 -34.0
v 9.0 -53.0 -34.5
v 9.0 -53.0 -32.4
v 8.4 -52.0 -34.0
v 9.0 -52.0 -34.5
v 9.0 -52.0 -32.4
v 8.3 -51.0 -34.0
v 9.0 -51.0 -34.5
v 8.6 -51.0 -33.0
v 9.0 -51.0 -32.6
v 9.0 -50.5 -34.0
v 9.0 -50.6 -33.0
v 9.3 -69.0 -32.0
v 9.4 -69.0 -31.0
v 10.0 -68.0 -32.2
v 10.0 -68.3 -32.0
v 10.0 -68.5 -31.0
v 10.0 -68.2 -30.0
v 10.0 -68.0 -29.8
v 10.0 -67.0 -32.6
v 10.0 -67.0 -29.5
v 10.0 -66.0 -33.3
v 10.0 -66.4 -33.0
v 10.0 -66.1 -29.0
v 9.8 -66.0 -29.0
v 10.0 -66.0 -28.9
v 10.0 -65.0 -33.6
v 9.5 -65.0 -29.0
v 10.0 -65.0 -28.6
v 10.0 -64.0 -34.3
v 10.0 -64.3 -34.0
v 9.3 -64.0 -29.0
v 10.0 -64.0 -28.7
v 10.0 -63.0 -34.4
v 10.0 -63.0 -28.8
v 9.5 -62.0 -35.0
v 10.0 -62.0 -34.7
v 10.0 -62.2 -28.0
v 9.8 -62.0 -28.0
v 10.0 -62.0 -27.9
v 10.0 -61.0 -35.3
v 10.0 -61.5 -35.0
v 10.0 -61.4 -28.0
v 10.0 -61.0 -28.1
v 10.0 -60.0 -35.4
v 10.0 -60.9 -28.0
v 10.0 -60.2 -27.0
v 9.7 -60.0 -27.0
v 10.0 -60.0 -26.8
v 10.0 -59.0 -35.4
v 9.7 -59.0 -27.0
v 10.0 -59.0 -26.7
v 10.0 -58.0 -35.5
v 9.3 -58.0 -30.0
v 9.5 -58.0 -29.0
v 9.6 -58.0 -28.0
v 10.0 -58.0 -27.5
v 10.0 -58.5 -27.0
v 9.5 -57.0 -35.0
v 10.0 -57.0 -35.4
v 9.3 -57.0 -31.0
v 9.7 -57.0 -30.0
v 10.0 -57.0 -29.5
v 10.0 -57.4 -29.0
v 10.0 -57.6 -28.0
v 9.6 -56.0 -35.0
v 10.0 -56.0 -35.4
v 9.3 -56.0 -34.0
v 9.3 -56.0 -32.0
v 9.6 -56.0 -31.0
v 10.0 -56.0 -30.4
v 10.0 -56.5 -30.0
v 9.6 -55.0 -35.0
v 10.0 -55.0 -35.6
v 9.2 -55.0 -34.0
v 9.4 -55.0 -32.0
v 9.7 -55.0 -31.0
v 10.0 -55.0 -30.6
v 9.8 -54.0 -36.0
v 10.0 -54.0 -36.2
v 10.0 -54.4 -36.0
v 9.4 -54.0 -35.0
v 9.4 -54.0 -32.0
v 10.0 -54.0 -31.4
v 10.0 -54.5 -31.0
v 9.7 -53.0 -36.0
v 10.0 -53.0 -36.3
v 9.4 -53.0 -35.0
v 9.5 -53.0 -32.0
v 10.0 -53.0 -31.5
v 9.7 -52.0 -36.0
v 10.0 -52.0 -36.3
v 9.4 -52.0 -35.0
v 9.5 -52.0 -32.0
v 10.0 -52.0 -31.5
v 9.7 -51.0 -36.0
v 10.0 -51.0 -36.3
v 9.4 -51.0 -35.0
v 9.6 -51.0 -32.0
v 10.0 -51.0 -31.6
v 9.8 -50.0 -36.0
v 10.0 -50.0 -36.2
v 9.5 -50.0 -35.0
v 9.4 -50.0 -34.0
v 9.6 -50.0 -33.0
v 10.0 -50.0 -32.5
v 10.0 -50.6 -32.0
v 10.0 -49.6 -36.0
v 9.7 -49.0 -35.0
v 10.0 -49.0 -35.4
v 9.7 -49.0 -34.0
v 10.0 -49.0 -33.6
v 10.0 -49.5 -33.0
v 10.0 -48.7 -35.0
v 10.0 -48.7 -34.0
v 10.3 -68.0 -32.0
v 10.5 -68.0 -31.0
v 10.2 -68.0 -30.0
v 11.0 -67.0 -32.2
v 11.0 -67.3 -32.0
v 11.0 -67.4 -31.0
v 11.0 -67.0 -30.5
v 10.6 -67.0 -30.0
v 10.4 -66.0 -33.0
v 11.0 -66.0 -32.6
v 11.0 -66.6 -30.0
v 10.2 -66.0 -29.0
v 11.0 -66.0 -29.4
v 11.0 -65.0 -33.3
v 11.0 -65.4 -33.0
v 11.0 -65.6 -29.0
v 11.0 -65.0 -28.6
v 10.3 -64.0 -34.0
v 11.0 -64.0 -33.4
v 11.0 -64.0 -28.4
v 10.6 -63.0 -34.0
v 11.0 -63.0 -33.6
v 11.0 -63.2 -28.0
v 10.8 -63.0 -28.0
v 11.0 -63.0 -27.9
v 11.0 -62.0 -34.3
v 11.0 -62.4 -34.0
v 11.0 -62.0 -27.6
v 10.4 -61.0 -35.0
v 11.0 -61.0 -34.5
v 10.1 -61.0 -28.0
v 11.0 -61.0 -27.5
v 10.5 -60.0 -35.0
v 11.0 -60.0 -34.5
v 11.0 -60.4 -27.0
v 11.0 -60.0 -26.7
v 10.6 -59.0 -35.0
v 11.0 -59.0 -34.7
v 11.0 -59.0 -26.5
v 11.0 -58.0 -35.3
v 11.0 -58.5 -35.0
v 10.3 -58.0 -27.0
v 11.0 -58.1 -26.0
v 10.9 -58.0 -26.0
v 11.0 -58.0 -25.9
v 11.0 -57.0 -35.4
v 10.3 -57.0 -29.0
v 10.4 -57.0 -28.0
v 10.5 -57.0 -27.0
v 10.7 -57.0 -26.0
v 11.0 -57.0 -25.7
v 11.0 -56.0 -35.6
v 10.3 -56.0 -30.0
v 10.5 -56.0 -29.0
v 10.5 -56.0 -28.0
v 10.6 -56.0 -27.0
v 10.8 -56.0 -26.0
v 11.0 -56.0 -25.8
v 10.6 -55.0 -36.0
v 11.0 -55.0 -36.3
v 11.0 -55.4 -36.0
v 10.4 -55.0 -30.0
v 10.5 -55.0 -29.0
v 10.6 -55.0 -28.0
v 11.0 -55.0 -27.4
v 11.0 -55.4 -27.0
v 11.0 -55.8 -26.0
v 11.0 -54.0 -36.5
v 10.3 -54.0 -31.0
v 10.5 -54.0 -30.0
v 10.5 -54.0 -29.0
v 10.6 -54.0 -28.0
v 11.0 -54.0 -27.6
v 11.0 -53.0 -36.5
v 10.4 -53.0 -31.0
v 10.5 -53.0 -30.0
v 10.5 -53.0 -29.0
v 10.8 -53.0 -28.0
v 11.0 -53.0 -27.8
v 11.0 -52.0 -36.5
v 10.4 -52.0 -31.0
v 10.5 -52.0 -30.0
v 10.6 -52.0 -29.0
v 11.0 -52.0 -28.6
v 11.0 -52.7 -28.0
v 11.0 -51.0 -36.5
v 10.5 -51.0 -31.0
v 10.6 -51.0 -30.0
v 10.8 -51.0 -29.0
v 11.0 -51.0 -28.8
v 11.0 -50.0 -36.5
v 10.5 -50.0 -32.0
v 11.0 -50.0 -31.5
v 11.0 -50.4 -31.0
v 11.0 -50.6 -30.0
v 11.0 -50.8 -29.0
v 10.5 -49.0 -36.0
v 11.0 -49.0 -36.4
v 10.5 -49.0 -33.0
v 11.0 -49.0 -32.5
v 11.0 -49.5 -32.0
v 10.8 -48.0 -36.0
v 11.0 -48.0 -36.2
v 10.5 -48.0 -35.0
v 10.7 -48.0 -34.0
v 11.0 -48.0 -33.6
v 11.0 -48.5 -33.0
v 11.0 -47.8 -36.0
v 11.0 -47.6 -35.0
v 11.0 -47.7 -34.0
v 11.2 -67.0 -32.0
v 11.4 -67.0 -31.0
v 11.5 -66.0 -32.0
v 12.0 -66.0 -31.4
v 12.0 -66.3 -31.0
v 12.0 -66.3 -30.0
v 12.0 -66.0 -29.7
v 11.2 -65.0 -33.0
v 11.6 -65.0 -32.0
v 12.0 -65.0 -31.6
v 12.0 -65.3 -29.0
v 12.0 -65.0 -28.7
v 11.4 -64.0 -33.0
v 11.7 -64.0 -32.0
v 12.0 -64.0 -31.7
v 12.0 -64.0 -28.5
v 11.4 -63.0 -33.0
v 11.8 -63.0 -32.0
v 12.0 -63.0 -31.7
v 11.2 -63.0 -28.0
v 12.0 -63.0 -28.3
v 11.3 -62.0 -34.0
v 11.7 -62.0 -33.0
v 12.0 -62.0 -32.5
v 12.0 -62.6 -32.0
v 12.0 -62.5 -28.0
v 12.0 -62.0 -27.7
v 11.5 -61.0 -34.0
v 12.0 -61.0 -33.4
v 12.0 -61.5 -33.0
v 12.0 -61.0 -27.6
v 11.6 -60.0 -34.0
v 12.0 -60.0 -33.6
v 11.5 -60.0 -27.0
v 12.0 -60.0 -27.3
v 12.0 -59.0 -34.3
v 12.0 -59.5 -34.0
v 12.0 -59.5 -27.0
v 12.0 -59.0 -26.7
v 11.4 -58.0 -35.0
v 12.0 -58.0 -34.5
v 11.1 -58.0 -26.0
v 12.0 -58.0 -26.3
v 11.6 -57.0 -35.0
v 12.0 -57.0 -34.6
v 12.0 -57.5 -26.0
v 12.0 -57.0 -25.7
v 12.0 -56.0 -35.4
v 12.0 -56.5 -35.0
v 12.0 -56.0 -25.8
v 12.0 -55.0 -36.2
v 12.0 -55.3 -36.0
v 11.5 -55.0 -27.0
v 12.0 -55.0 -26.6
v 12.0 -55.7 -26.0
v 12.0 -54.0 -36.4
v 12.0 -54.6 -27.0
v 12.0 -54.0 -27.4
v 12.0 -53.0 -36.4
v 12.0 -53.0 -27.6
v 12.0 -52.0 -36.5
v 12.0 -52.4 -28.0
v 12.0 -52.0 -28.3
v 12.0 -51.0 -36.5
v 12.0 -51.0 -28.7
v 12.0 -50.0 -36.5
v 11.4 -50.0 -31.0
v 11.8 -50.0 -30.0
v 12.0 -50.0 -29.9
v 12.0 -50.7 -29.0
v 12.0 -49.0 -36.5
v 11.6 -49.0 -32.0
v 12.0 -49.0 -31.6
v 12.0 -49.5 -31.0
v 12.0 -49.9 -30.0
v 12.0 -48.0 -36.4
v 11.6 -48.0 -33.0
v 12.0 -48.0 -32.7
v 12.0 -48.6 -32.0
v 12.0 -47.5 -36.0
v 11.8 -47.0 -35.0
v 12.0 -47.0 -35.3
v 12.0 -47.0 -34.7
v 12.0 -47.3 -34.0
v 12.0 -47.7 -33.0
v 12.0 -46.8 -35.0
v 12.3 -66.0 -31.0
v 12.3 -66.0 -30.0
v 13.0 -65.0 -31.2
v 13.0 -65.3 -31.0
v 13.0 -65.5 -30.0
v 12.4 -65.0 -29.0
v 13.0 -65.0 -29.5
v 13.0 -64.0 -31.4
v 13.0 -64.4 -29.0
v 13.0 -64.0 -28.7
v 13.0 -63.0 -31.3
v 13.0 -63.0 -28.6
v 12.3 -62.0 -32.0
v 13.0 -62.2 -31.0
v 12.9 -62.0 -31.0
v 13.0 -62.0 -30.9
v 12.4 -62.0 -28.0
v 13.0 -62.0 -28.5
v 12.3 -61.0 -33.0
v 12.6 -61.0 -32.0
v 13.0 -61.0 -31.4
v 13.0 -61.8 -31.0
v 12.6 -61.0 -28.0
v 13.0 -61.0 -28.3
v 12.5 -60.0 -33.0
v 12.8 -60.0 -32.0
v 13.0 -60.0 -31.7
v 13.0 -60.5 -28.0
v 13.0 -60.0 -27.7
v 12.3 -59.0 -34.0
v 13.0 -59.0 -33.3
v 13.0 -59.3 -33.0
v 13.0 -59.7 -32.0
v 12.5 -59.0 -27.0
v 13.0 -59.0 -27.4
v 12.5 -58.0 -34.0
v 13.0 -58.0 -33.5
v 13.0 -58.4 -27.0
v 13.0 -58.0 -26.7
v 12.6 -57.0 -34.0
v 13.0 -57.0 -33.6
v 12.3 -57.0 -26.0
v 13.0 -57.0 -26.5
v 12.5 -56.0 -35.0
v 13.0 -56.0 -34.5
v 13.0 -56.6 -34.0
v 12.3 -56.0 -26.0
v 13.0 -56.0 -26.5
v 12.3 -55.0 -36.0
v 13.0 -55.0 -35.4
v 13.0 -55.4 -35.0
v 13.0 -55.0 -26.7
v 12.5 -54.0 -36.0
v 13.0 -54.0 -35.5
v 13.0 -54.7 -27.0
v 13.0 -54.0 -27.5
v 12.6 -53.0 -36.0
v 13.0 -53.0 -35.7
v 13.0 -53.0 -27.6
v 13.0 -52.0 -36.3
v 13.0 -52.5 -36.0
v 12.8 -52.0 -28.0
v 13.0 -52.0 -27.9
v 13.0 -51.0 -36.4
v 12.5 -51.0 -29.0
v 13.0 -51.3 -29.0
v 13.0 -51.0 -29.4
v 13.0 -51.9 -28.0
v 13.0 -50.0 -36.5
v 12.2 -50.0 -30.0
v 13.0 -50.4 -30.0
v 13.0 -50.0 -30.5
v 13.0 -49.0 -36.5
v 13.0 -49.6 -31.0
v 13.0 -49.0 -31.6
v 13.0 -48.0 -36.5
v 13.0 -48.6 -32.0
v 13.0 -48.0 -32.6
v 12.6 -47.0 -36.0
v 13.0 -47.0 -36.2
v 12.7 -47.0 -34.0
v 13.0 -47.0 -33.8
v 13.0 -47.7 -33.0
v 13.0 -46.8 -36.0
v 13.0 -46.6 -35.0
v 13.0 -46.9 -34.0
v 13.3 -65.0 -31.0
v 13.9 -65.0 -30.0
v 13.5 -64.0 -31.0
v 14.0 -64.0 -30.3
v 14.0 -64.9 -30.0
v 13.3 -64.0 -29.0
v 14.0 -64.0 -29.7
v 13.4 -63.0 -31.0
v 14.0 -63.0 -30.3
v 13.5 -63.0 -29.0
v 14.0 -63.0 -29.7
v 14.0 -62.0 -30.3
v 13.6 -62.0 -29.0
v 14.0 -62.0 -29.6
v 13.4 -61.0 -31.0
v 14.0 -61.0 -30.4
v 14.0 -61.4 -29.0
v 14.0 -61.0 -28.7
v 13.6 -60.0 -31.0
v 14.0 -60.0 -30.6
v 13.4 -60.0 -28.0
v 14.0 -60.0 -28.6
v 13.2 -59.0 -33.0
v 13.5 -59.0 -32.0
v 14.0 -59.0 -31.4
v 14.0 -59.5 -31.0
v 13.5 -59.0 -28.0
v 14.0 -59.0 -28.5
v 13.4 -58.0 -33.0
v 13.7 -58.0 -32.0
v 14.0 -58.0 -31.6
v 13.7 -58.0 -28.0
v 14.0 -58.0 -28.4
v 13.3 -58.0 -27.0
v 13.6 -57.0 -33.0
v 14.0 -57.0 -32.5
v 14.0 -57.6 -32.0
v 14.0 -57.5 -28.0
v 14.0 -57.0 -27.6
v 13.5 -57.0 -27.0
v 13.5 -56.0 -34.0
v 14.0 -56.0 -33.4
v 14.0 -56.5 -33.0
v 13.5 -56.0 -27.0
v 14.0 -56.0 -27.5
v 13.4 -55.0 -35.0
v 14.0 -55.0 -34.3
v 14.0 -55.4 -34.0
v 13.3 -55.0 -27.0
v 14.0 -55.0 -27.7
v 13.6 -54.0 -35.0
v 14.0 -54.0 -34.6
v 13.6 -54.0 -28.0
v 14.0 -54.5 -28.0
v 14.0 -54.0 -28.4
v 14.0 -53.0 -35.3
v 14.0 -53.5 -35.0
v 13.4 -53.0 -28.0
v 14.0 -53.0 -28.5
v 13.4 -52.0 -36.0
v 14.0 -52.0 -35.5
v 13.1 -52.0 -28.0
v 14.0 -52.0 -28.7
v 13.6 -51.0 -36.0
v 14.0 -51.0 -35.7
v 14.0 -51.7 -29.0
v 14.0 -51.0 -29.7
v 14.0 -50.0 -36.3
v 14.0 -50.5 -36.0
v 13.5 -50.0 -31.0
v 14.0 -50.3 -31.0
v 14.0 -50.0 -31.4
v 14.0 -50.7 -30.0
v 14.0 -49.0 -36.5
v 13.4 -49.0 -32.0
v 14.0 -49.5 -32.0
v 14.0 -49.0 -32.5
v 14.0 -48.0 -36.5
v 13.4 -48.0 -33.0
v 14.0 -48.5 -33.0
v 14.0 -48.0 -33.5
v 14.0 -47.0 -36.2
v 13.2 -47.0 -34.0
v 14.0 -47.5 -34.0
v 14.0 -47.0 -34.6
v 14.0 -46.8 -36.0
v 14.0 -46.7 -35.0
v 14.2 -64.0 -30.0
v 14.2 -63.0 -30.0
v 14.2 -62.0 -30.0
v 14.3 -61.0 -30.0
v 14.2 -61.0 -29.0
v 14.4 -60.0 -30.0
v 14.4 -60.0 -29.0
v 14.3 -59.0 -31.0
v 14.5 -59.0 -30.0
v 14.4 -59.0 -29.0
v 14.5 -58.0 -31.0
v 14.6 -58.0 -30.0
v 14.4 -58.0 -29.0
v 14.4 -57.0 -32.0
v 15.0 -57.0 -31.3
v 15.0 -57.3 -31.0
v 15.0 -57.3 -30.0
v 15.0 -57.0 -29.7
v 14.6 -57.0 -29.0
v 14.3 -57.0 -28.0
v 14.3 -56.0 -33.0
v 14.7 -56.0 -32.0
v 15.0 -56.0 -31.6
v 14.6 -56.0 -29.0
v 15.0 -56.0 -29.5
v 14.4 -56.0 -28.0
v 14.3 -55.0 -34.0
v 14.6 -55.0 -33.0
v 15.0 -55.0 -32.4
v 15.0 -55.5 -32.0
v 14.6 -55.0 -29.0
v 15.0 -55.0 -29.5
v 14.3 -55.0 -28.0
v 14.5 -54.0 -34.0
v 14.8 -54.0 -33.0
v 15.0 -54.0 -32.7
v 14.5 -54.0 -29.0
v 15.0 -54.0 -29.5
v 14.3 -53.0 -35.0
v 15.0 -53.0 -34.3
v 15.0 -53.3 -34.0
v 15.0 -53.7 -33.0
v 14.5 -53.0 -29.0
v 15.0 -53.0 -29.5
v 14.6 -52.0 -35.0
v 15.0 -52.0 -34.6
v 14.3 -52.0 -29.0
v 15.0 -52.0 -29.7
v 15.0 -51.0 -35.3
v 15.0 -51.5 -35.0
v 14.4 -51.0 -30.0
v 15.0 -51.6 -30.0
v 15.0 -51.0 -30.6
v 14.5 -50.0 -36.0
v 15.0 -50.0 -35.7
v 14.6 -50.0 -32.0
v 15.0 -50.3 -32.0
v 15.0 -50.0 -32.4
v 15.0 -50.7 -31.0
v 15.0 -49.0 -36.3
v 15.0 -49.4 -36.0
v 14.5 -49.0 -33.0
v 15.0 -49.5 -33.0
v 15.0 -49.0 -33.5
v 15.0 -48.0 -36.2
v 14.5 -48.0 -34.0
v 15.0 -48.5 -34.0
v 15.0 -48.0 -34.6
v 15.0 -47.7 -36.0
v 14.2 -47.0 -36.0
v 14.3 -47.0 -35.0
v 15.0 -47.6 -35.0
v 15.2 -57.0 -31.0
v 15.2 -57.0 -30.0
v 15.4 -56.0 -31.0
v 15.4 -56.0 -30.0
v 15.3 -55.0 -32.0
v 15.6 -55.0 -31.0
v 15.4 -55.0 -30.0
v 15.6 -54.0 -32.0
v 16.0 -54.0 -31.2
v 16.0 -54.2 -31.0
v 16.0 -54.0 -30.8
v 15.5 -54.0 -30.0
v 15.2 -53.0 -34.0
v 15.5 -53.0 -33.0
v 16.0 -53.0 -32.3
v 16.0 -53.4 -32.0
v 15.5 -53.0 -30.0
v 16.0 -53.0 -30.7
v 15.5 -52.0 -34.0
v 15.7 -52.0 -33.0
v 16.0 -52.0 -32.5
v 15.7 -52.0 -31.0
v 16.0 -52.6 -31.0
v 16.0 -52.0 -31.5
v 15.3 -52.0 -30.0
v 15.4 -51.0 -35.0
v 16.0 -51.0 -34.4
v 16.0 -51.3 -34.0
v 16.0 -51.5 -33.0
v 15.3 -51.0 -31.0
v 16.0 -51.0 -31.8
v 16.0 -50.0 -35.2
v 16.0 -50.3 -35.0
v 15.5 -50.0 -33.0
v 16.0 -50.6 -33.0
v 16.0 -50.0 -33.6
v 16.0 -50.8 -32.0
v 15.3 -49.0 -36.0
v 16.0 -49.0 -35.1
v 15.5 -49.0 -34.0
v 16.0 -49.6 -34.0
v 16.0 -49.0 -34.8
v 15.2 -48.0 -36.0
v 16.0 -48.9 -35.0
v 15.3 -48.0 -35.0
v 16.1 -54.0 -31.0
v 16.2 -53.0 -32.0
v 16.2 -53.0 -31.0
v 16.3 -52.0 -32.0
v 16.2 -51.0 -34.0
v 16.3 -51.0 -33.0
v 16.2 -51.0 -32.0
v 16.2 -50.0 -35.0
v 16.3 -50.0 -34.0
v 16.1 -49.0 -35.0
f 3 2 1
f 1 4 3
f 1 2 5
f 5 2 6
f 4 1 7
f 1 8 7
f 1 5 8
f 8 9 7
f 6 10 5
f 5 10 8
f 8 10 11
f 8 11 9
f 14 13 12
f 16 15 12
f 12 15 14
f 18 17 16
f 16 17 15
f 18 19 17
f 12 13 20
f 20 13 21
f 20 2 3
f 16 20 3
f 12 20 16
f 16 3 4
f 22 16 4
f 18 16 22
f 19 18 23
f 23 18 22
f 20 21 24
f 24 21 25
f 24 6 2
f 24 2 20
f 7 22 4
f 7 9 22
f 9 23 22
f 9 26 23
f 24 25 27
f 27 25 28
f 29 10 6
f 24 29 6
f 27 29 24
f 30 11 10
f 30 10 29
f 30 31 11
f 31 9 11
f 31 26 9
f 28 32 27
f 34 33 32
f 33 27 32
f 33 29 27
f 29 35 30
f 29 33 35
f 31 30 36
f 30 37 36
f 30 35 37
f 37 38 36
f 33 34 39
f 39 34 40
f 33 41 35
f 33 39 41
f 35 42 37
f 35 41 42
f 38 37 43
f 37 44 43
f 37 42 44
f 44 45 43
f 40 46 39
f 48 47 46
f 47 39 46
f 47 41 39
f 41 49 42
f 41 47 49
f 42 50 44
f 42 49 50
f 45 44 51
f 51 44 50
f 47 48 52
f 52 48 53
f 47 54 49
f 47 52 54
f 49 55 50
f 49 54 55
f 51 50 56
f 56 50 55
f 53 57 52
f 59 58 57
f 58 52 57
f 58 54 52
f 54 60 55
f 54 58 60
f 56 55 61
f 61 55 60
f 59 62 58
f 64 63 62
f 63 58 62
f 63 60 58
f 61 60 65
f 60 66 65
f 60 63 66
f 66 67 65
f 64 68 63
f 63 68 66
f 66 68 69
f 66 69 67
f 72 71 70
f 74 73 70
f 70 73 72
f 74 75 73
f 78 77 76
f 78 76 71
f 71 76 70
f 76 13 70
f 13 14 70
f 70 14 15
f 70 15 74
f 79 75 74
f 15 79 74
f 17 79 15
f 17 19 79
f 79 19 80
f 76 77 81
f 81 77 82
f 81 21 13
f 81 13 76
f 23 80 19
f 23 83 80
f 81 82 84
f 84 82 85
f 84 25 21
f 84 21 81
f 26 83 23
f 26 86 83
f 85 87 84
f 25 84 87
f 88 25 87
f 28 25 88
f 31 90 89
f 86 31 89
f 26 31 86
f 90 91 89
f 32 28 92
f 28 93 92
f 28 88 93
f 92 34 32
f 36 90 31
f 36 38 90
f 38 91 90
f 38 94 91
f 92 93 95
f 95 93 96
f 95 40 34
f 95 34 92
f 97 94 38
f 97 38 43
f 43 45 97
f 97 45 98
f 95 96 99
f 99 96 100
f 101 46 40
f 95 101 40
f 99 101 95
f 101 48 46
f 51 98 45
f 51 102 98
f 99 100 103
f 103 100 104
f 99 105 101
f 99 103 105
f 105 53 48
f 105 48 101
f 56 102 51
f 56 106 102
f 104 107 103
f 109 108 107
f 108 103 107
f 108 105 103
f 110 57 53
f 105 110 53
f 108 110 105
f 110 59 57
f 61 112 111
f 106 61 111
f 56 61 106
f 112 113 111
f 108 109 114
f 114 109 115
f 108 116 110
f 108 114 116
f 117 62 59
f 110 117 59
f 116 117 110
f 117 64 62
f 65 112 61
f 65 67 112
f 67 113 112
f 67 118 113
f 114 115 119
f 119 115 120
f 114 121 116
f 114 119 121
f 116 122 117
f 116 121 122
f 123 68 64
f 117 123 64
f 122 123 117
f 124 69 68
f 124 68 123
f 124 125 69
f 125 67 69
f 125 118 67
f 120 126 119
f 119 126 121
f 121 126 127
f 121 127 122
f 122 127 128
f 130 129 128
f 129 122 128
f 129 123 122
f 123 131 124
f 123 129 131
f 125 124 132
f 132 124 131
f 130 133 129
f 129 133 131
f 131 133 134
f 131 134 132
f 136 135 72
f 72 135 71
f 137 72 73
f 137 136 72
f 73 75 137
f 137 75 138
f 140 139 78
f 78 139 77
f 78 71 135
f 78 135 140
f 141 138 75
f 141 75 79
f 79 80 141
f 141 80 142
f 139 82 77
f 143 82 139
f 83 142 80
f 83 144 142
f 143 85 82
f 145 85 143
f 86 144 83
f 86 146 144
f 87 85 147
f 85 148 147
f 85 145 148
f 147 88 87
f 149 146 86
f 149 86 89
f 89 91 149
f 149 91 150
f 147 148 151
f 151 148 152
f 151 93 88
f 151 88 147
f 94 150 91
f 94 153 150
f 151 152 154
f 154 152 155
f 154 96 93
f 154 93 151
f 94 97 156
f 157 94 156
f 153 94 157
f 98 156 97
f 154 155 158
f 158 155 159
f 158 100 96
f 158 96 154
f 160 157 156
f 156 98 160
f 98 161 160
f 98 102 161
f 158 159 162
f 162 159 163
f 162 104 100
f 162 100 158
f 106 161 102
f 106 164 161
f 162 163 165
f 165 163 166
f 167 107 104
f 162 167 104
f 165 167 162
f 167 109 107
f 106 111 168
f 169 106 168
f 164 106 169
f 113 168 111
f 165 166 170
f 170 166 171
f 165 172 167
f 165 170 172
f 172 115 109
f 172 109 167
f 173 169 168
f 168 113 173
f 113 174 173
f 113 118 174
f 171 175 170
f 177 176 175
f 176 170 175
f 176 172 170
f 176 120 115
f 176 115 172
f 125 174 118
f 125 178 174
f 177 179 176
f 176 179 120
f 179 126 120
f 179 180 126
f 180 182 181
f 127 180 181
f 126 180 127
f 183 128 127
f 183 127 181
f 183 130 128
f 132 178 125
f 132 184 178
f 182 185 181
f 181 185 183
f 183 185 186
f 183 186 130
f 186 133 130
f 186 187 133
f 133 188 134
f 187 188 133
f 132 134 184
f 184 134 188
f 190 189 136
f 136 189 135
f 192 190 191
f 190 137 191
f 190 136 137
f 138 191 137
f 194 193 140
f 140 193 139
f 140 135 189
f 140 189 194
f 195 192 191
f 197 195 196
f 196 195 141
f 195 191 141
f 191 138 141
f 142 196 141
f 193 143 139
f 198 143 193
f 199 197 196
f 196 142 199
f 142 200 199
f 142 144 200
f 198 145 143
f 201 145 198
f 146 200 144
f 146 202 200
f 201 148 145
f 203 148 201
f 146 149 204
f 205 146 204
f 202 146 205
f 150 204 149
f 203 152 148
f 206 152 203
f 207 205 204
f 204 150 207
f 150 208 207
f 150 153 208
f 211 210 209
f 206 211 209
f 155 206 209
f 152 206 155
f 157 208 153
f 157 212 208
f 209 210 213
f 213 210 214
f 213 159 155
f 213 155 209
f 157 160 215
f 216 157 215
f 212 157 216
f 161 215 160
f 213 214 217
f 217 214 218
f 217 163 159
f 217 159 213
f 216 215 219
f 216 219 220
f 164 219 161
f 161 219 215
f 217 218 221
f 221 218 222
f 221 166 163
f 221 163 217
f 223 220 219
f 219 164 223
f 164 224 223
f 164 169 224
f 221 222 225
f 225 222 226
f 225 171 166
f 225 166 221
f 169 173 227
f 228 169 227
f 224 169 228
f 174 227 173
f 226 229 225
f 229 231 230
f 229 230 175
f 225 229 175
f 171 225 175
f 230 177 175
f 228 227 232
f 228 232 233
f 178 232 174
f 174 232 227
f 231 234 230
f 230 234 177
f 234 179 177
f 234 235 179
f 179 236 180
f 235 236 179
f 238 237 182
f 180 238 182
f 236 238 180
f 240 239 237
f 240 237 238
f 242 241 239
f 242 239 240
f 241 242 233
f 232 241 233
f 243 241 232
f 184 243 178
f 178 243 232
f 237 185 182
f 185 237 186
f 186 237 239
f 186 239 187
f 187 239 241
f 187 241 188
f 188 241 243
f 188 243 184
f 244 189 190
f 192 244 190
f 245 193 194
f 246 245 194
f 246 194 189
f 247 246 189
f 244 247 189
f 247 244 192
f 195 247 192
f 248 247 195
f 195 197 248
f 248 197 249
f 250 198 245
f 245 198 193
f 245 246 251
f 245 251 250
f 252 249 197
f 252 197 199
f 199 200 252
f 252 200 253
f 255 254 250
f 254 198 250
f 254 201 198
f 255 250 251
f 202 253 200
f 202 256 253
f 258 203 257
f 203 254 257
f 203 201 254
f 259 258 257
f 205 256 202
f 205 260 256
f 262 261 258
f 261 203 258
f 261 206 203
f 262 258 259
f 205 207 263
f 264 205 263
f 260 205 264
f 208 263 207
f 266 265 211
f 211 265 210
f 211 206 261
f 211 261 266
f 264 263 267
f 264 267 268
f 212 267 208
f 208 267 263
f 265 214 210
f 269 214 265
f 270 268 267
f 267 212 270
f 212 271 270
f 212 216 271
f 269 218 214
f 272 218 269
f 220 271 216
f 220 273 271
f 276 275 274
f 272 276 274
f 222 272 274
f 218 272 222
f 220 223 277
f 278 220 277
f 273 220 278
f 224 277 223
f 274 275 279
f 279 275 280
f 279 226 222
f 279 222 274
f 281 278 277
f 277 224 281
f 224 282 281
f 224 228 282
f 279 280 283
f 283 280 284
f 285 229 226
f 279 285 226
f 283 285 279
f 285 231 229
f 233 282 228
f 233 286 282
f 284 287 283
f 289 288 287
f 288 283 287
f 288 285 283
f 290 234 231
f 285 290 231
f 288 290 285
f 234 290 291
f 292 234 291
f 235 234 292
f 235 293 236
f 292 293 235
f 236 294 238
f 293 294 236
f 238 295 240
f 294 295 238
f 240 296 242
f 295 296 240
f 233 242 286
f 286 242 296
f 289 297 288
f 288 297 290
f 290 297 298
f 290 298 291
f 301 300 299
f 299 302 301
f 299 300 303
f 303 300 304
f 302 299 305
f 305 299 303
f 303 304 306
f 306 304 307
f 305 303 308
f 308 303 306
f 307 309 306
f 306 309 308
f 310 246 247
f 248 311 247
f 247 311 310
f 249 311 248
f 313 312 310
f 312 246 310
f 312 251 246
f 313 310 311
f 313 311 314
f 316 314 315
f 315 314 252
f 314 311 252
f 311 249 252
f 253 315 252
f 317 254 255
f 318 317 255
f 251 318 255
f 312 318 251
f 319 316 315
f 315 253 319
f 253 320 319
f 253 256 320
f 317 257 254
f 259 257 317
f 318 259 317
f 321 259 318
f 260 320 256
f 260 322 320
f 324 323 262
f 262 323 261
f 262 259 321
f 262 321 324
f 264 322 260
f 264 325 322
f 326 265 266
f 327 326 266
f 261 327 266
f 323 327 261
f 268 325 264
f 268 328 325
f 330 329 326
f 329 265 326
f 329 269 265
f 330 326 327
f 268 270 331
f 332 268 331
f 328 268 332
f 271 331 270
f 329 272 269
f 333 272 329
f 334 332 331
f 331 271 334
f 271 335 334
f 271 273 335
f 337 336 276
f 276 336 275
f 276 272 333
f 276 333 337
f 278 335 273
f 278 338 335
f 336 280 275
f 339 280 336
f 278 281 340
f 341 278 340
f 338 278 341
f 282 340 281
f 339 284 280
f 342 284 339
f 343 341 340
f 340 282 343
f 282 344 343
f 282 286 344
f 287 284 345
f 284 346 345
f 284 342 346
f 345 289 287
f 291 347 292
f 348 293 292
f 348 292 347
f 349 294 293
f 349 293 348
f 350 295 294
f 350 294 349
f 351 296 295
f 351 295 350
f 351 352 296
f 352 286 296
f 352 344 286
f 345 346 353
f 353 346 354
f 355 297 289
f 345 355 289
f 353 355 345
f 356 298 297
f 356 297 355
f 347 291 298
f 356 347 298
f 357 347 356
f 347 358 348
f 347 357 358
f 360 349 359
f 349 358 359
f 349 348 358
f 349 360 350
f 350 360 361
f 350 361 351
f 351 361 362
f 351 362 352
f 354 363 353
f 365 364 363
f 364 353 363
f 364 355 353
f 355 366 356
f 355 364 366
f 356 367 357
f 356 366 367
f 369 358 368
f 358 367 368
f 358 357 367
f 358 369 359
f 365 370 364
f 372 371 370
f 371 364 370
f 371 366 364
f 374 367 373
f 367 371 373
f 367 366 371
f 367 374 368
f 371 372 375
f 375 372 376
f 373 371 377
f 377 371 375
f 380 379 378
f 380 378 376
f 376 378 375
f 378 300 375
f 300 301 375
f 301 302 375
f 302 377 375
f 302 381 377
f 378 379 382
f 382 379 383
f 382 304 300
f 382 300 378
f 305 381 302
f 305 384 381
f 382 383 385
f 385 383 386
f 385 307 304
f 385 304 382
f 308 384 305
f 308 387 384
f 385 386 388
f 388 386 389
f 390 309 307
f 385 390 307
f 388 390 385
f 390 391 309
f 391 308 309
f 391 387 308
f 389 392 388
f 388 392 390
f 390 392 393
f 390 393 391
f 394 312 313
f 314 395 313
f 313 395 394
f 316 395 314
f 397 396 394
f 396 312 394
f 396 318 312
f 397 394 395
f 397 395 398
f 398 395 316
f 319 398 316
f 399 398 319
f 319 320 399
f 399 320 400
f 396 321 318
f 401 321 396
f 322 400 320
f 322 402 400
f 404 403 324
f 324 403 323
f 324 321 401
f 324 401 404
f 325 406 405
f 402 325 405
f 322 325 402
f 406 407 405
f 403 327 323
f 408 327 403
f 328 409 406
f 328 406 325
f 407 406 410
f 410 406 409
f 412 411 330
f 330 411 329
f 330 327 408
f 330 408 412
f 332 413 409
f 332 409 328
f 410 409 414
f 414 409 413
f 411 333 329
f 415 333 411
f 334 413 332
f 334 335 413
f 335 414 413
f 335 416 414
f 417 336 337
f 418 417 337
f 333 418 337
f 415 418 333
f 338 420 419
f 416 338 419
f 335 338 416
f 420 421 419
f 423 422 417
f 422 336 417
f 422 339 336
f 423 417 418
f 425 424 420
f 338 425 420
f 341 425 338
f 420 424 421
f 422 342 339
f 426 342 422
f 427 425 341
f 427 341 343
f 429 428 344
f 428 343 344
f 428 427 343
f 429 430 428
f 426 346 342
f 431 346 426
f 352 432 429
f 352 429 344
f 430 429 433
f 433 429 432
f 431 354 346
f 434 354 431
f 359 435 360
f 436 361 360
f 436 360 435
f 437 362 361
f 437 361 436
f 437 438 362
f 362 438 352
f 438 439 352
f 439 432 352
f 432 439 433
f 363 354 440
f 354 441 440
f 354 434 441
f 440 365 363
f 368 442 369
f 435 359 369
f 442 435 369
f 443 435 442
f 445 436 444
f 436 443 444
f 436 435 443
f 436 445 437
f 437 445 446
f 437 446 438
f 440 441 447
f 447 441 448
f 449 370 365
f 440 449 365
f 447 449 440
f 449 372 370
f 373 450 374
f 442 368 374
f 450 442 374
f 451 442 450
f 453 443 452
f 443 451 452
f 443 442 451
f 443 453 444
f 447 448 454
f 454 448 455
f 447 456 449
f 447 454 456
f 456 376 372
f 456 372 449
f 377 457 450
f 377 450 373
f 450 458 451
f 450 457 458
f 452 451 459
f 459 451 458
f 462 461 460
f 462 460 455
f 460 454 455
f 460 463 454
f 463 379 380
f 456 463 380
f 454 463 456
f 456 380 376
f 381 464 457
f 381 457 377
f 466 458 465
f 458 464 465
f 458 457 464
f 458 466 459
f 460 461 467
f 467 461 468
f 460 469 463
f 460 467 469
f 469 383 379
f 469 379 463
f 384 470 464
f 384 464 381
f 465 464 471
f 471 464 470
f 467 468 472
f 472 468 473
f 467 474 469
f 467 472 474
f 474 386 383
f 474 383 469
f 387 475 470
f 387 470 384
f 471 470 476
f 476 470 475
f 472 473 477
f 477 473 478
f 472 479 474
f 472 477 479
f 479 389 386
f 479 386 474
f 391 480 475
f 391 475 387
f 476 475 481
f 481 475 480
f 477 478 482
f 482 478 483
f 477 484 479
f 477 482 484
f 485 392 389
f 479 485 389
f 484 485 479
f 486 393 392
f 486 392 485
f 486 487 393
f 393 487 391
f 487 488 391
f 488 480 391
f 480 488 481
f 483 489 482
f 491 490 489
f 490 482 489
f 490 484 482
f 484 492 485
f 484 490 492
f 494 486 493
f 486 492 493
f 486 485 492
f 486 494 487
f 491 495 490
f 490 495 492
f 492 495 496
f 492 496 493
f 497 396 397
f 398 498 397
f 397 498 497
f 399 499 398
f 398 499 498
f 400 499 399
f 501 500 497
f 500 396 497
f 500 401 396
f 501 497 498
f 501 498 502
f 504 503 502
f 498 504 502
f 499 504 498
f 402 504 400
f 400 504 499
f 505 403 404
f 506 505 404
f 401 506 404
f 500 506 401
f 507 503 504
f 509 507 508
f 508 507 405
f 507 504 405
f 504 402 405
f 407 508 405
f 511 510 505
f 510 403 505
f 510 408 403
f 511 505 506
f 512 509 508
f 508 407 512
f 407 513 512
f 407 410 513
f 514 411 412
f 515 514 412
f 408 515 412
f 510 515 408
f 414 513 410
f 414 516 513
f 517 415 514
f 514 415 411
f 514 515 518
f 514 518 517
f 416 520 519
f 516 416 519
f 414 416 516
f 520 521 519
f 523 522 517
f 522 415 517
f 522 418 415
f 523 517 518
f 419 520 416
f 419 421 520
f 421 521 520
f 421 524 521
f 525 422 423
f 526 525 423
f 418 526 423
f 522 526 418
f 425 527 424
f 527 528 424
f 528 421 424
f 528 524 421
f 529 426 525
f 525 426 422
f 525 526 530
f 525 530 529
f 427 527 425
f 531 528 527
f 427 531 527
f 428 531 427
f 428 430 531
f 531 430 532
f 533 431 529
f 529 431 426
f 529 530 534
f 529 534 533
f 433 532 430
f 433 535 532
f 537 536 533
f 536 431 533
f 536 434 431
f 537 533 534
f 438 538 439
f 535 433 539
f 433 538 539
f 538 540 539
f 433 439 538
f 540 541 539
f 536 441 434
f 542 441 536
f 444 543 445
f 544 446 445
f 544 445 543
f 538 438 446
f 544 538 446
f 545 538 544
f 538 546 540
f 538 545 546
f 541 540 547
f 547 540 546
f 542 448 441
f 548 448 542
f 452 549 453
f 543 444 453
f 549 543 453
f 550 543 549
f 543 551 544
f 543 550 551
f 544 552 545
f 544 551 552
f 545 553 546
f 545 552 553
f 547 546 554
f 554 546 553
f 557 556 555
f 548 557 555
f 455 548 555
f 448 548 455
f 459 558 549
f 459 549 452
f 549 559 550
f 549 558 559
f 550 560 551
f 550 559 560
f 562 552 561
f 552 560 561
f 552 551 560
f 552 562 553
f 553 562 563
f 553 563 554
f 555 556 462
f 556 461 462
f 556 564 461
f 555 462 455
f 465 565 466
f 558 459 466
f 565 558 466
f 566 558 565
f 558 567 559
f 558 566 567
f 559 568 560
f 559 567 568
f 561 560 569
f 569 560 568
f 564 468 461
f 570 468 564
f 471 571 565
f 471 565 465
f 565 572 566
f 565 571 572
f 566 573 567
f 566 572 573
f 567 574 568
f 567 573 574
f 569 568 575
f 575 568 574
f 570 473 468
f 576 473 570
f 476 577 571
f 476 571 471
f 571 578 572
f 571 577 578
f 572 579 573
f 572 578 579
f 581 574 580
f 574 579 580
f 574 573 579
f 574 581 575
f 576 478 473
f 582 478 576
f 481 583 577
f 481 577 476
f 577 584 578
f 577 583 584
f 578 585 579
f 578 584 585
f 580 579 586
f 586 579 585
f 582 483 478
f 587 483 582
f 487 588 488
f 588 589 488
f 488 589 481
f 589 590 481
f 590 583 481
f 583 590 584
f 584 590 591
f 584 591 585
f 585 591 592
f 585 592 586
f 489 483 593
f 483 594 593
f 483 587 594
f 593 491 489
f 493 595 494
f 595 596 494
f 494 596 487
f 596 597 487
f 597 588 487
f 588 597 589
f 593 594 598
f 598 594 599
f 600 495 491
f 593 600 491
f 598 600 593
f 601 496 495
f 601 495 600
f 601 602 496
f 496 602 493
f 602 603 493
f 603 595 493
f 595 603 596
f 599 604 598
f 598 604 600
f 600 604 605
f 600 605 601
f 601 605 606
f 601 606 602
f 607 500 501
f 502 608 501
f 501 608 607
f 503 608 502
f 609 506 607
f 607 506 500
f 608 611 610
f 609 608 610
f 607 608 609
f 611 608 503
f 507 611 503
f 612 611 507
f 507 509 612
f 612 509 613
f 614 510 511
f 506 609 511
f 609 614 511
f 609 615 614
f 609 610 616
f 609 616 615
f 617 613 509
f 617 509 512
f 512 513 617
f 617 513 618
f 619 515 614
f 614 515 510
f 620 614 615
f 619 614 620
f 615 616 621
f 615 621 620
f 516 618 513
f 516 622 618
f 623 518 619
f 619 518 515
f 624 619 620
f 623 619 624
f 620 621 625
f 620 625 624
f 516 519 626
f 627 516 626
f 622 516 627
f 521 626 519
f 628 522 523
f 518 623 523
f 623 628 523
f 623 629 628
f 624 631 630
f 629 624 630
f 623 624 629
f 631 624 625
f 632 627 626
f 626 521 632
f 521 633 632
f 521 524 633
f 634 526 628
f 628 526 522
f 629 636 635
f 634 629 635
f 628 629 634
f 636 629 630
f 528 633 524
f 528 637 633
f 638 530 634
f 634 530 526
f 634 635 639
f 634 639 638
f 528 531 640
f 641 528 640
f 637 528 641
f 532 640 531
f 643 642 638
f 642 530 638
f 642 534 530
f 643 638 639
f 644 641 640
f 640 532 644
f 532 645 644
f 532 535 645
f 646 536 537
f 647 646 537
f 534 647 537
f 642 647 534
f 535 539 648
f 649 535 648
f 645 535 649
f 541 648 539
f 650 542 646
f 646 542 536
f 646 647 651
f 646 651 650
f 652 649 648
f 648 541 652
f 541 653 652
f 541 547 653
f 655 654 650
f 654 542 650
f 654 548 542
f 655 650 651
f 554 653 547
f 554 656 653
f 658 657 557
f 557 657 556
f 557 548 654
f 557 654 658
f 561 659 562
f 562 659 660
f 661 562 660
f 563 562 661
f 554 563 656
f 656 563 661
f 657 564 556
f 662 564 657
f 664 663 659
f 561 664 659
f 569 664 561
f 659 663 660
f 662 570 564
f 665 570 662
f 575 664 569
f 575 666 664
f 665 576 570
f 667 576 665
f 669 668 581
f 669 581 580
f 575 581 666
f 666 581 668
f 667 582 576
f 670 582 667
f 586 669 580
f 586 671 669
f 670 587 582
f 672 587 670
f 589 673 590
f 674 591 590
f 674 590 673
f 591 674 675
f 676 591 675
f 592 591 676
f 586 592 671
f 671 592 676
f 672 594 587
f 677 594 672
f 596 678 597
f 678 679 597
f 597 679 589
f 679 680 589
f 680 673 589
f 673 680 674
f 674 680 681
f 674 681 675
f 677 599 594
f 682 599 677
f 602 683 603
f 683 684 603
f 603 684 596
f 684 685 596
f 685 678 596
f 678 685 679
f 682 686 599
f 599 686 604
f 686 688 687
f 605 686 687
f 604 686 605
f 605 687 689
f 690 605 689
f 606 605 690
f 602 606 683
f 606 691 683
f 606 690 691
f 683 691 684
f 688 692 687
f 687 692 689
f 693 610 611
f 612 694 611
f 611 694 693
f 613 694 612
f 696 695 693
f 695 610 693
f 695 616 610
f 696 693 694
f 696 694 697
f 699 697 698
f 698 697 617
f 697 694 617
f 694 613 617
f 618 698 617
f 695 621 616
f 700 621 695
f 701 699 698
f 698 618 701
f 618 702 701
f 618 622 702
f 700 625 621
f 703 625 700
f 627 702 622
f 627 704 702
f 705 630 631
f 625 703 706
f 705 625 706
f 707 705 706
f 631 625 705
f 708 707 706
f 627 632 709
f 710 627 709
f 704 627 710
f 633 709 632
f 711 635 636
f 630 705 636
f 705 711 636
f 705 712 711
f 707 714 713
f 712 707 713
f 705 707 712
f 714 707 708
f 710 709 715
f 710 715 716
f 637 715 633
f 633 715 709
f 717 639 711
f 711 639 635
f 718 711 712
f 717 711 718
f 712 713 719
f 712 719 718
f 720 716 715
f 715 637 720
f 637 721 720
f 637 641 721
f 722 642 643
f 723 722 643
f 723 643 639
f 724 723 639
f 717 724 639
f 724 717 718
f 724 718 725
f 725 718 719
f 641 644 726
f 727 641 726
f 721 641 727
f 645 726 644
f 728 647 722
f 722 647 642
f 722 723 729
f 722 729 728
f 730 727 726
f 726 645 730
f 645 731 730
f 645 649 731
f 732 651 728
f 728 651 647
f 728 729 733
f 728 733 732
f 649 652 734
f 735 649 734
f 731 649 735
f 653 734 652
f 736 654 655
f 737 736 655
f 737 655 651
f 738 737 651
f 732 738 651
f 738 732 733
f 735 734 739
f 735 739 740
f 656 739 653
f 653 739 734
f 741 657 658
f 742 741 658
f 742 658 654
f 743 742 654
f 736 743 654
f 743 736 737
f 740 739 661
f 660 740 661
f 744 740 660
f 661 739 656
f 745 662 741
f 741 662 657
f 741 742 746
f 741 746 745
f 748 747 663
f 748 663 664
f 660 663 744
f 744 663 747
f 749 665 745
f 745 665 662
f 745 746 750
f 745 750 749
f 666 748 664
f 666 751 748
f 753 752 749
f 752 665 749
f 752 667 665
f 753 749 750
f 669 754 668
f 754 755 668
f 755 666 668
f 755 751 666
f 752 670 667
f 756 670 752
f 759 758 757
f 758 760 754
f 671 758 754
f 669 671 754
f 757 758 671
f 754 760 755
f 756 672 670
f 761 672 756
f 764 763 762
f 762 763 759
f 762 759 757
f 675 762 757
f 676 675 757
f 676 757 671
f 761 677 672
f 765 677 761
f 767 766 680
f 767 680 679
f 762 681 764
f 681 766 764
f 681 680 766
f 681 762 675
f 765 682 677
f 768 682 765
f 770 769 685
f 770 685 684
f 679 685 767
f 767 685 769
f 686 682 771
f 682 772 771
f 682 768 772
f 771 688 686
f 689 773 690
f 690 773 774
f 775 690 774
f 691 690 775
f 684 691 770
f 770 691 775
f 772 776 771
f 771 776 688
f 776 692 688
f 776 777 692
f 689 692 773
f 692 778 773
f 692 777 778
f 773 778 774
f 779 695 696
f 697 780 696
f 696 780 779
f 699 780 697
f 781 700 779
f 779 700 695
f 780 783 782
f 781 780 782
f 779 780 781
f 785 783 784
f 784 783 701
f 783 780 701
f 780 699 701
f 702 784 701
f 786 703 781
f 781 703 700
f 781 782 787
f 781 787 786
f 785 784 788
f 785 788 789
f 704 788 702
f 702 788 784
f 786 706 703
f 708 706 786
f 787 708 786
f 790 708 787
f 789 788 791
f 789 791 792
f 710 791 704
f 704 791 788
f 793 713 714
f 794 793 714
f 708 794 714
f 790 794 708
f 795 792 791
f 791 710 795
f 710 796 795
f 710 716 796
f 797 719 793
f 793 719 713
f 793 794 798
f 793 798 797
f 716 720 799
f 800 716 799
f 796 716 800
f 721 799 720
f 801 723 724
f 725 802 724
f 724 802 801
f 803 802 725
f 803 725 719
f 804 803 719
f 797 804 719
f 804 797 798
f 800 799 805
f 800 805 806
f 727 805 721
f 721 805 799
f 807 729 801
f 801 729 723
f 808 801 802
f 807 801 808
f 802 803 809
f 802 809 808
f 806 805 810
f 806 810 811
f 730 812 727
f 812 805 727
f 812 810 805
f 731 812 730
f 813 733 807
f 807 733 729
f 808 815 814
f 813 808 814
f 807 808 813
f 815 808 809
f 816 811 810
f 818 817 816
f 810 818 816
f 812 818 810
f 735 818 731
f 731 818 812
f 819 737 738
f 820 819 738
f 820 738 733
f 821 820 733
f 813 821 733
f 821 813 814
f 817 818 822
f 817 822 823
f 740 822 735
f 735 822 818
f 824 742 743
f 825 824 743
f 825 743 737
f 826 825 737
f 819 826 737
f 826 819 820
f 823 822 827
f 823 827 828
f 744 827 740
f 740 827 822
f 829 746 824
f 824 746 742
f 824 825 830
f 824 830 829
f 833 832 831
f 831 832 828
f 831 828 827
f 748 831 827
f 747 748 827
f 747 827 744
f 835 834 829
f 834 746 829
f 834 750 746
f 835 829 830
f 833 831 836
f 833 836 837
f 751 836 748
f 748 836 831
f 838 752 753
f 839 838 753
f 750 839 753
f 834 839 750
f 837 836 840
f 837 840 841
f 755 840 751
f 751 840 836
f 842 756 838
f 838 756 752
f 838 839 843
f 838 843 842
f 845 844 758
f 845 758 759
f 840 760 841
f 760 844 841
f 760 758 844
f 760 840 755
f 847 846 842
f 846 756 842
f 846 761 756
f 847 842 843
f 850 849 848
f 763 764 848
f 849 763 848
f 851 763 849
f 759 763 845
f 845 763 851
f 846 765 761
f 852 765 846
f 855 854 853
f 853 854 850
f 853 850 848
f 767 853 848
f 766 767 848
f 766 848 764
f 852 768 765
f 856 768 852
f 859 858 857
f 857 858 855
f 857 855 853
f 770 857 853
f 769 770 853
f 769 853 767
f 856 772 768
f 860 772 856
f 863 862 861
f 861 862 859
f 861 859 857
f 774 861 857
f 775 774 857
f 775 857 770
f 860 864 772
f 772 864 776
f 776 865 777
f 864 865 776
f 861 778 863
f 778 865 863
f 778 777 865
f 778 861 774
f 866 782 783
f 785 866 783
f 867 787 866
f 866 787 782
f 789 867 785
f 785 867 866
f 868 790 867
f 867 790 787
f 792 868 789
f 789 868 867
f 869 794 868
f 868 794 790
f 795 870 792
f 870 868 792
f 870 869 868
f 796 870 795
f 871 798 869
f 869 798 794
f 872 869 870
f 871 869 872
f 800 872 796
f 796 872 870
f 873 803 804
f 798 871 804
f 871 873 804
f 871 874 873
f 875 871 872
f 874 871 875
f 806 875 800
f 800 875 872
f 876 809 873
f 873 809 803
f 877 873 874
f 876 873 877
f 878 874 875
f 877 874 878
f 811 878 806
f 806 878 875
f 879 814 815
f 880 879 815
f 880 815 809
f 881 880 809
f 876 881 809
f 881 876 877
f 881 877 882
f 884 883 882
f 877 884 882
f 878 884 877
f 816 885 811
f 885 878 811
f 885 884 878
f 817 885 816
f 886 820 821
f 814 879 821
f 879 886 821
f 879 887 886
f 879 880 888
f 879 888 887
f 883 884 889
f 883 889 890
f 891 884 885
f 889 884 891
f 823 891 817
f 817 891 885
f 892 825 826
f 820 886 826
f 886 892 826
f 886 893 892
f 887 895 894
f 893 887 894
f 886 887 893
f 895 887 888
f 890 889 896
f 890 896 897
f 898 889 891
f 896 889 898
f 828 898 823
f 823 898 891
f 899 830 892
f 892 830 825
f 900 892 893
f 899 892 900
f 893 894 901
f 893 901 900
f 897 896 902
f 897 902 903
f 833 902 832
f 902 898 832
f 902 896 898
f 832 898 828
f 904 834 835
f 905 904 835
f 905 835 830
f 906 905 830
f 899 906 830
f 906 899 900
f 906 900 907
f 907 900 901
f 903 902 908
f 903 908 909
f 837 908 833
f 833 908 902
f 910 839 904
f 904 839 834
f 904 905 911
f 904 911 910
f 909 908 912
f 909 912 913
f 841 912 837
f 837 912 908
f 915 914 910
f 914 839 910
f 914 843 839
f 915 910 911
f 918 917 916
f 916 917 913
f 916 913 912
f 845 916 912
f 844 845 912
f 844 912 841
f 919 846 847
f 920 919 847
f 843 920 847
f 914 920 843
f 923 922 921
f 849 850 921
f 922 849 921
f 924 849 922
f 916 851 918
f 851 924 918
f 851 849 924
f 851 916 845
f 926 925 919
f 925 846 919
f 925 852 846
f 926 919 920
f 929 928 927
f 927 928 923
f 927 923 921
f 855 927 921
f 854 855 921
f 854 921 850
f 925 856 852
f 930 856 925
f 933 932 931
f 931 932 929
f 931 929 927
f 859 931 927
f 858 859 927
f 858 927 855
f 935 860 934
f 860 930 934
f 860 856 930
f 937 936 935
f 937 935 934
f 936 937 933
f 936 933 931
f 863 936 931
f 862 863 931
f 862 931 859
f 935 864 860
f 864 935 865
f 865 935 936
f 865 936 863
f 938 880 881
f 882 939 881
f 881 939 938
f 883 939 882
f 940 888 938
f 938 888 880
f 941 938 939
f 940 938 941
f 890 941 883
f 883 941 939
f 942 894 895
f 888 940 895
f 940 942 895
f 940 943 942
f 944 940 941
f 943 940 944
f 897 944 890
f 890 944 941
f 945 901 942
f 942 901 894
f 943 947 946
f 945 943 946
f 942 943 945
f 949 948 947
f 943 949 947
f 944 949 943
f 903 949 897
f 897 949 944
f 950 905 906
f 907 951 906
f 906 951 950
f 952 951 907
f 952 907 901
f 953 952 901
f 945 953 901
f 953 945 946
f 948 949 954
f 948 954 955
f 909 954 903
f 903 954 949
f 956 911 950
f 950 911 905
f 957 950 951
f 956 950 957
f 951 952 958
f 951 958 957
f 961 960 959
f 959 960 955
f 954 959 955
f 962 959 954
f 913 962 909
f 909 962 954
f 963 914 915
f 964 963 915
f 964 915 911
f 965 964 911
f 956 965 911
f 965 956 957
f 965 957 966
f 966 957 958
f 961 959 967
f 961 967 968
f 918 967 917
f 967 962 917
f 967 959 962
f 917 962 913
f 970 969 963
f 969 914 963
f 969 920 914
f 970 963 964
f 973 972 971
f 922 923 971
f 972 922 971
f 974 922 972
f 967 924 968
f 924 974 968
f 924 922 974
f 924 967 918
f 975 925 926
f 976 975 926
f 920 976 926
f 969 976 920
f 979 978 977
f 977 978 973
f 977 973 971
f 929 977 971
f 928 929 971
f 928 971 923
f 980 930 975
f 975 930 925
f 975 976 981
f 982 975 981
f 980 975 982
f 982 981 979
f 982 979 977
f 933 982 977
f 932 933 977
f 932 977 929
f 980 934 930
f 934 980 937
f 937 980 982
f 937 982 933
f 983 946 947
f 948 983 947
f 984 952 953
f 946 983 953
f 983 984 953
f 983 985 984
f 955 985 948
f 948 985 983
f 986 958 984
f 984 958 952
f 961 986 960
f 986 985 960
f 986 984 985
f 960 985 955
f 987 964 965
f 966 988 965
f 965 988 987
f 958 986 966
f 986 988 966
f 986 989 988
f 968 989 961
f 961 989 986
f 990 969 970
f 964 987 970
f 987 990 970
f 987 991 990
f 973 991 972
f 991 988 972
f 991 987 988
f 972 988 974
f 974 988 989
f 974 989 968
f 992 976 990
f 990 976 969
f 979 992 978
f 992 991 978
f 992 990 991
f 978 991 973
f 992 981 976
f 981 992 979
