v -36.1 15.0 -13.0
v -36.0 15.0 -13.1
v -36.0 14.9 -13.0
v -36.0 15.0 -12.9
v -36.3 16.0 -13.0
v -36.0 16.0 -13.7
v -36.0 15.8 -12.0
v -36.1 16.0 -12.0
v -36.0 16.0 -11.8
v -36.0 16.3 -13.0
v -36.0 16.2 -12.0
v -35.2 15.0 -14.0
v -35.0 15.0 -14.2
v -35.0 14.8 -14.0
v -35.0 14.4 -13.0
v -35.0 14.6 -12.0
v -35.4 15.0 -12.0
v -35.0 15.0 -11.6
v -35.0 15.4 -14.0
v -35.0 16.0 -13.7
v -35.0 15.9 -11.0
v -35.1 16.0 -11.0
v -35.0 16.0 -10.9
v -35.0 16.5 -13.0
v -35.0 16.9 -12.0
v -35.0 16.2 -11.0
v -34.0 13.0 -19.0
v -34.0 13.0 -19.0
v -34.0 13.0 -19.0
v -34.0 12.7 -18.0
v -34.2 13.0 -18.0
v -34.0 12.7 -17.0
v -34.3 13.0 -17.0
v -34.0 12.7 -16.0
v -34.3 13.0 -16.0
v -34.0 13.0 -15.5
v -34.0 13.0 -19.0
v -34.0 13.3 -18.0
v -34.0 13.5 -17.0
v -34.8 14.0 -16.0
v -34.0 14.0 -16.7
v -34.0 13.5 -15.0
v -34.4 14.0 -15.0
v -34.0 13.5 -14.0
v -34.5 14.0 -14.0
v -34.0 13.5 -13.0
v -34.5 14.0 -13.0
v -34.0 13.7 -12.0
v -34.3 14.0 -12.0
v -34.0 14.0 -11.7
v -34.3 15.0 -16.0
v -34.0 15.0 -16.4
v -34.0 15.0 -15.1
v -34.0 14.9 -15.0
v -34.0 15.0 -15.0
v -34.0 15.0 -11.3
v -34.1 16.0 -16.0
v -34.0 16.0 -16.1
v -34.0 16.0 -15.8
v -34.6 16.0 -14.0
v -34.0 16.0 -14.5
v -34.0 15.4 -11.0
v -34.0 16.0 -10.6
v -34.0 16.1 -16.0
v -34.0 16.3 -14.0
v -34.0 16.6 -13.0
v -34.0 16.7 -12.0
v -34.0 16.6 -11.0
v -34.2 17.0 -10.0
v -34.0 17.0 -10.3
v -34.0 16.8 -10.0
v -34.0 17.0 -9.8
v -34.4 18.0 -10.0
v -34.0 18.0 -10.2
v -34.0 18.0 -9.8
v -34.0 18.1 -10.0
v -33.2 12.0 -20.0
v -33.0 12.0 -20.9
v -33.0 11.8 -20.0
v -33.0 11.6 -19.0
v -33.4 12.0 -19.0
v -33.0 11.6 -18.0
v -33.5 12.0 -18.0
v -33.0 11.5 -17.0
v -33.5 12.0 -17.0
v -33.0 11.7 -16.0
v -33.3 12.0 -16.0
v -33.0 12.0 -15.5
v -33.0 12.5 -20.0
v -33.0 13.0 -19.7
v -33.0 12.4 -15.0
v -33.6 13.0 -15.0
v -33.0 12.5 -14.0
v -33.5 13.0 -14.0
v -33.0 12.6 -13.0
v -33.4 13.0 -13.0
v -33.0 13.0 -12.3
v -33.1 13.0 -11.0
v -33.0 13.0 -11.3
v -33.0 12.9 -11.0
v -33.0 13.0 -10.9
v -33.3 14.0 -19.0
v -33.0 14.0 -19.3
v -33.5 14.0 -18.0
v -33.8 14.0 -17.0
v -33.0 13.2 -12.0
v -33.5 14.0 -11.0
v -33.0 14.0 -10.5
v -33.0 14.3 -19.0
v -33.0 14.6 -18.0
v -33.5 15.0 -17.0
v -33.0 15.0 -17.6
v -34.0 15.0 -15.0
v -33.7 15.0 -11.0
v -33.0 15.0 -10.3
v -33.5 16.0 -17.0
v -33.0 16.0 -17.6
v -33.6 16.0 -15.0
v -33.0 15.4 -10.0
v -33.5 16.0 -10.0
v -33.0 16.0 -9.5
v -33.2 17.0 -18.0
v -33.0 17.0 -18.3
v -33.0 16.6 -18.0
v -33.5 17.0 -17.0
v -33.5 17.0 -16.0
v -33.0 17.0 -15.4
v -33.0 16.6 -15.0
v -33.0 16.6 -14.0
v -33.4 17.0 -13.0
v -33.0 17.0 -13.4
v -33.6 17.0 -12.0
v -33.7 17.0 -11.0
v -33.0 16.6 -9.0
v -33.3 17.0 -9.0
v -33.0 17.0 -8.7
v -33.4 18.0 -18.0
v -33.0 18.0 -18.4
v -33.5 18.0 -17.0
v -33.4 18.0 -16.0
v -33.0 18.0 -15.6
v -33.0 17.3 -13.0
v -33.0 17.4 -12.0
v -33.0 17.6 -11.0
v -33.0 18.0 -10.5
v -33.4 18.0 -9.0
v -33.0 18.0 -8.7
v -33.2 19.0 -18.0
v -33.0 19.0 -18.3
v -33.5 19.0 -17.0
v -33.4 19.0 -16.0
v -33.0 19.0 -15.6
v -33.0 18.3 -10.0
v -33.0 18.7 -9.0
v -33.0 19.4 -18.0
v -33.3 20.0 -17.0
v -33.0 20.0 -17.4
v -33.2 20.0 -16.0
v -33.0 20.0 -15.7
v -33.0 20.4 -17.0
v -33.0 20.3 -16.0
v -32.0 11.0 -23.0
v -32.0 11.0 -23.0
v -32.0 11.0 -23.0
v -32.0 11.0 -23.0
v -32.2 11.0 -17.0
v -32.0 11.0 -17.3
v -32.0 10.8 -17.0
v -32.0 11.0 -16.7
v -32.3 12.0 -24.0
v -32.0 12.0 -24.3
v -32.0 11.7 -24.0
v -32.3 12.0 -23.0
v -32.0 12.0 -22.3
v -33.0 12.0 -21.0
v -32.0 12.0 -21.8
v -32.0 11.6 -21.0
v -32.0 11.5 -20.0
v -32.0 11.4 -19.0
v -32.0 11.3 -18.0
v -32.0 11.3 -16.0
v -32.0 11.5 -15.0
v -32.6 12.0 -15.0
v -32.0 11.5 -14.0
v -32.5 12.0 -14.0
v -32.0 11.6 -13.0
v -32.3 12.0 -13.0
v -32.0 12.0 -12.6
v -32.5 13.0 -24.0
v -32.0 13.0 -24.2
v -32.0 13.0 -23.0
v -32.0 12.2 -22.0
v -32.3 13.0 -22.0
v -32.6 13.0 -21.0
v -32.8 13.0 -20.0
v -32.0 12.5 -12.0
v -32.8 13.0 -12.0
v -32.0 12.5 -11.0
v -32.0 12.7 -10.0
v -32.3 13.0 -10.0
v -32.0 13.0 -9.6
v -32.0 13.3 -24.0
v -32.3 14.0 -23.0
v -32.0 14.0 -23.3
v -32.4 14.0 -22.0
v -32.4 14.0 -21.0
v -32.5 14.0 -20.0
v -32.6 14.0 -10.0
v -32.0 13.6 -9.0
v -32.3 14.0 -9.0
v -32.0 14.0 -8.7
v -32.2 15.0 -23.0
v -32.0 15.0 -23.2
v -32.0 15.0 -22.6
v -32.0 14.6 -22.0
v -32.0 14.5 -21.0
v -32.0 14.5 -20.0
v -32.0 14.8 -19.0
v -32.7 15.0 -18.0
v -32.0 15.0 -18.7
v -32.7 15.0 -10.0
v -32.4 15.0 -9.0
v -32.0 15.0 -8.5
v -32.0 16.0 -23.0
v -32.0 16.0 -23.0
v -32.0 16.0 -23.0
v -32.6 16.0 -18.0
v -32.0 16.0 -18.6
v -32.6 16.0 -9.0
v -32.0 16.0 -8.5
v -32.0 16.0 -23.0
v -32.0 17.0 -18.7
v -32.6 17.0 -15.0
v -32.0 17.0 -14.1
v -32.0 16.9 -14.0
v -32.0 17.0 -13.9
v -32.0 17.0 -8.4
v -32.0 18.0 -22.0
v -32.0 18.0 -22.0
v -32.0 18.0 -22.0
v -32.0 17.9 -21.0
v -32.1 18.0 -21.0
v -32.0 18.0 -20.9
v -32.3 18.0 -19.0
v -32.0 18.0 -19.4
v -32.0 17.6 -19.0
v -32.0 17.8 -15.0
v -32.0 18.0 -15.1
v -32.0 17.6 -13.0
v -32.0 17.8 -12.0
v -32.4 18.0 -11.0
v -32.0 18.0 -11.5
v -32.0 18.0 -8.5
v -32.0 18.0 -22.0
v -32.0 18.1 -21.0
v -32.0 18.4 -19.0
v -32.0 19.0 -18.7
v -32.0 18.2 -15.0
v -32.4 19.0 -15.0
v -32.0 19.0 -14.6
v -32.0 18.3 -11.0
v -32.0 18.1 -10.0
v -32.0 18.5 -9.0
v -32.5 20.0 -18.0
v -32.0 20.0 -18.4
v -32.5 20.0 -15.0
v -32.0 20.0 -14.3
v -32.0 21.0 -18.0
v -32.0 21.0 -18.0
v -32.5 21.0 -17.0
v -32.6 21.0 -16.0
v -32.5 21.0 -15.0
v -32.0 20.4 -14.0
v -32.4 21.0 -14.0
v -32.0 20.6 -13.0
v -32.3 21.0 -13.0
v -32.0 21.0 -12.5
v -32.4 21.0 -8.0
v -32.0 21.0 -8.2
v -32.0 20.2 -8.0
v -32.0 21.0 -7.8
v -32.0 21.0 -18.0
v -32.0 21.5 -17.0
v -32.2 22.0 -16.0
v -32.0 22.0 -16.4
v -32.4 22.0 -15.0
v -32.4 22.0 -14.0
v -32.4 22.0 -13.0
v -32.0 21.7 -12.0
v -32.2 22.0 -12.0
v -32.0 22.0 -11.8
v -32.1 22.0 -8.0
v -32.0 22.0 -8.1
v -32.0 22.0 -7.9
v -32.0 22.3 -16.0
v -32.0 22.4 -15.0
v -32.0 22.6 -14.0
v -32.1 23.0 -13.0
v -32.0 23.0 -13.3
v -32.0 23.0 -12.8
v -32.0 22.3 -12.0
v -32.0 22.1 -8.0
v -32.0 23.2 -13.0
v -31.0 11.0 -23.6
v -31.0 10.6 -23.0
v -31.0 10.7 -22.0
v -31.4 11.0 -22.0
v -31.0 11.0 -21.5
v -31.4 11.0 -19.0
v -31.0 11.0 -19.7
v -31.0 10.6 -19.0
v -31.0 10.6 -18.0
v -31.6 11.0 -18.0
v -31.0 10.5 -17.0
v -31.0 10.6 -16.0
v -31.6 11.0 -16.0
v -31.0 10.6 -15.0
v -31.5 11.0 -15.0
v -31.0 10.6 -14.0
v -31.4 11.0 -14.0
v -31.0 10.8 -13.0
v -31.3 11.0 -13.0
v -31.0 11.0 -12.5
v -31.0 12.0 -24.9
v -31.0 11.3 -24.0
v -31.9 12.0 -22.0
v -31.0 11.3 -21.0
v -31.0 11.2 -20.0
v -31.0 12.0 -12.3
v -31.0 13.0 -24.6
v -31.0 12.3 -12.0
v -31.0 12.5 -11.0
v -31.0 12.5 -10.0
v -31.0 12.7 -9.0
v -31.4 13.0 -9.0
v -31.0 13.0 -8.7
v -31.0 13.7 -24.0
v -31.0 14.0 -23.7
v -31.0 13.7 -8.0
v -31.3 14.0 -8.0
v -31.0 14.0 -7.7
v -31.0 15.0 -23.6
v -31.7 15.0 -22.0
v -31.6 15.0 -21.0
v -31.6 15.0 -20.0
v -31.8 15.0 -19.0
v -31.5 15.0 -8.0
v -31.0 15.0 -7.4
v -31.0 16.0 -23.5
v -31.6 16.0 -22.0
v -31.5 16.0 -21.0
v -31.5 16.0 -20.0
v -31.6 16.0 -19.0
v -31.6 16.0 -8.0
v -31.0 15.7 -7.0
v -31.2 16.0 -7.0
v -31.0 16.0 -6.8
v -31.3 17.0 -23.0
v -31.0 17.0 -23.3
v -31.6 17.0 -22.0
v -31.6 17.0 -21.0
v -31.5 17.0 -20.0
v -31.8 17.0 -19.0
v -31.9 17.0 -14.0
v -31.5 17.0 -8.0
v -31.0 17.0 -7.4
v -31.0 16.3 -7.0
v -31.0 18.0 -23.0
v -31.0 18.0 -23.0
v -31.7 18.0 -20.0
v -31.9 18.0 -15.0
v -31.6 18.0 -14.0
v -31.6 18.0 -13.0
v -31.8 18.0 -12.0
v -31.5 18.0 -8.0
v -31.0 18.0 -7.6
v -31.0 18.0 -23.0
v -31.0 18.6 -22.0
v -31.4 19.0 -21.0
v -31.0 19.0 -21.5
v -31.5 19.0 -20.0
v -31.7 19.0 -19.0
v -31.6 19.0 -14.0
v -31.5 19.0 -13.0
v -31.5 19.0 -12.0
v -31.6 19.0 -11.0
v -31.5 19.0 -10.0
v -31.0 19.0 -9.3
v -31.0 18.8 -9.0
v -31.0 18.5 -8.0
v -31.0 19.5 -21.0
v -31.1 20.0 -20.0
v -31.0 20.0 -20.2
v -31.0 20.0 -19.4
v -31.0 19.9 -19.0
v -31.0 20.0 -18.9
v -31.7 20.0 -14.0
v -31.6 20.0 -13.0
v -31.5 20.0 -12.0
v -31.5 20.0 -11.0
v -31.4 20.0 -10.0
v -31.0 20.0 -9.4
v -31.0 20.2 -20.0
v -31.0 20.9 -18.0
v -31.7 21.0 -18.0
v -31.0 21.0 -17.9
v -31.7 21.0 -12.0
v -31.5 21.0 -11.0
v -31.5 21.0 -10.0
v -31.0 20.4 -9.0
v -31.4 21.0 -9.0
v -31.0 21.0 -8.2
v -31.4 21.0 -8.0
v -31.2 21.0 -7.0
v -31.0 21.0 -7.5
v -31.0 20.8 -7.0
v -31.0 21.0 -6.8
v -31.0 22.0 -17.4
v -31.5 22.0 -17.0
v -31.6 22.0 -11.0
v -31.5 22.0 -10.0
v -31.6 22.0 -9.0
v -31.0 21.2 -8.0
v -31.3 22.0 -7.0
v -31.0 22.0 -6.8
v -31.0 22.4 -17.0
v -31.0 22.7 -16.0
v -31.4 23.0 -15.0
v -31.0 23.0 -15.6
v -31.6 23.0 -14.0
v -31.6 23.0 -12.0
v -31.4 23.0 -11.0
v -31.4 23.0 -10.0
v -31.4 23.0 -9.0
v -31.3 23.0 -8.0
v -31.0 23.0 -7.7
v -31.0 22.3 -7.0
v -31.0 23.4 -15.0
v -31.0 23.7 -14.0
v -31.2 24.0 -13.0
v -31.0 24.0 -13.4
v -31.0 24.0 -12.6
v -31.0 23.7 -12.0
v -31.0 23.5 -11.0
v -31.0 23.5 -10.0
v -31.0 23.5 -9.0
v -31.0 23.3 -8.0
v -31.0 24.3 -13.0
v -30.1 11.0 -25.0
v -30.0 11.0 -25.1
v -30.0 10.9 -25.0
v -30.0 10.6 -24.0
v -30.6 11.0 -24.0
v -30.0 10.5 -23.0
v -30.0 10.4 -22.0
v -30.0 10.6 -21.0
v -30.7 11.0 -21.0
v -30.0 10.5 -20.0
v -30.8 11.0 -20.0
v -30.0 10.5 -19.0
v -30.0 10.5 -18.0
v -30.0 10.5 -17.0
v -30.0 10.5 -16.0
v -30.0 10.5 -15.0
v -30.0 10.7 -14.0
v -30.6 11.0 -13.0
v -30.0 11.0 -13.5
v -30.0 11.8 -25.0
v -30.0 12.0 -25.0
v -30.0 11.4 -13.0
v -30.0 12.0 -12.3
v -30.2 13.0 -25.0
v -30.0 13.0 -25.1
v -30.0 12.1 -25.0
v -30.0 12.2 -12.0
v -30.0 12.5 -11.0
v -30.0 12.6 -10.0
v -30.0 12.8 -9.0
v -30.0 13.0 -8.7
v -30.0 13.2 -25.0
v -30.7 14.0 -24.0
v -30.0 14.0 -24.5
v -30.0 13.4 -8.0
v -30.0 13.9 -7.0
v -30.1 14.0 -7.0
v -30.0 14.0 -6.9
v -30.5 15.0 -24.0
v -30.0 15.0 -24.4
v -30.7 15.0 -7.0
v -30.0 14.6 -6.0
v -30.4 15.0 -6.0
v -30.0 14.9 -5.0
v -30.1 15.0 -5.0
v -30.0 15.0 -4.9
v -30.3 16.0 -24.0
v -30.0 16.0 -24.2
v -30.6 16.0 -6.0
v -30.5 16.0 -5.0
v -30.0 15.7 -4.0
v -30.2 16.0 -4.0
v -30.0 16.0 -3.7
v -30.0 16.2 -24.0
v -30.0 16.8 -23.0
v -30.5 17.0 -23.0
v -30.0 17.0 -22.8
v -30.7 17.0 -7.0
v -30.5 17.0 -6.0
v -30.5 17.0 -5.0
v -30.5 17.0 -4.0
v -30.0 16.7 -3.0
v -30.2 17.0 -3.0
v -30.0 17.0 -2.8
v -31.0 18.0 -23.0
v -30.0 18.0 -22.6
v -30.6 18.0 -7.0
v -30.5 18.0 -6.0
v -30.5 18.0 -5.0
v -30.5 18.0 -4.0
v -30.4 18.0 -3.0
v -30.0 18.0 -2.5
v -30.0 19.0 -22.3
v -30.4 19.0 -22.0
v -30.8 19.0 -9.0
v -30.6 19.0 -8.0
v -30.5 19.0 -7.0
v -30.5 19.0 -6.0
v -30.4 19.0 -5.0
v -30.4 19.0 -4.0
v -30.4 19.0 -3.0
v -30.0 18.7 -2.0
v -30.2 19.0 -2.0
v -30.0 19.0 -1.8
v -30.0 19.3 -22.0
v -30.3 20.0 -21.0
v -30.0 20.0 -21.2
v -30.9 20.0 -19.0
v -30.7 20.0 -9.0
v -30.0 20.0 -8.1
v -30.0 19.9 -8.0
v -30.5 20.0 -7.0
v -30.0 20.0 -7.9
v -30.4 20.0 -6.0
v -30.0 20.0 -5.4
v -30.0 19.6 -5.0
v -30.0 19.5 -4.0
v -30.0 19.6 -3.0
v -30.1 20.0 -2.0
v -30.0 20.0 -2.2
v -30.0 20.0 -1.9
v -30.0 20.2 -21.0
v -30.3 21.0 -20.0
v -30.0 21.0 -20.3
v -30.5 21.0 -19.0
v -30.9 21.0 -18.0
v -30.0 20.4 -8.0
v -30.4 21.0 -8.0
v -30.3 21.0 -6.0
v -30.0 21.0 -5.7
v -30.0 20.1 -2.0
v -30.0 21.3 -20.0
v -30.2 22.0 -19.0
v -30.0 22.0 -19.3
v -30.5 22.0 -18.0
v -30.0 21.5 -6.0
v -30.0 22.0 -6.4
v -30.0 22.2 -19.0
v -30.0 22.5 -18.0
v -30.5 23.0 -17.0
v -30.0 23.0 -17.5
v -30.8 23.0 -16.0
v -30.0 22.7 -7.0
v -30.0 23.0 -7.2
v -30.2 24.0 -17.0
v -30.0 24.0 -17.2
v -30.5 24.0 -16.0
v -30.6 24.0 -15.0
v -30.7 24.0 -14.0
v -30.7 24.0 -12.0
v -30.5 24.0 -11.0
v -30.5 24.0 -10.0
v -30.5 24.0 -9.0
v -30.4 24.0 -8.0
v -30.0 24.0 -7.5
v -30.0 24.2 -17.0
v -30.1 25.0 -16.0
v -30.0 25.0 -16.1
v -30.3 25.0 -15.0
v -30.4 25.0 -14.0
v -30.6 25.0 -13.0
v -30.4 25.0 -12.0
v -30.0 25.0 -11.4
v -30.0 24.7 -11.0
v -30.0 24.5 -10.0
v -30.0 24.5 -9.0
v -30.0 24.4 -8.0
v -30.0 24.6 -7.0
v -30.9 25.0 -7.0
v -30.0 25.0 -7.3
v -30.0 25.0 -6.7
v -30.0 25.1 -16.0
v -30.0 25.3 -15.0
v -30.0 25.5 -14.0
v -30.4 26.0 -13.0
v -30.0 26.0 -13.4
v -30.4 26.0 -12.0
v -30.0 26.0 -11.5
v -30.4 26.0 -7.0
v -30.0 26.0 -7.3
v -30.0 25.7 -6.0
v -30.6 26.0 -6.0
v -30.0 26.0 -5.7
v -30.0 27.0 -13.0
v -30.2 27.0 -12.0
v -30.0 27.0 -13.0
v -30.0 27.0 -11.8
v -30.0 26.7 -7.0
v -30.0 26.6 -6.0
v -30.0 27.0 -5.0
v -30.0 27.0 -5.0
v -30.0 27.0 -5.1
v -30.0 27.0 -5.0
v -30.0 27.2 -12.0
v -30.0 27.3 -5.0
v -29.0 11.0 -25.2
v -29.0 10.8 -25.0
v -29.0 10.6 -24.0
v -29.0 10.5 -23.0
v -29.0 10.2 -22.0
v -29.0 10.5 -21.0
v -29.0 10.6 -20.0
v -29.0 10.5 -19.0
v -29.0 10.5 -18.0
v -29.0 10.5 -17.0
v -29.0 10.5 -16.0
v -29.0 10.6 -15.0
v -29.5 11.0 -14.0
v -29.0 11.0 -14.4
v -30.0 12.0 -25.0
v -29.0 12.0 -25.4
v -29.0 11.3 -14.0
v -29.0 11.6 -13.0
v -29.0 11.9 -12.0
v -29.3 12.0 -12.0
v -29.0 12.0 -11.9
v -29.0 13.0 -25.4
v -29.0 12.6 -11.0
v -29.4 13.0 -10.0
v -29.0 13.0 -10.5
v -29.7 13.0 -9.0
v -29.0 13.5 -25.0
v -29.0 14.0 -24.6
v -29.0 13.3 -10.0
v -29.0 13.5 -9.0
v -29.0 13.7 -8.0
v -29.8 14.0 -7.0
v -29.0 14.0 -7.6
v -29.0 15.0 -24.5
v -29.0 14.4 -7.0
v -29.0 14.7 -6.0
v -29.9 15.0 -5.0
v -29.0 15.0 -5.5
v -29.0 16.0 -24.2
v -29.0 15.3 -5.0
v -29.0 15.7 -4.0
v -29.0 16.0 -3.7
v -29.0 16.2 -24.0
v -29.0 16.5 -23.0
v -29.0 17.0 -22.6
v -29.0 16.6 -3.0
v -29.0 17.0 -2.7
v -29.0 18.0 -22.4
v -29.0 17.8 -2.0
v -29.3 18.0 -2.0
v -29.0 18.0 -1.9
v -29.0 19.0 -22.2
v -29.0 19.0 -1.5
v -29.0 19.2 -22.0
v -29.6 20.0 -21.0
v -29.0 19.7 -21.0
v -29.0 20.0 -20.7
v -29.9 20.0 -8.0
v -29.7 20.0 -5.0
v -29.5 20.0 -4.0
v -29.6 20.0 -3.0
v -29.0 19.9 -1.0
v -29.1 20.0 -1.0
v -29.0 20.0 -0.9
v -29.0 21.0 -20.3
v -29.0 20.7 -5.0
v -29.0 21.0 -5.2
v -29.0 20.5 -4.0
v -29.0 20.7 -3.0
v -29.4 21.0 -2.0
v -29.0 21.0 -2.7
v -29.2 21.0 -1.0
v -29.0 21.0 -0.8
v -29.0 21.3 -20.0
v -29.0 22.0 -19.3
v -29.6 22.0 -6.0
v -29.0 22.0 -5.5
v -29.1 22.0 -2.0
v -29.0 22.0 -2.2
v -29.0 22.0 -1.8
v -29.0 21.3 -1.0
v -29.0 22.3 -19.0
v -29.0 22.6 -18.0
v -29.0 23.0 -17.5
v -29.8 23.0 -7.0
v -29.3 23.0 -6.0
v -29.0 23.0 -5.6
v -29.0 22.2 -2.0
v -29.0 24.0 -17.2
v -29.6 24.0 -7.0
v -29.0 24.0 -6.4
v -29.0 23.5 -6.0
v -29.0 24.2 -17.0
v -29.9 25.0 -16.0
v -29.0 24.7 -16.0
v -29.0 25.0 -15.6
v -29.7 25.0 -11.0
v -29.5 25.0 -10.0
v -29.3 25.0 -9.0
v -29.0 25.0 -8.5
v -29.0 24.8 -8.0
v -29.0 25.0 -7.7
v -29.0 25.0 -6.3
v -29.0 25.4 -15.0
v -29.0 25.6 -14.0
v -29.0 26.0 -13.4
v -29.3 26.0 -11.0
v -29.0 26.0 -10.7
v -29.0 25.5 -10.0
v -29.0 25.3 -9.0
v -29.0 26.0 -7.4
v -29.0 25.3 -6.0
v -29.0 26.0 -5.4
v -29.0 26.4 -13.0
v -29.0 27.0 -12.3
v -29.0 26.9 -11.0
v -29.0 27.0 -11.2
v -29.0 26.5 -7.0
v -29.6 27.0 -6.0
v -29.0 27.0 -6.5
v -29.0 26.5 -5.0
v -29.0 27.0 -4.7
v -29.0 27.2 -12.0
v -29.0 28.0 -6.0
v -29.0 28.0 -6.0
v -29.9 28.0 -5.0
v -29.0 28.0 -4.7
v -29.0 28.0 -6.0
v -29.0 28.3 -5.0
v -28.8 11.0 -25.0
v -28.5 11.0 -24.0
v -28.5 11.0 -23.0
v -28.4 11.0 -22.0
v -28.5 11.0 -21.0
v -28.4 11.0 -20.0
v -28.0 11.0 -19.5
v -28.0 10.7 -19.0
v -28.0 10.6 -18.0
v -28.0 10.6 -17.0
v -28.0 10.6 -16.0
v -28.0 10.8 -15.0
v -28.0 11.0 -14.7
v -28.0 12.0 -25.2
v -28.0 11.8 -25.0
v -28.0 11.5 -24.0
v -28.0 11.5 -23.0
v -28.0 11.5 -22.0
v -28.0 11.5 -21.0
v -28.0 11.3 -20.0
v -28.0 11.5 -14.0
v -28.4 12.0 -13.0
v -28.0 12.0 -13.3
v -28.8 12.0 -12.0
v -28.0 13.0 -25.2
v -28.0 12.3 -13.0
v -28.0 12.5 -12.0
v -28.5 13.0 -11.0
v -28.0 13.0 -11.4
v -28.0 13.3 -25.0
v -28.0 14.0 -24.5
v -28.0 13.4 -11.0
v -28.0 13.7 -10.0
v -28.4 14.0 -9.0
v -28.0 14.0 -9.5
v -28.7 14.0 -8.0
v -28.0 15.0 -24.2
v -28.0 14.4 -9.0
v -28.0 14.7 -8.0
v -28.4 15.0 -7.0
v -28.0 15.0 -7.5
v -28.6 15.0 -6.0
v -28.0 15.3 -24.0
v -28.7 16.0 -24.0
v -28.3 16.0 -23.0
v -28.0 15.7 -23.0
v -28.0 16.0 -22.7
v -28.0 15.4 -7.0
v -28.0 15.5 -6.0
v -28.0 15.7 -5.0
v -28.6 16.0 -4.0
v -28.0 16.0 -4.6
v -28.0 17.0 -22.4
v -28.0 16.5 -4.0
v -28.6 17.0 -3.0
v -28.0 17.0 -3.5
v -28.0 17.6 -22.0
v -28.4 18.0 -22.0
v -28.0 18.0 -21.7
v -28.0 17.5 -3.0
v -28.8 18.0 -2.0
v -28.0 18.0 -2.5
v -28.7 19.0 -22.0
v -28.0 19.0 -21.3
v -28.0 18.6 -2.0
v -28.0 19.0 -1.7
v -28.0 19.3 -21.0
v -28.3 20.0 -20.0
v -28.0 19.7 -20.0
v -28.0 20.0 -19.7
v -28.8 20.0 -1.0
v -28.0 20.0 -1.4
v -28.7 21.0 -20.0
v -28.0 21.0 -19.4
v -28.8 21.0 -5.0
v -28.6 21.0 -4.0
v -28.8 21.0 -3.0
v -28.0 20.6 -1.0
v -28.0 21.0 -0.7
v -28.6 22.0 -19.0
v -28.0 21.4 -19.0
v -28.0 22.0 -18.4
v -28.6 22.0 -5.0
v -28.5 22.0 -4.0
v -28.6 22.0 -3.0
v -28.5 22.0 -1.0
v -28.0 22.0 -0.6
v -28.0 22.3 -18.0
v -28.3 23.0 -17.0
v -28.0 22.7 -17.0
v -28.0 23.0 -16.7
v -28.6 23.0 -5.0
v -28.5 23.0 -4.0
v -28.4 23.0 -3.0
v -28.4 23.0 -2.0
v -28.2 23.0 -1.0
v -28.0 23.0 -0.8
v -28.7 24.0 -17.0
v -28.0 24.0 -16.3
v -28.7 24.0 -6.0
v -28.5 24.0 -5.0
v -28.3 24.0 -4.0
v -28.0 24.0 -3.5
v -28.0 23.6 -3.0
v -28.0 23.5 -2.0
v -28.0 23.2 -1.0
v -28.0 24.3 -16.0
v -28.0 25.0 -15.3
v -28.0 24.8 -8.0
v -28.0 25.0 -8.3
v -28.0 25.0 -7.8
v -28.8 25.0 -6.0
v -28.4 25.0 -5.0
v -28.0 25.0 -4.4
v -28.0 24.5 -4.0
v -28.0 25.2 -15.0
v -28.0 25.4 -14.0
v -28.6 26.0 -13.0
v -28.0 25.6 -13.0
v -28.4 26.0 -12.0
v -28.0 25.6 -12.0
v -28.6 26.0 -11.0
v -28.0 25.6 -11.0
v -28.0 25.5 -10.0
v -28.0 25.4 -9.0
v -28.0 26.0 -7.3
v -28.6 26.0 -5.0
v -28.0 26.0 -4.5
v -28.8 27.0 -12.0
v -28.0 26.3 -7.0
v -28.5 27.0 -6.0
v -28.0 26.7 -6.0
v -28.0 27.0 -5.5
v -28.0 27.0 -4.7
v -29.0 28.0 -6.0
v -28.0 27.9 -5.0
v -28.1 28.0 -5.0
v -27.6 11.0 -19.0
v -27.5 11.0 -18.0
v -27.5 11.0 -17.0
v -27.5 11.0 -16.0
v -27.7 11.0 -15.0
v -27.8 12.0 -25.0
v -27.6 12.0 -24.0
v -27.6 12.0 -23.0
v -27.6 12.0 -22.0
v -27.4 12.0 -21.0
v -27.0 12.0 -20.6
v -27.0 11.6 -20.0
v -27.0 11.5 -19.0
v -27.0 11.5 -18.0
v -27.0 11.5 -17.0
v -27.0 11.5 -16.0
v -27.0 11.6 -15.0
v -27.0 11.8 -14.0
v -27.0 12.0 -13.7
v -27.8 13.0 -25.0
v -27.5 13.0 -24.0
v -27.4 13.0 -23.0
v -27.2 13.0 -22.0
v -27.0 13.0 -21.7
v -27.0 12.3 -21.0
v -27.0 12.5 -13.0
v -27.0 12.8 -12.0
v -27.0 13.0 -11.8
v -27.5 14.0 -24.0
v -27.0 14.0 -23.2
v -27.0 13.8 -23.0
v -27.0 13.2 -22.0
v -27.3 14.0 -11.0
v -27.0 14.0 -11.3
v -27.7 14.0 -10.0
v -27.8 15.0 -24.0
v -27.0 14.3 -23.0
v -27.3 15.0 -23.0
v -27.0 15.0 -22.7
v -27.0 14.3 -11.0
v -27.0 14.7 -10.0
v -27.4 15.0 -9.0
v -27.0 15.0 -9.6
v -27.7 15.0 -8.0
v -27.0 16.0 -22.4
v -27.0 15.5 -9.0
v -27.0 16.0 -8.5
v -27.3 16.0 -8.0
v -27.5 16.0 -7.0
v -27.5 16.0 -6.0
v -27.7 16.0 -5.0
v -27.0 17.0 -22.2
v -27.0 16.4 -8.0
v -27.0 16.5 -7.0
v -27.0 16.6 -6.0
v -27.0 17.0 -5.5
v -27.3 17.0 -5.0
v -27.6 17.0 -4.0
v -27.0 17.3 -22.0
v -27.0 18.0 -21.3
v -27.0 17.4 -5.0
v -27.0 17.7 -4.0
v -27.5 18.0 -3.0
v -27.0 18.0 -3.6
v -27.0 18.4 -21.0
v -27.6 19.0 -21.0
v -27.0 19.0 -20.4
v -27.0 18.6 -3.0
v -27.7 19.0 -2.0
v -27.0 19.0 -2.7
v -27.0 19.3 -20.0
v -27.3 20.0 -19.0
v -27.0 19.7 -19.0
v -27.0 20.0 -18.8
v -27.4 20.0 -2.0
v -27.0 20.0 -2.4
v -27.6 21.0 -19.0
v -27.0 21.0 -18.5
v -27.0 20.5 -2.0
v -27.6 21.0 -1.0
v -27.0 21.0 -1.5
v -27.5 22.0 -18.0
v -27.0 21.6 -18.0
v -27.0 22.0 -17.5
v -27.0 21.6 -1.0
v -27.0 22.0 -0.7
v -27.0 22.3 -17.0
v -27.3 23.0 -16.0
v -27.0 22.8 -16.0
v -27.0 23.0 -15.8
v -27.0 23.0 -0.8
v -27.7 24.0 -16.0
v -27.0 24.0 -15.4
v -27.6 24.0 -3.0
v -27.3 24.0 -2.0
v -27.0 24.0 -1.7
v -27.0 23.3 -1.0
v -27.7 25.0 -15.0
v -27.0 24.4 -15.0
v -27.4 25.0 -14.0
v -27.0 24.7 -14.0
v -27.0 25.0 -13.5
v -27.0 24.9 -8.0
v -27.0 25.0 -8.2
v -27.0 25.0 -7.8
v -27.5 25.0 -4.0
v -27.0 25.0 -3.6
v -27.0 24.5 -3.0
v -27.0 24.2 -2.0
v -27.0 25.3 -13.0
v -27.0 25.4 -12.0
v -27.0 25.4 -11.0
v -27.0 25.5 -10.0
v -27.0 25.4 -9.0
v -27.0 25.5 -7.0
v -27.6 26.0 -7.0
v -27.0 26.0 -6.4
v -27.2 26.0 -4.0
v -27.0 26.0 -3.9
v -27.0 26.3 -6.0
v -27.6 27.0 -5.0
v -27.0 26.5 -5.0
v -27.0 26.4 -4.0
v -26.0 12.0 -20.1
v -26.0 11.9 -20.0
v -26.4 12.0 -19.0
v -26.0 12.0 -19.8
v -26.5 12.0 -18.0
v -26.6 12.0 -17.0
v -26.5 12.0 -16.0
v -26.6 12.0 -15.0
v -26.8 12.0 -14.0
v -26.0 13.0 -21.4
v -26.0 12.7 -21.0
v -26.0 12.4 -19.0
v -26.0 12.6 -18.0
v -26.0 13.0 -17.3
v -26.1 13.0 -17.0
v -26.0 13.0 -16.6
v -26.0 12.8 -16.0
v -26.0 13.0 -15.6
v -26.3 13.0 -15.0
v -26.5 13.0 -14.0
v -26.5 13.0 -13.0
v -26.8 13.0 -12.0
v -26.8 14.0 -23.0
v -26.0 14.0 -22.3
v -26.0 13.7 -22.0
v -26.0 13.2 -17.0
v -26.0 13.4 -15.0
v -26.0 14.0 -14.2
v -26.1 14.0 -14.0
v -26.0 14.0 -13.5
v -26.0 13.8 -13.0
v -26.0 14.0 -12.7
v -26.4 14.0 -12.0
v -26.0 15.0 -22.3
v -26.0 14.2 -14.0
v -26.0 14.4 -12.0
v -26.4 15.0 -11.0
v -26.0 15.0 -11.4
v -26.7 15.0 -10.0
v -26.0 15.5 -22.0
v -26.4 16.0 -22.0
v -26.0 16.0 -21.6
v -26.0 15.4 -11.0
v -26.0 16.0 -10.4
v -26.3 16.0 -10.0
v -26.7 16.0 -9.0
v -26.8 17.0 -22.0
v -26.0 16.7 -21.0
v -26.3 17.0 -21.0
v -26.0 17.0 -20.7
v -26.0 16.5 -10.0
v -26.0 17.0 -9.4
v -26.3 17.0 -9.0
v -26.5 17.0 -8.0
v -26.5 17.0 -7.0
v -26.7 17.0 -6.0
v -26.7 18.0 -21.0
v -26.0 17.7 -20.0
v -26.3 18.0 -20.0
v -26.0 18.0 -19.6
v -26.0 17.4 -9.0
v -26.0 17.5 -8.0
v -26.0 17.6 -7.0
v -26.0 18.0 -6.5
v -26.3 18.0 -6.0
v -26.5 18.0 -5.0
v -26.7 18.0 -4.0
v -26.7 19.0 -20.0
v -26.0 18.6 -19.0
v -26.3 19.0 -19.0
v -26.0 19.0 -18.7
v -26.0 18.4 -6.0
v -26.0 18.6 -5.0
v -26.0 19.0 -4.5
v -26.3 19.0 -4.0
v -26.7 19.0 -3.0
v -26.0 20.0 -18.4
v -26.0 19.5 -4.0
v -26.0 20.0 -3.6
v -26.5 20.0 -3.0
v -26.0 21.0 -18.2
v -26.3 21.0 -3.0
v -26.0 21.0 -3.3
v -26.6 21.0 -2.0
v -26.0 21.2 -18.0
v -26.5 22.0 -17.0
v -26.0 21.6 -17.0
v -26.0 22.0 -16.5
v -26.0 21.3 -3.0
v -26.0 21.7 -2.0
v -26.7 22.0 -1.0
v -26.0 22.0 -1.7
v -26.0 22.4 -16.0
v -26.0 23.0 -15.3
v -26.7 23.0 -1.0
v -26.0 23.0 -1.6
v -26.0 23.4 -15.0
v -26.6 24.0 -15.0
v -26.0 24.0 -14.4
v -26.0 24.0 -1.8
v -26.0 24.3 -14.0
v -26.6 25.0 -13.0
v -26.0 24.5 -13.0
v -26.5 25.0 -12.0
v -26.0 24.5 -12.0
v -26.4 25.0 -11.0
v -26.0 24.6 -11.0
v -26.0 25.0 -10.6
v -26.6 25.0 -8.0
v -26.0 24.7 -7.0
v -26.0 25.0 -7.7
v -26.5 25.0 -7.0
v -26.4 25.0 -6.0
v -26.0 24.6 -6.0
v -26.4 25.0 -5.0
v -26.0 24.6 -5.0
v -26.6 25.0 -4.0
v -26.0 24.5 -4.0
v -26.0 24.4 -3.0
v -26.0 24.2 -2.0
v -26.0 25.3 -10.0
v -26.0 25.4 -9.0
v -26.0 25.1 -8.0
v -26.8 26.0 -6.0
v -26.6 26.0 -5.0
v -26.9 26.0 -4.0
v -25.9 12.0 -20.0
v -25.7 13.0 -21.0
v -25.0 13.0 -20.1
v -25.0 12.9 -20.0
v -25.4 13.0 -19.0
v -25.0 13.0 -19.8
v -25.7 13.0 -18.0
v -25.8 13.0 -16.0
v -25.7 14.0 -22.0
v -25.3 14.0 -21.0
v -25.0 14.0 -20.6
v -25.0 13.5 -19.0
v -25.0 14.0 -18.5
v -25.3 14.0 -18.0
v -25.5 14.0 -17.0
v -25.0 14.0 -16.2
v -25.0 13.9 -16.0
v -25.5 14.0 -15.0
v -25.0 14.0 -15.8
v -25.8 14.0 -13.0
v -25.7 15.0 -22.0
v -25.0 15.0 -21.3
v -25.0 14.5 -21.0
v -25.0 14.5 -18.0
v -25.0 15.0 -17.2
v -25.1 15.0 -17.0
v -25.0 15.0 -16.8
v -25.0 14.5 -15.0
v -25.3 15.0 -14.0
v -25.0 15.0 -14.4
v -25.3 15.0 -13.0
v -25.0 14.9 -12.0
v -25.0 15.0 -12.2
v -25.0 15.0 -11.9
v -25.0 16.0 -21.2
v -25.0 15.2 -17.0
v -25.0 15.3 -14.0
v -25.0 15.3 -13.0
v -25.4 16.0 -11.0
v -25.0 16.0 -11.3
v -25.0 16.3 -21.0
v -25.0 17.0 -20.3
v -25.0 16.4 -11.0
v -25.6 17.0 -10.0
v -25.0 17.0 -10.5
v -25.0 17.2 -20.0
v -25.4 18.0 -19.0
v -25.0 17.6 -19.0
v -25.0 18.0 -18.6
v -25.4 18.0 -10.0
v -25.0 18.0 -10.5
v -25.6 18.0 -9.0
v -25.6 18.0 -8.0
v -25.7 18.0 -7.0
v -25.0 19.0 -18.3
v -25.2 19.0 -10.0
v -25.0 19.0 -10.3
v -25.4 19.0 -9.0
v -25.5 19.0 -8.0
v -25.5 19.0 -7.0
v -25.6 19.0 -6.0
v -25.7 19.0 -5.0
v -25.0 19.4 -18.0
v -25.4 20.0 -18.0
v -25.0 20.0 -17.5
v -25.0 19.3 -10.0
v -25.0 19.6 -9.0
v -25.0 20.0 -8.5
v -25.3 20.0 -8.0
v -25.5 20.0 -7.0
v -25.5 20.0 -6.0
v -25.5 20.0 -5.0
v -25.7 20.0 -4.0
v -25.8 21.0 -18.0
v -25.0 20.5 -17.0
v -25.4 21.0 -17.0
v -25.0 21.0 -16.4
v -25.0 20.7 -8.0
v -25.0 21.0 -7.8
v -25.4 21.0 -7.0
v -25.5 21.0 -6.0
v -25.5 21.0 -5.0
v -25.5 21.0 -4.0
v -25.6 22.0 -16.0
v -25.0 21.3 -16.0
v -25.4 22.0 -15.0
v -25.0 21.5 -15.0
v -25.3 22.0 -14.0
v -25.0 21.7 -14.0
v -25.0 22.0 -13.7
v -25.3 22.0 -8.0
v -25.0 21.3 -8.0
v -25.0 22.0 -8.4
v -25.5 22.0 -7.0
v -25.4 22.0 -6.0
v -25.3 22.0 -5.0
v -25.0 22.0 -4.2
v -25.0 21.9 -4.0
v -25.5 22.0 -3.0
v -25.0 22.0 -3.8
v -25.8 22.0 -2.0
v -25.7 23.0 -15.0
v -25.4 23.0 -14.0
v -25.0 23.0 -13.3
v -25.3 23.0 -8.0
v -25.0 23.0 -8.5
v -25.3 23.0 -7.0
v -25.0 23.0 -6.5
v -25.0 22.6 -6.0
v -25.0 22.4 -5.0
v -25.4 23.0 -3.0
v -25.0 23.0 -3.7
v -25.6 23.0 -2.0
v -25.7 24.0 -14.0
v -25.0 23.3 -13.0
v -25.5 24.0 -13.0
v -25.5 24.0 -12.0
v -25.0 23.5 -12.0
v -25.5 24.0 -11.0
v -25.0 23.5 -11.0
v -25.3 24.0 -10.0
v -25.0 23.6 -10.0
v -25.3 24.0 -9.0
v -25.0 23.5 -9.0
v -25.0 24.0 -8.2
v -25.0 23.7 -8.0
v -25.0 23.6 -7.0
v -25.4 24.0 -4.0
v -25.0 23.4 -4.0
v -25.0 24.0 -4.6
v -25.6 24.0 -3.0
v -25.8 24.0 -2.0
v -25.3 25.0 -10.0
v -25.6 25.0 -9.0
v -25.0 24.1 -8.0
v -25.8 25.0 -8.0
v -25.0 24.2 -7.0
v -25.0 24.3 -6.0
v -25.0 24.2 -5.0
v -24.9 13.0 -20.0
v -24.6 14.0 -20.0
v -24.7 14.0 -19.0
v -24.9 14.0 -16.0
v -24.7 15.0 -21.0
v -24.5 15.0 -20.0
v -24.4 15.0 -19.0
v -24.6 15.0 -18.0
v -24.6 15.0 -16.0
v -24.6 15.0 -15.0
v -24.9 15.0 -12.0
v -24.8 16.0 -21.0
v -24.4 16.0 -20.0
v -24.0 16.0 -19.1
v -24.0 15.9 -19.0
v -24.0 15.9 -18.0
v -24.5 16.0 -17.0
v -24.0 16.0 -17.9
v -24.4 16.0 -16.0
v -24.0 16.0 -15.3
v -24.0 15.7 -15.0
v -24.0 15.6 -14.0
v -24.0 15.6 -13.0
v -24.0 15.7 -12.0
v -24.0 16.0 -11.7
v -24.8 17.0 -20.0
v -24.0 16.1 -19.0
v -24.5 17.0 -19.0
v -24.4 17.0 -18.0
v -24.0 16.1 -18.0
v -24.4 17.0 -17.0
v -24.4 17.0 -16.0
v -24.0 17.0 -15.4
v -24.0 16.9 -11.0
v -24.0 17.0 -10.9
v -24.5 18.0 -18.0
v -24.1 18.0 -17.0
v -24.4 18.0 -16.0
v -24.0 17.5 -15.0
v -24.3 18.0 -15.0
v -24.0 18.0 -14.5
v -24.4 18.0 -11.0
v -24.0 17.1 -11.0
v -24.0 18.0 -11.4
v -24.7 19.0 -18.0
v -24.4 19.0 -17.0
v -24.5 19.0 -16.0
v -24.5 19.0 -15.0
v -24.0 18.5 -14.0
v -24.3 19.0 -14.0
v -24.0 19.0 -13.5
v -24.5 19.0 -11.0
v -24.0 19.0 -11.7
v -24.7 20.0 -17.0
v -24.5 20.0 -16.0
v -24.5 20.0 -15.0
v -24.5 20.0 -14.0
v -24.0 19.4 -13.0
v -24.4 20.0 -13.0
v -24.4 20.0 -12.0
v -24.0 19.3 -12.0
v -24.5 20.0 -11.0
v -24.6 20.0 -10.0
v -24.7 20.0 -9.0
v -24.7 21.0 -16.0
v -24.6 21.0 -15.0
v -24.6 21.0 -14.0
v -24.5 21.0 -13.0
v -24.5 21.0 -12.0
v -24.5 21.0 -11.0
v -24.5 21.0 -10.0
v -24.5 21.0 -9.0
v -24.8 21.0 -8.0
v -24.6 22.0 -13.0
v -24.5 22.0 -12.0
v -24.5 22.0 -11.0
v -24.5 22.0 -10.0
v -24.6 22.0 -9.0
v -24.9 22.0 -4.0
v -24.8 23.0 -13.0
v -24.6 23.0 -12.0
v -24.6 23.0 -11.0
v -24.6 23.0 -10.0
v -24.7 23.0 -9.0
v -24.7 23.0 -6.0
v -24.6 23.0 -5.0
v -24.8 23.0 -4.0
v -24.9 24.0 -8.0
v -24.8 24.0 -7.0
v -24.7 24.0 -6.0
v -24.8 24.0 -5.0
v -23.9 16.0 -19.0
v -23.9 16.0 -18.0
v -23.8 16.0 -15.0
v -23.6 16.0 -14.0
v -23.6 16.0 -13.0
v -23.8 16.0 -12.0
v -23.7 17.0 -15.0
v -23.5 17.0 -14.0
v -23.5 17.0 -13.0
v -23.5 17.0 -12.0
v -23.9 17.0 -11.0
v -23.7 18.0 -14.0
v -23.5 18.0 -13.0
v -23.6 18.0 -12.0
v -23.7 19.0 -13.0
v -23.8 19.0 -12.0
f 3 2 1
f 1 4 3
f 1 2 5
f 5 2 6
f 4 1 7
f 1 8 7
f 1 5 8
f 8 9 7
f 6 10 5
f 5 10 8
f 8 10 11
f 8 11 9
f 14 13 12
f 2 3 12
f 3 14 12
f 3 15 14
f 17 16 4
f 16 3 4
f 16 15 3
f 17 18 16
f 13 19 12
f 2 12 19
f 20 2 19
f 6 2 20
f 7 17 4
f 22 21 9
f 9 21 7
f 21 18 7
f 18 17 7
f 22 23 21
f 20 24 6
f 6 24 10
f 10 25 11
f 24 25 10
f 9 11 22
f 11 26 22
f 11 25 26
f 22 26 23
f 29 28 27
f 31 30 27
f 27 30 29
f 33 32 31
f 31 32 30
f 35 34 33
f 33 34 32
f 35 36 34
f 28 37 27
f 27 37 31
f 31 37 38
f 31 38 33
f 33 38 39
f 41 40 39
f 40 33 39
f 40 35 33
f 36 35 42
f 35 43 42
f 35 40 43
f 45 44 43
f 43 44 42
f 47 46 45
f 45 46 44
f 49 48 47
f 47 48 46
f 49 50 48
f 40 41 51
f 51 41 52
f 54 43 53
f 43 51 53
f 43 40 51
f 55 13 14
f 43 55 14
f 45 43 14
f 54 55 43
f 45 14 15
f 45 15 47
f 47 15 16
f 47 16 49
f 16 18 49
f 18 50 49
f 18 56 50
f 51 52 57
f 57 52 58
f 53 51 59
f 59 51 57
f 19 13 60
f 13 61 60
f 13 55 61
f 60 20 19
f 62 56 18
f 62 18 21
f 21 23 62
f 62 23 63
f 58 64 57
f 57 64 59
f 61 65 60
f 60 65 20
f 65 24 20
f 65 66 24
f 24 67 25
f 66 67 24
f 25 68 26
f 67 68 25
f 71 70 69
f 26 63 23
f 63 26 68
f 69 72 71
f 69 70 73
f 73 70 74
f 72 69 75
f 75 69 73
f 74 76 73
f 73 76 75
f 79 78 77
f 81 80 77
f 77 80 79
f 83 82 81
f 81 82 80
f 85 84 83
f 83 84 82
f 87 86 85
f 85 86 84
f 87 88 86
f 78 89 77
f 90 28 29
f 77 90 29
f 81 77 29
f 89 90 77
f 81 29 30
f 81 30 83
f 83 30 32
f 83 32 85
f 85 32 34
f 85 34 87
f 92 91 36
f 36 91 34
f 91 88 34
f 88 87 34
f 94 93 92
f 92 93 91
f 96 95 94
f 94 95 93
f 96 97 95
f 100 99 98
f 98 101 100
f 37 28 102
f 28 103 102
f 28 90 103
f 104 38 37
f 104 37 102
f 105 39 38
f 105 38 104
f 105 41 39
f 42 92 36
f 92 42 44
f 92 44 94
f 94 44 46
f 94 46 96
f 106 97 96
f 46 106 96
f 48 106 46
f 107 98 50
f 98 106 50
f 106 48 50
f 98 99 106
f 101 98 108
f 108 98 107
f 103 109 102
f 102 109 104
f 104 109 110
f 112 111 110
f 111 104 110
f 111 105 104
f 111 52 41
f 111 41 105
f 53 113 54
f 113 55 54
f 56 114 107
f 56 107 50
f 108 107 115
f 115 107 114
f 111 112 116
f 116 112 117
f 116 58 52
f 116 52 111
f 59 118 113
f 59 113 53
f 118 61 55
f 118 55 113
f 62 114 56
f 120 119 63
f 63 119 62
f 119 115 62
f 115 114 62
f 120 121 119
f 124 123 122
f 124 122 117
f 122 116 117
f 122 125 116
f 126 64 58
f 116 126 58
f 125 126 116
f 126 127 64
f 64 127 59
f 127 128 59
f 128 118 59
f 118 128 61
f 128 65 61
f 128 129 65
f 129 131 130
f 66 129 130
f 65 129 66
f 132 67 66
f 132 66 130
f 133 68 67
f 133 67 132
f 133 63 68
f 133 120 63
f 133 70 71
f 120 133 71
f 135 134 72
f 72 134 71
f 134 121 71
f 121 120 71
f 135 136 134
f 122 123 137
f 137 123 138
f 122 139 125
f 122 137 139
f 125 140 126
f 125 139 140
f 127 126 141
f 141 126 140
f 131 142 130
f 130 142 132
f 132 142 143
f 132 143 133
f 133 143 144
f 70 133 144
f 145 70 144
f 74 70 145
f 75 146 135
f 75 135 72
f 136 135 147
f 147 135 146
f 137 138 148
f 148 138 149
f 137 150 139
f 137 148 150
f 139 151 140
f 139 150 151
f 141 140 152
f 152 140 151
f 145 153 74
f 74 153 76
f 75 76 146
f 76 154 146
f 76 153 154
f 146 154 147
f 149 155 148
f 157 156 155
f 156 148 155
f 156 150 148
f 150 158 151
f 150 156 158
f 152 151 159
f 159 151 158
f 157 160 156
f 156 160 158
f 158 160 161
f 158 161 159
f 164 163 162
f 162 165 164
f 168 167 166
f 166 169 168
f 172 171 170
f 172 170 163
f 170 162 163
f 170 173 162
f 165 162 174
f 174 162 173
f 177 176 175
f 78 79 175
f 79 177 175
f 79 178 177
f 179 79 80
f 179 178 79
f 180 80 82
f 180 179 80
f 84 166 167
f 180 84 167
f 82 84 180
f 181 169 166
f 84 181 166
f 86 181 84
f 183 182 88
f 182 86 88
f 182 181 86
f 185 184 183
f 183 184 182
f 187 186 185
f 185 186 184
f 187 188 186
f 170 171 189
f 189 171 190
f 170 191 173
f 170 189 191
f 174 173 192
f 173 193 192
f 173 191 193
f 192 193 176
f 193 175 176
f 193 194 175
f 195 89 78
f 175 195 78
f 194 195 175
f 195 90 89
f 91 183 88
f 183 91 93
f 183 93 185
f 185 93 95
f 185 95 187
f 197 196 97
f 97 196 95
f 196 188 95
f 188 187 95
f 99 100 197
f 100 196 197
f 100 198 196
f 200 199 101
f 199 100 101
f 199 198 100
f 200 201 199
f 190 202 189
f 204 203 202
f 203 189 202
f 203 191 189
f 191 205 193
f 191 203 205
f 193 206 194
f 193 205 206
f 194 207 195
f 194 206 207
f 207 103 90
f 207 90 195
f 106 197 97
f 197 106 99
f 108 208 200
f 108 200 101
f 201 200 209
f 200 210 209
f 200 208 210
f 210 211 209
f 203 204 212
f 212 204 213
f 215 205 214
f 205 212 214
f 205 203 212
f 205 215 206
f 206 215 216
f 206 216 207
f 207 216 217
f 207 217 103
f 217 109 103
f 217 218 109
f 218 220 219
f 110 218 219
f 109 218 110
f 219 112 110
f 115 221 208
f 115 208 108
f 208 222 210
f 208 221 222
f 211 210 223
f 223 210 222
f 212 213 224
f 224 213 225
f 214 212 226
f 226 212 224
f 219 220 227
f 227 220 228
f 227 117 112
f 227 112 219
f 119 221 115
f 221 119 121
f 229 221 121
f 222 221 229
f 223 222 230
f 230 222 229
f 225 231 224
f 224 231 226
f 227 228 124
f 228 123 124
f 228 232 123
f 227 124 117
f 127 233 128
f 128 233 234
f 235 128 234
f 129 128 235
f 131 129 235
f 131 235 236
f 134 229 121
f 134 136 229
f 136 230 229
f 136 237 230
f 240 239 238
f 242 241 238
f 238 241 240
f 242 243 241
f 246 245 244
f 232 246 244
f 138 232 244
f 123 232 138
f 248 247 233
f 127 248 233
f 141 248 127
f 233 247 234
f 236 249 131
f 131 249 142
f 142 250 143
f 249 250 142
f 250 252 251
f 144 250 251
f 143 250 144
f 251 145 144
f 147 237 136
f 147 253 237
f 239 254 238
f 238 254 242
f 242 254 255
f 242 255 243
f 245 256 244
f 138 244 256
f 257 138 256
f 149 138 257
f 152 259 258
f 248 152 258
f 141 152 248
f 259 260 258
f 252 261 251
f 251 261 145
f 261 153 145
f 261 262 153
f 153 263 154
f 262 263 153
f 147 154 253
f 253 154 263
f 155 149 264
f 149 265 264
f 149 257 265
f 264 157 155
f 159 266 259
f 159 259 152
f 260 259 267
f 267 259 266
f 264 265 268
f 268 265 269
f 270 160 157
f 264 270 157
f 268 270 264
f 271 161 160
f 271 160 270
f 266 159 161
f 271 266 161
f 272 266 271
f 267 266 273
f 266 274 273
f 266 272 274
f 276 275 274
f 274 275 273
f 276 277 275
f 280 279 278
f 278 281 280
f 269 282 268
f 268 282 270
f 270 282 283
f 285 284 283
f 284 270 283
f 284 271 270
f 271 286 272
f 271 284 286
f 272 287 274
f 272 286 287
f 274 288 276
f 274 287 288
f 277 276 289
f 276 290 289
f 276 288 290
f 290 291 289
f 278 279 292
f 292 279 293
f 281 278 294
f 294 278 292
f 285 295 284
f 284 295 286
f 286 295 296
f 286 296 287
f 287 296 297
f 299 298 297
f 298 287 297
f 298 288 287
f 301 290 300
f 290 298 300
f 290 288 298
f 290 301 291
f 293 302 292
f 292 302 294
f 299 303 298
f 298 303 300
f 305 304 164
f 164 304 163
f 307 306 165
f 306 164 165
f 306 305 164
f 307 308 306
f 311 310 309
f 313 312 309
f 309 312 311
f 167 168 313
f 168 312 313
f 168 314 312
f 316 315 169
f 315 168 169
f 315 314 168
f 318 317 316
f 316 317 315
f 320 319 318
f 318 319 317
f 322 321 320
f 320 321 319
f 322 323 321
f 325 324 172
f 172 324 171
f 172 163 304
f 172 304 325
f 174 326 307
f 174 307 165
f 177 327 176
f 327 307 176
f 307 326 176
f 307 327 308
f 328 177 178
f 328 327 177
f 179 309 310
f 328 179 310
f 178 179 328
f 309 179 180
f 309 180 313
f 313 180 167
f 181 316 169
f 316 181 182
f 316 182 318
f 318 182 184
f 318 184 320
f 320 184 186
f 320 186 322
f 186 188 322
f 188 323 322
f 188 329 323
f 324 190 171
f 330 190 324
f 192 326 174
f 326 192 176
f 331 329 188
f 331 188 196
f 332 196 198
f 332 331 196
f 333 198 199
f 333 332 198
f 335 334 201
f 334 199 201
f 334 333 199
f 335 336 334
f 330 337 190
f 190 337 202
f 204 202 337
f 204 337 338
f 209 335 201
f 340 339 211
f 211 339 209
f 339 336 209
f 336 335 209
f 340 341 339
f 338 213 204
f 342 213 338
f 214 343 215
f 344 216 215
f 344 215 343
f 345 217 216
f 345 216 344
f 346 218 217
f 346 217 345
f 346 220 218
f 223 347 340
f 223 340 211
f 341 340 348
f 348 340 347
f 342 225 213
f 349 225 342
f 226 350 343
f 226 343 214
f 343 351 344
f 343 350 351
f 344 352 345
f 344 351 352
f 345 353 346
f 345 352 353
f 353 228 220
f 353 220 346
f 230 354 347
f 230 347 223
f 348 347 355
f 347 356 355
f 347 354 356
f 356 357 355
f 231 225 358
f 225 359 358
f 225 349 359
f 350 226 231
f 358 350 231
f 360 350 358
f 350 361 351
f 350 360 361
f 351 362 352
f 351 361 362
f 352 363 353
f 352 362 363
f 363 232 228
f 363 228 353
f 234 364 235
f 364 236 235
f 237 365 354
f 237 354 230
f 367 356 366
f 356 365 366
f 356 354 365
f 356 367 357
f 358 359 368
f 368 359 369
f 368 239 240
f 360 368 240
f 358 368 360
f 360 240 241
f 360 241 361
f 361 241 243
f 370 361 243
f 362 361 370
f 370 245 246
f 363 370 246
f 362 370 363
f 363 246 232
f 248 371 247
f 364 234 247
f 371 364 247
f 372 364 371
f 373 249 236
f 364 373 236
f 372 373 364
f 374 250 249
f 374 249 373
f 374 252 250
f 253 375 365
f 253 365 237
f 366 365 376
f 376 365 375
f 369 377 368
f 368 377 239
f 377 254 239
f 377 378 254
f 378 380 379
f 255 378 379
f 254 378 255
f 370 243 255
f 379 370 255
f 381 370 379
f 382 256 245
f 370 382 245
f 381 382 370
f 382 257 256
f 258 371 248
f 371 258 260
f 383 371 260
f 372 371 383
f 372 384 373
f 372 383 384
f 373 385 374
f 373 384 385
f 386 261 252
f 374 386 252
f 385 386 374
f 387 262 261
f 387 261 386
f 262 387 388
f 389 262 388
f 263 262 389
f 253 263 375
f 263 390 375
f 263 389 390
f 375 390 376
f 380 391 379
f 393 392 391
f 392 379 391
f 392 381 379
f 395 382 394
f 382 392 394
f 382 381 392
f 257 382 395
f 396 257 395
f 265 257 396
f 267 397 383
f 267 383 260
f 383 398 384
f 383 397 398
f 384 399 385
f 384 398 399
f 385 400 386
f 385 399 400
f 386 401 387
f 386 400 401
f 388 387 402
f 402 387 401
f 393 403 392
f 392 403 394
f 405 269 404
f 269 396 404
f 269 265 396
f 406 405 404
f 273 397 267
f 397 273 275
f 397 275 398
f 398 275 277
f 407 398 277
f 399 398 407
f 399 408 400
f 399 407 408
f 400 409 401
f 400 408 409
f 402 401 410
f 401 411 410
f 401 409 411
f 411 279 410
f 279 280 410
f 413 412 410
f 413 410 280
f 413 280 281
f 416 415 414
f 414 417 416
f 405 282 269
f 283 282 405
f 418 283 405
f 406 418 405
f 419 283 418
f 419 285 283
f 289 407 277
f 407 289 291
f 420 407 291
f 408 407 420
f 408 421 409
f 408 420 421
f 409 422 411
f 409 421 422
f 423 412 413
f 293 279 422
f 411 422 279
f 294 413 281
f 413 294 423
f 424 423 294
f 423 424 415
f 414 415 424
f 417 414 425
f 425 414 424
f 418 426 419
f 419 426 285
f 426 295 285
f 426 427 295
f 427 429 428
f 296 427 428
f 295 427 296
f 430 297 296
f 430 296 428
f 430 299 297
f 300 431 301
f 420 291 301
f 431 420 301
f 432 420 431
f 420 433 421
f 420 432 433
f 421 434 422
f 421 433 434
f 435 302 293
f 422 435 293
f 434 435 422
f 435 436 302
f 302 436 294
f 436 437 294
f 437 424 294
f 424 437 425
f 429 438 428
f 428 438 430
f 430 438 439
f 439 441 440
f 439 440 303
f 430 439 303
f 299 430 303
f 440 442 303
f 303 442 300
f 442 443 300
f 443 431 300
f 431 443 432
f 432 443 444
f 432 444 433
f 433 444 445
f 433 445 434
f 434 445 446
f 434 446 435
f 435 446 447
f 435 447 436
f 441 448 440
f 440 448 442
f 451 450 449
f 453 452 449
f 449 452 451
f 304 305 453
f 305 452 453
f 305 454 452
f 455 305 306
f 455 454 305
f 457 456 308
f 456 306 308
f 456 455 306
f 459 458 457
f 457 458 456
f 310 311 459
f 311 458 459
f 311 460 458
f 461 311 312
f 461 460 311
f 462 312 314
f 462 461 312
f 463 314 315
f 463 462 314
f 464 315 317
f 464 463 315
f 465 317 319
f 465 464 317
f 467 465 466
f 465 321 466
f 465 319 321
f 323 466 321
f 450 468 449
f 469 324 325
f 449 469 325
f 453 449 325
f 468 469 449
f 453 325 304
f 327 457 308
f 457 327 328
f 457 328 459
f 459 328 310
f 470 467 466
f 466 323 470
f 323 471 470
f 323 329 471
f 474 473 472
f 469 474 472
f 330 469 472
f 324 469 330
f 475 471 329
f 475 329 331
f 476 331 332
f 476 475 331
f 477 332 333
f 477 476 332
f 478 333 334
f 478 477 333
f 334 336 478
f 478 336 479
f 473 480 472
f 480 482 481
f 480 481 337
f 472 480 337
f 330 472 337
f 481 338 337
f 483 479 336
f 483 336 339
f 485 484 341
f 484 339 341
f 484 483 339
f 485 486 484
f 481 482 487
f 487 482 488
f 487 342 338
f 487 338 481
f 348 489 485
f 348 485 341
f 486 485 490
f 485 491 490
f 485 489 491
f 493 492 491
f 491 492 490
f 493 494 492
f 487 488 495
f 495 488 496
f 495 349 342
f 495 342 487
f 355 489 348
f 489 355 357
f 497 489 357
f 491 489 497
f 491 498 493
f 491 497 498
f 494 493 499
f 493 500 499
f 493 498 500
f 500 501 499
f 496 502 495
f 359 349 495
f 503 359 495
f 502 503 495
f 359 503 504
f 505 504 503
f 366 506 367
f 497 357 367
f 506 497 367
f 507 497 506
f 497 508 498
f 497 507 508
f 498 509 500
f 498 508 509
f 501 500 510
f 500 511 510
f 500 509 511
f 511 512 510
f 513 369 504
f 504 369 359
f 504 505 514
f 504 514 513
f 376 515 506
f 376 506 366
f 506 516 507
f 506 515 516
f 507 517 508
f 507 516 517
f 508 518 509
f 508 517 518
f 509 519 511
f 509 518 519
f 512 511 520
f 520 511 519
f 513 377 369
f 378 377 513
f 521 378 513
f 514 521 513
f 522 378 521
f 522 380 378
f 388 523 389
f 524 390 389
f 524 389 523
f 515 376 390
f 524 515 390
f 525 515 524
f 515 526 516
f 515 525 526
f 516 527 517
f 516 526 527
f 517 528 518
f 517 527 528
f 518 529 519
f 518 528 529
f 520 519 530
f 519 531 530
f 519 529 531
f 531 532 530
f 521 533 522
f 533 535 534
f 533 534 391
f 522 533 391
f 380 522 391
f 534 393 391
f 394 536 395
f 536 396 395
f 402 537 523
f 402 523 388
f 539 524 538
f 524 537 538
f 524 523 537
f 541 540 539
f 540 524 539
f 540 525 524
f 525 542 526
f 525 540 542
f 544 527 543
f 527 542 543
f 527 526 542
f 527 544 528
f 528 544 545
f 528 545 529
f 529 545 546
f 548 547 546
f 547 529 546
f 547 531 529
f 532 531 549
f 549 531 547
f 535 550 534
f 550 552 551
f 550 551 403
f 534 550 403
f 393 534 403
f 536 394 403
f 551 536 403
f 553 536 551
f 554 404 396
f 536 554 396
f 553 554 536
f 554 406 404
f 410 537 402
f 556 555 412
f 412 555 410
f 555 538 410
f 538 537 410
f 555 556 541
f 541 556 540
f 556 415 540
f 415 416 540
f 540 416 417
f 557 540 417
f 542 540 557
f 543 542 558
f 558 542 557
f 548 559 547
f 547 559 549
f 552 560 551
f 562 561 560
f 561 551 560
f 561 553 551
f 553 563 554
f 553 561 563
f 563 418 406
f 563 406 554
f 423 556 412
f 556 423 415
f 565 564 557
f 417 565 557
f 425 565 417
f 557 564 558
f 562 566 561
f 561 566 563
f 563 566 567
f 567 569 568
f 567 568 426
f 563 567 426
f 418 563 426
f 570 427 426
f 570 426 568
f 570 429 427
f 572 571 437
f 572 437 436
f 425 437 565
f 565 437 571
f 568 569 573
f 573 569 574
f 568 575 570
f 568 573 575
f 576 438 429
f 570 576 429
f 575 576 570
f 577 439 438
f 577 438 576
f 577 441 439
f 442 578 443
f 579 444 443
f 579 443 578
f 580 445 444
f 580 444 579
f 581 446 445
f 581 445 580
f 582 447 446
f 582 446 581
f 582 583 447
f 583 436 447
f 583 572 436
f 574 584 573
f 586 585 584
f 585 573 584
f 585 575 573
f 575 587 576
f 575 585 587
f 576 588 577
f 576 587 588
f 589 448 441
f 577 589 441
f 588 589 577
f 578 442 448
f 589 578 448
f 590 578 589
f 592 579 591
f 579 590 591
f 579 578 590
f 579 592 580
f 580 592 593
f 580 593 581
f 581 593 594
f 581 594 582
f 582 594 595
f 598 597 596
f 582 595 583
f 597 599 596
f 586 600 585
f 585 600 587
f 587 600 601
f 587 601 588
f 588 601 602
f 604 603 602
f 603 588 602
f 603 589 588
f 589 605 590
f 589 603 605
f 591 590 606
f 606 590 605
f 597 598 607
f 607 598 608
f 599 597 609
f 597 610 609
f 597 607 610
f 610 611 609
f 604 612 603
f 614 613 612
f 613 603 612
f 613 605 603
f 606 605 615
f 615 605 613
f 608 616 607
f 607 616 610
f 610 616 617
f 620 619 618
f 610 617 611
f 619 621 618
f 614 622 613
f 613 622 615
f 620 623 619
f 619 623 621
f 625 624 451
f 451 624 450
f 626 451 452
f 626 625 451
f 627 452 454
f 627 626 452
f 628 454 455
f 628 627 454
f 629 455 456
f 629 628 455
f 630 456 458
f 630 629 456
f 631 458 460
f 631 630 458
f 632 460 461
f 632 631 460
f 633 461 462
f 633 632 461
f 634 462 463
f 634 633 462
f 635 463 464
f 635 634 463
f 637 635 636
f 635 465 636
f 635 464 465
f 467 636 465
f 468 450 638
f 450 639 638
f 450 624 639
f 638 469 468
f 640 637 636
f 640 636 467
f 470 640 467
f 641 640 470
f 643 642 471
f 642 470 471
f 642 641 470
f 643 644 642
f 638 639 474
f 639 473 474
f 639 645 473
f 638 474 469
f 475 643 471
f 646 644 643
f 475 646 643
f 476 646 475
f 648 646 647
f 646 477 647
f 646 476 477
f 478 649 477
f 477 649 647
f 479 649 478
f 645 650 473
f 473 650 480
f 482 480 650
f 482 650 651
f 652 648 647
f 652 647 649
f 652 649 653
f 653 649 479
f 483 653 479
f 654 653 483
f 656 654 655
f 654 484 655
f 654 483 484
f 486 655 484
f 651 488 482
f 657 488 651
f 658 656 655
f 658 655 486
f 490 658 486
f 659 658 490
f 661 659 660
f 659 492 660
f 659 490 492
f 494 660 492
f 657 496 488
f 662 496 657
f 663 661 660
f 663 660 494
f 499 663 494
f 664 663 499
f 499 501 664
f 664 501 665
f 662 666 496
f 496 666 502
f 502 667 503
f 666 667 502
f 505 503 667
f 505 667 668
f 669 665 501
f 669 501 510
f 510 512 669
f 669 512 670
f 668 514 505
f 671 514 668
f 520 673 672
f 670 520 672
f 512 520 670
f 673 674 672
f 671 521 514
f 675 521 671
f 530 673 520
f 530 532 673
f 532 674 673
f 532 676 674
f 675 677 521
f 521 677 533
f 679 678 535
f 533 679 535
f 677 679 533
f 680 678 679
f 538 681 539
f 681 541 539
f 543 682 544
f 683 545 544
f 683 544 682
f 684 546 545
f 684 545 683
f 684 548 546
f 549 686 685
f 676 549 685
f 532 549 676
f 686 687 685
f 678 550 535
f 552 550 678
f 680 552 678
f 688 552 680
f 555 681 538
f 681 555 541
f 690 689 682
f 543 690 682
f 558 690 543
f 682 689 683
f 683 689 691
f 683 691 684
f 684 691 692
f 692 694 693
f 692 693 559
f 684 692 559
f 548 684 559
f 686 549 559
f 693 686 559
f 695 686 693
f 687 686 696
f 696 686 695
f 688 697 552
f 552 697 560
f 562 560 697
f 562 697 698
f 565 699 564
f 699 700 564
f 700 558 564
f 700 690 558
f 693 694 701
f 701 694 702
f 704 695 703
f 695 701 703
f 695 693 701
f 695 704 696
f 698 705 562
f 562 705 566
f 566 706 567
f 705 706 566
f 569 567 706
f 569 706 707
f 572 708 571
f 699 565 571
f 708 699 571
f 709 699 708
f 700 699 710
f 710 699 709
f 702 711 701
f 701 711 703
f 707 574 569
f 712 574 707
f 583 713 708
f 583 708 572
f 715 709 714
f 709 713 714
f 709 708 713
f 709 715 710
f 712 716 574
f 574 716 584
f 718 717 586
f 584 718 586
f 716 718 584
f 719 717 718
f 591 720 592
f 721 593 592
f 721 592 720
f 722 594 593
f 722 593 721
f 594 722 723
f 724 594 723
f 595 594 724
f 724 583 595
f 583 724 713
f 725 713 724
f 713 725 596
f 598 596 725
f 596 599 713
f 599 714 713
f 599 726 714
f 717 600 586
f 719 727 717
f 727 600 717
f 727 601 600
f 601 728 602
f 727 728 601
f 604 602 728
f 604 728 729
f 606 730 720
f 606 720 591
f 732 721 731
f 721 730 731
f 721 720 730
f 721 732 722
f 722 732 733
f 722 733 723
f 725 608 598
f 734 608 725
f 735 726 599
f 735 599 609
f 609 611 735
f 735 611 736
f 729 737 604
f 604 737 612
f 614 612 737
f 614 737 738
f 740 739 730
f 606 740 730
f 615 740 606
f 730 739 731
f 734 741 608
f 608 741 616
f 741 743 742
f 617 741 742
f 616 741 617
f 744 620 618
f 620 744 742
f 736 742 744
f 742 736 617
f 611 617 736
f 618 621 744
f 744 621 745
f 738 746 614
f 614 746 622
f 615 622 740
f 740 622 746
f 742 743 747
f 747 743 748
f 749 623 620
f 742 749 620
f 747 749 742
f 749 750 623
f 750 621 623
f 750 745 621
f 748 751 747
f 747 751 749
f 749 751 752
f 749 752 750
f 753 624 625
f 626 754 625
f 625 754 753
f 627 755 626
f 626 755 754
f 628 756 627
f 627 756 755
f 629 757 628
f 628 757 756
f 630 758 629
f 629 758 757
f 758 630 759
f 630 760 759
f 630 631 760
f 761 631 632
f 761 760 631
f 762 632 633
f 762 761 632
f 763 633 634
f 763 762 633
f 764 634 635
f 764 763 634
f 635 637 764
f 764 637 765
f 767 766 753
f 766 624 753
f 766 639 624
f 767 753 754
f 767 754 768
f 768 754 755
f 768 755 769
f 769 755 756
f 769 756 770
f 770 756 757
f 770 757 771
f 771 757 758
f 771 758 772
f 772 758 759
f 773 765 637
f 773 637 640
f 775 773 774
f 773 641 774
f 773 640 641
f 642 776 641
f 641 776 774
f 644 776 642
f 766 645 639
f 777 645 766
f 778 775 774
f 778 774 776
f 778 776 779
f 781 779 780
f 780 779 646
f 779 776 646
f 776 644 646
f 648 780 646
f 777 782 645
f 645 782 650
f 651 650 782
f 651 782 783
f 784 781 780
f 784 780 648
f 652 784 648
f 785 784 652
f 787 785 786
f 785 653 786
f 785 652 653
f 654 788 653
f 653 788 786
f 656 788 654
f 783 657 651
f 789 657 783
f 790 787 786
f 790 786 788
f 790 788 791
f 793 791 792
f 792 791 658
f 791 788 658
f 788 656 658
f 659 794 658
f 658 794 792
f 661 794 659
f 796 662 795
f 662 789 795
f 662 657 789
f 798 797 796
f 798 796 795
f 799 797 798
f 800 793 792
f 800 792 794
f 800 794 801
f 801 794 661
f 663 801 661
f 802 801 663
f 804 802 803
f 802 664 803
f 802 663 664
f 665 803 664
f 796 666 662
f 666 796 667
f 667 796 797
f 668 667 797
f 799 668 797
f 805 668 799
f 806 804 803
f 808 806 807
f 807 806 669
f 806 803 669
f 803 665 669
f 670 807 669
f 810 671 809
f 671 805 809
f 671 668 805
f 811 810 809
f 812 808 807
f 814 812 813
f 813 812 672
f 812 807 672
f 807 670 672
f 674 813 672
f 815 675 810
f 810 675 671
f 810 811 816
f 810 816 815
f 817 814 813
f 813 674 817
f 674 818 817
f 674 676 818
f 815 677 675
f 816 819 815
f 819 677 815
f 819 679 677
f 821 820 680
f 679 821 680
f 819 821 679
f 822 820 821
f 676 685 823
f 824 676 823
f 818 676 824
f 687 823 685
f 825 688 820
f 820 688 680
f 820 822 826
f 820 826 825
f 690 827 689
f 828 691 689
f 828 689 827
f 829 692 691
f 829 691 828
f 829 694 692
f 830 824 823
f 823 687 830
f 687 831 830
f 687 696 831
f 825 697 688
f 833 832 698
f 833 698 697
f 826 833 697
f 825 826 697
f 834 832 833
f 700 835 827
f 700 827 690
f 827 836 828
f 827 835 836
f 828 837 829
f 828 836 837
f 837 702 694
f 837 694 829
f 703 838 704
f 838 839 704
f 839 696 704
f 839 831 696
f 832 705 698
f 834 840 832
f 840 705 832
f 840 706 705
f 842 841 707
f 706 842 707
f 840 842 706
f 843 841 842
f 710 844 835
f 710 835 700
f 835 845 836
f 835 844 845
f 836 846 837
f 836 845 846
f 847 711 702
f 837 847 702
f 846 847 837
f 838 703 711
f 847 838 711
f 848 838 847
f 839 838 849
f 849 838 848
f 850 712 841
f 841 712 707
f 841 843 851
f 841 851 850
f 714 852 715
f 844 710 715
f 852 844 715
f 853 844 852
f 844 854 845
f 844 853 854
f 856 846 855
f 846 854 855
f 846 845 854
f 846 856 847
f 847 856 857
f 847 857 848
f 848 857 858
f 848 858 849
f 850 716 712
f 851 859 850
f 859 716 850
f 859 718 716
f 719 718 859
f 719 859 860
f 862 861 724
f 862 724 723
f 725 724 861
f 725 861 863
f 726 864 852
f 726 852 714
f 852 865 853
f 852 864 865
f 867 854 866
f 854 865 866
f 854 853 865
f 854 867 855
f 860 868 719
f 719 868 727
f 727 869 728
f 868 869 727
f 871 870 729
f 728 871 729
f 869 871 728
f 873 872 870
f 873 870 871
f 875 874 872
f 875 872 873
f 732 731 874
f 875 732 874
f 876 732 875
f 732 877 733
f 876 877 732
f 723 733 862
f 862 733 877
f 863 734 725
f 878 734 863
f 735 864 726
f 864 735 736
f 879 864 736
f 865 864 879
f 866 865 880
f 880 865 879
f 870 737 729
f 737 870 738
f 870 881 738
f 870 872 881
f 740 881 739
f 881 874 739
f 881 872 874
f 739 874 731
f 878 882 734
f 734 882 741
f 884 883 743
f 741 884 743
f 882 884 741
f 736 744 879
f 883 884 885
f 744 745 879
f 745 880 879
f 745 886 880
f 881 746 738
f 746 881 740
f 887 748 883
f 883 748 743
f 883 885 888
f 889 883 888
f 887 883 889
f 888 886 889
f 886 750 889
f 886 745 750
f 887 751 748
f 751 887 752
f 752 887 889
f 752 889 750
f 890 759 760
f 761 891 760
f 760 891 890
f 762 892 761
f 761 892 891
f 763 893 762
f 762 893 892
f 764 894 763
f 763 894 893
f 765 894 764
f 895 766 767
f 768 896 767
f 767 896 895
f 769 897 768
f 768 897 896
f 770 898 769
f 769 898 897
f 771 899 770
f 770 899 898
f 899 771 900
f 771 901 900
f 771 772 901
f 772 759 890
f 902 772 890
f 901 772 902
f 902 890 891
f 902 891 903
f 903 891 892
f 903 892 904
f 904 892 893
f 904 893 905
f 905 893 894
f 905 894 906
f 906 894 765
f 773 906 765
f 907 906 773
f 773 775 907
f 907 775 908
f 909 777 895
f 895 777 766
f 910 895 896
f 909 895 910
f 911 896 897
f 910 896 911
f 912 897 898
f 911 897 912
f 899 914 913
f 912 899 913
f 898 899 912
f 914 899 900
f 915 908 775
f 915 775 778
f 916 778 779
f 916 915 778
f 779 781 916
f 916 781 917
f 909 782 777
f 782 909 783
f 909 918 783
f 909 910 918
f 911 920 919
f 918 911 919
f 910 911 918
f 920 911 912
f 920 912 921
f 921 912 913
f 781 784 922
f 923 781 922
f 917 781 923
f 785 924 784
f 784 924 922
f 787 924 785
f 925 789 918
f 918 789 783
f 918 919 926
f 927 918 926
f 925 918 927
f 928 927 926
f 929 923 922
f 929 922 924
f 929 924 930
f 932 930 931
f 931 930 790
f 930 924 790
f 924 787 790
f 791 933 790
f 790 933 931
f 793 933 791
f 925 795 789
f 795 925 798
f 798 925 927
f 799 798 927
f 928 799 927
f 934 799 928
f 935 932 931
f 937 936 935
f 931 937 935
f 933 937 931
f 800 938 793
f 938 933 793
f 938 937 933
f 801 939 800
f 800 939 938
f 802 940 801
f 801 940 939
f 804 940 802
f 934 805 799
f 941 805 934
f 942 936 937
f 942 937 938
f 942 938 943
f 943 938 939
f 943 939 944
f 946 945 944
f 939 946 944
f 940 946 939
f 806 947 804
f 947 940 804
f 947 946 940
f 808 947 806
f 941 948 805
f 805 948 809
f 811 809 948
f 811 948 949
f 950 945 946
f 950 946 947
f 950 947 951
f 953 951 952
f 952 951 812
f 951 947 812
f 947 808 812
f 814 952 812
f 955 816 954
f 816 949 954
f 816 811 949
f 956 955 954
f 957 953 952
f 959 957 958
f 958 957 817
f 957 952 817
f 952 814 817
f 818 958 817
f 955 819 816
f 956 960 955
f 960 819 955
f 960 821 819
f 962 961 822
f 821 962 822
f 960 962 821
f 963 961 962
f 959 958 964
f 959 964 965
f 824 964 818
f 818 964 958
f 966 826 961
f 961 826 822
f 961 963 967
f 961 967 966
f 968 965 964
f 970 968 969
f 969 968 830
f 968 964 830
f 964 824 830
f 831 969 830
f 966 833 826
f 972 971 834
f 972 834 833
f 967 972 833
f 966 967 833
f 973 971 972
f 974 970 969
f 969 831 974
f 831 975 974
f 831 839 975
f 971 840 834
f 973 976 971
f 976 840 971
f 976 842 840
f 978 977 843
f 842 978 843
f 976 978 842
f 979 977 978
f 849 975 839
f 849 980 975
f 981 851 977
f 977 851 843
f 977 979 982
f 977 982 981
f 855 983 856
f 984 857 856
f 984 856 983
f 857 984 985
f 986 857 985
f 858 857 986
f 849 858 980
f 980 858 986
f 981 859 851
f 988 987 860
f 988 860 859
f 982 988 859
f 981 982 859
f 990 989 987
f 990 987 988
f 991 989 990
f 993 992 861
f 993 861 862
f 863 861 992
f 863 992 994
f 866 995 867
f 995 996 867
f 867 996 855
f 996 997 855
f 997 983 855
f 983 997 984
f 984 997 998
f 984 998 985
f 987 868 860
f 868 987 869
f 869 987 989
f 991 999 989
f 999 869 989
f 999 871 869
f 871 1000 873
f 999 1000 871
f 873 1001 875
f 1000 1001 873
f 875 1002 876
f 1001 1002 875
f 876 1003 877
f 1002 1003 876
f 862 877 993
f 993 877 1003
f 1005 878 1004
f 878 994 1004
f 878 863 994
f 1006 1005 1004
f 880 1007 995
f 880 995 866
f 996 995 1008
f 1008 995 1007
f 1005 882 878
f 1006 1009 1005
f 1009 882 1005
f 1009 884 882
f 1011 1010 885
f 884 1011 885
f 1009 1011 884
f 1011 1012 1007
f 886 1011 1007
f 880 886 1007
f 1010 1011 886
f 1007 1012 1008
f 1010 888 885
f 888 1010 886
f 1014 1013 901
f 901 1013 900
f 1016 1014 1015
f 1014 902 1015
f 1014 901 902
f 903 1017 902
f 902 1017 1015
f 904 1018 903
f 903 1018 1017
f 905 1019 904
f 904 1019 1018
f 906 1020 905
f 905 1020 1019
f 907 1021 906
f 906 1021 1020
f 908 1021 907
f 1023 1022 914
f 914 1022 913
f 914 900 1013
f 914 1013 1023
f 1024 1016 1015
f 1024 1015 1017
f 1024 1017 1025
f 1027 1026 1025
f 1017 1027 1025
f 1018 1027 1017
f 1019 1029 1028
f 1027 1019 1028
f 1018 1019 1027
f 1031 1030 1029
f 1019 1031 1029
f 1020 1031 1019
f 1032 1020 1021
f 1031 1020 1032
f 915 1033 908
f 1033 1021 908
f 1033 1032 1021
f 916 1034 915
f 915 1034 1033
f 917 1034 916
f 1035 919 920
f 1035 920 1036
f 920 1037 1036
f 920 921 1037
f 921 913 1022
f 921 1022 1037
f 1038 1026 1027
f 1038 1027 1028
f 1039 1030 1031
f 1041 1040 1039
f 1031 1041 1039
f 1032 1041 1031
f 1033 1043 1042
f 1041 1033 1042
f 1032 1033 1041
f 1045 1044 1043
f 1033 1045 1043
f 1034 1045 1033
f 923 1045 917
f 917 1045 1034
f 1035 926 919
f 928 926 1035
f 1036 928 1035
f 1046 928 1036
f 1047 1040 1041
f 1047 1041 1042
f 1048 1044 1045
f 1050 1048 1049
f 1049 1048 929
f 1048 1045 929
f 1045 923 929
f 930 1051 929
f 929 1051 1049
f 932 1051 930
f 1053 934 1052
f 934 1046 1052
f 934 928 1046
f 1054 1053 1052
f 1055 1050 1049
f 1057 1056 1055
f 1049 1057 1055
f 1051 1057 1049
f 935 1058 932
f 1058 1051 932
f 1058 1057 1051
f 936 1058 935
f 1059 941 1053
f 1053 941 934
f 1053 1054 1060
f 1061 1053 1060
f 1059 1053 1061
f 1062 1061 1060
f 1063 1056 1057
f 1065 1064 1063
f 1057 1065 1063
f 1058 1065 1057
f 942 1066 936
f 1066 1058 936
f 1066 1065 1058
f 943 1067 942
f 942 1067 1066
f 944 1068 943
f 943 1068 1067
f 945 1068 944
f 1059 948 941
f 948 1059 949
f 1059 1069 949
f 1059 1061 1069
f 1061 1062 1070
f 1071 1061 1070
f 1069 1061 1071
f 1072 1071 1070
f 1073 1064 1065
f 1073 1065 1066
f 1073 1066 1074
f 1074 1066 1067
f 1074 1067 1075
f 1077 1076 1075
f 1067 1077 1075
f 1068 1077 1067
f 950 1078 945
f 1078 1068 945
f 1078 1077 1068
f 951 1079 950
f 950 1079 1078
f 953 1079 951
f 1069 954 949
f 954 1069 956
f 1069 1080 956
f 1069 1071 1080
f 1071 1072 1081
f 1082 1071 1081
f 1080 1071 1082
f 1083 1082 1081
f 1084 1076 1077
f 1084 1077 1078
f 1084 1078 1085
f 1087 1086 1085
f 1078 1087 1085
f 1079 1087 1078
f 957 1088 953
f 1088 1079 953
f 1088 1087 1079
f 959 1088 957
f 1080 960 956
f 960 1080 962
f 962 1080 1082
f 963 962 1082
f 1083 963 1082
f 1089 963 1083
f 1090 1086 1087
f 1092 1091 1090
f 1087 1092 1090
f 1088 1092 1087
f 965 1092 959
f 959 1092 1088
f 1089 967 963
f 1093 967 1089
f 1091 1092 1094
f 1091 1094 1095
f 968 1096 965
f 1096 1092 965
f 1096 1094 1092
f 970 1096 968
f 1093 1097 967
f 967 1097 972
f 1099 1098 973
f 972 1099 973
f 1097 1099 972
f 1100 1098 1099
f 1101 1095 1094
f 1101 1094 1096
f 1101 1096 1102
f 1104 1102 1103
f 1103 1102 974
f 1102 1096 974
f 1096 970 974
f 975 1103 974
f 1098 976 973
f 1100 1105 1098
f 1105 976 1098
f 1105 978 976
f 979 978 1105
f 979 1105 1106
f 1104 1103 1107
f 1104 1107 1108
f 980 1107 975
f 975 1107 1103
f 1110 982 1109
f 982 1106 1109
f 982 979 1106
f 1111 1110 1109
f 1108 1107 986
f 985 1108 986
f 1112 1108 985
f 986 1107 980
f 1110 988 982
f 1111 1113 1110
f 1113 988 1110
f 1113 990 988
f 1115 1114 991
f 990 1115 991
f 1113 1115 990
f 1117 1116 1114
f 1117 1114 1115
f 1119 1118 1116
f 1119 1116 1117
f 1120 1118 1119
f 993 1121 992
f 994 992 1121
f 1124 1123 1122
f 1126 1125 1124
f 1126 1124 1122
f 1128 1127 1125
f 1128 1125 1126
f 1130 1129 1127
f 1130 1127 1128
f 997 996 1129
f 1130 997 1129
f 1131 997 1130
f 997 1132 998
f 1131 1132 997
f 985 998 1112
f 1112 998 1132
f 1114 999 991
f 999 1114 1000
f 1000 1114 1116
f 1000 1116 1001
f 1001 1116 1118
f 1120 1133 1118
f 1133 1001 1118
f 1133 1002 1001
f 1002 1134 1003
f 1133 1134 1002
f 993 1003 1121
f 1003 1135 1121
f 1003 1134 1135
f 1123 1124 1135
f 1124 1004 1135
f 994 1121 1135
f 994 1135 1004
f 1004 1124 1006
f 1124 1136 1006
f 1124 1125 1136
f 1137 1125 1127
f 1136 1125 1137
f 1138 1127 1129
f 1137 1127 1138
f 1008 1138 996
f 996 1138 1129
f 1136 1009 1006
f 1009 1136 1011
f 1011 1136 1137
f 1011 1137 1012
f 1012 1137 1138
f 1012 1138 1008
f 1139 1013 1014
f 1016 1139 1014
f 1140 1022 1023
f 1141 1140 1023
f 1141 1023 1013
f 1142 1141 1013
f 1139 1142 1013
f 1144 1142 1143
f 1143 1142 1024
f 1142 1139 1024
f 1139 1016 1024
f 1025 1145 1024
f 1024 1145 1143
f 1026 1145 1025
f 1146 1028 1029
f 1030 1146 1029
f 1147 1036 1037
f 1022 1140 1037
f 1140 1147 1037
f 1140 1148 1147
f 1140 1141 1149
f 1140 1149 1148
f 1150 1144 1143
f 1152 1151 1150
f 1143 1152 1150
f 1145 1152 1143
f 1038 1153 1026
f 1153 1145 1026
f 1153 1152 1145
f 1154 1153 1038
f 1154 1038 1028
f 1155 1154 1028
f 1146 1155 1028
f 1157 1155 1156
f 1156 1155 1039
f 1155 1146 1039
f 1146 1030 1039
f 1040 1156 1039
f 1158 1042 1043
f 1044 1158 1043
f 1159 1046 1147
f 1147 1046 1036
f 1148 1161 1160
f 1159 1148 1160
f 1147 1148 1159
f 1161 1148 1149
f 1162 1151 1152
f 1164 1163 1162
f 1152 1164 1162
f 1153 1164 1152
f 1153 1154 1165
f 1153 1165 1164
f 1166 1157 1156
f 1168 1166 1167
f 1167 1166 1047
f 1166 1156 1047
f 1156 1040 1047
f 1042 1158 1047
f 1158 1167 1047
f 1158 1169 1167
f 1169 1158 1044
f 1170 1169 1044
f 1048 1170 1044
f 1171 1169 1170
f 1048 1050 1170
f 1170 1050 1172
f 1159 1052 1046
f 1054 1052 1159
f 1160 1054 1159
f 1173 1054 1160
f 1174 1163 1164
f 1174 1164 1165
f 1175 1168 1167
f 1175 1167 1169
f 1175 1169 1176
f 1176 1169 1171
f 1050 1055 1177
f 1178 1050 1177
f 1172 1050 1178
f 1056 1177 1055
f 1173 1179 1054
f 1054 1179 1060
f 1062 1060 1179
f 1062 1179 1180
f 1181 1178 1177
f 1183 1181 1182
f 1182 1181 1063
f 1181 1177 1063
f 1177 1056 1063
f 1064 1182 1063
f 1180 1184 1062
f 1062 1184 1070
f 1186 1185 1072
f 1070 1186 1072
f 1184 1186 1070
f 1187 1185 1186
f 1183 1182 1188
f 1183 1188 1189
f 1073 1190 1064
f 1190 1182 1064
f 1190 1188 1182
f 1074 1191 1073
f 1073 1191 1190
f 1075 1192 1074
f 1074 1192 1191
f 1076 1192 1075
f 1185 1081 1072
f 1083 1081 1185
f 1187 1083 1185
f 1193 1083 1187
f 1189 1188 1194
f 1189 1194 1195
f 1196 1188 1190
f 1194 1188 1196
f 1197 1190 1191
f 1196 1190 1197
f 1198 1191 1192
f 1197 1191 1198
f 1084 1199 1076
f 1199 1192 1076
f 1199 1198 1192
f 1085 1200 1084
f 1084 1200 1199
f 1086 1200 1085
f 1202 1089 1201
f 1089 1193 1201
f 1089 1083 1193
f 1203 1202 1201
f 1204 1195 1194
f 1204 1194 1196
f 1204 1196 1205
f 1207 1206 1205
f 1196 1207 1205
f 1197 1207 1196
f 1208 1197 1198
f 1207 1197 1208
f 1209 1198 1199
f 1208 1198 1209
f 1210 1199 1200
f 1209 1199 1210
f 1090 1211 1086
f 1211 1200 1086
f 1211 1210 1200
f 1091 1211 1090
f 1212 1093 1202
f 1202 1093 1089
f 1202 1203 1213
f 1214 1202 1213
f 1212 1202 1214
f 1215 1214 1213
f 1216 1206 1207
f 1218 1217 1216
f 1207 1218 1216
f 1208 1218 1207
f 1219 1208 1209
f 1218 1208 1219
f 1220 1209 1210
f 1219 1209 1220
f 1221 1210 1211
f 1220 1210 1221
f 1095 1221 1091
f 1091 1221 1211
f 1212 1097 1093
f 1097 1212 1099
f 1099 1212 1214
f 1223 1222 1100
f 1223 1100 1099
f 1215 1223 1099
f 1214 1215 1099
f 1225 1224 1222
f 1225 1222 1223
f 1227 1226 1224
f 1227 1224 1225
f 1228 1226 1227
f 1231 1230 1229
f 1229 1230 1217
f 1218 1229 1217
f 1232 1229 1218
f 1233 1218 1219
f 1232 1218 1233
f 1234 1219 1220
f 1233 1219 1234
f 1221 1236 1235
f 1234 1221 1235
f 1220 1221 1234
f 1238 1236 1237
f 1237 1236 1101
f 1236 1221 1101
f 1221 1095 1101
f 1102 1239 1101
f 1101 1239 1237
f 1104 1239 1102
f 1222 1105 1100
f 1105 1222 1106
f 1222 1240 1106
f 1222 1224 1240
f 1241 1224 1226
f 1240 1224 1241
f 1226 1228 1242
f 1226 1242 1241
f 1231 1229 1243
f 1231 1243 1244
f 1245 1229 1232
f 1243 1229 1245
f 1233 1247 1246
f 1245 1233 1246
f 1232 1233 1245
f 1247 1233 1234
f 1247 1234 1248
f 1248 1234 1235
f 1238 1237 1249
f 1238 1249 1250
f 1251 1237 1239
f 1249 1237 1251
f 1108 1251 1104
f 1104 1251 1239
f 1240 1109 1106
f 1109 1240 1111
f 1240 1252 1111
f 1240 1241 1252
f 1241 1242 1253
f 1254 1241 1253
f 1252 1241 1254
f 1256 1255 1254
f 1256 1254 1253
f 1258 1257 1255
f 1258 1255 1256
f 1260 1259 1257
f 1260 1257 1258
f 1262 1261 1259
f 1262 1259 1260
f 1261 1264 1263
f 1261 1243 1264
f 1261 1262 1244
f 1243 1261 1244
f 1264 1243 1245
f 1264 1245 1265
f 1265 1245 1246
f 1268 1267 1266
f 1266 1267 1250
f 1249 1266 1250
f 1269 1266 1249
f 1270 1249 1251
f 1269 1249 1270
f 1112 1270 1108
f 1108 1270 1251
f 1252 1113 1111
f 1113 1252 1115
f 1115 1252 1254
f 1115 1254 1117
f 1117 1254 1255
f 1117 1255 1119
f 1119 1255 1257
f 1119 1257 1120
f 1257 1271 1120
f 1257 1259 1271
f 1272 1259 1261
f 1271 1259 1272
f 1261 1263 1273
f 1274 1261 1273
f 1272 1261 1274
f 1122 1123 1274
f 1273 1122 1274
f 1275 1122 1273
f 1122 1276 1126
f 1275 1276 1122
f 1126 1277 1128
f 1276 1277 1126
f 1266 1130 1268
f 1130 1277 1268
f 1130 1128 1277
f 1130 1266 1131
f 1131 1266 1269
f 1131 1269 1132
f 1132 1269 1270
f 1132 1270 1112
f 1271 1133 1120
f 1133 1271 1134
f 1134 1271 1272
f 1134 1272 1135
f 1135 1272 1274
f 1135 1274 1123
f 1278 1141 1142
f 1144 1278 1142
f 1279 1149 1278
f 1278 1149 1141
f 1150 1280 1144
f 1280 1278 1144
f 1280 1279 1278
f 1151 1280 1150
f 1281 1154 1155
f 1157 1281 1155
f 1282 1160 1161
f 1149 1279 1161
f 1279 1282 1161
f 1279 1283 1282
f 1284 1279 1280
f 1283 1279 1284
f 1162 1285 1151
f 1285 1280 1151
f 1285 1284 1280
f 1163 1285 1162
f 1286 1165 1281
f 1281 1165 1154
f 1166 1287 1157
f 1287 1281 1157
f 1287 1286 1281
f 1168 1287 1166
f 1288 1171 1170
f 1172 1288 1170
f 1289 1173 1282
f 1282 1173 1160
f 1290 1282 1283
f 1289 1282 1290
f 1284 1292 1291
f 1290 1284 1291
f 1283 1284 1290
f 1292 1284 1285
f 1292 1285 1293
f 1295 1293 1294
f 1294 1293 1174
f 1293 1285 1174
f 1285 1163 1174
f 1165 1286 1174
f 1286 1294 1174
f 1286 1296 1294
f 1287 1298 1297
f 1296 1287 1297
f 1286 1287 1296
f 1298 1287 1168
f 1175 1298 1168
f 1299 1298 1175
f 1300 1175 1176
f 1300 1299 1175
f 1176 1171 1288
f 1301 1176 1288
f 1300 1176 1301
f 1288 1172 1301
f 1172 1302 1301
f 1172 1178 1302
f 1289 1179 1173
f 1179 1289 1180
f 1289 1303 1180
f 1289 1290 1303
f 1290 1291 1304
f 1305 1290 1304
f 1303 1290 1305
f 1307 1306 1305
f 1307 1305 1304
f 1306 1307 1295
f 1294 1306 1295
f 1308 1306 1294
f 1309 1294 1296
f 1308 1294 1309
f 1296 1297 1310
f 1296 1310 1309
f 1311 1302 1178
f 1311 1178 1181
f 1181 1183 1311
f 1311 1183 1312
f 1303 1184 1180
f 1184 1303 1186
f 1186 1303 1305
f 1186 1305 1187
f 1305 1313 1187
f 1305 1306 1313
f 1314 1306 1308
f 1313 1306 1314
f 1315 1308 1309
f 1314 1308 1315
f 1309 1310 1316
f 1317 1309 1316
f 1315 1309 1317
f 1318 1317 1316
f 1321 1320 1319
f 1320 1312 1319
f 1312 1189 1319
f 1312 1183 1189
f 1322 1193 1313
f 1313 1193 1187
f 1323 1313 1314
f 1322 1313 1323
f 1324 1314 1315
f 1323 1314 1324
f 1325 1315 1317
f 1324 1315 1325
f 1317 1318 1326
f 1327 1317 1326
f 1325 1317 1327
f 1328 1327 1326
f 1321 1319 1329
f 1321 1329 1330
f 1195 1329 1189
f 1189 1329 1319
f 1322 1201 1193
f 1201 1322 1203
f 1322 1331 1203
f 1322 1323 1331
f 1332 1323 1324
f 1331 1323 1332
f 1333 1324 1325
f 1332 1324 1333
f 1334 1325 1327
f 1333 1325 1334
f 1327 1328 1335
f 1336 1327 1335
f 1334 1327 1336
f 1338 1337 1336
f 1338 1336 1335
f 1337 1338 1330
f 1329 1337 1330
f 1339 1337 1329
f 1204 1340 1195
f 1340 1329 1195
f 1340 1339 1329
f 1205 1341 1204
f 1204 1341 1340
f 1206 1341 1205
f 1331 1213 1203
f 1213 1331 1215
f 1331 1342 1215
f 1331 1332 1342
f 1343 1332 1333
f 1342 1332 1343
f 1344 1333 1334
f 1343 1333 1344
f 1345 1334 1336
f 1344 1334 1345
f 1346 1336 1337
f 1345 1336 1346
f 1347 1337 1339
f 1346 1337 1347
f 1348 1339 1340
f 1347 1339 1348
f 1349 1340 1341
f 1348 1340 1349
f 1216 1350 1206
f 1350 1341 1206
f 1350 1349 1341
f 1217 1350 1216
f 1342 1223 1215
f 1223 1342 1225
f 1225 1342 1343
f 1225 1343 1227
f 1227 1343 1344
f 1227 1344 1228
f 1344 1351 1228
f 1344 1345 1351
f 1352 1345 1346
f 1351 1345 1352
f 1353 1346 1347
f 1352 1346 1353
f 1354 1347 1348
f 1353 1347 1354
f 1355 1348 1349
f 1354 1348 1355
f 1231 1355 1230
f 1355 1350 1230
f 1355 1349 1350
f 1230 1350 1217
f 1356 1235 1236
f 1238 1356 1236
f 1357 1242 1351
f 1351 1242 1228
f 1358 1351 1352
f 1357 1351 1358
f 1359 1352 1353
f 1358 1352 1359
f 1360 1353 1354
f 1359 1353 1360
f 1361 1354 1355
f 1360 1354 1361
f 1244 1361 1231
f 1231 1361 1355
f 1362 1246 1247
f 1248 1363 1247
f 1247 1363 1362
f 1235 1356 1248
f 1356 1363 1248
f 1356 1364 1363
f 1250 1364 1238
f 1238 1364 1356
f 1357 1253 1242
f 1253 1357 1256
f 1256 1357 1358
f 1256 1358 1258
f 1258 1358 1359
f 1258 1359 1260
f 1260 1359 1360
f 1260 1360 1262
f 1262 1360 1361
f 1262 1361 1244
f 1365 1263 1264
f 1265 1366 1264
f 1264 1366 1365
f 1246 1362 1265
f 1362 1366 1265
f 1362 1367 1366
f 1368 1362 1363
f 1367 1362 1368
f 1268 1368 1267
f 1368 1364 1267
f 1368 1363 1364
f 1267 1364 1250
f 1365 1273 1263
f 1273 1365 1275
f 1275 1365 1366
f 1275 1366 1276
f 1276 1366 1367
f 1276 1367 1277
f 1277 1367 1368
f 1277 1368 1268
f 1369 1291 1292
f 1293 1370 1292
f 1292 1370 1369
f 1295 1370 1293
f 1371 1297 1298
f 1299 1372 1298
f 1298 1372 1371
f 1300 1373 1299
f 1299 1373 1372
f 1301 1374 1300
f 1300 1374 1373
f 1302 1374 1301
f 1369 1304 1291
f 1304 1369 1307
f 1307 1369 1370
f 1307 1370 1295
f 1375 1310 1371
f 1371 1310 1297
f 1376 1371 1372
f 1375 1371 1376
f 1377 1372 1373
f 1376 1372 1377
f 1378 1373 1374
f 1377 1373 1378
f 1311 1379 1302
f 1379 1374 1302
f 1379 1378 1374
f 1312 1379 1311
f 1375 1316 1310
f 1316 1375 1318
f 1375 1380 1318
f 1375 1376 1380
f 1381 1376 1377
f 1380 1376 1381
f 1382 1377 1378
f 1381 1377 1382
f 1321 1382 1320
f 1382 1379 1320
f 1382 1378 1379
f 1320 1379 1312
f 1380 1326 1318
f 1326 1380 1328
f 1380 1383 1328
f 1380 1381 1383
f 1384 1381 1382
f 1383 1381 1384
f 1330 1384 1321
f 1321 1384 1382
f 1383 1335 1328
f 1335 1383 1338
f 1338 1383 1384
f 1338 1384 1330
