v -23.2 2.0 -13.0
v -23.0 2.0 -13.2
v -23.0 1.8 -13.0
v -23.0 2.0 -12.2
v -23.2 3.0 -14.0
v -23.0 3.0 -14.2
v -23.0 2.8 -14.0
v -23.2 3.0 -13.0
v -23.0 3.0 -12.8
v -23.2 4.0 -14.0
v -23.0 4.0 -14.3
v -23.0 4.0 -13.7
v -23.0 3.3 -13.0
v -23.0 4.9 -14.0
v -22.0 2.0 -13.4
v -22.0 1.7 -13.0
v -22.0 1.8 -12.0
v -22.8 2.0 -12.0
v -22.0 2.0 -11.8
v -22.0 3.0 -14.4
v -22.0 2.5 -14.0
v -22.0 2.2 -12.0
v -22.0 3.0 -12.5
v -22.3 4.0 -15.0
v -22.0 4.0 -15.3
v -22.0 3.7 -15.0
v -22.0 3.5 -13.0
v -22.0 4.0 -13.4
v -22.4 5.0 -15.0
v -22.0 5.0 -15.4
v -22.9 5.0 -14.0
v -22.0 5.0 -13.7
v -22.0 6.0 -15.0
v -22.0 6.0 -15.0
v -22.0 6.0 -15.0
v -22.0 5.4 -14.0
v -22.0 6.0 -15.0
v -21.0 2.0 -13.4
v -21.0 1.7 -13.0
v -21.0 1.8 -12.0
v -21.0 2.0 -11.8
v -21.0 3.0 -14.5
v -21.0 2.5 -14.0
v -21.0 2.2 -12.0
v -21.0 3.0 -12.5
v -21.0 4.0 -15.6
v -21.0 3.5 -15.0
v -21.0 3.5 -13.0
v -21.0 4.0 -13.4
v -21.4 5.0 -16.0
v -21.0 5.0 -16.3
v -21.0 4.5 -16.0
v -21.0 5.0 -13.7
v -21.2 6.0 -16.0
v -21.0 6.0 -16.2
v -21.0 5.4 -14.0
v -21.0 6.0 -14.6
v -21.0 6.2 -16.0
v -21.0 6.3 -15.0
v -20.0 2.0 -13.3
v -20.0 1.8 -13.0
v -20.2 2.0 -12.0
v -20.0 2.0 -12.1
v -20.0 3.0 -14.5
v -20.0 2.6 -14.0
v -20.0 3.0 -12.6
v -20.0 4.0 -17.0
v -20.0 4.0 -17.0
v -20.0 4.0 -17.0
v -20.0 3.7 -16.0
v -20.4 4.0 -16.0
v -20.0 3.4 -15.0
v -20.0 3.4 -13.0
v -20.0 4.0 -13.5
v -20.0 4.1 -17.0
v -20.0 5.0 -16.8
v -20.5 5.0 -14.0
v -20.0 4.6 -14.0
v -20.0 5.0 -14.3
v -20.0 6.0 -16.5
v -20.0 6.0 -14.6
v -20.0 6.4 -16.0
v -20.0 6.4 -15.0
v -19.7 2.0 -13.0
v -19.0 3.0 -14.6
v -19.0 2.6 -14.0
v -19.0 2.7 -13.0
v -19.0 3.0 -12.8
v -19.0 4.0 -17.2
v -19.0 3.8 -17.0
v -19.0 3.9 -16.0
v -19.0 3.4 -15.0
v -19.0 3.3 -13.0
v -19.0 4.0 -13.5
v -19.7 5.0 -17.0
v -19.0 5.0 -17.5
v -19.0 4.6 -14.0
v -19.0 5.0 -14.3
v -19.4 6.0 -17.0
v -19.0 6.0 -17.3
v -19.0 6.0 -14.6
v -19.0 6.4 -17.0
v -19.1 7.0 -16.0
v -19.0 7.0 -16.2
v -19.0 7.0 -15.8
v -19.0 6.4 -15.0
v -19.0 7.1 -16.0
v -18.5 3.0 -15.0
v -18.0 3.0 -15.4
v -18.0 2.7 -15.0
v -18.0 2.6 -14.0
v -18.0 2.9 -13.0
v -18.0 3.0 -12.9
v -18.0 4.0 -17.4
v -18.0 3.6 -17.0
v -18.0 3.5 -16.0
v -18.0 3.1 -13.0
v -18.0 4.0 -13.3
v -18.1 5.0 -18.0
v -18.0 5.0 -18.1
v -18.0 4.9 -18.0
v -18.5 5.0 -14.0
v -18.0 5.0 -13.7
v -18.0 5.1 -18.0
v -18.0 6.0 -17.6
v -18.0 5.4 -14.0
v -18.0 6.0 -14.5
v -18.4 7.0 -17.0
v -18.0 7.0 -17.2
v -18.0 6.5 -15.0
v -18.0 7.0 -15.6
v -18.0 7.2 -17.0
v -18.0 7.4 -16.0
v -17.0 3.0 -15.6
v -17.0 2.6 -15.0
v -17.0 2.6 -14.0
v -17.9 3.0 -13.0
v -17.0 3.0 -13.5
v -17.0 4.0 -17.5
v -17.0 3.6 -17.0
v -17.0 3.3 -16.0
v -17.0 3.8 -13.0
v -17.2 4.0 -13.0
v -17.0 4.0 -12.9
v -17.0 5.0 -18.1
v -17.0 4.8 -18.0
v -17.0 4.2 -13.0
v -17.0 5.0 -13.5
v -17.0 5.2 -18.0
v -17.0 6.0 -17.6
v -17.0 5.5 -14.0
v -17.0 6.0 -14.5
v -17.0 7.0 -17.3
v -17.0 6.5 -15.0
v -17.0 7.0 -15.5
v -17.0 7.3 -17.0
v -17.0 7.4 -16.0
v -16.5 3.0 -16.0
v -16.0 3.0 -16.4
v -16.0 2.7 -16.0
v -16.0 2.5 -15.0
v -16.0 2.6 -14.0
v -16.0 3.0 -13.5
v -16.1 4.0 -18.0
v -16.0 4.0 -18.0
v -16.0 4.0 -18.0
v -16.0 3.5 -17.0
v -16.0 3.7 -13.0
v -16.0 4.0 -12.8
v -16.8 5.0 -18.0
v -16.0 4.1 -18.0
v -16.0 5.0 -17.6
v -16.0 4.3 -13.0
v -16.0 5.0 -13.5
v -16.0 6.0 -17.5
v -16.0 5.5 -14.0
v -16.0 6.0 -14.6
v -16.0 7.0 -17.3
v -16.0 6.4 -15.0
v -16.0 7.0 -15.6
v -16.0 7.3 -17.0
v -16.0 7.4 -16.0
v -15.0 3.0 -16.3
v -15.0 2.8 -16.0
v -15.0 2.6 -15.0
v -15.0 2.6 -14.0
v -15.0 3.0 -13.6
v -15.6 4.0 -18.0
v -15.0 4.0 -17.8
v -15.0 3.7 -17.0
v -15.0 3.7 -13.0
v -15.0 4.0 -12.8
v -15.1 5.0 -17.0
v -15.0 4.8 -17.0
v -15.0 5.0 -16.9
v -15.0 4.3 -13.0
v -15.0 5.0 -13.6
v -15.0 6.0 -17.4
v -15.0 5.1 -17.0
v -15.4 6.0 -15.0
v -15.0 5.7 -15.0
v -15.0 6.0 -15.3
v -15.0 5.3 -14.0
v -15.0 7.0 -17.3
v -15.0 7.0 -15.7
v -15.0 7.3 -17.0
v -15.0 7.2 -16.0
v -14.8 3.0 -16.0
v -14.4 3.0 -15.0
v -14.0 3.0 -14.4
v -14.0 2.8 -14.0
v -14.0 3.0 -13.7
v -14.7 4.0 -17.0
v -14.3 4.0 -16.0
v -14.0 4.0 -15.5
v -14.0 3.5 -15.0
v -14.0 3.7 -13.0
v -14.0 4.0 -12.8
v -14.0 4.5 -16.0
v -14.0 5.0 -16.4
v -14.5 5.0 -14.0
v -14.0 4.7 -14.0
v -14.0 5.0 -14.4
v -14.0 4.2 -13.0
v -14.0 6.0 -17.2
v -14.0 5.7 -17.0
v -14.0 5.5 -15.0
v -14.0 6.0 -15.6
v -14.0 7.0 -17.0
v -14.6 7.0 -16.0
v -14.0 6.5 -16.0
v -14.0 7.0 -17.0
v -14.0 7.0 -17.0
v -13.0 3.0 -14.2
v -13.0 2.8 -14.0
v -13.0 3.0 -13.6
v -13.5 4.0 -15.0
v -13.0 4.0 -14.5
v -13.0 3.6 -13.0
v -13.0 4.0 -12.7
v -13.6 5.0 -16.0
v -13.2 5.0 -15.0
v -13.0 4.4 -14.0
v -13.0 4.3 -13.0
v -13.8 6.0 -17.0
v -13.3 6.0 -16.0
v -14.0 7.0 -17.0
v -12.0 3.0 -14.3
v -12.0 2.7 -14.0
v -12.0 2.7 -13.0
v -12.4 3.0 -13.0
v -12.0 3.0 -12.7
v -12.0 4.0 -14.4
v -12.0 3.7 -12.0
v -12.3 4.0 -12.0
v -12.0 4.0 -11.7
v -12.0 4.5 -14.0
v -12.0 4.7 -13.0
v -12.2 5.0 -12.0
v -12.0 5.0 -12.4
v -12.0 5.0 -11.2
v -12.0 5.2 -12.0
v -11.0 3.0 -14.3
v -11.0 2.7 -14.0
v -11.0 2.6 -13.0
v -11.0 3.0 -12.4
v -11.0 4.0 -14.5
v -11.0 3.4 -12.0
v -11.0 4.0 -11.4
v -11.1 5.0 -14.0
v -11.0 5.0 -14.1
v -11.6 5.0 -13.0
v -11.0 4.6 -11.0
v -11.9 5.0 -11.0
v -11.0 5.0 -10.8
v -11.0 5.1 -14.0
v -11.0 5.4 -13.0
v -11.0 5.6 -12.0
v -11.0 5.3 -11.0
v -10.0 3.0 -14.2
v -10.0 2.8 -14.0
v -10.0 2.5 -13.0
v -10.0 2.7 -12.0
v -10.5 3.0 -12.0
v -10.0 3.0 -11.7
v -10.0 4.0 -14.4
v -10.0 3.7 -11.0
v -10.5 4.0 -11.0
v -10.0 4.0 -10.7
v -10.0 4.6 -14.0
v -10.9 5.0 -14.0
v -10.0 5.0 -13.6
v -10.0 5.0 -10.5
v -10.0 5.6 -13.0
v -10.4 6.0 -12.0
v -10.0 6.0 -12.5
v -10.3 6.0 -11.0
v -10.0 6.0 -10.8
v -10.0 6.4 -12.0
v -10.0 6.3 -11.0
v -9.6 3.0 -14.0
v -9.0 3.0 -13.4
v -9.0 2.7 -13.0
v -9.0 2.6 -12.0
v -9.0 3.0 -11.6
v -9.0 4.0 -14.1
v -9.0 3.8 -14.0
v -9.0 3.5 -11.0
v -9.0 4.0 -10.6
v -9.0 4.2 -14.0
v -9.0 5.0 -13.6
v -9.0 5.0 -10.5
v -9.5 6.0 -13.0
v -9.0 6.0 -13.3
v -9.0 6.0 -10.5
v -9.0 6.5 -13.0
v -9.4 7.0 -12.0
v -9.0 7.0 -12.5
v -9.3 7.0 -11.0
v -9.0 7.0 -10.8
v -9.0 7.4 -12.0
v -9.0 7.2 -11.0
v -8.6 3.0 -13.0
v -8.0 3.0 -12.2
v -8.0 2.9 -12.0
v -8.0 3.0 -11.8
v -8.9 4.0 -14.0
v -8.0 4.0 -13.4
v -8.0 3.5 -13.0
v -8.0 3.5 -11.0
v -8.0 4.0 -10.5
v -8.0 5.0 -13.5
v -8.0 5.0 -10.4
v -8.0 6.0 -13.5
v -8.0 6.0 -10.5
v -8.6 7.0 -13.0
v -8.0 7.0 -13.5
v -8.0 7.0 -10.6
v -8.3 8.0 -13.0
v -8.0 8.0 -13.3
v -8.4 8.0 -12.0
v -8.0 8.0 -11.6
v -8.0 7.5 -11.0
v -8.0 8.7 -13.0
v -8.0 8.4 -12.0
v -7.9 3.0 -12.0
v -7.5 4.0 -13.0
v -7.0 4.0 -12.4
v -7.0 3.7 -12.0
v -7.0 3.6 -11.0
v -7.0 3.8 -10.0
v -7.3 4.0 -10.0
v -7.0 4.0 -9.8
v -7.0 5.0 -13.3
v -7.0 4.6 -13.0
v -7.4 5.0 -10.0
v -7.0 5.0 -9.7
v -7.0 6.0 -13.6
v -7.0 5.5 -10.0
v -7.0 6.0 -10.3
v -7.0 7.0 -13.9
v -7.0 7.0 -10.5
v -7.0 8.0 -13.5
v -7.0 7.6 -11.0
v -7.0 8.0 -11.3
v -7.0 8.5 -13.0
v -7.0 8.9 -12.0
v -6.6 4.0 -12.0
v -6.4 4.0 -11.0
v -6.0 4.0 -10.4
v -6.0 3.8 -10.0
v -6.0 3.9 -9.0
v -6.1 4.0 -9.0
v -6.0 4.0 -8.9
v -6.6 5.0 -13.0
v -6.0 5.0 -12.4
v -6.0 4.7 -12.0
v -6.0 4.4 -11.0
v -6.0 4.2 -9.0
v -6.0 5.0 -9.3
v -6.0 6.0 -13.3
v -6.0 5.6 -13.0
v -6.6 6.0 -10.0
v -6.0 6.0 -9.5
v -6.0 7.0 -13.4
v -6.3 7.0 -10.0
v -6.0 7.0 -9.7
v -6.0 8.0 -13.2
v -6.3 8.0 -11.0
v -6.0 8.0 -10.9
v -6.0 7.3 -10.0
v -6.0 8.2 -13.0
v -6.0 8.4 -12.0
v -6.0 8.1 -11.0
v -5.6 4.0 -10.0
v -5.0 4.0 -9.4
v -5.0 3.7 -9.0
v -5.0 3.0 -8.0
v -5.5 4.0 -8.0
v -5.0 3.2 -7.0
v -5.3 4.0 -7.0
v -5.0 4.0 -6.6
v -5.7 5.0 -12.0
v -5.4 5.0 -11.0
v -5.0 5.0 -10.5
v -5.0 4.6 -10.0
v -5.7 5.0 -9.0
v -5.5 5.0 -8.0
v -5.4 5.0 -7.0
v -5.0 4.5 -6.0
v -5.3 5.0 -6.0
v -5.0 4.9 -5.0
v -5.1 5.0 -5.0
v -5.0 5.0 -4.9
v -5.7 6.0 -13.0
v -5.3 6.0 -12.0
v -5.0 6.0 -11.5
v -5.0 5.5 -11.0
v -5.6 6.0 -9.0
v -5.4 6.0 -8.0
v -5.0 6.0 -7.2
v -5.0 5.8 -7.0
v -5.2 6.0 -6.0
v -5.0 6.0 -6.5
v -5.0 6.0 -5.7
v -5.0 5.1 -5.0
v -5.6 7.0 -13.0
v -5.0 7.0 -12.2
v -5.0 6.8 -12.0
v -5.3 7.0 -9.0
v -5.3 7.0 -8.0
v -5.0 7.0 -7.5
v -5.0 6.2 -6.0
v -5.8 8.0 -13.0
v -5.0 7.2 -12.0
v -5.6 8.0 -12.0
v -5.8 8.0 -11.0
v -5.0 7.4 -11.0
v -5.0 7.3 -10.0
v -5.0 7.3 -9.0
v -5.0 8.0 -8.0
v -5.0 8.0 -8.0
v -5.0 8.0 -8.0
v -5.0 8.0 -8.0
v -4.6 4.0 -9.0
v -4.0 4.0 -8.2
v -4.0 3.8 -8.0
v -4.4 4.0 -7.0
v -4.0 4.0 -7.6
v -4.6 5.0 -10.0
v -4.0 5.0 -9.3
v -4.0 4.6 -9.0
v -4.0 4.3 -7.0
v -4.0 4.1 -6.0
v -4.0 4.6 -5.0
v -4.0 5.0 -4.1
v -4.7 6.0 -11.0
v -4.4 6.0 -10.0
v -4.0 6.0 -9.4
v -4.8 6.0 -7.0
v -4.5 6.0 -5.0
v -4.0 6.0 -4.1
v -4.9 7.0 -12.0
v -4.7 7.0 -11.0
v -4.7 7.0 -10.0
v -4.0 6.5 -9.0
v -4.6 7.0 -9.0
v -4.0 7.0 -8.5
v -4.5 7.0 -7.0
v -4.4 7.0 -6.0
v -4.2 7.0 -5.0
v -4.0 7.0 -4.8
v -4.0 8.0 -8.1
v -4.2 8.0 -7.0
v -4.1 8.0 -6.0
v -4.0 8.0 -5.4
v -4.0 7.7 -5.0
v -4.0 8.1 -8.0
v -4.0 8.2 -7.0
v -4.0 8.1 -6.0
v -3.9 4.0 -8.0
v -3.7 5.0 -9.0
v -3.5 5.0 -8.0
v -3.6 5.0 -7.0
v -3.5 5.0 -6.0
v -3.7 5.0 -5.0
v -3.7 6.0 -9.0
v -3.5 6.0 -8.0
v -3.5 6.0 -7.0
v -3.1 6.0 -6.0
v -3.6 6.0 -5.0
v -3.6 7.0 -8.0
v -3.6 7.0 -7.0
v -3.6 7.0 -6.0
v -3.8 7.0 -5.0
v -3.9 8.0 -8.0
v -3.8 8.0 -7.0
v -3.9 8.0 -6.0
f 3 2 1
f 1 4 3
f 7 6 5
f 7 5 2
f 5 1 2
f 5 8 1
f 4 1 9
f 9 1 8
f 5 6 10
f 10 6 11
f 13 8 12
f 8 10 12
f 8 5 10
f 8 13 9
f 11 14 10
f 10 14 12
f 16 15 3
f 3 15 2
f 18 17 4
f 17 3 4
f 17 16 3
f 18 19 17
f 21 20 7
f 7 20 6
f 7 2 15
f 7 15 21
f 23 22 18
f 4 23 18
f 9 23 4
f 18 22 19
f 26 25 24
f 20 26 24
f 11 20 24
f 6 20 11
f 28 27 13
f 28 13 12
f 9 13 23
f 23 13 27
f 24 25 29
f 29 25 30
f 31 14 11
f 24 31 11
f 29 31 24
f 31 32 14
f 32 12 14
f 32 28 12
f 29 30 33
f 33 30 34
f 36 31 35
f 31 33 35
f 31 29 33
f 31 36 32
f 34 37 33
f 33 37 35
f 39 38 16
f 16 38 15
f 40 16 17
f 40 39 16
f 17 19 40
f 40 19 41
f 43 42 21
f 21 42 20
f 21 15 38
f 21 38 43
f 45 44 22
f 45 22 23
f 19 22 41
f 41 22 44
f 47 46 26
f 26 46 25
f 26 20 42
f 26 42 47
f 49 48 27
f 49 27 28
f 23 27 45
f 45 27 48
f 52 51 50
f 46 52 50
f 30 46 50
f 25 46 30
f 32 49 28
f 32 53 49
f 50 51 54
f 54 51 55
f 54 34 30
f 54 30 50
f 57 56 36
f 57 36 35
f 32 36 53
f 53 36 56
f 55 58 54
f 54 58 34
f 58 37 34
f 58 59 37
f 35 37 57
f 57 37 59
f 61 60 39
f 39 60 38
f 63 61 62
f 61 40 62
f 61 39 40
f 41 62 40
f 65 64 43
f 43 64 42
f 43 38 60
f 43 60 65
f 63 62 44
f 45 63 44
f 66 63 45
f 44 62 41
f 69 68 67
f 71 70 67
f 67 70 69
f 46 47 71
f 47 70 71
f 47 72 70
f 47 42 64
f 47 64 72
f 74 73 48
f 74 48 49
f 45 48 66
f 66 48 73
f 68 75 67
f 76 51 52
f 67 76 52
f 71 67 52
f 75 76 67
f 71 52 46
f 79 78 77
f 78 74 77
f 74 53 77
f 74 49 53
f 76 55 51
f 80 55 76
f 79 77 56
f 57 79 56
f 81 79 57
f 56 77 53
f 80 82 55
f 55 82 58
f 58 83 59
f 82 83 58
f 57 59 81
f 81 59 83
f 84 60 61
f 63 84 61
f 86 85 65
f 65 85 64
f 65 60 84
f 87 65 84
f 86 65 87
f 84 63 87
f 63 88 87
f 63 66 88
f 90 89 69
f 69 89 68
f 91 69 70
f 91 90 69
f 92 70 72
f 92 91 70
f 72 64 85
f 72 85 92
f 94 93 73
f 94 73 74
f 66 73 88
f 88 73 93
f 75 68 95
f 68 96 95
f 68 89 96
f 95 76 75
f 98 97 78
f 98 78 79
f 74 78 94
f 94 78 97
f 95 96 99
f 99 96 100
f 99 80 76
f 99 76 95
f 81 98 79
f 81 101 98
f 100 102 99
f 102 104 103
f 102 103 82
f 99 102 82
f 80 99 82
f 82 103 105
f 106 82 105
f 83 82 106
f 81 83 101
f 101 83 106
f 104 107 103
f 103 107 105
f 110 109 108
f 85 86 108
f 86 110 108
f 86 111 110
f 112 86 87
f 112 111 86
f 87 88 112
f 112 88 113
f 115 114 90
f 90 114 89
f 116 90 91
f 116 115 90
f 92 108 109
f 116 92 109
f 91 92 116
f 108 92 85
f 118 117 93
f 118 93 94
f 88 93 113
f 113 93 117
f 121 120 119
f 114 121 119
f 96 114 119
f 89 114 96
f 98 122 97
f 122 123 97
f 123 94 97
f 123 118 94
f 120 124 119
f 96 119 124
f 125 96 124
f 100 96 125
f 127 126 122
f 98 127 122
f 101 127 98
f 122 126 123
f 102 100 128
f 100 129 128
f 100 125 129
f 128 104 102
f 131 130 106
f 131 106 105
f 101 106 127
f 127 106 130
f 129 132 128
f 128 132 104
f 132 107 104
f 132 133 107
f 105 107 131
f 131 107 133
f 135 134 110
f 110 134 109
f 136 110 111
f 136 135 110
f 138 136 137
f 136 112 137
f 136 111 112
f 113 137 112
f 140 139 115
f 115 139 114
f 141 115 116
f 141 140 115
f 116 109 134
f 116 134 141
f 138 143 142
f 138 118 143
f 138 137 117
f 118 138 117
f 137 113 117
f 144 142 143
f 146 145 121
f 121 145 120
f 121 114 139
f 121 139 146
f 148 147 143
f 118 148 143
f 123 148 118
f 143 147 144
f 145 149 120
f 120 149 124
f 125 124 149
f 125 149 150
f 152 151 126
f 152 126 127
f 123 126 148
f 148 126 151
f 150 129 125
f 153 129 150
f 155 154 130
f 155 130 131
f 127 130 152
f 152 130 154
f 153 156 129
f 129 156 132
f 132 157 133
f 156 157 132
f 131 133 155
f 155 133 157
f 160 159 158
f 134 135 158
f 135 160 158
f 135 161 160
f 162 135 136
f 162 161 135
f 136 138 162
f 162 138 163
f 166 165 164
f 139 140 164
f 140 166 164
f 140 167 166
f 141 158 159
f 167 141 159
f 140 141 167
f 158 141 134
f 168 163 138
f 168 138 142
f 142 144 168
f 168 144 169
f 170 145 146
f 165 171 164
f 172 164 171
f 172 139 164
f 172 170 146
f 139 172 146
f 174 173 147
f 174 147 148
f 144 147 169
f 169 147 173
f 170 149 145
f 150 149 170
f 172 150 170
f 175 150 172
f 177 176 151
f 177 151 152
f 148 151 174
f 174 151 176
f 175 153 150
f 178 153 175
f 180 179 154
f 180 154 155
f 152 154 177
f 177 154 179
f 178 181 153
f 153 181 156
f 156 182 157
f 181 182 156
f 155 157 180
f 180 157 182
f 184 183 160
f 160 183 159
f 185 160 161
f 185 184 160
f 186 161 162
f 186 185 161
f 162 163 186
f 186 163 187
f 188 165 166
f 188 166 189
f 166 190 189
f 166 167 190
f 167 159 183
f 167 183 190
f 191 187 163
f 191 163 168
f 168 169 191
f 191 169 192
f 188 171 165
f 194 193 172
f 194 172 171
f 189 194 171
f 188 189 171
f 195 193 194
f 197 196 173
f 197 173 174
f 169 173 192
f 192 173 196
f 199 198 193
f 198 172 193
f 198 175 172
f 199 193 195
f 202 201 200
f 176 177 200
f 201 176 200
f 203 176 201
f 174 176 197
f 197 176 203
f 198 178 175
f 204 178 198
f 202 200 179
f 180 202 179
f 205 202 180
f 179 200 177
f 204 206 178
f 178 206 181
f 181 207 182
f 206 207 181
f 180 182 205
f 205 182 207
f 208 183 184
f 185 209 184
f 184 209 208
f 209 185 210
f 185 211 210
f 185 186 211
f 186 187 211
f 211 187 212
f 213 189 190
f 183 208 190
f 208 213 190
f 208 214 213
f 209 216 215
f 214 209 215
f 208 209 214
f 216 209 210
f 217 212 187
f 217 187 191
f 191 192 217
f 217 192 218
f 213 194 189
f 213 214 219
f 195 213 219
f 220 195 219
f 213 195 194
f 219 214 215
f 223 222 221
f 196 197 221
f 222 196 221
f 224 196 222
f 192 196 218
f 218 196 224
f 226 225 199
f 199 225 198
f 199 195 220
f 199 220 226
f 228 227 201
f 228 201 202
f 221 203 223
f 203 227 223
f 203 201 227
f 203 221 197
f 225 204 198
f 229 204 225
f 232 231 230
f 231 228 230
f 228 205 230
f 228 202 205
f 229 233 204
f 204 233 206
f 230 207 232
f 207 233 232
f 207 206 233
f 207 230 205
f 235 234 211
f 211 234 210
f 211 212 235
f 235 212 236
f 237 215 216
f 238 237 216
f 210 238 216
f 234 238 210
f 239 236 212
f 239 212 217
f 217 218 239
f 239 218 240
f 241 220 219
f 215 237 219
f 237 241 219
f 237 242 241
f 243 222 223
f 237 243 223
f 242 237 223
f 243 237 238
f 222 244 224
f 243 244 222
f 218 224 240
f 240 224 244
f 245 225 226
f 220 241 226
f 241 245 226
f 241 246 245
f 228 246 227
f 246 242 227
f 246 241 242
f 227 242 223
f 247 229 245
f 245 229 225
f 232 247 231
f 247 246 231
f 247 245 246
f 231 246 228
f 247 233 229
f 233 247 232
f 249 248 235
f 235 248 234
f 251 250 236
f 250 235 236
f 250 249 235
f 251 252 250
f 248 238 234
f 253 238 248
f 239 251 236
f 255 254 240
f 240 254 239
f 254 252 239
f 252 251 239
f 255 256 254
f 253 257 238
f 238 257 243
f 243 258 244
f 257 258 243
f 244 258 240
f 258 259 240
f 259 255 240
f 259 258 260
f 256 255 261
f 261 255 259
f 260 262 259
f 259 262 261
f 264 263 249
f 249 263 248
f 265 249 250
f 265 264 249
f 250 252 265
f 265 252 266
f 263 253 248
f 267 253 263
f 268 266 252
f 268 252 254
f 254 256 268
f 268 256 269
f 257 253 270
f 253 271 270
f 253 267 271
f 272 258 257
f 272 257 270
f 272 260 258
f 261 274 273
f 269 261 273
f 256 261 269
f 274 275 273
f 271 276 270
f 270 276 272
f 272 276 277
f 272 277 260
f 277 262 260
f 277 278 262
f 261 262 274
f 262 279 274
f 262 278 279
f 274 279 275
f 281 280 264
f 264 280 263
f 282 264 265
f 282 281 264
f 284 283 266
f 283 265 266
f 283 282 265
f 284 285 283
f 280 267 263
f 286 267 280
f 268 284 266
f 288 287 269
f 269 287 268
f 287 285 268
f 285 284 268
f 288 289 287
f 291 271 290
f 271 286 290
f 271 267 286
f 292 291 290
f 273 288 269
f 273 275 288
f 275 289 288
f 275 293 289
f 291 276 271
f 292 294 291
f 294 276 291
f 294 277 276
f 294 296 295
f 278 294 295
f 277 294 278
f 297 279 278
f 297 278 295
f 297 298 279
f 298 275 279
f 298 293 275
f 296 299 295
f 295 299 297
f 297 299 300
f 297 300 298
f 301 280 281
f 301 281 302
f 281 303 302
f 281 282 303
f 304 282 283
f 304 303 282
f 283 285 304
f 304 285 305
f 307 306 301
f 306 280 301
f 306 286 280
f 307 301 302
f 308 305 285
f 308 285 287
f 287 289 308
f 308 289 309
f 306 310 286
f 286 310 290
f 292 290 310
f 292 310 311
f 293 309 289
f 293 312 309
f 294 292 313
f 292 314 313
f 292 311 314
f 313 296 294
f 298 312 293
f 298 315 312
f 314 316 313
f 316 318 317
f 316 317 299
f 313 316 299
f 296 313 299
f 319 300 299
f 319 299 317
f 319 320 300
f 320 298 300
f 320 315 298
f 318 321 317
f 317 321 319
f 319 321 322
f 319 322 320
f 323 302 303
f 323 303 324
f 303 325 324
f 303 304 325
f 304 305 325
f 325 305 326
f 327 306 307
f 328 327 307
f 328 307 302
f 329 328 302
f 323 329 302
f 329 323 324
f 330 326 305
f 330 305 308
f 308 309 330
f 330 309 331
f 327 310 306
f 311 310 327
f 328 311 327
f 332 311 328
f 312 331 309
f 312 333 331
f 332 314 311
f 334 314 332
f 315 333 312
f 315 335 333
f 316 314 336
f 314 337 336
f 314 334 337
f 336 318 316
f 320 335 315
f 320 338 335
f 336 337 339
f 339 337 340
f 341 321 318
f 336 341 318
f 339 341 336
f 321 341 342
f 343 321 342
f 322 321 343
f 320 322 338
f 338 322 343
f 340 344 339
f 339 344 341
f 341 344 345
f 341 345 342
f 346 324 325
f 326 346 325
f 347 328 329
f 348 347 329
f 348 329 324
f 349 348 324
f 346 349 324
f 349 346 326
f 330 349 326
f 350 349 330
f 352 351 331
f 351 330 331
f 351 350 330
f 352 353 351
f 355 354 347
f 354 328 347
f 354 332 328
f 355 347 348
f 333 356 352
f 333 352 331
f 353 352 357
f 357 352 356
f 354 334 332
f 358 334 354
f 360 359 356
f 333 360 356
f 335 360 333
f 356 359 357
f 358 337 334
f 361 337 358
f 338 360 335
f 338 362 360
f 361 340 337
f 363 340 361
f 365 364 343
f 365 343 342
f 338 343 362
f 362 343 364
f 363 366 340
f 340 366 344
f 344 367 345
f 366 367 344
f 342 345 365
f 365 345 367
f 368 348 349
f 350 369 349
f 349 369 368
f 369 350 370
f 350 371 370
f 350 351 371
f 373 372 353
f 372 351 353
f 372 371 351
f 373 374 372
f 375 354 355
f 376 375 355
f 376 355 348
f 377 376 348
f 368 377 348
f 377 368 369
f 377 369 378
f 378 369 370
f 380 379 373
f 353 380 373
f 357 380 353
f 373 379 374
f 382 381 375
f 381 354 375
f 381 358 354
f 382 375 376
f 360 383 359
f 383 384 359
f 384 357 359
f 384 380 357
f 381 361 358
f 385 361 381
f 362 386 383
f 362 383 360
f 384 383 387
f 387 383 386
f 385 363 361
f 388 363 385
f 365 389 364
f 389 390 364
f 364 390 362
f 390 391 362
f 391 386 362
f 386 391 387
f 388 392 363
f 363 392 366
f 366 393 367
f 392 393 366
f 365 367 389
f 367 394 389
f 367 393 394
f 389 394 390
f 395 370 371
f 395 371 396
f 371 397 396
f 371 372 397
f 399 398 374
f 398 372 374
f 398 397 372
f 401 400 399
f 399 400 398
f 401 402 400
f 403 376 377
f 378 404 377
f 377 404 403
f 405 404 378
f 405 378 370
f 406 405 370
f 395 406 370
f 379 380 407
f 395 396 406
f 399 374 379
f 407 399 379
f 408 399 407
f 399 409 401
f 399 408 409
f 402 401 410
f 401 411 410
f 401 409 411
f 413 412 411
f 411 412 410
f 413 414 412
f 415 381 382
f 376 403 382
f 403 415 382
f 403 416 415
f 404 418 417
f 416 404 417
f 403 404 416
f 418 404 405
f 384 419 407
f 384 407 380
f 407 420 408
f 407 419 420
f 422 409 421
f 409 420 421
f 409 408 420
f 424 423 422
f 423 409 422
f 423 411 409
f 426 413 425
f 413 423 425
f 413 411 423
f 413 426 414
f 427 385 415
f 415 385 381
f 416 429 428
f 427 416 428
f 415 416 427
f 429 416 417
f 387 430 419
f 387 419 384
f 419 431 420
f 419 430 431
f 421 420 432
f 432 420 431
f 424 433 423
f 423 433 425
f 434 388 427
f 427 388 385
f 427 428 435
f 436 427 435
f 434 427 436
f 438 437 436
f 438 436 435
f 391 390 437
f 438 391 437
f 439 391 438
f 387 391 430
f 391 440 430
f 391 439 440
f 442 441 440
f 441 430 440
f 441 431 430
f 432 431 443
f 443 431 441
f 434 392 388
f 392 434 393
f 393 434 436
f 393 436 394
f 394 436 437
f 394 437 390
f 442 444 441
f 441 444 443
f 445 396 397
f 445 397 446
f 397 447 446
f 397 398 447
f 449 447 448
f 447 400 448
f 447 398 400
f 402 448 400
f 450 405 406
f 451 450 406
f 451 406 396
f 452 451 396
f 445 452 396
f 452 445 446
f 453 449 448
f 453 448 402
f 410 453 402
f 454 453 410
f 455 410 412
f 455 454 410
f 412 414 455
f 455 414 456
f 457 417 418
f 405 450 418
f 450 457 418
f 450 458 457
f 450 451 459
f 450 459 458
f 421 460 422
f 460 424 422
f 425 461 426
f 461 462 426
f 462 414 426
f 462 456 414
f 463 428 429
f 417 457 429
f 457 463 429
f 457 464 463
f 465 457 458
f 464 457 465
f 458 459 466
f 467 458 466
f 465 458 467
f 468 467 466
f 432 469 460
f 432 460 421
f 470 433 424
f 460 470 424
f 469 470 460
f 461 425 433
f 470 461 433
f 471 461 470
f 462 461 472
f 472 461 471
f 463 435 428
f 435 463 438
f 438 463 464
f 438 464 439
f 439 464 465
f 439 465 440
f 440 465 467
f 442 440 467
f 468 442 467
f 473 442 468
f 443 474 469
f 443 469 432
f 469 475 470
f 469 474 475
f 477 471 476
f 471 475 476
f 471 470 475
f 471 477 472
f 473 478 442
f 442 478 444
f 443 444 474
f 444 479 474
f 444 478 479
f 474 479 475
f 475 479 480
f 475 480 476
f 481 446 447
f 449 481 447
f 482 451 452
f 446 481 452
f 481 482 452
f 481 483 482
f 453 484 449
f 484 481 449
f 484 483 481
f 454 485 453
f 453 485 484
f 455 486 454
f 454 486 485
f 456 486 455
f 487 459 482
f 482 459 451
f 488 482 483
f 487 482 488
f 489 483 484
f 488 483 489
f 490 484 485
f 489 484 490
f 491 485 486
f 490 485 491
f 462 491 456
f 456 491 486
f 487 466 459
f 466 487 468
f 487 492 468
f 487 488 492
f 493 488 489
f 492 488 493
f 494 489 490
f 493 489 494
f 495 490 491
f 494 490 495
f 472 495 462
f 462 495 491
f 496 473 492
f 492 473 468
f 497 492 493
f 496 492 497
f 498 493 494
f 497 493 498
f 476 498 477
f 498 495 477
f 498 494 495
f 477 495 472
f 496 478 473
f 478 496 479
f 479 496 497
f 479 497 480
f 480 497 498
f 480 498 476
