v -42.1 -20.0 1.0
v -42.0 -20.0 0.8
v -42.0 -20.1 1.0
v -42.0 -20.0 1.2
v -42.4 -19.0 0.0
v -42.0 -19.0 -0.5
v -42.0 -19.5 0.0
v -42.4 -19.0 1.0
v -42.0 -19.0 1.5
v -42.1 -19.0 12.0
v -42.0 -19.0 11.8
v -42.0 -19.1 12.0
v -42.0 -19.1 13.0
v -42.1 -19.0 13.0
v -42.0 -19.0 13.1
v -42.3 -18.0 -1.0
v -42.0 -18.0 -1.3
v -42.0 -18.5 -1.0
v -42.9 -18.0 0.0
v -42.3 -18.0 1.0
v -42.0 -18.0 1.4
v -42.3 -18.0 10.0
v -42.0 -18.0 9.6
v -42.0 -18.3 10.0
v -42.0 -18.2 11.0
v -42.1 -18.0 11.0
v -42.0 -18.8 12.0
v -42.0 -18.0 11.2
v -42.0 -18.9 13.0
v -42.2 -17.0 -1.0
v -42.0 -17.0 -1.2
v -42.1 -17.0 0.0
v -42.0 -17.0 0.1
v -42.0 -17.7 1.0
v -42.0 -17.0 8.0
v -42.0 -17.0 8.0
v -42.0 -17.0 8.0
v -42.0 -17.4 9.0
v -42.3 -17.0 9.0
v -42.6 -17.0 10.0
v -42.0 -17.0 10.4
v -42.0 -17.8 11.0
v -42.0 -16.8 -1.0
v -42.0 -16.9 0.0
v -42.0 -17.0 8.0
v -42.0 -16.8 9.0
v -42.0 -16.7 10.0
v -41.1 -22.0 2.0
v -41.0 -22.0 1.9
v -41.0 -22.1 2.0
v -41.0 -22.0 2.2
v -41.3 -21.0 1.0
v -41.0 -21.0 0.5
v -41.0 -21.4 1.0
v -41.5 -21.0 2.0
v -41.0 -21.4 3.0
v -41.3 -21.0 3.0
v -41.0 -21.0 3.4
v -41.2 -21.0 13.0
v -41.0 -21.0 12.7
v -41.0 -21.2 13.0
v -41.0 -21.0 14.0
v -41.0 -21.0 14.0
v -41.0 -21.0 14.0
v -41.2 -20.0 -1.0
v -41.0 -20.0 -1.2
v -41.0 -20.2 -1.0
v -41.0 -20.6 0.0
v -41.6 -20.0 0.0
v -41.6 -20.0 2.0
v -41.5 -20.0 3.0
v -41.0 -20.4 4.0
v -41.3 -20.0 4.0
v -41.0 -20.0 4.4
v -41.4 -20.0 12.0
v -41.0 -20.0 11.5
v -41.0 -20.5 12.0
v -41.6 -20.0 13.0
v -41.4 -20.0 14.0
v -41.0 -20.0 14.4
v -41.6 -19.0 -1.0
v -41.0 -19.0 -1.6
v -41.6 -19.0 2.0
v -41.4 -19.0 3.0
v -41.3 -19.0 4.0
v -41.0 -19.1 5.0
v -41.1 -19.0 5.0
v -41.0 -19.2 6.0
v -41.1 -19.0 6.0
v -41.0 -19.1 7.0
v -41.1 -19.0 7.0
v -41.0 -19.0 7.2
v -41.4 -19.0 10.0
v -41.0 -19.0 9.5
v -41.0 -19.4 10.0
v -41.0 -19.6 11.0
v -41.6 -19.0 11.0
v -41.3 -19.0 14.0
v -41.0 -19.0 14.3
v -41.3 -18.0 -2.0
v -41.0 -18.0 -2.3
v -41.0 -18.4 -2.0
v -41.5 -18.0 2.0
v -41.4 -18.0 3.0
v -41.0 -18.0 3.5
v -41.0 -18.5 4.0
v -41.0 -18.9 5.0
v -41.0 -18.3 6.0
v -41.0 -18.3 7.0
v -41.0 -18.0 7.1
v -41.4 -18.0 8.0
v -41.0 -18.5 8.0
v -41.0 -18.6 9.0
v -41.6 -18.0 9.0
v -41.5 -18.0 12.0
v -41.3 -18.0 13.0
v -41.0 -18.0 13.3
v -41.0 -18.7 14.0
v -41.2 -17.0 -2.0
v -41.0 -17.0 -2.2
v -41.6 -17.0 0.0
v -41.0 -17.1 0.0
v -41.0 -17.0 -0.2
v -41.0 -17.4 1.0
v -41.0 -17.4 2.0
v -41.1 -17.0 3.0
v -41.0 -17.0 2.8
v -41.0 -17.0 3.1
v -41.2 -17.0 7.0
v -41.0 -17.0 6.6
v -41.0 -17.8 7.0
v -41.0 -17.4 11.0
v -41.0 -17.0 10.5
v -41.0 -17.6 12.0
v -41.0 -17.8 13.0
v -41.0 -16.8 -2.0
v -41.0 -16.6 -1.0
v -41.0 -16.9 3.0
v -41.3 -16.0 6.0
v -41.0 -16.0 5.6
v -41.0 -16.3 6.0
v -41.0 -16.8 7.0
v -41.0 -16.0 6.2
v -41.0 -16.6 8.0
v -41.0 -16.5 9.0
v -41.0 -16.6 10.0
v -41.0 -15.9 6.0
v -40.0 -22.0 1.4
v -40.0 -22.8 2.0
v -40.0 -22.4 3.0
v -40.5 -22.0 3.0
v -40.0 -22.0 3.5
v -40.4 -21.0 0.0
v -40.0 -21.0 -0.4
v -40.0 -21.3 0.0
v -40.0 -21.6 1.0
v -40.0 -21.5 4.0
v -40.5 -21.0 4.0
v -40.0 -21.0 4.5
v -40.4 -21.0 12.0
v -40.0 -21.0 11.7
v -40.0 -21.3 12.0
v -40.0 -21.4 13.0
v -40.9 -21.0 14.0
v -40.0 -21.0 13.7
v -40.0 -20.0 -1.5
v -40.0 -20.5 -1.0
v -40.0 -20.5 5.0
v -40.5 -20.0 5.0
v -40.0 -20.1 6.0
v -40.1 -20.0 6.0
v -40.0 -20.3 7.0
v -40.3 -20.0 7.0
v -40.0 -20.2 8.0
v -40.2 -20.0 8.0
v -40.0 -20.0 8.6
v -40.3 -20.0 10.0
v -40.0 -20.0 9.3
v -40.0 -20.3 10.0
v -40.0 -20.5 11.0
v -40.6 -20.0 11.0
v -40.0 -20.8 14.0
v -40.0 -20.3 15.0
v -40.3 -20.0 15.0
v -40.0 -20.0 15.3
v -40.4 -19.0 -2.0
v -40.0 -19.0 -2.3
v -40.0 -19.4 -2.0
v -40.5 -19.0 5.0
v -40.0 -19.0 4.9
v -40.0 -19.2 5.0
v -40.0 -19.7 6.0
v -40.6 -19.0 6.0
v -40.0 -19.0 6.3
v -40.7 -19.0 8.0
v -40.0 -19.8 9.0
v -40.7 -19.0 9.0
v -40.3 -19.0 15.0
v -40.0 -19.0 15.5
v -40.0 -18.0 -2.5
v -40.6 -18.0 4.0
v -40.0 -18.0 4.6
v -40.0 -18.0 6.2
v -40.9 -18.0 7.0
v -40.0 -18.4 14.0
v -40.0 -18.0 13.4
v -40.0 -18.8 15.0
v -40.0 -17.0 -2.3
v -40.8 -17.0 0.0
v -40.5 -17.0 1.0
v -40.6 -17.0 2.0
v -40.4 -17.0 4.0
v -40.0 -17.0 4.6
v -40.6 -17.0 6.0
v -40.0 -17.0 5.4
v -40.0 -17.7 6.0
v -40.0 -17.4 11.0
v -40.0 -17.0 10.4
v -40.0 -17.5 12.0
v -40.0 -17.7 13.0
v -40.0 -16.7 -2.0
v -40.0 -16.5 -1.0
v -40.0 -16.6 0.0
v -40.0 -16.5 1.0
v -40.0 -16.4 2.0
v -40.2 -16.0 3.0
v -40.0 -16.0 2.7
v -40.0 -16.0 3.3
v -40.0 -16.5 4.0
v -40.0 -16.0 5.6
v -40.0 -16.0 6.3
v -40.0 -16.4 7.0
v -40.0 -16.5 8.0
v -40.0 -16.5 9.0
v -40.0 -16.7 10.0
v -40.0 -15.9 3.0
v -40.0 -15.8 6.0
v -39.0 -22.0 1.5
v -39.0 -22.5 2.0
v -39.0 -22.5 3.0
v -39.0 -22.3 4.0
v -39.4 -22.0 4.0
v -39.0 -22.0 4.5
v -39.0 -21.0 -0.5
v -39.0 -21.4 0.0
v -39.0 -21.6 1.0
v -39.0 -21.5 5.0
v -39.5 -21.0 5.0
v -39.0 -21.1 6.0
v -39.1 -21.0 6.0
v -39.0 -21.0 6.3
v -39.1 -21.0 9.0
v -39.0 -21.0 8.9
v -39.0 -21.1 9.0
v -39.0 -21.0 9.1
v -39.0 -21.0 11.4
v -39.0 -21.4 12.0
v -39.0 -21.6 13.0
v -39.0 -21.4 14.0
v -39.7 -21.0 14.0
v -39.0 -21.0 14.5
v -39.0 -20.0 -1.5
v -39.0 -20.5 -1.0
v -39.8 -20.0 6.0
v -39.0 -20.0 5.7
v -39.0 -20.9 6.0
v -39.6 -20.0 7.0
v -39.0 -20.0 7.5
v -39.0 -20.4 8.0
v -39.8 -20.0 9.0
v -39.0 -20.6 10.0
v -39.0 -20.7 11.0
v -39.0 -20.6 15.0
v -39.0 -20.0 16.0
v -39.0 -20.0 16.0
v -39.0 -20.0 16.0
v -39.0 -19.0 -2.4
v -39.0 -19.5 -2.0
v -39.9 -19.0 5.0
v -39.0 -19.0 5.6
v -39.3 -19.0 7.0
v -39.0 -19.0 7.2
v -39.6 -19.0 15.0
v -39.0 -19.4 15.0
v -39.0 -19.0 14.5
v -39.0 -20.0 16.0
v -39.0 -18.0 -2.5
v -39.7 -18.0 5.0
v -39.0 -18.6 6.0
v -39.8 -18.0 6.0
v -39.0 -18.8 7.0
v -39.5 -18.0 13.0
v -39.0 -18.3 13.0
v -39.0 -18.0 12.6
v -39.0 -18.7 14.0
v -39.0 -17.0 -2.2
v -39.8 -17.0 5.0
v -39.3 -17.0 10.0
v -39.0 -17.2 10.0
v -39.0 -17.0 9.8
v -39.0 -17.4 11.0
v -39.0 -17.5 12.0
v -39.0 -16.8 -2.0
v -39.0 -16.5 -1.0
v -39.0 -16.4 0.0
v -39.3 -16.0 1.0
v -39.0 -16.0 0.7
v -39.6 -16.0 2.0
v -39.6 -16.0 4.0
v -39.6 -16.0 5.0
v -39.0 -16.4 7.0
v -39.0 -16.0 6.5
v -39.0 -16.5 8.0
v -39.0 -16.6 9.0
v -39.0 -15.7 1.0
v -39.0 -15.6 2.0
v -39.0 -15.5 3.0
v -39.0 -15.6 4.0
v -39.0 -15.6 5.0
v -39.0 -15.7 6.0
v -38.0 -22.0 1.3
v -38.0 -22.4 2.0
v -38.0 -22.5 3.0
v -38.0 -22.5 4.0
v -38.0 -22.8 5.0
v -38.6 -22.0 5.0
v -38.0 -22.4 6.0
v -38.4 -22.0 6.0
v -38.0 -22.2 7.0
v -38.1 -22.0 7.0
v -38.0 -22.0 7.2
v -38.1 -22.0 13.0
v -38.0 -22.0 12.9
v -38.0 -22.1 13.0
v -38.0 -22.1 14.0
v -38.1 -22.0 14.0
v -38.0 -22.0 14.1
v -38.0 -21.0 -0.6
v -38.0 -21.5 0.0
v -38.0 -21.7 1.0
v -38.8 -21.0 6.0
v -38.0 -21.0 5.5
v -38.0 -21.4 6.0
v -38.0 -21.7 7.0
v -38.0 -21.0 8.4
v -38.0 -21.8 9.0
v -38.0 -21.0 9.8
v -38.5 -21.0 11.0
v -38.0 -21.0 10.2
v -38.0 -21.3 11.0
v -38.0 -21.6 12.0
v -38.0 -21.3 15.0
v -38.4 -21.0 15.0
v -38.0 -21.0 15.3
v -38.0 -20.0 -1.5
v -38.0 -20.6 -1.0
v -38.0 -20.0 5.6
v -38.1 -20.0 8.0
v -38.0 -20.0 8.1
v -38.0 -20.9 10.0
v -38.0 -20.0 15.9
v -38.8 -20.0 16.0
v -38.0 -19.0 -2.4
v -38.0 -19.5 -2.0
v -38.0 -19.0 5.8
v -38.0 -19.0 7.2
v -38.0 -19.9 8.0
v -38.5 -19.0 14.0
v -38.0 -19.3 14.0
v -38.0 -19.0 13.6
v -38.0 -19.6 15.0
v -38.0 -18.0 -2.3
v -38.0 -18.8 6.0
v -38.0 -18.8 7.0
v -38.0 -18.5 13.0
v -38.0 -18.0 12.6
v -38.0 -17.5 -2.0
v -38.6 -17.0 -2.0
v -38.0 -17.0 -1.6
v -38.7 -17.0 10.0
v -38.0 -17.0 10.5
v -38.0 -17.3 11.0
v -38.0 -17.0 12.0
v -38.0 -17.0 11.9
v -38.0 -17.0 12.0
v -38.0 -16.6 -1.0
v -38.0 -16.3 0.0
v -38.0 -16.0 0.4
v -38.0 -16.4 7.0
v -38.0 -16.0 6.4
v -38.0 -16.5 8.0
v -38.0 -16.5 9.0
v -38.0 -16.7 10.0
v -38.0 -17.0 12.0
v -38.0 -15.6 1.0
v -38.0 -15.4 2.0
v -38.0 -15.4 3.0
v -38.0 -15.5 4.0
v -38.0 -15.5 5.0
v -38.0 -15.7 6.0
v -37.2 -23.0 6.0
v -37.0 -23.0 5.8
v -37.0 -23.1 6.0
v -37.0 -23.1 7.0
v -37.1 -23.0 7.0
v -37.0 -23.0 7.1
v -37.3 -22.0 0.0
v -37.0 -22.0 -0.3
v -37.0 -22.2 0.0
v -37.0 -22.4 1.0
v -37.6 -22.0 1.0
v -37.0 -22.5 2.0
v -37.0 -22.5 3.0
v -37.0 -22.5 4.0
v -37.0 -22.6 5.0
v -37.0 -22.2 8.0
v -37.3 -22.0 8.0
v -37.0 -22.0 8.3
v -37.9 -22.0 13.0
v -37.9 -22.0 14.0
v -37.5 -21.0 -1.0
v -37.0 -21.0 -1.3
v -37.0 -21.3 -1.0
v -37.8 -21.0 6.0
v -37.7 -21.0 7.0
v -37.7 -21.0 8.0
v -37.0 -21.6 9.0
v -37.0 -21.4 10.0
v -37.9 -21.0 10.0
v -37.0 -21.5 11.0
v -37.0 -21.5 12.0
v -37.0 -21.5 13.0
v -37.0 -21.4 14.0
v -37.0 -21.0 15.0
v -37.0 -21.0 15.0
v -37.0 -20.0 -1.6
v -37.7 -20.0 6.0
v -37.6 -20.0 7.0
v -37.9 -20.0 8.0
v -37.5 -20.0 15.0
v -37.0 -21.0 15.0
v -37.0 -20.0 14.4
v -37.0 -19.0 -2.3
v -37.0 -19.4 -2.0
v -37.8 -19.0 6.0
v -37.8 -19.0 7.0
v -37.0 -19.6 14.0
v -37.0 -19.0 13.5
v -37.0 -18.3 -2.0
v -37.3 -18.0 -2.0
v -37.0 -18.0 -1.9
v -37.0 -18.5 13.0
v -37.0 -18.0 12.6
v -37.0 -17.0 -1.5
v -37.0 -17.1 11.0
v -37.0 -17.0 10.9
v -37.0 -17.0 11.3
v -37.0 -17.0 12.2
v -37.0 -16.5 -1.0
v -37.5 -16.0 0.0
v -37.0 -16.0 -0.4
v -37.3 -16.0 6.0
v -37.0 -16.2 6.0
v -37.0 -16.0 5.8
v -37.0 -16.5 7.0
v -37.0 -16.5 8.0
v -37.0 -16.5 9.0
v -37.0 -16.6 10.0
v -37.0 -16.8 12.0
v -37.0 -15.7 0.0
v -37.0 -15.3 1.0
v -37.4 -15.0 2.0
v -37.0 -15.0 1.5
v -37.4 -15.0 3.0
v -37.0 -15.0 3.5
v -37.0 -15.3 4.0
v -37.0 -15.6 5.0
v -37.0 -14.7 2.0
v -37.0 -14.7 3.0
v -36.8 -23.0 6.0
v -36.9 -23.0 7.0
v -36.0 -22.0 -0.5
v -36.0 -22.4 0.0
v -36.0 -22.5 1.0
v -36.0 -22.5 2.0
v -36.0 -22.5 3.0
v -36.0 -22.5 4.0
v -36.0 -22.5 5.0
v -36.0 -22.6 6.0
v -36.0 -22.5 7.0
v -36.4 -22.0 8.0
v -36.0 -22.0 7.8
v -36.0 -21.0 -1.3
v -36.0 -21.4 -1.0
v -36.0 -21.9 8.0
v -36.0 -21.6 9.0
v -36.0 -21.6 10.0
v -36.0 -21.5 11.0
v -36.0 -21.2 12.0
v -36.5 -21.0 13.0
v -36.0 -21.0 12.3
v -36.7 -21.0 14.0
v -37.0 -21.0 15.0
v -36.0 -20.0 -1.6
v -36.3 -20.0 13.0
v -36.0 -20.0 12.6
v -36.7 -20.0 14.0
v -36.0 -19.0 -2.2
v -36.0 -19.3 -2.0
v -36.0 -19.2 13.0
v -36.0 -19.0 13.1
v -36.8 -18.0 -2.0
v -36.0 -18.0 -2.4
v -36.0 -18.8 13.0
v -36.0 -18.0 12.5
v -36.3 -17.0 -2.0
v -36.0 -17.0 -2.2
v -36.9 -17.0 11.0
v -36.0 -17.0 12.2
v -36.0 -16.8 -2.0
v -36.0 -16.3 -1.0
v -36.0 -16.0 -0.6
v -36.7 -16.0 6.0
v -36.0 -16.0 6.6
v -36.0 -16.3 7.0
v -36.0 -16.4 8.0
v -36.0 -16.5 9.0
v -36.0 -16.5 10.0
v -36.0 -16.6 11.0
v -36.0 -16.8 12.0
v -36.0 -15.5 0.0
v -36.2 -15.0 1.0
v -36.0 -15.0 0.8
v -36.5 -15.0 4.0
v -36.0 -15.0 4.6
v -36.0 -15.3 5.0
v -36.0 -15.6 6.0
v -36.0 -14.9 1.0
v -36.0 -14.6 2.0
v -36.0 -14.5 3.0
v -36.0 -14.6 4.0
v -35.0 -22.0 -0.3
v -35.0 -22.7 0.0
v -35.0 -22.6 1.0
v -35.0 -22.5 2.0
v -35.0 -22.5 3.0
v -35.0 -22.5 4.0
v -35.0 -22.5 5.0
v -35.0 -22.5 6.0
v -35.0 -22.5 7.0
v -35.0 -22.4 8.0
v -35.8 -22.0 8.0
v -35.0 -22.4 9.0
v -35.5 -22.0 9.0
v -35.0 -22.2 10.0
v -35.3 -22.0 10.0
v -35.0 -22.0 10.3
v -35.6 -21.0 -1.0
v -35.0 -21.0 -0.6
v -35.0 -21.4 11.0
v -35.7 -21.0 12.0
v -35.0 -21.0 11.4
v -35.0 -20.0 -1.3
v -35.0 -20.4 -1.0
v -35.4 -20.0 12.0
v -35.0 -20.0 11.3
v -35.6 -19.0 -2.0
v -35.0 -19.0 -1.5
v -35.0 -19.2 12.0
v -35.9 -19.0 13.0
v -35.0 -19.0 12.2
v -35.0 -18.0 -2.2
v -35.0 -18.4 -2.0
v -35.4 -18.0 12.0
v -35.0 -18.7 12.0
v -35.0 -18.0 11.6
v -35.0 -17.0 -2.2
v -35.8 -17.0 12.0
v -35.0 -17.0 11.3
v -35.0 -16.8 -2.0
v -35.1 -16.0 -1.0
v -35.0 -16.0 -1.1
v -35.7 -16.0 7.0
v -35.4 -16.0 8.0
v -35.0 -16.0 8.3
v -35.0 -16.4 9.0
v -35.0 -16.6 10.0
v -35.0 -16.8 11.0
v -35.0 -15.9 -1.0
v -35.0 -15.7 0.0
v -35.8 -15.0 1.0
v -35.0 -15.5 1.0
v -35.4 -15.0 2.0
v -35.0 -15.4 2.0
v -35.0 -15.0 2.5
v -35.7 -15.0 5.0
v -35.4 -15.0 6.0
v -35.0 -15.0 6.5
v -35.0 -15.4 7.0
v -35.0 -15.7 8.0
v -35.0 -14.6 3.0
v -35.1 -14.0 4.0
v -35.0 -14.0 3.9
v -35.0 -14.0 5.0
v -35.0 -14.0 5.0
v -35.0 -14.7 6.0
v -35.0 -13.9 4.0
v -35.0 -14.0 5.0
v -34.6 -22.0 0.0
v -34.0 -22.0 0.6
v -34.0 -22.7 1.0
v -34.0 -22.3 2.0
v -34.0 -22.4 3.0
v -34.0 -22.5 4.0
v -34.0 -22.5 5.0
v -34.0 -22.5 6.0
v -34.0 -22.5 7.0
v -34.0 -22.5 8.0
v -34.0 -22.5 9.0
v -34.0 -22.4 10.0
v -34.0 -22.0 10.5
v -34.5 -21.0 0.0
v -34.0 -21.0 0.7
v -34.1 -21.0 2.0
v -34.0 -21.2 2.0
v -34.0 -21.0 1.8
v -34.0 -21.0 2.1
v -34.0 -21.4 11.0
v -34.0 -21.0 11.3
v -34.8 -20.0 -1.0
v -34.4 -20.0 0.0
v -34.0 -20.0 0.7
v -34.2 -20.0 2.0
v -34.0 -20.0 1.5
v -34.0 -20.0 2.3
v -34.0 -20.0 11.3
v -34.6 -19.0 -1.0
v -34.4 -19.0 0.0
v -34.0 -19.0 0.8
v -34.1 -19.0 2.0
v -34.0 -19.0 1.5
v -34.0 -19.0 2.2
v -34.8 -19.0 12.0
v -34.0 -19.0 11.3
v -34.8 -18.0 -2.0
v -34.5 -18.0 -1.0
v -34.5 -18.0 0.0
v -34.0 -18.8 1.0
v -34.3 -18.0 1.0
v -34.0 -18.0 1.5
v -34.0 -18.7 2.0
v -34.4 -18.0 11.0
v -34.0 -18.6 11.0
v -34.0 -18.0 10.5
v -34.8 -17.0 -2.0
v -34.5 -17.0 -1.0
v -34.5 -17.0 0.0
v -34.4 -17.0 1.0
v -34.0 -17.0 1.6
v -34.4 -17.0 10.0
v -34.0 -17.5 10.0
v -34.0 -17.0 9.5
v -34.8 -17.0 11.0
v -34.9 -16.0 -1.0
v -34.7 -16.0 0.0
v -34.6 -16.0 1.0
v -34.0 -16.6 2.0
v -34.4 -16.0 2.0
v -34.0 -16.0 2.5
v -34.0 -16.6 9.0
v -34.0 -16.0 8.3
v -34.5 -15.0 3.0
v -34.0 -15.6 3.0
v -34.0 -15.0 3.6
v -34.1 -15.0 7.0
v -34.0 -15.0 7.1
v -34.0 -15.7 8.0
v -34.9 -14.0 4.0
v -34.0 -14.7 4.0
v -35.0 -14.0 5.0
v -34.0 -14.5 5.0
v -34.0 -14.6 6.0
v -34.0 -14.9 7.0
v -33.7 -22.0 1.0
v -33.7 -22.0 2.0
v -33.6 -22.0 3.0
v -33.0 -22.0 3.7
v -33.0 -22.2 4.0
v -33.0 -22.3 5.0
v -33.0 -22.4 6.0
v -33.0 -22.4 7.0
v -33.0 -22.5 8.0
v -33.0 -22.4 9.0
v -33.0 -22.2 10.0
v -33.0 -22.0 10.3
v -33.7 -21.0 1.0
v -33.5 -21.0 3.0
v -33.0 -21.0 3.7
v -33.0 -21.1 11.0
v -33.0 -21.0 11.1
v -33.8 -20.0 1.0
v -33.6 -20.0 3.0
v -33.0 -20.7 4.0
v -33.4 -20.0 4.0
v -33.2 -20.0 5.0
v -33.0 -20.3 5.0
v -33.0 -20.0 5.3
v -33.5 -20.0 11.0
v -33.0 -20.9 11.0
v -33.0 -20.0 10.5
v -33.9 -19.0 1.0
v -33.6 -19.0 3.0
v -33.5 -19.0 4.0
v -33.5 -19.0 5.0
v -33.0 -19.3 6.0
v -33.2 -19.0 6.0
v -33.0 -19.0 6.3
v -33.3 -19.0 10.0
v -33.0 -19.5 10.0
v -33.0 -19.0 9.6
v -33.7 -19.0 11.0
v -33.7 -18.0 2.0
v -33.5 -18.0 3.0
v -33.4 -18.0 4.0
v -33.5 -18.0 5.0
v -33.3 -18.0 6.0
v -33.0 -18.0 6.4
v -33.6 -18.0 10.0
v -33.0 -18.0 9.3
v -33.7 -17.0 2.0
v -33.4 -17.0 3.0
v -33.0 -17.0 4.0
v -33.2 -17.0 5.0
v -33.0 -17.0 5.4
v -33.0 -17.5 6.0
v -33.5 -17.0 9.0
v -33.0 -17.6 9.0
v -33.0 -17.0 8.4
v -33.7 -16.0 3.0
v -33.4 -16.0 4.0
v -33.0 -16.0 4.7
v -33.0 -16.4 5.0
v -33.3 -16.0 7.0
v -33.0 -16.4 7.0
v -33.0 -16.0 6.4
v -33.7 -16.0 8.0
v -33.0 -16.7 8.0
v -33.7 -15.0 4.0
v -33.0 -15.8 5.0
v -33.5 -15.0 5.0
v -33.6 -15.0 6.0
v -33.0 -15.7 6.0
v -33.9 -15.0 7.0
v -32.8 -22.0 4.0
v -32.6 -22.0 5.0
v -32.6 -22.0 6.0
v -32.4 -22.0 7.0
v -32.0 -22.0 7.8
v -32.0 -22.1 8.0
v -32.5 -22.0 9.0
v -32.0 -22.0 8.2
v -32.8 -22.0 10.0
v -32.8 -21.0 4.0
v -32.5 -21.0 5.0
v -32.0 -21.0 5.7
v -32.0 -21.3 6.0
v -32.0 -21.6 7.0
v -32.0 -21.2 9.0
v -32.0 -21.0 9.2
v -32.5 -21.0 10.0
v -32.9 -21.0 11.0
v -32.0 -20.0 5.8
v -32.3 -20.0 8.0
v -32.0 -20.4 8.0
v -32.0 -20.0 7.5
v -32.4 -20.0 9.0
v -32.0 -20.8 9.0
v -32.7 -20.0 10.0
v -32.0 -19.8 6.0
v -32.5 -19.0 7.0
v -32.0 -19.7 7.0
v -32.5 -19.0 8.0
v -32.6 -19.0 9.0
v -32.6 -18.0 7.0
v -32.5 -18.0 8.0
v -32.7 -18.0 9.0
v -32.7 -17.0 6.0
v -32.6 -17.0 7.0
v -32.7 -17.0 8.0
v -32.9 -16.0 5.0
v -32.8 -16.0 6.0
v -31.9 -22.0 8.0
v -31.8 -21.0 6.0
v -31.6 -21.0 7.0
v -31.6 -21.0 8.0
v -31.9 -21.0 9.0
v -31.8 -20.0 6.0
v -31.7 -20.0 7.0
f 3 2 1
f 1 4 3
f 7 6 5
f 7 5 2
f 5 1 2
f 5 8 1
f 4 1 9
f 9 1 8
f 12 11 10
f 14 13 10
f 10 13 12
f 14 15 13
f 18 17 16
f 18 16 6
f 16 5 6
f 16 19 5
f 5 20 8
f 5 19 20
f 9 8 21
f 21 8 20
f 24 23 22
f 26 25 22
f 22 25 24
f 27 10 11
f 26 28 25
f 10 27 14
f 14 27 29
f 14 29 15
f 16 17 30
f 30 17 31
f 16 32 19
f 16 30 32
f 34 20 33
f 20 32 33
f 20 19 32
f 20 34 21
f 37 36 35
f 39 38 35
f 35 38 37
f 38 39 23
f 39 22 23
f 39 40 22
f 42 26 41
f 26 40 41
f 26 22 40
f 26 42 28
f 31 43 30
f 30 43 32
f 32 43 44
f 32 44 33
f 36 45 35
f 35 45 39
f 39 45 46
f 39 46 40
f 40 46 47
f 40 47 41
f 50 49 48
f 48 51 50
f 54 53 52
f 54 52 49
f 52 48 49
f 52 55 48
f 51 48 56
f 48 57 56
f 48 55 57
f 57 58 56
f 61 60 59
f 63 62 59
f 59 62 61
f 63 64 62
f 67 66 65
f 69 68 65
f 65 68 67
f 68 69 53
f 53 69 52
f 69 2 52
f 2 3 52
f 52 3 4
f 70 52 4
f 55 52 70
f 55 71 57
f 55 70 71
f 58 57 72
f 57 73 72
f 57 71 73
f 73 74 72
f 77 76 75
f 77 75 60
f 75 59 60
f 75 78 59
f 59 79 63
f 59 78 79
f 64 63 80
f 80 63 79
f 65 66 81
f 81 66 82
f 81 6 7
f 69 81 7
f 65 81 69
f 69 7 2
f 9 83 70
f 9 70 4
f 70 84 71
f 70 83 84
f 71 85 73
f 71 84 85
f 74 73 86
f 73 87 86
f 73 85 87
f 89 88 87
f 87 88 86
f 91 90 89
f 89 90 88
f 91 92 90
f 95 94 93
f 97 96 93
f 93 96 95
f 96 97 76
f 76 97 75
f 97 11 75
f 11 12 75
f 75 12 13
f 75 13 78
f 78 13 15
f 98 78 15
f 79 78 98
f 80 79 99
f 99 79 98
f 102 101 100
f 102 100 82
f 82 100 81
f 100 17 81
f 17 18 81
f 81 18 6
f 21 103 83
f 21 83 9
f 83 104 84
f 83 103 104
f 106 85 105
f 85 104 105
f 85 84 104
f 85 106 87
f 87 106 107
f 87 107 89
f 89 107 108
f 89 108 91
f 91 108 109
f 109 110 91
f 110 111 91
f 112 92 91
f 112 91 111
f 114 113 111
f 111 113 112
f 113 114 94
f 94 114 93
f 114 23 93
f 23 24 93
f 93 24 25
f 93 25 97
f 115 25 28
f 115 97 25
f 115 27 11
f 97 115 11
f 116 29 27
f 116 27 115
f 116 117 29
f 29 117 15
f 117 118 15
f 118 98 15
f 98 118 99
f 100 101 119
f 119 101 120
f 119 31 17
f 119 17 100
f 123 122 121
f 34 33 121
f 122 34 121
f 124 34 122
f 21 34 103
f 34 125 103
f 34 124 125
f 127 126 125
f 126 103 125
f 126 104 103
f 105 104 128
f 128 104 126
f 131 130 129
f 131 129 110
f 110 129 111
f 129 36 111
f 36 37 111
f 111 37 38
f 111 38 114
f 114 38 23
f 133 132 42
f 133 42 41
f 28 42 115
f 42 134 115
f 42 132 134
f 115 134 116
f 116 134 135
f 116 135 117
f 120 136 119
f 119 136 31
f 136 43 31
f 136 137 43
f 121 44 123
f 44 137 123
f 44 43 137
f 44 121 33
f 127 138 126
f 126 138 128
f 141 140 139
f 142 129 130
f 139 143 141
f 129 142 36
f 142 45 36
f 142 144 45
f 45 145 46
f 144 145 45
f 46 146 47
f 145 146 46
f 41 47 133
f 133 47 146
f 140 147 139
f 139 147 143
f 149 148 50
f 50 148 49
f 151 150 51
f 150 50 51
f 150 149 50
f 151 152 150
f 155 154 153
f 53 54 153
f 54 155 153
f 54 156 155
f 54 49 148
f 54 148 156
f 56 151 51
f 158 157 58
f 58 157 56
f 157 152 56
f 152 151 56
f 158 159 157
f 162 161 160
f 60 61 160
f 61 162 160
f 61 163 162
f 165 163 164
f 163 62 164
f 163 61 62
f 64 164 62
f 167 166 67
f 67 166 66
f 68 153 154
f 167 68 154
f 67 68 167
f 153 68 53
f 72 158 58
f 169 168 74
f 74 168 72
f 168 159 72
f 159 158 72
f 171 170 169
f 169 170 168
f 173 172 171
f 171 172 170
f 175 174 173
f 173 174 172
f 175 176 174
f 179 178 177
f 181 180 177
f 177 180 179
f 180 181 161
f 161 181 160
f 181 76 160
f 76 77 160
f 160 77 60
f 182 165 164
f 64 80 164
f 80 183 164
f 183 182 164
f 183 80 184
f 184 185 183
f 188 187 186
f 166 188 186
f 82 166 186
f 66 166 82
f 190 86 189
f 190 74 86
f 169 74 190
f 169 190 191
f 192 171 191
f 169 191 171
f 189 88 193
f 88 189 86
f 90 193 88
f 193 90 194
f 173 194 90
f 194 173 192
f 171 192 173
f 173 90 92
f 195 173 92
f 175 173 195
f 176 175 196
f 175 197 196
f 175 195 197
f 196 197 178
f 178 197 177
f 197 94 177
f 94 95 177
f 177 95 96
f 177 96 181
f 181 96 76
f 99 198 184
f 99 184 80
f 185 184 199
f 199 184 198
f 186 187 102
f 187 101 102
f 187 200 101
f 186 102 82
f 105 201 106
f 202 190 189
f 106 202 189
f 107 106 189
f 202 106 201
f 107 189 108
f 108 189 193
f 109 108 193
f 203 109 193
f 194 203 193
f 204 109 203
f 112 195 92
f 110 109 204
f 195 112 113
f 195 113 197
f 197 113 94
f 206 205 118
f 206 118 117
f 99 118 198
f 118 207 198
f 118 205 207
f 198 207 199
f 200 120 101
f 208 120 200
f 123 209 122
f 210 124 122
f 210 122 209
f 211 125 124
f 211 124 210
f 211 127 125
f 128 212 201
f 128 201 105
f 202 201 213
f 213 201 212
f 216 215 214
f 216 214 203
f 203 214 204
f 214 130 204
f 130 131 204
f 204 131 110
f 218 217 132
f 218 132 133
f 132 219 134
f 217 219 132
f 134 220 135
f 219 220 134
f 117 135 206
f 206 135 220
f 208 221 120
f 120 221 136
f 136 222 137
f 221 222 136
f 123 137 209
f 137 223 209
f 137 222 223
f 209 223 210
f 210 223 224
f 210 224 211
f 211 224 225
f 225 227 226
f 225 226 138
f 211 225 138
f 127 211 138
f 226 228 138
f 138 228 128
f 228 229 128
f 229 212 128
f 212 229 213
f 214 215 141
f 215 140 141
f 215 230 140
f 231 141 143
f 141 231 214
f 232 214 231
f 214 232 130
f 142 130 232
f 142 233 144
f 232 233 142
f 144 234 145
f 233 234 144
f 145 235 146
f 234 235 145
f 133 146 218
f 218 146 235
f 227 236 226
f 226 236 228
f 230 237 140
f 140 237 147
f 143 147 231
f 231 147 237
f 239 238 149
f 149 238 148
f 240 149 150
f 240 239 149
f 242 241 152
f 241 150 152
f 241 240 150
f 242 243 241
f 245 244 155
f 155 244 154
f 246 155 156
f 246 245 155
f 156 148 238
f 156 238 246
f 157 242 152
f 248 247 159
f 159 247 157
f 247 243 157
f 243 242 157
f 250 249 248
f 248 249 247
f 250 251 249
f 254 253 252
f 252 255 254
f 257 256 162
f 162 256 161
f 258 162 163
f 258 257 162
f 260 259 165
f 259 163 165
f 259 258 163
f 260 261 259
f 263 262 167
f 167 262 166
f 167 154 244
f 167 244 263
f 168 248 159
f 170 264 168
f 265 168 264
f 168 265 248
f 266 248 265
f 248 266 250
f 250 266 251
f 267 170 172
f 170 267 264
f 267 172 268
f 172 269 268
f 172 174 269
f 270 252 176
f 252 269 176
f 269 174 176
f 252 253 269
f 179 271 178
f 271 252 178
f 252 270 178
f 252 271 255
f 272 179 180
f 272 271 179
f 180 161 256
f 180 256 272
f 182 260 165
f 273 261 260
f 182 273 260
f 183 273 182
f 275 274 185
f 274 183 185
f 274 273 183
f 275 276 274
f 278 277 188
f 188 277 187
f 188 166 262
f 188 262 278
f 190 279 191
f 280 265 264
f 191 280 264
f 192 191 264
f 280 191 279
f 192 264 194
f 264 281 194
f 264 267 281
f 267 268 282
f 267 282 281
f 196 270 176
f 270 196 178
f 285 284 283
f 284 286 275
f 199 284 275
f 185 199 275
f 283 284 199
f 275 286 276
f 277 200 187
f 287 200 277
f 202 288 279
f 202 279 190
f 280 279 289
f 279 290 289
f 279 288 290
f 291 289 281
f 289 203 281
f 203 194 281
f 289 290 203
f 291 281 282
f 294 293 292
f 205 206 292
f 293 205 292
f 295 205 293
f 283 207 285
f 207 295 285
f 207 205 295
f 207 283 199
f 287 208 200
f 296 208 287
f 213 297 288
f 213 288 202
f 297 215 216
f 290 297 216
f 288 297 290
f 290 216 203
f 300 299 298
f 217 218 298
f 299 217 298
f 301 217 299
f 217 302 219
f 301 302 217
f 292 220 294
f 220 302 294
f 220 219 302
f 220 292 206
f 296 303 208
f 208 303 221
f 221 304 222
f 303 304 221
f 222 305 223
f 304 305 222
f 305 307 306
f 224 305 306
f 223 305 224
f 308 225 224
f 308 224 306
f 308 227 225
f 228 309 229
f 297 213 229
f 309 297 229
f 310 297 309
f 310 230 215
f 310 215 297
f 312 311 232
f 312 232 231
f 232 313 233
f 311 313 232
f 233 314 234
f 313 314 233
f 298 235 300
f 235 314 300
f 235 234 314
f 235 298 218
f 307 315 306
f 306 315 308
f 308 315 316
f 308 316 227
f 316 236 227
f 316 317 236
f 228 236 309
f 236 318 309
f 236 317 318
f 309 318 310
f 310 318 319
f 310 319 230
f 319 237 230
f 319 320 237
f 231 237 312
f 312 237 320
f 322 321 239
f 239 321 238
f 323 239 240
f 323 322 239
f 324 240 241
f 324 323 240
f 326 325 243
f 325 241 243
f 325 324 241
f 328 327 326
f 326 327 325
f 330 329 328
f 328 329 327
f 330 331 329
f 334 333 332
f 336 335 332
f 332 335 334
f 336 337 335
f 339 338 245
f 245 338 244
f 340 245 246
f 340 339 245
f 246 238 321
f 246 321 340
f 247 326 243
f 249 341 247
f 342 247 341
f 247 342 326
f 343 326 342
f 326 343 328
f 341 249 251
f 330 343 344
f 343 330 328
f 330 344 331
f 346 345 254
f 254 345 253
f 254 255 346
f 346 255 347
f 350 349 348
f 256 257 348
f 257 350 348
f 257 351 350
f 258 332 333
f 351 258 333
f 257 258 351
f 332 258 259
f 332 259 336
f 353 352 261
f 261 352 259
f 352 337 259
f 337 336 259
f 353 354 352
f 356 355 263
f 263 355 262
f 263 244 338
f 263 338 356
f 342 341 266
f 265 342 266
f 357 342 265
f 266 341 251
f 358 268 269
f 359 358 269
f 253 359 269
f 345 359 253
f 360 347 255
f 360 255 271
f 272 348 349
f 360 272 349
f 271 272 360
f 348 272 256
f 273 353 261
f 273 274 353
f 274 361 353
f 361 354 353
f 274 362 361
f 276 362 274
f 364 363 278
f 278 363 277
f 278 262 355
f 278 355 364
f 280 357 265
f 280 365 357
f 367 366 358
f 366 268 358
f 366 282 268
f 367 358 359
f 370 369 368
f 284 285 368
f 369 284 368
f 371 284 369
f 362 286 361
f 286 371 361
f 286 284 371
f 286 362 276
f 363 287 277
f 372 287 363
f 373 365 280
f 373 280 289
f 374 289 291
f 374 373 289
f 291 282 366
f 291 366 374
f 376 375 293
f 376 293 294
f 368 295 370
f 295 375 370
f 295 293 375
f 295 368 285
f 378 296 377
f 296 372 377
f 296 287 372
f 379 378 377
f 300 380 299
f 299 380 381
f 382 299 381
f 301 299 382
f 382 384 383
f 302 382 383
f 301 382 302
f 383 385 302
f 385 294 302
f 385 376 294
f 378 303 296
f 379 386 378
f 386 303 378
f 386 304 303
f 304 387 305
f 386 387 304
f 307 305 387
f 307 387 388
f 390 389 311
f 390 311 312
f 311 391 313
f 389 391 311
f 313 392 314
f 391 392 313
f 300 314 380
f 314 393 380
f 314 392 393
f 380 393 381
f 384 394 383
f 383 394 385
f 388 395 307
f 307 395 315
f 315 396 316
f 395 396 315
f 316 397 317
f 396 397 316
f 317 398 318
f 397 398 317
f 318 399 319
f 398 399 318
f 319 400 320
f 399 400 319
f 312 320 390
f 390 320 400
f 403 402 401
f 405 404 401
f 401 404 403
f 405 406 404
f 409 408 407
f 411 410 407
f 407 410 409
f 321 322 411
f 322 410 411
f 322 412 410
f 413 322 323
f 413 412 322
f 414 323 324
f 414 413 323
f 415 324 325
f 415 414 324
f 327 401 402
f 415 327 402
f 325 327 415
f 401 327 329
f 401 329 405
f 417 416 331
f 331 416 329
f 416 406 329
f 406 405 329
f 417 418 416
f 419 333 334
f 335 420 334
f 334 420 419
f 337 420 335
f 423 422 421
f 423 421 408
f 408 421 407
f 421 338 407
f 338 339 407
f 407 339 340
f 407 340 411
f 411 340 321
f 342 424 343
f 425 344 343
f 425 343 424
f 417 331 344
f 425 417 344
f 426 417 425
f 346 427 345
f 427 417 345
f 417 426 345
f 417 427 418
f 429 428 347
f 428 346 347
f 428 427 346
f 349 350 429
f 350 428 429
f 350 430 428
f 431 350 351
f 431 430 350
f 351 333 419
f 432 351 419
f 431 351 432
f 432 419 420
f 432 420 433
f 433 420 337
f 352 433 337
f 434 433 352
f 352 354 434
f 434 354 435
f 421 422 356
f 422 355 356
f 422 436 355
f 421 356 338
f 357 437 424
f 357 424 342
f 424 438 425
f 424 437 438
f 425 439 426
f 425 438 439
f 439 359 345
f 439 345 426
f 360 429 347
f 429 360 349
f 442 441 440
f 441 435 440
f 435 361 440
f 435 354 361
f 444 443 364
f 364 443 363
f 364 355 436
f 364 436 444
f 365 445 437
f 365 437 357
f 437 446 438
f 437 445 446
f 446 366 367
f 439 446 367
f 438 446 439
f 439 367 359
f 448 447 369
f 448 369 370
f 440 371 442
f 371 447 442
f 371 369 447
f 371 440 361
f 450 372 449
f 372 443 449
f 372 363 443
f 451 450 449
f 373 445 365
f 445 373 374
f 445 374 446
f 446 374 366
f 453 452 375
f 453 375 376
f 370 375 448
f 448 375 452
f 450 377 372
f 379 377 450
f 451 379 450
f 454 379 451
f 456 455 382
f 456 382 381
f 384 382 455
f 384 455 457
f 385 453 376
f 385 458 453
f 454 459 379
f 379 459 386
f 459 461 460
f 387 459 460
f 386 459 387
f 460 388 387
f 464 463 462
f 389 390 462
f 463 389 462
f 465 389 463
f 389 466 391
f 465 466 389
f 391 467 392
f 466 467 391
f 392 468 393
f 467 468 392
f 381 393 456
f 456 393 468
f 457 469 384
f 384 469 394
f 385 394 458
f 458 394 469
f 461 470 460
f 460 470 388
f 470 395 388
f 470 471 395
f 471 473 472
f 396 471 472
f 395 471 396
f 474 397 396
f 474 396 472
f 397 474 475
f 476 397 475
f 398 397 476
f 398 477 399
f 476 477 398
f 462 400 464
f 400 477 464
f 400 399 477
f 400 462 390
f 473 478 472
f 472 478 474
f 474 478 479
f 474 479 475
f 480 402 403
f 404 481 403
f 403 481 480
f 406 481 404
f 483 482 409
f 409 482 408
f 484 409 410
f 484 483 409
f 485 410 412
f 485 484 410
f 486 412 413
f 486 485 412
f 487 413 414
f 487 486 413
f 488 414 415
f 488 487 414
f 415 402 480
f 489 415 480
f 488 415 489
f 489 480 481
f 489 481 490
f 492 490 491
f 491 490 416
f 490 481 416
f 481 406 416
f 418 491 416
f 494 493 423
f 423 493 422
f 423 408 482
f 423 482 494
f 495 492 491
f 495 491 418
f 427 495 418
f 496 495 427
f 497 427 428
f 497 496 427
f 498 428 430
f 498 497 428
f 499 430 431
f 499 498 430
f 501 499 500
f 499 432 500
f 499 431 432
f 433 502 432
f 432 502 500
f 434 503 433
f 433 503 502
f 435 503 434
f 493 436 422
f 504 436 493
f 501 500 505
f 501 505 506
f 507 500 502
f 505 500 507
f 442 507 441
f 507 503 441
f 507 502 503
f 441 503 435
f 509 508 444
f 444 508 443
f 444 436 504
f 444 504 509
f 510 506 505
f 448 511 447
f 511 505 447
f 505 507 447
f 511 510 505
f 447 507 442
f 449 443 512
f 443 513 512
f 443 508 513
f 512 451 449
f 515 514 452
f 515 452 453
f 448 452 511
f 511 452 514
f 512 513 516
f 516 513 517
f 516 454 451
f 516 451 512
f 456 518 455
f 518 457 455
f 458 515 453
f 458 519 515
f 517 520 516
f 516 520 454
f 520 459 454
f 520 521 459
f 461 459 521
f 461 521 522
f 464 523 463
f 463 523 524
f 525 463 524
f 465 463 525
f 465 526 466
f 525 526 465
f 466 527 467
f 526 527 466
f 467 528 468
f 527 528 467
f 456 468 518
f 468 529 518
f 468 528 529
f 518 529 457
f 529 469 457
f 529 530 469
f 458 469 519
f 519 469 530
f 522 531 461
f 461 531 470
f 531 533 532
f 471 531 532
f 470 531 471
f 532 473 471
f 475 534 476
f 476 534 535
f 536 476 535
f 477 476 536
f 464 477 523
f 477 537 523
f 477 536 537
f 523 537 524
f 533 538 532
f 532 538 473
f 538 478 473
f 538 539 478
f 478 540 479
f 539 540 478
f 475 479 534
f 479 541 534
f 479 540 541
f 534 541 535
f 543 542 483
f 483 542 482
f 544 483 484
f 544 543 483
f 545 484 485
f 545 544 484
f 546 485 486
f 546 545 485
f 547 486 487
f 547 546 486
f 548 487 488
f 548 547 487
f 549 488 489
f 549 548 488
f 550 489 490
f 550 549 489
f 552 551 492
f 551 490 492
f 551 550 490
f 554 553 552
f 552 553 551
f 556 555 554
f 554 555 553
f 556 557 555
f 558 493 494
f 559 558 494
f 482 559 494
f 542 559 482
f 495 552 492
f 552 495 496
f 552 496 554
f 554 496 497
f 554 497 556
f 560 557 556
f 497 560 556
f 498 560 497
f 562 560 561
f 560 499 561
f 560 498 499
f 501 561 499
f 564 563 558
f 563 493 558
f 563 504 493
f 564 558 559
f 562 561 565
f 562 565 566
f 506 565 501
f 501 565 561
f 567 508 509
f 568 567 509
f 504 568 509
f 563 568 504
f 569 566 565
f 571 569 570
f 570 569 510
f 569 565 510
f 565 506 510
f 511 570 510
f 573 572 567
f 572 508 567
f 572 513 508
f 573 567 568
f 576 575 574
f 574 575 571
f 574 571 570
f 515 574 570
f 514 515 570
f 514 570 511
f 572 517 513
f 577 517 572
f 576 574 578
f 576 578 579
f 519 578 515
f 515 578 574
f 577 580 517
f 517 580 520
f 580 582 581
f 521 580 581
f 520 580 521
f 581 522 521
f 524 583 525
f 584 526 525
f 584 525 583
f 526 584 585
f 586 526 585
f 527 526 586
f 527 587 528
f 586 587 527
f 528 588 529
f 587 588 528
f 578 530 579
f 530 588 579
f 530 529 588
f 530 578 519
f 582 589 581
f 581 589 522
f 589 531 522
f 589 590 531
f 592 591 533
f 531 592 533
f 590 592 531
f 594 593 591
f 594 591 592
f 595 593 594
f 535 596 536
f 597 537 536
f 597 536 596
f 597 598 537
f 537 598 524
f 598 599 524
f 599 583 524
f 583 599 584
f 584 599 600
f 584 600 585
f 591 538 533
f 538 591 539
f 539 591 593
f 595 601 593
f 601 539 593
f 601 540 539
f 601 603 602
f 541 601 602
f 540 601 541
f 596 535 541
f 602 596 541
f 604 596 602
f 606 597 605
f 597 604 605
f 597 596 604
f 597 606 598
f 603 607 602
f 602 607 604
f 604 607 608
f 604 608 605
f 609 542 543
f 609 543 610
f 543 611 610
f 543 544 611
f 612 544 545
f 612 611 544
f 613 545 546
f 613 612 545
f 614 546 547
f 614 613 546
f 615 547 548
f 615 614 547
f 616 548 549
f 616 615 548
f 617 549 550
f 617 616 549
f 618 550 551
f 618 617 550
f 619 551 553
f 619 618 551
f 620 553 555
f 620 619 553
f 555 557 620
f 620 557 621
f 622 559 609
f 609 559 542
f 609 610 623
f 609 623 622
f 626 625 624
f 627 624 625
f 628 621 557
f 628 557 560
f 560 562 628
f 628 562 629
f 630 563 564
f 559 622 564
f 622 630 564
f 622 631 630
f 622 623 632
f 622 632 631
f 626 624 633
f 626 633 634
f 624 627 635
f 624 635 633
f 566 629 562
f 566 636 629
f 637 568 630
f 630 568 563
f 638 630 631
f 637 630 638
f 631 632 639
f 631 639 638
f 634 633 640
f 634 640 641
f 633 635 642
f 633 642 640
f 566 569 643
f 644 566 643
f 636 566 644
f 571 643 569
f 645 572 573
f 568 637 573
f 637 645 573
f 637 646 645
f 647 637 638
f 646 637 647
f 638 639 648
f 649 638 648
f 647 638 649
f 649 651 650
f 649 640 651
f 649 648 641
f 640 649 641
f 651 640 642
f 654 653 652
f 652 653 644
f 652 644 643
f 576 652 643
f 575 576 643
f 575 643 571
f 655 577 645
f 645 577 572
f 656 645 646
f 655 645 656
f 657 646 647
f 656 646 657
f 658 647 649
f 657 647 658
f 649 650 659
f 649 659 658
f 662 661 660
f 660 661 654
f 652 660 654
f 663 660 652
f 579 663 576
f 576 663 652
f 655 580 577
f 580 655 582
f 655 664 582
f 655 656 664
f 665 656 657
f 664 656 665
f 666 657 658
f 665 657 666
f 658 659 667
f 668 658 667
f 666 658 668
f 669 668 667
f 671 670 586
f 671 586 585
f 660 587 662
f 587 670 662
f 587 586 670
f 587 660 588
f 588 660 663
f 588 663 579
f 664 589 582
f 589 664 590
f 590 664 665
f 590 665 592
f 592 665 666
f 592 666 594
f 594 666 668
f 673 672 595
f 673 595 594
f 669 673 594
f 668 669 594
f 674 672 673
f 598 675 599
f 599 675 676
f 677 599 676
f 600 599 677
f 585 600 671
f 671 600 677
f 672 601 595
f 679 678 603
f 679 603 601
f 674 679 601
f 672 674 601
f 681 680 678
f 681 678 679
f 606 605 680
f 681 606 680
f 682 606 681
f 598 606 675
f 606 683 675
f 606 682 683
f 675 683 676
f 678 607 603
f 607 678 608
f 608 678 680
f 608 680 605
f 684 610 611
f 612 685 611
f 611 685 684
f 613 686 612
f 612 686 685
f 686 613 687
f 613 688 687
f 613 614 688
f 689 614 615
f 689 688 614
f 690 615 616
f 690 689 615
f 691 616 617
f 691 690 616
f 692 617 618
f 692 691 617
f 693 618 619
f 693 692 618
f 694 619 620
f 694 693 619
f 620 621 694
f 694 621 695
f 696 623 684
f 684 623 610
f 626 696 625
f 696 685 625
f 696 684 685
f 625 685 627
f 685 697 627
f 685 686 697
f 686 687 698
f 686 698 697
f 699 695 621
f 699 621 628
f 628 629 699
f 699 629 700
f 701 632 696
f 696 632 623
f 634 701 626
f 626 701 696
f 702 635 697
f 697 635 627
f 697 698 703
f 704 697 703
f 702 697 704
f 706 705 704
f 706 704 703
f 707 705 706
f 710 709 708
f 709 700 708
f 700 636 708
f 700 629 636
f 711 639 701
f 701 639 632
f 641 711 634
f 634 711 701
f 712 642 702
f 702 642 635
f 713 702 704
f 712 702 713
f 714 704 705
f 713 704 714
f 705 707 715
f 716 705 715
f 714 705 716
f 717 716 715
f 720 719 718
f 718 719 710
f 708 718 710
f 721 718 708
f 644 721 636
f 636 721 708
f 711 648 639
f 648 711 641
f 722 650 651
f 642 712 651
f 712 722 651
f 712 723 722
f 724 712 713
f 723 712 724
f 725 713 714
f 724 713 725
f 726 714 716
f 725 714 726
f 716 717 727
f 716 727 726
f 720 718 728
f 720 728 729
f 654 728 653
f 728 721 653
f 728 718 721
f 653 721 644
f 730 659 722
f 722 659 650
f 731 722 723
f 730 722 731
f 732 723 724
f 731 723 732
f 733 724 725
f 732 724 733
f 726 735 734
f 733 726 734
f 725 726 733
f 735 726 727
f 738 737 736
f 736 737 729
f 736 729 728
f 662 736 728
f 661 662 728
f 661 728 654
f 730 667 659
f 667 730 669
f 730 739 669
f 730 731 739
f 740 731 732
f 739 731 740
f 733 742 741
f 740 733 741
f 732 733 740
f 742 733 734
f 745 744 743
f 747 746 743
f 747 743 744
f 746 747 738
f 746 738 736
f 671 746 736
f 670 671 736
f 670 736 662
f 739 673 669
f 673 739 674
f 739 748 674
f 739 740 748
f 740 741 749
f 750 740 749
f 748 740 750
f 752 751 750
f 752 750 749
f 751 752 745
f 743 751 745
f 753 751 743
f 676 753 677
f 753 746 677
f 753 743 746
f 677 746 671
f 748 679 674
f 679 748 681
f 681 748 750
f 681 750 682
f 682 750 751
f 682 751 683
f 683 751 753
f 683 753 676
f 754 687 688
f 689 755 688
f 688 755 754
f 690 756 689
f 689 756 755
f 691 757 690
f 690 757 756
f 757 691 758
f 691 759 758
f 691 692 759
f 761 759 760
f 759 693 760
f 759 692 693
f 694 762 693
f 693 762 760
f 695 762 694
f 763 698 754
f 754 698 687
f 764 754 755
f 763 754 764
f 756 766 765
f 764 756 765
f 755 756 764
f 766 756 757
f 766 757 767
f 767 757 758
f 768 761 760
f 770 769 768
f 760 770 768
f 762 770 760
f 699 771 695
f 771 762 695
f 771 770 762
f 700 771 699
f 763 703 698
f 703 763 706
f 706 763 764
f 707 706 764
f 765 707 764
f 772 707 765
f 775 774 773
f 777 776 773
f 777 773 774
f 776 777 769
f 770 776 769
f 778 776 770
f 710 778 709
f 778 771 709
f 778 770 771
f 709 771 700
f 772 779 707
f 707 779 715
f 781 780 717
f 715 781 717
f 779 781 715
f 780 781 775
f 773 780 775
f 782 780 773
f 783 773 776
f 782 773 783
f 720 783 719
f 783 778 719
f 783 776 778
f 719 778 710
f 784 727 780
f 780 727 717
f 785 780 782
f 784 780 785
f 786 782 783
f 785 782 786
f 729 786 720
f 720 786 783
f 787 734 735
f 727 784 735
f 784 787 735
f 784 788 787
f 789 784 785
f 788 784 789
f 738 789 737
f 789 786 737
f 789 785 786
f 737 786 729
f 790 741 742
f 734 787 742
f 787 790 742
f 787 791 790
f 745 791 744
f 791 788 744
f 791 787 788
f 744 788 747
f 747 788 789
f 747 789 738
f 790 749 741
f 749 790 752
f 752 790 791
f 752 791 745
f 792 758 759
f 761 792 759
f 793 765 766
f 767 794 766
f 766 794 793
f 758 792 767
f 792 794 767
f 792 795 794
f 768 796 761
f 796 792 761
f 796 795 792
f 769 796 768
f 797 772 793
f 793 772 765
f 798 793 794
f 797 793 798
f 775 798 774
f 798 795 774
f 798 794 795
f 774 795 777
f 777 795 796
f 777 796 769
f 797 779 772
f 779 797 781
f 781 797 798
f 781 798 775
