v -18.3 -13.0 -18.0
v -18.0 -13.0 -18.5
v -18.0 -13.4 -18.0
v -18.0 -13.5 -17.0
v -18.4 -13.0 -17.0
v -18.0 -13.5 -16.0
v -18.4 -13.0 -16.0
v -18.0 -13.3 -15.0
v -18.2 -13.0 -15.0
v -18.0 -13.0 -14.8
v -18.2 -12.0 -20.0
v -18.0 -12.0 -20.3
v -18.0 -12.3 -20.0
v -18.0 -12.6 -19.0
v -18.4 -12.0 -19.0
v -18.5 -12.0 -18.0
v -18.5 -12.0 -17.0
v -18.5 -12.0 -16.0
v -18.3 -12.0 -15.0
v -18.0 -12.0 -14.7
v -18.2 -11.0 -20.0
v -18.0 -11.0 -20.3
v -18.4 -11.0 -19.0
v -18.4 -11.0 -18.0
v -18.4 -11.0 -17.0
v -18.3 -11.0 -16.0
v -18.0 -11.0 -15.5
v -18.0 -11.6 -15.0
v -18.0 -10.7 -20.0
v -18.0 -10.5 -19.0
v -18.0 -10.5 -18.0
v -18.0 -10.5 -17.0
v -18.0 -10.6 -16.0
v -17.3 -14.0 -19.0
v -17.0 -14.0 -19.4
v -17.0 -14.3 -19.0
v -17.0 -14.4 -18.0
v -17.4 -14.0 -18.0
v -17.0 -14.4 -17.0
v -17.4 -14.0 -17.0
v -17.0 -14.3 -16.0
v -17.3 -14.0 -16.0
v -17.0 -14.0 -15.0
v -17.0 -14.0 -15.0
v -17.0 -14.0 -15.0
v -17.2 -13.0 -22.0
v -17.0 -13.0 -22.3
v -17.0 -13.3 -22.0
v -17.0 -13.4 -21.0
v -17.4 -13.0 -21.0
v -17.0 -13.6 -20.0
v -17.5 -13.0 -20.0
v -17.7 -13.0 -19.0
v -17.0 -13.0 -14.5
v -17.4 -12.0 -22.0
v -17.0 -12.0 -22.5
v -17.6 -12.0 -21.0
v -17.0 -12.1 -14.0
v -17.1 -12.0 -14.0
v -17.0 -12.0 -13.9
v -17.3 -11.0 -22.0
v -17.0 -11.0 -22.4
v -17.5 -11.0 -21.0
v -17.7 -11.0 -15.0
v -17.2 -11.0 -14.0
v -17.0 -11.0 -13.8
v -17.0 -10.0 -22.0
v -17.0 -10.0 -22.0
v -17.0 -10.0 -21.9
v -17.0 -10.3 -21.0
v -17.3 -10.0 -20.0
v -17.0 -10.0 -20.6
v -17.5 -10.0 -19.0
v -17.5 -10.0 -18.0
v -17.5 -10.0 -17.0
v -17.4 -10.0 -16.0
v -17.1 -10.0 -15.0
v -17.0 -10.0 -14.9
v -17.0 -10.8 -14.0
v -17.0 -10.0 -22.0
v -17.0 -9.7 -20.0
v -17.0 -9.6 -19.0
v -17.0 -9.6 -18.0
v -17.0 -9.6 -17.0
v -17.0 -9.7 -16.0
v -17.0 -9.9 -15.0
v -16.1 -15.0 -23.0
v -16.0 -15.0 -23.1
v -16.0 -15.2 -23.0
v -16.0 -15.0 -22.7
v -16.0 -15.0 -20.0
v -16.0 -15.0 -20.0
v -16.0 -15.0 -20.0
v -16.0 -15.0 -19.9
v -16.4 -14.0 -23.0
v -16.0 -14.0 -23.4
v -16.0 -14.6 -22.0
v -16.4 -14.0 -22.0
v -16.0 -14.0 -21.2
v -16.6 -14.0 -20.0
v -16.0 -14.0 -20.9
v -16.0 -14.7 -19.0
v -16.0 -14.6 -18.0
v -16.0 -14.5 -17.0
v -16.1 -14.0 -16.0
v -16.0 -14.0 -16.0
v -16.9 -14.0 -15.0
v -16.5 -13.0 -23.0
v -16.0 -13.0 -23.5
v -16.0 -13.9 -21.0
v -16.0 -14.0 -16.0
v -16.0 -13.7 -15.0
v -16.0 -13.0 -14.5
v -16.5 -12.0 -23.0
v -16.0 -12.0 -23.5
v -16.8 -12.0 -14.0
v -16.0 -12.0 -14.3
v -16.3 -11.0 -23.0
v -16.0 -11.0 -23.3
v -16.0 -11.2 -14.0
v -16.0 -11.0 -13.9
v -16.0 -10.7 -23.0
v -16.0 -10.0 -22.4
v -16.7 -10.0 -21.0
v -16.7 -10.0 -15.0
v -16.0 -10.2 -15.0
v -16.0 -10.0 -15.2
v -16.0 -10.9 -14.0
v -16.0 -9.6 -22.0
v -16.0 -9.6 -21.0
v -16.0 -9.4 -20.0
v -16.0 -9.4 -19.0
v -16.0 -9.4 -18.0
v -16.0 -9.4 -17.0
v -16.0 -9.6 -16.0
v -15.3 -16.0 -23.0
v -15.0 -16.0 -23.2
v -15.0 -16.3 -23.0
v -15.0 -16.5 -22.0
v -15.7 -16.0 -22.0
v -15.0 -16.0 -21.5
v -15.0 -15.0 -23.6
v -15.7 -15.0 -22.0
v -15.0 -15.0 -21.1
v -15.0 -15.0 -20.9
v -15.0 -15.5 -20.0
v -15.0 -15.5 -19.0
v -15.6 -15.0 -19.0
v -15.0 -15.4 -18.0
v -15.5 -15.0 -18.0
v -15.0 -15.3 -17.0
v -15.4 -15.0 -17.0
v -15.0 -15.2 -16.0
v -15.2 -15.0 -16.0
v -15.0 -15.0 -15.0
v -15.0 -15.0 -15.0
v -15.0 -15.0 -15.0
v -15.3 -14.0 -24.0
v -15.0 -14.0 -24.2
v -15.0 -14.3 -24.0
v -15.0 -14.9 -21.0
v -15.9 -14.0 -21.0
v -16.0 -14.0 -16.0
v -15.7 -14.0 -15.0
v -15.0 -14.0 -14.0
v -15.0 -14.0 -14.0
v -15.0 -14.0 -14.0
v -15.5 -13.0 -24.0
v -15.0 -13.0 -24.4
v -15.2 -13.0 -14.0
v -15.0 -13.0 -13.9
v -15.3 -12.0 -24.0
v -15.0 -12.0 -24.2
v -15.0 -12.8 -14.0
v -15.0 -12.0 -14.3
v -15.0 -11.7 -24.0
v -15.0 -11.0 -23.5
v -15.8 -11.0 -14.0
v -15.0 -11.0 -14.3
v -15.0 -10.4 -23.0
v -15.0 -10.0 -22.6
v -15.4 -10.0 -15.0
v -15.0 -10.0 -14.9
v -15.0 -9.5 -22.0
v -15.0 -9.3 -21.0
v -15.4 -9.0 -20.0
v -15.0 -9.0 -20.5
v -15.5 -9.0 -19.0
v -15.5 -9.0 -18.0
v -15.4 -9.0 -17.0
v -15.0 -9.0 -16.7
v -15.0 -9.4 -16.0
v -15.0 -9.9 -15.0
v -15.0 -8.7 -20.0
v -15.0 -8.5 -19.0
v -15.0 -8.5 -18.0
v -15.0 -8.7 -17.0
v -14.1 -18.0 -23.0
v -14.0 -18.0 -23.1
v -14.0 -18.1 -23.0
v -14.0 -18.4 -22.0
v -14.3 -18.0 -22.0
v -14.0 -18.2 -21.0
v -14.2 -18.0 -21.0
v -14.0 -18.0 -20.8
v -14.0 -17.6 -23.0
v -14.5 -17.0 -22.0
v -14.0 -17.0 -22.8
v -14.4 -17.0 -21.0
v -14.0 -17.0 -20.5
v -14.0 -16.0 -23.5
v -14.0 -16.8 -23.0
v -14.6 -16.0 -21.0
v -14.0 -16.5 -20.0
v -14.5 -16.0 -20.0
v -14.0 -16.1 -19.0
v -14.2 -16.0 -19.0
v -14.0 -16.0 -18.8
v -14.0 -15.0 -23.7
v -14.9 -15.0 -21.0
v -14.0 -15.6 -18.0
v -14.0 -15.3 -17.0
v -14.6 -15.0 -16.0
v -14.0 -15.0 -16.5
v -15.0 -15.0 -15.0
v -14.0 -14.0 -24.3
v -14.0 -14.5 -24.0
v -14.0 -14.7 -16.0
v -14.0 -14.3 -15.0
v -15.0 -14.0 -14.0
v -14.0 -14.0 -14.7
v -14.0 -13.0 -24.5
v -14.8 -13.0 -14.0
v -14.0 -13.0 -14.4
v -14.0 -12.0 -24.3
v -14.0 -12.2 -14.0
v -14.2 -12.0 -14.0
v -14.0 -12.0 -13.9
v -14.0 -11.6 -24.0
v -14.0 -11.0 -23.6
v -14.1 -11.0 -14.0
v -14.0 -11.0 -14.0
v -14.5 -10.0 -23.0
v -14.0 -10.0 -23.3
v -14.6 -10.0 -15.0
v -14.0 -10.2 -15.0
v -14.0 -10.0 -15.2
v -14.0 -11.0 -14.0
v -14.0 -9.7 -23.0
v -14.4 -9.0 -22.0
v -14.0 -9.0 -22.3
v -14.6 -9.0 -21.0
v -14.0 -9.4 -16.0
v -14.0 -9.0 -16.4
v -14.0 -8.7 -22.0
v -14.0 -8.5 -21.0
v -14.0 -8.3 -20.0
v -14.4 -8.0 -19.0
v -14.0 -8.0 -19.5
v -14.3 -8.0 -18.0
v -14.0 -8.0 -17.7
v -14.0 -8.5 -17.0
v -14.0 -7.7 -19.0
v -14.0 -7.8 -18.0
v -13.0 -18.0 -24.0
v -13.0 -18.5 -23.0
v -13.0 -18.8 -22.0
v -13.0 -18.2 -21.0
v -13.0 -18.0 -20.8
v -13.2 -17.0 -24.0
v -13.0 -17.0 -24.1
v -13.0 -18.0 -24.0
v -13.8 -17.0 -23.0
v -13.0 -17.0 -20.5
v -13.2 -16.0 -24.0
v -13.0 -16.0 -24.2
v -13.0 -16.4 -20.0
v -13.8 -16.0 -19.0
v -13.0 -16.0 -19.5
v -13.2 -15.0 -24.0
v -13.0 -15.0 -24.1
v -13.0 -15.6 -19.0
v -13.0 -15.3 -18.0
v -13.5 -15.0 -17.0
v -13.0 -15.0 -17.6
v -13.4 -14.0 -24.0
v -13.0 -14.8 -24.0
v -13.0 -14.0 -23.8
v -13.0 -14.6 -17.0
v -13.0 -14.2 -16.0
v -13.7 -14.0 -15.0
v -13.0 -14.0 -15.7
v -13.0 -13.0 -24.2
v -13.0 -13.4 -24.0
v -13.4 -13.0 -15.0
v -13.0 -13.0 -15.4
v -13.0 -12.7 -24.0
v -13.5 -12.0 -24.0
v -13.0 -12.0 -23.7
v -13.0 -12.5 -15.0
v -13.9 -12.0 -14.0
v -13.0 -12.0 -14.7
v -13.0 -11.0 -23.5
v -13.9 -11.0 -14.0
v -13.0 -11.0 -14.6
v -13.0 -10.0 -23.4
v -13.4 -10.0 -15.0
v -13.0 -10.0 -14.9
v -13.0 -9.4 -23.0
v -13.0 -9.0 -22.7
v -13.5 -9.0 -16.0
v -13.0 -9.0 -15.7
v -13.0 -9.9 -15.0
v -13.3 -8.0 -22.0
v -13.0 -8.0 -22.2
v -13.5 -8.0 -21.0
v -13.6 -8.0 -20.0
v -13.0 -8.3 -17.0
v -13.0 -8.0 -17.4
v -13.0 -8.7 -16.0
v -13.0 -7.8 -22.0
v -13.0 -7.6 -21.0
v -13.0 -7.5 -20.0
v -13.0 -7.4 -19.0
v -13.0 -7.6 -18.0
v -12.2 -18.0 -23.0
v -12.4 -18.0 -22.0
v -12.8 -18.0 -21.0
v -12.8 -17.0 -24.0
v -12.4 -17.0 -23.0
v -12.0 -17.0 -22.4
v -12.0 -17.3 -22.0
v -12.0 -17.0 -21.7
v -12.4 -17.0 -21.0
v -12.8 -16.0 -24.0
v -12.4 -16.0 -23.0
v -12.0 -16.0 -22.6
v -12.0 -16.5 -21.0
v -12.5 -16.0 -20.0
v -12.0 -16.0 -20.5
v -12.9 -15.0 -24.0
v -12.3 -15.0 -23.0
v -12.0 -15.0 -22.7
v -12.0 -15.5 -20.0
v -12.4 -15.0 -19.0
v -12.0 -15.0 -19.5
v -12.7 -15.0 -18.0
v -12.0 -14.5 -23.0
v -12.0 -14.0 -23.3
v -12.0 -14.5 -19.0
v -12.0 -14.0 -18.4
v -12.3 -14.0 -18.0
v -12.6 -14.0 -17.0
v -12.8 -14.0 -16.0
v -12.8 -13.0 -24.0
v -12.0 -13.0 -23.4
v -12.0 -13.5 -18.0
v -12.0 -13.0 -17.6
v -12.4 -13.0 -17.0
v -12.6 -13.0 -16.0
v -12.0 -12.0 -23.3
v -12.0 -12.0 -22.0
v -12.0 -12.1 -22.0
v -12.0 -12.0 -22.1
v -12.0 -12.0 -21.1
v -12.2 -12.0 -17.0
v -12.0 -12.0 -17.3
v -12.5 -12.0 -16.0
v -12.7 -12.0 -15.0
v -12.0 -11.0 -23.4
v -12.0 -12.0 -22.0
v -12.0 -11.6 -17.0
v -12.0 -11.0 -16.4
v -12.3 -11.0 -16.0
v -12.6 -11.0 -15.0
v -12.0 -10.0 -23.4
v -12.0 -10.5 -16.0
v -12.0 -10.0 -15.6
v -12.9 -10.0 -15.0
v -12.2 -9.0 -23.0
v -12.0 -9.0 -23.1
v -12.0 -9.0 -15.6
v -12.0 -8.9 -23.0
v -12.0 -8.0 -22.3
v -12.2 -8.0 -17.0
v -12.0 -8.0 -16.9
v -12.0 -8.6 -16.0
v -12.0 -7.7 -22.0
v -12.0 -7.3 -21.0
v -12.5 -7.0 -20.0
v -12.0 -7.0 -20.6
v -12.5 -7.0 -19.0
v -12.0 -7.0 -18.5
v -12.0 -7.5 -18.0
v -12.0 -7.9 -17.0
v -12.1 -6.0 -20.0
v -12.0 -6.0 -20.1
v -12.0 -6.0 -19.0
v -12.0 -6.0 -19.0
v -12.0 -5.9 -20.0
v -12.0 -6.0 -19.0
v -11.8 -17.0 -22.0
v -11.0 -16.0 -22.1
v -11.0 -16.1 -22.0
v -11.5 -16.0 -21.0
v -11.0 -16.0 -21.8
v -11.0 -15.0 -22.5
v -11.0 -15.5 -21.0
v -11.5 -15.0 -20.0
v -11.0 -15.0 -20.5
v -11.0 -14.0 -23.0
v -11.0 -14.1 -23.0
v -11.0 -14.5 -20.0
v -11.5 -14.0 -19.0
v -11.0 -14.0 -19.5
v -11.0 -13.9 -23.0
v -11.6 -13.0 -23.0
v -11.3 -13.0 -22.0
v -11.0 -13.2 -22.0
v -11.0 -13.0 -21.8
v -11.0 -13.5 -19.0
v -11.5 -13.0 -18.0
v -11.0 -13.0 -18.5
v -11.7 -12.0 -23.0
v -12.0 -12.0 -21.0
v -11.0 -12.3 -21.0
v -11.0 -12.0 -20.4
v -11.0 -12.4 -18.0
v -11.0 -12.0 -17.7
v -11.5 -11.0 -23.0
v -11.0 -11.3 -22.0
v -11.0 -11.0 -22.4
v -11.0 -11.7 -21.0
v -11.4 -11.0 -17.0
v -11.0 -11.0 -17.3
v -11.0 -10.0 -23.1
v -11.0 -10.1 -23.0
v -11.0 -10.3 -17.0
v -11.6 -10.0 -16.0
v -11.0 -10.0 -16.7
v -11.0 -9.9 -23.0
v -11.9 -9.0 -23.0
v -11.2 -9.0 -22.0
v -11.0 -9.3 -22.0
v -11.0 -9.0 -21.8
v -11.2 -9.0 -18.0
v -11.0 -9.3 -18.0
v -11.0 -9.0 -18.3
v -11.3 -9.0 -17.0
v -11.0 -9.6 -17.0
v -11.2 -9.0 -16.0
v -11.7 -8.0 -22.0
v -11.0 -8.0 -21.6
v -11.5 -8.0 -18.0
v -11.0 -8.0 -18.5
v -11.9 -8.0 -17.0
v -11.0 -7.0 -21.3
v -11.5 -7.0 -21.0
v -11.0 -7.0 -18.7
v -11.0 -6.7 -21.0
v -11.0 -6.0 -20.1
v -12.0 -6.0 -19.0
v -11.0 -6.6 -19.0
v -11.0 -6.0 -19.8
v -11.0 -5.9 -20.0
v -10.9 -16.0 -22.0
v -10.0 -15.0 -22.1
v -10.0 -15.1 -22.0
v -10.5 -15.0 -21.0
v -10.0 -15.0 -21.8
v -10.9 -14.0 -23.0
v -10.0 -14.0 -22.5
v -10.0 -14.5 -21.0
v -10.5 -14.0 -20.0
v -10.0 -14.0 -20.5
v -10.0 -13.0 -22.1
v -10.4 -13.0 -22.0
v -10.0 -13.4 -20.0
v -10.5 -13.0 -19.0
v -10.0 -13.0 -19.6
v -10.0 -12.9 -22.0
v -10.3 -12.0 -21.0
v -10.0 -12.0 -21.1
v -10.0 -12.3 -19.0
v -10.6 -12.0 -18.0
v -10.0 -12.0 -18.7
v -10.7 -11.0 -22.0
v -10.0 -11.8 -21.0
v -10.5 -11.0 -21.0
v -10.0 -11.5 -20.0
v -10.4 -11.0 -20.0
v -10.1 -11.0 -19.0
v -10.0 -11.4 -19.0
v -10.0 -11.0 -18.5
v -10.0 -11.2 -18.0
v -10.0 -11.0 -17.9
v -10.9 -10.0 -23.0
v -10.6 -10.0 -22.0
v -10.4 -10.0 -21.0
v -10.4 -10.0 -20.0
v -10.3 -10.0 -19.0
v -10.0 -10.0 -18.3
v -10.8 -10.0 -17.0
v -10.0 -10.0 -17.9
v -10.0 -9.3 -21.0
v -10.0 -9.0 -21.2
v -10.0 -9.4 -20.0
v -10.0 -9.0 -19.6
v -10.4 -9.0 -19.0
v -10.0 -9.9 -18.0
v -10.0 -8.0 -21.3
v -10.5 -8.0 -19.0
v -10.0 -8.0 -19.5
v -10.0 -7.0 -21.2
v -10.7 -7.0 -19.0
v -10.0 -7.0 -19.7
v -10.0 -6.8 -21.0
v -10.9 -6.0 -20.0
v -10.0 -6.7 -20.0
v -9.9 -15.0 -22.0
v -9.2 -14.0 -22.0
v -9.6 -14.0 -21.0
v -9.9 -13.0 -22.0
v -9.5 -13.0 -21.0
v -9.7 -13.0 -20.0
v -9.9 -12.0 -21.0
v -9.2 -12.0 -20.0
v -9.7 -12.0 -19.0
v -9.9 -11.0 -18.0
v -9.8 -10.0 -18.0
v -9.8 -9.0 -21.0
v -9.7 -9.0 -20.0
v -9.7 -8.0 -21.0
v -9.6 -8.0 -20.0
v -9.8 -7.0 -21.0
v -9.8 -7.0 -20.0
f 3 2 1
f 5 4 1
f 1 4 3
f 7 6 5
f 5 6 4
f 9 8 7
f 7 8 6
f 9 10 8
f 13 12 11
f 15 14 11
f 11 14 13
f 14 15 2
f 15 1 2
f 15 16 1
f 1 17 5
f 1 16 17
f 5 18 7
f 5 17 18
f 7 19 9
f 7 18 19
f 10 9 20
f 20 9 19
f 11 12 21
f 21 12 22
f 11 23 15
f 11 21 23
f 15 24 16
f 15 23 24
f 16 25 17
f 16 24 25
f 17 26 18
f 17 25 26
f 28 19 27
f 19 26 27
f 19 18 26
f 19 28 20
f 22 29 21
f 21 29 23
f 23 29 30
f 23 30 24
f 24 30 31
f 24 31 25
f 25 31 32
f 25 32 26
f 26 32 33
f 26 33 27
f 36 35 34
f 38 37 34
f 34 37 36
f 40 39 38
f 38 39 37
f 42 41 40
f 40 41 39
f 44 43 42
f 42 43 41
f 44 45 43
f 48 47 46
f 50 49 46
f 46 49 48
f 52 51 50
f 50 51 49
f 51 52 35
f 52 34 35
f 52 53 34
f 53 2 3
f 38 53 3
f 34 53 38
f 38 3 4
f 38 4 40
f 40 4 6
f 40 6 42
f 42 6 8
f 42 8 44
f 8 10 44
f 10 45 44
f 10 54 45
f 46 47 55
f 55 47 56
f 46 57 50
f 46 55 57
f 57 12 13
f 52 57 13
f 50 57 52
f 52 13 14
f 52 14 53
f 53 14 2
f 20 59 58
f 54 20 58
f 10 20 54
f 59 60 58
f 55 56 61
f 61 56 62
f 55 63 57
f 55 61 63
f 63 22 12
f 63 12 57
f 27 64 28
f 59 20 28
f 64 59 28
f 65 59 64
f 60 59 66
f 66 59 65
f 61 62 67
f 67 62 68
f 70 63 69
f 63 67 69
f 63 61 67
f 70 72 71
f 70 71 29
f 63 70 29
f 22 63 29
f 73 30 29
f 73 29 71
f 74 31 30
f 74 30 73
f 75 32 31
f 75 31 74
f 76 33 32
f 76 32 75
f 64 27 33
f 76 64 33
f 77 64 76
f 79 65 78
f 65 77 78
f 65 64 77
f 65 79 66
f 68 80 67
f 67 80 69
f 72 81 71
f 71 81 73
f 73 81 82
f 73 82 74
f 74 82 83
f 74 83 75
f 75 83 84
f 75 84 76
f 76 84 85
f 76 85 77
f 77 85 86
f 77 86 78
f 89 88 87
f 87 90 89
f 93 92 91
f 91 94 93
f 87 88 95
f 95 88 96
f 90 87 97
f 87 98 97
f 87 95 98
f 98 99 97
f 91 92 100
f 100 92 101
f 36 102 35
f 102 91 35
f 91 100 35
f 91 102 94
f 103 36 37
f 103 102 36
f 104 37 39
f 104 103 37
f 106 104 105
f 104 41 105
f 104 39 41
f 43 107 41
f 41 107 105
f 45 107 43
f 95 96 108
f 108 96 109
f 108 47 48
f 98 108 48
f 95 108 98
f 110 99 98
f 48 110 98
f 49 110 48
f 51 100 101
f 110 51 101
f 49 51 110
f 100 51 35
f 111 106 105
f 111 105 107
f 111 107 112
f 107 45 112
f 45 113 112
f 45 54 113
f 108 109 114
f 114 109 115
f 114 56 47
f 114 47 108
f 54 58 116
f 117 54 116
f 113 54 117
f 60 116 58
f 114 115 118
f 118 115 119
f 118 62 56
f 118 56 114
f 120 117 116
f 116 60 120
f 60 121 120
f 60 66 121
f 119 122 118
f 62 118 122
f 123 62 122
f 68 62 123
f 69 124 70
f 124 72 70
f 127 126 125
f 79 78 125
f 126 79 125
f 128 79 126
f 66 79 121
f 121 79 128
f 123 129 68
f 68 129 80
f 69 80 124
f 80 130 124
f 80 129 130
f 124 130 72
f 130 81 72
f 130 131 81
f 81 132 82
f 131 132 81
f 82 133 83
f 132 133 82
f 83 134 84
f 133 134 83
f 84 135 85
f 134 135 84
f 125 86 127
f 86 135 127
f 86 85 135
f 86 125 78
f 138 137 136
f 140 139 136
f 136 139 138
f 140 141 139
f 136 137 89
f 137 88 89
f 137 142 88
f 136 89 90
f 143 136 90
f 140 136 143
f 141 140 144
f 144 140 143
f 146 145 93
f 93 145 92
f 148 147 94
f 147 93 94
f 147 146 93
f 150 149 148
f 148 149 147
f 152 151 150
f 150 151 149
f 154 153 152
f 152 153 151
f 156 155 154
f 154 155 153
f 156 157 155
f 160 159 158
f 142 160 158
f 96 142 158
f 88 142 96
f 97 143 90
f 162 161 99
f 99 161 97
f 161 144 97
f 144 143 97
f 145 161 162
f 101 145 162
f 92 145 101
f 102 148 94
f 148 102 103
f 148 103 150
f 150 103 104
f 150 104 152
f 152 104 106
f 163 152 106
f 154 152 163
f 154 164 156
f 154 163 164
f 157 156 165
f 156 166 165
f 156 164 166
f 166 167 165
f 158 159 168
f 168 159 169
f 168 109 96
f 168 96 158
f 110 162 99
f 162 110 101
f 111 163 106
f 163 111 112
f 163 112 164
f 164 112 113
f 170 164 113
f 166 164 170
f 167 166 171
f 171 166 170
f 168 169 172
f 172 169 173
f 172 115 109
f 172 109 168
f 175 174 170
f 113 175 170
f 117 175 113
f 170 174 171
f 173 176 172
f 115 172 176
f 177 115 176
f 119 115 177
f 117 120 178
f 179 117 178
f 175 117 179
f 121 178 120
f 177 180 119
f 119 180 122
f 123 122 180
f 123 180 181
f 127 182 126
f 183 179 178
f 126 183 178
f 128 126 178
f 183 126 182
f 128 178 121
f 181 184 123
f 123 184 129
f 129 185 130
f 184 185 129
f 185 187 186
f 131 185 186
f 130 185 131
f 188 132 131
f 188 131 186
f 189 133 132
f 189 132 188
f 190 134 133
f 190 133 189
f 134 190 191
f 192 134 191
f 135 134 192
f 127 135 182
f 135 193 182
f 135 192 193
f 182 193 183
f 187 194 186
f 186 194 188
f 188 194 195
f 188 195 189
f 189 195 196
f 189 196 190
f 190 196 197
f 190 197 191
f 200 199 198
f 202 201 198
f 198 201 200
f 204 203 202
f 202 203 201
f 204 205 203
f 199 206 198
f 208 207 206
f 207 198 206
f 207 202 198
f 202 209 204
f 202 207 209
f 205 204 210
f 210 204 209
f 212 211 138
f 138 211 137
f 139 207 208
f 212 139 208
f 138 139 212
f 207 139 141
f 213 207 141
f 209 207 213
f 210 209 214
f 209 215 214
f 209 213 215
f 217 216 215
f 215 216 214
f 217 218 216
f 211 142 137
f 219 142 211
f 144 220 213
f 144 213 141
f 220 145 146
f 215 220 146
f 213 220 215
f 215 146 147
f 215 147 217
f 221 218 217
f 147 221 217
f 149 221 147
f 222 149 151
f 222 221 149
f 224 222 223
f 222 153 223
f 222 151 153
f 155 225 153
f 153 225 223
f 157 225 155
f 227 226 160
f 160 226 159
f 160 142 219
f 160 219 227
f 161 220 144
f 220 161 145
f 228 224 223
f 228 223 225
f 228 225 229
f 231 229 230
f 230 229 165
f 229 225 165
f 225 157 165
f 167 230 165
f 226 169 159
f 232 169 226
f 231 230 233
f 231 233 234
f 171 233 167
f 167 233 230
f 232 173 169
f 235 173 232
f 234 237 236
f 234 175 237
f 234 233 174
f 175 234 174
f 233 171 174
f 238 236 237
f 235 239 173
f 173 239 176
f 177 176 239
f 177 239 240
f 179 241 237
f 179 237 175
f 238 237 242
f 242 237 241
f 180 177 243
f 177 244 243
f 177 240 244
f 243 181 180
f 247 246 245
f 246 248 241
f 183 246 241
f 179 183 241
f 245 246 183
f 241 248 242
f 244 249 243
f 249 251 250
f 249 250 184
f 243 249 184
f 181 243 184
f 252 185 184
f 252 184 250
f 252 187 185
f 254 253 192
f 254 192 191
f 245 193 247
f 193 253 247
f 193 192 253
f 193 245 183
f 251 255 250
f 250 255 252
f 252 255 256
f 252 256 187
f 256 194 187
f 256 257 194
f 257 259 258
f 195 257 258
f 194 257 195
f 260 196 195
f 260 195 258
f 196 260 261
f 262 196 261
f 197 196 262
f 191 197 254
f 254 197 262
f 259 263 258
f 258 263 260
f 260 263 264
f 260 264 261
f 266 265 200
f 200 265 199
f 267 200 201
f 267 266 200
f 268 201 203
f 268 267 201
f 203 205 268
f 268 205 269
f 272 271 270
f 270 273 206
f 265 270 206
f 199 265 206
f 270 265 272
f 273 208 206
f 210 269 205
f 210 274 269
f 270 271 275
f 275 271 276
f 275 211 212
f 273 275 212
f 270 275 273
f 273 212 208
f 277 274 210
f 277 210 214
f 279 277 278
f 277 216 278
f 277 214 216
f 218 278 216
f 275 276 280
f 280 276 281
f 280 219 211
f 280 211 275
f 282 279 278
f 282 278 218
f 221 282 218
f 283 282 221
f 285 283 284
f 283 222 284
f 283 221 222
f 224 284 222
f 286 226 227
f 281 287 280
f 288 280 287
f 288 219 280
f 288 286 227
f 219 288 227
f 289 285 284
f 289 284 224
f 228 289 224
f 290 289 228
f 292 290 291
f 290 229 291
f 290 228 229
f 231 291 229
f 294 293 286
f 293 226 286
f 293 232 226
f 294 286 288
f 292 291 295
f 292 295 296
f 234 295 231
f 231 295 291
f 298 235 297
f 235 293 297
f 235 232 293
f 299 298 297
f 300 296 295
f 302 300 301
f 301 300 236
f 300 295 236
f 295 234 236
f 238 301 236
f 298 239 235
f 240 239 298
f 299 240 298
f 303 240 299
f 302 301 304
f 302 304 305
f 242 304 238
f 238 304 301
f 303 244 240
f 306 244 303
f 247 307 246
f 308 305 304
f 246 308 304
f 248 246 304
f 308 246 307
f 248 304 242
f 306 309 244
f 244 309 249
f 251 249 309
f 251 309 310
f 254 311 253
f 311 312 253
f 253 312 247
f 312 313 247
f 313 307 247
f 307 313 308
f 255 251 314
f 251 315 314
f 251 310 315
f 316 256 255
f 316 255 314
f 317 257 256
f 317 256 316
f 317 259 257
f 319 318 262
f 319 262 261
f 254 262 311
f 262 320 311
f 262 318 320
f 311 320 312
f 315 321 314
f 314 321 316
f 316 321 322
f 316 322 317
f 317 322 323
f 317 323 259
f 323 263 259
f 323 324 263
f 263 325 264
f 324 325 263
f 261 264 319
f 319 264 325
f 326 265 266
f 267 327 266
f 266 327 326
f 268 328 267
f 267 328 327
f 269 328 268
f 329 271 272
f 265 326 272
f 326 329 272
f 326 330 329
f 327 332 331
f 330 327 331
f 326 327 330
f 334 333 332
f 327 334 332
f 328 334 327
f 274 334 269
f 269 334 328
f 335 276 329
f 329 276 271
f 336 329 330
f 335 329 336
f 330 331 337
f 330 337 336
f 338 333 334
f 340 338 339
f 339 338 277
f 338 334 277
f 334 274 277
f 279 339 277
f 341 281 335
f 335 281 276
f 342 335 336
f 341 335 342
f 336 337 343
f 336 343 342
f 344 340 339
f 346 344 345
f 345 344 282
f 344 339 282
f 339 279 282
f 283 347 282
f 282 347 345
f 285 347 283
f 341 287 281
f 341 342 348
f 288 341 348
f 349 288 348
f 341 288 287
f 348 342 343
f 350 346 345
f 352 351 350
f 345 352 350
f 347 352 345
f 289 353 285
f 353 347 285
f 353 352 347
f 290 354 289
f 289 354 353
f 292 354 290
f 355 293 294
f 356 355 294
f 288 356 294
f 349 356 288
f 357 351 352
f 359 358 357
f 352 359 357
f 353 359 352
f 360 353 354
f 359 353 360
f 296 360 292
f 292 360 354
f 355 297 293
f 299 297 355
f 356 299 355
f 361 299 356
f 364 363 362
f 365 362 363
f 358 359 366
f 358 366 367
f 368 359 360
f 366 359 368
f 300 369 296
f 369 360 296
f 369 368 360
f 302 369 300
f 361 303 299
f 370 303 361
f 371 364 362
f 371 362 365
f 372 367 366
f 374 373 372
f 366 374 372
f 368 374 366
f 375 368 369
f 374 368 375
f 305 375 302
f 302 375 369
f 370 306 303
f 376 306 370
f 377 373 374
f 379 378 377
f 374 379 377
f 375 379 374
f 308 379 305
f 305 379 375
f 309 306 380
f 306 381 380
f 306 376 381
f 380 310 309
f 378 379 313
f 312 378 313
f 382 378 312
f 313 379 308
f 381 383 380
f 310 380 383
f 384 310 383
f 315 310 384
f 319 385 318
f 318 385 386
f 387 318 386
f 320 318 387
f 312 320 382
f 382 320 387
f 384 388 315
f 315 388 321
f 321 389 322
f 388 389 321
f 389 391 390
f 323 389 390
f 322 389 323
f 392 324 323
f 392 323 390
f 324 392 393
f 394 324 393
f 325 324 394
f 319 325 385
f 325 395 385
f 325 394 395
f 385 395 386
f 390 391 396
f 396 391 397
f 390 398 392
f 390 396 398
f 393 392 399
f 399 392 398
f 397 400 396
f 396 400 398
f 398 400 401
f 398 401 399
f 402 331 332
f 333 402 332
f 404 403 402
f 403 331 402
f 403 337 331
f 406 404 405
f 405 404 338
f 404 402 338
f 402 333 338
f 340 405 338
f 403 343 337
f 407 343 403
f 408 406 405
f 410 408 409
f 409 408 344
f 408 405 344
f 405 340 344
f 346 409 344
f 412 411 348
f 348 411 349
f 348 343 407
f 348 407 412
f 413 410 409
f 415 413 414
f 414 413 350
f 413 409 350
f 409 346 350
f 351 414 350
f 417 356 416
f 356 411 416
f 356 349 411
f 419 418 417
f 419 417 416
f 420 418 419
f 421 415 414
f 423 421 422
f 422 421 357
f 421 414 357
f 414 351 357
f 358 422 357
f 424 361 417
f 417 361 356
f 364 424 363
f 424 418 363
f 424 417 418
f 426 425 365
f 426 365 363
f 420 426 363
f 418 420 363
f 427 425 426
f 428 423 422
f 422 358 428
f 358 429 428
f 358 367 429
f 430 370 424
f 424 370 361
f 430 424 364
f 431 430 364
f 371 431 364
f 432 430 431
f 371 365 425
f 433 371 425
f 431 371 433
f 433 425 427
f 367 372 434
f 435 367 434
f 429 367 435
f 373 434 372
f 437 436 430
f 436 370 430
f 436 376 370
f 437 430 432
f 438 435 434
f 440 438 439
f 439 438 377
f 438 434 377
f 434 373 377
f 378 439 377
f 442 381 441
f 381 436 441
f 381 376 436
f 444 443 442
f 444 442 441
f 445 443 444
f 448 447 446
f 450 449 446
f 450 446 447
f 449 450 440
f 439 449 440
f 451 449 439
f 382 451 378
f 378 451 439
f 442 383 381
f 383 442 384
f 442 452 384
f 442 443 452
f 443 445 453
f 443 453 452
f 448 446 454
f 448 454 455
f 456 446 449
f 454 446 456
f 386 456 387
f 456 451 387
f 456 449 451
f 387 451 382
f 452 388 384
f 389 388 452
f 457 389 452
f 453 457 452
f 458 389 457
f 458 391 389
f 455 454 394
f 393 455 394
f 459 455 393
f 394 454 395
f 395 454 456
f 395 456 386
f 457 460 458
f 391 458 460
f 461 391 460
f 397 391 461
f 464 463 462
f 463 459 462
f 459 399 462
f 459 393 399
f 461 465 397
f 397 465 400
f 462 401 464
f 401 465 464
f 401 400 465
f 401 462 399
f 466 403 404
f 406 466 404
f 468 467 466
f 467 403 466
f 467 407 403
f 470 468 469
f 469 468 408
f 468 466 408
f 466 406 408
f 410 469 408
f 471 411 412
f 472 471 412
f 407 472 412
f 467 472 407
f 473 470 469
f 475 473 474
f 474 473 413
f 473 469 413
f 469 410 413
f 415 474 413
f 471 416 411
f 419 416 471
f 476 419 471
f 472 476 471
f 477 419 476
f 477 420 419
f 478 475 474
f 480 478 479
f 479 478 421
f 478 474 421
f 474 415 421
f 423 479 421
f 476 481 477
f 481 483 482
f 481 482 426
f 477 481 426
f 420 477 426
f 482 427 426
f 484 480 479
f 486 484 485
f 485 484 428
f 484 479 428
f 479 423 428
f 429 485 428
f 487 432 431
f 483 488 482
f 431 433 487
f 489 487 433
f 490 482 488
f 482 490 427
f 491 427 490
f 427 491 433
f 489 433 491
f 493 492 491
f 493 491 490
f 492 495 494
f 492 485 495
f 492 493 486
f 485 492 486
f 485 429 495
f 429 496 495
f 429 435 496
f 497 436 437
f 432 487 437
f 487 497 437
f 487 498 497
f 499 487 489
f 498 487 499
f 500 489 491
f 499 489 500
f 501 491 492
f 500 491 501
f 492 494 502
f 492 502 501
f 435 438 503
f 504 435 503
f 496 435 504
f 440 503 438
f 497 441 436
f 441 497 444
f 444 497 498
f 498 499 505
f 445 498 505
f 506 445 505
f 498 445 444
f 505 499 500
f 505 500 507
f 509 508 507
f 500 509 507
f 501 509 500
f 510 447 448
f 501 510 448
f 509 501 448
f 510 501 502
f 503 450 504
f 450 510 504
f 450 447 510
f 450 503 440
f 506 453 445
f 511 453 506
f 508 509 512
f 508 512 513
f 455 512 448
f 448 512 509
f 511 457 453
f 514 457 511
f 513 512 515
f 513 515 516
f 459 515 455
f 455 515 512
f 514 517 457
f 457 517 460
f 519 518 461
f 460 519 461
f 517 519 460
f 518 519 516
f 518 516 515
f 464 518 515
f 463 464 515
f 463 515 459
f 518 465 461
f 465 518 464
f 520 467 468
f 470 520 468
f 521 472 520
f 520 472 467
f 473 522 470
f 522 520 470
f 522 521 520
f 475 522 473
f 523 476 521
f 521 476 472
f 524 521 522
f 523 521 524
f 478 525 475
f 525 522 475
f 525 524 522
f 480 525 478
f 523 481 476
f 481 523 483
f 523 526 483
f 523 524 526
f 527 524 525
f 526 524 527
f 484 528 480
f 528 525 480
f 528 527 525
f 486 528 484
f 526 488 483
f 488 526 490
f 490 526 527
f 490 527 493
f 493 527 528
f 493 528 486
f 529 494 495
f 496 529 495
f 530 502 529
f 529 502 494
f 504 530 496
f 496 530 529
f 531 506 505
f 507 532 505
f 505 532 531
f 508 532 507
f 530 510 502
f 510 530 504
f 533 511 531
f 531 511 506
f 534 531 532
f 533 531 534
f 513 534 508
f 508 534 532
f 535 514 533
f 533 514 511
f 536 533 534
f 535 533 536
f 516 536 513
f 513 536 534
f 535 517 514
f 517 535 519
f 519 535 536
f 519 536 516
