v -1.3 0.0 -4.0
v -1.0 0.0 -4.9
v -1.0 -0.3 -4.0
v -1.0 -0.2 -3.0
v -1.2 0.0 -3.0
v -1.0 0.0 -2.8
v -1.1 1.0 -4.0
v -1.0 1.0 -4.1
v -1.1 1.0 -3.0
v -1.0 1.0 -2.9
v -1.0 1.1 -4.0
v -1.0 1.1 -3.0
v -0.0 -2.0 3.0
v 0.0 -2.0 3.0
v 0.0 -2.0 3.0
v 0.0 -2.0 3.0
v -0.2 -1.0 2.0
v 0.0 -1.0 1.7
v 0.0 -1.4 2.0
v -0.4 -1.0 3.0
v 0.0 -1.0 3.6
v -0.9 0.0 -5.0
v 0.0 0.0 -5.5
v 0.0 -0.4 -5.0
v 0.0 -0.5 -4.0
v 0.0 -0.4 -3.0
v 0.0 0.0 -2.6
v -0.4 0.0 2.0
v 0.0 0.0 1.5
v -0.5 0.0 3.0
v 0.0 -0.4 4.0
v -0.2 0.0 4.0
v 0.0 0.0 4.3
v 0.0 0.5 -5.0
v 0.0 0.8 -4.0
v -0.7 1.0 -4.0
v 0.0 1.0 -3.7
v 0.0 1.0 -2.8
v -0.2 1.0 1.0
v 0.0 1.0 0.8
v 0.0 0.7 1.0
v -0.4 1.0 2.0
v -0.4 1.0 3.0
v -0.2 1.0 4.0
v 0.0 1.0 4.2
v 0.0 1.2 -3.0
v 0.0 1.5 1.0
v 0.0 1.4 2.0
v 0.0 1.4 3.0
v 0.0 1.2 4.0
v 0.9 -4.0 -3.0
v 1.0 -4.0 -3.2
v 1.0 -4.2 -3.0
v 1.0 -4.0 -2.8
v 0.7 -3.0 -6.0
v 1.0 -3.0 -6.4
v 1.0 -3.3 -6.0
v 1.0 -3.3 -5.0
v 0.7 -3.0 -5.0
v 1.0 -3.0 -4.5
v 0.7 -3.0 -3.0
v 1.0 -3.0 -3.5
v 1.0 -3.5 -2.0
v 0.7 -3.0 -2.0
v 1.0 -3.0 -1.3
v 0.7 -3.0 0.0
v 1.0 -3.0 -0.7
v 1.0 -3.4 0.0
v 1.0 -3.3 1.0
v 0.7 -3.0 1.0
v 1.0 -3.0 1.5
v 0.7 -2.0 -7.0
v 1.0 -2.0 -7.5
v 1.0 -2.5 -7.0
v 0.5 -2.0 -6.0
v 0.6 -2.0 -5.0
v 1.0 -2.0 -4.3
v 1.0 -2.3 -3.0
v 0.6 -2.0 -2.0
v 1.0 -2.0 -2.8
v 1.0 -2.7 -1.0
v 0.7 -2.0 -1.0
v 0.6 -2.0 0.0
v 0.6 -2.0 1.0
v 1.0 -2.6 2.0
v 0.4 -2.0 2.0
v 1.0 -2.4 3.0
v 1.0 -2.0 3.8
v 1.0 -2.0 5.0
v 1.0 -2.0 4.9
v 1.0 -2.0 5.0
v 1.0 -2.0 5.0
v 0.7 -1.0 -8.0
v 1.0 -1.0 -8.3
v 1.0 -1.4 -8.0
v 0.5 -1.0 -7.0
v 0.5 -1.0 -6.0
v 0.4 -1.0 -5.0
v 1.0 -1.7 -4.0
v 0.4 -1.0 -4.0
v 1.0 -1.8 -3.0
v 0.5 -1.0 -3.0
v 0.7 -1.0 -2.0
v 1.0 -1.0 -1.5
v 1.0 -1.5 -1.0
v 1.0 -1.5 0.0
v 1.0 -1.1 1.0
v 1.0 -1.0 1.1
v 1.0 -1.8 4.0
v 0.4 -1.0 4.0
v 1.0 -1.0 5.0
v 1.0 -1.0 5.0
v 0.8 0.0 -8.0
v 1.0 0.0 -8.2
v 0.5 0.0 -7.0
v 0.3 0.0 -6.0
v 1.0 -0.5 -2.0
v 1.0 0.0 -2.3
v 0.5 0.0 1.0
v 1.0 0.0 0.7
v 1.0 -0.8 1.0
v 1.0 -1.0 5.0
v 1.0 0.0 4.6
v 1.0 0.3 -8.0
v 0.7 1.0 -7.0
v 1.0 1.0 -7.3
v 0.1 1.0 -6.0
v 0.4 1.0 -5.0
v 0.2 1.0 -4.0
v 1.0 1.0 -2.5
v 1.0 1.0 0.5
v 1.0 1.0 4.4
v 1.0 1.3 -7.0
v 1.0 1.5 -6.0
v 1.0 1.5 -5.0
v 1.0 1.6 -4.0
v 1.0 1.6 -3.0
v 1.0 1.6 1.0
v 1.0 1.6 2.0
v 1.0 1.9 3.0
v 1.0 1.4 4.0
v 1.7 -5.0 -4.0
v 2.0 -5.0 -4.5
v 2.0 -5.4 -4.0
v 2.0 -5.5 -3.0
v 1.5 -5.0 -3.0
v 2.0 -5.4 -2.0
v 1.7 -5.0 -2.0
v 2.0 -5.0 -1.5
v 1.6 -4.0 -6.0
v 2.0 -4.0 -6.5
v 2.0 -4.4 -6.0
v 2.0 -4.6 -5.0
v 1.5 -4.0 -5.0
v 1.4 -4.0 -4.0
v 1.3 -4.0 -2.0
v 2.0 -4.6 -1.0
v 1.6 -4.0 -1.0
v 2.0 -4.5 0.0
v 1.5 -4.0 0.0
v 2.0 -4.5 1.0
v 1.5 -4.0 1.0
v 2.0 -4.3 2.0
v 1.7 -4.0 2.0
v 2.0 -4.0 2.3
v 1.7 -3.0 -8.0
v 2.0 -3.0 -8.4
v 2.0 -3.3 -8.0
v 2.0 -3.6 -7.0
v 1.4 -3.0 -7.0
v 1.3 -3.0 -4.0
v 1.2 -3.0 -1.0
v 1.4 -3.0 2.0
v 2.0 -3.0 2.9
v 1.7 -3.0 4.0
v 2.0 -3.0 3.2
v 2.0 -3.3 4.0
v 2.0 -3.2 5.0
v 1.8 -3.0 5.0
v 2.0 -3.0 5.2
v 1.7 -2.0 -9.0
v 2.0 -2.0 -9.2
v 2.0 -2.4 -9.0
v 1.3 -2.0 -8.0
v 1.2 -2.0 -4.0
v 1.1 -2.0 -3.0
v 2.0 -2.9 3.0
v 1.1 -2.0 4.0
v 2.0 -2.0 5.4
v 1.7 -1.0 -9.0
v 2.0 -1.0 -9.2
v 1.4 -1.0 -1.0
v 1.4 -1.0 0.0
v 1.1 -1.0 1.0
v 2.0 -1.3 5.0
v 2.0 -1.0 4.8
v 1.1 -1.0 5.0
v 2.0 -0.7 -9.0
v 2.0 0.0 -8.4
v 1.3 0.0 -2.0
v 2.0 0.0 -1.1
v 2.0 -0.1 -1.0
v 2.0 -0.0 0.0
v 2.0 0.0 0.0
v 2.0 0.0 4.5
v 2.0 0.4 -8.0
v 2.0 1.0 -7.5
v 1.4 1.0 -2.0
v 2.0 0.1 -1.0
v 1.6 1.0 -1.0
v 2.0 0.0 0.0
v 1.5 1.0 0.0
v 2.0 1.0 4.4
v 2.0 1.5 -7.0
v 1.6 2.0 -6.0
v 2.0 2.0 -6.4
v 1.4 2.0 -5.0
v 1.4 2.0 -4.0
v 1.3 2.0 -3.0
v 1.5 2.0 -2.0
v 1.5 2.0 -1.0
v 1.5 2.0 0.0
v 1.4 2.0 1.0
v 2.0 2.0 1.8
v 2.0 1.8 2.0
v 2.0 1.8 3.0
v 2.0 1.5 4.0
v 2.0 2.3 -6.0
v 1.8 3.0 -5.0
v 2.0 3.0 -5.2
v 1.5 3.0 -4.0
v 1.1 3.0 -3.0
v 1.4 3.0 -2.0
v 1.5 3.0 -1.0
v 1.5 3.0 0.0
v 1.7 3.0 1.0
v 2.0 3.0 1.4
v 2.0 3.2 -5.0
v 1.7 4.0 -4.0
v 2.0 4.0 -4.3
v 1.6 4.0 -3.0
v 1.6 4.0 -2.0
v 1.6 4.0 -1.0
v 1.7 4.0 0.0
v 2.0 4.0 0.5
v 2.0 3.5 1.0
v 2.0 4.3 -4.0
v 2.0 4.5 -3.0
v 2.0 4.5 -2.0
v 2.0 4.5 -1.0
v 2.0 4.4 0.0
v 2.8 -6.0 -5.0
v 3.0 -6.0 -5.3
v 3.0 -6.2 -5.0
v 3.0 -6.5 -4.0
v 2.5 -6.0 -4.0
v 3.0 -6.5 -3.0
v 2.5 -6.0 -3.0
v 3.0 -6.5 -2.0
v 2.5 -6.0 -2.0
v 3.0 -6.5 -1.0
v 2.6 -6.0 -1.0
v 3.0 -6.4 0.0
v 2.7 -6.0 0.0
v 3.0 -6.0 0.5
v 2.6 -5.0 -6.0
v 3.0 -5.0 -6.5
v 3.0 -5.4 -6.0
v 2.3 -5.0 -5.0
v 2.3 -5.0 -1.0
v 2.4 -5.0 0.0
v 3.0 -5.6 1.0
v 2.5 -5.0 1.0
v 3.0 -5.3 2.0
v 2.7 -5.0 2.0
v 3.0 -5.0 2.3
v 2.6 -4.0 -8.0
v 3.0 -4.0 -8.4
v 3.0 -4.4 -8.0
v 3.0 -4.6 -7.0
v 2.4 -4.0 -7.0
v 3.0 -4.4 3.0
v 2.6 -4.0 3.0
v 3.0 -4.0 3.5
v 2.5 -3.0 -9.0
v 3.0 -3.0 -9.4
v 3.0 -3.5 -9.0
v 2.1 -3.0 3.0
v 3.0 -3.7 4.0
v 3.0 -3.5 5.0
v 3.0 -3.0 5.4
v 3.0 -2.0 -9.5
v 3.0 -2.0 5.5
v 3.0 -1.0 -9.2
v 2.3 -1.0 5.0
v 3.0 -1.0 5.3
v 3.0 -0.7 -9.0
v 2.6 0.0 -8.0
v 3.0 -0.3 -8.0
v 3.0 0.0 -7.7
v 2.1 0.0 -1.0
v 2.0 0.0 0.0
v 3.0 -0.5 5.0
v 3.0 0.0 4.7
v 3.0 1.0 -7.3
v 3.0 1.0 4.6
v 3.0 1.3 -7.0
v 3.0 2.0 -6.3
v 2.2 2.0 2.0
v 2.3 2.0 3.0
v 2.6 2.0 4.0
v 3.0 2.0 4.4
v 3.0 2.3 -6.0
v 3.0 3.0 -5.1
v 2.4 3.0 2.0
v 2.7 3.0 3.0
v 3.0 3.0 3.4
v 3.0 2.4 4.0
v 2.8 4.0 -5.0
v 3.0 4.0 -5.2
v 2.3 4.0 1.0
v 2.7 4.0 2.0
v 3.0 4.0 2.3
v 3.0 3.3 3.0
v 3.0 4.1 -5.0
v 3.0 4.5 -4.0
v 2.7 5.0 -3.0
v 3.0 5.0 -3.3
v 2.4 5.0 -2.0
v 2.4 5.0 -1.0
v 2.4 5.0 0.0
v 2.7 5.0 1.0
v 3.0 5.0 1.3
v 3.0 4.3 2.0
v 3.0 6.0 -3.0
v 3.0 6.0 -3.0
v 2.7 6.0 -2.0
v 2.6 6.0 -1.0
v 2.8 6.0 0.0
v 3.0 6.0 0.3
v 3.0 5.3 1.0
v 3.0 6.0 -3.0
v 3.0 6.4 -2.0
v 3.0 6.4 -1.0
v 3.0 6.2 0.0
v 3.7 -7.0 -4.0
v 4.0 -7.0 -4.3
v 4.0 -7.2 -4.0
v 4.0 -7.4 -3.0
v 3.5 -7.0 -3.0
v 4.0 -7.4 -2.0
v 3.5 -7.0 -2.0
v 4.0 -7.4 -1.0
v 3.5 -7.0 -1.0
v 4.0 -7.3 0.0
v 3.6 -7.0 0.0
v 4.0 -7.0 1.0
v 4.0 -7.0 1.0
v 4.0 -7.0 1.0
v 4.0 -6.0 -5.5
v 4.0 -6.5 -5.0
v 3.4 -6.0 1.0
v 4.0 -6.0 1.5
v 4.0 -5.0 -8.0
v 4.0 -5.0 -8.0
v 4.0 -5.0 -8.0
v 4.0 -5.3 -7.0
v 3.5 -5.0 -7.0
v 4.0 -5.6 -6.0
v 4.0 -5.5 2.0
v 4.0 -5.0 2.7
v 3.6 -4.0 -9.0
v 4.0 -4.0 -9.3
v 4.0 -4.3 -9.0
v 4.0 -4.7 3.0
v 4.0 -4.5 4.0
v 3.4 -4.0 4.0
v 4.0 -4.4 5.0
v 3.5 -4.0 5.0
v 4.0 -4.0 6.0
v 4.0 -3.0 -9.8
v 4.0 -3.0 5.6
v 4.0 -2.0 -9.3
v 4.0 -2.0 5.4
v 4.0 -1.5 -9.0
v 3.4 -1.0 -9.0
v 4.0 -1.0 -8.6
v 4.0 -1.0 5.4
v 4.0 -0.5 -8.0
v 4.0 0.0 -7.5
v 3.4 0.0 5.0
v 4.0 0.0 5.4
v 4.0 0.6 -7.0
v 3.5 1.0 -7.0
v 4.0 1.0 -6.6
v 3.5 1.0 5.0
v 4.0 1.0 5.4
v 3.7 2.0 -6.0
v 4.0 1.9 -6.0
v 4.0 2.0 -5.9
v 3.7 2.0 5.0
v 4.0 2.0 5.2
v 4.0 3.0 -5.7
v 3.6 3.0 4.0
v 4.0 3.0 4.3
v 4.0 2.3 5.0
v 3.9 4.0 -6.0
v 4.0 4.0 -6.1
v 4.0 3.9 -6.0
v 4.0 3.7 3.0
v 4.0 4.0 2.7
v 4.0 3.3 4.0
v 4.0 4.1 -6.0
v 4.0 4.5 -5.0
v 4.0 4.5 -4.0
v 3.5 5.0 -3.0
v 4.0 4.4 -3.0
v 4.0 5.0 -2.7
v 4.0 4.7 2.0
v 4.0 5.0 1.7
v 3.0 6.0 -3.0
v 4.0 6.0 -2.6
v 4.0 5.7 1.0
v 4.0 6.0 0.7
v 4.0 6.6 -2.0
v 3.8 7.0 -1.0
v 4.0 7.0 -1.3
v 4.0 7.0 -0.8
v 4.0 6.6 0.0
v 4.0 7.1 -1.0
v 5.0 -7.0 -4.4
v 5.0 -7.3 -4.0
v 5.0 -7.5 -3.0
v 5.0 -7.5 -2.0
v 5.0 -7.5 -1.0
v 5.0 -7.3 0.0
v 4.0 -7.0 1.0
v 5.0 -7.0 0.5
v 5.0 -6.0 -5.5
v 5.0 -6.5 -5.0
v 5.0 -6.6 1.0
v 5.0 -6.0 1.7
v 4.0 -5.0 -8.0
v 4.5 -5.0 -7.0
v 5.0 -5.0 -6.6
v 5.0 -5.5 -6.0
v 5.0 -5.7 2.0
v 5.0 -5.4 3.0
v 4.4 -5.0 3.0
v 5.0 -5.4 4.0
v 4.5 -5.0 4.0
v 5.0 -5.3 5.0
v 4.7 -5.0 5.0
v 5.0 -5.0 5.4
v 4.7 -4.0 -9.0
v 4.9 -4.0 -8.0
v 5.0 -4.0 -7.8
v 5.0 -4.7 -7.0
v 5.0 -4.2 6.0
v 4.2 -4.0 6.0
v 5.0 -4.0 6.1
v 4.6 -3.0 -9.0
v 5.0 -3.0 -8.6
v 5.0 -3.8 -8.0
v 5.0 -3.8 6.0
v 5.0 -3.0 5.5
v 4.4 -2.0 -9.0
v 5.0 -2.0 -8.6
v 4.8 -2.0 5.0
v 5.0 -2.2 5.0
v 5.0 -2.0 4.9
v 5.0 -1.0 -8.3
v 4.7 -1.0 5.0
v 5.0 -1.0 4.5
v 5.0 -0.6 -8.0
v 5.0 0.0 -7.5
v 5.0 -0.7 5.0
v 5.0 0.0 5.5
v 5.0 0.5 -7.0
v 5.0 1.0 -6.6
v 5.0 1.0 5.6
v 4.2 2.0 -6.0
v 5.0 2.0 -6.4
v 5.0 2.0 5.5
v 4.4 3.0 -6.0
v 5.0 3.0 -6.4
v 5.0 2.6 5.0
v 5.0 3.0 4.6
v 5.0 4.0 -6.3
v 4.3 4.0 3.0
v 5.0 4.0 3.6
v 5.0 3.6 4.0
v 5.0 4.4 -6.0
v 4.7 5.0 -5.0
v 5.0 5.0 -5.3
v 4.6 5.0 -4.0
v 5.0 5.0 -3.2
v 5.0 4.9 -3.0
v 5.0 5.0 -2.9
v 4.3 5.0 2.0
v 4.8 5.0 3.0
v 5.0 5.0 3.2
v 5.0 5.3 -5.0
v 5.0 5.4 -4.0
v 5.0 6.0 -2.6
v 4.5 6.0 1.0
v 5.0 6.0 2.0
v 5.0 6.0 2.0
v 5.0 5.3 3.0
v 4.9 7.0 -3.0
v 5.0 7.0 -3.0
v 5.0 6.9 -3.0
v 5.0 7.0 -2.0
v 5.0 7.0 -2.5
v 5.0 7.0 -1.9
v 4.8 7.0 0.0
v 5.0 7.0 0.1
v 5.0 6.3 1.0
v 5.0 6.0 2.0
v 5.0 7.0 -3.0
v 5.0 7.3 -1.0
v 5.0 7.1 0.0
v 5.5 -7.0 -4.0
v 6.0 -7.0 -3.5
v 6.0 -7.3 -3.0
v 6.0 -7.4 -2.0
v 6.0 -7.3 -1.0
v 5.5 -7.0 0.0
v 6.0 -7.0 -0.5
v 6.0 -6.0 -5.3
v 6.0 -6.3 -5.0
v 6.0 -6.7 -4.0
v 6.0 -6.7 0.0
v 6.0 -6.4 1.0
v 6.0 -6.1 2.0
v 5.8 -6.0 2.0
v 6.0 -6.0 2.1
v 6.0 -5.0 -6.4
v 6.0 -5.4 -6.0
v 6.0 -5.6 3.0
v 6.0 -5.5 4.0
v 6.0 -5.5 5.0
v 6.0 -5.1 6.0
v 5.8 -5.0 6.0
v 6.0 -5.0 6.2
v 6.0 -4.0 -7.5
v 6.0 -4.5 -7.0
v 5.4 -4.0 6.0
v 6.0 -4.0 5.8
v 6.0 -4.5 6.0
v 6.0 -3.0 -8.3
v 6.0 -3.3 -8.0
v 6.0 -3.0 5.5
v 6.0 -2.0 -8.2
v 5.2 -2.0 5.0
v 6.0 -2.0 5.4
v 6.0 -1.6 -8.0
v 5.4 -1.0 -8.0
v 6.0 -1.0 -7.6
v 5.3 -1.0 5.0
v 6.0 -1.0 5.5
v 6.0 0.0 -7.3
v 6.0 -0.4 6.0
v 5.6 0.0 6.0
v 6.0 0.0 6.3
v 6.0 0.3 -7.0
v 6.0 1.0 -6.5
v 5.5 1.0 6.0
v 6.0 1.0 6.5
v 6.0 2.0 -6.4
v 5.6 2.0 6.0
v 6.0 2.0 6.3
v 6.0 3.0 -6.4
v 5.5 3.0 5.0
v 6.0 3.0 5.4
v 6.0 2.3 6.0
v 6.0 4.0 -6.2
v 5.5 4.0 4.0
v 6.0 4.0 4.4
v 6.0 3.4 5.0
v 6.0 4.3 -6.0
v 6.0 5.0 -5.5
v 5.1 5.0 -3.0
v 6.0 4.4 4.0
v 6.0 5.0 3.5
v 6.0 5.5 -5.0
v 5.8 6.0 -4.0
v 6.0 6.0 -4.2
v 5.8 6.0 -3.0
v 5.6 6.0 1.0
v 6.0 5.8 1.0
v 6.0 6.0 0.7
v 5.1 6.0 2.0
v 6.0 5.7 2.0
v 6.0 5.4 3.0
v 6.0 6.2 -4.0
v 6.0 7.0 -3.3
v 5.1 7.0 -2.0
v 6.0 6.8 -1.0
v 6.0 7.0 -1.3
v 5.7 7.0 -1.0
v 5.2 7.0 0.0
v 6.0 6.5 0.0
v 6.0 7.2 -3.0
v 6.0 7.4 -2.0
v 6.4 -7.0 -3.0
v 6.5 -7.0 -2.0
v 6.4 -7.0 -1.0
v 6.4 -6.0 -5.0
v 7.0 -6.0 -4.4
v 7.0 -6.3 -4.0
v 7.0 -6.5 -3.0
v 7.0 -6.5 -2.0
v 7.0 -6.5 -1.0
v 7.0 -6.3 0.0
v 6.5 -6.0 1.0
v 7.0 -6.0 0.4
v 6.1 -6.0 2.0
v 6.5 -5.0 -6.0
v 7.0 -5.0 -5.5
v 7.0 -5.5 -5.0
v 7.0 -5.5 1.0
v 7.0 -5.0 1.7
v 6.8 -5.0 2.0
v 7.0 -5.3 3.0
v 7.0 -5.0 2.4
v 7.0 -5.4 4.0
v 7.0 -5.4 5.0
v 7.0 -5.3 6.0
v 7.0 -5.2 7.0
v 6.8 -5.0 7.0
v 7.0 -5.0 7.2
v 7.0 -4.0 -7.2
v 7.0 -4.2 -7.0
v 7.0 -4.6 -6.0
v 7.0 -4.8 2.0
v 6.2 -4.0 6.0
v 6.8 -4.0 7.0
v 7.0 -4.0 7.2
v 6.3 -3.0 -8.0
v 7.0 -3.0 -7.3
v 7.0 -3.3 6.0
v 7.0 -3.0 5.8
v 7.0 -3.7 7.0
v 6.3 -2.0 -8.0
v 7.0 -2.5 -7.0
v 6.7 -2.0 -7.0
v 7.0 -2.0 -6.6
v 7.0 -2.0 5.6
v 6.5 -1.0 -7.0
v 7.0 -1.0 -6.5
v 7.0 -1.0 5.6
v 6.3 0.0 -7.0
v 7.0 0.0 -6.4
v 7.0 -0.6 6.0
v 7.0 -0.3 7.0
v 6.7 0.0 7.0
v 7.0 0.0 7.3
v 6.6 1.0 -6.0
v 7.0 0.5 -6.0
v 7.0 1.0 -5.6
v 6.5 1.0 7.0
v 7.0 1.0 7.5
v 6.5 2.0 -6.0
v 7.0 2.0 -5.5
v 6.7 2.0 7.0
v 7.0 2.0 7.3
v 6.5 3.0 -6.0
v 7.0 3.0 -5.5
v 7.0 2.7 6.0
v 7.0 3.0 5.7
v 7.0 2.3 7.0
v 6.3 4.0 -6.0
v 7.0 4.0 -5.6
v 7.0 3.6 5.0
v 7.0 4.0 4.6
v 7.0 5.0 -5.4
v 7.0 4.5 4.0
v 7.0 5.0 3.5
v 7.0 5.5 -5.0
v 7.0 6.0 -4.5
v 7.0 5.9 1.0
v 7.0 6.0 0.8
v 6.7 6.0 2.0
v 7.0 6.0 1.4
v 7.0 6.0 2.3
v 7.0 5.6 3.0
v 7.0 6.4 -4.0
v 7.0 7.0 -3.3
v 6.6 7.0 -1.0
v 7.0 7.0 -0.8
v 7.0 6.5 0.0
v 7.0 6.2 2.0
v 7.0 7.2 -3.0
v 7.0 7.3 -2.0
v 7.0 7.1 -1.0
v 7.3 -6.0 -4.0
v 7.5 -6.0 -3.0
v 7.5 -6.0 -2.0
v 7.5 -6.0 -1.0
v 7.3 -6.0 0.0
v 7.4 -5.0 -5.0
v 8.0 -5.0 -4.1
v 8.0 -5.1 -4.0
v 8.0 -5.4 -3.0
v 8.0 -5.5 -2.0
v 8.0 -5.5 -1.0
v 8.0 -5.3 0.0
v 7.5 -5.0 1.0
v 8.0 -5.0 0.4
v 7.3 -5.0 3.0
v 7.4 -5.0 4.0
v 7.5 -5.0 5.0
v 7.6 -5.0 6.0
v 8.0 -5.0 6.9
v 8.0 -5.1 7.0
v 8.0 -5.0 7.1
v 7.2 -4.0 -7.0
v 7.4 -4.0 -6.0
v 7.5 -4.0 -5.0
v 8.0 -4.8 -4.0
v 7.7 -4.0 -4.0
v 8.0 -4.0 -3.6
v 8.0 -4.4 1.0
v 7.7 -4.0 2.0
v 8.0 -4.0 1.5
v 7.7 -4.0 3.0
v 8.0 -4.0 3.4
v 8.0 -4.4 4.0
v 8.0 -4.6 5.0
v 8.0 -4.7 6.0
v 8.0 -4.0 7.4
v 7.3 -3.0 -7.0
v 7.5 -3.0 -6.0
v 7.5 -3.0 -5.0
v 7.6 -3.0 -4.0
v 8.0 -3.0 -3.2
v 7.7 -3.0 -2.0
v 8.0 -3.4 -2.0
v 8.0 -3.0 -2.7
v 7.6 -3.0 -1.0
v 8.0 -3.5 -1.0
v 7.7 -3.0 0.0
v 8.0 -3.4 0.0
v 8.0 -3.0 0.4
v 8.0 -3.6 2.0
v 8.0 -3.7 3.0
v 7.2 -3.0 6.0
v 7.6 -3.0 7.0
v 8.0 -3.0 7.4
v 7.4 -2.0 -6.0
v 7.6 -2.0 -5.0
v 7.6 -2.0 -4.0
v 8.0 -2.7 -3.0
v 7.7 -2.0 -3.0
v 7.6 -2.0 -2.0
v 7.5 -2.0 -1.0
v 7.1 -2.0 0.0
v 8.0 -2.4 1.0
v 7.7 -2.0 1.0
v 8.0 -2.0 1.3
v 7.5 -2.0 6.0
v 7.8 -2.0 7.0
v 8.0 -2.0 7.2
v 7.5 -1.0 -6.0
v 8.0 -1.0 -5.3
v 8.0 -1.3 -5.0
v 8.0 -1.5 -4.0
v 8.0 -1.6 -3.0
v 8.0 -1.5 -2.0
v 8.0 -1.4 -1.0
v 8.0 -1.0 -0.5
v 7.7 -1.0 0.0
v 7.7 -1.0 1.0
v 8.0 -1.0 1.5
v 7.9 -1.0 4.0
v 8.0 -1.1 4.0
v 8.0 -1.0 3.8
v 8.0 -1.0 4.3
v 8.0 -1.3 6.0
v 8.0 -1.0 5.5
v 8.0 -1.7 7.0
v 7.4 0.0 -6.0
v 8.0 0.0 -5.3
v 8.0 -0.6 0.0
v 8.0 -0.6 1.0
v 8.0 0.0 1.8
v 7.9 0.0 2.0
v 8.0 -0.2 2.0
v 7.8 0.0 3.0
v 8.0 -0.4 3.0
v 7.7 0.0 4.0
v 8.0 -0.3 5.0
v 7.9 0.0 5.0
v 8.0 0.0 5.2
v 8.0 -0.7 6.0
v 8.0 -0.6 7.0
v 8.0 -0.3 8.0
v 7.7 0.0 8.0
v 8.0 0.0 8.3
v 7.6 1.0 -5.0
v 8.0 0.5 -5.0
v 8.0 1.0 -4.6
v 8.0 0.2 2.0
v 8.0 0.3 3.0
v 8.0 0.4 4.0
v 8.0 0.2 5.0
v 7.5 1.0 8.0
v 8.0 1.0 8.5
v 7.5 2.0 -5.0
v 8.0 2.0 -4.5
v 7.7 2.0 8.0
v 8.0 2.0 8.2
v 7.6 3.0 -5.0
v 8.0 3.0 -4.6
v 7.4 3.0 6.0
v 8.0 3.0 6.6
v 8.0 2.7 7.0
v 8.0 2.2 8.0
v 8.0 4.0 -5.2
v 8.0 3.6 -5.0
v 7.5 4.0 5.0
v 8.0 4.0 5.4
v 8.0 3.5 6.0
v 8.0 5.0 -5.2
v 8.0 4.6 4.0
v 8.0 5.0 3.6
v 8.0 4.3 5.0
v 8.0 5.3 -5.0
v 8.0 6.0 -4.3
v 7.2 6.0 1.0
v 7.8 6.0 3.0
v 8.0 6.0 3.1
v 8.0 6.3 -4.0
v 7.3 7.0 -3.0
v 8.0 6.6 -3.0
v 7.5 7.0 -2.0
v 8.0 6.6 -2.0
v 7.2 7.0 -1.0
v 8.0 6.6 -1.0
v 8.0 6.5 0.0
v 8.0 6.3 1.0
v 8.0 6.4 2.0
v 8.0 6.1 3.0
v 8.1 -5.0 -4.0
v 8.4 -5.0 -3.0
v 8.4 -5.0 -2.0
v 8.4 -5.0 -1.0
v 8.3 -5.0 0.0
v 8.1 -5.0 7.0
v 8.4 -4.0 -3.0
v 8.4 -4.0 -2.0
v 8.4 -4.0 -1.0
v 8.4 -4.0 0.0
v 8.3 -4.0 1.0
v 8.5 -4.0 4.0
v 9.0 -4.0 4.6
v 9.0 -4.2 5.0
v 9.0 -4.4 6.0
v 9.0 -4.2 7.0
v 9.0 -4.0 7.2
v 8.1 -3.0 -3.0
v 8.8 -3.0 1.0
v 8.6 -3.0 2.0
v 8.6 -3.0 3.0
v 9.0 -3.0 3.5
v 9.0 -3.4 4.0
v 9.0 -3.0 7.3
v 9.0 -2.1 2.0
v 9.0 -2.0 1.9
v 9.0 -2.4 3.0
v 9.0 -2.0 7.2
v 8.2 -1.0 -5.0
v 8.4 -1.0 -4.0
v 8.4 -1.0 -3.0
v 8.4 -1.0 -2.0
v 8.3 -1.0 -1.0
v 9.0 -1.9 2.0
v 8.4 -1.0 2.0
v 8.4 -1.0 3.0
v 9.0 -1.7 3.0
v 9.0 -1.6 4.0
v 8.3 -1.0 5.0
v 9.0 -1.6 5.0
v 9.0 -1.5 6.0
v 9.0 -1.8 7.0
v 8.3 0.0 -5.0
v 8.5 0.0 -4.0
v 8.6 0.0 -3.0
v 8.6 0.0 -2.0
v 8.6 0.0 -1.0
v 8.5 0.0 0.0
v 8.4 0.0 1.0
v 9.0 0.0 5.7
v 9.0 -0.3 6.0
v 9.0 -0.5 7.0
v 9.0 -0.5 8.0
v 9.0 -0.1 9.0
v 8.9 0.0 9.0
v 9.0 0.0 9.1
v 8.5 1.0 -4.0
v 9.0 1.0 -3.3
v 9.0 0.7 -3.0
v 9.0 0.5 -2.0
v 9.0 0.5 -1.0
v 9.0 0.5 0.0
v 9.0 0.7 1.0
v 8.5 1.0 2.0
v 9.0 1.0 1.3
v 8.5 1.0 3.0
v 8.5 1.0 4.0
v 8.7 1.0 5.0
v 9.0 1.0 5.3
v 8.7 1.0 9.0
v 9.0 1.0 9.2
v 8.5 2.0 -4.0
v 9.0 2.0 -3.5
v 8.9 2.0 2.0
v 9.0 2.0 1.8
v 9.0 2.0 2.3
v 9.0 1.6 3.0
v 9.0 1.5 4.0
v 9.0 1.3 5.0
v 9.0 1.3 9.0
v 9.0 2.0 8.5
v 8.5 3.0 -4.0
v 9.0 3.0 -3.5
v 9.0 2.2 2.0
v 8.5 3.0 7.0
v 9.0 3.0 7.3
v 9.0 2.5 8.0
v 8.2 4.0 -5.0
v 8.6 4.0 -4.0
v 9.0 4.0 -3.5
v 8.9 4.0 6.0
v 9.0 4.0 6.1
v 9.0 3.3 7.0
v 8.2 5.0 -5.0
v 8.6 5.0 -4.0
v 9.0 5.0 -3.5
v 9.0 4.4 4.0
v 9.0 5.0 3.3
v 9.0 4.3 5.0
v 9.0 4.1 6.0
v 8.3 6.0 -4.0
v 9.0 6.0 -3.3
v 8.6 6.0 1.0
v 9.0 5.7 1.0
v 9.0 6.0 0.5
v 9.0 6.0 1.7
v 8.2 6.0 3.0
v 9.0 5.4 3.0
v 9.0 6.0 2.2
v 9.0 6.2 -3.0
v 9.0 6.3 -2.0
v 9.0 6.3 -1.0
v 9.0 6.2 0.0
v 9.0 6.1 2.0
v 9.2 -4.0 5.0
v 9.3 -4.0 6.0
v 9.2 -4.0 7.0
v 9.3 -3.0 4.0
v 9.5 -3.0 5.0
v 9.5 -3.0 6.0
v 9.3 -3.0 7.0
v 9.1 -2.0 2.0
v 9.2 -2.0 3.0
v 9.3 -2.0 4.0
v 9.4 -2.0 5.0
v 9.4 -2.0 6.0
v 9.2 -2.0 7.0
v 9.3 0.0 6.0
v 9.6 0.0 7.0
v 10.0 0.0 7.8
v 10.0 -0.1 8.0
v 9.1 0.0 9.0
v 10.0 0.0 8.2
v 9.2 1.0 -3.0
v 9.4 1.0 -2.0
v 9.4 1.0 -1.0
v 9.4 1.0 0.0
v 9.2 1.0 1.0
v 10.0 1.0 5.8
v 10.0 0.7 6.0
v 10.0 0.4 7.0
v 10.0 0.9 9.0
v 10.0 1.0 9.1
v 9.4 2.0 -3.0
v 9.5 2.0 -2.0
v 9.5 2.0 -1.0
v 9.5 2.0 0.0
v 9.4 2.0 1.0
v 9.3 2.0 3.0
v 9.4 2.0 4.0
v 9.5 2.0 5.0
v 10.0 2.0 5.7
v 10.0 1.1 9.0
v 10.0 2.0 8.3
v 9.4 3.0 -3.0
v 9.5 3.0 -2.0
v 9.5 3.0 -1.0
v 9.5 3.0 0.0
v 9.5 3.0 1.0
v 9.4 3.0 2.0
v 9.5 3.0 3.0
v 9.5 3.0 4.0
v 9.5 3.0 5.0
v 10.0 2.4 6.0
v 9.6 3.0 6.0
v 10.0 3.0 6.9
v 10.0 2.3 8.0
v 10.0 3.0 7.1
v 9.4 4.0 -3.0
v 9.5 4.0 -2.0
v 9.5 4.0 -1.0
v 9.5 4.0 0.0
v 9.5 4.0 1.0
v 9.5 4.0 2.0
v 9.5 4.0 3.0
v 9.4 4.0 4.0
v 9.3 4.0 5.0
v 9.1 4.0 6.0
v 10.0 3.1 7.0
v 9.4 5.0 -3.0
v 9.5 5.0 -2.0
v 9.5 5.0 -1.0
v 9.5 5.0 0.0
v 9.4 5.0 1.0
v 9.5 5.0 2.0
v 9.3 5.0 3.0
v 9.2 6.0 -3.0
v 9.3 6.0 -2.0
v 9.3 6.0 -1.0
v 9.2 6.0 0.0
v 9.1 6.0 2.0
v 10.1 0.0 8.0
v 10.2 1.0 6.0
v 10.4 1.0 7.0
v 10.4 1.0 8.0
v 10.1 1.0 9.0
v 10.3 2.0 6.0
v 10.5 2.0 7.0
v 10.2 2.0 8.0
v 10.1 3.0 7.0
f 3 2 1
f 5 4 1
f 1 4 3
f 5 6 4
f 1 2 7
f 7 2 8
f 1 9 5
f 1 7 9
f 6 5 10
f 10 5 9
f 8 11 7
f 7 11 9
f 9 11 12
f 9 12 10
f 15 14 13
f 13 16 15
f 19 18 17
f 19 17 14
f 17 13 14
f 17 20 13
f 16 13 21
f 21 13 20
f 24 23 22
f 2 3 22
f 3 24 22
f 3 25 24
f 26 3 4
f 26 25 3
f 4 6 26
f 26 6 27
f 17 18 28
f 28 18 29
f 17 30 20
f 17 28 30
f 21 20 31
f 20 32 31
f 20 30 32
f 32 33 31
f 23 34 22
f 8 2 22
f 35 8 22
f 34 35 22
f 8 35 36
f 37 36 35
f 10 27 6
f 10 38 27
f 41 40 39
f 41 39 29
f 39 28 29
f 39 42 28
f 28 43 30
f 28 42 43
f 30 44 32
f 30 43 44
f 33 32 45
f 45 32 44
f 36 11 8
f 37 46 36
f 46 11 36
f 46 12 11
f 10 12 38
f 38 12 46
f 40 47 39
f 39 47 42
f 42 47 48
f 42 48 43
f 43 48 49
f 43 49 44
f 44 49 50
f 44 50 45
f 53 52 51
f 51 54 53
f 57 56 55
f 59 58 55
f 55 58 57
f 59 60 58
f 51 52 61
f 61 52 62
f 54 51 63
f 51 64 63
f 51 61 64
f 64 65 63
f 68 67 66
f 70 69 66
f 66 69 68
f 70 71 69
f 74 73 72
f 74 72 56
f 72 55 56
f 72 75 55
f 55 76 59
f 55 75 76
f 60 59 77
f 77 59 76
f 62 78 61
f 80 79 78
f 79 61 78
f 79 64 61
f 65 64 81
f 64 82 81
f 64 79 82
f 81 82 67
f 82 66 67
f 82 83 66
f 66 84 70
f 66 83 84
f 71 70 85
f 70 86 85
f 70 84 86
f 14 15 86
f 15 85 86
f 15 87 85
f 15 16 87
f 87 16 88
f 91 90 89
f 89 92 91
f 95 94 93
f 95 93 73
f 93 72 73
f 93 96 72
f 72 97 75
f 72 96 97
f 75 98 76
f 75 97 98
f 77 76 99
f 76 100 99
f 76 98 100
f 102 101 100
f 100 101 99
f 101 102 80
f 102 79 80
f 102 103 79
f 105 82 104
f 82 103 104
f 82 79 103
f 82 105 83
f 83 105 106
f 83 106 84
f 84 106 107
f 108 18 19
f 84 108 19
f 86 84 19
f 107 108 84
f 86 19 14
f 21 110 109
f 88 21 109
f 16 21 88
f 109 110 90
f 110 89 90
f 110 111 89
f 92 89 112
f 112 89 111
f 93 94 113
f 113 94 114
f 93 115 96
f 93 113 115
f 96 116 97
f 96 115 116
f 116 23 24
f 98 116 24
f 97 116 98
f 98 24 25
f 98 25 100
f 100 25 26
f 100 26 102
f 103 102 117
f 102 27 117
f 27 118 117
f 27 102 26
f 103 117 104
f 121 120 119
f 108 121 119
f 29 108 119
f 18 108 29
f 31 110 21
f 111 110 122
f 110 33 122
f 33 123 122
f 33 110 31
f 111 122 112
f 114 124 113
f 126 125 124
f 125 113 124
f 125 115 113
f 115 127 116
f 115 125 127
f 128 34 23
f 116 128 23
f 127 128 116
f 129 35 34
f 129 34 128
f 129 37 35
f 38 118 27
f 38 130 118
f 119 120 41
f 120 40 41
f 120 131 40
f 119 41 29
f 45 123 33
f 45 132 123
f 126 133 125
f 125 133 127
f 127 133 134
f 127 134 128
f 128 134 135
f 128 135 129
f 129 135 136
f 129 136 37
f 136 46 37
f 136 137 46
f 38 46 130
f 130 46 137
f 131 138 40
f 40 138 47
f 47 139 48
f 138 139 47
f 48 140 49
f 139 140 48
f 49 141 50
f 140 141 49
f 45 50 132
f 132 50 141
f 144 143 142
f 146 145 142
f 142 145 144
f 148 147 146
f 146 147 145
f 148 149 147
f 152 151 150
f 154 153 150
f 150 153 152
f 153 154 143
f 154 142 143
f 154 155 142
f 155 52 53
f 146 155 53
f 142 155 146
f 146 53 54
f 156 146 54
f 148 146 156
f 149 148 157
f 148 158 157
f 148 156 158
f 160 159 158
f 158 159 157
f 162 161 160
f 160 161 159
f 164 163 162
f 162 163 161
f 164 165 163
f 168 167 166
f 170 169 166
f 166 169 168
f 169 170 151
f 151 170 150
f 170 56 150
f 56 57 150
f 150 57 58
f 150 58 154
f 154 58 60
f 171 154 60
f 155 154 171
f 171 62 52
f 171 52 155
f 63 156 54
f 156 63 65
f 172 156 65
f 158 156 172
f 172 67 68
f 160 172 68
f 158 172 160
f 160 68 69
f 160 69 162
f 162 69 71
f 173 162 71
f 164 162 173
f 165 164 174
f 174 164 173
f 177 176 175
f 179 178 175
f 175 178 177
f 179 180 178
f 183 182 181
f 183 181 167
f 181 166 167
f 181 184 166
f 184 73 74
f 170 184 74
f 166 184 170
f 170 74 56
f 77 185 171
f 77 171 60
f 186 78 62
f 171 186 62
f 185 186 171
f 186 80 78
f 81 172 65
f 172 81 67
f 85 173 71
f 187 174 173
f 85 187 173
f 87 187 85
f 188 175 88
f 175 187 88
f 187 87 88
f 175 176 187
f 188 90 91
f 179 188 91
f 175 188 179
f 91 92 179
f 92 180 179
f 92 189 180
f 181 182 190
f 190 182 191
f 190 94 95
f 184 190 95
f 181 190 184
f 184 95 73
f 99 185 77
f 185 99 101
f 185 101 186
f 186 101 80
f 104 192 105
f 193 106 105
f 193 105 192
f 194 107 106
f 194 106 193
f 194 108 107
f 109 188 88
f 188 195 90
f 195 188 196
f 109 196 188
f 196 109 197
f 90 197 109
f 197 90 195
f 195 189 197
f 189 112 197
f 189 92 112
f 191 198 190
f 94 190 198
f 199 94 198
f 114 94 199
f 118 200 117
f 200 201 117
f 117 201 104
f 201 202 104
f 202 192 104
f 192 202 193
f 193 202 203
f 204 120 121
f 193 204 121
f 194 193 121
f 203 204 193
f 194 121 108
f 196 197 122
f 123 196 122
f 205 196 123
f 122 197 112
f 199 206 114
f 114 206 124
f 126 124 206
f 126 206 207
f 130 208 200
f 130 200 118
f 201 200 209
f 200 210 209
f 200 208 210
f 212 211 210
f 210 211 209
f 204 211 212
f 131 204 212
f 120 204 131
f 132 205 123
f 132 213 205
f 207 214 126
f 126 214 133
f 214 216 215
f 134 214 215
f 133 214 134
f 217 135 134
f 217 134 215
f 218 136 135
f 218 135 217
f 219 137 136
f 219 136 218
f 208 130 137
f 219 208 137
f 220 208 219
f 208 221 210
f 208 220 221
f 210 222 212
f 210 221 222
f 223 138 131
f 212 223 131
f 222 223 212
f 138 223 224
f 225 138 224
f 139 138 225
f 139 226 140
f 225 226 139
f 140 227 141
f 226 227 140
f 132 141 213
f 213 141 227
f 216 228 215
f 230 229 228
f 229 215 228
f 229 217 215
f 217 231 218
f 217 229 231
f 218 232 219
f 218 231 232
f 219 233 220
f 219 232 233
f 220 234 221
f 220 233 234
f 221 235 222
f 221 234 235
f 222 236 223
f 222 235 236
f 224 223 237
f 237 223 236
f 230 238 229
f 240 239 238
f 239 229 238
f 239 231 229
f 231 241 232
f 231 239 241
f 232 242 233
f 232 241 242
f 233 243 234
f 233 242 243
f 234 244 235
f 234 243 244
f 246 236 245
f 236 244 245
f 236 235 244
f 236 246 237
f 240 247 239
f 239 247 241
f 241 247 248
f 241 248 242
f 242 248 249
f 242 249 243
f 243 249 250
f 243 250 244
f 244 250 251
f 244 251 245
f 254 253 252
f 256 255 252
f 252 255 254
f 258 257 256
f 256 257 255
f 260 259 258
f 258 259 257
f 262 261 260
f 260 261 259
f 264 263 262
f 262 263 261
f 264 265 263
f 268 267 266
f 268 266 253
f 266 252 253
f 266 269 252
f 269 143 144
f 256 269 144
f 252 269 256
f 256 144 145
f 256 145 258
f 258 145 147
f 258 147 260
f 260 147 149
f 270 260 149
f 262 260 270
f 262 271 264
f 262 270 271
f 265 264 272
f 264 273 272
f 264 271 273
f 275 274 273
f 273 274 272
f 275 276 274
f 279 278 277
f 281 280 277
f 277 280 279
f 280 281 267
f 267 281 266
f 281 151 266
f 151 152 266
f 266 152 153
f 266 153 269
f 269 153 143
f 157 270 149
f 270 157 159
f 270 159 271
f 271 159 161
f 271 161 273
f 273 161 163
f 273 163 275
f 283 282 165
f 165 282 163
f 282 276 163
f 276 275 163
f 283 284 282
f 287 286 285
f 287 285 278
f 278 285 277
f 285 167 277
f 167 168 277
f 277 168 169
f 277 169 281
f 281 169 151
f 174 288 283
f 174 283 165
f 177 289 176
f 289 283 176
f 283 288 176
f 283 289 284
f 290 177 178
f 290 289 177
f 178 180 290
f 290 180 291
f 285 286 183
f 286 182 183
f 286 292 182
f 285 183 167
f 187 288 174
f 288 187 176
f 189 291 180
f 189 293 291
f 292 191 182
f 294 191 292
f 196 295 195
f 295 296 195
f 296 189 195
f 296 293 189
f 294 297 191
f 191 297 198
f 299 298 199
f 198 299 199
f 297 299 198
f 300 298 299
f 201 301 202
f 302 203 202
f 302 202 301
f 302 204 203
f 304 303 295
f 196 304 295
f 205 304 196
f 295 303 296
f 298 206 199
f 207 206 298
f 300 207 298
f 305 207 300
f 209 301 201
f 301 209 211
f 301 211 302
f 302 211 204
f 213 304 205
f 213 306 304
f 305 307 207
f 207 307 214
f 216 214 307
f 216 307 308
f 224 309 225
f 310 226 225
f 310 225 309
f 311 227 226
f 311 226 310
f 311 312 227
f 312 213 227
f 312 306 213
f 308 313 216
f 216 313 228
f 230 228 313
f 230 313 314
f 237 315 309
f 237 309 224
f 309 316 310
f 309 315 316
f 318 311 317
f 311 316 317
f 311 310 316
f 311 318 312
f 238 230 319
f 230 320 319
f 230 314 320
f 319 240 238
f 245 321 246
f 315 237 246
f 321 315 246
f 322 315 321
f 324 316 323
f 316 322 323
f 316 315 322
f 316 324 317
f 320 325 319
f 319 325 240
f 325 247 240
f 325 326 247
f 326 328 327
f 248 326 327
f 247 326 248
f 329 249 248
f 329 248 327
f 330 250 249
f 330 249 329
f 331 251 250
f 331 250 330
f 321 245 251
f 331 321 251
f 332 321 331
f 334 322 333
f 322 332 333
f 322 321 332
f 322 334 323
f 327 328 335
f 335 328 336
f 327 337 329
f 327 335 337
f 329 338 330
f 329 337 338
f 330 339 331
f 330 338 339
f 341 332 340
f 332 339 340
f 332 331 339
f 332 341 333
f 336 342 335
f 335 342 337
f 337 342 343
f 337 343 338
f 338 343 344
f 338 344 339
f 339 344 345
f 339 345 340
f 348 347 346
f 350 349 346
f 346 349 348
f 352 351 350
f 350 351 349
f 354 353 352
f 352 353 351
f 356 355 354
f 354 355 353
f 358 357 356
f 356 357 355
f 358 359 357
f 361 360 254
f 254 360 253
f 255 346 347
f 361 255 347
f 254 255 361
f 346 255 257
f 346 257 350
f 350 257 259
f 350 259 352
f 352 259 261
f 352 261 354
f 354 261 263
f 354 263 356
f 356 263 265
f 362 356 265
f 358 356 362
f 359 358 363
f 363 358 362
f 366 365 364
f 368 367 364
f 364 367 366
f 267 268 368
f 268 367 368
f 268 369 367
f 268 253 360
f 268 360 369
f 272 362 265
f 370 363 362
f 272 370 362
f 274 370 272
f 274 276 370
f 370 276 371
f 374 373 372
f 374 372 365
f 365 372 364
f 372 278 364
f 278 279 364
f 364 279 280
f 364 280 368
f 368 280 267
f 375 371 276
f 375 276 282
f 377 376 284
f 376 282 284
f 376 375 282
f 379 378 377
f 377 378 376
f 379 380 378
f 372 373 287
f 373 286 287
f 373 381 286
f 372 287 278
f 289 377 284
f 377 289 290
f 377 290 379
f 290 291 379
f 291 380 379
f 291 382 380
f 381 292 286
f 383 292 381
f 293 382 291
f 293 384 382
f 386 294 385
f 294 383 385
f 294 292 383
f 387 386 385
f 296 384 293
f 296 388 384
f 386 297 294
f 387 389 386
f 389 297 386
f 389 299 297
f 300 299 389
f 300 389 390
f 304 391 303
f 391 392 303
f 392 296 303
f 392 388 296
f 394 305 393
f 305 390 393
f 305 300 390
f 395 394 393
f 306 396 391
f 306 391 304
f 392 391 397
f 397 391 396
f 394 307 305
f 399 398 308
f 399 308 307
f 395 399 307
f 394 395 307
f 400 398 399
f 312 401 396
f 312 396 306
f 397 396 402
f 402 396 401
f 398 313 308
f 314 313 398
f 400 314 398
f 403 314 400
f 317 404 318
f 404 405 318
f 318 405 312
f 405 406 312
f 406 401 312
f 401 406 402
f 409 408 407
f 403 409 407
f 320 403 407
f 314 403 320
f 411 410 324
f 411 324 323
f 317 324 404
f 324 412 404
f 324 410 412
f 404 412 405
f 408 413 407
f 407 413 320
f 413 325 320
f 413 414 325
f 325 415 326
f 414 415 325
f 417 416 328
f 326 417 328
f 415 417 326
f 418 416 417
f 420 419 334
f 420 334 333
f 323 334 411
f 411 334 419
f 421 336 416
f 416 336 328
f 416 418 422
f 416 422 421
f 424 423 341
f 424 341 340
f 333 341 420
f 420 341 423
f 421 342 336
f 422 425 421
f 425 342 421
f 425 343 342
f 425 427 426
f 344 425 426
f 343 425 344
f 344 426 428
f 429 344 428
f 345 344 429
f 340 345 424
f 424 345 429
f 427 430 426
f 426 430 428
f 432 431 348
f 348 431 347
f 433 348 349
f 433 432 348
f 434 349 351
f 434 433 349
f 435 351 353
f 435 434 351
f 436 353 355
f 436 435 353
f 438 436 437
f 436 357 437
f 436 355 357
f 359 437 357
f 440 439 361
f 361 439 360
f 361 347 431
f 361 431 440
f 441 438 437
f 437 359 441
f 359 442 441
f 359 363 442
f 443 365 366
f 367 444 366
f 366 444 443
f 444 367 445
f 367 446 445
f 367 369 446
f 369 360 439
f 369 439 446
f 447 442 363
f 447 363 370
f 449 448 371
f 448 370 371
f 448 447 370
f 451 450 449
f 449 450 448
f 453 452 451
f 451 452 450
f 453 454 452
f 455 373 374
f 365 443 374
f 443 455 374
f 443 456 455
f 444 458 457
f 456 444 457
f 443 444 456
f 458 444 445
f 375 449 371
f 449 375 376
f 449 376 451
f 451 376 378
f 451 378 453
f 460 459 380
f 380 459 378
f 459 454 378
f 454 453 378
f 460 461 459
f 462 381 455
f 455 381 373
f 456 464 463
f 462 456 463
f 455 456 462
f 464 456 457
f 466 465 460
f 380 466 460
f 382 466 380
f 460 465 461
f 467 383 462
f 462 383 381
f 462 463 468
f 462 468 467
f 471 470 469
f 470 466 469
f 466 384 469
f 466 382 384
f 467 385 383
f 387 385 467
f 468 387 467
f 472 387 468
f 471 469 473
f 471 473 474
f 388 473 384
f 384 473 469
f 472 475 387
f 387 475 389
f 390 389 475
f 390 475 476
f 477 474 473
f 473 388 477
f 388 478 477
f 388 392 478
f 476 479 390
f 390 479 393
f 395 393 479
f 395 479 480
f 397 478 392
f 397 481 478
f 399 395 482
f 395 483 482
f 395 480 483
f 482 400 399
f 402 481 397
f 402 484 481
f 482 483 485
f 485 483 486
f 485 403 400
f 485 400 482
f 488 487 406
f 488 406 405
f 402 406 484
f 484 406 487
f 485 486 409
f 486 408 409
f 486 489 408
f 485 409 403
f 411 490 410
f 410 490 491
f 492 410 491
f 412 410 492
f 405 412 488
f 488 412 492
f 489 493 408
f 408 493 413
f 493 495 494
f 414 493 494
f 413 493 414
f 496 415 414
f 496 414 494
f 415 496 497
f 498 415 497
f 417 415 498
f 418 417 498
f 418 498 499
f 420 500 419
f 490 411 419
f 500 490 419
f 501 490 500
f 491 490 502
f 502 490 501
f 495 503 494
f 494 503 496
f 496 503 504
f 496 504 497
f 499 422 418
f 505 422 499
f 424 506 423
f 500 420 423
f 506 500 423
f 507 500 506
f 509 501 508
f 501 507 508
f 501 500 507
f 501 509 502
f 512 511 510
f 425 514 513
f 514 425 510
f 422 510 425
f 510 422 512
f 505 512 422
f 427 425 513
f 427 513 515
f 428 516 429
f 516 517 429
f 429 517 424
f 517 518 424
f 518 506 424
f 506 518 507
f 507 518 519
f 507 519 508
f 511 520 510
f 510 520 514
f 515 521 427
f 427 521 430
f 428 430 516
f 430 522 516
f 430 521 522
f 516 522 517
f 523 431 432
f 523 432 524
f 432 525 524
f 432 433 525
f 526 433 434
f 526 525 433
f 527 434 435
f 527 526 434
f 529 527 528
f 527 436 528
f 527 435 436
f 438 528 436
f 531 530 440
f 440 530 439
f 440 431 523
f 532 440 523
f 531 440 532
f 532 523 524
f 533 529 528
f 533 528 438
f 441 533 438
f 534 533 441
f 536 535 442
f 535 441 442
f 535 534 441
f 536 537 535
f 539 538 446
f 446 538 445
f 446 439 530
f 446 530 539
f 447 536 442
f 540 537 536
f 447 540 536
f 448 540 447
f 541 448 450
f 541 540 448
f 542 450 452
f 542 541 450
f 544 543 454
f 543 452 454
f 543 542 452
f 544 545 543
f 547 546 458
f 458 546 457
f 458 445 538
f 458 538 547
f 549 459 548
f 549 454 459
f 544 454 549
f 544 549 550
f 550 545 544
f 461 548 459
f 552 551 464
f 464 551 463
f 464 457 546
f 464 546 552
f 549 548 465
f 466 549 465
f 553 549 466
f 465 548 461
f 551 468 463
f 554 468 551
f 471 555 470
f 555 556 470
f 556 466 470
f 556 553 466
f 558 472 557
f 472 554 557
f 472 468 554
f 559 558 557
f 474 560 555
f 474 555 471
f 556 555 561
f 561 555 560
f 558 475 472
f 476 475 558
f 559 476 558
f 562 476 559
f 477 560 474
f 564 563 478
f 478 563 477
f 563 561 477
f 561 560 477
f 564 565 563
f 562 566 476
f 476 566 479
f 480 479 566
f 480 566 567
f 481 568 564
f 481 564 478
f 565 564 569
f 569 564 568
f 567 483 480
f 570 483 567
f 484 571 568
f 484 568 481
f 569 568 572
f 572 568 571
f 570 486 483
f 573 486 570
f 488 574 487
f 574 575 487
f 487 575 484
f 575 576 484
f 576 571 484
f 571 576 572
f 573 489 486
f 577 489 573
f 491 578 492
f 578 579 492
f 492 579 488
f 579 580 488
f 580 574 488
f 574 580 575
f 577 581 489
f 489 581 493
f 495 493 581
f 495 581 582
f 497 583 498
f 583 499 498
f 585 584 578
f 491 585 578
f 502 585 491
f 578 584 579
f 582 586 495
f 495 586 503
f 586 588 587
f 504 586 587
f 503 586 504
f 583 497 504
f 587 583 504
f 589 583 587
f 589 505 499
f 589 499 583
f 592 591 590
f 594 593 590
f 594 590 591
f 509 508 593
f 594 509 593
f 595 509 594
f 502 509 585
f 585 509 595
f 588 596 587
f 597 511 512
f 587 597 512
f 589 587 512
f 596 597 587
f 505 589 512
f 513 514 598
f 515 513 598
f 601 600 599
f 603 602 601
f 603 601 599
f 602 603 592
f 602 592 590
f 517 602 590
f 518 517 590
f 518 590 519
f 519 590 593
f 519 593 508
f 597 604 511
f 511 604 520
f 514 520 598
f 520 605 598
f 520 604 605
f 600 601 605
f 601 521 605
f 515 598 605
f 515 605 521
f 521 601 522
f 522 601 602
f 522 602 517
f 606 524 525
f 526 607 525
f 525 607 606
f 527 608 526
f 526 608 607
f 529 608 527
f 609 530 531
f 609 531 610
f 531 611 610
f 531 532 611
f 532 524 606
f 612 532 606
f 611 532 612
f 612 606 607
f 612 607 613
f 613 607 608
f 613 608 614
f 614 608 529
f 533 614 529
f 615 614 533
f 617 615 616
f 615 534 616
f 615 533 534
f 535 618 534
f 534 618 616
f 537 618 535
f 619 538 539
f 620 619 539
f 620 539 530
f 621 620 530
f 609 621 530
f 621 609 610
f 622 617 616
f 624 623 622
f 616 624 622
f 618 624 616
f 624 618 537
f 625 624 537
f 540 625 537
f 626 624 625
f 627 540 541
f 627 625 540
f 628 541 542
f 628 627 541
f 629 542 543
f 629 628 542
f 631 630 545
f 630 543 545
f 630 629 543
f 631 632 630
f 634 633 547
f 547 633 546
f 547 538 619
f 635 547 619
f 634 547 635
f 635 619 620
f 636 623 624
f 636 624 626
f 549 637 550
f 631 545 550
f 637 631 550
f 638 631 637
f 632 631 639
f 639 631 638
f 640 551 552
f 641 640 552
f 546 641 552
f 633 641 546
f 643 642 637
f 549 643 637
f 553 643 549
f 637 642 638
f 638 642 644
f 638 644 639
f 645 554 640
f 640 554 551
f 640 641 646
f 647 640 646
f 645 640 647
f 648 647 646
f 556 643 553
f 556 649 643
f 645 557 554
f 557 645 559
f 645 650 559
f 645 647 650
f 647 648 651
f 647 651 650
f 561 649 556
f 561 652 649
f 653 562 650
f 650 562 559
f 650 651 654
f 650 654 653
f 655 652 561
f 655 561 563
f 657 656 565
f 656 563 565
f 656 655 563
f 657 658 656
f 653 566 562
f 660 659 567
f 660 567 566
f 654 660 566
f 653 654 566
f 661 659 660
f 569 662 657
f 569 657 565
f 658 657 663
f 663 657 662
f 664 570 659
f 659 570 567
f 659 661 665
f 659 665 664
f 572 666 662
f 572 662 569
f 663 662 667
f 667 662 666
f 668 573 664
f 664 573 570
f 664 665 669
f 664 669 668
f 671 670 576
f 671 576 575
f 572 576 666
f 576 672 666
f 576 670 672
f 666 672 667
f 673 577 668
f 668 577 573
f 668 669 674
f 668 674 673
f 676 675 580
f 676 580 579
f 575 580 671
f 671 580 675
f 673 581 577
f 582 581 673
f 674 582 673
f 677 582 674
f 679 678 584
f 679 584 585
f 579 584 676
f 676 584 678
f 677 680 582
f 582 680 586
f 588 586 680
f 588 680 681
f 683 682 591
f 683 591 592
f 682 685 684
f 594 682 684
f 591 682 594
f 594 684 686
f 687 594 686
f 595 594 687
f 585 595 679
f 679 595 687
f 681 688 588
f 588 688 596
f 597 596 688
f 597 688 689
f 600 690 599
f 599 690 691
f 692 599 691
f 603 599 692
f 592 603 683
f 683 603 692
f 685 693 684
f 684 693 686
f 689 694 597
f 597 694 604
f 604 695 605
f 694 695 604
f 600 605 690
f 605 696 690
f 605 695 696
f 690 696 691
f 697 610 611
f 612 698 611
f 611 698 697
f 613 699 612
f 612 699 698
f 614 700 613
f 613 700 699
f 615 701 614
f 614 701 700
f 617 701 615
f 702 620 621
f 703 702 621
f 703 621 610
f 704 703 610
f 697 704 610
f 704 697 698
f 704 698 705
f 705 698 699
f 705 699 706
f 706 699 700
f 706 700 707
f 707 700 701
f 707 701 708
f 710 708 709
f 709 708 622
f 708 701 622
f 701 617 622
f 623 709 622
f 711 626 625
f 627 712 625
f 625 712 711
f 628 713 627
f 627 713 712
f 629 714 628
f 628 714 713
f 714 629 715
f 629 716 715
f 629 630 716
f 630 632 716
f 716 632 717
f 718 633 634
f 635 719 634
f 634 719 718
f 620 702 635
f 702 719 635
f 702 720 719
f 702 703 721
f 722 702 721
f 720 702 722
f 723 722 721
f 724 710 709
f 726 724 725
f 725 724 636
f 724 709 636
f 709 623 636
f 626 711 636
f 711 725 636
f 711 727 725
f 712 729 728
f 727 712 728
f 711 712 727
f 729 712 713
f 729 713 730
f 730 713 714
f 730 714 731
f 731 714 715
f 639 717 632
f 639 732 717
f 733 641 718
f 718 641 633
f 734 718 719
f 733 718 734
f 735 719 720
f 734 719 735
f 736 720 722
f 735 720 736
f 722 723 737
f 722 737 736
f 740 739 738
f 742 741 738
f 742 738 739
f 744 743 741
f 744 741 742
f 745 743 744
f 746 726 725
f 746 725 727
f 746 727 747
f 747 727 728
f 643 748 642
f 749 644 642
f 749 642 748
f 749 750 644
f 750 639 644
f 750 732 639
f 733 646 641
f 646 733 648
f 733 751 648
f 733 734 751
f 752 734 735
f 751 734 752
f 753 735 736
f 752 735 753
f 736 737 754
f 755 736 754
f 753 736 755
f 755 754 740
f 738 755 740
f 756 755 738
f 757 738 741
f 756 738 757
f 758 741 743
f 757 741 758
f 743 745 759
f 760 743 759
f 758 743 760
f 761 760 759
f 649 762 748
f 649 748 643
f 748 763 749
f 748 762 763
f 750 749 764
f 764 749 763
f 765 651 751
f 751 651 648
f 752 767 766
f 765 752 766
f 751 752 765
f 767 752 753
f 767 753 768
f 768 753 755
f 768 755 769
f 769 755 756
f 769 756 770
f 770 756 757
f 770 757 771
f 773 772 771
f 757 773 771
f 758 773 757
f 774 758 760
f 773 758 774
f 760 761 775
f 760 775 774
f 778 777 776
f 779 776 777
f 781 780 762
f 649 781 762
f 652 781 649
f 762 780 763
f 763 780 782
f 763 782 764
f 783 654 765
f 765 654 651
f 765 766 784
f 765 784 783
f 785 772 773
f 785 773 774
f 785 774 786
f 789 788 787
f 775 786 774
f 791 790 788
f 791 788 789
f 790 791 778
f 776 790 778
f 792 790 776
f 776 779 793
f 794 776 793
f 792 776 794
f 794 793 795
f 655 796 652
f 781 652 796
f 797 655 656
f 797 796 655
f 799 798 658
f 798 656 658
f 798 797 656
f 799 800 798
f 783 660 654
f 802 801 661
f 802 661 660
f 784 802 660
f 783 784 660
f 803 801 802
f 804 787 788
f 804 788 790
f 804 790 805
f 805 790 792
f 805 792 806
f 806 792 794
f 806 794 807
f 807 794 795
f 663 808 799
f 663 799 658
f 800 799 809
f 809 799 808
f 810 665 801
f 801 665 661
f 801 803 811
f 801 811 810
f 667 812 808
f 667 808 663
f 809 808 813
f 813 808 812
f 814 669 810
f 810 669 665
f 810 811 815
f 810 815 814
f 671 816 670
f 670 816 817
f 818 670 817
f 672 670 818
f 667 672 812
f 672 819 812
f 672 818 819
f 812 819 813
f 821 820 814
f 820 669 814
f 820 674 669
f 821 814 815
f 676 822 675
f 822 823 675
f 675 823 671
f 823 824 671
f 824 816 671
f 816 824 817
f 820 677 674
f 825 677 820
f 827 826 678
f 827 678 679
f 676 678 822
f 678 828 822
f 678 826 828
f 822 828 823
f 825 829 677
f 677 829 680
f 681 680 829
f 681 829 830
f 683 831 682
f 831 685 682
f 686 832 687
f 832 833 687
f 833 679 687
f 833 827 679
f 830 834 681
f 681 834 688
f 836 835 689
f 688 836 689
f 834 836 688
f 838 837 835
f 838 835 836
f 840 839 837
f 840 837 838
f 692 691 839
f 840 692 839
f 841 692 840
f 683 692 831
f 692 842 831
f 692 841 842
f 831 842 685
f 842 693 685
f 842 843 693
f 686 693 832
f 693 844 832
f 693 843 844
f 832 844 833
f 835 694 689
f 694 835 695
f 695 835 837
f 695 837 696
f 696 837 839
f 696 839 691
f 845 703 704
f 705 846 704
f 704 846 845
f 706 847 705
f 705 847 846
f 707 848 706
f 706 848 847
f 708 849 707
f 707 849 848
f 710 849 708
f 850 715 716
f 717 850 716
f 845 721 703
f 721 845 723
f 845 851 723
f 845 846 851
f 852 846 847
f 851 846 852
f 853 847 848
f 852 847 853
f 854 848 849
f 853 848 854
f 724 855 710
f 855 849 710
f 855 854 849
f 726 855 724
f 856 728 729
f 856 729 857
f 729 858 857
f 729 730 858
f 859 730 731
f 859 858 730
f 731 715 850
f 860 731 850
f 859 731 860
f 850 717 860
f 717 861 860
f 717 732 861
f 862 737 851
f 851 737 723
f 740 862 739
f 862 852 739
f 862 851 852
f 739 852 742
f 742 852 853
f 742 853 744
f 744 853 854
f 744 854 745
f 854 863 745
f 854 855 863
f 746 864 726
f 864 855 726
f 864 863 855
f 747 865 746
f 746 865 864
f 866 865 747
f 866 747 728
f 867 866 728
f 856 867 728
f 867 856 857
f 750 861 732
f 750 868 861
f 862 754 737
f 754 862 740
f 863 759 745
f 863 864 869
f 761 863 869
f 870 761 869
f 863 761 759
f 869 864 865
f 869 865 871
f 871 865 866
f 764 868 750
f 764 872 868
f 873 766 767
f 768 874 767
f 767 874 873
f 769 875 768
f 768 875 874
f 770 876 769
f 769 876 875
f 771 877 770
f 770 877 876
f 772 877 771
f 879 775 878
f 775 870 878
f 775 761 870
f 881 880 879
f 881 879 878
f 777 778 880
f 881 777 880
f 882 777 881
f 884 883 779
f 777 884 779
f 882 884 777
f 780 781 883
f 884 780 883
f 885 780 884
f 780 886 782
f 885 886 780
f 764 782 872
f 872 782 886
f 887 784 873
f 873 784 766
f 888 873 874
f 887 873 888
f 889 874 875
f 888 874 889
f 890 875 876
f 889 875 890
f 891 876 877
f 890 876 891
f 785 892 772
f 892 877 772
f 892 891 877
f 786 893 785
f 785 893 892
f 786 775 893
f 775 879 893
f 789 787 893
f 789 893 879
f 789 879 791
f 791 879 880
f 791 880 778
f 883 793 779
f 795 793 894
f 883 894 793
f 894 883 895
f 781 895 883
f 895 781 796
f 896 796 797
f 896 895 796
f 897 797 798
f 897 896 797
f 899 898 800
f 898 798 800
f 898 897 798
f 899 900 898
f 887 802 784
f 802 887 803
f 887 901 803
f 887 888 901
f 889 903 902
f 901 889 902
f 888 889 901
f 903 889 890
f 903 890 904
f 904 890 891
f 904 891 905
f 905 891 892
f 905 892 906
f 906 892 893
f 906 893 907
f 909 907 908
f 908 907 804
f 907 893 804
f 893 787 804
f 805 910 804
f 804 910 908
f 806 911 805
f 805 911 910
f 807 912 806
f 806 912 911
f 913 912 807
f 795 913 807
f 894 913 795
f 809 914 899
f 809 899 800
f 900 899 915
f 915 899 914
f 916 811 901
f 901 811 803
f 901 902 917
f 901 917 916
f 909 908 918
f 909 918 919
f 910 921 920
f 918 910 920
f 908 910 918
f 921 910 911
f 921 911 922
f 922 911 912
f 922 912 923
f 923 912 913
f 925 924 914
f 809 925 914
f 813 925 809
f 914 924 915
f 926 815 916
f 916 815 811
f 916 917 927
f 916 927 926
f 928 919 918
f 928 918 920
f 817 929 818
f 818 929 930
f 931 818 930
f 819 818 931
f 813 819 925
f 925 819 931
f 932 820 821
f 815 926 821
f 926 932 821
f 926 933 932
f 926 927 934
f 926 934 933
f 823 935 824
f 935 936 824
f 824 936 817
f 936 937 817
f 937 929 817
f 929 937 930
f 938 825 932
f 932 825 820
f 939 932 933
f 938 932 939
f 933 934 940
f 933 940 939
f 942 941 826
f 942 826 827
f 826 943 828
f 941 943 826
f 823 828 935
f 828 944 935
f 828 943 944
f 935 944 936
f 938 829 825
f 829 938 830
f 938 945 830
f 938 939 945
f 939 940 946
f 939 946 945
f 949 948 947
f 950 947 948
f 953 952 951
f 952 942 951
f 942 833 951
f 942 827 833
f 945 834 830
f 946 954 945
f 954 834 945
f 954 836 834
f 836 955 838
f 954 955 836
f 838 956 840
f 955 956 838
f 840 957 841
f 956 957 840
f 947 842 949
f 842 957 949
f 842 841 957
f 950 958 947
f 958 842 947
f 958 843 842
f 951 844 953
f 844 958 953
f 844 843 958
f 844 951 833
f 959 857 858
f 859 960 858
f 858 960 959
f 860 961 859
f 859 961 960
f 861 961 860
f 962 866 867
f 857 959 867
f 959 962 867
f 959 963 962
f 964 959 960
f 963 959 964
f 965 960 961
f 964 960 965
f 868 965 861
f 861 965 961
f 966 870 869
f 871 967 869
f 869 967 966
f 866 962 871
f 962 967 871
f 962 968 967
f 969 962 963
f 968 962 969
f 970 963 964
f 969 963 970
f 971 964 965
f 970 964 971
f 872 971 868
f 868 971 965
f 966 878 870
f 878 966 881
f 881 966 967
f 881 967 882
f 882 967 968
f 882 968 884
f 884 968 969
f 884 969 885
f 885 969 970
f 885 970 886
f 886 970 971
f 886 971 872
f 972 894 895
f 896 973 895
f 895 973 972
f 973 896 974
f 896 975 974
f 896 897 975
f 977 975 976
f 975 898 976
f 975 897 898
f 900 976 898
f 978 902 903
f 904 979 903
f 903 979 978
f 905 980 904
f 904 980 979
f 906 981 905
f 905 981 980
f 907 982 906
f 906 982 981
f 909 982 907
f 984 983 972
f 983 894 972
f 983 913 894
f 984 972 973
f 984 973 985
f 985 973 974
f 986 977 976
f 976 900 986
f 900 987 986
f 900 915 987
f 988 917 978
f 978 917 902
f 989 978 979
f 988 978 989
f 990 979 980
f 989 979 990
f 991 980 981
f 990 980 991
f 992 981 982
f 991 981 992
f 919 992 909
f 909 992 982
f 993 920 921
f 922 994 921
f 921 994 993
f 923 995 922
f 922 995 994
f 996 995 923
f 913 996 923
f 983 996 913
f 998 997 924
f 998 924 925
f 915 924 987
f 987 924 997
f 999 927 988
f 988 927 917
f 1000 988 989
f 999 988 1000
f 1001 989 990
f 1000 989 1001
f 1002 990 991
f 1001 990 1002
f 1003 991 992
f 1002 991 1003
f 928 1004 919
f 1004 992 919
f 1004 1003 992
f 920 993 928
f 993 1004 928
f 993 1005 1004
f 1006 993 994
f 1005 993 1006
f 1007 994 995
f 1006 994 1007
f 995 996 1008
f 1009 995 1008
f 1007 995 1009
f 1010 1009 1008
f 1012 1011 931
f 1012 931 930
f 925 931 998
f 998 931 1011
f 1013 934 999
f 999 934 927
f 1014 999 1000
f 1013 999 1014
f 1015 1000 1001
f 1014 1000 1015
f 1016 1001 1002
f 1015 1001 1016
f 1017 1002 1003
f 1016 1002 1017
f 1018 1003 1004
f 1017 1003 1018
f 1019 1004 1005
f 1018 1004 1019
f 1020 1005 1006
f 1019 1005 1020
f 1021 1006 1007
f 1020 1006 1021
f 1022 1007 1009
f 1021 1007 1022
f 1023 937 936
f 1009 1023 936
f 1022 1009 936
f 1023 1009 1010
f 930 937 1012
f 1012 937 1023
f 1024 940 1013
f 1013 940 934
f 1025 1013 1014
f 1024 1013 1025
f 1026 1014 1015
f 1025 1014 1026
f 1027 1015 1016
f 1026 1015 1027
f 1028 1016 1017
f 1027 1016 1028
f 1029 1017 1018
f 1028 1017 1029
f 1030 1018 1019
f 1029 1018 1030
f 942 1030 941
f 1030 1020 941
f 1030 1019 1020
f 941 1020 943
f 943 1020 1021
f 943 1021 944
f 944 1021 1022
f 944 1022 936
f 1031 946 1024
f 1024 946 940
f 1032 1024 1025
f 1031 1024 1032
f 1033 1025 1026
f 1032 1025 1033
f 1034 1026 1027
f 1033 1026 1034
f 949 1034 948
f 1034 1028 948
f 1034 1027 1028
f 948 1028 950
f 1028 1035 950
f 1028 1029 1035
f 953 1035 952
f 1035 1030 952
f 1035 1029 1030
f 952 1030 942
f 1031 954 946
f 954 1031 955
f 955 1031 1032
f 955 1032 956
f 956 1032 1033
f 956 1033 957
f 957 1033 1034
f 957 1034 949
f 1035 958 950
f 958 1035 953
f 1036 974 975
f 977 1036 975
f 1037 983 984
f 985 1038 984
f 984 1038 1037
f 974 1036 985
f 1036 1038 985
f 1036 1039 1038
f 986 1040 977
f 1040 1036 977
f 1040 1039 1036
f 987 1040 986
f 1041 996 1037
f 1037 996 983
f 1042 1037 1038
f 1041 1037 1042
f 1043 1038 1039
f 1042 1038 1043
f 998 1043 997
f 1043 1040 997
f 1043 1039 1040
f 997 1040 987
f 1041 1008 996
f 1008 1041 1010
f 1041 1044 1010
f 1041 1042 1044
f 1012 1044 1011
f 1044 1043 1011
f 1044 1042 1043
f 1011 1043 998
f 1044 1023 1010
f 1023 1044 1012
