v -32.2 -11.0 -10.0
v -32.0 -11.0 -11.0
v -32.0 -12.0 -10.0
v -32.0 -11.0 -9.7
v -32.0 -10.7 -10.0
v -31.8 -12.0 -9.0
v -31.0 -12.0 -9.3
v -31.0 -12.2 -9.0
v -31.0 -12.0 -8.8
v -31.0 -11.0 -10.4
v -31.0 -11.5 -10.0
v -31.5 -11.0 -9.0
v -31.0 -11.0 -8.6
v -31.4 -10.0 -10.0
v -31.0 -10.0 -10.5
v -31.2 -10.0 -9.0
v -31.0 -10.0 -8.8
v -31.0 -9.5 -10.0
v -31.0 -9.7 -9.0
v -30.0 -12.0 -9.2
v -30.0 -12.2 -9.0
v -30.0 -12.0 -8.8
v -30.0 -11.0 -10.4
v -30.0 -11.5 -10.0
v -30.0 -11.0 -8.5
v -30.0 -10.0 -10.6
v -30.0 -10.0 -8.5
v -30.6 -9.0 -11.0
v -30.0 -9.0 -11.2
v -30.0 -9.3 -11.0
v -30.6 -9.0 -10.0
v -30.3 -9.0 -9.0
v -30.0 -9.0 -8.7
v -30.0 -8.6 -11.0
v -30.2 -8.0 -10.0
v -30.0 -8.0 -10.3
v -30.0 -8.0 -9.7
v -30.0 -8.6 -9.0
v -30.0 -7.7 -10.0
v -29.0 -12.0 -9.5
v -29.0 -12.4 -9.0
v -29.0 -12.0 -8.6
v -29.0 -11.0 -10.5
v -29.0 -11.7 -10.0
v -29.0 -11.0 -8.4
v -29.0 -10.0 -10.7
v -29.0 -10.0 -8.5
v -29.0 -9.0 -11.4
v -29.0 -9.6 -11.0
v -29.0 -9.0 -8.5
v -29.6 -8.0 -11.0
v -29.0 -8.0 -11.4
v -29.4 -8.0 -9.0
v -29.0 -8.0 -8.7
v -29.4 -7.0 -11.0
v -29.0 -7.0 -11.4
v -29.6 -7.0 -10.0
v -29.0 -7.0 -9.3
v -29.0 -7.4 -9.0
v -29.8 -6.0 -11.0
v -29.0 -6.0 -11.2
v -30.0 -6.0 -10.0
v -29.0 -6.0 -9.3
v -29.0 -5.8 -11.0
v -29.0 -5.7 -10.0
v -28.2 -14.0 -10.0
v -28.0 -14.0 -10.2
v -28.0 -14.3 -10.0
v -28.0 -14.4 -9.0
v -28.4 -14.0 -9.0
v -28.0 -14.2 -8.0
v -28.2 -14.0 -8.0
v -28.0 -14.0 -7.8
v -28.4 -13.0 -10.0
v -28.0 -13.0 -10.4
v -28.6 -13.0 -9.0
v -28.4 -13.0 -8.0
v -28.0 -13.0 -7.6
v -28.2 -12.0 -11.0
v -28.0 -12.0 -11.5
v -28.0 -12.3 -11.0
v -28.7 -12.0 -10.0
v -28.5 -12.0 -8.0
v -28.0 -12.0 -7.6
v -28.5 -11.0 -11.0
v -28.0 -11.0 -11.4
v -28.4 -11.0 -8.0
v -28.0 -11.0 -7.7
v -28.6 -10.0 -11.0
v -28.0 -10.0 -11.4
v -28.0 -10.5 -8.0
v -28.0 -10.0 -8.3
v -28.0 -9.0 -11.5
v -28.0 -9.0 -8.4
v -28.0 -8.0 -11.5
v -28.0 -8.0 -8.4
v -28.0 -7.0 -11.5
v -28.6 -7.0 -9.0
v -28.0 -7.0 -8.6
v -28.0 -6.4 -11.0
v -28.7 -6.0 -11.0
v -28.6 -6.0 -10.0
v -28.0 -6.4 -10.0
v -28.0 -6.6 -9.0
v -27.1 -15.0 -10.0
v -27.0 -15.0 -10.0
v -27.0 -15.0 -10.0
v -27.0 -15.2 -9.0
v -27.2 -15.0 -9.0
v -27.0 -15.0 -8.8
v -27.0 -14.0 -10.4
v -27.0 -14.3 -8.0
v -27.0 -14.0 -7.8
v -27.0 -13.0 -10.5
v -27.0 -13.0 -7.5
v -27.6 -12.0 -11.0
v -27.0 -12.0 -10.7
v -27.0 -12.0 -7.5
v -27.0 -11.0 -11.3
v -27.0 -11.5 -11.0
v -27.0 -11.0 -7.5
v -27.0 -10.0 -11.4
v -27.6 -10.0 -8.0
v -27.0 -10.0 -7.6
v -27.0 -9.0 -11.5
v -27.5 -9.0 -8.0
v -27.0 -9.0 -7.6
v -27.0 -8.0 -11.6
v -27.5 -8.0 -8.0
v -27.0 -8.0 -7.6
v -27.1 -7.0 -12.0
v -27.0 -7.0 -12.1
v -27.0 -7.1 -12.0
v -27.4 -7.0 -8.0
v -27.0 -7.0 -7.6
v -27.0 -6.0 -12.0
v -27.0 -6.0 -12.0
v -27.6 -6.0 -11.0
v -27.0 -6.0 -10.4
v -27.0 -6.3 -10.0
v -27.0 -6.4 -9.0
v -27.0 -6.2 -8.0
v -27.0 -6.0 -12.0
v -27.0 -5.0 -11.0
v -27.0 -5.0 -11.0
v -27.0 -5.0 -11.0
v -27.0 -5.0 -11.0
v -26.9 -15.0 -10.0
v -26.4 -15.0 -9.0
v -26.0 -14.0 -10.2
v -26.0 -14.3 -10.0
v -26.0 -14.3 -9.0
v -26.7 -14.0 -8.0
v -26.0 -14.0 -8.9
v -26.0 -13.0 -10.5
v -26.0 -13.5 -8.0
v -26.0 -13.0 -7.6
v -26.0 -12.0 -10.5
v -26.0 -12.0 -7.5
v -26.6 -11.0 -11.0
v -26.0 -11.0 -10.6
v -26.0 -11.0 -7.5
v -26.4 -10.0 -11.0
v -26.0 -10.0 -10.7
v -26.0 -10.0 -7.5
v -26.0 -9.0 -11.4
v -26.0 -9.6 -11.0
v -26.0 -9.0 -7.4
v -26.0 -8.0 -11.5
v -26.0 -8.0 -7.3
v -26.9 -7.0 -12.0
v -26.0 -7.0 -11.6
v -26.0 -7.5 -7.0
v -26.3 -7.0 -7.0
v -26.0 -7.0 -6.8
v -27.0 -6.0 -12.0
v -26.0 -6.0 -11.6
v -26.6 -6.0 -10.0
v -26.0 -6.0 -9.4
v -26.0 -6.2 -9.0
v -26.0 -6.3 -8.0
v -26.1 -6.0 -7.0
v -26.0 -6.0 -7.1
v -26.0 -6.0 -6.9
v -26.0 -5.0 -11.4
v -26.0 -5.4 -10.0
v -26.0 -5.0 -10.4
v -26.0 -5.9 -7.0
v -26.0 -4.0 -11.0
v -26.0 -4.0 -11.0
v -26.0 -4.0 -11.0
v -26.0 -4.0 -11.0
v -25.7 -14.0 -10.0
v -25.4 -14.0 -9.0
v -25.0 -13.0 -10.3
v -25.0 -13.4 -10.0
v -25.0 -14.0 -9.0
v -25.0 -13.3 -8.0
v -25.0 -13.0 -7.7
v -25.0 -12.0 -10.5
v -25.0 -12.0 -7.5
v -25.0 -11.0 -10.5
v -25.0 -11.0 -7.5
v -25.0 -10.0 -10.6
v -25.0 -10.0 -7.4
v -25.0 -9.0 -11.2
v -25.0 -9.3 -11.0
v -25.0 -9.3 -7.0
v -25.3 -9.0 -7.0
v -25.0 -9.0 -6.7
v -25.0 -8.0 -11.4
v -25.6 -8.0 -7.0
v -25.0 -8.0 -6.6
v -25.0 -7.0 -11.4
v -25.0 -7.0 -6.5
v -25.0 -6.0 -11.4
v -25.7 -6.0 -9.0
v -25.1 -6.0 -8.0
v -25.0 -6.0 -6.5
v -25.0 -5.0 -11.3
v -25.6 -5.0 -10.0
v -25.3 -5.0 -9.0
v -25.0 -5.0 -8.5
v -25.0 -5.9 -8.0
v -25.3 -5.0 -7.0
v -25.0 -5.0 -7.5
v -25.0 -5.0 -6.7
v -25.0 -4.0 -11.2
v -25.0 -4.2 -10.0
v -25.0 -4.0 -10.3
v -25.0 -4.6 -9.0
v -25.2 -4.0 -7.0
v -25.0 -4.0 -7.3
v -25.0 -4.0 -6.8
v -25.3 -3.0 -11.0
v -25.0 -3.0 -11.3
v -25.0 -3.5 -10.0
v -25.2 -3.0 -10.0
v -25.0 -3.0 -9.8
v -25.1 -3.0 -8.0
v -25.0 -3.0 -8.1
v -25.0 -3.1 -8.0
v -25.1 -3.0 -7.0
v -25.0 -3.0 -6.9
v -25.2 -2.0 -11.0
v -25.0 -2.0 -11.2
v -25.0 -2.0 -10.7
v -25.0 -2.7 -10.0
v -25.0 -2.9 -8.0
v -25.0 -2.9 -7.0
v -25.2 -1.0 -11.0
v -25.0 -1.0 -11.2
v -25.0 -1.0 -10.8
v -25.0 0.0 -12.0
v -25.0 0.0 -12.0
v -25.0 -0.0 -12.0
v -25.2 0.0 -11.0
v -25.0 0.0 -10.8
v -25.0 0.0 -12.0
v -25.0 0.2 -11.0
v -24.6 -13.0 -10.0
v -24.0 -13.0 -9.3
v -24.0 -13.2 -9.0
v -24.6 -13.0 -8.0
v -24.0 -13.0 -8.7
v -24.0 -12.0 -10.3
v -24.0 -12.4 -10.0
v -24.0 -12.4 -8.0
v -24.0 -12.0 -7.7
v -24.0 -11.0 -10.4
v -24.0 -11.0 -7.5
v -24.0 -10.0 -10.5
v -24.0 -10.0 -7.4
v -24.7 -9.0 -11.0
v -24.0 -9.0 -10.5
v -24.0 -9.5 -7.0
v -24.0 -9.0 -6.6
v -24.5 -8.0 -11.0
v -24.0 -8.0 -10.6
v -24.0 -8.0 -6.5
v -24.5 -7.0 -11.0
v -24.0 -7.0 -10.6
v -24.0 -7.0 -6.4
v -24.5 -6.0 -11.0
v -24.0 -6.0 -10.6
v -24.0 -6.3 -6.0
v -24.3 -6.0 -6.0
v -24.0 -6.0 -5.8
v -24.6 -5.0 -11.0
v -24.0 -5.0 -10.6
v -24.7 -5.0 -8.0
v -24.4 -5.0 -6.0
v -24.0 -5.0 -5.7
v -24.6 -4.0 -11.0
v -24.8 -4.0 -10.0
v -24.0 -4.0 -10.7
v -24.6 -4.0 -9.0
v -24.3 -4.0 -8.0
v -24.0 -4.5 -6.0
v -24.0 -4.0 -6.4
v -24.0 -3.0 -11.4
v -24.0 -3.6 -11.0
v -24.6 -3.0 -9.0
v -24.0 -3.0 -6.6
v -24.0 -2.0 -11.5
v -24.5 -2.0 -10.0
v -24.0 -2.0 -9.2
v -24.0 -2.2 -9.0
v -24.2 -2.0 -8.0
v -24.0 -2.0 -8.5
v -24.0 -2.0 -7.7
v -24.0 -2.5 -7.0
v -24.0 -1.0 -11.6
v -24.0 -1.2 -10.0
v -24.0 -1.0 -10.2
v -24.0 -1.8 -8.0
v -24.0 0.0 -12.4
v -24.0 -0.6 -12.0
v -24.0 -0.5 -10.0
v -24.2 0.0 -10.0
v -24.0 0.0 -9.9
v -24.2 1.0 -12.0
v -24.0 1.0 -12.2
v -24.3 1.0 -11.0
v -24.0 1.0 -10.7
v -24.0 0.2 -10.0
v -24.0 1.2 -12.0
v -24.0 1.2 -11.0
v -23.8 -13.0 -9.0
v -23.7 -12.0 -10.0
v -23.0 -12.0 -9.2
v -23.0 -12.2 -9.0
v -23.5 -12.0 -8.0
v -23.0 -12.0 -8.7
v -23.4 -11.0 -10.0
v -23.0 -11.0 -9.7
v -23.0 -11.5 -8.0
v -23.0 -11.0 -7.6
v -23.0 -10.0 -10.2
v -23.0 -10.3 -10.0
v -23.0 -10.0 -7.4
v -23.0 -9.5 -10.0
v -23.2 -9.0 -10.0
v -23.0 -9.0 -9.8
v -23.0 -9.4 -7.0
v -23.0 -9.0 -6.7
v -23.0 -8.0 -10.3
v -23.0 -8.7 -10.0
v -23.0 -8.0 -6.5
v -23.0 -7.0 -10.4
v -23.0 -7.0 -6.4
v -23.0 -6.0 -10.5
v -23.0 -6.5 -6.0
v -23.0 -6.0 -5.6
v -23.0 -5.0 -10.5
v -23.0 -5.0 -5.5
v -23.0 -4.0 -10.6
v -23.5 -4.0 -6.0
v -23.0 -4.0 -5.7
v -23.0 -3.0 -11.4
v -23.0 -3.5 -11.0
v -23.0 -3.6 -6.0
v -23.0 -3.0 -6.4
v -23.0 -2.0 -11.6
v -23.8 -2.0 -9.0
v -23.4 -2.0 -7.0
v -23.0 -2.0 -6.8
v -23.5 -1.0 -12.0
v -23.0 -1.0 -12.3
v -23.0 -1.4 -12.0
v -23.9 -1.0 -10.0
v -23.4 -1.0 -9.0
v -23.0 -1.3 -8.0
v -23.0 -1.0 -8.5
v -23.0 -1.7 -7.0
v -23.0 0.0 -12.5
v -23.0 -0.5 -9.0
v -23.0 0.0 -9.4
v -23.0 1.0 -12.4
v -23.0 0.6 -10.0
v -23.0 1.0 -10.4
v -23.0 1.4 -12.0
v -23.0 1.4 -11.0
v -22.8 -12.0 -9.0
v -22.0 -11.0 -9.4
v -22.0 -11.4 -9.0
v -22.0 -11.3 -8.0
v -22.0 -11.0 -7.8
v -22.8 -10.0 -10.0
v -22.0 -10.0 -9.6
v -22.0 -10.0 -7.5
v -22.0 -9.0 -9.5
v -22.5 -9.0 -7.0
v -22.0 -9.0 -7.3
v -22.6 -8.0 -10.0
v -22.0 -8.0 -9.6
v -22.0 -8.6 -7.0
v -22.0 -8.0 -6.6
v -22.3 -7.0 -10.0
v -22.0 -7.0 -9.7
v -22.0 -7.0 -6.4
v -22.0 -6.0 -10.4
v -22.0 -6.7 -10.0
v -22.0 -6.3 -6.0
v -22.0 -6.0 -5.8
v -22.0 -5.0 -10.5
v -22.0 -5.0 -5.6
v -22.0 -4.0 -10.6
v -22.0 -4.0 -5.8
v -22.0 -3.0 -11.4
v -22.0 -3.5 -11.0
v -22.0 -3.7 -6.0
v -22.0 -3.0 -6.4
v -22.0 -2.0 -11.7
v -22.0 -2.0 -6.6
v -22.0 -1.0 -12.4
v -22.0 -1.6 -12.0
v -22.5 -1.0 -8.0
v -22.0 -1.0 -7.6
v -22.0 -1.6 -7.0
v -22.0 0.0 -12.7
v -22.5 0.0 -9.0
v -22.0 0.0 -8.6
v -22.0 -0.6 -8.0
v -22.1 1.0 -13.0
v -22.0 1.0 -13.1
v -22.0 0.9 -13.0
v -22.3 1.0 -10.0
v -22.0 1.0 -9.8
v -22.0 0.3 -9.0
v -22.0 1.1 -13.0
v -22.0 1.5 -12.0
v -22.0 1.5 -11.0
v -22.0 1.1 -10.0
v -21.0 -11.0 -9.0
v -21.0 -11.0 -9.0
v -21.6 -11.0 -8.0
v -21.0 -11.0 -9.0
v -21.0 -10.0 -9.3
v -21.0 -10.4 -8.0
v -21.0 -10.0 -7.8
v -21.0 -9.0 -9.5
v -21.0 -9.0 -7.5
v -21.0 -8.0 -9.5
v -21.0 -8.4 -7.0
v -21.0 -8.0 -6.7
v -21.0 -7.0 -9.6
v -21.0 -7.0 -6.5
v -21.0 -6.0 -10.3
v -21.0 -6.4 -10.0
v -21.7 -6.0 -6.0
v -21.0 -6.0 -6.4
v -21.0 -5.0 -10.5
v -21.5 -5.0 -6.0
v -21.0 -5.0 -6.4
v -21.0 -4.0 -10.7
v -21.7 -4.0 -6.0
v -21.0 -4.0 -6.4
v -21.0 -3.0 -11.6
v -21.0 -3.7 -11.0
v -21.0 -3.0 -6.5
v -21.6 -2.0 -12.0
v -21.0 -2.0 -12.4
v -21.0 -2.5 -12.0
v -21.0 -2.0 -6.7
v -21.0 -1.0 -12.7
v -21.0 -1.6 -7.0
v -21.0 -1.0 -7.5
v -21.5 0.0 -13.0
v -21.0 0.0 -13.4
v -21.0 -0.6 -13.0
v -21.0 -0.5 -8.0
v -21.0 0.0 -8.5
v -21.0 1.0 -13.4
v -21.5 1.0 -10.0
v -21.0 0.9 -10.0
v -21.0 1.0 -10.2
v -21.0 0.5 -9.0
v -21.0 1.3 -13.0
v -21.0 1.5 -12.0
v -21.0 1.4 -11.0
v -21.0 -11.0 -9.0
v -20.6 -10.0 -9.0
v -20.7 -10.0 -8.0
v -20.0 -9.0 -9.1
v -20.0 -9.1 -9.0
v -20.0 -9.0 -8.9
v -20.4 -9.0 -8.0
v -20.0 -8.0 -9.4
v -20.0 -8.5 -8.0
v -20.6 -8.0 -7.0
v -20.0 -8.0 -7.5
v -20.0 -7.0 -9.5
v -20.0 -7.4 -7.0
v -20.0 -7.0 -6.7
v -20.5 -6.0 -10.0
v -20.0 -6.0 -9.7
v -20.0 -6.0 -6.5
v -20.0 -5.0 -10.5
v -20.0 -5.6 -10.0
v -20.0 -5.0 -6.5
v -20.5 -4.0 -11.0
v -20.0 -4.0 -11.4
v -20.0 -4.4 -11.0
v -20.0 -4.0 -6.5
v -20.5 -3.0 -12.0
v -20.0 -3.0 -12.5
v -20.0 -3.4 -12.0
v -20.0 -3.0 -6.6
v -20.3 -2.0 -13.0
v -20.0 -2.0 -13.3
v -20.0 -2.4 -13.0
v -20.5 -2.0 -7.0
v -20.0 -2.4 -7.0
v -20.0 -2.0 -7.3
v -20.6 -1.0 -13.0
v -20.0 -1.0 -13.5
v -20.0 -1.0 -7.7
v -20.0 0.0 -13.9
v -20.0 -0.7 -8.0
v -20.0 0.0 -8.6
v -20.0 1.0 -13.6
v -20.6 1.0 -10.0
v -20.0 1.0 -9.1
v -20.0 0.9 -9.0
v -20.0 1.6 -13.0
v -20.0 1.5 -12.0
v -20.0 1.4 -11.0
v -20.0 1.2 -10.0
v -19.9 -9.0 -9.0
v -19.6 -8.0 -9.0
v -19.6 -8.0 -8.0
v -19.0 -7.0 -9.4
v -19.0 -7.5 -9.0
v -19.0 -7.5 -8.0
v -19.5 -7.0 -7.0
v -19.0 -7.0 -7.4
v -19.0 -6.0 -9.7
v -19.0 -6.4 -7.0
v -19.0 -6.0 -6.7
v -19.0 -5.0 -10.6
v -19.0 -5.7 -10.0
v -19.0 -5.0 -6.6
v -19.0 -4.0 -11.7
v -19.0 -4.6 -11.0
v -19.0 -4.0 -6.6
v -19.4 -3.0 -13.0
v -19.0 -3.0 -13.3
v -19.0 -3.3 -13.0
v -19.0 -3.7 -12.0
v -19.0 -3.0 -6.8
v -19.0 -2.0 -13.6
v -19.0 -2.7 -7.0
v -19.0 -2.0 -7.7
v -19.0 -1.0 -13.5
v -19.3 -1.0 -9.0
v -19.0 -1.3 -9.0
v -19.0 -1.0 -9.4
v -19.7 -1.0 -8.0
v -19.0 -1.7 -8.0
v -19.0 0.0 -13.6
v -19.3 0.0 -10.0
v -19.0 -0.4 -10.0
v -19.0 0.0 -10.4
v -19.6 0.0 -9.0
v -19.0 1.0 -13.6
v -19.4 1.0 -11.0
v -19.0 0.6 -11.0
v -19.0 1.0 -11.4
v -19.8 1.0 -10.0
v -19.4 2.0 -14.0
v -19.0 2.0 -14.1
v -19.0 1.8 -14.0
v -19.4 2.0 -13.0
v -19.0 2.0 -12.7
v -19.0 1.5 -12.0
v -19.0 2.1 -14.0
v -19.0 2.2 -13.0
v -18.0 -7.0 -9.4
v -18.0 -7.3 -9.0
v -18.0 -7.2 -8.0
v -18.0 -7.0 -7.7
v -18.5 -6.0 -10.0
v -18.0 -6.0 -10.4
v -18.0 -6.4 -10.0
v -18.6 -6.0 -7.0
v -18.0 -6.0 -7.4
v -18.5 -5.0 -11.0
v -18.0 -5.0 -11.4
v -18.0 -5.4 -11.0
v -18.5 -5.0 -7.0
v -18.0 -5.0 -7.4
v -18.3 -4.0 -13.0
v -18.0 -4.0 -13.2
v -18.0 -4.2 -13.0
v -18.0 -4.5 -12.0
v -18.7 -4.0 -12.0
v -18.5 -4.0 -7.0
v -18.0 -4.0 -7.5
v -18.0 -3.0 -13.7
v -18.7 -3.0 -7.0
v -18.0 -3.0 -7.7
v -18.2 -2.0 -14.0
v -18.0 -2.0 -14.2
v -18.0 -2.3 -14.0
v -18.3 -2.0 -9.0
v -18.0 -2.3 -9.0
v -18.0 -2.0 -9.4
v -18.7 -2.0 -8.0
v -18.0 -2.7 -8.0
v -18.0 -1.7 -14.0
v -18.0 -1.0 -13.7
v -18.5 -1.0 -10.0
v -18.0 -1.5 -10.0
v -18.0 -1.0 -10.4
v -18.0 0.0 -13.6
v -18.4 0.0 -11.0
v -18.0 -0.3 -11.0
v -18.0 0.0 -11.3
v -18.0 1.0 -13.6
v -18.0 1.0 -11.7
v -18.0 2.0 -14.2
v -18.0 1.7 -14.0
v -18.0 1.4 -12.0
v -18.0 2.0 -12.6
v -18.0 2.2 -14.0
v -18.0 2.3 -13.0
v -17.0 -7.0 -9.3
v -17.0 -7.1 -9.0
v -17.6 -7.0 -8.0
v -17.0 -7.0 -8.8
v -17.0 -6.0 -10.6
v -17.0 -6.6 -10.0
v -17.0 -6.4 -8.0
v -17.0 -6.0 -7.7
v -17.0 -5.0 -11.7
v -17.0 -5.6 -11.0
v -17.0 -5.0 -7.8
v -17.0 -4.0 -13.5
v -17.0 -4.5 -13.0
v -17.0 -4.8 -12.0
v -17.4 -4.0 -8.0
v -17.0 -4.6 -8.0
v -17.0 -4.0 -8.4
v -17.3 -3.0 -14.0
v -17.0 -3.0 -14.2
v -17.0 -3.2 -14.0
v -17.7 -3.0 -8.0
v -17.0 -3.0 -8.7
v -17.0 -2.0 -14.4
v -17.4 -2.0 -10.0
v -17.0 -2.3 -10.0
v -17.0 -2.0 -10.3
v -17.0 -2.8 -9.0
v -17.6 -1.0 -14.0
v -17.0 -1.0 -14.4
v -17.0 -1.0 -10.7
v -17.4 0.0 -14.0
v -17.0 0.0 -14.3
v -17.0 -0.6 -11.0
v -17.0 0.0 -11.5
v -17.0 0.7 -14.0
v -17.0 1.0 -13.8
v -17.5 1.0 -12.0
v -17.0 0.6 -12.0
v -17.0 1.0 -12.4
v -17.0 2.0 -14.2
v -17.0 1.4 -14.0
v -17.0 2.0 -12.8
v -17.0 2.2 -14.0
v -17.0 2.2 -13.0
v -16.8 -7.0 -9.0
v -16.5 -6.0 -11.0
v -16.0 -6.0 -11.5
v -16.0 -6.4 -11.0
v -16.0 -6.9 -10.0
v -16.0 -6.3 -9.0
v -16.7 -6.0 -8.0
v -16.0 -6.0 -8.8
v -16.0 -5.0 -13.0
v -16.0 -5.0 -13.0
v -16.0 -5.0 -13.0
v -16.0 -5.5 -12.0
v -16.7 -5.0 -12.0
v -16.3 -5.0 -9.0
v -16.0 -5.6 -9.0
v -16.0 -5.0 -9.3
v -16.7 -5.0 -8.0
v -16.0 -4.0 -13.4
v -16.5 -4.0 -9.0
v -16.0 -4.0 -9.6
v -16.7 -3.0 -14.0
v -16.0 -3.0 -13.7
v -16.3 -3.0 -10.0
v -16.0 -3.5 -10.0
v -16.0 -3.0 -10.3
v -16.8 -3.0 -9.0
v -16.0 -2.0 -14.3
v -16.0 -2.5 -14.0
v -16.0 -2.0 -10.6
v -16.0 -1.0 -14.5
v -16.5 -1.0 -11.0
v -16.0 -1.4 -11.0
v -16.0 -1.0 -11.3
v -16.0 0.0 -14.5
v -16.0 0.0 -11.6
v -16.8 1.0 -14.0
v -16.0 1.0 -14.4
v -16.0 0.5 -12.0
v -16.0 1.0 -12.5
v -16.0 2.0 -14.2
v -16.0 2.0 -13.7
v -16.6 2.0 -13.0
v -16.0 1.6 -13.0
v -16.0 2.2 -14.0
v -15.1 -6.0 -12.0
v -15.0 -6.0 -12.1
v -15.0 -6.1 -12.0
v -15.0 -6.3 -11.0
v -15.0 -6.1 -10.0
v -15.8 -6.0 -9.0
v -15.0 -6.0 -9.9
v -16.0 -5.0 -13.0
v -15.0 -5.0 -12.6
v -15.4 -5.0 -10.0
v -15.0 -5.8 -10.0
v -15.0 -5.0 -10.4
v -15.3 -4.0 -13.0
v -15.0 -4.0 -12.5
v -15.6 -4.0 -10.0
v -15.0 -4.0 -10.5
v -15.0 -3.0 -13.4
v -15.0 -3.7 -13.0
v -15.0 -3.0 -10.6
v -15.4 -2.0 -14.0
v -15.0 -2.0 -13.8
v -15.0 -2.0 -10.7
v -15.0 -1.0 -14.5
v -15.0 -1.7 -14.0
v -15.0 -1.7 -11.0
v -15.0 -1.0 -11.4
v -15.0 0.0 -14.5
v -15.0 0.0 -11.6
v -15.0 1.0 -14.5
v -15.0 0.5 -12.0
v -15.0 1.0 -12.5
v -15.0 2.0 -14.2
v -15.0 1.5 -13.0
v -15.0 2.0 -13.8
v -15.0 2.2 -14.0
v -14.9 -6.0 -12.0
v -14.7 -6.0 -11.0
v -14.9 -6.0 -10.0
v -14.1 -5.0 -13.0
v -14.0 -5.0 -13.0
v -14.0 -5.0 -13.0
v -14.0 -5.3 -12.0
v -14.0 -5.0 -11.5
v -14.3 -5.0 -11.0
v -14.7 -4.0 -13.0
v -14.0 -4.0 -13.5
v -14.0 -4.4 -11.0
v -14.0 -4.0 -10.9
v -14.0 -3.0 -13.6
v -14.4 -3.0 -11.0
v -14.0 -3.7 -11.0
v -14.0 -3.0 -11.3
v -14.0 -2.0 -15.0
v -14.0 -2.0 -15.0
v -14.0 -2.0 -15.0
v -14.0 -2.0 -14.8
v -14.0 -2.0 -13.9
v -14.7 -2.0 -11.0
v -14.0 -2.0 -11.4
v -14.0 -1.0 -15.0
v -14.0 -1.0 -15.0
v -14.0 -1.9 -14.0
v -14.0 -1.0 -11.5
v -14.0 -1.0 -15.0
v -14.0 0.0 -14.6
v -14.0 0.0 -11.6
v -14.0 1.0 -14.5
v -14.0 0.5 -12.0
v -14.0 1.0 -12.5
v -14.0 2.0 -14.2
v -14.0 1.6 -13.0
v -14.0 2.0 -13.6
v -14.0 2.2 -14.0
v -13.9 -5.0 -13.0
v -13.3 -5.0 -12.0
v -13.3 -4.0 -14.0
v -13.0 -4.0 -14.3
v -13.0 -4.3 -14.0
v -13.0 -4.6 -13.0
v -13.0 -4.8 -12.0
v -13.7 -4.0 -11.0
v -13.0 -4.0 -11.4
v -13.3 -3.0 -15.0
v -13.0 -3.0 -15.2
v -13.0 -3.3 -15.0
v -13.6 -3.0 -14.0
v -13.0 -3.0 -11.5
v -13.0 -2.0 -15.3
v -13.9 -2.0 -14.0
v -13.0 -2.0 -11.5
v -13.0 -1.6 -15.0
v -14.0 -1.0 -15.0
v -13.0 -1.0 -14.0
v -13.0 -1.0 -14.0
v -13.0 -1.0 -14.0
v -13.0 -1.0 -11.5
v -13.0 -1.0 -14.0
v -13.0 0.0 -14.4
v -13.0 0.0 -11.6
v -13.0 1.0 -14.5
v -13.0 0.5 -12.0
v -13.0 1.0 -12.4
v -13.0 2.0 -14.3
v -13.4 2.0 -13.0
v -13.0 2.0 -12.8
v -13.0 2.3 -14.0
v -13.0 2.2 -13.0
v -12.2 -7.0 -13.0
v -12.0 -7.0 -13.1
v -12.0 -7.1 -13.0
v -12.0 -7.0 -12.9
v -12.1 -6.0 -14.0
v -12.0 -6.0 -14.1
v -12.0 -6.1 -14.0
v -12.4 -6.0 -13.0
v -12.0 -6.3 -12.0
v -12.3 -6.0 -12.0
v -12.0 -6.0 -11.7
v -12.0 -5.8 -14.0
v -12.0 -5.1 -13.0
v -12.8 -5.0 -12.0
v -12.0 -5.0 -13.0
v -12.0 -5.2 -11.0
v -12.7 -5.0 -11.0
v -12.0 -5.0 -10.8
v -12.0 -4.0 -14.4
v -12.0 -4.5 -14.0
v -12.0 -5.0 -13.0
v -12.0 -4.7 -11.0
v -12.0 -4.0 -11.4
v -12.0 -3.0 -15.3
v -12.0 -3.4 -15.0
v -12.0 -3.0 -11.5
v -12.0 -2.0 -15.4
v -12.0 -2.0 -11.5
v -12.0 -1.6 -15.0
v -12.0 -1.2 -14.0
v -12.0 -1.0 -13.8
v -12.0 -1.0 -11.5
v -12.0 0.0 -14.3
v -12.0 -0.6 -14.0
v -12.0 0.0 -11.6
v -12.0 1.0 -14.5
v -12.0 0.5 -12.0
v -12.0 1.0 -12.4
v -12.0 2.0 -14.3
v -12.0 2.0 -12.7
v -12.0 2.3 -14.0
v -12.0 2.3 -13.0
v -11.9 -7.0 -13.0
v -11.0 -6.0 -14.4
v -11.0 -6.7 -14.0
v -11.0 -6.6 -13.0
v -11.0 -6.3 -12.0
v -11.0 -6.0 -11.7
v -11.0 -5.0 -15.0
v -11.0 -5.0 -15.0
v -11.0 -5.1 -15.0
v -11.6 -5.0 -14.0
v -12.0 -5.0 -13.0
v -11.0 -5.1 -11.0
v -11.0 -5.0 -10.9
v -11.0 -4.9 -15.0
v -11.0 -4.0 -14.2
v -11.0 -4.9 -11.0
v -11.0 -4.0 -11.4
v -11.5 -3.0 -15.0
v -11.0 -3.0 -14.7
v -11.0 -3.0 -11.5
v -11.1 -2.0 -17.0
v -11.0 -2.0 -17.1
v -11.0 -2.1 -17.0
v -11.0 -2.2 -16.0
v -11.2 -2.0 -16.0
v -11.0 -2.5 -15.0
v -11.0 -2.0 -11.5
v -11.0 -1.6 -17.0
v -11.1 -1.0 -16.0
v -11.0 -1.0 -16.4
v -11.0 -1.7 -15.0
v -11.0 -1.0 -15.9
v -11.0 -1.4 -14.0
v -11.0 -1.0 -13.7
v -11.0 -1.0 -11.5
v -11.0 -0.9 -16.0
v -11.5 0.0 -14.0
v -11.0 0.0 -13.7
v -11.0 0.0 -11.6
v -11.0 1.0 -14.3
v -11.0 0.5 -14.0
v -11.0 0.5 -12.0
v -11.0 1.0 -12.4
v -11.0 2.0 -14.2
v -11.0 2.0 -12.7
v -11.0 2.2 -14.0
v -11.0 2.3 -13.0
v -10.3 -6.0 -14.0
v -10.0 -6.0 -13.5
v -10.0 -6.2 -13.0
v -10.6 -6.0 -12.0
v -10.0 -6.0 -12.7
v -10.0 -5.0 -15.3
v -10.0 -5.3 -15.0
v -10.0 -5.8 -14.0
v -10.0 -5.6 -12.0
v -10.9 -5.0 -11.0
v -10.0 -5.0 -11.5
v -10.1 -4.0 -16.0
v -10.0 -4.0 -16.1
v -10.0 -4.1 -16.0
v -10.5 -4.0 -15.0
v -10.0 -4.0 -11.5
v -10.1 -3.0 -17.0
v -10.0 -3.0 -17.1
v -10.0 -3.1 -17.0
v -10.0 -3.8 -16.0
v -10.0 -3.0 -16.8
v -10.0 -3.3 -15.0
v -10.0 -3.0 -14.8
v -10.0 -3.0 -11.5
v -10.0 -2.0 -17.5
v -10.0 -2.0 -16.4
v -10.6 -2.0 -16.0
v -10.6 -2.0 -15.0
v -10.0 -2.0 -14.5
v -10.0 -2.0 -11.5
v -10.8 -1.0 -18.0
v -10.0 -1.0 -18.3
v -10.0 -1.5 -18.0
v -10.9 -1.0 -17.0
v -10.0 -1.2 -16.0
v -10.0 -1.0 -15.9
v -10.0 -1.5 -14.0
v -10.0 -1.0 -13.5
v -10.0 -1.0 -11.5
v -10.4 0.0 -18.0
v -10.0 0.0 -18.3
v -10.8 0.0 -17.0
v -10.0 -0.8 -16.0
v -10.0 0.0 -16.5
v -10.0 0.0 -13.4
v -10.0 0.0 -11.6
v -10.0 0.3 -18.0
v -10.0 0.4 -17.0
v -10.6 1.0 -14.0
v -10.0 1.0 -13.5
v -10.0 0.6 -12.0
v -10.0 1.0 -12.4
v -10.7 2.0 -14.0
v -10.0 2.0 -13.2
v -10.0 2.0 -12.8
v -10.0 2.2 -13.0
v -9.7 -6.0 -13.0
v -9.5 -5.0 -15.0
v -9.0 -5.0 -14.7
v -9.0 -5.9 -14.0
v -9.0 -5.6 -13.0
v -9.0 -5.3 -12.0
v -9.0 -5.0 -11.8
v -9.0 -4.0 -16.3
v -9.0 -4.3 -16.0
v -9.0 -4.7 -15.0
v -9.0 -4.0 -11.5
v -9.0 -3.0 -17.3
v -9.0 -3.3 -17.0
v -9.6 -3.0 -16.0
v -9.7 -3.0 -15.0
v -9.0 -3.0 -11.5
v -9.4 -2.0 -18.0
v -9.0 -2.0 -18.2
v -9.0 -2.3 -18.0
v -9.0 -2.4 -16.0
v -9.0 -2.0 -16.4
v -9.0 -2.3 -15.0
v -9.0 -2.0 -14.7
v -9.0 -2.0 -11.5
v -9.0 -1.0 -18.5
v -9.0 -1.0 -17.1
v -9.1 -1.0 -17.0
v -9.0 -1.1 -17.0
v -9.8 -1.0 -16.0
v -9.0 -1.4 -14.0
v -9.0 -1.0 -13.0
v -9.0 -1.0 -13.0
v -9.0 -1.0 -12.9
v -9.0 -1.0 -11.6
v -9.0 0.0 -18.5
v -9.0 -0.9 -17.0
v -9.0 -0.2 -16.0
v -9.2 0.0 -16.0
v -9.0 0.0 -15.9
v -9.4 0.0 -13.0
v -9.0 0.0 -12.4
v -9.0 0.0 -11.8
v -9.1 1.0 -18.0
v -9.0 1.0 -18.1
v -9.3 1.0 -17.0
v -9.0 1.0 -16.7
v -9.0 0.2 -16.0
v -9.0 1.0 -13.2
v -9.0 0.7 -13.0
v -9.0 1.0 -12.0
v -9.0 1.0 -12.0
v -9.0 1.1 -18.0
v -9.0 1.2 -17.0
v -9.0 1.8 -13.0
v -9.2 2.0 -13.0
v -9.0 1.0 -12.0
v -8.0 -5.0 -14.5
v -8.0 -5.4 -14.0
v -8.0 -5.3 -13.0
v -8.6 -5.0 -12.0
v -8.0 -5.0 -12.6
v -8.6 -4.0 -16.0
v -8.0 -4.0 -15.6
v -8.0 -4.5 -15.0
v -8.0 -4.4 -12.0
v -8.0 -4.0 -11.7
v -8.6 -3.0 -17.0
v -8.0 -3.0 -16.6
v -8.0 -3.6 -16.0
v -8.0 -3.0 -11.5
v -8.0 -2.0 -18.3
v -8.0 -2.2 -18.0
v -8.0 -2.6 -17.0
v -8.7 -2.0 -16.0
v -8.8 -2.0 -15.0
v -8.0 -2.0 -11.5
v -8.1 -1.0 -19.0
v -8.0 -1.0 -19.1
v -8.0 -1.1 -19.0
v -8.0 -1.2 -17.0
v -8.0 -1.0 -17.2
v -8.0 -1.1 -16.0
v -8.5 -1.0 -15.0
v -8.0 -1.0 -15.9
v -8.5 -1.0 -14.0
v -8.9 -1.0 -13.0
v -8.0 -1.0 -11.8
v -8.0 0.0 -19.0
v -8.0 0.0 -19.0
v -8.1 0.0 -17.0
v -8.0 0.0 -17.2
v -8.0 0.0 -16.8
v -8.0 -0.9 -16.0
v -8.3 0.0 -15.0
v -8.0 0.0 -14.6
v -8.0 -0.4 -14.0
v -8.0 -0.6 -13.0
v -8.0 -0.7 -12.0
v -8.7 0.0 -12.0
v -8.0 0.0 -19.0
v -8.0 0.5 -18.0
v -8.9 1.0 -18.0
v -8.0 1.0 -17.1
v -8.0 0.5 -17.0
v -8.1 1.0 -16.0
v -8.0 1.0 -15.9
v -8.0 0.3 -15.0
v -8.8 1.0 -13.0
v -9.0 1.0 -12.0
v -8.0 1.1 -17.0
v -8.0 1.1 -16.0
v -7.0 -5.0 -14.2
v -7.0 -5.1 -14.0
v -7.6 -5.0 -13.0
v -7.0 -5.0 -13.8
v -7.0 -4.0 -15.5
v -7.0 -4.5 -15.0
v -7.0 -4.5 -13.0
v -7.6 -4.0 -12.0
v -7.0 -4.0 -12.5
v -7.0 -3.0 -16.3
v -7.0 -3.4 -16.0
v -7.0 -3.4 -12.0
v -7.0 -3.0 -11.7
v -7.7 -2.0 -18.0
v -7.0 -2.0 -17.4
v -7.0 -2.3 -17.0
v -7.0 -2.0 -11.7
v -7.9 -1.0 -19.0
v -7.0 -1.0 -18.3
v -7.0 -1.3 -18.0
v -7.7 -1.0 -17.0
v -7.9 -1.0 -16.0
v -7.6 -1.0 -12.0
v -7.0 -1.6 -12.0
v -7.0 -1.0 -12.4
v -8.0 0.0 -19.0
v -7.0 0.0 -18.0
v -7.0 -0.6 -17.0
v -7.0 0.0 -18.0
v -7.0 0.0 -16.4
v -7.2 0.0 -14.0
v -7.0 0.0 -13.8
v -7.0 -0.5 -13.0
v -7.0 0.0 -18.0
v -7.9 1.0 -17.0
v -7.0 0.3 -16.0
v -7.9 1.0 -16.0
v -7.0 0.4 -15.0
v -7.0 0.1 -14.0
v -6.9 -5.0 -14.0
v -6.0 -4.0 -15.2
v -6.0 -4.2 -15.0
v -6.0 -4.3 -14.0
v -6.5 -4.0 -13.0
v -6.0 -4.0 -13.6
v -6.6 -3.0 -16.0
v -6.0 -3.0 -15.5
v -6.0 -3.4 -13.0
v -6.7 -3.0 -12.0
v -6.0 -3.0 -12.7
v -6.8 -2.0 -17.0
v -6.3 -2.0 -16.0
v -6.0 -2.0 -15.7
v -6.7 -2.0 -12.0
v -6.0 -2.0 -12.5
v -6.8 -1.0 -18.0
v -6.7 -1.0 -17.0
v -6.5 -1.0 -16.0
v -6.0 -1.0 -15.5
v -6.0 -1.0 -12.8
v -7.0 0.0 -18.0
v -6.8 0.0 -16.0
v -6.0 -0.5 -15.0
v -6.6 0.0 -15.0
v -6.8 0.0 -14.0
v -6.0 -0.4 -14.0
v -6.0 -0.8 -13.0
v -5.8 -4.0 -15.0
v -5.7 -4.0 -14.0
v -5.5 -3.0 -15.0
v -5.4 -3.0 -14.0
v -5.7 -3.0 -13.0
v -5.0 -2.0 -15.7
v -5.0 -2.4 -15.0
v -5.0 -2.3 -14.0
v -5.0 -2.0 -13.7
v -5.5 -2.0 -13.0
v -5.0 -1.0 -15.2
v -5.7 -1.0 -13.0
v -5.0 -1.0 -13.8
v -5.0 -0.8 -15.0
v -5.0 -0.8 -14.0
v -4.7 -2.0 -15.0
v -4.8 -2.0 -14.0
v -4.8 -1.0 -15.0
v -4.8 -1.0 -14.0
f 3 2 1
f 1 4 3
f 2 5 1
f 1 5 4
f 8 7 6
f 6 9 8
f 11 10 3
f 3 10 2
f 12 6 4
f 6 11 4
f 11 3 4
f 6 7 11
f 9 6 13
f 13 6 12
f 5 2 14
f 2 15 14
f 2 10 15
f 12 4 5
f 14 12 5
f 16 12 14
f 13 12 17
f 17 12 16
f 15 18 14
f 14 18 16
f 16 18 19
f 16 19 17
f 21 20 8
f 8 20 7
f 8 9 21
f 21 9 22
f 24 23 11
f 11 23 10
f 11 7 20
f 11 20 24
f 13 22 9
f 13 25 22
f 23 15 10
f 26 15 23
f 17 25 13
f 17 27 25
f 30 29 28
f 28 31 18
f 26 28 18
f 15 26 18
f 28 26 30
f 32 19 18
f 32 18 31
f 32 33 19
f 33 17 19
f 33 27 17
f 29 34 28
f 36 35 34
f 35 28 34
f 35 31 28
f 38 32 37
f 32 35 37
f 32 31 35
f 32 38 33
f 36 39 35
f 35 39 37
f 41 40 21
f 21 40 20
f 21 22 41
f 41 22 42
f 44 43 24
f 24 43 23
f 24 20 40
f 24 40 44
f 25 42 22
f 25 45 42
f 43 26 23
f 46 26 43
f 27 45 25
f 27 47 45
f 49 48 30
f 30 48 29
f 30 26 46
f 30 46 49
f 33 47 27
f 33 50 47
f 34 29 51
f 29 52 51
f 29 48 52
f 51 36 34
f 37 53 38
f 53 54 38
f 54 33 38
f 54 50 33
f 51 52 55
f 55 52 56
f 57 39 36
f 51 57 36
f 55 57 51
f 57 58 39
f 39 58 37
f 58 59 37
f 59 53 37
f 53 59 54
f 55 56 60
f 60 56 61
f 55 62 57
f 55 60 62
f 58 57 63
f 63 57 62
f 61 64 60
f 60 64 62
f 62 64 65
f 62 65 63
f 68 67 66
f 70 69 66
f 66 69 68
f 72 71 70
f 70 71 69
f 72 73 71
f 66 67 74
f 74 67 75
f 66 76 70
f 66 74 76
f 70 77 72
f 70 76 77
f 73 72 78
f 78 72 77
f 81 80 79
f 81 79 75
f 79 74 75
f 79 82 74
f 82 40 41
f 76 82 41
f 74 82 76
f 76 41 42
f 83 76 42
f 77 76 83
f 78 77 84
f 84 77 83
f 79 80 85
f 85 80 86
f 85 43 44
f 82 85 44
f 79 85 82
f 82 44 40
f 45 87 83
f 45 83 42
f 84 83 88
f 88 83 87
f 85 86 89
f 89 86 90
f 89 46 43
f 89 43 85
f 92 91 87
f 45 92 87
f 47 92 45
f 87 91 88
f 89 90 49
f 90 48 49
f 90 93 48
f 89 49 46
f 50 92 47
f 50 94 92
f 93 52 48
f 95 52 93
f 54 94 50
f 54 96 94
f 95 56 52
f 97 56 95
f 58 98 59
f 98 99 59
f 99 54 59
f 99 96 54
f 101 61 100
f 61 97 100
f 61 56 97
f 103 102 101
f 103 101 100
f 103 104 98
f 63 103 98
f 58 63 98
f 102 103 63
f 98 104 99
f 101 64 61
f 64 101 65
f 65 101 102
f 65 102 63
f 107 106 105
f 109 108 105
f 105 108 107
f 109 110 108
f 105 106 68
f 106 67 68
f 106 111 67
f 105 68 69
f 105 69 109
f 112 110 109
f 69 112 109
f 71 112 69
f 71 73 112
f 112 73 113
f 111 75 67
f 114 75 111
f 78 113 73
f 78 115 113
f 116 80 81
f 117 116 81
f 75 117 81
f 114 117 75
f 84 115 78
f 84 118 115
f 120 119 116
f 119 80 116
f 119 86 80
f 120 116 117
f 88 118 84
f 88 121 118
f 119 90 86
f 122 90 119
f 92 123 91
f 123 124 91
f 124 88 91
f 124 121 88
f 122 93 90
f 125 93 122
f 94 126 123
f 94 123 92
f 124 123 127
f 127 123 126
f 125 95 93
f 128 95 125
f 96 129 126
f 96 126 94
f 127 126 130
f 130 126 129
f 133 132 131
f 128 133 131
f 97 128 131
f 95 128 97
f 99 134 129
f 99 129 96
f 130 129 135
f 135 129 134
f 131 132 136
f 136 132 137
f 138 100 97
f 131 138 97
f 136 138 131
f 100 138 139
f 140 100 139
f 103 100 140
f 103 141 104
f 140 141 103
f 99 104 134
f 104 142 134
f 104 141 142
f 134 142 135
f 137 143 136
f 145 144 143
f 144 136 143
f 144 138 136
f 139 138 146
f 146 138 144
f 145 147 144
f 144 147 146
f 148 106 107
f 108 149 107
f 107 149 148
f 110 149 108
f 151 150 148
f 150 106 148
f 150 111 106
f 151 148 149
f 151 149 152
f 154 152 153
f 153 152 112
f 152 149 112
f 149 110 112
f 113 153 112
f 150 114 111
f 155 114 150
f 156 154 153
f 153 113 156
f 113 157 156
f 113 115 157
f 155 117 114
f 158 117 155
f 118 157 115
f 118 159 157
f 160 119 120
f 161 160 120
f 117 161 120
f 158 161 117
f 121 159 118
f 121 162 159
f 163 122 160
f 160 122 119
f 160 161 164
f 160 164 163
f 124 162 121
f 124 165 162
f 167 166 163
f 166 122 163
f 166 125 122
f 167 163 164
f 127 165 124
f 127 168 165
f 166 128 125
f 169 128 166
f 130 168 127
f 130 170 168
f 171 132 133
f 172 171 133
f 128 172 133
f 169 172 128
f 135 174 173
f 170 135 173
f 130 135 170
f 174 175 173
f 176 137 171
f 171 137 132
f 171 172 177
f 171 177 176
f 139 178 140
f 140 178 179
f 180 140 179
f 141 140 180
f 141 181 142
f 180 181 141
f 142 181 135
f 181 182 135
f 182 174 135
f 182 181 183
f 175 174 184
f 184 174 182
f 176 143 137
f 145 143 176
f 177 145 176
f 185 145 177
f 187 186 178
f 139 187 178
f 146 187 139
f 178 186 179
f 183 188 182
f 182 188 184
f 147 145 189
f 145 190 189
f 145 185 190
f 189 191 147
f 191 146 147
f 191 187 146
f 190 192 189
f 189 192 191
f 193 150 151
f 152 194 151
f 151 194 193
f 154 194 152
f 196 195 193
f 195 150 193
f 195 155 150
f 196 193 194
f 196 194 197
f 197 194 154
f 156 197 154
f 198 197 156
f 156 157 198
f 198 157 199
f 195 158 155
f 200 158 195
f 159 199 157
f 159 201 199
f 200 161 158
f 202 161 200
f 162 201 159
f 162 203 201
f 202 164 161
f 204 164 202
f 165 203 162
f 165 205 203
f 207 206 167
f 167 206 166
f 167 164 204
f 167 204 207
f 168 209 208
f 205 168 208
f 165 168 205
f 209 210 208
f 206 169 166
f 211 169 206
f 170 212 209
f 170 209 168
f 210 209 213
f 213 209 212
f 211 172 169
f 214 172 211
f 173 212 170
f 173 175 212
f 175 213 212
f 175 215 213
f 214 177 172
f 216 177 214
f 179 217 180
f 218 181 180
f 218 180 217
f 218 183 181
f 184 215 175
f 184 219 215
f 216 185 177
f 220 185 216
f 187 221 186
f 217 179 186
f 221 217 186
f 222 217 221
f 224 218 223
f 218 222 223
f 218 217 222
f 224 226 225
f 224 225 188
f 218 224 188
f 183 218 188
f 225 227 188
f 227 184 188
f 227 219 184
f 220 190 185
f 228 190 220
f 230 229 221
f 187 230 221
f 191 230 187
f 221 229 222
f 222 229 231
f 222 231 223
f 225 226 232
f 232 226 233
f 227 225 234
f 234 225 232
f 192 190 235
f 190 236 235
f 190 228 236
f 230 191 237
f 191 235 237
f 235 238 237
f 191 192 235
f 238 239 237
f 242 241 240
f 242 240 233
f 240 232 233
f 240 243 232
f 234 232 244
f 244 232 243
f 235 236 245
f 245 236 246
f 248 238 247
f 238 245 247
f 238 235 245
f 238 248 239
f 241 249 240
f 240 249 243
f 243 249 250
f 243 250 244
f 245 246 251
f 251 246 252
f 247 245 253
f 253 245 251
f 256 255 254
f 256 254 252
f 254 251 252
f 254 257 251
f 253 251 258
f 258 251 257
f 255 259 254
f 254 259 257
f 257 259 260
f 257 260 258
f 261 195 196
f 261 196 262
f 196 263 262
f 196 197 263
f 265 263 264
f 263 198 264
f 263 197 198
f 199 264 198
f 267 266 261
f 266 195 261
f 266 200 195
f 267 261 262
f 268 265 264
f 264 199 268
f 199 269 268
f 199 201 269
f 266 202 200
f 270 202 266
f 203 269 201
f 203 271 269
f 270 204 202
f 272 204 270
f 205 271 203
f 205 273 271
f 274 206 207
f 275 274 207
f 204 275 207
f 272 275 204
f 276 273 205
f 276 205 208
f 208 210 276
f 276 210 277
f 278 211 274
f 274 211 206
f 274 275 279
f 274 279 278
f 213 277 210
f 213 280 277
f 281 214 278
f 278 214 211
f 278 279 282
f 278 282 281
f 215 280 213
f 215 283 280
f 284 216 281
f 281 216 214
f 281 282 285
f 281 285 284
f 219 287 286
f 283 219 286
f 215 219 283
f 287 288 286
f 289 220 284
f 284 220 216
f 284 285 290
f 284 290 289
f 223 291 224
f 291 226 224
f 227 292 287
f 227 287 219
f 288 287 293
f 293 287 292
f 294 228 289
f 289 228 220
f 229 230 295
f 290 296 289
f 294 289 296
f 297 231 229
f 297 229 295
f 291 223 231
f 297 291 231
f 298 291 297
f 298 233 226
f 298 226 291
f 300 299 292
f 227 300 292
f 234 300 227
f 292 299 293
f 302 301 294
f 301 228 294
f 301 236 228
f 230 237 295
f 294 296 302
f 295 237 239
f 303 295 239
f 297 295 303
f 303 241 242
f 298 303 242
f 297 303 298
f 298 242 233
f 244 300 234
f 244 304 300
f 301 246 236
f 305 246 301
f 247 306 248
f 306 307 248
f 248 307 239
f 307 308 239
f 308 303 239
f 308 310 309
f 308 309 249
f 303 308 249
f 241 303 249
f 249 309 311
f 312 249 311
f 250 249 312
f 244 250 304
f 304 250 312
f 305 252 246
f 313 252 305
f 315 314 306
f 247 315 306
f 253 315 247
f 306 314 307
f 310 316 309
f 309 316 311
f 318 317 256
f 256 317 255
f 256 252 313
f 256 313 318
f 258 320 319
f 315 258 319
f 253 258 315
f 320 321 319
f 259 255 322
f 255 323 322
f 255 317 323
f 324 260 259
f 324 259 322
f 324 325 260
f 260 325 258
f 325 326 258
f 326 320 258
f 320 326 321
f 323 327 322
f 322 327 324
f 324 327 328
f 324 328 325
f 329 262 263
f 265 329 263
f 330 266 267
f 331 330 267
f 331 267 262
f 332 331 262
f 329 332 262
f 334 332 333
f 333 332 268
f 332 329 268
f 329 265 268
f 269 333 268
f 335 270 330
f 330 270 266
f 330 331 336
f 330 336 335
f 337 334 333
f 333 269 337
f 269 338 337
f 269 271 338
f 340 339 335
f 339 270 335
f 339 272 270
f 340 335 336
f 273 338 271
f 273 341 338
f 343 275 342
f 275 339 342
f 275 272 339
f 344 343 342
f 345 341 273
f 345 273 276
f 276 277 345
f 345 277 346
f 348 347 343
f 347 275 343
f 347 279 275
f 348 343 344
f 280 346 277
f 280 349 346
f 347 282 279
f 350 282 347
f 283 349 280
f 283 351 349
f 350 285 282
f 352 285 350
f 353 351 283
f 353 283 286
f 286 288 353
f 353 288 354
f 352 290 285
f 355 290 352
f 293 354 288
f 293 356 354
f 355 296 290
f 357 296 355
f 300 358 299
f 358 359 299
f 359 293 299
f 359 356 293
f 361 360 302
f 302 360 301
f 302 296 357
f 302 357 361
f 363 362 358
f 300 363 358
f 304 363 300
f 358 362 359
f 360 305 301
f 364 305 360
f 307 365 308
f 365 310 308
f 311 366 312
f 366 367 312
f 367 304 312
f 367 363 304
f 370 369 368
f 364 370 368
f 313 364 368
f 305 364 313
f 315 371 314
f 365 307 314
f 371 365 314
f 372 365 371
f 365 372 310
f 372 373 310
f 373 316 310
f 372 374 373
f 311 316 366
f 316 375 366
f 316 373 375
f 366 375 367
f 368 369 318
f 369 317 318
f 369 376 317
f 368 318 313
f 319 371 315
f 372 371 377
f 371 321 377
f 321 378 377
f 321 371 319
f 372 377 374
f 376 323 317
f 379 323 376
f 381 380 326
f 381 326 325
f 321 326 378
f 378 326 380
f 379 382 323
f 323 382 327
f 327 383 328
f 382 383 327
f 325 328 381
f 381 328 383
f 384 331 332
f 334 384 332
f 386 385 384
f 385 331 384
f 385 336 331
f 386 384 334
f 337 386 334
f 387 386 337
f 337 338 387
f 387 338 388
f 389 339 340
f 390 389 340
f 336 390 340
f 385 390 336
f 341 388 338
f 341 391 388
f 389 342 339
f 344 342 389
f 390 344 389
f 392 344 390
f 341 345 393
f 394 341 393
f 391 341 394
f 346 393 345
f 395 347 348
f 396 395 348
f 344 396 348
f 392 396 344
f 397 394 393
f 393 346 397
f 346 398 397
f 346 349 398
f 399 350 395
f 395 350 347
f 395 396 400
f 395 400 399
f 351 398 349
f 351 401 398
f 403 402 399
f 402 350 399
f 402 352 350
f 403 399 400
f 404 401 351
f 404 351 353
f 353 354 404
f 404 354 405
f 402 355 352
f 406 355 402
f 356 405 354
f 356 407 405
f 406 357 355
f 408 357 406
f 359 407 356
f 359 409 407
f 411 410 361
f 361 410 360
f 361 357 408
f 361 408 411
f 413 412 362
f 413 362 363
f 359 362 409
f 409 362 412
f 410 364 360
f 414 364 410
f 367 413 363
f 367 415 413
f 417 416 370
f 370 416 369
f 370 364 414
f 370 414 417
f 374 418 373
f 373 418 419
f 420 373 419
f 375 373 420
f 367 375 415
f 415 375 420
f 416 376 369
f 421 376 416
f 378 422 377
f 422 423 377
f 377 423 374
f 423 424 374
f 424 418 374
f 418 424 419
f 427 426 425
f 421 427 425
f 379 421 425
f 376 421 379
f 381 428 380
f 428 429 380
f 380 429 378
f 429 430 378
f 430 422 378
f 422 430 423
f 426 431 425
f 425 431 379
f 431 382 379
f 431 432 382
f 382 433 383
f 432 433 382
f 381 383 428
f 383 434 428
f 383 433 434
f 428 434 429
f 436 435 386
f 386 435 385
f 438 436 437
f 436 387 437
f 436 386 387
f 388 437 387
f 435 390 385
f 439 390 435
f 440 438 437
f 437 388 440
f 388 441 440
f 388 391 441
f 439 392 390
f 442 392 439
f 394 441 391
f 394 443 441
f 442 396 392
f 444 396 442
f 445 443 394
f 445 394 397
f 397 398 445
f 445 398 446
f 444 400 396
f 447 400 444
f 401 446 398
f 401 448 446
f 450 449 403
f 403 449 402
f 403 400 447
f 403 447 450
f 401 404 451
f 452 401 451
f 448 401 452
f 405 451 404
f 449 406 402
f 453 406 449
f 452 451 454
f 452 454 455
f 407 454 405
f 405 454 451
f 453 408 406
f 456 408 453
f 455 454 457
f 455 457 458
f 409 457 407
f 407 457 454
f 460 459 411
f 411 459 410
f 411 408 456
f 411 456 460
f 458 457 412
f 413 458 412
f 461 458 413
f 412 457 409
f 464 463 462
f 459 464 462
f 414 459 462
f 410 459 414
f 415 461 413
f 415 465 461
f 462 463 417
f 463 416 417
f 463 466 416
f 462 417 414
f 468 467 420
f 468 420 419
f 415 420 465
f 465 420 467
f 471 470 469
f 466 471 469
f 421 466 469
f 416 466 421
f 473 472 424
f 473 424 423
f 419 424 468
f 468 424 472
f 469 470 427
f 470 426 427
f 470 474 426
f 469 427 421
f 477 476 475
f 430 429 475
f 476 430 475
f 478 430 476
f 423 430 473
f 473 430 478
f 474 479 426
f 426 479 431
f 431 480 432
f 479 480 431
f 432 481 433
f 480 481 432
f 475 434 477
f 434 481 477
f 434 433 481
f 434 475 429
f 482 435 436
f 438 482 436
f 483 439 482
f 482 439 435
f 440 484 438
f 484 482 438
f 484 483 482
f 441 484 440
f 486 485 483
f 485 439 483
f 485 442 439
f 488 487 486
f 483 488 486
f 484 488 483
f 443 488 441
f 441 488 484
f 485 444 442
f 489 444 485
f 490 487 488
f 492 490 491
f 491 490 445
f 490 488 445
f 488 443 445
f 446 491 445
f 489 447 444
f 493 447 489
f 494 492 491
f 491 446 494
f 446 495 494
f 446 448 495
f 496 449 450
f 497 496 450
f 447 497 450
f 493 497 447
f 452 495 448
f 452 498 495
f 500 499 496
f 499 449 496
f 499 453 449
f 500 496 497
f 455 498 452
f 455 501 498
f 504 503 502
f 499 504 502
f 456 499 502
f 453 499 456
f 458 501 455
f 458 505 501
f 508 507 506
f 508 506 503
f 503 506 502
f 506 459 502
f 459 460 502
f 502 460 456
f 461 505 458
f 461 509 505
f 512 511 510
f 512 510 507
f 507 510 506
f 510 463 506
f 463 464 506
f 506 464 459
f 515 514 513
f 514 509 513
f 509 465 513
f 509 461 465
f 510 511 516
f 516 511 517
f 516 466 463
f 516 463 510
f 515 513 467
f 468 515 467
f 518 515 468
f 467 513 465
f 516 517 471
f 517 470 471
f 517 519 470
f 516 471 466
f 521 520 472
f 521 472 473
f 468 472 518
f 518 472 520
f 519 474 470
f 522 474 519
f 477 523 476
f 476 523 524
f 525 476 524
f 478 476 525
f 473 478 521
f 521 478 525
f 522 526 474
f 474 526 479
f 479 527 480
f 526 527 479
f 480 528 481
f 527 528 480
f 477 481 523
f 481 529 523
f 481 528 529
f 523 529 524
f 530 485 486
f 487 530 486
f 531 489 530
f 530 489 485
f 490 532 487
f 532 530 487
f 532 531 530
f 492 532 490
f 534 533 531
f 533 489 531
f 533 493 489
f 534 531 532
f 534 532 535
f 537 535 536
f 536 535 494
f 535 532 494
f 532 492 494
f 495 536 494
f 533 497 493
f 538 497 533
f 539 537 536
f 536 495 539
f 495 540 539
f 495 498 540
f 542 541 500
f 500 541 499
f 500 497 538
f 500 538 542
f 501 540 498
f 501 543 540
f 545 544 504
f 504 544 503
f 504 499 541
f 504 541 545
f 505 543 501
f 505 546 543
f 549 548 547
f 507 508 547
f 508 549 547
f 508 550 549
f 508 503 544
f 508 544 550
f 509 546 505
f 509 551 546
f 547 548 512
f 548 511 512
f 548 552 511
f 547 512 507
f 554 553 514
f 554 514 515
f 509 514 551
f 551 514 553
f 552 517 511
f 555 517 552
f 558 557 556
f 560 559 556
f 560 556 557
f 560 554 559
f 554 518 559
f 554 515 518
f 555 519 517
f 561 519 555
f 564 563 562
f 562 563 558
f 556 562 558
f 565 562 556
f 521 565 520
f 565 559 520
f 565 556 559
f 520 559 518
f 561 522 519
f 566 522 561
f 569 568 567
f 567 568 564
f 562 567 564
f 570 567 562
f 524 570 525
f 570 565 525
f 570 562 565
f 525 565 521
f 573 572 571
f 571 574 526
f 566 571 526
f 522 566 526
f 571 566 573
f 526 574 575
f 576 526 575
f 527 526 576
f 567 528 569
f 528 576 569
f 528 527 576
f 528 567 529
f 529 567 570
f 529 570 524
f 572 577 571
f 571 577 574
f 574 577 578
f 574 578 575
f 580 579 534
f 534 579 533
f 581 534 535
f 581 580 534
f 535 537 581
f 581 537 582
f 585 584 583
f 579 585 583
f 538 579 583
f 533 579 538
f 537 539 586
f 587 537 586
f 582 537 587
f 540 586 539
f 590 589 588
f 590 588 584
f 584 588 583
f 588 541 583
f 541 542 583
f 583 542 538
f 587 586 591
f 587 591 592
f 543 591 540
f 540 591 586
f 595 594 593
f 597 596 593
f 593 596 595
f 596 597 589
f 589 597 588
f 597 544 588
f 544 545 588
f 588 545 541
f 592 591 598
f 592 598 599
f 546 598 543
f 543 598 591
f 593 594 549
f 594 548 549
f 594 600 548
f 593 549 550
f 593 550 597
f 597 550 544
f 599 598 601
f 599 601 602
f 551 601 546
f 546 601 598
f 605 604 603
f 600 605 603
f 552 600 603
f 548 600 552
f 608 607 606
f 610 609 606
f 610 606 607
f 609 610 602
f 609 602 601
f 554 609 601
f 553 554 601
f 553 601 551
f 604 611 603
f 552 603 611
f 612 552 611
f 555 552 612
f 615 614 613
f 613 614 608
f 613 608 606
f 558 613 606
f 557 558 606
f 557 606 560
f 560 606 609
f 560 609 554
f 612 561 555
f 616 561 612
f 619 618 617
f 617 618 615
f 617 615 613
f 564 617 613
f 563 564 613
f 563 613 558
f 616 566 561
f 620 566 616
f 619 617 568
f 569 619 568
f 621 619 569
f 568 617 564
f 623 622 573
f 573 622 572
f 573 566 620
f 573 620 623
f 625 624 576
f 625 576 575
f 569 576 621
f 621 576 624
f 622 626 572
f 572 626 577
f 577 627 578
f 626 627 577
f 575 578 625
f 625 578 627
f 629 628 580
f 580 628 579
f 631 629 630
f 629 581 630
f 629 580 581
f 582 630 581
f 633 632 585
f 585 632 584
f 585 579 628
f 585 628 633
f 634 631 630
f 630 582 634
f 582 635 634
f 582 587 635
f 637 636 590
f 590 636 589
f 590 584 632
f 590 632 637
f 592 635 587
f 592 638 635
f 640 639 595
f 595 639 594
f 641 595 596
f 641 640 595
f 596 589 636
f 596 636 641
f 644 643 642
f 643 638 642
f 638 599 642
f 638 592 599
f 647 646 645
f 639 647 645
f 600 639 645
f 594 639 600
f 644 642 648
f 644 648 649
f 602 648 599
f 599 648 642
f 645 646 605
f 646 604 605
f 646 650 604
f 645 605 600
f 653 652 651
f 607 608 651
f 652 607 651
f 654 607 652
f 648 610 649
f 610 654 649
f 610 607 654
f 610 648 602
f 611 604 655
f 604 656 655
f 604 650 656
f 655 612 611
f 653 651 614
f 615 653 614
f 657 653 615
f 614 651 608
f 655 656 658
f 658 656 659
f 658 616 612
f 658 612 655
f 661 660 618
f 661 618 619
f 615 618 657
f 657 618 660
f 659 662 658
f 616 658 662
f 663 616 662
f 620 616 663
f 666 665 664
f 665 661 664
f 661 621 664
f 661 619 621
f 668 667 623
f 623 667 622
f 623 620 663
f 623 663 668
f 666 664 624
f 625 666 624
f 669 666 625
f 624 664 621
f 667 670 622
f 622 670 626
f 626 671 627
f 670 671 626
f 625 627 669
f 669 627 671
f 672 628 629
f 631 672 629
f 675 674 673
f 632 633 673
f 633 675 673
f 633 676 675
f 633 628 672
f 677 633 672
f 676 633 677
f 679 677 678
f 678 677 634
f 677 672 634
f 672 631 634
f 635 678 634
f 682 681 680
f 684 683 680
f 680 683 682
f 683 684 674
f 674 684 673
f 684 636 673
f 636 637 673
f 673 637 632
f 687 686 685
f 685 686 679
f 678 685 679
f 688 685 678
f 638 688 635
f 635 688 678
f 680 681 640
f 681 639 640
f 681 689 639
f 680 640 641
f 680 641 684
f 684 641 636
f 687 685 690
f 687 690 691
f 644 690 643
f 690 688 643
f 690 685 688
f 643 688 638
f 692 646 647
f 693 692 647
f 639 693 647
f 689 693 639
f 696 695 694
f 694 695 691
f 690 694 691
f 697 694 690
f 649 697 644
f 644 697 690
f 699 698 692
f 698 646 692
f 698 650 646
f 699 692 693
f 696 694 652
f 653 696 652
f 700 696 653
f 652 694 654
f 654 694 697
f 654 697 649
f 698 656 650
f 701 656 698
f 704 703 702
f 703 700 702
f 700 657 702
f 700 653 657
f 701 659 656
f 705 659 701
f 704 702 660
f 661 704 660
f 706 704 661
f 660 702 657
f 662 659 707
f 659 708 707
f 659 705 708
f 707 663 662
f 710 709 665
f 710 665 666
f 661 665 706
f 706 665 709
f 707 708 668
f 708 667 668
f 708 711 667
f 663 707 668
f 714 713 712
f 714 710 713
f 710 669 713
f 710 666 669
f 711 715 667
f 667 715 670
f 713 671 712
f 671 715 712
f 671 670 715
f 671 713 669
f 718 717 716
f 674 675 716
f 675 718 716
f 675 719 718
f 720 675 676
f 720 719 675
f 722 720 721
f 720 677 721
f 720 676 677
f 679 721 677
f 723 681 682
f 717 724 716
f 724 682 716
f 682 683 716
f 682 724 723
f 716 683 674
f 727 726 725
f 725 726 722
f 725 722 721
f 687 725 721
f 686 687 721
f 686 721 679
f 728 689 723
f 723 689 681
f 723 724 729
f 723 729 728
f 727 725 730
f 727 730 731
f 691 730 687
f 687 730 725
f 733 732 728
f 732 689 728
f 732 693 689
f 733 728 729
f 731 730 695
f 696 731 695
f 734 731 696
f 695 730 691
f 735 698 699
f 736 735 699
f 693 736 699
f 732 736 693
f 700 734 696
f 700 737 734
f 739 738 735
f 738 698 735
f 738 701 698
f 739 735 736
f 741 740 703
f 741 703 704
f 700 703 737
f 737 703 740
f 738 705 701
f 742 705 738
f 706 741 704
f 706 743 741
f 742 708 705
f 744 708 742
f 746 745 709
f 746 709 710
f 706 709 743
f 743 709 745
f 744 711 708
f 747 711 744
f 749 748 714
f 749 714 712
f 710 714 746
f 746 714 748
f 747 750 711
f 711 750 715
f 712 715 749
f 749 715 750
f 751 717 718
f 719 752 718
f 718 752 751
f 720 753 719
f 719 753 752
f 722 753 720
f 756 755 754
f 757 756 751
f 756 724 751
f 724 717 751
f 756 754 724
f 759 758 757
f 751 759 757
f 752 759 751
f 727 759 726
f 759 753 726
f 759 752 753
f 726 753 722
f 754 755 760
f 760 755 761
f 760 729 724
f 760 724 754
f 762 758 759
f 759 727 762
f 727 763 762
f 727 731 763
f 760 761 733
f 761 732 733
f 761 764 732
f 760 733 729
f 767 766 765
f 766 763 765
f 763 734 765
f 763 731 734
f 770 769 768
f 768 771 770
f 764 736 732
f 772 736 764
f 767 765 773
f 767 773 774
f 737 773 734
f 734 773 765
f 768 769 775
f 775 769 776
f 739 777 738
f 777 768 738
f 768 775 738
f 768 777 771
f 739 736 772
f 739 772 777
f 774 773 740
f 741 774 740
f 778 774 741
f 740 773 737
f 776 779 775
f 738 775 779
f 780 738 779
f 742 738 780
f 743 778 741
f 743 781 778
f 780 744 742
f 782 744 780
f 784 783 745
f 784 745 746
f 743 745 781
f 781 745 783
f 782 747 744
f 785 747 782
f 787 786 748
f 787 748 749
f 746 748 784
f 784 748 786
f 785 788 747
f 747 788 750
f 749 750 787
f 787 750 788
f 789 755 756
f 757 790 756
f 756 790 789
f 758 790 757
f 793 792 791
f 794 793 789
f 793 761 789
f 761 755 789
f 793 791 761
f 794 789 790
f 794 790 795
f 797 795 796
f 796 795 762
f 795 790 762
f 790 758 762
f 763 796 762
f 800 799 798
f 800 798 792
f 798 791 792
f 798 801 791
f 801 764 761
f 801 761 791
f 797 796 766
f 767 797 766
f 802 797 767
f 766 796 763
f 798 799 770
f 799 769 770
f 799 803 769
f 798 770 771
f 804 798 771
f 801 798 804
f 804 772 764
f 804 764 801
f 774 802 767
f 774 805 802
f 807 776 806
f 776 803 806
f 776 769 803
f 771 777 804
f 806 808 807
f 809 807 808
f 777 772 804
f 809 808 810
f 778 805 774
f 778 811 805
f 807 779 776
f 807 809 812
f 780 807 812
f 813 780 812
f 807 780 779
f 812 809 810
f 781 811 778
f 781 814 811
f 813 782 780
f 815 782 813
f 817 816 783
f 817 783 784
f 781 783 814
f 814 783 816
f 815 785 782
f 818 785 815
f 787 819 786
f 819 820 786
f 820 784 786
f 820 817 784
f 818 821 785
f 785 821 788
f 787 788 819
f 788 822 819
f 788 821 822
f 819 822 820
f 825 824 823
f 823 826 825
f 829 828 827
f 829 827 824
f 827 823 824
f 827 830 823
f 826 823 831
f 823 832 831
f 823 830 832
f 832 833 831
f 828 834 827
f 827 834 830
f 830 834 835
f 837 836 835
f 836 830 835
f 836 832 830
f 833 832 838
f 832 839 838
f 832 836 839
f 839 840 838
f 842 841 793
f 793 841 792
f 843 793 794
f 843 842 793
f 795 836 837
f 843 795 837
f 794 795 843
f 839 836 844
f 836 797 844
f 797 845 844
f 797 836 795
f 839 844 840
f 847 846 800
f 800 846 799
f 800 792 841
f 800 841 847
f 802 845 797
f 802 848 845
f 846 803 799
f 849 803 846
f 805 848 802
f 805 850 848
f 849 851 803
f 803 851 806
f 806 852 808
f 851 852 806
f 810 808 852
f 810 852 853
f 811 850 805
f 811 854 850
f 856 855 812
f 812 855 813
f 812 810 853
f 812 853 856
f 814 854 811
f 814 857 854
f 855 815 813
f 858 815 855
f 860 859 816
f 860 816 817
f 814 816 857
f 857 816 859
f 858 818 815
f 861 818 858
f 820 860 817
f 820 862 860
f 861 863 818
f 818 863 821
f 821 864 822
f 863 864 821
f 820 822 862
f 862 822 864
f 865 824 825
f 826 865 825
f 867 866 829
f 829 866 828
f 829 824 865
f 868 829 865
f 867 829 868
f 868 865 826
f 831 868 826
f 869 868 831
f 831 833 869
f 869 833 870
f 873 872 871
f 871 874 834
f 866 871 834
f 828 866 834
f 871 866 873
f 875 835 834
f 875 834 874
f 875 837 835
f 876 870 833
f 876 833 838
f 838 840 876
f 876 840 877
f 872 878 871
f 879 841 842
f 871 879 842
f 874 871 842
f 878 879 871
f 874 842 843
f 874 843 875
f 875 843 837
f 881 880 844
f 881 844 845
f 840 844 877
f 877 844 880
f 882 846 847
f 883 882 847
f 841 883 847
f 879 883 841
f 848 881 845
f 848 884 881
f 887 886 885
f 889 888 885
f 885 888 887
f 890 888 882
f 888 849 882
f 849 846 882
f 888 889 849
f 890 882 883
f 850 884 848
f 850 891 884
f 886 892 885
f 894 893 892
f 893 885 892
f 893 889 885
f 889 893 849
f 893 895 849
f 895 851 849
f 893 896 895
f 851 897 852
f 895 897 851
f 853 852 897
f 853 897 898
f 854 891 850
f 854 899 891
f 894 900 893
f 893 900 896
f 901 855 856
f 902 901 856
f 853 902 856
f 898 902 853
f 857 899 854
f 857 903 899
f 905 904 901
f 904 855 901
f 904 858 855
f 905 901 902
f 907 906 859
f 907 859 860
f 857 859 903
f 903 859 906
f 904 861 858
f 908 861 904
f 862 907 860
f 862 909 907
f 908 910 861
f 861 910 863
f 863 911 864
f 910 911 863
f 862 864 909
f 909 864 911
f 912 866 867
f 912 867 913
f 867 914 913
f 867 868 914
f 916 914 915
f 914 869 915
f 914 868 869
f 870 915 869
f 918 917 873
f 873 917 872
f 873 866 912
f 919 873 912
f 918 873 919
f 919 912 913
f 920 916 915
f 922 920 921
f 921 920 876
f 920 915 876
f 915 870 876
f 877 921 876
f 925 924 923
f 923 926 878
f 917 923 878
f 872 917 878
f 923 917 925
f 926 879 878
f 922 921 880
f 881 922 880
f 927 922 881
f 880 921 877
f 930 929 928
f 931 923 924
f 928 932 930
f 923 931 926
f 926 931 933
f 879 926 933
f 934 879 933
f 883 879 934
f 884 927 881
f 884 935 927
f 928 929 887
f 929 886 887
f 929 936 886
f 887 888 928
f 888 937 928
f 937 932 928
f 888 938 937
f 890 939 888
f 888 939 938
f 940 939 890
f 883 940 890
f 934 940 883
f 891 935 884
f 891 941 935
f 944 943 942
f 942 945 892
f 936 942 892
f 886 936 892
f 942 936 944
f 938 946 937
f 894 892 945
f 896 947 895
f 947 938 895
f 938 939 895
f 947 946 938
f 940 948 939
f 948 895 939
f 948 897 895
f 898 897 948
f 898 948 949
f 899 941 891
f 899 950 941
f 942 943 951
f 951 943 952
f 942 953 945
f 942 951 953
f 945 953 894
f 953 954 894
f 954 900 894
f 953 955 954
f 896 900 947
f 947 900 954
f 949 902 898
f 956 902 949
f 903 950 899
f 903 957 950
f 952 958 951
f 951 958 953
f 953 958 959
f 953 959 955
f 960 904 905
f 961 960 905
f 902 961 905
f 956 961 902
f 963 962 906
f 963 906 907
f 903 906 957
f 957 906 962
f 964 908 960
f 960 908 904
f 960 961 965
f 960 965 964
f 909 963 907
f 909 966 963
f 964 910 908
f 965 967 964
f 967 910 964
f 967 911 910
f 909 911 966
f 966 911 967
f 968 913 914
f 916 968 914
f 969 917 918
f 969 918 970
f 918 971 970
f 918 919 971
f 919 913 968
f 972 919 968
f 971 919 972
f 972 968 916
f 920 972 916
f 973 972 920
f 920 922 973
f 973 922 974
f 976 975 925
f 925 975 924
f 925 917 969
f 977 925 969
f 976 925 977
f 977 969 970
f 927 974 922
f 927 978 974
f 980 979 930
f 930 979 929
f 975 931 924
f 931 975 981
f 980 981 975
f 981 980 932
f 930 932 980
f 982 933 931
f 982 931 981
f 982 934 933
f 935 978 927
f 935 983 978
f 986 985 984
f 979 986 984
f 936 979 984
f 929 979 936
f 988 987 981
f 932 988 981
f 937 988 932
f 981 987 982
f 982 987 989
f 934 982 989
f 990 934 989
f 940 934 990
f 941 983 935
f 941 991 983
f 984 985 944
f 985 943 944
f 985 992 943
f 936 984 944
f 995 994 993
f 996 994 946
f 994 988 946
f 988 937 946
f 988 994 995
f 947 996 946
f 990 997 940
f 940 997 948
f 999 998 949
f 948 999 949
f 997 999 948
f 1000 998 999
f 950 991 941
f 950 1001 991
f 992 952 943
f 1002 952 992
f 1003 993 994
f 1003 1005 1004
f 1005 1003 955
f 994 955 1003
f 955 994 954
f 996 954 994
f 996 947 954
f 1006 1004 1005
f 1007 956 998
f 998 956 949
f 998 1000 1008
f 998 1008 1007
f 957 1001 950
f 957 1009 1001
f 958 952 1010
f 952 1011 1010
f 952 1002 1011
f 1012 959 958
f 1012 958 1010
f 1012 1013 959
f 959 1013 955
f 1013 1014 955
f 1014 1005 955
f 1005 1014 1006
f 1016 1015 1007
f 1015 956 1007
f 1015 961 956
f 962 963 1017
f 1007 1008 1016
f 1017 1018 962
f 1018 957 962
f 1018 1009 957
f 1011 1019 1010
f 1010 1019 1012
f 1012 1019 1020
f 1012 1020 1013
f 1022 965 1021
f 965 1015 1021
f 965 961 1015
f 1021 1023 1017
f 966 1021 1017
f 963 966 1017
f 1022 1021 966
f 1017 1023 1018
f 1022 967 965
f 967 1022 966
f 1025 1024 971
f 971 1024 970
f 1026 971 972
f 1026 1025 971
f 1028 1026 1027
f 1026 973 1027
f 1026 972 973
f 974 1027 973
f 1029 975 976
f 1029 976 1030
f 976 1031 1030
f 976 977 1031
f 977 970 1024
f 977 1024 1031
f 1032 1028 1027
f 1027 974 1032
f 974 1033 1032
f 974 978 1033
f 1034 979 980
f 1035 1034 980
f 1035 980 975
f 1036 1035 975
f 1029 1036 975
f 1036 1029 1030
f 983 1033 978
f 983 1037 1033
f 1039 1038 986
f 986 1038 985
f 986 979 1034
f 1040 986 1034
f 1039 986 1040
f 987 988 1041
f 1034 1035 1040
f 1042 989 987
f 1042 987 1041
f 1042 990 989
f 991 1037 983
f 991 1043 1037
f 1046 1045 1044
f 1038 1046 1044
f 992 1038 1044
f 985 1038 992
f 1048 1047 995
f 1048 995 993
f 988 995 1041
f 995 1049 1041
f 995 1047 1049
f 1051 1050 1049
f 1050 1041 1049
f 1050 1042 1041
f 1052 997 990
f 1042 1052 990
f 1050 1052 1042
f 1053 999 997
f 1053 997 1052
f 1053 1000 999
f 1001 1043 991
f 1001 1054 1043
f 1044 1045 1055
f 1055 1045 1056
f 1055 1002 992
f 1055 992 1044
f 993 1003 1057
f 1058 993 1057
f 1048 993 1058
f 1057 1003 1059
f 1003 1060 1059
f 1003 1004 1060
f 1061 1050 1006
f 1050 1060 1006
f 1060 1004 1006
f 1050 1051 1060
f 1063 1052 1062
f 1052 1061 1062
f 1052 1050 1061
f 1052 1063 1053
f 1053 1063 1064
f 1008 1000 1053
f 1065 1008 1053
f 1064 1065 1053
f 1008 1065 1066
f 1065 1054 1066
f 1054 1009 1066
f 1054 1001 1009
f 1056 1067 1055
f 1011 1002 1055
f 1068 1011 1055
f 1067 1068 1055
f 1011 1068 1069
f 1069 1071 1070
f 1069 1057 1071
f 1069 1068 1058
f 1057 1069 1058
f 1014 1013 1072
f 1057 1059 1071
f 1072 1073 1014
f 1014 1073 1006
f 1073 1074 1006
f 1074 1061 1006
f 1061 1074 1062
f 1075 1015 1016
f 1008 1066 1016
f 1066 1075 1016
f 1066 1076 1075
f 1018 1076 1009
f 1009 1076 1066
f 1069 1019 1011
f 1070 1077 1069
f 1077 1019 1069
f 1077 1020 1019
f 1013 1020 1072
f 1020 1078 1072
f 1020 1077 1078
f 1072 1078 1073
f 1075 1021 1015
f 1021 1075 1023
f 1023 1075 1076
f 1023 1076 1018
f 1080 1079 1025
f 1025 1079 1024
f 1082 1080 1081
f 1080 1026 1081
f 1080 1025 1026
f 1028 1081 1026
f 1084 1083 1031
f 1031 1083 1030
f 1031 1024 1079
f 1031 1079 1084
f 1085 1082 1081
f 1087 1085 1086
f 1086 1085 1032
f 1085 1081 1032
f 1081 1028 1032
f 1033 1086 1032
f 1089 1088 1036
f 1036 1088 1035
f 1036 1030 1083
f 1036 1083 1089
f 1090 1087 1086
f 1086 1033 1090
f 1033 1091 1090
f 1033 1037 1091
f 1092 1038 1039
f 1092 1039 1093
f 1039 1094 1093
f 1039 1040 1094
f 1040 1035 1088
f 1040 1088 1094
f 1043 1091 1037
f 1043 1095 1091
f 1096 1045 1046
f 1097 1096 1046
f 1097 1046 1038
f 1098 1097 1038
f 1092 1098 1038
f 1047 1048 1099
f 1092 1093 1098
f 1100 1049 1047
f 1100 1047 1099
f 1100 1051 1049
f 1103 1102 1101
f 1102 1095 1101
f 1095 1054 1101
f 1095 1043 1054
f 1104 1056 1096
f 1096 1056 1045
f 1096 1097 1105
f 1096 1105 1104
f 1107 1106 1099
f 1048 1107 1099
f 1058 1107 1048
f 1108 1059 1060
f 1099 1108 1060
f 1100 1099 1060
f 1106 1108 1099
f 1100 1060 1051
f 1062 1109 1063
f 1063 1109 1110
f 1111 1063 1110
f 1064 1063 1111
f 1101 1065 1103
f 1065 1111 1103
f 1065 1064 1111
f 1065 1101 1054
f 1104 1067 1056
f 1105 1112 1104
f 1112 1067 1104
f 1112 1068 1067
f 1113 1070 1071
f 1107 1058 1112
f 1068 1112 1058
f 1059 1108 1114
f 1113 1059 1114
f 1115 1113 1114
f 1071 1059 1113
f 1074 1073 1115
f 1114 1074 1115
f 1116 1074 1114
f 1062 1074 1109
f 1074 1117 1109
f 1074 1116 1117
f 1109 1117 1110
f 1113 1077 1070
f 1077 1113 1078
f 1078 1113 1115
f 1078 1115 1073
f 1118 1079 1080
f 1082 1118 1080
f 1120 1119 1084
f 1084 1119 1083
f 1084 1079 1118
f 1121 1084 1118
f 1120 1084 1121
f 1123 1121 1122
f 1122 1121 1085
f 1121 1118 1085
f 1118 1082 1085
f 1087 1122 1085
f 1124 1088 1089
f 1125 1124 1089
f 1083 1125 1089
f 1119 1125 1083
f 1126 1123 1122
f 1128 1126 1127
f 1127 1126 1090
f 1126 1122 1090
f 1122 1087 1090
f 1091 1127 1090
f 1129 1093 1094
f 1088 1124 1094
f 1124 1129 1094
f 1124 1130 1129
f 1124 1125 1131
f 1124 1131 1130
f 1128 1127 1132
f 1128 1132 1133
f 1095 1132 1091
f 1091 1132 1127
f 1134 1097 1098
f 1093 1129 1098
f 1129 1134 1098
f 1129 1135 1134
f 1136 1129 1130
f 1135 1129 1136
f 1130 1131 1137
f 1130 1137 1136
f 1133 1132 1102
f 1103 1133 1102
f 1138 1133 1103
f 1102 1132 1095
f 1139 1105 1134
f 1134 1105 1097
f 1107 1139 1106
f 1139 1135 1106
f 1139 1134 1135
f 1106 1135 1108
f 1135 1140 1108
f 1135 1136 1140
f 1136 1137 1141
f 1142 1136 1141
f 1140 1136 1142
f 1144 1143 1142
f 1144 1142 1141
f 1111 1110 1143
f 1144 1111 1143
f 1145 1111 1144
f 1103 1111 1138
f 1138 1111 1145
f 1139 1112 1105
f 1112 1139 1107
f 1140 1114 1108
f 1114 1140 1116
f 1116 1140 1142
f 1116 1142 1117
f 1117 1142 1143
f 1117 1143 1110
f 1146 1119 1120
f 1121 1147 1120
f 1120 1147 1146
f 1123 1147 1121
f 1148 1125 1146
f 1146 1125 1119
f 1149 1146 1147
f 1148 1146 1149
f 1126 1150 1123
f 1150 1147 1123
f 1150 1149 1147
f 1128 1150 1126
f 1152 1151 1148
f 1151 1125 1148
f 1151 1131 1125
f 1152 1148 1149
f 1152 1149 1153
f 1155 1154 1153
f 1149 1155 1153
f 1150 1155 1149
f 1133 1155 1128
f 1128 1155 1150
f 1151 1137 1131
f 1156 1137 1151
f 1154 1155 1157
f 1154 1157 1158
f 1138 1157 1133
f 1133 1157 1155
f 1156 1159 1137
f 1137 1159 1141
f 1141 1160 1144
f 1159 1160 1141
f 1157 1145 1158
f 1145 1160 1158
f 1145 1144 1160
f 1145 1157 1138
f 1161 1151 1152
f 1153 1162 1152
f 1152 1162 1161
f 1154 1162 1153
f 1163 1156 1161
f 1161 1156 1151
f 1164 1161 1162
f 1163 1161 1164
f 1158 1164 1154
f 1154 1164 1162
f 1163 1159 1156
f 1159 1163 1160
f 1160 1163 1164
f 1160 1164 1158
