v 17.1 -10.0 -16.0
v 18.0 -10.0 -16.9
v 18.0 -10.4 -16.0
v 18.0 -10.1 -15.0
v 17.9 -10.0 -15.0
v 18.0 -10.0 -14.9
v 17.7 -9.0 -16.0
v 18.0 -9.0 -16.4
v 17.8 -9.0 -15.0
v 18.0 -9.0 -14.7
v 18.0 -8.7 -16.0
v 18.0 -8.7 -15.0
v 19.0 -10.0 -16.2
v 19.0 -10.1 -16.0
v 18.2 -10.0 -15.0
v 19.0 -10.0 -15.8
v 19.0 -9.0 -16.9
v 19.0 -9.6 -15.0
v 19.0 -9.2 -14.0
v 18.8 -9.0 -14.0
v 19.0 -9.0 -13.8
v 18.6 -8.0 -16.0
v 19.0 -8.0 -16.3
v 18.4 -8.0 -15.0
v 18.6 -8.0 -14.0
v 19.0 -8.0 -13.7
v 19.0 -7.5 -16.0
v 18.6 -7.0 -15.0
v 19.0 -7.0 -15.6
v 18.8 -7.0 -14.0
v 19.0 -7.0 -13.8
v 18.8 -6.0 -15.0
v 19.0 -6.0 -15.3
v 19.0 -6.0 -14.6
v 19.0 -6.6 -14.0
v 18.8 -5.0 -15.0
v 19.0 -5.0 -15.3
v 19.0 -5.0 -14.7
v 19.0 -4.0 -15.0
v 19.0 -4.0 -15.0
v 19.0 -4.0 -15.0
v 19.0 -4.0 -15.0
v 19.1 -10.0 -16.0
v 20.0 -9.0 -16.1
v 20.0 -9.1 -16.0
v 19.7 -9.0 -15.0
v 20.0 -9.0 -15.7
v 20.0 -9.0 -14.2
v 20.0 -9.0 -14.0
v 20.0 -9.0 -14.0
v 20.0 -8.0 -16.3
v 20.0 -8.8 -15.0
v 20.0 -8.0 -13.6
v 19.6 -7.0 -16.0
v 20.0 -7.0 -16.3
v 20.0 -7.0 -13.5
v 19.6 -6.0 -16.0
v 20.0 -6.0 -16.4
v 19.4 -6.0 -14.0
v 20.0 -6.0 -13.6
v 19.5 -5.0 -16.0
v 20.0 -5.0 -16.4
v 19.7 -5.0 -14.0
v 20.0 -5.0 -13.8
v 19.7 -4.0 -16.0
v 20.0 -4.0 -16.3
v 20.0 -4.7 -14.0
v 20.0 -4.0 -14.5
v 20.0 -3.6 -16.0
v 19.9 -3.0 -15.0
v 20.0 -3.0 -15.1
v 20.0 -3.0 -15.0
v 20.0 -3.0 -15.0
v 20.1 -9.0 -16.0
v 20.1 -9.0 -14.0
v 20.3 -8.0 -16.0
v 20.6 -8.0 -15.0
v 21.0 -8.0 -14.1
v 21.0 -8.1 -14.0
v 21.0 -8.0 -13.9
v 20.5 -7.0 -16.0
v 21.0 -7.0 -15.6
v 21.0 -7.6 -15.0
v 21.0 -7.0 -13.7
v 21.0 -6.0 -16.4
v 21.0 -6.6 -16.0
v 21.0 -6.0 -13.6
v 21.0 -5.0 -16.5
v 21.0 -5.0 -13.8
v 21.0 -4.0 -16.5
v 21.0 -4.7 -14.0
v 21.0 -4.0 -14.4
v 20.6 -3.0 -16.0
v 21.0 -3.0 -16.3
v 21.0 -3.0 -14.7
v 21.0 -2.7 -16.0
v 21.0 -2.7 -15.0
v 21.1 -8.0 -14.0
v 22.0 -7.0 -15.0
v 22.0 -7.0 -15.0
v 21.4 -7.0 -14.0
v 22.0 -7.0 -15.0
v 22.0 -6.0 -16.2
v 22.0 -6.3 -16.0
v 21.5 -6.0 -14.0
v 22.0 -6.0 -14.6
v 22.0 -5.0 -16.3
v 21.3 -5.0 -14.0
v 22.0 -5.0 -14.6
v 22.0 -4.0 -16.3
v 22.0 -4.0 -14.6
v 22.0 -3.0 -16.3
v 22.0 -3.0 -14.8
v 22.0 -2.4 -16.0
v 22.0 -2.8 -15.0
v 22.0 -7.0 -15.0
v 22.2 -6.0 -16.0
v 22.3 -6.0 -15.0
v 22.3 -5.0 -16.0
v 22.4 -5.0 -15.0
v 22.3 -4.0 -16.0
v 22.3 -4.0 -15.0
v 22.3 -3.0 -16.0
v 22.2 -3.0 -15.0
f 3 2 1
f 5 4 1
f 1 4 3
f 5 6 4
f 1 2 7
f 7 2 8
f 1 9 5
f 1 7 9
f 6 5 10
f 10 5 9
f 8 11 7
f 7 11 9
f 9 11 12
f 9 12 10
f 14 13 3
f 3 13 2
f 16 14 15
f 14 4 15
f 14 3 4
f 6 15 4
f 13 8 2
f 17 8 13
f 18 16 15
f 6 10 15
f 10 19 15
f 19 18 15
f 19 10 20
f 20 21 19
f 11 8 22
f 8 23 22
f 8 17 23
f 24 12 11
f 24 11 22
f 20 10 12
f 24 20 12
f 25 20 24
f 21 20 26
f 26 20 25
f 23 27 22
f 29 28 27
f 28 22 27
f 28 24 22
f 24 30 25
f 24 28 30
f 26 25 31
f 31 25 30
f 28 29 32
f 32 29 33
f 35 30 34
f 30 32 34
f 30 28 32
f 30 35 31
f 32 33 36
f 36 33 37
f 34 32 38
f 38 32 36
f 36 37 39
f 39 37 40
f 38 36 41
f 41 36 39
f 40 42 39
f 39 42 41
f 43 13 14
f 16 43 14
f 45 44 43
f 44 13 43
f 44 17 13
f 47 45 46
f 46 45 18
f 45 43 18
f 43 16 18
f 46 18 48
f 18 49 48
f 18 19 49
f 19 21 49
f 49 21 50
f 44 23 17
f 51 23 44
f 52 47 46
f 52 46 48
f 26 50 21
f 26 53 50
f 27 23 54
f 23 55 54
f 23 51 55
f 54 29 27
f 31 53 26
f 31 56 53
f 54 55 57
f 57 55 58
f 57 33 29
f 57 29 54
f 34 59 35
f 59 60 35
f 60 31 35
f 60 56 31
f 57 58 61
f 61 58 62
f 61 37 33
f 61 33 57
f 38 63 59
f 38 59 34
f 60 59 64
f 64 59 63
f 61 62 65
f 65 62 66
f 65 40 37
f 65 37 61
f 68 67 63
f 38 68 63
f 41 68 38
f 63 67 64
f 66 69 65
f 69 71 70
f 69 70 42
f 65 69 42
f 40 65 42
f 70 72 42
f 72 41 42
f 72 68 41
f 71 73 70
f 70 73 72
f 74 44 45
f 47 74 45
f 75 48 49
f 50 75 49
f 76 51 74
f 74 51 44
f 52 77 47
f 77 74 47
f 77 76 74
f 78 77 52
f 78 52 48
f 79 78 48
f 75 79 48
f 75 50 79
f 50 80 79
f 50 53 80
f 81 55 76
f 76 55 51
f 77 83 82
f 81 77 82
f 76 77 81
f 83 77 78
f 56 80 53
f 56 84 80
f 86 85 81
f 85 55 81
f 85 58 55
f 86 81 82
f 60 84 56
f 60 87 84
f 85 62 58
f 88 62 85
f 64 87 60
f 64 89 87
f 88 66 62
f 90 66 88
f 92 91 67
f 92 67 68
f 64 67 89
f 89 67 91
f 69 66 93
f 66 94 93
f 66 90 94
f 93 71 69
f 72 92 68
f 72 95 92
f 94 96 93
f 93 96 71
f 96 73 71
f 96 97 73
f 72 73 95
f 95 73 97
f 98 78 79
f 80 98 79
f 100 99 83
f 83 99 82
f 100 83 78
f 101 100 78
f 98 101 78
f 100 101 102
f 84 101 80
f 80 101 98
f 104 103 86
f 86 103 85
f 86 82 99
f 86 99 104
f 102 101 105
f 102 105 106
f 87 105 84
f 84 105 101
f 103 88 85
f 107 88 103
f 106 105 108
f 106 108 109
f 89 108 87
f 87 108 105
f 107 90 88
f 110 90 107
f 109 108 91
f 92 109 91
f 111 109 92
f 91 108 89
f 110 94 90
f 112 94 110
f 95 111 92
f 95 113 111
f 112 114 94
f 94 114 96
f 96 115 97
f 114 115 96
f 95 97 113
f 113 97 115
f 116 99 100
f 102 116 100
f 117 103 104
f 99 116 104
f 116 117 104
f 116 118 117
f 106 118 102
f 102 118 116
f 119 107 117
f 117 107 103
f 120 117 118
f 119 117 120
f 109 120 106
f 106 120 118
f 121 110 119
f 119 110 107
f 122 119 120
f 121 119 122
f 111 122 109
f 109 122 120
f 123 112 121
f 121 112 110
f 124 121 122
f 123 121 124
f 113 124 111
f 111 124 122
f 123 114 112
f 114 123 115
f 115 123 124
f 115 124 113
