v 30.0 60.0 -10.0
v 30.0 60.0 -10.0
v 30.0 60.0 -10.0
v 30.0 59.5 -9.0
v 29.2 60.0 -9.0
v 30.0 59.5 -8.0
v 29.6 60.0 -8.0
v 30.0 59.5 -7.0
v 29.9 60.0 -7.0
v 30.0 60.0 -6.9
v 30.0 60.0 -10.0
v 29.7 61.0 -9.0
v 30.0 61.0 -9.3
v 29.8 61.0 -8.0
v 30.0 61.0 -7.7
v 30.0 60.2 -7.0
v 30.0 61.2 -9.0
v 30.0 61.2 -8.0
v 30.0 62.0 6.0
v 30.0 62.0 6.0
v 30.0 61.9 6.0
v 30.0 61.9 7.0
v 29.9 62.0 7.0
v 30.0 62.0 7.1
v 30.0 62.1 6.0
v 30.0 63.0 7.0
v 30.0 63.0 7.0
v 30.0 63.0 7.0
v 30.0 63.0 7.0
v 30.9 57.0 -9.0
v 31.0 57.0 -9.1
v 31.0 56.9 -9.0
v 31.0 57.0 -8.8
v 30.7 58.0 -9.0
v 31.0 58.0 -9.4
v 31.0 57.8 -8.0
v 30.9 58.0 -8.0
v 31.0 58.0 -7.9
v 30.6 59.0 -9.0
v 31.0 59.0 -9.5
v 31.0 59.0 -8.4
v 31.0 58.3 -8.0
v 31.0 60.0 -10.2
v 31.0 59.6 -10.0
v 31.0 59.3 -8.0
v 31.0 59.9 -7.0
v 31.0 60.0 -7.0
v 31.0 60.3 -10.0
v 31.0 61.0 -9.4
v 31.0 60.1 -7.0
v 31.0 61.0 -7.7
v 30.9 61.0 6.0
v 31.0 61.0 5.9
v 31.0 60.9 6.0
v 31.0 61.0 6.2
v 31.0 61.4 -9.0
v 31.0 61.3 -8.0
v 31.0 62.0 5.6
v 31.0 61.5 7.0
v 31.0 62.0 7.4
v 30.5 63.0 6.0
v 31.0 63.0 5.7
v 31.0 63.0 7.4
v 30.9 64.0 6.0
v 31.0 64.0 5.9
v 31.0 63.5 7.0
v 31.0 64.0 6.1
v 31.0 65.0 6.0
v 31.0 65.0 6.0
v 31.0 65.0 6.0
v 31.0 65.0 6.0
v 31.9 56.0 -9.0
v 32.0 56.0 -9.2
v 32.0 55.9 -9.0
v 32.0 56.0 -8.9
v 31.6 57.0 -10.0
v 32.0 57.0 -10.4
v 32.0 56.6 -10.0
v 32.0 56.6 -8.0
v 31.6 57.0 -8.0
v 32.0 57.0 -7.6
v 31.5 58.0 -10.0
v 32.0 58.0 -10.4
v 32.0 58.0 -7.0
v 32.0 58.0 -7.0
v 32.0 58.0 -7.0
v 31.4 59.0 -10.0
v 32.0 59.0 -10.5
v 32.0 59.0 -8.0
v 32.0 59.0 -8.0
v 32.0 58.0 -7.0
v 32.0 60.0 -10.4
v 32.0 59.1 -8.0
v 31.1 60.0 -7.0
v 32.0 60.0 -7.6
v 32.0 60.5 -10.0
v 32.0 61.0 -9.4
v 31.4 61.0 -8.0
v 32.0 60.5 -8.0
v 32.0 61.0 -8.5
v 32.0 61.0 5.7
v 32.0 60.1 6.0
v 32.0 60.7 7.0
v 31.6 61.0 7.0
v 32.0 61.0 7.2
v 32.0 61.3 -9.0
v 32.0 62.0 5.6
v 32.0 62.0 7.5
v 32.0 63.0 5.7
v 32.0 63.0 7.4
v 32.0 63.6 6.0
v 31.3 64.0 6.0
v 31.6 64.0 7.0
v 32.0 64.0 6.4
v 32.0 64.0 7.3
v 32.0 65.0 5.5
v 32.0 64.3 6.0
v 31.6 65.0 7.0
v 32.0 65.0 7.3
v 31.5 66.0 5.0
v 32.0 66.0 4.8
v 32.0 65.8 5.0
v 31.5 66.0 6.0
v 31.8 66.0 7.0
v 32.0 66.0 7.2
v 32.0 66.2 5.0
v 32.0 66.4 6.0
v 32.0 66.2 7.0
v 32.5 56.0 -10.0
v 33.0 56.0 -10.7
v 33.0 55.5 -10.0
v 33.0 55.5 -9.0
v 33.0 56.0 -8.5
v 32.9 57.0 -12.0
v 33.0 57.0 -12.1
v 33.0 56.9 -12.0
v 33.0 56.3 -11.0
v 32.6 57.0 -11.0
v 33.0 56.5 -8.0
v 33.0 57.0 -7.5
v 33.0 57.1 -12.0
v 33.0 57.8 -11.0
v 33.0 58.0 -10.9
v 33.0 57.7 -7.0
v 33.0 58.0 -6.8
v 32.8 59.0 -11.0
v 33.0 59.0 -11.1
v 33.0 58.4 -11.0
v 32.0 59.0 -8.0
v 33.0 59.0 -7.4
v 33.0 58.4 -7.0
v 33.0 59.2 -11.0
v 33.0 60.0 -10.5
v 33.0 60.0 -7.7
v 33.0 60.5 -10.0
v 33.0 61.0 -9.5
v 33.0 60.4 -8.0
v 33.0 61.0 -8.6
v 32.5 61.0 6.0
v 33.0 61.0 6.6
v 33.0 60.7 7.0
v 33.0 61.0 7.2
v 33.0 62.0 -9.0
v 33.0 62.0 -9.0
v 33.0 62.0 -9.0
v 32.5 62.0 6.0
v 33.0 62.0 6.5
v 33.0 62.0 7.4
v 33.0 62.0 -9.0
v 32.4 63.0 6.0
v 33.0 63.0 6.6
v 33.0 63.0 7.4
v 33.0 64.0 6.5
v 33.0 64.0 7.4
v 33.0 65.0 5.5
v 33.0 64.5 6.0
v 33.0 65.0 7.5
v 32.9 66.0 4.0
v 33.0 66.0 3.9
v 33.0 65.9 4.0
v 33.0 65.7 5.0
v 33.0 66.0 7.3
v 33.0 66.1 4.0
v 33.0 66.2 5.0
v 33.0 66.4 6.0
v 33.0 66.2 7.0
v 33.7 55.0 -12.0
v 34.0 55.0 -12.4
v 34.0 54.7 -12.0
v 34.0 54.5 -11.0
v 33.1 55.0 -11.0
v 34.0 54.5 -10.0
v 33.4 55.0 -10.0
v 34.0 54.6 -9.0
v 33.6 55.0 -9.0
v 34.0 55.0 -8.6
v 33.7 56.0 -13.0
v 34.0 56.0 -13.2
v 34.0 55.6 -13.0
v 33.4 56.0 -12.0
v 33.2 56.0 -11.0
v 34.0 56.0 -8.2
v 33.7 57.0 -13.0
v 34.0 57.0 -13.2
v 34.0 56.3 -8.0
v 34.0 57.0 -7.5
v 34.0 57.3 -13.0
v 33.6 58.0 -12.0
v 34.0 58.0 -12.3
v 33.1 58.0 -11.0
v 34.0 57.7 -7.0
v 34.0 58.0 -6.8
v 34.0 58.4 -12.0
v 34.0 59.0 -11.5
v 33.9 59.0 -7.0
v 34.0 59.0 -6.9
v 34.0 59.6 -11.0
v 34.0 60.0 -10.6
v 33.5 60.0 -8.0
v 34.0 59.7 -8.0
v 34.0 60.0 -8.3
v 34.0 59.1 -7.0
v 34.0 60.8 -10.0
v 34.0 61.0 -9.8
v 34.0 61.0 -8.6
v 34.0 61.0 6.8
v 34.0 60.8 7.0
v 34.0 61.0 7.2
v 33.7 62.0 -10.0
v 34.0 62.0 -10.2
v 34.0 61.4 -10.0
v 34.0 62.0 -8.8
v 34.0 62.0 6.6
v 34.0 62.0 7.5
v 33.8 63.0 -10.0
v 34.0 63.0 -10.2
v 34.0 62.3 -9.0
v 34.0 63.0 -9.7
v 34.0 63.0 6.6
v 34.0 63.0 7.5
v 34.0 63.9 -10.0
v 33.9 64.0 -3.0
v 34.0 64.0 -3.2
v 34.0 63.8 -3.0
v 34.0 63.6 -2.0
v 33.8 64.0 -2.0
v 34.0 63.6 -1.0
v 33.6 64.0 -1.0
v 34.0 63.6 0.0
v 33.6 64.0 0.0
v 34.0 63.6 1.0
v 33.6 64.0 1.0
v 34.0 63.6 2.0
v 33.6 64.0 2.0
v 34.0 63.6 3.0
v 33.6 64.0 3.0
v 34.0 63.8 4.0
v 33.8 64.0 4.0
v 34.0 64.0 4.3
v 34.0 64.0 6.5
v 34.0 64.0 7.6
v 34.0 64.2 -3.0
v 34.0 64.5 -2.0
v 33.6 65.0 -1.0
v 34.0 65.0 -1.6
v 33.4 65.0 0.0
v 33.5 65.0 1.0
v 33.5 65.0 2.0
v 33.5 65.0 3.0
v 33.5 65.0 4.0
v 34.0 65.0 4.7
v 34.0 65.0 5.3
v 34.0 64.5 6.0
v 34.0 64.8 8.0
v 33.9 65.0 8.0
v 34.0 65.0 8.1
v 33.9 66.0 -12.0
v 34.0 66.0 -12.1
v 34.0 65.8 -12.0
v 34.0 66.0 -11.7
v 33.9 66.0 -7.0
v 34.0 66.0 -7.6
v 34.0 65.7 -7.0
v 34.0 66.0 -6.9
v 33.8 66.0 -1.0
v 34.0 66.0 -1.2
v 33.2 66.0 0.0
v 33.6 66.0 1.0
v 33.6 66.0 2.0
v 33.5 66.0 3.0
v 34.0 66.0 4.8
v 33.6 66.0 5.0
v 34.0 66.0 5.3
v 33.6 66.0 7.0
v 34.0 65.8 7.0
v 34.0 66.0 6.7
v 34.0 65.1 8.0
v 33.9 67.0 -12.0
v 34.0 67.0 -12.1
v 34.0 67.0 -11.0
v 34.0 66.1 -7.0
v 34.0 66.2 -1.0
v 34.0 66.4 0.0
v 34.0 66.4 1.0
v 34.0 66.3 2.0
v 34.0 66.4 3.0
v 34.0 66.4 4.0
v 34.0 66.3 6.0
v 34.0 67.1 -12.0
v 34.8 53.0 -10.0
v 35.0 53.0 -10.2
v 35.0 52.8 -10.0
v 35.0 52.5 -9.0
v 34.8 53.0 -9.0
v 35.0 53.0 -8.8
v 34.5 54.0 -10.0
v 35.0 54.0 -10.7
v 34.5 54.0 -9.0
v 35.0 53.7 -8.0
v 34.7 54.0 -8.0
v 35.0 54.0 -7.2
v 34.6 55.0 -13.0
v 35.0 55.0 -13.2
v 35.0 54.7 -13.0
v 35.0 54.4 -12.0
v 35.0 54.2 -11.0
v 34.4 55.0 -8.0
v 35.0 54.3 -7.0
v 34.8 55.0 -7.0
v 35.0 55.0 -6.8
v 34.7 55.0 -4.0
v 35.0 55.0 -4.3
v 35.0 54.6 -4.0
v 35.0 54.3 -3.0
v 34.7 55.0 -3.0
v 35.0 55.0 -2.7
v 35.0 56.0 -13.5
v 34.2 56.0 -8.0
v 34.7 56.0 -7.0
v 35.0 56.0 -6.7
v 34.8 56.0 -4.0
v 35.0 56.0 -4.3
v 34.7 56.0 -3.0
v 35.0 56.0 -2.6
v 35.0 57.0 -13.4
v 35.0 56.5 -7.0
v 35.0 57.0 -7.3
v 35.0 56.3 -4.0
v 35.0 56.5 -3.0
v 35.0 56.9 -2.0
v 34.9 57.0 -2.0
v 35.0 57.0 -2.1
v 35.0 57.0 -1.9
v 35.0 57.6 -13.0
v 35.0 58.0 -12.7
v 34.3 58.0 -7.0
v 35.0 58.0 -7.7
v 34.8 58.0 -2.0
v 35.0 58.0 -2.3
v 35.0 58.0 -1.7
v 35.0 58.7 -12.0
v 35.0 59.0 -11.8
v 34.2 59.0 -7.0
v 35.0 59.0 -7.4
v 34.7 59.0 -2.0
v 35.0 59.0 -2.5
v 35.0 58.7 -1.0
v 34.8 59.0 -1.0
v 35.0 59.0 -0.7
v 34.5 60.0 -11.0
v 35.0 60.0 -11.4
v 35.0 59.7 -8.0
v 35.0 60.0 -8.2
v 34.6 60.0 -2.0
v 35.0 60.0 -2.5
v 34.6 60.0 -1.0
v 35.0 60.0 -0.5
v 34.9 60.0 2.0
v 35.0 60.0 1.9
v 35.0 59.9 2.0
v 35.0 59.9 3.0
v 34.7 60.0 3.0
v 35.0 60.0 3.1
v 35.0 60.4 -11.0
v 34.2 61.0 -10.0
v 35.0 61.0 -10.5
v 35.0 61.0 -8.4
v 34.6 61.0 -2.0
v 35.0 61.0 -2.7
v 34.6 61.0 -1.0
v 35.0 61.0 -0.5
v 35.0 60.1 2.0
v 35.0 60.2 3.0
v 35.0 61.0 6.8
v 35.0 60.8 7.0
v 35.0 61.0 7.3
v 35.0 62.0 -10.5
v 35.0 62.0 -9.2
v 34.6 62.0 -9.0
v 35.0 61.8 -9.0
v 34.7 62.0 -4.0
v 35.0 62.0 -4.3
v 35.0 61.7 -4.0
v 35.0 61.3 -3.0
v 34.6 62.0 -3.0
v 34.5 62.0 -2.0
v 34.6 62.0 -1.0
v 35.0 62.0 -0.5
v 35.0 62.0 6.5
v 35.0 61.5 8.0
v 34.5 62.0 8.0
v 35.0 62.0 8.9
v 34.8 63.0 -11.0
v 35.0 63.0 -11.2
v 35.0 62.8 -11.0
v 35.0 63.0 -9.5
v 34.6 63.0 -4.0
v 35.0 63.0 -4.5
v 34.4 63.0 -3.0
v 34.4 63.0 -2.0
v 34.5 63.0 -1.0
v 35.0 63.0 -0.3
v 34.7 63.0 2.0
v 35.0 63.0 1.6
v 35.0 62.7 2.0
v 35.0 63.0 2.4
v 35.0 63.0 6.5
v 34.4 63.0 8.0
v 35.0 62.7 9.0
v 35.0 63.0 9.0
v 35.0 63.0 9.0
v 34.8 64.0 -13.0
v 35.0 64.0 -13.2
v 35.0 63.8 -13.0
v 35.0 63.6 -12.0
v 34.7 64.0 -12.0
v 34.9 64.0 -11.0
v 34.1 64.0 -10.0
v 35.0 64.0 -9.7
v 34.5 64.0 -4.0
v 35.0 64.0 -4.5
v 35.0 63.2 0.0
v 35.0 63.2 1.0
v 35.0 63.3 3.0
v 35.0 63.5 4.0
v 35.0 63.7 5.0
v 34.6 64.0 5.0
v 35.0 64.0 5.8
v 35.0 64.0 6.1
v 34.4 64.0 8.0
v 35.0 64.0 8.5
v 35.0 63.0 9.0
v 34.8 65.0 -13.0
v 35.0 65.0 -13.2
v 34.4 65.0 -12.0
v 34.2 65.0 -11.0
v 35.0 65.0 -10.4
v 35.0 64.5 -10.0
v 34.3 65.0 -4.0
v 35.0 65.0 -4.6
v 34.5 65.0 -3.0
v 34.5 65.0 -2.0
v 34.2 65.0 5.0
v 35.0 64.1 6.0
v 35.0 65.0 8.3
v 35.0 65.3 -13.0
v 35.0 66.0 -12.5
v 34.4 66.0 -11.0
v 35.0 66.0 -10.6
v 35.0 66.0 -7.2
v 35.0 65.8 -7.0
v 35.0 65.8 -6.0
v 34.8 66.0 -6.0
v 35.0 66.0 -5.4
v 35.0 65.4 -4.0
v 35.0 65.4 -3.0
v 35.0 65.4 -2.0
v 35.0 66.0 -1.3
v 34.7 66.0 2.0
v 35.0 65.8 2.0
v 35.0 66.0 1.7
v 35.0 66.0 2.3
v 34.2 66.0 5.0
v 34.5 66.0 7.0
v 35.0 66.0 7.2
v 35.0 65.4 8.0
v 35.0 67.0 -12.2
v 34.0 67.0 -11.0
v 35.0 67.0 -10.8
v 35.0 66.2 -7.0
v 35.0 66.2 -6.0
v 35.0 66.2 -1.0
v 35.0 66.4 0.0
v 35.0 66.3 1.0
v 35.0 66.3 3.0
v 35.0 66.4 4.0
v 35.0 66.4 5.0
v 35.0 66.4 6.0
v 35.0 66.2 7.0
v 35.0 67.2 -12.0
v 35.0 67.2 -11.0
v 36.0 53.0 -10.5
v 36.0 52.7 -10.0
v 35.4 53.0 -9.0
v 36.0 53.0 -9.5
v 35.6 54.0 -12.0
v 36.0 54.0 -12.5
v 36.0 53.6 -12.0
v 36.0 53.3 -11.0
v 35.3 54.0 -11.0
v 36.0 53.4 -9.0
v 35.4 54.0 -8.0
v 36.0 54.0 -8.3
v 35.8 54.0 -4.0
v 36.0 54.0 -4.2
v 36.0 53.9 -4.0
v 36.0 54.0 -3.4
v 36.0 55.0 -13.5
v 36.0 54.4 -13.0
v 36.0 54.3 -8.0
v 35.4 55.0 -7.0
v 36.0 55.0 -7.3
v 35.7 55.0 -5.0
v 36.0 55.0 -5.4
v 36.0 54.7 -5.0
v 36.0 54.1 -3.0
v 36.0 55.0 -2.3
v 36.0 56.0 -13.6
v 36.0 55.3 -7.0
v 36.0 55.5 -6.0
v 35.5 56.0 -6.0
v 35.4 56.0 -5.0
v 36.0 55.4 -2.0
v 35.6 56.0 -2.0
v 36.0 56.0 -1.7
v 36.0 57.0 -13.6
v 35.2 57.0 -7.0
v 35.5 57.0 -6.0
v 35.5 57.0 -5.0
v 35.4 57.0 -4.0
v 35.3 57.0 -3.0
v 36.0 57.0 -1.4
v 35.4 58.0 -13.0
v 36.0 58.0 -13.5
v 35.3 58.0 -7.0
v 35.5 58.0 -6.0
v 35.5 58.0 -5.0
v 35.5 58.0 -4.0
v 35.4 58.0 -3.0
v 36.0 58.0 -1.2
v 35.7 59.0 -13.0
v 36.0 59.0 -13.4
v 35.2 59.0 -12.0
v 35.3 59.0 -7.0
v 35.5 59.0 -6.0
v 35.5 59.0 -5.0
v 35.5 59.0 -4.0
v 35.4 59.0 -3.0
v 36.0 58.2 -1.0
v 36.0 58.7 0.0
v 35.7 59.0 0.0
v 36.0 59.0 0.5
v 36.0 59.4 -13.0
v 35.7 60.0 -12.0
v 36.0 60.0 -12.4
v 35.2 60.0 -8.0
v 35.5 60.0 -7.0
v 35.5 60.0 -6.0
v 35.5 60.0 -5.0
v 35.5 60.0 -4.0
v 35.4 60.0 -3.0
v 35.4 60.0 0.0
v 36.0 59.4 1.0
v 35.5 60.0 1.0
v 36.0 59.4 2.0
v 36.0 59.5 3.0
v 36.0 60.0 3.4
v 36.0 60.3 -12.0
v 36.0 60.7 -11.0
v 36.0 61.0 -10.7
v 35.4 61.0 -8.0
v 35.5 61.0 -7.0
v 35.5 61.0 -6.0
v 35.5 61.0 -5.0
v 35.4 61.0 -4.0
v 35.3 61.0 -3.0
v 35.4 61.0 0.0
v 35.5 61.0 1.0
v 35.4 61.0 2.0
v 35.6 61.0 3.0
v 36.0 61.0 3.3
v 36.0 61.0 6.9
v 36.0 60.9 7.0
v 36.0 61.0 7.1
v 36.0 62.0 -10.7
v 35.2 62.0 -9.0
v 35.6 62.0 -8.0
v 35.6 62.0 -7.0
v 35.5 62.0 -6.0
v 35.4 62.0 -5.0
v 35.4 62.0 0.0
v 35.5 62.0 1.0
v 35.5 62.0 2.0
v 36.0 62.0 2.8
v 36.0 61.7 3.0
v 35.8 62.0 6.0
v 36.0 62.0 5.9
v 36.0 61.8 6.0
v 36.0 61.5 8.0
v 36.0 62.0 8.6
v 35.9 63.0 -13.0
v 36.0 63.0 -13.1
v 36.0 62.9 -13.0
v 36.0 63.0 -12.7
v 36.0 63.0 -11.8
v 36.0 62.3 -11.0
v 36.0 62.7 -9.0
v 36.0 63.0 -9.2
v 36.0 62.5 -8.0
v 36.0 62.6 -7.0
v 35.7 63.0 -6.0
v 36.0 63.0 -6.5
v 35.4 63.0 -5.0
v 35.2 63.0 0.0
v 35.2 63.0 1.0
v 36.0 62.3 3.0
v 35.4 63.0 3.0
v 36.0 63.0 3.6
v 36.0 62.7 6.0
v 36.0 63.0 6.1
v 35.0 63.0 9.0
v 36.0 63.0 8.6
v 36.0 64.0 -13.4
v 36.0 63.1 -12.0
v 36.0 64.0 -9.4
v 36.0 63.7 -6.0
v 35.5 64.0 -5.0
v 36.0 64.0 -5.8
v 36.0 63.2 4.0
v 36.0 63.4 5.0
v 36.0 63.1 6.0
v 35.1 64.0 6.0
v 36.0 64.0 8.4
v 36.0 65.0 -13.3
v 35.5 65.0 -10.0
v 36.0 65.0 -9.7
v 35.6 65.0 -6.0
v 36.0 65.0 -6.5
v 36.0 64.3 -6.0
v 35.4 65.0 -5.0
v 35.8 65.0 -2.0
v 36.0 64.9 -2.0
v 36.0 65.0 -2.2
v 36.0 65.0 -1.8
v 36.0 65.0 8.2
v 36.0 65.3 -13.0
v 36.0 66.0 -12.3
v 36.0 65.4 -10.0
v 36.0 66.0 -10.6
v 36.0 66.0 -7.3
v 36.0 65.6 -7.0
v 36.0 65.6 -5.0
v 36.0 66.0 -5.5
v 36.0 65.5 -4.0
v 36.0 65.3 -3.0
v 35.3 66.0 -1.0
v 36.0 65.5 -1.0
v 35.5 66.0 0.0
v 36.0 65.6 0.0
v 35.4 66.0 1.0
v 36.0 65.6 1.0
v 36.0 65.5 2.0
v 35.4 66.0 3.0
v 36.0 65.6 3.0
v 35.6 66.0 4.0
v 36.0 65.7 4.0
v 36.0 66.0 4.5
v 35.3 66.0 7.0
v 36.0 65.6 7.0
v 36.0 66.0 6.4
v 36.0 65.2 8.0
v 36.0 66.3 -12.0
v 35.2 67.0 -12.0
v 35.2 67.0 -11.0
v 36.0 66.3 -11.0
v 36.0 66.2 -7.0
v 36.0 66.3 -6.0
v 36.0 66.3 5.0
v 36.0 66.3 6.0
v 36.7 53.0 -12.0
v 37.0 53.0 -12.4
v 37.0 52.7 -12.0
v 37.0 52.6 -11.0
v 36.4 53.0 -11.0
v 37.0 52.6 -10.0
v 37.0 53.0 -9.6
v 36.5 54.0 -13.0
v 37.0 54.0 -13.5
v 37.0 53.5 -13.0
v 37.0 53.6 -9.0
v 37.0 54.0 -8.6
v 37.0 54.0 -4.4
v 37.0 53.7 -4.0
v 37.0 53.8 -3.0
v 36.4 54.0 -3.0
v 37.0 54.0 -2.8
v 36.8 55.0 -14.0
v 37.0 55.0 -14.1
v 37.0 54.8 -14.0
v 37.0 54.5 -8.0
v 37.0 55.0 -7.4
v 37.0 55.0 -5.6
v 37.0 54.5 -5.0
v 37.0 54.8 -2.0
v 36.6 55.0 -2.0
v 37.0 55.0 -1.9
v 36.5 56.0 -14.0
v 37.0 56.0 -14.4
v 37.0 55.4 -7.0
v 37.0 55.3 -6.0
v 37.0 56.0 -1.5
v 36.5 57.0 -14.0
v 37.0 57.0 -14.5
v 37.0 56.9 -1.0
v 36.9 57.0 -1.0
v 37.0 57.0 -0.9
v 36.5 58.0 -14.0
v 37.0 58.0 -14.6
v 36.4 58.0 -1.0
v 37.0 58.0 -0.6
v 36.8 59.0 -15.0
v 37.0 59.0 -15.2
v 37.0 58.6 -15.0
v 36.4 59.0 -14.0
v 37.0 58.4 0.0
v 37.0 58.6 1.0
v 36.4 59.0 1.0
v 37.0 58.6 2.0
v 36.5 59.0 2.0
v 37.0 58.8 3.0
v 36.7 59.0 3.0
v 37.0 59.0 3.7
v 36.8 60.0 -15.0
v 37.0 60.0 -15.2
v 36.6 60.0 -14.0
v 36.5 60.0 -13.0
v 37.0 59.5 4.0
v 36.9 60.0 4.0
v 37.0 60.0 4.1
v 37.0 60.2 -15.0
v 37.0 60.4 -14.0
v 37.0 60.4 -13.0
v 37.0 60.5 -12.0
v 37.0 61.0 -11.0
v 37.0 61.0 -11.0
v 37.0 60.3 4.0
v 37.0 61.0 3.8
v 36.1 61.0 7.0
v 36.4 62.0 -11.0
v 37.0 62.0 -11.5
v 37.0 61.1 -11.0
v 36.2 62.0 3.0
v 37.0 61.3 4.0
v 36.7 62.0 4.0
v 37.0 62.0 4.8
v 37.0 62.0 5.2
v 37.0 61.5 6.0
v 37.0 61.4 7.0
v 37.0 61.5 8.0
v 37.0 62.0 9.0
v 37.0 62.0 9.0
v 37.0 62.0 9.0
v 37.0 63.0 -13.2
v 37.0 62.8 -13.0
v 37.0 62.4 -12.0
v 36.2 63.0 -12.0
v 36.2 63.0 -9.0
v 36.4 63.0 -8.0
v 36.3 63.0 -7.0
v 36.3 63.0 4.0
v 37.0 62.2 5.0
v 36.4 63.0 5.0
v 36.1 63.0 6.0
v 37.0 62.0 9.0
v 37.0 63.0 8.5
v 37.0 64.0 -13.3
v 36.4 64.0 -9.0
v 36.5 64.0 -8.0
v 36.5 64.0 -7.0
v 36.2 64.0 -6.0
v 36.6 64.0 8.0
v 37.0 63.6 8.0
v 37.0 64.0 7.6
v 37.0 64.4 -13.0
v 36.4 65.0 -13.0
v 37.0 65.0 -12.6
v 37.0 65.0 -9.0
v 37.0 65.0 -9.0
v 36.7 65.0 -8.0
v 37.0 65.0 -9.0
v 36.3 65.0 -7.0
v 36.6 65.0 -3.0
v 37.0 64.8 -3.0
v 37.0 65.0 -3.3
v 37.0 64.8 -2.0
v 37.0 65.0 -1.7
v 36.6 65.0 7.0
v 37.0 64.6 7.0
v 37.0 65.0 6.5
v 36.2 65.0 8.0
v 36.4 66.0 -12.0
v 37.0 65.5 -12.0
v 36.4 66.0 -11.0
v 37.0 65.6 -11.0
v 37.0 65.5 -10.0
v 36.8 66.0 -8.0
v 37.0 66.0 -8.5
v 37.0 65.6 -5.0
v 37.0 66.0 -5.7
v 37.0 65.4 -4.0
v 37.0 65.4 -1.0
v 37.0 65.5 0.0
v 37.0 65.5 1.0
v 37.0 65.5 2.0
v 37.0 65.5 3.0
v 37.0 65.5 4.0
v 36.4 66.0 5.0
v 37.0 65.6 5.0
v 36.3 66.0 6.0
v 37.0 65.4 6.0
v 37.0 66.1 -8.0
v 37.0 66.3 -7.0
v 37.0 66.2 -6.0
v 37.6 53.0 -13.0
v 38.0 53.0 -13.4
v 38.0 52.7 -13.0
v 38.0 52.5 -12.0
v 38.0 52.5 -11.0
v 38.0 52.6 -10.0
v 38.0 53.0 -9.6
v 37.7 54.0 -14.0
v 38.0 54.0 -14.2
v 38.0 53.7 -14.0
v 37.9 54.0 -9.0
v 38.0 54.0 -9.1
v 38.0 54.0 -4.1
v 38.0 53.9 -4.0
v 37.3 54.0 -3.0
v 38.0 54.0 -3.9
v 38.0 55.0 -14.1
v 38.0 54.1 -9.0
v 38.0 54.5 -8.0
v 38.0 55.0 -7.4
v 37.7 55.0 -6.0
v 38.0 55.0 -6.3
v 38.0 54.9 -6.0
v 38.0 54.5 -5.0
v 38.0 54.5 -3.0
v 37.2 55.0 -2.0
v 38.0 55.0 -2.5
v 38.0 56.0 -14.6
v 38.0 55.3 -7.0
v 37.7 56.0 -2.0
v 38.0 56.0 -2.2
v 37.6 57.0 -15.0
v 38.0 57.0 -15.3
v 38.0 56.6 -15.0
v 38.0 56.3 -2.0
v 37.1 57.0 -1.0
v 38.0 57.0 -1.5
v 37.4 58.0 -15.0
v 38.0 58.0 -15.4
v 37.6 58.0 -1.0
v 38.0 58.0 -1.2
v 38.0 59.0 -15.5
v 38.0 58.2 -1.0
v 38.0 58.5 0.0
v 38.0 58.5 1.0
v 38.0 58.6 2.0
v 37.3 59.0 3.0
v 38.0 59.0 2.5
v 38.0 60.0 -15.2
v 38.0 60.0 3.0
v 38.0 60.0 3.0
v 37.1 60.0 4.0
v 38.0 60.2 -15.0
v 38.0 60.5 -14.0
v 38.0 60.6 -13.0
v 38.0 60.9 -12.0
v 37.1 61.0 -11.0
v 38.0 61.0 -11.9
v 38.0 60.0 3.0
v 38.0 60.5 4.0
v 37.2 61.0 4.0
v 37.6 61.0 5.0
v 38.0 60.6 5.0
v 38.0 60.7 6.0
v 37.6 61.0 6.0
v 38.0 61.0 6.5
v 37.5 62.0 -12.0
v 38.0 62.0 -12.3
v 38.0 61.1 -12.0
v 37.1 62.0 5.0
v 38.0 61.3 7.0
v 38.0 61.5 8.0
v 38.0 62.0 9.0
v 38.0 62.0 9.0
v 37.3 63.0 -13.0
v 38.0 63.0 -12.6
v 38.0 62.0 9.0
v 38.0 63.0 8.5
v 37.4 64.0 -13.0
v 38.0 64.0 -12.6
v 38.0 63.5 8.0
v 38.0 64.0 7.4
v 38.0 65.0 -12.3
v 37.0 65.0 -9.0
v 38.0 64.7 -3.0
v 38.0 65.0 -3.6
v 37.7 65.0 -2.0
v 38.0 65.0 -2.2
v 37.5 65.0 6.0
v 38.0 64.7 6.0
v 38.0 65.0 5.5
v 38.0 64.3 7.0
v 38.0 65.2 -12.0
v 38.0 65.5 -11.0
v 38.0 65.5 -10.0
v 38.0 65.4 -9.0
v 38.0 65.1 -8.0
v 37.2 66.0 -8.0
v 37.4 66.0 -7.0
v 38.0 65.4 -7.0
v 37.3 66.0 -6.0
v 38.0 65.6 -6.0
v 38.0 65.5 -5.0
v 38.0 65.3 -4.0
v 38.0 65.1 -2.0
v 38.0 65.4 -1.0
v 38.0 65.4 0.0
v 38.0 65.4 1.0
v 38.0 65.5 2.0
v 38.0 65.5 3.0
v 38.0 65.5 4.0
v 38.0 65.3 5.0
v 38.6 53.0 -14.0
v 39.0 53.0 -14.3
v 39.0 52.8 -14.0
v 39.0 52.5 -13.0
v 39.0 52.5 -12.0
v 39.0 52.6 -11.0
v 39.0 52.8 -10.0
v 39.0 53.0 -9.7
v 39.0 54.0 -14.6
v 39.0 53.5 -9.0
v 38.1 54.0 -9.0
v 39.0 53.9 -8.0
v 38.9 54.0 -8.0
v 39.0 54.0 -7.9
v 38.1 54.0 -4.0
v 39.0 55.0 -14.6
v 39.0 55.0 -7.4
v 38.2 55.0 -6.0
v 38.5 55.0 -5.0
v 38.7 55.0 -4.0
v 39.0 54.9 -3.0
v 39.0 55.0 -3.2
v 39.0 55.0 -2.9
v 38.5 56.0 -15.0
v 39.0 56.0 -15.3
v 39.0 55.5 -15.0
v 39.0 55.3 -7.0
v 39.0 55.4 -6.0
v 39.0 55.4 -5.0
v 39.0 55.3 -4.0
v 39.0 56.0 -2.4
v 39.0 57.0 -15.5
v 39.0 56.6 -2.0
v 39.0 57.0 -1.7
v 39.0 58.0 -15.5
v 39.0 58.0 -1.4
v 39.0 59.0 -15.3
v 39.0 58.4 -1.0
v 39.0 58.5 0.0
v 39.0 58.5 1.0
v 39.0 58.6 2.0
v 39.0 59.0 2.5
v 39.0 59.5 -15.0
v 38.4 60.0 -15.0
v 39.0 60.0 -14.6
v 39.0 59.6 3.0
v 38.0 60.0 3.0
v 39.0 60.0 3.5
v 39.0 60.5 -14.0
v 38.6 61.0 -13.0
v 39.0 61.0 -13.4
v 38.1 61.0 -12.0
v 39.0 60.3 4.0
v 39.0 60.5 5.0
v 39.0 60.5 6.0
v 39.0 60.8 7.0
v 38.7 61.0 7.0
v 39.0 61.0 7.3
v 39.0 61.5 -13.0
v 39.0 62.0 -12.7
v 39.0 61.5 8.0
v 38.0 62.0 9.0
v 39.0 62.0 8.5
v 39.0 63.0 -12.5
v 39.0 63.0 8.3
v 39.0 64.0 -12.3
v 38.9 64.0 -4.0
v 39.0 63.9 -4.0
v 39.0 64.0 -4.1
v 39.0 64.0 -3.8
v 38.5 64.0 7.0
v 39.0 63.7 7.0
v 39.0 64.0 6.5
v 39.0 63.3 8.0
v 39.0 64.4 -12.0
v 38.4 65.0 -12.0
v 39.0 65.0 -11.4
v 38.7 65.0 -7.0
v 39.0 64.8 -7.0
v 39.0 65.0 -7.5
v 39.0 65.0 -6.6
v 38.3 65.0 -4.0
v 39.0 65.0 -4.7
v 39.0 64.3 -3.0
v 38.2 65.0 -2.0
v 39.0 64.6 -2.0
v 38.5 65.0 -1.0
v 39.0 64.6 -1.0
v 38.5 65.0 0.0
v 39.0 64.6 0.0
v 38.6 65.0 1.0
v 39.0 64.6 1.0
v 39.0 65.0 1.6
v 38.5 65.0 5.0
v 39.0 64.6 5.0
v 39.0 65.0 4.4
v 39.0 64.3 6.0
v 39.0 65.3 -11.0
v 39.0 65.4 -10.0
v 39.0 65.4 -9.0
v 39.0 65.2 -8.0
v 39.0 65.3 -6.0
v 39.0 65.2 -5.0
v 39.0 65.2 2.0
v 39.0 65.3 3.0
v 39.0 65.2 4.0
v 40.0 53.0 -14.5
v 40.0 52.5 -14.0
v 40.0 52.4 -13.0
v 40.0 52.6 -12.0
v 39.7 53.0 -11.0
v 40.0 53.0 -11.3
v 39.4 53.0 -10.0
v 39.7 54.0 -15.0
v 40.0 54.0 -15.2
v 40.0 53.7 -15.0
v 40.0 53.2 -11.0
v 40.0 53.4 -10.0
v 40.0 53.5 -9.0
v 39.1 54.0 -8.0
v 40.0 54.0 -8.4
v 39.4 55.0 -15.0
v 40.0 55.0 -15.4
v 40.0 54.4 -8.0
v 40.0 55.0 -7.3
v 39.1 55.0 -3.0
v 40.0 56.0 -15.4
v 40.0 55.3 -7.0
v 40.0 55.5 -6.0
v 40.0 55.6 -5.0
v 40.0 55.6 -4.0
v 40.0 55.6 -3.0
v 40.0 56.0 -2.6
v 40.0 57.0 -15.4
v 39.5 57.0 -2.0
v 40.0 57.0 -2.3
v 40.0 58.0 -15.4
v 40.0 57.5 -2.0
v 40.0 58.0 -1.5
v 40.0 58.8 -15.0
v 39.8 59.0 -15.0
v 40.0 59.0 -14.9
v 40.0 58.4 -1.0
v 40.0 58.5 0.0
v 40.0 58.5 1.0
v 40.0 58.7 2.0
v 40.0 59.0 2.3
v 40.0 60.0 -14.5
v 40.0 59.5 3.0
v 40.0 59.8 4.0
v 39.6 60.0 4.0
v 40.0 60.0 4.3
v 40.0 60.5 -14.0
v 40.0 61.0 -13.5
v 40.0 60.4 5.0
v 40.0 60.8 6.0
v 39.3 61.0 7.0
v 40.0 61.0 6.4
v 39.8 62.0 -13.0
v 40.0 62.0 -13.1
v 39.9 62.0 7.0
v 40.0 62.0 6.8
v 40.0 61.5 8.0
v 40.0 62.0 7.4
v 40.0 62.0 8.5
v 40.0 62.1 -13.0
v 40.0 63.0 -12.4
v 39.8 63.0 -4.0
v 40.0 62.9 -4.0
v 40.0 63.0 -4.3
v 40.0 63.0 -3.8
v 39.8 63.0 4.0
v 40.0 62.8 4.0
v 40.0 63.0 3.7
v 39.7 63.0 5.0
v 40.0 62.7 5.0
v 40.0 63.0 5.5
v 40.0 62.6 7.0
v 40.0 63.0 7.2
v 39.4 63.0 8.0
v 40.0 62.3 8.0
v 40.0 63.5 -12.0
v 39.4 64.0 -12.0
v 40.0 64.0 -11.4
v 39.6 64.0 -5.0
v 40.0 63.5 -5.0
v 40.0 64.0 -5.5
v 39.5 64.0 -3.0
v 40.0 63.5 -3.0
v 40.0 64.0 -2.4
v 39.6 64.0 1.0
v 40.0 63.7 1.0
v 40.0 64.0 0.5
v 39.6 64.0 2.0
v 40.0 63.6 2.0
v 39.6 64.0 3.0
v 40.0 63.6 3.0
v 39.5 64.0 4.0
v 39.4 64.0 5.0
v 40.0 63.3 6.0
v 39.3 64.0 6.0
v 40.0 63.1 7.0
v 39.3 65.0 -11.0
v 40.0 64.4 -11.0
v 39.5 65.0 -10.0
v 40.0 64.5 -10.0
v 39.4 65.0 -9.0
v 40.0 64.5 -9.0
v 39.2 65.0 -8.0
v 40.0 64.5 -8.0
v 40.0 64.4 -7.0
v 39.3 65.0 -6.0
v 40.0 64.4 -6.0
v 39.2 65.0 -5.0
v 40.0 64.3 -2.0
v 40.0 64.5 -1.0
v 40.0 64.3 0.0
v 39.2 65.0 2.0
v 39.3 65.0 3.0
v 39.2 65.0 4.0
v 40.7 52.0 -14.0
v 41.0 52.0 -14.2
v 41.0 51.8 -14.0
v 41.0 51.7 -13.0
v 40.6 52.0 -13.0
v 41.0 52.0 -12.6
v 41.0 53.0 -14.6
v 41.0 52.4 -12.0
v 41.0 53.0 -11.3
v 40.9 53.0 -9.0
v 41.0 53.0 -9.2
v 41.0 52.9 -9.0
v 41.0 53.0 -8.9
v 41.0 54.0 -15.4
v 41.0 53.5 -15.0
v 41.0 53.2 -11.0
v 41.0 53.3 -10.0
v 41.0 54.0 -8.3
v 41.0 55.0 -15.4
v 41.0 54.3 -8.0
v 41.0 54.8 -7.0
v 40.7 55.0 -7.0
v 41.0 55.0 -6.8
v 41.0 55.7 -15.0
v 40.6 56.0 -15.0
v 41.0 56.0 -14.8
v 41.0 55.8 -6.0
v 40.4 56.0 -5.0
v 41.0 56.0 -5.8
v 40.5 56.0 -4.0
v 40.9 56.0 -3.0
v 40.7 57.0 -15.0
v 41.0 57.0 -14.8
v 41.0 57.0 -6.0
v 41.0 56.9 -6.0
v 41.0 57.0 -6.0
v 40.7 57.0 -5.0
v 40.8 57.0 -4.0
v 41.0 57.0 -3.5
v 41.0 56.1 -3.0
v 41.0 57.0 -2.8
v 41.0 58.0 -15.4
v 41.0 57.4 -15.0
v 41.0 57.0 -6.0
v 41.0 57.4 -5.0
v 41.0 57.2 -4.0
v 40.6 58.0 -2.0
v 41.0 58.0 -2.4
v 40.2 59.0 -15.0
v 41.0 59.0 -15.4
v 41.0 58.3 -2.0
v 41.0 58.5 -1.0
v 41.0 58.6 0.0
v 41.0 58.7 1.0
v 40.4 59.0 2.0
v 41.0 59.0 1.4
v 40.9 60.0 -15.0
v 41.0 60.0 -15.1
v 41.0 59.5 2.0
v 40.8 60.0 3.0
v 41.0 60.0 2.8
v 41.0 60.0 3.6
v 41.0 59.9 4.0
v 41.0 60.0 4.1
v 41.0 60.1 -15.0
v 41.0 60.5 -14.0
v 40.7 61.0 -13.0
v 41.0 60.8 -13.0
v 41.0 61.0 -12.8
v 41.0 60.1 3.0
v 41.0 60.8 5.0
v 40.3 61.0 6.0
v 41.0 61.0 5.2
v 40.1 62.0 -13.0
v 41.0 62.0 -12.4
v 40.9 62.0 -5.0
v 41.0 61.9 -5.0
v 41.0 62.0 -5.2
v 41.0 62.0 -4.8
v 40.6 62.0 5.0
v 41.0 61.3 5.0
v 41.0 62.0 4.5
v 40.4 62.0 6.0
v 40.2 62.0 8.0
v 40.5 63.0 -12.0
v 41.0 62.4 -12.0
v 41.0 63.0 -11.4
v 40.4 63.0 -5.0
v 41.0 63.0 -5.7
v 41.0 62.3 -4.0
v 40.6 63.0 -3.0
v 41.0 62.7 -3.0
v 41.0 63.0 -2.5
v 40.8 63.0 1.0
v 41.0 62.9 1.0
v 41.0 63.0 0.7
v 41.0 63.0 1.3
v 41.0 62.4 4.0
v 41.0 63.0 3.3
v 40.2 63.0 6.0
v 40.1 63.0 7.0
v 40.4 64.0 -11.0
v 41.0 63.3 -11.0
v 40.5 64.0 -10.0
v 41.0 63.5 -10.0
v 40.5 64.0 -9.0
v 41.0 63.5 -9.0
v 40.5 64.0 -8.0
v 41.0 63.5 -8.0
v 40.5 64.0 -7.0
v 41.0 63.5 -7.0
v 40.4 64.0 -6.0
v 41.0 63.3 -6.0
v 40.4 64.0 -2.0
v 41.0 63.5 -2.0
v 41.0 64.0 -1.2
v 40.4 64.0 0.0
v 41.0 63.5 0.0
v 41.0 64.0 -0.8
v 41.0 63.3 2.0
v 41.0 63.2 3.0
v 41.0 64.1 -1.0
v 42.0 52.0 -14.3
v 42.0 51.7 -14.0
v 42.0 51.5 -13.0
v 42.0 51.7 -12.0
v 41.5 52.0 -12.0
v 42.0 52.0 -11.5
v 42.0 53.0 -14.6
v 42.0 52.4 -11.0
v 41.3 53.0 -11.0
v 42.0 52.6 -10.0
v 41.4 53.0 -10.0
v 42.0 52.6 -9.0
v 42.0 53.0 -8.6
v 42.0 54.0 -15.4
v 42.0 53.5 -15.0
v 42.0 53.6 -8.0
v 41.5 54.0 -8.0
v 42.0 54.0 -7.7
v 42.0 55.0 -15.4
v 42.0 55.0 -7.3
v 41.3 55.0 -7.0
v 42.0 55.7 -15.0
v 42.0 56.0 -14.8
v 42.0 55.4 -7.0
v 41.2 56.0 -6.0
v 42.0 56.0 -6.5
v 42.0 57.0 -14.8
v 42.0 57.0 -6.4
v 41.2 57.0 -3.0
v 42.0 58.0 -15.4
v 42.0 57.4 -15.0
v 42.0 57.4 -6.0
v 41.8 58.0 -5.0
v 42.0 58.0 -5.2
v 42.0 58.0 -4.5
v 42.0 57.9 -4.0
v 41.6 58.0 -3.0
v 42.0 58.0 -3.8
v 42.0 59.0 -15.3
v 42.0 58.1 -5.0
v 42.0 58.4 -3.0
v 42.0 58.5 -2.0
v 42.0 58.7 -1.0
v 41.6 59.0 0.0
v 42.0 59.0 -0.5
v 41.4 59.0 1.0
v 42.0 59.4 -15.0
v 41.1 60.0 -15.0
v 42.0 60.0 -14.4
v 42.0 59.3 0.0
v 42.0 59.5 1.0
v 41.6 60.0 2.0
v 42.0 60.0 1.7
v 41.1 60.0 4.0
v 42.0 60.3 -14.0
v 42.0 60.6 -13.0
v 42.0 61.0 -12.4
v 41.9 61.0 -5.0
v 42.0 60.9 -5.0
v 42.0 61.0 -5.1
v 42.0 61.0 -4.8
v 42.0 60.3 2.0
v 42.0 60.5 3.0
v 42.0 60.9 4.0
v 41.2 61.0 5.0
v 42.0 61.0 4.1
v 42.0 61.4 -12.0
v 41.4 62.0 -12.0
v 41.7 62.0 -11.0
v 42.0 61.7 -11.0
v 42.0 62.0 -10.4
v 41.8 62.0 -9.0
v 42.0 61.8 -9.0
v 42.0 62.0 -9.5
v 41.7 62.0 -8.0
v 42.0 61.7 -8.0
v 41.6 62.0 -7.0
v 42.0 61.6 -7.0
v 41.5 62.0 -6.0
v 42.0 61.5 -6.0
v 41.5 62.0 -4.0
v 42.0 61.5 -4.0
v 42.0 62.0 -3.4
v 41.5 62.0 4.0
v 42.0 61.2 4.0
v 42.0 62.0 3.4
v 41.3 63.0 -11.0
v 42.0 62.3 -10.0
v 41.5 63.0 -10.0
v 41.4 63.0 -9.0
v 41.4 63.0 -8.0
v 41.4 63.0 -7.0
v 41.2 63.0 -6.0
v 42.0 62.3 -3.0
v 41.4 63.0 -2.0
v 42.0 62.5 -2.0
v 41.6 63.0 -1.0
v 42.0 62.6 -1.0
v 41.4 63.0 0.0
v 42.0 62.5 0.0
v 42.0 62.4 1.0
v 41.4 63.0 2.0
v 42.0 62.5 2.0
v 41.3 63.0 3.0
v 42.0 62.3 3.0
v 41.1 64.0 -1.0
v 43.0 52.0 -14.4
v 43.0 51.6 -14.0
v 43.0 51.4 -13.0
v 43.0 51.4 -12.0
v 43.0 51.7 -11.0
v 42.6 52.0 -11.0
v 43.0 52.0 -10.6
v 43.0 53.0 -14.6
v 43.0 52.4 -10.0
v 43.0 52.5 -9.0
v 43.0 53.0 -8.4
v 43.0 54.0 -15.4
v 43.0 53.5 -15.0
v 43.0 53.4 -8.0
v 43.0 54.0 -7.5
v 43.0 55.0 -15.5
v 43.0 55.0 -7.3
v 42.3 56.0 -15.0
v 43.0 56.0 -15.4
v 43.0 55.4 -7.0
v 43.0 56.0 -6.6
v 42.4 57.0 -15.0
v 43.0 57.0 -15.4
v 43.0 57.0 -6.5
v 43.0 58.0 -15.3
v 43.0 57.5 -6.0
v 43.0 58.0 -5.5
v 42.1 58.0 -4.0
v 43.0 58.4 -15.0
v 42.4 59.0 -15.0
v 43.0 59.0 -14.5
v 43.0 58.4 -5.0
v 42.9 59.0 -4.0
v 43.0 59.0 -4.2
v 42.7 59.0 -3.0
v 43.0 59.0 -2.3
v 43.0 58.9 -2.0
v 42.5 59.0 -1.0
v 43.0 59.0 -1.7
v 42.4 60.0 -14.0
v 43.0 59.5 -14.0
v 43.0 60.0 -13.4
v 43.0 59.2 -4.0
v 43.0 59.3 -3.0
v 43.0 59.4 -1.0
v 43.0 59.6 0.0
v 43.0 59.8 1.0
v 43.0 60.0 1.3
v 43.0 60.3 -13.0
v 42.5 61.0 -12.0
v 43.0 60.6 -12.0
v 43.0 61.0 -11.4
v 43.0 60.6 -5.0
v 43.0 61.0 -5.7
v 42.5 61.0 -4.0
v 43.0 60.5 -4.0
v 43.0 61.0 -3.5
v 43.0 60.8 2.0
v 42.5 61.0 3.0
v 43.0 61.0 2.2
v 42.1 61.0 4.0
v 43.0 61.3 -11.0
v 42.3 62.0 -10.0
v 43.0 61.4 -10.0
v 43.0 61.4 -9.0
v 43.0 61.4 -8.0
v 43.0 61.4 -7.0
v 43.0 61.2 -6.0
v 42.3 62.0 -3.0
v 43.0 61.4 -3.0
v 42.6 62.0 -2.0
v 43.0 61.7 -2.0
v 43.0 62.0 -1.2
v 42.6 62.0 0.0
v 43.0 61.6 0.0
v 43.0 62.0 -0.8
v 42.5 62.0 1.0
v 43.0 61.4 1.0
v 42.5 62.0 2.0
v 43.0 61.2 2.0
v 42.3 62.0 3.0
v 43.0 62.1 -1.0
v 43.8 51.0 -13.0
v 44.0 51.0 -13.1
v 44.0 50.9 -13.0
v 44.0 50.8 -12.0
v 43.7 51.0 -12.0
v 44.0 51.0 -11.7
v 44.0 52.0 -14.3
v 44.0 51.7 -14.0
v 44.0 51.5 -11.0
v 44.0 52.0 -10.5
v 44.0 53.0 -14.6
v 44.0 52.4 -10.0
v 44.0 52.5 -9.0
v 44.0 53.0 -8.4
v 44.0 54.0 -15.4
v 44.0 53.5 -15.0
v 44.0 53.3 -8.0
v 44.0 53.9 -7.0
v 43.9 54.0 -7.0
v 44.0 54.0 -6.9
v 44.0 55.0 -15.5
v 43.4 55.0 -7.0
v 44.0 55.0 -6.6
v 44.0 56.0 -15.4
v 44.0 56.0 -6.6
v 44.0 57.0 -15.3
v 43.9 57.0 -7.0
v 44.0 56.9 -7.0
v 44.0 57.0 -7.1
v 44.0 57.4 -15.0
v 43.4 58.0 -15.0
v 44.0 58.0 -14.4
v 44.0 58.0 -10.0
v 44.0 58.0 -10.0
v 44.0 58.0 -10.0
v 43.8 58.0 -9.0
v 44.0 57.7 -9.0
v 43.9 58.0 -8.0
v 44.0 57.9 -8.0
v 44.0 57.2 -7.0
v 44.0 58.0 -7.8
v 44.0 57.7 -6.0
v 44.0 58.0 -5.7
v 43.4 59.0 -14.0
v 44.0 58.4 -14.0
v 43.7 59.0 -13.0
v 44.0 58.6 -13.0
v 44.0 59.0 -12.5
v 44.0 58.1 -10.0
v 44.0 58.4 -9.0
v 44.0 58.1 -8.0
v 44.0 58.6 -5.0
v 44.0 59.0 -4.2
v 43.2 59.0 -2.0
v 43.3 60.0 -13.0
v 44.0 59.5 -12.0
v 43.6 60.0 -12.0
v 44.0 60.0 -11.3
v 43.7 60.0 -10.0
v 44.0 59.5 -10.0
v 44.0 60.0 -10.7
v 43.7 60.0 -9.0
v 44.0 59.5 -9.0
v 44.0 60.0 -8.5
v 43.8 60.0 -6.0
v 44.0 59.7 -6.0
v 44.0 60.0 -6.4
v 44.0 60.0 -5.4
v 43.6 60.0 -4.0
v 44.0 60.0 -4.8
v 44.0 60.0 -3.2
v 44.0 59.9 -3.0
v 44.0 59.8 -2.0
v 43.5 60.0 -1.0
v 44.0 60.0 -1.7
v 43.4 60.0 0.0
v 43.2 60.0 1.0
v 43.3 61.0 -11.0
v 44.0 60.2 -11.0
v 43.4 61.0 -10.0
v 43.4 61.0 -9.0
v 44.0 60.3 -8.0
v 43.4 61.0 -8.0
v 43.4 61.0 -7.0
v 44.0 60.4 -7.0
v 43.2 61.0 -6.0
v 44.0 60.1 -5.0
v 43.5 61.0 -3.0
v 44.0 60.2 -3.0
v 44.0 61.0 -2.1
v 43.6 61.0 -1.0
v 44.0 61.0 -1.9
v 43.4 61.0 0.0
v 43.3 61.0 1.0
v 43.1 61.0 2.0
v 44.0 61.1 -2.0
v 43.1 62.0 -1.0
v 44.2 51.0 -13.0
v 45.0 51.0 -12.2
v 45.0 50.9 -12.0
v 45.0 51.0 -11.9
v 44.4 52.0 -14.0
v 45.0 52.0 -13.5
v 45.0 51.5 -13.0
v 45.0 51.6 -11.0
v 45.0 52.0 -10.6
v 45.0 53.0 -14.6
v 45.0 52.4 -14.0
v 45.0 52.4 -10.0
v 45.0 52.6 -9.0
v 45.0 53.0 -8.6
v 45.0 54.0 -15.4
v 45.0 53.4 -15.0
v 45.0 53.6 -8.0
v 44.1 54.0 -7.0
v 45.0 54.0 -7.6
v 45.0 55.0 -15.4
v 45.0 54.6 -7.0
v 45.0 55.0 -6.7
v 45.0 55.6 -15.0
v 44.6 56.0 -15.0
v 45.0 56.0 -14.6
v 45.0 56.0 -6.6
v 44.3 57.0 -15.0
v 45.0 57.0 -14.2
v 44.7 57.0 -13.0
v 45.0 56.7 -13.0
v 45.0 57.0 -13.7
v 44.7 57.0 -12.0
v 45.0 56.7 -12.0
v 45.0 57.0 -11.5
v 44.8 57.0 -9.0
v 45.0 56.9 -9.0
v 45.0 57.0 -9.3
v 45.0 57.0 -8.7
v 45.0 56.7 -7.0
v 45.0 57.0 -7.4
v 44.3 58.0 -14.0
v 45.0 57.1 -14.0
v 44.4 58.0 -13.0
v 44.5 58.0 -12.0
v 45.0 57.4 -11.0
v 44.5 58.0 -11.0
v 45.0 57.3 -10.0
v 45.0 57.3 -8.0
v 44.4 58.0 -7.0
v 44.3 58.0 -6.0
v 44.3 59.0 -12.0
v 44.4 59.0 -11.0
v 44.3 59.0 -10.0
v 44.3 59.0 -9.0
v 44.4 59.0 -8.0
v 44.5 59.0 -7.0
v 44.4 59.0 -6.0
v 44.3 59.0 -5.0
v 44.1 60.0 -11.0
v 44.3 60.0 -8.0
v 44.3 60.0 -7.0
v 44.1 60.0 -5.0
v 44.1 60.0 -3.0
v 44.2 60.0 -2.0
v 44.1 61.0 -2.0
v 45.1 51.0 -12.0
v 45.5 52.0 -13.0
v 46.0 52.0 -12.3
v 46.0 51.8 -12.0
v 45.5 52.0 -11.0
v 46.0 52.0 -11.8
v 45.9 53.0 -15.0
v 46.0 53.0 -15.1
v 46.0 52.9 -15.0
v 46.0 52.5 -14.0
v 46.0 52.4 -13.0
v 46.0 52.5 -11.0
v 46.0 52.8 -10.0
v 45.9 53.0 -9.0
v 46.0 53.0 -9.1
v 46.0 54.0 -15.3
v 45.9 54.0 -10.0
v 46.0 53.7 -10.0
v 46.0 54.0 -10.2
v 45.6 54.0 -9.0
v 45.3 54.0 -8.0
v 46.0 55.0 -15.2
v 46.0 54.3 -10.0
v 46.0 55.0 -9.5
v 45.7 55.0 -9.0
v 45.5 55.0 -8.0
v 45.3 55.0 -7.0
v 46.0 55.2 -15.0
v 45.6 56.0 -14.0
v 46.0 55.6 -14.0
v 46.0 56.0 -13.2
v 45.6 56.0 -12.0
v 46.0 55.6 -12.0
v 46.0 56.0 -12.8
v 45.7 56.0 -11.0
v 46.0 55.6 -11.0
v 46.0 56.0 -10.4
v 46.0 55.8 -9.0
v 46.0 56.0 -8.6
v 45.8 56.0 -8.0
v 46.0 56.0 -7.5
v 46.0 55.8 -7.0
v 46.0 56.0 -6.8
v 45.1 57.0 -14.0
v 46.0 56.1 -13.0
v 45.3 57.0 -11.0
v 46.0 56.3 -10.0
v 45.3 57.0 -10.0
v 46.0 56.2 -9.0
v 46.0 56.9 -8.0
v 46.0 57.0 -8.0
v 45.8 57.0 -7.0
v 46.0 57.0 -6.9
v 46.0 57.0 -8.0
v 46.0 57.0 -7.0
v 46.1 52.0 -12.0
v 46.1 53.0 -15.0
v 47.0 53.0 -14.1
v 47.0 52.9 -14.0
v 46.6 53.0 -13.0
v 47.0 53.0 -13.9
v 46.6 53.0 -12.0
v 46.4 53.0 -11.0
v 46.2 53.0 -10.0
v 46.4 54.0 -15.0
v 47.0 54.0 -14.3
v 47.0 53.6 -13.0
v 47.0 53.9 -12.0
v 47.0 54.0 -11.9
v 46.5 54.0 -11.0
v 46.2 55.0 -15.0
v 47.0 54.3 -14.0
v 46.5 55.0 -14.0
v 46.6 55.0 -13.0
v 47.0 54.3 -13.0
v 46.5 55.0 -12.0
v 47.0 54.1 -12.0
v 46.4 55.0 -11.0
v 46.3 55.0 -10.0
v 46.1 56.0 -13.0
v 46.2 56.0 -10.0
v 46.1 56.0 -9.0
v 46.4 56.0 -7.0
v 46.0 57.0 -8.0
v 46.1 57.0 -7.0
v 47.1 53.0 -14.0
v 47.2 54.0 -14.0
v 47.2 54.0 -13.0
v 47.1 54.0 -12.0
f 3 2 1
f 5 4 1
f 1 4 3
f 7 6 5
f 5 6 4
f 9 8 7
f 7 8 6
f 9 10 8
f 2 11 1
f 13 12 11
f 12 1 11
f 12 5 1
f 5 14 7
f 5 12 14
f 16 9 15
f 9 14 15
f 9 7 14
f 9 16 10
f 13 17 12
f 12 17 14
f 14 17 18
f 14 18 15
f 21 20 19
f 23 22 19
f 19 22 21
f 23 24 22
f 20 25 19
f 27 26 25
f 26 19 25
f 26 23 19
f 24 23 28
f 28 23 26
f 27 29 26
f 26 29 28
f 32 31 30
f 30 33 32
f 30 31 34
f 34 31 35
f 33 30 36
f 30 37 36
f 30 34 37
f 37 38 36
f 34 35 39
f 39 35 40
f 42 37 41
f 37 39 41
f 37 34 39
f 37 42 38
f 44 43 3
f 3 43 2
f 4 39 40
f 44 4 40
f 3 4 44
f 45 41 39
f 4 45 39
f 6 45 4
f 46 6 8
f 46 45 6
f 8 10 46
f 46 10 47
f 43 48 2
f 2 48 11
f 13 11 48
f 13 48 49
f 51 50 16
f 51 16 15
f 10 16 47
f 47 16 50
f 54 53 52
f 52 55 54
f 49 56 13
f 13 56 17
f 17 57 18
f 56 57 17
f 15 18 51
f 51 18 57
f 52 53 21
f 53 20 21
f 53 58 20
f 59 55 52
f 21 59 52
f 22 59 21
f 22 24 59
f 59 24 60
f 25 20 61
f 20 62 61
f 20 58 62
f 61 27 25
f 28 60 24
f 28 63 60
f 61 62 64
f 64 62 65
f 61 64 27
f 64 66 27
f 66 29 27
f 64 67 66
f 28 29 63
f 63 29 66
f 64 65 68
f 68 65 69
f 67 64 70
f 70 64 68
f 69 71 68
f 68 71 70
f 74 73 72
f 72 75 74
f 78 77 76
f 78 76 73
f 73 76 72
f 76 31 72
f 31 32 72
f 80 79 33
f 33 79 32
f 79 75 32
f 75 72 32
f 80 81 79
f 76 77 82
f 82 77 83
f 82 35 31
f 82 31 76
f 36 80 33
f 85 84 38
f 38 84 36
f 84 81 36
f 81 80 36
f 85 86 84
f 82 83 87
f 87 83 88
f 87 40 35
f 87 35 82
f 90 89 42
f 90 42 41
f 38 42 85
f 42 91 85
f 42 89 91
f 85 91 86
f 87 88 44
f 88 43 44
f 88 92 43
f 87 44 40
f 93 90 41
f 93 41 45
f 95 93 94
f 93 46 94
f 93 45 46
f 47 94 46
f 92 96 43
f 43 96 48
f 49 48 96
f 49 96 97
f 100 99 98
f 98 99 95
f 98 95 94
f 51 98 94
f 50 51 94
f 50 94 47
f 102 101 54
f 54 101 53
f 104 103 55
f 103 54 55
f 103 102 54
f 104 105 103
f 97 106 49
f 49 106 56
f 98 57 100
f 57 106 100
f 57 56 106
f 57 98 51
f 101 58 53
f 107 58 101
f 59 104 55
f 59 60 104
f 60 105 104
f 60 108 105
f 107 62 58
f 109 62 107
f 63 108 60
f 63 110 108
f 112 65 111
f 65 109 111
f 65 62 109
f 111 67 112
f 111 66 67
f 111 114 113
f 66 111 113
f 113 115 66
f 115 63 66
f 115 110 63
f 117 116 112
f 116 65 112
f 116 69 65
f 70 112 67
f 112 70 117
f 118 117 70
f 117 118 114
f 113 114 118
f 115 113 119
f 119 113 118
f 122 121 120
f 120 123 71
f 116 120 71
f 69 116 71
f 120 116 122
f 118 70 71
f 123 118 71
f 124 118 123
f 119 118 125
f 125 118 124
f 121 126 120
f 120 126 123
f 123 126 127
f 123 127 124
f 124 127 128
f 124 128 125
f 131 130 129
f 73 74 129
f 74 131 129
f 74 132 131
f 74 75 132
f 132 75 133
f 136 135 134
f 138 137 134
f 134 137 136
f 137 138 130
f 130 138 129
f 138 77 129
f 77 78 129
f 129 78 73
f 139 133 75
f 139 75 79
f 79 81 139
f 139 81 140
f 135 141 134
f 134 141 138
f 138 141 142
f 77 138 142
f 143 77 142
f 83 77 143
f 144 140 81
f 144 81 84
f 84 86 144
f 144 86 145
f 148 147 146
f 143 148 146
f 88 143 146
f 83 143 88
f 90 149 89
f 89 149 150
f 151 89 150
f 91 89 151
f 86 91 145
f 145 91 151
f 147 152 146
f 88 146 152
f 153 88 152
f 92 88 153
f 93 149 90
f 93 95 149
f 95 150 149
f 95 154 150
f 153 155 92
f 92 155 96
f 97 96 155
f 97 155 156
f 158 157 99
f 158 99 100
f 95 99 154
f 154 99 157
f 159 101 102
f 159 102 160
f 102 161 160
f 102 103 161
f 103 105 161
f 161 105 162
f 106 97 163
f 97 164 163
f 97 156 164
f 163 165 106
f 165 100 106
f 165 158 100
f 166 107 159
f 159 107 101
f 159 160 167
f 159 167 166
f 108 162 105
f 108 168 162
f 164 169 163
f 163 169 165
f 170 109 166
f 166 109 107
f 166 167 171
f 166 171 170
f 110 168 108
f 110 172 168
f 170 111 109
f 114 111 170
f 171 114 170
f 173 114 171
f 115 172 110
f 115 174 172
f 176 175 117
f 117 175 116
f 117 114 173
f 117 173 176
f 119 174 115
f 119 177 174
f 180 179 178
f 121 122 178
f 122 180 178
f 122 181 180
f 122 116 175
f 122 175 181
f 125 177 119
f 125 182 177
f 179 183 178
f 178 183 121
f 183 126 121
f 183 184 126
f 126 185 127
f 184 185 126
f 127 186 128
f 185 186 127
f 125 128 182
f 182 128 186
f 189 188 187
f 191 190 187
f 187 190 189
f 193 192 191
f 191 192 190
f 195 194 193
f 193 194 192
f 195 196 194
f 199 198 197
f 199 197 188
f 197 187 188
f 197 200 187
f 187 201 191
f 187 200 201
f 201 130 131
f 193 201 131
f 191 201 193
f 193 131 132
f 193 132 195
f 132 133 195
f 133 196 195
f 133 202 196
f 197 198 203
f 203 198 204
f 203 135 136
f 200 203 136
f 197 203 200
f 200 136 137
f 200 137 201
f 201 137 130
f 205 202 133
f 205 133 139
f 139 140 205
f 205 140 206
f 204 207 203
f 207 209 208
f 207 208 141
f 203 207 141
f 135 203 141
f 210 142 141
f 210 141 208
f 210 143 142
f 211 206 140
f 211 140 144
f 144 145 211
f 211 145 212
f 209 213 208
f 214 147 148
f 208 214 148
f 210 208 148
f 213 214 208
f 210 148 143
f 150 215 151
f 215 216 151
f 216 145 151
f 216 212 145
f 214 217 147
f 147 217 152
f 153 152 217
f 153 217 218
f 221 220 219
f 220 222 215
f 154 220 215
f 150 154 215
f 219 220 154
f 215 222 216
f 218 223 153
f 153 223 155
f 156 155 223
f 156 223 224
f 221 219 157
f 158 221 157
f 225 221 158
f 157 219 154
f 227 226 161
f 161 226 160
f 161 162 227
f 227 162 228
f 231 230 229
f 224 231 229
f 164 224 229
f 156 224 164
f 165 225 158
f 165 232 225
f 226 167 160
f 233 167 226
f 168 228 162
f 168 234 228
f 229 230 235
f 235 230 236
f 229 235 164
f 235 237 164
f 237 169 164
f 235 238 237
f 165 169 232
f 232 169 237
f 233 171 167
f 239 171 233
f 172 234 168
f 172 240 234
f 236 241 235
f 235 241 238
f 244 243 242
f 246 245 242
f 242 245 244
f 248 247 246
f 246 247 245
f 250 249 248
f 248 249 247
f 252 251 250
f 250 251 249
f 254 253 252
f 252 253 251
f 256 255 254
f 254 255 253
f 258 257 256
f 256 257 255
f 258 259 257
f 239 173 171
f 260 173 239
f 174 240 172
f 174 261 240
f 243 262 242
f 242 262 246
f 246 262 263
f 265 264 263
f 264 246 263
f 264 248 246
f 248 266 250
f 248 264 266
f 250 267 252
f 250 266 267
f 252 268 254
f 252 267 268
f 254 269 256
f 254 268 269
f 256 270 258
f 256 269 270
f 259 258 271
f 271 258 270
f 273 272 176
f 176 272 175
f 176 173 260
f 176 260 273
f 177 275 274
f 261 177 274
f 174 177 261
f 275 276 274
f 279 278 277
f 277 280 279
f 283 282 281
f 281 284 283
f 264 265 285
f 285 265 286
f 264 287 266
f 264 285 287
f 266 288 267
f 266 287 288
f 267 289 268
f 267 288 289
f 268 290 269
f 268 289 290
f 290 179 180
f 270 290 180
f 269 290 270
f 180 181 270
f 181 291 270
f 291 271 270
f 181 292 291
f 293 292 181
f 175 293 181
f 272 293 175
f 296 295 294
f 295 297 275
f 182 295 275
f 177 182 275
f 294 295 182
f 275 297 276
f 277 278 298
f 298 278 299
f 280 277 300
f 300 277 298
f 282 301 281
f 281 301 284
f 286 302 285
f 285 302 287
f 287 302 303
f 287 303 288
f 288 303 304
f 288 304 289
f 289 304 305
f 289 305 290
f 290 305 306
f 290 306 179
f 306 183 179
f 306 307 183
f 292 184 291
f 184 307 291
f 184 183 307
f 293 308 292
f 308 184 292
f 308 185 184
f 294 186 296
f 186 308 296
f 186 185 308
f 186 294 182
f 299 309 298
f 298 309 300
f 312 311 310
f 314 313 310
f 310 313 312
f 314 315 313
f 310 311 316
f 316 311 317
f 310 318 314
f 310 316 318
f 315 314 319
f 314 320 319
f 314 318 320
f 320 321 319
f 324 323 322
f 188 189 322
f 189 324 322
f 189 325 324
f 326 189 190
f 326 325 189
f 192 316 317
f 326 192 317
f 190 192 326
f 316 192 194
f 316 194 318
f 318 194 196
f 327 318 196
f 320 318 327
f 321 320 328
f 320 329 328
f 320 327 329
f 329 330 328
f 333 332 331
f 335 334 331
f 331 334 333
f 335 336 334
f 322 323 199
f 323 198 199
f 323 337 198
f 322 199 188
f 202 338 327
f 202 327 196
f 327 339 329
f 327 338 339
f 330 329 340
f 340 329 339
f 331 332 341
f 341 332 342
f 331 343 335
f 331 341 343
f 336 335 344
f 344 335 343
f 337 204 198
f 345 204 337
f 205 338 202
f 339 338 346
f 338 206 346
f 206 347 346
f 206 338 205
f 339 346 340
f 342 348 341
f 341 348 343
f 343 348 349
f 352 351 350
f 343 349 344
f 351 353 350
f 345 354 204
f 204 354 207
f 209 207 354
f 209 354 355
f 206 211 356
f 357 206 356
f 347 206 357
f 212 356 211
f 351 352 358
f 358 352 359
f 353 351 360
f 360 351 358
f 355 361 209
f 209 361 213
f 214 213 361
f 214 361 362
f 357 356 363
f 357 363 364
f 216 363 212
f 212 363 356
f 358 359 365
f 365 359 366
f 360 358 367
f 358 368 367
f 358 365 368
f 368 369 367
f 217 214 370
f 214 371 370
f 214 362 371
f 370 218 217
f 373 372 220
f 373 220 221
f 363 222 364
f 222 372 364
f 222 220 372
f 222 363 216
f 365 366 374
f 374 366 375
f 365 376 368
f 365 374 376
f 369 368 377
f 377 368 376
f 380 379 378
f 382 381 378
f 378 381 380
f 382 383 381
f 371 384 370
f 384 386 385
f 384 385 223
f 370 384 223
f 218 370 223
f 385 224 223
f 225 373 221
f 225 387 373
f 374 375 388
f 388 375 389
f 374 390 376
f 374 388 390
f 377 376 391
f 391 376 390
f 379 392 378
f 378 392 382
f 382 392 393
f 382 393 383
f 395 394 227
f 227 394 226
f 227 228 395
f 395 228 396
f 385 386 231
f 386 230 231
f 386 397 230
f 224 385 231
f 400 399 398
f 400 387 399
f 387 232 399
f 387 225 232
f 403 402 401
f 405 404 401
f 401 404 403
f 404 405 389
f 405 388 389
f 405 406 388
f 388 407 390
f 388 406 407
f 391 390 408
f 408 390 407
f 394 233 226
f 409 233 394
f 234 411 410
f 396 234 410
f 228 234 396
f 411 412 410
f 415 414 413
f 397 415 413
f 236 397 413
f 230 397 236
f 398 399 237
f 238 398 237
f 416 398 238
f 237 399 232
f 401 402 417
f 417 402 418
f 401 419 405
f 401 417 419
f 405 420 406
f 405 419 420
f 406 421 407
f 406 420 421
f 408 407 422
f 422 407 421
f 425 424 423
f 423 426 425
f 409 239 233
f 427 239 409
f 240 428 411
f 240 411 234
f 412 411 429
f 411 430 429
f 411 428 430
f 430 431 429
f 434 433 432
f 436 435 432
f 432 435 434
f 435 436 414
f 436 413 414
f 436 437 413
f 438 241 236
f 413 438 236
f 437 438 413
f 438 439 241
f 439 238 241
f 439 416 238
f 417 418 440
f 440 418 441
f 440 243 244
f 419 440 244
f 417 440 419
f 419 244 245
f 419 245 420
f 420 245 247
f 420 247 421
f 442 422 421
f 247 442 421
f 249 442 247
f 443 249 251
f 443 442 249
f 253 423 424
f 443 253 424
f 251 253 443
f 444 426 423
f 253 444 423
f 255 444 253
f 445 255 257
f 445 444 255
f 447 446 259
f 446 257 259
f 446 445 257
f 447 448 446
f 427 260 239
f 449 260 427
f 261 450 428
f 261 428 240
f 452 430 451
f 430 450 451
f 430 428 450
f 430 452 431
f 432 433 453
f 453 433 454
f 432 455 436
f 432 453 455
f 436 456 437
f 436 455 456
f 458 438 457
f 438 456 457
f 438 437 456
f 438 458 439
f 440 441 459
f 459 441 460
f 461 262 243
f 440 461 243
f 459 461 440
f 462 263 262
f 462 262 461
f 462 265 263
f 271 463 447
f 271 447 259
f 273 464 272
f 464 447 272
f 447 463 272
f 447 464 448
f 273 260 449
f 273 449 464
f 274 450 261
f 274 276 450
f 276 451 450
f 276 465 451
f 454 466 453
f 467 278 279
f 453 467 279
f 455 453 279
f 466 467 453
f 455 279 280
f 468 455 280
f 456 455 468
f 457 456 469
f 469 456 468
f 471 470 283
f 283 470 282
f 473 472 284
f 472 283 284
f 472 471 283
f 473 474 472
f 460 475 459
f 459 475 461
f 461 475 476
f 461 476 462
f 462 476 477
f 265 462 477
f 478 265 477
f 286 265 478
f 481 480 479
f 482 479 480
f 291 483 463
f 291 463 271
f 483 293 272
f 483 272 463
f 296 484 295
f 295 484 485
f 486 295 485
f 297 295 486
f 276 297 465
f 465 297 486
f 467 299 278
f 487 299 467
f 300 488 468
f 300 468 280
f 469 468 489
f 489 468 488
f 470 490 282
f 282 490 301
f 284 301 473
f 301 491 473
f 301 490 491
f 473 491 474
f 478 492 286
f 286 492 302
f 302 493 303
f 492 493 302
f 303 494 304
f 493 494 303
f 479 305 481
f 305 494 481
f 305 304 494
f 482 495 479
f 495 305 479
f 495 306 305
f 306 496 307
f 495 496 306
f 291 307 483
f 307 497 483
f 307 496 497
f 483 497 293
f 497 308 293
f 497 498 308
f 296 308 484
f 308 499 484
f 308 498 499
f 484 499 485
f 487 500 299
f 299 500 309
f 300 309 488
f 309 501 488
f 309 500 501
f 488 501 489
f 503 502 312
f 312 502 311
f 505 503 504
f 503 313 504
f 503 312 313
f 315 504 313
f 508 507 506
f 510 509 506
f 506 509 508
f 502 509 510
f 317 502 510
f 311 502 317
f 511 505 504
f 513 511 512
f 512 511 319
f 511 504 319
f 504 315 319
f 321 512 319
f 516 515 514
f 514 517 516
f 519 518 324
f 324 518 323
f 325 506 507
f 519 325 507
f 324 325 519
f 506 325 326
f 506 326 510
f 510 326 317
f 520 513 512
f 522 520 521
f 521 520 328
f 520 512 328
f 512 321 328
f 330 521 328
f 525 524 523
f 525 523 515
f 515 523 514
f 523 332 514
f 332 333 514
f 526 517 514
f 333 526 514
f 334 526 333
f 334 336 526
f 526 336 527
f 518 337 323
f 528 337 518
f 529 522 521
f 330 340 521
f 340 530 521
f 530 529 521
f 530 340 531
f 530 531 524
f 531 523 524
f 531 532 523
f 532 342 332
f 532 332 523
f 344 534 533
f 527 344 533
f 336 344 527
f 534 535 533
f 528 345 337
f 536 345 528
f 347 537 346
f 531 340 346
f 537 531 346
f 538 531 537
f 531 539 532
f 531 538 539
f 540 348 342
f 532 540 342
f 539 540 532
f 541 349 348
f 541 348 540
f 541 344 349
f 541 534 344
f 541 352 350
f 534 541 350
f 350 353 534
f 353 535 534
f 353 542 535
f 354 345 543
f 345 544 543
f 345 536 544
f 543 355 354
f 357 545 537
f 357 537 347
f 537 546 538
f 537 545 546
f 538 547 539
f 538 546 547
f 539 548 540
f 539 547 548
f 540 549 541
f 540 548 549
f 549 359 352
f 549 352 541
f 360 542 353
f 360 550 542
f 543 544 551
f 551 544 552
f 553 361 355
f 543 553 355
f 551 553 543
f 553 362 361
f 364 554 545
f 364 545 357
f 545 555 546
f 545 554 555
f 546 556 547
f 546 555 556
f 547 557 548
f 547 556 557
f 548 558 549
f 548 557 558
f 558 366 359
f 558 359 549
f 559 550 360
f 559 360 367
f 561 560 369
f 560 367 369
f 560 559 367
f 561 562 560
f 552 563 551
f 565 564 563
f 564 551 563
f 564 553 551
f 564 371 362
f 564 362 553
f 373 566 372
f 554 364 372
f 566 554 372
f 567 554 566
f 554 568 555
f 554 567 568
f 555 569 556
f 555 568 569
f 556 570 557
f 556 569 570
f 557 571 558
f 557 570 571
f 571 375 366
f 571 366 558
f 377 572 561
f 377 561 369
f 562 561 573
f 561 574 573
f 561 572 574
f 379 380 574
f 380 573 574
f 380 575 573
f 576 380 381
f 576 575 380
f 381 383 576
f 576 383 577
f 565 578 564
f 564 578 371
f 578 384 371
f 578 579 384
f 386 384 579
f 386 579 580
f 387 581 566
f 387 566 373
f 566 582 567
f 566 581 582
f 567 583 568
f 567 582 583
f 568 584 569
f 568 583 584
f 569 585 570
f 569 584 585
f 570 586 571
f 570 585 586
f 586 389 375
f 586 375 571
f 391 587 572
f 391 572 377
f 572 588 574
f 572 587 588
f 589 392 379
f 574 589 379
f 588 589 574
f 590 393 392
f 590 392 589
f 590 591 393
f 591 383 393
f 591 577 383
f 593 592 395
f 395 592 394
f 395 396 593
f 593 396 594
f 580 397 386
f 595 397 580
f 398 596 400
f 581 387 400
f 596 581 400
f 597 581 596
f 581 598 582
f 581 597 598
f 582 599 583
f 582 598 599
f 583 600 584
f 583 599 600
f 600 402 403
f 585 600 403
f 584 600 585
f 585 403 404
f 585 404 586
f 586 404 389
f 408 601 587
f 408 587 391
f 587 602 588
f 587 601 602
f 588 603 589
f 588 602 603
f 605 590 604
f 590 603 604
f 590 589 603
f 590 605 591
f 608 607 606
f 592 608 606
f 409 592 606
f 394 592 409
f 609 594 396
f 609 396 410
f 410 412 609
f 609 412 610
f 613 612 611
f 611 614 613
f 616 615 415
f 415 615 414
f 415 397 595
f 415 595 616
f 618 617 596
f 398 618 596
f 416 618 398
f 596 617 597
f 597 617 619
f 597 619 598
f 598 619 620
f 622 621 620
f 621 598 620
f 621 599 598
f 599 623 600
f 599 621 623
f 623 418 402
f 623 402 600
f 422 624 601
f 422 601 408
f 601 625 602
f 601 624 625
f 625 424 425
f 603 625 425
f 602 625 603
f 627 626 426
f 426 626 425
f 626 604 425
f 604 603 425
f 627 628 626
f 607 629 606
f 409 606 629
f 630 409 629
f 427 409 630
f 412 429 631
f 632 412 631
f 610 412 632
f 431 631 429
f 611 612 434
f 612 433 434
f 612 633 433
f 634 614 611
f 434 634 611
f 435 634 434
f 435 414 615
f 435 615 634
f 439 618 416
f 439 635 618
f 622 636 621
f 638 637 636
f 637 621 636
f 637 623 621
f 637 441 418
f 637 418 623
f 442 624 422
f 624 442 443
f 624 443 625
f 625 443 424
f 444 627 426
f 639 628 627
f 444 639 627
f 445 639 444
f 640 445 446
f 640 639 445
f 642 641 448
f 641 446 448
f 641 640 446
f 630 641 642
f 449 630 642
f 427 630 449
f 632 631 452
f 451 632 452
f 643 632 451
f 452 631 431
f 633 454 433
f 644 454 633
f 457 645 458
f 645 646 458
f 646 439 458
f 646 635 439
f 649 648 647
f 649 647 638
f 647 637 638
f 647 650 637
f 650 460 441
f 650 441 637
f 653 652 651
f 654 651 652
f 464 642 448
f 642 464 449
f 465 643 451
f 465 655 643
f 644 656 454
f 454 656 466
f 467 466 656
f 467 656 657
f 659 658 645
f 457 659 645
f 469 659 457
f 645 658 646
f 661 660 471
f 471 660 470
f 472 647 648
f 661 472 648
f 471 472 661
f 650 647 662
f 647 474 662
f 474 663 662
f 474 647 472
f 650 662 460
f 662 475 460
f 662 664 475
f 475 665 476
f 664 665 475
f 651 477 653
f 477 665 653
f 477 476 665
f 667 666 478
f 667 478 477
f 654 667 477
f 651 654 477
f 669 668 666
f 669 666 667
f 671 670 668
f 671 668 669
f 480 481 670
f 671 480 670
f 672 480 671
f 674 673 482
f 480 674 482
f 672 674 480
f 676 675 673
f 676 673 674
f 677 675 676
f 680 679 678
f 486 485 678
f 679 486 678
f 681 486 679
f 465 486 655
f 655 486 681
f 683 487 682
f 487 657 682
f 487 467 657
f 685 684 683
f 685 683 682
f 685 659 684
f 659 489 684
f 659 469 489
f 660 686 470
f 470 686 490
f 490 687 491
f 686 687 490
f 474 491 663
f 663 491 687
f 666 492 478
f 492 666 493
f 493 666 668
f 493 668 494
f 494 668 670
f 494 670 481
f 673 495 482
f 495 673 496
f 496 673 675
f 677 688 675
f 688 496 675
f 688 497 496
f 497 689 498
f 688 689 497
f 678 499 680
f 499 689 680
f 499 498 689
f 499 678 485
f 683 500 487
f 500 683 501
f 501 683 684
f 501 684 489
f 692 691 690
f 694 693 690
f 690 693 692
f 502 503 694
f 503 693 694
f 503 695 693
f 503 505 695
f 695 505 696
f 699 698 697
f 699 697 691
f 691 697 690
f 697 507 690
f 507 508 690
f 690 508 509
f 690 509 694
f 694 509 502
f 700 696 505
f 700 505 511
f 511 513 700
f 700 513 701
f 703 702 516
f 516 702 515
f 705 704 517
f 704 516 517
f 704 703 516
f 705 706 704
f 709 708 707
f 709 707 698
f 698 707 697
f 707 518 697
f 518 519 697
f 697 519 507
f 710 701 513
f 710 513 520
f 520 522 710
f 710 522 711
f 713 712 525
f 525 712 524
f 525 515 702
f 525 702 713
f 526 705 517
f 715 714 527
f 527 714 526
f 714 706 526
f 706 705 526
f 715 716 714
f 707 708 717
f 717 708 718
f 717 528 518
f 717 518 707
f 719 711 522
f 719 522 529
f 720 529 530
f 720 719 529
f 530 524 712
f 530 712 720
f 533 715 527
f 533 535 715
f 535 716 715
f 535 721 716
f 717 718 722
f 722 718 723
f 722 536 528
f 722 528 717
f 542 725 724
f 721 542 724
f 535 542 721
f 725 726 724
f 722 723 727
f 727 723 728
f 727 544 536
f 727 536 722
f 550 729 725
f 550 725 542
f 726 725 730
f 730 725 729
f 733 732 731
f 733 731 728
f 731 727 728
f 731 734 727
f 734 552 544
f 734 544 727
f 559 729 550
f 735 730 729
f 559 735 729
f 560 735 559
f 737 736 562
f 736 560 562
f 736 735 560
f 739 738 737
f 737 738 736
f 741 740 739
f 739 740 738
f 741 742 740
f 731 732 743
f 743 732 744
f 731 745 734
f 731 743 745
f 746 563 552
f 734 746 552
f 745 746 734
f 746 565 563
f 573 737 562
f 737 573 575
f 737 575 739
f 739 575 576
f 739 576 741
f 748 747 577
f 577 747 576
f 747 742 576
f 742 741 576
f 748 749 747
f 744 750 743
f 743 750 745
f 745 750 751
f 745 751 746
f 746 751 752
f 746 752 565
f 752 578 565
f 752 753 578
f 578 754 579
f 753 754 578
f 580 579 754
f 580 754 755
f 757 756 748
f 577 757 748
f 591 757 577
f 748 756 749
f 758 592 593
f 594 758 593
f 761 760 759
f 755 761 759
f 595 755 759
f 580 755 595
f 604 762 605
f 757 591 763
f 591 762 763
f 762 764 763
f 591 605 762
f 764 765 763
f 767 766 608
f 608 766 607
f 608 592 758
f 768 608 758
f 767 608 768
f 768 758 594
f 609 768 594
f 769 768 609
f 771 770 610
f 770 609 610
f 770 769 609
f 771 772 770
f 774 773 613
f 613 773 612
f 776 775 614
f 775 613 614
f 775 774 613
f 775 776 760
f 760 776 759
f 776 615 759
f 615 616 759
f 759 616 595
f 618 777 617
f 778 619 617
f 778 617 777
f 779 620 619
f 779 619 778
f 779 622 620
f 626 762 604
f 762 626 628
f 780 762 628
f 764 762 780
f 765 764 781
f 764 782 781
f 764 780 782
f 782 783 629
f 766 782 629
f 607 766 629
f 782 766 781
f 783 630 629
f 785 784 771
f 610 785 771
f 632 785 610
f 771 784 772
f 773 633 612
f 786 633 773
f 634 776 614
f 776 634 615
f 635 787 777
f 635 777 618
f 777 788 778
f 777 787 788
f 778 789 779
f 778 788 789
f 790 636 622
f 779 790 622
f 789 790 779
f 790 638 636
f 639 780 628
f 780 639 640
f 780 640 782
f 782 640 641
f 782 641 783
f 783 641 630
f 793 792 791
f 792 785 791
f 785 643 791
f 785 632 643
f 795 644 794
f 644 786 794
f 644 633 786
f 796 795 794
f 798 797 787
f 635 798 787
f 646 798 635
f 800 799 797
f 799 787 797
f 799 788 787
f 788 801 789
f 788 799 801
f 801 648 649
f 790 801 649
f 789 801 790
f 790 649 638
f 804 803 802
f 652 653 802
f 803 652 802
f 805 652 803
f 654 652 805
f 654 805 806
f 809 808 807
f 807 808 793
f 791 807 793
f 810 807 791
f 655 810 643
f 643 810 791
f 795 656 644
f 812 811 657
f 812 657 656
f 796 812 656
f 795 796 656
f 814 813 811
f 814 811 812
f 658 659 813
f 814 658 813
f 815 658 814
f 646 658 798
f 798 658 815
f 799 800 816
f 816 800 817
f 816 660 661
f 801 816 661
f 799 816 801
f 801 661 648
f 819 818 662
f 819 662 663
f 662 820 664
f 818 820 662
f 802 665 804
f 665 820 804
f 665 664 820
f 665 802 653
f 806 821 654
f 654 821 667
f 667 822 669
f 821 822 667
f 669 823 671
f 822 823 669
f 671 824 672
f 823 824 671
f 672 825 674
f 824 825 672
f 674 826 676
f 825 826 674
f 828 827 677
f 676 828 677
f 826 828 676
f 830 829 827
f 830 827 828
f 829 830 809
f 829 809 807
f 680 829 807
f 679 680 807
f 679 807 681
f 681 807 810
f 681 810 655
f 811 682 657
f 682 811 685
f 685 811 813
f 685 813 659
f 817 831 816
f 816 831 660
f 831 686 660
f 831 832 686
f 686 833 687
f 832 833 686
f 663 687 819
f 819 687 833
f 827 688 677
f 688 827 689
f 689 827 829
f 689 829 680
f 836 835 834
f 691 692 834
f 692 836 834
f 692 837 836
f 838 692 693
f 838 837 692
f 839 693 695
f 839 838 693
f 695 696 839
f 839 696 840
f 843 842 841
f 843 841 835
f 835 841 834
f 841 698 834
f 698 699 834
f 834 699 691
f 696 700 844
f 845 696 844
f 840 696 845
f 701 844 700
f 847 846 703
f 703 846 702
f 849 847 848
f 847 704 848
f 847 703 704
f 706 848 704
f 841 842 709
f 842 708 709
f 842 850 708
f 841 709 698
f 851 845 844
f 851 844 701
f 710 851 701
f 852 851 710
f 710 711 852
f 852 711 853
f 856 855 854
f 712 713 854
f 713 856 854
f 713 857 856
f 713 702 846
f 713 846 857
f 858 849 848
f 860 858 859
f 859 858 714
f 858 848 714
f 848 706 714
f 716 859 714
f 850 718 708
f 861 718 850
f 862 853 711
f 862 711 719
f 720 854 855
f 862 720 855
f 719 720 862
f 854 720 712
f 860 859 863
f 860 863 864
f 721 863 716
f 716 863 859
f 867 866 865
f 861 867 865
f 723 861 865
f 718 861 723
f 868 864 863
f 870 868 869
f 869 868 724
f 868 863 724
f 863 721 724
f 726 869 724
f 865 866 871
f 871 866 872
f 871 728 723
f 871 723 865
f 870 869 873
f 870 873 874
f 730 873 726
f 726 873 869
f 871 872 733
f 872 732 733
f 872 875 732
f 871 733 728
f 876 874 873
f 876 873 730
f 735 876 730
f 877 876 735
f 878 735 736
f 878 877 735
f 879 736 738
f 879 878 736
f 881 879 880
f 879 740 880
f 879 738 740
f 742 880 740
f 875 744 732
f 882 744 875
f 881 880 883
f 881 883 884
f 747 885 742
f 885 880 742
f 885 883 880
f 749 885 747
f 882 886 744
f 744 886 750
f 750 887 751
f 886 887 750
f 751 888 752
f 887 888 751
f 752 889 753
f 888 889 752
f 889 891 890
f 754 889 890
f 753 889 754
f 890 755 754
f 892 884 883
f 892 894 893
f 894 892 757
f 883 757 892
f 757 883 756
f 885 756 883
f 749 756 885
f 896 893 895
f 894 895 893
f 898 897 895
f 895 897 896
f 898 899 897
f 902 901 900
f 902 900 891
f 891 900 890
f 900 760 890
f 760 761 890
f 890 761 755
f 763 894 757
f 894 763 765
f 903 894 765
f 895 894 903
f 903 766 767
f 898 903 767
f 895 903 898
f 904 899 898
f 767 904 898
f 768 904 767
f 905 768 769
f 905 904 768
f 906 769 770
f 906 905 769
f 770 772 906
f 906 772 907
f 908 773 774
f 901 909 900
f 909 774 900
f 774 775 900
f 774 909 908
f 900 775 760
f 781 903 765
f 903 781 766
f 911 910 784
f 911 784 785
f 772 784 907
f 907 784 910
f 912 786 908
f 908 786 773
f 908 909 913
f 908 913 912
f 915 914 792
f 915 792 793
f 785 792 911
f 911 792 914
f 912 794 786
f 796 794 912
f 913 796 912
f 916 796 913
f 798 917 797
f 917 800 797
f 919 918 803
f 919 803 804
f 918 921 920
f 805 918 920
f 803 918 805
f 920 806 805
f 924 923 922
f 808 809 922
f 923 808 922
f 925 808 923
f 793 808 915
f 915 808 925
f 916 926 796
f 796 926 812
f 812 927 814
f 926 927 812
f 814 928 815
f 927 928 814
f 798 815 917
f 815 929 917
f 815 928 929
f 817 800 917
f 930 817 917
f 929 930 917
f 817 930 931
f 933 932 931
f 933 931 930
f 935 934 932
f 935 932 933
f 818 819 934
f 935 818 934
f 936 818 935
f 818 937 820
f 936 937 818
f 804 820 919
f 919 820 937
f 921 938 920
f 920 938 806
f 938 821 806
f 938 939 821
f 821 940 822
f 939 940 821
f 822 941 823
f 940 941 822
f 823 942 824
f 941 942 823
f 824 943 825
f 942 943 824
f 825 944 826
f 943 944 825
f 826 945 828
f 944 945 826
f 922 830 924
f 830 945 924
f 830 828 945
f 830 922 809
f 931 831 817
f 831 931 832
f 832 931 932
f 832 932 833
f 833 932 934
f 833 934 819
f 948 947 946
f 835 836 946
f 836 948 946
f 836 949 948
f 950 836 837
f 950 949 836
f 951 837 838
f 951 950 837
f 952 838 839
f 952 951 838
f 839 840 952
f 952 840 953
f 946 947 843
f 947 842 843
f 947 954 842
f 946 843 835
f 845 956 955
f 953 845 955
f 840 845 953
f 958 957 956
f 956 957 955
f 958 959 957
f 960 846 847
f 849 960 847
f 954 850 842
f 961 850 954
f 851 956 845
f 956 851 852
f 956 852 958
f 852 853 958
f 853 959 958
f 853 962 959
f 963 855 856
f 857 964 856
f 856 964 963
f 846 960 857
f 960 964 857
f 960 965 964
f 965 960 849
f 966 965 849
f 858 966 849
f 967 965 966
f 858 860 966
f 966 860 968
f 971 970 969
f 961 971 969
f 861 961 969
f 850 961 861
f 972 962 853
f 972 853 862
f 862 855 963
f 973 862 963
f 972 862 973
f 973 963 964
f 973 964 974
f 974 964 965
f 974 965 975
f 975 965 967
f 864 968 860
f 864 976 968
f 969 970 867
f 970 866 867
f 970 977 866
f 969 867 861
f 978 976 864
f 978 864 868
f 868 870 978
f 978 870 979
f 977 872 866
f 980 872 977
f 874 979 870
f 874 981 979
f 980 875 872
f 982 875 980
f 983 981 874
f 983 874 876
f 984 876 877
f 984 983 876
f 985 877 878
f 985 984 877
f 986 878 879
f 986 985 878
f 879 881 986
f 986 881 987
f 989 882 988
f 882 982 988
f 882 875 982
f 990 989 988
f 884 992 991
f 987 884 991
f 881 884 987
f 992 993 991
f 989 886 882
f 990 994 989
f 994 886 989
f 994 887 886
f 994 996 995
f 888 994 995
f 887 994 888
f 997 889 888
f 997 888 995
f 997 891 889
f 892 992 884
f 998 993 992
f 892 998 992
f 893 998 892
f 999 893 896
f 999 998 893
f 1000 896 897
f 1000 999 896
f 1002 1001 899
f 1001 897 899
f 1001 1000 897
f 1002 1003 1001
f 996 1004 995
f 1005 901 902
f 995 1005 902
f 997 995 902
f 1004 1005 995
f 997 902 891
f 904 1002 899
f 1006 1003 1002
f 904 1006 1002
f 905 1006 904
f 1008 1006 1007
f 1006 906 1007
f 1006 905 906
f 907 1007 906
f 1005 909 901
f 1009 909 1005
f 1008 1007 910
f 911 1008 910
f 1010 1008 911
f 910 1007 907
f 1009 913 909
f 1011 913 1009
f 1014 1013 1012
f 1015 1012 1013
f 1018 1017 1016
f 914 915 1016
f 1017 914 1016
f 1019 914 1017
f 911 914 1010
f 1010 914 1019
f 1021 916 1020
f 916 1011 1020
f 916 913 1011
f 1022 1021 1020
f 1025 1024 1023
f 1026 1023 1024
f 1014 1012 1027
f 1014 1027 1028
f 1029 918 919
f 1012 1029 919
f 1027 1012 919
f 1029 1012 1015
f 1031 1030 921
f 918 1031 921
f 1029 1031 918
f 1033 1032 1030
f 1033 1030 1031
f 1035 1034 1032
f 1035 1032 1033
f 1037 1036 1034
f 1037 1034 1035
f 1038 1036 1037
f 1041 1040 1039
f 923 924 1039
f 1040 923 1039
f 1042 923 1040
f 1016 925 1018
f 925 1042 1018
f 925 923 1042
f 925 1016 915
f 1021 926 916
f 1022 1043 1021
f 1043 926 1021
f 1043 927 926
f 927 1044 928
f 1043 1044 927
f 928 1045 929
f 1044 1045 928
f 929 1046 930
f 1045 1046 929
f 1023 933 1025
f 933 1046 1025
f 933 930 1046
f 1026 1047 1023
f 1047 933 1023
f 1047 935 933
f 935 1048 936
f 1047 1048 935
f 1027 937 1028
f 937 1048 1028
f 937 936 1048
f 937 1027 919
f 1030 938 921
f 938 1030 939
f 939 1030 1032
f 939 1032 940
f 940 1032 1034
f 940 1034 941
f 941 1034 1036
f 1038 1049 1036
f 1049 941 1036
f 1049 942 941
f 942 1050 943
f 1049 1050 942
f 943 1051 944
f 1050 1051 943
f 1039 945 1041
f 945 1051 1041
f 945 944 1051
f 945 1039 924
f 1053 1052 948
f 948 1052 947
f 1054 948 949
f 1054 1053 948
f 1055 949 950
f 1055 1054 949
f 1057 1055 1056
f 1055 951 1056
f 1055 950 951
f 952 1058 951
f 951 1058 1056
f 953 1058 952
f 1061 1060 1059
f 1052 1061 1059
f 954 1052 1059
f 947 1052 954
f 1062 1057 1056
f 1062 1056 1058
f 1062 1058 1063
f 1063 1058 953
f 955 1063 953
f 1064 1063 955
f 1066 1064 1065
f 1064 957 1065
f 1064 955 957
f 959 1065 957
f 1059 1060 1067
f 1067 1060 1068
f 1067 961 954
f 1067 954 1059
f 1069 1066 1065
f 1065 959 1069
f 959 1070 1069
f 959 962 1070
f 1071 967 966
f 968 1071 966
f 1067 1068 971
f 1068 970 971
f 1068 1072 970
f 1067 971 961
f 1073 1070 962
f 1073 962 972
f 1074 972 973
f 1074 1073 972
f 1075 973 974
f 1075 1074 973
f 1076 974 975
f 1076 1075 974
f 975 967 1071
f 1077 975 1071
f 1076 975 1077
f 1071 968 1077
f 968 1078 1077
f 968 976 1078
f 1072 977 970
f 1079 977 1072
f 976 978 1080
f 1081 976 1080
f 1078 976 1081
f 979 1080 978
f 1079 980 977
f 1082 980 1079
f 1083 1081 1080
f 1080 979 1083
f 979 1084 1083
f 979 981 1084
f 1086 982 1085
f 982 1082 1085
f 982 980 1082
f 1087 1086 1085
f 1088 1084 981
f 1088 981 983
f 1089 983 984
f 1089 1088 983
f 1090 984 985
f 1090 1089 984
f 1091 985 986
f 1091 1090 985
f 986 987 1091
f 1091 987 1092
f 1086 988 982
f 990 988 1086
f 1087 990 1086
f 1093 990 1087
f 1094 1092 987
f 1094 987 991
f 1096 1095 993
f 1095 991 993
f 1095 1094 991
f 1096 1097 1095
f 1093 1098 990
f 990 1098 994
f 996 994 1098
f 996 1098 1099
f 998 1096 993
f 1100 1097 1096
f 998 1100 1096
f 999 1100 998
f 1101 999 1000
f 1101 1100 999
f 1103 1101 1102
f 1101 1001 1102
f 1101 1000 1001
f 1003 1102 1001
f 1004 996 1104
f 996 1105 1104
f 996 1099 1105
f 1104 1005 1004
f 1103 1102 1106
f 1103 1106 1107
f 1106 1102 1003
f 1108 1106 1003
f 1006 1108 1003
f 1109 1106 1108
f 1006 1008 1108
f 1108 1008 1110
f 1105 1111 1104
f 1005 1104 1111
f 1112 1005 1111
f 1009 1005 1112
f 1115 1114 1113
f 1116 1113 1114
f 1119 1118 1117
f 1121 1120 1117
f 1121 1117 1118
f 1122 1120 1121
f 1123 1107 1106
f 1106 1124 1123
f 1106 1125 1124
f 1106 1109 1126
f 1125 1106 1126
f 1126 1110 1125
f 1110 1010 1125
f 1110 1008 1010
f 1128 1011 1127
f 1011 1112 1127
f 1011 1009 1112
f 1129 1128 1127
f 1132 1131 1130
f 1130 1131 1115
f 1130 1115 1113
f 1014 1130 1113
f 1013 1014 1113
f 1134 1133 1015
f 1134 1015 1013
f 1116 1134 1013
f 1113 1116 1013
f 1135 1133 1134
f 1138 1137 1136
f 1140 1139 1136
f 1140 1136 1137
f 1142 1141 1139
f 1142 1139 1140
f 1141 1142 1119
f 1117 1141 1119
f 1143 1141 1117
f 1144 1117 1120
f 1143 1117 1144
f 1120 1122 1145
f 1146 1120 1145
f 1144 1120 1146
f 1017 1018 1146
f 1145 1017 1146
f 1147 1017 1145
f 1125 1019 1124
f 1019 1147 1124
f 1019 1017 1147
f 1019 1125 1010
f 1128 1020 1011
f 1149 1148 1022
f 1149 1022 1020
f 1129 1149 1020
f 1128 1129 1020
f 1151 1150 1148
f 1151 1148 1149
f 1153 1152 1150
f 1153 1150 1151
f 1155 1154 1152
f 1155 1152 1153
f 1024 1025 1154
f 1155 1024 1154
f 1156 1024 1155
f 1158 1157 1026
f 1024 1158 1026
f 1156 1158 1024
f 1157 1158 1132
f 1130 1157 1132
f 1159 1157 1130
f 1028 1159 1014
f 1014 1159 1130
f 1133 1029 1015
f 1135 1160 1133
f 1160 1029 1133
f 1160 1031 1029
f 1031 1161 1033
f 1160 1161 1031
f 1033 1162 1035
f 1161 1162 1033
f 1136 1037 1138
f 1037 1162 1138
f 1037 1035 1162
f 1037 1136 1038
f 1136 1163 1038
f 1136 1139 1163
f 1164 1139 1141
f 1163 1139 1164
f 1165 1141 1143
f 1164 1141 1165
f 1041 1165 1040
f 1165 1144 1040
f 1165 1143 1144
f 1040 1144 1042
f 1042 1144 1146
f 1042 1146 1018
f 1148 1043 1022
f 1043 1148 1044
f 1044 1148 1150
f 1044 1150 1045
f 1045 1150 1152
f 1045 1152 1046
f 1046 1152 1154
f 1046 1154 1025
f 1157 1047 1026
f 1047 1157 1048
f 1048 1157 1159
f 1048 1159 1028
f 1163 1049 1038
f 1049 1163 1050
f 1050 1163 1164
f 1050 1164 1051
f 1051 1164 1165
f 1051 1165 1041
f 1168 1167 1166
f 1170 1169 1166
f 1166 1169 1168
f 1170 1171 1169
f 1166 1167 1053
f 1167 1052 1053
f 1167 1172 1052
f 1166 1053 1054
f 1166 1054 1170
f 1173 1171 1170
f 1054 1173 1170
f 1055 1173 1054
f 1055 1057 1173
f 1173 1057 1174
f 1177 1176 1175
f 1175 1178 1177
f 1180 1179 1061
f 1061 1179 1060
f 1061 1052 1172
f 1061 1172 1180
f 1181 1174 1057
f 1181 1057 1062
f 1182 1062 1063
f 1182 1181 1062
f 1064 1175 1176
f 1182 1064 1176
f 1063 1064 1182
f 1064 1066 1175
f 1066 1178 1175
f 1066 1183 1178
f 1179 1068 1060
f 1184 1068 1179
f 1185 1183 1066
f 1185 1066 1069
f 1187 1186 1070
f 1186 1069 1070
f 1186 1185 1069
f 1187 1188 1186
f 1190 1072 1189
f 1072 1184 1189
f 1072 1068 1184
f 1191 1190 1189
f 1073 1187 1070
f 1192 1188 1187
f 1073 1192 1187
f 1074 1192 1073
f 1194 1192 1193
f 1192 1075 1193
f 1192 1074 1075
f 1076 1195 1075
f 1075 1195 1193
f 1077 1196 1076
f 1076 1196 1195
f 1078 1196 1077
f 1197 1079 1190
f 1190 1079 1072
f 1190 1191 1198
f 1190 1198 1197
f 1201 1200 1199
f 1199 1200 1194
f 1193 1199 1194
f 1202 1199 1193
f 1203 1193 1195
f 1202 1193 1203
f 1196 1205 1204
f 1203 1196 1204
f 1195 1196 1203
f 1196 1078 1205
f 1078 1206 1205
f 1078 1081 1206
f 1208 1207 1197
f 1207 1079 1197
f 1207 1082 1079
f 1208 1197 1198
f 1209 1201 1199
f 1209 1199 1202
f 1209 1202 1210
f 1210 1202 1203
f 1210 1203 1211
f 1211 1203 1204
f 1081 1083 1212
f 1213 1081 1212
f 1206 1081 1213
f 1084 1212 1083
f 1085 1082 1214
f 1082 1215 1214
f 1082 1207 1215
f 1214 1087 1085
f 1216 1213 1212
f 1216 1212 1084
f 1088 1216 1084
f 1217 1216 1088
f 1218 1088 1089
f 1218 1217 1088
f 1219 1089 1090
f 1219 1218 1089
f 1221 1219 1220
f 1219 1091 1220
f 1219 1090 1091
f 1092 1220 1091
f 1214 1215 1222
f 1222 1215 1223
f 1222 1093 1087
f 1222 1087 1214
f 1224 1221 1220
f 1226 1224 1225
f 1225 1224 1094
f 1224 1220 1094
f 1220 1092 1094
f 1225 1094 1227
f 1094 1228 1227
f 1094 1095 1228
f 1095 1097 1228
f 1228 1097 1229
f 1223 1230 1222
f 1222 1230 1093
f 1230 1098 1093
f 1230 1231 1098
f 1233 1232 1099
f 1098 1233 1099
f 1231 1233 1098
f 1234 1232 1233
f 1235 1226 1225
f 1235 1225 1227
f 1236 1229 1097
f 1236 1097 1100
f 1238 1236 1237
f 1236 1101 1237
f 1236 1100 1101
f 1103 1237 1101
f 1239 1105 1232
f 1232 1105 1099
f 1232 1234 1240
f 1232 1240 1239
f 1243 1242 1241
f 1244 1241 1242
f 1247 1246 1245
f 1245 1246 1238
f 1237 1245 1238
f 1248 1245 1237
f 1107 1248 1103
f 1103 1248 1237
f 1249 1109 1108
f 1110 1249 1108
f 1239 1111 1105
f 1251 1250 1112
f 1251 1112 1111
f 1240 1251 1111
f 1239 1240 1111
f 1252 1250 1251
f 1243 1241 1253
f 1243 1253 1254
f 1255 1114 1115
f 1241 1255 1115
f 1253 1241 1115
f 1255 1241 1244
f 1257 1256 1116
f 1114 1257 1116
f 1255 1257 1114
f 1258 1256 1257
f 1261 1260 1259
f 1262 1259 1260
f 1264 1263 1118
f 1264 1118 1119
f 1245 1121 1247
f 1121 1263 1247
f 1121 1118 1263
f 1121 1245 1122
f 1245 1265 1122
f 1245 1248 1265
f 1123 1266 1107
f 1266 1248 1107
f 1266 1265 1248
f 1109 1249 1126
f 1266 1123 1124
f 1126 1249 1110
f 1250 1127 1112
f 1268 1267 1129
f 1268 1129 1127
f 1252 1268 1127
f 1250 1252 1127
f 1270 1269 1267
f 1270 1267 1268
f 1272 1271 1269
f 1272 1269 1270
f 1274 1273 1271
f 1274 1271 1272
f 1276 1275 1273
f 1276 1273 1274
f 1278 1277 1275
f 1278 1275 1276
f 1277 1278 1254
f 1277 1254 1253
f 1132 1277 1253
f 1131 1132 1253
f 1131 1253 1115
f 1256 1134 1116
f 1280 1279 1135
f 1280 1135 1134
f 1258 1280 1134
f 1256 1258 1134
f 1281 1279 1280
f 1284 1283 1282
f 1282 1283 1261
f 1282 1261 1259
f 1138 1282 1259
f 1137 1138 1259
f 1262 1285 1259
f 1285 1137 1259
f 1285 1140 1137
f 1140 1286 1142
f 1285 1286 1140
f 1119 1142 1264
f 1264 1142 1286
f 1265 1145 1122
f 1145 1265 1147
f 1147 1265 1266
f 1147 1266 1124
f 1267 1149 1129
f 1149 1267 1151
f 1151 1267 1269
f 1151 1269 1153
f 1153 1269 1271
f 1153 1271 1155
f 1155 1271 1273
f 1155 1273 1156
f 1156 1273 1275
f 1156 1275 1158
f 1158 1275 1277
f 1158 1277 1132
f 1279 1160 1135
f 1281 1287 1279
f 1287 1160 1279
f 1287 1161 1160
f 1282 1162 1284
f 1162 1287 1284
f 1162 1161 1287
f 1162 1282 1138
f 1289 1288 1168
f 1168 1288 1167
f 1290 1168 1169
f 1290 1289 1168
f 1292 1291 1171
f 1291 1169 1171
f 1291 1290 1169
f 1292 1293 1291
f 1288 1172 1167
f 1294 1172 1288
f 1173 1292 1171
f 1296 1295 1174
f 1174 1295 1173
f 1295 1293 1173
f 1293 1292 1173
f 1298 1297 1296
f 1296 1297 1295
f 1176 1177 1298
f 1177 1297 1298
f 1177 1299 1297
f 1177 1178 1299
f 1299 1178 1300
f 1302 1301 1180
f 1180 1301 1179
f 1180 1172 1294
f 1180 1294 1302
f 1181 1296 1174
f 1296 1181 1182
f 1296 1182 1298
f 1298 1182 1176
f 1183 1304 1303
f 1300 1183 1303
f 1178 1183 1300
f 1304 1305 1303
f 1301 1184 1179
f 1306 1184 1301
f 1185 1304 1183
f 1185 1186 1304
f 1186 1307 1304
f 1307 1305 1304
f 1186 1308 1307
f 1188 1308 1186
f 1306 1309 1184
f 1184 1309 1189
f 1191 1189 1309
f 1191 1309 1310
f 1311 1307 1308
f 1313 1311 1312
f 1312 1311 1192
f 1311 1308 1192
f 1308 1188 1192
f 1194 1312 1192
f 1310 1198 1191
f 1314 1198 1310
f 1313 1312 1200
f 1201 1313 1200
f 1315 1313 1201
f 1200 1312 1194
f 1316 1204 1205
f 1206 1316 1205
f 1318 1317 1208
f 1208 1317 1207
f 1208 1198 1314
f 1208 1314 1318
f 1319 1315 1201
f 1319 1201 1209
f 1321 1319 1320
f 1319 1210 1320
f 1319 1209 1210
f 1320 1210 1322
f 1210 1323 1322
f 1210 1211 1323
f 1323 1211 1204
f 1324 1323 1204
f 1316 1324 1204
f 1323 1324 1325
f 1213 1324 1206
f 1206 1324 1316
f 1317 1215 1207
f 1326 1215 1317
f 1327 1321 1320
f 1327 1320 1322
f 1328 1325 1324
f 1328 1324 1213
f 1216 1328 1213
f 1329 1328 1216
f 1330 1216 1217
f 1330 1329 1216
f 1332 1330 1331
f 1330 1218 1331
f 1330 1217 1218
f 1219 1333 1218
f 1218 1333 1331
f 1221 1333 1219
f 1335 1223 1334
f 1223 1326 1334
f 1223 1215 1326
f 1336 1335 1334
f 1337 1332 1331
f 1337 1331 1333
f 1337 1333 1338
f 1340 1338 1339
f 1339 1338 1224
f 1338 1333 1224
f 1333 1221 1224
f 1226 1339 1224
f 1341 1227 1228
f 1229 1341 1228
f 1335 1230 1223
f 1336 1342 1335
f 1342 1230 1335
f 1342 1231 1230
f 1231 1343 1233
f 1342 1343 1231
f 1234 1233 1343
f 1234 1343 1344
f 1347 1346 1345
f 1348 1345 1346
f 1349 1340 1339
f 1349 1339 1226
f 1235 1349 1226
f 1350 1349 1235
f 1235 1227 1341
f 1351 1235 1341
f 1350 1235 1351
f 1353 1351 1352
f 1352 1351 1236
f 1351 1341 1236
f 1341 1229 1236
f 1238 1352 1236
f 1355 1240 1354
f 1240 1344 1354
f 1240 1234 1344
f 1357 1356 1355
f 1357 1355 1354
f 1358 1356 1357
f 1361 1360 1359
f 1363 1362 1359
f 1363 1359 1360
f 1365 1364 1362
f 1365 1362 1363
f 1367 1366 1364
f 1367 1364 1365
f 1366 1367 1347
f 1366 1347 1345
f 1243 1366 1345
f 1242 1243 1345
f 1369 1368 1244
f 1369 1244 1242
f 1348 1369 1242
f 1345 1348 1242
f 1370 1368 1369
f 1373 1372 1371
f 1371 1372 1353
f 1371 1353 1352
f 1247 1371 1352
f 1246 1247 1352
f 1246 1352 1238
f 1355 1251 1240
f 1251 1355 1252
f 1355 1374 1252
f 1355 1356 1374
f 1356 1358 1375
f 1376 1356 1375
f 1374 1356 1376
f 1376 1375 1361
f 1359 1376 1361
f 1377 1376 1359
f 1378 1359 1362
f 1377 1359 1378
f 1379 1362 1364
f 1378 1362 1379
f 1380 1364 1366
f 1379 1364 1380
f 1254 1380 1243
f 1243 1380 1366
f 1368 1255 1244
f 1370 1381 1368
f 1381 1255 1368
f 1381 1257 1255
f 1383 1382 1258
f 1257 1383 1258
f 1381 1383 1257
f 1385 1384 1382
f 1385 1382 1383
f 1387 1386 1384
f 1387 1384 1385
f 1260 1261 1386
f 1387 1260 1386
f 1388 1260 1387
f 1390 1389 1262
f 1260 1390 1262
f 1388 1390 1260
f 1392 1391 1389
f 1392 1389 1390
f 1391 1392 1373
f 1391 1373 1371
f 1264 1391 1371
f 1263 1264 1371
f 1263 1371 1247
f 1374 1268 1252
f 1268 1374 1270
f 1270 1374 1376
f 1270 1376 1272
f 1272 1376 1377
f 1272 1377 1274
f 1274 1377 1378
f 1274 1378 1276
f 1276 1378 1379
f 1276 1379 1278
f 1278 1379 1380
f 1278 1380 1254
f 1382 1280 1258
f 1280 1382 1281
f 1382 1393 1281
f 1382 1384 1393
f 1284 1393 1283
f 1393 1386 1283
f 1393 1384 1386
f 1283 1386 1261
f 1389 1285 1262
f 1285 1389 1286
f 1286 1389 1391
f 1286 1391 1264
f 1393 1287 1281
f 1287 1393 1284
f 1395 1394 1289
f 1289 1394 1288
f 1396 1289 1290
f 1396 1395 1289
f 1397 1290 1291
f 1397 1396 1290
f 1399 1398 1293
f 1398 1291 1293
f 1398 1397 1291
f 1399 1400 1398
f 1394 1294 1288
f 1401 1294 1394
f 1295 1399 1293
f 1402 1400 1399
f 1295 1402 1399
f 1297 1402 1295
f 1403 1297 1299
f 1403 1402 1297
f 1299 1300 1403
f 1403 1300 1404
f 1406 1405 1302
f 1302 1405 1301
f 1302 1294 1401
f 1302 1401 1406
f 1407 1404 1300
f 1407 1300 1303
f 1303 1305 1407
f 1407 1305 1408
f 1405 1306 1301
f 1409 1306 1405
f 1307 1408 1305
f 1307 1410 1408
f 1309 1306 1411
f 1306 1412 1411
f 1306 1409 1412
f 1411 1310 1309
f 1413 1410 1307
f 1413 1307 1311
f 1311 1313 1413
f 1413 1313 1414
f 1411 1412 1415
f 1415 1412 1416
f 1415 1314 1310
f 1415 1310 1411
f 1315 1414 1313
f 1315 1417 1414
f 1415 1416 1318
f 1416 1317 1318
f 1416 1418 1317
f 1415 1318 1314
f 1419 1417 1315
f 1419 1315 1319
f 1319 1321 1419
f 1419 1321 1420
f 1421 1322 1323
f 1325 1421 1323
f 1423 1326 1422
f 1326 1418 1422
f 1326 1317 1418
f 1424 1423 1422
f 1425 1420 1321
f 1425 1321 1327
f 1425 1327 1322
f 1426 1425 1322
f 1421 1426 1322
f 1425 1426 1427
f 1328 1428 1325
f 1428 1421 1325
f 1428 1426 1421
f 1428 1328 1429
f 1328 1430 1429
f 1328 1329 1430
f 1432 1430 1431
f 1430 1330 1431
f 1430 1329 1330
f 1332 1431 1330
f 1423 1334 1326
f 1434 1433 1336
f 1434 1336 1334
f 1424 1434 1334
f 1423 1424 1334
f 1435 1433 1434
f 1436 1427 1426
f 1436 1426 1428
f 1436 1428 1437
f 1437 1428 1429
f 1438 1432 1431
f 1438 1431 1332
f 1337 1438 1332
f 1439 1438 1337
f 1440 1337 1338
f 1440 1439 1337
f 1338 1340 1440
f 1440 1340 1441
f 1433 1342 1336
f 1435 1442 1433
f 1442 1342 1433
f 1442 1343 1342
f 1444 1443 1344
f 1343 1444 1344
f 1442 1444 1343
f 1445 1443 1444
f 1447 1446 1346
f 1447 1346 1347
f 1449 1448 1348
f 1346 1449 1348
f 1446 1449 1346
f 1450 1448 1449
f 1451 1441 1340
f 1451 1340 1349
f 1453 1451 1452
f 1451 1350 1452
f 1451 1349 1350
f 1351 1454 1350
f 1350 1454 1452
f 1353 1454 1351
f 1443 1354 1344
f 1445 1455 1443
f 1455 1354 1443
f 1455 1357 1354
f 1457 1456 1358
f 1357 1457 1358
f 1455 1457 1357
f 1360 1361 1456
f 1457 1360 1456
f 1458 1360 1457
f 1360 1459 1363
f 1458 1459 1360
f 1363 1460 1365
f 1459 1460 1363
f 1365 1461 1367
f 1460 1461 1365
f 1347 1367 1447
f 1447 1367 1461
f 1448 1369 1348
f 1463 1462 1370
f 1463 1370 1369
f 1450 1463 1369
f 1448 1450 1369
f 1465 1464 1462
f 1465 1462 1463
f 1466 1464 1465
f 1469 1468 1467
f 1471 1470 1467
f 1471 1467 1468
f 1473 1472 1470
f 1473 1470 1471
f 1472 1473 1453
f 1452 1472 1453
f 1474 1472 1452
f 1373 1474 1372
f 1474 1454 1372
f 1474 1452 1454
f 1372 1454 1353
f 1456 1375 1358
f 1375 1456 1361
f 1462 1381 1370
f 1381 1462 1383
f 1383 1462 1464
f 1466 1475 1464
f 1475 1383 1464
f 1475 1385 1383
f 1467 1387 1469
f 1387 1475 1469
f 1387 1385 1475
f 1387 1467 1388
f 1388 1467 1470
f 1388 1470 1390
f 1390 1470 1472
f 1390 1472 1392
f 1392 1472 1474
f 1392 1474 1373
f 1478 1477 1476
f 1480 1479 1476
f 1476 1479 1478
f 1480 1481 1479
f 1483 1482 1395
f 1395 1482 1394
f 1396 1476 1477
f 1483 1396 1477
f 1395 1396 1483
f 1476 1396 1397
f 1476 1397 1480
f 1484 1481 1480
f 1397 1484 1480
f 1398 1484 1397
f 1398 1400 1484
f 1484 1400 1485
f 1482 1401 1394
f 1486 1401 1482
f 1487 1485 1400
f 1487 1400 1402
f 1488 1402 1403
f 1488 1487 1402
f 1403 1404 1488
f 1488 1404 1489
f 1491 1490 1406
f 1406 1490 1405
f 1406 1401 1486
f 1406 1486 1491
f 1492 1489 1404
f 1492 1404 1407
f 1494 1493 1408
f 1493 1407 1408
f 1493 1492 1407
f 1494 1495 1493
f 1490 1409 1405
f 1496 1409 1490
f 1410 1497 1494
f 1410 1494 1408
f 1495 1494 1498
f 1498 1494 1497
f 1496 1412 1409
f 1499 1412 1496
f 1413 1497 1410
f 1413 1414 1497
f 1414 1498 1497
f 1414 1500 1498
f 1499 1416 1412
f 1501 1416 1499
f 1504 1503 1502
f 1503 1500 1502
f 1500 1417 1502
f 1500 1414 1417
f 1506 1418 1505
f 1418 1501 1505
f 1418 1416 1501
f 1507 1506 1505
f 1510 1509 1508
f 1512 1511 1508
f 1512 1508 1509
f 1514 1513 1511
f 1514 1511 1512
f 1504 1502 1515
f 1514 1516 1513
f 1515 1502 1417
f 1419 1515 1417
f 1517 1515 1419
f 1419 1420 1517
f 1517 1420 1518
f 1506 1422 1418
f 1520 1519 1424
f 1520 1424 1422
f 1507 1520 1422
f 1506 1507 1422
f 1522 1521 1519
f 1522 1519 1520
f 1523 1521 1522
f 1524 1510 1508
f 1524 1508 1511
f 1524 1511 1525
f 1525 1511 1513
f 1525 1513 1526
f 1526 1513 1516
f 1527 1518 1420
f 1527 1420 1425
f 1425 1427 1527
f 1527 1427 1528
f 1529 1429 1430
f 1432 1529 1430
f 1519 1434 1424
f 1434 1519 1435
f 1519 1530 1435
f 1519 1521 1530
f 1521 1523 1531
f 1532 1521 1531
f 1530 1521 1532
f 1533 1532 1531
f 1536 1535 1534
f 1538 1537 1534
f 1538 1534 1535
f 1539 1537 1538
f 1542 1541 1540
f 1543 1540 1541
f 1427 1436 1544
f 1545 1427 1544
f 1528 1427 1545
f 1544 1436 1546
f 1436 1547 1546
f 1436 1437 1547
f 1437 1429 1529
f 1548 1437 1529
f 1547 1437 1548
f 1550 1548 1549
f 1549 1548 1438
f 1548 1529 1438
f 1529 1432 1438
f 1439 1551 1438
f 1438 1551 1549
f 1440 1552 1439
f 1439 1552 1551
f 1441 1552 1440
f 1530 1442 1435
f 1442 1530 1444
f 1444 1530 1532
f 1554 1553 1445
f 1554 1445 1444
f 1533 1554 1444
f 1532 1533 1444
f 1553 1554 1536
f 1534 1553 1536
f 1555 1553 1534
f 1556 1534 1537
f 1555 1534 1556
f 1537 1539 1557
f 1558 1537 1557
f 1556 1537 1558
f 1560 1559 1558
f 1560 1558 1557
f 1559 1560 1542
f 1540 1559 1542
f 1561 1559 1540
f 1562 1446 1447
f 1540 1562 1447
f 1561 1540 1447
f 1562 1540 1543
f 1544 1449 1545
f 1449 1562 1545
f 1449 1446 1562
f 1564 1563 1450
f 1564 1450 1449
f 1546 1564 1449
f 1544 1546 1449
f 1565 1563 1564
f 1550 1549 1566
f 1550 1566 1567
f 1568 1549 1551
f 1566 1549 1568
f 1569 1551 1552
f 1568 1551 1569
f 1451 1570 1441
f 1570 1552 1441
f 1570 1569 1552
f 1453 1570 1451
f 1553 1455 1445
f 1455 1553 1457
f 1457 1553 1555
f 1457 1555 1458
f 1458 1555 1556
f 1458 1556 1459
f 1459 1556 1558
f 1459 1558 1460
f 1460 1558 1559
f 1460 1559 1461
f 1461 1559 1561
f 1461 1561 1447
f 1563 1463 1450
f 1565 1571 1563
f 1571 1463 1563
f 1571 1465 1463
f 1566 1572 1466
f 1571 1566 1466
f 1465 1571 1466
f 1567 1566 1571
f 1469 1572 1468
f 1572 1568 1468
f 1572 1566 1568
f 1468 1568 1471
f 1471 1568 1569
f 1471 1569 1473
f 1473 1569 1570
f 1473 1570 1453
f 1572 1475 1466
f 1475 1572 1469
f 1573 1477 1478
f 1573 1478 1574
f 1478 1575 1574
f 1478 1479 1575
f 1479 1481 1575
f 1575 1481 1576
f 1577 1482 1483
f 1578 1577 1483
f 1578 1483 1477
f 1579 1578 1477
f 1573 1579 1477
f 1579 1573 1574
f 1580 1576 1481
f 1580 1481 1484
f 1484 1485 1580
f 1580 1485 1581
f 1583 1582 1577
f 1582 1482 1577
f 1582 1486 1482
f 1583 1577 1578
f 1584 1581 1485
f 1584 1485 1487
f 1585 1487 1488
f 1585 1584 1487
f 1488 1489 1585
f 1585 1489 1586
f 1588 1587 1491
f 1491 1587 1490
f 1491 1486 1582
f 1491 1582 1588
f 1589 1586 1489
f 1589 1489 1492
f 1591 1589 1590
f 1589 1493 1590
f 1589 1492 1493
f 1495 1590 1493
f 1587 1496 1490
f 1592 1496 1587
f 1593 1591 1590
f 1590 1495 1593
f 1495 1594 1593
f 1495 1498 1594
f 1596 1499 1595
f 1499 1592 1595
f 1499 1496 1592
f 1597 1596 1595
f 1500 1594 1498
f 1500 1598 1594
f 1599 1501 1596
f 1596 1501 1499
f 1596 1597 1600
f 1596 1600 1599
f 1603 1602 1601
f 1605 1604 1601
f 1605 1601 1602
f 1606 1604 1605
f 1609 1608 1607
f 1610 1607 1608
f 1612 1611 1503
f 1612 1503 1504
f 1500 1503 1598
f 1598 1503 1611
f 1599 1505 1501
f 1614 1613 1507
f 1614 1507 1505
f 1600 1614 1505
f 1599 1600 1505
f 1613 1614 1603
f 1601 1613 1603
f 1615 1613 1601
f 1616 1601 1604
f 1615 1601 1616
f 1604 1606 1617
f 1618 1604 1617
f 1616 1604 1618
f 1509 1510 1618
f 1617 1509 1618
f 1619 1509 1617
f 1607 1512 1609
f 1512 1619 1609
f 1512 1509 1619
f 1610 1620 1607
f 1620 1512 1607
f 1620 1514 1512
f 1504 1515 1612
f 1621 1612 1515
f 1612 1621 1620
f 1516 1620 1621
f 1620 1516 1514
f 1517 1622 1515
f 1515 1622 1621
f 1518 1622 1517
f 1613 1520 1507
f 1520 1613 1522
f 1522 1613 1615
f 1522 1615 1523
f 1615 1623 1523
f 1615 1616 1623
f 1624 1616 1618
f 1623 1616 1624
f 1524 1625 1510
f 1625 1618 1510
f 1625 1624 1618
f 1525 1626 1524
f 1524 1626 1625
f 1526 1627 1525
f 1525 1627 1626
f 1516 1621 1526
f 1621 1627 1526
f 1621 1628 1627
f 1629 1621 1622
f 1628 1621 1629
f 1527 1630 1518
f 1630 1622 1518
f 1630 1629 1622
f 1528 1630 1527
f 1623 1531 1523
f 1531 1623 1533
f 1623 1631 1533
f 1623 1624 1631
f 1536 1631 1535
f 1631 1625 1535
f 1631 1624 1625
f 1535 1625 1538
f 1538 1625 1626
f 1538 1626 1539
f 1626 1632 1539
f 1626 1627 1632
f 1633 1627 1628
f 1632 1627 1633
f 1542 1633 1541
f 1633 1629 1541
f 1633 1628 1629
f 1541 1629 1543
f 1629 1634 1543
f 1629 1630 1634
f 1545 1634 1528
f 1528 1634 1630
f 1635 1546 1547
f 1548 1636 1547
f 1547 1636 1635
f 1550 1636 1548
f 1631 1554 1533
f 1554 1631 1536
f 1632 1557 1539
f 1557 1632 1560
f 1560 1632 1633
f 1560 1633 1542
f 1634 1562 1543
f 1562 1634 1545
f 1635 1564 1546
f 1564 1635 1565
f 1635 1637 1565
f 1635 1636 1637
f 1567 1637 1550
f 1550 1637 1636
f 1637 1571 1565
f 1571 1637 1567
f 1638 1574 1575
f 1576 1638 1575
f 1639 1578 1579
f 1640 1639 1579
f 1640 1579 1574
f 1641 1640 1574
f 1638 1641 1574
f 1643 1641 1642
f 1642 1641 1580
f 1641 1638 1580
f 1638 1576 1580
f 1581 1642 1580
f 1646 1645 1644
f 1582 1583 1644
f 1583 1646 1644
f 1583 1647 1646
f 1583 1578 1639
f 1648 1583 1639
f 1647 1583 1648
f 1648 1639 1640
f 1649 1643 1642
f 1649 1642 1581
f 1584 1649 1581
f 1650 1649 1584
f 1652 1650 1651
f 1650 1585 1651
f 1650 1584 1585
f 1586 1651 1585
f 1644 1645 1588
f 1645 1587 1588
f 1645 1653 1587
f 1644 1588 1582
f 1656 1655 1654
f 1654 1655 1652
f 1651 1654 1652
f 1657 1654 1651
f 1589 1658 1586
f 1658 1651 1586
f 1658 1657 1651
f 1591 1658 1589
f 1653 1592 1587
f 1659 1592 1653
f 1660 1656 1654
f 1662 1661 1660
f 1654 1662 1660
f 1657 1662 1654
f 1663 1657 1658
f 1662 1657 1663
f 1593 1664 1591
f 1664 1658 1591
f 1664 1663 1658
f 1594 1664 1593
f 1659 1665 1592
f 1592 1665 1595
f 1667 1666 1597
f 1595 1667 1597
f 1665 1667 1595
f 1668 1666 1667
f 1671 1670 1669
f 1673 1672 1669
f 1673 1669 1670
f 1674 1672 1673
f 1675 1661 1662
f 1677 1676 1675
f 1662 1677 1675
f 1663 1677 1662
f 1664 1679 1678
f 1677 1664 1678
f 1663 1664 1677
f 1664 1594 1679
f 1594 1680 1679
f 1594 1598 1680
f 1681 1600 1666
f 1666 1600 1597
f 1682 1602 1603
f 1666 1682 1603
f 1681 1666 1603
f 1682 1666 1668
f 1669 1605 1671
f 1605 1682 1671
f 1605 1602 1682
f 1605 1669 1606
f 1669 1683 1606
f 1669 1672 1683
f 1672 1674 1684
f 1685 1672 1684
f 1683 1672 1685
f 1608 1609 1685
f 1684 1608 1685
f 1686 1608 1684
f 1686 1676 1608
f 1677 1608 1676
f 1608 1677 1610
f 1687 1610 1677
f 1610 1687 1688
f 1611 1612 1689
f 1677 1678 1687
f 1689 1690 1611
f 1690 1598 1611
f 1690 1680 1598
f 1681 1614 1600
f 1614 1681 1603
f 1683 1617 1606
f 1617 1683 1619
f 1619 1683 1685
f 1619 1685 1609
f 1688 1691 1610
f 1610 1691 1620
f 1612 1620 1689
f 1620 1692 1689
f 1620 1691 1692
f 1689 1692 1690
f 1693 1640 1641
f 1643 1693 1641
f 1694 1645 1646
f 1694 1646 1695
f 1646 1696 1695
f 1646 1647 1696
f 1698 1696 1697
f 1696 1648 1697
f 1696 1647 1648
f 1640 1693 1648
f 1693 1697 1648
f 1693 1699 1697
f 1649 1700 1643
f 1700 1693 1643
f 1700 1699 1693
f 1650 1701 1649
f 1649 1701 1700
f 1652 1701 1650
f 1702 1653 1694
f 1694 1653 1645
f 1694 1695 1703
f 1694 1703 1702
f 1704 1698 1697
f 1704 1697 1699
f 1704 1699 1705
f 1707 1706 1705
f 1699 1707 1705
f 1700 1707 1699
f 1656 1707 1655
f 1707 1701 1655
f 1707 1700 1701
f 1655 1701 1652
f 1708 1659 1702
f 1702 1659 1653
f 1702 1703 1709
f 1710 1702 1709
f 1708 1702 1710
f 1712 1711 1710
f 1712 1710 1709
f 1714 1713 1711
f 1714 1711 1712
f 1713 1714 1706
f 1707 1713 1706
f 1715 1713 1707
f 1660 1716 1656
f 1716 1707 1656
f 1716 1715 1707
f 1661 1716 1660
f 1708 1665 1659
f 1665 1708 1667
f 1667 1708 1710
f 1667 1710 1668
f 1710 1717 1668
f 1710 1711 1717
f 1671 1717 1670
f 1717 1713 1670
f 1717 1711 1713
f 1670 1713 1673
f 1673 1713 1715
f 1673 1715 1674
f 1715 1718 1674
f 1715 1716 1718
f 1675 1719 1661
f 1719 1716 1661
f 1719 1718 1716
f 1676 1719 1675
f 1720 1678 1679
f 1680 1720 1679
f 1717 1682 1668
f 1682 1717 1671
f 1718 1684 1674
f 1684 1718 1686
f 1686 1718 1719
f 1686 1719 1676
f 1721 1688 1687
f 1678 1720 1687
f 1720 1721 1687
f 1720 1722 1721
f 1690 1722 1680
f 1680 1722 1720
f 1721 1691 1688
f 1691 1721 1692
f 1692 1721 1722
f 1692 1722 1690
f 1723 1695 1696
f 1698 1723 1696
f 1724 1703 1723
f 1723 1703 1695
f 1704 1725 1698
f 1725 1723 1698
f 1725 1724 1723
f 1705 1726 1704
f 1704 1726 1725
f 1706 1726 1705
f 1724 1709 1703
f 1709 1724 1712
f 1712 1724 1725
f 1712 1725 1714
f 1714 1725 1726
f 1714 1726 1706
