v -45.1 51.0 19.0
v -45.0 51.0 18.9
v -45.0 50.9 19.0
v -45.0 51.0 19.3
v -45.9 52.0 19.0
v -45.0 52.0 18.5
v -45.0 51.8 20.0
v -45.1 52.0 20.0
v -45.0 52.0 20.1
v -45.0 52.3 19.0
v -45.0 52.1 20.0
v -45.1 54.0 16.0
v -45.0 54.0 15.8
v -45.0 53.8 16.0
v -45.0 53.9 17.0
v -45.1 54.0 17.0
v -45.0 54.0 17.1
v -45.1 55.0 14.0
v -45.0 55.0 13.9
v -45.0 54.9 14.0
v -45.0 54.9 15.0
v -45.1 55.0 15.0
v -45.0 54.2 16.0
v -45.0 55.0 15.1
v -45.0 54.1 17.0
v -45.0 55.1 14.0
v -45.0 55.1 15.0
v -44.3 50.0 19.0
v -44.0 50.0 18.7
v -44.0 49.8 19.0
v -44.0 49.6 20.0
v -44.4 50.0 20.0
v -44.0 49.5 21.0
v -44.8 50.0 21.0
v -44.0 49.7 22.0
v -44.2 50.0 22.0
v -44.0 50.0 22.3
v -44.0 51.0 18.2
v -44.7 51.0 20.0
v -44.5 51.0 21.0
v -44.0 51.0 21.6
v -44.0 50.4 22.0
v -44.2 52.0 16.0
v -44.0 52.0 15.8
v -44.0 51.7 16.0
v -44.0 51.5 17.0
v -44.4 52.0 17.0
v -44.0 51.3 18.0
v -44.6 52.0 18.0
v -44.3 52.0 21.0
v -44.0 52.0 21.4
v -44.5 53.0 16.0
v -44.0 53.0 15.4
v -44.6 53.0 17.0
v -44.5 53.0 18.0
v -44.0 52.8 19.0
v -44.0 53.0 18.7
v -44.0 52.6 20.0
v -44.0 52.3 21.0
v -44.2 54.0 13.0
v -44.0 54.0 12.8
v -44.0 53.8 13.0
v -44.0 53.6 14.0
v -44.4 54.0 14.0
v -44.0 53.4 15.0
v -44.6 54.0 15.0
v -44.3 54.0 18.0
v -44.0 54.0 18.4
v -44.4 55.0 13.0
v -44.0 55.0 12.5
v -44.6 55.0 16.0
v -44.4 55.0 17.0
v -44.0 55.0 17.4
v -44.0 54.4 18.0
v -44.3 56.0 11.0
v -44.0 56.0 10.9
v -44.0 55.9 11.0
v -44.0 55.7 12.0
v -44.3 56.0 12.0
v -44.4 56.0 13.0
v -44.4 56.0 14.0
v -44.0 56.0 14.5
v -44.0 55.7 15.0
v -44.0 55.5 16.0
v -44.0 55.4 17.0
v -44.0 56.3 11.0
v -44.0 56.4 12.0
v -44.0 56.4 13.0
v -44.0 56.4 14.0
v -43.4 49.0 21.0
v -43.0 49.0 20.5
v -43.0 48.7 21.0
v -43.0 48.6 22.0
v -43.5 49.0 22.0
v -43.0 48.6 23.0
v -43.8 49.0 23.0
v -43.0 48.7 24.0
v -43.3 49.0 24.0
v -43.0 49.0 24.4
v -43.4 50.0 18.0
v -43.0 50.0 17.5
v -43.0 49.6 18.0
v -43.0 49.4 19.0
v -43.0 49.3 20.0
v -43.6 50.0 23.0
v -43.4 50.0 24.0
v -43.0 49.8 25.0
v -43.1 50.0 25.0
v -43.0 50.0 25.1
v -43.3 51.0 16.0
v -43.0 51.0 15.6
v -43.0 50.6 16.0
v -43.0 50.4 17.0
v -43.5 51.0 17.0
v -43.8 51.0 18.0
v -43.7 51.0 22.0
v -43.4 51.0 23.0
v -43.0 51.0 23.6
v -43.0 50.6 24.0
v -43.0 50.1 25.0
v -43.0 52.0 15.3
v -43.5 52.0 22.0
v -43.2 52.0 23.0
v -43.0 52.0 23.3
v -43.6 53.0 15.0
v -43.0 53.0 14.4
v -43.0 52.4 15.0
v -43.8 53.0 19.0
v -43.6 53.0 20.0
v -43.4 53.0 21.0
v -43.0 53.0 21.5
v -43.0 52.6 22.0
v -43.0 52.2 23.0
v -43.0 54.0 12.8
v -43.0 53.7 13.0
v -43.0 53.3 14.0
v -43.5 54.0 19.0
v -43.3 54.0 20.0
v -43.0 54.0 20.5
v -43.0 53.5 21.0
v -43.0 55.0 12.5
v -43.5 55.0 18.0
v -43.0 55.0 18.6
v -43.0 54.6 19.0
v -43.0 54.4 20.0
v -43.9 56.0 11.0
v -43.0 56.0 11.7
v -43.0 55.7 12.0
v -43.7 56.0 15.0
v -43.5 56.0 16.0
v -43.3 56.0 17.0
v -43.0 56.0 17.4
v -43.0 55.5 18.0
v -43.0 57.0 11.9
v -43.1 57.0 12.0
v -43.4 57.0 13.0
v -43.3 57.0 14.0
v -43.0 57.0 14.5
v -43.0 56.6 15.0
v -43.0 56.5 16.0
v -43.0 56.3 17.0
v -43.0 57.1 12.0
v -43.0 57.3 13.0
v -43.0 57.3 14.0
v -42.2 49.0 15.0
v -42.0 49.0 14.8
v -42.0 48.7 15.0
v -42.0 48.6 16.0
v -42.4 49.0 16.0
v -42.0 48.6 17.0
v -42.4 49.0 17.0
v -42.0 48.6 18.0
v -42.5 49.0 18.0
v -42.0 48.6 19.0
v -42.5 49.0 19.0
v -42.0 48.5 20.0
v -42.6 49.0 20.0
v -42.0 48.4 21.0
v -42.0 48.5 22.0
v -42.0 48.5 23.0
v -42.0 48.5 24.0
v -42.0 48.6 25.0
v -42.5 49.0 25.0
v -42.0 48.8 26.0
v -42.2 49.0 26.0
v -42.0 49.0 26.3
v -42.4 50.0 15.0
v -42.0 50.0 14.6
v -42.6 50.0 16.0
v -42.7 50.0 17.0
v -42.3 50.0 26.0
v -42.0 50.0 26.4
v -42.5 51.0 15.0
v -42.0 51.0 14.6
v -42.7 51.0 24.0
v -42.4 51.0 25.0
v -42.0 51.0 25.5
v -42.0 50.4 26.0
v -42.7 52.0 15.0
v -42.0 52.0 14.4
v -42.4 52.0 24.0
v -42.0 52.0 24.4
v -42.0 51.5 25.0
v -42.6 53.0 14.0
v -42.0 53.0 13.2
v -42.0 52.4 14.0
v -42.6 53.0 22.0
v -42.0 53.0 22.7
v -42.0 52.7 23.0
v -42.0 52.4 24.0
v -42.6 54.0 13.0
v -42.0 54.0 13.3
v -42.7 54.0 21.0
v -42.4 54.0 22.0
v -42.0 54.0 22.4
v -42.4 55.0 13.0
v -42.0 55.0 13.3
v -42.7 55.0 19.0
v -42.6 55.0 20.0
v -42.4 55.0 21.0
v -42.2 55.0 22.0
v -42.0 55.0 22.3
v -42.7 56.0 12.0
v -42.0 56.0 12.6
v -42.0 55.5 13.0
v -42.5 56.0 18.0
v -42.0 56.0 18.7
v -42.0 55.8 19.0
v -42.1 56.0 20.0
v -42.0 56.0 19.7
v -42.0 56.0 20.2
v -42.0 55.6 21.0
v -42.0 55.3 22.0
v -42.9 57.0 12.0
v -42.0 57.0 12.7
v -42.6 57.0 15.0
v -42.4 57.0 16.0
v -42.0 57.0 16.5
v -42.0 56.7 17.0
v -42.0 56.4 18.0
v -42.0 56.1 20.0
v -42.0 57.3 13.0
v -42.0 57.6 14.0
v -42.0 57.5 15.0
v -42.0 57.3 16.0
v -41.3 48.0 15.0
v -41.0 48.0 14.7
v -41.0 47.7 15.0
v -41.0 47.6 16.0
v -41.4 48.0 16.0
v -41.0 48.0 16.5
v -41.4 48.0 20.0
v -41.0 48.0 19.5
v -41.0 47.7 20.0
v -41.0 47.8 21.0
v -41.3 48.0 21.0
v -41.0 48.0 21.3
v -41.0 49.0 14.4
v -41.0 48.3 17.0
v -41.0 48.4 18.0
v -41.0 48.3 19.0
v -41.0 48.4 22.0
v -41.0 48.5 23.0
v -41.0 48.5 24.0
v -41.0 48.5 25.0
v -41.0 48.5 26.0
v -41.0 48.6 27.0
v -41.4 49.0 27.0
v -41.0 48.8 28.0
v -41.2 49.0 28.0
v -41.0 49.0 28.3
v -41.0 50.0 14.4
v -41.5 50.0 27.0
v -41.2 50.0 28.0
v -41.0 50.0 28.3
v -41.0 51.0 14.3
v -41.5 51.0 26.0
v -41.0 51.0 26.7
v -41.0 50.7 27.0
v -41.0 50.2 28.0
v -41.5 52.0 14.0
v -41.0 52.0 13.7
v -41.0 51.5 14.0
v -41.5 52.0 25.0
v -41.0 52.0 25.6
v -41.0 51.7 26.0
v -41.0 53.0 13.4
v -41.7 53.0 23.0
v -41.3 53.0 24.0
v -41.0 53.0 24.4
v -41.0 52.5 25.0
v -41.0 54.0 13.5
v -41.0 53.9 23.0
v -41.0 54.0 22.9
v -41.0 53.3 24.0
v -41.0 55.0 13.5
v -41.0 54.4 23.0
v -41.2 55.0 23.0
v -41.0 55.0 23.2
v -41.6 56.0 13.0
v -41.0 56.0 13.5
v -41.8 56.0 19.0
v -41.6 56.0 21.0
v -41.3 56.0 22.0
v -41.0 56.0 22.3
v -41.0 55.2 23.0
v -41.7 57.0 13.0
v -41.0 57.0 13.6
v -41.6 57.0 17.0
v -41.4 57.0 18.0
v -41.0 57.0 18.5
v -41.0 56.7 19.0
v -41.0 56.6 20.0
v -41.0 56.5 21.0
v -41.0 56.3 22.0
v -41.0 58.0 13.8
v -41.3 58.0 14.0
v -41.4 58.0 15.0
v -41.0 58.0 15.6
v -41.0 57.7 16.0
v -41.0 57.5 17.0
v -41.0 57.3 18.0
v -41.0 58.5 14.0
v -41.0 58.4 15.0
v -40.1 46.0 32.0
v -40.0 46.0 31.9
v -40.0 45.9 32.0
v -40.0 46.0 32.2
v -40.1 46.0 34.0
v -40.0 46.0 33.8
v -40.0 45.9 34.0
v -40.0 46.0 35.0
v -40.3 47.0 15.0
v -40.0 47.0 14.8
v -40.0 46.7 15.0
v -40.0 46.7 16.0
v -40.3 47.0 16.0
v -40.0 47.0 16.4
v -40.2 47.0 32.0
v -40.0 47.0 31.5
v -40.0 46.7 33.0
v -40.1 47.0 33.0
v -40.0 46.1 34.0
v -40.0 47.0 33.2
v -40.0 48.0 14.4
v -40.0 47.5 17.0
v -40.6 48.0 17.0
v -40.0 47.6 18.0
v -40.5 48.0 18.0
v -40.0 47.6 19.0
v -40.6 48.0 19.0
v -40.0 47.4 20.0
v -40.0 47.6 21.0
v -40.0 48.0 21.7
v -40.4 48.0 29.0
v -40.0 48.0 28.4
v -40.0 47.6 29.0
v -40.0 47.4 30.0
v -40.8 48.0 30.0
v -40.0 47.6 31.0
v -40.2 48.0 31.0
v -40.0 47.4 32.0
v -40.0 48.0 31.3
v -40.0 47.1 33.0
v -40.3 49.0 14.0
v -40.0 49.0 13.8
v -40.0 48.7 14.0
v -40.0 48.2 22.0
v -40.0 48.4 23.0
v -40.0 48.4 24.0
v -40.0 48.4 25.0
v -40.0 48.4 26.0
v -40.0 48.3 27.0
v -40.0 48.3 28.0
v -40.6 49.0 29.0
v -40.4 49.0 30.0
v -40.0 49.0 30.5
v -40.0 48.3 31.0
v -40.5 50.0 14.0
v -40.0 50.0 13.6
v -40.4 50.0 29.0
v -40.0 50.0 29.5
v -40.0 49.5 30.0
v -40.6 51.0 14.0
v -40.0 51.0 13.6
v -40.8 51.0 27.0
v -40.0 51.0 27.7
v -40.0 50.8 28.0
v -40.0 50.4 29.0
v -40.0 52.0 13.5
v -40.7 52.0 26.0
v -40.7 52.0 27.0
v -40.0 52.0 27.4
v -40.0 53.0 13.5
v -40.4 53.0 25.0
v -40.0 53.0 25.5
v -40.0 52.6 26.0
v -40.0 52.4 27.0
v -40.0 54.0 13.5
v -40.9 54.0 23.0
v -40.0 54.0 23.9
v -40.0 53.9 24.0
v -40.0 53.3 25.0
v -40.0 55.0 13.6
v -40.0 54.6 24.0
v -40.1 55.0 24.0
v -40.0 55.0 24.1
v -40.0 55.8 14.0
v -40.2 56.0 14.0
v -40.0 56.0 14.1
v -40.0 55.7 23.0
v -40.0 56.0 22.7
v -40.0 55.1 24.0
v -40.5 57.0 14.0
v -40.0 57.0 14.4
v -40.7 57.0 19.0
v -40.5 57.0 20.0
v -40.4 57.0 21.0
v -40.0 57.0 21.5
v -40.0 56.6 22.0
v -40.7 58.0 14.0
v -40.0 58.0 14.5
v -40.7 58.0 16.0
v -40.4 58.0 17.0
v -40.0 58.0 17.8
v -40.0 57.9 18.0
v -40.2 58.0 19.0
v -40.0 58.0 18.4
v -40.0 58.0 19.3
v -40.0 57.6 20.0
v -40.0 57.4 21.0
v -40.0 59.0 14.9
v -40.2 59.0 15.0
v -40.2 59.0 16.0
v -40.0 59.0 16.2
v -40.0 58.4 17.0
v -40.0 58.2 19.0
v -40.0 59.1 15.0
v -40.0 59.2 16.0
v -39.3 46.0 15.0
v -39.0 46.0 14.8
v -39.0 45.8 15.0
v -39.0 45.8 16.0
v -39.3 46.0 16.0
v -39.0 46.0 16.2
v -39.2 46.0 30.0
v -39.0 46.0 29.6
v -39.0 45.7 30.0
v -39.0 45.5 31.0
v -39.5 46.0 31.0
v -39.0 45.5 32.0
v -39.0 46.0 32.9
v -39.0 46.0 33.1
v -39.0 45.6 34.0
v -39.0 45.6 35.0
v -40.0 46.0 35.0
v -39.0 46.0 35.8
v -39.0 47.0 14.5
v -39.0 47.0 16.8
v -39.3 47.0 20.0
v -39.0 47.0 19.6
v -39.0 46.8 20.0
v -39.0 47.0 20.4
v -39.1 47.0 24.0
v -39.0 47.0 23.7
v -39.0 46.8 24.0
v -39.0 47.0 24.5
v -39.3 47.0 26.0
v -39.0 47.0 25.3
v -39.0 46.6 26.0
v -39.0 46.5 27.0
v -39.4 47.0 27.0
v -39.0 46.5 28.0
v -39.4 47.0 28.0
v -39.0 46.4 29.0
v -39.5 47.0 29.0
v -39.6 47.0 30.0
v -39.7 47.0 31.0
v -39.0 46.1 33.0
v -39.5 47.0 34.0
v -39.3 47.0 35.0
v -39.0 47.0 35.4
v -39.0 48.0 14.4
v -39.0 47.2 17.0
v -39.0 47.4 18.0
v -39.0 47.3 19.0
v -39.0 47.3 21.0
v -39.0 47.5 22.0
v -39.7 48.0 22.0
v -39.0 47.4 23.0
v -39.6 48.0 23.0
v -39.6 48.0 24.0
v -39.0 47.2 25.0
v -39.6 48.0 25.0
v -39.6 48.0 26.0
v -39.7 48.0 27.0
v -39.8 48.0 28.0
v -39.5 48.0 32.0
v -39.0 48.0 32.5
v -39.0 47.6 33.0
v -39.0 47.4 34.0
v -39.0 47.3 35.0
v -39.0 49.0 13.8
v -39.0 48.6 14.0
v -39.5 49.0 31.0
v -39.0 49.0 31.5
v -39.0 48.5 32.0
v -39.0 50.0 13.6
v -39.6 50.0 30.0
v -39.0 50.0 30.6
v -39.0 49.6 31.0
v -39.0 51.0 13.6
v -39.8 51.0 28.0
v -39.5 51.0 29.0
v -39.2 51.0 30.0
v -39.0 51.0 30.3
v -39.0 52.0 13.6
v -39.5 52.0 28.0
v -39.0 52.0 28.5
v -39.0 51.5 29.0
v -39.0 51.2 30.0
v -39.0 53.0 13.4
v -39.5 53.0 26.0
v -39.0 53.0 26.7
v -39.0 52.8 27.0
v -39.1 53.0 28.0
v -39.0 53.0 27.7
v -39.0 53.0 28.1
v -39.0 54.0 13.4
v -39.9 54.0 24.0
v -39.0 54.0 24.7
v -39.0 53.7 25.0
v -39.0 53.3 26.0
v -39.0 53.1 28.0
v -39.0 55.0 13.5
v -39.0 55.0 24.4
v -39.8 56.0 14.0
v -39.0 56.0 13.7
v -39.6 56.0 23.0
v -39.0 56.0 23.6
v -39.0 55.6 24.0
v -39.0 56.5 14.0
v -39.0 57.0 14.4
v -39.4 57.0 22.0
v -39.0 57.0 22.4
v -39.0 56.4 23.0
v -39.0 57.9 15.0
v -39.2 58.0 15.0
v -39.0 58.0 15.1
v -39.9 58.0 18.0
v -39.6 58.0 20.0
v -39.3 58.0 21.0
v -39.0 58.0 21.3
v -39.0 57.3 22.0
v -39.8 59.0 15.0
v -39.0 59.0 15.5
v -39.0 58.9 17.0
v -39.0 59.0 16.8
v -39.3 59.0 18.0
v -39.0 59.0 17.2
v -39.3 59.0 19.0
v -39.0 59.0 19.5
v -39.0 58.6 20.0
v -39.0 58.2 21.0
v -39.0 59.5 16.0
v -39.0 59.4 18.0
v -39.0 59.4 19.0
v -38.1 45.0 24.0
v -38.0 45.0 23.8
v -38.0 44.8 24.0
v -38.0 45.0 24.4
v -38.1 45.0 26.0
v -38.0 45.0 25.6
v -38.0 44.9 26.0
v -38.0 45.0 26.2
v -38.4 45.0 31.0
v -38.0 45.0 30.5
v -38.0 44.7 31.0
v -38.0 44.8 32.0
v -38.3 45.0 32.0
v -38.0 45.0 32.3
v -38.0 46.0 14.6
v -38.0 45.6 15.0
v -38.0 45.5 16.0
v -38.0 46.0 16.7
v -38.2 46.0 20.0
v -38.0 46.0 19.7
v -38.0 45.9 20.0
v -38.0 46.0 20.3
v -38.5 46.0 24.0
v -38.0 46.0 23.3
v -38.0 45.2 25.0
v -38.5 46.0 25.0
v -38.6 46.0 26.0
v -38.0 45.4 27.0
v -38.5 46.0 27.0
v -38.0 45.5 28.0
v -38.5 46.0 28.0
v -38.0 45.5 29.0
v -38.6 46.0 29.0
v -38.0 45.3 30.0
v -38.0 45.5 33.0
v -38.9 46.0 33.0
v -38.0 45.5 34.0
v -38.0 45.6 35.0
v -38.0 46.0 35.5
v -38.0 47.0 14.2
v -38.0 46.3 17.0
v -38.7 47.0 17.0
v -38.0 46.5 18.0
v -38.5 47.0 18.0
v -38.0 46.4 19.0
v -38.7 47.0 19.0
v -38.0 46.4 21.0
v -38.7 47.0 21.0
v -38.0 46.5 22.0
v -38.5 47.0 22.0
v -38.0 46.3 23.0
v -38.6 47.0 23.0
v -38.8 47.0 25.0
v -38.0 46.9 36.0
v -38.1 47.0 36.0
v -38.0 47.0 36.1
v -38.0 48.0 14.5
v -38.6 48.0 33.0
v -38.0 48.0 33.6
v -38.0 47.7 34.0
v -38.0 47.6 35.0
v -38.0 47.1 36.0
v -38.7 49.0 14.0
v -38.0 49.0 14.5
v -38.5 49.0 32.0
v -38.0 49.0 32.5
v -38.0 48.5 33.0
v -38.5 50.0 14.0
v -38.0 50.0 14.5
v -38.6 50.0 31.0
v -38.0 50.0 31.6
v -38.0 49.6 32.0
v -38.5 51.0 14.0
v -38.0 51.0 14.4
v -38.3 51.0 31.0
v -38.0 51.0 31.3
v -38.1 52.0 14.0
v -38.0 52.0 14.1
v -38.0 52.0 29.0
v -38.0 52.0 29.0
v -38.0 51.6 30.0
v -38.0 51.3 31.0
v -38.1 53.0 13.0
v -38.0 53.0 12.9
v -38.0 52.9 13.0
v -38.0 52.1 14.0
v -38.8 53.0 27.0
v -38.0 52.1 29.0
v -38.1 53.0 29.0
v -38.0 53.0 29.1
v -38.3 54.0 13.0
v -38.0 54.0 12.8
v -38.6 54.0 25.0
v -38.0 54.0 25.6
v -38.0 53.7 26.0
v -38.0 53.5 27.0
v -38.0 53.5 28.0
v -38.0 53.1 29.0
v -38.0 54.5 13.0
v -38.0 55.0 13.3
v -38.0 54.8 25.0
v -38.0 55.0 24.8
v -38.0 56.0 13.4
v -38.6 56.0 24.0
v -38.0 55.6 25.0
v -38.1 56.0 25.0
v -38.0 56.0 25.1
v -38.5 57.0 14.0
v -38.0 57.0 13.6
v -38.0 56.7 23.0
v -38.0 57.0 22.3
v -38.0 56.8 24.0
v -38.0 56.1 25.0
v -38.0 57.5 14.0
v -38.8 58.0 15.0
v -38.0 58.0 14.5
v -38.0 57.2 22.0
v -38.0 58.0 21.1
v -38.0 58.6 15.0
v -38.0 59.0 15.3
v -38.9 59.0 17.0
v -38.3 59.0 20.0
v -38.0 59.0 20.2
v -38.0 58.1 21.0
v -38.6 60.0 15.0
v -38.0 60.0 14.8
v -38.0 59.6 15.0
v -38.5 60.0 16.0
v -38.4 60.0 17.0
v -38.6 60.0 18.0
v -38.3 60.0 19.0
v -38.0 60.0 19.3
v -38.0 59.2 20.0
v -38.0 61.0 15.0
v -38.0 61.0 15.0
v -38.0 61.0 15.0
v -38.0 60.5 16.0
v -38.0 60.6 17.0
v -38.1 61.0 18.0
v -38.0 61.0 17.9
v -38.0 61.0 18.1
v -38.0 60.3 19.0
v -38.0 61.0 15.0
v -38.0 61.1 18.0
v -37.2 44.0 23.0
v -37.0 44.0 22.7
v -37.0 43.8 23.0
v -37.0 43.7 24.0
v -37.4 44.0 24.0
v -37.0 43.9 25.0
v -37.1 44.0 25.0
v -37.0 44.0 25.1
v -37.3 45.0 16.0
v -37.0 45.0 15.7
v -37.0 44.8 16.0
v -37.0 44.6 17.0
v -37.4 45.0 17.0
v -37.0 44.8 18.0
v -37.2 45.0 18.0
v -37.0 45.0 18.4
v -37.5 45.0 23.0
v -37.0 45.0 22.3
v -37.8 45.0 25.0
v -37.0 44.5 26.0
v -37.0 44.7 27.0
v -37.5 45.0 27.0
v -37.0 44.8 28.0
v -37.3 45.0 28.0
v -37.0 44.8 29.0
v -37.3 45.0 29.0
v -37.0 44.8 30.0
v -37.4 45.0 30.0
v -37.0 44.7 31.0
v -37.0 44.8 32.0
v -37.0 45.0 32.3
v -37.0 46.0 14.9
v -37.0 45.9 15.0
v -37.7 46.0 17.0
v -37.6 46.0 18.0
v -37.0 45.4 19.0
v -37.6 46.0 19.0
v -37.0 45.5 20.0
v -37.0 45.5 21.0
v -37.6 46.0 21.0
v -37.0 45.3 22.0
v -37.5 46.0 22.0
v -37.7 46.0 23.0
v -37.0 45.4 33.0
v -37.0 45.5 34.0
v -37.0 45.6 35.0
v -37.0 46.0 35.6
v -37.0 46.2 15.0
v -37.3 47.0 15.0
v -37.0 47.0 15.4
v -37.0 46.6 36.0
v -37.0 47.0 36.2
v -37.5 48.0 15.0
v -37.0 48.0 15.5
v -37.6 48.0 34.0
v -37.3 48.0 35.0
v -37.0 48.0 35.3
v -37.0 47.3 36.0
v -37.5 49.0 15.0
v -37.0 49.0 15.5
v -37.5 49.0 33.0
v -37.0 49.0 33.4
v -37.0 48.5 34.0
v -37.0 48.3 35.0
v -37.4 50.0 15.0
v -37.0 50.0 15.4
v -37.6 50.0 32.0
v -37.0 50.0 32.6
v -37.0 49.5 33.0
v -37.0 51.0 14.6
v -37.0 50.5 15.0
v -37.3 51.0 32.0
v -37.0 51.0 32.3
v -37.7 52.0 14.0
v -37.0 52.0 13.8
v -37.0 51.8 14.0
v -38.0 52.0 29.0
v -37.6 52.0 30.0
v -37.3 52.0 31.0
v -37.0 52.0 31.3
v -37.0 51.3 32.0
v -37.8 53.0 13.0
v -37.0 53.0 13.3
v -37.3 53.0 30.0
v -37.0 53.0 30.3
v -37.0 52.3 31.0
v -37.0 54.0 12.8
v -37.0 53.6 13.0
v -37.7 54.0 26.0
v -37.4 54.0 27.0
v -37.0 54.0 27.5
v -37.0 53.7 28.0
v -37.0 53.5 29.0
v -37.0 53.2 30.0
v -37.5 55.0 13.0
v -37.0 55.0 12.7
v -37.8 55.0 25.0
v -37.0 55.0 25.8
v -37.0 54.8 26.0
v -37.0 54.3 27.0
v -37.5 56.0 13.0
v -37.0 56.0 12.6
v -37.0 55.7 26.0
v -37.1 56.0 26.0
v -37.0 56.0 26.1
v -37.4 57.0 13.0
v -37.0 57.0 12.3
v -37.8 57.0 21.0
v -37.0 56.5 21.0
v -37.0 57.0 20.4
v -37.8 57.0 22.0
v -37.0 56.4 22.0
v -37.0 56.4 23.0
v -37.0 56.6 24.0
v -37.0 56.5 25.0
v -37.0 56.1 26.0
v -37.0 57.9 13.0
v -37.4 58.0 14.0
v -37.0 58.0 13.1
v -37.3 58.0 20.0
v -37.0 57.6 20.0
v -37.0 58.0 19.7
v -37.9 58.0 21.0
v -37.0 58.2 14.0
v -37.0 58.6 15.0
v -37.0 59.0 15.4
v -37.8 59.0 20.0
v -37.0 59.0 19.6
v -37.6 60.0 15.0
v -37.0 60.0 15.4
v -37.0 60.0 19.3
v -37.0 61.0 14.5
v -37.0 60.7 15.0
v -37.0 61.0 15.4
v -37.0 60.6 16.0
v -37.4 61.0 17.0
v -37.0 61.0 16.5
v -37.0 60.3 19.0
v -37.0 61.0 18.3
v -37.0 61.2 15.0
v -37.0 61.2 17.0
v -37.0 61.2 18.0
v -36.1 44.0 22.0
v -36.0 44.0 21.9
v -36.0 43.9 22.0
v -36.0 43.7 23.0
v -36.0 43.7 24.0
v -36.8 44.0 25.0
v -36.0 44.0 24.5
v -36.0 45.0 15.8
v -36.0 44.8 16.0
v -36.0 44.5 17.0
v -36.0 44.5 18.0
v -36.0 44.7 19.0
v -36.5 45.0 19.0
v -36.0 45.0 19.7
v -36.4 45.0 21.0
v -36.0 45.0 20.3
v -36.0 44.6 21.0
v -36.7 45.0 22.0
v -36.0 44.3 25.0
v -36.0 44.7 26.0
v -36.5 45.0 27.0
v -36.0 45.0 26.5
v -36.7 45.0 28.0
v -36.7 45.0 29.0
v -36.8 45.0 30.0
v -36.7 45.0 31.0
v -36.7 45.0 32.0
v -36.9 46.0 15.0
v -36.0 46.0 15.7
v -36.0 45.2 20.0
v -36.0 45.4 27.0
v -36.0 45.5 28.0
v -36.0 45.6 29.0
v -36.0 46.0 29.6
v -36.3 46.0 30.0
v -36.3 46.0 31.0
v -36.0 46.0 31.5
v -36.0 45.7 32.0
v -36.0 45.6 33.0
v -36.0 45.6 34.0
v -36.0 45.7 35.0
v -36.0 46.0 36.0
v -36.0 46.0 36.0
v -36.0 46.0 36.0
v -36.4 47.0 16.0
v -36.0 46.5 16.0
v -36.0 47.0 16.4
v -36.0 46.3 30.0
v -36.0 46.3 31.0
v -36.0 47.0 36.2
v -36.5 48.0 16.0
v -36.0 48.0 16.5
v -36.0 47.3 36.0
v -36.0 48.0 35.4
v -36.5 49.0 16.0
v -36.0 49.0 16.5
v -36.0 48.6 34.0
v -36.0 49.0 33.6
v -36.0 48.4 35.0
v -36.5 50.0 16.0
v -36.0 50.0 16.5
v -36.4 50.0 33.0
v -36.0 50.0 33.3
v -36.6 51.0 15.0
v -36.3 51.0 16.0
v -36.0 51.0 16.4
v -36.0 50.3 33.0
v -36.0 51.0 32.5
v -36.7 52.0 14.0
v -36.0 52.0 14.6
v -36.0 51.7 15.0
v -36.0 51.4 16.0
v -36.0 51.5 32.0
v -36.0 52.0 31.5
v -36.0 53.0 13.7
v -36.0 52.6 14.0
v -36.0 52.5 31.0
v -36.0 53.0 30.5
v -36.7 54.0 13.0
v -36.0 54.0 13.5
v -36.2 54.0 20.0
v -36.0 53.8 20.0
v -36.0 54.0 19.6
v -36.2 54.0 21.0
v -36.0 53.7 21.0
v -36.0 54.0 21.4
v -36.5 54.0 28.0
v -36.0 54.0 28.5
v -36.0 53.7 29.0
v -36.0 53.4 30.0
v -36.5 55.0 13.0
v -36.0 55.0 13.3
v -36.2 55.0 19.0
v -36.0 54.7 19.0
v -36.0 55.0 18.8
v -36.5 55.0 20.0
v -36.5 55.0 21.0
v -36.0 54.5 22.0
v -36.3 55.0 22.0
v -36.0 55.0 22.5
v -36.8 55.0 26.0
v -36.0 55.0 26.7
v -36.0 54.7 27.0
v -36.0 54.3 28.0
v -36.0 56.0 12.9
v -36.0 55.8 13.0
v -36.0 55.3 19.0
v -36.0 56.0 19.4
v -36.4 56.0 20.0
v -36.6 56.0 21.0
v -36.6 56.0 22.0
v -36.0 55.5 23.0
v -36.4 56.0 23.0
v -36.0 56.0 23.6
v -36.0 56.0 26.3
v -36.0 56.2 13.0
v -36.5 57.0 13.0
v -36.0 57.0 13.5
v -36.6 57.0 20.0
v -36.0 57.0 19.4
v -36.0 56.3 24.0
v -36.0 56.8 25.0
v -36.0 56.4 26.0
v -36.7 58.0 14.0
v -36.0 57.4 14.0
v -36.3 58.0 15.0
v -36.0 57.7 15.0
v -36.0 58.0 15.3
v -36.0 58.0 19.4
v -36.0 59.0 15.5
v -36.0 59.0 19.2
v -36.0 60.0 15.4
v -36.6 60.0 19.0
v -36.0 59.4 19.0
v -36.0 60.0 18.5
v -36.0 61.0 14.8
v -36.0 60.6 15.0
v -36.5 60.7 15.5
v -36.0 60.8 16.0
v -36.0 61.0 15.6
v -36.0 61.0 16.5
v -36.6 61.0 18.0
v -36.0 60.5 18.0
v -36.0 61.0 17.2
v -36.0 61.5 15.0
v -36.0 61.1 17.0
v -35.8 44.0 22.0
v -35.5 44.0 23.0
v -35.6 44.0 24.0
v -35.7 45.0 16.0
v -35.0 45.0 16.6
v -35.0 44.3 17.0
v -35.0 44.5 18.0
v -35.0 44.4 19.0
v -35.0 44.5 20.0
v -35.8 45.0 20.0
v -35.0 44.4 21.0
v -35.0 44.3 22.0
v -35.0 44.4 23.0
v -35.0 44.4 24.0
v -35.0 44.7 25.0
v -35.7 45.0 26.0
v -35.0 45.0 25.3
v -35.6 46.0 16.0
v -35.0 46.0 16.6
v -35.3 46.0 26.0
v -35.0 46.0 25.6
v -35.6 46.0 27.0
v -35.5 46.0 28.0
v -35.6 46.0 29.0
v -35.7 46.0 32.0
v -35.6 46.0 33.0
v -35.6 46.0 34.0
v -35.6 46.0 35.0
v -36.0 46.0 36.0
v -35.4 47.0 17.0
v -35.0 46.5 17.0
v -35.0 47.0 17.5
v -35.0 46.5 26.0
v -35.0 47.0 26.5
v -35.3 47.0 27.0
v -35.0 47.0 27.8
v -35.0 46.8 28.0
v -35.0 46.6 29.0
v -35.0 46.7 30.0
v -35.4 47.0 31.0
v -35.0 47.0 30.4
v -35.4 47.0 32.0
v -35.3 47.0 33.0
v -35.0 47.0 33.5
v -35.0 46.7 34.0
v -35.0 46.7 35.0
v -35.0 47.0 35.3
v -35.7 47.0 36.0
v -35.6 48.0 17.0
v -35.0 47.6 18.0
v -35.3 48.0 18.0
v -35.0 48.0 18.3
v -35.4 48.0 27.0
v -35.0 48.0 26.5
v -35.0 47.3 28.0
v -35.3 48.0 28.0
v -35.0 48.0 28.4
v -35.0 47.4 31.0
v -35.0 47.5 32.0
v -35.0 47.4 33.0
v -35.0 48.0 35.2
v -35.6 49.0 17.0
v -35.4 49.0 18.0
v -35.0 49.0 18.5
v -35.1 49.0 25.0
v -35.0 48.9 25.0
v -35.0 49.0 24.9
v -35.0 49.0 25.2
v -35.2 49.0 27.0
v -35.0 49.0 26.5
v -35.2 49.0 28.0
v -35.0 49.0 28.3
v -35.0 48.5 34.0
v -35.0 49.0 33.5
v -35.0 48.2 35.0
v -35.6 50.0 17.0
v -35.4 50.0 18.0
v -35.0 50.0 18.5
v -35.1 50.0 25.0
v -35.0 50.0 24.9
v -35.0 50.0 25.1
v -35.0 49.3 27.0
v -35.0 49.2 28.0
v -35.0 50.0 33.2
v -35.6 51.0 17.0
v -35.2 51.0 18.0
v -35.0 51.0 18.3
v -35.0 50.1 25.0
v -35.0 50.3 33.0
v -35.0 51.0 32.4
v -35.7 52.0 15.0
v -35.6 52.0 16.0
v -35.4 52.0 17.0
v -35.0 52.0 17.6
v -35.0 51.4 18.0
v -35.0 51.5 32.0
v -35.0 52.0 31.5
v -35.8 53.0 14.0
v -35.5 53.0 15.0
v -35.5 53.0 16.0
v -35.3 53.0 17.0
v -35.0 53.0 17.5
v -35.0 53.0 22.0
v -35.0 53.0 22.0
v -35.0 53.0 21.9
v -35.0 53.0 22.0
v -35.0 52.5 31.0
v -35.0 53.0 30.5
v -35.6 54.0 14.0
v -35.5 54.0 15.0
v -35.3 54.0 16.0
v -35.0 54.0 17.0
v -35.0 53.5 18.0
v -35.3 54.0 18.0
v -35.5 54.0 19.0
v -35.0 53.6 19.0
v -35.0 53.5 20.0
v -35.0 53.3 21.0
v -35.6 54.0 22.0
v -35.0 54.0 22.6
v -35.5 54.0 29.0
v -35.0 54.0 29.5
v -35.0 53.6 30.0
v -35.1 55.0 14.0
v -35.2 55.0 15.0
v -35.0 55.0 15.6
v -35.0 54.7 16.0
v -35.0 55.0 16.3
v -35.3 55.0 17.0
v -35.6 55.0 18.0
v -35.6 55.0 23.0
v -35.0 54.4 23.0
v -35.3 55.0 24.0
v -35.0 54.7 24.0
v -35.0 55.0 24.4
v -35.6 55.0 27.0
v -35.0 55.0 27.5
v -35.0 54.7 28.0
v -35.0 54.3 29.0
v -35.9 56.0 13.0
v -35.4 56.0 14.0
v -35.0 56.0 14.7
v -35.0 55.5 15.0
v -35.4 56.0 17.0
v -35.0 56.0 16.5
v -35.5 56.0 18.0
v -35.7 56.0 19.0
v -35.7 56.0 24.0
v -35.0 55.6 25.0
v -35.3 56.0 25.0
v -35.0 56.0 25.6
v -35.0 55.4 27.0
v -35.0 56.0 26.3
v -35.7 57.0 14.0
v -35.0 56.4 15.0
v -35.3 57.0 15.0
v -35.0 57.0 15.4
v -35.4 57.0 17.0
v -35.0 57.0 16.5
v -35.5 57.0 18.0
v -35.6 57.0 19.0
v -35.0 56.3 26.0
v -35.0 58.0 15.6
v -35.4 58.0 17.0
v -35.0 58.0 16.5
v -35.5 58.0 18.0
v -35.6 58.0 19.0
v -35.0 59.0 15.5
v -35.2 59.0 17.0
v -35.0 59.0 16.7
v -35.5 59.0 18.0
v -35.8 59.0 19.0
v -35.2 60.0 15.0
v -35.0 60.0 14.9
v -35.0 59.8 15.0
v -35.0 59.6 17.0
v -35.0 60.0 17.2
v -35.6 60.0 18.0
v -35.0 61.0 14.8
v -35.7 61.0 16.0
v -35.0 61.0 16.4
v -35.0 60.3 17.0
v -35.8 61.0 17.0
v -35.0 61.2 15.0
v -35.0 61.3 16.0
v -34.1 44.0 19.0
v -34.0 44.0 18.9
v -34.0 43.9 19.0
v -34.0 43.6 20.0
v -34.5 44.0 20.0
v -34.0 43.6 21.0
v -34.5 44.0 21.0
v -34.0 43.7 22.0
v -34.5 44.0 22.0
v -34.0 44.0 22.5
v -34.7 45.0 17.0
v -34.4 45.0 18.0
v -34.0 45.0 18.4
v -34.0 44.3 23.0
v -34.0 44.7 24.0
v -34.7 45.0 25.0
v -34.0 45.0 24.3
v -34.7 46.0 17.0
v -34.0 46.0 17.8
v -34.0 45.7 18.0
v -34.5 46.0 25.0
v -34.0 46.0 24.5
v -34.5 47.0 18.0
v -34.0 46.3 18.0
v -34.0 47.0 18.4
v -34.4 47.0 25.0
v -34.0 47.0 24.4
v -34.7 47.0 26.0
v -34.9 47.0 28.0
v -34.7 47.0 29.0
v -34.8 47.0 30.0
v -34.7 47.0 34.0
v -34.8 47.0 35.0
v -34.3 48.0 19.0
v -34.0 47.7 19.0
v -34.0 48.0 19.3
v -34.3 48.0 24.0
v -34.0 47.5 24.0
v -34.0 48.0 23.7
v -34.6 48.0 25.0
v -34.6 48.0 26.0
v -34.6 48.0 29.0
v -34.5 48.0 30.0
v -34.6 48.0 31.0
v -34.6 48.0 32.0
v -34.6 48.0 33.0
v -34.6 48.0 34.0
v -34.8 48.0 35.0
v -34.5 49.0 19.0
v -34.0 49.0 19.6
v -34.5 49.0 24.0
v -34.0 49.0 23.5
v -34.7 49.0 26.0
v -34.5 49.0 29.0
v -34.5 49.0 30.0
v -34.5 49.0 31.0
v -34.5 49.0 32.0
v -34.6 49.0 33.0
v -34.5 50.0 19.0
v -34.0 50.0 20.0
v -34.0 50.0 20.0
v -34.0 50.0 20.0
v -34.5 50.0 24.0
v -34.0 50.0 23.5
v -34.6 50.0 26.0
v -34.4 50.0 27.0
v -34.0 50.0 27.6
v -34.0 49.7 28.0
v -34.0 49.7 29.0
v -34.0 50.0 29.5
v -34.3 50.0 30.0
v -34.4 50.0 31.0
v -34.4 50.0 32.0
v -34.8 50.0 33.0
v -34.0 51.0 18.7
v -34.0 50.7 19.0
v -34.0 50.0 20.0
v -34.2 51.0 24.0
v -34.0 51.0 23.8
v -34.4 51.0 25.0
v -34.3 51.0 26.0
v -34.0 51.0 26.4
v -34.0 50.5 27.0
v -34.0 50.3 30.0
v -34.0 50.4 31.0
v -34.0 50.6 32.0
v -34.0 51.0 32.3
v -34.6 52.0 18.0
v -34.0 52.0 18.6
v -34.0 52.0 21.0
v -34.0 52.0 21.0
v -34.0 52.0 21.0
v -34.0 52.0 21.0
v -34.0 51.2 24.0
v -34.0 51.5 25.0
v -34.0 51.3 26.0
v -34.0 51.4 32.0
v -34.0 52.0 31.6
v -34.6 53.0 18.0
v -34.0 53.0 18.7
v -34.6 53.0 21.0
v -34.0 53.0 20.3
v -34.0 52.5 22.0
v -34.0 53.0 22.6
v -34.0 52.6 31.0
v -34.0 53.0 30.6
v -34.0 53.2 19.0
v -34.0 53.2 20.0
v -34.0 53.5 23.0
v -34.6 54.0 23.0
v -34.0 54.0 23.6
v -34.1 54.0 30.0
v -34.0 54.0 30.0
v -34.8 55.0 16.0
v -34.0 54.3 24.0
v -34.4 55.0 25.0
v -34.0 54.7 25.0
v -34.0 55.0 25.3
v -34.3 55.0 28.0
v -34.0 55.0 28.2
v -34.0 54.5 29.0
v -34.0 54.0 30.0
v -34.8 56.0 15.0
v -34.6 56.0 16.0
v -34.0 56.0 25.8
v -34.0 55.6 27.0
v -34.0 56.0 26.3
v -34.0 55.1 28.0
v -34.0 57.0 16.0
v -34.0 57.0 16.0
v -34.0 57.0 16.0
v -34.0 56.2 26.0
v -34.0 58.0 15.7
v -34.0 58.0 16.3
v -34.0 59.0 15.8
v -34.0 59.0 16.2
v -34.9 60.0 15.0
v -34.0 60.0 15.7
v -34.8 60.0 17.0
v -34.0 60.0 16.2
v -34.8 61.0 15.0
v -34.0 60.9 16.0
v -34.1 61.0 16.0
v -33.9 44.0 19.0
v -33.0 44.0 19.6
v -33.0 43.7 20.0
v -33.0 43.6 21.0
v -33.0 43.2 22.0
v -33.0 43.9 23.0
v -33.1 44.0 23.0
v -33.0 44.0 23.1
v -33.4 45.0 19.0
v -33.0 45.0 19.3
v -33.0 45.0 23.4
v -33.7 45.0 24.0
v -33.8 46.0 18.0
v -33.0 46.0 18.7
v -33.0 45.5 19.0
v -33.5 46.0 24.0
v -33.0 46.0 23.5
v -33.0 47.0 18.8
v -33.6 47.0 24.0
v -33.0 47.0 23.3
v -33.0 47.3 19.0
v -33.0 48.0 19.7
v -33.4 48.0 23.0
v -33.0 47.5 23.0
v -33.0 48.0 22.6
v -33.0 48.5 20.0
v -33.5 49.0 20.0
v -33.0 49.0 20.4
v -33.5 49.0 23.0
v -33.0 49.0 22.5
v -33.0 50.0 20.5
v -33.4 50.0 23.0
v -33.0 50.0 22.6
v -33.8 50.0 28.0
v -33.7 50.0 29.0
v -33.7 51.0 19.0
v -33.0 51.0 19.9
v -33.0 50.9 20.0
v -33.0 50.6 23.0
v -33.0 51.0 23.3
v -33.6 51.0 27.0
v -33.4 51.0 28.0
v -33.4 51.0 29.0
v -33.3 51.0 30.0
v -33.0 51.0 30.4
v -33.0 50.6 31.0
v -33.0 50.8 32.0
v -33.0 51.0 32.2
v -33.6 52.0 19.0
v -33.0 51.1 20.0
v -33.5 52.0 20.0
v -33.0 51.4 21.0
v -33.0 52.0 21.7
v -33.0 51.7 24.0
v -33.4 52.0 25.0
v -33.0 52.0 24.4
v -33.2 52.0 26.0
v -33.0 52.0 26.3
v -33.0 51.6 27.0
v -33.0 51.4 28.0
v -33.0 51.4 29.0
v -33.0 51.3 30.0
v -33.4 52.0 32.0
v -33.0 52.0 32.2
v -33.8 53.0 19.0
v -33.8 53.0 20.0
v -33.0 52.2 22.0
v -33.5 53.0 23.0
v -33.0 52.5 23.0
v -33.0 53.0 23.6
v -33.0 52.5 25.0
v -33.0 52.2 26.0
v -33.0 53.0 31.0
v -33.0 53.0 31.0
v -33.0 52.3 32.0
v -33.7 54.0 24.0
v -33.0 53.3 24.0
v -33.3 54.0 25.0
v -33.0 53.6 25.0
v -33.0 54.0 25.3
v -33.2 54.0 29.0
v -33.0 53.9 29.0
v -33.0 54.0 28.9
v -34.0 54.0 30.0
v -33.0 53.1 30.0
v -33.0 53.0 31.0
v -33.0 55.0 25.6
v -33.7 55.0 28.0
v -33.0 54.6 28.0
v -33.0 55.0 27.5
v -33.0 55.9 26.0
v -33.2 56.0 26.0
v -33.0 55.4 27.0
v -34.0 57.0 16.0
v -33.4 58.0 16.0
v -33.8 59.0 16.0
v -33.8 60.0 16.0
v -32.7 44.0 20.0
v -32.6 44.0 21.0
v -32.6 44.0 22.0
v -32.9 44.0 23.0
v -32.1 45.0 20.0
v -32.3 45.0 21.0
v -32.5 45.0 22.0
v -32.6 45.0 23.0
v -32.7 46.0 19.0
v -32.3 46.0 20.0
v -32.0 46.0 20.8
v -32.0 45.8 21.0
v -32.0 46.0 21.2
v -32.4 46.0 22.0
v -32.6 46.0 23.0
v -32.8 47.0 19.0
v -32.4 47.0 20.0
v -32.0 47.0 20.9
v -32.4 47.0 22.0
v -32.0 47.0 21.1
v -32.7 47.0 23.0
v -32.7 48.0 20.0
v -32.0 47.2 21.0
v -32.4 48.0 21.0
v -32.6 48.0 22.0
v -32.2 49.0 21.0
v -32.5 49.0 22.0
v -32.5 50.0 21.0
v -32.6 50.0 22.0
v -32.9 51.0 20.0
v -32.6 51.0 21.0
v -32.5 51.0 22.0
v -32.7 51.0 23.0
v -32.0 51.0 30.9
v -32.0 50.9 31.0
v -32.7 51.0 32.0
v -32.0 51.0 31.1
v -32.8 52.0 22.0
v -32.6 52.0 23.0
v -32.8 52.0 24.0
v -32.1 52.0 27.0
v -32.0 52.0 27.1
v -32.0 51.7 28.0
v -32.0 51.5 29.0
v -32.0 51.5 30.0
v -32.0 51.8 32.0
v -32.0 52.0 32.1
v -32.8 53.0 24.0
v -32.6 53.0 25.0
v -32.0 53.0 25.5
v -32.0 52.1 26.0
v -32.0 52.0 27.0
v -32.9 53.0 31.0
v -32.0 52.8 31.0
v -32.0 53.0 30.8
v -32.0 52.3 32.0
v -32.0 54.0 25.6
v -32.9 54.0 29.0
v -32.0 54.0 29.8
v -32.0 53.8 30.0
v -32.0 54.5 26.0
v -32.5 55.0 26.0
v -32.5 55.0 27.0
v -32.0 54.7 27.0
v -32.0 54.7 28.0
v -32.2 55.0 29.0
v -32.0 55.0 28.5
v -32.0 54.9 30.0
v -32.0 55.0 30.0
v -32.0 55.0 30.1
v -32.0 55.3 29.0
v -32.0 55.0 30.0
v -31.9 46.0 21.0
v -31.9 47.0 21.0
v -31.9 51.0 31.0
v -31.4 52.0 28.0
v -31.0 52.0 28.5
v -31.0 51.8 29.0
v -31.0 51.8 30.0
v -31.4 52.0 31.0
v -31.0 52.0 30.4
v -31.9 52.0 32.0
v -31.0 53.0 25.7
v -31.0 52.6 26.0
v -31.0 52.0 27.0
v -31.0 52.3 28.0
v -31.7 53.0 31.0
v -31.0 52.6 31.0
v -31.0 53.0 31.7
v -31.0 54.0 25.7
v -31.7 54.0 30.0
v -31.2 54.0 31.0
v -31.0 54.0 31.3
v -31.0 54.4 26.0
v -31.5 55.0 27.0
v -31.0 55.0 26.7
v -31.7 55.0 28.0
v -31.9 55.0 30.0
v -31.0 55.0 29.8
v -31.0 54.7 30.0
v -31.0 54.2 31.0
v -31.0 55.2 27.0
v -31.0 55.5 28.0
v -31.0 55.8 29.0
v -30.8 52.0 29.0
v -30.8 52.0 30.0
v -30.6 53.0 26.0
v -30.0 53.0 26.8
v -30.0 52.8 27.0
v -30.4 53.0 28.0
v -30.0 53.0 27.3
v -30.4 53.0 29.0
v -30.5 53.0 30.0
v -30.8 53.0 31.0
v -30.0 54.0 25.9
v -30.0 53.9 26.0
v -30.0 53.4 28.0
v -30.0 53.6 29.0
v -30.0 54.0 29.4
v -30.5 54.0 30.0
v -30.9 54.0 31.0
v -30.0 54.1 26.0
v -30.0 55.0 26.8
v -30.0 55.0 29.7
v -30.0 55.2 27.0
v -30.0 55.4 28.0
v -30.0 55.4 29.0
v -29.9 53.0 27.0
v -29.9 54.0 26.0
v -29.6 54.0 27.0
v -29.6 54.0 28.0
v -29.7 54.0 29.0
v -29.8 55.0 27.0
v -29.7 55.0 28.0
v -29.7 55.0 29.0
f 3 2 1
f 1 4 3
f 1 2 5
f 5 2 6
f 4 1 7
f 1 8 7
f 1 5 8
f 8 9 7
f 6 10 5
f 5 10 8
f 8 10 11
f 8 11 9
f 14 13 12
f 16 15 12
f 12 15 14
f 16 17 15
f 20 19 18
f 22 21 18
f 18 21 20
f 23 12 13
f 22 24 21
f 12 23 16
f 16 23 25
f 16 25 17
f 19 26 18
f 18 26 22
f 22 26 27
f 22 27 24
f 30 29 28
f 32 31 28
f 28 31 30
f 34 33 32
f 32 33 31
f 36 35 34
f 34 35 33
f 36 37 35
f 28 29 3
f 29 2 3
f 29 38 2
f 28 3 4
f 39 28 4
f 32 28 39
f 32 40 34
f 32 39 40
f 42 36 41
f 36 40 41
f 36 34 40
f 36 42 37
f 45 44 43
f 47 46 43
f 43 46 45
f 49 48 47
f 47 48 46
f 38 48 49
f 6 38 49
f 2 38 6
f 7 39 4
f 39 7 9
f 50 39 9
f 40 39 50
f 41 40 51
f 51 40 50
f 43 44 52
f 52 44 53
f 43 54 47
f 43 52 54
f 47 55 49
f 47 54 55
f 49 55 6
f 55 56 6
f 56 10 6
f 55 57 56
f 10 58 11
f 56 58 10
f 9 11 50
f 11 59 50
f 11 58 59
f 50 59 51
f 62 61 60
f 64 63 60
f 60 63 62
f 66 65 64
f 64 65 63
f 65 66 53
f 53 66 52
f 66 13 52
f 13 14 52
f 52 14 15
f 52 15 54
f 54 15 17
f 67 54 17
f 55 54 67
f 57 55 68
f 68 55 67
f 60 61 69
f 69 61 70
f 69 19 20
f 64 69 20
f 60 69 64
f 64 20 21
f 64 21 66
f 71 21 24
f 71 66 21
f 71 23 13
f 66 71 13
f 72 25 23
f 72 23 71
f 72 73 25
f 25 73 17
f 73 74 17
f 74 67 17
f 67 74 68
f 77 76 75
f 79 78 75
f 75 78 77
f 78 79 70
f 79 69 70
f 79 80 69
f 81 26 19
f 69 81 19
f 80 81 69
f 26 81 82
f 83 26 82
f 27 26 83
f 24 27 71
f 27 84 71
f 27 83 84
f 71 84 72
f 72 84 85
f 72 85 73
f 76 86 75
f 75 86 79
f 79 86 87
f 79 87 80
f 80 87 88
f 80 88 81
f 81 88 89
f 81 89 82
f 92 91 90
f 94 93 90
f 90 93 92
f 96 95 94
f 94 95 93
f 98 97 96
f 96 97 95
f 98 99 97
f 102 101 100
f 29 30 100
f 30 102 100
f 30 103 102
f 104 30 31
f 104 103 30
f 33 90 91
f 104 33 91
f 31 33 104
f 90 33 35
f 90 35 94
f 94 35 37
f 105 94 37
f 96 94 105
f 96 106 98
f 96 105 106
f 99 98 107
f 98 108 107
f 98 106 108
f 108 109 107
f 112 111 110
f 114 113 110
f 110 113 112
f 113 114 101
f 114 100 101
f 114 115 100
f 115 38 29
f 115 29 100
f 41 116 42
f 105 37 42
f 116 105 42
f 117 105 116
f 119 106 118
f 106 117 118
f 106 105 117
f 106 119 108
f 108 119 120
f 108 120 109
f 110 111 45
f 111 44 45
f 111 121 44
f 110 45 46
f 110 46 114
f 114 46 48
f 114 48 115
f 115 48 38
f 51 122 116
f 51 116 41
f 116 123 117
f 116 122 123
f 118 117 124
f 124 117 123
f 127 126 125
f 121 127 125
f 53 121 125
f 44 121 53
f 57 128 56
f 129 58 56
f 129 56 128
f 130 59 58
f 130 58 129
f 130 131 59
f 59 131 51
f 131 132 51
f 132 122 51
f 122 132 123
f 123 132 133
f 123 133 124
f 135 134 62
f 62 134 61
f 136 62 63
f 136 135 62
f 65 125 126
f 136 65 126
f 63 65 136
f 125 65 53
f 68 137 128
f 68 128 57
f 128 138 129
f 128 137 138
f 140 130 139
f 130 138 139
f 130 129 138
f 130 140 131
f 134 70 61
f 141 70 134
f 73 142 74
f 142 143 74
f 74 143 68
f 143 144 68
f 144 137 68
f 137 144 138
f 138 144 145
f 138 145 139
f 146 76 77
f 146 77 147
f 77 148 147
f 77 78 148
f 78 70 141
f 78 141 148
f 82 149 83
f 150 84 83
f 150 83 149
f 151 85 84
f 151 84 150
f 151 152 85
f 85 152 73
f 152 153 73
f 153 142 73
f 142 153 143
f 146 86 76
f 87 86 146
f 154 87 146
f 147 154 146
f 155 87 154
f 156 88 87
f 156 87 155
f 157 89 88
f 157 88 156
f 157 158 89
f 89 158 82
f 158 159 82
f 159 149 82
f 149 159 150
f 150 159 160
f 150 160 151
f 151 160 161
f 151 161 152
f 154 162 155
f 155 162 156
f 156 162 163
f 156 163 157
f 157 163 164
f 157 164 158
f 167 166 165
f 169 168 165
f 165 168 167
f 171 170 169
f 169 170 168
f 173 172 171
f 171 172 170
f 175 174 173
f 173 174 172
f 177 176 175
f 175 176 174
f 91 92 177
f 92 176 177
f 92 178 176
f 179 92 93
f 179 178 92
f 180 93 95
f 180 179 93
f 181 95 97
f 181 180 95
f 183 182 99
f 182 97 99
f 182 181 97
f 185 184 183
f 183 184 182
f 185 186 184
f 165 166 187
f 187 166 188
f 165 189 169
f 165 187 189
f 169 190 171
f 169 189 190
f 190 101 102
f 173 190 102
f 171 190 173
f 173 102 103
f 173 103 175
f 175 103 104
f 175 104 177
f 177 104 91
f 107 183 99
f 183 107 109
f 191 183 109
f 185 183 191
f 186 185 192
f 192 185 191
f 187 188 193
f 193 188 194
f 193 111 112
f 189 193 112
f 187 193 189
f 189 112 113
f 189 113 190
f 190 113 101
f 118 195 119
f 196 120 119
f 196 119 195
f 196 197 120
f 120 197 109
f 197 198 109
f 198 191 109
f 191 198 192
f 193 194 199
f 199 194 200
f 199 121 111
f 199 111 193
f 124 201 195
f 124 195 118
f 203 196 202
f 196 201 202
f 196 195 201
f 196 203 197
f 206 205 204
f 206 204 200
f 200 204 199
f 204 126 199
f 126 127 199
f 199 127 121
f 131 207 132
f 132 207 208
f 209 132 208
f 133 132 209
f 124 133 201
f 133 210 201
f 133 209 210
f 201 210 202
f 211 134 135
f 205 212 204
f 212 135 204
f 135 136 204
f 135 212 211
f 204 136 126
f 139 213 140
f 207 131 140
f 213 207 140
f 214 207 213
f 208 207 215
f 215 207 214
f 216 141 211
f 211 141 134
f 211 212 217
f 211 217 216
f 143 218 144
f 219 145 144
f 219 144 218
f 213 139 145
f 219 213 145
f 220 213 219
f 213 221 214
f 213 220 221
f 215 214 222
f 222 214 221
f 223 147 148
f 224 223 148
f 224 148 141
f 225 224 141
f 216 225 141
f 225 216 217
f 152 226 153
f 226 227 153
f 153 227 143
f 227 228 143
f 228 218 143
f 230 229 228
f 229 218 228
f 229 219 218
f 232 220 231
f 220 229 231
f 220 219 229
f 220 232 221
f 221 232 233
f 221 233 222
f 234 154 223
f 223 154 147
f 223 224 235
f 223 235 234
f 158 236 159
f 237 160 159
f 237 159 236
f 160 237 238
f 239 160 238
f 161 160 239
f 152 161 226
f 161 240 226
f 161 239 240
f 226 240 227
f 230 241 229
f 229 241 231
f 234 162 154
f 235 242 234
f 242 162 234
f 242 163 162
f 163 243 164
f 242 243 163
f 158 164 236
f 164 244 236
f 164 243 244
f 236 244 237
f 237 244 245
f 237 245 238
f 248 247 246
f 250 249 246
f 246 249 248
f 250 251 249
f 254 253 252
f 256 255 252
f 252 255 254
f 256 257 255
f 246 247 167
f 247 166 167
f 247 258 166
f 246 167 168
f 246 168 250
f 259 251 250
f 168 259 250
f 170 259 168
f 260 170 172
f 260 259 170
f 261 172 174
f 261 260 172
f 176 252 253
f 261 176 253
f 174 176 261
f 252 176 178
f 252 178 256
f 262 257 256
f 178 262 256
f 179 262 178
f 263 179 180
f 263 262 179
f 264 180 181
f 264 263 180
f 265 181 182
f 265 264 181
f 266 182 184
f 266 265 182
f 268 267 186
f 267 184 186
f 267 266 184
f 270 269 268
f 268 269 267
f 270 271 269
f 258 188 166
f 272 188 258
f 192 273 268
f 192 268 186
f 268 274 270
f 268 273 274
f 271 270 275
f 275 270 274
f 272 194 188
f 276 194 272
f 197 277 198
f 277 278 198
f 198 278 192
f 278 279 192
f 279 273 192
f 273 279 274
f 274 279 280
f 274 280 275
f 283 282 281
f 276 283 281
f 200 276 281
f 194 276 200
f 202 284 203
f 284 285 203
f 203 285 197
f 285 286 197
f 286 277 197
f 277 286 278
f 281 282 206
f 282 205 206
f 282 287 205
f 281 206 200
f 208 288 209
f 289 210 209
f 289 209 288
f 289 290 210
f 210 290 202
f 290 291 202
f 291 284 202
f 284 291 285
f 287 212 205
f 292 212 287
f 294 293 288
f 208 294 288
f 215 294 208
f 288 293 289
f 289 293 295
f 289 295 290
f 292 217 212
f 296 217 292
f 222 298 297
f 294 222 297
f 215 222 294
f 298 299 297
f 300 224 225
f 301 300 225
f 217 301 225
f 296 301 217
f 227 302 228
f 302 230 228
f 231 303 232
f 304 233 232
f 304 232 303
f 304 305 233
f 233 305 222
f 305 306 222
f 306 298 222
f 298 306 299
f 307 235 300
f 300 235 224
f 300 301 308
f 300 308 307
f 238 309 239
f 310 240 239
f 310 239 309
f 310 311 240
f 240 311 227
f 311 312 227
f 312 302 227
f 302 312 230
f 312 241 230
f 312 313 241
f 231 241 303
f 241 314 303
f 241 313 314
f 303 314 304
f 304 314 315
f 304 315 305
f 307 242 235
f 243 242 307
f 316 243 307
f 308 316 307
f 317 243 316
f 318 244 243
f 318 243 317
f 244 318 319
f 320 244 319
f 245 244 320
f 238 245 309
f 245 321 309
f 245 320 321
f 309 321 310
f 310 321 322
f 310 322 311
f 316 323 317
f 317 323 318
f 318 323 324
f 318 324 319
f 327 326 325
f 325 328 327
f 331 330 329
f 329 332 331
f 335 334 333
f 337 336 333
f 333 336 335
f 337 338 336
f 325 326 339
f 339 326 340
f 328 325 341
f 325 342 341
f 325 339 342
f 343 329 330
f 342 344 341
f 329 343 332
f 333 334 248
f 334 247 248
f 334 345 247
f 333 248 249
f 333 249 337
f 347 346 251
f 251 346 249
f 346 338 249
f 338 337 249
f 349 348 347
f 347 348 346
f 351 350 349
f 349 350 348
f 253 254 351
f 254 350 351
f 254 352 350
f 353 254 255
f 353 352 254
f 255 257 353
f 353 257 354
f 357 356 355
f 359 358 355
f 355 358 357
f 361 360 359
f 359 360 358
f 362 339 340
f 361 363 360
f 339 362 342
f 342 362 364
f 342 364 344
f 367 366 365
f 345 367 365
f 258 345 365
f 247 345 258
f 259 347 251
f 347 259 260
f 347 260 349
f 349 260 261
f 349 261 351
f 351 261 253
f 368 354 257
f 368 257 262
f 369 262 263
f 369 368 262
f 370 263 264
f 370 369 263
f 371 264 265
f 371 370 264
f 372 265 266
f 372 371 265
f 373 266 267
f 373 372 266
f 374 267 269
f 374 373 267
f 375 355 271
f 355 374 271
f 374 269 271
f 355 356 374
f 355 376 359
f 355 375 376
f 378 361 377
f 361 376 377
f 361 359 376
f 361 378 363
f 365 366 379
f 379 366 380
f 379 272 258
f 379 258 365
f 275 381 375
f 275 375 271
f 383 376 382
f 376 381 382
f 376 375 381
f 376 383 377
f 379 380 384
f 384 380 385
f 384 276 272
f 384 272 379
f 278 386 279
f 279 386 387
f 388 279 387
f 280 279 388
f 275 280 381
f 280 389 381
f 280 388 389
f 381 389 382
f 384 385 283
f 385 282 283
f 385 390 282
f 384 283 276
f 285 391 286
f 386 278 286
f 391 386 286
f 392 386 391
f 387 386 393
f 393 386 392
f 390 287 282
f 394 287 390
f 290 395 291
f 395 396 291
f 291 396 285
f 396 397 285
f 397 391 285
f 391 397 392
f 392 397 398
f 392 398 393
f 394 292 287
f 399 292 394
f 294 400 293
f 293 400 401
f 402 293 401
f 295 293 402
f 290 295 395
f 295 403 395
f 295 402 403
f 395 403 396
f 399 296 292
f 404 296 399
f 297 400 294
f 406 405 299
f 299 405 297
f 405 401 297
f 401 400 297
f 406 407 405
f 409 301 408
f 301 404 408
f 301 296 404
f 410 409 408
f 412 411 306
f 412 306 305
f 299 306 406
f 306 413 406
f 306 411 413
f 406 413 407
f 414 308 409
f 409 308 301
f 409 410 415
f 409 415 414
f 311 416 312
f 417 313 312
f 417 312 416
f 418 314 313
f 418 313 417
f 314 418 419
f 420 314 419
f 315 314 420
f 305 315 412
f 412 315 420
f 421 316 414
f 414 316 308
f 414 415 422
f 414 422 421
f 319 423 320
f 424 321 320
f 424 320 423
f 321 424 425
f 426 321 425
f 322 321 426
f 322 426 311
f 426 427 311
f 427 416 311
f 427 426 428
f 430 417 429
f 417 427 429
f 417 416 427
f 417 430 418
f 418 430 431
f 418 431 419
f 421 323 316
f 324 323 421
f 432 324 421
f 422 432 421
f 433 324 432
f 423 319 324
f 433 423 324
f 434 423 433
f 436 424 435
f 424 434 435
f 424 423 434
f 424 436 425
f 428 437 427
f 427 437 429
f 432 438 433
f 433 438 434
f 434 438 439
f 434 439 435
f 442 441 440
f 444 443 440
f 440 443 442
f 444 445 443
f 448 447 446
f 450 449 446
f 446 449 448
f 326 327 450
f 327 449 450
f 327 451 449
f 327 328 451
f 451 328 452
f 454 453 331
f 331 453 330
f 456 455 332
f 455 331 332
f 455 454 331
f 456 457 455
f 440 441 335
f 441 334 335
f 441 458 334
f 440 335 336
f 440 336 444
f 336 338 444
f 338 445 444
f 338 459 445
f 462 461 460
f 460 463 462
f 466 465 464
f 464 467 466
f 470 469 468
f 472 471 468
f 468 471 470
f 474 473 472
f 472 473 471
f 476 475 474
f 474 475 473
f 475 476 447
f 476 446 447
f 476 477 446
f 446 478 450
f 446 477 478
f 478 340 326
f 478 326 450
f 479 452 328
f 479 328 341
f 453 343 330
f 343 453 480
f 479 480 453
f 480 479 344
f 341 344 479
f 456 332 343
f 480 456 343
f 481 456 480
f 457 456 482
f 482 456 481
f 458 345 334
f 483 345 458
f 484 459 338
f 484 338 346
f 485 346 348
f 485 484 346
f 486 348 350
f 486 485 348
f 352 460 461
f 486 352 461
f 350 352 486
f 487 463 460
f 352 487 460
f 353 487 352
f 489 488 354
f 488 353 354
f 488 487 353
f 491 490 489
f 489 490 488
f 490 491 465
f 491 464 465
f 491 492 464
f 467 464 493
f 464 494 493
f 464 492 494
f 493 494 469
f 494 468 469
f 494 495 468
f 468 496 472
f 468 495 496
f 472 497 474
f 472 496 497
f 497 356 357
f 476 497 357
f 474 497 476
f 476 357 358
f 476 358 477
f 477 358 360
f 477 360 478
f 498 360 363
f 498 478 360
f 498 362 340
f 478 498 340
f 362 498 499
f 500 362 499
f 364 362 500
f 344 364 480
f 364 501 480
f 364 500 501
f 480 501 481
f 481 501 502
f 481 502 482
f 504 503 367
f 367 503 366
f 367 345 483
f 367 483 504
f 368 489 354
f 489 368 369
f 489 369 491
f 491 369 370
f 491 370 492
f 492 370 371
f 492 371 494
f 494 371 372
f 494 372 495
f 495 372 373
f 495 373 496
f 496 373 374
f 496 374 497
f 497 374 356
f 377 505 378
f 505 506 378
f 378 506 363
f 506 507 363
f 507 498 363
f 498 507 499
f 503 380 366
f 508 380 503
f 382 509 383
f 509 510 383
f 383 510 377
f 510 511 377
f 511 505 377
f 505 511 506
f 508 385 380
f 512 385 508
f 387 513 388
f 514 389 388
f 514 388 513
f 509 382 389
f 514 509 389
f 515 509 514
f 510 509 516
f 516 509 515
f 512 390 385
f 517 390 512
f 393 518 513
f 393 513 387
f 520 514 519
f 514 518 519
f 514 513 518
f 514 520 515
f 515 520 521
f 515 521 516
f 517 394 390
f 522 394 517
f 396 523 397
f 397 523 524
f 525 397 524
f 398 397 525
f 398 525 393
f 525 526 393
f 526 518 393
f 526 525 527
f 519 518 528
f 528 518 526
f 522 399 394
f 529 399 522
f 401 530 402
f 402 530 531
f 532 402 531
f 403 402 532
f 396 403 523
f 403 533 523
f 403 532 533
f 523 533 524
f 527 534 526
f 526 534 528
f 529 404 399
f 535 404 529
f 405 530 401
f 405 407 530
f 407 531 530
f 407 536 531
f 408 404 537
f 404 538 537
f 404 535 538
f 537 410 408
f 412 539 411
f 411 539 540
f 541 411 540
f 413 411 541
f 407 413 536
f 536 413 541
f 538 542 537
f 410 537 542
f 543 410 542
f 415 410 543
f 419 544 420
f 544 545 420
f 420 545 412
f 545 546 412
f 546 539 412
f 539 546 540
f 548 422 547
f 422 543 547
f 422 415 543
f 549 548 547
f 425 550 426
f 550 428 426
f 429 551 430
f 552 431 430
f 552 430 551
f 552 553 431
f 431 553 419
f 553 554 419
f 554 544 419
f 544 554 545
f 555 432 548
f 548 432 422
f 548 549 556
f 548 556 555
f 558 557 436
f 558 436 435
f 436 557 425
f 557 559 425
f 559 550 425
f 559 557 560
f 561 437 428
f 550 561 428
f 559 561 550
f 561 562 437
f 437 562 429
f 562 563 429
f 563 551 429
f 551 563 552
f 552 563 564
f 552 564 553
f 555 438 432
f 556 565 555
f 565 438 555
f 565 439 438
f 435 439 558
f 558 439 565
f 560 566 559
f 559 566 561
f 561 566 567
f 561 567 562
f 570 569 568
f 568 571 570
f 574 573 572
f 572 575 574
f 578 577 576
f 580 579 576
f 576 579 578
f 580 581 579
f 583 582 442
f 442 582 441
f 584 442 443
f 584 583 442
f 443 445 584
f 584 445 585
f 588 587 586
f 586 589 588
f 568 569 590
f 590 569 591
f 571 568 592
f 568 593 592
f 568 590 593
f 592 593 573
f 593 572 573
f 593 594 572
f 575 572 595
f 572 596 595
f 572 594 596
f 598 597 596
f 596 597 595
f 600 599 598
f 598 599 597
f 447 448 600
f 448 599 600
f 448 601 599
f 449 576 577
f 601 449 577
f 448 449 601
f 576 449 451
f 576 451 580
f 603 602 452
f 452 602 451
f 602 581 451
f 581 580 451
f 453 454 603
f 454 602 603
f 454 604 602
f 605 454 455
f 605 604 454
f 455 457 605
f 605 457 606
f 582 458 441
f 607 458 582
f 459 609 608
f 585 459 608
f 445 459 585
f 611 610 609
f 609 610 608
f 613 612 611
f 611 612 610
f 612 613 587
f 587 613 586
f 613 461 586
f 461 462 586
f 615 614 463
f 463 614 462
f 614 589 462
f 589 586 462
f 617 616 615
f 615 616 614
f 619 618 617
f 617 618 616
f 618 619 591
f 591 619 590
f 619 465 590
f 465 466 590
f 590 466 467
f 620 590 467
f 593 590 620
f 620 469 470
f 594 620 470
f 593 620 594
f 594 470 471
f 594 471 596
f 596 471 473
f 596 473 598
f 598 473 475
f 598 475 600
f 600 475 447
f 479 603 452
f 603 479 453
f 482 622 621
f 606 482 621
f 457 482 606
f 622 623 621
f 607 483 458
f 624 483 607
f 484 609 459
f 609 484 485
f 609 485 611
f 611 485 486
f 611 486 613
f 613 486 461
f 487 615 463
f 615 487 488
f 615 488 617
f 617 488 490
f 617 490 619
f 619 490 465
f 493 620 467
f 620 493 469
f 499 625 500
f 500 625 626
f 627 500 626
f 501 500 627
f 501 628 502
f 627 628 501
f 482 502 622
f 502 629 622
f 502 628 629
f 622 629 623
f 630 503 504
f 631 630 504
f 483 631 504
f 624 631 483
f 506 632 507
f 632 633 507
f 507 633 499
f 633 634 499
f 634 625 499
f 625 634 626
f 635 508 630
f 630 508 503
f 630 631 636
f 630 636 635
f 510 637 511
f 637 638 511
f 511 638 506
f 638 639 506
f 639 632 506
f 632 639 633
f 640 512 635
f 635 512 508
f 635 636 641
f 635 641 640
f 516 642 637
f 516 637 510
f 638 637 643
f 643 637 642
f 644 517 640
f 640 517 512
f 640 641 645
f 640 645 644
f 647 646 520
f 647 520 519
f 520 648 521
f 646 648 520
f 516 521 642
f 521 649 642
f 521 648 649
f 642 649 643
f 652 651 650
f 653 652 644
f 652 522 644
f 522 517 644
f 652 650 522
f 653 644 645
f 524 654 525
f 654 527 525
f 528 656 655
f 647 528 655
f 519 528 647
f 656 657 655
f 650 651 658
f 658 651 659
f 658 529 522
f 658 522 650
f 531 660 532
f 532 660 661
f 662 532 661
f 533 532 662
f 524 533 654
f 533 663 654
f 533 662 663
f 654 663 527
f 663 534 527
f 663 664 534
f 528 534 656
f 534 665 656
f 534 664 665
f 656 665 657
f 659 666 658
f 529 658 666
f 667 529 666
f 535 529 667
f 669 668 660
f 531 669 660
f 536 669 531
f 660 668 661
f 667 538 535
f 670 538 667
f 540 671 541
f 669 536 672
f 536 671 672
f 671 673 672
f 536 541 671
f 673 674 672
f 542 538 675
f 538 676 675
f 538 670 676
f 675 543 542
f 678 677 546
f 678 546 545
f 540 546 671
f 546 679 671
f 546 677 679
f 671 679 673
f 673 679 680
f 673 680 674
f 676 681 675
f 681 683 682
f 681 682 547
f 675 681 547
f 543 675 547
f 682 549 547
f 685 684 554
f 685 554 553
f 545 554 678
f 678 554 684
f 683 686 682
f 549 682 686
f 687 549 686
f 556 549 687
f 558 688 557
f 688 560 557
f 562 689 563
f 563 689 690
f 691 563 690
f 564 563 691
f 553 564 685
f 685 564 691
f 694 693 692
f 692 695 565
f 687 692 565
f 556 687 565
f 692 687 694
f 688 558 565
f 695 688 565
f 696 688 695
f 697 566 560
f 688 697 560
f 696 697 688
f 698 567 566
f 698 566 697
f 698 699 567
f 567 699 562
f 699 700 562
f 700 689 562
f 689 700 690
f 692 693 701
f 701 693 702
f 704 695 703
f 695 701 703
f 695 692 701
f 695 704 696
f 696 704 705
f 707 706 705
f 706 696 705
f 706 697 696
f 709 698 708
f 698 706 708
f 698 697 706
f 698 709 699
f 702 710 701
f 701 710 703
f 707 711 706
f 706 711 708
f 714 713 712
f 716 715 712
f 712 715 714
f 718 717 716
f 716 717 715
f 718 719 717
f 722 721 720
f 724 723 720
f 720 723 722
f 726 725 724
f 724 725 723
f 726 727 725
f 712 713 728
f 728 713 729
f 728 569 570
f 716 728 570
f 712 728 716
f 716 570 571
f 730 716 571
f 718 716 730
f 574 731 573
f 731 718 573
f 718 730 573
f 718 731 719
f 733 732 575
f 732 574 575
f 732 731 574
f 735 734 733
f 733 734 732
f 737 736 735
f 735 736 734
f 739 738 737
f 737 738 736
f 577 578 739
f 578 738 739
f 578 740 738
f 741 578 579
f 741 740 578
f 579 581 741
f 741 581 742
f 744 743 583
f 583 743 582
f 584 720 721
f 744 584 721
f 583 584 744
f 720 584 585
f 745 720 585
f 724 720 745
f 724 746 726
f 724 745 746
f 727 726 747
f 726 748 747
f 726 746 748
f 587 588 748
f 588 747 748
f 588 749 747
f 751 750 589
f 750 588 589
f 750 749 588
f 753 752 751
f 751 752 750
f 752 753 729
f 753 728 729
f 753 754 728
f 754 591 569
f 754 569 728
f 592 730 571
f 730 592 573
f 595 733 575
f 733 595 597
f 733 597 735
f 735 597 599
f 735 599 737
f 737 599 601
f 737 601 739
f 739 601 577
f 755 742 581
f 755 581 602
f 756 602 604
f 756 755 602
f 757 604 605
f 757 756 604
f 605 606 757
f 757 606 758
f 760 607 759
f 607 743 759
f 607 582 743
f 761 760 759
f 608 745 585
f 745 608 610
f 745 610 746
f 746 610 612
f 746 612 748
f 748 612 587
f 614 751 589
f 751 614 616
f 751 616 753
f 753 616 618
f 753 618 754
f 754 618 591
f 762 758 606
f 762 606 621
f 621 623 762
f 762 623 763
f 764 624 760
f 760 624 607
f 760 761 765
f 760 765 764
f 626 766 627
f 767 628 627
f 767 627 766
f 628 767 768
f 769 628 768
f 629 628 769
f 623 629 763
f 763 629 769
f 770 631 764
f 764 631 624
f 764 765 771
f 764 771 770
f 633 772 634
f 772 773 634
f 634 773 626
f 773 774 626
f 774 766 626
f 766 774 767
f 767 774 775
f 767 775 768
f 776 636 770
f 770 636 631
f 770 771 777
f 770 777 776
f 638 778 639
f 778 779 639
f 639 779 633
f 779 780 633
f 780 772 633
f 772 780 773
f 782 781 776
f 781 636 776
f 781 641 636
f 782 776 777
f 643 783 778
f 643 778 638
f 779 778 784
f 784 778 783
f 787 786 785
f 781 787 785
f 645 781 785
f 641 781 645
f 647 788 646
f 789 648 646
f 789 646 788
f 790 649 648
f 790 648 789
f 790 791 649
f 649 791 643
f 791 792 643
f 792 783 643
f 783 792 784
f 793 651 652
f 786 794 785
f 794 652 785
f 652 653 785
f 652 794 793
f 785 653 645
f 655 788 647
f 788 655 657
f 795 788 657
f 789 788 795
f 797 790 796
f 790 795 796
f 790 789 795
f 790 797 791
f 799 798 793
f 798 651 793
f 798 659 651
f 799 793 794
f 661 800 662
f 801 663 662
f 801 662 800
f 663 801 802
f 803 663 802
f 664 663 803
f 664 804 665
f 803 804 664
f 657 665 795
f 665 805 795
f 665 804 805
f 795 805 796
f 666 659 806
f 659 807 806
f 659 798 807
f 806 667 666
f 669 808 668
f 808 809 668
f 668 809 661
f 809 810 661
f 810 800 661
f 800 810 801
f 801 810 811
f 801 811 802
f 806 807 812
f 812 807 813
f 812 670 667
f 812 667 806
f 672 808 669
f 815 814 674
f 674 814 672
f 814 809 672
f 809 808 672
f 815 816 814
f 812 813 817
f 817 813 818
f 817 676 670
f 817 670 812
f 821 820 819
f 823 822 819
f 823 819 820
f 677 678 822
f 823 677 822
f 824 677 823
f 677 825 679
f 824 825 677
f 679 826 680
f 825 826 679
f 674 680 815
f 680 827 815
f 680 826 827
f 815 827 816
f 818 828 817
f 828 830 829
f 828 829 681
f 817 828 681
f 676 817 681
f 829 683 681
f 833 832 831
f 831 832 821
f 819 831 821
f 834 831 819
f 685 834 684
f 834 822 684
f 834 819 822
f 684 822 678
f 830 835 829
f 829 835 683
f 835 686 683
f 835 836 686
f 687 686 836
f 687 836 837
f 833 831 838
f 833 838 839
f 690 838 691
f 838 834 691
f 838 831 834
f 691 834 685
f 840 693 694
f 841 840 694
f 687 841 694
f 837 841 687
f 839 838 700
f 699 839 700
f 842 839 699
f 700 838 690
f 844 843 840
f 843 693 840
f 843 702 693
f 845 844 703
f 840 703 844
f 703 840 704
f 841 704 840
f 704 841 846
f 846 848 847
f 705 846 847
f 704 846 705
f 847 707 705
f 850 849 709
f 850 709 708
f 699 709 842
f 842 709 849
f 843 851 702
f 702 851 710
f 703 710 845
f 845 710 851
f 848 852 847
f 847 852 707
f 852 711 707
f 852 853 711
f 708 711 850
f 850 711 853
f 856 855 854
f 713 714 854
f 714 856 854
f 714 857 856
f 858 714 715
f 858 857 714
f 860 858 859
f 858 717 859
f 858 715 717
f 719 859 717
f 862 861 722
f 722 861 721
f 863 722 723
f 863 862 722
f 864 723 725
f 864 863 723
f 866 865 727
f 865 725 727
f 865 864 725
f 866 867 865
f 870 869 868
f 870 868 855
f 868 854 855
f 868 871 854
f 871 729 713
f 871 713 854
f 872 860 859
f 872 859 719
f 731 872 719
f 873 872 731
f 875 873 874
f 873 732 874
f 873 731 732
f 734 876 732
f 732 876 874
f 736 877 734
f 734 877 876
f 738 878 736
f 736 878 877
f 740 879 738
f 738 879 878
f 741 880 740
f 740 880 879
f 742 880 741
f 881 743 744
f 882 881 744
f 721 882 744
f 861 882 721
f 747 866 727
f 883 867 866
f 747 883 866
f 749 883 747
f 750 868 869
f 883 750 869
f 749 750 883
f 868 750 752
f 868 752 871
f 871 752 729
f 884 875 874
f 884 874 876
f 884 876 885
f 885 876 877
f 885 877 886
f 888 887 886
f 877 888 886
f 878 888 877
f 889 878 879
f 888 878 889
f 880 891 890
f 889 880 890
f 879 880 889
f 891 880 742
f 755 891 742
f 892 891 755
f 893 755 756
f 893 892 755
f 894 756 757
f 894 893 756
f 896 895 758
f 895 757 758
f 895 894 757
f 896 897 895
f 881 759 743
f 899 898 761
f 899 761 759
f 882 899 759
f 881 882 759
f 900 898 899
f 901 887 888
f 901 888 889
f 901 889 902
f 902 889 890
f 762 896 758
f 762 763 896
f 763 897 896
f 763 903 897
f 904 765 898
f 898 765 761
f 898 900 905
f 898 905 904
f 907 906 769
f 907 769 768
f 763 769 903
f 903 769 906
f 908 771 904
f 904 771 765
f 904 905 909
f 904 909 908
f 911 910 774
f 911 774 773
f 774 912 775
f 910 912 774
f 768 775 907
f 907 775 912
f 913 777 908
f 908 777 771
f 908 909 914
f 908 914 913
f 779 915 780
f 915 916 780
f 916 773 780
f 916 911 773
f 917 781 782
f 777 913 782
f 913 917 782
f 913 918 917
f 913 914 919
f 913 919 918
f 921 920 915
f 779 921 915
f 784 921 779
f 915 920 916
f 922 786 787
f 923 922 787
f 923 787 781
f 924 923 781
f 917 924 781
f 924 917 918
f 924 918 925
f 925 918 919
f 927 926 792
f 927 792 791
f 784 792 921
f 921 792 926
f 929 928 922
f 928 786 922
f 928 794 786
f 929 922 923
f 931 930 797
f 931 797 796
f 791 797 927
f 927 797 930
f 932 798 799
f 933 932 799
f 794 933 799
f 928 933 794
f 936 935 934
f 938 937 934
f 938 934 935
f 939 937 938
f 802 940 803
f 803 940 941
f 942 803 941
f 804 803 942
f 804 943 805
f 942 943 804
f 796 805 931
f 931 805 943
f 944 807 932
f 932 807 798
f 932 933 945
f 932 945 944
f 948 947 946
f 946 947 936
f 934 946 936
f 949 946 934
f 950 934 937
f 949 934 950
f 937 939 951
f 952 937 951
f 950 937 952
f 953 952 951
f 809 954 810
f 810 954 955
f 956 810 955
f 811 810 956
f 802 811 940
f 811 957 940
f 811 956 957
f 940 957 941
f 959 958 944
f 958 807 944
f 958 813 807
f 959 944 945
f 960 948 946
f 962 961 960
f 946 962 960
f 949 962 946
f 963 949 950
f 962 949 963
f 964 950 952
f 963 950 964
f 952 953 965
f 966 952 965
f 964 952 966
f 967 966 965
f 814 954 809
f 814 816 954
f 816 955 954
f 816 968 955
f 970 818 969
f 818 958 969
f 818 813 958
f 971 970 969
f 961 962 972
f 961 972 973
f 821 972 820
f 972 963 820
f 972 962 963
f 820 963 823
f 823 963 964
f 823 964 824
f 824 964 966
f 967 974 966
f 974 824 966
f 974 825 824
f 825 975 826
f 974 975 825
f 826 976 827
f 975 976 826
f 816 827 968
f 968 827 976
f 970 828 818
f 978 977 830
f 978 830 828
f 971 978 828
f 970 971 828
f 980 979 977
f 980 977 978
f 981 979 980
f 973 972 832
f 833 973 832
f 982 973 833
f 832 972 821
f 977 835 830
f 835 977 836
f 836 977 979
f 837 836 979
f 981 837 979
f 983 837 981
f 839 982 833
f 839 984 982
f 983 841 837
f 985 841 983
f 988 987 986
f 987 984 986
f 984 842 986
f 984 839 842
f 990 989 844
f 844 989 843
f 985 990 991
f 841 985 991
f 846 841 991
f 992 846 991
f 993 992 991
f 845 993 991
f 844 845 991
f 990 844 991
f 848 846 992
f 848 992 994
f 997 996 995
f 995 996 988
f 995 988 986
f 850 995 986
f 849 850 986
f 849 986 842
f 989 998 843
f 843 998 851
f 845 851 993
f 993 851 998
f 994 999 848
f 848 999 852
f 995 853 997
f 853 999 997
f 853 852 999
f 853 995 850
f 1000 855 856
f 857 1001 856
f 856 1001 1000
f 858 1002 857
f 857 1002 1001
f 860 1002 858
f 1003 861 862
f 1003 862 1004
f 862 1005 1004
f 862 863 1005
f 1006 863 864
f 1006 1005 863
f 1007 864 865
f 1007 1006 864
f 1009 1008 867
f 1008 865 867
f 1008 1007 865
f 869 870 1009
f 870 1008 1009
f 870 1010 1008
f 870 855 1000
f 1011 870 1000
f 1010 870 1011
f 1011 1000 1001
f 1011 1001 1012
f 1012 1001 1002
f 1012 1002 1013
f 1013 1002 860
f 872 1013 860
f 1014 1013 872
f 1016 1014 1015
f 1014 873 1015
f 1014 872 873
f 875 1015 873
f 1017 882 1003
f 1003 882 861
f 1003 1004 1018
f 1003 1018 1017
f 883 1009 867
f 1009 883 869
f 1016 1015 1019
f 1016 1019 1020
f 884 1021 875
f 1021 1015 875
f 1021 1019 1015
f 885 1022 884
f 884 1022 1021
f 886 1023 885
f 885 1023 1022
f 887 1023 886
f 1024 890 891
f 892 1025 891
f 891 1025 1024
f 893 1026 892
f 892 1026 1025
f 894 1027 893
f 893 1027 1026
f 895 1028 894
f 894 1028 1027
f 897 1028 895
f 1017 899 882
f 1030 1029 900
f 1030 900 899
f 1018 1030 899
f 1017 1018 899
f 1031 1029 1030
f 1032 1020 1019
f 1034 1033 1032
f 1019 1034 1032
f 1021 1034 1019
f 1022 1036 1035
f 1034 1022 1035
f 1021 1022 1034
f 1036 1022 1023
f 1036 1023 1037
f 1037 1023 887
f 901 1037 887
f 1038 1037 901
f 1040 1038 1039
f 1038 902 1039
f 1038 901 902
f 890 1024 902
f 1024 1039 902
f 1024 1041 1039
f 1042 1024 1025
f 1041 1024 1042
f 1026 1044 1043
f 1042 1026 1043
f 1025 1026 1042
f 1044 1026 1027
f 1044 1027 1045
f 1047 1046 1045
f 1027 1047 1045
f 1028 1047 1027
f 903 1047 897
f 897 1047 1028
f 1048 905 1029
f 1029 905 900
f 1029 1031 1049
f 1050 1029 1049
f 1048 1029 1050
f 1051 1050 1049
f 1033 1034 1052
f 1033 1052 1053
f 1034 1035 1054
f 1055 1034 1054
f 1052 1034 1055
f 1056 1055 1054
f 1057 1040 1039
f 1057 1039 1041
f 1057 1041 1058
f 1058 1041 1042
f 1058 1042 1059
f 1059 1042 1043
f 1046 1047 906
f 907 1046 906
f 1060 1046 907
f 906 1047 903
f 1061 909 1048
f 1048 909 905
f 1062 1048 1050
f 1061 1048 1062
f 1050 1051 1063
f 1050 1063 1062
f 1066 1065 1064
f 1067 1064 1065
f 1053 1052 1068
f 1053 1068 1069
f 1070 1052 1055
f 1068 1052 1070
f 1055 1056 1071
f 1055 1071 1070
f 1073 1072 910
f 1073 910 911
f 910 1074 912
f 1072 1074 910
f 907 912 1060
f 1060 912 1074
f 1075 914 1061
f 1061 914 909
f 1076 1061 1062
f 1075 1061 1076
f 1062 1063 1077
f 1062 1077 1076
f 1066 1064 1078
f 1066 1078 1079
f 1064 1067 1080
f 1064 1080 1078
f 1081 1069 1068
f 1081 1068 1070
f 1081 1070 1082
f 1082 1070 1071
f 916 1073 911
f 916 1083 1073
f 1084 919 1075
f 1075 919 914
f 1085 1075 1076
f 1084 1075 1085
f 1076 1077 1086
f 1076 1086 1085
f 1087 1079 1078
f 1087 1078 1080
f 1089 1088 920
f 1089 920 921
f 916 920 1083
f 1083 920 1088
f 1090 923 924
f 925 1091 924
f 924 1091 1090
f 919 1084 925
f 1084 1091 925
f 1084 1092 1091
f 1085 1094 1093
f 1092 1085 1093
f 1084 1085 1092
f 1094 1085 1086
f 1096 1095 926
f 1096 926 927
f 921 926 1089
f 1089 926 1095
f 1097 928 929
f 923 1090 929
f 1090 1097 929
f 1090 1098 1097
f 1099 1090 1091
f 1098 1090 1099
f 1100 1091 1092
f 1099 1091 1100
f 1092 1093 1101
f 1092 1101 1100
f 1104 1103 1102
f 1105 1102 1103
f 1107 1106 930
f 1107 930 931
f 927 930 1096
f 1096 930 1106
f 1108 933 1097
f 1097 933 928
f 1109 1097 1098
f 1108 1097 1109
f 1110 1098 1099
f 1109 1098 1110
f 1111 1099 1100
f 1110 1099 1111
f 1100 1101 1112
f 1113 1100 1112
f 1111 1100 1113
f 1115 1114 1113
f 1115 1113 1112
f 935 936 1114
f 1115 935 1114
f 1116 935 1115
f 935 1117 938
f 1116 1117 935
f 1102 1118 939
f 1117 1102 939
f 938 1117 939
f 1104 1102 1117
f 1102 1105 1119
f 1102 1119 1118
f 941 1120 942
f 942 1120 1121
f 1122 942 1121
f 943 942 1122
f 931 943 1107
f 1107 943 1122
f 1123 945 1108
f 1108 945 933
f 1124 1108 1109
f 1123 1108 1124
f 1110 1126 1125
f 1124 1110 1125
f 1109 1110 1124
f 1128 1127 1126
f 1110 1128 1126
f 1111 1128 1110
f 1129 1111 1113
f 1128 1111 1129
f 948 1129 947
f 1129 1114 947
f 1129 1113 1114
f 947 1114 936
f 1118 951 939
f 1131 1130 953
f 1131 953 951
f 1119 1131 951
f 1118 1119 951
f 1133 1132 1130
f 1133 1130 1131
f 1134 1132 1133
f 955 1135 956
f 956 1135 1136
f 1137 956 1136
f 957 956 1137
f 941 957 1120
f 957 1138 1120
f 957 1137 1138
f 1120 1138 1121
f 1139 958 959
f 945 1123 959
f 1123 1139 959
f 1123 1140 1139
f 1124 1142 1141
f 1140 1124 1141
f 1123 1124 1140
f 1142 1124 1125
f 1127 1128 1143
f 1127 1143 1144
f 1145 1128 1129
f 1143 1128 1145
f 960 1146 948
f 1146 1129 948
f 1146 1145 1129
f 961 1146 960
f 1130 965 953
f 965 1130 967
f 1130 1147 967
f 1130 1132 1147
f 1132 1134 1148
f 1149 1132 1148
f 1147 1132 1149
f 1150 1149 1148
f 1152 1151 1135
f 955 1152 1135
f 968 1152 955
f 1135 1151 1136
f 1139 969 958
f 969 1139 971
f 1139 1153 971
f 1139 1140 1153
f 1140 1141 1154
f 1155 1140 1154
f 1153 1140 1155
f 1156 1155 1154
f 1144 1143 1157
f 1144 1157 1158
f 1159 1143 1145
f 1157 1143 1159
f 1160 1145 1146
f 1159 1145 1160
f 973 1160 961
f 961 1160 1146
f 1147 974 967
f 974 1147 975
f 975 1147 1149
f 1150 1161 1149
f 1161 975 1149
f 1161 976 975
f 968 976 1152
f 1152 976 1161
f 1153 978 971
f 978 1153 980
f 980 1153 1155
f 981 980 1155
f 1156 981 1155
f 1162 981 1156
f 1158 1157 1163
f 1158 1163 1164
f 1165 1157 1159
f 1163 1157 1165
f 1166 1159 1160
f 1165 1159 1166
f 982 1166 973
f 973 1166 1160
f 1162 983 981
f 1167 983 1162
f 1164 1163 1168
f 1164 1168 1169
f 1170 1163 1165
f 1168 1163 1170
f 1171 1165 1166
f 1170 1165 1171
f 984 1171 982
f 982 1171 1166
f 1174 1173 1172
f 1167 1174 1172
f 985 1167 1172
f 983 1167 985
f 1175 1169 1168
f 1177 1176 1175
f 1168 1177 1175
f 1170 1177 1168
f 988 1177 987
f 1177 1171 987
f 1177 1170 1171
f 987 1171 984
f 1172 1173 990
f 1173 989 990
f 1173 1178 989
f 985 1172 990
f 992 993 1179
f 1181 1179 1180
f 1181 992 1179
f 1181 1182 994
f 992 1181 994
f 1182 1181 1176
f 1182 1176 1177
f 997 1182 1177
f 996 997 1177
f 996 1177 988
f 1178 1183 989
f 989 1183 998
f 993 998 1179
f 998 1184 1179
f 998 1183 1184
f 1182 999 994
f 1184 1180 1179
f 999 1182 997
f 1187 1186 1185
f 1189 1188 1185
f 1185 1188 1187
f 1191 1190 1189
f 1189 1190 1188
f 1193 1192 1191
f 1191 1192 1190
f 1193 1194 1192
f 1195 1004 1005
f 1006 1196 1005
f 1005 1196 1195
f 1186 1197 1185
f 1197 1006 1185
f 1006 1007 1185
f 1006 1197 1196
f 1185 1007 1008
f 1185 1008 1189
f 1189 1008 1010
f 1189 1010 1191
f 1191 1010 1011
f 1191 1011 1193
f 1198 1194 1193
f 1011 1198 1193
f 1012 1198 1011
f 1199 1012 1013
f 1199 1198 1012
f 1201 1199 1200
f 1199 1014 1200
f 1199 1013 1014
f 1016 1200 1014
f 1202 1018 1195
f 1195 1018 1004
f 1196 1204 1203
f 1202 1196 1203
f 1195 1196 1202
f 1204 1196 1197
f 1201 1200 1205
f 1201 1205 1206
f 1020 1205 1016
f 1016 1205 1200
f 1202 1030 1018
f 1208 1207 1031
f 1208 1031 1030
f 1203 1208 1030
f 1202 1203 1030
f 1209 1207 1208
f 1206 1205 1210
f 1206 1210 1211
f 1032 1212 1020
f 1212 1205 1020
f 1212 1210 1205
f 1033 1212 1032
f 1213 1035 1036
f 1037 1214 1036
f 1036 1214 1213
f 1038 1215 1037
f 1037 1215 1214
f 1040 1215 1038
f 1216 1043 1044
f 1045 1217 1044
f 1044 1217 1216
f 1046 1217 1045
f 1207 1049 1031
f 1219 1218 1051
f 1219 1051 1049
f 1209 1219 1049
f 1207 1209 1049
f 1220 1218 1219
f 1223 1222 1221
f 1221 1222 1211
f 1210 1221 1211
f 1224 1221 1210
f 1225 1210 1212
f 1224 1210 1225
f 1053 1225 1033
f 1033 1225 1212
f 1213 1054 1035
f 1054 1213 1056
f 1213 1226 1056
f 1213 1214 1226
f 1227 1214 1215
f 1226 1214 1227
f 1057 1228 1040
f 1228 1215 1040
f 1228 1227 1215
f 1058 1229 1057
f 1057 1229 1228
f 1059 1230 1058
f 1058 1230 1229
f 1043 1216 1059
f 1216 1230 1059
f 1216 1231 1230
f 1232 1216 1217
f 1231 1216 1232
f 1060 1232 1046
f 1046 1232 1217
f 1233 1063 1218
f 1218 1063 1051
f 1218 1220 1234
f 1218 1234 1233
f 1223 1221 1235
f 1223 1235 1236
f 1066 1235 1065
f 1235 1224 1065
f 1235 1221 1224
f 1065 1224 1067
f 1224 1237 1067
f 1224 1225 1237
f 1069 1237 1053
f 1053 1237 1225
f 1238 1071 1226
f 1226 1071 1056
f 1239 1226 1227
f 1238 1226 1239
f 1240 1227 1228
f 1239 1227 1240
f 1241 1228 1229
f 1240 1228 1241
f 1242 1229 1230
f 1241 1229 1242
f 1073 1242 1072
f 1242 1231 1072
f 1242 1230 1231
f 1072 1231 1074
f 1074 1231 1232
f 1074 1232 1060
f 1243 1077 1233
f 1233 1077 1063
f 1233 1234 1244
f 1245 1233 1244
f 1243 1233 1245
f 1246 1245 1244
f 1236 1235 1247
f 1236 1247 1248
f 1079 1247 1066
f 1066 1247 1235
f 1249 1080 1237
f 1237 1080 1067
f 1081 1250 1069
f 1250 1237 1069
f 1250 1249 1237
f 1250 1081 1251
f 1081 1252 1251
f 1081 1082 1252
f 1082 1071 1238
f 1253 1082 1238
f 1252 1082 1253
f 1255 1254 1253
f 1238 1255 1253
f 1239 1255 1238
f 1256 1239 1240
f 1255 1239 1256
f 1257 1240 1241
f 1256 1240 1257
f 1258 1241 1242
f 1257 1241 1258
f 1083 1258 1073
f 1073 1258 1242
f 1260 1259 1243
f 1259 1077 1243
f 1259 1086 1077
f 1260 1243 1245
f 1260 1245 1261
f 1261 1245 1246
f 1248 1247 1262
f 1248 1262 1263
f 1087 1264 1079
f 1264 1247 1079
f 1264 1262 1247
f 1080 1249 1087
f 1249 1264 1087
f 1249 1265 1264
f 1250 1267 1266
f 1265 1250 1266
f 1249 1250 1265
f 1267 1250 1251
f 1268 1254 1255
f 1268 1255 1256
f 1268 1256 1269
f 1269 1256 1257
f 1269 1257 1270
f 1089 1271 1088
f 1271 1257 1088
f 1257 1258 1088
f 1271 1270 1257
f 1088 1258 1083
f 1272 1093 1094
f 1273 1272 1094
f 1086 1273 1094
f 1259 1273 1086
f 1276 1275 1274
f 1277 1274 1275
f 1278 1263 1262
f 1278 1262 1264
f 1278 1264 1279
f 1279 1264 1265
f 1279 1265 1280
f 1280 1265 1266
f 1282 1281 1095
f 1282 1095 1096
f 1089 1095 1271
f 1271 1095 1281
f 1283 1101 1272
f 1272 1101 1093
f 1272 1273 1284
f 1272 1284 1283
f 1276 1274 1285
f 1276 1285 1286
f 1287 1103 1104
f 1274 1287 1104
f 1285 1274 1104
f 1287 1274 1277
f 1105 1103 1287
f 1105 1287 1288
f 1290 1289 1106
f 1290 1106 1107
f 1096 1106 1282
f 1282 1106 1289
f 1283 1112 1101
f 1284 1291 1283
f 1291 1112 1283
f 1291 1115 1112
f 1115 1292 1116
f 1291 1292 1115
f 1285 1117 1286
f 1117 1292 1286
f 1117 1116 1292
f 1117 1285 1104
f 1294 1119 1293
f 1119 1288 1293
f 1119 1105 1288
f 1295 1294 1293
f 1121 1296 1122
f 1296 1297 1122
f 1297 1107 1122
f 1297 1290 1107
f 1298 1125 1126
f 1127 1298 1126
f 1294 1131 1119
f 1295 1299 1294
f 1299 1131 1294
f 1299 1133 1131
f 1301 1300 1134
f 1133 1301 1134
f 1299 1301 1133
f 1302 1300 1301
f 1136 1303 1137
f 1137 1303 1304
f 1305 1137 1304
f 1138 1137 1305
f 1121 1138 1296
f 1138 1306 1296
f 1138 1305 1306
f 1296 1306 1297
f 1307 1141 1142
f 1125 1298 1142
f 1298 1307 1142
f 1298 1308 1307
f 1144 1308 1127
f 1127 1308 1298
f 1300 1148 1134
f 1150 1148 1300
f 1302 1150 1300
f 1309 1150 1302
f 1311 1310 1151
f 1311 1151 1152
f 1136 1151 1303
f 1151 1312 1303
f 1151 1310 1312
f 1303 1312 1304
f 1307 1154 1141
f 1307 1308 1313
f 1156 1307 1313
f 1314 1156 1313
f 1307 1156 1154
f 1308 1144 1313
f 1144 1315 1313
f 1144 1158 1315
f 1309 1316 1150
f 1150 1316 1161
f 1152 1161 1311
f 1311 1161 1316
f 1314 1162 1156
f 1317 1162 1314
f 1164 1315 1158
f 1164 1318 1315
f 1317 1167 1162
f 1319 1167 1317
f 1169 1318 1164
f 1169 1320 1318
f 1321 1173 1174
f 1322 1321 1174
f 1167 1322 1174
f 1319 1322 1167
f 1169 1175 1323
f 1324 1169 1323
f 1320 1169 1324
f 1176 1323 1175
f 1325 1178 1321
f 1321 1178 1173
f 1321 1322 1326
f 1327 1321 1326
f 1325 1321 1327
f 1327 1326 1324
f 1327 1324 1323
f 1180 1327 1323
f 1181 1180 1323
f 1181 1323 1176
f 1325 1183 1178
f 1183 1325 1184
f 1184 1325 1327
f 1184 1327 1180
f 1328 1186 1187
f 1328 1187 1329
f 1187 1330 1329
f 1187 1188 1330
f 1331 1188 1190
f 1331 1330 1188
f 1332 1190 1192
f 1332 1331 1190
f 1334 1333 1194
f 1333 1192 1194
f 1333 1332 1192
f 1334 1335 1333
f 1336 1197 1328
f 1328 1197 1186
f 1328 1329 1337
f 1328 1337 1336
f 1198 1334 1194
f 1198 1199 1334
f 1199 1338 1334
f 1338 1335 1334
f 1199 1339 1338
f 1201 1339 1199
f 1340 1203 1204
f 1341 1340 1204
f 1341 1204 1197
f 1342 1341 1197
f 1336 1342 1197
f 1342 1336 1337
f 1338 1339 1343
f 1338 1343 1344
f 1206 1343 1201
f 1201 1343 1339
f 1340 1208 1203
f 1209 1208 1340
f 1341 1209 1340
f 1345 1209 1341
f 1344 1343 1346
f 1344 1346 1347
f 1211 1346 1206
f 1206 1346 1343
f 1345 1348 1209
f 1209 1348 1219
f 1220 1219 1348
f 1220 1348 1349
f 1352 1351 1350
f 1350 1351 1347
f 1350 1347 1346
f 1223 1350 1346
f 1222 1223 1346
f 1222 1346 1211
f 1354 1234 1353
f 1234 1349 1353
f 1234 1220 1349
f 1355 1354 1353
f 1352 1350 1356
f 1352 1356 1357
f 1236 1356 1223
f 1223 1356 1350
f 1354 1244 1234
f 1246 1244 1354
f 1355 1246 1354
f 1358 1246 1355
f 1357 1356 1359
f 1357 1359 1360
f 1248 1359 1236
f 1236 1359 1356
f 1361 1251 1252
f 1253 1362 1252
f 1252 1362 1361
f 1254 1362 1253
f 1363 1259 1260
f 1363 1260 1364
f 1260 1365 1364
f 1260 1261 1365
f 1261 1246 1358
f 1261 1358 1365
f 1366 1360 1359
f 1359 1248 1366
f 1248 1367 1366
f 1248 1263 1367
f 1368 1266 1267
f 1251 1361 1267
f 1361 1368 1267
f 1361 1369 1368
f 1370 1361 1362
f 1369 1361 1370
f 1268 1371 1254
f 1371 1362 1254
f 1371 1370 1362
f 1371 1268 1372
f 1268 1373 1372
f 1268 1269 1373
f 1374 1269 1270
f 1374 1373 1269
f 1270 1271 1374
f 1374 1271 1375
f 1376 1273 1363
f 1363 1273 1259
f 1363 1364 1377
f 1378 1363 1377
f 1376 1363 1378
f 1275 1276 1378
f 1377 1275 1378
f 1379 1275 1377
f 1277 1275 1379
f 1277 1379 1380
f 1381 1367 1263
f 1381 1263 1278
f 1383 1381 1382
f 1381 1279 1382
f 1381 1278 1279
f 1280 1384 1279
f 1279 1384 1382
f 1385 1384 1280
f 1385 1280 1266
f 1386 1385 1266
f 1368 1386 1266
f 1386 1368 1369
f 1386 1369 1387
f 1387 1369 1370
f 1387 1370 1388
f 1388 1370 1371
f 1388 1371 1389
f 1389 1371 1372
f 1282 1390 1281
f 1390 1391 1281
f 1391 1271 1281
f 1391 1375 1271
f 1392 1284 1376
f 1376 1284 1273
f 1393 1376 1378
f 1392 1376 1393
f 1286 1393 1276
f 1276 1393 1378
f 1380 1394 1277
f 1277 1394 1287
f 1396 1395 1288
f 1287 1396 1288
f 1394 1396 1287
f 1397 1395 1396
f 1398 1383 1382
f 1398 1382 1384
f 1398 1384 1399
f 1399 1384 1385
f 1290 1400 1289
f 1400 1401 1289
f 1289 1401 1282
f 1401 1402 1282
f 1402 1390 1282
f 1390 1402 1391
f 1392 1291 1284
f 1291 1392 1292
f 1292 1392 1393
f 1292 1393 1286
f 1395 1293 1288
f 1404 1403 1295
f 1404 1295 1293
f 1397 1404 1293
f 1395 1397 1293
f 1406 1405 1403
f 1406 1403 1404
f 1407 1405 1406
f 1410 1409 1408
f 1412 1411 1408
f 1412 1408 1409
f 1412 1413 1400
f 1297 1412 1400
f 1290 1297 1400
f 1411 1412 1297
f 1400 1413 1401
f 1403 1299 1295
f 1299 1403 1301
f 1301 1403 1405
f 1302 1301 1405
f 1407 1302 1405
f 1414 1302 1407
f 1417 1416 1415
f 1415 1416 1410
f 1415 1410 1408
f 1304 1415 1408
f 1305 1304 1408
f 1305 1408 1306
f 1306 1408 1411
f 1306 1411 1297
f 1419 1309 1418
f 1309 1414 1418
f 1309 1302 1414
f 1310 1311 1419
f 1418 1310 1419
f 1420 1310 1418
f 1415 1312 1417
f 1312 1420 1417
f 1312 1310 1420
f 1312 1415 1304
f 1421 1314 1313
f 1315 1421 1313
f 1419 1316 1309
f 1316 1419 1311
f 1422 1317 1421
f 1421 1317 1314
f 1318 1422 1315
f 1315 1422 1421
f 1423 1319 1422
f 1422 1319 1317
f 1320 1423 1318
f 1318 1423 1422
f 1424 1322 1423
f 1423 1322 1319
f 1324 1424 1320
f 1320 1424 1423
f 1424 1326 1322
f 1326 1424 1324
f 1425 1329 1330
f 1331 1426 1330
f 1330 1426 1425
f 1332 1427 1331
f 1331 1427 1426
f 1333 1428 1332
f 1332 1428 1427
f 1335 1428 1333
f 1429 1337 1425
f 1425 1337 1329
f 1430 1425 1426
f 1429 1425 1430
f 1431 1426 1427
f 1430 1426 1431
f 1432 1427 1428
f 1431 1427 1432
f 1338 1432 1335
f 1335 1432 1428
f 1433 1341 1342
f 1337 1429 1342
f 1429 1433 1342
f 1429 1434 1433
f 1430 1436 1435
f 1434 1430 1435
f 1429 1430 1434
f 1438 1437 1436
f 1430 1438 1436
f 1431 1438 1430
f 1439 1431 1432
f 1438 1431 1439
f 1344 1439 1338
f 1338 1439 1432
f 1440 1345 1433
f 1433 1345 1341
f 1441 1433 1434
f 1440 1433 1441
f 1434 1435 1442
f 1434 1442 1441
f 1437 1438 1443
f 1437 1443 1444
f 1445 1438 1439
f 1443 1438 1445
f 1347 1445 1344
f 1344 1445 1439
f 1440 1348 1345
f 1348 1440 1349
f 1440 1446 1349
f 1440 1441 1446
f 1441 1442 1447
f 1448 1441 1447
f 1446 1441 1448
f 1448 1447 1444
f 1443 1448 1444
f 1449 1448 1443
f 1352 1449 1351
f 1449 1445 1351
f 1449 1443 1445
f 1351 1445 1347
f 1446 1353 1349
f 1353 1446 1355
f 1446 1450 1355
f 1446 1448 1450
f 1451 1448 1449
f 1450 1448 1451
f 1357 1451 1352
f 1352 1451 1449
f 1452 1358 1450
f 1450 1358 1355
f 1453 1450 1451
f 1452 1450 1453
f 1360 1453 1357
f 1357 1453 1451
f 1454 1364 1365
f 1358 1452 1365
f 1452 1454 1365
f 1452 1455 1454
f 1456 1452 1453
f 1455 1452 1456
f 1366 1457 1360
f 1457 1453 1360
f 1457 1456 1453
f 1367 1457 1366
f 1459 1458 1373
f 1373 1458 1372
f 1461 1459 1460
f 1459 1374 1460
f 1459 1373 1374
f 1375 1460 1374
f 1454 1377 1364
f 1377 1454 1379
f 1379 1454 1455
f 1379 1455 1380
f 1455 1462 1380
f 1455 1456 1462
f 1463 1456 1457
f 1462 1456 1463
f 1381 1464 1367
f 1464 1457 1367
f 1464 1463 1457
f 1383 1464 1381
f 1465 1385 1386
f 1465 1386 1466
f 1386 1467 1466
f 1386 1387 1467
f 1468 1387 1388
f 1468 1467 1387
f 1469 1388 1389
f 1469 1468 1388
f 1389 1372 1458
f 1389 1458 1469
f 1470 1461 1460
f 1460 1375 1470
f 1375 1471 1470
f 1375 1391 1471
f 1462 1394 1380
f 1394 1462 1396
f 1396 1462 1463
f 1396 1463 1397
f 1463 1472 1397
f 1463 1464 1472
f 1398 1473 1383
f 1473 1464 1383
f 1473 1472 1464
f 1473 1398 1474
f 1398 1475 1474
f 1398 1399 1475
f 1399 1385 1465
f 1476 1399 1465
f 1475 1399 1476
f 1476 1465 1466
f 1479 1478 1477
f 1402 1401 1477
f 1478 1402 1477
f 1480 1402 1478
f 1391 1402 1471
f 1471 1402 1480
f 1472 1404 1397
f 1404 1472 1406
f 1406 1472 1473
f 1407 1406 1473
f 1474 1407 1473
f 1481 1407 1474
f 1410 1482 1409
f 1409 1482 1483
f 1484 1409 1483
f 1412 1409 1484
f 1477 1413 1479
f 1413 1484 1479
f 1413 1412 1484
f 1413 1477 1401
f 1486 1414 1485
f 1414 1481 1485
f 1414 1407 1481
f 1488 1487 1486
f 1488 1486 1485
f 1416 1417 1487
f 1488 1416 1487
f 1489 1416 1488
f 1416 1489 1410
f 1489 1490 1410
f 1490 1482 1410
f 1490 1489 1491
f 1483 1482 1492
f 1482 1493 1492
f 1482 1490 1493
f 1493 1494 1492
f 1486 1418 1414
f 1418 1486 1420
f 1420 1486 1487
f 1420 1487 1417
f 1491 1495 1490
f 1490 1495 1493
f 1493 1495 1496
f 1493 1496 1494
f 1497 1435 1436
f 1437 1497 1436
f 1498 1442 1497
f 1497 1442 1435
f 1444 1498 1437
f 1437 1498 1497
f 1498 1447 1442
f 1447 1498 1444
f 1499 1458 1459
f 1461 1499 1459
f 1500 1466 1467
f 1500 1467 1501
f 1467 1502 1501
f 1467 1468 1502
f 1503 1468 1469
f 1503 1502 1468
f 1503 1469 1458
f 1504 1503 1458
f 1499 1504 1458
f 1503 1504 1505
f 1470 1506 1461
f 1506 1499 1461
f 1506 1504 1499
f 1471 1506 1470
f 1508 1507 1475
f 1475 1507 1474
f 1509 1475 1476
f 1509 1508 1475
f 1476 1466 1500
f 1510 1476 1500
f 1509 1476 1510
f 1510 1500 1501
f 1478 1479 1511
f 1504 1512 1505
f 1478 1511 1480
f 1513 1480 1511
f 1480 1513 1506
f 1512 1506 1513
f 1506 1512 1504
f 1480 1506 1471
f 1507 1481 1474
f 1514 1481 1507
f 1483 1515 1484
f 1511 1479 1484
f 1515 1511 1484
f 1516 1511 1515
f 1513 1511 1517
f 1517 1511 1516
f 1514 1518 1481
f 1481 1518 1485
f 1518 1520 1519
f 1488 1518 1519
f 1485 1518 1488
f 1521 1489 1488
f 1521 1488 1519
f 1521 1491 1489
f 1523 1492 1522
f 1523 1483 1492
f 1515 1483 1523
f 1515 1523 1524
f 1522 1492 1494
f 1516 1524 1525
f 1524 1516 1515
f 1516 1525 1517
f 1520 1526 1519
f 1519 1526 1521
f 1521 1526 1527
f 1521 1527 1491
f 1527 1495 1491
f 1527 1528 1495
f 1522 1496 1523
f 1496 1528 1523
f 1496 1495 1528
f 1496 1522 1494
f 1529 1501 1502
f 1503 1530 1502
f 1502 1530 1529
f 1505 1530 1503
f 1531 1507 1508
f 1531 1508 1532
f 1508 1533 1532
f 1508 1509 1533
f 1535 1533 1534
f 1533 1510 1534
f 1533 1509 1510
f 1501 1529 1510
f 1529 1534 1510
f 1529 1536 1534
f 1537 1529 1530
f 1536 1529 1537
f 1512 1538 1505
f 1538 1530 1505
f 1538 1537 1530
f 1513 1538 1512
f 1540 1539 1531
f 1539 1507 1531
f 1539 1514 1507
f 1540 1531 1532
f 1541 1535 1534
f 1541 1534 1536
f 1541 1536 1542
f 1544 1543 1542
f 1536 1544 1542
f 1537 1544 1536
f 1545 1537 1538
f 1544 1537 1545
f 1517 1545 1513
f 1513 1545 1538
f 1539 1546 1514
f 1514 1546 1518
f 1520 1518 1546
f 1520 1546 1547
f 1543 1544 1524
f 1523 1543 1524
f 1548 1543 1523
f 1524 1544 1525
f 1525 1544 1545
f 1525 1545 1517
f 1547 1549 1520
f 1520 1549 1526
f 1526 1550 1527
f 1549 1550 1526
f 1527 1551 1528
f 1550 1551 1527
f 1523 1528 1548
f 1548 1528 1551
f 1552 1532 1533
f 1535 1552 1533
f 1553 1539 1540
f 1532 1552 1540
f 1552 1553 1540
f 1552 1554 1553
f 1541 1555 1535
f 1555 1552 1535
f 1555 1554 1552
f 1542 1556 1541
f 1541 1556 1555
f 1543 1556 1542
f 1553 1546 1539
f 1546 1553 1547
f 1553 1557 1547
f 1553 1554 1557
f 1558 1554 1555
f 1557 1554 1558
f 1559 1555 1556
f 1558 1555 1559
f 1548 1559 1543
f 1543 1559 1556
f 1557 1549 1547
f 1549 1557 1550
f 1550 1557 1558
f 1550 1558 1551
f 1551 1558 1559
f 1551 1559 1548
