v 12.0 -57.0 -8.0
v 12.0 -57.0 -8.0
v 12.0 -57.0 -8.0
v 12.0 -57.0 -8.0
v 11.8 -56.0 -8.0
v 12.0 -56.0 -8.2
v 12.0 -56.0 -7.8
v 11.8 -55.0 -8.0
v 12.0 -55.0 -8.2
v 12.0 -55.0 -7.8
v 11.9 -54.0 -8.0
v 12.0 -54.0 -8.2
v 12.0 -54.0 -7.8
v 11.8 -53.0 -8.0
v 12.0 -53.0 -8.2
v 12.0 -53.0 -7.8
v 12.0 -52.3 -8.0
v 12.9 -61.0 -8.0
v 13.0 -61.0 -8.2
v 13.0 -61.2 -8.0
v 13.0 -61.0 -7.8
v 12.8 -60.0 -9.0
v 13.0 -60.0 -9.3
v 13.0 -60.4 -9.0
v 12.6 -60.0 -8.0
v 13.0 -60.1 -7.0
v 12.9 -60.0 -7.0
v 13.0 -60.0 -6.9
v 12.6 -59.0 -9.0
v 13.0 -59.0 -9.4
v 12.6 -59.0 -8.0
v 13.0 -59.0 -7.5
v 13.0 -59.9 -7.0
v 12.6 -58.0 -9.0
v 13.0 -58.0 -9.5
v 12.5 -58.0 -8.0
v 13.0 -58.0 -7.2
v 12.5 -57.0 -9.0
v 13.0 -57.0 -9.5
v 13.0 -57.0 -7.4
v 12.5 -56.0 -9.0
v 13.0 -56.0 -9.5
v 13.0 -56.0 -7.5
v 12.7 -55.0 -9.0
v 13.0 -55.0 -9.4
v 13.0 -55.0 -7.5
v 13.0 -54.5 -9.0
v 13.0 -54.0 -8.5
v 13.0 -54.0 -7.3
v 13.0 -54.0 -6.0
v 13.0 -54.0 -6.1
v 13.0 -54.0 -6.0
v 13.0 -54.0 -6.0
v 13.0 -53.0 -8.6
v 13.0 -53.8 -7.0
v 12.6 -53.0 -7.0
v 12.8 -53.0 -6.0
v 13.0 -53.0 -5.8
v 12.2 -52.0 -8.0
v 13.0 -52.0 -8.5
v 13.0 -52.0 -7.3
v 13.0 -52.2 -7.0
v 13.0 -52.0 -6.0
v 13.0 -52.0 -6.1
v 13.0 -52.0 -6.0
v 12.9 -51.0 -9.0
v 13.0 -51.0 -9.2
v 13.0 -51.3 -9.0
v 13.0 -51.5 -8.0
v 13.0 -51.0 -8.7
v 13.0 -52.0 -6.0
v 12.8 -50.0 -9.0
v 13.0 -50.0 -9.3
v 13.0 -50.0 -8.7
v 12.9 -49.0 -9.0
v 13.0 -49.0 -9.1
v 13.0 -49.0 -8.9
v 13.0 -49.0 -6.0
v 13.0 -49.0 -6.0
v 13.0 -49.0 -6.0
v 13.0 -49.0 -6.0
v 13.0 -48.9 -9.0
v 13.0 -49.0 -6.0
v 13.9 -62.0 -8.0
v 14.0 -62.0 -8.1
v 14.0 -62.1 -8.0
v 14.0 -62.0 -7.8
v 13.6 -61.0 -9.0
v 14.0 -61.0 -9.3
v 14.0 -61.3 -9.0
v 14.0 -61.4 -7.0
v 13.6 -61.0 -7.0
v 14.0 -61.0 -6.7
v 14.0 -60.0 -9.7
v 14.0 -60.0 -6.8
v 13.6 -59.0 -10.0
v 14.0 -59.0 -10.3
v 14.0 -59.5 -10.0
v 14.0 -59.6 -7.0
v 14.0 -59.0 -7.4
v 13.5 -58.0 -10.0
v 14.0 -58.0 -10.5
v 14.0 -58.0 -7.2
v 14.0 -57.0 -11.0
v 14.0 -57.0 -11.0
v 14.0 -57.0 -11.0
v 13.4 -57.0 -10.0
v 14.0 -57.0 -7.1
v 13.8 -57.0 -6.0
v 14.0 -57.0 -6.7
v 14.0 -57.2 -6.0
v 14.0 -57.0 -5.8
v 14.0 -56.0 -11.0
v 14.0 -56.0 -11.0
v 13.4 -56.0 -10.0
v 14.0 -56.0 -8.0
v 14.0 -56.0 -8.0
v 14.0 -56.0 -8.0
v 14.0 -56.0 -8.0
v 14.0 -56.8 -7.0
v 13.6 -56.0 -7.0
v 13.5 -56.0 -6.0
v 14.0 -56.1 -5.0
v 13.8 -56.0 -5.0
v 14.0 -56.0 -4.9
v 14.0 -56.0 -11.0
v 13.5 -55.0 -10.0
v 14.0 -55.0 -10.4
v 13.8 -55.0 -8.0
v 14.0 -55.0 -8.2
v 13.5 -55.0 -7.0
v 14.0 -55.0 -7.8
v 13.5 -55.0 -6.0
v 14.0 -55.0 -5.5
v 14.0 -55.9 -5.0
v 13.6 -54.0 -10.0
v 14.0 -54.0 -10.4
v 13.3 -54.0 -9.0
v 14.0 -54.5 -8.0
v 13.2 -54.0 -7.0
v 14.0 -54.0 -5.6
v 13.6 -53.0 -10.0
v 14.0 -53.0 -10.4
v 13.4 -53.0 -9.0
v 14.0 -53.2 -6.0
v 14.0 -53.0 -6.1
v 13.6 -53.0 -6.0
v 13.6 -52.0 -10.0
v 14.0 -52.0 -10.5
v 13.3 -52.0 -9.0
v 13.1 -52.0 -7.0
v 14.0 -52.8 -6.0
v 14.0 -52.0 -5.7
v 13.5 -51.0 -10.0
v 14.0 -51.0 -10.6
v 13.3 -51.0 -8.0
v 13.5 -51.0 -7.0
v 13.7 -51.0 -6.0
v 14.0 -51.0 -5.8
v 13.8 -50.0 -11.0
v 14.0 -50.0 -11.3
v 14.0 -50.4 -11.0
v 13.4 -50.0 -10.0
v 13.4 -50.0 -8.0
v 13.5 -50.0 -7.0
v 13.7 -50.0 -6.0
v 14.0 -50.0 -5.8
v 13.6 -49.0 -11.0
v 14.0 -49.0 -11.4
v 13.4 -49.0 -10.0
v 13.5 -49.0 -8.0
v 13.4 -49.0 -7.0
v 14.0 -49.0 -5.6
v 13.6 -48.0 -11.0
v 14.0 -48.0 -11.4
v 13.6 -48.0 -10.0
v 13.6 -48.0 -9.0
v 13.9 -48.0 -8.0
v 13.6 -48.0 -7.0
v 13.6 -48.0 -6.0
v 14.0 -48.0 -5.6
v 13.9 -47.0 -11.0
v 14.0 -47.0 -11.1
v 14.0 -47.0 -10.8
v 14.0 -47.4 -10.0
v 14.0 -47.5 -9.0
v 13.8 -47.0 -8.0
v 14.0 -47.0 -8.4
v 13.5 -47.0 -7.0
v 13.7 -47.0 -6.0
v 14.0 -47.0 -5.7
v 14.0 -46.9 -11.0
v 14.0 -46.4 -8.0
v 13.6 -46.0 -7.0
v 14.0 -46.0 -7.8
v 13.7 -46.0 -6.0
v 14.0 -46.0 -5.7
v 13.7 -45.0 -8.0
v 14.0 -45.0 -8.4
v 14.0 -45.7 -8.0
v 13.5 -45.0 -7.0
v 13.8 -45.0 -6.0
v 14.0 -45.0 -5.8
v 13.8 -44.0 -8.0
v 14.0 -44.0 -8.4
v 13.8 -44.0 -7.0
v 14.0 -44.0 -6.8
v 14.0 -44.7 -6.0
v 14.0 -43.7 -8.0
v 14.0 -43.8 -7.0
v 15.0 -62.0 -8.4
v 15.0 -62.4 -8.0
v 15.0 -62.3 -7.0
v 14.5 -62.0 -7.0
v 15.0 -62.0 -6.3
v 15.0 -61.0 -9.5
v 15.0 -61.5 -9.0
v 15.0 -61.0 -6.6
v 14.7 -60.0 -10.0
v 15.0 -60.0 -10.2
v 15.0 -60.2 -10.0
v 14.5 -60.0 -7.0
v 15.0 -60.4 -7.0
v 15.0 -60.0 -7.2
v 15.0 -59.0 -10.5
v 15.0 -59.0 -7.3
v 15.0 -58.0 -10.6
v 15.0 -58.7 -7.0
v 14.3 -58.0 -7.0
v 15.0 -58.1 -6.0
v 14.9 -58.0 -6.0
v 15.0 -58.0 -5.9
v 14.1 -57.0 -11.0
v 15.0 -57.0 -10.7
v 14.1 -57.0 -7.0
v 15.0 -57.0 -5.2
v 14.1 -56.0 -11.0
v 15.0 -56.0 -10.7
v 15.0 -56.1 -8.0
v 15.0 -56.0 -8.1
v 15.0 -56.0 -7.9
v 14.1 -56.0 -5.0
v 15.0 -56.0 -5.5
v 15.0 -55.0 -10.6
v 15.0 -55.1 -8.0
v 14.9 -55.0 -8.0
v 15.0 -55.0 -5.6
v 15.0 -54.0 -10.6
v 15.0 -54.0 -5.7
v 15.0 -53.0 -10.7
v 15.0 -53.5 -6.0
v 15.0 -53.0 -6.3
v 14.6 -52.0 -11.0
v 15.0 -52.0 -11.3
v 15.0 -52.5 -11.0
v 15.0 -52.3 -6.0
v 15.0 -52.0 -5.9
v 14.4 -51.0 -11.0
v 15.0 -51.0 -11.4
v 14.4 -51.0 -6.0
v 15.0 -51.7 -6.0
v 15.0 -51.0 -6.3
v 15.0 -50.0 -11.7
v 14.4 -50.0 -6.0
v 15.0 -50.0 -6.3
v 14.6 -49.0 -12.0
v 15.0 -49.0 -12.4
v 15.0 -49.5 -12.0
v 15.0 -49.5 -6.0
v 15.0 -49.0 -5.7
v 14.5 -48.0 -12.0
v 15.0 -48.0 -12.5
v 15.0 -48.0 -5.6
v 14.6 -47.0 -12.0
v 15.0 -47.0 -12.4
v 14.4 -47.0 -10.0
v 14.3 -47.0 -9.0
v 15.0 -47.0 -5.6
v 15.0 -46.5 -12.0
v 14.8 -46.0 -11.0
v 15.0 -46.0 -11.3
v 15.0 -46.0 -10.4
v 15.0 -46.1 -10.0
v 14.6 -46.0 -9.0
v 15.0 -46.0 -9.8
v 14.2 -46.0 -8.0
v 15.0 -46.0 -5.5
v 15.0 -45.7 -11.0
v 14.5 -45.0 -9.0
v 15.0 -45.0 -9.7
v 15.0 -45.0 -5.7
v 14.7 -44.0 -10.0
v 15.0 -44.0 -10.4
v 15.0 -44.5 -10.0
v 14.3 -44.0 -9.0
v 15.0 -44.7 -6.0
v 15.0 -44.0 -6.7
v 14.7 -43.0 -10.0
v 15.0 -43.0 -10.3
v 14.3 -43.0 -9.0
v 15.0 -43.3 -8.0
v 15.0 -43.0 -8.4
v 15.0 -43.7 -7.0
v 15.0 -42.7 -10.0
v 15.0 -42.6 -9.0
v 16.0 -62.0 -8.4
v 16.0 -62.3 -8.0
v 16.0 -62.2 -7.0
v 16.0 -62.0 -6.7
v 16.0 -61.0 -9.3
v 16.0 -61.4 -9.0
v 16.0 -61.0 -6.7
v 15.3 -60.0 -10.0
v 16.0 -60.0 -9.7
v 16.0 -60.6 -7.0
v 16.0 -60.0 -7.3
v 16.0 -59.0 -10.5
v 16.0 -59.6 -10.0
v 16.0 -59.3 -7.0
v 15.6 -59.0 -7.0
v 16.0 -59.0 -6.8
v 15.6 -58.0 -11.0
v 16.0 -58.0 -11.3
v 16.0 -58.3 -11.0
v 16.0 -58.0 -6.4
v 15.1 -58.0 -6.0
v 15.4 -57.0 -11.0
v 16.0 -57.0 -11.4
v 15.6 -57.0 -6.0
v 16.0 -57.0 -6.4
v 15.4 -56.0 -11.0
v 16.0 -56.0 -11.4
v 15.2 -56.0 -8.0
v 15.5 -56.0 -6.0
v 16.0 -56.0 -6.5
v 15.5 -55.0 -11.0
v 16.0 -55.0 -11.5
v 15.5 -55.0 -6.0
v 16.0 -55.0 -6.4
v 15.5 -54.0 -11.0
v 16.0 -54.0 -11.5
v 15.3 -54.0 -6.0
v 16.0 -54.0 -6.5
v 15.4 -53.0 -11.0
v 16.0 -53.0 -11.5
v 16.0 -53.0 -6.6
v 16.0 -52.0 -11.6
v 15.2 -52.0 -6.0
v 16.0 -52.0 -6.4
v 16.0 -51.0 -11.8
v 16.0 -51.0 -6.5
v 15.4 -50.0 -12.0
v 16.0 -50.0 -12.5
v 16.0 -50.6 -12.0
v 16.0 -50.0 -6.5
v 15.8 -49.0 -13.0
v 16.0 -49.0 -13.1
v 16.0 -49.2 -13.0
v 15.4 -49.0 -6.0
v 16.0 -49.0 -6.4
v 15.5 -48.0 -13.0
v 16.0 -48.0 -13.4
v 15.5 -48.0 -6.0
v 16.0 -48.0 -6.4
v 15.5 -47.0 -13.0
v 16.0 -47.0 -13.5
v 15.6 -47.0 -6.0
v 16.0 -47.0 -6.3
v 15.8 -46.0 -13.0
v 16.0 -46.0 -13.6
v 15.4 -46.0 -12.0
v 15.1 -46.0 -10.0
v 16.0 -46.3 -6.0
v 16.0 -46.0 -5.8
v 16.0 -45.8 -13.0
v 16.0 -45.4 -12.0
v 15.5 -45.0 -11.0
v 16.0 -45.0 -11.6
v 15.2 -45.0 -10.0
v 15.4 -45.0 -6.0
v 16.0 -45.7 -6.0
v 16.0 -45.0 -6.4
v 15.5 -44.0 -11.0
v 16.0 -44.0 -11.5
v 15.5 -44.0 -7.0
v 16.0 -44.4 -7.0
v 16.0 -44.0 -7.3
v 15.6 -43.0 -11.0
v 16.0 -43.0 -11.4
v 15.8 -43.0 -8.0
v 16.0 -43.0 -7.9
v 16.0 -42.5 -11.0
v 15.9 -42.0 -10.0
v 16.0 -42.0 -10.2
v 16.0 -42.0 -9.8
v 16.0 -42.4 -9.0
v 16.0 -42.9 -8.0
v 16.0 -41.9 -10.0
v 16.9 -62.0 -8.0
v 16.3 -62.0 -7.0
v 16.5 -61.0 -9.0
v 17.0 -61.0 -8.4
v 17.0 -61.9 -8.0
v 17.0 -61.0 -7.7
v 16.3 -61.0 -7.0
v 17.0 -60.0 -9.5
v 17.0 -60.6 -9.0
v 17.0 -60.0 -7.5
v 17.0 -59.0 -10.6
v 17.0 -59.5 -10.0
v 16.3 -59.0 -7.0
v 17.0 -59.0 -7.3
v 17.0 -58.0 -11.5
v 17.0 -58.6 -11.0
v 17.0 -58.5 -7.0
v 17.0 -58.0 -6.7
v 17.0 -57.0 -11.6
v 17.0 -57.0 -6.6
v 17.0 -56.0 -11.7
v 17.0 -56.0 -6.7
v 16.6 -55.0 -12.0
v 17.0 -55.0 -12.3
v 17.0 -55.5 -12.0
v 17.0 -55.0 -6.8
v 16.5 -54.0 -12.0
v 17.0 -54.0 -12.4
v 16.6 -54.0 -7.0
v 17.0 -54.6 -7.0
v 17.0 -54.0 -7.3
v 16.5 -53.0 -12.0
v 17.0 -53.0 -12.4
v 16.7 -53.0 -7.0
v 17.0 -53.0 -7.2
v 16.5 -52.0 -12.0
v 17.0 -52.0 -12.5
v 17.0 -52.7 -7.0
v 17.0 -52.0 -6.6
v 16.8 -51.0 -13.0
v 17.0 -51.0 -13.2
v 17.0 -51.3 -13.0
v 16.3 -51.0 -12.0
v 17.0 -51.0 -6.5
v 16.6 -50.0 -13.0
v 17.0 -50.0 -13.3
v 17.0 -50.0 -6.6
v 17.0 -49.0 -13.0
v 17.0 -49.0 -6.5
v 17.0 -48.0 -13.5
v 17.0 -48.0 -6.5
v 16.8 -47.0 -14.0
v 17.0 -47.0 -14.1
v 17.0 -47.2 -14.0
v 17.0 -47.0 -6.6
v 17.0 -46.8 -14.0
v 17.0 -46.1 -13.0
v 16.7 -46.0 -13.0
v 17.0 -46.0 -12.9
v 16.2 -46.0 -6.0
v 17.0 -46.0 -6.5
v 17.0 -45.0 -12.4
v 16.4 -45.0 -12.0
v 17.0 -45.0 -6.7
v 16.5 -44.0 -12.0
v 17.0 -44.0 -12.4
v 17.0 -44.6 -7.0
v 17.0 -44.0 -7.5
v 16.5 -43.0 -12.0
v 17.0 -43.0 -12.4
v 16.2 -43.0 -8.0
v 17.0 -43.4 -8.0
v 17.0 -43.0 -8.4
v 16.8 -42.0 -12.0
v 17.0 -42.0 -12.2
v 16.4 -42.0 -11.0
v 17.0 -42.5 -9.0
v 17.0 -42.0 -9.7
v 17.0 -41.7 -12.0
v 17.0 -41.5 -11.0
v 17.0 -41.7 -10.0
v 17.3 -61.0 -8.0
v 18.0 -60.0 -9.3
v 18.0 -60.3 -9.0
v 18.0 -60.3 -8.0
v 18.0 -60.0 -7.8
v 17.5 -59.0 -11.0
v 18.0 -59.0 -11.3
v 18.0 -59.3 -11.0
v 18.0 -59.6 -10.0
v 18.0 -59.0 -7.5
v 17.7 -58.0 -12.0
v 18.0 -58.0 -12.2
v 18.0 -58.3 -12.0
v 17.4 -58.0 -7.0
v 18.0 -58.0 -7.4
v 17.5 -57.0 -12.0
v 18.0 -57.0 -12.4
v 17.5 -57.0 -7.0
v 18.0 -57.0 -7.5
v 17.4 -56.0 -12.0
v 18.0 -56.0 -12.5
v 17.8 -56.0 -8.0
v 18.0 -56.3 -8.0
v 18.0 -56.0 -8.2
v 17.3 -56.0 -7.0
v 18.0 -55.0 -12.5
v 17.7 -55.0 -8.0
v 18.0 -55.0 -8.2
v 17.2 -55.0 -7.0
v 18.0 -54.0 -12.5
v 18.0 -54.6 -8.0
v 18.0 -54.0 -7.7
v 18.0 -53.0 -12.5
v 18.0 -53.0 -7.4
v 18.0 -52.0 -12.6
v 18.0 -52.5 -7.0
v 18.0 -52.0 -6.5
v 18.0 -51.0 -13.4
v 18.0 -51.5 -13.0
v 18.0 -51.0 -6.6
v 18.0 -50.0 -13.5
v 17.8 -50.0 -7.0
v 18.0 -50.2 -7.0
v 18.0 -50.0 -7.1
v 18.0 -49.0 -13.4
v 18.0 -49.7 -7.0
v 18.0 -49.0 -6.7
v 18.0 -48.0 -13.6
v 18.0 -48.0 -6.7
v 18.0 -47.0 -14.1
v 18.0 -47.1 -14.0
v 18.0 -47.0 -7.0
v 18.0 -46.9 -14.0
v 17.3 -46.0 -13.0
v 18.0 -46.0 -13.3
v 18.0 -46.0 -6.8
v 18.0 -45.7 -13.0
v 18.0 -45.0 -12.6
v 17.6 -45.0 -7.0
v 18.0 -45.5 -7.0
v 18.0 -45.0 -7.2
v 18.0 -44.0 -12.6
v 18.0 -44.0 -7.6
v 18.0 -43.0 -13.0
v 18.0 -43.5 -8.0
v 18.0 -43.0 -8.5
v 18.0 -42.0 -12.7
v 17.7 -42.0 -10.0
v 18.0 -42.1 -10.0
v 18.0 -42.0 -10.1
v 18.0 -42.6 -9.0
v 17.7 -41.0 -12.0
v 18.0 -41.0 -12.3
v 17.9 -41.0 -11.0
v 18.0 -41.0 -10.9
v 18.0 -40.8 -12.0
v 18.0 -40.9 -11.0
v 18.3 -60.0 -9.0
v 18.3 -60.0 -8.0
v 19.0 -59.0 -11.3
v 19.0 -59.3 -11.0
v 19.0 -59.5 -10.0
v 19.0 -59.6 -9.0
v 19.0 -59.3 -8.0
v 19.0 -59.0 -7.7
v 19.0 -58.0 -12.4
v 19.0 -58.4 -12.0
v 19.0 -58.0 -7.5
v 19.0 -57.0 -12.7
v 19.0 -57.0 -7.7
v 18.8 -56.0 -13.0
v 19.0 -56.0 -13.2
v 19.0 -56.3 -13.0
v 19.0 -56.6 -8.0
v 19.0 -56.0 -8.4
v 19.0 -55.7 -13.0
v 19.0 -55.0 -12.7
v 19.0 -55.0 -8.5
v 19.0 -54.0 -12.6
v 18.5 -54.0 -8.0
v 19.0 -54.0 -8.3
v 19.0 -53.0 -12.6
v 19.0 -53.5 -8.0
v 19.0 -53.0 -7.6
v 19.0 -52.0 -12.8
v 19.0 -52.4 -7.0
v 19.0 -52.0 -6.3
v 19.0 -51.0 -13.5
v 19.0 -51.7 -13.0
v 19.0 -51.0 -6.5
v 19.0 -50.0 -13.6
v 19.0 -50.3 -7.0
v 19.0 -50.0 -7.2
v 19.0 -49.0 -13.6
v 18.4 -49.0 -7.0
v 19.0 -49.0 -7.4
v 19.0 -48.0 -13.6
v 18.5 -48.0 -7.0
v 19.0 -48.0 -7.3
v 18.1 -47.0 -14.0
v 19.0 -47.0 -13.6
v 19.0 -47.1 -7.0
v 19.0 -47.0 -7.0
v 18.4 -46.0 -13.0
v 19.0 -46.3 -13.0
v 19.0 -46.0 -12.7
v 18.7 -46.0 -7.0
v 19.0 -46.7 -7.0
v 19.0 -46.0 -7.1
v 19.0 -45.0 -12.5
v 19.0 -45.0 -7.0
v 19.0 -44.0 -12.5
v 19.0 -44.0 -7.6
v 19.0 -43.0 -12.7
v 19.0 -43.6 -8.0
v 19.0 -43.0 -8.5
v 18.5 -42.0 -13.0
v 19.0 -42.0 -13.3
v 19.0 -42.5 -13.0
v 18.3 -42.0 -10.0
v 19.0 -42.0 -9.6
v 19.0 -42.5 -9.0
v 18.7 -41.0 -13.0
v 19.0 -41.0 -13.2
v 18.2 -41.0 -11.0
v 19.0 -41.3 -11.0
v 19.0 -41.0 -11.4
v 19.0 -41.7 -10.0
v 19.0 -40.7 -13.0
v 19.0 -40.6 -12.0
v 19.4 -59.0 -11.0
v 20.0 -59.0 -10.5
v 20.0 -59.3 -10.0
v 20.0 -59.4 -9.0
v 19.4 -59.0 -8.0
v 20.0 -59.0 -8.5
v 20.0 -58.0 -12.3
v 20.0 -58.3 -12.0
v 20.0 -58.6 -11.0
v 20.0 -58.3 -8.0
v 20.0 -58.0 -7.8
v 19.7 -57.0 -13.0
v 20.0 -57.0 -13.1
v 20.0 -57.2 -13.0
v 19.6 -57.0 -8.0
v 20.0 -57.5 -8.0
v 20.0 -57.0 -8.2
v 20.0 -56.0 -13.4
v 20.0 -56.0 -8.5
v 19.4 -55.0 -13.0
v 20.0 -55.0 -13.4
v 20.0 -55.0 -8.5
v 19.5 -54.0 -13.0
v 20.0 -54.0 -13.4
v 20.0 -54.0 -8.5
v 19.5 -53.0 -13.0
v 20.0 -53.0 -13.5
v 19.6 -53.0 -8.0
v 20.0 -53.0 -8.3
v 19.3 -52.0 -13.0
v 20.0 -52.0 -13.5
v 20.0 -52.7 -8.0
v 19.7 -52.0 -7.0
v 20.0 -52.0 -7.2
v 20.0 -51.0 -14.0
v 20.0 -51.0 -14.0
v 20.0 -51.0 -14.0
v 20.0 -51.8 -7.0
v 20.0 -51.0 -6.4
v 19.6 -50.0 -14.0
v 20.0 -50.0 -14.2
v 19.3 -50.0 -7.0
v 20.0 -50.1 -6.0
v 20.0 -50.0 -6.0
v 20.0 -50.0 -6.0
v 19.5 -49.0 -14.0
v 20.0 -49.0 -14.4
v 20.0 -49.3 -7.0
v 20.0 -49.0 -7.3
v 20.0 -50.0 -6.0
v 19.5 -48.0 -14.0
v 20.0 -48.0 -14.4
v 20.0 -48.0 -7.5
v 19.7 -47.0 -14.0
v 20.0 -47.0 -14.2
v 19.1 -47.0 -7.0
v 20.0 -47.0 -7.3
v 20.0 -46.8 -14.0
v 20.0 -46.4 -13.0
v 20.0 -46.0 -12.6
v 20.0 -46.0 -7.0
v 20.0 -45.0 -12.5
v 20.0 -45.0 -7.4
v 20.0 -44.0 -12.5
v 19.7 -44.0 -8.0
v 20.0 -44.2 -8.0
v 20.0 -44.0 -8.1
v 20.0 -43.0 -12.7
v 20.0 -43.0 -8.6
v 20.0 -42.0 -13.5
v 20.0 -42.6 -13.0
v 20.0 -42.5 -9.0
v 20.0 -42.0 -9.6
v 20.0 -41.0 -13.6
v 20.0 -41.4 -11.0
v 20.0 -41.0 -11.5
v 20.0 -41.7 -10.0
v 19.9 -40.0 -13.0
v 20.0 -40.0 -13.1
v 20.0 -40.0 -12.9
v 20.0 -40.5 -12.0
v 20.0 -39.9 -13.0
v 20.5 -59.0 -10.0
v 21.0 -59.0 -9.1
v 21.0 -59.1 -9.0
v 21.0 -59.0 -8.9
v 20.3 -58.0 -12.0
v 20.7 -58.0 -11.0
v 21.0 -58.0 -10.6
v 21.0 -58.6 -10.0
v 20.3 -58.0 -8.0
v 21.0 -58.0 -8.4
v 20.3 -57.0 -13.0
v 21.0 -57.0 -12.5
v 21.0 -57.5 -12.0
v 21.0 -57.6 -11.0
v 21.0 -57.0 -8.2
v 21.0 -56.0 -13.3
v 21.0 -56.4 -13.0
v 20.8 -56.0 -9.0
v 21.0 -56.3 -9.0
v 21.0 -56.0 -9.2
v 21.0 -55.0 -13.4
v 21.0 -55.6 -9.0
v 21.0 -55.0 -8.8
v 21.0 -54.0 -13.5
v 21.0 -54.0 -8.6
v 20.9 -53.0 -14.0
v 21.0 -53.0 -14.1
v 21.0 -53.1 -14.0
v 21.0 -53.0 -8.3
v 21.0 -52.9 -14.0
v 21.0 -52.0 -13.5
v 21.0 -52.7 -8.0
v 21.0 -52.3 -7.0
v 20.3 -52.0 -7.0
v 21.0 -52.0 -6.6
v 20.0 -51.0 -14.0
v 21.0 -51.2 -13.0
v 20.9 -51.0 -13.0
v 21.0 -51.0 -12.9
v 21.0 -51.5 -6.0
v 20.5 -51.0 -6.0
v 21.0 -51.0 -5.6
v 20.4 -50.0 -14.0
v 21.0 -50.0 -13.5
v 21.0 -50.8 -13.0
v 21.0 -50.0 -5.6
v 21.0 -49.0 -14.3
v 21.0 -49.4 -14.0
v 20.4 -49.0 -7.0
v 21.0 -49.0 -6.6
v 21.0 -49.6 -6.0
v 21.0 -48.0 -14.5
v 21.0 -48.4 -7.0
v 21.0 -48.0 -7.3
v 21.0 -47.0 -14.3
v 21.0 -47.0 -7.4
v 21.0 -46.7 -14.0
v 21.0 -46.3 -13.0
v 21.0 -46.0 -12.7
v 21.0 -46.0 -7.4
v 21.0 -45.0 -12.5
v 21.0 -45.0 -7.5
v 21.0 -44.0 -12.6
v 20.5 -44.0 -8.0
v 21.0 -44.0 -7.9
v 20.6 -43.0 -13.0
v 21.0 -43.0 -13.2
v 21.0 -43.3 -13.0
v 21.0 -43.8 -8.0
v 21.0 -43.0 -8.7
v 20.9 -42.0 -14.0
v 21.0 -42.0 -14.1
v 21.0 -42.1 -14.0
v 20.5 -42.0 -10.0
v 21.0 -42.3 -10.0
v 21.0 -42.0 -10.4
v 21.0 -42.7 -9.0
v 20.5 -41.0 -14.0
v 21.0 -41.0 -14.3
v 21.0 -41.5 -11.0
v 21.0 -41.0 -11.5
v 20.8 -40.0 -14.0
v 21.0 -40.0 -14.2
v 21.0 -40.5 -12.0
v 21.0 -40.0 -12.6
v 21.0 -39.8 -14.0
v 21.0 -39.7 -13.0
v 21.1 -59.0 -9.0
v 22.0 -58.0 -10.0
v 22.0 -58.0 -9.4
v 22.0 -58.0 -9.0
v 22.0 -58.0 -9.0
v 21.9 -57.0 -12.0
v 21.5 -57.0 -11.0
v 21.6 -57.0 -10.0
v 22.0 -58.0 -9.0
v 21.4 -57.0 -9.0
v 21.3 -56.0 -13.0
v 22.0 -56.0 -12.1
v 22.0 -56.7 -12.0
v 22.0 -56.0 -11.9
v 21.6 -56.0 -11.0
v 21.4 -56.0 -10.0
v 21.4 -55.0 -13.0
v 22.0 -55.8 -12.0
v 21.7 -55.0 -12.0
v 21.6 -55.0 -11.0
v 21.6 -55.0 -10.0
v 21.3 -55.0 -9.0
v 21.6 -54.0 -13.0
v 22.0 -54.0 -12.5
v 22.0 -54.5 -12.0
v 22.0 -54.5 -11.0
v 22.0 -54.4 -10.0
v 22.0 -54.0 -9.5
v 21.6 -54.0 -9.0
v 21.7 -53.0 -14.0
v 22.0 -53.0 -13.9
v 22.0 -53.6 -13.0
v 22.0 -53.7 -9.0
v 22.0 -53.3 -8.0
v 21.5 -53.0 -8.0
v 22.0 -53.0 -7.7
v 22.0 -52.0 -13.3
v 22.0 -52.4 -7.0
v 22.0 -52.1 -6.0
v 21.8 -52.0 -6.0
v 22.0 -52.0 -5.9
v 22.0 -51.7 -13.0
v 21.9 -51.0 -12.0
v 22.0 -51.1 -12.0
v 22.0 -51.0 -11.9
v 22.0 -51.1 -5.0
v 21.9 -51.0 -5.0
v 22.0 -51.0 -4.9
v 21.4 -50.0 -13.0
v 22.0 -50.0 -12.4
v 22.0 -50.8 -12.0
v 22.0 -50.8 -5.0
v 22.0 -50.0 -5.4
v 21.3 -49.0 -14.0
v 21.8 -49.0 -13.0
v 22.0 -49.0 -12.8
v 22.0 -49.3 -6.0
v 22.0 -49.0 -6.2
v 22.0 -48.0 -14.3
v 22.0 -48.3 -14.0
v 22.0 -48.8 -13.0
v 21.4 -48.0 -7.0
v 22.0 -48.0 -6.5
v 22.0 -47.0 -14.3
v 21.6 -47.0 -7.0
v 22.0 -47.0 -6.7
v 22.0 -46.7 -14.0
v 22.0 -46.2 -13.0
v 22.0 -46.0 -12.8
v 22.0 -46.5 -7.0
v 22.0 -46.0 -7.3
v 22.0 -45.0 -12.5
v 22.0 -45.0 -7.7
v 22.0 -44.0 -12.5
v 21.3 -44.0 -8.0
v 22.0 -44.5 -8.0
v 22.0 -44.0 -8.4
v 21.4 -43.0 -13.0
v 22.0 -43.0 -12.7
v 21.5 -43.0 -9.0
v 22.0 -43.4 -9.0
v 22.0 -43.0 -9.4
v 21.2 -42.0 -14.0
v 22.0 -42.0 -13.4
v 22.0 -42.5 -13.0
v 22.0 -42.5 -10.0
v 22.0 -42.0 -10.5
v 22.0 -41.0 -14.2
v 22.0 -41.3 -14.0
v 22.0 -41.5 -11.0
v 22.0 -41.0 -11.7
v 22.0 -40.0 -14.2
v 22.0 -40.7 -12.0
v 22.0 -40.0 -12.8
v 22.0 -39.8 -14.0
v 22.0 -39.8 -13.0
v 22.0 -58.0 -9.0
v 22.1 -56.0 -12.0
v 22.4 -54.0 -12.0
v 22.5 -54.0 -11.0
v 22.4 -54.0 -10.0
v 22.4 -53.0 -13.0
v 23.0 -53.0 -12.2
v 23.0 -53.2 -12.0
v 23.0 -53.5 -11.0
v 23.0 -53.5 -10.0
v 23.0 -53.4 -9.0
v 23.0 -53.0 -8.0
v 23.0 -53.0 -8.0
v 22.2 -52.0 -13.0
v 23.0 -52.7 -12.0
v 22.6 -52.0 -12.0
v 23.0 -52.0 -11.7
v 22.9 -52.0 -8.0
v 23.0 -52.8 -8.0
v 23.0 -52.0 -8.1
v 22.4 -52.0 -7.0
v 22.1 -52.0 -6.0
v 23.0 -51.0 -11.4
v 23.0 -51.7 -8.0
v 23.0 -51.0 -7.3
v 22.9 -51.0 -7.0
v 23.0 -51.0 -6.7
v 23.0 -51.4 -6.0
v 23.0 -51.2 -5.0
v 23.0 -51.0 -4.8
v 22.5 -50.0 -12.0
v 23.0 -50.0 -11.6
v 23.0 -50.8 -7.0
v 22.5 -50.0 -5.0
v 23.0 -50.0 -4.6
v 23.0 -49.0 -12.4
v 23.0 -49.5 -12.0
v 22.3 -49.0 -6.0
v 22.8 -49.0 -5.0
v 23.0 -49.0 -4.8
v 22.4 -48.0 -14.0
v 23.0 -48.0 -13.5
v 23.0 -48.4 -13.0
v 22.7 -48.0 -6.0
v 23.0 -48.0 -5.8
v 23.0 -48.8 -5.0
v 23.0 -47.0 -14.1
v 23.0 -47.2 -14.0
v 23.0 -47.7 -6.0
v 23.0 -47.0 -6.5
v 23.0 -46.9 -14.0
v 22.4 -46.0 -13.0
v 23.0 -46.0 -13.4
v 22.8 -46.0 -7.0
v 23.0 -46.0 -6.9
v 23.0 -45.6 -13.0
v 23.0 -45.0 -12.6
v 22.6 -45.0 -8.0
v 23.0 -45.3 -8.0
v 23.0 -45.0 -8.3
v 23.0 -45.9 -7.0
v 23.0 -44.0 -12.5
v 23.0 -44.0 -8.7
v 23.0 -43.0 -12.4
v 23.0 -43.7 -9.0
v 23.0 -43.0 -9.6
v 22.3 -42.0 -13.0
v 23.0 -42.4 -12.0
v 22.7 -42.0 -12.0
v 23.0 -42.0 -11.3
v 23.0 -42.6 -10.0
v 23.0 -42.0 -10.8
v 22.2 -41.0 -14.0
v 22.5 -41.0 -13.0
v 22.3 -41.0 -12.0
v 23.0 -41.9 -11.0
v 22.2 -40.0 -14.0
v 22.2 -40.0 -13.0
v 23.1 -53.0 -12.0
v 23.4 -53.0 -11.0
v 23.5 -53.0 -10.0
v 23.4 -53.0 -9.0
v 23.0 -53.0 -8.0
v 24.0 -52.0 -11.0
v 24.0 -52.0 -11.0
v 24.0 -52.3 -10.0
v 24.0 -52.1 -9.0
v 24.0 -52.0 -9.0
v 24.0 -52.0 -11.0
v 23.5 -51.0 -11.0
v 23.6 -51.0 -10.0
v 24.0 -51.7 -10.0
v 23.6 -51.0 -9.0
v 24.0 -51.9 -9.0
v 23.3 -51.0 -8.0
v 23.4 -51.0 -6.0
v 23.2 -51.0 -5.0
v 23.5 -50.0 -11.0
v 23.6 -50.0 -10.0
v 23.6 -50.0 -9.0
v 23.6 -50.0 -8.0
v 23.6 -50.0 -7.0
v 24.0 -50.0 -6.5
v 24.0 -50.3 -6.0
v 24.0 -50.2 -5.0
v 24.0 -50.0 -4.8
v 23.5 -49.0 -12.0
v 24.0 -49.0 -11.4
v 24.0 -49.4 -11.0
v 24.0 -49.5 -10.0
v 24.0 -49.5 -9.0
v 24.0 -49.5 -8.0
v 24.0 -49.6 -7.0
v 24.0 -49.0 -4.8
v 23.5 -48.0 -13.0
v 24.0 -48.0 -12.4
v 24.0 -48.4 -12.0
v 23.4 -48.0 -6.0
v 24.0 -48.4 -6.0
v 24.0 -48.0 -6.4
v 24.0 -48.8 -5.0
v 23.1 -47.0 -14.0
v 24.0 -47.0 -13.3
v 24.0 -47.4 -13.0
v 23.9 -47.0 -8.0
v 24.0 -47.2 -8.0
v 24.0 -47.0 -8.2
v 23.6 -47.0 -7.0
v 24.0 -47.5 -7.0
v 24.0 -46.0 -13.2
v 24.0 -46.6 -8.0
v 24.0 -46.0 -7.8
v 23.1 -46.0 -7.0
v 24.0 -45.7 -13.0
v 24.0 -45.0 -12.5
v 24.0 -45.8 -8.0
v 24.0 -45.0 -8.6
v 24.0 -44.0 -12.4
v 23.4 -44.0 -9.0
v 24.0 -44.6 -9.0
v 24.0 -44.0 -9.5
v 24.0 -43.0 -12.2
v 23.4 -43.0 -10.0
v 24.0 -43.5 -10.0
v 24.0 -43.0 -10.6
v 24.0 -42.8 -12.0
v 23.1 -42.0 -11.0
v 24.0 -42.7 -11.0
v 24.0 -52.0 -11.0
v 24.2 -52.0 -10.0
v 24.0 -52.0 -9.0
v 24.3 -50.0 -6.0
v 24.2 -50.0 -5.0
v 24.3 -49.0 -11.0
v 24.4 -49.0 -10.0
v 24.4 -49.0 -9.0
v 24.4 -49.0 -8.0
v 24.4 -49.0 -7.0
v 24.4 -49.0 -6.0
v 24.2 -49.0 -5.0
v 24.3 -48.0 -12.0
v 24.5 -48.0 -11.0
v 24.5 -48.0 -10.0
v 24.5 -48.0 -9.0
v 24.4 -48.0 -8.0
v 24.3 -48.0 -7.0
v 24.3 -47.0 -13.0
v 24.6 -47.0 -12.0
v 24.6 -47.0 -11.0
v 24.6 -47.0 -10.0
v 24.5 -47.0 -9.0
v 24.3 -46.0 -13.0
v 25.0 -46.0 -12.1
v 25.0 -46.2 -12.0
v 25.0 -46.5 -11.0
v 25.0 -46.4 -10.0
v 25.0 -46.1 -9.0
v 24.2 -46.0 -8.0
v 25.0 -46.0 -8.9
v 24.6 -45.0 -12.0
v 25.0 -45.8 -12.0
v 25.0 -45.0 -11.5
v 24.7 -45.0 -10.0
v 25.0 -45.5 -10.0
v 25.0 -45.0 -10.5
v 24.4 -45.0 -9.0
v 25.0 -45.9 -9.0
v 24.4 -44.0 -12.0
v 25.0 -44.0 -11.1
v 24.4 -44.0 -10.0
v 25.0 -44.0 -10.9
v 24.2 -43.0 -12.0
v 25.0 -43.9 -11.0
v 24.3 -43.0 -11.0
v 25.1 -46.0 -12.0
v 25.3 -46.0 -11.0
v 25.2 -46.0 -10.0
v 25.1 -46.0 -9.0
v 25.3 -45.0 -11.0
v 25.1 -44.0 -11.0
f 3 2 1
f 1 4 3
f 1 2 5
f 5 2 6
f 4 1 7
f 7 1 5
f 5 6 8
f 8 6 9
f 7 5 10
f 10 5 8
f 8 9 11
f 11 9 12
f 10 8 13
f 13 8 11
f 11 12 14
f 14 12 15
f 13 11 16
f 16 11 14
f 15 17 14
f 14 17 16
f 20 19 18
f 18 21 20
f 24 23 22
f 24 22 19
f 22 18 19
f 22 25 18
f 21 18 26
f 18 27 26
f 18 25 27
f 27 28 26
f 22 23 29
f 29 23 30
f 22 31 25
f 22 29 31
f 33 27 32
f 27 31 32
f 27 25 31
f 27 33 28
f 29 30 34
f 34 30 35
f 29 36 31
f 29 34 36
f 32 31 37
f 37 31 36
f 34 35 38
f 38 35 39
f 38 2 3
f 36 38 3
f 34 38 36
f 3 4 36
f 4 37 36
f 4 40 37
f 38 39 41
f 41 39 42
f 41 6 2
f 41 2 38
f 7 40 4
f 7 43 40
f 41 42 44
f 44 42 45
f 44 9 6
f 44 6 41
f 10 43 7
f 10 46 43
f 45 47 44
f 9 44 47
f 48 9 47
f 12 9 48
f 13 46 10
f 13 49 46
f 52 51 50
f 50 53 52
f 48 15 12
f 54 15 48
f 16 56 55
f 49 16 55
f 13 16 49
f 55 56 51
f 56 50 51
f 56 57 50
f 53 50 58
f 58 50 57
f 17 15 59
f 15 60 59
f 15 54 60
f 59 61 17
f 17 61 16
f 61 62 16
f 62 56 16
f 64 63 62
f 63 56 62
f 63 57 56
f 58 57 65
f 65 57 63
f 68 67 66
f 69 59 60
f 66 70 68
f 59 69 61
f 64 71 63
f 63 71 65
f 66 67 72
f 72 67 73
f 70 66 74
f 74 66 72
f 72 73 75
f 75 73 76
f 74 72 77
f 77 72 75
f 80 79 78
f 78 81 80
f 76 82 75
f 75 82 77
f 79 83 78
f 78 83 81
f 86 85 84
f 84 87 86
f 90 89 88
f 90 88 85
f 85 88 84
f 88 19 84
f 19 20 84
f 92 91 21
f 21 91 20
f 91 87 20
f 87 84 20
f 92 93 91
f 88 89 24
f 89 23 24
f 89 94 23
f 88 24 19
f 26 92 21
f 26 28 92
f 28 93 92
f 28 95 93
f 98 97 96
f 94 98 96
f 30 94 96
f 23 94 30
f 100 99 33
f 100 33 32
f 28 33 95
f 95 33 99
f 96 97 101
f 101 97 102
f 101 35 30
f 101 30 96
f 37 100 32
f 37 103 100
f 106 105 104
f 106 104 102
f 104 101 102
f 104 107 101
f 107 39 35
f 107 35 101
f 40 103 37
f 40 108 103
f 111 110 109
f 109 112 111
f 104 105 113
f 113 105 114
f 104 115 107
f 104 113 115
f 115 42 39
f 115 39 107
f 118 117 116
f 116 117 119
f 108 121 120
f 121 108 43
f 40 43 108
f 120 121 110
f 121 109 110
f 121 122 109
f 112 109 123
f 109 124 123
f 109 122 124
f 124 125 123
f 114 126 113
f 128 127 126
f 127 113 126
f 127 115 113
f 127 45 42
f 127 42 115
f 118 116 129
f 118 129 130
f 121 43 131
f 46 131 43
f 132 116 119
f 116 132 129
f 121 133 122
f 121 131 133
f 135 124 134
f 124 133 134
f 124 122 133
f 124 135 125
f 127 128 136
f 136 128 137
f 138 47 45
f 127 138 45
f 136 138 127
f 129 139 130
f 48 47 138
f 129 132 139
f 140 46 49
f 46 140 131
f 140 51 52
f 133 140 52
f 131 140 133
f 52 53 133
f 53 134 133
f 53 141 134
f 136 137 142
f 142 137 143
f 136 144 138
f 136 142 144
f 144 54 48
f 144 48 138
f 55 140 49
f 140 145 51
f 145 140 146
f 55 146 140
f 146 55 147
f 51 147 55
f 147 51 145
f 145 141 147
f 141 58 147
f 141 53 58
f 142 143 148
f 148 143 149
f 142 150 144
f 142 148 150
f 150 60 54
f 150 54 144
f 61 151 62
f 147 152 146
f 64 62 151
f 147 58 152
f 58 153 152
f 58 65 153
f 148 149 154
f 154 149 155
f 154 67 68
f 150 154 68
f 148 154 150
f 156 68 70
f 156 150 68
f 156 69 60
f 150 156 60
f 151 61 69
f 156 151 69
f 157 151 156
f 158 71 64
f 151 158 64
f 157 158 151
f 158 159 71
f 159 65 71
f 159 153 65
f 162 161 160
f 162 160 155
f 160 154 155
f 160 163 154
f 163 73 67
f 163 67 154
f 74 164 156
f 74 156 70
f 156 165 157
f 156 164 165
f 157 166 158
f 157 165 166
f 159 158 167
f 167 158 166
f 160 161 168
f 168 161 169
f 160 170 163
f 160 168 170
f 170 76 73
f 170 73 163
f 77 171 164
f 77 164 74
f 164 172 165
f 164 171 172
f 172 79 80
f 166 172 80
f 165 172 166
f 80 81 166
f 81 167 166
f 81 173 167
f 168 169 174
f 174 169 175
f 168 176 170
f 168 174 176
f 177 82 76
f 170 177 76
f 176 177 170
f 171 77 82
f 177 171 82
f 178 171 177
f 171 179 172
f 171 178 179
f 180 83 79
f 172 180 79
f 179 180 172
f 180 181 83
f 181 81 83
f 181 173 81
f 174 175 182
f 182 175 183
f 185 176 184
f 176 182 184
f 176 174 182
f 176 185 177
f 177 185 186
f 188 187 186
f 187 177 186
f 187 178 177
f 178 189 179
f 178 187 189
f 179 190 180
f 179 189 190
f 181 180 191
f 191 180 190
f 183 192 182
f 182 192 184
f 188 193 187
f 195 194 193
f 194 187 193
f 194 189 187
f 189 196 190
f 189 194 196
f 191 190 197
f 197 190 196
f 200 199 198
f 200 198 195
f 198 194 195
f 198 201 194
f 194 202 196
f 194 201 202
f 197 196 203
f 203 196 202
f 198 199 204
f 204 199 205
f 198 206 201
f 198 204 206
f 208 202 207
f 202 206 207
f 202 201 206
f 202 208 203
f 205 209 204
f 204 209 206
f 206 209 210
f 206 210 207
f 212 211 86
f 86 211 85
f 214 213 87
f 213 86 87
f 213 212 86
f 214 215 213
f 217 216 90
f 90 216 89
f 90 85 211
f 90 211 217
f 91 214 87
f 91 93 214
f 93 215 214
f 93 218 215
f 221 220 219
f 216 221 219
f 94 216 219
f 89 216 94
f 224 223 222
f 223 218 222
f 218 95 222
f 218 93 95
f 219 220 98
f 220 97 98
f 220 225 97
f 219 98 94
f 224 222 99
f 100 224 99
f 226 224 100
f 99 222 95
f 225 102 97
f 227 102 225
f 103 229 228
f 226 103 228
f 100 103 226
f 231 230 229
f 229 230 228
f 231 232 230
f 233 105 106
f 234 233 106
f 102 234 106
f 227 234 102
f 108 235 229
f 108 229 103
f 235 110 111
f 231 235 111
f 229 235 231
f 111 112 231
f 112 232 231
f 112 236 232
f 237 114 233
f 233 114 105
f 233 234 238
f 233 238 237
f 240 239 117
f 240 117 118
f 108 120 235
f 241 117 239
f 117 241 119
f 235 120 110
f 112 123 242
f 243 112 242
f 236 112 243
f 125 242 123
f 237 126 114
f 128 126 237
f 238 128 237
f 244 128 238
f 130 246 245
f 240 130 245
f 118 130 240
f 241 245 246
f 132 241 246
f 119 241 132
f 243 242 135
f 134 243 135
f 247 243 134
f 135 242 125
f 244 137 128
f 248 137 244
f 139 246 130
f 246 139 132
f 141 247 134
f 141 249 247
f 248 143 137
f 250 143 248
f 252 251 145
f 252 145 146
f 141 145 249
f 249 145 251
f 255 254 253
f 250 255 253
f 149 250 253
f 143 250 149
f 256 252 146
f 256 146 152
f 152 153 256
f 256 153 257
f 253 254 258
f 258 254 259
f 258 155 149
f 258 149 253
f 262 261 260
f 261 257 260
f 257 159 260
f 257 153 159
f 258 259 162
f 259 161 162
f 259 263 161
f 258 162 155
f 262 260 264
f 262 264 265
f 167 264 159
f 159 264 260
f 268 267 266
f 263 268 266
f 169 263 266
f 161 263 169
f 269 265 264
f 264 167 269
f 167 270 269
f 167 173 270
f 266 267 271
f 271 267 272
f 271 175 169
f 271 169 266
f 181 270 173
f 181 273 270
f 271 272 274
f 274 272 275
f 274 183 175
f 274 175 271
f 184 276 185
f 277 186 185
f 277 185 276
f 277 188 186
f 191 273 181
f 191 278 273
f 275 279 274
f 279 281 280
f 279 280 192
f 274 279 192
f 183 274 192
f 280 282 192
f 192 282 184
f 282 283 184
f 283 276 184
f 285 284 283
f 284 276 283
f 284 277 276
f 286 193 188
f 277 286 188
f 284 286 277
f 286 195 193
f 197 278 191
f 197 287 278
f 281 288 280
f 280 288 282
f 284 285 289
f 289 285 290
f 289 199 200
f 286 289 200
f 284 289 286
f 286 200 195
f 203 287 197
f 203 291 287
f 294 293 292
f 294 292 290
f 292 289 290
f 292 295 289
f 295 205 199
f 295 199 289
f 297 296 208
f 297 208 207
f 203 208 291
f 291 208 296
f 292 293 298
f 298 293 299
f 292 300 295
f 292 298 300
f 295 300 205
f 300 301 205
f 301 209 205
f 300 302 301
f 209 303 210
f 301 303 209
f 207 210 297
f 297 210 303
f 299 304 298
f 298 304 300
f 300 304 305
f 300 305 302
f 307 306 212
f 212 306 211
f 308 212 213
f 308 307 212
f 213 215 308
f 308 215 309
f 311 310 217
f 217 310 216
f 217 211 306
f 217 306 311
f 218 309 215
f 218 312 309
f 313 220 221
f 314 313 221
f 216 314 221
f 310 314 216
f 316 315 223
f 316 223 224
f 218 223 312
f 312 223 315
f 318 317 313
f 317 220 313
f 317 225 220
f 318 313 314
f 226 320 319
f 316 226 319
f 224 226 316
f 320 321 319
f 324 323 322
f 317 324 322
f 227 317 322
f 225 317 227
f 228 320 226
f 228 230 320
f 230 325 320
f 325 321 320
f 230 326 325
f 232 326 230
f 322 323 327
f 327 323 328
f 327 234 227
f 327 227 322
f 325 326 329
f 325 329 330
f 236 329 232
f 232 329 326
f 327 328 331
f 331 328 332
f 331 238 234
f 331 234 327
f 240 333 239
f 333 241 239
f 330 329 334
f 330 334 335
f 243 334 236
f 236 334 329
f 331 332 336
f 336 332 337
f 336 244 238
f 336 238 331
f 245 333 240
f 333 245 241
f 335 334 338
f 335 338 339
f 247 338 243
f 243 338 334
f 336 337 340
f 340 337 341
f 340 248 244
f 340 244 336
f 339 338 342
f 339 342 343
f 249 342 247
f 247 342 338
f 340 341 344
f 344 341 345
f 344 250 248
f 344 248 340
f 343 342 251
f 252 343 251
f 346 343 252
f 251 342 249
f 344 345 255
f 345 254 255
f 345 347 254
f 344 255 250
f 252 256 348
f 349 252 348
f 346 252 349
f 257 348 256
f 347 259 254
f 350 259 347
f 349 348 261
f 262 349 261
f 351 349 262
f 261 348 257
f 354 353 352
f 350 354 352
f 263 350 352
f 259 350 263
f 265 351 262
f 265 355 351
f 358 357 356
f 358 356 353
f 353 356 352
f 356 267 352
f 267 268 352
f 352 268 263
f 265 269 359
f 360 265 359
f 355 265 360
f 270 359 269
f 356 357 361
f 361 357 362
f 361 272 267
f 361 267 356
f 360 359 363
f 360 363 364
f 273 363 270
f 270 363 359
f 361 362 365
f 365 362 366
f 365 275 272
f 365 272 361
f 364 363 367
f 364 367 368
f 278 367 273
f 273 367 363
f 365 366 369
f 369 366 370
f 371 279 275
f 365 371 275
f 369 371 365
f 371 281 279
f 282 372 283
f 372 285 283
f 373 368 367
f 367 278 373
f 278 374 373
f 278 287 374
f 370 375 369
f 369 375 371
f 371 375 376
f 376 378 377
f 376 377 288
f 371 376 288
f 281 371 288
f 372 282 288
f 377 372 288
f 379 372 377
f 379 290 285
f 379 285 372
f 382 381 380
f 381 374 380
f 374 291 380
f 374 287 291
f 377 378 383
f 383 378 384
f 383 293 294
f 379 383 294
f 377 383 379
f 379 294 290
f 387 386 385
f 385 386 382
f 385 382 380
f 297 385 380
f 296 297 380
f 296 380 291
f 383 384 388
f 388 384 389
f 388 299 293
f 388 293 383
f 302 390 301
f 391 387 385
f 301 391 385
f 303 301 385
f 391 301 390
f 303 385 297
f 389 392 388
f 392 394 393
f 392 393 304
f 388 392 304
f 299 388 304
f 304 393 395
f 396 304 395
f 305 304 396
f 302 305 390
f 305 397 390
f 305 396 397
f 390 397 391
f 394 398 393
f 393 398 395
f 399 306 307
f 308 400 307
f 307 400 399
f 309 400 308
f 401 310 311
f 402 401 311
f 402 311 306
f 403 402 306
f 399 403 306
f 405 404 403
f 399 405 403
f 400 405 399
f 312 405 309
f 309 405 400
f 407 406 401
f 406 310 401
f 406 314 310
f 407 401 402
f 404 405 315
f 316 404 315
f 408 404 316
f 315 405 312
f 410 409 318
f 318 409 317
f 318 314 406
f 318 406 410
f 316 319 411
f 412 316 411
f 408 316 412
f 321 411 319
f 414 413 324
f 324 413 323
f 324 317 409
f 324 409 414
f 415 412 411
f 411 321 415
f 321 416 415
f 321 325 416
f 413 328 323
f 417 328 413
f 330 416 325
f 330 418 416
f 417 332 328
f 419 332 417
f 335 418 330
f 335 420 418
f 423 422 421
f 419 423 421
f 337 419 421
f 332 419 337
f 339 420 335
f 339 424 420
f 421 422 425
f 425 422 426
f 425 341 337
f 425 337 421
f 429 428 427
f 428 424 427
f 424 343 427
f 424 339 343
f 425 426 430
f 430 426 431
f 430 345 341
f 430 341 425
f 429 427 432
f 429 432 433
f 346 432 343
f 343 432 427
f 430 431 434
f 434 431 435
f 434 347 345
f 434 345 430
f 436 433 432
f 432 346 436
f 346 437 436
f 346 349 437
f 440 439 438
f 440 438 435
f 438 434 435
f 438 441 434
f 441 350 347
f 441 347 434
f 351 437 349
f 351 442 437
f 438 439 443
f 443 439 444
f 443 353 354
f 441 443 354
f 438 443 441
f 441 354 350
f 355 442 351
f 355 445 442
f 443 444 358
f 444 357 358
f 444 446 357
f 443 358 353
f 360 445 355
f 360 447 445
f 446 362 357
f 448 362 446
f 364 447 360
f 364 449 447
f 452 451 450
f 448 452 450
f 366 448 450
f 362 448 366
f 368 449 364
f 368 453 449
f 451 454 450
f 370 366 450
f 455 370 450
f 454 455 450
f 370 455 456
f 457 456 455
f 368 373 458
f 459 368 458
f 453 368 459
f 374 458 373
f 456 375 370
f 376 375 456
f 460 376 456
f 457 460 456
f 461 376 460
f 461 378 376
f 459 458 381
f 382 459 381
f 462 459 382
f 381 458 374
f 461 460 463
f 463 460 464
f 463 384 378
f 463 378 461
f 466 465 386
f 466 386 387
f 382 386 462
f 462 386 465
f 463 464 467
f 467 464 468
f 467 389 384
f 467 384 463
f 471 470 469
f 470 466 469
f 466 391 469
f 466 387 391
f 467 468 472
f 472 468 473
f 474 392 389
f 467 474 389
f 472 474 467
f 474 394 392
f 476 475 396
f 476 396 395
f 469 397 471
f 397 475 471
f 397 396 475
f 397 469 391
f 473 477 472
f 472 477 474
f 474 477 478
f 474 478 394
f 478 398 394
f 478 479 398
f 395 398 476
f 476 398 479
f 480 402 403
f 404 480 403
f 482 481 407
f 407 481 406
f 407 402 480
f 483 407 480
f 482 407 483
f 480 404 483
f 404 484 483
f 404 408 484
f 487 486 485
f 409 410 485
f 410 487 485
f 410 488 487
f 410 406 481
f 410 481 488
f 412 484 408
f 412 489 484
f 492 491 490
f 492 490 486
f 486 490 485
f 490 413 485
f 413 414 485
f 485 414 409
f 412 415 493
f 494 412 493
f 489 412 494
f 416 493 415
f 490 491 495
f 495 491 496
f 495 417 413
f 495 413 490
f 494 493 497
f 494 497 498
f 418 497 416
f 416 497 493
f 495 496 499
f 499 496 500
f 499 419 417
f 499 417 495
f 503 502 501
f 501 502 498
f 497 501 498
f 504 501 497
f 420 504 418
f 418 504 497
f 499 500 423
f 500 422 423
f 500 505 422
f 499 423 419
f 503 501 506
f 503 506 507
f 508 501 504
f 506 501 508
f 424 508 420
f 420 508 504
f 505 426 422
f 509 426 505
f 510 507 506
f 429 511 428
f 511 506 428
f 506 508 428
f 511 510 506
f 428 508 424
f 509 431 426
f 512 431 509
f 433 511 429
f 433 513 511
f 512 435 431
f 514 435 512
f 515 513 433
f 515 433 436
f 436 437 515
f 515 437 516
f 518 517 440
f 440 517 439
f 440 435 514
f 440 514 518
f 442 516 437
f 442 519 516
f 517 444 439
f 520 444 517
f 523 522 521
f 522 519 521
f 519 445 521
f 519 442 445
f 520 446 444
f 524 446 520
f 525 523 521
f 521 445 525
f 445 526 525
f 445 447 526
f 524 448 446
f 527 448 524
f 449 526 447
f 449 528 526
f 530 529 452
f 452 529 451
f 452 448 527
f 452 527 530
f 453 528 449
f 453 531 528
f 529 532 451
f 451 532 454
f 532 534 533
f 455 532 533
f 454 532 455
f 533 457 455
f 459 531 453
f 459 535 531
f 534 536 533
f 457 533 536
f 537 457 536
f 460 457 537
f 540 539 538
f 539 535 538
f 535 462 538
f 535 459 462
f 537 464 460
f 541 464 537
f 540 538 465
f 466 540 465
f 542 540 466
f 465 538 462
f 541 468 464
f 543 468 541
f 545 544 470
f 545 470 471
f 466 470 542
f 542 470 544
f 543 473 468
f 546 473 543
f 549 548 547
f 475 476 547
f 548 475 547
f 550 475 548
f 471 475 545
f 545 475 550
f 477 473 551
f 473 552 551
f 473 546 552
f 553 478 477
f 553 477 551
f 554 549 547
f 478 554 547
f 479 478 547
f 554 478 553
f 479 547 476
f 552 555 551
f 551 555 553
f 553 555 556
f 553 556 554
f 557 481 482
f 483 558 482
f 482 558 557
f 484 558 483
f 560 559 487
f 487 559 486
f 561 487 488
f 561 560 487
f 488 481 557
f 562 488 557
f 561 488 562
f 562 557 558
f 562 558 563
f 558 484 563
f 484 564 563
f 484 489 564
f 566 565 492
f 492 565 491
f 492 486 559
f 492 559 566
f 494 564 489
f 494 567 564
f 565 496 491
f 568 496 565
f 498 567 494
f 498 569 567
f 572 571 570
f 568 572 570
f 500 568 570
f 496 568 500
f 574 573 502
f 574 502 503
f 498 502 569
f 569 502 573
f 571 575 570
f 500 570 575
f 576 500 575
f 505 500 576
f 507 574 503
f 507 577 574
f 576 509 505
f 578 509 576
f 507 510 579
f 580 507 579
f 577 507 580
f 511 579 510
f 578 512 509
f 581 512 578
f 582 580 579
f 579 511 582
f 511 583 582
f 511 513 583
f 581 514 512
f 584 514 581
f 585 583 513
f 585 513 515
f 515 516 585
f 585 516 586
f 588 587 518
f 518 587 517
f 518 514 584
f 518 584 588
f 519 586 516
f 519 589 586
f 587 520 517
f 590 520 587
f 592 591 522
f 592 522 523
f 519 522 589
f 589 522 591
f 590 524 520
f 593 524 590
f 523 525 594
f 595 523 594
f 592 523 595
f 526 594 525
f 593 527 524
f 596 527 593
f 595 594 597
f 595 597 598
f 528 597 526
f 526 597 594
f 599 529 530
f 600 599 530
f 527 600 530
f 596 600 527
f 601 598 597
f 597 528 601
f 528 602 601
f 528 531 602
f 599 532 529
f 604 603 534
f 604 534 532
f 600 604 532
f 599 600 532
f 605 603 604
f 608 607 606
f 607 602 606
f 602 535 606
f 602 531 535
f 603 536 534
f 537 536 603
f 605 537 603
f 609 537 605
f 608 606 539
f 540 608 539
f 610 608 540
f 539 606 535
f 609 541 537
f 611 541 609
f 542 610 540
f 542 612 610
f 611 543 541
f 613 543 611
f 615 614 544
f 615 544 545
f 542 544 612
f 612 544 614
f 618 617 616
f 613 618 616
f 546 613 616
f 543 613 546
f 549 619 548
f 548 619 620
f 621 548 620
f 550 548 621
f 545 550 615
f 615 550 621
f 616 617 622
f 622 617 623
f 622 552 546
f 622 546 616
f 626 625 624
f 625 627 619
f 554 625 619
f 549 554 619
f 624 625 554
f 619 627 620
f 623 628 622
f 622 628 552
f 628 555 552
f 628 629 555
f 624 556 626
f 556 629 626
f 556 555 629
f 556 624 554
f 630 559 560
f 630 560 631
f 560 632 631
f 560 561 632
f 633 561 562
f 633 632 561
f 635 633 634
f 633 563 634
f 633 562 563
f 564 634 563
f 637 636 566
f 566 636 565
f 566 559 630
f 638 566 630
f 637 566 638
f 638 630 631
f 639 635 634
f 634 564 639
f 564 640 639
f 564 567 640
f 643 642 641
f 636 643 641
f 568 636 641
f 565 636 568
f 646 645 644
f 645 640 644
f 640 569 644
f 640 567 569
f 641 642 572
f 642 571 572
f 642 647 571
f 641 572 568
f 646 644 573
f 574 646 573
f 648 646 574
f 573 644 569
f 575 571 649
f 571 650 649
f 571 647 650
f 649 576 575
f 577 648 574
f 577 651 648
f 649 650 652
f 652 650 653
f 652 578 576
f 652 576 649
f 580 651 577
f 580 654 651
f 652 653 655
f 655 653 656
f 655 581 578
f 655 578 652
f 580 582 657
f 658 580 657
f 654 580 658
f 583 657 582
f 655 656 659
f 659 656 660
f 659 584 581
f 659 581 655
f 661 658 657
f 663 661 662
f 662 661 585
f 661 657 585
f 657 583 585
f 586 662 585
f 666 665 664
f 666 664 660
f 660 664 659
f 664 587 659
f 587 588 659
f 659 588 584
f 667 663 662
f 662 586 667
f 586 668 667
f 586 589 668
f 664 665 669
f 669 665 670
f 669 590 587
f 669 587 664
f 592 671 591
f 668 589 672
f 589 671 672
f 671 673 672
f 589 591 671
f 673 674 672
f 669 670 675
f 675 670 676
f 675 593 590
f 675 590 669
f 678 677 671
f 592 678 671
f 595 678 592
f 671 677 673
f 673 677 679
f 673 679 674
f 675 676 680
f 680 676 681
f 680 596 593
f 680 593 675
f 598 678 595
f 598 682 678
f 680 681 683
f 683 681 684
f 683 600 596
f 683 596 680
f 598 601 685
f 686 598 685
f 682 598 686
f 602 685 601
f 684 687 683
f 683 687 600
f 687 604 600
f 687 688 604
f 605 604 688
f 605 688 689
f 686 685 607
f 608 686 607
f 690 686 608
f 607 685 602
f 689 609 605
f 691 609 689
f 610 690 608
f 610 692 690
f 691 611 609
f 693 611 691
f 696 695 694
f 695 692 694
f 692 612 694
f 692 610 612
f 693 613 611
f 697 613 693
f 696 694 614
f 615 696 614
f 698 696 615
f 614 694 612
f 700 699 618
f 618 699 617
f 618 613 697
f 618 697 700
f 702 701 621
f 702 621 620
f 615 621 698
f 698 621 701
f 699 623 617
f 703 623 699
f 705 704 625
f 705 625 626
f 625 706 627
f 704 706 625
f 620 627 702
f 702 627 706
f 628 623 707
f 623 708 707
f 623 703 708
f 628 707 709
f 710 628 709
f 629 628 710
f 626 629 705
f 705 629 710
f 708 711 707
f 707 711 709
f 712 631 632
f 712 632 713
f 632 714 713
f 632 633 714
f 633 635 714
f 714 635 715
f 716 636 637
f 638 717 637
f 637 717 716
f 718 717 638
f 718 638 631
f 719 718 631
f 712 719 631
f 719 712 713
f 635 639 720
f 721 635 720
f 715 635 721
f 640 720 639
f 722 642 643
f 723 722 643
f 723 643 636
f 724 723 636
f 716 724 636
f 724 716 717
f 724 717 725
f 725 717 718
f 721 720 645
f 646 721 645
f 726 721 646
f 645 720 640
f 728 727 722
f 727 642 722
f 727 647 642
f 728 722 723
f 731 730 729
f 730 726 729
f 726 648 729
f 726 646 648
f 727 650 647
f 732 650 727
f 733 731 729
f 729 648 733
f 648 734 733
f 648 651 734
f 732 653 650
f 735 653 732
f 654 734 651
f 654 736 734
f 739 738 737
f 735 739 737
f 656 735 737
f 653 735 656
f 658 736 654
f 658 740 736
f 738 741 737
f 656 737 741
f 742 656 741
f 660 656 742
f 743 740 658
f 743 658 661
f 745 744 663
f 744 661 663
f 744 743 661
f 745 746 744
f 747 665 666
f 660 742 748
f 747 660 748
f 749 747 748
f 666 660 747
f 750 749 748
f 667 745 663
f 752 751 668
f 668 751 667
f 751 746 667
f 746 745 667
f 752 753 751
f 754 670 747
f 747 670 665
f 749 756 755
f 754 749 755
f 747 749 754
f 756 749 750
f 672 752 668
f 672 674 752
f 674 753 752
f 674 757 753
f 759 758 754
f 758 670 754
f 758 676 670
f 759 754 755
f 678 760 677
f 677 760 761
f 762 677 761
f 679 677 762
f 674 679 757
f 757 679 762
f 758 681 676
f 763 681 758
f 765 764 760
f 678 765 760
f 682 765 678
f 760 764 761
f 763 684 681
f 766 684 763
f 686 765 682
f 686 767 765
f 766 768 684
f 684 768 687
f 687 769 688
f 768 769 687
f 689 688 769
f 689 769 770
f 690 767 686
f 690 771 767
f 770 691 689
f 772 691 770
f 692 771 690
f 692 773 771
f 772 693 691
f 774 693 772
f 696 775 695
f 775 776 695
f 776 692 695
f 776 773 692
f 779 778 777
f 774 779 777
f 697 774 777
f 693 774 697
f 781 780 775
f 696 781 775
f 698 781 696
f 775 780 776
f 784 783 782
f 784 782 778
f 778 782 777
f 782 699 777
f 699 700 777
f 777 700 697
f 787 786 785
f 701 702 785
f 786 701 785
f 788 701 786
f 698 701 781
f 781 701 788
f 782 783 789
f 789 783 790
f 789 703 699
f 789 699 782
f 792 791 704
f 792 704 705
f 785 706 787
f 706 791 787
f 706 704 791
f 706 785 702
f 789 790 793
f 793 790 794
f 793 708 703
f 793 703 789
f 796 795 710
f 796 710 709
f 705 710 792
f 792 710 795
f 794 797 793
f 793 797 708
f 797 711 708
f 797 798 711
f 709 711 796
f 796 711 798
f 799 713 714
f 715 799 714
f 800 718 719
f 801 800 719
f 801 719 713
f 802 801 713
f 799 802 713
f 799 715 802
f 715 803 802
f 715 721 803
f 804 723 724
f 725 805 724
f 724 805 804
f 718 800 725
f 800 805 725
f 800 806 805
f 800 801 807
f 808 800 807
f 806 800 808
f 807 803 808
f 803 726 808
f 803 721 726
f 809 727 728
f 810 809 728
f 810 728 723
f 811 810 723
f 804 811 723
f 813 812 811
f 804 813 811
f 805 813 804
f 814 805 806
f 813 805 814
f 731 814 730
f 814 808 730
f 814 806 808
f 730 808 726
f 815 732 809
f 809 732 727
f 809 810 816
f 817 809 816
f 815 809 817
f 817 816 812
f 813 817 812
f 818 817 813
f 819 813 814
f 818 813 819
f 733 820 731
f 820 814 731
f 820 819 814
f 734 820 733
f 821 735 815
f 815 735 732
f 817 823 822
f 821 817 822
f 815 817 821
f 823 817 818
f 823 818 824
f 824 818 819
f 824 819 825
f 827 826 825
f 819 827 825
f 820 827 819
f 736 827 734
f 734 827 820
f 828 738 739
f 829 828 739
f 829 739 735
f 830 829 735
f 821 830 735
f 830 821 822
f 831 826 827
f 736 740 827
f 740 832 827
f 832 831 827
f 832 740 833
f 833 834 832
f 828 741 738
f 742 741 828
f 829 742 828
f 835 742 829
f 743 833 740
f 836 834 833
f 743 836 833
f 744 836 743
f 838 837 746
f 837 744 746
f 837 836 744
f 838 839 837
f 835 840 742
f 742 840 748
f 842 841 750
f 748 842 750
f 840 842 748
f 843 841 842
f 751 838 746
f 845 844 753
f 753 844 751
f 844 839 751
f 839 838 751
f 845 846 844
f 847 755 756
f 848 847 756
f 848 756 750
f 849 848 750
f 841 849 750
f 849 841 843
f 851 850 845
f 753 851 845
f 757 851 753
f 845 850 846
f 852 758 759
f 755 847 759
f 847 852 759
f 847 853 852
f 847 848 854
f 847 854 853
f 856 855 762
f 856 762 761
f 757 762 851
f 851 762 855
f 858 857 852
f 857 758 852
f 857 763 758
f 858 852 853
f 858 853 859
f 859 853 854
f 765 860 764
f 860 861 764
f 861 761 764
f 861 856 761
f 857 766 763
f 862 766 857
f 767 863 860
f 767 860 765
f 861 860 864
f 864 860 863
f 862 865 766
f 766 865 768
f 768 866 769
f 865 866 768
f 770 769 866
f 770 866 867
f 869 868 863
f 767 869 863
f 771 869 767
f 863 868 864
f 867 772 770
f 870 772 867
f 773 869 771
f 773 871 869
f 870 774 772
f 872 774 870
f 875 874 873
f 874 871 873
f 871 776 873
f 871 773 776
f 876 778 779
f 877 876 779
f 774 877 779
f 872 877 774
f 880 879 878
f 878 879 875
f 878 875 873
f 781 878 873
f 780 781 873
f 780 873 776
f 881 783 784
f 882 881 784
f 882 784 778
f 883 882 778
f 876 883 778
f 883 876 877
f 885 884 786
f 885 786 787
f 878 788 880
f 788 884 880
f 788 786 884
f 788 878 781
f 887 886 881
f 886 783 881
f 886 790 783
f 887 881 882
f 889 888 791
f 889 791 792
f 787 791 885
f 885 791 888
f 886 794 790
f 890 794 886
f 892 891 795
f 892 795 796
f 792 795 889
f 889 795 891
f 890 893 794
f 794 893 797
f 797 894 798
f 893 894 797
f 796 798 892
f 892 798 894
f 895 801 802
f 803 895 802
f 895 807 801
f 807 895 803
f 896 810 811
f 812 896 811
f 896 816 810
f 816 896 812
f 897 822 823
f 824 898 823
f 823 898 897
f 825 899 824
f 824 899 898
f 826 899 825
f 900 829 830
f 901 900 830
f 901 830 822
f 902 901 822
f 897 902 822
f 902 897 898
f 902 898 903
f 903 898 899
f 903 899 904
f 904 899 826
f 831 904 826
f 905 904 831
f 906 831 832
f 906 905 831
f 832 834 906
f 906 834 907
f 908 835 900
f 900 835 829
f 900 901 909
f 910 900 909
f 908 900 910
f 911 910 909
f 914 913 912
f 915 912 836
f 912 907 836
f 907 834 836
f 907 912 913
f 837 916 836
f 836 916 915
f 839 916 837
f 908 840 835
f 840 908 842
f 842 908 910
f 843 842 910
f 911 843 910
f 917 843 911
f 918 914 912
f 920 919 918
f 912 920 918
f 915 920 912
f 916 922 921
f 920 916 921
f 915 916 920
f 922 916 839
f 844 922 839
f 923 922 844
f 844 846 923
f 923 846 924
f 925 848 849
f 926 925 849
f 843 926 849
f 917 926 843
f 927 919 920
f 927 920 921
f 851 928 850
f 928 929 850
f 929 846 850
f 929 924 846
f 931 930 925
f 930 848 925
f 930 854 848
f 931 925 926
f 856 932 855
f 928 851 855
f 932 928 855
f 933 928 932
f 929 928 934
f 934 928 933
f 935 857 858
f 935 858 936
f 858 937 936
f 858 859 937
f 859 854 930
f 859 930 937
f 861 938 932
f 861 932 856
f 940 933 939
f 933 938 939
f 933 932 938
f 933 940 934
f 942 941 935
f 941 857 935
f 941 862 857
f 942 935 936
f 944 943 938
f 861 944 938
f 864 944 861
f 938 943 939
f 941 945 862
f 862 945 865
f 945 947 946
f 866 945 946
f 865 945 866
f 946 867 866
f 869 948 868
f 948 949 868
f 949 864 868
f 949 944 864
f 947 950 946
f 867 946 950
f 951 867 950
f 870 867 951
f 954 953 952
f 953 955 948
f 871 953 948
f 869 871 948
f 952 953 871
f 948 955 949
f 951 872 870
f 956 872 951
f 954 952 874
f 875 954 874
f 957 954 875
f 874 952 871
f 956 877 872
f 958 877 956
f 960 959 879
f 960 879 880
f 875 879 957
f 957 879 959
f 961 882 883
f 877 958 962
f 961 877 962
f 963 961 962
f 883 877 961
f 964 963 962
f 966 965 884
f 966 884 885
f 880 884 960
f 960 884 965
f 967 886 887
f 882 961 887
f 961 967 887
f 961 968 967
f 969 961 963
f 968 961 969
f 970 888 889
f 963 970 889
f 969 963 889
f 970 963 964
f 885 888 966
f 966 888 970
f 971 890 967
f 967 890 886
f 972 967 968
f 971 967 972
f 892 972 891
f 972 969 891
f 972 968 969
f 891 969 889
f 971 893 890
f 893 971 894
f 894 971 972
f 894 972 892
f 973 901 902
f 903 974 902
f 902 974 973
f 904 975 903
f 903 975 974
f 905 976 904
f 904 976 975
f 906 977 905
f 905 977 976
f 907 977 906
f 973 909 901
f 973 974 978
f 911 973 978
f 979 911 978
f 973 911 909
f 978 974 975
f 978 975 980
f 980 975 976
f 980 976 981
f 914 982 913
f 982 976 913
f 976 977 913
f 982 981 976
f 913 977 907
f 984 917 983
f 917 979 983
f 917 911 979
f 986 985 984
f 986 984 983
f 988 987 985
f 988 985 986
f 989 987 918
f 987 982 918
f 982 914 918
f 982 987 988
f 919 989 918
f 990 921 922
f 923 991 922
f 922 991 990
f 924 991 923
f 992 926 984
f 984 926 917
f 993 984 985
f 992 984 993
f 994 985 987
f 993 985 994
f 995 987 989
f 994 987 995
f 927 996 919
f 996 989 919
f 996 995 989
f 997 996 927
f 997 927 921
f 998 997 921
f 990 998 921
f 998 990 991
f 998 991 999
f 991 924 999
f 924 1000 999
f 924 929 1000
f 1001 930 931
f 1002 1001 931
f 1002 931 926
f 1003 1002 926
f 992 1003 926
f 1003 992 993
f 1003 993 1004
f 1004 993 994
f 1004 994 1005
f 1005 994 995
f 1005 995 1006
f 1006 995 996
f 1006 996 1007
f 1007 996 997
f 934 1000 929
f 934 1008 1000
f 1009 936 937
f 1010 1009 937
f 1010 937 930
f 1011 1010 930
f 1001 1011 930
f 1011 1001 1002
f 1014 1013 1012
f 940 939 1012
f 1013 940 1012
f 1015 940 1013
f 934 940 1008
f 1008 940 1015
f 1016 941 942
f 1017 1016 942
f 1017 942 936
f 1018 1017 936
f 1009 1018 936
f 1018 1009 1010
f 1021 1020 1019
f 1023 1022 1019
f 1023 1019 1020
f 1022 1023 1014
f 1022 1014 1012
f 944 1022 1012
f 943 944 1012
f 943 1012 939
f 1016 945 941
f 947 945 1016
f 1017 947 1016
f 1024 947 1017
f 1025 1021 1019
f 1027 1026 1025
f 1019 1027 1025
f 1022 1027 1019
f 949 1027 944
f 944 1027 1022
f 1024 1028 947
f 947 1028 950
f 951 950 1028
f 951 1028 1029
f 1031 1030 953
f 1031 953 954
f 1027 955 1026
f 955 1030 1026
f 955 953 1030
f 955 1027 949
f 1029 956 951
f 1032 956 1029
f 1035 1034 1033
f 1034 1031 1033
f 1031 957 1033
f 1031 954 957
f 1032 958 956
f 1036 958 1032
f 1039 1038 1037
f 1037 1038 1035
f 1037 1035 1033
f 960 1037 1033
f 959 960 1033
f 959 1033 957
f 1036 1040 958
f 958 1040 962
f 1042 1041 964
f 962 1042 964
f 1040 1042 962
f 1041 1042 1039
f 1041 1039 1037
f 966 1041 1037
f 965 966 1037
f 965 1037 960
f 1041 970 964
f 970 1041 966
f 1043 979 978
f 980 1044 978
f 978 1044 1043
f 981 1045 980
f 980 1045 1044
f 982 1045 981
f 1043 983 979
f 983 1043 986
f 986 1043 1044
f 986 1044 988
f 988 1044 1045
f 988 1045 982
f 1046 997 998
f 999 1047 998
f 998 1047 1046
f 1000 1047 999
f 1048 1002 1003
f 1004 1049 1003
f 1003 1049 1048
f 1005 1050 1004
f 1004 1050 1049
f 1006 1051 1005
f 1005 1051 1050
f 1007 1052 1006
f 1006 1052 1051
f 997 1046 1007
f 1046 1052 1007
f 1046 1053 1052
f 1054 1046 1047
f 1053 1046 1054
f 1008 1054 1000
f 1000 1054 1047
f 1055 1010 1011
f 1002 1048 1011
f 1048 1055 1011
f 1048 1056 1055
f 1057 1048 1049
f 1056 1048 1057
f 1058 1049 1050
f 1057 1049 1058
f 1059 1050 1051
f 1058 1050 1059
f 1060 1051 1052
f 1059 1051 1060
f 1014 1060 1013
f 1060 1053 1013
f 1060 1052 1053
f 1013 1053 1015
f 1015 1053 1054
f 1015 1054 1008
f 1061 1017 1018
f 1010 1055 1018
f 1055 1061 1018
f 1055 1062 1061
f 1063 1055 1056
f 1062 1055 1063
f 1064 1056 1057
f 1063 1056 1064
f 1065 1057 1058
f 1064 1057 1065
f 1021 1065 1020
f 1065 1059 1020
f 1065 1058 1059
f 1020 1059 1023
f 1023 1059 1060
f 1023 1060 1014
f 1066 1024 1061
f 1061 1024 1017
f 1062 1068 1067
f 1066 1062 1067
f 1061 1062 1066
f 1068 1062 1063
f 1068 1063 1069
f 1069 1063 1064
f 1069 1064 1070
f 1070 1064 1065
f 1070 1065 1071
f 1073 1071 1072
f 1072 1071 1025
f 1071 1065 1025
f 1065 1021 1025
f 1026 1072 1025
f 1066 1028 1024
f 1075 1074 1029
f 1075 1029 1028
f 1067 1075 1028
f 1066 1067 1028
f 1076 1074 1075
f 1079 1078 1077
f 1081 1080 1077
f 1081 1077 1078
f 1080 1081 1073
f 1080 1073 1072
f 1031 1080 1072
f 1030 1031 1072
f 1030 1072 1026
f 1082 1032 1074
f 1074 1032 1029
f 1074 1076 1083
f 1074 1083 1082
f 1079 1077 1084
f 1079 1084 1085
f 1035 1084 1034
f 1084 1080 1034
f 1084 1077 1080
f 1034 1080 1031
f 1086 1036 1082
f 1082 1036 1032
f 1082 1083 1087
f 1088 1082 1087
f 1086 1082 1088
f 1088 1087 1085
f 1088 1085 1084
f 1039 1088 1084
f 1038 1039 1084
f 1038 1084 1035
f 1086 1040 1036
f 1040 1086 1042
f 1042 1086 1088
f 1042 1088 1039
f 1089 1067 1068
f 1069 1090 1068
f 1068 1090 1089
f 1070 1091 1069
f 1069 1091 1090
f 1071 1092 1070
f 1070 1092 1091
f 1073 1092 1071
f 1089 1075 1067
f 1075 1089 1076
f 1089 1093 1076
f 1089 1090 1093
f 1079 1093 1078
f 1093 1091 1078
f 1093 1090 1091
f 1078 1091 1081
f 1081 1091 1092
f 1081 1092 1073
f 1094 1083 1093
f 1093 1083 1076
f 1085 1094 1079
f 1079 1094 1093
f 1094 1087 1083
f 1087 1094 1085
