v -18.1 -70.0 -34.0
v -18.0 -70.0 -34.1
v -18.0 -70.1 -34.0
v -18.0 -70.0 -33.9
v -18.3 -69.0 -34.0
v -18.0 -69.0 -34.4
v -18.0 -69.4 -33.0
v -18.3 -69.0 -33.0
v -18.0 -69.0 -32.7
v -18.3 -68.0 -34.0
v -18.0 -68.0 -34.4
v -18.4 -68.0 -33.0
v -18.0 -68.0 -32.5
v -18.2 -67.0 -34.0
v -18.0 -67.0 -34.2
v -18.2 -67.0 -33.0
v -18.0 -67.0 -32.7
v -18.0 -66.8 -34.0
v -18.0 -66.7 -33.0
v -17.0 -70.0 -34.5
v -17.0 -70.8 -34.0
v -17.0 -70.5 -33.0
v -17.5 -70.0 -33.0
v -17.0 -70.0 -32.5
v -17.0 -69.0 -34.9
v -17.0 -69.4 -32.0
v -17.4 -69.0 -32.0
v -17.0 -69.0 -31.6
v -17.0 -68.0 -34.6
v -17.5 -68.0 -32.0
v -17.0 -68.0 -31.4
v -17.0 -67.0 -34.4
v -17.6 -67.0 -32.0
v -17.0 -67.4 -31.0
v -17.2 -67.0 -31.0
v -17.0 -67.0 -30.7
v -17.0 -66.6 -34.0
v -17.3 -66.0 -33.0
v -17.0 -66.0 -33.4
v -17.5 -66.0 -32.0
v -17.4 -66.0 -31.0
v -17.0 -66.0 -30.6
v -17.0 -65.7 -33.0
v -17.2 -65.0 -32.0
v -17.0 -65.0 -32.3
v -17.2 -65.0 -31.0
v -17.0 -65.0 -30.7
v -17.0 -64.7 -32.0
v -17.0 -64.7 -31.0
v -16.0 -70.0 -34.3
v -16.0 -70.4 -34.0
v -16.0 -70.9 -33.0
v -16.0 -70.2 -32.0
v -16.3 -70.0 -32.0
v -16.0 -70.0 -31.8
v -16.0 -69.0 -34.6
v -16.0 -69.3 -31.0
v -16.3 -69.0 -31.0
v -16.0 -69.0 -30.7
v -16.0 -68.0 -34.5
v -16.6 -68.0 -31.0
v -16.0 -68.0 -30.5
v -16.0 -67.0 -34.5
v -16.0 -67.0 -30.3
v -16.0 -66.5 -34.0
v -16.0 -66.0 -33.5
v -16.0 -66.5 -30.0
v -16.4 -66.0 -30.0
v -16.0 -66.0 -29.7
v -16.0 -65.5 -33.0
v -16.0 -65.0 -32.6
v -16.4 -65.0 -30.0
v -16.0 -65.0 -29.6
v -16.3 -64.0 -32.0
v -16.0 -64.0 -32.3
v -16.6 -64.0 -31.0
v -16.3 -64.0 -30.0
v -16.0 -64.0 -29.7
v -16.0 -63.6 -32.0
v -16.2 -63.0 -31.0
v -16.0 -63.0 -31.3
v -16.0 -63.0 -30.7
v -16.0 -63.5 -30.0
v -16.0 -62.8 -31.0
v -16.1 -61.0 -30.0
v -16.0 -61.0 -30.2
v -16.0 -61.2 -30.0
v -16.0 -61.0 -29.8
v -16.3 -60.0 -31.0
v -16.0 -60.0 -31.4
v -16.0 -60.5 -31.0
v -16.4 -60.0 -30.0
v -16.0 -60.0 -29.5
v -16.4 -59.0 -31.0
v -16.0 -59.0 -31.5
v -16.4 -59.0 -30.0
v -16.0 -59.0 -29.5
v -16.4 -58.0 -31.0
v -16.0 -58.0 -31.6
v -16.4 -58.0 -30.0
v -16.0 -58.0 -29.5
v -16.3 -57.0 -32.0
v -16.0 -57.0 -32.4
v -16.0 -57.5 -32.0
v -16.5 -57.0 -31.0
v -16.3 -57.0 -30.0
v -16.0 -57.0 -29.6
v -16.4 -56.0 -32.0
v -16.0 -56.0 -32.5
v -16.4 -56.0 -31.0
v -16.0 -56.0 -30.4
v -16.0 -56.5 -30.0
v -16.2 -55.0 -32.0
v -16.0 -55.0 -32.3
v -16.2 -55.0 -31.0
v -16.0 -55.0 -30.7
v -16.0 -54.7 -32.0
v -16.0 -54.7 -31.0
v -15.6 -70.0 -34.0
v -15.0 -70.0 -33.3
v -15.0 -70.2 -33.0
v -15.7 -70.0 -32.0
v -15.0 -70.0 -32.7
v -15.0 -69.0 -34.3
v -15.0 -69.4 -34.0
v -15.0 -69.7 -32.0
v -15.0 -69.4 -31.0
v -15.0 -69.0 -30.6
v -15.0 -68.0 -34.5
v -15.0 -68.3 -30.0
v -15.3 -68.0 -30.0
v -15.0 -68.0 -29.8
v -15.0 -67.0 -34.7
v -15.6 -67.0 -30.0
v -15.0 -67.0 -29.6
v -15.0 -66.6 -34.0
v -15.0 -66.0 -33.5
v -15.0 -66.0 -29.5
v -15.0 -65.5 -33.0
v -15.0 -65.0 -32.6
v -15.0 -65.0 -29.3
v -15.0 -64.0 -32.5
v -15.0 -64.5 -29.0
v -15.3 -64.0 -29.0
v -15.0 -64.0 -28.7
v -15.6 -63.0 -32.0
v -15.0 -63.0 -32.5
v -15.7 -63.0 -30.0
v -15.4 -63.0 -29.0
v -15.0 -63.0 -28.5
v -15.4 -62.0 -32.0
v -15.0 -62.0 -32.5
v -15.6 -62.0 -31.0
v -15.6 -62.0 -30.0
v -15.4 -62.0 -29.0
v -15.0 -62.0 -28.4
v -15.4 -61.0 -32.0
v -15.0 -61.0 -32.5
v -15.7 -61.0 -31.0
v -15.6 -61.0 -29.0
v -15.0 -61.4 -28.0
v -15.2 -61.0 -28.0
v -15.0 -61.0 -27.8
v -15.5 -60.0 -32.0
v -15.0 -60.0 -32.6
v -15.6 -60.0 -29.0
v -15.3 -60.0 -28.0
v -15.0 -60.0 -27.7
v -15.2 -59.0 -33.0
v -15.0 -59.0 -33.3
v -15.0 -59.4 -33.0
v -15.6 -59.0 -32.0
v -15.6 -59.0 -29.0
v -15.4 -59.0 -28.0
v -15.0 -59.0 -27.6
v -15.4 -58.0 -33.0
v -15.0 -58.0 -33.5
v -15.7 -58.0 -32.0
v -15.6 -58.0 -29.0
v -15.4 -58.0 -28.0
v -15.0 -58.0 -27.6
v -15.5 -57.0 -33.0
v -15.0 -57.0 -33.5
v -15.6 -57.0 -29.0
v -15.4 -57.0 -28.0
v -15.0 -57.0 -27.5
v -15.5 -56.0 -33.0
v -15.0 -56.0 -33.4
v -15.7 -56.0 -30.0
v -15.5 -56.0 -29.0
v -15.4 -56.0 -28.0
v -15.0 -56.0 -27.5
v -15.3 -55.0 -33.0
v -15.0 -55.0 -33.3
v -15.6 -55.0 -30.0
v -15.5 -55.0 -29.0
v -15.4 -55.0 -28.0
v -15.0 -55.0 -27.6
v -15.0 -54.6 -33.0
v -15.4 -54.0 -32.0
v -15.0 -54.0 -32.4
v -15.5 -54.0 -31.0
v -15.5 -54.0 -30.0
v -15.5 -54.0 -29.0
v -15.2 -54.0 -28.0
v -15.0 -54.0 -27.7
v -15.0 -53.6 -32.0
v -15.0 -53.4 -31.0
v -15.3 -53.0 -30.0
v -15.0 -53.0 -30.4
v -15.2 -53.0 -29.0
v -15.0 -53.0 -28.6
v -15.0 -53.6 -28.0
v -15.0 -52.7 -30.0
v -15.0 -52.7 -29.0
v -14.8 -70.0 -33.0
v -14.7 -69.0 -34.0
v -14.0 -69.0 -33.3
v -14.0 -69.3 -33.0
v -14.0 -69.5 -32.0
v -14.0 -69.3 -31.0
v -14.0 -69.0 -30.7
v -14.5 -68.0 -34.0
v -14.0 -68.0 -33.5
v -14.0 -68.3 -30.0
v -14.0 -68.0 -29.7
v -14.6 -67.0 -34.0
v -14.0 -67.0 -33.5
v -14.0 -67.0 -29.5
v -14.0 -66.0 -33.2
v -14.0 -66.0 -29.4
v -14.0 -65.7 -33.0
v -14.0 -65.0 -32.5
v -14.0 -65.4 -29.0
v -14.5 -65.0 -29.0
v -14.0 -65.0 -28.7
v -14.0 -64.0 -32.6
v -14.0 -64.0 -28.4
v -14.2 -63.0 -33.0
v -14.0 -63.0 -33.1
v -14.0 -63.2 -33.0
v -14.0 -63.4 -28.0
v -14.3 -63.0 -28.0
v -14.0 -63.0 -27.7
v -14.5 -62.0 -33.0
v -14.0 -62.0 -33.4
v -14.6 -62.0 -28.0
v -14.0 -62.0 -27.5
v -14.5 -61.0 -33.0
v -14.0 -61.0 -33.5
v -14.0 -61.0 -27.4
v -14.6 -60.0 -33.0
v -14.0 -60.0 -33.5
v -14.0 -60.0 -27.4
v -14.0 -59.0 -33.8
v -14.0 -59.0 -27.3
v -14.2 -58.0 -35.0
v -14.0 -58.0 -35.2
v -14.0 -58.3 -35.0
v -14.0 -58.7 -34.0
v -14.5 -58.0 -34.0
v -14.0 -58.5 -27.0
v -14.4 -58.0 -27.0
v -14.0 -58.0 -26.6
v -14.2 -57.0 -35.0
v -14.0 -57.0 -35.2
v -14.5 -57.0 -34.0
v -14.5 -57.0 -27.0
v -14.0 -57.0 -26.6
v -14.0 -56.7 -35.0
v -14.0 -56.3 -34.0
v -14.0 -56.0 -33.8
v -14.5 -56.0 -27.0
v -14.0 -56.0 -26.6
v -14.0 -55.0 -33.6
v -14.4 -55.0 -27.0
v -14.0 -55.0 -26.7
v -14.4 -54.0 -33.0
v -14.0 -54.0 -33.4
v -14.0 -54.5 -27.0
v -14.0 -54.0 -27.3
v -14.0 -53.6 -33.0
v -14.3 -53.0 -32.0
v -14.0 -53.0 -32.3
v -14.6 -53.0 -31.0
v -14.4 -53.0 -28.0
v -14.0 -53.0 -27.7
v -14.0 -52.7 -32.0
v -14.0 -52.3 -31.0
v -14.2 -52.0 -30.0
v -14.0 -52.0 -30.4
v -14.0 -52.0 -29.6
v -14.0 -52.3 -29.0
v -14.0 -52.7 -28.0
v -14.0 -51.8 -30.0
v -13.7 -69.0 -33.0
v -13.0 -69.0 -32.1
v -13.0 -69.1 -32.0
v -13.6 -69.0 -31.0
v -13.0 -69.0 -31.9
v -13.5 -68.0 -33.0
v -13.0 -68.0 -32.4
v -13.0 -68.4 -31.0
v -13.6 -68.0 -30.0
v -13.0 -68.0 -30.6
v -13.5 -67.0 -33.0
v -13.0 -67.0 -32.4
v -13.0 -67.4 -30.0
v -13.0 -67.0 -29.8
v -13.8 -66.0 -33.0
v -13.0 -66.5 -32.0
v -13.3 -66.0 -32.0
v -13.0 -66.0 -31.6
v -13.0 -66.0 -29.6
v -13.4 -65.0 -32.0
v -13.0 -65.0 -31.6
v -13.0 -65.3 -29.0
v -13.0 -65.0 -28.8
v -13.0 -64.0 -32.3
v -13.0 -64.5 -32.0
v -13.0 -64.0 -28.5
v -13.7 -63.0 -33.0
v -13.0 -63.0 -32.7
v -13.0 -63.5 -28.0
v -13.0 -63.0 -27.6
v -13.1 -62.0 -34.0
v -13.0 -62.0 -34.1
v -13.0 -62.1 -34.0
v -13.0 -62.7 -33.0
v -13.0 -62.2 -27.0
v -13.2 -62.0 -27.0
v -13.0 -62.0 -26.9
v -13.5 -61.0 -34.0
v -13.0 -61.0 -34.4
v -13.5 -61.0 -27.0
v -13.0 -61.0 -26.6
v -13.2 -60.0 -35.0
v -13.0 -60.0 -35.2
v -13.0 -60.3 -35.0
v -13.6 -60.0 -34.0
v -13.5 -60.0 -27.0
v -13.0 -60.0 -26.6
v -13.5 -59.0 -35.0
v -13.0 -59.0 -35.5
v -13.8 -59.0 -34.0
v -13.6 -59.0 -27.0
v -13.0 -59.0 -26.5
v -13.0 -58.0 -35.6
v -13.0 -58.2 -26.0
v -13.1 -58.0 -26.0
v -13.0 -58.0 -25.9
v -13.0 -57.0 -35.6
v -13.0 -57.8 -26.0
v -13.0 -57.0 -26.3
v -13.3 -56.0 -35.0
v -13.0 -56.0 -35.3
v -13.8 -56.0 -34.0
v -13.0 -56.0 -26.4
v -13.0 -55.5 -35.0
v -13.5 -55.0 -34.0
v -13.0 -55.0 -34.6
v -13.0 -55.0 -26.5
v -13.3 -54.0 -34.0
v -13.0 -54.0 -34.3
v -13.5 -54.0 -27.0
v -13.0 -54.0 -26.7
v -13.0 -53.6 -34.0
v -13.0 -53.2 -33.0
v -13.0 -53.0 -32.8
v -13.0 -53.5 -27.0
v -13.0 -53.0 -27.4
v -13.4 -52.0 -32.0
v -13.0 -52.0 -32.4
v -13.7 -52.0 -31.0
v -13.6 -52.0 -29.0
v -13.0 -52.0 -28.5
v -13.0 -52.4 -28.0
v -13.0 -51.4 -32.0
v -13.3 -51.0 -31.0
v -13.0 -51.0 -31.6
v -13.3 -51.0 -30.0
v -13.0 -51.0 -29.6
v -13.0 -51.5 -29.0
v -13.0 -50.6 -31.0
v -13.0 -50.7 -30.0
v -12.9 -69.0 -32.0
v -12.6 -68.0 -32.0
v -12.7 -68.0 -31.0
v -12.7 -67.0 -32.0
v -12.5 -67.0 -31.0
v -12.8 -67.0 -30.0
v -12.6 -66.0 -31.0
v -12.6 -66.0 -30.0
v -12.6 -65.0 -31.0
v -12.5 -65.0 -30.0
v -12.8 -65.0 -29.0
v -12.7 -64.0 -32.0
v -12.4 -64.0 -31.0
v -12.4 -64.0 -30.0
v -12.5 -64.0 -29.0
v -12.0 -63.0 -32.3
v -12.0 -63.3 -32.0
v -12.0 -63.5 -31.0
v -12.0 -63.5 -30.0
v -12.0 -63.5 -29.0
v -12.0 -63.2 -28.0
v -12.0 -63.0 -27.8
v -12.9 -62.0 -34.0
v -12.0 -62.0 -33.5
v -12.0 -62.4 -33.0
v -12.7 -62.0 -27.0
v -12.0 -62.0 -27.3
v -12.0 -61.0 -34.4
v -12.0 -61.5 -34.0
v -12.0 -61.6 -27.0
v -12.0 -61.0 -26.6
v -12.0 -60.0 -35.4
v -12.0 -60.4 -35.0
v -12.0 -60.0 -26.5
v -12.4 -59.0 -36.0
v -12.0 -59.0 -36.7
v -12.0 -59.4 -36.0
v -12.0 -59.0 -26.4
v -12.5 -58.0 -36.0
v -12.0 -58.0 -36.4
v -12.0 -58.5 -26.0
v -12.0 -58.0 -25.6
v -12.3 -57.0 -36.0
v -12.0 -57.0 -36.2
v -12.6 -57.0 -26.0
v -12.0 -57.0 -25.6
v -12.0 -56.6 -36.0
v -12.0 -56.0 -35.6
v -12.4 -56.0 -26.0
v -12.0 -56.0 -25.7
v -12.5 -55.0 -35.0
v -12.0 -55.0 -35.4
v -12.0 -55.5 -26.0
v -12.0 -55.0 -26.3
v -12.3 -54.0 -35.0
v -12.0 -54.0 -35.3
v -12.0 -54.0 -26.4
v -12.0 -53.6 -35.0
v -12.5 -53.0 -34.0
v -12.0 -53.0 -34.6
v -12.8 -53.0 -33.0
v -12.5 -53.0 -27.0
v -12.0 -53.0 -26.7
v -12.4 -52.0 -34.0
v -12.0 -52.0 -34.4
v -12.6 -52.0 -33.0
v -12.5 -52.0 -28.0
v -12.0 -52.0 -27.5
v -12.0 -52.6 -27.0
v -12.2 -51.0 -34.0
v -12.0 -51.0 -34.2
v -12.4 -51.0 -33.0
v -12.8 -51.0 -32.0
v -12.4 -51.0 -29.0
v -12.0 -51.0 -28.6
v -12.0 -51.5 -28.0
v -12.0 -50.8 -34.0
v -12.0 -50.5 -33.0
v -12.6 -50.0 -32.0
v -12.0 -50.0 -32.3
v -12.2 -50.0 -31.0
v -12.0 -50.0 -30.8
v -12.0 -50.4 -30.0
v -12.0 -50.7 -29.0
v -12.0 -49.8 -32.0
v -12.0 -49.9 -31.0
v -11.7 -63.0 -32.0
v -11.5 -63.0 -31.0
v -11.6 -63.0 -30.0
v -11.5 -63.0 -29.0
v -11.7 -63.0 -28.0
v -11.5 -62.0 -33.0
v -11.0 -62.0 -32.4
v -11.0 -62.3 -32.0
v -11.0 -62.4 -31.0
v -11.0 -62.0 -30.3
v -11.2 -62.0 -30.0
v -11.0 -62.0 -29.7
v -11.0 -62.4 -29.0
v -11.0 -62.3 -28.0
v -11.0 -62.0 -27.7
v -11.4 -61.0 -34.0
v -11.0 -61.0 -33.7
v -11.0 -61.5 -33.0
v -11.0 -61.8 -30.0
v -11.0 -61.3 -27.0
v -11.0 -61.0 -26.8
v -11.4 -60.0 -35.0
v -11.0 -60.0 -34.8
v -11.0 -60.7 -34.0
v -11.0 -60.0 -26.7
v -11.0 -59.0 -36.2
v -11.0 -59.2 -36.0
v -11.0 -59.7 -35.0
v -11.0 -59.0 -26.6
v -11.0 -58.0 -36.4
v -11.0 -58.3 -26.0
v -11.0 -58.0 -25.8
v -11.0 -57.0 -36.2
v -11.0 -57.0 -25.6
v -11.0 -56.7 -36.0
v -11.0 -56.0 -35.4
v -11.0 -56.0 -25.6
v -11.0 -55.2 -35.0
v -11.1 -55.0 -35.0
v -11.0 -55.0 -34.9
v -11.6 -55.0 -26.0
v -11.0 -55.0 -25.6
v -11.0 -54.0 -35.3
v -11.0 -54.8 -35.0
v -11.3 -54.0 -26.0
v -11.0 -54.0 -25.8
v -11.4 -53.0 -35.0
v -11.0 -53.0 -35.2
v -11.0 -53.6 -26.0
v -11.0 -53.0 -26.3
v -11.1 -52.0 -35.0
v -11.0 -52.0 -35.1
v -11.4 -52.0 -27.0
v -11.0 -52.0 -26.7
v -11.0 -51.9 -35.0
v -11.0 -51.0 -34.3
v -11.4 -51.0 -28.0
v -11.0 -51.0 -27.6
v -11.0 -51.6 -27.0
v -11.0 -50.7 -34.0
v -11.0 -50.1 -33.0
v -11.6 -50.0 -32.0
v -11.0 -50.3 -32.0
v -11.8 -50.0 -31.0
v -11.0 -50.4 -31.0
v -11.0 -50.6 -30.0
v -11.0 -50.6 -29.0
v -11.0 -50.7 -28.0
v -10.7 -62.0 -32.0
v -10.7 -62.0 -31.0
v -10.7 -62.0 -29.0
v -10.8 -62.0 -28.0
v -10.2 -61.0 -34.0
v -10.0 -61.0 -34.1
v -10.0 -61.1 -34.0
v -10.5 -61.0 -33.0
v -10.0 -61.0 -33.9
v -10.4 -61.0 -32.0
v -10.5 -61.0 -31.0
v -10.6 -61.0 -30.0
v -10.5 -61.0 -29.0
v -10.5 -61.0 -28.0
v -10.8 -61.0 -27.0
v -10.1 -60.0 -35.0
v -10.0 -60.0 -35.0
v -10.0 -60.0 -35.0
v -10.0 -60.5 -33.0
v -10.0 -60.3 -32.0
v -10.0 -60.0 -31.7
v -10.4 -60.0 -31.0
v -10.5 -60.0 -30.0
v -10.5 -60.0 -29.0
v -10.5 -60.0 -28.0
v -10.7 -60.0 -27.0
v -10.8 -59.0 -36.0
v -10.0 -60.0 -35.0
v -10.5 -59.0 -35.0
v -10.0 -59.6 -34.0
v -10.4 -59.0 -34.0
v -10.3 -59.0 -33.0
v -10.0 -59.5 -33.0
v -10.0 -59.0 -32.3
v -10.4 -59.0 -31.0
v -10.0 -59.0 -31.8
v -10.5 -59.0 -30.0
v -10.5 -59.0 -29.0
v -10.5 -59.0 -28.0
v -10.6 -59.0 -27.0
v -10.7 -58.0 -36.0
v -10.5 -58.0 -35.0
v -10.5 -58.0 -34.0
v -10.5 -58.0 -33.0
v -10.0 -58.8 -32.0
v -10.4 -58.0 -32.0
v -10.5 -58.0 -31.0
v -10.5 -58.0 -30.0
v -10.5 -58.0 -29.0
v -10.5 -58.0 -28.0
v -10.5 -58.0 -27.0
v -10.8 -58.0 -26.0
v -10.8 -57.0 -36.0
v -10.5 -57.0 -35.0
v -10.5 -57.0 -34.0
v -10.5 -57.0 -33.0
v -10.5 -57.0 -32.0
v -10.5 -57.0 -31.0
v -10.5 -57.0 -30.0
v -10.5 -57.0 -29.0
v -10.5 -57.0 -28.0
v -10.5 -57.0 -27.0
v -10.6 -57.0 -26.0
v -10.7 -56.0 -35.0
v -10.5 -56.0 -34.0
v -10.5 -56.0 -33.0
v -10.5 -56.0 -32.0
v -10.5 -56.0 -31.0
v -10.5 -56.0 -30.0
v -10.5 -56.0 -29.0
v -10.5 -56.0 -28.0
v -10.4 -56.0 -27.0
v -10.0 -56.0 -26.0
v -10.0 -56.0 -26.0
v -10.0 -56.0 -26.0
v -10.6 -55.0 -34.0
v -10.5 -55.0 -33.0
v -10.5 -55.0 -32.0
v -10.5 -55.0 -31.0
v -10.5 -55.0 -30.0
v -10.5 -55.0 -29.0
v -10.5 -55.0 -28.0
v -10.4 -55.0 -27.0
v -10.0 -55.0 -26.3
v -10.0 -55.0 -25.8
v -10.8 -54.0 -35.0
v -10.5 -54.0 -34.0
v -10.5 -54.0 -33.0
v -10.5 -54.0 -32.0
v -10.5 -54.0 -31.0
v -10.5 -54.0 -30.0
v -10.5 -54.0 -29.0
v -10.4 -54.0 -28.0
v -10.1 -54.0 -27.0
v -10.0 -54.0 -26.9
v -10.0 -54.0 -25.6
v -10.8 -53.0 -35.0
v -10.4 -53.0 -34.0
v -10.4 -53.0 -33.0
v -10.4 -53.0 -32.0
v -10.5 -53.0 -31.0
v -10.5 -53.0 -30.0
v -10.4 -53.0 -29.0
v -10.0 -53.0 -28.4
v -10.0 -53.4 -28.0
v -10.0 -53.9 -27.0
v -10.4 -53.0 -26.0
v -10.0 -53.0 -25.8
v -10.9 -52.0 -35.0
v -10.0 -52.0 -34.1
v -10.0 -52.2 -34.0
v -10.0 -52.5 -33.0
v -10.0 -52.4 -32.0
v -10.0 -52.0 -31.5
v -10.3 -52.0 -31.0
v -10.5 -52.0 -30.0
v -10.4 -52.0 -29.0
v -10.0 -52.0 -28.5
v -10.0 -52.7 -26.0
v -10.0 -52.0 -26.6
v -10.6 -51.0 -34.0
v -10.0 -51.8 -34.0
v -10.0 -51.0 -33.4
v -10.0 -51.1 -31.0
v -10.0 -51.0 -30.9
v -10.6 -51.0 -30.0
v -10.6 -51.0 -29.0
v -10.0 -51.0 -28.2
v -10.0 -51.0 -27.0
v -10.0 -51.0 -27.0
v -10.0 -50.7 -33.0
v -10.0 -50.7 -32.0
v -10.0 -50.9 -31.0
v -10.0 -50.8 -28.0
v -10.0 -51.0 -27.0
v -9.0 -61.0 -34.0
v -9.0 -61.0 -34.0
v -9.0 -61.0 -34.0
v -9.9 -60.0 -35.0
v -9.0 -61.0 -34.0
v -9.5 -60.0 -34.0
v -9.7 -60.0 -33.0
v -9.8 -60.0 -32.0
v -9.9 -59.0 -32.0
v -10.0 -56.0 -26.0
v -9.7 -55.0 -26.0
v -9.3 -54.0 -27.0
v -9.0 -54.0 -27.0
v -9.0 -54.0 -27.0
v -9.0 -54.2 -26.0
v -9.0 -54.0 -25.8
v -9.7 -53.0 -28.0
v -9.0 -53.0 -27.2
v -9.0 -53.0 -25.8
v -9.9 -52.0 -34.0
v -9.6 -52.0 -33.0
v -9.7 -52.0 -32.0
v -9.6 -52.0 -28.0
v -9.0 -52.7 -27.0
v -9.6 -52.0 -27.0
v -9.0 -52.8 -26.0
v -9.7 -51.0 -33.0
v -9.7 -51.0 -32.0
v -9.9 -51.0 -31.0
v -9.8 -51.0 -28.0
v -10.0 -51.0 -27.0
v -9.0 -61.0 -34.0
v -9.0 -54.0 -27.0
v -8.8 -54.0 -26.0
v -8.8 -53.0 -27.0
v -8.8 -53.0 -26.0
f 3 2 1
f 1 4 3
f 1 2 5
f 5 2 6
f 4 1 7
f 1 8 7
f 1 5 8
f 8 9 7
f 5 6 10
f 10 6 11
f 5 12 8
f 5 10 12
f 9 8 13
f 13 8 12
f 10 11 14
f 14 11 15
f 10 16 12
f 10 14 16
f 13 12 17
f 17 12 16
f 15 18 14
f 14 18 16
f 16 18 19
f 16 19 17
f 21 20 3
f 3 20 2
f 23 22 4
f 22 3 4
f 22 21 3
f 23 24 22
f 20 6 2
f 25 6 20
f 7 23 4
f 27 26 9
f 9 26 7
f 26 24 7
f 24 23 7
f 27 28 26
f 25 11 6
f 29 11 25
f 13 30 27
f 13 27 9
f 28 27 31
f 31 27 30
f 29 15 11
f 32 15 29
f 17 33 30
f 17 30 13
f 31 30 34
f 30 35 34
f 30 33 35
f 35 36 34
f 32 37 15
f 15 37 18
f 37 39 38
f 19 37 38
f 18 37 19
f 33 17 19
f 38 33 19
f 40 33 38
f 33 41 35
f 33 40 41
f 36 35 42
f 42 35 41
f 39 43 38
f 45 44 43
f 44 38 43
f 44 40 38
f 40 46 41
f 40 44 46
f 42 41 47
f 47 41 46
f 45 48 44
f 44 48 46
f 46 48 49
f 46 49 47
f 51 50 21
f 21 50 20
f 52 21 22
f 52 51 21
f 54 53 24
f 53 22 24
f 53 52 22
f 54 55 53
f 50 25 20
f 56 25 50
f 26 54 24
f 58 57 28
f 28 57 26
f 57 55 26
f 55 54 26
f 58 59 57
f 56 29 25
f 60 29 56
f 31 61 58
f 31 58 28
f 59 58 62
f 62 58 61
f 60 32 29
f 63 32 60
f 34 61 31
f 34 36 61
f 36 62 61
f 36 64 62
f 63 65 32
f 32 65 37
f 39 37 65
f 39 65 66
f 42 68 67
f 64 42 67
f 36 42 64
f 68 69 67
f 66 70 39
f 39 70 43
f 45 43 70
f 45 70 71
f 47 72 68
f 47 68 42
f 69 68 73
f 73 68 72
f 48 45 74
f 45 75 74
f 45 71 75
f 76 49 48
f 76 48 74
f 72 47 49
f 76 72 49
f 77 72 76
f 73 72 78
f 78 72 77
f 75 79 74
f 81 80 79
f 80 74 79
f 80 76 74
f 83 77 82
f 77 80 82
f 77 76 80
f 77 83 78
f 81 84 80
f 80 84 82
f 87 86 85
f 85 88 87
f 91 90 89
f 91 89 86
f 89 85 86
f 89 92 85
f 88 85 93
f 93 85 92
f 89 90 94
f 94 90 95
f 89 96 92
f 89 94 96
f 93 92 97
f 97 92 96
f 94 95 98
f 98 95 99
f 94 100 96
f 94 98 100
f 97 96 101
f 101 96 100
f 104 103 102
f 104 102 99
f 102 98 99
f 102 105 98
f 98 106 100
f 98 105 106
f 101 100 107
f 107 100 106
f 102 103 108
f 108 103 109
f 102 110 105
f 102 108 110
f 112 106 111
f 106 110 111
f 106 105 110
f 106 112 107
f 108 109 113
f 113 109 114
f 108 115 110
f 108 113 115
f 111 110 116
f 116 110 115
f 114 117 113
f 113 117 115
f 115 117 118
f 115 118 116
f 119 50 51
f 119 51 120
f 51 121 120
f 51 52 121
f 123 121 122
f 121 53 122
f 121 52 53
f 55 122 53
f 125 124 119
f 124 50 119
f 124 56 50
f 125 119 120
f 126 123 122
f 126 122 55
f 57 126 55
f 127 126 57
f 57 59 127
f 127 59 128
f 124 60 56
f 129 60 124
f 62 131 130
f 128 62 130
f 59 62 128
f 131 132 130
f 129 63 60
f 133 63 129
f 64 134 131
f 64 131 62
f 132 131 135
f 135 131 134
f 133 136 63
f 63 136 65
f 66 65 136
f 66 136 137
f 67 134 64
f 67 69 134
f 69 135 134
f 69 138 135
f 137 139 66
f 66 139 70
f 71 70 139
f 71 139 140
f 73 138 69
f 73 141 138
f 140 75 71
f 142 75 140
f 78 144 143
f 141 78 143
f 73 78 141
f 144 145 143
f 79 75 146
f 75 147 146
f 75 142 147
f 146 81 79
f 82 148 83
f 144 78 83
f 148 144 83
f 149 144 148
f 145 144 150
f 150 144 149
f 146 147 151
f 151 147 152
f 153 84 81
f 146 153 81
f 151 153 146
f 148 82 84
f 153 148 84
f 154 148 153
f 148 155 149
f 148 154 155
f 150 149 156
f 156 149 155
f 151 152 157
f 157 152 158
f 151 159 153
f 151 157 159
f 159 86 87
f 154 159 87
f 153 159 154
f 154 87 88
f 160 154 88
f 155 154 160
f 156 155 161
f 155 162 161
f 155 160 162
f 162 163 161
f 157 158 164
f 164 158 165
f 164 90 91
f 159 164 91
f 157 164 159
f 159 91 86
f 93 166 160
f 93 160 88
f 160 167 162
f 160 166 167
f 163 162 168
f 168 162 167
f 171 170 169
f 171 169 165
f 169 164 165
f 169 172 164
f 172 95 90
f 172 90 164
f 97 173 166
f 97 166 93
f 166 174 167
f 166 173 174
f 168 167 175
f 175 167 174
f 169 170 176
f 176 170 177
f 169 178 172
f 169 176 178
f 178 99 95
f 178 95 172
f 101 179 173
f 101 173 97
f 173 180 174
f 173 179 180
f 175 174 181
f 181 174 180
f 176 177 182
f 182 177 183
f 182 103 104
f 178 182 104
f 176 182 178
f 178 104 99
f 107 184 179
f 107 179 101
f 179 185 180
f 179 184 185
f 181 180 186
f 186 180 185
f 182 183 187
f 187 183 188
f 187 109 103
f 187 103 182
f 111 189 112
f 184 107 112
f 189 184 112
f 190 184 189
f 184 191 185
f 184 190 191
f 186 185 192
f 192 185 191
f 187 188 193
f 193 188 194
f 193 114 109
f 193 109 187
f 116 195 189
f 116 189 111
f 189 196 190
f 189 195 196
f 190 197 191
f 190 196 197
f 192 191 198
f 198 191 197
f 194 199 193
f 199 201 200
f 199 200 117
f 193 199 117
f 114 193 117
f 202 118 117
f 202 117 200
f 195 116 118
f 202 195 118
f 203 195 202
f 195 204 196
f 195 203 204
f 196 205 197
f 196 204 205
f 198 197 206
f 206 197 205
f 201 207 200
f 200 207 202
f 202 207 208
f 210 209 208
f 209 202 208
f 209 203 202
f 203 211 204
f 203 209 211
f 213 205 212
f 205 211 212
f 205 204 211
f 205 213 206
f 210 214 209
f 209 214 211
f 211 214 215
f 211 215 212
f 216 120 121
f 123 216 121
f 217 124 125
f 218 217 125
f 218 125 120
f 219 218 120
f 216 219 120
f 219 216 123
f 126 219 123
f 220 219 126
f 221 126 127
f 221 220 126
f 127 128 221
f 221 128 222
f 223 129 217
f 217 129 124
f 217 218 224
f 217 224 223
f 225 222 128
f 225 128 130
f 130 132 225
f 225 132 226
f 227 133 223
f 223 133 129
f 223 224 228
f 223 228 227
f 135 226 132
f 135 229 226
f 227 136 133
f 137 136 227
f 228 137 227
f 230 137 228
f 138 229 135
f 138 231 229
f 230 232 137
f 137 232 139
f 140 139 232
f 140 232 233
f 141 235 234
f 231 141 234
f 138 141 231
f 235 236 234
f 233 142 140
f 237 142 233
f 143 235 141
f 143 145 235
f 145 236 235
f 145 238 236
f 241 240 239
f 237 241 239
f 147 237 239
f 142 237 147
f 150 243 242
f 238 150 242
f 145 150 238
f 243 244 242
f 239 240 245
f 245 240 246
f 245 152 147
f 245 147 239
f 156 247 243
f 156 243 150
f 244 243 248
f 248 243 247
f 245 246 249
f 249 246 250
f 249 158 152
f 249 152 245
f 161 247 156
f 161 163 247
f 163 248 247
f 163 251 248
f 249 250 252
f 252 250 253
f 252 165 158
f 252 158 249
f 168 251 163
f 168 254 251
f 252 253 171
f 253 170 171
f 253 255 170
f 252 171 165
f 175 254 168
f 175 256 254
f 259 258 257
f 261 260 257
f 257 260 259
f 255 260 261
f 177 255 261
f 170 255 177
f 181 263 262
f 256 181 262
f 175 181 256
f 263 264 262
f 257 258 265
f 265 258 266
f 257 267 261
f 257 265 267
f 267 183 177
f 267 177 261
f 186 268 263
f 186 263 181
f 264 263 269
f 269 263 268
f 266 270 265
f 265 270 267
f 267 270 271
f 183 267 271
f 272 183 271
f 188 183 272
f 192 273 268
f 192 268 186
f 269 268 274
f 274 268 273
f 272 194 188
f 275 194 272
f 198 276 273
f 198 273 192
f 274 273 277
f 277 273 276
f 199 194 278
f 194 279 278
f 194 275 279
f 278 201 199
f 281 280 276
f 198 281 276
f 206 281 198
f 276 280 277
f 279 282 278
f 282 284 283
f 282 283 207
f 278 282 207
f 201 278 207
f 285 208 207
f 285 207 283
f 285 210 208
f 212 286 213
f 286 287 213
f 287 206 213
f 287 281 206
f 284 288 283
f 283 288 285
f 285 288 289
f 289 291 290
f 289 290 214
f 285 289 214
f 210 285 214
f 214 290 292
f 293 214 292
f 215 214 293
f 212 215 286
f 215 294 286
f 215 293 294
f 286 294 287
f 291 295 290
f 290 295 292
f 296 218 219
f 296 219 297
f 219 298 297
f 219 220 298
f 300 298 299
f 298 221 299
f 298 220 221
f 222 299 221
f 301 224 296
f 296 224 218
f 296 297 302
f 296 302 301
f 303 300 299
f 305 303 304
f 304 303 225
f 303 299 225
f 299 222 225
f 226 304 225
f 306 228 301
f 301 228 224
f 301 302 307
f 301 307 306
f 308 305 304
f 304 226 308
f 226 309 308
f 226 229 309
f 310 230 306
f 306 230 228
f 306 307 311
f 312 306 311
f 310 306 312
f 313 312 311
f 231 309 229
f 231 314 309
f 310 232 230
f 232 310 233
f 310 315 233
f 310 312 315
f 312 313 316
f 312 316 315
f 317 314 231
f 317 231 234
f 234 236 317
f 317 236 318
f 320 319 315
f 319 233 315
f 319 237 233
f 320 315 316
f 238 318 236
f 238 321 318
f 322 240 241
f 323 322 241
f 237 323 241
f 319 323 237
f 324 321 238
f 324 238 242
f 242 244 324
f 324 244 325
f 328 327 326
f 329 328 322
f 328 246 322
f 246 240 322
f 328 326 246
f 329 322 323
f 248 331 330
f 325 248 330
f 244 248 325
f 331 332 330
f 326 327 333
f 333 327 334
f 333 250 246
f 333 246 326
f 251 335 331
f 251 331 248
f 332 331 336
f 336 331 335
f 339 338 337
f 339 337 334
f 337 333 334
f 337 340 333
f 340 253 250
f 340 250 333
f 254 341 335
f 254 335 251
f 336 335 342
f 342 335 341
f 337 338 343
f 343 338 344
f 337 345 340
f 337 343 345
f 345 255 253
f 345 253 340
f 256 346 341
f 256 341 254
f 342 341 347
f 347 341 346
f 343 344 259
f 344 258 259
f 344 348 258
f 343 259 260
f 343 260 345
f 345 260 255
f 262 346 256
f 350 349 264
f 264 349 262
f 349 347 262
f 347 346 262
f 350 351 349
f 348 266 258
f 352 266 348
f 354 353 350
f 264 354 350
f 269 354 264
f 350 353 351
f 270 266 355
f 266 356 355
f 266 352 356
f 357 271 270
f 357 270 355
f 357 272 271
f 274 354 269
f 274 358 354
f 356 359 355
f 361 360 359
f 360 355 359
f 360 357 355
f 360 275 272
f 360 272 357
f 277 358 274
f 277 362 358
f 360 361 363
f 363 361 364
f 363 279 275
f 363 275 360
f 281 365 280
f 365 366 280
f 366 277 280
f 366 362 277
f 364 367 363
f 363 367 279
f 367 282 279
f 367 368 282
f 284 282 368
f 284 368 369
f 371 370 365
f 281 371 365
f 287 371 281
f 365 370 366
f 288 284 372
f 284 373 372
f 284 369 373
f 374 289 288
f 374 288 372
f 374 291 289
f 292 375 293
f 293 375 376
f 377 293 376
f 294 293 377
f 287 294 371
f 371 294 377
f 373 378 372
f 380 379 378
f 379 372 378
f 379 374 372
f 381 295 291
f 374 381 291
f 379 381 374
f 381 382 295
f 295 382 292
f 382 383 292
f 383 375 292
f 375 383 376
f 380 384 379
f 379 384 381
f 381 384 385
f 381 385 382
f 386 297 298
f 300 386 298
f 387 302 386
f 386 302 297
f 303 388 300
f 388 386 300
f 388 387 386
f 305 388 303
f 389 307 387
f 387 307 302
f 390 387 388
f 389 387 390
f 308 391 305
f 391 388 305
f 391 390 388
f 309 391 308
f 389 311 307
f 311 389 313
f 389 392 313
f 389 390 392
f 393 390 391
f 392 390 393
f 314 393 309
f 309 393 391
f 394 316 392
f 392 316 313
f 395 392 393
f 394 392 395
f 317 396 314
f 396 393 314
f 396 395 393
f 318 396 317
f 397 319 320
f 316 394 320
f 394 397 320
f 394 398 397
f 399 394 395
f 398 394 399
f 400 395 396
f 399 395 400
f 321 400 318
f 318 400 396
f 402 401 397
f 401 319 397
f 401 323 319
f 402 397 398
f 402 398 403
f 403 398 399
f 403 399 404
f 404 399 400
f 404 400 405
f 405 400 321
f 324 405 321
f 406 405 324
f 324 325 406
f 406 325 407
f 408 327 328
f 408 328 409
f 328 410 409
f 328 329 410
f 329 323 401
f 329 401 410
f 325 330 411
f 412 325 411
f 407 325 412
f 332 411 330
f 414 413 408
f 413 327 408
f 413 334 327
f 414 408 409
f 415 412 411
f 411 332 415
f 332 416 415
f 332 336 416
f 418 417 339
f 339 417 338
f 339 334 413
f 339 413 418
f 342 416 336
f 342 419 416
f 422 421 420
f 417 422 420
f 344 417 420
f 338 417 344
f 347 419 342
f 347 423 419
f 420 421 424
f 424 421 425
f 424 348 344
f 424 344 420
f 426 423 347
f 426 347 349
f 349 351 426
f 426 351 427
f 424 425 428
f 428 425 429
f 428 352 348
f 428 348 424
f 354 430 353
f 430 431 353
f 431 351 353
f 431 427 351
f 429 432 428
f 352 428 432
f 433 352 432
f 356 352 433
f 358 434 430
f 358 430 354
f 431 430 435
f 435 430 434
f 359 356 436
f 356 437 436
f 356 433 437
f 436 361 359
f 439 438 434
f 358 439 434
f 362 439 358
f 434 438 435
f 436 437 440
f 440 437 441
f 440 364 361
f 440 361 436
f 366 439 362
f 366 442 439
f 441 443 440
f 443 445 444
f 443 444 367
f 440 443 367
f 364 440 367
f 446 368 367
f 446 367 444
f 446 369 368
f 371 447 370
f 447 448 370
f 448 366 370
f 448 442 366
f 444 445 449
f 449 445 450
f 444 451 446
f 444 449 451
f 451 373 369
f 451 369 446
f 376 452 377
f 452 453 377
f 377 453 371
f 453 454 371
f 454 447 371
f 447 454 448
f 449 450 455
f 455 450 456
f 449 457 451
f 449 455 457
f 458 378 373
f 451 458 373
f 457 458 451
f 458 380 378
f 382 459 383
f 459 460 383
f 383 460 376
f 460 461 376
f 461 452 376
f 452 461 453
f 456 462 455
f 455 462 457
f 457 462 463
f 465 464 463
f 464 457 463
f 464 458 457
f 466 384 380
f 458 466 380
f 464 466 458
f 384 466 467
f 468 384 467
f 385 384 468
f 382 385 459
f 385 469 459
f 385 468 469
f 459 469 460
f 465 470 464
f 464 470 466
f 466 470 471
f 466 471 467
f 472 401 402
f 403 473 402
f 402 473 472
f 404 474 403
f 403 474 473
f 405 475 404
f 404 475 474
f 406 476 405
f 405 476 475
f 407 476 406
f 477 409 410
f 478 477 410
f 478 410 401
f 479 478 401
f 472 479 401
f 479 472 473
f 479 473 480
f 482 481 480
f 473 482 480
f 474 482 473
f 475 484 483
f 482 475 483
f 474 475 482
f 484 475 476
f 484 476 485
f 476 407 485
f 407 486 485
f 407 412 486
f 487 413 414
f 488 487 414
f 488 414 409
f 489 488 409
f 477 489 409
f 489 477 478
f 490 481 482
f 490 482 483
f 491 486 412
f 491 412 415
f 415 416 491
f 491 416 492
f 493 417 418
f 494 493 418
f 494 418 413
f 495 494 413
f 487 495 413
f 495 487 488
f 419 492 416
f 419 496 492
f 498 497 422
f 422 497 421
f 422 417 493
f 499 422 493
f 498 422 499
f 499 493 494
f 423 496 419
f 423 500 496
f 497 425 421
f 501 425 497
f 502 500 423
f 502 423 426
f 426 427 502
f 502 427 503
f 501 429 425
f 504 429 501
f 431 503 427
f 431 505 503
f 504 506 429
f 429 506 432
f 433 432 506
f 433 506 507
f 435 505 431
f 435 508 505
f 510 437 509
f 437 507 509
f 437 433 507
f 511 510 509
f 439 512 438
f 512 513 438
f 513 435 438
f 513 508 435
f 515 514 510
f 514 437 510
f 514 441 437
f 515 510 511
f 442 516 512
f 442 512 439
f 513 512 517
f 517 512 516
f 443 441 518
f 441 519 518
f 441 514 519
f 518 445 443
f 521 520 516
f 442 521 516
f 448 521 442
f 516 520 517
f 518 519 522
f 522 519 523
f 522 450 445
f 522 445 518
f 453 524 454
f 524 525 454
f 525 448 454
f 525 521 448
f 523 526 522
f 450 522 526
f 527 450 526
f 456 450 527
f 460 528 461
f 528 529 461
f 461 529 453
f 529 530 453
f 530 524 453
f 524 530 525
f 527 531 456
f 456 531 462
f 462 532 463
f 531 532 462
f 534 533 465
f 463 534 465
f 532 534 463
f 536 535 533
f 536 533 534
f 468 467 535
f 536 468 535
f 537 468 536
f 468 538 469
f 537 538 468
f 460 469 528
f 469 539 528
f 469 538 539
f 528 539 529
f 533 470 465
f 470 533 471
f 471 533 535
f 471 535 467
f 540 478 479
f 480 541 479
f 479 541 540
f 481 541 480
f 542 483 484
f 485 543 484
f 484 543 542
f 486 543 485
f 546 545 544
f 488 489 547
f 546 544 548
f 478 540 489
f 540 547 489
f 540 549 547
f 550 540 541
f 549 540 550
f 490 551 481
f 551 541 481
f 551 550 541
f 483 542 490
f 542 551 490
f 542 552 551
f 553 542 543
f 552 542 553
f 491 554 486
f 554 543 486
f 554 553 543
f 492 554 491
f 557 556 555
f 557 555 545
f 545 555 544
f 555 494 544
f 494 495 544
f 495 548 544
f 495 558 548
f 495 488 547
f 558 495 547
f 558 547 549
f 558 549 559
f 561 560 559
f 549 561 559
f 550 561 549
f 562 550 551
f 561 550 562
f 563 551 552
f 562 551 563
f 564 552 553
f 563 552 564
f 565 553 554
f 564 553 565
f 496 565 492
f 492 565 554
f 566 497 498
f 556 567 555
f 498 499 566
f 568 566 499
f 569 555 567
f 555 569 494
f 570 494 569
f 494 570 499
f 568 499 570
f 572 571 570
f 572 570 569
f 573 571 572
f 560 561 574
f 560 574 575
f 576 561 562
f 574 561 576
f 577 562 563
f 576 562 577
f 578 563 564
f 577 563 578
f 579 564 565
f 578 564 579
f 500 579 496
f 496 579 565
f 580 501 566
f 566 501 497
f 581 566 568
f 580 566 581
f 582 568 570
f 581 568 582
f 583 570 571
f 582 570 583
f 571 573 584
f 585 571 584
f 583 571 585
f 585 584 575
f 574 585 575
f 586 585 574
f 587 574 576
f 586 574 587
f 588 576 577
f 587 576 588
f 589 577 578
f 588 577 589
f 590 578 579
f 589 578 590
f 502 591 500
f 591 579 500
f 591 590 579
f 503 591 502
f 592 504 580
f 580 504 501
f 593 580 581
f 592 580 593
f 594 581 582
f 593 581 594
f 595 582 583
f 594 582 595
f 596 583 585
f 595 583 596
f 597 585 586
f 596 585 597
f 598 586 587
f 597 586 598
f 599 587 588
f 598 587 599
f 600 588 589
f 599 588 600
f 601 589 590
f 600 589 601
f 602 590 591
f 601 590 602
f 505 602 503
f 503 602 591
f 592 506 504
f 506 592 507
f 592 603 507
f 592 593 603
f 604 593 594
f 603 593 604
f 605 594 595
f 604 594 605
f 606 595 596
f 605 595 606
f 607 596 597
f 606 596 607
f 608 597 598
f 607 597 608
f 609 598 599
f 608 598 609
f 610 599 600
f 609 599 610
f 611 600 601
f 610 600 611
f 602 613 612
f 611 602 612
f 601 602 611
f 602 505 613
f 505 614 613
f 505 508 614
f 603 509 507
f 509 603 511
f 603 615 511
f 603 604 615
f 616 604 605
f 615 604 616
f 617 605 606
f 616 605 617
f 618 606 607
f 617 606 618
f 619 607 608
f 618 607 619
f 620 608 609
f 619 608 620
f 621 609 610
f 620 609 621
f 622 610 611
f 621 610 622
f 611 612 623
f 611 623 622
f 513 614 508
f 513 624 614
f 625 514 515
f 511 615 515
f 615 625 515
f 615 626 625
f 627 615 616
f 626 615 627
f 628 616 617
f 627 616 628
f 629 617 618
f 628 617 629
f 630 618 619
f 629 618 630
f 631 619 620
f 630 619 631
f 632 620 621
f 631 620 632
f 633 621 622
f 632 621 633
f 622 623 634
f 622 634 633
f 517 624 513
f 517 635 624
f 636 519 625
f 625 519 514
f 637 625 626
f 636 625 637
f 638 626 627
f 637 626 638
f 639 627 628
f 638 627 639
f 640 628 629
f 639 628 640
f 641 629 630
f 640 629 641
f 642 630 631
f 641 630 642
f 632 644 643
f 642 632 643
f 631 632 642
f 644 632 633
f 644 633 645
f 520 521 646
f 633 634 645
f 646 647 520
f 647 517 520
f 647 635 517
f 648 523 636
f 636 523 519
f 637 650 649
f 648 637 649
f 636 637 648
f 650 637 638
f 650 638 651
f 651 638 639
f 651 639 652
f 654 653 652
f 639 654 652
f 640 654 639
f 655 640 641
f 654 640 655
f 656 641 642
f 655 641 656
f 642 643 657
f 642 657 656
f 659 658 646
f 521 659 646
f 525 659 521
f 646 658 647
f 648 526 523
f 661 660 527
f 661 527 526
f 649 661 526
f 648 649 526
f 662 660 661
f 663 653 654
f 665 664 663
f 654 665 663
f 655 665 654
f 666 655 656
f 665 655 666
f 656 657 667
f 656 667 666
f 529 668 530
f 668 669 530
f 669 525 530
f 669 659 525
f 660 531 527
f 662 670 660
f 670 531 660
f 670 532 531
f 532 671 534
f 670 671 532
f 534 672 536
f 671 672 534
f 665 537 664
f 537 672 664
f 537 536 672
f 537 665 538
f 538 665 666
f 667 673 666
f 673 538 666
f 673 539 538
f 529 539 668
f 539 674 668
f 539 673 674
f 668 674 669
f 676 675 546
f 546 675 545
f 546 548 676
f 676 548 677
f 678 556 557
f 545 675 679
f 678 545 679
f 680 678 679
f 557 545 678
f 681 680 558
f 680 677 558
f 677 548 558
f 677 680 679
f 559 682 558
f 558 682 681
f 560 682 559
f 678 567 556
f 567 678 569
f 569 678 680
f 569 680 572
f 572 680 681
f 572 681 573
f 681 683 573
f 681 682 683
f 575 683 560
f 560 683 682
f 683 584 573
f 584 683 575
f 684 612 613
f 614 684 613
f 685 623 684
f 684 623 612
f 624 685 614
f 614 685 684
f 688 687 686
f 689 688 685
f 688 634 685
f 634 623 685
f 688 686 634
f 685 624 689
f 624 690 689
f 624 635 690
f 691 643 644
f 687 692 686
f 692 644 686
f 644 645 686
f 644 692 691
f 686 645 634
f 647 690 635
f 647 693 690
f 694 649 650
f 651 695 650
f 650 695 694
f 652 696 651
f 651 696 695
f 653 696 652
f 697 657 691
f 691 657 643
f 691 692 698
f 699 691 698
f 697 691 699
f 658 659 699
f 698 658 699
f 700 658 698
f 647 658 693
f 693 658 700
f 694 661 649
f 661 694 662
f 694 701 662
f 694 695 701
f 702 695 696
f 701 695 702
f 663 703 653
f 703 696 653
f 703 702 696
f 664 703 663
f 704 667 697
f 697 667 657
f 705 697 699
f 704 697 705
f 669 705 659
f 659 705 699
f 701 670 662
f 670 701 671
f 671 701 702
f 671 702 672
f 672 702 703
f 672 703 664
f 704 673 667
f 673 704 674
f 674 704 705
f 674 705 669
f 706 675 676
f 677 706 676
f 706 679 675
f 679 706 677
f 707 687 688
f 689 708 688
f 688 708 707
f 690 708 689
f 709 692 707
f 707 692 687
f 710 707 708
f 709 707 710
f 693 710 690
f 690 710 708
f 709 698 692
f 698 709 700
f 700 709 710
f 700 710 693
