v 3.8 5.0 -6.0
v 4.0 5.0 -6.3
v 4.0 4.8 -6.0
v 4.0 5.0 -5.0
v 4.0 5.0 -5.0
v 4.0 5.0 -5.0
v 3.7 6.0 -7.0
v 4.0 6.0 -7.3
v 4.0 5.6 -7.0
v 3.5 6.0 -6.0
v 3.7 6.0 -5.0
v 4.0 6.0 -4.7
v 3.6 7.0 -7.0
v 4.0 7.0 -7.6
v 3.5 7.0 -6.0
v 3.6 7.0 -5.0
v 4.0 7.0 -4.5
v 3.7 8.0 -8.0
v 4.0 8.0 -8.3
v 4.0 7.6 -8.0
v 3.5 8.0 -7.0
v 3.5 8.0 -6.0
v 3.5 8.0 -5.0
v 4.0 7.5 -4.0
v 3.6 8.0 -4.0
v 4.0 7.9 -3.0
v 3.9 8.0 -3.0
v 4.0 8.0 -2.9
v 3.9 9.0 -9.0
v 4.0 9.0 -9.1
v 4.0 8.9 -9.0
v 3.7 9.0 -8.0
v 3.6 9.0 -7.0
v 3.6 9.0 -6.0
v 3.5 9.0 -5.0
v 3.6 9.0 -4.0
v 4.0 9.0 -3.0
v 4.0 9.0 -3.0
v 4.0 9.1 -9.0
v 4.0 9.5 -8.0
v 4.0 9.5 -7.0
v 4.0 9.6 -6.0
v 3.8 10.0 -5.0
v 4.0 10.0 -5.4
v 4.0 10.0 -4.0
v 4.0 10.0 -3.9
v 4.0 9.1 -3.0
v 4.0 10.2 -5.0
v 4.0 10.0 -4.0
v 4.6 5.0 -7.0
v 5.0 5.0 -7.4
v 5.0 4.7 -7.0
v 5.0 4.6 -6.0
v 4.0 5.0 -5.0
v 5.0 5.0 -5.4
v 4.7 6.0 -8.0
v 5.0 6.0 -8.3
v 5.0 5.6 -8.0
v 5.0 5.4 -5.0
v 5.0 6.0 -4.6
v 4.4 7.0 -8.0
v 5.0 7.0 -8.5
v 5.0 7.0 -4.3
v 4.9 8.0 -10.0
v 5.0 8.0 -10.1
v 5.0 7.9 -10.0
v 5.0 8.0 -9.5
v 5.0 8.0 -8.9
v 5.0 7.4 -4.0
v 5.0 8.0 -3.0
v 5.0 8.0 -3.0
v 4.6 9.0 -10.0
v 5.0 9.0 -10.4
v 5.0 8.1 -9.0
v 4.1 9.0 -3.0
v 5.0 8.0 -3.0
v 5.0 9.0 -3.5
v 4.7 10.0 -10.0
v 5.0 10.0 -10.4
v 4.4 10.0 -9.0
v 4.4 10.0 -8.0
v 4.4 10.0 -7.0
v 4.3 10.0 -6.0
v 4.1 10.0 -4.0
v 5.0 9.5 -4.0
v 5.0 10.0 -4.6
v 5.0 10.5 -10.0
v 4.6 11.0 -9.0
v 5.0 11.0 -9.6
v 4.5 11.0 -8.0
v 4.5 11.0 -7.0
v 4.6 11.0 -6.0
v 5.0 10.4 -5.0
v 5.0 11.0 -5.6
v 4.8 12.0 -9.0
v 5.0 12.0 -9.3
v 4.6 12.0 -8.0
v 4.8 12.0 -7.0
v 5.0 12.0 -6.1
v 5.0 11.9 -6.0
v 5.0 12.3 -9.0
v 5.0 12.4 -8.0
v 5.0 12.2 -7.0
v 5.9 5.0 -8.0
v 6.0 5.0 -8.1
v 6.0 4.9 -8.0
v 6.0 4.6 -7.0
v 6.0 4.6 -6.0
v 6.0 5.0 -5.6
v 6.0 6.0 -8.5
v 6.0 5.5 -5.0
v 6.0 6.0 -4.5
v 6.0 7.0 -10.0
v 6.0 7.0 -10.0
v 6.0 7.0 -10.0
v 6.0 7.0 -9.9
v 6.0 7.0 -8.7
v 6.0 7.0 -4.1
v 6.0 8.0 -10.6
v 6.0 7.3 -9.0
v 5.1 8.0 -9.0
v 5.6 8.0 -4.0
v 6.0 8.0 -4.4
v 5.0 8.0 -3.0
v 5.6 9.0 -11.0
v 6.0 9.0 -11.3
v 6.0 8.5 -11.0
v 5.4 9.0 -4.0
v 6.0 9.0 -4.6
v 5.5 10.0 -11.0
v 6.0 10.0 -11.4
v 5.5 10.0 -5.0
v 6.0 9.5 -5.0
v 6.0 10.0 -5.3
v 5.8 11.0 -11.0
v 6.0 11.0 -11.2
v 5.3 11.0 -10.0
v 6.0 11.0 -5.7
v 6.0 11.3 -11.0
v 5.5 12.0 -10.0
v 6.0 12.0 -10.5
v 5.5 12.0 -7.0
v 6.0 11.8 -7.0
v 6.0 12.0 -7.3
v 6.0 11.3 -6.0
v 5.8 13.0 -10.0
v 6.0 13.0 -10.2
v 5.6 13.0 -9.0
v 5.9 13.0 -8.0
v 6.0 13.0 -7.9
v 6.0 13.2 -10.0
v 6.0 13.3 -9.0
v 6.0 13.1 -8.0
v 6.1 5.0 -8.0
v 6.6 5.0 -7.0
v 7.0 5.0 -6.3
v 7.0 4.9 -6.0
v 7.0 5.0 -5.8
v 7.0 6.0 -8.4
v 7.0 5.5 -8.0
v 7.0 5.3 -7.0
v 7.0 5.6 -5.0
v 7.0 6.0 -4.6
v 7.0 7.0 -10.3
v 7.0 6.8 -10.0
v 7.0 7.0 -9.1
v 7.0 7.0 -9.0
v 7.0 7.0 -4.6
v 6.7 8.0 -11.0
v 7.0 8.0 -11.2
v 7.0 7.8 -11.0
v 7.0 7.0 -9.0
v 6.6 8.0 -5.0
v 7.0 7.5 -5.0
v 7.0 8.0 -5.4
v 7.0 9.0 -11.5
v 6.4 9.0 -5.0
v 7.0 9.0 -5.5
v 7.0 10.0 -11.9
v 7.0 10.0 -5.7
v 7.0 11.0 -11.3
v 6.4 11.0 -6.0
v 7.0 10.4 -6.0
v 7.0 11.0 -6.4
v 7.0 11.4 -11.0
v 7.0 12.0 -10.6
v 7.0 11.5 -7.0
v 7.0 12.0 -7.5
v 7.0 13.0 -10.3
v 6.1 13.0 -8.0
v 7.0 12.6 -8.0
v 7.0 13.0 -8.4
v 7.0 13.3 -10.0
v 7.0 13.4 -9.0
v 7.2 5.0 -6.0
v 8.0 6.0 -8.3
v 8.0 5.8 -8.0
v 8.0 5.6 -7.0
v 8.0 5.6 -6.0
v 8.0 6.0 -5.0
v 8.0 6.0 -5.0
v 8.0 7.0 -10.2
v 8.0 6.8 -10.0
v 8.0 6.5 -9.0
v 7.0 7.0 -9.0
v 7.5 7.0 -5.0
v 8.0 6.0 -5.0
v 8.0 7.0 -5.5
v 7.3 8.0 -11.0
v 8.0 8.0 -10.7
v 7.7 8.0 -6.0
v 8.0 7.6 -6.0
v 8.0 8.0 -6.3
v 8.0 9.0 -11.3
v 8.0 8.5 -11.0
v 7.5 9.0 -6.0
v 8.0 9.0 -6.5
v 8.0 10.0 -11.3
v 7.4 10.0 -6.0
v 8.0 10.0 -6.6
v 8.0 10.5 -11.0
v 7.5 11.0 -11.0
v 8.0 11.0 -10.6
v 8.0 11.0 -6.8
v 8.0 12.0 -10.4
v 8.0 11.3 -7.0
v 8.0 12.0 -7.7
v 8.0 13.0 -10.2
v 8.0 12.3 -8.0
v 8.0 13.0 -8.7
v 8.0 13.2 -10.0
v 8.0 13.2 -9.0
v 8.3 6.0 -8.0
v 8.4 6.0 -7.0
v 8.4 6.0 -6.0
v 8.0 6.0 -5.0
v 8.3 7.0 -10.0
v 9.0 7.0 -9.5
v 9.0 6.6 -9.0
v 9.0 6.5 -8.0
v 9.0 6.7 -7.0
v 9.0 7.0 -6.7
v 8.4 7.0 -6.0
v 9.0 8.0 -10.3
v 9.0 7.6 -10.0
v 9.0 8.0 -6.8
v 8.4 9.0 -11.0
v 9.0 9.0 -10.5
v 8.8 9.0 -8.0
v 9.0 8.7 -8.0
v 9.0 9.0 -8.2
v 8.5 9.0 -7.0
v 9.0 8.3 -7.0
v 8.4 10.0 -11.0
v 9.0 10.0 -10.3
v 8.6 10.0 -8.0
v 9.0 10.0 -8.5
v 8.4 10.0 -7.0
v 8.6 11.0 -10.0
v 9.0 10.5 -10.0
v 9.0 11.0 -9.4
v 8.6 11.0 -8.0
v 9.0 11.0 -8.6
v 8.2 11.0 -7.0
v 8.4 12.0 -10.0
v 9.0 12.0 -9.1
v 8.3 12.0 -8.0
v 9.0 12.0 -8.9
v 8.2 13.0 -10.0
v 9.0 12.1 -9.0
v 8.3 13.0 -9.0
v 9.9 7.0 -9.0
v 9.5 7.0 -8.0
v 9.2 7.0 -7.0
v 9.4 8.0 -10.0
v 10.0 8.0 -9.3
v 10.0 7.1 -9.0
v 10.0 8.0 -8.7
v 9.5 8.0 -8.0
v 9.2 8.0 -7.0
v 9.5 9.0 -10.0
v 10.0 9.0 -9.0
v 10.0 9.0 -9.0
v 9.3 10.0 -10.0
v 10.0 9.0 -9.0
v 9.4 10.0 -9.0
v 9.2 11.0 -9.0
v 9.1 12.0 -9.0
v 10.2 8.0 -9.0
v 10.0 9.0 -9.0
f 3 2 1
f 5 4 1
f 1 4 3
f 5 6 4
f 9 8 7
f 9 7 2
f 7 1 2
f 7 10 1
f 1 11 5
f 1 10 11
f 6 5 12
f 12 5 11
f 7 8 13
f 13 8 14
f 7 15 10
f 7 13 15
f 10 16 11
f 10 15 16
f 12 11 17
f 17 11 16
f 20 19 18
f 20 18 14
f 18 13 14
f 18 21 13
f 13 22 15
f 13 21 22
f 15 23 16
f 15 22 23
f 17 16 24
f 16 25 24
f 16 23 25
f 27 26 25
f 25 26 24
f 27 28 26
f 31 30 29
f 31 29 19
f 29 18 19
f 29 32 18
f 18 33 21
f 18 32 33
f 21 34 22
f 21 33 34
f 22 35 23
f 22 34 35
f 23 36 25
f 23 35 36
f 25 37 27
f 25 36 37
f 28 27 38
f 38 27 37
f 30 39 29
f 29 39 32
f 32 39 40
f 32 40 33
f 33 40 41
f 33 41 34
f 34 41 42
f 44 43 42
f 43 34 42
f 43 35 34
f 35 45 36
f 35 43 45
f 47 37 46
f 37 45 46
f 37 36 45
f 37 47 38
f 44 48 43
f 43 48 45
f 45 48 49
f 45 49 46
f 52 51 50
f 2 3 50
f 3 52 50
f 3 53 52
f 55 53 54
f 53 4 54
f 53 3 4
f 6 54 4
f 58 57 56
f 58 56 51
f 51 56 50
f 56 8 50
f 8 9 50
f 50 9 2
f 59 55 54
f 54 6 59
f 6 60 59
f 6 12 60
f 56 57 61
f 61 57 62
f 61 14 8
f 61 8 56
f 17 60 12
f 17 63 60
f 66 65 64
f 64 67 66
f 61 62 20
f 62 19 20
f 62 68 19
f 61 20 14
f 69 63 17
f 69 17 24
f 70 24 26
f 70 69 24
f 26 28 70
f 70 28 71
f 64 65 72
f 72 65 73
f 31 74 30
f 74 64 30
f 64 72 30
f 64 74 67
f 31 19 68
f 31 68 74
f 77 76 75
f 76 71 75
f 71 38 75
f 71 28 38
f 72 73 78
f 78 73 79
f 80 39 30
f 72 80 30
f 78 80 72
f 81 40 39
f 81 39 80
f 82 41 40
f 82 40 81
f 83 42 41
f 83 41 82
f 83 44 42
f 86 85 84
f 84 85 77
f 84 77 75
f 46 84 75
f 47 46 75
f 47 75 38
f 79 87 78
f 89 88 87
f 88 78 87
f 88 80 78
f 80 90 81
f 80 88 90
f 81 91 82
f 81 90 91
f 82 92 83
f 82 91 92
f 83 92 44
f 92 93 44
f 93 48 44
f 92 94 93
f 84 49 86
f 49 93 86
f 49 48 93
f 49 84 46
f 88 89 95
f 95 89 96
f 88 97 90
f 88 95 97
f 90 98 91
f 90 97 98
f 100 92 99
f 92 98 99
f 92 91 98
f 92 100 94
f 96 101 95
f 95 101 97
f 97 101 102
f 97 102 98
f 98 102 103
f 98 103 99
f 106 105 104
f 51 52 104
f 52 106 104
f 52 107 106
f 108 52 53
f 108 107 52
f 53 55 108
f 108 55 109
f 104 105 58
f 105 57 58
f 105 110 57
f 104 58 51
f 111 109 55
f 111 55 59
f 59 60 111
f 111 60 112
f 115 114 113
f 113 116 115
f 110 62 57
f 117 62 110
f 63 112 60
f 63 118 112
f 113 114 66
f 114 65 66
f 114 119 65
f 121 120 67
f 67 120 66
f 120 116 66
f 116 113 66
f 117 120 121
f 68 117 121
f 62 117 68
f 63 69 122
f 123 63 122
f 118 63 123
f 70 124 69
f 69 124 122
f 71 124 70
f 127 126 125
f 119 127 125
f 73 119 125
f 65 119 73
f 74 121 67
f 121 74 68
f 123 122 128
f 123 128 129
f 77 128 76
f 128 124 76
f 128 122 124
f 76 124 71
f 125 126 130
f 130 126 131
f 130 79 73
f 130 73 125
f 134 133 132
f 132 133 129
f 132 129 128
f 86 132 128
f 85 86 128
f 85 128 77
f 130 131 135
f 135 131 136
f 137 87 79
f 130 137 79
f 135 137 130
f 137 89 87
f 134 132 93
f 94 134 93
f 138 134 94
f 93 132 86
f 136 139 135
f 141 140 139
f 140 135 139
f 140 137 135
f 140 96 89
f 140 89 137
f 144 143 142
f 100 99 142
f 143 100 142
f 145 100 143
f 94 100 138
f 138 100 145
f 140 141 146
f 146 141 147
f 148 101 96
f 140 148 96
f 146 148 140
f 149 102 101
f 149 101 148
f 150 144 142
f 102 150 142
f 103 102 142
f 150 102 149
f 103 142 99
f 147 151 146
f 146 151 148
f 148 151 152
f 148 152 149
f 149 152 153
f 149 153 150
f 154 105 106
f 107 155 106
f 106 155 154
f 155 107 156
f 107 157 156
f 107 108 157
f 108 109 157
f 157 109 158
f 160 159 154
f 159 105 154
f 159 110 105
f 160 154 155
f 160 155 161
f 161 155 156
f 162 158 109
f 162 109 111
f 111 112 162
f 162 112 163
f 165 164 115
f 115 164 114
f 115 116 165
f 165 116 166
f 159 117 110
f 167 117 159
f 118 163 112
f 118 168 163
f 171 170 169
f 164 171 169
f 119 164 169
f 114 164 119
f 172 166 116
f 172 116 120
f 120 117 167
f 120 167 172
f 175 174 173
f 174 168 173
f 168 123 173
f 168 118 123
f 169 170 127
f 170 126 127
f 170 176 126
f 169 127 119
f 175 173 177
f 175 177 178
f 129 177 123
f 123 177 173
f 176 131 126
f 179 131 176
f 178 177 133
f 134 178 133
f 180 178 134
f 133 177 129
f 179 136 131
f 181 136 179
f 184 183 182
f 183 180 182
f 180 138 182
f 180 134 138
f 181 185 136
f 136 185 139
f 141 139 185
f 141 185 186
f 188 187 143
f 188 143 144
f 182 145 184
f 145 187 184
f 145 143 187
f 145 182 138
f 186 147 141
f 189 147 186
f 192 191 190
f 191 188 190
f 188 150 190
f 188 144 150
f 189 193 147
f 147 193 151
f 151 194 152
f 193 194 151
f 190 153 192
f 153 194 192
f 153 152 194
f 153 190 150
f 195 156 157
f 158 195 157
f 197 196 160
f 160 196 159
f 198 160 161
f 198 197 160
f 161 156 195
f 199 161 195
f 198 161 199
f 199 195 158
f 162 199 158
f 200 199 162
f 162 163 200
f 200 163 201
f 203 202 165
f 165 202 164
f 205 204 166
f 204 165 166
f 204 203 165
f 196 204 205
f 167 196 205
f 159 196 167
f 208 207 206
f 207 201 206
f 201 168 206
f 201 163 168
f 209 170 171
f 210 209 171
f 164 210 171
f 202 210 164
f 172 205 166
f 205 172 167
f 213 212 211
f 211 212 208
f 211 208 206
f 175 211 206
f 174 175 206
f 174 206 168
f 215 214 209
f 214 170 209
f 214 176 170
f 215 209 210
f 213 211 216
f 213 216 217
f 178 216 175
f 175 216 211
f 214 179 176
f 218 179 214
f 217 216 219
f 217 219 220
f 180 219 178
f 178 219 216
f 222 181 221
f 181 218 221
f 181 179 218
f 223 222 221
f 220 219 183
f 184 220 183
f 224 220 184
f 183 219 180
f 222 185 181
f 186 185 222
f 223 186 222
f 225 186 223
f 227 226 187
f 227 187 188
f 184 187 224
f 224 187 226
f 225 189 186
f 228 189 225
f 230 229 191
f 230 191 192
f 188 191 227
f 227 191 229
f 228 231 189
f 189 231 193
f 193 232 194
f 231 232 193
f 192 194 230
f 230 194 232
f 233 196 197
f 198 234 197
f 197 234 233
f 199 235 198
f 198 235 234
f 200 236 199
f 199 236 235
f 201 236 200
f 237 202 203
f 237 203 238
f 203 239 238
f 203 204 239
f 204 196 233
f 240 204 233
f 239 204 240
f 240 233 234
f 240 234 241
f 243 242 241
f 234 243 241
f 235 243 234
f 208 243 207
f 243 236 207
f 243 235 236
f 207 236 201
f 245 244 237
f 244 202 237
f 244 210 202
f 245 237 238
f 242 243 212
f 213 242 212
f 246 242 213
f 212 243 208
f 247 214 215
f 248 247 215
f 210 248 215
f 244 248 210
f 251 250 249
f 253 252 249
f 253 249 250
f 253 246 252
f 246 217 252
f 246 213 217
f 254 218 247
f 247 218 214
f 247 248 255
f 247 255 254
f 251 249 256
f 251 256 257
f 258 249 252
f 256 249 258
f 220 258 217
f 217 258 252
f 254 221 218
f 260 259 223
f 260 223 221
f 255 260 221
f 254 255 221
f 261 259 260
f 257 256 262
f 257 262 263
f 264 256 258
f 262 256 264
f 224 264 220
f 220 264 258
f 265 225 259
f 259 225 223
f 259 261 266
f 259 266 265
f 263 262 267
f 263 267 268
f 227 267 226
f 267 264 226
f 267 262 264
f 226 264 224
f 269 228 265
f 265 228 225
f 265 266 270
f 271 265 270
f 269 265 271
f 271 270 268
f 271 268 267
f 230 271 267
f 229 230 267
f 229 267 227
f 269 231 228
f 231 269 232
f 232 269 271
f 232 271 230
f 272 238 239
f 240 273 239
f 239 273 272
f 241 274 240
f 240 274 273
f 242 274 241
f 275 244 245
f 276 275 245
f 276 245 238
f 277 276 238
f 272 277 238
f 279 278 277
f 272 279 277
f 273 279 272
f 280 273 274
f 279 273 280
f 246 280 242
f 242 280 274
f 281 248 275
f 275 248 244
f 275 276 282
f 275 282 281
f 278 279 250
f 251 278 250
f 283 278 251
f 250 279 253
f 253 279 280
f 253 280 246
f 284 255 281
f 281 255 248
f 281 282 285
f 286 281 285
f 284 281 286
f 285 283 286
f 283 257 286
f 283 251 257
f 284 260 255
f 260 284 261
f 284 287 261
f 284 286 287
f 263 287 257
f 257 287 286
f 288 266 287
f 287 266 261
f 268 288 263
f 263 288 287
f 288 270 266
f 270 288 268
f 289 276 277
f 278 289 277
f 290 282 289
f 289 282 276
f 283 290 278
f 278 290 289
f 290 285 282
f 285 290 283
