v 47.8 -21.0 4.0
v 48.0 -21.0 3.8
v 48.0 -21.2 4.0
v 48.0 -21.0 5.0
v 47.7 -20.0 4.0
v 48.0 -20.0 3.6
v 48.0 -21.0 5.0
v 47.8 -20.0 5.0
v 48.0 -20.0 5.2
v 47.9 -19.0 4.0
v 48.0 -19.0 3.8
v 48.0 -19.0 4.2
v 48.0 -19.7 5.0
v 48.0 -18.9 4.0
v 48.7 -21.0 3.0
v 49.0 -21.0 2.8
v 49.0 -21.2 3.0
v 49.0 -21.4 4.0
v 49.0 -21.0 4.5
v 48.5 -20.0 3.0
v 49.0 -20.0 2.5
v 49.0 -20.5 5.0
v 49.0 -20.0 5.3
v 48.5 -19.0 3.0
v 49.0 -19.0 2.5
v 48.5 -19.0 5.0
v 49.0 -19.0 5.7
v 48.6 -18.0 3.0
v 49.0 -18.0 2.5
v 48.6 -18.0 4.0
v 49.0 -18.0 4.5
v 49.0 -18.5 5.0
v 48.9 -17.0 3.0
v 49.0 -17.0 2.8
v 49.0 -17.0 3.2
v 49.0 -17.5 4.0
v 49.0 -16.8 3.0
v 50.0 -21.0 2.6
v 50.0 -21.3 3.0
v 50.0 -21.2 4.0
v 50.0 -21.0 4.3
v 49.7 -20.0 2.0
v 50.0 -20.0 1.7
v 50.0 -20.3 2.0
v 49.5 -20.0 5.0
v 50.0 -20.0 4.7
v 49.5 -19.0 2.0
v 50.0 -19.0 1.5
v 50.0 -19.6 5.0
v 50.0 -19.0 5.5
v 49.8 -18.0 1.0
v 50.0 -18.0 0.8
v 50.0 -18.3 1.0
v 49.4 -18.0 2.0
v 49.5 -18.0 5.0
v 50.0 -18.0 5.3
v 49.8 -17.0 1.0
v 50.0 -17.0 0.8
v 49.4 -17.0 2.0
v 49.4 -17.0 4.0
v 50.0 -17.0 4.6
v 50.0 -17.5 5.0
v 50.0 -16.5 1.0
v 49.7 -16.0 2.0
v 50.0 -16.0 1.4
v 49.5 -16.0 3.0
v 49.7 -16.0 4.0
v 50.0 -16.0 4.3
v 49.9 -15.0 1.0
v 50.0 -15.0 0.9
v 50.0 -15.2 1.0
v 50.0 -15.3 2.0
v 50.0 -15.0 1.3
v 49.8 -15.0 3.0
v 50.0 -15.0 2.5
v 50.0 -15.0 3.3
v 50.0 -15.6 4.0
v 49.9 -14.0 1.0
v 50.0 -14.0 0.9
v 50.0 -14.0 1.1
v 50.0 -14.8 3.0
v 50.0 -13.9 1.0
v 51.0 -21.0 2.8
v 51.0 -21.1 3.0
v 50.4 -21.0 4.0
v 51.0 -21.0 3.2
v 51.0 -20.0 1.5
v 51.0 -20.5 2.0
v 51.0 -20.6 4.0
v 51.0 -20.0 4.5
v 51.0 -19.0 1.3
v 51.0 -19.5 5.0
v 51.0 -19.0 5.4
v 51.0 -18.0 0.6
v 51.0 -18.6 1.0
v 51.0 -18.0 5.7
v 51.0 -17.0 0.5
v 50.3 -17.0 5.0
v 51.0 -17.2 6.0
v 50.9 -17.0 6.0
v 51.0 -17.0 6.1
v 50.3 -16.0 1.0
v 51.0 -16.0 0.5
v 50.6 -16.0 5.0
v 51.0 -16.0 5.4
v 51.0 -16.8 6.0
v 51.0 -15.0 0.4
v 50.2 -15.0 2.0
v 50.4 -15.0 4.0
v 51.0 -15.0 4.6
v 51.0 -15.5 5.0
v 51.0 -14.0 0.4
v 50.3 -14.0 2.0
v 50.4 -14.0 3.0
v 50.7 -14.0 4.0
v 51.0 -14.0 4.3
v 50.5 -13.0 1.0
v 51.0 -13.0 0.5
v 50.1 -13.0 2.0
v 50.6 -13.0 3.0
v 51.0 -13.0 3.5
v 51.0 -13.6 4.0
v 50.7 -12.0 1.0
v 51.0 -12.0 0.7
v 50.7 -12.0 2.0
v 51.0 -12.0 2.4
v 51.0 -12.5 3.0
v 51.0 -11.7 1.0
v 51.0 -11.6 2.0
v 51.2 -21.0 3.0
v 51.7 -20.0 1.0
v 52.0 -20.0 0.8
v 52.0 -20.2 1.0
v 52.0 -20.5 2.0
v 52.0 -20.6 3.0
v 52.0 -20.4 4.0
v 52.0 -20.0 4.5
v 51.4 -19.0 1.0
v 52.0 -19.0 0.6
v 52.0 -19.5 5.0
v 52.0 -19.0 5.5
v 52.0 -18.0 0.5
v 52.0 -18.2 6.0
v 51.6 -18.0 6.0
v 52.0 -18.0 6.2
v 52.0 -17.0 0.4
v 52.0 -17.2 7.0
v 51.8 -17.0 7.0
v 52.0 -17.0 7.2
v 51.7 -16.0 0.0
v 52.0 -16.0 -0.3
v 52.0 -16.3 0.0
v 52.0 -16.1 6.0
v 52.0 -16.0 5.9
v 51.9 -16.0 7.0
v 52.0 -16.0 6.4
v 52.0 -16.0 7.1
v 51.5 -15.0 0.0
v 52.0 -15.0 -0.4
v 51.5 -15.0 5.0
v 52.0 -15.0 5.4
v 52.0 -15.9 7.0
v 51.5 -14.0 0.0
v 52.0 -14.0 -0.5
v 52.0 -14.5 5.0
v 52.0 -14.0 4.7
v 51.5 -13.0 0.0
v 52.0 -13.0 -0.5
v 51.6 -13.0 4.0
v 52.0 -13.0 4.3
v 51.5 -12.0 0.0
v 52.0 -12.0 -0.5
v 51.6 -12.0 3.0
v 52.0 -12.0 3.4
v 52.0 -12.7 4.0
v 51.8 -11.0 0.0
v 52.0 -11.0 -0.2
v 51.5 -11.0 1.0
v 51.7 -11.0 2.0
v 52.0 -11.0 2.3
v 52.0 -11.6 3.0
v 52.0 -10.7 0.0
v 52.0 -10.5 1.0
v 52.0 -10.7 2.0
v 53.0 -20.0 0.7
v 53.0 -20.3 1.0
v 53.0 -20.5 2.0
v 53.0 -20.5 3.0
v 53.0 -20.4 4.0
v 53.0 -20.0 4.4
v 53.0 -19.0 0.5
v 53.0 -19.3 5.0
v 53.0 -19.0 5.3
v 53.0 -18.0 0.4
v 52.4 -18.0 6.0
v 53.0 -18.0 5.7
v 53.0 -17.0 0.3
v 53.0 -17.7 6.0
v 53.0 -17.4 7.0
v 53.0 -17.0 7.4
v 53.0 -16.0 -0.4
v 53.0 -16.6 0.0
v 52.0 -16.0 6.0
v 53.0 -16.3 8.0
v 52.7 -16.0 8.0
v 53.0 -16.0 8.3
v 53.0 -15.0 -0.6
v 52.6 -15.0 6.0
v 53.0 -15.2 7.0
v 53.0 -15.0 6.7
v 53.0 -15.0 8.0
v 53.0 -15.0 7.9
v 53.0 -15.0 8.0
v 52.7 -14.0 -1.0
v 53.0 -14.0 -1.2
v 53.0 -14.3 -1.0
v 52.5 -14.0 5.0
v 53.0 -14.0 5.4
v 53.0 -14.6 6.0
v 53.0 -15.0 8.0
v 52.5 -13.0 -1.0
v 53.0 -13.0 -1.4
v 53.0 -13.6 5.0
v 53.0 -13.0 4.5
v 52.6 -12.0 -1.0
v 53.0 -12.0 -1.3
v 53.0 -12.5 4.0
v 53.0 -12.0 3.5
v 53.0 -11.3 -1.0
v 53.0 -11.0 -0.9
v 53.0 -11.4 3.0
v 53.0 -11.0 2.7
v 52.7 -10.0 -1.0
v 53.0 -10.0 -1.3
v 53.0 -10.7 -1.0
v 52.5 -10.0 0.0
v 52.5 -10.0 1.0
v 52.7 -10.0 2.0
v 53.0 -10.0 2.2
v 52.9 -9.0 -1.0
v 53.0 -9.0 -1.1
v 53.0 -9.0 -0.8
v 53.0 -9.4 0.0
v 53.0 -9.5 1.0
v 53.0 -9.8 2.0
v 53.0 -8.9 -1.0
v 54.0 -20.0 0.7
v 54.0 -20.3 1.0
v 54.0 -20.4 2.0
v 54.0 -20.4 3.0
v 54.0 -20.1 4.0
v 54.0 -20.0 4.1
v 54.0 -19.0 0.4
v 53.4 -19.0 5.0
v 54.0 -19.0 4.2
v 53.8 -18.0 0.0
v 54.0 -18.0 -0.1
v 54.0 -18.2 0.0
v 54.0 -18.5 5.0
v 54.0 -18.0 5.5
v 53.4 -17.0 0.0
v 54.0 -17.0 -0.4
v 54.0 -17.5 6.0
v 54.0 -17.2 7.0
v 54.0 -17.0 7.3
v 54.0 -16.0 -0.5
v 54.0 -16.4 8.0
v 54.0 -16.0 8.7
v 54.0 -15.0 -0.6
v 53.2 -15.0 7.0
v 54.0 -15.0 8.3
v 54.0 -14.0 -1.4
v 54.0 -14.5 -1.0
v 54.0 -14.3 6.0
v 54.0 -14.0 5.7
v 54.0 -14.5 7.0
v 54.0 -14.7 8.0
v 54.0 -13.0 -1.6
v 54.0 -13.5 5.0
v 54.0 -13.0 4.5
v 54.0 -12.0 -1.7
v 54.0 -12.5 4.0
v 54.0 -12.0 3.6
v 53.7 -11.0 -2.0
v 54.0 -11.0 -2.3
v 54.0 -11.5 -2.0
v 53.1 -11.0 -1.0
v 53.5 -11.0 3.0
v 54.0 -11.0 3.3
v 53.6 -10.0 -2.0
v 54.0 -10.0 -2.4
v 54.0 -10.5 3.0
v 54.0 -10.0 2.6
v 53.6 -9.0 -2.0
v 54.0 -9.0 -2.4
v 53.3 -9.0 0.0
v 53.6 -9.0 1.0
v 54.0 -9.0 1.5
v 54.0 -9.4 2.0
v 54.0 -8.5 -2.0
v 53.5 -8.0 -1.0
v 54.0 -8.0 -1.6
v 53.7 -8.0 0.0
v 54.0 -8.0 0.4
v 54.0 -8.5 1.0
v 53.9 -7.0 -1.0
v 54.0 -7.0 -1.1
v 54.0 -7.0 -0.9
v 54.0 -7.6 0.0
v 54.0 -6.9 -1.0
v 55.0 -20.0 1.0
v 55.0 -20.0 1.0
v 54.6 -20.0 2.0
v 55.0 -20.0 1.0
v 54.4 -20.0 3.0
v 54.1 -20.0 4.0
v 55.0 -19.0 0.7
v 55.0 -19.6 2.0
v 55.0 -19.5 3.0
v 55.0 -19.2 4.0
v 55.0 -19.0 4.2
v 54.2 -18.0 0.0
v 55.0 -18.0 0.4
v 55.0 -18.3 5.0
v 55.0 -18.0 5.3
v 55.0 -17.0 -0.3
v 55.0 -17.5 0.0
v 54.7 -17.0 6.0
v 55.0 -17.0 5.7
v 54.3 -17.0 7.0
v 55.0 -16.0 -0.5
v 55.0 -16.7 6.0
v 55.0 -16.3 7.0
v 54.4 -16.0 8.0
v 55.0 -16.0 7.3
v 55.0 -15.0 -0.7
v 54.4 -15.0 8.0
v 55.0 -15.0 7.5
v 55.0 -14.0 -1.5
v 55.0 -14.6 -1.0
v 54.4 -14.0 6.0
v 54.6 -14.0 7.0
v 55.0 -14.0 7.7
v 54.7 -13.0 -2.0
v 55.0 -13.0 -2.2
v 55.0 -13.3 -2.0
v 55.0 -13.3 5.0
v 55.0 -13.0 4.7
v 55.0 -13.5 6.0
v 55.0 -13.6 7.0
v 54.4 -12.0 -2.0
v 55.0 -12.0 -2.4
v 55.0 -12.3 4.0
v 55.0 -12.0 3.7
v 55.0 -11.0 -2.5
v 55.0 -11.0 3.5
v 55.0 -10.0 -2.6
v 54.6 -10.0 3.0
v 55.0 -10.0 3.3
v 54.9 -9.0 -3.0
v 55.0 -9.0 -3.1
v 55.0 -9.2 -3.0
v 54.5 -9.0 2.0
v 55.0 -9.0 2.4
v 55.0 -9.7 3.0
v 54.7 -8.0 -3.0
v 55.0 -8.0 -3.3
v 54.3 -8.0 -2.0
v 54.5 -8.0 1.0
v 55.0 -8.0 1.5
v 55.0 -8.5 2.0
v 54.6 -7.0 -3.0
v 55.0 -7.0 -3.4
v 54.4 -7.0 -2.0
v 54.6 -7.0 0.0
v 55.0 -7.0 0.4
v 55.0 -7.5 1.0
v 54.7 -6.0 -3.0
v 55.0 -6.0 -3.9
v 54.7 -6.0 -2.0
v 55.0 -6.3 -1.0
v 55.0 -6.0 -1.5
v 55.0 -6.7 0.0
v 55.0 -5.5 -3.0
v 55.0 -5.7 -2.0
v 55.0 -20.0 1.0
v 55.3 -19.0 1.0
v 55.5 -19.0 2.0
v 55.5 -19.0 3.0
v 55.2 -19.0 4.0
v 55.6 -18.0 1.0
v 56.0 -18.0 1.6
v 56.0 -18.4 2.0
v 56.0 -18.5 3.0
v 56.0 -18.3 4.0
v 55.4 -18.0 5.0
v 56.0 -18.0 4.4
v 55.4 -17.0 0.0
v 56.0 -17.0 0.5
v 56.0 -17.5 1.0
v 56.0 -17.4 5.0
v 56.0 -17.0 5.3
v 56.0 -16.0 -0.4
v 56.0 -16.5 0.0
v 55.5 -16.0 6.0
v 56.0 -16.0 5.5
v 55.2 -16.0 7.0
v 55.5 -15.0 -1.0
v 56.0 -15.0 -1.3
v 56.0 -15.3 -1.0
v 55.8 -15.0 6.0
v 56.0 -15.0 5.8
v 55.5 -15.0 7.0
v 56.0 -14.0 -1.6
v 56.0 -14.7 6.0
v 56.0 -14.3 7.0
v 56.0 -14.0 7.3
v 56.0 -13.0 -2.4
v 56.0 -13.5 -2.0
v 55.3 -13.0 5.0
v 55.5 -13.0 6.0
v 55.7 -13.0 7.0
v 56.0 -13.0 7.2
v 56.0 -12.0 -2.5
v 55.4 -12.0 4.0
v 56.0 -12.0 4.6
v 56.0 -12.4 5.0
v 56.0 -12.5 6.0
v 56.0 -12.7 7.0
v 56.0 -11.0 -2.5
v 56.0 -11.4 4.0
v 56.0 -11.0 3.7
v 56.0 -10.0 -2.5
v 56.0 -10.0 3.4
v 55.2 -9.0 -3.0
v 56.0 -9.0 -2.7
v 56.0 -9.4 3.0
v 56.0 -9.0 2.7
v 56.0 -8.0 -3.3
v 56.0 -8.5 -3.0
v 55.6 -8.0 2.0
v 56.0 -8.0 2.3
v 56.0 -7.0 -3.5
v 55.5 -7.0 1.0
v 56.0 -7.0 1.5
v 56.0 -7.6 2.0
v 56.0 -6.0 -3.6
v 55.5 -6.0 -1.0
v 56.0 -6.0 -0.4
v 56.0 -6.3 0.0
v 56.0 -6.6 1.0
v 55.6 -5.0 -3.0
v 56.0 -5.0 -3.3
v 55.7 -5.0 -2.0
v 56.0 -5.0 -1.6
v 56.0 -5.5 -1.0
v 56.0 -4.7 -3.0
v 56.0 -4.7 -2.0
v 56.3 -18.0 2.0
v 56.4 -18.0 3.0
v 56.3 -18.0 4.0
v 56.4 -17.0 1.0
v 56.6 -17.0 2.0
v 56.6 -17.0 3.0
v 56.6 -17.0 4.0
v 56.3 -17.0 5.0
v 56.5 -16.0 0.0
v 57.0 -16.0 0.5
v 57.0 -16.4 1.0
v 57.0 -16.5 2.0
v 57.0 -16.6 3.0
v 57.0 -16.4 4.0
v 57.0 -16.0 4.5
v 56.6 -16.0 5.0
v 57.0 -15.0 -1.4
v 57.0 -15.4 -1.0
v 57.0 -15.7 0.0
v 57.0 -15.4 5.0
v 57.0 -15.0 5.3
v 57.0 -14.0 -1.6
v 56.6 -14.0 6.0
v 57.0 -14.0 5.6
v 56.3 -14.0 7.0
v 57.0 -13.0 -2.3
v 57.0 -13.4 -2.0
v 57.0 -13.6 6.0
v 57.0 -13.2 7.0
v 57.0 -13.0 7.2
v 57.0 -12.0 -2.5
v 56.4 -12.0 5.0
v 56.6 -12.0 6.0
v 56.9 -12.0 7.0
v 57.0 -12.0 7.0
v 57.0 -11.0 -2.5
v 56.4 -11.0 4.0
v 57.0 -11.0 4.5
v 57.0 -11.4 5.0
v 57.0 -11.6 6.0
v 57.0 -11.9 7.0
v 57.0 -10.0 -2.5
v 57.0 -10.4 4.0
v 57.0 -10.0 3.7
v 57.0 -9.0 -2.5
v 56.5 -9.0 3.0
v 57.0 -9.0 3.3
v 56.5 -8.0 -3.0
v 57.0 -8.0 -2.7
v 57.0 -8.6 3.0
v 57.0 -8.0 2.6
v 57.0 -7.0 -3.4
v 57.0 -7.6 -3.0
v 56.5 -7.0 2.0
v 57.0 -7.0 2.4
v 57.0 -6.0 -3.5
v 56.3 -6.0 0.0
v 56.6 -6.0 1.0
v 57.0 -6.0 1.5
v 57.0 -6.5 2.0
v 57.0 -5.0 -3.5
v 56.5 -5.0 -1.0
v 57.0 -5.0 -0.4
v 57.0 -5.3 0.0
v 57.0 -5.6 1.0
v 56.8 -4.0 -3.0
v 57.0 -4.0 -3.3
v 57.0 -4.0 -2.6
v 57.0 -4.3 -2.0
v 57.0 -4.6 -1.0
v 56.9 -3.0 -4.0
v 57.0 -3.0 -4.2
v 57.0 -3.2 -4.0
v 57.0 -3.7 -3.0
v 57.0 -3.0 -3.7
v 57.0 -2.0 -5.0
v 57.0 -2.0 -5.0
v 57.0 -2.0 -5.0
v 56.8 -2.0 -4.0
v 57.0 -2.0 -3.7
v 57.0 -2.0 -5.0
v 57.0 -1.7 -4.0
v 57.4 -16.0 1.0
v 57.6 -16.0 2.0
v 58.0 -16.0 2.7
v 58.0 -16.1 3.0
v 57.5 -16.0 4.0
v 58.0 -16.0 3.2
v 58.0 -15.0 -1.3
v 58.0 -15.3 -1.0
v 58.0 -15.5 0.0
v 58.0 -15.6 1.0
v 58.0 -15.6 2.0
v 58.0 -15.5 4.0
v 57.3 -15.0 5.0
v 58.0 -15.0 4.4
v 58.0 -14.0 -1.5
v 57.5 -14.0 5.0
v 58.0 -14.0 4.6
v 57.5 -13.0 -2.0
v 58.0 -13.0 -1.7
v 57.7 -13.0 5.0
v 58.0 -13.0 4.7
v 57.5 -13.0 6.0
v 57.2 -13.0 7.0
v 58.0 -12.0 -2.4
v 58.0 -12.6 -2.0
v 58.0 -12.6 5.0
v 58.0 -12.1 6.0
v 58.0 -12.0 6.1
v 57.1 -12.0 7.0
v 58.0 -11.0 -2.5
v 57.8 -11.0 5.0
v 58.0 -11.0 5.2
v 58.0 -11.9 6.0
v 58.0 -10.0 -2.5
v 57.7 -10.0 4.0
v 58.0 -10.0 4.2
v 58.0 -10.9 5.0
v 58.0 -9.0 -2.6
v 58.0 -9.7 4.0
v 58.0 -9.0 3.6
v 58.0 -8.0 -2.8
v 58.0 -8.2 3.0
v 58.0 -8.0 2.9
v 58.0 -7.0 -3.4
v 58.0 -7.7 -3.0
v 58.0 -7.6 3.0
v 57.8 -7.0 3.0
v 58.0 -7.0 3.2
v 58.0 -6.0 -3.6
v 57.4 -6.0 2.0
v 58.0 -6.0 2.6
v 58.0 -6.7 3.0
v 58.0 -5.0 -3.6
v 57.3 -5.0 0.0
v 57.5 -5.0 1.0
v 57.7 -5.0 2.0
v 58.0 -5.0 2.3
v 57.6 -4.0 -4.0
v 58.0 -4.0 -4.3
v 58.0 -4.4 -4.0
v 57.3 -4.0 -2.0
v 57.5 -4.0 -1.0
v 57.7 -4.0 0.0
v 58.0 -4.0 0.5
v 58.0 -4.4 1.0
v 58.0 -4.7 2.0
v 57.8 -3.0 -5.0
v 58.0 -3.0 -5.1
v 58.0 -3.1 -5.0
v 57.3 -3.0 -3.0
v 57.7 -3.0 -2.0
v 58.0 -3.0 -1.5
v 58.0 -3.4 -1.0
v 58.0 -3.7 0.0
v 58.0 -2.0 -5.2
v 57.5 -2.0 -3.0
v 58.0 -2.0 -2.4
v 58.0 -2.5 -2.0
v 58.0 -1.7 -5.0
v 57.7 -1.0 -4.0
v 58.0 -1.0 -4.3
v 57.8 -1.0 -3.0
v 58.0 -1.0 -2.7
v 58.0 -0.8 -4.0
v 58.0 -0.7 -3.0
v 58.2 -16.0 3.0
v 59.0 -15.0 -1.2
v 59.0 -15.2 -1.0
v 59.0 -15.4 0.0
v 59.0 -15.3 1.0
v 58.8 -15.0 2.0
v 59.0 -15.0 1.7
v 59.0 -15.0 2.5
v 59.0 -15.2 3.0
v 58.5 -15.0 4.0
v 59.0 -15.0 3.2
v 59.0 -14.0 -1.6
v 59.0 -14.8 2.0
v 59.0 -14.2 4.0
v 59.0 -14.0 4.1
v 59.0 -13.0 -1.6
v 58.6 -13.0 4.0
v 59.0 -13.8 4.0
v 59.0 -13.0 3.6
v 59.0 -12.0 -2.4
v 59.0 -12.5 -2.0
v 58.6 -12.0 4.0
v 59.0 -12.0 3.5
v 58.4 -12.0 5.0
v 58.1 -12.0 6.0
v 59.0 -11.0 -2.5
v 58.6 -11.0 4.0
v 59.0 -11.0 3.5
v 58.1 -11.0 5.0
v 59.0 -10.0 -2.6
v 58.3 -10.0 4.0
v 59.0 -10.0 3.6
v 58.7 -9.0 -3.0
v 59.0 -9.0 -3.3
v 59.0 -9.3 -3.0
v 59.0 -9.0 3.9
v 58.3 -8.0 -3.0
v 59.0 -8.0 -3.4
v 58.2 -8.0 3.0
v 59.0 -8.0 3.6
v 59.0 -7.0 -3.6
v 59.0 -7.0 3.7
v 58.9 -6.0 -4.0
v 59.0 -6.0 -4.1
v 59.0 -6.1 -4.0
v 58.3 -6.0 3.0
v 59.0 -6.2 4.0
v 58.9 -6.0 4.0
v 59.0 -6.0 4.1
v 59.0 -5.8 -4.0
v 59.0 -5.0 -3.7
v 58.5 -5.0 3.0
v 59.0 -5.0 3.6
v 59.0 -5.8 4.0
v 59.0 -4.0 -4.4
v 59.0 -4.6 -4.0
v 58.4 -4.0 1.0
v 58.5 -4.0 2.0
v 58.6 -4.0 3.0
v 59.0 -4.0 3.5
v 58.1 -3.0 -5.0
v 59.0 -3.0 -4.5
v 58.3 -3.0 -1.0
v 58.6 -3.0 0.0
v 59.0 -3.0 0.5
v 59.0 -3.4 1.0
v 59.0 -3.4 2.0
v 58.7 -3.0 3.0
v 59.0 -3.0 2.5
v 59.0 -3.0 3.5
v 58.3 -2.0 -5.0
v 59.0 -2.0 -4.6
v 58.3 -2.0 -2.0
v 58.7 -2.0 -1.0
v 59.0 -2.0 -0.6
v 59.0 -2.5 0.0
v 58.0 -2.0 3.0
v 59.0 -2.0 2.6
v 59.0 -2.2 4.0
v 58.9 -2.0 4.0
v 59.0 -2.0 4.1
v 59.0 -1.0 -4.3
v 58.6 -1.0 -2.0
v 59.0 -1.0 -1.5
v 59.0 -1.6 -1.0
v 58.3 -1.0 3.0
v 59.0 -1.0 2.8
v 59.0 -1.0 3.2
v 59.0 -1.9 4.0
v 59.0 -0.7 -4.0
v 58.9 0.0 -3.0
v 59.0 0.0 -3.1
v 59.0 0.0 -2.8
v 59.0 -0.5 -2.0
v 59.0 -0.8 3.0
v 59.0 0.1 -3.0
v 59.3 -15.0 -1.0
v 59.5 -15.0 0.0
v 59.4 -15.0 1.0
v 59.2 -15.0 3.0
v 60.0 -14.0 -1.8
v 60.0 -14.5 -1.0
v 60.0 -14.5 0.0
v 60.0 -14.4 1.0
v 60.0 -14.2 2.0
v 59.5 -14.0 3.0
v 60.0 -14.0 2.3
v 59.1 -14.0 4.0
v 60.0 -13.0 -1.7
v 59.5 -13.0 3.0
v 60.0 -13.0 2.5
v 60.0 -12.0 -2.4
v 60.0 -12.6 -2.0
v 59.5 -12.0 3.0
v 60.0 -12.0 2.5
v 60.0 -11.0 -2.5
v 59.5 -11.0 3.0
v 60.0 -11.0 2.5
v 60.0 -10.0 -2.6
v 59.5 -10.0 3.0
v 60.0 -10.0 2.5
v 60.0 -9.0 -3.4
v 60.0 -9.5 -3.0
v 59.8 -9.0 3.0
v 60.0 -9.0 2.8
v 60.0 -8.0 -3.5
v 60.0 -8.8 3.0
v 60.0 -8.1 4.0
v 59.8 -8.0 4.0
v 60.0 -8.0 4.1
v 60.0 -7.0 -3.6
v 59.4 -7.0 4.0
v 60.0 -7.0 4.4
v 60.0 -6.0 -4.2
v 60.0 -6.3 -4.0
v 60.0 -6.0 4.5
v 60.0 -5.5 -4.0
v 60.0 -5.0 -3.7
v 59.4 -5.0 4.0
v 60.0 -5.0 4.5
v 60.0 -4.0 -4.1
v 60.0 -4.3 -4.0
v 59.5 -4.0 4.0
v 60.0 -4.0 4.4
v 60.0 -3.6 -4.0
v 59.8 -3.0 -4.0
v 60.0 -3.0 -3.8
v 59.4 -3.0 1.0
v 59.3 -3.0 2.0
v 59.4 -3.0 4.0
v 60.0 -3.0 4.4
v 60.0 -2.0 -4.2
v 60.0 -2.5 -4.0
v 59.5 -2.0 0.0
v 60.0 -2.0 0.7
v 60.0 -2.2 1.0
v 60.0 -2.3 2.0
v 60.0 -2.0 2.2
v 60.0 -2.0 4.4
v 60.0 -1.7 -4.0
v 59.5 -1.0 -4.0
v 60.0 -1.0 -3.7
v 59.5 -1.0 -1.0
v 60.0 -1.0 -0.4
v 60.0 -1.4 0.0
v 60.0 -1.0 2.7
v 60.0 -1.5 4.0
v 60.0 -1.0 3.4
v 60.0 0.0 -3.2
v 59.6 0.0 -2.0
v 60.0 0.0 -1.7
v 60.0 -0.6 -1.0
v 60.0 -0.8 3.0
v 60.0 0.2 -3.0
v 60.0 0.2 -2.0
v 61.0 -14.0 -1.1
v 61.0 -14.0 -1.0
v 60.5 -14.0 0.0
v 61.0 -14.0 -0.9
v 60.4 -14.0 1.0
v 60.2 -14.0 2.0
v 61.0 -13.0 -1.5
v 60.8 -13.0 0.0
v 61.0 -13.0 -0.4
v 60.6 -13.0 1.0
v 60.4 -13.0 2.0
v 61.0 -12.0 -2.3
v 61.0 -12.4 -2.0
v 61.0 -12.7 0.0
v 61.0 -12.3 1.0
v 61.0 -12.0 1.3
v 60.5 -12.0 2.0
v 61.0 -11.0 -2.5
v 60.5 -11.0 2.0
v 61.0 -11.0 1.5
v 61.0 -10.0 -2.6
v 60.6 -10.0 2.0
v 61.0 -10.0 1.6
v 61.0 -9.0 -3.4
v 61.0 -9.5 -3.0
v 61.0 -9.5 2.0
v 61.0 -9.0 2.4
v 61.0 -8.0 -3.4
v 61.0 -8.4 3.0
v 60.2 -8.0 4.0
v 61.0 -8.0 3.5
v 61.0 -7.0 -3.6
v 61.0 -7.5 4.0
v 61.0 -7.0 4.4
v 61.0 -6.0 -4.1
v 61.0 -6.1 -4.0
v 61.0 -6.0 4.6
v 61.0 -5.9 -4.0
v 61.0 -5.0 -3.6
v 61.0 -5.0 5.0
v 60.2 -4.0 -4.0
v 61.0 -4.0 -3.6
v 61.0 -4.0 4.7
v 61.0 -3.0 -3.4
v 61.0 -3.0 4.5
v 60.2 -2.0 -4.0
v 61.0 -2.0 -3.4
v 60.2 -2.0 1.0
v 60.3 -2.0 2.0
v 61.0 -2.0 4.5
v 61.0 -1.0 -3.3
v 60.6 -1.0 0.0
v 61.0 -1.0 0.3
v 61.0 -1.4 1.0
v 61.0 -1.5 2.0
v 61.0 -1.0 2.7
v 60.9 -1.0 4.0
v 61.0 -1.0 4.1
v 61.0 -0.6 -3.0
v 60.3 0.0 -3.0
v 61.0 0.0 -2.1
v 61.0 -0.5 -1.0
v 61.0 0.0 -1.9
v 61.0 -0.8 0.0
v 61.0 -0.8 3.0
v 61.0 -0.9 4.0
v 61.0 0.1 -2.0
v 61.1 -14.0 -1.0
v 61.7 -13.0 -1.0
v 61.3 -12.0 -2.0
v 61.7 -12.0 -1.0
v 61.4 -12.0 0.0
v 61.3 -12.0 1.0
v 62.0 -11.0 -2.2
v 62.0 -11.3 -2.0
v 62.0 -11.5 -1.0
v 62.0 -11.0 -0.5
v 61.7 -11.0 0.0
v 61.4 -11.0 1.0
v 62.0 -10.0 -2.5
v 62.0 -10.6 0.0
v 62.0 -10.0 0.5
v 61.6 -10.0 1.0
v 62.0 -9.0 -3.1
v 62.0 -9.1 -3.0
v 62.0 -9.5 1.0
v 61.5 -9.0 2.0
v 62.0 -9.0 1.5
v 62.0 -8.8 -3.0
v 61.7 -8.0 -3.0
v 62.0 -8.0 -2.7
v 62.0 -8.6 2.0
v 61.6 -8.0 3.0
v 62.0 -8.0 2.7
v 62.0 -7.0 -3.3
v 62.0 -7.6 -3.0
v 62.0 -7.7 3.0
v 62.0 -7.3 4.0
v 62.0 -7.0 4.2
v 61.1 -6.0 -4.0
v 62.0 -6.0 -3.4
v 62.0 -6.0 4.5
v 62.0 -5.0 -3.4
v 62.0 -5.0 4.7
v 62.0 -4.0 -3.2
v 62.0 -4.3 5.0
v 61.7 -4.0 5.0
v 62.0 -4.0 5.2
v 62.0 -3.7 -3.0
v 61.5 -3.0 -3.0
v 61.9 -3.0 -2.0
v 62.0 -3.1 -2.0
v 62.0 -3.0 -1.9
v 62.0 -3.7 5.0
v 62.0 -3.0 4.7
v 61.4 -2.0 -3.0
v 62.0 -2.0 -2.2
v 62.0 -2.7 -2.0
v 62.0 -2.0 4.3
v 61.3 -1.0 -3.0
v 62.0 -1.7 -2.0
v 61.6 -1.0 -2.0
v 62.0 -1.0 -1.2
v 61.3 -1.0 0.0
v 62.0 -1.5 0.0
v 62.0 -1.0 -0.8
v 62.0 -1.6 1.0
v 62.0 -1.6 2.0
v 61.3 -1.0 3.0
v 62.0 -1.5 3.0
v 61.1 -1.0 4.0
v 62.0 -1.7 4.0
v 61.1 0.0 -2.0
v 62.0 -0.9 -1.0
v 62.2 -11.0 -2.0
v 62.3 -11.0 -1.0
v 62.5 -10.0 -2.0
v 63.0 -10.0 -1.2
v 63.0 -10.1 -1.0
v 62.5 -10.0 0.0
v 63.0 -10.0 -0.8
v 62.1 -9.0 -3.0
v 62.6 -9.0 -2.0
v 63.0 -9.0 -1.5
v 63.0 -9.4 0.0
v 62.5 -9.0 1.0
v 63.0 -9.0 0.5
v 62.5 -8.0 -2.0
v 63.0 -8.0 -1.5
v 63.0 -8.6 1.0
v 63.0 -8.2 2.0
v 63.0 -8.0 2.3
v 62.2 -7.0 -3.0
v 62.6 -7.0 -2.0
v 63.0 -7.0 -1.5
v 63.0 -7.3 3.0
v 62.4 -7.0 4.0
v 63.0 -7.0 3.4
v 62.4 -6.0 -3.0
v 62.7 -6.0 -2.0
v 63.0 -6.0 -1.6
v 63.0 -6.4 4.0
v 63.0 -6.0 4.3
v 62.4 -5.0 -3.0
v 63.0 -5.0 -2.3
v 63.0 -5.5 -2.0
v 63.0 -5.0 4.6
v 62.3 -4.0 -3.0
v 63.0 -4.0 -2.3
v 62.7 -4.0 1.0
v 63.0 -4.4 1.0
v 63.0 -4.0 0.5
v 62.8 -4.0 2.0
v 63.0 -4.3 2.0
v 63.0 -4.0 2.3
v 63.0 -4.5 5.0
v 63.0 -4.0 5.4
v 63.0 -3.8 -2.0
v 62.5 -3.0 -1.0
v 63.0 -3.5 -1.0
v 62.6 -3.0 0.0
v 63.0 -3.6 0.0
v 62.5 -3.0 1.0
v 62.6 -3.0 2.0
v 63.0 -3.0 2.6
v 62.6 -3.0 5.0
v 63.0 -3.0 5.2
v 62.2 -2.0 -2.0
v 62.4 -2.0 -1.0
v 62.4 -2.0 0.0
v 62.4 -2.0 1.0
v 62.4 -2.0 2.0
v 63.0 -2.7 3.0
v 62.5 -2.0 3.0
v 62.3 -2.0 4.0
v 63.0 -2.5 4.0
v 63.0 -2.8 5.0
v 62.1 -1.0 -1.0
v 63.1 -10.0 -1.0
v 63.4 -9.0 -1.0
v 63.3 -9.0 0.0
v 63.4 -8.0 -1.0
v 63.5 -8.0 0.0
v 63.4 -8.0 1.0
v 63.2 -8.0 2.0
v 63.4 -7.0 -1.0
v 63.5 -7.0 0.0
v 63.5 -7.0 1.0
v 63.5 -7.0 2.0
v 63.3 -7.0 3.0
v 63.4 -6.0 -1.0
v 63.5 -6.0 0.0
v 63.5 -6.0 1.0
v 63.5 -6.0 2.0
v 63.5 -6.0 3.0
v 63.3 -6.0 4.0
v 63.3 -5.0 -2.0
v 63.5 -5.0 -1.0
v 63.5 -5.0 0.0
v 63.4 -5.0 1.0
v 63.4 -5.0 2.0
v 63.5 -5.0 3.0
v 63.6 -5.0 4.0
v 63.2 -4.0 -2.0
v 63.4 -4.0 -1.0
v 63.3 -4.0 0.0
v 63.5 -4.0 3.0
v 64.0 -4.0 3.8
v 64.0 -4.3 4.0
v 64.0 -4.7 5.0
v 64.0 -4.0 5.3
v 63.3 -3.0 3.0
v 64.0 -3.8 4.0
v 63.5 -3.0 4.0
v 64.0 -3.0 5.0
v 64.0 -3.0 5.0
v 64.1 -4.0 4.0
v 64.3 -4.0 5.0
f 3 2 1
f 1 4 3
f 1 2 5
f 5 2 6
f 4 1 7
f 1 8 7
f 1 5 8
f 8 9 7
f 5 6 10
f 10 6 11
f 13 8 12
f 8 10 12
f 8 5 10
f 8 13 9
f 11 14 10
f 10 14 12
f 17 16 15
f 2 3 15
f 3 17 15
f 3 18 17
f 3 4 18
f 18 4 19
f 15 16 20
f 20 16 21
f 20 6 2
f 20 2 15
f 22 19 4
f 22 4 7
f 7 9 22
f 22 9 23
f 20 21 24
f 24 21 25
f 24 11 6
f 24 6 20
f 12 26 13
f 26 27 13
f 27 9 13
f 27 23 9
f 24 25 28
f 28 25 29
f 30 14 11
f 24 30 11
f 28 30 24
f 30 31 14
f 14 31 12
f 31 32 12
f 32 26 12
f 26 32 27
f 28 29 33
f 33 29 34
f 36 30 35
f 30 33 35
f 30 28 33
f 30 36 31
f 34 37 33
f 33 37 35
f 39 38 17
f 17 38 16
f 40 17 18
f 40 39 17
f 18 19 40
f 40 19 41
f 44 43 42
f 38 44 42
f 21 38 42
f 16 38 21
f 19 22 45
f 46 19 45
f 41 19 46
f 23 45 22
f 42 43 47
f 47 43 48
f 47 25 21
f 47 21 42
f 49 46 45
f 45 23 49
f 23 50 49
f 23 27 50
f 53 52 51
f 53 51 48
f 51 47 48
f 51 54 47
f 54 29 25
f 54 25 47
f 31 55 32
f 55 56 32
f 56 27 32
f 56 50 27
f 51 52 57
f 57 52 58
f 51 59 54
f 51 57 59
f 59 34 29
f 59 29 54
f 35 60 36
f 60 61 36
f 36 61 31
f 61 62 31
f 62 55 31
f 55 62 56
f 58 63 57
f 65 64 63
f 64 57 63
f 64 59 57
f 66 37 34
f 59 66 34
f 64 66 59
f 60 35 37
f 66 60 37
f 67 60 66
f 61 60 68
f 68 60 67
f 71 70 69
f 72 64 65
f 69 73 71
f 75 74 72
f 74 64 72
f 74 66 64
f 77 67 76
f 67 74 76
f 67 66 74
f 67 77 68
f 69 70 78
f 78 70 79
f 73 69 80
f 80 69 78
f 75 81 74
f 74 81 76
f 79 82 78
f 78 82 80
f 84 83 39
f 39 83 38
f 86 84 85
f 84 40 85
f 84 39 40
f 41 85 40
f 88 87 44
f 44 87 43
f 44 38 83
f 44 83 88
f 89 86 85
f 85 41 89
f 41 90 89
f 41 46 90
f 87 48 43
f 91 48 87
f 92 90 46
f 92 46 49
f 49 50 92
f 92 50 93
f 95 94 53
f 53 94 52
f 53 48 91
f 53 91 95
f 56 93 50
f 56 96 93
f 94 58 52
f 97 58 94
f 61 98 62
f 96 56 99
f 56 98 99
f 98 100 99
f 56 62 98
f 100 101 99
f 63 58 102
f 58 103 102
f 58 97 103
f 102 65 63
f 68 104 98
f 68 98 61
f 106 100 105
f 100 104 105
f 100 98 104
f 100 106 101
f 102 103 71
f 103 70 71
f 103 107 70
f 108 71 73
f 108 102 71
f 108 72 65
f 102 108 65
f 108 75 72
f 76 109 77
f 109 110 77
f 77 110 68
f 110 111 68
f 111 104 68
f 104 111 105
f 107 79 70
f 112 79 107
f 80 113 108
f 80 108 73
f 114 81 75
f 108 114 75
f 113 114 108
f 109 76 81
f 114 109 81
f 115 109 114
f 110 109 116
f 116 109 115
f 82 79 117
f 79 118 117
f 79 112 118
f 113 80 82
f 117 113 82
f 119 113 117
f 113 120 114
f 113 119 120
f 122 115 121
f 115 120 121
f 115 114 120
f 115 122 116
f 117 118 123
f 123 118 124
f 117 125 119
f 117 123 125
f 127 120 126
f 120 125 126
f 120 119 125
f 120 127 121
f 124 128 123
f 123 128 125
f 125 128 129
f 125 129 126
f 130 83 84
f 86 130 84
f 133 132 131
f 87 88 131
f 88 133 131
f 88 134 133
f 88 83 130
f 135 88 130
f 134 88 135
f 135 130 86
f 89 135 86
f 136 135 89
f 89 90 136
f 136 90 137
f 131 132 138
f 138 132 139
f 138 91 87
f 138 87 131
f 140 137 90
f 140 90 92
f 92 93 140
f 140 93 141
f 138 139 95
f 139 94 95
f 139 142 94
f 138 95 91
f 96 144 143
f 141 96 143
f 93 96 141
f 144 145 143
f 142 97 94
f 146 97 142
f 99 144 96
f 148 147 101
f 101 147 99
f 147 145 99
f 145 144 99
f 148 149 147
f 152 151 150
f 146 152 150
f 103 146 150
f 97 146 103
f 154 153 106
f 154 106 105
f 106 153 101
f 153 155 101
f 155 148 101
f 155 153 156
f 149 148 157
f 157 148 155
f 150 151 158
f 158 151 159
f 158 107 103
f 158 103 150
f 110 160 111
f 160 161 111
f 161 105 111
f 161 154 105
f 156 162 155
f 155 162 157
f 158 159 163
f 163 159 164
f 163 112 107
f 163 107 158
f 166 165 160
f 110 166 160
f 116 166 110
f 160 165 161
f 163 164 167
f 167 164 168
f 167 118 112
f 167 112 163
f 121 169 122
f 169 170 122
f 170 116 122
f 170 166 116
f 167 168 171
f 171 168 172
f 171 124 118
f 171 118 167
f 126 173 127
f 173 174 127
f 127 174 121
f 174 175 121
f 175 169 121
f 169 175 170
f 171 172 176
f 176 172 177
f 178 128 124
f 171 178 124
f 176 178 171
f 179 129 128
f 179 128 178
f 179 180 129
f 129 180 126
f 180 181 126
f 181 173 126
f 173 181 174
f 177 182 176
f 176 182 178
f 178 182 183
f 178 183 179
f 179 183 184
f 179 184 180
f 186 185 133
f 133 185 132
f 187 133 134
f 187 186 133
f 188 134 135
f 188 187 134
f 189 135 136
f 189 188 135
f 136 137 189
f 189 137 190
f 185 139 132
f 191 139 185
f 192 190 137
f 192 137 140
f 140 141 192
f 192 141 193
f 191 142 139
f 194 142 191
f 141 143 195
f 196 141 195
f 193 141 196
f 145 195 143
f 194 146 142
f 197 146 194
f 198 196 195
f 198 195 145
f 147 198 145
f 199 198 147
f 147 149 199
f 199 149 200
f 202 201 152
f 152 201 151
f 152 146 197
f 152 197 202
f 154 203 153
f 203 156 153
f 157 205 204
f 200 157 204
f 149 157 200
f 205 206 204
f 201 159 151
f 207 159 201
f 161 208 203
f 161 203 154
f 203 208 156
f 208 209 156
f 209 162 156
f 208 210 209
f 162 209 157
f 209 211 157
f 211 205 157
f 211 209 212
f 206 205 213
f 213 205 211
f 216 215 214
f 207 216 214
f 164 207 214
f 159 207 164
f 166 217 165
f 217 218 165
f 165 218 161
f 218 219 161
f 219 208 161
f 208 219 210
f 212 220 211
f 211 220 213
f 214 215 221
f 221 215 222
f 221 168 164
f 221 164 214
f 224 223 217
f 166 224 217
f 170 224 166
f 217 223 218
f 221 222 225
f 225 222 226
f 225 172 168
f 225 168 221
f 228 227 175
f 228 175 174
f 170 175 224
f 224 175 227
f 226 229 225
f 172 225 229
f 230 172 229
f 177 172 230
f 232 231 181
f 232 181 180
f 174 181 228
f 228 181 231
f 235 234 233
f 233 236 182
f 230 233 182
f 177 230 182
f 233 230 235
f 237 183 182
f 237 182 236
f 238 184 183
f 238 183 237
f 238 239 184
f 239 180 184
f 239 232 180
f 233 234 240
f 240 234 241
f 243 236 242
f 236 240 242
f 236 233 240
f 236 243 237
f 237 243 244
f 237 244 238
f 238 244 245
f 238 245 239
f 241 246 240
f 240 246 242
f 248 247 186
f 186 247 185
f 249 186 187
f 249 248 186
f 250 187 188
f 250 249 187
f 251 188 189
f 251 250 188
f 189 190 251
f 251 190 252
f 247 191 185
f 253 191 247
f 190 192 254
f 255 190 254
f 252 190 255
f 193 254 192
f 258 257 256
f 253 258 256
f 194 253 256
f 191 253 194
f 259 255 254
f 254 193 259
f 193 260 259
f 193 196 260
f 256 257 261
f 261 257 262
f 261 197 194
f 261 194 256
f 263 260 196
f 263 196 198
f 264 198 199
f 264 263 198
f 199 200 264
f 264 200 265
f 261 262 202
f 262 201 202
f 262 266 201
f 261 202 197
f 267 265 200
f 267 200 204
f 204 206 267
f 267 206 268
f 266 207 201
f 269 207 266
f 210 270 209
f 270 212 209
f 213 268 206
f 213 271 268
f 273 272 216
f 216 272 215
f 216 207 269
f 216 269 273
f 275 274 219
f 275 219 218
f 210 219 270
f 219 276 270
f 219 274 276
f 270 276 212
f 276 220 212
f 276 277 220
f 213 220 271
f 271 220 277
f 272 222 215
f 278 222 272
f 280 279 223
f 280 223 224
f 218 223 275
f 275 223 279
f 278 226 222
f 281 226 278
f 283 282 227
f 283 227 228
f 224 227 280
f 280 227 282
f 286 285 284
f 284 287 229
f 281 284 229
f 226 281 229
f 284 281 286
f 287 230 229
f 232 288 231
f 288 289 231
f 289 228 231
f 289 283 228
f 284 285 290
f 290 285 291
f 290 234 235
f 287 290 235
f 284 290 287
f 287 235 230
f 293 292 288
f 232 293 288
f 239 293 232
f 288 292 289
f 290 291 294
f 294 291 295
f 294 241 234
f 294 234 290
f 242 296 243
f 297 244 243
f 297 243 296
f 244 297 298
f 299 244 298
f 245 244 299
f 239 245 293
f 293 245 299
f 295 300 294
f 300 302 301
f 300 301 246
f 294 300 246
f 241 294 246
f 296 242 246
f 301 296 246
f 303 296 301
f 305 297 304
f 297 303 304
f 297 296 303
f 297 305 298
f 301 302 306
f 306 302 307
f 309 303 308
f 303 306 308
f 303 301 306
f 303 309 304
f 307 310 306
f 306 310 308
f 312 311 248
f 248 311 247
f 314 312 313
f 312 249 313
f 312 248 249
f 250 315 249
f 249 315 313
f 251 316 250
f 250 316 315
f 252 316 251
f 311 253 247
f 317 253 311
f 318 314 313
f 318 313 315
f 318 315 319
f 319 315 316
f 319 316 320
f 316 252 320
f 252 321 320
f 252 255 321
f 322 257 258
f 323 322 258
f 253 323 258
f 317 323 253
f 324 321 255
f 324 255 259
f 259 260 324
f 324 260 325
f 327 326 322
f 326 257 322
f 326 262 257
f 327 322 323
f 260 263 328
f 329 260 328
f 325 260 329
f 264 330 263
f 263 330 328
f 265 330 264
f 326 266 262
f 331 266 326
f 332 329 328
f 332 328 330
f 332 330 333
f 335 333 334
f 334 333 267
f 333 330 267
f 330 265 267
f 268 334 267
f 331 269 266
f 336 269 331
f 335 334 337
f 335 337 338
f 271 337 268
f 268 337 334
f 340 339 273
f 273 339 272
f 273 269 336
f 273 336 340
f 275 341 274
f 342 276 274
f 342 274 341
f 343 338 337
f 276 343 337
f 277 276 337
f 343 276 342
f 277 337 271
f 346 345 344
f 339 346 344
f 278 339 344
f 272 339 278
f 348 347 279
f 348 279 280
f 275 279 341
f 279 349 341
f 279 347 349
f 341 349 342
f 342 349 350
f 342 350 343
f 344 345 351
f 351 345 352
f 351 281 278
f 351 278 344
f 354 353 282
f 354 282 283
f 280 282 348
f 348 282 353
f 351 352 286
f 352 285 286
f 352 355 285
f 351 286 281
f 289 354 283
f 289 356 354
f 355 291 285
f 357 291 355
f 293 358 292
f 358 359 292
f 359 289 292
f 359 356 289
f 362 361 360
f 357 362 360
f 295 357 360
f 291 357 295
f 298 363 299
f 363 364 299
f 299 364 293
f 364 365 293
f 365 358 293
f 358 365 359
f 360 361 366
f 366 361 367
f 368 300 295
f 360 368 295
f 366 368 360
f 368 302 300
f 304 369 305
f 369 370 305
f 305 370 298
f 370 371 298
f 371 363 298
f 363 371 364
f 366 367 372
f 372 367 373
f 366 374 368
f 366 372 374
f 374 307 302
f 374 302 368
f 308 375 309
f 375 376 309
f 309 376 304
f 376 377 304
f 377 369 304
f 369 377 370
f 372 373 378
f 378 373 379
f 372 380 374
f 372 378 380
f 374 380 307
f 380 381 307
f 381 310 307
f 380 382 381
f 308 310 375
f 310 383 375
f 310 381 383
f 375 383 376
f 379 384 378
f 378 384 380
f 380 384 385
f 380 385 382
f 386 311 312
f 314 386 312
f 387 317 386
f 386 317 311
f 318 388 314
f 388 386 314
f 388 387 386
f 319 389 318
f 318 389 388
f 320 390 319
f 319 390 389
f 321 390 320
f 391 323 387
f 387 323 317
f 388 393 392
f 391 388 392
f 387 388 391
f 393 388 389
f 393 389 394
f 394 389 390
f 394 390 395
f 397 395 396
f 396 395 324
f 395 390 324
f 390 321 324
f 325 396 324
f 398 326 327
f 399 398 327
f 399 327 323
f 400 399 323
f 391 400 323
f 400 391 392
f 401 397 396
f 396 325 401
f 325 402 401
f 325 329 402
f 404 403 398
f 403 326 398
f 403 331 326
f 404 398 399
f 329 332 405
f 406 329 405
f 402 329 406
f 333 407 332
f 332 407 405
f 335 407 333
f 410 409 408
f 403 410 408
f 336 403 408
f 331 403 336
f 406 405 411
f 406 411 412
f 413 405 407
f 411 405 413
f 338 413 335
f 335 413 407
f 408 409 340
f 409 339 340
f 409 414 339
f 408 340 336
f 415 412 411
f 415 411 413
f 415 413 416
f 413 338 416
f 338 417 416
f 338 343 417
f 419 418 346
f 346 418 345
f 346 339 414
f 346 414 419
f 348 420 347
f 421 349 347
f 421 347 420
f 422 350 349
f 422 349 421
f 422 423 350
f 423 343 350
f 423 417 343
f 418 352 345
f 424 352 418
f 354 425 353
f 425 426 353
f 353 426 348
f 426 427 348
f 427 420 348
f 420 427 421
f 421 427 428
f 421 428 422
f 422 428 429
f 422 429 423
f 424 355 352
f 430 355 424
f 432 431 425
f 354 432 425
f 356 432 354
f 425 431 426
f 430 357 355
f 433 357 430
f 359 432 356
f 359 434 432
f 435 361 362
f 436 435 362
f 357 436 362
f 433 436 357
f 438 437 365
f 438 365 364
f 359 365 434
f 434 365 437
f 440 439 435
f 439 361 435
f 439 367 361
f 440 435 436
f 370 441 371
f 441 442 371
f 442 364 371
f 442 438 364
f 439 373 367
f 443 373 439
f 376 444 377
f 444 445 377
f 377 445 370
f 445 446 370
f 446 441 370
f 441 446 442
f 443 379 373
f 447 379 443
f 382 448 381
f 381 448 449
f 450 381 449
f 383 381 450
f 376 383 444
f 383 451 444
f 383 450 451
f 444 451 445
f 384 379 452
f 379 453 452
f 379 447 453
f 454 385 384
f 454 384 452
f 454 455 385
f 385 455 382
f 455 456 382
f 456 448 382
f 448 456 449
f 453 457 452
f 452 457 454
f 454 457 458
f 454 458 455
f 459 392 393
f 394 460 393
f 393 460 459
f 395 461 394
f 394 461 460
f 397 461 395
f 462 399 400
f 392 459 400
f 459 462 400
f 459 463 462
f 464 459 460
f 463 459 464
f 465 460 461
f 464 460 465
f 401 466 397
f 466 461 397
f 466 465 461
f 402 466 401
f 467 403 404
f 468 467 404
f 468 404 399
f 469 468 399
f 462 469 399
f 469 462 463
f 469 463 470
f 470 463 464
f 470 464 471
f 471 464 465
f 471 465 472
f 474 473 472
f 465 474 472
f 466 474 465
f 406 474 402
f 402 474 466
f 476 475 410
f 410 475 409
f 410 403 467
f 477 410 467
f 476 410 477
f 477 467 468
f 478 473 474
f 474 406 478
f 406 479 478
f 406 412 479
f 475 414 409
f 480 414 475
f 412 415 481
f 482 412 481
f 479 412 482
f 416 483 415
f 415 483 481
f 417 483 416
f 485 484 419
f 419 484 418
f 419 414 480
f 419 480 485
f 486 482 481
f 486 481 483
f 486 483 487
f 483 417 487
f 417 488 487
f 417 423 488
f 484 424 418
f 489 424 484
f 426 490 427
f 491 428 427
f 491 427 490
f 492 429 428
f 492 428 491
f 492 493 429
f 493 423 429
f 493 488 423
f 489 430 424
f 494 430 489
f 432 495 431
f 495 496 431
f 431 496 426
f 496 497 426
f 497 490 426
f 490 497 491
f 491 497 498
f 491 498 492
f 492 498 499
f 492 499 493
f 494 433 430
f 500 433 494
f 502 501 495
f 432 502 495
f 434 502 432
f 495 501 496
f 500 436 433
f 503 436 500
f 438 504 437
f 504 505 437
f 505 434 437
f 505 502 434
f 506 439 440
f 507 506 440
f 436 507 440
f 503 507 436
f 509 508 504
f 438 509 504
f 442 509 438
f 504 508 505
f 511 510 506
f 510 439 506
f 510 443 439
f 511 506 507
f 445 512 446
f 512 513 446
f 513 442 446
f 513 509 442
f 510 447 443
f 514 447 510
f 449 515 450
f 516 451 450
f 516 450 515
f 516 517 451
f 451 517 445
f 517 518 445
f 518 512 445
f 512 518 513
f 514 453 447
f 519 453 514
f 455 520 456
f 520 521 456
f 456 521 449
f 521 522 449
f 522 515 449
f 515 522 516
f 516 522 523
f 516 523 517
f 457 453 524
f 453 525 524
f 453 519 525
f 457 524 526
f 527 457 526
f 458 457 527
f 455 458 520
f 458 528 520
f 458 527 528
f 520 528 521
f 531 530 529
f 532 524 525
f 529 533 531
f 524 532 526
f 536 535 534
f 536 534 530
f 534 529 530
f 534 537 529
f 533 529 538
f 538 529 537
f 535 539 534
f 534 539 537
f 537 539 540
f 537 540 538
f 541 468 469
f 470 542 469
f 469 542 541
f 542 470 543
f 470 544 543
f 470 471 544
f 546 544 545
f 544 472 545
f 544 471 472
f 473 545 472
f 548 547 476
f 476 547 475
f 549 476 477
f 549 548 476
f 477 468 541
f 550 477 541
f 549 477 550
f 550 541 542
f 550 542 551
f 551 542 543
f 552 546 545
f 554 552 553
f 553 552 478
f 552 545 478
f 545 473 478
f 479 553 478
f 547 480 475
f 555 480 547
f 554 553 556
f 554 556 557
f 482 556 479
f 479 556 553
f 558 484 485
f 559 558 485
f 480 559 485
f 555 559 480
f 557 556 560
f 557 560 561
f 486 562 482
f 562 556 482
f 562 560 556
f 487 563 486
f 486 563 562
f 488 563 487
f 565 564 558
f 564 484 558
f 564 489 484
f 565 558 559
f 566 561 560
f 566 560 562
f 566 562 567
f 569 568 567
f 562 569 567
f 563 569 562
f 493 569 488
f 488 569 563
f 564 494 489
f 570 494 564
f 496 571 497
f 497 571 572
f 573 497 572
f 498 497 573
f 569 499 568
f 499 573 568
f 499 498 573
f 499 569 493
f 570 500 494
f 574 500 570
f 502 575 501
f 575 576 501
f 501 576 496
f 576 577 496
f 577 571 496
f 571 577 572
f 574 503 500
f 578 503 574
f 580 579 575
f 502 580 575
f 505 580 502
f 575 579 576
f 578 507 503
f 581 507 578
f 583 582 508
f 583 508 509
f 505 508 580
f 580 508 582
f 585 584 511
f 511 584 510
f 511 507 581
f 511 581 585
f 513 587 586
f 583 513 586
f 509 513 583
f 587 588 586
f 584 514 510
f 589 514 584
f 517 590 518
f 590 591 518
f 518 591 513
f 591 592 513
f 592 587 513
f 587 592 588
f 589 519 514
f 593 519 589
f 521 594 522
f 595 523 522
f 595 522 594
f 590 517 523
f 595 590 523
f 596 590 595
f 591 590 597
f 597 590 596
f 600 599 598
f 593 600 598
f 525 593 598
f 519 593 525
f 526 601 527
f 602 528 527
f 602 527 601
f 594 521 528
f 602 594 528
f 603 594 602
f 605 595 604
f 595 603 604
f 595 594 603
f 595 605 596
f 596 605 606
f 596 606 597
f 609 608 607
f 609 607 599
f 599 607 598
f 607 530 598
f 530 531 598
f 610 531 533
f 610 598 531
f 610 532 525
f 598 610 525
f 601 526 532
f 610 601 532
f 611 601 610
f 613 602 612
f 602 611 612
f 602 601 611
f 602 613 603
f 603 613 614
f 603 614 604
f 607 608 536
f 608 535 536
f 608 615 535
f 607 536 530
f 538 616 610
f 538 610 533
f 618 611 617
f 611 616 617
f 611 610 616
f 611 618 612
f 615 619 535
f 535 619 539
f 619 621 620
f 540 619 620
f 539 619 540
f 616 538 540
f 620 616 540
f 622 616 620
f 617 616 623
f 623 616 622
f 621 624 620
f 620 624 622
f 622 624 625
f 622 625 623
f 626 543 544
f 546 626 544
f 628 627 548
f 548 627 547
f 629 548 549
f 629 628 548
f 630 549 550
f 630 629 549
f 632 630 631
f 630 551 631
f 630 550 551
f 633 631 551
f 633 551 543
f 634 633 543
f 626 634 543
f 636 634 635
f 635 634 552
f 634 626 552
f 626 546 552
f 554 635 552
f 627 555 547
f 637 555 627
f 638 632 631
f 638 631 633
f 639 636 635
f 635 554 639
f 554 640 639
f 554 557 640
f 637 559 555
f 641 559 637
f 644 643 642
f 643 640 642
f 640 561 642
f 640 557 561
f 646 645 565
f 565 645 564
f 565 559 641
f 565 641 646
f 644 642 647
f 644 647 648
f 566 649 561
f 649 642 561
f 649 647 642
f 567 650 566
f 566 650 649
f 568 650 567
f 645 570 564
f 651 570 645
f 648 647 652
f 648 652 653
f 654 647 649
f 652 647 654
f 572 654 573
f 654 650 573
f 654 649 650
f 573 650 568
f 651 574 570
f 655 574 651
f 653 652 656
f 653 656 657
f 576 656 577
f 656 654 577
f 656 652 654
f 577 654 572
f 660 659 658
f 655 660 658
f 578 655 658
f 574 655 578
f 657 656 579
f 580 657 579
f 661 657 580
f 579 656 576
f 658 659 662
f 662 659 663
f 662 581 578
f 662 578 658
f 583 664 582
f 664 665 582
f 665 580 582
f 665 661 580
f 662 663 585
f 663 584 585
f 663 666 584
f 662 585 581
f 586 664 583
f 586 588 664
f 588 665 664
f 588 667 665
f 670 669 668
f 666 670 668
f 589 666 668
f 584 666 589
f 591 671 592
f 667 588 672
f 588 671 672
f 671 673 672
f 588 592 671
f 673 674 672
f 669 675 668
f 589 668 675
f 676 589 675
f 593 589 676
f 597 677 671
f 597 671 591
f 679 673 678
f 673 677 678
f 673 671 677
f 673 679 674
f 681 680 600
f 600 680 599
f 600 593 676
f 600 676 681
f 604 682 605
f 683 606 605
f 683 605 682
f 677 597 606
f 683 677 606
f 684 677 683
f 678 677 685
f 685 677 684
f 686 608 609
f 687 686 609
f 599 687 609
f 680 687 599
f 612 688 613
f 689 614 613
f 689 613 688
f 689 690 614
f 614 690 604
f 690 691 604
f 691 682 604
f 682 691 683
f 683 691 692
f 694 693 692
f 693 683 692
f 693 684 683
f 685 684 695
f 695 684 693
f 696 615 686
f 686 615 608
f 686 687 697
f 686 697 696
f 617 698 618
f 688 612 618
f 698 688 618
f 699 688 698
f 701 689 700
f 689 699 700
f 689 688 699
f 689 701 690
f 693 694 702
f 702 694 703
f 695 693 704
f 693 705 704
f 693 702 705
f 705 706 704
f 696 619 615
f 621 619 696
f 697 621 696
f 707 621 697
f 623 708 698
f 623 698 617
f 710 699 709
f 699 708 709
f 699 698 708
f 699 710 700
f 702 703 711
f 711 703 712
f 714 705 713
f 705 711 713
f 705 702 711
f 705 714 706
f 707 715 621
f 621 715 624
f 715 717 716
f 625 715 716
f 624 715 625
f 716 718 625
f 625 718 623
f 718 719 623
f 719 708 623
f 708 719 709
f 712 720 711
f 711 720 713
f 717 721 716
f 716 721 718
f 722 627 628
f 629 723 628
f 628 723 722
f 630 724 629
f 629 724 723
f 632 724 630
f 725 633 634
f 636 725 634
f 727 726 722
f 726 627 722
f 726 637 627
f 727 722 723
f 727 723 728
f 728 723 724
f 728 724 729
f 729 724 632
f 638 729 632
f 730 729 638
f 730 638 633
f 731 730 633
f 725 731 633
f 730 731 732
f 639 733 636
f 733 725 636
f 733 731 725
f 640 733 639
f 726 641 637
f 734 641 726
f 732 731 735
f 732 735 736
f 644 735 643
f 735 733 643
f 735 731 733
f 643 733 640
f 738 737 646
f 646 737 645
f 646 641 734
f 646 734 738
f 736 735 739
f 736 739 740
f 648 739 644
f 644 739 735
f 737 651 645
f 741 651 737
f 740 739 742
f 740 742 743
f 653 742 648
f 648 742 739
f 741 655 651
f 744 655 741
f 743 742 745
f 743 745 746
f 657 745 653
f 653 745 742
f 748 747 660
f 660 747 659
f 660 655 744
f 660 744 748
f 746 745 749
f 746 749 750
f 661 749 657
f 657 749 745
f 747 663 659
f 751 663 747
f 752 750 749
f 661 665 749
f 665 753 749
f 753 752 749
f 753 665 754
f 754 755 753
f 751 666 663
f 756 666 751
f 667 757 754
f 667 754 665
f 755 754 758
f 758 754 757
f 760 759 670
f 670 759 669
f 670 666 756
f 670 756 760
f 672 757 667
f 672 674 757
f 674 758 757
f 674 761 758
f 759 762 669
f 669 762 675
f 676 675 762
f 676 762 763
f 678 764 679
f 764 765 679
f 765 674 679
f 765 761 674
f 767 766 681
f 681 766 680
f 681 676 763
f 681 763 767
f 685 768 764
f 685 764 678
f 765 764 769
f 769 764 768
f 771 687 770
f 687 766 770
f 687 680 766
f 772 771 770
f 690 773 691
f 774 692 691
f 774 691 773
f 774 694 692
f 695 775 768
f 695 768 685
f 769 768 776
f 776 768 775
f 778 777 771
f 777 687 771
f 777 697 687
f 778 771 772
f 700 779 701
f 779 780 701
f 701 780 690
f 780 781 690
f 781 773 690
f 773 781 774
f 774 781 782
f 694 774 782
f 783 694 782
f 703 694 783
f 704 775 695
f 704 706 775
f 706 776 775
f 706 784 776
f 786 707 785
f 707 777 785
f 707 697 777
f 787 786 785
f 709 788 710
f 788 789 710
f 710 789 700
f 789 790 700
f 790 779 700
f 779 790 780
f 783 712 703
f 791 712 783
f 793 792 714
f 793 714 713
f 706 714 784
f 784 714 792
f 786 715 707
f 717 715 786
f 787 717 786
f 794 717 787
f 718 795 719
f 795 796 719
f 719 796 709
f 796 797 709
f 797 788 709
f 788 797 789
f 791 798 712
f 712 798 720
f 713 720 793
f 793 720 798
f 794 799 717
f 717 799 721
f 718 721 795
f 721 800 795
f 721 799 800
f 795 800 796
f 802 801 727
f 727 801 726
f 804 802 803
f 802 728 803
f 802 727 728
f 729 805 728
f 728 805 803
f 730 806 729
f 729 806 805
f 732 806 730
f 801 734 726
f 807 734 801
f 804 803 808
f 804 808 809
f 810 803 805
f 808 803 810
f 811 805 806
f 810 805 811
f 736 811 732
f 732 811 806
f 813 812 738
f 738 812 737
f 738 734 807
f 738 807 813
f 814 809 808
f 814 808 810
f 814 810 815
f 817 816 815
f 810 817 815
f 811 817 810
f 740 817 736
f 736 817 811
f 812 741 737
f 818 741 812
f 816 817 819
f 816 819 820
f 743 819 740
f 740 819 817
f 818 744 741
f 821 744 818
f 820 819 822
f 820 822 823
f 746 822 743
f 743 822 819
f 825 824 748
f 748 824 747
f 748 744 821
f 748 821 825
f 826 823 822
f 822 746 826
f 746 827 826
f 746 750 827
f 824 751 747
f 828 751 824
f 829 827 750
f 829 750 752
f 831 829 830
f 829 753 830
f 829 752 753
f 755 830 753
f 828 756 751
f 832 756 828
f 833 831 830
f 830 755 833
f 755 834 833
f 755 758 834
f 836 835 760
f 760 835 759
f 760 756 832
f 760 832 836
f 761 834 758
f 761 837 834
f 835 838 759
f 759 838 762
f 763 762 838
f 763 838 839
f 765 837 761
f 765 840 837
f 841 766 767
f 842 841 767
f 763 842 767
f 839 842 763
f 769 840 765
f 769 843 840
f 841 770 766
f 772 770 841
f 842 772 841
f 844 772 842
f 776 843 769
f 776 845 843
f 846 777 778
f 847 846 778
f 772 847 778
f 844 847 772
f 780 848 781
f 849 782 781
f 849 781 848
f 849 783 782
f 784 845 776
f 784 850 845
f 846 785 777
f 787 785 846
f 847 787 846
f 851 787 847
f 789 852 790
f 852 853 790
f 790 853 780
f 853 854 780
f 854 848 780
f 848 854 849
f 849 854 855
f 783 849 855
f 856 783 855
f 791 783 856
f 793 857 792
f 857 858 792
f 858 784 792
f 858 850 784
f 860 794 859
f 794 851 859
f 794 787 851
f 861 860 859
f 863 862 797
f 863 797 796
f 789 797 852
f 797 864 852
f 797 862 864
f 852 864 853
f 856 865 791
f 791 865 798
f 793 798 857
f 798 866 857
f 798 865 866
f 857 866 858
f 860 799 794
f 861 867 860
f 867 799 860
f 867 800 799
f 796 800 863
f 863 800 867
f 868 801 802
f 804 868 802
f 869 807 868
f 868 807 801
f 809 869 804
f 804 869 868
f 870 812 813
f 807 869 813
f 869 870 813
f 869 871 870
f 814 872 809
f 872 869 809
f 872 871 869
f 815 873 814
f 814 873 872
f 816 873 815
f 875 874 870
f 874 812 870
f 874 818 812
f 875 870 871
f 875 871 876
f 878 877 876
f 871 878 876
f 872 878 871
f 879 872 873
f 878 872 879
f 820 879 816
f 816 879 873
f 874 821 818
f 880 821 874
f 881 877 878
f 883 882 881
f 878 883 881
f 879 883 878
f 823 883 820
f 820 883 879
f 885 884 825
f 825 884 824
f 825 821 880
f 825 880 885
f 886 882 883
f 888 886 887
f 887 886 826
f 886 883 826
f 883 823 826
f 827 887 826
f 890 828 889
f 828 884 889
f 828 824 884
f 891 890 889
f 892 888 887
f 894 892 893
f 893 892 829
f 892 887 829
f 887 827 829
f 831 893 829
f 896 895 890
f 895 828 890
f 895 832 828
f 896 890 891
f 897 894 893
f 897 893 831
f 833 897 831
f 898 897 833
f 833 834 898
f 898 834 899
f 900 835 836
f 901 900 836
f 832 901 836
f 895 901 832
f 837 899 834
f 837 902 899
f 900 838 835
f 839 838 900
f 901 839 900
f 903 839 901
f 840 902 837
f 840 904 902
f 903 842 839
f 905 842 903
f 843 907 906
f 904 843 906
f 840 843 904
f 907 908 906
f 910 844 909
f 844 905 909
f 844 842 905
f 912 911 910
f 912 910 909
f 913 911 912
f 915 914 907
f 843 915 907
f 845 915 843
f 907 914 908
f 916 847 910
f 910 847 844
f 911 918 917
f 916 911 917
f 910 911 916
f 918 911 913
f 850 915 845
f 850 919 915
f 920 851 916
f 916 851 847
f 916 917 921
f 922 916 921
f 920 916 922
f 923 922 921
f 926 925 924
f 854 853 924
f 925 854 924
f 927 854 925
f 854 928 855
f 927 928 854
f 930 929 856
f 855 930 856
f 928 930 855
f 932 931 929
f 932 929 930
f 932 919 931
f 919 858 931
f 919 850 858
f 920 859 851
f 859 920 861
f 920 933 861
f 920 922 933
f 934 862 863
f 922 934 863
f 933 922 863
f 934 922 923
f 924 864 926
f 864 934 926
f 864 862 934
f 864 924 853
f 929 865 856
f 865 929 866
f 866 929 931
f 866 931 858
f 933 867 861
f 867 933 863
f 935 874 875
f 876 936 875
f 875 936 935
f 877 936 876
f 937 880 935
f 935 880 874
f 936 939 938
f 937 936 938
f 935 936 937
f 941 939 940
f 940 939 881
f 939 936 881
f 936 877 881
f 882 940 881
f 942 884 885
f 880 937 885
f 937 942 885
f 937 943 942
f 937 938 944
f 937 944 943
f 945 941 940
f 947 945 946
f 946 945 886
f 945 940 886
f 940 882 886
f 888 946 886
f 942 889 884
f 889 942 891
f 942 948 891
f 942 943 948
f 943 944 949
f 943 949 948
f 950 947 946
f 950 946 888
f 892 950 888
f 951 950 892
f 892 894 951
f 951 894 952
f 953 895 896
f 891 948 896
f 948 953 896
f 948 954 953
f 948 949 955
f 948 955 954
f 956 952 894
f 956 894 897
f 958 956 957
f 956 898 957
f 956 897 898
f 899 957 898
f 959 901 953
f 953 901 895
f 960 953 954
f 959 953 960
f 954 955 961
f 954 961 960
f 962 958 957
f 957 899 962
f 899 963 962
f 899 902 963
f 964 903 959
f 959 903 901
f 960 966 965
f 964 960 965
f 959 960 964
f 966 960 961
f 904 963 902
f 904 967 963
f 968 905 964
f 964 905 903
f 964 965 969
f 964 969 968
f 972 971 970
f 974 973 970
f 974 970 971
f 975 973 974
f 976 967 904
f 976 904 906
f 906 908 976
f 976 908 977
f 968 909 905
f 969 978 968
f 978 909 968
f 978 912 909
f 980 979 913
f 912 980 913
f 978 980 912
f 982 981 979
f 982 979 980
f 981 982 972
f 970 981 972
f 983 981 970
f 984 970 973
f 983 970 984
f 973 975 985
f 973 985 984
f 915 986 914
f 986 987 914
f 987 908 914
f 987 977 908
f 988 917 918
f 913 979 918
f 979 988 918
f 979 989 988
f 990 979 981
f 989 979 990
f 991 981 983
f 990 981 991
f 992 983 984
f 991 983 992
f 984 985 993
f 994 984 993
f 992 984 994
f 996 995 994
f 996 994 993
f 996 997 986
f 919 996 986
f 915 919 986
f 995 996 919
f 986 997 987
f 988 921 917
f 921 988 923
f 988 998 923
f 988 989 998
f 926 998 925
f 998 990 925
f 998 989 990
f 925 990 927
f 927 990 991
f 927 991 928
f 928 991 992
f 928 992 930
f 930 992 994
f 930 994 932
f 932 994 995
f 932 995 919
f 998 934 923
f 934 998 926
f 999 938 939
f 941 999 939
f 1000 944 999
f 999 944 938
f 945 1001 941
f 1001 999 941
f 1001 1000 999
f 947 1001 945
f 1002 949 1000
f 1000 949 944
f 1003 1000 1001
f 1002 1000 1003
f 950 1004 947
f 1004 1001 947
f 1004 1003 1001
f 951 1005 950
f 950 1005 1004
f 952 1005 951
f 1006 955 1002
f 1002 955 949
f 1007 1002 1003
f 1006 1002 1007
f 1008 1003 1004
f 1007 1003 1008
f 1009 1004 1005
f 1008 1004 1009
f 956 1010 952
f 1010 1005 952
f 1010 1009 1005
f 958 1010 956
f 1011 961 1006
f 1006 961 955
f 1012 1006 1007
f 1011 1006 1012
f 1013 1007 1008
f 1012 1007 1013
f 1014 1008 1009
f 1013 1008 1014
f 1015 1009 1010
f 1014 1009 1015
f 962 1016 958
f 1016 1010 958
f 1016 1015 1010
f 963 1016 962
f 1017 965 966
f 961 1011 966
f 1011 1017 966
f 1011 1018 1017
f 1019 1011 1012
f 1018 1011 1019
f 1020 1012 1013
f 1019 1012 1020
f 1021 1013 1014
f 1020 1013 1021
f 1022 1014 1015
f 1021 1014 1022
f 1023 1015 1016
f 1022 1015 1023
f 967 1023 963
f 963 1023 1016
f 1024 969 1017
f 1017 969 965
f 1025 1017 1018
f 1024 1017 1025
f 1026 1018 1019
f 1025 1018 1026
f 972 1026 971
f 1026 1020 971
f 1026 1019 1020
f 971 1020 974
f 974 1020 1021
f 974 1021 975
f 1021 1027 975
f 1021 1022 1027
f 1023 1029 1028
f 1027 1023 1028
f 1022 1023 1027
f 1029 1023 967
f 976 1029 967
f 1030 1029 976
f 976 977 1030
f 1030 977 1031
f 1024 978 969
f 978 1024 980
f 980 1024 1025
f 980 1025 982
f 982 1025 1026
f 982 1026 972
f 1032 985 1027
f 1027 985 975
f 1027 1028 1033
f 1034 1027 1033
f 1032 1027 1034
f 1036 1035 1034
f 1036 1034 1033
f 1036 1031 1035
f 1031 987 1035
f 1031 977 987
f 1032 993 985
f 993 1032 996
f 996 1032 1034
f 996 1034 997
f 997 1034 1035
f 997 1035 987
f 1037 1028 1029
f 1030 1038 1029
f 1029 1038 1037
f 1031 1038 1030
f 1037 1033 1028
f 1033 1037 1036
f 1036 1037 1038
f 1036 1038 1031
