v -50.2 19.0 8.0
v -50.0 19.0 7.6
v -50.0 18.7 8.0
v -50.0 18.8 9.0
v -50.2 19.0 9.0
v -50.0 19.0 9.2
v -50.2 20.0 6.0
v -50.0 20.0 5.7
v -50.0 19.7 6.0
v -50.0 19.4 7.0
v -50.4 20.0 7.0
v -50.5 20.0 8.0
v -50.3 20.0 9.0
v -50.0 20.0 9.3
v -50.4 21.0 6.0
v -50.0 21.0 5.4
v -50.4 21.0 7.0
v -50.3 21.0 8.0
v -50.2 21.0 9.0
v -50.0 21.0 9.2
v -50.1 22.0 5.0
v -50.0 22.0 4.9
v -50.0 21.9 5.0
v -50.2 22.0 6.0
v -50.0 22.0 6.2
v -50.0 21.4 7.0
v -50.0 21.3 8.0
v -50.0 21.2 9.0
v -50.0 22.1 5.0
v -50.0 22.2 6.0
v -49.2 18.0 7.0
v -49.0 18.0 6.7
v -49.0 17.8 7.0
v -49.0 18.0 7.3
v -49.3 19.0 5.0
v -49.0 19.0 4.7
v -49.0 18.7 5.0
v -49.0 18.4 6.0
v -49.5 19.0 6.0
v -49.7 19.0 7.0
v -49.0 18.3 8.0
v -49.0 18.8 9.0
v -49.0 19.0 9.2
v -49.5 20.0 5.0
v -49.0 20.0 4.3
v -49.0 20.0 9.4
v -49.3 21.0 3.0
v -49.0 21.0 2.5
v -49.0 20.6 3.0
v -49.0 20.4 4.0
v -49.4 21.0 4.0
v -49.7 21.0 5.0
v -49.0 21.0 9.2
v -49.1 22.0 2.0
v -49.0 22.0 1.9
v -49.0 21.9 2.0
v -49.3 22.0 3.0
v -49.4 22.0 4.0
v -49.0 21.8 7.0
v -49.0 22.0 6.7
v -49.0 21.5 8.0
v -49.0 21.2 9.0
v -49.0 22.1 2.0
v -49.0 22.3 3.0
v -49.0 22.4 4.0
v -49.0 22.5 5.0
v -49.0 22.5 6.0
v -48.2 17.0 6.0
v -48.0 17.0 5.7
v -48.0 16.8 6.0
v -48.0 16.7 7.0
v -48.3 17.0 7.0
v -48.0 17.0 7.4
v -48.4 18.0 5.0
v -48.0 18.0 4.5
v -48.0 17.6 5.0
v -48.7 18.0 6.0
v -48.0 17.6 8.0
v -48.5 18.0 8.0
v -48.0 18.0 8.3
v -48.1 19.0 0.0
v -48.0 19.0 -0.1
v -48.0 18.9 0.0
v -48.0 18.7 1.0
v -48.2 19.0 1.0
v -48.0 19.0 1.5
v -48.4 19.0 4.0
v -48.0 19.0 3.4
v -48.0 18.5 4.0
v -48.0 19.0 8.6
v -48.7 19.0 9.0
v -48.0 19.2 0.0
v -48.4 20.0 1.0
v -48.0 20.0 0.4
v -48.0 19.4 2.0
v -48.4 20.0 2.0
v -48.0 19.4 3.0
v -48.5 20.0 3.0
v -48.7 20.0 4.0
v -48.5 20.0 9.0
v -48.0 20.0 8.6
v -48.4 21.0 1.0
v -48.0 21.0 0.5
v -48.7 21.0 2.0
v -48.7 21.0 9.0
v -48.0 21.0 8.5
v -48.2 22.0 1.0
v -48.0 22.0 0.8
v -48.7 22.0 7.0
v -48.0 22.0 7.6
v -48.0 21.6 8.0
v -48.0 22.2 1.0
v -48.0 22.5 2.0
v -48.0 22.5 3.0
v -48.0 22.6 4.0
v -48.0 22.7 5.0
v -48.3 23.0 6.0
v -48.0 23.0 5.5
v -48.2 23.0 7.0
v -48.0 23.0 7.2
v -48.0 23.3 6.0
v -48.0 23.2 7.0
v -47.1 12.0 5.0
v -47.0 12.0 4.9
v -47.0 11.9 5.0
v -47.0 11.5 6.0
v -47.8 12.0 6.0
v -47.0 11.6 7.0
v -47.4 12.0 7.0
v -47.0 12.0 7.6
v -47.0 12.2 5.0
v -47.3 13.0 6.0
v -47.0 13.0 5.5
v -47.4 13.0 7.0
v -47.0 12.4 8.0
v -47.7 13.0 8.0
v -47.0 12.7 9.0
v -47.3 13.0 9.0
v -47.0 13.0 9.4
v -47.0 13.4 6.0
v -47.0 13.5 7.0
v -47.0 13.6 8.0
v -47.2 14.0 9.0
v -47.0 14.0 8.6
v -47.0 14.0 9.5
v -47.0 14.2 9.0
v -47.0 17.0 5.3
v -47.0 16.5 6.0
v -47.0 16.4 7.0
v -47.0 16.6 8.0
v -47.4 17.0 8.0
v -47.0 17.0 8.4
v -47.3 18.0 -2.0
v -47.0 18.0 -2.4
v -47.0 17.7 -2.0
v -47.0 17.5 -1.0
v -47.4 18.0 -1.0
v -47.0 17.5 0.0
v -47.5 18.0 0.0
v -47.0 17.5 1.0
v -47.5 18.0 1.0
v -47.0 17.5 2.0
v -47.4 18.0 2.0
v -47.0 17.5 3.0
v -47.4 18.0 3.0
v -47.0 17.5 4.0
v -47.6 18.0 4.0
v -47.0 17.3 5.0
v -47.0 18.0 8.6
v -47.2 19.0 -4.0
v -47.0 19.0 -4.2
v -47.0 18.8 -4.0
v -47.0 18.5 -3.0
v -47.4 19.0 -3.0
v -47.5 19.0 -2.0
v -47.5 19.0 -1.0
v -47.7 19.0 2.0
v -47.7 19.0 3.0
v -47.0 19.0 8.5
v -47.4 20.0 -4.0
v -47.0 20.0 -4.8
v -47.5 20.0 -3.0
v -47.3 20.0 -2.0
v -47.0 20.0 -1.2
v -47.0 19.8 -1.0
v -47.6 20.0 0.0
v -47.0 20.0 -0.9
v -47.0 20.0 8.5
v -47.2 21.0 -4.0
v -47.0 21.0 -4.3
v -47.3 21.0 -3.0
v -47.0 21.0 -2.5
v -47.0 20.5 -2.0
v -47.4 21.0 0.0
v -47.0 21.0 -0.4
v -47.0 21.0 8.5
v -47.0 21.3 -4.0
v -47.0 21.5 -3.0
v -47.0 21.4 0.0
v -47.0 22.0 0.5
v -47.5 22.0 8.0
v -47.0 22.0 8.3
v -47.6 23.0 -3.0
v -47.0 23.0 -3.1
v -47.0 22.7 -3.0
v -47.0 22.9 -2.0
v -47.1 23.0 -2.0
v -47.0 23.0 -1.9
v -47.0 22.4 1.0
v -47.0 22.5 2.0
v -47.0 22.7 3.0
v -47.4 23.0 4.0
v -47.0 23.0 3.5
v -47.6 23.0 5.0
v -47.0 22.4 8.0
v -47.0 23.0 7.4
v -47.0 23.1 -3.0
v -47.0 23.0 -2.0
v -47.0 23.3 4.0
v -47.0 23.4 5.0
v -47.0 23.5 6.0
v -47.0 23.4 7.0
v -46.2 11.0 0.0
v -46.0 11.0 -0.3
v -46.0 10.8 0.0
v -46.0 10.7 1.0
v -46.3 11.0 1.0
v -46.0 11.0 1.4
v -46.3 11.0 5.0
v -46.0 11.0 4.6
v -46.0 10.7 5.0
v -46.0 10.6 6.0
v -46.5 11.0 6.0
v -46.0 10.6 7.0
v -46.4 11.0 7.0
v -46.0 10.8 8.0
v -46.3 11.0 8.0
v -46.0 11.0 8.4
v -46.5 12.0 0.0
v -46.0 12.0 -0.5
v -46.9 12.0 1.0
v -46.0 11.4 2.0
v -46.5 12.0 2.0
v -46.0 11.6 3.0
v -46.3 12.0 3.0
v -46.0 12.0 3.8
v -46.0 12.0 4.1
v -46.7 12.0 8.0
v -46.0 11.6 9.0
v -46.4 12.0 9.0
v -46.0 12.0 9.3
v -46.4 13.0 0.0
v -46.0 13.0 -0.5
v -46.6 13.0 1.0
v -46.5 13.0 2.0
v -46.4 13.0 3.0
v -46.0 12.2 4.0
v -46.3 13.0 4.0
v -46.7 13.0 5.0
v -46.0 13.0 10.0
v -46.4 14.0 0.0
v -46.0 14.0 -0.6
v -46.5 14.0 1.0
v -46.3 14.0 2.0
v -46.0 14.0 2.5
v -46.0 13.6 3.0
v -46.0 13.5 4.0
v -46.3 14.0 5.0
v -46.0 14.0 4.5
v -46.6 14.0 6.0
v -46.6 14.0 7.0
v -46.7 14.0 8.0
v -46.0 14.0 9.7
v -46.3 15.0 -1.0
v -46.0 15.0 -1.5
v -46.0 14.5 -1.0
v -46.5 15.0 0.0
v -46.4 15.0 1.0
v -46.0 15.0 1.6
v -46.0 14.5 2.0
v -46.0 14.5 5.0
v -46.4 15.0 6.0
v -46.0 15.0 5.4
v -46.5 15.0 7.0
v -46.4 15.0 8.0
v -46.0 14.8 9.0
v -46.0 15.0 8.8
v -46.2 16.0 -2.0
v -46.0 16.0 -2.2
v -46.0 15.6 -2.0
v -46.5 16.0 -1.0
v -46.5 16.0 0.0
v -46.4 16.0 1.0
v -46.0 16.0 1.7
v -46.5 16.0 6.0
v -46.0 16.0 5.3
v -46.6 16.0 7.0
v -46.6 16.0 8.0
v -46.0 15.2 9.0
v -46.3 16.0 9.0
v -46.0 16.0 9.4
v -46.4 17.0 -2.0
v -46.0 17.0 -2.4
v -46.6 17.0 -1.0
v -46.6 17.0 0.0
v -46.6 17.0 1.0
v -46.0 16.3 2.0
v -46.5 17.0 2.0
v -46.0 16.5 3.0
v -46.5 17.0 3.0
v -46.0 16.6 4.0
v -46.4 17.0 4.0
v -46.0 16.3 5.0
v -46.7 17.0 5.0
v -46.5 17.0 9.0
v -46.0 17.0 9.5
v -46.3 18.0 -3.0
v -46.0 18.0 -3.2
v -46.0 17.8 -3.0
v -46.4 18.0 9.0
v -46.0 18.0 9.3
v -46.0 19.0 -4.3
v -46.0 18.7 -4.0
v -46.0 18.5 9.0
v -46.0 19.0 8.7
v -46.0 20.0 -4.6
v -46.9 20.0 -1.0
v -46.0 20.0 8.6
v -46.0 21.0 -4.5
v -46.7 21.0 -2.0
v -46.5 21.0 -1.0
v -46.0 21.0 8.5
v -46.4 22.0 -4.0
v -46.0 22.0 -4.3
v -46.7 22.0 -3.0
v -46.5 22.0 -2.0
v -46.0 22.0 -1.2
v -46.0 21.8 -1.0
v -46.0 21.8 0.0
v -46.0 22.0 0.3
v -46.0 22.0 8.4
v -46.0 22.4 -4.0
v -46.0 23.0 -3.5
v -46.0 23.0 -1.1
v -46.0 22.4 1.0
v -46.0 22.6 2.0
v -46.3 23.0 3.0
v -46.0 23.0 2.8
v -46.0 22.4 8.0
v -46.0 23.0 7.4
v -46.0 23.4 -3.0
v -46.0 23.4 -2.0
v -46.0 23.2 3.0
v -46.0 23.5 4.0
v -46.0 23.5 5.0
v -46.0 23.5 6.0
v -46.0 23.3 7.0
v -45.1 10.0 5.0
v -45.0 10.0 4.9
v -45.0 9.9 5.0
v -45.0 10.0 5.1
v -45.3 11.0 -1.0
v -45.0 11.0 -1.2
v -45.0 10.8 -1.0
v -45.0 10.6 0.0
v -45.0 10.5 1.0
v -45.0 10.6 2.0
v -45.6 11.0 2.0
v -45.0 10.6 3.0
v -45.5 11.0 3.0
v -45.0 10.5 4.0
v -45.5 11.0 4.0
v -45.0 10.4 6.0
v -45.0 10.5 7.0
v -45.0 10.5 8.0
v -45.0 10.7 9.0
v -45.4 11.0 9.0
v -45.0 11.0 9.3
v -45.0 12.0 -2.0
v -45.0 12.0 -2.0
v -45.0 12.0 -2.0
v -45.6 12.0 -1.0
v -45.9 12.0 4.0
v -45.0 12.0 9.6
v -45.2 13.0 -2.0
v -45.0 13.0 -2.2
v -45.6 13.0 -1.0
v -45.0 13.0 9.9
v -45.2 14.0 -2.0
v -45.0 14.0 -2.2
v -45.7 14.0 -1.0
v -45.7 14.0 3.0
v -45.7 14.0 4.0
v -45.0 13.3 10.0
v -45.6 14.0 10.0
v -45.0 14.0 10.4
v -45.4 15.0 -2.0
v -45.0 15.0 -2.3
v -45.7 15.0 2.0
v -45.5 15.0 3.0
v -45.5 15.0 4.0
v -45.7 15.0 5.0
v -45.9 15.0 9.0
v -45.4 15.0 10.0
v -45.0 15.0 10.5
v -45.0 16.0 -2.4
v -45.8 16.0 2.0
v -45.6 16.0 3.0
v -45.5 16.0 4.0
v -45.7 16.0 5.0
v -45.5 16.0 10.0
v -45.0 16.0 10.5
v -45.0 17.0 -2.3
v -45.4 17.0 10.0
v -45.0 17.0 10.4
v -45.8 18.0 -3.0
v -45.0 18.0 -2.2
v -45.0 17.5 10.0
v -45.0 18.0 9.7
v -45.6 19.0 -4.0
v -45.0 19.0 -3.6
v -45.0 18.5 -3.0
v -45.6 19.0 9.0
v -45.0 19.0 9.6
v -45.0 20.0 -4.3
v -45.0 19.6 -4.0
v -45.0 19.8 9.0
v -45.0 20.0 8.9
v -45.0 19.9 10.0
v -45.1 20.0 10.0
v -45.0 20.0 9.7
v -45.0 20.0 10.1
v -45.0 21.0 -4.4
v -45.0 21.0 8.6
v -45.0 20.1 10.0
v -45.0 22.0 -4.4
v -45.8 22.0 -1.0
v -45.8 22.0 0.0
v -45.0 22.0 8.4
v -45.1 23.0 -4.0
v -45.0 23.0 -4.1
v -45.0 22.8 -1.0
v -45.0 23.0 -1.3
v -45.0 22.9 0.0
v -45.0 22.6 1.0
v -45.0 22.5 2.0
v -45.7 23.0 3.0
v -45.0 22.7 3.0
v -45.0 23.0 3.5
v -45.5 23.0 7.0
v -45.0 22.7 7.0
v -45.0 23.0 6.5
v -45.0 22.4 8.0
v -45.0 23.1 -4.0
v -45.0 23.5 -3.0
v -45.0 23.5 -2.0
v -45.0 23.3 4.0
v -45.0 23.4 5.0
v -45.0 23.3 6.0
v -44.0 10.0 4.9
v -44.0 10.0 5.0
v -44.0 10.0 5.1
v -44.0 11.0 -1.0
v -44.0 11.0 -1.0
v -44.3 11.0 0.0
v -44.0 11.0 -0.9
v -44.0 11.0 0.4
v -44.0 10.7 1.0
v -44.0 10.5 2.0
v -44.0 10.5 3.0
v -44.0 10.4 4.0
v -44.0 10.4 6.0
v -44.0 10.5 7.0
v -44.0 10.5 8.0
v -44.0 10.5 9.0
v -44.0 10.7 10.0
v -44.3 11.0 10.0
v -44.0 11.0 10.4
v -45.0 12.0 -2.0
v -44.0 12.0 -1.4
v -44.0 11.3 0.0
v -44.6 12.0 10.0
v -44.0 11.7 11.0
v -44.2 12.0 11.0
v -44.0 12.0 11.2
v -44.8 13.0 -2.0
v -44.0 13.0 -1.5
v -44.8 13.0 10.0
v -44.0 13.0 10.8
v -44.0 12.5 11.0
v -44.7 14.0 -2.0
v -44.0 14.0 -1.5
v -44.0 13.3 11.0
v -44.4 14.0 11.0
v -44.0 14.0 11.3
v -44.5 15.0 -2.0
v -44.0 15.0 -1.7
v -44.5 15.0 11.0
v -44.0 15.0 11.5
v -44.0 16.0 -2.2
v -44.0 15.7 -2.0
v -44.5 16.0 11.0
v -44.0 16.0 11.5
v -44.0 16.4 -2.0
v -44.3 17.0 -2.0
v -44.0 17.0 -1.8
v -44.4 17.0 11.0
v -44.0 17.0 11.4
v -44.0 18.0 -2.2
v -44.0 17.5 -2.0
v -44.7 18.0 10.0
v -44.0 18.0 10.7
v -44.0 17.5 11.0
v -44.0 19.0 -3.3
v -44.0 18.7 -3.0
v -44.6 19.0 10.0
v -44.0 19.0 10.6
v -44.6 20.0 -4.0
v -44.0 20.0 -3.6
v -44.9 20.0 9.0
v -44.0 19.9 11.0
v -44.1 20.0 11.0
v -44.0 20.0 11.0
v -44.5 21.0 -4.0
v -44.0 21.0 -3.6
v -44.0 20.9 9.0
v -44.0 21.0 8.9
v -44.0 20.5 10.0
v -44.0 20.0 11.0
v -44.6 22.0 -4.0
v -44.0 22.0 -3.5
v -44.0 21.6 9.0
v -44.1 22.0 9.0
v -44.0 22.0 9.1
v -44.9 23.0 -4.0
v -44.0 23.0 -3.3
v -44.0 22.8 -1.0
v -44.0 23.0 -1.3
v -44.0 22.6 0.0
v -44.0 22.5 1.0
v -44.0 22.6 2.0
v -44.0 22.5 3.0
v -44.6 23.0 4.0
v -44.0 22.6 4.0
v -44.4 23.0 5.0
v -44.0 22.7 5.0
v -44.5 23.0 6.0
v -44.0 22.7 6.0
v -44.0 22.5 7.0
v -44.0 22.5 8.0
v -44.0 22.1 9.0
v -44.0 23.3 -3.0
v -44.0 24.0 -2.0
v -44.0 24.0 -2.0
v -44.0 24.0 -2.0
v -44.0 24.0 -2.0
v -44.0 10.0 5.0
v -44.0 11.0 -1.0
v -43.7 11.0 1.0
v -43.0 11.0 1.7
v -43.0 10.8 2.0
v -43.0 10.6 3.0
v -43.0 10.7 4.0
v -43.1 11.0 5.0
v -43.0 11.0 4.7
v -43.0 10.7 6.0
v -43.0 11.0 5.2
v -43.0 10.5 7.0
v -43.0 10.4 8.0
v -43.0 10.5 9.0
v -43.0 10.6 10.0
v -43.0 10.8 11.0
v -43.4 11.0 11.0
v -43.0 11.0 11.9
v -43.6 12.0 -1.0
v -43.5 12.0 0.0
v -43.3 12.0 1.0
v -43.0 12.0 1.4
v -43.0 11.1 5.0
v -43.0 11.0 12.0
v -43.4 12.0 12.0
v -43.0 12.0 12.4
v -43.5 13.0 -1.0
v -43.0 13.0 -0.4
v -43.0 12.6 0.0
v -43.0 12.3 1.0
v -43.8 13.0 11.0
v -43.3 13.0 12.0
v -43.0 13.0 12.3
v -43.4 14.0 -1.0
v -43.0 14.0 -0.7
v -43.0 13.7 12.0
v -43.0 14.0 11.8
v -43.0 15.0 -1.3
v -43.0 14.5 -1.0
v -43.0 14.3 12.0
v -43.4 15.0 12.0
v -43.0 15.0 12.4
v -43.8 16.0 -2.0
v -43.0 16.0 -1.4
v -43.6 16.0 12.0
v -43.0 15.7 13.0
v -43.2 16.0 13.0
v -43.0 16.0 13.2
v -43.0 17.0 -1.4
v -43.6 17.0 12.0
v -43.2 17.0 13.0
v -43.0 17.0 13.2
v -43.7 18.0 -2.0
v -43.0 18.0 -1.5
v -43.7 18.0 11.0
v -43.3 18.0 12.0
v -43.0 18.0 12.3
v -43.0 17.3 13.0
v -43.7 19.0 -3.0
v -43.3 19.0 -2.0
v -43.0 19.0 -1.7
v -43.6 19.0 11.0
v -43.0 19.0 11.6
v -43.0 18.4 12.0
v -43.0 20.0 -3.2
v -43.0 19.7 -3.0
v -43.0 19.3 -2.0
v -43.0 20.0 11.2
v -43.0 21.0 -3.3
v -43.9 21.0 9.0
v -43.0 21.0 9.5
v -43.0 20.6 10.0
v -43.0 20.2 11.0
v -43.0 21.5 -3.0
v -43.4 22.0 -3.0
v -43.0 22.0 -2.7
v -43.0 22.0 9.2
v -43.6 23.0 -3.0
v -43.0 23.0 -2.6
v -43.6 23.0 -1.0
v -43.0 23.0 -0.4
v -43.0 22.7 0.0
v -43.0 22.7 1.0
v -43.0 23.0 2.0
v -43.0 22.7 3.0
v -43.0 22.6 4.0
v -43.3 23.0 5.0
v -43.0 23.0 4.8
v -43.4 23.0 6.0
v -43.0 23.0 6.3
v -43.0 22.6 7.0
v -43.0 22.5 8.0
v -43.0 22.2 9.0
v -43.0 24.0 -2.2
v -43.0 23.4 -1.0
v -43.0 24.0 -1.8
v -43.0 23.1 5.0
v -43.0 23.2 6.0
v -43.0 24.2 -2.0
v -42.8 11.0 2.0
v -42.6 11.0 3.0
v -42.7 11.0 4.0
v -42.5 11.0 6.0
v -42.0 11.0 6.4
v -42.0 10.5 7.0
v -42.0 10.1 8.0
v -42.0 10.6 9.0
v -42.4 11.0 10.0
v -42.0 11.0 9.6
v -42.6 11.0 11.0
v -42.6 12.0 2.0
v -42.3 12.0 3.0
v -42.0 12.0 3.4
v -42.0 11.6 4.0
v -42.0 11.5 5.0
v -42.0 11.3 6.0
v -42.0 11.3 10.0
v -42.0 11.4 11.0
v -42.0 11.4 12.0
v -42.0 11.8 13.0
v -42.3 12.0 13.0
v -42.0 12.0 13.2
v -42.7 13.0 0.0
v -42.5 13.0 1.0
v -42.2 13.0 2.0
v -42.0 13.0 2.3
v -42.0 12.3 3.0
v -42.3 13.0 13.0
v -42.0 13.0 13.3
v -42.0 14.0 -0.2
v -42.0 13.7 0.0
v -42.0 13.5 1.0
v -42.0 13.2 2.0
v -42.8 14.0 12.0
v -42.0 14.0 12.6
v -42.0 13.4 13.0
v -42.6 15.0 -1.0
v -42.0 15.0 -0.4
v -42.0 15.0 12.6
v -42.5 16.0 -1.0
v -42.0 16.0 -0.4
v -42.0 15.5 13.0
v -42.0 16.0 13.4
v -42.6 17.0 -1.0
v -42.0 16.7 0.0
v -42.1 17.0 0.0
v -42.0 17.0 0.2
v -42.0 17.0 13.4
v -42.5 18.0 -1.0
v -42.0 18.0 -0.4
v -42.0 17.3 0.0
v -42.0 17.6 13.0
v -42.0 18.0 12.7
v -42.4 19.0 -1.0
v -42.0 19.0 -0.6
v -42.4 19.0 12.0
v -42.0 19.0 12.3
v -42.8 20.0 -3.0
v -42.4 20.0 -2.0
v -42.0 20.0 -1.5
v -42.0 19.5 -1.0
v -42.6 20.0 11.0
v -42.0 19.7 11.0
v -42.0 20.0 10.6
v -42.0 19.3 12.0
v -42.7 21.0 -3.0
v -42.0 21.0 -2.3
v -42.0 20.6 -2.0
v -42.0 20.5 10.0
v -42.0 21.0 9.5
v -42.0 22.0 -2.4
v -42.6 22.0 9.0
v -42.0 21.6 9.0
v -42.0 22.0 8.6
v -42.0 23.0 -2.4
v -42.6 23.0 0.0
v -42.5 23.0 1.0
v -42.0 23.0 1.9
v -42.0 23.0 2.0
v -42.1 23.0 3.0
v -42.0 23.0 2.5
v -42.0 23.0 3.1
v -42.0 22.7 4.0
v -42.5 23.0 5.0
v -42.0 22.9 5.0
v -42.0 23.0 5.3
v -42.0 22.6 7.0
v -42.0 23.0 6.4
v -42.0 22.4 8.0
v -42.0 24.0 -2.0
v -42.0 23.6 -1.0
v -42.0 24.0 -2.0
v -42.0 23.4 0.0
v -42.0 23.3 1.0
v -42.0 23.0 3.0
v -42.0 23.3 6.0
v -42.0 24.0 -2.0
v -41.0 11.0 6.6
v -41.0 10.7 7.0
v -41.0 10.5 8.0
v -41.3 11.0 9.0
v -41.0 11.0 8.8
v -41.5 12.0 4.0
v -41.0 12.0 4.6
v -41.0 11.8 5.0
v -41.0 11.5 6.0
v -41.0 11.1 9.0
v -41.0 11.5 10.0
v -41.0 11.5 11.0
v -41.0 11.5 12.0
v -41.0 11.6 13.0
v -41.0 12.0 13.4
v -41.0 13.0 2.7
v -41.0 12.8 3.0
v -41.0 12.4 4.0
v -41.0 13.0 13.6
v -41.8 14.0 0.0
v -41.5 14.0 1.0
v -41.0 14.0 1.7
v -41.0 13.7 2.0
v -41.5 14.0 13.0
v -41.0 14.0 13.4
v -41.6 15.0 0.0
v -41.3 15.0 1.0
v -41.0 15.0 1.4
v -41.0 14.9 13.0
v -41.0 15.0 12.9
v -41.6 16.0 0.0
v -41.0 16.0 0.8
v -41.0 15.7 1.0
v -41.0 15.1 13.0
v -41.0 16.0 13.4
v -41.4 17.0 1.0
v -41.0 16.3 1.0
v -41.0 17.0 1.4
v -41.0 17.0 13.5
v -41.7 18.0 0.0
v -41.4 18.0 1.0
v -41.0 18.0 1.5
v -41.3 18.0 13.0
v -41.0 18.0 13.2
v -41.5 19.0 0.0
v -41.2 19.0 1.0
v -41.0 19.0 1.3
v -41.0 18.2 13.0
v -41.0 19.0 12.4
v -41.6 20.0 -1.0
v -41.0 20.0 -0.3
v -41.0 19.6 0.0
v -41.0 19.2 1.0
v -41.0 19.6 11.0
v -41.0 20.0 10.4
v -41.0 19.4 12.0
v -41.7 21.0 -2.0
v -41.3 21.0 -1.0
v -41.0 21.0 -0.6
v -41.0 20.4 10.0
v -41.0 21.0 9.5
v -41.5 22.0 -2.0
v -41.0 22.0 -1.5
v -41.0 21.5 -1.0
v -41.0 21.6 9.0
v -41.0 22.0 8.6
v -41.0 23.0 -2.0
v -41.0 22.9 -2.0
v -41.9 23.0 2.0
v -41.0 22.8 3.0
v -41.0 23.0 2.6
v -41.8 23.0 3.0
v -41.3 23.0 4.0
v -41.0 23.0 3.6
v -41.8 23.0 5.0
v -41.0 22.7 7.0
v -41.0 23.0 6.6
v -41.0 22.4 8.0
v -41.0 23.1 -2.0
v -42.0 24.0 -2.0
v -41.0 23.4 -1.0
v -41.0 23.5 0.0
v -41.0 23.5 1.0
v -41.0 23.3 2.0
v -41.0 23.2 4.0
v -41.0 23.4 5.0
v -41.0 23.4 6.0
v -40.6 11.0 7.0
v -40.0 11.0 7.6
v -40.0 10.7 8.0
v -40.0 10.7 9.0
v -40.7 11.0 9.0
v -40.0 11.0 9.5
v -40.8 12.0 5.0
v -40.5 12.0 6.0
v -40.0 12.0 6.6
v -40.0 11.6 7.0
v -40.0 11.3 10.0
v -40.0 11.5 11.0
v -40.0 11.6 12.0
v -40.0 11.5 13.0
v -40.0 11.8 14.0
v -40.3 12.0 14.0
v -40.0 12.0 14.2
v -40.8 13.0 3.0
v -40.6 13.0 4.0
v -40.4 13.0 5.0
v -40.2 13.0 6.0
v -40.0 13.0 6.3
v -40.5 13.0 14.0
v -40.0 13.0 14.4
v -40.8 14.0 2.0
v -40.5 14.0 3.0
v -40.4 14.0 4.0
v -40.0 14.0 4.6
v -40.0 13.6 5.0
v -40.0 13.3 6.0
v -40.4 14.0 14.0
v -40.0 14.0 14.4
v -40.6 15.0 2.0
v -40.5 15.0 3.0
v -40.4 15.0 4.0
v -40.0 15.0 4.5
v -40.9 15.0 13.0
v -40.3 15.0 14.0
v -40.0 15.0 14.3
v -40.9 16.0 1.0
v -40.5 16.0 2.0
v -40.5 16.0 3.0
v -40.4 16.0 4.0
v -40.0 16.0 4.4
v -40.0 15.5 14.0
v -40.0 16.0 13.7
v -40.6 17.0 2.0
v -40.5 17.0 3.0
v -40.2 17.0 4.0
v -40.0 17.0 4.3
v -40.0 17.0 13.5
v -40.6 18.0 2.0
v -40.3 18.0 3.0
v -40.0 18.0 3.3
v -40.0 17.3 4.0
v -40.4 18.0 13.0
v -40.0 17.8 13.0
v -40.0 18.0 12.9
v -40.5 19.0 2.0
v -40.0 19.0 2.6
v -40.0 18.4 3.0
v -40.0 19.0 12.4
v -40.7 20.0 0.0
v -40.0 20.0 0.8
v -40.0 19.9 1.0
v -40.0 20.0 2.0
v -40.0 20.0 1.8
v -40.0 20.0 2.0
v -40.1 20.0 10.0
v -40.0 19.9 10.0
v -40.0 20.0 9.9
v -40.0 19.5 11.0
v -40.0 19.4 12.0
v -40.5 21.0 0.0
v -40.0 21.0 0.4
v -40.0 20.0 2.0
v -40.0 21.0 9.6
v -40.7 22.0 -1.0
v -40.3 22.0 0.0
v -40.0 22.0 0.3
v -40.5 22.0 9.0
v -40.0 22.0 9.3
v -41.0 23.0 -2.0
v -40.6 23.0 -1.0
v -40.0 23.0 -0.1
v -40.0 22.9 0.0
v -40.0 22.8 3.0
v -40.0 23.0 2.6
v -40.7 23.0 4.0
v -40.0 22.7 4.0
v -40.0 23.0 4.5
v -40.5 23.0 7.0
v -40.0 23.0 7.4
v -40.0 22.6 8.0
v -40.0 22.3 9.0
v -40.0 23.1 0.0
v -40.0 23.4 1.0
v -40.0 23.4 2.0
v -40.0 23.3 5.0
v -40.0 23.5 6.0
v -40.0 23.3 7.0
v -39.6 11.0 8.0
v -39.0 11.0 8.6
v -39.0 10.8 9.0
v -39.0 10.9 10.0
v -39.1 11.0 10.0
v -39.0 11.0 10.1
v -39.6 12.0 7.0
v -39.0 12.0 7.6
v -39.0 11.6 8.0
v -39.0 11.6 11.0
v -39.2 12.0 12.0
v -39.0 12.0 11.7
v -39.0 12.0 12.3
v -39.0 11.7 13.0
v -39.0 11.8 14.0
v -39.0 12.0 14.2
v -39.4 13.0 7.0
v -39.0 13.0 7.4
v -39.0 12.2 12.0
v -39.0 13.0 14.5
v -39.7 14.0 5.0
v -39.4 14.0 6.0
v -39.0 14.0 6.5
v -39.0 13.5 7.0
v -39.0 14.0 14.5
v -39.4 15.0 5.0
v -39.0 15.0 5.5
v -39.0 14.5 6.0
v -39.0 15.0 14.5
v -39.0 16.0 4.8
v -39.0 15.7 5.0
v -39.6 16.0 14.0
v -39.0 16.0 14.4
v -39.0 17.0 4.9
v -39.5 17.0 14.0
v -39.0 17.0 14.4
v -39.0 18.0 3.8
v -39.0 17.7 4.0
v -39.8 18.0 13.0
v -39.2 18.0 14.0
v -39.0 18.0 14.2
v -39.5 19.0 3.0
v -39.0 19.0 3.4
v -39.0 18.5 13.0
v -39.0 19.0 12.5
v -39.0 18.2 14.0
v -39.8 20.0 1.0
v -39.0 20.0 2.5
v -39.0 19.5 3.0
v -39.9 20.0 10.0
v -39.0 20.0 10.7
v -39.0 19.8 11.0
v -39.0 19.5 12.0
v -39.0 21.0 0.9
v -39.0 20.9 1.0
v -39.0 20.4 2.0
v -39.5 21.0 10.0
v -39.0 21.0 10.5
v -39.0 21.2 1.0
v -39.3 22.0 1.0
v -39.0 22.0 1.3
v -39.3 22.0 10.0
v -39.0 22.0 10.3
v -39.9 23.0 0.0
v -39.6 23.0 1.0
v -39.0 23.0 1.7
v -39.6 23.0 3.0
v -39.0 23.0 3.5
v -39.0 22.7 4.0
v -39.5 23.0 5.0
v -39.0 22.7 5.0
v -39.0 23.0 5.5
v -39.0 22.7 8.0
v -39.0 23.0 7.6
v -39.0 22.5 9.0
v -39.0 22.2 10.0
v -39.0 23.3 2.0
v -39.0 23.3 3.0
v -39.0 23.3 6.0
v -39.0 23.4 7.0
v -38.7 11.0 9.0
v -38.9 11.0 10.0
v -38.6 12.0 8.0
v -38.0 12.0 8.9
v -38.0 11.9 9.0
v -38.0 12.0 9.2
v -38.3 12.0 10.0
v -38.6 12.0 11.0
v -38.6 12.0 13.0
v -38.7 12.0 14.0
v -38.4 13.0 8.0
v -38.0 13.0 8.4
v -38.0 12.4 10.0
v -38.0 12.5 11.0
v -38.0 12.6 12.0
v -38.0 12.4 13.0
v -38.0 12.5 14.0
v -38.0 13.0 14.5
v -38.6 14.0 7.0
v -38.0 14.0 7.6
v -38.0 13.5 8.0
v -38.0 14.0 14.5
v -38.6 15.0 6.0
v -38.3 15.0 7.0
v -38.0 15.0 7.3
v -38.0 15.0 14.5
v -38.7 16.0 5.0
v -38.0 16.0 5.6
v -38.0 15.6 6.0
v -38.0 15.3 7.0
v -38.0 16.0 14.5
v -38.0 17.0 4.8
v -38.0 16.7 5.0
v -38.0 17.0 14.5
v -38.7 18.0 4.0
v -38.0 18.0 4.4
v -38.0 18.0 14.4
v -38.3 19.0 4.0
v -38.0 19.0 4.3
v -38.0 19.0 13.0
v -38.0 19.0 13.0
v -38.0 18.5 14.0
v -38.5 20.0 3.0
v -38.0 20.0 3.5
v -38.0 19.4 4.0
v -38.8 20.0 11.0
v -38.6 20.0 12.0
v -38.0 19.2 13.0
v -38.1 20.0 13.0
v -38.0 20.0 13.1
v -38.9 21.0 1.0
v -38.0 21.0 1.7
v -38.0 20.8 2.0
v -38.0 20.4 3.0
v -38.6 21.0 11.0
v -38.3 21.0 12.0
v -38.0 21.0 12.4
v -38.0 20.2 13.0
v -38.0 22.0 1.7
v -38.3 22.0 11.0
v -38.0 22.0 11.3
v -38.0 21.3 12.0
v -38.0 22.4 2.0
v -38.6 23.0 2.0
v -38.0 23.0 2.5
v -38.5 23.0 4.0
v -38.0 23.0 4.6
v -38.0 22.8 5.0
v -38.3 23.0 6.0
v -38.0 22.8 6.0
v -38.0 23.0 6.3
v -38.3 23.0 8.0
v -38.0 23.0 8.3
v -38.0 22.7 9.0
v -38.0 22.6 10.0
v -38.0 22.3 11.0
v -38.0 23.7 3.0
v -38.0 23.3 4.0
v -38.0 23.3 7.0
v -38.0 23.2 8.0
v -37.9 12.0 9.0
v -37.5 13.0 9.0
v -37.5 13.0 10.0
v -37.5 13.0 11.0
v -37.4 13.0 12.0
v -37.0 13.0 12.5
v -37.0 12.7 13.0
v -37.0 12.6 14.0
v -37.0 12.9 15.0
v -37.1 13.0 15.0
v -37.0 13.0 15.1
v -37.6 14.0 8.0
v -37.0 14.0 8.7
v -37.0 13.7 9.0
v -37.0 13.5 10.0
v -37.0 13.5 11.0
v -37.0 13.4 12.0
v -37.0 13.1 15.0
v -37.0 14.0 14.7
v -37.4 15.0 8.0
v -37.0 15.0 8.4
v -37.0 15.0 14.5
v -37.6 16.0 6.0
v -37.3 16.0 7.0
v -37.0 16.0 7.4
v -37.0 15.4 8.0
v -37.0 16.0 14.5
v -37.7 17.0 5.0
v -37.0 17.0 5.5
v -37.0 16.6 6.0
v -37.0 16.3 7.0
v -37.0 17.0 14.5
v -37.0 18.0 4.7
v -37.0 17.6 5.0
v -37.0 18.0 14.6
v -37.0 19.0 4.6
v -38.0 19.0 13.0
v -37.4 19.0 14.0
v -37.0 19.0 14.4
v -37.4 20.0 4.0
v -37.0 20.0 4.3
v -37.0 19.5 14.0
v -37.0 20.0 13.7
v -37.8 21.0 2.0
v -37.4 21.0 3.0
v -37.0 21.0 3.5
v -37.0 20.4 4.0
v -37.4 21.0 13.0
v -37.0 21.0 13.3
v -37.7 22.0 2.0
v -37.0 22.0 2.8
v -37.0 21.7 3.0
v -37.0 21.7 12.0
v -37.0 22.0 11.7
v -37.0 21.3 13.0
v -37.4 23.0 3.0
v -37.0 22.3 3.0
v -37.0 23.0 3.4
v -37.7 23.0 5.0
v -37.7 23.0 6.0
v -37.0 22.9 7.0
v -37.0 23.0 6.8
v -37.3 23.0 7.0
v -37.4 23.0 8.0
v -37.0 22.9 8.0
v -37.5 23.0 9.0
v -37.0 23.0 8.2
v -37.4 23.0 10.0
v -37.0 23.0 10.4
v -37.0 22.6 11.0
v -37.0 23.4 4.0
v -37.0 23.4 5.0
v -37.0 23.3 6.0
v -37.0 23.3 9.0
v -37.0 23.3 10.0
v -36.5 13.0 13.0
v -36.0 13.0 13.5
v -36.0 12.7 14.0
v -36.0 12.7 15.0
v -36.0 13.0 15.3
v -36.7 14.0 9.0
v -36.5 14.0 10.0
v -36.5 14.0 11.0
v -36.3 14.0 12.0
v -36.0 14.0 12.3
v -36.0 13.4 13.0
v -36.5 14.0 15.0
v -36.0 14.0 15.3
v -36.4 15.0 9.0
v -36.0 15.0 9.4
v -36.0 14.5 10.0
v -36.0 14.4 11.0
v -36.0 14.2 12.0
v -36.0 14.5 15.0
v -36.0 15.0 14.7
v -36.4 16.0 8.0
v -36.0 16.0 8.4
v -36.0 15.4 9.0
v -36.0 16.0 14.5
v -36.5 17.0 6.0
v -36.0 17.0 6.6
v -36.0 16.7 7.0
v -36.0 16.3 8.0
v -36.0 17.0 14.7
v -36.7 18.0 5.0
v -36.0 18.0 5.6
v -36.0 17.6 6.0
v -36.0 17.5 15.0
v -36.4 18.0 15.0
v -36.0 18.0 15.3
v -36.4 19.0 5.0
v -36.0 19.0 5.4
v -36.3 19.0 15.0
v -36.0 19.0 15.2
v -36.0 20.0 4.7
v -36.0 19.5 5.0
v -36.6 20.0 14.0
v -36.0 20.0 14.5
v -36.0 19.3 15.0
v -36.5 21.0 4.0
v -36.0 21.0 4.4
v -36.3 21.0 14.0
v -36.0 21.0 14.2
v -36.8 22.0 3.0
v -36.0 22.0 3.7
v -36.0 21.6 4.0
v -36.6 22.0 12.0
v -36.0 22.0 12.6
v -36.0 21.7 13.0
v -36.0 21.2 14.0
v -36.0 23.0 3.8
v -36.7 23.0 7.0
v -36.8 23.0 8.0
v -36.5 23.0 11.0
v -36.0 23.0 11.4
v -36.0 22.5 12.0
v -36.0 23.2 4.0
v -36.0 23.3 5.0
v -36.0 23.3 6.0
v -36.0 23.3 7.0
v -36.0 23.4 8.0
v -36.0 23.6 9.0
v -36.0 23.6 10.0
v -36.0 23.3 11.0
v -35.5 13.0 14.0
v -35.0 13.0 14.9
v -35.0 12.9 15.0
v -35.0 13.0 15.1
v -35.0 14.0 12.6
v -35.0 13.7 13.0
v -35.0 13.3 14.0
v -35.0 14.0 15.5
v -35.0 15.0 9.8
v -35.0 14.8 10.0
v -35.0 14.6 11.0
v -35.0 14.4 12.0
v -35.5 15.0 15.0
v -35.0 15.0 15.3
v -35.4 16.0 9.0
v -35.0 16.0 9.4
v -35.0 15.5 15.0
v -35.0 16.0 14.7
v -35.6 17.0 7.0
v -35.0 17.0 7.6
v -35.0 16.7 8.0
v -35.0 16.4 9.0
v -35.0 16.5 15.0
v -35.5 17.0 15.0
v -35.0 17.0 15.3
v -35.6 18.0 6.0
v -35.0 18.0 6.6
v -35.0 17.6 7.0
v -35.0 18.0 15.5
v -35.4 19.0 6.0
v -35.0 19.0 6.4
v -35.0 19.0 15.4
v -35.7 20.0 5.0
v -35.0 20.0 5.6
v -35.0 19.5 6.0
v -35.0 19.6 15.0
v -35.0 20.0 14.7
v -35.5 21.0 5.0
v -35.0 21.0 5.5
v -35.0 21.0 14.4
v -35.7 22.0 4.0
v -35.4 22.0 5.0
v -35.0 22.0 5.6
v -35.5 22.0 13.0
v -35.0 22.0 13.4
v -35.0 21.4 14.0
v -35.8 23.0 4.0
v -35.6 23.0 5.0
v -35.0 22.3 6.0
v -35.6 23.0 6.0
v -35.5 23.0 7.0
v -35.0 22.6 7.0
v -35.0 23.0 7.5
v -35.2 23.0 12.0
v -35.0 23.0 12.2
v -35.0 22.3 13.0
v -35.0 23.4 8.0
v -35.1 24.0 9.0
v -35.0 24.0 8.9
v -35.1 24.0 10.0
v -35.0 24.0 10.1
v -35.0 23.5 11.0
v -35.0 23.1 12.0
v -35.0 24.1 9.0
v -35.0 24.1 10.0
v -34.9 13.0 15.0
v -34.6 14.0 13.0
v -34.0 14.0 13.5
v -34.0 13.7 14.0
v -34.0 13.5 15.0
v -34.0 14.0 16.0
v -34.0 14.0 16.0
v -34.0 14.0 16.0
v -34.8 15.0 10.0
v -34.5 15.0 11.0
v -34.0 15.0 11.6
v -34.0 14.7 12.0
v -34.0 14.4 13.0
v -34.0 14.0 16.0
v -34.0 15.0 15.5
v -34.4 16.0 10.0
v -34.0 16.0 10.5
v -34.0 15.5 11.0
v -34.0 15.7 15.0
v -34.0 16.0 14.8
v -34.7 17.0 8.0
v -34.4 17.0 9.0
v -34.0 17.0 9.5
v -34.0 16.5 10.0
v -34.0 16.4 15.0
v -34.0 17.0 15.4
v -34.6 18.0 7.0
v -34.0 18.0 7.7
v -34.0 17.7 8.0
v -34.0 17.4 9.0
v -34.0 18.0 15.4
v -34.3 19.0 7.0
v -34.0 19.0 7.3
v -34.0 19.0 15.4
v -34.6 20.0 6.0
v -34.0 20.0 6.5
v -34.0 19.4 7.0
v -34.2 20.0 15.0
v -34.0 20.0 15.1
v -34.5 21.0 6.0
v -34.0 21.0 6.6
v -34.0 20.1 15.0
v -34.0 21.0 14.3
v -34.7 22.0 6.0
v -34.0 21.5 7.0
v -34.4 22.0 7.0
v -34.0 22.0 7.5
v -34.0 21.3 14.0
v -34.0 22.0 13.3
v -34.5 23.0 8.0
v -34.0 22.5 8.0
v -34.0 23.0 8.6
v -34.7 23.0 12.0
v -34.0 22.6 12.0
v -34.0 23.0 11.4
v -34.0 22.2 13.0
v -34.9 24.0 9.0
v -34.0 23.3 9.0
v -34.9 24.0 10.0
v -34.0 23.4 10.0
v -34.0 23.3 11.0
v -33.6 14.0 14.0
v -33.0 14.0 14.7
v -33.0 13.8 15.0
v -33.6 14.0 16.0
v -33.0 14.0 15.9
v -33.7 15.0 12.0
v -33.4 15.0 13.0
v -33.0 15.0 13.6
v -33.0 14.6 14.0
v -33.0 15.0 15.4
v -33.6 16.0 11.0
v -33.3 16.0 12.0
v -33.0 16.0 12.5
v -33.0 15.5 13.0
v -33.0 15.5 15.0
v -33.0 16.0 14.6
v -33.6 17.0 10.0
v -33.0 17.0 10.7
v -33.0 16.7 11.0
v -33.0 16.4 12.0
v -33.0 16.9 15.0
v -33.0 17.0 15.1
v -33.7 18.0 8.0
v -33.5 18.0 9.0
v -33.3 18.0 10.0
v -33.0 18.0 10.3
v -33.4 18.0 15.0
v -33.0 17.1 15.0
v -33.0 18.0 14.6
v -33.4 19.0 8.0
v -33.0 19.0 8.5
v -33.0 18.6 9.0
v -33.0 18.3 10.0
v -33.6 19.0 15.0
v -33.0 19.0 14.5
v -33.0 20.0 7.0
v -33.0 20.0 7.0
v -33.0 19.4 8.0
v -33.9 20.0 15.0
v -33.0 20.0 14.3
v -33.0 20.0 7.0
v -33.5 21.0 7.0
v -33.0 21.0 7.6
v -33.3 21.0 13.0
v -33.0 20.6 13.0
v -33.0 21.0 12.5
v -33.7 21.0 14.0
v -33.0 20.3 14.0
v -33.6 22.0 8.0
v -33.0 21.3 8.0
v -33.4 22.0 9.0
v -33.0 21.5 9.0
v -33.3 22.0 10.0
v -33.0 21.6 10.0
v -33.0 22.0 10.7
v -33.4 22.0 12.0
v -33.0 21.5 12.0
v -33.0 22.0 11.3
v -33.8 22.0 13.0
v -33.7 23.0 9.0
v -33.6 23.0 10.0
v -33.0 22.2 11.0
v -33.7 23.0 11.0
v -32.7 14.0 15.0
v -32.7 15.0 14.0
v -32.3 15.0 15.0
v -32.7 16.0 13.0
v -32.6 16.0 14.0
v -32.8 17.0 11.0
v -32.6 17.0 12.0
v -32.5 17.0 13.0
v -32.5 17.0 14.0
v -32.9 17.0 15.0
v -32.5 18.0 11.0
v -32.4 18.0 12.0
v -32.5 18.0 13.0
v -32.6 18.0 14.0
v -32.7 19.0 9.0
v -32.5 19.0 10.0
v -32.0 19.0 10.9
v -32.0 18.9 11.0
v -32.0 18.9 12.0
v -32.0 19.0 12.1
v -32.4 19.0 13.0
v -32.6 19.0 14.0
v -33.0 20.0 7.0
v -32.6 20.0 8.0
v -32.5 20.0 9.0
v -32.5 20.0 10.0
v -32.0 19.1 11.0
v -32.4 20.0 11.0
v -32.4 20.0 12.0
v -32.0 19.1 12.0
v -32.6 20.0 13.0
v -32.8 20.0 14.0
v -32.7 21.0 8.0
v -32.6 21.0 9.0
v -32.6 21.0 10.0
v -32.5 21.0 11.0
v -32.7 21.0 12.0
v -32.9 22.0 11.0
v -31.9 19.0 11.0
v -31.9 19.0 12.0
f 3 2 1
f 5 4 1
f 1 4 3
f 5 6 4
f 9 8 7
f 11 10 7
f 7 10 9
f 10 11 2
f 11 1 2
f 11 12 1
f 1 13 5
f 1 12 13
f 6 5 14
f 14 5 13
f 7 8 15
f 15 8 16
f 7 17 11
f 7 15 17
f 11 18 12
f 11 17 18
f 12 19 13
f 12 18 19
f 14 13 20
f 20 13 19
f 23 22 21
f 23 21 16
f 21 15 16
f 21 24 15
f 26 17 25
f 17 24 25
f 17 15 24
f 17 26 18
f 18 26 27
f 18 27 19
f 19 27 28
f 19 28 20
f 22 29 21
f 21 29 24
f 24 29 30
f 24 30 25
f 33 32 31
f 31 34 33
f 37 36 35
f 39 38 35
f 35 38 37
f 38 39 32
f 39 31 32
f 39 40 31
f 3 41 2
f 41 31 2
f 31 40 2
f 31 41 34
f 42 3 4
f 42 41 3
f 4 6 42
f 42 6 43
f 35 36 44
f 44 36 45
f 44 8 9
f 39 44 9
f 35 44 39
f 39 9 10
f 39 10 40
f 40 10 2
f 14 43 6
f 14 46 43
f 49 48 47
f 51 50 47
f 47 50 49
f 50 51 45
f 51 44 45
f 51 52 44
f 52 16 8
f 52 8 44
f 20 46 14
f 20 53 46
f 56 55 54
f 56 54 48
f 54 47 48
f 54 57 47
f 47 58 51
f 47 57 58
f 58 22 23
f 52 58 23
f 51 58 52
f 52 23 16
f 60 59 26
f 60 26 25
f 26 61 27
f 59 61 26
f 27 62 28
f 61 62 27
f 20 28 53
f 53 28 62
f 55 63 54
f 54 63 57
f 57 63 64
f 57 64 58
f 58 64 65
f 58 65 22
f 65 29 22
f 65 66 29
f 29 67 30
f 66 67 29
f 25 30 60
f 60 30 67
f 70 69 68
f 72 71 68
f 68 71 70
f 72 73 71
f 76 75 74
f 76 74 69
f 74 68 69
f 74 77 68
f 77 32 33
f 72 77 33
f 68 77 72
f 79 78 34
f 34 78 33
f 78 73 33
f 73 72 33
f 79 80 78
f 83 82 81
f 85 84 81
f 81 84 83
f 85 86 84
f 89 88 87
f 89 87 75
f 75 87 74
f 87 36 74
f 36 37 74
f 74 37 38
f 74 38 77
f 77 38 32
f 41 79 34
f 41 42 79
f 42 90 79
f 90 80 79
f 42 91 90
f 43 91 42
f 82 92 81
f 94 93 92
f 93 81 92
f 93 85 81
f 86 85 95
f 85 96 95
f 85 93 96
f 98 97 96
f 96 97 95
f 97 98 88
f 98 87 88
f 98 99 87
f 99 45 36
f 99 36 87
f 90 91 100
f 90 100 101
f 46 100 43
f 43 100 91
f 93 94 102
f 102 94 103
f 93 104 96
f 93 102 104
f 104 48 49
f 98 104 49
f 96 104 98
f 98 49 50
f 98 50 99
f 99 50 45
f 101 100 105
f 101 105 106
f 53 105 46
f 46 105 100
f 102 103 107
f 107 103 108
f 107 55 56
f 104 107 56
f 102 107 104
f 104 56 48
f 60 109 59
f 59 109 110
f 111 59 110
f 61 59 111
f 105 62 106
f 62 111 106
f 62 61 111
f 62 105 53
f 108 112 107
f 107 112 55
f 112 63 55
f 112 113 63
f 63 114 64
f 113 114 63
f 64 115 65
f 114 115 64
f 65 116 66
f 115 116 65
f 116 118 117
f 67 116 117
f 66 116 67
f 109 60 67
f 117 109 67
f 119 109 117
f 110 109 120
f 120 109 119
f 118 121 117
f 117 121 119
f 119 121 122
f 119 122 120
f 125 124 123
f 127 126 123
f 123 126 125
f 129 128 127
f 127 128 126
f 129 130 128
f 124 131 123
f 133 132 131
f 132 123 131
f 132 127 123
f 127 134 129
f 127 132 134
f 130 129 135
f 129 136 135
f 129 134 136
f 138 137 136
f 136 137 135
f 138 139 137
f 133 140 132
f 132 140 134
f 134 140 141
f 134 141 136
f 136 141 142
f 144 143 142
f 143 136 142
f 143 138 136
f 139 138 145
f 145 138 143
f 144 146 143
f 143 146 145
f 148 147 70
f 70 147 69
f 149 70 71
f 149 148 70
f 151 150 73
f 150 71 73
f 150 149 71
f 151 152 150
f 155 154 153
f 157 156 153
f 153 156 155
f 159 158 157
f 157 158 156
f 161 160 159
f 159 160 158
f 163 162 161
f 161 162 160
f 165 164 163
f 163 164 162
f 167 166 165
f 165 166 164
f 75 76 167
f 76 166 167
f 76 168 166
f 76 69 147
f 76 147 168
f 78 151 73
f 78 80 151
f 80 152 151
f 80 169 152
f 172 171 170
f 174 173 170
f 170 173 172
f 173 174 154
f 174 153 154
f 174 175 153
f 153 176 157
f 153 175 176
f 176 82 83
f 159 176 83
f 157 176 159
f 159 83 84
f 159 84 161
f 161 84 86
f 177 161 86
f 163 161 177
f 163 178 165
f 163 177 178
f 178 88 89
f 167 178 89
f 165 178 167
f 167 89 75
f 90 169 80
f 90 179 169
f 170 171 180
f 180 171 181
f 170 182 174
f 170 180 182
f 174 183 175
f 174 182 183
f 185 176 184
f 176 183 184
f 176 175 183
f 185 187 186
f 185 186 92
f 176 185 92
f 82 176 92
f 186 94 92
f 95 177 86
f 177 95 97
f 177 97 178
f 178 97 88
f 101 179 90
f 101 188 179
f 180 181 189
f 189 181 190
f 180 191 182
f 180 189 191
f 193 183 192
f 183 191 192
f 183 182 191
f 183 193 184
f 186 187 194
f 194 187 195
f 194 103 94
f 194 94 186
f 106 188 101
f 106 196 188
f 190 197 189
f 189 197 191
f 191 197 198
f 191 198 192
f 195 199 194
f 103 194 199
f 200 103 199
f 108 103 200
f 110 201 111
f 201 202 111
f 202 106 111
f 202 196 106
f 205 204 203
f 207 206 203
f 203 206 205
f 207 208 206
f 200 209 108
f 108 209 112
f 112 210 113
f 209 210 112
f 113 211 114
f 210 211 113
f 211 213 212
f 115 211 212
f 114 211 115
f 214 116 115
f 214 115 212
f 214 118 116
f 216 215 201
f 110 216 201
f 120 216 110
f 201 215 202
f 204 217 203
f 203 217 207
f 207 217 218
f 207 218 208
f 213 219 212
f 212 219 214
f 214 219 220
f 214 220 118
f 220 121 118
f 220 221 121
f 121 222 122
f 221 222 121
f 120 122 216
f 216 122 222
f 225 224 223
f 227 226 223
f 223 226 225
f 227 228 226
f 231 230 229
f 233 232 229
f 229 232 231
f 235 234 233
f 233 234 232
f 237 236 235
f 235 236 234
f 237 238 236
f 223 224 239
f 239 224 240
f 223 241 227
f 223 239 241
f 228 227 242
f 227 243 242
f 227 241 243
f 245 244 243
f 243 244 242
f 245 246 244
f 229 230 125
f 230 124 125
f 230 247 124
f 229 125 126
f 229 126 233
f 233 126 128
f 233 128 235
f 235 128 130
f 248 235 130
f 237 235 248
f 238 237 249
f 237 250 249
f 237 248 250
f 250 251 249
f 239 240 252
f 252 240 253
f 239 254 241
f 239 252 254
f 241 255 243
f 241 254 255
f 243 256 245
f 243 255 256
f 246 245 257
f 245 258 257
f 245 256 258
f 258 259 131
f 247 258 131
f 124 247 131
f 258 247 257
f 259 133 131
f 135 248 130
f 248 135 137
f 248 137 250
f 137 139 250
f 139 251 250
f 139 260 251
f 252 253 261
f 261 253 262
f 252 263 254
f 252 261 263
f 254 264 255
f 254 263 264
f 266 256 265
f 256 264 265
f 256 255 264
f 256 266 258
f 258 266 267
f 269 268 267
f 268 258 267
f 268 259 258
f 270 140 133
f 259 270 133
f 268 270 259
f 271 141 140
f 271 140 270
f 272 142 141
f 272 141 271
f 272 144 142
f 145 260 139
f 145 273 260
f 276 275 274
f 276 274 262
f 274 261 262
f 274 277 261
f 261 278 263
f 261 277 278
f 280 264 279
f 264 278 279
f 264 263 278
f 264 280 265
f 269 281 268
f 283 282 281
f 282 268 281
f 282 270 268
f 270 284 271
f 270 282 284
f 271 285 272
f 271 284 285
f 272 285 144
f 285 286 144
f 286 146 144
f 285 287 286
f 145 146 273
f 273 146 286
f 290 289 288
f 290 288 275
f 288 274 275
f 288 291 274
f 274 292 277
f 274 291 292
f 277 293 278
f 277 292 293
f 279 278 294
f 294 278 293
f 282 283 295
f 295 283 296
f 282 297 284
f 282 295 297
f 284 298 285
f 284 297 298
f 287 285 299
f 285 300 299
f 285 298 300
f 300 301 299
f 288 289 302
f 302 289 303
f 288 304 291
f 288 302 304
f 291 305 292
f 291 304 305
f 292 306 293
f 292 305 306
f 294 293 307
f 293 308 307
f 293 306 308
f 310 309 308
f 308 309 307
f 312 311 310
f 310 311 309
f 314 313 312
f 312 313 311
f 313 314 296
f 296 314 295
f 314 147 295
f 147 148 295
f 295 148 149
f 295 149 297
f 297 149 150
f 297 150 298
f 298 150 152
f 315 298 152
f 300 298 315
f 301 300 316
f 316 300 315
f 319 318 317
f 319 317 303
f 303 317 302
f 317 154 302
f 154 155 302
f 302 155 156
f 302 156 304
f 304 156 158
f 304 158 305
f 305 158 160
f 305 160 306
f 306 160 162
f 306 162 308
f 308 162 164
f 308 164 310
f 310 164 166
f 310 166 312
f 312 166 168
f 312 168 314
f 314 168 147
f 169 320 315
f 169 315 152
f 316 315 321
f 321 315 320
f 323 322 172
f 172 322 171
f 173 317 318
f 323 173 318
f 172 173 323
f 317 173 154
f 325 324 320
f 169 325 320
f 179 325 169
f 320 324 321
f 322 181 171
f 326 181 322
f 184 327 185
f 327 187 185
f 188 325 179
f 188 328 325
f 326 190 181
f 329 190 326
f 192 330 193
f 327 184 193
f 330 327 193
f 331 327 330
f 331 195 187
f 331 187 327
f 196 328 188
f 196 332 328
f 197 190 333
f 190 334 333
f 190 329 334
f 335 198 197
f 335 197 333
f 330 192 198
f 335 330 198
f 336 330 335
f 338 331 337
f 331 336 337
f 331 330 336
f 331 338 195
f 338 199 195
f 338 339 199
f 200 199 339
f 200 339 340
f 202 332 196
f 202 341 332
f 334 342 333
f 343 204 205
f 333 343 205
f 335 333 205
f 342 343 333
f 335 205 206
f 335 206 336
f 206 208 336
f 208 337 336
f 208 344 337
f 340 345 200
f 200 345 209
f 209 346 210
f 345 346 209
f 346 348 347
f 211 346 347
f 210 346 211
f 347 213 211
f 350 349 215
f 350 215 216
f 202 215 341
f 341 215 349
f 343 351 204
f 204 351 217
f 217 352 218
f 351 352 217
f 208 218 344
f 344 218 352
f 348 353 347
f 347 353 213
f 353 219 213
f 353 354 219
f 219 355 220
f 354 355 219
f 220 356 221
f 355 356 220
f 221 357 222
f 356 357 221
f 216 222 350
f 350 222 357
f 360 359 358
f 358 361 360
f 364 363 362
f 224 225 362
f 225 364 362
f 225 365 364
f 366 225 226
f 366 365 225
f 368 367 228
f 367 226 228
f 367 366 226
f 370 369 368
f 368 369 367
f 372 371 370
f 370 371 369
f 371 372 359
f 359 372 358
f 372 230 358
f 230 231 358
f 373 361 358
f 231 373 358
f 232 373 231
f 374 232 234
f 374 373 232
f 375 234 236
f 375 374 234
f 377 376 238
f 376 236 238
f 376 375 236
f 377 378 376
f 381 380 379
f 381 379 363
f 379 362 363
f 379 382 362
f 382 240 224
f 382 224 362
f 242 368 228
f 368 242 244
f 368 244 370
f 370 244 246
f 383 370 246
f 372 370 383
f 383 247 230
f 383 230 372
f 249 377 238
f 249 251 377
f 251 378 377
f 251 384 378
f 379 380 385
f 385 380 386
f 379 387 382
f 379 385 387
f 387 253 240
f 387 240 382
f 257 383 246
f 383 257 247
f 260 384 251
f 260 388 384
f 385 386 389
f 389 386 390
f 385 391 387
f 385 389 391
f 391 262 253
f 391 253 387
f 265 392 266
f 393 267 266
f 393 266 392
f 393 269 267
f 273 395 394
f 388 273 394
f 260 273 388
f 395 396 394
f 389 390 397
f 397 390 398
f 397 275 276
f 391 397 276
f 389 397 391
f 391 276 262
f 279 399 280
f 392 265 280
f 399 392 280
f 400 392 399
f 392 401 393
f 392 400 401
f 402 281 269
f 393 402 269
f 401 402 393
f 402 283 281
f 287 403 286
f 395 273 286
f 403 395 286
f 404 395 403
f 396 395 405
f 405 395 404
f 397 398 290
f 398 289 290
f 398 406 289
f 397 290 275
f 294 407 399
f 294 399 279
f 399 408 400
f 399 407 408
f 400 409 401
f 400 408 409
f 401 410 402
f 401 409 410
f 410 296 283
f 410 283 402
f 299 403 287
f 403 299 301
f 411 403 301
f 404 403 411
f 405 404 412
f 412 404 411
f 406 303 289
f 413 303 406
f 307 407 294
f 407 307 309
f 407 309 408
f 408 309 311
f 408 311 409
f 409 311 313
f 409 313 410
f 410 313 296
f 316 414 411
f 316 411 301
f 412 411 415
f 415 411 414
f 416 318 319
f 417 416 319
f 303 417 319
f 413 417 303
f 419 418 414
f 316 419 414
f 321 419 316
f 414 418 415
f 420 322 323
f 421 420 323
f 421 323 318
f 422 421 318
f 416 422 318
f 422 416 417
f 325 423 324
f 423 424 324
f 424 321 324
f 424 419 321
f 426 425 420
f 425 322 420
f 425 326 322
f 426 420 421
f 428 427 423
f 325 428 423
f 328 428 325
f 431 430 429
f 423 427 424
f 430 432 429
f 425 329 326
f 433 329 425
f 332 428 328
f 332 434 428
f 431 435 430
f 430 435 432
f 433 334 329
f 436 334 433
f 337 437 338
f 438 339 338
f 438 338 437
f 438 340 339
f 341 434 332
f 341 439 434
f 342 334 440
f 334 441 440
f 334 436 441
f 440 343 342
f 443 442 437
f 337 443 437
f 344 443 337
f 437 442 438
f 438 442 444
f 438 444 340
f 444 345 340
f 444 445 345
f 345 446 346
f 445 446 345
f 448 447 348
f 346 448 348
f 446 448 346
f 449 447 448
f 452 451 450
f 349 350 450
f 451 349 450
f 453 349 451
f 341 349 439
f 439 349 453
f 441 454 440
f 440 454 343
f 454 351 343
f 454 455 351
f 351 456 352
f 455 456 351
f 344 352 443
f 443 352 456
f 447 353 348
f 449 457 447
f 457 353 447
f 457 354 353
f 354 458 355
f 457 458 354
f 355 459 356
f 458 459 355
f 450 357 452
f 357 459 452
f 357 356 459
f 357 450 350
f 461 460 360
f 360 460 359
f 360 361 461
f 461 361 462
f 464 463 364
f 364 463 363
f 466 464 465
f 464 365 465
f 464 364 365
f 465 365 467
f 365 468 467
f 365 366 468
f 469 366 367
f 469 468 366
f 470 367 369
f 470 469 367
f 471 369 371
f 471 470 369
f 371 359 460
f 371 460 471
f 472 462 361
f 472 361 373
f 473 373 374
f 473 472 373
f 474 374 375
f 474 473 374
f 475 375 376
f 475 474 375
f 477 476 378
f 476 376 378
f 476 475 376
f 477 478 476
f 479 380 381
f 480 479 381
f 363 480 381
f 463 480 363
f 481 466 465
f 481 465 467
f 384 482 477
f 384 477 378
f 478 477 483
f 477 484 483
f 477 482 484
f 484 485 483
f 486 386 479
f 479 386 380
f 479 480 487
f 479 487 486
f 388 488 482
f 388 482 384
f 490 484 489
f 484 488 489
f 484 482 488
f 484 490 485
f 491 390 486
f 486 390 386
f 486 487 492
f 486 492 491
f 394 488 388
f 494 493 396
f 396 493 394
f 493 489 394
f 489 488 394
f 494 495 493
f 496 398 491
f 491 398 390
f 491 492 497
f 491 497 496
f 405 498 494
f 405 494 396
f 495 494 499
f 499 494 498
f 501 500 496
f 500 398 496
f 500 406 398
f 501 496 497
f 412 502 498
f 412 498 405
f 499 498 503
f 503 498 502
f 505 413 504
f 413 500 504
f 413 406 500
f 506 505 504
f 415 507 502
f 415 502 412
f 503 502 508
f 508 502 507
f 510 509 505
f 509 413 505
f 509 417 413
f 510 505 506
f 419 511 418
f 511 512 418
f 418 512 415
f 512 513 415
f 513 507 415
f 507 513 508
f 515 514 422
f 422 514 421
f 422 417 509
f 422 509 515
f 424 516 511
f 424 511 419
f 512 511 517
f 517 511 516
f 518 425 426
f 519 518 426
f 421 519 426
f 514 519 421
f 428 520 427
f 520 424 427
f 520 516 424
f 520 431 429
f 516 520 429
f 522 521 432
f 432 521 429
f 521 517 429
f 517 516 429
f 522 523 521
f 524 433 518
f 518 433 425
f 518 519 525
f 518 525 524
f 527 526 520
f 428 527 520
f 434 527 428
f 520 526 431
f 526 435 431
f 526 528 435
f 432 435 522
f 435 529 522
f 435 528 529
f 522 529 523
f 530 436 524
f 524 436 433
f 524 525 531
f 524 531 530
f 439 533 532
f 527 439 532
f 434 439 527
f 533 534 532
f 535 441 530
f 530 441 436
f 530 531 536
f 530 536 535
f 538 537 442
f 538 442 443
f 442 539 444
f 537 539 442
f 444 540 445
f 539 540 444
f 445 541 446
f 540 541 445
f 446 542 448
f 541 542 446
f 544 543 449
f 448 544 449
f 542 544 448
f 546 545 543
f 546 543 544
f 548 547 545
f 548 545 546
f 451 452 547
f 548 451 547
f 549 451 548
f 451 550 453
f 549 550 451
f 439 453 533
f 453 551 533
f 453 550 551
f 533 551 534
f 535 454 441
f 536 552 535
f 552 454 535
f 552 455 454
f 552 554 553
f 456 552 553
f 455 552 456
f 553 555 456
f 555 443 456
f 555 538 443
f 543 457 449
f 457 543 458
f 458 543 545
f 458 545 459
f 459 545 547
f 459 547 452
f 554 556 553
f 553 556 555
f 557 460 461
f 462 557 461
f 558 463 464
f 466 558 464
f 559 467 468
f 559 468 560
f 468 561 560
f 468 469 561
f 562 469 470
f 562 561 469
f 563 470 471
f 563 562 470
f 563 471 460
f 564 563 460
f 557 564 460
f 563 564 565
f 564 557 462
f 566 564 462
f 472 566 462
f 567 564 566
f 568 472 473
f 568 566 472
f 569 473 474
f 569 568 473
f 570 474 475
f 570 569 474
f 571 475 476
f 571 570 475
f 573 572 478
f 572 476 478
f 572 571 476
f 573 574 572
f 575 480 558
f 558 480 463
f 481 576 466
f 576 558 466
f 576 575 558
f 467 559 481
f 559 576 481
f 559 577 576
f 559 560 578
f 559 578 577
f 579 565 564
f 579 564 567
f 483 573 478
f 581 580 485
f 485 580 483
f 580 574 483
f 574 573 483
f 581 582 580
f 583 487 575
f 575 487 480
f 576 585 584
f 583 576 584
f 575 576 583
f 585 576 577
f 585 577 586
f 586 577 578
f 489 587 490
f 581 485 490
f 587 581 490
f 588 581 587
f 582 581 589
f 589 581 588
f 590 492 583
f 583 492 487
f 583 584 591
f 583 591 590
f 493 587 489
f 588 587 592
f 587 495 592
f 495 593 592
f 495 587 493
f 588 592 589
f 595 594 590
f 594 492 590
f 594 497 492
f 595 590 591
f 499 597 596
f 593 499 596
f 495 499 593
f 597 598 596
f 599 500 501
f 600 599 501
f 497 600 501
f 594 600 497
f 503 601 597
f 503 597 499
f 598 597 602
f 597 603 602
f 597 601 603
f 603 604 602
f 599 504 500
f 506 504 599
f 600 506 599
f 605 506 600
f 508 606 601
f 508 601 503
f 601 607 603
f 601 606 607
f 604 603 608
f 608 603 607
f 609 509 510
f 610 609 510
f 506 610 510
f 605 610 506
f 512 611 513
f 606 508 513
f 611 606 513
f 612 606 611
f 614 607 613
f 607 612 613
f 607 606 612
f 607 614 608
f 615 514 515
f 509 609 515
f 609 615 515
f 609 616 615
f 609 610 617
f 609 617 616
f 517 618 611
f 517 611 512
f 620 612 619
f 612 618 619
f 612 611 618
f 612 620 613
f 622 621 615
f 621 514 615
f 621 519 514
f 622 615 616
f 622 616 623
f 623 616 617
f 521 618 517
f 521 523 618
f 523 619 618
f 523 624 619
f 621 525 519
f 625 525 621
f 527 626 526
f 526 626 627
f 628 526 627
f 528 526 628
f 528 629 529
f 628 629 528
f 523 529 624
f 624 529 629
f 631 531 630
f 531 625 630
f 531 525 625
f 632 631 630
f 532 626 527
f 532 534 626
f 534 627 626
f 534 633 627
f 634 536 631
f 631 536 531
f 631 632 635
f 631 635 634
f 538 636 537
f 537 636 637
f 638 537 637
f 539 537 638
f 539 639 540
f 638 639 539
f 540 640 541
f 639 640 540
f 541 641 542
f 640 641 541
f 542 642 544
f 641 642 542
f 642 644 643
f 546 642 643
f 544 642 546
f 645 548 546
f 645 546 643
f 548 645 646
f 647 548 646
f 549 548 647
f 549 648 550
f 647 648 549
f 550 649 551
f 648 649 550
f 534 551 633
f 633 551 649
f 634 552 536
f 554 552 634
f 635 554 634
f 650 554 635
f 652 651 636
f 538 652 636
f 555 652 538
f 636 651 637
f 644 653 643
f 643 653 645
f 645 653 654
f 645 654 646
f 650 655 554
f 554 655 556
f 555 556 652
f 652 556 655
f 656 560 561
f 562 657 561
f 561 657 656
f 563 658 562
f 562 658 657
f 565 658 563
f 659 567 566
f 659 566 660
f 566 661 660
f 566 568 661
f 662 568 569
f 662 661 568
f 663 569 570
f 663 662 569
f 665 663 664
f 663 571 664
f 663 570 571
f 572 666 571
f 571 666 664
f 574 666 572
f 667 578 656
f 656 578 560
f 668 656 657
f 667 656 668
f 658 670 669
f 668 658 669
f 657 658 668
f 670 658 565
f 579 670 565
f 671 670 579
f 579 567 659
f 672 579 659
f 671 579 672
f 672 659 660
f 673 665 664
f 673 664 666
f 673 666 674
f 674 666 574
f 580 674 574
f 675 674 580
f 677 676 582
f 676 580 582
f 676 675 580
f 677 678 676
f 679 584 585
f 586 680 585
f 585 680 679
f 578 667 586
f 667 680 586
f 667 681 680
f 668 683 682
f 681 668 682
f 667 668 681
f 683 668 669
f 589 684 677
f 589 677 582
f 678 677 685
f 685 677 684
f 687 686 679
f 686 584 679
f 686 591 584
f 687 679 680
f 687 680 688
f 688 680 681
f 688 681 689
f 689 681 682
f 593 690 592
f 690 691 592
f 592 691 589
f 691 692 589
f 692 684 589
f 684 692 685
f 693 594 595
f 694 693 595
f 591 694 595
f 686 694 591
f 596 690 593
f 596 598 690
f 598 691 690
f 598 695 691
f 696 600 693
f 693 600 594
f 693 694 697
f 693 697 696
f 698 695 598
f 698 598 602
f 602 604 698
f 698 604 699
f 700 605 696
f 696 605 600
f 696 697 701
f 702 696 701
f 700 696 702
f 703 702 701
f 608 699 604
f 608 704 699
f 705 610 700
f 700 610 605
f 702 707 706
f 705 702 706
f 700 702 705
f 707 702 703
f 709 708 614
f 709 614 613
f 608 614 704
f 704 614 708
f 710 617 705
f 705 617 610
f 705 706 711
f 705 711 710
f 619 712 620
f 712 713 620
f 713 613 620
f 713 709 613
f 714 621 622
f 623 715 622
f 622 715 714
f 716 715 623
f 716 623 617
f 717 716 617
f 710 717 617
f 717 710 711
f 720 719 718
f 719 721 712
f 624 719 712
f 619 624 712
f 718 719 624
f 712 721 713
f 722 625 714
f 714 625 621
f 715 724 723
f 722 715 723
f 714 715 722
f 724 715 716
f 726 725 628
f 726 628 627
f 718 629 720
f 629 725 720
f 629 628 725
f 629 718 624
f 722 630 625
f 632 630 722
f 723 632 722
f 727 632 723
f 730 729 728
f 729 726 728
f 726 633 728
f 726 627 633
f 727 635 632
f 731 635 727
f 637 732 638
f 733 639 638
f 733 638 732
f 639 733 734
f 735 639 734
f 640 639 735
f 735 737 736
f 641 735 736
f 640 735 641
f 641 736 738
f 739 641 738
f 642 641 739
f 741 740 644
f 642 741 644
f 739 741 642
f 742 740 741
f 744 743 647
f 744 647 646
f 647 745 648
f 743 745 647
f 728 649 730
f 649 745 730
f 649 648 745
f 649 728 633
f 731 650 635
f 746 650 731
f 748 747 651
f 748 651 652
f 637 651 732
f 651 749 732
f 651 747 749
f 732 749 733
f 733 749 750
f 733 750 734
f 737 751 736
f 736 751 738
f 740 653 644
f 742 752 740
f 752 653 740
f 752 654 653
f 646 654 744
f 744 654 752
f 746 753 650
f 650 753 655
f 652 655 748
f 748 655 753
f 755 754 661
f 661 754 660
f 756 661 662
f 756 755 661
f 758 756 757
f 756 663 757
f 756 662 663
f 665 757 663
f 759 669 670
f 759 670 760
f 670 761 760
f 670 671 761
f 762 671 672
f 762 761 671
f 672 660 754
f 672 754 762
f 763 758 757
f 763 757 665
f 673 763 665
f 764 763 673
f 765 673 674
f 765 764 673
f 766 674 675
f 766 765 674
f 767 675 676
f 767 766 675
f 676 678 767
f 767 678 768
f 770 769 683
f 683 769 682
f 683 669 759
f 771 683 759
f 770 683 771
f 771 759 760
f 685 768 678
f 685 772 768
f 773 686 687
f 688 774 687
f 687 774 773
f 774 688 775
f 688 776 775
f 688 689 776
f 689 682 769
f 689 769 776
f 691 777 692
f 777 778 692
f 778 685 692
f 778 772 685
f 779 694 773
f 773 694 686
f 780 773 774
f 779 773 780
f 774 775 781
f 774 781 780
f 783 782 777
f 691 783 777
f 695 783 691
f 777 782 778
f 784 697 779
f 779 697 694
f 780 786 785
f 784 780 785
f 779 780 784
f 786 780 781
f 787 783 695
f 787 695 698
f 698 699 787
f 787 699 788
f 784 701 697
f 790 789 703
f 790 703 701
f 785 790 701
f 784 785 701
f 791 789 790
f 704 788 699
f 704 792 788
f 793 706 707
f 703 789 707
f 789 793 707
f 789 794 793
f 789 791 795
f 789 795 794
f 709 796 708
f 796 797 708
f 797 704 708
f 797 792 704
f 798 711 793
f 793 711 706
f 799 793 794
f 798 793 799
f 794 795 800
f 794 800 799
f 802 801 796
f 709 802 796
f 713 802 709
f 796 801 797
f 803 716 717
f 804 803 717
f 804 717 711
f 805 804 711
f 798 805 711
f 805 798 799
f 805 799 806
f 806 799 800
f 808 807 719
f 808 719 720
f 719 809 721
f 807 809 719
f 713 721 802
f 802 721 809
f 810 723 724
f 716 803 724
f 803 810 724
f 803 811 810
f 803 804 812
f 803 812 811
f 814 813 725
f 814 725 726
f 720 725 808
f 808 725 813
f 815 727 810
f 810 727 723
f 811 817 816
f 815 811 816
f 810 811 815
f 817 811 812
f 819 818 729
f 819 729 730
f 726 729 814
f 814 729 818
f 821 820 815
f 820 727 815
f 820 731 727
f 821 815 816
f 734 822 735
f 737 735 822
f 825 824 823
f 823 738 825
f 823 739 738
f 823 827 826
f 739 823 826
f 828 741 739
f 828 739 826
f 828 742 741
f 830 829 743
f 830 743 744
f 743 831 745
f 829 831 743
f 730 745 819
f 819 745 831
f 833 746 832
f 746 820 832
f 746 731 820
f 747 748 833
f 832 747 833
f 834 747 832
f 747 835 749
f 834 835 747
f 749 836 750
f 835 836 749
f 734 750 822
f 750 837 822
f 750 836 837
f 824 825 837
f 825 751 837
f 737 822 837
f 737 837 751
f 827 838 826
f 751 825 738
f 826 838 828
f 828 838 839
f 828 839 742
f 839 752 742
f 839 840 752
f 744 752 830
f 830 752 840
f 833 753 746
f 753 833 748
f 841 754 755
f 841 755 842
f 755 843 842
f 755 756 843
f 845 844 758
f 844 756 758
f 844 843 756
f 845 846 844
f 847 760 761
f 762 848 761
f 761 848 847
f 849 848 762
f 849 762 754
f 850 849 754
f 841 850 754
f 850 841 842
f 763 845 758
f 851 846 845
f 763 851 845
f 764 851 763
f 852 764 765
f 852 851 764
f 853 765 766
f 853 852 765
f 854 766 767
f 854 853 766
f 856 855 768
f 855 767 768
f 855 854 767
f 856 857 855
f 858 769 770
f 771 859 770
f 770 859 858
f 760 847 771
f 847 859 771
f 847 860 859
f 861 847 848
f 860 847 861
f 848 849 862
f 848 862 861
f 772 863 856
f 772 856 768
f 857 856 864
f 864 856 863
f 865 775 776
f 769 858 776
f 858 865 776
f 858 866 865
f 867 858 859
f 866 858 867
f 860 869 868
f 867 860 868
f 859 860 867
f 869 860 861
f 869 861 870
f 870 861 862
f 778 871 863
f 778 863 772
f 864 863 872
f 872 863 871
f 873 781 865
f 865 781 775
f 874 865 866
f 873 865 874
f 875 866 867
f 874 866 875
f 867 868 876
f 867 876 875
f 783 877 782
f 871 778 782
f 877 871 782
f 878 871 877
f 872 871 879
f 879 871 878
f 880 785 786
f 781 873 786
f 873 880 786
f 873 881 880
f 882 873 874
f 881 873 882
f 883 874 875
f 882 874 883
f 875 876 884
f 875 884 883
f 787 877 783
f 878 877 885
f 877 788 885
f 788 886 885
f 788 877 787
f 878 885 879
f 880 790 785
f 790 880 791
f 880 887 791
f 880 881 887
f 888 881 882
f 887 881 888
f 889 882 883
f 888 882 889
f 883 884 890
f 883 890 889
f 792 886 788
f 792 891 886
f 892 795 887
f 887 795 791
f 893 887 888
f 892 887 893
f 889 895 894
f 893 889 894
f 888 889 893
f 895 889 890
f 898 897 896
f 897 891 896
f 891 797 896
f 891 792 797
f 899 800 892
f 892 800 795
f 893 901 900
f 899 893 900
f 892 893 899
f 901 893 894
f 898 896 801
f 802 898 801
f 902 898 802
f 801 896 797
f 903 804 805
f 903 805 904
f 805 905 904
f 805 806 905
f 905 806 800
f 906 905 800
f 899 906 800
f 905 906 907
f 899 900 908
f 899 908 906
f 911 910 909
f 807 808 909
f 910 807 909
f 912 807 910
f 807 913 809
f 912 913 807
f 802 809 902
f 902 809 913
f 914 812 903
f 903 812 804
f 903 904 915
f 903 915 914
f 916 907 906
f 916 906 908
f 911 909 813
f 814 911 813
f 917 911 814
f 813 909 808
f 918 816 817
f 812 914 817
f 914 918 817
f 914 919 918
f 914 915 920
f 914 920 919
f 819 921 818
f 921 922 818
f 922 814 818
f 922 917 814
f 923 820 821
f 816 918 821
f 918 923 821
f 918 924 923
f 919 926 925
f 924 919 925
f 918 919 924
f 926 919 920
f 928 927 823
f 928 823 824
f 930 929 827
f 823 930 827
f 927 930 823
f 931 929 930
f 830 932 829
f 829 932 933
f 934 829 933
f 831 829 934
f 819 831 921
f 831 935 921
f 831 934 935
f 921 935 922
f 923 832 820
f 832 923 834
f 834 923 924
f 925 936 924
f 936 834 924
f 936 835 834
f 835 937 836
f 936 937 835
f 836 938 837
f 937 938 836
f 824 837 928
f 928 837 938
f 929 838 827
f 931 939 929
f 939 838 929
f 939 839 838
f 839 940 840
f 939 940 839
f 830 840 932
f 840 941 932
f 840 940 941
f 932 941 933
f 942 842 843
f 942 843 943
f 843 944 943
f 843 844 944
f 946 945 846
f 945 844 846
f 945 944 844
f 946 947 945
f 948 849 850
f 949 948 850
f 949 850 842
f 950 949 842
f 942 950 842
f 950 942 943
f 851 946 846
f 951 947 946
f 851 951 946
f 852 951 851
f 953 951 952
f 951 853 952
f 951 852 853
f 952 853 954
f 853 955 954
f 853 854 955
f 956 854 855
f 956 955 854
f 855 857 956
f 956 857 957
f 958 862 948
f 948 862 849
f 948 949 959
f 948 959 958
f 960 953 952
f 960 952 954
f 864 957 857
f 864 961 957
f 962 868 869
f 870 963 869
f 869 963 962
f 964 963 870
f 964 870 862
f 965 964 862
f 958 965 862
f 965 958 959
f 872 961 864
f 872 966 961
f 967 876 962
f 962 876 868
f 963 969 968
f 967 963 968
f 962 963 967
f 969 963 964
f 879 966 872
f 879 970 966
f 972 971 967
f 971 876 967
f 971 884 876
f 972 967 968
f 886 973 885
f 973 974 885
f 974 879 885
f 974 970 879
f 971 890 884
f 975 890 971
f 891 976 973
f 891 973 886
f 974 973 977
f 977 973 976
f 979 978 895
f 895 978 894
f 895 890 975
f 895 975 979
f 898 980 897
f 976 891 897
f 980 976 897
f 981 976 980
f 977 976 982
f 982 976 981
f 983 900 901
f 984 983 901
f 894 984 901
f 978 984 894
f 986 985 980
f 898 986 980
f 902 986 898
f 980 985 981
f 981 985 987
f 981 987 982
f 988 904 905
f 907 988 905
f 990 989 983
f 989 900 983
f 989 908 900
f 990 983 984
f 911 991 910
f 910 991 992
f 993 910 992
f 912 910 993
f 912 994 913
f 993 994 912
f 902 913 986
f 986 913 994
f 996 995 988
f 995 904 988
f 995 915 904
f 996 988 907
f 916 996 907
f 997 996 916
f 916 908 989
f 916 989 997
f 917 998 991
f 917 991 911
f 992 991 999
f 999 991 998
f 1001 920 1000
f 920 995 1000
f 920 915 995
f 1002 1001 1000
f 922 1003 998
f 922 998 917
f 999 998 1004
f 1004 998 1003
f 1005 925 926
f 920 1001 926
f 1001 1005 926
f 1001 1006 1005
f 1001 1002 1007
f 1001 1007 1006
f 928 1008 927
f 927 1008 1009
f 1010 927 1009
f 930 927 1010
f 1012 1011 931
f 930 1012 931
f 1010 1012 930
f 1013 1011 1012
f 1015 1014 934
f 1015 934 933
f 934 1016 935
f 1014 1016 934
f 922 935 1003
f 935 1017 1003
f 935 1016 1017
f 1003 1017 1004
f 1005 936 925
f 936 1005 937
f 937 1005 1006
f 1007 1018 1006
f 1018 937 1006
f 1018 938 937
f 928 938 1008
f 938 1019 1008
f 938 1018 1019
f 1008 1019 1009
f 1011 939 931
f 1013 1020 1011
f 1020 939 1011
f 1020 940 939
f 940 1021 941
f 1020 1021 940
f 933 941 1015
f 1015 941 1021
f 1022 943 944
f 945 1023 944
f 944 1023 1022
f 947 1023 945
f 1024 949 950
f 1025 1024 950
f 1025 950 943
f 1026 1025 943
f 1022 1026 943
f 1028 1027 1026
f 1022 1028 1026
f 1023 1028 1022
f 951 1029 947
f 1029 1023 947
f 1029 1028 1023
f 953 1029 951
f 1030 954 955
f 956 1031 955
f 955 1031 1030
f 957 1031 956
f 1032 959 1024
f 1024 959 949
f 1024 1025 1033
f 1024 1033 1032
f 1034 1027 1028
f 1034 1028 1029
f 1034 1029 1035
f 1035 1029 953
f 960 1035 953
f 1036 1035 960
f 960 954 1030
f 1037 960 1030
f 1036 960 1037
f 1037 1030 1031
f 1037 1031 1038
f 1031 957 1038
f 957 1039 1038
f 957 961 1039
f 1040 964 965
f 1041 1040 965
f 1041 965 959
f 1042 1041 959
f 1032 1042 959
f 1042 1032 1033
f 966 1039 961
f 966 1043 1039
f 1044 968 969
f 964 1040 969
f 1040 1044 969
f 1040 1045 1044
f 1040 1041 1046
f 1040 1046 1045
f 970 1043 966
f 970 1047 1043
f 1048 971 972
f 1049 1048 972
f 1049 972 968
f 1050 1049 968
f 1044 1050 968
f 1050 1044 1045
f 1050 1045 1051
f 1051 1045 1046
f 974 1047 970
f 974 1052 1047
f 1054 1053 1048
f 1053 971 1048
f 1053 975 971
f 1054 1048 1049
f 977 1052 974
f 977 1055 1052
f 1056 978 979
f 1057 1056 979
f 975 1057 979
f 1053 1057 975
f 982 1055 977
f 982 1058 1055
f 1059 984 1056
f 1056 984 978
f 1056 1057 1060
f 1056 1060 1059
f 1062 1061 985
f 1062 985 986
f 985 1063 987
f 1061 1063 985
f 982 987 1058
f 1058 987 1063
f 1064 989 990
f 1065 1064 990
f 1065 990 984
f 1066 1065 984
f 1059 1066 984
f 1066 1059 1060
f 992 1067 993
f 1068 994 993
f 1068 993 1067
f 1062 986 1069
f 986 1068 1069
f 1068 1070 1069
f 986 994 1068
f 1070 1071 1069
f 1072 995 996
f 1072 996 1073
f 996 1074 1073
f 996 997 1074
f 997 989 1064
f 1075 997 1064
f 1074 997 1075
f 1075 1064 1065
f 999 1076 1067
f 999 1067 992
f 1067 1077 1068
f 1067 1076 1077
f 1079 1070 1078
f 1070 1077 1078
f 1070 1068 1077
f 1070 1079 1071
f 1072 1000 995
f 1002 1000 1072
f 1073 1002 1072
f 1080 1002 1073
f 1004 1081 1076
f 1004 1076 999
f 1083 1077 1082
f 1077 1081 1082
f 1077 1076 1081
f 1077 1083 1078
f 1085 1007 1084
f 1007 1080 1084
f 1007 1002 1080
f 1086 1085 1084
f 1009 1087 1010
f 1010 1087 1088
f 1089 1010 1088
f 1012 1010 1089
f 1091 1090 1013
f 1012 1091 1013
f 1089 1091 1012
f 1092 1090 1091
f 1015 1093 1014
f 1014 1093 1094
f 1095 1014 1094
f 1016 1014 1095
f 1016 1096 1017
f 1095 1096 1016
f 1004 1017 1081
f 1017 1097 1081
f 1017 1096 1097
f 1081 1097 1082
f 1085 1018 1007
f 1086 1098 1085
f 1098 1018 1085
f 1098 1019 1018
f 1009 1019 1087
f 1019 1099 1087
f 1019 1098 1099
f 1087 1099 1088
f 1090 1020 1013
f 1092 1100 1090
f 1100 1020 1090
f 1100 1021 1020
f 1015 1021 1093
f 1021 1101 1093
f 1021 1100 1101
f 1093 1101 1094
f 1102 1025 1026
f 1027 1102 1026
f 1103 1033 1102
f 1102 1033 1025
f 1034 1104 1027
f 1104 1102 1027
f 1104 1103 1102
f 1035 1105 1034
f 1034 1105 1104
f 1036 1106 1035
f 1035 1106 1105
f 1106 1036 1107
f 1036 1108 1107
f 1036 1037 1108
f 1109 1037 1038
f 1109 1108 1037
f 1111 1110 1039
f 1110 1038 1039
f 1110 1109 1038
f 1111 1112 1110
f 1113 1041 1042
f 1114 1113 1042
f 1114 1042 1033
f 1115 1114 1033
f 1103 1115 1033
f 1115 1103 1104
f 1115 1104 1116
f 1116 1104 1105
f 1116 1105 1117
f 1117 1105 1106
f 1117 1106 1118
f 1118 1106 1107
f 1120 1119 1111
f 1039 1120 1111
f 1043 1120 1039
f 1111 1119 1112
f 1121 1046 1113
f 1113 1046 1041
f 1113 1114 1122
f 1113 1122 1121
f 1047 1120 1043
f 1047 1123 1120
f 1124 1049 1050
f 1051 1125 1050
f 1050 1125 1124
f 1126 1125 1051
f 1126 1051 1046
f 1127 1126 1046
f 1121 1127 1046
f 1127 1121 1122
f 1052 1123 1047
f 1052 1128 1123
f 1129 1053 1054
f 1130 1129 1054
f 1130 1054 1049
f 1131 1130 1049
f 1124 1131 1049
f 1131 1124 1125
f 1131 1125 1132
f 1132 1125 1126
f 1055 1128 1052
f 1055 1133 1128
f 1135 1134 1129
f 1134 1053 1129
f 1134 1057 1053
f 1135 1129 1130
f 1058 1133 1055
f 1058 1136 1133
f 1134 1060 1057
f 1137 1060 1134
f 1062 1138 1061
f 1139 1063 1061
f 1139 1061 1138
f 1139 1140 1063
f 1140 1058 1063
f 1140 1136 1058
f 1141 1065 1066
f 1142 1141 1066
f 1060 1142 1066
f 1137 1142 1060
f 1069 1138 1062
f 1139 1138 1143
f 1138 1071 1143
f 1071 1144 1143
f 1071 1138 1069
f 1139 1143 1140
f 1145 1073 1074
f 1075 1146 1074
f 1074 1146 1145
f 1147 1146 1075
f 1147 1075 1065
f 1148 1147 1065
f 1141 1148 1065
f 1148 1141 1142
f 1078 1149 1079
f 1149 1150 1079
f 1150 1071 1079
f 1150 1144 1071
f 1151 1080 1145
f 1145 1080 1073
f 1146 1153 1152
f 1151 1146 1152
f 1145 1146 1151
f 1153 1146 1147
f 1155 1154 1083
f 1155 1083 1082
f 1078 1083 1149
f 1083 1156 1149
f 1083 1154 1156
f 1149 1156 1150
f 1151 1084 1080
f 1158 1157 1086
f 1158 1086 1084
f 1152 1158 1084
f 1151 1152 1084
f 1159 1157 1158
f 1088 1160 1089
f 1161 1091 1089
f 1161 1089 1160
f 1092 1091 1161
f 1164 1163 1162
f 1166 1165 1164
f 1166 1164 1162
f 1167 1095 1094
f 1168 1165 1166
f 1169 1096 1095
f 1169 1095 1167
f 1096 1169 1170
f 1171 1096 1170
f 1097 1096 1171
f 1082 1097 1155
f 1155 1097 1171
f 1157 1098 1086
f 1159 1172 1157
f 1172 1098 1157
f 1172 1099 1098
f 1088 1099 1160
f 1099 1173 1160
f 1099 1172 1173
f 1160 1173 1161
f 1161 1173 1174
f 1163 1164 1174
f 1164 1100 1174
f 1092 1161 1174
f 1092 1174 1100
f 1100 1164 1101
f 1101 1164 1165
f 1165 1168 1101
f 1168 1175 1101
f 1167 1094 1101
f 1167 1101 1175
f 1167 1175 1169
f 1169 1175 1176
f 1169 1176 1170
f 1177 1107 1108
f 1177 1108 1178
f 1108 1179 1178
f 1108 1109 1179
f 1180 1109 1110
f 1180 1179 1109
f 1110 1112 1180
f 1180 1112 1181
f 1182 1114 1115
f 1116 1183 1115
f 1115 1183 1182
f 1117 1184 1116
f 1116 1184 1183
f 1118 1185 1117
f 1117 1185 1184
f 1186 1185 1118
f 1186 1118 1107
f 1187 1186 1107
f 1177 1187 1107
f 1187 1177 1178
f 1120 1188 1119
f 1188 1189 1119
f 1189 1112 1119
f 1189 1181 1112
f 1190 1122 1182
f 1182 1122 1114
f 1183 1192 1191
f 1190 1183 1191
f 1182 1183 1190
f 1192 1183 1184
f 1192 1184 1193
f 1193 1184 1185
f 1193 1185 1194
f 1194 1185 1186
f 1196 1195 1188
f 1120 1196 1188
f 1123 1196 1120
f 1188 1195 1189
f 1197 1126 1127
f 1198 1197 1127
f 1198 1127 1122
f 1199 1198 1122
f 1190 1199 1122
f 1199 1190 1191
f 1128 1196 1123
f 1128 1200 1196
f 1201 1130 1131
f 1201 1131 1202
f 1131 1203 1202
f 1131 1132 1203
f 1132 1126 1197
f 1204 1132 1197
f 1203 1132 1204
f 1204 1197 1198
f 1133 1200 1128
f 1133 1205 1200
f 1206 1134 1135
f 1207 1206 1135
f 1207 1135 1130
f 1208 1207 1130
f 1201 1208 1130
f 1208 1201 1202
f 1136 1210 1209
f 1205 1136 1209
f 1133 1136 1205
f 1210 1211 1209
f 1212 1137 1206
f 1206 1137 1134
f 1206 1207 1213
f 1206 1213 1212
f 1140 1214 1210
f 1140 1210 1136
f 1211 1210 1215
f 1215 1210 1214
f 1217 1216 1212
f 1216 1137 1212
f 1216 1142 1137
f 1217 1212 1213
f 1144 1218 1143
f 1218 1219 1143
f 1143 1219 1140
f 1219 1220 1140
f 1220 1214 1140
f 1214 1220 1215
f 1221 1147 1148
f 1222 1221 1148
f 1142 1222 1148
f 1216 1222 1142
f 1150 1223 1218
f 1150 1218 1144
f 1219 1218 1224
f 1224 1218 1223
f 1225 1152 1153
f 1226 1225 1153
f 1226 1153 1147
f 1227 1226 1147
f 1221 1227 1147
f 1227 1221 1222
f 1155 1228 1154
f 1154 1228 1229
f 1230 1154 1229
f 1156 1154 1230
f 1150 1156 1223
f 1156 1231 1223
f 1156 1230 1231
f 1223 1231 1224
f 1225 1158 1152
f 1159 1158 1225
f 1226 1159 1225
f 1232 1159 1226
f 1163 1233 1162
f 1234 1166 1162
f 1234 1162 1233
f 1234 1168 1166
f 1170 1235 1171
f 1235 1236 1171
f 1171 1236 1155
f 1236 1237 1155
f 1237 1228 1155
f 1228 1237 1229
f 1232 1238 1159
f 1159 1238 1172
f 1172 1239 1173
f 1238 1239 1172
f 1173 1240 1174
f 1239 1240 1173
f 1163 1174 1233
f 1174 1241 1233
f 1174 1240 1241
f 1233 1241 1234
f 1234 1241 1242
f 1234 1242 1168
f 1242 1175 1168
f 1242 1243 1175
f 1175 1244 1176
f 1243 1244 1175
f 1170 1176 1235
f 1176 1245 1235
f 1176 1244 1245
f 1235 1245 1236
f 1246 1178 1179
f 1246 1179 1247
f 1179 1248 1247
f 1179 1180 1248
f 1180 1181 1248
f 1248 1181 1249
f 1251 1250 1187
f 1187 1250 1186
f 1187 1178 1246
f 1252 1187 1246
f 1251 1187 1252
f 1252 1246 1247
f 1189 1249 1181
f 1189 1253 1249
f 1255 1254 1192
f 1192 1254 1191
f 1256 1192 1193
f 1256 1255 1192
f 1257 1193 1194
f 1257 1256 1193
f 1194 1186 1250
f 1194 1250 1257
f 1196 1258 1195
f 1258 1259 1195
f 1259 1189 1195
f 1259 1253 1189
f 1260 1198 1199
f 1261 1260 1199
f 1191 1261 1199
f 1254 1261 1191
f 1263 1262 1258
f 1196 1263 1258
f 1200 1263 1196
f 1258 1262 1259
f 1264 1202 1203
f 1264 1203 1265
f 1203 1266 1265
f 1203 1204 1266
f 1204 1198 1260
f 1267 1204 1260
f 1266 1204 1267
f 1267 1260 1261
f 1205 1269 1268
f 1263 1205 1268
f 1200 1205 1263
f 1269 1270 1268
f 1271 1207 1208
f 1272 1271 1208
f 1272 1208 1202
f 1273 1272 1202
f 1264 1273 1202
f 1273 1264 1265
f 1209 1269 1205
f 1209 1211 1269
f 1211 1270 1269
f 1211 1274 1270
f 1275 1213 1271
f 1271 1213 1207
f 1271 1272 1276
f 1271 1276 1275
f 1215 1274 1211
f 1215 1277 1274
f 1278 1216 1217
f 1279 1278 1217
f 1279 1217 1213
f 1280 1279 1213
f 1275 1280 1213
f 1280 1275 1276
f 1282 1281 1220
f 1282 1220 1219
f 1215 1220 1277
f 1277 1220 1281
f 1283 1222 1278
f 1278 1222 1216
f 1278 1279 1284
f 1278 1284 1283
f 1224 1282 1219
f 1224 1285 1282
f 1286 1226 1227
f 1222 1283 1227
f 1283 1286 1227
f 1283 1287 1286
f 1283 1284 1288
f 1283 1288 1287
f 1229 1289 1230
f 1230 1289 1290
f 1291 1230 1290
f 1231 1230 1291
f 1224 1231 1285
f 1285 1231 1291
f 1292 1232 1286
f 1286 1232 1226
f 1293 1286 1287
f 1292 1286 1293
f 1287 1288 1294
f 1295 1287 1294
f 1293 1287 1295
f 1297 1296 1295
f 1297 1295 1294
f 1298 1296 1297
f 1236 1299 1237
f 1299 1300 1237
f 1237 1300 1229
f 1300 1301 1229
f 1301 1289 1229
f 1289 1301 1290
f 1292 1238 1232
f 1238 1292 1239
f 1239 1292 1293
f 1239 1293 1240
f 1240 1293 1295
f 1240 1295 1241
f 1241 1295 1296
f 1298 1302 1296
f 1302 1241 1296
f 1302 1242 1241
f 1302 1304 1303
f 1243 1302 1303
f 1242 1302 1243
f 1305 1244 1243
f 1305 1243 1303
f 1244 1305 1306
f 1307 1244 1306
f 1245 1244 1307
f 1236 1245 1299
f 1245 1308 1299
f 1245 1307 1308
f 1299 1308 1300
f 1304 1309 1303
f 1303 1309 1305
f 1305 1309 1310
f 1305 1310 1306
f 1311 1247 1248
f 1249 1311 1248
f 1312 1250 1251
f 1312 1251 1313
f 1251 1314 1313
f 1251 1252 1314
f 1252 1247 1311
f 1315 1252 1311
f 1314 1252 1315
f 1249 1253 1311
f 1253 1316 1311
f 1316 1315 1311
f 1316 1253 1317
f 1317 1318 1316
f 1319 1254 1255
f 1256 1320 1255
f 1255 1320 1319
f 1320 1256 1321
f 1256 1322 1321
f 1256 1257 1322
f 1257 1250 1312
f 1323 1257 1312
f 1322 1257 1323
f 1323 1312 1313
f 1325 1324 1317
f 1253 1325 1317
f 1259 1325 1253
f 1317 1324 1318
f 1326 1261 1319
f 1319 1261 1254
f 1320 1328 1327
f 1326 1320 1327
f 1319 1320 1326
f 1328 1320 1321
f 1330 1329 1262
f 1330 1262 1263
f 1259 1262 1325
f 1325 1262 1329
f 1331 1265 1266
f 1267 1332 1266
f 1266 1332 1331
f 1333 1332 1267
f 1333 1267 1261
f 1334 1333 1261
f 1326 1334 1261
f 1334 1326 1327
f 1335 1330 1263
f 1335 1263 1268
f 1268 1270 1335
f 1335 1270 1336
f 1337 1272 1273
f 1338 1337 1273
f 1338 1273 1265
f 1339 1338 1265
f 1331 1339 1265
f 1339 1331 1332
f 1339 1332 1340
f 1340 1332 1333
f 1274 1336 1270
f 1274 1341 1336
f 1342 1276 1337
f 1337 1276 1272
f 1337 1338 1343
f 1337 1343 1342
f 1277 1341 1274
f 1277 1344 1341
f 1345 1279 1280
f 1346 1345 1280
f 1346 1280 1276
f 1347 1346 1276
f 1342 1347 1276
f 1347 1342 1343
f 1282 1348 1281
f 1348 1349 1281
f 1349 1277 1281
f 1349 1344 1277
f 1350 1284 1345
f 1345 1284 1279
f 1345 1346 1351
f 1345 1351 1350
f 1353 1352 1348
f 1282 1353 1348
f 1285 1353 1282
f 1348 1352 1349
f 1354 1288 1350
f 1350 1288 1284
f 1350 1351 1355
f 1356 1350 1355
f 1354 1350 1356
f 1357 1356 1355
f 1359 1358 1291
f 1359 1291 1290
f 1285 1291 1353
f 1353 1291 1358
f 1354 1294 1288
f 1294 1354 1297
f 1297 1354 1356
f 1361 1360 1298
f 1361 1298 1297
f 1357 1361 1297
f 1356 1357 1297
f 1362 1360 1361
f 1365 1364 1363
f 1301 1300 1363
f 1364 1301 1363
f 1366 1301 1364
f 1290 1301 1359
f 1359 1301 1366
f 1360 1302 1298
f 1368 1367 1304
f 1368 1304 1302
f 1362 1368 1302
f 1360 1362 1302
f 1370 1369 1367
f 1370 1367 1368
f 1307 1306 1369
f 1370 1307 1369
f 1371 1307 1370
f 1363 1308 1365
f 1308 1371 1365
f 1308 1307 1371
f 1308 1363 1300
f 1367 1309 1304
f 1309 1367 1310
f 1310 1367 1369
f 1310 1369 1306
f 1372 1313 1314
f 1372 1314 1373
f 1314 1374 1373
f 1314 1315 1374
f 1376 1374 1375
f 1374 1316 1375
f 1374 1315 1316
f 1318 1375 1316
f 1377 1321 1322
f 1323 1378 1322
f 1322 1378 1377
f 1379 1378 1323
f 1379 1323 1313
f 1380 1379 1313
f 1372 1380 1313
f 1380 1372 1373
f 1376 1375 1324
f 1325 1376 1324
f 1381 1376 1325
f 1324 1375 1318
f 1382 1327 1328
f 1321 1377 1328
f 1377 1382 1328
f 1377 1383 1382
f 1378 1385 1384
f 1383 1378 1384
f 1377 1378 1383
f 1385 1378 1379
f 1387 1386 1329
f 1387 1329 1330
f 1325 1329 1381
f 1381 1329 1386
f 1388 1333 1334
f 1389 1388 1334
f 1389 1334 1327
f 1390 1389 1327
f 1382 1390 1327
f 1390 1382 1383
f 1390 1383 1391
f 1391 1383 1384
f 1392 1387 1330
f 1392 1330 1335
f 1335 1336 1392
f 1392 1336 1393
f 1394 1338 1339
f 1340 1395 1339
f 1339 1395 1394
f 1333 1388 1340
f 1388 1395 1340
f 1388 1396 1395
f 1388 1389 1397
f 1388 1397 1396
f 1400 1399 1398
f 1399 1393 1398
f 1393 1341 1398
f 1393 1336 1341
f 1401 1343 1394
f 1394 1343 1338
f 1395 1403 1402
f 1401 1395 1402
f 1394 1395 1401
f 1403 1395 1396
f 1403 1396 1404
f 1404 1396 1397
f 1400 1398 1405
f 1400 1405 1406
f 1344 1405 1341
f 1341 1405 1398
f 1408 1407 1347
f 1347 1407 1346
f 1347 1343 1401
f 1409 1347 1401
f 1408 1347 1409
f 1409 1401 1402
f 1406 1405 1410
f 1406 1410 1411
f 1349 1410 1344
f 1344 1410 1405
f 1413 1351 1412
f 1351 1407 1412
f 1351 1346 1407
f 1414 1413 1412
f 1417 1416 1415
f 1419 1418 1415
f 1419 1415 1416
f 1418 1419 1411
f 1418 1411 1410
f 1353 1418 1410
f 1352 1353 1410
f 1352 1410 1349
f 1413 1355 1351
f 1421 1420 1357
f 1421 1357 1355
f 1414 1421 1355
f 1413 1414 1355
f 1423 1422 1420
f 1423 1420 1421
f 1425 1424 1422
f 1425 1422 1423
f 1426 1424 1425
f 1429 1428 1427
f 1427 1428 1417
f 1415 1427 1417
f 1430 1427 1415
f 1359 1430 1358
f 1430 1418 1358
f 1430 1415 1418
f 1358 1418 1353
f 1420 1361 1357
f 1361 1420 1362
f 1420 1431 1362
f 1420 1422 1431
f 1432 1422 1424
f 1431 1422 1432
f 1424 1426 1433
f 1434 1424 1433
f 1432 1424 1434
f 1434 1433 1429
f 1434 1429 1427
f 1365 1434 1427
f 1364 1365 1427
f 1364 1427 1366
f 1366 1427 1430
f 1366 1430 1359
f 1431 1368 1362
f 1368 1431 1370
f 1370 1431 1432
f 1370 1432 1371
f 1371 1432 1434
f 1371 1434 1365
f 1435 1373 1374
f 1376 1435 1374
f 1436 1379 1380
f 1373 1435 1380
f 1435 1436 1380
f 1435 1437 1436
f 1381 1437 1376
f 1376 1437 1435
f 1438 1384 1385
f 1379 1436 1385
f 1436 1438 1385
f 1436 1439 1438
f 1387 1439 1386
f 1439 1437 1386
f 1439 1436 1437
f 1386 1437 1381
f 1440 1389 1390
f 1391 1441 1390
f 1390 1441 1440
f 1384 1438 1391
f 1438 1441 1391
f 1438 1442 1441
f 1443 1438 1439
f 1442 1438 1443
f 1392 1444 1387
f 1444 1439 1387
f 1444 1443 1439
f 1393 1444 1392
f 1445 1397 1440
f 1440 1397 1389
f 1446 1440 1441
f 1445 1440 1446
f 1447 1441 1442
f 1446 1441 1447
f 1448 1442 1443
f 1447 1442 1448
f 1400 1448 1399
f 1448 1444 1399
f 1448 1443 1444
f 1399 1444 1393
f 1449 1402 1403
f 1404 1450 1403
f 1403 1450 1449
f 1451 1450 1404
f 1451 1404 1397
f 1452 1451 1397
f 1445 1452 1397
f 1452 1445 1446
f 1452 1446 1453
f 1455 1454 1453
f 1446 1455 1453
f 1447 1455 1446
f 1456 1447 1448
f 1455 1447 1456
f 1406 1456 1400
f 1400 1456 1448
f 1457 1407 1408
f 1409 1458 1408
f 1408 1458 1457
f 1402 1449 1409
f 1449 1458 1409
f 1449 1459 1458
f 1460 1449 1450
f 1459 1449 1460
f 1450 1451 1461
f 1462 1450 1461
f 1460 1450 1462
f 1464 1463 1462
f 1464 1462 1461
f 1463 1464 1454
f 1455 1463 1454
f 1465 1463 1455
f 1466 1455 1456
f 1465 1455 1466
f 1411 1466 1406
f 1406 1466 1456
f 1457 1412 1407
f 1412 1457 1414
f 1457 1467 1414
f 1457 1458 1467
f 1468 1458 1459
f 1467 1458 1468
f 1469 1459 1460
f 1468 1459 1469
f 1470 1460 1462
f 1469 1460 1470
f 1471 1462 1463
f 1470 1462 1471
f 1417 1471 1416
f 1471 1465 1416
f 1471 1463 1465
f 1416 1465 1419
f 1419 1465 1466
f 1419 1466 1411
f 1467 1421 1414
f 1421 1467 1423
f 1423 1467 1468
f 1423 1468 1425
f 1425 1468 1469
f 1425 1469 1426
f 1469 1472 1426
f 1469 1470 1472
f 1429 1472 1428
f 1472 1471 1428
f 1472 1470 1471
f 1428 1471 1417
f 1472 1433 1426
f 1433 1472 1429
f 1473 1451 1452
f 1453 1474 1452
f 1452 1474 1473
f 1454 1474 1453
f 1473 1461 1451
f 1461 1473 1464
f 1464 1473 1474
f 1464 1474 1454
