v -46.2 7.0 -8.0
v -46.0 7.0 -8.2
v -46.0 6.4 -8.0
v -46.0 7.0 -7.4
v -46.1 7.0 -6.0
v -46.0 7.0 -6.3
v -46.0 6.9 -6.0
v -46.0 7.0 -5.9
v -46.4 8.0 -8.0
v -46.0 8.0 -8.4
v -46.0 7.2 -7.0
v -46.4 8.0 -7.0
v -46.2 8.0 -6.0
v -46.0 8.0 -5.8
v -46.4 9.0 -8.0
v -46.0 9.0 -8.6
v -46.4 9.0 -7.0
v -46.0 9.0 -6.4
v -46.0 8.4 -6.0
v -46.3 10.0 -9.0
v -46.0 10.0 -9.3
v -46.0 9.5 -9.0
v -46.5 10.0 -8.0
v -46.3 10.0 -7.0
v -46.0 10.0 -6.7
v -46.2 11.0 -9.0
v -46.0 11.0 -9.3
v -46.3 11.0 -8.0
v -46.0 11.0 -7.4
v -46.0 10.6 -7.0
v -46.0 11.2 -9.0
v -46.0 11.5 -8.0
v -45.2 0.0 -3.0
v -45.0 0.0 -3.5
v -45.0 -0.2 -3.0
v -45.0 -0.3 -2.0
v -45.3 0.0 -2.0
v -45.0 0.0 -1.4
v -45.7 1.0 -7.0
v -45.0 1.0 -7.5
v -45.0 0.7 -7.0
v -45.0 0.6 -6.0
v -45.4 1.0 -6.0
v -45.0 0.2 -5.0
v -45.3 1.0 -5.0
v -45.0 0.5 -4.0
v -45.3 1.0 -4.0
v -45.3 1.0 -3.0
v -45.2 1.0 -2.0
v -45.0 1.0 -1.8
v -45.2 2.0 -9.0
v -45.0 2.0 -9.1
v -45.0 1.8 -9.0
v -45.0 1.5 -8.0
v -45.4 2.0 -8.0
v -45.5 2.0 -7.0
v -45.3 2.0 -6.0
v -45.0 2.0 -5.3
v -45.0 1.7 -5.0
v -45.0 1.4 -4.0
v -45.0 1.4 -3.0
v -45.0 1.2 -2.0
v -45.2 3.0 -9.0
v -45.0 3.0 -9.2
v -45.0 3.0 -8.0
v -45.0 3.0 -8.0
v -45.3 3.0 -7.0
v -45.0 3.0 -8.0
v -45.0 3.0 -6.0
v -45.0 2.5 -5.0
v -45.1 3.0 -5.0
v -45.0 3.0 -4.8
v -45.0 3.4 -9.0
v -45.0 3.6 -7.0
v -45.3 4.0 -6.0
v -45.0 4.0 -6.7
v -45.3 4.0 -5.0
v -45.0 4.0 -4.7
v -45.2 5.0 -9.0
v -45.0 5.0 -9.4
v -45.0 4.5 -9.0
v -45.0 4.5 -8.0
v -45.3 5.0 -8.0
v -45.0 4.2 -7.0
v -45.4 5.0 -7.0
v -45.5 5.0 -6.0
v -45.3 5.0 -5.0
v -45.0 5.0 -4.7
v -45.1 6.0 -10.0
v -45.0 6.0 -10.1
v -45.0 5.7 -10.0
v -45.0 5.4 -9.0
v -45.0 6.0 -9.7
v -45.4 6.0 -8.0
v -45.0 6.0 -8.3
v -45.5 6.0 -7.0
v -45.5 6.0 -6.0
v -45.1 6.0 -5.0
v -45.0 6.0 -4.9
v -45.1 7.0 -10.0
v -45.0 7.0 -10.2
v -45.0 7.0 -9.5
v -45.0 7.0 -8.9
v -45.9 7.0 -7.0
v -45.0 6.1 -5.0
v -45.0 7.0 -5.5
v -45.0 7.2 -10.0
v -45.0 8.0 -9.5
v -45.4 8.0 -9.0
v -45.0 7.2 -9.0
v -45.0 8.0 -5.6
v -45.6 9.0 -9.0
v -45.0 9.0 -9.7
v -45.4 9.0 -6.0
v -45.0 9.0 -5.8
v -45.3 10.0 -10.0
v -45.0 10.0 -10.3
v -45.0 9.5 -10.0
v -45.1 10.0 -6.0
v -45.0 10.0 -5.9
v -45.3 11.0 -10.0
v -45.0 11.0 -10.2
v -45.7 11.0 -7.0
v -45.0 11.0 -6.5
v -45.0 10.1 -6.0
v -45.0 11.3 -10.0
v -45.0 11.8 -9.0
v -45.6 12.0 -8.0
v -45.0 12.0 -8.7
v -45.8 12.0 -7.0
v -45.0 12.0 -6.6
v -45.4 13.0 -8.0
v -45.0 13.0 -8.5
v -45.4 13.0 -7.0
v -45.0 13.0 -6.7
v -45.2 14.0 -8.0
v -45.0 14.0 -8.2
v -45.0 14.0 -7.0
v -45.0 14.0 -7.0
v -45.0 14.2 -8.0
v -45.0 14.0 -7.0
v -44.4 0.0 -4.0
v -44.0 0.0 -4.3
v -44.0 -0.2 -4.0
v -44.0 -0.3 -3.0
v -44.0 -0.2 -2.0
v -44.0 0.0 -1.7
v -44.3 1.0 -8.0
v -44.0 1.0 -8.2
v -44.0 0.8 -8.0
v -44.0 0.5 -7.0
v -44.0 0.5 -6.0
v -44.0 0.4 -5.0
v -44.0 1.0 -1.6
v -44.0 2.0 -9.4
v -44.0 1.6 -9.0
v -44.8 2.0 -5.0
v -44.6 2.0 -4.0
v -44.4 2.0 -3.0
v -44.0 2.0 -2.6
v -44.0 1.4 -2.0
v -44.0 3.0 -9.7
v -45.0 3.0 -8.0
v -44.2 3.0 -4.0
v -44.0 3.0 -3.8
v -44.0 2.3 -3.0
v -44.2 4.0 -11.0
v -44.0 4.0 -11.2
v -44.0 3.8 -11.0
v -44.0 3.3 -10.0
v -44.9 4.0 -10.0
v -44.8 4.0 -9.0
v -44.7 4.0 -8.0
v -44.9 4.0 -7.0
v -44.0 3.2 -4.0
v -44.0 4.0 -4.4
v -44.0 5.0 -11.0
v -44.0 5.0 -11.4
v -44.7 5.0 -10.0
v -44.0 5.0 -4.7
v -44.4 6.0 -11.0
v -44.0 6.0 -11.5
v -44.8 6.0 -9.0
v -44.9 6.0 -5.0
v -44.0 5.5 -5.0
v -44.0 6.0 -5.3
v -44.5 7.0 -11.0
v -44.0 7.0 -11.5
v -44.9 7.0 -9.0
v -44.0 7.0 -5.7
v -44.4 8.0 -11.0
v -44.0 8.0 -11.5
v -44.7 8.0 -10.0
v -44.4 8.0 -6.0
v -44.0 7.5 -6.0
v -44.0 8.0 -6.3
v -44.3 9.0 -11.0
v -44.0 9.0 -11.4
v -44.7 9.0 -10.0
v -44.6 9.0 -6.0
v -44.0 9.0 -6.4
v -44.0 9.5 -11.0
v -44.0 10.0 -10.7
v -44.9 10.0 -6.0
v -44.0 10.0 -6.4
v -44.0 11.0 -10.6
v -44.0 11.0 -6.5
v -44.4 12.0 -10.0
v -44.0 12.0 -10.4
v -44.8 12.0 -9.0
v -44.0 12.0 -6.5
v -44.0 12.5 -10.0
v -44.5 13.0 -9.0
v -44.0 13.0 -9.6
v -44.0 13.0 -6.6
v -44.1 14.0 -9.0
v -44.0 14.0 -9.1
v -45.0 14.0 -7.0
v -44.0 13.5 -7.0
v -44.0 14.0 -7.6
v -44.0 14.1 -9.0
v -44.0 14.2 -8.0
v -43.8 0.0 -4.0
v -43.5 0.0 -3.0
v -43.7 0.0 -2.0
v -43.7 1.0 -8.0
v -43.0 1.0 -7.6
v -43.0 0.6 -7.0
v -43.0 0.5 -6.0
v -43.0 0.5 -5.0
v -43.0 0.4 -4.0
v -43.0 0.4 -3.0
v -43.0 0.9 -2.0
v -43.0 1.0 -1.9
v -43.0 2.0 -9.6
v -43.0 1.6 -9.0
v -43.0 1.3 -8.0
v -43.0 1.1 -2.0
v -43.0 2.0 -2.5
v -43.6 3.0 -10.0
v -43.0 3.0 -10.6
v -43.0 2.5 -10.0
v -43.4 3.0 -4.0
v -43.0 2.9 -4.0
v -43.0 3.0 -4.1
v -43.0 2.4 -3.0
v -43.4 4.0 -12.0
v -43.0 4.0 -12.3
v -43.0 3.7 -12.0
v -43.0 3.3 -11.0
v -43.0 4.0 -4.6
v -43.2 5.0 -13.0
v -43.0 5.0 -13.2
v -43.0 4.8 -13.0
v -44.0 5.0 -12.0
v -43.5 5.0 -5.0
v -43.0 4.6 -5.0
v -43.0 5.0 -5.3
v -43.0 5.4 -13.0
v -43.6 6.0 -12.0
v -43.0 6.0 -12.7
v -43.0 6.0 -5.6
v -43.5 7.0 -12.0
v -43.0 7.0 -12.4
v -43.5 7.0 -6.0
v -43.0 6.6 -6.0
v -43.0 7.0 -6.3
v -43.5 8.0 -12.0
v -43.0 8.0 -12.4
v -43.0 8.0 -6.6
v -43.5 9.0 -12.0
v -43.0 9.0 -12.5
v -43.0 9.0 -6.6
v -43.3 10.0 -12.0
v -43.0 10.0 -12.3
v -43.7 10.0 -11.0
v -43.0 10.0 -6.6
v -43.0 10.5 -12.0
v -43.5 11.0 -11.0
v -43.0 11.0 -11.6
v -43.0 11.0 -6.5
v -43.5 12.0 -11.0
v -43.0 12.0 -11.7
v -43.0 12.0 -6.5
v -43.2 13.0 -12.0
v -43.0 13.0 -12.9
v -43.0 12.5 -12.0
v -43.5 13.0 -11.0
v -43.7 13.0 -10.0
v -43.0 13.0 -6.6
v -43.0 13.3 -12.0
v -43.2 14.0 -11.0
v -43.0 14.0 -11.3
v -43.4 14.0 -10.0
v -43.5 14.0 -9.0
v -43.0 13.9 -9.0
v -43.0 14.0 -9.2
v -43.5 14.0 -8.0
v -43.0 13.8 -8.0
v -43.0 13.4 -7.0
v -43.0 14.2 -11.0
v -43.0 14.4 -10.0
v -42.0 1.0 -7.4
v -42.0 0.7 -7.0
v -42.0 0.5 -6.0
v -42.0 0.5 -5.0
v -42.0 0.5 -4.0
v -42.0 0.6 -3.0
v -42.9 1.0 -2.0
v -42.0 1.0 -2.6
v -42.4 2.0 -10.0
v -42.0 2.0 -10.3
v -42.0 1.7 -10.0
v -42.0 1.5 -9.0
v -42.0 1.4 -8.0
v -42.0 2.0 -2.6
v -42.5 3.0 -11.0
v -42.0 3.0 -11.4
v -42.0 2.6 -11.0
v -42.7 3.0 -4.0
v -42.0 3.0 -3.7
v -42.0 2.4 -3.0
v -42.0 4.0 -12.5
v -42.0 3.5 -12.0
v -42.0 3.2 -4.0
v -42.0 4.0 -4.6
v -42.0 5.0 -13.6
v -42.0 4.5 -13.0
v -42.0 4.4 -5.0
v -42.0 5.0 -5.4
v -42.7 6.0 -14.0
v -42.0 6.0 -14.4
v -42.0 5.5 -14.0
v -42.8 6.0 -13.0
v -42.0 6.0 -5.6
v -42.3 7.0 -14.0
v -42.0 7.0 -14.4
v -42.0 7.0 -13.0
v -42.0 7.0 -13.0
v -42.0 7.0 -13.0
v -42.0 6.5 -6.0
v -42.0 7.0 -6.5
v -42.0 8.0 -14.0
v -42.0 8.0 -14.0
v -42.0 8.0 -13.7
v -42.0 8.0 -12.9
v -42.3 8.0 -7.0
v -42.0 7.7 -7.0
v -42.0 8.0 -7.2
v -42.0 8.0 -14.0
v -42.0 8.2 -13.0
v -42.4 9.0 -13.0
v -42.0 9.0 -13.4
v -42.5 9.0 -7.0
v -42.0 9.0 -7.4
v -42.3 10.0 -13.0
v -42.0 10.0 -13.3
v -42.4 10.0 -7.0
v -42.0 10.0 -7.3
v -42.0 10.6 -13.0
v -42.6 11.0 -12.0
v -42.0 11.0 -12.8
v -42.0 10.5 -7.0
v -42.0 11.0 -6.7
v -42.1 12.0 -13.0
v -42.0 12.0 -13.1
v -42.0 11.7 -13.0
v -42.7 12.0 -12.0
v -42.0 12.0 -6.6
v -42.8 13.0 -13.0
v -42.0 13.0 -13.1
v -42.0 13.0 -6.8
v -42.0 13.1 -13.0
v -42.0 13.5 -12.0
v -42.0 14.0 -11.4
v -42.9 14.0 -9.0
v -42.7 14.0 -8.0
v -42.0 14.0 -7.5
v -42.0 13.3 -7.0
v -42.0 14.3 -11.0
v -42.1 15.0 -10.0
v -42.0 15.0 -10.1
v -42.4 15.0 -9.0
v -42.2 15.0 -8.0
v -42.0 15.0 -7.8
v -42.0 15.1 -10.0
v -42.0 15.3 -9.0
v -42.0 15.2 -8.0
v -41.5 1.0 -7.0
v -41.0 1.0 -6.6
v -41.0 0.6 -6.0
v -41.0 0.6 -5.0
v -41.0 0.6 -4.0
v -41.0 0.8 -3.0
v -41.0 1.0 -2.8
v -41.0 2.0 -10.4
v -41.0 1.6 -10.0
v -41.0 1.5 -9.0
v -41.0 1.5 -8.0
v -41.0 1.3 -7.0
v -41.0 2.0 -2.7
v -41.0 3.0 -11.4
v -41.0 2.6 -11.0
v -41.6 3.0 -4.0
v -41.0 2.7 -4.0
v -41.0 3.0 -4.3
v -41.0 2.3 -3.0
v -41.0 4.0 -12.4
v -41.0 3.6 -12.0
v -41.3 4.0 -5.0
v -41.0 3.8 -5.0
v -41.0 4.0 -5.1
v -41.4 5.0 -14.0
v -41.0 5.0 -14.3
v -41.0 4.7 -14.0
v -41.0 4.4 -13.0
v -41.0 5.0 -5.5
v -41.4 6.0 -15.0
v -41.0 6.0 -15.4
v -41.0 5.6 -15.0
v -41.0 6.0 -5.6
v -41.1 7.0 -16.0
v -41.0 7.0 -16.1
v -41.0 6.9 -16.0
v -41.5 7.0 -15.0
v -42.0 7.0 -13.0
v -41.0 6.6 -6.0
v -41.0 7.0 -6.4
v -41.0 7.1 -16.0
v -41.0 7.6 -15.0
v -41.0 8.0 -14.6
v -41.9 8.0 -13.0
v -41.0 7.7 -7.0
v -41.0 8.0 -7.3
v -41.0 8.7 -14.0
v -41.0 9.0 -13.8
v -41.0 9.0 -7.5
v -41.0 10.0 -13.7
v -41.0 10.0 -7.5
v -41.6 11.0 -13.0
v -41.0 11.0 -13.7
v -41.6 11.0 -7.0
v -41.0 11.0 -7.4
v -41.8 12.0 -13.0
v -41.0 11.5 -13.0
v -41.0 12.0 -12.6
v -41.5 12.0 -7.0
v -41.0 12.0 -7.4
v -41.9 13.0 -13.0
v -41.0 12.6 -12.0
v -41.4 13.0 -12.0
v -41.0 13.0 -11.6
v -41.7 13.0 -7.0
v -41.0 13.0 -7.5
v -41.6 14.0 -11.0
v -41.0 13.5 -11.0
v -41.0 14.0 -10.5
v -41.0 14.0 -7.6
v -41.8 15.0 -10.0
v -41.0 14.5 -10.0
v -41.0 15.0 -9.3
v -41.0 15.0 -7.8
v -41.0 15.2 -9.0
v -41.0 15.2 -8.0
v -40.0 1.0 -6.2
v -40.0 0.9 -6.0
v -40.4 1.0 -5.0
v -40.0 1.0 -5.7
v -40.5 1.0 -4.0
v -40.7 1.0 -3.0
v -40.0 2.0 -10.3
v -40.0 1.7 -10.0
v -40.0 1.5 -9.0
v -40.0 1.5 -8.0
v -40.0 1.4 -7.0
v -40.0 1.3 -5.0
v -40.0 1.5 -4.0
v -40.0 1.8 -3.0
v -40.0 2.0 -2.8
v -40.5 3.0 -11.0
v -40.0 3.0 -10.6
v -40.0 2.5 -4.0
v -40.0 3.0 -4.4
v -40.0 2.2 -3.0
v -40.5 4.0 -12.0
v -40.0 4.0 -11.6
v -40.0 3.5 -11.0
v -40.7 4.0 -5.0
v -40.0 4.0 -4.7
v -40.0 5.0 -14.4
v -40.0 4.7 -14.0
v -40.0 4.5 -13.0
v -40.0 4.3 -12.0
v -40.0 4.4 -5.0
v -40.0 5.0 -5.4
v -40.4 6.0 -16.0
v -40.0 6.0 -16.4
v -40.0 5.7 -16.0
v -40.0 5.4 -15.0
v -40.0 6.0 -5.4
v -40.0 7.0 -16.9
v -40.5 7.0 -6.0
v -40.0 7.0 -5.7
v -40.0 7.5 -16.0
v -40.5 8.0 -15.0
v -40.0 8.0 -15.4
v -40.5 8.0 -7.0
v -40.0 8.0 -6.6
v -40.0 7.3 -6.0
v -40.0 9.0 -15.0
v -40.0 9.0 -15.0
v -40.8 9.0 -14.0
v -40.0 8.4 -7.0
v -40.0 9.0 -7.4
v -40.0 9.0 -15.0
v -40.5 10.0 -14.0
v -40.0 10.0 -14.3
v -40.0 10.0 -7.5
v -40.0 10.3 -14.0
v -40.0 10.8 -13.0
v -40.4 11.0 -13.0
v -40.0 11.0 -12.8
v -40.0 11.0 -7.5
v -40.0 12.0 -12.2
v -40.0 12.0 -7.7
v -40.0 12.2 -12.0
v -40.5 13.0 -11.0
v -40.0 12.6 -11.0
v -40.0 13.0 -10.4
v -40.4 13.0 -8.0
v -40.0 12.5 -8.0
v -40.0 13.0 -8.5
v -40.6 14.0 -10.0
v -40.0 13.3 -10.0
v -40.4 14.0 -9.0
v -40.0 13.4 -9.0
v -40.6 14.0 -8.0
v -40.8 15.0 -9.0
v -40.8 15.0 -8.0
v -39.8 1.0 -6.0
v -39.0 2.0 -10.0
v -39.0 2.0 -10.0
v -39.0 1.6 -9.0
v -39.0 1.5 -8.0
v -39.0 1.5 -7.0
v -39.0 1.4 -6.0
v -39.0 1.5 -5.0
v -39.0 1.7 -4.0
v -39.2 2.0 -3.0
v -39.0 2.0 -3.1
v -39.0 2.1 -10.0
v -39.2 3.0 -10.0
v -39.0 3.0 -9.8
v -39.0 2.5 -4.0
v -39.0 3.0 -4.4
v -39.4 4.0 -11.0
v -39.0 4.0 -10.6
v -39.0 3.3 -10.0
v -39.0 4.0 -4.6
v -39.5 5.0 -14.0
v -39.0 5.0 -13.5
v -39.0 4.7 -13.0
v -39.0 4.6 -12.0
v -39.0 4.3 -11.0
v -39.0 4.8 -5.0
v -39.0 5.0 -5.1
v -39.1 6.0 -18.0
v -39.0 6.0 -18.1
v -39.0 5.9 -18.0
v -39.0 5.9 -17.0
v -39.2 6.0 -17.0
v -39.0 5.6 -16.0
v -39.0 5.5 -15.0
v -39.0 5.3 -14.0
v -39.0 5.5 -5.0
v -39.2 6.0 -5.0
v -39.0 6.0 -4.9
v -39.0 7.0 -18.0
v -39.0 6.3 -17.0
v -39.0 7.0 -16.5
v -39.0 6.2 -5.0
v -39.0 7.0 -5.5
v -39.0 7.3 -16.0
v -39.5 8.0 -15.0
v -39.0 7.7 -15.0
v -39.0 8.0 -14.7
v -39.0 7.5 -6.0
v -39.0 8.0 -6.5
v -40.0 9.0 -15.0
v -39.0 9.0 -14.5
v -39.0 8.7 -7.0
v -39.0 9.0 -7.3
v -39.0 10.0 -14.2
v -39.0 10.0 -7.4
v -39.0 10.2 -14.0
v -39.0 10.5 -13.0
v -39.0 11.0 -12.3
v -39.0 11.0 -7.7
v -39.0 11.3 -12.0
v -39.7 12.0 -12.0
v -39.5 12.0 -11.0
v -39.0 11.5 -11.0
v -39.3 12.0 -10.0
v -39.0 11.7 -10.0
v -39.0 12.0 -9.4
v -39.6 12.0 -8.0
v -39.0 11.4 -8.0
v -39.0 12.0 -8.7
v -39.7 13.0 -10.0
v -39.0 12.2 -9.0
v -39.7 13.0 -9.0
v -39.0 2.0 -10.0
v -38.4 2.0 -9.0
v -38.0 2.0 -8.5
v -38.0 1.7 -8.0
v -38.0 1.5 -7.0
v -38.0 1.5 -6.0
v -38.0 1.5 -5.0
v -38.0 1.8 -4.0
v -38.0 2.0 -3.8
v -38.0 2.4 -9.0
v -38.0 3.0 -9.4
v -38.0 2.3 -4.0
v -38.0 3.0 -4.4
v -38.4 4.0 -10.0
v -38.0 4.0 -9.8
v -38.0 4.0 -4.5
v -38.6 5.0 -13.0
v -38.4 5.0 -12.0
v -38.0 5.0 -11.5
v -38.0 4.7 -11.0
v -38.0 4.3 -10.0
v -38.8 5.0 -5.0
v -38.0 5.0 -4.6
v -38.0 6.0 -18.3
v -38.0 5.9 -18.0
v -38.8 6.0 -17.0
v -38.0 6.0 -17.8
v -38.0 6.0 -16.0
v -38.0 6.0 -16.0
v -38.0 5.8 -15.0
v -38.0 5.6 -14.0
v -38.0 5.4 -13.0
v -38.0 5.3 -12.0
v -38.0 6.0 -4.8
v -38.0 6.2 -18.0
v -38.7 7.0 -16.0
v -38.0 6.0 -16.0
v -38.4 7.0 -15.0
v -38.0 6.4 -15.0
v -38.0 7.0 -14.5
v -38.0 6.3 -5.0
v -38.0 7.0 -5.6
v -38.4 8.0 -14.0
v -38.0 7.5 -14.0
v -38.0 8.0 -13.6
v -38.0 7.4 -6.0
v -38.0 8.0 -6.4
v -38.5 9.0 -14.0
v -38.0 9.0 -13.3
v -38.7 9.0 -7.0
v -38.0 9.0 -6.6
v -38.8 10.0 -14.0
v -38.0 9.3 -13.0
v -38.5 10.0 -13.0
v -38.3 10.0 -12.0
v -38.0 9.7 -12.0
v -38.0 10.0 -11.7
v -38.3 10.0 -7.0
v -38.0 10.0 -6.8
v -38.7 11.0 -12.0
v -38.0 10.6 -11.0
v -38.4 11.0 -11.0
v -38.0 11.0 -10.5
v -38.5 11.0 -8.0
v -38.0 10.7 -8.0
v -38.0 11.0 -8.5
v -38.0 10.2 -7.0
v -38.0 11.3 -10.0
v -38.8 12.0 -9.0
v -38.0 11.3 -9.0
v -37.5 2.0 -8.0
v -37.0 2.0 -7.5
v -37.0 1.7 -7.0
v -37.0 1.5 -6.0
v -37.0 1.5 -5.0
v -37.0 1.7 -4.0
v -37.0 2.0 -3.8
v -37.0 3.0 -9.4
v -37.0 2.6 -9.0
v -37.0 2.3 -8.0
v -37.0 2.3 -4.0
v -37.0 3.0 -4.4
v -37.0 4.0 -9.6
v -37.0 4.0 -4.5
v -37.3 5.0 -11.0
v -37.0 5.0 -10.8
v -37.0 4.4 -10.0
v -37.0 5.0 -4.7
v -37.7 6.0 -18.0
v -38.0 6.0 -16.0
v -37.8 6.0 -15.0
v -37.6 6.0 -14.0
v -37.0 6.0 -13.1
v -37.0 5.9 -13.0
v -37.0 5.5 -12.0
v -37.0 5.2 -11.0
v -37.6 6.0 -5.0
v -37.0 5.5 -5.0
v -37.0 6.0 -5.4
v -37.7 7.0 -14.0
v -37.0 6.2 -13.0
v -37.3 7.0 -13.0
v -37.0 7.0 -12.5
v -37.3 7.0 -6.0
v -37.0 6.8 -6.0
v -37.0 7.0 -6.1
v -37.6 8.0 -13.0
v -37.0 7.6 -12.0
v -37.3 8.0 -12.0
v -37.0 8.0 -11.6
v -37.0 8.0 -6.5
v -37.7 9.0 -13.0
v -37.5 9.0 -12.0
v -37.0 9.0 -11.5
v -37.0 9.0 -6.5
v -37.0 10.0 -11.2
v -37.0 10.0 -6.6
v -37.0 10.2 -11.0
v -37.6 11.0 -10.0
v -37.0 10.5 -10.0
v -37.6 11.0 -9.0
v -37.0 10.5 -9.0
v -37.0 10.5 -8.0
v -37.0 10.4 -7.0
v -36.5 2.0 -7.0
v -36.0 2.0 -6.4
v -36.0 1.8 -6.0
v -36.0 1.6 -5.0
v -36.0 1.6 -4.0
v -36.0 2.0 -3.9
v -36.0 3.0 -9.2
v -36.0 2.8 -9.0
v -36.0 2.6 -8.0
v -36.0 2.4 -7.0
v -36.0 2.2 -4.0
v -36.0 3.0 -4.4
v -36.0 4.0 -9.5
v -36.0 4.0 -4.6
v -36.6 5.0 -11.0
v -36.0 5.0 -11.3
v -36.0 4.8 -11.0
v -36.0 4.4 -10.0
v -36.3 5.0 -5.0
v -36.0 4.7 -5.0
v -36.0 5.0 -5.2
v -36.9 6.0 -13.0
v -36.0 6.0 -12.1
v -36.0 5.9 -12.0
v -36.0 6.0 -5.5
v -36.6 7.0 -12.0
v -36.0 6.1 -12.0
v -36.2 7.0 -11.0
v -36.0 6.7 -11.0
v -36.0 7.0 -10.8
v -36.7 7.0 -6.0
v -36.0 7.0 -5.7
v -36.4 8.0 -11.0
v -36.0 8.0 -10.6
v -36.0 7.5 -6.0
v -36.0 8.0 -6.3
v -36.5 9.0 -11.0
v -36.0 9.0 -10.5
v -36.0 9.0 -6.3
v -36.8 10.0 -11.0
v -36.0 9.6 -10.0
v -36.4 10.0 -10.0
v -36.1 10.0 -9.0
v -36.0 9.9 -9.0
v -36.0 10.0 -8.9
v -36.0 9.9 -6.0
v -36.1 10.0 -6.0
v -36.0 10.0 -5.9
v -36.0 10.4 -8.0
v -36.0 10.5 -7.0
v -36.0 10.1 -6.0
v -35.7 2.0 -6.0
v -35.5 2.0 -5.0
v -35.8 2.0 -4.0
v -35.8 3.0 -9.0
v -35.6 3.0 -8.0
v -35.5 3.0 -7.0
v -35.4 3.0 -6.0
v -35.0 3.0 -5.4
v -35.0 2.6 -5.0
v -35.0 3.0 -4.7
v -35.4 4.0 -9.0
v -35.0 4.0 -8.5
v -35.0 3.6 -8.0
v -35.0 3.6 -7.0
v -35.0 4.0 -6.3
v -35.1 4.0 -6.0
v -35.0 4.0 -5.6
v -35.0 4.0 -4.8
v -35.0 5.0 -11.0
v -35.0 5.0 -11.0
v -35.0 4.7 -10.0
v -35.0 4.4 -9.0
v -35.0 4.2 -6.0
v -35.1 5.0 -5.0
v -35.0 5.0 -5.0
v -35.9 6.0 -12.0
v -35.0 5.0 -11.0
v -35.4 6.0 -11.0
v -35.0 6.0 -10.6
v -35.0 5.0 -5.0
v -35.0 6.0 -5.6
v -35.0 7.0 -10.4
v -35.0 7.0 -5.7
v -35.0 8.0 -10.3
v -35.4 8.0 -6.0
v -35.0 8.0 -5.8
v -35.0 9.0 -10.3
v -35.4 9.0 -6.0
v -35.0 9.0 -5.8
v -35.3 10.0 -10.0
v -35.0 10.0 -10.2
v -35.8 10.0 -9.0
v -35.0 10.0 -5.7
v -35.0 10.2 -10.0
v -35.0 10.4 -9.0
v -35.0 10.4 -8.0
v -35.0 10.4 -7.0
v -35.0 10.3 -6.0
v -34.0 3.0 -5.1
v -34.0 2.3 -5.0
v -34.0 3.0 -4.3
v -34.7 4.0 -8.0
v -34.7 4.0 -7.0
v -34.0 3.1 -5.0
v -34.7 4.0 -5.0
v -35.0 5.0 -11.0
v -34.7 5.0 -10.0
v -34.6 5.0 -9.0
v -34.5 5.0 -8.0
v -34.5 5.0 -7.0
v -34.6 5.0 -6.0
v -35.0 5.0 -5.0
v -34.6 6.0 -10.0
v -34.5 6.0 -9.0
v -34.5 6.0 -8.0
v -34.5 6.0 -7.0
v -34.6 6.0 -6.0
v -34.6 7.0 -10.0
v -34.5 7.0 -9.0
v -34.5 7.0 -8.0
v -34.5 7.0 -7.0
v -34.7 7.0 -6.0
v -34.7 8.0 -10.0
v -34.5 8.0 -9.0
v -34.4 8.0 -8.0
v -34.5 8.0 -7.0
v -34.8 8.0 -6.0
v -34.6 9.0 -10.0
v -34.3 9.0 -9.0
v -34.0 9.0 -8.0
v -34.4 9.0 -7.0
v -34.7 9.0 -6.0
v -34.2 10.0 -10.0
v -34.0 10.0 -9.5
v -34.0 9.9 -9.0
v -34.0 10.0 -8.9
v -34.5 10.0 -8.0
v -34.6 10.0 -7.0
v -34.4 10.0 -6.0
v -34.0 10.1 -9.0
v -33.9 3.0 -5.0
v -33.9 10.0 -9.0
f 3 2 1
f 1 4 3
f 7 6 5
f 5 8 7
f 1 2 9
f 9 2 10
f 4 1 11
f 1 12 11
f 1 9 12
f 11 12 6
f 12 5 6
f 12 13 5
f 8 5 14
f 14 5 13
f 9 10 15
f 15 10 16
f 9 17 12
f 9 15 17
f 19 13 18
f 13 17 18
f 13 12 17
f 13 19 14
f 22 21 20
f 22 20 16
f 20 15 16
f 20 23 15
f 15 24 17
f 15 23 24
f 18 17 25
f 25 17 24
f 20 21 26
f 26 21 27
f 20 28 23
f 20 26 28
f 30 24 29
f 24 28 29
f 24 23 28
f 24 30 25
f 27 31 26
f 26 31 28
f 28 31 32
f 28 32 29
f 35 34 33
f 37 36 33
f 33 36 35
f 37 38 36
f 41 40 39
f 43 42 39
f 39 42 41
f 45 44 43
f 43 44 42
f 47 46 45
f 45 46 44
f 46 47 34
f 47 33 34
f 47 48 33
f 33 49 37
f 33 48 49
f 38 37 50
f 50 37 49
f 53 52 51
f 55 54 51
f 51 54 53
f 54 55 40
f 55 39 40
f 55 56 39
f 39 57 43
f 39 56 57
f 59 45 58
f 45 57 58
f 45 43 57
f 45 59 47
f 47 59 60
f 47 60 48
f 48 60 61
f 48 61 49
f 49 61 62
f 49 62 50
f 51 52 63
f 63 52 64
f 66 55 65
f 55 63 65
f 55 51 63
f 68 67 66
f 67 55 66
f 67 56 55
f 56 69 57
f 56 67 69
f 58 57 70
f 57 71 70
f 57 69 71
f 71 72 70
f 64 73 63
f 63 73 65
f 68 74 67
f 76 75 74
f 75 67 74
f 75 69 67
f 69 77 71
f 69 75 77
f 72 71 78
f 78 71 77
f 81 80 79
f 83 82 79
f 79 82 81
f 85 84 83
f 83 84 82
f 84 85 76
f 85 75 76
f 85 86 75
f 75 87 77
f 75 86 87
f 78 77 88
f 88 77 87
f 91 90 89
f 92 79 80
f 89 93 91
f 95 94 92
f 94 79 92
f 94 83 79
f 83 96 85
f 83 94 96
f 85 97 86
f 85 96 97
f 86 98 87
f 86 97 98
f 88 87 99
f 99 87 98
f 89 90 100
f 100 90 101
f 93 89 102
f 102 89 100
f 94 95 3
f 95 2 3
f 95 103 2
f 94 3 4
f 104 94 4
f 96 94 104
f 104 6 7
f 97 104 7
f 96 104 97
f 98 97 105
f 97 8 105
f 8 106 105
f 8 97 7
f 98 105 99
f 101 107 100
f 107 108 100
f 108 109 100
f 110 102 100
f 110 100 109
f 103 110 109
f 10 103 109
f 2 103 10
f 11 104 4
f 104 11 6
f 14 106 8
f 14 111 106
f 109 108 112
f 112 108 113
f 112 16 10
f 112 10 109
f 18 114 19
f 114 115 19
f 115 14 19
f 115 111 14
f 118 117 116
f 118 116 113
f 113 116 112
f 116 21 112
f 21 22 112
f 112 22 16
f 25 119 114
f 25 114 18
f 115 114 120
f 120 114 119
f 116 117 121
f 121 117 122
f 121 27 21
f 121 21 116
f 29 123 30
f 123 124 30
f 30 124 25
f 124 125 25
f 125 119 25
f 119 125 120
f 122 126 121
f 121 126 27
f 126 31 27
f 126 127 31
f 127 129 128
f 32 127 128
f 31 127 32
f 123 29 32
f 128 123 32
f 130 123 128
f 124 123 131
f 131 123 130
f 128 129 132
f 132 129 133
f 128 134 130
f 128 132 134
f 131 130 135
f 135 130 134
f 132 133 136
f 136 133 137
f 132 138 134
f 132 136 138
f 135 134 139
f 139 134 138
f 137 140 136
f 136 140 138
f 138 140 141
f 138 141 139
f 144 143 142
f 34 35 142
f 35 144 142
f 35 145 144
f 146 35 36
f 146 145 35
f 36 38 146
f 146 38 147
f 150 149 148
f 40 41 148
f 41 150 148
f 41 151 150
f 152 41 42
f 152 151 41
f 153 42 44
f 153 152 42
f 46 142 143
f 153 46 143
f 44 46 153
f 142 46 34
f 50 147 38
f 50 154 147
f 156 155 53
f 53 155 52
f 54 148 149
f 156 54 149
f 53 54 156
f 148 54 40
f 58 157 59
f 158 60 59
f 158 59 157
f 159 61 60
f 159 60 158
f 61 159 160
f 161 61 160
f 62 61 161
f 50 62 154
f 154 62 161
f 155 64 52
f 162 64 155
f 65 163 66
f 163 68 66
f 70 157 58
f 157 70 72
f 164 157 72
f 158 157 164
f 166 159 165
f 159 164 165
f 159 158 164
f 159 166 160
f 169 168 167
f 171 170 167
f 167 170 169
f 171 172 73
f 162 171 73
f 64 162 73
f 171 162 170
f 163 65 73
f 172 163 73
f 173 163 172
f 174 74 68
f 163 174 68
f 173 174 163
f 174 76 74
f 176 175 164
f 72 176 164
f 78 176 72
f 164 175 165
f 167 168 177
f 177 168 178
f 167 179 171
f 167 177 179
f 179 80 81
f 172 179 81
f 171 179 172
f 172 81 82
f 172 82 173
f 173 82 84
f 173 84 174
f 174 84 76
f 88 176 78
f 88 180 176
f 177 178 181
f 181 178 182
f 181 90 91
f 179 181 91
f 177 181 179
f 183 91 93
f 183 179 91
f 183 92 80
f 179 183 80
f 183 95 92
f 186 185 184
f 185 180 184
f 180 99 184
f 180 88 99
f 181 182 187
f 187 182 188
f 187 101 90
f 187 90 181
f 102 189 183
f 102 183 93
f 189 103 95
f 189 95 183
f 186 184 105
f 106 186 105
f 190 186 106
f 105 184 99
f 187 188 191
f 191 188 192
f 193 107 101
f 187 193 101
f 191 193 187
f 110 189 102
f 108 107 193
f 189 110 103
f 196 195 194
f 195 190 194
f 190 111 194
f 190 106 111
f 191 192 197
f 197 192 198
f 191 199 193
f 191 197 199
f 199 113 108
f 199 108 193
f 196 194 200
f 196 200 201
f 115 200 111
f 111 200 194
f 198 202 197
f 203 117 118
f 197 203 118
f 199 197 118
f 202 203 197
f 199 118 113
f 201 200 204
f 201 204 205
f 120 204 115
f 115 204 200
f 203 122 117
f 206 122 203
f 205 204 125
f 124 205 125
f 207 205 124
f 125 204 120
f 126 122 208
f 122 209 208
f 122 206 209
f 210 127 126
f 210 126 208
f 210 129 127
f 131 207 124
f 131 211 207
f 209 212 208
f 214 213 212
f 213 208 212
f 213 210 208
f 213 133 129
f 213 129 210
f 135 211 131
f 135 215 211
f 213 214 216
f 216 214 217
f 216 137 133
f 216 133 213
f 220 219 218
f 219 215 218
f 215 139 218
f 215 135 139
f 217 221 216
f 216 221 137
f 221 140 137
f 221 222 140
f 218 141 220
f 141 222 220
f 141 140 222
f 141 218 139
f 223 143 144
f 145 224 144
f 144 224 223
f 146 225 145
f 145 225 224
f 147 225 146
f 226 149 150
f 226 150 227
f 150 228 227
f 150 151 228
f 229 151 152
f 229 228 151
f 230 152 153
f 230 229 152
f 153 143 223
f 231 153 223
f 230 153 231
f 231 223 224
f 231 224 232
f 232 224 225
f 232 225 233
f 225 147 233
f 147 234 233
f 147 154 234
f 236 235 156
f 156 235 155
f 156 149 226
f 237 156 226
f 236 156 237
f 237 226 227
f 239 238 161
f 239 161 160
f 154 161 234
f 234 161 238
f 242 241 240
f 235 242 240
f 162 235 240
f 155 235 162
f 245 244 243
f 166 165 243
f 244 166 243
f 246 166 244
f 160 166 239
f 239 166 246
f 249 248 247
f 168 169 247
f 169 249 247
f 169 250 249
f 170 240 241
f 250 170 241
f 169 170 250
f 240 170 162
f 245 243 175
f 176 245 175
f 251 245 176
f 175 243 165
f 254 253 252
f 254 252 248
f 252 247 248
f 252 255 247
f 255 178 168
f 255 168 247
f 258 257 256
f 257 251 256
f 251 180 256
f 251 176 180
f 253 259 252
f 261 260 259
f 260 252 259
f 260 255 252
f 260 182 178
f 260 178 255
f 258 256 185
f 186 258 185
f 262 258 186
f 185 256 180
f 260 261 263
f 263 261 264
f 263 188 182
f 263 182 260
f 267 266 265
f 266 262 265
f 262 190 265
f 262 186 190
f 263 264 268
f 268 264 269
f 268 192 188
f 268 188 263
f 267 265 195
f 196 267 195
f 270 267 196
f 195 265 190
f 268 269 271
f 271 269 272
f 271 198 192
f 271 192 268
f 201 270 196
f 201 273 270
f 271 272 274
f 274 272 275
f 276 202 198
f 271 276 198
f 274 276 271
f 276 203 202
f 205 273 201
f 205 277 273
f 275 278 274
f 280 279 278
f 279 274 278
f 279 276 274
f 279 206 203
f 279 203 276
f 207 277 205
f 207 281 277
f 279 280 282
f 282 280 283
f 282 209 206
f 282 206 279
f 211 281 207
f 211 284 281
f 287 286 285
f 287 285 283
f 285 282 283
f 285 288 282
f 289 212 209
f 282 289 209
f 288 289 282
f 289 214 212
f 215 284 211
f 215 290 284
f 286 291 285
f 293 292 291
f 292 285 291
f 292 288 285
f 288 294 289
f 288 292 294
f 214 295 217
f 295 214 296
f 289 296 214
f 296 289 297
f 294 297 289
f 299 298 295
f 299 295 296
f 219 220 298
f 299 219 298
f 300 219 299
f 215 219 290
f 290 219 300
f 293 301 292
f 292 301 294
f 294 301 302
f 295 221 217
f 302 297 294
f 221 295 222
f 222 295 298
f 222 298 220
f 304 303 228
f 228 303 227
f 305 228 229
f 305 304 228
f 306 229 230
f 306 305 229
f 307 230 231
f 307 306 230
f 308 231 232
f 308 307 231
f 310 308 309
f 308 233 309
f 308 232 233
f 234 309 233
f 313 312 311
f 235 236 311
f 236 313 311
f 236 314 313
f 315 236 237
f 315 314 236
f 237 227 303
f 237 303 315
f 310 309 238
f 239 310 238
f 316 310 239
f 238 309 234
f 319 318 317
f 319 317 312
f 312 317 311
f 317 241 311
f 241 242 311
f 311 242 235
f 245 320 244
f 244 320 321
f 322 244 321
f 246 244 322
f 239 246 316
f 316 246 322
f 324 323 249
f 249 323 248
f 250 317 318
f 324 250 318
f 249 250 324
f 317 250 241
f 326 325 320
f 245 326 320
f 251 326 245
f 320 325 321
f 328 327 254
f 254 327 253
f 254 248 323
f 254 323 328
f 330 329 257
f 330 257 258
f 251 257 326
f 326 257 329
f 333 332 331
f 331 334 259
f 327 331 259
f 253 327 259
f 331 327 333
f 334 261 259
f 262 330 258
f 262 335 330
f 331 332 336
f 336 332 337
f 339 334 338
f 334 336 338
f 334 331 336
f 261 334 339
f 340 261 339
f 264 261 340
f 342 341 266
f 342 266 267
f 262 266 335
f 335 266 341
f 336 337 343
f 343 337 344
f 338 336 345
f 345 336 343
f 340 269 264
f 346 269 340
f 349 348 347
f 348 342 347
f 342 270 347
f 342 267 270
f 344 350 343
f 353 352 351
f 343 350 345
f 346 351 352
f 272 346 352
f 269 346 272
f 349 347 354
f 349 354 355
f 273 354 270
f 270 354 347
f 352 353 356
f 356 353 357
f 356 275 272
f 356 272 352
f 355 354 358
f 355 358 359
f 277 358 273
f 273 358 354
f 357 360 356
f 360 362 361
f 360 361 278
f 356 360 278
f 275 356 278
f 361 280 278
f 363 359 358
f 358 277 363
f 277 364 363
f 277 281 364
f 367 366 365
f 367 365 362
f 365 361 362
f 365 368 361
f 368 283 280
f 368 280 361
f 284 364 281
f 284 369 364
f 365 366 370
f 370 366 371
f 370 286 287
f 368 370 287
f 365 370 368
f 368 287 283
f 290 369 284
f 290 372 369
f 371 373 370
f 370 373 286
f 373 291 286
f 373 374 291
f 293 291 374
f 293 374 375
f 297 376 296
f 377 299 296
f 377 296 376
f 299 377 378
f 379 299 378
f 300 299 379
f 290 300 372
f 372 300 379
f 375 380 293
f 293 380 301
f 380 382 381
f 302 380 381
f 301 380 302
f 376 297 302
f 381 376 302
f 383 376 381
f 376 384 377
f 376 383 384
f 378 377 385
f 385 377 384
f 382 386 381
f 381 386 383
f 383 386 387
f 383 387 384
f 384 387 388
f 384 388 385
f 389 303 304
f 389 304 390
f 304 391 390
f 304 305 391
f 392 305 306
f 392 391 305
f 393 306 307
f 393 392 306
f 394 307 308
f 394 393 307
f 308 310 394
f 394 310 395
f 397 396 313
f 313 396 312
f 398 313 314
f 398 397 313
f 399 314 315
f 399 398 314
f 315 303 389
f 400 315 389
f 399 315 400
f 400 389 390
f 316 395 310
f 316 401 395
f 403 402 319
f 319 402 318
f 319 312 396
f 319 396 403
f 406 405 404
f 322 321 404
f 405 322 404
f 407 322 405
f 316 322 401
f 401 322 407
f 409 408 324
f 324 408 323
f 324 318 402
f 324 402 409
f 412 411 410
f 410 411 406
f 410 406 404
f 326 410 404
f 325 326 404
f 325 404 321
f 415 414 413
f 327 328 413
f 328 415 413
f 328 416 415
f 328 323 408
f 328 408 416
f 412 410 329
f 330 412 329
f 417 412 330
f 329 410 326
f 420 419 418
f 420 418 414
f 414 418 413
f 418 332 413
f 332 333 413
f 413 333 327
f 335 417 330
f 335 421 417
f 424 423 422
f 424 422 419
f 422 418 419
f 422 425 418
f 425 337 332
f 425 332 418
f 338 426 339
f 426 340 339
f 428 427 341
f 428 341 342
f 335 341 421
f 421 341 427
f 423 429 422
f 422 429 425
f 425 429 430
f 337 425 430
f 431 337 430
f 344 337 431
f 345 432 426
f 345 426 338
f 432 346 340
f 432 340 426
f 434 433 348
f 434 348 349
f 342 348 428
f 428 348 433
f 431 435 344
f 344 435 350
f 435 345 350
f 345 435 432
f 436 432 435
f 432 436 351
f 353 351 436
f 432 351 346
f 355 434 349
f 355 437 434
f 436 357 353
f 438 357 436
f 359 437 355
f 359 439 437
f 360 357 440
f 357 441 440
f 357 438 441
f 440 362 360
f 359 363 442
f 443 359 442
f 439 359 443
f 364 442 363
f 444 366 367
f 441 445 440
f 446 440 445
f 446 362 440
f 446 444 367
f 362 446 367
f 443 442 447
f 443 447 448
f 369 447 364
f 364 447 442
f 449 371 444
f 444 371 366
f 444 446 450
f 451 444 450
f 449 444 451
f 452 451 450
f 448 447 453
f 448 453 454
f 372 453 369
f 369 453 447
f 449 373 371
f 373 449 374
f 374 449 451
f 456 455 375
f 456 375 374
f 452 456 374
f 451 452 374
f 457 455 456
f 454 453 379
f 378 454 379
f 458 454 378
f 379 453 372
f 455 380 375
f 460 459 382
f 460 382 380
f 457 460 380
f 455 457 380
f 461 459 460
f 385 458 378
f 385 462 458
f 459 386 382
f 461 463 459
f 463 386 459
f 463 387 386
f 387 464 388
f 463 464 387
f 385 388 462
f 462 388 464
f 466 465 391
f 391 465 390
f 468 466 467
f 466 392 467
f 466 391 392
f 393 469 392
f 392 469 467
f 394 470 393
f 393 470 469
f 395 470 394
f 472 471 397
f 397 471 396
f 473 397 398
f 473 472 397
f 474 398 399
f 474 473 398
f 475 399 400
f 475 474 399
f 400 390 465
f 400 465 475
f 476 468 467
f 476 467 469
f 476 469 477
f 477 469 470
f 477 470 478
f 470 395 478
f 395 479 478
f 395 401 479
f 480 402 403
f 481 480 403
f 396 481 403
f 471 481 396
f 483 482 405
f 483 405 406
f 405 484 407
f 482 484 405
f 401 407 479
f 479 407 484
f 485 408 409
f 486 485 409
f 486 409 402
f 487 486 402
f 480 487 402
f 487 480 481
f 412 488 411
f 488 489 411
f 489 406 411
f 489 483 406
f 491 490 415
f 415 490 414
f 492 415 416
f 492 491 415
f 416 408 485
f 493 416 485
f 492 416 493
f 493 485 486
f 495 494 488
f 412 495 488
f 417 495 412
f 488 494 489
f 498 497 496
f 419 420 496
f 420 498 496
f 420 499 498
f 420 414 490
f 420 490 499
f 421 495 417
f 421 500 495
f 496 497 424
f 497 423 424
f 497 501 423
f 496 424 419
f 428 502 427
f 502 503 427
f 503 421 427
f 503 500 421
f 501 504 423
f 423 504 429
f 504 506 505
f 430 504 505
f 429 504 430
f 505 431 430
f 434 507 433
f 507 508 433
f 433 508 428
f 508 509 428
f 509 502 428
f 502 509 503
f 505 506 510
f 510 506 511
f 512 435 431
f 505 512 431
f 510 512 505
f 512 436 435
f 514 513 507
f 434 514 507
f 437 514 434
f 507 513 508
f 511 515 510
f 517 516 515
f 516 510 515
f 516 512 510
f 516 438 436
f 516 436 512
f 439 514 437
f 439 518 514
f 517 519 516
f 441 438 516
f 520 441 516
f 519 520 516
f 441 520 521
f 522 521 520
f 443 518 439
f 443 523 518
f 521 445 441
f 446 445 521
f 522 446 521
f 524 446 522
f 448 523 443
f 448 525 523
f 524 526 446
f 446 526 450
f 528 527 452
f 450 528 452
f 526 528 450
f 529 527 528
f 532 531 530
f 531 525 530
f 525 454 530
f 525 448 454
f 527 456 452
f 534 533 457
f 534 457 456
f 529 534 456
f 527 529 456
f 536 535 533
f 536 533 534
f 535 536 532
f 530 535 532
f 537 535 530
f 458 537 454
f 454 537 530
f 533 460 457
f 460 533 461
f 533 538 461
f 533 535 538
f 539 535 537
f 538 535 539
f 462 539 458
f 458 539 537
f 538 463 461
f 463 538 464
f 464 538 539
f 464 539 462
f 540 465 466
f 468 540 466
f 542 541 472
f 472 541 471
f 543 472 473
f 543 542 472
f 544 473 474
f 544 543 473
f 545 474 475
f 545 544 474
f 475 465 540
f 546 475 540
f 545 475 546
f 546 540 468
f 476 546 468
f 547 546 476
f 548 476 477
f 548 547 476
f 550 548 549
f 548 478 549
f 548 477 478
f 479 549 478
f 552 481 551
f 481 541 551
f 481 471 541
f 553 552 551
f 555 554 482
f 555 482 483
f 549 484 550
f 484 554 550
f 484 482 554
f 484 549 479
f 556 486 487
f 557 556 487
f 557 487 481
f 558 557 481
f 552 558 481
f 558 552 553
f 489 555 483
f 489 559 555
f 560 490 491
f 560 491 561
f 491 562 561
f 491 492 562
f 563 492 493
f 563 562 492
f 493 486 556
f 564 493 556
f 563 493 564
f 564 556 557
f 566 565 494
f 566 494 495
f 489 494 559
f 559 494 565
f 569 568 567
f 571 570 567
f 567 570 569
f 497 498 571
f 498 570 571
f 498 572 570
f 573 498 499
f 573 572 498
f 499 490 560
f 574 499 560
f 573 499 574
f 574 560 561
f 500 576 575
f 566 500 575
f 495 500 566
f 576 577 575
f 568 578 567
f 567 578 571
f 571 578 579
f 497 571 579
f 580 497 579
f 501 497 580
f 582 581 576
f 500 582 576
f 503 582 500
f 576 581 577
f 580 583 501
f 501 583 504
f 585 584 506
f 504 585 506
f 583 585 504
f 586 584 585
f 588 587 509
f 588 509 508
f 503 509 582
f 582 509 587
f 589 511 584
f 584 511 506
f 584 586 590
f 584 590 589
f 592 591 513
f 592 513 514
f 508 513 588
f 588 513 591
f 589 515 511
f 517 515 589
f 590 517 589
f 593 517 590
f 518 592 514
f 518 594 592
f 593 595 517
f 517 595 519
f 519 596 520
f 595 596 519
f 522 520 596
f 522 596 597
f 523 594 518
f 523 598 594
f 600 524 599
f 524 597 599
f 524 522 597
f 602 601 600
f 602 600 599
f 604 603 601
f 604 601 602
f 605 603 604
f 608 607 606
f 607 598 606
f 598 525 606
f 598 523 525
f 600 526 524
f 526 600 528
f 528 600 601
f 528 601 529
f 601 609 529
f 601 603 609
f 603 605 610
f 611 603 610
f 609 603 611
f 611 610 608
f 611 608 606
f 532 611 606
f 531 532 606
f 531 606 525
f 609 534 529
f 534 609 536
f 536 609 611
f 536 611 532
f 612 541 542
f 543 613 542
f 542 613 612
f 613 543 614
f 543 615 614
f 543 544 615
f 616 544 545
f 616 615 544
f 617 545 546
f 617 616 545
f 618 546 547
f 618 617 546
f 619 547 548
f 619 618 547
f 548 550 619
f 619 550 620
f 612 551 541
f 612 613 621
f 553 612 621
f 622 553 621
f 612 553 551
f 621 613 614
f 624 623 554
f 624 554 555
f 550 554 620
f 620 554 623
f 625 557 558
f 626 625 558
f 553 626 558
f 622 626 553
f 559 624 555
f 559 627 624
f 628 561 562
f 563 629 562
f 562 629 628
f 629 563 630
f 563 631 630
f 563 564 631
f 564 557 625
f 632 564 625
f 631 564 632
f 632 625 626
f 566 633 565
f 633 634 565
f 634 559 565
f 634 627 559
f 636 635 569
f 569 635 568
f 638 636 637
f 636 570 637
f 636 569 570
f 637 570 639
f 570 640 639
f 570 572 640
f 641 572 573
f 641 640 572
f 642 573 574
f 642 641 573
f 574 561 628
f 643 574 628
f 642 574 643
f 643 628 629
f 643 629 644
f 644 629 630
f 575 633 566
f 575 577 633
f 577 634 633
f 577 645 634
f 635 646 568
f 568 646 578
f 637 579 638
f 579 646 638
f 579 578 646
f 648 647 580
f 648 580 579
f 639 648 579
f 637 639 579
f 650 649 647
f 650 647 648
f 651 649 650
f 653 652 581
f 653 581 582
f 577 581 645
f 645 581 652
f 647 583 580
f 583 647 585
f 585 647 649
f 655 654 586
f 655 586 585
f 651 655 585
f 649 651 585
f 656 654 655
f 658 657 587
f 658 587 588
f 582 587 653
f 653 587 657
f 659 590 654
f 654 590 586
f 654 656 660
f 654 660 659
f 592 661 591
f 661 662 591
f 662 588 591
f 662 658 588
f 663 593 659
f 659 593 590
f 659 660 664
f 665 659 664
f 663 659 665
f 667 666 665
f 667 665 664
f 668 666 667
f 594 669 661
f 594 661 592
f 662 661 670
f 670 661 669
f 663 595 593
f 595 663 596
f 596 663 665
f 596 665 597
f 665 671 597
f 665 666 671
f 666 668 672
f 673 666 672
f 671 666 673
f 674 673 672
f 677 676 675
f 676 678 669
f 598 676 669
f 594 598 669
f 675 676 598
f 669 678 670
f 671 599 597
f 599 671 602
f 602 671 673
f 674 679 673
f 679 602 673
f 679 604 602
f 681 680 605
f 604 681 605
f 679 681 604
f 680 681 677
f 680 677 675
f 608 680 675
f 607 608 675
f 607 675 598
f 680 610 605
f 610 680 608
f 682 614 615
f 682 615 683
f 615 684 683
f 615 616 684
f 685 616 617
f 685 684 616
f 686 617 618
f 686 685 617
f 687 618 619
f 687 686 618
f 619 620 687
f 687 620 688
f 690 689 621
f 621 689 622
f 621 614 682
f 691 621 682
f 690 621 691
f 691 682 683
f 693 692 623
f 693 623 624
f 620 623 688
f 688 623 692
f 689 626 622
f 694 626 689
f 627 693 624
f 627 695 693
f 696 630 631
f 696 631 697
f 631 698 697
f 631 632 698
f 632 626 694
f 632 694 698
f 634 695 627
f 634 699 695
f 700 635 636
f 638 700 636
f 701 639 640
f 641 702 640
f 640 702 701
f 642 703 641
f 641 703 702
f 703 642 704
f 642 705 704
f 642 643 705
f 706 643 644
f 706 705 643
f 644 630 696
f 707 644 696
f 706 644 707
f 707 696 697
f 710 709 708
f 709 699 708
f 699 645 708
f 699 634 645
f 700 646 635
f 646 700 638
f 701 648 639
f 648 701 650
f 650 701 702
f 650 702 651
f 702 711 651
f 702 703 711
f 703 704 712
f 713 703 712
f 711 703 713
f 714 713 712
f 717 716 715
f 715 716 710
f 715 710 708
f 653 715 708
f 652 653 708
f 652 708 645
f 711 655 651
f 655 711 656
f 711 718 656
f 711 713 718
f 713 714 719
f 720 713 719
f 718 713 720
f 721 720 719
f 717 715 657
f 658 717 657
f 722 717 658
f 657 715 653
f 723 660 718
f 718 660 656
f 724 718 720
f 723 718 724
f 720 721 725
f 720 725 724
f 662 722 658
f 662 726 722
f 723 664 660
f 664 723 667
f 667 723 724
f 668 667 724
f 725 668 724
f 727 668 725
f 670 726 662
f 670 728 726
f 727 729 668
f 668 729 672
f 731 730 674
f 672 731 674
f 729 731 672
f 733 732 730
f 733 730 731
f 676 677 732
f 733 676 732
f 734 676 733
f 676 735 678
f 734 735 676
f 670 678 728
f 728 678 735
f 730 679 674
f 679 730 681
f 681 730 732
f 681 732 677
f 736 683 684
f 736 684 737
f 684 738 737
f 684 685 738
f 739 685 686
f 739 738 685
f 740 686 687
f 740 739 686
f 687 688 740
f 740 688 741
f 743 742 690
f 690 742 689
f 744 690 691
f 744 743 690
f 691 683 736
f 745 691 736
f 744 691 745
f 745 736 737
f 747 746 692
f 747 692 693
f 688 692 741
f 741 692 746
f 742 694 689
f 748 694 742
f 695 747 693
f 695 749 747
f 752 751 750
f 697 698 750
f 698 752 750
f 698 753 752
f 698 694 748
f 698 748 753
f 756 755 754
f 755 749 754
f 749 699 754
f 749 695 699
f 757 704 705
f 757 705 758
f 705 759 758
f 705 706 759
f 707 750 751
f 759 707 751
f 706 707 759
f 750 707 697
f 756 754 709
f 710 756 709
f 760 756 710
f 709 754 699
f 757 712 704
f 762 761 714
f 762 714 712
f 758 762 712
f 757 758 712
f 764 763 761
f 764 761 762
f 765 763 764
f 717 766 716
f 766 767 716
f 767 710 716
f 767 760 710
f 761 719 714
f 719 761 721
f 761 768 721
f 761 763 768
f 763 765 769
f 763 769 768
f 771 770 766
f 717 771 766
f 722 771 717
f 766 770 767
f 772 725 768
f 768 725 721
f 768 769 773
f 768 773 772
f 726 771 722
f 726 774 771
f 775 727 772
f 772 727 725
f 772 773 776
f 777 772 776
f 775 772 777
f 779 778 777
f 779 777 776
f 780 778 779
f 728 782 781
f 774 728 781
f 726 728 774
f 782 783 781
f 775 729 727
f 729 775 731
f 731 775 777
f 731 777 733
f 733 777 778
f 780 784 778
f 784 733 778
f 784 734 733
f 734 785 735
f 784 785 734
f 728 735 782
f 735 786 782
f 735 785 786
f 782 786 783
f 787 737 738
f 739 788 738
f 738 788 787
f 740 789 739
f 739 789 788
f 741 789 740
f 790 742 743
f 744 791 743
f 743 791 790
f 745 792 744
f 744 792 791
f 737 787 745
f 787 792 745
f 787 793 792
f 788 795 794
f 793 788 794
f 787 788 793
f 747 796 746
f 796 788 746
f 788 789 746
f 796 795 788
f 746 789 741
f 797 748 790
f 790 748 742
f 791 799 798
f 797 791 798
f 790 791 797
f 799 791 792
f 799 792 800
f 802 801 800
f 792 802 800
f 793 802 792
f 793 794 803
f 793 803 802
f 749 796 747
f 749 804 796
f 806 805 752
f 752 805 751
f 807 752 753
f 807 806 752
f 753 748 797
f 808 753 797
f 807 753 808
f 808 797 798
f 809 801 802
f 810 809 756
f 809 810 803
f 755 803 810
f 803 755 802
f 756 802 755
f 802 756 809
f 810 811 755
f 811 749 755
f 811 804 749
f 812 758 759
f 751 805 813
f 812 751 813
f 814 812 813
f 759 751 812
f 815 814 813
f 817 816 810
f 756 817 810
f 760 817 756
f 810 816 811
f 812 762 758
f 762 812 764
f 764 812 814
f 765 764 814
f 815 765 814
f 818 765 815
f 767 817 760
f 767 819 817
f 818 769 765
f 820 769 818
f 771 821 770
f 821 822 770
f 822 767 770
f 822 819 767
f 820 773 769
f 823 773 820
f 774 824 821
f 774 821 771
f 822 821 825
f 825 821 824
f 776 773 826
f 773 827 826
f 773 823 827
f 828 779 776
f 828 776 826
f 828 780 779
f 781 824 774
f 781 783 824
f 783 825 824
f 783 829 825
f 827 830 826
f 826 830 828
f 828 830 831
f 828 831 780
f 831 784 780
f 831 832 784
f 784 833 785
f 832 833 784
f 785 834 786
f 833 834 785
f 783 786 829
f 829 786 834
f 836 835 795
f 795 835 794
f 795 796 836
f 836 796 837
f 838 798 799
f 800 839 799
f 799 839 838
f 801 839 800
f 841 803 840
f 803 835 840
f 803 794 835
f 840 837 841
f 837 804 841
f 837 796 804
f 842 805 806
f 807 843 806
f 806 843 842
f 808 844 807
f 807 844 843
f 798 838 808
f 838 844 808
f 838 845 844
f 846 838 839
f 845 838 846
f 809 847 801
f 847 839 801
f 847 846 839
f 803 841 809
f 841 847 809
f 841 848 847
f 811 848 804
f 804 848 841
f 842 813 805
f 813 842 815
f 842 849 815
f 842 843 849
f 850 843 844
f 849 843 850
f 851 844 845
f 850 844 851
f 852 845 846
f 851 845 852
f 853 846 847
f 852 846 853
f 817 853 816
f 853 848 816
f 853 847 848
f 816 848 811
f 854 818 849
f 849 818 815
f 855 849 850
f 854 849 855
f 856 850 851
f 855 850 856
f 857 851 852
f 856 851 857
f 858 852 853
f 857 852 858
f 819 858 817
f 817 858 853
f 859 820 854
f 854 820 818
f 860 854 855
f 859 854 860
f 861 855 856
f 860 855 861
f 862 856 857
f 861 856 862
f 863 857 858
f 862 857 863
f 822 863 819
f 819 863 858
f 864 823 859
f 859 823 820
f 865 859 860
f 864 859 865
f 866 860 861
f 865 860 866
f 867 861 862
f 866 861 867
f 868 862 863
f 867 862 868
f 825 868 822
f 822 868 863
f 869 827 864
f 864 827 823
f 865 871 870
f 869 865 870
f 864 865 869
f 873 872 871
f 865 873 871
f 866 873 865
f 874 866 867
f 873 866 874
f 875 867 868
f 874 867 875
f 829 875 825
f 825 875 868
f 869 830 827
f 870 876 869
f 876 830 869
f 876 831 830
f 873 832 872
f 832 876 872
f 832 831 876
f 832 873 833
f 833 873 874
f 833 874 834
f 834 874 875
f 834 875 829
f 877 835 836
f 837 877 836
f 877 840 835
f 840 877 837
f 878 870 871
f 872 878 871
f 878 876 870
f 876 878 872
