v -47.1 24.0 18.0
v -47.0 24.0 17.9
v -47.0 23.9 18.0
v -47.0 24.0 18.1
v -47.0 25.0 17.0
v -47.0 25.0 17.0
v -47.0 25.0 17.0
v -47.5 25.0 18.0
v -47.0 24.4 19.0
v -47.4 25.0 19.0
v -47.0 24.5 20.0
v -47.4 25.0 20.0
v -47.0 24.8 21.0
v -47.2 25.0 21.0
v -47.0 25.0 21.2
v -47.0 25.0 17.0
v -47.7 26.0 18.0
v -47.0 26.0 17.6
v -47.4 26.0 19.0
v -47.3 26.0 20.0
v -47.0 26.0 21.0
v -47.0 26.0 21.0
v -47.0 26.3 18.0
v -47.0 26.4 19.0
v -47.0 26.3 20.0
v -46.0 24.0 17.6
v -46.0 23.6 18.0
v -46.0 23.6 19.0
v -46.6 24.0 19.0
v -46.0 23.7 20.0
v -46.4 24.0 20.0
v -46.0 24.0 21.0
v -46.0 24.0 21.0
v -46.0 24.0 21.0
v -46.0 25.0 16.8
v -46.0 24.7 17.0
v -46.0 25.0 21.2
v -46.0 25.3 17.0
v -46.0 26.0 17.5
v -46.0 25.3 21.0
v -46.0 26.0 20.4
v -46.0 26.4 18.0
v -46.0 26.5 19.0
v -46.0 26.3 20.0
v -45.0 24.0 17.7
v -45.0 23.8 18.0
v -45.0 23.6 19.0
v -45.0 23.8 20.0
v -46.0 24.0 21.0
v -45.0 24.0 20.3
v -45.0 25.0 16.9
v -45.0 24.9 17.0
v -45.7 25.0 21.0
v -45.0 25.0 20.4
v -45.0 25.1 17.0
v -45.0 26.0 17.7
v -45.6 26.0 20.0
v -45.0 25.4 20.0
v -45.0 26.0 19.4
v -45.0 26.2 18.0
v -45.0 26.3 19.0
v -44.7 24.0 18.0
v -44.6 24.0 19.0
v -44.8 24.0 20.0
v -44.9 25.0 17.0
v -44.0 25.0 17.9
v -44.0 24.9 18.0
v -44.0 24.9 19.0
v -44.0 25.0 19.1
v -44.7 25.0 20.0
v -44.7 26.0 18.0
v -44.0 25.1 18.0
v -44.7 26.0 19.0
v -44.0 25.1 19.0
v -43.1 19.0 22.0
v -43.0 19.0 21.9
v -43.0 18.9 22.0
v -43.0 19.0 22.7
v -43.0 19.7 22.0
v -43.9 25.0 18.0
v -43.9 25.0 19.0
v -42.0 19.0 21.9
v -42.0 18.9 22.0
v -42.0 19.0 22.7
v -42.0 19.7 22.0
v -41.9 19.0 22.0
f 3 2 1
f 1 4 3
f 7 6 5
f 7 5 2
f 5 1 2
f 5 8 1
f 4 1 9
f 1 10 9
f 1 8 10
f 12 11 10
f 10 11 9
f 14 13 12
f 12 13 11
f 14 15 13
f 6 16 5
f 18 17 16
f 17 5 16
f 17 8 5
f 8 19 10
f 8 17 19
f 10 20 12
f 10 19 20
f 22 14 21
f 14 20 21
f 14 12 20
f 14 22 15
f 18 23 17
f 17 23 19
f 19 23 24
f 19 24 20
f 20 24 25
f 20 25 21
f 27 26 3
f 3 26 2
f 29 28 4
f 28 3 4
f 28 27 3
f 31 30 29
f 29 30 28
f 33 32 31
f 31 32 30
f 33 34 32
f 36 35 7
f 7 35 6
f 7 2 26
f 7 26 36
f 9 29 4
f 29 9 11
f 29 11 31
f 31 11 13
f 31 13 33
f 13 15 33
f 15 34 33
f 15 37 34
f 35 38 6
f 6 38 16
f 18 16 38
f 18 38 39
f 41 40 22
f 41 22 21
f 15 22 37
f 37 22 40
f 39 42 18
f 18 42 23
f 23 43 24
f 42 43 23
f 24 44 25
f 43 44 24
f 21 25 41
f 41 25 44
f 46 45 27
f 27 45 26
f 47 27 28
f 47 46 27
f 48 28 30
f 48 47 28
f 50 48 49
f 48 32 49
f 48 30 32
f 34 49 32
f 52 51 36
f 36 51 35
f 36 26 45
f 36 45 52
f 50 49 53
f 50 53 54
f 37 53 34
f 34 53 49
f 51 55 35
f 35 55 38
f 39 38 55
f 39 55 56
f 59 58 57
f 57 58 54
f 57 54 53
f 41 57 53
f 40 41 53
f 40 53 37
f 56 60 39
f 39 60 42
f 42 61 43
f 60 61 42
f 57 44 59
f 44 61 59
f 44 43 61
f 44 57 41
f 62 45 46
f 47 63 46
f 46 63 62
f 48 64 47
f 47 64 63
f 50 64 48
f 65 51 52
f 66 65 52
f 66 52 45
f 67 66 45
f 62 67 45
f 67 62 63
f 67 63 68
f 70 69 68
f 63 70 68
f 64 70 63
f 54 70 50
f 50 70 64
f 65 55 51
f 72 71 56
f 72 56 55
f 66 72 55
f 65 66 55
f 74 73 71
f 74 71 72
f 73 74 69
f 73 69 70
f 59 73 70
f 58 59 70
f 58 70 54
f 71 60 56
f 60 71 61
f 61 71 73
f 61 73 59
f 77 76 75
f 75 78 77
f 76 79 75
f 75 79 78
f 80 66 67
f 68 81 67
f 67 81 80
f 69 81 68
f 80 72 66
f 72 80 74
f 74 80 81
f 74 81 69
f 83 82 77
f 77 82 76
f 77 78 83
f 83 78 84
f 82 85 76
f 76 85 79
f 78 79 84
f 84 79 85
f 86 82 83
f 84 86 83
f 86 85 82
f 85 86 84
