v 7.9 -9.0 -18.0
v 8.0 -9.0 -18.8
v 8.0 -9.1 -18.0
v 8.0 -9.0 -17.8
v 8.0 -8.8 -18.0
v 8.9 -10.0 -20.0
v 9.0 -10.0 -20.1
v 9.0 -10.1 -20.0
v 9.0 -10.5 -19.0
v 8.6 -10.0 -19.0
v 9.0 -10.4 -18.0
v 8.6 -10.0 -18.0
v 9.0 -10.0 -17.5
v 9.0 -9.9 -20.0
v 8.0 -9.0 -19.0
v 9.0 -9.0 -19.5
v 9.0 -9.5 -17.0
v 8.5 -9.0 -17.0
v 9.0 -9.0 -16.1
v 9.0 -8.6 -19.0
v 8.8 -8.0 -18.0
v 9.0 -8.0 -18.1
v 8.3 -8.0 -17.0
v 9.0 -8.0 -16.1
v 9.0 -7.9 -18.0
v 9.0 -7.7 -17.0
v 9.9 -12.0 -21.0
v 10.0 -12.0 -21.1
v 10.0 -12.1 -21.0
v 10.0 -12.3 -20.0
v 9.8 -12.0 -20.0
v 10.0 -12.0 -19.6
v 10.0 -11.9 -21.0
v 9.5 -11.0 -20.0
v 10.0 -11.0 -20.6
v 10.0 -11.6 -19.0
v 9.5 -11.0 -19.0
v 10.0 -11.3 -18.0
v 9.7 -11.0 -18.0
v 10.0 -11.0 -17.7
v 10.0 -10.0 -20.6
v 10.0 -10.3 -17.0
v 9.6 -10.0 -17.0
v 10.0 -10.0 -16.8
v 9.5 -9.0 -20.0
v 10.0 -9.0 -20.4
v 10.0 -9.0 -16.7
v 10.0 -8.6 -20.0
v 10.0 -8.4 -19.0
v 9.2 -8.0 -18.0
v 10.0 -8.5 -18.0
v 9.4 -8.0 -17.0
v 10.0 -8.7 -17.0
v 11.0 -14.0 -22.0
v 11.0 -14.0 -22.0
v 11.0 -14.0 -22.0
v 11.0 -14.3 -21.0
v 10.8 -14.0 -21.0
v 11.0 -14.0 -20.6
v 10.8 -13.0 -22.0
v 11.0 -13.0 -22.2
v 10.4 -13.0 -21.0
v 11.0 -13.5 -20.0
v 10.6 -13.0 -20.0
v 11.0 -13.0 -19.5
v 11.0 -12.6 -22.0
v 11.0 -12.0 -21.7
v 11.0 -12.6 -19.0
v 10.5 -12.0 -19.0
v 11.0 -12.0 -18.4
v 10.4 -11.0 -21.0
v 11.0 -11.0 -21.5
v 11.0 -11.6 -18.0
v 11.0 -11.0 -17.4
v 10.5 -10.0 -21.0
v 11.0 -10.0 -21.6
v 11.0 -10.1 -17.0
v 11.0 -10.0 -16.9
v 10.8 -9.0 -22.0
v 11.0 -9.0 -22.2
v 11.0 -9.4 -22.0
v 10.4 -9.0 -21.0
v 10.7 -9.0 -18.0
v 11.0 -9.3 -18.0
v 11.0 -9.0 -18.3
v 10.3 -9.0 -17.0
v 11.0 -9.9 -17.0
v 10.9 -8.0 -22.0
v 11.0 -8.0 -22.1
v 10.4 -8.0 -21.0
v 10.4 -8.0 -20.0
v 10.8 -8.0 -19.0
v 11.0 -8.0 -18.9
v 11.0 -7.9 -22.0
v 10.3 -7.0 -21.0
v 11.0 -7.0 -21.4
v 10.7 -7.0 -20.0
v 11.0 -7.0 -19.7
v 11.0 -7.8 -19.0
v 11.0 -6.7 -21.0
v 11.0 -6.8 -20.0
v 11.0 -14.0 -22.0
v 12.0 -14.0 -21.5
v 12.0 -14.7 -21.0
v 12.0 -14.4 -20.0
v 11.5 -14.0 -20.0
v 12.0 -14.2 -19.0
v 11.7 -14.0 -19.0
v 12.0 -14.0 -18.6
v 12.0 -13.0 -22.3
v 12.0 -13.4 -22.0
v 11.3 -13.0 -19.0
v 12.0 -13.5 -18.0
v 11.7 -13.0 -18.0
v 12.0 -13.0 -17.5
v 11.4 -12.0 -22.0
v 12.0 -12.0 -22.5
v 11.3 -12.0 -18.0
v 12.0 -12.5 -17.0
v 11.7 -12.0 -17.0
v 12.0 -12.0 -16.6
v 11.4 -11.0 -22.0
v 12.0 -11.0 -22.8
v 11.5 -11.0 -17.0
v 12.0 -11.0 -16.6
v 11.4 -10.0 -22.0
v 12.0 -10.0 -22.5
v 12.0 -10.0 -18.0
v 12.0 -10.0 -18.0
v 12.0 -10.0 -18.0
v 12.0 -10.6 -17.0
v 11.1 -10.0 -17.0
v 12.0 -9.0 -22.3
v 12.0 -9.0 -18.4
v 12.0 -8.5 -22.0
v 11.1 -8.0 -22.0
v 12.0 -8.0 -21.7
v 11.4 -8.0 -19.0
v 12.0 -8.2 -19.0
v 12.0 -8.0 -19.2
v 12.0 -7.0 -21.2
v 12.0 -7.0 -19.8
v 12.0 -6.8 -21.0
v 12.0 -6.8 -20.0
v 12.6 -14.0 -21.0
v 13.0 -14.0 -20.5
v 13.0 -14.3 -20.0
v 13.0 -14.5 -19.0
v 13.0 -14.5 -18.0
v 12.4 -14.0 -18.0
v 13.0 -14.3 -17.0
v 12.7 -14.0 -17.0
v 13.0 -14.0 -16.6
v 12.5 -13.0 -22.0
v 13.0 -13.0 -21.6
v 13.0 -13.6 -21.0
v 12.3 -13.0 -17.0
v 13.0 -13.4 -16.0
v 12.7 -13.0 -16.0
v 13.0 -13.0 -15.7
v 13.0 -12.0 -22.4
v 13.0 -12.6 -22.0
v 12.5 -12.0 -16.0
v 13.0 -12.0 -15.4
v 13.0 -11.0 -22.6
v 12.6 -11.0 -16.0
v 13.0 -11.0 -15.3
v 13.0 -10.0 -22.3
v 12.0 -10.0 -18.0
v 13.0 -10.0 -17.3
v 13.0 -10.3 -17.0
v 13.0 -10.7 -16.0
v 13.0 -9.5 -22.0
v 12.5 -9.0 -22.0
v 13.0 -9.0 -21.7
v 12.6 -9.0 -18.0
v 13.0 -9.0 -17.7
v 13.0 -8.0 -21.3
v 12.5 -8.0 -19.0
v 13.0 -8.0 -18.8
v 13.0 -8.6 -18.0
v 13.0 -7.7 -21.0
v 12.3 -7.0 -21.0
v 12.3 -7.0 -20.0
v 13.0 -7.6 -20.0
v 13.0 -7.8 -19.0
v 13.5 -14.0 -20.0
v 14.0 -14.0 -19.6
v 14.0 -14.5 -19.0
v 14.0 -14.9 -18.0
v 14.0 -14.6 -17.0
v 14.0 -14.5 -16.0
v 13.6 -14.0 -16.0
v 14.0 -14.0 -15.7
v 14.0 -13.0 -21.5
v 14.0 -13.4 -21.0
v 14.0 -13.7 -20.0
v 14.0 -13.0 -15.0
v 14.0 -13.0 -15.0
v 14.0 -13.0 -15.0
v 14.0 -12.0 -22.2
v 14.0 -12.3 -22.0
v 13.8 -12.0 -15.0
v 14.0 -12.0 -14.9
v 14.0 -11.0 -22.3
v 14.0 -11.6 -15.0
v 14.0 -11.0 -15.3
v 14.0 -10.5 -22.0
v 13.5 -10.0 -22.0
v 14.0 -10.0 -21.7
v 13.4 -10.0 -17.0
v 14.0 -10.0 -16.4
v 14.0 -10.4 -16.0
v 14.0 -9.0 -21.4
v 14.0 -9.4 -17.0
v 14.0 -9.0 -17.3
v 14.0 -8.5 -21.0
v 13.3 -8.0 -21.0
v 13.5 -8.0 -20.0
v 14.0 -8.4 -20.0
v 13.3 -8.0 -19.0
v 14.0 -8.3 -19.0
v 13.9 -8.0 -18.0
v 14.0 -8.0 -18.2
v 14.0 -8.0 -17.9
v 14.0 -7.9 -18.0
v 15.0 -14.0 -19.5
v 15.0 -14.4 -19.0
v 15.0 -14.5 -18.0
v 15.0 -14.3 -17.0
v 14.3 -14.0 -16.0
v 15.0 -14.0 -16.6
v 15.0 -13.0 -21.2
v 15.0 -13.2 -21.0
v 15.0 -13.5 -20.0
v 14.7 -13.0 -16.0
v 15.0 -13.0 -16.3
v 14.0 -13.0 -15.0
v 14.3 -12.0 -22.0
v 15.0 -12.0 -21.5
v 15.0 -12.6 -16.0
v 15.0 -12.0 -15.5
v 14.2 -12.0 -15.0
v 14.4 -11.0 -22.0
v 15.0 -11.0 -21.5
v 15.0 -11.2 -15.0
v 14.7 -11.0 -15.0
v 15.0 -11.0 -14.9
v 15.0 -10.0 -21.5
v 14.4 -10.0 -16.0
v 15.0 -10.0 -15.0
v 15.0 -10.2 -15.0
v 15.0 -9.0 -21.2
v 14.4 -9.0 -17.0
v 15.0 -9.0 -16.5
v 15.0 -9.4 -16.0
v 15.0 -8.8 -21.0
v 15.0 -8.5 -20.0
v 15.0 -8.4 -19.0
v 15.0 -8.0 -18.4
v 15.0 -8.5 -17.0
v 15.0 -8.0 -17.6
v 15.0 -7.8 -18.0
v 16.0 -14.0 -19.1
v 16.0 -14.1 -19.0
v 16.0 -14.1 -18.0
v 15.4 -14.0 -17.0
v 16.0 -14.0 -17.8
v 15.2 -13.0 -21.0
v 15.6 -13.0 -20.0
v 16.0 -13.0 -19.5
v 16.0 -13.0 -18.0
v 16.0 -13.1 -18.0
v 16.0 -13.0 -18.0
v 15.9 -13.0 -17.0
v 15.5 -12.0 -21.0
v 16.0 -12.0 -20.4
v 16.0 -12.5 -20.0
v 16.0 -13.0 -18.0
v 16.0 -12.0 -17.3
v 15.8 -12.0 -17.0
v 15.4 -12.0 -16.0
v 15.6 -11.0 -21.0
v 16.0 -11.0 -20.7
v 16.0 -11.8 -17.0
v 16.0 -11.3 -16.0
v 15.1 -11.0 -15.0
v 16.0 -11.0 -15.7
v 16.0 -10.0 -21.2
v 16.0 -10.3 -21.0
v 16.0 -10.0 -15.5
v 16.0 -9.7 -21.0
v 15.4 -9.0 -21.0
v 16.0 -9.0 -20.5
v 15.6 -9.0 -16.0
v 16.0 -9.0 -15.7
v 16.0 -8.6 -20.0
v 16.0 -8.4 -19.0
v 16.0 -8.0 -18.5
v 15.6 -8.0 -17.0
v 16.0 -8.0 -16.7
v 16.0 -8.7 -16.0
v 16.0 -7.6 -18.0
v 16.0 -7.7 -17.0
v 16.1 -14.0 -19.0
v 16.1 -14.0 -18.0
v 16.3 -13.0 -19.0
v 16.4 -12.0 -20.0
v 16.6 -12.0 -19.0
v 16.4 -12.0 -18.0
v 17.0 -11.0 -20.2
v 17.0 -11.3 -20.0
v 17.0 -11.4 -19.0
v 17.0 -11.0 -18.4
v 16.7 -11.0 -18.0
v 16.5 -11.0 -17.0
v 16.3 -11.0 -16.0
v 16.2 -10.0 -21.0
v 17.0 -10.0 -20.5
v 17.0 -10.7 -18.0
v 17.0 -10.4 -17.0
v 17.0 -10.0 -16.5
v 16.6 -10.0 -16.0
v 17.0 -9.0 -20.3
v 17.0 -9.3 -16.0
v 17.0 -9.0 -15.9
v 17.0 -8.7 -20.0
v 17.0 -8.4 -19.0
v 17.0 -8.0 -18.5
v 17.0 -8.7 -16.0
v 17.0 -8.0 -16.4
v 17.0 -7.6 -18.0
v 17.0 -7.5 -17.0
v 17.2 -11.0 -20.0
v 17.4 -11.0 -19.0
v 17.6 -10.0 -20.0
v 18.0 -10.0 -19.4
v 18.0 -10.3 -19.0
v 18.0 -10.3 -18.0
v 17.5 -10.0 -17.0
v 18.0 -10.0 -17.6
v 18.0 -9.0 -20.0
v 18.0 -9.0 -20.0
v 18.0 -9.4 -17.0
v 17.2 -9.0 -16.0
v 18.0 -9.0 -16.6
v 18.0 -9.0 -20.0
v 18.0 -8.6 -19.0
v 18.0 -8.0 -18.3
v 18.0 -8.0 -16.2
v 18.0 -7.7 -18.0
v 18.0 -7.2 -17.0
v 18.3 -10.0 -19.0
v 18.2 -10.0 -18.0
v 18.0 -9.0 -20.0
v 18.3 -9.0 -19.0
v 18.5 -9.0 -18.0
v 18.3 -9.0 -17.0
v 18.2 -8.0 -18.0
v 18.4 -8.0 -17.0
f 3 2 1
f 1 4 3
f 2 5 1
f 1 5 4
f 8 7 6
f 10 9 6
f 6 9 8
f 12 11 10
f 10 11 9
f 12 13 11
f 7 14 6
f 16 15 14
f 15 6 14
f 15 10 6
f 15 2 3
f 12 15 3
f 10 15 12
f 18 17 4
f 4 17 3
f 17 13 3
f 13 12 3
f 18 19 17
f 16 20 15
f 20 22 21
f 20 21 5
f 15 20 5
f 2 15 5
f 18 4 5
f 21 18 5
f 23 18 21
f 19 18 24
f 24 18 23
f 22 25 21
f 21 25 23
f 23 25 26
f 23 26 24
f 29 28 27
f 31 30 27
f 27 30 29
f 31 32 30
f 28 33 27
f 35 34 33
f 34 27 33
f 34 31 27
f 32 31 36
f 31 37 36
f 31 34 37
f 39 38 37
f 37 38 36
f 39 40 38
f 34 35 8
f 35 7 8
f 35 41 7
f 34 8 9
f 34 9 37
f 37 9 11
f 37 11 39
f 43 42 13
f 13 42 11
f 42 40 11
f 40 39 11
f 43 44 42
f 14 7 45
f 7 46 45
f 7 41 46
f 45 16 14
f 17 43 13
f 17 19 43
f 19 44 43
f 19 47 44
f 46 48 45
f 45 48 16
f 48 20 16
f 48 49 20
f 51 50 22
f 20 51 22
f 49 51 20
f 53 52 50
f 53 50 51
f 53 47 52
f 47 24 52
f 47 19 24
f 50 25 22
f 25 50 26
f 26 50 52
f 26 52 24
f 56 55 54
f 58 57 54
f 54 57 56
f 58 59 57
f 54 55 60
f 60 55 61
f 54 62 58
f 54 60 62
f 59 58 63
f 58 64 63
f 58 62 64
f 64 65 63
f 61 66 60
f 67 28 29
f 60 67 29
f 62 60 29
f 66 67 60
f 62 29 30
f 62 30 64
f 69 68 32
f 32 68 30
f 68 65 30
f 65 64 30
f 69 70 68
f 33 28 71
f 28 72 71
f 28 67 72
f 71 35 33
f 36 69 32
f 73 70 69
f 36 73 69
f 38 73 36
f 38 40 73
f 73 40 74
f 71 72 75
f 75 72 76
f 75 41 35
f 75 35 71
f 77 74 40
f 77 40 42
f 42 44 77
f 77 44 78
f 81 80 79
f 81 79 76
f 79 75 76
f 79 82 75
f 82 46 41
f 82 41 75
f 85 84 83
f 87 86 83
f 87 83 84
f 87 78 86
f 78 47 86
f 78 44 47
f 79 80 88
f 88 80 89
f 79 90 82
f 79 88 90
f 91 48 46
f 82 91 46
f 90 91 82
f 92 49 48
f 92 48 91
f 93 85 83
f 49 93 83
f 51 49 83
f 93 49 92
f 51 83 53
f 53 83 86
f 53 86 47
f 89 94 88
f 96 95 94
f 95 88 94
f 95 90 88
f 90 97 91
f 90 95 97
f 99 92 98
f 92 97 98
f 92 91 97
f 92 99 93
f 96 100 95
f 95 100 97
f 97 100 101
f 97 101 98
f 102 55 56
f 102 56 103
f 56 104 103
f 56 57 104
f 106 105 59
f 105 57 59
f 105 104 57
f 108 107 106
f 106 107 105
f 108 109 107
f 111 110 102
f 110 55 102
f 110 61 55
f 111 102 103
f 63 106 59
f 106 63 65
f 112 106 65
f 108 106 112
f 109 108 113
f 108 114 113
f 108 112 114
f 114 115 113
f 66 61 116
f 61 117 116
f 61 110 117
f 116 67 66
f 68 112 65
f 112 68 70
f 118 112 70
f 114 112 118
f 115 114 119
f 114 120 119
f 114 118 120
f 120 121 119
f 116 117 122
f 122 117 123
f 122 72 67
f 122 67 116
f 73 118 70
f 118 73 74
f 124 118 74
f 120 118 124
f 121 120 125
f 125 120 124
f 122 123 126
f 126 123 127
f 126 76 72
f 126 72 122
f 130 129 128
f 131 124 129
f 74 129 124
f 129 74 128
f 77 128 74
f 128 77 132
f 131 125 124
f 78 132 77
f 126 127 81
f 127 80 81
f 127 133 80
f 126 81 76
f 130 128 84
f 85 130 84
f 134 130 85
f 84 128 87
f 87 128 132
f 87 132 78
f 136 89 135
f 89 133 135
f 89 80 133
f 137 136 135
f 140 139 138
f 139 134 138
f 134 93 138
f 134 85 93
f 136 94 89
f 96 94 136
f 137 96 136
f 141 96 137
f 140 138 99
f 98 140 99
f 142 140 98
f 99 138 93
f 141 143 96
f 96 143 100
f 100 144 101
f 143 144 100
f 98 101 142
f 142 101 144
f 145 103 104
f 145 104 146
f 104 147 146
f 104 105 147
f 148 105 107
f 148 147 105
f 150 149 109
f 149 107 109
f 149 148 107
f 152 151 150
f 150 151 149
f 152 153 151
f 154 110 111
f 155 154 111
f 155 111 103
f 156 155 103
f 145 156 103
f 156 145 146
f 113 150 109
f 150 113 115
f 157 150 115
f 152 150 157
f 153 152 158
f 152 159 158
f 152 157 159
f 159 160 158
f 162 161 154
f 161 110 154
f 161 117 110
f 162 154 155
f 119 157 115
f 157 119 121
f 163 157 121
f 159 157 163
f 160 159 164
f 164 159 163
f 161 123 117
f 165 123 161
f 125 166 163
f 125 163 121
f 164 163 167
f 167 163 166
f 165 127 123
f 168 127 165
f 130 169 129
f 129 169 170
f 171 129 170
f 131 129 171
f 125 131 166
f 131 172 166
f 131 171 172
f 166 172 167
f 174 133 173
f 133 168 173
f 133 127 168
f 175 174 173
f 134 176 169
f 134 169 130
f 170 169 177
f 177 169 176
f 174 135 133
f 137 135 174
f 175 137 174
f 178 137 175
f 140 179 139
f 179 180 139
f 139 180 134
f 180 181 134
f 181 176 134
f 176 181 177
f 183 141 182
f 141 178 182
f 141 137 178
f 185 184 183
f 185 183 182
f 185 186 179
f 142 185 179
f 140 142 179
f 184 185 142
f 179 186 180
f 183 143 141
f 143 183 144
f 144 183 184
f 144 184 142
f 187 146 147
f 187 147 188
f 147 189 188
f 147 148 189
f 190 148 149
f 190 189 148
f 191 149 151
f 191 190 149
f 193 192 153
f 192 151 153
f 192 191 151
f 193 194 192
f 196 195 156
f 156 195 155
f 156 146 187
f 197 156 187
f 196 156 197
f 197 187 188
f 158 193 153
f 199 198 160
f 160 198 158
f 198 194 158
f 194 193 158
f 199 200 198
f 202 201 162
f 162 201 161
f 162 155 195
f 162 195 202
f 164 203 199
f 164 199 160
f 200 199 204
f 204 199 203
f 201 165 161
f 205 165 201
f 207 206 203
f 164 207 203
f 167 207 164
f 203 206 204
f 209 168 208
f 168 205 208
f 168 165 205
f 210 209 208
f 170 211 171
f 171 211 212
f 213 171 212
f 172 171 213
f 167 172 207
f 207 172 213
f 209 173 168
f 175 173 209
f 210 175 209
f 214 175 210
f 216 215 211
f 170 216 211
f 177 216 170
f 211 215 212
f 218 178 217
f 178 214 217
f 178 175 214
f 220 219 218
f 220 218 217
f 222 221 219
f 222 219 220
f 222 180 221
f 222 181 180
f 222 224 223
f 181 222 223
f 223 225 181
f 225 177 181
f 225 216 177
f 218 182 178
f 182 218 185
f 185 218 219
f 185 219 186
f 186 219 221
f 224 226 223
f 186 221 180
f 223 226 225
f 228 227 189
f 189 227 188
f 229 189 190
f 229 228 189
f 230 190 191
f 230 229 190
f 232 230 231
f 230 192 231
f 230 191 192
f 194 231 192
f 234 233 196
f 196 233 195
f 235 196 197
f 235 234 196
f 197 188 227
f 197 227 235
f 232 231 236
f 232 236 237
f 198 238 194
f 238 231 194
f 238 236 231
f 200 238 198
f 239 201 202
f 240 239 202
f 195 240 202
f 233 240 195
f 241 237 236
f 243 242 241
f 236 243 241
f 238 243 236
f 204 243 200
f 200 243 238
f 244 205 239
f 239 205 201
f 239 240 245
f 239 245 244
f 242 247 246
f 242 207 247
f 242 243 206
f 207 242 206
f 243 204 206
f 248 246 247
f 244 208 205
f 210 208 244
f 245 210 244
f 249 210 245
f 212 250 213
f 250 251 213
f 213 251 207
f 251 252 207
f 252 247 207
f 247 252 248
f 249 214 210
f 253 214 249
f 216 254 215
f 254 255 215
f 215 255 212
f 255 256 212
f 256 250 212
f 250 256 251
f 253 257 214
f 214 257 217
f 217 258 220
f 257 258 217
f 220 259 222
f 258 259 220
f 224 222 259
f 224 259 260
f 262 261 254
f 216 262 254
f 225 262 216
f 254 261 255
f 260 263 224
f 224 263 226
f 225 226 262
f 262 226 263
f 265 264 228
f 228 264 227
f 266 228 229
f 266 265 228
f 268 266 267
f 266 230 267
f 266 229 230
f 232 267 230
f 269 233 234
f 235 270 234
f 234 270 269
f 271 270 235
f 227 271 235
f 264 271 227
f 274 273 272
f 272 273 268
f 267 272 268
f 275 272 267
f 237 275 232
f 232 275 267
f 276 240 269
f 269 240 233
f 270 278 277
f 276 270 277
f 269 270 276
f 278 270 271
f 279 274 272
f 281 280 279
f 272 281 279
f 275 281 272
f 241 282 237
f 282 275 237
f 282 281 275
f 242 282 241
f 283 245 276
f 276 245 240
f 276 277 284
f 276 284 283
f 285 280 281
f 285 281 282
f 285 282 286
f 288 286 287
f 287 286 246
f 286 282 246
f 282 242 246
f 248 287 246
f 290 289 283
f 289 245 283
f 289 249 245
f 290 283 284
f 288 287 252
f 251 288 252
f 291 288 251
f 252 287 248
f 293 253 292
f 253 289 292
f 253 249 289
f 294 293 292
f 255 295 256
f 295 296 256
f 296 251 256
f 296 291 251
f 293 257 253
f 294 297 293
f 297 257 293
f 297 258 257
f 258 298 259
f 297 298 258
f 260 259 298
f 260 298 299
f 262 300 261
f 300 301 261
f 261 301 255
f 301 302 255
f 302 295 255
f 295 302 296
f 299 303 260
f 260 303 263
f 262 263 300
f 263 304 300
f 263 303 304
f 300 304 301
f 305 264 265
f 266 306 265
f 265 306 305
f 268 306 266
f 307 271 305
f 305 271 264
f 274 307 273
f 307 306 273
f 307 305 306
f 273 306 268
f 308 277 278
f 271 307 278
f 307 308 278
f 307 309 308
f 279 310 274
f 310 307 274
f 310 309 307
f 280 310 279
f 312 311 308
f 311 277 308
f 311 284 277
f 312 308 309
f 312 309 313
f 315 314 313
f 309 315 313
f 310 315 309
f 285 316 280
f 316 310 280
f 316 315 310
f 286 317 285
f 285 317 316
f 288 317 286
f 318 289 290
f 319 318 290
f 284 319 290
f 311 319 284
f 320 314 315
f 320 315 316
f 320 316 321
f 323 322 321
f 316 323 321
f 317 323 316
f 291 323 288
f 288 323 317
f 318 292 289
f 294 292 318
f 319 294 318
f 324 294 319
f 325 322 323
f 323 291 325
f 291 326 325
f 291 296 326
f 324 327 294
f 294 327 297
f 297 328 298
f 327 328 297
f 299 298 328
f 299 328 329
f 331 330 302
f 331 302 301
f 296 302 326
f 326 302 330
f 329 332 299
f 299 332 303
f 303 333 304
f 332 333 303
f 301 304 331
f 331 304 333
f 334 311 312
f 313 335 312
f 312 335 334
f 314 335 313
f 336 319 334
f 334 319 311
f 335 338 337
f 336 335 337
f 334 335 336
f 338 335 314
f 320 338 314
f 339 338 320
f 341 339 340
f 339 321 340
f 339 320 321
f 322 340 321
f 343 342 336
f 342 319 336
f 342 324 319
f 343 336 337
f 344 341 340
f 346 344 345
f 345 344 325
f 344 340 325
f 340 322 325
f 326 345 325
f 342 347 324
f 324 347 327
f 327 348 328
f 347 348 327
f 329 328 348
f 329 348 349
f 346 345 330
f 331 346 330
f 350 346 331
f 330 345 326
f 349 351 329
f 329 351 332
f 332 352 333
f 351 352 332
f 331 333 350
f 350 333 352
f 353 337 338
f 339 354 338
f 338 354 353
f 341 354 339
f 355 342 343
f 337 353 343
f 353 355 343
f 353 356 355
f 357 353 354
f 356 353 357
f 344 358 341
f 358 354 341
f 358 357 354
f 346 358 344
f 355 347 342
f 347 355 348
f 348 355 356
f 348 356 349
f 356 359 349
f 356 357 359
f 360 357 358
f 359 357 360
f 350 360 346
f 346 360 358
f 359 351 349
f 351 359 352
f 352 359 360
f 352 360 350
