v 32.8 25.0 9.0
v 33.0 25.0 8.6
v 33.0 24.7 9.0
v 33.0 24.6 10.0
v 32.6 25.0 10.0
v 33.0 24.5 11.0
v 32.6 25.0 11.0
v 33.0 24.7 12.0
v 32.8 25.0 12.0
v 33.0 25.0 12.2
v 32.9 26.0 8.0
v 33.0 26.0 7.9
v 33.0 25.8 8.0
v 32.6 26.0 9.0
v 32.6 26.0 10.0
v 32.6 26.0 11.0
v 32.8 26.0 12.0
v 33.0 26.0 12.2
v 33.0 26.1 8.0
v 33.0 26.4 9.0
v 33.0 26.5 10.0
v 33.0 26.4 11.0
v 33.0 26.2 12.0
v 33.8 21.0 12.0
v 34.0 21.0 11.8
v 34.0 20.8 12.0
v 34.0 20.8 13.0
v 33.8 21.0 13.0
v 34.0 21.0 13.2
v 33.6 22.0 12.0
v 34.0 22.0 11.6
v 33.6 22.0 13.0
v 34.0 22.0 13.3
v 33.6 23.0 12.0
v 34.0 23.0 11.4
v 33.4 23.0 13.0
v 34.0 23.0 13.2
v 33.6 24.0 10.0
v 34.0 24.0 9.5
v 34.0 23.7 10.0
v 34.0 23.4 11.0
v 33.5 24.0 11.0
v 33.5 24.0 12.0
v 34.0 24.0 12.6
v 34.0 23.4 13.0
v 33.5 25.0 8.0
v 34.0 25.0 7.5
v 34.0 24.6 8.0
v 34.0 24.3 9.0
v 34.0 25.0 12.6
v 33.8 26.0 7.0
v 34.0 26.0 6.9
v 34.0 25.8 7.0
v 34.0 26.0 12.4
v 34.0 26.2 7.0
v 33.7 27.0 8.0
v 34.0 27.0 7.6
v 33.5 27.0 9.0
v 33.5 27.0 10.0
v 33.6 27.0 11.0
v 34.0 27.0 11.4
v 34.0 26.5 12.0
v 34.0 27.3 8.0
v 34.0 27.4 9.0
v 34.0 27.4 10.0
v 34.0 27.3 11.0
v 33.9 32.0 4.0
v 34.0 32.0 3.9
v 34.0 31.9 4.0
v 34.0 32.0 4.1
v 33.8 33.0 3.0
v 34.0 33.0 2.7
v 34.0 32.6 3.0
v 33.8 33.0 4.0
v 34.0 33.0 4.2
v 33.7 34.0 3.0
v 34.0 34.0 2.5
v 34.0 34.0 3.3
v 34.0 33.2 4.0
v 33.6 35.0 2.0
v 34.0 35.0 1.5
v 34.0 34.5 2.0
v 33.3 35.0 3.0
v 34.0 35.0 3.3
v 34.0 36.0 0.0
v 34.0 36.0 -0.0
v 34.0 36.0 0.0
v 34.0 35.5 1.0
v 33.1 36.0 1.0
v 33.0 36.0 2.0
v 34.0 36.0 2.4
v 34.0 35.4 3.0
v 34.0 36.0 0.0
v 34.0 36.3 1.0
v 34.0 36.3 2.0
v 35.0 21.0 11.8
v 35.0 20.8 12.0
v 35.0 20.7 13.0
v 35.0 21.0 13.3
v 35.0 22.0 11.6
v 35.0 22.0 13.4
v 34.6 23.0 11.0
v 35.0 23.0 10.7
v 35.0 22.8 11.0
v 34.7 23.0 13.0
v 35.0 22.8 13.0
v 35.0 23.0 12.8
v 34.7 24.0 8.0
v 35.0 24.0 7.7
v 35.0 23.8 8.0
v 35.0 23.6 9.0
v 34.4 24.0 9.0
v 35.0 23.4 10.0
v 34.6 24.0 13.0
v 35.0 23.3 13.0
v 35.0 24.0 13.2
v 34.6 25.0 7.0
v 35.0 25.0 6.6
v 35.0 24.6 7.0
v 34.8 25.0 13.0
v 35.0 25.0 13.1
v 35.0 26.0 6.4
v 35.0 25.2 13.0
v 35.0 26.0 12.6
v 34.6 27.0 7.0
v 35.0 27.0 6.7
v 34.6 27.0 12.0
v 35.0 27.0 12.2
v 35.0 27.3 7.0
v 35.0 27.5 8.0
v 35.0 27.5 9.0
v 35.0 27.5 10.0
v 35.0 27.5 11.0
v 35.0 27.2 12.0
v 34.8 30.0 3.0
v 35.0 30.0 2.8
v 35.0 29.7 3.0
v 35.0 29.7 4.0
v 34.8 30.0 4.0
v 35.0 30.0 4.3
v 34.6 31.0 3.0
v 35.0 31.0 2.6
v 34.6 31.0 4.0
v 35.0 31.0 4.4
v 34.4 32.0 3.0
v 35.0 32.0 2.4
v 35.0 32.0 4.5
v 34.7 33.0 2.0
v 35.0 33.0 1.7
v 35.0 32.5 2.0
v 35.0 33.0 4.4
v 34.4 34.0 2.0
v 35.0 34.0 1.4
v 35.0 33.5 4.0
v 35.0 34.0 3.6
v 34.5 35.0 1.0
v 35.0 35.0 0.5
v 35.0 34.5 1.0
v 35.0 35.0 3.3
v 35.0 36.0 -0.6
v 35.0 35.5 0.0
v 35.0 35.3 3.0
v 35.0 36.0 2.4
v 35.0 36.3 0.0
v 35.0 36.5 1.0
v 35.0 36.4 2.0
v 35.3 21.0 12.0
v 36.0 21.0 12.8
v 36.0 20.8 13.0
v 36.0 21.0 13.2
v 35.6 22.0 12.0
v 36.0 22.0 12.6
v 36.0 22.0 13.2
v 35.4 23.0 11.0
v 36.0 23.0 11.5
v 36.0 22.5 12.0
v 36.0 23.0 12.6
v 36.0 22.4 13.0
v 36.0 24.0 7.4
v 36.0 23.6 8.0
v 36.0 23.5 9.0
v 36.0 23.5 10.0
v 36.0 23.3 11.0
v 36.0 23.5 13.0
v 36.0 24.0 13.2
v 35.8 25.0 5.0
v 36.0 25.0 4.7
v 36.0 24.8 5.0
v 36.0 24.6 6.0
v 35.5 25.0 6.0
v 36.0 24.3 7.0
v 35.3 25.0 13.0
v 36.0 24.5 13.0
v 36.0 25.0 12.7
v 35.7 26.0 5.0
v 36.0 26.0 4.6
v 35.4 26.0 6.0
v 36.0 26.0 12.5
v 36.0 26.5 5.0
v 35.6 27.0 6.0
v 36.0 27.0 5.5
v 36.0 27.0 12.3
v 35.9 28.0 4.0
v 36.0 28.0 3.8
v 36.0 27.8 4.0
v 36.0 28.0 4.2
v 36.0 27.4 6.0
v 36.0 27.6 7.0
v 36.0 27.6 8.0
v 36.0 27.6 9.0
v 36.0 27.6 10.0
v 36.0 27.5 11.0
v 36.0 27.3 12.0
v 35.6 29.0 3.0
v 36.0 29.0 2.6
v 36.0 28.5 3.0
v 35.5 29.0 4.0
v 36.0 29.0 4.6
v 36.0 30.0 2.3
v 36.0 29.5 5.0
v 35.7 30.0 5.0
v 36.0 30.0 5.3
v 35.6 31.0 2.0
v 36.0 31.0 1.6
v 36.0 30.4 2.0
v 35.6 31.0 5.0
v 36.0 31.0 5.7
v 35.4 32.0 2.0
v 36.0 32.0 1.5
v 35.8 32.0 5.0
v 36.0 32.0 5.1
v 36.0 33.0 1.3
v 36.0 32.1 5.0
v 36.0 33.0 4.5
v 35.5 34.0 1.0
v 36.0 34.0 0.5
v 36.0 33.4 1.0
v 36.0 33.5 4.0
v 36.0 34.0 3.5
v 35.5 35.0 0.0
v 36.0 35.0 -0.3
v 36.0 34.6 0.0
v 35.5 35.0 3.0
v 36.0 34.6 3.0
v 36.0 35.0 2.7
v 36.0 36.0 -0.5
v 36.0 36.0 2.4
v 36.0 36.4 0.0
v 36.0 36.5 1.0
v 36.0 36.4 2.0
v 37.0 21.0 12.9
v 37.0 20.9 13.0
v 37.0 21.0 13.1
v 37.0 22.0 12.7
v 37.0 22.0 13.2
v 37.0 23.0 11.5
v 37.0 22.6 12.0
v 37.0 23.0 12.7
v 37.0 22.5 13.0
v 36.8 24.0 7.0
v 37.0 24.0 6.9
v 37.0 23.9 7.0
v 37.0 23.6 8.0
v 37.0 23.5 9.0
v 37.0 23.5 10.0
v 37.0 23.3 11.0
v 37.0 23.6 13.0
v 37.0 24.0 13.1
v 36.6 25.0 4.0
v 37.0 25.0 3.5
v 37.0 24.7 4.0
v 37.0 24.5 5.0
v 37.0 24.4 6.0
v 37.0 24.2 13.0
v 37.0 25.0 12.6
v 36.8 26.0 2.0
v 37.0 26.0 1.7
v 37.0 25.7 2.0
v 37.0 25.4 3.0
v 36.6 26.0 3.0
v 36.4 26.0 4.0
v 37.0 26.0 12.5
v 36.6 27.0 2.0
v 37.0 27.0 1.4
v 36.5 27.0 3.0
v 36.4 27.0 4.0
v 36.3 27.0 5.0
v 37.0 27.0 12.4
v 36.7 28.0 1.0
v 37.0 28.0 0.6
v 37.0 27.5 1.0
v 36.5 28.0 2.0
v 36.3 28.0 3.0
v 36.4 28.0 5.0
v 36.4 28.0 6.0
v 36.5 28.0 7.0
v 36.5 28.0 8.0
v 36.5 28.0 9.0
v 36.6 28.0 10.0
v 37.0 28.0 10.5
v 37.0 27.7 11.0
v 37.0 27.4 12.0
v 36.6 29.0 1.0
v 37.0 29.0 0.5
v 36.4 29.0 2.0
v 36.3 29.0 5.0
v 36.7 29.0 6.0
v 37.0 29.0 6.4
v 37.0 28.5 7.0
v 37.0 28.4 8.0
v 37.0 28.4 9.0
v 37.0 28.3 10.0
v 36.6 30.0 1.0
v 37.0 30.0 0.5
v 36.2 30.0 2.0
v 37.0 29.5 6.0
v 37.0 30.0 5.7
v 36.5 31.0 1.0
v 37.0 31.0 0.5
v 37.0 31.0 5.4
v 36.5 32.0 1.0
v 37.0 32.0 0.5
v 36.2 32.0 5.0
v 37.0 31.4 5.0
v 37.0 32.0 4.5
v 36.3 33.0 1.0
v 37.0 33.0 0.3
v 37.0 33.0 4.4
v 36.5 34.0 0.0
v 37.0 34.0 -0.3
v 37.0 33.5 0.0
v 37.0 33.5 4.0
v 37.0 34.0 3.5
v 37.0 35.0 -0.7
v 37.0 34.5 3.0
v 37.0 35.0 2.6
v 36.8 36.0 -1.0
v 37.0 36.0 -1.1
v 37.0 35.8 -1.0
v 37.0 36.0 2.2
v 37.0 36.1 -1.0
v 37.0 36.5 0.0
v 37.0 36.5 1.0
v 37.0 36.2 2.0
v 38.0 21.0 12.8
v 38.0 20.8 13.0
v 38.0 21.0 13.2
v 38.0 22.0 12.3
v 38.0 22.0 13.4
v 37.5 23.0 11.0
v 38.0 23.0 10.6
v 38.0 22.6 11.0
v 38.0 22.2 12.0
v 37.3 23.0 13.0
v 38.0 23.0 13.3
v 37.8 24.0 4.0
v 38.0 24.0 3.7
v 38.0 23.8 4.0
v 38.0 24.0 4.3
v 37.1 24.0 7.0
v 37.4 24.0 8.0
v 38.0 24.0 8.6
v 38.0 23.7 9.0
v 38.0 23.4 10.0
v 38.0 24.0 12.8
v 37.4 24.0 13.0
v 38.0 23.7 13.0
v 37.6 25.0 2.0
v 38.0 25.0 1.5
v 38.0 24.6 2.0
v 38.0 24.4 3.0
v 37.4 25.0 3.0
v 38.0 24.3 5.0
v 38.0 24.6 6.0
v 37.8 25.0 7.0
v 38.0 25.0 6.7
v 38.0 25.0 8.0
v 38.0 25.0 8.0
v 38.0 25.0 12.6
v 37.6 26.0 1.0
v 38.0 26.0 0.5
v 38.0 25.5 1.0
v 38.0 25.2 7.0
v 38.0 25.0 8.0
v 38.0 26.0 12.5
v 37.7 27.0 0.0
v 38.0 27.0 -0.3
v 38.0 26.6 0.0
v 37.3 27.0 1.0
v 38.0 27.0 12.5
v 37.5 28.0 0.0
v 38.0 28.0 -0.5
v 37.4 28.0 11.0
v 37.9 28.0 12.0
v 38.0 28.0 12.1
v 37.5 29.0 0.0
v 38.0 29.0 -0.5
v 38.0 28.6 7.0
v 38.0 29.0 6.6
v 38.0 28.5 8.0
v 38.0 28.5 9.0
v 38.0 28.5 10.0
v 38.0 28.4 11.0
v 38.0 28.1 12.0
v 37.5 30.0 0.0
v 38.0 30.0 -0.5
v 37.5 30.0 6.0
v 38.0 30.0 6.3
v 37.5 31.0 0.0
v 38.0 31.0 -0.5
v 37.2 31.0 4.0
v 38.0 30.8 4.0
v 38.0 31.0 3.8
v 38.0 31.0 4.4
v 38.0 30.4 6.0
v 38.0 31.0 5.3
v 37.5 32.0 0.0
v 38.0 32.0 -0.6
v 37.6 32.0 4.0
v 38.0 32.0 3.7
v 38.0 31.2 5.0
v 37.8 33.0 -1.0
v 38.0 33.0 -1.2
v 38.0 32.7 -1.0
v 37.3 33.0 0.0
v 38.0 32.7 4.0
v 38.0 33.0 4.1
v 38.0 33.6 -1.0
v 38.0 34.0 -0.9
v 38.0 33.2 4.0
v 38.0 34.0 3.5
v 37.4 35.0 -1.0
v 38.0 35.0 -1.6
v 38.0 34.2 -1.0
v 38.0 34.5 3.0
v 38.0 35.0 2.4
v 37.9 36.0 -2.0
v 38.0 36.0 -2.1
v 38.0 35.8 -2.0
v 37.4 36.0 2.0
v 38.0 35.5 2.0
v 38.0 36.0 1.5
v 38.0 36.1 -2.0
v 38.0 36.4 -1.0
v 38.0 36.5 0.0
v 38.0 36.4 1.0
v 38.7 21.0 12.0
v 39.0 21.0 11.6
v 39.0 20.7 12.0
v 39.0 20.7 13.0
v 39.0 21.0 13.3
v 38.7 22.0 11.0
v 39.0 22.0 10.7
v 39.0 21.6 11.0
v 38.2 22.0 12.0
v 39.0 22.0 13.5
v 39.0 23.0 10.3
v 39.0 23.0 13.5
v 38.7 24.0 1.0
v 39.0 24.0 0.7
v 39.0 23.7 1.0
v 39.0 23.6 2.0
v 38.5 24.0 2.0
v 39.0 23.4 3.0
v 38.4 24.0 3.0
v 39.0 23.1 4.0
v 39.0 23.7 5.0
v 38.5 24.0 5.0
v 39.0 24.0 5.4
v 38.5 24.0 9.0
v 39.0 24.0 9.3
v 39.0 23.3 10.0
v 38.2 24.0 13.0
v 39.0 24.0 13.4
v 38.4 25.0 1.0
v 39.0 25.0 0.3
v 39.0 24.5 6.0
v 39.0 25.0 6.7
v 38.0 25.0 8.0
v 39.0 25.0 7.4
v 39.0 24.7 8.0
v 39.0 24.3 9.0
v 38.8 25.0 13.0
v 39.0 25.0 13.2
v 38.5 26.0 0.0
v 39.0 26.0 -0.5
v 39.0 25.4 0.0
v 39.0 25.2 7.0
v 39.0 25.3 13.0
v 39.0 26.0 12.7
v 38.6 27.0 -1.0
v 39.0 27.0 -1.4
v 39.0 26.5 -1.0
v 39.0 27.0 12.4
v 38.5 28.0 -1.0
v 39.0 28.0 -1.5
v 38.1 28.0 12.0
v 39.0 27.6 12.0
v 39.0 28.0 11.6
v 38.5 29.0 -1.0
v 39.0 29.0 -1.5
v 39.0 28.8 7.0
v 39.0 29.0 6.8
v 39.0 28.6 8.0
v 39.0 28.5 9.0
v 39.0 28.5 10.0
v 39.0 28.4 11.0
v 38.5 30.0 -1.0
v 39.0 30.0 -1.5
v 39.0 30.0 6.4
v 38.5 31.0 -1.0
v 39.0 31.0 -1.6
v 38.9 31.0 3.0
v 39.0 30.9 3.0
v 39.0 31.0 2.9
v 39.0 30.7 4.0
v 39.0 31.0 4.6
v 39.0 30.5 6.0
v 39.0 31.0 5.3
v 38.8 32.0 -6.0
v 39.0 32.0 -6.3
v 39.0 31.8 -6.0
v 39.0 32.0 -5.7
v 38.4 32.0 -1.0
v 39.0 32.0 -1.8
v 39.0 31.1 3.0
v 39.0 32.0 3.3
v 39.0 31.2 5.0
v 38.8 33.0 -7.0
v 39.0 33.0 -7.3
v 39.0 32.6 -7.0
v 38.6 33.0 -6.0
v 39.0 32.4 -5.0
v 38.6 33.0 -5.0
v 39.0 32.5 -4.0
v 38.7 33.0 -4.0
v 39.0 33.0 -3.3
v 38.6 33.0 -2.0
v 39.0 33.0 -2.7
v 39.0 32.3 -2.0
v 38.2 33.0 4.0
v 39.0 33.0 3.6
v 38.7 34.0 -7.0
v 39.0 34.0 -7.3
v 38.9 34.0 -6.0
v 38.6 34.0 -5.0
v 38.5 34.0 -4.0
v 39.0 34.0 -3.1
v 38.6 34.0 -2.0
v 39.0 34.0 -2.9
v 38.1 34.0 -1.0
v 39.0 34.0 3.4
v 38.9 35.0 -7.0
v 39.0 35.0 -7.2
v 38.7 35.0 -6.0
v 38.5 35.0 -5.0
v 38.1 35.0 -4.0
v 39.0 34.1 -3.0
v 38.5 35.0 -3.0
v 38.3 35.0 -2.0
v 39.0 35.0 1.0
v 39.0 35.0 1.0
v 39.0 35.0 1.0
v 38.4 35.0 2.0
v 39.0 34.6 2.0
v 39.0 34.4 3.0
v 39.0 35.2 -7.0
v 39.0 35.5 -6.0
v 38.7 36.0 -5.0
v 39.0 36.0 -5.4
v 38.6 36.0 -4.0
v 38.5 36.0 -3.0
v 39.0 35.2 1.0
v 39.0 36.0 1.1
v 39.0 36.3 -5.0
v 39.0 36.5 -4.0
v 39.0 36.5 -3.0
v 39.0 36.5 -2.0
v 39.0 36.5 -1.0
v 39.0 36.5 0.0
v 39.0 36.1 1.0
v 39.7 21.0 11.0
v 40.0 21.0 10.8
v 40.0 20.8 11.0
v 40.0 20.6 12.0
v 40.0 20.8 13.0
v 40.0 21.0 13.2
v 40.0 22.0 10.3
v 40.0 22.0 13.5
v 39.9 23.0 1.0
v 40.0 23.0 0.8
v 40.0 22.9 1.0
v 40.0 23.0 1.2
v 39.5 23.0 10.0
v 40.0 23.0 9.7
v 40.0 22.5 10.0
v 40.0 23.0 13.5
v 39.6 24.0 0.0
v 40.0 24.0 -0.5
v 40.0 23.5 0.0
v 40.0 23.3 2.0
v 40.0 23.1 3.0
v 40.0 23.4 4.0
v 40.0 23.6 5.0
v 40.0 24.0 5.4
v 40.0 24.0 9.4
v 40.0 24.0 13.4
v 39.7 25.0 -1.0
v 40.0 25.0 -1.4
v 40.0 24.5 -1.0
v 39.3 25.0 0.0
v 40.0 24.6 6.0
v 40.0 25.0 6.6
v 40.0 25.0 7.4
v 40.0 24.6 8.0
v 40.0 24.4 9.0
v 40.0 25.0 13.0
v 40.0 25.0 13.0
v 40.0 25.0 13.0
v 39.4 26.0 -1.0
v 40.0 26.0 -1.6
v 40.0 25.2 7.0
v 40.0 26.0 13.0
v 39.6 27.0 -2.0
v 40.0 27.0 -2.4
v 40.0 26.5 -2.0
v 40.0 27.0 12.5
v 39.5 28.0 -2.0
v 40.0 28.0 -2.6
v 40.0 27.5 12.0
v 40.0 28.0 11.5
v 39.7 29.0 -3.0
v 40.0 29.0 -3.4
v 40.0 28.5 -3.0
v 39.4 29.0 -2.0
v 39.3 29.0 7.0
v 39.6 29.0 8.0
v 40.0 29.0 8.5
v 40.0 28.7 9.0
v 40.0 28.5 10.0
v 40.0 28.4 11.0
v 39.7 30.0 -6.0
v 40.0 30.0 -6.5
v 40.0 29.6 -6.0
v 40.0 29.6 -5.0
v 39.7 30.0 -5.0
v 40.0 30.0 -4.3
v 39.6 30.0 -3.0
v 40.0 30.0 -3.8
v 39.4 30.0 -2.0
v 40.0 29.6 7.0
v 40.0 30.0 6.6
v 40.0 29.3 8.0
v 39.8 31.0 -8.0
v 40.0 31.0 -8.3
v 40.0 30.7 -8.0
v 40.0 30.4 -7.0
v 39.6 31.0 -7.0
v 39.4 31.0 -6.0
v 39.5 31.0 -5.0
v 40.0 30.2 -4.0
v 39.6 31.0 -4.0
v 39.4 31.0 -3.0
v 39.4 31.0 -2.0
v 40.0 30.8 3.0
v 40.0 31.0 2.7
v 40.0 30.6 4.0
v 40.0 31.0 4.9
v 40.0 30.5 6.0
v 40.0 31.0 5.1
v 39.6 32.0 -8.0
v 40.0 32.0 -8.5
v 39.3 32.0 -7.0
v 39.3 32.0 -5.0
v 39.3 32.0 -4.0
v 39.0 32.0 -3.0
v 39.1 32.0 -2.0
v 39.4 32.0 3.0
v 40.0 32.0 2.3
v 40.0 31.1 5.0
v 39.5 33.0 -8.0
v 40.0 33.0 -8.5
v 39.2 33.0 -3.0
v 40.0 32.6 3.0
v 40.0 33.0 3.2
v 39.6 34.0 -8.0
v 40.0 34.0 -8.4
v 39.1 34.0 -3.0
v 40.0 34.0 3.2
v 40.0 34.5 -8.0
v 40.0 35.0 -7.6
v 40.0 34.6 1.0
v 40.0 35.0 0.6
v 40.0 34.4 2.0
v 40.0 34.2 3.0
v 40.0 35.5 -7.0
v 39.6 36.0 -6.0
v 40.0 36.0 -6.4
v 39.1 36.0 1.0
v 40.0 36.0 0.3
v 40.0 36.3 -6.0
v 40.0 36.6 -5.0
v 39.7 37.0 -4.0
v 40.0 37.0 -4.3
v 39.7 37.0 -3.0
v 40.0 37.0 -2.7
v 40.0 36.6 -2.0
v 40.0 36.4 -1.0
v 40.0 36.2 0.0
v 40.0 37.2 -4.0
v 40.0 37.2 -3.0
v 41.0 21.0 10.7
v 41.0 20.8 11.0
v 40.6 21.0 12.0
v 41.0 21.0 11.5
v 40.3 21.0 13.0
v 40.9 22.0 -1.0
v 41.0 22.0 -1.1
v 41.0 21.9 -1.0
v 41.0 22.0 -0.9
v 40.5 22.0 10.0
v 41.0 22.0 9.6
v 41.0 21.6 10.0
v 41.0 21.3 12.0
v 41.0 21.7 13.0
v 41.0 22.0 13.3
v 40.7 23.0 -2.0
v 41.0 23.0 -2.3
v 41.0 22.6 -2.0
v 40.5 23.0 -1.0
v 41.0 22.5 0.0
v 40.4 23.0 0.0
v 41.0 22.6 1.0
v 41.0 23.0 1.5
v 41.0 23.0 9.4
v 41.0 23.0 13.5
v 40.6 24.0 -2.0
v 41.0 24.0 -2.5
v 40.3 24.0 -1.0
v 41.0 23.4 2.0
v 41.0 23.5 3.0
v 41.0 23.9 4.0
v 41.0 23.7 5.0
v 41.0 24.0 5.3
v 41.0 24.0 9.2
v 41.0 24.0 13.5
v 40.5 25.0 -2.0
v 41.0 25.0 -2.5
v 40.9 25.0 6.0
v 41.0 25.0 5.9
v 41.0 25.0 7.3
v 41.0 24.5 8.0
v 41.0 24.2 9.0
v 40.0 25.0 13.0
v 41.0 25.0 13.3
v 40.4 26.0 -2.0
v 41.0 26.0 -2.7
v 41.0 25.1 6.0
v 41.0 25.2 7.0
v 41.0 25.5 13.0
v 41.0 26.0 12.7
v 40.6 27.0 -3.0
v 41.0 27.0 -3.5
v 41.0 26.4 -3.0
v 41.0 27.0 12.4
v 40.9 28.0 -7.0
v 41.0 28.0 -7.1
v 41.0 27.9 -7.0
v 41.0 28.0 -6.8
v 40.7 28.0 -4.0
v 41.0 28.0 -4.5
v 41.0 27.5 -4.0
v 40.3 28.0 -3.0
v 41.0 27.6 12.0
v 41.0 28.0 11.6
v 40.8 29.0 -8.0
v 41.0 29.0 -8.2
v 41.0 28.7 -8.0
v 40.5 29.0 -7.0
v 41.0 28.4 -6.0
v 40.5 29.0 -6.0
v 41.0 28.4 -5.0
v 40.5 29.0 -5.0
v 40.4 29.0 -4.0
v 40.5 29.0 9.0
v 41.0 29.0 9.5
v 41.0 28.7 10.0
v 41.0 28.4 11.0
v 40.5 30.0 -8.0
v 41.0 30.0 -8.5
v 40.3 30.0 -7.0
v 40.1 30.0 -4.0
v 40.5 30.0 7.0
v 41.0 30.0 7.4
v 41.0 29.6 8.0
v 41.0 29.3 9.0
v 40.7 31.0 -9.0
v 41.0 31.0 -9.2
v 41.0 30.7 -9.0
v 40.5 31.0 3.0
v 41.0 31.0 3.4
v 41.0 30.7 4.0
v 40.1 31.0 5.0
v 41.0 30.6 5.0
v 41.0 30.5 6.0
v 41.0 30.3 7.0
v 40.5 32.0 -9.0
v 41.0 32.0 -9.4
v 41.0 31.3 3.0
v 41.0 32.0 2.5
v 40.5 33.0 -9.0
v 41.0 33.0 -9.5
v 40.3 33.0 3.0
v 41.0 33.0 2.3
v 40.6 34.0 -9.0
v 41.0 34.0 -9.4
v 40.7 34.0 1.0
v 41.0 33.8 1.0
v 41.0 34.0 0.8
v 40.4 34.0 2.0
v 41.0 33.4 2.0
v 40.2 34.0 3.0
v 41.0 34.5 -9.0
v 40.5 35.0 -8.0
v 41.0 35.0 -8.5
v 41.0 35.0 0.4
v 41.0 35.3 -8.0
v 41.0 35.6 -7.0
v 41.0 36.0 -6.5
v 40.6 36.0 -1.0
v 41.0 35.7 -1.0
v 41.0 36.0 -1.5
v 40.3 36.0 0.0
v 41.0 35.5 0.0
v 41.0 36.4 -6.0
v 41.0 36.6 -5.0
v 41.0 37.0 -4.3
v 41.0 36.4 -2.0
v 41.0 37.0 -2.7
v 41.0 37.2 -4.0
v 41.0 37.2 -3.0
v 42.0 21.0 10.5
v 42.0 20.8 11.0
v 42.0 21.0 11.3
v 41.6 22.0 -2.0
v 42.0 22.0 -2.4
v 42.0 21.7 -2.0
v 42.0 21.6 -1.0
v 42.0 22.0 -0.5
v 41.7 22.0 9.0
v 42.0 22.0 8.7
v 42.0 21.7 9.0
v 42.0 21.3 10.0
v 42.0 21.5 12.0
v 41.4 22.0 13.0
v 42.0 22.0 12.6
v 41.7 23.0 -3.0
v 42.0 23.0 -3.2
v 42.0 22.7 -3.0
v 42.0 22.4 0.0
v 42.0 22.7 1.0
v 42.0 23.0 1.4
v 41.5 23.0 9.0
v 42.0 23.0 8.4
v 42.0 22.5 13.0
v 42.0 23.0 13.3
v 41.5 24.0 -3.0
v 42.0 24.0 -3.5
v 42.0 23.4 2.0
v 42.0 23.4 3.0
v 42.0 23.6 4.0
v 42.0 23.6 5.0
v 42.0 24.0 5.5
v 41.6 24.0 8.0
v 42.0 24.0 7.5
v 42.0 23.5 8.0
v 41.2 24.0 9.0
v 42.0 24.0 13.5
v 41.9 25.0 -4.0
v 42.0 25.0 -4.1
v 42.0 24.9 -4.0
v 41.4 25.0 -3.0
v 42.0 24.4 6.0
v 41.1 25.0 6.0
v 42.0 24.4 7.0
v 41.3 25.0 7.0
v 42.0 25.0 13.4
v 41.9 26.0 -5.0
v 42.0 26.0 -5.1
v 42.0 25.9 -5.0
v 41.5 26.0 -4.0
v 41.3 26.0 -3.0
v 42.0 25.5 13.0
v 42.0 26.0 12.6
v 41.9 27.0 -6.0
v 42.0 27.0 -6.1
v 42.0 26.9 -6.0
v 41.5 27.0 -5.0
v 41.3 27.0 -4.0
v 42.0 27.0 12.5
v 42.0 28.0 -7.4
v 42.0 27.6 -7.0
v 41.3 28.0 -6.0
v 41.3 28.0 -5.0
v 41.6 28.0 12.0
v 42.0 28.0 12.3
v 42.0 29.0 -8.3
v 42.0 28.6 -8.0
v 41.5 29.0 10.0
v 42.0 29.0 10.5
v 42.0 28.7 11.0
v 42.0 28.3 12.0
v 42.0 30.0 -8.6
v 42.0 29.6 8.0
v 42.0 30.0 7.5
v 42.0 29.5 9.0
v 42.0 29.3 10.0
v 42.0 31.0 -9.4
v 42.0 30.5 -9.0
v 41.9 31.0 2.0
v 42.0 30.9 2.0
v 42.0 31.0 1.9
v 41.4 31.0 3.0
v 42.0 30.6 3.0
v 42.0 30.9 4.0
v 42.0 30.5 5.0
v 42.0 30.5 6.0
v 42.0 30.4 7.0
v 42.0 32.0 -9.6
v 42.0 31.4 2.0
v 42.0 32.0 2.1
v 41.7 33.0 -10.0
v 42.0 33.0 -10.2
v 42.0 32.7 -10.0
v 41.4 33.0 2.0
v 42.0 32.2 2.0
v 42.0 33.0 1.5
v 41.6 34.0 -10.0
v 42.0 34.0 -10.4
v 42.0 33.5 1.0
v 42.0 34.0 0.6
v 41.8 35.0 -10.0
v 42.0 35.0 -10.2
v 41.4 35.0 -9.0
v 42.0 35.0 0.2
v 42.0 35.2 -10.0
v 42.0 35.5 -9.0
v 42.0 35.6 -8.0
v 42.0 35.7 -7.0
v 42.0 36.0 -6.7
v 41.8 36.0 -3.0
v 42.0 35.8 -3.0
v 42.0 36.0 -3.3
v 41.4 36.0 -2.0
v 42.0 35.5 -2.0
v 42.0 35.4 -1.0
v 42.0 35.2 0.0
v 42.0 36.4 -6.0
v 42.0 36.5 -5.0
v 41.3 37.0 -4.0
v 42.0 36.5 -4.0
v 41.2 37.0 -3.0
v 43.0 21.0 -2.0
v 43.0 21.0 -2.0
v 43.0 21.0 -2.0
v 43.0 21.0 -2.0
v 42.5 21.0 10.0
v 43.0 21.0 9.6
v 43.0 20.7 10.0
v 43.0 20.6 11.0
v 43.0 21.0 11.4
v 43.0 22.0 -2.6
v 43.0 21.6 -1.0
v 43.0 22.0 -0.6
v 42.7 22.0 8.0
v 43.0 22.0 7.8
v 43.0 21.8 8.0
v 43.0 21.4 9.0
v 43.0 21.5 12.0
v 43.0 22.0 12.4
v 43.0 23.0 -3.4
v 43.0 22.5 -3.0
v 43.0 22.5 0.0
v 42.5 23.0 1.0
v 43.0 23.0 0.6
v 42.4 23.0 8.0
v 43.0 23.0 7.4
v 42.5 23.0 13.0
v 43.0 23.0 12.7
v 43.0 24.0 -3.5
v 43.0 23.3 1.0
v 43.0 23.4 2.0
v 43.0 23.1 3.0
v 43.0 23.4 4.0
v 43.0 23.6 5.0
v 43.0 24.0 5.9
v 42.5 24.0 7.0
v 43.0 24.0 6.1
v 43.0 23.4 7.0
v 43.0 23.5 13.0
v 43.0 24.0 13.3
v 42.2 25.0 -4.0
v 43.0 25.0 -3.7
v 43.0 24.1 6.0
v 43.0 25.0 13.2
v 42.2 26.0 -5.0
v 43.0 26.0 -4.6
v 43.0 25.3 -4.0
v 43.0 25.3 13.0
v 43.0 26.0 12.6
v 42.4 27.0 -6.0
v 43.0 27.0 -5.8
v 43.0 26.3 -5.0
v 43.0 27.0 12.4
v 43.0 28.0 -7.4
v 43.0 27.6 -7.0
v 43.0 27.2 -6.0
v 43.0 28.0 12.4
v 42.5 29.0 -8.0
v 43.0 29.0 -7.7
v 42.5 29.0 11.0
v 43.0 29.0 12.0
v 43.0 29.0 12.0
v 43.0 30.0 -8.5
v 43.0 29.4 -8.0
v 42.9 30.0 1.0
v 43.0 29.8 1.0
v 43.0 30.0 0.8
v 43.0 30.0 1.5
v 42.6 30.0 3.0
v 43.0 29.6 3.0
v 43.0 30.0 2.2
v 42.6 30.0 4.0
v 43.0 29.6 4.0
v 42.8 30.0 5.0
v 43.0 29.9 5.0
v 43.0 30.0 5.2
v 43.0 29.6 8.0
v 43.0 30.0 7.4
v 43.0 29.5 9.0
v 43.0 29.5 10.0
v 43.0 29.3 11.0
v 43.0 29.0 12.0
v 43.0 31.0 -9.5
v 43.0 30.5 -9.0
v 42.6 31.0 1.0
v 43.0 31.0 0.5
v 43.0 30.1 2.0
v 43.0 30.4 6.0
v 43.0 30.3 7.0
v 43.0 32.0 -9.7
v 42.7 32.0 1.0
v 43.0 32.0 0.6
v 42.1 32.0 2.0
v 43.0 33.0 -10.4
v 43.0 32.4 -10.0
v 43.0 32.8 1.0
v 43.0 33.0 1.1
v 43.0 34.0 -10.4
v 43.0 33.1 1.0
v 43.0 34.0 0.3
v 43.0 35.0 -10.4
v 42.6 35.0 -2.0
v 43.0 34.7 -2.0
v 43.0 35.0 -2.4
v 42.5 35.0 -1.0
v 43.0 34.6 -1.0
v 42.3 35.0 0.0
v 43.0 34.3 0.0
v 43.0 35.5 -10.0
v 42.6 36.0 -9.0
v 43.0 36.0 -9.4
v 42.5 36.0 -8.0
v 42.3 36.0 -7.0
v 43.0 35.4 -3.0
v 43.0 36.0 -3.5
v 43.0 36.3 -9.0
v 43.0 36.4 -8.0
v 43.0 36.4 -7.0
v 43.0 36.5 -6.0
v 43.0 36.5 -5.0
v 43.0 36.4 -4.0
v 43.0 21.0 -2.0
v 44.0 21.0 9.7
v 44.0 20.8 10.0
v 44.0 20.8 11.0
v 44.0 21.0 11.3
v 44.0 22.0 -2.5
v 44.0 21.1 -2.0
v 43.6 22.0 -1.0
v 44.0 22.0 -1.4
v 44.0 22.0 7.5
v 44.0 21.6 8.0
v 44.0 21.4 9.0
v 44.0 21.7 12.0
v 44.0 22.0 12.3
v 44.0 23.0 -3.4
v 44.0 22.5 -3.0
v 44.0 22.3 -1.0
v 44.0 22.6 0.0
v 44.0 23.0 0.5
v 43.8 23.0 6.0
v 44.0 23.0 5.7
v 44.0 22.8 6.0
v 44.0 22.5 7.0
v 43.4 23.0 7.0
v 44.0 23.0 12.5
v 44.0 24.0 -3.5
v 44.0 23.4 1.0
v 44.0 23.6 2.0
v 43.9 24.0 3.0
v 44.0 24.0 2.8
v 44.0 24.0 3.2
v 44.0 23.7 4.0
v 44.0 23.4 5.0
v 43.1 24.0 6.0
v 43.4 24.0 13.0
v 44.0 24.0 12.5
v 44.0 25.0 -3.6
v 44.0 24.1 3.0
v 43.3 25.0 13.0
v 44.0 25.0 12.6
v 44.0 26.0 -4.5
v 44.0 25.5 -4.0
v 44.0 26.0 12.4
v 43.3 27.0 -6.0
v 44.0 27.0 -6.4
v 44.0 26.7 -6.0
v 44.0 26.4 -5.0
v 43.8 27.0 12.0
v 44.0 26.8 12.0
v 44.0 27.0 11.8
v 44.0 28.0 -7.4
v 44.0 27.6 -7.0
v 43.8 28.0 1.0
v 44.0 27.8 1.0
v 44.0 28.0 0.7
v 43.8 28.0 2.0
v 44.0 27.8 2.0
v 44.0 28.0 2.9
v 44.0 27.7 12.0
v 44.0 28.0 12.1
v 44.0 29.0 -7.6
v 43.5 29.0 1.0
v 44.0 29.0 0.4
v 43.5 29.0 2.0
v 44.0 28.0 3.0
v 43.5 29.0 3.0
v 44.0 29.0 3.6
v 43.4 29.0 11.0
v 44.0 28.6 11.0
v 44.0 29.0 10.4
v 43.0 29.0 12.0
v 44.0 28.1 12.0
v 44.0 30.0 -8.5
v 44.0 29.5 -8.0
v 43.6 30.0 0.0
v 44.0 29.5 0.0
v 44.0 30.0 -0.5
v 43.1 30.0 2.0
v 44.0 29.4 4.0
v 43.5 30.0 5.0
v 44.0 30.0 4.9
v 43.5 30.0 7.0
v 44.0 29.7 7.0
v 44.0 30.0 6.4
v 44.0 29.5 8.0
v 44.0 29.4 9.0
v 44.0 29.2 10.0
v 43.8 31.0 -10.0
v 44.0 31.0 -10.2
v 44.0 30.8 -10.0
v 44.0 30.4 -9.0
v 43.5 31.0 0.0
v 44.0 31.0 -0.5
v 44.0 30.1 5.0
v 44.0 30.2 6.0
v 43.5 32.0 -10.0
v 44.0 32.0 -10.3
v 43.5 32.0 0.0
v 44.0 32.0 -0.5
v 44.0 33.0 -10.3
v 43.6 33.0 0.0
v 44.0 33.0 -0.4
v 43.1 33.0 1.0
v 44.0 33.6 -10.0
v 43.8 34.0 -10.0
v 44.0 34.0 -9.8
v 43.4 34.0 0.0
v 44.0 34.0 -0.6
v 44.0 35.0 -10.2
v 44.0 34.4 -10.0
v 43.6 35.0 -3.0
v 44.0 34.8 -3.0
v 44.0 35.0 -3.3
v 44.0 34.5 -2.0
v 44.0 34.4 -1.0
v 43.9 36.0 -10.0
v 44.0 36.0 -10.1
v 44.0 36.0 -3.8
v 44.0 36.1 -10.0
v 44.0 36.5 -9.0
v 44.0 36.5 -8.0
v 44.0 36.5 -7.0
v 44.0 36.5 -6.0
v 44.0 36.4 -5.0
v 44.0 36.2 -4.0
v 44.3 21.0 10.0
v 44.3 21.0 11.0
v 45.0 22.0 -2.2
v 45.0 21.9 -2.0
v 45.0 22.0 -1.8
v 45.0 22.0 7.6
v 45.0 21.7 8.0
v 45.0 21.5 9.0
v 45.0 21.5 10.0
v 45.0 21.6 11.0
v 44.4 22.0 12.0
v 45.0 22.0 11.4
v 45.0 23.0 -3.4
v 45.0 22.6 -3.0
v 45.0 22.4 -1.0
v 45.0 22.7 0.0
v 45.0 23.0 0.4
v 45.0 23.0 5.7
v 45.0 22.7 6.0
v 45.0 22.4 7.0
v 45.0 22.8 12.0
v 45.0 23.0 12.1
v 45.0 24.0 -3.4
v 45.0 23.5 1.0
v 45.0 23.8 2.0
v 45.0 24.0 2.2
v 44.4 24.0 4.0
v 45.0 24.0 4.6
v 45.0 23.6 5.0
v 44.8 24.0 12.0
v 45.0 23.6 12.0
v 45.0 24.0 11.9
v 45.0 25.0 -3.7
v 44.9 25.0 3.0
v 45.0 25.0 2.9
v 45.0 25.0 3.2
v 45.0 24.5 4.0
v 45.0 24.2 12.0
v 45.0 25.0 12.4
v 45.0 26.0 -4.7
v 45.0 25.3 -4.0
v 45.0 25.1 3.0
v 45.0 26.0 12.2
v 45.0 27.0 -6.4
v 45.0 26.6 -6.0
v 45.0 26.3 -5.0
v 44.9 27.0 1.0
v 45.0 26.9 1.0
v 45.0 27.0 0.9
v 45.0 27.0 1.1
v 44.7 27.0 11.0
v 45.0 26.7 11.0
v 45.0 27.0 10.6
v 45.0 26.3 12.0
v 45.0 28.0 -7.3
v 45.0 27.6 -7.0
v 44.9 28.0 -2.0
v 45.0 27.9 -2.0
v 45.0 28.0 -2.1
v 45.0 28.0 -1.8
v 44.6 28.0 0.0
v 45.0 27.5 0.0
v 45.0 28.0 -0.7
v 45.0 28.0 1.9
v 44.8 28.0 2.0
v 44.7 28.0 10.0
v 45.0 27.6 10.0
v 45.0 28.0 9.7
v 44.4 28.0 11.0
v 44.1 28.0 12.0
v 45.0 29.0 -7.7
v 44.5 29.0 -2.0
v 45.0 29.0 -2.6
v 45.0 28.3 -1.0
v 44.5 29.0 -1.0
v 44.3 29.0 0.0
v 45.0 28.1 2.0
v 45.0 28.4 3.0
v 44.7 29.0 4.0
v 45.0 28.8 4.0
v 45.0 29.0 4.2
v 44.6 29.0 9.0
v 45.0 28.6 9.0
v 45.0 29.0 8.5
v 44.3 29.0 10.0
v 45.0 30.0 -8.5
v 45.0 29.4 -8.0
v 44.9 30.0 -5.0
v 45.0 29.9 -5.0
v 45.0 30.0 -5.1
v 44.7 30.0 -4.0
v 45.0 29.6 -4.0
v 44.5 30.0 -3.0
v 45.0 29.3 -3.0
v 44.1 30.0 -2.0
v 44.3 30.0 -1.0
v 44.2 30.0 5.0
v 45.0 29.5 5.0
v 44.3 30.0 6.0
v 45.0 29.6 6.0
v 45.0 29.5 7.0
v 45.0 29.3 8.0
v 45.0 31.0 -10.0
v 45.0 31.0 -10.0
v 45.0 30.5 -9.0
v 45.0 30.1 -5.0
v 45.0 31.0 -4.4
v 44.7 31.0 -4.0
v 44.6 31.0 -3.0
v 44.5 31.0 -2.0
v 44.4 31.0 -1.0
v 45.0 31.0 -10.0
v 44.4 32.0 -10.0
v 45.0 32.0 -9.6
v 45.0 31.3 -4.0
v 45.0 31.5 -3.0
v 45.0 31.6 -2.0
v 45.0 32.0 -1.6
v 44.6 32.0 -1.0
v 44.3 33.0 -10.0
v 45.0 33.0 -9.5
v 45.0 32.6 -1.0
v 45.0 33.0 -0.8
v 45.0 34.0 -9.4
v 45.0 34.0 -0.8
v 44.3 35.0 -10.0
v 45.0 35.0 -9.5
v 45.0 34.7 -3.0
v 45.0 35.0 -3.4
v 45.0 34.4 -2.0
v 45.0 34.2 -1.0
v 44.1 36.0 -10.0
v 45.0 36.0 -9.3
v 44.6 36.0 -5.0
v 45.0 35.7 -5.0
v 45.0 36.0 -5.5
v 44.3 36.0 -4.0
v 45.0 35.5 -4.0
v 45.0 36.2 -9.0
v 45.0 36.5 -8.0
v 45.0 36.5 -7.0
v 45.0 36.3 -6.0
v 45.2 22.0 -2.0
v 45.5 22.0 8.0
v 46.0 22.0 8.7
v 46.0 21.9 9.0
v 45.6 22.0 10.0
v 46.0 22.0 9.3
v 45.4 22.0 11.0
v 46.0 23.0 -3.2
v 46.0 22.8 -3.0
v 46.0 22.4 -2.0
v 46.0 22.6 -1.0
v 45.5 23.0 0.0
v 46.0 23.0 -0.4
v 45.4 23.0 6.0
v 46.0 23.0 6.4
v 46.0 22.6 7.0
v 46.0 22.3 8.0
v 46.0 22.4 10.0
v 46.0 22.7 11.0
v 45.2 23.0 12.0
v 46.0 23.0 11.3
v 46.0 23.9 -3.0
v 46.0 24.0 -3.0
v 46.0 24.0 -3.0
v 46.0 23.4 0.0
v 45.6 24.0 1.0
v 46.0 24.0 0.7
v 45.2 24.0 2.0
v 45.4 24.0 5.0
v 46.0 24.0 5.6
v 46.0 23.5 6.0
v 46.0 24.0 11.7
v 45.5 25.0 -4.0
v 46.0 25.0 -4.3
v 46.0 24.7 -4.0
v 46.0 24.0 -3.0
v 46.0 24.3 1.0
v 46.0 25.0 1.7
v 45.7 25.0 2.0
v 45.3 25.0 4.0
v 45.7 25.0 5.0
v 46.0 25.0 5.3
v 46.0 24.7 12.0
v 46.0 25.0 12.1
v 45.7 26.0 -5.0
v 46.0 26.0 -5.2
v 46.0 25.8 -5.0
v 46.0 25.3 2.0
v 46.0 25.6 3.0
v 45.9 26.0 4.0
v 46.0 26.0 3.9
v 46.0 26.0 4.1
v 46.0 25.4 5.0
v 45.4 26.0 12.0
v 46.0 25.2 12.0
v 46.0 26.0 11.4
v 46.0 27.0 -6.2
v 46.0 26.8 -6.0
v 45.6 27.0 0.0
v 46.0 26.7 0.0
v 46.0 27.0 -0.5
v 46.0 26.6 1.0
v 46.0 27.0 1.4
v 46.0 26.1 4.0
v 45.8 27.0 10.0
v 46.0 26.9 10.0
v 46.0 27.0 9.9
v 46.0 26.3 11.0
v 45.5 28.0 -7.0
v 46.0 28.0 -6.5
v 45.6 28.0 -3.0
v 46.0 27.6 -3.0
v 46.0 28.0 -3.7
v 46.0 27.4 -2.0
v 45.2 28.0 -1.0
v 46.0 27.4 -1.0
v 46.0 27.6 2.0
v 45.2 28.0 2.0
v 46.0 28.0 2.4
v 46.0 28.0 9.3
v 45.8 29.0 -8.0
v 46.0 29.0 -8.1
v 46.0 28.9 -8.0
v 46.0 28.3 -7.0
v 45.5 29.0 -4.0
v 46.0 28.3 -4.0
v 46.0 29.0 -4.7
v 45.3 29.0 -3.0
v 46.0 28.5 3.0
v 45.3 29.0 4.0
v 46.0 29.0 3.6
v 45.5 29.0 8.0
v 46.0 28.7 8.0
v 46.0 29.0 7.5
v 46.0 28.3 9.0
v 46.0 30.0 -8.4
v 45.9 30.0 -6.0
v 46.0 29.9 -6.0
v 46.0 30.0 -6.1
v 46.0 29.2 -5.0
v 46.0 29.3 4.0
v 46.0 29.5 5.0
v 46.0 29.5 6.0
v 46.0 29.3 7.0
v 45.0 31.0 -10.0
v 45.5 31.0 -9.0
v 46.0 31.0 -8.6
v 45.8 31.0 -6.0
v 46.0 31.0 -6.1
v 45.4 31.0 -5.0
v 45.5 32.0 -9.0
v 46.0 32.0 -8.5
v 46.0 31.2 -6.0
v 46.0 31.6 -5.0
v 45.6 32.0 -4.0
v 46.0 32.0 -4.5
v 45.5 32.0 -3.0
v 45.3 32.0 -2.0
v 45.5 33.0 -9.0
v 46.0 33.0 -8.5
v 46.0 32.4 -4.0
v 46.0 32.7 -3.0
v 46.0 33.0 -2.7
v 45.6 33.0 -2.0
v 45.2 33.0 -1.0
v 45.5 34.0 -9.0
v 46.0 34.0 -8.5
v 45.5 34.0 -2.0
v 46.0 34.0 -2.5
v 45.2 34.0 -1.0
v 45.5 35.0 -9.0
v 46.0 35.0 -8.6
v 45.9 35.0 -3.0
v 46.0 35.0 -3.0
v 45.3 36.0 -9.0
v 46.0 36.0 -8.4
v 45.5 36.0 -6.0
v 46.0 35.7 -6.0
v 46.0 36.0 -6.4
v 46.0 35.5 -5.0
v 46.0 35.4 -4.0
v 46.0 35.0 -3.0
v 46.0 36.4 -8.0
v 46.0 36.4 -7.0
v 46.2 22.0 9.0
v 47.0 23.0 -3.1
v 47.0 22.9 -3.0
v 47.0 22.6 -2.0
v 47.0 22.7 -1.0
v 47.0 23.0 -0.6
v 47.0 23.0 6.8
v 47.0 22.8 7.0
v 47.0 22.6 8.0
v 47.0 22.7 9.0
v 46.6 23.0 10.0
v 47.0 23.0 9.5
v 46.4 23.0 11.0
v 47.0 23.5 -3.0
v 47.0 24.0 -2.9
v 47.0 23.5 0.0
v 47.0 24.0 0.4
v 46.6 24.0 6.0
v 47.0 24.0 6.3
v 47.0 23.4 10.0
v 47.0 23.6 11.0
v 47.0 24.0 11.7
v 47.0 25.0 -4.2
v 47.0 24.8 -4.0
v 47.0 24.1 -3.0
v 47.0 24.7 1.0
v 47.0 25.0 1.2
v 47.0 25.0 5.6
v 47.0 24.4 6.0
v 46.2 25.0 12.0
v 47.0 25.0 11.4
v 46.2 26.0 -5.0
v 47.0 26.0 -4.3
v 46.7 26.0 2.0
v 47.0 26.0 1.6
v 47.0 26.0 2.8
v 47.0 25.9 3.0
v 47.0 26.0 3.1
v 46.6 26.0 5.0
v 47.0 26.0 5.4
v 46.6 26.0 11.0
v 47.0 25.6 11.0
v 47.0 26.0 10.8
v 46.2 27.0 -6.0
v 46.4 27.0 -5.0
v 47.0 26.3 -4.0
v 46.6 27.0 -4.0
v 46.5 27.0 -3.0
v 47.0 26.5 -3.0
v 46.5 27.0 -2.0
v 47.0 26.6 -2.0
v 46.4 27.0 -1.0
v 47.0 26.5 -1.0
v 47.0 26.5 0.0
v 47.0 26.3 1.0
v 47.0 26.7 2.0
v 47.0 27.0 1.8
v 47.0 26.5 4.0
v 47.0 26.4 5.0
v 46.6 27.0 10.0
v 47.0 27.0 10.1
v 46.4 28.0 -6.0
v 46.1 28.0 -5.0
v 46.2 28.0 -4.0
v 47.0 27.2 2.0
v 47.0 28.0 2.6
v 46.4 28.0 9.0
v 47.0 27.5 9.0
v 47.0 28.0 8.4
v 47.0 27.1 10.0
v 46.1 29.0 -8.0
v 47.0 29.0 -7.4
v 47.0 28.6 -7.0
v 47.0 28.6 -6.0
v 47.0 29.0 -5.6
v 46.2 29.0 -5.0
v 47.0 28.5 3.0
v 47.0 29.0 3.5
v 46.5 29.0 7.0
v 47.0 28.5 7.0
v 47.0 29.0 6.4
v 47.0 28.3 8.0
v 46.6 30.0 -8.0
v 47.0 30.0 -7.7
v 46.1 30.0 -6.0
v 47.0 30.0 -5.7
v 47.0 29.4 4.0
v 47.0 29.5 5.0
v 47.0 29.3 6.0
v 47.0 31.0 -8.2
v 47.0 30.7 -8.0
v 47.0 30.8 -6.0
v 47.0 31.0 -6.1
v 47.0 31.3 -8.0
v 46.6 32.0 -8.0
v 47.0 32.0 -7.7
v 47.0 31.1 -6.0
v 46.5 32.0 -5.0
v 47.0 32.0 -5.4
v 46.5 33.0 -8.0
v 47.0 33.0 -7.6
v 47.0 32.4 -5.0
v 46.6 33.0 -4.0
v 47.0 33.0 -4.4
v 46.3 33.0 -3.0
v 46.7 34.0 -8.0
v 47.0 34.0 -7.7
v 47.0 33.6 -4.0
v 47.0 34.0 -3.8
v 46.4 34.0 -3.0
v 47.0 35.0 -8.4
v 47.0 34.4 -8.0
v 46.5 35.0 -4.0
v 47.0 34.3 -4.0
v 47.0 35.0 -4.5
v 46.0 35.0 -3.0
v 47.0 36.0 -8.2
v 47.0 35.6 -6.0
v 47.0 36.0 -6.7
v 47.0 35.3 -5.0
v 47.0 36.2 -8.0
v 47.0 36.2 -7.0
v 47.1 23.0 -3.0
v 48.0 23.0 -2.4
v 48.0 22.7 -2.0
v 47.5 23.0 -1.0
v 48.0 23.0 -1.5
v 47.3 23.0 7.0
v 47.4 23.0 8.0
v 47.3 23.0 9.0
v 48.0 23.7 -3.0
v 47.3 24.0 -3.0
v 48.0 24.0 -3.2
v 48.0 23.3 -1.0
v 48.0 23.9 0.0
v 48.0 24.0 0.1
v 48.0 24.0 6.7
v 48.0 23.7 7.0
v 48.0 23.7 8.0
v 48.0 24.0 8.4
v 47.6 24.0 9.0
v 47.4 24.0 10.0
v 47.3 24.0 11.0
v 47.3 25.0 -4.0
v 48.0 25.0 -3.4
v 47.9 25.0 0.0
v 48.0 24.4 0.0
v 48.0 25.0 -0.2
v 47.3 25.0 1.0
v 48.0 25.0 5.9
v 48.0 24.9 6.0
v 47.8 25.0 9.0
v 48.0 25.0 8.7
v 47.6 25.0 10.0
v 47.4 25.0 11.0
v 47.3 26.0 -4.0
v 48.0 25.6 -3.0
v 47.6 26.0 -3.0
v 48.0 26.0 -2.3
v 47.8 26.0 -1.0
v 48.0 25.8 -1.0
v 48.0 26.0 -1.5
v 48.0 25.7 0.0
v 48.0 26.0 -0.3
v 48.0 26.0 0.1
v 47.3 26.0 1.0
v 47.1 26.0 3.0
v 48.0 25.2 6.0
v 47.6 26.0 6.0
v 48.0 26.0 6.4
v 48.0 25.5 9.0
v 48.0 25.7 10.0
v 48.0 26.0 10.5
v 48.0 26.2 -2.0
v 48.0 26.1 0.0
v 47.1 27.0 2.0
v 47.5 27.0 3.0
v 47.4 27.0 4.0
v 47.5 27.0 5.0
v 47.5 27.0 6.0
v 48.0 26.5 7.0
v 47.6 27.0 7.0
v 47.6 27.0 8.0
v 48.0 26.6 8.0
v 47.5 27.0 9.0
v 48.0 26.4 9.0
v 47.1 27.0 10.0
v 48.0 26.2 10.0
v 48.0 28.0 3.0
v 48.0 28.0 3.0
v 48.0 28.0 3.1
v 47.8 28.0 4.0
v 48.0 28.0 4.6
v 48.0 27.8 5.0
v 48.0 28.0 5.2
v 47.6 28.0 6.0
v 47.4 28.0 7.0
v 47.2 28.0 8.0
v 48.0 29.0 -7.2
v 48.0 28.8 -7.0
v 48.0 28.7 -6.0
v 48.0 29.0 -5.7
v 48.0 28.4 3.0
v 48.0 28.5 4.0
v 48.0 29.0 3.2
v 47.3 29.0 6.0
v 48.0 29.0 5.2
v 48.0 30.0 -7.5
v 48.0 30.0 -5.5
v 48.0 29.2 4.0
v 48.0 29.2 5.0
v 47.2 31.0 -8.0
v 48.0 31.0 -7.6
v 47.2 31.0 -6.0
v 48.0 31.0 -5.6
v 48.0 32.0 -7.5
v 48.0 32.0 -5.4
v 48.0 33.0 -7.5
v 48.0 32.6 -5.0
v 48.0 33.0 -4.7
v 48.0 34.0 -7.6
v 47.3 34.0 -4.0
v 48.0 34.0 -4.5
v 48.0 35.0 -8.0
v 48.0 35.0 -8.0
v 47.6 35.0 -5.0
v 48.0 34.7 -5.0
v 48.0 35.0 -5.4
v 48.0 35.0 -8.0
v 47.2 36.0 -8.0
v 47.3 36.0 -7.0
v 48.0 35.4 -7.0
v 48.0 35.3 -6.0
v 49.0 23.0 -2.0
v 49.0 23.0 -2.0
v 49.0 23.0 -2.0
v 48.4 24.0 -3.0
v 49.0 24.0 -2.7
v 49.0 23.7 -1.0
v 48.1 24.0 0.0
v 49.0 24.0 -0.7
v 48.3 24.0 7.0
v 48.3 24.0 8.0
v 49.0 25.0 -3.3
v 49.0 24.6 -3.0
v 49.0 25.0 -0.7
v 48.1 25.0 6.0
v 49.0 25.0 6.9
v 49.0 24.9 7.0
v 49.0 25.0 7.2
v 48.6 25.0 8.0
v 49.0 25.3 -3.0
v 48.3 26.0 -2.0
v 49.0 25.7 -2.0
v 49.0 25.4 -1.0
v 48.2 26.0 0.0
v 49.0 26.0 6.9
v 49.0 25.9 8.0
v 48.3 26.0 9.0
v 49.0 26.0 8.1
v 48.2 26.0 10.0
v 49.0 26.1 7.0
v 49.0 26.0 8.0
v 48.0 28.0 3.0
v 48.1 28.0 5.0
v 48.4 29.0 -7.0
v 49.0 29.0 -6.3
v 49.0 28.8 -6.0
v 49.0 29.0 -5.8
v 48.2 29.0 4.0
v 48.2 29.0 5.0
v 49.0 30.0 -7.3
v 49.0 29.6 -7.0
v 49.0 30.0 -5.5
v 49.0 31.0 -7.4
v 49.0 31.0 -5.5
v 49.0 32.0 -7.4
v 49.0 32.0 -5.6
v 49.0 33.0 -7.3
v 48.4 33.0 -5.0
v 49.0 33.0 -5.6
v 49.0 34.0 -7.1
v 48.8 34.0 -6.0
v 49.0 33.7 -6.0
v 49.0 34.0 -6.7
v 49.0 34.0 -5.1
v 49.0 34.0 -5.0
v 49.0 34.0 -5.0
v 48.0 35.0 -8.0
v 49.0 34.1 -7.0
v 48.4 35.0 -7.0
v 48.4 35.0 -6.0
v 49.0 34.1 -5.0
v 49.0 23.0 -2.0
v 50.0 24.0 -2.2
v 50.0 23.9 -2.0
v 49.3 24.0 -1.0
v 50.0 24.0 -1.9
v 50.0 25.0 -3.3
v 50.0 24.6 -3.0
v 49.4 25.0 -1.0
v 50.0 25.0 -1.5
v 49.1 25.0 7.0
v 49.7 26.0 -3.0
v 50.0 26.0 -3.2
v 49.6 26.0 -2.0
v 50.0 26.0 -1.8
v 49.1 26.0 7.0
v 49.0 26.0 8.0
v 50.0 26.2 -3.0
v 50.0 26.2 -2.0
v 49.9 29.0 -6.0
v 49.3 30.0 -7.0
v 50.0 30.0 -6.3
v 50.0 29.1 -6.0
v 50.0 30.0 -5.7
v 49.4 31.0 -7.0
v 50.0 31.0 -6.0
v 50.0 31.0 -6.0
v 49.4 32.0 -7.0
v 50.0 31.0 -6.0
v 49.4 32.0 -6.0
v 49.3 33.0 -7.0
v 49.3 33.0 -6.0
v 49.1 34.0 -7.0
v 49.0 34.0 -5.0
v 50.1 24.0 -2.0
v 51.0 25.0 -3.3
v 51.0 24.7 -3.0
v 51.0 24.7 -2.0
v 51.0 25.0 -1.8
v 51.0 26.0 -3.3
v 51.0 26.0 -1.8
v 51.0 26.3 -3.0
v 51.0 26.2 -2.0
v 50.2 30.0 -6.0
v 50.0 31.0 -6.0
v 51.9 25.0 -3.0
v 51.3 25.0 -2.0
v 51.9 26.0 -3.0
v 51.2 26.0 -2.0
f 3 2 1
f 5 4 1
f 1 4 3
f 7 6 5
f 5 6 4
f 9 8 7
f 7 8 6
f 9 10 8
f 13 12 11
f 13 11 2
f 11 1 2
f 11 14 1
f 1 15 5
f 1 14 15
f 5 16 7
f 5 15 16
f 7 17 9
f 7 16 17
f 10 9 18
f 18 9 17
f 12 19 11
f 11 19 14
f 14 19 20
f 14 20 15
f 15 20 21
f 15 21 16
f 16 21 22
f 16 22 17
f 17 22 23
f 17 23 18
f 26 25 24
f 28 27 24
f 24 27 26
f 28 29 27
f 24 25 30
f 30 25 31
f 24 32 28
f 24 30 32
f 29 28 33
f 33 28 32
f 30 31 34
f 34 31 35
f 30 36 32
f 30 34 36
f 33 32 37
f 37 32 36
f 40 39 38
f 42 41 38
f 38 41 40
f 41 42 35
f 42 34 35
f 42 43 34
f 45 36 44
f 36 43 44
f 36 34 43
f 36 45 37
f 48 47 46
f 2 3 46
f 3 48 46
f 3 49 48
f 4 38 39
f 49 4 39
f 3 4 49
f 38 4 6
f 38 6 42
f 42 6 8
f 42 8 43
f 8 10 43
f 10 44 43
f 10 50 44
f 53 52 51
f 53 51 47
f 47 51 46
f 51 12 46
f 12 13 46
f 46 13 2
f 18 50 10
f 18 54 50
f 52 55 51
f 55 57 56
f 55 56 19
f 51 55 19
f 12 51 19
f 58 20 19
f 58 19 56
f 59 21 20
f 59 20 58
f 60 22 21
f 60 21 59
f 22 60 61
f 62 22 61
f 23 22 62
f 18 23 54
f 54 23 62
f 57 63 56
f 56 63 58
f 58 63 64
f 58 64 59
f 59 64 65
f 59 65 60
f 60 65 66
f 60 66 61
f 69 68 67
f 67 70 69
f 73 72 71
f 73 71 68
f 71 67 68
f 71 74 67
f 70 67 75
f 75 67 74
f 71 72 76
f 76 72 77
f 79 74 78
f 74 76 78
f 74 71 76
f 74 79 75
f 82 81 80
f 82 80 77
f 80 76 77
f 80 83 76
f 78 76 84
f 84 76 83
f 87 86 85
f 89 88 85
f 85 88 87
f 88 89 81
f 89 80 81
f 89 90 80
f 92 83 91
f 83 90 91
f 83 80 90
f 83 92 84
f 86 93 85
f 85 93 89
f 89 93 94
f 89 94 90
f 90 94 95
f 90 95 91
f 97 96 26
f 26 96 25
f 98 26 27
f 98 97 26
f 27 29 98
f 98 29 99
f 96 31 25
f 100 31 96
f 33 99 29
f 33 101 99
f 104 103 102
f 100 104 102
f 35 100 102
f 31 100 35
f 107 106 105
f 106 101 105
f 101 37 105
f 101 33 37
f 110 109 108
f 112 111 108
f 108 111 110
f 39 40 112
f 40 111 112
f 40 113 111
f 41 102 103
f 113 41 103
f 40 41 113
f 102 41 35
f 45 44 114
f 105 115 107
f 115 105 116
f 105 37 116
f 45 114 116
f 45 116 37
f 119 118 117
f 119 117 109
f 109 117 108
f 117 47 108
f 47 48 108
f 108 48 49
f 108 49 112
f 112 49 39
f 50 120 114
f 50 114 44
f 116 114 121
f 121 114 120
f 117 118 53
f 118 52 53
f 118 122 52
f 117 53 47
f 124 123 120
f 50 124 120
f 54 124 50
f 120 123 121
f 55 52 125
f 52 126 125
f 52 122 126
f 125 57 55
f 61 127 62
f 127 128 62
f 128 54 62
f 128 124 54
f 126 129 125
f 125 129 57
f 129 63 57
f 129 130 63
f 63 131 64
f 130 131 63
f 64 132 65
f 131 132 64
f 65 133 66
f 132 133 65
f 61 66 127
f 66 134 127
f 66 133 134
f 127 134 128
f 137 136 135
f 139 138 135
f 135 138 137
f 139 140 138
f 135 136 141
f 141 136 142
f 135 143 139
f 135 141 143
f 140 139 144
f 144 139 143
f 141 142 145
f 145 142 146
f 145 68 69
f 143 145 69
f 141 145 143
f 69 70 143
f 70 144 143
f 70 147 144
f 150 149 148
f 150 148 146
f 146 148 145
f 148 72 145
f 72 73 145
f 145 73 68
f 75 147 70
f 75 151 147
f 148 149 152
f 152 149 153
f 152 77 72
f 152 72 148
f 155 154 79
f 155 79 78
f 75 79 151
f 151 79 154
f 158 157 156
f 158 156 153
f 153 156 152
f 156 81 152
f 81 82 152
f 152 82 77
f 84 155 78
f 84 159 155
f 161 160 87
f 87 160 86
f 88 156 157
f 161 88 157
f 87 88 161
f 156 88 81
f 163 162 92
f 163 92 91
f 84 92 159
f 159 92 162
f 160 164 86
f 86 164 93
f 93 165 94
f 164 165 93
f 94 166 95
f 165 166 94
f 91 95 163
f 163 95 166
f 167 96 97
f 167 97 168
f 97 169 168
f 97 98 169
f 98 99 169
f 169 99 170
f 171 100 167
f 167 100 96
f 167 168 172
f 167 172 171
f 101 170 99
f 101 173 170
f 174 103 104
f 175 174 104
f 175 104 100
f 176 175 100
f 171 176 100
f 177 176 107
f 171 107 176
f 107 171 106
f 172 106 171
f 106 172 178
f 101 106 173
f 173 106 178
f 180 179 110
f 110 179 109
f 181 110 111
f 181 180 110
f 182 111 113
f 182 181 111
f 113 103 174
f 183 113 174
f 182 113 183
f 183 174 175
f 184 177 107
f 184 107 115
f 115 116 184
f 184 116 185
f 188 187 186
f 190 189 186
f 186 189 188
f 118 119 190
f 119 189 190
f 119 191 189
f 119 109 179
f 119 179 191
f 194 193 192
f 193 185 192
f 185 121 192
f 185 116 121
f 186 187 195
f 195 187 196
f 186 197 190
f 186 195 197
f 197 122 118
f 197 118 190
f 194 192 123
f 124 194 123
f 198 194 124
f 123 192 121
f 196 199 195
f 201 200 199
f 200 195 199
f 200 197 195
f 200 126 122
f 200 122 197
f 128 198 124
f 128 202 198
f 205 204 203
f 203 206 205
f 201 207 200
f 200 207 126
f 207 129 126
f 207 208 129
f 129 209 130
f 208 209 129
f 130 210 131
f 209 210 130
f 131 211 132
f 210 211 131
f 132 212 133
f 211 212 132
f 133 213 134
f 212 213 133
f 128 134 202
f 202 134 213
f 216 215 214
f 216 214 204
f 214 203 204
f 214 217 203
f 206 203 218
f 218 203 217
f 214 215 137
f 215 136 137
f 215 219 136
f 214 137 138
f 214 138 217
f 221 220 140
f 140 220 138
f 220 218 138
f 218 217 138
f 221 222 220
f 225 224 223
f 219 225 223
f 142 219 223
f 136 219 142
f 144 226 221
f 144 221 140
f 222 221 227
f 227 221 226
f 223 224 228
f 228 224 229
f 228 146 142
f 228 142 223
f 147 230 226
f 147 226 144
f 227 226 231
f 231 226 230
f 228 229 150
f 229 149 150
f 229 232 149
f 228 150 146
f 234 233 230
f 147 234 230
f 151 234 147
f 230 233 231
f 237 236 235
f 232 237 235
f 153 232 235
f 149 232 153
f 239 238 154
f 239 154 155
f 151 154 234
f 234 154 238
f 242 241 240
f 242 240 236
f 236 240 235
f 240 157 235
f 157 158 235
f 235 158 153
f 245 244 243
f 244 239 243
f 239 159 243
f 239 155 159
f 240 241 161
f 241 160 161
f 241 246 160
f 240 161 157
f 245 243 162
f 163 245 162
f 247 245 163
f 162 243 159
f 246 248 160
f 160 248 164
f 164 249 165
f 248 249 164
f 165 250 166
f 249 250 165
f 163 166 247
f 247 166 250
f 252 251 169
f 169 251 168
f 169 170 252
f 252 170 253
f 251 172 168
f 254 172 251
f 173 253 170
f 173 255 253
f 257 256 176
f 176 256 175
f 176 177 257
f 258 257 177
f 254 178 172
f 178 254 259
f 173 178 255
f 255 178 259
f 262 261 260
f 179 180 260
f 180 262 260
f 180 263 262
f 264 180 181
f 264 263 180
f 265 181 182
f 265 264 181
f 266 182 183
f 266 265 182
f 183 175 256
f 183 256 266
f 267 258 177
f 267 177 184
f 184 185 267
f 267 185 268
f 271 270 269
f 187 188 269
f 188 271 269
f 188 272 271
f 273 188 189
f 273 272 188
f 191 260 261
f 273 191 261
f 189 191 273
f 260 191 179
f 275 274 193
f 275 193 194
f 185 193 268
f 268 193 274
f 278 277 276
f 280 279 276
f 276 279 278
f 279 280 270
f 280 269 270
f 280 281 269
f 281 196 187
f 281 187 269
f 198 275 194
f 198 282 275
f 276 277 283
f 283 277 284
f 276 285 280
f 276 283 285
f 280 286 281
f 280 285 286
f 287 199 196
f 281 287 196
f 286 287 281
f 287 201 199
f 202 282 198
f 202 288 282
f 291 290 289
f 291 289 284
f 289 283 284
f 289 292 283
f 283 293 285
f 283 292 293
f 293 204 205
f 286 293 205
f 285 293 286
f 286 205 206
f 294 286 206
f 287 286 294
f 295 207 201
f 287 295 201
f 294 295 287
f 296 208 207
f 296 207 295
f 297 209 208
f 297 208 296
f 298 210 209
f 298 209 297
f 299 211 210
f 299 210 298
f 211 299 300
f 301 211 300
f 212 211 301
f 212 302 213
f 301 302 212
f 202 213 288
f 288 213 302
f 289 290 303
f 303 290 304
f 289 305 292
f 289 303 305
f 305 215 216
f 293 305 216
f 292 305 293
f 293 216 204
f 218 306 294
f 218 294 206
f 294 307 295
f 294 306 307
f 309 296 308
f 296 307 308
f 296 295 307
f 296 309 297
f 297 309 310
f 297 310 298
f 298 310 311
f 298 311 299
f 299 311 312
f 299 312 300
f 303 304 313
f 313 304 314
f 303 315 305
f 303 313 315
f 315 219 215
f 315 215 305
f 220 306 218
f 307 306 316
f 306 222 316
f 222 317 316
f 222 306 220
f 307 316 308
f 313 314 318
f 318 314 319
f 318 224 225
f 315 318 225
f 313 318 315
f 315 225 219
f 227 317 222
f 227 320 317
f 318 319 321
f 321 319 322
f 321 229 224
f 321 224 318
f 325 324 323
f 324 320 323
f 320 231 323
f 320 227 231
f 321 322 326
f 326 322 327
f 326 232 229
f 326 229 321
f 325 323 233
f 234 325 233
f 328 325 234
f 233 323 231
f 331 330 329
f 331 329 327
f 327 329 326
f 329 236 326
f 236 237 326
f 326 237 232
f 333 332 238
f 333 238 239
f 234 238 328
f 328 238 332
f 329 330 242
f 330 241 242
f 330 334 241
f 329 242 236
f 336 335 244
f 336 244 245
f 239 244 333
f 333 244 335
f 339 338 337
f 334 339 337
f 246 334 337
f 241 334 246
f 247 336 245
f 247 340 336
f 338 341 337
f 337 341 246
f 341 248 246
f 341 342 248
f 248 343 249
f 342 343 248
f 249 344 250
f 343 344 249
f 247 250 340
f 340 250 344
f 346 345 252
f 252 345 251
f 252 253 346
f 346 253 347
f 345 254 251
f 348 254 345
f 255 347 253
f 255 349 347
f 352 351 350
f 256 257 350
f 257 352 350
f 257 353 352
f 348 259 254
f 259 348 354
f 353 354 348
f 354 353 258
f 257 258 353
f 354 355 259
f 355 255 259
f 355 349 255
f 358 357 356
f 356 359 358
f 360 261 262
f 263 361 262
f 262 361 360
f 361 263 362
f 263 363 362
f 263 264 363
f 364 264 265
f 364 363 264
f 266 350 351
f 364 266 351
f 265 266 364
f 350 266 256
f 354 258 267
f 367 366 365
f 366 367 268
f 367 355 268
f 354 267 268
f 354 268 355
f 370 369 368
f 372 371 368
f 368 371 370
f 371 372 357
f 357 372 356
f 372 270 356
f 270 271 356
f 373 359 356
f 271 373 356
f 272 373 271
f 374 272 273
f 374 373 272
f 374 273 261
f 375 374 261
f 360 375 261
f 374 375 376
f 377 360 361
f 375 360 377
f 361 362 378
f 361 378 377
f 365 366 274
f 275 365 274
f 379 365 275
f 274 366 268
f 382 381 380
f 382 380 369
f 369 380 368
f 380 277 368
f 277 278 368
f 368 278 279
f 368 279 372
f 372 279 270
f 383 376 375
f 383 375 377
f 383 377 384
f 384 377 378
f 282 379 275
f 282 385 379
f 388 387 386
f 388 386 381
f 386 380 381
f 386 389 380
f 389 284 277
f 389 277 380
f 288 385 282
f 288 390 385
f 386 387 391
f 391 387 392
f 391 290 291
f 389 391 291
f 386 391 389
f 389 291 284
f 300 393 301
f 394 302 301
f 394 301 393
f 394 395 302
f 395 288 302
f 395 390 288
f 391 392 396
f 396 392 397
f 396 304 290
f 396 290 391
f 399 398 309
f 399 309 308
f 309 400 310
f 398 400 309
f 310 401 311
f 400 401 310
f 311 402 312
f 401 402 311
f 300 312 393
f 312 403 393
f 312 402 403
f 393 403 394
f 394 403 404
f 394 404 395
f 396 397 405
f 405 397 406
f 405 314 304
f 405 304 396
f 317 407 316
f 407 408 316
f 408 308 316
f 408 399 308
f 405 406 409
f 409 406 410
f 409 319 314
f 409 314 405
f 413 412 411
f 414 411 412
f 416 415 407
f 317 416 407
f 320 416 317
f 407 415 408
f 409 410 417
f 417 410 418
f 417 322 319
f 417 319 409
f 413 411 419
f 413 419 420
f 421 324 325
f 411 421 325
f 419 411 325
f 421 411 414
f 320 324 416
f 416 324 421
f 424 423 422
f 424 422 418
f 422 417 418
f 422 425 417
f 425 327 322
f 425 322 417
f 426 420 419
f 419 325 426
f 325 427 426
f 325 328 427
f 423 428 422
f 429 330 331
f 422 429 331
f 425 422 331
f 428 429 422
f 425 331 327
f 431 430 332
f 431 332 333
f 328 332 427
f 427 332 430
f 434 433 432
f 429 434 432
f 334 429 432
f 330 429 334
f 436 435 335
f 436 335 336
f 333 335 431
f 431 335 435
f 439 438 437
f 439 437 433
f 433 437 432
f 437 338 432
f 338 339 432
f 432 339 334
f 442 441 440
f 441 436 440
f 436 340 440
f 436 336 340
f 438 443 437
f 437 443 338
f 443 341 338
f 443 444 341
f 341 445 342
f 444 445 341
f 342 446 343
f 445 446 342
f 440 344 442
f 344 446 442
f 344 343 446
f 344 440 340
f 449 448 447
f 345 346 447
f 346 449 447
f 346 450 449
f 346 347 450
f 450 347 451
f 454 453 452
f 454 452 448
f 452 447 448
f 452 455 447
f 455 348 345
f 455 345 447
f 349 451 347
f 349 456 451
f 452 453 352
f 453 351 352
f 453 457 351
f 452 352 353
f 452 353 455
f 455 353 348
f 355 456 349
f 355 458 456
f 461 460 459
f 463 462 459
f 459 462 461
f 465 464 463
f 463 464 462
f 357 358 465
f 358 464 465
f 358 466 464
f 468 467 359
f 467 358 359
f 467 466 358
f 468 469 467
f 470 362 363
f 470 363 471
f 363 472 471
f 363 364 472
f 364 351 457
f 364 457 472
f 365 473 367
f 473 474 367
f 474 355 367
f 474 458 355
f 459 460 475
f 475 460 476
f 475 369 370
f 463 475 370
f 459 475 463
f 463 370 371
f 463 371 465
f 465 371 357
f 373 468 359
f 477 469 468
f 373 477 468
f 374 477 373
f 374 376 477
f 477 376 478
f 481 480 479
f 482 481 470
f 481 378 470
f 378 362 470
f 481 479 378
f 482 470 471
f 379 483 473
f 379 473 365
f 474 473 484
f 484 473 483
f 487 486 485
f 487 485 476
f 476 485 475
f 485 381 475
f 381 382 475
f 475 382 369
f 488 478 376
f 488 376 383
f 384 479 480
f 488 384 480
f 383 384 488
f 479 384 378
f 490 489 483
f 379 490 483
f 385 490 379
f 483 489 484
f 493 492 491
f 493 491 486
f 486 491 485
f 491 387 485
f 387 388 485
f 485 388 381
f 390 490 385
f 390 494 490
f 491 492 495
f 495 492 496
f 495 392 387
f 495 387 491
f 499 498 497
f 498 494 497
f 494 395 497
f 494 390 395
f 495 496 500
f 500 496 501
f 500 397 392
f 500 392 495
f 503 502 398
f 503 398 399
f 398 504 400
f 502 504 398
f 400 505 401
f 504 505 400
f 401 506 402
f 505 506 401
f 402 507 403
f 506 507 402
f 497 404 499
f 404 507 499
f 404 403 507
f 404 497 395
f 500 501 508
f 508 501 509
f 508 406 397
f 508 397 500
f 408 503 399
f 408 510 503
f 508 509 511
f 511 509 512
f 511 410 406
f 511 406 508
f 515 514 513
f 412 413 513
f 514 412 513
f 516 412 514
f 414 412 516
f 414 516 517
f 519 518 415
f 519 415 416
f 408 415 510
f 510 415 518
f 522 521 520
f 520 523 522
f 511 512 524
f 524 512 525
f 524 418 410
f 524 410 511
f 526 515 513
f 513 413 526
f 413 527 526
f 413 420 527
f 517 528 414
f 414 528 421
f 416 421 519
f 519 421 528
f 531 530 529
f 531 529 521
f 529 520 521
f 529 532 520
f 523 520 533
f 520 534 533
f 520 532 534
f 536 535 534
f 534 535 533
f 536 537 535
f 540 539 538
f 540 538 525
f 525 538 524
f 538 423 524
f 423 424 524
f 524 424 418
f 420 426 541
f 542 420 541
f 527 420 542
f 427 541 426
f 529 530 543
f 543 530 544
f 529 545 532
f 529 543 545
f 532 546 534
f 532 545 546
f 534 547 536
f 534 546 547
f 537 536 548
f 548 536 547
f 538 539 549
f 549 539 550
f 551 428 423
f 538 551 423
f 549 551 538
f 551 429 428
f 542 541 430
f 431 542 430
f 552 542 431
f 430 541 427
f 543 544 553
f 553 544 554
f 543 555 545
f 543 553 555
f 545 556 546
f 545 555 556
f 546 557 547
f 546 556 557
f 548 547 558
f 547 559 558
f 547 557 559
f 558 559 550
f 559 549 550
f 559 560 549
f 560 433 434
f 551 560 434
f 549 560 551
f 551 434 429
f 563 562 561
f 565 564 561
f 565 561 562
f 435 436 564
f 565 435 564
f 566 435 565
f 431 435 552
f 552 435 566
f 554 567 553
f 553 567 555
f 555 567 568
f 570 569 568
f 569 555 568
f 569 556 555
f 556 571 557
f 556 569 571
f 557 572 559
f 557 571 572
f 572 438 439
f 560 572 439
f 559 572 560
f 560 439 433
f 573 563 561
f 442 574 441
f 574 561 441
f 561 564 441
f 574 573 561
f 441 564 436
f 570 575 569
f 569 575 571
f 571 575 576
f 571 576 572
f 572 576 577
f 572 577 438
f 577 443 438
f 577 578 443
f 443 579 444
f 578 579 443
f 444 580 445
f 579 580 444
f 445 581 446
f 580 581 445
f 442 446 574
f 574 446 581
f 584 583 582
f 448 449 582
f 449 584 582
f 449 585 584
f 586 449 450
f 586 585 449
f 450 451 586
f 586 451 587
f 582 583 454
f 583 453 454
f 583 588 453
f 582 454 448
f 456 587 451
f 456 589 587
f 592 591 590
f 590 593 592
f 596 595 594
f 588 596 594
f 457 588 594
f 453 588 457
f 458 589 456
f 458 597 589
f 600 599 598
f 600 598 591
f 591 598 590
f 598 460 590
f 460 461 590
f 601 593 590
f 461 601 590
f 462 601 461
f 602 462 464
f 602 601 462
f 603 464 466
f 603 602 464
f 604 466 467
f 604 603 466
f 467 469 604
f 604 469 605
f 594 595 472
f 595 471 472
f 595 606 471
f 594 472 457
f 474 597 458
f 474 607 597
f 610 609 608
f 610 608 599
f 608 598 599
f 608 611 598
f 611 476 460
f 611 460 598
f 612 605 469
f 612 469 477
f 477 478 612
f 612 478 613
f 615 614 481
f 481 614 480
f 616 481 482
f 616 615 481
f 482 471 606
f 482 606 616
f 619 618 617
f 618 607 617
f 607 484 617
f 607 474 484
f 608 609 620
f 620 609 621
f 620 486 487
f 611 620 487
f 608 620 611
f 611 487 476
f 622 613 478
f 622 478 488
f 488 480 614
f 488 614 622
f 619 617 489
f 490 619 489
f 623 619 490
f 489 617 484
f 626 625 624
f 626 624 621
f 621 624 620
f 624 492 620
f 492 493 620
f 620 493 486
f 494 623 490
f 494 627 623
f 624 625 628
f 628 625 629
f 628 496 492
f 628 492 624
f 631 630 498
f 631 498 499
f 494 498 627
f 627 498 630
f 634 633 632
f 634 632 629
f 632 628 629
f 632 635 628
f 635 501 496
f 635 496 628
f 503 636 502
f 637 504 502
f 637 502 636
f 504 637 638
f 639 504 638
f 505 504 639
f 505 640 506
f 639 640 505
f 506 641 507
f 640 641 506
f 499 507 631
f 631 507 641
f 644 643 642
f 646 645 642
f 642 645 644
f 646 647 645
f 632 633 648
f 648 633 649
f 632 650 635
f 632 648 650
f 650 509 501
f 650 501 635
f 652 651 636
f 503 652 636
f 510 652 503
f 636 651 637
f 637 651 653
f 637 653 638
f 656 655 654
f 658 657 654
f 654 657 656
f 657 658 643
f 658 642 643
f 658 659 642
f 642 660 646
f 642 659 660
f 647 646 661
f 646 662 661
f 646 660 662
f 661 662 649
f 662 648 649
f 662 663 648
f 648 664 650
f 648 663 664
f 664 512 509
f 664 509 650
f 666 665 514
f 666 514 515
f 514 667 516
f 665 667 514
f 517 516 667
f 517 667 668
f 670 669 518
f 670 518 519
f 510 518 652
f 652 518 669
f 654 655 671
f 671 655 672
f 654 673 658
f 654 671 673
f 673 521 522
f 659 673 522
f 658 673 659
f 659 522 523
f 674 659 523
f 660 659 674
f 660 675 662
f 660 674 675
f 662 676 663
f 662 675 676
f 663 677 664
f 663 676 677
f 677 525 512
f 677 512 664
f 515 526 678
f 679 515 678
f 666 515 679
f 527 678 526
f 668 680 517
f 517 680 528
f 519 528 670
f 670 528 680
f 671 672 681
f 681 672 682
f 681 530 531
f 673 681 531
f 671 681 673
f 673 531 521
f 533 674 523
f 674 533 535
f 674 535 675
f 675 535 537
f 683 675 537
f 676 675 683
f 683 539 540
f 677 683 540
f 676 683 677
f 677 540 525
f 684 679 678
f 678 527 684
f 527 685 684
f 527 542 685
f 681 682 686
f 686 682 687
f 686 544 530
f 686 530 681
f 548 688 683
f 548 683 537
f 688 550 539
f 688 539 683
f 552 685 542
f 552 689 685
f 687 690 686
f 544 686 690
f 691 544 690
f 554 544 691
f 558 688 548
f 688 558 550
f 693 692 562
f 693 562 563
f 562 694 565
f 692 694 562
f 565 695 566
f 694 695 565
f 552 566 689
f 689 566 695
f 691 696 554
f 554 696 567
f 696 698 697
f 568 696 697
f 567 696 568
f 697 570 568
f 563 573 699
f 700 563 699
f 693 563 700
f 574 699 573
f 698 701 697
f 697 701 570
f 701 575 570
f 701 702 575
f 702 704 703
f 576 702 703
f 575 702 576
f 705 577 576
f 705 576 703
f 577 705 706
f 707 577 706
f 578 577 707
f 578 708 579
f 707 708 578
f 579 709 580
f 708 709 579
f 699 581 700
f 581 709 700
f 581 580 709
f 581 699 574
f 704 710 703
f 703 710 705
f 705 710 711
f 705 711 706
f 713 712 584
f 584 712 583
f 715 713 714
f 713 585 714
f 713 584 585
f 586 716 585
f 585 716 714
f 587 716 586
f 719 718 717
f 717 720 719
f 723 722 721
f 712 723 721
f 588 712 721
f 583 712 588
f 724 715 714
f 724 714 716
f 724 716 725
f 716 587 725
f 587 726 725
f 587 589 726
f 729 728 727
f 729 727 718
f 727 717 718
f 727 730 717
f 720 717 731
f 717 732 731
f 717 730 732
f 591 592 732
f 592 731 732
f 592 733 731
f 592 593 733
f 733 593 734
f 721 722 596
f 722 595 596
f 722 735 595
f 721 596 588
f 597 726 589
f 597 736 726
f 727 728 737
f 737 728 738
f 727 739 730
f 727 737 739
f 739 599 600
f 732 739 600
f 730 739 732
f 732 600 591
f 740 734 593
f 740 593 601
f 741 601 602
f 741 740 601
f 742 602 603
f 742 741 602
f 743 603 604
f 743 742 603
f 604 605 743
f 743 605 744
f 735 606 595
f 745 606 735
f 607 736 597
f 607 746 736
f 737 738 747
f 747 738 748
f 747 609 610
f 739 747 610
f 737 747 739
f 739 610 599
f 605 612 749
f 750 605 749
f 744 605 750
f 613 749 612
f 752 751 615
f 615 751 614
f 753 615 616
f 753 752 615
f 616 606 745
f 616 745 753
f 619 754 618
f 754 755 618
f 755 607 618
f 755 746 607
f 747 748 756
f 756 748 757
f 756 621 609
f 756 609 747
f 758 750 749
f 758 749 613
f 622 758 613
f 759 758 622
f 622 614 751
f 622 751 759
f 761 760 754
f 619 761 754
f 623 761 619
f 754 760 755
f 764 763 762
f 764 762 757
f 757 762 756
f 762 625 756
f 625 626 756
f 756 626 621
f 627 761 623
f 627 765 761
f 768 767 766
f 766 769 768
f 772 771 770
f 772 770 763
f 770 762 763
f 770 773 762
f 773 629 625
f 773 625 762
f 775 774 630
f 775 630 631
f 627 630 765
f 765 630 774
f 778 777 776
f 778 776 767
f 776 766 767
f 776 779 766
f 769 766 780
f 766 781 780
f 766 779 781
f 783 782 781
f 781 782 780
f 782 783 771
f 783 770 771
f 783 784 770
f 784 633 634
f 773 784 634
f 770 784 773
f 773 634 629
f 638 785 639
f 639 785 786
f 787 639 786
f 640 639 787
f 640 788 641
f 787 788 640
f 631 641 775
f 775 641 788
f 776 777 789
f 789 777 790
f 776 791 779
f 776 789 791
f 791 643 644
f 781 791 644
f 779 791 781
f 781 644 645
f 781 645 783
f 783 645 647
f 792 783 647
f 784 783 792
f 792 649 633
f 792 633 784
f 652 793 651
f 651 793 794
f 795 651 794
f 653 651 795
f 638 653 785
f 653 796 785
f 653 795 796
f 785 796 786
f 799 798 797
f 799 797 790
f 790 797 789
f 797 655 789
f 655 656 789
f 789 656 657
f 789 657 791
f 791 657 643
f 661 792 647
f 792 661 649
f 666 800 665
f 665 800 801
f 802 665 801
f 667 665 802
f 804 803 668
f 667 804 668
f 802 804 667
f 669 670 803
f 804 669 803
f 805 669 804
f 652 669 793
f 669 806 793
f 669 805 806
f 793 806 794
f 797 798 807
f 807 798 808
f 807 672 655
f 807 655 797
f 810 809 800
f 666 810 800
f 679 810 666
f 800 809 801
f 803 680 668
f 680 803 670
f 807 808 811
f 811 808 812
f 811 682 672
f 811 672 807
f 679 684 813
f 814 679 813
f 810 679 814
f 685 813 684
f 811 812 815
f 815 812 816
f 815 687 682
f 815 682 811
f 819 818 817
f 821 820 817
f 821 817 818
f 820 821 814
f 813 820 814
f 822 820 813
f 689 822 685
f 685 822 813
f 816 823 815
f 823 825 824
f 823 824 690
f 815 823 690
f 687 815 690
f 824 691 690
f 819 817 692
f 693 819 692
f 826 819 693
f 692 817 694
f 694 817 820
f 694 820 695
f 695 820 822
f 695 822 689
f 825 827 824
f 824 827 691
f 827 696 691
f 827 828 696
f 698 696 828
f 698 828 829
f 832 831 830
f 834 833 830
f 834 830 831
f 834 826 833
f 826 700 833
f 826 693 700
f 829 835 698
f 698 835 701
f 701 836 702
f 835 836 701
f 704 702 836
f 704 836 837
f 839 838 707
f 839 707 706
f 830 708 832
f 708 838 832
f 708 707 838
f 708 830 709
f 709 830 833
f 709 833 700
f 837 840 704
f 704 840 710
f 710 841 711
f 840 841 710
f 706 711 839
f 839 711 841
f 843 842 713
f 713 842 712
f 713 715 843
f 843 715 844
f 847 846 845
f 718 719 845
f 719 847 845
f 719 848 847
f 719 720 848
f 848 720 849
f 852 851 850
f 722 723 850
f 723 852 850
f 723 853 852
f 723 712 842
f 723 842 853
f 854 844 715
f 854 715 724
f 856 854 855
f 854 725 855
f 854 724 725
f 726 855 725
f 859 858 857
f 859 857 846
f 846 857 845
f 857 728 845
f 728 729 845
f 845 729 718
f 860 849 720
f 860 720 731
f 861 731 733
f 861 860 731
f 733 734 861
f 861 734 862
f 850 851 863
f 863 851 864
f 863 735 722
f 863 722 850
f 865 856 855
f 855 726 865
f 726 866 865
f 726 736 866
f 857 858 867
f 867 858 868
f 867 738 728
f 867 728 857
f 869 862 734
f 869 734 740
f 870 740 741
f 870 869 740
f 871 741 742
f 871 870 741
f 872 742 743
f 872 871 742
f 743 744 872
f 872 744 873
f 876 875 874
f 876 874 864
f 874 863 864
f 874 877 863
f 877 745 735
f 877 735 863
f 746 866 736
f 746 878 866
f 881 880 879
f 881 879 868
f 879 867 868
f 879 882 867
f 882 748 738
f 882 738 867
f 750 884 883
f 873 750 883
f 744 750 873
f 886 885 884
f 884 885 883
f 885 886 875
f 875 886 874
f 886 751 874
f 751 752 874
f 874 752 753
f 874 753 877
f 877 753 745
f 755 878 746
f 755 887 878
f 890 889 888
f 890 888 880
f 888 879 880
f 888 891 879
f 879 892 882
f 879 891 892
f 892 757 748
f 892 748 882
f 758 884 750
f 884 758 759
f 884 759 886
f 886 759 751
f 894 893 760
f 894 760 761
f 755 760 887
f 887 760 893
f 897 896 895
f 897 895 889
f 895 888 889
f 895 898 888
f 888 899 891
f 888 898 899
f 899 763 764
f 892 899 764
f 891 899 892
f 892 764 757
f 765 894 761
f 765 900 894
f 902 901 768
f 768 901 767
f 903 895 769
f 895 902 769
f 902 768 769
f 895 896 902
f 895 904 898
f 895 903 904
f 904 771 772
f 899 904 772
f 898 904 899
f 899 772 763
f 775 905 774
f 905 906 774
f 906 765 774
f 906 900 765
f 908 907 778
f 778 907 777
f 778 767 901
f 778 901 908
f 780 903 769
f 903 780 782
f 903 782 904
f 904 782 771
f 786 909 787
f 787 909 910
f 911 787 910
f 788 787 911
f 775 788 905
f 788 912 905
f 788 911 912
f 905 912 906
f 907 790 777
f 913 790 907
f 915 914 795
f 915 795 794
f 795 916 796
f 914 916 795
f 786 796 909
f 796 917 909
f 796 916 917
f 909 917 910
f 919 918 799
f 799 918 798
f 799 790 913
f 799 913 919
f 922 921 920
f 924 923 920
f 924 920 921
f 802 801 923
f 924 802 923
f 925 802 924
f 802 926 804
f 925 926 802
f 804 927 805
f 926 927 804
f 805 928 806
f 927 928 805
f 794 806 915
f 915 806 928
f 918 808 798
f 929 808 918
f 930 922 920
f 810 931 809
f 931 920 809
f 920 923 809
f 931 930 920
f 809 923 801
f 934 933 932
f 929 934 932
f 812 929 932
f 808 929 812
f 937 936 935
f 936 931 935
f 931 814 935
f 931 810 814
f 932 933 938
f 938 933 939
f 938 816 812
f 938 812 932
f 941 940 818
f 941 818 819
f 935 821 937
f 821 940 937
f 821 818 940
f 821 935 814
f 938 939 942
f 942 939 943
f 944 823 816
f 938 944 816
f 942 944 938
f 944 825 823
f 826 941 819
f 826 945 941
f 943 946 942
f 942 946 944
f 944 946 947
f 944 947 825
f 947 827 825
f 947 948 827
f 827 949 828
f 948 949 827
f 829 828 949
f 829 949 950
f 953 952 951
f 955 954 951
f 955 951 952
f 831 832 954
f 955 831 954
f 956 831 955
f 831 957 834
f 956 957 831
f 826 834 945
f 945 834 957
f 950 958 829
f 829 958 835
f 835 959 836
f 958 959 835
f 961 960 837
f 836 961 837
f 959 961 836
f 960 961 953
f 951 960 953
f 962 960 951
f 839 962 838
f 962 954 838
f 962 951 954
f 838 954 832
f 960 840 837
f 840 960 841
f 841 960 962
f 841 962 839
f 965 964 963
f 963 966 965
f 969 968 967
f 842 843 967
f 843 969 967
f 843 970 969
f 843 844 970
f 970 844 971
f 963 964 847
f 964 846 847
f 964 972 846
f 973 966 963
f 847 973 963
f 848 973 847
f 848 849 973
f 973 849 974
f 977 976 975
f 851 852 975
f 852 977 975
f 852 978 977
f 853 967 968
f 978 853 968
f 852 853 978
f 967 853 842
f 979 971 844
f 979 844 854
f 854 856 979
f 979 856 980
f 982 981 859
f 859 981 858
f 859 846 972
f 859 972 982
f 983 974 849
f 983 849 860
f 985 983 984
f 983 861 984
f 983 860 861
f 862 984 861
f 975 976 986
f 986 976 987
f 986 864 851
f 986 851 975
f 856 865 988
f 989 856 988
f 980 856 989
f 866 988 865
f 981 868 858
f 990 868 981
f 991 985 984
f 991 984 862
f 869 991 862
f 992 991 869
f 993 869 870
f 993 992 869
f 994 870 871
f 994 993 870
f 995 871 872
f 995 994 871
f 872 873 995
f 995 873 996
f 999 998 997
f 999 997 987
f 987 997 986
f 997 875 986
f 875 876 986
f 986 876 864
f 1000 989 988
f 988 866 1000
f 866 1001 1000
f 866 878 1001
f 1002 880 881
f 1003 1002 881
f 868 1003 881
f 990 1003 868
f 1004 996 873
f 1004 873 883
f 885 997 998
f 1004 885 998
f 883 885 1004
f 997 885 875
f 887 1001 878
f 887 1005 1001
f 1006 889 890
f 1007 1006 890
f 1007 890 880
f 1008 1007 880
f 1002 1008 880
f 1008 1002 1003
f 1010 1009 893
f 1010 893 894
f 887 893 1005
f 1005 893 1009
f 1011 896 897
f 1012 1011 897
f 1012 897 889
f 1013 1012 889
f 1006 1013 889
f 1013 1006 1007
f 900 1010 894
f 900 1014 1010
f 1016 1015 902
f 902 1015 901
f 902 896 1011
f 1017 902 1011
f 1016 902 1017
f 1017 1011 1012
f 906 1014 900
f 906 1018 1014
f 1019 907 908
f 1020 1019 908
f 901 1020 908
f 1015 1020 901
f 910 1021 911
f 1022 912 911
f 1022 911 1021
f 1022 1023 912
f 1023 906 912
f 1023 1018 906
f 1025 1024 1019
f 1024 907 1019
f 1024 913 907
f 1025 1019 1020
f 1028 1027 1026
f 1029 1026 1027
f 1032 1031 1030
f 1034 1033 1030
f 1034 1030 1031
f 1036 1035 1033
f 1036 1033 1034
f 1037 1035 1036
f 1039 1038 914
f 1039 914 915
f 914 1040 916
f 1038 1040 914
f 916 1041 917
f 1040 1041 916
f 910 917 1021
f 917 1042 1021
f 917 1041 1042
f 1021 1042 1022
f 1022 1042 1043
f 1022 1043 1023
f 1045 1044 919
f 919 1044 918
f 919 913 1024
f 919 1024 1045
f 1028 1026 1046
f 1028 1046 1047
f 1048 921 922
f 1026 1048 922
f 1046 1026 922
f 1048 1026 1029
f 1030 924 1032
f 924 1048 1032
f 924 921 1048
f 924 1030 925
f 925 1030 1033
f 925 1033 926
f 926 1033 1035
f 1037 1049 1035
f 1049 926 1035
f 1049 927 926
f 927 1050 928
f 1049 1050 927
f 915 928 1039
f 1039 928 1050
f 1044 929 918
f 1051 929 1044
f 1047 1046 1052
f 1047 1052 1053
f 930 1054 922
f 1054 1046 922
f 1054 1052 1046
f 931 1054 930
f 1056 1055 934
f 934 1055 933
f 934 929 1051
f 934 1051 1056
f 1057 1053 1052
f 937 1058 936
f 1058 1052 936
f 1052 1054 936
f 1058 1057 1052
f 936 1054 931
f 1055 939 933
f 1059 939 1055
f 1061 1060 940
f 1061 940 941
f 937 940 1058
f 1058 940 1060
f 1059 943 939
f 1062 943 1059
f 1065 1064 1063
f 1067 1066 1063
f 1067 1063 1064
f 1069 1068 1066
f 1069 1066 1067
f 1069 1061 1068
f 1061 945 1068
f 1061 941 945
f 1062 1070 943
f 943 1070 946
f 1070 1072 1071
f 947 1070 1071
f 946 1070 947
f 1073 948 947
f 1073 947 1071
f 1074 949 948
f 1074 948 1073
f 1074 950 949
f 1076 1075 952
f 1076 952 953
f 1063 955 1065
f 955 1075 1065
f 955 952 1075
f 955 1063 956
f 956 1063 1066
f 956 1066 957
f 957 1066 1068
f 957 1068 945
f 1072 1077 1071
f 1071 1077 1073
f 1073 1077 1078
f 1073 1078 1074
f 1074 1078 1079
f 1074 1079 950
f 1079 958 950
f 1079 1080 958
f 958 1081 959
f 1080 1081 958
f 959 1082 961
f 1081 1082 959
f 953 961 1076
f 1076 961 1082
f 1083 964 965
f 966 1083 965
f 1085 1084 969
f 969 1084 968
f 1086 969 970
f 1086 1085 969
f 970 971 1086
f 1086 971 1087
f 1089 1088 1083
f 1088 964 1083
f 1088 972 964
f 1091 1089 1090
f 1090 1089 973
f 1089 1083 973
f 1083 966 973
f 974 1090 973
f 1093 1092 977
f 977 1092 976
f 1094 977 978
f 1094 1093 977
f 978 968 1084
f 978 1084 1094
f 1095 1087 971
f 1095 971 979
f 979 980 1095
f 1095 980 1096
f 1098 1097 982
f 982 1097 981
f 982 972 1088
f 982 1088 1098
f 1099 1091 1090
f 1099 1090 974
f 983 1099 974
f 1100 1099 983
f 983 985 1100
f 1100 985 1101
f 1104 1103 1102
f 1106 1105 1102
f 1102 1105 1104
f 1092 1105 1106
f 987 1092 1106
f 976 1092 987
f 989 1096 980
f 989 1107 1096
f 1097 990 981
f 1108 990 1097
f 1109 1101 985
f 1109 985 991
f 1110 991 992
f 1110 1109 991
f 1112 1110 1111
f 1110 993 1111
f 1110 992 993
f 1111 993 1113
f 993 1114 1113
f 993 994 1114
f 1115 994 995
f 1115 1114 994
f 1116 1102 996
f 1102 1115 996
f 1115 995 996
f 1102 1103 1115
f 1116 998 999
f 1106 1116 999
f 1102 1116 1106
f 1106 999 987
f 989 1000 1117
f 1118 989 1117
f 1107 989 1118
f 1001 1117 1000
f 1108 1003 990
f 1119 1003 1108
f 1120 1112 1111
f 1120 1111 1113
f 1004 1116 996
f 1116 1004 998
f 1118 1117 1121
f 1118 1121 1122
f 1005 1121 1001
f 1001 1121 1117
f 1124 1123 1008
f 1008 1123 1007
f 1008 1003 1119
f 1008 1119 1124
f 1122 1121 1009
f 1010 1122 1009
f 1125 1122 1010
f 1009 1121 1005
f 1128 1127 1126
f 1012 1013 1126
f 1013 1128 1126
f 1013 1129 1128
f 1013 1007 1123
f 1013 1123 1129
f 1132 1131 1130
f 1131 1125 1130
f 1125 1014 1130
f 1125 1010 1014
f 1134 1133 1016
f 1016 1133 1015
f 1017 1126 1127
f 1134 1017 1127
f 1016 1017 1134
f 1126 1017 1012
f 1137 1136 1135
f 1139 1138 1135
f 1139 1135 1136
f 1140 1138 1139
f 1141 1132 1130
f 1130 1014 1141
f 1014 1142 1141
f 1014 1018 1142
f 1133 1020 1015
f 1143 1020 1133
f 1137 1135 1144
f 1137 1144 1145
f 1146 1135 1138
f 1144 1135 1146
f 1138 1140 1147
f 1148 1138 1147
f 1146 1138 1148
f 1149 1148 1147
f 1152 1151 1150
f 1154 1153 1150
f 1154 1150 1151
f 1154 1142 1153
f 1142 1023 1153
f 1142 1018 1023
f 1156 1155 1025
f 1025 1155 1024
f 1025 1020 1143
f 1025 1143 1156
f 1159 1158 1157
f 1157 1158 1145
f 1157 1145 1144
f 1028 1157 1144
f 1027 1028 1144
f 1027 1144 1029
f 1144 1160 1029
f 1144 1146 1160
f 1032 1160 1031
f 1160 1148 1031
f 1160 1146 1148
f 1149 1161 1148
f 1161 1031 1148
f 1161 1034 1031
f 1161 1163 1162
f 1036 1161 1162
f 1034 1161 1036
f 1162 1037 1036
f 1166 1165 1164
f 1038 1039 1164
f 1165 1038 1164
f 1167 1038 1165
f 1038 1168 1040
f 1167 1168 1038
f 1040 1169 1041
f 1168 1169 1040
f 1150 1042 1152
f 1042 1169 1152
f 1042 1041 1169
f 1042 1150 1043
f 1043 1150 1153
f 1043 1153 1023
f 1172 1171 1170
f 1044 1045 1170
f 1045 1172 1170
f 1045 1173 1172
f 1045 1024 1155
f 1045 1155 1173
f 1159 1157 1174
f 1159 1174 1175
f 1047 1174 1028
f 1028 1174 1157
f 1160 1048 1029
f 1048 1160 1032
f 1163 1176 1162
f 1162 1176 1037
f 1176 1049 1037
f 1176 1177 1049
f 1164 1050 1166
f 1050 1177 1166
f 1050 1049 1177
f 1050 1164 1039
f 1170 1171 1178
f 1178 1171 1179
f 1178 1051 1044
f 1178 1044 1170
f 1175 1174 1180
f 1175 1180 1181
f 1053 1180 1047
f 1047 1180 1174
f 1178 1179 1056
f 1179 1055 1056
f 1179 1182 1055
f 1178 1056 1051
f 1181 1180 1183
f 1181 1183 1184
f 1057 1185 1053
f 1185 1180 1053
f 1185 1183 1180
f 1058 1185 1057
f 1187 1059 1186
f 1059 1182 1186
f 1059 1055 1182
f 1188 1187 1186
f 1184 1183 1189
f 1184 1189 1190
f 1061 1189 1060
f 1189 1185 1060
f 1189 1183 1185
f 1060 1185 1058
f 1192 1191 1187
f 1191 1059 1187
f 1191 1062 1059
f 1192 1187 1188
f 1195 1194 1193
f 1064 1065 1193
f 1194 1064 1193
f 1196 1064 1194
f 1064 1197 1067
f 1196 1197 1064
f 1189 1069 1190
f 1069 1197 1190
f 1069 1067 1197
f 1069 1189 1061
f 1070 1062 1198
f 1062 1199 1198
f 1062 1191 1199
f 1198 1072 1070
f 1195 1193 1075
f 1076 1195 1075
f 1200 1195 1076
f 1075 1193 1065
f 1199 1201 1198
f 1198 1201 1072
f 1201 1077 1072
f 1201 1202 1077
f 1077 1203 1078
f 1202 1203 1077
f 1078 1204 1079
f 1203 1204 1078
f 1079 1205 1080
f 1204 1205 1079
f 1080 1206 1081
f 1205 1206 1080
f 1081 1207 1082
f 1206 1207 1081
f 1076 1082 1200
f 1200 1082 1207
f 1208 1084 1085
f 1086 1209 1085
f 1085 1209 1208
f 1087 1209 1086
f 1211 1210 1089
f 1089 1210 1088
f 1089 1091 1211
f 1211 1091 1212
f 1214 1213 1093
f 1093 1213 1092
f 1215 1093 1094
f 1215 1214 1093
f 1094 1084 1208
f 1216 1094 1208
f 1215 1094 1216
f 1216 1208 1209
f 1216 1209 1217
f 1219 1217 1218
f 1218 1217 1095
f 1217 1209 1095
f 1209 1087 1095
f 1096 1218 1095
f 1221 1220 1098
f 1098 1220 1097
f 1098 1088 1210
f 1098 1210 1221
f 1222 1212 1091
f 1222 1091 1099
f 1223 1099 1100
f 1223 1222 1099
f 1100 1101 1223
f 1223 1101 1224
f 1226 1225 1104
f 1104 1225 1103
f 1227 1104 1105
f 1227 1226 1104
f 1105 1092 1213
f 1105 1213 1227
f 1228 1219 1218
f 1218 1096 1228
f 1096 1229 1228
f 1096 1107 1229
f 1220 1108 1097
f 1230 1108 1220
f 1231 1224 1101
f 1231 1101 1109
f 1232 1109 1110
f 1232 1231 1109
f 1110 1112 1232
f 1232 1112 1233
f 1234 1113 1114
f 1234 1114 1235
f 1114 1236 1235
f 1114 1115 1236
f 1115 1103 1225
f 1115 1225 1236
f 1239 1238 1237
f 1238 1229 1237
f 1229 1118 1237
f 1229 1107 1118
f 1230 1119 1108
f 1240 1119 1230
f 1112 1120 1241
f 1242 1112 1241
f 1233 1112 1242
f 1243 1241 1120
f 1243 1120 1113
f 1244 1243 1113
f 1234 1244 1113
f 1244 1234 1235
f 1245 1239 1237
f 1237 1118 1245
f 1118 1246 1245
f 1118 1122 1246
f 1248 1247 1124
f 1124 1247 1123
f 1124 1119 1240
f 1124 1240 1248
f 1249 1242 1241
f 1249 1241 1243
f 1125 1246 1122
f 1125 1250 1246
f 1252 1251 1128
f 1128 1251 1127
f 1253 1128 1129
f 1253 1252 1128
f 1129 1123 1247
f 1129 1247 1253
f 1256 1255 1254
f 1257 1254 1255
f 1260 1259 1258
f 1131 1132 1258
f 1259 1131 1258
f 1261 1131 1259
f 1125 1131 1250
f 1250 1131 1261
f 1263 1262 1134
f 1134 1262 1133
f 1134 1127 1251
f 1134 1251 1263
f 1266 1265 1264
f 1267 1264 1265
f 1270 1269 1268
f 1268 1269 1256
f 1268 1256 1254
f 1137 1268 1254
f 1136 1137 1254
f 1139 1136 1254
f 1271 1139 1254
f 1257 1271 1254
f 1272 1139 1271
f 1272 1140 1139
f 1275 1274 1273
f 1273 1274 1260
f 1258 1273 1260
f 1276 1273 1258
f 1141 1277 1132
f 1277 1258 1132
f 1277 1276 1258
f 1142 1277 1141
f 1262 1143 1133
f 1278 1143 1262
f 1266 1264 1279
f 1266 1279 1280
f 1264 1267 1281
f 1282 1264 1281
f 1279 1264 1282
f 1282 1281 1270
f 1268 1282 1270
f 1283 1282 1268
f 1145 1283 1137
f 1137 1283 1268
f 1271 1284 1272
f 1272 1284 1140
f 1284 1147 1140
f 1284 1285 1147
f 1287 1286 1149
f 1147 1287 1149
f 1285 1287 1147
f 1288 1286 1287
f 1291 1290 1289
f 1289 1290 1275
f 1273 1289 1275
f 1292 1289 1273
f 1152 1292 1151
f 1292 1276 1151
f 1292 1273 1276
f 1151 1276 1154
f 1154 1276 1277
f 1154 1277 1142
f 1294 1293 1156
f 1156 1293 1155
f 1156 1143 1278
f 1156 1278 1294
f 1297 1296 1295
f 1299 1298 1295
f 1299 1295 1296
f 1301 1300 1298
f 1301 1298 1299
f 1300 1301 1280
f 1279 1300 1280
f 1302 1300 1279
f 1303 1279 1282
f 1302 1279 1303
f 1159 1303 1158
f 1303 1283 1158
f 1303 1282 1283
f 1158 1283 1145
f 1286 1161 1149
f 1305 1304 1163
f 1305 1163 1161
f 1288 1305 1161
f 1286 1288 1161
f 1307 1306 1304
f 1307 1304 1305
f 1165 1166 1306
f 1307 1165 1306
f 1308 1165 1307
f 1165 1309 1167
f 1308 1309 1165
f 1289 1168 1291
f 1168 1309 1291
f 1168 1167 1309
f 1168 1289 1169
f 1169 1289 1292
f 1169 1292 1152
f 1311 1310 1172
f 1172 1310 1171
f 1312 1172 1173
f 1312 1311 1172
f 1173 1155 1293
f 1173 1293 1312
f 1313 1297 1295
f 1315 1314 1313
f 1295 1315 1313
f 1298 1315 1295
f 1316 1298 1300
f 1315 1298 1316
f 1317 1300 1302
f 1316 1300 1317
f 1318 1302 1303
f 1317 1302 1318
f 1175 1318 1159
f 1159 1318 1303
f 1304 1176 1163
f 1176 1304 1177
f 1177 1304 1306
f 1177 1306 1166
f 1320 1179 1319
f 1179 1310 1319
f 1179 1171 1310
f 1321 1320 1319
f 1322 1314 1315
f 1322 1315 1316
f 1322 1316 1323
f 1323 1316 1317
f 1323 1317 1324
f 1326 1325 1324
f 1317 1326 1324
f 1318 1326 1317
f 1181 1326 1175
f 1175 1326 1318
f 1327 1182 1320
f 1320 1182 1179
f 1320 1321 1328
f 1320 1328 1327
f 1329 1325 1326
f 1326 1181 1329
f 1181 1330 1329
f 1181 1184 1330
f 1327 1186 1182
f 1188 1186 1327
f 1328 1188 1327
f 1331 1188 1328
f 1190 1330 1184
f 1190 1332 1330
f 1333 1191 1192
f 1334 1333 1192
f 1188 1334 1192
f 1331 1334 1188
f 1336 1335 1194
f 1336 1194 1195
f 1194 1337 1196
f 1335 1337 1194
f 1196 1338 1197
f 1337 1338 1196
f 1190 1197 1332
f 1332 1197 1338
f 1339 1199 1333
f 1333 1199 1191
f 1333 1334 1340
f 1333 1340 1339
f 1343 1342 1341
f 1345 1344 1341
f 1345 1341 1342
f 1345 1336 1344
f 1336 1200 1344
f 1336 1195 1200
f 1339 1201 1199
f 1340 1346 1339
f 1346 1201 1339
f 1346 1202 1201
f 1202 1347 1203
f 1346 1347 1202
f 1203 1348 1204
f 1347 1348 1203
f 1204 1349 1205
f 1348 1349 1204
f 1341 1206 1343
f 1206 1349 1343
f 1206 1205 1349
f 1206 1341 1207
f 1207 1341 1344
f 1207 1344 1200
f 1350 1210 1211
f 1212 1350 1211
f 1351 1213 1214
f 1351 1214 1352
f 1214 1353 1352
f 1214 1215 1353
f 1355 1353 1354
f 1353 1216 1354
f 1353 1215 1216
f 1217 1356 1216
f 1216 1356 1354
f 1219 1356 1217
f 1358 1357 1221
f 1221 1357 1220
f 1221 1210 1350
f 1359 1221 1350
f 1358 1221 1359
f 1359 1350 1212
f 1222 1359 1212
f 1360 1359 1222
f 1362 1360 1361
f 1360 1223 1361
f 1360 1222 1223
f 1224 1361 1223
f 1363 1225 1226
f 1363 1226 1364
f 1226 1365 1364
f 1226 1227 1365
f 1227 1213 1351
f 1366 1227 1351
f 1365 1227 1366
f 1366 1351 1352
f 1367 1355 1354
f 1367 1354 1356
f 1367 1356 1368
f 1370 1368 1369
f 1369 1368 1228
f 1368 1356 1228
f 1356 1219 1228
f 1229 1369 1228
f 1372 1230 1371
f 1230 1357 1371
f 1230 1220 1357
f 1373 1372 1371
f 1374 1362 1361
f 1376 1374 1375
f 1375 1374 1231
f 1374 1361 1231
f 1361 1224 1231
f 1232 1377 1231
f 1231 1377 1375
f 1233 1377 1232
f 1378 1235 1236
f 1379 1378 1236
f 1379 1236 1225
f 1380 1379 1225
f 1363 1380 1225
f 1380 1363 1364
f 1370 1369 1238
f 1239 1370 1238
f 1381 1370 1239
f 1238 1369 1229
f 1384 1383 1382
f 1385 1384 1372
f 1384 1240 1372
f 1240 1230 1372
f 1384 1382 1240
f 1385 1372 1373
f 1386 1376 1375
f 1388 1387 1386
f 1375 1388 1386
f 1377 1388 1375
f 1242 1388 1233
f 1233 1388 1377
f 1389 1243 1244
f 1235 1378 1244
f 1378 1389 1244
f 1378 1390 1389
f 1378 1379 1391
f 1378 1391 1390
f 1392 1381 1239
f 1392 1239 1245
f 1245 1246 1392
f 1392 1246 1393
f 1396 1395 1394
f 1396 1394 1383
f 1383 1394 1382
f 1394 1247 1382
f 1247 1248 1382
f 1382 1248 1240
f 1397 1387 1388
f 1397 1388 1242
f 1249 1397 1242
f 1398 1397 1249
f 1398 1249 1243
f 1399 1398 1243
f 1389 1399 1243
f 1398 1399 1400
f 1390 1402 1401
f 1399 1390 1401
f 1389 1390 1399
f 1402 1390 1391
f 1405 1404 1403
f 1404 1393 1403
f 1393 1250 1403
f 1393 1246 1250
f 1407 1406 1252
f 1252 1406 1251
f 1253 1394 1395
f 1407 1253 1395
f 1252 1253 1407
f 1394 1253 1247
f 1410 1409 1408
f 1255 1256 1408
f 1409 1255 1408
f 1411 1255 1409
f 1257 1255 1411
f 1257 1411 1412
f 1413 1400 1399
f 1413 1399 1401
f 1416 1415 1414
f 1259 1260 1414
f 1415 1259 1414
f 1417 1259 1415
f 1403 1261 1405
f 1261 1417 1405
f 1261 1259 1417
f 1261 1403 1250
f 1418 1262 1263
f 1419 1418 1263
f 1251 1419 1263
f 1406 1419 1251
f 1422 1421 1420
f 1265 1266 1420
f 1421 1265 1420
f 1423 1265 1421
f 1425 1424 1267
f 1265 1425 1267
f 1423 1425 1265
f 1424 1425 1410
f 1424 1410 1408
f 1270 1424 1408
f 1269 1270 1408
f 1269 1408 1256
f 1427 1271 1426
f 1271 1412 1426
f 1271 1257 1412
f 1428 1427 1426
f 1416 1414 1274
f 1275 1416 1274
f 1429 1416 1275
f 1274 1414 1260
f 1432 1431 1430
f 1433 1432 1418
f 1432 1278 1418
f 1278 1262 1418
f 1432 1430 1278
f 1433 1418 1419
f 1436 1435 1434
f 1434 1435 1422
f 1420 1434 1422
f 1437 1434 1420
f 1280 1437 1266
f 1266 1437 1420
f 1424 1281 1267
f 1281 1424 1270
f 1427 1284 1271
f 1428 1438 1427
f 1438 1284 1427
f 1438 1285 1284
f 1438 1440 1439
f 1287 1438 1439
f 1285 1438 1287
f 1439 1288 1287
f 1443 1442 1441
f 1290 1291 1441
f 1442 1290 1441
f 1444 1290 1442
f 1275 1290 1429
f 1429 1290 1444
f 1430 1431 1294
f 1431 1293 1294
f 1431 1445 1293
f 1430 1294 1278
f 1448 1447 1446
f 1296 1297 1446
f 1447 1296 1446
f 1449 1296 1447
f 1434 1299 1436
f 1299 1449 1436
f 1299 1296 1449
f 1299 1434 1301
f 1301 1434 1437
f 1301 1437 1280
f 1440 1450 1439
f 1439 1450 1288
f 1450 1305 1288
f 1450 1451 1305
f 1305 1452 1307
f 1451 1452 1305
f 1307 1453 1308
f 1452 1453 1307
f 1441 1309 1443
f 1309 1453 1443
f 1309 1308 1453
f 1309 1441 1291
f 1454 1310 1311
f 1312 1455 1311
f 1311 1455 1454
f 1456 1455 1312
f 1293 1456 1312
f 1445 1456 1293
f 1448 1446 1457
f 1448 1457 1458
f 1313 1459 1297
f 1459 1446 1297
f 1459 1457 1446
f 1314 1459 1313
f 1454 1319 1310
f 1319 1454 1321
f 1454 1460 1321
f 1454 1455 1460
f 1455 1456 1461
f 1455 1461 1460
f 1462 1458 1457
f 1462 1457 1459
f 1462 1459 1463
f 1465 1463 1464
f 1464 1463 1322
f 1463 1459 1322
f 1459 1314 1322
f 1323 1466 1322
f 1322 1466 1464
f 1324 1467 1323
f 1323 1467 1466
f 1325 1467 1324
f 1468 1328 1460
f 1460 1328 1321
f 1460 1461 1469
f 1460 1469 1468
f 1470 1465 1464
f 1470 1464 1466
f 1470 1466 1471
f 1473 1472 1471
f 1466 1473 1471
f 1467 1473 1466
f 1329 1474 1325
f 1474 1467 1325
f 1474 1473 1467
f 1330 1474 1329
f 1475 1331 1468
f 1468 1331 1328
f 1468 1469 1476
f 1468 1476 1475
f 1472 1473 1477
f 1472 1477 1478
f 1479 1473 1474
f 1477 1473 1479
f 1332 1479 1330
f 1330 1479 1474
f 1480 1334 1475
f 1475 1334 1331
f 1475 1476 1481
f 1475 1481 1480
f 1336 1482 1335
f 1483 1478 1477
f 1335 1483 1477
f 1337 1335 1477
f 1483 1335 1482
f 1337 1477 1338
f 1338 1477 1479
f 1338 1479 1332
f 1484 1340 1480
f 1480 1340 1334
f 1480 1481 1485
f 1480 1485 1484
f 1488 1487 1486
f 1342 1343 1486
f 1487 1342 1486
f 1489 1342 1487
f 1342 1490 1345
f 1489 1490 1342
f 1336 1345 1482
f 1345 1491 1482
f 1345 1490 1491
f 1482 1491 1483
f 1484 1346 1340
f 1485 1492 1484
f 1492 1346 1484
f 1492 1347 1346
f 1347 1493 1348
f 1492 1493 1347
f 1486 1349 1488
f 1349 1493 1488
f 1349 1348 1493
f 1349 1486 1343
f 1494 1352 1353
f 1355 1494 1353
f 1496 1495 1358
f 1358 1495 1357
f 1497 1358 1359
f 1497 1496 1358
f 1498 1359 1360
f 1498 1497 1359
f 1360 1362 1498
f 1498 1362 1499
f 1501 1500 1365
f 1365 1500 1364
f 1502 1365 1366
f 1502 1501 1365
f 1366 1352 1494
f 1503 1366 1494
f 1502 1366 1503
f 1505 1503 1504
f 1504 1503 1367
f 1503 1494 1367
f 1494 1355 1367
f 1368 1506 1367
f 1367 1506 1504
f 1370 1506 1368
f 1495 1507 1357
f 1357 1507 1371
f 1373 1371 1507
f 1373 1507 1508
f 1509 1499 1362
f 1509 1362 1374
f 1374 1376 1509
f 1509 1376 1510
f 1511 1379 1380
f 1512 1511 1380
f 1364 1512 1380
f 1500 1512 1364
f 1513 1505 1504
f 1513 1504 1506
f 1513 1506 1514
f 1506 1370 1514
f 1370 1515 1514
f 1370 1381 1515
f 1517 1516 1384
f 1384 1516 1383
f 1518 1384 1385
f 1518 1517 1384
f 1385 1373 1508
f 1385 1508 1518
f 1519 1510 1376
f 1519 1376 1386
f 1386 1387 1519
f 1519 1387 1520
f 1522 1521 1511
f 1521 1379 1511
f 1521 1391 1379
f 1522 1511 1512
f 1381 1392 1523
f 1524 1381 1523
f 1515 1381 1524
f 1393 1523 1392
f 1525 1395 1396
f 1526 1525 1396
f 1383 1526 1396
f 1516 1526 1383
f 1387 1397 1527
f 1528 1387 1527
f 1520 1387 1528
f 1527 1397 1529
f 1397 1530 1529
f 1397 1398 1530
f 1398 1400 1530
f 1530 1400 1531
f 1532 1401 1402
f 1533 1532 1402
f 1391 1533 1402
f 1521 1533 1391
f 1536 1535 1534
f 1534 1535 1524
f 1534 1524 1523
f 1405 1534 1523
f 1404 1405 1523
f 1404 1523 1393
f 1537 1406 1407
f 1395 1525 1407
f 1525 1537 1407
f 1525 1538 1537
f 1525 1526 1539
f 1540 1525 1539
f 1538 1525 1540
f 1542 1541 1540
f 1542 1540 1539
f 1544 1543 1541
f 1544 1541 1542
f 1546 1545 1543
f 1546 1543 1544
f 1409 1410 1545
f 1546 1409 1545
f 1547 1409 1546
f 1409 1548 1411
f 1547 1548 1409
f 1548 1528 1411
f 1527 1411 1528
f 1411 1527 1412
f 1549 1412 1527
f 1412 1549 1550
f 1549 1527 1529
f 1551 1531 1400
f 1551 1400 1413
f 1413 1401 1532
f 1552 1413 1532
f 1551 1413 1552
f 1552 1532 1533
f 1416 1553 1415
f 1554 1536 1534
f 1415 1554 1534
f 1417 1415 1534
f 1554 1415 1553
f 1417 1534 1405
f 1555 1419 1537
f 1537 1419 1406
f 1556 1537 1538
f 1555 1537 1556
f 1557 1538 1540
f 1556 1538 1557
f 1422 1557 1421
f 1557 1541 1421
f 1557 1540 1541
f 1421 1541 1423
f 1423 1541 1543
f 1423 1543 1425
f 1425 1543 1545
f 1425 1545 1410
f 1550 1558 1412
f 1412 1558 1426
f 1428 1426 1558
f 1428 1558 1559
f 1562 1561 1560
f 1561 1563 1553
f 1429 1561 1553
f 1416 1429 1553
f 1560 1561 1429
f 1553 1563 1554
f 1564 1431 1432
f 1564 1432 1565
f 1432 1566 1565
f 1432 1433 1566
f 1433 1419 1555
f 1567 1433 1555
f 1566 1433 1567
f 1569 1568 1567
f 1555 1569 1567
f 1556 1569 1555
f 1436 1569 1435
f 1569 1557 1435
f 1569 1556 1557
f 1435 1557 1422
f 1559 1570 1428
f 1428 1570 1438
f 1440 1438 1570
f 1440 1570 1571
f 1574 1573 1572
f 1442 1443 1572
f 1573 1442 1572
f 1575 1442 1573
f 1560 1444 1562
f 1444 1575 1562
f 1444 1442 1575
f 1444 1560 1429
f 1576 1445 1564
f 1564 1445 1431
f 1564 1565 1577
f 1564 1577 1576
f 1448 1578 1447
f 1579 1568 1569
f 1447 1579 1569
f 1449 1447 1569
f 1579 1447 1578
f 1449 1569 1436
f 1571 1580 1440
f 1440 1580 1450
f 1450 1581 1451
f 1580 1581 1450
f 1451 1582 1452
f 1581 1582 1451
f 1572 1453 1574
f 1453 1582 1574
f 1453 1452 1582
f 1453 1572 1443
f 1584 1583 1576
f 1583 1445 1576
f 1583 1456 1445
f 1584 1576 1577
f 1586 1585 1578
f 1448 1586 1578
f 1458 1586 1448
f 1578 1585 1579
f 1588 1461 1587
f 1461 1583 1587
f 1461 1456 1583
f 1589 1588 1587
f 1590 1586 1458
f 1590 1458 1462
f 1592 1590 1591
f 1590 1463 1591
f 1590 1462 1463
f 1465 1591 1463
f 1593 1469 1588
f 1588 1469 1461
f 1588 1589 1594
f 1588 1594 1593
f 1595 1592 1591
f 1597 1595 1596
f 1596 1595 1470
f 1595 1591 1470
f 1591 1465 1470
f 1471 1598 1470
f 1470 1598 1596
f 1472 1598 1471
f 1599 1476 1593
f 1593 1476 1469
f 1593 1594 1600
f 1593 1600 1599
f 1601 1597 1596
f 1603 1602 1601
f 1596 1603 1601
f 1598 1603 1596
f 1478 1603 1472
f 1472 1603 1598
f 1605 1604 1599
f 1604 1476 1599
f 1604 1481 1476
f 1605 1599 1600
f 1608 1607 1606
f 1606 1607 1602
f 1603 1606 1602
f 1609 1606 1603
f 1483 1609 1478
f 1478 1609 1603
f 1604 1485 1481
f 1610 1485 1604
f 1612 1611 1487
f 1612 1487 1488
f 1487 1613 1489
f 1611 1613 1487
f 1606 1490 1608
f 1490 1613 1608
f 1490 1489 1613
f 1490 1606 1491
f 1491 1606 1609
f 1491 1609 1483
f 1610 1614 1485
f 1485 1614 1492
f 1492 1615 1493
f 1614 1615 1492
f 1488 1493 1612
f 1612 1493 1615
f 1616 1495 1496
f 1616 1496 1617
f 1496 1618 1617
f 1496 1497 1618
f 1620 1618 1619
f 1618 1498 1619
f 1618 1497 1498
f 1499 1619 1498
f 1621 1500 1501
f 1502 1622 1501
f 1501 1622 1621
f 1503 1623 1502
f 1502 1623 1622
f 1505 1623 1503
f 1507 1495 1616
f 1626 1625 1624
f 1508 1624 1625
f 1508 1617 1624
f 1508 1507 1616
f 1617 1508 1616
f 1627 1620 1619
f 1627 1619 1499
f 1509 1627 1499
f 1628 1627 1509
f 1509 1510 1628
f 1628 1510 1629
f 1631 1630 1621
f 1630 1500 1621
f 1630 1512 1500
f 1631 1621 1622
f 1631 1622 1632
f 1634 1633 1632
f 1622 1634 1632
f 1623 1634 1622
f 1513 1635 1505
f 1635 1623 1505
f 1635 1634 1623
f 1514 1636 1513
f 1513 1636 1635
f 1515 1636 1514
f 1637 1516 1517
f 1626 1638 1625
f 1638 1517 1625
f 1517 1518 1625
f 1517 1638 1637
f 1625 1518 1508
f 1641 1640 1639
f 1642 1639 1519
f 1639 1629 1519
f 1629 1510 1519
f 1629 1639 1640
f 1520 1642 1519
f 1644 1643 1522
f 1522 1643 1521
f 1522 1512 1630
f 1522 1630 1644
f 1633 1634 1645
f 1633 1645 1646
f 1647 1634 1635
f 1645 1634 1647
f 1648 1635 1636
f 1647 1635 1648
f 1524 1648 1515
f 1515 1648 1636
f 1649 1526 1637
f 1637 1526 1516
f 1637 1638 1650
f 1651 1637 1650
f 1649 1637 1651
f 1652 1651 1650
f 1655 1654 1653
f 1641 1639 1656
f 1654 1657 1653
f 1659 1658 1656
f 1639 1659 1656
f 1642 1659 1639
f 1528 1659 1520
f 1520 1659 1642
f 1660 1529 1530
f 1531 1660 1530
f 1662 1533 1661
f 1533 1643 1661
f 1533 1521 1643
f 1663 1662 1661
f 1664 1646 1645
f 1664 1645 1647
f 1664 1647 1665
f 1536 1666 1535
f 1666 1647 1535
f 1647 1648 1535
f 1666 1665 1647
f 1535 1648 1524
f 1649 1539 1526
f 1539 1649 1542
f 1542 1649 1651
f 1652 1667 1651
f 1667 1542 1651
f 1667 1544 1542
f 1653 1546 1655
f 1546 1667 1655
f 1546 1544 1667
f 1657 1668 1653
f 1668 1546 1653
f 1668 1547 1546
f 1659 1548 1658
f 1548 1668 1658
f 1548 1547 1668
f 1548 1659 1528
f 1669 1550 1549
f 1529 1660 1549
f 1660 1669 1549
f 1660 1670 1669
f 1551 1671 1531
f 1671 1660 1531
f 1671 1670 1660
f 1552 1672 1551
f 1551 1672 1671
f 1533 1662 1552
f 1662 1672 1552
f 1662 1673 1672
f 1662 1663 1674
f 1675 1662 1674
f 1673 1662 1675
f 1677 1676 1675
f 1677 1675 1674
f 1679 1678 1676
f 1679 1676 1677
f 1681 1680 1678
f 1681 1678 1679
f 1681 1666 1680
f 1666 1554 1680
f 1666 1536 1554
f 1669 1558 1550
f 1669 1670 1682
f 1559 1669 1682
f 1683 1559 1682
f 1669 1559 1558
f 1685 1684 1682
f 1670 1685 1682
f 1671 1685 1670
f 1672 1687 1686
f 1685 1672 1686
f 1671 1672 1685
f 1689 1688 1687
f 1672 1689 1687
f 1673 1689 1672
f 1690 1673 1675
f 1689 1673 1690
f 1691 1675 1676
f 1690 1675 1691
f 1562 1691 1561
f 1691 1678 1561
f 1691 1676 1678
f 1561 1678 1563
f 1563 1678 1680
f 1563 1680 1554
f 1693 1692 1566
f 1566 1692 1565
f 1694 1566 1567
f 1694 1693 1566
f 1567 1568 1694
f 1694 1568 1695
f 1683 1696 1559
f 1559 1696 1570
f 1696 1684 1570
f 1685 1570 1684
f 1570 1685 1571
f 1697 1571 1685
f 1571 1697 1698
f 1697 1685 1686
f 1688 1689 1699
f 1688 1699 1700
f 1574 1699 1573
f 1699 1690 1573
f 1699 1689 1690
f 1573 1690 1575
f 1575 1690 1691
f 1575 1691 1562
f 1692 1577 1565
f 1701 1577 1692
f 1579 1695 1568
f 1579 1702 1695
f 1698 1703 1571
f 1571 1703 1580
f 1580 1704 1581
f 1703 1704 1580
f 1699 1582 1700
f 1582 1704 1700
f 1582 1581 1704
f 1582 1699 1574
f 1705 1583 1584
f 1706 1705 1584
f 1577 1706 1584
f 1701 1706 1577
f 1586 1707 1585
f 1707 1708 1585
f 1708 1579 1585
f 1708 1702 1579
f 1705 1587 1583
f 1589 1587 1705
f 1706 1589 1705
f 1709 1589 1706
f 1590 1707 1586
f 1590 1592 1707
f 1592 1708 1707
f 1592 1710 1708
f 1709 1594 1589
f 1711 1594 1709
f 1712 1710 1592
f 1712 1592 1595
f 1595 1597 1712
f 1712 1597 1713
f 1711 1600 1594
f 1714 1600 1711
f 1597 1601 1715
f 1716 1597 1715
f 1713 1597 1716
f 1602 1715 1601
f 1718 1717 1605
f 1605 1717 1604
f 1605 1600 1714
f 1605 1714 1718
f 1721 1720 1719
f 1719 1720 1716
f 1719 1716 1715
f 1608 1719 1715
f 1607 1608 1715
f 1607 1715 1602
f 1723 1610 1722
f 1610 1717 1722
f 1610 1604 1717
f 1725 1724 1723
f 1725 1723 1722
f 1611 1612 1724
f 1725 1611 1724
f 1726 1611 1725
f 1719 1613 1721
f 1613 1726 1721
f 1613 1611 1726
f 1613 1719 1608
f 1723 1614 1610
f 1614 1723 1615
f 1615 1723 1724
f 1615 1724 1612
f 1728 1727 1618
f 1618 1727 1617
f 1618 1620 1728
f 1728 1620 1729
f 1730 1626 1624
f 1731 1730 1624
f 1617 1731 1624
f 1727 1731 1617
f 1732 1729 1620
f 1732 1620 1627
f 1734 1732 1733
f 1732 1628 1733
f 1732 1627 1628
f 1629 1733 1628
f 1735 1630 1631
f 1632 1736 1631
f 1631 1736 1735
f 1633 1736 1632
f 1738 1737 1730
f 1737 1626 1730
f 1737 1638 1626
f 1738 1730 1731
f 1734 1733 1640
f 1641 1734 1640
f 1739 1734 1641
f 1640 1733 1629
f 1740 1643 1644
f 1741 1740 1644
f 1741 1644 1630
f 1742 1741 1630
f 1735 1742 1630
f 1744 1743 1742
f 1735 1744 1742
f 1736 1744 1735
f 1646 1744 1633
f 1633 1744 1736
f 1737 1745 1638
f 1638 1745 1650
f 1747 1746 1652
f 1650 1747 1652
f 1745 1747 1650
f 1654 1655 1746
f 1747 1654 1746
f 1748 1654 1747
f 1641 1656 1739
f 1749 1739 1656
f 1739 1749 1748
f 1657 1748 1749
f 1748 1657 1654
f 1658 1749 1656
f 1740 1661 1643
f 1663 1661 1740
f 1741 1663 1740
f 1750 1663 1741
f 1751 1743 1744
f 1753 1751 1752
f 1752 1751 1664
f 1751 1744 1664
f 1744 1646 1664
f 1665 1754 1664
f 1664 1754 1752
f 1666 1754 1665
f 1746 1667 1652
f 1667 1746 1655
f 1749 1668 1657
f 1668 1749 1658
f 1750 1755 1663
f 1663 1755 1674
f 1674 1756 1677
f 1755 1756 1674
f 1752 1679 1753
f 1679 1756 1753
f 1679 1677 1756
f 1679 1752 1681
f 1681 1752 1754
f 1681 1754 1666
f 1757 1683 1682
f 1684 1757 1682
f 1758 1686 1687
f 1688 1758 1687
f 1759 1692 1693
f 1759 1693 1760
f 1693 1761 1760
f 1693 1694 1761
f 1694 1695 1761
f 1761 1695 1762
f 1757 1696 1683
f 1696 1757 1684
f 1763 1698 1697
f 1686 1758 1697
f 1758 1763 1697
f 1758 1764 1763
f 1700 1764 1688
f 1688 1764 1758
f 1766 1765 1759
f 1765 1692 1759
f 1765 1701 1692
f 1766 1759 1760
f 1702 1762 1695
f 1702 1767 1762
f 1763 1703 1698
f 1703 1763 1704
f 1704 1763 1764
f 1704 1764 1700
f 1765 1706 1701
f 1768 1706 1765
f 1708 1767 1702
f 1708 1769 1767
f 1768 1709 1706
f 1770 1709 1768
f 1710 1769 1708
f 1710 1771 1769
f 1770 1711 1709
f 1772 1711 1770
f 1710 1712 1773
f 1774 1710 1773
f 1771 1710 1774
f 1713 1773 1712
f 1772 1714 1711
f 1775 1714 1772
f 1778 1777 1776
f 1776 1780 1779
f 1776 1773 1780
f 1776 1777 1774
f 1773 1776 1774
f 1773 1713 1780
f 1713 1781 1780
f 1713 1716 1781
f 1782 1717 1718
f 1714 1775 1783
f 1782 1714 1783
f 1784 1782 1783
f 1718 1714 1782
f 1784 1783 1778
f 1776 1784 1778
f 1785 1784 1776
f 1786 1720 1721
f 1776 1786 1721
f 1785 1776 1721
f 1786 1776 1779
f 1716 1720 1781
f 1781 1720 1786
f 1782 1722 1717
f 1722 1782 1725
f 1725 1782 1784
f 1725 1784 1726
f 1726 1784 1785
f 1726 1785 1721
f 1787 1727 1728
f 1729 1787 1728
f 1789 1788 1787
f 1788 1727 1787
f 1788 1731 1727
f 1791 1789 1790
f 1790 1789 1732
f 1789 1787 1732
f 1787 1729 1732
f 1734 1790 1732
f 1793 1792 1738
f 1738 1792 1737
f 1738 1731 1788
f 1738 1788 1793
f 1791 1790 1794
f 1791 1794 1795
f 1739 1794 1734
f 1734 1794 1790
f 1796 1741 1742
f 1743 1796 1742
f 1745 1737 1797
f 1737 1798 1797
f 1737 1792 1798
f 1799 1747 1745
f 1799 1745 1797
f 1800 1795 1794
f 1747 1800 1794
f 1748 1747 1794
f 1800 1747 1799
f 1748 1794 1739
f 1801 1750 1796
f 1796 1750 1741
f 1751 1802 1743
f 1802 1796 1743
f 1802 1801 1796
f 1753 1802 1751
f 1798 1803 1797
f 1797 1803 1799
f 1799 1803 1804
f 1799 1804 1800
f 1801 1755 1750
f 1755 1801 1756
f 1756 1801 1802
f 1756 1802 1753
f 1805 1760 1761
f 1762 1805 1761
f 1806 1765 1766
f 1807 1806 1766
f 1807 1766 1760
f 1808 1807 1760
f 1805 1808 1760
f 1805 1762 1808
f 1762 1809 1808
f 1762 1767 1809
f 1810 1768 1806
f 1806 1768 1765
f 1806 1807 1811
f 1806 1811 1810
f 1769 1809 1767
f 1769 1812 1809
f 1813 1770 1810
f 1810 1770 1768
f 1810 1811 1814
f 1815 1810 1814
f 1813 1810 1815
f 1814 1812 1815
f 1812 1771 1815
f 1812 1769 1771
f 1816 1772 1813
f 1813 1772 1770
f 1817 1813 1815
f 1816 1813 1817
f 1774 1817 1771
f 1771 1817 1815
f 1818 1775 1816
f 1816 1775 1772
f 1778 1818 1777
f 1818 1817 1777
f 1818 1816 1817
f 1777 1817 1774
f 1819 1779 1780
f 1781 1819 1780
f 1818 1783 1775
f 1783 1818 1778
f 1819 1786 1779
f 1786 1819 1781
f 1820 1788 1789
f 1791 1820 1789
f 1822 1821 1793
f 1793 1821 1792
f 1793 1788 1820
f 1823 1793 1820
f 1822 1793 1823
f 1820 1791 1823
f 1791 1824 1823
f 1791 1795 1824
f 1821 1798 1792
f 1825 1798 1821
f 1800 1824 1795
f 1800 1826 1824
f 1825 1827 1798
f 1798 1827 1803
f 1803 1828 1804
f 1827 1828 1803
f 1800 1804 1826
f 1826 1804 1828
f 1829 1807 1808
f 1809 1829 1808
f 1830 1811 1829
f 1829 1811 1807
f 1812 1830 1809
f 1809 1830 1829
f 1830 1814 1811
f 1814 1830 1812
f 1831 1821 1822
f 1823 1832 1822
f 1822 1832 1831
f 1824 1832 1823
f 1833 1825 1831
f 1831 1825 1821
f 1834 1831 1832
f 1833 1831 1834
f 1826 1834 1824
f 1824 1834 1832
f 1833 1827 1825
f 1827 1833 1828
f 1828 1833 1834
f 1828 1834 1826
