v 34.8 6.0 25.0
v 35.0 6.0 24.6
v 35.0 5.8 25.0
v 35.0 5.8 26.0
v 34.8 6.0 26.0
v 35.0 6.0 26.2
v 34.7 7.0 24.0
v 35.0 7.0 23.6
v 35.0 6.6 24.0
v 34.5 7.0 25.0
v 34.5 7.0 26.0
v 35.0 6.7 27.0
v 34.8 7.0 27.0
v 35.0 7.0 27.2
v 34.8 8.0 23.0
v 35.0 8.0 22.7
v 35.0 7.6 23.0
v 34.5 8.0 24.0
v 34.5 8.0 25.0
v 34.5 8.0 26.0
v 34.7 8.0 27.0
v 35.0 8.0 27.3
v 34.7 9.0 23.0
v 35.0 9.0 22.7
v 34.5 9.0 24.0
v 34.5 9.0 25.0
v 34.6 9.0 26.0
v 34.8 9.0 27.0
v 35.0 9.0 27.2
v 35.0 9.5 23.0
v 34.5 10.0 24.0
v 35.0 10.0 23.4
v 34.6 10.0 25.0
v 35.0 10.0 25.5
v 35.0 9.5 26.0
v 35.0 9.2 27.0
v 34.3 11.0 24.0
v 35.0 11.0 23.6
v 34.8 11.0 25.0
v 35.0 11.0 25.2
v 35.0 11.3 24.0
v 35.0 11.2 25.0
v 35.5 6.0 24.0
v 36.0 6.0 23.5
v 36.0 5.6 24.0
v 36.0 5.4 25.0
v 36.0 5.7 26.0
v 36.0 6.0 26.4
v 35.6 7.0 23.0
v 36.0 7.0 22.7
v 36.0 6.6 23.0
v 36.0 6.5 27.0
v 36.0 7.0 27.4
v 36.0 8.0 22.3
v 36.0 8.0 27.5
v 35.8 9.0 22.0
v 36.0 9.0 21.9
v 36.0 8.7 22.0
v 36.0 9.0 27.4
v 36.0 9.3 22.0
v 35.4 10.0 23.0
v 36.0 10.0 22.4
v 36.0 9.8 26.0
v 36.0 10.0 25.8
v 36.0 9.4 27.0
v 35.6 11.0 23.0
v 36.0 11.0 22.7
v 36.0 11.0 25.4
v 36.0 11.3 23.0
v 36.0 11.6 24.0
v 36.0 11.4 25.0
v 36.7 5.0 24.0
v 37.0 5.0 23.7
v 37.0 4.7 24.0
v 37.0 4.7 25.0
v 36.6 5.0 25.0
v 37.0 5.0 25.4
v 36.6 6.0 23.0
v 37.0 6.0 22.7
v 37.0 5.7 23.0
v 37.0 6.0 26.0
v 36.9 6.0 26.0
v 37.0 7.0 22.3
v 37.0 6.0 26.0
v 37.0 6.4 27.0
v 37.0 6.9 28.0
v 36.9 7.0 28.0
v 37.0 7.0 28.1
v 36.5 8.0 22.0
v 37.0 8.0 21.7
v 37.0 7.5 22.0
v 37.0 7.2 28.0
v 37.0 8.0 27.7
v 37.0 9.0 21.4
v 37.0 9.0 27.4
v 36.4 10.0 22.0
v 37.0 10.0 21.5
v 36.4 10.0 26.0
v 37.0 10.0 26.6
v 37.0 9.6 27.0
v 36.6 11.0 22.0
v 37.0 11.0 21.6
v 37.0 10.6 26.0
v 37.0 11.0 25.7
v 37.0 11.4 22.0
v 36.6 12.0 23.0
v 37.0 12.0 22.6
v 36.5 12.0 24.0
v 36.7 12.0 25.0
v 37.0 12.0 25.2
v 37.0 12.4 23.0
v 37.0 12.5 24.0
v 37.0 12.2 25.0
v 38.0 5.0 23.7
v 38.0 4.7 24.0
v 38.0 4.2 25.0
v 38.0 4.9 26.0
v 37.9 5.0 26.0
v 38.0 5.0 26.1
v 38.0 6.0 22.4
v 38.0 5.5 23.0
v 37.1 6.0 26.0
v 38.0 5.6 27.0
v 37.5 6.0 27.0
v 38.0 5.9 28.0
v 37.9 6.0 28.0
v 38.0 6.0 28.1
v 37.5 7.0 22.0
v 38.0 7.0 21.6
v 38.0 6.5 22.0
v 38.0 7.0 28.5
v 38.0 8.0 21.3
v 37.5 8.0 28.0
v 38.0 8.0 28.4
v 37.6 9.0 21.0
v 38.0 9.0 20.6
v 38.0 8.5 21.0
v 38.0 8.8 28.0
v 38.0 9.0 27.9
v 37.5 10.0 21.0
v 38.0 10.0 20.5
v 37.3 10.0 27.0
v 38.0 9.5 28.0
v 37.9 10.0 28.0
v 38.0 10.0 28.1
v 37.7 11.0 21.0
v 38.0 11.0 20.7
v 37.4 11.0 26.0
v 37.7 11.0 27.0
v 38.0 11.0 27.4
v 38.0 10.2 28.0
v 38.0 11.4 21.0
v 37.5 12.0 22.0
v 38.0 12.0 21.5
v 38.0 11.5 26.0
v 38.0 12.0 25.5
v 38.0 11.3 27.0
v 38.0 12.5 22.0
v 37.5 13.0 23.0
v 38.0 13.0 22.4
v 37.5 13.0 24.0
v 38.0 13.0 24.5
v 38.0 12.5 25.0
v 37.8 14.0 23.0
v 38.0 14.0 22.8
v 37.8 14.0 24.0
v 38.0 14.0 24.2
v 38.0 14.3 23.0
v 38.0 14.2 24.0
v 38.4 5.0 24.0
v 38.4 5.0 25.0
v 38.1 5.0 26.0
v 38.6 6.0 22.0
v 39.0 6.0 21.7
v 39.0 5.7 22.0
v 39.0 5.5 23.0
v 39.0 5.5 24.0
v 39.0 6.0 24.7
v 38.7 6.0 25.0
v 38.7 6.0 26.0
v 39.0 5.6 27.0
v 39.0 6.0 26.4
v 38.1 6.0 28.0
v 39.0 6.0 27.5
v 38.7 7.0 21.0
v 39.0 7.0 20.7
v 39.0 6.7 21.0
v 39.0 6.3 25.0
v 39.0 6.3 26.0
v 39.0 6.4 28.0
v 39.0 7.0 28.5
v 38.3 8.0 21.0
v 39.0 8.0 20.4
v 39.0 7.9 29.0
v 38.9 8.0 29.0
v 39.0 8.0 29.1
v 38.6 9.0 20.0
v 39.0 9.0 19.7
v 39.0 8.5 20.0
v 38.1 9.0 28.0
v 38.8 9.0 29.0
v 39.0 9.0 29.2
v 38.6 10.0 20.0
v 39.0 10.0 19.7
v 39.0 9.4 29.0
v 39.0 10.0 28.7
v 39.0 10.5 20.0
v 39.0 11.0 20.3
v 38.5 11.0 28.0
v 39.0 11.0 28.4
v 38.5 12.0 21.0
v 39.0 12.0 20.6
v 39.0 11.8 26.0
v 39.0 12.0 25.7
v 39.0 11.7 27.0
v 38.9 12.0 28.0
v 39.0 12.0 27.7
v 39.0 12.0 28.2
v 39.0 12.5 21.0
v 38.5 13.0 22.0
v 39.0 13.0 21.5
v 39.0 12.7 25.0
v 39.0 13.0 24.7
v 39.0 12.2 28.0
v 39.0 12.8 29.0
v 38.9 13.0 29.0
v 39.0 13.0 28.8
v 39.0 12.8 30.0
v 38.8 13.0 30.0
v 39.0 13.0 30.5
v 39.0 13.6 22.0
v 39.0 14.0 22.3
v 39.0 14.0 24.4
v 38.9 14.0 28.0
v 39.0 14.0 27.6
v 39.0 13.9 28.0
v 39.0 13.2 29.0
v 39.0 14.0 28.1
v 39.0 13.3 30.0
v 38.9 15.0 23.0
v 39.0 15.0 22.9
v 39.0 15.0 23.1
v 39.0 14.4 24.0
v 39.0 14.1 28.0
v 38.9 16.0 21.0
v 39.0 16.0 20.8
v 39.0 15.8 21.0
v 39.0 16.0 21.3
v 39.0 15.3 23.0
v 38.6 17.0 21.0
v 39.0 17.0 20.5
v 39.0 16.4 22.0
v 38.7 17.0 22.0
v 39.0 17.0 22.3
v 38.7 18.0 21.0
v 39.0 18.0 20.6
v 38.8 18.0 22.0
v 39.0 18.0 22.2
v 39.0 19.0 21.0
v 39.0 19.0 21.0
v 39.0 19.0 21.0
v 39.0 18.3 22.0
v 39.0 19.0 21.0
v 40.0 6.0 21.4
v 40.0 5.6 22.0
v 40.0 5.4 23.0
v 40.0 5.5 24.0
v 40.0 6.0 24.5
v 40.0 6.0 26.6
v 40.0 5.1 27.0
v 40.0 6.0 27.4
v 40.0 7.0 20.4
v 40.0 6.4 21.0
v 39.8 7.0 25.0
v 40.0 7.0 24.8
v 39.8 7.0 26.0
v 40.0 7.0 26.2
v 40.0 6.5 28.0
v 40.0 7.0 28.4
v 39.5 8.0 20.0
v 40.0 8.0 19.5
v 40.0 7.5 20.0
v 40.0 7.2 25.0
v 40.0 7.2 26.0
v 39.2 8.0 29.0
v 40.0 8.0 28.7
v 39.8 9.0 19.0
v 40.0 9.0 18.9
v 40.0 8.8 19.0
v 40.0 8.6 29.0
v 40.0 9.0 29.2
v 40.0 9.3 19.0
v 40.0 10.0 19.3
v 39.8 10.0 29.0
v 40.0 10.0 29.1
v 39.4 11.0 20.0
v 40.0 11.0 19.5
v 40.0 10.5 29.0
v 40.0 11.0 28.9
v 39.7 12.0 20.0
v 40.0 12.0 19.7
v 39.3 12.0 26.0
v 39.4 12.0 27.0
v 40.0 11.2 29.0
v 39.4 12.0 29.0
v 40.0 11.7 30.0
v 39.7 12.0 30.0
v 40.0 12.0 30.3
v 40.0 12.3 20.0
v 39.4 13.0 21.0
v 40.0 13.0 20.5
v 39.4 13.0 25.0
v 40.0 13.0 25.6
v 40.0 12.7 26.0
v 40.0 12.7 27.0
v 40.0 12.8 28.0
v 40.0 13.0 28.1
v 40.0 13.0 30.6
v 39.6 14.0 21.0
v 40.0 14.0 20.6
v 39.3 14.0 22.0
v 40.0 13.4 25.0
v 40.0 14.0 24.5
v 39.6 14.0 27.0
v 40.0 14.0 26.9
v 40.0 13.8 27.0
v 40.0 13.2 28.0
v 39.3 14.0 29.0
v 39.4 14.0 30.0
v 40.0 13.8 31.0
v 39.9 14.0 31.0
v 40.0 14.0 31.1
v 39.5 15.0 21.0
v 40.0 15.0 20.4
v 39.5 15.0 22.0
v 39.2 15.0 23.0
v 40.0 14.7 23.0
v 40.0 15.0 22.7
v 40.0 14.4 24.0
v 40.0 14.1 27.0
v 39.7 15.0 28.0
v 40.0 15.0 27.7
v 39.6 15.0 29.0
v 39.7 15.0 30.0
v 40.0 15.0 30.4
v 40.0 14.2 31.0
v 39.8 16.0 19.0
v 40.0 16.0 18.8
v 40.0 15.8 19.0
v 40.0 15.4 20.0
v 39.5 16.0 20.0
v 39.3 16.0 22.0
v 40.0 16.0 22.5
v 40.0 15.2 28.0
v 40.0 15.4 29.0
v 40.0 15.3 30.0
v 39.8 17.0 19.0
v 40.0 17.0 18.8
v 39.4 17.0 20.0
v 40.0 17.0 22.5
v 40.0 17.4 19.0
v 39.6 18.0 20.0
v 40.0 18.0 19.5
v 40.0 18.0 22.5
v 40.0 18.5 20.0
v 40.0 19.0 20.4
v 40.0 18.6 22.0
v 40.0 19.0 21.6
v 40.0 19.7 21.0
v 40.7 5.0 23.0
v 41.0 5.0 22.6
v 41.0 4.8 23.0
v 41.0 4.9 24.0
v 40.8 5.0 24.0
v 41.0 5.0 24.2
v 40.2 5.0 27.0
v 41.0 5.0 26.7
v 41.0 4.8 27.0
v 41.0 5.0 27.2
v 40.5 6.0 21.0
v 41.0 6.0 20.7
v 41.0 5.7 21.0
v 41.0 5.3 22.0
v 41.0 5.7 25.0
v 40.7 6.0 25.0
v 41.0 6.0 25.4
v 41.0 6.0 26.3
v 41.0 6.0 27.5
v 40.5 7.0 20.0
v 41.0 7.0 19.6
v 41.0 6.6 20.0
v 41.0 7.0 25.0
v 41.0 7.0 25.0
v 41.0 7.0 26.1
v 41.0 6.5 28.0
v 41.0 7.0 28.4
v 40.6 8.0 19.0
v 41.0 8.0 18.7
v 41.0 7.7 19.0
v 41.0 7.1 26.0
v 41.0 8.0 28.5
v 41.0 9.0 18.5
v 40.3 9.0 29.0
v 41.0 9.0 28.5
v 40.4 10.0 19.0
v 41.0 10.0 18.6
v 41.0 10.0 28.0
v 41.0 10.0 28.0
v 41.0 10.0 28.0
v 40.2 10.0 29.0
v 40.6 11.0 19.0
v 41.0 11.0 18.7
v 41.0 10.0 28.0
v 41.0 10.7 29.0
v 40.3 11.0 29.0
v 41.0 11.0 29.9
v 41.0 11.4 19.0
v 41.0 12.0 19.4
v 41.0 11.1 30.0
v 41.0 12.0 30.4
v 41.0 12.7 20.0
v 41.0 13.0 20.3
v 40.4 13.0 26.0
v 40.4 13.0 27.0
v 40.8 13.0 28.0
v 41.0 13.0 30.7
v 41.0 14.0 20.4
v 41.0 13.7 25.0
v 41.0 14.0 24.6
v 41.0 13.5 26.0
v 40.3 14.0 27.0
v 41.0 13.7 27.0
v 41.0 14.0 27.2
v 41.0 13.4 31.0
v 41.0 14.0 31.4
v 40.5 15.0 20.0
v 41.0 15.0 19.6
v 41.0 14.6 20.0
v 41.0 14.5 23.0
v 41.0 15.0 22.5
v 41.0 14.4 24.0
v 41.0 15.0 27.6
v 40.5 15.0 31.0
v 41.0 15.0 31.4
v 41.0 16.0 18.6
v 41.0 15.6 19.0
v 41.0 16.0 22.4
v 41.0 15.5 28.0
v 40.7 16.0 29.0
v 41.0 16.0 28.7
v 40.7 16.0 30.0
v 41.0 16.0 30.4
v 41.0 15.5 31.0
v 41.0 17.0 18.5
v 41.0 17.0 22.6
v 41.0 16.2 29.0
v 41.0 16.3 30.0
v 40.6 18.0 19.0
v 41.0 18.0 18.7
v 41.0 18.0 22.9
v 41.0 18.5 19.0
v 40.5 19.0 20.0
v 41.0 19.0 19.5
v 40.5 19.0 22.0
v 41.0 19.0 22.4
v 41.0 19.3 20.0
v 41.0 19.5 21.0
v 41.0 19.3 22.0
v 41.7 5.0 22.0
v 42.0 5.0 21.7
v 42.0 4.9 22.0
v 42.0 4.7 23.0
v 42.0 5.0 24.0
v 42.0 5.0 24.0
v 42.0 4.7 25.0
v 42.0 5.0 24.0
v 41.6 5.0 25.0
v 42.0 4.6 26.0
v 41.5 5.0 26.0
v 42.0 4.7 27.0
v 42.0 5.0 27.4
v 42.0 6.0 20.4
v 42.0 5.4 21.0
v 42.0 5.0 24.0
v 41.2 6.0 26.0
v 42.0 6.0 27.7
v 42.0 7.0 19.5
v 42.0 6.4 20.0
v 41.1 7.0 26.0
v 42.0 6.4 28.0
v 42.0 7.0 28.4
v 42.0 8.0 18.6
v 42.0 7.5 19.0
v 42.0 8.0 28.4
v 42.0 9.0 18.4
v 42.0 9.0 28.2
v 42.0 10.0 18.4
v 42.0 9.3 28.0
v 42.0 10.0 27.5
v 42.0 11.0 18.5
v 41.6 11.0 28.0
v 42.0 11.0 27.6
v 41.3 11.0 29.0
v 41.5 12.0 19.0
v 42.0 12.0 18.7
v 42.0 11.6 28.0
v 42.0 12.0 28.4
v 41.7 12.0 29.0
v 41.5 12.0 30.0
v 42.0 12.4 19.0
v 41.4 13.0 20.0
v 42.0 13.0 19.5
v 41.3 13.0 28.0
v 42.0 12.8 28.0
v 42.0 13.0 27.9
v 42.0 12.5 29.0
v 42.0 13.0 28.1
v 42.0 12.4 30.0
v 42.0 12.7 31.0
v 41.6 13.0 31.0
v 42.0 13.0 31.2
v 42.0 13.8 20.0
v 42.0 14.0 20.1
v 41.9 14.0 23.0
v 42.0 13.9 23.0
v 42.0 14.0 22.9
v 42.0 14.0 23.1
v 41.4 14.0 25.0
v 41.6 14.0 26.0
v 41.4 14.0 27.0
v 42.0 13.1 28.0
v 42.0 14.0 31.6
v 42.0 15.0 19.5
v 42.0 14.2 20.0
v 41.7 15.0 22.0
v 42.0 14.7 22.0
v 42.0 15.0 21.8
v 42.0 14.4 24.0
v 42.0 14.4 25.0
v 42.0 14.3 26.0
v 42.0 14.3 27.0
v 42.0 15.0 27.7
v 42.0 14.7 32.0
v 41.7 15.0 32.0
v 42.0 15.0 32.3
v 42.0 16.0 18.8
v 42.0 15.7 19.0
v 41.8 16.0 22.0
v 42.0 16.0 21.9
v 42.0 15.4 28.0
v 42.0 16.0 28.6
v 41.4 16.0 31.0
v 41.7 16.0 32.0
v 42.0 16.0 32.3
v 42.0 17.0 18.6
v 42.0 16.2 22.0
v 42.0 17.0 22.4
v 42.0 16.4 29.0
v 42.0 16.5 30.0
v 42.0 16.4 31.0
v 42.0 16.3 32.0
v 42.0 18.0 18.5
v 42.0 18.0 22.7
v 41.4 19.0 19.0
v 42.0 19.0 18.2
v 42.0 18.8 23.0
v 41.8 19.0 23.0
v 42.0 19.0 23.1
v 41.9 20.0 19.0
v 42.0 20.0 18.9
v 42.0 19.7 20.0
v 42.0 20.0 19.1
v 42.0 19.5 21.0
v 42.0 19.5 22.0
v 42.0 19.1 23.0
v 42.0 20.1 19.0
v 42.3 5.0 22.0
v 42.5 5.0 23.0
v 43.0 4.9 24.0
v 43.0 5.0 23.8
v 42.0 5.0 24.0
v 43.0 4.7 25.0
v 43.0 4.7 26.0
v 43.0 4.7 27.0
v 43.0 4.9 28.0
v 42.8 5.0 28.0
v 43.0 5.0 28.1
v 42.8 6.0 20.0
v 43.0 6.0 19.9
v 43.0 5.9 20.0
v 43.0 5.1 21.0
v 43.0 5.3 22.0
v 43.0 5.3 23.0
v 42.5 6.0 28.0
v 43.0 6.0 28.2
v 43.0 7.0 19.4
v 43.0 7.0 28.2
v 43.0 8.0 18.5
v 43.0 7.5 19.0
v 42.7 8.0 27.0
v 43.0 7.6 27.0
v 43.0 8.0 26.7
v 42.4 8.0 28.0
v 43.0 7.2 28.0
v 42.7 9.0 18.0
v 43.0 9.0 17.8
v 43.0 8.7 18.0
v 42.6 9.0 27.0
v 43.0 9.0 26.5
v 42.2 9.0 28.0
v 42.6 10.0 18.0
v 43.0 10.0 17.7
v 42.5 10.0 27.0
v 43.0 10.0 26.6
v 43.0 10.5 18.0
v 43.0 11.0 18.3
v 42.7 11.0 27.0
v 43.0 11.0 26.7
v 43.0 12.0 18.5
v 43.0 11.5 27.0
v 42.2 12.0 28.0
v 43.0 12.0 27.4
v 42.6 13.0 19.0
v 43.0 13.0 18.7
v 43.0 13.0 27.3
v 42.5 13.0 29.0
v 43.0 13.0 29.6
v 43.0 12.8 30.0
v 43.0 12.8 31.0
v 43.0 13.0 31.2
v 43.0 13.3 19.0
v 42.2 14.0 20.0
v 43.0 14.0 19.5
v 43.0 13.9 23.0
v 43.0 14.0 22.9
v 43.0 14.0 23.1
v 42.5 14.0 26.0
v 43.0 13.7 26.0
v 43.0 14.0 25.6
v 42.3 14.0 27.0
v 43.0 13.3 27.0
v 42.5 14.0 28.0
v 43.0 14.0 28.6
v 43.0 13.6 29.0
v 43.0 14.0 31.7
v 43.0 15.0 19.6
v 43.0 14.9 22.0
v 43.0 15.0 21.9
v 43.0 14.4 24.0
v 43.0 14.4 25.0
v 42.4 15.0 28.0
v 43.0 15.0 28.4
v 43.0 14.4 32.0
v 43.0 15.0 32.5
v 42.4 16.0 19.0
v 43.0 16.0 19.4
v 43.0 15.2 22.0
v 42.2 16.0 22.0
v 43.0 16.0 22.3
v 43.0 16.0 28.6
v 43.0 15.6 33.0
v 42.6 16.0 33.0
v 43.0 16.0 33.7
v 42.8 17.0 19.0
v 43.0 17.0 19.1
v 43.0 17.0 22.5
v 43.0 16.4 29.0
v 43.0 16.5 30.0
v 43.0 16.7 31.0
v 42.7 17.0 32.0
v 43.0 17.0 31.5
v 42.8 17.0 33.0
v 43.0 17.0 33.2
v 43.0 18.0 18.6
v 43.0 17.2 19.0
v 43.0 18.0 22.7
v 43.0 17.3 32.0
v 43.0 17.2 33.0
v 43.0 19.0 18.4
v 43.0 18.6 23.0
v 43.0 19.0 23.5
v 43.0 20.0 18.7
v 42.5 20.0 20.0
v 43.0 20.0 20.4
v 43.0 19.6 21.0
v 43.0 19.5 22.0
v 43.0 19.2 23.0
v 43.0 20.3 19.0
v 43.0 20.3 20.0
v 43.1 5.0 24.0
v 43.3 5.0 25.0
v 43.3 5.0 26.0
v 43.4 5.0 27.0
v 43.4 5.0 28.0
v 43.1 6.0 20.0
v 43.7 6.0 21.0
v 44.0 6.0 21.3
v 44.0 5.6 22.0
v 44.0 5.7 23.0
v 43.6 6.0 24.0
v 44.0 6.0 23.3
v 43.5 6.0 25.0
v 43.5 6.0 26.0
v 43.5 6.0 27.0
v 43.3 6.0 28.0
v 44.0 7.0 19.6
v 44.0 6.6 20.0
v 44.0 6.2 21.0
v 43.6 7.0 24.0
v 44.0 7.0 23.5
v 43.5 7.0 25.0
v 43.5 7.0 26.0
v 43.4 7.0 27.0
v 43.2 7.0 28.0
v 44.0 8.0 18.7
v 44.0 7.7 19.0
v 43.6 8.0 24.0
v 44.0 8.0 23.6
v 43.5 8.0 25.0
v 43.4 8.0 26.0
v 44.0 9.0 17.8
v 44.0 8.7 18.0
v 43.8 9.0 24.0
v 44.0 9.0 23.8
v 43.6 9.0 25.0
v 43.5 9.0 26.0
v 44.0 10.0 17.7
v 44.0 9.2 24.0
v 44.0 9.4 25.0
v 44.0 9.7 26.0
v 44.0 10.0 26.2
v 43.8 11.0 18.0
v 44.0 11.0 17.9
v 44.0 11.0 26.4
v 44.0 11.2 18.0
v 44.0 12.0 18.4
v 43.4 12.0 27.0
v 44.0 12.0 26.6
v 44.0 13.0 18.7
v 43.3 13.0 27.0
v 44.0 13.0 26.5
v 43.3 13.0 30.0
v 43.3 13.0 31.0
v 44.0 13.3 19.0
v 44.0 14.0 19.6
v 43.1 14.0 23.0
v 44.0 13.5 26.0
v 44.0 14.0 25.5
v 43.4 14.0 29.0
v 43.7 14.0 30.0
v 44.0 14.0 30.6
v 44.0 13.7 31.0
v 44.0 14.0 32.0
v 44.0 14.0 32.0
v 44.0 14.0 32.0
v 44.0 14.7 20.0
v 43.8 15.0 20.0
v 44.0 15.0 20.2
v 43.2 15.0 22.0
v 44.0 15.0 22.5
v 44.0 14.5 23.0
v 44.0 14.5 24.0
v 44.0 14.4 25.0
v 44.0 15.0 28.8
v 44.0 14.7 29.0
v 44.0 14.4 30.0
v 44.0 15.0 32.4
v 44.0 16.0 19.5
v 44.0 15.2 20.0
v 44.0 16.0 22.5
v 44.0 16.0 28.7
v 44.0 15.7 33.0
v 44.0 16.0 33.3
v 43.3 17.0 19.0
v 44.0 17.0 18.7
v 44.0 16.6 19.0
v 44.0 17.0 22.6
v 44.0 16.3 29.0
v 44.0 16.7 30.0
v 43.5 17.0 31.0
v 44.0 17.0 30.5
v 44.0 17.0 33.2
v 44.0 18.0 18.5
v 44.0 17.8 23.0
v 43.7 18.0 23.0
v 44.0 18.0 23.3
v 44.0 17.3 31.0
v 44.0 17.4 32.0
v 44.0 17.2 33.0
v 44.0 19.0 18.6
v 43.4 19.0 23.0
v 44.0 19.0 22.6
v 44.0 18.2 23.0
v 44.0 20.0 18.7
v 44.0 19.6 21.0
v 44.0 20.0 20.4
v 44.0 19.4 22.0
v 44.0 20.3 19.0
v 44.0 20.3 20.0
v 45.0 6.0 21.9
v 45.0 5.9 22.0
v 44.3 6.0 23.0
v 45.0 6.0 22.1
v 44.5 7.0 20.0
v 45.0 7.0 20.5
v 45.0 6.6 21.0
v 44.5 7.0 23.0
v 45.0 7.0 22.6
v 44.4 8.0 19.0
v 45.0 8.0 19.5
v 45.0 7.4 20.0
v 44.7 8.0 23.0
v 45.0 8.0 22.8
v 44.2 9.0 18.0
v 44.7 9.0 19.0
v 45.0 9.0 19.2
v 45.0 8.3 23.0
v 45.0 9.0 23.7
v 44.4 10.0 18.0
v 45.0 10.0 18.6
v 45.0 9.4 19.0
v 45.0 9.3 24.0
v 45.0 9.6 25.0
v 44.3 10.0 26.0
v 45.0 10.0 25.5
v 44.2 11.0 18.0
v 45.0 11.0 18.5
v 44.7 11.0 26.0
v 45.0 11.0 25.8
v 45.0 12.0 18.7
v 45.0 11.3 26.0
v 45.0 12.0 26.4
v 45.0 12.4 19.0
v 44.4 13.0 19.0
v 45.0 13.0 19.6
v 45.0 13.0 26.5
v 44.4 14.0 20.0
v 45.0 13.4 20.0
v 44.6 14.0 21.0
v 45.0 13.5 21.0
v 44.9 14.0 22.0
v 45.0 13.9 22.0
v 45.0 14.0 22.2
v 45.0 13.6 26.0
v 45.0 14.0 25.6
v 44.2 14.0 31.0
v 44.0 14.0 32.0
v 44.7 15.0 21.0
v 45.0 15.0 21.6
v 45.0 14.3 22.0
v 45.0 15.0 22.4
v 45.0 14.7 23.0
v 45.0 14.5 24.0
v 45.0 14.4 25.0
v 44.3 15.0 29.0
v 44.5 15.0 30.0
v 44.5 15.0 31.0
v 44.4 15.0 32.0
v 45.0 16.0 19.5
v 45.0 15.6 20.0
v 45.0 15.3 21.0
v 45.0 16.0 22.6
v 45.0 16.0 28.9
v 45.0 15.9 29.0
v 45.0 15.5 30.0
v 45.0 15.9 31.0
v 45.0 15.8 32.0
v 44.3 16.0 33.0
v 45.0 16.0 32.2
v 45.0 17.0 18.6
v 45.0 16.6 19.0
v 45.0 17.0 22.5
v 45.0 16.1 29.0
v 44.6 17.0 30.0
v 45.0 17.0 29.7
v 44.3 17.0 33.0
v 45.0 17.0 32.4
v 45.0 18.0 18.7
v 44.2 18.0 23.0
v 45.0 18.0 22.6
v 45.0 17.2 30.0
v 45.0 17.4 31.0
v 45.0 17.3 32.0
v 45.0 18.6 19.0
v 44.7 19.0 19.0
v 45.0 19.0 19.3
v 45.0 19.0 22.3
v 44.7 20.0 19.0
v 45.0 19.6 20.0
v 44.4 20.0 20.0
v 45.0 19.5 21.0
v 45.0 19.2 22.0
v 45.1 6.0 22.0
v 45.6 7.0 21.0
v 46.0 7.0 21.6
v 46.0 6.7 22.0
v 46.0 7.0 22.2
v 46.0 8.0 19.6
v 46.0 7.6 20.0
v 46.0 7.3 21.0
v 46.0 8.0 22.6
v 46.0 9.0 19.5
v 46.0 8.4 23.0
v 46.0 8.8 24.0
v 45.5 9.0 24.0
v 46.0 9.0 24.3
v 45.4 10.0 19.0
v 46.0 10.0 19.4
v 46.0 9.5 25.0
v 46.0 10.0 25.4
v 45.5 11.0 19.0
v 46.0 11.0 19.5
v 46.0 11.0 25.7
v 45.3 12.0 19.0
v 46.0 12.0 19.7
v 46.0 11.4 26.0
v 46.0 12.0 26.5
v 45.4 13.0 20.0
v 46.0 12.3 20.0
v 45.5 13.0 21.0
v 46.0 12.6 21.0
v 45.9 13.0 22.0
v 46.0 12.9 22.0
v 46.0 13.0 22.1
v 46.0 12.8 27.0
v 45.9 13.0 27.0
v 46.0 13.0 27.1
v 46.0 14.0 22.6
v 45.5 14.0 26.0
v 46.0 14.0 26.4
v 46.0 13.2 27.0
v 45.4 15.0 22.0
v 45.4 14.6 22.5
v 46.0 15.0 22.8
v 45.7 15.0 23.0
v 46.0 15.0 23.2
v 46.0 14.6 24.0
v 46.0 14.5 25.0
v 46.0 14.3 26.0
v 46.0 16.0 19.6
v 46.0 15.7 20.0
v 46.0 15.5 21.0
v 46.0 15.3 22.0
v 45.7 16.0 23.0
v 46.0 16.0 23.2
v 45.1 16.0 29.0
v 46.0 16.0 29.5
v 46.0 15.6 30.0
v 46.0 15.7 31.0
v 45.4 16.0 32.0
v 46.0 16.0 31.6
v 46.0 17.0 18.8
v 46.0 16.7 19.0
v 46.0 16.4 23.0
v 46.0 17.0 22.7
v 46.0 17.0 29.6
v 46.0 16.5 32.0
v 46.0 17.0 32.2
v 46.0 17.4 19.0
v 45.5 18.0 19.0
v 46.0 18.0 19.3
v 46.0 18.0 22.5
v 46.0 17.3 30.0
v 46.0 17.5 31.0
v 46.0 17.2 32.0
v 46.0 19.0 19.8
v 45.4 19.0 22.0
v 46.0 18.6 22.0
v 46.0 19.0 21.4
v 46.0 19.2 20.0
v 46.0 19.3 21.0
v 46.9 7.0 22.0
v 47.0 8.0 19.8
v 47.0 7.8 20.0
v 47.0 7.4 21.0
v 47.0 7.0 22.0
v 47.0 8.0 22.5
v 47.0 9.0 19.5
v 47.0 9.0 23.0
v 47.0 9.0 23.0
v 47.0 9.0 23.2
v 47.0 8.9 24.0
v 47.0 9.0 24.2
v 47.0 10.0 19.6
v 47.0 9.0 23.0
v 47.0 9.6 25.0
v 47.0 10.0 25.3
v 47.0 10.8 20.0
v 46.8 11.0 20.0
v 47.0 11.0 20.1
v 47.0 10.9 26.0
v 46.8 11.0 26.0
v 47.0 11.0 26.1
v 46.4 12.0 20.0
v 47.0 12.0 20.6
v 47.0 12.0 26.5
v 47.0 12.4 21.0
v 46.2 13.0 22.0
v 47.0 13.0 21.7
v 47.0 12.6 27.0
v 47.0 13.0 27.3
v 47.0 13.3 22.0
v 47.0 13.7 23.0
v 46.6 14.0 23.0
v 47.0 14.0 23.5
v 46.8 14.0 27.0
v 47.0 14.0 27.1
v 46.2 15.0 23.0
v 47.0 14.3 24.0
v 47.0 14.4 25.0
v 47.0 14.4 26.0
v 47.0 14.1 27.0
v 46.5 16.0 20.0
v 47.0 16.0 20.5
v 47.0 15.7 21.0
v 47.0 15.6 22.0
v 47.0 15.7 23.0
v 47.0 16.0 23.2
v 47.0 16.0 29.1
v 47.0 15.7 30.0
v 47.0 15.7 31.0
v 47.0 15.9 32.0
v 46.8 16.0 32.0
v 47.0 16.0 32.1
v 47.0 17.0 19.0
v 47.0 17.0 19.0
v 47.0 16.3 20.0
v 46.4 17.0 23.0
v 47.0 17.0 23.5
v 47.0 17.0 29.5
v 47.0 17.0 32.3
v 47.0 17.0 19.0
v 47.0 18.0 19.5
v 46.7 18.0 23.0
v 47.0 18.0 23.3
v 47.0 17.4 30.0
v 47.0 17.5 31.0
v 47.0 17.3 32.0
v 47.0 18.5 20.0
v 46.3 19.0 20.0
v 46.4 19.0 21.0
v 47.0 18.6 21.0
v 47.0 18.5 22.0
v 47.0 18.2 23.0
v 47.5 8.0 20.0
v 48.0 8.0 20.4
v 48.0 7.7 21.0
v 47.9 8.0 22.0
v 48.0 8.0 21.9
v 48.0 9.0 19.6
v 48.0 8.3 20.0
v 48.0 8.1 22.0
v 48.0 9.0 22.7
v 47.2 9.0 24.0
v 48.0 10.0 19.5
v 48.0 9.2 23.0
v 48.0 9.4 24.0
v 47.5 10.0 25.0
v 48.0 10.0 24.6
v 47.3 11.0 20.0
v 48.0 11.0 19.8
v 48.0 10.5 25.0
v 47.1 11.0 26.0
v 48.0 11.0 25.4
v 48.0 11.3 20.0
v 48.0 11.7 21.0
v 47.6 12.0 21.0
v 48.0 12.0 21.3
v 47.7 12.0 26.0
v 48.0 12.0 25.7
v 48.0 13.0 21.7
v 48.0 12.4 26.0
v 48.0 13.0 27.0
v 48.0 13.0 27.0
v 48.0 13.2 22.0
v 48.0 13.5 23.0
v 47.4 14.0 24.0
v 48.0 13.6 24.0
v 47.5 14.0 25.0
v 48.0 13.6 25.0
v 47.5 14.0 26.0
v 48.0 13.5 26.0
v 47.1 14.0 27.0
v 48.0 13.0 27.0
v 47.4 16.0 21.0
v 47.5 16.0 22.0
v 47.3 16.0 23.0
v 47.4 16.0 30.0
v 47.5 16.0 31.0
v 47.1 16.0 32.0
v 47.0 17.0 19.0
v 48.0 17.0 19.7
v 48.0 16.7 20.0
v 48.0 16.4 21.0
v 48.0 16.5 22.0
v 48.0 16.4 23.0
v 48.0 16.7 24.0
v 47.7 17.0 24.0
v 48.0 17.0 24.3
v 47.8 17.0 29.0
v 48.0 17.0 28.8
v 48.0 16.8 29.0
v 48.0 16.5 30.0
v 48.0 16.4 31.0
v 48.0 16.7 32.0
v 48.0 17.0 32.2
v 48.0 18.0 19.7
v 47.7 18.0 24.0
v 48.0 18.0 24.2
v 48.0 17.1 29.0
v 48.0 17.5 30.0
v 47.8 18.0 31.0
v 48.0 18.0 30.8
v 48.0 18.0 31.2
v 48.0 17.3 32.0
v 48.0 18.3 20.0
v 48.0 18.5 21.0
v 48.0 18.5 22.0
v 48.0 18.5 23.0
v 48.0 18.2 24.0
v 48.0 18.1 31.0
v 48.5 8.0 20.0
v 49.0 8.0 19.8
v 49.0 7.8 20.0
v 49.0 7.7 21.0
v 49.0 8.0 21.8
v 49.0 9.0 19.5
v 48.8 9.0 22.0
v 49.0 9.0 21.9
v 49.0 10.0 19.5
v 49.0 9.1 22.0
v 49.0 9.3 23.0
v 49.0 9.3 24.0
v 49.0 10.0 24.3
v 49.0 11.0 19.7
v 48.4 11.0 25.0
v 49.0 11.0 24.5
v 49.0 11.3 20.0
v 49.0 11.6 21.0
v 49.0 12.0 21.4
v 48.7 12.0 25.0
v 49.0 12.0 24.8
v 49.0 12.6 22.0
v 48.4 13.0 22.0
v 49.0 13.0 22.4
v 49.0 12.3 25.0
v 49.0 12.8 26.0
v 48.0 13.0 27.0
v 49.0 13.0 26.3
v 49.0 13.4 23.0
v 49.0 13.5 24.0
v 49.0 13.4 25.0
v 49.0 13.2 26.0
v 48.9 16.0 28.0
v 49.0 16.0 28.0
v 49.0 16.0 28.0
v 49.0 16.0 28.0
v 48.4 17.0 20.0
v 49.0 17.0 20.8
v 49.0 16.9 21.0
v 48.7 17.0 22.0
v 49.0 17.0 21.3
v 49.0 17.0 22.4
v 49.0 16.7 23.0
v 49.0 16.6 24.0
v 49.0 16.8 25.0
v 48.7 17.0 25.0
v 49.0 16.8 26.0
v 48.8 17.0 26.0
v 49.0 16.7 27.0
v 48.8 17.0 27.0
v 48.5 17.0 28.0
v 49.0 16.7 29.0
v 49.0 16.7 30.0
v 49.0 16.7 31.0
v 48.8 17.0 32.0
v 49.0 17.0 31.9
v 49.0 18.0 20.0
v 49.0 18.0 20.0
v 49.0 17.5 22.0
v 49.0 17.3 25.0
v 49.0 18.0 24.3
v 49.0 17.2 26.0
v 49.0 17.4 27.0
v 48.9 18.0 28.0
v 49.0 18.0 27.9
v 49.0 17.4 29.0
v 49.0 18.0 28.1
v 48.9 18.0 30.0
v 49.0 18.0 29.9
v 49.0 18.0 31.2
v 49.0 18.0 20.0
v 49.0 18.3 21.0
v 49.0 18.2 22.0
v 49.0 18.3 23.0
v 49.0 18.2 24.0
v 49.0 18.1 28.0
v 49.0 18.1 30.0
v 49.0 18.2 31.0
v 50.0 8.0 20.0
v 50.0 8.0 20.0
v 49.4 8.0 21.0
v 50.0 8.0 20.0
v 50.0 9.0 19.6
v 50.0 9.0 21.0
v 50.0 9.0 21.0
v 50.0 10.0 19.5
v 50.0 9.0 21.0
v 50.0 9.3 22.0
v 50.0 9.1 23.0
v 49.4 10.0 24.0
v 50.0 10.0 23.5
v 50.0 11.0 19.8
v 49.7 11.0 24.0
v 50.0 11.0 23.7
v 50.0 11.2 20.0
v 50.0 11.6 21.0
v 50.0 12.0 21.5
v 50.0 11.3 24.0
v 50.0 12.0 24.5
v 50.0 12.5 22.0
v 50.0 13.0 22.5
v 50.0 12.5 25.0
v 50.0 12.7 26.0
v 50.0 13.0 26.6
v 50.0 13.4 23.0
v 50.0 13.5 24.0
v 50.0 13.4 25.0
v 50.0 13.3 26.0
v 49.0 16.0 28.0
v 49.1 17.0 21.0
v 49.3 17.0 23.0
v 50.0 17.0 23.9
v 50.0 16.9 24.0
v 50.0 16.7 25.0
v 50.0 16.7 26.0
v 50.0 16.7 27.0
v 50.0 16.7 28.0
v 49.3 17.0 29.0
v 50.0 17.0 28.3
v 49.3 17.0 30.0
v 49.3 17.0 31.0
v 49.0 18.0 20.0
v 49.3 18.0 21.0
v 49.2 18.0 22.0
v 49.3 18.0 23.0
v 50.0 17.2 24.0
v 49.4 18.0 24.0
v 50.0 17.5 25.0
v 49.7 18.0 26.0
v 50.0 18.0 25.6
v 49.6 18.0 27.0
v 50.0 18.0 28.1
v 49.1 18.0 30.0
v 49.2 18.0 31.0
v 50.0 18.2 26.0
v 50.0 18.2 27.0
v 50.0 18.1 28.0
v 50.0 8.0 20.0
v 51.0 9.0 19.8
v 51.0 8.8 20.0
v 51.0 8.6 21.0
v 50.0 9.0 21.0
v 51.0 8.8 22.0
v 50.5 9.0 22.0
v 51.0 9.0 22.3
v 51.0 10.0 19.7
v 51.0 10.0 22.7
v 50.6 10.0 23.0
v 51.0 10.4 20.0
v 50.4 11.0 20.0
v 51.0 11.0 20.4
v 51.0 10.3 23.0
v 51.0 11.0 23.5
v 51.0 11.5 21.0
v 51.0 12.0 21.5
v 51.0 11.6 24.0
v 51.0 12.0 24.4
v 51.0 12.5 22.0
v 51.0 13.0 22.7
v 51.0 12.6 25.0
v 51.0 13.0 26.0
v 51.0 13.0 26.0
v 51.0 13.3 23.0
v 51.0 13.4 24.0
v 51.0 13.3 25.0
v 50.1 17.0 24.0
v 51.0 17.0 24.9
v 51.0 17.0 25.0
v 50.5 17.0 26.0
v 51.0 17.0 25.1
v 50.3 17.0 27.0
v 50.2 17.0 28.0
v 51.0 18.0 24.6
v 50.7 18.0 25.0
v 51.0 18.0 26.0
v 51.0 18.0 26.0
v 50.3 18.0 27.0
v 50.1 18.0 28.0
v 51.0 18.1 25.0
v 51.0 18.0 26.0
v 51.3 9.0 20.0
v 52.0 9.0 20.8
v 52.0 8.8 21.0
v 52.0 8.8 22.0
v 52.0 9.0 22.2
v 51.4 10.0 20.0
v 52.0 10.0 20.5
v 52.0 10.0 22.4
v 52.0 11.0 20.5
v 52.0 10.7 23.0
v 52.0 11.0 23.3
v 52.0 11.6 21.0
v 52.0 12.0 21.4
v 51.5 12.0 24.0
v 52.0 12.0 23.6
v 52.0 12.4 22.0
v 51.5 13.0 23.0
v 52.0 12.6 23.0
v 52.0 13.0 23.6
v 52.0 12.6 24.0
v 52.0 13.0 25.0
v 52.0 13.0 25.0
v 52.0 13.2 24.0
v 51.0 17.0 25.0
v 51.1 18.0 25.0
v 51.0 18.0 26.0
v 52.2 9.0 21.0
v 52.2 9.0 22.0
v 52.5 10.0 21.0
v 52.4 10.0 22.0
v 52.9 11.0 20.0
v 53.0 11.0 19.9
v 53.0 10.9 20.0
v 53.0 10.5 21.0
v 53.0 11.0 21.6
v 52.7 11.0 22.0
v 52.3 11.0 23.0
v 53.0 11.2 20.0
v 52.6 12.0 21.0
v 53.0 12.0 20.6
v 53.0 11.4 22.0
v 53.0 11.9 23.0
v 53.0 12.0 23.1
v 53.0 12.3 21.0
v 53.0 12.3 22.0
v 53.0 12.1 23.0
v 52.5 13.0 24.0
v 53.7 10.0 20.0
v 54.0 10.0 19.8
v 54.0 9.2 20.0
v 54.0 10.0 20.4
v 54.0 11.0 19.6
v 54.0 10.4 21.0
v 54.0 11.0 21.5
v 53.7 12.0 20.0
v 54.0 12.0 19.8
v 54.0 11.7 22.0
v 53.1 12.0 23.0
v 54.0 12.0 22.2
v 54.0 12.2 20.0
v 54.0 12.5 21.0
v 54.0 12.2 22.0
v 55.0 10.0 19.6
v 55.0 9.0 20.0
v 55.0 9.7 21.0
v 54.6 10.0 21.0
v 55.0 10.0 21.3
v 55.0 11.0 19.6
v 55.0 11.0 21.6
v 55.0 12.0 19.8
v 55.0 11.7 22.0
v 55.0 12.0 22.2
v 55.0 12.2 20.0
v 55.0 12.4 21.0
v 55.0 12.2 22.0
v 56.0 10.0 20.0
v 56.0 9.9 20.0
v 56.0 9.9 21.0
v 56.0 10.0 21.1
v 56.0 10.1 20.0
v 55.6 11.0 20.0
v 56.0 11.0 20.6
v 56.0 11.0 21.3
v 55.3 12.0 20.0
v 56.0 12.0 20.8
v 55.8 12.0 22.0
v 56.0 12.0 21.8
v 56.0 12.2 21.0
v 56.0 10.0 20.0
v 56.1 10.0 21.0
v 56.2 11.0 21.0
v 56.2 12.0 21.0
f 3 2 1
f 5 4 1
f 1 4 3
f 5 6 4
f 9 8 7
f 9 7 2
f 7 1 2
f 7 10 1
f 1 11 5
f 1 10 11
f 6 5 12
f 5 13 12
f 5 11 13
f 13 14 12
f 17 16 15
f 17 15 8
f 15 7 8
f 15 18 7
f 7 19 10
f 7 18 19
f 10 20 11
f 10 19 20
f 11 21 13
f 11 20 21
f 14 13 22
f 22 13 21
f 15 16 23
f 23 16 24
f 15 25 18
f 15 23 25
f 18 26 19
f 18 25 26
f 19 27 20
f 19 26 27
f 20 28 21
f 20 27 28
f 22 21 29
f 29 21 28
f 24 30 23
f 32 31 30
f 31 23 30
f 31 25 23
f 25 33 26
f 25 31 33
f 35 27 34
f 27 33 34
f 27 26 33
f 27 35 28
f 28 35 36
f 28 36 29
f 31 32 37
f 37 32 38
f 31 39 33
f 31 37 39
f 34 33 40
f 40 33 39
f 38 41 37
f 37 41 39
f 39 41 42
f 39 42 40
f 45 44 43
f 2 3 43
f 3 45 43
f 3 46 45
f 47 3 4
f 47 46 3
f 4 6 47
f 47 6 48
f 51 50 49
f 51 49 44
f 44 49 43
f 49 8 43
f 8 9 43
f 43 9 2
f 52 48 6
f 52 6 12
f 12 14 52
f 52 14 53
f 49 50 17
f 50 16 17
f 50 54 16
f 49 17 8
f 22 53 14
f 22 55 53
f 58 57 56
f 54 58 56
f 24 54 56
f 16 54 24
f 29 55 22
f 29 59 55
f 57 60 56
f 60 62 61
f 60 61 30
f 56 60 30
f 24 56 30
f 61 32 30
f 64 63 35
f 64 35 34
f 35 65 36
f 63 65 35
f 29 36 59
f 59 36 65
f 61 62 66
f 66 62 67
f 66 38 32
f 66 32 61
f 40 64 34
f 40 68 64
f 67 69 66
f 66 69 38
f 69 41 38
f 69 70 41
f 41 71 42
f 70 71 41
f 40 42 68
f 68 42 71
f 74 73 72
f 76 75 72
f 72 75 74
f 76 77 75
f 80 79 78
f 80 78 73
f 73 78 72
f 78 44 72
f 44 45 72
f 72 45 46
f 72 46 76
f 46 47 76
f 47 81 76
f 81 77 76
f 47 82 81
f 48 82 47
f 78 79 51
f 79 50 51
f 79 83 50
f 78 51 44
f 84 81 82
f 84 82 48
f 52 84 48
f 85 84 52
f 87 86 53
f 86 52 53
f 86 85 52
f 87 88 86
f 91 90 89
f 83 91 89
f 54 83 89
f 50 83 54
f 93 92 87
f 53 93 87
f 55 93 53
f 87 92 88
f 89 90 58
f 90 57 58
f 90 94 57
f 89 58 54
f 59 93 55
f 59 95 93
f 60 57 96
f 57 97 96
f 57 94 97
f 96 62 60
f 64 98 63
f 63 98 99
f 100 63 99
f 65 63 100
f 59 65 95
f 95 65 100
f 96 97 101
f 101 97 102
f 101 67 62
f 101 62 96
f 104 103 98
f 64 104 98
f 68 104 64
f 98 103 99
f 102 105 101
f 105 107 106
f 105 106 69
f 101 105 69
f 67 101 69
f 108 70 69
f 108 69 106
f 109 71 70
f 109 70 108
f 109 110 71
f 110 68 71
f 110 104 68
f 107 111 106
f 106 111 108
f 108 111 112
f 108 112 109
f 109 112 113
f 109 113 110
f 115 114 74
f 74 114 73
f 116 74 75
f 116 115 74
f 118 117 77
f 117 75 77
f 117 116 75
f 118 119 117
f 121 120 80
f 80 120 79
f 80 73 114
f 80 114 121
f 81 122 118
f 81 118 77
f 119 118 123
f 118 124 123
f 118 122 124
f 126 125 124
f 124 125 123
f 126 127 125
f 130 129 128
f 120 130 128
f 83 120 128
f 79 120 83
f 84 122 81
f 122 84 85
f 122 85 124
f 124 85 86
f 124 86 126
f 86 88 126
f 88 127 126
f 88 131 127
f 128 129 91
f 129 90 91
f 129 132 90
f 128 91 83
f 93 133 92
f 133 134 92
f 134 88 92
f 134 131 88
f 137 136 135
f 132 137 135
f 94 132 135
f 90 132 94
f 139 138 133
f 93 139 133
f 95 139 93
f 133 138 134
f 135 136 140
f 140 136 141
f 140 97 94
f 140 94 135
f 99 142 100
f 139 95 143
f 95 142 143
f 142 144 143
f 95 100 142
f 144 145 143
f 140 141 146
f 146 141 147
f 146 102 97
f 146 97 140
f 104 148 103
f 142 99 103
f 148 142 103
f 149 142 148
f 151 144 150
f 144 149 150
f 144 142 149
f 144 151 145
f 147 152 146
f 152 154 153
f 152 153 105
f 146 152 105
f 102 146 105
f 153 107 105
f 156 155 148
f 104 156 148
f 110 156 104
f 148 155 149
f 149 155 157
f 149 157 150
f 154 158 153
f 158 160 159
f 158 159 111
f 153 158 111
f 107 153 111
f 161 112 111
f 161 111 159
f 112 161 162
f 163 112 162
f 113 112 163
f 110 113 156
f 156 113 163
f 159 160 164
f 164 160 165
f 159 166 161
f 159 164 166
f 162 161 167
f 167 161 166
f 165 168 164
f 164 168 166
f 166 168 169
f 166 169 167
f 170 114 115
f 116 171 115
f 115 171 170
f 117 172 116
f 116 172 171
f 119 172 117
f 175 174 173
f 120 121 173
f 121 175 173
f 121 176 175
f 121 114 170
f 177 121 170
f 176 121 177
f 179 178 177
f 170 179 177
f 171 179 170
f 180 171 172
f 179 171 180
f 180 172 119
f 181 180 119
f 123 181 119
f 182 180 181
f 184 181 183
f 181 125 183
f 181 123 125
f 127 183 125
f 187 186 185
f 187 185 174
f 174 185 173
f 185 129 173
f 129 130 173
f 173 130 120
f 188 178 179
f 188 179 180
f 188 180 189
f 189 180 182
f 190 184 183
f 183 127 190
f 127 191 190
f 127 131 191
f 185 186 192
f 192 186 193
f 192 132 129
f 192 129 185
f 134 195 194
f 191 134 194
f 131 134 191
f 195 196 194
f 199 198 197
f 199 197 193
f 193 197 192
f 197 136 192
f 136 137 192
f 192 137 132
f 139 200 138
f 195 134 138
f 200 195 138
f 201 195 200
f 196 195 202
f 202 195 201
f 197 198 203
f 203 198 204
f 203 141 136
f 203 136 197
f 143 200 139
f 201 200 205
f 200 145 205
f 145 206 205
f 145 200 143
f 201 205 202
f 204 207 203
f 141 203 207
f 208 141 207
f 147 141 208
f 150 209 151
f 209 210 151
f 210 145 151
f 210 206 145
f 152 147 211
f 147 212 211
f 147 208 212
f 211 154 152
f 214 213 155
f 214 155 156
f 155 215 157
f 213 215 155
f 157 215 150
f 215 216 150
f 216 209 150
f 216 215 217
f 210 209 218
f 218 209 216
f 212 219 211
f 219 221 220
f 219 220 158
f 211 219 158
f 154 211 158
f 220 160 158
f 223 222 163
f 223 163 162
f 156 163 214
f 214 163 222
f 217 224 216
f 227 226 225
f 216 224 218
f 229 228 226
f 226 228 225
f 229 230 228
f 221 231 220
f 160 220 231
f 232 160 231
f 165 160 232
f 167 223 162
f 167 233 223
f 236 235 234
f 237 226 227
f 234 238 236
f 226 237 229
f 229 237 239
f 229 239 230
f 168 165 240
f 165 241 240
f 165 232 241
f 168 240 242
f 243 168 242
f 169 168 243
f 167 169 233
f 233 169 243
f 235 244 234
f 234 244 238
f 247 246 245
f 245 248 247
f 241 249 240
f 240 249 242
f 245 246 250
f 250 246 251
f 248 245 252
f 245 253 252
f 245 250 253
f 253 254 252
f 250 251 255
f 255 251 256
f 250 257 253
f 250 255 257
f 254 253 258
f 258 253 257
f 255 256 259
f 259 256 260
f 262 257 261
f 257 259 261
f 257 255 259
f 257 262 258
f 260 263 259
f 259 263 261
f 265 264 175
f 175 264 174
f 266 175 176
f 266 265 175
f 267 176 177
f 267 266 176
f 177 178 267
f 267 178 268
f 270 269 181
f 181 269 182
f 181 184 270
f 270 184 271
f 273 272 187
f 187 272 186
f 187 174 264
f 187 264 273
f 178 188 274
f 275 178 274
f 268 178 275
f 189 276 188
f 188 276 274
f 277 276 189
f 182 277 189
f 269 277 182
f 278 271 184
f 278 184 190
f 190 191 278
f 278 191 279
f 282 281 280
f 272 282 280
f 193 272 280
f 186 272 193
f 283 275 274
f 283 274 276
f 283 276 284
f 284 276 277
f 191 194 285
f 286 191 285
f 279 191 286
f 196 285 194
f 289 288 287
f 289 287 281
f 281 287 280
f 287 198 280
f 198 199 280
f 280 199 193
f 290 286 285
f 285 196 290
f 196 291 290
f 196 202 291
f 288 292 287
f 198 287 292
f 293 198 292
f 204 198 293
f 206 294 205
f 294 295 205
f 295 202 205
f 295 291 202
f 207 204 296
f 204 297 296
f 204 293 297
f 296 208 207
f 299 298 294
f 206 299 294
f 210 299 206
f 294 298 295
f 296 297 300
f 300 297 301
f 300 212 208
f 300 208 296
f 214 302 213
f 303 215 213
f 303 213 302
f 303 217 215
f 218 305 304
f 299 218 304
f 210 218 299
f 307 306 305
f 305 306 304
f 307 308 306
f 301 309 300
f 309 311 310
f 309 310 219
f 300 309 219
f 212 300 219
f 310 221 219
f 223 312 222
f 312 313 222
f 222 313 214
f 313 314 214
f 314 302 214
f 302 314 303
f 303 314 315
f 303 315 217
f 315 224 217
f 315 316 224
f 316 218 224
f 218 316 305
f 317 305 316
f 305 317 225
f 227 225 317
f 305 225 228
f 305 228 307
f 228 230 307
f 230 308 307
f 230 318 308
f 310 311 319
f 319 311 320
f 321 231 221
f 310 321 221
f 319 321 310
f 321 232 231
f 323 322 312
f 223 323 312
f 233 323 223
f 312 322 313
f 326 325 324
f 235 236 324
f 236 326 324
f 236 327 326
f 317 237 227
f 237 317 328
f 327 328 317
f 328 327 238
f 236 238 327
f 329 239 237
f 329 237 328
f 318 230 330
f 230 329 330
f 329 331 330
f 230 239 329
f 331 332 330
f 319 320 333
f 333 320 334
f 319 335 321
f 319 333 335
f 232 336 241
f 336 232 337
f 321 337 232
f 337 321 338
f 335 338 321
f 243 242 336
f 337 243 336
f 339 243 337
f 233 243 323
f 323 243 339
f 325 340 324
f 340 342 341
f 340 341 244
f 324 340 244
f 235 324 244
f 328 238 244
f 341 328 244
f 343 328 341
f 328 344 329
f 328 343 344
f 346 331 345
f 331 344 345
f 331 329 344
f 331 346 332
f 349 348 347
f 351 350 347
f 347 350 349
f 350 351 334
f 334 351 333
f 351 246 333
f 246 247 333
f 333 247 248
f 352 333 248
f 335 333 352
f 249 241 336
f 353 338 352
f 335 352 338
f 249 336 242
f 342 354 341
f 341 354 343
f 343 354 355
f 343 355 344
f 344 355 356
f 344 356 345
f 347 348 357
f 357 348 358
f 347 359 351
f 347 357 359
f 359 251 246
f 359 246 351
f 252 352 248
f 252 254 352
f 254 353 352
f 254 360 353
f 358 361 357
f 363 362 361
f 362 357 361
f 362 359 357
f 362 256 251
f 362 251 359
f 258 360 254
f 258 364 360
f 363 365 362
f 256 362 365
f 366 256 365
f 260 256 366
f 368 367 262
f 368 262 261
f 258 262 364
f 364 262 367
f 366 369 260
f 260 369 263
f 261 263 368
f 368 263 369
f 372 371 370
f 374 373 370
f 370 373 372
f 374 375 373
f 378 377 376
f 376 379 378
f 382 381 380
f 264 265 380
f 265 382 380
f 265 383 382
f 266 370 371
f 383 266 371
f 265 266 383
f 370 266 267
f 370 267 374
f 385 384 268
f 268 384 267
f 384 375 267
f 375 374 267
f 385 386 384
f 376 377 270
f 377 269 270
f 377 387 269
f 270 271 376
f 271 379 376
f 271 388 379
f 391 390 389
f 391 389 381
f 381 389 380
f 389 272 380
f 272 273 380
f 380 273 264
f 275 392 385
f 275 385 268
f 386 385 393
f 393 385 392
f 387 277 269
f 394 277 387
f 395 388 271
f 395 271 278
f 278 279 395
f 395 279 396
f 399 398 397
f 399 397 390
f 390 397 389
f 397 281 389
f 281 282 389
f 389 282 272
f 283 392 275
f 400 393 392
f 283 400 392
f 284 400 283
f 284 277 394
f 284 394 400
f 286 396 279
f 286 401 396
f 397 398 289
f 398 288 289
f 398 402 288
f 397 289 281
f 286 290 403
f 404 286 403
f 401 286 404
f 291 403 290
f 292 288 405
f 288 406 405
f 288 402 406
f 405 293 292
f 409 408 407
f 407 408 404
f 403 407 404
f 410 407 403
f 295 410 291
f 291 410 403
f 405 406 411
f 411 406 412
f 411 297 293
f 411 293 405
f 413 409 407
f 413 415 414
f 415 413 299
f 407 299 413
f 299 407 298
f 410 298 407
f 410 295 298
f 416 414 415
f 412 417 411
f 297 411 417
f 418 297 417
f 301 297 418
f 304 415 299
f 419 416 415
f 304 419 415
f 306 419 304
f 306 308 419
f 419 308 420
f 418 421 301
f 301 421 309
f 311 309 421
f 311 421 422
f 313 423 314
f 424 315 314
f 424 314 423
f 425 316 315
f 425 315 424
f 425 317 316
f 318 420 308
f 318 426 420
f 422 320 311
f 427 320 422
f 429 428 322
f 429 322 323
f 313 322 423
f 322 430 423
f 322 428 430
f 325 326 431
f 430 432 423
f 424 423 432
f 327 431 326
f 431 327 433
f 425 433 327
f 433 425 432
f 424 432 425
f 425 327 317
f 434 426 318
f 434 318 330
f 330 332 434
f 434 332 435
f 438 437 436
f 427 438 436
f 334 427 436
f 320 427 334
f 440 439 337
f 440 337 338
f 337 441 339
f 439 441 337
f 323 339 429
f 429 339 441
f 431 340 325
f 342 340 431
f 433 342 431
f 442 342 433
f 345 443 346
f 443 444 346
f 444 332 346
f 444 435 332
f 446 445 349
f 349 445 348
f 350 436 437
f 446 350 437
f 349 350 446
f 436 350 334
f 353 440 338
f 353 447 440
f 442 448 342
f 342 448 354
f 448 450 449
f 355 448 449
f 354 448 355
f 451 356 355
f 451 355 449
f 451 452 356
f 356 452 345
f 452 453 345
f 453 443 345
f 443 453 444
f 445 358 348
f 454 358 445
f 360 447 353
f 360 455 447
f 450 456 449
f 449 456 451
f 451 456 457
f 451 457 452
f 361 358 458
f 358 459 458
f 358 454 459
f 458 363 361
f 364 455 360
f 364 460 455
f 459 461 458
f 461 463 462
f 461 462 365
f 458 461 365
f 363 458 365
f 462 366 365
f 368 464 367
f 464 465 367
f 465 364 367
f 465 460 364
f 463 466 462
f 462 466 366
f 466 369 366
f 466 467 369
f 368 369 464
f 369 468 464
f 369 467 468
f 464 468 465
f 471 470 469
f 371 372 469
f 372 471 469
f 372 472 471
f 474 472 473
f 472 373 473
f 472 372 373
f 476 473 475
f 473 373 475
f 375 477 475
f 375 475 373
f 479 478 477
f 477 478 475
f 377 378 479
f 378 478 479
f 378 480 478
f 378 379 480
f 480 379 481
f 483 482 382
f 382 482 381
f 383 469 470
f 483 383 470
f 382 383 483
f 469 383 371
f 484 474 473
f 375 384 477
f 473 476 484
f 477 384 386
f 485 477 386
f 479 477 485
f 485 387 377
f 485 377 479
f 388 481 379
f 388 486 481
f 488 487 391
f 391 487 390
f 391 381 482
f 391 482 488
f 393 489 485
f 393 485 386
f 489 394 387
f 489 387 485
f 490 486 388
f 490 388 395
f 395 396 490
f 490 396 491
f 493 492 399
f 399 492 398
f 399 390 487
f 399 487 493
f 400 489 393
f 489 400 394
f 401 491 396
f 401 494 491
f 492 402 398
f 495 402 492
f 404 494 401
f 404 496 494
f 495 406 402
f 497 406 495
f 499 498 408
f 499 408 409
f 404 408 496
f 496 408 498
f 497 412 406
f 500 412 497
f 409 413 501
f 502 409 501
f 499 409 502
f 414 503 413
f 413 503 501
f 416 503 414
f 417 412 504
f 412 505 504
f 412 500 505
f 504 418 417
f 506 502 501
f 508 507 506
f 501 508 506
f 503 508 501
f 419 509 416
f 509 503 416
f 509 508 503
f 420 509 419
f 505 510 504
f 510 512 511
f 510 511 421
f 504 510 421
f 418 504 421
f 511 422 421
f 515 514 513
f 507 508 516
f 514 517 513
f 516 508 509
f 516 509 518
f 420 426 509
f 426 519 509
f 519 518 509
f 519 426 520
f 520 521 519
f 512 522 511
f 422 511 522
f 523 422 522
f 427 422 523
f 526 525 524
f 527 524 525
f 429 528 428
f 529 430 428
f 529 428 528
f 530 432 430
f 530 430 529
f 530 515 432
f 515 530 531
f 433 531 530
f 531 433 513
f 432 513 433
f 513 432 515
f 531 513 517
f 434 520 426
f 434 435 520
f 435 521 520
f 435 532 521
f 534 533 438
f 438 533 437
f 438 427 523
f 438 523 534
f 537 536 535
f 535 536 526
f 535 526 524
f 440 535 524
f 439 440 524
f 527 538 524
f 538 439 524
f 538 441 439
f 429 441 528
f 441 539 528
f 441 538 539
f 528 539 529
f 529 539 540
f 529 540 530
f 530 540 541
f 433 530 541
f 542 433 541
f 442 433 542
f 444 544 543
f 532 444 543
f 435 444 532
f 544 545 543
f 547 546 446
f 446 546 445
f 446 437 533
f 446 533 547
f 537 535 548
f 537 548 549
f 447 548 440
f 440 548 535
f 542 550 442
f 442 550 448
f 450 448 550
f 450 550 551
f 452 552 453
f 544 444 453
f 552 544 453
f 553 544 552
f 545 544 554
f 554 544 553
f 546 454 445
f 555 454 546
f 556 549 548
f 548 447 556
f 447 557 556
f 447 455 557
f 551 558 450
f 450 558 456
f 456 559 457
f 558 559 456
f 452 457 552
f 457 560 552
f 457 559 560
f 552 560 553
f 553 560 561
f 553 561 554
f 555 459 454
f 562 459 555
f 460 557 455
f 460 563 557
f 461 459 564
f 459 565 564
f 459 562 565
f 564 463 461
f 465 567 566
f 563 465 566
f 460 465 563
f 567 568 566
f 564 565 569
f 569 565 570
f 564 569 463
f 569 571 463
f 571 466 463
f 569 572 571
f 466 573 467
f 571 573 466
f 467 574 468
f 573 574 467
f 465 468 567
f 468 575 567
f 468 574 575
f 567 575 568
f 570 576 569
f 569 576 572
f 577 470 471
f 472 578 471
f 471 578 577
f 580 578 579
f 578 472 579
f 474 581 579
f 474 579 472
f 476 475 581
f 475 579 581
f 475 582 579
f 583 475 478
f 583 582 475
f 584 478 480
f 584 583 478
f 586 585 481
f 585 480 481
f 585 584 480
f 586 587 585
f 590 589 588
f 482 483 588
f 483 590 588
f 483 591 590
f 483 470 577
f 592 483 577
f 591 483 592
f 592 577 578
f 592 578 593
f 474 484 581
f 578 580 593
f 581 484 476
f 486 594 586
f 486 586 481
f 587 586 595
f 595 586 594
f 588 589 488
f 589 487 488
f 589 596 487
f 588 488 482
f 490 594 486
f 490 491 594
f 491 595 594
f 491 597 595
f 599 598 493
f 493 598 492
f 493 487 596
f 493 596 599
f 602 601 600
f 604 603 600
f 604 600 601
f 604 597 603
f 597 494 603
f 597 491 494
f 607 606 605
f 598 607 605
f 495 598 605
f 492 598 495
f 602 600 608
f 602 608 609
f 610 600 603
f 608 600 610
f 496 610 494
f 494 610 603
f 605 606 611
f 611 606 612
f 611 497 495
f 611 495 605
f 609 608 613
f 609 613 614
f 499 613 498
f 613 610 498
f 613 608 610
f 498 610 496
f 612 615 611
f 497 611 615
f 616 497 615
f 500 497 616
f 614 613 617
f 614 617 618
f 502 617 499
f 499 617 613
f 616 505 500
f 619 505 616
f 620 618 617
f 622 620 621
f 621 620 506
f 620 617 506
f 617 502 506
f 507 621 506
f 510 505 623
f 505 624 623
f 505 619 624
f 623 512 510
f 622 621 514
f 515 622 514
f 625 622 515
f 517 514 626
f 514 621 626
f 507 516 626
f 507 626 621
f 626 516 627
f 516 628 627
f 516 518 628
f 629 518 519
f 629 628 518
f 519 521 629
f 629 521 630
f 624 631 623
f 631 633 632
f 631 632 522
f 623 631 522
f 512 623 522
f 632 523 522
f 635 634 525
f 635 525 526
f 527 525 634
f 527 634 636
f 639 638 637
f 641 640 637
f 641 637 638
f 642 640 531
f 640 625 531
f 625 515 531
f 625 640 641
f 643 642 531
f 643 531 517
f 644 643 517
f 626 644 517
f 644 626 627
f 532 630 521
f 532 645 630
f 632 633 534
f 633 533 534
f 633 646 533
f 632 534 523
f 648 647 536
f 648 536 537
f 526 536 635
f 635 536 647
f 636 649 527
f 527 649 538
f 538 650 539
f 649 650 538
f 637 540 639
f 540 650 639
f 540 539 650
f 540 637 541
f 541 637 640
f 541 640 542
f 640 651 542
f 640 642 651
f 642 643 652
f 642 652 651
f 653 645 532
f 653 532 543
f 543 545 653
f 653 545 654
f 655 546 547
f 656 655 547
f 533 656 547
f 646 656 533
f 549 658 657
f 648 549 657
f 537 549 648
f 658 659 657
f 651 550 542
f 551 550 651
f 652 551 651
f 660 551 652
f 554 662 661
f 654 554 661
f 545 554 654
f 662 663 661
f 664 555 655
f 655 555 546
f 655 656 665
f 655 665 664
f 556 658 549
f 556 557 658
f 557 659 658
f 557 666 659
f 660 667 551
f 551 667 558
f 558 668 559
f 667 668 558
f 559 669 560
f 668 669 559
f 669 671 670
f 561 669 670
f 560 669 561
f 662 554 561
f 670 662 561
f 672 662 670
f 663 662 673
f 673 662 672
f 675 674 664
f 674 555 664
f 674 562 555
f 675 664 665
f 563 666 557
f 563 676 666
f 671 677 670
f 670 677 672
f 672 677 678
f 672 678 673
f 674 565 562
f 679 565 674
f 680 676 563
f 680 563 566
f 566 568 680
f 680 568 681
f 679 570 565
f 682 570 679
f 572 683 571
f 571 683 684
f 685 571 684
f 573 571 685
f 573 686 574
f 685 686 573
f 574 687 575
f 686 687 574
f 568 575 681
f 681 575 687
f 682 688 570
f 570 688 576
f 572 576 683
f 576 689 683
f 576 688 689
f 683 689 684
f 690 580 579
f 582 691 579
f 579 691 690
f 583 692 582
f 582 692 691
f 584 693 583
f 583 693 692
f 585 694 584
f 584 694 693
f 587 694 585
f 695 589 590
f 591 696 590
f 590 696 695
f 696 591 697
f 591 698 697
f 591 592 698
f 699 592 593
f 699 698 592
f 699 593 580
f 700 699 580
f 690 700 580
f 699 700 701
f 702 690 691
f 700 690 702
f 703 691 692
f 702 691 703
f 704 692 693
f 703 692 704
f 705 693 694
f 704 693 705
f 595 705 587
f 587 705 694
f 707 706 695
f 706 589 695
f 706 596 589
f 707 695 696
f 707 696 708
f 708 696 697
f 701 700 709
f 701 709 710
f 711 700 702
f 709 700 711
f 712 702 703
f 711 702 712
f 713 703 704
f 712 703 713
f 714 704 705
f 713 704 714
f 597 714 595
f 595 714 705
f 716 715 599
f 599 715 598
f 599 596 706
f 599 706 716
f 710 709 717
f 710 717 718
f 719 709 711
f 717 709 719
f 720 711 712
f 719 711 720
f 602 720 601
f 720 713 601
f 720 712 713
f 601 713 604
f 604 713 714
f 604 714 597
f 722 721 607
f 607 721 606
f 607 598 715
f 607 715 722
f 718 717 723
f 718 723 724
f 725 717 719
f 723 717 725
f 726 719 720
f 725 719 726
f 609 726 602
f 602 726 720
f 721 612 606
f 727 612 721
f 728 724 723
f 728 723 725
f 728 725 729
f 729 725 726
f 729 726 730
f 726 609 730
f 609 731 730
f 609 614 731
f 615 612 732
f 612 733 732
f 612 727 733
f 732 616 615
f 618 731 614
f 618 734 731
f 733 735 732
f 616 732 735
f 736 616 735
f 619 616 736
f 618 620 737
f 738 618 737
f 734 618 738
f 622 737 620
f 736 624 619
f 739 624 736
f 738 737 740
f 738 740 741
f 625 740 622
f 622 740 737
f 742 627 628
f 629 743 628
f 628 743 742
f 630 743 629
f 739 744 624
f 624 744 631
f 633 631 744
f 633 744 745
f 635 746 634
f 746 636 634
f 748 747 638
f 748 638 639
f 740 641 741
f 641 747 741
f 641 638 747
f 641 740 625
f 749 643 644
f 627 742 644
f 742 749 644
f 742 750 749
f 743 752 751
f 750 743 751
f 742 743 750
f 630 645 743
f 645 753 743
f 753 752 743
f 753 645 754
f 754 755 753
f 757 646 756
f 646 745 756
f 646 633 745
f 758 757 756
f 648 759 647
f 759 760 647
f 647 760 635
f 760 761 635
f 761 746 635
f 746 761 636
f 761 649 636
f 761 762 649
f 649 763 650
f 762 763 649
f 639 650 748
f 748 650 763
f 765 764 749
f 764 643 749
f 764 652 643
f 765 749 750
f 765 750 766
f 766 750 751
f 653 754 645
f 653 654 754
f 654 755 754
f 654 767 755
f 769 768 757
f 768 646 757
f 768 656 646
f 769 757 758
f 657 759 648
f 657 659 759
f 659 760 759
f 659 770 760
f 764 660 652
f 771 660 764
f 772 767 654
f 772 654 661
f 661 663 772
f 772 663 773
f 776 775 774
f 768 776 774
f 665 768 774
f 656 768 665
f 666 770 659
f 666 777 770
f 771 778 660
f 660 778 667
f 667 779 668
f 778 779 667
f 779 781 780
f 669 779 780
f 668 779 669
f 780 671 669
f 673 773 663
f 673 782 773
f 774 775 675
f 775 674 675
f 775 783 674
f 774 675 665
f 676 785 784
f 777 676 784
f 666 676 777
f 785 786 784
f 781 787 780
f 780 787 671
f 787 677 671
f 787 788 677
f 677 789 678
f 788 789 677
f 673 678 782
f 782 678 789
f 783 679 674
f 790 679 783
f 792 680 791
f 792 676 680
f 785 676 792
f 785 792 793
f 793 786 785
f 681 791 680
f 790 682 679
f 794 682 790
f 796 795 685
f 796 685 684
f 685 797 686
f 795 797 685
f 791 687 792
f 687 797 792
f 687 686 797
f 687 791 681
f 794 798 682
f 682 798 688
f 688 799 689
f 798 799 688
f 684 689 796
f 796 689 799
f 801 800 698
f 698 800 697
f 803 801 802
f 801 699 802
f 801 698 699
f 701 802 699
f 804 706 707
f 804 707 805
f 707 806 805
f 707 708 806
f 708 697 800
f 708 800 806
f 803 802 807
f 803 807 808
f 710 807 701
f 701 807 802
f 809 715 716
f 810 809 716
f 810 716 706
f 811 810 706
f 804 811 706
f 811 804 805
f 808 807 812
f 808 812 813
f 718 812 710
f 710 812 807
f 814 721 722
f 715 809 722
f 809 814 722
f 809 815 814
f 809 810 816
f 809 816 815
f 817 813 812
f 812 718 817
f 718 818 817
f 718 724 818
f 819 727 814
f 814 727 721
f 815 821 820
f 819 815 820
f 814 815 819
f 821 815 816
f 822 818 724
f 822 724 728
f 823 728 729
f 823 822 728
f 825 823 824
f 823 730 824
f 823 729 730
f 731 824 730
f 826 733 819
f 819 733 727
f 819 820 827
f 819 827 826
f 825 824 828
f 825 828 829
f 734 828 731
f 731 828 824
f 826 735 733
f 736 735 826
f 827 736 826
f 830 736 827
f 831 829 828
f 828 734 831
f 734 832 831
f 734 738 832
f 834 739 833
f 739 830 833
f 739 736 830
f 835 834 833
f 741 832 738
f 741 836 832
f 834 744 739
f 838 837 745
f 838 745 744
f 835 838 744
f 834 835 744
f 840 839 837
f 840 837 838
f 842 841 839
f 842 839 840
f 843 841 842
f 845 844 747
f 845 747 748
f 741 747 836
f 836 747 844
f 846 751 752
f 753 847 752
f 752 847 846
f 755 847 753
f 837 756 745
f 756 837 758
f 837 848 758
f 837 839 848
f 841 850 849
f 848 841 849
f 839 841 848
f 841 843 850
f 760 851 761
f 852 761 851
f 761 853 762
f 852 853 761
f 762 854 763
f 853 854 762
f 748 763 845
f 845 763 854
f 855 764 765
f 766 856 765
f 765 856 855
f 751 846 766
f 846 856 766
f 846 857 856
f 858 846 847
f 857 846 858
f 767 858 755
f 755 858 847
f 860 859 769
f 769 859 768
f 769 758 848
f 861 769 848
f 860 769 861
f 861 848 849
f 770 851 760
f 770 862 851
f 864 863 855
f 863 764 855
f 863 771 764
f 864 855 856
f 864 856 865
f 865 856 857
f 865 857 866
f 866 857 858
f 866 858 867
f 869 867 868
f 868 867 772
f 867 858 772
f 858 767 772
f 773 868 772
f 871 870 776
f 776 870 775
f 776 768 859
f 776 859 871
f 777 862 770
f 777 872 862
f 863 873 771
f 771 873 778
f 873 875 874
f 779 873 874
f 778 873 779
f 874 781 779
f 869 868 876
f 869 876 877
f 782 876 773
f 773 876 868
f 870 783 775
f 878 783 870
f 777 784 879
f 880 777 879
f 872 777 880
f 786 879 784
f 875 881 874
f 874 881 781
f 881 787 781
f 881 882 787
f 787 883 788
f 882 883 787
f 876 789 877
f 789 883 877
f 789 788 883
f 789 876 782
f 885 790 884
f 790 878 884
f 790 783 878
f 886 885 884
f 880 879 793
f 792 880 793
f 887 880 792
f 793 879 786
f 888 794 885
f 885 794 790
f 885 886 889
f 890 885 889
f 888 885 890
f 795 796 890
f 889 795 890
f 891 795 889
f 795 892 797
f 891 892 795
f 792 797 887
f 887 797 892
f 888 798 794
f 798 888 799
f 799 888 890
f 799 890 796
f 893 800 801
f 803 893 801
f 894 805 806
f 895 894 806
f 895 806 800
f 896 895 800
f 893 896 800
f 893 803 896
f 803 897 896
f 803 808 897
f 899 898 811
f 811 898 810
f 811 805 894
f 900 811 894
f 899 811 900
f 900 894 895
f 813 897 808
f 813 901 897
f 898 816 810
f 902 816 898
f 903 901 813
f 903 813 817
f 905 904 818
f 904 817 818
f 904 903 817
f 905 906 904
f 907 820 821
f 908 907 821
f 816 908 821
f 902 908 816
f 822 905 818
f 909 906 905
f 822 909 905
f 823 909 822
f 823 825 909
f 909 825 910
f 911 827 907
f 907 827 820
f 907 908 912
f 907 912 911
f 829 910 825
f 829 913 910
f 914 830 911
f 911 830 827
f 911 912 915
f 911 915 914
f 916 913 829
f 916 829 831
f 831 832 916
f 916 832 917
f 914 833 830
f 919 918 835
f 919 835 833
f 915 919 833
f 914 915 833
f 921 920 918
f 921 918 919
f 923 922 920
f 923 920 921
f 924 922 923
f 836 926 925
f 917 836 925
f 832 836 917
f 926 927 925
f 918 838 835
f 838 918 840
f 840 918 920
f 840 920 842
f 842 920 922
f 843 842 922
f 924 843 922
f 928 843 924
f 845 929 844
f 929 930 844
f 844 930 836
f 930 931 836
f 931 926 836
f 926 931 927
f 932 849 850
f 933 852 851
f 933 851 932
f 933 932 850
f 933 850 843
f 933 843 928
f 933 928 934
f 933 934 935
f 933 935 852
f 852 935 936
f 937 852 936
f 853 852 937
f 853 938 854
f 937 938 853
f 845 854 929
f 854 939 929
f 854 938 939
f 929 939 930
f 941 940 860
f 860 940 859
f 942 860 861
f 942 941 860
f 861 849 932
f 943 861 932
f 942 861 943
f 862 932 851
f 932 862 943
f 944 943 862
f 943 944 934
f 935 934 944
f 936 935 945
f 945 935 944
f 946 863 864
f 946 864 947
f 864 948 947
f 864 865 948
f 949 865 866
f 949 948 865
f 951 949 950
f 949 867 950
f 949 866 867
f 869 950 867
f 953 952 871
f 871 952 870
f 871 859 940
f 871 940 953
f 955 954 944
f 862 955 944
f 872 955 862
f 944 954 945
f 946 873 863
f 875 873 946
f 947 875 946
f 956 875 947
f 957 951 950
f 950 869 957
f 869 958 957
f 869 877 958
f 960 878 959
f 878 952 959
f 878 870 952
f 961 960 959
f 880 955 872
f 880 962 955
f 956 963 875
f 875 963 881
f 881 964 882
f 963 964 881
f 882 965 883
f 964 965 882
f 877 883 958
f 958 883 965
f 960 884 878
f 886 884 960
f 961 886 960
f 966 886 961
f 969 968 967
f 968 962 967
f 962 887 967
f 962 880 887
f 966 970 886
f 886 970 889
f 889 971 891
f 970 971 889
f 967 892 969
f 892 971 969
f 892 891 971
f 892 967 887
f 972 895 896
f 897 972 896
f 974 973 899
f 899 973 898
f 975 899 900
f 975 974 899
f 900 895 972
f 976 900 972
f 975 900 976
f 972 897 976
f 897 977 976
f 897 901 977
f 973 902 898
f 978 902 973
f 901 903 979
f 980 901 979
f 977 901 980
f 979 903 981
f 903 982 981
f 903 904 982
f 904 906 982
f 982 906 983
f 978 908 902
f 984 908 978
f 985 980 979
f 985 979 981
f 986 983 906
f 986 906 909
f 909 910 986
f 986 910 987
f 989 912 988
f 912 984 988
f 912 908 984
f 990 989 988
f 913 992 991
f 987 913 991
f 910 913 987
f 992 993 991
f 994 915 989
f 989 915 912
f 989 990 995
f 989 995 994
f 916 992 913
f 916 917 992
f 917 993 992
f 917 996 993
f 994 919 915
f 995 997 994
f 997 919 994
f 997 921 919
f 997 999 998
f 923 997 998
f 921 997 923
f 998 924 923
f 1000 996 917
f 1000 917 925
f 925 927 1000
f 1000 927 1001
f 999 1002 998
f 928 924 998
f 1003 928 998
f 1002 1003 998
f 928 1003 1004
f 1005 1004 1003
f 930 1006 931
f 1006 1007 931
f 1007 927 931
f 1007 1001 927
f 1008 934 1004
f 1004 934 928
f 1009 937 936
f 1004 1009 936
f 1008 1004 936
f 1009 1004 1005
f 937 1010 938
f 1009 1010 937
f 938 1011 939
f 1010 1011 938
f 930 939 1006
f 939 1012 1006
f 939 1011 1012
f 1006 1012 1007
f 1013 940 941
f 1013 941 1014
f 941 1015 1014
f 941 942 1015
f 1016 942 943
f 1016 1015 942
f 943 934 1008
f 1017 943 1008
f 1016 943 1017
f 1008 936 1017
f 936 1018 1017
f 936 945 1018
f 1020 1019 948
f 948 1019 947
f 1021 948 949
f 1021 1020 948
f 1023 1022 951
f 1022 949 951
f 1022 1021 949
f 1023 1024 1022
f 1026 1025 953
f 953 1025 952
f 953 940 1013
f 1027 953 1013
f 1026 953 1027
f 1027 1013 1014
f 955 1028 954
f 1028 1029 954
f 1029 945 954
f 1029 1018 945
f 1019 956 947
f 1030 956 1019
f 957 1023 951
f 957 958 1023
f 958 1024 1023
f 958 1031 1024
f 1025 1032 952
f 952 1032 959
f 961 959 1032
f 961 1032 1033
f 962 1034 1028
f 962 1028 955
f 1029 1028 1035
f 1035 1028 1034
f 1030 1036 956
f 956 1036 963
f 963 1037 964
f 1036 1037 963
f 964 1038 965
f 1037 1038 964
f 958 965 1031
f 1031 965 1038
f 1040 966 1039
f 966 1033 1039
f 966 961 1033
f 1042 1041 1040
f 1042 1040 1039
f 968 969 1041
f 1042 968 1041
f 1043 968 1042
f 962 968 1034
f 968 1044 1034
f 968 1043 1044
f 1034 1044 1035
f 1040 970 966
f 970 1040 971
f 971 1040 1041
f 971 1041 969
f 1045 973 974
f 1045 974 1046
f 974 1047 1046
f 974 975 1047
f 1049 1047 1048
f 1047 976 1048
f 1047 975 976
f 977 1048 976
f 1051 1050 1045
f 1050 973 1045
f 1050 978 973
f 1051 1045 1046
f 1052 1049 1048
f 1048 977 1052
f 977 1053 1052
f 977 980 1053
f 1054 981 982
f 983 1054 982
f 1050 984 978
f 1055 984 1050
f 1056 1053 980
f 1056 980 985
f 985 981 1054
f 1057 985 1054
f 1056 985 1057
f 1059 1057 1058
f 1058 1057 986
f 1057 1054 986
f 1054 983 986
f 987 1058 986
f 988 984 1060
f 984 1061 1060
f 984 1055 1061
f 1060 990 988
f 1062 1059 1058
f 1064 1062 1063
f 1063 1062 991
f 1062 1058 991
f 1058 987 991
f 993 1063 991
f 1061 1065 1060
f 995 990 1060
f 1066 995 1060
f 1065 1066 1060
f 995 1066 1067
f 1068 1067 1066
f 1064 1063 1069
f 1064 1069 1070
f 996 1069 993
f 993 1069 1063
f 1067 997 995
f 999 997 1067
f 1068 999 1067
f 1071 999 1068
f 1072 1070 1069
f 1072 1069 996
f 1000 1072 996
f 1073 1072 1000
f 1000 1001 1073
f 1073 1001 1074
f 1071 1075 999
f 999 1075 1002
f 1002 1076 1003
f 1075 1076 1002
f 1078 1077 1005
f 1003 1078 1005
f 1076 1078 1003
f 1080 1079 1077
f 1080 1077 1078
f 1082 1081 1079
f 1082 1079 1080
f 1084 1083 1081
f 1084 1081 1082
f 1084 1074 1083
f 1074 1007 1083
f 1074 1001 1007
f 1077 1009 1005
f 1009 1077 1010
f 1010 1077 1079
f 1010 1079 1011
f 1011 1079 1081
f 1011 1081 1012
f 1012 1081 1083
f 1012 1083 1007
f 1085 1014 1015
f 1016 1086 1015
f 1015 1086 1085
f 1017 1087 1016
f 1016 1087 1086
f 1018 1087 1017
f 1088 1019 1020
f 1021 1089 1020
f 1020 1089 1088
f 1022 1090 1021
f 1021 1090 1089
f 1024 1090 1022
f 1091 1025 1026
f 1091 1026 1092
f 1026 1093 1092
f 1026 1027 1093
f 1027 1014 1085
f 1094 1027 1085
f 1093 1027 1094
f 1094 1085 1086
f 1094 1086 1095
f 1095 1086 1087
f 1095 1087 1096
f 1018 1029 1087
f 1029 1097 1087
f 1097 1096 1087
f 1097 1029 1098
f 1098 1099 1097
f 1102 1101 1100
f 1103 1102 1088
f 1102 1030 1088
f 1030 1019 1088
f 1102 1100 1030
f 1103 1088 1089
f 1103 1089 1104
f 1104 1089 1090
f 1104 1090 1105
f 1090 1024 1105
f 1024 1106 1105
f 1024 1031 1106
f 1091 1032 1025
f 1033 1032 1091
f 1092 1033 1091
f 1107 1033 1092
f 1035 1108 1098
f 1035 1098 1029
f 1099 1098 1109
f 1109 1098 1108
f 1101 1110 1100
f 1100 1110 1030
f 1110 1036 1030
f 1110 1111 1036
f 1111 1113 1112
f 1037 1111 1112
f 1036 1111 1037
f 1037 1112 1114
f 1115 1037 1114
f 1038 1037 1115
f 1031 1038 1106
f 1106 1038 1115
f 1107 1116 1033
f 1033 1116 1039
f 1039 1117 1042
f 1116 1117 1039
f 1042 1118 1043
f 1117 1118 1042
f 1043 1119 1044
f 1118 1119 1043
f 1035 1044 1108
f 1044 1120 1108
f 1044 1119 1120
f 1108 1120 1109
f 1113 1121 1112
f 1112 1121 1114
f 1124 1123 1122
f 1046 1047 1122
f 1047 1124 1122
f 1047 1125 1124
f 1047 1049 1125
f 1125 1049 1126
f 1122 1123 1051
f 1123 1050 1051
f 1123 1127 1050
f 1122 1051 1046
f 1049 1052 1128
f 1129 1049 1128
f 1126 1049 1129
f 1053 1128 1052
f 1127 1055 1050
f 1130 1055 1127
f 1131 1129 1128
f 1131 1128 1053
f 1056 1131 1053
f 1132 1131 1056
f 1133 1056 1057
f 1133 1132 1056
f 1057 1059 1133
f 1133 1059 1134
f 1130 1061 1055
f 1135 1061 1130
f 1059 1062 1136
f 1137 1059 1136
f 1134 1059 1137
f 1064 1136 1062
f 1135 1138 1061
f 1061 1138 1065
f 1065 1139 1066
f 1138 1139 1065
f 1068 1066 1139
f 1068 1139 1140
f 1137 1136 1141
f 1137 1141 1142
f 1070 1141 1064
f 1064 1141 1136
f 1144 1071 1143
f 1071 1140 1143
f 1071 1068 1140
f 1145 1144 1143
f 1146 1142 1141
f 1146 1141 1070
f 1072 1146 1070
f 1147 1146 1072
f 1149 1147 1148
f 1147 1073 1148
f 1147 1072 1073
f 1074 1148 1073
f 1144 1075 1071
f 1145 1150 1144
f 1150 1075 1144
f 1150 1076 1075
f 1076 1151 1078
f 1150 1151 1076
f 1078 1152 1080
f 1151 1152 1078
f 1080 1153 1082
f 1152 1153 1080
f 1148 1084 1149
f 1084 1153 1149
f 1084 1082 1153
f 1084 1148 1074
f 1156 1155 1154
f 1154 1157 1156
f 1158 1092 1093
f 1158 1093 1159
f 1093 1160 1159
f 1093 1094 1160
f 1162 1160 1161
f 1160 1095 1161
f 1160 1094 1095
f 1161 1095 1163
f 1095 1164 1163
f 1095 1096 1164
f 1165 1096 1097
f 1165 1164 1096
f 1167 1166 1099
f 1166 1097 1099
f 1166 1165 1097
f 1169 1168 1167
f 1167 1168 1166
f 1171 1170 1169
f 1169 1170 1168
f 1170 1171 1155
f 1171 1154 1155
f 1171 1172 1154
f 1102 1173 1101
f 1173 1154 1101
f 1154 1172 1101
f 1154 1173 1157
f 1174 1102 1103
f 1174 1173 1102
f 1175 1103 1104
f 1175 1174 1103
f 1177 1175 1176
f 1175 1105 1176
f 1175 1104 1105
f 1106 1176 1105
f 1179 1178 1158
f 1178 1092 1158
f 1178 1107 1092
f 1179 1158 1159
f 1180 1162 1161
f 1180 1161 1163
f 1182 1181 1167
f 1099 1182 1167
f 1109 1182 1099
f 1167 1181 1169
f 1169 1181 1183
f 1169 1183 1171
f 1171 1183 1184
f 1186 1185 1184
f 1185 1171 1184
f 1185 1172 1171
f 1172 1185 1101
f 1185 1187 1101
f 1187 1110 1101
f 1185 1188 1187
f 1187 1190 1189
f 1111 1187 1189
f 1110 1187 1111
f 1189 1113 1111
f 1177 1176 1115
f 1114 1177 1115
f 1191 1177 1114
f 1115 1176 1106
f 1178 1192 1107
f 1107 1192 1116
f 1116 1193 1117
f 1192 1193 1116
f 1117 1194 1118
f 1193 1194 1117
f 1118 1195 1119
f 1194 1195 1118
f 1119 1196 1120
f 1195 1196 1119
f 1109 1120 1182
f 1182 1120 1196
f 1186 1197 1185
f 1185 1197 1188
f 1190 1198 1189
f 1189 1198 1113
f 1198 1121 1113
f 1198 1199 1121
f 1114 1121 1191
f 1191 1121 1199
f 1201 1200 1124
f 1124 1200 1123
f 1203 1201 1202
f 1201 1125 1202
f 1201 1124 1125
f 1126 1202 1125
f 1200 1127 1123
f 1204 1127 1200
f 1203 1202 1205
f 1203 1205 1206
f 1129 1205 1126
f 1126 1205 1202
f 1204 1130 1127
f 1207 1130 1204
f 1208 1206 1205
f 1208 1205 1129
f 1131 1208 1129
f 1209 1208 1131
f 1210 1131 1132
f 1210 1209 1131
f 1212 1210 1211
f 1210 1133 1211
f 1210 1132 1133
f 1134 1211 1133
f 1207 1135 1130
f 1213 1135 1207
f 1212 1211 1214
f 1212 1214 1215
f 1137 1214 1134
f 1134 1214 1211
f 1213 1216 1135
f 1135 1216 1138
f 1138 1217 1139
f 1216 1217 1138
f 1140 1139 1217
f 1140 1217 1218
f 1219 1215 1214
f 1214 1137 1219
f 1137 1220 1219
f 1137 1142 1220
f 1218 1221 1140
f 1140 1221 1143
f 1145 1143 1221
f 1145 1221 1222
f 1223 1220 1142
f 1223 1142 1146
f 1224 1146 1147
f 1224 1223 1146
f 1147 1149 1224
f 1224 1149 1225
f 1222 1226 1145
f 1145 1226 1150
f 1150 1227 1151
f 1226 1227 1150
f 1151 1228 1152
f 1227 1228 1151
f 1152 1229 1153
f 1228 1229 1152
f 1149 1153 1225
f 1225 1153 1229
f 1230 1155 1156
f 1157 1230 1156
f 1231 1159 1160
f 1162 1231 1160
f 1232 1163 1164
f 1232 1164 1233
f 1164 1234 1233
f 1164 1165 1234
f 1235 1165 1166
f 1235 1234 1165
f 1236 1166 1168
f 1236 1235 1166
f 1237 1168 1170
f 1237 1236 1168
f 1170 1155 1230
f 1238 1170 1230
f 1237 1170 1238
f 1240 1238 1239
f 1239 1238 1173
f 1238 1230 1173
f 1230 1157 1173
f 1174 1241 1173
f 1173 1241 1239
f 1175 1242 1174
f 1174 1242 1241
f 1177 1242 1175
f 1243 1178 1179
f 1159 1231 1179
f 1231 1243 1179
f 1231 1244 1243
f 1180 1245 1162
f 1245 1231 1162
f 1245 1244 1231
f 1163 1232 1180
f 1232 1245 1180
f 1232 1246 1245
f 1232 1233 1247
f 1248 1232 1247
f 1246 1232 1248
f 1181 1182 1248
f 1247 1181 1248
f 1249 1181 1247
f 1249 1251 1250
f 1183 1249 1250
f 1181 1249 1183
f 1252 1184 1183
f 1252 1183 1250
f 1252 1186 1184
f 1240 1239 1187
f 1188 1240 1187
f 1253 1240 1188
f 1187 1239 1190
f 1239 1254 1190
f 1239 1241 1254
f 1255 1241 1242
f 1254 1241 1255
f 1191 1255 1177
f 1177 1255 1242
f 1243 1192 1178
f 1192 1243 1193
f 1193 1243 1244
f 1193 1244 1194
f 1194 1244 1245
f 1194 1245 1195
f 1195 1245 1246
f 1195 1246 1196
f 1196 1246 1248
f 1196 1248 1182
f 1251 1256 1250
f 1250 1256 1252
f 1252 1256 1257
f 1252 1257 1186
f 1257 1197 1186
f 1257 1258 1197
f 1188 1197 1253
f 1253 1197 1258
f 1254 1198 1190
f 1198 1254 1199
f 1199 1254 1255
f 1199 1255 1191
f 1259 1200 1201
f 1203 1259 1201
f 1261 1260 1259
f 1260 1200 1259
f 1260 1204 1200
f 1203 1206 1259
f 1206 1262 1259
f 1262 1261 1259
f 1262 1206 1263
f 1265 1264 1263
f 1263 1264 1262
f 1265 1266 1264
f 1260 1207 1204
f 1267 1207 1260
f 1208 1263 1206
f 1263 1208 1209
f 1263 1209 1265
f 1209 1210 1265
f 1210 1268 1265
f 1268 1266 1265
f 1210 1269 1268
f 1212 1269 1210
f 1271 1213 1270
f 1213 1267 1270
f 1213 1207 1267
f 1272 1271 1270
f 1273 1268 1269
f 1269 1212 1273
f 1212 1274 1273
f 1212 1215 1274
f 1271 1216 1213
f 1272 1275 1271
f 1275 1216 1271
f 1275 1217 1216
f 1218 1217 1275
f 1218 1275 1276
f 1277 1274 1215
f 1277 1215 1219
f 1219 1220 1277
f 1277 1220 1278
f 1276 1279 1218
f 1218 1279 1221
f 1222 1221 1279
f 1222 1279 1280
f 1281 1278 1220
f 1281 1220 1223
f 1283 1281 1282
f 1281 1224 1282
f 1281 1223 1224
f 1225 1282 1224
f 1280 1284 1222
f 1222 1284 1226
f 1226 1285 1227
f 1284 1285 1226
f 1227 1286 1228
f 1285 1286 1227
f 1282 1229 1283
f 1229 1286 1283
f 1229 1228 1286
f 1229 1282 1225
f 1287 1233 1234
f 1287 1234 1288
f 1234 1289 1288
f 1234 1235 1289
f 1291 1289 1290
f 1289 1236 1290
f 1289 1235 1236
f 1237 1292 1236
f 1236 1292 1290
f 1238 1293 1237
f 1237 1293 1292
f 1240 1293 1238
f 1287 1247 1233
f 1249 1247 1287
f 1294 1249 1287
f 1288 1294 1287
f 1295 1249 1294
f 1295 1291 1249
f 1291 1295 1296
f 1251 1296 1295
f 1296 1251 1290
f 1249 1290 1251
f 1290 1249 1291
f 1298 1297 1296
f 1290 1298 1296
f 1292 1298 1290
f 1299 1292 1293
f 1298 1292 1299
f 1253 1299 1240
f 1240 1299 1293
f 1294 1300 1295
f 1295 1300 1251
f 1300 1256 1251
f 1300 1301 1256
f 1298 1257 1297
f 1257 1301 1297
f 1257 1256 1301
f 1257 1298 1258
f 1258 1298 1299
f 1258 1299 1253
f 1302 1260 1261
f 1302 1261 1303
f 1261 1304 1303
f 1261 1262 1304
f 1305 1262 1264
f 1305 1304 1262
f 1264 1266 1305
f 1305 1266 1306
f 1307 1267 1302
f 1302 1267 1260
f 1302 1303 1308
f 1302 1308 1307
f 1268 1306 1266
f 1268 1309 1306
f 1307 1270 1267
f 1272 1270 1307
f 1308 1272 1307
f 1310 1272 1308
f 1311 1309 1268
f 1311 1268 1273
f 1273 1274 1311
f 1311 1274 1312
f 1310 1313 1272
f 1272 1313 1275
f 1276 1275 1313
f 1276 1313 1314
f 1274 1277 1315
f 1316 1274 1315
f 1312 1274 1316
f 1278 1315 1277
f 1314 1317 1276
f 1276 1317 1279
f 1319 1318 1280
f 1279 1319 1280
f 1317 1319 1279
f 1318 1321 1320
f 1318 1315 1321
f 1318 1319 1316
f 1315 1318 1316
f 1323 1321 1322
f 1322 1321 1281
f 1321 1315 1281
f 1315 1278 1281
f 1283 1322 1281
f 1318 1284 1280
f 1320 1324 1318
f 1324 1284 1318
f 1324 1285 1284
f 1322 1286 1323
f 1286 1324 1323
f 1286 1285 1324
f 1286 1322 1283
f 1325 1288 1289
f 1291 1325 1289
f 1326 1294 1325
f 1325 1294 1288
f 1296 1327 1291
f 1327 1325 1291
f 1327 1326 1325
f 1297 1327 1296
f 1326 1300 1294
f 1300 1326 1301
f 1301 1326 1327
f 1301 1327 1297
f 1328 1303 1304
f 1305 1329 1304
f 1304 1329 1328
f 1306 1329 1305
f 1330 1308 1328
f 1328 1308 1303
f 1331 1328 1329
f 1330 1328 1331
f 1309 1331 1306
f 1306 1331 1329
f 1334 1333 1332
f 1335 1334 1330
f 1334 1310 1330
f 1310 1308 1330
f 1334 1332 1310
f 1337 1336 1335
f 1330 1337 1335
f 1331 1337 1330
f 1311 1338 1309
f 1338 1331 1309
f 1338 1337 1331
f 1312 1338 1311
f 1333 1339 1332
f 1339 1341 1340
f 1339 1340 1313
f 1332 1339 1313
f 1310 1332 1313
f 1337 1342 1336
f 1314 1313 1340
f 1342 1337 1338
f 1342 1338 1343
f 1338 1312 1343
f 1312 1344 1343
f 1312 1316 1344
f 1341 1345 1340
f 1340 1345 1314
f 1345 1317 1314
f 1345 1346 1317
f 1317 1347 1319
f 1346 1347 1317
f 1348 1320 1321
f 1344 1316 1347
f 1319 1347 1316
f 1323 1348 1321
f 1348 1324 1320
f 1324 1348 1323
f 1351 1350 1349
f 1349 1352 1351
f 1349 1350 1334
f 1350 1333 1334
f 1350 1353 1333
f 1354 1352 1349
f 1334 1354 1349
f 1335 1354 1334
f 1335 1336 1354
f 1354 1336 1355
f 1339 1333 1356
f 1333 1357 1356
f 1333 1353 1357
f 1356 1341 1339
f 1358 1355 1336
f 1358 1336 1342
f 1360 1358 1359
f 1358 1343 1359
f 1358 1342 1343
f 1344 1359 1343
f 1357 1361 1356
f 1356 1361 1341
f 1361 1345 1341
f 1361 1362 1345
f 1345 1363 1346
f 1362 1363 1345
f 1359 1347 1360
f 1347 1363 1360
f 1347 1346 1363
f 1347 1359 1344
f 1365 1364 1351
f 1351 1364 1350
f 1367 1366 1352
f 1366 1351 1352
f 1366 1365 1351
f 1367 1368 1366
f 1364 1353 1350
f 1369 1353 1364
f 1354 1367 1352
f 1354 1355 1367
f 1355 1368 1367
f 1355 1370 1368
f 1369 1357 1353
f 1371 1357 1369
f 1372 1370 1355
f 1372 1355 1358
f 1358 1360 1372
f 1372 1360 1373
f 1371 1374 1357
f 1357 1374 1361
f 1361 1375 1362
f 1374 1375 1361
f 1362 1376 1363
f 1375 1376 1362
f 1360 1363 1373
f 1373 1363 1376
f 1378 1377 1365
f 1365 1377 1364
f 1379 1365 1366
f 1379 1378 1365
f 1366 1368 1379
f 1379 1368 1380
f 1382 1369 1381
f 1369 1377 1381
f 1369 1364 1377
f 1383 1382 1381
f 1370 1380 1368
f 1370 1384 1380
f 1385 1371 1382
f 1382 1371 1369
f 1382 1383 1386
f 1382 1386 1385
f 1370 1372 1387
f 1388 1370 1387
f 1384 1370 1388
f 1373 1387 1372
f 1385 1374 1371
f 1386 1389 1385
f 1389 1374 1385
f 1389 1375 1374
f 1387 1376 1388
f 1376 1389 1388
f 1376 1375 1389
f 1376 1387 1373
f 1390 1377 1378
f 1379 1391 1378
f 1378 1391 1390
f 1380 1391 1379
f 1390 1381 1377
f 1381 1390 1383
f 1390 1392 1383
f 1390 1391 1392
f 1384 1392 1380
f 1380 1392 1391
f 1393 1386 1392
f 1392 1386 1383
f 1388 1393 1384
f 1384 1393 1392
f 1393 1389 1386
f 1389 1393 1388
