v 32.8 -16.0 16.0
v 33.0 -16.0 15.6
v 33.0 -16.2 16.0
v 33.0 -16.2 17.0
v 32.8 -16.0 17.0
v 33.0 -16.0 17.4
v 32.7 -15.0 15.0
v 33.0 -15.0 14.5
v 33.0 -15.4 15.0
v 32.5 -15.0 16.0
v 32.5 -15.0 17.0
v 33.0 -15.5 18.0
v 32.6 -15.0 18.0
v 33.0 -15.2 19.0
v 32.8 -15.0 19.0
v 33.0 -15.0 19.2
v 32.8 -14.0 13.0
v 33.0 -14.0 12.8
v 33.0 -14.2 13.0
v 33.0 -14.6 14.0
v 32.6 -14.0 14.0
v 32.5 -14.0 15.0
v 32.5 -14.0 16.0
v 32.5 -14.0 17.0
v 32.5 -14.0 18.0
v 32.7 -14.0 19.0
v 33.0 -14.0 19.3
v 32.6 -13.0 13.0
v 33.0 -13.0 12.6
v 32.4 -13.0 14.0
v 32.5 -13.0 15.0
v 32.5 -13.0 16.0
v 32.5 -13.0 17.0
v 32.5 -13.0 18.0
v 32.8 -13.0 19.0
v 33.0 -13.0 19.2
v 32.6 -12.0 13.0
v 33.0 -12.0 12.6
v 32.2 -12.0 14.0
v 32.6 -12.0 15.0
v 32.7 -12.0 16.0
v 32.7 -12.0 17.0
v 33.0 -12.0 17.4
v 33.0 -12.5 18.0
v 33.0 -12.8 19.0
v 32.9 -11.0 13.0
v 33.0 -11.0 12.9
v 33.0 -11.0 13.2
v 33.0 -11.4 14.0
v 33.0 -11.6 15.0
v 33.0 -11.7 16.0
v 33.0 -11.8 17.0
v 33.0 -10.9 13.0
v 33.6 -16.0 15.0
v 34.0 -16.0 14.6
v 34.0 -16.3 15.0
v 34.0 -16.5 16.0
v 34.0 -16.5 17.0
v 34.0 -16.3 18.0
v 33.5 -16.0 18.0
v 34.0 -16.0 18.5
v 33.5 -15.0 14.0
v 34.0 -15.0 13.4
v 34.0 -15.5 14.0
v 34.0 -15.5 19.0
v 34.0 -15.0 19.4
v 33.9 -14.0 12.0
v 34.0 -14.0 11.9
v 34.0 -14.1 12.0
v 34.0 -14.7 13.0
v 34.0 -14.0 19.5
v 34.0 -13.7 12.0
v 34.0 -13.0 12.2
v 34.0 -13.0 19.4
v 33.6 -12.0 12.0
v 34.0 -12.0 11.5
v 34.0 -12.7 12.0
v 34.0 -12.3 18.0
v 34.0 -12.0 17.7
v 34.0 -12.6 19.0
v 33.8 -11.0 11.0
v 34.0 -11.0 10.7
v 34.0 -11.4 11.0
v 33.4 -11.0 12.0
v 33.5 -11.0 14.0
v 34.0 -11.0 14.5
v 34.0 -11.3 15.0
v 34.0 -11.5 16.0
v 34.0 -11.6 17.0
v 33.8 -10.0 11.0
v 34.0 -10.0 10.8
v 33.7 -10.0 12.0
v 34.0 -10.3 13.0
v 34.0 -10.0 12.4
v 34.0 -10.6 14.0
v 34.0 -9.8 11.0
v 34.0 -9.8 12.0
v 34.6 -16.0 14.0
v 35.0 -16.0 13.7
v 35.0 -16.3 14.0
v 35.0 -16.5 15.0
v 35.0 -16.6 16.0
v 35.0 -16.6 17.0
v 35.0 -16.6 18.0
v 35.0 -16.3 19.0
v 34.6 -16.0 19.0
v 35.0 -16.0 19.2
v 34.5 -15.0 13.0
v 35.0 -15.0 12.6
v 35.0 -15.4 13.0
v 35.0 -15.0 19.5
v 35.0 -14.0 11.6
v 35.0 -14.4 12.0
v 35.0 -14.0 19.5
v 34.2 -13.0 12.0
v 35.0 -13.0 11.5
v 35.0 -13.0 19.5
v 34.6 -12.0 11.0
v 35.0 -12.0 10.7
v 35.0 -12.4 11.0
v 34.4 -12.0 18.0
v 34.9 -12.0 19.0
v 35.0 -12.0 19.1
v 35.0 -11.0 10.3
v 34.4 -11.0 15.0
v 35.0 -11.0 15.6
v 35.0 -11.3 16.0
v 35.0 -11.4 17.0
v 35.0 -11.6 18.0
v 35.0 -11.9 19.0
v 34.9 -10.0 10.0
v 35.0 -10.0 9.9
v 35.0 -10.2 10.0
v 34.4 -10.0 13.0
v 34.7 -10.0 14.0
v 35.0 -10.0 14.4
v 35.0 -10.5 15.0
v 35.0 -9.9 10.0
v 35.0 -9.4 11.0
v 35.0 -9.4 12.0
v 35.0 -9.5 13.0
v 35.0 -9.7 14.0
v 35.6 -17.0 16.0
v 36.0 -17.0 15.5
v 36.0 -17.4 16.0
v 36.0 -17.5 17.0
v 35.5 -17.0 17.0
v 36.0 -17.3 18.0
v 35.6 -17.0 18.0
v 36.0 -17.0 18.5
v 36.0 -16.0 13.5
v 36.0 -16.5 14.0
v 36.0 -16.7 15.0
v 36.0 -16.6 19.0
v 36.0 -16.0 19.4
v 36.0 -15.0 12.5
v 36.0 -15.5 13.0
v 36.0 -15.0 19.5
v 36.0 -14.0 11.1
v 36.0 -14.6 12.0
v 36.0 -14.0 19.4
v 36.0 -13.0 11.1
v 36.0 -13.0 19.3
v 36.0 -12.0 10.4
v 36.0 -12.8 11.0
v 35.1 -12.0 19.0
v 36.0 -12.6 19.0
v 36.0 -12.0 18.6
v 35.5 -11.0 10.0
v 36.0 -11.0 9.7
v 36.0 -11.5 10.0
v 35.3 -11.0 16.0
v 35.6 -11.0 17.0
v 36.0 -11.0 17.3
v 36.0 -11.5 18.0
v 36.0 -10.0 9.5
v 35.6 -10.0 15.0
v 36.0 -10.0 15.5
v 36.0 -10.4 16.0
v 36.0 -10.7 17.0
v 35.7 -9.0 10.0
v 36.0 -9.0 9.8
v 35.5 -9.0 11.0
v 35.5 -9.0 12.0
v 35.7 -9.0 13.0
v 36.0 -9.0 13.3
v 36.0 -9.4 14.0
v 36.0 -9.7 15.0
v 36.0 -8.8 10.0
v 36.0 -8.6 11.0
v 36.0 -8.6 12.0
v 36.0 -8.8 13.0
v 36.6 -18.0 16.0
v 37.0 -18.0 15.5
v 37.0 -18.3 16.0
v 37.0 -18.3 17.0
v 36.6 -18.0 17.0
v 37.0 -18.0 17.5
v 36.9 -17.0 14.0
v 37.0 -17.0 13.9
v 37.0 -17.1 14.0
v 37.0 -17.6 15.0
v 36.4 -17.0 15.0
v 37.0 -17.7 18.0
v 37.0 -17.4 19.0
v 36.5 -17.0 19.0
v 37.0 -17.0 19.7
v 37.0 -16.0 13.4
v 37.0 -16.0 19.7
v 37.0 -15.0 12.5
v 37.0 -15.5 13.0
v 37.0 -15.0 19.4
v 37.0 -14.0 11.4
v 37.0 -14.5 12.0
v 36.6 -14.0 19.0
v 37.0 -14.4 19.0
v 37.0 -14.0 18.7
v 36.3 -13.0 11.0
v 37.0 -13.0 10.6
v 37.0 -13.5 11.0
v 36.4 -13.0 19.0
v 37.0 -13.0 18.6
v 36.6 -12.0 10.0
v 37.0 -12.0 9.7
v 37.0 -12.3 10.0
v 37.0 -12.0 18.3
v 37.0 -11.0 9.5
v 37.0 -11.6 18.0
v 37.0 -11.0 17.5
v 37.0 -10.0 9.5
v 36.7 -10.0 16.0
v 37.0 -10.0 16.2
v 37.0 -10.6 17.0
v 37.0 -9.0 9.7
v 37.0 -9.3 14.0
v 37.0 -9.0 13.6
v 37.0 -9.5 15.0
v 37.0 -9.8 16.0
v 37.0 -8.7 10.0
v 37.0 -8.5 11.0
v 37.0 -8.5 12.0
v 37.0 -8.6 13.0
v 37.9 -19.0 16.0
v 38.0 -19.0 15.9
v 38.0 -19.1 16.0
v 38.0 -19.0 16.2
v 37.6 -18.0 15.0
v 38.0 -18.0 14.7
v 38.0 -18.3 15.0
v 38.0 -18.7 17.0
v 38.0 -18.4 18.0
v 37.5 -18.0 18.0
v 38.0 -18.0 18.5
v 37.3 -17.0 14.0
v 38.0 -17.0 14.2
v 38.0 -17.6 19.0
v 38.0 -17.0 19.6
v 38.0 -16.0 13.5
v 38.0 -16.8 14.0
v 38.0 -16.1 20.0
v 37.8 -16.0 20.0
v 38.0 -16.0 20.1
v 38.0 -15.0 12.5
v 38.0 -15.5 13.0
v 38.0 -15.7 20.0
v 38.0 -15.0 19.4
v 38.0 -14.0 11.5
v 38.0 -14.5 12.0
v 38.0 -14.8 19.0
v 38.0 -14.0 18.7
v 38.0 -13.0 10.5
v 38.0 -13.5 11.0
v 38.0 -13.0 18.5
v 38.0 -12.0 9.6
v 38.0 -12.5 10.0
v 37.5 -12.0 18.0
v 38.0 -12.4 18.0
v 38.0 -12.0 17.7
v 38.0 -11.0 9.4
v 38.0 -11.0 17.3
v 38.0 -10.0 9.4
v 37.3 -10.0 16.0
v 38.0 -10.3 16.0
v 38.0 -10.0 15.6
v 38.0 -10.7 17.0
v 38.0 -9.0 9.6
v 37.7 -9.0 14.0
v 38.0 -9.0 14.2
v 38.0 -9.5 15.0
v 38.0 -8.6 10.0
v 38.0 -8.5 11.0
v 38.0 -8.5 12.0
v 38.0 -8.5 13.0
v 38.0 -8.8 14.0
v 39.0 -19.0 15.7
v 39.0 -19.2 16.0
v 39.0 -19.2 17.0
v 38.6 -19.0 17.0
v 39.0 -19.1 18.0
v 38.9 -19.0 18.0
v 39.0 -19.0 18.1
v 39.0 -18.0 14.5
v 39.0 -18.5 15.0
v 39.0 -18.2 19.0
v 38.8 -18.0 19.0
v 39.0 -18.0 19.1
v 38.3 -17.0 14.0
v 39.0 -17.0 13.7
v 39.0 -17.4 14.0
v 39.0 -17.0 19.5
v 39.0 -16.0 13.4
v 38.1 -16.0 20.0
v 39.0 -16.0 19.6
v 39.0 -15.0 12.5
v 39.0 -15.5 13.0
v 39.0 -15.0 19.5
v 39.0 -14.0 11.5
v 39.0 -14.5 12.0
v 38.5 -14.0 19.0
v 39.0 -14.0 19.4
v 39.0 -13.0 10.5
v 39.0 -13.5 11.0
v 38.8 -13.0 19.0
v 39.0 -13.0 19.2
v 39.0 -12.0 9.5
v 39.0 -12.5 10.0
v 39.0 -12.5 18.0
v 39.0 -12.0 17.5
v 39.0 -12.8 19.0
v 38.7 -11.0 9.0
v 39.0 -11.0 8.8
v 39.0 -11.3 9.0
v 38.4 -11.0 17.0
v 39.0 -11.4 17.0
v 39.0 -11.0 16.5
v 38.6 -10.0 9.0
v 39.0 -10.0 8.7
v 39.0 -10.6 16.0
v 39.0 -10.0 15.3
v 39.0 -9.6 9.0
v 39.0 -9.0 9.5
v 38.3 -9.0 14.0
v 39.0 -9.3 14.0
v 39.0 -9.0 13.6
v 39.0 -9.7 15.0
v 39.0 -8.6 10.0
v 39.0 -8.5 11.0
v 39.0 -8.5 12.0
v 39.0 -8.6 13.0
v 39.3 -19.0 16.0
v 39.4 -19.0 17.0
v 39.1 -19.0 18.0
v 40.0 -18.0 14.7
v 40.0 -18.3 15.0
v 40.0 -18.6 16.0
v 40.0 -18.6 17.0
v 40.0 -18.4 18.0
v 39.2 -18.0 19.0
v 40.0 -18.0 18.4
v 40.0 -17.0 13.7
v 40.0 -17.3 14.0
v 40.0 -17.4 19.0
v 40.0 -17.0 19.2
v 40.0 -16.0 13.4
v 40.0 -16.0 19.4
v 40.0 -15.0 12.5
v 40.0 -15.5 13.0
v 40.0 -15.0 19.4
v 40.0 -14.0 11.5
v 40.0 -14.5 12.0
v 40.0 -14.0 19.3
v 40.0 -13.0 10.5
v 40.0 -13.5 11.0
v 39.8 -13.0 18.0
v 40.0 -13.1 18.0
v 40.0 -13.0 17.9
v 40.0 -13.0 19.0
v 40.0 -13.0 19.0
v 40.0 -12.0 9.5
v 40.0 -12.5 10.0
v 40.0 -12.0 17.4
v 40.0 -13.0 19.0
v 40.0 -11.0 8.7
v 40.0 -11.4 9.0
v 39.8 -11.0 15.0
v 40.0 -11.2 15.0
v 40.0 -11.0 14.8
v 39.4 -11.0 16.0
v 40.0 -11.4 16.0
v 40.0 -11.6 17.0
v 40.0 -10.0 8.5
v 39.3 -10.0 15.0
v 40.0 -10.0 14.5
v 39.6 -9.0 9.0
v 40.0 -9.0 8.8
v 40.0 -9.5 14.0
v 40.0 -9.0 13.4
v 40.0 -8.7 9.0
v 40.0 -8.4 10.0
v 40.0 -8.4 11.0
v 40.0 -8.5 12.0
v 40.0 -8.7 13.0
v 40.4 -18.0 15.0
v 41.0 -18.0 15.6
v 41.0 -18.2 16.0
v 41.0 -18.2 17.0
v 40.4 -18.0 18.0
v 41.0 -18.0 17.3
v 40.4 -17.0 14.0
v 41.0 -17.0 14.5
v 41.0 -17.5 15.0
v 40.7 -17.0 18.0
v 41.0 -17.0 17.6
v 40.3 -17.0 19.0
v 41.0 -16.0 13.5
v 41.0 -16.6 14.0
v 41.0 -16.5 18.0
v 41.0 -16.0 18.4
v 40.4 -16.0 19.0
v 41.0 -15.0 12.5
v 41.0 -15.5 13.0
v 40.4 -15.0 19.0
v 41.0 -15.0 18.4
v 41.0 -14.0 11.6
v 41.0 -14.4 12.0
v 40.6 -14.0 18.0
v 41.0 -14.5 18.0
v 41.0 -14.0 17.6
v 40.3 -14.0 19.0
v 41.0 -13.0 10.6
v 41.0 -13.4 11.0
v 41.0 -13.0 17.4
v 40.0 -13.0 19.0
v 41.0 -12.0 9.7
v 41.0 -12.3 10.0
v 41.0 -12.0 17.2
v 40.5 -11.0 9.0
v 41.0 -11.0 9.3
v 41.0 -11.4 15.0
v 41.0 -11.0 14.6
v 41.0 -11.5 16.0
v 41.0 -11.8 17.0
v 41.0 -10.0 8.6
v 41.0 -10.6 9.0
v 41.0 -10.0 14.2
v 41.0 -9.0 8.6
v 40.5 -9.0 13.0
v 41.0 -9.3 13.0
v 41.0 -9.0 12.6
v 41.0 -9.7 14.0
v 41.0 -8.6 9.0
v 40.7 -8.0 10.0
v 41.0 -8.0 9.7
v 40.8 -8.0 11.0
v 41.0 -8.0 11.2
v 41.0 -8.5 12.0
v 41.0 -7.8 10.0
v 41.0 -7.9 11.0
v 41.2 -18.0 16.0
v 41.2 -18.0 17.0
v 41.4 -17.0 15.0
v 41.5 -17.0 16.0
v 41.4 -17.0 17.0
v 42.0 -16.0 13.7
v 42.0 -16.2 14.0
v 42.0 -16.3 15.0
v 42.0 -16.0 15.5
v 41.7 -16.0 16.0
v 41.5 -16.0 17.0
v 41.3 -16.0 18.0
v 42.0 -15.0 12.8
v 42.0 -15.3 13.0
v 42.0 -15.5 16.0
v 42.0 -15.0 16.4
v 41.6 -15.0 17.0
v 41.3 -15.0 18.0
v 41.5 -14.0 12.0
v 42.0 -14.0 12.4
v 41.5 -14.0 17.0
v 42.0 -14.0 16.5
v 41.4 -13.0 11.0
v 42.0 -13.0 11.6
v 42.0 -13.5 12.0
v 41.5 -13.0 17.0
v 42.0 -13.0 16.5
v 41.4 -12.0 10.0
v 42.0 -12.0 10.5
v 42.0 -12.5 11.0
v 41.3 -12.0 17.0
v 42.0 -12.0 16.3
v 42.0 -11.0 9.6
v 42.0 -11.5 10.0
v 42.0 -11.3 15.0
v 42.0 -11.0 14.7
v 42.0 -11.7 16.0
v 42.0 -10.0 8.7
v 42.0 -10.3 9.0
v 41.4 -10.0 14.0
v 42.0 -10.4 14.0
v 42.0 -10.0 13.6
v 42.0 -9.0 8.7
v 42.0 -9.5 13.0
v 42.0 -9.0 12.5
v 42.0 -8.6 9.0
v 42.0 -8.0 9.8
v 41.2 -8.0 11.0
v 42.0 -8.3 11.0
v 42.0 -8.0 10.2
v 42.0 -8.6 12.0
v 42.0 -7.9 10.0
v 42.2 -16.0 14.0
v 42.3 -16.0 15.0
v 42.2 -15.0 13.0
v 42.5 -15.0 14.0
v 42.5 -15.0 15.0
v 42.3 -15.0 16.0
v 42.4 -14.0 13.0
v 42.5 -14.0 14.0
v 42.5 -14.0 15.0
v 42.4 -14.0 16.0
v 42.3 -13.0 12.0
v 42.6 -13.0 13.0
v 42.6 -13.0 14.0
v 42.6 -13.0 15.0
v 42.4 -13.0 16.0
v 42.4 -12.0 11.0
v 42.7 -12.0 12.0
v 43.0 -12.0 12.5
v 43.0 -12.4 13.0
v 43.0 -12.5 14.0
v 43.0 -12.3 15.0
v 43.0 -12.0 15.3
v 42.3 -12.0 16.0
v 42.5 -11.0 10.0
v 43.0 -11.0 10.5
v 43.0 -11.4 11.0
v 43.0 -11.7 12.0
v 43.0 -11.0 15.0
v 43.0 -11.0 15.0
v 42.4 -10.0 9.0
v 43.0 -10.0 9.5
v 43.0 -10.5 10.0
v 43.0 -10.6 14.0
v 43.0 -10.0 13.3
v 43.0 -11.0 15.0
v 43.0 -9.0 8.8
v 43.0 -9.3 9.0
v 43.0 -9.7 13.0
v 43.0 -9.0 12.3
v 43.0 -8.8 9.0
v 42.2 -8.0 10.0
v 43.0 -8.5 10.0
v 43.0 -8.5 11.0
v 43.0 -8.7 12.0
v 43.3 -12.0 13.0
v 43.4 -12.0 14.0
v 43.2 -12.0 15.0
v 43.5 -11.0 11.0
v 44.0 -11.0 11.9
v 44.0 -11.1 12.0
v 43.6 -11.0 13.0
v 44.0 -11.0 12.1
v 43.4 -11.0 14.0
v 43.0 -11.0 15.0
v 43.4 -10.0 10.0
v 44.0 -10.0 10.7
v 44.0 -10.4 11.0
v 43.3 -10.0 13.0
v 44.0 -10.0 12.3
v 44.0 -9.0 8.7
v 44.0 -9.1 9.0
v 43.6 -9.0 10.0
v 44.0 -9.0 9.2
v 44.0 -9.0 10.9
v 43.4 -9.0 12.0
v 44.0 -9.6 12.0
v 44.0 -9.0 11.1
v 44.0 -8.9 9.0
v 44.0 -8.9 11.0
v 44.1 -11.0 12.0
v 44.2 -10.0 11.0
v 44.2 -10.0 12.0
v 44.2 -9.0 9.0
v 44.1 -9.0 11.0
f 3 2 1
f 5 4 1
f 1 4 3
f 5 6 4
f 9 8 7
f 9 7 2
f 7 1 2
f 7 10 1
f 1 11 5
f 1 10 11
f 6 5 12
f 5 13 12
f 5 11 13
f 15 14 13
f 13 14 12
f 15 16 14
f 19 18 17
f 21 20 17
f 17 20 19
f 20 21 8
f 21 7 8
f 21 22 7
f 7 23 10
f 7 22 23
f 10 24 11
f 10 23 24
f 11 25 13
f 11 24 25
f 13 26 15
f 13 25 26
f 16 15 27
f 27 15 26
f 17 18 28
f 28 18 29
f 17 30 21
f 17 28 30
f 21 31 22
f 21 30 31
f 22 32 23
f 22 31 32
f 23 33 24
f 23 32 33
f 24 34 25
f 24 33 34
f 25 35 26
f 25 34 35
f 27 26 36
f 36 26 35
f 28 29 37
f 37 29 38
f 28 39 30
f 28 37 39
f 30 40 31
f 30 39 40
f 31 41 32
f 31 40 41
f 32 42 33
f 32 41 42
f 44 34 43
f 34 42 43
f 34 33 42
f 34 44 35
f 35 44 45
f 35 45 36
f 37 38 46
f 46 38 47
f 49 39 48
f 39 46 48
f 39 37 46
f 39 49 40
f 40 49 50
f 40 50 41
f 41 50 51
f 41 51 42
f 42 51 52
f 42 52 43
f 47 53 46
f 46 53 48
f 56 55 54
f 2 3 54
f 3 56 54
f 3 57 56
f 58 3 4
f 58 57 3
f 60 59 6
f 59 4 6
f 59 58 4
f 60 61 59
f 64 63 62
f 64 62 55
f 55 62 54
f 62 8 54
f 8 9 54
f 54 9 2
f 12 60 6
f 65 61 60
f 12 65 60
f 14 65 12
f 14 16 65
f 65 16 66
f 69 68 67
f 18 19 67
f 19 69 67
f 19 70 69
f 20 62 63
f 70 20 63
f 19 20 70
f 62 20 8
f 27 66 16
f 27 71 66
f 68 72 67
f 18 67 72
f 73 18 72
f 29 18 73
f 36 71 27
f 36 74 71
f 77 76 75
f 73 77 75
f 38 73 75
f 29 73 38
f 79 78 44
f 79 44 43
f 44 80 45
f 78 80 44
f 36 45 74
f 74 45 80
f 83 82 81
f 83 81 76
f 81 75 76
f 81 84 75
f 84 47 38
f 84 38 75
f 48 85 49
f 49 85 86
f 87 49 86
f 50 49 87
f 50 88 51
f 87 88 50
f 51 89 52
f 88 89 51
f 43 52 79
f 79 52 89
f 81 82 90
f 90 82 91
f 81 92 84
f 81 90 92
f 84 92 47
f 92 93 47
f 93 53 47
f 92 94 93
f 48 53 85
f 53 95 85
f 53 93 95
f 85 95 86
f 91 96 90
f 90 96 92
f 92 96 97
f 92 97 94
f 100 99 98
f 55 56 98
f 56 100 98
f 56 101 100
f 102 56 57
f 102 101 56
f 103 57 58
f 103 102 57
f 104 58 59
f 104 103 58
f 106 105 61
f 105 59 61
f 105 104 59
f 106 107 105
f 110 109 108
f 110 108 99
f 99 108 98
f 108 63 98
f 63 64 98
f 98 64 55
f 65 106 61
f 65 66 106
f 66 107 106
f 66 111 107
f 113 112 69
f 69 112 68
f 70 108 109
f 113 70 109
f 69 70 113
f 108 70 63
f 71 111 66
f 71 114 111
f 72 68 115
f 68 116 115
f 68 112 116
f 115 73 72
f 74 114 71
f 74 117 114
f 120 119 118
f 120 118 116
f 116 118 115
f 118 76 115
f 76 77 115
f 115 77 73
f 79 121 78
f 122 80 78
f 122 78 121
f 122 123 80
f 123 74 80
f 123 117 74
f 118 119 83
f 119 82 83
f 119 124 82
f 118 83 76
f 86 125 87
f 87 125 126
f 127 87 126
f 88 87 127
f 88 128 89
f 127 128 88
f 79 89 121
f 89 129 121
f 89 128 129
f 121 129 122
f 122 129 130
f 122 130 123
f 133 132 131
f 124 133 131
f 91 124 131
f 82 124 91
f 94 134 93
f 135 95 93
f 135 93 134
f 135 136 95
f 95 136 86
f 136 137 86
f 137 125 86
f 125 137 126
f 132 138 131
f 131 138 91
f 138 96 91
f 138 139 96
f 96 140 97
f 139 140 96
f 94 97 134
f 97 141 134
f 97 140 141
f 134 141 135
f 135 141 142
f 135 142 136
f 145 144 143
f 147 146 143
f 143 146 145
f 149 148 147
f 147 148 146
f 149 150 148
f 152 151 100
f 100 151 99
f 153 100 101
f 153 152 100
f 102 143 144
f 153 102 144
f 101 102 153
f 143 102 103
f 143 103 147
f 147 103 104
f 147 104 149
f 154 150 149
f 104 154 149
f 105 154 104
f 105 107 154
f 154 107 155
f 157 156 110
f 110 156 109
f 110 99 151
f 110 151 157
f 111 155 107
f 111 158 155
f 160 159 113
f 113 159 112
f 113 109 156
f 113 156 160
f 114 158 111
f 114 161 158
f 159 116 112
f 162 116 159
f 117 161 114
f 117 163 161
f 165 164 120
f 120 164 119
f 120 116 162
f 120 162 165
f 168 167 166
f 167 163 166
f 163 123 166
f 163 117 123
f 171 170 169
f 164 171 169
f 124 164 169
f 119 164 124
f 126 172 127
f 173 128 127
f 173 127 172
f 128 173 174
f 175 128 174
f 129 128 175
f 166 130 168
f 130 175 168
f 130 129 175
f 130 166 123
f 169 170 133
f 170 132 133
f 170 176 132
f 169 133 124
f 136 177 137
f 177 178 137
f 137 178 126
f 178 179 126
f 179 172 126
f 172 179 173
f 173 179 180
f 173 180 174
f 138 132 181
f 132 182 181
f 132 176 182
f 183 139 138
f 183 138 181
f 184 140 139
f 184 139 183
f 185 141 140
f 185 140 184
f 141 185 186
f 187 141 186
f 142 141 187
f 136 142 177
f 142 188 177
f 142 187 188
f 177 188 178
f 182 189 181
f 181 189 183
f 183 189 190
f 183 190 184
f 184 190 191
f 184 191 185
f 185 191 192
f 185 192 186
f 195 194 193
f 197 196 193
f 193 196 195
f 197 198 196
f 201 200 199
f 203 202 199
f 199 202 201
f 202 203 194
f 194 203 193
f 203 144 193
f 144 145 193
f 193 145 146
f 193 146 197
f 204 198 197
f 146 204 197
f 148 204 146
f 206 205 150
f 205 148 150
f 205 204 148
f 206 207 205
f 199 200 152
f 200 151 152
f 200 208 151
f 199 152 153
f 199 153 203
f 203 153 144
f 154 206 150
f 154 155 206
f 155 207 206
f 155 209 207
f 211 210 157
f 157 210 156
f 157 151 208
f 157 208 211
f 158 209 155
f 158 212 209
f 214 213 160
f 160 213 159
f 160 156 210
f 160 210 214
f 217 216 215
f 216 212 215
f 212 161 215
f 212 158 161
f 220 219 218
f 213 220 218
f 162 213 218
f 159 213 162
f 217 215 221
f 217 221 222
f 163 221 161
f 161 221 215
f 225 224 223
f 225 223 219
f 219 223 218
f 223 164 218
f 164 165 218
f 218 165 162
f 222 221 167
f 168 222 167
f 226 222 168
f 167 221 163
f 223 224 171
f 224 170 171
f 224 227 170
f 223 171 164
f 229 228 175
f 229 175 174
f 168 175 226
f 226 175 228
f 227 176 170
f 230 176 227
f 178 231 179
f 179 231 232
f 233 179 232
f 180 179 233
f 174 180 229
f 229 180 233
f 230 182 176
f 234 182 230
f 236 235 187
f 236 187 186
f 187 237 188
f 235 237 187
f 178 188 231
f 188 238 231
f 188 237 238
f 231 238 232
f 234 239 182
f 182 239 189
f 189 240 190
f 239 240 189
f 190 241 191
f 240 241 190
f 191 242 192
f 241 242 191
f 186 192 236
f 236 192 242
f 245 244 243
f 243 246 245
f 249 248 247
f 249 247 244
f 244 247 243
f 247 194 243
f 194 195 243
f 250 246 243
f 195 250 243
f 196 250 195
f 252 251 198
f 251 196 198
f 251 250 196
f 252 253 251
f 254 200 201
f 248 255 247
f 255 201 247
f 201 202 247
f 201 255 254
f 247 202 194
f 204 252 198
f 256 253 252
f 204 256 252
f 205 256 204
f 205 207 256
f 256 207 257
f 259 258 254
f 258 200 254
f 258 208 200
f 259 254 255
f 209 261 260
f 257 209 260
f 207 209 257
f 261 262 260
f 264 263 211
f 211 263 210
f 211 208 258
f 211 258 264
f 266 265 261
f 209 266 261
f 212 266 209
f 261 265 262
f 268 267 214
f 214 267 213
f 214 210 263
f 214 263 268
f 270 269 216
f 270 216 217
f 212 216 266
f 266 216 269
f 272 271 220
f 220 271 219
f 220 213 267
f 220 267 272
f 222 270 217
f 222 273 270
f 275 274 225
f 225 274 224
f 225 219 271
f 225 271 275
f 278 277 276
f 277 273 276
f 273 226 276
f 273 222 226
f 274 227 224
f 279 227 274
f 278 276 228
f 229 278 228
f 280 278 229
f 228 276 226
f 279 230 227
f 281 230 279
f 284 283 282
f 233 232 282
f 283 233 282
f 285 233 283
f 229 233 280
f 280 233 285
f 281 234 230
f 286 234 281
f 236 287 235
f 235 287 288
f 289 235 288
f 237 235 289
f 282 238 284
f 238 289 284
f 238 237 289
f 238 282 232
f 286 290 234
f 234 290 239
f 239 291 240
f 290 291 239
f 240 292 241
f 291 292 240
f 241 293 242
f 292 293 241
f 236 242 287
f 242 294 287
f 242 293 294
f 287 294 288
f 296 295 245
f 245 295 244
f 298 297 246
f 297 245 246
f 297 296 245
f 300 299 298
f 298 299 297
f 300 301 299
f 303 302 249
f 249 302 248
f 249 244 295
f 249 295 303
f 250 298 246
f 298 250 251
f 298 251 300
f 305 304 253
f 253 304 251
f 304 301 251
f 301 300 251
f 305 306 304
f 309 308 307
f 302 309 307
f 255 302 307
f 248 302 255
f 256 305 253
f 256 257 305
f 257 306 305
f 257 310 306
f 307 308 259
f 308 258 259
f 308 311 258
f 307 259 255
f 257 260 312
f 313 257 312
f 310 257 313
f 262 312 260
f 315 314 264
f 264 314 263
f 264 258 311
f 264 311 315
f 313 312 265
f 266 313 265
f 316 313 266
f 265 312 262
f 318 317 268
f 268 317 267
f 268 263 314
f 268 314 318
f 270 319 269
f 319 320 269
f 320 266 269
f 320 316 266
f 322 321 272
f 272 321 271
f 272 267 317
f 272 317 322
f 273 323 319
f 273 319 270
f 320 319 324
f 324 319 323
f 326 325 275
f 275 325 274
f 275 271 321
f 275 321 326
f 328 327 277
f 328 277 278
f 273 277 323
f 277 329 323
f 277 327 329
f 323 329 324
f 332 331 330
f 325 332 330
f 279 325 330
f 274 325 279
f 335 334 333
f 334 328 333
f 328 280 333
f 328 278 280
f 330 331 336
f 336 331 337
f 336 281 279
f 336 279 330
f 339 338 283
f 339 283 284
f 333 285 335
f 285 338 335
f 285 283 338
f 285 333 280
f 337 340 336
f 281 336 340
f 341 281 340
f 286 281 341
f 344 343 342
f 289 288 342
f 343 289 342
f 345 289 343
f 284 289 339
f 339 289 345
f 341 346 286
f 286 346 290
f 290 347 291
f 346 347 290
f 291 348 292
f 347 348 291
f 292 349 293
f 348 349 292
f 342 294 344
f 294 349 344
f 294 293 349
f 294 342 288
f 350 295 296
f 297 351 296
f 296 351 350
f 299 352 297
f 297 352 351
f 301 352 299
f 354 353 303
f 303 353 302
f 303 295 350
f 355 303 350
f 354 303 355
f 355 350 351
f 355 351 356
f 356 351 352
f 356 352 357
f 359 357 358
f 358 357 304
f 357 352 304
f 352 301 304
f 306 358 304
f 361 360 309
f 309 360 308
f 309 302 353
f 309 353 361
f 362 359 358
f 358 306 362
f 306 363 362
f 306 310 363
f 360 311 308
f 364 311 360
f 313 363 310
f 313 365 363
f 367 366 315
f 315 366 314
f 315 311 364
f 315 364 367
f 316 365 313
f 316 368 365
f 370 369 318
f 318 369 317
f 318 314 366
f 318 366 370
f 320 368 316
f 320 371 368
f 373 372 322
f 322 372 321
f 322 317 369
f 322 369 373
f 376 375 374
f 377 374 375
f 324 371 320
f 324 378 371
f 380 379 326
f 326 379 325
f 326 321 372
f 326 372 380
f 376 374 327
f 328 376 327
f 381 376 328
f 377 382 374
f 382 327 374
f 382 329 327
f 324 329 378
f 378 329 382
f 384 383 332
f 332 383 331
f 332 325 379
f 332 379 384
f 387 386 385
f 389 388 385
f 389 385 386
f 334 335 388
f 389 334 388
f 390 334 389
f 328 334 381
f 381 334 390
f 383 337 331
f 391 337 383
f 387 385 392
f 387 392 393
f 339 392 338
f 392 388 338
f 392 385 388
f 338 388 335
f 340 337 394
f 337 395 394
f 337 391 395
f 394 341 340
f 397 396 343
f 397 343 344
f 392 345 393
f 345 396 393
f 345 343 396
f 345 392 339
f 395 398 394
f 394 398 341
f 398 346 341
f 398 399 346
f 346 400 347
f 399 400 346
f 347 401 348
f 400 401 347
f 348 402 349
f 401 402 348
f 344 349 397
f 397 349 402
f 403 353 354
f 403 354 404
f 354 405 404
f 354 355 405
f 406 355 356
f 406 405 355
f 408 406 407
f 406 357 407
f 406 356 357
f 359 407 357
f 409 360 361
f 410 409 361
f 410 361 353
f 411 410 353
f 403 411 353
f 411 403 404
f 408 407 412
f 408 412 413
f 362 414 359
f 414 407 359
f 414 412 407
f 363 414 362
f 416 415 409
f 415 360 409
f 415 364 360
f 416 409 410
f 417 413 412
f 419 418 417
f 412 419 417
f 414 419 412
f 365 419 363
f 363 419 414
f 421 420 367
f 367 420 366
f 367 364 415
f 367 415 421
f 418 419 422
f 418 422 423
f 368 422 365
f 365 422 419
f 425 424 370
f 370 424 369
f 370 366 420
f 370 420 425
f 428 427 426
f 426 427 423
f 422 426 423
f 429 426 422
f 371 429 368
f 368 429 422
f 431 430 373
f 373 430 372
f 373 369 424
f 373 424 431
f 428 426 375
f 376 428 375
f 432 428 376
f 375 426 377
f 426 433 377
f 426 429 433
f 378 433 371
f 371 433 429
f 435 434 380
f 380 434 379
f 380 372 430
f 380 430 435
f 381 432 376
f 381 436 432
f 433 382 377
f 382 433 378
f 437 383 384
f 438 437 384
f 379 438 384
f 434 438 379
f 440 439 386
f 440 386 387
f 386 441 389
f 439 441 386
f 389 442 390
f 441 442 389
f 381 390 436
f 436 390 442
f 444 443 437
f 443 383 437
f 443 391 383
f 444 437 438
f 393 440 387
f 393 445 440
f 443 395 391
f 446 395 443
f 449 448 447
f 396 397 447
f 448 396 447
f 450 396 448
f 393 396 445
f 445 396 450
f 446 451 395
f 395 451 398
f 451 453 452
f 399 451 452
f 398 451 399
f 454 400 399
f 454 399 452
f 400 454 455
f 456 400 455
f 401 400 456
f 447 402 449
f 402 456 449
f 402 401 456
f 402 447 397
f 453 457 452
f 452 457 454
f 454 457 458
f 454 458 455
f 459 404 405
f 406 460 405
f 405 460 459
f 408 460 406
f 461 410 411
f 404 459 411
f 459 461 411
f 459 462 461
f 463 459 460
f 462 459 463
f 413 463 408
f 408 463 460
f 465 464 416
f 416 464 415
f 416 410 461
f 466 416 461
f 465 416 466
f 468 467 466
f 461 468 466
f 462 468 461
f 469 462 463
f 468 462 469
f 417 470 413
f 470 463 413
f 470 469 463
f 418 470 417
f 472 471 421
f 421 471 420
f 421 415 464
f 421 464 472
f 473 467 468
f 475 474 473
f 468 475 473
f 469 475 468
f 476 469 470
f 475 469 476
f 423 476 418
f 418 476 470
f 477 424 425
f 478 477 425
f 420 478 425
f 471 478 420
f 474 475 479
f 474 479 480
f 428 479 427
f 479 476 427
f 479 475 476
f 427 476 423
f 481 430 431
f 482 481 431
f 482 431 424
f 483 482 424
f 477 483 424
f 483 477 478
f 480 479 484
f 480 484 485
f 432 484 428
f 428 484 479
f 486 434 435
f 487 486 435
f 487 435 430
f 488 487 430
f 481 488 430
f 488 481 482
f 485 484 489
f 485 489 490
f 436 489 432
f 432 489 484
f 492 491 486
f 491 434 486
f 491 438 434
f 492 486 487
f 494 493 439
f 494 439 440
f 439 495 441
f 493 495 439
f 489 442 490
f 442 495 490
f 442 441 495
f 442 489 436
f 497 496 444
f 444 496 443
f 444 438 491
f 444 491 497
f 500 499 498
f 499 494 498
f 494 445 498
f 494 440 445
f 496 446 443
f 501 446 496
f 503 502 448
f 503 448 449
f 498 450 500
f 450 502 500
f 450 448 502
f 450 498 445
f 501 504 446
f 446 504 451
f 453 451 504
f 453 504 505
f 508 507 506
f 456 455 506
f 507 456 506
f 509 456 507
f 449 456 503
f 503 456 509
f 505 510 453
f 453 510 457
f 506 458 508
f 458 510 508
f 458 457 510
f 458 506 455
f 511 464 465
f 466 512 465
f 465 512 511
f 467 512 466
f 513 471 472
f 464 511 472
f 511 513 472
f 511 514 513
f 515 511 512
f 514 511 515
f 473 516 467
f 516 512 467
f 516 515 512
f 474 516 473
f 517 478 513
f 513 478 471
f 518 513 514
f 517 513 518
f 519 514 515
f 518 514 519
f 520 515 516
f 519 515 520
f 480 520 474
f 474 520 516
f 521 482 483
f 478 517 483
f 517 521 483
f 517 522 521
f 523 517 518
f 522 517 523
f 524 518 519
f 523 518 524
f 525 519 520
f 524 519 525
f 485 525 480
f 480 525 520
f 526 487 488
f 482 521 488
f 521 526 488
f 521 527 526
f 522 529 528
f 527 522 528
f 521 522 527
f 529 522 523
f 529 523 530
f 530 523 524
f 530 524 531
f 533 532 531
f 524 533 531
f 525 533 524
f 490 533 485
f 485 533 525
f 534 491 492
f 535 534 492
f 535 492 487
f 536 535 487
f 526 536 487
f 536 526 527
f 536 527 537
f 537 527 528
f 494 538 493
f 539 532 533
f 493 539 533
f 495 493 533
f 539 493 538
f 495 533 490
f 540 496 497
f 541 540 497
f 541 497 491
f 542 541 491
f 534 542 491
f 542 534 535
f 544 543 499
f 544 499 500
f 494 499 538
f 499 545 538
f 499 543 545
f 538 545 539
f 547 546 540
f 546 496 540
f 546 501 496
f 547 540 541
f 549 548 502
f 549 502 503
f 500 502 544
f 544 502 548
f 546 550 501
f 501 550 504
f 552 551 505
f 504 552 505
f 550 552 504
f 507 508 551
f 552 507 551
f 553 507 552
f 507 554 509
f 553 554 507
f 503 509 549
f 549 509 554
f 551 510 505
f 510 551 508
f 555 528 529
f 530 556 529
f 529 556 555
f 531 557 530
f 530 557 556
f 532 557 531
f 558 535 536
f 558 536 559
f 536 560 559
f 536 537 560
f 560 537 528
f 561 560 528
f 555 561 528
f 560 561 562
f 563 555 556
f 561 555 563
f 564 556 557
f 563 556 564
f 539 564 532
f 532 564 557
f 565 541 542
f 566 565 542
f 566 542 535
f 567 566 535
f 558 567 535
f 567 558 559
f 562 561 568
f 562 568 569
f 544 568 543
f 568 563 543
f 568 561 563
f 543 563 545
f 545 563 564
f 545 564 539
f 571 570 547
f 547 570 546
f 571 547 541
f 572 571 541
f 565 572 541
f 571 572 573
f 565 566 574
f 565 574 572
f 577 576 575
f 575 576 569
f 575 569 568
f 549 575 568
f 548 549 568
f 548 568 544
f 570 578 546
f 546 578 550
f 572 552 573
f 552 578 573
f 552 550 578
f 574 579 572
f 579 552 572
f 579 553 552
f 575 554 577
f 554 579 577
f 554 553 579
f 554 575 549
f 580 559 560
f 562 580 560
f 581 566 567
f 559 580 567
f 580 581 567
f 580 582 581
f 569 582 562
f 562 582 580
f 583 570 571
f 573 583 571
f 584 574 581
f 581 574 566
f 577 584 576
f 584 582 576
f 584 581 582
f 576 582 569
f 583 578 570
f 578 583 573
f 584 579 574
f 579 584 577
