v 32.8 -9.0 -6.0
v 33.0 -9.0 -6.2
v 33.0 -9.2 -6.0
v 33.0 -9.3 -5.0
v 32.8 -9.0 -5.0
v 33.0 -9.0 -4.7
v 32.6 -8.0 -6.0
v 33.0 -8.0 -6.5
v 32.6 -8.0 -5.0
v 33.0 -8.0 -4.2
v 33.0 -8.0 -3.0
v 33.0 -8.0 -3.2
v 33.0 -8.0 -3.0
v 33.0 -8.0 -3.0
v 32.9 -7.0 -7.0
v 33.0 -7.0 -7.1
v 33.0 -7.1 -7.0
v 32.6 -7.0 -6.0
v 32.6 -7.0 -5.0
v 33.0 -7.8 -4.0
v 32.6 -7.0 -4.0
v 32.7 -7.0 -3.0
v 33.0 -7.0 -2.6
v 33.0 -6.9 -7.0
v 33.0 -6.5 -6.0
v 33.0 -6.4 -5.0
v 32.7 -6.0 -4.0
v 33.0 -6.0 -4.5
v 32.8 -6.0 -3.0
v 33.0 -6.0 -2.8
v 33.0 -5.7 -4.0
v 33.0 -5.8 -3.0
v 33.8 -10.0 -5.0
v 34.0 -10.0 -5.4
v 34.0 -10.3 -5.0
v 34.0 -10.0 -4.6
v 34.0 -9.0 -6.6
v 34.0 -9.6 -6.0
v 34.0 -9.5 -4.0
v 33.6 -9.0 -4.0
v 34.0 -9.0 -3.4
v 33.5 -8.0 -7.0
v 34.0 -8.0 -7.4
v 34.0 -8.5 -7.0
v 33.1 -8.0 -4.0
v 34.0 -8.6 -3.0
v 34.0 -8.0 -2.4
v 34.0 -7.0 -7.6
v 34.0 -7.3 -2.0
v 33.8 -7.0 -2.0
v 34.0 -7.0 -1.9
v 33.5 -6.0 -7.0
v 34.0 -6.0 -7.5
v 33.4 -6.0 -6.0
v 33.3 -6.0 -5.0
v 34.0 -6.8 -2.0
v 34.0 -6.0 -2.5
v 33.8 -5.0 -7.0
v 34.0 -5.0 -7.3
v 33.6 -5.0 -6.0
v 33.6 -5.0 -5.0
v 33.7 -5.0 -4.0
v 34.0 -5.0 -3.7
v 34.0 -5.5 -3.0
v 34.0 -4.7 -7.0
v 34.0 -4.6 -6.0
v 34.0 -4.6 -5.0
v 34.0 -4.8 -4.0
v 34.7 -14.0 -3.0
v 35.0 -14.0 -3.4
v 35.0 -14.3 -3.0
v 35.0 -14.2 -2.0
v 34.8 -14.0 -2.0
v 35.0 -14.0 -1.7
v 34.8 -13.0 -5.0
v 35.0 -13.0 -5.4
v 35.0 -13.3 -5.0
v 35.0 -13.6 -4.0
v 34.6 -13.0 -4.0
v 34.5 -13.0 -3.0
v 34.6 -13.0 -2.0
v 35.0 -13.0 -1.6
v 34.7 -12.0 -6.0
v 35.0 -12.0 -6.3
v 35.0 -12.4 -6.0
v 34.5 -12.0 -5.0
v 34.5 -12.0 -4.0
v 34.5 -12.0 -3.0
v 34.6 -12.0 -2.0
v 35.0 -12.0 -1.6
v 34.6 -11.0 -6.0
v 35.0 -11.0 -6.5
v 34.4 -11.0 -5.0
v 34.5 -11.0 -4.0
v 34.5 -11.0 -3.0
v 34.6 -11.0 -2.0
v 35.0 -11.0 -1.4
v 34.4 -10.0 -6.0
v 35.0 -10.0 -6.7
v 34.3 -10.0 -4.0
v 34.5 -10.0 -3.0
v 34.5 -10.0 -2.0
v 35.0 -10.5 -1.0
v 34.7 -10.0 -1.0
v 35.0 -10.0 -0.6
v 34.5 -9.0 -7.0
v 35.0 -9.0 -7.6
v 35.0 -9.6 -7.0
v 34.3 -9.0 -3.0
v 34.5 -9.0 -2.0
v 34.5 -9.0 -1.0
v 35.0 -9.1 0.0
v 34.9 -9.0 0.0
v 35.0 -9.0 0.1
v 34.6 -8.0 -8.0
v 35.0 -8.0 -8.4
v 35.0 -8.5 -8.0
v 34.3 -8.0 -2.0
v 34.7 -8.0 -1.0
v 35.0 -8.0 -0.7
v 35.0 -8.9 0.0
v 34.5 -7.0 -8.0
v 35.0 -7.0 -8.5
v 35.0 -7.7 -1.0
v 35.0 -7.0 -1.5
v 34.5 -6.0 -8.0
v 35.0 -6.0 -8.6
v 35.0 -6.5 -2.0
v 35.0 -6.0 -2.5
v 34.7 -5.0 -9.0
v 35.0 -5.0 -9.5
v 35.0 -5.5 -9.0
v 34.5 -5.0 -8.0
v 35.0 -5.5 -3.0
v 35.0 -5.0 -3.5
v 34.8 -4.0 -11.0
v 35.0 -4.0 -11.3
v 35.0 -4.2 -11.0
v 35.0 -4.6 -10.0
v 34.6 -4.0 -10.0
v 34.6 -4.0 -9.0
v 35.0 -4.0 -8.3
v 35.0 -4.2 -8.0
v 34.9 -4.0 -7.0
v 35.0 -4.0 -7.4
v 35.0 -4.0 -6.8
v 35.0 -4.4 -6.0
v 35.0 -4.5 -5.0
v 35.0 -4.6 -4.0
v 34.8 -3.0 -11.0
v 35.0 -3.0 -11.3
v 34.6 -3.0 -10.0
v 34.8 -3.0 -9.0
v 35.0 -3.0 -8.8
v 35.0 -3.7 -7.0
v 35.0 -2.7 -11.0
v 35.0 -2.6 -10.0
v 35.0 -2.8 -9.0
v 35.9 -15.0 -3.0
v 36.0 -15.0 -3.1
v 36.0 -15.1 -3.0
v 36.0 -15.0 -2.9
v 35.5 -14.0 -4.0
v 36.0 -14.0 -4.4
v 36.0 -14.4 -4.0
v 36.0 -14.6 -2.0
v 36.0 -14.2 -1.0
v 35.7 -14.0 -1.0
v 36.0 -14.0 -0.7
v 35.8 -13.0 -6.0
v 36.0 -13.0 -6.2
v 36.0 -13.1 -6.0
v 36.0 -13.6 -5.0
v 35.6 -13.0 -1.0
v 36.0 -13.0 -0.6
v 35.7 -12.0 -7.0
v 36.0 -12.0 -7.3
v 36.0 -12.3 -7.0
v 36.0 -12.3 -1.0
v 36.0 -12.0 -1.1
v 35.7 -11.0 -8.0
v 36.0 -11.0 -8.4
v 36.0 -11.3 -8.0
v 35.4 -11.0 -7.0
v 36.0 -11.8 -1.0
v 35.5 -11.0 -1.0
v 36.0 -11.0 -0.5
v 35.7 -10.0 -9.0
v 36.0 -10.0 -9.4
v 36.0 -10.4 -9.0
v 35.5 -10.0 -8.0
v 35.3 -10.0 -7.0
v 36.0 -10.4 0.0
v 35.6 -10.0 0.0
v 36.0 -10.0 0.3
v 35.6 -9.0 -9.0
v 36.0 -9.0 -9.5
v 35.3 -9.0 -8.0
v 36.0 -9.0 0.4
v 35.5 -8.0 -9.0
v 36.0 -8.0 -9.6
v 36.0 -8.6 0.0
v 36.0 -8.0 -0.5
v 35.7 -7.0 -10.0
v 36.0 -7.0 -10.4
v 36.0 -7.5 -10.0
v 35.4 -7.0 -9.0
v 36.0 -7.4 -1.0
v 36.0 -7.0 -1.4
v 35.6 -6.0 -10.0
v 36.0 -6.0 -10.5
v 35.3 -6.0 -9.0
v 36.0 -6.4 -2.0
v 36.0 -6.0 -2.4
v 35.4 -5.0 -10.0
v 36.0 -5.0 -10.7
v 36.0 -5.4 -3.0
v 36.0 -5.0 -3.4
v 35.7 -4.0 -12.0
v 36.0 -4.0 -12.3
v 36.0 -4.3 -12.0
v 36.0 -4.7 -11.0
v 35.3 -4.0 -8.0
v 36.0 -4.0 -7.4
v 36.0 -4.3 -7.0
v 35.3 -4.0 -7.0
v 36.0 -4.5 -6.0
v 36.0 -4.5 -5.0
v 36.0 -4.6 -4.0
v 35.5 -3.0 -12.0
v 36.0 -3.0 -12.5
v 36.0 -3.6 -8.0
v 36.0 -3.0 -8.5
v 35.6 -2.0 -12.0
v 36.0 -2.0 -12.5
v 35.5 -2.0 -11.0
v 35.7 -2.0 -10.0
v 36.0 -2.0 -9.7
v 36.0 -2.5 -9.0
v 35.9 -1.0 -12.0
v 36.0 -1.0 -12.2
v 36.0 -1.0 -11.8
v 36.0 -1.4 -11.0
v 36.0 -1.7 -10.0
v 36.0 -0.9 -12.0
v 37.0 -15.0 -3.3
v 37.0 -15.2 -3.0
v 37.0 -15.0 -2.5
v 37.0 -14.0 -4.5
v 37.0 -14.5 -4.0
v 37.0 -14.7 -2.0
v 37.0 -14.5 -1.0
v 37.0 -14.2 0.0
v 36.7 -14.0 0.0
v 37.0 -14.0 0.2
v 36.3 -13.0 -6.0
v 37.0 -13.0 -5.6
v 37.0 -13.5 -5.0
v 36.6 -13.0 0.0
v 37.0 -13.0 0.4
v 37.0 -12.0 -7.5
v 37.0 -12.4 -7.0
v 37.0 -12.7 -6.0
v 36.2 -12.0 -1.0
v 37.0 -12.0 -0.2
v 37.0 -12.3 0.0
v 36.8 -11.0 -10.0
v 37.0 -11.0 -10.3
v 37.0 -11.2 -10.0
v 37.0 -11.4 -9.0
v 36.5 -11.0 -9.0
v 37.0 -11.6 -8.0
v 37.0 -11.7 0.0
v 36.6 -11.0 0.0
v 37.0 -11.0 0.3
v 36.5 -10.0 -10.0
v 37.0 -10.0 -10.6
v 37.0 -10.0 0.5
v 36.7 -9.0 -11.0
v 37.0 -9.0 -11.5
v 37.0 -9.5 -11.0
v 36.4 -9.0 -10.0
v 37.0 -9.0 0.4
v 36.9 -8.0 -12.0
v 37.0 -8.0 -12.1
v 37.0 -8.2 -12.0
v 36.5 -8.0 -11.0
v 36.3 -8.0 -10.0
v 37.0 -8.5 0.0
v 37.0 -8.0 -0.4
v 37.0 -7.8 -12.0
v 36.5 -7.0 -11.0
v 37.0 -7.0 -11.6
v 36.5 -7.0 -1.0
v 37.0 -7.0 -0.7
v 36.5 -6.0 -11.0
v 37.0 -6.0 -11.5
v 36.5 -6.0 -2.0
v 37.0 -6.0 -1.6
v 37.0 -6.7 -1.0
v 36.9 -5.0 -13.0
v 37.0 -5.0 -13.2
v 37.0 -5.1 -13.0
v 37.0 -5.0 -12.4
v 36.3 -5.0 -11.0
v 37.0 -5.0 -11.9
v 36.5 -5.0 -3.0
v 37.0 -5.0 -2.7
v 37.0 -5.6 -2.0
v 36.7 -4.0 -14.0
v 37.0 -4.0 -14.5
v 37.0 -4.4 -14.0
v 36.4 -4.0 -13.0
v 37.0 -4.9 -12.0
v 37.0 -4.2 -7.0
v 37.0 -4.0 -7.3
v 37.0 -4.4 -6.0
v 37.0 -4.4 -5.0
v 37.0 -4.5 -4.0
v 37.0 -4.7 -3.0
v 36.7 -3.0 -15.0
v 37.0 -3.0 -15.4
v 37.0 -3.4 -15.0
v 36.5 -3.0 -14.0
v 36.4 -3.0 -13.0
v 37.0 -3.5 -8.0
v 37.0 -3.0 -8.5
v 36.6 -2.0 -15.0
v 37.0 -2.0 -15.6
v 36.5 -2.0 -14.0
v 36.4 -2.0 -13.0
v 37.0 -2.5 -9.0
v 37.0 -2.0 -9.5
v 36.8 -1.0 -16.0
v 37.0 -1.0 -16.3
v 37.0 -1.5 -16.0
v 36.6 -1.0 -15.0
v 36.5 -1.0 -14.0
v 36.4 -1.0 -13.0
v 36.5 -1.0 -11.0
v 37.0 -1.0 -10.6
v 37.0 -1.5 -10.0
v 36.9 0.0 -16.0
v 37.0 0.0 -16.1
v 37.0 0.0 -15.8
v 37.0 -0.3 -15.0
v 36.7 0.0 -14.0
v 37.0 0.0 -14.6
v 36.6 0.0 -13.0
v 36.7 0.0 -12.0
v 37.0 0.0 -11.6
v 37.0 -0.5 -11.0
v 37.0 0.1 -16.0
v 37.0 0.3 -14.0
v 37.0 0.4 -13.0
v 37.0 0.3 -12.0
v 38.0 -15.0 -3.3
v 38.0 -15.2 -3.0
v 38.0 -15.2 -2.0
v 37.5 -15.0 -2.0
v 38.0 -15.0 -1.7
v 38.0 -14.0 -4.5
v 38.0 -14.5 -4.0
v 38.0 -14.6 -1.0
v 38.0 -14.4 0.0
v 38.0 -14.0 0.6
v 38.0 -13.0 -5.5
v 38.0 -13.5 -5.0
v 38.0 -13.5 1.0
v 37.6 -13.0 1.0
v 38.0 -13.0 1.3
v 38.0 -12.0 -7.4
v 38.0 -12.3 -7.0
v 38.0 -12.6 -6.0
v 37.2 -12.0 0.0
v 37.8 -12.0 1.0
v 38.0 -12.0 1.2
v 37.7 -11.0 -11.0
v 38.0 -11.0 -11.3
v 38.0 -11.2 -11.0
v 38.0 -11.5 -10.0
v 38.0 -11.5 -9.0
v 38.0 -11.6 -8.0
v 38.0 -11.7 1.0
v 38.0 -11.0 0.6
v 37.7 -10.0 -12.0
v 38.0 -10.0 -12.3
v 38.0 -10.3 -12.0
v 37.3 -10.0 -11.0
v 38.0 -10.0 0.5
v 37.4 -9.0 -12.0
v 38.0 -9.0 -12.5
v 38.0 -9.0 0.4
v 38.0 -8.0 -12.6
v 38.0 -8.5 0.0
v 38.0 -8.0 -0.4
v 37.4 -7.0 -12.0
v 38.0 -7.0 -12.5
v 38.0 -7.0 -0.6
v 37.4 -6.0 -12.0
v 38.0 -6.0 -12.7
v 38.0 -6.5 -1.0
v 38.0 -6.0 -1.5
v 37.6 -5.0 -14.0
v 38.0 -5.0 -14.4
v 38.0 -5.4 -14.0
v 38.0 -5.7 -13.0
v 37.1 -5.0 -12.0
v 38.0 -5.5 -2.0
v 38.0 -5.0 -2.5
v 37.8 -4.0 -16.0
v 38.0 -4.0 -16.3
v 38.0 -4.2 -16.0
v 38.0 -4.5 -15.0
v 37.4 -4.0 -15.0
v 37.3 -4.0 -7.0
v 37.5 -4.0 -6.0
v 37.7 -4.0 -5.0
v 38.0 -4.0 -4.7
v 38.0 -4.4 -4.0
v 38.0 -4.6 -3.0
v 37.5 -3.0 -16.0
v 38.0 -3.0 -16.6
v 38.0 -3.4 -8.0
v 38.0 -3.0 -8.5
v 38.0 -3.6 -7.0
v 38.0 -3.6 -6.0
v 38.0 -3.7 -5.0
v 37.7 -2.0 -17.0
v 38.0 -2.0 -17.3
v 38.0 -2.5 -17.0
v 37.3 -2.0 -16.0
v 38.0 -2.5 -9.0
v 38.0 -2.0 -9.5
v 37.5 -1.0 -17.0
v 38.0 -1.0 -17.5
v 38.0 -1.5 -10.0
v 38.0 -1.0 -10.4
v 37.7 0.0 -17.0
v 38.0 0.0 -17.3
v 37.3 0.0 -15.0
v 37.8 0.0 -11.0
v 38.0 0.0 -10.9
v 38.0 0.3 -17.0
v 38.0 0.6 -16.0
v 38.0 0.5 -15.0
v 37.9 1.0 -14.0
v 38.0 1.0 -14.2
v 37.7 1.0 -13.0
v 38.0 1.0 -12.7
v 38.0 0.6 -12.0
v 38.0 0.1 -11.0
v 38.0 1.1 -14.0
v 38.0 1.2 -13.0
v 38.4 -15.0 -3.0
v 39.0 -15.0 -2.2
v 39.0 -15.1 -2.0
v 39.0 -15.0 -1.8
v 39.0 -14.0 -4.4
v 39.0 -14.3 -4.0
v 39.0 -14.7 -3.0
v 39.0 -14.6 -1.0
v 39.0 -14.5 0.0
v 39.0 -14.3 1.0
v 38.6 -14.0 1.0
v 39.0 -14.0 1.3
v 39.0 -13.0 -5.5
v 39.0 -13.5 -5.0
v 39.0 -13.1 2.0
v 38.9 -13.0 2.0
v 39.0 -13.0 2.1
v 38.5 -12.0 -7.0
v 39.0 -12.0 -6.6
v 39.0 -12.5 -6.0
v 39.0 -12.9 2.0
v 39.0 -12.0 1.5
v 39.0 -11.0 -11.5
v 39.0 -11.4 -11.0
v 39.0 -11.4 -10.0
v 39.0 -11.4 -9.0
v 39.0 -11.5 -8.0
v 39.0 -11.7 -7.0
v 39.0 -11.4 1.0
v 39.0 -11.0 0.7
v 38.9 -10.0 -13.0
v 39.0 -10.0 -13.1
v 39.0 -10.1 -13.0
v 39.0 -10.6 -12.0
v 39.0 -10.0 0.5
v 38.8 -9.0 -14.0
v 39.0 -9.0 -14.2
v 39.0 -9.2 -14.0
v 38.4 -9.0 -13.0
v 39.0 -9.0 0.4
v 38.7 -8.0 -14.0
v 39.0 -8.0 -14.3
v 38.4 -8.0 -13.0
v 39.0 -8.4 0.0
v 39.0 -8.0 -0.3
v 39.0 -7.3 -14.0
v 38.4 -7.0 -13.0
v 39.0 -7.0 -13.8
v 39.0 -7.0 -0.6
v 38.6 -6.0 -14.0
v 39.0 -6.0 -14.4
v 39.0 -6.7 -14.0
v 38.2 -6.0 -13.0
v 39.0 -6.5 -1.0
v 39.0 -6.0 -1.5
v 39.0 -5.0 -14.8
v 39.0 -5.5 -2.0
v 39.0 -5.0 -2.5
v 38.7 -4.0 -17.0
v 39.0 -4.0 -17.2
v 39.0 -4.2 -17.0
v 39.0 -4.6 -16.0
v 39.0 -4.8 -15.0
v 39.0 -4.3 -4.0
v 39.0 -4.0 -4.4
v 39.0 -4.6 -3.0
v 38.4 -3.0 -17.0
v 39.0 -3.0 -17.6
v 39.0 -3.4 -8.0
v 39.0 -3.0 -8.5
v 39.0 -3.5 -7.0
v 39.0 -3.4 -6.0
v 39.0 -3.6 -5.0
v 38.6 -2.0 -18.0
v 39.0 -2.0 -18.4
v 39.0 -2.5 -18.0
v 39.0 -2.5 -9.0
v 39.0 -2.0 -9.5
v 38.5 -1.0 -18.0
v 39.0 -1.0 -18.5
v 39.0 -1.4 -10.0
v 39.0 -1.0 -10.4
v 38.7 0.0 -18.0
v 39.0 0.0 -18.3
v 38.3 0.0 -11.0
v 39.0 -0.2 -11.0
v 39.0 0.0 -11.3
v 39.0 0.4 -18.0
v 38.7 1.0 -17.0
v 39.0 1.0 -17.4
v 38.7 1.0 -16.0
v 39.0 1.0 -15.6
v 39.0 0.6 -15.0
v 38.2 1.0 -14.0
v 39.0 0.7 -14.0
v 39.0 1.0 -13.2
v 39.0 0.5 -12.0
v 39.0 1.0 -12.8
v 39.0 1.3 -17.0
v 39.0 1.2 -16.0
v 39.0 1.1 -13.0
v 39.2 -15.0 -2.0
v 39.7 -14.0 -4.0
v 40.0 -14.0 -3.8
v 40.0 -14.5 -3.0
v 40.0 -14.7 -2.0
v 40.0 -14.5 -1.0
v 40.0 -14.5 0.0
v 40.0 -14.2 1.0
v 40.0 -14.0 1.3
v 40.0 -13.0 -5.5
v 40.0 -13.5 -5.0
v 40.0 -13.9 -4.0
v 40.0 -13.3 2.0
v 40.0 -13.0 2.2
v 40.0 -12.0 -6.5
v 40.0 -12.5 -6.0
v 40.0 -12.6 2.0
v 40.0 -12.0 1.7
v 40.0 -11.0 -11.1
v 40.0 -11.1 -11.0
v 39.6 -11.0 -10.0
v 40.0 -11.0 -10.8
v 39.6 -11.0 -9.0
v 40.0 -11.0 -8.6
v 40.0 -11.4 -8.0
v 40.0 -11.6 -7.0
v 39.5 -11.0 1.0
v 40.0 -11.0 1.3
v 39.2 -10.0 -13.0
v 40.0 -10.0 -12.6
v 40.0 -10.5 -12.0
v 40.0 -10.6 -10.0
v 40.0 -10.7 -9.0
v 40.0 -10.6 1.0
v 40.0 -10.0 0.6
v 40.0 -9.0 -14.6
v 40.0 -9.4 -14.0
v 40.0 -9.7 -13.0
v 40.0 -9.0 0.4
v 39.6 -8.0 -15.0
v 40.0 -8.0 -15.4
v 40.0 -8.5 -15.0
v 39.8 -8.0 0.0
v 40.0 -8.0 0.1
v 39.9 -7.0 -16.0
v 40.0 -7.0 -16.1
v 40.0 -7.1 -16.0
v 39.5 -7.0 -15.0
v 39.2 -7.0 -14.0
v 40.0 -7.9 0.0
v 40.0 -7.0 -0.6
v 40.0 -6.7 -16.0
v 39.5 -6.0 -15.0
v 40.0 -6.0 -15.8
v 40.0 -6.5 -1.0
v 40.0 -6.0 -1.5
v 39.5 -5.0 -16.0
v 40.0 -5.0 -16.6
v 40.0 -5.7 -16.0
v 39.2 -5.0 -15.0
v 40.0 -5.5 -2.0
v 40.0 -5.0 -2.5
v 40.0 -4.0 -17.6
v 40.0 -4.7 -17.0
v 39.5 -4.0 -4.0
v 40.0 -4.0 -3.6
v 40.0 -4.5 -3.0
v 39.5 -3.0 -18.0
v 40.0 -3.0 -18.4
v 40.0 -3.6 -18.0
v 40.0 -3.4 -8.0
v 40.0 -3.0 -8.5
v 40.0 -3.4 -7.0
v 39.9 -3.0 -6.0
v 40.0 -3.0 -6.1
v 40.0 -3.0 -5.9
v 40.0 -3.4 -5.0
v 40.0 -3.7 -4.0
v 39.7 -2.0 -19.0
v 40.0 -2.0 -19.3
v 40.0 -2.4 -19.0
v 40.0 -2.5 -9.0
v 40.0 -2.0 -9.4
v 40.0 -2.9 -6.0
v 39.7 -1.0 -19.0
v 40.0 -1.0 -19.3
v 39.5 -1.0 -10.0
v 40.0 -1.0 -9.7
v 40.0 -0.7 -19.0
v 40.0 0.0 -18.6
v 39.4 0.0 -11.0
v 40.0 0.0 -10.7
v 40.0 -0.7 -10.0
v 39.6 1.0 -18.0
v 40.0 1.0 -18.3
v 40.0 0.8 -15.0
v 40.0 1.0 -15.3
v 40.0 0.6 -14.0
v 39.3 1.0 -13.0
v 40.0 0.7 -13.0
v 40.0 0.6 -12.0
v 40.0 0.3 -11.0
v 40.0 1.3 -18.0
v 40.0 1.6 -17.0
v 40.0 1.5 -16.0
v 40.8 -15.0 -2.0
v 41.0 -15.0 -2.1
v 41.0 -15.1 -2.0
v 41.0 -15.0 -1.9
v 41.0 -14.0 -5.0
v 41.0 -14.0 -5.0
v 41.0 -14.0 -5.0
v 41.0 -14.3 -4.0
v 40.3 -14.0 -4.0
v 41.0 -14.6 -3.0
v 41.0 -14.6 -1.0
v 41.0 -14.3 0.0
v 40.3 -14.0 1.0
v 41.0 -14.0 0.4
v 41.0 -13.0 -5.6
v 40.9 -13.0 1.0
v 41.0 -13.0 0.9
v 41.0 -13.0 2.0
v 41.0 -13.0 1.6
v 41.0 -13.0 2.0
v 41.0 -12.0 -6.5
v 41.0 -12.5 -6.0
v 41.0 -12.9 1.0
v 40.6 -12.0 2.0
v 41.0 -12.0 2.2
v 40.1 -11.0 -11.0
v 41.0 -11.0 -8.3
v 41.0 -11.2 -8.0
v 41.0 -11.6 -7.0
v 41.0 -11.7 2.0
v 41.0 -11.0 1.3
v 41.0 -10.0 -12.2
v 41.0 -10.1 -12.0
v 40.7 -10.0 -11.0
v 41.0 -10.0 -11.7
v 40.7 -10.0 -10.0
v 41.0 -10.0 -9.5
v 41.0 -10.4 -9.0
v 41.0 -10.7 1.0
v 41.0 -10.0 0.3
v 40.6 -9.0 -15.0
v 41.0 -9.0 -15.3
v 41.0 -9.2 -15.0
v 41.0 -9.5 -14.0
v 41.0 -9.6 -13.0
v 41.0 -9.7 -11.0
v 41.0 -9.7 -10.0
v 40.8 -9.0 -1.0
v 41.0 -9.3 -1.0
v 41.0 -9.0 -1.3
v 40.4 -9.0 0.0
v 41.0 -9.7 0.0
v 41.0 -8.0 -15.7
v 40.7 -8.0 -1.0
v 41.0 -8.0 -1.4
v 40.1 -8.0 0.0
v 41.0 -7.0 -16.5
v 41.0 -7.6 -16.0
v 41.0 -7.2 -1.0
v 41.0 -7.0 -0.9
v 40.7 -6.0 -17.0
v 41.0 -6.0 -17.3
v 41.0 -6.3 -17.0
v 40.2 -6.0 -16.0
v 41.0 -6.9 -1.0
v 41.0 -6.0 -1.7
v 40.7 -5.0 -18.0
v 41.0 -5.0 -18.3
v 41.0 -5.3 -18.0
v 40.3 -5.0 -17.0
v 41.0 -5.7 -2.0
v 41.0 -5.0 -2.7
v 40.9 -4.0 -19.0
v 41.0 -4.0 -19.1
v 41.0 -4.2 -19.0
v 40.3 -4.0 -18.0
v 41.0 -4.6 -3.0
v 41.0 -4.0 -3.6
v 40.9 -3.0 -20.0
v 41.0 -3.0 -20.1
v 41.0 -3.1 -20.0
v 40.8 -3.0 -19.0
v 41.0 -3.4 -8.0
v 41.0 -3.0 -8.4
v 41.0 -3.3 -7.0
v 41.0 -3.0 -6.5
v 41.0 -3.4 -5.0
v 41.0 -3.0 -5.6
v 41.0 -3.6 -4.0
v 40.9 -2.0 -21.0
v 41.0 -2.0 -21.1
v 41.0 -2.1 -21.0
v 40.7 -2.0 -20.0
v 41.0 -2.5 -9.0
v 41.0 -2.0 -9.4
v 41.0 -2.8 -6.0
v 41.0 -1.7 -21.0
v 41.0 -1.6 -20.0
v 41.0 -1.0 -19.6
v 41.0 -1.0 -9.6
v 41.0 -0.5 -19.0
v 41.0 0.0 -18.6
v 41.0 -0.5 -10.0
v 41.0 0.0 -10.5
v 41.0 1.0 -18.5
v 40.3 1.0 -15.0
v 40.5 1.0 -14.0
v 40.5 1.0 -13.0
v 40.7 1.0 -12.0
v 41.0 1.0 -11.7
v 41.0 0.5 -11.0
v 40.7 2.0 -18.0
v 41.0 2.0 -18.2
v 40.5 2.0 -17.0
v 40.8 2.0 -16.0
v 41.0 2.0 -15.9
v 41.0 1.5 -15.0
v 41.0 1.4 -14.0
v 41.0 1.3 -13.0
v 41.0 1.2 -12.0
v 41.0 2.2 -18.0
v 41.0 2.4 -17.0
v 41.0 2.1 -16.0
v 42.0 -15.0 -2.0
v 42.0 -15.0 -2.0
v 42.0 -15.0 -2.0
v 41.0 -14.0 -5.0
v 41.5 -14.0 -4.0
v 42.0 -14.0 -3.5
v 42.0 -14.4 -3.0
v 42.0 -14.5 -1.0
v 41.4 -14.0 0.0
v 42.0 -14.0 -0.4
v 42.0 -13.0 -5.3
v 42.0 -13.3 -5.0
v 42.0 -13.6 -4.0
v 42.0 -13.5 0.0
v 42.0 -13.0 0.4
v 41.0 -13.0 2.0
v 42.0 -12.0 -6.3
v 42.0 -12.3 -6.0
v 42.0 -12.3 1.0
v 41.9 -12.0 2.0
v 42.0 -12.0 1.9
v 41.3 -11.0 -8.0
v 42.0 -11.0 -7.3
v 42.0 -11.3 -7.0
v 41.8 -11.0 -1.0
v 42.0 -11.3 -1.0
v 42.0 -11.0 -1.3
v 41.6 -11.0 0.0
v 42.0 -11.5 0.0
v 41.4 -11.0 1.0
v 42.0 -11.6 1.0
v 41.2 -10.0 -12.0
v 41.4 -10.0 -9.0
v 41.7 -10.0 -8.0
v 42.0 -10.0 -7.7
v 41.5 -10.0 -1.0
v 42.0 -10.0 -1.6
v 41.2 -10.0 0.0
v 42.0 -9.0 -15.4
v 42.0 -9.4 -15.0
v 42.0 -9.5 -14.0
v 42.0 -9.5 -13.0
v 42.0 -9.5 -12.0
v 42.0 -9.4 -11.0
v 42.0 -9.4 -10.0
v 42.0 -9.5 -9.0
v 42.0 -9.7 -8.0
v 41.6 -9.0 -2.0
v 42.0 -9.5 -2.0
v 42.0 -9.0 -2.4
v 41.5 -8.0 -16.0
v 42.0 -8.0 -16.3
v 42.0 -8.4 -16.0
v 41.5 -8.0 -2.0
v 42.0 -8.0 -2.5
v 42.0 -7.0 -16.6
v 41.6 -7.0 -2.0
v 42.0 -7.0 -2.6
v 41.1 -7.0 -1.0
v 42.0 -6.0 -17.5
v 42.0 -6.5 -17.0
v 41.7 -6.0 -3.0
v 42.0 -6.4 -3.0
v 42.0 -6.0 -3.2
v 41.3 -6.0 -2.0
v 42.0 -5.0 -18.4
v 42.0 -5.4 -18.0
v 41.4 -5.0 -3.0
v 42.0 -5.0 -3.4
v 42.0 -4.0 -19.5
v 42.0 -4.5 -19.0
v 42.0 -4.0 -3.7
v 42.0 -3.0 -20.3
v 42.0 -3.3 -20.0
v 42.0 -3.1 -8.0
v 42.0 -3.0 -8.1
v 41.5 -3.0 -7.0
v 42.0 -3.0 -7.9
v 42.0 -3.4 -5.0
v 42.0 -3.0 -5.5
v 42.0 -3.8 -4.0
v 41.4 -2.0 -21.0
v 42.0 -2.2 -20.0
v 41.8 -2.0 -20.0
v 42.0 -2.0 -19.9
v 42.0 -2.3 -9.0
v 42.0 -2.0 -9.2
v 42.0 -2.7 -7.0
v 42.0 -2.6 -6.0
v 42.0 -1.0 -19.6
v 42.0 -1.0 -9.6
v 42.0 -0.3 -19.0
v 42.0 0.0 -18.8
v 42.0 -0.4 -10.0
v 42.0 0.0 -10.4
v 42.0 1.0 -18.6
v 42.0 0.6 -11.0
v 42.0 1.0 -11.5
v 42.0 2.0 -18.4
v 41.2 2.0 -16.0
v 42.0 1.7 -16.0
v 42.0 2.0 -16.5
v 42.0 1.5 -15.0
v 42.0 1.4 -14.0
v 42.0 1.1 -13.0
v 42.0 1.3 -12.0
v 42.0 2.3 -18.0
v 42.0 2.3 -17.0
v 42.0 -15.0 -2.0
v 42.4 -14.0 -3.0
v 42.7 -14.0 -2.0
v 43.0 -14.0 -1.0
v 43.0 -14.0 -1.1
v 43.0 -14.0 -1.0
v 42.3 -13.0 -5.0
v 42.6 -13.0 -4.0
v 43.0 -13.0 -3.3
v 43.0 -13.2 -3.0
v 43.0 -13.6 -2.0
v 42.4 -13.0 0.0
v 43.0 -13.0 -0.7
v 42.3 -12.0 -6.0
v 42.6 -12.0 -5.0
v 43.0 -12.0 -4.1
v 43.0 -12.1 -4.0
v 43.0 -12.0 -3.1
v 43.0 -12.0 -3.0
v 43.0 -12.0 -3.0
v 43.0 -12.0 -3.0
v 42.6 -12.0 -1.0
v 43.0 -12.6 -1.0
v 43.0 -12.0 -1.5
v 42.4 -12.0 0.0
v 42.3 -12.0 1.0
v 42.3 -11.0 -7.0
v 42.6 -11.0 -6.0
v 43.0 -11.0 -5.1
v 43.0 -11.1 -5.0
v 43.0 -11.0 -4.5
v 43.0 -11.0 -4.0
v 43.0 -11.5 -4.0
v 43.0 -12.0 -3.0
v 43.0 -11.0 -3.8
v 43.0 -11.0 -2.6
v 42.6 -11.0 -2.0
v 43.0 -11.5 -2.0
v 42.6 -10.0 -7.0
v 43.0 -10.0 -6.3
v 43.0 -10.3 -6.0
v 43.0 -10.9 -4.0
v 42.4 -10.0 -2.0
v 43.0 -10.0 -2.7
v 43.0 -9.0 -15.3
v 43.0 -9.2 -15.0
v 43.0 -9.4 -14.0
v 43.0 -9.4 -13.0
v 43.0 -9.1 -12.0
v 42.4 -9.0 -11.0
v 43.0 -9.0 -11.9
v 42.4 -9.0 -10.0
v 42.4 -9.0 -9.0
v 42.6 -9.0 -8.0
v 43.0 -9.0 -7.5
v 43.0 -9.5 -7.0
v 42.6 -9.0 -3.0
v 43.0 -9.6 -3.0
v 43.0 -9.0 -3.4
v 43.0 -8.0 -16.3
v 43.0 -8.3 -16.0
v 42.7 -8.0 -12.0
v 43.0 -8.8 -12.0
v 43.0 -8.0 -12.3
v 42.5 -8.0 -11.0
v 42.5 -8.0 -10.0
v 42.7 -8.0 -9.0
v 43.0 -8.0 -8.5
v 43.0 -8.5 -8.0
v 42.5 -8.0 -3.0
v 43.0 -8.0 -3.5
v 43.0 -7.0 -16.6
v 42.8 -7.0 -12.0
v 43.0 -7.0 -12.2
v 42.6 -7.0 -11.0
v 42.7 -7.0 -10.0
v 43.0 -7.0 -9.5
v 43.0 -7.5 -9.0
v 42.4 -7.0 -3.0
v 43.0 -7.0 -3.5
v 43.0 -6.0 -17.3
v 43.0 -6.4 -17.0
v 43.0 -6.7 -12.0
v 43.0 -6.5 -11.0
v 43.0 -6.6 -10.0
v 43.0 -6.0 -3.5
v 42.5 -5.0 -18.0
v 43.0 -5.0 -17.7
v 43.0 -5.0 -3.6
v 43.0 -4.0 -19.3
v 43.0 -4.3 -19.0
v 43.0 -4.7 -18.0
v 42.4 -4.0 -4.0
v 43.0 -4.4 -4.0
v 43.0 -4.0 -4.4
v 43.0 -3.0 -20.1
v 43.0 -3.2 -20.0
v 42.1 -3.0 -8.0
v 43.0 -3.5 -5.0
v 43.0 -3.0 -5.5
v 43.0 -2.4 -20.0
v 43.0 -2.0 -19.9
v 42.3 -2.0 -9.0
v 42.8 -2.0 -8.0
v 43.0 -2.4 -7.0
v 43.0 -2.0 -7.7
v 43.0 -2.6 -6.0
v 42.9 -1.0 -21.0
v 43.0 -1.0 -21.1
v 43.0 -1.1 -21.0
v 43.0 -1.8 -20.0
v 42.5 -1.0 -20.0
v 43.0 -1.5 -9.0
v 43.0 -1.0 -9.4
v 43.0 -1.8 -8.0
v 43.0 -0.8 -21.0
v 43.0 -0.4 -20.0
v 42.3 0.0 -19.0
v 43.0 0.0 -19.7
v 42.7 0.0 -10.0
v 43.0 0.0 -9.9
v 42.5 1.0 -19.0
v 43.0 1.0 -19.4
v 42.6 1.0 -11.0
v 43.0 1.0 -10.7
v 43.0 0.2 -10.0
v 43.0 2.0 -19.0
v 43.0 2.0 -19.0
v 42.5 2.0 -17.0
v 43.0 1.6 -17.0
v 43.0 2.0 -17.7
v 43.0 1.4 -16.0
v 43.0 1.4 -15.0
v 43.0 1.4 -14.0
v 43.0 1.3 -13.0
v 43.0 1.4 -12.0
v 43.0 1.2 -11.0
v 43.0 2.0 -19.0
v 43.0 2.2 -18.0
v 43.0 -14.0 -1.0
v 43.2 -13.0 -3.0
v 43.4 -13.0 -2.0
v 43.3 -13.0 -1.0
v 43.0 -12.0 -4.0
v 43.6 -12.0 -2.0
v 43.0 -11.0 -5.0
v 43.2 -11.0 -3.0
v 43.2 -10.0 -6.0
v 43.0 -10.0 -5.0
v 43.3 -10.0 -4.0
v 43.2 -10.0 -3.0
v 43.3 -9.0 -15.0
v 43.5 -9.0 -14.0
v 43.8 -9.0 -13.0
v 43.1 -9.0 -12.0
v 43.3 -9.0 -7.0
v 43.5 -9.0 -6.0
v 43.6 -9.0 -5.0
v 43.4 -9.0 -4.0
v 43.4 -8.0 -16.0
v 44.0 -8.0 -15.4
v 44.0 -8.3 -15.0
v 44.0 -8.5 -14.0
v 44.0 -8.0 -13.4
v 43.7 -8.0 -13.0
v 43.3 -8.0 -8.0
v 43.6 -8.0 -7.0
v 43.9 -8.0 -6.0
v 44.0 -8.0 -5.6
v 44.0 -8.3 -5.0
v 44.0 -8.0 -4.7
v 43.5 -8.0 -4.0
v 44.0 -7.0 -16.3
v 44.0 -7.4 -16.0
v 44.0 -7.5 -13.0
v 44.0 -7.0 -12.7
v 43.3 -7.0 -9.0
v 43.7 -7.0 -8.0
v 44.0 -7.0 -7.5
v 44.0 -7.4 -7.0
v 44.0 -7.8 -6.0
v 43.6 -7.0 -4.0
v 44.0 -7.0 -4.4
v 43.5 -6.0 -17.0
v 44.0 -6.0 -16.6
v 43.5 -6.0 -12.0
v 44.0 -6.0 -12.5
v 43.4 -6.0 -11.0
v 43.4 -6.0 -10.0
v 43.6 -6.0 -9.0
v 44.0 -6.0 -8.4
v 44.0 -6.5 -8.0
v 44.0 -6.6 -4.0
v 44.0 -6.0 -3.6
v 44.0 -5.0 -17.4
v 44.0 -5.5 -17.0
v 43.6 -5.0 -12.0
v 44.0 -5.0 -12.5
v 43.5 -5.0 -11.0
v 43.5 -5.0 -10.0
v 43.6 -5.0 -9.0
v 44.0 -5.0 -8.5
v 44.0 -5.0 -3.7
v 43.3 -4.0 -19.0
v 43.7 -4.0 -18.0
v 44.0 -4.0 -17.7
v 43.6 -4.0 -12.0
v 44.0 -4.0 -12.6
v 43.6 -4.0 -11.0
v 43.6 -4.0 -10.0
v 43.8 -4.0 -9.0
v 44.0 -4.0 -8.8
v 44.0 -4.7 -4.0
v 44.0 -4.0 -4.6
v 43.2 -3.0 -20.0
v 44.0 -3.0 -19.5
v 44.0 -3.5 -19.0
v 44.0 -3.7 -18.0
v 43.8 -3.0 -15.0
v 44.0 -3.3 -15.0
v 44.0 -3.0 -15.4
v 43.7 -3.0 -14.0
v 44.0 -3.4 -14.0
v 43.6 -3.0 -13.0
v 44.0 -3.6 -13.0
v 43.6 -3.0 -12.0
v 44.0 -3.0 -11.4
v 44.0 -3.4 -11.0
v 44.0 -3.5 -10.0
v 44.0 -3.7 -9.0
v 44.0 -3.6 -5.0
v 44.0 -3.0 -5.7
v 44.0 -2.4 -20.0
v 43.2 -2.0 -20.0
v 44.0 -2.0 -20.3
v 43.7 -2.0 -16.0
v 44.0 -2.5 -16.0
v 44.0 -2.0 -16.5
v 43.6 -2.0 -15.0
v 44.0 -2.0 -14.1
v 44.0 -2.2 -14.0
v 44.0 -2.0 -13.9
v 43.6 -2.0 -13.0
v 43.6 -2.0 -12.0
v 44.0 -2.0 -11.5
v 44.0 -2.5 -7.0
v 44.0 -2.0 -7.5
v 44.0 -2.8 -6.0
v 44.0 -1.0 -21.4
v 44.0 -1.4 -21.0
v 43.7 -1.0 -17.0
v 44.0 -1.4 -17.0
v 44.0 -1.0 -17.3
v 43.5 -1.0 -16.0
v 43.6 -1.0 -15.0
v 44.0 -1.0 -14.3
v 43.6 -1.0 -13.0
v 44.0 -1.0 -13.7
v 43.7 -1.0 -12.0
v 44.0 -1.0 -11.6
v 44.0 -1.4 -9.0
v 44.0 -1.0 -9.6
v 44.0 -1.6 -8.0
v 43.5 0.0 -22.0
v 44.0 0.0 -22.2
v 44.0 -0.2 -22.0
v 43.4 0.0 -21.0
v 43.3 0.0 -20.0
v 43.6 0.0 -17.0
v 44.0 0.0 -17.6
v 43.5 0.0 -16.0
v 43.6 0.0 -15.0
v 44.0 0.0 -14.3
v 43.7 0.0 -13.0
v 44.0 0.0 -13.6
v 44.0 0.0 -12.4
v 44.0 -0.4 -12.0
v 43.3 0.0 -10.0
v 44.0 -0.5 -10.0
v 44.0 0.0 -10.5
v 43.8 1.0 -22.0
v 44.0 1.0 -22.2
v 43.7 1.0 -21.0
v 43.7 1.0 -20.0
v 43.7 1.0 -18.0
v 44.0 0.5 -18.0
v 44.0 1.0 -18.6
v 43.4 1.0 -17.0
v 43.4 1.0 -16.0
v 43.4 1.0 -15.0
v 44.0 1.0 -14.0
v 43.4 1.0 -13.0
v 44.0 1.0 -14.0
v 44.0 0.4 -12.0
v 43.6 1.0 -12.0
v 44.0 1.0 -11.2
v 44.0 1.0 -10.9
v 43.9 2.0 -22.0
v 44.0 2.0 -22.1
v 44.0 2.0 -21.1
v 44.0 2.0 -21.0
v 44.0 1.3 -20.0
v 44.0 1.3 -19.0
v 43.0 2.0 -19.0
v 43.2 2.0 -18.0
v 44.0 1.0 -14.0
v 44.0 1.1 -11.0
v 44.0 2.2 -22.0
v 44.3 -8.0 -15.0
v 44.3 -8.0 -14.0
v 44.3 -8.0 -5.0
v 44.2 -7.0 -16.0
v 44.5 -7.0 -15.0
v 44.5 -7.0 -14.0
v 44.2 -7.0 -13.0
v 44.5 -7.0 -7.0
v 45.0 -7.0 -6.4
v 45.0 -7.7 -6.0
v 44.6 -7.0 -5.0
v 45.0 -7.0 -5.6
v 44.4 -6.0 -16.0
v 44.5 -6.0 -15.0
v 44.5 -6.0 -14.0
v 44.4 -6.0 -13.0
v 44.4 -6.0 -8.0
v 45.0 -6.0 -7.3
v 45.0 -6.4 -7.0
v 44.9 -6.0 -5.0
v 45.0 -6.0 -5.2
v 45.0 -6.0 -4.0
v 45.0 -6.0 -4.3
v 45.0 -6.0 -4.0
v 44.7 -5.0 -17.0
v 44.6 -5.0 -16.0
v 44.5 -5.0 -15.0
v 44.5 -5.0 -14.0
v 44.4 -5.0 -13.0
v 44.6 -5.0 -8.0
v 45.0 -5.0 -7.3
v 44.9 -5.0 -6.0
v 45.0 -5.3 -6.0
v 45.0 -5.0 -6.4
v 45.0 -5.8 -5.0
v 45.0 -5.0 -5.8
v 45.0 -5.0 -4.5
v 44.4 -5.0 -4.0
v 45.0 -5.9 -4.0
v 44.5 -4.0 -17.0
v 44.5 -4.0 -16.0
v 44.4 -4.0 -15.0
v 44.4 -4.0 -14.0
v 44.3 -4.0 -13.0
v 45.0 -4.0 -8.1
v 45.0 -4.1 -8.0
v 45.0 -4.0 -7.8
v 44.7 -4.0 -7.0
v 45.0 -4.7 -7.0
v 44.6 -4.0 -6.0
v 45.0 -4.0 -5.3
v 45.0 -4.0 -4.8
v 45.0 -3.0 -19.2
v 45.0 -3.2 -19.0
v 45.0 -3.2 -18.0
v 44.6 -3.0 -17.0
v 45.0 -3.0 -17.7
v 44.3 -3.0 -16.0
v 44.3 -3.0 -11.0
v 44.5 -3.0 -10.0
v 44.6 -3.0 -9.0
v 45.0 -3.0 -8.4
v 44.5 -3.0 -7.0
v 45.0 -3.0 -7.7
v 44.2 -3.0 -6.0
v 45.0 -3.8 -5.0
v 44.4 -2.0 -20.0
v 45.0 -2.0 -19.6
v 44.4 -2.0 -17.0
v 45.0 -2.0 -17.7
v 44.1 -2.0 -14.0
v 44.5 -2.0 -11.0
v 45.0 -2.0 -10.1
v 45.0 -2.1 -10.0
v 45.0 -2.4 -9.0
v 45.0 -2.0 -7.9
v 45.0 -1.0 -21.2
v 45.0 -1.2 -21.0
v 45.0 -1.6 -20.0
v 44.6 -1.0 -18.0
v 45.0 -1.6 -18.0
v 45.0 -1.0 -18.5
v 44.2 -1.0 -14.0
v 44.4 -1.0 -11.0
v 45.0 -1.9 -10.0
v 44.4 -1.0 -10.0
v 45.0 -1.8 -9.0
v 45.0 -1.9 -8.0
v 44.2 0.0 -22.0
v 45.0 0.0 -21.3
v 44.8 0.0 -19.0
v 45.0 -0.4 -19.0
v 45.0 0.0 -19.4
v 44.3 0.0 -18.0
v 44.2 0.0 -14.0
v 44.2 0.0 -12.0
v 44.4 0.0 -11.0
v 44.2 1.0 -22.0
v 45.0 0.3 -21.0
v 44.4 1.0 -21.0
v 44.3 1.0 -20.0
v 45.0 0.4 -20.0
v 44.3 1.0 -19.0
v 44.0 1.0 -14.0
v 44.1 1.0 -11.0
v 44.1 2.0 -22.0
v 45.3 -7.0 -6.0
v 45.3 -6.0 -7.0
v 45.8 -6.0 -6.0
v 45.1 -6.0 -4.0
v 45.2 -5.0 -7.0
v 46.0 -5.0 -5.0
v 46.0 -5.0 -5.0
v 46.0 -5.0 -5.0
v 45.1 -4.0 -8.0
v 46.0 -4.9 -5.0
v 45.7 -4.0 -5.0
v 45.2 -3.0 -19.0
v 45.2 -3.0 -18.0
v 45.2 -3.0 -8.0
v 45.4 -2.0 -19.0
v 45.3 -2.0 -18.0
v 45.1 -2.0 -10.0
v 45.2 -2.0 -9.0
v 45.1 -2.0 -8.0
v 45.2 -1.0 -21.0
v 45.4 -1.0 -20.0
v 45.3 -1.0 -19.0
v 45.2 0.0 -21.0
v 45.3 0.0 -20.0
v 46.0 -5.0 -5.0
f 3 2 1
f 5 4 1
f 1 4 3
f 5 6 4
f 1 2 7
f 7 2 8
f 1 9 5
f 1 7 9
f 6 5 10
f 10 5 9
f 13 12 11
f 11 14 13
f 17 16 15
f 17 15 8
f 15 7 8
f 15 18 7
f 7 19 9
f 7 18 19
f 10 9 20
f 9 21 20
f 9 19 21
f 20 21 12
f 21 11 12
f 21 22 11
f 14 11 23
f 23 11 22
f 16 24 15
f 15 24 18
f 18 24 25
f 18 25 19
f 19 25 26
f 28 27 26
f 27 19 26
f 27 21 19
f 21 29 22
f 21 27 29
f 23 22 30
f 30 22 29
f 28 31 27
f 27 31 29
f 29 31 32
f 29 32 30
f 35 34 33
f 33 36 35
f 38 37 3
f 3 37 2
f 4 33 34
f 38 4 34
f 3 4 38
f 40 39 6
f 6 39 4
f 39 36 4
f 36 33 4
f 40 41 39
f 44 43 42
f 37 44 42
f 8 37 42
f 2 37 8
f 10 45 40
f 10 40 6
f 13 46 12
f 46 40 12
f 40 45 12
f 40 46 41
f 13 14 46
f 46 14 47
f 42 43 17
f 43 16 17
f 43 48 16
f 42 17 8
f 20 45 10
f 45 20 12
f 23 50 49
f 47 23 49
f 14 23 47
f 50 51 49
f 24 16 52
f 16 53 52
f 16 48 53
f 54 25 24
f 54 24 52
f 55 26 25
f 55 25 54
f 55 28 26
f 57 56 50
f 23 57 50
f 30 57 23
f 50 56 51
f 52 53 58
f 58 53 59
f 52 60 54
f 52 58 60
f 54 61 55
f 54 60 61
f 62 31 28
f 55 62 28
f 61 62 55
f 31 62 63
f 64 31 63
f 32 31 64
f 30 32 57
f 57 32 64
f 59 65 58
f 58 65 60
f 60 65 66
f 60 66 61
f 61 66 67
f 61 67 62
f 62 67 68
f 62 68 63
f 71 70 69
f 73 72 69
f 69 72 71
f 73 74 72
f 77 76 75
f 79 78 75
f 75 78 77
f 78 79 70
f 79 69 70
f 79 80 69
f 69 81 73
f 69 80 81
f 74 73 82
f 82 73 81
f 85 84 83
f 85 83 76
f 83 75 76
f 83 86 75
f 75 87 79
f 75 86 87
f 79 88 80
f 79 87 88
f 80 89 81
f 80 88 89
f 82 81 90
f 90 81 89
f 83 84 91
f 91 84 92
f 83 93 86
f 83 91 93
f 86 94 87
f 86 93 94
f 87 95 88
f 87 94 95
f 88 96 89
f 88 95 96
f 90 89 97
f 97 89 96
f 91 92 98
f 98 92 99
f 98 34 35
f 93 98 35
f 91 98 93
f 93 35 36
f 100 93 36
f 94 93 100
f 94 101 95
f 94 100 101
f 95 102 96
f 95 101 102
f 97 96 103
f 96 104 103
f 96 102 104
f 104 105 103
f 108 107 106
f 108 106 99
f 99 106 98
f 106 37 98
f 37 38 98
f 98 38 34
f 39 100 36
f 100 39 41
f 109 100 41
f 101 100 109
f 101 110 102
f 101 109 110
f 102 111 104
f 102 110 111
f 105 104 112
f 104 113 112
f 104 111 113
f 113 114 112
f 117 116 115
f 117 115 107
f 107 115 106
f 115 43 106
f 43 44 106
f 106 44 37
f 46 109 41
f 109 46 47
f 118 109 47
f 110 109 118
f 110 119 111
f 110 118 119
f 121 113 120
f 113 119 120
f 113 111 119
f 113 121 114
f 115 116 122
f 122 116 123
f 122 48 43
f 122 43 115
f 49 118 47
f 119 118 124
f 118 51 124
f 51 125 124
f 51 118 49
f 119 124 120
f 122 123 126
f 126 123 127
f 126 53 48
f 126 48 122
f 129 128 56
f 129 56 57
f 51 56 125
f 125 56 128
f 132 131 130
f 132 130 127
f 130 126 127
f 130 133 126
f 133 59 53
f 133 53 126
f 135 134 64
f 135 64 63
f 57 64 129
f 129 64 134
f 138 137 136
f 140 139 136
f 136 139 138
f 139 140 131
f 140 130 131
f 140 141 130
f 143 133 142
f 133 141 142
f 133 130 141
f 143 145 144
f 143 144 65
f 133 143 65
f 59 133 65
f 65 144 146
f 147 65 146
f 66 65 147
f 66 148 67
f 147 148 66
f 67 149 68
f 148 149 67
f 63 68 135
f 135 68 149
f 136 137 150
f 150 137 151
f 136 152 140
f 136 150 152
f 140 153 141
f 140 152 153
f 142 141 154
f 154 141 153
f 145 155 144
f 144 155 146
f 151 156 150
f 150 156 152
f 152 156 157
f 152 157 153
f 153 157 158
f 153 158 154
f 161 160 159
f 159 162 161
f 165 164 163
f 165 163 160
f 160 163 159
f 163 70 159
f 70 71 159
f 166 162 159
f 71 166 159
f 72 166 71
f 168 167 74
f 167 72 74
f 167 166 72
f 168 169 167
f 172 171 170
f 76 77 170
f 77 172 170
f 77 173 172
f 78 163 164
f 173 78 164
f 77 78 173
f 163 78 70
f 82 174 168
f 82 168 74
f 169 168 175
f 175 168 174
f 178 177 176
f 178 176 171
f 171 176 170
f 176 84 170
f 84 85 170
f 170 85 76
f 180 179 174
f 82 180 174
f 90 180 82
f 174 179 175
f 183 182 181
f 183 181 177
f 181 176 177
f 181 184 176
f 184 92 84
f 184 84 176
f 97 186 185
f 180 97 185
f 90 97 180
f 186 187 185
f 190 189 188
f 190 188 182
f 188 181 182
f 188 191 181
f 181 192 184
f 181 191 192
f 192 99 92
f 192 92 184
f 103 186 97
f 194 193 105
f 105 193 103
f 193 187 103
f 187 186 103
f 194 195 193
f 188 189 196
f 196 189 197
f 188 198 191
f 188 196 198
f 198 107 108
f 192 198 108
f 191 198 192
f 192 108 99
f 112 194 105
f 112 114 194
f 114 195 194
f 114 199 195
f 196 197 200
f 200 197 201
f 200 116 117
f 198 200 117
f 196 200 198
f 198 117 107
f 203 202 121
f 203 121 120
f 114 121 199
f 199 121 202
f 206 205 204
f 206 204 201
f 204 200 201
f 204 207 200
f 207 123 116
f 207 116 200
f 209 208 124
f 209 124 125
f 120 124 203
f 203 124 208
f 204 205 210
f 210 205 211
f 204 212 207
f 204 210 212
f 212 127 123
f 212 123 207
f 214 213 128
f 214 128 129
f 125 128 209
f 209 128 213
f 210 211 215
f 215 211 216
f 215 131 132
f 212 215 132
f 210 215 212
f 212 132 127
f 218 217 134
f 218 134 135
f 129 134 214
f 214 134 217
f 221 220 219
f 137 138 219
f 138 221 219
f 138 222 221
f 139 215 216
f 222 139 216
f 138 139 222
f 215 139 131
f 142 223 143
f 225 223 224
f 225 143 223
f 225 226 145
f 143 225 145
f 147 146 226
f 225 147 226
f 227 147 225
f 147 228 148
f 227 228 147
f 148 229 149
f 228 229 148
f 135 149 218
f 218 149 229
f 219 220 230
f 230 220 231
f 230 151 137
f 230 137 219
f 233 232 223
f 142 233 223
f 154 233 142
f 226 155 145
f 232 224 223
f 155 226 146
f 230 231 234
f 234 231 235
f 236 156 151
f 230 236 151
f 234 236 230
f 237 157 156
f 237 156 236
f 157 237 238
f 239 157 238
f 158 157 239
f 154 158 233
f 233 158 239
f 234 235 240
f 240 235 241
f 243 236 242
f 236 240 242
f 236 234 240
f 236 243 237
f 237 243 244
f 237 244 238
f 241 245 240
f 240 245 242
f 247 246 161
f 161 246 160
f 161 162 247
f 247 162 248
f 250 249 165
f 165 249 164
f 165 160 246
f 165 246 250
f 251 248 162
f 251 162 166
f 252 166 167
f 252 251 166
f 254 253 169
f 253 167 169
f 253 252 167
f 254 255 253
f 256 171 172
f 256 172 257
f 172 258 257
f 172 173 258
f 173 164 249
f 173 249 258
f 175 259 254
f 175 254 169
f 255 254 260
f 260 254 259
f 262 261 178
f 178 261 177
f 178 171 256
f 263 178 256
f 262 178 263
f 263 256 257
f 180 264 179
f 264 265 179
f 179 265 175
f 265 266 175
f 266 259 175
f 259 266 260
f 269 268 267
f 271 270 267
f 267 270 269
f 182 183 271
f 183 270 271
f 183 272 270
f 183 177 261
f 183 261 272
f 185 264 180
f 274 273 187
f 187 273 185
f 273 265 185
f 265 264 185
f 274 275 273
f 267 268 276
f 276 268 277
f 276 189 190
f 271 276 190
f 267 276 271
f 271 190 182
f 193 274 187
f 193 195 274
f 195 275 274
f 195 278 275
f 281 280 279
f 281 279 277
f 279 276 277
f 279 282 276
f 282 197 189
f 282 189 276
f 199 278 195
f 199 283 278
f 286 285 284
f 286 284 280
f 284 279 280
f 284 287 279
f 279 288 282
f 279 287 288
f 288 201 197
f 288 197 282
f 290 289 202
f 290 202 203
f 199 202 283
f 283 202 289
f 285 291 284
f 293 292 291
f 292 284 291
f 292 287 284
f 292 205 206
f 288 292 206
f 287 292 288
f 288 206 201
f 209 294 208
f 294 295 208
f 295 203 208
f 295 290 203
f 292 293 296
f 296 293 297
f 296 211 205
f 296 205 292
f 214 298 213
f 298 299 213
f 213 299 209
f 299 300 209
f 300 294 209
f 294 300 295
f 303 302 301
f 301 304 303
f 296 297 305
f 305 297 306
f 305 216 211
f 305 211 296
f 218 307 217
f 307 308 217
f 217 308 214
f 308 309 214
f 309 298 214
f 298 309 299
f 312 311 310
f 312 310 302
f 310 301 302
f 310 313 301
f 221 314 220
f 314 301 220
f 301 313 220
f 301 314 304
f 222 305 306
f 314 222 306
f 221 222 314
f 305 222 216
f 316 315 225
f 316 225 224
f 225 317 227
f 315 317 225
f 227 318 228
f 317 318 227
f 228 319 229
f 318 319 228
f 218 229 307
f 229 320 307
f 229 319 320
f 307 320 308
f 323 322 321
f 323 321 311
f 321 310 311
f 321 324 310
f 310 325 313
f 310 324 325
f 325 231 220
f 325 220 313
f 327 326 232
f 327 232 233
f 224 232 316
f 316 232 326
f 321 322 328
f 328 322 329
f 321 330 324
f 321 328 330
f 324 331 325
f 324 330 331
f 331 235 231
f 331 231 325
f 333 332 239
f 333 239 238
f 233 239 327
f 327 239 332
f 336 335 334
f 336 334 329
f 334 328 329
f 334 337 328
f 328 338 330
f 328 337 338
f 330 339 331
f 330 338 339
f 339 241 235
f 339 235 331
f 242 340 243
f 243 340 341
f 342 243 341
f 244 243 342
f 238 244 333
f 333 244 342
f 334 335 343
f 343 335 344
f 346 337 345
f 337 343 345
f 337 334 343
f 348 347 346
f 347 337 346
f 347 338 337
f 338 349 339
f 338 347 349
f 350 245 241
f 339 350 241
f 349 350 339
f 350 351 245
f 245 351 242
f 351 352 242
f 352 340 242
f 340 352 341
f 344 353 343
f 343 353 345
f 348 354 347
f 347 354 349
f 349 354 355
f 349 355 350
f 350 355 356
f 350 356 351
f 358 357 247
f 247 357 246
f 360 359 248
f 359 247 248
f 359 358 247
f 360 361 359
f 363 362 250
f 250 362 249
f 250 246 357
f 250 357 363
f 251 360 248
f 364 361 360
f 251 364 360
f 252 364 251
f 365 252 253
f 365 364 252
f 253 255 365
f 365 255 366
f 368 367 258
f 258 367 257
f 258 249 362
f 258 362 368
f 260 370 369
f 366 260 369
f 255 260 366
f 370 371 369
f 373 372 262
f 262 372 261
f 374 262 263
f 374 373 262
f 263 257 367
f 263 367 374
f 265 375 266
f 370 260 266
f 375 370 266
f 376 370 375
f 371 370 377
f 377 370 376
f 380 379 378
f 268 269 378
f 269 380 378
f 269 381 380
f 382 269 270
f 382 381 269
f 383 270 272
f 383 382 270
f 272 261 372
f 272 372 383
f 273 375 265
f 376 375 384
f 375 275 384
f 275 385 384
f 275 375 273
f 376 384 377
f 388 387 386
f 388 386 379
f 386 378 379
f 386 389 378
f 389 277 268
f 389 268 378
f 278 385 275
f 278 390 385
f 386 387 391
f 391 387 392
f 391 280 281
f 389 391 281
f 386 391 389
f 389 281 277
f 283 390 278
f 283 393 390
f 391 392 286
f 392 285 286
f 392 394 285
f 391 286 280
f 396 395 289
f 396 289 290
f 283 289 393
f 393 289 395
f 291 285 397
f 285 398 397
f 285 394 398
f 397 293 291
f 295 396 290
f 295 399 396
f 397 398 400
f 400 398 401
f 400 297 293
f 400 293 397
f 403 402 300
f 403 300 299
f 295 300 399
f 399 300 402
f 406 405 404
f 302 303 404
f 303 406 404
f 303 407 406
f 408 400 304
f 400 407 304
f 407 303 304
f 400 401 407
f 408 306 297
f 408 297 400
f 410 409 309
f 410 309 308
f 299 309 403
f 403 309 409
f 413 412 411
f 415 414 411
f 411 414 413
f 414 415 405
f 405 415 404
f 415 311 404
f 311 312 404
f 404 312 302
f 314 408 304
f 408 314 306
f 316 416 315
f 417 317 315
f 417 315 416
f 418 318 317
f 418 317 417
f 318 418 419
f 420 318 419
f 319 318 420
f 319 421 320
f 420 421 319
f 308 320 410
f 410 320 421
f 411 412 422
f 422 412 423
f 422 322 323
f 415 422 323
f 411 422 415
f 415 323 311
f 425 424 326
f 425 326 327
f 316 326 416
f 326 426 416
f 326 424 426
f 416 426 417
f 417 426 427
f 417 427 418
f 418 427 428
f 418 428 419
f 431 430 429
f 431 429 423
f 429 422 423
f 429 432 422
f 432 329 322
f 432 322 422
f 434 433 332
f 434 332 333
f 327 332 425
f 425 332 433
f 429 430 435
f 435 430 436
f 435 335 336
f 432 435 336
f 429 435 432
f 432 336 329
f 438 437 342
f 438 342 341
f 333 342 434
f 434 342 437
f 435 436 439
f 439 436 440
f 439 344 335
f 439 335 435
f 345 441 346
f 441 348 346
f 351 442 352
f 442 443 352
f 443 341 352
f 443 438 341
f 440 444 439
f 439 444 344
f 444 353 344
f 444 445 353
f 345 353 441
f 353 446 441
f 353 445 446
f 446 448 447
f 446 447 354
f 441 446 354
f 348 441 354
f 449 355 354
f 449 354 447
f 355 449 450
f 451 355 450
f 356 355 451
f 351 356 442
f 356 452 442
f 356 451 452
f 442 452 443
f 448 453 447
f 447 453 449
f 449 453 454
f 449 454 450
f 455 357 358
f 455 358 456
f 358 457 456
f 358 359 457
f 359 361 457
f 457 361 458
f 460 459 363
f 363 459 362
f 363 357 455
f 461 363 455
f 460 363 461
f 461 455 456
f 462 458 361
f 462 361 364
f 463 364 365
f 463 462 364
f 465 464 366
f 464 365 366
f 464 463 365
f 465 466 464
f 468 467 368
f 368 467 367
f 368 362 459
f 368 459 468
f 369 465 366
f 470 469 371
f 371 469 369
f 469 466 369
f 466 465 369
f 470 471 469
f 472 372 373
f 472 373 473
f 373 474 473
f 373 374 474
f 374 367 467
f 374 467 474
f 476 475 470
f 371 476 470
f 377 476 371
f 470 475 471
f 478 477 380
f 380 477 379
f 479 380 381
f 479 478 380
f 480 381 382
f 480 479 381
f 481 382 383
f 481 480 382
f 383 372 472
f 482 383 472
f 481 383 482
f 482 472 473
f 484 483 384
f 484 384 385
f 377 384 476
f 476 384 483
f 487 486 485
f 387 388 485
f 388 487 485
f 388 488 487
f 388 379 477
f 388 477 488
f 390 484 385
f 390 489 484
f 492 491 490
f 492 490 486
f 490 485 486
f 490 493 485
f 493 392 387
f 493 387 485
f 393 489 390
f 393 494 489
f 490 491 495
f 495 491 496
f 490 497 493
f 490 495 497
f 497 394 392
f 497 392 493
f 499 498 395
f 499 395 396
f 393 395 494
f 494 395 498
f 496 500 495
f 502 501 500
f 501 495 500
f 501 497 495
f 501 398 394
f 501 394 497
f 399 499 396
f 399 503 499
f 506 505 504
f 506 504 502
f 504 501 502
f 504 507 501
f 507 401 398
f 507 398 501
f 509 508 402
f 509 402 403
f 399 402 503
f 503 402 508
f 504 505 406
f 505 405 406
f 505 510 405
f 504 406 407
f 504 407 507
f 507 407 401
f 512 511 409
f 512 409 410
f 403 409 509
f 509 409 511
f 515 514 513
f 412 413 513
f 413 515 513
f 413 516 515
f 517 413 414
f 517 516 413
f 414 405 510
f 414 510 517
f 519 518 420
f 519 420 419
f 420 520 421
f 518 520 420
f 410 421 512
f 512 421 520
f 513 514 521
f 521 514 522
f 521 423 412
f 521 412 513
f 524 523 424
f 524 424 425
f 424 525 426
f 523 525 424
f 426 526 427
f 525 526 426
f 427 527 428
f 526 527 427
f 419 428 519
f 519 428 527
f 530 529 528
f 530 528 522
f 522 528 521
f 528 430 521
f 430 431 521
f 521 431 423
f 532 531 433
f 532 433 434
f 425 433 524
f 524 433 531
f 528 529 533
f 533 529 534
f 533 436 430
f 533 430 528
f 536 535 437
f 536 437 438
f 434 437 532
f 532 437 535
f 533 534 537
f 537 534 538
f 537 440 436
f 537 436 533
f 541 540 539
f 540 536 539
f 536 443 539
f 536 438 443
f 538 542 537
f 542 544 543
f 542 543 444
f 537 542 444
f 440 537 444
f 545 445 444
f 545 444 543
f 445 545 546
f 547 445 546
f 446 445 547
f 549 548 448
f 446 549 448
f 547 549 446
f 550 548 549
f 552 551 451
f 552 451 450
f 539 452 541
f 452 551 541
f 452 451 551
f 452 539 443
f 544 553 543
f 543 553 545
f 545 553 554
f 545 554 546
f 548 453 448
f 550 555 548
f 555 453 548
f 555 454 453
f 450 454 552
f 552 454 555
f 556 456 457
f 458 556 457
f 557 459 460
f 557 460 558
f 460 559 558
f 460 461 559
f 461 456 556
f 560 461 556
f 559 461 560
f 560 556 458
f 462 560 458
f 561 560 462
f 562 462 463
f 562 561 462
f 563 463 464
f 563 562 463
f 464 466 563
f 563 466 564
f 566 565 468
f 468 565 467
f 468 459 557
f 567 468 557
f 566 468 567
f 567 557 558
f 568 564 466
f 568 466 469
f 469 471 568
f 568 471 569
f 571 570 474
f 474 570 473
f 474 467 565
f 474 565 571
f 573 572 475
f 573 475 476
f 471 475 569
f 569 475 572
f 575 574 478
f 478 574 477
f 577 575 576
f 575 479 576
f 575 478 479
f 480 578 479
f 479 578 576
f 578 480 579
f 480 580 579
f 480 481 580
f 581 481 482
f 581 580 481
f 482 473 570
f 482 570 581
f 484 582 483
f 582 583 483
f 583 476 483
f 583 573 476
f 584 486 487
f 584 487 585
f 487 586 585
f 487 488 586
f 488 477 574
f 488 574 586
f 587 577 576
f 587 576 578
f 587 578 588
f 588 578 579
f 590 589 582
f 484 590 582
f 489 590 484
f 582 589 583
f 592 591 492
f 492 591 491
f 492 486 584
f 593 492 584
f 592 492 593
f 593 584 585
f 494 590 489
f 494 594 590
f 597 596 595
f 591 597 595
f 496 591 595
f 491 591 496
f 499 598 498
f 598 599 498
f 599 494 498
f 599 594 494
f 602 601 600
f 602 600 596
f 600 595 596
f 600 603 595
f 604 500 496
f 595 604 496
f 603 604 595
f 604 502 500
f 606 605 598
f 499 606 598
f 503 606 499
f 598 605 599
f 601 607 600
f 609 608 607
f 608 600 607
f 608 603 600
f 608 505 506
f 604 608 506
f 603 608 604
f 604 506 502
f 611 610 508
f 611 508 509
f 503 508 606
f 606 508 610
f 614 613 612
f 614 612 609
f 612 608 609
f 612 615 608
f 615 510 505
f 615 505 608
f 617 616 511
f 617 511 512
f 509 511 611
f 611 511 616
f 619 618 515
f 515 618 514
f 516 612 613
f 619 516 613
f 515 516 619
f 612 516 517
f 612 517 615
f 615 517 510
f 519 620 518
f 518 620 621
f 622 518 621
f 520 518 622
f 512 520 617
f 617 520 622
f 625 624 623
f 618 625 623
f 522 618 623
f 514 618 522
f 627 626 523
f 627 523 524
f 523 628 525
f 626 628 523
f 628 630 629
f 526 628 629
f 525 628 526
f 526 629 631
f 632 526 631
f 527 526 632
f 519 527 620
f 527 633 620
f 527 632 633
f 620 633 621
f 636 635 634
f 636 634 624
f 624 634 623
f 634 529 623
f 529 530 623
f 623 530 522
f 638 637 531
f 638 531 532
f 524 531 627
f 627 531 637
f 630 639 629
f 629 639 631
f 634 635 640
f 640 635 641
f 640 534 529
f 640 529 634
f 536 642 535
f 642 643 535
f 643 532 535
f 643 638 532
f 641 644 640
f 534 640 644
f 645 534 644
f 538 534 645
f 541 646 540
f 646 647 540
f 540 647 536
f 647 648 536
f 648 642 536
f 642 648 643
f 542 538 649
f 538 650 649
f 538 645 650
f 649 544 542
f 652 651 547
f 652 547 546
f 547 653 549
f 651 653 547
f 655 654 550
f 549 655 550
f 653 655 549
f 551 552 654
f 655 551 654
f 656 551 655
f 541 551 646
f 551 657 646
f 551 656 657
f 646 657 647
f 650 658 649
f 649 658 544
f 658 553 544
f 658 659 553
f 553 660 554
f 659 660 553
f 546 554 652
f 652 554 660
f 654 555 550
f 555 654 552
f 663 662 661
f 661 664 663
f 667 666 665
f 669 668 665
f 665 668 667
f 558 559 669
f 559 668 669
f 559 670 668
f 560 661 662
f 670 560 662
f 559 560 670
f 671 664 661
f 560 671 661
f 561 671 560
f 672 561 562
f 672 671 561
f 674 672 673
f 672 563 673
f 672 562 563
f 564 673 563
f 665 666 566
f 666 565 566
f 666 675 565
f 665 566 567
f 665 567 669
f 669 567 558
f 674 673 676
f 674 676 677
f 676 673 564
f 678 676 564
f 568 678 564
f 679 676 678
f 568 569 678
f 678 569 680
f 682 681 571
f 571 681 570
f 571 565 675
f 571 675 682
f 683 677 676
f 572 573 684
f 676 679 683
f 684 685 572
f 685 569 572
f 685 680 569
f 686 574 575
f 577 686 575
f 688 687 580
f 580 687 579
f 689 580 581
f 689 688 580
f 581 570 681
f 581 681 689
f 691 690 684
f 573 691 684
f 583 691 573
f 684 690 685
f 693 692 586
f 586 692 585
f 693 586 574
f 694 693 574
f 686 694 574
f 693 694 695
f 587 696 577
f 696 686 577
f 696 694 686
f 696 587 697
f 587 698 697
f 587 588 698
f 588 579 687
f 588 687 698
f 700 699 589
f 700 589 590
f 583 589 691
f 691 589 699
f 703 702 701
f 591 592 701
f 592 703 701
f 592 704 703
f 705 592 593
f 705 704 592
f 593 585 692
f 593 692 705
f 706 695 694
f 706 694 696
f 706 696 707
f 707 696 697
f 710 709 708
f 712 711 708
f 712 708 709
f 712 700 711
f 700 594 711
f 700 590 594
f 701 702 597
f 702 596 597
f 702 713 596
f 701 597 591
f 710 708 714
f 710 714 715
f 716 708 711
f 714 708 716
f 599 716 594
f 594 716 711
f 718 717 602
f 602 717 601
f 602 596 713
f 602 713 718
f 719 715 714
f 606 720 605
f 720 714 605
f 714 716 605
f 720 719 714
f 605 716 599
f 723 722 721
f 721 724 607
f 717 721 607
f 601 717 607
f 721 717 723
f 724 609 607
f 726 725 610
f 726 610 611
f 606 610 720
f 720 610 725
f 729 728 727
f 729 727 722
f 727 721 722
f 727 730 721
f 730 613 614
f 724 730 614
f 721 730 724
f 724 614 609
f 732 731 616
f 732 616 617
f 611 616 726
f 726 616 731
f 735 734 733
f 735 733 728
f 733 727 728
f 733 736 727
f 736 618 619
f 730 736 619
f 727 736 730
f 730 619 613
f 738 737 622
f 738 622 621
f 617 622 732
f 732 622 737
f 741 740 739
f 741 739 734
f 739 733 734
f 739 742 733
f 742 624 625
f 736 742 625
f 733 742 736
f 736 625 618
f 744 743 626
f 744 626 627
f 626 745 628
f 743 745 626
f 630 628 745
f 630 745 746
f 748 747 632
f 748 632 631
f 632 749 633
f 747 749 632
f 621 633 738
f 738 633 749
f 752 751 750
f 752 750 740
f 750 739 740
f 750 753 739
f 753 635 636
f 742 753 636
f 739 753 742
f 742 636 624
f 755 754 637
f 755 637 638
f 627 637 744
f 744 637 754
f 746 756 630
f 630 756 639
f 631 639 748
f 748 639 756
f 751 757 750
f 750 757 753
f 753 757 758
f 635 753 758
f 759 635 758
f 641 635 759
f 643 755 638
f 643 760 755
f 759 761 641
f 641 761 644
f 645 644 761
f 645 761 762
f 764 763 648
f 764 648 647
f 643 648 760
f 760 648 763
f 762 650 645
f 765 650 762
f 652 766 651
f 767 653 651
f 767 651 766
f 768 655 653
f 768 653 767
f 769 656 655
f 769 655 768
f 656 769 770
f 771 656 770
f 657 656 771
f 647 657 764
f 764 657 771
f 658 650 772
f 650 773 772
f 650 765 773
f 774 659 658
f 774 658 772
f 775 660 659
f 775 659 774
f 775 776 660
f 660 776 652
f 776 777 652
f 777 766 652
f 766 777 767
f 767 777 778
f 767 778 768
f 768 778 779
f 768 779 769
f 769 779 780
f 769 780 770
f 773 781 772
f 772 781 774
f 774 781 782
f 774 782 775
f 775 782 783
f 775 783 776
f 785 784 663
f 663 784 662
f 663 664 785
f 785 664 786
f 787 666 667
f 668 788 667
f 667 788 787
f 788 668 789
f 668 790 789
f 668 670 790
f 670 662 784
f 670 784 790
f 791 786 664
f 791 664 671
f 793 791 792
f 791 672 792
f 791 671 672
f 674 792 672
f 795 794 787
f 794 666 787
f 794 675 666
f 795 787 788
f 795 788 796
f 796 788 789
f 797 793 792
f 792 674 797
f 674 798 797
f 674 677 798
f 799 679 678
f 680 799 678
f 801 800 682
f 682 800 681
f 682 675 794
f 682 794 801
f 802 798 677
f 802 677 683
f 802 683 679
f 803 802 679
f 799 803 679
f 802 803 804
f 685 803 680
f 680 803 799
f 805 687 688
f 805 688 806
f 688 807 806
f 688 689 807
f 689 681 800
f 689 800 807
f 810 809 808
f 812 811 808
f 812 808 809
f 814 813 811
f 814 811 812
f 813 814 804
f 813 804 803
f 691 813 803
f 690 691 803
f 690 803 685
f 815 692 693
f 695 815 693
f 816 697 698
f 687 805 698
f 805 816 698
f 805 817 816
f 805 806 818
f 805 818 817
f 810 808 819
f 810 819 820
f 821 808 811
f 819 808 821
f 700 821 699
f 821 813 699
f 821 811 813
f 699 813 691
f 823 822 703
f 703 822 702
f 824 703 704
f 824 823 703
f 825 704 705
f 825 824 704
f 705 692 815
f 826 705 815
f 825 705 826
f 826 815 695
f 706 826 695
f 827 826 706
f 828 706 707
f 828 827 706
f 707 697 816
f 829 707 816
f 828 707 829
f 829 816 817
f 829 817 830
f 830 817 818
f 833 832 831
f 831 832 820
f 831 820 819
f 710 831 819
f 709 710 819
f 709 819 712
f 712 819 821
f 712 821 700
f 836 835 834
f 822 836 834
f 713 822 834
f 702 822 713
f 833 831 837
f 833 837 838
f 715 837 710
f 710 837 831
f 834 835 718
f 835 717 718
f 835 839 717
f 834 718 713
f 838 837 840
f 838 840 841
f 719 842 715
f 842 837 715
f 842 840 837
f 720 842 719
f 844 843 723
f 723 843 722
f 723 717 839
f 723 839 844
f 847 846 845
f 845 846 841
f 840 845 841
f 848 845 840
f 726 848 725
f 848 842 725
f 848 840 842
f 725 842 720
f 850 849 729
f 729 849 728
f 729 722 843
f 729 843 850
f 847 845 851
f 847 851 852
f 732 851 731
f 851 848 731
f 851 845 848
f 731 848 726
f 854 853 735
f 735 853 734
f 735 728 849
f 735 849 854
f 852 851 737
f 738 852 737
f 855 852 738
f 737 851 732
f 857 856 741
f 741 856 740
f 741 734 853
f 741 853 857
f 859 858 743
f 859 743 744
f 858 861 860
f 745 858 860
f 743 858 745
f 860 746 745
f 863 862 747
f 863 747 748
f 747 864 749
f 862 864 747
f 738 749 855
f 855 749 864
f 865 751 752
f 740 856 866
f 865 740 866
f 867 865 866
f 752 740 865
f 868 867 866
f 870 869 754
f 870 754 755
f 744 754 859
f 859 754 869
f 861 871 860
f 860 871 746
f 871 756 746
f 871 872 756
f 748 756 863
f 863 756 872
f 865 757 751
f 757 865 758
f 758 865 867
f 759 758 867
f 868 759 867
f 873 759 868
f 760 870 755
f 760 874 870
f 873 875 759
f 759 875 761
f 762 761 875
f 762 875 876
f 878 877 763
f 878 763 764
f 760 763 874
f 874 763 877
f 876 765 762
f 879 765 876
f 881 880 771
f 881 771 770
f 764 771 878
f 878 771 880
f 879 773 765
f 882 773 879
f 885 884 883
f 777 776 883
f 884 777 883
f 886 777 884
f 777 887 778
f 886 887 777
f 778 888 779
f 887 888 778
f 779 889 780
f 888 889 779
f 770 780 881
f 881 780 889
f 882 890 773
f 773 890 781
f 781 891 782
f 890 891 781
f 883 783 885
f 783 891 885
f 783 782 891
f 783 883 776
f 892 784 785
f 786 892 785
f 893 789 790
f 784 892 790
f 892 893 790
f 892 894 893
f 894 892 786
f 895 894 786
f 791 895 786
f 896 894 895
f 791 793 895
f 895 793 897
f 898 794 795
f 796 899 795
f 795 899 898
f 900 899 796
f 900 796 789
f 901 900 789
f 893 901 789
f 901 893 894
f 901 894 902
f 902 894 896
f 793 797 903
f 904 793 903
f 897 793 904
f 798 903 797
f 905 800 801
f 794 898 801
f 898 905 801
f 898 906 905
f 899 908 907
f 906 899 907
f 898 899 906
f 911 910 909
f 900 908 899
f 912 910 911
f 915 914 913
f 913 914 904
f 903 913 904
f 916 913 903
f 802 917 798
f 917 903 798
f 917 916 903
f 804 917 802
f 918 806 807
f 800 905 807
f 905 918 807
f 905 919 918
f 906 921 920
f 919 906 920
f 905 906 919
f 906 922 921
f 906 923 922
f 906 907 924
f 923 906 924
f 909 910 925
f 924 926 923
f 929 928 927
f 912 925 910
f 928 929 915
f 928 915 913
f 810 928 913
f 809 810 913
f 809 913 812
f 812 913 916
f 812 916 814
f 814 916 917
f 814 917 804
f 930 818 918
f 918 818 806
f 919 932 931
f 930 919 931
f 918 919 930
f 932 919 920
f 933 922 923
f 933 923 926
f 927 928 934
f 927 934 935
f 820 934 810
f 810 934 928
f 937 936 823
f 823 936 822
f 938 823 824
f 938 937 823
f 939 824 825
f 939 938 824
f 940 825 826
f 940 939 825
f 942 940 941
f 940 827 941
f 940 826 827
f 828 943 827
f 827 943 941
f 829 944 828
f 828 944 943
f 830 945 829
f 829 945 944
f 946 945 830
f 946 830 818
f 947 946 818
f 930 947 818
f 947 930 931
f 950 949 948
f 948 949 935
f 948 935 934
f 833 948 934
f 832 833 934
f 832 934 820
f 952 951 836
f 836 951 835
f 836 822 936
f 836 936 952
f 955 954 953
f 953 954 942
f 941 953 942
f 956 953 941
f 957 941 943
f 956 941 957
f 958 943 944
f 957 943 958
f 945 960 959
f 958 945 959
f 944 945 958
f 960 945 946
f 950 948 961
f 950 961 962
f 838 961 833
f 833 961 948
f 951 839 835
f 963 839 951
f 955 953 964
f 955 964 965
f 966 953 956
f 964 953 966
f 967 956 957
f 966 956 967
f 958 969 968
f 967 958 968
f 957 958 967
f 969 958 959
f 962 961 970
f 962 970 971
f 841 970 838
f 838 970 961
f 973 972 844
f 844 972 843
f 844 839 963
f 844 963 973
f 974 965 964
f 974 964 966
f 974 966 975
f 975 966 967
f 975 967 976
f 976 967 968
f 971 970 846
f 847 971 846
f 977 971 847
f 846 970 841
f 978 849 850
f 979 978 850
f 843 979 850
f 972 979 843
f 852 977 847
f 852 980 977
f 982 981 854
f 854 981 853
f 854 849 978
f 983 854 978
f 982 854 983
f 983 978 979
f 986 985 984
f 985 980 984
f 980 855 984
f 980 852 855
f 988 987 857
f 857 987 856
f 857 853 981
f 857 981 988
f 859 989 858
f 989 861 858
f 991 990 862
f 991 862 863
f 984 864 986
f 864 990 986
f 864 862 990
f 864 984 855
f 987 992 856
f 856 992 866
f 868 866 992
f 868 992 993
f 870 994 869
f 989 859 869
f 994 989 869
f 995 989 994
f 989 995 861
f 995 996 861
f 996 871 861
f 995 997 996
f 871 998 872
f 996 998 871
f 863 872 991
f 991 872 998
f 1001 1000 999
f 1003 1002 999
f 999 1002 1001
f 993 1002 1003
f 873 993 1003
f 868 993 873
f 1005 1004 994
f 870 1005 994
f 874 1005 870
f 994 1004 995
f 995 1004 1006
f 995 1006 997
f 1000 1007 999
f 999 1007 1003
f 1003 1007 1008
f 1008 1010 1009
f 1008 1009 875
f 1003 1008 875
f 873 1003 875
f 1009 876 875
f 878 1011 877
f 1011 1012 877
f 1012 874 877
f 1012 1005 874
f 1009 1010 1013
f 1013 1010 1014
f 1013 879 876
f 1013 876 1009
f 881 1015 880
f 1015 1016 880
f 880 1016 878
f 1016 1017 878
f 1017 1011 878
f 1011 1017 1012
f 1013 1014 1018
f 1018 1014 1019
f 1018 882 879
f 1018 879 1013
f 1022 1021 1020
f 884 885 1020
f 1021 884 1020
f 1023 884 1021
f 884 1024 886
f 1023 1024 884
f 886 1025 887
f 1024 1025 886
f 887 1026 888
f 1025 1026 887
f 888 1027 889
f 1026 1027 888
f 881 889 1015
f 889 1028 1015
f 889 1027 1028
f 1015 1028 1016
f 1019 1029 1018
f 1018 1029 882
f 1029 890 882
f 1029 1030 890
f 1020 891 1022
f 891 1030 1022
f 891 890 1030
f 891 1020 885
f 1031 896 895
f 897 1031 895
f 1032 900 901
f 902 1033 901
f 901 1033 1032
f 896 1031 902
f 1031 1033 902
f 1031 1034 1033
f 904 1034 897
f 897 1034 1031
f 1035 907 908
f 908 900 1035
f 900 1032 1035
f 911 909 1035
f 911 1035 1032
f 911 1032 912
f 1032 1036 912
f 1032 1033 1036
f 915 1036 914
f 1036 1034 914
f 1036 1033 1034
f 914 1034 904
f 1037 920 921
f 907 1035 924
f 1037 921 922
f 926 924 1038
f 924 1035 1038
f 909 925 1038
f 909 1038 1035
f 925 912 1038
f 912 1036 1038
f 929 927 1038
f 929 1038 1036
f 929 1036 915
f 1039 931 932
f 920 1037 932
f 1037 1039 932
f 1037 1040 1039
f 933 1041 922
f 1041 1037 922
f 1041 1040 1037
f 926 1038 933
f 1038 1041 933
f 1038 1042 1041
f 935 1042 927
f 927 1042 1038
f 1043 936 937
f 938 1044 937
f 937 1044 1043
f 939 1045 938
f 938 1045 1044
f 940 1046 939
f 939 1046 1045
f 942 1046 940
f 1047 946 947
f 931 1039 947
f 1039 1047 947
f 1039 1048 1047
f 1049 1039 1040
f 1048 1039 1049
f 1050 1040 1041
f 1049 1040 1050
f 950 1050 949
f 1050 1042 949
f 1050 1041 1042
f 949 1042 935
f 1051 951 952
f 1052 1051 952
f 1052 952 936
f 1053 1052 936
f 1043 1053 936
f 1053 1043 1044
f 1053 1044 1054
f 1056 1055 1054
f 1044 1056 1054
f 1045 1056 1044
f 955 1056 954
f 1056 1046 954
f 1056 1045 1046
f 954 1046 942
f 1057 959 960
f 946 1047 960
f 1047 1057 960
f 1047 1058 1057
f 1059 1047 1048
f 1058 1047 1059
f 1049 1061 1060
f 1059 1049 1060
f 1048 1049 1059
f 1063 1062 1061
f 1049 1063 1061
f 1050 1063 1049
f 962 1063 950
f 950 1063 1050
f 1065 1064 1051
f 1064 951 1051
f 1064 963 951
f 1065 1051 1052
f 1066 1055 1056
f 1056 955 1066
f 955 1067 1066
f 955 965 1067
f 1068 968 969
f 959 1057 969
f 1057 1068 969
f 1057 1069 1068
f 1058 1071 1070
f 1069 1058 1070
f 1057 1058 1069
f 1071 1058 1059
f 1071 1059 1072
f 1072 1059 1060
f 1062 1063 1073
f 1062 1073 1074
f 971 1073 962
f 962 1073 1063
f 1075 972 973
f 1076 1075 973
f 963 1076 973
f 1064 1076 963
f 965 974 1077
f 1078 965 1077
f 1067 965 1078
f 975 1079 974
f 974 1079 1077
f 976 1080 975
f 975 1080 1079
f 968 1068 976
f 1068 1080 976
f 1068 1081 1080
f 1069 1083 1082
f 1081 1069 1082
f 1068 1069 1081
f 1083 1069 1070
f 1084 1074 1073
f 1073 971 1084
f 971 1085 1084
f 971 977 1085
f 1087 1086 1075
f 1086 972 1075
f 1086 979 972
f 1087 1075 1076
f 1078 1077 1088
f 1078 1088 1089
f 1090 1077 1079
f 1088 1077 1090
f 1091 1079 1080
f 1090 1079 1091
f 1092 1080 1081
f 1091 1080 1092
f 1081 1082 1093
f 1081 1093 1092
f 980 1085 977
f 980 1094 1085
f 1095 981 982
f 983 1096 982
f 982 1096 1095
f 1097 1096 983
f 979 1097 983
f 1086 1097 979
f 1089 1088 1098
f 1089 1098 1099
f 1100 1088 1090
f 1098 1088 1100
f 1101 1090 1091
f 1100 1090 1101
f 1102 1091 1092
f 1101 1091 1102
f 1092 1093 1103
f 1092 1103 1102
f 1105 1104 985
f 1105 985 986
f 980 985 1094
f 1094 985 1104
f 1106 987 988
f 1107 1106 988
f 1107 988 981
f 1108 1107 981
f 1095 1108 981
f 1108 1095 1096
f 1108 1096 1109
f 1109 1096 1097
f 1112 1111 1110
f 1114 1113 1110
f 1114 1110 1111
f 1116 1115 1113
f 1116 1113 1114
f 1115 1116 1099
f 1098 1115 1099
f 1117 1115 1098
f 1100 1119 1118
f 1117 1100 1118
f 1098 1100 1117
f 1119 1100 1101
f 1119 1101 1120
f 1120 1101 1102
f 1120 1102 1121
f 1121 1102 1103
f 1123 1122 990
f 1123 990 991
f 986 990 1105
f 1105 990 1122
f 992 987 1106
f 1126 1125 1124
f 993 1124 1125
f 993 1107 1124
f 993 992 1106
f 1107 993 1106
f 1129 1128 1127
f 1127 1128 1112
f 1110 1127 1112
f 1130 1127 1110
f 1113 1132 1131
f 1130 1113 1131
f 1110 1113 1130
f 1134 1133 1132
f 1113 1134 1132
f 1115 1134 1113
f 1135 1115 1117
f 1134 1115 1135
f 1117 1118 1136
f 1117 1136 1135
f 1138 1137 996
f 1138 996 997
f 996 1139 998
f 1137 1139 996
f 991 998 1123
f 1123 998 1139
f 1141 1140 1001
f 1001 1140 1000
f 1002 1125 1126
f 1141 1002 1126
f 1001 1002 1141
f 1125 1002 993
f 1144 1143 1142
f 1142 1143 1129
f 1127 1142 1129
f 1145 1142 1127
f 1146 1127 1130
f 1145 1127 1146
f 1130 1131 1147
f 1130 1147 1146
f 1133 1134 1148
f 1133 1148 1149
f 1150 1134 1135
f 1148 1134 1150
f 1135 1136 1151
f 1135 1151 1150
f 1153 1152 1004
f 1153 1004 1005
f 1004 1154 1006
f 1152 1154 1004
f 997 1006 1138
f 1138 1006 1154
f 1157 1156 1155
f 1155 1158 1007
f 1140 1155 1007
f 1000 1140 1007
f 1155 1140 1157
f 1159 1008 1007
f 1159 1007 1158
f 1159 1010 1008
f 1144 1142 1160
f 1144 1160 1161
f 1162 1142 1145
f 1160 1142 1162
f 1163 1145 1146
f 1162 1145 1163
f 1146 1147 1164
f 1146 1164 1163
f 1149 1148 1165
f 1149 1165 1166
f 1150 1168 1167
f 1165 1150 1167
f 1148 1150 1165
f 1168 1150 1151
f 1171 1170 1169
f 1170 1153 1169
f 1153 1012 1169
f 1153 1005 1012
f 1155 1156 1172
f 1172 1156 1173
f 1155 1174 1158
f 1155 1172 1174
f 1158 1175 1159
f 1158 1174 1175
f 1175 1014 1010
f 1175 1010 1159
f 1178 1177 1176
f 1176 1177 1161
f 1160 1176 1161
f 1179 1176 1160
f 1180 1160 1162
f 1179 1160 1180
f 1181 1162 1163
f 1180 1162 1181
f 1163 1164 1182
f 1163 1182 1181
f 1166 1165 1183
f 1166 1183 1184
f 1165 1167 1185
f 1186 1165 1185
f 1183 1165 1186
f 1187 1186 1185
f 1171 1169 1017
f 1016 1171 1017
f 1188 1171 1016
f 1017 1169 1012
f 1172 1173 1189
f 1189 1173 1190
f 1192 1174 1191
f 1174 1189 1191
f 1174 1172 1189
f 1174 1192 1175
f 1175 1192 1193
f 1019 1014 1175
f 1194 1019 1175
f 1193 1194 1175
f 1019 1194 1195
f 1195 1194 1178
f 1176 1195 1178
f 1196 1195 1176
f 1022 1196 1021
f 1196 1179 1021
f 1196 1176 1179
f 1021 1179 1023
f 1023 1179 1180
f 1023 1180 1024
f 1024 1180 1181
f 1182 1197 1181
f 1197 1024 1181
f 1197 1025 1024
f 1183 1026 1184
f 1026 1197 1184
f 1026 1025 1197
f 1026 1183 1027
f 1027 1183 1186
f 1187 1198 1186
f 1198 1027 1186
f 1198 1028 1027
f 1016 1028 1188
f 1188 1028 1198
f 1190 1199 1189
f 1189 1199 1191
f 1195 1029 1019
f 1029 1195 1030
f 1030 1195 1196
f 1030 1196 1022
f 1200 1052 1053
f 1054 1201 1053
f 1053 1201 1200
f 1055 1201 1054
f 1202 1060 1061
f 1062 1202 1061
f 1203 1064 1065
f 1052 1200 1065
f 1200 1203 1065
f 1200 1204 1203
f 1205 1200 1201
f 1204 1200 1205
f 1066 1206 1055
f 1206 1201 1055
f 1206 1205 1201
f 1067 1206 1066
f 1207 1070 1071
f 1207 1071 1208
f 1071 1209 1208
f 1071 1072 1209
f 1209 1072 1060
f 1210 1209 1060
f 1202 1210 1060
f 1209 1210 1211
f 1074 1210 1062
f 1062 1210 1202
f 1212 1076 1203
f 1203 1076 1064
f 1213 1203 1204
f 1212 1203 1213
f 1214 1204 1205
f 1213 1204 1214
f 1215 1205 1206
f 1214 1205 1215
f 1078 1215 1067
f 1067 1215 1206
f 1216 1082 1083
f 1217 1216 1083
f 1217 1083 1070
f 1218 1217 1070
f 1207 1218 1070
f 1218 1207 1208
f 1211 1210 1219
f 1211 1219 1220
f 1219 1210 1074
f 1221 1219 1074
f 1084 1221 1074
f 1222 1219 1221
f 1084 1085 1221
f 1221 1085 1223
f 1224 1086 1087
f 1076 1212 1087
f 1212 1224 1087
f 1212 1225 1224
f 1226 1212 1213
f 1225 1212 1226
f 1227 1213 1214
f 1226 1213 1227
f 1228 1214 1215
f 1227 1214 1228
f 1089 1228 1078
f 1078 1228 1215
f 1229 1093 1216
f 1216 1093 1082
f 1216 1217 1230
f 1216 1230 1229
f 1233 1232 1231
f 1220 1219 1234
f 1232 1235 1231
f 1219 1236 1234
f 1219 1237 1236
f 1219 1222 1238
f 1237 1219 1238
f 1238 1223 1237
f 1223 1094 1237
f 1223 1085 1094
f 1239 1097 1224
f 1224 1097 1086
f 1240 1224 1225
f 1239 1224 1240
f 1241 1225 1226
f 1240 1225 1241
f 1242 1226 1227
f 1241 1226 1242
f 1243 1227 1228
f 1242 1227 1243
f 1099 1243 1089
f 1089 1243 1228
f 1245 1244 1229
f 1244 1093 1229
f 1244 1103 1093
f 1229 1246 1245
f 1229 1247 1246
f 1229 1230 1248
f 1247 1229 1248
f 1247 1248 1233
f 1231 1247 1233
f 1249 1247 1231
f 1231 1235 1250
f 1231 1250 1249
f 1236 1237 1104
f 1105 1236 1104
f 1251 1236 1105
f 1104 1237 1094
f 1253 1252 1108
f 1108 1252 1107
f 1254 1108 1109
f 1254 1253 1108
f 1254 1109 1097
f 1255 1254 1097
f 1239 1255 1097
f 1254 1255 1256
f 1257 1239 1240
f 1255 1239 1257
f 1112 1257 1111
f 1257 1241 1111
f 1257 1240 1241
f 1111 1241 1114
f 1114 1241 1242
f 1114 1242 1116
f 1116 1242 1243
f 1116 1243 1099
f 1258 1118 1119
f 1120 1259 1119
f 1119 1259 1258
f 1121 1260 1120
f 1120 1260 1259
f 1261 1260 1121
f 1103 1261 1121
f 1244 1261 1103
f 1246 1247 1262
f 1246 1262 1263
f 1264 1247 1249
f 1262 1247 1264
f 1265 1122 1123
f 1249 1265 1123
f 1264 1249 1123
f 1265 1249 1250
f 1105 1122 1251
f 1251 1122 1265
f 1266 1126 1124
f 1267 1266 1124
f 1107 1267 1124
f 1252 1267 1107
f 1256 1255 1268
f 1256 1268 1269
f 1129 1268 1128
f 1268 1257 1128
f 1268 1255 1257
f 1128 1257 1112
f 1270 1131 1132
f 1133 1270 1132
f 1271 1136 1258
f 1258 1136 1118
f 1259 1273 1272
f 1271 1259 1272
f 1258 1259 1271
f 1273 1259 1260
f 1273 1260 1274
f 1274 1260 1261
f 1263 1262 1137
f 1138 1263 1137
f 1275 1263 1138
f 1137 1262 1139
f 1139 1262 1264
f 1139 1264 1123
f 1277 1276 1141
f 1141 1276 1140
f 1141 1126 1266
f 1278 1141 1266
f 1277 1141 1278
f 1278 1266 1267
f 1281 1280 1279
f 1279 1280 1269
f 1279 1269 1268
f 1144 1279 1268
f 1143 1144 1268
f 1143 1268 1129
f 1282 1147 1270
f 1270 1147 1131
f 1149 1282 1133
f 1133 1282 1270
f 1283 1151 1271
f 1271 1151 1136
f 1271 1272 1284
f 1285 1271 1284
f 1283 1271 1285
f 1152 1153 1285
f 1284 1152 1285
f 1286 1152 1284
f 1152 1287 1154
f 1286 1287 1152
f 1138 1154 1275
f 1275 1154 1287
f 1288 1156 1157
f 1289 1288 1157
f 1140 1289 1157
f 1276 1289 1140
f 1292 1291 1290
f 1290 1291 1281
f 1279 1290 1281
f 1293 1290 1279
f 1161 1293 1144
f 1144 1293 1279
f 1294 1164 1282
f 1282 1164 1147
f 1166 1294 1149
f 1149 1294 1282
f 1295 1167 1168
f 1151 1283 1168
f 1283 1295 1168
f 1283 1296 1295
f 1171 1296 1170
f 1296 1285 1170
f 1296 1283 1285
f 1170 1285 1153
f 1297 1173 1288
f 1288 1173 1156
f 1288 1289 1298
f 1299 1288 1298
f 1297 1288 1299
f 1301 1300 1299
f 1301 1299 1298
f 1300 1301 1292
f 1290 1300 1292
f 1302 1300 1290
f 1178 1302 1177
f 1302 1293 1177
f 1302 1290 1293
f 1177 1293 1161
f 1303 1182 1294
f 1294 1182 1164
f 1184 1303 1166
f 1166 1303 1294
f 1295 1185 1167
f 1185 1295 1187
f 1295 1304 1187
f 1295 1296 1304
f 1188 1304 1171
f 1171 1304 1296
f 1305 1190 1297
f 1297 1190 1173
f 1191 1305 1192
f 1305 1299 1192
f 1305 1297 1299
f 1192 1299 1193
f 1193 1299 1300
f 1193 1300 1194
f 1194 1300 1302
f 1194 1302 1178
f 1303 1197 1182
f 1197 1303 1184
f 1304 1198 1187
f 1198 1304 1188
f 1305 1199 1190
f 1199 1305 1191
f 1306 1208 1209
f 1211 1306 1209
f 1307 1217 1218
f 1208 1306 1218
f 1306 1307 1218
f 1306 1308 1307
f 1220 1308 1211
f 1211 1308 1306
f 1309 1222 1221
f 1223 1309 1221
f 1310 1230 1307
f 1307 1230 1217
f 1233 1310 1232
f 1310 1308 1232
f 1310 1307 1308
f 1235 1232 1311
f 1308 1311 1232
f 1311 1308 1312
f 1220 1312 1308
f 1312 1220 1234
f 1309 1238 1222
f 1312 1234 1313
f 1236 1313 1234
f 1238 1309 1223
f 1314 1244 1245
f 1230 1310 1248
f 1314 1245 1246
f 1248 1310 1233
f 1316 1250 1315
f 1250 1311 1315
f 1250 1235 1311
f 1315 1313 1316
f 1313 1251 1316
f 1313 1236 1251
f 1317 1252 1253
f 1254 1318 1253
f 1253 1318 1317
f 1256 1318 1254
f 1319 1261 1314
f 1314 1261 1244
f 1263 1319 1246
f 1246 1319 1314
f 1316 1265 1250
f 1265 1316 1251
f 1320 1267 1317
f 1317 1267 1252
f 1321 1317 1318
f 1320 1317 1321
f 1269 1321 1256
f 1256 1321 1318
f 1322 1272 1273
f 1274 1323 1273
f 1273 1323 1322
f 1261 1319 1274
f 1319 1323 1274
f 1319 1324 1323
f 1275 1324 1263
f 1263 1324 1319
f 1325 1276 1277
f 1278 1326 1277
f 1277 1326 1325
f 1267 1320 1278
f 1320 1326 1278
f 1320 1327 1326
f 1281 1327 1280
f 1327 1321 1280
f 1327 1320 1321
f 1280 1321 1269
f 1322 1284 1272
f 1284 1322 1286
f 1286 1322 1323
f 1286 1323 1287
f 1287 1323 1324
f 1287 1324 1275
f 1328 1289 1325
f 1325 1289 1276
f 1329 1325 1326
f 1328 1325 1329
f 1292 1329 1291
f 1329 1327 1291
f 1329 1326 1327
f 1291 1327 1281
f 1328 1298 1289
f 1298 1328 1301
f 1301 1328 1329
f 1301 1329 1292
f 1330 1311 1312
f 1313 1330 1312
f 1330 1315 1311
f 1315 1330 1313
