v -34.1 -29.0 -11.0
v -34.0 -29.0 -11.2
v -34.0 -29.1 -11.0
v -34.0 -29.0 -10.9
v -34.2 -28.0 -13.0
v -34.0 -28.0 -13.3
v -34.0 -28.2 -13.0
v -34.0 -28.6 -12.0
v -34.4 -28.0 -12.0
v -34.2 -28.0 -11.0
v -34.0 -28.0 -10.8
v -34.2 -27.0 -14.0
v -34.0 -27.0 -14.2
v -34.0 -27.3 -14.0
v -34.5 -27.0 -13.0
v -34.4 -27.0 -12.0
v -34.0 -27.0 -11.5
v -34.0 -27.7 -11.0
v -34.4 -26.0 -14.0
v -34.0 -26.0 -14.5
v -34.5 -26.0 -13.0
v -34.2 -26.0 -12.0
v -34.0 -26.0 -11.7
v -34.2 -25.0 -15.0
v -34.0 -25.0 -15.3
v -34.0 -25.4 -15.0
v -34.5 -25.0 -14.0
v -34.3 -25.0 -13.0
v -34.0 -25.0 -12.6
v -34.0 -25.6 -12.0
v -34.4 -24.0 -15.0
v -34.0 -24.0 -15.5
v -34.4 -24.0 -14.0
v -34.0 -24.0 -13.5
v -34.0 -24.5 -13.0
v -34.1 -23.0 -16.0
v -34.0 -23.0 -16.1
v -34.0 -23.2 -16.0
v -34.4 -23.0 -15.0
v -34.2 -23.0 -14.0
v -34.0 -23.0 -13.8
v -34.0 -22.6 -16.0
v -34.1 -22.0 -15.0
v -34.0 -22.0 -15.5
v -34.0 -22.0 -14.8
v -34.0 -22.7 -14.0
v -34.1 -21.0 -17.0
v -34.0 -21.0 -17.1
v -34.0 -21.2 -17.0
v -34.0 -21.6 -16.0
v -34.2 -21.0 -16.0
v -34.0 -21.8 -15.0
v -34.0 -21.0 -15.6
v -34.0 -20.6 -17.0
v -34.1 -20.0 -16.0
v -34.0 -20.0 -16.4
v -34.0 -20.0 -15.9
v -34.0 -19.0 -18.0
v -34.0 -19.0 -18.0
v -34.0 -19.0 -18.0
v -34.0 -19.4 -17.0
v -34.1 -19.0 -17.0
v -34.0 -19.8 -16.0
v -34.0 -19.0 -16.8
v -34.0 -19.0 -18.0
v -34.0 -18.8 -17.0
v -33.0 -34.0 -7.0
v -33.0 -34.0 -7.0
v -33.0 -34.0 -7.0
v -33.0 -34.0 -7.0
v -33.2 -33.0 -8.0
v -33.0 -33.0 -8.3
v -33.0 -33.3 -8.0
v -33.3 -33.0 -7.0
v -33.0 -33.0 -6.7
v -33.3 -32.0 -9.0
v -33.0 -32.0 -9.4
v -33.0 -32.3 -9.0
v -33.5 -32.0 -8.0
v -33.2 -32.0 -7.0
v -33.0 -32.0 -6.8
v -33.3 -31.0 -10.0
v -33.0 -31.0 -10.5
v -33.0 -31.4 -10.0
v -33.5 -31.0 -9.0
v -33.4 -31.0 -8.0
v -33.0 -31.0 -7.6
v -33.0 -31.7 -7.0
v -33.2 -30.0 -12.0
v -33.0 -30.0 -12.2
v -33.0 -30.2 -12.0
v -33.0 -30.6 -11.0
v -33.5 -30.0 -11.0
v -33.5 -30.0 -10.0
v -33.4 -30.0 -9.0
v -33.2 -30.0 -8.0
v -33.0 -30.0 -7.8
v -33.6 -29.0 -12.0
v -33.0 -29.0 -12.6
v -33.3 -29.0 -10.0
v -33.0 -29.0 -9.6
v -33.0 -29.6 -9.0
v -33.0 -29.8 -8.0
v -33.0 -28.0 -13.6
v -33.0 -28.6 -13.0
v -33.0 -28.6 -10.0
v -33.0 -28.0 -10.4
v -33.0 -27.0 -14.6
v -33.0 -27.6 -14.0
v -33.4 -27.0 -11.0
v -33.0 -27.0 -10.7
v -33.5 -26.0 -15.0
v -33.0 -26.0 -15.3
v -33.0 -26.5 -15.0
v -33.0 -26.6 -11.0
v -33.0 -26.0 -11.4
v -33.0 -25.0 -15.7
v -33.4 -25.0 -12.0
v -33.0 -25.0 -11.7
v -33.5 -24.0 -16.0
v -33.0 -24.0 -16.3
v -33.0 -24.5 -16.0
v -33.5 -24.0 -13.0
v -33.0 -24.0 -12.6
v -33.0 -24.7 -12.0
v -33.0 -23.0 -16.7
v -33.0 -23.6 -13.0
v -33.0 -23.0 -13.5
v -33.4 -22.0 -17.0
v -33.0 -22.0 -17.4
v -33.0 -22.5 -17.0
v -33.8 -22.0 -16.0
v -33.0 -22.5 -14.0
v -33.0 -22.0 -14.4
v -33.3 -21.0 -18.0
v -33.0 -21.0 -18.3
v -33.0 -21.3 -18.0
v -33.4 -21.0 -15.0
v -33.0 -21.0 -14.7
v -33.5 -20.0 -18.0
v -33.0 -20.0 -18.5
v -33.8 -20.0 -17.0
v -33.0 -20.6 -15.0
v -33.0 -20.0 -15.4
v -33.0 -19.0 -18.7
v -33.4 -19.0 -16.0
v -33.0 -19.0 -15.7
v -33.3 -18.0 -19.0
v -33.0 -18.0 -19.3
v -33.0 -18.4 -19.0
v -33.6 -18.0 -18.0
v -33.5 -18.0 -17.0
v -33.0 -18.0 -16.5
v -33.0 -18.7 -16.0
v -33.3 -17.0 -19.0
v -33.0 -17.0 -19.3
v -33.5 -17.0 -18.0
v -33.2 -17.0 -17.0
v -33.0 -17.0 -16.8
v -33.0 -16.5 -19.0
v -33.1 -16.0 -18.0
v -33.0 -16.0 -18.3
v -33.0 -16.0 -17.8
v -33.0 -16.6 -17.0
v -33.0 -15.8 -18.0
v -32.1 -35.0 -6.0
v -32.0 -35.0 -6.1
v -32.0 -35.1 -6.0
v -32.0 -35.0 -5.9
v -32.0 -34.0 -7.5
v -32.0 -34.4 -7.0
v -32.3 -34.0 -6.0
v -32.0 -34.0 -5.8
v -32.0 -33.0 -8.7
v -32.0 -33.5 -8.0
v -32.0 -33.6 -6.0
v -32.0 -33.0 -6.3
v -32.4 -32.0 -10.0
v -32.0 -32.0 -10.4
v -32.0 -32.4 -10.0
v -32.0 -32.8 -9.0
v -32.0 -32.0 -6.6
v -32.5 -31.0 -11.0
v -32.0 -31.0 -11.5
v -32.0 -31.4 -11.0
v -32.0 -31.4 -7.0
v -32.0 -31.0 -7.3
v -32.0 -30.0 -12.5
v -32.0 -30.6 -12.0
v -32.0 -30.0 -7.6
v -32.5 -29.0 -13.0
v -32.0 -29.0 -13.4
v -32.0 -29.4 -13.0
v -32.0 -29.3 -9.0
v -32.0 -29.0 -9.3
v -32.0 -29.6 -8.0
v -32.5 -28.0 -14.0
v -32.0 -28.0 -14.4
v -32.0 -28.4 -14.0
v -32.0 -28.3 -10.0
v -32.0 -28.0 -10.3
v -32.4 -27.0 -15.0
v -32.0 -27.0 -15.3
v -32.0 -27.3 -15.0
v -32.0 -27.0 -10.6
v -32.0 -26.0 -15.6
v -32.0 -26.4 -11.0
v -32.0 -26.0 -11.3
v -32.5 -25.0 -16.0
v -32.0 -25.0 -16.3
v -32.0 -25.4 -16.0
v -32.0 -25.0 -11.6
v -32.0 -24.0 -16.6
v -32.0 -24.5 -12.0
v -32.0 -24.0 -12.5
v -32.5 -23.0 -17.0
v -32.0 -23.0 -17.3
v -32.0 -23.4 -17.0
v -32.0 -23.5 -13.0
v -32.0 -23.0 -13.5
v -32.0 -22.0 -17.7
v -32.0 -22.5 -14.0
v -32.0 -22.0 -14.4
v -32.0 -21.0 -18.5
v -32.0 -21.6 -18.0
v -32.0 -21.0 -14.6
v -32.3 -20.0 -19.0
v -32.0 -20.0 -19.3
v -32.0 -20.3 -19.0
v -32.0 -20.5 -15.0
v -32.0 -20.0 -15.4
v -32.6 -19.0 -19.0
v -32.0 -19.0 -19.4
v -32.0 -19.0 -15.7
v -32.0 -18.0 -19.7
v -32.0 -18.6 -16.0
v -32.0 -18.0 -16.4
v -32.4 -17.0 -20.0
v -32.0 -17.0 -20.4
v -32.0 -17.5 -20.0
v -32.0 -17.0 -16.5
v -32.4 -16.0 -20.0
v -32.0 -16.0 -20.6
v -32.7 -16.0 -19.0
v -32.4 -16.0 -17.0
v -32.0 -16.0 -16.7
v -32.3 -15.0 -21.0
v -32.0 -15.0 -21.4
v -32.0 -15.5 -21.0
v -32.5 -15.0 -20.0
v -32.4 -15.0 -19.0
v -32.3 -15.0 -18.0
v -32.0 -15.0 -17.7
v -32.0 -15.7 -17.0
v -32.3 -14.0 -21.0
v -32.0 -14.0 -21.4
v -32.4 -14.0 -20.0
v -32.0 -14.0 -19.4
v -32.0 -14.4 -19.0
v -32.0 -14.7 -18.0
v -32.0 -13.6 -21.0
v -32.0 -13.0 -20.0
v -32.0 -13.0 -20.1
v -32.0 -13.0 -20.0
v -32.0 -13.0 -20.0
v -31.1 -37.0 -5.0
v -31.0 -37.0 -5.1
v -31.0 -37.1 -5.0
v -31.0 -37.0 -4.9
v -31.4 -36.0 -6.0
v -31.0 -36.0 -6.3
v -31.0 -36.3 -6.0
v -31.7 -36.0 -5.0
v -31.0 -36.0 -4.6
v -31.0 -35.0 -6.7
v -31.0 -35.4 -5.0
v -31.0 -35.0 -5.3
v -31.1 -34.0 -9.0
v -31.0 -34.0 -9.2
v -31.0 -34.1 -9.0
v -31.0 -34.0 -8.4
v -31.0 -34.0 -7.9
v -31.0 -34.7 -7.0
v -31.0 -34.0 -5.4
v -31.4 -33.0 -10.0
v -31.0 -33.0 -10.4
v -31.0 -33.4 -10.0
v -31.7 -33.0 -9.0
v -31.0 -33.9 -8.0
v -31.5 -33.0 -6.0
v -31.0 -33.0 -5.7
v -31.0 -32.0 -10.8
v -31.0 -32.5 -6.0
v -31.0 -32.0 -6.4
v -31.5 -31.0 -12.0
v -31.0 -31.0 -12.4
v -31.0 -31.4 -12.0
v -31.0 -31.8 -11.0
v -31.3 -31.0 -7.0
v -31.0 -31.0 -6.9
v -31.0 -30.0 -12.7
v -31.0 -30.8 -7.0
v -31.0 -30.0 -7.6
v -31.0 -29.0 -13.6
v -31.0 -29.7 -13.0
v -31.6 -29.0 -9.0
v -31.0 -29.0 -8.6
v -31.0 -29.5 -8.0
v -31.0 -28.0 -14.6
v -31.0 -28.6 -14.0
v -31.6 -28.0 -10.0
v -31.0 -28.0 -9.5
v -31.0 -28.5 -9.0
v -31.0 -27.0 -15.5
v -31.0 -27.6 -15.0
v -31.0 -27.4 -10.0
v -31.0 -27.0 -10.3
v -31.0 -26.0 -15.6
v -31.6 -26.0 -11.0
v -31.0 -26.0 -10.6
v -31.0 -25.0 -16.4
v -31.0 -25.5 -16.0
v -31.0 -25.5 -11.0
v -31.0 -25.0 -11.4
v -31.0 -24.0 -16.6
v -31.0 -24.4 -12.0
v -31.0 -24.0 -12.4
v -31.0 -23.0 -17.5
v -31.0 -23.5 -17.0
v -31.0 -23.4 -13.0
v -31.0 -23.0 -13.4
v -31.5 -22.0 -18.0
v -31.0 -22.0 -18.3
v -31.0 -22.4 -18.0
v -31.0 -22.3 -14.0
v -31.0 -22.0 -14.3
v -31.0 -21.0 -18.7
v -31.0 -21.0 -14.6
v -31.0 -20.0 -19.5
v -31.0 -20.6 -19.0
v -31.0 -20.5 -15.0
v -31.0 -20.0 -15.5
v -31.0 -19.0 -19.8
v -31.5 -19.0 -16.0
v -31.0 -19.4 -16.0
v -31.0 -19.0 -16.3
v -31.3 -18.0 -21.0
v -31.0 -18.0 -21.3
v -31.0 -18.3 -21.0
v -31.0 -18.7 -20.0
v -31.7 -18.0 -20.0
v -31.0 -18.0 -16.5
v -31.2 -17.0 -22.0
v -31.0 -17.0 -22.3
v -31.0 -17.3 -22.0
v -31.6 -17.0 -21.0
v -31.0 -17.0 -16.6
v -31.4 -16.0 -22.0
v -31.0 -16.0 -22.6
v -31.7 -16.0 -21.0
v -31.0 -16.0 -16.8
v -31.3 -15.0 -23.0
v -31.0 -15.0 -23.3
v -31.0 -15.5 -23.0
v -31.6 -15.0 -22.0
v -31.0 -15.7 -17.0
v -31.0 -15.0 -17.5
v -31.4 -14.0 -23.0
v -31.0 -14.0 -23.5
v -31.6 -14.0 -22.0
v -31.4 -14.0 -19.0
v -31.0 -14.0 -18.8
v -31.0 -14.6 -18.0
v -31.2 -13.0 -23.0
v -31.0 -13.0 -23.3
v -31.4 -13.0 -22.0
v -31.6 -13.0 -21.0
v -31.0 -13.8 -19.0
v -31.0 -13.0 -19.7
v -31.0 -12.7 -23.0
v -31.0 -12.4 -22.0
v -31.1 -12.0 -21.0
v -31.0 -12.0 -21.1
v -31.0 -12.7 -20.0
v -31.0 -12.0 -20.9
v -31.0 -11.9 -21.0
v -30.0 -37.0 -5.6
v -30.0 -37.4 -5.0
v -30.0 -37.3 -4.0
v -30.3 -37.0 -4.0
v -30.0 -37.0 -3.7
v -30.3 -36.0 -7.0
v -30.0 -36.0 -7.3
v -30.0 -36.3 -7.0
v -30.0 -36.7 -6.0
v -30.3 -36.0 -4.0
v -30.0 -36.0 -3.7
v -30.3 -35.0 -8.0
v -30.0 -35.0 -8.3
v -30.0 -35.3 -8.0
v -30.8 -35.0 -7.0
v -30.7 -35.0 -5.0
v -30.0 -35.0 -4.4
v -30.0 -35.6 -4.0
v -30.2 -34.0 -10.0
v -30.0 -34.0 -10.2
v -30.0 -34.1 -10.0
v -30.0 -34.5 -9.0
v -30.9 -34.0 -8.0
v -30.4 -34.0 -5.0
v -30.0 -34.0 -4.7
v -30.3 -33.0 -11.0
v -30.0 -33.0 -11.3
v -30.0 -33.3 -11.0
v -30.0 -33.7 -5.0
v -30.0 -33.0 -5.5
v -30.3 -32.0 -12.0
v -30.0 -32.0 -12.3
v -30.0 -32.3 -12.0
v -30.8 -32.0 -11.0
v -30.0 -32.1 -6.0
v -30.0 -32.0 -6.3
v -30.3 -31.0 -13.0
v -30.0 -31.0 -13.2
v -30.0 -31.3 -13.0
v -30.8 -31.0 -7.0
v -30.0 -31.8 -7.0
v -30.0 -31.0 -7.4
v -30.7 -30.0 -13.0
v -30.0 -30.0 -13.5
v -30.0 -30.0 -7.7
v -30.5 -29.0 -14.0
v -30.0 -29.0 -14.3
v -30.0 -29.4 -14.0
v -30.0 -29.6 -8.0
v -30.0 -29.0 -8.5
v -30.3 -28.0 -15.0
v -30.0 -28.0 -15.2
v -30.0 -28.2 -15.0
v -30.2 -28.0 -9.0
v -30.0 -28.0 -8.9
v -30.0 -27.0 -15.9
v -30.5 -27.0 -10.0
v -30.0 -27.0 -9.7
v -30.0 -27.9 -9.0
v -30.0 -26.0 -15.8
v -30.1 -26.0 -10.0
v -30.0 -26.0 -9.9
v -30.0 -25.0 -16.4
v -30.0 -25.8 -16.0
v -30.5 -25.0 -11.0
v -30.0 -25.0 -10.6
v -30.0 -25.9 -10.0
v -30.0 -24.0 -16.7
v -30.6 -24.0 -12.0
v -30.0 -24.0 -11.5
v -30.0 -24.5 -11.0
v -30.0 -23.0 -17.6
v -30.0 -23.7 -17.0
v -30.6 -23.0 -13.0
v -30.0 -23.0 -12.5
v -30.0 -23.5 -12.0
v -30.0 -22.0 -18.6
v -30.0 -22.6 -18.0
v -30.6 -22.0 -14.0
v -30.0 -22.0 -13.5
v -30.0 -22.5 -13.0
v -30.6 -21.0 -19.0
v -30.0 -21.0 -19.5
v -30.0 -21.5 -19.0
v -30.0 -21.5 -14.0
v -30.0 -21.0 -14.4
v -30.4 -20.0 -20.0
v -30.0 -20.0 -20.4
v -30.0 -20.4 -20.0
v -30.0 -20.5 -15.0
v -30.0 -20.0 -15.5
v -30.3 -19.0 -21.0
v -30.0 -19.0 -21.3
v -30.0 -19.3 -21.0
v -30.8 -19.0 -20.0
v -30.0 -19.5 -16.0
v -30.0 -19.0 -16.4
v -30.0 -18.0 -21.7
v -30.0 -18.0 -16.6
v -30.3 -17.0 -23.0
v -30.0 -17.0 -23.2
v -30.0 -17.2 -23.0
v -30.0 -17.7 -22.0
v -30.4 -17.0 -17.0
v -30.0 -17.4 -17.0
v -30.0 -17.0 -17.4
v -30.6 -16.0 -23.0
v -30.0 -16.0 -23.6
v -30.7 -16.0 -17.0
v -30.0 -16.0 -17.6
v -30.3 -15.0 -24.0
v -30.0 -15.0 -24.3
v -30.0 -15.4 -24.0
v -30.0 -15.0 -17.8
v -30.5 -14.0 -24.0
v -30.0 -14.0 -24.5
v -30.6 -14.0 -19.0
v -30.0 -14.4 -19.0
v -30.0 -14.0 -19.4
v -30.0 -14.8 -18.0
v -30.4 -13.0 -24.0
v -30.0 -13.0 -24.4
v -30.5 -13.0 -20.0
v -30.0 -13.3 -20.0
v -30.0 -13.0 -20.3
v -30.0 -12.6 -24.0
v -30.3 -12.0 -23.0
v -30.0 -12.0 -23.4
v -30.6 -12.0 -22.0
v -30.0 -12.0 -20.7
v -30.0 -11.7 -23.0
v -30.0 -11.6 -22.0
v -30.0 -11.7 -21.0
v -29.3 -38.0 -4.0
v -29.0 -38.0 -4.5
v -29.0 -38.3 -4.0
v -29.0 -38.0 -3.0
v -29.0 -38.0 -3.0
v -29.0 -38.0 -3.0
v -29.5 -37.0 -6.0
v -29.0 -37.0 -6.4
v -29.0 -37.3 -6.0
v -29.0 -37.7 -5.0
v -29.0 -37.9 -3.0
v -29.0 -37.0 -3.3
v -29.0 -36.0 -7.5
v -29.0 -36.5 -7.0
v -29.0 -36.0 -3.4
v -29.0 -35.0 -8.5
v -29.0 -35.5 -8.0
v -29.4 -35.0 -4.0
v -29.0 -35.0 -3.7
v -29.7 -34.0 -10.0
v -29.0 -34.0 -9.6
v -29.0 -34.5 -9.0
v -29.0 -34.6 -4.0
v -29.0 -34.0 -4.5
v -29.0 -33.0 -11.6
v -29.0 -33.4 -11.0
v -29.0 -33.7 -10.0
v -29.0 -33.5 -5.0
v -29.0 -33.0 -5.5
v -29.0 -32.0 -12.5
v -29.0 -32.6 -12.0
v -29.0 -32.4 -6.0
v -29.0 -32.0 -6.5
v -29.0 -31.0 -13.4
v -29.0 -31.5 -13.0
v -29.0 -31.6 -7.0
v -29.0 -31.0 -7.5
v -29.0 -30.0 -13.6
v -29.5 -30.0 -8.0
v -29.0 -30.4 -8.0
v -29.0 -30.0 -8.4
v -29.0 -29.0 -14.4
v -29.0 -29.5 -14.0
v -29.3 -29.0 -9.0
v -29.0 -29.3 -9.0
v -29.0 -29.0 -9.2
v -29.4 -28.0 -15.0
v -29.0 -28.0 -14.8
v -29.9 -28.0 -9.0
v -29.0 -28.0 -9.5
v -29.0 -27.0 -15.6
v -29.0 -27.8 -15.0
v -29.4 -27.0 -10.0
v -29.0 -27.3 -10.0
v -29.0 -27.0 -10.2
v -29.5 -26.0 -16.0
v -29.0 -26.0 -16.2
v -29.0 -26.3 -16.0
v -29.9 -26.0 -10.0
v -29.0 -26.0 -10.4
v -29.0 -25.0 -16.6
v -29.0 -25.0 -10.6
v -29.5 -24.0 -17.0
v -29.0 -24.0 -17.4
v -29.0 -24.4 -17.0
v -29.4 -24.0 -11.0
v -29.0 -24.0 -10.8
v -29.5 -23.0 -18.0
v -29.0 -23.0 -18.4
v -29.0 -23.4 -18.0
v -29.6 -23.0 -12.0
v -29.0 -23.0 -11.5
v -29.0 -23.7 -11.0
v -29.5 -22.0 -19.0
v -29.0 -22.0 -19.3
v -29.0 -22.4 -19.0
v -29.6 -22.0 -13.0
v -29.0 -22.0 -12.0
v -29.0 -22.0 -12.0
v -29.2 -21.0 -20.0
v -29.0 -21.0 -20.1
v -29.0 -21.2 -20.0
v -29.4 -21.0 -14.0
v -29.0 -21.0 -13.6
v -29.0 -21.5 -13.0
v -29.0 -22.0 -12.0
v -29.0 -20.0 -20.6
v -29.0 -20.3 -15.0
v -29.0 -20.0 -15.4
v -29.0 -20.7 -14.0
v -29.0 -19.0 -21.5
v -29.0 -19.5 -21.0
v -29.0 -19.5 -16.0
v -29.0 -19.0 -16.5
v -29.6 -18.0 -22.0
v -29.0 -18.0 -22.4
v -29.0 -18.4 -22.0
v -29.0 -18.0 -16.8
v -29.0 -17.0 -23.4
v -29.0 -17.5 -23.0
v -29.3 -17.0 -19.0
v -29.0 -17.4 -19.0
v -29.0 -17.0 -19.4
v -29.5 -17.0 -18.0
v -29.0 -17.5 -18.0
v -29.0 -17.8 -17.0
v -29.3 -16.0 -24.0
v -29.0 -16.0 -24.2
v -29.0 -16.2 -24.0
v -29.1 -16.0 -20.0
v -29.0 -16.1 -20.0
v -29.0 -16.0 -20.1
v -29.5 -16.0 -19.0
v -29.6 -16.0 -18.0
v -29.0 -15.0 -24.6
v -29.0 -15.9 -20.0
v -29.0 -15.0 -19.5
v -29.5 -15.0 -19.0
v -29.8 -15.0 -18.0
v -29.3 -14.0 -25.0
v -29.0 -14.0 -25.2
v -29.0 -14.3 -25.0
v -29.0 -14.0 -19.6
v -29.3 -13.0 -25.0
v -29.0 -13.0 -25.3
v -29.0 -13.5 -20.0
v -29.0 -13.0 -20.4
v -29.0 -12.6 -25.0
v -29.4 -12.0 -24.0
v -29.0 -12.0 -24.5
v -29.0 -12.0 -20.7
v -29.0 -11.7 -24.0
v -29.0 -11.5 -23.0
v -29.0 -11.5 -22.0
v -29.0 -11.7 -21.0
v -28.1 -39.0 -4.0
v -28.0 -39.0 -4.1
v -28.0 -39.1 -4.0
v -28.0 -39.0 -3.7
v -28.5 -38.0 -5.0
v -28.0 -38.0 -5.4
v -28.0 -38.4 -5.0
v -28.0 -38.7 -3.0
v -28.0 -38.0 -2.4
v -28.0 -37.0 -6.5
v -28.0 -37.5 -6.0
v -28.6 -37.0 -3.0
v -28.0 -37.0 -2.5
v -28.0 -36.0 -7.5
v -28.0 -36.5 -7.0
v -28.4 -36.0 -3.0
v -28.0 -36.0 -2.7
v -28.0 -35.0 -8.5
v -28.0 -35.5 -8.0
v -28.0 -35.7 -3.0
v -28.0 -35.0 -3.5
v -28.0 -34.0 -9.6
v -28.0 -34.5 -9.0
v -28.0 -34.5 -4.0
v -28.0 -34.0 -4.5
v -28.4 -33.0 -12.0
v -28.0 -33.0 -12.3
v -28.0 -33.3 -12.0
v -28.0 -33.6 -11.0
v -28.0 -33.7 -10.0
v -28.0 -33.5 -5.0
v -28.0 -33.0 -5.5
v -28.0 -32.0 -12.7
v -28.0 -32.5 -6.0
v -28.0 -32.0 -6.5
v -28.0 -31.0 -13.4
v -28.0 -31.6 -13.0
v -28.0 -31.5 -7.0
v -28.0 -31.0 -7.5
v -28.0 -30.0 -13.6
v -28.0 -30.5 -8.0
v -28.0 -30.0 -8.5
v -28.0 -29.0 -14.3
v -28.0 -29.4 -14.0
v -28.0 -29.5 -9.0
v -28.0 -29.0 -9.4
v -28.3 -28.0 -15.0
v -28.0 -28.0 -15.1
v -28.0 -28.1 -15.0
v -28.0 -28.0 -9.6
v -28.0 -27.0 -15.4
v -28.0 -27.5 -10.0
v -28.0 -27.0 -10.4
v -28.7 -26.0 -16.0
v -28.0 -26.0 -15.6
v -28.0 -26.0 -10.7
v -28.0 -25.0 -16.4
v -28.0 -25.5 -16.0
v -28.2 -25.0 -11.0
v -28.0 -25.3 -11.0
v -28.0 -25.0 -11.2
v -28.0 -24.0 -17.3
v -28.0 -24.3 -17.0
v -28.0 -24.3 -11.0
v -28.0 -24.0 -10.9
v -28.0 -23.0 -18.3
v -28.0 -23.3 -18.0
v -28.0 -23.9 -11.0
v -28.0 -23.0 -11.7
v -28.0 -22.0 -19.3
v -28.0 -22.3 -19.0
v -29.0 -22.0 -12.0
v -28.0 -22.6 -12.0
v -28.0 -22.0 -12.6
v -28.7 -21.0 -20.0
v -28.0 -21.0 -19.6
v -28.0 -21.7 -13.0
v -28.0 -21.0 -13.7
v -28.0 -20.0 -20.4
v -28.0 -20.5 -20.0
v -28.1 -20.0 -17.0
v -28.0 -20.1 -17.0
v -28.0 -20.0 -17.1
v -28.0 -20.0 -16.8
v -28.2 -20.0 -15.0
v -28.0 -20.0 -14.9
v -28.0 -20.7 -14.0
v -28.0 -19.0 -21.3
v -28.0 -19.3 -21.0
v -28.3 -19.0 -18.0
v -28.0 -19.3 -18.0
v -28.0 -19.0 -18.4
v -28.6 -19.0 -17.0
v -28.0 -19.7 -16.0
v -28.0 -19.9 -15.0
v -28.0 -18.0 -22.4
v -28.0 -18.4 -22.0
v -28.2 -18.0 -20.0
v -28.0 -18.2 -20.0
v -28.0 -18.0 -20.2
v -28.5 -18.0 -19.0
v -28.0 -18.6 -19.0
v -28.6 -18.0 -18.0
v -28.8 -18.0 -17.0
v -28.0 -17.0 -23.3
v -28.0 -17.3 -23.0
v -28.5 -17.0 -20.0
v -28.0 -17.0 -20.4
v -28.7 -16.0 -24.0
v -28.0 -16.0 -23.7
v -28.0 -16.0 -20.4
v -28.0 -15.0 -24.5
v -28.0 -15.6 -24.0
v -28.0 -15.4 -20.0
v -28.0 -15.0 -19.7
v -28.0 -14.0 -25.4
v -28.0 -14.5 -25.0
v -28.0 -14.0 -19.6
v -28.0 -13.0 -25.6
v -28.0 -13.4 -20.0
v -28.0 -13.0 -20.3
v -28.5 -12.0 -25.0
v -28.0 -12.0 -25.7
v -28.0 -12.0 -20.6
v -28.0 -11.7 -25.0
v -28.0 -11.5 -24.0
v -28.0 -11.5 -23.0
v -28.0 -11.5 -22.0
v -28.0 -11.6 -21.0
v -27.0 -39.0 -4.4
v -27.0 -39.4 -4.0
v -27.0 -39.4 -3.0
v -27.7 -39.0 -3.0
v -27.0 -39.4 -2.0
v -27.8 -39.0 -2.0
v -27.0 -39.0 -1.6
v -27.0 -38.0 -5.5
v -27.0 -38.5 -5.0
v -27.6 -38.0 -2.0
v -27.0 -38.0 -1.5
v -27.0 -37.0 -6.6
v -27.0 -37.5 -6.0
v -27.4 -37.0 -2.0
v -27.0 -37.0 -1.7
v -27.0 -36.0 -7.7
v -27.0 -36.6 -7.0
v -27.0 -36.6 -2.0
v -27.0 -36.0 -2.5
v -27.0 -35.0 -8.8
v -27.0 -35.7 -8.0
v -27.0 -35.5 -3.0
v -27.0 -35.0 -3.5
v -27.2 -34.0 -11.0
v -27.0 -34.0 -11.2
v -27.0 -34.2 -11.0
v -27.0 -34.5 -10.0
v -27.2 -34.0 -10.0
v -27.0 -34.9 -9.0
v -27.0 -34.5 -4.0
v -27.0 -34.0 -4.5
v -27.0 -33.0 -12.4
v -27.0 -33.5 -12.0
v -27.0 -33.5 -5.0
v -27.0 -33.0 -5.5
v -27.3 -32.0 -13.0
v -27.0 -32.0 -13.2
v -27.0 -32.2 -13.0
v -27.0 -32.5 -6.0
v -27.0 -32.0 -6.5
v -27.0 -31.0 -13.5
v -27.0 -31.5 -7.0
v -27.0 -31.0 -7.5
v -27.0 -30.0 -13.5
v -27.0 -30.5 -8.0
v -27.0 -30.0 -8.5
v -27.6 -29.0 -14.0
v -27.0 -29.0 -13.6
v -27.0 -29.4 -9.0
v -27.0 -29.0 -9.3
v -27.9 -28.0 -15.0
v -27.3 -28.0 -14.0
v -27.0 -28.0 -13.7
v -27.0 -28.0 -9.6
v -27.6 -27.0 -15.0
v -27.0 -27.0 -14.4
v -27.0 -27.6 -14.0
v -27.0 -27.5 -10.0
v -27.0 -27.0 -10.6
v -27.4 -26.0 -15.0
v -27.0 -26.0 -14.6
v -27.5 -26.0 -11.0
v -27.0 -26.5 -11.0
v -27.0 -26.0 -11.5
v -27.6 -25.0 -16.0
v -27.0 -25.0 -15.3
v -27.0 -25.5 -15.0
v -27.1 -25.0 -13.0
v -27.0 -25.2 -13.0
v -27.0 -25.0 -13.2
v -27.0 -25.0 -12.4
v -27.0 -25.0 -11.9
v -27.7 -24.0 -17.0
v -27.3 -24.0 -16.0
v -27.0 -24.0 -15.6
v -27.4 -24.0 -13.0
v -27.0 -24.0 -13.6
v -27.0 -24.9 -12.0
v -27.5 -24.0 -12.0
v -27.9 -24.0 -11.0
v -27.7 -23.0 -18.0
v -27.2 -23.0 -17.0
v -27.0 -23.0 -16.7
v -27.0 -23.6 -16.0
v -27.3 -23.0 -14.0
v -27.0 -23.5 -14.0
v -27.0 -23.0 -14.5
v -27.5 -23.0 -13.0
v -27.7 -23.0 -12.0
v -27.7 -22.0 -19.0
v -27.0 -22.0 -18.4
v -27.0 -22.4 -18.0
v -27.0 -22.8 -17.0
v -27.2 -22.0 -15.0
v -27.0 -22.4 -15.0
v -27.0 -22.0 -15.3
v -27.5 -22.0 -14.0
v -27.7 -22.0 -13.0
v -27.3 -21.0 -19.0
v -27.0 -21.0 -18.7
v -27.4 -21.0 -15.0
v -27.0 -21.0 -15.6
v -27.8 -21.0 -14.0
v -27.5 -20.0 -20.0
v -27.0 -20.0 -19.4
v -27.0 -20.5 -19.0
v -27.0 -20.4 -17.0
v -27.0 -20.0 -17.6
v -27.7 -20.0 -16.0
v -27.0 -20.6 -16.0
v -27.9 -20.0 -15.0
v -27.6 -19.0 -21.0
v -27.1 -19.0 -20.0
v -27.0 -19.6 -19.0
v -27.5 -19.0 -19.0
v -27.0 -19.7 -18.0
v -27.5 -18.0 -22.0
v -27.0 -18.0 -21.2
v -27.0 -18.2 -21.0
v -27.0 -18.0 -20.9
v -27.5 -17.0 -23.0
v -27.0 -17.0 -22.6
v -27.0 -17.6 -22.0
v -27.0 -17.0 -20.6
v -27.0 -16.0 -23.5
v -27.0 -16.6 -23.0
v -27.0 -16.0 -20.5
v -27.0 -15.0 -24.5
v -27.0 -15.5 -24.0
v -27.5 -15.0 -20.0
v -27.0 -15.0 -20.3
v -27.0 -14.0 -25.5
v -27.0 -14.5 -25.0
v -27.0 -14.6 -20.0
v -27.0 -14.0 -19.6
v -27.2 -13.0 -26.0
v -27.0 -13.0 -26.1
v -27.0 -13.1 -26.0
v -27.3 -13.0 -20.0
v -27.0 -13.0 -19.9
v -27.0 -12.8 -26.0
v -27.0 -12.0 -25.4
v -27.0 -12.8 -20.0
v -27.0 -12.0 -20.6
v -27.0 -11.7 -25.0
v -27.0 -11.6 -24.0
v -27.0 -11.5 -23.0
v -27.0 -11.5 -22.0
v -27.0 -11.6 -21.0
v -26.3 -40.0 -2.0
v -26.0 -40.0 -2.3
v -26.0 -40.2 -2.0
v -26.0 -40.2 -1.0
v -26.2 -40.0 -1.0
v -26.0 -40.0 -0.7
v -26.0 -39.0 -4.5
v -26.0 -39.4 -4.0
v -26.0 -39.6 -3.0
v -26.5 -39.0 -1.0
v -26.0 -39.0 -0.5
v -26.0 -38.0 -5.6
v -26.0 -38.5 -5.0
v -26.5 -38.0 -1.0
v -26.0 -38.0 -0.5
v -26.5 -37.0 -7.0
v -26.0 -37.0 -7.5
v -26.0 -37.3 -7.0
v -26.0 -37.7 -6.0
v -26.3 -37.0 -1.0
v -26.0 -37.0 -0.8
v -26.2 -36.0 -9.0
v -26.0 -36.0 -9.3
v -26.0 -36.2 -9.0
v -26.0 -36.6 -8.0
v -26.7 -36.0 -8.0
v -26.0 -36.4 -2.0
v -26.0 -36.0 -2.5
v -26.0 -36.8 -1.0
v -26.8 -35.0 -10.0
v -26.0 -35.0 -10.3
v -26.0 -35.3 -10.0
v -26.9 -35.0 -9.0
v -26.0 -35.5 -3.0
v -26.0 -35.0 -3.5
v -26.0 -34.0 -11.3
v -26.0 -34.3 -11.0
v -26.0 -34.5 -4.0
v -26.0 -34.0 -4.5
v -26.0 -33.0 -12.3
v -26.0 -33.3 -12.0
v -26.0 -33.5 -5.0
v -26.0 -33.0 -5.5
v -26.7 -32.0 -13.0
v -26.0 -32.0 -12.7
v -26.0 -32.5 -6.0
v -26.0 -32.0 -6.5
v -26.0 -31.0 -13.3
v -26.0 -31.5 -13.0
v -26.0 -31.5 -7.0
v -26.0 -31.0 -7.5
v -26.0 -30.0 -13.4
v -26.0 -30.5 -8.0
v -26.0 -30.0 -8.4
v -26.0 -29.0 -13.3
v -26.2 -29.0 -9.0
v -26.0 -29.0 -8.9
v -26.0 -28.0 -13.3
v -26.0 -28.9 -9.0
v -26.0 -28.0 -9.8
v -26.6 -27.0 -14.0
v -26.0 -27.0 -13.1
v -26.3 -27.0 -12.0
v -26.0 -27.4 -12.0
v -26.0 -27.0 -12.8
v -26.6 -27.0 -11.0
v -26.0 -27.5 -11.0
v -26.0 -27.8 -10.0
v -26.6 -26.0 -14.0
v -26.0 -26.9 -13.0
v -26.5 -26.0 -13.0
v -26.6 -26.0 -12.0
v -26.7 -25.0 -15.0
v -26.6 -25.0 -14.0
v -26.9 -25.0 -12.0
v -26.6 -24.0 -15.0
v -26.7 -24.0 -14.0
v -26.0 -23.0 -16.0
v -26.0 -23.0 -16.0
v -26.6 -23.0 -15.0
v -26.0 -23.0 -16.0
v -26.5 -22.0 -18.0
v -26.0 -22.0 -17.4
v -26.0 -22.3 -17.0
v -26.0 -22.0 -15.8
v -26.0 -21.0 -18.3
v -26.0 -21.4 -18.0
v -26.6 -21.0 -16.0
v -26.0 -21.7 -16.0
v -26.0 -21.0 -16.6
v -26.4 -20.0 -19.0
v -26.0 -20.6 -18.0
v -26.6 -20.0 -18.0
v -26.0 -20.7 -17.0
v -26.9 -18.0 -21.0
v -26.0 -17.0 -22.3
v -26.0 -17.3 -22.0
v -26.5 -17.0 -21.0
v -26.0 -17.0 -21.6
v -26.0 -16.0 -23.5
v -26.0 -16.5 -23.0
v -26.0 -16.5 -21.0
v -26.0 -16.0 -20.7
v -26.0 -15.0 -24.5
v -26.0 -15.5 -24.0
v -26.0 -15.0 -20.4
v -26.0 -14.0 -25.5
v -26.0 -14.5 -25.0
v -26.0 -14.2 -20.0
v -26.0 -14.0 -19.9
v -26.0 -13.0 -26.0
v -26.0 -13.0 -26.0
v -26.7 -13.0 -20.0
v -26.0 -13.8 -20.0
v -26.0 -13.0 -20.3
v -26.0 -13.0 -26.0
v -26.6 -12.0 -25.0
v -26.0 -12.4 -25.0
v -26.4 -12.0 -24.0
v -26.0 -12.3 -24.0
v -26.0 -12.0 -23.5
v -26.0 -12.0 -20.8
v -26.0 -11.7 -23.0
v -26.0 -11.6 -22.0
v -26.0 -11.8 -21.0
v -25.0 -40.0 -2.3
v -25.0 -40.2 -2.0
v -25.0 -40.4 -1.0
v -25.0 -40.2 0.0
v -25.3 -40.0 0.0
v -25.0 -40.0 0.3
v -25.0 -39.0 -4.3
v -25.0 -39.3 -4.0
v -25.0 -39.5 -3.0
v -25.5 -39.0 0.0
v -25.0 -39.0 0.6
v -25.3 -38.0 -6.0
v -25.0 -38.0 -6.2
v -25.0 -38.1 -6.0
v -25.0 -38.6 -5.0
v -25.5 -38.0 0.0
v -25.0 -38.1 1.0
v -25.0 -38.0 1.0
v -25.0 -38.0 1.1
v -25.2 -37.0 -8.0
v -25.0 -37.0 -8.1
v -25.0 -37.1 -8.0
v -25.0 -37.5 -7.0
v -25.0 -37.5 0.0
v -25.0 -37.0 -0.7
v -25.0 -37.9 1.0
v -25.0 -36.0 -9.3
v -25.0 -36.3 -9.0
v -25.0 -36.4 -2.0
v -25.0 -36.0 -2.5
v -25.0 -36.7 -1.0
v -25.6 -35.0 -10.0
v -25.0 -35.0 -9.7
v -25.0 -35.5 -3.0
v -25.0 -35.0 -3.5
v -25.6 -34.0 -11.0
v -25.0 -34.0 -10.5
v -25.0 -34.6 -10.0
v -25.0 -34.5 -4.0
v -25.0 -34.0 -4.5
v -25.6 -33.0 -12.0
v -25.0 -33.0 -11.5
v -25.0 -33.5 -11.0
v -25.0 -33.5 -5.0
v -25.0 -33.0 -5.5
v -25.0 -32.0 -12.3
v -25.0 -32.4 -12.0
v -25.0 -32.5 -6.0
v -25.0 -32.0 -6.6
v -25.7 -31.0 -13.0
v -25.0 -31.0 -12.3
v -25.0 -31.6 -7.0
v -25.0 -31.0 -7.7
v -25.6 -30.0 -13.0
v -25.0 -30.5 -12.0
v -25.3 -30.0 -12.0
v -25.0 -30.0 -11.5
v -25.0 -30.7 -8.0
v -25.0 -30.0 -8.7
v -25.7 -29.0 -13.0
v -25.5 -29.0 -12.0
v -25.0 -29.6 -11.0
v -25.4 -29.0 -11.0
v -25.4 -29.0 -10.0
v -25.0 -29.5 -10.0
v -25.9 -29.0 -9.0
v -25.0 -29.7 -9.0
v -25.7 -28.0 -13.0
v -25.6 -28.0 -12.0
v -25.6 -28.0 -11.0
v -25.8 -28.0 -10.0
v -25.9 -27.0 -13.0
v -26.0 -23.0 -16.0
v -25.7 -22.0 -17.0
v -25.8 -22.0 -16.0
v -25.5 -21.0 -18.0
v -25.7 -21.0 -17.0
v -25.0 -17.0 -22.0
v -25.0 -17.0 -22.0
v -25.0 -17.0 -22.0
v -25.0 -16.0 -23.5
v -25.0 -16.5 -23.0
v -25.5 -16.0 -21.0
v -25.0 -16.0 -21.3
v -25.0 -15.0 -24.5
v -25.0 -15.5 -24.0
v -25.0 -15.6 -21.0
v -25.0 -15.0 -20.6
v -25.0 -14.0 -25.4
v -25.0 -14.4 -25.0
v -25.8 -14.0 -20.0
v -25.0 -14.0 -20.4
v -26.0 -13.0 -26.0
v -25.0 -13.0 -25.3
v -25.0 -13.0 -20.7
v -25.0 -12.8 -25.0
v -25.0 -12.6 -24.0
v -25.6 -12.0 -23.0
v -25.0 -12.5 -23.0
v -25.5 -12.0 -22.0
v -25.0 -12.5 -22.0
v -25.7 -12.0 -21.0
v -25.0 -12.7 -21.0
v -24.8 -40.0 -2.0
v -24.5 -40.0 -1.0
v -24.0 -40.0 -0.4
v -24.0 -40.3 0.0
v -24.0 -40.2 1.0
v -24.3 -40.0 1.0
v -24.0 -40.0 1.3
v -24.7 -39.0 -4.0
v -24.5 -39.0 -3.0
v -24.2 -39.0 -2.0
v -24.0 -39.0 -1.7
v -24.0 -39.6 -1.0
v -24.6 -39.0 1.0
v -24.0 -39.0 1.6
v -24.8 -38.0 -6.0
v -24.0 -38.0 -5.4
v -24.0 -38.3 -5.0
v -24.0 -38.5 -4.0
v -24.0 -38.5 -3.0
v -24.0 -38.8 -2.0
v -24.0 -38.1 2.0
v -24.1 -38.0 2.0
v -24.0 -38.0 2.0
v -24.9 -37.0 -8.0
v -24.4 -37.0 -7.0
v -24.0 -37.0 -6.5
v -24.0 -37.4 -6.0
v -24.5 -37.0 -1.0
v -24.0 -37.3 -1.0
v -24.0 -37.0 -1.4
v -24.0 -37.5 0.0
v -24.0 -37.6 1.0
v -24.0 -37.9 2.0
v -24.6 -36.0 -9.0
v -24.0 -36.0 -8.4
v -24.0 -36.3 -8.0
v -24.0 -36.6 -7.0
v -24.0 -36.5 -2.0
v -24.0 -36.0 -2.5
v -24.0 -35.0 -9.3
v -24.0 -35.4 -9.0
v -24.0 -35.5 -3.0
v -24.0 -35.0 -3.5
v -24.5 -34.0 -10.0
v -24.0 -34.0 -9.6
v -24.0 -34.5 -4.0
v -24.0 -34.0 -4.5
v -24.6 -33.0 -11.0
v -24.0 -33.0 -10.2
v -24.0 -33.3 -10.0
v -24.0 -33.5 -5.0
v -24.0 -33.0 -5.6
v -24.8 -32.0 -12.0
v -24.5 -32.0 -11.0
v -24.0 -32.7 -10.0
v -24.3 -32.0 -10.0
v -24.0 -32.0 -9.5
v -24.5 -32.0 -7.0
v -24.0 -32.3 -7.0
v -24.0 -32.0 -7.5
v -24.0 -32.7 -6.0
v -24.7 -31.0 -12.0
v -24.5 -31.0 -11.0
v -24.5 -31.0 -10.0
v -24.0 -31.6 -9.0
v -24.4 -31.0 -9.0
v -24.7 -31.0 -8.0
v -24.0 -31.7 -8.0
v -24.7 -30.0 -11.0
v -24.6 -30.0 -10.0
v -24.8 -30.0 -9.0
v -25.0 -17.0 -22.0
v -24.0 -16.0 -23.5
v -24.0 -16.4 -23.0
v -24.0 -16.5 -22.0
v -24.0 -16.0 -21.5
v -24.0 -15.0 -24.4
v -24.0 -15.5 -24.0
v -24.0 -15.4 -21.0
v -24.0 -15.0 -20.7
v -24.0 -14.0 -25.0
v -24.0 -14.0 -25.0
v -24.0 -14.0 -20.8
v -24.0 -14.0 -25.0
v -24.7 -13.0 -25.0
v -24.5 -13.0 -24.0
v -24.0 -13.5 -24.0
v -24.5 -13.0 -23.0
v -24.0 -13.5 -23.0
v -24.5 -13.0 -22.0
v -24.0 -13.5 -22.0
v -24.7 -13.0 -21.0
v -24.0 -13.7 -21.0
v -23.6 -40.0 0.0
v -23.0 -40.0 0.6
v -23.0 -40.3 1.0
v -23.0 -40.2 2.0
v -23.2 -40.0 2.0
v -23.0 -40.0 2.2
v -23.0 -39.0 -1.3
v -23.0 -39.3 -1.0
v -23.0 -39.6 0.0
v -23.6 -39.0 2.0
v -23.0 -39.0 2.4
v -23.7 -38.0 -5.0
v -23.5 -38.0 -4.0
v -23.4 -38.0 -3.0
v -23.0 -38.0 -2.5
v -23.0 -38.4 -2.0
v -23.0 -38.0 2.4
v -23.7 -37.0 -6.0
v -23.3 -37.0 -5.0
v -23.0 -37.0 -4.5
v -23.0 -37.4 -4.0
v -23.0 -37.7 -3.0
v -23.0 -37.4 -1.0
v -23.0 -37.0 -1.5
v -23.0 -37.5 0.0
v -23.0 -37.4 1.0
v -23.0 -37.6 2.0
v -23.7 -36.0 -8.0
v -23.6 -36.0 -7.0
v -23.3 -36.0 -6.0
v -23.0 -36.0 -5.6
v -23.0 -36.6 -5.0
v -23.0 -36.4 -2.0
v -23.0 -36.0 -2.4
v -23.8 -35.0 -9.0
v -23.5 -35.0 -8.0
v -23.3 -35.0 -7.0
v -23.0 -35.0 -6.6
v -23.0 -35.5 -6.0
v -23.0 -35.5 -3.0
v -23.0 -35.0 -3.5
v -23.6 -35.0 1.0
v -23.0 -35.0 0.2
v -23.0 -35.3 1.0
v -23.0 -35.0 2.0
v -23.6 -34.0 -9.0
v -23.4 -34.0 -8.0
v -23.0 -34.0 -7.4
v -23.0 -34.5 -7.0
v -23.0 -34.4 -4.0
v -23.0 -34.0 -4.5
v -23.0 -34.7 1.0
v -23.9 -33.0 -10.0
v -23.5 -33.0 -9.0
v -23.4 -33.0 -8.0
v -23.0 -33.0 -7.1
v -23.5 -33.0 -6.0
v -23.0 -33.3 -6.0
v -23.0 -33.0 -6.8
v -23.0 -33.5 -5.0
v -23.7 -32.0 -9.0
v -23.7 -32.0 -8.0
v -23.0 -32.9 -7.0
v -23.0 -16.0 -23.4
v -23.0 -16.3 -23.0
v -23.0 -16.3 -22.0
v -23.0 -16.0 -21.7
v -23.0 -15.0 -24.1
v -23.0 -15.1 -24.0
v -23.0 -15.1 -21.0
v -23.0 -15.0 -20.9
v -24.0 -14.0 -25.0
v -23.0 -14.9 -24.0
v -23.6 -14.0 -24.0
v -23.5 -14.0 -23.0
v -23.0 -14.4 -23.0
v -23.5 -14.0 -22.0
v -23.0 -14.4 -22.0
v -23.7 -14.0 -21.0
v -23.0 -14.9 -21.0
v -22.6 -40.0 1.0
v -22.0 -40.0 1.7
v -22.0 -40.2 2.0
v -22.0 -40.0 2.6
v -22.7 -39.0 -1.0
v -22.3 -39.0 0.0
v -22.0 -39.0 0.4
v -22.0 -39.5 1.0
v -22.0 -39.0 2.6
v -22.5 -38.0 -2.0
v -22.0 -38.0 -1.3
v -22.0 -38.2 -1.0
v -22.0 -38.6 0.0
v -22.0 -38.0 2.6
v -22.5 -37.0 -4.0
v -22.0 -37.0 -3.4
v -22.0 -37.3 -3.0
v -22.0 -37.5 -2.0
v -22.0 -37.0 -1.4
v -22.0 -37.7 -1.0
v -22.0 -37.4 0.0
v -22.4 -37.0 1.0
v -22.0 -37.0 0.5
v -22.3 -37.0 2.0
v -22.0 -37.0 2.3
v -22.5 -36.0 -5.0
v -22.0 -36.0 -4.5
v -22.0 -36.5 -4.0
v -22.4 -36.0 -2.0
v -22.0 -36.0 -1.7
v -22.0 -36.6 1.0
v -22.0 -36.6 2.0
v -22.5 -35.0 -6.0
v -22.0 -35.0 -5.3
v -22.0 -35.3 -5.0
v -22.0 -35.4 -3.0
v -22.0 -35.0 -3.5
v -22.0 -35.7 -2.0
v -22.7 -35.0 0.0
v -22.0 -35.0 -0.1
v -22.0 -35.2 0.0
v -22.0 -35.5 1.0
v -22.0 -35.4 2.0
v -23.0 -35.0 2.0
v -22.0 -35.0 3.0
v -22.7 -34.0 -7.0
v -22.1 -34.0 -6.0
v -22.0 -34.7 -5.0
v -22.5 -34.0 -5.0
v -22.0 -34.6 -4.0
v -22.0 -34.9 0.0
v -22.0 -34.6 1.0
v -22.0 -34.7 2.0
v -22.9 -33.0 -7.0
v -22.0 -16.0 -23.0
v -22.0 -16.0 -23.0
v -22.6 -16.0 -22.0
v -22.0 -16.0 -23.0
v -22.9 -15.0 -24.0
v -22.0 -15.0 -23.2
v -22.0 -15.1 -22.0
v -22.9 -15.0 -21.0
v -22.0 -15.0 -21.9
v -22.0 -14.8 -23.0
v -22.0 -15.0 -22.0
v -21.7 -40.0 2.0
v -21.5 -39.0 1.0
v -21.0 -39.0 1.5
v -21.0 -39.4 2.0
v -21.0 -39.3 3.0
v -21.4 -39.0 3.0
v -21.0 -39.0 3.3
v -21.7 -38.0 -1.0
v -21.0 -38.0 -0.4
v -21.0 -38.3 0.0
v -21.0 -38.6 1.0
v -21.5 -38.0 3.0
v -21.0 -38.0 3.4
v -21.5 -37.0 -3.0
v -21.0 -37.0 -2.4
v -21.0 -37.3 -2.0
v -21.4 -37.0 -1.0
v -21.0 -37.4 -1.0
v -21.6 -37.0 0.0
v -21.1 -37.0 3.0
v -21.0 -37.0 3.1
v -21.6 -36.0 -4.0
v -21.0 -36.0 -3.4
v -21.0 -36.4 -3.0
v -21.0 -36.6 -1.0
v -21.0 -36.0 -1.5
v -21.0 -36.5 0.0
v -21.0 -36.4 1.0
v -21.0 -36.5 2.0
v -21.0 -36.9 3.0
v -21.8 -35.0 -5.0
v -21.2 -35.0 -4.0
v -21.0 -35.5 -3.0
v -21.0 -35.5 -2.0
v -21.0 -35.0 -0.3
v -21.0 -35.3 0.0
v -21.0 -35.5 1.0
v -21.0 -35.5 2.0
v -21.0 -35.4 3.0
v -22.0 -35.0 3.0
v -21.0 -35.0 4.0
v -21.0 -35.0 4.0
v -21.0 -35.0 4.0
v -21.0 -34.2 -3.0
v -21.1 -34.0 -3.0
v -21.0 -34.0 -3.2
v -21.0 -34.3 -2.0
v -21.4 -34.0 -2.0
v -21.0 -34.0 -1.7
v -21.0 -34.6 0.0
v -21.2 -34.0 1.0
v -21.0 -34.0 0.7
v -21.0 -34.0 1.3
v -21.0 -34.4 2.0
v -21.0 -34.6 3.0
v -21.0 -35.0 4.0
v -21.7 -33.0 -4.0
v -21.0 -33.0 -4.0
v -21.0 -33.0 -4.0
v -21.0 -33.6 -3.0
v -21.0 -33.0 -3.9
v -21.0 -33.6 -2.0
v -21.0 -33.9 1.0
v -21.0 -32.0 -4.0
v -21.0 -32.0 -4.0
v -21.2 -32.0 -3.0
v -21.0 -32.5 -3.0
v -21.0 -32.5 -2.0
v -21.3 -32.0 -2.0
v -21.0 -32.5 -1.0
v -21.6 -32.0 -1.0
v -21.0 -32.0 -0.6
v -21.0 -31.8 -3.0
v -21.0 -31.7 -2.0
v -21.1 -31.0 -1.0
v -21.0 -31.0 -1.1
v -21.0 -31.0 -0.9
v -21.0 -30.9 -1.0
v -22.0 -16.0 -23.0
v -21.8 -15.0 -23.0
v -22.0 -15.0 -22.0
v -20.6 -39.0 2.0
v -20.0 -39.0 2.7
v -20.0 -39.2 3.0
v -20.0 -39.0 3.5
v -20.7 -38.0 0.0
v -20.4 -38.0 1.0
v -20.0 -38.0 1.7
v -20.0 -38.2 2.0
v -20.0 -38.0 3.4
v -20.6 -37.0 -2.0
v -20.0 -37.0 -1.0
v -20.0 -37.0 -1.0
v -20.0 -37.2 0.0
v -20.0 -37.1 1.0
v -20.0 -37.0 1.1
v -20.5 -37.0 2.0
v -20.0 -37.7 2.0
v -20.9 -37.0 3.0
v -20.0 -37.6 3.0
v -20.2 -36.0 -3.0
v -20.0 -36.0 -2.5
v -20.0 -36.1 -2.0
v -20.0 -36.0 -1.9
v -20.0 -37.0 -1.0
v -20.0 -36.7 0.0
v -20.0 -36.9 1.0
v -20.0 -35.8 -2.0
v -20.4 -35.0 -1.0
v -20.0 -35.0 -1.5
v -20.0 -35.5 -1.0
v -20.0 -35.5 0.0
v -20.0 -35.1 1.0
v -20.0 -35.4 2.0
v -20.0 -35.5 3.0
v -20.0 -35.4 4.0
v -20.0 -35.0 4.3
v -20.0 -34.0 -3.2
v -20.0 -34.3 -3.0
v -20.0 -34.7 -2.0
v -20.6 -34.0 -1.0
v -20.7 -34.0 0.0
v -20.6 -34.0 2.0
v -20.5 -34.0 3.0
v -20.3 -34.0 4.0
v -20.0 -34.0 4.2
v -21.0 -33.0 -4.0
v -20.7 -33.0 -3.0
v -20.0 -33.0 -3.3
v -20.8 -33.0 -2.0
v -20.6 -33.0 -1.0
v -20.5 -33.0 0.0
v -20.0 -33.1 1.0
v -20.0 -33.0 0.9
v -20.0 -33.4 2.0
v -20.0 -33.4 3.0
v -20.0 -33.7 4.0
v -20.0 -32.0 -3.2
v -21.0 -32.0 -4.0
v -20.6 -32.0 0.0
v -20.0 -32.9 1.0
v -20.4 -32.0 1.0
v -20.0 -32.5 2.0
v -20.3 -32.0 2.0
v -20.0 -32.4 3.0
v -20.2 -32.0 3.0
v -20.0 -32.0 3.2
v -20.0 -31.8 -3.0
v -20.0 -31.5 -2.0
v -20.0 -31.0 -1.3
v -20.3 -31.0 0.0
v -20.2 -31.0 1.0
v -20.2 -31.0 2.0
v -20.0 -31.0 2.8
v -20.0 -31.1 3.0
v -20.0 -30.8 -1.0
v -20.0 -30.8 0.0
v -20.0 -30.8 1.0
v -20.0 -30.8 2.0
v -19.8 -39.0 3.0
v -19.9 -38.0 2.0
v -19.7 -38.0 3.0
v -20.0 -37.0 -1.0
v -19.8 -37.0 0.0
v -19.9 -37.0 1.0
v -19.9 -36.0 -2.0
v -19.0 -35.4 -1.0
v -19.0 -35.0 -1.5
v -19.0 -35.5 0.0
v -19.0 -35.4 1.0
v -19.0 -35.5 2.0
v -19.0 -35.5 3.0
v -19.0 -35.4 4.0
v -19.0 -35.0 4.3
v -19.8 -34.0 -3.0
v -19.0 -34.0 -2.3
v -19.0 -34.4 -2.0
v -19.0 -34.0 4.5
v -19.7 -33.0 -3.0
v -19.0 -33.0 -2.4
v -19.9 -33.0 1.0
v -19.3 -33.0 2.0
v -19.7 -33.0 3.0
v -19.5 -33.0 4.0
v -19.0 -33.0 4.4
v -19.8 -32.0 -3.0
v -19.0 -32.6 -2.0
v -19.5 -32.0 -2.0
v -19.0 -32.0 -1.4
v -19.3 -32.0 4.0
v -19.0 -32.0 4.2
v -19.7 -31.0 -1.0
v -19.0 -31.7 -1.0
v -19.7 -31.0 0.0
v -19.0 -31.5 0.0
v -19.8 -31.0 1.0
v -19.0 -31.5 1.0
v -19.7 -31.0 2.0
v -19.0 -31.5 2.0
v -19.0 -31.5 3.0
v -19.0 -31.8 4.0
v -18.0 -35.0 -1.2
v -18.0 -35.2 -1.0
v -18.0 -35.5 0.0
v -18.0 -35.5 1.0
v -18.0 -35.5 2.0
v -18.0 -35.5 3.0
v -18.0 -35.3 4.0
v -18.0 -35.0 4.3
v -18.7 -34.0 -2.0
v -18.0 -34.0 -1.3
v -18.0 -34.0 4.5
v -18.7 -33.0 -2.0
v -18.0 -33.5 -1.0
v -18.3 -33.0 -1.0
v -18.0 -33.0 -0.5
v -18.0 -33.0 4.5
v -18.7 -32.0 -1.0
v -18.0 -32.6 0.0
v -18.5 -32.0 0.0
v -18.4 -32.0 1.0
v -18.0 -32.4 1.0
v -18.0 -32.0 1.4
v -18.0 -32.0 4.3
v -18.0 -31.6 2.0
v -18.0 -31.5 3.0
v -18.0 -31.7 4.0
v -17.8 -35.0 -1.0
v -17.0 -35.0 -0.1
v -17.0 -35.1 0.0
v -17.0 -35.4 1.0
v -17.0 -35.5 2.0
v -17.0 -35.5 3.0
v -17.0 -35.4 4.0
v -17.0 -35.0 4.4
v -17.7 -34.0 -1.0
v -17.0 -34.8 0.0
v -17.3 -34.0 0.0
v -17.0 -34.0 0.4
v -17.0 -34.0 4.6
v -17.7 -33.0 0.0
v -17.0 -33.4 1.0
v -17.4 -33.0 1.0
v -17.0 -33.0 1.3
v -17.0 -33.0 4.6
v -17.0 -32.0 1.7
v -17.0 -32.0 4.4
v -17.0 -31.8 2.0
v -17.0 -31.5 3.0
v -17.0 -31.6 4.0
v -16.9 -35.0 0.0
v -16.0 -35.0 0.9
v -16.0 -35.1 1.0
v -16.0 -35.5 2.0
v -16.0 -35.5 3.0
v -16.0 -35.5 4.0
v -16.0 -35.2 5.0
v -16.3 -35.0 5.0
v -16.0 -35.0 5.2
v -16.4 -34.0 1.0
v -16.0 -34.8 1.0
v -16.0 -34.0 1.3
v -16.5 -34.0 5.0
v -16.0 -34.0 5.4
v -16.0 -33.0 1.7
v -16.5 -33.0 5.0
v -16.0 -33.0 5.4
v -16.0 -32.6 2.0
v -16.6 -32.0 2.0
v -16.0 -32.0 2.6
v -16.2 -32.0 5.0
v -16.0 -32.0 5.2
v -16.0 -31.7 3.0
v -16.0 -31.6 4.0
v -16.0 -31.8 5.0
v -15.9 -35.0 1.0
v -15.0 -35.0 1.6
v -15.0 -35.3 2.0
v -15.0 -35.5 3.0
v -15.0 -35.5 4.0
v -15.0 -35.3 5.0
v -15.0 -35.0 5.3
v -15.0 -34.0 1.7
v -15.0 -34.0 5.5
v -15.0 -33.6 2.0
v -15.6 -33.0 2.0
v -15.0 -33.0 2.5
v -15.0 -33.0 5.5
v -15.7 -32.0 3.0
v -15.0 -32.6 3.0
v -15.4 -32.0 4.0
v -15.0 -32.3 4.0
v -15.0 -32.0 4.9
v -15.0 -32.0 5.1
v -15.0 -31.9 5.0
v -14.0 -35.0 2.0
v -14.0 -35.1 2.0
v -14.0 -35.4 3.0
v -14.0 -35.5 4.0
v -14.0 -35.2 5.0
v -14.0 -35.0 5.2
v -14.0 -34.9 2.0
v -14.6 -34.0 2.0
v -14.0 -34.0 2.5
v -14.0 -34.0 5.3
v -14.5 -33.0 3.0
v -14.0 -33.5 3.0
v -14.0 -33.0 3.6
v -14.0 -33.0 5.2
v -14.0 -32.7 4.0
v -14.9 -32.0 5.0
v -14.0 -32.8 5.0
v -13.9 -35.0 2.0
v -13.0 -35.0 2.9
v -13.0 -35.1 3.0
v -13.0 -35.1 4.0
v -13.8 -35.0 5.0
v -13.0 -35.0 4.1
v -13.5 -34.0 3.0
v -13.0 -34.8 3.0
v -13.3 -34.0 4.0
v -13.0 -34.8 4.0
v -13.6 -34.0 5.0
v -13.7 -33.0 4.0
v -13.8 -33.0 5.0
v -12.9 -35.0 3.0
v -12.9 -35.0 4.0
v -12.0 -34.4 3.0
v -12.6 -34.0 3.0
v -12.0 -34.0 2.1
v -12.0 -34.3 4.0
v -12.4 -34.0 4.0
v -12.0 -34.0 4.2
v -12.2 -33.0 3.0
v -12.0 -33.0 2.8
v -12.2 -33.0 4.0
v -12.0 -33.0 4.2
v -12.0 -32.8 3.0
v -12.0 -32.8 4.0
v -11.2 -34.0 2.0
v -11.0 -34.0 2.0
v -11.0 -34.0 2.0
v -11.0 -34.5 3.0
v -11.0 -34.2 4.0
v -11.0 -34.0 4.2
v -11.0 -34.0 2.0
v -11.0 -33.0 2.7
v -11.0 -33.0 4.2
v -11.0 -32.8 3.0
v -11.0 -32.8 4.0
v -11.0 -34.0 2.0
v -10.0 -34.0 2.9
v -10.0 -34.5 3.0
v -10.8 -34.0 4.0
v -10.0 -34.0 3.1
v -10.7 -33.0 3.0
v -10.0 -33.9 3.0
v -10.8 -33.0 4.0
v -9.9 -34.0 3.0
f 3 2 1
f 1 4 3
f 7 6 5
f 9 8 5
f 5 8 7
f 8 9 2
f 9 1 2
f 9 10 1
f 4 1 11
f 11 1 10
f 14 13 12
f 14 12 6
f 12 5 6
f 12 15 5
f 5 16 9
f 5 15 16
f 18 10 17
f 10 16 17
f 10 9 16
f 10 18 11
f 12 13 19
f 19 13 20
f 12 21 15
f 12 19 21
f 15 22 16
f 15 21 22
f 17 16 23
f 23 16 22
f 26 25 24
f 26 24 20
f 24 19 20
f 24 27 19
f 19 28 21
f 19 27 28
f 30 22 29
f 22 28 29
f 22 21 28
f 22 30 23
f 24 25 31
f 31 25 32
f 24 33 27
f 24 31 33
f 35 28 34
f 28 33 34
f 28 27 33
f 28 35 29
f 38 37 36
f 38 36 32
f 36 31 32
f 36 39 31
f 31 40 33
f 31 39 40
f 34 33 41
f 41 33 40
f 37 42 36
f 44 43 42
f 43 36 42
f 43 39 36
f 46 40 45
f 40 43 45
f 40 39 43
f 40 46 41
f 49 48 47
f 51 50 47
f 47 50 49
f 52 43 44
f 51 53 50
f 43 52 45
f 48 54 47
f 56 55 54
f 55 47 54
f 55 51 47
f 53 51 57
f 57 51 55
f 60 59 58
f 62 61 58
f 58 61 60
f 63 55 56
f 62 64 61
f 55 63 57
f 59 65 58
f 58 65 62
f 62 65 66
f 62 66 64
f 69 68 67
f 67 70 69
f 73 72 71
f 73 71 68
f 71 67 68
f 71 74 67
f 70 67 75
f 75 67 74
f 78 77 76
f 78 76 72
f 76 71 72
f 76 79 71
f 71 80 74
f 71 79 80
f 75 74 81
f 81 74 80
f 84 83 82
f 84 82 77
f 82 76 77
f 82 85 76
f 76 86 79
f 76 85 86
f 88 80 87
f 80 86 87
f 80 79 86
f 80 88 81
f 91 90 89
f 93 92 89
f 89 92 91
f 92 93 83
f 93 82 83
f 93 94 82
f 82 95 85
f 82 94 95
f 85 96 86
f 85 95 96
f 87 86 97
f 97 86 96
f 89 90 98
f 98 90 99
f 98 2 3
f 93 98 3
f 89 98 93
f 93 3 4
f 100 93 4
f 94 93 100
f 102 95 101
f 95 100 101
f 95 94 100
f 95 102 96
f 96 102 103
f 96 103 97
f 105 104 7
f 7 104 6
f 8 98 99
f 105 8 99
f 7 8 105
f 98 8 2
f 107 106 100
f 4 107 100
f 11 107 4
f 100 106 101
f 109 108 14
f 14 108 13
f 14 6 104
f 14 104 109
f 17 110 18
f 110 111 18
f 111 11 18
f 111 107 11
f 114 113 112
f 108 114 112
f 20 108 112
f 13 108 20
f 116 115 110
f 17 116 110
f 23 116 17
f 110 115 111
f 112 113 26
f 113 25 26
f 113 117 25
f 112 26 20
f 29 118 30
f 118 119 30
f 119 23 30
f 119 116 23
f 122 121 120
f 117 122 120
f 32 117 120
f 25 117 32
f 34 123 35
f 123 124 35
f 35 124 29
f 124 125 29
f 125 118 29
f 118 125 119
f 120 121 38
f 121 37 38
f 121 126 37
f 120 38 32
f 128 127 123
f 34 128 123
f 41 128 34
f 123 127 124
f 131 130 129
f 129 132 42
f 126 129 42
f 37 126 42
f 129 126 131
f 132 44 42
f 134 133 46
f 134 46 45
f 41 46 128
f 128 46 133
f 137 136 135
f 137 135 130
f 130 135 129
f 135 48 129
f 48 49 129
f 129 49 50
f 129 50 132
f 138 50 53
f 138 132 50
f 138 52 44
f 132 138 44
f 138 139 52
f 139 45 52
f 139 134 45
f 135 136 140
f 140 136 141
f 142 54 48
f 135 142 48
f 140 142 135
f 142 56 54
f 144 143 138
f 53 144 138
f 57 144 53
f 138 143 139
f 140 141 60
f 141 59 60
f 141 145 59
f 140 60 61
f 140 61 142
f 146 61 64
f 146 142 61
f 146 63 56
f 142 146 56
f 146 147 63
f 147 57 63
f 147 144 57
f 150 149 148
f 148 151 65
f 145 148 65
f 59 145 65
f 148 145 150
f 152 66 65
f 152 65 151
f 152 153 66
f 66 153 64
f 153 154 64
f 154 146 64
f 146 154 147
f 148 149 155
f 155 149 156
f 148 157 151
f 148 155 157
f 151 158 152
f 151 157 158
f 153 152 159
f 159 152 158
f 156 160 155
f 162 161 160
f 161 155 160
f 161 157 155
f 164 158 163
f 158 161 163
f 158 157 161
f 158 164 159
f 162 165 161
f 161 165 163
f 168 167 166
f 166 169 168
f 171 170 69
f 69 170 68
f 172 166 70
f 166 171 70
f 171 69 70
f 166 167 171
f 169 166 173
f 173 166 172
f 175 174 73
f 73 174 72
f 73 68 170
f 73 170 175
f 177 176 172
f 70 177 172
f 75 177 70
f 172 176 173
f 180 179 178
f 77 78 178
f 78 180 178
f 78 181 180
f 78 72 174
f 78 174 181
f 81 177 75
f 81 182 177
f 185 184 183
f 185 183 179
f 179 183 178
f 183 83 178
f 83 84 178
f 178 84 77
f 187 186 88
f 187 88 87
f 81 88 182
f 182 88 186
f 189 188 91
f 91 188 90
f 92 183 184
f 189 92 184
f 91 92 189
f 183 92 83
f 97 187 87
f 97 190 187
f 193 192 191
f 188 193 191
f 99 188 191
f 90 188 99
f 195 194 102
f 195 102 101
f 102 196 103
f 194 196 102
f 97 103 190
f 190 103 196
f 199 198 197
f 199 197 192
f 192 197 191
f 197 104 191
f 104 105 191
f 191 105 99
f 201 200 106
f 201 106 107
f 101 106 195
f 195 106 200
f 204 203 202
f 204 202 198
f 198 202 197
f 202 108 197
f 108 109 197
f 197 109 104
f 111 201 107
f 111 205 201
f 202 203 114
f 203 113 114
f 203 206 113
f 202 114 108
f 208 207 115
f 208 115 116
f 111 115 205
f 205 115 207
f 211 210 209
f 206 211 209
f 117 206 209
f 113 206 117
f 119 208 116
f 119 212 208
f 209 210 122
f 210 121 122
f 210 213 121
f 209 122 117
f 215 214 125
f 215 125 124
f 119 125 212
f 212 125 214
f 218 217 216
f 213 218 216
f 126 213 216
f 121 213 126
f 220 219 127
f 220 127 128
f 124 127 215
f 215 127 219
f 216 217 131
f 217 130 131
f 217 221 130
f 216 131 126
f 223 222 133
f 223 133 134
f 128 133 220
f 220 133 222
f 225 224 137
f 137 224 136
f 137 130 221
f 137 221 225
f 139 223 134
f 139 226 223
f 229 228 227
f 224 229 227
f 141 224 227
f 136 224 141
f 231 230 143
f 231 143 144
f 139 143 226
f 226 143 230
f 227 228 232
f 232 228 233
f 232 145 141
f 232 141 227
f 147 231 144
f 147 234 231
f 232 233 150
f 233 149 150
f 233 235 149
f 232 150 145
f 237 236 154
f 237 154 153
f 147 154 234
f 234 154 236
f 240 239 238
f 235 240 238
f 156 235 238
f 149 235 156
f 159 237 153
f 159 241 237
f 238 239 242
f 242 239 243
f 244 160 156
f 238 244 156
f 242 244 238
f 244 162 160
f 163 245 164
f 245 246 164
f 246 159 164
f 246 241 159
f 249 248 247
f 249 247 243
f 247 242 243
f 247 250 242
f 242 251 244
f 242 250 251
f 252 165 162
f 244 252 162
f 251 252 244
f 252 253 165
f 165 253 163
f 253 254 163
f 254 245 163
f 245 254 246
f 247 248 255
f 255 248 256
f 247 257 250
f 247 255 257
f 259 251 258
f 251 257 258
f 251 250 257
f 251 259 252
f 252 259 260
f 252 260 253
f 256 261 255
f 263 262 261
f 262 255 261
f 262 257 255
f 258 257 264
f 264 257 262
f 263 265 262
f 262 265 264
f 268 267 266
f 266 269 268
f 272 271 270
f 272 270 267
f 270 266 267
f 270 273 266
f 269 266 274
f 274 266 273
f 270 271 168
f 271 167 168
f 271 275 167
f 273 270 276
f 270 169 276
f 169 277 276
f 169 270 168
f 273 276 274
f 280 279 278
f 278 281 280
f 283 282 171
f 171 282 170
f 171 167 275
f 171 275 283
f 173 277 169
f 173 284 277
f 287 286 285
f 287 285 279
f 285 278 279
f 285 288 278
f 175 289 174
f 289 278 174
f 278 288 174
f 278 289 281
f 175 170 282
f 175 282 289
f 177 290 176
f 290 291 176
f 291 173 176
f 291 284 173
f 285 286 180
f 286 179 180
f 286 292 179
f 285 180 181
f 285 181 288
f 288 181 174
f 294 293 290
f 177 294 290
f 182 294 177
f 290 293 291
f 297 296 295
f 184 185 295
f 185 297 295
f 185 298 297
f 185 179 292
f 185 292 298
f 187 299 186
f 299 300 186
f 300 182 186
f 300 294 182
f 295 296 189
f 296 188 189
f 296 301 188
f 295 189 184
f 303 302 299
f 187 303 299
f 190 303 187
f 299 302 300
f 305 304 193
f 193 304 192
f 193 188 301
f 193 301 305
f 195 306 194
f 194 306 307
f 308 194 307
f 196 194 308
f 190 196 303
f 303 196 308
f 310 309 199
f 199 309 198
f 199 192 304
f 199 304 310
f 201 311 200
f 311 312 200
f 200 312 195
f 312 313 195
f 313 306 195
f 306 313 307
f 315 314 204
f 204 314 203
f 204 198 309
f 204 309 315
f 317 316 311
f 201 317 311
f 205 317 201
f 311 316 312
f 314 206 203
f 318 206 314
f 208 319 207
f 319 320 207
f 320 205 207
f 320 317 205
f 322 321 211
f 211 321 210
f 211 206 318
f 211 318 322
f 324 323 319
f 208 324 319
f 212 324 208
f 319 323 320
f 321 213 210
f 325 213 321
f 327 326 214
f 327 214 215
f 212 214 324
f 324 214 326
f 329 328 218
f 218 328 217
f 218 213 325
f 218 325 329
f 331 330 219
f 331 219 220
f 215 219 327
f 327 219 330
f 334 333 332
f 328 334 332
f 221 328 332
f 217 328 221
f 336 335 222
f 336 222 223
f 220 222 331
f 331 222 335
f 332 333 225
f 333 224 225
f 333 337 224
f 332 225 221
f 226 336 223
f 226 338 336
f 340 339 229
f 229 339 228
f 229 224 337
f 229 337 340
f 342 341 230
f 342 230 231
f 226 230 338
f 338 230 341
f 339 233 228
f 343 233 339
f 346 345 344
f 345 342 344
f 342 234 344
f 342 231 234
f 349 348 347
f 351 350 347
f 347 350 349
f 343 350 351
f 235 343 351
f 233 343 235
f 346 344 236
f 237 346 236
f 352 346 237
f 236 344 234
f 355 354 353
f 355 353 348
f 353 347 348
f 353 356 347
f 356 239 240
f 351 356 240
f 347 356 351
f 351 240 235
f 241 352 237
f 241 357 352
f 353 354 358
f 358 354 359
f 353 360 356
f 353 358 360
f 360 243 239
f 360 239 356
f 246 357 241
f 246 361 357
f 364 363 362
f 364 362 359
f 362 358 359
f 362 365 358
f 365 248 249
f 360 365 249
f 358 365 360
f 360 249 243
f 367 366 254
f 367 254 253
f 246 254 361
f 361 254 366
f 362 363 368
f 368 363 369
f 362 370 365
f 362 368 370
f 370 256 248
f 370 248 365
f 258 371 259
f 259 371 372
f 373 259 372
f 260 259 373
f 253 260 367
f 367 260 373
f 368 369 374
f 374 369 375
f 368 376 370
f 368 374 376
f 377 261 256
f 370 377 256
f 376 377 370
f 377 263 261
f 379 378 371
f 258 379 371
f 264 379 258
f 371 378 372
f 375 380 374
f 374 380 376
f 376 380 381
f 383 382 381
f 382 376 381
f 382 377 376
f 377 382 263
f 382 384 263
f 384 265 263
f 382 385 384
f 264 265 379
f 379 265 384
f 383 386 382
f 382 386 385
f 388 387 268
f 268 387 267
f 390 389 269
f 389 268 269
f 389 388 268
f 390 391 389
f 394 393 392
f 271 272 392
f 272 394 392
f 272 395 394
f 272 267 387
f 272 387 395
f 274 396 390
f 274 390 269
f 391 390 397
f 397 390 396
f 400 399 398
f 400 398 393
f 398 392 393
f 398 401 392
f 401 275 271
f 401 271 392
f 277 402 276
f 402 403 276
f 276 403 274
f 403 404 274
f 404 396 274
f 396 404 397
f 407 406 405
f 279 280 405
f 280 407 405
f 280 408 407
f 409 398 281
f 398 408 281
f 408 280 281
f 398 399 408
f 409 282 283
f 401 409 283
f 398 409 401
f 401 283 275
f 284 410 402
f 284 402 277
f 403 402 411
f 411 402 410
f 414 413 412
f 414 412 406
f 406 412 405
f 412 286 405
f 286 287 405
f 405 287 279
f 289 409 281
f 409 289 282
f 416 415 410
f 284 416 410
f 291 416 284
f 410 415 411
f 419 418 417
f 419 417 413
f 417 412 413
f 417 420 412
f 420 292 286
f 420 286 412
f 422 421 293
f 422 293 294
f 291 293 416
f 416 293 421
f 425 424 423
f 425 423 418
f 418 423 417
f 423 296 417
f 296 297 417
f 417 297 298
f 417 298 420
f 420 298 292
f 428 427 426
f 427 422 426
f 422 300 426
f 422 294 300
f 423 424 429
f 429 424 430
f 429 301 296
f 429 296 423
f 428 426 302
f 303 428 302
f 431 428 303
f 302 426 300
f 434 433 432
f 434 432 430
f 430 432 429
f 432 304 429
f 304 305 429
f 429 305 301
f 436 435 308
f 436 308 307
f 303 308 431
f 431 308 435
f 439 438 437
f 439 437 433
f 433 437 432
f 437 309 432
f 309 310 432
f 432 310 304
f 312 440 313
f 440 441 313
f 441 307 313
f 441 436 307
f 437 438 315
f 438 314 315
f 438 442 314
f 437 315 309
f 317 443 316
f 443 444 316
f 316 444 312
f 444 445 312
f 445 440 312
f 440 445 441
f 442 318 314
f 446 318 442
f 320 447 443
f 320 443 317
f 444 443 448
f 448 443 447
f 450 449 322
f 322 449 321
f 322 318 446
f 322 446 450
f 324 451 323
f 451 452 323
f 323 452 320
f 452 453 320
f 453 447 320
f 447 453 448
f 449 325 321
f 454 325 449
f 327 455 326
f 455 456 326
f 326 456 324
f 456 457 324
f 457 451 324
f 451 457 452
f 459 458 329
f 329 458 328
f 329 325 454
f 329 454 459
f 331 460 330
f 460 461 330
f 330 461 327
f 461 462 327
f 462 455 327
f 455 462 456
f 464 463 334
f 334 463 333
f 334 328 458
f 334 458 464
f 336 465 335
f 465 466 335
f 335 466 331
f 466 467 331
f 467 460 331
f 460 467 461
f 470 469 468
f 463 470 468
f 337 463 468
f 333 463 337
f 472 471 465
f 336 472 465
f 338 472 336
f 465 471 466
f 475 474 473
f 475 473 469
f 469 473 468
f 473 339 468
f 339 340 468
f 468 340 337
f 477 476 341
f 477 341 342
f 338 341 472
f 472 341 476
f 480 479 478
f 480 478 474
f 478 473 474
f 478 481 473
f 481 343 339
f 481 339 473
f 483 482 345
f 483 345 346
f 342 345 477
f 477 345 482
f 478 479 349
f 479 348 349
f 479 484 348
f 478 349 350
f 478 350 481
f 481 350 343
f 352 483 346
f 352 485 483
f 488 487 486
f 354 355 486
f 355 488 486
f 355 489 488
f 355 348 484
f 355 484 489
f 492 491 490
f 491 485 490
f 485 357 490
f 485 352 357
f 486 487 493
f 493 487 494
f 493 359 354
f 493 354 486
f 492 490 495
f 492 495 496
f 361 495 357
f 357 495 490
f 499 498 497
f 499 497 494
f 494 497 493
f 497 363 493
f 363 364 493
f 493 364 359
f 496 495 366
f 367 496 366
f 500 496 367
f 366 495 361
f 497 498 501
f 501 498 502
f 501 369 363
f 501 363 497
f 505 504 503
f 373 372 503
f 504 373 503
f 506 373 504
f 367 373 500
f 500 373 506
f 501 502 507
f 507 502 508
f 507 375 369
f 507 369 501
f 511 510 509
f 509 510 505
f 509 505 503
f 379 509 503
f 378 379 503
f 378 503 372
f 508 512 507
f 512 514 513
f 512 513 380
f 507 512 380
f 375 507 380
f 515 381 380
f 515 380 513
f 515 383 381
f 511 509 384
f 385 511 384
f 516 511 385
f 384 509 379
f 514 517 513
f 513 517 515
f 515 517 518
f 515 518 383
f 518 386 383
f 518 519 386
f 385 386 516
f 516 386 519
f 522 521 520
f 524 523 520
f 520 523 522
f 524 525 523
f 528 527 526
f 387 388 526
f 388 528 526
f 388 529 528
f 389 520 521
f 529 389 521
f 388 389 529
f 524 520 530
f 520 391 530
f 391 531 530
f 391 520 389
f 524 530 525
f 533 532 394
f 394 532 393
f 395 526 527
f 533 395 527
f 394 395 533
f 526 395 387
f 397 531 391
f 397 534 531
f 536 535 400
f 400 535 399
f 400 393 532
f 400 532 536
f 403 537 404
f 537 538 404
f 538 397 404
f 538 534 397
f 539 406 407
f 539 407 540
f 407 541 540
f 407 408 541
f 408 399 535
f 408 535 541
f 543 542 537
f 403 543 537
f 411 543 403
f 537 542 538
f 545 544 414
f 414 544 413
f 414 406 539
f 546 414 539
f 545 414 546
f 546 539 540
f 548 547 415
f 548 415 416
f 411 415 543
f 543 415 547
f 550 549 419
f 419 549 418
f 419 413 544
f 419 544 550
f 552 551 421
f 552 421 422
f 416 421 548
f 548 421 551
f 554 553 425
f 425 553 424
f 425 418 549
f 425 549 554
f 556 555 427
f 556 427 428
f 422 427 552
f 552 427 555
f 553 430 424
f 557 430 553
f 560 559 558
f 559 556 558
f 556 431 558
f 556 428 431
f 562 561 434
f 434 561 433
f 434 430 557
f 434 557 562
f 565 564 563
f 563 564 560
f 563 560 558
f 436 563 558
f 435 436 558
f 435 558 431
f 566 438 439
f 567 566 439
f 433 567 439
f 561 567 433
f 565 563 568
f 565 568 569
f 441 568 436
f 436 568 563
f 571 570 566
f 570 438 566
f 570 442 438
f 571 566 567
f 574 573 572
f 572 573 569
f 572 569 568
f 444 572 568
f 445 444 568
f 445 568 441
f 577 576 575
f 570 577 575
f 446 570 575
f 442 570 446
f 574 572 578
f 574 578 579
f 448 578 444
f 444 578 572
f 575 576 450
f 576 449 450
f 576 580 449
f 575 450 446
f 579 578 453
f 452 579 453
f 581 579 452
f 453 578 448
f 584 583 582
f 580 584 582
f 454 580 582
f 449 580 454
f 456 585 457
f 585 586 457
f 586 452 457
f 586 581 452
f 589 588 587
f 589 587 583
f 583 587 582
f 587 458 582
f 458 459 582
f 582 459 454
f 461 590 462
f 590 591 462
f 462 591 456
f 591 592 456
f 592 585 456
f 585 592 586
f 595 594 593
f 595 593 588
f 588 593 587
f 593 463 587
f 463 464 587
f 587 464 458
f 466 596 467
f 590 461 467
f 596 590 467
f 597 590 596
f 591 590 598
f 598 590 597
f 601 600 599
f 601 599 594
f 594 599 593
f 599 469 593
f 469 470 593
f 593 470 463
f 472 602 471
f 602 603 471
f 471 603 466
f 603 604 466
f 604 596 466
f 596 604 597
f 597 604 605
f 597 605 598
f 599 600 475
f 600 474 475
f 600 606 474
f 599 475 469
f 608 607 476
f 608 476 477
f 472 476 602
f 476 609 602
f 476 607 609
f 602 609 603
f 611 610 480
f 480 610 479
f 480 474 606
f 480 606 611
f 613 612 482
f 613 482 483
f 477 482 608
f 608 482 612
f 616 615 614
f 610 616 614
f 484 610 614
f 479 610 484
f 485 613 483
f 485 617 613
f 619 618 488
f 488 618 487
f 489 614 615
f 619 489 615
f 488 489 619
f 614 489 484
f 622 621 620
f 624 623 620
f 624 620 621
f 491 492 623
f 624 491 623
f 625 491 624
f 485 491 617
f 617 491 625
f 628 627 626
f 618 628 626
f 494 618 626
f 487 618 494
f 631 630 629
f 629 630 622
f 620 629 622
f 632 629 620
f 633 620 623
f 632 620 633
f 496 633 492
f 492 633 623
f 626 627 499
f 627 498 499
f 627 634 498
f 626 499 494
f 635 631 629
f 637 636 635
f 629 637 635
f 632 637 629
f 638 632 633
f 637 632 638
f 500 638 496
f 496 638 633
f 641 640 639
f 634 641 639
f 502 634 639
f 498 634 502
f 636 637 504
f 505 636 504
f 642 636 505
f 504 637 506
f 506 637 638
f 506 638 500
f 639 640 643
f 643 640 644
f 643 508 502
f 643 502 639
f 646 645 510
f 646 510 511
f 505 510 642
f 642 510 645
f 644 647 643
f 647 649 648
f 647 648 512
f 643 647 512
f 508 643 512
f 648 514 512
f 516 646 511
f 516 650 646
f 649 651 648
f 648 651 514
f 651 517 514
f 651 652 517
f 517 653 518
f 652 653 517
f 518 654 519
f 653 654 518
f 516 519 650
f 650 519 654
f 657 656 655
f 655 658 657
f 661 660 659
f 661 659 656
f 656 659 655
f 659 521 655
f 521 522 655
f 662 658 655
f 522 662 655
f 523 662 522
f 523 525 662
f 662 525 663
f 665 664 528
f 528 664 527
f 529 659 660
f 665 529 660
f 528 529 665
f 659 529 521
f 531 666 530
f 666 667 530
f 667 525 530
f 667 663 525
f 669 668 533
f 533 668 532
f 533 527 664
f 533 664 669
f 534 670 666
f 534 666 531
f 667 666 671
f 671 666 670
f 673 672 536
f 536 672 535
f 536 532 668
f 536 668 673
f 675 674 670
f 534 675 670
f 538 675 534
f 670 674 671
f 677 676 541
f 541 676 540
f 541 535 672
f 541 672 677
f 679 678 542
f 679 542 543
f 538 542 675
f 675 542 678
f 682 681 680
f 544 545 680
f 545 682 680
f 545 683 682
f 684 545 546
f 684 683 545
f 546 540 676
f 546 676 684
f 686 685 547
f 686 547 548
f 543 547 679
f 679 547 685
f 680 681 550
f 681 549 550
f 681 687 549
f 680 550 544
f 689 688 551
f 689 551 552
f 548 551 686
f 686 551 688
f 691 690 554
f 554 690 553
f 554 549 687
f 554 687 691
f 693 692 555
f 693 555 556
f 552 555 689
f 689 555 692
f 690 557 553
f 694 557 690
f 696 695 559
f 696 559 560
f 556 559 693
f 693 559 695
f 698 697 562
f 562 697 561
f 562 557 694
f 562 694 698
f 700 699 564
f 700 564 565
f 560 564 696
f 696 564 699
f 703 702 701
f 697 703 701
f 567 697 701
f 561 697 567
f 569 700 565
f 569 704 700
f 701 702 571
f 702 570 571
f 702 705 570
f 701 571 567
f 707 706 573
f 707 573 574
f 569 573 704
f 704 573 706
f 708 576 577
f 709 708 577
f 570 709 577
f 705 709 570
f 579 707 574
f 579 710 707
f 712 711 708
f 711 576 708
f 711 580 576
f 712 708 709
f 715 714 713
f 714 710 713
f 710 581 713
f 710 579 581
f 717 716 584
f 584 716 583
f 584 580 711
f 584 711 717
f 718 715 713
f 713 581 718
f 581 719 718
f 581 586 719
f 721 720 589
f 589 720 588
f 589 583 716
f 589 716 721
f 723 722 592
f 723 592 591
f 586 592 719
f 719 592 722
f 725 724 595
f 595 724 594
f 595 588 720
f 595 720 725
f 728 727 726
f 727 723 726
f 723 598 726
f 723 591 598
f 729 600 601
f 730 729 601
f 594 730 601
f 724 730 594
f 732 731 604
f 732 604 603
f 726 605 728
f 605 731 728
f 605 604 731
f 605 726 598
f 734 733 729
f 733 600 729
f 733 606 600
f 734 729 730
f 737 736 735
f 738 735 736
f 608 739 607
f 607 739 740
f 741 607 740
f 609 607 741
f 603 609 732
f 732 609 741
f 743 742 611
f 611 742 610
f 611 606 733
f 611 733 743
f 746 745 744
f 744 745 737
f 735 744 737
f 747 744 735
f 748 612 613
f 735 748 613
f 747 735 613
f 748 735 738
f 608 612 739
f 612 749 739
f 612 748 749
f 739 749 740
f 751 750 616
f 616 750 615
f 616 610 742
f 616 742 751
f 754 753 752
f 756 755 752
f 756 752 753
f 755 756 746
f 744 755 746
f 757 755 744
f 758 744 747
f 757 744 758
f 617 758 613
f 613 758 747
f 760 759 619
f 619 759 618
f 619 615 750
f 619 750 760
f 754 752 761
f 754 761 762
f 622 761 621
f 761 755 621
f 761 752 755
f 621 755 624
f 624 755 757
f 624 757 625
f 625 757 758
f 625 758 617
f 763 627 628
f 764 763 628
f 618 764 628
f 759 764 618
f 762 761 630
f 631 762 630
f 765 762 631
f 630 761 622
f 767 766 763
f 766 627 763
f 766 634 627
f 767 763 764
f 768 765 631
f 768 631 635
f 635 636 768
f 768 636 769
f 771 770 641
f 641 770 640
f 641 634 766
f 641 766 771
f 642 769 636
f 642 772 769
f 770 644 640
f 773 644 770
f 775 774 645
f 775 645 646
f 642 645 772
f 772 645 774
f 647 644 776
f 644 777 776
f 644 773 777
f 776 649 647
f 650 775 646
f 650 778 775
f 777 779 776
f 776 779 649
f 779 651 649
f 779 780 651
f 651 781 652
f 780 781 651
f 652 782 653
f 781 782 652
f 653 783 654
f 782 783 653
f 650 654 778
f 778 654 783
f 785 784 657
f 657 784 656
f 787 786 658
f 786 657 658
f 786 785 657
f 789 788 787
f 787 788 786
f 789 790 788
f 792 791 661
f 661 791 660
f 661 656 784
f 661 784 792
f 662 787 658
f 787 662 663
f 793 787 663
f 789 787 793
f 790 789 794
f 794 789 793
f 796 795 665
f 665 795 664
f 665 660 791
f 665 791 796
f 667 797 793
f 667 793 663
f 794 793 798
f 798 793 797
f 800 799 669
f 669 799 668
f 669 664 795
f 669 795 800
f 802 801 797
f 667 802 797
f 671 802 667
f 797 801 798
f 804 803 673
f 673 803 672
f 673 668 799
f 673 799 804
f 806 805 674
f 806 674 675
f 671 674 802
f 802 674 805
f 809 808 807
f 811 810 807
f 807 810 809
f 676 677 811
f 677 810 811
f 677 812 810
f 677 672 803
f 677 803 812
f 814 813 678
f 814 678 679
f 675 678 806
f 806 678 813
f 816 815 682
f 682 815 681
f 683 807 808
f 816 683 808
f 682 683 816
f 807 683 684
f 807 684 811
f 811 684 676
f 818 817 685
f 818 685 686
f 679 685 814
f 814 685 817
f 821 820 819
f 815 821 819
f 687 815 819
f 681 815 687
f 823 822 688
f 823 688 689
f 686 688 818
f 818 688 822
f 819 820 691
f 820 690 691
f 820 824 690
f 819 691 687
f 826 825 692
f 826 692 693
f 689 692 823
f 823 692 825
f 824 694 690
f 827 694 824
f 829 828 695
f 829 695 696
f 693 695 826
f 826 695 828
f 830 697 698
f 831 830 698
f 694 831 698
f 827 831 694
f 833 832 699
f 833 699 700
f 696 699 829
f 829 699 832
f 834 702 703
f 697 830 703
f 830 834 703
f 830 835 834
f 830 831 836
f 830 836 835
f 704 833 700
f 704 837 833
f 838 705 834
f 834 705 702
f 835 840 839
f 838 835 839
f 834 835 838
f 840 835 836
f 842 841 706
f 842 706 707
f 704 706 837
f 837 706 841
f 843 709 838
f 838 709 705
f 838 839 844
f 838 844 843
f 847 846 845
f 846 842 845
f 842 710 845
f 842 707 710
f 848 711 712
f 849 848 712
f 849 712 709
f 850 849 709
f 843 850 709
f 850 843 844
f 853 852 851
f 854 851 852
f 847 845 714
f 715 847 714
f 855 847 715
f 714 845 710
f 856 716 717
f 711 848 717
f 848 856 717
f 848 857 856
f 848 849 858
f 848 858 857
f 853 851 859
f 853 859 860
f 851 854 861
f 862 851 861
f 859 851 862
f 863 862 718
f 862 855 718
f 855 715 718
f 855 862 861
f 719 863 718
f 864 720 721
f 716 856 721
f 856 864 721
f 856 865 864
f 857 867 866
f 865 857 866
f 856 857 865
f 867 857 858
f 870 869 868
f 868 869 860
f 859 868 860
f 871 868 859
f 872 859 862
f 871 859 872
f 723 872 722
f 872 863 722
f 872 862 863
f 722 863 719
f 873 724 725
f 874 873 725
f 874 725 720
f 875 874 720
f 864 875 720
f 875 864 865
f 875 865 876
f 876 865 866
f 879 878 877
f 877 878 870
f 868 877 870
f 880 877 868
f 881 868 871
f 880 868 881
f 728 881 727
f 881 872 727
f 881 871 872
f 727 872 723
f 882 730 873
f 873 730 724
f 873 874 883
f 873 883 882
f 879 877 884
f 879 884 885
f 886 877 880
f 884 877 886
f 732 886 731
f 886 881 731
f 886 880 881
f 731 881 728
f 887 733 734
f 888 887 734
f 888 734 730
f 889 888 730
f 882 889 730
f 889 882 883
f 891 890 736
f 891 736 737
f 893 892 738
f 736 893 738
f 890 893 736
f 892 893 885
f 884 892 885
f 894 892 884
f 740 894 741
f 894 886 741
f 894 884 886
f 741 886 732
f 895 742 743
f 733 887 743
f 887 895 743
f 887 896 895
f 887 888 897
f 898 887 897
f 896 887 898
f 745 746 898
f 897 745 898
f 899 745 897
f 737 745 891
f 891 745 899
f 892 748 738
f 748 892 749
f 749 892 894
f 749 894 740
f 900 750 751
f 901 900 751
f 901 751 742
f 902 901 742
f 895 902 742
f 754 903 753
f 903 895 753
f 895 896 753
f 903 902 895
f 753 896 756
f 756 896 898
f 756 898 746
f 904 759 760
f 905 904 760
f 905 760 750
f 906 905 750
f 900 906 750
f 906 900 901
f 762 903 754
f 762 907 903
f 909 908 904
f 908 759 904
f 908 764 759
f 909 904 905
f 765 907 762
f 765 910 907
f 912 911 767
f 767 911 766
f 767 764 908
f 767 908 912
f 765 768 913
f 914 765 913
f 910 765 914
f 769 913 768
f 916 915 771
f 771 915 770
f 771 766 911
f 771 911 916
f 917 914 913
f 913 769 917
f 769 918 917
f 769 772 918
f 921 920 919
f 915 921 919
f 773 915 919
f 770 915 773
f 775 922 774
f 922 923 774
f 923 772 774
f 923 918 772
f 920 924 919
f 773 919 924
f 925 773 924
f 777 773 925
f 927 926 922
f 775 927 922
f 778 927 775
f 922 926 923
f 925 928 777
f 777 928 779
f 779 929 780
f 928 929 779
f 780 930 781
f 929 930 780
f 781 931 782
f 930 931 781
f 782 932 783
f 931 932 782
f 778 783 927
f 927 783 932
f 935 934 933
f 937 936 933
f 933 936 935
f 937 938 936
f 940 939 785
f 785 939 784
f 941 785 786
f 941 940 785
f 788 933 934
f 941 788 934
f 786 788 941
f 933 788 790
f 942 933 790
f 937 933 942
f 938 937 943
f 943 937 942
f 945 944 792
f 792 944 791
f 792 784 939
f 792 939 945
f 794 946 942
f 794 942 790
f 943 942 947
f 947 942 946
f 950 949 948
f 795 796 948
f 796 950 948
f 796 951 950
f 796 791 944
f 796 944 951
f 798 952 946
f 798 946 794
f 947 946 953
f 953 946 952
f 956 955 954
f 958 957 954
f 954 957 956
f 957 958 949
f 949 958 948
f 958 799 948
f 799 800 948
f 948 800 795
f 960 959 801
f 960 801 802
f 798 801 952
f 801 961 952
f 801 959 961
f 952 961 953
f 964 963 962
f 964 962 955
f 962 954 955
f 962 965 954
f 965 803 804
f 958 965 804
f 954 965 958
f 958 804 799
f 967 966 805
f 967 805 806
f 802 805 960
f 960 805 966
f 969 968 809
f 809 968 808
f 810 962 963
f 969 810 963
f 809 810 969
f 962 810 812
f 962 812 965
f 965 812 803
f 971 970 813
f 971 813 814
f 806 813 967
f 967 813 970
f 973 972 816
f 816 972 815
f 816 808 968
f 816 968 973
f 975 974 817
f 975 817 818
f 814 817 971
f 971 817 974
f 976 820 821
f 977 976 821
f 815 977 821
f 972 977 815
f 979 978 822
f 979 822 823
f 818 822 975
f 975 822 978
f 981 980 976
f 980 820 976
f 980 824 820
f 981 976 977
f 983 982 825
f 983 825 826
f 823 825 979
f 979 825 982
f 980 827 824
f 984 827 980
f 986 985 828
f 986 828 829
f 826 828 983
f 983 828 985
f 984 831 827
f 987 831 984
f 833 988 832
f 988 989 832
f 989 829 832
f 989 986 829
f 987 836 831
f 990 836 987
f 992 991 988
f 833 992 988
f 837 992 833
f 988 991 989
f 993 839 840
f 994 993 840
f 836 994 840
f 990 994 836
f 997 996 995
f 999 998 995
f 999 995 996
f 841 842 998
f 999 841 998
f 1000 841 999
f 837 841 992
f 992 841 1000
f 1001 844 993
f 993 844 839
f 993 994 1002
f 1003 993 1002
f 1001 993 1003
f 1003 1002 997
f 995 1003 997
f 1004 1003 995
f 847 1004 846
f 1004 998 846
f 1004 995 998
f 846 998 842
f 1005 849 850
f 844 1001 850
f 1001 1005 850
f 1001 1006 1005
f 853 1006 852
f 1006 1003 852
f 1006 1001 1003
f 852 1003 854
f 1003 1007 854
f 1003 1004 1007
f 855 1007 847
f 847 1007 1004
f 1008 858 1005
f 1005 858 849
f 1009 1005 1006
f 1008 1005 1009
f 860 1009 853
f 853 1009 1006
f 1007 861 854
f 861 1007 855
f 1011 1010 867
f 867 1010 866
f 1011 867 858
f 1012 1011 858
f 1008 1012 858
f 1011 1012 1013
f 870 1012 869
f 1012 1009 869
f 1012 1008 1009
f 869 1009 860
f 1014 874 875
f 1014 875 1015
f 875 1016 1015
f 875 876 1016
f 876 866 1010
f 876 1010 1016
f 1013 1012 878
f 879 1013 878
f 1017 1013 879
f 878 1012 870
f 1019 1018 1014
f 1018 874 1014
f 1018 883 874
f 1019 1014 1015
f 1022 1021 1020
f 1021 1017 1020
f 1017 885 1020
f 1017 879 885
f 1023 888 889
f 883 1018 1024
f 1023 883 1024
f 1025 1023 1024
f 889 883 1023
f 890 891 1025
f 1024 890 1025
f 1026 890 1024
f 1020 893 1022
f 893 1026 1022
f 893 890 1026
f 893 1020 885
f 1023 897 888
f 897 1023 899
f 899 1023 1025
f 899 1025 891
f 1027 901 902
f 903 1027 902
f 1029 1028 906
f 906 1028 905
f 1029 906 901
f 1030 1029 901
f 1027 1030 901
f 1029 1030 1031
f 907 1030 903
f 903 1030 1027
f 1033 1032 909
f 909 1032 908
f 909 905 1028
f 909 1028 1033
f 1034 1031 1030
f 1030 907 1034
f 907 1035 1034
f 907 910 1035
f 1037 1036 912
f 912 1036 911
f 912 908 1032
f 912 1032 1037
f 914 1035 910
f 914 1038 1035
f 1040 1039 916
f 916 1039 915
f 916 911 1036
f 916 1036 1040
f 1041 1038 914
f 1041 914 917
f 917 918 1041
f 1041 918 1042
f 1044 1043 921
f 921 1043 920
f 921 915 1039
f 921 1039 1044
f 1047 1046 1045
f 1046 1042 1045
f 1042 923 1045
f 1042 918 923
f 1043 1048 920
f 920 1048 924
f 1050 1049 925
f 924 1050 925
f 1048 1050 924
f 1052 1051 1049
f 1052 1049 1050
f 1053 1051 1052
f 1047 1045 926
f 927 1047 926
f 1054 1047 927
f 926 1045 923
f 1049 928 925
f 928 1049 929
f 929 1049 1051
f 1053 1055 1051
f 1055 929 1051
f 1055 930 929
f 930 1056 931
f 1055 1056 930
f 931 1057 932
f 1056 1057 931
f 927 932 1054
f 1054 932 1057
f 1059 1058 935
f 935 1058 934
f 1060 935 936
f 1060 1059 935
f 1062 1061 938
f 1061 936 938
f 1061 1060 936
f 1062 1063 1061
f 1065 1064 940
f 940 1064 939
f 1066 940 941
f 1066 1065 940
f 941 934 1058
f 941 1058 1066
f 943 1067 1062
f 943 1062 938
f 1063 1062 1068
f 1068 1062 1067
f 1071 1070 1069
f 944 945 1069
f 945 1071 1069
f 945 1072 1071
f 945 939 1064
f 945 1064 1072
f 947 1073 1067
f 947 1067 943
f 1068 1067 1074
f 1067 1075 1074
f 1067 1073 1075
f 1075 1076 1074
f 1079 1078 1077
f 949 950 1077
f 950 1079 1077
f 950 1080 1079
f 951 1069 1070
f 1080 951 1070
f 950 951 1080
f 1069 951 944
f 1082 1081 1073
f 947 1082 1073
f 953 1082 947
f 1073 1081 1075
f 1075 1081 1083
f 1075 1083 1076
f 1085 1084 956
f 956 1084 955
f 957 1077 1078
f 1085 957 1078
f 956 957 1085
f 1077 957 949
f 1087 1086 959
f 1087 959 960
f 959 1088 961
f 1086 1088 959
f 953 961 1082
f 1082 961 1088
f 1089 963 964
f 1090 1089 964
f 955 1090 964
f 1084 1090 955
f 1092 1091 966
f 1092 966 967
f 960 966 1087
f 1087 966 1091
f 1093 968 969
f 1094 1093 969
f 1094 969 963
f 1095 1094 963
f 1089 1095 963
f 1095 1089 1090
f 1097 1096 970
f 1097 970 971
f 967 970 1092
f 1092 970 1096
f 1098 972 973
f 1099 1098 973
f 1099 973 968
f 1100 1099 968
f 1093 1100 968
f 1100 1093 1094
f 1102 1101 974
f 1102 974 975
f 971 974 1097
f 1097 974 1101
f 1104 1103 1098
f 1103 972 1098
f 1103 977 972
f 1104 1098 1099
f 1106 1105 978
f 1106 978 979
f 975 978 1102
f 1102 978 1105
f 1107 980 981
f 1108 1107 981
f 977 1108 981
f 1103 1108 977
f 1110 1109 982
f 1110 982 983
f 979 982 1106
f 1106 982 1109
f 1111 984 1107
f 1107 984 980
f 1107 1108 1112
f 1113 1107 1112
f 1111 1107 1113
f 1114 1113 1112
f 1116 1115 985
f 1116 985 986
f 983 985 1110
f 1110 985 1115
f 1117 987 1111
f 1111 987 984
f 1118 1111 1113
f 1117 1111 1118
f 1113 1114 1119
f 1120 1113 1119
f 1118 1113 1120
f 1122 1121 1120
f 1122 1120 1119
f 1124 1123 1121
f 1124 1121 1122
f 1124 1116 1123
f 1116 989 1123
f 1116 986 989
f 1125 990 1117
f 1117 990 987
f 1126 1117 1118
f 1125 1117 1126
f 1127 1118 1120
f 1126 1118 1127
f 1128 1120 1121
f 1127 1120 1128
f 992 1128 991
f 1128 1123 991
f 1128 1121 1123
f 991 1123 989
f 1129 994 1125
f 1125 994 990
f 997 1129 996
f 1129 1126 996
f 1129 1125 1126
f 996 1126 999
f 999 1126 1127
f 999 1127 1000
f 1000 1127 1128
f 1000 1128 992
f 1129 1002 994
f 1002 1129 997
f 1130 1010 1011
f 1013 1130 1011
f 1131 1015 1016
f 1010 1130 1016
f 1130 1131 1016
f 1130 1132 1131
f 1017 1132 1013
f 1013 1132 1130
f 1133 1018 1019
f 1015 1131 1019
f 1131 1133 1019
f 1131 1134 1133
f 1022 1134 1021
f 1134 1132 1021
f 1134 1131 1132
f 1021 1132 1017
f 1133 1024 1018
f 1024 1133 1026
f 1026 1133 1134
f 1026 1134 1022
f 1136 1135 1029
f 1029 1135 1028
f 1029 1031 1136
f 1136 1031 1137
f 1139 1138 1033
f 1033 1138 1032
f 1033 1028 1135
f 1033 1135 1139
f 1031 1034 1140
f 1141 1031 1140
f 1137 1031 1141
f 1035 1140 1034
f 1143 1142 1037
f 1037 1142 1036
f 1037 1032 1138
f 1037 1138 1143
f 1144 1141 1140
f 1140 1035 1144
f 1035 1145 1144
f 1035 1038 1145
f 1147 1146 1040
f 1040 1146 1039
f 1040 1036 1142
f 1040 1142 1147
f 1038 1041 1148
f 1149 1038 1148
f 1145 1038 1149
f 1042 1148 1041
f 1150 1043 1044
f 1151 1150 1044
f 1039 1151 1044
f 1146 1151 1039
f 1149 1148 1046
f 1047 1149 1046
f 1152 1149 1047
f 1046 1148 1042
f 1150 1048 1043
f 1151 1153 1150
f 1153 1048 1150
f 1153 1050 1048
f 1050 1154 1052
f 1153 1154 1050
f 1156 1155 1053
f 1052 1156 1053
f 1154 1156 1052
f 1158 1157 1155
f 1158 1155 1156
f 1160 1159 1157
f 1160 1157 1158
f 1160 1152 1159
f 1152 1054 1159
f 1152 1047 1054
f 1155 1055 1053
f 1055 1155 1056
f 1056 1155 1157
f 1056 1157 1057
f 1057 1157 1159
f 1057 1159 1054
f 1161 1058 1059
f 1060 1162 1059
f 1059 1162 1161
f 1162 1060 1163
f 1060 1164 1163
f 1060 1061 1164
f 1166 1165 1063
f 1165 1061 1063
f 1165 1164 1061
f 1166 1167 1165
f 1168 1064 1065
f 1066 1169 1065
f 1065 1169 1168
f 1058 1161 1066
f 1161 1169 1066
f 1161 1170 1169
f 1162 1172 1171
f 1170 1162 1171
f 1161 1162 1170
f 1172 1162 1163
f 1068 1173 1166
f 1068 1166 1063
f 1167 1166 1174
f 1174 1166 1173
f 1175 1070 1071
f 1175 1071 1176
f 1071 1177 1176
f 1071 1072 1177
f 1072 1064 1168
f 1178 1072 1168
f 1177 1072 1178
f 1178 1168 1169
f 1178 1169 1179
f 1179 1169 1170
f 1179 1170 1180
f 1180 1170 1171
f 1074 1173 1068
f 1182 1181 1076
f 1076 1181 1074
f 1181 1174 1074
f 1174 1173 1074
f 1182 1183 1181
f 1184 1078 1079
f 1080 1185 1079
f 1079 1185 1184
f 1186 1185 1080
f 1186 1080 1070
f 1187 1186 1070
f 1175 1187 1070
f 1187 1175 1176
f 1190 1189 1188
f 1081 1082 1188
f 1189 1081 1188
f 1191 1081 1189
f 1081 1192 1083
f 1191 1192 1081
f 1076 1083 1182
f 1083 1193 1182
f 1083 1192 1193
f 1182 1193 1183
f 1194 1084 1085
f 1195 1194 1085
f 1195 1085 1078
f 1196 1195 1078
f 1184 1196 1078
f 1196 1184 1185
f 1196 1185 1197
f 1197 1185 1186
f 1199 1198 1086
f 1199 1086 1087
f 1188 1088 1190
f 1088 1198 1190
f 1088 1086 1198
f 1088 1188 1082
f 1201 1200 1194
f 1200 1084 1194
f 1200 1090 1084
f 1201 1194 1195
f 1203 1202 1091
f 1203 1091 1092
f 1087 1091 1199
f 1199 1091 1202
f 1204 1094 1095
f 1205 1204 1095
f 1090 1205 1095
f 1200 1205 1090
f 1207 1206 1096
f 1207 1096 1097
f 1092 1096 1203
f 1203 1096 1206
f 1208 1099 1100
f 1209 1208 1100
f 1209 1100 1094
f 1210 1209 1094
f 1204 1210 1094
f 1210 1204 1205
f 1212 1211 1101
f 1212 1101 1102
f 1097 1101 1207
f 1207 1101 1211
f 1213 1103 1104
f 1099 1208 1104
f 1208 1213 1104
f 1208 1214 1213
f 1208 1209 1215
f 1216 1208 1215
f 1214 1208 1216
f 1217 1216 1215
f 1220 1219 1218
f 1105 1106 1218
f 1219 1105 1218
f 1221 1105 1219
f 1102 1105 1212
f 1212 1105 1221
f 1222 1108 1213
f 1213 1108 1103
f 1223 1213 1214
f 1222 1213 1223
f 1224 1214 1216
f 1223 1214 1224
f 1216 1217 1225
f 1226 1216 1225
f 1224 1216 1226
f 1228 1227 1226
f 1228 1226 1225
f 1227 1228 1220
f 1227 1220 1218
f 1110 1227 1218
f 1109 1110 1218
f 1109 1218 1106
f 1222 1112 1108
f 1112 1222 1114
f 1222 1229 1114
f 1222 1223 1229
f 1230 1223 1224
f 1229 1223 1230
f 1231 1224 1226
f 1230 1224 1231
f 1116 1231 1115
f 1231 1227 1115
f 1231 1226 1227
f 1115 1227 1110
f 1229 1119 1114
f 1119 1229 1122
f 1122 1229 1230
f 1122 1230 1124
f 1124 1230 1231
f 1124 1231 1116
f 1232 1135 1136
f 1137 1232 1136
f 1234 1233 1139
f 1139 1233 1138
f 1139 1135 1232
f 1235 1139 1232
f 1234 1139 1235
f 1232 1137 1235
f 1137 1236 1235
f 1137 1141 1236
f 1238 1237 1143
f 1143 1237 1142
f 1143 1138 1233
f 1143 1233 1238
f 1239 1236 1141
f 1239 1141 1144
f 1144 1145 1239
f 1239 1145 1240
f 1242 1241 1147
f 1147 1241 1146
f 1147 1142 1237
f 1147 1237 1242
f 1149 1240 1145
f 1149 1243 1240
f 1245 1151 1244
f 1151 1241 1244
f 1151 1146 1241
f 1247 1246 1245
f 1247 1245 1244
f 1249 1248 1246
f 1249 1246 1247
f 1251 1250 1248
f 1251 1248 1249
f 1253 1252 1250
f 1253 1250 1251
f 1253 1243 1252
f 1243 1152 1252
f 1243 1149 1152
f 1245 1153 1151
f 1153 1245 1154
f 1154 1245 1246
f 1154 1246 1156
f 1156 1246 1248
f 1156 1248 1158
f 1158 1248 1250
f 1158 1250 1160
f 1160 1250 1252
f 1160 1252 1152
f 1254 1163 1164
f 1254 1164 1255
f 1164 1256 1255
f 1164 1165 1256
f 1258 1257 1167
f 1257 1165 1167
f 1257 1256 1165
f 1258 1259 1257
f 1261 1260 1172
f 1172 1260 1171
f 1172 1163 1254
f 1262 1172 1254
f 1261 1172 1262
f 1262 1254 1255
f 1174 1263 1258
f 1174 1258 1167
f 1259 1258 1264
f 1264 1258 1263
f 1265 1176 1177
f 1178 1266 1177
f 1177 1266 1265
f 1179 1267 1178
f 1178 1267 1266
f 1267 1179 1268
f 1179 1269 1268
f 1179 1180 1269
f 1180 1171 1260
f 1180 1260 1269
f 1181 1263 1174
f 1181 1183 1263
f 1183 1264 1263
f 1183 1270 1264
f 1271 1186 1187
f 1176 1265 1187
f 1265 1271 1187
f 1265 1272 1271
f 1266 1274 1273
f 1272 1266 1273
f 1265 1266 1272
f 1274 1266 1267
f 1274 1267 1275
f 1275 1267 1268
f 1277 1276 1189
f 1277 1189 1190
f 1189 1278 1191
f 1276 1278 1189
f 1191 1279 1192
f 1278 1279 1191
f 1192 1280 1193
f 1279 1280 1192
f 1183 1193 1270
f 1270 1193 1280
f 1281 1195 1196
f 1197 1282 1196
f 1196 1282 1281
f 1186 1271 1197
f 1271 1282 1197
f 1271 1283 1282
f 1272 1285 1284
f 1283 1272 1284
f 1271 1272 1283
f 1285 1272 1273
f 1287 1286 1198
f 1287 1198 1199
f 1190 1198 1277
f 1277 1198 1286
f 1288 1200 1201
f 1195 1281 1201
f 1281 1288 1201
f 1281 1289 1288
f 1290 1281 1282
f 1289 1281 1290
f 1283 1292 1291
f 1290 1283 1291
f 1282 1283 1290
f 1292 1283 1284
f 1294 1293 1202
f 1294 1202 1203
f 1199 1202 1287
f 1287 1202 1293
f 1297 1296 1295
f 1295 1298 1297
f 1299 1205 1288
f 1288 1205 1200
f 1300 1288 1289
f 1299 1288 1300
f 1290 1302 1301
f 1300 1290 1301
f 1289 1290 1300
f 1302 1290 1291
f 1304 1303 1206
f 1304 1206 1207
f 1203 1206 1294
f 1294 1206 1303
f 1296 1305 1295
f 1295 1305 1298
f 1306 1209 1210
f 1205 1299 1210
f 1299 1306 1210
f 1299 1307 1306
f 1308 1299 1300
f 1307 1299 1308
f 1300 1301 1309
f 1300 1309 1308
f 1312 1311 1310
f 1211 1212 1310
f 1311 1211 1310
f 1313 1211 1311
f 1207 1211 1304
f 1304 1211 1313
f 1306 1215 1209
f 1215 1306 1217
f 1306 1314 1217
f 1306 1307 1314
f 1315 1307 1308
f 1314 1307 1315
f 1316 1219 1220
f 1308 1316 1220
f 1315 1308 1220
f 1316 1308 1309
f 1310 1221 1312
f 1221 1316 1312
f 1221 1219 1316
f 1221 1310 1212
f 1314 1225 1217
f 1225 1314 1228
f 1228 1314 1315
f 1228 1315 1220
f 1318 1317 1234
f 1234 1317 1233
f 1319 1234 1235
f 1319 1318 1234
f 1235 1236 1319
f 1319 1236 1320
f 1322 1321 1238
f 1238 1321 1237
f 1238 1233 1317
f 1238 1317 1322
f 1323 1320 1236
f 1323 1236 1239
f 1239 1240 1323
f 1323 1240 1324
f 1325 1241 1242
f 1237 1321 1326
f 1325 1237 1326
f 1327 1325 1326
f 1242 1237 1325
f 1329 1328 1327
f 1329 1327 1326
f 1331 1330 1328
f 1331 1328 1329
f 1333 1332 1330
f 1333 1330 1331
f 1333 1324 1332
f 1324 1243 1332
f 1324 1240 1243
f 1325 1244 1241
f 1244 1325 1247
f 1247 1325 1327
f 1247 1327 1249
f 1249 1327 1328
f 1249 1328 1251
f 1251 1328 1330
f 1251 1330 1253
f 1253 1330 1332
f 1253 1332 1243
f 1334 1255 1256
f 1334 1256 1335
f 1256 1336 1335
f 1256 1257 1336
f 1257 1259 1336
f 1336 1259 1337
f 1338 1260 1261
f 1262 1339 1261
f 1261 1339 1338
f 1340 1339 1262
f 1340 1262 1255
f 1341 1340 1255
f 1334 1341 1255
f 1341 1334 1335
f 1264 1337 1259
f 1264 1342 1337
f 1343 1268 1269
f 1344 1343 1269
f 1344 1269 1260
f 1345 1344 1260
f 1338 1345 1260
f 1345 1338 1339
f 1345 1339 1346
f 1346 1339 1340
f 1270 1342 1264
f 1270 1347 1342
f 1348 1273 1274
f 1348 1274 1349
f 1274 1350 1349
f 1274 1275 1350
f 1275 1268 1343
f 1351 1275 1343
f 1350 1275 1351
f 1352 1351 1277
f 1343 1277 1351
f 1277 1343 1276
f 1344 1276 1343
f 1276 1344 1353
f 1276 1354 1278
f 1353 1354 1276
f 1354 1356 1355
f 1279 1354 1355
f 1278 1354 1279
f 1357 1280 1279
f 1357 1279 1355
f 1357 1358 1280
f 1358 1270 1280
f 1358 1347 1270
f 1359 1284 1285
f 1360 1359 1285
f 1360 1285 1273
f 1361 1360 1273
f 1348 1361 1273
f 1361 1348 1349
f 1287 1362 1286
f 1362 1363 1286
f 1363 1277 1286
f 1363 1352 1277
f 1356 1364 1355
f 1355 1364 1357
f 1357 1364 1365
f 1357 1365 1358
f 1366 1291 1292
f 1367 1366 1292
f 1367 1292 1284
f 1368 1367 1284
f 1359 1368 1284
f 1368 1359 1360
f 1370 1369 1293
f 1370 1293 1294
f 1287 1293 1362
f 1293 1371 1362
f 1293 1369 1371
f 1362 1371 1363
f 1374 1373 1372
f 1296 1297 1372
f 1297 1374 1372
f 1297 1375 1374
f 1377 1376 1298
f 1376 1297 1298
f 1376 1375 1297
f 1377 1378 1376
f 1379 1301 1302
f 1291 1366 1302
f 1366 1379 1302
f 1366 1380 1379
f 1366 1367 1381
f 1382 1366 1381
f 1380 1366 1382
f 1303 1304 1382
f 1381 1303 1382
f 1383 1303 1381
f 1294 1303 1370
f 1370 1303 1383
f 1373 1384 1372
f 1372 1384 1296
f 1384 1305 1296
f 1384 1385 1305
f 1298 1305 1377
f 1305 1386 1377
f 1305 1385 1386
f 1377 1386 1378
f 1387 1309 1379
f 1379 1309 1301
f 1312 1387 1311
f 1387 1380 1311
f 1387 1379 1380
f 1311 1380 1313
f 1313 1380 1382
f 1313 1382 1304
f 1387 1316 1309
f 1316 1387 1312
f 1389 1388 1318
f 1318 1388 1317
f 1391 1389 1390
f 1389 1319 1390
f 1389 1318 1319
f 1320 1390 1319
f 1392 1321 1322
f 1393 1392 1322
f 1317 1393 1322
f 1388 1393 1317
f 1394 1391 1390
f 1396 1394 1395
f 1395 1394 1323
f 1394 1390 1323
f 1390 1320 1323
f 1324 1395 1323
f 1392 1326 1321
f 1393 1397 1392
f 1397 1326 1392
f 1397 1329 1326
f 1329 1398 1331
f 1397 1398 1329
f 1395 1333 1396
f 1333 1398 1396
f 1333 1331 1398
f 1333 1395 1324
f 1399 1335 1336
f 1337 1399 1336
f 1400 1340 1341
f 1401 1400 1341
f 1401 1341 1335
f 1402 1401 1335
f 1399 1402 1335
f 1337 1342 1399
f 1342 1403 1399
f 1403 1402 1399
f 1403 1342 1404
f 1404 1405 1403
f 1406 1344 1345
f 1406 1345 1407
f 1345 1408 1407
f 1345 1346 1408
f 1346 1340 1400
f 1409 1346 1400
f 1408 1346 1409
f 1409 1400 1401
f 1347 1410 1404
f 1347 1404 1342
f 1405 1404 1411
f 1411 1404 1410
f 1412 1349 1350
f 1412 1350 1413
f 1350 1414 1413
f 1350 1351 1414
f 1353 1344 1406
f 1352 1415 1351
f 1416 1351 1415
f 1351 1416 1414
f 1353 1406 1354
f 1407 1354 1406
f 1354 1407 1417
f 1416 1417 1407
f 1417 1416 1415
f 1417 1356 1354
f 1358 1418 1410
f 1358 1410 1347
f 1411 1410 1419
f 1419 1410 1418
f 1420 1360 1361
f 1421 1420 1361
f 1421 1361 1349
f 1422 1421 1349
f 1412 1422 1349
f 1422 1412 1413
f 1424 1423 1415
f 1352 1424 1415
f 1363 1424 1352
f 1415 1423 1417
f 1417 1423 1425
f 1417 1425 1356
f 1425 1364 1356
f 1425 1426 1364
f 1364 1427 1365
f 1426 1427 1364
f 1358 1365 1418
f 1365 1428 1418
f 1365 1427 1428
f 1418 1428 1419
f 1429 1367 1368
f 1360 1420 1368
f 1420 1429 1368
f 1420 1430 1429
f 1431 1369 1370
f 1420 1431 1370
f 1430 1420 1370
f 1431 1420 1421
f 1369 1432 1371
f 1431 1432 1369
f 1363 1371 1424
f 1424 1371 1432
f 1434 1433 1374
f 1374 1433 1373
f 1435 1374 1375
f 1435 1434 1374
f 1436 1375 1376
f 1436 1435 1375
f 1438 1437 1378
f 1437 1376 1378
f 1437 1436 1376
f 1440 1439 1438
f 1438 1439 1437
f 1440 1441 1439
f 1429 1381 1367
f 1381 1429 1383
f 1383 1429 1430
f 1383 1430 1370
f 1444 1443 1442
f 1446 1445 1443
f 1443 1445 1442
f 1446 1447 1445
f 1433 1448 1373
f 1373 1448 1384
f 1448 1450 1449
f 1385 1448 1449
f 1384 1448 1385
f 1385 1449 1451
f 1452 1385 1451
f 1386 1385 1452
f 1378 1386 1438
f 1386 1453 1438
f 1386 1452 1453
f 1438 1453 1440
f 1440 1453 1454
f 1440 1454 1441
f 1457 1456 1455
f 1458 1443 1444
f 1455 1459 1457
f 1443 1458 1446
f 1446 1458 1460
f 1446 1460 1447
f 1450 1461 1449
f 1449 1461 1451
f 1456 1462 1455
f 1462 1463 1455
f 1463 1464 1455
f 1465 1459 1455
f 1465 1455 1464
f 1467 1466 1464
f 1464 1466 1465
f 1469 1468 1467
f 1467 1468 1466
f 1469 1470 1468
f 1463 1471 1464
f 1464 1471 1467
f 1467 1471 1472
f 1474 1473 1472
f 1473 1467 1472
f 1473 1469 1467
f 1470 1469 1475
f 1475 1469 1473
f 1474 1476 1473
f 1473 1476 1475
f 1477 1388 1389
f 1391 1477 1389
f 1478 1393 1477
f 1477 1393 1388
f 1394 1479 1391
f 1479 1477 1391
f 1479 1478 1477
f 1396 1479 1394
f 1478 1397 1393
f 1397 1478 1398
f 1398 1478 1479
f 1398 1479 1396
f 1480 1401 1402
f 1480 1402 1481
f 1402 1482 1481
f 1402 1403 1482
f 1403 1405 1482
f 1482 1405 1483
f 1484 1407 1408
f 1409 1485 1408
f 1408 1485 1484
f 1486 1485 1409
f 1486 1409 1401
f 1487 1486 1401
f 1480 1487 1401
f 1487 1480 1481
f 1411 1483 1405
f 1411 1488 1483
f 1489 1413 1414
f 1489 1414 1490
f 1414 1491 1490
f 1414 1416 1491
f 1416 1407 1484
f 1492 1416 1484
f 1491 1416 1492
f 1492 1484 1485
f 1492 1485 1493
f 1485 1494 1493
f 1485 1495 1494
f 1485 1486 1496
f 1495 1485 1496
f 1498 1497 1495
f 1498 1495 1496
f 1498 1488 1497
f 1488 1419 1497
f 1488 1411 1419
f 1499 1421 1422
f 1500 1499 1422
f 1500 1422 1413
f 1501 1500 1413
f 1489 1501 1413
f 1502 1501 1424
f 1489 1424 1501
f 1424 1489 1423
f 1490 1423 1489
f 1423 1490 1503
f 1423 1504 1425
f 1503 1504 1423
f 1425 1505 1426
f 1504 1505 1425
f 1495 1427 1494
f 1427 1505 1494
f 1427 1426 1505
f 1427 1495 1428
f 1428 1495 1497
f 1428 1497 1419
f 1499 1431 1421
f 1500 1506 1499
f 1506 1431 1499
f 1506 1432 1431
f 1509 1508 1507
f 1432 1502 1424
f 1502 1432 1506
f 1433 1434 1507
f 1434 1509 1507
f 1434 1510 1509
f 1511 1434 1435
f 1511 1510 1434
f 1512 1435 1436
f 1512 1511 1435
f 1513 1436 1437
f 1513 1512 1436
f 1514 1437 1439
f 1514 1513 1437
f 1439 1441 1514
f 1514 1441 1515
f 1517 1516 1442
f 1442 1516 1444
f 1518 1442 1445
f 1518 1517 1442
f 1519 1507 1447
f 1507 1518 1447
f 1518 1445 1447
f 1507 1508 1518
f 1520 1448 1433
f 1507 1520 1433
f 1519 1520 1507
f 1520 1450 1448
f 1451 1521 1452
f 1522 1453 1452
f 1522 1452 1521
f 1523 1454 1453
f 1523 1453 1522
f 1523 1524 1454
f 1524 1441 1454
f 1524 1515 1441
f 1525 1456 1457
f 1525 1457 1459
f 1444 1526 1458
f 1526 1444 1527
f 1516 1527 1444
f 1528 1460 1458
f 1528 1458 1526
f 1519 1447 1460
f 1528 1519 1460
f 1529 1519 1528
f 1519 1530 1520
f 1519 1529 1530
f 1520 1530 1450
f 1530 1531 1450
f 1531 1461 1450
f 1530 1532 1531
f 1451 1461 1521
f 1461 1533 1521
f 1461 1531 1533
f 1521 1533 1522
f 1522 1533 1534
f 1522 1534 1523
f 1523 1534 1535
f 1523 1535 1524
f 1525 1462 1456
f 1537 1527 1536
f 1537 1536 1463
f 1537 1463 1462
f 1537 1462 1525
f 1537 1525 1459
f 1537 1459 1465
f 1537 1465 1526
f 1537 1526 1527
f 1526 1465 1466
f 1526 1466 1528
f 1528 1466 1468
f 1528 1468 1529
f 1529 1468 1470
f 1538 1529 1470
f 1530 1529 1538
f 1532 1530 1539
f 1530 1540 1539
f 1530 1538 1540
f 1542 1541 1540
f 1540 1541 1539
f 1544 1543 1542
f 1542 1543 1541
f 1544 1545 1543
f 1536 1546 1463
f 1463 1546 1471
f 1471 1547 1472
f 1546 1547 1471
f 1474 1472 1547
f 1474 1547 1548
f 1475 1549 1538
f 1475 1538 1470
f 1538 1550 1540
f 1538 1549 1550
f 1540 1551 1542
f 1540 1550 1551
f 1553 1544 1552
f 1544 1551 1552
f 1544 1542 1551
f 1544 1553 1545
f 1548 1554 1474
f 1474 1554 1476
f 1475 1476 1549
f 1476 1555 1549
f 1476 1554 1555
f 1549 1555 1550
f 1550 1555 1556
f 1550 1556 1551
f 1551 1556 1557
f 1551 1557 1552
f 1558 1481 1482
f 1483 1558 1482
f 1559 1486 1487
f 1481 1558 1487
f 1558 1559 1487
f 1558 1560 1559
f 1488 1560 1483
f 1483 1560 1558
f 1561 1490 1491
f 1492 1562 1491
f 1491 1562 1561
f 1493 1563 1492
f 1492 1563 1562
f 1486 1559 1496
f 1563 1493 1494
f 1496 1559 1498
f 1498 1559 1560
f 1498 1560 1488
f 1564 1500 1501
f 1490 1561 1503
f 1564 1501 1502
f 1503 1561 1504
f 1504 1561 1562
f 1504 1562 1505
f 1505 1562 1563
f 1505 1563 1494
f 1564 1506 1500
f 1564 1502 1506
f 1566 1508 1565
f 1509 1565 1508
f 1567 1509 1510
f 1567 1565 1509
f 1568 1510 1511
f 1568 1567 1510
f 1569 1511 1512
f 1569 1568 1511
f 1570 1512 1513
f 1570 1569 1512
f 1571 1513 1514
f 1571 1570 1513
f 1514 1515 1571
f 1571 1515 1572
f 1573 1516 1517
f 1573 1517 1574
f 1517 1575 1574
f 1517 1518 1575
f 1518 1508 1566
f 1518 1566 1575
f 1524 1572 1515
f 1524 1576 1572
f 1577 1527 1573
f 1573 1527 1516
f 1573 1574 1578
f 1573 1578 1577
f 1532 1579 1531
f 1580 1533 1531
f 1580 1531 1579
f 1581 1534 1533
f 1581 1533 1580
f 1582 1535 1534
f 1582 1534 1581
f 1582 1583 1535
f 1583 1524 1535
f 1583 1576 1524
f 1584 1536 1577
f 1577 1536 1527
f 1577 1578 1585
f 1586 1577 1585
f 1584 1577 1586
f 1587 1586 1585
f 1539 1579 1532
f 1579 1539 1541
f 1579 1541 1580
f 1580 1541 1543
f 1580 1543 1581
f 1581 1543 1545
f 1588 1581 1545
f 1582 1581 1588
f 1583 1582 1589
f 1589 1582 1588
f 1584 1546 1536
f 1546 1584 1547
f 1547 1584 1586
f 1591 1590 1548
f 1591 1548 1547
f 1587 1591 1547
f 1586 1587 1547
f 1593 1592 1590
f 1593 1590 1591
f 1595 1594 1592
f 1595 1592 1593
f 1597 1596 1594
f 1597 1594 1595
f 1553 1552 1596
f 1597 1553 1596
f 1598 1553 1597
f 1545 1553 1588
f 1553 1599 1588
f 1553 1598 1599
f 1588 1599 1589
f 1590 1554 1548
f 1554 1590 1555
f 1555 1590 1592
f 1555 1592 1556
f 1556 1592 1594
f 1556 1594 1557
f 1557 1594 1596
f 1557 1596 1552
f 1601 1600 1565
f 1565 1600 1566
f 1602 1565 1567
f 1602 1601 1565
f 1603 1567 1568
f 1603 1602 1567
f 1604 1568 1569
f 1604 1603 1568
f 1605 1569 1570
f 1605 1604 1569
f 1606 1570 1571
f 1606 1605 1570
f 1571 1572 1606
f 1606 1572 1607
f 1608 1574 1575
f 1609 1608 1575
f 1566 1609 1575
f 1600 1609 1566
f 1576 1607 1572
f 1576 1610 1607
f 1611 1578 1608
f 1608 1578 1574
f 1608 1609 1612
f 1613 1608 1612
f 1611 1608 1613
f 1614 1613 1612
f 1583 1610 1576
f 1583 1615 1610
f 1611 1585 1578
f 1585 1611 1587
f 1611 1616 1587
f 1611 1613 1616
f 1613 1614 1617
f 1618 1613 1617
f 1616 1613 1618
f 1620 1619 1618
f 1620 1618 1617
f 1621 1619 1620
f 1589 1615 1583
f 1589 1622 1615
f 1616 1591 1587
f 1591 1616 1593
f 1593 1616 1618
f 1593 1618 1595
f 1595 1618 1619
f 1621 1623 1619
f 1623 1595 1619
f 1623 1597 1595
f 1597 1624 1598
f 1623 1624 1597
f 1598 1625 1599
f 1624 1625 1598
f 1589 1599 1622
f 1622 1599 1625
f 1626 1600 1601
f 1626 1601 1627
f 1601 1628 1627
f 1601 1602 1628
f 1629 1602 1603
f 1629 1628 1602
f 1630 1603 1604
f 1630 1629 1603
f 1631 1604 1605
f 1631 1630 1604
f 1632 1605 1606
f 1632 1631 1605
f 1606 1607 1632
f 1632 1607 1633
f 1634 1609 1626
f 1626 1609 1600
f 1626 1627 1635
f 1636 1626 1635
f 1634 1626 1636
f 1637 1636 1635
f 1610 1633 1607
f 1610 1638 1633
f 1634 1612 1609
f 1612 1634 1614
f 1634 1639 1614
f 1634 1636 1639
f 1636 1637 1640
f 1641 1636 1640
f 1639 1636 1641
f 1642 1641 1640
f 1615 1638 1610
f 1615 1643 1638
f 1639 1617 1614
f 1617 1639 1620
f 1620 1639 1641
f 1621 1620 1641
f 1642 1621 1641
f 1644 1621 1642
f 1622 1643 1615
f 1622 1645 1643
f 1644 1646 1621
f 1621 1646 1623
f 1623 1647 1624
f 1646 1647 1623
f 1624 1648 1625
f 1647 1648 1624
f 1622 1625 1645
f 1645 1625 1648
f 1649 1627 1628
f 1649 1628 1650
f 1628 1651 1650
f 1628 1629 1651
f 1652 1629 1630
f 1652 1651 1629
f 1653 1630 1631
f 1653 1652 1630
f 1654 1631 1632
f 1654 1653 1631
f 1656 1655 1633
f 1655 1632 1633
f 1655 1654 1632
f 1656 1657 1655
f 1649 1635 1627
f 1659 1658 1637
f 1659 1637 1635
f 1650 1659 1635
f 1649 1650 1635
f 1660 1658 1659
f 1638 1661 1656
f 1638 1656 1633
f 1657 1656 1662
f 1662 1656 1661
f 1658 1640 1637
f 1642 1640 1658
f 1660 1642 1658
f 1663 1642 1660
f 1643 1664 1661
f 1643 1661 1638
f 1662 1661 1665
f 1665 1661 1664
f 1667 1644 1666
f 1644 1663 1666
f 1644 1642 1663
f 1668 1667 1666
f 1645 1669 1664
f 1645 1664 1643
f 1665 1664 1670
f 1670 1664 1669
f 1667 1646 1644
f 1668 1671 1667
f 1671 1646 1667
f 1671 1647 1646
f 1647 1672 1648
f 1671 1672 1647
f 1645 1648 1669
f 1648 1673 1669
f 1648 1672 1673
f 1669 1673 1670
f 1674 1650 1651
f 1674 1651 1675
f 1651 1676 1675
f 1651 1652 1676
f 1677 1652 1653
f 1677 1676 1652
f 1678 1653 1654
f 1678 1677 1653
f 1679 1654 1655
f 1679 1678 1654
f 1655 1657 1679
f 1679 1657 1680
f 1674 1659 1650
f 1660 1659 1674
f 1675 1660 1674
f 1681 1660 1675
f 1662 1680 1657
f 1662 1682 1680
f 1684 1663 1683
f 1663 1681 1683
f 1663 1660 1681
f 1685 1684 1683
f 1665 1682 1662
f 1665 1686 1682
f 1684 1666 1663
f 1688 1687 1668
f 1688 1668 1666
f 1685 1688 1666
f 1684 1685 1666
f 1690 1689 1687
f 1690 1687 1688
f 1691 1689 1690
f 1670 1686 1665
f 1670 1692 1686
f 1687 1671 1668
f 1671 1687 1672
f 1672 1687 1689
f 1691 1693 1689
f 1693 1672 1689
f 1693 1673 1672
f 1670 1673 1692
f 1692 1673 1693
f 1695 1694 1676
f 1676 1694 1675
f 1696 1676 1677
f 1696 1695 1676
f 1697 1677 1678
f 1697 1696 1677
f 1698 1678 1679
f 1698 1697 1678
f 1679 1680 1698
f 1698 1680 1699
f 1701 1681 1700
f 1681 1694 1700
f 1681 1675 1694
f 1702 1701 1700
f 1682 1699 1680
f 1682 1703 1699
f 1701 1683 1681
f 1705 1704 1685
f 1705 1685 1683
f 1702 1705 1683
f 1701 1702 1683
f 1706 1704 1705
f 1686 1703 1682
f 1686 1707 1703
f 1704 1688 1685
f 1706 1708 1704
f 1708 1688 1704
f 1708 1690 1688
f 1710 1709 1691
f 1690 1710 1691
f 1708 1710 1690
f 1710 1707 1709
f 1707 1692 1709
f 1707 1686 1692
f 1709 1693 1691
f 1693 1709 1692
f 1711 1694 1695
f 1711 1695 1712
f 1695 1713 1712
f 1695 1696 1713
f 1714 1696 1697
f 1714 1713 1696
f 1716 1714 1715
f 1714 1698 1715
f 1714 1697 1698
f 1699 1715 1698
f 1711 1700 1694
f 1718 1717 1702
f 1718 1702 1700
f 1712 1718 1700
f 1711 1712 1700
f 1720 1719 1717
f 1720 1717 1718
f 1719 1720 1716
f 1715 1719 1716
f 1721 1719 1715
f 1703 1721 1699
f 1699 1721 1715
f 1717 1705 1702
f 1705 1717 1706
f 1717 1722 1706
f 1717 1719 1722
f 1723 1719 1721
f 1722 1719 1723
f 1707 1723 1703
f 1703 1723 1721
f 1722 1708 1706
f 1708 1722 1710
f 1710 1722 1723
f 1710 1723 1707
f 1724 1712 1713
f 1714 1725 1713
f 1713 1725 1724
f 1716 1725 1714
f 1718 1712 1724
f 1728 1727 1726
f 1726 1730 1729
f 1730 1726 1727
f 1725 1720 1724
f 1718 1724 1720
f 1725 1716 1720
f 1731 1729 1730
f 1727 1728 1732
f 1732 1728 1733
f 1727 1734 1730
f 1727 1732 1734
f 1731 1730 1735
f 1735 1730 1734
f 1733 1736 1732
f 1732 1736 1734
f 1734 1736 1737
f 1734 1737 1735
f 1740 1739 1738
f 1728 1726 1738
f 1726 1740 1738
f 1726 1741 1740
f 1742 1726 1729
f 1742 1741 1726
f 1729 1731 1742
f 1742 1731 1743
f 1739 1744 1738
f 1728 1738 1744
f 1745 1728 1744
f 1733 1728 1745
f 1735 1743 1731
f 1735 1746 1743
f 1745 1747 1733
f 1733 1747 1736
f 1736 1748 1737
f 1747 1748 1736
f 1735 1737 1746
f 1746 1737 1748
f 1749 1739 1740
f 1749 1740 1750
f 1740 1751 1750
f 1740 1741 1751
f 1753 1751 1752
f 1751 1742 1752
f 1751 1741 1742
f 1743 1752 1742
f 1749 1744 1739
f 1755 1754 1745
f 1755 1745 1744
f 1750 1755 1744
f 1749 1750 1744
f 1754 1755 1753
f 1752 1754 1753
f 1756 1754 1752
f 1746 1756 1743
f 1743 1756 1752
f 1754 1747 1745
f 1747 1754 1748
f 1748 1754 1756
f 1748 1756 1746
f 1757 1750 1751
f 1753 1757 1751
f 1757 1755 1750
f 1755 1757 1753
