v -16.2 43.0 -7.0
v -16.0 43.0 -7.3
v -16.0 42.7 -7.0
v -16.0 42.6 -6.0
v -16.4 43.0 -6.0
v -16.0 42.8 -5.0
v -16.2 43.0 -5.0
v -16.0 43.0 -4.8
v -16.2 44.0 -7.0
v -16.0 44.0 -7.5
v -16.3 44.0 -6.0
v -16.4 44.0 -5.0
v -16.0 44.0 -4.0
v -16.0 44.2 -7.0
v -16.0 44.4 -6.0
v -16.0 45.0 -5.0
v -15.3 42.0 -7.0
v -15.0 42.0 -7.3
v -15.0 41.7 -7.0
v -15.0 41.7 -6.0
v -15.3 42.0 -6.0
v -15.0 42.0 -5.6
v -15.0 43.0 -7.8
v -15.0 42.6 -5.0
v -15.0 43.0 -4.7
v -15.0 43.5 -7.0
v -15.7 44.0 -7.0
v -15.0 44.0 -6.5
v -15.0 44.0 -4.6
v -15.0 44.3 -6.0
v -15.0 44.4 -5.0
v -14.3 40.0 -9.0
v -14.0 40.0 -9.5
v -14.0 39.6 -9.0
v -14.0 39.7 -8.0
v -14.3 40.0 -8.0
v -14.0 40.0 -7.6
v -14.1 41.0 -13.0
v -14.0 41.0 -13.1
v -14.0 40.9 -13.0
v -14.0 41.0 -12.9
v -14.1 41.0 -10.0
v -14.0 41.0 -10.2
v -14.0 40.8 -10.0
v -14.3 41.0 -9.0
v -14.4 41.0 -8.0
v -14.0 40.6 -7.0
v -14.3 41.0 -7.0
v -14.0 41.0 -6.6
v -14.1 42.0 -13.0
v -14.0 42.0 -13.1
v -14.0 42.0 -12.8
v -14.0 41.2 -10.0
v -14.0 41.3 -9.0
v -14.0 41.5 -8.0
v -14.0 42.0 -7.5
v -14.0 41.5 -6.0
v -14.0 42.0 -5.3
v -14.0 42.2 -13.0
v -14.0 42.8 -12.0
v -14.1 43.0 -12.0
v -14.0 43.0 -12.2
v -14.0 43.0 -11.0
v -14.0 43.0 -11.0
v -14.0 43.0 -11.0
v -14.0 42.5 -7.0
v -14.5 43.0 -7.0
v -14.0 43.0 -6.3
v -14.5 43.0 -5.0
v -14.0 43.0 -5.6
v -14.0 43.1 -12.0
v -14.0 43.0 -11.0
v -14.6 44.0 -6.0
v -14.0 43.3 -6.0
v -14.3 44.0 -5.0
v -13.1 35.0 -11.0
v -13.0 35.0 -11.2
v -13.0 34.9 -11.0
v -13.0 35.0 -10.9
v -13.1 36.0 -15.0
v -13.0 36.0 -15.2
v -13.0 35.8 -15.0
v -13.0 36.0 -14.8
v -13.3 36.0 -12.0
v -13.0 36.0 -12.4
v -13.0 35.5 -12.0
v -13.4 36.0 -11.0
v -13.0 36.0 -10.4
v -13.4 37.0 -15.0
v -13.0 37.0 -15.4
v -13.0 36.5 -14.0
v -13.3 37.0 -14.0
v -13.0 37.0 -13.5
v -13.4 37.0 -12.0
v -13.0 37.0 -12.6
v -13.5 37.0 -11.0
v -13.0 36.5 -10.0
v -13.3 37.0 -10.0
v -13.0 37.0 -9.6
v -13.4 38.0 -15.0
v -13.0 38.0 -15.5
v -13.4 38.0 -14.0
v -13.0 38.0 -13.1
v -13.4 38.0 -12.0
v -13.0 38.0 -12.9
v -13.5 38.0 -11.0
v -13.5 38.0 -10.0
v -13.0 37.6 -9.0
v -13.3 38.0 -9.0
v -13.0 38.0 -8.6
v -13.4 39.0 -15.0
v -13.0 39.0 -15.5
v -13.5 39.0 -14.0
v -13.0 38.1 -13.0
v -13.4 39.0 -13.0
v -13.5 39.0 -12.0
v -13.5 39.0 -11.0
v -13.5 39.0 -10.0
v -13.6 39.0 -9.0
v -13.0 38.5 -8.0
v -13.4 39.0 -8.0
v -13.0 39.0 -7.5
v -13.4 40.0 -15.0
v -13.0 40.0 -15.4
v -13.5 40.0 -14.0
v -13.6 40.0 -13.0
v -13.5 40.0 -12.0
v -13.5 40.0 -11.0
v -13.7 40.0 -10.0
v -13.0 39.5 -7.0
v -13.5 40.0 -7.0
v -13.0 40.0 -6.6
v -13.2 41.0 -15.0
v -13.0 41.0 -15.3
v -13.6 41.0 -14.0
v -13.6 41.0 -12.0
v -13.6 41.0 -11.0
v -13.0 41.0 -6.1
v -13.0 41.4 -15.0
v -13.4 42.0 -14.0
v -13.0 42.0 -14.5
v -13.7 42.0 -12.0
v -13.6 42.0 -11.0
v -13.5 42.0 -10.0
v -13.0 42.0 -9.5
v -13.0 41.6 -9.0
v -13.0 41.6 -8.0
v -13.0 42.0 -7.2
v -13.5 42.0 -6.0
v -13.0 42.0 -6.8
v -13.0 42.5 -14.0
v -13.5 43.0 -13.0
v -13.0 43.0 -13.5
v -13.1 43.0 -10.0
v -13.0 43.0 -9.9
v -13.0 42.1 -7.0
v -13.8 43.0 -6.0
v -13.0 43.5 -13.0
v -13.1 44.0 -12.0
v -13.0 44.0 -12.2
v -13.0 44.0 -11.8
v -13.0 43.5 -11.0
v -13.0 43.1 -10.0
v -13.0 44.1 -12.0
v -12.2 29.0 -13.0
v -12.0 29.0 -13.3
v -12.0 28.8 -13.0
v -12.0 29.0 -12.7
v -12.3 30.0 -15.0
v -12.0 30.0 -15.3
v -12.0 29.7 -15.0
v -12.0 29.4 -14.0
v -12.4 30.0 -14.0
v -12.5 30.0 -13.0
v -12.0 29.6 -12.0
v -12.3 30.0 -12.0
v -12.0 30.0 -11.7
v -12.4 31.0 -15.0
v -12.0 31.0 -15.6
v -12.5 31.0 -14.0
v -12.5 31.0 -13.0
v -12.4 31.0 -12.0
v -12.0 31.0 -11.4
v -12.2 32.0 -17.0
v -12.0 32.0 -17.3
v -12.0 31.7 -17.0
v -12.0 31.4 -16.0
v -12.4 32.0 -16.0
v -12.5 32.0 -15.0
v -12.5 32.0 -14.0
v -12.5 32.0 -13.0
v -12.5 32.0 -12.0
v -12.0 31.5 -11.0
v -12.3 32.0 -11.0
v -12.0 32.0 -10.7
v -12.4 33.0 -17.0
v -12.0 33.0 -17.5
v -12.5 33.0 -16.0
v -12.5 33.0 -15.0
v -12.5 33.0 -14.0
v -12.5 33.0 -13.0
v -12.5 33.0 -12.0
v -12.4 33.0 -11.0
v -12.0 33.0 -10.5
v -12.3 34.0 -17.0
v -12.0 34.0 -17.4
v -12.5 34.0 -16.0
v -12.5 34.0 -15.0
v -12.5 34.0 -14.0
v -12.5 34.0 -13.0
v -12.5 34.0 -12.0
v -12.5 34.0 -11.0
v -12.0 34.0 -10.4
v -12.0 34.5 -17.0
v -12.4 35.0 -16.0
v -12.0 35.0 -16.6
v -12.6 35.0 -15.0
v -12.5 35.0 -14.0
v -12.5 35.0 -13.0
v -12.7 35.0 -12.0
v -12.0 34.5 -10.0
v -12.3 35.0 -10.0
v -12.0 35.0 -9.7
v -12.5 36.0 -16.0
v -12.0 36.0 -16.5
v -12.7 36.0 -14.0
v -12.6 36.0 -13.0
v -12.6 36.0 -10.0
v -12.0 36.0 -9.4
v -12.5 37.0 -16.0
v -12.0 37.0 -16.5
v -12.8 37.0 -13.0
v -12.0 36.4 -9.0
v -12.5 37.0 -9.0
v -12.0 37.0 -8.5
v -12.5 38.0 -16.0
v -12.0 38.0 -16.5
v -12.9 38.0 -13.0
v -12.0 37.7 -8.0
v -12.3 38.0 -8.0
v -12.0 38.0 -7.7
v -12.5 39.0 -16.0
v -12.0 39.0 -16.5
v -12.0 38.7 -7.0
v -12.4 39.0 -7.0
v -12.0 39.0 -6.8
v -12.4 40.0 -16.0
v -12.0 40.0 -16.4
v -12.0 40.0 -6.6
v -12.0 40.5 -16.0
v -12.0 41.0 -15.7
v -12.0 41.0 -6.6
v -12.6 42.0 -15.0
v -12.0 42.0 -15.5
v -12.0 41.7 -9.0
v -12.0 42.0 -9.3
v -12.0 41.5 -8.0
v -12.9 42.0 -7.0
v -12.0 41.4 -7.0
v -12.3 43.0 -15.0
v -12.0 43.0 -15.3
v -12.7 43.0 -14.0
v -12.8 43.0 -10.0
v -12.0 42.8 -10.0
v -12.0 43.0 -10.3
v -12.0 43.4 -15.0
v -12.3 44.0 -14.0
v -12.0 44.0 -14.4
v -12.6 44.0 -13.0
v -12.0 43.5 -11.0
v -12.0 44.0 -11.5
v -12.0 44.3 -14.0
v -12.0 44.5 -13.0
v -12.0 44.4 -12.0
v -11.3 27.0 -14.0
v -11.0 27.0 -14.7
v -11.0 26.5 -14.0
v -11.0 26.5 -13.0
v -11.4 27.0 -13.0
v -11.0 26.7 -12.0
v -11.2 27.0 -12.0
v -11.0 27.0 -11.8
v -11.3 28.0 -16.0
v -11.0 28.0 -16.3
v -11.0 27.6 -16.0
v -11.0 27.2 -15.0
v -11.4 28.0 -15.0
v -11.5 28.0 -14.0
v -11.6 28.0 -13.0
v -11.4 28.0 -12.0
v -11.0 28.0 -11.6
v -11.4 29.0 -16.0
v -11.0 29.0 -16.6
v -11.6 29.0 -15.0
v -11.7 29.0 -14.0
v -11.6 29.0 -12.0
v -11.0 29.0 -11.4
v -11.3 30.0 -17.0
v -11.0 30.0 -17.3
v -11.0 29.5 -17.0
v -11.6 30.0 -16.0
v -11.0 29.5 -11.0
v -11.3 30.0 -11.0
v -11.0 30.0 -10.7
v -11.5 31.0 -17.0
v -11.0 31.0 -17.6
v -11.7 31.0 -16.0
v -11.6 31.0 -11.0
v -11.0 31.0 -10.4
v -11.4 32.0 -18.0
v -11.0 32.0 -18.4
v -11.0 31.5 -18.0
v -11.0 31.6 -10.0
v -11.3 32.0 -10.0
v -11.0 32.0 -9.7
v -11.5 33.0 -18.0
v -11.0 33.0 -18.5
v -11.5 33.0 -10.0
v -11.0 33.0 -9.5
v -11.5 34.0 -18.0
v -11.0 34.0 -18.5
v -11.6 34.0 -10.0
v -11.0 34.0 -9.5
v -11.4 35.0 -18.0
v -11.0 35.0 -18.5
v -11.7 35.0 -17.0
v -11.0 35.0 -9.3
v -11.2 36.0 -18.0
v -11.0 36.0 -18.3
v -11.6 36.0 -17.0
v -11.0 35.3 -9.0
v -11.6 36.0 -9.0
v -11.0 35.8 -8.0
v -11.2 36.0 -8.0
v -11.0 36.0 -7.8
v -11.0 36.4 -18.0
v -11.5 37.0 -17.0
v -11.0 37.0 -17.6
v -11.4 37.0 -8.0
v -11.0 37.0 -7.7
v -11.5 38.0 -17.0
v -11.0 38.0 -17.4
v -11.0 38.0 -7.8
v -11.5 39.0 -17.0
v -11.0 39.0 -17.4
v -11.0 38.8 -7.0
v -11.0 39.0 -6.8
v -11.3 40.0 -17.0
v -11.0 40.0 -17.3
v -11.0 40.0 -7.0
v -11.0 40.4 -17.0
v -11.7 41.0 -16.0
v -11.0 41.0 -16.6
v -11.0 41.0 -6.8
v -11.4 42.0 -16.0
v -11.0 42.0 -16.3
v -11.6 42.0 -9.0
v -11.0 42.0 -8.6
v -11.0 41.6 -8.0
v -11.0 41.3 -7.0
v -11.0 42.5 -16.0
v -11.0 43.0 -15.7
v -11.6 43.0 -10.0
v -11.0 43.0 -9.7
v -11.0 42.4 -9.0
v -11.5 44.0 -15.0
v -11.0 44.0 -15.4
v -11.0 43.6 -11.0
v -11.0 44.0 -11.5
v -11.0 43.3 -10.0
v -11.0 44.5 -15.0
v -11.4 45.0 -14.0
v -11.0 45.0 -14.5
v -11.3 45.0 -13.0
v -11.0 45.0 -12.7
v -11.0 44.5 -12.0
v -11.0 45.3 -14.0
v -11.0 45.3 -13.0
v -10.3 24.0 -16.0
v -10.0 24.0 -16.3
v -10.0 23.7 -16.0
v -10.0 23.6 -15.0
v -10.4 24.0 -15.0
v -10.0 23.7 -14.0
v -10.3 24.0 -14.0
v -10.0 24.0 -13.0
v -10.0 24.0 -13.0
v -10.0 24.0 -13.0
v -10.4 25.0 -16.0
v -10.0 25.0 -16.6
v -10.6 25.0 -15.0
v -10.5 25.0 -14.0
v -10.3 25.0 -13.0
v -10.0 25.0 -12.1
v -10.2 26.0 -17.0
v -10.0 26.0 -17.3
v -10.0 25.6 -17.0
v -10.6 26.0 -16.0
v -11.0 26.0 -15.0
v -10.7 26.0 -14.0
v -10.5 26.0 -13.0
v -10.0 25.2 -12.0
v -10.2 26.0 -12.0
v -10.0 26.0 -11.8
v -10.4 27.0 -17.0
v -10.0 27.0 -17.4
v -10.6 27.0 -16.0
v -10.8 27.0 -15.0
v -10.0 27.0 -11.6
v -10.5 28.0 -17.0
v -10.0 28.0 -17.5
v -10.0 27.9 -11.0
v -10.1 28.0 -11.0
v -10.0 28.0 -10.9
v -10.6 29.0 -17.0
v -10.0 29.0 -17.6
v -10.6 29.0 -11.0
v -10.0 29.0 -10.6
v -10.3 30.0 -18.0
v -10.0 30.0 -18.3
v -10.0 29.5 -18.0
v -10.0 30.0 -10.3
v -10.6 31.0 -18.0
v -10.0 31.0 -18.6
v -10.0 30.5 -10.0
v -10.5 31.0 -10.0
v -10.0 31.0 -9.7
v -10.3 32.0 -19.0
v -10.0 32.0 -19.3
v -10.0 31.6 -19.0
v -10.0 32.0 -9.4
v -10.5 33.0 -19.0
v -10.0 33.0 -19.4
v -10.0 32.7 -9.0
v -10.3 33.0 -9.0
v -10.0 33.0 -8.8
v -10.5 34.0 -19.0
v -10.0 34.0 -19.4
v -10.5 34.0 -9.0
v -10.0 34.0 -8.6
v -10.4 35.0 -19.0
v -10.0 35.0 -19.3
v -10.7 35.0 -9.0
v -10.0 35.0 -8.5
v -10.0 35.5 -19.0
v -10.0 36.0 -18.7
v -10.0 35.5 -8.0
v -10.0 36.0 -7.6
v -10.5 37.0 -18.0
v -10.0 37.0 -18.3
v -10.0 37.0 -7.5
v -10.0 37.5 -18.0
v -10.0 38.0 -17.7
v -10.0 38.0 -7.2
v -10.0 39.0 -17.6
v -10.6 39.0 -7.0
v -10.0 39.0 -7.3
v -10.0 40.0 -17.6
v -10.0 39.6 -7.0
v -10.0 40.0 -6.8
v -10.5 41.0 -17.0
v -10.0 41.0 -17.4
v -10.0 41.0 -6.7
v -10.0 41.7 -17.0
v -10.0 42.0 -16.8
v -10.0 41.7 -8.0
v -10.0 42.0 -8.3
v -10.0 41.4 -7.0
v -10.3 43.0 -17.0
v -10.0 43.0 -17.3
v -10.0 42.3 -17.0
v -10.7 43.0 -16.0
v -10.0 42.5 -9.0
v -10.0 43.0 -9.5
v -10.4 44.0 -17.0
v -10.0 44.0 -17.4
v -10.6 44.0 -16.0
v -10.0 43.6 -11.0
v -10.0 44.0 -11.5
v -10.0 43.4 -10.0
v -10.3 45.0 -17.0
v -10.0 45.0 -17.3
v -10.5 45.0 -16.0
v -10.6 45.0 -15.0
v -10.0 44.5 -12.0
v -10.0 45.0 -12.5
v -10.0 46.0 -17.0
v -10.0 46.0 -17.0
v -10.2 46.0 -16.0
v -10.0 46.0 -15.5
v -10.0 45.8 -15.0
v -10.1 46.0 -14.0
v -10.0 46.0 -14.3
v -10.0 46.0 -13.8
v -10.0 45.5 -13.0
v -10.0 46.0 -17.0
v -10.0 46.2 -16.0
v -10.0 46.1 -14.0
v -9.2 22.0 -17.0
v -9.0 22.0 -17.3
v -9.0 21.8 -17.0
v -9.0 21.8 -16.0
v -9.2 22.0 -16.0
v -9.0 22.0 -15.8
v -9.4 23.0 -17.0
v -9.0 23.0 -17.6
v -9.6 23.0 -16.0
v -9.0 22.7 -15.0
v -9.4 23.0 -15.0
v -9.0 23.0 -14.7
v -9.3 24.0 -18.0
v -9.0 24.0 -18.3
v -9.0 23.5 -18.0
v -9.6 24.0 -17.0
v -9.0 23.6 -14.0
v -10.0 24.0 -13.0
v -9.0 24.0 -13.6
v -9.3 25.0 -18.0
v -9.0 25.0 -18.3
v -9.7 25.0 -17.0
v -9.5 25.0 -13.0
v -9.0 25.0 -13.4
v -9.0 25.5 -18.0
v -9.0 26.0 -17.7
v -9.5 26.0 -13.0
v -9.0 26.0 -13.4
v -9.8 26.0 -12.0
v -9.0 27.0 -17.8
v -9.4 27.0 -13.0
v -9.0 27.0 -13.4
v -9.7 27.0 -12.0
v -9.4 28.0 -18.0
v -9.0 28.0 -18.4
v -9.0 27.4 -18.0
v -9.2 28.0 -13.0
v -9.0 28.0 -13.2
v -9.4 28.0 -12.0
v -9.9 28.0 -11.0
v -9.6 29.0 -18.0
v -9.0 29.0 -18.5
v -9.0 28.2 -13.0
v -9.0 28.5 -12.0
v -9.0 28.7 -11.0
v -9.0 29.0 -10.7
v -9.0 30.0 -18.7
v -9.0 29.9 -10.0
v -9.1 30.0 -10.0
v -9.0 30.0 -9.9
v -9.5 31.0 -19.0
v -9.0 31.0 -19.4
v -9.0 30.4 -19.0
v -9.0 31.0 -9.6
v -9.0 32.0 -19.6
v -9.0 32.0 -9.4
v -9.0 33.0 -19.6
v -9.0 32.6 -9.0
v -9.0 33.0 -8.7
v -9.0 34.0 -19.6
v -9.0 34.0 -8.5
v -9.0 35.0 -19.5
v -9.0 35.0 -8.4
v -9.5 36.0 -19.0
v -9.0 36.0 -19.3
v -9.0 35.6 -8.0
v -9.0 36.0 -7.7
v -9.0 36.5 -19.0
v -9.0 37.0 -18.7
v -9.0 37.0 -7.6
v -9.6 38.0 -18.0
v -9.0 38.0 -18.5
v -9.1 38.0 -8.0
v -9.0 37.9 -8.0
v -9.0 38.0 -8.1
v -9.5 39.0 -18.0
v -9.0 39.0 -18.5
v -9.0 38.2 -8.0
v -9.0 39.0 -7.7
v -9.5 40.0 -18.0
v -9.0 40.0 -18.5
v -9.7 40.0 -7.0
v -9.0 40.0 -7.3
v -9.3 41.0 -18.0
v -9.0 41.0 -18.3
v -9.0 40.6 -7.0
v -9.0 41.0 -6.7
v -9.0 41.6 -18.0
v -9.8 42.0 -17.0
v -9.0 42.0 -17.8
v -9.6 42.0 -8.0
v -9.2 42.0 -7.0
v -9.0 42.0 -6.8
v -9.3 43.0 -18.0
v -9.0 43.0 -18.3
v -9.0 42.4 -18.0
v -9.0 42.6 -9.0
v -9.0 43.0 -9.5
v -9.0 42.4 -8.0
v -9.0 42.2 -7.0
v -9.3 44.0 -18.0
v -9.0 44.0 -18.2
v -9.0 43.6 -11.0
v -9.0 44.0 -11.5
v -9.0 43.4 -10.0
v -9.0 44.3 -18.0
v -9.0 45.0 -17.5
v -9.0 44.5 -12.0
v -9.0 45.0 -12.6
v -9.0 45.6 -17.0
v -10.0 46.0 -17.0
v -9.0 46.0 -16.6
v -9.7 46.0 -15.0
v -9.0 45.4 -13.0
v -9.0 46.0 -13.6
v -9.0 46.4 -16.0
v -9.0 46.4 -15.0
v -9.0 46.3 -14.0
v -8.3 22.0 -18.0
v -8.0 22.0 -18.4
v -8.0 21.6 -18.0
v -8.0 21.5 -17.0
v -8.0 21.7 -16.0
v -8.0 22.0 -15.7
v -8.6 23.0 -18.0
v -8.0 23.0 -18.6
v -8.0 22.6 -15.0
v -8.0 23.0 -14.6
v -8.3 24.0 -19.0
v -8.0 24.0 -19.3
v -8.0 23.5 -19.0
v -8.5 24.0 -14.0
v -8.0 24.0 -14.3
v -8.3 25.0 -19.0
v -8.0 25.0 -19.3
v -8.0 24.4 -14.0
v -8.0 25.0 -13.6
v -8.0 25.6 -19.0
v -8.7 26.0 -18.0
v -8.0 26.0 -18.8
v -8.0 26.0 -13.6
v -8.3 27.0 -19.0
v -8.0 27.0 -19.3
v -8.0 26.4 -19.0
v -8.7 27.0 -18.0
v -8.1 27.0 -14.0
v -8.0 26.9 -14.0
v -8.0 27.0 -14.1
v -8.5 28.0 -19.0
v -8.0 28.0 -19.6
v -8.0 27.1 -14.0
v -8.0 28.0 -13.5
v -8.3 29.0 -20.0
v -8.0 29.0 -20.3
v -8.0 28.5 -20.0
v -8.6 29.0 -19.0
v -8.0 28.6 -13.0
v -8.4 29.0 -12.0
v -8.0 29.0 -12.5
v -8.7 29.0 -11.0
v -8.4 30.0 -20.0
v -8.0 30.0 -20.5
v -8.8 30.0 -19.0
v -8.0 29.5 -12.0
v -8.0 30.0 -11.5
v -8.3 30.0 -11.0
v -8.9 30.0 -10.0
v -8.5 31.0 -20.0
v -8.0 31.0 -20.5
v -8.0 30.5 -11.0
v -8.0 31.0 -10.5
v -8.5 31.0 -10.0
v -8.5 32.0 -20.0
v -8.0 32.0 -20.5
v -8.0 31.6 -10.0
v -8.0 32.0 -9.7
v -8.5 33.0 -20.0
v -8.0 33.0 -20.5
v -8.6 33.0 -9.0
v -8.0 33.0 -9.4
v -8.4 34.0 -20.0
v -8.0 34.0 -20.3
v -8.0 33.6 -9.0
v -8.0 34.0 -8.8
v -8.0 34.5 -20.0
v -8.0 35.0 -19.7
v -8.0 35.0 -8.6
v -8.0 36.0 -19.6
v -8.5 36.0 -8.0
v -8.0 36.0 -8.3
v -8.6 37.0 -19.0
v -8.0 37.0 -19.4
v -8.0 36.8 -8.0
v -8.0 37.0 -7.9
v -8.5 38.0 -19.0
v -8.0 38.0 -19.4
v -8.0 37.3 -8.0
v -8.0 38.0 -8.3
v -8.5 39.0 -19.0
v -8.0 39.0 -19.4
v -8.5 39.0 -8.0
v -8.0 39.0 -8.3
v -8.4 40.0 -19.0
v -8.0 40.0 -19.3
v -8.0 39.5 -8.0
v -8.0 40.0 -7.7
v -8.0 40.5 -19.0
v -8.0 41.0 -18.7
v -8.6 41.0 -7.0
v -8.0 41.0 -7.3
v -8.8 42.0 -18.0
v -8.0 42.0 -18.5
v -8.0 41.9 -7.0
v -8.0 42.0 -6.9
v -8.0 43.0 -18.6
v -8.0 42.6 -9.0
v -8.0 43.0 -9.5
v -8.0 42.5 -8.0
v -8.0 42.1 -7.0
v -8.0 44.0 -18.5
v -8.0 43.7 -11.0
v -8.0 44.0 -11.4
v -8.0 43.4 -10.0
v -8.0 44.5 -18.0
v -8.0 45.0 -17.4
v -8.4 45.0 -13.0
v -8.0 44.8 -13.0
v -8.0 45.0 -13.3
v -8.0 44.4 -12.0
v -8.0 45.4 -17.0
v -8.0 46.0 -16.4
v -8.0 46.0 -13.7
v -8.0 46.4 -16.0
v -8.0 46.5 -15.0
v -8.0 46.2 -14.0
v -7.0 21.0 -19.0
v -7.0 21.0 -19.0
v -7.0 21.0 -19.0
v -7.0 20.3 -18.0
v -7.3 21.0 -18.0
v -7.0 21.0 -17.7
v -7.4 22.0 -19.0
v -7.0 22.0 -19.4
v -7.0 21.6 -17.0
v -7.5 22.0 -16.0
v -7.0 22.0 -16.5
v -7.6 23.0 -19.0
v -7.0 23.0 -19.5
v -7.0 22.3 -16.0
v -7.0 22.8 -15.0
v -7.0 23.0 -14.8
v -7.0 24.0 -19.6
v -7.0 24.0 -14.5
v -7.0 25.0 -19.6
v -7.0 24.5 -14.0
v -7.0 25.0 -13.6
v -7.8 26.0 -19.0
v -7.0 26.0 -19.6
v -7.0 26.0 -13.6
v -7.3 27.0 -20.0
v -7.0 27.0 -20.3
v -7.0 26.5 -20.0
v -7.0 26.8 -14.0
v -7.0 27.0 -14.1
v -7.6 28.0 -20.0
v -7.0 28.0 -20.6
v -7.0 27.3 -14.0
v -7.0 28.0 -13.7
v -7.4 29.0 -21.0
v -7.0 29.0 -21.4
v -7.0 28.5 -21.0
v -7.5 29.0 -13.0
v -7.0 29.0 -13.4
v -7.5 30.0 -21.0
v -7.0 30.0 -21.5
v -7.0 29.6 -13.0
v -7.6 30.0 -12.0
v -7.0 30.0 -12.7
v -7.5 31.0 -21.0
v -7.0 31.0 -21.5
v -7.3 31.0 -12.0
v -7.0 31.0 -12.3
v -7.6 31.0 -11.0
v -7.5 32.0 -21.0
v -7.0 32.0 -21.5
v -7.0 31.3 -12.0
v -7.0 31.7 -11.0
v -7.7 32.0 -10.0
v -7.0 32.0 -10.7
v -7.4 33.0 -21.0
v -7.0 33.0 -21.4
v -7.5 33.0 -10.0
v -7.0 33.0 -10.5
v -7.0 33.5 -21.0
v -7.0 34.0 -20.7
v -7.4 34.0 -10.0
v -7.0 34.0 -10.8
v -7.7 34.0 -9.0
v -7.6 35.0 -20.0
v -7.0 35.0 -20.5
v -7.0 34.5 -10.0
v -7.0 35.0 -9.5
v -7.4 35.0 -9.0
v -7.4 36.0 -20.0
v -7.0 36.0 -20.3
v -7.0 35.7 -9.0
v -7.0 36.0 -8.8
v -7.0 36.5 -20.0
v -7.0 37.0 -19.7
v -7.8 37.0 -8.0
v -7.0 37.0 -8.9
v -7.0 38.0 -19.5
v -7.0 38.0 -8.2
v -7.0 39.0 -19.5
v -7.0 39.0 -8.4
v -7.0 40.0 -19.6
v -7.5 40.0 -8.0
v -7.0 40.0 -8.3
v -7.6 41.0 -19.0
v -7.0 41.0 -19.5
v -7.0 40.4 -8.0
v -7.0 41.0 -7.6
v -7.5 42.0 -19.0
v -7.0 42.0 -19.5
v -7.9 42.0 -7.0
v -7.0 42.0 -7.7
v -7.5 43.0 -19.0
v -7.0 43.0 -19.4
v -7.0 42.6 -9.0
v -7.0 43.0 -9.5
v -7.0 42.3 -8.0
v -7.3 44.0 -19.0
v -7.0 44.0 -19.2
v -7.3 44.0 -11.0
v -7.0 44.0 -10.8
v -7.0 43.5 -10.0
v -7.0 44.2 -19.0
v -7.0 44.5 -18.0
v -7.4 45.0 -17.0
v -7.0 44.8 -17.0
v -7.0 45.0 -16.8
v -7.0 44.6 -13.0
v -7.0 45.0 -13.4
v -7.0 44.5 -12.0
v -7.0 44.2 -11.0
v -7.0 46.0 -16.4
v -7.6 46.0 -14.0
v -7.0 45.6 -14.0
v -7.0 46.0 -14.4
v -7.0 46.4 -16.0
v -7.0 46.4 -15.0
v -6.9 21.0 -19.0
v -6.4 21.0 -18.0
v -6.0 22.0 -19.5
v -6.0 21.4 -19.0
v -6.0 21.3 -18.0
v -6.5 22.0 -17.0
v -6.0 22.0 -17.5
v -6.3 23.0 -20.0
v -6.0 23.0 -20.2
v -6.0 22.7 -20.0
v -6.0 22.4 -17.0
v -6.0 22.8 -16.0
v -6.7 23.0 -15.0
v -6.0 23.0 -15.7
v -6.5 24.0 -20.0
v -6.0 24.0 -20.4
v -6.4 24.0 -15.0
v -6.0 24.0 -15.4
v -6.5 25.0 -20.0
v -6.0 25.0 -20.4
v -6.0 24.3 -15.0
v -6.0 24.8 -14.0
v -6.0 25.0 -13.8
v -6.6 26.0 -20.0
v -6.0 26.0 -20.4
v -6.0 26.0 -13.6
v -6.0 27.0 -20.7
v -6.6 27.0 -14.0
v -6.0 27.0 -13.8
v -6.5 28.0 -21.0
v -6.0 28.0 -21.4
v -6.0 27.5 -21.0
v -6.0 28.0 -14.4
v -6.6 28.0 -14.0
v -6.0 27.3 -14.0
v -6.3 29.0 -22.0
v -6.0 29.0 -22.2
v -6.0 28.7 -22.0
v -6.5 29.0 -14.0
v -6.0 29.0 -14.5
v -6.5 30.0 -22.0
v -6.0 30.0 -22.4
v -6.3 30.0 -14.0
v -6.0 30.0 -14.3
v -6.7 30.0 -13.0
v -6.5 31.0 -22.0
v -6.0 31.0 -22.5
v -6.0 30.4 -14.0
v -6.0 31.0 -13.5
v -6.4 31.0 -13.0
v -6.5 32.0 -22.0
v -6.0 32.0 -22.5
v -6.0 31.5 -13.0
v -6.3 32.0 -12.0
v -6.0 32.0 -12.4
v -6.7 32.0 -11.0
v -6.4 33.0 -22.0
v -6.0 33.0 -22.4
v -6.0 32.3 -12.0
v -6.0 32.7 -11.0
v -6.0 33.0 -10.8
v -6.0 33.5 -22.0
v -6.7 34.0 -21.0
v -6.0 34.0 -21.6
v -6.0 34.0 -10.8
v -6.4 35.0 -21.0
v -6.0 35.0 -21.3
v -6.6 35.0 -10.0
v -6.0 35.0 -10.9
v -6.0 35.5 -21.0
v -6.0 36.0 -20.7
v -6.0 35.6 -10.0
v -6.7 36.0 -9.0
v -6.0 36.0 -9.6
v -6.5 37.0 -20.0
v -6.0 37.0 -20.3
v -6.0 37.0 -9.0
v -6.0 37.0 -9.0
v -6.0 37.5 -20.0
v -6.0 38.0 -19.7
v -6.0 38.0 -9.0
v -6.0 38.0 -9.0
v -6.0 39.0 -19.7
v -6.0 38.0 -9.0
v -6.0 39.0 -8.6
v -6.4 40.0 -20.0
v -6.0 40.0 -20.4
v -6.0 39.5 -20.0
v -6.0 40.0 -8.4
v -6.5 41.0 -20.0
v -6.0 41.0 -20.4
v -6.0 40.8 -8.0
v -6.0 41.0 -7.9
v -6.4 42.0 -20.0
v -6.0 42.0 -20.3
v -6.6 42.0 -8.0
v -6.0 41.2 -8.0
v -6.0 42.0 -8.4
v -6.0 42.5 -20.0
v -6.0 43.0 -19.7
v -6.0 42.5 -9.0
v -6.0 43.0 -9.5
v -6.0 44.0 -19.4
v -6.7 44.0 -11.0
v -6.0 43.6 -11.0
v -6.0 44.0 -11.4
v -6.0 43.4 -10.0
v -6.0 44.4 -19.0
v -6.0 44.5 -18.0
v -6.0 44.8 -17.0
v -6.0 45.0 -16.8
v -6.0 44.6 -13.0
v -6.0 45.0 -13.5
v -6.0 44.4 -12.0
v -6.0 46.0 -16.3
v -6.0 45.5 -14.0
v -6.0 46.0 -14.6
v -6.0 46.3 -16.0
v -6.0 46.3 -15.0
v -5.4 21.0 -19.0
v -5.0 21.0 -19.3
v -5.0 20.7 -19.0
v -5.0 20.4 -18.0
v -5.2 21.0 -18.0
v -5.0 21.0 -17.9
v -5.0 22.0 -19.5
v -5.4 22.0 -18.0
v -5.0 22.0 -18.4
v -5.0 21.2 -18.0
v -5.0 23.0 -20.4
v -5.0 22.4 -20.0
v -5.0 22.4 -18.0
v -5.5 23.0 -17.0
v -5.0 23.0 -17.6
v -5.8 23.0 -16.0
v -5.0 24.0 -20.5
v -5.3 24.0 -17.0
v -5.0 24.0 -17.3
v -5.5 24.0 -16.0
v -5.0 25.0 -20.5
v -5.0 24.3 -17.0
v -5.0 24.6 -16.0
v -5.4 25.0 -15.0
v -5.0 25.0 -15.5
v -5.7 25.0 -14.0
v -5.0 26.0 -20.6
v -5.0 25.4 -15.0
v -5.0 25.9 -14.0
v -5.0 26.0 -13.9
v -5.5 27.0 -21.0
v -5.0 27.0 -21.3
v -5.0 26.6 -21.0
v -5.7 27.0 -14.0
v -5.0 26.1 -14.0
v -5.0 27.0 -14.6
v -5.0 28.0 -21.6
v -5.4 28.0 -15.0
v -5.0 27.5 -15.0
v -5.0 28.0 -15.4
v -5.0 29.0 -22.4
v -5.0 28.5 -22.0
v -5.5 29.0 -15.0
v -5.0 29.0 -15.4
v -5.0 30.0 -22.6
v -5.4 30.0 -15.0
v -5.0 30.0 -15.4
v -5.3 31.0 -23.0
v -5.0 31.0 -23.3
v -5.0 30.6 -23.0
v -5.0 30.4 -15.0
v -5.5 31.0 -14.0
v -5.0 31.0 -14.5
v -5.5 32.0 -23.0
v -5.0 32.0 -23.5
v -5.0 31.5 -14.0
v -5.4 32.0 -13.0
v -5.0 32.0 -13.4
v -5.4 33.0 -23.0
v -5.0 33.0 -23.4
v -5.0 32.3 -13.0
v -5.0 32.9 -12.0
v -5.8 33.0 -11.0
v -5.0 33.0 -11.8
v -5.0 33.5 -23.0
v -5.5 34.0 -22.0
v -5.0 34.0 -22.6
v -5.0 34.0 -12.0
v -5.0 33.8 -12.0
v -5.0 34.0 -12.0
v -5.8 34.0 -11.0
v -5.0 34.6 -22.0
v -5.0 35.0 -21.7
v -5.0 34.0 -12.0
v -5.0 35.0 -11.1
v -5.5 35.0 -11.0
v -5.5 36.0 -21.0
v -5.0 36.0 -21.4
v -5.2 36.0 -11.0
v -5.0 36.0 -11.2
v -5.7 36.0 -10.0
v -5.0 36.6 -21.0
v -5.0 37.0 -20.7
v -5.0 36.3 -11.0
v -5.0 37.0 -10.4
v -5.3 37.0 -10.0
v -5.6 38.0 -20.0
v -5.0 38.0 -20.5
v -5.0 37.4 -10.0
v -5.0 38.0 -9.1
v -5.7 39.0 -20.0
v -5.0 39.0 -20.6
v -5.3 39.0 -9.0
v -5.0 39.0 -9.2
v -5.1 40.0 -21.0
v -5.0 40.0 -21.1
v -5.0 39.8 -21.0
v -5.0 39.2 -9.0
v -5.0 40.0 -8.6
v -5.0 40.2 -21.0
v -5.0 41.0 -20.6
v -5.8 41.0 -8.0
v -5.0 41.0 -8.4
v -5.0 42.0 -20.5
v -5.0 42.0 -8.6
v -5.6 43.0 -20.0
v -5.0 43.0 -20.4
v -5.0 42.5 -9.0
v -5.0 43.0 -9.6
v -5.1 44.0 -20.0
v -5.0 44.0 -20.1
v -5.0 43.3 -11.0
v -5.0 44.0 -11.5
v -5.0 43.3 -10.0
v -5.0 44.1 -20.0
v -5.0 44.5 -19.0
v -5.0 44.7 -18.0
v -5.6 45.0 -17.0
v -5.0 45.0 -17.5
v -5.0 44.7 -13.0
v -5.0 45.0 -13.4
v -5.0 44.4 -12.0
v -5.0 45.4 -17.0
v -5.0 46.0 -16.3
v -5.5 46.0 -15.0
v -5.0 45.7 -15.0
v -5.0 46.0 -15.6
v -5.0 45.4 -14.0
v -5.0 46.2 -16.0
v -4.0 21.0 -20.0
v -4.0 21.0 -20.0
v -4.0 21.0 -20.0
v -4.0 20.5 -19.0
v -4.9 21.0 -18.0
v -4.0 21.0 -18.8
v -4.5 22.0 -20.0
v -4.0 22.0 -20.3
v -4.0 21.5 -19.0
v -4.0 22.0 -19.4
v -4.3 22.0 -19.0
v -4.0 23.0 -20.5
v -4.0 22.2 -19.0
v -4.6 23.0 -18.0
v -4.0 23.0 -18.5
v -4.0 24.0 -20.5
v -4.5 24.0 -18.0
v -4.0 24.0 -18.4
v -4.0 25.0 -20.4
v -4.4 25.0 -18.0
v -4.0 25.0 -18.4
v -4.5 25.0 -17.0
v -4.7 25.0 -16.0
v -4.0 26.0 -20.5
v -4.0 26.0 -18.0
v -4.0 26.0 -18.0
v -4.0 26.0 -17.8
v -4.0 25.8 -17.0
v -4.0 26.0 -16.8
v -4.4 26.0 -16.0
v -4.6 26.0 -15.0
v -4.9 26.0 -14.0
v -4.0 27.0 -21.4
v -4.0 26.5 -21.0
v -4.0 26.0 -18.0
v -4.4 27.0 -16.0
v -4.0 27.0 -16.5
v -4.7 27.0 -15.0
v -4.0 28.0 -21.7
v -4.4 28.0 -16.0
v -4.0 28.0 -16.4
v -4.0 29.0 -22.4
v -4.0 28.4 -22.0
v -4.0 28.9 -16.0
v -4.0 29.0 -15.9
v -4.0 30.0 -22.7
v -4.1 30.0 -18.0
v -4.0 29.5 -18.0
v -4.0 30.0 -18.1
v -4.2 30.0 -17.0
v -4.0 29.6 -17.0
v -4.4 30.0 -16.0
v -4.0 29.1 -16.0
v -4.0 31.0 -23.5
v -4.0 30.4 -23.0
v -4.0 30.2 -18.0
v -4.0 30.3 -17.0
v -4.0 30.5 -16.0
v -4.5 31.0 -15.0
v -4.0 31.0 -15.5
v -4.3 32.0 -24.0
v -4.0 32.0 -24.2
v -4.0 31.7 -24.0
v -4.0 31.5 -15.0
v -4.5 32.0 -14.0
v -4.0 32.0 -14.5
v -4.4 33.0 -24.0
v -4.0 33.0 -24.4
v -4.0 32.4 -14.0
v -4.0 32.8 -13.0
v -4.8 33.0 -12.0
v -4.0 33.0 -12.8
v -4.3 34.0 -24.0
v -4.0 34.0 -24.2
v -4.7 34.0 -23.0
v -4.0 34.0 -12.5
v -4.0 34.4 -24.0
v -4.3 35.0 -23.0
v -4.0 35.0 -23.4
v -4.7 35.0 -22.0
v -4.0 34.8 -12.0
v -4.0 35.0 -11.9
v -4.0 35.5 -23.0
v -4.5 36.0 -22.0
v -4.0 36.0 -22.6
v -4.2 36.0 -12.0
v -4.0 35.3 -12.0
v -4.0 36.0 -12.2
v -4.3 37.0 -22.0
v -4.0 37.0 -22.3
v -4.7 37.0 -21.0
v -4.0 36.4 -12.0
v -4.5 37.0 -11.0
v -4.0 37.0 -11.6
v -4.0 37.4 -22.0
v -4.5 38.0 -21.0
v -4.0 38.0 -21.6
v -4.0 37.5 -11.0
v -4.4 38.0 -10.0
v -4.0 38.0 -10.5
v -4.6 39.0 -21.0
v -4.0 39.0 -21.5
v -4.0 38.4 -10.0
v -4.0 39.0 -9.3
v -4.0 40.0 -21.4
v -4.0 39.4 -9.0
v -4.0 40.0 -8.5
v -4.0 40.5 -21.0
v -4.0 41.0 -20.6
v -4.0 41.0 -8.5
v -4.0 42.0 -20.5
v -4.0 42.0 -8.7
v -4.0 43.0 -20.4
v -4.0 42.4 -9.0
v -4.0 43.0 -9.5
v -4.0 43.6 -20.0
v -4.9 44.0 -20.0
v -4.0 44.0 -19.6
v -4.4 44.0 -11.0
v -4.0 44.0 -10.7
v -4.0 43.4 -10.0
v -4.0 44.5 -19.0
v -4.3 45.0 -18.0
v -4.0 45.0 -18.2
v -4.5 45.0 -13.0
v -4.0 45.0 -12.6
v -4.0 44.6 -12.0
v -4.0 44.3 -11.0
v -4.0 45.2 -18.0
v -4.0 45.5 -17.0
v -4.0 46.0 -16.0
v -4.0 45.5 -15.0
v -4.0 46.0 -16.0
v -4.0 45.5 -14.0
v -4.0 45.3 -13.0
v -4.0 46.0 -16.0
v -4.0 21.0 -20.0
v -3.8 21.0 -19.0
v -3.0 22.0 -20.5
v -3.0 21.8 -20.0
v -3.0 22.0 -19.8
v -3.0 23.0 -20.4
v -3.0 22.7 -19.0
v -3.0 23.0 -18.8
v -3.0 24.0 -20.2
v -3.0 24.0 -18.8
v -3.0 24.3 -20.0
v -3.5 25.0 -20.0
v -3.4 25.0 -19.0
v -3.0 24.4 -19.0
v -3.3 26.0 -20.0
v -3.0 26.0 -19.6
v -3.0 25.5 -19.0
v -3.0 26.0 -18.6
v -3.9 26.0 -17.0
v -3.0 27.0 -21.4
v -3.0 26.6 -21.0
v -3.0 26.2 -20.0
v -3.0 26.5 -18.0
v -3.5 27.0 -17.0
v -3.0 27.0 -17.5
v -3.5 28.0 -22.0
v -3.0 28.0 -22.3
v -3.0 27.6 -22.0
v -3.4 28.0 -17.0
v -3.0 28.0 -17.3
v -3.0 29.0 -22.6
v -3.6 29.0 -17.0
v -3.0 29.0 -17.8
v -3.9 29.0 -16.0
v -3.5 30.0 -23.0
v -3.0 30.0 -23.3
v -3.0 29.6 -23.0
v -3.0 29.3 -18.0
v -3.0 30.0 -18.4
v -3.0 31.0 -23.6
v -3.3 31.0 -18.0
v -3.0 31.0 -18.3
v -3.5 31.0 -17.0
v -3.6 31.0 -16.0
v -3.0 32.0 -24.4
v -3.0 31.5 -24.0
v -3.0 31.2 -18.0
v -3.0 31.4 -17.0
v -3.0 31.6 -16.0
v -3.5 32.0 -15.0
v -3.0 32.0 -15.6
v -3.0 33.0 -24.5
v -3.3 33.0 -15.0
v -3.0 33.0 -15.9
v -3.6 33.0 -14.0
v -3.8 33.0 -13.0
v -3.0 34.0 -24.5
v -3.0 33.4 -15.0
v -3.0 34.0 -14.4
v -3.3 34.0 -14.0
v -3.6 34.0 -13.0
v -3.4 35.0 -24.0
v -3.0 35.0 -24.3
v -3.3 35.0 -14.0
v -3.0 35.0 -14.3
v -3.5 35.0 -13.0
v -3.9 35.0 -12.0
v -3.0 35.3 -24.0
v -3.5 36.0 -23.0
v -3.0 36.0 -23.4
v -3.0 36.0 -14.0
v -3.0 36.0 -14.0
v -3.5 36.0 -13.0
v -3.0 36.4 -23.0
v -3.0 37.0 -22.6
v -3.1 37.0 -14.0
v -3.0 36.1 -14.0
v -3.0 37.0 -14.2
v -3.4 37.0 -13.0
v -3.7 37.0 -12.0
v -3.6 38.0 -22.0
v -3.0 38.0 -22.4
v -3.0 37.1 -14.0
v -3.0 37.5 -13.0
v -3.0 38.0 -12.4
v -3.3 38.0 -12.0
v -3.6 38.0 -11.0
v -3.2 39.0 -22.0
v -3.0 39.0 -22.1
v -3.0 38.3 -12.0
v -3.0 38.5 -11.0
v -3.0 38.6 -10.0
v -3.0 38.9 -9.0
v -3.1 39.0 -9.0
v -3.0 39.0 -8.9
v -3.0 39.2 -22.0
v -3.0 40.0 -21.5
v -3.0 40.0 -8.2
v -3.0 40.5 -21.0
v -3.0 41.0 -20.6
v -3.0 41.0 -8.7
v -3.0 42.0 -20.5
v -3.6 42.0 -9.0
v -3.0 41.5 -9.0
v -3.0 42.0 -9.4
v -3.0 43.0 -20.4
v -3.0 43.0 -9.7
v -3.0 43.5 -20.0
v -3.0 44.0 -19.5
v -3.0 43.3 -10.0
v -3.0 44.0 -10.7
v -3.0 44.4 -19.0
v -3.7 45.0 -18.0
v -3.0 44.7 -18.0
v -3.0 45.0 -17.5
v -3.2 45.0 -16.0
v -3.0 44.8 -16.0
v -3.0 45.0 -16.4
v -3.3 45.0 -15.0
v -3.0 44.8 -15.0
v -3.0 45.0 -14.7
v -3.0 44.6 -12.0
v -3.0 45.0 -12.5
v -3.0 44.3 -11.0
v -3.0 45.3 -17.0
v -4.0 46.0 -16.0
v -3.0 45.4 -14.0
v -3.0 45.5 -13.0
v -2.8 22.0 -20.0
v -2.7 23.0 -20.0
v -2.8 23.0 -19.0
v -2.8 24.0 -20.0
v -2.8 24.0 -19.0
v -2.0 26.0 -19.3
v -2.0 25.8 -19.0
v -2.0 26.0 -18.7
v -2.0 27.0 -21.3
v -2.0 26.8 -21.0
v -2.0 26.5 -20.0
v -2.0 26.5 -18.0
v -2.0 27.0 -17.5
v -2.0 28.0 -22.3
v -2.0 27.6 -22.0
v -2.0 27.9 -17.0
v -2.2 28.0 -17.0
v -2.0 28.0 -16.9
v -2.0 29.0 -22.5
v -2.1 29.0 -19.0
v -2.0 28.8 -19.0
v -2.0 29.0 -19.1
v -2.7 29.0 -18.0
v -2.0 28.6 -18.0
v -2.0 28.1 -17.0
v -2.0 30.0 -23.4
v -2.0 29.5 -23.0
v -2.0 29.4 -19.0
v -2.0 30.0 -18.8
v -2.0 31.0 -23.6
v -2.1 31.0 -19.0
v -2.0 30.7 -19.0
v -2.0 31.0 -19.1
v -2.0 32.0 -24.4
v -2.0 31.5 -24.0
v -2.0 31.1 -19.0
v -2.0 31.5 -18.0
v -2.0 31.6 -17.0
v -2.0 31.8 -16.0
v -2.0 32.0 -15.6
v -2.0 33.0 -24.5
v -2.9 33.0 -16.0
v -2.0 32.3 -16.0
v -2.0 33.0 -16.4
v -2.0 34.0 -24.5
v -2.0 33.5 -16.0
v -2.0 33.6 -15.0
v -2.0 34.0 -14.4
v -2.0 35.0 -24.2
v -2.0 35.0 -14.7
v -2.0 35.3 -24.0
v -2.0 36.0 -23.3
v -2.8 36.0 -15.0
v -2.0 35.4 -15.0
v -2.0 36.0 -15.4
v -3.0 36.0 -14.0
v -2.0 36.4 -23.0
v -2.0 37.0 -22.6
v -2.4 37.0 -15.0
v -2.0 37.0 -15.3
v -2.0 38.0 -22.4
v -2.0 37.4 -15.0
v -2.0 37.7 -14.0
v -2.0 37.9 -13.0
v -2.0 38.0 -12.8
v -2.0 38.6 -22.0
v -2.7 39.0 -22.0
v -2.0 39.0 -21.7
v -2.1 39.0 -14.0
v -2.0 38.8 -14.0
v -2.0 39.0 -14.1
v -2.2 39.0 -13.0
v -2.0 38.4 -13.0
v -2.4 39.0 -12.0
v -2.5 39.0 -11.0
v -2.5 39.0 -10.0
v -2.9 39.0 -9.0
v -2.0 40.0 -21.4
v -2.0 39.1 -14.0
v -2.0 39.4 -13.0
v -2.0 39.5 -12.0
v -2.0 39.5 -11.0
v -2.0 39.5 -10.0
v -2.0 40.0 -9.4
v -2.4 40.0 -9.0
v -2.0 40.5 -21.0
v -2.0 41.0 -20.6
v -2.6 41.0 -9.0
v -2.0 41.0 -9.5
v -2.0 42.0 -20.5
v -2.4 42.0 -10.0
v -2.0 41.6 -10.0
v -2.0 42.0 -10.5
v -2.0 43.0 -20.4
v -2.7 43.0 -10.0
v -2.0 43.0 -10.7
v -2.0 43.6 -20.0
v -2.0 44.0 -19.5
v -2.6 44.0 -11.0
v -2.0 43.4 -11.0
v -2.0 44.0 -11.5
v -2.0 44.4 -19.0
v -2.0 44.5 -18.0
v -2.0 45.0 -17.1
v -2.0 44.7 -16.0
v -2.0 45.0 -16.8
v -2.0 44.8 -15.0
v -2.0 45.0 -14.7
v -2.0 44.5 -12.0
v -2.0 45.0 -12.3
v -2.0 45.1 -17.0
v -2.0 45.6 -14.0
v -2.1 46.0 -13.0
v -2.0 46.0 -13.1
v -2.0 46.0 -12.9
v -2.0 46.1 -13.0
v -1.5 26.0 -19.0
v -1.8 27.0 -21.0
v -1.6 27.0 -20.0
v -1.4 27.0 -19.0
v -1.0 26.7 -18.0
v -1.0 27.0 -18.4
v -1.0 27.0 -17.0
v -1.3 28.0 -22.0
v -1.4 28.0 -21.0
v -1.5 28.0 -20.0
v -1.5 28.0 -19.0
v -1.0 28.0 -18.3
v -1.0 27.0 -17.0
v -1.0 28.0 -16.9
v -1.3 29.0 -22.0
v -1.0 29.0 -21.5
v -1.0 28.7 -21.0
v -1.0 29.0 -20.7
v -1.4 29.0 -20.0
v -1.0 28.2 -18.0
v -1.0 28.1 -17.0
v -1.0 30.0 -23.2
v -1.0 29.8 -23.0
v -1.0 29.3 -22.0
v -1.0 29.6 -20.0
v -1.8 30.0 -19.0
v -1.0 30.0 -19.7
v -1.0 31.0 -23.6
v -1.0 31.0 -19.5
v -1.0 32.0 -24.4
v -1.0 31.5 -24.0
v -1.0 31.5 -19.0
v -1.0 31.6 -18.0
v -1.0 31.9 -17.0
v -1.8 32.0 -16.0
v -1.0 32.0 -16.9
v -1.0 33.0 -24.5
v -1.5 33.0 -17.0
v -1.0 32.2 -17.0
v -1.0 33.0 -17.4
v -1.0 34.0 -24.2
v -1.9 34.0 -17.0
v -1.0 34.0 -17.6
v -1.7 34.0 -16.0
v -1.7 34.0 -15.0
v -1.0 34.3 -24.0
v -1.7 35.0 -24.0
v -1.3 35.0 -23.0
v -1.0 34.7 -23.0
v -1.0 35.0 -22.6
v -1.3 35.0 -17.0
v -1.0 35.0 -17.4
v -1.4 35.0 -16.0
v -1.7 35.0 -15.0
v -1.6 36.0 -23.0
v -1.0 36.0 -22.5
v -1.0 35.5 -17.0
v -1.0 35.7 -16.0
v -1.0 36.0 -15.8
v -1.0 37.0 -22.5
v -1.1 37.0 -18.0
v -1.0 36.9 -18.0
v -1.0 37.0 -18.1
v -1.3 37.0 -17.0
v -1.0 36.5 -17.0
v -1.0 37.0 -16.1
v -1.0 37.0 -15.9
v -1.0 38.0 -22.4
v -1.0 37.2 -18.0
v -1.0 38.0 -17.6
v -1.7 38.0 -17.0
v -1.0 37.1 -16.0
v -1.5 38.0 -16.0
v -1.6 38.0 -15.0
v -1.7 38.0 -14.0
v -1.6 38.0 -13.0
v -1.0 38.5 -22.0
v -1.0 39.0 -21.4
v -1.1 39.0 -19.0
v -1.0 38.9 -19.0
v -1.0 39.0 -19.7
v -1.0 39.0 -18.9
v -1.0 38.7 -17.0
v -1.0 39.0 -16.7
v -1.4 39.0 -16.0
v -1.6 39.0 -15.0
v -1.0 40.0 -21.2
v -1.0 39.1 -19.0
v -1.0 40.0 -18.2
v -1.1 40.0 -18.0
v -1.0 39.7 -18.0
v -1.0 40.0 -17.7
v -1.3 40.0 -16.0
v -1.0 40.0 -16.5
v -1.4 40.0 -15.0
v -1.6 40.0 -14.0
v -1.7 40.0 -13.0
v -1.6 40.0 -12.0
v -1.5 40.0 -11.0
v -1.0 40.0 -10.4
v -1.0 39.7 -10.0
v -1.0 40.0 -9.0
v -1.0 40.0 -9.0
v -1.0 40.0 -9.0
v -1.0 40.3 -21.0
v -1.0 41.0 -20.4
v -1.2 41.0 -18.0
v -1.0 41.0 -18.5
v -1.0 41.0 -17.6
v -1.0 40.4 -16.0
v -1.0 40.7 -15.0
v -1.0 41.0 -14.7
v -1.5 41.0 -14.0
v -2.0 41.0 -13.0
v -1.7 41.0 -12.0
v -1.4 41.0 -11.0
v -1.0 41.0 -10.1
v -1.0 40.0 -9.0
v -1.0 41.0 -9.9
v -1.0 42.0 -20.2
v -1.2 42.0 -19.0
v -1.0 41.7 -19.0
v -1.0 42.0 -19.4
v -1.3 42.0 -18.0
v -1.0 42.0 -17.5
v -1.3 42.0 -14.0
v -1.0 42.0 -14.4
v -1.6 42.0 -13.0
v -2.0 42.0 -12.0
v -1.7 42.0 -11.0
v -1.0 41.1 -10.0
v -1.0 43.0 -20.3
v -1.0 42.3 -19.0
v -1.0 43.0 -18.5
v -1.3 43.0 -18.0
v -1.0 43.0 -17.5
v -1.0 42.4 -14.0
v -1.0 43.0 -13.5
v -1.3 43.0 -13.0
v -1.6 43.0 -12.0
v -1.8 43.0 -11.0
v -1.0 44.0 -20.0
v -1.0 44.0 -20.0
v -1.5 44.0 -18.0
v -1.0 44.0 -18.8
v -1.0 43.5 -17.0
v -1.3 44.0 -17.0
v -1.0 44.0 -16.6
v -1.0 43.5 -13.0
v -1.0 44.0 -12.6
v -1.5 44.0 -12.0
v -1.0 44.2 -19.0
v -1.9 45.0 -17.0
v -1.5 45.0 -16.0
v -1.0 45.0 -16.3
v -1.8 45.0 -15.0
v -1.0 45.0 -12.1
v -1.0 45.9 -16.0
v -1.3 46.0 -15.0
v -1.0 46.0 -15.9
v -1.5 46.0 -14.0
v -1.0 46.0 -12.6
v -1.0 46.3 -15.0
v -1.0 46.4 -14.0
v -1.0 46.3 -13.0
v -0.8 27.0 -18.0
v -0.8 28.0 -18.0
v -0.9 28.0 -17.0
v -0.8 29.0 -21.0
v -0.7 30.0 -23.0
v -0.5 30.0 -22.0
v -0.4 30.0 -21.0
v -0.7 30.0 -20.0
v 0.0 31.0 -23.3
v 0.0 30.7 -23.0
v 0.0 30.5 -22.0
v 0.0 30.6 -21.0
v 0.0 31.0 -20.6
v -0.5 31.0 -20.0
v 0.0 32.0 -24.2
v 0.0 31.7 -24.0
v -0.4 32.0 -20.0
v 0.0 32.0 -20.4
v -0.5 32.0 -19.0
v -0.2 32.0 -18.0
v -0.9 32.0 -17.0
v 0.0 33.0 -24.2
v -0.4 33.0 -20.0
v 0.0 33.0 -20.6
v -0.5 33.0 -19.0
v -0.5 33.0 -18.0
v 0.0 33.3 -24.0
v -0.7 34.0 -24.0
v -0.5 34.0 -23.0
v 0.0 33.5 -23.0
v -0.4 34.0 -22.0
v 0.0 33.5 -22.0
v -0.4 34.0 -21.0
v 0.0 33.4 -21.0
v -0.6 34.0 -20.0
v -0.5 34.0 -19.0
v -0.6 34.0 -18.0
v -0.6 35.0 -22.0
v -0.6 35.0 -21.0
v -0.9 35.0 -20.0
v -0.6 35.0 -19.0
v -0.5 35.0 -18.0
v -0.5 36.0 -22.0
v -0.5 36.0 -21.0
v -0.6 36.0 -20.0
v -0.5 36.0 -19.0
v -0.2 36.0 -18.0
v -0.7 36.0 -17.0
v -0.8 36.0 -16.0
v 0.0 37.0 -22.1
v 0.0 36.9 -22.0
v 0.0 37.0 -21.9
v -0.3 37.0 -21.0
v -0.4 37.0 -20.0
v -0.5 37.0 -19.0
v -0.9 37.0 -16.0
v 0.0 38.0 -22.1
v 0.0 37.6 -21.0
v 0.0 37.7 -20.0
v 0.0 38.0 -19.0
v -0.7 38.0 -18.0
v 0.0 38.0 -19.0
v 0.0 38.1 -22.0
v -0.6 39.0 -21.0
v 0.0 38.3 -21.0
v -1.0 39.0 -20.0
v 0.0 38.3 -20.0
v 0.0 38.0 -19.0
v -0.7 39.0 -18.0
v -0.8 39.0 -17.0
v -0.8 40.0 -21.0
v -0.2 40.0 -20.0
v -0.6 40.0 -19.0
v -0.7 40.0 -17.0
v 0.0 40.0 -10.1
v 0.0 39.9 -10.0
v -1.0 40.0 -9.0
v 0.0 40.0 -9.3
v -0.6 41.0 -20.0
v -0.7 41.0 -19.0
v -0.6 41.0 -17.0
v -0.6 41.0 -16.0
v -0.7 41.0 -15.0
v 0.0 40.1 -10.0
v -0.9 41.0 -10.0
v -0.8 42.0 -20.0
v -0.6 42.0 -17.0
v -0.5 42.0 -16.0
v -0.5 42.0 -15.0
v -0.7 43.0 -20.0
v -0.7 43.0 -19.0
v -0.7 43.0 -17.0
v -0.4 43.0 -16.0
v 0.0 43.0 -15.3
v 0.0 42.7 -15.0
v -0.6 43.0 -14.0
v 0.0 43.0 -14.7
v -0.8 44.0 -19.0
v -0.5 44.0 -16.0
v 0.0 44.0 -15.4
v -0.4 44.0 -14.0
v 0.0 44.0 -14.6
v -0.7 44.0 -13.0
v -0.7 45.0 -16.0
v 0.0 45.0 -15.5
v -0.2 45.0 -14.0
v 0.0 45.0 -14.3
v -0.5 45.0 -13.0
v 0.0 46.0 -15.3
v 0.0 45.4 -14.0
v 0.0 46.0 -13.0
v 0.0 46.0 -13.0
v 0.0 46.2 -15.0
v 0.0 46.3 -14.0
v 0.0 46.0 -13.0
v 0.2 31.0 -23.0
v 0.4 31.0 -22.0
v 0.3 31.0 -21.0
v 0.2 32.0 -24.0
v 0.5 32.0 -23.0
v 0.6 32.0 -22.0
v 0.8 32.0 -21.0
v 0.2 33.0 -24.0
v 0.4 33.0 -23.0
v 0.4 33.0 -22.0
v 0.3 33.0 -21.0
v 0.1 37.0 -22.0
v 0.1 38.0 -22.0
v 0.2 38.0 -21.0
v 0.2 38.0 -20.0
v 0.0 38.0 -19.0
v 0.3 40.0 -10.0
v 0.5 43.0 -15.0
v 0.4 44.0 -15.0
v 0.7 45.0 -15.0
v 0.3 46.0 -15.0
v 0.7 46.0 -14.0
v 0.0 46.0 -13.0
f 3 2 1
f 5 4 1
f 1 4 3
f 7 6 5
f 5 6 4
f 7 8 6
f 1 2 9
f 9 2 10
f 1 11 5
f 1 9 11
f 5 12 7
f 5 11 12
f 8 7 13
f 13 7 12
f 10 14 9
f 9 14 11
f 11 14 15
f 11 15 12
f 12 15 16
f 12 16 13
f 19 18 17
f 21 20 17
f 17 20 19
f 21 22 20
f 17 18 3
f 18 2 3
f 18 23 2
f 17 3 4
f 17 4 21
f 24 22 21
f 4 24 21
f 6 24 4
f 6 8 24
f 24 8 25
f 27 10 26
f 10 23 26
f 10 2 23
f 28 27 26
f 13 25 8
f 13 29 25
f 27 14 10
f 28 30 27
f 30 14 27
f 30 15 14
f 15 31 16
f 30 31 15
f 13 16 29
f 29 16 31
f 34 33 32
f 36 35 32
f 32 35 34
f 36 37 35
f 40 39 38
f 38 41 40
f 44 43 42
f 44 42 33
f 42 32 33
f 42 45 32
f 32 46 36
f 32 45 46
f 37 36 47
f 36 48 47
f 36 46 48
f 48 49 47
f 38 39 50
f 50 39 51
f 41 38 52
f 52 38 50
f 43 53 42
f 42 53 45
f 45 53 54
f 45 54 46
f 46 54 55
f 56 18 19
f 46 56 19
f 48 46 19
f 55 56 46
f 57 49 48
f 19 57 48
f 20 57 19
f 20 22 57
f 57 22 58
f 51 59 50
f 62 61 60
f 50 59 52
f 64 63 61
f 61 63 60
f 64 65 63
f 67 23 66
f 23 56 66
f 23 18 56
f 68 67 66
f 22 24 69
f 70 22 69
f 58 22 70
f 25 69 24
f 62 71 61
f 61 71 64
f 64 71 72
f 64 72 65
f 67 26 23
f 74 73 28
f 74 28 26
f 68 74 26
f 67 68 26
f 73 74 70
f 69 73 70
f 75 73 69
f 29 75 25
f 25 75 69
f 73 30 28
f 30 73 31
f 31 73 75
f 31 75 29
f 78 77 76
f 76 79 78
f 82 81 80
f 80 83 82
f 86 85 84
f 86 84 77
f 84 76 77
f 84 87 76
f 79 76 88
f 88 76 87
f 80 81 89
f 89 81 90
f 83 80 91
f 80 92 91
f 80 89 92
f 92 93 91
f 84 85 94
f 94 85 95
f 84 96 87
f 84 94 96
f 88 87 97
f 87 98 97
f 87 96 98
f 98 99 97
f 89 90 100
f 100 90 101
f 89 102 92
f 89 100 102
f 93 92 103
f 103 92 102
f 94 95 104
f 104 95 105
f 94 106 96
f 94 104 106
f 96 107 98
f 96 106 107
f 99 98 108
f 98 109 108
f 98 107 109
f 109 110 108
f 100 101 111
f 111 101 112
f 100 113 102
f 100 111 113
f 103 102 114
f 102 115 114
f 102 113 115
f 114 115 105
f 115 104 105
f 115 116 104
f 104 117 106
f 104 116 117
f 106 118 107
f 106 117 118
f 107 119 109
f 107 118 119
f 110 109 120
f 109 121 120
f 109 119 121
f 121 122 120
f 111 112 123
f 123 112 124
f 111 125 113
f 111 123 125
f 113 126 115
f 113 125 126
f 115 127 116
f 115 126 127
f 116 128 117
f 116 127 128
f 117 129 118
f 117 128 129
f 129 33 34
f 119 129 34
f 118 129 119
f 119 34 35
f 119 35 121
f 131 130 37
f 37 130 35
f 130 122 35
f 122 121 35
f 131 132 130
f 123 124 133
f 133 124 134
f 123 135 125
f 123 133 135
f 135 39 40
f 126 135 40
f 125 135 126
f 126 40 41
f 136 126 41
f 127 126 136
f 127 137 128
f 127 136 137
f 137 43 44
f 129 137 44
f 128 137 129
f 129 44 33
f 47 131 37
f 47 49 131
f 49 132 131
f 49 138 132
f 134 139 133
f 141 140 139
f 140 133 139
f 140 135 133
f 140 51 39
f 140 39 135
f 52 142 136
f 52 136 41
f 136 143 137
f 136 142 143
f 144 53 43
f 137 144 43
f 143 144 137
f 53 144 145
f 146 53 145
f 54 53 146
f 54 147 55
f 146 147 54
f 56 55 147
f 56 147 148
f 49 57 149
f 150 49 149
f 138 49 150
f 58 149 57
f 141 151 140
f 151 153 152
f 151 152 59
f 140 151 59
f 51 140 59
f 152 52 59
f 152 142 52
f 152 62 60
f 142 152 60
f 142 60 63
f 142 63 143
f 143 63 65
f 154 143 65
f 144 143 154
f 145 144 155
f 155 144 154
f 148 156 56
f 56 156 66
f 149 157 68
f 156 149 68
f 66 156 68
f 150 149 156
f 70 157 58
f 58 157 149
f 153 158 152
f 158 160 159
f 158 159 71
f 152 158 71
f 62 152 71
f 71 159 161
f 162 71 161
f 72 71 162
f 65 72 154
f 72 163 154
f 72 162 163
f 154 163 155
f 157 74 68
f 74 157 70
f 160 164 159
f 159 164 161
f 167 166 165
f 165 168 167
f 171 170 169
f 173 172 169
f 169 172 171
f 172 173 166
f 173 165 166
f 173 174 165
f 168 165 175
f 165 176 175
f 165 174 176
f 176 177 175
f 169 170 178
f 178 170 179
f 169 180 173
f 169 178 180
f 173 181 174
f 173 180 181
f 174 182 176
f 174 181 182
f 177 176 183
f 183 176 182
f 186 185 184
f 188 187 184
f 184 187 186
f 187 188 179
f 188 178 179
f 188 189 178
f 178 190 180
f 178 189 190
f 180 191 181
f 180 190 191
f 181 192 182
f 181 191 192
f 183 182 193
f 182 194 193
f 182 192 194
f 194 195 193
f 184 185 196
f 196 185 197
f 184 198 188
f 184 196 198
f 188 199 189
f 188 198 199
f 189 200 190
f 189 199 200
f 190 201 191
f 190 200 201
f 191 202 192
f 191 201 202
f 192 203 194
f 192 202 203
f 195 194 204
f 204 194 203
f 196 197 205
f 205 197 206
f 196 207 198
f 196 205 207
f 198 208 199
f 198 207 208
f 199 209 200
f 199 208 209
f 200 210 201
f 200 209 210
f 201 211 202
f 201 210 211
f 202 212 203
f 202 211 212
f 204 203 213
f 213 203 212
f 206 214 205
f 216 215 214
f 215 205 214
f 215 207 205
f 207 217 208
f 207 215 217
f 208 218 209
f 208 217 218
f 209 219 210
f 209 218 219
f 210 220 211
f 210 219 220
f 220 77 78
f 212 220 78
f 211 220 212
f 222 221 79
f 79 221 78
f 221 213 78
f 213 212 78
f 222 223 221
f 215 216 224
f 224 216 225
f 224 81 82
f 217 224 82
f 215 224 217
f 217 82 83
f 226 217 83
f 218 217 226
f 218 227 219
f 218 226 227
f 227 85 86
f 220 227 86
f 219 227 220
f 220 86 77
f 88 228 222
f 88 222 79
f 223 222 229
f 229 222 228
f 224 225 230
f 230 225 231
f 230 90 81
f 230 81 224
f 91 226 83
f 226 91 93
f 232 226 93
f 227 226 232
f 232 95 85
f 232 85 227
f 97 228 88
f 234 233 99
f 99 233 97
f 233 229 97
f 229 228 97
f 234 235 233
f 230 231 236
f 236 231 237
f 236 101 90
f 236 90 230
f 103 238 232
f 103 232 93
f 238 105 95
f 238 95 232
f 108 234 99
f 240 239 110
f 110 239 108
f 239 235 108
f 235 234 108
f 240 241 239
f 236 237 242
f 242 237 243
f 242 112 101
f 242 101 236
f 114 238 103
f 238 114 105
f 120 240 110
f 245 244 122
f 122 244 120
f 244 241 120
f 241 240 120
f 245 246 244
f 242 243 247
f 247 243 248
f 247 124 112
f 247 112 242
f 130 245 122
f 130 132 245
f 132 246 245
f 132 249 246
f 248 250 247
f 124 247 250
f 251 124 250
f 134 124 251
f 138 249 132
f 138 252 249
f 139 134 253
f 134 254 253
f 134 251 254
f 253 141 139
f 256 255 146
f 256 146 145
f 146 257 147
f 255 257 146
f 259 258 148
f 147 259 148
f 257 259 147
f 259 252 258
f 252 150 258
f 252 138 150
f 253 254 260
f 260 254 261
f 262 151 141
f 253 262 141
f 260 262 253
f 262 153 151
f 265 264 263
f 264 256 263
f 256 155 263
f 256 145 155
f 258 156 148
f 156 258 150
f 261 266 260
f 268 267 266
f 267 260 266
f 267 262 260
f 269 158 153
f 262 269 153
f 267 269 262
f 269 160 158
f 271 270 162
f 271 162 161
f 263 163 265
f 163 270 265
f 163 162 270
f 163 263 155
f 268 272 267
f 267 272 269
f 269 272 273
f 269 273 160
f 273 164 160
f 273 274 164
f 161 164 271
f 271 164 274
f 277 276 275
f 279 278 275
f 275 278 277
f 281 280 279
f 279 280 278
f 281 282 280
f 285 284 283
f 287 286 283
f 283 286 285
f 286 287 276
f 287 275 276
f 287 288 275
f 275 289 279
f 275 288 289
f 279 290 281
f 279 289 290
f 282 281 291
f 291 281 290
f 283 284 292
f 292 284 293
f 283 294 287
f 283 292 294
f 287 295 288
f 287 294 295
f 295 166 167
f 289 295 167
f 288 295 289
f 289 167 168
f 296 289 168
f 290 289 296
f 291 290 297
f 297 290 296
f 300 299 298
f 300 298 293
f 298 292 293
f 298 301 292
f 301 170 171
f 294 301 171
f 292 301 294
f 294 171 172
f 294 172 295
f 295 172 166
f 175 296 168
f 303 302 177
f 177 302 175
f 302 297 175
f 297 296 175
f 303 304 302
f 298 299 305
f 305 299 306
f 298 307 301
f 298 305 307
f 307 179 170
f 307 170 301
f 183 308 303
f 183 303 177
f 304 303 309
f 309 303 308
f 312 311 310
f 312 310 306
f 306 310 305
f 310 185 305
f 185 186 305
f 305 186 187
f 305 187 307
f 307 187 179
f 193 308 183
f 314 313 195
f 195 313 193
f 313 309 193
f 309 308 193
f 314 315 313
f 310 311 316
f 316 311 317
f 316 197 185
f 316 185 310
f 204 318 314
f 204 314 195
f 315 314 319
f 319 314 318
f 316 317 320
f 320 317 321
f 320 206 197
f 320 197 316
f 213 322 318
f 213 318 204
f 319 318 323
f 323 318 322
f 320 321 324
f 324 321 325
f 326 214 206
f 320 326 206
f 324 326 320
f 326 216 214
f 221 322 213
f 221 223 322
f 223 323 322
f 223 327 323
f 324 325 328
f 328 325 329
f 324 330 326
f 324 328 330
f 330 225 216
f 330 216 326
f 229 332 331
f 327 229 331
f 223 229 327
f 334 333 332
f 332 333 331
f 334 335 333
f 329 336 328
f 338 337 336
f 337 328 336
f 337 330 328
f 337 231 225
f 337 225 330
f 233 332 229
f 332 233 235
f 339 332 235
f 334 332 339
f 335 334 340
f 340 334 339
f 337 338 341
f 341 338 342
f 341 237 231
f 341 231 337
f 239 339 235
f 239 241 339
f 241 340 339
f 241 343 340
f 341 342 344
f 344 342 345
f 344 243 237
f 344 237 341
f 346 343 241
f 346 241 244
f 244 246 346
f 346 246 347
f 344 345 348
f 348 345 349
f 348 248 243
f 348 243 344
f 249 347 246
f 249 350 347
f 349 351 348
f 351 353 352
f 351 352 250
f 348 351 250
f 248 348 250
f 352 251 250
f 252 350 249
f 252 354 350
f 352 353 355
f 355 353 356
f 355 254 251
f 355 251 352
f 256 357 255
f 255 357 358
f 359 255 358
f 257 255 359
f 257 360 259
f 359 360 257
f 252 259 354
f 354 259 360
f 356 361 355
f 254 355 361
f 362 254 361
f 261 254 362
f 265 363 264
f 363 364 264
f 264 364 256
f 364 365 256
f 365 357 256
f 357 365 358
f 266 261 366
f 261 367 366
f 261 362 367
f 366 268 266
f 369 368 270
f 369 270 271
f 265 270 363
f 270 370 363
f 270 368 370
f 363 370 364
f 367 371 366
f 371 373 372
f 371 372 272
f 366 371 272
f 268 366 272
f 374 273 272
f 374 272 372
f 273 374 375
f 376 273 375
f 274 273 376
f 271 274 369
f 369 274 376
f 373 377 372
f 372 377 374
f 374 377 378
f 374 378 375
f 381 380 379
f 383 382 379
f 379 382 381
f 385 384 383
f 383 384 382
f 387 386 385
f 385 386 384
f 387 388 386
f 379 380 389
f 389 380 390
f 379 391 383
f 379 389 391
f 383 392 385
f 383 391 392
f 385 393 387
f 385 392 393
f 388 387 394
f 394 387 393
f 397 396 395
f 397 395 390
f 395 389 390
f 395 398 389
f 389 399 391
f 389 398 399
f 391 400 392
f 391 399 400
f 392 401 393
f 392 400 401
f 394 393 402
f 393 403 402
f 393 401 403
f 403 404 402
f 395 396 405
f 405 396 406
f 395 407 398
f 395 405 407
f 398 408 399
f 398 407 408
f 408 276 277
f 400 408 277
f 399 408 400
f 400 277 278
f 400 278 401
f 401 278 280
f 401 280 403
f 280 282 403
f 282 404 403
f 282 409 404
f 405 406 410
f 410 406 411
f 410 284 285
f 407 410 285
f 405 410 407
f 407 285 286
f 407 286 408
f 408 286 276
f 291 413 412
f 409 291 412
f 282 291 409
f 413 414 412
f 410 411 415
f 415 411 416
f 415 293 284
f 415 284 410
f 297 417 413
f 297 413 291
f 414 413 418
f 418 413 417
f 421 420 419
f 421 419 416
f 416 419 415
f 419 299 415
f 299 300 415
f 415 300 293
f 302 417 297
f 302 304 417
f 304 418 417
f 304 422 418
f 419 420 423
f 423 420 424
f 423 306 299
f 423 299 419
f 309 426 425
f 422 309 425
f 304 309 422
f 426 427 425
f 430 429 428
f 430 428 424
f 424 428 423
f 428 311 423
f 311 312 423
f 423 312 306
f 313 426 309
f 313 315 426
f 315 427 426
f 315 431 427
f 428 429 432
f 432 429 433
f 432 317 311
f 432 311 428
f 319 435 434
f 431 319 434
f 315 319 431
f 435 436 434
f 432 433 437
f 437 433 438
f 437 321 317
f 437 317 432
f 323 439 435
f 323 435 319
f 436 435 440
f 440 435 439
f 437 438 441
f 441 438 442
f 441 325 321
f 441 321 437
f 327 443 439
f 327 439 323
f 440 439 444
f 444 439 443
f 442 445 441
f 325 441 445
f 446 325 445
f 329 325 446
f 331 443 327
f 447 444 443
f 331 447 443
f 333 447 331
f 333 335 447
f 447 335 448
f 336 329 449
f 329 450 449
f 329 446 450
f 449 338 336
f 340 448 335
f 340 451 448
f 450 452 449
f 338 449 452
f 453 338 452
f 342 338 453
f 343 451 340
f 343 454 451
f 453 345 342
f 455 345 453
f 343 346 456
f 457 343 456
f 454 343 457
f 347 456 346
f 455 349 345
f 458 349 455
f 459 457 456
f 456 347 459
f 347 460 459
f 347 350 460
f 351 349 461
f 349 462 461
f 349 458 462
f 461 353 351
f 354 460 350
f 354 463 460
f 462 464 461
f 353 461 464
f 465 353 464
f 356 353 465
f 467 466 359
f 467 359 358
f 359 468 360
f 466 468 359
f 354 360 463
f 463 360 468
f 471 470 469
f 469 472 361
f 465 469 361
f 356 465 361
f 469 465 471
f 472 362 361
f 474 473 365
f 474 365 364
f 358 365 467
f 467 365 473
f 469 470 475
f 475 470 476
f 469 477 472
f 469 475 477
f 477 367 362
f 477 362 472
f 479 478 368
f 479 368 369
f 368 480 370
f 478 480 368
f 364 370 474
f 474 370 480
f 475 476 481
f 481 476 482
f 475 483 477
f 475 481 483
f 484 371 367
f 477 484 367
f 483 484 477
f 484 373 371
f 486 485 376
f 486 376 375
f 369 376 479
f 479 376 485
f 481 482 487
f 487 482 488
f 481 489 483
f 481 487 489
f 491 484 490
f 484 489 490
f 484 483 489
f 491 493 492
f 491 492 377
f 484 491 377
f 373 484 377
f 377 492 494
f 495 377 494
f 378 377 495
f 375 378 486
f 486 378 495
f 488 496 487
f 487 496 489
f 489 496 497
f 489 497 490
f 493 498 492
f 492 498 494
f 501 500 499
f 503 502 499
f 499 502 501
f 503 504 502
f 499 500 505
f 505 500 506
f 499 507 503
f 499 505 507
f 504 503 508
f 503 509 508
f 503 507 509
f 509 510 508
f 513 512 511
f 513 511 506
f 511 505 506
f 511 514 505
f 514 380 381
f 507 514 381
f 505 514 507
f 507 381 382
f 507 382 509
f 515 510 509
f 382 515 509
f 384 515 382
f 517 515 516
f 515 386 516
f 515 384 386
f 388 516 386
f 511 512 518
f 518 512 519
f 511 520 514
f 511 518 520
f 520 390 380
f 520 380 514
f 517 516 521
f 517 521 522
f 394 521 388
f 388 521 516
f 519 523 518
f 524 396 397
f 518 524 397
f 520 518 397
f 523 524 518
f 520 397 390
f 522 521 525
f 522 525 526
f 402 527 394
f 527 521 394
f 527 525 521
f 404 527 402
f 524 406 396
f 528 406 524
f 526 525 529
f 526 529 530
f 531 525 527
f 529 525 531
f 409 531 404
f 404 531 527
f 534 533 532
f 528 534 532
f 411 528 532
f 406 528 411
f 530 529 535
f 530 535 536
f 537 529 531
f 535 529 537
f 412 538 409
f 538 531 409
f 538 537 531
f 414 538 412
f 532 533 539
f 539 533 540
f 539 416 411
f 539 411 532
f 541 536 535
f 541 535 537
f 541 537 542
f 542 537 538
f 542 538 543
f 538 414 543
f 414 544 543
f 414 418 544
f 539 540 421
f 540 420 421
f 540 545 420
f 539 421 416
f 422 547 546
f 544 422 546
f 418 422 544
f 547 548 546
f 551 550 549
f 545 551 549
f 424 545 549
f 420 545 424
f 425 547 422
f 425 427 547
f 427 548 547
f 427 552 548
f 549 550 430
f 550 429 430
f 550 553 429
f 549 430 424
f 431 552 427
f 431 554 552
f 553 433 429
f 555 433 553
f 556 554 431
f 556 431 434
f 434 436 556
f 556 436 557
f 555 438 433
f 558 438 555
f 440 557 436
f 440 559 557
f 558 442 438
f 560 442 558
f 444 559 440
f 444 561 559
f 445 442 562
f 442 563 562
f 442 560 563
f 562 446 445
f 564 561 444
f 564 444 447
f 447 448 564
f 564 448 565
f 563 566 562
f 446 562 566
f 567 446 566
f 450 446 567
f 451 565 448
f 451 568 565
f 452 450 569
f 450 570 569
f 450 567 570
f 569 453 452
f 573 572 571
f 572 568 571
f 568 454 571
f 568 451 454
f 569 570 574
f 574 570 575
f 574 455 453
f 574 453 569
f 576 573 571
f 571 454 576
f 454 577 576
f 454 457 577
f 574 575 578
f 578 575 579
f 578 458 455
f 578 455 574
f 457 459 580
f 581 457 580
f 577 457 581
f 460 580 459
f 578 579 582
f 582 579 583
f 582 462 458
f 582 458 578
f 584 581 580
f 580 460 584
f 460 585 584
f 460 463 585
f 583 586 582
f 586 588 587
f 586 587 464
f 582 586 464
f 462 582 464
f 587 465 464
f 467 589 466
f 590 468 466
f 590 466 589
f 590 591 468
f 591 463 468
f 591 585 463
f 594 593 592
f 594 592 588
f 588 592 587
f 592 470 587
f 470 471 587
f 587 471 465
f 596 595 473
f 596 473 474
f 467 473 589
f 473 597 589
f 473 595 597
f 589 597 590
f 590 597 598
f 590 598 591
f 592 593 599
f 599 593 600
f 599 476 470
f 599 470 592
f 602 601 478
f 602 478 479
f 478 603 480
f 601 603 478
f 474 480 596
f 596 480 603
f 600 604 599
f 476 599 604
f 605 476 604
f 482 476 605
f 607 606 485
f 607 485 486
f 479 485 602
f 602 485 606
f 609 488 608
f 488 605 608
f 488 482 605
f 610 609 608
f 490 611 491
f 611 493 491
f 613 612 495
f 613 495 494
f 486 495 607
f 607 495 612
f 609 496 488
f 610 614 609
f 614 496 609
f 614 497 496
f 490 497 611
f 497 615 611
f 497 614 615
f 611 615 493
f 615 498 493
f 615 616 498
f 494 498 613
f 613 498 616
f 619 618 617
f 500 501 617
f 501 619 617
f 501 620 619
f 621 501 502
f 621 620 501
f 502 504 621
f 621 504 622
f 617 618 623
f 623 618 624
f 623 506 500
f 623 500 617
f 625 622 504
f 625 504 508
f 508 510 625
f 625 510 626
f 629 628 627
f 629 627 624
f 624 627 623
f 627 512 623
f 512 513 623
f 623 513 506
f 510 515 630
f 631 510 630
f 626 510 631
f 517 630 515
f 627 628 632
f 632 628 633
f 632 519 512
f 632 512 627
f 634 631 630
f 630 517 634
f 517 635 634
f 517 522 635
f 633 636 632
f 636 638 637
f 636 637 523
f 632 636 523
f 519 632 523
f 637 524 523
f 526 635 522
f 526 639 635
f 642 641 640
f 642 640 638
f 640 637 638
f 640 643 637
f 643 528 524
f 643 524 637
f 646 645 644
f 645 639 644
f 639 530 644
f 639 526 530
f 640 641 647
f 647 641 648
f 647 533 534
f 643 647 534
f 640 647 643
f 643 534 528
f 649 646 644
f 644 530 649
f 530 650 649
f 530 536 650
f 653 652 651
f 653 651 648
f 651 647 648
f 651 654 647
f 654 540 533
f 654 533 647
f 655 650 536
f 655 536 541
f 657 655 656
f 655 542 656
f 655 541 542
f 543 658 542
f 542 658 656
f 544 658 543
f 651 652 659
f 659 652 660
f 651 661 654
f 651 659 661
f 661 545 540
f 661 540 654
f 662 657 656
f 664 663 662
f 656 664 662
f 658 664 656
f 546 665 544
f 665 658 544
f 665 664 658
f 548 665 546
f 659 660 666
f 666 660 667
f 666 550 551
f 661 666 551
f 659 666 661
f 661 551 545
f 668 663 664
f 670 669 668
f 664 670 668
f 665 670 664
f 552 670 548
f 548 670 665
f 666 667 671
f 671 667 672
f 671 553 550
f 671 550 666
f 673 669 670
f 670 552 673
f 552 674 673
f 552 554 674
f 671 672 675
f 675 672 676
f 675 555 553
f 675 553 671
f 554 556 677
f 678 554 677
f 674 554 678
f 557 677 556
f 675 676 679
f 679 676 680
f 679 558 555
f 679 555 675
f 681 678 677
f 677 557 681
f 557 682 681
f 557 559 682
f 680 683 679
f 558 679 683
f 684 558 683
f 560 558 684
f 561 682 559
f 561 685 682
f 684 563 560
f 686 563 684
f 561 564 687
f 688 561 687
f 685 561 688
f 565 687 564
f 566 563 689
f 563 690 689
f 563 686 690
f 689 567 566
f 691 688 687
f 687 565 691
f 565 692 691
f 565 568 692
f 689 690 693
f 693 690 694
f 693 570 567
f 693 567 689
f 696 695 572
f 696 572 573
f 568 572 692
f 692 572 695
f 693 694 697
f 697 694 698
f 697 575 570
f 697 570 693
f 573 576 699
f 700 573 699
f 696 573 700
f 577 699 576
f 697 698 701
f 701 698 702
f 701 579 575
f 701 575 697
f 703 700 699
f 699 577 703
f 577 704 703
f 577 581 704
f 702 705 701
f 579 701 705
f 706 579 705
f 583 579 706
f 581 584 707
f 708 581 707
f 704 581 708
f 585 707 584
f 586 583 709
f 583 710 709
f 583 706 710
f 709 588 586
f 711 708 707
f 707 585 711
f 585 712 711
f 585 591 712
f 709 710 594
f 710 593 594
f 710 713 593
f 709 594 588
f 715 714 595
f 715 595 596
f 595 716 597
f 714 716 595
f 597 717 598
f 716 717 597
f 591 598 712
f 712 598 717
f 713 600 593
f 718 600 713
f 720 719 601
f 720 601 602
f 601 721 603
f 719 721 601
f 596 603 715
f 715 603 721
f 718 722 600
f 600 722 604
f 605 604 722
f 605 722 723
f 726 725 724
f 606 607 724
f 725 606 724
f 727 606 725
f 602 606 720
f 720 606 727
f 723 728 605
f 605 728 608
f 610 608 728
f 610 728 729
f 726 724 612
f 613 726 612
f 730 726 613
f 612 724 607
f 729 731 610
f 610 731 614
f 614 732 615
f 731 732 614
f 615 733 616
f 732 733 615
f 613 616 730
f 730 616 733
f 736 735 734
f 738 737 734
f 734 737 736
f 738 739 737
f 734 735 740
f 740 735 741
f 740 618 619
f 738 740 619
f 734 740 738
f 742 739 738
f 619 742 738
f 620 742 619
f 744 742 743
f 742 621 743
f 742 620 621
f 622 743 621
f 740 741 745
f 745 741 746
f 745 624 618
f 745 618 740
f 747 744 743
f 747 743 622
f 625 747 622
f 748 747 625
f 625 626 748
f 748 626 749
f 745 746 629
f 746 628 629
f 746 750 628
f 745 629 624
f 631 749 626
f 631 751 749
f 750 633 628
f 752 633 750
f 753 751 631
f 753 631 634
f 634 635 753
f 753 635 754
f 636 633 755
f 633 756 755
f 633 752 756
f 755 638 636
f 639 754 635
f 639 757 754
f 760 759 758
f 760 758 756
f 756 758 755
f 758 641 755
f 641 642 755
f 755 642 638
f 762 761 645
f 762 645 646
f 639 645 757
f 757 645 761
f 758 759 763
f 763 759 764
f 763 648 641
f 763 641 758
f 765 762 646
f 765 646 649
f 649 650 765
f 765 650 766
f 769 768 767
f 769 767 764
f 764 767 763
f 767 652 763
f 652 653 763
f 763 653 648
f 650 655 770
f 771 650 770
f 766 650 771
f 657 770 655
f 767 768 772
f 772 768 773
f 772 660 652
f 772 652 767
f 774 771 770
f 776 774 775
f 775 774 662
f 774 770 662
f 770 657 662
f 663 775 662
f 772 773 777
f 777 773 778
f 777 667 660
f 777 660 772
f 776 775 779
f 776 779 780
f 668 781 663
f 781 775 663
f 781 779 775
f 669 781 668
f 777 778 782
f 782 778 783
f 782 672 667
f 782 667 777
f 784 780 779
f 784 779 781
f 784 781 785
f 787 785 786
f 786 785 673
f 785 781 673
f 781 669 673
f 674 786 673
f 782 783 788
f 788 783 789
f 788 676 672
f 788 672 782
f 787 786 790
f 787 790 791
f 678 790 674
f 674 790 786
f 789 792 788
f 676 788 792
f 793 676 792
f 680 676 793
f 791 790 794
f 791 794 795
f 681 796 678
f 796 790 678
f 796 794 790
f 682 796 681
f 683 680 797
f 680 798 797
f 680 793 798
f 797 684 683
f 799 795 794
f 801 800 799
f 794 801 799
f 796 801 794
f 685 801 682
f 682 801 796
f 797 798 802
f 802 798 803
f 802 686 684
f 802 684 797
f 804 800 801
f 801 685 804
f 685 805 804
f 685 688 805
f 803 806 802
f 686 802 806
f 807 686 806
f 690 686 807
f 688 691 808
f 809 688 808
f 805 688 809
f 692 808 691
f 807 694 690
f 810 694 807
f 809 808 695
f 696 809 695
f 811 809 696
f 695 808 692
f 810 698 694
f 812 698 810
f 700 811 696
f 700 813 811
f 812 702 698
f 814 702 812
f 700 703 815
f 816 700 815
f 813 700 816
f 704 815 703
f 705 702 817
f 702 818 817
f 702 814 818
f 817 706 705
f 819 816 815
f 815 704 819
f 704 820 819
f 704 708 820
f 817 818 821
f 821 818 822
f 821 710 706
f 821 706 817
f 708 711 823
f 824 708 823
f 820 708 824
f 712 823 711
f 821 822 825
f 825 822 826
f 825 713 710
f 825 710 821
f 828 827 714
f 828 714 715
f 714 829 716
f 827 829 714
f 823 717 824
f 717 829 824
f 717 716 829
f 717 823 712
f 825 826 830
f 830 826 831
f 830 718 713
f 830 713 825
f 720 832 719
f 719 832 833
f 834 719 833
f 721 719 834
f 715 721 828
f 828 721 834
f 831 835 830
f 830 835 718
f 835 722 718
f 835 836 722
f 838 837 723
f 722 838 723
f 836 838 722
f 839 837 838
f 841 840 725
f 841 725 726
f 725 842 727
f 840 842 725
f 720 727 832
f 727 843 832
f 727 842 843
f 832 843 833
f 837 728 723
f 729 728 837
f 839 729 837
f 844 729 839
f 847 846 845
f 846 841 845
f 841 730 845
f 841 726 730
f 844 848 729
f 729 848 731
f 731 849 732
f 848 849 731
f 845 733 847
f 733 849 847
f 733 732 849
f 733 845 730
f 850 735 736
f 737 851 736
f 736 851 850
f 739 851 737
f 853 852 850
f 852 735 850
f 852 741 735
f 853 850 851
f 853 851 854
f 856 854 855
f 855 854 742
f 854 851 742
f 851 739 742
f 744 855 742
f 859 858 857
f 852 859 857
f 746 852 857
f 741 852 746
f 860 856 855
f 860 855 744
f 747 860 744
f 861 860 747
f 863 861 862
f 861 748 862
f 861 747 748
f 749 862 748
f 857 858 864
f 864 858 865
f 864 750 746
f 864 746 857
f 863 862 866
f 863 866 867
f 751 866 749
f 749 866 862
f 864 865 868
f 868 865 869
f 868 752 750
f 868 750 864
f 870 867 866
f 870 866 751
f 753 870 751
f 871 870 753
f 753 754 871
f 871 754 872
f 868 869 873
f 873 869 874
f 873 756 752
f 873 752 868
f 757 872 754
f 757 875 872
f 873 874 760
f 874 759 760
f 874 876 759
f 873 760 756
f 762 877 761
f 877 878 761
f 878 757 761
f 878 875 757
f 881 880 879
f 876 881 879
f 764 876 879
f 759 876 764
f 877 762 765
f 884 883 882
f 883 884 766
f 884 878 766
f 877 765 766
f 877 766 878
f 887 886 885
f 887 885 880
f 880 885 879
f 885 768 879
f 768 769 879
f 879 769 764
f 882 883 888
f 882 888 889
f 771 888 766
f 766 888 883
f 885 886 890
f 890 886 891
f 890 773 768
f 890 768 885
f 889 888 892
f 889 892 893
f 774 894 771
f 894 888 771
f 894 892 888
f 776 894 774
f 890 891 895
f 895 891 896
f 895 778 773
f 895 773 890
f 897 893 892
f 899 898 897
f 892 899 897
f 894 899 892
f 780 899 776
f 776 899 894
f 895 896 900
f 900 896 901
f 900 783 778
f 900 778 895
f 902 898 899
f 904 902 903
f 903 902 784
f 902 899 784
f 899 780 784
f 785 905 784
f 784 905 903
f 787 905 785
f 900 901 906
f 906 901 907
f 906 789 783
f 906 783 900
f 908 904 903
f 908 903 905
f 908 905 909
f 905 787 909
f 787 910 909
f 787 791 910
f 907 911 906
f 911 913 912
f 911 912 792
f 906 911 792
f 789 906 792
f 912 793 792
f 795 910 791
f 795 914 910
f 912 913 915
f 915 913 916
f 915 798 793
f 915 793 912
f 795 799 917
f 918 795 917
f 914 795 918
f 800 917 799
f 916 919 915
f 798 915 919
f 920 798 919
f 803 798 920
f 921 918 917
f 923 921 922
f 922 921 804
f 921 917 804
f 917 800 804
f 805 922 804
f 806 803 924
f 803 925 924
f 803 920 925
f 924 807 806
f 923 922 926
f 923 926 927
f 809 926 805
f 805 926 922
f 925 928 924
f 807 924 928
f 929 807 928
f 810 807 929
f 927 926 930
f 927 930 931
f 811 930 809
f 809 930 926
f 929 812 810
f 932 812 929
f 933 931 930
f 930 811 933
f 811 934 933
f 811 813 934
f 937 936 935
f 932 937 935
f 814 932 935
f 812 932 814
f 816 934 813
f 816 938 934
f 935 936 939
f 939 936 940
f 939 818 814
f 939 814 935
f 941 938 816
f 941 816 819
f 819 820 941
f 941 820 942
f 939 940 943
f 943 940 944
f 943 822 818
f 943 818 939
f 947 946 945
f 946 942 945
f 942 824 945
f 942 820 824
f 944 948 943
f 822 943 948
f 949 822 948
f 826 822 949
f 951 950 827
f 951 827 828
f 945 829 947
f 829 950 947
f 829 827 950
f 829 945 824
f 949 831 826
f 952 831 949
f 955 954 953
f 834 833 953
f 954 834 953
f 956 834 954
f 828 834 951
f 951 834 956
f 952 957 831
f 831 957 835
f 835 958 836
f 957 958 835
f 836 959 838
f 958 959 836
f 839 838 959
f 839 959 960
f 962 961 840
f 962 840 841
f 840 963 842
f 961 963 840
f 953 843 955
f 843 963 955
f 843 842 963
f 843 953 833
f 960 844 839
f 964 844 960
f 966 965 846
f 966 846 847
f 841 846 962
f 962 846 965
f 964 967 844
f 844 967 848
f 848 968 849
f 967 968 848
f 847 849 966
f 966 849 968
f 971 970 969
f 973 972 969
f 969 972 971
f 973 974 972
f 969 970 853
f 970 852 853
f 970 975 852
f 854 976 853
f 977 853 976
f 853 977 969
f 978 969 977
f 969 978 973
f 978 974 973
f 856 976 854
f 980 979 859
f 859 979 858
f 859 852 975
f 859 975 980
f 981 977 976
f 983 981 982
f 982 981 860
f 981 976 860
f 976 856 860
f 861 984 860
f 860 984 982
f 863 984 861
f 979 865 858
f 985 865 979
f 983 982 986
f 983 986 987
f 988 982 984
f 986 982 988
f 867 988 863
f 863 988 984
f 985 869 865
f 989 869 985
f 990 987 986
f 990 986 988
f 990 988 991
f 993 991 992
f 992 991 870
f 991 988 870
f 988 867 870
f 871 994 870
f 870 994 992
f 872 994 871
f 989 874 869
f 995 874 989
f 996 993 992
f 996 992 994
f 996 994 997
f 994 872 997
f 872 998 997
f 872 875 998
f 1001 1000 999
f 995 1001 999
f 876 995 999
f 874 995 876
f 1004 1003 1002
f 1003 998 1002
f 998 878 1002
f 998 875 878
f 999 1000 881
f 1000 880 881
f 1000 1005 880
f 999 881 876
f 1008 1007 1006
f 1006 1007 1004
f 1006 1004 1002
f 882 1006 1002
f 884 882 1002
f 884 1002 878
f 1010 1009 887
f 887 1009 886
f 887 880 1005
f 887 1005 1010
f 1008 1006 1011
f 1008 1011 1012
f 889 1011 882
f 882 1011 1006
f 1009 891 886
f 1013 891 1009
f 1012 1011 1014
f 1012 1014 1015
f 893 1014 889
f 889 1014 1011
f 1018 1017 1016
f 1013 1018 1016
f 896 1013 1016
f 891 1013 896
f 1019 1015 1014
f 1021 1019 1020
f 1020 1019 897
f 1019 1014 897
f 1014 893 897
f 898 1020 897
f 1016 1017 1022
f 1022 1017 1023
f 1022 901 896
f 1022 896 1016
f 1024 1021 1020
f 1026 1024 1025
f 1025 1024 902
f 1024 1020 902
f 1020 898 902
f 904 1025 902
f 1022 1023 1027
f 1027 1023 1028
f 1027 907 901
f 1027 901 1022
f 1029 1026 1025
f 1029 1025 904
f 908 1029 904
f 1030 1029 908
f 1032 1030 1031
f 1030 909 1031
f 1030 908 909
f 910 1031 909
f 1028 1033 1027
f 1033 1035 1034
f 1033 1034 911
f 1027 1033 911
f 907 1027 911
f 1034 913 911
f 1038 1037 1036
f 1036 1037 1032
f 1031 1036 1032
f 1039 1036 1031
f 914 1039 910
f 910 1039 1031
f 1035 1040 1034
f 913 1034 1040
f 1041 913 1040
f 916 913 1041
f 1042 1038 1036
f 1044 1043 1042
f 1036 1044 1042
f 1039 1044 1036
f 918 1044 914
f 914 1044 1039
f 919 916 1045
f 916 1046 1045
f 916 1041 1046
f 1045 920 919
f 1043 1044 1047
f 1043 1047 1048
f 921 1049 918
f 1049 1044 918
f 1049 1047 1044
f 923 1049 921
f 1046 1050 1045
f 920 1045 1050
f 1051 920 1050
f 925 920 1051
f 1052 1048 1047
f 1054 1053 1052
f 1047 1054 1052
f 1049 1054 1047
f 927 1054 923
f 923 1054 1049
f 928 925 1055
f 925 1056 1055
f 925 1051 1056
f 1055 929 928
f 1057 1053 1054
f 1054 927 1057
f 927 1058 1057
f 927 931 1058
f 1055 1056 1059
f 1059 1056 1060
f 1059 932 929
f 1059 929 1055
f 931 933 1061
f 1062 931 1061
f 1058 931 1062
f 934 1061 933
f 1065 1064 1063
f 1065 1063 1060
f 1060 1063 1059
f 1063 936 1059
f 936 937 1059
f 1059 937 932
f 1066 1062 1061
f 1061 934 1066
f 934 1067 1066
f 934 938 1067
f 1064 1068 1063
f 936 1063 1068
f 1069 936 1068
f 940 936 1069
f 938 941 1070
f 1071 938 1070
f 1067 938 1071
f 942 1070 941
f 1069 944 940
f 1072 944 1069
f 1071 1070 946
f 947 1071 946
f 1073 1071 947
f 946 1070 942
f 948 944 1074
f 944 1075 1074
f 944 1072 1075
f 1074 949 948
f 1077 1076 950
f 1077 950 951
f 947 950 1073
f 1073 950 1076
f 1074 1075 1078
f 1078 1075 1079
f 1078 952 949
f 1078 949 1074
f 1081 1080 954
f 1081 954 955
f 954 1082 956
f 1080 1082 954
f 951 956 1077
f 1077 956 1082
f 1079 1083 1078
f 1078 1083 952
f 1083 957 952
f 1083 1084 957
f 957 1085 958
f 1084 1085 957
f 1085 1087 1086
f 959 1085 1086
f 958 1085 959
f 1086 960 959
f 1089 1088 961
f 1089 961 962
f 961 1090 963
f 1088 1090 961
f 955 963 1081
f 1081 963 1090
f 1087 1091 1086
f 960 1086 1091
f 1092 960 1091
f 964 960 1092
f 1095 1094 1093
f 965 966 1093
f 1094 965 1093
f 1096 965 1094
f 962 965 1089
f 1089 965 1096
f 1092 1097 964
f 964 1097 967
f 1093 968 1095
f 968 1097 1095
f 968 967 1097
f 968 1093 966
f 1100 1099 1098
f 970 971 1098
f 971 1100 1098
f 971 1101 1100
f 1103 1101 1102
f 1101 972 1102
f 1101 971 972
f 974 1102 972
f 1098 1099 1104
f 1104 1099 1105
f 1108 1107 1106
f 1098 975 970
f 975 1098 1104
f 1108 1106 1103
f 1108 1103 1102
f 977 1108 1102
f 978 977 1102
f 978 1102 974
f 1104 1105 980
f 1105 979 980
f 1105 1109 979
f 1108 1110 1107
f 975 1104 980
f 1112 1110 1111
f 1111 1110 981
f 1110 1108 981
f 1108 977 981
f 983 1111 981
f 1109 985 979
f 1113 985 1109
f 1112 1111 1114
f 1112 1114 1115
f 987 1114 983
f 983 1114 1111
f 1113 989 985
f 1116 989 1113
f 1115 1114 1117
f 1115 1117 1118
f 990 1119 987
f 1119 1114 987
f 1119 1117 1114
f 991 1120 990
f 990 1120 1119
f 993 1120 991
f 1116 995 989
f 1121 995 1116
f 1118 1117 1122
f 1118 1122 1123
f 1119 1125 1124
f 1122 1119 1124
f 1117 1119 1122
f 1127 1126 1125
f 1119 1127 1125
f 1120 1127 1119
f 996 1128 993
f 1128 1120 993
f 1128 1127 1120
f 997 1129 996
f 996 1129 1128
f 998 1129 997
f 1131 1130 1001
f 1001 1130 1000
f 1001 995 1121
f 1001 1121 1131
f 1132 1123 1122
f 1132 1122 1124
f 1126 1127 1133
f 1126 1133 1134
f 1135 1127 1128
f 1133 1127 1135
f 1004 1135 1003
f 1135 1129 1003
f 1135 1128 1129
f 1003 1129 998
f 1130 1005 1000
f 1136 1005 1130
f 1134 1133 1137
f 1134 1137 1138
f 1008 1137 1007
f 1137 1135 1007
f 1137 1133 1135
f 1007 1135 1004
f 1140 1139 1010
f 1010 1139 1009
f 1010 1005 1136
f 1010 1136 1140
f 1141 1138 1137
f 1137 1008 1141
f 1008 1142 1141
f 1008 1012 1142
f 1139 1013 1009
f 1143 1013 1139
f 1146 1145 1144
f 1148 1147 1144
f 1148 1144 1145
f 1150 1149 1147
f 1150 1147 1148
f 1150 1142 1149
f 1142 1015 1149
f 1142 1012 1015
f 1152 1151 1018
f 1018 1151 1017
f 1018 1013 1143
f 1018 1143 1152
f 1153 1146 1144
f 1153 1144 1147
f 1153 1147 1154
f 1154 1147 1149
f 1154 1149 1155
f 1157 1155 1156
f 1156 1155 1019
f 1155 1149 1019
f 1149 1015 1019
f 1021 1156 1019
f 1160 1159 1158
f 1151 1160 1158
f 1023 1151 1158
f 1017 1151 1023
f 1161 1157 1156
f 1163 1161 1162
f 1162 1161 1024
f 1161 1156 1024
f 1156 1021 1024
f 1026 1162 1024
f 1158 1159 1164
f 1164 1159 1165
f 1164 1028 1023
f 1164 1023 1158
f 1166 1163 1162
f 1166 1162 1026
f 1029 1166 1026
f 1167 1166 1029
f 1169 1167 1168
f 1167 1030 1168
f 1167 1029 1030
f 1032 1168 1030
f 1164 1165 1170
f 1170 1165 1171
f 1172 1033 1028
f 1164 1172 1028
f 1170 1172 1164
f 1172 1035 1033
f 1169 1168 1037
f 1038 1169 1037
f 1173 1169 1038
f 1037 1168 1032
f 1171 1174 1170
f 1176 1175 1174
f 1175 1170 1174
f 1175 1172 1170
f 1177 1040 1035
f 1172 1177 1035
f 1175 1177 1172
f 1177 1041 1040
f 1178 1173 1038
f 1178 1038 1042
f 1042 1043 1178
f 1178 1043 1179
f 1176 1180 1175
f 1182 1181 1180
f 1181 1175 1180
f 1181 1177 1175
f 1181 1046 1041
f 1181 1041 1177
f 1185 1184 1183
f 1184 1179 1183
f 1179 1048 1183
f 1179 1043 1048
f 1181 1182 1186
f 1186 1182 1187
f 1188 1050 1046
f 1181 1188 1046
f 1186 1188 1181
f 1188 1051 1050
f 1189 1185 1183
f 1191 1189 1190
f 1190 1189 1052
f 1189 1183 1052
f 1183 1048 1052
f 1053 1190 1052
f 1187 1192 1186
f 1194 1193 1192
f 1193 1186 1192
f 1193 1188 1186
f 1193 1056 1051
f 1193 1051 1188
f 1195 1191 1190
f 1197 1195 1196
f 1196 1195 1057
f 1195 1190 1057
f 1190 1053 1057
f 1058 1196 1057
f 1193 1194 1198
f 1198 1194 1199
f 1198 1060 1056
f 1198 1056 1193
f 1200 1197 1196
f 1196 1058 1200
f 1058 1201 1200
f 1058 1062 1201
f 1198 1199 1065
f 1199 1064 1065
f 1199 1202 1064
f 1198 1065 1060
f 1203 1201 1062
f 1203 1062 1066
f 1066 1067 1203
f 1203 1067 1204
f 1202 1205 1064
f 1064 1205 1068
f 1069 1068 1205
f 1069 1205 1206
f 1071 1204 1067
f 1071 1207 1204
f 1206 1072 1069
f 1208 1072 1206
f 1073 1207 1071
f 1073 1209 1207
f 1208 1075 1072
f 1210 1075 1208
f 1212 1211 1076
f 1212 1076 1077
f 1073 1076 1209
f 1209 1076 1211
f 1214 1079 1213
f 1079 1210 1213
f 1079 1075 1210
f 1215 1214 1213
f 1081 1216 1080
f 1080 1216 1217
f 1218 1080 1217
f 1082 1080 1218
f 1077 1082 1212
f 1212 1082 1218
f 1214 1083 1079
f 1215 1219 1214
f 1219 1083 1214
f 1219 1084 1083
f 1219 1221 1220
f 1085 1219 1220
f 1084 1219 1085
f 1220 1087 1085
f 1089 1222 1088
f 1088 1222 1223
f 1224 1088 1223
f 1090 1088 1224
f 1081 1090 1216
f 1090 1225 1216
f 1090 1224 1225
f 1216 1225 1217
f 1221 1226 1220
f 1220 1226 1087
f 1226 1091 1087
f 1226 1227 1091
f 1092 1091 1227
f 1092 1227 1228
f 1230 1229 1094
f 1230 1094 1095
f 1094 1231 1096
f 1229 1231 1094
f 1089 1096 1222
f 1096 1232 1222
f 1096 1231 1232
f 1222 1232 1223
f 1228 1233 1092
f 1092 1233 1097
f 1095 1097 1230
f 1230 1097 1233
f 1234 1099 1100
f 1101 1235 1100
f 1100 1235 1234
f 1103 1235 1101
f 1237 1236 1234
f 1236 1099 1234
f 1236 1105 1099
f 1107 1238 1106
f 1238 1234 1106
f 1234 1235 1106
f 1238 1237 1234
f 1106 1235 1103
f 1236 1109 1105
f 1239 1109 1236
f 1240 1238 1107
f 1240 1107 1110
f 1110 1112 1240
f 1240 1112 1241
f 1239 1113 1109
f 1242 1113 1239
f 1115 1241 1112
f 1115 1243 1241
f 1245 1116 1244
f 1116 1242 1244
f 1116 1113 1242
f 1247 1246 1245
f 1247 1245 1244
f 1247 1243 1246
f 1243 1118 1246
f 1243 1115 1118
f 1248 1121 1245
f 1245 1121 1116
f 1246 1250 1249
f 1248 1246 1249
f 1245 1246 1248
f 1246 1118 1250
f 1118 1251 1250
f 1118 1123 1251
f 1252 1124 1125
f 1126 1252 1125
f 1254 1253 1131
f 1131 1253 1130
f 1131 1121 1248
f 1255 1131 1248
f 1254 1131 1255
f 1255 1248 1249
f 1256 1251 1123
f 1256 1123 1132
f 1256 1132 1124
f 1257 1256 1124
f 1252 1257 1124
f 1256 1257 1258
f 1134 1257 1126
f 1126 1257 1252
f 1261 1260 1259
f 1253 1261 1259
f 1136 1253 1259
f 1130 1253 1136
f 1258 1257 1262
f 1258 1262 1263
f 1138 1262 1134
f 1134 1262 1257
f 1259 1260 1140
f 1260 1139 1140
f 1260 1264 1139
f 1259 1140 1136
f 1263 1262 1265
f 1263 1265 1266
f 1141 1267 1138
f 1267 1262 1138
f 1267 1265 1262
f 1142 1267 1141
f 1270 1269 1268
f 1264 1270 1268
f 1143 1264 1268
f 1139 1264 1143
f 1272 1271 1145
f 1272 1145 1146
f 1265 1148 1266
f 1148 1271 1266
f 1148 1145 1271
f 1148 1265 1150
f 1150 1265 1267
f 1150 1267 1142
f 1268 1269 1152
f 1269 1151 1152
f 1269 1273 1151
f 1268 1152 1143
f 1146 1153 1274
f 1275 1146 1274
f 1272 1146 1275
f 1154 1276 1153
f 1153 1276 1274
f 1155 1277 1154
f 1154 1277 1276
f 1157 1277 1155
f 1279 1278 1160
f 1160 1278 1159
f 1160 1151 1273
f 1160 1273 1279
f 1280 1275 1274
f 1280 1274 1276
f 1280 1276 1281
f 1281 1276 1277
f 1281 1277 1282
f 1284 1282 1283
f 1283 1282 1161
f 1282 1277 1161
f 1277 1157 1161
f 1163 1283 1161
f 1278 1165 1159
f 1285 1165 1278
f 1284 1283 1286
f 1284 1286 1287
f 1166 1288 1163
f 1288 1283 1163
f 1288 1286 1283
f 1167 1289 1166
f 1166 1289 1288
f 1169 1289 1167
f 1285 1171 1165
f 1290 1171 1285
f 1291 1287 1286
f 1293 1292 1291
f 1286 1293 1291
f 1288 1293 1286
f 1294 1288 1289
f 1293 1288 1294
f 1173 1294 1169
f 1169 1294 1289
f 1174 1171 1295
f 1171 1296 1295
f 1171 1290 1296
f 1295 1176 1174
f 1292 1293 1297
f 1292 1297 1298
f 1299 1293 1294
f 1297 1293 1299
f 1178 1300 1173
f 1300 1294 1173
f 1300 1299 1294
f 1179 1300 1178
f 1296 1301 1295
f 1301 1303 1302
f 1301 1302 1180
f 1295 1301 1180
f 1176 1295 1180
f 1302 1182 1180
f 1304 1298 1297
f 1306 1305 1304
f 1297 1306 1304
f 1299 1306 1297
f 1185 1306 1184
f 1306 1300 1184
f 1306 1299 1300
f 1184 1300 1179
f 1303 1307 1302
f 1182 1302 1307
f 1308 1182 1307
f 1187 1182 1308
f 1311 1310 1309
f 1309 1310 1305
f 1306 1309 1305
f 1312 1309 1306
f 1189 1313 1185
f 1313 1306 1185
f 1313 1312 1306
f 1191 1313 1189
f 1192 1187 1314
f 1187 1315 1314
f 1187 1308 1315
f 1314 1194 1192
f 1316 1311 1309
f 1316 1309 1312
f 1316 1312 1317
f 1319 1318 1317
f 1312 1319 1317
f 1313 1319 1312
f 1195 1320 1191
f 1320 1313 1191
f 1320 1319 1313
f 1197 1320 1195
f 1314 1315 1321
f 1321 1315 1322
f 1321 1199 1194
f 1321 1194 1314
f 1323 1318 1319
f 1323 1319 1320
f 1323 1320 1324
f 1324 1320 1197
f 1200 1324 1197
f 1325 1324 1200
f 1327 1326 1201
f 1326 1200 1201
f 1326 1325 1200
f 1327 1328 1326
f 1322 1329 1321
f 1199 1321 1329
f 1330 1199 1329
f 1202 1199 1330
f 1203 1327 1201
f 1203 1204 1327
f 1204 1328 1327
f 1204 1331 1328
f 1330 1332 1202
f 1202 1332 1205
f 1206 1205 1332
f 1206 1332 1333
f 1207 1331 1204
f 1207 1334 1331
f 1333 1208 1206
f 1335 1208 1333
f 1338 1337 1336
f 1337 1334 1336
f 1334 1209 1336
f 1334 1207 1209
f 1335 1210 1208
f 1339 1210 1335
f 1338 1336 1211
f 1212 1338 1211
f 1340 1338 1212
f 1211 1336 1209
f 1339 1341 1210
f 1210 1341 1213
f 1215 1213 1341
f 1215 1341 1342
f 1344 1343 1218
f 1344 1218 1217
f 1212 1218 1340
f 1340 1218 1343
f 1342 1345 1215
f 1215 1345 1219
f 1347 1346 1221
f 1219 1347 1221
f 1345 1347 1219
f 1348 1346 1347
f 1351 1350 1349
f 1353 1352 1349
f 1353 1349 1350
f 1354 1352 1353
f 1356 1355 1224
f 1356 1224 1223
f 1224 1357 1225
f 1355 1357 1224
f 1217 1225 1344
f 1344 1225 1357
f 1346 1226 1221
f 1348 1358 1346
f 1358 1226 1346
f 1358 1227 1226
f 1349 1359 1228
f 1358 1349 1228
f 1227 1358 1228
f 1351 1349 1358
f 1230 1359 1229
f 1359 1352 1229
f 1359 1349 1352
f 1354 1360 1352
f 1360 1229 1352
f 1360 1231 1229
f 1231 1361 1232
f 1360 1361 1231
f 1223 1232 1356
f 1356 1232 1361
f 1359 1233 1228
f 1233 1359 1230
f 1362 1236 1237
f 1238 1362 1237
f 1363 1239 1362
f 1362 1239 1236
f 1240 1364 1238
f 1364 1362 1238
f 1364 1363 1362
f 1241 1364 1240
f 1365 1242 1363
f 1363 1242 1239
f 1366 1363 1364
f 1365 1363 1366
f 1243 1366 1241
f 1241 1366 1364
f 1365 1244 1242
f 1244 1365 1247
f 1247 1365 1366
f 1247 1366 1243
f 1368 1367 1250
f 1250 1367 1249
f 1250 1251 1368
f 1368 1251 1369
f 1371 1370 1254
f 1254 1370 1253
f 1372 1254 1255
f 1372 1371 1254
f 1255 1249 1367
f 1255 1367 1372
f 1373 1369 1251
f 1373 1251 1256
f 1256 1258 1373
f 1373 1258 1374
f 1376 1375 1261
f 1261 1375 1260
f 1261 1253 1370
f 1261 1370 1376
f 1263 1378 1377
f 1374 1263 1377
f 1258 1263 1374
f 1378 1379 1377
f 1375 1264 1260
f 1380 1264 1375
f 1383 1382 1381
f 1385 1384 1381
f 1385 1381 1382
f 1385 1386 1378
f 1266 1385 1378
f 1263 1266 1378
f 1384 1385 1266
f 1378 1386 1379
f 1388 1387 1270
f 1270 1387 1269
f 1270 1264 1380
f 1270 1380 1388
f 1389 1383 1381
f 1272 1390 1271
f 1390 1381 1271
f 1381 1384 1271
f 1390 1389 1381
f 1271 1384 1266
f 1387 1273 1269
f 1391 1273 1387
f 1394 1393 1392
f 1393 1390 1392
f 1390 1275 1392
f 1390 1272 1275
f 1396 1395 1279
f 1279 1395 1278
f 1279 1273 1391
f 1279 1391 1396
f 1397 1394 1392
f 1397 1392 1275
f 1280 1397 1275
f 1398 1397 1280
f 1399 1280 1281
f 1399 1398 1280
f 1400 1281 1282
f 1400 1399 1281
f 1282 1284 1400
f 1400 1284 1401
f 1395 1285 1278
f 1402 1285 1395
f 1405 1404 1403
f 1404 1401 1403
f 1401 1287 1403
f 1401 1284 1287
f 1402 1290 1285
f 1406 1290 1402
f 1407 1405 1403
f 1407 1403 1287
f 1291 1407 1287
f 1408 1407 1291
f 1291 1292 1408
f 1408 1292 1409
f 1406 1296 1290
f 1410 1296 1406
f 1298 1409 1292
f 1298 1411 1409
f 1410 1412 1296
f 1296 1412 1301
f 1303 1301 1412
f 1303 1412 1413
f 1416 1415 1414
f 1417 1414 1304
f 1414 1411 1304
f 1411 1298 1304
f 1411 1414 1415
f 1305 1417 1304
f 1413 1418 1303
f 1303 1418 1307
f 1308 1307 1418
f 1308 1418 1419
f 1416 1414 1420
f 1416 1420 1421
f 1311 1420 1310
f 1420 1417 1310
f 1420 1414 1417
f 1310 1417 1305
f 1419 1315 1308
f 1422 1315 1419
f 1423 1421 1420
f 1423 1420 1311
f 1316 1423 1311
f 1424 1423 1316
f 1425 1316 1317
f 1425 1424 1316
f 1317 1318 1425
f 1425 1318 1426
f 1428 1322 1427
f 1322 1422 1427
f 1322 1315 1422
f 1429 1428 1427
f 1432 1431 1430
f 1434 1433 1430
f 1434 1430 1431
f 1435 1433 1323
f 1433 1426 1323
f 1426 1318 1323
f 1426 1433 1434
f 1324 1436 1323
f 1323 1436 1435
f 1325 1437 1324
f 1324 1437 1436
f 1326 1438 1325
f 1325 1438 1437
f 1328 1438 1326
f 1428 1329 1322
f 1330 1329 1428
f 1429 1330 1428
f 1439 1330 1429
f 1440 1432 1430
f 1440 1430 1433
f 1440 1433 1441
f 1441 1433 1435
f 1441 1435 1442
f 1442 1435 1436
f 1442 1436 1443
f 1443 1436 1437
f 1443 1437 1444
f 1446 1445 1444
f 1437 1446 1444
f 1438 1446 1437
f 1331 1446 1328
f 1328 1446 1438
f 1439 1447 1330
f 1330 1447 1332
f 1333 1332 1447
f 1333 1447 1448
f 1445 1446 1449
f 1445 1449 1450
f 1334 1449 1331
f 1331 1449 1446
f 1448 1335 1333
f 1451 1335 1448
f 1454 1453 1452
f 1452 1453 1450
f 1452 1450 1449
f 1338 1452 1449
f 1337 1338 1449
f 1337 1449 1334
f 1451 1339 1335
f 1455 1339 1451
f 1454 1452 1456
f 1454 1456 1457
f 1340 1456 1338
f 1338 1456 1452
f 1455 1458 1339
f 1339 1458 1341
f 1342 1341 1458
f 1342 1458 1459
f 1462 1461 1460
f 1460 1461 1457
f 1460 1457 1456
f 1344 1460 1456
f 1343 1344 1456
f 1343 1456 1340
f 1459 1463 1342
f 1342 1463 1345
f 1345 1464 1347
f 1463 1464 1345
f 1348 1347 1464
f 1348 1464 1465
f 1467 1466 1350
f 1467 1350 1351
f 1350 1468 1353
f 1466 1468 1350
f 1354 1353 1468
f 1354 1468 1469
f 1471 1470 1355
f 1471 1355 1356
f 1460 1357 1462
f 1357 1470 1462
f 1357 1355 1470
f 1357 1460 1344
f 1465 1472 1348
f 1348 1472 1358
f 1351 1358 1467
f 1467 1358 1472
f 1469 1473 1354
f 1354 1473 1360
f 1473 1475 1474
f 1361 1473 1474
f 1360 1473 1361
f 1474 1476 1361
f 1476 1356 1361
f 1476 1471 1356
f 1475 1477 1474
f 1474 1477 1476
f 1478 1367 1368
f 1369 1478 1368
f 1479 1370 1371
f 1372 1480 1371
f 1371 1480 1479
f 1367 1478 1372
f 1478 1480 1372
f 1478 1481 1480
f 1481 1478 1369
f 1482 1481 1369
f 1373 1482 1369
f 1483 1481 1482
f 1373 1374 1482
f 1482 1374 1484
f 1485 1375 1376
f 1370 1479 1376
f 1479 1485 1376
f 1479 1486 1485
f 1487 1479 1480
f 1486 1479 1487
f 1488 1480 1481
f 1487 1480 1488
f 1481 1483 1489
f 1481 1489 1488
f 1490 1484 1374
f 1490 1374 1377
f 1377 1379 1490
f 1490 1379 1491
f 1492 1380 1485
f 1485 1380 1375
f 1486 1494 1493
f 1492 1486 1493
f 1485 1486 1492
f 1496 1495 1494
f 1486 1496 1494
f 1487 1496 1486
f 1383 1496 1382
f 1496 1488 1382
f 1496 1487 1488
f 1489 1497 1488
f 1497 1382 1488
f 1497 1385 1382
f 1385 1498 1386
f 1497 1498 1385
f 1379 1386 1491
f 1491 1386 1498
f 1500 1499 1388
f 1388 1499 1387
f 1388 1380 1492
f 1501 1388 1492
f 1500 1388 1501
f 1501 1492 1493
f 1502 1495 1496
f 1504 1502 1503
f 1503 1502 1389
f 1502 1496 1389
f 1496 1383 1389
f 1390 1503 1389
f 1499 1391 1387
f 1505 1391 1499
f 1504 1503 1393
f 1394 1504 1393
f 1506 1504 1394
f 1393 1503 1390
f 1508 1507 1396
f 1396 1507 1395
f 1396 1391 1505
f 1396 1505 1508
f 1509 1506 1394
f 1509 1394 1397
f 1510 1397 1398
f 1510 1509 1397
f 1511 1398 1399
f 1511 1510 1398
f 1513 1511 1512
f 1511 1400 1512
f 1511 1399 1400
f 1401 1512 1400
f 1507 1402 1395
f 1514 1402 1507
f 1517 1516 1515
f 1515 1516 1513
f 1515 1513 1512
f 1405 1515 1512
f 1404 1405 1512
f 1404 1512 1401
f 1514 1406 1402
f 1518 1406 1514
f 1517 1515 1519
f 1517 1519 1520
f 1407 1521 1405
f 1521 1515 1405
f 1521 1519 1515
f 1408 1522 1407
f 1407 1522 1521
f 1409 1522 1408
f 1524 1410 1523
f 1410 1518 1523
f 1410 1406 1518
f 1526 1525 1524
f 1526 1524 1523
f 1527 1525 1526
f 1520 1519 1528
f 1520 1528 1529
f 1530 1519 1521
f 1528 1519 1530
f 1531 1521 1522
f 1530 1521 1531
f 1411 1531 1409
f 1409 1531 1522
f 1524 1412 1410
f 1412 1524 1413
f 1524 1532 1413
f 1524 1525 1532
f 1525 1527 1533
f 1525 1533 1532
f 1534 1529 1528
f 1534 1528 1530
f 1534 1530 1535
f 1416 1536 1415
f 1536 1530 1415
f 1530 1531 1415
f 1536 1535 1530
f 1415 1531 1411
f 1532 1418 1413
f 1419 1418 1532
f 1533 1419 1532
f 1537 1419 1533
f 1540 1539 1538
f 1542 1541 1538
f 1542 1538 1539
f 1543 1541 1542
f 1421 1536 1416
f 1421 1544 1536
f 1537 1422 1419
f 1545 1422 1537
f 1546 1540 1538
f 1548 1547 1546
f 1538 1548 1546
f 1541 1548 1538
f 1541 1543 1549
f 1550 1541 1549
f 1548 1541 1550
f 1551 1550 1423
f 1550 1544 1423
f 1544 1421 1423
f 1544 1550 1549
f 1424 1552 1423
f 1423 1552 1551
f 1425 1553 1424
f 1424 1553 1552
f 1426 1553 1425
f 1545 1554 1422
f 1422 1554 1427
f 1429 1427 1554
f 1429 1554 1555
f 1558 1557 1556
f 1559 1556 1557
f 1560 1547 1548
f 1562 1561 1560
f 1548 1562 1560
f 1550 1562 1548
f 1563 1550 1551
f 1562 1550 1563
f 1432 1563 1431
f 1563 1552 1431
f 1563 1551 1552
f 1431 1552 1434
f 1434 1552 1553
f 1434 1553 1426
f 1555 1439 1429
f 1564 1439 1555
f 1565 1558 1556
f 1568 1567 1566
f 1559 1565 1556
f 1569 1567 1568
f 1561 1562 1570
f 1561 1570 1571
f 1572 1562 1563
f 1570 1562 1572
f 1440 1573 1432
f 1573 1563 1432
f 1573 1572 1563
f 1441 1574 1440
f 1440 1574 1573
f 1442 1575 1441
f 1441 1575 1574
f 1443 1576 1442
f 1442 1576 1575
f 1576 1443 1577
f 1443 1578 1577
f 1443 1444 1578
f 1580 1579 1445
f 1579 1444 1445
f 1579 1578 1444
f 1580 1581 1579
f 1564 1582 1439
f 1439 1582 1447
f 1448 1447 1582
f 1448 1582 1583
f 1566 1567 1584
f 1566 1584 1585
f 1567 1569 1586
f 1567 1586 1584
f 1587 1571 1570
f 1587 1570 1572
f 1587 1572 1588
f 1590 1589 1588
f 1572 1590 1588
f 1573 1590 1572
f 1591 1573 1574
f 1590 1573 1591
f 1592 1574 1575
f 1591 1574 1592
f 1593 1575 1576
f 1592 1575 1593
f 1576 1577 1594
f 1576 1594 1593
f 1596 1595 1580
f 1445 1596 1580
f 1450 1596 1445
f 1580 1595 1581
f 1583 1451 1448
f 1597 1451 1583
f 1600 1599 1598
f 1598 1599 1585
f 1584 1598 1585
f 1601 1598 1584
f 1584 1586 1602
f 1584 1602 1601
f 1589 1590 1603
f 1589 1603 1604
f 1605 1590 1591
f 1603 1590 1605
f 1606 1591 1592
f 1605 1591 1606
f 1607 1592 1593
f 1606 1592 1607
f 1608 1453 1454
f 1593 1608 1454
f 1607 1593 1454
f 1608 1593 1594
f 1450 1453 1596
f 1596 1453 1608
f 1597 1455 1451
f 1609 1455 1597
f 1610 1600 1598
f 1612 1611 1610
f 1598 1612 1610
f 1601 1612 1598
f 1601 1602 1613
f 1601 1613 1612
f 1614 1604 1603
f 1616 1615 1614
f 1603 1616 1614
f 1605 1616 1603
f 1617 1605 1606
f 1616 1605 1617
f 1618 1606 1607
f 1617 1606 1618
f 1457 1618 1454
f 1454 1618 1607
f 1609 1619 1455
f 1455 1619 1458
f 1459 1458 1619
f 1459 1619 1620
f 1611 1612 1621
f 1611 1621 1622
f 1612 1613 1623
f 1624 1612 1623
f 1621 1612 1624
f 1625 1624 1623
f 1626 1615 1616
f 1628 1627 1626
f 1616 1628 1626
f 1617 1628 1616
f 1462 1628 1461
f 1628 1618 1461
f 1628 1617 1618
f 1461 1618 1457
f 1620 1629 1459
f 1459 1629 1463
f 1621 1464 1622
f 1464 1629 1622
f 1464 1463 1629
f 1464 1621 1465
f 1621 1630 1465
f 1621 1624 1630
f 1632 1631 1625
f 1466 1625 1631
f 1625 1466 1624
f 1467 1624 1466
f 1624 1467 1630
f 1633 1468 1466
f 1633 1466 1631
f 1633 1469 1468
f 1627 1628 1470
f 1471 1627 1470
f 1634 1627 1471
f 1470 1628 1462
f 1630 1472 1465
f 1632 1635 1631
f 1472 1630 1467
f 1637 1636 1635
f 1636 1631 1635
f 1636 1633 1631
f 1638 1473 1469
f 1633 1638 1469
f 1636 1638 1633
f 1638 1475 1473
f 1476 1634 1471
f 1476 1639 1634
f 1637 1640 1636
f 1636 1640 1638
f 1638 1640 1641
f 1638 1641 1475
f 1641 1477 1475
f 1641 1642 1477
f 1476 1477 1639
f 1639 1477 1642
f 1643 1483 1482
f 1484 1643 1482
f 1644 1489 1643
f 1643 1489 1483
f 1490 1645 1484
f 1645 1643 1484
f 1645 1644 1643
f 1491 1645 1490
f 1646 1493 1494
f 1495 1646 1494
f 1644 1497 1489
f 1497 1644 1498
f 1498 1644 1645
f 1498 1645 1491
f 1647 1499 1500
f 1501 1648 1500
f 1500 1648 1647
f 1493 1646 1501
f 1646 1648 1501
f 1646 1649 1648
f 1502 1650 1495
f 1650 1646 1495
f 1650 1649 1646
f 1504 1650 1502
f 1652 1651 1647
f 1651 1499 1647
f 1651 1505 1499
f 1652 1647 1648
f 1652 1648 1653
f 1653 1648 1649
f 1653 1649 1654
f 1656 1655 1654
f 1649 1656 1654
f 1650 1656 1649
f 1506 1656 1504
f 1504 1656 1650
f 1658 1657 1508
f 1508 1657 1507
f 1508 1505 1651
f 1508 1651 1658
f 1655 1656 1659
f 1655 1659 1660
f 1509 1661 1506
f 1661 1656 1506
f 1661 1659 1656
f 1510 1662 1509
f 1509 1662 1661
f 1511 1663 1510
f 1510 1663 1662
f 1513 1663 1511
f 1657 1514 1507
f 1664 1514 1657
f 1660 1659 1665
f 1660 1665 1666
f 1667 1659 1661
f 1665 1659 1667
f 1668 1661 1662
f 1667 1661 1668
f 1517 1668 1516
f 1668 1663 1516
f 1668 1662 1663
f 1516 1663 1513
f 1670 1518 1669
f 1518 1664 1669
f 1518 1514 1664
f 1672 1671 1670
f 1672 1670 1669
f 1674 1673 1671
f 1674 1671 1672
f 1676 1675 1673
f 1676 1673 1674
f 1675 1676 1666
f 1665 1675 1666
f 1677 1675 1665
f 1678 1665 1667
f 1677 1665 1678
f 1679 1667 1668
f 1678 1667 1679
f 1520 1679 1517
f 1517 1679 1668
f 1670 1523 1518
f 1523 1670 1526
f 1526 1670 1671
f 1526 1671 1527
f 1671 1680 1527
f 1671 1673 1680
f 1681 1673 1675
f 1680 1673 1681
f 1682 1675 1677
f 1681 1675 1682
f 1683 1677 1678
f 1682 1677 1683
f 1684 1678 1679
f 1683 1678 1684
f 1529 1684 1520
f 1520 1684 1679
f 1685 1533 1680
f 1680 1533 1527
f 1686 1680 1681
f 1685 1680 1686
f 1687 1681 1682
f 1686 1681 1687
f 1688 1682 1683
f 1687 1682 1688
f 1689 1683 1684
f 1688 1683 1689
f 1534 1690 1529
f 1690 1684 1529
f 1690 1689 1684
f 1535 1691 1534
f 1534 1691 1690
f 1536 1691 1535
f 1693 1692 1685
f 1692 1533 1685
f 1692 1537 1533
f 1695 1694 1693
f 1685 1695 1693
f 1686 1695 1685
f 1696 1686 1687
f 1695 1686 1696
f 1697 1687 1688
f 1696 1687 1697
f 1540 1697 1539
f 1697 1689 1539
f 1697 1688 1689
f 1539 1689 1542
f 1542 1689 1690
f 1542 1690 1543
f 1690 1698 1543
f 1690 1691 1698
f 1544 1698 1536
f 1536 1698 1691
f 1692 1545 1537
f 1699 1545 1692
f 1700 1694 1695
f 1700 1695 1696
f 1700 1696 1701
f 1701 1696 1697
f 1701 1697 1702
f 1704 1702 1703
f 1703 1702 1546
f 1702 1697 1546
f 1697 1540 1546
f 1547 1703 1546
f 1698 1549 1543
f 1549 1698 1544
f 1699 1705 1545
f 1545 1705 1554
f 1707 1706 1555
f 1554 1707 1555
f 1705 1707 1554
f 1709 1708 1706
f 1709 1706 1707
f 1557 1558 1708
f 1709 1557 1708
f 1710 1557 1709
f 1703 1711 1559
f 1710 1703 1559
f 1557 1710 1559
f 1704 1703 1710
f 1560 1712 1547
f 1712 1703 1547
f 1712 1711 1703
f 1561 1712 1560
f 1713 1564 1706
f 1706 1564 1555
f 1714 1706 1708
f 1713 1706 1714
f 1565 1715 1558
f 1715 1708 1558
f 1715 1714 1708
f 1565 1559 1715
f 1559 1711 1715
f 1568 1566 1715
f 1568 1715 1711
f 1568 1711 1569
f 1711 1716 1569
f 1711 1712 1716
f 1571 1716 1561
f 1561 1716 1712
f 1718 1717 1578
f 1578 1717 1577
f 1720 1718 1719
f 1718 1579 1719
f 1718 1578 1579
f 1581 1719 1579
f 1713 1582 1564
f 1582 1713 1583
f 1713 1721 1583
f 1713 1714 1721
f 1722 1714 1715
f 1721 1714 1722
f 1585 1722 1566
f 1566 1722 1715
f 1723 1586 1716
f 1716 1586 1569
f 1587 1724 1571
f 1724 1716 1571
f 1724 1723 1716
f 1588 1725 1587
f 1587 1725 1724
f 1589 1725 1588
f 1727 1594 1726
f 1594 1717 1726
f 1594 1577 1717
f 1727 1726 1720
f 1727 1720 1719
f 1596 1727 1719
f 1595 1596 1719
f 1595 1719 1581
f 1728 1597 1721
f 1721 1597 1583
f 1600 1728 1599
f 1728 1722 1599
f 1728 1721 1722
f 1599 1722 1585
f 1729 1602 1723
f 1723 1602 1586
f 1730 1723 1724
f 1729 1723 1730
f 1731 1724 1725
f 1730 1724 1731
f 1604 1731 1589
f 1589 1731 1725
f 1727 1608 1594
f 1608 1727 1596
f 1732 1609 1728
f 1728 1609 1597
f 1610 1733 1600
f 1733 1728 1600
f 1733 1732 1728
f 1611 1733 1610
f 1734 1613 1729
f 1729 1613 1602
f 1735 1729 1730
f 1734 1729 1735
f 1731 1737 1736
f 1735 1731 1736
f 1730 1731 1735
f 1739 1737 1738
f 1738 1737 1614
f 1737 1731 1614
f 1731 1604 1614
f 1615 1738 1614
f 1732 1619 1609
f 1619 1732 1620
f 1732 1740 1620
f 1732 1733 1740
f 1622 1740 1611
f 1611 1740 1733
f 1734 1623 1613
f 1623 1734 1625
f 1734 1741 1625
f 1734 1735 1741
f 1735 1736 1742
f 1735 1742 1741
f 1739 1738 1743
f 1739 1743 1744
f 1626 1745 1615
f 1745 1738 1615
f 1745 1743 1738
f 1627 1745 1626
f 1740 1629 1620
f 1629 1740 1622
f 1746 1632 1741
f 1741 1632 1625
f 1741 1742 1747
f 1741 1747 1746
f 1744 1743 1748
f 1744 1748 1749
f 1750 1743 1745
f 1748 1743 1750
f 1634 1750 1627
f 1627 1750 1745
f 1746 1635 1632
f 1637 1635 1746
f 1747 1637 1746
f 1751 1637 1747
f 1752 1749 1748
f 1752 1748 1750
f 1752 1750 1753
f 1750 1634 1753
f 1634 1754 1753
f 1634 1639 1754
f 1751 1755 1637
f 1637 1755 1640
f 1640 1756 1641
f 1755 1756 1640
f 1641 1757 1642
f 1756 1757 1641
f 1639 1642 1754
f 1754 1642 1757
f 1758 1651 1652
f 1653 1759 1652
f 1652 1759 1758
f 1654 1760 1653
f 1653 1760 1759
f 1655 1760 1654
f 1761 1657 1658
f 1651 1758 1658
f 1758 1761 1658
f 1758 1762 1761
f 1763 1758 1759
f 1762 1758 1763
f 1764 1759 1760
f 1763 1759 1764
f 1660 1764 1655
f 1655 1764 1760
f 1765 1664 1761
f 1761 1664 1657
f 1766 1761 1762
f 1765 1761 1766
f 1767 1762 1763
f 1766 1762 1767
f 1768 1763 1764
f 1767 1763 1768
f 1666 1768 1660
f 1660 1768 1764
f 1765 1669 1664
f 1669 1765 1672
f 1672 1765 1766
f 1672 1766 1674
f 1674 1766 1767
f 1674 1767 1676
f 1676 1767 1768
f 1676 1768 1666
f 1769 1692 1693
f 1694 1769 1693
f 1770 1699 1769
f 1769 1699 1692
f 1700 1771 1694
f 1771 1769 1694
f 1771 1770 1769
f 1701 1772 1700
f 1700 1772 1771
f 1702 1773 1701
f 1701 1773 1772
f 1704 1773 1702
f 1770 1705 1699
f 1705 1770 1707
f 1707 1770 1771
f 1707 1771 1709
f 1709 1771 1772
f 1709 1772 1710
f 1710 1772 1773
f 1710 1773 1704
f 1774 1717 1718
f 1720 1774 1718
f 1774 1726 1717
f 1726 1774 1720
f 1775 1736 1737
f 1739 1775 1737
f 1776 1742 1775
f 1775 1742 1736
f 1744 1776 1739
f 1739 1776 1775
f 1777 1747 1776
f 1776 1747 1742
f 1749 1777 1744
f 1744 1777 1776
f 1778 1751 1777
f 1777 1751 1747
f 1752 1779 1749
f 1779 1777 1749
f 1779 1778 1777
f 1753 1780 1752
f 1752 1780 1779
f 1754 1780 1753
f 1778 1755 1751
f 1755 1778 1756
f 1756 1778 1779
f 1756 1779 1757
f 1757 1779 1780
f 1757 1780 1754
