v -54.2 -14.0 9.0
v -54.0 -14.0 8.5
v -54.0 -14.3 9.0
v -54.0 -14.4 10.0
v -54.2 -14.0 10.0
v -54.0 -14.3 11.0
v -54.2 -14.0 11.0
v -54.0 -14.0 11.8
v -54.3 -13.0 7.0
v -54.0 -13.0 6.6
v -54.0 -13.3 7.0
v -54.0 -13.6 8.0
v -54.4 -13.0 8.0
v -54.2 -13.0 9.0
v -54.0 -13.0 9.4
v -54.0 -13.6 10.0
v -54.0 -13.8 11.0
v -54.1 -12.0 6.0
v -54.0 -12.0 5.9
v -54.0 -12.2 6.0
v -54.5 -12.0 7.0
v -54.2 -12.0 8.0
v -54.0 -12.0 8.3
v -54.0 -12.7 9.0
v -54.0 -11.9 6.0
v -54.0 -11.0 7.0
v -54.0 -11.0 7.0
v -54.0 -11.0 7.0
v -54.0 -11.7 8.0
v -54.0 -11.0 7.0
v -53.1 -21.0 15.0
v -53.0 -21.0 14.9
v -53.0 -21.1 15.0
v -53.0 -21.0 15.1
v -53.3 -20.0 14.0
v -53.0 -20.0 13.5
v -53.0 -20.5 14.0
v -53.2 -20.0 15.0
v -53.0 -20.0 15.2
v -53.1 -19.0 12.0
v -53.0 -19.0 11.9
v -53.0 -19.2 12.0
v -53.0 -19.6 13.0
v -53.4 -19.0 13.0
v -53.8 -19.0 14.0
v -53.0 -19.0 14.5
v -53.0 -19.8 15.0
v -53.0 -18.8 12.0
v -53.3 -18.0 13.0
v -53.0 -18.0 12.6
v -53.2 -18.0 14.0
v -53.0 -18.0 14.2
v -53.3 -17.0 13.0
v -53.0 -17.0 12.4
v -53.0 -17.0 14.0
v -53.0 -17.0 14.0
v -53.3 -16.0 9.0
v -53.0 -16.0 8.5
v -53.0 -16.4 9.0
v -53.0 -16.5 10.0
v -53.4 -16.0 10.0
v -53.0 -16.5 11.0
v -53.4 -16.0 11.0
v -53.0 -16.6 12.0
v -53.4 -16.0 12.0
v -53.2 -16.0 13.0
v -53.0 -16.0 13.2
v -53.0 -17.0 14.0
v -53.3 -15.0 7.0
v -53.0 -15.0 6.7
v -53.0 -15.3 7.0
v -53.0 -15.6 8.0
v -53.4 -15.0 8.0
v -53.6 -15.0 9.0
v -53.6 -15.0 10.0
v -53.6 -15.0 11.0
v -53.5 -15.0 12.0
v -53.0 -15.0 12.5
v -53.0 -15.7 13.0
v -53.5 -14.0 7.0
v -53.0 -14.0 6.3
v -53.7 -14.0 8.0
v -53.9 -14.0 12.0
v -53.0 -14.0 12.3
v -53.3 -13.0 5.0
v -53.0 -13.0 4.7
v -53.0 -13.3 5.0
v -53.0 -13.7 6.0
v -53.6 -13.0 6.0
v -53.4 -13.0 10.0
v -53.0 -13.0 10.4
v -53.0 -13.4 11.0
v -53.0 -13.7 12.0
v -53.2 -12.0 5.0
v -53.0 -12.0 4.8
v -53.0 -12.4 9.0
v -53.0 -12.0 8.3
v -53.0 -12.7 10.0
v -53.0 -11.8 5.0
v -53.0 -11.5 6.0
v -54.0 -11.0 7.0
v -53.0 -11.5 7.0
v -53.0 -11.7 8.0
v -52.2 -24.0 15.0
v -52.0 -24.0 14.7
v -52.0 -24.3 15.0
v -52.0 -24.0 15.9
v -52.0 -23.0 12.0
v -52.0 -23.0 12.0
v -52.0 -23.0 12.0
v -52.0 -23.0 12.0
v -52.2 -23.0 15.0
v -52.0 -23.0 14.5
v -52.0 -23.0 15.3
v -52.4 -22.0 12.0
v -52.0 -22.0 11.5
v -52.0 -22.6 13.0
v -52.4 -22.0 13.0
v -52.0 -22.6 14.0
v -52.4 -22.0 14.0
v -52.4 -22.0 15.0
v -52.0 -22.0 15.4
v -52.3 -21.0 11.0
v -52.0 -21.0 10.6
v -52.0 -21.4 11.0
v -52.5 -21.0 12.0
v -52.5 -21.0 13.0
v -52.7 -21.0 14.0
v -52.0 -21.0 15.4
v -52.4 -20.0 11.0
v -52.0 -20.0 10.4
v -52.6 -20.0 12.0
v -52.7 -20.0 13.0
v -52.0 -20.0 15.2
v -52.3 -19.0 10.0
v -52.0 -19.0 9.5
v -52.0 -19.5 10.0
v -52.5 -19.0 11.0
v -52.0 -19.7 15.0
v -52.0 -19.0 14.3
v -52.3 -18.0 9.0
v -52.0 -18.0 8.5
v -52.0 -18.5 9.0
v -52.4 -18.0 10.0
v -52.1 -18.0 11.0
v -52.5 -18.0 12.0
v -52.0 -18.1 13.0
v -52.0 -18.0 12.9
v -52.2 -18.0 13.0
v -52.7 -18.0 14.0
v -52.0 -18.6 14.0
v -52.2 -17.0 6.0
v -52.0 -17.0 5.8
v -52.0 -17.3 6.0
v -52.0 -17.5 7.0
v -52.4 -17.0 7.0
v -52.0 -17.6 8.0
v -52.4 -17.0 8.0
v -52.6 -17.0 9.0
v -52.6 -17.0 10.0
v -52.5 -17.0 11.0
v -52.7 -17.0 12.0
v -52.0 -17.8 13.0
v -52.0 -17.0 13.3
v -53.0 -17.0 14.0
v -52.4 -16.0 6.0
v -52.0 -16.0 5.5
v -52.6 -16.0 7.0
v -52.7 -16.0 8.0
v -52.0 -16.0 13.3
v -52.5 -15.0 6.0
v -52.0 -15.0 5.3
v -52.0 -15.7 13.0
v -52.0 -15.0 12.6
v -52.3 -14.0 4.0
v -52.0 -14.0 3.7
v -52.0 -14.3 4.0
v -52.0 -14.7 5.0
v -52.5 -14.0 5.0
v -52.7 -14.0 6.0
v -52.0 -14.0 12.2
v -52.3 -13.0 4.0
v -52.0 -13.0 3.8
v -52.0 -13.5 11.0
v -52.0 -13.0 10.5
v -52.0 -13.8 12.0
v -52.0 -12.7 4.0
v -52.0 -12.0 4.7
v -52.4 -12.0 7.0
v -52.0 -12.3 7.0
v -52.0 -12.0 6.5
v -52.6 -12.0 8.0
v -52.0 -12.4 8.0
v -52.0 -12.5 9.0
v -52.0 -12.6 10.0
v -52.0 -11.8 5.0
v -52.0 -11.7 6.0
v -51.1 -25.0 14.0
v -51.0 -25.0 13.9
v -51.0 -25.1 14.0
v -51.0 -25.1 15.0
v -51.1 -25.0 15.0
v -51.0 -25.0 15.1
v -51.5 -24.0 14.0
v -51.0 -24.0 13.4
v -51.0 -24.1 16.0
v -51.6 -24.0 16.0
v -51.0 -24.0 16.1
v -51.0 -23.0 11.5
v -51.0 -23.4 12.0
v -51.0 -23.6 13.0
v -51.6 -23.0 13.0
v -51.7 -23.0 14.0
v -51.0 -23.9 16.0
v -51.0 -23.0 15.6
v -51.5 -22.0 11.0
v -51.0 -22.0 10.4
v -51.0 -22.5 11.0
v -51.0 -22.0 15.5
v -51.2 -21.0 9.0
v -51.0 -21.0 8.7
v -51.0 -21.3 9.0
v -51.0 -21.6 10.0
v -51.5 -21.0 10.0
v -51.0 -21.0 15.2
v -51.4 -20.0 9.0
v -51.0 -20.0 8.4
v -51.7 -20.0 10.0
v -51.3 -20.0 14.0
v -51.0 -20.3 14.0
v -51.0 -20.0 13.8
v -51.7 -20.0 15.0
v -51.0 -20.7 15.0
v -51.3 -19.0 8.0
v -51.0 -19.0 7.5
v -51.0 -19.5 8.0
v -51.7 -19.0 9.0
v -51.7 -19.0 14.0
v -51.0 -19.0 13.4
v -51.3 -18.0 6.0
v -51.0 -18.0 5.7
v -51.0 -18.3 6.0
v -51.0 -18.6 7.0
v -51.5 -18.0 7.0
v -51.7 -18.0 8.0
v -51.0 -18.6 13.0
v -51.0 -18.0 12.6
v -51.0 -17.0 5.2
v -51.6 -17.0 13.0
v -51.0 -17.0 12.6
v -51.3 -16.0 4.0
v -51.0 -16.0 3.6
v -51.0 -16.3 4.0
v -51.0 -16.7 5.0
v -51.5 -16.0 5.0
v -51.7 -16.0 13.0
v -51.0 -16.0 12.6
v -51.3 -15.0 3.0
v -51.0 -15.0 2.8
v -51.0 -15.4 3.0
v -51.6 -15.0 4.0
v -51.7 -15.0 5.0
v -51.0 -15.0 12.3
v -51.3 -14.0 3.0
v -51.0 -14.0 2.8
v -51.3 -14.0 11.0
v -51.0 -14.3 11.0
v -51.0 -14.0 10.7
v -51.7 -14.0 12.0
v -51.0 -14.7 12.0
v -51.0 -13.7 3.0
v -51.0 -13.0 3.7
v -51.0 -13.0 10.2
v -51.0 -12.7 4.0
v -51.7 -12.0 5.0
v -51.0 -12.5 5.0
v -51.7 -12.0 6.0
v -51.0 -12.5 6.0
v -51.0 -12.6 7.0
v -51.0 -12.6 8.0
v -51.0 -12.6 9.0
v -51.0 -12.8 10.0
v -50.0 -25.0 13.9
v -50.0 -25.1 14.0
v -50.8 -25.0 15.0
v -50.0 -25.0 14.2
v -50.4 -24.0 13.0
v -50.0 -24.0 12.6
v -50.0 -24.3 13.0
v -50.0 -24.6 15.0
v -50.9 -24.0 16.0
v -50.0 -24.0 15.5
v -50.5 -23.0 11.0
v -50.0 -23.0 10.5
v -50.0 -23.3 11.0
v -50.0 -23.7 12.0
v -50.0 -23.0 15.5
v -50.4 -22.0 9.0
v -50.0 -22.0 8.5
v -50.0 -22.4 9.0
v -50.0 -22.6 10.0
v -50.6 -22.0 10.0
v -50.0 -22.0 15.2
v -50.4 -21.0 8.0
v -50.0 -21.0 7.5
v -50.0 -21.5 8.0
v -50.3 -21.0 14.0
v -50.0 -21.3 14.0
v -50.0 -21.0 13.7
v -50.7 -21.0 15.0
v -50.0 -21.7 15.0
v -50.3 -20.0 7.0
v -50.0 -20.0 6.5
v -50.0 -20.5 7.0
v -50.7 -20.0 8.0
v -50.0 -20.0 13.3
v -50.4 -19.0 6.0
v -50.0 -19.0 5.5
v -50.0 -19.5 6.0
v -50.7 -19.0 7.0
v -50.5 -19.0 13.0
v -50.0 -19.5 13.0
v -50.0 -19.0 12.6
v -50.4 -18.0 5.0
v -50.0 -18.0 4.5
v -50.0 -18.5 5.0
v -50.0 -18.0 12.4
v -50.4 -17.0 4.0
v -50.0 -17.0 3.5
v -50.0 -17.5 4.0
v -50.8 -17.0 5.0
v -50.0 -17.0 12.4
v -50.4 -16.0 3.0
v -50.0 -16.0 2.7
v -50.0 -16.5 3.0
v -50.0 -16.0 12.4
v -50.0 -15.0 2.5
v -50.3 -15.0 11.0
v -50.0 -15.2 11.0
v -50.0 -15.0 10.8
v -50.7 -15.0 12.0
v -50.0 -15.6 12.0
v -50.0 -14.0 2.8
v -50.0 -14.0 10.3
v -50.0 -13.7 3.0
v -50.7 -13.0 4.0
v -50.0 -13.4 4.0
v -50.5 -13.0 5.0
v -50.0 -13.4 5.0
v -50.5 -13.0 6.0
v -50.0 -13.4 6.0
v -50.5 -13.0 7.0
v -50.0 -13.4 7.0
v -50.5 -13.0 8.0
v -50.0 -13.5 8.0
v -50.5 -13.0 9.0
v -50.0 -13.5 9.0
v -50.7 -13.0 10.0
v -50.0 -13.7 10.0
v -49.9 -25.0 14.0
v -49.1 -24.0 9.0
v -49.0 -24.0 8.8
v -49.0 -24.2 9.0
v -49.0 -24.0 9.3
v -49.3 -24.0 12.0
v -49.0 -24.0 11.6
v -49.0 -24.2 12.0
v -49.0 -24.0 13.0
v -49.0 -24.0 13.0
v -49.0 -24.0 13.0
v -49.0 -24.3 14.0
v -49.0 -24.2 15.0
v -49.0 -24.0 15.2
v -49.5 -23.0 9.0
v -49.0 -23.0 8.3
v -49.0 -23.7 10.0
v -49.6 -23.0 10.0
v -49.0 -23.7 11.0
v -49.0 -24.0 13.0
v -49.0 -23.0 15.2
v -49.3 -22.0 7.0
v -49.0 -22.0 6.6
v -49.0 -22.4 7.0
v -49.0 -22.7 8.0
v -49.6 -22.0 8.0
v -49.3 -22.0 14.0
v -49.0 -22.3 14.0
v -49.0 -22.0 13.8
v -49.7 -22.0 15.0
v -49.0 -22.7 15.0
v -49.3 -21.0 6.0
v -49.0 -21.0 5.5
v -49.0 -21.5 6.0
v -49.7 -21.0 7.0
v -49.0 -21.0 13.4
v -49.3 -20.0 4.0
v -49.0 -20.0 3.3
v -49.0 -20.4 4.0
v -49.0 -20.6 5.0
v -49.4 -20.0 5.0
v -49.7 -20.0 6.0
v -49.5 -20.0 13.0
v -49.0 -20.4 13.0
v -49.0 -20.0 12.6
v -49.4 -19.0 4.0
v -49.0 -19.0 3.5
v -49.7 -19.0 5.0
v -49.1 -19.0 12.0
v -49.0 -19.1 12.0
v -49.0 -19.0 11.9
v -49.2 -18.0 3.0
v -49.0 -18.0 2.8
v -49.0 -18.4 3.0
v -49.7 -18.0 4.0
v -49.0 -18.8 12.0
v -49.0 -18.0 12.3
v -49.6 -17.0 3.0
v -49.0 -17.0 2.6
v -49.2 -17.0 12.0
v -49.0 -17.2 12.0
v -49.0 -17.0 11.9
v -49.0 -16.0 2.4
v -49.0 -16.7 12.0
v -49.0 -16.0 12.2
v -49.0 -15.0 2.5
v -49.0 -15.4 11.0
v -49.0 -15.0 10.5
v -49.0 -15.8 12.0
v -49.0 -14.3 3.0
v -49.5 -14.0 3.0
v -49.0 -14.0 3.4
v -49.4 -14.0 8.0
v -49.0 -14.3 8.0
v -49.0 -14.0 7.5
v -49.5 -14.0 9.0
v -49.0 -14.4 9.0
v -49.7 -14.0 10.0
v -49.0 -14.5 10.0
v -49.0 -13.7 4.0
v -49.0 -13.5 5.0
v -49.0 -13.5 6.0
v -49.0 -13.7 7.0
v -48.3 -25.0 8.0
v -48.0 -25.0 7.6
v -48.0 -25.3 8.0
v -48.0 -25.5 9.0
v -48.4 -25.0 9.0
v -48.0 -25.3 10.0
v -48.3 -25.0 10.0
v -48.0 -25.0 10.4
v -48.2 -24.0 7.0
v -48.0 -24.0 6.7
v -48.0 -24.4 7.0
v -48.6 -24.0 8.0
v -48.7 -24.0 10.0
v -48.0 -24.6 11.0
v -48.7 -24.0 11.0
v -48.0 -24.5 12.0
v -48.0 -24.1 13.0
v -49.0 -24.0 13.0
v -48.0 -24.0 13.2
v -48.6 -24.0 14.0
v -48.8 -24.0 15.0
v -48.5 -23.0 7.0
v -48.0 -23.0 6.4
v -48.8 -23.0 8.0
v -48.5 -23.0 14.0
v -48.0 -23.0 13.6
v -48.8 -23.0 15.0
v -48.3 -22.0 5.0
v -48.0 -22.0 4.6
v -48.0 -22.3 5.0
v -48.0 -22.6 6.0
v -48.6 -22.0 6.0
v -48.0 -22.0 13.5
v -48.4 -21.0 4.0
v -48.0 -21.0 3.7
v -48.0 -21.4 4.0
v -48.7 -21.0 5.0
v -48.0 -21.0 13.3
v -48.0 -20.0 3.4
v -48.0 -20.6 13.0
v -48.0 -20.0 12.5
v -48.0 -19.0 3.4
v -48.0 -19.1 12.0
v -48.0 -19.0 11.9
v -48.0 -18.0 2.6
v -48.0 -18.5 3.0
v -48.0 -18.8 12.0
v -48.0 -18.0 12.3
v -48.0 -17.0 2.3
v -48.0 -17.5 12.0
v -48.0 -17.0 11.8
v -48.4 -16.0 2.0
v -48.0 -16.0 1.7
v -48.0 -16.5 2.0
v -48.0 -16.4 12.0
v -48.0 -16.0 12.2
v -48.4 -15.0 2.0
v -48.0 -15.0 1.7
v -48.0 -15.3 11.0
v -48.0 -15.0 10.6
v -48.0 -15.8 12.0
v -48.0 -14.6 2.0
v -48.4 -14.0 3.0
v -48.0 -14.0 2.7
v -48.5 -14.0 7.0
v -48.0 -14.3 7.0
v -48.0 -14.0 6.5
v -48.0 -14.5 8.0
v -48.0 -14.6 9.0
v -48.0 -14.6 10.0
v -48.0 -13.8 3.0
v -48.0 -14.0 4.0
v -48.0 -13.7 5.0
v -48.0 -13.7 6.0
v -47.3 -26.0 8.0
v -47.0 -26.0 7.7
v -47.0 -26.2 8.0
v -47.0 -26.3 9.0
v -47.3 -26.0 9.0
v -47.0 -26.0 9.5
v -47.4 -25.0 7.0
v -47.0 -25.0 6.7
v -47.0 -25.3 7.0
v -47.0 -25.7 10.0
v -47.0 -25.3 11.0
v -47.4 -25.0 11.0
v -47.0 -25.0 11.4
v -47.0 -24.0 6.4
v -47.0 -24.5 12.0
v -47.7 -24.0 13.0
v -47.0 -24.0 12.6
v -47.5 -23.0 6.0
v -47.0 -23.0 5.5
v -47.0 -23.4 6.0
v -47.0 -23.6 13.0
v -47.0 -23.0 13.4
v -47.2 -22.0 4.0
v -47.0 -22.0 3.9
v -47.0 -22.1 4.0
v -47.0 -22.7 5.0
v -47.0 -22.0 13.4
v -47.0 -21.0 3.5
v -47.3 -21.0 13.0
v -47.0 -21.2 13.0
v -47.0 -21.0 12.8
v -47.0 -20.0 3.5
v -47.0 -20.0 12.5
v -47.0 -19.0 3.3
v -47.9 -19.0 12.0
v -47.0 -19.0 12.4
v -47.0 -18.0 2.5
v -47.0 -18.6 3.0
v -47.0 -18.0 12.3
v -47.5 -17.0 2.0
v -47.0 -17.0 1.6
v -47.0 -17.4 2.0
v -47.0 -17.5 12.0
v -47.0 -17.0 11.7
v -47.1 -16.0 1.0
v -47.0 -16.0 0.9
v -47.0 -16.1 1.0
v -47.0 -16.0 12.0
v -47.0 -16.0 12.0
v -47.0 -15.8 1.0
v -47.0 -15.0 1.3
v -47.2 -15.0 9.0
v -47.0 -15.2 9.0
v -47.0 -15.0 8.7
v -47.0 -15.0 9.4
v -47.2 -15.0 11.0
v -47.0 -15.0 11.1
v -47.0 -16.0 12.0
v -47.4 -14.0 2.0
v -47.0 -14.0 1.7
v -47.5 -14.0 5.0
v -47.0 -14.3 5.0
v -47.0 -14.0 4.5
v -47.6 -14.0 6.0
v -47.0 -14.4 6.0
v -47.0 -14.5 7.0
v -47.0 -14.7 8.0
v -47.0 -14.8 10.0
v -47.0 -14.9 11.0
v -47.0 -13.8 2.0
v -47.0 -13.5 3.0
v -47.0 -13.7 4.0
v -46.0 -26.0 7.4
v -46.0 -26.4 8.0
v -46.0 -26.5 9.0
v -46.0 -26.4 10.0
v -46.5 -26.0 10.0
v -46.0 -26.0 10.5
v -46.0 -25.0 6.5
v -46.0 -25.6 7.0
v -46.0 -25.6 11.0
v -46.0 -25.0 11.5
v -46.0 -24.0 6.2
v -46.0 -24.5 12.0
v -46.0 -24.0 12.5
v -46.2 -23.0 5.0
v -46.0 -23.0 4.9
v -46.0 -23.1 5.0
v -46.0 -23.8 6.0
v -46.0 -23.5 13.0
v -46.0 -23.0 13.5
v -46.8 -22.0 4.0
v -46.0 -22.0 4.3
v -46.0 -22.0 13.5
v -46.0 -21.0 3.6
v -46.0 -21.6 4.0
v -46.7 -21.0 13.0
v -46.0 -21.0 13.3
v -46.0 -20.0 3.3
v -46.0 -20.6 13.0
v -46.0 -20.0 12.6
v -46.5 -19.0 3.0
v -46.0 -19.0 2.7
v -46.0 -19.5 3.0
v -46.0 -19.0 12.4
v -46.0 -18.0 2.3
v -46.5 -18.0 12.0
v -46.0 -18.4 12.0
v -46.0 -18.0 11.7
v -46.0 -17.0 1.4
v -46.0 -17.7 2.0
v -46.0 -17.0 11.4
v -46.0 -16.0 0.8
v -46.0 -16.4 1.0
v -46.3 -16.0 11.0
v -46.0 -16.4 11.0
v -46.0 -16.0 10.6
v -47.0 -16.0 12.0
v -46.2 -15.0 1.0
v -46.0 -15.0 0.9
v -46.5 -15.0 8.0
v -46.0 -15.3 8.0
v -46.0 -15.0 7.6
v -46.0 -15.5 9.0
v -46.7 -15.0 10.0
v -46.0 -15.6 10.0
v -46.9 -15.0 11.0
v -46.0 -14.9 1.0
v -46.0 -14.0 1.7
v -46.0 -14.4 5.0
v -46.0 -14.0 4.5
v -46.0 -14.5 6.0
v -46.0 -14.6 7.0
v -46.0 -13.7 2.0
v -46.0 -13.4 3.0
v -46.0 -13.6 4.0
v -45.2 -26.0 7.0
v -45.0 -26.0 6.9
v -45.0 -26.1 7.0
v -45.0 -26.5 8.0
v -45.0 -26.7 9.0
v -45.0 -26.9 10.0
v -45.0 -26.2 11.0
v -45.3 -26.0 11.0
v -45.0 -26.0 11.1
v -45.0 -25.0 6.0
v -45.0 -25.0 6.0
v -45.0 -25.0 6.0
v -45.0 -25.0 11.7
v -45.5 -24.0 6.0
v -45.0 -24.0 5.8
v -45.0 -24.7 12.0
v -45.0 -24.0 12.7
v -45.8 -23.0 5.0
v -45.0 -23.0 5.4
v -45.0 -23.7 13.0
v -45.0 -23.1 14.0
v -45.1 -23.0 14.0
v -45.0 -23.0 14.1
v -45.0 -22.0 4.6
v -45.0 -22.5 5.0
v -45.0 -22.9 14.0
v -45.0 -22.0 13.6
v -45.0 -21.0 3.7
v -45.0 -21.4 4.0
v -45.0 -21.0 13.4
v -45.3 -20.0 3.0
v -45.0 -20.0 2.9
v -45.0 -20.2 3.0
v -45.0 -20.5 13.0
v -45.0 -20.0 12.6
v -45.0 -19.0 2.4
v -45.0 -19.0 12.4
v -45.6 -18.0 2.0
v -45.0 -18.0 1.5
v -45.0 -18.4 2.0
v -45.0 -18.5 12.0
v -45.0 -18.0 11.6
v -45.3 -17.0 1.0
v -45.0 -17.0 0.9
v -45.0 -17.2 1.0
v -45.0 -17.0 11.4
v -45.6 -16.0 1.0
v -45.0 -16.7 1.0
v -45.0 -16.0 1.3
v -45.5 -16.0 10.0
v -45.0 -16.3 10.0
v -45.0 -16.0 9.5
v -45.0 -16.6 11.0
v -45.9 -15.0 1.0
v -45.0 -15.0 1.6
v -45.0 -15.4 8.0
v -45.0 -15.0 7.5
v -45.0 -15.7 9.0
v -45.5 -14.0 2.0
v -45.0 -14.5 2.0
v -45.0 -14.0 2.4
v -45.0 -14.4 5.0
v -45.0 -14.0 4.4
v -45.0 -14.5 6.0
v -45.0 -14.6 7.0
v -45.0 -13.2 3.0
v -45.0 -13.7 4.0
v -44.9 -26.0 7.0
v -44.0 -26.0 7.7
v -44.0 -26.3 8.0
v -44.0 -26.9 9.0
v -44.0 -26.4 10.0
v -44.7 -26.0 11.0
v -44.0 -26.0 10.5
v -45.0 -25.0 6.0
v -44.4 -25.0 7.0
v -44.0 -25.0 7.5
v -44.0 -25.6 11.0
v -44.0 -25.1 12.0
v -44.2 -25.0 12.0
v -44.0 -25.0 12.1
v -44.8 -24.0 6.0
v -44.3 -24.0 7.0
v -44.0 -24.0 7.4
v -44.0 -24.3 13.0
v -44.5 -24.0 13.0
v -44.0 -24.0 13.9
v -44.4 -23.0 6.0
v -44.0 -23.0 6.5
v -44.0 -23.6 7.0
v -44.0 -23.9 14.0
v -44.0 -23.0 14.2
v -44.5 -22.0 5.0
v -44.0 -22.0 5.5
v -44.0 -22.5 6.0
v -44.0 -22.7 14.0
v -44.0 -22.0 13.6
v -44.5 -21.0 4.0
v -44.0 -21.0 4.5
v -44.0 -21.5 5.0
v -44.0 -21.0 13.4
v -44.7 -20.0 3.0
v -44.0 -20.0 3.4
v -44.0 -20.6 4.0
v -44.0 -20.5 13.0
v -44.0 -20.0 12.6
v -44.0 -19.0 2.3
v -44.0 -19.6 3.0
v -44.0 -19.0 12.4
v -44.4 -18.0 1.0
v -44.0 -18.0 0.7
v -44.0 -18.3 1.0
v -44.0 -18.7 2.0
v -44.0 -18.5 12.0
v -44.0 -18.0 11.6
v -44.0 -17.0 0.6
v -44.0 -17.0 11.2
v -44.0 -16.6 1.0
v -44.0 -16.0 1.5
v -44.5 -16.0 9.0
v -44.0 -16.3 9.0
v -44.0 -16.0 8.5
v -44.0 -16.6 10.0
v -44.0 -16.8 11.0
v -44.0 -15.4 2.0
v -44.4 -15.0 2.0
v -44.0 -15.0 2.3
v -44.0 -15.6 8.0
v -44.0 -15.0 7.3
v -44.0 -14.0 2.7
v -44.5 -14.0 4.0
v -44.0 -14.3 4.0
v -44.0 -14.0 3.4
v -44.0 -14.6 5.0
v -44.0 -14.6 6.0
v -44.0 -14.8 7.0
v -44.0 -13.7 3.0
v -43.7 -26.0 8.0
v -43.1 -26.0 9.0
v -43.6 -26.0 10.0
v -43.6 -25.0 8.0
v -43.3 -25.0 9.0
v -43.3 -25.0 10.0
v -43.5 -25.0 11.0
v -43.8 -25.0 12.0
v -43.5 -24.0 8.0
v -43.0 -24.0 8.6
v -43.0 -24.5 9.0
v -43.0 -24.6 10.0
v -43.0 -24.6 11.0
v -43.0 -24.5 12.0
v -43.5 -24.0 13.0
v -43.0 -24.0 12.6
v -43.6 -23.0 7.0
v -43.2 -23.0 8.0
v -43.0 -23.0 8.2
v -43.0 -23.6 13.0
v -43.7 -23.0 14.0
v -43.0 -23.0 13.5
v -43.5 -22.0 6.0
v -43.0 -22.0 6.6
v -43.0 -22.3 7.0
v -43.0 -22.7 8.0
v -43.0 -22.0 13.5
v -43.4 -21.0 5.0
v -43.0 -21.0 5.5
v -43.0 -21.5 6.0
v -43.0 -21.0 13.4
v -43.0 -20.0 3.4
v -43.0 -20.4 4.0
v -43.0 -20.7 5.0
v -43.0 -20.5 13.0
v -43.0 -20.0 12.6
v -43.0 -19.0 1.0
v -43.0 -19.0 1.0
v -43.0 -19.0 1.0
v -43.0 -19.4 2.0
v -43.6 -19.0 2.0
v -43.0 -19.6 3.0
v -43.0 -19.0 12.3
v -43.0 -18.0 0.6
v -43.0 -18.7 12.0
v -43.0 -18.0 11.3
v -43.0 -17.0 0.6
v -43.4 -17.0 10.0
v -43.0 -17.4 10.0
v -43.0 -17.0 9.5
v -43.7 -17.0 11.0
v -43.0 -17.7 11.0
v -43.0 -16.6 1.0
v -43.0 -16.0 1.5
v -43.3 -16.0 7.0
v -43.0 -16.3 7.0
v -43.0 -16.0 6.6
v -43.6 -16.0 8.0
v -43.0 -16.5 8.0
v -43.0 -16.7 9.0
v -43.0 -15.5 2.0
v -43.0 -15.0 2.4
v -43.4 -15.0 5.0
v -43.0 -15.3 5.0
v -43.0 -15.0 4.7
v -43.5 -15.0 6.0
v -43.0 -15.6 6.0
v -43.8 -15.0 7.0
v -43.0 -14.0 3.0
v -43.0 -14.5 4.0
v -43.0 -14.0 3.0
v -43.0 -14.0 3.0
v -42.6 -24.0 9.0
v -42.0 -24.0 9.6
v -42.0 -24.2 10.0
v -42.0 -24.4 11.0
v -42.0 -24.4 12.0
v -42.0 -24.0 12.6
v -42.0 -23.0 8.7
v -42.0 -23.4 9.0
v -42.0 -23.6 13.0
v -42.0 -23.0 13.5
v -42.7 -22.0 7.0
v -42.4 -22.0 8.0
v -42.0 -22.0 8.4
v -42.0 -22.0 13.5
v -42.6 -21.0 6.0
v -42.3 -21.0 7.0
v -42.0 -21.0 7.4
v -42.0 -21.6 8.0
v -42.0 -21.0 13.3
v -42.0 -20.0 3.1
v -42.0 -20.3 4.0
v -42.0 -20.5 5.0
v -42.0 -20.6 6.0
v -42.0 -20.7 7.0
v -42.0 -20.7 13.0
v -42.0 -20.0 12.4
v -43.0 -19.0 1.0
v -42.0 -19.0 1.8
v -42.0 -19.2 2.0
v -42.0 -19.7 3.0
v -42.6 -19.0 12.0
v -42.0 -19.5 12.0
v -42.0 -19.0 11.4
v -42.5 -18.0 1.0
v -42.0 -18.0 1.4
v -42.4 -18.0 10.0
v -42.0 -18.4 10.0
v -42.0 -18.0 9.5
v -42.7 -18.0 11.0
v -42.0 -18.6 11.0
v -42.0 -17.0 0.9
v -42.0 -17.1 1.0
v -42.4 -17.0 8.0
v -42.0 -17.4 8.0
v -42.0 -17.0 7.4
v -42.7 -17.0 9.0
v -42.0 -17.6 9.0
v -42.0 -16.9 1.0
v -42.0 -16.0 1.7
v -42.5 -16.0 6.0
v -42.0 -16.5 6.0
v -42.0 -16.0 5.4
v -42.0 -16.7 7.0
v -42.0 -15.7 2.0
v -42.0 -15.0 2.7
v -42.0 -15.7 5.0
v -42.0 -15.0 4.3
v -42.0 -14.7 3.0
v -43.0 -14.0 3.0
v -42.0 -14.8 4.0
v -41.7 -24.0 10.0
v -41.4 -24.0 11.0
v -41.0 -24.0 11.6
v -41.0 -24.3 12.0
v -41.0 -24.4 13.0
v -41.6 -24.0 13.0
v -41.0 -24.2 14.0
v -41.2 -24.0 14.0
v -41.0 -24.0 14.2
v -41.7 -23.0 9.0
v -41.3 -23.0 10.0
v -41.0 -23.0 10.5
v -41.0 -23.5 11.0
v -41.4 -23.0 14.0
v -41.0 -23.0 14.7
v -41.4 -22.0 9.0
v -41.0 -22.0 9.5
v -41.0 -22.5 10.0
v -41.0 -22.6 14.0
v -41.0 -22.0 13.5
v -41.5 -21.0 8.0
v -41.0 -21.0 8.5
v -41.0 -21.5 9.0
v -41.6 -21.0 13.0
v -41.0 -21.4 13.0
v -41.0 -21.0 12.5
v -41.6 -20.0 4.0
v -41.0 -20.0 5.0
v -41.0 -20.0 5.0
v -41.0 -20.2 6.0
v -41.0 -20.2 7.0
v -41.0 -20.5 8.0
v -41.5 -20.0 12.0
v -41.0 -20.5 12.0
v -41.0 -20.0 11.4
v -41.8 -19.0 2.0
v -41.6 -19.0 3.0
v -41.4 -19.0 4.0
v -41.0 -20.0 5.0
v -41.4 -19.0 5.0
v -41.4 -19.0 6.0
v -41.0 -19.7 6.0
v -41.2 -19.0 7.0
v -41.0 -19.4 7.0
v -41.0 -19.0 7.3
v -41.4 -19.0 10.0
v -41.0 -19.4 10.0
v -41.0 -19.0 9.5
v -41.6 -19.0 11.0
v -41.0 -19.7 11.0
v -41.6 -18.0 2.0
v -41.4 -18.0 3.0
v -41.0 -18.0 3.8
v -41.0 -18.2 4.0
v -41.0 -18.0 4.2
v -41.5 -18.0 5.0
v -41.9 -18.0 6.0
v -41.1 -18.0 7.0
v -41.0 -18.5 8.0
v -41.4 -18.0 8.0
v -41.6 -18.0 9.0
v -41.0 -18.7 9.0
v -41.9 -17.0 1.0
v -41.5 -17.0 2.0
v -41.3 -17.0 3.0
v -41.0 -17.0 3.8
v -41.4 -17.0 5.0
v -41.0 -17.0 4.2
v -41.7 -17.0 6.0
v -41.7 -17.0 7.0
v -41.7 -16.0 2.0
v -41.1 -16.0 3.0
v -41.0 -16.8 4.0
v -41.4 -16.0 4.0
v -41.7 -16.0 5.0
v -41.7 -15.0 3.0
v -41.8 -15.0 4.0
v -40.6 -24.0 12.0
v -40.0 -24.0 12.6
v -40.0 -24.2 13.0
v -40.0 -24.2 14.0
v -40.0 -24.0 14.2
v -40.6 -23.0 11.0
v -40.0 -23.0 11.6
v -40.0 -23.4 12.0
v -40.0 -23.0 14.4
v -40.7 -22.0 10.0
v -40.4 -22.0 11.0
v -40.0 -22.0 11.5
v -40.0 -22.6 14.0
v -40.0 -22.0 13.4
v -40.7 -21.0 9.0
v -40.5 -21.0 10.0
v -40.5 -21.0 11.0
v -40.0 -21.6 12.0
v -40.6 -21.0 12.0
v -40.0 -21.6 13.0
v -41.0 -20.0 5.0
v -40.8 -20.0 6.0
v -40.8 -20.0 7.0
v -40.6 -20.0 8.0
v -40.5 -20.0 9.0
v -40.6 -20.0 10.0
v -40.7 -20.0 11.0
v -40.7 -19.0 8.0
v -40.7 -19.0 9.0
v -40.9 -18.0 4.0
v -40.9 -17.0 4.0
v -39.7 -24.0 13.0
v -39.8 -24.0 14.0
v -39.6 -23.0 12.0
v -39.3 -23.0 13.0
v -39.0 -23.0 14.0
v -39.0 -23.0 14.0
v -39.0 -23.0 14.0
v -39.1 -22.0 12.0
v -39.0 -22.0 12.7
v -39.0 -22.1 13.0
v -39.0 -22.0 13.0
v -39.0 -23.0 14.0
v -39.0 -22.0 13.0
v -39.0 -23.0 14.0
v -39.0 -22.0 13.0
f 3 2 1
f 5 4 1
f 1 4 3
f 7 6 5
f 5 6 4
f 7 8 6
f 11 10 9
f 13 12 9
f 9 12 11
f 12 13 2
f 13 1 2
f 13 14 1
f 16 5 15
f 5 14 15
f 5 1 14
f 5 16 7
f 7 16 17
f 7 17 8
f 20 19 18
f 20 18 10
f 18 9 10
f 18 21 9
f 9 22 13
f 9 21 22
f 24 14 23
f 14 22 23
f 14 13 22
f 14 24 15
f 19 25 18
f 27 26 25
f 26 18 25
f 26 21 18
f 29 22 28
f 22 26 28
f 22 21 26
f 22 29 23
f 27 30 26
f 26 30 28
f 33 32 31
f 31 34 33
f 37 36 35
f 37 35 32
f 35 31 32
f 35 38 31
f 34 31 39
f 39 31 38
f 42 41 40
f 44 43 40
f 40 43 42
f 43 44 36
f 44 35 36
f 44 45 35
f 47 38 46
f 38 45 46
f 38 35 45
f 38 47 39
f 41 48 40
f 50 49 48
f 49 40 48
f 49 44 40
f 44 51 45
f 44 49 51
f 46 45 52
f 52 45 51
f 49 50 53
f 53 50 54
f 49 55 51
f 49 53 55
f 52 51 56
f 56 51 55
f 59 58 57
f 61 60 57
f 57 60 59
f 63 62 61
f 61 62 60
f 65 64 63
f 63 64 62
f 64 65 54
f 65 53 54
f 65 66 53
f 68 55 67
f 55 66 67
f 55 53 66
f 55 68 56
f 71 70 69
f 73 72 69
f 69 72 71
f 72 73 58
f 73 57 58
f 73 74 57
f 57 75 61
f 57 74 75
f 61 76 63
f 61 75 76
f 63 77 65
f 63 76 77
f 79 66 78
f 66 77 78
f 66 65 77
f 66 79 67
f 69 70 80
f 80 70 81
f 69 82 73
f 69 80 82
f 82 2 3
f 74 82 3
f 73 82 74
f 74 3 4
f 74 4 75
f 75 4 6
f 75 6 76
f 76 6 8
f 83 76 8
f 77 76 83
f 78 77 84
f 84 77 83
f 87 86 85
f 89 88 85
f 85 88 87
f 88 89 81
f 81 89 80
f 89 10 80
f 10 11 80
f 80 11 12
f 80 12 82
f 82 12 2
f 15 90 16
f 16 90 91
f 92 16 91
f 17 16 92
f 8 17 83
f 17 93 83
f 17 92 93
f 83 93 84
f 85 86 94
f 94 86 95
f 94 19 20
f 89 94 20
f 85 94 89
f 89 20 10
f 97 96 24
f 97 24 23
f 15 24 90
f 24 98 90
f 24 96 98
f 90 98 91
f 95 99 94
f 94 99 19
f 99 25 19
f 99 100 25
f 102 101 27
f 25 102 27
f 100 102 25
f 29 28 101
f 102 29 101
f 103 29 102
f 23 29 97
f 97 29 103
f 101 30 27
f 30 101 28
f 106 105 104
f 104 107 106
f 110 109 108
f 108 111 110
f 104 105 112
f 112 105 113
f 107 104 114
f 114 104 112
f 108 109 115
f 115 109 116
f 111 108 117
f 108 118 117
f 108 115 118
f 120 119 118
f 118 119 117
f 119 120 113
f 120 112 113
f 120 121 112
f 114 112 122
f 122 112 121
f 125 124 123
f 125 123 116
f 123 115 116
f 123 126 115
f 115 127 118
f 115 126 127
f 118 128 120
f 118 127 128
f 128 32 33
f 121 128 33
f 120 128 121
f 33 34 121
f 34 122 121
f 34 129 122
f 123 124 130
f 130 124 131
f 123 132 126
f 123 130 132
f 126 133 127
f 126 132 133
f 133 36 37
f 128 133 37
f 127 133 128
f 128 37 32
f 39 129 34
f 39 134 129
f 137 136 135
f 137 135 131
f 135 130 131
f 135 138 130
f 138 41 42
f 132 138 42
f 130 138 132
f 132 42 43
f 132 43 133
f 133 43 36
f 140 139 47
f 140 47 46
f 39 47 134
f 134 47 139
f 143 142 141
f 143 141 136
f 141 135 136
f 141 144 135
f 135 145 138
f 135 144 145
f 146 48 41
f 138 146 41
f 145 146 138
f 50 48 146
f 149 148 147
f 151 150 149
f 151 149 147
f 151 140 150
f 140 52 150
f 140 46 52
f 154 153 152
f 156 155 152
f 152 155 154
f 158 157 156
f 156 157 155
f 157 158 142
f 158 141 142
f 158 159 141
f 141 160 144
f 141 159 160
f 144 161 145
f 144 160 161
f 145 162 146
f 145 161 162
f 163 148 149
f 54 50 162
f 146 162 50
f 165 164 163
f 149 165 163
f 150 165 149
f 56 165 52
f 52 165 150
f 152 153 166
f 166 153 167
f 152 168 156
f 152 166 168
f 156 169 158
f 156 168 169
f 169 58 59
f 159 169 59
f 158 169 159
f 159 59 60
f 159 60 160
f 160 60 62
f 160 62 161
f 161 62 64
f 161 64 162
f 162 64 54
f 164 165 68
f 67 164 68
f 170 164 67
f 68 165 56
f 166 167 171
f 171 167 172
f 171 70 71
f 168 171 71
f 166 171 168
f 168 71 72
f 168 72 169
f 169 72 58
f 174 173 79
f 174 79 78
f 67 79 170
f 170 79 173
f 177 176 175
f 179 178 175
f 175 178 177
f 178 179 172
f 179 171 172
f 179 180 171
f 180 81 70
f 180 70 171
f 84 174 78
f 84 181 174
f 175 176 182
f 182 176 183
f 182 86 87
f 179 182 87
f 175 182 179
f 179 87 88
f 179 88 180
f 180 88 81
f 185 184 92
f 185 92 91
f 92 186 93
f 184 186 92
f 84 93 181
f 181 93 186
f 183 187 182
f 86 182 187
f 188 86 187
f 95 86 188
f 191 190 189
f 193 192 189
f 193 189 190
f 96 97 192
f 193 96 192
f 194 96 193
f 96 195 98
f 194 195 96
f 91 98 185
f 185 98 195
f 188 196 95
f 95 196 99
f 99 197 100
f 196 197 99
f 189 102 191
f 102 197 191
f 102 100 197
f 102 189 103
f 103 189 192
f 103 192 97
f 200 199 198
f 202 201 198
f 198 201 200
f 202 203 201
f 198 199 204
f 204 199 205
f 204 105 106
f 202 204 106
f 198 204 202
f 207 206 107
f 107 206 106
f 206 203 106
f 203 202 106
f 207 208 206
f 210 209 110
f 110 209 109
f 212 211 111
f 211 110 111
f 211 210 110
f 211 212 205
f 212 204 205
f 212 213 204
f 213 113 105
f 213 105 204
f 215 214 207
f 107 215 207
f 114 215 107
f 207 214 208
f 218 217 216
f 209 218 216
f 116 209 216
f 109 209 116
f 117 212 111
f 212 117 119
f 212 119 213
f 213 119 113
f 122 215 114
f 122 219 215
f 222 221 220
f 224 223 220
f 220 223 222
f 223 224 217
f 217 224 216
f 224 124 216
f 124 125 216
f 216 125 116
f 129 219 122
f 129 225 219
f 220 221 226
f 226 221 227
f 220 228 224
f 220 226 228
f 228 131 124
f 228 124 224
f 231 230 229
f 233 232 229
f 233 229 230
f 233 225 232
f 225 134 232
f 225 129 134
f 236 235 234
f 236 234 227
f 234 226 227
f 234 237 226
f 237 136 137
f 228 237 137
f 226 237 228
f 228 137 131
f 231 229 238
f 231 238 239
f 140 238 139
f 238 232 139
f 238 229 232
f 139 232 134
f 242 241 240
f 244 243 240
f 240 243 242
f 243 244 235
f 244 234 235
f 244 245 234
f 245 142 143
f 237 245 143
f 234 245 237
f 237 143 136
f 247 246 147
f 247 147 148
f 238 151 239
f 151 246 239
f 151 147 246
f 151 238 140
f 240 241 154
f 241 153 154
f 241 248 153
f 240 154 155
f 240 155 244
f 244 155 157
f 244 157 245
f 245 157 142
f 148 163 249
f 250 148 249
f 247 148 250
f 164 249 163
f 253 252 251
f 255 254 251
f 251 254 253
f 248 254 255
f 167 248 255
f 153 248 167
f 250 249 256
f 250 256 257
f 170 256 164
f 164 256 249
f 260 259 258
f 260 258 252
f 258 251 252
f 258 261 251
f 251 262 255
f 251 261 262
f 262 172 167
f 262 167 255
f 257 256 173
f 174 257 173
f 263 257 174
f 173 256 170
f 258 259 264
f 264 259 265
f 264 176 177
f 261 264 177
f 258 264 261
f 261 177 178
f 261 178 262
f 262 178 172
f 268 267 266
f 270 269 266
f 270 266 267
f 270 263 269
f 263 181 269
f 263 174 181
f 265 271 264
f 176 264 271
f 272 176 271
f 183 176 272
f 268 266 184
f 185 268 184
f 273 268 185
f 184 266 186
f 186 266 269
f 186 269 181
f 272 274 183
f 183 274 187
f 276 275 188
f 187 276 188
f 274 276 187
f 278 277 275
f 278 275 276
f 190 191 277
f 278 190 277
f 279 190 278
f 190 280 193
f 279 280 190
f 193 281 194
f 280 281 193
f 194 282 195
f 281 282 194
f 185 195 273
f 273 195 282
f 275 196 188
f 196 275 197
f 197 275 277
f 197 277 191
f 284 283 200
f 200 283 199
f 286 284 285
f 284 201 285
f 284 200 201
f 203 285 201
f 289 288 287
f 283 289 287
f 205 283 287
f 199 283 205
f 290 286 285
f 292 290 291
f 291 290 206
f 290 285 206
f 285 203 206
f 208 291 206
f 295 294 293
f 209 210 293
f 210 295 293
f 210 296 295
f 211 287 288
f 296 211 288
f 210 211 296
f 287 211 205
f 292 291 214
f 215 292 214
f 297 292 215
f 214 291 208
f 300 299 298
f 302 301 298
f 298 301 300
f 301 302 294
f 294 302 293
f 302 217 293
f 217 218 293
f 293 218 209
f 219 297 215
f 219 303 297
f 306 305 304
f 306 304 299
f 299 304 298
f 304 221 298
f 221 222 298
f 298 222 223
f 298 223 302
f 302 223 217
f 309 308 307
f 311 310 307
f 311 307 308
f 311 303 310
f 303 225 310
f 303 219 225
f 314 313 312
f 314 312 305
f 312 304 305
f 312 315 304
f 315 227 221
f 315 221 304
f 309 307 230
f 231 309 230
f 316 309 231
f 230 307 233
f 233 307 310
f 233 310 225
f 319 318 317
f 319 317 313
f 317 312 313
f 317 320 312
f 320 235 236
f 315 320 236
f 312 320 315
f 315 236 227
f 323 322 321
f 322 316 321
f 316 239 321
f 316 231 239
f 326 325 324
f 326 324 318
f 318 324 317
f 324 241 317
f 241 242 317
f 317 242 243
f 317 243 320
f 320 243 235
f 323 321 246
f 247 323 246
f 327 323 247
f 246 321 239
f 330 329 328
f 330 328 325
f 328 324 325
f 328 331 324
f 331 248 241
f 331 241 324
f 250 327 247
f 250 332 327
f 335 334 333
f 335 333 329
f 329 333 328
f 333 252 328
f 252 253 328
f 328 253 254
f 328 254 331
f 331 254 248
f 257 332 250
f 257 336 332
f 333 334 260
f 334 259 260
f 334 337 259
f 333 260 252
f 340 339 338
f 342 341 338
f 342 338 339
f 342 336 341
f 336 263 341
f 336 257 263
f 337 265 259
f 343 265 337
f 340 338 267
f 268 340 267
f 344 340 268
f 267 338 270
f 270 338 341
f 270 341 263
f 343 345 265
f 265 345 271
f 347 346 272
f 271 347 272
f 345 347 271
f 349 348 346
f 349 346 347
f 351 350 348
f 351 348 349
f 353 352 350
f 353 350 351
f 355 354 352
f 355 352 353
f 357 356 354
f 357 354 355
f 359 358 356
f 359 356 357
f 359 344 358
f 344 273 358
f 344 268 273
f 346 274 272
f 274 346 276
f 276 346 348
f 276 348 278
f 278 348 350
f 278 350 279
f 279 350 352
f 279 352 280
f 280 352 354
f 280 354 281
f 281 354 356
f 281 356 282
f 282 356 358
f 282 358 273
f 360 283 284
f 286 360 284
f 363 362 361
f 361 364 363
f 367 366 365
f 365 288 367
f 288 289 367
f 369 368 367
f 369 367 289
f 370 369 289
f 370 289 283
f 371 370 283
f 360 371 283
f 371 360 286
f 290 371 286
f 372 371 290
f 290 292 372
f 372 292 373
f 361 362 374
f 374 362 375
f 364 361 376
f 361 377 376
f 361 374 377
f 294 295 377
f 295 376 377
f 295 378 376
f 296 365 366
f 378 296 366
f 295 296 378
f 369 379 368
f 288 365 296
f 379 369 370
f 297 373 292
f 297 380 373
f 383 382 381
f 385 384 381
f 381 384 383
f 384 385 375
f 375 385 374
f 385 299 374
f 299 300 374
f 374 300 301
f 374 301 377
f 377 301 294
f 388 387 386
f 390 389 386
f 390 386 387
f 390 380 389
f 380 303 389
f 380 297 303
f 393 392 391
f 393 391 382
f 391 381 382
f 391 394 381
f 394 305 306
f 385 394 306
f 381 394 385
f 385 306 299
f 388 386 308
f 309 388 308
f 395 388 309
f 308 386 311
f 311 386 389
f 311 389 303
f 398 397 396
f 400 399 396
f 396 399 398
f 399 400 392
f 400 391 392
f 400 401 391
f 401 313 314
f 394 401 314
f 391 401 394
f 394 314 305
f 404 403 402
f 403 395 402
f 395 316 402
f 395 309 316
f 396 397 405
f 405 397 406
f 396 407 400
f 396 405 407
f 407 318 319
f 401 407 319
f 400 407 401
f 401 319 313
f 410 409 408
f 408 409 404
f 408 404 402
f 323 408 402
f 322 323 402
f 322 402 316
f 413 412 411
f 413 411 406
f 411 405 406
f 411 414 405
f 414 325 326
f 407 414 326
f 405 414 407
f 407 326 318
f 415 410 408
f 408 323 415
f 323 416 415
f 323 327 416
f 411 412 417
f 417 412 418
f 417 329 330
f 414 417 330
f 411 417 414
f 414 330 325
f 421 420 419
f 420 416 419
f 416 332 419
f 416 327 332
f 417 418 335
f 418 334 335
f 418 422 334
f 417 335 329
f 423 421 419
f 419 332 423
f 332 424 423
f 332 336 424
f 422 337 334
f 425 337 422
f 427 426 339
f 427 339 340
f 339 428 342
f 426 428 339
f 336 342 424
f 424 342 428
f 430 343 429
f 343 425 429
f 343 337 425
f 431 430 429
f 434 433 432
f 436 435 432
f 436 432 433
f 438 437 435
f 438 435 436
f 438 427 437
f 427 344 437
f 427 340 344
f 430 345 343
f 431 439 430
f 439 345 430
f 439 347 345
f 347 440 349
f 439 440 347
f 349 441 351
f 440 441 349
f 351 442 353
f 441 442 351
f 432 355 434
f 355 442 434
f 355 353 442
f 355 432 357
f 357 432 435
f 357 435 359
f 359 435 437
f 359 437 344
f 445 444 443
f 447 446 443
f 443 446 445
f 449 448 447
f 447 448 446
f 449 450 448
f 453 452 451
f 453 451 444
f 451 443 444
f 451 454 443
f 454 362 363
f 447 454 363
f 443 454 447
f 447 363 364
f 455 447 364
f 449 447 455
f 450 449 456
f 449 457 456
f 449 455 457
f 366 367 457
f 367 456 457
f 367 458 456
f 460 459 368
f 459 367 368
f 459 458 367
f 460 370 459
f 370 371 459
f 462 461 459
f 462 459 371
f 372 463 371
f 371 463 462
f 373 463 372
f 451 452 464
f 464 452 465
f 451 466 454
f 451 464 466
f 466 375 362
f 466 362 454
f 376 455 364
f 455 376 378
f 455 378 457
f 457 378 366
f 379 460 368
f 379 370 460
f 468 461 467
f 462 467 461
f 469 462 463
f 467 462 469
f 380 469 373
f 373 469 463
f 472 471 470
f 474 473 470
f 470 473 472
f 473 474 465
f 465 474 464
f 474 382 464
f 382 383 464
f 464 383 384
f 464 384 466
f 466 384 375
f 468 467 387
f 388 468 387
f 475 468 388
f 387 467 390
f 390 467 469
f 390 469 380
f 478 477 476
f 478 476 471
f 476 470 471
f 476 479 470
f 479 392 393
f 474 479 393
f 470 479 474
f 474 393 382
f 395 475 388
f 395 480 475
f 476 477 398
f 477 397 398
f 477 481 397
f 476 398 399
f 476 399 479
f 479 399 392
f 483 482 403
f 483 403 404
f 395 403 480
f 480 403 482
f 481 406 397
f 484 406 481
f 486 485 409
f 486 409 410
f 404 409 483
f 483 409 485
f 488 487 413
f 413 487 412
f 413 406 484
f 413 484 488
f 489 486 410
f 489 410 415
f 415 416 489
f 489 416 490
f 487 418 412
f 491 418 487
f 493 492 420
f 493 420 421
f 416 420 490
f 490 420 492
f 496 495 494
f 491 496 494
f 422 491 494
f 418 491 422
f 497 493 421
f 497 421 423
f 423 424 497
f 497 424 498
f 494 495 499
f 499 495 500
f 499 425 422
f 499 422 494
f 502 501 426
f 502 426 427
f 426 503 428
f 501 503 426
f 424 428 498
f 498 428 503
f 500 504 499
f 504 506 505
f 504 505 429
f 499 504 429
f 425 499 429
f 505 431 429
f 509 508 507
f 433 434 507
f 508 433 507
f 510 433 508
f 433 511 436
f 510 511 433
f 436 512 438
f 511 512 436
f 427 438 502
f 502 438 512
f 506 513 505
f 505 513 431
f 513 439 431
f 513 514 439
f 439 515 440
f 514 515 439
f 440 516 441
f 515 516 440
f 507 442 509
f 442 516 509
f 442 441 516
f 442 507 434
f 519 518 517
f 521 520 517
f 517 520 519
f 521 522 520
f 525 524 523
f 525 523 518
f 518 523 517
f 523 444 517
f 444 445 517
f 517 445 446
f 517 446 521
f 526 522 521
f 446 526 521
f 448 526 446
f 528 527 450
f 527 448 450
f 527 526 448
f 528 529 527
f 523 524 453
f 524 452 453
f 524 530 452
f 523 453 444
f 456 528 450
f 531 529 528
f 456 531 528
f 458 531 456
f 533 531 532
f 531 459 532
f 531 458 459
f 461 532 459
f 536 535 534
f 530 536 534
f 465 530 534
f 452 530 465
f 537 533 532
f 532 461 537
f 461 538 537
f 461 468 538
f 541 540 539
f 471 472 539
f 472 541 539
f 472 542 541
f 473 534 535
f 542 473 535
f 472 473 542
f 534 473 465
f 475 538 468
f 475 543 538
f 539 540 478
f 540 477 478
f 540 544 477
f 539 478 471
f 547 546 545
f 546 543 545
f 543 480 545
f 543 475 480
f 544 481 477
f 548 481 544
f 547 545 482
f 483 547 482
f 549 547 483
f 482 545 480
f 548 484 481
f 550 484 548
f 486 551 485
f 551 552 485
f 552 483 485
f 552 549 483
f 554 553 488
f 488 553 487
f 488 484 550
f 488 550 554
f 489 551 486
f 489 490 551
f 490 552 551
f 490 555 552
f 558 557 556
f 553 558 556
f 491 553 556
f 487 553 491
f 560 559 492
f 560 492 493
f 490 492 555
f 555 492 559
f 563 562 561
f 563 561 557
f 557 561 556
f 561 495 556
f 495 496 556
f 556 496 491
f 564 560 493
f 564 493 497
f 497 498 564
f 564 498 565
f 562 566 561
f 495 561 566
f 567 495 566
f 500 495 567
f 570 569 568
f 571 568 569
f 502 572 501
f 501 572 573
f 574 501 573
f 503 501 574
f 498 503 565
f 565 503 574
f 504 500 575
f 500 576 575
f 500 567 576
f 575 506 504
f 579 578 577
f 581 580 577
f 581 577 578
f 508 509 580
f 581 508 580
f 582 508 581
f 508 583 510
f 582 583 508
f 568 511 570
f 511 583 570
f 511 510 583
f 571 584 568
f 584 511 568
f 584 512 511
f 502 512 572
f 512 585 572
f 512 584 585
f 572 585 573
f 576 586 575
f 575 586 506
f 586 513 506
f 586 587 513
f 513 588 514
f 587 588 513
f 577 515 579
f 515 588 579
f 515 514 588
f 515 577 516
f 516 577 580
f 516 580 509
f 590 589 519
f 519 589 518
f 591 519 520
f 591 590 519
f 593 592 522
f 592 520 522
f 592 591 520
f 593 594 592
f 596 595 525
f 525 595 524
f 525 518 589
f 525 589 596
f 526 593 522
f 597 594 593
f 526 597 593
f 527 597 526
f 527 529 597
f 597 529 598
f 595 530 524
f 599 530 595
f 600 598 529
f 600 529 531
f 531 533 600
f 600 533 601
f 604 603 602
f 535 536 602
f 536 604 602
f 536 605 604
f 536 530 599
f 536 599 605
f 606 601 533
f 606 533 537
f 537 538 606
f 606 538 607
f 608 540 541
f 603 609 602
f 609 541 602
f 541 542 602
f 541 609 608
f 602 542 535
f 543 607 538
f 543 610 607
f 612 611 608
f 611 540 608
f 611 544 540
f 612 608 609
f 547 613 546
f 613 614 546
f 614 543 546
f 614 610 543
f 611 548 544
f 615 548 611
f 617 616 613
f 547 617 613
f 549 617 547
f 613 616 614
f 620 619 618
f 615 620 618
f 550 615 618
f 548 615 550
f 552 617 549
f 552 621 617
f 618 619 554
f 619 553 554
f 619 622 553
f 618 554 550
f 625 624 623
f 624 621 623
f 621 555 623
f 621 552 555
f 627 626 558
f 558 626 557
f 558 553 622
f 558 622 627
f 625 623 559
f 560 625 559
f 628 625 560
f 559 623 555
f 630 629 563
f 563 629 562
f 563 557 626
f 563 626 630
f 633 632 631
f 634 631 564
f 631 628 564
f 628 560 564
f 628 631 632
f 565 634 564
f 566 562 635
f 562 636 635
f 562 629 636
f 635 567 566
f 639 638 637
f 569 570 637
f 638 569 637
f 640 569 638
f 642 641 571
f 569 642 571
f 640 642 569
f 641 642 633
f 631 641 633
f 643 641 631
f 573 643 574
f 643 634 574
f 643 631 634
f 574 634 565
f 636 644 635
f 567 635 644
f 645 567 644
f 576 567 645
f 647 646 578
f 647 578 579
f 578 648 581
f 646 648 578
f 581 649 582
f 648 649 581
f 637 583 639
f 583 649 639
f 583 582 649
f 583 637 570
f 641 584 571
f 584 641 585
f 585 641 643
f 585 643 573
f 645 650 576
f 576 650 586
f 586 651 587
f 650 651 586
f 587 652 588
f 651 652 587
f 579 588 647
f 647 588 652
f 655 654 653
f 589 590 653
f 590 655 653
f 590 656 655
f 657 590 591
f 657 656 590
f 658 591 592
f 658 657 591
f 660 659 594
f 659 592 594
f 659 658 592
f 660 661 659
f 664 663 662
f 664 662 654
f 654 662 653
f 662 595 653
f 595 596 653
f 653 596 589
f 597 660 594
f 597 598 660
f 598 661 660
f 598 665 661
f 662 663 666
f 666 663 667
f 666 599 595
f 666 595 662
f 668 665 598
f 668 598 600
f 600 601 668
f 668 601 669
f 670 603 604
f 667 671 666
f 671 604 666
f 604 605 666
f 604 671 670
f 666 605 599
f 672 669 601
f 672 601 606
f 674 673 607
f 673 606 607
f 673 672 606
f 674 675 673
f 677 676 670
f 676 603 670
f 676 609 603
f 677 670 671
f 679 678 674
f 607 679 674
f 610 679 607
f 674 678 675
f 681 680 612
f 612 680 611
f 612 609 676
f 612 676 681
f 614 679 610
f 614 682 679
f 685 684 683
f 680 685 683
f 615 680 683
f 611 680 615
f 687 686 616
f 687 616 617
f 614 616 682
f 682 616 686
f 683 684 620
f 684 619 620
f 684 688 619
f 683 620 615
f 621 687 617
f 621 689 687
f 692 691 690
f 688 692 690
f 622 688 690
f 619 688 622
f 694 693 624
f 694 624 625
f 621 624 689
f 689 624 693
f 697 696 695
f 697 695 691
f 691 695 690
f 695 626 690
f 626 627 690
f 690 627 622
f 628 694 625
f 628 698 694
f 699 629 630
f 696 700 695
f 701 695 700
f 701 626 695
f 701 699 630
f 626 701 630
f 704 703 702
f 632 633 702
f 703 632 702
f 705 632 703
f 628 632 698
f 698 632 705
f 706 636 699
f 699 636 629
f 699 701 707
f 699 707 706
f 709 708 638
f 709 638 639
f 638 710 640
f 708 710 638
f 702 642 704
f 642 710 704
f 642 640 710
f 642 702 633
f 706 644 636
f 712 711 645
f 712 645 644
f 707 712 644
f 706 707 644
f 713 711 712
f 715 714 646
f 715 646 647
f 646 716 648
f 714 716 646
f 648 717 649
f 716 717 648
f 639 649 709
f 709 649 717
f 711 650 645
f 713 718 711
f 718 650 711
f 718 651 650
f 651 719 652
f 718 719 651
f 647 652 715
f 715 652 719
f 720 654 655
f 720 655 721
f 655 722 721
f 655 656 722
f 723 656 657
f 723 722 656
f 724 657 658
f 724 723 657
f 726 724 725
f 724 659 725
f 724 658 659
f 661 725 659
f 727 663 664
f 654 720 664
f 720 727 664
f 720 728 727
f 720 721 729
f 720 729 728
f 730 726 725
f 661 665 725
f 665 731 725
f 731 730 725
f 731 665 732
f 732 733 731
f 734 667 727
f 727 667 663
f 735 727 728
f 734 727 735
f 728 729 736
f 728 736 735
f 668 732 665
f 738 737 669
f 669 737 668
f 737 733 668
f 733 732 668
f 738 739 737
f 740 671 734
f 734 671 667
f 735 742 741
f 740 735 741
f 734 735 740
f 742 735 736
f 672 738 669
f 743 739 738
f 672 743 738
f 673 743 672
f 673 675 743
f 743 675 744
f 745 676 677
f 746 745 677
f 746 677 671
f 747 746 671
f 740 747 671
f 747 740 741
f 749 748 678
f 749 678 679
f 675 678 744
f 744 678 748
f 750 680 681
f 751 750 681
f 751 681 676
f 752 751 676
f 745 752 676
f 752 745 746
f 682 749 679
f 682 753 749
f 754 684 685
f 755 754 685
f 755 685 680
f 756 755 680
f 750 756 680
f 756 750 751
f 758 757 686
f 758 686 687
f 682 686 753
f 753 686 757
f 760 759 754
f 759 684 754
f 759 688 684
f 760 754 755
f 689 758 687
f 689 761 758
f 764 763 762
f 691 692 762
f 692 764 762
f 692 765 764
f 692 688 759
f 692 759 765
f 767 766 693
f 767 693 694
f 689 693 761
f 761 693 766
f 762 763 697
f 763 696 697
f 763 768 696
f 762 697 691
f 698 767 694
f 698 769 767
f 768 770 696
f 696 770 700
f 701 700 770
f 701 770 771
f 774 773 772
f 703 704 772
f 773 703 772
f 775 703 773
f 703 776 705
f 775 776 703
f 698 705 769
f 769 705 776
f 778 707 777
f 707 771 777
f 707 701 771
f 779 778 777
f 781 780 708
f 781 708 709
f 772 710 774
f 710 780 774
f 710 708 780
f 710 772 704
f 778 712 707
f 713 712 778
f 779 713 778
f 782 713 779
f 785 784 783
f 714 715 783
f 784 714 783
f 786 714 784
f 714 787 716
f 786 787 714
f 716 788 717
f 787 788 716
f 709 717 781
f 781 717 788
f 782 789 713
f 713 789 718
f 783 719 785
f 719 789 785
f 719 718 789
f 719 783 715
f 790 721 722
f 723 791 722
f 722 791 790
f 724 792 723
f 723 792 791
f 726 792 724
f 793 729 790
f 790 729 721
f 794 790 791
f 793 790 794
f 795 791 792
f 794 791 795
f 730 796 726
f 796 792 726
f 796 795 792
f 731 797 730
f 730 797 796
f 733 797 731
f 798 736 793
f 793 736 729
f 794 800 799
f 798 794 799
f 793 794 798
f 800 794 795
f 800 795 801
f 801 795 796
f 801 796 802
f 802 796 797
f 802 797 803
f 805 803 804
f 804 803 737
f 803 797 737
f 797 733 737
f 739 804 737
f 806 741 742
f 736 798 742
f 798 806 742
f 798 807 806
f 798 799 808
f 798 808 807
f 809 805 804
f 811 809 810
f 810 809 743
f 809 804 743
f 804 739 743
f 744 810 743
f 812 746 747
f 813 812 747
f 813 747 741
f 814 813 741
f 806 814 741
f 814 806 807
f 814 807 815
f 815 807 808
f 811 810 748
f 749 811 748
f 816 811 749
f 748 810 744
f 817 751 752
f 818 817 752
f 818 752 746
f 819 818 746
f 812 819 746
f 819 812 813
f 753 816 749
f 753 820 816
f 822 821 756
f 756 821 755
f 756 751 817
f 823 756 817
f 822 756 823
f 823 817 818
f 825 824 757
f 825 757 758
f 753 757 820
f 820 757 824
f 828 827 826
f 830 829 826
f 826 829 828
f 759 760 830
f 760 829 830
f 760 831 829
f 760 755 821
f 760 821 831
f 761 825 758
f 761 832 825
f 826 827 764
f 827 763 764
f 827 833 763
f 826 764 765
f 826 765 830
f 830 765 759
f 835 834 766
f 835 766 767
f 761 766 832
f 832 766 834
f 833 768 763
f 836 768 833
f 839 838 837
f 841 840 837
f 841 837 838
f 841 835 840
f 835 769 840
f 835 767 769
f 836 842 768
f 768 842 770
f 771 770 842
f 771 842 843
f 846 845 844
f 848 847 844
f 848 844 845
f 773 774 847
f 848 773 847
f 849 773 848
f 837 775 839
f 775 849 839
f 775 773 849
f 775 837 776
f 776 837 840
f 776 840 769
f 843 850 771
f 771 850 777
f 779 777 850
f 779 850 851
f 854 853 852
f 856 855 852
f 856 852 853
f 855 856 846
f 844 855 846
f 857 855 844
f 781 857 780
f 857 847 780
f 857 844 847
f 780 847 774
f 851 782 779
f 858 782 851
f 860 859 784
f 860 784 785
f 852 786 854
f 786 859 854
f 786 784 859
f 786 852 787
f 787 852 855
f 787 855 788
f 788 855 857
f 788 857 781
f 858 861 782
f 782 861 789
f 785 789 860
f 860 789 861
f 862 799 800
f 862 800 863
f 800 864 863
f 800 801 864
f 865 801 802
f 865 864 801
f 866 802 803
f 866 865 802
f 803 805 866
f 866 805 867
f 869 868 862
f 868 799 862
f 868 808 799
f 869 862 863
f 870 867 805
f 870 805 809
f 809 811 870
f 870 811 871
f 872 813 814
f 815 873 814
f 814 873 872
f 874 873 815
f 808 874 815
f 868 874 808
f 816 871 811
f 816 875 871
f 876 818 819
f 813 872 819
f 872 876 819
f 872 877 876
f 873 879 878
f 877 873 878
f 872 873 877
f 879 873 874
f 820 875 816
f 820 880 875
f 882 881 822
f 822 881 821
f 883 822 823
f 883 882 822
f 823 818 876
f 884 823 876
f 883 823 884
f 884 876 877
f 884 877 885
f 885 877 878
f 887 886 824
f 887 824 825
f 820 824 880
f 880 824 886
f 888 827 828
f 888 828 889
f 828 890 889
f 828 829 890
f 891 829 831
f 891 890 829
f 831 821 881
f 831 881 891
f 894 893 892
f 893 887 892
f 887 832 892
f 887 825 832
f 895 833 888
f 888 833 827
f 888 889 896
f 888 896 895
f 899 898 897
f 901 900 897
f 901 897 898
f 900 901 894
f 900 894 892
f 835 900 892
f 834 835 892
f 834 892 832
f 903 902 895
f 902 833 895
f 902 836 833
f 903 895 896
f 906 905 904
f 908 907 904
f 908 904 905
f 907 908 899
f 907 899 897
f 839 907 897
f 838 839 897
f 838 897 841
f 841 897 900
f 841 900 835
f 902 909 836
f 836 909 842
f 843 842 909
f 843 909 910
f 913 912 911
f 845 846 911
f 912 845 911
f 914 845 912
f 904 848 906
f 848 914 906
f 848 845 914
f 848 904 849
f 849 904 907
f 849 907 839
f 910 915 843
f 843 915 850
f 851 850 915
f 851 915 916
f 918 917 853
f 918 853 854
f 911 856 913
f 856 917 913
f 856 853 917
f 856 911 846
f 920 858 919
f 858 916 919
f 858 851 916
f 859 860 920
f 919 859 920
f 921 859 919
f 854 859 918
f 918 859 921
f 920 861 858
f 861 920 860
f 922 863 864
f 865 923 864
f 864 923 922
f 923 865 924
f 865 925 924
f 865 866 925
f 927 926 867
f 926 866 867
f 926 925 866
f 929 928 927
f 927 928 926
f 929 930 928
f 931 868 869
f 863 922 869
f 922 931 869
f 922 932 931
f 923 934 933
f 932 923 933
f 922 923 932
f 934 923 924
f 870 927 867
f 927 870 871
f 935 927 871
f 929 927 935
f 930 929 936
f 936 929 935
f 937 874 931
f 931 874 868
f 932 939 938
f 937 932 938
f 931 932 937
f 939 932 933
f 941 940 935
f 871 941 935
f 875 941 871
f 935 940 936
f 942 878 879
f 943 942 879
f 943 879 874
f 944 943 874
f 937 944 874
f 944 937 938
f 947 946 945
f 946 941 945
f 941 880 945
f 941 875 880
f 948 881 882
f 948 882 949
f 882 950 949
f 882 883 950
f 951 883 884
f 951 950 883
f 952 884 885
f 952 951 884
f 885 878 942
f 953 885 942
f 952 885 953
f 953 942 943
f 956 955 954
f 954 955 947
f 954 947 945
f 887 954 945
f 886 887 945
f 886 945 880
f 957 889 890
f 891 958 890
f 890 958 957
f 881 948 891
f 948 958 891
f 948 959 958
f 948 949 960
f 961 948 960
f 959 948 961
f 963 962 961
f 963 961 960
f 965 964 962
f 965 962 963
f 966 964 965
f 969 968 967
f 971 970 967
f 971 967 968
f 970 971 956
f 970 956 954
f 894 970 954
f 893 894 954
f 893 954 887
f 972 896 957
f 957 896 889
f 973 957 958
f 972 957 973
f 959 975 974
f 973 959 974
f 958 959 973
f 977 976 975
f 959 977 975
f 961 977 959
f 978 961 962
f 977 961 978
f 979 962 964
f 978 962 979
f 964 966 980
f 981 964 980
f 979 964 981
f 983 982 981
f 983 981 980
f 982 983 969
f 982 969 967
f 899 982 967
f 898 899 967
f 898 967 901
f 901 967 970
f 901 970 894
f 984 902 903
f 896 972 903
f 972 984 903
f 972 985 984
f 986 972 973
f 985 972 986
f 973 974 987
f 973 987 986
f 976 977 988
f 976 988 989
f 990 977 978
f 988 977 990
f 991 978 979
f 990 978 991
f 906 991 905
f 991 981 905
f 991 979 981
f 905 981 908
f 908 981 982
f 908 982 899
f 984 909 902
f 909 984 910
f 984 992 910
f 984 985 992
f 993 985 986
f 992 985 993
f 986 987 994
f 995 986 994
f 993 986 995
f 995 994 989
f 988 995 989
f 996 995 988
f 913 996 912
f 996 990 912
f 996 988 990
f 912 990 914
f 914 990 991
f 914 991 906
f 992 915 910
f 915 992 916
f 992 997 916
f 992 993 997
f 998 993 995
f 997 993 998
f 918 998 917
f 998 996 917
f 998 995 996
f 917 996 913
f 997 919 916
f 919 997 921
f 921 997 998
f 921 998 918
f 999 924 925
f 999 925 1000
f 925 1001 1000
f 925 926 1001
f 1002 926 928
f 1002 1001 926
f 928 930 1002
f 1002 930 1003
f 1004 933 934
f 1005 1004 934
f 1005 934 924
f 1006 1005 924
f 999 1006 924
f 1006 999 1000
f 936 1003 930
f 936 1007 1003
f 1008 938 939
f 933 1004 939
f 1004 1008 939
f 1004 1009 1008
f 1004 1005 1010
f 1004 1010 1009
f 1012 1011 940
f 1012 940 941
f 936 940 1007
f 1007 940 1011
f 1013 943 944
f 938 1008 944
f 1008 1013 944
f 1008 1014 1013
f 1015 1008 1009
f 1014 1008 1015
f 1009 1010 1016
f 1017 1009 1016
f 1015 1009 1017
f 946 947 1017
f 1016 946 1017
f 1018 946 1016
f 941 946 1012
f 1012 946 1018
f 1019 949 950
f 951 1020 950
f 950 1020 1019
f 952 1021 951
f 951 1021 1020
f 953 1022 952
f 952 1022 1021
f 943 1013 953
f 1013 1022 953
f 1013 1023 1022
f 1024 1013 1014
f 1023 1013 1024
f 1025 1014 1015
f 1024 1014 1025
f 956 1025 955
f 1025 1017 955
f 1025 1015 1017
f 955 1017 947
f 1019 960 949
f 960 1019 963
f 963 1019 1020
f 963 1020 965
f 965 1020 1021
f 965 1021 966
f 1021 1026 966
f 1021 1022 1026
f 1027 1022 1023
f 1026 1022 1027
f 969 1027 968
f 1027 1024 968
f 1027 1023 1024
f 968 1024 971
f 971 1024 1025
f 971 1025 956
f 1028 974 975
f 976 1028 975
f 1026 980 966
f 980 1026 983
f 983 1026 1027
f 983 1027 969
f 1029 987 1028
f 1028 987 974
f 989 1029 976
f 976 1029 1028
f 1029 994 987
f 994 1029 989
f 1030 1000 1001
f 1002 1031 1001
f 1001 1031 1030
f 1003 1031 1002
f 1032 1005 1006
f 1000 1030 1006
f 1030 1032 1006
f 1030 1033 1032
f 1031 1035 1034
f 1033 1031 1034
f 1030 1031 1033
f 1031 1003 1035
f 1003 1036 1035
f 1003 1007 1036
f 1037 1010 1032
f 1032 1010 1005
f 1033 1039 1038
f 1037 1033 1038
f 1032 1033 1037
f 1040 1039 1012
f 1033 1012 1039
f 1012 1033 1011
f 1034 1011 1033
f 1011 1034 1041
f 1007 1011 1036
f 1036 1011 1041
f 1037 1016 1010
f 1038 1042 1037
f 1042 1016 1037
f 1042 1018 1016
f 1012 1018 1040
f 1040 1018 1042
f 1043 1034 1035
f 1036 1043 1035
f 1044 1038 1039
f 1034 1043 1041
f 1044 1039 1040
f 1041 1043 1036
f 1044 1042 1038
f 1042 1044 1040
