v 30.9 -10.0 15.0
v 31.0 -10.0 14.9
v 31.0 -10.1 15.0
v 31.0 -10.0 15.1
v 30.8 -9.0 15.0
v 31.0 -9.0 14.8
v 31.0 -9.0 15.4
v 30.8 -8.0 15.0
v 31.0 -8.0 14.8
v 31.0 -8.4 16.0
v 30.8 -8.0 16.0
v 31.0 -8.0 16.3
v 31.0 -7.8 15.0
v 31.0 -7.0 16.0
v 31.0 -7.0 16.0
v 31.0 -7.0 16.0
v 31.0 -7.0 16.0
v 32.0 -12.0 15.0
v 32.0 -12.0 15.0
v 32.0 -12.0 15.0
v 32.0 -12.2 16.0
v 31.8 -12.0 16.0
v 32.0 -12.1 17.0
v 31.9 -12.0 17.0
v 32.0 -12.0 17.1
v 31.8 -11.0 14.0
v 32.0 -11.0 13.8
v 32.0 -11.2 14.0
v 31.5 -11.0 15.0
v 31.5 -11.0 16.0
v 31.5 -11.0 17.0
v 32.0 -11.5 18.0
v 31.6 -11.0 18.0
v 32.0 -11.4 19.0
v 31.6 -11.0 19.0
v 32.0 -11.2 20.0
v 31.8 -11.0 20.0
v 32.0 -11.0 20.3
v 31.7 -10.0 14.0
v 32.0 -10.0 13.7
v 31.4 -10.0 16.0
v 31.5 -10.0 17.0
v 31.5 -10.0 18.0
v 31.6 -10.0 19.0
v 31.8 -10.0 20.0
v 32.0 -10.0 20.3
v 32.0 -9.6 14.0
v 32.0 -9.0 14.4
v 31.3 -9.0 16.0
v 31.5 -9.0 17.0
v 31.6 -9.0 18.0
v 32.0 -9.0 18.6
v 32.0 -9.4 19.0
v 32.0 -9.7 20.0
v 32.0 -8.0 14.7
v 31.4 -8.0 17.0
v 31.7 -8.0 18.0
v 32.0 -8.0 18.3
v 32.0 -7.7 15.0
v 32.0 -7.0 15.6
v 31.7 -7.0 17.0
v 32.0 -7.0 17.4
v 32.0 -7.6 18.0
v 32.0 -6.7 16.0
v 32.0 -6.7 17.0
v 32.0 -12.0 15.0
v 32.3 -12.0 16.0
v 32.1 -12.0 17.0
v 32.8 -12.0 18.0
v 33.0 -12.0 17.7
v 33.0 -12.1 18.0
v 33.0 -12.0 18.3
v 33.0 -11.0 13.7
v 33.0 -11.3 14.0
v 33.0 -11.6 15.0
v 33.0 -11.6 16.0
v 33.0 -11.7 17.0
v 33.0 -11.7 19.0
v 33.0 -11.6 20.0
v 33.0 -11.4 21.0
v 32.7 -11.0 21.0
v 33.0 -11.0 21.4
v 33.0 -10.0 13.0
v 33.0 -10.0 13.0
v 33.0 -10.0 13.0
v 32.5 -10.0 21.0
v 33.0 -10.0 21.5
v 33.0 -10.0 13.0
v 33.0 -9.4 14.0
v 33.0 -9.0 14.5
v 32.3 -9.0 19.0
v 32.5 -9.0 20.0
v 32.7 -9.0 21.0
v 33.0 -9.0 21.3
v 33.0 -8.4 15.0
v 32.5 -8.0 15.0
v 33.0 -8.0 15.3
v 32.6 -8.0 19.0
v 33.0 -8.0 19.5
v 33.0 -8.4 20.0
v 33.0 -8.7 21.0
v 33.0 -7.0 15.7
v 32.6 -7.0 18.0
v 33.0 -7.0 18.5
v 33.0 -7.5 19.0
v 33.0 -6.8 16.0
v 33.0 -6.5 17.0
v 33.0 -6.7 18.0
v 33.8 -13.0 21.0
v 34.0 -13.0 20.7
v 34.0 -13.2 21.0
v 34.0 -13.0 21.3
v 34.0 -12.0 17.7
v 34.0 -12.2 18.0
v 34.0 -12.3 19.0
v 33.5 -12.0 19.0
v 34.0 -12.6 20.0
v 33.5 -12.0 20.0
v 33.4 -12.0 21.0
v 34.0 -12.4 22.0
v 33.7 -12.0 22.0
v 34.0 -12.0 22.3
v 33.4 -11.0 14.0
v 34.0 -11.0 14.5
v 34.0 -11.3 15.0
v 34.0 -11.5 16.0
v 34.0 -11.6 17.0
v 33.5 -11.0 22.0
v 34.0 -11.0 22.5
v 33.0 -10.0 13.0
v 34.0 -10.0 13.2
v 34.0 -10.5 14.0
v 33.5 -10.0 22.0
v 34.0 -10.0 22.5
v 34.0 -9.5 14.0
v 34.0 -9.0 14.4
v 33.7 -9.0 22.0
v 34.0 -9.0 22.3
v 34.0 -8.5 15.0
v 34.0 -8.0 15.5
v 33.4 -8.0 20.0
v 33.7 -8.0 21.0
v 34.0 -8.0 21.3
v 34.0 -8.7 22.0
v 34.0 -7.4 16.0
v 33.4 -7.0 16.0
v 34.0 -7.0 16.5
v 33.4 -7.0 19.0
v 34.0 -7.0 19.7
v 34.0 -7.3 20.0
v 34.0 -7.7 21.0
v 34.0 -6.7 17.0
v 34.0 -6.4 18.0
v 34.0 -6.0 19.0
v 34.0 -6.0 19.0
v 34.0 -6.0 19.0
v 34.0 -6.0 19.0
v 34.8 -14.0 20.0
v 35.0 -14.0 19.8
v 35.0 -14.2 20.0
v 35.0 -14.4 21.0
v 34.6 -14.0 21.0
v 35.0 -14.3 22.0
v 34.7 -14.0 22.0
v 35.0 -14.0 22.3
v 34.4 -13.0 20.0
v 35.0 -13.0 19.6
v 34.4 -13.0 22.0
v 35.0 -13.0 22.6
v 34.3 -12.0 18.0
v 34.8 -12.0 19.0
v 35.0 -12.0 19.1
v 35.0 -12.5 23.0
v 34.7 -12.0 23.0
v 35.0 -12.0 23.3
v 34.4 -11.0 15.0
v 35.0 -11.0 15.6
v 35.0 -11.3 16.0
v 35.0 -11.4 17.0
v 35.0 -11.6 18.0
v 35.0 -11.9 19.0
v 34.5 -11.0 23.0
v 35.0 -11.0 23.4
v 34.5 -10.0 14.0
v 35.0 -10.0 14.5
v 35.0 -10.5 15.0
v 34.7 -10.0 23.0
v 35.0 -10.0 23.2
v 35.0 -9.1 14.0
v 34.9 -9.0 14.0
v 35.0 -9.0 13.9
v 35.0 -9.7 23.0
v 35.0 -9.0 22.5
v 35.0 -8.9 14.0
v 35.0 -8.4 15.0
v 35.0 -8.0 15.5
v 35.0 -8.4 22.0
v 35.0 -8.0 21.7
v 35.0 -7.6 16.0
v 34.8 -7.0 17.0
v 35.0 -7.1 17.0
v 35.0 -7.0 17.1
v 34.3 -7.0 20.0
v 34.7 -7.0 21.0
v 35.0 -7.0 21.3
v 35.0 -6.3 18.0
v 35.0 -6.0 18.4
v 34.6 -6.0 20.0
v 35.0 -6.0 20.4
v 35.0 -6.6 21.0
v 35.0 -5.5 19.0
v 35.0 -5.6 20.0
v 35.7 -15.0 22.0
v 36.0 -15.0 21.7
v 36.0 -15.2 22.0
v 36.0 -15.2 23.0
v 35.8 -15.0 23.0
v 36.0 -15.0 23.2
v 36.0 -14.0 19.6
v 36.0 -14.4 20.0
v 36.0 -14.6 21.0
v 35.6 -14.0 23.0
v 36.0 -14.0 23.4
v 36.0 -13.0 19.3
v 35.4 -13.0 23.0
v 36.0 -13.0 23.4
v 35.1 -12.0 19.0
v 36.0 -12.0 18.6
v 36.0 -12.6 19.0
v 36.0 -12.0 23.5
v 35.3 -11.0 16.0
v 35.6 -11.0 17.0
v 36.0 -11.0 17.3
v 36.0 -11.5 18.0
v 36.0 -11.0 23.5
v 35.6 -10.0 15.0
v 36.0 -10.0 15.5
v 36.0 -10.4 16.0
v 36.0 -10.7 17.0
v 36.0 -10.0 23.4
v 36.0 -9.0 13.9
v 36.0 -9.2 14.0
v 36.0 -9.6 15.0
v 36.0 -9.5 23.0
v 36.0 -9.0 22.6
v 36.0 -8.8 14.0
v 36.0 -8.4 15.0
v 36.0 -8.0 15.3
v 35.5 -8.0 22.0
v 36.0 -8.0 22.3
v 36.0 -7.3 16.0
v 35.1 -7.0 17.0
v 36.0 -7.0 16.3
v 36.0 -7.5 22.0
v 36.0 -7.0 21.7
v 35.8 -6.0 17.0
v 36.0 -6.0 16.7
v 35.4 -6.0 18.0
v 35.6 -6.0 21.0
v 36.0 -6.0 21.3
v 36.0 -5.8 17.0
v 36.0 -5.5 18.0
v 35.6 -5.0 19.0
v 36.0 -5.0 18.5
v 35.6 -5.0 20.0
v 36.0 -5.0 20.5
v 36.0 -5.6 21.0
v 36.0 -4.0 19.0
v 36.0 -4.0 19.0
v 36.0 -4.0 19.0
v 36.0 -4.5 20.0
v 36.0 -4.0 19.0
v 37.0 -15.0 21.5
v 37.0 -15.4 22.0
v 37.0 -15.4 23.0
v 37.0 -15.0 23.4
v 36.7 -14.0 19.0
v 37.0 -14.0 18.8
v 37.0 -14.3 19.0
v 37.0 -14.5 20.0
v 37.0 -14.6 21.0
v 37.0 -14.0 23.6
v 36.4 -13.0 19.0
v 37.0 -13.0 18.6
v 37.0 -13.0 23.6
v 37.0 -12.0 18.3
v 37.0 -12.0 23.5
v 37.0 -11.0 17.6
v 37.0 -11.5 18.0
v 37.0 -11.0 23.5
v 36.5 -10.0 16.0
v 37.0 -10.0 16.5
v 37.0 -10.4 17.0
v 37.0 -10.0 23.4
v 37.0 -9.0 13.9
v 37.0 -9.1 14.0
v 37.0 -9.4 15.0
v 37.0 -9.6 16.0
v 37.0 -9.5 23.0
v 37.0 -9.0 22.6
v 37.0 -8.9 14.0
v 36.4 -8.0 15.0
v 37.0 -8.0 14.5
v 37.0 -8.0 22.5
v 37.0 -7.4 15.0
v 36.3 -7.0 16.0
v 37.0 -7.0 15.3
v 36.5 -7.0 22.0
v 37.0 -7.0 22.3
v 36.7 -6.0 16.0
v 37.0 -6.0 15.7
v 37.0 -6.6 22.0
v 37.0 -6.0 21.6
v 37.0 -5.8 16.0
v 37.0 -5.5 17.0
v 37.0 -5.4 18.0
v 37.0 -5.0 18.5
v 36.6 -5.0 21.0
v 37.0 -5.0 21.3
v 37.0 -4.4 19.0
v 36.0 -4.0 19.0
v 36.8 -4.0 20.0
v 37.0 -4.0 19.7
v 37.0 -4.0 20.2
v 37.0 -4.7 21.0
v 37.0 -3.8 20.0
v 38.0 -15.0 21.4
v 38.0 -15.4 22.0
v 38.0 -15.5 23.0
v 38.0 -15.2 24.0
v 37.7 -15.0 24.0
v 38.0 -15.0 24.2
v 38.0 -14.0 18.7
v 38.0 -14.7 19.0
v 38.0 -14.6 20.0
v 38.0 -14.7 21.0
v 37.5 -14.0 24.0
v 38.0 -14.0 24.4
v 38.0 -13.0 18.5
v 37.6 -13.0 24.0
v 38.0 -13.0 24.3
v 37.8 -12.0 18.0
v 38.0 -12.0 17.9
v 38.0 -12.2 18.0
v 38.0 -12.5 24.0
v 38.0 -12.0 23.7
v 37.5 -11.0 18.0
v 38.0 -11.7 18.0
v 38.0 -11.0 18.3
v 38.0 -11.0 23.5
v 37.4 -10.0 17.0
v 37.8 -10.0 18.0
v 38.0 -10.0 18.2
v 38.0 -10.0 23.4
v 37.1 -9.0 14.0
v 38.0 -9.0 14.7
v 38.0 -9.1 15.0
v 37.9 -9.0 16.0
v 38.0 -9.0 15.6
v 38.0 -9.0 16.2
v 38.0 -9.5 17.0
v 38.0 -9.8 18.0
v 38.0 -9.5 23.0
v 38.0 -9.0 22.6
v 37.8 -8.0 13.0
v 38.0 -8.0 12.8
v 38.0 -8.2 13.0
v 38.0 -8.6 14.0
v 37.4 -8.0 14.0
v 38.0 -8.9 16.0
v 38.0 -8.0 22.5
v 37.8 -7.0 13.0
v 38.0 -7.0 12.8
v 37.6 -7.0 14.0
v 37.3 -7.0 15.0
v 38.0 -7.0 22.4
v 38.0 -6.8 13.0
v 38.0 -6.5 14.0
v 37.7 -6.0 15.0
v 38.0 -6.0 14.6
v 38.0 -6.4 22.0
v 38.0 -6.0 21.7
v 38.0 -5.7 15.0
v 38.0 -5.4 16.0
v 38.0 -5.5 17.0
v 38.0 -5.5 18.0
v 38.0 -5.0 18.6
v 38.0 -5.0 21.4
v 38.0 -4.6 19.0
v 38.0 -4.0 19.7
v 38.0 -4.5 21.0
v 38.0 -4.0 20.3
v 37.7 -3.0 20.0
v 38.0 -3.0 19.8
v 38.0 -3.0 20.2
v 37.3 -2.0 20.0
v 38.0 -2.0 19.2
v 38.0 -2.0 20.4
v 38.0 -1.0 20.0
v 38.5 -15.0 21.0
v 39.0 -15.0 20.5
v 39.0 -15.3 21.0
v 39.0 -15.5 22.0
v 39.0 -15.5 23.0
v 39.0 -15.3 24.0
v 39.0 -15.0 24.3
v 38.4 -14.0 19.0
v 39.0 -14.0 19.5
v 39.0 -14.6 20.0
v 39.0 -14.0 24.5
v 38.8 -13.0 19.0
v 39.0 -13.0 19.2
v 39.0 -13.0 24.5
v 39.0 -12.0 17.8
v 39.0 -12.3 18.0
v 39.0 -12.8 19.0
v 38.5 -12.0 24.0
v 39.0 -12.0 24.3
v 39.0 -11.7 18.0
v 39.0 -11.0 18.3
v 39.0 -11.5 24.0
v 39.0 -11.0 23.7
v 39.0 -10.0 18.2
v 39.0 -10.0 23.4
v 38.2 -9.0 15.0
v 39.0 -9.0 16.3
v 39.0 -9.5 17.0
v 39.0 -9.8 18.0
v 39.0 -9.5 23.0
v 39.0 -9.0 22.6
v 39.0 -8.0 12.7
v 39.0 -8.3 13.0
v 39.0 -8.5 14.0
v 39.0 -8.6 15.0
v 39.0 -8.8 16.0
v 39.0 -8.0 22.5
v 39.0 -7.0 12.6
v 39.0 -7.0 22.4
v 39.0 -6.6 13.0
v 39.0 -6.2 14.0
v 39.0 -6.0 14.2
v 38.6 -6.0 18.0
v 39.0 -6.3 18.0
v 39.0 -6.0 17.2
v 38.8 -6.0 19.0
v 39.0 -6.2 19.0
v 39.0 -6.0 19.2
v 38.7 -6.0 22.0
v 39.0 -6.0 22.1
v 38.8 -5.0 15.0
v 39.0 -5.0 14.8
v 38.7 -5.0 16.0
v 39.0 -5.0 16.6
v 39.0 -5.6 17.0
v 38.4 -5.0 19.0
v 39.0 -5.0 19.5
v 39.0 -5.8 22.0
v 39.0 -5.0 21.4
v 39.0 -4.8 15.0
v 39.0 -4.8 16.0
v 38.6 -4.0 20.0
v 39.0 -4.3 20.0
v 39.0 -4.6 21.0
v 39.0 -3.0 19.8
v 39.0 -3.5 20.0
v 39.0 -3.0 20.2
v 39.0 -2.0 19.6
v 39.0 -2.0 20.3
v 38.1 -1.0 20.0
v 39.0 -1.0 19.9
v 39.0 -1.0 20.1
v 39.0 -0.9 20.0
v 39.5 -15.0 20.0
v 40.0 -15.0 19.6
v 40.0 -15.3 20.0
v 40.0 -15.5 21.0
v 40.0 -15.6 22.0
v 40.0 -15.6 23.0
v 40.0 -15.2 24.0
v 40.0 -15.0 24.2
v 40.0 -14.0 19.3
v 40.0 -14.0 24.4
v 39.8 -13.0 18.0
v 40.0 -13.0 17.9
v 40.0 -13.1 18.0
v 40.0 -13.0 18.9
v 40.0 -13.0 19.0
v 40.0 -13.0 24.4
v 40.0 -12.0 17.6
v 40.0 -13.0 19.0
v 40.0 -12.0 24.5
v 40.0 -11.2 18.0
v 40.0 -11.0 18.1
v 39.5 -11.0 24.0
v 40.0 -11.0 24.3
v 39.8 -10.0 17.0
v 40.0 -10.0 16.8
v 40.0 -10.1 17.0
v 40.0 -10.9 18.0
v 39.3 -10.0 18.0
v 40.0 -10.6 24.0
v 40.0 -10.0 23.5
v 39.4 -9.0 16.0
v 40.0 -9.0 15.6
v 40.0 -9.4 16.0
v 40.0 -9.5 23.0
v 40.0 -9.0 22.6
v 40.0 -8.0 12.8
v 40.0 -8.2 13.0
v 40.0 -8.4 14.0
v 40.0 -8.6 15.0
v 40.0 -8.0 22.4
v 40.0 -7.0 12.5
v 39.6 -7.0 22.0
v 40.0 -7.3 22.0
v 40.0 -7.0 21.7
v 39.7 -6.0 13.0
v 40.0 -6.0 12.8
v 39.3 -6.0 14.0
v 40.0 -6.3 18.0
v 40.0 -6.0 17.6
v 40.0 -6.2 19.0
v 40.0 -6.0 19.2
v 39.2 -6.0 22.0
v 40.0 -6.0 21.6
v 40.0 -5.8 13.0
v 40.0 -5.4 14.0
v 40.0 -5.0 14.5
v 39.4 -5.0 16.0
v 40.0 -5.3 16.0
v 40.0 -5.0 15.5
v 40.0 -5.6 17.0
v 40.0 -5.0 19.5
v 40.0 -5.0 21.4
v 40.0 -4.7 15.0
v 39.5 -4.0 20.0
v 40.0 -4.0 19.8
v 40.0 -4.0 20.3
v 40.0 -4.5 21.0
v 40.0 -3.0 19.8
v 40.0 -3.0 20.2
v 40.0 -2.0 19.6
v 40.0 -2.0 20.3
v 40.0 -1.0 20.0
v 40.0 -1.0 20.0
v 40.0 -1.0 20.0
v 40.9 -16.0 19.0
v 41.0 -16.0 18.9
v 41.0 -16.1 19.0
v 41.0 -16.0 19.2
v 40.6 -16.0 22.0
v 41.0 -16.0 21.4
v 41.0 -16.4 22.0
v 41.0 -16.2 23.0
v 40.7 -16.0 23.0
v 41.0 -16.0 23.2
v 40.5 -15.0 19.0
v 41.0 -15.0 18.4
v 41.0 -15.7 20.0
v 41.0 -15.8 21.0
v 41.0 -15.0 23.6
v 40.3 -15.0 24.0
v 40.6 -14.0 18.0
v 41.0 -14.0 17.6
v 41.0 -14.5 18.0
v 40.3 -14.0 19.0
v 40.5 -14.0 24.0
v 41.0 -14.0 23.6
v 41.0 -13.0 17.4
v 40.0 -13.0 19.0
v 40.7 -13.0 24.0
v 41.0 -13.0 23.7
v 41.0 -12.0 17.4
v 41.0 -12.6 24.0
v 41.0 -12.0 24.4
v 40.1 -11.0 18.0
v 41.0 -11.0 17.5
v 41.0 -11.0 24.4
v 40.3 -10.0 17.0
v 41.0 -10.0 17.3
v 41.0 -10.5 24.0
v 41.0 -10.0 23.5
v 41.0 -9.0 15.5
v 41.0 -9.4 16.0
v 41.0 -9.8 17.0
v 41.0 -9.5 23.0
v 41.0 -9.0 22.6
v 40.3 -8.0 13.0
v 40.6 -8.0 14.0
v 41.0 -8.0 14.5
v 41.0 -8.4 15.0
v 41.0 -8.0 22.4
v 40.9 -7.0 12.0
v 41.0 -7.0 11.6
v 41.0 -7.1 12.0
v 41.0 -7.4 13.0
v 41.0 -7.6 14.0
v 41.0 -7.5 22.0
v 41.0 -7.0 21.6
v 41.0 -6.9 12.0
v 41.0 -6.0 12.4
v 40.4 -6.0 18.0
v 40.3 -6.0 19.0
v 41.0 -6.0 21.5
v 41.0 -5.4 13.0
v 40.4 -5.0 14.0
v 41.0 -5.0 13.5
v 41.0 -5.4 16.0
v 41.0 -5.0 15.3
v 41.0 -5.5 17.0
v 41.0 -5.6 18.0
v 41.0 -5.3 19.0
v 41.0 -5.0 19.3
v 41.0 -5.0 21.3
v 41.0 -4.3 14.0
v 41.0 -4.7 15.0
v 41.0 -4.0 19.8
v 41.0 -4.6 21.0
v 41.0 -4.0 20.3
v 41.0 -3.7 20.0
v 40.3 -3.0 20.0
v 40.8 -2.0 19.0
v 41.0 -2.0 18.9
v 41.0 -2.1 19.0
v 41.0 -2.1 20.0
v 41.0 -2.0 20.0
v 41.0 -1.0 19.0
v 41.0 -1.9 20.0
v 40.0 -1.0 20.0
v 41.8 -17.0 21.0
v 42.0 -17.0 20.7
v 42.0 -17.2 21.0
v 42.0 -17.3 22.0
v 41.7 -17.0 22.0
v 42.0 -17.0 22.4
v 41.7 -16.0 18.0
v 42.0 -16.0 17.1
v 42.0 -16.2 18.0
v 42.0 -16.4 19.0
v 42.0 -16.5 20.0
v 41.4 -16.0 20.0
v 41.3 -16.0 21.0
v 42.0 -16.5 23.0
v 42.0 -16.0 23.4
v 41.7 -15.0 17.0
v 42.0 -15.0 16.7
v 42.0 -15.9 17.0
v 41.3 -15.0 18.0
v 42.0 -15.0 23.5
v 41.5 -14.0 17.0
v 42.0 -14.0 16.5
v 42.0 -14.0 23.5
v 41.5 -13.0 17.0
v 42.0 -13.0 16.5
v 42.0 -13.0 23.6
v 41.6 -12.0 17.0
v 42.0 -12.0 16.7
v 42.0 -12.3 24.0
v 42.0 -12.0 24.2
v 42.0 -11.6 17.0
v 42.0 -11.0 17.4
v 42.0 -11.0 24.2
v 42.0 -10.0 17.3
v 42.0 -10.7 24.0
v 42.0 -10.0 23.5
v 42.0 -9.0 15.6
v 42.0 -9.4 16.0
v 42.0 -9.7 17.0
v 42.0 -9.5 23.0
v 42.0 -9.0 22.6
v 41.6 -8.0 15.0
v 42.0 -8.0 15.3
v 42.0 -8.0 22.4
v 41.1 -7.0 12.0
v 41.4 -7.0 13.0
v 41.5 -7.0 14.0
v 42.0 -7.0 14.6
v 42.0 -7.5 15.0
v 42.0 -7.5 22.0
v 42.0 -7.0 21.6
v 42.0 -6.2 12.0
v 41.8 -6.0 12.0
v 42.0 -6.0 11.8
v 42.0 -6.3 13.0
v 42.0 -6.0 13.4
v 41.7 -6.0 14.0
v 42.0 -6.4 15.0
v 41.8 -6.0 15.0
v 42.0 -6.0 15.3
v 42.0 -6.0 21.4
v 42.0 -5.2 12.0
v 41.7 -5.0 13.0
v 42.0 -5.0 12.2
v 42.0 -5.1 14.0
v 42.0 -5.0 14.1
v 41.3 -5.0 15.0
v 42.0 -5.6 16.0
v 42.0 -5.5 17.0
v 42.0 -5.4 18.0
v 41.5 -5.0 19.0
v 42.0 -5.0 18.6
v 41.5 -5.0 21.0
v 42.0 -5.4 21.0
v 42.0 -5.0 20.7
v 42.0 -4.8 13.0
v 42.0 -4.9 14.0
v 42.0 -4.6 19.0
v 42.0 -4.0 20.0
v 42.0 -4.0 20.0
v 42.0 -4.0 20.0
v 41.7 -2.0 19.0
v 41.1 -2.0 20.0
v 43.0 -17.0 20.7
v 43.0 -17.2 21.0
v 43.0 -17.3 22.0
v 43.0 -17.1 23.0
v 42.9 -17.0 23.0
v 43.0 -17.0 23.1
v 42.4 -16.0 18.0
v 43.0 -16.0 18.5
v 43.0 -16.3 19.0
v 43.0 -16.5 20.0
v 43.0 -16.0 23.5
v 43.0 -15.0 16.6
v 43.0 -15.4 17.0
v 43.0 -15.7 18.0
v 43.0 -15.0 23.5
v 42.7 -14.0 16.0
v 43.0 -14.0 15.8
v 43.0 -14.3 16.0
v 43.0 -14.0 23.5
v 42.5 -13.0 16.0
v 43.0 -13.0 15.6
v 43.0 -13.0 23.5
v 42.7 -12.0 16.0
v 43.0 -12.0 15.8
v 42.3 -12.0 24.0
v 43.0 -12.0 23.6
v 43.0 -11.8 16.0
v 43.0 -11.3 17.0
v 43.0 -11.0 17.3
v 42.3 -11.0 24.0
v 43.0 -11.0 23.6
v 43.0 -10.0 17.2
v 43.0 -10.0 23.4
v 43.0 -9.0 15.6
v 43.0 -9.4 16.0
v 43.0 -9.8 17.0
v 43.0 -9.5 23.0
v 43.0 -9.0 22.6
v 43.0 -8.0 15.4
v 43.0 -8.0 22.4
v 43.0 -7.0 14.8
v 43.0 -7.3 15.0
v 43.0 -7.5 22.0
v 43.0 -7.0 21.6
v 42.1 -6.0 12.0
v 42.2 -6.0 13.0
v 43.0 -6.7 15.0
v 43.0 -6.0 15.5
v 43.0 -6.0 21.4
v 42.2 -5.0 13.0
v 42.1 -5.0 14.0
v 43.0 -5.6 16.0
v 43.0 -5.5 17.0
v 43.0 -5.3 18.0
v 43.0 -5.0 18.4
v 43.0 -5.5 21.0
v 43.0 -5.0 20.5
v 43.0 -4.6 19.0
v 42.0 -4.0 20.0
v 43.0 -4.5 20.0
v 43.2 -17.0 21.0
v 43.4 -17.0 22.0
v 43.1 -17.0 23.0
v 43.4 -16.0 19.0
v 43.5 -16.0 20.0
v 43.7 -16.0 21.0
v 44.0 -16.0 21.4
v 44.0 -16.4 22.0
v 44.0 -16.3 23.0
v 44.0 -16.0 23.2
v 43.5 -15.0 17.0
v 44.0 -15.0 17.5
v 44.0 -15.3 18.0
v 44.0 -15.5 19.0
v 44.0 -15.6 20.0
v 44.0 -15.8 21.0
v 44.0 -15.0 23.4
v 44.0 -14.0 15.8
v 44.0 -14.2 16.0
v 44.0 -14.7 17.0
v 44.0 -14.0 23.5
v 44.0 -13.0 15.6
v 44.0 -13.0 23.5
v 44.0 -12.0 15.7
v 44.0 -12.0 23.5
v 44.0 -11.7 16.0
v 44.0 -11.2 17.0
v 44.0 -11.0 17.3
v 44.0 -11.0 23.5
v 43.4 -10.0 17.0
v 44.0 -10.0 16.6
v 44.0 -10.6 17.0
v 44.0 -10.0 23.3
v 44.0 -9.0 15.6
v 44.0 -9.5 16.0
v 44.0 -9.6 23.0
v 44.0 -9.0 22.6
v 44.0 -8.0 15.3
v 44.0 -8.0 22.4
v 44.0 -7.0 14.8
v 44.0 -7.5 15.0
v 44.0 -7.5 22.0
v 44.0 -7.0 21.6
v 44.0 -6.7 15.0
v 44.0 -6.0 15.5
v 44.0 -6.0 21.3
v 44.0 -5.6 16.0
v 44.0 -5.3 17.0
v 43.4 -5.0 18.0
v 44.0 -5.0 17.5
v 44.0 -5.6 21.0
v 44.0 -5.0 20.5
v 44.0 -4.6 18.0
v 44.0 -4.4 19.0
v 44.0 -4.6 20.0
v 44.4 -16.0 22.0
v 44.2 -16.0 23.0
v 44.4 -15.0 18.0
v 44.6 -15.0 19.0
v 45.0 -15.0 19.5
v 45.0 -15.3 20.0
v 45.0 -15.5 21.0
v 45.0 -15.5 22.0
v 45.0 -15.0 22.6
v 44.6 -15.0 23.0
v 44.3 -14.0 16.0
v 45.0 -14.0 16.7
v 45.0 -14.3 17.0
v 45.0 -14.6 18.0
v 45.0 -14.7 19.0
v 45.0 -14.5 23.0
v 45.0 -14.0 23.3
v 44.6 -13.0 16.0
v 45.0 -13.0 16.3
v 45.0 -13.0 23.5
v 45.0 -12.0 15.8
v 45.0 -12.5 16.0
v 45.0 -12.0 23.5
v 45.0 -11.7 16.0
v 45.0 -11.2 17.0
v 45.0 -11.0 17.4
v 45.0 -11.0 23.4
v 45.0 -10.0 16.6
v 45.0 -10.7 17.0
v 44.5 -10.0 23.0
v 45.0 -10.4 23.0
v 45.0 -10.0 22.7
v 45.0 -9.0 15.6
v 45.0 -9.5 16.0
v 45.0 -9.0 22.4
v 44.7 -8.0 15.0
v 45.0 -8.0 14.9
v 45.0 -8.2 15.0
v 45.0 -8.0 22.2
v 45.0 -7.0 14.8
v 45.0 -7.7 22.0
v 45.0 -7.0 21.4
v 45.0 -6.7 15.0
v 45.0 -6.0 15.5
v 44.5 -6.0 21.0
v 45.0 -6.5 21.0
v 45.0 -6.0 20.7
v 45.0 -5.4 16.0
v 44.5 -5.0 17.0
v 45.0 -5.0 16.5
v 45.0 -5.0 20.4
v 45.0 -4.6 17.0
v 44.7 -4.0 18.0
v 45.0 -4.0 17.7
v 44.7 -4.0 19.0
v 45.0 -4.0 19.3
v 45.0 -4.5 20.0
v 45.0 -3.7 18.0
v 45.0 -3.8 19.0
v 45.5 -15.0 20.0
v 46.0 -15.0 20.4
v 46.0 -15.4 21.0
v 46.0 -15.4 22.0
v 46.0 -15.0 22.4
v 45.4 -14.0 17.0
v 46.0 -14.0 17.6
v 46.0 -14.3 18.0
v 46.0 -14.4 19.0
v 46.0 -14.7 20.0
v 45.5 -14.0 23.0
v 46.0 -14.0 22.7
v 46.0 -13.0 16.6
v 46.0 -13.5 17.0
v 46.0 -13.5 23.0
v 46.0 -13.0 23.3
v 46.0 -12.0 15.8
v 46.0 -12.3 16.0
v 46.0 -12.0 23.4
v 45.7 -11.0 16.0
v 46.0 -11.0 15.8
v 45.2 -11.0 17.0
v 46.0 -11.0 23.2
v 46.0 -10.7 16.0
v 45.8 -10.0 17.0
v 46.0 -10.2 17.0
v 46.0 -10.0 17.1
v 46.0 -10.7 23.0
v 46.0 -10.0 22.5
v 46.0 -9.0 15.8
v 46.0 -9.3 16.0
v 46.0 -9.9 17.0
v 45.7 -9.0 22.0
v 46.0 -9.3 22.0
v 46.0 -9.0 21.7
v 45.2 -8.0 15.0
v 46.0 -8.0 15.4
v 45.3 -8.0 22.0
v 46.0 -8.0 21.5
v 45.3 -7.0 15.0
v 46.0 -7.0 15.4
v 45.6 -7.0 21.0
v 46.0 -7.4 21.0
v 46.0 -7.0 20.7
v 46.0 -6.0 15.5
v 46.0 -6.0 20.5
v 45.6 -5.0 16.0
v 46.0 -5.0 15.7
v 46.0 -5.0 20.4
v 46.0 -4.6 16.0
v 46.0 -4.1 17.0
v 46.0 -4.0 17.1
v 46.0 -4.5 20.0
v 46.0 -4.0 19.5
v 46.0 -3.5 18.0
v 46.0 -3.6 19.0
v 47.0 -15.0 20.7
v 47.0 -15.2 21.0
v 47.0 -15.2 22.0
v 47.0 -15.0 22.2
v 46.3 -14.0 18.0
v 46.6 -14.0 19.0
v 47.0 -14.0 19.5
v 47.0 -14.4 20.0
v 47.0 -14.0 22.5
v 46.5 -13.0 17.0
v 47.0 -13.0 17.6
v 47.0 -13.3 18.0
v 47.0 -13.6 19.0
v 46.4 -13.0 23.0
v 47.0 -13.0 22.6
v 46.4 -12.0 16.0
v 47.0 -12.0 16.6
v 47.0 -12.4 17.0
v 46.5 -12.0 23.0
v 47.0 -12.0 22.6
v 47.0 -11.0 16.0
v 47.0 -11.0 16.0
v 46.3 -11.0 23.0
v 47.0 -11.0 22.6
v 47.0 -11.0 16.0
v 47.0 -10.6 17.0
v 47.0 -10.0 18.0
v 47.0 -10.0 18.0
v 47.0 -10.0 18.0
v 47.0 -10.0 22.4
v 46.3 -9.0 16.0
v 46.7 -9.0 17.0
v 47.0 -9.0 17.3
v 47.0 -10.0 18.0
v 47.0 -9.5 22.0
v 47.0 -9.0 21.6
v 47.0 -8.0 15.6
v 47.0 -8.5 16.0
v 47.0 -8.8 17.0
v 47.0 -8.0 21.3
v 47.0 -7.0 15.4
v 47.0 -7.6 21.0
v 47.0 -7.0 20.6
v 47.0 -6.0 15.4
v 47.0 -6.0 20.5
v 47.0 -5.0 15.5
v 47.0 -5.0 20.4
v 46.7 -4.0 16.0
v 47.0 -4.0 15.7
v 46.1 -4.0 17.0
v 47.0 -4.5 20.0
v 47.0 -4.0 19.5
v 47.0 -3.7 16.0
v 46.5 -3.0 17.0
v 47.0 -3.0 16.8
v 47.0 -3.4 18.0
v 47.0 -3.0 17.3
v 47.0 -3.6 19.0
v 47.0 -2.8 17.0
v 47.2 -15.0 21.0
v 47.2 -15.0 22.0
v 47.4 -14.0 20.0
v 47.7 -14.0 21.0
v 48.0 -14.0 21.7
v 48.0 -14.1 22.0
v 48.0 -14.0 22.1
v 47.3 -13.0 18.0
v 47.6 -13.0 19.0
v 48.0 -13.0 19.5
v 48.0 -13.4 20.0
v 48.0 -13.7 21.0
v 48.0 -13.0 22.5
v 47.3 -12.0 17.0
v 47.7 -12.0 18.0
v 48.0 -12.0 18.4
v 48.0 -12.5 19.0
v 48.0 -12.0 22.5
v 47.0 -11.0 16.0
v 47.4 -11.0 17.0
v 48.0 -11.0 17.8
v 48.0 -11.3 18.0
v 48.0 -11.0 22.5
v 48.0 -10.7 18.0
v 48.0 -10.0 18.3
v 48.0 -10.0 22.3
v 48.0 -9.0 17.6
v 48.0 -9.5 18.0
v 48.0 -9.7 22.0
v 48.0 -9.0 21.4
v 48.0 -8.0 15.6
v 48.0 -8.4 16.0
v 48.0 -8.5 17.0
v 47.5 -8.0 21.0
v 48.0 -8.5 21.0
v 48.0 -8.0 20.7
v 47.7 -7.0 15.0
v 48.0 -7.0 14.8
v 48.0 -7.3 15.0
v 48.0 -7.0 20.4
v 47.6 -6.0 15.0
v 48.0 -6.0 14.7
v 48.0 -6.0 20.4
v 48.0 -5.5 15.0
v 48.0 -5.0 15.3
v 48.0 -5.0 20.2
v 48.0 -4.0 15.6
v 48.0 -4.7 20.0
v 48.0 -4.0 19.4
v 48.0 -3.6 16.0
v 48.0 -3.0 16.9
v 48.0 -3.5 18.0
v 48.0 -3.0 17.1
v 48.0 -3.6 19.0
v 48.0 -2.9 17.0
v 48.1 -14.0 22.0
v 48.5 -13.0 20.0
v 49.0 -13.0 20.4
v 49.0 -13.4 21.0
v 49.0 -13.4 22.0
v 49.0 -13.0 22.4
v 48.7 -12.0 19.0
v 49.0 -12.0 19.3
v 49.0 -12.6 20.0
v 49.0 -12.0 22.5
v 48.2 -11.0 18.0
v 49.0 -11.0 18.6
v 49.0 -11.6 19.0
v 49.0 -11.0 22.3
v 49.0 -10.0 18.5
v 48.4 -10.0 22.0
v 49.0 -10.5 22.0
v 49.0 -10.0 21.6
v 48.5 -9.0 18.0
v 49.0 -9.0 18.3
v 48.6 -9.0 21.0
v 49.0 -9.3 21.0
v 49.0 -9.0 20.7
v 49.0 -8.0 15.9
v 49.0 -8.1 16.0
v 48.8 -8.0 17.0
v 49.0 -8.0 16.5
v 49.0 -8.0 17.2
v 49.0 -8.6 18.0
v 49.0 -8.0 20.4
v 49.0 -7.0 14.7
v 49.0 -7.3 15.0
v 49.0 -7.9 17.0
v 48.7 -7.0 20.0
v 49.0 -7.3 20.0
v 49.0 -7.0 19.7
v 49.0 -6.0 14.5
v 48.5 -6.0 20.0
v 49.0 -6.0 19.6
v 48.5 -5.0 15.0
v 49.0 -5.0 14.7
v 48.3 -5.0 20.0
v 49.0 -5.0 19.6
v 49.0 -4.7 15.0
v 49.0 -4.0 15.5
v 49.0 -4.0 19.3
v 49.0 -3.6 16.0
v 48.1 -3.0 17.0
v 49.0 -3.5 17.0
v 49.0 -3.9 18.0
v 49.0 -3.8 19.0
v 50.0 -13.0 20.7
v 50.0 -13.2 21.0
v 50.0 -13.2 22.0
v 50.0 -13.0 22.2
v 50.0 -12.0 19.1
v 50.0 -12.5 20.0
v 50.0 -12.0 22.2
v 50.0 -11.0 19.0
v 50.0 -11.0 19.0
v 49.5 -11.0 22.0
v 50.0 -11.6 22.0
v 50.0 -11.0 21.6
v 50.0 -10.0 18.7
v 50.0 -11.0 19.0
v 50.0 -10.0 21.3
v 50.0 -9.0 18.8
v 50.0 -9.7 21.0
v 50.0 -9.0 20.4
v 49.1 -8.0 16.0
v 50.0 -8.0 17.6
v 50.0 -8.4 18.0
v 50.0 -8.0 20.2
v 49.4 -7.0 15.0
v 50.0 -7.0 15.6
v 50.0 -7.3 16.0
v 50.0 -7.5 17.0
v 50.0 -7.7 20.0
v 50.0 -7.0 19.5
v 50.0 -6.0 14.7
v 50.0 -6.4 15.0
v 50.0 -6.0 19.4
v 50.0 -5.0 14.8
v 50.0 -5.0 19.3
v 50.0 -4.7 15.0
v 50.0 -4.0 15.5
v 50.0 -4.0 19.1
v 50.0 -3.5 16.0
v 50.0 -3.4 17.0
v 50.0 -3.7 18.0
v 50.0 -3.9 19.0
v 50.2 -13.0 21.0
v 50.2 -13.0 22.0
v 51.0 -12.0 19.9
v 51.0 -12.1 20.0
v 50.6 -12.0 21.0
v 51.0 -12.0 20.1
v 50.2 -12.0 22.0
v 50.0 -11.0 19.0
v 51.0 -11.0 18.9
v 51.0 -11.2 19.0
v 50.5 -11.0 21.0
v 51.0 -11.0 20.4
v 51.0 -10.0 18.5
v 50.3 -10.0 21.0
v 51.0 -10.0 20.3
v 50.9 -9.0 18.0
v 51.0 -9.0 17.9
v 51.0 -9.1 18.0
v 50.5 -9.0 20.0
v 51.0 -9.6 20.0
v 51.0 -9.0 19.4
v 50.4 -8.0 18.0
v 51.0 -8.9 18.0
v 51.0 -8.0 18.9
v 50.3 -8.0 20.0
v 51.0 -8.0 19.1
v 50.4 -7.0 16.0
v 50.5 -7.0 17.0
v 50.6 -7.0 18.0
v 51.0 -7.9 19.0
v 50.5 -7.0 19.0
v 50.3 -6.0 15.0
v 51.0 -6.0 15.7
v 51.0 -6.3 16.0
v 51.0 -6.5 17.0
v 51.0 -6.2 18.0
v 51.0 -6.0 18.2
v 50.4 -6.0 19.0
v 50.3 -5.0 15.0
v 51.0 -5.0 15.4
v 50.7 -5.0 18.0
v 51.0 -5.7 18.0
v 51.0 -5.0 17.7
v 50.4 -5.0 19.0
v 51.0 -4.0 15.5
v 50.4 -4.0 18.0
v 51.0 -4.0 17.6
v 50.1 -4.0 19.0
v 51.0 -3.0 16.0
v 51.0 -3.0 16.0
v 51.0 -3.0 17.0
v 51.0 -3.0 17.0
v 51.0 -3.0 16.0
v 51.0 -3.0 17.0
v 51.1 -12.0 20.0
v 51.1 -11.0 19.0
v 51.3 -11.0 20.0
v 51.4 -10.0 19.0
v 51.3 -10.0 20.0
v 51.4 -9.0 18.0
v 51.3 -9.0 19.0
v 51.1 -8.0 19.0
v 51.3 -6.0 16.0
v 51.4 -6.0 17.0
v 51.1 -6.0 18.0
v 52.0 -5.0 15.9
v 52.0 -5.1 16.0
v 52.0 -5.0 16.2
v 51.6 -5.0 17.0
v 52.0 -4.0 15.7
v 52.0 -4.2 17.0
v 52.0 -4.0 17.1
v 52.0 -3.6 16.0
v 51.0 -3.0 16.0
v 51.0 -3.0 17.0
v 52.0 -3.9 17.0
v 52.1 -5.0 16.0
v 53.0 -4.0 16.0
v 52.1 -4.0 17.0
f 3 2 1
f 1 4 3
f 1 2 5
f 5 2 6
f 4 1 7
f 7 1 5
f 5 6 8
f 8 6 9
f 7 5 10
f 5 11 10
f 5 8 11
f 11 12 10
f 9 13 8
f 15 14 13
f 14 8 13
f 14 11 8
f 12 11 16
f 16 11 14
f 15 17 14
f 14 17 16
f 20 19 18
f 22 21 18
f 18 21 20
f 24 23 22
f 22 23 21
f 24 25 23
f 28 27 26
f 28 26 19
f 26 18 19
f 26 29 18
f 18 30 22
f 18 29 30
f 22 31 24
f 22 30 31
f 25 24 32
f 24 33 32
f 24 31 33
f 35 34 33
f 33 34 32
f 37 36 35
f 35 36 34
f 37 38 36
f 26 27 39
f 39 27 40
f 39 2 3
f 29 39 3
f 26 39 29
f 29 3 4
f 41 29 4
f 30 29 41
f 30 42 31
f 30 41 42
f 31 43 33
f 31 42 43
f 33 44 35
f 33 43 44
f 35 45 37
f 35 44 45
f 38 37 46
f 46 37 45
f 40 47 39
f 2 39 47
f 48 2 47
f 6 2 48
f 7 49 41
f 7 41 4
f 41 50 42
f 41 49 50
f 42 51 43
f 42 50 51
f 53 44 52
f 44 51 52
f 44 43 51
f 44 53 45
f 45 53 54
f 45 54 46
f 48 9 6
f 55 9 48
f 10 49 7
f 49 10 12
f 56 49 12
f 50 49 56
f 50 57 51
f 50 56 57
f 52 51 58
f 58 51 57
f 55 59 9
f 9 59 13
f 15 13 59
f 15 59 60
f 16 61 56
f 16 56 12
f 63 57 62
f 57 61 62
f 57 56 61
f 57 63 58
f 60 64 15
f 15 64 17
f 16 17 61
f 17 65 61
f 17 64 65
f 61 65 62
f 66 19 20
f 21 67 20
f 20 67 66
f 23 68 21
f 21 68 67
f 68 23 25
f 71 70 69
f 69 72 71
f 74 73 28
f 28 73 27
f 28 19 66
f 75 28 66
f 74 28 75
f 75 66 67
f 75 67 76
f 76 67 68
f 76 68 77
f 77 69 70
f 77 32 69
f 77 68 25
f 32 77 25
f 78 72 69
f 32 78 69
f 34 78 32
f 79 34 36
f 79 78 34
f 81 80 38
f 80 36 38
f 80 79 36
f 81 82 80
f 85 84 83
f 73 85 83
f 40 73 83
f 27 73 40
f 46 86 81
f 46 81 38
f 82 81 87
f 87 81 86
f 84 88 83
f 83 88 40
f 88 47 40
f 88 89 47
f 48 47 89
f 48 89 90
f 52 91 53
f 92 54 53
f 92 53 91
f 86 46 54
f 92 86 54
f 93 86 92
f 87 86 94
f 94 86 93
f 96 55 95
f 55 90 95
f 55 48 90
f 97 96 95
f 58 98 91
f 58 91 52
f 100 92 99
f 92 98 99
f 92 91 98
f 92 100 93
f 93 100 101
f 93 101 94
f 96 59 55
f 60 59 96
f 97 60 96
f 102 60 97
f 62 103 63
f 103 104 63
f 63 104 58
f 104 105 58
f 105 98 58
f 98 105 99
f 102 106 60
f 60 106 64
f 64 107 65
f 106 107 64
f 62 65 103
f 65 108 103
f 65 107 108
f 103 108 104
f 111 110 109
f 109 112 111
f 114 113 71
f 71 113 70
f 116 115 72
f 115 71 72
f 115 114 71
f 118 117 116
f 116 117 115
f 117 118 110
f 118 109 110
f 118 119 109
f 112 109 120
f 109 121 120
f 109 119 121
f 121 122 120
f 123 73 74
f 123 74 124
f 74 125 124
f 74 75 125
f 126 75 76
f 126 125 75
f 127 76 77
f 127 126 76
f 77 70 113
f 77 113 127
f 78 116 72
f 116 78 79
f 116 79 118
f 118 79 80
f 118 80 119
f 119 80 82
f 128 119 82
f 121 119 128
f 122 121 129
f 129 121 128
f 130 84 85
f 131 130 85
f 131 85 73
f 132 131 73
f 123 132 73
f 132 123 124
f 87 133 128
f 87 128 82
f 129 128 134
f 134 128 133
f 130 88 84
f 131 135 130
f 135 88 130
f 135 89 88
f 90 89 135
f 90 135 136
f 94 137 133
f 94 133 87
f 134 133 138
f 138 133 137
f 136 139 90
f 90 139 95
f 97 95 139
f 97 139 140
f 99 141 100
f 142 101 100
f 142 100 141
f 142 143 101
f 101 143 94
f 143 144 94
f 144 137 94
f 137 144 138
f 146 102 145
f 102 140 145
f 102 97 140
f 147 146 145
f 104 148 105
f 148 149 105
f 105 149 99
f 149 150 99
f 150 141 99
f 141 150 142
f 142 150 151
f 142 151 143
f 146 106 102
f 147 152 146
f 152 106 146
f 152 107 106
f 107 153 108
f 152 153 107
f 108 153 104
f 153 154 104
f 154 148 104
f 154 153 155
f 149 148 156
f 156 148 154
f 155 157 154
f 154 157 156
f 160 159 158
f 162 161 158
f 158 161 160
f 164 163 162
f 162 163 161
f 164 165 163
f 158 159 166
f 166 159 167
f 166 110 111
f 162 166 111
f 158 166 162
f 162 111 112
f 168 162 112
f 164 162 168
f 165 164 169
f 169 164 168
f 170 113 114
f 115 171 114
f 114 171 170
f 167 172 166
f 172 115 166
f 115 117 166
f 115 172 171
f 166 117 110
f 120 168 112
f 174 173 122
f 122 173 120
f 173 169 120
f 169 168 120
f 174 175 173
f 176 124 125
f 176 125 177
f 125 178 177
f 125 126 178
f 179 126 127
f 179 178 126
f 127 113 170
f 180 127 170
f 179 127 180
f 180 170 171
f 180 171 181
f 181 171 172
f 129 182 174
f 129 174 122
f 175 174 183
f 183 174 182
f 184 131 132
f 185 184 132
f 185 132 124
f 186 185 124
f 176 186 124
f 186 176 177
f 134 187 182
f 134 182 129
f 183 182 188
f 188 182 187
f 135 131 184
f 191 190 189
f 136 189 190
f 136 185 189
f 136 135 184
f 185 136 184
f 193 192 187
f 134 193 187
f 138 193 134
f 187 192 188
f 191 194 190
f 190 194 136
f 194 139 136
f 194 195 139
f 140 139 195
f 140 195 196
f 198 197 144
f 198 144 143
f 138 144 193
f 193 144 197
f 196 199 140
f 140 199 145
f 201 200 147
f 145 201 147
f 199 201 145
f 202 200 201
f 149 203 150
f 204 151 150
f 204 150 203
f 204 205 151
f 205 143 151
f 205 198 143
f 200 152 147
f 202 206 200
f 206 152 200
f 206 153 152
f 155 153 206
f 155 206 207
f 156 208 203
f 156 203 149
f 210 204 209
f 204 208 209
f 204 203 208
f 204 210 205
f 207 211 155
f 155 211 157
f 156 157 208
f 157 212 208
f 157 211 212
f 208 212 209
f 215 214 213
f 217 216 213
f 213 216 215
f 217 218 216
f 220 219 160
f 160 219 159
f 221 160 161
f 221 220 160
f 163 213 214
f 221 163 214
f 161 163 221
f 213 163 165
f 222 213 165
f 217 213 222
f 218 217 223
f 223 217 222
f 219 167 159
f 224 167 219
f 169 225 222
f 169 222 165
f 223 222 226
f 226 222 225
f 229 228 227
f 224 229 227
f 172 224 227
f 167 224 172
f 173 225 169
f 173 175 225
f 175 226 225
f 175 230 226
f 231 177 178
f 179 232 178
f 178 232 231
f 232 179 233
f 179 234 233
f 179 180 234
f 181 227 228
f 234 181 228
f 180 181 234
f 227 181 172
f 183 230 175
f 183 235 230
f 236 185 186
f 237 236 186
f 237 186 177
f 238 237 177
f 231 238 177
f 238 231 232
f 238 232 239
f 239 232 233
f 188 235 183
f 188 240 235
f 242 241 189
f 189 241 191
f 189 185 236
f 243 189 236
f 242 189 243
f 243 236 237
f 245 244 192
f 245 192 193
f 188 192 240
f 240 192 244
f 241 246 191
f 191 246 194
f 194 247 195
f 246 247 194
f 196 195 247
f 196 247 248
f 198 249 197
f 249 250 197
f 250 193 197
f 250 245 193
f 248 251 196
f 196 251 199
f 251 253 252
f 201 251 252
f 199 251 201
f 252 202 201
f 255 254 249
f 198 255 249
f 205 255 198
f 249 254 250
f 252 253 256
f 256 253 257
f 258 206 202
f 252 258 202
f 256 258 252
f 258 207 206
f 209 259 210
f 259 260 210
f 260 205 210
f 260 255 205
f 257 261 256
f 256 261 258
f 258 261 262
f 262 264 263
f 262 263 211
f 258 262 211
f 207 258 211
f 265 212 211
f 265 211 263
f 265 266 212
f 212 266 209
f 266 267 209
f 267 259 209
f 259 267 260
f 263 264 268
f 268 264 269
f 271 265 270
f 265 268 270
f 265 263 268
f 265 271 266
f 269 272 268
f 268 272 270
f 274 273 215
f 215 273 214
f 275 215 216
f 275 274 215
f 216 218 275
f 275 218 276
f 279 278 277
f 219 220 277
f 220 279 277
f 220 280 279
f 281 220 221
f 281 280 220
f 221 214 273
f 221 273 281
f 223 276 218
f 223 282 276
f 277 278 283
f 283 278 284
f 283 224 219
f 283 219 277
f 226 282 223
f 226 285 282
f 283 284 229
f 284 228 229
f 284 286 228
f 283 229 224
f 230 285 226
f 230 287 285
f 289 288 234
f 234 288 233
f 234 228 286
f 234 286 289
f 235 287 230
f 235 290 287
f 291 237 238
f 291 238 292
f 238 293 292
f 238 239 293
f 239 233 288
f 239 288 293
f 240 290 235
f 240 294 290
f 296 295 242
f 242 295 241
f 297 242 243
f 297 296 242
f 243 237 291
f 298 243 291
f 297 243 298
f 298 291 292
f 300 299 244
f 300 244 245
f 240 244 294
f 294 244 299
f 295 301 241
f 241 301 246
f 301 303 302
f 247 301 302
f 246 301 247
f 302 248 247
f 250 300 245
f 250 304 300
f 303 305 302
f 305 307 306
f 305 306 251
f 302 305 251
f 248 302 251
f 306 253 251
f 255 308 254
f 308 309 254
f 309 250 254
f 309 304 250
f 306 307 310
f 310 307 311
f 310 257 253
f 310 253 306
f 313 312 308
f 255 313 308
f 260 313 255
f 308 312 309
f 311 314 310
f 310 314 257
f 314 261 257
f 314 315 261
f 261 316 262
f 315 316 261
f 264 262 316
f 264 316 317
f 266 318 267
f 318 319 267
f 319 260 267
f 319 313 260
f 321 269 320
f 269 317 320
f 269 264 317
f 320 270 321
f 320 271 270
f 320 323 322
f 271 320 322
f 322 324 271
f 271 324 266
f 324 325 266
f 325 318 266
f 318 325 319
f 321 272 269
f 323 326 322
f 272 321 270
f 322 326 324
f 328 327 274
f 274 327 273
f 329 274 275
f 329 328 274
f 331 330 276
f 330 275 276
f 330 329 275
f 331 332 330
f 334 333 279
f 279 333 278
f 335 279 280
f 335 334 279
f 336 280 281
f 336 335 280
f 281 273 327
f 281 327 336
f 282 337 331
f 282 331 276
f 332 331 338
f 338 331 337
f 333 284 278
f 339 284 333
f 285 340 337
f 285 337 282
f 338 337 341
f 341 337 340
f 344 343 342
f 339 344 342
f 286 339 342
f 284 339 286
f 346 345 340
f 285 346 340
f 287 346 285
f 340 345 341
f 347 288 289
f 343 348 342
f 349 342 348
f 349 286 342
f 349 347 289
f 286 349 289
f 290 346 287
f 290 350 346
f 351 292 293
f 288 347 293
f 347 351 293
f 347 352 351
f 347 349 353
f 347 353 352
f 294 350 290
f 294 354 350
f 355 295 296
f 355 296 356
f 296 357 356
f 296 297 357
f 359 357 358
f 357 298 358
f 357 297 298
f 360 358 298
f 360 298 292
f 361 360 292
f 351 361 292
f 361 351 352
f 361 352 362
f 362 352 353
f 364 363 299
f 364 299 300
f 294 299 354
f 354 299 363
f 367 366 365
f 355 301 295
f 365 368 367
f 368 365 369
f 303 368 369
f 303 356 368
f 303 301 355
f 356 303 355
f 370 359 358
f 370 358 360
f 304 364 300
f 304 371 364
f 365 366 372
f 372 366 373
f 365 374 369
f 365 372 374
f 375 305 303
f 369 375 303
f 374 375 369
f 375 307 305
f 309 371 304
f 309 376 371
f 373 377 372
f 372 377 374
f 374 377 378
f 380 379 378
f 379 374 378
f 379 375 374
f 379 311 307
f 379 307 375
f 382 381 312
f 382 312 313
f 309 312 376
f 376 312 381
f 380 383 379
f 379 383 311
f 383 314 311
f 383 384 314
f 314 385 315
f 384 385 314
f 315 386 316
f 385 386 315
f 317 316 386
f 317 386 387
f 319 382 313
f 319 388 382
f 387 389 317
f 317 389 320
f 323 320 389
f 323 389 390
f 392 391 325
f 392 325 324
f 319 325 388
f 388 325 391
f 326 323 393
f 323 394 393
f 323 390 394
f 393 395 326
f 395 324 326
f 395 392 324
f 393 394 396
f 396 394 397
f 395 393 398
f 398 393 396
f 397 399 396
f 396 399 398
f 402 401 400
f 327 328 400
f 328 402 400
f 328 403 402
f 404 328 329
f 404 403 328
f 405 329 330
f 405 404 329
f 330 332 405
f 405 332 406
f 407 333 334
f 407 334 408
f 334 409 408
f 334 335 409
f 336 400 401
f 409 336 401
f 335 336 409
f 400 336 327
f 338 406 332
f 338 410 406
f 411 339 407
f 407 339 333
f 407 408 412
f 407 412 411
f 341 410 338
f 341 413 410
f 415 414 344
f 344 414 343
f 344 339 411
f 416 344 411
f 415 344 416
f 416 411 412
f 346 417 345
f 417 418 345
f 418 341 345
f 418 413 341
f 414 419 343
f 343 419 348
f 349 348 419
f 349 419 420
f 422 421 417
f 346 422 417
f 350 422 346
f 417 421 418
f 420 353 349
f 423 353 420
f 354 422 350
f 354 424 422
f 425 356 357
f 359 425 357
f 427 426 361
f 361 426 360
f 428 361 362
f 428 427 361
f 362 353 423
f 362 423 428
f 430 429 363
f 430 363 364
f 354 363 424
f 424 363 429
f 432 431 367
f 367 431 366
f 433 367 368
f 433 432 367
f 368 356 425
f 434 368 425
f 433 368 434
f 434 425 359
f 370 434 359
f 435 434 370
f 370 360 426
f 370 426 435
f 371 430 364
f 371 436 430
f 431 373 366
f 437 373 431
f 376 436 371
f 376 438 436
f 437 439 373
f 373 439 377
f 377 440 378
f 439 440 377
f 380 378 440
f 380 440 441
f 444 443 442
f 446 445 442
f 446 442 443
f 447 445 446
f 382 448 381
f 448 449 381
f 449 376 381
f 449 438 376
f 383 380 450
f 380 451 450
f 380 441 451
f 452 384 383
f 452 383 450
f 384 452 453
f 454 384 453
f 385 384 454
f 442 386 444
f 386 454 444
f 386 385 454
f 386 442 387
f 442 455 387
f 442 445 455
f 445 447 456
f 445 456 455
f 458 457 448
f 382 458 448
f 388 458 382
f 448 457 449
f 451 459 450
f 450 459 452
f 452 459 460
f 452 460 453
f 455 389 387
f 462 461 390
f 462 390 389
f 456 462 389
f 455 456 389
f 391 392 461
f 462 391 461
f 463 391 462
f 388 391 458
f 458 391 463
f 465 464 461
f 464 390 461
f 464 394 390
f 461 392 465
f 392 466 465
f 392 395 466
f 464 397 394
f 467 397 464
f 398 466 395
f 398 468 466
f 399 397 469
f 397 470 469
f 397 467 470
f 469 471 399
f 471 398 399
f 471 468 398
f 470 472 469
f 469 472 471
f 475 474 473
f 401 402 473
f 402 475 473
f 402 476 475
f 477 402 403
f 477 476 402
f 478 403 404
f 478 477 403
f 479 404 405
f 479 478 404
f 405 406 479
f 479 406 480
f 473 474 409
f 474 408 409
f 474 481 408
f 473 409 401
f 410 480 406
f 410 482 480
f 485 484 483
f 483 486 485
f 481 412 408
f 487 412 481
f 413 482 410
f 413 488 482
f 483 484 415
f 484 414 415
f 484 489 414
f 490 486 483
f 415 490 483
f 416 490 415
f 416 412 487
f 416 487 490
f 418 488 413
f 418 491 488
f 489 492 414
f 414 492 419
f 420 419 492
f 420 492 493
f 422 494 421
f 494 495 421
f 495 418 421
f 495 491 418
f 498 497 496
f 500 499 496
f 496 499 498
f 493 499 500
f 423 493 500
f 420 493 423
f 502 501 494
f 422 502 494
f 424 502 422
f 494 501 495
f 505 504 503
f 505 503 497
f 497 503 496
f 503 426 496
f 426 427 496
f 496 427 428
f 496 428 500
f 500 428 423
f 507 506 429
f 507 429 430
f 424 429 502
f 502 429 506
f 509 508 432
f 432 508 431
f 510 432 433
f 510 509 432
f 511 433 434
f 511 510 433
f 435 503 504
f 511 435 504
f 434 435 511
f 503 435 426
f 436 507 430
f 436 512 507
f 508 437 431
f 513 437 508
f 516 515 514
f 515 512 514
f 512 438 514
f 512 436 438
f 439 437 517
f 437 518 517
f 437 513 518
f 519 440 439
f 519 439 517
f 519 441 440
f 521 520 443
f 521 443 444
f 443 522 446
f 520 522 443
f 447 446 522
f 447 522 523
f 516 514 524
f 516 524 525
f 449 524 438
f 438 524 514
f 518 526 517
f 517 526 519
f 519 526 527
f 441 519 527
f 528 441 527
f 451 441 528
f 531 530 529
f 454 453 529
f 530 454 529
f 532 454 530
f 444 454 521
f 521 454 532
f 523 456 447
f 533 456 523
f 525 524 457
f 458 525 457
f 534 525 458
f 457 524 449
f 528 535 451
f 451 535 459
f 529 460 531
f 460 535 531
f 460 459 535
f 460 529 453
f 462 456 536
f 456 537 536
f 456 533 537
f 462 536 538
f 539 462 538
f 463 462 539
f 458 463 534
f 534 463 539
f 536 537 465
f 537 464 465
f 537 540 464
f 465 466 536
f 466 538 536
f 466 541 538
f 540 467 464
f 542 467 540
f 468 541 466
f 468 543 541
f 542 470 467
f 544 470 542
f 471 543 468
f 471 545 543
f 544 546 470
f 470 546 472
f 471 472 545
f 545 472 546
f 549 548 547
f 547 550 549
f 553 552 551
f 555 554 551
f 551 554 553
f 555 556 554
f 547 548 557
f 557 548 558
f 475 559 474
f 559 547 474
f 547 557 474
f 547 559 550
f 560 475 476
f 560 559 475
f 477 551 552
f 560 477 552
f 476 477 560
f 551 477 478
f 551 478 555
f 478 479 555
f 479 561 555
f 561 556 555
f 479 562 561
f 480 562 479
f 565 564 563
f 565 563 558
f 563 557 558
f 563 566 557
f 566 481 474
f 566 474 557
f 561 562 567
f 561 567 568
f 482 567 480
f 480 567 562
f 563 564 485
f 564 484 485
f 564 569 484
f 563 485 486
f 570 563 486
f 566 563 570
f 570 487 481
f 570 481 566
f 568 567 571
f 568 571 572
f 488 571 482
f 482 571 567
f 569 489 484
f 573 489 569
f 490 570 486
f 570 490 487
f 574 572 571
f 571 488 574
f 488 575 574
f 488 491 575
f 492 489 576
f 489 577 576
f 489 573 577
f 576 493 492
f 495 575 491
f 495 578 575
f 579 497 498
f 577 580 576
f 580 498 576
f 498 499 576
f 498 580 579
f 576 499 493
f 582 581 501
f 582 501 502
f 495 501 578
f 578 501 581
f 584 583 505
f 505 583 504
f 505 497 579
f 585 505 579
f 584 505 585
f 585 579 580
f 587 586 506
f 587 506 507
f 502 506 582
f 582 506 586
f 588 508 509
f 510 589 509
f 509 589 588
f 589 510 590
f 510 591 590
f 510 511 591
f 511 504 583
f 511 583 591
f 512 587 507
f 512 592 587
f 595 594 593
f 596 595 588
f 595 513 588
f 513 508 588
f 595 593 513
f 596 588 589
f 596 589 597
f 597 589 590
f 599 598 515
f 599 515 516
f 512 515 592
f 592 515 598
f 594 600 593
f 513 593 600
f 601 513 600
f 518 513 601
f 521 602 520
f 603 522 520
f 603 520 602
f 603 523 522
f 525 599 516
f 525 604 599
f 601 605 518
f 518 605 526
f 605 607 606
f 527 605 606
f 526 605 527
f 606 528 527
f 609 608 530
f 609 530 531
f 530 610 532
f 608 610 530
f 521 532 602
f 532 611 602
f 532 610 611
f 602 611 603
f 603 611 612
f 523 603 612
f 613 523 612
f 533 523 613
f 534 604 525
f 534 614 604
f 607 615 606
f 606 615 528
f 615 535 528
f 615 616 535
f 531 535 609
f 609 535 616
f 613 537 533
f 617 537 613
f 619 618 539
f 619 539 538
f 534 539 614
f 614 539 618
f 621 540 620
f 540 617 620
f 540 537 617
f 620 619 621
f 619 541 621
f 619 538 541
f 624 623 622
f 625 624 621
f 624 542 621
f 542 540 621
f 624 622 542
f 621 541 625
f 541 626 625
f 541 543 626
f 623 627 622
f 544 542 622
f 628 544 622
f 627 628 622
f 544 628 629
f 628 626 629
f 626 545 629
f 626 543 545
f 629 546 544
f 546 629 545
f 632 631 630
f 634 633 630
f 630 633 632
f 634 635 633
f 638 637 636
f 548 549 636
f 549 638 636
f 549 639 638
f 641 640 550
f 640 549 550
f 640 639 549
f 640 641 631
f 641 630 631
f 641 642 630
f 642 552 553
f 634 642 553
f 630 642 634
f 643 635 634
f 553 643 634
f 554 643 553
f 554 556 643
f 643 556 644
f 647 646 645
f 647 645 637
f 645 636 637
f 645 648 636
f 648 558 548
f 648 548 636
f 559 641 550
f 641 559 560
f 641 560 642
f 642 560 552
f 561 644 556
f 561 649 644
f 645 646 650
f 650 646 651
f 650 564 565
f 648 650 565
f 645 650 648
f 648 565 558
f 568 649 561
f 568 652 649
f 650 651 653
f 653 651 654
f 653 569 564
f 653 564 650
f 572 652 568
f 572 655 652
f 653 654 656
f 656 654 657
f 656 573 569
f 656 569 653
f 658 655 572
f 658 572 574
f 574 575 658
f 658 575 659
f 657 660 656
f 573 656 660
f 661 573 660
f 577 573 661
f 578 659 575
f 578 662 659
f 661 580 577
f 663 580 661
f 665 664 581
f 665 581 582
f 578 581 662
f 662 581 664
f 667 666 584
f 584 666 583
f 668 584 585
f 668 667 584
f 585 580 663
f 585 663 668
f 670 669 586
f 670 586 587
f 582 586 665
f 665 586 669
f 671 590 591
f 672 671 591
f 583 672 591
f 666 672 583
f 592 670 587
f 592 673 670
f 674 594 595
f 596 675 595
f 595 675 674
f 597 676 596
f 596 676 675
f 677 676 597
f 677 597 590
f 678 677 590
f 671 678 590
f 678 671 672
f 680 679 598
f 680 598 599
f 592 598 673
f 673 598 679
f 600 594 674
f 683 682 681
f 681 682 684
f 601 684 682
f 684 601 675
f 600 675 601
f 675 600 674
f 686 685 684
f 675 686 684
f 676 686 675
f 676 677 687
f 688 676 687
f 686 676 688
f 689 688 687
f 604 680 599
f 604 690 680
f 683 691 682
f 691 693 692
f 691 692 605
f 682 691 605
f 601 682 605
f 686 694 685
f 607 605 692
f 696 695 694
f 686 696 694
f 688 696 686
f 697 608 609
f 688 697 609
f 696 688 609
f 697 688 689
f 608 698 610
f 697 698 608
f 610 699 611
f 698 699 610
f 699 701 700
f 612 699 700
f 611 699 612
f 700 613 612
f 704 703 702
f 703 690 702
f 690 614 702
f 690 604 614
f 693 705 692
f 692 705 607
f 705 615 607
f 705 706 615
f 696 616 695
f 616 706 695
f 616 615 706
f 616 696 609
f 701 707 700
f 613 700 707
f 708 613 707
f 617 613 708
f 704 702 618
f 619 704 618
f 709 704 619
f 618 702 614
f 708 710 617
f 617 710 620
f 619 620 709
f 709 620 710
f 711 623 624
f 625 712 624
f 624 712 711
f 626 712 625
f 711 627 623
f 627 711 628
f 628 711 712
f 628 712 626
f 714 713 632
f 632 713 631
f 715 632 633
f 715 714 632
f 717 716 635
f 716 633 635
f 716 715 633
f 717 718 716
f 719 637 638
f 719 638 720
f 638 721 720
f 638 639 721
f 722 639 640
f 722 721 639
f 640 631 713
f 640 713 722
f 643 717 635
f 643 644 717
f 644 718 717
f 644 723 718
f 725 724 647
f 647 724 646
f 647 637 719
f 726 647 719
f 725 647 726
f 726 719 720
f 649 723 644
f 649 727 723
f 730 729 728
f 724 730 728
f 651 724 728
f 646 724 651
f 652 727 649
f 652 731 727
f 728 729 732
f 732 729 733
f 732 654 651
f 732 651 728
f 655 731 652
f 655 734 731
f 732 733 735
f 735 733 736
f 735 657 654
f 735 654 732
f 655 658 737
f 738 655 737
f 734 655 738
f 659 737 658
f 736 739 735
f 735 739 657
f 739 660 657
f 739 740 660
f 661 660 740
f 661 740 741
f 738 737 742
f 738 742 743
f 662 742 659
f 659 742 737
f 741 663 661
f 744 663 741
f 743 742 664
f 665 743 664
f 745 743 665
f 664 742 662
f 747 746 667
f 667 746 666
f 748 667 668
f 748 747 667
f 668 663 744
f 668 744 748
f 750 749 669
f 750 669 670
f 665 669 745
f 745 669 749
f 746 672 666
f 751 672 746
f 673 750 670
f 673 752 750
f 754 753 678
f 678 753 677
f 678 672 751
f 678 751 754
f 756 755 679
f 756 679 680
f 673 679 752
f 752 679 755
f 757 683 681
f 684 758 681
f 681 758 757
f 685 758 684
f 753 759 677
f 677 759 687
f 689 687 759
f 689 759 760
f 690 756 680
f 690 761 756
f 757 691 683
f 691 757 693
f 757 762 693
f 757 758 762
f 694 763 685
f 763 758 685
f 763 762 758
f 695 763 694
f 760 764 689
f 689 764 697
f 697 765 698
f 764 765 697
f 698 766 699
f 765 766 698
f 701 699 766
f 701 766 767
f 769 768 703
f 769 703 704
f 690 703 761
f 761 703 768
f 762 705 693
f 705 762 706
f 706 762 763
f 706 763 695
f 767 770 701
f 701 770 707
f 772 771 708
f 707 772 708
f 770 772 707
f 772 769 771
f 769 709 771
f 769 704 709
f 771 710 708
f 710 771 709
f 773 713 714
f 715 774 714
f 714 774 773
f 716 775 715
f 715 775 774
f 718 775 716
f 776 720 721
f 722 777 721
f 721 777 776
f 713 773 722
f 773 777 722
f 773 778 777
f 774 780 779
f 778 774 779
f 773 774 778
f 780 774 775
f 780 775 781
f 775 718 781
f 718 782 781
f 718 723 782
f 783 724 725
f 783 725 784
f 725 785 784
f 725 726 785
f 726 720 776
f 786 726 776
f 785 726 786
f 786 776 777
f 786 777 787
f 787 777 778
f 787 778 788
f 788 778 779
f 727 782 723
f 727 789 782
f 791 790 730
f 730 790 729
f 730 724 783
f 792 730 783
f 791 730 792
f 792 783 784
f 731 789 727
f 731 793 789
f 790 733 729
f 794 733 790
f 734 793 731
f 734 795 793
f 794 736 733
f 796 736 794
f 738 795 734
f 738 797 795
f 796 798 736
f 736 798 739
f 739 799 740
f 798 799 739
f 741 740 799
f 741 799 800
f 743 797 738
f 743 801 797
f 804 803 802
f 800 804 802
f 744 800 802
f 741 800 744
f 745 801 743
f 745 805 801
f 807 806 747
f 747 806 746
f 748 802 803
f 807 748 803
f 747 748 807
f 802 748 744
f 809 808 749
f 809 749 750
f 745 749 805
f 805 749 808
f 806 751 746
f 810 751 806
f 752 809 750
f 752 811 809
f 813 812 754
f 754 812 753
f 754 751 810
f 754 810 813
f 815 814 755
f 815 755 756
f 752 755 811
f 811 755 814
f 812 816 753
f 753 816 759
f 760 759 816
f 760 816 817
f 761 815 756
f 761 818 815
f 817 819 760
f 760 819 764
f 764 820 765
f 819 820 764
f 820 822 821
f 766 820 821
f 765 820 766
f 821 767 766
f 824 823 768
f 824 768 769
f 761 768 818
f 818 768 823
f 822 825 821
f 821 825 767
f 825 770 767
f 825 826 770
f 770 827 772
f 826 827 770
f 769 772 824
f 824 772 827
f 828 779 780
f 781 829 780
f 780 829 828
f 782 829 781
f 830 784 785
f 786 831 785
f 785 831 830
f 831 786 832
f 786 833 832
f 786 787 833
f 834 787 788
f 834 833 787
f 788 779 828
f 835 788 828
f 834 788 835
f 837 836 835
f 828 837 835
f 829 837 828
f 789 837 782
f 782 837 829
f 838 790 791
f 838 791 839
f 791 840 839
f 791 792 840
f 792 784 830
f 841 792 830
f 840 792 841
f 841 830 831
f 841 831 842
f 842 831 832
f 843 836 837
f 837 789 843
f 789 844 843
f 789 793 844
f 845 794 838
f 838 794 790
f 838 839 846
f 838 846 845
f 795 844 793
f 795 847 844
f 849 848 845
f 848 794 845
f 848 796 794
f 849 845 846
f 797 847 795
f 797 850 847
f 848 851 796
f 796 851 798
f 798 852 799
f 851 852 798
f 800 799 852
f 800 852 853
f 801 850 797
f 801 854 850
f 856 855 804
f 804 855 803
f 804 800 853
f 804 853 856
f 859 858 857
f 858 854 857
f 854 805 857
f 854 801 805
f 861 860 807
f 807 860 806
f 807 803 855
f 807 855 861
f 859 857 808
f 809 859 808
f 862 859 809
f 808 857 805
f 865 864 863
f 860 865 863
f 810 860 863
f 806 860 810
f 811 862 809
f 811 866 862
f 863 864 813
f 864 812 813
f 864 867 812
f 863 813 810
f 869 868 814
f 869 814 815
f 811 814 866
f 866 814 868
f 867 870 812
f 812 870 816
f 817 816 870
f 817 870 871
f 874 873 872
f 873 869 872
f 869 818 872
f 869 815 818
f 871 875 817
f 817 875 819
f 875 877 876
f 820 875 876
f 819 875 820
f 876 822 820
f 874 872 823
f 824 874 823
f 878 874 824
f 823 872 818
f 877 879 876
f 879 881 880
f 879 880 825
f 876 879 825
f 822 876 825
f 882 826 825
f 882 825 880
f 826 882 883
f 884 826 883
f 827 826 884
f 824 827 878
f 878 827 884
f 881 885 880
f 880 885 882
f 882 885 886
f 882 886 883
f 887 832 833
f 887 833 888
f 833 889 888
f 833 834 889
f 890 834 835
f 890 889 834
f 835 836 890
f 890 836 891
f 892 839 840
f 892 840 893
f 840 894 893
f 840 841 894
f 895 841 842
f 895 894 841
f 842 832 887
f 896 842 887
f 895 842 896
f 896 887 888
f 836 843 897
f 898 836 897
f 891 836 898
f 844 897 843
f 900 899 892
f 899 839 892
f 899 846 839
f 900 892 893
f 901 898 897
f 897 844 901
f 844 902 901
f 844 847 902
f 904 903 849
f 849 903 848
f 849 846 899
f 849 899 904
f 850 902 847
f 850 905 902
f 851 848 906
f 848 907 906
f 848 903 907
f 908 852 851
f 908 851 906
f 908 853 852
f 854 905 850
f 854 909 905
f 907 910 906
f 912 911 910
f 855 910 911
f 910 855 906
f 856 906 855
f 906 856 908
f 856 853 908
f 911 912 913
f 915 914 858
f 915 858 859
f 854 858 909
f 909 858 914
f 917 916 861
f 861 916 860
f 861 855 911
f 918 861 911
f 917 861 918
f 918 911 913
f 921 920 919
f 920 915 919
f 915 862 919
f 915 859 862
f 922 864 865
f 923 922 865
f 860 923 865
f 916 923 860
f 921 919 924
f 921 924 925
f 866 924 862
f 862 924 919
f 926 867 922
f 922 867 864
f 922 923 927
f 922 927 926
f 930 929 928
f 928 929 925
f 928 925 924
f 869 928 924
f 868 869 924
f 868 924 866
f 926 870 867
f 871 870 926
f 927 871 926
f 931 871 927
f 930 928 873
f 874 930 873
f 932 930 874
f 873 928 869
f 875 871 933
f 871 934 933
f 871 931 934
f 933 877 875
f 878 932 874
f 878 935 932
f 934 936 933
f 933 936 877
f 936 879 877
f 936 937 879
f 881 879 937
f 881 937 938
f 940 939 884
f 940 884 883
f 878 884 935
f 935 884 939
f 938 941 881
f 881 941 885
f 885 942 886
f 941 942 885
f 883 886 940
f 940 886 942
f 944 943 889
f 889 943 888
f 945 889 890
f 945 944 889
f 890 891 945
f 945 891 946
f 947 893 894
f 895 948 894
f 894 948 947
f 948 895 949
f 895 950 949
f 895 896 950
f 896 888 943
f 896 943 950
f 898 946 891
f 898 951 946
f 952 899 900
f 953 952 900
f 953 900 893
f 954 953 893
f 947 954 893
f 954 947 948
f 954 948 955
f 955 948 949
f 898 901 956
f 957 898 956
f 951 898 957
f 902 956 901
f 958 903 904
f 959 958 904
f 959 904 899
f 960 959 899
f 952 960 899
f 960 952 953
f 957 956 961
f 957 961 962
f 905 961 902
f 902 961 956
f 964 963 958
f 963 903 958
f 963 907 903
f 964 958 959
f 962 961 965
f 962 965 966
f 909 965 905
f 905 965 961
f 963 967 907
f 907 967 910
f 910 968 912
f 967 968 910
f 970 969 913
f 912 970 913
f 968 970 912
f 971 969 970
f 966 965 914
f 915 966 914
f 972 966 915
f 914 965 909
f 973 916 917
f 918 974 917
f 917 974 973
f 975 974 918
f 975 918 913
f 976 975 913
f 969 976 913
f 976 969 971
f 978 977 920
f 978 920 921
f 915 920 972
f 972 920 977
f 980 979 973
f 979 916 973
f 979 923 916
f 980 973 974
f 980 974 981
f 981 974 975
f 925 978 921
f 925 982 978
f 979 927 923
f 983 927 979
f 985 984 929
f 985 929 930
f 925 929 982
f 982 929 984
f 983 931 927
f 986 931 983
f 932 985 930
f 932 987 985
f 986 934 931
f 988 934 986
f 935 987 932
f 935 989 987
f 936 934 990
f 934 991 990
f 934 988 991
f 992 937 936
f 992 936 990
f 992 938 937
f 994 993 939
f 994 939 940
f 935 939 989
f 989 939 993
f 991 995 990
f 997 996 995
f 996 990 995
f 996 992 990
f 992 996 938
f 996 998 938
f 998 941 938
f 996 999 998
f 941 1000 942
f 998 1000 941
f 940 942 994
f 994 942 1000
f 997 1001 996
f 996 1001 999
f 1002 943 944
f 945 1003 944
f 944 1003 1002
f 946 1003 945
f 1004 949 950
f 943 1002 950
f 1002 1004 950
f 1002 1005 1004
f 1003 1007 1006
f 1005 1003 1006
f 1002 1003 1005
f 1003 946 1007
f 946 1008 1007
f 946 951 1008
f 1009 953 954
f 955 1010 954
f 954 1010 1009
f 1011 1010 955
f 1011 955 949
f 1012 1011 949
f 1004 1012 949
f 1012 1004 1005
f 1012 1005 1013
f 1013 1005 1006
f 957 1008 951
f 957 1014 1008
f 1015 959 960
f 953 1009 960
f 1009 1015 960
f 1009 1016 1015
f 1010 1018 1017
f 1016 1010 1017
f 1009 1010 1016
f 1018 1010 1011
f 962 1014 957
f 962 1019 1014
f 1020 963 964
f 959 1015 964
f 1015 1020 964
f 1015 1021 1020
f 1016 1023 1022
f 1021 1016 1022
f 1015 1016 1021
f 1023 1016 1017
f 966 1019 962
f 966 1024 1019
f 1020 967 963
f 967 1020 968
f 968 1020 1021
f 1022 1025 1021
f 1025 968 1021
f 1025 970 968
f 971 970 1025
f 971 1025 1026
f 972 1024 966
f 972 1027 1024
f 1029 1028 976
f 976 1028 975
f 976 971 1026
f 976 1026 1029
f 1031 1030 977
f 1031 977 978
f 972 977 1027
f 1027 977 1030
f 1033 1032 980
f 980 1032 979
f 1034 980 981
f 1034 1033 980
f 981 975 1028
f 981 1028 1034
f 1037 1036 1035
f 1036 1031 1035
f 1031 982 1035
f 1031 978 982
f 1040 1039 1038
f 1032 1040 1038
f 983 1032 1038
f 979 1032 983
f 1037 1035 984
f 985 1037 984
f 1041 1037 985
f 984 1035 982
f 1038 1039 1042
f 1042 1039 1043
f 1042 986 983
f 1042 983 1038
f 987 1041 985
f 987 1044 1041
f 1043 1045 1042
f 986 1042 1045
f 1046 986 1045
f 988 986 1046
f 989 1044 987
f 989 1047 1044
f 1046 991 988
f 1048 991 1046
f 1050 1049 993
f 1050 993 994
f 989 993 1047
f 1047 993 1049
f 1048 1051 991
f 991 1051 995
f 997 995 1051
f 997 1051 1052
f 1054 1053 998
f 1054 998 999
f 998 1055 1000
f 1053 1055 998
f 994 1000 1050
f 1050 1000 1055
f 1052 1056 997
f 997 1056 1001
f 999 1001 1054
f 1054 1001 1056
f 1057 1006 1007
f 1008 1057 1007
f 1058 1011 1012
f 1058 1012 1059
f 1012 1060 1059
f 1012 1013 1060
f 1013 1006 1057
f 1061 1013 1057
f 1060 1013 1061
f 1057 1008 1061
f 1008 1062 1061
f 1008 1014 1062
f 1063 1017 1018
f 1064 1063 1018
f 1064 1018 1011
f 1065 1064 1011
f 1058 1065 1011
f 1065 1058 1059
f 1019 1062 1014
f 1019 1066 1062
f 1067 1022 1023
f 1068 1067 1023
f 1068 1023 1017
f 1069 1068 1017
f 1063 1069 1017
f 1069 1063 1064
f 1024 1066 1019
f 1024 1070 1066
f 1067 1025 1022
f 1026 1025 1067
f 1068 1026 1067
f 1071 1026 1068
f 1074 1073 1072
f 1073 1070 1072
f 1070 1027 1072
f 1070 1024 1027
f 1075 1028 1029
f 1076 1075 1029
f 1026 1076 1029
f 1071 1076 1026
f 1079 1078 1077
f 1077 1078 1074
f 1077 1074 1072
f 1031 1077 1072
f 1030 1031 1072
f 1030 1072 1027
f 1081 1080 1033
f 1033 1080 1032
f 1083 1081 1082
f 1081 1034 1082
f 1081 1033 1034
f 1084 1082 1034
f 1084 1034 1028
f 1085 1084 1028
f 1075 1085 1028
f 1085 1075 1076
f 1079 1077 1036
f 1037 1079 1036
f 1086 1079 1037
f 1036 1077 1031
f 1088 1087 1040
f 1040 1087 1039
f 1040 1032 1080
f 1040 1080 1088
f 1089 1083 1082
f 1089 1082 1084
f 1092 1091 1090
f 1091 1086 1090
f 1086 1041 1090
f 1086 1037 1041
f 1087 1043 1039
f 1093 1043 1087
f 1092 1090 1094
f 1092 1094 1095
f 1044 1094 1041
f 1041 1094 1090
f 1045 1043 1096
f 1043 1097 1096
f 1043 1093 1097
f 1096 1046 1045
f 1095 1094 1098
f 1095 1098 1099
f 1047 1098 1044
f 1044 1098 1094
f 1097 1100 1096
f 1046 1096 1100
f 1101 1046 1100
f 1048 1046 1101
f 1099 1098 1049
f 1050 1099 1049
f 1102 1099 1050
f 1049 1098 1047
f 1101 1103 1048
f 1048 1103 1051
f 1105 1104 1052
f 1051 1105 1052
f 1103 1105 1051
f 1053 1054 1104
f 1105 1053 1104
f 1106 1053 1105
f 1053 1107 1055
f 1106 1107 1053
f 1050 1055 1102
f 1102 1055 1107
f 1104 1056 1052
f 1056 1104 1054
f 1109 1108 1060
f 1060 1108 1059
f 1110 1060 1061
f 1110 1109 1060
f 1061 1062 1110
f 1110 1062 1111
f 1113 1112 1065
f 1065 1112 1064
f 1065 1059 1108
f 1065 1108 1113
f 1066 1111 1062
f 1066 1114 1111
f 1115 1068 1069
f 1116 1115 1069
f 1064 1116 1069
f 1112 1116 1064
f 1119 1118 1117
f 1118 1114 1117
f 1114 1070 1117
f 1114 1066 1070
f 1121 1120 1115
f 1120 1068 1115
f 1120 1071 1068
f 1121 1115 1116
f 1119 1117 1073
f 1074 1119 1073
f 1122 1119 1074
f 1073 1117 1070
f 1120 1076 1071
f 1123 1076 1120
f 1125 1124 1078
f 1125 1078 1079
f 1074 1078 1122
f 1122 1078 1124
f 1126 1080 1081
f 1083 1126 1081
f 1128 1127 1085
f 1085 1127 1084
f 1085 1076 1123
f 1085 1123 1128
f 1086 1125 1079
f 1086 1129 1125
f 1130 1087 1088
f 1131 1130 1088
f 1131 1088 1080
f 1132 1131 1080
f 1126 1132 1080
f 1132 1126 1083
f 1089 1132 1083
f 1133 1132 1089
f 1089 1084 1127
f 1089 1127 1133
f 1135 1134 1091
f 1135 1091 1092
f 1086 1091 1129
f 1129 1091 1134
f 1137 1136 1130
f 1136 1087 1130
f 1136 1093 1087
f 1137 1130 1131
f 1095 1135 1092
f 1095 1138 1135
f 1136 1097 1093
f 1139 1097 1136
f 1099 1138 1095
f 1099 1140 1138
f 1139 1141 1097
f 1097 1141 1100
f 1101 1100 1141
f 1101 1141 1142
f 1102 1140 1099
f 1102 1143 1140
f 1142 1144 1101
f 1101 1144 1103
f 1103 1145 1105
f 1144 1145 1103
f 1105 1146 1106
f 1145 1146 1105
f 1106 1147 1107
f 1146 1147 1106
f 1102 1107 1143
f 1143 1107 1147
f 1148 1108 1109
f 1110 1149 1109
f 1109 1149 1148
f 1111 1149 1110
f 1151 1150 1113
f 1113 1150 1112
f 1151 1113 1108
f 1152 1151 1108
f 1148 1152 1108
f 1151 1152 1153
f 1154 1148 1149
f 1152 1148 1154
f 1114 1154 1111
f 1111 1154 1149
f 1157 1156 1155
f 1150 1157 1155
f 1116 1150 1155
f 1112 1150 1116
f 1153 1152 1158
f 1153 1158 1159
f 1119 1158 1118
f 1158 1154 1118
f 1158 1152 1154
f 1118 1154 1114
f 1155 1156 1121
f 1156 1120 1121
f 1156 1160 1120
f 1155 1121 1116
f 1159 1158 1161
f 1159 1161 1162
f 1122 1161 1119
f 1119 1161 1158
f 1165 1164 1163
f 1160 1165 1163
f 1123 1160 1163
f 1120 1160 1123
f 1168 1167 1166
f 1166 1167 1162
f 1166 1162 1161
f 1125 1166 1161
f 1124 1125 1161
f 1124 1161 1122
f 1169 1127 1128
f 1164 1170 1163
f 1171 1163 1170
f 1171 1123 1163
f 1171 1169 1128
f 1123 1171 1128
f 1168 1166 1172
f 1168 1172 1173
f 1129 1172 1125
f 1125 1172 1166
f 1174 1131 1132
f 1133 1175 1132
f 1132 1175 1174
f 1127 1169 1133
f 1169 1175 1133
f 1169 1176 1175
f 1169 1171 1177
f 1178 1169 1177
f 1176 1169 1178
f 1178 1177 1173
f 1178 1173 1172
f 1135 1178 1172
f 1134 1135 1172
f 1134 1172 1129
f 1179 1136 1137
f 1180 1179 1137
f 1180 1137 1131
f 1181 1180 1131
f 1174 1181 1131
f 1181 1174 1175
f 1181 1175 1182
f 1182 1175 1176
f 1182 1176 1183
f 1185 1184 1183
f 1176 1185 1183
f 1178 1185 1176
f 1138 1185 1135
f 1135 1185 1178
f 1186 1139 1179
f 1179 1139 1136
f 1179 1180 1187
f 1179 1187 1186
f 1190 1189 1188
f 1188 1189 1184
f 1185 1188 1184
f 1191 1188 1185
f 1140 1191 1138
f 1138 1191 1185
f 1186 1141 1139
f 1142 1141 1186
f 1187 1142 1186
f 1192 1142 1187
f 1190 1188 1193
f 1190 1193 1194
f 1195 1188 1191
f 1193 1188 1195
f 1143 1195 1140
f 1140 1195 1191
f 1144 1142 1196
f 1142 1197 1196
f 1142 1192 1197
f 1198 1145 1144
f 1198 1144 1196
f 1199 1194 1193
f 1145 1199 1193
f 1146 1145 1193
f 1199 1145 1198
f 1146 1193 1147
f 1147 1193 1195
f 1147 1195 1143
f 1197 1200 1196
f 1196 1200 1198
f 1198 1200 1201
f 1198 1201 1199
f 1202 1150 1151
f 1153 1202 1151
f 1203 1156 1157
f 1150 1202 1157
f 1202 1203 1157
f 1202 1204 1203
f 1159 1204 1153
f 1153 1204 1202
f 1205 1160 1203
f 1203 1160 1156
f 1206 1203 1204
f 1205 1203 1206
f 1162 1206 1159
f 1159 1206 1204
f 1207 1164 1165
f 1160 1205 1165
f 1205 1207 1165
f 1205 1208 1207
f 1168 1208 1167
f 1208 1206 1167
f 1208 1205 1206
f 1167 1206 1162
f 1207 1170 1164
f 1170 1207 1171
f 1207 1209 1171
f 1207 1208 1209
f 1173 1209 1168
f 1168 1209 1208
f 1209 1177 1171
f 1177 1209 1173
f 1210 1180 1181
f 1182 1211 1181
f 1181 1211 1210
f 1183 1212 1182
f 1182 1212 1211
f 1184 1212 1183
f 1214 1213 1210
f 1213 1180 1210
f 1213 1187 1180
f 1216 1215 1214
f 1210 1216 1214
f 1211 1216 1210
f 1190 1216 1189
f 1216 1212 1189
f 1216 1211 1212
f 1189 1212 1184
f 1213 1192 1187
f 1217 1192 1213
f 1218 1215 1216
f 1216 1190 1218
f 1190 1219 1218
f 1190 1194 1219
f 1221 1197 1220
f 1197 1217 1220
f 1197 1192 1217
f 1223 1222 1221
f 1223 1221 1220
f 1223 1219 1222
f 1219 1199 1222
f 1219 1194 1199
f 1221 1200 1197
f 1200 1221 1201
f 1201 1221 1222
f 1201 1222 1199
f 1224 1213 1214
f 1215 1224 1214
f 1225 1217 1224
f 1224 1217 1213
f 1218 1226 1215
f 1226 1224 1215
f 1226 1225 1224
f 1219 1226 1218
f 1225 1220 1217
f 1220 1225 1223
f 1223 1225 1226
f 1223 1226 1219
