v -21.1 -40.0 44.0
v -21.0 -40.0 43.7
v -21.0 -40.2 44.0
v -21.0 -40.0 44.3
v -21.3 -39.0 43.0
v -21.0 -39.0 42.5
v -21.0 -39.5 43.0
v -21.5 -39.0 44.0
v -21.0 -39.5 45.0
v -21.3 -39.0 45.0
v -21.0 -39.0 45.4
v -21.3 -38.0 42.0
v -21.0 -38.0 41.6
v -21.0 -38.5 42.0
v -21.5 -38.0 43.0
v -21.5 -38.0 44.0
v -21.4 -38.0 45.0
v -21.0 -38.0 45.5
v -21.3 -37.0 42.0
v -21.0 -37.0 41.6
v -21.5 -37.0 43.0
v -21.5 -37.0 44.0
v -21.3 -37.0 45.0
v -21.0 -37.0 45.4
v -21.0 -36.5 42.0
v -21.4 -36.0 43.0
v -21.0 -36.0 42.4
v -21.3 -36.0 44.0
v -21.0 -36.0 44.5
v -21.0 -36.5 45.0
v -21.1 -35.0 43.0
v -21.0 -35.0 42.8
v -21.0 -35.0 43.2
v -21.0 -35.5 44.0
v -21.0 -34.8 43.0
v -20.2 -44.0 47.0
v -20.0 -44.0 46.6
v -20.0 -44.3 47.0
v -20.0 -44.4 48.0
v -20.4 -44.0 48.0
v -20.0 -44.2 49.0
v -20.2 -44.0 49.0
v -20.0 -44.0 49.3
v -20.3 -43.0 46.0
v -20.0 -43.0 45.7
v -20.0 -43.4 46.0
v -20.5 -43.0 47.0
v -20.5 -43.0 48.0
v -20.4 -43.0 49.0
v -20.0 -43.0 49.6
v -20.1 -42.0 45.0
v -20.0 -42.0 44.9
v -20.0 -42.1 45.0
v -20.5 -42.0 46.0
v -20.5 -42.0 47.0
v -20.5 -42.0 48.0
v -20.5 -42.0 49.0
v -20.0 -42.5 50.0
v -20.2 -42.0 50.0
v -20.0 -42.0 51.0
v -20.0 -42.0 51.0
v -20.0 -42.0 51.0
v -20.2 -41.0 44.0
v -20.0 -41.0 43.8
v -20.0 -41.2 44.0
v -20.5 -41.0 45.0
v -20.5 -41.0 46.0
v -20.5 -41.0 47.0
v -20.4 -41.0 48.0
v -20.2 -41.0 49.0
v -20.0 -41.0 49.3
v -20.0 -41.7 50.0
v -20.0 -42.0 51.0
v -20.2 -40.0 40.0
v -20.0 -40.0 39.7
v -20.0 -40.3 40.0
v -20.0 -40.4 41.0
v -20.4 -40.0 41.0
v -20.0 -40.4 42.0
v -20.4 -40.0 42.0
v -20.0 -40.5 43.0
v -20.6 -40.0 43.0
v -20.7 -40.0 45.0
v -20.5 -40.0 46.0
v -20.4 -40.0 47.0
v -20.0 -40.0 47.5
v -20.0 -40.5 48.0
v -20.0 -40.8 49.0
v -20.4 -39.0 40.0
v -20.0 -39.0 39.4
v -20.5 -39.0 41.0
v -20.7 -39.0 42.0
v -20.6 -39.0 46.0
v -20.2 -39.0 47.0
v -20.0 -39.0 47.2
v -20.1 -38.0 39.0
v -20.0 -38.0 38.8
v -20.0 -38.3 39.0
v -20.5 -38.0 40.0
v -20.6 -38.0 41.0
v -20.5 -38.0 46.0
v -20.0 -38.0 46.5
v -20.0 -38.7 47.0
v -20.0 -37.7 39.0
v -20.4 -37.0 40.0
v -20.0 -37.0 39.4
v -20.6 -37.0 41.0
v -20.4 -37.0 46.0
v -20.0 -37.0 46.4
v -20.4 -36.0 40.0
v -20.0 -36.0 39.4
v -20.5 -36.0 41.0
v -20.7 -36.0 42.0
v -20.7 -36.0 45.0
v -20.3 -36.0 46.0
v -20.0 -36.0 46.3
v -20.3 -35.0 39.0
v -20.0 -35.0 38.7
v -20.0 -35.5 39.0
v -20.5 -35.0 40.0
v -20.5 -35.0 41.0
v -20.6 -35.0 42.0
v -20.7 -35.0 44.0
v -20.3 -35.0 45.0
v -20.0 -35.0 45.5
v -20.0 -35.6 46.0
v -20.3 -34.0 39.0
v -20.0 -34.0 38.6
v -20.5 -34.0 40.0
v -20.5 -34.0 41.0
v -20.5 -34.0 42.0
v -20.6 -34.0 43.0
v -20.3 -34.0 44.0
v -20.0 -34.0 44.5
v -20.0 -34.5 45.0
v -20.0 -33.3 39.0
v -20.4 -33.0 40.0
v -20.0 -33.0 39.2
v -20.5 -33.0 41.0
v -20.5 -33.0 42.0
v -20.3 -33.0 43.0
v -20.0 -33.0 43.5
v -20.0 -33.5 44.0
v -20.3 -32.0 38.0
v -20.0 -32.0 37.6
v -20.0 -32.4 38.0
v -20.0 -32.8 39.0
v -20.4 -32.0 39.0
v -20.5 -32.0 40.0
v -20.4 -32.0 41.0
v -20.3 -32.0 42.0
v -20.0 -32.0 42.5
v -20.0 -32.5 43.0
v -20.3 -31.0 37.0
v -20.0 -31.0 36.7
v -20.0 -31.4 37.0
v -20.5 -31.0 38.0
v -20.5 -31.0 39.0
v -20.3 -31.0 40.0
v -20.0 -31.0 40.5
v -20.0 -31.4 41.0
v -20.0 -31.6 42.0
v -20.4 -30.0 37.0
v -20.0 -30.0 36.5
v -20.5 -30.0 38.0
v -20.4 -30.0 39.0
v -20.0 -30.0 39.6
v -20.0 -30.5 40.0
v -20.2 -29.0 37.0
v -20.0 -29.0 36.7
v -20.4 -29.0 38.0
v -20.2 -29.0 39.0
v -20.0 -29.0 39.3
v -20.0 -28.7 37.0
v -20.0 -28.5 38.0
v -20.0 -28.7 39.0
v -19.2 -45.0 48.0
v -19.0 -45.0 47.8
v -19.0 -45.1 48.0
v -19.0 -45.0 48.3
v -19.0 -44.0 46.0
v -19.0 -44.0 46.0
v -19.0 -44.0 46.0
v -19.0 -44.5 47.0
v -19.0 -44.6 49.0
v -19.0 -44.5 50.0
v -19.5 -44.0 50.0
v -19.0 -44.5 51.0
v -19.4 -44.0 51.0
v -19.0 -44.2 52.0
v -19.2 -44.0 52.0
v -19.0 -44.0 52.2
v -19.0 -43.0 45.7
v -19.7 -43.0 50.0
v -19.6 -43.0 51.0
v -19.3 -43.0 52.0
v -19.0 -43.0 52.3
v -19.8 -42.0 45.0
v -19.0 -42.0 45.4
v -19.2 -42.0 52.0
v -19.0 -42.0 52.3
v -19.7 -41.0 44.0
v -19.0 -41.0 44.4
v -19.0 -41.6 45.0
v -19.0 -41.4 50.0
v -19.0 -41.0 49.6
v -19.0 -41.6 51.0
v -19.0 -41.9 52.0
v -19.3 -40.0 39.0
v -19.0 -40.0 38.7
v -19.0 -40.3 39.0
v -19.0 -40.9 40.0
v -19.0 -40.5 41.0
v -19.0 -40.4 42.0
v -19.0 -40.5 43.0
v -19.0 -40.7 44.0
v -19.0 -40.2 48.0
v -19.0 -40.0 47.8
v -19.0 -40.5 49.0
v -19.2 -39.0 38.0
v -19.0 -39.0 37.8
v -19.0 -39.3 38.0
v -19.7 -39.0 39.0
v -19.0 -39.0 47.5
v -19.3 -38.0 38.0
v -19.0 -38.0 37.7
v -19.0 -38.3 47.0
v -19.0 -38.0 46.8
v -19.0 -37.6 38.0
v -19.6 -37.0 39.0
v -19.0 -37.0 38.4
v -19.0 -37.0 46.6
v -19.6 -36.0 39.0
v -19.0 -36.0 38.4
v -19.0 -36.0 46.7
v -19.3 -35.0 38.0
v -19.0 -35.0 37.7
v -19.0 -35.5 38.0
v -19.7 -35.0 46.0
v -19.0 -35.4 47.0
v -19.3 -35.0 47.0
v -19.0 -35.0 47.2
v -19.5 -34.0 38.0
v -19.0 -34.0 37.5
v -19.7 -34.0 45.0
v -19.5 -34.0 46.0
v -19.2 -34.0 47.0
v -19.0 -34.0 47.2
v -19.5 -33.0 38.0
v -19.0 -33.0 37.4
v -19.9 -33.0 39.0
v -19.7 -33.0 44.0
v -19.5 -33.0 45.0
v -19.3 -33.0 46.0
v -19.0 -33.0 46.5
v -19.0 -33.6 47.0
v -19.5 -32.0 37.0
v -19.0 -32.0 36.4
v -19.0 -32.6 37.0
v -19.7 -32.0 43.0
v -19.5 -32.0 44.0
v -19.3 -32.0 45.0
v -19.0 -32.0 45.5
v -19.0 -32.5 46.0
v -19.4 -31.0 36.0
v -19.0 -31.0 35.6
v -19.0 -31.5 36.0
v -19.7 -31.0 41.0
v -19.6 -31.0 42.0
v -19.5 -31.0 43.0
v -19.3 -31.0 44.0
v -19.0 -31.0 44.5
v -19.0 -31.5 45.0
v -19.5 -30.0 36.0
v -19.0 -30.0 35.5
v -19.7 -30.0 40.0
v -19.5 -30.0 41.0
v -19.4 -30.0 42.0
v -19.3 -30.0 43.0
v -19.0 -30.0 43.5
v -19.0 -30.5 44.0
v -19.5 -29.0 36.0
v -19.0 -29.0 35.5
v -19.6 -29.0 40.0
v -19.4 -29.0 41.0
v -19.0 -29.0 41.6
v -19.0 -29.4 42.0
v -19.0 -29.6 43.0
v -19.3 -28.0 36.0
v -19.0 -28.0 35.7
v -19.5 -28.0 37.0
v -19.5 -28.0 38.0
v -19.5 -28.0 39.0
v -19.4 -28.0 40.0
v -19.2 -28.0 41.0
v -19.0 -28.0 41.3
v -19.0 -27.7 36.0
v -19.0 -27.5 37.0
v -19.0 -27.5 38.0
v -19.0 -27.5 39.0
v -19.0 -27.6 40.0
v -19.0 -27.8 41.0
v -18.0 -45.0 47.4
v -18.0 -45.2 48.0
v -18.0 -45.1 49.0
v -18.1 -45.0 49.0
v -18.0 -45.2 50.0
v -18.2 -45.0 50.0
v -18.0 -45.2 51.0
v -18.2 -45.0 51.0
v -18.0 -45.0 52.0
v -18.0 -45.0 52.0
v -18.0 -45.0 52.0
v -19.0 -44.0 46.0
v -18.5 -44.0 47.0
v -18.0 -44.0 47.8
v -18.2 -44.0 49.0
v -18.0 -44.0 48.4
v -18.0 -44.7 49.0
v -18.0 -44.0 49.3
v -18.0 -44.0 52.2
v -18.7 -43.0 46.0
v -18.5 -43.0 47.0
v -18.0 -43.7 48.0
v -18.3 -43.0 48.0
v -18.2 -43.0 49.0
v -18.0 -43.0 49.3
v -18.6 -43.0 52.0
v -18.0 -43.7 52.0
v -18.0 -43.0 51.5
v -18.6 -42.0 46.0
v -18.3 -42.0 47.0
v -18.0 -42.0 47.5
v -18.0 -42.5 48.0
v -18.0 -42.7 49.0
v -18.4 -42.0 51.0
v -18.0 -42.4 51.0
v -18.0 -42.0 50.5
v -18.8 -42.0 52.0
v -18.0 -41.0 44.8
v -18.0 -41.1 45.0
v -18.1 -41.0 46.0
v -18.0 -41.0 45.5
v -18.0 -41.0 46.2
v -18.0 -41.5 47.0
v -18.0 -41.4 50.0
v -18.0 -41.0 49.7
v -18.0 -40.0 38.6
v -18.0 -40.3 39.0
v -18.0 -40.3 40.0
v -18.4 -40.0 41.0
v -18.0 -40.0 40.5
v -18.3 -40.0 42.0
v -18.0 -40.0 42.3
v -18.0 -40.4 43.0
v -18.0 -40.6 44.0
v -18.0 -40.9 46.0
v -18.8 -40.0 48.0
v -18.4 -40.0 49.0
v -18.0 -40.0 49.7
v -18.0 -39.0 37.6
v -18.0 -39.5 38.0
v -18.0 -39.7 41.0
v -18.0 -39.8 42.0
v -18.5 -39.0 48.0
v -18.0 -39.0 49.0
v -18.0 -39.0 49.0
v -18.0 -38.0 37.5
v -18.7 -38.0 47.0
v -18.0 -38.0 48.0
v -18.0 -38.0 48.0
v -18.6 -37.0 38.0
v -18.0 -37.0 37.6
v -18.5 -37.0 47.0
v -18.0 -37.0 47.4
v -18.0 -38.0 48.0
v -18.6 -36.0 38.0
v -18.0 -36.0 37.6
v -18.5 -36.0 47.0
v -18.0 -36.0 47.3
v -18.0 -35.0 37.3
v -18.0 -35.0 47.4
v -18.4 -34.0 37.0
v -18.0 -34.0 36.5
v -18.0 -34.5 37.0
v -18.0 -34.0 47.5
v -18.3 -33.0 36.0
v -18.0 -33.0 35.7
v -18.0 -33.4 36.0
v -18.7 -33.0 37.0
v -18.5 -33.0 47.0
v -18.0 -33.0 47.4
v -18.2 -32.0 35.0
v -18.0 -32.0 34.8
v -18.0 -32.3 35.0
v -18.7 -32.0 36.0
v -18.7 -32.0 46.0
v -18.3 -32.0 47.0
v -18.0 -32.0 47.2
v -18.5 -31.0 35.0
v -18.0 -31.0 34.4
v -18.7 -31.0 45.0
v -18.3 -31.0 46.0
v -18.0 -31.0 46.4
v -18.0 -31.6 47.0
v -18.2 -30.0 34.0
v -18.0 -30.0 33.8
v -18.0 -30.4 34.0
v -18.6 -30.0 35.0
v -18.7 -30.0 44.0
v -18.3 -30.0 45.0
v -18.0 -30.0 45.4
v -18.0 -30.6 46.0
v -18.2 -29.0 34.0
v -18.0 -29.0 33.8
v -18.6 -29.0 35.0
v -18.7 -29.0 42.0
v -18.5 -29.0 43.0
v -18.1 -29.0 44.0
v -18.0 -29.0 44.1
v -18.0 -29.7 45.0
v -18.0 -28.6 34.0
v -18.4 -28.0 35.0
v -18.0 -28.0 34.5
v -18.3 -28.0 42.0
v -18.0 -28.0 42.3
v -18.0 -28.6 43.0
v -18.0 -28.9 44.0
v -18.0 -27.5 35.0
v -18.3 -27.0 36.0
v -18.0 -27.0 35.6
v -18.4 -27.0 37.0
v -18.4 -27.0 38.0
v -18.3 -27.0 39.0
v -18.0 -27.0 39.5
v -18.0 -27.3 40.0
v -18.0 -27.4 41.0
v -18.0 -27.7 42.0
v -18.0 -26.7 36.0
v -18.0 -26.6 37.0
v -18.0 -26.7 38.0
v -18.0 -26.7 39.0
v -17.8 -45.0 48.0
v -17.9 -45.0 49.0
v -17.8 -45.0 50.0
v -17.8 -45.0 51.0
v -18.0 -45.0 52.0
v -17.9 -44.0 48.0
v -17.6 -44.0 50.0
v -17.5 -44.0 51.0
v -17.8 -44.0 52.0
v -17.6 -43.0 50.0
v -17.7 -43.0 51.0
v -17.7 -42.0 48.0
v -17.6 -42.0 49.0
v -17.7 -42.0 50.0
v -17.8 -41.0 45.0
v -17.6 -41.0 47.0
v -17.4 -41.0 48.0
v -17.2 -41.0 49.0
v -17.5 -40.0 39.0
v -17.6 -40.0 40.0
v -17.0 -40.0 42.5
v -17.0 -40.4 43.0
v -17.0 -40.5 44.0
v -17.0 -40.6 45.0
v -17.0 -40.5 46.0
v -17.0 -40.5 47.0
v -17.0 -40.0 47.5
v -17.5 -40.0 48.0
v -17.6 -40.0 49.0
v -17.0 -39.0 37.6
v -17.0 -39.8 38.0
v -17.0 -39.7 39.0
v -17.0 -39.6 40.0
v -17.0 -39.5 41.0
v -17.0 -39.6 42.0
v -17.5 -39.0 48.0
v -17.0 -39.0 47.5
v -17.0 -38.0 37.6
v -17.1 -38.0 47.0
v -17.0 -38.1 47.0
v -17.0 -38.0 47.0
v -18.0 -38.0 48.0
v -17.0 -37.0 37.6
v -17.0 -37.9 47.0
v -17.0 -37.0 47.3
v -17.0 -36.0 37.4
v -17.1 -36.0 47.0
v -17.0 -36.1 47.0
v -17.0 -36.0 47.0
v -17.5 -35.0 37.0
v -17.0 -35.0 36.6
v -17.0 -35.4 37.0
v -17.0 -35.0 47.0
v -17.0 -35.0 47.0
v -17.4 -34.0 36.0
v -17.0 -34.0 35.7
v -17.0 -34.3 36.0
v -17.0 -35.0 47.0
v -17.0 -34.0 47.6
v -17.0 -33.0 35.4
v -17.0 -33.0 47.6
v -17.0 -32.0 34.5
v -17.0 -32.5 35.0
v -17.0 -32.0 47.6
v -17.4 -31.0 34.0
v -17.0 -31.0 33.7
v -17.0 -31.4 34.0
v -17.4 -31.0 47.0
v -17.0 -31.0 47.3
v -17.0 -30.0 33.5
v -17.4 -30.0 46.0
v -17.0 -30.0 46.3
v -17.0 -30.7 47.0
v -17.0 -29.0 33.4
v -17.6 -29.0 44.0
v -17.0 -29.1 44.0
v -17.0 -29.0 43.9
v -17.0 -29.5 45.0
v -17.0 -29.7 46.0
v -17.4 -28.0 34.0
v -17.0 -28.0 33.7
v -17.0 -28.3 43.0
v -17.0 -28.0 42.7
v -17.0 -27.7 34.0
v -17.4 -27.0 35.0
v -17.0 -27.0 34.7
v -17.6 -27.0 40.0
v -17.4 -27.0 41.0
v -17.0 -27.0 41.5
v -17.0 -27.4 42.0
v -17.0 -26.7 35.0
v -17.0 -26.5 36.0
v -17.0 -26.6 37.0
v -17.0 -26.9 38.0
v -17.0 -26.6 39.0
v -17.0 -26.6 40.0
v -17.0 -26.7 41.0
v -16.0 -40.0 42.6
v -16.0 -40.3 43.0
v -16.0 -40.5 44.0
v -16.0 -40.5 45.0
v -16.0 -40.5 46.0
v -16.0 -40.3 47.0
v -16.0 -40.0 47.3
v -16.0 -39.0 37.9
v -16.0 -39.1 38.0
v -16.0 -39.5 39.0
v -16.0 -39.5 40.0
v -16.0 -39.5 41.0
v -16.0 -39.6 42.0
v -16.0 -39.0 47.3
v -16.0 -38.8 38.0
v -16.4 -38.0 38.0
v -16.0 -38.0 38.3
v -16.0 -38.5 47.0
v -16.0 -38.0 46.8
v -16.3 -37.0 38.0
v -16.0 -37.0 38.2
v -16.0 -37.7 47.0
v -16.0 -37.0 47.6
v -16.0 -36.0 37.5
v -16.0 -36.7 38.0
v -17.0 -36.0 47.0
v -16.0 -36.4 48.0
v -16.3 -36.0 48.0
v -16.0 -36.0 48.3
v -16.0 -35.0 36.5
v -16.0 -35.5 37.0
v -17.0 -35.0 47.0
v -16.4 -35.0 48.0
v -16.0 -35.0 48.6
v -16.0 -34.0 35.6
v -16.0 -34.5 36.0
v -16.6 -34.0 48.0
v -16.0 -34.4 49.0
v -16.2 -34.0 49.0
v -16.0 -34.0 49.3
v -16.0 -33.0 35.4
v -16.6 -33.0 48.0
v -16.3 -33.0 49.0
v -16.0 -33.0 49.3
v -16.0 -32.0 34.5
v -16.0 -32.5 35.0
v -16.4 -32.0 48.0
v -16.0 -32.0 48.5
v -16.0 -32.6 49.0
v -16.0 -31.0 33.6
v -16.0 -31.5 34.0
v -16.0 -31.5 48.0
v -16.0 -31.0 47.6
v -16.0 -30.0 33.4
v -16.0 -30.4 47.0
v -16.0 -30.0 46.6
v -16.0 -29.0 33.1
v -16.8 -29.0 44.0
v -16.0 -29.0 44.7
v -16.0 -29.2 45.0
v -16.0 -29.5 46.0
v -16.0 -28.0 33.5
v -16.7 -28.0 43.0
v -16.3 -28.0 44.0
v -16.0 -28.0 44.3
v -16.0 -27.5 34.0
v -16.0 -27.0 34.5
v -16.6 -27.0 42.0
v -16.3 -27.0 43.0
v -16.0 -27.0 43.4
v -16.0 -27.6 44.0
v -16.0 -26.6 35.0
v -16.0 -26.5 36.0
v -16.0 -26.6 37.0
v -16.0 -26.7 38.0
v -16.0 -26.6 39.0
v -16.0 -26.5 40.0
v -16.0 -26.4 41.0
v -16.0 -26.5 42.0
v -16.0 -26.7 43.0
v -15.5 -40.0 43.0
v -15.0 -40.0 43.5
v -15.0 -40.3 44.0
v -15.0 -40.5 45.0
v -15.0 -40.5 46.0
v -15.0 -40.2 47.0
v -15.0 -40.0 47.2
v -15.9 -39.0 38.0
v -15.0 -39.0 38.7
v -15.0 -39.3 39.0
v -15.0 -39.5 40.0
v -15.0 -39.5 41.0
v -15.0 -39.5 42.0
v -15.0 -39.7 43.0
v -15.5 -39.0 47.0
v -15.0 -39.6 47.0
v -15.0 -39.0 46.6
v -15.0 -38.0 38.5
v -15.0 -38.0 46.5
v -15.0 -37.0 38.5
v -15.0 -37.5 47.0
v -15.0 -37.1 48.0
v -15.1 -37.0 48.0
v -15.0 -37.0 48.1
v -15.0 -36.0 37.6
v -15.0 -36.4 38.0
v -15.0 -36.0 48.6
v -15.0 -35.0 36.5
v -15.0 -35.5 37.0
v -15.0 -35.5 49.0
v -15.5 -35.0 49.0
v -15.0 -35.0 49.3
v -15.0 -34.0 35.7
v -15.0 -34.4 36.0
v -15.0 -34.0 49.7
v -15.0 -33.0 35.4
v -15.0 -33.3 50.0
v -15.2 -33.0 50.0
v -15.0 -33.0 50.1
v -15.0 -32.0 34.5
v -15.0 -32.5 35.0
v -15.6 -32.0 49.0
v -15.0 -32.0 49.6
v -15.0 -32.7 50.0
v -15.0 -31.0 33.8
v -15.0 -31.3 34.0
v -15.6 -31.0 48.0
v -15.2 -31.0 49.0
v -15.0 -31.0 49.3
v -15.0 -30.0 33.6
v -15.6 -30.0 47.0
v -15.0 -30.0 47.5
v -15.0 -30.4 48.0
v -15.0 -30.8 49.0
v -15.0 -29.0 33.5
v -15.7 -29.0 45.0
v -15.4 -29.0 46.0
v -15.0 -29.0 46.4
v -15.0 -29.5 47.0
v -15.0 -28.0 33.7
v -15.0 -28.3 45.0
v -15.0 -28.0 44.7
v -15.0 -28.7 46.0
v -15.0 -27.7 34.0
v -15.0 -27.0 34.6
v -15.4 -27.0 37.0
v -15.0 -27.3 37.0
v -15.0 -27.0 36.6
v -15.6 -27.0 38.0
v -15.0 -27.4 38.0
v -15.4 -27.0 39.0
v -15.0 -27.3 39.0
v -15.0 -27.0 39.4
v -15.4 -27.0 44.0
v -15.0 -27.0 44.3
v -15.0 -26.6 35.0
v -15.0 -26.6 36.0
v -15.0 -26.6 40.0
v -15.2 -26.0 41.0
v -15.0 -26.0 40.9
v -15.4 -26.0 42.0
v -15.3 -26.0 43.0
v -15.0 -26.0 43.3
v -15.0 -26.7 44.0
v -15.0 -25.9 41.0
v -15.0 -25.6 42.0
v -15.0 -25.8 43.0
v -14.5 -40.0 44.0
v -14.0 -40.0 44.4
v -14.0 -40.4 45.0
v -14.0 -40.4 46.0
v -14.0 -40.1 47.0
v -14.0 -40.0 47.1
v -14.6 -39.0 39.0
v -14.0 -39.0 39.6
v -14.0 -39.2 40.0
v -14.0 -39.4 41.0
v -14.0 -39.4 42.0
v -14.0 -39.5 43.0
v -14.0 -39.7 44.0
v -14.3 -39.0 46.0
v -14.0 -39.3 46.0
v -14.0 -39.0 45.8
v -14.0 -39.9 47.0
v -14.0 -38.0 38.9
v -14.0 -38.2 39.0
v -14.5 -38.0 46.0
v -14.0 -38.0 45.5
v -14.0 -37.6 39.0
v -14.2 -37.0 39.0
v -14.0 -37.0 39.2
v -14.3 -37.0 46.0
v -14.0 -37.0 45.1
v -14.5 -37.0 47.0
v -14.9 -37.0 48.0
v -14.5 -36.0 38.0
v -14.0 -36.0 38.3
v -14.0 -36.8 39.0
v -14.0 -36.7 46.0
v -14.0 -36.5 47.0
v -14.0 -36.4 48.0
v -14.0 -36.0 49.0
v -14.0 -36.0 49.0
v -14.0 -36.0 49.0
v -14.0 -35.0 36.7
v -14.0 -35.3 37.0
v -14.0 -35.7 38.0
v -14.0 -35.0 49.4
v -14.5 -34.0 36.0
v -14.0 -34.0 36.3
v -14.0 -34.1 50.0
v -14.1 -34.0 50.0
v -14.0 -34.0 50.1
v -14.0 -33.0 35.6
v -14.0 -33.5 36.0
v -14.0 -33.0 50.3
v -14.0 -32.0 34.7
v -14.0 -32.3 35.0
v -14.6 -32.0 50.0
v -14.0 -32.0 50.4
v -14.7 -31.0 34.0
v -14.0 -31.0 34.4
v -14.3 -31.0 50.0
v -14.0 -31.0 50.2
v -14.5 -30.0 34.0
v -14.0 -30.0 34.4
v -14.5 -30.0 48.0
v -14.0 -30.0 48.6
v -14.0 -30.3 49.0
v -14.0 -30.8 50.0
v -14.5 -29.0 34.0
v -14.0 -29.0 34.4
v -14.5 -29.0 47.0
v -14.0 -29.0 47.5
v -14.0 -29.5 48.0
v -14.7 -28.0 34.0
v -14.0 -28.0 34.5
v -14.6 -28.0 45.0
v -14.0 -28.0 45.6
v -14.0 -28.3 46.0
v -14.0 -28.6 47.0
v -14.0 -27.0 34.8
v -14.0 -27.4 37.0
v -14.0 -27.0 36.5
v -14.0 -27.5 38.0
v -14.0 -27.5 39.0
v -14.5 -27.0 40.0
v -14.0 -27.4 40.0
v -14.0 -27.0 40.5
v -14.0 -27.6 45.0
v -14.0 -27.0 44.5
v -14.0 -26.8 35.0
v -14.0 -26.7 36.0
v -14.8 -26.0 41.0
v -14.0 -26.5 41.0
v -14.0 -26.0 41.6
v -14.0 -26.5 44.0
v -14.0 -26.0 43.3
v -14.0 -25.7 42.0
v -14.0 -25.8 43.0
v -13.0 -40.0 44.5
v -13.0 -40.3 45.0
v -13.0 -40.4 46.0
v -13.0 -40.1 47.0
v -13.0 -40.0 47.1
v -13.8 -39.0 40.0
v -13.6 -39.0 41.0
v -13.4 -39.0 42.0
v -13.0 -39.0 42.5
v -13.0 -39.3 43.0
v -13.0 -39.6 44.0
v -13.0 -39.5 46.0
v -13.0 -39.0 45.6
v -13.0 -39.9 47.0
v -13.9 -38.0 39.0
v -13.5 -38.0 40.0
v -13.3 -38.0 41.0
v -13.0 -38.0 41.4
v -13.0 -38.5 42.0
v -13.0 -38.0 45.4
v -13.3 -37.0 40.0
v -13.0 -37.0 40.4
v -13.0 -37.6 41.0
v -13.6 -37.0 45.0
v -13.0 -37.1 45.0
v -13.0 -37.0 44.9
v -13.0 -36.0 38.7
v -13.0 -36.3 39.0
v -13.0 -36.7 40.0
v -13.0 -36.9 45.0
v -13.0 -36.3 46.0
v -13.5 -36.0 47.0
v -13.0 -36.0 46.3
v -13.6 -36.0 48.0
v -14.0 -36.0 49.0
v -13.6 -35.0 37.0
v -13.0 -35.0 37.6
v -13.0 -35.3 38.0
v -13.4 -35.0 47.0
v -13.0 -35.0 46.5
v -13.5 -35.0 48.0
v -13.7 -35.0 49.0
v -13.0 -34.0 36.7
v -13.0 -34.4 37.0
v -13.2 -34.0 47.0
v -13.0 -34.0 46.8
v -13.4 -34.0 48.0
v -13.4 -34.0 49.0
v -13.9 -34.0 50.0
v -13.5 -33.0 36.0
v -13.0 -33.0 36.4
v -13.0 -33.8 47.0
v -13.0 -33.5 48.0
v -13.0 -33.4 49.0
v -13.0 -33.0 49.4
v -13.5 -33.0 50.0
v -13.6 -32.0 35.0
v -13.0 -32.0 35.5
v -13.0 -32.5 36.0
v -13.0 -32.4 50.0
v -13.0 -32.0 50.2
v -13.0 -31.0 34.8
v -13.0 -31.4 35.0
v -13.0 -31.0 50.2
v -13.0 -30.0 34.7
v -13.3 -30.0 49.0
v -13.0 -30.0 49.2
v -13.0 -30.7 50.0
v -13.0 -29.0 34.8
v -13.2 -29.0 48.0
v -13.0 -29.0 48.2
v -13.0 -29.8 49.0
v -13.0 -28.6 35.0
v -13.4 -28.0 35.0
v -13.0 -28.0 35.4
v -13.2 -28.0 40.0
v -13.0 -28.2 40.0
v -13.0 -28.0 39.6
v -13.0 -28.0 40.3
v -13.4 -28.0 46.0
v -13.0 -28.0 47.0
v -13.0 -28.0 47.0
v -13.0 -28.8 48.0
v -13.7 -27.0 35.0
v -13.0 -27.0 36.0
v -13.0 -27.5 37.0
v -13.0 -27.0 36.0
v -13.0 -27.6 38.0
v -13.0 -27.7 39.0
v -13.5 -27.0 41.0
v -13.0 -27.5 41.0
v -13.0 -27.0 41.6
v -13.0 -27.5 45.0
v -13.0 -27.0 44.3
v -13.0 -27.8 46.0
v -13.0 -28.0 47.0
v -13.0 -27.0 36.0
v -13.7 -26.0 42.0
v -13.0 -26.7 42.0
v -13.7 -26.0 43.0
v -13.0 -26.6 43.0
v -13.0 -26.7 44.0
v -12.0 -40.0 44.4
v -12.0 -40.4 45.0
v -12.0 -40.4 46.0
v -12.0 -40.2 47.0
v -12.0 -40.0 47.2
v -12.5 -39.0 43.0
v -12.0 -39.0 43.4
v -12.0 -39.6 44.0
v -12.0 -39.3 46.0
v -12.0 -39.0 45.8
v -12.0 -39.8 47.0
v -12.5 -38.0 42.0
v -12.0 -38.0 42.5
v -12.0 -38.5 43.0
v -12.0 -38.0 45.6
v -12.4 -37.0 41.0
v -12.0 -37.0 41.4
v -12.0 -37.5 42.0
v -12.9 -37.0 45.0
v -12.0 -37.0 45.4
v -12.7 -36.0 39.0
v -12.0 -36.0 39.7
v -12.0 -36.3 40.0
v -12.0 -36.7 41.0
v -12.0 -36.0 44.8
v -12.2 -36.0 45.0
v -12.0 -36.3 45.0
v -12.7 -36.0 46.0
v -12.7 -35.0 38.0
v -12.2 -35.0 39.0
v -12.0 -35.0 39.2
v -12.0 -35.7 45.0
v -12.0 -35.0 45.5
v -12.4 -35.0 46.0
v -12.7 -34.0 37.0
v -12.3 -34.0 38.0
v -12.0 -34.0 38.3
v -12.0 -34.7 39.0
v -12.0 -34.4 46.0
v -12.0 -34.0 46.3
v -12.4 -33.0 37.0
v -12.0 -33.0 37.5
v -12.0 -33.6 38.0
v -12.0 -33.4 47.0
v -12.4 -33.0 48.0
v -12.0 -33.0 47.5
v -12.7 -33.0 49.0
v -12.6 -32.0 36.0
v -12.0 -32.0 36.7
v -12.0 -32.4 37.0
v -12.0 -32.5 48.0
v -12.0 -32.0 48.5
v -12.3 -32.0 49.0
v -12.8 -32.0 50.0
v -12.8 -31.0 35.0
v -12.4 -31.0 36.0
v -12.0 -31.0 36.6
v -12.0 -31.3 49.0
v -12.0 -31.0 49.2
v -12.7 -31.0 50.0
v -12.7 -30.0 35.0
v -12.4 -30.0 36.0
v -12.0 -30.0 37.0
v -12.0 -30.0 37.0
v -12.0 -30.0 37.0
v -12.7 -30.0 49.0
v -12.0 -30.8 49.0
v -12.0 -30.0 48.4
v -12.8 -29.0 35.0
v -12.4 -29.0 36.0
v -12.0 -29.0 36.8
v -12.0 -30.0 37.0
v -12.1 -29.0 40.0
v -12.0 -29.1 40.0
v -12.0 -29.0 39.8
v -12.0 -29.0 40.2
v -12.3 -29.0 46.0
v -12.0 -29.2 46.0
v -12.0 -29.0 45.6
v -12.4 -29.0 47.0
v -12.0 -29.4 47.0
v -12.8 -29.0 48.0
v -12.0 -29.6 48.0
v -12.6 -28.0 36.0
v -12.0 -28.8 37.0
v -12.5 -28.0 37.0
v -12.5 -28.0 38.0
v -12.0 -28.5 38.0
v -12.7 -28.0 39.0
v -12.0 -28.5 39.0
v -12.6 -28.0 41.0
v -12.0 -28.6 41.0
v -12.4 -28.0 42.0
v -12.0 -28.5 42.0
v -12.3 -28.0 43.0
v -12.0 -28.3 43.0
v -12.0 -28.0 43.6
v -12.4 -28.0 45.0
v -12.0 -28.5 45.0
v -12.0 -28.0 44.3
v -12.8 -28.0 46.0
v -13.0 -28.0 47.0
v -13.0 -27.0 36.0
v -12.7 -27.0 42.0
v -12.6 -27.0 43.0
v -12.0 -27.8 44.0
v -12.7 -27.0 44.0
v -11.4 -40.0 44.0
v -11.0 -40.0 43.8
v -11.0 -40.2 44.0
v -11.0 -40.5 45.0
v -11.0 -40.5 46.0
v -11.0 -40.3 47.0
v -11.0 -40.0 47.9
v -11.0 -39.0 43.5
v -11.7 -39.0 46.0
v -11.0 -39.0 46.5
v -11.0 -39.6 47.0
v -11.4 -38.0 43.0
v -11.0 -38.0 43.3
v -11.5 -38.0 46.0
v -11.0 -38.0 46.4
v -11.5 -37.0 42.0
v -11.0 -37.0 42.5
v -11.0 -37.5 43.0
v -11.3 -37.0 46.0
v -11.0 -37.0 46.2
v -11.6 -36.0 40.0
v -11.0 -36.0 40.6
v -11.0 -36.3 41.0
v -11.0 -36.6 42.0
v -11.1 -36.0 44.0
v -11.0 -36.1 44.0
v -11.0 -36.0 43.8
v -11.0 -36.5 45.0
v -11.0 -36.8 46.0
v -11.0 -35.0 39.6
v -11.0 -35.4 40.0
v -11.2 -35.0 43.0
v -11.0 -35.3 43.0
v -11.0 -35.0 42.8
v -11.5 -35.0 44.0
v -11.7 -35.0 45.0
v -11.0 -34.0 38.7
v -11.0 -34.4 39.0
v -11.4 -34.0 43.0
v -11.0 -34.0 42.6
v -11.5 -34.0 44.0
v -11.5 -34.0 45.0
v -11.7 -34.0 46.0
v -11.6 -33.0 38.0
v -11.0 -33.0 38.5
v -11.2 -33.0 42.0
v -11.0 -33.3 42.0
v -11.0 -33.0 41.8
v -11.5 -33.0 43.0
v -11.5 -33.0 44.0
v -11.5 -33.0 45.0
v -11.5 -33.0 46.0
v -11.7 -33.0 47.0
v -11.7 -32.0 37.0
v -11.4 -32.0 38.0
v -11.0 -32.0 38.5
v -11.3 -32.0 42.0
v -11.0 -32.0 41.7
v -11.5 -32.0 43.0
v -11.4 -32.0 44.0
v -11.4 -32.0 45.0
v -11.3 -32.0 46.0
v -11.0 -32.0 46.8
v -11.0 -32.1 47.0
v -11.6 -32.0 48.0
v -11.0 -32.0 47.1
v -11.6 -31.0 37.0
v -11.4 -31.0 38.0
v -11.0 -31.0 38.5
v -11.2 -31.0 42.0
v -11.0 -31.0 41.7
v -11.3 -31.0 43.0
v -11.0 -31.0 43.5
v -11.0 -31.4 44.0
v -11.0 -31.5 45.0
v -11.0 -31.6 46.0
v -11.4 -31.0 48.0
v -11.0 -31.0 47.5
v -11.9 -31.0 49.0
v -11.4 -30.0 38.0
v -11.0 -30.0 38.4
v -11.0 -30.4 42.0
v -11.0 -30.5 43.0
v -11.6 -30.0 48.0
v -11.0 -30.0 47.3
v -11.8 -29.0 37.0
v -11.5 -29.0 38.0
v -11.0 -29.0 39.0
v -11.0 -29.5 40.0
v -11.0 -29.0 39.0
v -11.7 -29.0 41.0
v -11.0 -29.9 41.0
v -11.5 -29.0 42.0
v -11.0 -29.8 42.0
v -11.4 -29.0 43.0
v -11.0 -29.5 43.0
v -11.0 -29.0 43.7
v -11.4 -29.0 45.0
v -11.0 -29.4 45.0
v -11.0 -29.0 44.3
v -11.0 -29.6 46.0
v -11.0 -29.8 47.0
v -11.0 -29.0 39.0
v -11.8 -28.0 44.0
v -11.0 -28.8 44.0
v -10.0 -40.0 43.8
v -10.0 -40.2 44.0
v -10.0 -40.5 45.0
v -10.0 -40.5 46.0
v -10.0 -40.4 47.0
v -10.0 -40.0 47.9
v -10.0 -39.0 43.6
v -10.0 -39.4 47.0
v -10.0 -39.0 46.7
v -10.0 -38.0 43.6
v -10.0 -38.0 46.4
v -10.5 -37.0 43.0
v -10.0 -37.0 43.5
v -10.0 -37.0 46.2
v -10.7 -36.0 41.0
v -10.4 -36.0 42.0
v -10.0 -36.0 42.9
v -10.0 -36.1 43.0
v -10.1 -36.0 44.0
v -10.0 -36.0 44.0
v -10.0 -36.6 45.0
v -10.0 -36.8 46.0
v -10.6 -35.0 40.0
v -10.0 -35.0 40.6
v -10.0 -35.3 41.0
v -10.0 -35.4 42.0
v -10.0 -35.0 42.3
v -10.0 -35.9 43.0
v -10.0 -36.0 44.0
v -10.3 -34.0 39.0
v -10.1 -34.0 40.0
v -10.0 -34.0 40.2
v -10.0 -34.0 42.2
v -10.4 -33.0 39.0
v -10.0 -33.0 39.5
v -10.0 -33.8 40.0
v -10.0 -33.7 42.0
v -10.0 -33.0 41.6
v -10.5 -32.0 39.0
v -10.0 -32.0 39.5
v -10.0 -32.0 41.5
v -10.9 -32.0 47.0
v -10.5 -31.0 39.0
v -10.0 -31.0 39.4
v -10.0 -31.0 41.5
v -10.7 -31.0 44.0
v -10.5 -31.0 45.0
v -10.6 -31.0 46.0
v -10.6 -31.0 47.0
v -10.6 -30.0 39.0
v -10.0 -30.0 39.7
v -10.8 -30.0 42.0
v -10.0 -30.0 41.1
v -10.7 -30.0 43.0
v -10.5 -30.0 44.0
v -10.2 -30.0 45.0
v -10.6 -30.0 46.0
v -10.8 -30.0 47.0
v -11.0 -29.0 39.0
v -10.0 -29.8 40.0
v -10.0 -29.9 41.0
v -10.9 -29.0 44.0
v -9.7 -40.0 44.0
v -9.0 -40.0 44.7
v -9.0 -40.2 45.0
v -9.0 -40.3 46.0
v -9.0 -40.2 47.0
v -9.0 -40.0 47.2
v -9.5 -39.0 44.0
v -9.0 -39.0 44.6
v -9.1 -39.0 47.0
v -9.0 -39.0 47.0
v -9.6 -38.0 44.0
v -9.0 -38.0 44.8
v -9.4 -38.0 46.0
v -9.0 -38.5 46.0
v -9.0 -38.0 45.2
v -9.0 -39.0 47.0
v -9.6 -37.0 44.0
v -9.0 -37.8 45.0
v -9.6 -37.0 45.0
v -9.8 -37.0 46.0
v -9.9 -36.0 43.0
v -10.0 -36.0 44.0
v -9.7 -35.0 41.0
v -9.7 -35.0 42.0
v -9.0 -34.0 41.0
v -9.0 -34.0 41.0
v -9.0 -34.0 41.0
v -9.7 -34.0 42.0
v -9.6 -33.0 40.0
v -9.0 -33.0 40.8
v -9.0 -33.0 41.2
v -9.4 -32.0 40.0
v -9.0 -32.0 40.6
v -9.0 -32.0 41.2
v -9.0 -31.0 39.9
v -9.0 -31.1 40.0
v -9.0 -31.0 41.2
v -9.0 -30.9 40.0
v -9.7 -30.0 40.0
v -9.9 -30.0 41.0
v -9.0 -30.8 41.0
v -8.8 -40.0 45.0
v -8.7 -40.0 46.0
v -8.8 -40.0 47.0
v -8.6 -39.0 45.0
v -8.6 -39.0 46.0
v -9.0 -39.0 47.0
v -8.9 -38.0 45.0
v -9.0 -34.0 41.0
v -8.8 -33.0 41.0
v -8.8 -32.0 41.0
v -8.9 -31.0 40.0
v -8.8 -31.0 41.0
f 3 2 1
f 1 4 3
f 7 6 5
f 7 5 2
f 5 1 2
f 5 8 1
f 4 1 9
f 1 10 9
f 1 8 10
f 10 11 9
f 14 13 12
f 14 12 6
f 12 5 6
f 12 15 5
f 5 16 8
f 5 15 16
f 8 17 10
f 8 16 17
f 11 10 18
f 18 10 17
f 12 13 19
f 19 13 20
f 12 21 15
f 12 19 21
f 15 22 16
f 15 21 22
f 16 23 17
f 16 22 23
f 18 17 24
f 24 17 23
f 20 25 19
f 27 26 25
f 26 19 25
f 26 21 19
f 21 28 22
f 21 26 28
f 30 23 29
f 23 28 29
f 23 22 28
f 23 30 24
f 26 27 31
f 31 27 32
f 34 28 33
f 28 31 33
f 28 26 31
f 28 34 29
f 32 35 31
f 31 35 33
f 38 37 36
f 40 39 36
f 36 39 38
f 42 41 40
f 40 41 39
f 42 43 41
f 46 45 44
f 46 44 37
f 44 36 37
f 44 47 36
f 36 48 40
f 36 47 48
f 40 49 42
f 40 48 49
f 43 42 50
f 50 42 49
f 53 52 51
f 53 51 45
f 51 44 45
f 51 54 44
f 44 55 47
f 44 54 55
f 47 56 48
f 47 55 56
f 48 57 49
f 48 56 57
f 50 49 58
f 49 59 58
f 49 57 59
f 61 60 59
f 59 60 58
f 61 62 60
f 65 64 63
f 65 63 52
f 63 51 52
f 63 66 51
f 51 67 54
f 51 66 67
f 54 68 55
f 54 67 68
f 55 69 56
f 55 68 69
f 56 70 57
f 56 69 70
f 72 59 71
f 59 70 71
f 59 57 70
f 59 72 61
f 61 72 73
f 61 73 62
f 76 75 74
f 78 77 74
f 74 77 76
f 80 79 78
f 78 79 77
f 82 81 80
f 80 81 79
f 81 82 64
f 64 82 63
f 82 2 63
f 2 3 63
f 63 3 4
f 83 63 4
f 66 63 83
f 66 84 67
f 66 83 84
f 67 85 68
f 67 84 85
f 87 69 86
f 69 85 86
f 69 68 85
f 69 87 70
f 70 87 88
f 70 88 71
f 74 75 89
f 89 75 90
f 74 91 78
f 74 89 91
f 78 92 80
f 78 91 92
f 92 6 7
f 82 92 7
f 80 92 82
f 82 7 2
f 9 83 4
f 83 9 11
f 93 83 11
f 84 83 93
f 84 94 85
f 84 93 94
f 86 85 95
f 95 85 94
f 98 97 96
f 98 96 90
f 96 89 90
f 96 99 89
f 89 100 91
f 89 99 100
f 100 13 14
f 92 100 14
f 91 100 92
f 92 14 6
f 18 101 93
f 18 93 11
f 103 94 102
f 94 101 102
f 94 93 101
f 94 103 95
f 97 104 96
f 106 105 104
f 105 96 104
f 105 99 96
f 99 107 100
f 99 105 107
f 107 20 13
f 107 13 100
f 24 108 101
f 24 101 18
f 102 101 109
f 109 101 108
f 105 106 110
f 110 106 111
f 105 112 107
f 105 110 112
f 113 25 20
f 107 113 20
f 112 113 107
f 113 27 25
f 29 114 30
f 108 24 30
f 114 108 30
f 115 108 114
f 109 108 116
f 116 108 115
f 119 118 117
f 119 117 111
f 117 110 111
f 117 120 110
f 110 121 112
f 110 120 121
f 112 122 113
f 112 121 122
f 122 32 27
f 122 27 113
f 33 123 34
f 114 29 34
f 123 114 34
f 124 114 123
f 126 115 125
f 115 124 125
f 115 114 124
f 115 126 116
f 117 118 127
f 127 118 128
f 117 129 120
f 117 127 129
f 120 130 121
f 120 129 130
f 121 131 122
f 121 130 131
f 132 35 32
f 122 132 32
f 131 132 122
f 123 33 35
f 132 123 35
f 133 123 132
f 135 124 134
f 124 133 134
f 124 123 133
f 124 135 125
f 128 136 127
f 138 137 136
f 137 127 136
f 137 129 127
f 129 139 130
f 129 137 139
f 130 140 131
f 130 139 140
f 131 141 132
f 131 140 141
f 143 133 142
f 133 141 142
f 133 132 141
f 133 143 134
f 146 145 144
f 148 147 144
f 144 147 146
f 147 148 138
f 148 137 138
f 148 149 137
f 137 150 139
f 137 149 150
f 139 151 140
f 139 150 151
f 153 141 152
f 141 151 152
f 141 140 151
f 141 153 142
f 156 155 154
f 156 154 145
f 154 144 145
f 154 157 144
f 144 158 148
f 144 157 158
f 148 159 149
f 148 158 159
f 161 150 160
f 150 159 160
f 150 149 159
f 150 161 151
f 151 161 162
f 151 162 152
f 154 155 163
f 163 155 164
f 154 165 157
f 154 163 165
f 157 166 158
f 157 165 166
f 168 159 167
f 159 166 167
f 159 158 166
f 159 168 160
f 163 164 169
f 169 164 170
f 163 171 165
f 163 169 171
f 165 172 166
f 165 171 172
f 167 166 173
f 173 166 172
f 170 174 169
f 169 174 171
f 171 174 175
f 171 175 172
f 172 175 176
f 172 176 173
f 179 178 177
f 177 180 179
f 183 182 181
f 37 38 181
f 38 183 181
f 38 184 183
f 39 177 178
f 184 39 178
f 38 39 184
f 185 180 177
f 39 185 177
f 41 185 39
f 187 186 43
f 186 41 43
f 186 185 41
f 189 188 187
f 187 188 186
f 191 190 189
f 189 190 188
f 191 192 190
f 181 182 46
f 182 45 46
f 182 193 45
f 181 46 37
f 50 194 187
f 50 187 43
f 187 195 189
f 187 194 195
f 189 196 191
f 189 195 196
f 192 191 197
f 197 191 196
f 198 52 53
f 199 198 53
f 45 199 53
f 193 199 45
f 58 194 50
f 194 58 60
f 194 60 195
f 195 60 62
f 200 195 62
f 196 195 200
f 197 196 201
f 201 196 200
f 202 64 65
f 203 202 65
f 203 65 52
f 204 203 52
f 198 204 52
f 204 198 199
f 206 205 72
f 206 72 71
f 72 207 73
f 205 207 72
f 62 73 200
f 73 208 200
f 73 207 208
f 200 208 201
f 211 210 209
f 75 76 209
f 76 211 209
f 76 212 211
f 213 76 77
f 213 212 76
f 214 77 79
f 214 213 77
f 215 79 81
f 215 214 79
f 81 64 202
f 216 81 202
f 215 81 216
f 216 202 203
f 218 217 87
f 218 87 86
f 87 219 88
f 217 219 87
f 71 88 206
f 206 88 219
f 222 221 220
f 222 220 210
f 220 209 210
f 220 223 209
f 223 90 75
f 223 75 209
f 95 218 86
f 95 224 218
f 220 221 225
f 225 221 226
f 225 97 98
f 223 225 98
f 220 225 223
f 223 98 90
f 228 227 103
f 228 103 102
f 95 103 224
f 224 103 227
f 226 229 225
f 229 231 230
f 229 230 104
f 225 229 104
f 97 225 104
f 230 106 104
f 109 228 102
f 109 232 228
f 230 231 233
f 233 231 234
f 233 111 106
f 233 106 230
f 116 232 109
f 116 235 232
f 238 237 236
f 238 236 234
f 234 236 233
f 236 118 233
f 118 119 233
f 233 119 111
f 125 239 126
f 235 116 240
f 116 239 240
f 239 241 240
f 116 126 239
f 241 242 240
f 236 237 243
f 243 237 244
f 243 128 118
f 243 118 236
f 134 245 135
f 239 125 135
f 245 239 135
f 246 239 245
f 239 247 241
f 239 246 247
f 242 241 248
f 248 241 247
f 243 244 249
f 249 244 250
f 251 136 128
f 243 251 128
f 249 251 243
f 251 138 136
f 142 252 143
f 245 134 143
f 252 245 143
f 253 245 252
f 245 254 246
f 245 253 254
f 256 247 255
f 247 254 255
f 247 246 254
f 247 256 248
f 259 258 257
f 259 257 250
f 250 257 249
f 257 145 249
f 145 146 249
f 249 146 147
f 249 147 251
f 251 147 138
f 152 260 153
f 252 142 153
f 260 252 153
f 261 252 260
f 252 262 253
f 252 261 262
f 264 254 263
f 254 262 263
f 254 253 262
f 254 264 255
f 267 266 265
f 267 265 258
f 258 265 257
f 265 155 257
f 155 156 257
f 257 156 145
f 160 268 161
f 269 162 161
f 269 161 268
f 260 152 162
f 269 260 162
f 270 260 269
f 260 271 261
f 260 270 271
f 273 262 272
f 262 271 272
f 262 261 271
f 262 273 263
f 265 266 274
f 274 266 275
f 274 164 155
f 274 155 265
f 167 276 168
f 268 160 168
f 276 268 168
f 277 268 276
f 268 278 269
f 268 277 278
f 269 279 270
f 269 278 279
f 281 271 280
f 271 279 280
f 271 270 279
f 271 281 272
f 274 275 282
f 282 275 283
f 282 170 164
f 282 164 274
f 173 284 276
f 173 276 167
f 276 285 277
f 276 284 285
f 287 278 286
f 278 285 286
f 278 277 285
f 278 287 279
f 279 287 288
f 279 288 280
f 282 283 289
f 289 283 290
f 291 174 170
f 282 291 170
f 289 291 282
f 292 175 174
f 292 174 291
f 293 176 175
f 293 175 292
f 284 173 176
f 293 284 176
f 294 284 293
f 284 295 285
f 284 294 295
f 286 285 296
f 296 285 295
f 290 297 289
f 289 297 291
f 291 297 298
f 291 298 292
f 292 298 299
f 292 299 293
f 293 299 300
f 293 300 294
f 294 300 301
f 294 301 295
f 295 301 302
f 295 302 296
f 304 303 179
f 179 303 178
f 306 305 180
f 305 179 180
f 305 304 179
f 308 307 306
f 306 307 305
f 310 309 308
f 308 309 307
f 312 311 310
f 310 311 309
f 312 313 311
f 314 182 183
f 184 315 183
f 183 315 314
f 316 315 184
f 178 316 184
f 303 316 178
f 318 185 317
f 318 180 185
f 306 180 318
f 306 318 319
f 186 317 185
f 317 186 320
f 308 320 186
f 320 308 319
f 306 319 308
f 308 186 188
f 308 188 310
f 310 188 190
f 310 190 312
f 190 192 312
f 192 313 312
f 192 321 313
f 322 193 314
f 314 193 182
f 323 314 315
f 322 314 323
f 315 316 324
f 325 315 324
f 323 315 325
f 325 324 318
f 317 325 318
f 326 325 317
f 317 320 327
f 317 327 326
f 330 329 328
f 329 321 328
f 321 197 328
f 321 192 197
f 331 199 322
f 322 199 193
f 332 322 323
f 331 322 332
f 325 334 333
f 332 325 333
f 323 325 332
f 334 325 326
f 334 326 335
f 335 326 327
f 338 337 336
f 336 337 330
f 328 336 330
f 339 336 328
f 201 339 197
f 197 339 328
f 341 340 204
f 204 340 203
f 341 204 199
f 342 341 199
f 331 342 199
f 341 342 343
f 332 345 344
f 342 332 344
f 331 332 342
f 345 332 333
f 347 346 205
f 347 205 206
f 336 207 338
f 207 346 338
f 207 205 346
f 207 336 208
f 208 336 339
f 208 339 201
f 349 348 211
f 211 348 210
f 350 211 212
f 350 349 211
f 352 350 351
f 350 213 351
f 350 212 213
f 214 353 213
f 213 353 351
f 353 214 354
f 214 355 354
f 214 215 355
f 356 215 216
f 356 355 215
f 216 203 340
f 216 340 356
f 357 343 342
f 357 342 344
f 218 358 217
f 359 219 217
f 359 217 358
f 359 360 219
f 360 206 219
f 360 347 206
f 362 361 222
f 222 361 221
f 222 210 348
f 222 348 362
f 363 352 351
f 363 351 353
f 363 353 364
f 364 353 354
f 224 365 358
f 224 358 218
f 367 359 366
f 359 365 366
f 359 358 365
f 359 367 360
f 361 226 221
f 368 226 361
f 228 369 227
f 365 224 227
f 369 365 227
f 370 365 369
f 366 365 371
f 371 365 370
f 229 226 372
f 226 373 372
f 226 368 373
f 372 231 229
f 232 374 369
f 232 369 228
f 376 370 375
f 370 374 375
f 370 369 374
f 370 376 371
f 372 373 377
f 377 373 378
f 377 234 231
f 377 231 372
f 235 379 374
f 235 374 232
f 375 374 380
f 380 374 379
f 377 378 238
f 378 237 238
f 378 381 237
f 377 238 234
f 240 379 235
f 240 242 379
f 242 380 379
f 242 382 380
f 385 384 383
f 381 385 383
f 244 381 383
f 237 381 244
f 248 382 242
f 248 386 382
f 389 388 387
f 389 387 384
f 387 383 384
f 387 390 383
f 390 250 244
f 390 244 383
f 255 391 256
f 391 392 256
f 392 248 256
f 392 386 248
f 395 394 393
f 395 393 388
f 393 387 388
f 393 396 387
f 396 258 259
f 390 396 259
f 387 396 390
f 390 259 250
f 263 397 264
f 391 255 264
f 397 391 264
f 398 391 397
f 392 391 399
f 399 391 398
f 393 394 400
f 400 394 401
f 400 266 267
f 396 400 267
f 393 400 396
f 396 267 258
f 272 402 273
f 397 263 273
f 402 397 273
f 403 397 402
f 405 398 404
f 398 403 404
f 398 397 403
f 398 405 399
f 408 407 406
f 408 406 401
f 406 400 401
f 406 409 400
f 409 275 266
f 409 266 400
f 280 410 281
f 402 272 281
f 410 402 281
f 411 402 410
f 413 403 412
f 403 411 412
f 403 402 411
f 403 413 404
f 406 407 414
f 414 407 415
f 406 416 409
f 406 414 416
f 416 283 275
f 416 275 409
f 286 417 287
f 418 288 287
f 418 287 417
f 410 280 288
f 418 410 288
f 419 410 418
f 421 411 420
f 411 419 420
f 411 410 419
f 411 421 412
f 415 422 414
f 424 423 422
f 423 414 422
f 423 416 414
f 423 290 283
f 423 283 416
f 296 425 417
f 296 417 286
f 427 418 426
f 418 425 426
f 418 417 425
f 418 427 419
f 419 427 428
f 419 428 420
f 424 429 423
f 429 431 430
f 429 430 297
f 423 429 297
f 290 423 297
f 432 298 297
f 432 297 430
f 433 299 298
f 433 298 432
f 434 300 299
f 434 299 433
f 300 434 435
f 436 300 435
f 301 300 436
f 301 437 302
f 436 437 301
f 296 302 425
f 302 438 425
f 302 437 438
f 425 438 426
f 431 439 430
f 430 439 432
f 432 439 440
f 432 440 433
f 433 440 441
f 433 441 434
f 434 441 442
f 434 442 435
f 443 303 304
f 305 444 304
f 304 444 443
f 307 445 305
f 305 445 444
f 309 446 307
f 307 446 445
f 311 447 309
f 309 447 446
f 313 447 311
f 448 316 443
f 443 316 303
f 318 448 319
f 448 444 319
f 448 443 444
f 319 444 320
f 444 449 320
f 444 445 449
f 450 445 446
f 449 445 450
f 451 446 447
f 450 446 451
f 321 451 313
f 313 451 447
f 448 324 316
f 324 448 318
f 452 327 449
f 449 327 320
f 453 449 450
f 452 449 453
f 330 453 329
f 453 451 329
f 453 450 451
f 329 451 321
f 454 333 334
f 335 455 334
f 334 455 454
f 327 452 335
f 452 455 335
f 452 456 455
f 338 456 337
f 456 453 337
f 456 452 453
f 337 453 330
f 457 340 341
f 343 457 341
f 458 344 345
f 333 454 345
f 454 458 345
f 454 459 458
f 460 454 455
f 459 454 460
f 347 460 346
f 460 456 346
f 460 455 456
f 346 456 338
f 461 348 349
f 350 462 349
f 349 462 461
f 352 462 350
f 464 463 355
f 355 463 354
f 465 355 356
f 465 464 355
f 356 340 457
f 466 356 457
f 465 356 466
f 466 457 343
f 357 466 343
f 467 466 357
f 357 344 458
f 468 357 458
f 467 357 468
f 470 469 468
f 458 470 468
f 459 470 458
f 471 459 460
f 470 459 471
f 360 471 347
f 347 471 460
f 473 472 362
f 362 472 361
f 362 348 461
f 474 362 461
f 473 362 474
f 474 461 462
f 474 462 475
f 475 462 352
f 363 475 352
f 476 475 363
f 477 363 364
f 477 476 363
f 364 354 463
f 364 463 477
f 469 470 478
f 469 478 479
f 366 478 367
f 478 471 367
f 478 470 471
f 367 471 360
f 472 368 361
f 480 368 472
f 483 482 481
f 481 482 479
f 478 481 479
f 484 481 478
f 371 484 366
f 366 484 478
f 480 373 368
f 485 373 480
f 486 483 481
f 375 487 376
f 487 481 376
f 481 484 376
f 487 486 481
f 376 484 371
f 485 378 373
f 488 378 485
f 491 490 489
f 490 487 489
f 487 380 489
f 487 375 380
f 494 493 492
f 488 494 492
f 381 488 492
f 378 488 381
f 491 489 495
f 491 495 496
f 382 495 380
f 380 495 489
f 499 498 497
f 499 497 493
f 493 497 492
f 497 384 492
f 384 385 492
f 492 385 381
f 500 496 495
f 495 382 500
f 382 501 500
f 382 386 501
f 497 498 389
f 498 388 389
f 498 502 388
f 497 389 384
f 392 501 386
f 392 503 501
f 505 504 395
f 395 504 394
f 395 388 502
f 395 502 505
f 399 503 392
f 399 506 503
f 509 508 507
f 504 509 507
f 401 504 507
f 394 504 401
f 404 510 405
f 510 511 405
f 511 399 405
f 511 506 399
f 507 508 408
f 508 407 408
f 508 512 407
f 507 408 401
f 412 513 413
f 513 514 413
f 413 514 404
f 514 515 404
f 515 510 404
f 510 515 511
f 512 415 407
f 516 415 512
f 519 518 517
f 421 420 517
f 518 421 517
f 520 421 518
f 412 421 513
f 421 521 513
f 421 520 521
f 513 521 514
f 422 415 522
f 415 523 522
f 415 516 523
f 522 424 422
f 525 524 427
f 525 427 426
f 517 428 519
f 428 524 519
f 428 427 524
f 428 517 420
f 523 526 522
f 526 528 527
f 526 527 429
f 522 526 429
f 424 522 429
f 527 431 429
f 435 529 436
f 530 437 436
f 530 436 529
f 437 530 531
f 532 437 531
f 438 437 532
f 426 438 525
f 525 438 532
f 528 533 527
f 527 533 431
f 533 439 431
f 533 534 439
f 439 535 440
f 534 535 439
f 440 536 441
f 535 536 440
f 441 537 442
f 536 537 441
f 435 442 529
f 442 538 529
f 442 537 538
f 529 538 530
f 530 538 539
f 530 539 531
f 541 540 464
f 464 540 463
f 542 464 465
f 542 541 464
f 543 465 466
f 543 542 465
f 544 466 467
f 544 543 466
f 545 467 468
f 545 544 467
f 468 469 545
f 545 469 546
f 548 547 473
f 473 547 472
f 549 473 474
f 549 548 473
f 550 474 475
f 550 549 474
f 551 475 476
f 551 550 475
f 552 476 477
f 552 551 476
f 477 463 540
f 477 540 552
f 479 546 469
f 479 553 546
f 555 480 554
f 480 547 554
f 480 472 547
f 556 555 554
f 558 557 482
f 558 482 483
f 479 482 553
f 553 482 557
f 559 485 555
f 555 485 480
f 555 556 560
f 555 560 559
f 561 558 483
f 561 483 486
f 486 487 561
f 561 487 562
f 564 563 559
f 563 485 559
f 563 488 485
f 564 559 560
f 491 565 490
f 562 487 566
f 487 565 566
f 565 567 566
f 487 490 565
f 567 568 566
f 570 569 494
f 494 569 493
f 494 488 563
f 494 563 570
f 496 571 565
f 496 565 491
f 565 572 567
f 565 571 572
f 568 567 573
f 573 567 572
f 575 574 499
f 499 574 498
f 499 493 569
f 499 569 575
f 500 571 496
f 571 500 501
f 576 571 501
f 572 571 576
f 573 572 577
f 572 578 577
f 572 576 578
f 578 579 577
f 574 502 498
f 580 502 574
f 503 581 576
f 503 576 501
f 576 582 578
f 576 581 582
f 579 578 583
f 583 578 582
f 585 584 505
f 505 584 504
f 505 502 580
f 505 580 585
f 506 586 581
f 506 581 503
f 588 582 587
f 582 586 587
f 582 581 586
f 582 588 583
f 590 589 509
f 509 589 508
f 509 504 584
f 509 584 590
f 592 591 586
f 506 592 586
f 511 592 506
f 586 591 587
f 589 512 508
f 593 512 589
f 595 594 515
f 595 515 514
f 511 515 592
f 592 515 594
f 593 516 512
f 596 516 593
f 519 597 518
f 518 597 598
f 599 518 598
f 520 518 599
f 520 600 521
f 599 600 520
f 514 521 595
f 595 521 600
f 596 523 516
f 601 523 596
f 525 602 524
f 597 519 524
f 602 597 524
f 603 597 602
f 598 597 604
f 604 597 603
f 601 605 523
f 523 605 526
f 528 526 605
f 528 605 606
f 531 607 532
f 602 525 532
f 607 602 532
f 608 602 607
f 610 603 609
f 603 608 609
f 603 602 608
f 603 610 604
f 606 611 528
f 528 611 533
f 533 612 534
f 611 612 533
f 534 613 535
f 612 613 534
f 535 614 536
f 613 614 535
f 536 615 537
f 614 615 536
f 537 616 538
f 615 616 537
f 538 617 539
f 616 617 538
f 531 539 607
f 539 618 607
f 539 617 618
f 607 618 608
f 608 618 619
f 608 619 609
f 620 540 541
f 620 541 621
f 541 622 621
f 541 542 622
f 623 542 543
f 623 622 542
f 624 543 544
f 624 623 543
f 625 544 545
f 625 624 544
f 545 546 625
f 625 546 626
f 627 547 548
f 627 548 628
f 548 629 628
f 548 549 629
f 630 549 550
f 630 629 549
f 631 550 551
f 631 630 550
f 632 551 552
f 632 631 551
f 552 540 620
f 633 552 620
f 632 552 633
f 633 620 621
f 636 635 634
f 635 626 634
f 626 553 634
f 626 546 553
f 627 554 547
f 556 554 627
f 628 556 627
f 637 556 628
f 636 634 557
f 558 636 557
f 638 636 558
f 557 634 553
f 637 560 556
f 639 560 637
f 640 638 558
f 640 558 561
f 642 641 562
f 641 561 562
f 641 640 561
f 642 643 641
f 645 644 564
f 564 644 563
f 564 560 639
f 564 639 645
f 566 642 562
f 566 568 642
f 568 643 642
f 568 646 643
f 648 647 570
f 570 647 569
f 570 563 644
f 570 644 648
f 573 650 649
f 646 573 649
f 568 573 646
f 650 651 649
f 653 652 575
f 575 652 574
f 575 569 647
f 575 647 653
f 577 650 573
f 577 579 650
f 579 651 650
f 579 654 651
f 652 580 574
f 655 580 652
f 583 657 656
f 654 583 656
f 579 583 654
f 657 658 656
f 660 659 585
f 585 659 584
f 585 580 655
f 585 655 660
f 587 661 588
f 661 662 588
f 588 662 583
f 662 663 583
f 663 657 583
f 657 663 658
f 665 664 590
f 590 664 589
f 590 584 659
f 590 659 665
f 592 666 591
f 661 587 591
f 666 661 591
f 667 661 666
f 662 661 668
f 668 661 667
f 664 593 589
f 669 593 664
f 595 670 594
f 670 671 594
f 594 671 592
f 671 672 592
f 672 666 592
f 666 672 667
f 667 672 673
f 667 673 668
f 669 596 593
f 674 596 669
f 598 675 599
f 676 600 599
f 676 599 675
f 676 677 600
f 600 677 595
f 677 678 595
f 678 670 595
f 670 678 671
f 674 601 596
f 679 601 674
f 681 680 675
f 598 681 675
f 604 681 598
f 675 680 676
f 676 680 682
f 676 682 677
f 679 683 601
f 601 683 605
f 606 605 683
f 606 683 684
f 687 686 685
f 689 688 685
f 689 685 686
f 691 690 688
f 691 688 689
f 692 690 691
f 609 693 610
f 693 694 610
f 694 604 610
f 694 681 604
f 684 695 606
f 606 695 611
f 611 696 612
f 695 696 611
f 685 613 687
f 613 696 687
f 613 612 696
f 613 685 614
f 614 685 688
f 614 688 615
f 615 688 690
f 692 697 690
f 697 615 690
f 697 616 615
f 697 699 698
f 617 697 698
f 616 697 617
f 700 618 617
f 700 617 698
f 701 619 618
f 701 618 700
f 701 702 619
f 619 702 609
f 702 703 609
f 703 693 609
f 693 703 694
f 699 704 698
f 698 704 700
f 700 704 705
f 700 705 701
f 701 705 706
f 701 706 702
f 707 621 622
f 707 622 708
f 622 709 708
f 622 623 709
f 710 623 624
f 710 709 623
f 711 624 625
f 711 710 624
f 625 626 711
f 711 626 712
f 713 628 629
f 713 629 714
f 629 715 714
f 629 630 715
f 716 630 631
f 716 715 630
f 717 631 632
f 717 716 631
f 718 632 633
f 718 717 632
f 633 621 707
f 719 633 707
f 718 633 719
f 719 707 708
f 722 721 720
f 635 636 720
f 721 635 720
f 723 635 721
f 626 635 712
f 712 635 723
f 725 724 713
f 724 628 713
f 724 637 628
f 725 713 714
f 722 720 726
f 722 726 727
f 638 726 636
f 636 726 720
f 729 639 728
f 639 724 728
f 639 637 724
f 730 729 728
f 727 726 731
f 727 731 732
f 640 733 638
f 733 726 638
f 733 731 726
f 641 734 640
f 640 734 733
f 643 734 641
f 735 644 645
f 736 735 645
f 736 645 639
f 737 736 639
f 729 737 639
f 737 729 730
f 738 732 731
f 738 731 733
f 738 733 739
f 739 733 734
f 739 734 740
f 643 646 734
f 646 741 734
f 741 740 734
f 741 646 742
f 742 743 741
f 745 744 648
f 648 744 647
f 648 644 735
f 746 648 735
f 745 648 746
f 746 735 736
f 649 742 646
f 649 651 742
f 651 743 742
f 651 747 743
f 748 652 653
f 749 748 653
f 647 749 653
f 744 749 647
f 654 751 750
f 747 654 750
f 651 654 747
f 751 752 750
f 754 753 748
f 753 652 748
f 753 655 652
f 754 748 749
f 656 751 654
f 656 658 751
f 658 752 751
f 658 755 752
f 757 756 660
f 660 756 659
f 660 655 753
f 660 753 757
f 662 758 663
f 758 759 663
f 759 658 663
f 759 755 658
f 760 664 665
f 761 760 665
f 659 761 665
f 756 761 659
f 668 762 758
f 668 758 662
f 759 758 763
f 763 758 762
f 764 669 760
f 760 669 664
f 760 761 765
f 760 765 764
f 671 766 672
f 672 766 767
f 768 672 767
f 673 672 768
f 668 673 762
f 673 769 762
f 673 768 769
f 762 769 763
f 770 674 764
f 764 674 669
f 764 765 771
f 764 771 770
f 677 772 678
f 772 773 678
f 678 773 671
f 773 774 671
f 774 766 671
f 766 774 767
f 775 679 770
f 770 679 674
f 770 771 776
f 770 776 775
f 681 777 680
f 680 777 778
f 779 680 778
f 682 680 779
f 677 682 772
f 682 780 772
f 682 779 780
f 772 780 773
f 775 683 679
f 684 683 775
f 776 684 775
f 781 684 776
f 783 782 686
f 783 686 687
f 686 784 689
f 782 784 686
f 689 785 691
f 784 785 689
f 787 786 692
f 691 787 692
f 785 787 691
f 788 786 787
f 790 789 777
f 681 790 777
f 694 790 681
f 777 789 778
f 781 791 684
f 684 791 695
f 695 792 696
f 791 792 695
f 687 696 783
f 783 696 792
f 786 697 692
f 794 793 699
f 794 699 697
f 788 794 697
f 786 788 697
f 795 793 794
f 797 796 703
f 797 703 702
f 694 703 790
f 790 703 796
f 793 704 699
f 795 798 793
f 798 704 793
f 798 705 704
f 705 799 706
f 798 799 705
f 702 706 797
f 797 706 799
f 801 800 709
f 709 800 708
f 802 709 710
f 802 801 709
f 803 710 711
f 803 802 710
f 711 712 803
f 803 712 804
f 805 714 715
f 716 806 715
f 715 806 805
f 717 807 716
f 716 807 806
f 807 717 808
f 717 809 808
f 717 718 809
f 810 718 719
f 810 809 718
f 719 708 800
f 719 800 810
f 812 811 721
f 812 721 722
f 721 813 723
f 811 813 721
f 712 723 804
f 804 723 813
f 814 724 725
f 714 805 725
f 805 814 725
f 805 815 814
f 816 805 806
f 815 805 816
f 807 818 817
f 816 807 817
f 806 807 816
f 818 807 808
f 727 812 722
f 727 819 812
f 814 728 724
f 728 814 730
f 814 820 730
f 814 815 820
f 816 822 821
f 820 816 821
f 815 816 820
f 822 816 817
f 825 824 823
f 824 819 823
f 819 732 823
f 819 727 732
f 827 826 737
f 737 826 736
f 737 730 820
f 828 737 820
f 827 737 828
f 828 820 821
f 829 825 823
f 829 823 732
f 738 829 732
f 830 829 738
f 832 830 831
f 830 739 831
f 830 738 739
f 740 833 739
f 739 833 831
f 741 834 740
f 740 834 833
f 743 834 741
f 835 744 745
f 835 745 836
f 745 837 836
f 745 746 837
f 746 736 826
f 746 826 837
f 832 831 838
f 832 838 839
f 840 831 833
f 838 831 840
f 841 833 834
f 840 833 841
f 747 841 743
f 743 841 834
f 843 842 835
f 842 744 835
f 842 749 744
f 843 835 836
f 839 838 844
f 839 844 845
f 846 838 840
f 844 838 846
f 847 840 841
f 846 840 847
f 750 848 747
f 848 841 747
f 848 847 841
f 752 848 750
f 849 753 754
f 850 849 754
f 749 850 754
f 842 850 749
f 851 845 844
f 851 844 846
f 851 846 852
f 852 846 847
f 852 847 853
f 855 854 853
f 847 855 853
f 848 855 847
f 755 855 752
f 752 855 848
f 856 756 757
f 857 856 757
f 857 757 753
f 858 857 753
f 849 858 753
f 858 849 850
f 859 854 855
f 855 755 859
f 755 860 859
f 755 759 860
f 862 861 856
f 861 756 856
f 861 761 756
f 862 856 857
f 763 860 759
f 763 863 860
f 861 765 761
f 864 765 861
f 767 865 768
f 768 865 866
f 867 768 866
f 769 768 867
f 763 769 863
f 863 769 867
f 864 771 765
f 868 771 864
f 773 869 774
f 869 870 774
f 774 870 767
f 870 871 767
f 871 865 767
f 865 871 866
f 873 776 872
f 776 868 872
f 776 771 868
f 874 873 872
f 877 876 875
f 878 875 876
f 778 879 779
f 880 780 779
f 880 779 879
f 880 881 780
f 780 881 773
f 881 882 773
f 882 869 773
f 869 882 870
f 883 781 873
f 873 781 776
f 873 874 884
f 873 884 883
f 886 885 782
f 886 782 783
f 782 887 784
f 885 887 782
f 784 888 785
f 887 888 784
f 875 787 877
f 787 888 877
f 787 785 888
f 890 889 788
f 890 788 787
f 878 890 787
f 875 878 787
f 891 889 890
f 893 892 789
f 893 789 790
f 778 789 879
f 789 894 879
f 789 892 894
f 879 894 880
f 880 894 895
f 880 895 881
f 883 791 781
f 884 896 883
f 896 791 883
f 896 792 791
f 783 792 886
f 886 792 896
f 889 794 788
f 898 897 795
f 898 795 794
f 891 898 794
f 889 891 794
f 900 899 897
f 900 897 898
f 796 797 899
f 900 796 899
f 901 796 900
f 790 796 893
f 893 796 901
f 897 798 795
f 798 897 799
f 799 897 899
f 799 899 797
f 903 902 801
f 801 902 800
f 904 801 802
f 904 903 801
f 905 802 803
f 905 904 802
f 803 804 905
f 905 804 906
f 907 808 809
f 907 809 908
f 809 909 908
f 809 810 909
f 810 800 902
f 810 902 909
f 911 910 811
f 911 811 812
f 811 912 813
f 910 912 811
f 804 813 906
f 906 813 912
f 913 817 818
f 914 913 818
f 914 818 808
f 915 914 808
f 907 915 808
f 915 907 908
f 819 911 812
f 819 916 911
f 917 821 822
f 918 917 822
f 918 822 817
f 919 918 817
f 913 919 817
f 919 913 914
f 825 920 824
f 920 921 824
f 921 819 824
f 921 916 819
f 922 826 827
f 922 827 923
f 827 924 923
f 827 828 924
f 828 821 917
f 925 828 917
f 924 828 925
f 925 917 918
f 920 825 829
f 928 927 926
f 830 920 829
f 920 830 921
f 929 921 830
f 921 929 928
f 927 928 929
f 832 929 830
f 930 836 837
f 826 922 837
f 922 930 837
f 922 931 930
f 922 923 932
f 922 932 931
f 933 926 927
f 935 934 933
f 927 935 933
f 929 935 927
f 839 935 832
f 832 935 929
f 936 842 843
f 836 930 843
f 930 936 843
f 930 937 936
f 931 939 938
f 937 931 938
f 930 931 937
f 939 931 932
f 940 934 935
f 935 839 940
f 839 941 940
f 839 845 941
f 942 850 936
f 936 850 842
f 937 944 943
f 942 937 943
f 936 937 942
f 944 937 938
f 945 941 845
f 945 845 851
f 947 945 946
f 945 852 946
f 945 851 852
f 853 948 852
f 852 948 946
f 854 948 853
f 949 857 858
f 950 949 858
f 950 858 850
f 951 950 850
f 942 951 850
f 951 942 943
f 952 947 946
f 954 953 952
f 946 954 952
f 948 954 946
f 859 955 854
f 955 948 854
f 955 954 948
f 860 955 859
f 956 861 862
f 857 949 862
f 949 956 862
f 949 957 956
f 949 950 958
f 949 958 957
f 959 953 954
f 961 960 959
f 954 961 959
f 955 961 954
f 863 961 860
f 860 961 955
f 962 864 956
f 956 864 861
f 963 956 957
f 962 956 963
f 957 958 964
f 965 957 964
f 963 957 965
f 966 965 964
f 969 968 967
f 967 968 960
f 967 960 961
f 866 967 961
f 867 866 961
f 867 961 863
f 970 868 962
f 962 868 864
f 971 962 963
f 970 962 971
f 965 973 972
f 971 965 972
f 963 965 971
f 973 965 966
f 976 975 974
f 977 974 975
f 980 979 978
f 982 981 978
f 982 978 979
f 984 983 981
f 984 981 982
f 983 984 969
f 983 969 967
f 870 983 967
f 871 870 967
f 871 967 866
f 970 872 868
f 872 970 874
f 970 985 874
f 970 971 985
f 971 972 986
f 987 971 986
f 985 971 987
f 989 988 987
f 989 987 986
f 991 990 988
f 991 988 989
f 990 991 976
f 990 976 974
f 877 990 974
f 876 877 974
f 993 992 878
f 993 878 876
f 977 993 876
f 974 977 876
f 995 994 992
f 995 992 993
f 997 996 994
f 997 994 995
f 998 996 997
f 1001 1000 999
f 999 1000 980
f 978 999 980
f 1002 999 978
f 1003 978 981
f 1002 978 1003
f 881 1003 882
f 1003 983 882
f 1003 981 983
f 882 983 870
f 1004 884 985
f 985 884 874
f 886 1004 885
f 1004 987 885
f 1004 985 987
f 885 987 887
f 887 987 988
f 887 988 888
f 888 988 990
f 888 990 877
f 992 890 878
f 890 992 891
f 992 1005 891
f 992 994 1005
f 1006 994 996
f 1005 994 1006
f 996 998 1007
f 1008 996 1007
f 1006 996 1008
f 1008 1007 1001
f 1008 1001 999
f 893 1008 999
f 892 893 999
f 892 999 894
f 894 999 1002
f 894 1002 895
f 895 1002 1003
f 895 1003 881
f 1004 896 884
f 896 1004 886
f 1005 898 891
f 898 1005 900
f 900 1005 1006
f 900 1006 901
f 901 1006 1008
f 901 1008 893
f 1011 1010 1009
f 902 903 1009
f 903 1011 1009
f 903 1012 1011
f 1013 903 904
f 1013 1012 903
f 1014 904 905
f 1014 1013 904
f 905 906 1014
f 1014 906 1015
f 1009 1010 909
f 1010 908 909
f 1010 1016 908
f 1009 909 902
f 911 1017 910
f 910 1017 1018
f 1019 910 1018
f 912 910 1019
f 906 912 1015
f 1015 912 1019
f 1020 914 915
f 1021 1020 915
f 908 1021 915
f 1016 1021 908
f 916 1022 1017
f 916 1017 911
f 1018 1017 1023
f 1023 1017 1022
f 1024 918 919
f 1025 1024 919
f 1025 919 914
f 1026 1025 914
f 1020 1026 914
f 1026 1020 1021
f 921 1027 1022
f 921 1022 916
f 1023 1022 1028
f 1028 1022 1027
f 1029 923 924
f 1029 924 1030
f 924 1031 1030
f 924 925 1031
f 925 918 1024
f 1032 925 1024
f 1031 925 1032
f 1032 1024 1025
f 1035 1034 1033
f 928 926 1033
f 1034 928 1033
f 1036 928 1034
f 921 928 1027
f 928 1037 1027
f 928 1036 1037
f 1027 1037 1028
f 1039 1038 1029
f 1038 923 1029
f 1038 932 923
f 1039 1029 1030
f 1042 1041 1040
f 1040 1041 1035
f 1033 1040 1035
f 1043 1040 1033
f 933 1044 926
f 1044 1033 926
f 1044 1043 1033
f 934 1044 933
f 1046 1045 939
f 939 1045 938
f 939 932 1038
f 939 1038 1046
f 1042 1040 1047
f 1042 1047 1048
f 1049 1040 1043
f 1047 1040 1049
f 1050 1043 1044
f 1049 1043 1050
f 940 1051 934
f 1051 1044 934
f 1051 1050 1044
f 941 1051 940
f 1052 943 944
f 1053 1052 944
f 938 1053 944
f 1045 1053 938
f 1056 1055 1054
f 1054 1055 1048
f 1047 1054 1048
f 1057 1054 1047
f 1058 1047 1049
f 1057 1047 1058
f 1059 1049 1050
f 1058 1049 1059
f 1060 1050 1051
f 1059 1050 1060
f 945 1061 941
f 1061 1051 941
f 1061 1060 1051
f 947 1061 945
f 1062 950 951
f 943 1052 951
f 1052 1062 951
f 1052 1063 1062
f 1052 1053 1064
f 1052 1064 1063
f 1056 1054 1065
f 1056 1065 1066
f 1067 1054 1057
f 1065 1054 1067
f 1068 1057 1058
f 1067 1057 1068
f 1069 1058 1059
f 1068 1058 1069
f 1070 1059 1060
f 1069 1059 1070
f 1061 1072 1071
f 1070 1061 1071
f 1060 1061 1070
f 1074 1072 1073
f 1073 1072 952
f 1072 1061 952
f 1061 947 952
f 953 1073 952
f 1075 958 1062
f 1062 958 950
f 1076 1062 1063
f 1075 1062 1076
f 1063 1064 1077
f 1063 1077 1076
f 1066 1065 1078
f 1066 1078 1079
f 1080 1065 1067
f 1078 1065 1080
f 1068 1082 1081
f 1080 1068 1081
f 1067 1068 1080
f 1082 1068 1069
f 1082 1069 1083
f 1083 1069 1070
f 1083 1070 1084
f 1084 1070 1071
f 1074 1073 1085
f 1074 1085 1086
f 959 1087 953
f 1087 1073 953
f 1087 1085 1073
f 960 1087 959
f 1075 964 958
f 964 1075 966
f 1075 1088 966
f 1075 1076 1088
f 1076 1077 1089
f 1076 1089 1088
f 1090 1079 1078
f 1090 1078 1080
f 1090 1080 1091
f 1091 1080 1081
f 1086 1085 1092
f 1086 1092 1093
f 969 1092 968
f 1092 1087 968
f 1092 1085 1087
f 968 1087 960
f 1094 972 973
f 966 1088 973
f 1088 1094 973
f 1088 1095 1094
f 1088 1089 1096
f 1088 1096 1095
f 1098 1097 975
f 1098 975 976
f 1100 1099 977
f 975 1100 977
f 1097 1100 975
f 1102 1101 1099
f 1102 1099 1100
f 1104 1103 1101
f 1104 1101 1102
f 1105 1103 1104
f 1108 1107 1106
f 979 980 1106
f 1107 979 1106
f 1109 979 1107
f 979 1110 982
f 1109 1110 979
f 1092 984 1093
f 984 1110 1093
f 984 982 1110
f 984 1092 969
f 1094 986 972
f 986 1094 989
f 989 1094 1095
f 1096 1111 1095
f 1111 989 1095
f 1111 991 989
f 976 991 1098
f 1098 991 1111
f 1099 993 977
f 993 1099 995
f 995 1099 1101
f 995 1101 997
f 997 1101 1103
f 1113 1112 998
f 1113 998 997
f 1105 1113 997
f 1103 1105 997
f 1112 1113 1108
f 1112 1108 1106
f 1001 1112 1106
f 1000 1001 1106
f 1000 1106 980
f 1112 1007 998
f 1007 1112 1001
f 1115 1114 1011
f 1011 1114 1010
f 1116 1011 1012
f 1116 1115 1011
f 1117 1012 1013
f 1117 1116 1012
f 1118 1013 1014
f 1118 1117 1013
f 1014 1015 1118
f 1118 1015 1119
f 1114 1016 1010
f 1120 1016 1114
f 1122 1121 1019
f 1122 1019 1018
f 1015 1019 1119
f 1119 1019 1121
f 1120 1021 1016
f 1123 1021 1120
f 1023 1122 1018
f 1023 1124 1122
f 1125 1025 1026
f 1126 1125 1026
f 1021 1126 1026
f 1123 1126 1021
f 1028 1124 1023
f 1028 1127 1124
f 1128 1030 1031
f 1032 1129 1031
f 1031 1129 1128
f 1130 1129 1032
f 1130 1032 1025
f 1131 1130 1025
f 1125 1131 1025
f 1132 1131 1035
f 1131 1132 1126
f 1034 1126 1132
f 1126 1034 1125
f 1035 1125 1034
f 1125 1035 1131
f 1034 1132 1133
f 1134 1034 1133
f 1036 1034 1134
f 1036 1135 1037
f 1134 1135 1036
f 1028 1037 1127
f 1127 1037 1135
f 1136 1038 1039
f 1137 1136 1039
f 1137 1039 1030
f 1138 1137 1030
f 1128 1138 1030
f 1138 1128 1129
f 1138 1129 1139
f 1140 1139 1042
f 1129 1042 1139
f 1042 1129 1041
f 1130 1041 1129
f 1041 1130 1141
f 1035 1041 1132
f 1041 1142 1132
f 1041 1141 1142
f 1132 1142 1133
f 1143 1045 1046
f 1038 1136 1046
f 1136 1143 1046
f 1136 1144 1143
f 1136 1137 1145
f 1136 1145 1144
f 1048 1140 1042
f 1048 1146 1140
f 1147 1053 1143
f 1143 1053 1045
f 1144 1149 1148
f 1147 1144 1148
f 1143 1144 1147
f 1149 1144 1145
f 1151 1150 1055
f 1151 1055 1056
f 1048 1055 1146
f 1146 1055 1150
f 1152 1064 1147
f 1147 1064 1053
f 1147 1148 1153
f 1147 1153 1152
f 1066 1151 1056
f 1066 1154 1151
f 1155 1071 1072
f 1074 1155 1072
f 1156 1077 1152
f 1152 1077 1064
f 1152 1153 1157
f 1152 1157 1156
f 1079 1154 1066
f 1079 1158 1154
f 1159 1081 1082
f 1083 1160 1082
f 1082 1160 1159
f 1084 1161 1083
f 1083 1161 1160
f 1071 1155 1084
f 1155 1161 1084
f 1155 1162 1161
f 1086 1162 1074
f 1074 1162 1155
f 1163 1089 1156
f 1156 1089 1077
f 1156 1157 1164
f 1156 1164 1163
f 1079 1090 1165
f 1166 1079 1165
f 1158 1079 1166
f 1091 1167 1090
f 1090 1167 1165
f 1081 1159 1091
f 1159 1167 1091
f 1159 1168 1167
f 1169 1159 1160
f 1168 1159 1169
f 1170 1160 1161
f 1169 1160 1170
f 1171 1161 1162
f 1170 1161 1171
f 1093 1171 1086
f 1086 1171 1162
f 1172 1096 1163
f 1163 1096 1089
f 1173 1097 1098
f 1163 1173 1098
f 1172 1163 1098
f 1173 1163 1164
f 1097 1174 1100
f 1173 1174 1097
f 1165 1102 1166
f 1102 1174 1166
f 1102 1100 1174
f 1102 1165 1104
f 1104 1165 1167
f 1104 1167 1105
f 1167 1175 1105
f 1167 1168 1175
f 1108 1175 1107
f 1175 1169 1107
f 1175 1168 1169
f 1107 1169 1109
f 1109 1169 1170
f 1109 1170 1110
f 1110 1170 1171
f 1110 1171 1093
f 1172 1111 1096
f 1111 1172 1098
f 1175 1113 1105
f 1113 1175 1108
f 1176 1114 1115
f 1176 1115 1177
f 1115 1178 1177
f 1115 1116 1178
f 1179 1116 1117
f 1179 1178 1116
f 1180 1117 1118
f 1180 1179 1117
f 1118 1119 1180
f 1180 1119 1181
f 1182 1120 1176
f 1176 1120 1114
f 1176 1177 1183
f 1176 1183 1182
f 1122 1184 1121
f 1184 1185 1121
f 1185 1119 1121
f 1185 1181 1119
f 1186 1123 1182
f 1182 1123 1120
f 1182 1183 1187
f 1182 1187 1186
f 1190 1189 1188
f 1189 1191 1184
f 1124 1189 1184
f 1122 1124 1184
f 1188 1189 1124
f 1184 1191 1185
f 1192 1126 1186
f 1186 1126 1123
f 1186 1187 1193
f 1194 1186 1193
f 1192 1186 1194
f 1194 1193 1190
f 1188 1194 1190
f 1195 1194 1188
f 1127 1195 1124
f 1124 1195 1188
f 1196 1130 1131
f 1126 1192 1131
f 1192 1196 1131
f 1192 1197 1196
f 1133 1197 1134
f 1197 1194 1134
f 1197 1192 1194
f 1134 1194 1135
f 1135 1194 1195
f 1135 1195 1127
f 1198 1137 1138
f 1139 1199 1138
f 1138 1199 1198
f 1130 1196 1141
f 1199 1139 1140
f 1141 1196 1142
f 1142 1196 1197
f 1142 1197 1133
f 1201 1200 1198
f 1200 1137 1198
f 1200 1145 1137
f 1203 1202 1201
f 1198 1203 1201
f 1199 1203 1198
f 1146 1203 1140
f 1140 1203 1199
f 1204 1148 1149
f 1205 1204 1149
f 1145 1205 1149
f 1200 1205 1145
f 1202 1203 1150
f 1151 1202 1150
f 1206 1202 1151
f 1150 1203 1146
f 1207 1153 1204
f 1204 1153 1148
f 1204 1205 1208
f 1204 1208 1207
f 1154 1206 1151
f 1154 1209 1206
f 1211 1210 1207
f 1210 1153 1207
f 1210 1157 1153
f 1211 1207 1208
f 1158 1209 1154
f 1158 1212 1209
f 1214 1164 1213
f 1164 1210 1213
f 1164 1157 1210
f 1216 1215 1214
f 1216 1214 1213
f 1216 1212 1215
f 1212 1166 1215
f 1212 1158 1166
f 1214 1173 1164
f 1173 1214 1174
f 1174 1214 1215
f 1174 1215 1166
f 1217 1177 1178
f 1179 1218 1178
f 1178 1218 1217
f 1180 1219 1179
f 1179 1219 1218
f 1181 1219 1180
f 1220 1183 1217
f 1217 1183 1177
f 1221 1217 1218
f 1220 1217 1221
f 1222 1218 1219
f 1221 1218 1222
f 1185 1222 1181
f 1181 1222 1219
f 1223 1187 1220
f 1220 1187 1183
f 1190 1223 1189
f 1223 1221 1189
f 1223 1220 1221
f 1189 1221 1191
f 1191 1221 1222
f 1191 1222 1185
f 1223 1193 1187
f 1193 1223 1190
f 1224 1200 1201
f 1202 1224 1201
f 1225 1205 1224
f 1224 1205 1200
f 1206 1225 1202
f 1202 1225 1224
f 1226 1208 1225
f 1225 1208 1205
f 1209 1226 1206
f 1206 1226 1225
f 1227 1210 1211
f 1208 1226 1211
f 1226 1227 1211
f 1226 1228 1227
f 1212 1228 1209
f 1209 1228 1226
f 1227 1213 1210
f 1213 1227 1216
f 1216 1227 1228
f 1216 1228 1212
