v -27.7 -3.0 -15.0
v -27.0 -3.0 -15.4
v -27.0 -3.3 -15.0
v -27.0 -3.3 -14.0
v -27.3 -3.0 -14.0
v -27.0 -3.0 -13.7
v -27.7 -2.0 -16.0
v -27.0 -2.0 -16.3
v -27.0 -2.4 -16.0
v -27.6 -2.0 -15.0
v -27.3 -2.0 -14.0
v -27.0 -2.0 -13.6
v -27.4 -1.0 -16.0
v -27.0 -1.0 -16.5
v -27.3 -1.0 -15.0
v -27.0 -1.0 -14.5
v -27.0 -1.6 -14.0
v -27.0 0.0 -16.0
v -27.0 0.0 -16.0
v -27.0 0.0 -16.0
v -27.0 -0.6 -15.0
v -27.0 0.0 -16.0
v -26.2 -8.0 -12.0
v -26.0 -8.0 -12.4
v -26.0 -8.9 -12.0
v -26.0 -8.0 -11.8
v -26.3 -7.0 -13.0
v -26.0 -7.0 -13.4
v -26.0 -7.5 -13.0
v -26.3 -7.0 -12.0
v -26.0 -7.0 -11.7
v -26.4 -6.0 -13.0
v -26.0 -6.0 -13.6
v -26.3 -6.0 -12.0
v -26.0 -6.0 -11.7
v -26.2 -5.0 -14.0
v -26.0 -5.0 -14.3
v -26.0 -5.4 -14.0
v -26.5 -5.0 -13.0
v -26.3 -5.0 -12.0
v -26.0 -5.0 -11.7
v -26.5 -4.0 -14.0
v -26.0 -4.0 -14.6
v -26.5 -4.0 -13.0
v -26.2 -4.0 -12.0
v -26.0 -4.0 -11.8
v -26.0 -3.0 -15.6
v -26.0 -3.6 -15.0
v -26.5 -3.0 -13.0
v -26.0 -3.0 -12.4
v -26.0 -3.6 -12.0
v -26.0 -2.0 -16.5
v -26.0 -2.6 -16.0
v -26.5 -2.0 -13.0
v -26.0 -2.0 -12.5
v -26.1 -1.0 -17.0
v -26.0 -1.0 -17.1
v -26.0 -1.1 -17.0
v -26.6 -1.0 -14.0
v -26.4 -1.0 -13.0
v -26.0 -1.0 -12.6
v -26.0 -0.9 -17.0
v -26.0 -0.4 -16.0
v -27.0 0.0 -16.0
v -26.0 -0.0 -15.0
v -26.0 -0.3 -14.0
v -26.0 0.0 -13.0
v -26.0 0.0 -13.1
v -26.0 0.0 -13.0
v -26.0 0.0 -13.0
v -25.0 -10.0 -13.0
v -25.0 -10.0 -13.0
v -25.0 -10.0 -13.0
v -25.0 -10.0 -12.9
v -25.5 -9.0 -13.0
v -25.0 -9.0 -13.5
v -25.0 -9.6 -12.0
v -26.0 -9.0 -12.0
v -25.0 -9.0 -11.5
v -25.3 -8.0 -14.0
v -25.0 -8.0 -14.2
v -25.0 -8.4 -14.0
v -25.7 -8.0 -13.0
v -25.0 -8.0 -11.4
v -25.4 -7.0 -14.0
v -25.0 -7.0 -14.4
v -25.0 -7.0 -11.4
v -25.6 -6.0 -14.0
v -25.0 -6.0 -14.4
v -25.0 -6.0 -11.4
v -25.0 -5.0 -14.6
v -25.0 -5.0 -11.4
v -25.5 -4.0 -15.0
v -25.0 -4.0 -15.4
v -25.0 -4.4 -15.0
v -25.0 -4.0 -11.4
v -25.5 -3.0 -16.0
v -25.0 -3.0 -16.3
v -25.0 -3.3 -16.0
v -25.6 -3.0 -12.0
v -25.0 -3.0 -11.6
v -25.0 -2.0 -16.7
v -25.5 -2.0 -12.0
v -25.0 -2.0 -11.6
v -25.0 -1.0 -17.2
v -25.0 -1.3 -17.0
v -25.3 -1.0 -12.0
v -25.0 -1.0 -11.8
v -25.0 -0.8 -17.0
v -25.0 -0.6 -16.0
v -25.0 -0.4 -15.0
v -25.4 0.0 -14.0
v -25.0 0.0 -14.3
v -25.0 -0.7 -12.0
v -25.0 0.0 -12.6
v -25.0 0.2 -14.0
v -25.0 0.3 -13.0
v -24.2 -11.0 -12.0
v -24.0 -11.0 -12.3
v -24.0 -11.7 -12.0
v -24.0 -11.0 -11.7
v -24.0 -10.0 -13.4
v -24.0 -10.5 -13.0
v -24.7 -10.0 -12.0
v -24.0 -10.3 -11.0
v -24.2 -10.0 -11.0
v -24.0 -10.0 -10.8
v -24.4 -9.0 -14.0
v -24.0 -9.0 -14.2
v -24.0 -9.3 -14.0
v -24.5 -9.0 -11.0
v -24.0 -9.0 -10.6
v -24.0 -8.0 -14.4
v -24.5 -8.0 -11.0
v -24.0 -8.0 -10.6
v -24.0 -7.0 -14.4
v -24.5 -7.0 -11.0
v -24.0 -7.0 -10.6
v -24.0 -6.0 -14.5
v -24.5 -6.0 -11.0
v -24.0 -6.0 -10.6
v -24.0 -5.0 -14.6
v -24.5 -5.0 -11.0
v -24.0 -5.0 -10.6
v -24.0 -4.0 -15.5
v -24.0 -4.5 -15.0
v -24.3 -4.0 -11.0
v -24.0 -4.0 -10.8
v -24.0 -3.0 -16.5
v -24.0 -3.5 -16.0
v -24.0 -3.7 -11.0
v -24.0 -3.0 -11.4
v -24.4 -2.0 -17.0
v -24.0 -2.0 -17.2
v -24.0 -2.3 -17.0
v -24.0 -2.0 -11.5
v -24.0 -1.0 -17.2
v -24.0 -1.0 -16.4
v -24.2 -1.0 -16.0
v -24.0 -1.1 -16.0
v -24.0 -1.0 -15.7
v -24.0 -1.0 -11.7
v -24.0 -0.8 -17.0
v -24.0 -0.7 -15.0
v -24.6 0.0 -14.0
v -24.0 -0.3 -14.0
v -24.0 0.0 -13.5
v -24.0 -0.6 -12.0
v -24.0 0.0 -12.7
v -24.0 0.3 -13.0
v -23.1 -12.0 -10.0
v -23.0 -12.0 -10.2
v -23.0 -12.6 -10.0
v -23.0 -12.0 -9.9
v -23.0 -11.0 -12.5
v -23.0 -11.8 -12.0
v -23.0 -11.0 -11.5
v -23.0 -11.0 -10.0
v -23.0 -11.0 -10.1
v -23.0 -11.0 -10.0
v -23.0 -10.0 -13.5
v -23.0 -10.6 -13.0
v -23.0 -10.7 -11.0
v -23.0 -10.9 -10.0
v -23.0 -10.0 -10.3
v -23.0 -9.0 -14.1
v -23.0 -9.2 -14.0
v -23.0 -9.4 -10.0
v -23.2 -9.0 -10.0
v -23.0 -9.0 -9.8
v -23.0 -8.7 -14.0
v -23.4 -8.0 -14.0
v -23.0 -8.0 -13.7
v -23.0 -8.7 -10.0
v -23.0 -8.0 -10.3
v -23.3 -7.0 -14.0
v -23.0 -7.0 -13.8
v -23.0 -7.0 -10.4
v -23.0 -6.0 -14.4
v -23.0 -6.7 -14.0
v -23.0 -6.0 -10.5
v -23.0 -5.0 -14.6
v -23.0 -5.0 -10.5
v -23.0 -4.0 -15.5
v -23.0 -4.5 -15.0
v -23.0 -4.0 -10.6
v -23.0 -3.0 -16.5
v -23.0 -3.5 -16.0
v -23.0 -3.5 -11.0
v -23.0 -3.0 -11.4
v -23.0 -2.0 -17.3
v -23.0 -2.4 -17.0
v -23.0 -2.0 -11.6
v -23.0 -1.0 -17.2
v -23.0 -1.4 -16.0
v -23.0 -1.0 -16.7
v -23.5 -1.0 -15.0
v -23.0 -1.3 -15.0
v -23.0 -1.0 -14.6
v -23.5 -1.0 -12.0
v -23.0 -1.4 -12.0
v -23.0 -1.0 -12.3
v -23.0 -0.8 -17.0
v -23.0 -0.5 -14.0
v -23.0 0.0 -13.4
v -23.0 0.0 -12.7
v -23.0 0.6 -13.0
v -22.0 -12.0 -10.2
v -22.0 -12.2 -10.0
v -22.0 -12.0 -9.8
v -22.1 -11.0 -13.0
v -22.0 -11.0 -13.1
v -22.0 -11.1 -13.0
v -22.5 -11.0 -12.0
v -22.0 -11.0 -12.8
v -22.0 -11.0 -10.5
v -22.0 -11.0 -9.7
v -22.0 -10.0 -13.5
v -22.0 -10.7 -12.0
v -22.0 -10.7 -11.0
v -22.7 -10.0 -10.0
v -22.0 -10.0 -9.6
v -22.8 -9.0 -14.0
v -22.0 -9.0 -13.6
v -22.0 -9.0 -9.5
v -22.0 -8.0 -13.5
v -22.6 -8.0 -10.0
v -22.0 -8.0 -9.6
v -22.0 -7.0 -13.6
v -22.3 -7.0 -10.0
v -22.0 -7.0 -9.7
v -22.0 -6.0 -14.3
v -22.0 -6.4 -14.0
v -22.0 -6.7 -10.0
v -22.0 -6.0 -10.4
v -22.0 -5.0 -14.6
v -22.0 -5.0 -10.5
v -22.0 -4.0 -15.5
v -22.0 -4.5 -15.0
v -22.0 -4.0 -10.6
v -22.0 -3.0 -16.5
v -22.0 -3.5 -16.0
v -22.0 -3.5 -11.0
v -22.0 -3.0 -11.4
v -22.0 -2.0 -17.3
v -22.0 -2.4 -17.0
v -22.0 -2.0 -11.7
v -22.0 -1.0 -17.0
v -22.0 -1.4 -16.0
v -22.0 -1.0 -17.0
v -22.0 -1.4 -15.0
v -22.0 -1.0 -14.5
v -22.0 -1.6 -12.0
v -22.0 -1.0 -12.4
v -22.0 -1.0 -17.0
v -22.0 -0.5 -14.0
v -22.0 0.0 -13.1
v -22.0 0.0 -12.9
v -22.0 0.1 -13.0
v -21.2 -12.0 -10.0
v -21.0 -11.0 -13.2
v -21.0 -11.2 -13.0
v -21.0 -11.0 -12.7
v -21.0 -11.0 -10.4
v -21.0 -11.9 -10.0
v -21.0 -11.0 -9.7
v -21.0 -10.0 -13.5
v -21.0 -10.6 -12.0
v -21.0 -10.6 -11.0
v -21.0 -10.0 -9.5
v -21.0 -9.0 -13.5
v -21.0 -9.0 -9.5
v -21.0 -8.0 -13.5
v -21.0 -8.0 -9.5
v -21.0 -7.0 -13.5
v -21.0 -7.0 -9.6
v -21.5 -6.0 -14.0
v -21.0 -6.0 -13.7
v -21.0 -6.4 -10.0
v -21.0 -6.0 -10.3
v -21.0 -5.0 -14.5
v -21.0 -5.6 -14.0
v -21.0 -5.0 -10.5
v -21.0 -4.0 -15.5
v -21.0 -4.5 -15.0
v -21.0 -4.0 -10.7
v -21.0 -3.0 -16.4
v -21.0 -3.5 -16.0
v -21.0 -3.7 -11.0
v -21.0 -3.0 -11.6
v -21.0 -2.0 -17.0
v -21.0 -2.0 -17.0
v -21.6 -2.0 -12.0
v -21.0 -2.5 -12.0
v -21.0 -2.0 -12.4
v -21.0 -2.0 -17.0
v -22.0 -1.0 -17.0
v -21.0 -1.6 -16.0
v -21.0 -1.4 -15.0
v -21.0 -1.0 -14.5
v -21.0 -1.0 -12.7
v -21.0 -0.6 -14.0
v -21.9 0.0 -13.0
v -21.0 -0.7 -13.0
v -20.0 -11.0 -13.2
v -20.0 -11.2 -13.0
v -20.0 -11.0 -12.8
v -20.0 -11.0 -10.1
v -20.0 -11.1 -10.0
v -20.0 -11.0 -9.9
v -20.0 -10.0 -13.5
v -20.0 -10.4 -12.0
v -20.0 -10.1 -11.0
v -20.0 -10.0 -9.1
v -20.0 -9.0 -13.5
v -20.0 -9.0 -9.3
v -20.0 -8.0 -13.5
v -20.0 -8.0 -9.4
v -20.0 -7.0 -13.5
v -20.0 -7.0 -9.5
v -20.0 -6.0 -13.7
v -20.5 -6.0 -10.0
v -20.0 -6.0 -9.7
v -20.0 -5.0 -14.5
v -20.0 -5.6 -14.0
v -20.0 -5.6 -10.0
v -20.0 -5.0 -10.5
v -20.0 -4.0 -15.6
v -20.0 -4.5 -15.0
v -20.5 -4.0 -11.0
v -20.0 -4.4 -11.0
v -20.0 -4.0 -11.4
v -20.0 -3.0 -16.3
v -20.0 -3.5 -16.0
v -20.5 -3.0 -12.0
v -20.0 -3.4 -12.0
v -20.0 -3.0 -12.5
v -21.0 -2.0 -17.0
v -20.0 -2.5 -16.0
v -20.4 -2.0 -16.0
v -20.0 -2.0 -15.6
v -20.3 -2.0 -13.0
v -20.0 -2.4 -13.0
v -20.0 -2.0 -13.3
v -20.0 -1.5 -15.0
v -20.0 -1.0 -14.1
v -20.7 -1.0 -13.0
v -20.0 -1.0 -13.9
v -20.0 -0.9 -14.0
v -19.2 -11.0 -13.0
v -19.9 -11.0 -10.0
v -19.0 -10.0 -13.4
v -19.0 -10.9 -13.0
v -19.1 -10.0 -12.0
v -19.0 -10.0 -12.1
v -19.0 -10.0 -11.8
v -19.0 -10.3 -11.0
v -19.0 -10.3 -10.0
v -19.0 -10.0 -9.6
v -19.0 -9.0 -13.5
v -19.0 -9.9 -12.0
v -19.0 -9.2 -9.0
v -19.3 -9.0 -9.0
v -19.0 -9.0 -8.9
v -19.0 -8.0 -13.5
v -19.3 -8.0 -9.0
v -19.0 -8.0 -8.8
v -19.0 -7.0 -13.7
v -19.0 -7.7 -9.0
v -19.0 -7.0 -9.4
v -19.5 -6.0 -14.0
v -19.0 -6.0 -14.3
v -19.0 -6.5 -14.0
v -19.0 -6.0 -9.7
v -19.0 -5.0 -14.7
v -19.0 -5.7 -10.0
v -19.0 -5.0 -10.6
v -19.1 -4.0 -16.0
v -19.0 -4.0 -16.1
v -19.0 -4.1 -16.0
v -19.0 -4.7 -15.0
v -19.0 -4.6 -11.0
v -19.0 -4.0 -11.7
v -19.0 -3.0 -16.2
v -19.4 -3.0 -13.0
v -19.0 -3.3 -13.0
v -19.0 -3.0 -13.3
v -19.0 -3.7 -12.0
v -19.0 -2.7 -16.0
v -19.0 -2.0 -15.4
v -19.0 -2.0 -13.7
v -19.0 -1.6 -15.0
v -19.9 -1.0 -14.0
v -19.0 -1.7 -14.0
v -18.0 -10.0 -13.1
v -18.0 -10.1 -13.0
v -18.0 -10.0 -12.9
v -18.0 -10.0 -11.2
v -18.0 -10.1 -11.0
v -18.6 -10.0 -10.0
v -18.0 -10.0 -10.8
v -18.0 -9.0 -13.4
v -18.0 -9.6 -12.0
v -18.0 -9.5 -10.0
v -18.8 -9.0 -9.0
v -18.0 -9.0 -9.5
v -18.0 -8.0 -13.6
v -18.0 -8.2 -9.0
v -18.0 -8.0 -8.9
v -18.5 -7.0 -14.0
v -18.0 -7.0 -14.3
v -18.0 -7.4 -14.0
v -18.0 -7.9 -9.0
v -18.0 -7.0 -9.5
v -18.0 -6.0 -14.6
v -18.5 -6.0 -10.0
v -18.0 -6.4 -10.0
v -18.0 -6.0 -10.4
v -18.3 -5.0 -15.0
v -18.0 -5.0 -15.1
v -18.0 -5.2 -15.0
v -18.5 -5.0 -11.0
v -18.0 -5.4 -11.0
v -18.0 -5.0 -11.4
v -18.9 -4.0 -16.0
v -18.0 -4.0 -15.4
v -18.3 -4.0 -13.0
v -18.0 -4.2 -13.0
v -18.0 -4.0 -13.2
v -18.7 -4.0 -12.0
v -18.0 -4.5 -12.0
v -18.7 -3.0 -16.0
v -18.0 -3.0 -15.4
v -18.0 -3.0 -13.7
v -18.0 -2.0 -15.0
v -18.6 -2.0 -14.0
v -18.0 -2.6 -14.0
v -18.0 -2.0 -15.0
v -18.0 -2.0 -15.0
v -17.9 -10.0 -13.0
v -17.9 -10.0 -11.0
v -17.0 -9.0 -13.1
v -17.0 -9.1 -13.0
v -17.2 -9.0 -12.0
v -17.0 -9.0 -12.7
v -17.0 -9.0 -11.5
v -17.0 -9.2 -11.0
v -17.5 -9.0 -10.0
v -17.0 -9.0 -10.7
v -17.0 -8.0 -13.4
v -17.0 -8.8 -12.0
v -17.0 -8.4 -10.0
v -17.9 -8.0 -9.0
v -17.0 -8.0 -9.7
v -17.0 -7.0 -14.2
v -17.0 -7.3 -14.0
v -17.0 -7.0 -9.7
v -17.0 -6.0 -14.4
v -17.0 -6.7 -10.0
v -17.0 -6.0 -10.6
v -17.8 -5.0 -15.0
v -17.0 -5.0 -14.4
v -17.0 -5.6 -11.0
v -17.0 -5.0 -11.7
v -17.6 -4.0 -15.0
v -17.0 -4.0 -14.1
v -17.0 -4.5 -13.0
v -17.0 -4.0 -13.9
v -17.0 -4.8 -12.0
v -17.6 -3.0 -15.0
v -17.0 -3.9 -14.0
v -17.7 -3.0 -14.0
v -18.0 -2.0 -15.0
v -16.9 -9.0 -13.0
v -16.8 -9.0 -11.0
v -16.5 -8.0 -13.0
v -16.0 -8.2 -12.0
v -16.0 -8.0 -12.3
v -16.0 -8.3 -11.0
v -16.6 -8.0 -10.0
v -16.0 -8.0 -10.7
v -16.8 -7.0 -14.0
v -16.3 -7.0 -13.0
v -16.0 -7.0 -12.6
v -16.7 -7.0 -10.0
v -16.0 -7.0 -10.7
v -16.6 -6.0 -14.0
v -16.0 -6.0 -13.2
v -16.0 -6.3 -13.0
v -16.6 -6.0 -11.0
v -16.0 -6.6 -11.0
v -16.0 -6.0 -11.6
v -16.6 -5.0 -14.0
v -16.0 -5.8 -13.0
v -16.5 -5.0 -13.0
v -16.7 -5.0 -12.0
v -16.0 -5.7 -12.0
v -16.9 -4.0 -14.0
v -15.8 -8.0 -12.0
v -15.8 -8.0 -11.0
v -15.6 -7.0 -12.0
v -15.7 -7.0 -11.0
v -15.9 -6.0 -13.0
v -15.8 -6.0 -12.0
f 3 2 1
f 5 4 1
f 1 4 3
f 5 6 4
f 9 8 7
f 9 7 2
f 7 1 2
f 7 10 1
f 1 11 5
f 1 10 11
f 6 5 12
f 12 5 11
f 7 8 13
f 13 8 14
f 7 15 10
f 7 13 15
f 17 11 16
f 11 15 16
f 11 10 15
f 11 17 12
f 13 14 18
f 18 14 19
f 21 15 20
f 15 18 20
f 15 13 18
f 15 21 16
f 19 22 18
f 18 22 20
f 25 24 23
f 23 26 25
f 29 28 27
f 29 27 24
f 27 23 24
f 27 30 23
f 26 23 31
f 31 23 30
f 27 28 32
f 32 28 33
f 27 34 30
f 27 32 34
f 31 30 35
f 35 30 34
f 38 37 36
f 38 36 33
f 36 32 33
f 36 39 32
f 32 40 34
f 32 39 40
f 35 34 41
f 41 34 40
f 36 37 42
f 42 37 43
f 36 44 39
f 36 42 44
f 39 45 40
f 39 44 45
f 41 40 46
f 46 40 45
f 48 47 3
f 3 47 2
f 4 42 43
f 48 4 43
f 3 4 48
f 42 4 6
f 49 42 6
f 44 42 49
f 51 45 50
f 45 49 50
f 45 44 49
f 45 51 46
f 53 52 9
f 9 52 8
f 9 2 47
f 9 47 53
f 12 54 49
f 12 49 6
f 50 49 55
f 55 49 54
f 58 57 56
f 52 58 56
f 14 52 56
f 8 52 14
f 16 59 17
f 54 12 17
f 59 54 17
f 60 54 59
f 55 54 61
f 61 54 60
f 57 62 56
f 19 14 56
f 63 19 56
f 62 63 56
f 19 63 64
f 21 20 64
f 63 21 64
f 65 21 63
f 16 21 59
f 21 66 59
f 21 65 66
f 68 67 66
f 67 59 66
f 67 60 59
f 61 60 69
f 69 60 67
f 64 22 19
f 22 64 20
f 68 70 67
f 67 70 69
f 73 72 71
f 71 74 73
f 71 72 75
f 75 72 76
f 74 71 77
f 71 78 77
f 71 75 78
f 78 79 77
f 82 81 80
f 82 80 76
f 80 75 76
f 80 83 75
f 83 24 25
f 78 83 25
f 75 83 78
f 25 26 78
f 26 79 78
f 26 84 79
f 80 81 85
f 85 81 86
f 85 28 29
f 83 85 29
f 80 85 83
f 83 29 24
f 31 84 26
f 31 87 84
f 85 86 88
f 88 86 89
f 88 33 28
f 88 28 85
f 35 87 31
f 35 90 87
f 88 89 38
f 89 37 38
f 89 91 37
f 88 38 33
f 41 90 35
f 41 92 90
f 95 94 93
f 91 95 93
f 43 91 93
f 37 91 43
f 46 92 41
f 46 96 92
f 99 98 97
f 99 97 94
f 94 97 93
f 97 47 93
f 47 48 93
f 93 48 43
f 50 100 51
f 100 101 51
f 101 46 51
f 101 96 46
f 97 98 53
f 98 52 53
f 98 102 52
f 97 53 47
f 55 103 100
f 55 100 50
f 101 100 104
f 104 100 103
f 106 105 58
f 58 105 57
f 58 52 102
f 58 102 106
f 61 107 103
f 61 103 55
f 104 103 108
f 108 103 107
f 105 109 57
f 57 109 62
f 62 110 63
f 109 110 62
f 63 111 65
f 110 111 63
f 111 113 112
f 66 111 112
f 65 111 66
f 112 68 66
f 115 114 107
f 61 115 107
f 69 115 61
f 107 114 108
f 113 116 112
f 112 116 68
f 116 70 68
f 116 117 70
f 69 70 115
f 115 70 117
f 120 119 118
f 118 121 120
f 123 122 73
f 73 122 72
f 124 118 74
f 118 123 74
f 123 73 74
f 118 119 123
f 121 118 125
f 118 126 125
f 118 124 126
f 126 127 125
f 130 129 128
f 122 130 128
f 76 122 128
f 72 122 76
f 77 124 74
f 124 77 79
f 131 124 79
f 126 124 131
f 127 126 132
f 132 126 131
f 128 129 82
f 129 81 82
f 129 133 81
f 128 82 76
f 84 134 131
f 84 131 79
f 132 131 135
f 135 131 134
f 133 86 81
f 136 86 133
f 87 137 134
f 87 134 84
f 135 134 138
f 138 134 137
f 136 89 86
f 139 89 136
f 90 140 137
f 90 137 87
f 138 137 141
f 141 137 140
f 139 91 89
f 142 91 139
f 92 143 140
f 92 140 90
f 141 140 144
f 144 140 143
f 146 145 95
f 95 145 94
f 95 91 142
f 95 142 146
f 96 147 143
f 96 143 92
f 144 143 148
f 148 143 147
f 150 149 99
f 99 149 98
f 99 94 145
f 99 145 150
f 152 151 147
f 96 152 147
f 101 152 96
f 147 151 148
f 155 154 153
f 149 155 153
f 102 149 153
f 98 149 102
f 104 152 101
f 104 156 152
f 153 154 106
f 154 105 106
f 154 157 105
f 102 153 106
f 160 159 158
f 161 159 160
f 108 156 104
f 108 162 156
f 157 163 105
f 105 163 109
f 159 110 158
f 110 163 158
f 110 109 163
f 161 164 159
f 164 110 159
f 164 111 110
f 166 165 113
f 111 166 113
f 164 166 111
f 167 165 166
f 169 168 114
f 169 114 115
f 108 114 162
f 162 114 168
f 165 116 113
f 167 170 165
f 170 116 165
f 170 117 116
f 115 117 169
f 169 117 170
f 173 172 171
f 171 174 173
f 176 175 120
f 120 175 119
f 120 121 176
f 176 121 177
f 171 172 178
f 178 172 179
f 174 171 180
f 180 171 178
f 182 181 123
f 123 181 122
f 123 119 175
f 123 175 182
f 183 177 121
f 183 121 125
f 179 184 178
f 127 183 125
f 183 127 185
f 178 184 180
f 187 186 130
f 130 186 129
f 130 122 181
f 130 181 187
f 132 189 188
f 185 132 188
f 127 132 185
f 189 190 188
f 192 133 191
f 133 186 191
f 133 129 186
f 193 192 191
f 195 194 189
f 132 195 189
f 135 195 132
f 189 194 190
f 196 136 192
f 192 136 133
f 192 193 197
f 192 197 196
f 138 195 135
f 138 198 195
f 200 199 196
f 199 136 196
f 199 139 136
f 200 196 197
f 141 198 138
f 141 201 198
f 199 142 139
f 202 142 199
f 144 201 141
f 144 203 201
f 205 204 146
f 146 204 145
f 146 142 202
f 146 202 205
f 148 203 144
f 148 206 203
f 208 207 150
f 150 207 149
f 150 145 204
f 150 204 208
f 210 209 151
f 210 151 152
f 148 151 206
f 206 151 209
f 212 211 155
f 155 211 154
f 155 149 207
f 155 207 212
f 156 210 152
f 156 213 210
f 211 157 154
f 214 157 211
f 216 215 160
f 216 160 158
f 218 217 161
f 160 218 161
f 215 218 160
f 219 217 218
f 222 221 220
f 221 213 220
f 213 162 220
f 213 156 162
f 214 223 157
f 157 223 163
f 158 163 216
f 216 163 223
f 217 164 161
f 219 224 217
f 224 164 217
f 224 166 164
f 167 166 224
f 167 224 225
f 222 220 168
f 169 222 168
f 226 222 169
f 168 220 162
f 225 227 167
f 167 227 170
f 169 170 226
f 226 170 227
f 229 228 173
f 173 228 172
f 173 174 229
f 229 174 230
f 233 232 231
f 175 176 234
f 233 231 235
f 177 234 176
f 228 179 172
f 236 179 228
f 180 230 174
f 180 237 230
f 231 232 182
f 232 181 182
f 232 238 181
f 182 235 231
f 182 239 235
f 182 175 234
f 239 182 234
f 239 234 177
f 183 239 177
f 240 239 183
f 236 184 179
f 184 236 241
f 240 241 236
f 241 240 185
f 183 185 240
f 241 242 184
f 242 180 184
f 242 237 180
f 243 186 187
f 244 243 187
f 181 244 187
f 238 244 181
f 188 241 185
f 188 190 241
f 190 242 241
f 190 245 242
f 243 191 186
f 193 191 243
f 244 193 243
f 246 193 244
f 195 247 194
f 247 248 194
f 248 190 194
f 248 245 190
f 246 197 193
f 249 197 246
f 198 250 247
f 198 247 195
f 248 247 251
f 251 247 250
f 253 252 200
f 200 252 199
f 200 197 249
f 200 249 253
f 255 254 250
f 198 255 250
f 201 255 198
f 250 254 251
f 252 202 199
f 256 202 252
f 203 255 201
f 203 257 255
f 259 258 205
f 205 258 204
f 205 202 256
f 205 256 259
f 206 257 203
f 206 260 257
f 262 261 208
f 208 261 207
f 208 204 258
f 208 258 262
f 264 263 209
f 264 209 210
f 206 209 260
f 260 209 263
f 266 265 212
f 212 265 211
f 212 207 261
f 212 261 266
f 213 264 210
f 213 267 264
f 265 214 211
f 268 214 265
f 270 269 215
f 270 215 216
f 215 271 218
f 269 271 215
f 219 218 271
f 219 271 272
f 274 273 221
f 274 221 222
f 213 221 267
f 267 221 273
f 268 275 214
f 214 275 223
f 216 223 270
f 270 223 275
f 272 276 219
f 219 276 224
f 225 224 276
f 225 276 277
f 226 274 222
f 226 278 274
f 277 279 225
f 225 279 227
f 226 227 278
f 278 227 279
f 280 228 229
f 230 280 229
f 282 281 233
f 233 281 232
f 233 235 282
f 282 235 283
f 285 284 280
f 284 228 280
f 284 236 228
f 280 230 285
f 230 286 285
f 230 237 286
f 281 238 232
f 287 238 281
f 288 283 235
f 288 235 239
f 289 239 240
f 289 288 239
f 240 236 284
f 240 284 289
f 242 286 237
f 242 290 286
f 287 244 238
f 291 244 287
f 245 290 242
f 245 292 290
f 291 246 244
f 293 246 291
f 248 292 245
f 248 294 292
f 293 249 246
f 295 249 293
f 251 294 248
f 251 296 294
f 297 252 253
f 298 297 253
f 249 298 253
f 295 298 249
f 300 299 254
f 300 254 255
f 251 254 296
f 296 254 299
f 302 301 297
f 301 252 297
f 301 256 252
f 302 297 298
f 257 300 255
f 257 303 300
f 305 304 259
f 259 304 258
f 259 256 301
f 259 301 305
f 260 303 257
f 260 306 303
f 308 307 262
f 262 307 261
f 262 258 304
f 262 304 308
f 310 309 263
f 310 263 264
f 260 263 306
f 306 263 309
f 312 311 266
f 266 311 265
f 266 261 307
f 266 307 312
f 315 314 313
f 314 310 313
f 310 267 313
f 310 264 267
f 317 268 316
f 268 311 316
f 268 265 311
f 269 270 317
f 316 269 317
f 318 269 316
f 269 319 271
f 318 319 269
f 272 271 319
f 272 319 320
f 315 313 273
f 274 315 273
f 321 315 274
f 273 313 267
f 317 275 268
f 275 317 270
f 320 322 272
f 272 322 276
f 324 323 277
f 276 324 277
f 322 324 276
f 324 321 323
f 321 278 323
f 321 274 278
f 323 279 277
f 279 323 278
f 326 325 282
f 282 325 281
f 282 283 326
f 326 283 327
f 329 328 285
f 285 328 284
f 285 286 329
f 329 286 330
f 325 287 281
f 331 287 325
f 332 327 283
f 332 283 288
f 333 288 289
f 333 332 288
f 289 284 328
f 289 328 333
f 290 330 286
f 290 334 330
f 331 291 287
f 335 291 331
f 292 334 290
f 292 336 334
f 335 293 291
f 337 293 335
f 294 336 292
f 294 338 336
f 337 295 293
f 339 295 337
f 296 338 294
f 296 340 338
f 339 298 295
f 341 298 339
f 300 342 299
f 342 343 299
f 343 296 299
f 343 340 296
f 345 344 302
f 302 344 301
f 302 298 341
f 302 341 345
f 347 346 342
f 300 347 342
f 303 347 300
f 342 346 343
f 349 348 305
f 305 348 304
f 305 301 344
f 305 344 349
f 352 351 350
f 351 347 350
f 347 306 350
f 347 303 306
f 354 353 308
f 308 353 307
f 308 304 348
f 308 348 354
f 357 356 355
f 355 356 352
f 355 352 350
f 310 355 350
f 309 310 350
f 309 350 306
f 358 311 312
f 307 353 359
f 358 307 359
f 360 358 359
f 312 307 358
f 361 360 359
f 364 363 362
f 362 363 357
f 362 357 355
f 315 362 355
f 314 315 355
f 314 355 310
f 358 316 311
f 316 358 318
f 318 358 360
f 361 365 360
f 365 318 360
f 365 319 318
f 320 319 365
f 320 365 366
f 364 362 367
f 364 367 368
f 321 367 315
f 315 367 362
f 366 369 320
f 320 369 322
f 367 324 368
f 324 369 368
f 324 322 369
f 324 367 321
f 370 325 326
f 327 370 326
f 371 328 329
f 330 371 329
f 373 372 370
f 372 325 370
f 372 331 325
f 375 373 374
f 374 373 332
f 373 370 332
f 370 327 332
f 374 332 376
f 332 377 376
f 332 333 377
f 333 328 371
f 378 333 371
f 377 333 378
f 371 330 378
f 330 379 378
f 330 334 379
f 372 335 331
f 380 335 372
f 381 375 374
f 381 374 376
f 336 383 382
f 379 336 382
f 334 336 379
f 383 384 382
f 380 337 335
f 385 337 380
f 338 386 383
f 338 383 336
f 384 383 387
f 387 383 386
f 385 339 337
f 388 339 385
f 390 389 386
f 338 390 386
f 340 390 338
f 386 389 387
f 393 392 391
f 388 393 391
f 341 388 391
f 339 388 341
f 343 390 340
f 343 394 390
f 391 392 345
f 392 344 345
f 392 395 344
f 391 345 341
f 397 396 346
f 397 346 347
f 343 346 394
f 394 346 396
f 400 399 398
f 348 349 398
f 349 400 398
f 349 401 400
f 349 344 395
f 349 395 401
f 403 402 351
f 403 351 352
f 347 351 397
f 397 351 402
f 398 399 354
f 399 353 354
f 399 404 353
f 398 354 348
f 407 406 405
f 356 357 405
f 406 356 405
f 408 356 406
f 352 356 403
f 403 356 408
f 404 409 353
f 353 409 359
f 361 359 409
f 361 409 410
f 407 405 363
f 364 407 363
f 411 407 364
f 363 405 357
f 410 412 361
f 361 412 365
f 414 413 366
f 365 414 366
f 412 414 365
f 414 411 413
f 411 368 413
f 411 364 368
f 413 369 366
f 369 413 368
f 416 415 373
f 373 415 372
f 373 375 416
f 416 375 417
f 419 418 377
f 377 418 376
f 421 419 420
f 419 378 420
f 419 377 378
f 379 420 378
f 415 380 372
f 422 380 415
f 423 417 375
f 423 375 381
f 381 376 418
f 381 418 423
f 424 421 420
f 426 424 425
f 425 424 382
f 424 420 382
f 420 379 382
f 384 425 382
f 422 385 380
f 427 385 422
f 428 426 425
f 425 384 428
f 384 429 428
f 384 387 429
f 432 431 430
f 427 432 430
f 388 427 430
f 385 427 388
f 434 433 389
f 434 389 390
f 387 389 429
f 429 389 433
f 430 431 393
f 431 392 393
f 431 435 392
f 430 393 388
f 438 437 436
f 437 434 436
f 434 394 436
f 434 390 394
f 441 440 439
f 435 441 439
f 395 435 439
f 392 435 395
f 444 443 442
f 442 443 438
f 442 438 436
f 397 442 436
f 396 397 436
f 396 436 394
f 445 399 400
f 440 446 439
f 446 400 439
f 400 401 439
f 400 446 445
f 439 401 395
f 449 448 447
f 451 450 447
f 451 447 448
f 450 451 444
f 450 444 442
f 403 450 442
f 402 403 442
f 402 442 397
f 452 404 445
f 445 404 399
f 445 446 453
f 445 453 452
f 449 447 406
f 407 449 406
f 454 449 407
f 406 447 408
f 408 447 450
f 408 450 403
f 452 409 404
f 410 409 452
f 453 410 452
f 455 410 453
f 458 457 456
f 457 454 456
f 454 411 456
f 454 407 411
f 455 459 410
f 410 459 412
f 456 414 458
f 414 459 458
f 414 412 459
f 414 456 411
f 460 415 416
f 417 460 416
f 461 418 419
f 421 461 419
f 463 462 460
f 462 415 460
f 462 422 415
f 465 463 464
f 464 463 423
f 463 460 423
f 460 417 423
f 466 464 423
f 466 423 418
f 467 466 418
f 461 467 418
f 469 467 468
f 468 467 424
f 467 461 424
f 461 421 424
f 426 468 424
f 462 427 422
f 470 427 462
f 471 465 464
f 471 464 466
f 472 469 468
f 474 472 473
f 473 472 428
f 472 468 428
f 468 426 428
f 429 473 428
f 476 475 432
f 432 475 431
f 432 427 470
f 432 470 476
f 474 473 433
f 434 474 433
f 477 474 434
f 433 473 429
f 475 435 431
f 478 435 475
f 480 479 437
f 480 437 438
f 434 437 477
f 477 437 479
f 481 440 441
f 482 481 441
f 435 482 441
f 478 482 435
f 484 483 443
f 484 443 444
f 438 443 480
f 480 443 483
f 485 446 481
f 481 446 440
f 481 482 486
f 481 486 485
f 488 487 448
f 488 448 449
f 448 489 451
f 487 489 448
f 444 451 484
f 484 451 489
f 490 453 485
f 485 453 446
f 485 486 491
f 492 485 491
f 490 485 492
f 491 488 492
f 488 454 492
f 488 449 454
f 493 455 490
f 490 455 453
f 458 493 457
f 493 492 457
f 493 490 492
f 457 492 454
f 493 459 455
f 459 493 458
f 494 462 463
f 465 494 463
f 495 466 467
f 469 495 467
f 496 470 494
f 494 470 462
f 496 494 465
f 497 496 465
f 471 497 465
f 498 496 497
f 471 466 495
f 499 471 495
f 497 471 499
f 501 499 500
f 500 499 472
f 499 495 472
f 495 469 472
f 474 500 472
f 502 475 476
f 470 496 476
f 496 502 476
f 496 503 502
f 496 498 504
f 496 504 503
f 501 500 505
f 501 505 506
f 477 505 474
f 474 505 500
f 507 478 502
f 502 478 475
f 503 509 508
f 507 503 508
f 502 503 507
f 509 503 504
f 512 511 510
f 510 511 506
f 510 506 505
f 480 510 505
f 479 480 505
f 479 505 477
f 513 482 507
f 507 482 478
f 507 508 514
f 515 507 514
f 513 507 515
f 517 516 515
f 517 515 514
f 516 517 512
f 516 512 510
f 484 516 510
f 483 484 510
f 483 510 480
f 518 486 513
f 513 486 482
f 488 518 487
f 518 515 487
f 518 513 515
f 487 515 489
f 489 515 516
f 489 516 484
f 518 491 486
f 491 518 488
f 519 498 497
f 499 520 497
f 497 520 519
f 501 520 499
f 521 504 519
f 519 504 498
f 522 519 520
f 521 519 522
f 506 522 501
f 501 522 520
f 523 508 509
f 504 521 509
f 521 523 509
f 521 524 523
f 512 524 511
f 524 522 511
f 524 521 522
f 511 522 506
f 523 514 508
f 514 523 517
f 517 523 524
f 517 524 512
