v -42.2 -22.0 21.0
v -42.0 -22.0 20.7
v -42.0 -22.3 21.0
v -42.0 -22.5 22.0
v -42.4 -22.0 22.0
v -42.0 -22.3 23.0
v -42.2 -22.0 23.0
v -42.0 -22.0 23.4
v -42.3 -21.0 21.0
v -42.0 -21.0 20.7
v -42.5 -21.0 22.0
v -42.5 -21.0 23.0
v -42.0 -21.4 24.0
v -42.3 -21.0 24.0
v -42.0 -21.0 24.3
v -42.0 -20.6 21.0
v -42.2 -20.0 22.0
v -42.0 -20.0 21.6
v -42.3 -20.0 23.0
v -42.2 -20.0 24.0
v -42.0 -20.0 24.2
v -42.0 -19.8 22.0
v -42.0 -19.6 23.0
v -42.0 -19.8 24.0
v -41.2 -24.0 21.0
v -41.0 -24.0 20.6
v -41.0 -24.2 21.0
v -41.0 -24.2 22.0
v -41.2 -24.0 22.0
v -41.0 -24.0 22.3
v -41.3 -23.0 20.0
v -41.0 -23.0 19.7
v -41.0 -23.4 20.0
v -41.6 -23.0 21.0
v -41.5 -23.0 22.0
v -41.0 -23.0 22.7
v -41.5 -22.0 20.0
v -41.0 -22.0 19.5
v -41.0 -22.8 23.0
v -41.0 -22.4 24.0
v -41.4 -22.0 24.0
v -41.0 -22.0 24.3
v -41.4 -21.0 20.0
v -41.0 -21.0 19.6
v -41.0 -21.0 24.9
v -41.0 -20.6 20.0
v -41.4 -20.0 21.0
v -41.0 -20.0 20.6
v -41.0 -20.0 24.5
v -41.0 -19.7 21.0
v -41.0 -19.5 22.0
v -41.0 -19.4 23.0
v -41.0 -19.0 24.0
v -41.0 -19.0 24.0
v -41.0 -19.0 24.0
v -41.0 -19.0 24.0
v -40.4 -24.0 20.0
v -40.0 -24.0 19.7
v -40.0 -24.3 20.0
v -40.0 -24.6 21.0
v -40.0 -24.6 22.0
v -40.0 -24.5 23.0
v -40.5 -24.0 23.0
v -40.0 -24.3 24.0
v -40.2 -24.0 24.0
v -40.0 -24.0 24.2
v -40.3 -23.0 19.0
v -40.0 -23.0 18.7
v -40.0 -23.3 19.0
v -40.8 -23.0 23.0
v -40.5 -23.0 24.0
v -40.0 -23.0 24.4
v -40.5 -22.0 19.0
v -40.0 -22.0 18.5
v -40.0 -22.0 24.5
v -40.4 -21.0 19.0
v -40.0 -21.0 18.6
v -40.0 -21.0 24.6
v -40.0 -20.5 19.0
v -40.4 -20.0 20.0
v -40.0 -20.0 19.5
v -40.0 -20.0 24.5
v -40.0 -19.7 20.0
v -40.0 -19.4 21.0
v -40.0 -19.4 22.0
v -40.0 -19.2 23.0
v -40.0 -19.0 23.5
v -40.0 -19.0 24.2
v -40.0 -18.8 24.0
v -39.1 -26.0 23.0
v -39.0 -26.0 22.8
v -39.0 -26.1 23.0
v -39.0 -26.0 23.2
v -39.4 -25.0 21.0
v -39.0 -25.0 20.5
v -39.0 -25.4 21.0
v -39.0 -25.6 22.0
v -39.5 -25.0 22.0
v -39.6 -25.0 23.0
v -39.0 -25.4 24.0
v -39.3 -25.0 24.0
v -39.0 -25.0 24.3
v -39.0 -24.0 19.3
v -39.0 -24.6 20.0
v -39.0 -24.0 24.5
v -39.3 -23.0 18.0
v -39.0 -23.0 17.7
v -39.0 -23.3 18.0
v -39.0 -23.7 19.0
v -39.0 -23.0 24.5
v -39.5 -22.0 18.0
v -39.0 -22.0 17.4
v -39.0 -22.0 24.5
v -39.2 -21.0 17.0
v -39.0 -21.0 16.8
v -39.0 -21.4 17.0
v -39.6 -21.0 18.0
v -39.0 -21.0 24.5
v -39.2 -20.0 17.0
v -39.0 -20.0 16.8
v -39.4 -20.0 18.0
v -39.6 -20.0 19.0
v -39.0 -20.0 24.5
v -39.0 -19.7 17.0
v -39.0 -19.5 18.0
v -39.0 -19.5 19.0
v -39.0 -19.3 20.0
v -39.4 -19.0 21.0
v -39.0 -19.0 20.5
v -39.5 -19.0 22.0
v -39.7 -19.0 23.0
v -39.0 -19.0 24.4
v -39.0 -18.7 21.0
v -39.0 -18.5 22.0
v -39.0 -18.0 23.0
v -39.0 -18.0 23.0
v -39.0 -18.6 24.0
v -39.0 -18.0 23.0
v -39.0 -18.0 23.0
v -38.5 -30.0 23.0
v -38.0 -30.0 22.7
v -38.0 -30.3 23.0
v -38.0 -30.1 24.0
v -38.1 -30.0 24.0
v -38.0 -30.0 24.1
v -38.0 -29.7 23.0
v -38.0 -29.9 24.0
v -38.4 -26.0 21.0
v -38.0 -26.0 20.5
v -38.0 -26.4 21.0
v -38.0 -26.5 22.0
v -38.6 -26.0 22.0
v -38.0 -26.6 23.0
v -38.0 -26.3 24.0
v -38.4 -26.0 24.0
v -38.0 -26.0 24.3
v -38.5 -25.0 20.0
v -38.0 -25.0 19.4
v -38.0 -25.6 20.0
v -38.0 -25.0 24.5
v -38.4 -24.0 18.0
v -38.0 -24.0 17.6
v -38.0 -24.4 18.0
v -38.0 -24.7 19.0
v -38.7 -24.0 19.0
v -38.0 -24.0 24.5
v -38.4 -23.0 17.0
v -38.0 -23.0 16.6
v -38.0 -23.4 17.0
v -38.0 -23.0 24.5
v -38.6 -22.0 17.0
v -38.0 -22.0 16.5
v -38.0 -22.0 24.5
v -38.0 -21.0 16.4
v -38.0 -21.0 24.5
v -38.0 -20.0 16.4
v -38.0 -20.0 24.4
v -38.3 -19.0 17.0
v -38.0 -19.0 16.8
v -38.5 -19.0 18.0
v -38.5 -19.0 19.0
v -38.6 -19.0 20.0
v -38.0 -19.0 24.2
v -38.0 -18.8 17.0
v -38.0 -18.6 18.0
v -38.0 -18.6 19.0
v -38.0 -18.6 20.0
v -38.0 -18.5 21.0
v -38.0 -18.3 22.0
v -38.0 -18.0 22.6
v -38.0 -18.7 24.0
v -38.0 -18.0 23.3
v -38.0 -17.8 23.0
v -37.3 -31.0 23.0
v -37.0 -31.0 22.7
v -37.0 -31.2 23.0
v -37.0 -31.2 24.0
v -37.3 -31.0 24.0
v -37.0 -31.0 24.2
v -37.3 -30.0 22.0
v -37.0 -30.0 21.7
v -37.0 -30.3 22.0
v -37.0 -30.0 24.5
v -37.4 -29.0 22.0
v -37.0 -29.0 21.4
v -37.6 -29.0 23.0
v -37.4 -29.0 24.0
v -37.0 -29.0 24.4
v -37.4 -28.0 22.0
v -37.0 -28.0 21.3
v -37.5 -28.0 23.0
v -37.2 -28.0 24.0
v -37.0 -28.0 24.2
v -37.3 -27.0 20.0
v -37.0 -27.0 19.6
v -37.0 -27.4 20.0
v -37.0 -27.7 21.0
v -37.5 -27.0 21.0
v -37.6 -27.0 22.0
v -37.6 -27.0 23.0
v -37.3 -27.0 24.0
v -37.0 -27.0 24.2
v -37.3 -26.0 19.0
v -37.0 -26.0 18.6
v -37.0 -26.4 19.0
v -37.7 -26.0 20.0
v -37.0 -26.0 24.5
v -37.4 -25.0 18.0
v -37.0 -25.0 17.5
v -37.0 -25.5 18.0
v -37.7 -25.0 19.0
v -37.0 -25.0 24.5
v -37.5 -24.0 17.0
v -37.0 -24.0 16.5
v -37.0 -24.5 17.0
v -37.0 -24.0 24.5
v -37.4 -23.0 16.0
v -37.0 -23.0 15.5
v -37.0 -23.5 16.0
v -37.0 -23.0 24.5
v -37.1 -22.0 15.0
v -37.0 -22.0 14.9
v -37.0 -22.2 15.0
v -37.6 -22.0 16.0
v -37.0 -22.0 24.5
v -37.0 -21.7 15.0
v -37.6 -21.0 16.0
v -37.0 -21.0 15.3
v -37.0 -21.0 24.3
v -37.1 -20.0 15.0
v -37.0 -20.0 14.9
v -37.0 -20.3 15.0
v -37.5 -20.0 16.0
v -37.4 -20.0 24.0
v -37.0 -20.5 24.0
v -37.0 -20.0 23.7
v -37.0 -19.8 15.0
v -37.0 -19.4 16.0
v -37.0 -19.0 16.4
v -37.7 -19.0 24.0
v -37.0 -19.0 23.6
v -37.0 -18.6 17.0
v -37.0 -18.5 18.0
v -37.0 -18.5 19.0
v -37.0 -18.5 20.0
v -37.0 -18.3 21.0
v -37.5 -18.0 22.0
v -37.0 -18.0 21.5
v -37.0 -18.0 23.2
v -37.0 -17.7 22.0
v -37.0 -17.8 23.0
v -36.0 -31.0 22.4
v -36.0 -31.4 23.0
v -36.0 -31.3 24.0
v -36.0 -31.0 24.3
v -36.4 -30.0 21.0
v -36.0 -30.0 20.6
v -36.0 -30.3 21.0
v -36.0 -30.7 22.0
v -36.0 -30.0 24.5
v -36.7 -29.0 20.0
v -36.0 -29.0 19.6
v -36.0 -29.4 20.0
v -36.7 -29.0 21.0
v -36.0 -29.0 24.3
v -36.6 -28.0 20.0
v -36.0 -28.0 19.3
v -36.8 -28.0 21.0
v -36.6 -28.0 24.0
v -36.0 -28.5 24.0
v -36.0 -28.0 23.7
v -36.5 -27.0 19.0
v -36.0 -27.0 18.4
v -36.0 -27.6 19.0
v -36.5 -27.0 24.0
v -36.0 -27.0 23.7
v -36.5 -26.0 18.0
v -36.0 -26.0 17.4
v -36.0 -26.6 18.0
v -36.0 -26.5 24.0
v -36.0 -26.0 24.3
v -36.2 -25.0 16.0
v -36.0 -25.0 15.8
v -36.0 -25.2 16.0
v -36.0 -25.6 17.0
v -36.6 -25.0 17.0
v -36.0 -25.0 24.4
v -36.6 -24.0 16.0
v -36.0 -24.0 15.5
v -36.0 -24.0 24.4
v -36.4 -23.0 15.0
v -36.0 -23.0 14.6
v -36.0 -23.4 15.0
v -36.0 -23.0 24.4
v -36.0 -22.0 14.4
v -36.0 -22.0 24.3
v -36.8 -21.0 15.0
v -36.0 -21.0 14.3
v -36.5 -21.0 24.0
v -36.0 -21.5 24.0
v -36.0 -21.0 23.7
v -36.3 -20.0 14.0
v -36.0 -20.0 13.6
v -36.0 -20.5 14.0
v -36.0 -20.0 23.5
v -36.3 -19.0 14.0
v -36.0 -19.0 13.7
v -36.5 -19.0 15.0
v -36.6 -19.0 16.0
v -36.0 -19.0 23.3
v -36.0 -18.7 14.0
v -36.0 -18.5 15.0
v -36.0 -18.6 16.0
v -36.0 -18.5 17.0
v -36.0 -18.5 18.0
v -36.0 -18.5 19.0
v -36.0 -18.3 20.0
v -36.5 -18.0 21.0
v -36.0 -18.0 20.4
v -36.6 -18.0 23.0
v -36.0 -18.5 23.0
v -36.0 -18.0 22.6
v -36.0 -17.6 21.0
v -36.0 -17.5 22.0
v -35.3 -31.0 21.0
v -35.0 -31.0 20.6
v -35.0 -31.4 21.0
v -35.0 -31.5 22.0
v -35.7 -31.0 22.0
v -35.0 -31.5 23.0
v -35.0 -31.2 24.0
v -35.0 -31.0 24.2
v -35.0 -30.0 20.2
v -35.0 -30.0 24.3
v -35.4 -29.0 19.0
v -35.0 -29.0 18.6
v -35.0 -29.4 19.0
v -35.0 -29.8 20.0
v -35.5 -29.0 24.0
v -35.0 -29.5 24.0
v -35.0 -29.0 23.7
v -35.3 -28.0 18.0
v -35.0 -28.0 17.5
v -35.0 -28.4 18.0
v -35.7 -28.0 19.0
v -35.0 -28.0 23.5
v -35.3 -27.0 17.0
v -35.0 -27.0 16.6
v -35.0 -27.4 17.0
v -35.7 -27.0 18.0
v -35.0 -27.0 23.5
v -35.6 -26.0 17.0
v -35.0 -26.0 16.3
v -35.6 -26.0 24.0
v -35.0 -26.0 23.6
v -35.0 -25.0 15.5
v -35.0 -25.6 16.0
v -35.5 -25.0 24.0
v -35.0 -25.0 23.6
v -35.0 -24.0 15.2
v -35.5 -24.0 24.0
v -35.0 -24.0 23.6
v -35.3 -23.0 14.0
v -35.0 -23.0 13.8
v -35.0 -23.2 14.0
v -35.0 -23.8 15.0
v -35.5 -23.0 24.0
v -35.0 -23.0 23.6
v -35.5 -22.0 14.0
v -35.0 -22.0 13.6
v -35.6 -22.0 24.0
v -35.0 -22.0 23.6
v -35.6 -21.0 14.0
v -35.0 -21.0 13.4
v -35.0 -21.0 23.5
v -35.3 -20.0 13.0
v -35.0 -20.0 12.7
v -35.0 -20.4 13.0
v -35.0 -20.0 23.3
v -35.4 -19.0 13.0
v -35.0 -19.0 12.7
v -35.5 -19.0 23.0
v -35.0 -19.5 23.0
v -35.0 -19.0 22.7
v -35.0 -18.0 13.0
v -35.0 -18.0 13.0
v -35.4 -18.0 14.0
v -35.4 -18.0 15.0
v -35.0 -18.0 15.5
v -35.0 -18.3 16.0
v -35.0 -18.5 17.0
v -35.0 -18.5 18.0
v -35.0 -18.2 19.0
v -35.7 -18.0 20.0
v -35.0 -18.0 19.3
v -35.0 -18.0 22.5
v -35.0 -18.0 13.0
v -35.0 -17.7 14.0
v -35.0 -17.7 15.0
v -35.2 -17.0 20.0
v -35.0 -17.0 19.7
v -35.5 -17.0 21.0
v -35.3 -17.0 22.0
v -35.0 -17.0 22.2
v -35.0 -16.8 20.0
v -35.0 -16.6 21.0
v -35.0 -16.7 22.0
v -34.1 -33.0 20.0
v -34.0 -33.0 19.9
v -34.0 -33.1 20.0
v -34.0 -33.1 21.0
v -34.1 -33.0 21.0
v -34.0 -33.0 21.1
v -34.4 -32.0 20.0
v -34.0 -32.0 19.7
v -34.6 -32.0 21.0
v -34.0 -32.3 22.0
v -34.4 -32.0 22.0
v -34.0 -32.0 22.4
v -34.5 -31.0 20.0
v -34.0 -31.0 19.5
v -34.0 -31.5 23.0
v -34.7 -31.0 24.0
v -34.0 -31.0 23.4
v -34.3 -30.0 19.0
v -34.0 -30.0 18.7
v -34.0 -30.4 19.0
v -34.8 -30.0 20.0
v -34.6 -30.0 24.0
v -34.0 -30.0 23.5
v -34.5 -29.0 18.0
v -34.0 -29.0 17.5
v -34.0 -29.4 18.0
v -34.0 -29.0 23.4
v -34.2 -28.0 16.0
v -34.0 -28.0 15.8
v -34.0 -28.2 16.0
v -34.0 -28.6 17.0
v -34.6 -28.0 17.0
v -34.0 -28.0 23.4
v -34.4 -27.0 16.0
v -34.0 -27.0 15.6
v -34.0 -27.0 23.4
v -34.6 -26.0 16.0
v -34.0 -26.0 15.5
v -34.0 -26.0 23.4
v -34.3 -25.0 15.0
v -34.0 -25.0 14.8
v -34.0 -25.3 15.0
v -34.0 -25.0 23.4
v -34.7 -24.0 15.0
v -34.0 -24.0 14.5
v -34.0 -24.0 23.4
v -34.0 -23.0 13.6
v -34.0 -23.5 14.0
v -34.0 -23.0 23.5
v -34.0 -22.0 13.4
v -34.0 -22.0 23.5
v -34.4 -21.0 13.0
v -34.0 -21.0 12.8
v -34.0 -21.3 13.0
v -34.0 -21.0 23.3
v -34.0 -20.0 12.6
v -34.5 -20.0 23.0
v -34.0 -20.5 23.0
v -34.0 -20.0 22.7
v -34.0 -19.0 12.8
v -34.0 -19.0 22.4
v -34.0 -18.6 13.0
v -35.0 -18.0 13.0
v -34.0 -18.0 13.6
v -34.5 -18.0 16.0
v -34.0 -18.0 16.6
v -34.0 -18.2 17.0
v -34.0 -18.2 18.0
v -34.7 -18.0 19.0
v -34.0 -18.0 18.3
v -34.0 -18.0 22.4
v -34.0 -17.7 14.0
v -34.0 -17.5 15.0
v -34.0 -17.7 16.0
v -34.3 -17.0 19.0
v -34.0 -17.0 18.6
v -34.0 -17.0 22.3
v -34.0 -16.6 19.0
v -34.0 -16.4 20.0
v -34.0 -16.5 21.0
v -34.0 -16.4 22.0
v -33.0 -33.0 19.9
v -33.0 -33.1 20.0
v -33.9 -33.0 21.0
v -33.0 -33.0 20.1
v -33.0 -32.0 19.4
v -33.0 -32.7 21.0
v -33.0 -32.4 22.0
v -33.0 -32.0 22.4
v -33.0 -31.0 19.2
v -33.0 -31.2 23.0
v -33.0 -31.0 23.1
v -33.0 -30.0 18.3
v -33.0 -30.7 19.0
v -33.4 -30.0 23.0
v -33.0 -30.7 23.0
v -33.0 -30.0 22.7
v -33.5 -29.0 17.0
v -33.0 -29.0 16.5
v -33.0 -29.4 17.0
v -33.0 -29.8 18.0
v -33.5 -29.0 23.0
v -33.0 -29.0 22.6
v -33.0 -28.0 15.6
v -33.0 -28.5 16.0
v -33.5 -28.0 23.0
v -33.0 -28.0 22.6
v -33.0 -27.0 15.5
v -33.5 -27.0 23.0
v -33.0 -27.0 22.5
v -33.0 -26.0 15.4
v -33.5 -26.0 23.0
v -33.0 -26.0 22.6
v -33.0 -25.0 14.8
v -33.0 -25.3 15.0
v -33.5 -25.0 23.0
v -33.0 -25.0 22.6
v -33.0 -24.0 14.5
v -33.4 -24.0 23.0
v -33.0 -24.0 22.7
v -33.0 -23.0 13.7
v -33.0 -23.3 14.0
v -33.0 -23.5 23.0
v -33.0 -23.0 23.3
v -33.0 -22.0 13.4
v -33.0 -22.0 23.2
v -33.0 -21.0 12.9
v -33.0 -21.2 13.0
v -33.5 -21.0 23.0
v -33.0 -21.6 23.0
v -33.0 -21.0 22.6
v -33.0 -20.8 13.0
v -33.5 -20.0 13.0
v -33.0 -20.0 13.5
v -33.0 -20.0 22.3
v -33.7 -19.0 13.0
v -33.0 -19.4 14.0
v -33.3 -19.0 14.0
v -33.0 -19.0 14.4
v -33.4 -19.0 22.0
v -33.0 -19.6 22.0
v -33.0 -19.0 21.6
v -33.7 -18.0 14.0
v -33.0 -18.0 14.7
v -33.6 -18.0 17.0
v -33.7 -18.0 18.0
v -33.6 -18.0 22.0
v -33.0 -18.0 21.4
v -33.0 -17.8 15.0
v -33.0 -17.6 16.0
v -33.0 -17.0 17.0
v -33.0 -17.0 17.0
v -33.4 -17.0 18.0
v -33.4 -17.0 21.0
v -33.0 -17.5 21.0
v -33.0 -17.0 20.6
v -33.7 -17.0 22.0
v -33.0 -17.0 17.0
v -33.2 -16.0 18.0
v -33.0 -16.0 17.8
v -33.4 -16.0 19.0
v -33.0 -16.0 20.0
v -33.0 -16.0 20.0
v -33.0 -15.4 18.0
v -33.0 -15.1 19.0
v -33.0 -16.0 20.0
v -32.9 -33.0 20.0
v -32.3 -32.0 19.0
v -32.0 -32.0 18.1
v -32.0 -32.2 19.0
v -32.0 -32.4 20.0
v -32.0 -32.4 21.0
v -32.0 -32.2 22.0
v -32.0 -32.0 22.2
v -32.4 -31.0 18.0
v -32.0 -31.0 17.6
v -32.0 -31.9 18.0
v -32.8 -31.0 19.0
v -32.8 -31.0 23.0
v -32.0 -31.0 22.4
v -32.3 -30.0 17.0
v -32.0 -30.0 16.7
v -32.0 -30.3 17.0
v -32.8 -30.0 18.0
v -32.0 -30.0 22.4
v -32.2 -29.0 16.0
v -32.0 -29.0 15.9
v -32.0 -29.1 16.0
v -32.0 -29.0 22.4
v -32.0 -28.0 15.6
v -32.0 -28.0 22.2
v -32.0 -27.0 15.5
v -32.3 -27.0 22.0
v -32.0 -27.5 22.0
v -32.0 -27.0 21.7
v -32.0 -26.0 15.5
v -32.0 -26.5 22.0
v -32.0 -26.0 22.2
v -32.7 -25.0 15.0
v -32.0 -25.0 15.4
v -32.0 -25.0 22.3
v -32.4 -24.0 15.0
v -32.0 -24.0 15.3
v -32.0 -24.0 22.4
v -32.6 -23.0 14.0
v -32.0 -23.0 14.5
v -32.0 -23.6 15.0
v -32.7 -23.0 23.0
v -32.0 -23.0 22.3
v -32.0 -22.0 13.7
v -32.0 -22.4 14.0
v -32.3 -22.0 22.0
v -32.0 -22.5 22.0
v -32.0 -22.0 21.6
v -32.7 -22.0 23.0
v -32.9 -21.0 13.0
v -32.0 -21.0 13.7
v -32.5 -21.0 22.0
v -32.0 -21.0 21.3
v -32.6 -20.0 14.0
v -32.0 -20.7 14.0
v -32.3 -20.0 15.0
v -32.0 -20.4 15.0
v -32.0 -20.0 15.5
v -32.3 -20.0 20.0
v -32.0 -20.4 20.0
v -32.0 -20.0 19.5
v -32.4 -20.0 21.0
v -32.0 -20.7 21.0
v -32.7 -20.0 22.0
v -32.6 -19.0 15.0
v -32.0 -19.6 16.0
v -32.4 -19.0 16.0
v -32.4 -19.0 17.0
v -32.0 -19.5 17.0
v -32.4 -19.0 18.0
v -32.0 -19.5 18.0
v -32.4 -19.0 19.0
v -32.0 -19.6 19.0
v -32.5 -19.0 20.0
v -32.6 -19.0 21.0
v -32.8 -18.0 15.0
v -32.7 -18.0 16.0
v -32.6 -18.0 17.0
v -32.6 -18.0 18.0
v -32.5 -18.0 19.0
v -32.5 -18.0 20.0
v -32.7 -18.0 21.0
v -33.0 -17.0 17.0
v -32.7 -17.0 18.0
v -32.5 -17.0 19.0
v -32.6 -17.0 20.0
v -32.8 -16.0 18.0
v -32.7 -16.0 19.0
v -33.0 -16.0 20.0
v -31.7 -32.0 19.0
v -31.5 -32.0 20.0
v -31.6 -32.0 21.0
v -31.8 -32.0 22.0
v -31.0 -31.0 17.6
v -31.0 -31.4 18.0
v -31.0 -31.6 19.0
v -31.0 -31.5 20.0
v -31.0 -31.3 21.0
v -31.0 -31.0 21.3
v -31.5 -31.0 22.0
v -31.0 -30.0 16.7
v -31.0 -30.3 17.0
v -31.5 -30.0 22.0
v -31.0 -30.0 21.4
v -31.8 -29.0 16.0
v -31.0 -29.0 16.4
v -31.3 -29.0 21.0
v -31.0 -29.5 21.0
v -31.0 -29.0 20.7
v -31.6 -29.0 22.0
v -31.4 -28.0 16.0
v -31.0 -28.0 16.3
v -31.4 -28.0 21.0
v -31.0 -28.0 20.5
v -31.8 -28.0 22.0
v -31.0 -27.0 15.6
v -31.0 -27.6 16.0
v -31.5 -27.0 21.0
v -31.0 -27.0 20.5
v -31.0 -26.0 15.6
v -31.4 -26.0 21.0
v -31.0 -26.0 20.5
v -31.8 -26.0 22.0
v -31.0 -25.0 15.7
v -31.4 -25.0 21.0
v -31.0 -25.0 20.5
v -31.7 -25.0 22.0
v -31.0 -24.0 15.6
v -31.4 -24.0 21.0
v -31.0 -24.0 20.4
v -31.6 -24.0 22.0
v -31.6 -23.0 15.0
v -31.0 -23.0 15.7
v -31.3 -23.0 20.0
v -31.0 -23.5 20.0
v -31.0 -23.0 19.5
v -31.5 -23.0 21.0
v -31.7 -23.0 22.0
v -31.8 -22.0 14.0
v -31.5 -22.0 15.0
v -31.0 -22.5 16.0
v -31.3 -22.0 16.0
v -31.0 -22.0 16.5
v -31.3 -22.0 19.0
v -31.0 -22.5 19.0
v -31.0 -22.0 18.5
v -31.5 -22.0 20.0
v -31.6 -22.0 21.0
v -31.8 -21.0 14.0
v -31.6 -21.0 15.0
v -31.5 -21.0 16.0
v -31.0 -21.6 17.0
v -31.4 -21.0 17.0
v -31.4 -21.0 18.0
v -31.0 -21.6 18.0
v -31.5 -21.0 19.0
v -31.6 -21.0 20.0
v -31.7 -21.0 21.0
v -31.7 -20.0 16.0
v -31.6 -20.0 17.0
v -31.6 -20.0 18.0
v -31.7 -20.0 19.0
v -30.6 -31.0 18.0
v -30.0 -31.0 18.8
v -30.0 -31.1 19.0
v -30.4 -31.0 20.0
v -30.0 -31.0 19.2
v -30.7 -31.0 21.0
v -30.6 -30.0 17.0
v -30.0 -30.0 17.6
v -30.0 -30.4 18.0
v -30.0 -30.3 20.0
v -30.0 -30.0 20.2
v -30.7 -30.0 21.0
v -30.0 -29.0 16.8
v -30.0 -29.3 17.0
v -30.4 -29.0 20.0
v -30.0 -29.7 20.0
v -30.0 -29.0 19.4
v -30.0 -28.0 16.9
v -30.3 -28.0 18.0
v -30.0 -28.4 18.0
v -30.0 -28.0 17.2
v -30.4 -28.0 19.0
v -30.0 -28.6 19.0
v -30.6 -28.0 20.0
v -30.3 -27.0 16.0
v -30.0 -27.8 17.0
v -30.4 -27.0 17.0
v -30.5 -27.0 18.0
v -30.5 -27.0 19.0
v -30.6 -27.0 20.0
v -30.6 -26.0 16.0
v -30.5 -26.0 17.0
v -30.5 -26.0 18.0
v -30.5 -26.0 19.0
v -30.6 -26.0 20.0
v -30.7 -25.0 16.0
v -30.5 -25.0 17.0
v -30.5 -25.0 18.0
v -30.5 -25.0 19.0
v -30.6 -25.0 20.0
v -30.6 -24.0 16.0
v -30.5 -24.0 17.0
v -30.5 -24.0 18.0
v -30.5 -24.0 19.0
v -30.7 -24.0 20.0
v -30.7 -23.0 16.0
v -30.5 -23.0 17.0
v -30.5 -23.0 18.0
v -30.7 -23.0 19.0
v -30.7 -22.0 17.0
v -30.7 -22.0 18.0
v -29.9 -31.0 19.0
v -29.7 -30.0 18.0
v -29.6 -30.0 19.0
v -29.9 -30.0 20.0
v -29.8 -29.0 17.0
v -29.6 -29.0 18.0
v -29.7 -29.0 19.0
v -29.9 -28.0 17.0
f 3 2 1
f 5 4 1
f 1 4 3
f 7 6 5
f 5 6 4
f 7 8 6
f 1 2 9
f 9 2 10
f 1 11 5
f 1 9 11
f 5 12 7
f 5 11 12
f 8 7 13
f 7 14 13
f 7 12 14
f 14 15 13
f 10 16 9
f 18 17 16
f 17 9 16
f 17 11 9
f 11 19 12
f 11 17 19
f 12 20 14
f 12 19 20
f 15 14 21
f 21 14 20
f 18 22 17
f 17 22 19
f 19 22 23
f 19 23 20
f 20 23 24
f 20 24 21
f 27 26 25
f 29 28 25
f 25 28 27
f 29 30 28
f 33 32 31
f 33 31 26
f 31 25 26
f 31 34 25
f 25 35 29
f 25 34 35
f 30 29 36
f 36 29 35
f 31 32 37
f 37 32 38
f 37 2 3
f 34 37 3
f 31 37 34
f 34 3 4
f 34 4 35
f 39 36 35
f 4 39 35
f 6 39 4
f 41 40 8
f 40 6 8
f 40 39 6
f 41 42 40
f 37 38 43
f 43 38 44
f 43 10 2
f 43 2 37
f 13 41 8
f 13 15 41
f 15 42 41
f 15 45 42
f 44 46 43
f 46 48 47
f 46 47 16
f 43 46 16
f 10 43 16
f 47 18 16
f 21 45 15
f 21 49 45
f 48 50 47
f 47 50 18
f 50 22 18
f 50 51 22
f 22 52 23
f 51 52 22
f 52 54 53
f 24 52 53
f 23 52 24
f 53 55 24
f 55 21 24
f 55 49 21
f 54 56 53
f 53 56 55
f 59 58 57
f 26 27 57
f 27 59 57
f 27 60 59
f 61 27 28
f 61 60 27
f 63 62 30
f 62 28 30
f 62 61 28
f 65 64 63
f 63 64 62
f 65 66 64
f 69 68 67
f 69 67 58
f 58 67 57
f 67 32 57
f 32 33 57
f 57 33 26
f 36 70 63
f 36 63 30
f 63 71 65
f 63 70 71
f 66 65 72
f 72 65 71
f 67 68 73
f 73 68 74
f 73 38 32
f 73 32 67
f 39 70 36
f 70 39 40
f 70 40 71
f 40 42 71
f 42 72 71
f 42 75 72
f 73 74 76
f 76 74 77
f 76 44 38
f 76 38 73
f 45 75 42
f 45 78 75
f 77 79 76
f 79 81 80
f 79 80 46
f 76 79 46
f 44 76 46
f 80 48 46
f 49 78 45
f 49 82 78
f 81 83 80
f 80 83 48
f 83 50 48
f 83 84 50
f 50 85 51
f 84 85 50
f 51 86 52
f 85 86 51
f 54 52 86
f 54 86 87
f 55 82 49
f 55 88 82
f 87 89 54
f 54 89 56
f 55 56 88
f 88 56 89
f 92 91 90
f 90 93 92
f 96 95 94
f 98 97 94
f 94 97 96
f 97 98 91
f 98 90 91
f 98 99 90
f 93 90 100
f 90 101 100
f 90 99 101
f 101 102 100
f 104 103 59
f 59 103 58
f 60 94 95
f 104 60 95
f 59 60 104
f 94 60 61
f 94 61 98
f 98 61 62
f 98 62 99
f 99 62 64
f 99 64 101
f 64 66 101
f 66 102 101
f 66 105 102
f 108 107 106
f 68 69 106
f 69 108 106
f 69 109 108
f 69 58 103
f 69 103 109
f 72 105 66
f 72 110 105
f 106 107 111
f 111 107 112
f 111 74 68
f 111 68 106
f 75 110 72
f 75 113 110
f 116 115 114
f 116 114 112
f 114 111 112
f 114 117 111
f 117 77 74
f 117 74 111
f 78 113 75
f 78 118 113
f 114 115 119
f 119 115 120
f 114 121 117
f 114 119 121
f 122 79 77
f 117 122 77
f 121 122 117
f 122 81 79
f 82 118 78
f 82 123 118
f 120 124 119
f 119 124 121
f 121 124 125
f 121 125 122
f 122 125 126
f 122 126 81
f 126 83 81
f 126 127 83
f 127 129 128
f 84 127 128
f 83 127 84
f 130 85 84
f 130 84 128
f 131 86 85
f 131 85 130
f 131 87 86
f 88 123 82
f 88 132 123
f 129 133 128
f 128 133 130
f 130 133 134
f 136 135 134
f 135 130 134
f 135 131 130
f 131 135 87
f 135 137 87
f 137 89 87
f 135 138 137
f 88 89 132
f 132 89 137
f 136 139 135
f 135 139 138
f 142 141 140
f 144 143 140
f 140 143 142
f 144 145 143
f 141 146 140
f 140 146 144
f 144 146 147
f 144 147 145
f 150 149 148
f 152 151 148
f 148 151 150
f 91 92 152
f 92 151 152
f 92 153 151
f 155 154 93
f 154 92 93
f 154 153 92
f 155 156 154
f 159 158 157
f 159 157 149
f 149 157 148
f 157 95 148
f 95 96 148
f 148 96 97
f 148 97 152
f 152 97 91
f 100 155 93
f 100 102 155
f 102 156 155
f 102 160 156
f 163 162 161
f 165 164 161
f 161 164 163
f 164 165 158
f 158 165 157
f 165 103 157
f 103 104 157
f 157 104 95
f 105 160 102
f 105 166 160
f 169 168 167
f 169 167 162
f 162 167 161
f 167 107 161
f 107 108 161
f 161 108 109
f 161 109 165
f 165 109 103
f 110 166 105
f 110 170 166
f 167 168 171
f 171 168 172
f 171 112 107
f 171 107 167
f 113 170 110
f 113 173 170
f 171 172 116
f 172 115 116
f 172 174 115
f 171 116 112
f 118 173 113
f 118 175 173
f 174 120 115
f 176 120 174
f 123 175 118
f 123 177 175
f 124 120 178
f 120 179 178
f 120 176 179
f 180 125 124
f 180 124 178
f 181 126 125
f 181 125 180
f 182 127 126
f 182 126 181
f 182 129 127
f 132 177 123
f 132 183 177
f 179 184 178
f 178 184 180
f 180 184 185
f 180 185 181
f 181 185 186
f 181 186 182
f 182 186 187
f 182 187 129
f 187 133 129
f 187 188 133
f 133 189 134
f 188 189 133
f 136 134 189
f 136 189 190
f 192 191 137
f 192 137 138
f 132 137 183
f 183 137 191
f 190 193 136
f 136 193 139
f 138 139 192
f 192 139 193
f 196 195 194
f 198 197 194
f 194 197 196
f 198 199 197
f 202 201 200
f 202 200 195
f 195 200 194
f 200 141 194
f 141 142 194
f 194 142 143
f 194 143 198
f 143 145 198
f 145 199 198
f 145 203 199
f 200 201 204
f 204 201 205
f 206 146 141
f 200 206 141
f 204 206 200
f 207 147 146
f 207 146 206
f 207 208 147
f 208 145 147
f 208 203 145
f 204 205 209
f 209 205 210
f 204 211 206
f 204 209 211
f 206 212 207
f 206 211 212
f 208 207 213
f 213 207 212
f 216 215 214
f 218 217 214
f 214 217 216
f 217 218 210
f 218 209 210
f 218 219 209
f 209 220 211
f 209 219 220
f 211 221 212
f 211 220 221
f 213 212 222
f 222 212 221
f 225 224 223
f 225 223 215
f 223 214 215
f 223 226 214
f 226 149 150
f 218 226 150
f 214 226 218
f 218 150 151
f 218 151 219
f 219 151 153
f 219 153 220
f 220 153 154
f 220 154 221
f 154 156 221
f 156 222 221
f 156 227 222
f 230 229 228
f 230 228 224
f 228 223 224
f 228 231 223
f 231 158 159
f 226 231 159
f 223 231 226
f 226 159 149
f 160 227 156
f 160 232 227
f 235 234 233
f 235 233 229
f 229 233 228
f 233 162 228
f 162 163 228
f 228 163 164
f 228 164 231
f 231 164 158
f 166 232 160
f 166 236 232
f 239 238 237
f 239 237 234
f 234 237 233
f 237 168 233
f 168 169 233
f 233 169 162
f 170 236 166
f 170 240 236
f 243 242 241
f 243 241 238
f 241 237 238
f 241 244 237
f 244 172 168
f 244 168 237
f 173 240 170
f 173 245 240
f 242 246 241
f 248 247 246
f 247 241 246
f 247 244 241
f 247 174 172
f 247 172 244
f 175 245 173
f 175 249 245
f 252 251 250
f 252 250 248
f 250 247 248
f 250 253 247
f 253 176 174
f 253 174 247
f 256 255 254
f 255 249 254
f 249 177 254
f 249 175 177
f 251 257 250
f 250 257 253
f 253 257 258
f 176 253 258
f 259 176 258
f 179 176 259
f 256 254 260
f 256 260 261
f 183 260 177
f 177 260 254
f 259 262 179
f 179 262 184
f 184 263 185
f 262 263 184
f 185 264 186
f 263 264 185
f 186 265 187
f 264 265 186
f 187 266 188
f 265 266 187
f 266 268 267
f 189 266 267
f 188 266 189
f 267 190 189
f 261 260 191
f 192 261 191
f 269 261 192
f 191 260 183
f 268 270 267
f 267 270 190
f 270 193 190
f 270 271 193
f 192 193 269
f 269 193 271
f 273 272 196
f 196 272 195
f 274 196 197
f 274 273 196
f 197 199 274
f 274 199 275
f 278 277 276
f 201 202 276
f 202 278 276
f 202 279 278
f 202 195 272
f 202 272 279
f 203 275 199
f 203 280 275
f 283 282 281
f 283 281 277
f 281 276 277
f 281 284 276
f 284 205 201
f 284 201 276
f 208 280 203
f 208 285 280
f 281 282 286
f 286 282 287
f 281 288 284
f 281 286 288
f 288 210 205
f 288 205 284
f 291 290 289
f 290 285 289
f 285 213 289
f 285 208 213
f 294 293 292
f 294 292 287
f 287 292 286
f 292 215 286
f 215 216 286
f 286 216 217
f 286 217 288
f 288 217 210
f 291 289 295
f 291 295 296
f 222 295 213
f 213 295 289
f 299 298 297
f 299 297 293
f 293 297 292
f 297 224 292
f 224 225 292
f 292 225 215
f 300 296 295
f 295 222 300
f 222 301 300
f 222 227 301
f 304 303 302
f 306 305 302
f 302 305 304
f 305 306 298
f 298 306 297
f 306 229 297
f 229 230 297
f 297 230 224
f 232 301 227
f 232 307 301
f 302 303 308
f 308 303 309
f 308 234 235
f 306 308 235
f 302 308 306
f 306 235 229
f 236 307 232
f 236 310 307
f 313 312 311
f 313 311 309
f 309 311 308
f 311 238 308
f 238 239 308
f 308 239 234
f 240 310 236
f 240 314 310
f 311 312 243
f 312 242 243
f 312 315 242
f 311 243 238
f 245 314 240
f 245 316 314
f 246 242 317
f 242 318 317
f 242 315 318
f 317 248 246
f 321 320 319
f 320 316 319
f 316 249 319
f 316 245 249
f 324 323 322
f 324 322 318
f 318 322 317
f 322 251 317
f 251 252 317
f 317 252 248
f 321 319 255
f 256 321 255
f 325 321 256
f 255 319 249
f 322 323 326
f 326 323 327
f 328 257 251
f 322 328 251
f 326 328 322
f 329 258 257
f 329 257 328
f 329 259 258
f 261 325 256
f 261 330 325
f 327 331 326
f 326 331 328
f 328 331 332
f 328 332 329
f 329 332 333
f 329 333 259
f 333 262 259
f 333 334 262
f 262 335 263
f 334 335 262
f 263 336 264
f 335 336 263
f 264 337 265
f 336 337 264
f 337 339 338
f 266 337 338
f 265 337 266
f 338 268 266
f 342 341 340
f 341 330 340
f 330 269 340
f 330 261 269
f 339 343 338
f 338 343 268
f 343 270 268
f 343 344 270
f 340 271 342
f 271 344 342
f 271 270 344
f 271 340 269
f 347 346 345
f 349 348 345
f 345 348 347
f 272 273 349
f 273 348 349
f 273 350 348
f 351 273 274
f 351 350 273
f 274 275 351
f 351 275 352
f 345 346 278
f 346 277 278
f 346 353 277
f 345 278 279
f 345 279 349
f 349 279 272
f 280 352 275
f 280 354 352
f 357 356 355
f 282 283 355
f 283 357 355
f 283 358 357
f 283 277 353
f 283 353 358
f 361 360 359
f 360 354 359
f 354 285 359
f 354 280 285
f 364 363 362
f 364 362 356
f 362 355 356
f 362 365 355
f 365 287 282
f 365 282 355
f 361 359 290
f 291 361 290
f 366 361 291
f 290 359 285
f 369 368 367
f 369 367 363
f 367 362 363
f 367 370 362
f 370 293 294
f 365 370 294
f 362 370 365
f 365 294 287
f 296 366 291
f 296 371 366
f 367 368 372
f 372 368 373
f 372 298 299
f 370 372 299
f 367 372 370
f 370 299 293
f 296 300 374
f 375 296 374
f 371 296 375
f 301 374 300
f 377 376 304
f 304 376 303
f 305 372 373
f 377 305 373
f 304 305 377
f 372 305 298
f 375 374 378
f 375 378 379
f 307 378 301
f 301 378 374
f 376 309 303
f 380 309 376
f 379 378 381
f 379 381 382
f 310 381 307
f 307 381 378
f 385 384 383
f 312 313 383
f 313 385 383
f 313 386 385
f 313 309 380
f 313 380 386
f 382 381 387
f 382 387 388
f 314 387 310
f 310 387 381
f 383 384 389
f 389 384 390
f 389 315 312
f 389 312 383
f 388 387 391
f 388 391 392
f 316 391 314
f 314 391 387
f 389 390 393
f 393 390 394
f 393 318 315
f 393 315 389
f 392 391 320
f 321 392 320
f 395 392 321
f 320 391 316
f 398 397 396
f 398 396 394
f 394 396 393
f 396 323 393
f 323 324 393
f 393 324 318
f 325 395 321
f 325 399 395
f 396 397 400
f 400 397 401
f 400 327 323
f 400 323 396
f 404 403 402
f 403 399 402
f 399 330 402
f 399 325 330
f 400 401 405
f 405 401 406
f 407 331 327
f 400 407 327
f 405 407 400
f 408 332 331
f 408 331 407
f 332 408 409
f 410 332 409
f 333 332 410
f 333 411 334
f 410 411 333
f 334 412 335
f 411 412 334
f 335 413 336
f 412 413 335
f 413 415 414
f 337 413 414
f 336 413 337
f 414 339 337
f 404 402 341
f 342 404 341
f 416 404 342
f 341 402 330
f 406 417 405
f 405 417 407
f 407 417 418
f 407 418 408
f 408 418 419
f 408 419 409
f 414 415 420
f 420 415 421
f 422 343 339
f 414 422 339
f 420 422 414
f 423 344 343
f 423 343 422
f 423 424 344
f 424 342 344
f 424 416 342
f 421 425 420
f 420 425 422
f 422 425 426
f 422 426 423
f 423 426 427
f 423 427 424
f 430 429 428
f 432 431 428
f 428 431 430
f 432 433 431
f 428 429 434
f 434 429 435
f 428 436 432
f 428 434 436
f 433 432 437
f 432 438 437
f 432 436 438
f 438 439 437
f 434 435 440
f 440 435 441
f 440 346 347
f 436 440 347
f 434 440 436
f 436 347 348
f 436 348 438
f 442 439 438
f 348 442 438
f 350 442 348
f 444 442 443
f 442 351 443
f 442 350 351
f 352 443 351
f 447 446 445
f 447 445 441
f 445 440 441
f 445 448 440
f 448 353 346
f 448 346 440
f 444 443 449
f 444 449 450
f 354 449 352
f 352 449 443
f 453 452 451
f 453 451 446
f 446 451 445
f 451 356 445
f 356 357 445
f 445 357 358
f 445 358 448
f 448 358 353
f 450 449 360
f 361 450 360
f 454 450 361
f 360 449 354
f 457 456 455
f 459 458 455
f 455 458 457
f 458 459 452
f 452 459 451
f 459 363 451
f 363 364 451
f 451 364 356
f 366 454 361
f 366 460 454
f 455 456 461
f 461 456 462
f 461 368 369
f 459 461 369
f 455 461 459
f 459 369 363
f 371 460 366
f 371 463 460
f 461 462 464
f 464 462 465
f 464 373 368
f 464 368 461
f 375 463 371
f 375 466 463
f 469 468 467
f 469 467 465
f 465 467 464
f 467 376 464
f 376 377 464
f 464 377 373
f 379 466 375
f 379 470 466
f 467 468 471
f 471 468 472
f 471 380 376
f 471 376 467
f 382 470 379
f 382 473 470
f 475 474 385
f 385 474 384
f 386 471 472
f 475 386 472
f 385 386 475
f 471 386 380
f 388 473 382
f 388 476 473
f 474 390 384
f 477 390 474
f 392 476 388
f 392 478 476
f 481 480 479
f 477 481 479
f 394 477 479
f 390 477 394
f 395 478 392
f 395 482 478
f 479 480 398
f 480 397 398
f 480 483 397
f 479 398 394
f 486 485 484
f 485 482 484
f 482 399 484
f 482 395 399
f 483 401 397
f 487 401 483
f 486 484 403
f 404 486 403
f 488 486 404
f 403 484 399
f 490 406 489
f 406 487 489
f 406 401 487
f 491 490 489
f 409 492 410
f 410 492 493
f 494 410 493
f 411 410 494
f 411 495 412
f 494 495 411
f 495 497 496
f 413 495 496
f 412 495 413
f 496 415 413
f 416 488 404
f 416 498 488
f 490 417 406
f 491 499 490
f 499 417 490
f 499 418 417
f 418 500 419
f 499 500 418
f 409 419 492
f 419 501 492
f 419 500 501
f 492 501 493
f 496 497 502
f 502 497 503
f 502 421 415
f 502 415 496
f 424 498 416
f 424 504 498
f 503 505 502
f 502 505 421
f 505 425 421
f 505 506 425
f 425 507 426
f 506 507 425
f 426 508 427
f 507 508 426
f 424 427 504
f 504 427 508
f 510 509 430
f 430 509 429
f 512 510 511
f 510 431 511
f 510 430 431
f 433 511 431
f 509 435 429
f 513 435 509
f 514 512 511
f 514 511 433
f 437 514 433
f 515 514 437
f 437 439 515
f 515 439 516
f 513 441 435
f 517 441 513
f 518 516 439
f 518 439 442
f 442 444 518
f 518 444 519
f 521 520 447
f 447 520 446
f 447 441 517
f 447 517 521
f 524 523 522
f 523 519 522
f 519 450 522
f 519 444 450
f 527 526 525
f 452 453 525
f 453 527 525
f 453 528 527
f 453 446 520
f 453 520 528
f 524 522 529
f 524 529 530
f 454 529 450
f 450 529 522
f 532 531 457
f 457 531 456
f 458 525 526
f 532 458 526
f 457 458 532
f 525 458 452
f 530 529 533
f 530 533 534
f 460 533 454
f 454 533 529
f 531 462 456
f 535 462 531
f 534 533 536
f 534 536 537
f 463 536 460
f 460 536 533
f 535 465 462
f 538 465 535
f 537 536 539
f 537 539 540
f 466 539 463
f 463 539 536
f 542 541 469
f 469 541 468
f 469 465 538
f 469 538 542
f 540 539 543
f 540 543 544
f 470 543 466
f 466 543 539
f 541 472 468
f 545 472 541
f 544 543 546
f 544 546 547
f 473 546 470
f 470 546 543
f 549 548 475
f 475 548 474
f 475 472 545
f 475 545 549
f 550 547 546
f 546 473 550
f 473 551 550
f 473 476 551
f 548 477 474
f 552 477 548
f 478 551 476
f 478 553 551
f 555 554 481
f 481 554 480
f 481 477 552
f 481 552 555
f 558 557 556
f 557 553 556
f 553 482 556
f 553 478 482
f 560 483 559
f 483 554 559
f 483 480 554
f 561 560 559
f 558 556 485
f 486 558 485
f 562 558 486
f 485 556 482
f 563 487 560
f 560 487 483
f 560 561 564
f 565 560 564
f 563 560 565
f 566 565 564
f 569 568 567
f 568 562 567
f 562 488 567
f 562 486 488
f 563 489 487
f 489 563 491
f 563 570 491
f 563 565 570
f 565 566 571
f 565 571 570
f 493 572 494
f 573 495 494
f 573 494 572
f 573 497 495
f 569 567 574
f 569 574 575
f 498 574 488
f 488 574 567
f 570 499 491
f 571 576 570
f 576 499 570
f 576 500 499
f 500 577 501
f 576 577 500
f 501 577 493
f 577 578 493
f 578 572 493
f 578 577 579
f 572 580 573
f 572 578 580
f 580 503 497
f 580 497 573
f 583 582 581
f 581 582 575
f 574 581 575
f 584 581 574
f 504 584 498
f 498 584 574
f 579 585 578
f 587 586 585
f 586 578 585
f 586 580 578
f 588 505 503
f 580 588 503
f 586 588 580
f 589 506 505
f 589 505 588
f 590 583 581
f 506 590 581
f 507 506 581
f 590 506 589
f 507 581 508
f 508 581 584
f 508 584 504
f 587 591 586
f 586 591 588
f 588 591 592
f 588 592 589
f 589 592 593
f 589 593 590
f 594 509 510
f 512 594 510
f 597 596 595
f 598 597 594
f 597 513 594
f 513 509 594
f 597 595 513
f 598 594 512
f 514 598 512
f 599 598 514
f 600 514 515
f 600 599 514
f 515 516 600
f 600 516 601
f 604 603 602
f 604 602 596
f 602 595 596
f 602 605 595
f 605 517 513
f 605 513 595
f 516 518 606
f 607 516 606
f 601 516 607
f 519 606 518
f 610 609 608
f 610 608 603
f 608 602 603
f 608 611 602
f 611 520 521
f 605 611 521
f 602 611 605
f 605 521 517
f 607 606 523
f 524 607 523
f 612 607 524
f 523 606 519
f 615 614 613
f 615 613 609
f 609 613 608
f 613 526 608
f 526 527 608
f 608 527 528
f 608 528 611
f 611 528 520
f 530 612 524
f 530 616 612
f 613 614 532
f 614 531 532
f 614 617 531
f 613 532 526
f 534 616 530
f 534 618 616
f 617 535 531
f 619 535 617
f 622 621 620
f 621 618 620
f 618 537 620
f 618 534 537
f 619 538 535
f 623 538 619
f 624 622 620
f 620 537 624
f 537 625 624
f 537 540 625
f 626 541 542
f 627 626 542
f 538 627 542
f 623 627 538
f 544 625 540
f 544 628 625
f 629 545 626
f 626 545 541
f 626 627 630
f 626 630 629
f 547 628 544
f 547 631 628
f 632 548 549
f 633 632 549
f 633 549 545
f 634 633 545
f 629 634 545
f 634 629 630
f 547 550 635
f 636 547 635
f 631 547 636
f 551 635 550
f 638 637 632
f 637 548 632
f 637 552 548
f 638 632 633
f 641 640 639
f 639 640 636
f 635 639 636
f 642 639 635
f 553 642 551
f 551 642 635
f 643 554 555
f 644 643 555
f 552 644 555
f 637 644 552
f 641 639 645
f 641 645 646
f 558 645 557
f 645 642 557
f 645 639 642
f 557 642 553
f 643 559 554
f 648 647 561
f 648 561 559
f 644 648 559
f 643 644 559
f 650 649 647
f 650 647 648
f 651 649 650
f 654 653 652
f 656 655 652
f 656 652 653
f 655 656 646
f 645 655 646
f 657 655 645
f 562 657 558
f 558 657 645
f 647 564 561
f 564 647 566
f 647 658 566
f 647 649 658
f 649 651 659
f 660 649 659
f 658 649 660
f 662 661 660
f 662 660 659
f 664 663 661
f 664 661 662
f 666 665 663
f 666 663 664
f 665 666 654
f 652 665 654
f 667 665 652
f 668 652 655
f 667 652 668
f 569 668 568
f 668 657 568
f 668 655 657
f 568 657 562
f 669 571 658
f 658 571 566
f 670 658 660
f 669 658 670
f 671 660 661
f 670 660 671
f 672 661 663
f 671 661 672
f 673 663 665
f 672 663 673
f 674 665 667
f 673 665 674
f 675 667 668
f 674 667 675
f 575 675 569
f 569 675 668
f 669 576 571
f 576 669 577
f 577 669 670
f 577 670 579
f 670 676 579
f 670 671 676
f 677 671 672
f 676 671 677
f 678 672 673
f 677 672 678
f 679 673 674
f 678 673 679
f 583 679 582
f 679 675 582
f 679 674 675
f 582 675 575
f 676 585 579
f 585 676 587
f 676 680 587
f 676 677 680
f 681 677 678
f 680 677 681
f 682 678 679
f 681 678 682
f 590 682 583
f 583 682 679
f 680 591 587
f 591 680 592
f 592 680 681
f 592 681 593
f 593 681 682
f 593 682 590
f 683 596 597
f 598 684 597
f 597 684 683
f 599 685 598
f 598 685 684
f 600 686 599
f 599 686 685
f 601 686 600
f 688 687 604
f 604 687 603
f 604 596 683
f 689 604 683
f 688 604 689
f 689 683 684
f 689 684 690
f 690 684 685
f 690 685 691
f 693 692 691
f 685 693 691
f 686 693 685
f 607 693 601
f 601 693 686
f 695 694 610
f 610 694 609
f 610 603 687
f 610 687 695
f 692 693 696
f 692 696 697
f 612 696 607
f 607 696 693
f 698 614 615
f 699 698 615
f 609 699 615
f 694 699 609
f 702 701 700
f 700 701 697
f 696 700 697
f 703 700 696
f 616 703 612
f 612 703 696
f 704 617 698
f 698 617 614
f 698 699 705
f 698 705 704
f 702 700 706
f 702 706 707
f 708 700 703
f 706 700 708
f 618 708 616
f 616 708 703
f 710 709 704
f 709 617 704
f 709 619 617
f 710 704 705
f 707 706 711
f 707 711 712
f 622 711 621
f 711 708 621
f 711 706 708
f 621 708 618
f 709 623 619
f 713 623 709
f 712 711 714
f 712 714 715
f 624 716 622
f 716 711 622
f 716 714 711
f 625 716 624
f 713 627 623
f 717 627 713
f 715 714 718
f 715 718 719
f 720 714 716
f 718 714 720
f 628 720 625
f 625 720 716
f 717 630 627
f 721 630 717
f 719 718 722
f 719 722 723
f 724 718 720
f 722 718 724
f 631 724 628
f 628 724 720
f 725 633 634
f 726 725 634
f 630 726 634
f 721 726 630
f 729 728 727
f 727 728 723
f 722 727 723
f 730 727 722
f 731 722 724
f 730 722 731
f 636 731 631
f 631 731 724
f 732 637 638
f 633 725 638
f 725 732 638
f 725 733 732
f 725 726 734
f 735 725 734
f 733 725 735
f 736 735 734
f 739 738 737
f 737 738 729
f 727 737 729
f 740 737 727
f 741 727 730
f 740 727 741
f 641 741 640
f 741 731 640
f 741 730 731
f 640 731 636
f 742 644 732
f 732 644 637
f 743 732 733
f 742 732 743
f 744 733 735
f 743 733 744
f 735 736 745
f 746 735 745
f 744 735 746
f 748 747 746
f 748 746 745
f 747 748 739
f 737 747 739
f 749 747 737
f 750 737 740
f 749 737 750
f 751 740 741
f 750 740 751
f 646 751 641
f 641 751 741
f 742 648 644
f 648 742 650
f 650 742 743
f 650 743 651
f 743 752 651
f 743 744 752
f 753 744 746
f 752 744 753
f 754 746 747
f 753 746 754
f 755 747 749
f 754 747 755
f 654 755 653
f 755 750 653
f 755 749 750
f 653 750 656
f 656 750 751
f 656 751 646
f 752 659 651
f 659 752 662
f 662 752 753
f 662 753 664
f 664 753 754
f 664 754 666
f 666 754 755
f 666 755 654
f 756 687 688
f 756 688 757
f 688 758 757
f 688 689 758
f 760 758 759
f 758 690 759
f 758 689 690
f 691 761 690
f 690 761 759
f 692 761 691
f 762 694 695
f 763 762 695
f 763 695 687
f 764 763 687
f 756 764 687
f 764 756 757
f 765 760 759
f 767 766 765
f 759 767 765
f 761 767 759
f 697 767 692
f 692 767 761
f 769 768 762
f 768 694 762
f 768 699 694
f 769 762 763
f 772 771 770
f 770 771 766
f 770 766 767
f 702 770 767
f 701 702 767
f 701 767 697
f 768 705 699
f 773 705 768
f 776 775 774
f 778 777 774
f 778 774 775
f 777 778 772
f 770 777 772
f 779 777 770
f 707 779 702
f 702 779 770
f 780 709 710
f 705 773 781
f 780 705 781
f 782 780 781
f 710 705 780
f 782 781 776
f 774 782 776
f 783 782 774
f 784 774 777
f 783 774 784
f 785 777 779
f 784 777 785
f 712 785 707
f 707 785 779
f 786 713 780
f 780 713 709
f 787 780 782
f 786 780 787
f 788 782 783
f 787 782 788
f 789 783 784
f 788 783 789
f 790 784 785
f 789 784 790
f 715 790 712
f 712 790 785
f 791 717 786
f 786 717 713
f 792 786 787
f 791 786 792
f 793 787 788
f 792 787 793
f 794 788 789
f 793 788 794
f 795 789 790
f 794 789 795
f 719 795 715
f 715 795 790
f 796 721 791
f 791 721 717
f 797 791 792
f 796 791 797
f 798 792 793
f 797 792 798
f 799 793 794
f 798 793 799
f 800 794 795
f 799 794 800
f 723 800 719
f 719 800 795
f 801 726 796
f 796 726 721
f 802 796 797
f 801 796 802
f 803 797 798
f 802 797 803
f 804 798 799
f 803 798 804
f 729 804 728
f 804 800 728
f 804 799 800
f 728 800 723
f 801 734 726
f 734 801 736
f 801 805 736
f 801 802 805
f 806 802 803
f 805 802 806
f 739 806 738
f 806 804 738
f 806 803 804
f 738 804 729
f 805 745 736
f 745 805 748
f 748 805 806
f 748 806 739
f 807 757 758
f 760 807 758
f 808 763 764
f 757 807 764
f 807 808 764
f 807 809 808
f 765 810 760
f 810 807 760
f 810 809 807
f 766 810 765
f 811 768 769
f 763 808 769
f 808 811 769
f 808 812 811
f 813 808 809
f 812 808 813
f 772 813 771
f 813 810 771
f 813 809 810
f 771 810 766
f 814 773 811
f 811 773 768
f 776 814 775
f 814 812 775
f 814 811 812
f 775 812 778
f 778 812 813
f 778 813 772
f 814 781 773
f 781 814 776
