v 17.9 49.0 21.0
v 18.0 49.0 20.9
v 18.0 48.9 21.0
v 18.0 49.0 21.1
v 17.8 50.0 20.0
v 18.0 50.0 19.7
v 18.0 49.6 20.0
v 17.6 50.0 21.0
v 18.0 50.0 21.5
v 17.6 51.0 20.0
v 18.0 51.0 19.6
v 17.5 51.0 21.0
v 18.0 50.6 22.0
v 17.7 51.0 22.0
v 18.0 51.0 22.4
v 17.8 52.0 20.0
v 18.0 52.0 19.7
v 17.6 52.0 21.0
v 17.6 52.0 22.0
v 18.0 52.0 22.6
v 17.8 52.0 24.0
v 18.0 52.0 23.5
v 18.0 51.7 24.0
v 18.0 51.8 25.0
v 17.8 52.0 25.0
v 18.0 52.0 25.2
v 18.0 52.3 20.0
v 18.0 52.6 21.0
v 17.9 53.0 22.0
v 18.0 53.0 21.7
v 18.0 53.0 22.3
v 17.6 53.0 24.0
v 18.0 53.0 23.4
v 17.8 53.0 25.0
v 18.0 53.0 25.2
v 18.0 53.2 22.0
v 17.9 54.0 24.0
v 18.0 54.0 23.8
v 18.0 54.0 24.2
v 18.0 53.4 25.0
v 18.0 54.1 24.0
v 18.9 47.0 21.0
v 19.0 47.0 20.8
v 19.0 46.9 21.0
v 19.0 47.0 21.2
v 18.7 48.0 20.0
v 19.0 48.0 19.6
v 19.0 47.5 20.0
v 18.6 48.0 21.0
v 19.0 48.0 21.5
v 18.4 49.0 20.0
v 19.0 49.0 19.5
v 19.0 49.0 21.7
v 19.0 50.0 19.3
v 19.0 49.4 22.0
v 18.5 50.0 22.0
v 19.0 50.0 22.4
v 18.6 51.0 19.0
v 19.0 51.0 18.6
v 19.0 50.4 19.0
v 19.0 50.5 23.0
v 18.5 51.0 23.0
v 19.0 50.5 24.0
v 18.5 51.0 24.0
v 19.0 50.7 25.0
v 18.7 51.0 25.0
v 19.0 51.0 25.3
v 18.5 52.0 19.0
v 19.0 52.0 18.5
v 18.3 52.0 23.0
v 19.0 52.0 25.6
v 18.8 53.0 19.0
v 19.0 53.0 18.8
v 18.4 53.0 20.0
v 18.3 53.0 21.0
v 18.3 53.0 23.0
v 19.0 53.0 25.6
v 19.0 53.3 19.0
v 18.9 54.0 20.0
v 19.0 54.0 19.9
v 18.5 54.0 21.0
v 18.4 54.0 22.0
v 18.5 54.0 23.0
v 18.5 54.0 25.0
v 19.0 54.0 25.4
v 19.0 54.1 20.0
v 18.8 55.0 21.0
v 19.0 55.0 20.8
v 18.8 55.0 22.0
v 19.0 55.0 22.6
v 19.0 54.8 23.0
v 18.8 55.0 24.0
v 19.0 55.0 23.4
v 19.0 55.0 24.4
v 19.0 54.5 25.0
v 19.0 55.2 21.0
v 19.0 55.3 22.0
v 19.0 55.2 24.0
v 19.7 46.0 20.0
v 20.0 46.0 19.6
v 20.0 45.6 20.0
v 20.0 45.6 21.0
v 19.7 46.0 21.0
v 20.0 46.0 21.5
v 19.7 47.0 19.0
v 20.0 47.0 18.7
v 20.0 46.6 19.0
v 19.3 47.0 20.0
v 20.0 46.4 22.0
v 19.5 47.0 22.0
v 20.0 46.9 23.0
v 19.9 47.0 23.0
v 20.0 47.0 23.1
v 19.5 48.0 19.0
v 20.0 48.0 18.4
v 19.5 48.0 22.0
v 20.0 48.0 22.6
v 20.0 47.1 23.0
v 19.6 49.0 18.0
v 20.0 49.0 17.1
v 20.0 48.4 18.0
v 19.4 49.0 19.0
v 19.4 49.0 22.0
v 20.0 49.0 22.6
v 19.9 50.0 17.0
v 20.0 50.0 16.9
v 20.0 49.2 17.0
v 19.6 50.0 18.0
v 19.3 50.0 19.0
v 20.0 50.0 23.0
v 19.6 50.0 24.0
v 20.0 50.0 23.0
v 20.0 49.6 24.0
v 20.0 49.8 25.0
v 19.7 50.0 25.0
v 20.0 50.0 25.2
v 20.0 51.0 17.0
v 20.0 51.0 17.0
v 19.5 51.0 18.0
v 20.0 50.0 23.0
v 20.0 51.0 25.7
v 20.0 51.0 17.0
v 19.6 52.0 18.0
v 20.0 52.0 17.6
v 20.0 51.5 26.0
v 19.6 52.0 26.0
v 20.0 52.0 26.3
v 20.0 52.5 18.0
v 20.0 53.0 18.4
v 19.5 53.0 26.0
v 20.0 53.0 26.4
v 20.0 53.6 19.0
v 19.9 54.0 20.0
v 20.0 54.0 20.0
v 20.0 54.0 20.0
v 19.6 54.0 26.0
v 20.0 54.0 26.4
v 20.0 55.0 20.5
v 19.2 55.0 23.0
v 19.3 55.0 25.0
v 19.8 55.0 26.0
v 20.0 55.0 26.2
v 20.0 55.4 21.0
v 20.0 55.7 22.0
v 19.7 56.0 23.0
v 20.0 56.0 22.6
v 19.6 56.0 24.0
v 19.7 56.0 25.0
v 20.0 56.0 25.3
v 20.0 55.3 26.0
v 20.0 56.3 23.0
v 20.0 56.4 24.0
v 20.0 56.3 25.0
v 20.8 44.0 20.0
v 21.0 44.0 19.8
v 21.0 43.8 20.0
v 21.0 43.9 21.0
v 20.9 44.0 21.0
v 21.0 44.0 21.1
v 20.5 45.0 20.0
v 21.0 45.0 19.4
v 20.5 45.0 21.0
v 21.0 45.0 21.6
v 20.5 46.0 19.0
v 21.0 46.0 18.5
v 21.0 45.4 19.0
v 21.0 45.3 22.0
v 20.4 46.0 22.0
v 21.0 45.6 23.0
v 20.7 46.0 23.0
v 21.0 46.0 23.4
v 20.7 47.0 18.0
v 21.0 47.0 17.7
v 21.0 46.5 18.0
v 21.0 47.0 23.6
v 20.4 48.0 18.0
v 21.0 48.0 17.6
v 20.4 48.0 23.0
v 21.0 48.0 23.7
v 21.0 49.0 17.5
v 20.4 49.0 23.0
v 21.0 48.4 24.0
v 20.6 49.0 24.0
v 21.0 49.0 24.5
v 20.2 50.0 17.0
v 21.0 50.0 17.8
v 20.0 50.0 23.0
v 21.0 49.4 25.0
v 21.0 50.0 25.6
v 20.0 51.0 17.0
v 21.0 51.0 17.5
v 21.0 50.5 26.0
v 20.5 51.0 26.0
v 21.0 51.0 26.4
v 21.0 52.0 17.5
v 21.0 52.0 26.6
v 20.4 53.0 18.0
v 21.0 53.0 17.5
v 21.0 53.0 26.6
v 20.7 54.0 18.0
v 21.0 54.0 17.6
v 20.4 54.0 19.0
v 20.0 54.0 20.0
v 21.0 54.0 26.6
v 21.0 54.5 18.0
v 20.7 55.0 19.0
v 21.0 55.0 18.5
v 20.5 55.0 20.0
v 21.0 55.0 26.5
v 21.0 55.4 19.0
v 21.0 55.5 20.0
v 21.0 55.7 21.0
v 20.5 56.0 22.0
v 21.0 56.0 21.4
v 21.0 55.6 26.0
v 21.0 56.0 25.6
v 21.0 56.5 22.0
v 21.0 56.8 23.0
v 21.0 56.9 24.0
v 20.8 57.0 25.0
v 21.0 57.0 24.3
v 21.0 57.0 25.2
v 20.8 58.0 23.0
v 21.0 58.0 22.7
v 21.0 57.5 23.0
v 21.0 57.2 24.0
v 20.8 58.0 24.0
v 21.0 57.4 25.0
v 21.0 58.0 24.4
v 20.9 59.0 23.0
v 21.0 59.0 22.9
v 21.0 59.0 23.2
v 21.0 58.4 24.0
v 21.0 59.1 23.0
v 21.8 44.0 18.0
v 22.0 44.0 17.8
v 22.0 43.8 18.0
v 22.0 43.6 19.0
v 21.6 44.0 19.0
v 22.0 43.6 20.0
v 22.0 44.0 21.0
v 22.0 43.9 22.0
v 21.8 44.0 22.0
v 22.0 44.0 22.3
v 21.6 45.0 18.0
v 22.0 45.0 17.5
v 21.3 45.0 19.0
v 21.3 45.0 22.0
v 22.0 44.4 23.0
v 21.5 45.0 23.0
v 22.0 44.7 24.0
v 21.8 45.0 24.0
v 22.0 45.0 24.3
v 21.9 46.0 17.0
v 22.0 46.0 16.9
v 22.0 45.8 17.0
v 21.3 46.0 18.0
v 21.5 46.0 24.0
v 22.0 46.0 24.9
v 22.0 46.2 17.0
v 22.0 47.0 17.3
v 21.5 47.0 24.0
v 22.0 46.2 25.0
v 21.9 47.0 25.0
v 22.0 47.0 25.1
v 22.0 48.0 17.5
v 21.4 48.0 24.0
v 21.9 48.0 25.0
v 22.0 48.0 25.1
v 22.0 49.0 17.5
v 21.6 49.0 25.0
v 22.0 49.0 25.3
v 22.0 50.0 17.6
v 22.0 49.9 26.0
v 21.8 50.0 26.0
v 22.0 50.0 26.1
v 22.0 51.0 17.4
v 22.0 50.9 27.0
v 21.9 51.0 27.0
v 22.0 51.0 27.1
v 22.0 52.0 17.2
v 21.5 52.0 27.0
v 22.0 52.0 28.0
v 22.0 52.0 28.0
v 22.0 52.0 28.0
v 21.8 53.0 16.0
v 22.0 53.0 15.6
v 22.0 52.8 16.0
v 22.0 52.3 17.0
v 21.5 53.0 17.0
v 21.4 53.0 27.0
v 21.8 53.0 28.0
v 22.0 53.0 28.2
v 21.7 54.0 14.0
v 22.0 54.0 13.7
v 22.0 53.5 14.0
v 22.0 53.4 15.0
v 21.2 54.0 15.0
v 21.4 54.0 16.0
v 21.4 54.0 17.0
v 21.4 54.0 27.0
v 22.0 54.0 27.6
v 22.0 53.4 28.0
v 21.7 55.0 14.0
v 22.0 55.0 13.7
v 21.5 55.0 15.0
v 21.5 55.0 16.0
v 21.5 55.0 17.0
v 21.3 55.0 18.0
v 21.5 55.0 27.0
v 22.0 55.0 27.5
v 22.0 55.4 14.0
v 21.8 56.0 15.0
v 22.0 56.0 14.6
v 21.6 56.0 16.0
v 21.6 56.0 17.0
v 21.6 56.0 18.0
v 21.5 56.0 19.0
v 21.4 56.0 20.0
v 21.2 56.0 21.0
v 22.0 56.0 26.0
v 22.0 56.0 26.0
v 21.9 56.0 27.0
v 22.0 56.0 26.2
v 22.0 56.0 27.1
v 22.0 56.2 15.0
v 22.0 56.4 16.0
v 22.0 56.4 17.0
v 22.0 56.5 18.0
v 22.0 56.6 19.0
v 21.7 57.0 20.0
v 22.0 57.0 19.5
v 21.5 57.0 21.0
v 21.4 57.0 22.0
v 21.2 57.0 23.0
v 21.1 57.0 24.0
v 22.0 57.0 25.8
v 22.0 56.1 27.0
v 22.0 57.4 20.0
v 21.7 58.0 21.0
v 22.0 58.0 20.6
v 21.4 58.0 22.0
v 21.3 58.0 25.0
v 22.0 57.5 26.0
v 21.8 58.0 26.0
v 22.0 58.0 26.3
v 22.0 58.4 21.0
v 21.7 59.0 22.0
v 22.0 59.0 21.6
v 21.3 59.0 24.0
v 21.2 59.0 25.0
v 22.0 59.0 25.7
v 22.0 58.6 26.0
v 22.0 59.3 22.0
v 22.0 59.6 23.0
v 22.0 59.5 24.0
v 22.0 59.5 25.0
v 23.0 44.0 17.4
v 23.0 43.5 18.0
v 23.0 43.4 19.0
v 23.0 43.4 20.0
v 23.0 43.5 21.0
v 23.0 43.4 22.0
v 23.0 43.6 23.0
v 22.4 44.0 23.0
v 23.0 43.9 24.0
v 22.9 44.0 24.0
v 23.0 44.0 24.1
v 22.5 45.0 17.0
v 23.0 45.0 16.6
v 23.0 44.5 17.0
v 23.0 45.0 24.4
v 23.0 46.0 16.4
v 22.7 46.0 24.0
v 23.0 45.7 24.0
v 23.0 46.0 23.8
v 22.5 47.0 17.0
v 23.0 47.0 16.6
v 22.5 47.0 24.0
v 23.0 47.0 23.7
v 22.1 47.0 25.0
v 23.0 47.5 17.0
v 23.0 48.0 17.3
v 22.6 48.0 24.0
v 23.0 48.0 23.7
v 22.1 48.0 25.0
v 23.0 49.0 17.5
v 22.6 49.0 24.0
v 23.0 49.0 23.7
v 22.2 49.0 25.0
v 23.0 50.0 17.4
v 22.8 50.0 24.0
v 23.0 50.0 23.8
v 22.5 50.0 25.0
v 22.1 50.0 26.0
v 22.8 51.0 17.0
v 23.0 51.0 16.9
v 23.0 50.8 17.0
v 23.0 50.4 24.0
v 23.0 51.0 24.6
v 22.8 51.0 25.0
v 22.6 51.0 26.0
v 22.1 51.0 27.0
v 22.3 52.0 17.0
v 23.0 52.0 16.4
v 23.0 51.2 25.0
v 23.0 51.4 26.0
v 23.0 52.0 26.9
v 22.8 52.0 27.0
v 22.0 52.0 28.0
v 23.0 53.0 15.3
v 23.0 52.4 16.0
v 23.0 52.1 27.0
v 23.0 52.6 28.0
v 23.0 53.0 28.3
v 23.0 54.0 13.0
v 23.0 54.0 13.0
v 23.0 54.0 13.0
v 22.7 54.0 14.0
v 23.0 54.0 13.2
v 23.0 54.0 14.1
v 23.0 53.3 15.0
v 22.3 54.0 28.0
v 23.0 54.0 29.0
v 23.0 54.0 29.0
v 23.0 54.0 29.0
v 22.8 55.0 13.0
v 23.0 55.0 12.8
v 23.0 54.1 14.0
v 22.5 55.0 28.0
v 23.0 55.0 28.9
v 23.0 54.3 29.0
v 23.0 55.3 13.0
v 22.6 56.0 14.0
v 23.0 56.0 13.7
v 22.0 56.0 26.0
v 23.0 55.6 28.0
v 23.0 56.0 27.7
v 23.0 56.3 14.0
v 23.0 56.6 15.0
v 23.0 56.8 16.0
v 22.6 57.0 17.0
v 23.0 57.0 16.4
v 22.5 57.0 18.0
v 22.4 57.0 19.0
v 22.2 57.0 26.0
v 22.5 57.0 27.0
v 23.0 57.0 27.5
v 23.0 57.4 17.0
v 23.0 57.5 18.0
v 23.0 57.7 19.0
v 22.5 58.0 20.0
v 23.0 58.0 19.4
v 22.5 58.0 27.0
v 23.0 58.0 27.5
v 23.0 58.5 20.0
v 22.5 59.0 21.0
v 23.0 59.0 20.5
v 22.2 59.0 26.0
v 22.1 59.0 27.0
v 23.0 59.0 27.5
v 23.0 59.4 21.0
v 23.0 59.7 22.0
v 22.6 60.0 23.0
v 23.0 60.0 22.5
v 22.5 60.0 24.0
v 22.5 60.0 25.0
v 22.6 60.0 26.0
v 22.6 60.0 27.0
v 23.0 60.0 27.4
v 23.0 60.3 23.0
v 23.0 60.5 24.0
v 23.0 60.5 25.0
v 23.0 60.6 26.0
v 22.9 61.0 27.0
v 23.0 61.0 26.8
v 23.0 61.0 27.1
v 23.0 61.1 27.0
v 23.9 42.0 18.0
v 24.0 42.0 17.9
v 24.0 41.9 18.0
v 24.0 42.0 18.1
v 23.8 43.0 17.0
v 24.0 43.0 16.8
v 24.0 42.7 17.0
v 23.4 43.0 18.0
v 24.0 42.4 19.0
v 23.5 43.0 19.0
v 24.0 42.6 20.0
v 23.5 43.0 20.0
v 24.0 42.8 21.0
v 23.7 43.0 21.0
v 24.0 43.0 22.0
v 24.0 43.0 22.0
v 24.0 43.0 22.0
v 23.4 44.0 17.0
v 24.0 44.0 16.5
v 24.0 43.7 23.0
v 23.1 44.0 24.0
v 24.0 44.0 23.4
v 23.7 45.0 16.0
v 24.0 45.0 15.7
v 24.0 44.6 16.0
v 24.0 44.8 24.0
v 24.0 45.0 24.1
v 23.5 46.0 16.0
v 24.0 46.0 15.6
v 24.0 45.3 24.0
v 24.0 46.0 23.7
v 23.7 47.0 16.0
v 24.0 47.0 15.7
v 24.0 47.0 23.6
v 24.0 47.4 16.0
v 23.4 48.0 17.0
v 24.0 48.0 16.5
v 24.0 48.0 23.6
v 24.0 48.6 17.0
v 24.0 49.0 17.3
v 24.0 49.0 23.5
v 24.0 50.0 17.5
v 24.0 50.0 23.5
v 23.3 51.0 17.0
v 24.0 51.0 17.3
v 23.6 51.0 24.0
v 24.0 51.0 23.8
v 23.5 52.0 16.0
v 24.0 52.0 15.2
v 24.0 51.7 16.0
v 24.0 51.3 17.0
v 24.0 51.3 24.0
v 24.0 51.6 25.0
v 24.0 51.7 26.0
v 24.0 52.0 27.0
v 23.8 52.0 27.0
v 24.0 52.0 27.0
v 23.5 53.0 15.0
v 24.0 53.0 14.7
v 24.0 52.2 15.0
v 24.0 53.0 27.6
v 23.4 53.0 28.0
v 23.4 54.0 13.0
v 24.0 54.0 14.3
v 24.0 53.5 28.0
v 23.0 54.0 29.0
v 24.0 54.0 28.4
v 24.0 55.0 12.8
v 24.0 54.1 13.0
v 24.0 54.3 14.0
v 24.0 55.0 28.6
v 24.0 55.3 13.0
v 24.0 56.0 13.5
v 23.3 56.0 28.0
v 24.0 56.0 28.5
v 24.0 56.5 14.0
v 23.6 57.0 15.0
v 24.0 57.0 14.6
v 23.3 57.0 16.0
v 23.5 57.0 28.0
v 24.0 57.0 28.5
v 24.0 57.4 15.0
v 23.7 58.0 16.0
v 24.0 58.0 15.6
v 23.5 58.0 17.0
v 23.5 58.0 18.0
v 23.3 58.0 19.0
v 23.6 58.0 28.0
v 24.0 58.0 28.4
v 24.0 58.4 16.0
v 24.0 58.5 17.0
v 24.0 58.6 18.0
v 23.7 59.0 19.0
v 24.0 59.0 18.5
v 23.4 59.0 20.0
v 24.0 58.5 28.0
v 24.0 59.0 27.7
v 24.0 59.4 19.0
v 24.0 59.6 20.0
v 23.6 60.0 21.0
v 24.0 60.0 20.5
v 23.4 60.0 22.0
v 24.0 60.0 27.7
v 24.0 60.4 21.0
v 24.0 60.5 22.0
v 24.0 60.7 23.0
v 23.6 61.0 24.0
v 24.0 61.0 23.5
v 23.4 61.0 25.0
v 23.3 61.0 26.0
v 24.0 60.6 28.0
v 23.8 61.0 28.0
v 24.0 61.0 28.2
v 24.0 61.4 24.0
v 23.8 62.0 25.0
v 24.0 62.0 24.7
v 23.6 62.0 26.0
v 23.5 62.0 27.0
v 24.0 62.0 27.8
v 24.0 61.7 28.0
v 24.0 62.2 25.0
v 24.0 62.4 26.0
v 23.8 63.0 27.0
v 24.0 63.0 26.7
v 24.0 62.2 28.0
v 23.5 63.0 28.0
v 24.0 62.7 29.0
v 23.5 63.0 29.0
v 24.0 63.0 29.2
v 24.0 63.3 27.0
v 23.7 64.0 28.0
v 24.0 64.0 28.0
v 24.0 64.0 28.0
v 24.0 63.2 29.0
v 24.0 64.0 28.0
v 25.0 42.0 17.7
v 25.0 41.8 18.0
v 25.0 41.9 19.0
v 24.8 42.0 19.0
v 25.0 42.0 19.2
v 25.0 43.0 16.7
v 25.0 42.7 17.0
v 25.0 42.5 20.0
v 24.4 43.0 21.0
v 25.0 43.0 20.6
v 24.0 43.0 22.0
v 25.0 44.0 16.3
v 25.0 43.5 21.0
v 25.0 44.0 21.6
v 24.7 44.0 22.0
v 24.4 44.0 23.0
v 25.0 45.0 15.1
v 25.0 44.3 16.0
v 25.0 44.3 22.0
v 25.0 44.6 23.0
v 24.2 45.0 24.0
v 25.0 45.0 23.4
v 25.0 46.0 15.3
v 25.0 45.6 24.0
v 24.5 46.0 24.0
v 25.0 46.0 24.3
v 25.0 47.0 15.4
v 24.5 47.0 24.0
v 25.0 47.0 24.4
v 24.5 48.0 16.0
v 25.0 48.0 15.6
v 24.6 48.0 24.0
v 25.0 48.0 24.3
v 25.0 48.5 16.0
v 24.4 49.0 17.0
v 25.0 49.0 16.5
v 25.0 48.5 24.0
v 25.0 49.0 23.7
v 25.0 49.8 17.0
v 25.0 50.0 18.0
v 25.0 50.0 18.0
v 25.0 50.0 18.0
v 25.0 50.0 23.4
v 24.8 51.0 18.0
v 25.0 51.0 18.2
v 25.0 51.0 23.5
v 24.5 52.0 16.0
v 25.0 52.0 16.5
v 25.0 51.6 17.0
v 25.0 51.2 18.0
v 25.0 51.6 24.0
v 24.6 52.0 25.0
v 25.0 52.0 24.5
v 24.3 52.0 26.0
v 24.0 52.0 27.0
v 24.7 53.0 15.0
v 25.0 53.0 15.2
v 25.0 52.4 16.0
v 25.0 52.5 25.0
v 25.0 53.0 25.6
v 24.7 53.0 26.0
v 24.5 53.0 27.0
v 25.0 54.0 14.3
v 25.0 53.1 15.0
v 25.0 53.4 26.0
v 25.0 53.6 27.0
v 24.5 54.0 28.0
v 25.0 54.0 27.4
v 24.3 55.0 13.0
v 25.0 55.0 13.5
v 25.0 54.3 14.0
v 25.0 54.6 28.0
v 25.0 55.0 28.3
v 25.0 56.0 13.7
v 25.0 55.9 29.0
v 24.8 56.0 29.0
v 25.0 56.0 29.1
v 25.0 56.4 14.0
v 25.0 57.0 14.4
v 24.5 57.0 29.0
v 25.0 57.0 29.8
v 24.6 58.0 15.0
v 25.0 58.0 14.7
v 24.6 58.0 29.0
v 25.0 58.0 29.5
v 25.0 58.3 15.0
v 24.5 59.0 16.0
v 25.0 59.0 15.5
v 24.4 59.0 17.0
v 24.3 59.0 18.0
v 24.3 59.0 28.0
v 25.0 59.0 28.7
v 25.0 58.6 29.0
v 24.8 60.0 16.0
v 25.0 60.0 15.8
v 24.6 60.0 17.0
v 24.5 60.0 18.0
v 24.5 60.0 19.0
v 24.4 60.0 20.0
v 24.3 60.0 28.0
v 25.0 60.0 28.6
v 25.0 60.3 16.0
v 25.0 60.6 17.0
v 24.9 61.0 18.0
v 25.0 61.0 17.8
v 25.0 61.0 18.2
v 25.0 60.6 19.0
v 25.0 60.6 20.0
v 24.7 61.0 21.0
v 25.0 61.0 20.5
v 24.5 61.0 22.0
v 24.4 61.0 23.0
v 25.0 60.5 29.0
v 24.7 61.0 29.0
v 25.0 61.0 29.4
v 25.0 61.1 18.0
v 25.0 61.3 21.0
v 25.0 61.5 22.0
v 25.0 61.5 23.0
v 25.0 61.8 24.0
v 25.0 62.0 24.3
v 24.1 62.0 28.0
v 24.4 62.0 29.0
v 25.0 62.0 30.0
v 25.0 62.0 30.0
v 25.0 62.0 30.0
v 25.0 62.4 25.0
v 25.0 62.6 26.0
v 25.0 63.0 26.7
v 25.0 62.0 30.0
v 25.0 63.0 29.3
v 25.0 63.3 27.0
v 24.0 64.0 28.0
v 25.0 63.4 28.0
v 25.0 63.2 29.0
v 25.3 42.0 18.0
v 25.2 42.0 19.0
v 25.5 43.0 17.0
v 26.0 43.0 17.5
v 26.0 42.6 18.0
v 26.0 42.6 19.0
v 26.0 43.0 20.0
v 26.0 43.0 20.0
v 25.5 44.0 16.0
v 26.0 44.0 15.7
v 26.0 43.7 16.0
v 26.0 43.3 17.0
v 25.9 44.0 20.0
v 26.0 43.3 20.0
v 26.0 44.0 19.9
v 25.4 44.0 21.0
v 26.0 45.0 15.3
v 26.0 44.1 20.0
v 26.0 44.5 21.0
v 25.7 45.0 22.0
v 26.0 45.0 21.6
v 25.4 45.0 23.0
v 25.5 46.0 15.0
v 26.0 46.0 14.7
v 26.0 45.5 15.0
v 26.0 45.3 22.0
v 26.0 45.5 23.0
v 26.0 45.7 24.0
v 26.0 46.0 24.3
v 25.5 47.0 15.0
v 26.0 47.0 14.7
v 26.0 47.0 24.4
v 25.9 48.0 15.0
v 26.0 48.0 14.9
v 26.0 48.0 24.5
v 26.0 48.1 15.0
v 25.8 49.0 16.0
v 26.0 49.0 15.9
v 25.8 49.0 18.0
v 26.0 48.8 18.0
v 26.0 49.0 17.8
v 25.7 49.0 19.0
v 26.0 48.7 19.0
v 26.0 49.0 19.4
v 25.5 49.0 24.0
v 26.0 49.0 24.3
v 26.0 49.1 16.0
v 26.0 49.6 17.0
v 25.5 50.0 19.0
v 26.0 49.5 20.0
v 25.7 50.0 20.0
v 26.0 50.0 20.4
v 26.0 49.4 24.0
v 26.0 50.0 23.0
v 25.6 51.0 19.0
v 25.8 51.0 20.0
v 26.0 51.0 20.3
v 25.7 51.0 23.0
v 26.0 50.1 23.0
v 26.0 51.0 22.8
v 25.6 52.0 17.0
v 26.0 52.0 17.4
v 26.0 51.5 18.0
v 26.0 51.5 19.0
v 26.0 51.3 20.0
v 25.9 52.0 23.0
v 26.0 52.0 22.9
v 25.4 52.0 24.0
v 25.6 53.0 14.0
v 26.0 53.0 13.3
v 26.0 52.6 14.0
v 26.0 52.5 15.0
v 25.2 53.0 15.0
v 26.0 52.4 16.0
v 26.0 52.2 17.0
v 26.0 52.1 23.0
v 26.0 52.5 24.0
v 25.4 53.0 25.0
v 26.0 53.0 24.5
v 25.3 54.0 14.0
v 26.0 54.0 13.5
v 25.8 54.0 25.0
v 26.0 54.0 24.8
v 25.5 54.0 26.0
v 25.3 54.0 27.0
v 26.0 55.0 13.6
v 26.0 54.2 25.0
v 26.0 54.6 26.0
v 26.0 55.0 26.5
v 25.7 55.0 27.0
v 25.3 55.0 28.0
v 26.0 55.8 14.0
v 25.7 56.0 14.0
v 26.0 56.0 14.2
v 26.0 55.4 27.0
v 26.0 56.0 27.6
v 25.7 56.0 28.0
v 25.1 56.0 29.0
v 26.0 57.0 14.5
v 26.0 56.3 28.0
v 26.0 56.6 29.0
v 26.0 57.0 29.4
v 26.0 58.0 14.7
v 26.0 57.6 30.0
v 25.6 58.0 30.0
v 26.0 58.0 31.0
v 26.0 58.0 31.0
v 26.0 58.0 31.0
v 26.0 58.4 15.0
v 26.0 59.0 15.4
v 25.3 59.0 29.0
v 25.6 59.0 30.0
v 25.7 59.0 31.0
v 26.0 58.9 32.0
v 25.9 59.0 32.0
v 26.0 59.0 32.3
v 26.0 60.0 15.5
v 25.4 60.0 29.0
v 26.0 60.0 29.7
v 26.0 59.7 30.0
v 26.0 59.6 31.0
v 26.0 59.5 32.0
v 25.7 61.0 16.0
v 26.0 61.0 15.8
v 25.4 61.0 17.0
v 25.3 61.0 19.0
v 25.4 61.0 20.0
v 26.0 61.0 29.8
v 26.0 61.2 16.0
v 26.0 61.5 17.0
v 26.0 61.7 18.0
v 25.8 62.0 19.0
v 26.0 62.0 18.7
v 26.0 62.0 19.3
v 26.0 61.7 20.0
v 26.0 61.7 21.0
v 25.6 62.0 22.0
v 26.0 62.0 21.4
v 25.5 62.0 23.0
v 25.3 62.0 24.0
v 26.0 61.6 30.0
v 26.0 62.0 30.1
v 26.0 62.2 19.0
v 26.0 62.4 22.0
v 26.0 62.6 23.0
v 26.0 62.9 24.0
v 26.0 62.6 25.0
v 26.0 62.5 26.0
v 25.3 63.0 27.0
v 26.0 62.6 27.0
v 25.5 63.0 28.0
v 26.0 62.6 28.0
v 25.3 63.0 29.0
v 26.0 62.6 29.0
v 26.0 62.1 30.0
v 26.4 43.0 18.0
v 26.4 43.0 19.0
v 26.0 43.0 20.0
v 27.0 44.0 15.8
v 27.0 43.8 16.0
v 27.0 43.5 17.0
v 27.0 43.6 18.0
v 27.0 44.0 18.5
v 26.7 44.0 19.0
v 27.0 45.0 15.5
v 27.0 44.4 19.0
v 27.0 44.6 20.0
v 27.0 44.8 21.0
v 27.0 45.0 21.2
v 27.0 46.0 14.8
v 27.0 45.7 15.0
v 26.6 46.0 22.0
v 27.0 46.0 21.6
v 26.5 46.0 23.0
v 26.6 46.0 24.0
v 27.0 47.0 14.8
v 27.0 46.5 22.0
v 27.0 47.0 22.5
v 26.7 47.0 23.0
v 26.5 47.0 24.0
v 27.0 47.3 15.0
v 26.1 48.0 15.0
v 26.6 48.0 16.0
v 27.0 47.5 16.0
v 26.7 48.0 17.0
v 27.0 47.6 17.0
v 26.5 48.0 18.0
v 27.0 47.5 18.0
v 26.5 48.0 19.0
v 27.0 47.5 19.0
v 26.6 48.0 20.0
v 27.0 47.5 20.0
v 26.7 48.0 21.0
v 27.0 47.6 21.0
v 27.0 48.0 21.4
v 27.0 47.4 23.0
v 27.0 47.7 24.0
v 27.0 48.0 24.2
v 26.1 49.0 16.0
v 27.0 49.0 17.0
v 26.3 49.0 20.0
v 26.6 49.0 21.0
v 27.0 49.0 21.5
v 27.0 49.0 24.3
v 26.5 50.0 21.0
v 27.0 50.0 21.6
v 26.6 50.0 24.0
v 27.0 50.0 24.3
v 26.5 51.0 21.0
v 27.0 51.0 21.6
v 26.4 51.0 23.0
v 26.9 51.0 24.0
v 27.0 51.0 24.1
v 26.7 52.0 15.0
v 27.0 52.0 14.1
v 27.0 51.8 15.0
v 27.0 51.7 16.0
v 26.6 52.0 16.0
v 27.0 52.0 16.6
v 27.0 52.0 17.5
v 27.0 51.8 18.0
v 26.6 52.0 19.0
v 27.0 52.0 18.3
v 26.5 52.0 20.0
v 26.7 52.0 21.0
v 27.0 52.0 21.4
v 27.0 51.5 23.0
v 27.0 52.0 22.6
v 27.0 51.2 24.0
v 27.0 53.0 13.6
v 27.0 52.0 14.0
v 27.0 52.2 17.0
v 27.0 52.3 19.0
v 27.0 52.5 20.0
v 27.0 52.3 21.0
v 27.0 52.3 23.0
v 27.0 52.7 24.0
v 27.0 53.0 24.2
v 27.0 54.0 13.5
v 27.0 54.0 24.5
v 27.0 55.0 13.5
v 27.0 54.6 25.0
v 26.5 55.0 26.0
v 27.0 55.0 25.5
v 26.3 56.0 14.0
v 27.0 56.0 13.7
v 27.0 55.5 26.0
v 26.5 56.0 27.0
v 27.0 56.0 26.5
v 27.0 56.4 14.0
v 27.0 57.0 14.5
v 27.0 56.4 27.0
v 27.0 56.8 28.0
v 26.4 57.0 29.0
v 27.0 57.0 28.3
v 27.0 57.7 15.0
v 26.5 58.0 15.0
v 27.0 58.0 15.3
v 26.8 58.0 29.0
v 27.0 58.0 28.7
v 26.4 58.0 30.0
v 26.0 58.0 31.0
v 27.0 59.0 15.4
v 27.0 58.2 29.0
v 27.0 58.4 30.0
v 27.0 58.7 31.0
v 26.2 59.0 32.0
v 27.0 59.0 31.3
v 27.0 60.0 15.5
v 26.3 60.0 30.0
v 26.7 60.0 31.0
v 27.0 60.0 31.1
v 27.0 61.0 15.6
v 26.5 61.0 30.0
v 27.0 61.0 30.2
v 27.0 60.2 31.0
v 27.0 61.6 16.0
v 26.6 62.0 17.0
v 27.0 62.0 16.5
v 26.3 62.0 18.0
v 26.3 62.0 20.0
v 26.2 62.0 21.0
v 26.2 62.0 30.0
v 27.0 62.0 29.3
v 27.0 61.2 30.0
v 27.0 62.4 17.0
v 27.0 62.6 18.0
v 26.7 63.0 19.0
v 27.0 63.0 18.5
v 26.6 63.0 20.0
v 26.6 63.0 21.0
v 26.5 63.0 22.0
v 26.6 63.0 23.0
v 27.0 63.0 23.6
v 27.0 62.8 24.0
v 27.0 62.4 25.0
v 27.0 62.4 26.0
v 27.0 62.4 27.0
v 27.0 62.4 28.0
v 27.0 62.2 29.0
v 27.0 63.4 19.0
v 27.0 63.5 20.0
v 27.0 63.5 21.0
v 27.0 63.5 22.0
v 27.0 63.3 23.0
v 27.3 44.0 16.0
v 28.0 44.0 16.9
v 28.0 43.9 17.0
v 27.5 44.0 18.0
v 28.0 44.0 17.1
v 27.6 45.0 16.0
v 28.0 45.0 16.6
v 28.0 44.8 18.0
v 27.5 45.0 19.0
v 28.0 45.0 18.1
v 27.4 45.0 20.0
v 27.2 45.0 21.0
v 27.3 46.0 15.0
v 27.9 46.0 16.0
v 28.0 45.4 17.0
v 27.7 46.0 17.0
v 27.6 46.0 18.0
v 28.0 45.2 18.0
v 27.5 46.0 19.0
v 27.5 46.0 20.0
v 27.4 46.0 21.0
v 27.2 47.0 15.0
v 27.5 47.0 16.0
v 27.4 47.0 17.0
v 27.4 47.0 18.0
v 27.4 47.0 19.0
v 27.4 47.0 20.0
v 27.4 47.0 21.0
v 27.3 47.0 22.0
v 27.4 48.0 22.0
v 27.4 48.0 23.0
v 27.2 48.0 24.0
v 27.4 49.0 22.0
v 27.5 49.0 23.0
v 27.4 49.0 24.0
v 27.4 50.0 22.0
v 27.5 50.0 23.0
v 28.0 50.0 24.0
v 28.0 50.0 24.0
v 28.0 50.0 24.0
v 27.3 51.0 22.0
v 27.3 51.0 23.0
v 28.0 50.1 24.0
v 27.7 51.0 24.0
v 27.4 52.0 15.0
v 28.0 52.0 15.6
v 28.0 51.8 16.0
v 28.0 51.8 17.0
v 27.5 52.0 17.0
v 27.3 52.0 18.0
v 28.0 52.0 17.3
v 27.4 52.0 22.0
v 27.6 53.0 14.0
v 28.0 53.0 14.3
v 28.0 52.4 15.0
v 28.0 52.4 18.0
v 28.0 52.7 19.0
v 27.6 53.0 20.0
v 28.0 53.0 19.5
v 27.7 53.0 21.0
v 28.0 53.0 21.5
v 28.0 52.7 22.0
v 28.0 52.8 23.0
v 27.3 53.0 24.0
v 28.0 53.0 23.3
v 28.0 54.0 13.6
v 28.0 53.4 14.0
v 28.0 53.3 20.0
v 28.0 53.3 21.0
v 27.6 54.0 24.0
v 28.0 54.0 23.6
v 28.0 55.0 13.5
v 28.0 54.5 24.0
v 27.5 55.0 25.0
v 28.0 55.0 24.5
v 28.0 56.0 13.6
v 28.0 55.5 25.0
v 27.5 56.0 26.0
v 28.0 56.0 25.5
v 28.0 56.5 14.0
v 28.0 57.0 14.5
v 28.0 56.5 26.0
v 27.6 57.0 27.0
v 28.0 57.0 26.5
v 27.2 57.0 28.0
v 28.0 57.6 15.0
v 28.0 58.0 15.3
v 28.0 57.5 27.0
v 28.0 58.0 27.6
v 27.7 58.0 28.0
v 28.0 59.0 15.0
v 28.0 58.3 28.0
v 28.0 58.5 29.0
v 28.0 58.9 30.0
v 27.3 59.0 31.0
v 28.0 59.0 30.1
v 28.0 60.0 15.3
v 27.6 60.0 30.0
v 28.0 59.2 30.0
v 28.0 60.0 29.6
v 27.1 60.0 31.0
v 28.0 61.0 15.5
v 27.7 61.0 29.0
v 28.0 60.7 29.0
v 28.0 61.0 28.6
v 27.2 61.0 30.0
v 27.6 62.0 16.0
v 28.0 62.0 15.7
v 27.7 62.0 25.0
v 28.0 61.7 25.0
v 28.0 62.0 24.6
v 27.5 62.0 26.0
v 28.0 61.6 26.0
v 27.5 62.0 27.0
v 28.0 61.6 27.0
v 27.4 62.0 28.0
v 28.0 61.4 28.0
v 27.2 62.0 29.0
v 28.0 62.3 16.0
v 27.5 63.0 17.0
v 28.0 63.0 16.5
v 27.3 63.0 18.0
v 28.0 62.9 24.0
v 28.0 63.0 23.9
v 28.0 64.0 17.0
v 28.0 64.0 17.0
v 28.0 64.0 17.1
v 28.0 63.8 18.0
v 27.6 64.0 19.0
v 28.0 64.0 18.3
v 27.5 64.0 20.0
v 27.5 64.0 21.0
v 27.7 64.0 22.0
v 28.0 64.0 22.3
v 28.0 63.3 23.0
v 28.0 64.0 17.0
v 28.0 64.4 19.0
v 28.0 64.5 20.0
v 28.0 64.4 21.0
v 28.0 64.2 22.0
v 28.1 44.0 17.0
v 28.2 45.0 17.0
v 28.1 45.0 18.0
v 28.0 50.0 24.0
v 28.3 52.0 16.0
v 28.2 52.0 17.0
v 29.0 53.0 14.7
v 29.0 52.7 15.0
v 29.0 52.5 16.0
v 29.0 52.5 17.0
v 29.0 52.7 18.0
v 28.5 53.0 19.0
v 29.0 53.0 18.4
v 28.3 53.0 22.0
v 28.2 53.0 23.0
v 29.0 54.0 13.7
v 29.0 53.7 14.0
v 29.0 53.5 19.0
v 29.0 53.6 20.0
v 29.0 53.7 21.0
v 28.7 54.0 22.0
v 29.0 54.0 21.4
v 28.5 54.0 23.0
v 29.0 55.0 13.5
v 29.0 54.4 22.0
v 29.0 54.6 23.0
v 28.5 55.0 24.0
v 29.0 55.0 23.4
v 29.0 56.0 13.6
v 29.0 55.6 24.0
v 28.5 56.0 25.0
v 29.0 56.0 24.4
v 29.0 56.5 14.0
v 29.0 57.0 14.5
v 29.0 56.5 25.0
v 28.5 57.0 26.0
v 29.0 57.0 25.5
v 29.0 57.5 15.0
v 29.0 58.0 15.5
v 29.0 57.4 26.0
v 28.7 58.0 27.0
v 29.0 58.0 26.8
v 29.0 59.0 15.5
v 29.0 58.2 27.0
v 29.0 58.6 28.0
v 29.0 58.8 29.0
v 28.1 59.0 30.0
v 29.0 59.0 29.2
v 29.0 60.0 15.1
v 29.0 60.0 29.2
v 29.0 61.0 15.4
v 28.5 61.0 28.0
v 29.0 60.7 28.0
v 29.0 61.0 27.5
v 29.0 60.2 29.0
v 29.0 62.0 15.6
v 28.3 62.0 23.0
v 29.0 61.4 23.0
v 29.0 62.0 22.7
v 28.4 62.0 24.0
v 29.0 61.5 24.0
v 29.0 61.5 25.0
v 29.0 61.5 26.0
v 29.0 61.3 27.0
v 29.0 62.5 16.0
v 29.0 63.0 16.4
v 28.4 63.0 23.0
v 29.0 63.0 22.6
v 29.0 64.0 16.6
v 28.2 64.0 18.0
v 29.0 64.0 22.2
v 29.0 64.4 17.0
v 28.8 65.0 18.0
v 29.0 65.0 17.8
v 28.7 65.0 19.0
v 28.9 65.0 20.0
v 29.0 65.0 20.1
v 29.0 64.5 21.0
v 29.0 64.2 22.0
v 29.0 65.2 18.0
v 29.0 65.2 19.0
v 29.0 65.1 20.0
v 29.3 53.0 15.0
v 29.5 53.0 16.0
v 29.5 53.0 17.0
v 29.3 53.0 18.0
v 29.4 54.0 14.0
v 30.0 54.0 14.4
v 30.0 53.5 15.0
v 30.0 53.4 16.0
v 30.0 53.6 17.0
v 30.0 54.0 17.4
v 29.6 54.0 18.0
v 29.4 54.0 19.0
v 29.4 54.0 20.0
v 29.2 54.0 21.0
v 30.0 55.0 13.7
v 30.0 54.5 14.0
v 29.7 55.0 18.0
v 30.0 55.0 17.7
v 29.5 55.0 19.0
v 29.5 55.0 20.0
v 29.6 55.0 21.0
v 29.4 55.0 22.0
v 29.3 55.0 23.0
v 30.0 56.0 13.7
v 30.0 55.6 18.0
v 30.0 56.0 18.4
v 29.7 56.0 19.0
v 29.7 56.0 20.0
v 30.0 56.0 20.7
v 30.0 55.8 21.0
v 30.0 56.0 21.4
v 29.8 56.0 22.0
v 29.6 56.0 23.0
v 29.3 56.0 24.0
v 30.0 56.4 14.0
v 30.0 57.0 14.7
v 29.9 57.0 18.0
v 30.0 56.7 18.0
v 30.0 57.0 17.9
v 30.0 56.7 19.0
v 30.0 57.0 18.4
v 30.0 56.4 20.0
v 30.0 56.3 22.0
v 30.0 56.5 23.0
v 30.0 57.0 23.7
v 29.8 57.0 24.0
v 29.4 57.0 25.0
v 30.0 57.2 15.0
v 29.6 58.0 16.0
v 30.0 57.6 16.0
v 30.0 58.0 16.7
v 29.6 58.0 18.0
v 30.0 58.0 17.3
v 30.0 57.3 19.0
v 29.7 58.0 19.0
v 30.0 58.0 19.4
v 30.0 57.2 24.0
v 30.0 57.5 25.0
v 30.0 57.6 26.0
v 30.0 58.0 27.0
v 29.9 58.0 27.0
v 30.0 58.0 27.0
v 29.5 59.0 16.0
v 30.0 58.2 17.0
v 29.6 59.0 17.0
v 29.6 59.0 18.0
v 29.8 59.0 19.0
v 30.0 59.0 19.3
v 30.0 59.0 27.6
v 29.6 59.0 28.0
v 29.2 59.0 29.0
v 30.0 60.0 15.8
v 30.0 59.8 16.0
v 30.0 60.0 16.6
v 29.9 60.0 17.0
v 30.0 60.0 17.2
v 30.0 59.6 18.0
v 30.0 59.3 19.0
v 30.0 59.9 28.0
v 30.0 60.0 28.1
v 29.2 60.0 29.0
v 30.0 61.0 15.5
v 30.0 60.1 17.0
v 29.5 61.0 27.0
v 30.0 60.5 27.0
v 30.0 61.0 26.4
v 30.0 60.1 28.0
v 30.0 62.0 15.6
v 29.7 62.0 23.0
v 30.0 62.0 23.2
v 30.0 61.5 24.0
v 30.0 61.4 25.0
v 30.0 61.2 26.0
v 30.0 62.7 16.0
v 30.0 63.0 16.2
v 30.0 62.2 23.0
v 30.0 63.0 22.3
v 30.0 64.0 16.5
v 29.6 64.0 21.0
v 30.0 63.6 21.0
v 30.0 64.0 20.5
v 29.3 64.0 22.0
v 30.0 63.3 22.0
v 30.0 64.5 17.0
v 30.0 65.0 17.8
v 29.4 65.0 19.0
v 30.0 64.7 19.0
v 30.0 65.0 18.2
v 29.1 65.0 20.0
v 30.0 64.4 20.0
v 30.0 65.1 18.0
v 31.0 54.0 14.8
v 31.0 53.8 15.0
v 31.0 53.8 16.0
v 30.3 54.0 17.0
v 31.0 54.0 16.3
v 30.4 55.0 14.0
v 31.0 55.0 14.6
v 30.6 55.0 17.0
v 31.0 55.0 16.6
v 30.7 56.0 14.0
v 31.0 55.6 15.0
v 30.8 56.0 15.0
v 31.0 56.0 15.4
v 31.0 55.6 17.0
v 30.3 56.0 18.0
v 31.0 56.0 17.3
v 30.2 56.0 21.0
v 30.3 57.0 15.0
v 31.0 56.4 16.0
v 30.6 57.0 16.0
v 31.0 57.0 16.9
v 31.0 57.0 17.1
v 30.2 57.0 19.0
v 30.4 57.0 20.0
v 30.7 57.0 21.0
v 31.0 56.7 22.0
v 31.0 57.0 21.6
v 31.0 56.8 23.0
v 31.0 57.0 23.3
v 30.2 58.0 17.0
v 31.0 57.1 17.0
v 30.5 58.0 20.0
v 31.0 58.0 20.6
v 31.0 57.5 21.0
v 31.0 57.7 24.0
v 30.6 58.0 25.0
v 31.0 58.0 24.4
v 30.4 58.0 26.0
v 30.0 58.0 27.0
v 30.6 59.0 20.0
v 31.0 59.0 20.4
v 31.0 58.5 25.0
v 31.0 58.9 26.0
v 31.0 59.0 26.1
v 30.5 59.0 27.0
v 30.2 60.0 16.0
v 30.4 60.0 18.0
v 30.5 60.0 19.0
v 31.0 60.0 19.6
v 31.0 59.5 20.0
v 30.7 60.0 25.0
v 31.0 59.5 25.0
v 31.0 60.0 24.5
v 30.6 60.0 26.0
v 31.0 59.1 26.0
v 30.4 60.0 27.0
v 30.1 60.0 28.0
v 31.0 61.0 15.8
v 31.0 60.8 16.0
v 31.0 60.6 17.0
v 31.0 60.6 18.0
v 31.0 61.0 18.9
v 30.9 61.0 19.0
v 31.0 61.0 19.1
v 30.6 61.0 24.0
v 31.0 60.5 24.0
v 31.0 61.0 23.5
v 30.4 61.0 25.0
v 30.2 61.0 26.0
v 31.0 62.0 15.6
v 31.0 61.1 19.0
v 30.3 62.0 23.0
v 31.0 61.4 23.0
v 31.0 62.0 22.4
v 30.3 63.0 16.0
v 31.0 63.0 15.4
v 30.8 63.0 20.0
v 31.0 62.8 20.0
v 31.0 63.0 19.8
v 30.5 63.0 21.0
v 31.0 62.5 21.0
v 30.3 63.0 22.0
v 31.0 62.3 22.0
v 30.8 64.0 15.0
v 31.0 64.0 14.8
v 31.0 63.7 15.0
v 30.4 64.0 16.0
v 30.4 64.0 20.0
v 31.0 64.0 19.3
v 31.0 65.0 15.0
v 31.0 65.0 16.0
v 31.0 65.0 15.1
v 31.0 64.6 17.0
v 31.0 65.0 16.0
v 30.2 65.0 18.0
v 31.0 64.5 18.0
v 31.0 64.3 19.0
v 31.0 65.0 16.0
v 31.2 54.0 15.0
v 31.2 54.0 16.0
v 31.3 55.0 15.0
v 31.4 55.0 16.0
v 31.3 56.0 16.0
v 31.2 56.0 17.0
v 31.1 57.0 17.0
v 31.2 57.0 22.0
v 31.2 57.0 23.0
v 31.3 58.0 21.0
v 31.5 58.0 22.0
v 31.5 58.0 23.0
v 31.3 58.0 24.0
v 31.4 59.0 21.0
v 31.5 59.0 22.0
v 31.5 59.0 23.0
v 31.5 59.0 24.0
v 31.3 59.0 25.0
v 31.1 59.0 26.0
v 31.3 60.0 20.0
v 31.5 60.0 21.0
v 31.5 60.0 22.0
v 31.5 60.0 23.0
v 31.3 60.0 24.0
v 31.2 61.0 16.0
v 31.5 61.0 17.0
v 31.4 61.0 18.0
v 31.5 61.0 20.0
v 31.5 61.0 21.0
v 31.5 61.0 22.0
v 31.3 61.0 23.0
v 31.6 62.0 16.0
v 32.0 62.0 16.5
v 32.0 61.6 17.0
v 32.0 61.6 18.0
v 32.0 61.6 19.0
v 32.0 61.9 20.0
v 32.0 62.0 20.1
v 31.5 62.0 21.0
v 31.3 62.0 22.0
v 31.9 63.0 15.0
v 32.0 63.0 14.9
v 32.0 62.9 15.0
v 32.0 62.4 16.0
v 32.0 62.1 20.0
v 32.0 63.0 19.3
v 32.0 64.0 14.6
v 31.6 64.0 18.0
v 32.0 63.6 18.0
v 32.0 64.0 17.4
v 31.3 64.0 19.0
v 32.0 63.3 19.0
v 32.0 64.5 15.0
v 31.0 65.0 16.0
v 32.0 64.5 16.0
v 32.0 64.3 17.0
v 32.3 62.0 17.0
v 32.4 62.0 18.0
v 32.3 62.0 19.0
v 32.1 62.0 20.0
v 32.1 63.0 15.0
v 32.4 63.0 16.0
v 32.5 63.0 17.0
v 32.4 63.0 18.0
v 32.2 63.0 19.0
v 32.7 64.0 15.0
v 32.4 64.0 16.0
v 32.2 64.0 17.0
f 3 2 1
f 1 4 3
f 7 6 5
f 7 5 2
f 5 1 2
f 5 8 1
f 4 1 9
f 9 1 8
f 5 6 10
f 10 6 11
f 5 12 8
f 5 10 12
f 9 8 13
f 8 14 13
f 8 12 14
f 14 15 13
f 10 11 16
f 16 11 17
f 10 18 12
f 10 16 18
f 12 19 14
f 12 18 19
f 15 14 20
f 20 14 19
f 23 22 21
f 25 24 21
f 21 24 23
f 25 26 24
f 17 27 16
f 16 27 18
f 18 27 28
f 30 29 28
f 29 18 28
f 29 19 18
f 20 19 31
f 31 19 29
f 21 22 32
f 32 22 33
f 21 34 25
f 21 32 34
f 26 25 35
f 35 25 34
f 30 36 29
f 29 36 31
f 32 33 37
f 37 33 38
f 40 34 39
f 34 37 39
f 34 32 37
f 34 40 35
f 38 41 37
f 37 41 39
f 44 43 42
f 42 45 44
f 48 47 46
f 48 46 43
f 46 42 43
f 46 49 42
f 45 42 50
f 50 42 49
f 46 47 51
f 51 47 52
f 51 2 3
f 49 51 3
f 46 51 49
f 3 4 49
f 4 50 49
f 4 53 50
f 51 52 7
f 52 6 7
f 52 54 6
f 51 7 2
f 9 56 55
f 53 9 55
f 4 9 53
f 56 57 55
f 60 59 58
f 54 60 58
f 11 54 58
f 6 54 11
f 13 56 9
f 62 61 15
f 15 61 13
f 61 57 13
f 57 56 13
f 64 63 62
f 62 63 61
f 66 65 64
f 64 65 63
f 66 67 65
f 58 59 68
f 68 59 69
f 68 17 11
f 68 11 58
f 20 70 62
f 20 62 15
f 70 22 23
f 64 70 23
f 62 70 64
f 64 23 24
f 64 24 66
f 24 26 66
f 26 67 66
f 26 71 67
f 68 69 72
f 72 69 73
f 74 27 17
f 68 74 17
f 72 74 68
f 75 28 27
f 75 27 74
f 75 30 28
f 31 76 70
f 31 70 20
f 76 33 22
f 76 22 70
f 35 71 26
f 35 77 71
f 73 78 72
f 80 79 78
f 79 72 78
f 79 74 72
f 74 81 75
f 74 79 81
f 82 36 30
f 75 82 30
f 81 82 75
f 76 31 36
f 82 76 36
f 83 76 82
f 83 38 33
f 83 33 76
f 39 84 40
f 84 85 40
f 85 35 40
f 85 77 35
f 80 86 79
f 88 87 86
f 87 79 86
f 87 81 79
f 81 89 82
f 81 87 89
f 91 83 90
f 83 89 90
f 83 82 89
f 91 93 92
f 91 92 41
f 83 91 41
f 38 83 41
f 92 94 41
f 41 94 39
f 94 95 39
f 95 84 39
f 84 95 85
f 88 96 87
f 87 96 89
f 89 96 97
f 89 97 90
f 93 98 92
f 92 98 94
f 101 100 99
f 103 102 99
f 99 102 101
f 103 104 102
f 107 106 105
f 107 105 100
f 105 99 100
f 105 108 99
f 108 43 44
f 103 108 44
f 99 108 103
f 110 109 45
f 45 109 44
f 109 104 44
f 104 103 44
f 112 111 110
f 110 111 109
f 112 113 111
f 105 106 114
f 114 106 115
f 114 47 48
f 108 114 48
f 105 114 108
f 108 48 43
f 50 116 110
f 50 110 45
f 118 112 117
f 112 116 117
f 112 110 116
f 112 118 113
f 121 120 119
f 121 119 115
f 119 114 115
f 119 122 114
f 122 52 47
f 122 47 114
f 53 123 116
f 53 116 50
f 117 116 124
f 124 116 123
f 127 126 125
f 127 125 120
f 125 119 120
f 125 128 119
f 119 129 122
f 119 128 129
f 129 54 52
f 129 52 122
f 55 123 53
f 55 57 123
f 57 124 123
f 57 130 124
f 133 132 131
f 135 134 131
f 131 134 133
f 135 136 134
f 125 126 137
f 137 126 138
f 125 139 128
f 125 137 139
f 139 59 60
f 129 139 60
f 128 139 129
f 129 60 54
f 140 130 57
f 140 57 61
f 63 131 132
f 140 63 132
f 61 63 140
f 131 63 65
f 131 65 135
f 65 67 135
f 67 136 135
f 67 141 136
f 138 142 137
f 144 143 142
f 143 137 142
f 143 139 137
f 143 69 59
f 143 59 139
f 71 146 145
f 141 71 145
f 67 71 141
f 146 147 145
f 144 148 143
f 69 143 148
f 149 69 148
f 73 69 149
f 77 150 146
f 77 146 71
f 147 146 151
f 151 146 150
f 149 152 73
f 73 152 78
f 154 153 80
f 78 154 80
f 152 154 78
f 155 153 154
f 85 156 150
f 85 150 77
f 151 150 157
f 157 150 156
f 153 86 80
f 88 86 153
f 155 88 153
f 158 88 155
f 90 159 91
f 159 93 91
f 94 160 95
f 156 85 95
f 160 156 95
f 161 156 160
f 157 156 162
f 162 156 161
f 158 163 88
f 88 163 96
f 96 164 97
f 163 164 96
f 97 164 90
f 164 165 90
f 165 159 90
f 165 164 166
f 167 98 93
f 159 167 93
f 165 167 159
f 160 94 98
f 167 160 98
f 168 160 167
f 170 161 169
f 161 168 169
f 161 160 168
f 161 170 162
f 166 171 165
f 165 171 167
f 167 171 172
f 167 172 168
f 168 172 173
f 168 173 169
f 176 175 174
f 178 177 174
f 174 177 176
f 178 179 177
f 174 175 180
f 180 175 181
f 174 182 178
f 174 180 182
f 179 178 183
f 183 178 182
f 186 185 184
f 186 184 181
f 181 184 180
f 184 100 180
f 100 101 180
f 180 101 102
f 180 102 182
f 188 187 104
f 104 187 102
f 187 183 102
f 183 182 102
f 190 189 188
f 188 189 187
f 190 191 189
f 194 193 192
f 194 192 185
f 185 192 184
f 192 106 184
f 106 107 184
f 184 107 100
f 109 188 104
f 188 109 111
f 188 111 190
f 111 113 190
f 113 191 190
f 113 195 191
f 192 193 196
f 196 193 197
f 196 115 106
f 196 106 192
f 117 198 118
f 198 199 118
f 199 113 118
f 199 195 113
f 196 197 121
f 197 120 121
f 197 200 120
f 196 121 115
f 124 201 198
f 124 198 117
f 199 198 202
f 198 203 202
f 198 201 203
f 203 204 202
f 205 126 127
f 206 205 127
f 120 206 127
f 200 206 120
f 130 207 201
f 130 201 124
f 207 132 133
f 203 207 133
f 201 207 203
f 208 204 203
f 133 208 203
f 134 208 133
f 134 136 208
f 208 136 209
f 210 138 205
f 205 138 126
f 205 206 211
f 205 211 210
f 140 207 130
f 207 140 132
f 141 213 212
f 209 141 212
f 136 141 209
f 213 214 212
f 210 142 138
f 144 142 210
f 211 144 210
f 215 144 211
f 145 213 141
f 145 147 213
f 147 214 213
f 147 216 214
f 148 144 217
f 144 218 217
f 144 215 218
f 217 149 148
f 151 216 147
f 151 219 216
f 217 218 220
f 220 218 221
f 222 152 149
f 217 222 149
f 220 222 217
f 223 154 152
f 223 152 222
f 223 155 154
f 157 219 151
f 157 224 219
f 221 225 220
f 227 226 225
f 226 220 225
f 226 222 220
f 222 228 223
f 222 226 228
f 228 158 155
f 228 155 223
f 162 224 157
f 162 229 224
f 227 230 226
f 226 230 228
f 228 230 231
f 228 231 158
f 231 163 158
f 231 232 163
f 232 234 233
f 164 232 233
f 163 232 164
f 233 166 164
f 236 235 170
f 236 170 169
f 162 170 229
f 229 170 235
f 234 237 233
f 233 237 166
f 237 171 166
f 237 238 171
f 171 239 172
f 238 239 171
f 239 241 240
f 173 239 240
f 172 239 173
f 240 242 173
f 242 169 173
f 242 236 169
f 245 244 243
f 247 246 243
f 243 246 245
f 249 248 247
f 248 240 247
f 241 246 247
f 241 247 240
f 240 248 242
f 243 244 250
f 250 244 251
f 253 247 252
f 247 250 252
f 247 243 250
f 247 253 249
f 251 254 250
f 250 254 252
f 257 256 255
f 259 258 255
f 255 258 257
f 175 176 259
f 176 258 259
f 176 260 258
f 261 176 177
f 261 260 176
f 263 262 179
f 262 177 179
f 262 261 177
f 263 264 262
f 255 256 265
f 265 256 266
f 255 267 259
f 255 265 267
f 267 181 175
f 267 175 259
f 183 268 263
f 183 263 179
f 264 263 269
f 263 270 269
f 263 268 270
f 272 271 270
f 270 271 269
f 272 273 271
f 276 275 274
f 276 274 266
f 274 265 266
f 274 277 265
f 277 185 186
f 267 277 186
f 265 277 267
f 267 186 181
f 187 268 183
f 268 187 189
f 268 189 270
f 270 189 191
f 278 270 191
f 272 270 278
f 273 272 279
f 279 272 278
f 275 280 274
f 281 193 194
f 274 281 194
f 277 274 194
f 280 281 274
f 277 194 185
f 195 282 278
f 195 278 191
f 279 278 283
f 278 284 283
f 278 282 284
f 284 285 283
f 281 197 193
f 286 197 281
f 199 287 282
f 199 282 195
f 282 288 284
f 282 287 288
f 285 284 289
f 289 284 288
f 286 200 197
f 290 200 286
f 202 287 199
f 287 202 204
f 291 287 204
f 288 287 291
f 289 288 292
f 292 288 291
f 290 206 200
f 293 206 290
f 208 291 204
f 295 294 209
f 209 294 208
f 294 292 208
f 292 291 208
f 295 296 294
f 293 211 206
f 297 211 293
f 212 295 209
f 299 298 214
f 214 298 212
f 298 296 212
f 296 295 212
f 299 300 298
f 297 215 211
f 301 215 297
f 216 302 299
f 216 299 214
f 300 299 303
f 299 304 303
f 299 302 304
f 304 305 303
f 308 307 306
f 310 309 306
f 306 309 308
f 301 309 310
f 218 301 310
f 215 301 218
f 219 311 302
f 219 302 216
f 302 312 304
f 302 311 312
f 305 304 313
f 313 304 312
f 316 315 314
f 318 317 314
f 314 317 316
f 317 318 307
f 318 306 307
f 318 319 306
f 306 320 310
f 306 319 320
f 320 221 218
f 320 218 310
f 224 321 311
f 224 311 219
f 323 312 322
f 312 321 322
f 312 311 321
f 312 323 313
f 314 315 324
f 324 315 325
f 314 326 318
f 314 324 326
f 318 327 319
f 318 326 327
f 319 328 320
f 319 327 328
f 329 225 221
f 320 329 221
f 328 329 320
f 329 227 225
f 229 330 321
f 229 321 224
f 322 321 331
f 331 321 330
f 325 332 324
f 334 333 332
f 333 324 332
f 333 326 324
f 326 335 327
f 326 333 335
f 327 336 328
f 327 335 336
f 328 337 329
f 328 336 337
f 338 230 227
f 329 338 227
f 337 338 329
f 339 231 230
f 339 230 338
f 340 232 231
f 340 231 339
f 340 234 232
f 342 341 235
f 342 235 236
f 235 341 229
f 341 343 229
f 343 330 229
f 343 341 344
f 331 330 345
f 345 330 343
f 334 346 333
f 333 346 335
f 335 346 347
f 335 347 336
f 336 347 348
f 336 348 337
f 337 348 349
f 337 349 338
f 338 349 350
f 352 351 350
f 351 338 350
f 351 339 338
f 339 353 340
f 339 351 353
f 354 237 234
f 340 354 234
f 353 354 340
f 355 238 237
f 355 237 354
f 356 239 238
f 356 238 355
f 356 241 239
f 242 342 236
f 242 357 342
f 344 358 343
f 343 358 345
f 352 359 351
f 361 360 359
f 360 351 359
f 360 353 351
f 353 362 354
f 353 360 362
f 362 244 245
f 355 362 245
f 354 362 355
f 355 245 246
f 355 246 356
f 241 356 246
f 248 249 363
f 357 242 364
f 242 363 364
f 363 365 364
f 242 248 363
f 365 366 364
f 361 367 360
f 369 368 367
f 368 360 367
f 368 362 360
f 368 251 244
f 368 244 362
f 252 370 253
f 363 249 253
f 370 363 253
f 371 363 370
f 373 365 372
f 365 371 372
f 365 363 371
f 365 373 366
f 369 374 368
f 368 374 251
f 374 254 251
f 374 375 254
f 252 254 370
f 254 376 370
f 254 375 376
f 370 376 371
f 371 376 377
f 371 377 372
f 379 378 257
f 257 378 256
f 380 257 258
f 380 379 257
f 381 258 260
f 381 380 258
f 382 260 261
f 382 381 260
f 383 261 262
f 383 382 261
f 385 384 264
f 384 262 264
f 384 383 262
f 387 386 385
f 385 386 384
f 387 388 386
f 391 390 389
f 378 391 389
f 266 378 389
f 256 378 266
f 269 385 264
f 385 269 271
f 385 271 387
f 271 273 387
f 273 388 387
f 273 392 388
f 389 390 276
f 390 275 276
f 390 393 275
f 389 276 266
f 396 395 394
f 395 392 394
f 392 279 394
f 392 273 279
f 280 275 397
f 275 398 397
f 275 393 398
f 397 281 280
f 396 394 399
f 396 399 400
f 283 401 279
f 401 394 279
f 401 399 394
f 285 401 283
f 398 402 397
f 281 397 402
f 403 281 402
f 286 281 403
f 400 399 404
f 400 404 405
f 406 399 401
f 404 399 406
f 289 406 285
f 285 406 401
f 403 290 286
f 407 290 403
f 405 404 408
f 405 408 409
f 410 404 406
f 408 404 410
f 292 410 289
f 289 410 406
f 407 293 290
f 411 293 407
f 409 408 412
f 409 412 413
f 414 408 410
f 412 408 414
f 294 415 292
f 415 410 292
f 415 414 410
f 296 415 294
f 418 417 416
f 411 418 416
f 297 411 416
f 293 411 297
f 419 413 412
f 421 420 419
f 412 421 419
f 414 421 412
f 422 414 415
f 421 414 422
f 298 423 296
f 423 415 296
f 423 422 415
f 300 423 298
f 416 417 424
f 424 417 425
f 424 301 297
f 424 297 416
f 426 420 421
f 426 421 422
f 426 422 427
f 429 428 427
f 422 429 427
f 423 429 422
f 303 430 300
f 430 423 300
f 430 429 423
f 305 430 303
f 432 431 308
f 308 431 307
f 309 424 425
f 432 309 425
f 308 309 432
f 424 309 301
f 433 428 429
f 433 429 430
f 433 430 434
f 430 305 434
f 305 435 434
f 305 313 435
f 438 437 436
f 315 316 439
f 438 436 440
f 439 316 441
f 316 442 441
f 316 317 442
f 317 307 431
f 317 431 442
f 322 443 323
f 435 313 444
f 313 443 444
f 443 445 444
f 313 323 443
f 445 446 444
f 436 437 447
f 447 437 448
f 315 439 325
f 449 325 439
f 325 449 447
f 440 447 449
f 447 440 436
f 449 439 441
f 331 450 443
f 331 443 322
f 452 445 451
f 445 450 451
f 445 443 450
f 445 452 446
f 448 453 447
f 453 455 454
f 453 454 332
f 447 453 332
f 325 447 332
f 454 334 332
f 342 456 341
f 456 344 341
f 458 457 450
f 331 458 450
f 345 458 331
f 450 457 451
f 455 459 454
f 454 459 334
f 459 346 334
f 459 460 346
f 346 461 347
f 460 461 346
f 461 463 462
f 348 461 462
f 347 461 348
f 464 349 348
f 464 348 462
f 465 350 349
f 465 349 464
f 465 352 350
f 357 466 456
f 357 456 342
f 467 358 344
f 456 467 344
f 466 467 456
f 467 468 358
f 468 345 358
f 468 458 345
f 463 469 462
f 462 469 464
f 464 469 470
f 464 470 465
f 465 470 471
f 471 473 472
f 471 472 359
f 465 471 359
f 352 465 359
f 472 361 359
f 364 466 357
f 466 364 366
f 474 466 366
f 467 466 474
f 468 467 475
f 475 467 474
f 473 476 472
f 476 478 477
f 476 477 367
f 472 476 367
f 361 472 367
f 477 369 367
f 372 479 373
f 474 366 373
f 479 474 373
f 480 474 479
f 475 474 481
f 481 474 480
f 478 482 477
f 477 482 369
f 482 374 369
f 482 483 374
f 483 485 484
f 375 483 484
f 374 483 375
f 486 376 375
f 486 375 484
f 487 377 376
f 487 376 486
f 479 372 377
f 487 479 377
f 488 479 487
f 479 489 480
f 479 488 489
f 481 480 490
f 490 480 489
f 485 491 484
f 484 491 486
f 486 491 492
f 486 492 487
f 487 492 493
f 487 493 488
f 488 493 494
f 496 495 494
f 495 488 494
f 495 489 488
f 490 489 497
f 497 489 495
f 496 498 495
f 495 498 497
f 501 500 499
f 499 502 501
f 505 504 503
f 505 503 500
f 503 499 500
f 503 506 499
f 502 499 507
f 499 508 507
f 499 506 508
f 510 509 508
f 508 509 507
f 512 511 510
f 510 511 509
f 514 513 512
f 512 513 511
f 514 515 513
f 503 504 516
f 516 504 517
f 516 378 379
f 506 516 379
f 503 516 506
f 506 379 380
f 506 380 508
f 508 380 381
f 508 381 510
f 510 381 382
f 510 382 512
f 512 382 383
f 512 383 514
f 518 515 514
f 383 518 514
f 384 518 383
f 520 518 519
f 518 386 519
f 518 384 386
f 388 519 386
f 523 522 521
f 523 521 517
f 517 521 516
f 521 390 516
f 390 391 516
f 516 391 378
f 524 520 519
f 519 388 524
f 388 525 524
f 388 392 525
f 521 522 526
f 526 522 527
f 526 393 390
f 526 390 521
f 529 528 395
f 529 395 396
f 392 395 525
f 525 395 528
f 526 527 530
f 530 527 531
f 530 398 393
f 530 393 526
f 400 529 396
f 400 532 529
f 531 533 530
f 533 535 534
f 533 534 402
f 530 533 402
f 398 530 402
f 534 403 402
f 405 532 400
f 405 536 532
f 535 537 534
f 403 534 537
f 538 403 537
f 407 403 538
f 409 536 405
f 409 539 536
f 538 411 407
f 540 411 538
f 413 539 409
f 413 541 539
f 542 417 418
f 543 542 418
f 411 543 418
f 540 543 411
f 413 419 544
f 545 413 544
f 541 413 545
f 420 544 419
f 548 547 546
f 549 548 542
f 548 425 542
f 425 417 542
f 548 546 425
f 549 542 543
f 550 545 544
f 550 544 420
f 426 550 420
f 551 550 426
f 552 426 427
f 552 551 426
f 554 553 428
f 553 427 428
f 553 552 427
f 554 555 553
f 558 557 556
f 558 556 547
f 547 556 546
f 556 431 546
f 431 432 546
f 546 432 425
f 433 554 428
f 433 434 554
f 434 559 554
f 559 555 554
f 434 560 559
f 435 560 434
f 561 437 438
f 440 561 438
f 556 557 442
f 557 441 442
f 557 562 441
f 556 442 431
f 563 559 560
f 565 563 564
f 564 563 444
f 563 560 444
f 560 435 444
f 446 564 444
f 567 566 561
f 566 437 561
f 566 448 437
f 567 561 440
f 449 567 440
f 568 567 449
f 449 441 562
f 449 562 568
f 565 564 452
f 451 565 452
f 569 565 451
f 452 564 446
f 566 570 448
f 448 570 453
f 455 453 570
f 455 570 571
f 458 572 457
f 572 573 457
f 573 451 457
f 573 569 451
f 571 574 455
f 455 574 459
f 574 576 575
f 460 574 575
f 459 574 460
f 577 461 460
f 577 460 575
f 577 463 461
f 468 578 572
f 468 572 458
f 573 572 579
f 579 572 578
f 576 580 575
f 582 581 580
f 581 575 580
f 581 577 575
f 583 469 463
f 577 583 463
f 581 583 577
f 584 470 469
f 584 469 583
f 585 471 470
f 585 470 584
f 585 473 471
f 475 586 578
f 475 578 468
f 579 578 587
f 587 578 586
f 582 588 581
f 581 588 583
f 583 588 589
f 583 589 584
f 584 589 590
f 592 591 590
f 591 584 590
f 591 585 584
f 593 476 473
f 585 593 473
f 591 593 585
f 593 478 476
f 595 594 586
f 475 595 586
f 481 595 475
f 586 594 587
f 592 596 591
f 591 596 593
f 593 596 597
f 597 599 598
f 597 598 482
f 593 597 482
f 478 593 482
f 600 483 482
f 600 482 598
f 600 485 483
f 490 595 481
f 490 601 595
f 599 602 598
f 598 602 600
f 600 602 603
f 600 603 485
f 603 491 485
f 603 604 491
f 604 606 605
f 492 604 605
f 491 604 492
f 607 493 492
f 607 492 605
f 608 494 493
f 608 493 607
f 608 496 494
f 497 610 609
f 601 497 609
f 490 497 601
f 610 611 609
f 606 612 605
f 614 613 612
f 613 605 612
f 613 607 605
f 607 615 608
f 607 613 615
f 616 498 496
f 608 616 496
f 615 616 608
f 616 617 498
f 498 617 497
f 617 618 497
f 618 610 497
f 610 618 611
f 614 619 613
f 613 619 615
f 615 619 620
f 622 621 620
f 621 615 620
f 621 616 615
f 617 616 623
f 616 624 623
f 616 621 624
f 626 625 624
f 624 625 623
f 626 627 625
f 622 628 621
f 630 629 628
f 629 621 628
f 629 624 621
f 632 626 631
f 626 629 631
f 626 624 629
f 626 632 627
f 630 633 629
f 629 633 631
f 635 634 501
f 501 634 500
f 637 636 502
f 636 501 502
f 636 635 501
f 637 638 636
f 640 639 505
f 505 639 504
f 505 500 634
f 505 634 640
f 507 637 502
f 641 638 637
f 507 641 637
f 509 641 507
f 643 641 642
f 641 511 642
f 641 509 511
f 513 644 511
f 511 644 642
f 515 644 513
f 639 517 504
f 645 517 639
f 646 643 642
f 648 647 646
f 642 648 646
f 644 648 642
f 518 649 515
f 649 644 515
f 649 648 644
f 520 649 518
f 651 650 523
f 523 650 522
f 523 517 645
f 523 645 651
f 652 647 648
f 652 648 649
f 652 649 653
f 655 653 654
f 654 653 524
f 653 649 524
f 649 520 524
f 525 654 524
f 650 527 522
f 656 527 650
f 655 658 657
f 655 529 658
f 655 654 528
f 529 655 528
f 654 525 528
f 659 657 658
f 656 531 527
f 660 531 656
f 532 661 658
f 532 658 529
f 659 658 662
f 662 658 661
f 533 531 663
f 531 664 663
f 531 660 664
f 663 535 533
f 536 665 661
f 536 661 532
f 662 661 666
f 666 661 665
f 664 667 663
f 667 669 668
f 667 668 537
f 663 667 537
f 535 663 537
f 668 538 537
f 671 670 665
f 536 671 665
f 539 671 536
f 665 670 666
f 669 672 668
f 540 538 668
f 673 540 668
f 672 673 668
f 540 673 674
f 675 674 673
f 541 671 539
f 541 676 671
f 677 543 674
f 674 543 540
f 674 675 678
f 674 678 677
f 545 676 541
f 545 679 676
f 680 547 548
f 680 548 681
f 548 682 681
f 548 549 682
f 549 543 677
f 683 549 677
f 682 549 683
f 683 677 678
f 684 679 545
f 684 545 550
f 686 684 685
f 684 551 685
f 684 550 551
f 552 687 551
f 551 687 685
f 553 688 552
f 552 688 687
f 555 688 553
f 689 557 558
f 690 689 558
f 690 558 547
f 691 690 547
f 680 691 547
f 691 680 681
f 692 686 685
f 694 693 692
f 685 694 692
f 687 694 685
f 695 687 688
f 694 687 695
f 559 695 555
f 555 695 688
f 697 696 689
f 696 557 689
f 696 562 557
f 697 689 690
f 698 693 694
f 698 694 695
f 698 695 699
f 701 699 700
f 700 699 563
f 699 695 563
f 695 559 563
f 565 700 563
f 702 566 567
f 702 567 703
f 567 704 703
f 567 568 704
f 568 562 696
f 568 696 704
f 705 701 700
f 700 565 705
f 565 706 705
f 565 569 706
f 702 570 566
f 571 570 702
f 703 571 702
f 707 571 703
f 573 709 708
f 706 573 708
f 569 573 706
f 709 710 708
f 707 711 571
f 571 711 574
f 576 574 711
f 576 711 712
f 579 713 709
f 579 709 573
f 710 709 714
f 714 709 713
f 580 576 715
f 576 716 715
f 576 712 716
f 715 582 580
f 587 717 713
f 587 713 579
f 714 713 718
f 718 713 717
f 716 719 715
f 719 721 720
f 719 720 588
f 715 719 588
f 582 715 588
f 722 589 588
f 722 588 720
f 723 590 589
f 723 589 722
f 723 592 590
f 595 724 594
f 724 725 594
f 594 725 587
f 725 726 587
f 726 717 587
f 717 726 718
f 720 721 727
f 727 721 728
f 720 729 722
f 720 727 729
f 722 730 723
f 722 729 730
f 731 596 592
f 723 731 592
f 730 731 723
f 732 597 596
f 732 596 731
f 732 599 597
f 601 733 724
f 601 724 595
f 725 724 734
f 734 724 733
f 728 735 727
f 727 735 729
f 729 735 736
f 738 737 736
f 737 729 736
f 737 730 729
f 740 731 739
f 731 737 739
f 731 730 737
f 731 740 732
f 732 740 741
f 741 743 742
f 741 742 602
f 732 741 602
f 599 732 602
f 744 603 602
f 744 602 742
f 745 604 603
f 745 603 744
f 745 606 604
f 609 733 601
f 747 746 611
f 611 746 609
f 746 734 609
f 734 733 609
f 747 748 746
f 738 749 737
f 737 749 739
f 743 750 742
f 742 750 744
f 744 750 751
f 744 751 745
f 745 751 752
f 745 752 606
f 752 612 606
f 752 753 612
f 614 612 753
f 614 753 754
f 617 755 618
f 747 611 618
f 755 747 618
f 756 747 755
f 748 747 757
f 747 758 757
f 747 756 758
f 758 759 757
f 754 760 614
f 614 760 619
f 619 761 620
f 760 761 619
f 622 620 761
f 622 761 762
f 623 755 617
f 755 623 625
f 755 625 756
f 758 756 763
f 756 627 763
f 627 764 763
f 627 756 625
f 758 763 759
f 762 765 622
f 622 765 628
f 767 766 630
f 628 767 630
f 765 767 628
f 632 631 766
f 767 632 766
f 768 632 767
f 627 632 764
f 764 632 768
f 766 633 630
f 633 766 631
f 769 634 635
f 636 770 635
f 635 770 769
f 638 770 636
f 771 639 640
f 772 771 640
f 772 640 634
f 773 772 634
f 769 773 634
f 773 769 770
f 773 770 774
f 774 770 638
f 641 774 638
f 775 774 641
f 641 643 775
f 775 643 776
f 779 778 777
f 780 779 771
f 779 645 771
f 645 639 771
f 779 777 645
f 780 771 772
f 783 782 781
f 784 781 646
f 781 776 646
f 776 643 646
f 776 781 782
f 647 784 646
f 777 778 651
f 778 650 651
f 778 785 650
f 777 651 645
f 786 783 781
f 786 781 784
f 786 784 787
f 789 787 788
f 788 787 652
f 787 784 652
f 784 647 652
f 653 790 652
f 652 790 788
f 655 790 653
f 793 792 791
f 785 793 791
f 656 785 791
f 650 785 656
f 794 789 788
f 794 788 790
f 794 790 795
f 795 790 655
f 657 795 655
f 796 795 657
f 657 659 796
f 796 659 797
f 791 792 798
f 798 792 799
f 798 660 656
f 798 656 791
f 662 797 659
f 662 800 797
f 798 799 801
f 801 799 802
f 801 664 660
f 801 660 798
f 666 800 662
f 666 803 800
f 802 804 801
f 804 806 805
f 804 805 667
f 801 804 667
f 664 801 667
f 805 669 667
f 809 808 807
f 811 810 807
f 811 807 808
f 812 810 811
f 671 813 670
f 813 814 670
f 814 666 670
f 814 803 666
f 806 815 805
f 805 815 669
f 815 672 669
f 815 816 672
f 807 673 809
f 673 816 809
f 673 672 816
f 673 807 675
f 807 817 675
f 807 810 817
f 810 812 818
f 819 810 818
f 817 810 819
f 820 819 818
f 822 821 813
f 671 822 813
f 676 822 671
f 813 821 814
f 823 678 817
f 817 678 675
f 824 817 819
f 823 817 824
f 819 820 825
f 819 825 824
f 828 827 826
f 827 822 826
f 822 679 826
f 822 676 679
f 829 681 682
f 829 682 830
f 682 831 830
f 682 683 831
f 683 678 823
f 832 683 823
f 831 683 832
f 832 823 824
f 832 824 833
f 833 824 825
f 828 826 834
f 828 834 835
f 684 836 679
f 836 826 679
f 836 834 826
f 686 836 684
f 839 838 837
f 841 840 837
f 837 840 839
f 690 691 841
f 691 840 841
f 691 842 840
f 691 681 829
f 843 691 829
f 842 691 843
f 843 829 830
f 844 835 834
f 844 834 836
f 844 836 845
f 847 845 846
f 846 845 692
f 845 836 692
f 836 686 692
f 693 846 692
f 837 838 848
f 848 838 849
f 848 696 697
f 841 848 697
f 837 848 841
f 841 697 690
f 847 846 850
f 847 850 851
f 698 852 693
f 852 846 693
f 852 850 846
f 699 853 698
f 698 853 852
f 701 853 699
f 848 849 704
f 849 703 704
f 849 854 703
f 848 704 696
f 855 851 850
f 855 850 852
f 855 852 856
f 858 857 856
f 852 858 856
f 853 858 852
f 705 859 701
f 859 853 701
f 859 858 853
f 706 859 705
f 861 707 860
f 707 854 860
f 707 703 854
f 862 861 860
f 863 857 858
f 865 864 863
f 858 865 863
f 859 865 858
f 708 866 706
f 866 859 706
f 866 865 859
f 710 866 708
f 861 711 707
f 712 711 861
f 862 712 861
f 867 712 862
f 868 864 865
f 868 865 866
f 868 866 869
f 866 710 869
f 710 870 869
f 710 714 870
f 867 716 712
f 871 716 867
f 718 873 872
f 870 718 872
f 714 718 870
f 875 874 873
f 873 874 872
f 875 876 874
f 871 877 716
f 716 877 719
f 721 719 877
f 721 877 878
f 725 879 726
f 873 718 726
f 879 873 726
f 880 873 879
f 873 881 875
f 873 880 881
f 876 875 882
f 875 883 882
f 875 881 883
f 883 884 882
f 878 728 721
f 885 728 878
f 734 886 879
f 734 879 725
f 888 880 887
f 880 886 887
f 880 879 886
f 880 888 881
f 881 888 889
f 881 889 883
f 883 889 890
f 883 890 884
f 735 728 891
f 728 892 891
f 728 885 892
f 893 736 735
f 893 735 891
f 893 738 736
f 739 894 740
f 895 741 740
f 895 740 894
f 895 743 741
f 746 886 734
f 746 748 886
f 748 887 886
f 748 896 887
f 892 897 891
f 891 897 893
f 893 897 898
f 893 898 738
f 898 749 738
f 898 899 749
f 749 899 739
f 899 900 739
f 900 894 739
f 900 899 901
f 903 895 902
f 895 900 902
f 895 894 900
f 895 903 743
f 903 750 743
f 903 904 750
f 904 906 905
f 751 904 905
f 750 904 751
f 907 752 751
f 907 751 905
f 908 753 752
f 908 752 907
f 908 754 753
f 909 896 748
f 909 748 757
f 757 759 909
f 909 759 910
f 901 911 900
f 900 911 902
f 906 912 905
f 905 912 907
f 907 912 913
f 907 913 908
f 908 913 914
f 908 914 754
f 914 760 754
f 914 915 760
f 760 916 761
f 915 916 760
f 918 917 762
f 761 918 762
f 916 918 761
f 920 919 917
f 920 917 918
f 922 921 919
f 922 919 920
f 763 764 921
f 922 763 921
f 923 763 922
f 759 763 910
f 910 763 923
f 917 765 762
f 765 917 767
f 767 917 919
f 767 919 768
f 768 919 921
f 768 921 764
f 924 772 773
f 774 925 773
f 773 925 924
f 775 926 774
f 774 926 925
f 776 926 775
f 928 927 779
f 779 927 778
f 929 779 780
f 929 928 779
f 780 772 924
f 930 780 924
f 929 780 930
f 932 931 930
f 924 932 930
f 925 932 924
f 783 932 782
f 932 926 782
f 932 925 926
f 782 926 776
f 927 785 778
f 933 785 927
f 934 931 932
f 934 932 783
f 786 934 783
f 935 934 786
f 936 786 787
f 936 935 786
f 787 789 936
f 936 789 937
f 939 938 793
f 793 938 792
f 793 785 933
f 793 933 939
f 789 794 940
f 941 789 940
f 937 789 941
f 795 942 794
f 794 942 940
f 796 943 795
f 795 943 942
f 797 943 796
f 938 799 792
f 944 799 938
f 945 941 940
f 947 946 945
f 940 947 945
f 942 947 940
f 948 942 943
f 947 942 948
f 800 948 797
f 797 948 943
f 950 802 949
f 802 944 949
f 802 799 944
f 952 951 950
f 952 950 949
f 954 953 951
f 954 951 952
f 956 955 953
f 956 953 954
f 958 957 955
f 958 955 956
f 960 959 957
f 960 957 958
f 962 961 959
f 962 959 960
f 963 961 962
f 964 946 947
f 964 947 948
f 964 948 965
f 948 800 965
f 800 966 965
f 800 803 966
f 950 804 802
f 804 950 806
f 950 967 806
f 950 951 967
f 968 951 953
f 967 951 968
f 809 968 808
f 968 955 808
f 968 953 955
f 808 955 811
f 811 955 957
f 811 957 812
f 957 969 812
f 957 959 969
f 970 959 961
f 969 959 970
f 961 963 971
f 961 971 970
f 814 966 803
f 814 972 966
f 967 815 806
f 815 967 816
f 816 967 968
f 816 968 809
f 969 818 812
f 818 969 820
f 969 973 820
f 969 970 973
f 970 971 974
f 970 974 973
f 822 975 821
f 975 976 821
f 976 814 821
f 976 972 814
f 977 825 973
f 973 825 820
f 973 974 978
f 973 978 977
f 828 979 827
f 975 822 827
f 979 975 827
f 980 975 979
f 976 975 981
f 981 975 980
f 984 983 982
f 986 985 982
f 982 985 984
f 986 987 985
f 989 988 831
f 831 988 830
f 991 989 990
f 989 832 990
f 989 831 832
f 833 992 832
f 832 992 990
f 825 977 833
f 977 992 833
f 977 993 992
f 977 978 994
f 977 994 993
f 996 995 979
f 828 996 979
f 835 996 828
f 979 995 980
f 980 995 997
f 980 997 981
f 999 998 839
f 839 998 838
f 840 982 983
f 999 840 983
f 839 840 999
f 982 840 842
f 982 842 986
f 1000 987 986
f 842 1000 986
f 843 1000 842
f 843 830 988
f 843 988 1000
f 1001 991 990
f 1001 990 992
f 1001 992 1002
f 1002 992 993
f 1002 993 1003
f 1003 993 994
f 1004 996 835
f 1004 835 844
f 1005 844 845
f 1005 1004 844
f 845 847 1005
f 1005 847 1006
f 998 849 838
f 1007 849 998
f 851 1006 847
f 851 1008 1006
f 1007 854 849
f 1009 854 1007
f 1010 1008 851
f 1010 851 855
f 1012 1010 1011
f 1010 856 1011
f 1010 855 856
f 857 1011 856
f 860 854 1013
f 854 1014 1013
f 854 1009 1014
f 1013 862 860
f 1015 1012 1011
f 1017 1015 1016
f 1016 1015 863
f 1015 1011 863
f 1011 857 863
f 864 1016 863
f 1014 1018 1013
f 862 1013 1018
f 1019 862 1018
f 867 862 1019
f 1020 1017 1016
f 1020 1016 864
f 868 1020 864
f 1021 1020 868
f 1023 1021 1022
f 1021 869 1022
f 1021 868 869
f 870 1022 869
f 1025 871 1024
f 871 1019 1024
f 871 867 1019
f 1026 1025 1024
f 1023 1022 1027
f 1023 1027 1028
f 872 1029 870
f 1029 1022 870
f 1029 1027 1022
f 874 1030 872
f 872 1030 1029
f 876 1030 874
f 1025 877 871
f 878 877 1025
f 1026 878 1025
f 1031 878 1026
f 1032 1028 1027
f 1032 1027 1029
f 1032 1029 1033
f 1033 1029 1030
f 1033 1030 1034
f 1036 1034 1035
f 1035 1034 882
f 1034 1030 882
f 1030 876 882
f 884 1035 882
f 1031 885 878
f 1037 885 1031
f 887 1038 888
f 1039 889 888
f 1039 888 1038
f 1040 1036 1035
f 889 1040 1035
f 890 889 1035
f 1040 889 1039
f 890 1035 884
f 1037 892 885
f 1041 892 1037
f 896 1042 1038
f 896 1038 887
f 1044 1039 1043
f 1039 1042 1043
f 1039 1038 1042
f 1039 1044 1040
f 1041 1045 892
f 892 1045 897
f 1045 1047 1046
f 898 1045 1046
f 897 1045 898
f 1048 899 898
f 1048 898 1046
f 1048 901 899
f 902 1049 903
f 1050 904 903
f 1050 903 1049
f 1050 906 904
f 1052 909 1051
f 1052 896 909
f 1042 896 1052
f 1042 1052 1053
f 1053 1043 1042
f 910 1051 909
f 1047 1054 1046
f 1046 1054 1048
f 1048 1054 1055
f 1055 1057 1056
f 1055 1056 911
f 1048 1055 911
f 901 1048 911
f 1049 902 911
f 1056 1049 911
f 1058 1049 1056
f 1049 1059 1050
f 1049 1058 1059
f 1060 912 906
f 1050 1060 906
f 1059 1060 1050
f 1061 913 912
f 1061 912 1060
f 913 1061 1062
f 1063 913 1062
f 914 913 1063
f 914 1064 915
f 1063 1064 914
f 915 1065 916
f 1064 1065 915
f 916 1066 918
f 1065 1066 916
f 918 1067 920
f 1066 1067 918
f 920 1068 922
f 1067 1068 920
f 1051 923 1052
f 923 1068 1052
f 923 922 1068
f 923 1051 910
f 1057 1069 1056
f 1056 1069 1058
f 1058 1069 1070
f 1058 1070 1059
f 1059 1070 1071
f 1059 1071 1060
f 1060 1071 1072
f 1060 1072 1061
f 1061 1072 1073
f 1061 1073 1062
f 1074 927 928
f 1074 928 1075
f 928 1076 1075
f 928 929 1076
f 1078 1076 1077
f 1076 930 1077
f 1076 929 930
f 931 1077 930
f 1079 933 1074
f 1074 933 927
f 1074 1075 1080
f 1074 1080 1079
f 1081 1078 1077
f 1083 1081 1082
f 1082 1081 934
f 1081 1077 934
f 1077 931 934
f 935 1084 934
f 934 1084 1082
f 936 1085 935
f 935 1085 1084
f 937 1085 936
f 1086 938 939
f 933 1079 939
f 1079 1086 939
f 1079 1087 1086
f 1079 1080 1088
f 1089 1079 1088
f 1087 1079 1089
f 1091 1090 1089
f 1091 1089 1088
f 1090 1091 1083
f 1082 1090 1083
f 1092 1090 1082
f 1093 1082 1084
f 1092 1082 1093
f 1094 1084 1085
f 1093 1084 1094
f 941 1094 937
f 937 1094 1085
f 1095 944 1086
f 1086 944 938
f 1096 1086 1087
f 1095 1086 1096
f 1097 1087 1089
f 1096 1087 1097
f 1098 1089 1090
f 1097 1089 1098
f 1099 1090 1092
f 1098 1090 1099
f 1100 1092 1093
f 1099 1092 1100
f 1101 1093 1094
f 1100 1093 1101
f 945 1102 941
f 1102 1094 941
f 1102 1101 1094
f 946 1102 945
f 1095 949 944
f 949 1095 952
f 952 1095 1096
f 952 1096 954
f 954 1096 1097
f 954 1097 956
f 956 1097 1098
f 956 1098 958
f 958 1098 1099
f 958 1099 960
f 960 1099 1100
f 960 1100 962
f 962 1100 1101
f 962 1101 963
f 1101 1103 963
f 1101 1102 1103
f 964 1104 946
f 1104 1102 946
f 1104 1103 1102
f 965 1105 964
f 964 1105 1104
f 966 1105 965
f 1106 971 1103
f 1103 971 963
f 1107 1103 1104
f 1106 1103 1107
f 1108 1104 1105
f 1107 1104 1108
f 972 1108 966
f 966 1108 1105
f 1109 974 1106
f 1106 974 971
f 1110 1106 1107
f 1109 1106 1110
f 1108 1112 1111
f 1110 1108 1111
f 1107 1108 1110
f 1108 972 1112
f 972 1113 1112
f 972 976 1113
f 1114 978 1109
f 1109 978 974
f 1115 1109 1110
f 1114 1109 1115
f 1110 1111 1116
f 1117 1110 1116
f 1115 1110 1117
f 1116 1113 1117
f 1113 981 1117
f 1113 976 981
f 1118 983 984
f 1118 984 1119
f 984 1120 1119
f 984 985 1120
f 1122 1121 987
f 1121 985 987
f 1121 1120 985
f 988 989 1123
f 1121 1122 1124
f 991 1123 989
f 1125 994 1114
f 1114 994 978
f 996 1125 995
f 1125 1115 995
f 1125 1114 1115
f 995 1115 997
f 997 1115 1117
f 997 1117 981
f 1126 998 999
f 1127 1126 999
f 1127 999 983
f 1128 1127 983
f 1118 1128 983
f 1128 1118 1119
f 1000 1122 987
f 1000 1124 1122
f 1000 1129 1124
f 1000 988 1123
f 1129 1000 1123
f 1129 1123 991
f 1001 1129 991
f 1130 1129 1001
f 1132 1130 1131
f 1130 1002 1131
f 1130 1001 1002
f 1003 1133 1002
f 1002 1133 1131
f 1134 1133 1003
f 1134 1003 994
f 1135 1134 994
f 1125 1135 994
f 1135 1125 996
f 1004 1135 996
f 1136 1135 1004
f 1138 1136 1137
f 1136 1005 1137
f 1136 1004 1005
f 1006 1137 1005
f 1140 1139 1126
f 1139 998 1126
f 1139 1007 998
f 1140 1126 1127
f 1141 1132 1131
f 1141 1131 1133
f 1141 1133 1142
f 1142 1133 1134
f 1138 1137 1143
f 1138 1143 1144
f 1008 1143 1006
f 1006 1143 1137
f 1139 1009 1007
f 1145 1009 1139
f 1146 1144 1143
f 1148 1146 1147
f 1147 1146 1010
f 1146 1143 1010
f 1143 1008 1010
f 1012 1147 1010
f 1145 1014 1009
f 1149 1014 1145
f 1150 1148 1147
f 1152 1150 1151
f 1151 1150 1015
f 1150 1147 1015
f 1147 1012 1015
f 1017 1151 1015
f 1149 1153 1014
f 1014 1153 1018
f 1019 1018 1153
f 1019 1153 1154
f 1155 1152 1151
f 1157 1155 1156
f 1156 1155 1020
f 1155 1151 1020
f 1151 1017 1020
f 1021 1158 1020
f 1020 1158 1156
f 1023 1158 1021
f 1154 1159 1019
f 1019 1159 1024
f 1026 1024 1159
f 1026 1159 1160
f 1161 1157 1156
f 1163 1162 1161
f 1156 1163 1161
f 1158 1163 1156
f 1028 1163 1023
f 1023 1163 1158
f 1160 1031 1026
f 1164 1031 1160
f 1165 1162 1163
f 1165 1163 1028
f 1032 1165 1028
f 1166 1165 1032
f 1167 1032 1033
f 1167 1166 1032
f 1169 1167 1168
f 1167 1034 1168
f 1167 1033 1034
f 1036 1168 1034
f 1164 1037 1031
f 1170 1037 1164
f 1173 1172 1171
f 1171 1172 1169
f 1168 1171 1169
f 1174 1171 1168
f 1040 1174 1036
f 1036 1174 1168
f 1170 1041 1037
f 1175 1041 1170
f 1178 1177 1176
f 1176 1177 1173
f 1171 1176 1173
f 1179 1176 1171
f 1043 1179 1044
f 1179 1174 1044
f 1179 1171 1174
f 1044 1174 1040
f 1045 1041 1180
f 1041 1181 1180
f 1041 1175 1181
f 1180 1047 1045
f 1184 1183 1182
f 1186 1185 1182
f 1186 1182 1183
f 1188 1187 1185
f 1188 1185 1186
f 1190 1189 1187
f 1190 1187 1188
f 1189 1190 1178
f 1176 1189 1178
f 1191 1189 1176
f 1052 1191 1053
f 1191 1179 1053
f 1191 1176 1179
f 1053 1179 1043
f 1181 1192 1180
f 1192 1194 1193
f 1192 1193 1054
f 1180 1192 1054
f 1047 1180 1054
f 1195 1055 1054
f 1195 1054 1193
f 1195 1057 1055
f 1197 1196 1063
f 1197 1063 1062
f 1182 1064 1184
f 1064 1196 1184
f 1064 1063 1196
f 1064 1182 1065
f 1065 1182 1185
f 1065 1185 1066
f 1066 1185 1187
f 1066 1187 1067
f 1067 1187 1189
f 1067 1189 1068
f 1068 1189 1191
f 1068 1191 1052
f 1193 1194 1198
f 1198 1194 1199
f 1201 1195 1200
f 1195 1198 1200
f 1195 1193 1198
f 1201 1203 1202
f 1201 1202 1069
f 1195 1201 1069
f 1057 1195 1069
f 1204 1070 1069
f 1204 1069 1202
f 1205 1071 1070
f 1205 1070 1204
f 1206 1072 1071
f 1206 1071 1205
f 1072 1206 1207
f 1208 1072 1207
f 1073 1072 1208
f 1062 1073 1197
f 1197 1073 1208
f 1199 1209 1198
f 1198 1209 1200
f 1203 1210 1202
f 1202 1210 1204
f 1204 1210 1211
f 1204 1211 1205
f 1205 1211 1212
f 1205 1212 1206
f 1206 1212 1213
f 1206 1213 1207
f 1214 1075 1076
f 1078 1214 1076
f 1215 1080 1214
f 1214 1080 1075
f 1081 1216 1078
f 1216 1214 1078
f 1216 1215 1214
f 1083 1216 1081
f 1215 1088 1080
f 1088 1215 1091
f 1091 1215 1216
f 1091 1216 1083
f 1217 1111 1112
f 1113 1217 1112
f 1217 1116 1111
f 1116 1217 1113
f 1218 1119 1120
f 1121 1219 1120
f 1120 1219 1218
f 1124 1219 1121
f 1221 1220 1128
f 1128 1220 1127
f 1128 1119 1218
f 1222 1128 1218
f 1221 1128 1222
f 1222 1218 1219
f 1222 1219 1223
f 1223 1219 1124
f 1129 1223 1124
f 1224 1223 1129
f 1226 1224 1225
f 1224 1130 1225
f 1224 1129 1130
f 1132 1225 1130
f 1227 1134 1135
f 1136 1228 1135
f 1135 1228 1227
f 1138 1228 1136
f 1230 1229 1140
f 1140 1229 1139
f 1140 1127 1220
f 1140 1220 1230
f 1231 1226 1225
f 1231 1225 1132
f 1141 1231 1132
f 1232 1231 1141
f 1233 1141 1142
f 1233 1232 1141
f 1233 1142 1134
f 1234 1233 1134
f 1227 1234 1134
f 1233 1234 1235
f 1236 1227 1228
f 1234 1227 1236
f 1144 1236 1138
f 1138 1236 1228
f 1229 1145 1139
f 1237 1145 1229
f 1238 1235 1234
f 1238 1234 1236
f 1238 1236 1239
f 1241 1239 1240
f 1240 1239 1146
f 1239 1236 1146
f 1236 1144 1146
f 1148 1240 1146
f 1237 1149 1145
f 1242 1149 1237
f 1243 1241 1240
f 1245 1243 1244
f 1244 1243 1150
f 1243 1240 1150
f 1240 1148 1150
f 1152 1244 1150
f 1242 1246 1149
f 1149 1246 1153
f 1154 1153 1246
f 1154 1246 1247
f 1248 1245 1244
f 1250 1248 1249
f 1249 1248 1155
f 1248 1244 1155
f 1244 1152 1155
f 1157 1249 1155
f 1247 1251 1154
f 1154 1251 1159
f 1160 1159 1251
f 1160 1251 1252
f 1253 1250 1249
f 1255 1253 1254
f 1254 1253 1161
f 1253 1249 1161
f 1249 1157 1161
f 1162 1254 1161
f 1252 1164 1160
f 1256 1164 1252
f 1257 1255 1254
f 1257 1254 1162
f 1165 1257 1162
f 1258 1257 1165
f 1259 1165 1166
f 1259 1258 1165
f 1261 1259 1260
f 1259 1167 1260
f 1259 1166 1167
f 1169 1260 1167
f 1256 1170 1164
f 1262 1170 1256
f 1261 1260 1172
f 1173 1261 1172
f 1263 1261 1173
f 1172 1260 1169
f 1262 1175 1170
f 1264 1175 1262
f 1267 1266 1265
f 1177 1178 1265
f 1266 1177 1265
f 1268 1177 1266
f 1173 1177 1263
f 1263 1177 1268
f 1264 1181 1175
f 1269 1181 1264
f 1272 1271 1270
f 1274 1273 1270
f 1274 1270 1271
f 1183 1184 1273
f 1274 1183 1273
f 1275 1183 1274
f 1183 1276 1186
f 1275 1276 1183
f 1186 1277 1188
f 1276 1277 1186
f 1265 1190 1267
f 1190 1277 1267
f 1190 1188 1277
f 1190 1265 1178
f 1269 1278 1181
f 1181 1278 1192
f 1194 1192 1278
f 1194 1278 1279
f 1272 1270 1280
f 1272 1280 1281
f 1197 1280 1196
f 1280 1273 1196
f 1280 1270 1273
f 1196 1273 1184
f 1279 1199 1194
f 1282 1199 1279
f 1200 1283 1201
f 1283 1203 1201
f 1281 1280 1208
f 1207 1281 1208
f 1284 1281 1207
f 1208 1280 1197
f 1282 1285 1199
f 1199 1285 1209
f 1209 1285 1200
f 1285 1286 1200
f 1286 1283 1200
f 1286 1285 1287
f 1288 1210 1203
f 1283 1288 1203
f 1286 1288 1283
f 1289 1211 1210
f 1289 1210 1288
f 1211 1289 1290
f 1291 1211 1290
f 1212 1211 1291
f 1212 1292 1213
f 1291 1292 1212
f 1207 1213 1284
f 1284 1213 1292
f 1287 1293 1286
f 1286 1293 1288
f 1288 1293 1294
f 1288 1294 1289
f 1289 1294 1295
f 1289 1295 1290
f 1296 1220 1221
f 1222 1297 1221
f 1221 1297 1296
f 1223 1298 1222
f 1222 1298 1297
f 1224 1299 1223
f 1223 1299 1298
f 1226 1299 1224
f 1300 1229 1230
f 1301 1300 1230
f 1301 1230 1220
f 1302 1301 1220
f 1296 1302 1220
f 1302 1296 1297
f 1302 1297 1303
f 1303 1297 1298
f 1303 1298 1304
f 1306 1305 1304
f 1298 1306 1304
f 1299 1306 1298
f 1231 1307 1226
f 1307 1299 1226
f 1307 1306 1299
f 1232 1308 1231
f 1231 1308 1307
f 1233 1309 1232
f 1232 1309 1308
f 1235 1309 1233
f 1311 1310 1300
f 1310 1229 1300
f 1310 1237 1229
f 1311 1300 1301
f 1305 1306 1312
f 1305 1312 1313
f 1314 1306 1307
f 1312 1306 1314
f 1315 1307 1308
f 1314 1307 1315
f 1316 1308 1309
f 1315 1308 1316
f 1238 1317 1235
f 1317 1309 1235
f 1317 1316 1309
f 1239 1318 1238
f 1238 1318 1317
f 1241 1318 1239
f 1310 1242 1237
f 1319 1242 1310
f 1320 1313 1312
f 1322 1321 1320
f 1312 1322 1320
f 1314 1322 1312
f 1323 1314 1315
f 1322 1314 1323
f 1316 1325 1324
f 1323 1316 1324
f 1315 1316 1323
f 1327 1326 1325
f 1316 1327 1325
f 1317 1327 1316
f 1328 1317 1318
f 1327 1317 1328
f 1243 1329 1241
f 1329 1318 1241
f 1329 1328 1318
f 1245 1329 1243
f 1319 1330 1242
f 1242 1330 1246
f 1247 1246 1330
f 1247 1330 1331
f 1334 1333 1332
f 1321 1322 1335
f 1333 1336 1332
f 1335 1322 1323
f 1335 1323 1337
f 1337 1323 1324
f 1338 1326 1327
f 1338 1327 1328
f 1338 1328 1339
f 1341 1340 1339
f 1328 1341 1339
f 1329 1341 1328
f 1248 1342 1245
f 1342 1329 1245
f 1342 1341 1329
f 1250 1342 1248
f 1331 1343 1247
f 1247 1343 1251
f 1345 1344 1252
f 1251 1345 1252
f 1343 1345 1251
f 1346 1344 1345
f 1334 1332 1347
f 1334 1347 1348
f 1332 1336 1349
f 1350 1332 1349
f 1347 1332 1350
f 1351 1350 1349
f 1352 1340 1341
f 1352 1341 1342
f 1352 1342 1353
f 1353 1342 1250
f 1253 1353 1250
f 1354 1353 1253
f 1356 1355 1255
f 1355 1253 1255
f 1355 1354 1253
f 1356 1357 1355
f 1358 1256 1344
f 1344 1256 1252
f 1344 1346 1359
f 1360 1344 1359
f 1358 1344 1360
f 1360 1359 1348
f 1347 1360 1348
f 1361 1360 1347
f 1362 1347 1350
f 1361 1347 1362
f 1350 1351 1363
f 1350 1363 1362
f 1257 1356 1255
f 1257 1258 1356
f 1258 1364 1356
f 1364 1357 1356
f 1258 1365 1364
f 1259 1366 1258
f 1258 1366 1365
f 1261 1366 1259
f 1368 1367 1358
f 1367 1256 1358
f 1367 1262 1256
f 1370 1369 1368
f 1358 1370 1368
f 1360 1370 1358
f 1361 1372 1371
f 1370 1361 1371
f 1360 1361 1370
f 1372 1361 1362
f 1372 1362 1373
f 1373 1362 1363
f 1374 1364 1365
f 1376 1375 1374
f 1365 1376 1374
f 1366 1376 1365
f 1263 1376 1261
f 1261 1376 1366
f 1367 1264 1262
f 1377 1264 1367
f 1378 1369 1370
f 1378 1370 1371
f 1381 1380 1379
f 1266 1267 1379
f 1380 1266 1379
f 1382 1266 1380
f 1376 1268 1375
f 1268 1382 1375
f 1268 1266 1382
f 1268 1376 1263
f 1377 1269 1264
f 1383 1269 1377
f 1272 1384 1271
f 1271 1384 1385
f 1386 1271 1385
f 1274 1271 1386
f 1274 1387 1275
f 1386 1387 1274
f 1275 1388 1276
f 1387 1388 1275
f 1379 1277 1381
f 1277 1388 1381
f 1277 1276 1388
f 1277 1379 1267
f 1383 1389 1269
f 1269 1389 1278
f 1279 1278 1389
f 1279 1389 1390
f 1392 1391 1384
f 1272 1392 1384
f 1281 1392 1272
f 1384 1391 1385
f 1390 1282 1279
f 1393 1282 1390
f 1396 1395 1394
f 1398 1397 1394
f 1398 1394 1395
f 1398 1392 1397
f 1392 1284 1397
f 1392 1281 1284
f 1393 1399 1282
f 1282 1399 1285
f 1287 1285 1399
f 1287 1399 1400
f 1403 1402 1401
f 1405 1404 1401
f 1405 1401 1402
f 1404 1405 1396
f 1404 1396 1394
f 1290 1404 1394
f 1291 1290 1394
f 1291 1394 1292
f 1292 1394 1397
f 1292 1397 1284
f 1400 1406 1287
f 1287 1406 1293
f 1401 1294 1403
f 1294 1406 1403
f 1294 1293 1406
f 1294 1401 1295
f 1295 1401 1404
f 1295 1404 1290
f 1408 1407 1302
f 1302 1407 1301
f 1409 1302 1303
f 1409 1408 1302
f 1411 1409 1410
f 1409 1304 1410
f 1409 1303 1304
f 1305 1410 1304
f 1412 1310 1311
f 1413 1412 1311
f 1301 1413 1311
f 1407 1413 1301
f 1411 1410 1414
f 1411 1414 1415
f 1313 1414 1305
f 1305 1414 1410
f 1416 1319 1412
f 1412 1319 1310
f 1412 1413 1417
f 1418 1412 1417
f 1416 1412 1418
f 1419 1418 1417
f 1420 1415 1414
f 1422 1420 1421
f 1421 1420 1320
f 1420 1414 1320
f 1414 1313 1320
f 1321 1421 1320
f 1423 1324 1325
f 1326 1423 1325
f 1416 1330 1319
f 1330 1416 1331
f 1416 1424 1331
f 1416 1418 1424
f 1418 1419 1425
f 1426 1418 1425
f 1424 1418 1426
f 1427 1426 1425
f 1422 1421 1333
f 1334 1422 1333
f 1428 1422 1334
f 1336 1333 1429
f 1333 1421 1429
f 1321 1335 1429
f 1321 1429 1421
f 1337 1430 1335
f 1335 1430 1429
f 1324 1423 1337
f 1423 1430 1337
f 1423 1431 1430
f 1431 1423 1326
f 1432 1431 1326
f 1338 1432 1326
f 1433 1431 1432
f 1434 1338 1339
f 1434 1432 1338
f 1339 1340 1434
f 1434 1340 1435
f 1424 1343 1331
f 1343 1424 1345
f 1345 1424 1426
f 1437 1436 1346
f 1437 1346 1345
f 1427 1437 1345
f 1426 1427 1345
f 1437 1428 1436
f 1428 1348 1436
f 1428 1334 1348
f 1429 1349 1336
f 1349 1429 1351
f 1429 1438 1351
f 1429 1430 1438
f 1431 1440 1439
f 1438 1431 1439
f 1430 1431 1438
f 1440 1431 1433
f 1441 1435 1340
f 1441 1340 1352
f 1443 1441 1442
f 1441 1353 1442
f 1441 1352 1353
f 1354 1444 1353
f 1353 1444 1442
f 1355 1445 1354
f 1354 1445 1444
f 1357 1445 1355
f 1436 1359 1346
f 1359 1436 1348
f 1446 1363 1438
f 1438 1363 1351
f 1438 1439 1447
f 1438 1447 1446
f 1448 1443 1442
f 1448 1442 1444
f 1448 1444 1449
f 1451 1450 1449
f 1444 1451 1449
f 1445 1451 1444
f 1364 1451 1357
f 1357 1451 1445
f 1452 1367 1368
f 1369 1452 1368
f 1453 1371 1372
f 1373 1454 1372
f 1372 1454 1453
f 1455 1454 1373
f 1455 1373 1363
f 1456 1455 1363
f 1446 1456 1363
f 1456 1446 1447
f 1459 1458 1457
f 1461 1460 1457
f 1461 1457 1458
f 1460 1461 1450
f 1451 1460 1450
f 1462 1460 1451
f 1374 1463 1364
f 1463 1451 1364
f 1463 1462 1451
f 1375 1463 1374
f 1465 1464 1452
f 1464 1367 1452
f 1464 1377 1367
f 1465 1452 1369
f 1378 1465 1369
f 1466 1465 1378
f 1378 1371 1453
f 1467 1378 1453
f 1466 1378 1467
f 1469 1468 1467
f 1453 1469 1467
f 1454 1469 1453
f 1454 1455 1470
f 1454 1470 1469
f 1473 1472 1471
f 1471 1472 1459
f 1457 1471 1459
f 1474 1471 1457
f 1475 1457 1460
f 1474 1457 1475
f 1381 1475 1380
f 1475 1462 1380
f 1475 1460 1462
f 1380 1462 1382
f 1382 1462 1463
f 1382 1463 1375
f 1464 1383 1377
f 1476 1383 1464
f 1477 1468 1469
f 1477 1469 1470
f 1480 1479 1478
f 1478 1479 1473
f 1478 1473 1471
f 1385 1478 1471
f 1386 1385 1471
f 1386 1471 1387
f 1387 1471 1474
f 1387 1474 1388
f 1388 1474 1475
f 1388 1475 1381
f 1389 1383 1481
f 1383 1482 1481
f 1383 1476 1482
f 1481 1390 1389
f 1485 1484 1483
f 1487 1486 1483
f 1487 1483 1484
f 1489 1488 1486
f 1489 1486 1487
f 1488 1489 1480
f 1488 1480 1478
f 1392 1488 1478
f 1391 1392 1478
f 1391 1478 1385
f 1492 1491 1490
f 1492 1490 1482
f 1490 1481 1482
f 1490 1493 1481
f 1493 1393 1390
f 1493 1390 1481
f 1485 1483 1494
f 1485 1494 1495
f 1396 1494 1395
f 1494 1486 1395
f 1494 1483 1486
f 1395 1486 1398
f 1398 1486 1488
f 1398 1488 1392
f 1491 1496 1490
f 1498 1497 1496
f 1497 1490 1496
f 1497 1493 1490
f 1493 1497 1393
f 1497 1499 1393
f 1499 1399 1393
f 1497 1500 1499
f 1502 1501 1400
f 1399 1502 1400
f 1499 1502 1399
f 1402 1403 1501
f 1502 1402 1501
f 1503 1402 1502
f 1494 1405 1495
f 1405 1503 1495
f 1405 1402 1503
f 1405 1494 1396
f 1498 1504 1497
f 1497 1504 1500
f 1501 1406 1400
f 1406 1501 1403
f 1505 1407 1408
f 1409 1506 1408
f 1408 1506 1505
f 1411 1506 1409
f 1507 1413 1505
f 1505 1413 1407
f 1508 1505 1506
f 1507 1505 1508
f 1415 1508 1411
f 1411 1508 1506
f 1507 1417 1413
f 1417 1507 1419
f 1507 1509 1419
f 1507 1508 1509
f 1420 1510 1415
f 1510 1508 1415
f 1510 1509 1508
f 1422 1510 1420
f 1509 1425 1419
f 1425 1509 1427
f 1509 1511 1427
f 1509 1510 1511
f 1428 1511 1422
f 1422 1511 1510
f 1512 1433 1432
f 1434 1513 1432
f 1432 1513 1512
f 1435 1513 1434
f 1511 1437 1427
f 1437 1511 1428
f 1514 1439 1440
f 1433 1512 1440
f 1512 1514 1440
f 1512 1515 1514
f 1516 1512 1513
f 1515 1512 1516
f 1441 1517 1435
f 1517 1513 1435
f 1517 1516 1513
f 1443 1517 1441
f 1518 1447 1514
f 1514 1447 1439
f 1519 1514 1515
f 1518 1514 1519
f 1520 1515 1516
f 1519 1515 1520
f 1521 1516 1517
f 1520 1516 1521
f 1448 1522 1443
f 1522 1517 1443
f 1522 1521 1517
f 1449 1523 1448
f 1448 1523 1522
f 1450 1523 1449
f 1524 1455 1456
f 1447 1518 1456
f 1518 1524 1456
f 1518 1525 1524
f 1526 1518 1519
f 1525 1518 1526
f 1527 1519 1520
f 1526 1519 1527
f 1528 1520 1521
f 1527 1520 1528
f 1459 1528 1458
f 1528 1522 1458
f 1528 1521 1522
f 1458 1522 1461
f 1461 1522 1523
f 1461 1523 1450
f 1529 1464 1465
f 1466 1530 1465
f 1465 1530 1529
f 1467 1531 1466
f 1466 1531 1530
f 1468 1531 1467
f 1532 1470 1524
f 1524 1470 1455
f 1533 1524 1525
f 1532 1524 1533
f 1534 1525 1526
f 1533 1525 1534
f 1535 1526 1527
f 1534 1526 1535
f 1473 1535 1472
f 1535 1528 1472
f 1535 1527 1528
f 1472 1528 1459
f 1536 1476 1529
f 1529 1476 1464
f 1530 1538 1537
f 1536 1530 1537
f 1529 1530 1536
f 1538 1530 1531
f 1538 1531 1539
f 1539 1531 1468
f 1477 1539 1468
f 1540 1539 1477
f 1477 1470 1532
f 1541 1477 1532
f 1540 1477 1541
f 1543 1542 1541
f 1532 1543 1541
f 1533 1543 1532
f 1544 1533 1534
f 1543 1533 1544
f 1480 1544 1479
f 1544 1535 1479
f 1544 1534 1535
f 1479 1535 1473
f 1547 1546 1545
f 1548 1547 1536
f 1547 1482 1536
f 1482 1476 1536
f 1547 1545 1482
f 1548 1536 1537
f 1550 1549 1484
f 1550 1484 1485
f 1543 1487 1542
f 1487 1549 1542
f 1487 1484 1549
f 1487 1543 1489
f 1489 1543 1544
f 1489 1544 1480
f 1545 1546 1492
f 1546 1491 1492
f 1546 1551 1491
f 1545 1492 1482
f 1554 1553 1552
f 1556 1555 1552
f 1556 1552 1553
f 1556 1550 1555
f 1550 1495 1555
f 1550 1485 1495
f 1551 1557 1491
f 1491 1557 1496
f 1559 1558 1498
f 1496 1559 1498
f 1557 1559 1496
f 1499 1500 1558
f 1559 1499 1558
f 1560 1499 1559
f 1552 1502 1554
f 1502 1560 1554
f 1502 1499 1560
f 1502 1552 1503
f 1503 1552 1555
f 1503 1555 1495
f 1558 1504 1498
f 1504 1558 1500
f 1561 1537 1538
f 1539 1562 1538
f 1538 1562 1561
f 1540 1563 1539
f 1539 1563 1562
f 1541 1564 1540
f 1540 1564 1563
f 1542 1564 1541
f 1565 1546 1547
f 1548 1566 1547
f 1547 1566 1565
f 1537 1561 1548
f 1561 1566 1548
f 1561 1567 1566
f 1568 1561 1562
f 1567 1561 1568
f 1569 1562 1563
f 1568 1562 1569
f 1550 1569 1549
f 1569 1564 1549
f 1569 1563 1564
f 1549 1564 1542
f 1570 1551 1565
f 1565 1551 1546
f 1571 1565 1566
f 1570 1565 1571
f 1572 1566 1567
f 1571 1566 1572
f 1554 1572 1553
f 1572 1568 1553
f 1572 1567 1568
f 1553 1568 1556
f 1556 1568 1569
f 1556 1569 1550
f 1570 1557 1551
f 1557 1570 1559
f 1559 1570 1571
f 1559 1571 1560
f 1560 1571 1572
f 1560 1572 1554
