v -47.0 -26.0 11.0
v -47.0 -26.0 11.0
v -47.0 -26.0 11.0
v -47.0 -26.0 11.0
v -47.0 -26.0 11.0
v -46.3 -27.0 11.0
v -46.0 -27.0 10.8
v -46.0 -27.3 11.0
v -46.0 -27.3 12.0
v -46.3 -27.0 12.0
v -46.0 -27.0 12.3
v -46.0 -26.0 10.7
v -46.5 -26.0 12.0
v -46.0 -26.0 12.6
v -46.0 -25.7 11.0
v -46.8 -25.0 12.0
v -46.0 -25.0 11.6
v -46.0 -25.5 13.0
v -46.4 -25.0 13.0
v -46.0 -25.0 13.4
v -46.0 -24.6 12.0
v -46.5 -24.0 13.0
v -46.0 -24.0 12.8
v -46.0 -24.0 13.2
v -46.0 -23.8 13.0
v -45.0 -31.0 13.0
v -45.0 -31.0 13.0
v -45.0 -31.0 13.0
v -45.0 -31.1 14.0
v -45.1 -31.0 14.0
v -45.0 -31.0 14.1
v -45.0 -31.0 13.0
v -45.0 -30.9 14.0
v -45.1 -29.0 12.0
v -45.0 -29.0 11.7
v -45.0 -29.2 12.0
v -45.0 -29.0 12.3
v -45.4 -28.0 11.0
v -45.0 -28.0 10.6
v -45.0 -28.5 11.0
v -45.6 -28.0 12.0
v -45.0 -28.5 13.0
v -45.3 -28.0 13.0
v -45.0 -28.0 13.5
v -45.0 -27.0 10.5
v -45.6 -27.0 13.0
v -45.0 -27.4 14.0
v -45.2 -27.0 14.0
v -45.0 -27.0 14.2
v -45.0 -26.2 11.0
v -45.4 -26.0 11.0
v -45.0 -26.0 11.2
v -45.7 -26.0 13.0
v -45.4 -26.0 14.0
v -45.0 -26.0 14.4
v -45.0 -25.0 11.7
v -45.4 -25.0 14.0
v -45.0 -25.0 14.3
v -45.0 -24.7 12.0
v -45.0 -24.0 12.7
v -45.0 -24.0 14.0
v -45.0 -24.0 14.0
v -45.0 -23.8 13.0
v -45.0 -24.0 14.0
v -44.3 -32.0 14.0
v -44.0 -32.0 13.5
v -44.0 -32.3 14.0
v -44.0 -32.4 15.0
v -44.4 -32.0 15.0
v -44.0 -32.4 16.0
v -44.4 -32.0 16.0
v -44.0 -32.1 17.0
v -44.1 -32.0 17.0
v -44.0 -32.0 17.1
v -44.3 -31.0 12.0
v -44.0 -31.0 11.7
v -44.0 -31.3 12.0
v -44.0 -31.7 13.0
v -44.5 -31.0 15.0
v -44.3 -31.0 16.0
v -44.0 -31.0 16.4
v -44.0 -31.9 17.0
v -44.0 -30.0 10.0
v -44.0 -30.0 10.0
v -44.0 -30.0 10.0
v -44.0 -30.0 10.1
v -44.5 -30.0 12.0
v -44.0 -30.0 11.2
v -44.6 -30.0 13.0
v -44.5 -30.0 14.0
v -44.0 -30.0 14.7
v -44.0 -30.3 15.0
v -44.0 -30.7 16.0
v -44.4 -29.0 10.0
v -44.0 -29.0 9.6
v -44.0 -29.8 11.0
v -44.6 -29.0 11.0
v -44.7 -29.0 13.0
v -44.4 -29.0 14.0
v -44.0 -29.0 14.5
v -44.5 -28.0 10.0
v -44.0 -28.0 9.5
v -44.6 -28.0 14.0
v -44.0 -28.0 14.5
v -44.4 -27.0 10.0
v -44.0 -27.0 9.6
v -44.0 -27.0 14.6
v -44.0 -26.5 10.0
v -44.7 -26.0 11.0
v -44.0 -26.0 10.5
v -44.0 -26.0 14.6
v -44.2 -25.0 5.0
v -44.0 -25.0 4.7
v -44.0 -25.3 5.0
v -44.0 -25.5 6.0
v -44.4 -25.0 6.0
v -44.0 -25.3 7.0
v -44.2 -25.0 7.0
v -44.0 -25.0 7.3
v -44.0 -25.6 11.0
v -44.0 -25.1 12.0
v -44.3 -25.0 12.0
v -44.0 -25.0 12.1
v -44.0 -25.0 14.5
v -44.4 -24.0 5.0
v -44.0 -24.0 4.5
v -44.5 -24.0 6.0
v -44.3 -24.0 7.0
v -44.0 -24.0 7.4
v -44.7 -24.0 13.0
v -44.0 -24.4 13.0
v -45.0 -24.0 14.0
v -44.0 -24.5 14.0
v -44.4 -23.0 5.0
v -44.0 -23.0 4.4
v -44.3 -23.0 6.0
v -44.0 -23.0 6.5
v -44.0 -23.6 7.0
v -44.2 -22.0 4.0
v -44.0 -22.0 3.8
v -44.0 -22.4 4.0
v -44.3 -22.0 5.0
v -44.0 -22.0 5.4
v -44.0 -22.6 6.0
v -44.1 -21.0 4.0
v -44.0 -21.0 3.8
v -44.0 -21.0 4.2
v -44.0 -21.6 5.0
v -44.0 -20.9 4.0
v -43.4 -33.0 15.0
v -43.0 -33.0 14.5
v -43.0 -33.3 15.0
v -43.0 -33.4 16.0
v -43.5 -33.0 16.0
v -43.0 -33.3 17.0
v -43.3 -33.0 17.0
v -43.0 -33.0 17.3
v -43.3 -32.0 12.0
v -43.0 -32.0 11.7
v -43.0 -32.2 12.0
v -43.0 -32.4 13.0
v -43.6 -32.0 13.0
v -43.0 -32.7 14.0
v -43.0 -32.0 17.6
v -43.0 -31.0 11.2
v -43.5 -31.0 17.0
v -43.0 -31.0 17.8
v -43.0 -30.0 9.4
v -43.0 -30.5 10.0
v -43.0 -30.7 11.0
v -43.8 -30.0 11.0
v -43.7 -30.0 15.0
v -43.4 -30.0 16.0
v -43.0 -30.0 16.5
v -43.0 -30.4 17.0
v -43.4 -29.0 9.0
v -43.0 -29.0 8.6
v -43.0 -29.5 9.0
v -43.5 -29.0 15.0
v -43.0 -29.0 15.6
v -43.0 -29.5 16.0
v -43.5 -28.0 9.0
v -43.0 -28.0 8.4
v -43.5 -28.0 15.0
v -43.0 -28.0 15.5
v -43.3 -27.0 8.0
v -43.0 -27.0 7.5
v -43.0 -27.5 8.0
v -43.5 -27.0 9.0
v -43.5 -27.0 15.0
v -43.0 -27.0 15.5
v -43.4 -26.0 5.0
v -43.0 -26.0 4.6
v -43.0 -26.4 5.0
v -43.0 -26.5 6.0
v -43.5 -26.0 6.0
v -43.0 -26.6 7.0
v -43.5 -26.0 7.0
v -43.4 -26.0 8.0
v -43.1 -26.0 9.0
v -43.6 -26.0 10.0
v -43.5 -26.0 15.0
v -43.0 -26.0 15.4
v -43.3 -25.0 4.0
v -43.0 -25.0 3.7
v -43.0 -25.4 4.0
v -43.6 -25.0 8.0
v -43.3 -25.0 9.0
v -43.3 -25.0 10.0
v -43.5 -25.0 11.0
v -43.8 -25.0 12.0
v -43.3 -25.0 15.0
v -43.0 -25.0 15.2
v -43.5 -24.0 4.0
v -43.0 -24.0 3.5
v -43.5 -24.0 8.0
v -43.0 -24.0 8.6
v -43.0 -24.5 9.0
v -43.0 -24.6 10.0
v -43.0 -24.6 11.0
v -43.0 -24.5 12.0
v -43.1 -24.0 13.0
v -43.0 -24.0 12.9
v -43.0 -24.0 13.1
v -43.0 -24.4 14.0
v -43.0 -24.8 15.0
v -43.6 -23.0 4.0
v -43.0 -23.0 3.5
v -43.6 -23.0 7.0
v -43.2 -23.0 8.0
v -43.0 -23.0 8.2
v -43.0 -23.9 13.0
v -43.0 -22.0 3.3
v -43.5 -22.0 6.0
v -43.0 -22.0 6.6
v -43.0 -22.3 7.0
v -43.0 -22.7 8.0
v -43.4 -21.0 3.0
v -43.0 -21.0 2.6
v -43.0 -21.6 3.0
v -43.4 -21.0 5.0
v -43.0 -21.0 5.5
v -43.0 -21.5 6.0
v -43.5 -20.0 3.0
v -43.0 -20.0 2.0
v -43.0 -20.5 4.0
v -43.0 -20.0 3.2
v -43.0 -20.7 5.0
v -43.0 -19.8 3.0
v -42.2 -34.0 17.0
v -42.0 -34.0 16.7
v -42.0 -34.1 17.0
v -42.0 -34.0 17.2
v -42.5 -33.0 14.0
v -42.0 -33.0 13.5
v -42.0 -33.3 14.0
v -42.0 -33.6 15.0
v -42.0 -33.7 16.0
v -42.0 -33.4 18.0
v -42.3 -33.0 18.0
v -42.0 -33.0 18.3
v -42.3 -32.0 11.0
v -42.0 -32.0 10.6
v -42.0 -32.3 11.0
v -42.0 -32.6 12.0
v -42.0 -32.7 13.0
v -42.5 -32.0 18.0
v -42.0 -32.0 18.3
v -42.4 -31.0 10.0
v -42.0 -31.0 9.5
v -42.0 -31.5 10.0
v -42.8 -31.0 11.0
v -42.0 -31.4 18.0
v -42.0 -31.0 17.8
v -42.3 -30.0 7.0
v -42.0 -30.0 6.6
v -42.0 -30.3 7.0
v -42.0 -30.5 8.0
v -42.4 -30.0 8.0
v -42.0 -30.6 9.0
v -42.6 -30.0 9.0
v -42.4 -30.0 17.0
v -42.0 -30.0 17.3
v -42.3 -29.0 6.0
v -42.0 -29.0 5.7
v -42.0 -29.4 6.0
v -42.5 -29.0 7.0
v -42.6 -29.0 8.0
v -42.6 -29.0 16.0
v -42.0 -29.0 16.5
v -42.0 -29.6 17.0
v -42.2 -28.0 5.0
v -42.0 -28.0 4.8
v -42.0 -28.3 5.0
v -42.5 -28.0 6.0
v -42.5 -28.0 7.0
v -42.7 -28.0 8.0
v -42.5 -28.0 16.0
v -42.0 -28.0 16.4
v -42.5 -27.0 5.0
v -42.0 -27.0 4.4
v -42.6 -27.0 6.0
v -42.7 -27.0 7.0
v -42.4 -27.0 16.0
v -42.0 -27.0 16.3
v -42.5 -26.0 4.0
v -42.0 -26.0 3.6
v -42.0 -26.5 4.0
v -42.0 -26.5 16.0
v -42.0 -26.0 15.7
v -42.0 -25.0 3.3
v -42.0 -25.0 15.3
v -42.4 -24.0 3.0
v -42.0 -24.0 2.7
v -42.0 -24.5 3.0
v -42.6 -24.0 9.0
v -42.0 -24.0 9.6
v -42.0 -24.2 10.0
v -42.0 -24.4 11.0
v -42.0 -24.4 12.0
v -42.0 -24.0 12.9
v -42.0 -24.4 14.0
v -42.0 -24.0 13.1
v -42.0 -24.8 15.0
v -42.5 -23.0 3.0
v -42.0 -23.0 2.5
v -42.0 -23.4 9.0
v -42.0 -23.0 8.7
v -42.0 -23.9 13.0
v -42.1 -22.0 2.0
v -42.0 -22.0 1.9
v -42.0 -22.1 2.0
v -42.7 -22.0 3.0
v -42.7 -22.0 7.0
v -42.4 -22.0 8.0
v -42.0 -22.0 8.4
v -42.3 -21.0 2.0
v -42.0 -21.0 1.8
v -42.6 -21.0 6.0
v -42.3 -21.0 7.0
v -42.0 -21.0 7.4
v -42.0 -21.6 8.0
v -42.0 -20.2 2.0
v -42.0 -20.5 3.0
v -42.7 -20.0 3.0
v -42.0 -20.5 4.0
v -42.0 -20.5 5.0
v -42.0 -20.6 6.0
v -42.0 -20.8 7.0
v -41.3 -34.0 15.0
v -41.0 -34.0 14.7
v -41.0 -34.3 15.0
v -41.0 -34.4 16.0
v -41.6 -34.0 16.0
v -41.0 -34.5 17.0
v -41.0 -34.3 18.0
v -41.4 -34.0 18.0
v -41.0 -34.0 18.4
v -41.4 -33.0 12.0
v -41.0 -33.0 11.5
v -41.0 -33.3 12.0
v -41.0 -33.4 13.0
v -41.6 -33.0 13.0
v -41.0 -33.6 14.0
v -41.0 -33.0 18.6
v -41.4 -32.0 10.0
v -41.0 -32.0 9.5
v -41.0 -32.3 10.0
v -41.0 -32.7 11.0
v -41.0 -32.0 18.6
v -41.3 -31.0 7.0
v -41.0 -31.0 6.7
v -41.0 -31.2 7.0
v -41.0 -31.4 8.0
v -41.5 -31.0 8.0
v -41.0 -31.6 9.0
v -41.6 -31.0 9.0
v -41.6 -31.0 18.0
v -41.0 -31.0 18.3
v -41.4 -30.0 6.0
v -41.0 -30.0 5.7
v -41.0 -30.3 6.0
v -41.0 -30.6 18.0
v -41.0 -30.0 17.5
v -41.0 -29.0 5.4
v -41.0 -29.4 17.0
v -41.0 -29.0 16.7
v -41.0 -28.0 4.5
v -41.0 -28.5 5.0
v -41.0 -28.0 16.4
v -41.5 -27.0 4.0
v -41.0 -27.0 3.5
v -41.0 -27.4 4.0
v -41.0 -27.0 16.3
v -41.3 -26.0 3.0
v -41.0 -26.0 2.7
v -41.0 -26.4 3.0
v -41.1 -26.0 16.0
v -41.0 -26.0 16.0
v -41.6 -25.0 3.0
v -41.0 -25.0 2.6
v -41.6 -25.0 15.0
v -41.0 -25.4 15.0
v -41.0 -25.0 14.6
v -41.0 -26.0 16.0
v -41.0 -24.0 2.4
v -41.7 -24.0 10.0
v -41.4 -24.0 11.0
v -41.0 -24.0 11.6
v -41.0 -24.3 12.0
v -41.9 -24.0 13.0
v -41.0 -24.4 13.0
v -41.0 -24.6 14.0
v -41.0 -23.0 2.1
v -41.7 -23.0 9.0
v -41.3 -23.0 10.0
v -41.0 -23.0 10.5
v -41.0 -23.5 11.0
v -41.9 -22.0 2.0
v -41.0 -22.0 2.5
v -41.4 -22.0 9.0
v -41.0 -22.0 9.5
v -41.0 -22.5 10.0
v -41.8 -21.0 2.0
v -41.0 -21.5 3.0
v -41.4 -21.0 3.0
v -41.0 -21.0 3.5
v -41.4 -21.0 8.0
v -41.0 -21.0 8.5
v -41.0 -21.5 9.0
v -41.0 -20.7 4.0
v -41.0 -20.5 5.0
v -41.0 -20.5 6.0
v -41.0 -20.5 7.0
v -41.0 -20.7 8.0
v -40.0 -35.0 19.0
v -40.0 -35.0 18.9
v -40.0 -35.0 19.0
v -40.0 -35.0 19.0
v -40.0 -34.0 14.3
v -40.0 -34.5 15.0
v -40.0 -34.6 16.0
v -40.0 -34.6 17.0
v -40.0 -34.7 18.0
v -40.4 -34.0 19.0
v -40.0 -34.0 19.4
v -40.5 -33.0 11.0
v -40.0 -33.0 10.6
v -40.0 -33.3 11.0
v -40.0 -33.5 12.0
v -40.0 -33.6 13.0
v -40.0 -33.8 14.0
v -40.5 -33.0 19.0
v -40.0 -33.0 19.4
v -40.5 -32.0 9.0
v -40.0 -32.0 8.5
v -40.0 -32.3 9.0
v -40.0 -32.6 10.0
v -40.3 -32.0 19.0
v -40.0 -32.0 19.2
v -40.0 -31.0 6.5
v -40.0 -31.5 7.0
v -40.0 -31.7 8.0
v -40.0 -31.7 19.0
v -40.0 -31.0 18.5
v -40.0 -30.0 5.6
v -40.0 -30.5 6.0
v -40.0 -30.3 18.0
v -40.0 -30.0 17.7
v -40.0 -29.0 5.4
v -40.5 -29.0 17.0
v -40.0 -29.0 17.3
v -40.0 -28.0 4.4
v -40.0 -28.6 5.0
v -40.0 -28.0 16.0
v -40.0 -28.0 16.0
v -40.0 -28.0 16.0
v -40.0 -28.7 17.0
v -40.2 -27.0 3.0
v -40.0 -27.0 2.9
v -40.0 -27.1 3.0
v -40.0 -27.7 4.0
v -40.4 -27.0 16.0
v -40.0 -27.0 15.7
v -40.0 -26.0 2.5
v -40.1 -26.0 15.0
v -40.0 -26.1 15.0
v -40.0 -26.0 14.9
v -41.0 -26.0 16.0
v -40.0 -25.0 2.5
v -40.0 -25.0 14.5
v -40.0 -24.0 2.5
v -40.6 -24.0 12.0
v -40.0 -24.0 12.6
v -40.0 -24.2 13.0
v -40.0 -24.5 14.0
v -40.0 -23.0 2.6
v -40.6 -23.0 11.0
v -40.0 -23.0 11.6
v -40.0 -23.4 12.0
v -40.0 -22.5 3.0
v -40.5 -22.0 3.0
v -40.0 -22.0 3.5
v -40.7 -22.0 10.0
v -40.4 -22.0 11.0
v -40.0 -22.0 11.4
v -40.6 -21.0 4.0
v -40.0 -21.5 4.0
v -40.0 -21.0 4.6
v -40.6 -21.0 9.0
v -40.4 -21.0 10.0
v -40.2 -21.0 11.0
v -40.0 -21.0 11.2
v -40.0 -20.7 5.0
v -40.0 -20.6 6.0
v -40.0 -20.6 7.0
v -40.0 -20.5 8.0
v -40.0 -20.3 9.0
v -40.0 -20.6 10.0
v -40.0 -20.8 11.0
v -39.1 -36.0 18.0
v -39.0 -36.0 17.9
v -39.0 -36.1 18.0
v -39.0 -36.0 18.1
v -39.3 -35.0 15.0
v -39.0 -35.0 14.7
v -39.0 -35.2 15.0
v -39.0 -35.4 16.0
v -39.5 -35.0 16.0
v -39.0 -35.6 17.0
v -39.5 -35.0 17.0
v -39.7 -35.0 18.0
v -39.0 -35.4 19.0
v -39.0 -35.0 19.4
v -39.2 -34.0 13.0
v -39.0 -34.0 12.8
v -39.0 -34.1 13.0
v -39.0 -34.5 14.0
v -39.7 -34.0 14.0
v -39.0 -34.0 19.5
v -39.0 -33.0 10.4
v -39.0 -33.4 11.0
v -39.0 -33.6 12.0
v -39.0 -33.0 19.5
v -39.1 -32.0 7.0
v -39.0 -32.0 6.9
v -39.0 -32.1 7.0
v -39.0 -32.4 8.0
v -39.6 -32.0 8.0
v -39.0 -32.6 9.0
v -39.0 -32.7 10.0
v -39.0 -32.0 19.4
v -39.0 -31.0 6.4
v -39.0 -31.5 19.0
v -39.0 -31.0 18.5
v -39.0 -30.0 5.7
v -39.0 -30.4 6.0
v -39.5 -30.0 18.0
v -39.0 -30.0 18.3
v -39.0 -29.0 5.4
v -39.0 -29.0 18.0
v -39.0 -29.0 18.0
v -39.2 -28.0 4.0
v -39.0 -28.0 3.9
v -39.0 -28.1 4.0
v -39.0 -28.6 5.0
v -40.0 -28.0 16.0
v -39.0 -28.0 16.5
v -39.0 -28.4 17.0
v -39.0 -29.0 18.0
v -39.8 -27.0 3.0
v -39.0 -27.0 3.3
v -39.5 -27.0 16.0
v -39.0 -27.0 16.2
v -39.0 -26.0 2.7
v -39.0 -26.4 3.0
v -39.9 -26.0 15.0
v -39.0 -26.0 15.5
v -39.0 -26.7 16.0
v -39.0 -25.0 2.6
v -39.3 -25.0 15.0
v -39.0 -25.0 15.2
v -39.0 -24.0 2.8
v -39.7 -24.0 13.0
v -39.4 -24.0 14.0
v -39.0 -24.0 14.3
v -39.0 -24.7 15.0
v -39.0 -23.6 3.0
v -39.5 -23.0 3.0
v -39.0 -23.0 3.6
v -39.6 -23.0 12.0
v -39.2 -23.0 13.0
v -39.0 -23.0 13.3
v -39.0 -23.7 14.0
v -39.5 -22.0 4.0
v -39.0 -22.6 4.0
v -39.0 -22.0 4.6
v -39.0 -22.3 12.0
v -39.0 -22.0 11.7
v -39.0 -22.8 13.0
v -39.7 -21.0 5.0
v -39.0 -21.7 5.0
v -39.5 -21.0 6.0
v -39.0 -21.5 6.0
v -39.4 -21.0 7.0
v -39.0 -21.4 7.0
v -39.0 -21.0 7.7
v -39.2 -21.0 9.0
v -39.0 -21.1 9.0
v -39.0 -21.0 8.5
v -39.0 -21.0 9.2
v -39.0 -21.0 11.2
v -39.0 -20.8 8.0
v -39.0 -20.6 10.0
v -39.0 -20.8 11.0
v -38.4 -36.0 17.0
v -38.0 -36.0 16.6
v -38.0 -36.3 17.0
v -38.0 -36.4 18.0
v -38.0 -36.0 18.6
v -38.0 -35.0 14.6
v -38.0 -35.3 15.0
v -38.0 -35.6 16.0
v -38.0 -35.7 19.0
v -38.0 -35.0 20.0
v -38.0 -35.0 20.0
v -38.0 -35.0 20.0
v -38.7 -34.0 13.0
v -38.0 -34.0 13.4
v -38.0 -34.5 14.0
v -38.0 -35.0 20.0
v -38.0 -34.0 19.6
v -38.2 -33.0 9.0
v -38.0 -33.0 8.8
v -38.0 -33.1 9.0
v -38.0 -33.4 10.0
v -38.6 -33.0 10.0
v -38.0 -33.5 11.0
v -38.0 -33.5 12.0
v -38.0 -33.7 13.0
v -38.0 -33.0 19.5
v -38.9 -32.0 7.0
v -38.0 -32.0 7.4
v -38.0 -32.5 8.0
v -38.0 -32.0 19.4
v -38.0 -31.0 6.7
v -38.0 -31.5 7.0
v -38.0 -31.0 18.0
v -38.0 -31.0 18.0
v -38.0 -31.0 18.0
v -38.0 -31.6 19.0
v -38.5 -30.0 6.0
v -38.0 -30.0 6.3
v -38.5 -30.0 18.0
v -38.0 -30.0 17.7
v -38.0 -29.0 5.6
v -38.0 -29.5 6.0
v -39.0 -29.0 18.0
v -38.0 -29.0 17.5
v -38.8 -28.0 4.0
v -38.0 -28.0 4.6
v -38.0 -28.4 5.0
v -38.0 -28.5 17.0
v -38.0 -28.0 16.6
v -38.0 -27.0 3.7
v -38.0 -27.4 4.0
v -38.0 -27.0 16.4
v -38.7 -26.0 3.0
v -38.0 -26.0 3.7
v -38.0 -26.5 16.0
v -38.0 -26.0 15.6
v -38.6 -25.0 3.0
v -38.0 -25.5 4.0
v -38.3 -25.0 4.0
v -38.0 -25.0 4.4
v -38.0 -25.0 15.4
v -38.8 -24.0 3.0
v -38.4 -24.0 4.0
v -38.0 -24.0 4.6
v -38.0 -24.5 15.0
v -38.0 -24.0 14.5
v -38.7 -23.0 4.0
v -38.0 -23.5 5.0
v -38.3 -23.0 5.0
v -38.0 -23.0 5.5
v -38.0 -23.5 14.0
v -38.0 -23.0 13.4
v -38.7 -22.0 5.0
v -38.0 -22.6 6.0
v -38.5 -22.0 6.0
v -38.4 -22.0 7.0
v -38.0 -22.4 7.0
v -38.0 -22.0 7.7
v -38.1 -22.0 9.0
v -38.0 -22.1 9.0
v -38.0 -22.0 8.7
v -38.0 -22.0 9.1
v -38.3 -22.0 12.0
v -38.0 -22.0 12.1
v -38.0 -22.7 13.0
v -38.8 -21.0 8.0
v -38.0 -21.8 8.0
v -38.0 -21.0 9.9
v -38.6 -21.0 11.0
v -38.0 -21.4 11.0
v -38.0 -21.0 10.1
v -38.0 -21.9 12.0
v -38.0 -20.9 10.0
v -37.0 -36.0 16.6
v -37.0 -36.3 17.0
v -37.0 -36.9 18.0
v -37.0 -36.3 19.0
v -37.5 -36.0 19.0
v -37.0 -36.0 19.4
v -37.5 -35.0 15.0
v -37.0 -35.0 15.5
v -37.0 -35.4 16.0
v -37.0 -35.1 20.0
v -37.0 -35.0 20.1
v -37.0 -34.0 13.3
v -37.0 -34.4 14.0
v -37.0 -34.7 15.0
v -37.0 -34.9 20.0
v -37.0 -34.0 19.6
v -37.7 -33.0 9.0
v -37.0 -33.0 9.4
v -37.0 -33.4 10.0
v -37.0 -33.5 11.0
v -37.0 -33.6 12.0
v -37.0 -33.8 13.0
v -37.0 -33.0 19.6
v -37.0 -32.0 7.6
v -37.0 -32.4 8.0
v -37.0 -32.7 9.0
v -37.0 -32.0 19.5
v -37.5 -31.0 7.0
v -37.0 -31.0 7.3
v -38.0 -31.0 18.0
v -37.0 -31.0 18.6
v -37.0 -31.4 19.0
v -37.0 -30.0 6.7
v -37.0 -30.5 7.0
v -37.5 -30.0 18.0
v -37.0 -30.0 18.3
v -37.5 -29.0 6.0
v -37.0 -29.0 6.4
v -37.0 -29.7 18.0
v -37.0 -29.0 17.5
v -37.6 -28.0 5.0
v -37.0 -28.0 5.6
v -37.0 -28.5 6.0
v -37.0 -28.4 17.0
v -37.0 -28.0 16.7
v -37.8 -27.0 4.0
v -37.4 -27.0 5.0
v -37.0 -27.0 5.5
v -37.0 -27.0 16.4
v -37.7 -26.0 4.0
v -37.4 -26.0 5.0
v -37.0 -26.0 5.5
v -37.0 -26.5 16.0
v -37.0 -26.0 15.6
v -37.6 -25.0 5.0
v -37.0 -25.3 6.0
v -37.2 -25.0 6.0
v -37.0 -25.0 6.2
v -37.0 -25.0 15.3
v -37.7 -24.0 5.0
v -37.4 -24.0 6.0
v -37.0 -24.0 6.4
v -37.0 -24.7 15.0
v -37.0 -24.0 14.3
v -37.7 -23.0 6.0
v -37.0 -23.4 7.0
v -37.4 -23.0 7.0
v -37.1 -23.0 8.0
v -37.0 -23.0 8.0
v -37.0 -23.0 8.1
v -37.5 -23.0 13.0
v -37.0 -23.4 13.0
v -37.0 -23.0 12.4
v -37.0 -23.7 14.0
v -37.8 -22.0 8.0
v -37.0 -22.5 9.0
v -37.0 -22.0 9.8
v -37.4 -22.0 11.0
v -37.0 -22.4 11.0
v -37.0 -22.0 10.2
v -37.8 -22.0 12.0
v -37.0 -22.7 12.0
v -37.0 -21.9 10.0
v -37.9 -21.0 10.0
v -36.4 -36.0 17.0
v -36.0 -36.0 17.3
v -36.0 -36.4 18.0
v -36.0 -36.2 19.0
v -36.0 -36.0 19.2
v -36.1 -35.0 16.0
v -36.0 -35.0 16.1
v -36.0 -35.8 17.0
v -36.8 -35.0 20.0
v -36.0 -35.0 19.7
v -36.4 -34.0 12.0
v -36.0 -34.0 11.6
v -36.0 -34.3 12.0
v -36.0 -34.5 13.0
v -36.7 -34.0 13.0
v -36.0 -34.6 14.0
v -36.0 -34.7 15.0
v -36.0 -34.9 16.0
v -36.0 -34.0 19.7
v -36.0 -33.0 9.5
v -36.0 -33.4 10.0
v -36.0 -33.6 11.0
v -36.0 -33.3 20.0
v -36.2 -33.0 20.0
v -36.0 -33.0 20.1
v -36.0 -32.0 7.8
v -36.0 -32.2 8.0
v -36.0 -32.6 9.0
v -36.1 -32.0 20.0
v -36.0 -32.0 20.1
v -36.0 -31.0 7.5
v -36.5 -31.0 19.0
v -36.0 -31.0 19.4
v -36.0 -31.9 20.0
v -36.6 -30.0 7.0
v -36.0 -30.0 7.4
v -36.0 -30.6 19.0
v -36.0 -30.0 18.5
v -36.3 -29.0 7.0
v -36.0 -29.0 7.2
v -36.0 -29.5 18.0
v -36.0 -29.0 17.6
v -36.6 -28.0 6.0
v -36.0 -28.0 6.6
v -36.0 -28.6 7.0
v -36.5 -28.0 17.0
v -36.0 -28.0 17.3
v -36.5 -27.0 6.0
v -36.0 -27.1 7.0
v -36.0 -27.0 7.0
v -36.0 -27.0 7.0
v -36.0 -27.6 17.0
v -36.0 -27.0 16.5
v -36.0 -26.0 6.0
v -36.0 -26.0 6.0
v -36.0 -27.0 7.0
v -36.0 -26.5 16.0
v -36.0 -26.0 15.4
v -36.0 -26.0 6.0
v -36.0 -25.0 6.5
v -36.6 -25.0 15.0
v -36.0 -25.6 15.0
v -36.0 -25.0 14.4
v -36.0 -24.0 6.7
v -36.3 -24.0 11.0
v -36.0 -24.4 11.0
v -36.0 -24.0 10.5
v -36.4 -24.0 12.0
v -36.0 -24.5 12.0
v -36.5 -24.0 13.0
v -36.0 -24.5 13.0
v -36.7 -24.0 14.0
v -36.0 -24.7 14.0
v -36.0 -23.1 7.0
v -36.8 -23.0 8.0
v -36.0 -23.0 7.1
v -36.3 -23.0 10.0
v -36.0 -23.5 10.0
v -36.0 -23.0 9.4
v -36.6 -23.0 11.0
v -36.7 -23.0 12.0
v -36.0 -22.8 8.0
v -36.0 -22.8 9.0
v -36.9 -22.0 10.0
v -35.0 -36.0 16.0
v -35.0 -36.0 16.0
v -35.0 -36.0 16.0
v -35.0 -36.1 17.0
v -35.4 -36.0 17.0
v -35.5 -36.0 18.0
v -35.0 -36.0 17.2
v -35.7 -36.0 19.0
v -35.0 -35.0 12.0
v -35.0 -35.0 12.0
v -35.0 -35.0 12.0
v -35.0 -35.2 13.0
v -35.3 -35.0 13.0
v -35.0 -35.4 14.0
v -35.5 -35.0 14.0
v -35.0 -35.5 15.0
v -35.5 -35.0 15.0
v -35.9 -35.0 16.0
v -35.0 -35.7 18.0
v -35.0 -35.6 19.0
v -35.0 -35.1 20.0
v -35.1 -35.0 20.0
v -35.0 -35.0 20.1
v -35.0 -34.0 11.4
v -35.5 -34.0 20.0
v -35.0 -34.0 20.2
v -35.0 -33.0 9.7
v -35.0 -33.3 10.0
v -35.0 -33.6 11.0
v -35.7 -33.0 20.0
v -35.0 -33.0 19.7
v -35.0 -33.5 20.0
v -35.6 -32.0 8.0
v -35.0 -32.0 8.5
v -35.0 -32.4 9.0
v -35.9 -32.0 20.0
v -35.0 -32.0 19.6
v -35.0 -31.0 7.7
v -35.0 -31.4 8.0
v -35.0 -31.0 19.4
v -35.0 -30.0 7.6
v -35.0 -30.5 19.0
v -35.0 -30.0 18.5
v -35.0 -29.0 7.5
v -35.0 -29.5 18.0
v -35.0 -29.0 17.6
v -35.0 -28.0 7.0
v -35.0 -28.0 7.0
v -35.0 -28.0 17.2
v -35.0 -28.0 7.0
v -35.0 -27.0 7.5
v -35.0 -27.7 17.0
v -35.0 -27.0 16.3
v -36.0 -26.0 6.0
v -35.5 -26.0 7.0
v -35.0 -26.0 7.5
v -35.3 -26.0 13.0
v -35.0 -26.4 13.0
v -35.0 -26.0 12.5
v -35.4 -26.0 14.0
v -35.0 -26.5 14.0
v -35.6 -26.0 15.0
v -35.0 -26.5 15.0
v -35.0 -26.8 16.0
v -35.5 -25.0 7.0
v -35.0 -25.0 7.7
v -35.3 -25.0 10.0
v -35.0 -25.4 10.0
v -35.0 -25.0 9.5
v -35.5 -25.0 11.0
v -35.0 -25.5 11.0
v -35.5 -25.0 12.0
v -35.0 -25.6 12.0
v -35.6 -25.0 13.0
v -35.7 -25.0 14.0
v -35.7 -24.0 7.0
v -35.0 -24.7 8.0
v -35.4 -24.0 8.0
v -35.4 -24.0 9.0
v -35.0 -24.6 9.0
v -35.7 -24.0 10.0
v -35.8 -23.0 8.0
v -35.8 -23.0 9.0
v -35.0 -36.0 16.0
v -34.8 -36.0 17.0
v -35.0 -35.0 12.0
v -34.6 -35.0 13.0
v -34.0 -35.0 13.5
v -34.0 -35.3 14.0
v -34.0 -35.4 15.0
v -34.0 -35.6 16.0
v -34.0 -35.5 17.0
v -34.0 -35.4 18.0
v -34.0 -35.2 19.0
v -34.9 -35.0 20.0
v -34.0 -35.0 19.4
v -34.0 -34.0 11.6
v -34.0 -34.4 12.0
v -34.0 -34.7 13.0
v -34.0 -34.1 20.0
v -34.0 -34.0 20.1
v -34.6 -33.0 10.0
v -34.0 -33.0 10.4
v -34.0 -33.5 11.0
v -34.0 -33.9 20.0
v -34.0 -33.0 19.6
v -34.5 -32.0 9.0
v -34.0 -32.0 9.5
v -34.0 -32.5 10.0
v -34.0 -32.0 19.5
v -34.7 -31.0 8.0
v -34.0 -31.0 8.6
v -34.0 -31.4 9.0
v -34.0 -31.0 19.4
v -34.5 -30.0 8.0
v -34.0 -30.0 8.5
v -34.0 -30.5 19.0
v -34.0 -30.0 18.5
v -34.5 -29.0 8.0
v -34.0 -29.0 8.5
v -34.0 -29.5 18.0
v -34.0 -29.0 17.4
v -35.0 -28.0 7.0
v -34.4 -28.0 8.0
v -34.0 -28.0 8.6
v -34.3 -28.0 16.0
v -34.0 -28.3 16.0
v -34.0 -28.0 15.6
v -34.7 -28.0 17.0
v -34.0 -28.6 17.0
v -34.6 -27.0 8.0
v -34.0 -27.5 9.0
v -34.3 -27.0 9.0
v -34.0 -27.0 9.5
v -34.3 -27.0 12.0
v -34.0 -27.4 12.0
v -34.0 -27.0 11.5
v -34.5 -27.0 13.0
v -34.0 -27.5 13.0
v -34.5 -27.0 14.0
v -34.0 -27.5 14.0
v -34.5 -27.0 15.0
v -34.0 -27.6 15.0
v -34.8 -27.0 16.0
v -34.6 -26.0 8.0
v -34.5 -26.0 9.0
v -34.0 -26.6 10.0
v -34.5 -26.0 10.0
v -34.5 -26.0 11.0
v -34.0 -26.6 11.0
v -34.7 -26.0 12.0
v -34.8 -25.0 8.0
v -34.7 -25.0 9.0
v -33.6 -35.0 14.0
v -33.4 -35.0 15.0
v -33.0 -35.0 15.8
v -33.0 -35.1 16.0
v -33.4 -35.0 17.0
v -33.0 -35.0 16.2
v -33.5 -35.0 18.0
v -33.7 -35.0 19.0
v -33.5 -34.0 12.0
v -33.0 -34.0 12.6
v -33.0 -34.3 13.0
v -33.0 -34.5 14.0
v -33.0 -34.6 15.0
v -33.0 -34.6 17.0
v -33.0 -34.4 18.0
v -33.0 -34.0 18.5
v -33.3 -34.0 19.0
v -33.9 -34.0 20.0
v -33.0 -33.0 10.8
v -33.0 -33.2 11.0
v -33.0 -33.6 12.0
v -33.0 -33.4 19.0
v -33.0 -33.0 19.3
v -33.5 -32.0 10.0
v -33.0 -32.0 10.4
v -33.0 -32.0 19.3
v -33.6 -31.0 9.0
v -33.0 -31.0 9.6
v -33.0 -31.5 10.0
v -33.0 -31.0 19.2
v -33.5 -30.0 9.0
v -33.0 -30.0 9.6
v -33.0 -30.7 19.0
v -33.0 -30.0 18.3
v -33.6 -29.0 9.0
v -33.0 -29.5 10.0
v -33.3 -29.0 10.0
v -33.0 -29.0 10.5
v -33.5 -29.0 17.0
v -33.0 -29.4 17.0
v -33.0 -29.0 16.4
v -33.0 -29.8 18.0
v -33.7 -28.0 9.0
v -33.5 -28.0 10.0
v -33.0 -28.6 11.0
v -33.4 -28.0 11.0
v -33.5 -28.0 12.0
v -33.0 -28.5 12.0
v -33.5 -28.0 13.0
v -33.0 -28.5 13.0
v -33.5 -28.0 14.0
v -33.0 -28.5 14.0
v -33.6 -28.0 15.0
v -33.0 -28.5 15.0
v -33.0 -28.7 16.0
v -33.7 -27.0 10.0
v -33.7 -27.0 11.0
v -32.9 -35.0 16.0
v -32.7 -34.0 13.0
v -32.5 -34.0 14.0
v -32.5 -34.0 15.0
v -32.4 -34.0 16.0
v -32.6 -34.0 17.0
v -32.7 -34.0 18.0
v -32.8 -33.0 11.0
v -32.5 -33.0 12.0
v -32.3 -33.0 13.0
v -32.0 -33.0 13.5
v -32.0 -33.4 14.0
v -32.0 -33.5 15.0
v -32.0 -33.4 16.0
v -32.0 -33.0 16.5
v -32.3 -33.0 17.0
v -32.5 -33.0 18.0
v -32.8 -33.0 19.0
v -32.4 -32.0 11.0
v -32.0 -32.0 11.6
v -32.0 -32.4 12.0
v -32.0 -32.6 13.0
v -32.0 -32.5 17.0
v -32.0 -32.0 17.4
v -32.4 -32.0 18.0
v -32.7 -32.0 19.0
v -32.7 -31.0 10.0
v -32.0 -31.0 10.8
v -32.0 -31.3 11.0
v -32.4 -31.0 18.0
v -32.0 -31.0 17.4
v -32.8 -31.0 19.0
v -32.7 -30.0 10.0
v -32.0 -30.7 11.0
v -32.3 -30.0 11.0
v -32.0 -30.0 11.5
v -32.4 -30.0 17.0
v -32.0 -30.6 17.0
v -32.0 -30.0 16.4
v -32.8 -30.0 18.0
v -32.7 -29.0 11.0
v -32.0 -29.6 12.0
v -32.5 -29.0 12.0
v -32.5 -29.0 13.0
v -32.0 -29.5 13.0
v -32.5 -29.0 14.0
v -32.0 -29.5 14.0
v -32.5 -29.0 15.0
v -32.0 -29.5 15.0
v -32.7 -29.0 16.0
v -32.0 -29.7 16.0
v -31.7 -33.0 14.0
v -31.6 -33.0 15.0
v -31.7 -33.0 16.0
v -31.7 -32.0 12.0
v -31.6 -32.0 13.0
v -31.5 -32.0 14.0
v -31.5 -32.0 15.0
v -31.5 -32.0 16.0
v -31.7 -32.0 17.0
v -31.9 -31.0 11.0
v -31.5 -31.0 12.0
v -31.5 -31.0 13.0
v -31.5 -31.0 14.0
v -31.5 -31.0 15.0
v -31.5 -31.0 16.0
v -31.7 -31.0 17.0
v -31.7 -30.0 12.0
v -31.6 -30.0 13.0
v -31.6 -30.0 14.0
v -31.6 -30.0 15.0
v -31.7 -30.0 16.0
f 3 2 1
f 1 4 3
f 2 5 1
f 1 5 4
f 8 7 6
f 10 9 6
f 6 9 8
f 10 11 9
f 6 7 3
f 7 2 3
f 7 12 2
f 6 3 4
f 13 6 4
f 10 6 13
f 11 10 14
f 14 10 13
f 12 15 2
f 2 15 5
f 5 15 4
f 15 16 4
f 16 13 4
f 16 15 17
f 14 13 18
f 13 19 18
f 13 16 19
f 19 20 18
f 17 21 16
f 23 22 21
f 22 16 21
f 22 19 16
f 20 19 24
f 24 19 22
f 23 25 22
f 22 25 24
f 28 27 26
f 30 29 26
f 26 29 28
f 30 31 29
f 27 32 26
f 26 32 30
f 30 32 33
f 30 33 31
f 36 35 34
f 34 37 36
f 40 39 38
f 40 38 35
f 38 34 35
f 38 41 34
f 37 34 42
f 34 43 42
f 34 41 43
f 43 44 42
f 38 39 8
f 39 7 8
f 39 45 7
f 38 8 9
f 38 9 41
f 41 9 11
f 46 41 11
f 43 41 46
f 44 43 47
f 43 48 47
f 43 46 48
f 48 49 47
f 51 12 50
f 12 45 50
f 12 7 45
f 52 51 50
f 14 53 46
f 14 46 11
f 46 54 48
f 46 53 54
f 49 48 55
f 55 48 54
f 51 15 12
f 17 15 51
f 52 17 51
f 56 17 52
f 18 53 14
f 53 18 20
f 57 53 20
f 54 53 57
f 55 54 58
f 58 54 57
f 56 59 17
f 17 59 21
f 23 21 59
f 23 59 60
f 24 61 57
f 24 57 20
f 58 57 62
f 62 57 61
f 60 63 23
f 23 63 25
f 24 25 61
f 25 64 61
f 25 63 64
f 61 64 62
f 67 66 65
f 69 68 65
f 65 68 67
f 71 70 69
f 69 70 68
f 73 72 71
f 71 72 70
f 73 74 72
f 77 76 75
f 27 28 75
f 28 77 75
f 28 78 77
f 29 65 66
f 78 29 66
f 28 29 78
f 65 29 31
f 79 65 31
f 69 65 79
f 69 80 71
f 69 79 80
f 82 73 81
f 73 80 81
f 73 71 80
f 73 82 74
f 85 84 83
f 83 86 85
f 75 76 87
f 87 76 88
f 89 32 27
f 75 89 27
f 87 89 75
f 90 33 32
f 90 32 89
f 90 91 33
f 33 91 31
f 91 92 31
f 92 79 31
f 79 92 80
f 80 92 93
f 80 93 81
f 83 84 94
f 94 84 95
f 86 83 96
f 83 97 96
f 83 94 97
f 96 97 88
f 88 97 87
f 97 35 87
f 35 36 87
f 87 36 37
f 98 87 37
f 89 87 98
f 89 99 90
f 89 98 99
f 91 90 100
f 100 90 99
f 94 95 101
f 101 95 102
f 101 39 40
f 97 101 40
f 94 101 97
f 97 40 35
f 42 98 37
f 98 42 44
f 103 98 44
f 99 98 103
f 100 99 104
f 104 99 103
f 101 102 105
f 105 102 106
f 105 45 39
f 105 39 101
f 47 103 44
f 47 49 103
f 49 104 103
f 49 107 104
f 106 108 105
f 108 110 109
f 108 109 50
f 105 108 50
f 45 105 50
f 109 52 50
f 55 107 49
f 55 111 107
f 114 113 112
f 116 115 112
f 112 115 114
f 118 117 116
f 116 117 115
f 118 119 117
f 110 120 109
f 56 52 109
f 121 56 109
f 120 121 109
f 56 121 122
f 123 122 121
f 58 111 55
f 58 124 111
f 112 113 125
f 125 113 126
f 112 127 116
f 112 125 127
f 116 128 118
f 116 127 128
f 119 118 129
f 129 118 128
f 122 59 56
f 131 130 60
f 131 60 59
f 123 131 59
f 122 123 59
f 133 132 130
f 133 130 131
f 133 124 132
f 124 62 132
f 124 58 62
f 125 126 134
f 134 126 135
f 125 136 127
f 125 134 136
f 138 128 137
f 128 136 137
f 128 127 136
f 128 138 129
f 130 63 60
f 63 130 64
f 64 130 132
f 64 132 62
f 141 140 139
f 141 139 135
f 139 134 135
f 139 142 134
f 144 136 143
f 136 142 143
f 136 134 142
f 136 144 137
f 139 140 145
f 145 140 146
f 148 142 147
f 142 145 147
f 142 139 145
f 142 148 143
f 146 149 145
f 145 149 147
f 152 151 150
f 154 153 150
f 150 153 152
f 156 155 154
f 154 155 153
f 156 157 155
f 160 159 158
f 162 161 158
f 158 161 160
f 66 67 162
f 67 161 162
f 67 163 161
f 68 150 151
f 163 68 151
f 67 68 163
f 150 68 70
f 150 70 154
f 154 70 72
f 154 72 156
f 72 74 156
f 74 157 156
f 74 164 157
f 158 159 77
f 159 76 77
f 159 165 76
f 158 77 78
f 158 78 162
f 162 78 66
f 81 166 82
f 166 167 82
f 167 74 82
f 167 164 74
f 169 168 85
f 85 168 84
f 171 170 86
f 170 85 86
f 170 169 85
f 165 170 171
f 88 165 171
f 76 165 88
f 91 172 92
f 173 93 92
f 173 92 172
f 173 174 93
f 93 174 81
f 174 175 81
f 175 166 81
f 166 175 167
f 178 177 176
f 168 178 176
f 95 168 176
f 84 168 95
f 96 171 86
f 171 96 88
f 100 179 172
f 100 172 91
f 181 173 180
f 173 179 180
f 173 172 179
f 173 181 174
f 176 177 182
f 182 177 183
f 182 102 95
f 182 95 176
f 104 184 179
f 104 179 100
f 180 179 185
f 185 179 184
f 188 187 186
f 188 186 183
f 186 182 183
f 186 189 182
f 189 106 102
f 189 102 182
f 107 190 184
f 107 184 104
f 185 184 191
f 191 184 190
f 194 193 192
f 196 195 192
f 192 195 194
f 198 197 196
f 196 197 195
f 197 198 187
f 198 186 187
f 198 199 186
f 186 200 189
f 186 199 200
f 201 108 106
f 189 201 106
f 200 201 189
f 201 110 108
f 111 202 190
f 111 190 107
f 191 190 203
f 203 190 202
f 206 205 204
f 206 204 193
f 193 204 192
f 204 113 192
f 113 114 192
f 192 114 115
f 192 115 196
f 196 115 117
f 196 117 198
f 198 117 119
f 207 198 119
f 199 198 207
f 199 208 200
f 199 207 208
f 200 209 201
f 200 208 209
f 210 120 110
f 201 210 110
f 209 210 201
f 211 121 120
f 211 120 210
f 211 123 121
f 124 212 202
f 124 202 111
f 203 202 213
f 213 202 212
f 204 205 214
f 214 205 215
f 214 126 113
f 214 113 204
f 129 216 207
f 129 207 119
f 218 208 217
f 208 216 217
f 208 207 216
f 208 218 209
f 209 218 219
f 209 219 210
f 210 219 220
f 210 220 211
f 211 220 221
f 221 223 222
f 221 222 131
f 211 221 131
f 123 211 131
f 131 222 224
f 225 131 224
f 133 131 225
f 124 133 212
f 133 226 212
f 133 225 226
f 212 226 213
f 214 215 227
f 227 215 228
f 227 135 126
f 227 126 214
f 137 229 138
f 216 129 138
f 229 216 138
f 230 216 229
f 217 216 231
f 231 216 230
f 223 232 222
f 222 232 224
f 227 228 141
f 228 140 141
f 228 233 140
f 227 141 135
f 143 234 144
f 234 235 144
f 144 235 137
f 235 236 137
f 236 229 137
f 229 236 230
f 230 236 237
f 230 237 231
f 240 239 238
f 233 240 238
f 146 233 238
f 140 233 146
f 147 241 148
f 241 242 148
f 148 242 143
f 242 243 143
f 243 234 143
f 234 243 235
f 238 239 244
f 244 239 245
f 238 244 146
f 244 246 146
f 246 149 146
f 244 247 246
f 147 149 241
f 149 248 241
f 149 246 248
f 241 248 242
f 245 249 244
f 244 249 247
f 252 251 250
f 250 253 252
f 256 255 254
f 151 152 254
f 152 256 254
f 152 257 256
f 258 152 153
f 258 257 152
f 155 250 251
f 258 155 251
f 153 155 258
f 260 259 157
f 157 259 155
f 259 253 155
f 253 250 155
f 260 261 259
f 264 263 262
f 159 160 262
f 160 264 262
f 160 265 264
f 266 160 161
f 266 265 160
f 163 254 255
f 266 163 255
f 161 163 266
f 254 163 151
f 164 267 260
f 164 260 157
f 261 260 268
f 268 260 267
f 271 270 269
f 271 269 263
f 269 262 263
f 269 272 262
f 272 165 159
f 272 159 262
f 274 273 267
f 164 274 267
f 167 274 164
f 267 273 268
f 277 276 275
f 279 278 275
f 275 278 277
f 281 280 279
f 279 280 278
f 280 281 270
f 270 281 269
f 281 168 269
f 168 169 269
f 269 169 170
f 269 170 272
f 272 170 165
f 174 282 175
f 282 283 175
f 283 167 175
f 283 274 167
f 286 285 284
f 286 284 276
f 284 275 276
f 284 287 275
f 275 288 279
f 275 287 288
f 288 177 178
f 281 288 178
f 279 288 281
f 281 178 168
f 180 289 181
f 289 290 181
f 181 290 174
f 290 291 174
f 291 282 174
f 282 291 283
f 294 293 292
f 294 292 285
f 292 284 285
f 292 295 284
f 284 296 287
f 284 295 296
f 287 297 288
f 287 296 297
f 297 183 177
f 297 177 288
f 185 298 289
f 185 289 180
f 290 289 299
f 299 289 298
f 292 293 300
f 300 293 301
f 292 302 295
f 292 300 302
f 295 303 296
f 295 302 303
f 303 187 188
f 297 303 188
f 296 303 297
f 297 188 183
f 191 304 298
f 191 298 185
f 299 298 305
f 305 298 304
f 308 307 306
f 308 306 301
f 301 306 300
f 306 193 300
f 193 194 300
f 300 194 195
f 300 195 302
f 302 195 197
f 302 197 303
f 303 197 187
f 310 309 304
f 191 310 304
f 203 310 191
f 304 309 305
f 306 307 206
f 307 205 206
f 307 311 205
f 306 206 193
f 213 310 203
f 213 312 310
f 315 314 313
f 311 315 313
f 215 311 313
f 205 311 215
f 217 316 218
f 218 316 317
f 318 218 317
f 219 218 318
f 219 319 220
f 318 319 219
f 220 320 221
f 319 320 220
f 223 221 320
f 223 320 321
f 323 322 225
f 323 225 224
f 225 324 226
f 322 324 225
f 213 226 312
f 312 226 324
f 313 314 325
f 325 314 326
f 325 228 215
f 325 215 313
f 328 327 316
f 217 328 316
f 231 328 217
f 316 327 317
f 321 329 223
f 223 329 232
f 224 232 323
f 323 232 329
f 332 331 330
f 332 330 326
f 330 325 326
f 330 333 325
f 333 233 228
f 333 228 325
f 235 334 236
f 335 237 236
f 335 236 334
f 335 336 237
f 336 231 237
f 336 328 231
f 330 331 337
f 337 331 338
f 337 239 240
f 333 337 240
f 330 337 333
f 333 240 233
f 242 339 243
f 334 235 243
f 339 334 243
f 340 334 339
f 342 335 341
f 335 340 341
f 335 334 340
f 335 342 336
f 338 343 337
f 245 239 337
f 344 245 337
f 343 344 337
f 245 344 345
f 246 247 345
f 344 246 345
f 346 246 344
f 246 347 248
f 346 347 246
f 242 248 339
f 248 348 339
f 248 347 348
f 339 348 340
f 340 348 349
f 340 349 341
f 345 249 245
f 249 345 247
f 352 351 350
f 354 353 350
f 350 353 352
f 251 252 354
f 252 353 354
f 252 355 353
f 357 356 253
f 356 252 253
f 356 355 252
f 357 358 356
f 361 360 359
f 363 362 359
f 359 362 361
f 255 256 363
f 256 362 363
f 256 364 362
f 257 350 351
f 364 257 351
f 256 257 364
f 350 257 258
f 350 258 354
f 354 258 251
f 259 357 253
f 259 261 357
f 261 358 357
f 261 365 358
f 368 367 366
f 263 264 366
f 264 368 366
f 264 369 368
f 265 359 360
f 369 265 360
f 264 265 369
f 359 265 266
f 359 266 363
f 363 266 255
f 268 365 261
f 268 370 365
f 373 372 371
f 375 374 371
f 371 374 373
f 377 376 375
f 375 376 374
f 376 377 367
f 367 377 366
f 377 270 366
f 270 271 366
f 366 271 263
f 274 378 273
f 378 379 273
f 379 268 273
f 379 370 268
f 382 381 380
f 382 380 372
f 372 380 371
f 380 276 371
f 276 277 371
f 371 277 278
f 371 278 375
f 375 278 280
f 375 280 377
f 377 280 270
f 384 383 378
f 274 384 378
f 283 384 274
f 378 383 379
f 380 381 286
f 381 285 286
f 381 385 285
f 380 286 276
f 387 386 291
f 387 291 290
f 283 291 384
f 384 291 386
f 389 388 294
f 294 388 293
f 294 285 385
f 294 385 389
f 299 387 290
f 299 390 387
f 393 392 391
f 388 393 391
f 301 388 391
f 293 388 301
f 305 390 299
f 305 394 390
f 397 396 395
f 397 395 392
f 392 395 391
f 395 307 391
f 307 308 391
f 391 308 301
f 310 398 309
f 398 399 309
f 399 305 309
f 399 394 305
f 395 396 400
f 400 396 401
f 400 311 307
f 400 307 395
f 404 403 402
f 403 405 398
f 312 403 398
f 310 312 398
f 402 403 312
f 398 405 399
f 400 401 315
f 401 314 315
f 401 406 314
f 400 315 311
f 317 407 318
f 408 319 318
f 408 318 407
f 319 408 409
f 410 319 409
f 320 319 410
f 412 411 321
f 320 412 321
f 410 412 320
f 322 323 411
f 412 322 411
f 413 322 412
f 402 324 404
f 324 413 404
f 324 322 413
f 324 402 312
f 406 326 314
f 414 326 406
f 328 415 327
f 407 317 327
f 415 407 327
f 416 407 415
f 418 408 417
f 408 416 417
f 408 407 416
f 408 418 409
f 411 329 321
f 329 411 323
f 419 331 332
f 420 419 332
f 326 420 332
f 414 420 326
f 336 421 415
f 336 415 328
f 423 416 422
f 416 421 422
f 416 415 421
f 416 423 417
f 424 338 419
f 419 338 331
f 419 420 425
f 426 419 425
f 424 419 426
f 427 426 425
f 341 428 342
f 428 429 342
f 342 429 336
f 429 430 336
f 430 421 336
f 421 430 422
f 424 343 338
f 343 424 344
f 344 424 426
f 427 431 426
f 431 344 426
f 431 346 344
f 346 432 347
f 431 432 346
f 347 433 348
f 432 433 347
f 348 434 349
f 433 434 348
f 341 349 428
f 349 435 428
f 349 434 435
f 428 435 429
f 438 437 436
f 436 439 438
f 441 440 352
f 352 440 351
f 442 352 353
f 442 441 352
f 443 353 355
f 443 442 353
f 444 355 356
f 444 443 355
f 445 436 358
f 436 444 358
f 444 356 358
f 436 437 444
f 439 436 446
f 446 436 445
f 449 448 447
f 360 361 447
f 361 449 447
f 361 450 449
f 451 361 362
f 451 450 361
f 452 362 364
f 452 451 362
f 364 351 440
f 364 440 452
f 365 453 445
f 365 445 358
f 446 445 454
f 454 445 453
f 457 456 455
f 367 368 455
f 368 457 455
f 368 458 457
f 369 447 448
f 458 369 448
f 368 369 458
f 447 369 360
f 370 459 453
f 370 453 365
f 454 453 460
f 460 453 459
f 462 461 373
f 373 461 372
f 463 373 374
f 463 462 373
f 376 455 456
f 463 376 456
f 374 376 463
f 455 376 367
f 465 464 459
f 370 465 459
f 379 465 370
f 459 464 460
f 467 466 382
f 382 466 381
f 382 372 461
f 382 461 467
f 469 468 383
f 469 383 384
f 379 383 465
f 465 383 468
f 466 385 381
f 470 385 466
f 387 471 386
f 471 472 386
f 472 384 386
f 472 469 384
f 474 473 389
f 389 473 388
f 389 385 470
f 389 470 474
f 477 476 475
f 476 478 471
f 390 476 471
f 387 390 471
f 475 476 390
f 471 478 472
f 481 480 479
f 392 393 479
f 393 481 479
f 393 482 481
f 393 388 473
f 393 473 482
f 477 475 483
f 477 483 484
f 394 483 390
f 390 483 475
f 479 480 397
f 480 396 397
f 480 485 396
f 479 397 392
f 488 487 486
f 486 487 484
f 483 486 484
f 489 486 483
f 399 489 394
f 394 489 483
f 485 401 396
f 490 401 485
f 488 486 403
f 404 488 403
f 491 488 404
f 403 486 405
f 405 486 489
f 405 489 399
f 490 406 401
f 492 406 490
f 409 493 410
f 410 493 494
f 495 410 494
f 412 410 495
f 412 496 413
f 495 496 412
f 404 413 491
f 491 413 496
f 492 414 406
f 497 414 492
f 417 498 418
f 498 499 418
f 418 499 409
f 499 500 409
f 500 493 409
f 493 500 494
f 502 420 501
f 420 497 501
f 420 414 497
f 503 502 501
f 422 504 423
f 498 417 423
f 504 498 423
f 505 498 504
f 499 498 506
f 506 498 505
f 502 425 420
f 508 507 427
f 508 427 425
f 503 508 425
f 502 503 425
f 509 507 508
f 429 510 430
f 504 422 430
f 510 504 430
f 511 504 510
f 504 512 505
f 504 511 512
f 506 505 513
f 513 505 512
f 507 431 427
f 509 514 507
f 514 431 507
f 514 432 431
f 432 515 433
f 514 515 432
f 433 516 434
f 515 516 433
f 434 517 435
f 516 517 434
f 429 435 510
f 435 518 510
f 435 517 518
f 510 518 511
f 511 518 519
f 511 519 512
f 512 519 520
f 512 520 513
f 523 522 521
f 521 524 523
f 527 526 525
f 529 528 525
f 525 528 527
f 531 530 529
f 529 530 528
f 530 531 522
f 531 521 522
f 531 532 521
f 438 533 437
f 533 521 437
f 521 532 437
f 521 533 524
f 438 439 533
f 533 439 534
f 537 536 535
f 539 538 535
f 535 538 537
f 538 539 526
f 526 539 525
f 539 440 525
f 440 441 525
f 525 441 442
f 525 442 529
f 529 442 443
f 529 443 531
f 531 443 444
f 531 444 532
f 532 444 437
f 446 534 439
f 446 540 534
f 542 541 449
f 449 541 448
f 543 449 450
f 543 542 449
f 451 535 536
f 543 451 536
f 450 451 543
f 535 451 452
f 535 452 539
f 539 452 440
f 454 540 446
f 454 544 540
f 547 546 545
f 549 548 545
f 545 548 547
f 456 457 549
f 457 548 549
f 457 550 548
f 551 457 458
f 551 550 457
f 458 448 541
f 458 541 551
f 460 544 454
f 460 552 544
f 545 546 462
f 546 461 462
f 546 553 461
f 545 462 463
f 545 463 549
f 549 463 456
f 555 554 464
f 555 464 465
f 460 464 552
f 552 464 554
f 557 556 467
f 467 556 466
f 467 461 553
f 467 553 557
f 469 558 468
f 558 559 468
f 559 465 468
f 559 555 465
f 556 470 466
f 560 470 556
f 472 561 558
f 472 558 469
f 559 558 562
f 562 558 561
f 565 564 563
f 473 474 563
f 474 565 563
f 474 566 565
f 474 470 560
f 474 560 566
f 477 567 476
f 476 567 568
f 569 476 568
f 478 476 569
f 472 478 561
f 478 570 561
f 478 569 570
f 561 570 562
f 571 480 481
f 564 572 563
f 572 481 563
f 481 482 563
f 481 572 571
f 563 482 473
f 484 573 567
f 484 567 477
f 568 567 574
f 574 567 573
f 576 575 571
f 575 480 571
f 575 485 480
f 576 571 572
f 488 577 487
f 577 578 487
f 487 578 484
f 578 579 484
f 579 573 484
f 573 579 574
f 575 490 485
f 580 490 575
f 491 581 577
f 491 577 488
f 578 577 582
f 582 577 581
f 580 492 490
f 583 492 580
f 494 584 495
f 585 496 495
f 585 495 584
f 585 586 496
f 496 586 491
f 586 587 491
f 587 581 491
f 581 587 582
f 589 497 588
f 497 583 588
f 497 492 583
f 590 589 588
f 499 591 500
f 584 494 500
f 591 584 500
f 592 584 591
f 594 585 593
f 585 592 593
f 585 584 592
f 585 594 586
f 589 501 497
f 596 595 503
f 596 503 501
f 590 596 501
f 589 590 501
f 597 595 596
f 599 598 591
f 499 599 591
f 506 599 499
f 591 598 592
f 592 598 600
f 592 600 593
f 595 508 503
f 602 601 509
f 602 509 508
f 597 602 508
f 595 597 508
f 604 603 601
f 604 601 602
f 606 605 603
f 606 603 604
f 607 605 606
f 610 609 608
f 611 608 609
f 513 599 506
f 513 612 599
f 601 514 509
f 514 601 515
f 515 601 603
f 515 603 516
f 516 603 605
f 607 613 605
f 613 516 605
f 613 517 516
f 608 518 610
f 518 613 610
f 518 517 613
f 611 614 608
f 614 518 608
f 614 519 518
f 519 615 520
f 614 615 519
f 513 520 612
f 612 520 615
f 618 617 616
f 522 523 616
f 523 618 616
f 523 619 618
f 523 524 619
f 619 524 620
f 622 621 527
f 527 621 526
f 623 527 528
f 623 622 527
f 530 616 617
f 623 530 617
f 528 530 623
f 616 530 522
f 624 620 524
f 624 524 533
f 626 625 534
f 625 533 534
f 625 624 533
f 626 627 625
f 628 536 537
f 628 537 629
f 537 630 629
f 537 538 630
f 538 526 621
f 538 621 630
f 632 631 626
f 534 632 626
f 540 632 534
f 626 631 627
f 635 634 633
f 637 636 633
f 633 636 635
f 541 542 637
f 542 636 637
f 542 638 636
f 639 542 543
f 639 638 542
f 543 536 628
f 640 543 628
f 639 543 640
f 640 628 629
f 544 632 540
f 544 641 632
f 642 546 547
f 642 547 643
f 547 644 643
f 547 548 644
f 550 633 634
f 644 550 634
f 548 550 644
f 633 550 551
f 633 551 637
f 637 551 541
f 552 641 544
f 552 645 641
f 647 646 642
f 646 546 642
f 646 553 546
f 647 642 643
f 650 649 648
f 554 555 648
f 649 554 648
f 651 554 649
f 552 554 645
f 645 554 651
f 652 556 557
f 653 652 557
f 553 653 557
f 646 653 553
f 650 648 654
f 650 654 655
f 559 654 555
f 555 654 648
f 657 656 652
f 656 556 652
f 656 560 556
f 657 652 653
f 655 654 658
f 655 658 659
f 562 658 559
f 559 658 654
f 660 564 565
f 660 565 661
f 565 662 661
f 565 566 662
f 566 560 656
f 566 656 662
f 664 663 569
f 664 569 568
f 658 570 659
f 570 663 659
f 570 569 663
f 570 658 562
f 666 665 660
f 665 564 660
f 665 572 564
f 666 660 661
f 574 664 568
f 574 667 664
f 668 575 576
f 669 668 576
f 572 669 576
f 665 669 572
f 671 670 579
f 671 579 578
f 574 579 667
f 667 579 670
f 672 580 668
f 668 580 575
f 668 669 673
f 674 668 673
f 672 668 674
f 675 674 673
f 582 671 578
f 582 676 671
f 677 583 672
f 672 583 580
f 678 672 674
f 677 672 678
f 674 675 679
f 674 679 678
f 681 680 587
f 681 587 586
f 582 587 676
f 676 587 680
f 677 588 583
f 588 677 590
f 677 682 590
f 677 678 682
f 678 679 683
f 684 678 683
f 682 678 684
f 685 684 683
f 687 686 594
f 687 594 593
f 586 594 681
f 681 594 686
f 682 596 590
f 596 682 597
f 682 688 597
f 682 684 688
f 684 685 689
f 690 684 689
f 688 684 690
f 692 691 690
f 692 690 689
f 693 691 692
f 696 695 694
f 697 694 695
f 599 698 598
f 598 698 699
f 700 598 699
f 600 598 700
f 593 600 687
f 687 600 700
f 688 602 597
f 602 688 604
f 604 688 690
f 604 690 606
f 606 690 691
f 702 701 607
f 702 607 606
f 693 702 606
f 691 693 606
f 701 702 696
f 701 696 694
f 610 701 694
f 609 610 694
f 611 609 694
f 697 611 694
f 703 611 697
f 706 705 704
f 705 707 698
f 612 705 698
f 599 612 698
f 704 705 612
f 698 707 699
f 701 613 607
f 613 701 610
f 703 708 611
f 611 708 614
f 704 615 706
f 615 708 706
f 615 614 708
f 615 704 612
f 710 709 618
f 618 709 617
f 711 618 619
f 711 710 618
f 713 712 620
f 712 619 620
f 712 711 619
f 713 714 712
f 715 621 622
f 715 622 716
f 622 717 716
f 622 623 717
f 623 617 709
f 623 709 717
f 624 713 620
f 718 714 713
f 624 718 713
f 625 718 624
f 625 627 718
f 718 627 719
f 721 720 630
f 630 720 629
f 630 621 715
f 722 630 715
f 721 630 722
f 722 715 716
f 724 723 631
f 724 631 632
f 627 631 719
f 719 631 723
f 725 634 635
f 725 635 726
f 635 727 726
f 635 636 727
f 728 636 638
f 728 727 636
f 729 638 639
f 729 728 638
f 730 639 640
f 730 729 639
f 640 629 720
f 640 720 730
f 641 724 632
f 641 731 724
f 733 732 644
f 644 732 643
f 644 634 725
f 734 644 725
f 733 644 734
f 734 725 726
f 645 731 641
f 645 735 731
f 736 646 647
f 737 736 647
f 643 737 647
f 732 737 643
f 650 738 649
f 649 738 739
f 740 649 739
f 651 649 740
f 645 651 735
f 735 651 740
f 742 741 736
f 741 646 736
f 741 653 646
f 742 736 737
f 655 743 738
f 655 738 650
f 739 738 744
f 744 738 743
f 745 656 657
f 746 745 657
f 653 746 657
f 741 746 653
f 748 747 743
f 655 748 743
f 659 748 655
f 743 747 744
f 749 661 662
f 750 749 662
f 750 662 656
f 751 750 656
f 745 751 656
f 751 745 746
f 753 752 663
f 753 663 664
f 659 663 748
f 748 663 752
f 754 665 666
f 661 749 666
f 749 754 666
f 749 755 754
f 749 750 756
f 749 756 755
f 667 753 664
f 667 757 753
f 758 669 754
f 754 669 665
f 759 754 755
f 758 754 759
f 755 756 760
f 755 760 759
f 762 761 670
f 762 670 671
f 667 670 757
f 757 670 761
f 758 673 669
f 673 758 675
f 758 763 675
f 758 759 763
f 759 760 764
f 765 759 764
f 763 759 765
f 766 765 764
f 676 762 671
f 676 767 762
f 768 679 763
f 763 679 675
f 769 763 765
f 768 763 769
f 765 766 770
f 765 770 769
f 772 771 680
f 772 680 681
f 676 680 767
f 767 680 771
f 768 683 679
f 683 768 685
f 768 773 685
f 768 769 773
f 769 770 774
f 775 769 774
f 773 769 775
f 777 776 775
f 777 775 774
f 778 776 777
f 781 780 779
f 686 687 779
f 780 686 779
f 782 686 780
f 681 686 772
f 772 686 782
f 773 689 685
f 689 773 692
f 692 773 775
f 692 775 693
f 775 783 693
f 775 776 783
f 784 695 696
f 776 784 696
f 783 776 696
f 784 776 778
f 697 695 784
f 697 784 785
f 788 787 786
f 790 789 786
f 790 786 787
f 789 790 781
f 789 781 779
f 699 789 779
f 700 699 779
f 700 779 687
f 783 702 693
f 702 783 696
f 792 703 791
f 703 785 791
f 703 697 785
f 792 791 788
f 792 788 786
f 706 792 786
f 705 706 786
f 705 786 707
f 707 786 789
f 707 789 699
f 792 708 703
f 708 792 706
f 793 709 710
f 793 710 794
f 710 795 794
f 710 711 795
f 796 711 712
f 796 795 711
f 712 714 796
f 796 714 797
f 798 716 717
f 799 798 717
f 799 717 709
f 800 799 709
f 793 800 709
f 800 793 794
f 714 718 801
f 802 714 801
f 797 714 802
f 719 801 718
f 805 804 803
f 807 806 803
f 803 806 805
f 720 721 807
f 721 806 807
f 721 808 806
f 809 721 722
f 809 808 721
f 722 716 798
f 810 722 798
f 809 722 810
f 810 798 799
f 802 801 723
f 724 802 723
f 811 802 724
f 723 801 719
f 813 812 727
f 727 812 726
f 814 727 728
f 814 813 727
f 729 803 804
f 814 729 804
f 728 729 814
f 803 729 730
f 803 730 807
f 807 730 720
f 731 816 815
f 811 731 815
f 724 731 811
f 816 817 815
f 819 818 733
f 733 818 732
f 820 733 734
f 820 819 733
f 734 726 812
f 734 812 820
f 735 821 816
f 735 816 731
f 817 816 822
f 822 816 821
f 818 737 732
f 823 737 818
f 739 824 740
f 824 825 740
f 740 825 735
f 825 826 735
f 826 821 735
f 821 826 822
f 827 741 742
f 828 827 742
f 737 828 742
f 823 828 737
f 830 829 824
f 739 830 824
f 744 830 739
f 824 829 825
f 831 746 827
f 827 746 741
f 827 828 832
f 827 832 831
f 834 833 747
f 834 747 748
f 744 747 830
f 830 747 833
f 835 750 751
f 836 835 751
f 836 751 746
f 837 836 746
f 831 837 746
f 837 831 832
f 753 838 752
f 838 839 752
f 839 748 752
f 839 834 748
f 840 756 835
f 835 756 750
f 835 836 841
f 842 835 841
f 840 835 842
f 843 842 841
f 845 844 838
f 753 845 838
f 757 845 753
f 838 844 839
f 847 846 840
f 846 756 840
f 846 760 756
f 847 840 842
f 847 842 848
f 848 842 843
f 850 849 761
f 850 761 762
f 757 761 845
f 845 761 849
f 846 851 760
f 760 851 764
f 766 764 851
f 766 851 852
f 855 854 853
f 854 850 853
f 850 767 853
f 850 762 767
f 852 770 766
f 856 770 852
f 859 858 857
f 861 860 857
f 861 857 858
f 863 862 860
f 863 860 861
f 865 864 862
f 865 862 863
f 864 865 855
f 864 855 853
f 772 864 853
f 771 772 853
f 771 853 767
f 856 866 770
f 770 866 774
f 866 868 867
f 777 866 867
f 774 866 777
f 867 778 777
f 871 870 869
f 869 870 859
f 857 869 859
f 872 869 857
f 873 857 860
f 872 857 873
f 781 873 780
f 873 862 780
f 873 860 862
f 780 862 782
f 782 862 864
f 782 864 772
f 868 874 867
f 867 874 778
f 874 784 778
f 874 875 784
f 869 876 785
f 875 869 785
f 784 875 785
f 871 869 875
f 788 876 787
f 876 872 787
f 876 869 872
f 787 872 790
f 790 872 873
f 790 873 781
f 876 791 785
f 791 876 788
f 879 878 877
f 881 880 877
f 877 880 879
f 794 795 882
f 880 881 883
f 796 884 795
f 795 884 882
f 797 884 796
f 887 886 885
f 889 888 885
f 885 888 887
f 891 890 889
f 889 890 888
f 893 892 891
f 891 892 890
f 892 893 878
f 893 877 878
f 893 894 877
f 894 799 800
f 881 894 800
f 877 894 881
f 800 883 881
f 800 895 883
f 800 794 882
f 895 800 882
f 895 882 884
f 895 884 896
f 797 802 884
f 802 897 884
f 897 896 884
f 897 802 898
f 898 899 897
f 885 886 805
f 886 804 805
f 886 900 804
f 885 805 806
f 885 806 889
f 889 806 808
f 889 808 891
f 891 808 809
f 891 809 893
f 893 809 810
f 893 810 894
f 894 810 799
f 811 901 898
f 811 898 802
f 899 898 902
f 902 898 901
f 904 903 813
f 813 903 812
f 905 813 814
f 905 904 813
f 814 804 900
f 814 900 905
f 907 815 906
f 907 811 815
f 901 811 907
f 901 907 908
f 908 902 901
f 817 906 815
f 909 818 819
f 909 819 910
f 819 911 910
f 819 820 911
f 820 812 903
f 820 903 911
f 907 906 912
f 907 912 913
f 822 912 817
f 817 912 906
f 915 914 909
f 914 818 909
f 914 823 818
f 915 909 910
f 913 912 826
f 825 913 826
f 916 913 825
f 826 912 822
f 914 828 823
f 917 828 914
f 919 918 829
f 919 829 830
f 825 829 916
f 916 829 918
f 917 832 828
f 920 832 917
f 922 921 833
f 922 833 834
f 830 833 919
f 919 833 921
f 924 923 837
f 837 923 836
f 837 832 920
f 837 920 924
f 839 922 834
f 839 925 922
f 923 926 836
f 836 926 841
f 843 841 926
f 843 926 927
f 929 928 844
f 929 844 845
f 839 844 925
f 925 844 928
f 930 846 847
f 848 931 847
f 847 931 930
f 932 931 848
f 843 932 848
f 927 932 843
f 935 934 933
f 937 936 933
f 937 933 934
f 939 938 936
f 939 936 937
f 849 850 938
f 939 849 938
f 940 849 939
f 845 849 929
f 929 849 940
f 930 851 846
f 851 930 852
f 930 941 852
f 930 931 941
f 931 932 942
f 931 942 941
f 945 944 943
f 947 946 943
f 947 943 944
f 949 948 946
f 949 946 947
f 948 949 935
f 933 948 935
f 950 948 933
f 951 933 936
f 950 933 951
f 855 951 854
f 951 938 854
f 951 936 938
f 854 938 850
f 952 856 941
f 941 856 852
f 941 942 953
f 954 941 953
f 952 941 954
f 956 955 954
f 956 954 953
f 955 956 945
f 943 955 945
f 957 955 943
f 859 957 858
f 957 946 858
f 957 943 946
f 858 946 861
f 861 946 948
f 861 948 863
f 863 948 950
f 863 950 865
f 865 950 951
f 865 951 855
f 952 866 856
f 866 952 868
f 952 958 868
f 952 954 958
f 959 954 955
f 958 954 959
f 871 959 870
f 959 957 870
f 959 955 957
f 870 957 859
f 958 874 868
f 874 958 875
f 875 958 959
f 875 959 871
f 960 878 879
f 880 961 879
f 879 961 960
f 883 961 880
f 962 886 887
f 888 963 887
f 887 963 962
f 963 888 964
f 888 965 964
f 888 890 965
f 966 890 892
f 966 965 890
f 892 878 960
f 967 892 960
f 966 892 967
f 967 960 961
f 967 961 968
f 968 961 883
f 895 968 883
f 969 968 895
f 970 895 896
f 970 969 895
f 972 970 971
f 970 897 971
f 970 896 897
f 899 971 897
f 974 973 962
f 973 886 962
f 973 900 886
f 974 962 963
f 974 963 975
f 975 963 964
f 976 972 971
f 971 899 976
f 899 977 976
f 899 902 977
f 978 903 904
f 978 904 979
f 904 980 979
f 904 905 980
f 905 900 973
f 905 973 980
f 982 981 908
f 982 908 907
f 902 908 977
f 977 908 981
f 983 910 911
f 984 983 911
f 984 911 903
f 985 984 903
f 978 985 903
f 985 978 979
f 913 982 907
f 913 986 982
f 987 914 915
f 988 987 915
f 988 915 910
f 989 988 910
f 983 989 910
f 989 983 984
f 916 986 913
f 916 990 986
f 991 917 987
f 987 917 914
f 987 988 992
f 987 992 991
f 994 993 918
f 994 918 919
f 916 918 990
f 990 918 993
f 995 920 991
f 991 920 917
f 991 992 996
f 991 996 995
f 998 997 921
f 998 921 922
f 919 921 994
f 994 921 997
f 999 923 924
f 920 995 924
f 995 999 924
f 995 1000 999
f 995 996 1001
f 995 1001 1000
f 1004 1003 1002
f 1006 1005 1002
f 1006 1002 1003
f 1006 998 1005
f 998 925 1005
f 998 922 925
f 999 926 923
f 926 999 927
f 999 1007 927
f 999 1000 1007
f 1000 1001 1008
f 1009 1000 1008
f 1007 1000 1009
f 1010 1009 1008
f 1013 1012 1011
f 1015 1014 1011
f 1015 1011 1012
f 1017 1016 1014
f 1017 1014 1015
f 1019 1018 1016
f 1019 1016 1017
f 1018 1019 1004
f 1002 1018 1004
f 1020 1018 1002
f 929 1020 928
f 1020 1005 928
f 1020 1002 1005
f 928 1005 925
f 1021 932 1007
f 1007 932 927
f 1022 1007 1009
f 1021 1007 1022
f 1009 1010 1023
f 1024 1009 1023
f 1022 1009 1024
f 1026 1025 1024
f 1026 1024 1023
f 1025 1026 1013
f 1011 1025 1013
f 1027 1025 1011
f 935 1027 934
f 1027 1014 934
f 1027 1011 1014
f 934 1014 937
f 937 1014 1016
f 937 1016 939
f 939 1016 1018
f 939 1018 940
f 940 1018 1020
f 940 1020 929
f 1028 942 1021
f 1021 942 932
f 1029 1021 1022
f 1028 1021 1029
f 945 1029 944
f 1029 1024 944
f 1029 1022 1024
f 944 1024 947
f 947 1024 1025
f 947 1025 949
f 949 1025 1027
f 949 1027 935
f 1028 953 942
f 953 1028 956
f 956 1028 1029
f 956 1029 945
f 1030 964 965
f 966 1031 965
f 965 1031 1030
f 1031 966 1032
f 966 1033 1032
f 966 967 1033
f 1035 1033 1034
f 1033 968 1034
f 1033 967 968
f 969 1036 968
f 968 1036 1034
f 970 1037 969
f 969 1037 1036
f 972 1037 970
f 1038 973 974
f 1038 974 1039
f 974 1040 1039
f 974 975 1040
f 975 964 1030
f 1041 975 1030
f 1040 975 1041
f 1041 1030 1031
f 1041 1031 1042
f 1042 1031 1032
f 1043 1035 1034
f 1043 1034 1036
f 1043 1036 1044
f 1046 1045 1044
f 1036 1046 1044
f 1037 1046 1036
f 976 1047 972
f 1047 1037 972
f 1047 1046 1037
f 977 1047 976
f 1049 1048 980
f 980 1048 979
f 980 973 1038
f 1050 980 1038
f 1049 980 1050
f 1050 1038 1039
f 1051 1045 1046
f 982 1052 981
f 1052 1046 981
f 1046 1047 981
f 1052 1051 1046
f 981 1047 977
f 1053 984 985
f 1054 1053 985
f 979 1054 985
f 1048 1054 979
f 986 1052 982
f 986 1055 1052
f 1056 988 989
f 1057 1056 989
f 1057 989 984
f 1058 1057 984
f 1053 1058 984
f 1058 1053 1054
f 990 1055 986
f 990 1059 1055
f 1060 992 1056
f 1056 992 988
f 1056 1057 1061
f 1056 1061 1060
f 1063 1062 993
f 1063 993 994
f 990 993 1059
f 1059 993 1062
f 1064 996 1060
f 1060 996 992
f 1060 1061 1065
f 1066 1060 1065
f 1064 1060 1066
f 1067 1066 1065
f 1070 1069 1068
f 997 998 1068
f 1069 997 1068
f 1071 997 1069
f 994 997 1063
f 1063 997 1071
f 1072 1001 1064
f 1064 1001 996
f 1073 1064 1066
f 1072 1064 1073
f 1066 1067 1074
f 1075 1066 1074
f 1073 1066 1075
f 1077 1076 1075
f 1077 1075 1074
f 1079 1078 1076
f 1079 1076 1077
f 1081 1080 1078
f 1081 1078 1079
f 1083 1082 1080
f 1083 1080 1081
f 1003 1004 1082
f 1083 1003 1082
f 1084 1003 1083
f 1068 1006 1070
f 1006 1084 1070
f 1006 1003 1084
f 1006 1068 998
f 1072 1008 1001
f 1008 1072 1010
f 1072 1085 1010
f 1072 1073 1085
f 1086 1073 1075
f 1085 1073 1086
f 1013 1086 1012
f 1086 1076 1012
f 1086 1075 1076
f 1012 1076 1015
f 1015 1076 1078
f 1015 1078 1017
f 1017 1078 1080
f 1017 1080 1019
f 1019 1080 1082
f 1019 1082 1004
f 1085 1023 1010
f 1023 1085 1026
f 1026 1085 1086
f 1026 1086 1013
f 1087 1032 1033
f 1035 1087 1033
f 1088 1039 1040
f 1041 1089 1040
f 1040 1089 1088
f 1042 1090 1041
f 1041 1090 1089
f 1032 1087 1042
f 1087 1090 1042
f 1087 1091 1090
f 1043 1092 1035
f 1092 1087 1035
f 1092 1091 1087
f 1044 1093 1043
f 1043 1093 1092
f 1045 1093 1044
f 1094 1048 1049
f 1050 1095 1049
f 1049 1095 1094
f 1039 1088 1050
f 1088 1095 1050
f 1088 1096 1095
f 1089 1098 1097
f 1096 1089 1097
f 1088 1089 1096
f 1098 1089 1090
f 1098 1090 1099
f 1099 1090 1091
f 1099 1091 1100
f 1102 1101 1100
f 1091 1102 1100
f 1092 1102 1091
f 1103 1092 1093
f 1102 1092 1103
f 1051 1104 1045
f 1104 1093 1045
f 1104 1103 1093
f 1052 1104 1051
f 1105 1054 1094
f 1094 1054 1048
f 1095 1107 1106
f 1105 1095 1106
f 1094 1095 1105
f 1107 1095 1096
f 1107 1096 1108
f 1108 1096 1097
f 1109 1101 1102
f 1111 1110 1109
f 1102 1111 1109
f 1103 1111 1102
f 1112 1103 1104
f 1111 1103 1112
f 1055 1112 1052
f 1052 1112 1104
f 1113 1057 1058
f 1114 1113 1058
f 1114 1058 1054
f 1115 1114 1054
f 1105 1115 1054
f 1115 1105 1106
f 1110 1111 1116
f 1110 1116 1117
f 1118 1111 1112
f 1116 1111 1118
f 1059 1118 1055
f 1055 1118 1112
f 1119 1061 1113
f 1113 1061 1057
f 1113 1114 1120
f 1121 1113 1120
f 1119 1113 1121
f 1122 1121 1120
f 1125 1124 1123
f 1123 1124 1117
f 1116 1123 1117
f 1126 1123 1116
f 1063 1126 1062
f 1126 1118 1062
f 1126 1116 1118
f 1062 1118 1059
f 1119 1065 1061
f 1065 1119 1067
f 1119 1127 1067
f 1119 1121 1127
f 1121 1122 1128
f 1129 1121 1128
f 1127 1121 1129
f 1131 1130 1129
f 1131 1129 1128
f 1133 1132 1130
f 1133 1130 1131
f 1135 1134 1132
f 1135 1132 1133
f 1137 1136 1134
f 1137 1134 1135
f 1136 1137 1125
f 1136 1125 1123
f 1070 1136 1123
f 1069 1070 1123
f 1069 1123 1071
f 1071 1123 1126
f 1071 1126 1063
f 1127 1074 1067
f 1074 1127 1077
f 1077 1127 1129
f 1077 1129 1079
f 1079 1129 1130
f 1079 1130 1081
f 1081 1130 1132
f 1081 1132 1083
f 1083 1132 1134
f 1083 1134 1084
f 1084 1134 1136
f 1084 1136 1070
f 1138 1097 1098
f 1099 1139 1098
f 1098 1139 1138
f 1100 1140 1099
f 1099 1140 1139
f 1101 1140 1100
f 1141 1106 1107
f 1108 1142 1107
f 1107 1142 1141
f 1097 1138 1108
f 1138 1142 1108
f 1138 1143 1142
f 1144 1138 1139
f 1143 1138 1144
f 1145 1139 1140
f 1144 1139 1145
f 1109 1146 1101
f 1146 1140 1101
f 1146 1145 1140
f 1110 1146 1109
f 1147 1114 1115
f 1106 1141 1115
f 1141 1147 1115
f 1141 1148 1147
f 1149 1141 1142
f 1148 1141 1149
f 1150 1142 1143
f 1149 1142 1150
f 1151 1143 1144
f 1150 1143 1151
f 1152 1144 1145
f 1151 1144 1152
f 1153 1145 1146
f 1152 1145 1153
f 1117 1153 1110
f 1110 1153 1146
f 1147 1120 1114
f 1120 1147 1122
f 1147 1154 1122
f 1147 1148 1154
f 1155 1148 1149
f 1154 1148 1155
f 1156 1149 1150
f 1155 1149 1156
f 1157 1150 1151
f 1156 1150 1157
f 1158 1151 1152
f 1157 1151 1158
f 1125 1158 1124
f 1158 1153 1124
f 1158 1152 1153
f 1124 1153 1117
f 1154 1128 1122
f 1128 1154 1131
f 1131 1154 1155
f 1131 1155 1133
f 1133 1155 1156
f 1133 1156 1135
f 1135 1156 1157
f 1135 1157 1137
f 1137 1157 1158
f 1137 1158 1125
