v -39.1 -24.0 2.0
v -39.0 -24.0 1.8
v -39.0 -24.2 2.0
v -39.0 -24.0 2.3
v -39.2 -23.0 1.0
v -39.0 -23.0 0.8
v -39.0 -23.3 1.0
v -39.3 -23.0 2.0
v -39.0 -23.1 3.0
v -39.1 -23.0 3.0
v -39.0 -23.0 3.1
v -39.0 -22.2 1.0
v -39.0 -22.6 2.0
v -39.0 -22.9 3.0
v -38.1 -27.0 3.0
v -38.0 -27.0 2.9
v -38.0 -27.1 3.0
v -38.0 -27.0 3.1
v -38.3 -26.0 3.0
v -38.0 -26.0 2.5
v -38.0 -26.0 3.5
v -38.3 -25.0 2.0
v -38.0 -25.0 1.7
v -38.0 -25.5 2.0
v -38.5 -25.0 3.0
v -38.0 -25.5 4.0
v -38.3 -25.0 4.0
v -38.0 -25.0 4.4
v -38.2 -24.0 1.0
v -38.0 -24.0 0.9
v -38.0 -24.2 1.0
v -38.7 -24.0 3.0
v -38.4 -24.0 4.0
v -38.0 -24.0 4.5
v -38.0 -23.0 0.6
v -38.3 -23.0 4.0
v -38.0 -23.0 4.3
v -38.2 -22.0 1.0
v -38.0 -22.0 1.0
v -38.0 -22.0 1.0
v -38.0 -22.4 2.0
v -38.0 -22.5 3.0
v -38.0 -22.8 4.0
v -38.0 -22.0 1.0
v -37.2 -29.0 5.0
v -37.0 -29.0 4.8
v -37.0 -29.2 5.0
v -37.0 -29.0 6.0
v -37.0 -29.0 6.0
v -37.0 -29.0 6.1
v -37.8 -28.0 4.0
v -37.0 -28.0 3.5
v -37.0 -28.4 4.0
v -37.4 -28.0 5.0
v -37.0 -28.0 5.6
v -37.0 -28.9 6.0
v -37.3 -27.0 2.0
v -37.0 -27.0 1.8
v -37.0 -27.2 2.0
v -37.0 -27.6 3.0
v -37.7 -27.0 4.0
v -37.4 -27.0 5.0
v -37.0 -27.0 5.5
v -37.6 -26.0 2.0
v -37.0 -26.0 1.5
v -37.7 -26.0 4.0
v -37.4 -26.0 5.0
v -37.0 -26.0 5.5
v -37.0 -25.0 1.3
v -37.6 -25.0 5.0
v -37.0 -25.3 6.0
v -37.2 -25.0 6.0
v -37.0 -25.0 6.2
v -37.3 -24.0 1.0
v -37.0 -24.0 1.1
v -37.6 -24.0 5.0
v -37.2 -24.0 6.0
v -37.0 -24.0 6.2
v -37.0 -24.0 15.0
v -37.0 -24.0 15.0
v -37.0 -24.0 15.0
v -37.0 -24.0 15.0
v -37.0 -23.0 0.6
v -37.0 -23.8 1.0
v -37.3 -23.0 5.0
v -37.0 -23.0 5.4
v -37.0 -23.6 6.0
v -37.3 -23.0 13.0
v -37.0 -23.0 12.5
v -37.0 -23.4 13.0
v -37.0 -23.5 14.0
v -37.3 -23.0 14.0
v -37.0 -23.0 15.0
v -37.0 -23.0 15.0
v -37.0 -22.6 1.0
v -38.0 -22.0 1.0
v -37.0 -22.5 2.0
v -37.0 -22.5 3.0
v -37.0 -22.5 4.0
v -37.0 -22.7 5.0
v -37.0 -22.0 11.0
v -37.0 -22.0 11.0
v -37.0 -22.0 11.0
v -37.0 -22.4 12.0
v -37.2 -22.0 12.0
v -37.3 -22.0 13.0
v -37.2 -22.0 14.0
v -37.0 -22.0 14.3
v -37.0 -23.0 15.0
v -37.0 -22.0 11.0
v -37.0 -21.8 12.0
v -37.0 -21.6 13.0
v -37.0 -21.7 14.0
v -36.0 -29.0 4.5
v -36.0 -29.4 5.0
v -36.0 -29.4 6.0
v -36.0 -29.0 7.0
v -36.0 -29.0 7.0
v -36.0 -29.0 7.0
v -36.0 -28.0 3.5
v -36.0 -28.5 4.0
v -36.6 -28.0 6.0
v -36.0 -28.0 6.6
v -36.0 -29.0 7.0
v -36.0 -27.0 1.6
v -36.0 -27.4 2.0
v -36.0 -27.6 3.0
v -36.5 -27.0 6.0
v -36.0 -27.1 7.0
v -36.0 -27.0 7.0
v -36.0 -27.0 7.0
v -36.2 -26.0 1.0
v -36.0 -26.0 0.8
v -36.0 -26.2 1.0
v -36.0 -26.0 6.0
v -36.0 -26.0 6.0
v -36.0 -27.0 7.0
v -36.0 -25.0 0.0
v -36.0 -25.0 -0.0
v -36.0 -25.0 0.0
v -36.6 -25.0 1.0
v -36.0 -26.0 6.0
v -36.0 -25.0 6.5
v -36.1 -25.0 15.0
v -36.0 -25.0 14.8
v -36.0 -25.1 15.0
v -36.0 -25.0 15.1
v -36.2 -24.0 0.0
v -36.0 -24.0 -0.2
v -36.9 -24.0 1.0
v -36.0 -24.0 6.6
v -36.3 -24.0 11.0
v -36.0 -24.0 10.5
v -36.0 -24.4 11.0
v -36.0 -24.5 12.0
v -36.4 -24.0 12.0
v -36.0 -24.5 13.0
v -36.5 -24.0 13.0
v -36.0 -24.6 14.0
v -36.6 -24.0 14.0
v -36.0 -24.0 15.3
v -36.0 -23.0 0.0
v -36.0 -23.0 -0.0
v -36.4 -23.0 6.0
v -36.0 -23.0 6.4
v -36.3 -23.0 10.0
v -36.0 -23.0 9.5
v -36.0 -23.5 10.0
v -36.6 -23.0 11.0
v -36.7 -23.0 12.0
v -36.0 -23.0 14.6
v -37.0 -23.0 15.0
v -36.0 -23.5 15.0
v -36.0 -23.0 0.0
v -36.0 -22.6 1.0
v -36.0 -22.5 2.0
v -36.0 -22.5 3.0
v -36.0 -22.5 4.0
v -36.0 -22.5 5.0
v -36.0 -22.7 6.0
v -36.5 -22.0 9.0
v -36.0 -22.0 8.5
v -36.0 -22.3 9.0
v -36.3 -22.0 10.0
v -36.0 -22.0 14.4
v -36.0 -21.9 9.0
v -36.0 -21.8 10.0
v -36.0 -21.5 11.0
v -36.0 -21.3 12.0
v -36.4 -21.0 13.0
v -36.0 -21.0 12.4
v -36.1 -21.0 14.0
v -36.0 -21.0 14.1
v -36.0 -20.3 13.0
v -36.0 -20.9 14.0
v -35.0 -29.0 4.5
v -35.0 -29.4 5.0
v -35.0 -29.5 6.0
v -35.0 -29.4 7.0
v -35.0 -29.0 7.4
v -35.0 -28.0 3.4
v -35.0 -28.5 4.0
v -35.0 -28.1 7.0
v -35.0 -28.0 7.0
v -35.0 -27.0 1.7
v -35.0 -27.3 2.0
v -35.0 -27.7 3.0
v -35.0 -28.0 7.0
v -35.0 -27.0 7.5
v -35.7 -26.0 1.0
v -35.0 -26.0 1.3
v -36.0 -26.0 6.0
v -35.5 -26.0 7.0
v -35.0 -26.0 7.5
v -35.3 -26.0 13.0
v -35.0 -26.0 12.5
v -35.0 -26.4 13.0
v -35.0 -26.5 14.0
v -35.4 -26.0 14.0
v -35.0 -26.4 15.0
v -35.4 -26.0 15.0
v -35.0 -26.0 15.7
v -36.0 -25.0 0.0
v -35.0 -25.0 0.6
v -35.0 -25.5 1.0
v -35.5 -25.0 7.0
v -35.0 -25.0 7.7
v -35.3 -25.0 10.0
v -35.0 -25.0 9.5
v -35.0 -25.4 10.0
v -35.0 -25.5 11.0
v -35.5 -25.0 11.0
v -35.0 -25.6 12.0
v -35.5 -25.0 12.0
v -35.6 -25.0 13.0
v -35.7 -25.0 14.0
v -35.0 -25.0 15.4
v -35.8 -24.0 0.0
v -35.0 -24.0 0.5
v -35.6 -24.0 7.0
v -35.0 -24.7 8.0
v -35.4 -24.0 8.0
v -35.0 -24.6 9.0
v -35.4 -24.0 9.0
v -35.7 -24.0 10.0
v -35.0 -24.0 15.2
v -36.0 -23.0 0.0
v -35.0 -23.0 0.7
v -35.5 -23.0 7.0
v -35.5 -23.0 8.0
v -35.6 -23.0 9.0
v -35.3 -23.0 14.0
v -35.0 -23.2 14.0
v -35.0 -23.0 13.8
v -35.0 -23.8 15.0
v -35.0 -22.8 1.0
v -35.0 -22.5 2.0
v -35.0 -22.5 3.0
v -35.0 -22.5 4.0
v -35.0 -22.5 5.0
v -35.0 -22.5 6.0
v -35.0 -22.6 7.0
v -35.0 -22.6 8.0
v -35.8 -22.0 9.0
v -35.0 -22.5 9.0
v -35.0 -22.3 10.0
v -35.5 -22.0 10.0
v -35.0 -22.0 10.3
v -35.5 -22.0 14.0
v -35.0 -22.0 13.6
v -35.0 -21.4 11.0
v -35.7 -21.0 12.0
v -35.0 -21.0 11.4
v -35.9 -21.0 14.0
v -35.0 -21.0 13.4
v -35.2 -20.0 12.0
v -35.0 -20.0 11.6
v -35.0 -20.6 13.0
v -35.0 -20.0 12.3
v -35.0 -19.8 12.0
v -34.3 -30.0 7.0
v -34.0 -30.0 6.7
v -34.0 -30.2 7.0
v -34.0 -30.2 8.0
v -34.2 -30.0 8.0
v -34.0 -30.0 8.3
v -34.0 -29.0 4.5
v -34.0 -29.4 5.0
v -34.0 -29.6 6.0
v -34.5 -29.0 8.0
v -34.0 -29.0 8.5
v -34.2 -28.0 3.0
v -34.0 -28.0 2.9
v -34.0 -28.1 3.0
v -34.0 -28.6 4.0
v -35.0 -28.0 7.0
v -34.4 -28.0 8.0
v -34.0 -28.0 8.6
v -34.6 -27.0 2.0
v -34.0 -27.0 2.5
v -34.6 -27.0 8.0
v -34.0 -27.5 9.0
v -34.3 -27.0 9.0
v -34.0 -27.0 9.5
v -34.3 -27.0 12.0
v -34.0 -27.0 11.5
v -34.0 -27.4 12.0
v -34.0 -27.5 13.0
v -34.5 -27.0 13.0
v -34.0 -27.5 14.0
v -34.5 -27.0 14.0
v -34.0 -27.3 15.0
v -34.3 -27.0 15.0
v -34.0 -27.0 15.3
v -34.0 -26.0 1.7
v -34.0 -26.4 2.0
v -34.6 -26.0 8.0
v -34.5 -26.0 9.0
v -34.0 -26.6 10.0
v -34.5 -26.0 10.0
v -34.0 -26.6 11.0
v -34.5 -26.0 11.0
v -34.7 -26.0 12.0
v -34.0 -26.0 15.4
v -34.6 -25.0 1.0
v -34.0 -25.0 1.5
v -34.8 -25.0 8.0
v -34.7 -25.0 9.0
v -34.4 -25.0 15.0
v -34.0 -25.3 15.0
v -34.0 -25.0 14.8
v -34.5 -24.0 1.0
v -34.0 -24.0 1.5
v -34.7 -24.0 15.0
v -34.0 -24.0 14.5
v -34.7 -23.0 1.0
v -34.0 -23.0 1.7
v -34.0 -23.5 14.0
v -34.0 -23.0 13.6
v -34.0 -22.7 2.0
v -34.0 -22.4 3.0
v -34.0 -22.5 4.0
v -34.0 -22.5 5.0
v -34.0 -22.5 6.0
v -34.0 -22.5 7.0
v -34.0 -22.5 8.0
v -34.0 -22.5 9.0
v -34.0 -22.4 10.0
v -34.0 -22.0 10.5
v -34.0 -22.0 13.4
v -34.0 -21.5 11.0
v -34.0 -21.0 11.5
v -34.5 -21.0 13.0
v -34.0 -21.4 13.0
v -34.0 -21.0 12.6
v -34.0 -20.0 12.0
v -34.0 -20.0 12.0
v -34.0 -20.0 12.0
v -33.0 -30.0 6.6
v -33.0 -30.3 7.0
v -33.0 -30.5 8.0
v -33.0 -30.3 9.0
v -33.3 -30.0 9.0
v -33.0 -30.0 9.4
v -33.0 -29.0 4.7
v -33.0 -29.3 5.0
v -33.0 -29.6 6.0
v -33.6 -29.0 9.0
v -33.0 -29.5 10.0
v -33.3 -29.0 10.0
v -33.0 -29.0 10.5
v -33.9 -28.0 3.0
v -33.0 -28.0 3.7
v -33.0 -28.3 4.0
v -33.7 -28.0 9.0
v -33.5 -28.0 10.0
v -33.0 -28.6 11.0
v -33.4 -28.0 11.0
v -33.0 -28.5 12.0
v -33.5 -28.0 12.0
v -33.0 -28.5 13.0
v -33.5 -28.0 13.0
v -33.0 -28.5 14.0
v -33.5 -28.0 14.0
v -33.0 -28.3 15.0
v -33.3 -28.0 15.0
v -33.0 -28.0 15.2
v -33.5 -27.0 3.0
v -33.0 -27.0 3.5
v -33.7 -27.0 10.0
v -33.7 -27.0 11.0
v -33.0 -27.0 15.5
v -33.7 -26.0 2.0
v -33.3 -26.0 3.0
v -33.0 -26.0 3.4
v -33.0 -26.0 15.4
v -33.5 -25.0 2.0
v -33.0 -25.0 2.6
v -33.0 -25.5 3.0
v -33.0 -25.3 15.0
v -33.0 -25.0 14.8
v -33.5 -24.0 2.0
v -33.0 -24.0 2.5
v -33.0 -24.0 14.5
v -33.7 -23.0 2.0
v -33.0 -23.0 2.6
v -33.0 -23.4 14.0
v -33.0 -23.0 13.7
v -33.0 -22.3 3.0
v -33.0 -22.5 4.0
v -33.0 -22.4 5.0
v -33.0 -22.4 6.0
v -33.0 -22.4 7.0
v -33.0 -22.5 8.0
v -33.0 -22.4 9.0
v -33.0 -22.3 10.0
v -33.0 -22.0 10.3
v -33.0 -22.0 13.4
v -33.0 -21.5 11.0
v -33.0 -21.0 11.7
v -33.0 -21.5 13.0
v -33.0 -21.0 12.3
v -33.0 -20.7 12.0
v -34.0 -20.0 12.0
v -32.5 -30.0 7.0
v -32.0 -30.0 7.5
v -32.0 -30.3 8.0
v -32.0 -30.5 9.0
v -32.0 -30.4 10.0
v -32.6 -30.0 10.0
v -32.0 -30.3 11.0
v -32.3 -30.0 11.0
v -32.0 -30.0 11.5
v -32.6 -29.0 5.0
v -32.0 -29.0 5.6
v -32.0 -29.3 6.0
v -32.0 -29.7 7.0
v -32.7 -29.0 11.0
v -32.0 -29.6 12.0
v -32.5 -29.0 12.0
v -32.0 -29.5 13.0
v -32.5 -29.0 13.0
v -32.0 -29.5 14.0
v -32.5 -29.0 14.0
v -32.0 -29.4 15.0
v -32.3 -29.0 15.0
v -32.0 -29.0 15.4
v -32.7 -28.0 4.0
v -32.0 -28.0 4.7
v -32.0 -28.4 5.0
v -32.0 -28.0 15.6
v -32.5 -27.0 4.0
v -32.0 -27.0 4.5
v -32.0 -27.0 15.5
v -32.5 -26.0 4.0
v -32.0 -26.0 4.5
v -32.0 -26.0 15.5
v -32.7 -25.0 3.0
v -32.4 -25.0 4.0
v -32.0 -25.0 4.5
v -32.7 -25.0 15.0
v -32.0 -25.0 15.4
v -32.6 -24.0 3.0
v -32.4 -24.0 4.0
v -32.0 -24.0 4.5
v -32.3 -24.0 15.0
v -32.0 -24.0 15.3
v -32.7 -23.0 3.0
v -32.5 -23.0 4.0
v -32.0 -23.0 4.6
v -32.6 -23.0 14.0
v -32.0 -23.0 14.5
v -32.0 -23.6 15.0
v -32.0 -22.1 5.0
v -32.3 -22.0 6.0
v -32.0 -22.0 5.1
v -32.0 -22.0 7.0
v -32.0 -22.0 7.1
v -32.0 -22.4 8.0
v -32.1 -22.0 9.0
v -32.0 -22.0 8.8
v -32.5 -22.0 10.0
v -32.0 -22.6 14.0
v -32.0 -22.0 13.3
v -32.0 -21.8 6.0
v -32.0 -22.0 7.0
v -32.0 -21.9 9.0
v -32.0 -21.8 10.0
v -32.0 -21.5 11.0
v -32.0 -21.0 12.0
v -32.0 -21.7 13.0
v -32.0 -21.0 12.0
v -32.0 -21.0 12.0
v -31.1 -31.0 11.0
v -31.0 -31.0 10.9
v -31.0 -31.1 11.0
v -31.0 -31.2 12.0
v -31.2 -31.0 12.0
v -31.0 -31.3 13.0
v -31.3 -31.0 13.0
v -31.0 -31.3 14.0
v -31.3 -31.0 14.0
v -31.0 -31.3 15.0
v -31.3 -31.0 15.0
v -31.0 -31.0 16.0
v -31.0 -31.0 16.0
v -31.0 -31.0 16.0
v -31.5 -30.0 8.0
v -31.0 -30.0 8.5
v -31.0 -30.3 9.0
v -31.0 -30.6 10.0
v -31.7 -30.0 12.0
v -31.6 -30.0 13.0
v -31.6 -30.0 14.0
v -31.6 -30.0 15.0
v -31.3 -30.0 16.0
v -31.0 -30.0 16.3
v -31.7 -29.0 6.0
v -31.0 -29.0 6.7
v -31.0 -29.2 7.0
v -31.0 -29.6 8.0
v -31.4 -29.0 16.0
v -31.0 -29.0 16.4
v -31.7 -28.0 5.0
v -31.4 -28.0 6.0
v -31.0 -28.0 6.5
v -31.3 -28.0 16.0
v -31.0 -28.0 16.2
v -31.6 -27.0 5.0
v -31.4 -27.0 6.0
v -31.0 -27.0 6.5
v -31.0 -27.7 16.0
v -31.0 -27.0 15.6
v -31.6 -26.0 5.0
v -31.4 -26.0 6.0
v -31.0 -26.0 6.5
v -31.0 -26.0 15.4
v -31.6 -25.0 5.0
v -31.4 -25.0 6.0
v -31.0 -25.0 6.5
v -31.0 -25.0 15.4
v -31.6 -24.0 5.0
v -31.4 -24.0 6.0
v -31.0 -24.0 6.6
v -31.0 -24.0 15.3
v -31.7 -23.0 5.0
v -31.5 -23.0 6.0
v -31.0 -23.5 7.0
v -31.3 -23.0 7.0
v -31.0 -23.0 7.6
v -31.0 -23.0 15.0
v -31.0 -23.0 15.0
v -31.8 -22.0 6.0
v -32.0 -22.0 7.0
v -31.0 -22.7 8.0
v -31.9 -22.0 9.0
v -31.0 -22.6 9.0
v -31.7 -22.0 10.0
v -31.0 -22.5 10.0
v -31.5 -22.0 11.0
v -31.0 -22.5 11.0
v -31.4 -22.0 12.0
v -31.0 -22.5 12.0
v -31.6 -22.0 13.0
v -31.0 -22.6 13.0
v -31.0 -22.7 14.0
v -31.0 -23.0 15.0
v -32.0 -21.0 12.0
v -30.9 -31.0 11.0
v -30.6 -31.0 12.0
v -30.0 -31.0 12.6
v -30.0 -31.2 13.0
v -30.0 -31.3 14.0
v -30.0 -31.2 15.0
v -31.0 -31.0 16.0
v -30.0 -31.0 15.3
v -30.6 -30.0 9.0
v -30.0 -30.0 9.6
v -30.0 -30.3 10.0
v -30.0 -30.4 11.0
v -30.0 -30.6 12.0
v -30.0 -30.3 16.0
v -30.0 -30.0 16.2
v -30.8 -29.0 7.0
v -30.5 -29.0 8.0
v -30.0 -29.0 8.7
v -30.0 -29.4 9.0
v -30.0 -29.0 16.3
v -30.6 -28.0 7.0
v -30.4 -28.0 8.0
v -30.0 -28.0 8.5
v -30.0 -28.0 16.2
v -30.6 -27.0 7.0
v -30.4 -27.0 8.0
v -30.0 -27.0 8.6
v -30.0 -27.7 16.0
v -30.0 -27.0 15.3
v -30.6 -26.0 7.0
v -30.5 -26.0 8.0
v -30.0 -26.5 9.0
v -30.3 -26.0 9.0
v -30.0 -26.0 9.5
v -30.5 -26.0 15.0
v -30.0 -26.6 15.0
v -30.0 -26.0 14.4
v -30.6 -25.0 7.0
v -30.5 -25.0 8.0
v -30.5 -25.0 9.0
v -30.0 -25.6 10.0
v -30.4 -25.0 10.0
v -30.4 -25.0 11.0
v -30.0 -25.5 11.0
v -30.4 -25.0 12.0
v -30.0 -25.5 12.0
v -30.4 -25.0 13.0
v -30.0 -25.5 13.0
v -30.4 -25.0 14.0
v -30.0 -25.6 14.0
v -30.6 -25.0 15.0
v -30.7 -24.0 7.0
v -30.5 -24.0 8.0
v -30.5 -24.0 9.0
v -30.5 -24.0 10.0
v -30.5 -24.0 11.0
v -30.5 -24.0 12.0
v -30.5 -24.0 13.0
v -30.5 -24.0 14.0
v -30.7 -24.0 15.0
v -30.7 -23.0 8.0
v -30.6 -23.0 9.0
v -30.6 -23.0 10.0
v -30.6 -23.0 11.0
v -30.6 -23.0 12.0
v -30.6 -23.0 13.0
v -30.7 -23.0 14.0
v -31.0 -23.0 15.0
v -29.8 -31.0 13.0
v -29.7 -31.0 14.0
v -29.8 -31.0 15.0
v -29.8 -30.0 10.0
v -29.6 -30.0 11.0
v -29.6 -30.0 12.0
v -29.5 -30.0 13.0
v -29.5 -30.0 14.0
v -29.5 -30.0 15.0
v -29.8 -30.0 16.0
v -29.7 -29.0 9.0
v -29.5 -29.0 10.0
v -29.5 -29.0 11.0
v -29.5 -29.0 12.0
v -29.5 -29.0 13.0
v -29.5 -29.0 14.0
v -29.5 -29.0 15.0
v -29.7 -29.0 16.0
v -29.6 -28.0 9.0
v -29.5 -28.0 10.0
v -29.5 -28.0 11.0
v -29.5 -28.0 12.0
v -29.5 -28.0 13.0
v -29.5 -28.0 14.0
v -29.5 -28.0 15.0
v -29.8 -28.0 16.0
v -29.7 -27.0 9.0
v -29.5 -27.0 10.0
v -29.5 -27.0 11.0
v -29.5 -27.0 12.0
v -29.5 -27.0 13.0
v -29.5 -27.0 14.0
v -29.7 -27.0 15.0
v -29.7 -26.0 10.0
v -29.6 -26.0 11.0
v -29.6 -26.0 12.0
v -29.6 -26.0 13.0
v -29.7 -26.0 14.0
f 3 2 1
f 1 4 3
f 7 6 5
f 7 5 2
f 5 1 2
f 5 8 1
f 4 1 9
f 1 10 9
f 1 8 10
f 10 11 9
f 6 12 5
f 5 12 8
f 8 12 13
f 8 13 10
f 10 13 14
f 10 14 11
f 17 16 15
f 15 18 17
f 15 16 19
f 19 16 20
f 18 15 21
f 21 15 19
f 24 23 22
f 24 22 20
f 22 19 20
f 22 25 19
f 21 19 26
f 19 27 26
f 19 25 27
f 27 28 26
f 31 30 29
f 31 29 23
f 23 29 22
f 29 2 22
f 2 3 22
f 22 3 4
f 32 22 4
f 25 22 32
f 25 33 27
f 25 32 33
f 28 27 34
f 34 27 33
f 29 30 7
f 30 6 7
f 30 35 6
f 29 7 2
f 9 32 4
f 32 9 11
f 36 32 11
f 33 32 36
f 34 33 37
f 37 33 36
f 12 6 38
f 6 39 38
f 6 35 39
f 12 38 40
f 41 12 40
f 13 12 41
f 13 42 14
f 41 42 13
f 11 14 36
f 14 43 36
f 14 42 43
f 36 43 37
f 39 44 38
f 38 44 40
f 47 46 45
f 49 48 45
f 45 48 47
f 49 50 48
f 53 52 51
f 53 51 46
f 51 45 46
f 51 54 45
f 56 49 55
f 49 54 55
f 49 45 54
f 49 56 50
f 59 58 57
f 16 17 57
f 17 59 57
f 17 60 59
f 61 51 18
f 51 60 18
f 60 17 18
f 51 52 60
f 51 62 54
f 51 61 62
f 55 54 63
f 63 54 62
f 57 58 64
f 64 58 65
f 64 20 16
f 64 16 57
f 21 66 61
f 21 61 18
f 61 67 62
f 61 66 67
f 63 62 68
f 68 62 67
f 64 65 24
f 65 23 24
f 65 69 23
f 64 24 20
f 26 66 21
f 66 26 28
f 70 66 28
f 67 66 70
f 68 67 71
f 67 72 71
f 67 70 72
f 72 73 71
f 74 30 31
f 75 74 31
f 23 75 31
f 69 75 23
f 34 76 70
f 34 70 28
f 70 77 72
f 70 76 77
f 73 72 78
f 78 72 77
f 81 80 79
f 79 82 81
f 84 83 74
f 83 30 74
f 83 35 30
f 84 74 75
f 37 85 76
f 37 76 34
f 87 77 86
f 77 85 86
f 77 76 85
f 77 87 78
f 90 89 88
f 92 91 88
f 88 91 90
f 91 92 80
f 92 79 80
f 92 93 79
f 82 79 94
f 94 79 93
f 96 39 95
f 39 83 95
f 39 35 83
f 41 40 96
f 95 41 96
f 97 41 95
f 41 98 42
f 97 98 41
f 42 99 43
f 98 99 42
f 37 43 85
f 43 100 85
f 43 99 100
f 85 100 86
f 103 102 101
f 105 104 101
f 101 104 103
f 104 105 89
f 105 88 89
f 105 106 88
f 88 107 92
f 88 106 107
f 109 93 108
f 93 107 108
f 93 92 107
f 93 109 94
f 96 44 39
f 44 96 40
f 102 110 101
f 101 110 105
f 105 110 111
f 105 111 106
f 106 111 112
f 106 112 107
f 107 112 113
f 107 113 108
f 115 114 47
f 47 114 46
f 116 47 48
f 116 115 47
f 118 117 50
f 117 48 50
f 117 116 48
f 118 119 117
f 121 120 53
f 53 120 52
f 53 46 114
f 53 114 121
f 55 122 56
f 122 123 56
f 56 123 50
f 123 124 50
f 124 118 50
f 118 124 119
f 126 125 59
f 59 125 58
f 127 59 60
f 127 126 59
f 60 52 120
f 60 120 127
f 63 128 122
f 63 122 55
f 123 122 129
f 122 130 129
f 122 128 130
f 130 131 129
f 134 133 132
f 125 134 132
f 65 125 132
f 58 125 65
f 136 135 128
f 63 136 128
f 68 136 63
f 128 135 130
f 130 135 137
f 130 137 131
f 140 139 138
f 140 138 133
f 138 132 133
f 138 141 132
f 141 69 65
f 141 65 132
f 142 136 68
f 142 68 71
f 71 73 142
f 142 73 143
f 146 145 144
f 144 147 146
f 138 139 148
f 148 139 149
f 138 150 141
f 138 148 150
f 150 75 69
f 150 69 141
f 78 143 73
f 78 151 143
f 154 153 152
f 156 155 152
f 152 155 154
f 158 157 156
f 156 157 155
f 160 159 158
f 158 159 157
f 159 160 145
f 145 160 144
f 160 80 144
f 80 81 144
f 81 82 144
f 82 147 144
f 82 161 147
f 148 149 162
f 162 149 163
f 162 83 84
f 150 162 84
f 148 162 150
f 150 84 75
f 86 164 87
f 164 165 87
f 165 78 87
f 165 151 78
f 168 167 166
f 168 166 153
f 166 152 153
f 166 169 152
f 152 170 156
f 152 169 170
f 170 89 90
f 158 170 90
f 156 170 158
f 158 90 91
f 158 91 160
f 80 160 91
f 173 172 171
f 173 161 172
f 161 94 172
f 161 82 94
f 163 174 162
f 162 174 83
f 174 95 83
f 174 175 95
f 95 176 97
f 175 176 95
f 97 177 98
f 176 177 97
f 98 178 99
f 177 178 98
f 99 179 100
f 178 179 99
f 86 100 164
f 100 180 164
f 100 179 180
f 164 180 165
f 183 182 181
f 183 181 167
f 181 166 167
f 181 184 166
f 184 102 103
f 169 184 103
f 166 184 169
f 169 103 104
f 169 104 170
f 170 104 89
f 171 172 109
f 108 171 109
f 185 171 108
f 109 172 94
f 182 186 181
f 181 186 184
f 184 186 187
f 184 187 102
f 187 110 102
f 187 188 110
f 110 189 111
f 188 189 110
f 189 191 190
f 112 189 190
f 111 189 112
f 192 113 112
f 192 112 190
f 192 193 113
f 193 108 113
f 193 185 108
f 191 194 190
f 190 194 192
f 192 194 195
f 192 195 193
f 197 196 115
f 115 196 114
f 198 115 116
f 198 197 115
f 199 116 117
f 199 198 116
f 117 119 199
f 199 119 200
f 202 201 121
f 121 201 120
f 121 114 196
f 121 196 202
f 204 203 124
f 204 124 123
f 119 124 200
f 200 124 203
f 206 205 126
f 126 205 125
f 207 126 127
f 207 206 126
f 127 120 201
f 127 201 207
f 208 204 123
f 208 123 129
f 129 131 208
f 208 131 209
f 210 133 134
f 211 210 134
f 125 211 134
f 205 211 125
f 136 212 135
f 213 137 135
f 213 135 212
f 213 214 137
f 214 131 137
f 214 209 131
f 217 216 215
f 219 218 215
f 215 218 217
f 221 220 219
f 219 220 218
f 221 222 220
f 223 139 140
f 224 223 140
f 224 140 133
f 225 224 133
f 210 225 133
f 225 210 211
f 142 212 136
f 212 142 143
f 226 212 143
f 213 212 226
f 214 213 227
f 227 213 226
f 230 229 228
f 232 231 228
f 228 231 230
f 234 233 232
f 232 233 231
f 233 234 216
f 234 215 216
f 234 235 215
f 215 236 219
f 215 235 236
f 236 145 146
f 221 236 146
f 219 236 221
f 146 147 221
f 147 222 221
f 147 237 222
f 238 149 223
f 223 149 139
f 223 224 239
f 223 239 238
f 151 240 226
f 151 226 143
f 227 226 241
f 226 242 241
f 226 240 242
f 244 243 242
f 242 243 241
f 243 244 229
f 244 228 229
f 244 245 228
f 245 153 154
f 232 245 154
f 228 245 232
f 232 154 155
f 232 155 234
f 234 155 157
f 234 157 235
f 235 157 159
f 235 159 236
f 236 159 145
f 161 237 147
f 161 246 237
f 247 163 238
f 238 163 149
f 238 239 248
f 238 248 247
f 165 249 240
f 165 240 151
f 240 250 242
f 240 249 250
f 242 251 244
f 242 250 251
f 251 167 168
f 245 251 168
f 244 251 245
f 245 168 153
f 254 253 252
f 173 171 252
f 253 173 252
f 255 173 253
f 161 173 246
f 246 173 255
f 247 174 163
f 248 256 247
f 256 174 247
f 256 175 174
f 175 257 176
f 256 257 175
f 176 258 177
f 257 258 176
f 177 259 178
f 258 259 177
f 178 260 179
f 259 260 178
f 179 261 180
f 260 261 179
f 165 180 249
f 180 262 249
f 180 261 262
f 249 262 250
f 250 262 263
f 182 183 264
f 263 265 250
f 251 250 265
f 266 251 265
f 251 266 167
f 267 167 266
f 167 267 183
f 264 183 267
f 268 267 266
f 254 252 269
f 254 269 270
f 185 269 171
f 171 269 252
f 264 186 182
f 186 264 187
f 187 264 267
f 268 271 267
f 271 187 267
f 271 188 187
f 271 273 272
f 189 271 272
f 188 271 189
f 272 191 189
f 270 269 274
f 270 274 275
f 193 274 185
f 185 274 269
f 272 273 276
f 276 273 277
f 272 276 191
f 276 278 191
f 278 194 191
f 276 279 278
f 274 195 275
f 195 278 275
f 195 194 278
f 195 274 193
f 277 280 276
f 276 280 279
f 283 282 281
f 285 284 281
f 281 284 283
f 285 286 284
f 288 287 197
f 197 287 196
f 289 197 198
f 289 288 197
f 199 281 282
f 289 199 282
f 198 199 289
f 281 199 200
f 290 281 200
f 285 281 290
f 286 285 291
f 291 285 290
f 294 293 292
f 201 202 292
f 202 294 292
f 202 295 294
f 202 196 287
f 202 287 295
f 204 296 203
f 290 200 203
f 296 290 203
f 297 290 296
f 291 290 298
f 298 290 297
f 299 205 206
f 293 300 292
f 300 206 292
f 206 207 292
f 206 300 299
f 292 207 201
f 208 296 204
f 296 208 209
f 301 296 209
f 297 296 301
f 298 297 302
f 297 303 302
f 297 301 303
f 303 304 302
f 307 306 305
f 309 308 305
f 305 308 307
f 311 310 309
f 309 310 308
f 313 312 311
f 311 312 310
f 313 314 312
f 316 315 299
f 315 205 299
f 315 211 205
f 316 299 300
f 214 317 301
f 214 301 209
f 301 318 303
f 301 317 318
f 304 303 319
f 303 320 319
f 303 318 320
f 322 321 320
f 320 321 319
f 321 322 306
f 322 305 306
f 322 323 305
f 323 216 217
f 309 323 217
f 305 323 309
f 309 217 218
f 309 218 311
f 311 218 220
f 311 220 313
f 220 222 313
f 222 314 313
f 222 324 314
f 325 224 225
f 326 325 225
f 211 326 225
f 315 326 211
f 227 327 317
f 227 317 214
f 317 328 318
f 317 327 328
f 328 229 230
f 320 328 230
f 318 328 320
f 320 230 231
f 320 231 322
f 322 231 233
f 322 233 323
f 323 233 216
f 331 330 329
f 330 324 329
f 324 237 329
f 324 222 237
f 332 239 325
f 325 239 224
f 325 326 333
f 325 333 332
f 241 327 227
f 327 241 243
f 327 243 328
f 328 243 229
f 331 329 334
f 331 334 335
f 246 334 237
f 237 334 329
f 336 248 332
f 332 248 239
f 332 333 337
f 332 337 336
f 339 338 253
f 339 253 254
f 334 255 335
f 255 338 335
f 255 253 338
f 255 334 246
f 336 256 248
f 337 340 336
f 340 256 336
f 340 257 256
f 257 341 258
f 340 341 257
f 258 342 259
f 341 342 258
f 259 343 260
f 342 343 259
f 260 344 261
f 343 344 260
f 261 345 262
f 344 345 261
f 262 346 263
f 345 346 262
f 263 347 265
f 346 347 263
f 265 348 266
f 347 348 265
f 268 266 348
f 268 348 349
f 270 339 254
f 270 350 339
f 349 351 268
f 268 351 271
f 273 271 351
f 273 351 352
f 355 354 353
f 354 350 353
f 350 275 353
f 350 270 275
f 352 277 273
f 356 277 352
f 355 353 278
f 279 355 278
f 357 355 279
f 278 353 275
f 356 358 277
f 277 358 280
f 279 280 357
f 357 280 358
f 360 359 283
f 283 359 282
f 361 283 284
f 361 360 283
f 363 362 286
f 362 284 286
f 362 361 284
f 363 364 362
f 366 365 288
f 288 365 287
f 367 288 289
f 367 366 288
f 289 282 359
f 289 359 367
f 291 368 363
f 291 363 286
f 364 363 369
f 363 370 369
f 363 368 370
f 370 371 369
f 372 293 294
f 372 294 373
f 294 374 373
f 294 295 374
f 295 287 365
f 295 365 374
f 298 375 368
f 298 368 291
f 368 376 370
f 368 375 376
f 371 370 377
f 370 378 377
f 370 376 378
f 380 379 378
f 378 379 377
f 382 381 380
f 380 381 379
f 384 383 382
f 382 383 381
f 386 385 384
f 384 385 383
f 386 387 385
f 388 300 372
f 372 300 293
f 372 373 389
f 372 389 388
f 302 375 298
f 375 302 304
f 390 375 304
f 376 375 390
f 376 391 378
f 376 390 391
f 391 306 307
f 380 391 307
f 378 391 380
f 380 307 308
f 380 308 382
f 382 308 310
f 382 310 384
f 384 310 312
f 384 312 386
f 312 314 386
f 314 387 386
f 314 392 387
f 393 315 316
f 300 388 316
f 388 393 316
f 388 394 393
f 388 389 395
f 388 395 394
f 319 390 304
f 390 319 321
f 390 321 391
f 391 321 306
f 324 392 314
f 324 396 392
f 397 326 393
f 393 326 315
f 394 399 398
f 397 394 398
f 393 394 397
f 399 394 395
f 401 400 330
f 401 330 331
f 324 330 396
f 396 330 400
f 402 333 397
f 397 333 326
f 397 398 403
f 397 403 402
f 335 401 331
f 335 404 401
f 405 337 402
f 402 337 333
f 402 403 406
f 402 406 405
f 408 407 338
f 408 338 339
f 335 338 404
f 404 338 407
f 405 340 337
f 406 409 405
f 409 340 405
f 409 341 340
f 341 410 342
f 409 410 341
f 342 411 343
f 410 411 342
f 343 412 344
f 411 412 343
f 344 413 345
f 412 413 344
f 345 414 346
f 413 414 345
f 346 415 347
f 414 415 346
f 347 416 348
f 415 416 347
f 349 348 416
f 349 416 417
f 350 408 339
f 350 418 408
f 417 419 349
f 349 419 351
f 352 351 419
f 352 419 420
f 422 421 354
f 422 354 355
f 350 354 418
f 418 354 421
f 424 356 423
f 356 420 423
f 356 352 420
f 423 422 424
f 422 357 424
f 422 355 357
f 424 358 356
f 358 424 357
f 425 359 360
f 425 360 426
f 360 427 426
f 360 361 427
f 428 361 362
f 428 427 361
f 430 429 364
f 429 362 364
f 429 428 362
f 432 431 430
f 430 431 429
f 432 433 431
f 434 365 366
f 434 366 435
f 366 436 435
f 366 367 436
f 367 359 425
f 437 367 425
f 436 367 437
f 437 425 426
f 369 430 364
f 430 369 371
f 438 430 371
f 432 430 438
f 433 432 439
f 432 440 439
f 432 438 440
f 442 441 440
f 440 441 439
f 444 443 442
f 442 443 441
f 446 445 444
f 444 445 443
f 446 447 445
f 448 373 374
f 449 448 374
f 449 374 365
f 450 449 365
f 434 450 365
f 450 434 435
f 377 438 371
f 438 377 379
f 438 379 440
f 440 379 381
f 440 381 442
f 442 381 383
f 442 383 444
f 444 383 385
f 444 385 446
f 385 387 446
f 387 447 446
f 387 451 447
f 452 389 448
f 448 389 373
f 448 449 453
f 448 453 452
f 392 451 387
f 392 454 451
f 455 395 452
f 452 395 389
f 452 453 456
f 452 456 455
f 396 454 392
f 396 457 454
f 458 398 399
f 395 455 399
f 455 458 399
f 455 459 458
f 455 456 460
f 455 460 459
f 401 461 400
f 461 462 400
f 462 396 400
f 462 457 396
f 463 403 458
f 458 403 398
f 464 458 459
f 463 458 464
f 459 460 465
f 459 465 464
f 404 466 461
f 404 461 401
f 462 461 467
f 467 461 466
f 468 406 463
f 463 406 403
f 469 463 464
f 468 463 469
f 464 465 470
f 464 470 469
f 408 471 407
f 471 472 407
f 407 472 404
f 472 473 404
f 473 466 404
f 466 473 467
f 468 409 406
f 409 468 410
f 410 468 469
f 470 474 469
f 474 410 469
f 474 411 410
f 474 476 475
f 412 474 475
f 411 474 412
f 477 413 412
f 477 412 475
f 413 477 478
f 479 413 478
f 414 413 479
f 479 481 480
f 415 479 480
f 414 479 415
f 482 416 415
f 482 415 480
f 482 417 416
f 484 483 471
f 408 484 471
f 418 484 408
f 471 483 472
f 476 485 475
f 475 485 477
f 477 485 486
f 477 486 478
f 481 487 480
f 480 487 482
f 482 487 488
f 482 488 417
f 488 419 417
f 488 489 419
f 420 419 489
f 420 489 490
f 492 491 421
f 492 421 422
f 418 421 484
f 484 421 491
f 490 493 420
f 420 493 423
f 422 423 492
f 492 423 493
f 496 495 494
f 498 497 494
f 494 497 496
f 500 499 498
f 498 499 497
f 502 501 500
f 500 501 499
f 504 503 502
f 502 503 501
f 506 505 504
f 504 505 503
f 506 507 505
f 508 426 427
f 508 427 509
f 427 510 509
f 427 428 510
f 511 428 429
f 511 510 428
f 431 494 495
f 511 431 495
f 429 431 511
f 494 431 433
f 512 494 433
f 498 494 512
f 498 513 500
f 498 512 513
f 500 514 502
f 500 513 514
f 502 515 504
f 502 514 515
f 504 516 506
f 504 515 516
f 507 506 517
f 517 506 516
f 518 435 436
f 518 436 519
f 436 520 519
f 436 437 520
f 437 426 508
f 521 437 508
f 520 437 521
f 521 508 509
f 439 512 433
f 512 439 441
f 512 441 513
f 513 441 443
f 513 443 514
f 514 443 445
f 514 445 515
f 515 445 447
f 522 515 447
f 516 515 522
f 517 516 523
f 523 516 522
f 524 449 450
f 435 518 450
f 518 524 450
f 518 525 524
f 518 519 526
f 518 526 525
f 451 527 522
f 451 522 447
f 523 522 528
f 528 522 527
f 529 453 524
f 524 453 449
f 530 524 525
f 529 524 530
f 525 526 531
f 525 531 530
f 533 532 527
f 451 533 527
f 454 533 451
f 527 532 528
f 534 456 529
f 529 456 453
f 535 529 530
f 534 529 535
f 530 531 536
f 530 536 535
f 457 533 454
f 457 537 533
f 538 460 534
f 534 460 456
f 539 534 535
f 538 534 539
f 535 536 540
f 535 540 539
f 462 537 457
f 462 541 537
f 542 465 538
f 538 465 460
f 543 538 539
f 542 538 543
f 539 540 544
f 539 544 543
f 467 541 462
f 467 545 541
f 546 470 542
f 542 470 465
f 547 542 543
f 546 542 547
f 543 544 548
f 549 543 548
f 547 543 549
f 550 549 548
f 472 551 473
f 551 552 473
f 552 467 473
f 552 545 467
f 546 474 470
f 474 546 476
f 546 553 476
f 546 547 553
f 554 547 549
f 553 547 554
f 555 479 478
f 549 555 478
f 554 549 478
f 555 549 550
f 557 556 481
f 479 557 481
f 555 557 479
f 559 558 556
f 559 556 557
f 561 560 558
f 561 558 559
f 563 562 560
f 563 560 561
f 565 564 562
f 565 562 563
f 483 484 564
f 565 483 564
f 566 483 565
f 472 483 551
f 483 567 551
f 483 566 567
f 551 567 552
f 553 485 476
f 485 553 486
f 486 553 554
f 486 554 478
f 556 487 481
f 487 556 488
f 488 556 558
f 488 558 489
f 489 558 560
f 489 560 490
f 560 568 490
f 560 562 568
f 492 568 491
f 568 564 491
f 568 562 564
f 491 564 484
f 568 493 490
f 493 568 492
f 569 495 496
f 497 570 496
f 496 570 569
f 570 497 571
f 497 572 571
f 497 499 572
f 573 499 501
f 573 572 499
f 574 501 503
f 574 573 501
f 576 574 575
f 574 505 575
f 574 503 505
f 507 575 505
f 577 509 510
f 577 510 578
f 510 579 578
f 510 511 579
f 511 495 569
f 580 511 569
f 579 511 580
f 580 569 570
f 580 570 581
f 581 570 571
f 582 576 575
f 575 507 582
f 507 583 582
f 507 517 583
f 584 519 520
f 521 585 520
f 520 585 584
f 586 585 521
f 586 521 509
f 587 586 509
f 577 587 509
f 587 577 578
f 523 583 517
f 523 588 583
f 589 526 584
f 584 526 519
f 590 584 585
f 589 584 590
f 585 586 591
f 585 591 590
f 528 588 523
f 528 592 588
f 593 531 589
f 589 531 526
f 594 589 590
f 593 589 594
f 590 591 595
f 590 595 594
f 597 596 532
f 597 532 533
f 528 532 592
f 592 532 596
f 598 536 593
f 593 536 531
f 599 593 594
f 598 593 599
f 594 595 600
f 601 594 600
f 599 594 601
f 602 601 600
f 605 604 603
f 604 597 603
f 597 537 603
f 597 533 537
f 606 540 598
f 598 540 536
f 607 598 599
f 606 598 607
f 608 599 601
f 607 599 608
f 601 602 609
f 610 601 609
f 608 601 610
f 612 611 610
f 612 610 609
f 614 613 611
f 614 611 612
f 616 615 613
f 616 613 614
f 618 617 615
f 618 615 616
f 617 618 605
f 603 617 605
f 619 617 603
f 541 619 537
f 537 619 603
f 620 544 606
f 606 544 540
f 621 606 607
f 620 606 621
f 622 607 608
f 621 607 622
f 623 608 610
f 622 608 623
f 624 610 611
f 623 610 624
f 625 611 613
f 624 611 625
f 626 613 615
f 625 613 626
f 627 615 617
f 626 615 627
f 628 617 619
f 627 617 628
f 545 628 541
f 541 628 619
f 620 548 544
f 548 620 550
f 620 629 550
f 620 621 629
f 630 621 622
f 629 621 630
f 631 622 623
f 630 622 631
f 632 623 624
f 631 623 632
f 633 624 625
f 632 624 633
f 634 625 626
f 633 625 634
f 635 626 627
f 634 626 635
f 636 627 628
f 635 627 636
f 552 636 545
f 545 636 628
f 629 555 550
f 555 629 557
f 557 629 630
f 557 630 559
f 559 630 631
f 559 631 561
f 561 631 632
f 561 632 563
f 563 632 633
f 563 633 565
f 565 633 634
f 565 634 566
f 566 634 635
f 566 635 567
f 567 635 636
f 567 636 552
f 637 571 572
f 573 638 572
f 572 638 637
f 574 639 573
f 573 639 638
f 576 639 574
f 640 578 579
f 580 641 579
f 579 641 640
f 581 642 580
f 580 642 641
f 571 637 581
f 637 642 581
f 637 643 642
f 644 637 638
f 643 637 644
f 645 638 639
f 644 638 645
f 582 646 576
f 646 639 576
f 646 645 639
f 583 646 582
f 647 586 587
f 578 640 587
f 640 647 587
f 640 648 647
f 649 640 641
f 648 640 649
f 650 641 642
f 649 641 650
f 651 642 643
f 650 642 651
f 652 643 644
f 651 643 652
f 653 644 645
f 652 644 653
f 654 645 646
f 653 645 654
f 588 654 583
f 583 654 646
f 655 591 647
f 647 591 586
f 656 647 648
f 655 647 656
f 657 648 649
f 656 648 657
f 658 649 650
f 657 649 658
f 659 650 651
f 658 650 659
f 660 651 652
f 659 651 660
f 661 652 653
f 660 652 661
f 662 653 654
f 661 653 662
f 592 662 588
f 588 662 654
f 663 595 655
f 655 595 591
f 664 655 656
f 663 655 664
f 665 656 657
f 664 656 665
f 666 657 658
f 665 657 666
f 667 658 659
f 666 658 667
f 668 659 660
f 667 659 668
f 669 660 661
f 668 660 669
f 597 669 596
f 669 662 596
f 669 661 662
f 596 662 592
f 663 600 595
f 600 663 602
f 663 670 602
f 663 664 670
f 671 664 665
f 670 664 671
f 672 665 666
f 671 665 672
f 673 666 667
f 672 666 673
f 674 667 668
f 673 667 674
f 605 674 604
f 674 669 604
f 674 668 669
f 604 669 597
f 670 609 602
f 609 670 612
f 612 670 671
f 612 671 614
f 614 671 672
f 614 672 616
f 616 672 673
f 616 673 618
f 618 673 674
f 618 674 605
