v 35.0 8.0 -9.0
v 35.0 8.0 -9.0
v 35.0 8.0 -9.0
v 35.0 7.7 -8.0
v 34.8 8.0 -8.0
v 35.0 7.7 -7.0
v 34.8 8.0 -7.0
v 35.0 7.7 -6.0
v 34.8 8.0 -6.0
v 35.0 8.0 -5.0
v 35.0 8.0 -5.0
v 35.0 8.0 -5.0
v 35.0 8.0 -9.0
v 35.0 8.2 -8.0
v 35.0 8.3 -7.0
v 35.0 8.3 -6.0
v 35.0 8.0 -5.0
v 35.7 6.0 -8.0
v 36.0 6.0 -8.5
v 36.0 5.7 -8.0
v 36.0 5.5 -7.0
v 35.6 6.0 -7.0
v 36.0 5.6 -6.0
v 35.6 6.0 -6.0
v 36.0 5.8 -5.0
v 35.8 6.0 -5.0
v 36.0 6.0 -4.8
v 35.8 7.0 -10.0
v 36.0 7.0 -10.3
v 36.0 6.7 -10.0
v 36.0 6.4 -9.0
v 35.5 7.0 -9.0
v 35.4 7.0 -8.0
v 35.4 7.0 -7.0
v 35.4 7.0 -6.0
v 35.5 7.0 -5.0
v 36.0 7.0 -4.5
v 35.7 8.0 -10.0
v 36.0 8.0 -10.3
v 36.0 8.0 -4.4
v 36.0 8.3 -10.0
v 36.0 8.6 -9.0
v 36.0 8.7 -8.0
v 35.6 9.0 -7.0
v 36.0 9.0 -7.6
v 35.5 9.0 -6.0
v 35.6 9.0 -5.0
v 36.0 9.0 -4.5
v 36.0 9.4 -7.0
v 36.0 9.7 -6.0
v 35.8 10.0 -5.0
v 36.0 10.0 -5.4
v 36.0 10.0 -4.8
v 35.8 11.0 -11.0
v 36.0 11.0 -11.3
v 36.0 10.7 -11.0
v 36.0 10.7 -10.0
v 35.8 11.0 -10.0
v 36.0 11.0 -9.7
v 36.0 11.0 -5.0
v 36.0 11.0 -5.0
v 36.0 11.0 -5.0
v 35.6 12.0 -11.0
v 36.0 12.0 -11.6
v 35.6 12.0 -10.0
v 36.0 12.0 -9.5
v 36.0 11.0 -5.0
v 35.7 13.0 -12.0
v 36.0 13.0 -12.4
v 36.0 12.5 -12.0
v 35.5 13.0 -11.0
v 35.6 13.0 -10.0
v 36.0 13.0 -9.4
v 35.7 14.0 -13.0
v 36.0 14.0 -13.3
v 36.0 13.6 -13.0
v 35.5 14.0 -12.0
v 35.5 14.0 -11.0
v 35.5 14.0 -10.0
v 36.0 13.5 -9.0
v 35.7 14.0 -9.0
v 36.0 14.0 -8.6
v 35.6 14.0 -6.0
v 36.0 14.0 -6.2
v 36.0 13.9 -6.0
v 36.0 14.0 -5.9
v 35.8 15.0 -13.0
v 36.0 15.0 -13.3
v 35.6 15.0 -12.0
v 35.5 15.0 -11.0
v 35.6 15.0 -10.0
v 35.8 15.0 -9.0
v 36.0 15.0 -8.6
v 36.0 15.0 -7.0
v 36.0 15.0 -7.1
v 36.0 15.0 -7.0
v 35.8 15.0 -6.0
v 36.0 15.0 -5.8
v 36.0 15.3 -13.0
v 36.0 15.6 -12.0
v 35.9 16.0 -11.0
v 36.0 16.0 -11.2
v 36.0 16.0 -10.8
v 36.0 15.6 -10.0
v 36.0 15.3 -9.0
v 36.0 15.0 -7.0
v 36.0 15.2 -6.0
v 36.0 16.1 -11.0
v 36.6 5.0 -8.0
v 37.0 5.0 -8.5
v 37.0 4.6 -8.0
v 37.0 4.5 -7.0
v 36.5 5.0 -7.0
v 37.0 4.6 -6.0
v 36.6 5.0 -6.0
v 37.0 5.0 -5.5
v 36.7 6.0 -10.0
v 37.0 6.0 -10.3
v 37.0 5.7 -10.0
v 37.0 5.4 -9.0
v 36.4 6.0 -9.0
v 37.0 5.4 -5.0
v 37.0 6.0 -4.5
v 36.8 7.0 -11.0
v 37.0 7.0 -11.1
v 37.0 6.8 -11.0
v 37.0 6.7 -4.0
v 36.7 7.0 -4.0
v 37.0 7.0 -3.8
v 37.0 7.5 -11.0
v 37.0 8.0 -10.9
v 36.5 8.0 -4.0
v 37.0 8.0 -3.6
v 36.7 9.0 -11.0
v 37.0 9.0 -11.5
v 37.0 8.2 -11.0
v 36.4 9.0 -10.0
v 36.4 9.0 -9.0
v 36.2 9.0 -8.0
v 36.7 9.0 -4.0
v 37.0 9.0 -3.8
v 36.7 10.0 -12.0
v 37.0 10.0 -12.3
v 37.0 9.6 -12.0
v 36.4 10.0 -11.0
v 36.4 10.0 -10.0
v 36.5 10.0 -9.0
v 36.5 10.0 -8.0
v 36.4 10.0 -7.0
v 36.3 10.0 -6.0
v 37.0 9.3 -4.0
v 37.0 10.0 -4.4
v 36.5 11.0 -12.0
v 37.0 11.0 -12.5
v 36.4 11.0 -9.0
v 36.5 11.0 -8.0
v 36.5 11.0 -7.0
v 36.4 11.0 -6.0
v 37.0 11.0 -4.5
v 36.4 12.0 -12.0
v 37.0 12.0 -12.6
v 36.4 12.0 -9.0
v 36.5 12.0 -8.0
v 36.5 12.0 -7.0
v 36.6 12.0 -6.0
v 36.7 12.0 -5.0
v 37.0 12.0 -4.8
v 36.5 13.0 -13.0
v 37.0 13.0 -13.5
v 37.0 12.4 -13.0
v 36.3 13.0 -9.0
v 36.5 13.0 -8.0
v 36.6 13.0 -7.0
v 37.0 13.0 -6.2
v 37.0 12.8 -6.0
v 37.0 12.3 -5.0
v 36.6 14.0 -14.0
v 37.0 14.0 -14.5
v 37.0 13.5 -14.0
v 36.5 14.0 -8.0
v 36.8 14.0 -7.0
v 37.0 13.3 -6.0
v 37.0 14.0 -5.7
v 36.9 15.0 -15.0
v 37.0 15.0 -15.1
v 37.0 14.9 -15.0
v 36.4 15.0 -14.0
v 36.4 15.0 -8.0
v 37.0 15.0 -5.7
v 37.0 15.1 -15.0
v 36.6 16.0 -14.0
v 37.0 16.0 -14.6
v 36.5 16.0 -13.0
v 36.4 16.0 -12.0
v 36.4 16.0 -10.0
v 36.7 16.0 -9.0
v 37.0 16.0 -8.5
v 37.0 15.6 -8.0
v 37.0 15.5 -7.0
v 37.0 15.4 -6.0
v 36.4 17.0 -15.0
v 37.0 17.0 -15.1
v 37.0 16.9 -15.0
v 36.5 17.0 -14.0
v 37.0 17.0 -13.3
v 37.0 16.8 -13.0
v 37.0 16.5 -12.0
v 37.0 16.6 -11.0
v 37.0 16.4 -10.0
v 37.0 16.3 -9.0
v 37.0 17.1 -15.0
v 36.0 18.0 -14.0
v 37.0 18.0 -14.3
v 37.0 18.0 -13.5
v 37.0 18.2 -14.0
v 37.7 4.0 -8.0
v 38.0 4.0 -8.3
v 38.0 3.7 -8.0
v 38.0 3.5 -7.0
v 37.5 4.0 -7.0
v 38.0 3.7 -6.0
v 37.7 4.0 -6.0
v 38.0 4.0 -5.7
v 37.5 5.0 -9.0
v 38.0 5.0 -9.4
v 38.0 4.6 -9.0
v 38.0 4.7 -5.0
v 37.6 5.0 -5.0
v 38.0 5.0 -4.7
v 38.0 6.0 -10.6
v 38.0 5.5 -10.0
v 38.0 6.0 -4.3
v 38.0 7.0 -11.6
v 38.0 6.4 -11.0
v 38.0 6.4 -4.0
v 38.0 7.0 -3.6
v 37.7 8.0 -12.0
v 38.0 8.0 -12.3
v 38.0 7.6 -12.0
v 37.1 8.0 -11.0
v 38.0 8.0 -3.5
v 37.4 9.0 -12.0
v 38.0 9.0 -12.5
v 38.0 9.0 -3.7
v 37.7 10.0 -13.0
v 38.0 10.0 -13.3
v 38.0 9.7 -13.0
v 38.0 9.4 -4.0
v 38.0 10.0 -4.4
v 37.5 11.0 -13.0
v 38.0 11.0 -13.5
v 38.0 11.0 -4.5
v 37.4 12.0 -13.0
v 38.0 12.0 -13.6
v 38.0 12.0 -4.5
v 37.5 13.0 -14.0
v 38.0 13.0 -14.4
v 38.0 12.5 -14.0
v 37.1 13.0 -6.0
v 37.6 13.0 -5.0
v 38.0 13.0 -4.7
v 37.8 14.0 -15.0
v 38.0 14.0 -15.1
v 38.0 13.8 -15.0
v 38.0 13.5 -5.0
v 38.0 14.0 -5.3
v 38.0 15.0 -15.4
v 38.0 15.0 -5.4
v 38.0 15.6 -15.0
v 38.0 16.0 -14.8
v 37.4 16.0 -8.0
v 37.5 16.0 -7.0
v 37.6 16.0 -6.0
v 38.0 16.0 -5.7
v 37.1 17.0 -15.0
v 38.0 17.0 -14.3
v 37.3 17.0 -13.0
v 37.5 17.0 -12.0
v 37.6 17.0 -11.0
v 38.0 17.0 -10.5
v 38.0 16.7 -10.0
v 38.0 16.6 -9.0
v 38.0 16.5 -8.0
v 38.0 16.5 -7.0
v 38.0 16.3 -6.0
v 37.2 18.0 -14.0
v 38.0 17.3 -14.0
v 38.0 17.4 -13.0
v 38.0 17.4 -12.0
v 38.0 17.3 -11.0
v 38.7 3.0 -7.0
v 39.0 3.0 -7.4
v 39.0 2.7 -7.0
v 39.0 2.8 -6.0
v 38.7 3.0 -6.0
v 39.0 3.0 -5.8
v 39.0 4.0 -8.6
v 39.0 3.4 -8.0
v 39.0 4.0 -5.4
v 39.0 5.0 -9.7
v 39.0 4.4 -9.0
v 39.0 4.5 -5.0
v 39.0 5.0 -4.5
v 38.5 6.0 -11.0
v 39.0 6.0 -11.3
v 39.0 5.7 -11.0
v 39.0 5.3 -10.0
v 39.0 5.6 -4.0
v 38.5 6.0 -4.0
v 39.0 6.0 -3.7
v 38.5 7.0 -12.0
v 39.0 7.0 -12.4
v 39.0 6.6 -12.0
v 39.0 7.0 -3.5
v 39.0 8.0 -12.6
v 39.0 8.0 -3.7
v 39.0 9.0 -12.7
v 38.5 9.0 -4.0
v 39.0 8.5 -4.0
v 39.0 9.0 -4.3
v 39.0 10.0 -13.5
v 39.0 9.3 -13.0
v 39.0 10.0 -4.5
v 38.7 11.0 -14.0
v 39.0 11.0 -14.2
v 39.0 10.7 -14.0
v 39.0 11.0 -4.5
v 38.4 12.0 -14.0
v 39.0 12.0 -14.4
v 39.0 12.0 -4.5
v 39.0 13.0 -14.5
v 39.0 13.0 -4.5
v 38.3 14.0 -15.0
v 39.0 14.0 -14.7
v 38.4 14.0 -5.0
v 39.0 14.0 -4.6
v 39.0 15.0 -15.3
v 39.0 14.5 -15.0
v 38.5 15.0 -5.0
v 39.0 15.0 -4.6
v 38.4 16.0 -15.0
v 39.0 16.0 -15.7
v 38.7 16.0 -5.0
v 39.0 16.0 -4.7
v 39.0 16.3 -15.0
v 39.0 16.6 -14.0
v 38.3 17.0 -14.0
v 38.5 17.0 -13.0
v 39.0 16.7 -13.0
v 39.0 17.0 -12.5
v 38.4 17.0 -10.0
v 38.5 17.0 -9.0
v 38.5 17.0 -8.0
v 38.5 17.0 -7.0
v 38.7 17.0 -6.0
v 39.0 17.0 -5.6
v 39.0 16.4 -5.0
v 39.0 17.3 -12.0
v 39.0 17.5 -11.0
v 39.0 17.4 -10.0
v 39.0 17.4 -9.0
v 39.0 17.4 -8.0
v 39.0 17.4 -7.0
v 39.0 17.3 -6.0
v 39.6 3.0 -8.0
v 40.0 3.0 -8.3
v 40.0 2.7 -8.0
v 40.0 2.5 -7.0
v 40.0 2.8 -6.0
v 40.0 3.0 -5.8
v 39.5 4.0 -9.0
v 40.0 4.0 -9.4
v 40.0 3.6 -9.0
v 40.0 4.0 -5.4
v 39.5 5.0 -10.0
v 40.0 5.0 -10.4
v 40.0 4.6 -10.0
v 40.0 4.5 -5.0
v 40.0 5.0 -4.5
v 40.0 6.0 -11.7
v 40.0 5.5 -11.0
v 40.0 5.5 -4.0
v 40.0 6.0 -3.6
v 39.7 7.0 -13.0
v 40.0 7.0 -13.3
v 40.0 6.7 -13.0
v 40.0 6.3 -12.0
v 40.0 7.0 -3.6
v 39.5 8.0 -13.0
v 40.0 8.0 -13.5
v 39.5 8.0 -4.0
v 40.0 7.6 -4.0
v 40.0 8.0 -4.3
v 39.3 9.0 -13.0
v 40.0 9.0 -13.4
v 40.0 9.0 -4.5
v 40.0 10.0 -13.6
v 40.0 10.0 -4.5
v 40.0 11.0 -14.2
v 40.0 10.7 -14.0
v 40.0 11.0 -4.5
v 40.0 12.0 -14.4
v 40.0 12.0 -4.5
v 40.0 13.0 -14.4
v 40.0 13.0 -4.4
v 40.0 14.0 -14.4
v 40.0 14.0 -4.4
v 39.5 15.0 -15.0
v 40.0 15.0 -14.6
v 40.0 15.0 -4.5
v 40.0 16.0 -15.1
v 40.0 15.8 -15.0
v 40.0 16.0 -4.5
v 40.0 16.1 -15.0
v 40.0 16.5 -14.0
v 40.0 16.6 -13.0
v 39.8 17.0 -12.0
v 40.0 16.9 -12.0
v 40.0 17.0 -11.9
v 39.6 17.0 -5.0
v 40.0 17.0 -4.8
v 40.0 17.4 -11.0
v 40.0 17.5 -10.0
v 40.0 17.5 -9.0
v 40.0 17.5 -8.0
v 40.0 17.5 -7.0
v 40.0 17.5 -6.0
v 40.0 17.2 -5.0
v 41.0 3.0 -8.5
v 41.0 2.6 -8.0
v 41.0 2.6 -7.0
v 40.4 3.0 -6.0
v 41.0 3.0 -6.4
v 41.0 4.0 -9.5
v 41.0 3.5 -9.0
v 41.0 3.4 -6.0
v 41.0 4.0 -5.5
v 41.0 5.0 -10.6
v 41.0 4.5 -10.0
v 41.0 4.5 -5.0
v 41.0 5.0 -4.5
v 40.9 6.0 -13.0
v 41.0 6.0 -13.1
v 41.0 5.9 -13.0
v 41.0 5.6 -12.0
v 40.4 6.0 -12.0
v 41.0 5.3 -11.0
v 41.0 5.5 -4.0
v 41.0 6.0 -3.6
v 41.0 7.0 -13.6
v 41.0 7.0 -3.6
v 40.8 8.0 -14.0
v 41.0 8.0 -14.1
v 41.0 7.8 -14.0
v 41.0 7.5 -4.0
v 41.0 8.0 -4.4
v 41.0 8.3 -14.0
v 41.0 9.0 -13.7
v 41.0 9.0 -4.5
v 41.0 10.0 -13.6
v 41.0 10.0 -4.5
v 40.5 11.0 -14.0
v 41.0 11.0 -13.7
v 41.0 11.0 -4.5
v 40.5 12.0 -14.0
v 41.0 12.0 -13.6
v 41.0 12.0 -4.4
v 40.5 13.0 -14.0
v 41.0 13.0 -13.6
v 41.0 12.7 -4.0
v 40.7 13.0 -4.0
v 41.0 13.0 -3.8
v 40.5 14.0 -14.0
v 41.0 14.0 -13.6
v 40.7 14.0 -4.0
v 41.0 14.0 -3.8
v 40.7 15.0 -14.0
v 41.0 15.0 -13.7
v 41.0 14.3 -4.0
v 41.0 15.0 -4.4
v 40.1 16.0 -15.0
v 41.0 16.0 -14.2
v 41.0 15.7 -14.0
v 41.0 16.0 -4.5
v 41.0 16.2 -14.0
v 40.6 17.0 -13.0
v 41.0 17.0 -13.3
v 40.1 17.0 -12.0
v 41.0 17.0 -4.7
v 41.0 17.3 -13.0
v 41.0 17.9 -12.0
v 41.0 17.7 -11.0
v 41.0 17.6 -10.0
v 41.0 17.5 -9.0
v 41.0 17.5 -8.0
v 41.0 17.5 -7.0
v 41.0 17.5 -6.0
v 41.0 17.3 -5.0
v 42.0 3.0 -8.3
v 42.0 2.8 -8.0
v 42.0 2.8 -7.0
v 42.0 3.0 -6.7
v 42.0 4.0 -9.4
v 42.0 3.6 -9.0
v 42.0 3.5 -6.0
v 42.0 4.0 -5.4
v 41.5 5.0 -11.0
v 42.0 5.0 -11.4
v 42.0 4.7 -11.0
v 42.0 4.4 -10.0
v 42.0 4.4 -5.0
v 42.0 5.0 -4.3
v 41.1 6.0 -13.0
v 42.0 6.0 -12.6
v 42.0 5.5 -12.0
v 42.0 5.4 -4.0
v 42.0 6.0 -3.6
v 42.0 7.0 -13.5
v 42.0 6.4 -13.0
v 42.0 7.0 -3.6
v 42.0 8.0 -14.4
v 42.0 7.6 -14.0
v 42.0 7.6 -4.0
v 42.0 8.0 -4.3
v 41.4 9.0 -14.0
v 42.0 9.0 -14.4
v 42.0 9.0 -4.5
v 41.5 10.0 -14.0
v 42.0 10.0 -14.4
v 42.0 10.0 -4.5
v 41.5 11.0 -14.0
v 42.0 11.0 -14.2
v 42.0 11.0 -4.5
v 42.0 11.3 -14.0
v 42.0 12.0 -13.6
v 42.0 12.0 -4.4
v 42.0 13.0 -13.4
v 42.0 12.6 -4.0
v 42.0 13.0 -3.7
v 42.0 13.7 -13.0
v 41.8 14.0 -13.0
v 42.0 14.0 -12.8
v 42.0 14.0 -3.6
v 41.7 15.0 -13.0
v 42.0 15.0 -12.7
v 42.0 14.5 -4.0
v 42.0 15.0 -4.4
v 41.3 16.0 -14.0
v 41.9 16.0 -13.0
v 42.0 16.0 -12.9
v 42.0 16.0 -4.6
v 42.0 16.2 -13.0
v 42.0 17.0 -13.3
v 42.0 17.0 -4.8
v 42.0 17.2 -13.0
v 42.0 17.7 -12.0
v 41.5 18.0 -11.0
v 42.0 18.0 -11.6
v 41.6 18.0 -10.0
v 42.0 18.0 -9.7
v 42.0 17.6 -9.0
v 42.0 17.5 -8.0
v 42.0 17.5 -7.0
v 42.0 17.4 -6.0
v 42.0 17.2 -5.0
v 42.0 18.8 -11.0
v 42.0 18.3 -10.0
v 42.3 3.0 -8.0
v 42.3 3.0 -7.0
v 42.5 4.0 -9.0
v 43.0 4.0 -8.4
v 43.0 3.7 -8.0
v 43.0 3.9 -7.0
v 43.0 3.5 -6.0
v 43.0 3.6 -5.0
v 42.5 4.0 -5.0
v 43.0 4.0 -4.5
v 43.0 5.0 -11.3
v 43.0 4.8 -11.0
v 43.0 4.5 -10.0
v 43.0 4.3 -9.0
v 43.0 4.4 -4.0
v 42.4 5.0 -4.0
v 43.0 5.0 -3.0
v 43.0 5.0 -3.0
v 43.0 5.0 -3.0
v 43.0 6.0 -12.3
v 43.0 5.7 -12.0
v 43.0 5.1 -3.0
v 43.0 6.0 -3.3
v 43.0 7.0 -13.3
v 43.0 6.7 -13.0
v 43.0 7.0 -3.5
v 43.0 8.0 -14.2
v 43.0 7.7 -14.0
v 42.5 8.0 -4.0
v 43.0 8.0 -3.7
v 43.0 9.0 -14.4
v 43.0 8.4 -4.0
v 43.0 9.0 -4.4
v 43.0 10.0 -14.4
v 43.0 10.0 -4.6
v 43.0 11.0 -14.2
v 43.0 11.0 -4.6
v 43.0 11.3 -14.0
v 43.0 12.0 -13.6
v 43.0 12.0 -4.5
v 43.0 13.0 -13.4
v 42.5 13.0 -4.0
v 43.0 13.0 -4.3
v 43.0 13.6 -13.0
v 43.0 14.0 -12.8
v 43.0 13.5 -4.0
v 43.0 14.0 -3.8
v 42.8 15.0 -14.0
v 43.0 15.0 -14.2
v 43.0 14.5 -14.0
v 43.0 14.5 -13.0
v 42.6 15.0 -13.0
v 43.0 14.3 -4.0
v 43.0 15.0 -4.5
v 42.9 16.0 -14.0
v 43.0 16.0 -14.1
v 42.1 16.0 -13.0
v 42.8 16.0 -5.0
v 43.0 15.8 -5.0
v 43.0 16.0 -5.2
v 43.0 16.1 -14.0
v 43.0 17.0 -13.3
v 43.0 17.0 -12.3
v 42.9 17.0 -12.0
v 43.0 16.5 -12.0
v 43.0 17.0 -11.9
v 42.6 17.0 -6.0
v 43.0 16.6 -6.0
v 43.0 17.0 -6.5
v 42.2 17.0 -5.0
v 43.0 17.2 -13.0
v 42.5 18.0 -11.0
v 43.0 17.7 -11.0
v 43.0 18.0 -10.5
v 43.0 17.6 -9.0
v 43.0 18.0 -9.6
v 43.0 17.4 -8.0
v 43.0 17.3 -7.0
v 43.0 18.3 -10.0
v 43.7 3.0 -6.0
v 44.0 3.0 -6.3
v 44.0 2.7 -6.0
v 44.0 2.6 -5.0
v 43.6 3.0 -5.0
v 44.0 3.0 -4.5
v 43.4 4.0 -8.0
v 44.0 4.0 -7.5
v 44.0 3.6 -7.0
v 44.0 3.5 -4.0
v 43.5 4.0 -4.0
v 44.0 4.0 -3.6
v 43.3 5.0 -11.0
v 44.0 5.0 -10.3
v 44.0 4.8 -10.0
v 44.0 4.6 -9.0
v 44.0 4.3 -8.0
v 44.0 4.6 -3.0
v 44.0 5.0 -2.7
v 43.2 6.0 -12.0
v 43.6 6.0 -11.0
v 44.0 6.0 -10.6
v 43.5 6.0 -3.0
v 44.0 6.0 -2.7
v 43.3 7.0 -13.0
v 43.6 7.0 -12.0
v 43.8 7.0 -11.0
v 44.0 7.0 -10.7
v 44.0 6.4 -3.0
v 44.0 7.0 -3.4
v 43.3 8.0 -14.0
v 44.0 8.0 -13.1
v 44.0 7.9 -13.0
v 44.0 7.6 -12.0
v 44.0 7.3 -11.0
v 44.0 8.0 -3.8
v 43.4 9.0 -14.0
v 44.0 8.2 -13.0
v 43.7 9.0 -13.0
v 43.8 9.0 -12.0
v 44.0 8.5 -12.0
v 44.0 9.0 -11.7
v 44.0 8.3 -4.0
v 44.0 9.0 -4.6
v 43.4 10.0 -14.0
v 44.0 10.0 -13.2
v 44.0 9.7 -13.0
v 44.0 10.0 -12.5
v 43.9 10.0 -12.0
v 44.0 10.0 -11.8
v 43.6 10.0 -5.0
v 44.0 9.5 -5.0
v 44.0 10.0 -5.3
v 43.3 11.0 -14.0
v 44.0 11.0 -13.4
v 44.0 10.2 -12.0
v 43.7 11.0 -5.0
v 44.0 11.0 -5.2
v 44.0 12.0 -13.3
v 44.0 11.3 -5.0
v 44.0 12.0 -4.6
v 44.0 12.4 -13.0
v 43.5 13.0 -13.0
v 44.0 13.0 -12.6
v 44.0 13.0 -4.4
v 44.0 14.0 -12.4
v 44.0 13.7 -4.0
v 44.0 14.0 -3.8
v 43.2 15.0 -14.0
v 43.3 15.0 -13.0
v 44.0 15.0 -12.5
v 44.0 14.3 -4.0
v 44.0 15.0 -4.4
v 43.1 16.0 -14.0
v 44.0 16.0 -13.3
v 44.0 15.6 -13.0
v 43.6 16.0 -5.0
v 44.0 16.0 -4.9
v 44.0 17.0 -13.2
v 43.1 17.0 -12.0
v 43.9 17.0 -8.0
v 44.0 16.9 -8.0
v 44.0 17.0 -8.1
v 43.4 17.0 -7.0
v 44.0 16.6 -7.0
v 44.0 16.5 -6.0
v 44.0 16.1 -5.0
v 44.0 17.2 -13.0
v 44.0 17.4 -12.0
v 44.0 17.6 -11.0
v 44.0 18.0 -10.2
v 44.0 17.6 -9.0
v 44.0 18.0 -9.8
v 44.0 18.1 -10.0
v 44.7 2.0 -5.0
v 45.0 2.0 -5.3
v 45.0 1.8 -5.0
v 45.0 1.7 -4.0
v 44.8 2.0 -4.0
v 45.0 2.0 -3.8
v 45.0 3.0 -6.4
v 45.0 2.6 -6.0
v 44.4 3.0 -4.0
v 45.0 3.0 -3.6
v 45.0 4.0 -7.4
v 45.0 3.6 -7.0
v 45.0 4.0 -3.3
v 44.3 5.0 -10.0
v 44.6 5.0 -9.0
v 45.0 5.0 -8.6
v 45.0 4.5 -8.0
v 45.0 4.4 -3.0
v 45.0 5.0 -2.6
v 45.0 6.0 -10.1
v 45.0 5.9 -10.0
v 45.0 5.4 -9.0
v 45.0 6.0 -2.6
v 45.0 6.2 -10.0
v 44.8 7.0 -10.0
v 45.0 7.0 -9.8
v 45.0 6.5 -3.0
v 45.0 7.0 -3.5
v 44.1 8.0 -13.0
v 44.2 8.0 -12.0
v 44.5 8.0 -11.0
v 45.0 8.0 -10.4
v 45.0 7.4 -10.0
v 44.8 8.0 -5.0
v 45.0 7.8 -5.0
v 45.0 8.0 -5.2
v 44.3 8.0 -4.0
v 45.0 7.5 -4.0
v 44.5 9.0 -11.0
v 45.0 9.0 -10.5
v 44.4 9.0 -5.0
v 45.0 9.0 -5.4
v 44.1 10.0 -13.0
v 44.5 10.0 -11.0
v 45.0 10.0 -10.5
v 45.0 10.0 -5.5
v 44.3 11.0 -13.0
v 44.4 11.0 -12.0
v 44.7 11.0 -11.0
v 45.0 11.0 -10.7
v 45.0 11.0 -5.4
v 44.2 12.0 -13.0
v 44.6 12.0 -12.0
v 45.0 12.0 -11.4
v 45.0 11.5 -11.0
v 45.0 11.7 -5.0
v 45.0 12.0 -4.7
v 44.5 13.0 -12.0
v 45.0 13.0 -11.5
v 45.0 13.0 -4.5
v 44.5 14.0 -12.0
v 45.0 14.0 -11.5
v 45.0 13.9 -4.0
v 45.0 14.0 -3.9
v 44.5 15.0 -12.0
v 45.0 15.0 -11.6
v 45.0 14.1 -4.0
v 45.0 15.0 -4.6
v 44.3 16.0 -13.0
v 45.0 16.0 -12.3
v 45.0 15.6 -12.0
v 44.2 16.0 -5.0
v 45.0 15.5 -5.0
v 45.0 16.0 -5.4
v 44.2 17.0 -13.0
v 45.0 17.0 -12.2
v 44.1 17.0 -8.0
v 45.0 17.0 -7.3
v 45.0 16.8 -7.0
v 45.0 16.5 -6.0
v 45.0 17.2 -12.0
v 45.0 17.4 -11.0
v 44.2 18.0 -10.0
v 45.0 17.6 -10.0
v 44.6 18.0 -9.0
v 45.0 18.0 -9.4
v 44.8 18.0 -8.0
v 45.0 18.0 -7.8
v 45.0 18.3 -9.0
v 45.0 18.2 -8.0
v 46.0 1.0 -4.0
v 46.0 1.0 -4.0
v 46.0 1.0 -4.0
v 46.0 1.0 -3.0
v 46.0 1.0 -3.0
v 46.0 1.0 -3.0
v 46.0 2.0 -5.2
v 46.0 1.8 -5.0
v 46.0 1.0 -3.0
v 46.0 2.0 -3.5
v 45.5 3.0 -6.0
v 46.0 3.0 -5.6
v 46.0 3.0 -3.3
v 45.5 4.0 -7.0
v 46.0 4.0 -6.5
v 46.0 3.5 -6.0
v 46.0 3.4 -3.0
v 45.4 4.0 -3.0
v 46.0 4.0 -2.2
v 46.0 5.0 -8.0
v 46.0 5.0 -8.0
v 46.0 4.6 -7.0
v 46.0 5.0 -2.5
v 45.1 6.0 -10.0
v 45.4 6.0 -9.0
v 45.7 6.0 -8.0
v 46.0 5.6 -7.0
v 45.8 6.0 -7.0
v 46.0 6.0 -6.7
v 46.0 6.0 -2.7
v 45.6 7.0 -9.0
v 46.0 7.0 -8.3
v 46.0 6.7 -8.0
v 46.0 7.0 -7.4
v 45.9 7.0 -7.0
v 46.0 7.0 -6.8
v 46.0 6.4 -3.0
v 46.0 7.0 -3.6
v 45.4 8.0 -10.0
v 46.0 8.0 -9.3
v 46.0 7.6 -9.0
v 46.0 7.1 -7.0
v 46.0 7.7 -5.0
v 46.0 8.0 -5.3
v 46.0 7.4 -4.0
v 45.5 9.0 -10.0
v 46.0 9.0 -9.5
v 46.0 9.0 -5.5
v 45.6 10.0 -10.0
v 46.0 10.0 -9.6
v 46.0 10.0 -5.5
v 46.0 11.0 -10.1
v 46.0 10.9 -10.0
v 46.0 11.0 -5.6
v 45.3 12.0 -11.0
v 46.0 11.1 -10.0
v 45.6 12.0 -10.0
v 45.9 12.0 -9.0
v 46.0 11.8 -9.0
v 46.0 12.0 -8.8
v 45.3 12.0 -5.0
v 46.0 12.0 -5.6
v 45.4 13.0 -11.0
v 45.6 13.0 -10.0
v 46.0 13.0 -9.4
v 46.0 12.3 -9.0
v 45.6 13.0 -5.0
v 46.0 13.0 -5.4
v 45.4 14.0 -11.0
v 45.6 14.0 -10.0
v 46.0 14.0 -9.4
v 46.0 13.7 -5.0
v 45.1 14.0 -4.0
v 46.0 14.0 -4.8
v 45.4 15.0 -11.0
v 45.6 15.0 -10.0
v 46.0 15.0 -9.4
v 45.5 15.0 -5.0
v 46.0 14.3 -5.0
v 46.0 15.0 -5.4
v 45.3 16.0 -12.0
v 45.5 16.0 -11.0
v 45.5 16.0 -10.0
v 46.0 15.6 -9.0
v 45.8 16.0 -9.0
v 46.0 16.0 -8.8
v 46.0 16.0 -5.5
v 45.2 17.0 -12.0
v 45.4 17.0 -11.0
v 45.5 17.0 -10.0
v 46.0 17.0 -9.3
v 46.0 16.3 -9.0
v 45.5 17.0 -7.0
v 45.8 17.0 -6.0
v 46.0 17.0 -5.8
v 46.0 18.0 -9.2
v 46.0 17.3 -7.0
v 46.0 18.0 -7.8
v 46.0 17.2 -6.0
v 46.0 18.2 -9.0
v 46.0 18.2 -8.0
v 46.0 1.0 -4.0
v 46.0 1.0 -3.0
v 46.2 2.0 -5.0
v 46.4 2.0 -4.0
v 47.0 2.0 -3.1
v 47.0 1.9 -3.0
v 46.9 2.0 -3.0
v 46.9 2.0 -2.0
v 47.0 1.6 -2.0
v 47.0 2.0 -1.9
v 46.4 3.0 -5.0
v 46.6 3.0 -4.0
v 46.7 2.3 -3.2
v 47.0 3.0 -3.4
v 46.6 3.0 -3.0
v 46.8 3.0 -2.0
v 47.0 3.0 -1.6
v 46.3 4.0 -6.0
v 46.7 4.0 -5.0
v 47.0 4.0 -4.5
v 47.0 3.5 -4.0
v 47.0 3.3 -2.0
v 47.0 4.0 -2.5
v 46.3 5.0 -7.0
v 46.6 5.0 -6.0
v 47.0 5.0 -5.4
v 47.0 4.5 -5.0
v 47.0 5.0 -2.7
v 46.5 6.0 -6.0
v 47.0 6.0 -5.5
v 46.4 6.0 -3.0
v 47.0 5.4 -3.0
v 47.0 6.0 -3.5
v 46.2 7.0 -8.0
v 46.6 7.0 -6.0
v 47.0 7.0 -5.5
v 47.0 7.0 -3.8
v 46.3 8.0 -9.0
v 46.5 8.0 -8.0
v 46.5 8.0 -7.0
v 47.0 8.0 -6.3
v 47.0 7.6 -6.0
v 46.8 8.0 -5.0
v 47.0 8.0 -4.9
v 47.0 7.2 -4.0
v 46.4 9.0 -9.0
v 46.5 9.0 -8.0
v 46.7 9.0 -7.0
v 47.0 9.0 -6.4
v 47.0 8.1 -5.0
v 47.0 9.0 -5.7
v 46.4 10.0 -9.0
v 46.6 10.0 -8.0
v 47.0 10.0 -7.2
v 47.0 9.7 -7.0
v 47.0 10.0 -5.8
v 46.1 11.0 -10.0
v 46.4 11.0 -9.0
v 46.5 11.0 -8.0
v 47.0 10.2 -7.0
v 46.6 11.0 -7.0
v 46.5 11.0 -6.0
v 47.0 10.2 -6.0
v 46.4 12.0 -8.0
v 46.5 12.0 -7.0
v 46.4 12.0 -6.0
v 46.3 13.0 -9.0
v 46.4 13.0 -8.0
v 46.5 13.0 -7.0
v 46.4 13.0 -6.0
v 46.3 14.0 -9.0
v 46.1 14.0 -8.0
v 46.4 14.0 -7.0
v 46.5 14.0 -6.0
v 46.1 14.0 -5.0
v 46.3 15.0 -9.0
v 46.4 15.0 -8.0
v 46.5 15.0 -7.0
v 46.5 15.0 -6.0
v 46.4 16.0 -8.0
v 46.6 16.0 -7.0
v 47.0 16.0 -6.0
v 47.0 16.0 -6.0
v 47.0 16.0 -6.0
v 46.3 17.0 -9.0
v 46.4 17.0 -8.0
v 46.3 17.0 -7.0
v 47.0 16.2 -6.0
v 46.8 17.0 -6.0
v 46.2 18.0 -9.0
v 46.2 18.0 -8.0
v 47.1 2.0 -3.0
v 47.1 2.0 -2.0
v 47.2 3.0 -3.0
v 47.2 3.0 -2.0
v 47.3 4.0 -4.0
v 47.3 4.0 -3.0
v 47.3 5.0 -5.0
v 47.5 5.0 -4.0
v 47.2 5.0 -3.0
v 47.4 6.0 -5.0
v 47.4 6.0 -4.0
v 47.3 7.0 -5.0
v 47.2 7.0 -4.0
v 47.2 8.0 -6.0
v 47.1 8.0 -5.0
v 47.2 9.0 -6.0
v 47.1 10.0 -7.0
v 47.2 10.0 -6.0
v 47.0 16.0 -6.0
f 3 2 1
f 5 4 1
f 1 4 3
f 7 6 5
f 5 6 4
f 9 8 7
f 7 8 6
f 11 10 9
f 9 10 8
f 11 12 10
f 2 13 1
f 1 13 5
f 5 13 14
f 5 14 7
f 7 14 15
f 7 15 9
f 9 15 16
f 9 16 11
f 11 16 17
f 11 17 12
f 20 19 18
f 22 21 18
f 18 21 20
f 24 23 22
f 22 23 21
f 26 25 24
f 24 25 23
f 26 27 25
f 30 29 28
f 32 31 28
f 28 31 30
f 31 32 19
f 32 18 19
f 32 33 18
f 18 34 22
f 18 33 34
f 22 35 24
f 22 34 35
f 24 36 26
f 24 35 36
f 27 26 37
f 37 26 36
f 28 29 38
f 38 29 39
f 38 2 3
f 32 38 3
f 28 38 32
f 32 3 4
f 32 4 33
f 33 4 6
f 33 6 34
f 34 6 8
f 34 8 35
f 35 8 10
f 35 10 36
f 10 12 36
f 12 37 36
f 12 40 37
f 39 41 38
f 38 41 2
f 41 13 2
f 41 42 13
f 13 43 14
f 42 43 13
f 43 45 44
f 15 43 44
f 14 43 15
f 46 16 15
f 46 15 44
f 47 17 16
f 47 16 46
f 47 48 17
f 48 12 17
f 48 40 12
f 45 49 44
f 44 49 46
f 46 49 50
f 52 51 50
f 51 46 50
f 51 47 46
f 48 47 53
f 53 47 51
f 56 55 54
f 58 57 54
f 54 57 56
f 58 59 57
f 51 52 60
f 60 52 61
f 53 51 62
f 62 51 60
f 54 55 63
f 63 55 64
f 54 65 58
f 54 63 65
f 59 58 66
f 66 58 65
f 61 67 60
f 60 67 62
f 70 69 68
f 70 68 64
f 68 63 64
f 68 71 63
f 63 72 65
f 63 71 72
f 66 65 73
f 73 65 72
f 76 75 74
f 76 74 69
f 74 68 69
f 74 77 68
f 68 78 71
f 68 77 78
f 71 79 72
f 71 78 79
f 73 72 80
f 72 81 80
f 72 79 81
f 81 82 80
f 85 84 83
f 83 86 85
f 74 75 87
f 87 75 88
f 74 89 77
f 74 87 89
f 77 90 78
f 77 89 90
f 78 91 79
f 78 90 91
f 79 92 81
f 79 91 92
f 82 81 93
f 93 81 92
f 96 95 94
f 96 94 84
f 94 83 84
f 94 97 83
f 86 83 98
f 98 83 97
f 88 99 87
f 87 99 89
f 89 99 100
f 102 101 100
f 101 89 100
f 101 90 89
f 104 91 103
f 91 101 103
f 91 90 101
f 91 104 92
f 92 104 105
f 92 105 93
f 95 106 94
f 94 106 97
f 97 106 107
f 97 107 98
f 102 108 101
f 101 108 103
f 111 110 109
f 113 112 109
f 109 112 111
f 115 114 113
f 113 114 112
f 115 116 114
f 119 118 117
f 121 120 117
f 117 120 119
f 120 121 110
f 110 121 109
f 121 19 109
f 19 20 109
f 109 20 21
f 109 21 113
f 113 21 23
f 113 23 115
f 122 116 115
f 23 122 115
f 25 122 23
f 25 27 122
f 122 27 123
f 126 125 124
f 126 124 118
f 118 124 117
f 124 29 117
f 29 30 117
f 117 30 31
f 117 31 121
f 121 31 19
f 37 128 127
f 123 37 127
f 27 37 123
f 128 129 127
f 125 130 124
f 29 124 130
f 131 29 130
f 39 29 131
f 40 132 128
f 40 128 37
f 129 128 133
f 133 128 132
f 136 135 134
f 134 137 41
f 131 134 41
f 39 131 41
f 134 131 136
f 138 42 41
f 138 41 137
f 139 43 42
f 139 42 138
f 139 45 43
f 48 140 132
f 48 132 40
f 133 132 141
f 141 132 140
f 144 143 142
f 144 142 135
f 142 134 135
f 142 145 134
f 134 146 137
f 134 145 146
f 137 147 138
f 137 146 147
f 138 148 139
f 138 147 148
f 149 49 45
f 139 149 45
f 148 149 139
f 150 50 49
f 150 49 149
f 150 52 50
f 152 151 140
f 48 152 140
f 53 152 48
f 140 151 141
f 142 143 153
f 153 143 154
f 153 55 56
f 145 153 56
f 142 153 145
f 145 56 57
f 145 57 146
f 146 57 59
f 155 146 59
f 147 146 155
f 147 156 148
f 147 155 156
f 148 157 149
f 148 156 157
f 149 158 150
f 149 157 158
f 158 61 52
f 158 52 150
f 62 152 53
f 62 159 152
f 153 154 160
f 160 154 161
f 160 64 55
f 160 55 153
f 66 162 155
f 66 155 59
f 155 163 156
f 155 162 163
f 156 164 157
f 156 163 164
f 157 165 158
f 157 164 165
f 166 67 61
f 158 166 61
f 165 166 158
f 166 167 67
f 167 62 67
f 167 159 62
f 170 169 168
f 170 168 161
f 161 168 160
f 168 69 160
f 69 70 160
f 160 70 64
f 73 171 162
f 73 162 66
f 162 172 163
f 162 171 172
f 163 173 164
f 163 172 173
f 175 165 174
f 165 173 174
f 165 164 173
f 165 175 166
f 166 175 176
f 166 176 167
f 179 178 177
f 179 177 169
f 169 177 168
f 177 75 168
f 75 76 168
f 168 76 69
f 80 171 73
f 171 80 82
f 180 171 82
f 172 171 180
f 172 181 173
f 172 180 181
f 85 182 84
f 182 173 84
f 173 181 84
f 173 182 174
f 85 86 182
f 182 86 183
f 186 185 184
f 186 184 178
f 184 177 178
f 184 187 177
f 187 88 75
f 187 75 177
f 93 188 180
f 93 180 82
f 188 95 96
f 181 188 96
f 180 188 181
f 181 96 84
f 98 183 86
f 98 189 183
f 185 190 184
f 192 191 190
f 191 184 190
f 191 187 184
f 193 99 88
f 187 193 88
f 191 193 187
f 194 100 99
f 194 99 193
f 194 102 100
f 103 195 104
f 196 105 104
f 196 104 195
f 196 197 105
f 105 197 93
f 197 198 93
f 198 188 93
f 188 198 95
f 198 106 95
f 198 199 106
f 106 200 107
f 199 200 106
f 98 107 189
f 189 107 200
f 203 202 201
f 203 201 192
f 201 191 192
f 201 204 191
f 206 193 205
f 193 204 205
f 193 191 204
f 193 206 194
f 194 206 207
f 194 207 102
f 207 108 102
f 207 208 108
f 103 108 195
f 108 209 195
f 108 208 209
f 195 209 196
f 196 209 210
f 196 210 197
f 202 211 201
f 213 212 211
f 212 201 211
f 212 204 201
f 205 204 214
f 214 204 212
f 213 215 212
f 212 215 214
f 218 217 216
f 220 219 216
f 216 219 218
f 222 221 220
f 220 221 219
f 222 223 221
f 226 225 224
f 226 224 217
f 217 224 216
f 224 110 216
f 110 111 216
f 216 111 112
f 216 112 220
f 220 112 114
f 220 114 222
f 228 227 116
f 116 227 114
f 227 223 114
f 223 222 114
f 228 229 227
f 231 230 119
f 119 230 118
f 120 224 225
f 231 120 225
f 119 120 231
f 224 120 110
f 122 228 116
f 122 123 228
f 123 229 228
f 123 232 229
f 234 233 126
f 126 233 125
f 126 118 230
f 126 230 234
f 235 232 123
f 235 123 127
f 127 129 235
f 235 129 236
f 239 238 237
f 237 240 130
f 233 237 130
f 125 233 130
f 237 233 239
f 240 131 130
f 133 236 129
f 133 241 236
f 237 238 242
f 242 238 243
f 242 135 136
f 240 242 136
f 237 242 240
f 240 136 131
f 141 241 133
f 141 244 241
f 247 246 245
f 247 245 243
f 243 245 242
f 245 143 242
f 143 144 242
f 242 144 135
f 249 248 151
f 249 151 152
f 141 151 244
f 244 151 248
f 245 246 250
f 250 246 251
f 250 154 143
f 250 143 245
f 159 249 152
f 159 252 249
f 250 251 253
f 253 251 254
f 253 161 154
f 253 154 250
f 167 252 159
f 167 255 252
f 258 257 256
f 258 256 254
f 254 256 253
f 256 169 253
f 169 170 253
f 253 170 161
f 174 259 175
f 260 176 175
f 260 175 259
f 260 261 176
f 261 167 176
f 261 255 167
f 264 263 262
f 264 262 257
f 257 262 256
f 262 178 256
f 178 179 256
f 256 179 169
f 182 259 174
f 260 259 265
f 259 183 265
f 183 266 265
f 183 259 182
f 260 265 261
f 262 263 186
f 263 185 186
f 263 267 185
f 262 186 178
f 189 266 183
f 189 268 266
f 267 269 185
f 185 269 190
f 192 190 269
f 192 269 270
f 197 271 198
f 272 199 198
f 272 198 271
f 273 200 199
f 273 199 272
f 273 274 200
f 274 189 200
f 274 268 189
f 275 202 203
f 276 275 203
f 192 276 203
f 270 276 192
f 205 277 206
f 278 207 206
f 278 206 277
f 279 208 207
f 279 207 278
f 208 279 280
f 281 208 280
f 209 208 281
f 209 282 210
f 281 282 209
f 197 210 271
f 210 283 271
f 210 282 283
f 271 283 272
f 272 283 284
f 272 284 273
f 273 284 285
f 273 285 274
f 275 211 202
f 287 286 213
f 287 213 211
f 276 287 211
f 275 276 211
f 287 288 277
f 214 287 277
f 205 214 277
f 286 287 214
f 277 288 278
f 278 288 289
f 278 289 279
f 279 289 290
f 279 290 280
f 286 215 213
f 215 286 214
f 293 292 291
f 295 294 291
f 291 294 293
f 295 296 294
f 298 297 218
f 218 297 217
f 219 291 292
f 298 219 292
f 218 219 298
f 291 219 221
f 291 221 295
f 221 223 295
f 223 296 295
f 223 299 296
f 301 300 226
f 226 300 225
f 226 217 297
f 226 297 301
f 302 299 223
f 302 223 227
f 227 229 302
f 302 229 303
f 306 305 304
f 230 231 304
f 231 306 304
f 231 307 306
f 231 225 300
f 231 300 307
f 232 309 308
f 303 232 308
f 229 232 303
f 309 310 308
f 313 312 311
f 313 311 305
f 305 311 304
f 311 233 304
f 233 234 304
f 304 234 230
f 235 309 232
f 235 236 309
f 236 310 309
f 236 314 310
f 311 312 239
f 312 238 239
f 312 315 238
f 311 239 233
f 241 314 236
f 241 316 314
f 315 243 238
f 317 243 315
f 320 319 318
f 319 316 318
f 316 244 318
f 316 241 244
f 322 321 247
f 247 321 246
f 247 243 317
f 247 317 322
f 320 318 248
f 249 320 248
f 323 320 249
f 248 318 244
f 326 325 324
f 321 326 324
f 251 321 324
f 246 321 251
f 252 323 249
f 252 327 323
f 324 325 328
f 328 325 329
f 328 254 251
f 328 251 324
f 255 327 252
f 255 330 327
f 328 329 258
f 329 257 258
f 329 331 257
f 328 258 254
f 261 330 255
f 261 332 330
f 333 263 264
f 334 333 264
f 257 334 264
f 331 334 257
f 266 335 265
f 335 336 265
f 336 261 265
f 336 332 261
f 338 337 333
f 337 263 333
f 337 267 263
f 338 333 334
f 268 339 335
f 268 335 266
f 336 335 340
f 340 335 339
f 269 267 341
f 267 342 341
f 267 337 342
f 341 270 269
f 274 343 339
f 274 339 268
f 340 339 344
f 344 339 343
f 342 345 341
f 276 270 341
f 346 276 341
f 345 346 341
f 276 346 347
f 349 348 347
f 349 347 346
f 350 348 349
f 280 351 281
f 352 282 281
f 352 281 351
f 353 283 282
f 353 282 352
f 354 284 283
f 354 283 353
f 355 285 284
f 355 284 354
f 355 356 285
f 285 356 274
f 356 357 274
f 357 343 274
f 343 357 344
f 347 287 276
f 287 347 288
f 288 347 348
f 350 358 348
f 358 288 348
f 358 289 288
f 289 359 290
f 358 359 289
f 280 290 351
f 290 360 351
f 290 359 360
f 351 360 352
f 352 360 361
f 352 361 353
f 353 361 362
f 353 362 354
f 354 362 363
f 354 363 355
f 355 363 364
f 355 364 356
f 367 366 365
f 292 293 365
f 293 367 365
f 293 368 367
f 369 293 294
f 369 368 293
f 294 296 369
f 369 296 370
f 373 372 371
f 373 371 366
f 366 371 365
f 371 297 365
f 297 298 365
f 365 298 292
f 299 370 296
f 299 374 370
f 377 376 375
f 377 375 372
f 372 375 371
f 375 300 371
f 300 301 371
f 371 301 297
f 378 374 299
f 378 299 302
f 302 303 378
f 378 303 379
f 381 380 306
f 306 380 305
f 307 375 376
f 381 307 376
f 306 307 381
f 375 307 300
f 382 379 303
f 382 303 308
f 308 310 382
f 382 310 383
f 386 385 384
f 312 313 384
f 313 386 384
f 313 387 386
f 313 305 380
f 313 380 387
f 314 383 310
f 314 388 383
f 384 385 389
f 389 385 390
f 389 315 312
f 389 312 384
f 393 392 391
f 392 388 391
f 388 316 391
f 388 314 316
f 389 390 394
f 394 390 395
f 394 317 315
f 394 315 389
f 393 391 319
f 320 393 319
f 396 393 320
f 319 391 316
f 394 395 322
f 395 321 322
f 395 397 321
f 394 322 317
f 323 396 320
f 323 398 396
f 400 399 326
f 326 399 325
f 326 321 397
f 326 397 400
f 327 398 323
f 327 401 398
f 399 329 325
f 402 329 399
f 330 401 327
f 330 403 401
f 402 331 329
f 404 331 402
f 332 403 330
f 332 405 403
f 404 334 331
f 406 334 404
f 336 405 332
f 336 407 405
f 408 337 338
f 409 408 338
f 334 409 338
f 406 409 334
f 340 407 336
f 340 410 407
f 412 411 408
f 411 337 408
f 411 342 337
f 412 408 409
f 344 410 340
f 344 413 410
f 411 414 342
f 342 414 345
f 345 415 346
f 414 415 345
f 346 416 349
f 415 416 346
f 418 417 350
f 349 418 350
f 416 418 349
f 419 417 418
f 356 420 357
f 420 421 357
f 421 344 357
f 421 413 344
f 417 358 350
f 419 422 417
f 422 358 417
f 422 359 358
f 359 423 360
f 422 423 359
f 360 424 361
f 423 424 360
f 361 425 362
f 424 425 361
f 362 426 363
f 425 426 362
f 363 427 364
f 426 427 363
f 356 364 420
f 364 428 420
f 364 427 428
f 420 428 421
f 430 429 367
f 367 429 366
f 431 367 368
f 431 430 367
f 433 431 432
f 431 369 432
f 431 368 369
f 370 432 369
f 435 434 373
f 373 434 372
f 373 366 429
f 373 429 435
f 436 433 432
f 432 370 436
f 370 437 436
f 370 374 437
f 439 438 377
f 377 438 376
f 377 372 434
f 377 434 439
f 440 437 374
f 440 374 378
f 378 379 440
f 440 379 441
f 444 443 442
f 446 445 442
f 442 445 444
f 380 381 446
f 381 445 446
f 381 447 445
f 381 376 438
f 381 438 447
f 448 441 379
f 448 379 382
f 382 383 448
f 448 383 449
f 442 443 386
f 443 385 386
f 443 450 385
f 442 386 387
f 442 387 446
f 446 387 380
f 388 449 383
f 388 451 449
f 454 453 452
f 450 454 452
f 390 450 452
f 385 450 390
f 456 455 392
f 456 392 393
f 388 392 451
f 451 392 455
f 453 457 452
f 390 452 457
f 458 390 457
f 395 390 458
f 396 456 393
f 396 459 456
f 458 397 395
f 460 397 458
f 398 459 396
f 398 461 459
f 462 399 400
f 463 462 400
f 397 463 400
f 460 463 397
f 401 461 398
f 401 464 461
f 465 402 462
f 462 402 399
f 462 463 466
f 462 466 465
f 403 464 401
f 403 467 464
f 468 404 465
f 465 404 402
f 465 466 469
f 465 469 468
f 405 471 470
f 467 405 470
f 403 405 467
f 471 472 470
f 473 406 468
f 468 406 404
f 468 469 474
f 468 474 473
f 407 475 471
f 407 471 405
f 472 471 476
f 476 471 475
f 477 409 473
f 473 409 406
f 473 474 478
f 473 478 477
f 480 479 475
f 407 480 475
f 410 480 407
f 475 479 476
f 481 411 412
f 482 481 412
f 482 412 409
f 483 482 409
f 477 483 409
f 483 477 478
f 413 480 410
f 413 484 480
f 481 414 411
f 482 485 481
f 485 414 481
f 485 415 414
f 485 487 486
f 416 485 486
f 415 485 416
f 488 418 416
f 488 416 486
f 488 419 418
f 421 484 413
f 421 489 484
f 487 490 486
f 486 490 488
f 488 490 491
f 488 491 419
f 491 422 419
f 491 492 422
f 422 493 423
f 492 493 422
f 423 494 424
f 493 494 423
f 424 495 425
f 494 495 424
f 425 496 426
f 495 496 425
f 426 497 427
f 496 497 426
f 427 498 428
f 497 498 427
f 421 428 489
f 489 428 498
f 500 499 430
f 430 499 429
f 501 430 431
f 501 500 430
f 431 433 501
f 501 433 502
f 504 503 435
f 435 503 434
f 435 429 499
f 435 499 504
f 505 502 433
f 505 433 436
f 436 437 505
f 505 437 506
f 509 508 507
f 438 439 507
f 439 509 507
f 439 510 509
f 439 434 503
f 439 503 510
f 511 506 437
f 511 437 440
f 440 441 511
f 511 441 512
f 513 443 444
f 513 444 514
f 444 515 514
f 444 445 515
f 447 507 508
f 515 447 508
f 445 447 515
f 507 447 438
f 516 512 441
f 516 441 448
f 448 449 516
f 516 449 517
f 519 518 513
f 518 443 513
f 518 450 443
f 519 513 514
f 451 517 449
f 451 520 517
f 522 521 454
f 454 521 453
f 454 450 518
f 454 518 522
f 524 523 455
f 524 455 456
f 451 455 520
f 520 455 523
f 457 453 525
f 453 526 525
f 453 521 526
f 525 458 457
f 459 524 456
f 459 527 524
f 525 526 528
f 528 526 529
f 528 460 458
f 528 458 525
f 461 527 459
f 461 530 527
f 528 529 531
f 531 529 532
f 531 463 460
f 531 460 528
f 464 530 461
f 464 533 530
f 532 534 531
f 463 531 534
f 535 463 534
f 466 463 535
f 467 533 464
f 467 536 533
f 535 469 466
f 537 469 535
f 538 536 467
f 538 467 470
f 470 472 538
f 538 472 539
f 541 474 540
f 474 537 540
f 474 469 537
f 542 541 540
f 476 539 472
f 476 543 539
f 544 478 541
f 541 478 474
f 541 542 545
f 541 545 544
f 547 546 479
f 547 479 480
f 476 479 543
f 543 479 546
f 548 482 483
f 478 544 483
f 544 548 483
f 544 549 548
f 544 545 550
f 544 550 549
f 484 547 480
f 484 551 547
f 548 485 482
f 548 549 552
f 487 548 552
f 553 487 552
f 548 487 485
f 552 549 550
f 489 551 484
f 489 554 551
f 553 555 487
f 487 555 490
f 490 556 491
f 555 556 490
f 556 558 557
f 492 556 557
f 491 556 492
f 559 493 492
f 559 492 557
f 493 559 560
f 561 493 560
f 494 493 561
f 494 562 495
f 561 562 494
f 495 563 496
f 562 563 495
f 496 564 497
f 563 564 496
f 497 565 498
f 564 565 497
f 489 498 554
f 554 498 565
f 558 566 557
f 557 566 559
f 559 566 567
f 559 567 560
f 568 499 500
f 501 569 500
f 500 569 568
f 502 569 501
f 570 503 504
f 571 570 504
f 571 504 499
f 572 571 499
f 568 572 499
f 572 568 569
f 572 569 573
f 573 569 502
f 505 573 502
f 574 573 505
f 576 575 506
f 575 505 506
f 575 574 505
f 576 577 575
f 579 578 509
f 509 578 508
f 580 509 510
f 580 579 509
f 510 503 570
f 581 510 570
f 580 510 581
f 581 570 571
f 511 576 506
f 583 582 512
f 512 582 511
f 582 577 511
f 577 576 511
f 585 584 583
f 583 584 582
f 585 586 584
f 588 587 515
f 515 587 514
f 515 508 578
f 515 578 588
f 516 583 512
f 585 583 589
f 583 517 589
f 517 590 589
f 517 583 516
f 585 589 586
f 592 591 519
f 519 591 518
f 519 514 587
f 519 587 592
f 520 590 517
f 520 593 590
f 595 594 522
f 522 594 521
f 522 518 591
f 522 591 595
f 524 596 523
f 596 597 523
f 597 520 523
f 597 593 520
f 594 526 521
f 598 526 594
f 600 599 596
f 524 600 596
f 527 600 524
f 596 599 597
f 598 529 526
f 601 529 598
f 530 600 527
f 530 602 600
f 601 532 529
f 603 532 601
f 533 602 530
f 533 604 602
f 603 605 532
f 532 605 534
f 535 534 605
f 535 605 606
f 536 604 533
f 536 607 604
f 606 537 535
f 608 537 606
f 536 538 609
f 610 536 609
f 607 536 610
f 539 609 538
f 608 611 537
f 537 611 540
f 542 540 611
f 542 611 612
f 613 610 609
f 609 539 613
f 539 614 613
f 539 543 614
f 617 616 615
f 619 618 615
f 615 618 617
f 612 618 619
f 545 612 619
f 542 612 545
f 621 620 546
f 621 546 547
f 543 546 614
f 614 546 620
f 615 616 622
f 622 616 623
f 615 624 619
f 615 622 624
f 624 550 545
f 624 545 619
f 627 626 625
f 626 621 625
f 621 551 625
f 621 547 551
f 623 628 622
f 629 553 552
f 622 629 552
f 624 622 552
f 628 629 622
f 550 624 552
f 632 631 630
f 633 631 632
f 636 635 634
f 634 635 627
f 625 634 627
f 637 634 625
f 554 637 551
f 551 637 625
f 629 638 553
f 553 638 555
f 631 556 630
f 556 638 630
f 556 555 638
f 640 639 558
f 640 558 556
f 633 640 556
f 631 633 556
f 641 639 640
f 643 642 561
f 643 561 560
f 561 644 562
f 642 644 561
f 562 645 563
f 644 645 562
f 634 564 636
f 564 645 636
f 564 563 645
f 564 634 565
f 565 634 637
f 565 637 554
f 639 566 558
f 641 646 639
f 646 566 639
f 646 567 566
f 560 567 643
f 643 567 646
f 649 648 647
f 651 650 647
f 647 650 649
f 651 652 650
f 653 571 572
f 653 572 654
f 572 655 654
f 572 573 655
f 574 647 648
f 655 574 648
f 573 574 655
f 647 574 575
f 647 575 651
f 657 656 577
f 577 656 575
f 656 652 575
f 652 651 575
f 657 658 656
f 659 578 579
f 659 579 660
f 579 661 660
f 579 580 661
f 662 580 581
f 662 661 580
f 581 571 653
f 663 581 653
f 662 581 663
f 663 653 654
f 582 657 577
f 664 658 657
f 582 664 657
f 584 664 582
f 584 586 664
f 664 586 665
f 666 587 588
f 578 659 588
f 659 666 588
f 659 667 666
f 659 660 668
f 659 668 667
f 590 669 589
f 669 670 589
f 670 586 589
f 670 665 586
f 671 591 592
f 587 666 592
f 666 671 592
f 666 672 671
f 673 666 667
f 672 666 673
f 667 668 674
f 667 674 673
f 676 675 669
f 590 676 669
f 593 676 590
f 669 675 670
f 677 594 595
f 678 677 595
f 678 595 591
f 679 678 591
f 671 679 591
f 679 671 672
f 679 672 680
f 680 672 673
f 680 673 681
f 681 673 674
f 597 676 593
f 597 682 676
f 683 598 677
f 677 598 594
f 677 678 684
f 685 677 684
f 683 677 685
f 687 686 685
f 687 685 684
f 688 686 687
f 690 689 599
f 690 599 600
f 597 599 682
f 682 599 689
f 691 601 683
f 683 601 598
f 685 693 692
f 691 685 692
f 683 685 691
f 695 694 693
f 685 695 693
f 686 695 685
f 686 688 696
f 686 696 695
f 699 698 697
f 698 690 697
f 690 602 697
f 690 600 602
f 700 603 691
f 691 603 601
f 691 692 701
f 691 701 700
f 702 694 695
f 702 695 696
f 699 697 703
f 699 703 704
f 604 703 602
f 602 703 697
f 700 605 603
f 606 605 700
f 701 606 700
f 705 606 701
f 706 704 703
f 703 604 706
f 604 707 706
f 604 607 707
f 709 608 708
f 608 705 708
f 608 606 705
f 710 709 708
f 610 707 607
f 610 711 707
f 709 611 608
f 612 611 709
f 710 612 709
f 712 612 710
f 713 711 610
f 713 610 613
f 613 614 713
f 713 614 714
f 715 616 617
f 618 716 617
f 617 716 715
f 717 716 618
f 612 717 618
f 712 717 612
f 719 718 620
f 719 620 621
f 614 620 714
f 714 620 718
f 720 623 715
f 715 623 616
f 716 722 721
f 720 716 721
f 715 716 720
f 722 716 717
f 627 723 626
f 723 724 626
f 724 621 626
f 724 719 621
f 720 628 623
f 629 628 720
f 721 629 720
f 725 629 721
f 630 726 632
f 726 633 632
f 729 728 727
f 731 730 727
f 731 727 728
f 635 636 730
f 731 635 730
f 732 635 731
f 627 635 723
f 635 733 723
f 635 732 733
f 723 733 724
f 725 734 629
f 629 734 638
f 630 638 726
f 638 735 726
f 638 734 735
f 726 735 633
f 735 640 633
f 735 736 640
f 641 640 736
f 641 736 737
f 739 738 642
f 739 642 643
f 727 644 729
f 644 738 729
f 644 642 738
f 644 727 645
f 645 727 730
f 645 730 636
f 737 740 641
f 641 740 646
f 643 646 739
f 739 646 740
f 743 742 741
f 745 744 741
f 741 744 743
f 745 746 744
f 748 747 649
f 649 747 648
f 650 741 742
f 748 650 742
f 649 650 748
f 741 650 652
f 749 741 652
f 745 741 749
f 746 745 750
f 750 745 749
f 752 751 655
f 655 751 654
f 655 648 747
f 655 747 752
f 656 749 652
f 656 658 749
f 658 750 749
f 658 753 750
f 754 660 661
f 662 755 661
f 661 755 754
f 755 662 756
f 662 757 756
f 662 663 757
f 663 654 751
f 663 751 757
f 758 753 658
f 758 658 664
f 664 665 758
f 758 665 759
f 761 760 754
f 760 660 754
f 760 668 660
f 761 754 755
f 761 755 762
f 762 755 756
f 670 759 665
f 670 763 759
f 765 674 764
f 674 760 764
f 674 668 760
f 766 765 764
f 768 767 675
f 768 675 676
f 670 675 763
f 763 675 767
f 769 678 679
f 680 770 679
f 679 770 769
f 681 771 680
f 680 771 770
f 772 771 681
f 772 681 674
f 773 772 674
f 765 773 674
f 773 765 766
f 776 775 774
f 778 777 774
f 778 774 775
f 778 768 777
f 768 682 777
f 768 676 682
f 769 684 678
f 684 769 687
f 687 769 770
f 687 770 688
f 770 779 688
f 770 771 779
f 771 772 780
f 771 780 779
f 776 774 781
f 776 781 782
f 690 781 689
f 781 777 689
f 781 774 777
f 689 777 682
f 783 692 693
f 694 783 693
f 784 696 779
f 779 696 688
f 779 780 785
f 779 785 784
f 782 781 698
f 699 782 698
f 786 782 699
f 698 781 690
f 787 701 783
f 783 701 692
f 702 788 694
f 788 783 694
f 788 787 783
f 696 784 702
f 784 788 702
f 784 789 788
f 784 785 790
f 784 790 789
f 704 786 699
f 704 791 786
f 792 705 787
f 787 705 701
f 793 787 788
f 792 787 793
f 789 795 794
f 793 789 794
f 788 789 793
f 795 789 790
f 796 791 704
f 796 704 706
f 706 707 796
f 796 707 797
f 792 708 705
f 708 792 710
f 792 798 710
f 792 793 798
f 793 794 799
f 793 799 798
f 711 797 707
f 711 800 797
f 801 712 798
f 798 712 710
f 798 799 802
f 798 802 801
f 803 800 711
f 803 711 713
f 713 714 803
f 803 714 804
f 805 717 801
f 801 717 712
f 801 802 806
f 801 806 805
f 808 807 718
f 808 718 719
f 714 718 804
f 804 718 807
f 809 721 722
f 810 809 722
f 810 722 717
f 811 810 717
f 805 811 717
f 811 805 806
f 814 813 812
f 813 808 812
f 808 724 812
f 808 719 724
f 815 725 809
f 809 725 721
f 809 810 816
f 809 816 815
f 729 817 728
f 728 817 818
f 819 728 818
f 731 728 819
f 731 820 732
f 819 820 731
f 812 733 814
f 733 820 814
f 733 732 820
f 733 812 724
f 815 734 725
f 816 821 815
f 821 734 815
f 821 735 734
f 735 822 736
f 821 822 735
f 824 823 737
f 736 824 737
f 822 824 736
f 824 739 823
f 824 738 739
f 824 826 825
f 738 824 825
f 817 729 738
f 825 817 738
f 827 817 825
f 818 817 828
f 828 817 827
f 823 740 737
f 826 829 825
f 740 823 739
f 825 829 827
f 827 829 830
f 827 830 828
f 833 832 831
f 835 834 831
f 831 834 833
f 835 836 834
f 838 837 743
f 743 837 742
f 744 831 832
f 838 744 832
f 743 744 838
f 835 831 839
f 831 746 839
f 746 840 839
f 746 831 744
f 835 839 836
f 841 747 748
f 842 841 748
f 742 842 748
f 837 842 742
f 750 840 746
f 750 843 840
f 844 751 752
f 845 844 752
f 845 752 747
f 846 845 747
f 841 846 747
f 846 841 842
f 753 848 847
f 843 753 847
f 750 753 843
f 848 849 847
f 850 756 757
f 851 850 757
f 851 757 751
f 852 851 751
f 844 852 751
f 852 844 845
f 758 848 753
f 758 759 848
f 759 849 848
f 759 853 849
f 854 760 761
f 762 855 761
f 761 855 854
f 756 850 762
f 850 855 762
f 850 856 855
f 850 851 857
f 858 850 857
f 856 850 858
f 859 858 857
f 763 853 759
f 763 860 853
f 854 764 760
f 764 854 766
f 854 861 766
f 854 855 861
f 856 863 862
f 861 856 862
f 855 856 861
f 865 864 863
f 856 865 863
f 858 865 856
f 858 859 866
f 858 866 865
f 868 867 767
f 868 767 768
f 763 767 860
f 860 767 867
f 869 772 773
f 870 869 773
f 870 773 766
f 871 870 766
f 861 871 766
f 871 861 862
f 872 864 865
f 872 865 866
f 874 873 775
f 874 775 776
f 775 875 778
f 873 875 775
f 768 778 868
f 868 778 875
f 876 780 869
f 869 780 772
f 869 870 877
f 869 877 876
f 782 874 776
f 782 878 874
f 879 785 876
f 876 785 780
f 876 877 880
f 876 880 879
f 786 878 782
f 786 881 878
f 883 882 879
f 882 785 879
f 882 790 785
f 883 879 880
f 791 881 786
f 791 884 881
f 885 794 795
f 790 882 886
f 885 790 886
f 887 885 886
f 795 790 885
f 889 888 887
f 889 887 886
f 890 888 889
f 791 796 891
f 892 791 891
f 884 791 892
f 797 891 796
f 893 799 885
f 885 799 794
f 894 885 887
f 893 885 894
f 888 896 895
f 894 888 895
f 887 888 894
f 896 888 890
f 892 891 897
f 892 897 898
f 800 897 797
f 797 897 891
f 899 802 893
f 893 802 799
f 900 893 894
f 899 893 900
f 894 895 901
f 894 901 900
f 902 898 897
f 904 902 903
f 903 902 803
f 902 897 803
f 897 800 803
f 804 903 803
f 905 806 899
f 899 806 802
f 906 899 900
f 905 899 906
f 900 901 907
f 900 907 906
f 910 909 908
f 908 909 904
f 908 904 903
f 808 908 903
f 807 808 903
f 807 903 804
f 911 810 811
f 806 905 811
f 905 911 811
f 905 912 911
f 913 905 906
f 912 905 913
f 906 907 914
f 915 906 914
f 913 906 915
f 916 915 914
f 910 908 813
f 814 910 813
f 917 910 814
f 813 908 808
f 918 816 911
f 911 816 810
f 919 911 912
f 918 911 919
f 920 912 913
f 919 912 920
f 915 922 921
f 920 915 921
f 913 915 920
f 922 915 916
f 818 923 819
f 924 820 819
f 924 819 923
f 924 925 820
f 925 814 820
f 925 917 814
f 918 821 816
f 821 918 822
f 822 918 919
f 822 919 824
f 824 919 920
f 826 824 920
f 921 826 920
f 926 826 921
f 928 927 923
f 818 928 923
f 828 928 818
f 923 927 924
f 924 927 929
f 924 929 925
f 926 930 826
f 826 930 829
f 829 931 830
f 930 931 829
f 828 830 928
f 928 830 931
f 932 832 833
f 834 933 833
f 833 933 932
f 836 933 834
f 934 837 838
f 832 932 838
f 932 934 838
f 932 935 934
f 938 937 936
f 839 840 933
f 935 933 840
f 933 935 932
f 836 839 933
f 940 937 939
f 938 939 937
f 939 941 940
f 942 842 934
f 934 842 837
f 943 934 935
f 942 934 943
f 945 943 944
f 936 945 944
f 938 936 944
f 946 938 944
f 843 946 944
f 840 843 944
f 935 840 944
f 943 935 944
f 938 947 939
f 938 946 947
f 941 939 948
f 948 939 947
f 949 845 846
f 842 942 846
f 942 949 846
f 942 950 949
f 943 952 951
f 950 943 951
f 942 943 950
f 843 847 946
f 943 945 952
f 947 946 953
f 946 849 953
f 849 954 953
f 849 946 847
f 947 953 948
f 955 851 852
f 845 949 852
f 949 955 852
f 949 956 955
f 950 958 957
f 956 950 957
f 949 950 956
f 958 950 951
f 853 954 849
f 853 959 954
f 955 857 851
f 857 955 859
f 955 960 859
f 955 956 960
f 956 957 961
f 956 961 960
f 964 963 962
f 963 959 962
f 959 860 962
f 959 853 860
f 965 862 863
f 864 965 863
f 966 866 960
f 960 866 859
f 960 961 967
f 960 967 966
f 964 962 867
f 868 964 867
f 968 964 868
f 867 962 860
f 969 870 871
f 862 965 871
f 965 969 871
f 965 970 969
f 872 971 864
f 971 965 864
f 971 970 965
f 972 971 872
f 972 872 866
f 973 972 866
f 966 973 866
f 974 973 874
f 973 974 967
f 873 967 974
f 967 873 966
f 874 966 873
f 966 874 973
f 873 974 975
f 976 873 975
f 875 873 976
f 868 875 968
f 968 875 976
f 977 877 969
f 969 877 870
f 978 969 970
f 977 969 978
f 979 970 971
f 978 970 979
f 971 972 980
f 971 980 979
f 982 981 974
f 874 982 974
f 878 982 874
f 974 981 975
f 983 880 977
f 977 880 877
f 984 977 978
f 983 977 984
f 979 986 985
f 984 979 985
f 978 979 984
f 986 979 980
f 881 982 878
f 881 987 982
f 988 882 883
f 880 983 883
f 983 988 883
f 983 989 988
f 990 983 984
f 989 983 990
f 984 985 991
f 992 984 991
f 990 984 992
f 994 993 992
f 994 992 991
f 994 987 993
f 987 884 993
f 987 881 884
f 988 886 882
f 886 988 889
f 889 988 989
f 889 989 890
f 989 995 890
f 989 990 995
f 996 990 992
f 995 990 996
f 997 992 993
f 996 992 997
f 892 997 884
f 884 997 993
f 998 895 896
f 890 995 896
f 995 998 896
f 995 999 998
f 1000 995 996
f 999 995 1000
f 1001 996 997
f 1000 996 1001
f 898 1001 892
f 892 1001 997
f 1002 901 998
f 998 901 895
f 1003 998 999
f 1002 998 1003
f 1004 999 1000
f 1003 999 1004
f 1005 1000 1001
f 1004 1000 1005
f 902 1006 898
f 1006 1001 898
f 1006 1005 1001
f 904 1006 902
f 1007 907 1002
f 1002 907 901
f 1008 1002 1003
f 1007 1002 1008
f 1009 1003 1004
f 1008 1003 1009
f 1010 1004 1005
f 1009 1004 1010
f 910 1010 909
f 1010 1006 909
f 1010 1005 1006
f 909 1006 904
f 1007 914 907
f 914 1007 916
f 1007 1011 916
f 1007 1008 1011
f 1012 1008 1009
f 1011 1008 1012
f 1010 1014 1013
f 1012 1010 1013
f 1009 1010 1012
f 1010 910 1014
f 910 1015 1014
f 910 917 1015
f 1016 921 922
f 916 1011 922
f 1011 1016 922
f 1011 1017 1016
f 1018 1011 1012
f 1017 1011 1018
f 1012 1013 1019
f 1020 1012 1019
f 1018 1012 1020
f 1019 1015 1020
f 1015 925 1020
f 1015 917 925
f 1021 926 1016
f 1016 926 921
f 1022 1016 1017
f 1021 1016 1022
f 928 1022 927
f 1022 1018 927
f 1022 1017 1018
f 927 1018 929
f 929 1018 1020
f 929 1020 925
f 1021 930 926
f 930 1021 931
f 931 1021 1022
f 931 1022 928
f 1023 936 937
f 940 1024 937
f 937 1024 1023
f 941 1024 940
f 1025 945 1023
f 1023 945 936
f 1026 1023 1024
f 1025 1023 1026
f 948 1026 941
f 941 1026 1024
f 1027 951 952
f 945 1025 952
f 1025 1027 952
f 1025 1028 1027
f 954 1028 953
f 1028 1026 953
f 1028 1025 1026
f 953 1026 948
f 1029 957 958
f 951 1027 958
f 1027 1029 958
f 1027 1030 1029
f 1031 1027 1028
f 1030 1027 1031
f 959 1031 954
f 954 1031 1028
f 1032 961 1029
f 1029 961 957
f 1033 1029 1030
f 1032 1029 1033
f 964 1033 963
f 1033 1031 963
f 1033 1030 1031
f 963 1031 959
f 1034 967 1032
f 1032 967 961
f 1035 1032 1033
f 1034 1032 1035
f 968 1035 964
f 964 1035 1033
f 1036 972 973
f 967 1034 973
f 1034 1036 973
f 1034 1037 1036
f 975 1037 976
f 1037 1035 976
f 1037 1034 1035
f 976 1035 968
f 1038 980 1036
f 1036 980 972
f 982 1038 981
f 1038 1037 981
f 1038 1036 1037
f 981 1037 975
f 1039 985 986
f 980 1038 986
f 1038 1039 986
f 1038 1040 1039
f 987 1040 982
f 982 1040 1038
f 1039 991 985
f 991 1039 994
f 994 1039 1040
f 994 1040 987
f 1041 1013 1014
f 1015 1041 1014
f 1041 1019 1013
f 1019 1041 1015
