v -8.0 1.0 -19.0
v -8.0 1.0 -19.0
v -8.0 1.0 -19.0
v -8.0 1.0 -19.0
v -8.2 1.0 -13.0
v -8.0 1.0 -13.3
v -8.0 0.7 -13.0
v -8.0 0.7 -12.0
v -8.2 1.0 -12.0
v -8.0 1.0 -11.7
v -8.0 1.0 -19.0
v -8.3 2.0 -13.0
v -8.0 2.0 -13.4
v -8.3 2.0 -12.0
v -8.0 2.0 -11.7
v -8.1 3.0 -13.0
v -8.0 3.0 -13.1
v -8.0 3.0 -12.9
v -8.0 2.4 -12.0
v -8.0 3.1 -13.0
v -7.2 -1.0 -12.0
v -7.0 -1.0 -12.3
v -7.0 -1.3 -12.0
v -7.0 -1.2 -11.0
v -7.1 -1.0 -11.0
v -7.0 -1.0 -10.9
v -7.4 0.0 -13.0
v -7.0 0.0 -13.5
v -7.0 -0.4 -13.0
v -7.5 0.0 -12.0
v -7.0 0.0 -11.3
v -7.0 -0.7 -11.0
v -7.2 1.0 -20.0
v -7.0 1.0 -20.1
v -7.0 0.4 -20.0
v -7.0 0.1 -19.0
v -7.0 1.0 -18.6
v -7.1 1.0 -16.0
v -7.0 1.0 -16.7
v -7.0 0.9 -16.0
v -7.0 0.6 -15.0
v -7.3 1.0 -15.0
v -7.0 0.4 -14.0
v -7.5 1.0 -14.0
v -7.0 0.4 -11.0
v -7.3 1.0 -11.0
v -7.0 1.0 -10.7
v -7.0 1.6 -20.0
v -7.0 1.9 -19.0
v -7.0 1.1 -16.0
v -7.2 2.0 -15.0
v -7.0 2.0 -15.3
v -7.5 2.0 -14.0
v -7.5 2.0 -11.0
v -7.0 2.0 -10.5
v -7.0 2.2 -15.0
v -7.0 2.5 -14.0
v -7.0 3.0 -13.5
v -7.6 3.0 -12.0
v -7.3 3.0 -11.0
v -7.0 3.0 -10.7
v -7.0 3.7 -13.0
v -7.0 3.6 -12.0
v -7.0 3.3 -11.0
v -6.1 -4.0 -13.0
v -6.0 -4.0 -13.1
v -6.0 -4.1 -13.0
v -6.0 -4.2 -12.0
v -6.2 -4.0 -12.0
v -6.0 -4.0 -11.8
v -6.0 -3.9 -13.0
v -6.4 -3.0 -12.0
v -6.0 -3.0 -12.6
v -6.0 -3.4 -11.0
v -6.4 -3.0 -11.0
v -6.0 -3.2 -10.0
v -6.2 -3.0 -10.0
v -6.0 -3.0 -9.8
v -6.5 -2.0 -12.0
v -6.0 -2.0 -12.5
v -6.6 -2.0 -11.0
v -6.4 -2.0 -10.0
v -6.0 -2.0 -9.6
v -6.0 -1.0 -12.8
v -6.4 -1.0 -10.0
v -6.0 -1.0 -9.6
v -6.2 0.0 -16.0
v -6.0 0.0 -16.2
v -6.0 -0.2 -16.0
v -6.0 -0.4 -15.0
v -6.4 0.0 -15.0
v -6.0 -0.4 -14.0
v -6.6 0.0 -14.0
v -6.0 -0.8 -13.0
v -6.8 0.0 -11.0
v -6.0 0.0 -10.3
v -6.0 -0.5 -10.0
v -6.8 1.0 -20.0
v -6.7 1.0 -19.0
v -6.3 1.0 -16.0
v -6.0 0.9 -16.0
v -6.0 1.0 -16.0
v -6.0 1.0 -10.3
v -6.6 2.0 -17.0
v -6.0 2.0 -17.1
v -6.0 1.8 -17.0
v -6.0 2.0 -16.7
v -6.0 2.0 -15.7
v -6.0 1.4 -10.0
v -6.4 2.0 -10.0
v -6.0 2.0 -9.6
v -6.0 2.1 -17.0
v -6.0 2.5 -15.0
v -6.0 2.6 -14.0
v -6.1 3.0 -13.0
v -6.0 3.0 -13.0
v -6.0 3.0 -13.0
v -6.4 3.0 -10.0
v -6.0 3.0 -9.6
v -6.0 4.0 -12.4
v -6.4 4.0 -12.0
v -6.4 4.0 -11.0
v -6.0 4.0 -10.6
v -6.0 3.4 -10.0
v -6.0 4.4 -12.0
v -6.0 4.4 -11.0
v -5.1 -4.0 -14.0
v -5.0 -4.0 -14.1
v -5.0 -4.1 -14.0
v -5.0 -4.3 -13.0
v -5.0 -4.4 -12.0
v -5.0 -4.0 -11.4
v -5.1 -3.0 -17.0
v -5.0 -3.0 -17.1
v -5.0 -3.1 -17.0
v -5.0 -3.2 -16.0
v -5.2 -3.0 -16.0
v -5.0 -3.3 -15.0
v -5.2 -3.0 -15.0
v -5.4 -3.0 -14.0
v -5.7 -3.0 -13.0
v -5.0 -3.7 -11.0
v -5.0 -3.3 -10.0
v -5.0 -3.0 -9.7
v -5.3 -2.0 -17.0
v -5.0 -2.0 -17.3
v -5.0 -2.0 -16.3
v -5.0 -2.4 -16.0
v -5.0 -2.7 -15.0
v -5.0 -2.4 -14.0
v -5.5 -2.0 -13.0
v -5.0 -2.0 -13.7
v -5.0 -2.3 -9.0
v -5.3 -2.0 -9.0
v -5.0 -2.0 -8.8
v -5.4 -1.0 -17.0
v -5.0 -1.0 -17.5
v -5.0 -1.8 -16.0
v -5.4 -1.0 -16.0
v -5.0 -1.0 -15.4
v -5.7 -1.0 -13.0
v -5.0 -1.0 -13.8
v -5.5 -1.0 -9.0
v -5.0 -1.0 -8.6
v -5.5 0.0 -17.0
v -5.0 0.0 -17.5
v -5.0 -0.8 -15.0
v -5.0 -0.8 -14.0
v -5.7 0.0 -10.0
v -5.4 0.0 -9.0
v -5.0 0.0 -8.4
v -5.6 1.0 -17.0
v -5.0 1.0 -17.6
v -6.0 1.0 -16.0
v -5.8 1.0 -10.0
v -5.5 1.0 -9.0
v -5.0 0.6 -8.0
v -5.2 1.0 -8.0
v -5.0 1.0 -7.7
v -5.1 2.0 -18.0
v -5.0 2.0 -18.1
v -5.0 1.8 -18.0
v -5.8 2.0 -16.0
v -5.6 2.0 -9.0
v -5.3 2.0 -8.0
v -5.0 2.0 -7.7
v -5.0 2.1 -18.0
v -5.3 3.0 -17.0
v -5.0 3.0 -17.3
v -5.3 3.0 -16.0
v -5.3 3.0 -15.0
v -5.5 3.0 -14.0
v -6.0 3.0 -13.0
v -5.4 3.0 -9.0
v -5.0 3.0 -8.5
v -5.0 2.4 -8.0
v -5.0 3.3 -17.0
v -5.0 3.2 -16.0
v -5.0 3.3 -15.0
v -5.0 3.5 -14.0
v -5.0 3.7 -13.0
v -5.0 4.0 -12.7
v -5.5 4.0 -10.0
v -5.0 4.0 -9.5
v -5.0 3.5 -9.0
v -5.4 5.0 -12.0
v -5.0 5.0 -12.4
v -5.4 5.0 -11.0
v -5.0 5.0 -10.5
v -5.0 4.5 -10.0
v -5.0 6.0 -12.0
v -5.0 6.0 -12.0
v -5.0 6.0 -12.0
v -5.0 5.5 -11.0
v -5.0 6.0 -12.0
v -4.9 -4.0 -14.0
v -4.4 -4.0 -13.0
v -4.0 -4.0 -12.6
v -4.0 -4.4 -12.0
v -4.0 -4.3 -11.0
v -4.5 -4.0 -11.0
v -4.0 -4.0 -10.6
v -4.0 -3.0 -17.3
v -4.0 -3.2 -17.0
v -4.0 -3.3 -16.0
v -4.0 -3.4 -15.0
v -4.0 -3.6 -14.0
v -4.0 -3.7 -13.0
v -4.0 -3.0 -10.0
v -4.1 -3.0 -10.0
v -4.1 -2.0 -18.0
v -4.0 -2.0 -18.1
v -4.0 -2.1 -18.0
v -4.9 -2.0 -16.0
v -4.6 -2.0 -15.0
v -4.7 -2.0 -14.0
v -4.0 -3.0 -10.0
v -4.0 -2.5 -9.0
v -4.0 -2.0 -8.6
v -4.4 -1.0 -18.0
v -4.0 -1.0 -18.4
v -4.8 -1.0 -15.0
v -4.8 -1.0 -14.0
v -4.0 -1.0 -8.4
v -4.5 0.0 -18.0
v -4.0 0.0 -18.4
v -4.0 -0.4 -8.0
v -4.4 0.0 -8.0
v -4.0 0.0 -7.7
v -4.6 1.0 -18.0
v -4.0 1.0 -18.4
v -4.0 1.0 -7.3
v -4.0 2.0 -18.2
v -4.0 1.5 -7.0
v -4.3 2.0 -7.0
v -4.0 2.0 -6.7
v -4.0 2.3 -18.0
v -4.0 3.0 -17.4
v -4.1 3.0 -16.0
v -4.0 3.0 -16.0
v -4.0 3.0 -16.1
v -4.0 3.0 -15.5
v -4.6 3.0 -8.0
v -4.4 3.0 -7.0
v -4.0 3.0 -6.6
v -4.0 3.9 -17.0
v -4.0 3.0 -15.0
v -4.4 4.0 -14.0
v -4.0 4.0 -14.4
v -4.7 4.0 -13.0
v -4.5 4.0 -9.0
v -4.0 4.0 -8.2
v -4.0 3.8 -8.0
v -4.1 4.0 -7.0
v -4.0 4.0 -7.4
v -4.0 4.0 -6.8
v -4.0 4.4 -14.0
v -4.0 4.7 -13.0
v -4.0 5.0 -12.7
v -4.6 5.0 -10.0
v -4.0 5.0 -9.3
v -4.0 4.6 -9.0
v -4.0 4.2 -7.0
v -4.0 5.8 -12.0
v -5.0 6.0 -12.0
v -4.4 6.0 -11.0
v -4.0 6.0 -11.7
v -4.2 6.0 -10.0
v -4.0 6.0 -9.7
v -4.0 6.3 -11.0
v -4.0 6.2 -10.0
v -3.0 -4.0 -12.3
v -3.0 -4.2 -12.0
v -3.0 -4.3 -11.0
v -3.0 -4.2 -10.0
v -3.3 -4.0 -10.0
v -3.0 -4.0 -9.1
v -3.7 -3.0 -17.0
v -3.6 -3.0 -16.0
v -3.4 -3.0 -15.0
v -3.0 -3.0 -14.6
v -3.0 -3.4 -14.0
v -3.0 -3.6 -13.0
v -4.0 -3.0 -10.0
v -3.0 -3.9 -9.0
v -3.5 -3.0 -9.0
v -3.0 -3.0 -8.7
v -3.8 -2.0 -18.0
v -3.0 -2.0 -17.4
v -3.0 -2.4 -17.0
v -3.0 -2.5 -16.0
v -3.0 -2.7 -15.0
v -3.0 -2.0 -8.5
v -3.0 -1.0 -18.3
v -3.0 -1.4 -18.0
v -3.0 -1.0 -8.4
v -3.0 0.0 -18.4
v -3.0 -0.5 -8.0
v -3.0 0.0 -7.5
v -3.0 1.0 -18.3
v -3.0 0.6 -7.0
v -3.5 1.0 -7.0
v -3.0 1.0 -6.6
v -3.0 1.4 -18.0
v -3.6 2.0 -18.0
v -3.0 2.0 -17.6
v -3.0 2.0 -6.2
v -3.4 3.0 -17.0
v -3.0 2.7 -17.0
v -3.9 3.0 -16.0
v -3.0 3.0 -16.7
v -3.0 2.3 -6.0
v -3.5 3.0 -6.0
v -3.0 2.6 -5.0
v -3.3 3.0 -5.0
v -3.0 3.0 -4.5
v -3.0 4.0 -16.8
v -3.3 4.0 -16.0
v -3.6 4.0 -15.0
v -3.9 4.0 -8.0
v -3.6 4.0 -6.0
v -3.5 4.0 -5.0
v -3.0 3.4 -4.0
v -3.4 4.0 -4.0
v -3.0 3.5 -3.0
v -3.4 4.0 -3.0
v -3.0 3.7 -2.0
v -3.2 4.0 -2.0
v -3.0 4.0 -1.7
v -3.0 4.2 -16.0
v -3.1 5.0 -15.0
v -3.0 5.0 -15.1
v -3.5 5.0 -14.0
v -3.8 5.0 -13.0
v -3.7 5.0 -9.0
v -3.5 5.0 -8.0
v -3.6 5.0 -7.0
v -3.4 5.0 -6.0
v -3.5 5.0 -5.0
v -3.5 5.0 -4.0
v -3.5 5.0 -3.0
v -3.4 5.0 -2.0
v -3.0 5.0 -1.5
v -3.0 5.1 -15.0
v -3.0 5.4 -14.0
v -3.3 6.0 -13.0
v -3.0 6.0 -13.3
v -3.8 6.0 -12.0
v -3.5 6.0 -9.0
v -3.5 6.0 -8.0
v -3.4 6.0 -7.0
v -3.1 6.0 -6.0
v -3.4 6.0 -5.0
v -3.5 6.0 -4.0
v -3.5 6.0 -3.0
v -3.4 6.0 -2.0
v -3.0 6.0 -1.5
v -3.0 6.2 -13.0
v -3.0 6.5 -12.0
v -3.0 6.6 -11.0
v -3.0 6.6 -10.0
v -3.0 6.7 -9.0
v -3.4 7.0 -8.0
v -3.0 7.0 -8.7
v -3.5 7.0 -7.0
v -3.4 7.0 -6.0
v -3.5 7.0 -5.0
v -3.5 7.0 -4.0
v -3.5 7.0 -3.0
v -3.4 7.0 -2.0
v -3.0 7.0 -1.4
v -3.2 8.0 -8.0
v -3.0 8.0 -8.3
v -3.4 8.0 -7.0
v -3.4 8.0 -6.0
v -3.4 8.0 -5.0
v -3.4 8.0 -4.0
v -3.4 8.0 -3.0
v -3.3 8.0 -2.0
v -3.0 7.8 -1.0
v -3.1 8.0 -1.0
v -3.0 8.0 -0.9
v -3.0 8.3 -8.0
v -3.0 8.5 -7.0
v -3.0 8.5 -6.0
v -3.0 8.5 -5.0
v -3.0 8.4 -4.0
v -3.0 8.4 -3.0
v -3.0 8.3 -2.0
v -3.0 8.1 -1.0
v -2.7 -4.0 -12.0
v -2.6 -4.0 -11.0
v -2.7 -4.0 -10.0
v -2.0 -3.0 -14.3
v -2.0 -3.2 -14.0
v -2.0 -3.4 -13.0
v -2.0 -3.4 -12.0
v -2.0 -3.5 -11.0
v -2.0 -3.5 -10.0
v -2.0 -3.2 -9.0
v -2.0 -3.0 -8.8
v -2.6 -2.0 -17.0
v -2.4 -2.0 -16.0
v -2.0 -2.0 -15.4
v -2.0 -2.3 -15.0
v -2.0 -2.0 -8.7
v -2.7 -1.0 -18.0
v -2.0 -1.0 -17.3
v -2.0 -1.3 -17.0
v -2.0 -1.6 -16.0
v -2.0 -1.0 -8.6
v -2.5 0.0 -18.0
v -2.0 0.0 -17.5
v -2.0 -0.3 -8.0
v -2.0 0.0 -7.7
v -2.7 1.0 -18.0
v -2.0 1.0 -17.4
v -2.0 0.6 -7.0
v -2.0 0.9 -6.0
v -2.1 1.0 -6.0
v -2.0 1.0 -5.9
v -2.0 2.0 -17.2
v -2.7 2.0 -6.0
v -2.0 1.6 -5.0
v -2.4 2.0 -5.0
v -2.0 1.9 -4.0
v -2.1 2.0 -4.0
v -2.0 2.0 -3.9
v -2.0 2.2 -17.0
v -2.4 3.0 -16.0
v -2.0 2.6 -16.0
v -2.0 3.0 -15.6
v -2.7 3.0 -4.0
v -2.0 2.6 -3.0
v -2.5 3.0 -3.0
v -2.0 2.7 -2.0
v -2.4 3.0 -2.0
v -2.0 2.8 -1.0
v -2.2 3.0 -1.0
v -2.0 3.0 -0.7
v -2.7 4.0 -16.0
v -2.0 4.0 -15.3
v -2.4 4.0 -1.0
v -2.0 4.0 -0.0
v -2.9 5.0 -15.0
v -2.0 4.4 -15.0
v -2.0 5.0 -14.4
v -2.4 5.0 -1.0
v -2.0 5.0 -0.1
v -2.0 5.3 -14.0
v -2.0 6.0 -13.3
v -2.3 6.0 -1.0
v -2.0 6.0 -0.8
v -2.0 6.3 -13.0
v -2.1 7.0 -12.0
v -2.0 7.0 -12.1
v -2.5 7.0 -11.0
v -2.6 7.0 -10.0
v -2.7 7.0 -9.0
v -2.4 7.0 -1.0
v -2.0 7.0 -0.7
v -2.0 7.1 -12.0
v -2.0 7.9 -11.0
v -2.2 8.0 -10.0
v -2.0 8.0 -10.9
v -2.4 8.0 -9.0
v -2.0 8.0 -0.0
v -2.0 8.2 -10.0
v -2.0 8.9 -9.0
v -2.2 9.0 -8.0
v -2.0 9.0 -8.8
v -2.3 9.0 -7.0
v -2.3 9.0 -6.0
v -2.3 9.0 -5.0
v -2.3 9.0 -4.0
v -2.0 9.0 -3.6
v -2.0 8.6 -3.0
v -2.0 8.4 -2.0
v -2.0 8.4 -1.0
v -2.0 9.2 -8.0
v -2.0 9.2 -7.0
v -2.0 9.2 -6.0
v -2.0 9.2 -5.0
v -2.0 9.2 -4.0
v -1.8 -3.0 -14.0
v -1.6 -3.0 -13.0
v -1.6 -3.0 -12.0
v -1.6 -3.0 -11.0
v -1.6 -3.0 -10.0
v -1.8 -3.0 -9.0
v -1.7 -2.0 -15.0
v -1.5 -2.0 -14.0
v -1.5 -2.0 -13.0
v -1.5 -2.0 -12.0
v -1.5 -2.0 -11.0
v -1.5 -2.0 -10.0
v -1.7 -2.0 -9.0
v -1.8 -1.0 -17.0
v -1.6 -1.0 -16.0
v -1.5 -1.0 -15.0
v -1.5 -1.0 -14.0
v -1.5 -1.0 -13.0
v -1.5 -1.0 -12.0
v -1.5 -1.0 -11.0
v -1.5 -1.0 -10.0
v -1.6 -1.0 -9.0
v -1.6 0.0 -17.0
v -1.5 0.0 -16.0
v -1.5 0.0 -15.0
v -1.5 0.0 -14.0
v -1.5 0.0 -13.0
v -1.5 0.0 -12.0
v -1.5 0.0 -11.0
v -1.5 0.0 -10.0
v -1.5 0.0 -9.0
v -1.8 0.0 -8.0
v -1.6 1.0 -17.0
v -1.5 1.0 -16.0
v -1.5 1.0 -15.0
v -1.5 1.0 -14.0
v -1.5 1.0 -13.0
v -1.5 1.0 -12.0
v -1.5 1.0 -11.0
v -1.5 1.0 -10.0
v -1.5 1.0 -9.0
v -1.5 1.0 -8.0
v -1.6 1.0 -7.0
v -1.9 1.0 -6.0
v -1.8 2.0 -17.0
v -1.6 2.0 -16.0
v -1.5 2.0 -15.0
v -1.5 2.0 -14.0
v -1.5 2.0 -13.0
v -1.4 2.0 -12.0
v -1.4 2.0 -11.0
v -1.4 2.0 -10.0
v -1.4 2.0 -9.0
v -1.4 2.0 -8.0
v -1.3 2.0 -7.0
v -1.0 2.0 -6.5
v -1.0 1.7 -6.0
v -1.0 1.8 -5.0
v -1.9 2.0 -4.0
v -1.0 2.0 -4.6
v -1.6 3.0 -15.0
v -1.5 3.0 -14.0
v -1.4 3.0 -13.0
v -1.0 3.0 -12.3
v -1.0 2.7 -12.0
v -1.0 2.5 -11.0
v -1.0 2.5 -10.0
v -1.0 2.5 -9.0
v -1.0 2.5 -8.0
v -1.0 2.4 -7.0
v -1.0 2.5 -4.0
v -1.0 2.8 -3.0
v -1.0 2.8 -2.0
v -1.0 2.9 -1.0
v -1.0 3.0 -0.6
v -1.7 4.0 -15.0
v -1.5 4.0 -14.0
v -1.4 4.0 -13.0
v -1.0 4.0 -12.5
v -1.3 4.0 -3.0
v -1.0 3.4 -3.0
v -1.0 4.0 -3.5
v -1.4 4.0 -2.0
v -1.0 3.3 -2.0
v -1.5 4.0 -1.0
v -1.0 3.2 -1.0
v -1.7 5.0 -14.0
v -1.4 5.0 -13.0
v -1.0 5.0 -12.4
v -1.1 5.0 -5.0
v -1.0 4.8 -5.0
v -1.0 5.0 -5.2
v -1.4 5.0 -4.0
v -1.0 4.4 -4.0
v -1.5 5.0 -3.0
v -1.5 5.0 -2.0
v -1.7 5.0 -1.0
v -1.7 6.0 -13.0
v -1.0 5.5 -12.0
v -1.3 6.0 -12.0
v -1.0 6.0 -11.5
v -1.1 6.0 -8.0
v -1.0 5.8 -8.0
v -1.0 6.0 -8.2
v -1.3 6.0 -7.0
v -1.0 5.7 -7.0
v -1.0 6.0 -6.5
v -1.0 5.5 -5.0
v -1.0 6.0 -4.8
v -1.4 6.0 -4.0
v -1.5 6.0 -3.0
v -1.5 6.0 -2.0
v -1.8 6.0 -1.0
v -1.9 7.0 -12.0
v -1.0 6.5 -11.0
v -1.4 7.0 -11.0
v -1.0 7.0 -10.5
v -1.0 6.4 -8.0
v -1.0 7.0 -7.7
v -1.3 7.0 -7.0
v -1.0 6.5 -6.0
v -1.3 7.0 -6.0
v -1.4 7.0 -5.0
v -1.0 6.2 -5.0
v -1.5 7.0 -4.0
v -1.5 7.0 -3.0
v -1.5 7.0 -2.0
v -1.8 7.0 -1.0
v -1.7 8.0 -10.0
v -1.0 7.4 -10.0
v -1.5 8.0 -9.0
v -1.0 7.5 -9.0
v -1.3 8.0 -8.0
v -1.0 7.3 -8.0
v -1.0 8.0 -7.2
v -1.0 7.7 -7.0
v -1.0 7.8 -6.0
v -1.0 8.0 -5.9
v -1.4 8.0 -5.0
v -1.4 8.0 -4.0
v -1.5 8.0 -3.0
v -1.6 8.0 -2.0
v -1.7 8.0 -1.0
v -1.8 9.0 -8.0
v -1.0 8.2 -7.0
v -1.7 9.0 -7.0
v -1.7 9.0 -6.0
v -1.0 8.1 -6.0
v -1.7 9.0 -5.0
v -1.1 9.0 -4.0
v -0.7 2.0 -6.0
v -0.8 2.0 -5.0
v -0.8 3.0 -12.0
v -0.6 3.0 -11.0
v -0.6 3.0 -10.0
v -0.6 3.0 -9.0
v -0.6 3.0 -8.0
v -0.6 3.0 -7.0
v -0.5 3.0 -6.0
v -0.5 3.0 -5.0
v -0.6 3.0 -4.0
v -0.8 3.0 -3.0
v -0.8 3.0 -2.0
v -0.9 3.0 -1.0
v -0.6 4.0 -12.0
v -0.5 4.0 -11.0
v -0.5 4.0 -10.0
v -0.5 4.0 -9.0
v -0.5 4.0 -8.0
v -0.5 4.0 -7.0
v -0.5 4.0 -6.0
v -0.6 4.0 -5.0
v -0.7 4.0 -4.0
v -0.7 5.0 -12.0
v -0.5 5.0 -11.0
v -0.5 5.0 -10.0
v -0.5 5.0 -9.0
v -0.6 5.0 -8.0
v -0.6 5.0 -7.0
v -0.6 5.0 -6.0
v -0.7 6.0 -11.0
v -0.5 6.0 -10.0
v -0.6 6.0 -9.0
v -0.8 6.0 -6.0
v -0.9 6.0 -5.0
v -0.7 7.0 -10.0
v -0.6 7.0 -9.0
v -0.8 7.0 -8.0
v -0.9 8.0 -7.0
v -0.9 8.0 -6.0
f 3 2 1
f 1 4 3
f 7 6 5
f 9 8 5
f 5 8 7
f 9 10 8
f 2 11 1
f 1 11 4
f 5 6 12
f 12 6 13
f 5 14 9
f 5 12 14
f 10 9 15
f 15 9 14
f 12 13 16
f 16 13 17
f 19 14 18
f 14 16 18
f 14 12 16
f 14 19 15
f 17 20 16
f 16 20 18
f 23 22 21
f 25 24 21
f 21 24 23
f 25 26 24
f 29 28 27
f 29 27 22
f 27 21 22
f 27 30 21
f 32 25 31
f 25 30 31
f 25 21 30
f 25 32 26
f 35 34 33
f 2 3 33
f 3 35 33
f 3 36 35
f 3 4 36
f 36 4 37
f 40 39 38
f 42 41 38
f 38 41 40
f 44 43 42
f 42 43 41
f 43 44 28
f 28 44 27
f 44 6 27
f 6 7 27
f 27 7 8
f 27 8 30
f 46 45 10
f 10 45 8
f 45 31 8
f 31 30 8
f 46 47 45
f 34 48 33
f 33 48 2
f 48 11 2
f 48 49 11
f 4 11 37
f 37 11 49
f 39 50 38
f 52 51 50
f 51 38 50
f 51 42 38
f 42 53 44
f 42 51 53
f 53 13 6
f 53 6 44
f 15 54 46
f 15 46 10
f 47 46 55
f 55 46 54
f 52 56 51
f 51 56 53
f 53 56 57
f 13 53 57
f 58 13 57
f 17 13 58
f 18 59 19
f 54 15 19
f 59 54 19
f 60 54 59
f 55 54 61
f 61 54 60
f 58 62 17
f 17 62 20
f 18 20 59
f 20 63 59
f 20 62 63
f 59 63 60
f 60 63 64
f 60 64 61
f 67 66 65
f 69 68 65
f 65 68 67
f 69 70 68
f 66 71 65
f 73 72 71
f 72 65 71
f 72 69 65
f 70 69 74
f 69 75 74
f 69 72 75
f 77 76 75
f 75 76 74
f 77 78 76
f 72 73 79
f 79 73 80
f 72 81 75
f 72 79 81
f 75 82 77
f 75 81 82
f 78 77 83
f 83 77 82
f 79 80 23
f 80 22 23
f 80 84 22
f 79 23 24
f 79 24 81
f 81 24 26
f 85 81 26
f 82 81 85
f 83 82 86
f 86 82 85
f 89 88 87
f 91 90 87
f 87 90 89
f 93 92 91
f 91 92 90
f 28 29 93
f 29 92 93
f 29 94 92
f 29 22 84
f 29 84 94
f 31 95 32
f 95 96 32
f 32 96 26
f 96 97 26
f 97 85 26
f 85 97 86
f 98 34 35
f 36 99 35
f 35 99 98
f 37 99 36
f 100 39 40
f 88 101 87
f 41 100 40
f 100 41 102
f 91 102 41
f 102 91 101
f 87 101 91
f 91 41 43
f 91 43 93
f 93 43 28
f 45 95 31
f 45 47 95
f 47 96 95
f 47 103 96
f 98 48 34
f 48 98 49
f 49 98 99
f 49 99 37
f 106 105 104
f 100 50 39
f 107 106 104
f 52 50 100
f 102 52 100
f 108 52 102
f 55 110 109
f 103 55 109
f 47 55 103
f 110 111 109
f 105 112 104
f 104 112 107
f 108 113 52
f 52 113 56
f 56 114 57
f 113 114 56
f 116 115 58
f 57 116 58
f 114 116 57
f 117 115 116
f 61 118 110
f 61 110 55
f 111 110 119
f 119 110 118
f 115 62 58
f 63 62 115
f 120 63 115
f 117 120 115
f 121 63 120
f 122 64 63
f 122 63 121
f 122 123 64
f 64 123 61
f 123 124 61
f 124 118 61
f 118 124 119
f 120 125 121
f 121 125 122
f 122 125 126
f 122 126 123
f 129 128 127
f 66 67 127
f 67 129 127
f 67 130 129
f 131 67 68
f 131 130 67
f 68 70 131
f 131 70 132
f 135 134 133
f 137 136 133
f 133 136 135
f 139 138 137
f 137 138 136
f 138 139 128
f 139 127 128
f 139 140 127
f 141 71 66
f 127 141 66
f 140 141 127
f 141 73 71
f 142 132 70
f 142 70 74
f 143 74 76
f 143 142 74
f 76 78 143
f 143 78 144
f 133 134 145
f 145 134 146
f 148 137 147
f 137 145 147
f 137 133 145
f 137 148 139
f 139 148 149
f 139 149 140
f 140 149 150
f 152 151 150
f 151 140 150
f 151 141 140
f 151 80 73
f 151 73 141
f 83 154 153
f 144 83 153
f 78 83 144
f 154 155 153
f 145 146 156
f 156 146 157
f 147 145 158
f 145 159 158
f 145 156 159
f 159 160 158
f 151 152 161
f 161 152 162
f 161 84 80
f 161 80 151
f 86 163 154
f 86 154 83
f 155 154 164
f 164 154 163
f 156 157 165
f 165 157 166
f 165 88 89
f 159 165 89
f 156 165 159
f 167 160 159
f 89 167 159
f 90 167 89
f 168 90 92
f 168 167 90
f 94 161 162
f 168 94 162
f 92 94 168
f 161 94 84
f 96 169 97
f 163 86 97
f 169 163 97
f 170 163 169
f 164 163 171
f 171 163 170
f 165 166 172
f 172 166 173
f 174 101 88
f 165 174 88
f 172 174 165
f 174 102 101
f 103 175 169
f 103 169 96
f 169 176 170
f 169 175 176
f 171 170 177
f 170 178 177
f 170 176 178
f 178 179 177
f 182 181 180
f 182 180 173
f 173 180 172
f 180 105 172
f 105 106 172
f 172 106 107
f 183 172 107
f 174 172 183
f 183 108 102
f 183 102 174
f 109 175 103
f 175 109 111
f 184 175 111
f 176 175 184
f 176 185 178
f 176 184 185
f 179 178 186
f 186 178 185
f 181 187 180
f 187 189 188
f 187 188 112
f 180 187 112
f 105 180 112
f 183 107 112
f 188 183 112
f 190 183 188
f 191 113 108
f 183 191 108
f 190 191 183
f 192 114 113
f 192 113 191
f 193 116 114
f 193 114 192
f 193 117 116
f 119 194 184
f 119 184 111
f 196 185 195
f 185 194 195
f 185 184 194
f 185 196 186
f 189 197 188
f 188 197 190
f 190 197 198
f 190 198 191
f 191 198 199
f 191 199 192
f 192 199 200
f 192 200 193
f 193 200 201
f 117 193 201
f 202 117 201
f 120 117 202
f 123 203 124
f 203 204 124
f 124 204 119
f 204 205 119
f 205 194 119
f 194 205 195
f 125 120 206
f 120 207 206
f 120 202 207
f 208 126 125
f 208 125 206
f 208 209 126
f 126 209 123
f 209 210 123
f 210 203 123
f 203 210 204
f 206 207 211
f 211 207 212
f 214 208 213
f 208 211 213
f 208 206 211
f 208 214 209
f 212 215 211
f 211 215 213
f 216 128 129
f 130 217 129
f 129 217 216
f 217 130 218
f 130 219 218
f 130 131 219
f 221 220 132
f 220 131 132
f 220 219 131
f 221 222 220
f 224 223 135
f 135 223 134
f 225 135 136
f 225 224 135
f 226 136 138
f 226 225 136
f 138 128 216
f 227 138 216
f 226 138 227
f 227 216 217
f 227 217 228
f 228 217 218
f 142 221 132
f 142 143 221
f 143 229 221
f 229 222 221
f 143 230 229
f 144 230 143
f 233 232 231
f 223 233 231
f 146 223 231
f 134 223 146
f 147 234 148
f 235 149 148
f 235 148 234
f 236 150 149
f 236 149 235
f 236 152 150
f 237 229 230
f 237 230 144
f 153 237 144
f 238 237 153
f 153 155 238
f 238 155 239
f 231 232 240
f 240 232 241
f 240 157 146
f 240 146 231
f 158 234 147
f 234 158 160
f 242 234 160
f 235 234 242
f 235 243 236
f 235 242 243
f 243 162 152
f 243 152 236
f 164 239 155
f 164 244 239
f 240 241 245
f 245 241 246
f 245 166 157
f 245 157 240
f 167 242 160
f 242 167 168
f 242 168 243
f 243 168 162
f 171 248 247
f 244 171 247
f 164 171 244
f 248 249 247
f 245 246 250
f 250 246 251
f 250 173 166
f 250 166 245
f 177 248 171
f 177 179 248
f 179 249 248
f 179 252 249
f 250 251 182
f 251 181 182
f 251 253 181
f 250 182 173
f 186 255 254
f 252 186 254
f 179 186 252
f 255 256 254
f 253 257 181
f 181 257 187
f 189 187 257
f 189 257 258
f 261 260 259
f 262 259 260
f 195 263 196
f 255 186 196
f 263 255 196
f 264 255 263
f 256 255 265
f 265 255 264
f 258 266 189
f 189 266 197
f 259 198 261
f 198 266 261
f 198 197 266
f 262 267 259
f 267 198 259
f 267 199 198
f 267 269 268
f 200 267 268
f 199 267 200
f 270 201 200
f 270 200 268
f 270 202 201
f 204 271 205
f 271 272 205
f 205 272 195
f 272 273 195
f 273 263 195
f 275 274 273
f 274 263 273
f 274 264 263
f 265 264 276
f 276 264 274
f 269 277 268
f 268 277 270
f 270 277 278
f 202 270 278
f 279 202 278
f 207 202 279
f 209 280 210
f 280 281 210
f 210 281 204
f 281 282 204
f 282 271 204
f 271 282 272
f 275 283 274
f 274 283 276
f 285 212 284
f 212 279 284
f 212 207 279
f 284 213 285
f 284 214 213
f 284 287 286
f 214 284 286
f 280 209 214
f 286 280 214
f 288 280 286
f 281 280 289
f 289 280 288
f 285 215 212
f 287 290 286
f 215 285 213
f 286 290 288
f 288 290 291
f 288 291 289
f 293 292 219
f 219 292 218
f 294 219 220
f 294 293 219
f 296 295 222
f 295 220 222
f 295 294 220
f 296 297 295
f 298 223 224
f 225 299 224
f 224 299 298
f 226 300 225
f 225 300 299
f 300 226 301
f 226 302 301
f 226 227 302
f 303 227 228
f 303 302 227
f 228 218 292
f 228 292 303
f 229 304 296
f 229 296 222
f 297 296 305
f 296 306 305
f 296 304 306
f 306 307 305
f 308 232 233
f 309 308 233
f 309 233 223
f 310 309 223
f 298 310 223
f 310 298 299
f 310 299 311
f 311 299 300
f 311 300 312
f 312 300 301
f 237 304 229
f 304 237 238
f 304 238 306
f 238 239 306
f 239 307 306
f 239 313 307
f 315 314 308
f 314 232 308
f 314 241 232
f 315 308 309
f 244 313 239
f 244 316 313
f 314 246 241
f 317 246 314
f 318 316 244
f 318 244 247
f 247 249 318
f 318 249 319
f 317 251 246
f 320 251 317
f 252 322 321
f 319 252 321
f 249 252 319
f 322 323 321
f 325 253 324
f 253 320 324
f 253 251 320
f 326 325 324
f 254 322 252
f 254 256 322
f 256 323 322
f 256 327 323
f 325 257 253
f 329 328 258
f 329 258 257
f 326 329 257
f 325 326 257
f 330 260 261
f 331 328 329
f 330 262 260
f 265 333 332
f 327 265 332
f 256 265 327
f 335 334 333
f 333 334 332
f 335 336 334
f 328 266 258
f 337 328 331
f 328 337 266
f 338 266 337
f 266 338 261
f 330 261 338
f 339 267 262
f 330 339 262
f 338 339 330
f 339 269 267
f 272 340 273
f 340 275 273
f 276 341 333
f 276 333 265
f 333 342 335
f 333 341 342
f 336 335 343
f 335 344 343
f 335 342 344
f 346 345 344
f 344 345 343
f 348 347 346
f 346 347 345
f 348 349 347
f 337 350 338
f 352 351 350
f 351 338 350
f 351 339 338
f 353 277 269
f 339 353 269
f 351 353 339
f 354 278 277
f 354 277 353
f 354 279 278
f 281 355 282
f 340 272 282
f 355 340 282
f 356 340 355
f 357 283 275
f 340 357 275
f 356 357 340
f 341 276 283
f 357 341 283
f 358 341 357
f 341 359 342
f 341 358 359
f 342 360 344
f 342 359 360
f 344 361 346
f 344 360 361
f 346 362 348
f 346 361 362
f 349 348 363
f 363 348 362
f 352 364 351
f 351 364 353
f 353 364 365
f 367 366 365
f 366 353 365
f 366 354 353
f 368 284 279
f 354 368 279
f 366 368 354
f 368 287 284
f 289 369 355
f 289 355 281
f 355 370 356
f 355 369 370
f 356 371 357
f 356 370 371
f 357 372 358
f 357 371 372
f 358 373 359
f 358 372 373
f 359 374 360
f 359 373 374
f 360 375 361
f 360 374 375
f 361 376 362
f 361 375 376
f 363 362 377
f 377 362 376
f 367 378 366
f 366 378 368
f 368 378 379
f 368 379 287
f 379 290 287
f 379 380 290
f 290 381 291
f 380 381 290
f 289 291 369
f 291 382 369
f 291 381 382
f 384 383 382
f 383 369 382
f 383 370 369
f 370 385 371
f 370 383 385
f 371 386 372
f 371 385 386
f 372 387 373
f 372 386 387
f 373 388 374
f 373 387 388
f 374 389 375
f 374 388 389
f 375 390 376
f 375 389 390
f 377 376 391
f 391 376 390
f 383 384 392
f 392 384 393
f 383 394 385
f 383 392 394
f 385 395 386
f 385 394 395
f 386 396 387
f 386 395 396
f 387 397 388
f 387 396 397
f 388 398 389
f 388 397 398
f 389 399 390
f 389 398 399
f 391 390 400
f 390 401 400
f 390 399 401
f 401 402 400
f 393 403 392
f 392 403 394
f 394 403 404
f 394 404 395
f 395 404 405
f 395 405 396
f 396 405 406
f 396 406 397
f 397 406 407
f 397 407 398
f 398 407 408
f 398 408 399
f 399 408 409
f 399 409 401
f 401 409 410
f 401 410 402
f 411 292 293
f 294 412 293
f 293 412 411
f 295 413 294
f 294 413 412
f 297 413 295
f 415 414 302
f 302 414 301
f 416 302 303
f 416 415 302
f 303 292 411
f 417 303 411
f 416 303 417
f 417 411 412
f 417 412 418
f 418 412 413
f 418 413 419
f 419 413 297
f 305 419 297
f 420 419 305
f 305 307 420
f 420 307 421
f 422 309 310
f 311 423 310
f 310 423 422
f 423 311 424
f 311 425 424
f 311 312 425
f 312 301 414
f 312 414 425
f 313 421 307
f 313 426 421
f 427 314 315
f 428 427 315
f 428 315 309
f 429 428 309
f 422 429 309
f 429 422 423
f 429 423 430
f 430 423 424
f 316 426 313
f 316 431 426
f 432 317 427
f 427 317 314
f 427 428 433
f 427 433 432
f 434 431 316
f 434 316 318
f 318 319 434
f 434 319 435
f 436 320 432
f 432 320 317
f 432 433 437
f 432 437 436
f 438 435 319
f 438 319 321
f 440 439 323
f 439 321 323
f 439 438 321
f 440 441 439
f 436 324 320
f 326 324 436
f 437 326 436
f 442 326 437
f 327 443 440
f 327 440 323
f 441 440 444
f 440 445 444
f 440 443 445
f 447 446 445
f 445 446 444
f 447 448 446
f 442 449 326
f 326 449 329
f 451 450 331
f 329 451 331
f 449 451 329
f 452 450 451
f 332 443 327
f 443 332 334
f 443 334 445
f 445 334 336
f 453 445 336
f 447 445 453
f 448 447 454
f 447 455 454
f 447 453 455
f 457 456 455
f 455 456 454
f 459 458 457
f 457 458 456
f 459 460 458
f 461 337 450
f 450 337 331
f 450 452 462
f 450 462 461
f 343 453 336
f 453 343 345
f 453 345 455
f 455 345 347
f 455 347 457
f 457 347 349
f 463 457 349
f 459 457 463
f 460 459 464
f 464 459 463
f 461 350 337
f 466 465 352
f 466 352 350
f 462 466 350
f 461 462 350
f 467 465 466
f 363 468 463
f 363 463 349
f 464 463 469
f 469 463 468
f 465 364 352
f 467 470 465
f 470 364 465
f 470 365 364
f 367 365 470
f 367 470 471
f 377 472 468
f 377 468 363
f 469 468 473
f 473 468 472
f 471 474 367
f 367 474 378
f 474 476 475
f 379 474 475
f 378 474 379
f 477 380 379
f 477 379 475
f 478 381 380
f 478 380 477
f 479 382 381
f 479 381 478
f 479 384 382
f 391 480 472
f 391 472 377
f 473 472 481
f 481 472 480
f 476 482 475
f 475 482 477
f 477 482 483
f 485 484 483
f 484 477 483
f 484 478 477
f 478 486 479
f 478 484 486
f 486 393 384
f 486 384 479
f 400 480 391
f 400 402 480
f 402 481 480
f 402 487 481
f 485 488 484
f 484 488 486
f 486 488 489
f 489 491 490
f 489 490 403
f 486 489 403
f 393 486 403
f 492 404 403
f 492 403 490
f 493 405 404
f 493 404 492
f 494 406 405
f 494 405 493
f 495 407 406
f 495 406 494
f 407 495 496
f 497 407 496
f 408 407 497
f 408 498 409
f 497 498 408
f 409 499 410
f 498 499 409
f 402 410 487
f 487 410 499
f 491 500 490
f 490 500 492
f 492 500 501
f 492 501 493
f 493 501 502
f 493 502 494
f 494 502 503
f 494 503 495
f 495 503 504
f 495 504 496
f 505 414 415
f 416 506 415
f 415 506 505
f 417 507 416
f 416 507 506
f 418 508 417
f 417 508 507
f 419 509 418
f 418 509 508
f 420 510 419
f 419 510 509
f 421 510 420
f 511 424 425
f 414 505 425
f 505 511 425
f 505 512 511
f 513 505 506
f 512 505 513
f 514 506 507
f 513 506 514
f 515 507 508
f 514 507 515
f 516 508 509
f 515 508 516
f 517 509 510
f 516 509 517
f 426 517 421
f 421 517 510
f 518 428 429
f 430 519 429
f 429 519 518
f 424 511 430
f 511 519 430
f 511 520 519
f 521 511 512
f 520 511 521
f 522 512 513
f 521 512 522
f 523 513 514
f 522 513 523
f 524 514 515
f 523 514 524
f 525 515 516
f 524 515 525
f 526 516 517
f 525 516 526
f 431 526 426
f 426 526 517
f 527 433 518
f 518 433 428
f 528 518 519
f 527 518 528
f 529 519 520
f 528 519 529
f 530 520 521
f 529 520 530
f 531 521 522
f 530 521 531
f 532 522 523
f 531 522 532
f 533 523 524
f 532 523 533
f 534 524 525
f 533 524 534
f 535 525 526
f 534 525 535
f 434 536 431
f 536 526 431
f 536 535 526
f 435 536 434
f 537 437 527
f 527 437 433
f 538 527 528
f 537 527 538
f 539 528 529
f 538 528 539
f 540 529 530
f 539 529 540
f 541 530 531
f 540 530 541
f 542 531 532
f 541 531 542
f 543 532 533
f 542 532 543
f 544 533 534
f 543 533 544
f 545 534 535
f 544 534 545
f 546 535 536
f 545 535 546
f 438 547 435
f 547 536 435
f 547 546 536
f 439 548 438
f 438 548 547
f 441 548 439
f 549 442 537
f 537 442 437
f 550 537 538
f 549 537 550
f 551 538 539
f 550 538 551
f 552 539 540
f 551 539 552
f 553 540 541
f 552 540 553
f 554 541 542
f 553 541 554
f 555 542 543
f 554 542 555
f 556 543 544
f 555 543 556
f 557 544 545
f 556 544 557
f 558 545 546
f 557 545 558
f 559 546 547
f 558 546 559
f 548 561 560
f 559 548 560
f 547 548 559
f 561 548 441
f 444 561 441
f 562 561 444
f 564 562 563
f 562 446 563
f 562 444 446
f 448 563 446
f 549 449 442
f 449 549 451
f 451 549 550
f 451 550 452
f 550 565 452
f 550 551 565
f 566 551 552
f 565 551 566
f 567 552 553
f 566 552 567
f 554 569 568
f 567 554 568
f 553 554 567
f 569 554 555
f 569 555 570
f 570 555 556
f 570 556 571
f 571 556 557
f 571 557 572
f 572 557 558
f 572 558 573
f 573 558 559
f 573 559 574
f 574 559 560
f 575 564 563
f 575 563 448
f 454 575 448
f 576 575 454
f 577 454 456
f 577 576 454
f 578 456 458
f 578 577 456
f 458 460 578
f 578 460 579
f 580 462 565
f 565 462 452
f 581 565 566
f 580 565 581
f 582 566 567
f 581 566 582
f 567 568 583
f 567 583 582
f 586 585 584
f 588 587 584
f 588 584 585
f 590 589 587
f 590 587 588
f 590 579 589
f 579 464 589
f 579 460 464
f 580 466 462
f 466 580 467
f 580 591 467
f 580 581 591
f 592 581 582
f 591 581 592
f 582 583 593
f 582 593 592
f 596 595 594
f 598 597 594
f 598 594 595
f 597 598 586
f 584 597 586
f 599 597 584
f 600 584 587
f 599 584 600
f 601 587 589
f 600 587 601
f 469 601 464
f 464 601 589
f 591 470 467
f 470 591 471
f 591 602 471
f 591 592 602
f 592 593 603
f 604 592 603
f 602 592 604
f 605 604 603
f 608 607 606
f 610 609 606
f 610 606 607
f 611 609 610
f 612 596 594
f 614 613 612
f 594 614 612
f 597 614 594
f 615 597 599
f 614 597 615
f 616 599 600
f 615 599 616
f 617 600 601
f 616 600 617
f 473 617 469
f 469 617 601
f 602 474 471
f 474 602 476
f 602 618 476
f 602 604 618
f 604 605 619
f 620 604 619
f 618 604 620
f 621 620 619
f 622 608 606
f 624 623 622
f 606 624 622
f 609 624 606
f 609 611 625
f 626 609 625
f 624 609 626
f 628 627 626
f 628 626 625
f 627 628 613
f 614 627 613
f 629 627 614
f 630 614 615
f 629 614 630
f 631 615 616
f 630 615 631
f 632 616 617
f 631 616 632
f 481 632 473
f 473 632 617
f 618 482 476
f 482 618 483
f 483 618 620
f 634 633 485
f 634 485 483
f 621 634 483
f 620 621 483
f 636 635 633
f 636 633 634
f 638 637 635
f 638 635 636
f 637 640 639
f 637 624 640
f 637 638 623
f 624 637 623
f 640 624 626
f 640 626 641
f 643 642 641
f 626 643 641
f 627 643 626
f 644 627 629
f 643 627 644
f 645 629 630
f 644 629 645
f 646 630 631
f 645 630 646
f 647 631 632
f 646 631 647
f 487 647 481
f 481 647 632
f 633 488 485
f 488 633 489
f 489 633 635
f 489 635 491
f 635 648 491
f 635 637 648
f 637 639 649
f 650 637 649
f 648 637 650
f 652 651 650
f 652 650 649
f 651 652 642
f 643 651 642
f 653 651 643
f 654 643 644
f 653 643 654
f 496 654 497
f 654 645 497
f 654 644 645
f 497 645 498
f 498 645 646
f 498 646 499
f 499 646 647
f 499 647 487
f 648 500 491
f 500 648 501
f 501 648 650
f 501 650 502
f 502 650 651
f 502 651 503
f 503 651 653
f 503 653 504
f 504 653 654
f 504 654 496
f 655 560 561
f 562 656 561
f 561 656 655
f 564 656 562
f 657 568 569
f 570 658 569
f 569 658 657
f 571 659 570
f 570 659 658
f 572 660 571
f 571 660 659
f 573 661 572
f 572 661 660
f 574 662 573
f 573 662 661
f 560 655 574
f 655 662 574
f 655 663 662
f 664 655 656
f 663 655 664
f 575 665 564
f 665 656 564
f 665 664 656
f 576 666 575
f 575 666 665
f 577 667 576
f 576 667 666
f 578 668 577
f 577 668 667
f 579 668 578
f 669 583 657
f 657 583 568
f 670 657 658
f 669 657 670
f 671 658 659
f 670 658 671
f 672 659 660
f 671 659 672
f 673 660 661
f 672 660 673
f 674 661 662
f 673 661 674
f 675 662 663
f 674 662 675
f 676 663 664
f 675 663 676
f 677 664 665
f 676 664 677
f 586 677 585
f 677 666 585
f 677 665 666
f 585 666 588
f 588 666 667
f 588 667 590
f 590 667 668
f 590 668 579
f 678 593 669
f 669 593 583
f 679 669 670
f 678 669 679
f 680 670 671
f 679 670 680
f 681 671 672
f 680 671 681
f 682 672 673
f 681 672 682
f 683 673 674
f 682 673 683
f 684 674 675
f 683 674 684
f 596 684 595
f 684 676 595
f 684 675 676
f 595 676 598
f 598 676 677
f 598 677 586
f 678 603 593
f 603 678 605
f 678 685 605
f 678 679 685
f 686 679 680
f 685 679 686
f 687 680 681
f 686 680 687
f 608 687 607
f 687 682 607
f 687 681 682
f 607 682 610
f 610 682 683
f 610 683 611
f 683 688 611
f 683 684 688
f 612 689 596
f 689 684 596
f 689 688 684
f 613 689 612
f 685 619 605
f 619 685 621
f 685 690 621
f 685 686 690
f 691 686 687
f 690 686 691
f 622 692 608
f 692 687 608
f 692 691 687
f 623 692 622
f 688 625 611
f 625 688 628
f 628 688 689
f 628 689 613
f 690 634 621
f 634 690 636
f 636 690 691
f 636 691 638
f 638 691 692
f 638 692 623
f 693 639 640
f 641 694 640
f 640 694 693
f 642 694 641
f 693 649 639
f 649 693 652
f 652 693 694
f 652 694 642
