v -10.2 -63.0 -32.0
v -10.0 -63.0 -32.8
v -10.0 -63.2 -32.0
v -10.0 -63.2 -31.0
v -10.2 -63.0 -31.0
v -10.0 -63.1 -30.0
v -10.1 -63.0 -30.0
v -10.0 -63.0 -29.9
v -10.3 -62.0 -33.0
v -10.0 -62.0 -33.3
v -10.0 -62.9 -33.0
v -10.5 -62.0 -32.0
v -10.6 -62.0 -31.0
v -10.9 -62.0 -30.0
v -10.0 -62.3 -29.0
v -10.3 -62.0 -29.0
v -10.0 -62.0 -28.7
v -10.2 -61.0 -33.0
v -10.0 -61.0 -33.2
v -10.4 -61.0 -32.0
v -10.5 -61.0 -31.0
v -10.6 -61.0 -30.0
v -10.5 -61.0 -29.0
v -10.0 -61.3 -28.0
v -10.2 -61.0 -28.0
v -10.0 -61.0 -27.7
v -10.0 -60.6 -33.0
v -10.0 -60.3 -32.0
v -10.4 -60.0 -31.0
v -10.0 -60.0 -31.7
v -10.5 -60.0 -30.0
v -10.5 -60.0 -29.0
v -10.5 -60.0 -28.0
v -10.0 -60.3 -27.0
v -10.2 -60.0 -27.0
v -10.0 -60.0 -26.7
v -10.2 -59.0 -35.0
v -10.0 -59.0 -35.4
v -10.0 -59.3 -35.0
v -10.0 -59.5 -34.0
v -10.4 -59.0 -34.0
v -10.0 -59.5 -33.0
v -10.3 -59.0 -33.0
v -10.0 -59.0 -32.3
v -10.4 -59.0 -31.0
v -10.0 -59.0 -31.8
v -10.5 -59.0 -30.0
v -10.5 -59.0 -29.0
v -10.5 -59.0 -28.0
v -10.5 -59.0 -27.0
v -10.0 -59.3 -26.0
v -10.2 -59.0 -26.0
v -10.0 -59.0 -25.8
v -10.3 -58.0 -36.0
v -10.0 -58.0 -36.4
v -10.0 -58.4 -36.0
v -10.5 -58.0 -35.0
v -10.5 -58.0 -34.0
v -10.5 -58.0 -33.0
v -10.0 -58.8 -32.0
v -10.4 -58.0 -32.0
v -10.5 -58.0 -31.0
v -10.5 -58.0 -30.0
v -10.5 -58.0 -29.0
v -10.5 -58.0 -28.0
v -10.5 -58.0 -27.0
v -10.3 -58.0 -26.0
v -10.0 -58.0 -25.6
v -10.2 -57.0 -37.0
v -10.0 -57.0 -37.2
v -10.0 -57.3 -37.0
v -10.6 -57.0 -36.0
v -10.5 -57.0 -35.0
v -10.5 -57.0 -34.0
v -10.5 -57.0 -33.0
v -10.5 -57.0 -32.0
v -10.5 -57.0 -31.0
v -10.5 -57.0 -30.0
v -10.5 -57.0 -29.0
v -10.5 -57.0 -28.0
v -10.5 -57.0 -27.0
v -10.3 -57.0 -26.0
v -10.0 -57.0 -25.7
v -10.1 -56.0 -37.0
v -10.0 -56.0 -37.1
v -10.9 -56.0 -36.0
v -10.7 -56.0 -35.0
v -10.5 -56.0 -34.0
v -10.5 -56.0 -33.0
v -10.5 -56.0 -32.0
v -10.5 -56.0 -31.0
v -10.5 -56.0 -30.0
v -10.5 -56.0 -29.0
v -10.5 -56.0 -28.0
v -10.4 -56.0 -27.0
v -10.0 -56.0 -26.4
v -10.0 -56.6 -26.0
v -10.0 -55.9 -37.0
v -10.5 -55.0 -36.0
v -10.0 -55.0 -36.5
v -10.9 -55.0 -35.0
v -10.6 -55.0 -34.0
v -10.5 -55.0 -33.0
v -10.5 -55.0 -32.0
v -10.5 -55.0 -31.0
v -10.5 -55.0 -30.0
v -10.5 -55.0 -29.0
v -10.5 -55.0 -28.0
v -10.4 -55.0 -27.0
v -10.0 -55.0 -26.6
v -10.2 -54.0 -36.0
v -10.0 -54.0 -36.2
v -10.6 -54.0 -35.0
v -10.5 -54.0 -34.0
v -10.5 -54.0 -33.0
v -10.5 -54.0 -32.0
v -10.5 -54.0 -31.0
v -10.5 -54.0 -30.0
v -10.5 -54.0 -29.0
v -10.4 -54.0 -28.0
v -10.0 -54.0 -27.0
v -10.0 -54.0 -27.0
v -10.0 -53.7 -36.0
v -10.2 -53.0 -35.0
v -10.0 -53.0 -35.3
v -10.4 -53.0 -34.0
v -10.4 -53.0 -33.0
v -10.4 -53.0 -32.0
v -10.5 -53.0 -31.0
v -10.5 -53.0 -30.0
v -10.4 -53.0 -29.0
v -10.0 -53.0 -28.4
v -10.0 -53.4 -28.0
v -10.0 -54.0 -27.0
v -10.0 -52.7 -35.0
v -10.0 -52.5 -34.0
v -10.0 -52.5 -33.0
v -10.0 -52.4 -32.0
v -10.3 -52.0 -31.0
v -10.0 -52.0 -31.5
v -10.5 -52.0 -30.0
v -10.3 -52.0 -29.0
v -10.0 -52.0 -28.6
v -10.0 -51.6 -31.0
v -10.1 -51.0 -30.0
v -10.0 -51.0 -30.2
v -10.0 -51.0 -29.7
v -10.0 -51.5 -29.0
v -10.0 -50.8 -30.0
v -9.8 -63.0 -32.0
v -9.7 -63.0 -31.0
v -9.9 -63.0 -30.0
v -9.0 -62.0 -33.2
v -9.0 -62.3 -33.0
v -9.0 -62.5 -32.0
v -9.0 -62.6 -31.0
v -9.0 -62.6 -30.0
v -9.0 -62.3 -29.0
v -9.0 -62.0 -28.6
v -9.0 -61.0 -33.5
v -9.0 -61.5 -28.0
v -9.0 -61.0 -27.5
v -9.4 -60.0 -34.0
v -9.0 -60.0 -34.5
v -9.0 -60.4 -34.0
v -9.7 -60.0 -33.0
v -9.8 -60.0 -32.0
v -9.0 -60.5 -27.0
v -9.0 -60.0 -26.5
v -9.4 -59.0 -36.0
v -9.0 -59.0 -36.3
v -9.0 -59.3 -36.0
v -9.0 -59.7 -35.0
v -9.9 -59.0 -32.0
v -9.0 -59.5 -26.0
v -9.0 -59.0 -25.6
v -9.4 -58.0 -37.0
v -9.0 -58.0 -37.3
v -9.0 -58.3 -37.0
v -9.0 -58.0 -25.4
v -9.0 -57.0 -37.4
v -9.0 -57.1 -25.0
v -9.1 -57.0 -25.0
v -9.0 -57.0 -24.9
v -9.0 -56.2 -37.0
v -9.6 -56.0 -37.0
v -9.0 -56.0 -36.8
v -9.6 -56.0 -26.0
v -9.0 -56.0 -25.5
v -9.0 -56.9 -25.0
v -9.0 -55.0 -36.5
v -9.3 -55.0 -26.0
v -9.0 -55.0 -25.7
v -9.0 -54.0 -36.4
v -9.6 -54.0 -27.0
v -9.0 -54.0 -27.0
v -9.0 -54.0 -27.0
v -9.0 -54.7 -26.0
v -9.0 -53.5 -36.0
v -9.0 -53.0 -35.6
v -9.6 -53.0 -28.0
v -9.0 -53.0 -27.4
v -9.3 -52.0 -35.0
v -9.0 -52.0 -35.2
v -9.4 -52.0 -34.0
v -9.4 -52.0 -33.0
v -9.6 -52.0 -32.0
v -9.5 -52.0 -28.0
v -9.0 -52.0 -27.5
v -9.0 -51.8 -35.0
v -9.0 -51.7 -34.0
v -9.0 -51.6 -33.0
v -9.0 -51.5 -32.0
v -9.4 -51.0 -31.0
v -9.0 -51.0 -31.4
v -9.7 -51.0 -29.0
v -9.4 -51.0 -28.0
v -9.0 -51.0 -27.5
v -9.0 -50.6 -31.0
v -9.3 -50.0 -30.0
v -9.0 -50.0 -30.3
v -9.5 -50.0 -29.0
v -9.3 -50.0 -28.0
v -9.0 -50.0 -27.7
v -9.0 -49.7 -30.0
v -9.1 -49.0 -29.0
v -9.0 -49.0 -29.1
v -9.0 -49.0 -28.9
v -9.0 -49.6 -28.0
v -9.0 -48.9 -29.0
v -8.8 -62.0 -33.0
v -8.4 -62.0 -32.0
v -8.0 -62.0 -31.4
v -8.0 -62.2 -31.0
v -8.0 -62.3 -30.0
v -8.5 -62.0 -29.0
v -8.0 -62.0 -29.5
v -8.4 -61.0 -33.0
v -8.0 -61.0 -32.5
v -8.0 -61.5 -32.0
v -8.0 -61.7 -29.0
v -8.0 -61.4 -28.0
v -8.0 -61.0 -27.5
v -8.2 -60.0 -35.0
v -8.0 -60.0 -35.1
v -8.0 -60.1 -35.0
v -8.0 -60.4 -34.0
v -8.0 -60.6 -33.0
v -8.0 -60.4 -27.0
v -8.0 -60.0 -26.6
v -8.0 -59.0 -36.4
v -8.0 -59.3 -36.0
v -8.0 -59.4 -26.0
v -8.0 -59.0 -25.6
v -8.0 -58.0 -37.4
v -8.0 -58.4 -37.0
v -8.0 -58.0 -25.4
v -8.0 -57.0 -37.5
v -8.0 -57.1 -25.0
v -8.0 -57.0 -24.9
v -8.7 -56.0 -37.0
v -8.0 -56.0 -37.3
v -8.0 -56.9 -25.0
v -8.0 -56.0 -25.4
v -8.0 -55.5 -37.0
v -8.0 -55.0 -36.7
v -8.0 -55.0 -25.5
v -8.0 -54.0 -36.3
v -8.0 -54.0 -32.0
v -8.0 -54.1 -32.0
v -8.0 -54.0 -32.0
v -8.0 -54.0 -31.8
v -8.9 -54.0 -27.0
v -8.2 -54.0 -26.0
v -8.0 -54.0 -25.9
v -8.0 -53.5 -36.0
v -8.0 -53.0 -35.7
v -8.0 -53.9 -32.0
v -8.5 -53.0 -27.0
v -8.0 -53.0 -26.5
v -8.0 -53.9 -26.0
v -8.0 -52.0 -35.4
v -8.5 -52.0 -27.0
v -8.0 -52.0 -26.6
v -8.0 -51.1 -35.0
v -8.0 -51.9 -34.0
v -8.0 -51.6 -33.0
v -8.0 -51.5 -32.0
v -8.0 -51.0 -31.3
v -8.5 -51.0 -27.0
v -8.0 -51.0 -26.6
v -8.0 -50.7 -31.0
v -8.0 -50.0 -30.3
v -8.3 -50.0 -27.0
v -8.0 -50.0 -26.8
v -8.0 -49.7 -30.0
v -8.0 -49.0 -29.3
v -8.2 -49.0 -28.0
v -8.0 -49.0 -27.9
v -8.0 -49.7 -27.0
v -8.0 -48.8 -29.0
v -8.0 -48.9 -28.0
v -7.7 -62.0 -31.0
v -7.7 -62.0 -30.0
v -7.6 -61.0 -32.0
v -7.3 -61.0 -31.0
v -7.0 -61.0 -30.5
v -7.0 -61.3 -30.0
v -7.0 -61.4 -29.0
v -7.0 -61.2 -28.0
v -7.0 -61.0 -27.8
v -7.9 -60.0 -35.0
v -7.5 -60.0 -34.0
v -7.3 -60.0 -33.0
v -7.0 -60.0 -32.5
v -7.0 -60.4 -32.0
v -7.0 -60.6 -31.0
v -7.5 -60.0 -27.0
v -7.0 -60.0 -27.4
v -7.5 -59.0 -36.0
v -7.0 -59.0 -35.5
v -7.0 -59.4 -35.0
v -7.0 -59.6 -34.0
v -7.0 -59.7 -33.0
v -7.0 -59.6 -27.0
v -7.0 -59.2 -26.0
v -7.0 -59.0 -25.8
v -7.0 -58.0 -37.2
v -7.0 -58.2 -37.0
v -7.0 -58.6 -36.0
v -7.0 -58.0 -25.6
v -7.0 -57.0 -37.5
v -7.9 -57.0 -25.0
v -7.0 -57.0 -25.6
v -7.0 -56.0 -37.4
v -7.1 -56.0 -32.0
v -7.0 -56.2 -32.0
v -7.0 -56.0 -32.2
v -7.0 -56.0 -31.7
v -7.0 -56.0 -25.6
v -7.1 -55.0 -37.0
v -7.0 -55.0 -37.1
v -7.3 -55.0 -33.0
v -7.0 -55.4 -33.0
v -7.0 -55.0 -33.3
v -7.5 -55.0 -32.0
v -7.0 -55.4 -31.0
v -7.2 -55.0 -31.0
v -7.0 -55.0 -30.7
v -7.0 -55.0 -25.7
v -7.0 -54.9 -37.0
v -7.0 -54.2 -36.0
v -7.3 -54.0 -36.0
v -7.0 -54.0 -35.8
v -7.5 -54.0 -33.0
v -7.0 -54.0 -33.5
v -7.4 -54.0 -31.0
v -7.0 -54.0 -30.7
v -7.1 -54.0 -29.0
v -7.0 -54.2 -29.0
v -7.0 -54.0 -29.3
v -7.0 -54.0 -28.8
v -7.8 -54.0 -26.0
v -7.0 -54.6 -26.0
v -7.0 -54.0 -26.4
v -7.0 -53.0 -35.8
v -7.3 -53.0 -33.0
v -7.0 -53.0 -33.4
v -7.6 -53.0 -32.0
v -7.5 -53.0 -31.0
v -7.0 -53.7 -30.0
v -7.4 -53.0 -30.0
v -7.2 -53.0 -29.0
v -7.0 -53.0 -28.7
v -7.0 -53.0 -26.6
v -7.0 -52.0 -35.4
v -7.0 -52.1 -33.0
v -7.0 -52.0 -33.0
v -7.6 -52.0 -32.0
v -7.5 -52.0 -31.0
v -7.4 -52.0 -30.0
v -7.0 -52.0 -29.4
v -7.0 -52.5 -29.0
v -7.0 -52.0 -26.7
v -7.0 -51.0 -35.0
v -7.0 -51.6 -34.0
v -7.0 -52.0 -33.0
v -7.8 -51.0 -31.0
v -7.4 -51.0 -30.0
v -7.0 -51.0 -29.5
v -7.0 -51.0 -26.7
v -7.7 -50.0 -30.0
v -7.0 -50.0 -29.3
v -7.0 -50.0 -26.8
v -7.7 -49.0 -29.0
v -7.0 -49.7 -29.0
v -7.9 -49.0 -28.0
v -7.0 -49.6 -28.0
v -7.0 -49.8 -27.0
v -6.7 -61.0 -30.0
v -6.7 -61.0 -29.0
v -6.8 -61.0 -28.0
v -6.6 -60.0 -32.0
v -6.6 -60.0 -31.0
v -6.5 -60.0 -30.0
v -6.5 -60.0 -29.0
v -6.6 -60.0 -28.0
v -6.5 -59.0 -35.0
v -6.0 -59.0 -34.4
v -6.0 -59.3 -34.0
v -6.0 -59.4 -33.0
v -6.0 -59.3 -32.0
v -6.0 -59.0 -31.6
v -6.4 -59.0 -31.0
v -6.5 -59.0 -30.0
v -6.5 -59.0 -29.0
v -6.5 -59.0 -28.0
v -6.6 -59.0 -27.0
v -6.8 -59.0 -26.0
v -6.7 -58.0 -37.0
v -6.4 -58.0 -36.0
v -6.0 -58.0 -35.5
v -6.0 -58.5 -35.0
v -6.4 -58.0 -31.0
v -6.0 -58.0 -31.5
v -6.5 -58.0 -30.0
v -6.5 -58.0 -29.0
v -6.5 -58.0 -28.0
v -6.5 -58.0 -27.0
v -6.6 -58.0 -26.0
v -6.0 -57.0 -37.1
v -6.0 -57.1 -37.0
v -6.0 -57.6 -36.0
v -6.3 -57.0 -32.0
v -6.0 -57.4 -32.0
v -6.0 -57.0 -32.5
v -6.5 -57.0 -31.0
v -6.5 -57.0 -30.0
v -6.5 -57.0 -29.0
v -6.5 -57.0 -28.0
v -6.5 -57.0 -27.0
v -6.6 -57.0 -26.0
v -6.0 -56.9 -37.0
v -6.4 -56.0 -37.0
v -6.0 -56.0 -36.6
v -6.5 -56.0 -33.0
v -6.0 -56.5 -33.0
v -6.0 -56.0 -33.6
v -6.7 -56.0 -31.0
v -6.5 -56.0 -30.0
v -6.5 -56.0 -29.0
v -6.5 -56.0 -28.0
v -6.4 -56.0 -27.0
v -6.6 -56.0 -26.0
v -6.9 -55.0 -37.0
v -6.0 -55.0 -36.3
v -6.4 -55.0 -34.0
v -6.0 -55.5 -34.0
v -6.0 -55.0 -34.6
v -6.6 -55.0 -30.0
v -6.6 -55.0 -29.0
v -6.4 -55.0 -28.0
v -6.1 -55.0 -27.0
v -6.7 -55.0 -26.0
v -6.0 -54.8 -36.0
v -6.5 -54.0 -35.0
v -6.0 -54.6 -35.0
v -6.6 -54.0 -34.0
v -6.8 -54.0 -30.0
v -6.6 -54.0 -28.0
v -6.5 -54.0 -27.0
v -6.6 -53.0 -35.0
v -6.6 -53.0 -34.0
v -6.6 -53.0 -28.0
v -6.6 -53.0 -27.0
v -6.7 -52.0 -35.0
v -6.7 -52.0 -34.0
v -7.0 -52.0 -33.0
v -6.7 -52.0 -29.0
v -6.5 -52.0 -28.0
v -6.7 -52.0 -27.0
v -6.6 -51.0 -29.0
v -6.5 -51.0 -28.0
v -6.7 -51.0 -27.0
v -6.8 -50.0 -29.0
v -6.6 -50.0 -28.0
v -6.8 -50.0 -27.0
v -5.7 -59.0 -34.0
v -5.5 -59.0 -33.0
v -5.7 -59.0 -32.0
v -5.6 -58.0 -35.0
v -5.0 -58.0 -34.1
v -5.0 -58.1 -34.0
v -5.0 -58.3 -33.0
v -5.0 -58.0 -32.1
v -5.0 -58.0 -32.0
v -5.9 -57.0 -37.0
v -5.6 -57.0 -36.0
v -5.5 -57.0 -35.0
v -5.0 -57.9 -34.0
v -5.4 -57.0 -34.0
v -5.6 -57.0 -33.0
v -5.0 -57.7 -33.0
v -5.6 -56.0 -36.0
v -5.5 -56.0 -35.0
v -5.7 -56.0 -34.0
v -5.8 -55.0 -36.0
v -5.7 -55.0 -35.0
v -4.9 -58.0 -34.0
v -4.8 -58.0 -33.0
f 3 2 1
f 5 4 1
f 1 4 3
f 7 6 5
f 5 6 4
f 7 8 6
f 11 10 9
f 11 9 2
f 9 1 2
f 9 12 1
f 1 13 5
f 1 12 13
f 5 14 7
f 5 13 14
f 8 7 15
f 7 16 15
f 7 14 16
f 16 17 15
f 9 10 18
f 18 10 19
f 9 20 12
f 9 18 20
f 12 21 13
f 12 20 21
f 13 22 14
f 13 21 22
f 14 23 16
f 14 22 23
f 17 16 24
f 16 25 24
f 16 23 25
f 25 26 24
f 19 27 18
f 18 27 20
f 20 27 28
f 30 29 28
f 29 20 28
f 29 21 20
f 21 31 22
f 21 29 31
f 22 32 23
f 22 31 32
f 23 33 25
f 23 32 33
f 26 25 34
f 25 35 34
f 25 33 35
f 35 36 34
f 39 38 37
f 41 40 37
f 37 40 39
f 43 42 41
f 41 42 40
f 43 44 42
f 29 30 45
f 45 30 46
f 29 47 31
f 29 45 47
f 31 48 32
f 31 47 48
f 32 49 33
f 32 48 49
f 33 50 35
f 33 49 50
f 36 35 51
f 35 52 51
f 35 50 52
f 52 53 51
f 56 55 54
f 56 54 38
f 54 37 38
f 54 57 37
f 37 58 41
f 37 57 58
f 41 59 43
f 41 58 59
f 44 43 60
f 43 61 60
f 43 59 61
f 60 61 46
f 61 45 46
f 61 62 45
f 45 63 47
f 45 62 63
f 47 64 48
f 47 63 64
f 48 65 49
f 48 64 65
f 49 66 50
f 49 65 66
f 50 67 52
f 50 66 67
f 53 52 68
f 68 52 67
f 71 70 69
f 71 69 55
f 69 54 55
f 69 72 54
f 54 73 57
f 54 72 73
f 57 74 58
f 57 73 74
f 58 75 59
f 58 74 75
f 59 76 61
f 59 75 76
f 61 77 62
f 61 76 77
f 62 78 63
f 62 77 78
f 63 79 64
f 63 78 79
f 64 80 65
f 64 79 80
f 65 81 66
f 65 80 81
f 66 82 67
f 66 81 82
f 68 67 83
f 83 67 82
f 69 70 84
f 84 70 85
f 69 86 72
f 69 84 86
f 72 87 73
f 72 86 87
f 73 88 74
f 73 87 88
f 74 89 75
f 74 88 89
f 75 90 76
f 75 89 90
f 76 91 77
f 76 90 91
f 77 92 78
f 77 91 92
f 78 93 79
f 78 92 93
f 79 94 80
f 79 93 94
f 80 95 81
f 80 94 95
f 97 82 96
f 82 95 96
f 82 81 95
f 82 97 83
f 85 98 84
f 100 99 98
f 99 84 98
f 99 86 84
f 86 101 87
f 86 99 101
f 87 102 88
f 87 101 102
f 88 103 89
f 88 102 103
f 89 104 90
f 89 103 104
f 90 105 91
f 90 104 105
f 91 106 92
f 91 105 106
f 92 107 93
f 92 106 107
f 93 108 94
f 93 107 108
f 94 109 95
f 94 108 109
f 96 95 110
f 110 95 109
f 99 100 111
f 111 100 112
f 99 113 101
f 99 111 113
f 101 114 102
f 101 113 114
f 102 115 103
f 102 114 115
f 103 116 104
f 103 115 116
f 104 117 105
f 104 116 117
f 105 118 106
f 105 117 118
f 106 119 107
f 106 118 119
f 107 120 108
f 107 119 120
f 108 121 109
f 108 120 121
f 110 109 122
f 122 109 121
f 112 123 111
f 125 124 123
f 124 111 123
f 124 113 111
f 113 126 114
f 113 124 126
f 114 127 115
f 114 126 127
f 115 128 116
f 115 127 128
f 116 129 117
f 116 128 129
f 117 130 118
f 117 129 130
f 118 131 119
f 118 130 131
f 133 120 132
f 120 131 132
f 120 119 131
f 120 133 121
f 121 133 134
f 121 134 122
f 125 135 124
f 124 135 126
f 126 135 136
f 126 136 127
f 127 136 137
f 127 137 128
f 128 137 138
f 140 139 138
f 139 128 138
f 139 129 128
f 129 141 130
f 129 139 141
f 130 142 131
f 130 141 142
f 132 131 143
f 143 131 142
f 140 144 139
f 146 145 144
f 145 139 144
f 145 141 139
f 148 142 147
f 142 145 147
f 142 141 145
f 142 148 143
f 146 149 145
f 145 149 147
f 150 2 3
f 4 151 3
f 3 151 150
f 6 152 4
f 4 152 151
f 8 152 6
f 154 153 11
f 11 153 10
f 11 2 150
f 155 11 150
f 154 11 155
f 155 150 151
f 155 151 156
f 156 151 152
f 156 152 157
f 157 152 8
f 15 157 8
f 158 157 15
f 15 17 158
f 158 17 159
f 153 19 10
f 160 19 153
f 161 159 17
f 161 17 24
f 24 26 161
f 161 26 162
f 165 164 163
f 163 166 27
f 160 163 27
f 19 160 27
f 163 160 165
f 167 28 27
f 167 27 166
f 167 30 28
f 168 162 26
f 168 26 34
f 34 36 168
f 168 36 169
f 172 171 170
f 38 39 170
f 39 172 170
f 39 173 172
f 40 163 164
f 173 40 164
f 39 40 173
f 163 40 42
f 163 42 166
f 166 42 44
f 174 166 44
f 167 166 174
f 174 46 30
f 174 30 167
f 175 169 36
f 175 36 51
f 51 53 175
f 175 53 176
f 179 178 177
f 179 177 171
f 171 177 170
f 177 55 170
f 55 56 170
f 170 56 38
f 60 174 44
f 174 60 46
f 68 176 53
f 68 180 176
f 177 178 71
f 178 70 71
f 178 181 70
f 177 71 55
f 83 183 182
f 180 83 182
f 68 83 180
f 183 184 182
f 186 85 185
f 85 181 185
f 85 70 181
f 187 186 185
f 96 188 97
f 188 189 97
f 97 189 83
f 189 190 83
f 190 183 83
f 183 190 184
f 186 98 85
f 100 98 186
f 187 100 186
f 191 100 187
f 110 192 188
f 110 188 96
f 189 188 193
f 193 188 192
f 191 112 100
f 194 112 191
f 197 196 195
f 196 198 192
f 122 196 192
f 110 122 192
f 195 196 122
f 192 198 193
f 194 199 112
f 112 199 123
f 125 123 199
f 125 199 200
f 132 201 133
f 202 197 195
f 133 202 195
f 134 133 195
f 202 133 201
f 134 195 122
f 135 125 203
f 125 204 203
f 125 200 204
f 205 136 135
f 205 135 203
f 206 137 136
f 206 136 205
f 207 138 137
f 207 137 206
f 207 140 138
f 143 208 201
f 143 201 132
f 202 201 209
f 209 201 208
f 204 210 203
f 203 210 205
f 205 210 211
f 205 211 206
f 206 211 212
f 206 212 207
f 207 212 213
f 213 215 214
f 213 214 144
f 207 213 144
f 140 207 144
f 214 146 144
f 147 216 148
f 208 143 148
f 216 208 148
f 217 208 216
f 209 208 218
f 218 208 217
f 215 219 214
f 219 221 220
f 219 220 149
f 214 219 149
f 146 214 149
f 216 147 149
f 220 216 149
f 222 216 220
f 216 223 217
f 216 222 223
f 218 217 224
f 224 217 223
f 221 225 220
f 227 226 225
f 226 220 225
f 226 222 220
f 229 223 228
f 223 226 228
f 223 222 226
f 223 229 224
f 227 230 226
f 226 230 228
f 231 153 154
f 155 232 154
f 154 232 231
f 232 155 233
f 155 234 233
f 155 156 234
f 235 156 157
f 235 234 156
f 237 235 236
f 235 158 236
f 235 157 158
f 159 236 158
f 238 160 231
f 231 160 153
f 232 240 239
f 238 232 239
f 231 232 238
f 240 232 233
f 241 237 236
f 241 236 159
f 161 241 159
f 242 241 161
f 161 162 242
f 242 162 243
f 246 245 244
f 164 165 244
f 165 246 244
f 165 247 246
f 165 160 238
f 248 165 238
f 247 165 248
f 248 238 239
f 249 243 162
f 249 162 168
f 168 169 249
f 249 169 250
f 252 251 172
f 172 251 171
f 173 244 245
f 252 173 245
f 172 173 252
f 244 173 164
f 253 250 169
f 253 169 175
f 175 176 253
f 253 176 254
f 256 255 179
f 179 255 178
f 179 171 251
f 179 251 256
f 180 254 176
f 180 257 254
f 255 181 178
f 258 181 255
f 259 257 180
f 259 180 182
f 182 184 259
f 259 184 260
f 185 181 261
f 181 262 261
f 181 258 262
f 261 187 185
f 264 263 190
f 264 190 189
f 184 190 260
f 260 190 263
f 262 265 261
f 187 261 265
f 266 187 265
f 191 187 266
f 193 264 189
f 193 267 264
f 266 194 191
f 268 194 266
f 271 270 269
f 272 269 270
f 197 273 196
f 274 198 196
f 274 196 273
f 274 275 198
f 275 193 198
f 275 267 193
f 268 276 194
f 194 276 199
f 200 199 276
f 200 276 277
f 278 271 269
f 278 269 272
f 202 279 273
f 202 273 197
f 281 274 280
f 274 279 280
f 274 273 279
f 274 281 275
f 277 204 200
f 282 204 277
f 209 283 279
f 209 279 202
f 280 279 284
f 284 279 283
f 282 285 204
f 204 285 210
f 210 286 211
f 285 286 210
f 211 287 212
f 286 287 211
f 212 288 213
f 287 288 212
f 215 213 288
f 215 288 289
f 218 290 283
f 218 283 209
f 284 283 291
f 291 283 290
f 289 292 215
f 215 292 219
f 221 219 292
f 221 292 293
f 224 294 290
f 224 290 218
f 291 290 295
f 295 290 294
f 293 296 221
f 221 296 225
f 227 225 296
f 227 296 297
f 228 298 229
f 298 299 229
f 229 299 224
f 299 300 224
f 300 294 224
f 294 300 295
f 297 301 227
f 227 301 230
f 228 230 298
f 230 302 298
f 230 301 302
f 298 302 299
f 303 233 234
f 235 304 234
f 234 304 303
f 237 304 235
f 305 239 240
f 233 303 240
f 303 305 240
f 303 306 305
f 304 308 307
f 306 304 307
f 303 304 306
f 308 304 237
f 241 308 237
f 309 308 241
f 310 241 242
f 310 309 241
f 242 243 310
f 310 243 311
f 312 245 246
f 247 313 246
f 246 313 312
f 248 314 247
f 247 314 313
f 315 314 248
f 315 248 239
f 316 315 239
f 305 316 239
f 316 305 306
f 316 306 317
f 317 306 307
f 243 249 318
f 319 243 318
f 311 243 319
f 250 318 249
f 320 251 252
f 321 320 252
f 321 252 245
f 322 321 245
f 312 322 245
f 322 312 313
f 322 313 323
f 323 313 314
f 323 314 324
f 324 314 315
f 325 319 318
f 325 318 250
f 253 325 250
f 326 325 253
f 253 254 326
f 326 254 327
f 329 328 256
f 256 328 255
f 256 251 320
f 330 256 320
f 329 256 330
f 330 320 321
f 257 327 254
f 257 331 327
f 328 258 255
f 332 258 328
f 257 259 333
f 334 257 333
f 331 257 334
f 260 333 259
f 332 262 258
f 335 262 332
f 338 337 336
f 339 336 337
f 334 333 263
f 264 334 263
f 340 334 264
f 263 333 260
f 265 262 341
f 262 342 341
f 262 335 342
f 341 266 265
f 345 344 343
f 343 344 338
f 336 343 338
f 346 343 336
f 336 339 347
f 348 336 347
f 346 336 348
f 349 348 347
f 267 340 264
f 267 350 340
f 342 351 341
f 268 266 341
f 352 268 341
f 351 352 341
f 268 352 353
f 354 353 352
f 345 343 355
f 345 355 356
f 271 355 270
f 355 346 270
f 355 343 346
f 270 346 272
f 346 357 272
f 346 348 357
f 348 349 358
f 348 358 357
f 361 360 359
f 362 359 360
f 365 364 363
f 364 350 363
f 350 275 363
f 350 267 275
f 353 276 268
f 277 276 353
f 354 277 353
f 366 277 354
f 356 355 367
f 356 367 368
f 278 369 271
f 369 355 271
f 369 367 355
f 272 357 278
f 357 369 278
f 357 370 369
f 357 358 371
f 372 357 371
f 370 357 372
f 372 371 361
f 359 372 361
f 373 372 359
f 359 362 374
f 359 374 373
f 365 363 281
f 280 365 281
f 375 365 280
f 281 363 275
f 366 282 277
f 376 282 366
f 377 368 367
f 379 378 377
f 367 379 377
f 369 379 367
f 380 369 370
f 379 369 380
f 381 370 372
f 380 370 381
f 373 383 382
f 381 373 382
f 372 373 381
f 383 373 374
f 284 375 280
f 284 384 375
f 376 385 282
f 282 385 285
f 285 386 286
f 385 386 285
f 286 387 287
f 386 387 286
f 379 288 378
f 288 387 378
f 288 287 387
f 288 379 289
f 379 388 289
f 379 380 388
f 389 380 381
f 388 380 389
f 381 382 390
f 381 390 389
f 291 384 284
f 291 391 384
f 388 292 289
f 292 388 293
f 388 392 293
f 388 389 392
f 389 390 393
f 389 393 392
f 295 391 291
f 295 394 391
f 392 296 293
f 396 395 297
f 396 297 296
f 393 396 296
f 392 393 296
f 398 397 395
f 398 395 396
f 300 299 397
f 398 300 397
f 399 300 398
f 295 300 394
f 394 300 399
f 395 301 297
f 301 395 302
f 302 395 397
f 302 397 299
f 400 307 308
f 309 401 308
f 308 401 400
f 310 402 309
f 309 402 401
f 311 402 310
f 403 315 316
f 317 404 316
f 316 404 403
f 307 400 317
f 400 404 317
f 400 405 404
f 406 400 401
f 405 400 406
f 407 401 402
f 406 401 407
f 319 407 311
f 311 407 402
f 408 321 322
f 408 322 409
f 322 410 409
f 322 323 410
f 411 323 324
f 411 410 323
f 324 315 403
f 412 324 403
f 411 324 412
f 414 413 412
f 403 414 412
f 404 414 403
f 415 404 405
f 414 404 415
f 416 405 406
f 415 405 416
f 417 406 407
f 416 406 417
f 325 418 319
f 418 407 319
f 418 417 407
f 326 419 325
f 325 419 418
f 327 419 326
f 420 328 329
f 330 421 329
f 329 421 420
f 422 421 330
f 422 330 321
f 423 422 321
f 408 423 321
f 423 408 409
f 413 414 424
f 413 424 425
f 426 414 415
f 424 414 426
f 427 415 416
f 426 415 427
f 428 416 417
f 427 416 428
f 429 417 418
f 428 417 429
f 430 418 419
f 429 418 430
f 331 430 327
f 327 430 419
f 432 431 420
f 431 328 420
f 431 332 328
f 432 420 421
f 432 421 433
f 433 421 422
f 436 435 434
f 434 435 425
f 424 434 425
f 437 434 424
f 438 424 426
f 437 424 438
f 439 426 427
f 438 426 439
f 440 427 428
f 439 427 440
f 441 428 429
f 440 428 441
f 442 429 430
f 441 429 442
f 334 442 331
f 331 442 430
f 444 335 443
f 335 431 443
f 335 332 431
f 445 444 443
f 448 447 446
f 446 447 436
f 446 436 434
f 338 446 434
f 337 338 434
f 337 434 339
f 434 449 339
f 434 437 449
f 450 437 438
f 449 437 450
f 451 438 439
f 450 438 451
f 452 439 440
f 451 439 452
f 453 440 441
f 452 440 453
f 454 441 442
f 453 441 454
f 340 454 334
f 334 454 442
f 455 342 444
f 444 342 335
f 444 445 456
f 444 456 455
f 459 458 457
f 457 458 448
f 457 448 446
f 345 457 446
f 344 345 446
f 344 446 338
f 449 347 339
f 347 449 349
f 449 460 349
f 449 450 460
f 461 450 451
f 460 450 461
f 462 451 452
f 461 451 462
f 463 452 453
f 462 452 463
f 464 453 454
f 463 453 464
f 350 464 340
f 340 464 454
f 455 351 342
f 456 465 455
f 465 351 455
f 465 352 351
f 467 466 354
f 352 467 354
f 465 467 352
f 466 467 459
f 457 466 459
f 468 466 457
f 356 468 345
f 345 468 457
f 469 358 460
f 460 358 349
f 361 469 360
f 469 461 360
f 469 460 461
f 360 461 362
f 461 470 362
f 461 462 470
f 471 462 463
f 470 462 471
f 365 471 364
f 471 464 364
f 471 463 464
f 364 464 350
f 472 366 466
f 466 366 354
f 473 466 468
f 472 466 473
f 368 473 356
f 356 473 468
f 469 371 358
f 371 469 361
f 474 374 470
f 470 374 362
f 475 470 471
f 474 470 475
f 375 475 365
f 365 475 471
f 476 376 472
f 472 376 366
f 477 472 473
f 476 472 477
f 377 478 368
f 478 473 368
f 478 477 473
f 378 478 377
f 479 382 383
f 374 474 383
f 474 479 383
f 474 480 479
f 481 474 475
f 480 474 481
f 384 481 375
f 375 481 475
f 476 385 376
f 385 476 386
f 386 476 477
f 386 477 387
f 387 477 478
f 387 478 378
f 482 390 479
f 479 390 382
f 483 479 480
f 482 479 483
f 484 480 481
f 483 480 484
f 391 484 384
f 384 484 481
f 485 393 482
f 482 393 390
f 486 482 483
f 485 482 486
f 487 483 484
f 486 483 487
f 394 487 391
f 391 487 484
f 485 396 393
f 396 485 398
f 398 485 486
f 398 486 399
f 399 486 487
f 399 487 394
f 488 409 410
f 411 489 410
f 410 489 488
f 412 490 411
f 411 490 489
f 413 490 412
f 491 422 423
f 492 491 423
f 492 423 409
f 493 492 409
f 488 493 409
f 493 488 489
f 493 489 494
f 496 495 494
f 489 496 494
f 490 496 489
f 425 496 413
f 413 496 490
f 497 431 432
f 433 498 432
f 432 498 497
f 422 491 433
f 491 498 433
f 491 499 498
f 491 492 500
f 501 491 500
f 499 491 501
f 503 502 501
f 503 501 500
f 502 503 495
f 502 495 496
f 436 502 496
f 435 436 496
f 435 496 425
f 497 443 431
f 443 497 445
f 497 504 445
f 497 498 504
f 505 498 499
f 504 498 505
f 506 499 501
f 505 499 506
f 448 506 447
f 506 502 447
f 506 501 502
f 447 502 436
f 507 456 504
f 504 456 445
f 508 504 505
f 507 504 508
f 459 508 458
f 508 506 458
f 508 505 506
f 458 506 448
f 507 465 456
f 465 507 467
f 467 507 508
f 467 508 459
f 509 492 493
f 494 510 493
f 493 510 509
f 495 510 494
f 509 500 492
f 500 509 503
f 503 509 510
f 503 510 495
