v 30.7 47.0 17.0
v 31.0 47.0 16.6
v 31.0 46.2 17.0
v 31.0 46.6 18.0
v 30.7 47.0 18.0
v 31.0 47.0 18.3
v 30.7 48.0 17.0
v 31.0 48.0 16.7
v 30.6 48.0 18.0
v 31.0 48.0 18.6
v 31.0 48.4 17.0
v 30.7 49.0 18.0
v 31.0 49.0 17.5
v 31.0 48.7 19.0
v 30.9 49.0 19.0
v 31.0 49.0 19.2
v 30.9 50.0 18.0
v 31.0 50.0 17.9
v 31.0 50.0 18.1
v 31.0 49.3 19.0
v 31.0 50.1 18.0
v 30.7 55.0 27.0
v 31.0 55.0 26.5
v 31.0 54.6 27.0
v 31.0 54.6 28.0
v 30.6 55.0 28.0
v 31.0 54.9 29.0
v 30.9 55.0 29.0
v 31.0 55.0 29.1
v 31.0 56.0 25.0
v 31.0 56.0 25.0
v 31.0 56.0 25.0
v 31.0 55.4 26.0
v 30.6 56.0 26.0
v 30.5 56.0 27.0
v 30.7 56.0 28.0
v 31.0 56.0 28.4
v 31.0 55.1 29.0
v 30.7 57.0 25.0
v 31.0 57.0 24.7
v 30.5 57.0 26.0
v 30.6 57.0 27.0
v 31.0 57.0 27.6
v 31.0 56.4 28.0
v 30.8 58.0 25.0
v 31.0 58.0 24.8
v 30.7 58.0 26.0
v 30.8 58.0 27.0
v 31.0 58.0 27.8
v 31.0 58.2 25.0
v 31.0 58.3 26.0
v 31.0 58.2 27.0
v 31.9 47.0 14.0
v 32.0 47.0 13.9
v 32.0 46.9 14.0
v 32.0 46.6 15.0
v 31.7 47.0 15.0
v 32.0 46.1 16.0
v 31.4 47.0 16.0
v 32.0 46.2 17.0
v 32.0 46.1 18.0
v 32.0 46.7 19.0
v 31.6 47.0 19.0
v 32.0 47.0 19.4
v 32.0 47.1 14.0
v 31.7 48.0 15.0
v 32.0 48.0 14.6
v 31.5 48.0 16.0
v 31.3 48.0 19.0
v 32.0 47.6 20.0
v 31.7 48.0 20.0
v 32.0 48.0 20.2
v 32.0 48.3 15.0
v 32.0 48.6 16.0
v 31.5 49.0 17.0
v 32.0 49.0 16.4
v 31.6 49.0 20.0
v 32.0 49.0 20.4
v 32.0 49.6 17.0
v 32.0 50.0 17.3
v 31.3 50.0 19.0
v 31.7 50.0 20.0
v 32.0 50.0 20.3
v 31.7 51.0 18.0
v 32.0 51.0 17.6
v 31.7 51.0 19.0
v 32.0 51.0 19.5
v 32.0 50.5 20.0
v 32.0 51.4 18.0
v 32.0 51.4 19.0
v 31.7 54.0 26.0
v 32.0 54.0 25.7
v 32.0 53.7 26.0
v 32.0 53.5 27.0
v 31.5 54.0 27.0
v 32.0 53.6 28.0
v 31.5 54.0 28.0
v 32.0 53.8 29.0
v 31.7 54.0 29.0
v 32.0 54.0 29.2
v 31.4 55.0 26.0
v 32.0 55.0 25.5
v 32.0 55.0 29.5
v 31.2 56.0 25.0
v 32.0 56.0 25.1
v 31.6 56.0 29.0
v 32.0 56.0 29.3
v 32.0 57.0 24.5
v 32.0 56.1 25.0
v 32.0 56.6 28.0
v 32.0 57.0 27.6
v 32.0 56.2 29.0
v 32.0 58.0 24.4
v 31.3 58.0 27.0
v 32.0 57.6 27.0
v 32.0 58.0 26.5
v 32.0 59.0 24.0
v 32.0 59.0 24.0
v 32.0 58.9 24.0
v 32.0 59.0 24.0
v 32.0 58.5 25.0
v 32.0 58.3 26.0
v 31.9 60.0 23.0
v 32.0 60.0 22.3
v 32.0 59.8 23.0
v 32.0 59.3 24.0
v 32.0 60.0 23.7
v 32.0 60.1 23.0
v 33.0 47.0 13.0
v 33.0 47.0 13.0
v 33.0 47.0 13.0
v 33.0 46.6 14.0
v 33.0 46.5 15.0
v 33.0 46.5 16.0
v 33.0 46.6 17.0
v 33.0 46.6 18.0
v 33.0 46.5 19.0
v 33.0 46.7 20.0
v 32.6 47.0 20.0
v 33.0 47.0 20.3
v 33.0 48.0 13.0
v 33.0 48.0 13.0
v 32.4 48.0 14.0
v 33.0 48.0 20.6
v 33.0 48.0 13.0
v 33.0 48.5 14.0
v 32.6 49.0 15.0
v 33.0 49.0 14.6
v 32.3 49.0 16.0
v 33.0 49.0 20.8
v 33.0 49.4 15.0
v 32.7 50.0 16.0
v 33.0 50.0 15.6
v 32.3 50.0 17.0
v 33.0 49.4 21.0
v 32.6 50.0 21.0
v 33.0 50.0 21.5
v 33.0 50.5 16.0
v 32.5 51.0 17.0
v 33.0 51.0 16.4
v 32.3 51.0 20.0
v 32.5 51.0 21.0
v 33.0 50.8 22.0
v 32.9 51.0 22.0
v 33.0 51.0 22.2
v 32.6 52.0 17.0
v 33.0 52.0 16.6
v 32.5 52.0 18.0
v 32.4 52.0 19.0
v 32.6 52.0 20.0
v 32.8 52.0 21.0
v 33.0 52.0 21.3
v 33.0 51.2 22.0
v 33.0 52.8 17.0
v 33.0 52.7 18.0
v 32.9 53.0 19.0
v 33.0 53.0 18.8
v 33.0 53.0 19.1
v 33.0 52.5 20.0
v 33.0 52.2 21.0
v 32.7 53.0 25.0
v 33.0 53.0 24.7
v 33.0 52.7 25.0
v 33.0 52.5 26.0
v 32.5 53.0 26.0
v 33.0 52.6 27.0
v 32.6 53.0 27.0
v 33.0 53.0 27.4
v 33.0 53.1 19.0
v 32.5 54.0 25.0
v 33.0 54.0 24.5
v 33.0 53.4 28.0
v 33.0 53.6 29.0
v 33.0 54.0 29.4
v 32.5 55.0 25.0
v 33.0 55.0 24.4
v 33.0 54.9 30.0
v 32.9 55.0 30.0
v 33.0 55.0 30.1
v 32.7 56.0 24.0
v 33.0 56.0 23.6
v 33.0 55.5 24.0
v 32.1 56.0 25.0
v 33.0 55.1 30.0
v 33.0 56.0 29.3
v 32.5 57.0 24.0
v 33.0 57.0 23.5
v 33.0 56.6 28.0
v 33.0 57.0 27.5
v 33.0 56.3 29.0
v 33.0 58.0 20.0
v 33.0 58.0 20.0
v 33.0 58.0 20.0
v 33.0 57.7 21.0
v 32.8 58.0 21.0
v 33.0 57.9 22.0
v 32.9 58.0 22.0
v 33.0 58.0 22.2
v 32.4 58.0 24.0
v 33.0 58.0 23.4
v 32.7 58.0 26.0
v 33.0 57.8 26.0
v 33.0 58.0 25.8
v 33.0 57.4 27.0
v 33.0 58.0 20.0
v 33.0 58.3 21.0
v 33.0 58.2 22.0
v 33.0 59.0 23.5
v 33.0 59.0 24.3
v 33.0 58.5 25.0
v 32.1 60.0 22.0
v 33.0 60.0 21.6
v 33.0 59.5 22.0
v 33.0 59.6 23.0
v 33.0 60.0 23.2
v 33.0 59.4 24.0
v 33.0 60.8 22.0
v 33.0 60.2 23.0
v 33.0 47.0 13.0
v 34.0 47.0 13.6
v 34.0 46.7 14.0
v 34.0 46.7 15.0
v 33.6 47.0 16.0
v 34.0 47.0 15.5
v 33.4 47.0 17.0
v 33.5 47.0 18.0
v 34.0 47.0 18.6
v 34.0 46.7 19.0
v 34.0 46.5 20.0
v 34.0 46.7 21.0
v 33.7 47.0 21.0
v 34.0 47.0 21.4
v 33.0 48.0 13.0
v 34.0 48.0 13.4
v 34.0 47.5 16.0
v 34.0 48.0 16.6
v 33.8 48.0 17.0
v 33.7 48.0 18.0
v 34.0 48.0 18.6
v 33.4 48.0 21.0
v 34.0 47.5 22.0
v 33.7 48.0 22.0
v 34.0 48.0 22.4
v 34.0 48.9 14.0
v 34.0 49.0 14.1
v 34.0 48.2 17.0
v 34.0 48.3 18.0
v 33.2 49.0 21.0
v 33.5 49.0 22.0
v 34.0 48.6 23.0
v 33.7 49.0 23.0
v 34.0 49.0 23.3
v 33.9 49.0 28.0
v 34.0 49.0 27.8
v 34.0 48.7 28.0
v 34.0 49.0 28.4
v 33.5 50.0 15.0
v 34.0 50.0 14.6
v 33.3 50.0 22.0
v 33.6 50.0 23.0
v 34.0 50.0 23.5
v 33.8 50.0 27.0
v 34.0 50.0 26.8
v 34.0 49.7 27.0
v 33.7 50.0 28.0
v 34.0 50.0 28.4
v 34.0 50.6 15.0
v 33.4 51.0 16.0
v 34.0 51.0 15.3
v 33.5 51.0 23.0
v 34.0 51.0 23.7
v 33.6 51.0 27.0
v 34.0 51.0 26.4
v 33.7 51.0 28.0
v 34.0 51.0 28.3
v 33.5 52.0 16.0
v 34.0 52.0 15.5
v 34.0 51.9 22.0
v 34.0 52.0 21.9
v 33.7 52.0 23.0
v 34.0 52.0 22.2
v 34.0 51.4 24.0
v 33.6 52.0 24.0
v 34.0 51.5 25.0
v 33.5 52.0 25.0
v 34.0 51.4 26.0
v 33.5 52.0 26.0
v 33.5 52.0 27.0
v 33.9 52.0 28.0
v 34.0 52.0 28.1
v 33.7 53.0 16.0
v 34.0 53.0 15.7
v 33.5 53.0 17.0
v 33.4 53.0 18.0
v 34.0 52.8 20.0
v 34.0 53.0 19.7
v 34.0 52.6 21.0
v 34.0 52.5 23.0
v 33.5 53.0 24.0
v 34.0 53.0 23.4
v 34.0 52.7 28.0
v 34.0 53.0 27.9
v 33.8 54.0 16.0
v 34.0 54.0 15.8
v 34.0 54.0 16.3
v 34.0 53.2 17.0
v 34.0 53.6 18.0
v 34.0 53.5 19.0
v 33.5 54.0 24.0
v 34.0 54.0 23.5
v 34.0 53.1 28.0
v 34.0 53.5 29.0
v 34.0 54.0 29.6
v 33.8 55.0 16.0
v 34.0 55.0 15.8
v 34.0 55.0 16.4
v 33.4 55.0 24.0
v 34.0 55.0 23.3
v 34.0 54.6 30.0
v 34.0 55.0 30.2
v 34.0 56.0 16.0
v 34.0 56.0 16.0
v 34.0 56.0 16.0
v 33.7 56.0 21.0
v 34.0 56.0 20.5
v 34.0 55.6 21.0
v 34.0 55.5 22.0
v 33.6 56.0 22.0
v 34.0 55.3 23.0
v 33.5 56.0 23.0
v 33.5 56.0 29.0
v 34.0 55.7 29.0
v 34.0 56.0 28.6
v 34.0 55.2 30.0
v 34.0 56.0 16.0
v 33.9 57.0 19.0
v 34.0 57.0 18.8
v 34.0 56.8 19.0
v 34.0 56.4 20.0
v 33.5 57.0 20.0
v 33.4 57.0 21.0
v 33.4 57.0 22.0
v 33.4 57.0 23.0
v 34.0 56.5 28.0
v 34.0 57.0 27.5
v 34.0 57.3 19.0
v 34.0 58.0 19.3
v 33.3 58.0 23.0
v 33.3 58.0 26.0
v 34.0 58.0 26.4
v 34.0 57.5 27.0
v 33.5 59.0 20.0
v 34.0 59.0 19.4
v 33.4 59.0 21.0
v 33.3 59.0 22.0
v 33.3 59.0 23.0
v 34.0 58.6 25.0
v 34.0 59.0 24.5
v 34.0 58.3 26.0
v 33.8 60.0 19.0
v 34.0 60.0 18.8
v 34.0 59.7 19.0
v 33.5 60.0 20.0
v 33.4 60.0 21.0
v 33.3 60.0 23.0
v 34.0 60.0 22.6
v 34.0 59.6 23.0
v 34.0 59.4 24.0
v 34.0 60.3 19.0
v 33.7 61.0 20.0
v 34.0 61.0 19.5
v 33.8 61.0 21.0
v 34.0 60.5 22.0
v 34.0 61.0 21.2
v 34.0 61.6 20.0
v 34.0 61.2 21.0
v 34.9 46.0 22.0
v 35.0 46.0 21.9
v 35.0 45.6 22.0
v 35.0 46.0 22.1
v 35.0 47.0 13.9
v 35.0 46.9 14.0
v 34.5 47.0 15.0
v 35.0 47.0 14.1
v 35.0 47.0 18.8
v 35.0 46.8 19.0
v 35.0 46.5 20.0
v 35.0 46.4 21.0
v 34.4 47.0 22.0
v 35.0 47.0 22.6
v 35.0 48.0 13.5
v 35.0 47.4 15.0
v 34.6 48.0 16.0
v 35.0 48.0 15.7
v 35.0 48.0 18.5
v 35.0 47.4 23.0
v 34.5 48.0 23.0
v 35.0 48.0 23.6
v 34.9 49.0 13.0
v 35.0 49.0 13.0
v 35.0 49.0 13.0
v 34.1 49.0 14.0
v 35.0 48.3 16.0
v 35.0 48.5 17.0
v 35.0 48.4 18.0
v 35.0 48.4 24.0
v 34.5 49.0 24.0
v 35.0 48.8 25.0
v 34.8 49.0 25.0
v 35.0 49.0 25.2
v 34.2 49.0 28.0
v 35.0 49.0 13.0
v 34.5 50.0 14.0
v 35.0 50.0 13.5
v 34.4 50.0 24.0
v 34.6 50.0 25.0
v 35.0 50.0 25.8
v 35.0 50.0 26.2
v 35.0 49.6 27.0
v 35.0 49.5 28.0
v 35.0 50.0 28.4
v 34.7 51.0 14.0
v 35.0 51.0 13.8
v 34.3 51.0 15.0
v 34.3 51.0 24.0
v 34.4 51.0 25.0
v 35.0 50.1 26.0
v 34.3 51.0 26.0
v 35.0 51.0 28.4
v 35.0 51.4 14.0
v 34.6 52.0 15.0
v 35.0 52.0 14.5
v 34.1 52.0 22.0
v 35.0 52.0 28.2
v 35.0 52.6 15.0
v 35.0 53.0 15.3
v 34.2 53.0 20.0
v 34.4 53.0 21.0
v 34.5 53.0 22.0
v 34.3 53.0 23.0
v 34.1 53.0 28.0
v 35.0 52.6 29.0
v 34.6 53.0 29.0
v 35.0 53.0 29.5
v 35.0 54.0 15.4
v 34.3 54.0 17.0
v 34.3 54.0 18.0
v 34.4 54.0 19.0
v 34.5 54.0 20.0
v 34.5 54.0 21.0
v 34.5 54.0 22.0
v 34.4 54.0 23.0
v 35.0 53.4 30.0
v 34.4 54.0 30.0
v 35.0 54.0 30.8
v 35.0 55.0 15.4
v 34.3 55.0 17.0
v 34.1 55.0 18.0
v 34.4 55.0 19.0
v 34.5 55.0 20.0
v 34.4 55.0 21.0
v 34.4 55.0 22.0
v 34.2 55.0 23.0
v 35.0 55.0 30.3
v 35.0 56.0 15.3
v 34.4 56.0 17.0
v 34.4 56.0 18.0
v 34.4 56.0 19.0
v 34.3 56.0 20.0
v 35.0 55.6 29.0
v 35.0 56.0 28.5
v 35.0 55.2 30.0
v 34.8 57.0 15.0
v 35.0 57.0 14.8
v 35.0 56.6 15.0
v 34.5 57.0 16.0
v 34.5 57.0 17.0
v 34.4 57.0 18.0
v 35.0 56.5 28.0
v 35.0 57.0 27.4
v 35.0 57.4 15.0
v 34.6 58.0 16.0
v 35.0 58.0 15.4
v 34.5 58.0 17.0
v 34.5 58.0 18.0
v 34.3 58.0 19.0
v 35.0 57.4 27.0
v 35.0 58.0 26.3
v 34.7 59.0 16.0
v 35.0 59.0 15.4
v 34.6 59.0 17.0
v 34.5 59.0 18.0
v 34.3 59.0 19.0
v 35.0 58.6 25.0
v 35.0 59.0 24.4
v 35.0 58.3 26.0
v 34.8 60.0 15.0
v 35.0 60.0 14.6
v 35.0 59.5 15.0
v 35.0 59.5 16.0
v 35.0 60.0 15.4
v 35.0 59.7 17.0
v 34.5 60.0 18.0
v 35.0 60.0 17.3
v 35.0 59.6 23.0
v 35.0 60.0 22.5
v 35.0 59.3 24.0
v 34.9 61.0 14.0
v 35.0 61.0 13.9
v 35.0 60.8 14.0
v 34.8 61.0 15.0
v 35.0 61.0 15.3
v 34.8 61.0 18.0
v 35.0 61.0 17.8
v 34.6 61.0 19.0
v 34.3 61.0 21.0
v 35.0 60.7 21.0
v 35.0 61.0 20.5
v 35.0 60.4 22.0
v 34.9 62.0 14.0
v 35.0 62.0 13.9
v 35.0 62.0 14.1
v 35.0 61.4 15.0
v 35.0 61.2 18.0
v 35.0 61.3 19.0
v 35.0 61.3 20.0
v 34.9 63.0 10.0
v 35.0 63.0 9.8
v 35.0 62.9 10.0
v 35.0 63.0 10.2
v 35.0 62.1 14.0
v 35.0 64.0 9.0
v 35.0 64.0 9.0
v 35.0 63.9 9.0
v 34.7 64.0 10.0
v 35.0 64.0 10.7
v 35.0 64.1 9.0
v 35.0 64.3 10.0
v 35.3 46.0 22.0
v 35.6 46.0 23.0
v 36.0 46.0 22.3
v 36.0 45.7 23.0
v 36.0 45.8 24.0
v 35.8 46.0 24.0
v 36.0 46.0 24.3
v 35.1 47.0 14.0
v 35.3 47.0 19.0
v 36.0 47.0 19.5
v 36.0 46.6 20.0
v 36.0 46.4 21.0
v 36.0 46.1 22.0
v 35.3 47.0 23.0
v 35.6 47.0 24.0
v 36.0 47.0 24.5
v 36.0 48.0 13.6
v 36.0 47.6 14.0
v 36.0 47.7 15.0
v 36.0 48.0 15.5
v 35.9 48.0 19.0
v 36.0 48.0 19.1
v 35.4 48.0 24.0
v 36.0 48.0 24.7
v 35.0 49.0 13.0
v 36.0 49.0 13.4
v 36.0 48.3 16.0
v 36.0 48.5 17.0
v 36.0 48.5 18.0
v 36.0 48.1 19.0
v 36.0 48.3 25.0
v 36.0 49.0 25.7
v 36.0 50.0 13.5
v 36.0 49.3 26.0
v 35.1 50.0 26.0
v 36.0 49.4 27.0
v 36.0 49.6 28.0
v 36.0 50.0 28.4
v 36.0 51.0 13.5
v 36.0 51.0 28.6
v 35.4 52.0 14.0
v 36.0 52.0 13.5
v 36.0 51.6 29.0
v 35.6 52.0 29.0
v 36.0 52.0 29.4
v 35.7 53.0 14.0
v 36.0 53.0 13.6
v 35.3 53.0 15.0
v 36.0 52.6 30.0
v 35.5 53.0 30.0
v 36.0 53.0 30.6
v 36.0 53.5 14.0
v 35.4 54.0 15.0
v 36.0 54.0 14.4
v 36.0 54.0 30.4
v 35.4 55.0 15.0
v 36.0 55.0 14.4
v 35.4 55.0 30.0
v 36.0 54.4 30.0
v 36.0 55.0 29.5
v 35.7 56.0 14.0
v 36.0 56.0 13.7
v 36.0 55.5 14.0
v 35.3 56.0 15.0
v 36.0 55.4 29.0
v 36.0 56.0 28.3
v 35.6 57.0 14.0
v 36.0 57.0 13.6
v 35.5 57.0 27.0
v 36.0 56.7 27.0
v 36.0 57.0 26.7
v 36.0 56.3 28.0
v 35.6 58.0 14.0
v 36.0 58.0 13.6
v 35.3 58.0 15.0
v 35.4 58.0 26.0
v 36.0 57.6 26.0
v 36.0 58.0 25.5
v 35.1 59.0 14.0
v 36.0 59.0 13.5
v 35.2 59.0 15.0
v 35.5 59.0 24.0
v 36.0 58.7 24.0
v 36.0 59.0 23.6
v 36.0 58.3 25.0
v 35.4 60.0 14.0
v 36.0 60.0 13.6
v 35.3 60.0 16.0
v 35.3 60.0 17.0
v 36.0 59.5 23.0
v 36.0 60.0 22.4
v 36.0 61.0 13.8
v 35.5 61.0 16.0
v 35.7 61.0 17.0
v 35.5 61.0 19.0
v 36.0 60.7 19.0
v 36.0 61.0 18.5
v 35.4 61.0 20.0
v 36.0 60.6 20.0
v 36.0 60.5 21.0
v 36.0 60.3 22.0
v 35.7 62.0 13.0
v 36.0 62.0 12.7
v 36.0 61.7 13.0
v 35.6 62.0 15.0
v 36.0 62.0 16.0
v 36.0 62.0 16.0
v 36.0 61.3 17.0
v 36.0 61.2 18.0
v 35.6 63.0 9.0
v 36.0 63.0 8.7
v 36.0 62.7 9.0
v 36.0 62.1 10.0
v 36.0 62.7 11.0
v 35.6 63.0 11.0
v 36.0 62.8 12.0
v 35.9 63.0 12.0
v 35.8 63.0 13.0
v 35.9 63.0 14.0
v 36.0 63.0 14.1
v 36.0 62.3 15.0
v 36.0 62.0 16.0
v 36.0 64.0 8.5
v 36.0 63.4 11.0
v 36.0 64.0 10.5
v 36.0 63.1 12.0
v 36.0 63.2 13.0
v 36.0 63.0 14.0
v 36.0 64.8 9.0
v 36.0 64.4 10.0
v 36.8 46.0 21.0
v 37.0 46.0 20.8
v 37.0 45.9 21.0
v 37.0 45.6 22.0
v 36.2 46.0 22.0
v 37.0 45.5 23.0
v 37.0 45.5 24.0
v 37.0 45.7 25.0
v 36.7 46.0 25.0
v 37.0 46.0 25.3
v 37.0 47.0 19.5
v 37.0 46.5 20.0
v 36.5 47.0 25.0
v 37.0 47.0 25.5
v 37.0 48.0 13.8
v 37.0 47.8 14.0
v 36.7 48.0 15.0
v 37.0 48.0 14.5
v 37.0 48.0 16.0
v 37.0 48.0 16.0
v 37.0 48.0 16.0
v 37.0 48.0 16.0
v 36.1 48.0 19.0
v 37.0 48.0 18.4
v 37.0 47.6 19.0
v 36.3 48.0 25.0
v 37.0 48.0 25.7
v 37.0 49.0 13.6
v 37.0 48.2 15.0
v 37.0 48.3 17.0
v 37.0 48.3 18.0
v 37.0 48.3 26.0
v 36.3 49.0 26.0
v 37.0 48.6 27.0
v 36.5 49.0 27.0
v 37.0 48.8 28.0
v 36.7 49.0 28.0
v 37.0 49.0 28.3
v 37.0 50.0 13.5
v 37.0 50.0 28.6
v 37.0 51.0 13.4
v 37.0 51.0 28.8
v 36.7 52.0 13.0
v 37.0 52.0 12.7
v 37.0 51.6 13.0
v 37.0 51.2 29.0
v 37.0 51.8 30.0
v 36.8 52.0 30.0
v 37.0 52.0 30.1
v 36.5 53.0 13.0
v 37.0 53.0 12.5
v 36.5 53.0 30.0
v 37.0 53.0 29.7
v 37.0 52.3 30.0
v 36.6 54.0 13.0
v 37.0 54.0 12.4
v 36.3 54.0 14.0
v 36.4 54.0 30.0
v 37.0 54.0 29.4
v 36.9 55.0 12.0
v 37.0 55.0 11.9
v 37.0 54.9 12.0
v 36.5 55.0 13.0
v 36.3 55.0 14.0
v 36.5 55.0 29.0
v 37.0 54.5 29.0
v 37.0 55.0 28.5
v 37.0 55.1 12.0
v 36.6 56.0 13.0
v 37.0 56.0 12.6
v 36.4 56.0 28.0
v 37.0 55.5 28.0
v 37.0 56.0 27.5
v 37.0 56.5 13.0
v 37.0 57.0 13.3
v 37.0 56.4 27.0
v 37.0 57.0 26.3
v 37.0 58.0 13.5
v 36.5 58.0 25.0
v 37.0 57.7 25.0
v 37.0 58.0 24.6
v 37.0 57.3 26.0
v 37.0 59.0 13.3
v 37.0 58.5 24.0
v 37.0 59.0 23.4
v 36.7 60.0 13.0
v 37.0 60.0 12.7
v 37.0 59.5 13.0
v 36.5 60.0 22.0
v 37.0 59.7 22.0
v 37.0 60.0 21.5
v 37.0 59.3 23.0
v 36.5 61.0 13.0
v 37.0 61.0 12.6
v 36.5 61.0 17.0
v 37.0 60.8 17.0
v 37.0 61.0 16.7
v 36.3 61.0 18.0
v 37.0 60.6 18.0
v 37.0 60.5 19.0
v 37.0 60.4 20.0
v 37.0 60.3 21.0
v 37.0 62.0 12.7
v 36.5 62.0 15.0
v 37.0 61.7 15.0
v 37.0 62.0 14.5
v 36.0 62.0 16.0
v 37.0 61.5 16.0
v 37.0 63.0 8.8
v 37.0 62.8 9.0
v 37.0 62.7 10.0
v 37.0 62.9 11.0
v 37.0 63.0 12.0
v 37.0 62.4 13.0
v 36.3 63.0 13.0
v 37.0 63.0 12.0
v 36.1 63.0 14.0
v 37.0 62.3 14.0
v 37.0 64.0 8.1
v 36.5 64.0 10.0
v 37.0 63.4 10.0
v 37.0 64.0 9.4
v 37.0 63.1 11.0
v 37.0 63.0 12.0
v 37.0 64.3 9.0
v 37.2 46.0 21.0
v 38.0 46.0 21.5
v 38.0 45.7 22.0
v 38.0 45.5 23.0
v 38.0 45.4 24.0
v 38.0 45.2 25.0
v 38.0 46.0 25.5
v 38.0 47.0 19.5
v 38.0 46.6 20.0
v 38.0 46.3 21.0
v 38.0 46.7 26.0
v 37.7 47.0 26.0
v 38.0 47.0 26.3
v 37.5 48.0 14.0
v 37.0 48.0 16.0
v 37.5 48.0 17.0
v 38.0 48.0 16.4
v 38.0 47.7 17.0
v 38.0 47.6 18.0
v 37.4 48.0 18.0
v 38.0 47.4 19.0
v 37.3 48.0 26.0
v 38.0 48.0 26.7
v 37.7 49.0 14.0
v 38.0 48.5 15.0
v 38.0 49.0 14.2
v 38.0 48.2 16.0
v 38.0 48.2 27.0
v 38.0 48.4 28.0
v 38.0 48.6 29.0
v 37.6 49.0 29.0
v 38.0 49.0 29.5
v 38.0 50.0 13.5
v 38.0 49.2 14.0
v 37.4 50.0 29.0
v 38.0 49.4 30.0
v 37.6 50.0 30.0
v 38.0 49.7 31.0
v 37.7 50.0 31.0
v 38.0 50.0 31.9
v 38.0 51.0 13.3
v 37.2 51.0 29.0
v 37.4 51.0 30.0
v 37.8 51.0 31.0
v 38.0 51.0 31.3
v 38.0 52.0 12.5
v 38.0 51.3 13.0
v 38.0 51.3 31.0
v 38.0 52.0 30.3
v 37.7 53.0 12.0
v 38.0 53.0 11.7
v 38.0 52.7 12.0
v 38.0 52.3 30.0
v 38.0 53.0 29.4
v 37.4 54.0 12.0
v 38.0 54.0 11.5
v 37.5 54.0 29.0
v 38.0 53.5 29.0
v 38.0 54.0 28.5
v 38.0 55.0 11.6
v 37.5 55.0 28.0
v 38.0 54.5 28.0
v 38.0 55.0 27.5
v 38.0 55.6 12.0
v 38.0 56.0 12.3
v 37.5 56.0 27.0
v 38.0 55.5 27.0
v 38.0 56.0 26.5
v 37.5 57.0 13.0
v 38.0 57.0 12.6
v 37.4 57.0 26.0
v 38.0 56.5 26.0
v 38.0 57.0 25.5
v 38.0 57.7 13.0
v 38.0 58.0 13.1
v 38.0 57.4 25.0
v 38.0 58.0 24.3
v 37.5 59.0 13.0
v 38.0 59.0 12.7
v 38.0 58.3 13.0
v 37.5 59.0 23.0
v 38.0 58.7 23.0
v 38.0 59.0 22.5
v 38.0 58.3 24.0
v 38.0 60.0 12.5
v 37.6 60.0 20.0
v 38.0 59.7 20.0
v 38.0 60.0 19.5
v 37.4 60.0 21.0
v 38.0 59.5 21.0
v 38.0 59.3 22.0
v 38.0 61.0 12.6
v 38.0 60.6 17.0
v 38.0 61.0 16.5
v 38.0 60.4 18.0
v 38.0 60.3 19.0
v 38.0 61.4 13.0
v 37.3 62.0 13.0
v 37.4 62.0 14.0
v 38.0 61.6 14.0
v 38.0 61.4 15.0
v 38.0 61.4 16.0
v 37.2 63.0 9.0
v 37.2 63.0 10.0
v 37.1 63.0 11.0
v 37.0 63.0 12.0
v 37.3 64.0 9.0
v 38.5 46.0 22.0
v 39.0 46.0 22.5
v 39.0 45.7 23.0
v 39.0 45.6 24.0
v 39.0 45.5 25.0
v 39.0 46.0 25.6
v 39.0 47.0 19.5
v 39.0 46.6 20.0
v 39.0 46.5 21.0
v 39.0 46.3 22.0
v 39.0 46.4 26.0
v 39.0 47.0 26.6
v 38.4 48.0 16.0
v 39.0 48.0 15.7
v 39.0 47.7 16.0
v 39.0 47.5 17.0
v 39.0 47.5 18.0
v 39.0 47.4 19.0
v 39.0 47.4 27.0
v 38.3 48.0 27.0
v 39.0 47.6 28.0
v 38.5 48.0 28.0
v 39.0 47.8 29.0
v 38.7 48.0 29.0
v 39.0 48.0 29.3
v 39.0 49.0 14.6
v 39.0 48.6 15.0
v 39.0 48.6 30.0
v 38.5 49.0 30.0
v 39.0 49.0 30.5
v 39.0 50.0 13.0
v 39.0 49.5 14.0
v 39.0 49.4 31.0
v 39.0 49.9 32.0
v 38.3 50.0 32.0
v 39.0 50.0 32.1
v 38.5 51.0 13.0
v 39.0 51.0 12.7
v 39.0 50.1 13.0
v 39.0 50.1 32.0
v 39.0 51.0 31.3
v 39.0 52.0 12.4
v 38.5 52.0 30.0
v 39.0 51.7 30.0
v 39.0 52.0 29.6
v 39.0 51.3 31.0
v 39.0 53.0 11.5
v 39.0 52.5 12.0
v 38.5 53.0 29.0
v 39.0 52.5 29.0
v 39.0 53.0 28.5
v 38.8 54.0 11.0
v 39.0 54.0 10.9
v 39.0 53.8 11.0
v 38.5 54.0 28.0
v 39.0 53.5 28.0
v 39.0 54.0 27.5
v 39.0 54.3 11.0
v 39.0 55.0 11.3
v 38.5 55.0 27.0
v 39.0 54.5 27.0
v 39.0 55.0 26.5
v 38.3 56.0 12.0
v 39.0 56.0 11.5
v 38.5 56.0 26.0
v 39.0 55.5 26.0
v 39.0 56.0 25.5
v 38.7 57.0 12.0
v 39.0 57.0 11.7
v 38.5 57.0 25.0
v 39.0 56.5 25.0
v 39.0 57.0 24.5
v 39.0 57.4 12.0
v 38.2 58.0 13.0
v 39.0 58.0 12.4
v 38.4 58.0 24.0
v 39.0 57.5 24.0
v 39.0 58.0 23.4
v 39.0 59.0 12.5
v 38.6 59.0 21.0
v 39.0 58.7 21.0
v 39.0 59.0 20.5
v 38.4 59.0 22.0
v 39.0 58.5 22.0
v 39.0 58.3 23.0
v 39.0 60.0 12.5
v 38.6 60.0 18.0
v 39.0 59.7 18.0
v 39.0 60.0 17.6
v 38.4 60.0 19.0
v 39.0 59.5 19.0
v 39.0 59.3 20.0
v 39.0 61.0 12.6
v 38.8 61.0 15.0
v 39.0 60.8 15.0
v 39.0 61.0 14.7
v 39.0 61.0 15.6
v 39.0 60.5 17.0
v 39.0 61.0 16.2
v 39.0 61.3 13.0
v 39.0 61.3 14.0
v 39.0 61.1 16.0
v 39.4 46.0 23.0
v 39.6 46.0 24.0
v 40.0 46.0 24.5
v 40.0 45.8 25.0
v 40.0 45.9 26.0
v 39.8 46.0 26.0
v 40.0 46.0 26.1
v 40.0 47.0 19.5
v 40.0 46.6 20.0
v 40.0 46.5 21.0
v 40.0 46.5 22.0
v 40.0 46.4 23.0
v 40.0 46.3 24.0
v 40.0 46.8 27.0
v 39.6 47.0 27.0
v 40.0 47.0 27.3
v 40.0 48.0 15.7
v 40.0 47.7 16.0
v 40.0 47.4 17.0
v 40.0 47.5 18.0
v 40.0 47.4 19.0
v 40.0 47.4 28.0
v 40.0 47.6 29.0
v 40.0 48.0 29.6
v 39.5 49.0 15.0
v 40.0 49.0 15.3
v 40.0 48.3 30.0
v 40.0 48.7 31.0
v 39.6 49.0 31.0
v 40.0 48.9 32.0
v 39.8 49.0 32.0
v 40.0 48.7 33.0
v 39.8 49.0 33.0
v 40.0 49.0 33.1
v 39.6 50.0 14.0
v 40.0 50.0 14.3
v 40.0 49.3 15.0
v 40.0 50.0 30.7
v 39.6 50.0 31.0
v 40.0 49.4 31.0
v 39.5 49.5 31.7
v 39.1 50.0 32.0
v 40.0 49.1 32.0
v 40.0 49.1 33.0
v 39.6 51.0 13.0
v 40.0 51.0 13.2
v 40.0 50.3 14.0
v 39.3 51.0 31.0
v 40.0 51.0 30.3
v 40.0 52.0 12.5
v 40.0 51.2 13.0
v 39.5 52.0 29.0
v 40.0 51.6 29.0
v 40.0 52.0 28.5
v 40.0 51.2 30.0
v 40.0 53.0 11.6
v 40.0 52.6 12.0
v 39.5 53.0 28.0
v 40.0 52.5 28.0
v 40.0 53.0 27.5
v 40.0 54.0 10.7
v 40.0 53.6 11.0
v 39.5 54.0 27.0
v 40.0 53.5 27.0
v 40.0 54.0 26.5
v 39.4 55.0 11.0
v 40.0 55.0 10.6
v 39.5 55.0 26.0
v 40.0 54.5 26.0
v 40.0 55.0 25.5
v 39.6 56.0 11.0
v 40.0 56.0 10.7
v 39.5 56.0 25.0
v 40.0 55.5 25.0
v 40.0 56.0 24.5
v 40.0 56.5 11.0
v 40.0 57.0 11.3
v 39.5 57.0 24.0
v 40.0 56.5 24.0
v 40.0 57.0 23.4
v 39.5 58.0 12.0
v 40.0 58.0 11.7
v 39.6 58.0 22.0
v 40.0 57.6 22.0
v 40.0 58.0 21.5
v 39.3 58.0 23.0
v 40.0 57.3 23.0
v 40.0 58.5 12.0
v 40.0 59.0 12.3
v 39.7 59.0 18.0
v 40.0 58.8 18.0
v 40.0 59.0 17.8
v 39.5 59.0 19.0
v 40.0 58.5 19.0
v 39.4 59.0 20.0
v 40.0 58.5 20.0
v 40.0 58.3 21.0
v 40.0 60.0 12.3
v 40.0 60.0 17.2
v 40.0 61.0 12.4
v 39.5 61.0 14.0
v 40.0 60.7 14.0
v 40.0 61.0 13.4
v 40.0 60.4 15.0
v 39.2 61.0 16.0
v 40.0 60.5 16.0
v 40.0 60.2 17.0
v 40.0 61.2 13.0
v 40.3 46.0 25.0
v 40.1 46.0 26.0
v 40.9 47.0 17.0
v 41.0 47.0 16.9
v 41.0 46.9 17.0
v 41.0 47.0 17.2
v 41.0 47.0 19.6
v 41.0 46.7 20.0
v 41.0 46.6 21.0
v 41.0 46.6 22.0
v 41.0 46.5 23.0
v 41.0 46.5 24.0
v 41.0 46.5 25.0
v 41.0 46.6 26.0
v 40.4 47.0 27.0
v 41.0 47.0 26.5
v 40.6 48.0 16.0
v 41.0 48.0 16.2
v 41.0 47.3 18.0
v 41.0 47.4 19.0
v 41.0 47.3 27.0
v 41.0 47.5 28.0
v 41.0 47.5 29.0
v 41.0 47.7 30.0
v 40.5 48.0 30.0
v 41.0 48.0 30.5
v 41.0 49.0 15.5
v 41.0 48.2 16.0
v 41.0 48.8 31.0
v 40.1 49.0 32.0
v 41.0 49.0 31.2
v 40.1 49.0 33.0
v 41.0 50.0 14.5
v 41.0 49.5 15.0
v 40.6 50.0 30.0
v 41.0 49.6 30.0
v 41.0 50.0 29.6
v 41.0 49.1 31.0
v 40.8 51.0 13.0
v 41.0 51.0 12.9
v 41.0 50.9 13.0
v 41.0 50.5 14.0
v 40.6 51.0 29.0
v 41.0 50.5 29.0
v 41.0 51.0 28.5
v 40.2 51.0 30.0
v 41.0 52.0 12.5
v 40.5 52.0 28.0
v 41.0 51.5 28.0
v 41.0 52.0 27.5
v 40.6 53.0 12.0
v 41.0 53.0 12.3
v 40.5 53.0 27.0
v 41.0 52.5 27.0
v 41.0 53.0 26.4
v 41.0 54.0 10.8
v 41.0 53.8 11.0
v 41.0 53.3 12.0
v 40.5 54.0 26.0
v 41.0 53.4 26.0
v 41.0 54.0 25.4
v 41.0 55.0 10.6
v 40.5 55.0 25.0
v 41.0 54.4 25.0
v 41.0 55.0 24.4
v 41.0 56.0 10.5
v 40.7 56.0 23.0
v 41.0 55.7 23.0
v 41.0 56.0 22.6
v 40.4 56.0 24.0
v 41.0 55.3 24.0
v 40.5 57.0 11.0
v 41.0 57.0 10.7
v 40.6 57.0 22.0
v 41.0 56.5 22.0
v 41.0 57.0 21.5
v 40.3 57.0 23.0
v 41.0 57.4 11.0
v 41.0 58.0 11.4
v 40.6 58.0 19.0
v 41.0 57.7 19.0
v 41.0 58.0 18.6
v 40.5 58.0 20.0
v 41.0 57.5 20.0
v 40.3 58.0 21.0
v 41.0 57.4 21.0
v 40.4 59.0 12.0
v 41.0 59.0 11.6
v 41.0 58.4 18.0
v 41.0 59.0 17.5
v 40.9 60.0 12.0
v 41.0 60.0 11.9
v 40.6 60.0 15.0
v 41.0 59.7 15.0
v 41.0 60.0 14.5
v 40.5 60.0 16.0
v 41.0 59.6 16.0
v 40.3 60.0 17.0
v 41.0 59.5 17.0
v 41.0 60.1 12.0
v 41.0 60.4 13.0
v 40.3 61.0 13.0
v 41.0 60.3 14.0
v 42.0 47.0 16.6
v 42.0 46.6 17.0
v 42.0 46.7 18.0
v 41.5 47.0 18.0
v 42.0 47.0 18.5
v 41.4 47.0 20.0
v 41.5 47.0 21.0
v 41.6 47.0 22.0
v 42.0 47.0 22.4
v 42.0 46.6 23.0
v 42.0 46.6 24.0
v 41.7 47.0 25.0
v 42.0 47.0 24.6
v 41.4 47.0 26.0
v 41.5 48.0 16.0
v 42.0 48.0 15.8
v 42.0 47.8 16.0
v 42.0 47.3 19.0
v 42.0 47.4 20.0
v 42.0 47.4 21.0
v 42.0 47.3 22.0
v 42.0 47.2 25.0
v 42.0 47.4 26.0
v 42.0 47.5 27.0
v 42.0 47.5 28.0
v 42.0 47.5 29.0
v 42.0 47.6 30.0
v 42.0 48.0 30.9
v 42.0 49.0 15.4
v 41.6 49.0 30.0
v 42.0 48.6 30.0
v 42.0 49.0 29.6
v 41.1 49.0 31.0
v 42.0 50.0 14.7
v 42.0 49.6 15.0
v 41.5 50.0 29.0
v 42.0 49.5 29.0
v 42.0 50.0 28.5
v 41.1 51.0 13.0
v 41.5 51.0 14.0
v 42.0 51.0 14.4
v 41.5 51.0 28.0
v 42.0 50.5 28.0
v 42.0 51.0 27.4
v 42.0 52.0 12.9
v 42.0 51.9 13.0
v 42.0 52.0 13.5
v 41.9 52.0 14.0
v 42.0 52.0 14.1
v 41.7 52.0 26.0
v 42.0 51.7 26.0
v 42.0 52.0 25.6
v 41.4 52.0 27.0
v 42.0 51.3 27.0
v 42.0 53.0 12.6
v 42.0 52.1 14.0
v 41.7 53.0 25.0
v 42.0 52.6 25.0
v 42.0 53.0 24.5
v 41.3 53.0 26.0
v 41.3 54.0 11.0
v 42.0 54.0 11.7
v 42.0 53.6 12.0
v 41.7 54.0 24.0
v 42.0 53.5 24.0
v 42.0 54.0 23.5
v 41.3 54.0 25.0
v 41.6 55.0 11.0
v 42.0 55.0 11.3
v 41.6 55.0 23.0
v 42.0 54.5 23.0
v 42.0 55.0 22.5
v 41.3 55.0 24.0
v 42.0 56.0 10.7
v 42.0 55.5 11.0
v 41.5 56.0 22.0
v 42.0 55.5 22.0
v 42.0 56.0 21.4
v 42.0 57.0 10.6
v 41.6 57.0 20.0
v 42.0 56.6 20.0
v 42.0 57.0 19.5
v 41.4 57.0 21.0
v 42.0 56.4 21.0
v 42.0 57.5 11.0
v 42.0 58.0 11.4
v 41.5 58.0 18.0
v 42.0 57.6 18.0
v 42.0 58.0 17.6
v 42.0 57.3 19.0
v 42.0 59.0 11.8
v 42.0 59.0 17.2
v 42.0 59.3 12.0
v 41.1 60.0 12.0
v 41.5 60.0 13.0
v 42.0 59.5 13.0
v 41.4 60.0 14.0
v 42.0 59.5 14.0
v 42.0 59.4 15.0
v 42.0 59.4 16.0
v 42.0 59.2 17.0
v 43.0 46.0 17.0
v 43.0 46.0 17.0
v 43.0 46.0 17.0
v 43.0 46.0 17.0
v 43.0 47.0 16.5
v 43.0 46.4 18.0
v 43.0 46.7 19.0
v 42.5 47.0 19.0
v 43.0 47.0 19.5
v 43.0 47.0 22.9
v 43.0 46.9 23.0
v 43.0 46.7 24.0
v 43.0 47.0 24.4
v 42.9 47.0 30.0
v 43.0 47.0 29.9
v 43.0 46.9 30.0
v 43.0 46.7 31.0
v 42.9 47.0 31.0
v 43.0 47.0 31.1
v 42.3 48.0 16.0
v 43.0 48.0 16.3
v 43.0 47.3 20.0
v 43.0 47.6 21.0
v 43.0 47.6 22.0
v 43.0 47.4 25.0
v 43.0 47.5 26.0
v 43.0 47.5 27.0
v 43.0 47.5 28.0
v 43.0 47.6 29.0
v 43.0 47.1 31.0
v 43.0 48.0 30.3
v 43.0 49.0 15.6
v 43.0 48.4 16.0
v 42.5 49.0 29.0
v 43.0 48.5 29.0
v 43.0 49.0 28.5
v 43.0 48.2 30.0
v 42.5 50.0 15.0
v 43.0 50.0 15.3
v 42.7 50.0 27.0
v 43.0 49.7 27.0
v 43.0 50.0 26.6
v 42.4 50.0 28.0
v 43.0 49.4 28.0
v 43.0 51.0 14.7
v 43.0 50.5 15.0
v 42.6 51.0 26.0
v 43.0 50.5 26.0
v 43.0 51.0 25.5
v 42.3 51.0 27.0
v 42.1 52.0 13.0
v 43.0 52.0 14.6
v 42.5 52.0 25.0
v 43.0 51.5 25.0
v 43.0 52.0 24.4
v 42.4 53.0 13.0
v 42.6 53.0 14.0
v 43.0 53.0 14.4
v 42.7 53.0 23.0
v 43.0 52.6 23.0
v 43.0 53.0 22.6
v 42.4 53.0 24.0
v 43.0 52.4 24.0
v 42.3 54.0 12.0
v 42.6 54.0 13.0
v 43.0 54.0 14.0
v 43.0 54.0 14.0
v 42.7 54.0 22.0
v 43.0 53.6 22.0
v 43.0 54.0 21.7
v 42.3 54.0 23.0
v 43.0 55.0 11.8
v 43.0 54.7 12.0
v 43.0 54.4 13.0
v 43.0 54.0 14.0
v 42.4 55.0 22.0
v 43.0 55.0 21.3
v 42.5 56.0 11.0
v 43.0 56.0 11.4
v 42.6 56.0 20.0
v 43.0 55.6 20.0
v 43.0 56.0 19.5
v 42.4 56.0 21.0
v 43.0 55.3 21.0
v 43.0 57.0 10.9
v 43.0 56.8 11.0
v 42.6 57.0 18.0
v 43.0 56.6 18.0
v 43.0 57.0 17.6
v 42.3 57.0 19.0
v 43.0 56.4 19.0
v 43.0 57.1 11.0
v 43.0 58.0 11.7
v 42.6 58.0 17.0
v 43.0 57.5 17.0
v 43.0 58.0 16.5
v 43.0 58.3 12.0
v 42.3 59.0 12.0
v 42.5 59.0 13.0
v 43.0 58.5 13.0
v 42.5 59.0 14.0
v 43.0 58.6 14.0
v 42.5 59.0 15.0
v 43.0 58.6 15.0
v 42.4 59.0 16.0
v 43.0 58.4 16.0
v 42.2 59.0 17.0
v 44.0 46.0 16.9
v 44.0 45.9 17.0
v 44.0 46.0 17.2
v 44.0 47.0 16.6
v 44.0 46.4 18.0
v 44.0 46.5 19.0
v 44.0 46.8 20.0
v 43.6 47.0 20.0
v 44.0 47.0 20.3
v 43.1 47.0 23.0
v 44.0 47.0 23.7
v 44.0 46.8 24.0
v 44.0 47.0 24.3
v 44.0 47.0 28.0
v 44.0 47.0 28.0
v 44.0 47.0 28.0
v 44.0 47.0 28.0
v 43.1 47.0 30.0
v 43.0 47.0 31.0
v 44.0 48.0 16.5
v 44.0 48.0 20.8
v 43.7 48.0 21.0
v 43.4 48.0 22.0
v 43.3 48.0 23.0
v 44.0 48.0 23.3
v 44.0 47.4 25.0
v 44.0 47.5 26.0
v 44.0 47.6 27.0
v 44.0 48.0 28.3
v 43.4 48.0 29.0
v 43.2 48.0 30.0
v 44.0 49.0 15.8
v 44.0 48.7 16.0
v 44.0 48.2 21.0
v 44.0 48.4 22.0
v 44.0 48.4 23.0
v 43.7 49.0 27.0
v 44.0 48.5 27.0
v 44.0 49.0 26.7
v 43.4 49.0 28.0
v 44.0 48.3 28.0
v 44.0 50.0 15.6
v 43.6 50.0 26.0
v 44.0 49.6 26.0
v 44.0 50.0 25.6
v 43.4 51.0 15.0
v 44.0 51.0 15.4
v 43.5 51.0 25.0
v 44.0 50.6 25.0
v 44.0 51.0 24.5
v 43.7 52.0 15.0
v 44.0 52.0 15.2
v 43.7 52.0 22.0
v 44.0 51.7 22.0
v 44.0 52.0 21.6
v 43.5 52.0 23.0
v 44.0 51.5 23.0
v 43.4 52.0 24.0
v 44.0 51.4 24.0
v 44.0 53.0 14.4
v 44.0 52.3 15.0
v 43.4 53.0 22.0
v 44.0 53.0 21.3
v 43.0 54.0 14.0
v 44.0 54.0 13.7
v 44.0 53.5 14.0
v 43.6 54.0 21.0
v 44.0 53.4 21.0
v 44.0 54.0 20.4
v 43.2 55.0 12.0
v 43.7 55.0 13.0
v 44.0 55.0 13.3
v 43.6 55.0 20.0
v 44.0 54.4 20.0
v 44.0 55.0 19.4
v 43.3 55.0 21.0
v 43.8 56.0 12.0
v 44.0 56.0 12.2
v 44.0 55.3 13.0
v 43.6 56.0 18.0
v 44.0 55.6 18.0
v 44.0 56.0 17.5
v 43.4 56.0 19.0
v 44.0 55.3 19.0
v 43.1 57.0 11.0
v 44.0 57.0 11.7
v 44.0 56.3 12.0
v 43.5 57.0 17.0
v 44.0 56.4 17.0
v 44.0 57.0 16.4
v 43.4 58.0 12.0
v 44.0 57.4 12.0
v 43.6 58.0 13.0
v 44.0 57.7 13.0
v 44.0 58.0 13.5
v 43.5 58.0 16.0
v 44.0 57.4 16.0
v 44.0 58.0 15.4
v 44.0 58.3 14.0
v 44.0 58.2 15.0
v 44.4 46.0 17.0
v 44.5 47.0 17.0
v 45.0 46.5 18.0
v 45.0 47.0 17.4
v 45.0 46.5 19.0
v 45.0 46.8 20.0
v 45.0 47.0 20.2
v 45.0 47.0 23.8
v 45.0 46.8 24.0
v 45.0 47.0 24.3
v 44.0 47.0 28.0
v 44.7 48.0 17.0
v 45.0 48.0 17.3
v 45.0 48.0 20.6
v 45.0 48.0 23.5
v 45.0 47.4 25.0
v 45.0 47.6 26.0
v 44.4 48.0 27.0
v 45.0 48.0 26.5
v 44.2 48.0 28.0
v 44.3 49.0 16.0
v 45.0 49.0 16.6
v 45.0 48.4 17.0
v 45.0 48.4 21.0
v 45.0 48.6 22.0
v 45.0 48.9 23.0
v 45.0 49.0 26.3
v 44.5 50.0 16.0
v 45.0 50.0 16.4
v 45.0 49.3 26.0
v 45.0 50.0 25.3
v 44.8 51.0 16.0
v 45.0 51.0 16.1
v 44.8 51.0 20.0
v 45.0 50.8 20.0
v 45.0 51.0 19.7
v 45.0 51.0 20.4
v 44.7 51.0 22.0
v 45.0 50.7 22.0
v 45.0 51.0 21.4
v 44.5 51.0 23.0
v 45.0 50.4 23.0
v 44.4 51.0 24.0
v 45.0 50.5 24.0
v 45.0 50.3 25.0
v 45.0 52.0 15.4
v 45.0 51.2 16.0
v 44.9 52.0 18.0
v 45.0 51.9 18.0
v 45.0 52.0 17.9
v 44.5 52.0 19.0
v 45.0 51.4 19.0
v 44.1 52.0 20.0
v 45.0 51.2 21.0
v 44.4 52.0 21.0
v 44.8 53.0 14.0
v 45.0 53.0 13.9
v 45.0 52.9 14.0
v 45.0 52.4 15.0
v 45.0 52.4 18.0
v 45.0 53.0 18.2
v 44.1 53.0 19.0
v 44.3 53.0 20.0
v 44.2 53.0 21.0
v 45.0 54.0 13.4
v 44.7 54.0 18.0
v 45.0 53.3 18.0
v 45.0 54.0 17.5
v 44.4 54.0 19.0
v 44.3 54.0 20.0
v 45.0 55.0 13.2
v 44.7 55.0 17.0
v 45.0 54.5 17.0
v 45.0 55.0 16.5
v 44.4 55.0 18.0
v 44.3 55.0 19.0
v 44.8 56.0 12.0
v 45.0 56.0 11.9
v 45.0 55.9 12.0
v 45.0 55.3 13.0
v 44.7 56.0 16.0
v 45.0 55.5 16.0
v 45.0 56.0 15.5
v 44.3 56.0 17.0
v 45.0 57.0 11.9
v 44.7 57.0 15.0
v 45.0 56.5 15.0
v 45.0 57.0 14.5
v 44.3 57.0 16.0
v 45.0 57.1 12.0
v 45.0 57.4 13.0
v 44.3 58.0 14.0
v 45.0 57.4 14.0
v 44.3 58.0 15.0
v 46.0 47.0 17.8
v 46.0 46.8 18.0
v 46.0 46.6 19.0
v 45.4 47.0 20.0
v 46.0 47.0 19.6
v 46.0 47.0 23.8
v 46.0 46.8 24.0
v 46.0 47.0 24.2
v 46.0 48.0 17.6
v 46.0 47.4 20.0
v 46.0 48.0 20.7
v 46.0 48.0 23.4
v 46.0 47.5 25.0
v 46.0 48.0 26.0
v 46.0 48.0 26.0
v 45.6 49.0 17.0
v 46.0 49.0 17.3
v 46.0 48.3 21.0
v 46.0 48.6 22.0
v 46.0 48.8 23.0
v 45.4 49.0 26.0
v 46.0 48.0 26.0
v 46.0 49.0 25.4
v 46.0 50.0 16.6
v 46.0 49.4 17.0
v 45.9 50.0 19.0
v 46.0 49.9 19.0
v 46.0 50.0 18.9
v 46.0 50.0 19.2
v 45.5 50.0 23.0
v 46.0 49.2 23.0
v 46.0 50.0 22.4
v 45.5 50.0 24.0
v 46.0 49.4 24.0
v 45.3 50.0 25.0
v 46.0 49.3 25.0
v 46.0 51.0 16.6
v 45.7 51.0 18.0
v 46.0 50.6 18.0
v 46.0 51.0 17.5
v 45.3 51.0 19.0
v 46.0 50.3 20.0
v 45.2 51.0 21.0
v 46.0 50.4 21.0
v 46.0 50.3 22.0
v 46.0 52.0 15.8
v 46.0 51.7 16.0
v 46.0 52.0 17.2
v 45.2 53.0 14.0
v 45.5 53.0 15.0
v 46.0 52.3 16.0
v 45.6 53.0 16.0
v 45.6 53.0 17.0
v 46.0 52.3 17.0
v 45.1 53.0 18.0
v 45.7 54.0 13.0
v 46.0 54.0 12.8
v 46.0 53.5 13.0
v 46.0 53.4 14.0
v 46.0 53.6 15.0
v 46.0 54.0 15.4
v 45.6 54.0 16.0
v 45.3 54.0 17.0
v 45.5 55.0 13.0
v 46.0 55.0 12.8
v 45.7 55.0 15.0
v 46.0 54.5 15.0
v 46.0 55.0 14.6
v 45.3 55.0 16.0
v 45.1 56.0 12.0
v 46.0 56.0 12.7
v 45.4 56.0 15.0
v 46.0 56.0 14.3
v 45.1 57.0 12.0
v 46.0 56.3 13.0
v 45.4 57.0 13.0
v 45.4 57.0 14.0
v 46.0 56.3 14.0
v 46.3 47.0 18.0
v 47.0 47.0 18.9
v 47.0 46.9 19.0
v 47.0 47.0 19.1
v 46.7 47.0 24.0
v 46.8 48.0 18.0
v 47.0 48.0 18.2
v 47.0 47.4 20.0
v 47.0 47.7 21.0
v 46.4 48.0 21.0
v 47.0 48.0 21.8
v 47.0 48.0 23.9
v 47.0 47.6 24.0
v 46.4 48.0 25.0
v 47.0 48.0 24.1
v 46.0 48.0 26.0
v 47.0 49.0 17.6
v 47.0 48.2 18.0
v 47.0 49.0 21.5
v 46.5 49.0 22.0
v 46.2 49.0 23.0
v 47.0 48.1 24.0
v 46.4 49.0 24.0
v 46.3 49.0 25.0
v 47.0 50.0 17.0
v 47.0 50.0 17.0
v 47.0 49.5 19.0
v 47.0 50.0 18.3
v 46.4 50.0 20.0
v 47.0 49.6 20.0
v 46.5 50.0 21.0
v 47.0 49.4 21.0
v 46.3 50.0 22.0
v 47.0 50.0 17.0
v 46.3 51.0 17.0
v 47.0 50.2 18.0
v 46.4 52.0 16.0
v 46.2 52.0 17.0
v 46.2 54.0 13.0
v 47.0 54.0 14.0
v 47.0 54.0 14.0
v 46.8 54.0 15.0
v 47.0 54.0 14.1
v 46.2 55.0 13.0
v 47.0 54.0 14.0
v 46.5 55.0 14.0
v 46.2 56.0 13.0
v 46.2 56.0 14.0
v 47.1 47.0 19.0
v 47.9 48.0 18.0
v 48.0 48.0 18.0
v 48.0 48.0 18.0
v 48.0 47.6 19.0
v 48.0 47.7 20.0
v 48.0 48.0 21.0
v 48.0 48.0 21.1
v 47.1 48.0 24.0
v 48.0 49.0 18.0
v 48.0 48.7 19.0
v 48.0 49.0 18.1
v 47.8 49.0 19.0
v 48.0 49.0 19.6
v 47.4 49.0 21.0
v 48.0 48.1 21.0
v 48.0 49.0 20.2
v 47.0 50.0 17.0
v 48.0 49.0 18.0
v 47.2 50.0 18.0
v 48.0 49.1 20.0
v 47.0 54.0 14.0
v 48.0 48.0 18.0
v 48.7 48.0 19.0
v 48.4 48.0 20.0
v 48.0 48.0 21.0
v 48.0 49.0 18.0
v 48.1 49.0 20.0
f 3 2 1
f 5 4 1
f 1 4 3
f 5 6 4
f 1 2 7
f 7 2 8
f 1 9 5
f 1 7 9
f 6 5 10
f 10 5 9
f 8 11 7
f 13 12 11
f 12 7 11
f 12 9 7
f 10 9 14
f 9 15 14
f 9 12 15
f 15 16 14
f 12 13 17
f 17 13 18
f 20 15 19
f 15 17 19
f 15 12 17
f 15 20 16
f 18 21 17
f 17 21 19
f 24 23 22
f 26 25 22
f 22 25 24
f 28 27 26
f 26 27 25
f 28 29 27
f 32 31 30
f 34 33 30
f 30 33 32
f 33 34 23
f 34 22 23
f 34 35 22
f 22 36 26
f 22 35 36
f 38 28 37
f 28 36 37
f 28 26 36
f 28 38 29
f 30 31 39
f 39 31 40
f 30 41 34
f 30 39 41
f 34 42 35
f 34 41 42
f 44 36 43
f 36 42 43
f 36 35 42
f 36 44 37
f 39 40 45
f 45 40 46
f 39 47 41
f 39 45 47
f 41 48 42
f 41 47 48
f 43 42 49
f 49 42 48
f 46 50 45
f 45 50 47
f 47 50 51
f 47 51 48
f 48 51 52
f 48 52 49
f 55 54 53
f 57 56 53
f 53 56 55
f 59 58 57
f 57 58 56
f 2 3 59
f 3 58 59
f 3 60 58
f 61 3 4
f 61 60 3
f 63 62 6
f 62 4 6
f 62 61 4
f 63 64 62
f 54 65 53
f 67 66 65
f 66 53 65
f 66 57 53
f 57 68 59
f 57 66 68
f 68 8 2
f 68 2 59
f 10 69 63
f 10 63 6
f 64 63 70
f 63 71 70
f 63 69 71
f 71 72 70
f 67 73 66
f 66 73 68
f 68 73 74
f 74 76 75
f 74 75 11
f 68 74 11
f 8 68 11
f 75 13 11
f 14 69 10
f 69 14 16
f 77 69 16
f 71 69 77
f 72 71 78
f 78 71 77
f 76 79 75
f 13 75 79
f 80 13 79
f 18 13 80
f 19 81 20
f 77 16 20
f 81 77 20
f 82 77 81
f 78 77 83
f 83 77 82
f 21 18 84
f 18 85 84
f 18 80 85
f 81 19 21
f 84 81 21
f 86 81 84
f 88 82 87
f 82 86 87
f 82 81 86
f 82 88 83
f 85 89 84
f 84 89 86
f 86 89 90
f 86 90 87
f 93 92 91
f 95 94 91
f 91 94 93
f 97 96 95
f 95 96 94
f 99 98 97
f 97 98 96
f 99 100 98
f 91 92 101
f 101 92 102
f 101 23 24
f 95 101 24
f 91 101 95
f 95 24 25
f 95 25 97
f 97 25 27
f 97 27 99
f 27 29 99
f 29 100 99
f 29 103 100
f 104 31 32
f 102 105 101
f 105 32 101
f 32 33 101
f 32 105 104
f 101 33 23
f 37 106 38
f 106 107 38
f 107 29 38
f 107 103 29
f 109 108 104
f 108 31 104
f 108 40 31
f 109 104 105
f 111 110 44
f 111 44 43
f 37 44 106
f 44 112 106
f 44 110 112
f 106 112 107
f 108 46 40
f 113 46 108
f 116 115 114
f 115 111 114
f 111 49 114
f 111 43 49
f 119 118 117
f 120 119 117
f 46 121 50
f 121 46 113
f 50 122 51
f 121 122 50
f 114 52 116
f 52 122 116
f 52 51 122
f 52 114 49
f 125 124 123
f 126 117 118
f 123 127 125
f 117 126 120
f 124 128 123
f 123 128 127
f 131 130 129
f 54 55 129
f 55 131 129
f 55 132 131
f 133 55 56
f 133 132 55
f 134 56 58
f 134 133 56
f 135 58 60
f 135 134 58
f 136 60 61
f 136 135 60
f 137 61 62
f 137 136 61
f 139 138 64
f 138 62 64
f 138 137 62
f 139 140 138
f 129 130 141
f 141 130 142
f 143 65 54
f 129 143 54
f 141 143 129
f 143 67 65
f 70 139 64
f 70 72 139
f 72 140 139
f 72 144 140
f 142 145 141
f 141 145 143
f 143 145 146
f 146 148 147
f 146 147 73
f 143 146 73
f 67 143 73
f 149 74 73
f 149 73 147
f 149 76 74
f 78 144 72
f 78 150 144
f 148 151 147
f 153 152 151
f 152 147 151
f 152 149 147
f 154 79 76
f 149 154 76
f 152 154 149
f 154 80 79
f 83 156 155
f 150 83 155
f 78 83 150
f 156 157 155
f 153 158 152
f 160 159 158
f 159 152 158
f 159 154 152
f 159 85 80
f 159 80 154
f 87 161 88
f 156 83 88
f 161 156 88
f 162 156 161
f 157 156 163
f 156 164 163
f 156 162 164
f 164 165 163
f 159 160 166
f 166 160 167
f 168 89 85
f 159 168 85
f 166 168 159
f 169 90 89
f 169 89 168
f 161 87 90
f 169 161 90
f 170 161 169
f 161 171 162
f 161 170 171
f 173 164 172
f 164 171 172
f 164 162 171
f 164 173 165
f 167 174 166
f 166 174 168
f 168 174 175
f 177 176 175
f 176 168 175
f 176 169 168
f 179 170 178
f 170 176 178
f 170 169 176
f 170 179 171
f 171 179 180
f 171 180 172
f 183 182 181
f 185 184 181
f 181 184 183
f 187 186 185
f 185 186 184
f 187 188 186
f 177 189 176
f 176 189 178
f 181 182 190
f 190 182 191
f 190 92 93
f 185 190 93
f 181 190 185
f 185 93 94
f 185 94 187
f 192 188 187
f 94 192 187
f 96 192 94
f 193 96 98
f 193 192 96
f 98 100 193
f 193 100 194
f 190 191 195
f 195 191 196
f 195 102 92
f 195 92 190
f 103 198 197
f 194 103 197
f 100 103 194
f 198 199 197
f 202 201 200
f 202 200 196
f 200 195 196
f 200 203 195
f 203 105 102
f 203 102 195
f 205 204 198
f 103 205 198
f 107 205 103
f 198 204 199
f 200 201 206
f 206 201 207
f 206 108 109
f 203 206 109
f 200 206 203
f 203 109 105
f 209 208 110
f 209 110 111
f 110 210 112
f 208 210 110
f 107 112 205
f 205 112 210
f 213 212 211
f 215 214 211
f 211 214 213
f 217 216 215
f 215 216 214
f 217 218 216
f 206 207 219
f 219 207 220
f 219 113 108
f 219 108 206
f 223 222 221
f 115 116 221
f 222 115 221
f 224 115 222
f 111 115 209
f 209 115 224
f 212 225 211
f 211 225 215
f 215 225 226
f 215 226 217
f 217 226 227
f 217 227 218
f 219 220 119
f 220 118 119
f 220 228 118
f 229 119 120
f 119 229 219
f 230 219 229
f 219 230 113
f 121 113 230
f 221 122 223
f 122 230 223
f 122 121 230
f 122 221 116
f 233 232 231
f 124 125 231
f 125 233 231
f 125 234 233
f 125 127 234
f 235 234 127
f 228 126 118
f 126 228 236
f 120 126 229
f 229 126 236
f 232 237 231
f 231 237 124
f 237 128 124
f 237 238 128
f 127 128 235
f 235 128 238
f 239 130 131
f 239 131 240
f 131 241 240
f 131 132 241
f 242 132 133
f 242 241 132
f 244 242 243
f 242 134 243
f 242 133 134
f 135 245 134
f 134 245 243
f 136 246 135
f 135 246 245
f 246 136 247
f 136 248 247
f 136 137 248
f 249 137 138
f 249 248 137
f 251 250 140
f 250 138 140
f 250 249 138
f 251 252 250
f 253 142 239
f 239 142 130
f 239 240 254
f 239 254 253
f 255 244 243
f 257 256 255
f 243 257 255
f 245 257 243
f 258 245 246
f 257 245 258
f 246 247 259
f 246 259 258
f 144 260 251
f 144 251 140
f 252 251 261
f 251 262 261
f 251 260 262
f 262 263 261
f 253 145 142
f 254 264 253
f 264 145 253
f 264 146 145
f 148 146 264
f 148 264 265
f 266 256 257
f 266 257 258
f 266 258 267
f 267 258 259
f 150 268 260
f 150 260 144
f 260 269 262
f 260 268 269
f 263 262 270
f 262 271 270
f 262 269 271
f 271 272 270
f 275 274 273
f 273 276 275
f 151 148 277
f 148 278 277
f 148 265 278
f 277 153 151
f 155 268 150
f 268 155 157
f 279 268 157
f 269 268 279
f 269 280 271
f 269 279 280
f 272 271 281
f 281 271 280
f 284 283 282
f 284 282 274
f 282 273 274
f 282 285 273
f 276 273 286
f 286 273 285
f 278 287 277
f 287 289 288
f 287 288 158
f 277 287 158
f 153 277 158
f 288 160 158
f 163 279 157
f 279 163 165
f 290 279 165
f 280 279 290
f 281 280 291
f 291 280 290
f 282 283 292
f 292 283 293
f 282 294 285
f 282 292 294
f 286 285 295
f 295 285 294
f 288 289 296
f 296 289 297
f 296 167 160
f 296 160 288
f 299 298 173
f 299 173 172
f 173 298 165
f 298 300 165
f 300 290 165
f 300 298 301
f 291 290 302
f 290 303 302
f 290 300 303
f 305 304 303
f 303 304 302
f 307 306 305
f 305 306 304
f 306 307 293
f 307 292 293
f 307 308 292
f 292 309 294
f 292 308 309
f 295 294 310
f 310 294 309
f 296 297 311
f 311 297 312
f 313 174 167
f 296 313 167
f 311 313 296
f 314 175 174
f 314 174 313
f 314 177 175
f 316 315 179
f 316 179 178
f 179 317 180
f 315 317 179
f 172 180 299
f 299 180 317
f 301 318 300
f 320 319 318
f 319 300 318
f 319 303 300
f 319 182 183
f 305 319 183
f 303 319 305
f 305 183 184
f 305 184 307
f 307 184 186
f 307 186 308
f 309 308 321
f 308 188 321
f 188 322 321
f 188 308 186
f 309 321 310
f 311 312 323
f 323 312 324
f 326 313 325
f 313 323 325
f 313 311 323
f 313 326 314
f 314 326 327
f 314 327 177
f 327 189 177
f 327 328 189
f 178 189 316
f 316 189 328
f 319 320 329
f 329 320 330
f 329 191 182
f 329 182 319
f 331 322 188
f 331 188 192
f 332 192 193
f 332 331 192
f 193 194 332
f 332 194 333
f 323 324 334
f 334 324 335
f 325 323 336
f 336 323 334
f 329 330 337
f 337 330 338
f 337 196 191
f 337 191 329
f 339 333 194
f 339 194 197
f 197 199 339
f 339 199 340
f 334 335 341
f 341 335 342
f 336 334 343
f 343 334 341
f 346 345 344
f 348 347 344
f 344 347 346
f 350 349 348
f 348 349 347
f 349 350 338
f 338 350 337
f 350 201 337
f 201 202 337
f 337 202 196
f 353 352 351
f 204 205 351
f 352 204 351
f 354 204 352
f 199 204 340
f 340 204 354
f 342 355 341
f 341 355 343
f 358 357 356
f 360 359 356
f 356 359 358
f 359 360 345
f 360 344 345
f 360 361 344
f 344 362 348
f 344 361 362
f 348 363 350
f 348 362 363
f 363 207 201
f 363 201 350
f 365 364 208
f 365 208 209
f 351 210 353
f 210 364 353
f 210 208 364
f 210 351 205
f 357 366 356
f 367 212 213
f 356 367 213
f 360 356 213
f 366 367 356
f 360 213 214
f 360 214 361
f 361 214 216
f 361 216 362
f 362 216 218
f 368 362 218
f 363 362 368
f 368 220 207
f 368 207 363
f 223 369 222
f 222 369 370
f 371 222 370
f 224 222 371
f 209 224 365
f 365 224 371
f 225 212 372
f 212 373 372
f 212 367 373
f 374 226 225
f 374 225 372
f 375 227 226
f 375 226 374
f 368 218 227
f 375 368 227
f 376 368 375
f 376 228 220
f 376 220 368
f 378 377 230
f 378 230 229
f 223 230 369
f 230 379 369
f 230 377 379
f 369 379 370
f 382 381 380
f 382 380 373
f 380 372 373
f 380 383 372
f 372 384 374
f 372 383 384
f 384 232 233
f 375 384 233
f 374 384 375
f 234 385 233
f 386 233 385
f 233 386 375
f 387 375 386
f 375 387 376
f 234 235 385
f 228 376 236
f 387 236 376
f 236 387 388
f 229 236 378
f 378 236 388
f 381 389 380
f 391 390 389
f 390 380 389
f 390 383 380
f 383 392 384
f 383 390 392
f 384 392 232
f 392 393 232
f 393 237 232
f 392 394 393
f 385 238 386
f 238 393 386
f 238 237 393
f 238 385 235
f 391 395 390
f 390 395 392
f 392 395 396
f 392 396 394
f 399 398 397
f 397 400 399
f 402 401 241
f 241 401 240
f 404 402 403
f 402 242 403
f 402 241 242
f 244 403 242
f 406 405 248
f 248 405 247
f 407 248 249
f 407 406 248
f 408 249 250
f 408 407 249
f 409 397 252
f 397 408 252
f 408 250 252
f 397 398 408
f 400 397 410
f 410 397 409
f 401 254 240
f 411 254 401
f 412 404 403
f 414 412 413
f 413 412 255
f 412 403 255
f 403 244 255
f 256 413 255
f 405 259 247
f 415 259 405
f 261 409 252
f 417 416 263
f 263 416 261
f 416 410 261
f 410 409 261
f 417 418 416
f 421 420 419
f 419 422 264
f 411 419 264
f 254 411 264
f 419 411 421
f 422 265 264
f 423 414 413
f 423 413 256
f 266 423 256
f 424 423 266
f 425 266 267
f 425 424 266
f 267 259 415
f 267 415 425
f 270 417 263
f 427 426 272
f 272 426 270
f 426 418 270
f 418 417 270
f 429 428 427
f 427 428 426
f 429 430 428
f 431 274 275
f 276 431 275
f 420 432 419
f 434 433 432
f 433 419 432
f 433 422 419
f 433 278 265
f 433 265 422
f 281 435 427
f 281 427 272
f 427 436 429
f 427 435 436
f 430 429 437
f 437 429 436
f 439 438 284
f 284 438 283
f 284 274 431
f 440 284 431
f 439 284 440
f 431 276 440
f 276 441 440
f 276 286 441
f 433 434 442
f 442 434 443
f 444 287 278
f 433 444 278
f 442 444 433
f 444 289 287
f 291 445 435
f 291 435 281
f 435 446 436
f 435 445 446
f 437 436 447
f 436 448 447
f 436 446 448
f 438 447 448
f 293 438 448
f 283 438 293
f 295 441 286
f 295 449 441
f 443 450 442
f 452 451 450
f 451 442 450
f 451 444 442
f 451 297 289
f 451 289 444
f 299 453 298
f 453 301 298
f 302 445 291
f 445 302 304
f 445 304 446
f 446 304 306
f 446 306 448
f 448 306 293
f 310 449 295
f 310 454 449
f 452 455 451
f 297 451 455
f 456 297 455
f 312 297 456
f 316 457 315
f 458 317 315
f 458 315 457
f 453 299 317
f 458 453 317
f 459 453 458
f 460 318 301
f 453 460 301
f 459 460 453
f 460 320 318
f 322 461 321
f 454 310 462
f 310 461 462
f 461 463 462
f 310 321 461
f 463 464 462
f 456 324 312
f 465 324 456
f 325 466 326
f 467 327 326
f 467 326 466
f 468 328 327
f 468 327 467
f 457 316 328
f 468 457 328
f 469 457 468
f 457 470 458
f 457 469 470
f 458 471 459
f 458 470 471
f 459 472 460
f 459 471 472
f 472 330 320
f 472 320 460
f 331 461 322
f 461 331 332
f 461 332 463
f 474 473 333
f 333 473 332
f 473 464 332
f 464 463 332
f 474 475 473
f 465 335 324
f 476 335 465
f 336 477 466
f 336 466 325
f 466 478 467
f 466 477 478
f 467 479 468
f 467 478 479
f 468 480 469
f 468 479 480
f 469 481 470
f 469 480 481
f 470 482 471
f 470 481 482
f 471 483 472
f 471 482 483
f 483 338 330
f 483 330 472
f 339 474 333
f 339 340 474
f 340 475 474
f 340 484 475
f 476 342 335
f 485 342 476
f 343 486 477
f 343 477 336
f 477 487 478
f 477 486 487
f 478 488 479
f 478 487 488
f 479 489 480
f 479 488 489
f 489 345 346
f 481 489 346
f 480 489 481
f 481 346 347
f 481 347 482
f 482 347 349
f 482 349 483
f 483 349 338
f 491 490 352
f 491 352 353
f 352 492 354
f 490 492 352
f 340 354 484
f 484 354 492
f 495 494 493
f 493 496 355
f 485 493 355
f 342 485 355
f 493 485 495
f 486 343 355
f 496 486 355
f 497 486 496
f 486 498 487
f 486 497 498
f 498 357 358
f 488 498 358
f 487 498 488
f 488 358 359
f 488 359 489
f 489 359 345
f 500 499 364
f 500 364 365
f 353 364 491
f 491 364 499
f 494 501 493
f 503 502 501
f 502 493 501
f 502 496 493
f 496 504 497
f 496 502 504
f 497 505 498
f 497 504 505
f 506 366 357
f 498 506 357
f 505 506 498
f 506 367 366
f 508 507 371
f 508 371 370
f 365 371 500
f 500 371 507
f 502 503 509
f 509 503 510
f 502 511 504
f 502 509 511
f 504 512 505
f 504 511 512
f 505 513 506
f 505 512 513
f 513 373 367
f 513 367 506
f 515 514 377
f 515 377 378
f 377 516 379
f 514 516 377
f 370 379 508
f 508 379 516
f 519 518 517
f 520 509 510
f 517 521 519
f 509 520 511
f 511 520 522
f 524 523 522
f 523 511 522
f 523 512 511
f 523 381 382
f 513 523 382
f 512 523 513
f 513 382 373
f 526 525 387
f 526 387 386
f 387 527 388
f 525 527 387
f 378 388 515
f 515 388 527
f 530 529 528
f 530 528 518
f 528 517 518
f 528 531 517
f 521 517 532
f 532 517 531
f 523 524 533
f 533 524 534
f 535 389 381
f 523 535 381
f 533 535 523
f 535 391 389
f 538 537 536
f 393 394 536
f 537 393 536
f 539 393 537
f 386 393 526
f 526 393 539
f 528 529 540
f 540 529 541
f 543 531 542
f 531 540 542
f 531 528 540
f 531 543 532
f 534 544 533
f 533 544 535
f 535 544 545
f 535 545 391
f 545 395 391
f 545 546 395
f 536 396 538
f 396 546 538
f 396 395 546
f 396 536 394
f 549 548 547
f 547 550 549
f 541 551 540
f 540 551 542
f 554 553 552
f 554 552 548
f 552 547 548
f 552 555 547
f 550 547 556
f 556 547 555
f 553 557 552
f 552 557 555
f 555 557 558
f 555 558 556
f 559 398 399
f 559 399 400
f 562 561 560
f 564 563 560
f 560 563 562
f 564 565 563
f 566 401 402
f 404 566 402
f 567 405 406
f 567 406 568
f 406 569 568
f 406 407 569
f 570 407 408
f 570 569 407
f 408 398 559
f 571 408 559
f 570 408 571
f 410 559 400
f 559 410 571
f 572 571 410
f 571 572 561
f 560 561 572
f 560 573 564
f 560 572 573
f 565 564 574
f 574 564 573
f 576 575 566
f 575 401 566
f 575 411 401
f 576 566 404
f 412 576 404
f 577 576 412
f 412 414 577
f 577 414 578
f 579 415 567
f 567 415 405
f 567 568 580
f 567 580 579
f 416 572 410
f 572 416 418
f 581 572 418
f 573 572 581
f 574 573 582
f 582 573 581
f 583 420 421
f 584 583 421
f 411 584 421
f 575 584 411
f 585 578 414
f 585 414 423
f 586 423 424
f 586 585 423
f 587 424 425
f 587 586 424
f 425 415 579
f 588 425 579
f 587 425 588
f 588 579 580
f 426 581 418
f 589 582 581
f 426 589 581
f 428 589 426
f 428 430 589
f 589 430 590
f 583 432 420
f 434 432 583
f 584 434 583
f 591 434 584
f 437 593 592
f 590 437 592
f 430 437 590
f 438 439 593
f 439 592 593
f 439 594 592
f 595 439 440
f 595 594 439
f 440 441 595
f 595 441 596
f 591 443 434
f 597 443 591
f 447 593 437
f 593 447 438
f 449 596 441
f 449 598 596
f 450 443 599
f 443 600 599
f 443 597 600
f 599 452 450
f 454 602 601
f 598 454 601
f 449 454 598
f 602 603 601
f 599 600 604
f 604 600 605
f 606 455 452
f 599 606 452
f 604 606 599
f 606 456 455
f 462 602 454
f 608 607 464
f 464 607 462
f 607 603 462
f 603 602 462
f 608 609 607
f 605 610 604
f 612 611 610
f 611 604 610
f 611 606 604
f 611 465 456
f 611 456 606
f 473 608 464
f 473 475 608
f 475 609 608
f 475 613 609
f 611 612 614
f 614 612 615
f 614 476 465
f 614 465 611
f 618 617 616
f 617 613 616
f 613 484 616
f 613 475 484
f 621 620 619
f 621 619 615
f 619 614 615
f 619 622 614
f 622 485 476
f 622 476 614
f 624 623 490
f 624 490 491
f 616 492 618
f 492 623 618
f 492 490 623
f 492 616 484
f 619 620 625
f 625 620 626
f 625 494 495
f 622 625 495
f 619 625 622
f 622 495 485
f 629 628 627
f 499 500 627
f 628 499 627
f 630 499 628
f 491 499 624
f 624 499 630
f 625 626 631
f 631 626 632
f 633 501 494
f 625 633 494
f 631 633 625
f 633 503 501
f 636 635 634
f 634 635 629
f 634 629 627
f 508 634 627
f 507 508 627
f 507 627 500
f 631 632 637
f 637 632 638
f 631 639 633
f 631 637 639
f 639 510 503
f 639 503 633
f 642 641 640
f 514 515 640
f 641 514 640
f 643 514 641
f 634 516 636
f 516 643 636
f 516 514 643
f 516 634 508
f 637 638 644
f 644 638 645
f 644 518 519
f 639 644 519
f 637 644 639
f 646 519 521
f 646 639 519
f 646 520 510
f 639 646 510
f 647 522 520
f 647 520 646
f 647 524 522
f 649 648 525
f 649 525 526
f 640 527 642
f 527 648 642
f 527 525 648
f 527 640 515
f 644 645 530
f 645 529 530
f 645 650 529
f 644 530 518
f 532 651 646
f 532 646 521
f 646 652 647
f 646 651 652
f 652 534 524
f 652 524 647
f 655 654 653
f 657 656 653
f 657 653 654
f 537 538 656
f 657 537 656
f 658 537 657
f 537 659 539
f 658 659 537
f 526 539 649
f 649 539 659
f 662 661 660
f 650 662 660
f 541 650 660
f 529 650 541
f 542 663 543
f 651 532 543
f 663 651 543
f 664 651 663
f 666 652 665
f 652 664 665
f 652 651 664
f 652 666 534
f 666 544 534
f 666 667 544
f 653 545 655
f 545 667 655
f 545 544 667
f 545 653 546
f 546 653 656
f 546 656 538
f 670 669 668
f 548 549 668
f 549 670 668
f 549 671 670
f 673 672 550
f 672 549 550
f 672 671 549
f 675 674 673
f 673 674 672
f 674 675 661
f 675 660 661
f 675 676 660
f 677 551 541
f 660 677 541
f 676 677 660
f 677 678 551
f 551 678 542
f 678 679 542
f 679 663 542
f 663 679 664
f 664 679 680
f 664 680 665
f 668 669 554
f 669 553 554
f 669 681 553
f 668 554 548
f 683 682 673
f 550 683 673
f 556 683 550
f 673 682 675
f 675 682 684
f 675 684 676
f 676 684 685
f 676 685 677
f 677 685 686
f 677 686 678
f 681 687 553
f 553 687 557
f 557 688 558
f 687 688 557
f 556 558 683
f 683 558 688
f 691 690 689
f 693 692 689
f 689 692 691
f 561 562 693
f 562 692 693
f 562 694 692
f 695 562 563
f 695 694 562
f 697 696 565
f 696 563 565
f 696 695 563
f 697 698 696
f 700 699 569
f 569 699 568
f 570 689 690
f 700 570 690
f 569 570 700
f 689 570 571
f 689 571 693
f 693 571 561
f 574 701 697
f 574 697 565
f 698 697 702
f 702 697 701
f 704 703 576
f 576 703 575
f 706 704 705
f 704 577 705
f 704 576 577
f 705 577 578
f 709 708 707
f 707 710 709
f 713 712 711
f 699 713 711
f 580 699 711
f 568 699 580
f 582 714 701
f 582 701 574
f 702 701 715
f 715 701 714
f 703 584 575
f 716 584 703
f 717 706 705
f 717 707 708
f 717 585 707
f 717 705 578
f 585 717 578
f 718 710 707
f 585 718 707
f 586 718 585
f 719 586 587
f 719 718 586
f 588 711 712
f 719 588 712
f 587 588 719
f 711 588 580
f 589 714 582
f 721 720 590
f 590 720 589
f 720 715 589
f 715 714 589
f 723 722 721
f 721 722 720
f 725 724 723
f 723 724 722
f 725 726 724
f 716 591 584
f 727 591 716
f 592 721 590
f 721 592 594
f 721 594 723
f 723 594 595
f 723 595 725
f 595 596 725
f 596 726 725
f 596 728 726
f 727 597 591
f 729 597 727
f 598 728 596
f 598 730 728
f 733 732 731
f 729 733 731
f 600 729 731
f 597 729 600
f 734 730 598
f 734 598 601
f 736 735 603
f 735 601 603
f 735 734 601
f 736 737 735
f 731 732 738
f 738 732 739
f 738 605 600
f 738 600 731
f 741 607 740
f 741 603 607
f 736 603 741
f 736 741 742
f 742 737 736
f 609 740 607
f 738 739 743
f 743 739 744
f 745 610 605
f 738 745 605
f 743 745 738
f 745 612 610
f 741 740 746
f 741 746 747
f 613 746 609
f 609 746 740
f 750 749 748
f 750 748 744
f 748 743 744
f 748 751 743
f 743 752 745
f 743 751 752
f 752 615 612
f 752 612 745
f 755 754 753
f 753 754 747
f 753 747 746
f 618 753 746
f 617 618 746
f 617 746 613
f 749 756 748
f 758 757 756
f 757 748 756
f 757 751 748
f 757 620 621
f 752 757 621
f 751 757 752
f 752 621 615
f 761 760 759
f 759 760 755
f 759 755 753
f 624 759 753
f 623 624 753
f 623 753 618
f 758 762 757
f 620 757 762
f 763 620 762
f 626 620 763
f 765 764 628
f 765 628 629
f 759 630 761
f 630 764 761
f 630 628 764
f 630 759 624
f 763 632 626
f 766 632 763
f 769 768 767
f 635 636 767
f 768 635 767
f 770 635 768
f 629 635 765
f 765 635 770
f 766 638 632
f 771 638 766
f 773 772 641
f 773 641 642
f 767 643 769
f 643 772 769
f 643 641 772
f 643 767 636
f 776 775 774
f 771 776 774
f 645 771 774
f 638 771 645
f 779 778 777
f 648 649 777
f 778 648 777
f 780 648 778
f 642 648 773
f 773 648 780
f 774 775 781
f 781 775 782
f 781 650 645
f 781 645 774
f 785 784 783
f 787 786 783
f 787 783 784
f 654 655 786
f 787 654 786
f 788 654 787
f 654 789 657
f 788 789 654
f 657 790 658
f 789 790 657
f 777 659 779
f 659 790 779
f 659 658 790
f 659 777 649
f 781 782 662
f 782 661 662
f 782 791 661
f 781 662 650
f 794 793 792
f 796 795 792
f 796 792 793
f 795 796 785
f 795 785 783
f 665 795 783
f 666 665 783
f 666 783 667
f 667 783 786
f 667 786 655
f 798 797 670
f 670 797 669
f 799 670 671
f 799 798 670
f 800 671 672
f 800 799 671
f 801 672 674
f 801 800 672
f 791 802 661
f 803 661 802
f 661 803 674
f 804 674 803
f 674 804 801
f 806 805 803
f 806 803 802
f 805 806 794
f 805 794 792
f 678 805 792
f 679 678 792
f 679 792 680
f 680 792 795
f 680 795 665
f 797 681 669
f 807 681 797
f 810 809 808
f 682 683 808
f 809 682 808
f 811 682 809
f 682 812 684
f 811 812 682
f 803 685 804
f 685 812 804
f 685 684 812
f 685 803 686
f 686 803 805
f 686 805 678
f 807 813 681
f 681 813 687
f 808 688 810
f 688 813 810
f 688 687 813
f 688 808 683
f 814 690 691
f 814 691 815
f 691 816 815
f 691 692 816
f 817 692 694
f 817 816 692
f 818 694 695
f 818 817 694
f 819 695 696
f 819 818 695
f 696 698 819
f 819 698 820
f 822 821 700
f 700 821 699
f 700 690 814
f 823 700 814
f 822 700 823
f 823 814 815
f 702 825 824
f 820 702 824
f 698 702 820
f 825 826 824
f 827 703 704
f 706 827 704
f 828 708 709
f 828 709 710
f 831 830 829
f 833 832 829
f 829 832 831
f 712 713 833
f 713 832 833
f 713 834 832
f 713 699 821
f 713 821 834
f 715 835 825
f 715 825 702
f 826 825 836
f 836 825 835
f 837 716 827
f 827 716 703
f 837 827 706
f 838 837 706
f 717 838 706
f 839 837 838
f 717 708 828
f 840 717 828
f 838 717 840
f 840 829 830
f 840 718 829
f 840 828 710
f 718 840 710
f 829 718 719
f 829 719 833
f 833 719 712
f 720 835 715
f 841 836 835
f 720 841 835
f 722 841 720
f 842 722 724
f 842 841 722
f 844 843 726
f 843 724 726
f 843 842 724
f 844 845 843
f 847 846 837
f 846 716 837
f 846 727 716
f 847 837 839
f 728 848 844
f 728 844 726
f 845 844 849
f 844 850 849
f 844 848 850
f 852 851 850
f 850 851 849
f 852 853 851
f 846 729 727
f 854 729 846
f 730 855 848
f 730 848 728
f 848 856 850
f 848 855 856
f 850 857 852
f 850 856 857
f 853 852 858
f 858 852 857
f 860 859 733
f 733 859 732
f 733 729 854
f 733 854 860
f 734 855 730
f 855 734 735
f 855 735 856
f 857 856 861
f 856 737 861
f 737 862 861
f 737 856 735
f 857 861 858
f 865 864 863
f 859 865 863
f 739 859 863
f 732 859 739
f 867 866 742
f 867 742 741
f 737 742 862
f 862 742 866
f 863 864 868
f 868 864 869
f 868 744 739
f 868 739 863
f 872 871 870
f 871 867 870
f 867 747 870
f 867 741 747
f 868 869 750
f 869 749 750
f 869 873 749
f 868 750 744
f 876 875 874
f 874 875 872
f 874 872 870
f 755 874 870
f 754 755 870
f 754 870 747
f 873 877 749
f 749 877 756
f 758 756 877
f 758 877 878
f 881 880 879
f 879 880 876
f 879 876 874
f 761 879 874
f 760 761 874
f 760 874 755
f 762 758 882
f 758 883 882
f 758 878 883
f 882 763 762
f 886 885 884
f 884 885 881
f 884 881 879
f 765 884 879
f 764 765 879
f 764 879 761
f 883 887 882
f 763 882 887
f 888 763 887
f 766 763 888
f 890 889 768
f 890 768 769
f 884 770 886
f 770 889 886
f 770 768 889
f 770 884 765
f 893 892 891
f 888 893 891
f 771 888 891
f 766 888 771
f 896 895 894
f 772 773 894
f 895 772 894
f 897 772 895
f 769 772 890
f 890 772 897
f 891 892 776
f 892 775 776
f 892 898 775
f 891 776 771
f 901 900 899
f 903 902 899
f 903 899 900
f 778 779 902
f 903 778 902
f 904 778 903
f 894 780 896
f 780 904 896
f 780 778 904
f 780 894 773
f 898 782 775
f 905 782 898
f 907 906 784
f 907 784 785
f 784 908 787
f 906 908 784
f 787 909 788
f 908 909 787
f 899 789 901
f 789 909 901
f 789 788 909
f 789 899 790
f 790 899 902
f 790 902 779
f 911 791 910
f 791 905 910
f 791 782 905
f 913 912 911
f 913 911 910
f 793 794 912
f 913 793 912
f 914 793 913
f 793 915 796
f 914 915 793
f 785 796 907
f 907 796 915
f 916 797 798
f 799 917 798
f 798 917 916
f 800 918 799
f 799 918 917
f 801 919 800
f 800 919 918
f 791 911 802
f 919 801 804
f 802 911 806
f 806 911 912
f 806 912 794
f 920 807 916
f 916 807 797
f 810 920 809
f 920 917 809
f 920 916 917
f 809 917 811
f 811 917 918
f 811 918 812
f 812 918 919
f 812 919 804
f 920 813 807
f 813 920 810
f 921 815 816
f 921 816 922
f 816 923 922
f 816 817 923
f 924 817 818
f 924 923 817
f 925 818 819
f 925 924 818
f 819 820 925
f 925 820 926
f 928 927 822
f 822 927 821
f 929 822 823
f 929 928 822
f 823 815 921
f 930 823 921
f 929 823 930
f 930 921 922
f 931 926 820
f 931 820 824
f 824 826 931
f 931 826 932
f 935 934 933
f 830 831 933
f 831 935 933
f 831 936 935
f 937 831 832
f 937 936 831
f 938 832 834
f 938 937 832
f 834 821 927
f 834 927 938
f 836 940 939
f 932 836 939
f 826 836 932
f 942 941 940
f 940 941 939
f 944 943 942
f 942 943 941
f 944 945 943
f 947 946 838
f 838 946 839
f 840 933 934
f 947 840 934
f 838 840 947
f 933 840 830
f 841 940 836
f 940 841 842
f 940 842 942
f 942 842 843
f 942 843 944
f 949 948 845
f 845 948 843
f 948 945 843
f 945 944 843
f 949 950 948
f 952 951 847
f 847 951 846
f 847 839 946
f 847 946 952
f 849 949 845
f 953 950 949
f 849 953 949
f 851 953 849
f 955 954 853
f 954 851 853
f 954 953 851
f 955 956 954
f 959 958 957
f 951 959 957
f 854 951 957
f 846 951 854
f 961 960 955
f 853 961 955
f 858 961 853
f 955 960 956
f 957 958 860
f 958 859 860
f 958 962 859
f 957 860 854
f 965 964 963
f 861 862 963
f 964 861 963
f 966 861 964
f 858 861 961
f 961 861 966
f 968 967 865
f 865 967 864
f 865 859 962
f 865 962 968
f 971 970 969
f 969 970 965
f 969 965 963
f 867 969 963
f 866 867 963
f 866 963 862
f 974 973 972
f 967 974 972
f 869 967 972
f 864 967 869
f 977 976 975
f 975 976 971
f 975 971 969
f 872 975 969
f 871 872 969
f 871 969 867
f 973 978 972
f 869 972 978
f 979 869 978
f 873 869 979
f 982 981 980
f 980 981 977
f 980 977 975
f 876 980 975
f 875 876 975
f 875 975 872
f 877 873 983
f 873 984 983
f 873 979 984
f 983 878 877
f 987 986 985
f 985 986 982
f 985 982 980
f 881 985 980
f 880 881 980
f 880 980 876
f 983 984 988
f 988 984 989
f 988 883 878
f 988 878 983
f 992 991 990
f 990 991 987
f 990 987 985
f 886 990 985
f 885 886 985
f 885 985 881
f 989 993 988
f 993 995 994
f 993 994 887
f 988 993 887
f 883 988 887
f 994 888 887
f 998 997 996
f 996 997 992
f 996 992 990
f 890 996 990
f 889 890 990
f 889 990 886
f 994 995 893
f 995 892 893
f 995 999 892
f 994 893 888
f 1002 1001 1000
f 1004 1003 1000
f 1004 1000 1001
f 895 896 1003
f 1004 895 1003
f 1005 895 1004
f 996 897 998
f 897 1005 998
f 897 895 1005
f 897 996 890
f 999 898 892
f 1006 898 999
f 1009 1008 1007
f 1011 1010 1007
f 1011 1007 1008
f 900 901 1010
f 1011 900 1010
f 1012 900 1011
f 1000 903 1002
f 903 1012 1002
f 903 900 1012
f 903 1000 904
f 904 1000 1003
f 904 1003 896
f 1006 905 898
f 1013 905 1006
f 1016 1015 1014
f 1017 1014 1015
f 1019 1018 906
f 1019 906 907
f 1007 908 1009
f 908 1018 1009
f 908 906 1018
f 908 1007 909
f 909 1007 1010
f 909 1010 901
f 1013 1020 905
f 905 1020 910
f 910 1021 913
f 1020 1021 910
f 1014 914 1016
f 914 1021 1016
f 914 913 1021
f 1017 1022 1014
f 1022 914 1014
f 1022 915 914
f 907 915 1019
f 1019 915 1022
f 1023 922 923
f 924 1024 923
f 923 1024 1023
f 1024 924 1025
f 924 1026 1025
f 924 925 1026
f 1028 1027 926
f 1027 925 926
f 1027 1026 925
f 1028 1029 1027
f 1031 1030 928
f 928 1030 927
f 1032 928 929
f 1032 1031 928
f 1033 929 930
f 1033 1032 929
f 930 922 1023
f 1034 930 1023
f 1033 930 1034
f 1034 1023 1024
f 1034 1024 1035
f 1035 1024 1025
f 931 1028 926
f 1037 1036 932
f 932 1036 931
f 1036 1029 931
f 1029 1028 931
f 1037 1038 1036
f 1040 1039 935
f 935 1039 934
f 1041 935 936
f 1041 1040 935
f 1042 936 937
f 1042 1041 936
f 1043 937 938
f 1043 1042 937
f 938 927 1030
f 938 1030 1043
f 939 1037 932
f 1044 1038 1037
f 939 1044 1037
f 941 1044 939
f 1045 941 943
f 1045 1044 941
f 943 945 1045
f 1045 945 1046
f 1047 946 947
f 1048 1047 947
f 934 1048 947
f 1039 1048 934
f 1049 1046 945
f 1049 945 948
f 1051 1050 950
f 1050 948 950
f 1050 1049 948
f 1053 1052 1051
f 1051 1052 1050
f 1055 1054 1053
f 1053 1054 1052
f 1055 1056 1054
f 1057 951 952
f 1058 1057 952
f 1058 952 946
f 1059 1058 946
f 1047 1059 946
f 1059 1047 1048
f 1051 950 953
f 1062 1061 1060
f 1061 1062 1063
f 1064 1061 1063
f 954 1064 1063
f 953 954 1063
f 1051 953 1063
f 1053 1051 1063
f 1065 1053 1063
f 1062 1065 1063
f 1064 954 956
f 1055 1065 1066
f 1065 1055 1053
f 1055 1066 1056
f 1067 958 959
f 1068 1067 959
f 1068 959 951
f 1069 1068 951
f 1057 1069 951
f 1069 1057 1058
f 1060 1061 1070
f 1060 1070 1071
f 961 1070 960
f 1070 1064 960
f 1070 1061 1064
f 960 1064 956
f 1073 1072 1067
f 1072 958 1067
f 1072 962 958
f 1073 1067 1068
f 1076 1075 1074
f 964 965 1074
f 1075 964 1074
f 1077 964 1075
f 1070 966 1071
f 966 1077 1071
f 966 964 1077
f 966 1070 961
f 1079 1078 968
f 968 1078 967
f 968 962 1072
f 968 1072 1079
f 1082 1081 1080
f 1080 1081 1076
f 1080 1076 1074
f 971 1080 1074
f 970 971 1074
f 970 1074 965
f 1084 1083 974
f 974 1083 973
f 974 967 1078
f 974 1078 1084
f 1087 1086 1085
f 1085 1086 1082
f 1085 1082 1080
f 977 1085 1080
f 976 977 1080
f 976 1080 971
f 978 973 1088
f 973 1089 1088
f 973 1083 1089
f 1088 979 978
f 1092 1091 1090
f 1090 1091 1087
f 1090 1087 1085
f 982 1090 1085
f 981 982 1085
f 981 1085 977
f 1088 1089 1093
f 1093 1089 1094
f 1093 984 979
f 1093 979 1088
f 1097 1096 1095
f 1095 1096 1092
f 1095 1092 1090
f 987 1095 1090
f 986 987 1090
f 986 1090 982
f 1094 1098 1093
f 984 1093 1098
f 1099 984 1098
f 989 984 1099
f 1102 1101 1100
f 1100 1101 1097
f 1100 1097 1095
f 992 1100 1095
f 991 992 1095
f 991 1095 987
f 993 989 1103
f 989 1104 1103
f 989 1099 1104
f 1103 995 993
f 1107 1106 1105
f 1109 1108 1105
f 1109 1105 1106
f 1108 1109 1102
f 1108 1102 1100
f 998 1108 1100
f 997 998 1100
f 997 1100 992
f 1104 1110 1103
f 995 1103 1110
f 1111 995 1110
f 999 995 1111
f 1114 1113 1112
f 1116 1115 1112
f 1116 1112 1113
f 1118 1117 1115
f 1118 1115 1116
f 1001 1002 1117
f 1118 1001 1117
f 1119 1001 1118
f 1105 1004 1107
f 1004 1119 1107
f 1004 1001 1119
f 1004 1105 1005
f 1005 1105 1108
f 1005 1108 998
f 1111 1006 999
f 1120 1006 1111
f 1114 1112 1008
f 1009 1114 1008
f 1121 1114 1009
f 1008 1112 1011
f 1011 1112 1115
f 1011 1115 1012
f 1012 1115 1117
f 1012 1117 1002
f 1120 1013 1006
f 1122 1013 1120
f 1125 1124 1123
f 1015 1016 1123
f 1124 1015 1123
f 1126 1015 1124
f 1128 1127 1017
f 1015 1128 1017
f 1126 1128 1015
f 1018 1019 1127
f 1128 1018 1127
f 1129 1018 1128
f 1009 1018 1121
f 1121 1018 1129
f 1122 1130 1013
f 1013 1130 1020
f 1123 1021 1125
f 1021 1130 1125
f 1021 1020 1130
f 1021 1123 1016
f 1127 1022 1017
f 1022 1127 1019
f 1131 1025 1026
f 1027 1132 1026
f 1026 1132 1131
f 1029 1132 1027
f 1135 1134 1133
f 1133 1136 1135
f 1138 1137 1031
f 1031 1137 1030
f 1139 1031 1032
f 1139 1138 1031
f 1140 1032 1033
f 1140 1139 1032
f 1141 1033 1034
f 1141 1140 1033
f 1142 1034 1035
f 1142 1141 1034
f 1035 1025 1131
f 1143 1035 1131
f 1142 1035 1143
f 1143 1131 1132
f 1143 1132 1144
f 1146 1144 1145
f 1145 1144 1036
f 1144 1132 1036
f 1132 1029 1036
f 1038 1145 1036
f 1147 1039 1040
f 1134 1148 1133
f 1148 1040 1133
f 1040 1041 1133
f 1040 1148 1147
f 1149 1136 1133
f 1041 1149 1133
f 1042 1149 1041
f 1150 1042 1043
f 1150 1149 1042
f 1043 1030 1137
f 1043 1137 1150
f 1151 1146 1145
f 1151 1145 1038
f 1044 1151 1038
f 1152 1151 1044
f 1153 1044 1045
f 1153 1152 1044
f 1155 1154 1046
f 1154 1045 1046
f 1154 1153 1045
f 1155 1156 1154
f 1158 1157 1147
f 1157 1039 1147
f 1157 1048 1039
f 1158 1147 1148
f 1049 1155 1046
f 1159 1156 1155
f 1049 1159 1155
f 1050 1159 1049
f 1161 1159 1160
f 1159 1052 1160
f 1159 1050 1052
f 1054 1162 1052
f 1052 1162 1160
f 1056 1162 1054
f 1164 1163 1059
f 1059 1163 1058
f 1059 1048 1157
f 1059 1157 1164
f 1167 1166 1165
f 1062 1060 1165
f 1166 1062 1165
f 1168 1062 1166
f 1160 1065 1161
f 1065 1168 1161
f 1065 1062 1168
f 1065 1160 1066
f 1066 1160 1162
f 1066 1162 1056
f 1171 1170 1169
f 1068 1069 1169
f 1069 1171 1169
f 1069 1172 1171
f 1069 1058 1163
f 1069 1163 1172
f 1175 1174 1173
f 1173 1174 1167
f 1165 1173 1167
f 1176 1173 1165
f 1071 1176 1060
f 1060 1176 1165
f 1169 1170 1073
f 1170 1072 1073
f 1170 1177 1072
f 1169 1073 1068
f 1180 1179 1178
f 1178 1179 1175
f 1178 1175 1173
f 1076 1178 1173
f 1075 1076 1173
f 1075 1173 1077
f 1077 1173 1176
f 1077 1176 1071
f 1181 1078 1079
f 1182 1181 1079
f 1072 1182 1079
f 1177 1182 1072
f 1185 1184 1183
f 1183 1184 1180
f 1183 1180 1178
f 1082 1183 1178
f 1081 1082 1178
f 1081 1178 1076
f 1187 1186 1084
f 1084 1186 1083
f 1084 1078 1181
f 1188 1084 1181
f 1187 1084 1188
f 1188 1181 1182
f 1191 1190 1189
f 1189 1190 1185
f 1189 1185 1183
f 1087 1189 1183
f 1086 1087 1183
f 1086 1183 1082
f 1186 1089 1083
f 1192 1089 1186
f 1195 1194 1193
f 1193 1194 1191
f 1193 1191 1189
f 1092 1193 1189
f 1091 1092 1189
f 1091 1189 1087
f 1192 1094 1089
f 1196 1094 1192
f 1199 1198 1197
f 1201 1200 1197
f 1201 1197 1198
f 1200 1201 1195
f 1200 1195 1193
f 1097 1200 1193
f 1096 1097 1193
f 1096 1193 1092
f 1098 1094 1202
f 1094 1203 1202
f 1094 1196 1203
f 1202 1099 1098
f 1206 1205 1204
f 1204 1205 1199
f 1197 1204 1199
f 1207 1204 1197
f 1102 1207 1101
f 1207 1200 1101
f 1207 1197 1200
f 1101 1200 1097
f 1203 1208 1202
f 1099 1202 1208
f 1209 1099 1208
f 1104 1099 1209
f 1212 1211 1210
f 1214 1213 1210
f 1214 1210 1211
f 1216 1215 1213
f 1216 1213 1214
f 1215 1216 1206
f 1215 1206 1204
f 1107 1215 1204
f 1106 1107 1204
f 1106 1204 1109
f 1109 1204 1207
f 1109 1207 1102
f 1110 1104 1217
f 1104 1218 1217
f 1104 1209 1218
f 1217 1111 1110
f 1220 1219 1113
f 1220 1113 1114
f 1210 1116 1212
f 1116 1219 1212
f 1116 1113 1219
f 1116 1210 1118
f 1118 1210 1213
f 1118 1213 1119
f 1119 1213 1215
f 1119 1215 1107
f 1217 1218 1221
f 1221 1218 1222
f 1221 1120 1111
f 1221 1111 1217
f 1225 1224 1223
f 1227 1226 1223
f 1227 1223 1224
f 1229 1228 1226
f 1229 1226 1227
f 1229 1220 1228
f 1220 1121 1228
f 1220 1114 1121
f 1222 1230 1221
f 1122 1120 1221
f 1231 1122 1221
f 1230 1231 1221
f 1122 1231 1232
f 1124 1125 1232
f 1231 1124 1232
f 1233 1124 1231
f 1223 1126 1225
f 1126 1233 1225
f 1126 1124 1233
f 1126 1223 1128
f 1128 1223 1226
f 1128 1226 1129
f 1129 1226 1228
f 1129 1228 1121
f 1232 1130 1122
f 1130 1232 1125
f 1235 1234 1135
f 1135 1234 1134
f 1237 1236 1136
f 1236 1135 1136
f 1236 1235 1135
f 1237 1238 1236
f 1239 1137 1138
f 1139 1240 1138
f 1138 1240 1239
f 1140 1241 1139
f 1139 1241 1240
f 1241 1140 1242
f 1140 1243 1242
f 1140 1141 1243
f 1244 1141 1142
f 1244 1243 1141
f 1246 1244 1245
f 1244 1143 1245
f 1244 1142 1143
f 1144 1247 1143
f 1143 1247 1245
f 1146 1247 1144
f 1250 1249 1248
f 1234 1250 1248
f 1148 1234 1248
f 1134 1234 1148
f 1149 1237 1136
f 1251 1238 1237
f 1149 1251 1237
f 1150 1251 1149
f 1150 1137 1239
f 1252 1150 1239
f 1251 1150 1252
f 1252 1239 1240
f 1252 1240 1253
f 1253 1240 1241
f 1253 1241 1254
f 1254 1241 1242
f 1255 1246 1245
f 1255 1245 1247
f 1255 1247 1256
f 1256 1247 1146
f 1151 1256 1146
f 1257 1256 1151
f 1258 1151 1152
f 1258 1257 1151
f 1259 1152 1153
f 1259 1258 1152
f 1260 1153 1154
f 1260 1259 1153
f 1154 1156 1260
f 1260 1156 1261
f 1248 1249 1158
f 1249 1157 1158
f 1249 1262 1157
f 1248 1158 1148
f 1265 1264 1263
f 1266 1263 1159
f 1263 1261 1159
f 1261 1156 1159
f 1261 1263 1264
f 1161 1266 1159
f 1268 1267 1164
f 1164 1267 1163
f 1164 1157 1262
f 1164 1262 1268
f 1271 1270 1269
f 1269 1270 1265
f 1269 1265 1263
f 1167 1269 1263
f 1166 1167 1263
f 1166 1263 1168
f 1168 1263 1266
f 1168 1266 1161
f 1272 1170 1171
f 1172 1273 1171
f 1171 1273 1272
f 1274 1273 1172
f 1163 1274 1172
f 1267 1274 1163
f 1277 1276 1275
f 1275 1276 1271
f 1275 1271 1269
f 1175 1275 1269
f 1174 1175 1269
f 1174 1269 1167
f 1279 1278 1272
f 1278 1170 1272
f 1278 1177 1170
f 1281 1280 1279
f 1272 1281 1279
f 1273 1281 1272
f 1273 1274 1282
f 1273 1282 1281
f 1285 1284 1283
f 1287 1286 1283
f 1287 1283 1284
f 1286 1287 1277
f 1286 1277 1275
f 1180 1286 1275
f 1179 1180 1275
f 1179 1275 1175
f 1278 1182 1177
f 1288 1182 1278
f 1289 1280 1281
f 1289 1281 1282
f 1292 1291 1290
f 1290 1291 1285
f 1283 1290 1285
f 1293 1290 1283
f 1185 1293 1184
f 1293 1286 1184
f 1293 1283 1286
f 1184 1286 1180
f 1294 1186 1187
f 1294 1187 1295
f 1187 1296 1295
f 1187 1188 1296
f 1188 1182 1288
f 1188 1288 1296
f 1299 1298 1297
f 1297 1298 1292
f 1290 1297 1292
f 1300 1297 1290
f 1191 1300 1190
f 1300 1293 1190
f 1300 1290 1293
f 1190 1293 1185
f 1301 1192 1294
f 1294 1192 1186
f 1294 1295 1302
f 1294 1302 1301
f 1305 1304 1303
f 1303 1304 1299
f 1297 1303 1299
f 1306 1303 1297
f 1195 1306 1194
f 1306 1300 1194
f 1306 1297 1300
f 1194 1300 1191
f 1308 1307 1301
f 1307 1192 1301
f 1307 1196 1192
f 1308 1301 1302
f 1311 1310 1309
f 1309 1310 1305
f 1309 1305 1303
f 1199 1309 1303
f 1198 1199 1303
f 1198 1303 1201
f 1201 1303 1306
f 1201 1306 1195
f 1307 1203 1196
f 1312 1203 1307
f 1315 1314 1313
f 1317 1316 1313
f 1317 1313 1314
f 1316 1317 1311
f 1316 1311 1309
f 1206 1316 1309
f 1205 1206 1309
f 1205 1309 1199
f 1312 1318 1203
f 1203 1318 1208
f 1209 1208 1318
f 1209 1318 1319
f 1322 1321 1320
f 1211 1212 1320
f 1321 1211 1320
f 1323 1211 1321
f 1313 1214 1315
f 1214 1323 1315
f 1214 1211 1323
f 1214 1313 1216
f 1216 1313 1316
f 1216 1316 1206
f 1319 1218 1209
f 1324 1218 1319
f 1322 1320 1219
f 1220 1322 1219
f 1325 1322 1220
f 1219 1320 1212
f 1327 1222 1326
f 1222 1324 1326
f 1222 1218 1324
f 1329 1328 1327
f 1329 1327 1326
f 1331 1330 1328
f 1331 1328 1329
f 1224 1225 1330
f 1331 1224 1330
f 1332 1224 1331
f 1224 1333 1227
f 1332 1333 1224
f 1227 1334 1229
f 1333 1334 1227
f 1220 1229 1325
f 1325 1229 1334
f 1327 1230 1222
f 1230 1327 1231
f 1231 1327 1328
f 1231 1328 1233
f 1233 1328 1330
f 1233 1330 1225
f 1337 1336 1335
f 1335 1338 1337
f 1335 1336 1235
f 1336 1234 1235
f 1336 1339 1234
f 1340 1338 1335
f 1235 1340 1335
f 1236 1340 1235
f 1342 1341 1238
f 1341 1236 1238
f 1341 1340 1236
f 1342 1343 1341
f 1345 1344 1243
f 1243 1344 1242
f 1346 1243 1244
f 1346 1345 1243
f 1244 1246 1346
f 1346 1246 1347
f 1350 1349 1348
f 1352 1351 1348
f 1348 1351 1350
f 1352 1353 1351
f 1354 1249 1250
f 1355 1354 1250
f 1234 1355 1250
f 1339 1355 1234
f 1251 1342 1238
f 1356 1343 1342
f 1251 1356 1342
f 1252 1356 1251
f 1357 1252 1253
f 1357 1356 1252
f 1358 1253 1254
f 1358 1357 1253
f 1254 1242 1344
f 1254 1344 1358
f 1359 1347 1246
f 1359 1246 1255
f 1360 1255 1256
f 1360 1359 1255
f 1361 1256 1257
f 1361 1360 1256
f 1362 1257 1258
f 1362 1361 1257
f 1363 1258 1259
f 1363 1362 1258
f 1260 1348 1349
f 1363 1260 1349
f 1259 1260 1363
f 1352 1348 1364
f 1348 1261 1364
f 1261 1365 1364
f 1261 1348 1260
f 1352 1364 1353
f 1367 1366 1354
f 1366 1249 1354
f 1366 1262 1249
f 1367 1354 1355
f 1370 1369 1368
f 1264 1265 1368
f 1369 1264 1368
f 1371 1264 1369
f 1261 1264 1365
f 1365 1264 1371
f 1372 1267 1268
f 1373 1372 1268
f 1262 1373 1268
f 1366 1373 1262
f 1376 1375 1374
f 1378 1377 1374
f 1378 1374 1375
f 1377 1378 1370
f 1377 1370 1368
f 1271 1377 1368
f 1270 1271 1368
f 1270 1368 1265
f 1380 1379 1372
f 1379 1267 1372
f 1379 1274 1267
f 1380 1372 1373
f 1383 1382 1381
f 1381 1382 1376
f 1374 1381 1376
f 1384 1381 1374
f 1277 1384 1276
f 1384 1377 1276
f 1384 1374 1377
f 1276 1377 1271
f 1385 1278 1279
f 1280 1385 1279
f 1379 1282 1274
f 1386 1282 1379
f 1389 1388 1387
f 1387 1388 1383
f 1387 1383 1381
f 1285 1387 1381
f 1284 1285 1381
f 1284 1381 1287
f 1287 1381 1384
f 1287 1384 1277
f 1390 1288 1385
f 1385 1288 1278
f 1289 1391 1280
f 1391 1385 1280
f 1391 1390 1385
f 1392 1391 1289
f 1282 1392 1289
f 1386 1392 1282
f 1395 1394 1393
f 1397 1396 1393
f 1397 1393 1394
f 1396 1397 1389
f 1396 1389 1387
f 1292 1396 1387
f 1291 1292 1387
f 1291 1387 1285
f 1398 1295 1296
f 1288 1390 1296
f 1390 1398 1296
f 1390 1399 1398
f 1400 1390 1391
f 1399 1390 1400
f 1391 1392 1401
f 1391 1401 1400
f 1404 1403 1402
f 1402 1403 1395
f 1393 1402 1395
f 1405 1402 1393
f 1299 1405 1298
f 1405 1396 1298
f 1405 1393 1396
f 1298 1396 1292
f 1407 1406 1398
f 1406 1295 1398
f 1406 1302 1295
f 1407 1398 1399
f 1407 1399 1408
f 1408 1399 1400
f 1408 1400 1409
f 1409 1400 1401
f 1404 1402 1410
f 1404 1410 1411
f 1305 1410 1304
f 1410 1405 1304
f 1410 1402 1405
f 1304 1405 1299
f 1412 1307 1308
f 1413 1412 1308
f 1302 1413 1308
f 1406 1413 1302
f 1416 1415 1414
f 1418 1417 1414
f 1418 1414 1415
f 1417 1418 1411
f 1417 1411 1410
f 1311 1417 1410
f 1310 1311 1410
f 1310 1410 1305
f 1420 1419 1412
f 1419 1307 1412
f 1419 1312 1307
f 1420 1412 1413
f 1423 1422 1421
f 1425 1424 1421
f 1425 1421 1422
f 1424 1425 1416
f 1424 1416 1414
f 1315 1424 1414
f 1314 1315 1414
f 1314 1414 1317
f 1317 1414 1417
f 1317 1417 1311
f 1419 1426 1312
f 1312 1426 1318
f 1319 1318 1426
f 1319 1426 1427
f 1430 1429 1428
f 1428 1429 1423
f 1428 1423 1421
f 1322 1428 1421
f 1321 1322 1421
f 1321 1421 1323
f 1323 1421 1424
f 1323 1424 1315
f 1432 1324 1431
f 1324 1427 1431
f 1324 1319 1427
f 1434 1433 1432
f 1434 1432 1431
f 1436 1435 1433
f 1436 1433 1434
f 1438 1437 1435
f 1438 1435 1436
f 1440 1439 1437
f 1440 1437 1438
f 1439 1440 1430
f 1428 1439 1430
f 1441 1439 1428
f 1325 1441 1322
f 1322 1441 1428
f 1432 1326 1324
f 1326 1432 1329
f 1329 1432 1433
f 1329 1433 1331
f 1331 1433 1435
f 1331 1435 1332
f 1332 1435 1437
f 1332 1437 1333
f 1333 1437 1439
f 1333 1439 1334
f 1334 1439 1441
f 1334 1441 1325
f 1443 1442 1337
f 1337 1442 1336
f 1337 1338 1443
f 1443 1338 1444
f 1442 1339 1336
f 1445 1339 1442
f 1446 1444 1338
f 1446 1338 1340
f 1447 1340 1341
f 1447 1446 1340
f 1449 1448 1343
f 1448 1341 1343
f 1448 1447 1341
f 1449 1450 1448
f 1451 1344 1345
f 1451 1345 1452
f 1345 1453 1452
f 1345 1346 1453
f 1346 1347 1453
f 1453 1347 1454
f 1457 1456 1455
f 1455 1458 1457
f 1459 1349 1350
f 1351 1460 1350
f 1350 1460 1459
f 1353 1460 1351
f 1445 1355 1339
f 1461 1355 1445
f 1356 1449 1343
f 1356 1357 1449
f 1357 1462 1449
f 1462 1450 1449
f 1357 1463 1462
f 1358 1464 1357
f 1357 1464 1463
f 1344 1451 1358
f 1451 1464 1358
f 1451 1465 1464
f 1451 1452 1466
f 1451 1466 1465
f 1467 1454 1347
f 1467 1347 1359
f 1468 1359 1360
f 1468 1467 1359
f 1469 1360 1361
f 1469 1468 1360
f 1362 1455 1456
f 1469 1362 1456
f 1361 1362 1469
f 1362 1363 1455
f 1363 1470 1455
f 1470 1458 1455
f 1363 1471 1470
f 1349 1459 1363
f 1459 1471 1363
f 1459 1472 1471
f 1365 1472 1364
f 1472 1460 1364
f 1472 1459 1460
f 1364 1460 1353
f 1474 1473 1367
f 1367 1473 1366
f 1367 1355 1461
f 1367 1461 1474
f 1475 1462 1463
f 1475 1463 1464
f 1475 1464 1476
f 1476 1464 1465
f 1476 1465 1477
f 1477 1465 1466
f 1480 1479 1478
f 1482 1481 1478
f 1482 1478 1479
f 1481 1482 1470
f 1481 1470 1471
f 1370 1481 1471
f 1369 1370 1471
f 1369 1471 1371
f 1371 1471 1472
f 1371 1472 1365
f 1473 1373 1366
f 1483 1373 1473
f 1486 1485 1484
f 1484 1485 1480
f 1484 1480 1478
f 1376 1484 1478
f 1375 1376 1478
f 1375 1478 1378
f 1378 1478 1481
f 1378 1481 1370
f 1487 1379 1380
f 1488 1487 1380
f 1373 1488 1380
f 1483 1488 1373
f 1491 1490 1489
f 1489 1490 1486
f 1489 1486 1484
f 1383 1489 1484
f 1382 1383 1484
f 1382 1484 1376
f 1492 1386 1487
f 1487 1386 1379
f 1487 1488 1493
f 1487 1493 1492
f 1496 1495 1494
f 1498 1497 1494
f 1498 1494 1495
f 1500 1499 1497
f 1500 1497 1498
f 1499 1500 1491
f 1499 1491 1489
f 1389 1499 1489
f 1388 1389 1489
f 1388 1489 1383
f 1502 1501 1492
f 1501 1386 1492
f 1501 1392 1386
f 1502 1492 1493
f 1496 1494 1503
f 1496 1503 1504
f 1395 1503 1394
f 1503 1497 1394
f 1503 1494 1497
f 1394 1497 1397
f 1397 1497 1499
f 1397 1499 1389
f 1507 1506 1505
f 1501 1507 1505
f 1401 1501 1505
f 1392 1501 1401
f 1510 1509 1508
f 1508 1509 1504
f 1508 1504 1503
f 1404 1508 1503
f 1403 1404 1503
f 1403 1503 1395
f 1511 1406 1407
f 1408 1512 1407
f 1407 1512 1511
f 1506 1513 1505
f 1513 1408 1505
f 1408 1409 1505
f 1408 1513 1512
f 1505 1409 1401
f 1516 1515 1514
f 1514 1515 1510
f 1508 1514 1510
f 1517 1514 1508
f 1411 1517 1404
f 1404 1517 1508
f 1518 1413 1511
f 1511 1413 1406
f 1512 1520 1519
f 1518 1512 1519
f 1511 1512 1518
f 1520 1512 1513
f 1523 1522 1521
f 1525 1524 1521
f 1525 1521 1522
f 1524 1525 1516
f 1524 1516 1514
f 1416 1524 1514
f 1415 1416 1514
f 1415 1514 1418
f 1418 1514 1517
f 1418 1517 1411
f 1526 1419 1420
f 1527 1526 1420
f 1527 1420 1413
f 1528 1527 1413
f 1518 1528 1413
f 1528 1518 1519
f 1531 1530 1529
f 1529 1530 1523
f 1529 1523 1521
f 1423 1529 1521
f 1422 1423 1521
f 1422 1521 1425
f 1425 1521 1524
f 1425 1524 1416
f 1526 1426 1419
f 1533 1532 1427
f 1533 1427 1426
f 1527 1533 1426
f 1526 1527 1426
f 1535 1534 1532
f 1535 1532 1533
f 1536 1534 1535
f 1539 1538 1537
f 1537 1538 1531
f 1537 1531 1529
f 1430 1537 1529
f 1429 1430 1529
f 1429 1529 1423
f 1532 1431 1427
f 1431 1532 1434
f 1434 1532 1534
f 1536 1540 1534
f 1540 1434 1534
f 1540 1436 1434
f 1436 1541 1438
f 1540 1541 1436
f 1537 1440 1539
f 1440 1541 1539
f 1440 1438 1541
f 1440 1537 1430
f 1542 1442 1443
f 1444 1542 1443
f 1543 1445 1542
f 1542 1445 1442
f 1543 1542 1444
f 1544 1543 1444
f 1446 1544 1444
f 1545 1543 1544
f 1546 1446 1447
f 1546 1544 1446
f 1547 1447 1448
f 1547 1546 1447
f 1448 1450 1547
f 1547 1450 1548
f 1550 1549 1453
f 1453 1549 1452
f 1453 1454 1550
f 1550 1454 1551
f 1552 1456 1457
f 1458 1552 1457
f 1553 1461 1543
f 1543 1461 1445
f 1543 1545 1554
f 1543 1554 1553
f 1462 1548 1450
f 1462 1555 1548
f 1549 1466 1452
f 1556 1466 1549
f 1557 1551 1454
f 1557 1454 1467
f 1558 1467 1468
f 1558 1557 1467
f 1560 1558 1559
f 1558 1469 1559
f 1558 1468 1469
f 1456 1552 1469
f 1552 1559 1469
f 1552 1561 1559
f 1470 1561 1458
f 1458 1561 1552
f 1562 1473 1474
f 1563 1562 1474
f 1563 1474 1461
f 1564 1563 1461
f 1553 1564 1461
f 1564 1553 1554
f 1565 1555 1462
f 1565 1462 1475
f 1566 1475 1476
f 1566 1565 1475
f 1567 1476 1477
f 1567 1566 1476
f 1477 1466 1556
f 1477 1556 1567
f 1560 1559 1479
f 1480 1560 1479
f 1568 1560 1480
f 1479 1559 1482
f 1482 1559 1561
f 1482 1561 1470
f 1569 1483 1562
f 1562 1483 1473
f 1562 1563 1570
f 1562 1570 1569
f 1572 1571 1485
f 1572 1485 1486
f 1480 1485 1568
f 1568 1485 1571
f 1573 1488 1569
f 1569 1488 1483
f 1569 1570 1574
f 1569 1574 1573
f 1577 1576 1575
f 1578 1575 1576
f 1581 1580 1579
f 1583 1582 1579
f 1583 1579 1580
f 1585 1584 1582
f 1585 1582 1583
f 1490 1491 1584
f 1585 1490 1584
f 1586 1490 1585
f 1486 1490 1572
f 1572 1490 1586
f 1588 1587 1573
f 1587 1488 1573
f 1587 1493 1488
f 1588 1573 1574
f 1591 1590 1589
f 1593 1592 1589
f 1593 1589 1590
f 1592 1593 1577
f 1575 1592 1577
f 1594 1592 1575
f 1575 1578 1595
f 1596 1575 1595
f 1594 1575 1596
f 1596 1595 1581
f 1596 1581 1579
f 1496 1596 1579
f 1495 1496 1579
f 1495 1579 1498
f 1498 1579 1582
f 1498 1582 1500
f 1500 1582 1584
f 1500 1584 1491
f 1599 1598 1597
f 1501 1502 1597
f 1502 1599 1597
f 1502 1600 1599
f 1502 1493 1587
f 1502 1587 1600
f 1601 1591 1589
f 1603 1602 1601
f 1589 1603 1601
f 1592 1603 1589
f 1604 1592 1594
f 1603 1592 1604
f 1605 1594 1596
f 1604 1594 1605
f 1504 1605 1496
f 1496 1605 1596
f 1597 1598 1507
f 1598 1506 1507
f 1598 1606 1506
f 1597 1507 1501
f 1609 1608 1607
f 1607 1608 1602
f 1603 1607 1602
f 1610 1607 1603
f 1611 1603 1604
f 1610 1603 1611
f 1510 1611 1509
f 1611 1605 1509
f 1611 1604 1605
f 1509 1605 1504
f 1606 1513 1506
f 1612 1513 1606
f 1615 1614 1613
f 1613 1614 1609
f 1607 1613 1609
f 1616 1613 1607
f 1617 1607 1610
f 1616 1607 1617
f 1516 1617 1515
f 1617 1611 1515
f 1617 1610 1611
f 1515 1611 1510
f 1620 1619 1618
f 1519 1520 1618
f 1520 1620 1618
f 1520 1621 1620
f 1520 1513 1612
f 1520 1612 1621
f 1624 1623 1622
f 1622 1623 1615
f 1613 1622 1615
f 1625 1622 1613
f 1523 1625 1522
f 1625 1616 1522
f 1625 1613 1616
f 1522 1616 1525
f 1525 1616 1617
f 1525 1617 1516
f 1618 1619 1528
f 1619 1527 1528
f 1619 1626 1527
f 1618 1528 1519
f 1629 1628 1627
f 1627 1628 1624
f 1622 1627 1624
f 1630 1627 1622
f 1531 1630 1530
f 1630 1625 1530
f 1630 1622 1625
f 1530 1625 1523
f 1626 1631 1527
f 1527 1631 1533
f 1533 1632 1535
f 1631 1632 1533
f 1634 1633 1536
f 1535 1634 1536
f 1632 1634 1535
f 1633 1634 1629
f 1627 1633 1629
f 1635 1633 1627
f 1539 1635 1538
f 1635 1630 1538
f 1635 1627 1630
f 1538 1630 1531
f 1633 1540 1536
f 1540 1633 1541
f 1541 1633 1635
f 1541 1635 1539
f 1637 1636 1544
f 1544 1636 1545
f 1638 1544 1546
f 1638 1637 1544
f 1640 1638 1639
f 1638 1547 1639
f 1638 1546 1547
f 1548 1639 1547
f 1642 1641 1550
f 1550 1641 1549
f 1550 1551 1642
f 1642 1551 1643
f 1636 1554 1545
f 1644 1554 1636
f 1645 1640 1639
f 1639 1548 1645
f 1548 1646 1645
f 1548 1555 1646
f 1641 1556 1549
f 1647 1556 1641
f 1648 1643 1551
f 1648 1551 1557
f 1649 1557 1558
f 1649 1648 1557
f 1558 1560 1649
f 1649 1560 1650
f 1651 1563 1564
f 1652 1651 1564
f 1554 1652 1564
f 1644 1652 1554
f 1653 1646 1555
f 1653 1555 1565
f 1654 1565 1566
f 1654 1653 1565
f 1655 1566 1567
f 1655 1654 1566
f 1567 1556 1647
f 1567 1647 1655
f 1658 1657 1656
f 1657 1650 1656
f 1650 1568 1656
f 1650 1560 1568
f 1660 1659 1651
f 1659 1563 1651
f 1659 1570 1563
f 1660 1651 1652
f 1663 1662 1661
f 1664 1661 1662
f 1667 1666 1665
f 1669 1668 1665
f 1669 1665 1666
f 1671 1670 1668
f 1671 1668 1669
f 1670 1671 1658
f 1670 1658 1656
f 1572 1670 1656
f 1571 1572 1656
f 1571 1656 1568
f 1659 1574 1570
f 1672 1574 1659
f 1675 1674 1673
f 1673 1674 1663
f 1661 1673 1663
f 1676 1673 1661
f 1677 1576 1577
f 1661 1677 1577
f 1676 1661 1577
f 1677 1661 1664
f 1679 1678 1578
f 1576 1679 1578
f 1677 1679 1576
f 1580 1581 1678
f 1679 1580 1678
f 1680 1580 1679
f 1665 1583 1667
f 1583 1680 1667
f 1583 1580 1680
f 1583 1665 1585
f 1585 1665 1668
f 1585 1668 1586
f 1586 1668 1670
f 1586 1670 1572
f 1682 1681 1588
f 1588 1681 1587
f 1588 1574 1672
f 1588 1672 1682
f 1675 1673 1590
f 1591 1675 1590
f 1683 1675 1591
f 1590 1673 1593
f 1593 1673 1676
f 1593 1676 1577
f 1678 1595 1578
f 1595 1678 1581
f 1684 1598 1599
f 1600 1685 1599
f 1599 1685 1684
f 1587 1681 1686
f 1685 1587 1686
f 1687 1685 1686
f 1600 1587 1685
f 1689 1688 1687
f 1689 1687 1686
f 1690 1688 1601
f 1688 1683 1601
f 1683 1591 1601
f 1683 1688 1689
f 1602 1690 1601
f 1693 1692 1691
f 1694 1693 1684
f 1693 1606 1684
f 1606 1598 1684
f 1693 1691 1606
f 1694 1684 1685
f 1694 1685 1695
f 1697 1696 1695
f 1685 1697 1695
f 1687 1697 1685
f 1698 1687 1688
f 1697 1687 1698
f 1609 1698 1608
f 1698 1690 1608
f 1698 1688 1690
f 1608 1690 1602
f 1691 1692 1699
f 1699 1692 1700
f 1699 1612 1606
f 1699 1606 1691
f 1703 1702 1701
f 1701 1702 1696
f 1697 1701 1696
f 1704 1701 1697
f 1615 1704 1614
f 1704 1698 1614
f 1704 1697 1698
f 1614 1698 1609
f 1705 1619 1620
f 1700 1706 1699
f 1706 1620 1699
f 1620 1621 1699
f 1620 1706 1705
f 1699 1621 1612
f 1703 1701 1707
f 1703 1707 1708
f 1624 1707 1623
f 1707 1704 1623
f 1707 1701 1704
f 1623 1704 1615
f 1709 1626 1705
f 1705 1626 1619
f 1705 1706 1710
f 1711 1705 1710
f 1709 1705 1711
f 1713 1712 1711
f 1713 1711 1710
f 1712 1713 1708
f 1712 1708 1707
f 1629 1712 1707
f 1628 1629 1707
f 1628 1707 1624
f 1709 1631 1626
f 1631 1709 1632
f 1632 1709 1711
f 1632 1711 1634
f 1634 1711 1712
f 1634 1712 1629
f 1714 1636 1637
f 1714 1637 1715
f 1637 1716 1715
f 1637 1638 1716
f 1638 1640 1716
f 1716 1640 1717
f 1718 1641 1642
f 1643 1718 1642
f 1719 1644 1714
f 1714 1644 1636
f 1714 1715 1720
f 1714 1720 1719
f 1721 1717 1640
f 1721 1640 1645
f 1723 1722 1646
f 1722 1645 1646
f 1722 1721 1645
f 1723 1724 1722
f 1726 1725 1718
f 1725 1641 1718
f 1725 1647 1641
f 1728 1726 1727
f 1727 1726 1648
f 1726 1718 1648
f 1718 1643 1648
f 1649 1729 1648
f 1648 1729 1727
f 1650 1729 1649
f 1731 1730 1719
f 1730 1644 1719
f 1730 1652 1644
f 1731 1719 1720
f 1653 1723 1646
f 1653 1654 1723
f 1654 1732 1723
f 1732 1724 1723
f 1654 1733 1732
f 1655 1734 1654
f 1654 1734 1733
f 1647 1725 1735
f 1734 1647 1735
f 1736 1734 1735
f 1655 1647 1734
f 1736 1735 1728
f 1727 1736 1728
f 1737 1736 1727
f 1658 1737 1657
f 1737 1729 1657
f 1737 1727 1729
f 1657 1729 1650
f 1739 1738 1660
f 1660 1738 1659
f 1660 1652 1730
f 1660 1730 1739
f 1741 1740 1662
f 1741 1662 1663
f 1743 1742 1664
f 1662 1743 1664
f 1740 1743 1662
f 1745 1744 1742
f 1745 1742 1743
f 1744 1745 1732
f 1733 1744 1732
f 1746 1744 1733
f 1667 1746 1666
f 1746 1734 1666
f 1746 1733 1734
f 1666 1734 1669
f 1669 1734 1736
f 1669 1736 1671
f 1671 1736 1737
f 1671 1737 1658
f 1748 1672 1747
f 1672 1738 1747
f 1672 1659 1738
f 1674 1675 1748
f 1747 1674 1748
f 1749 1674 1747
f 1663 1674 1741
f 1741 1674 1749
f 1742 1677 1664
f 1677 1742 1679
f 1679 1742 1744
f 1679 1744 1680
f 1680 1744 1746
f 1680 1746 1667
f 1750 1681 1682
f 1672 1748 1682
f 1748 1750 1682
f 1748 1751 1750
f 1683 1751 1675
f 1675 1751 1748
f 1750 1686 1681
f 1686 1750 1689
f 1689 1750 1751
f 1689 1751 1683
f 1752 1692 1693
f 1752 1693 1753
f 1693 1754 1753
f 1693 1694 1754
f 1756 1754 1755
f 1754 1695 1755
f 1754 1694 1695
f 1696 1755 1695
f 1757 1700 1752
f 1752 1700 1692
f 1752 1753 1758
f 1759 1752 1758
f 1757 1752 1759
f 1759 1758 1756
f 1759 1756 1755
f 1703 1759 1755
f 1702 1703 1755
f 1702 1755 1696
f 1760 1706 1757
f 1757 1706 1700
f 1761 1757 1759
f 1760 1757 1761
f 1708 1761 1703
f 1703 1761 1759
f 1760 1710 1706
f 1710 1760 1713
f 1713 1760 1761
f 1713 1761 1708
f 1762 1715 1716
f 1717 1762 1716
f 1765 1764 1763
f 1766 1765 1762
f 1765 1720 1762
f 1720 1715 1762
f 1765 1763 1720
f 1766 1762 1717
f 1721 1766 1717
f 1767 1766 1721
f 1768 1721 1722
f 1768 1767 1721
f 1722 1724 1768
f 1768 1724 1769
f 1770 1725 1726
f 1728 1770 1726
f 1763 1764 1731
f 1764 1730 1731
f 1764 1771 1730
f 1763 1772 1720
f 1772 1763 1773
f 1731 1773 1763
f 1773 1731 1774
f 1720 1774 1731
f 1774 1720 1772
f 1775 1774 1772
f 1778 1777 1776
f 1777 1769 1776
f 1769 1732 1776
f 1769 1724 1732
f 1770 1735 1725
f 1735 1770 1728
f 1779 1738 1739
f 1730 1771 1780
f 1779 1730 1780
f 1781 1779 1780
f 1739 1730 1779
f 1781 1780 1773
f 1781 1773 1774
f 1741 1781 1774
f 1740 1741 1774
f 1775 1782 1774
f 1782 1740 1774
f 1782 1743 1740
f 1776 1745 1778
f 1745 1782 1778
f 1745 1743 1782
f 1745 1776 1732
f 1779 1747 1738
f 1747 1779 1749
f 1749 1779 1781
f 1749 1781 1741
f 1783 1753 1754
f 1756 1783 1754
f 1783 1758 1753
f 1758 1783 1756
f 1784 1764 1765
f 1766 1785 1765
f 1765 1785 1784
f 1767 1786 1766
f 1766 1786 1785
f 1768 1787 1767
f 1767 1787 1786
f 1769 1787 1768
f 1788 1771 1784
f 1784 1771 1764
f 1773 1788 1772
f 1788 1785 1772
f 1788 1784 1785
f 1772 1785 1775
f 1785 1789 1775
f 1785 1786 1789
f 1778 1789 1777
f 1789 1787 1777
f 1789 1786 1787
f 1777 1787 1769
f 1788 1780 1771
f 1780 1788 1773
f 1789 1782 1775
f 1782 1789 1778
