v -36.0 45.0 27.0
v -36.0 45.0 27.0
v -36.0 45.0 27.0
v -36.0 44.8 28.0
v -36.2 45.0 28.0
v -36.0 44.8 29.0
v -36.2 45.0 29.0
v -36.0 44.7 30.0
v -36.3 45.0 30.0
v -36.0 44.7 31.0
v -36.3 45.0 31.0
v -36.0 44.8 32.0
v -36.2 45.0 32.0
v -36.0 45.0 32.9
v -36.0 45.0 27.0
v -36.0 45.2 28.0
v -36.0 45.4 29.0
v -36.2 46.0 30.0
v -36.0 46.0 29.6
v -36.3 46.0 31.0
v -36.0 46.0 31.5
v -36.0 45.4 32.0
v -36.0 46.3 30.0
v -36.0 46.3 31.0
v -35.3 45.0 26.0
v -35.0 45.0 25.6
v -35.0 44.6 26.0
v -35.0 44.4 27.0
v -35.0 44.4 28.0
v -35.0 44.4 29.0
v -35.0 44.4 30.0
v -35.0 44.5 31.0
v -35.0 44.4 32.0
v -35.0 44.6 33.0
v -35.9 45.0 33.0
v -35.0 45.0 33.6
v -35.3 46.0 26.0
v -35.0 46.0 25.6
v -35.6 46.0 27.0
v -35.5 46.0 28.0
v -35.6 46.0 29.0
v -35.7 46.0 32.0
v -35.6 46.0 33.0
v -35.0 45.5 34.0
v -35.3 46.0 34.0
v -35.0 45.8 35.0
v -35.2 46.0 35.0
v -35.0 46.0 35.4
v -35.0 46.5 26.0
v -35.3 47.0 27.0
v -35.0 47.0 26.5
v -35.0 47.0 27.8
v -35.0 46.8 28.0
v -35.0 46.6 29.0
v -35.0 46.7 30.0
v -35.4 47.0 31.0
v -35.0 47.0 30.4
v -35.4 47.0 32.0
v -35.3 47.0 33.0
v -35.0 47.0 33.5
v -35.0 46.5 34.0
v -35.0 46.2 35.0
v -35.4 48.0 27.0
v -35.0 48.0 26.5
v -35.0 47.3 28.0
v -35.3 48.0 28.0
v -35.0 48.0 28.4
v -35.0 47.4 31.0
v -35.0 47.5 32.0
v -35.0 47.4 33.0
v -35.1 49.0 25.0
v -35.0 49.0 24.9
v -35.0 48.9 25.0
v -35.0 49.0 25.2
v -35.2 49.0 27.0
v -35.0 49.0 26.5
v -35.2 49.0 28.0
v -35.0 49.0 28.3
v -35.1 50.0 25.0
v -35.0 50.0 24.9
v -35.0 50.0 25.1
v -35.0 49.3 27.0
v -35.0 49.2 28.0
v -35.0 50.1 25.0
v -34.1 43.0 25.0
v -34.0 43.0 24.8
v -34.0 42.9 25.0
v -34.0 43.0 25.2
v -34.1 44.0 24.0
v -34.0 44.0 23.9
v -34.0 43.8 24.0
v -34.5 44.0 25.0
v -34.0 43.4 26.0
v -34.5 44.0 26.0
v -34.0 43.5 27.0
v -34.5 44.0 27.0
v -34.0 43.5 28.0
v -34.5 44.0 28.0
v -34.0 43.5 29.0
v -34.5 44.0 29.0
v -34.0 43.7 30.0
v -34.4 44.0 30.0
v -34.0 44.0 30.6
v -34.0 44.2 24.0
v -34.5 45.0 25.0
v -34.0 45.0 24.4
v -34.0 44.2 31.0
v -34.0 44.1 32.0
v -34.0 44.6 33.0
v -34.0 44.8 34.0
v -34.4 45.0 34.0
v -34.0 45.0 34.9
v -34.5 46.0 25.0
v -34.0 46.0 24.5
v -34.0 45.1 35.0
v -34.0 46.0 35.4
v -34.4 47.0 25.0
v -34.0 47.0 24.4
v -34.7 47.0 26.0
v -34.9 47.0 28.0
v -34.7 47.0 29.0
v -34.8 47.0 30.0
v -34.6 47.0 34.0
v -34.2 47.0 35.0
v -34.0 47.0 35.2
v -35.0 48.0 18.0
v -34.0 48.0 17.6
v -34.0 47.3 18.0
v -34.0 47.7 19.0
v -34.3 48.0 19.0
v -34.0 48.0 19.2
v -34.3 48.0 24.0
v -34.0 48.0 23.7
v -34.0 47.5 24.0
v -34.6 48.0 25.0
v -34.6 48.0 26.0
v -34.6 48.0 29.0
v -34.5 48.0 30.0
v -34.6 48.0 31.0
v -34.6 48.0 32.0
v -34.5 48.0 33.0
v -34.3 48.0 34.0
v -34.0 48.0 34.9
v -34.0 47.8 35.0
v -34.9 49.0 18.0
v -34.0 49.0 17.8
v -34.4 49.0 19.0
v -34.0 49.0 19.5
v -34.5 49.0 24.0
v -34.0 49.0 23.5
v -34.7 49.0 26.0
v -34.5 49.0 29.0
v -34.5 49.0 30.0
v -34.5 49.0 31.0
v -34.5 49.0 32.0
v -34.5 49.0 33.0
v -34.2 49.0 34.0
v -34.0 49.0 34.3
v -34.0 49.3 18.0
v -34.2 50.0 19.0
v -34.0 50.0 18.8
v -34.0 50.0 20.0
v -34.5 50.0 24.0
v -34.0 50.0 23.5
v -34.6 50.0 26.0
v -34.4 50.0 27.0
v -34.0 50.0 27.6
v -34.0 49.7 28.0
v -34.0 49.7 29.0
v -34.3 50.0 30.0
v -34.0 50.0 29.5
v -34.4 50.0 31.0
v -34.4 50.0 32.0
v -34.4 50.0 33.0
v -34.2 50.0 34.0
v -34.0 50.0 34.2
v -34.0 50.2 19.0
v -34.2 51.0 24.0
v -34.0 51.0 23.8
v -34.4 51.0 25.0
v -34.3 51.0 26.0
v -34.0 51.0 26.4
v -34.0 50.5 27.0
v -34.0 50.3 30.0
v -34.0 50.4 31.0
v -34.0 50.4 32.0
v -34.0 51.0 33.0
v -34.0 51.0 33.0
v -34.0 51.0 33.0
v -34.0 50.2 34.0
v -34.0 51.2 24.0
v -34.0 51.5 25.0
v -34.0 51.3 26.0
v -34.0 51.0 33.0
v -33.0 42.0 22.0
v -33.0 42.0 22.0
v -33.0 42.0 22.0
v -33.0 41.8 23.0
v -33.2 42.0 23.0
v -33.0 42.0 23.3
v -33.0 42.0 22.0
v -33.3 43.0 23.0
v -33.0 43.0 22.6
v -33.0 42.4 24.0
v -33.6 43.0 24.0
v -33.0 42.5 25.0
v -33.0 42.6 26.0
v -33.6 43.0 26.0
v -33.0 42.5 27.0
v -33.5 43.0 27.0
v -33.0 42.5 28.0
v -33.5 43.0 28.0
v -33.0 42.6 29.0
v -33.4 43.0 29.0
v -33.0 43.0 29.5
v -33.0 43.5 23.0
v -33.0 44.0 23.3
v -33.0 43.3 30.0
v -33.0 43.8 31.0
v -33.5 44.0 31.0
v -33.0 44.0 31.3
v -33.6 45.0 24.0
v -33.0 45.0 23.4
v -33.0 44.6 32.0
v -33.6 45.0 33.0
v -33.0 45.0 32.4
v -33.8 45.0 34.0
v -33.5 46.0 24.0
v -33.0 46.0 23.5
v -33.4 46.0 33.0
v -33.0 46.0 32.6
v -33.5 46.0 34.0
v -33.7 46.0 35.0
v -33.6 47.0 24.0
v -33.0 47.0 23.3
v -33.4 47.0 33.0
v -33.0 47.0 32.6
v -33.6 47.0 34.0
v -33.8 47.0 35.0
v -33.0 48.0 17.9
v -33.0 47.9 18.0
v -33.0 47.6 19.0
v -33.0 48.0 19.5
v -33.4 48.0 23.0
v -33.0 48.0 22.6
v -33.0 47.5 23.0
v -33.4 48.0 33.0
v -33.0 48.0 32.7
v -33.7 48.0 34.0
v -33.0 48.2 18.0
v -33.6 49.0 18.0
v -33.0 49.0 18.5
v -33.0 48.6 20.0
v -33.4 49.0 20.0
v -33.0 49.0 20.3
v -33.5 49.0 23.0
v -33.0 49.0 22.6
v -33.0 48.4 33.0
v -33.0 49.0 33.5
v -33.6 49.0 34.0
v -33.0 50.0 18.8
v -34.0 50.0 20.0
v -33.0 50.0 20.2
v -33.3 50.0 23.0
v -33.0 50.0 22.8
v -33.8 50.0 28.0
v -33.7 50.0 29.0
v -33.0 49.8 34.0
v -33.0 50.0 34.1
v -33.0 50.2 19.0
v -33.0 50.2 20.0
v -33.0 50.3 23.0
v -33.0 51.0 23.5
v -33.6 51.0 27.0
v -33.4 51.0 28.0
v -33.4 51.0 29.0
v -33.3 51.0 30.0
v -33.0 51.0 30.4
v -33.0 50.6 31.0
v -33.0 50.7 32.0
v -33.0 51.0 32.5
v -33.0 50.2 34.0
v -33.0 51.0 33.4
v -33.0 51.5 24.0
v -33.3 52.0 25.0
v -33.0 52.0 24.7
v -33.2 52.0 26.0
v -33.0 52.0 26.2
v -33.0 51.6 27.0
v -33.0 51.4 28.0
v -33.0 51.4 29.0
v -33.0 51.2 30.0
v -33.0 51.3 33.0
v -33.0 52.2 25.0
v -33.0 52.1 26.0
v -32.0 42.0 21.6
v -32.0 41.6 22.0
v -32.0 41.4 23.0
v -32.0 41.7 24.0
v -32.5 42.0 24.0
v -32.0 42.0 24.5
v -32.4 42.0 27.0
v -32.0 42.0 26.5
v -32.0 41.7 27.0
v -32.0 41.6 28.0
v -32.4 42.0 28.0
v -32.0 41.9 29.0
v -32.1 42.0 29.0
v -32.0 42.0 29.1
v -32.6 43.0 22.0
v -32.0 43.0 21.5
v -32.0 42.3 25.0
v -32.0 42.3 26.0
v -32.0 42.9 30.0
v -32.2 43.0 30.0
v -32.0 43.0 30.1
v -32.3 44.0 21.0
v -32.0 44.0 20.7
v -32.0 43.6 21.0
v -32.5 44.0 22.0
v -32.7 44.0 23.0
v -32.0 44.0 30.6
v -32.7 44.0 31.0
v -32.3 45.0 21.0
v -32.0 45.0 20.5
v -32.5 45.0 22.0
v -32.6 45.0 23.0
v -32.0 44.4 31.0
v -32.6 45.0 32.0
v -32.0 45.0 31.5
v -32.1 46.0 20.0
v -32.0 46.0 19.9
v -32.0 45.9 20.0
v -32.0 45.8 21.0
v -32.0 46.0 20.3
v -32.4 46.0 22.0
v -32.0 46.0 21.2
v -32.6 46.0 23.0
v -32.4 46.0 32.0
v -32.0 46.0 31.7
v -32.3 47.0 20.0
v -32.0 47.0 19.7
v -32.0 47.0 20.7
v -32.4 47.0 22.0
v -32.0 47.0 21.2
v -32.7 47.0 23.0
v -32.0 46.7 32.0
v -32.0 47.0 32.1
v -32.9 48.0 18.0
v -32.0 48.0 18.9
v -32.0 47.9 19.0
v -32.6 48.0 20.0
v -32.0 47.3 21.0
v -32.3 48.0 21.0
v -32.4 48.0 22.0
v -32.4 48.0 32.0
v -32.0 47.3 32.0
v -32.0 48.0 31.6
v -32.5 49.0 19.0
v -32.0 48.2 19.0
v -32.0 49.0 19.8
v -32.0 48.3 21.0
v -32.0 49.0 20.1
v -32.0 48.4 22.0
v -32.0 49.0 22.4
v -32.3 49.0 32.0
v -32.0 49.0 31.7
v -32.6 49.0 33.0
v -32.8 50.0 19.0
v -32.0 49.1 20.0
v -32.8 50.0 20.0
v -32.0 50.0 22.6
v -32.0 49.3 32.0
v -32.0 49.7 33.0
v -32.9 50.0 34.0
v -32.0 50.0 33.3
v -32.0 50.4 23.0
v -32.0 51.0 23.6
v -32.0 50.9 31.0
v -32.0 51.0 30.9
v -32.6 51.0 32.0
v -32.0 51.0 31.2
v -32.0 51.0 33.5
v -32.0 51.4 24.0
v -32.0 52.0 24.9
v -32.6 52.0 26.0
v -32.0 51.8 26.0
v -32.0 52.0 25.3
v -32.0 52.0 27.0
v -32.0 51.7 28.0
v -32.0 51.5 29.0
v -32.0 51.4 30.0
v -32.0 51.5 32.0
v -32.3 52.0 33.0
v -32.0 52.0 32.6
v -32.0 52.0 33.6
v -32.0 52.1 25.0
v -32.0 52.3 33.0
v -31.1 41.0 22.0
v -31.0 41.0 21.9
v -31.0 40.9 22.0
v -31.0 40.8 23.0
v -31.3 41.0 23.0
v -31.0 41.0 23.3
v -31.2 42.0 21.0
v -31.0 42.0 20.8
v -31.0 41.8 21.0
v -31.0 41.4 24.0
v -31.0 41.5 25.0
v -31.6 42.0 25.0
v -31.0 41.5 26.0
v -31.6 42.0 26.0
v -31.0 41.4 27.0
v -31.0 41.6 28.0
v -31.8 42.0 29.0
v -31.0 42.0 28.6
v -31.1 43.0 20.0
v -31.0 43.0 19.9
v -31.0 42.8 20.0
v -31.2 43.0 21.0
v -31.0 42.5 29.0
v -31.9 43.0 30.0
v -31.0 43.0 29.4
v -31.4 44.0 20.0
v -31.0 44.0 19.6
v -31.3 44.0 30.0
v -31.0 44.0 29.7
v -31.5 45.0 20.0
v -31.0 45.0 19.6
v -31.0 44.3 30.0
v -31.0 44.8 31.0
v -31.0 45.0 31.2
v -31.0 46.0 19.6
v -31.9 46.0 21.0
v -31.0 46.0 31.4
v -31.0 47.0 19.6
v -31.9 47.0 21.0
v -31.8 47.0 32.0
v -31.0 47.0 31.3
v -31.9 48.0 19.0
v -31.0 48.0 19.7
v -31.0 48.0 21.8
v -31.2 48.0 22.0
v -31.0 47.9 22.0
v -31.0 48.0 22.1
v -31.4 48.0 31.0
v -31.0 47.5 31.0
v -31.0 48.0 30.7
v -31.9 49.0 20.0
v -31.0 48.3 20.0
v -31.0 48.3 21.0
v -31.0 49.0 22.5
v -31.3 49.0 31.0
v -31.0 49.0 30.7
v -31.0 50.0 22.8
v -31.0 49.3 31.0
v -31.4 50.0 32.0
v -31.0 50.0 31.6
v -31.7 50.0 33.0
v -31.0 50.3 23.0
v -31.5 51.0 24.0
v -31.0 50.7 24.0
v -31.0 51.0 24.5
v -31.9 51.0 31.0
v -31.0 50.4 32.0
v -31.0 50.7 33.0
v -31.0 51.0 33.3
v -31.9 52.0 25.0
v -31.0 51.4 25.0
v -31.0 51.5 26.0
v -31.0 51.8 27.0
v -31.4 52.0 28.0
v -31.0 52.0 27.4
v -31.0 52.0 28.5
v -31.0 51.8 29.0
v -31.0 51.7 30.0
v -31.3 52.0 31.0
v -31.0 52.0 30.4
v -31.6 52.0 32.0
v -31.0 52.0 33.5
v -31.0 52.3 28.0
v -31.0 52.4 31.0
v -31.0 52.7 32.0
v -31.0 53.0 33.0
v -30.9 41.0 22.0
v -30.0 41.0 22.6
v -30.0 40.7 23.0
v -30.0 41.0 23.7
v -30.4 41.0 25.0
v -30.0 41.0 24.3
v -30.0 40.7 25.0
v -30.0 40.5 26.0
v -30.5 41.0 26.0
v -30.0 40.7 27.0
v -30.3 41.0 27.0
v -30.0 41.0 27.3
v -30.3 42.0 20.0
v -30.0 42.0 19.8
v -30.0 41.8 20.0
v -30.0 41.7 21.0
v -30.0 42.0 22.0
v -30.0 42.0 21.9
v -30.0 42.0 22.0
v -30.0 41.1 24.0
v -30.0 41.5 28.0
v -30.0 42.0 28.4
v -30.0 43.0 19.5
v -30.0 42.0 22.0
v -30.5 43.0 29.0
v -30.0 43.0 28.7
v -30.0 44.0 19.4
v -30.0 43.5 29.0
v -30.0 44.0 29.3
v -30.0 45.0 19.4
v -30.4 45.0 30.0
v -30.0 45.0 29.6
v -30.8 45.0 31.0
v -30.0 46.0 19.5
v -30.0 45.5 30.0
v -30.0 46.0 30.4
v -30.6 46.0 31.0
v -30.0 46.8 20.0
v -30.3 47.0 20.0
v -30.0 47.0 20.2
v -30.6 47.0 31.0
v -30.0 47.0 30.3
v -30.8 48.0 20.0
v -30.0 47.5 21.0
v -30.7 48.0 21.0
v -30.0 47.7 22.0
v -30.0 48.0 22.4
v -30.2 48.0 30.0
v -30.0 47.6 30.0
v -30.0 48.0 29.8
v -30.0 49.0 22.8
v -30.1 49.0 25.0
v -30.0 48.9 25.0
v -30.0 49.0 24.9
v -30.0 49.0 25.1
v -30.0 48.3 30.0
v -30.0 49.0 30.4
v -30.0 49.3 23.0
v -30.6 50.0 23.0
v -30.0 50.0 23.9
v -30.2 50.0 25.0
v -30.0 50.0 24.2
v -30.0 50.0 25.2
v -30.0 49.7 31.0
v -30.0 50.0 31.3
v -30.0 50.1 24.0
v -30.6 51.0 25.0
v -30.0 51.0 25.5
v -30.3 51.0 32.0
v -30.0 51.0 31.7
v -30.7 51.0 33.0
v -30.0 51.5 26.0
v -30.7 52.0 27.0
v -30.0 52.0 26.6
v -30.8 52.0 29.0
v -30.8 52.0 30.0
v -30.0 51.4 32.0
v -30.0 51.9 33.0
v -30.0 52.0 33.1
v -30.0 52.4 27.0
v -30.3 53.0 28.0
v -30.0 53.0 27.7
v -30.4 53.0 29.0
v -30.5 53.0 30.0
v -30.6 53.0 31.0
v -30.7 53.0 32.0
v -30.0 53.0 32.6
v -30.0 52.1 33.0
v -30.0 53.2 28.0
v -30.0 53.4 29.0
v -30.2 54.0 30.0
v -30.0 54.0 29.7
v -30.5 54.0 31.0
v -30.9 54.0 32.0
v -30.0 54.0 32.8
v -30.0 54.3 30.0
v -30.2 55.0 31.0
v -30.0 55.0 30.8
v -30.2 55.0 32.0
v -30.0 55.0 32.2
v -30.0 55.7 31.0
v -30.0 55.7 32.0
v -29.0 40.0 23.0
v -29.0 40.0 23.0
v -29.0 40.0 23.0
v -29.0 40.0 23.0
v -29.0 41.0 22.6
v -29.0 40.5 24.0
v -29.8 41.0 24.0
v -29.0 40.4 25.0
v -29.0 40.1 26.0
v -29.0 40.6 27.0
v -29.0 41.0 27.5
v -29.0 42.0 19.9
v -29.0 41.9 20.0
v -29.6 42.0 21.0
v -29.0 42.0 20.2
v -29.0 42.0 22.3
v -29.0 41.6 28.0
v -29.0 42.0 28.4
v -29.0 43.0 19.3
v -29.0 42.3 21.0
v -29.0 42.3 22.0
v -29.0 43.0 28.4
v -29.4 44.0 19.0
v -29.0 44.0 18.6
v -29.0 43.5 19.0
v -29.6 44.0 29.0
v -29.0 44.0 28.5
v -29.5 45.0 19.0
v -29.0 45.0 18.5
v -29.4 45.0 29.0
v -29.0 45.0 28.6
v -29.3 46.0 19.0
v -29.0 46.0 18.7
v -29.0 45.7 29.0
v -29.7 46.0 30.0
v -29.0 46.0 29.2
v -29.0 46.3 19.0
v -29.4 47.0 20.0
v -29.0 47.0 19.9
v -29.3 47.0 29.0
v -29.0 46.4 29.0
v -29.0 47.0 28.7
v -29.7 47.0 30.0
v -29.0 47.1 20.0
v -29.0 47.4 21.0
v -29.0 47.5 22.0
v -29.0 48.0 22.9
v -29.8 48.0 24.0
v -29.0 47.6 24.0
v -29.0 48.0 23.1
v -29.2 48.0 25.0
v -29.0 47.9 25.0
v -29.0 48.0 25.1
v -29.3 48.0 29.0
v -29.0 48.0 28.6
v -29.0 48.1 23.0
v -29.7 49.0 23.0
v -29.7 49.0 24.0
v -29.0 49.0 25.4
v -29.0 48.4 29.0
v -29.5 49.0 30.0
v -29.0 49.0 29.5
v -29.9 50.0 24.0
v -29.0 50.0 25.5
v -29.0 49.5 30.0
v -29.6 50.0 31.0
v -29.0 50.0 30.5
v -29.0 51.0 25.6
v -29.0 50.6 31.0
v -29.0 51.0 31.3
v -29.0 51.5 26.0
v -29.0 52.0 26.5
v -29.5 52.0 32.0
v -29.0 52.0 31.5
v -29.9 52.0 33.0
v -29.0 52.5 27.0
v -29.0 53.0 27.7
v -29.6 53.0 32.0
v -29.0 53.0 31.5
v -29.0 53.2 28.0
v -29.0 53.5 29.0
v -29.0 54.0 29.7
v -29.5 54.0 32.0
v -29.0 54.0 31.3
v -29.0 54.2 30.0
v -29.7 55.0 31.0
v -29.0 54.3 31.0
v -29.8 55.0 32.0
v -29.0 40.0 23.0
v -28.0 41.0 22.7
v -28.0 40.1 23.0
v -28.0 40.5 24.0
v -28.0 40.6 25.0
v -28.0 40.6 26.0
v -28.0 40.8 27.0
v -28.0 41.0 27.3
v -28.8 42.0 20.0
v -28.0 42.0 22.5
v -28.0 41.9 28.0
v -28.0 42.0 28.1
v -28.6 43.0 19.0
v -28.0 43.0 18.4
v -28.0 42.2 19.0
v -28.0 42.5 20.0
v -28.0 42.6 21.0
v -28.0 42.6 22.0
v -28.4 43.0 28.0
v -28.0 42.2 28.0
v -28.0 43.0 27.6
v -28.4 44.0 18.0
v -28.0 44.0 17.6
v -28.0 43.5 18.0
v -28.5 44.0 28.0
v -28.0 44.0 27.5
v -28.4 45.0 18.0
v -28.0 45.0 17.5
v -28.4 45.0 28.0
v -28.0 45.0 27.6
v -28.0 45.6 18.0
v -28.0 46.0 18.5
v -28.1 46.0 22.0
v -28.0 45.9 22.0
v -28.0 46.0 21.8
v -28.0 46.0 22.2
v -28.0 45.7 28.0
v -28.8 46.0 29.0
v -28.0 46.0 28.2
v -28.0 46.3 19.0
v -28.8 47.0 20.0
v -28.0 46.5 20.0
v -28.6 47.0 21.0
v -28.0 46.4 21.0
v -28.6 47.0 22.0
v -28.0 46.6 23.0
v -28.4 47.0 23.0
v -28.1 47.0 24.0
v -28.0 46.9 24.0
v -28.0 47.0 24.1
v -28.4 47.0 28.0
v -28.0 46.3 28.0
v -28.0 47.0 27.6
v -28.9 48.0 23.0
v -28.0 48.0 24.8
v -28.7 48.0 25.0
v -28.3 48.0 28.0
v -28.0 48.0 27.7
v -28.0 48.2 25.0
v -28.0 49.0 25.4
v -28.0 48.4 28.0
v -28.5 49.0 29.0
v -28.0 49.0 28.5
v -28.0 50.0 25.5
v -28.0 49.6 29.0
v -28.6 50.0 30.0
v -28.0 50.0 29.3
v -28.0 51.0 25.6
v -28.4 51.0 30.0
v -28.0 51.0 29.5
v -28.8 51.0 31.0
v -28.0 51.5 26.0
v -28.0 52.0 26.6
v -28.4 52.0 30.0
v -28.0 52.0 29.4
v -28.6 52.0 31.0
v -28.0 52.3 27.0
v -28.7 53.0 28.0
v -28.0 52.5 28.0
v -28.5 53.0 29.0
v -28.0 52.3 29.0
v -28.5 53.0 30.0
v -28.6 53.0 31.0
v -28.8 54.0 30.0
v -28.8 54.0 31.0
v -27.6 41.0 23.0
v -27.5 41.0 24.0
v -27.6 41.0 25.0
v -27.6 41.0 26.0
v -27.7 41.0 27.0
v -27.0 42.0 22.8
v -27.0 41.8 23.0
v -27.0 41.7 24.0
v -27.0 42.0 24.5
v -27.3 42.0 25.0
v -27.3 42.0 26.0
v -27.1 42.0 27.0
v -27.9 42.0 28.0
v -27.5 43.0 18.0
v -27.0 43.0 17.6
v -27.0 42.3 18.0
v -27.0 42.6 19.0
v -27.4 43.0 20.0
v -27.0 43.0 19.5
v -27.6 43.0 21.0
v -27.6 43.0 22.0
v -27.0 43.0 22.7
v -27.0 42.4 25.0
v -27.0 42.7 26.0
v -27.0 43.0 26.3
v -27.4 43.0 27.0
v -27.3 44.0 17.0
v -27.0 44.0 16.8
v -27.0 43.7 17.0
v -27.0 43.6 20.0
v -27.0 44.0 20.4
v -27.4 44.0 21.0
v -27.4 44.0 22.0
v -27.0 44.0 22.5
v -27.3 44.0 26.0
v -27.0 43.3 26.0
v -27.0 44.0 25.6
v -27.6 44.0 27.0
v -27.2 45.0 17.0
v -27.0 45.0 16.9
v -27.4 45.0 21.0
v -27.0 45.0 20.4
v -27.5 45.0 22.0
v -27.0 45.0 22.5
v -27.3 45.0 26.0
v -27.0 45.0 25.6
v -27.6 45.0 27.0
v -27.0 45.2 17.0
v -27.0 46.0 18.0
v -27.5 46.0 19.0
v -27.0 45.7 19.0
v -27.5 46.0 20.0
v -27.0 45.4 20.0
v -27.7 46.0 21.0
v -27.0 46.0 22.8
v -27.0 45.5 26.0
v -27.0 46.0 26.4
v -27.4 46.0 27.0
v -27.9 46.0 28.0
v -27.0 46.2 23.0
v -27.5 47.0 24.0
v -27.0 47.0 23.9
v -27.4 47.0 27.0
v -27.0 47.0 26.6
v -27.0 47.1 24.0
v -27.0 47.5 25.0
v -27.7 48.0 25.0
v -27.0 48.0 25.5
v -27.0 47.6 27.0
v -27.0 48.0 27.3
v -27.0 49.0 25.6
v -27.6 49.0 28.0
v -27.0 49.0 27.4
v -27.0 50.0 25.7
v -27.3 50.0 28.0
v -27.0 50.0 27.6
v -27.7 50.0 29.0
v -27.0 51.0 25.7
v -27.0 50.7 28.0
v -27.0 51.0 28.2
v -27.5 51.0 29.0
v -27.0 51.7 26.0
v -27.6 52.0 27.0
v -27.0 51.5 27.0
v -27.5 52.0 28.0
v -27.0 51.2 28.0
v -27.7 52.0 29.0
v -26.8 42.0 23.0
v -26.7 42.0 24.0
v -26.0 43.0 17.9
v -26.0 42.9 18.0
v -26.6 43.0 19.0
v -26.0 43.0 18.1
v -26.7 43.0 23.0
v -26.5 43.0 24.0
v -26.6 43.0 25.0
v -26.8 43.0 26.0
v -26.0 44.0 16.9
v -26.0 43.9 17.0
v -26.3 44.0 19.0
v -26.0 44.0 18.6
v -26.7 44.0 20.0
v -26.6 44.0 23.0
v -26.5 44.0 24.0
v -26.6 44.0 25.0
v -26.0 44.1 17.0
v -26.8 45.0 17.0
v -26.0 45.0 17.7
v -26.0 44.8 19.0
v -26.0 45.0 19.1
v -26.7 45.0 20.0
v -26.6 45.0 23.0
v -26.5 45.0 24.0
v -26.6 45.0 25.0
v -26.0 45.3 18.0
v -26.0 45.1 19.0
v -26.8 46.0 23.0
v -26.5 46.0 24.0
v -26.5 46.0 25.0
v -26.7 46.0 26.0
v -26.9 47.0 24.0
v -26.6 47.0 25.0
v -26.6 47.0 26.0
v -26.6 48.0 26.0
v -26.8 48.0 27.0
v -26.6 49.0 26.0
v -26.6 49.0 27.0
v -26.7 50.0 26.0
v -26.6 50.0 27.0
v -26.7 51.0 26.0
v -26.6 51.0 27.0
v -26.9 51.0 28.0
v -25.9 43.0 18.0
v -25.9 44.0 17.0
v -25.7 44.0 18.0
v -25.8 45.0 18.0
v -25.9 45.0 19.0
f 3 2 1
f 5 4 1
f 1 4 3
f 7 6 5
f 5 6 4
f 9 8 7
f 7 8 6
f 11 10 9
f 9 10 8
f 13 12 11
f 11 12 10
f 13 14 12
f 2 15 1
f 1 15 5
f 5 15 16
f 5 16 7
f 7 16 17
f 19 18 17
f 18 7 17
f 18 9 7
f 9 20 11
f 9 18 20
f 22 13 21
f 13 20 21
f 13 11 20
f 13 22 14
f 19 23 18
f 18 23 20
f 20 23 24
f 20 24 21
f 27 26 25
f 2 3 25
f 3 27 25
f 3 28 27
f 29 3 4
f 29 28 3
f 30 4 6
f 30 29 4
f 31 6 8
f 31 30 6
f 32 8 10
f 32 31 8
f 33 10 12
f 33 32 10
f 35 34 14
f 34 12 14
f 34 33 12
f 35 36 34
f 25 26 37
f 37 26 38
f 39 15 2
f 25 39 2
f 37 39 25
f 40 16 15
f 40 15 39
f 41 17 16
f 41 16 40
f 41 19 17
f 21 42 22
f 35 14 22
f 42 35 22
f 43 35 42
f 36 35 44
f 35 45 44
f 35 43 45
f 47 46 45
f 45 46 44
f 47 48 46
f 38 49 37
f 51 50 49
f 50 37 49
f 50 39 37
f 53 40 52
f 40 50 52
f 40 39 50
f 40 53 41
f 41 53 54
f 41 54 19
f 54 23 19
f 54 55 23
f 55 57 56
f 24 55 56
f 23 55 24
f 42 21 24
f 56 42 24
f 58 42 56
f 42 59 43
f 42 58 59
f 61 45 60
f 45 59 60
f 45 43 59
f 45 61 47
f 47 61 62
f 47 62 48
f 50 51 63
f 63 51 64
f 52 50 65
f 50 66 65
f 50 63 66
f 66 67 65
f 57 68 56
f 56 68 58
f 58 68 69
f 58 69 59
f 59 69 70
f 59 70 60
f 73 72 71
f 71 74 73
f 63 64 75
f 75 64 76
f 63 77 66
f 63 75 77
f 67 66 78
f 78 66 77
f 71 72 79
f 79 72 80
f 74 71 81
f 81 71 79
f 76 82 75
f 75 82 77
f 77 82 83
f 77 83 78
f 80 84 79
f 79 84 81
f 87 86 85
f 85 88 87
f 91 90 89
f 91 89 86
f 89 85 86
f 89 92 85
f 88 85 93
f 85 94 93
f 85 92 94
f 96 95 94
f 94 95 93
f 98 97 96
f 96 97 95
f 100 99 98
f 98 99 97
f 102 101 100
f 100 101 99
f 102 103 101
f 90 104 89
f 106 105 104
f 105 89 104
f 105 92 89
f 105 26 27
f 94 105 27
f 92 105 94
f 94 27 28
f 94 28 96
f 96 28 29
f 96 29 98
f 98 29 30
f 98 30 100
f 100 30 31
f 100 31 102
f 107 103 102
f 31 107 102
f 32 107 31
f 108 32 33
f 108 107 32
f 109 33 34
f 109 108 33
f 111 110 36
f 110 34 36
f 110 109 34
f 111 112 110
f 105 106 113
f 113 106 114
f 113 38 26
f 113 26 105
f 44 111 36
f 115 112 111
f 44 115 111
f 46 115 44
f 46 48 115
f 115 48 116
f 113 114 117
f 117 114 118
f 119 49 38
f 113 119 38
f 117 119 113
f 119 51 49
f 52 120 53
f 121 54 53
f 121 53 120
f 122 55 54
f 122 54 121
f 122 57 55
f 60 123 61
f 124 62 61
f 124 61 123
f 124 125 62
f 125 48 62
f 125 116 48
f 128 127 126
f 130 129 126
f 126 129 128
f 130 131 129
f 134 133 132
f 134 132 118
f 132 117 118
f 132 135 117
f 117 136 119
f 117 135 136
f 136 64 51
f 136 51 119
f 65 120 52
f 120 65 67
f 137 120 67
f 121 120 137
f 121 138 122
f 121 137 138
f 139 68 57
f 122 139 57
f 138 139 122
f 140 69 68
f 140 68 139
f 141 70 69
f 141 69 140
f 123 60 70
f 141 123 70
f 142 123 141
f 144 124 143
f 124 142 143
f 124 123 142
f 124 144 125
f 126 127 145
f 145 127 146
f 126 147 130
f 126 145 147
f 131 130 148
f 148 130 147
f 132 133 149
f 149 133 150
f 149 72 73
f 135 149 73
f 132 149 135
f 135 73 74
f 151 135 74
f 136 135 151
f 151 76 64
f 151 64 136
f 78 152 137
f 78 137 67
f 137 153 138
f 137 152 153
f 138 154 139
f 138 153 154
f 139 155 140
f 139 154 155
f 140 156 141
f 140 155 156
f 141 157 142
f 141 156 157
f 143 142 158
f 158 142 157
f 146 159 145
f 161 160 159
f 160 145 159
f 160 147 145
f 148 147 162
f 162 147 160
f 149 150 163
f 163 150 164
f 163 80 72
f 163 72 149
f 81 165 151
f 81 151 74
f 166 82 76
f 151 166 76
f 165 166 151
f 82 166 167
f 168 82 167
f 83 82 168
f 78 83 152
f 83 169 152
f 83 168 169
f 171 170 169
f 170 152 169
f 170 153 152
f 153 172 154
f 153 170 172
f 154 173 155
f 154 172 173
f 155 174 156
f 155 173 174
f 156 175 157
f 156 174 175
f 158 157 176
f 176 157 175
f 161 177 160
f 160 177 162
f 163 164 178
f 178 164 179
f 180 84 80
f 163 180 80
f 178 180 163
f 165 81 84
f 180 165 84
f 181 165 180
f 183 166 182
f 166 181 182
f 166 165 181
f 166 183 167
f 171 184 170
f 170 184 172
f 172 184 185
f 172 185 173
f 173 185 186
f 188 187 186
f 187 173 186
f 187 174 173
f 190 175 189
f 175 187 189
f 175 174 187
f 175 190 176
f 179 191 178
f 178 191 180
f 180 191 192
f 180 192 181
f 181 192 193
f 181 193 182
f 188 194 187
f 187 194 189
f 197 196 195
f 199 198 195
f 195 198 197
f 199 200 198
f 196 201 195
f 203 202 201
f 202 195 201
f 202 199 195
f 200 199 204
f 199 205 204
f 199 202 205
f 86 87 205
f 87 204 205
f 87 206 204
f 208 207 88
f 207 87 88
f 207 206 87
f 210 209 208
f 208 209 207
f 212 211 210
f 210 211 209
f 214 213 212
f 212 213 211
f 214 215 213
f 203 216 202
f 217 90 91
f 202 217 91
f 205 202 91
f 216 217 202
f 205 91 86
f 93 208 88
f 208 93 95
f 208 95 210
f 210 95 97
f 210 97 212
f 212 97 99
f 212 99 214
f 218 215 214
f 99 218 214
f 101 218 99
f 220 219 103
f 219 101 103
f 219 218 101
f 220 221 219
f 104 90 222
f 90 223 222
f 90 217 223
f 222 106 104
f 107 220 103
f 224 221 220
f 107 224 220
f 108 224 107
f 226 224 225
f 224 109 225
f 224 108 109
f 110 227 109
f 109 227 225
f 112 227 110
f 222 223 228
f 228 223 229
f 228 114 106
f 228 106 222
f 226 225 230
f 226 230 231
f 232 225 227
f 230 225 232
f 115 233 112
f 233 227 112
f 233 232 227
f 116 233 115
f 228 229 234
f 234 229 235
f 234 118 114
f 234 114 228
f 231 230 236
f 231 236 237
f 238 230 232
f 236 230 238
f 239 232 233
f 238 232 239
f 125 239 116
f 116 239 233
f 241 240 128
f 128 240 127
f 242 128 129
f 242 241 128
f 129 131 242
f 242 131 243
f 246 245 244
f 246 244 235
f 235 244 234
f 244 133 234
f 133 134 234
f 234 134 118
f 237 236 247
f 237 247 248
f 249 236 238
f 247 236 249
f 143 249 144
f 249 239 144
f 249 238 239
f 144 239 125
f 251 146 250
f 146 240 250
f 146 127 240
f 252 251 250
f 148 254 253
f 243 148 253
f 131 148 243
f 254 255 253
f 244 245 256
f 256 245 257
f 256 150 133
f 256 133 244
f 258 248 247
f 260 259 258
f 247 260 258
f 249 260 247
f 158 260 143
f 143 260 249
f 251 159 146
f 161 159 251
f 252 161 251
f 261 161 252
f 162 262 254
f 162 254 148
f 255 254 263
f 263 254 262
f 256 257 264
f 264 257 265
f 264 164 150
f 264 150 256
f 167 266 168
f 267 169 168
f 267 168 266
f 267 171 169
f 268 259 260
f 260 158 268
f 158 269 268
f 158 176 269
f 261 270 161
f 161 270 177
f 162 177 262
f 177 271 262
f 177 270 271
f 262 271 263
f 265 272 264
f 164 264 272
f 273 164 272
f 179 164 273
f 182 274 183
f 266 167 183
f 274 266 183
f 275 266 274
f 266 276 267
f 266 275 276
f 277 184 171
f 267 277 171
f 276 277 267
f 184 277 278
f 279 184 278
f 185 184 279
f 185 280 186
f 279 280 185
f 188 186 280
f 188 280 281
f 283 282 190
f 283 190 189
f 176 190 269
f 269 190 282
f 273 284 179
f 179 284 191
f 284 286 285
f 192 284 285
f 191 284 192
f 287 193 192
f 287 192 285
f 287 288 193
f 193 288 182
f 288 289 182
f 289 274 182
f 274 289 275
f 275 289 290
f 275 290 276
f 276 290 291
f 276 291 277
f 277 291 292
f 277 292 278
f 281 293 188
f 188 293 194
f 189 194 283
f 283 194 293
f 286 294 285
f 285 294 287
f 287 294 295
f 287 295 288
f 297 296 197
f 197 296 196
f 298 197 198
f 298 297 197
f 300 299 200
f 299 198 200
f 299 298 198
f 300 301 299
f 304 303 302
f 306 305 302
f 302 305 304
f 308 307 306
f 306 307 305
f 308 309 307
f 201 196 310
f 196 311 310
f 196 296 311
f 310 203 201
f 204 300 200
f 312 301 300
f 204 312 300
f 206 312 204
f 313 206 207
f 313 312 206
f 209 302 303
f 313 209 303
f 207 209 313
f 302 209 211
f 302 211 306
f 306 211 213
f 306 213 308
f 315 314 215
f 215 314 213
f 314 309 213
f 309 308 213
f 315 316 314
f 319 318 317
f 319 317 311
f 317 310 311
f 317 320 310
f 321 216 203
f 310 321 203
f 320 321 310
f 321 217 216
f 218 315 215
f 218 219 315
f 219 322 315
f 322 316 315
f 219 323 322
f 221 323 219
f 317 318 324
f 324 318 325
f 317 326 320
f 317 324 326
f 320 327 321
f 320 326 327
f 327 223 217
f 327 217 321
f 328 322 323
f 330 328 329
f 329 328 224
f 328 323 224
f 323 221 224
f 226 329 224
f 333 332 331
f 334 324 325
f 331 335 333
f 337 336 334
f 336 324 334
f 336 326 324
f 326 338 327
f 326 336 338
f 338 229 223
f 338 223 327
f 330 329 339
f 330 339 340
f 231 339 226
f 226 339 329
f 331 332 341
f 341 332 342
f 335 331 343
f 343 331 341
f 336 337 344
f 344 337 345
f 336 346 338
f 336 344 346
f 346 235 229
f 346 229 338
f 347 340 339
f 339 231 347
f 231 348 347
f 231 237 348
f 349 240 241
f 349 241 350
f 241 351 350
f 241 242 351
f 352 341 243
f 341 351 243
f 351 242 243
f 341 342 351
f 343 341 353
f 341 354 353
f 341 352 354
f 353 354 345
f 354 344 345
f 354 355 344
f 355 245 246
f 346 355 246
f 344 355 346
f 346 246 235
f 358 357 356
f 357 348 356
f 348 248 356
f 348 237 248
f 349 250 240
f 360 359 252
f 360 252 250
f 350 360 250
f 349 350 250
f 243 253 352
f 359 360 361
f 354 352 362
f 352 255 362
f 255 363 362
f 255 352 253
f 354 362 355
f 355 362 364
f 245 355 364
f 365 245 364
f 257 245 365
f 358 356 366
f 358 366 367
f 258 368 248
f 368 356 248
f 368 366 356
f 259 368 258
f 369 261 359
f 359 261 252
f 359 361 370
f 371 359 370
f 369 359 371
f 370 363 371
f 363 263 371
f 363 255 263
f 365 265 257
f 372 265 365
f 373 367 366
f 373 366 368
f 373 368 374
f 376 374 375
f 375 374 268
f 374 368 268
f 368 259 268
f 269 375 268
f 369 270 261
f 270 369 271
f 271 369 371
f 271 371 263
f 372 377 265
f 265 377 272
f 273 272 377
f 273 377 378
f 380 379 279
f 380 279 278
f 379 382 381
f 280 379 381
f 279 379 280
f 381 281 280
f 376 375 282
f 283 376 282
f 383 376 283
f 282 375 269
f 378 384 273
f 273 384 284
f 286 284 384
f 286 384 385
f 388 387 386
f 289 288 386
f 387 289 386
f 389 289 387
f 289 390 290
f 389 390 289
f 290 391 291
f 390 391 290
f 291 392 292
f 391 392 291
f 278 292 380
f 380 292 392
f 382 393 381
f 393 395 394
f 393 394 293
f 381 393 293
f 281 381 293
f 394 396 293
f 396 283 293
f 396 383 283
f 385 397 286
f 286 397 294
f 386 295 388
f 295 397 388
f 295 294 397
f 295 386 288
f 395 398 394
f 394 398 396
f 401 400 399
f 403 402 399
f 399 402 401
f 403 404 402
f 407 406 405
f 407 405 400
f 400 405 399
f 405 296 399
f 296 297 399
f 399 297 298
f 399 298 403
f 408 404 403
f 298 408 403
f 299 408 298
f 410 409 301
f 409 299 301
f 409 408 299
f 412 411 410
f 410 411 409
f 303 304 412
f 304 411 412
f 304 413 411
f 414 304 305
f 414 413 304
f 416 414 415
f 414 307 415
f 414 305 307
f 309 415 307
f 419 418 417
f 419 417 406
f 417 405 406
f 417 420 405
f 420 311 296
f 420 296 405
f 312 410 301
f 410 312 313
f 410 313 412
f 412 313 303
f 421 416 415
f 423 421 422
f 422 421 314
f 421 415 314
f 415 309 314
f 316 422 314
f 417 418 424
f 424 418 425
f 424 318 319
f 420 424 319
f 417 424 420
f 420 319 311
f 423 422 426
f 423 426 427
f 322 426 316
f 316 426 422
f 424 425 428
f 428 425 429
f 428 325 318
f 428 318 424
f 430 427 426
f 430 426 322
f 328 430 322
f 431 430 328
f 328 330 431
f 431 330 432
f 428 429 333
f 429 332 333
f 429 433 332
f 434 333 335
f 434 428 333
f 434 334 325
f 428 434 325
f 434 337 334
f 340 432 330
f 340 435 432
f 433 342 332
f 436 342 433
f 343 437 434
f 343 434 335
f 437 345 337
f 437 337 434
f 340 347 438
f 439 340 438
f 435 340 439
f 348 438 347
f 440 350 351
f 441 440 351
f 342 441 351
f 436 441 342
f 353 437 343
f 345 437 353
f 444 443 442
f 445 443 444
f 448 447 446
f 446 447 439
f 446 439 438
f 358 446 438
f 357 358 438
f 357 438 348
f 440 360 350
f 450 449 361
f 450 361 360
f 441 450 360
f 440 441 360
f 362 363 449
f 450 362 449
f 451 362 450
f 443 364 442
f 364 451 442
f 364 362 451
f 365 364 443
f 445 365 443
f 452 365 445
f 448 446 453
f 448 453 454
f 367 453 358
f 358 453 446
f 449 370 361
f 370 449 363
f 452 372 365
f 455 372 452
f 456 454 453
f 458 456 457
f 457 456 373
f 456 453 373
f 453 367 373
f 374 459 373
f 373 459 457
f 376 459 374
f 455 460 372
f 372 460 377
f 462 461 378
f 377 462 378
f 460 462 377
f 463 461 462
f 380 464 379
f 457 465 458
f 382 379 464
f 465 457 459
f 465 459 466
f 459 376 466
f 376 467 466
f 376 383 467
f 461 384 378
f 469 468 385
f 469 385 384
f 463 469 384
f 461 463 384
f 387 388 468
f 469 387 468
f 470 387 469
f 387 471 389
f 470 471 387
f 471 473 472
f 390 471 472
f 389 471 390
f 390 472 474
f 475 390 474
f 391 390 475
f 391 476 392
f 475 476 391
f 392 476 380
f 476 477 380
f 477 464 380
f 477 476 478
f 479 393 382
f 464 479 382
f 477 479 464
f 479 395 393
f 396 467 383
f 396 480 467
f 468 397 385
f 397 468 388
f 473 481 472
f 472 481 474
f 478 482 477
f 477 482 479
f 479 482 483
f 479 483 395
f 483 398 395
f 483 484 398
f 396 398 480
f 480 398 484
f 485 400 401
f 485 401 486
f 401 487 486
f 401 402 487
f 402 404 487
f 487 404 488
f 491 490 489
f 493 492 489
f 489 492 491
f 495 494 493
f 493 494 492
f 495 496 494
f 499 498 497
f 406 407 497
f 407 499 497
f 407 500 499
f 500 407 400
f 501 500 400
f 485 501 400
f 500 501 502
f 485 486 503
f 485 503 501
f 504 488 404
f 504 404 408
f 409 489 490
f 504 409 490
f 408 409 504
f 489 409 411
f 489 411 493
f 493 411 413
f 493 413 495
f 505 496 495
f 413 505 495
f 414 505 413
f 414 416 505
f 505 416 506
f 497 498 419
f 498 418 419
f 498 507 418
f 497 419 406
f 508 502 501
f 508 501 503
f 416 421 509
f 510 416 509
f 506 416 510
f 423 509 421
f 507 425 418
f 511 425 507
f 512 510 509
f 509 423 512
f 423 513 512
f 423 427 513
f 511 429 425
f 514 429 511
f 427 430 515
f 516 427 515
f 513 427 516
f 431 517 430
f 430 517 515
f 432 517 431
f 514 433 429
f 518 433 514
f 519 516 515
f 521 520 519
f 515 521 519
f 517 521 515
f 435 521 432
f 432 521 517
f 523 436 522
f 436 518 522
f 436 433 518
f 524 523 522
f 520 521 525
f 520 525 526
f 439 525 435
f 435 525 521
f 527 441 523
f 523 441 436
f 523 524 528
f 529 523 528
f 527 523 529
f 444 442 529
f 528 444 529
f 530 444 528
f 445 444 530
f 445 530 531
f 534 533 532
f 532 533 526
f 532 526 525
f 448 532 525
f 447 448 525
f 447 525 439
f 527 450 441
f 450 527 451
f 451 527 529
f 451 529 442
f 531 452 445
f 535 452 531
f 538 537 536
f 539 536 537
f 540 534 532
f 532 448 540
f 448 541 540
f 448 454 541
f 543 455 542
f 455 535 542
f 455 452 535
f 544 543 542
f 538 536 545
f 538 545 546
f 536 539 547
f 536 547 545
f 548 541 454
f 548 454 456
f 456 458 548
f 548 458 549
f 543 460 455
f 544 550 543
f 550 460 543
f 550 462 460
f 545 551 463
f 550 545 463
f 462 550 463
f 546 545 550
f 545 547 552
f 545 552 551
f 458 465 553
f 554 458 553
f 549 458 554
f 466 555 465
f 465 555 553
f 467 555 466
f 551 469 463
f 552 556 551
f 556 469 551
f 556 470 469
f 556 558 557
f 471 556 557
f 470 556 471
f 557 473 471
f 474 559 475
f 560 476 475
f 560 475 559
f 560 478 476
f 561 554 553
f 561 553 555
f 561 555 562
f 555 467 562
f 467 563 562
f 467 480 563
f 558 564 557
f 564 566 565
f 564 565 481
f 557 564 481
f 473 557 481
f 559 474 481
f 565 559 481
f 567 559 565
f 559 568 560
f 559 567 568
f 569 482 478
f 560 569 478
f 568 569 560
f 570 483 482
f 570 482 569
f 483 570 571
f 572 483 571
f 484 483 572
f 480 484 563
f 563 484 572
f 566 573 565
f 565 573 567
f 567 573 574
f 576 575 574
f 575 567 574
f 575 568 567
f 568 577 569
f 568 575 577
f 569 578 570
f 569 577 578
f 571 570 579
f 579 570 578
f 576 580 575
f 582 581 580
f 581 575 580
f 581 577 575
f 577 583 578
f 577 581 583
f 579 578 584
f 584 578 583
f 582 585 581
f 581 585 583
f 583 585 586
f 583 586 584
f 589 588 587
f 587 590 589
f 587 588 487
f 588 486 487
f 588 591 486
f 593 592 488
f 488 592 487
f 592 590 487
f 590 587 487
f 490 491 593
f 491 592 593
f 491 594 592
f 595 491 492
f 595 594 491
f 596 492 494
f 596 595 492
f 494 496 596
f 596 496 597
f 599 598 499
f 499 598 498
f 601 599 600
f 599 500 600
f 599 499 500
f 502 600 500
f 591 503 486
f 602 503 591
f 504 593 488
f 593 504 490
f 603 597 496
f 603 496 505
f 505 506 603
f 603 506 604
f 598 507 498
f 605 507 598
f 606 601 600
f 606 600 502
f 508 606 502
f 607 606 508
f 508 503 602
f 508 602 607
f 510 604 506
f 510 608 604
f 611 610 609
f 605 611 609
f 511 605 609
f 507 605 511
f 510 512 612
f 613 510 612
f 608 510 613
f 513 612 512
f 609 610 614
f 614 610 615
f 614 514 511
f 614 511 609
f 613 612 616
f 613 616 617
f 516 616 513
f 513 616 612
f 614 615 618
f 618 615 619
f 618 518 514
f 618 514 614
f 620 617 616
f 622 620 621
f 621 620 519
f 620 616 519
f 616 516 519
f 520 621 519
f 619 623 618
f 623 625 624
f 623 624 522
f 618 623 522
f 518 618 522
f 624 524 522
f 628 627 626
f 626 627 622
f 621 626 622
f 629 626 621
f 526 629 520
f 520 629 621
f 625 630 624
f 624 630 524
f 630 528 524
f 630 631 528
f 528 632 530
f 631 632 528
f 531 530 632
f 531 632 633
f 636 635 634
f 638 637 634
f 638 634 635
f 639 637 638
f 628 626 640
f 628 640 641
f 534 640 533
f 640 629 533
f 640 626 629
f 533 629 526
f 643 535 642
f 535 633 642
f 535 531 633
f 643 642 636
f 634 643 636
f 644 643 634
f 538 644 537
f 644 637 537
f 644 634 637
f 539 537 637
f 639 539 637
f 645 539 639
f 646 641 640
f 648 646 647
f 647 646 540
f 646 640 540
f 640 534 540
f 541 647 540
f 643 542 535
f 542 643 544
f 643 649 544
f 643 644 649
f 546 649 538
f 538 649 644
f 645 547 539
f 650 547 645
f 651 648 647
f 653 651 652
f 652 651 548
f 651 647 548
f 647 541 548
f 549 652 548
f 649 550 544
f 550 649 546
f 650 552 547
f 654 552 650
f 655 653 652
f 652 549 655
f 549 656 655
f 549 554 656
f 654 657 552
f 552 657 556
f 558 556 657
f 558 657 658
f 554 561 659
f 660 554 659
f 656 554 660
f 562 661 561
f 561 661 659
f 563 661 562
f 658 662 558
f 558 662 564
f 566 564 662
f 566 662 663
f 660 659 664
f 660 664 665
f 571 664 572
f 664 661 572
f 664 659 661
f 572 661 563
f 663 666 566
f 566 666 573
f 573 667 574
f 666 667 573
f 576 574 667
f 576 667 668
f 665 664 669
f 665 669 670
f 579 669 571
f 571 669 664
f 668 671 576
f 576 671 580
f 673 672 582
f 580 673 582
f 671 673 580
f 672 673 670
f 669 672 670
f 674 672 669
f 584 674 579
f 579 674 669
f 672 585 582
f 585 672 586
f 586 672 674
f 586 674 584
f 675 588 589
f 590 675 589
f 677 676 675
f 676 588 675
f 676 591 588
f 677 675 590
f 592 677 590
f 678 677 592
f 679 592 594
f 679 678 592
f 680 594 595
f 680 679 594
f 681 595 596
f 681 680 595
f 596 597 681
f 681 597 682
f 683 598 599
f 601 683 599
f 676 602 591
f 684 602 676
f 685 682 597
f 685 597 603
f 603 604 685
f 685 604 686
f 689 688 687
f 690 689 683
f 689 605 683
f 605 598 683
f 689 687 605
f 690 683 601
f 606 690 601
f 691 690 606
f 692 606 607
f 692 691 606
f 607 602 684
f 607 684 692
f 695 694 693
f 694 686 693
f 686 608 693
f 686 604 608
f 698 697 696
f 698 696 688
f 688 696 687
f 696 610 687
f 610 611 687
f 687 611 605
f 695 693 699
f 695 699 700
f 613 699 608
f 608 699 693
f 696 697 701
f 701 697 702
f 701 615 610
f 701 610 696
f 700 699 703
f 700 703 704
f 617 703 613
f 613 703 699
f 702 705 701
f 615 701 705
f 706 615 705
f 619 615 706
f 709 708 707
f 710 707 708
f 711 704 703
f 713 711 712
f 712 711 620
f 711 703 620
f 703 617 620
f 622 712 620
f 706 714 619
f 619 714 623
f 716 715 625
f 623 716 625
f 714 716 623
f 718 717 715
f 718 715 716
f 717 718 709
f 707 717 709
f 719 717 707
f 707 710 720
f 721 707 720
f 719 707 721
f 723 722 721
f 723 721 720
f 724 722 723
f 727 726 725
f 725 726 713
f 725 713 712
f 628 725 712
f 627 628 712
f 627 712 622
f 715 630 625
f 630 715 631
f 631 715 717
f 631 717 632
f 632 717 719
f 632 719 633
f 719 728 633
f 719 721 728
f 636 728 635
f 728 722 635
f 728 721 722
f 638 635 722
f 729 638 722
f 724 729 722
f 730 638 729
f 730 639 638
f 727 725 731
f 727 731 732
f 641 731 628
f 628 731 725
f 728 642 633
f 642 728 636
f 729 733 730
f 639 730 733
f 734 639 733
f 645 639 734
f 735 732 731
f 737 735 736
f 736 735 646
f 735 731 646
f 731 641 646
f 648 736 646
f 734 650 645
f 738 650 734
f 739 737 736
f 741 739 740
f 740 739 651
f 739 736 651
f 736 648 651
f 653 740 651
f 738 654 650
f 742 654 738
f 741 740 743
f 741 743 744
f 655 745 653
f 745 740 653
f 745 743 740
f 656 745 655
f 742 746 654
f 654 746 657
f 658 657 746
f 658 746 747
f 744 743 748
f 744 748 749
f 750 743 745
f 748 743 750
f 660 750 656
f 656 750 745
f 747 751 658
f 658 751 662
f 753 752 663
f 662 753 663
f 751 753 662
f 755 754 752
f 755 752 753
f 754 755 749
f 748 754 749
f 756 754 748
f 757 748 750
f 756 748 757
f 665 757 660
f 660 757 750
f 752 666 663
f 666 752 667
f 667 752 754
f 667 754 668
f 754 758 668
f 754 756 758
f 759 756 757
f 758 756 759
f 670 759 665
f 665 759 757
f 758 671 668
f 671 758 673
f 673 758 759
f 673 759 670
f 760 676 677
f 678 761 677
f 677 761 760
f 679 762 678
f 678 762 761
f 680 763 679
f 679 763 762
f 681 764 680
f 680 764 763
f 682 764 681
f 766 765 760
f 765 676 760
f 765 684 676
f 766 760 761
f 766 761 767
f 769 768 767
f 761 769 767
f 762 769 761
f 770 762 763
f 769 762 770
f 771 763 764
f 770 763 771
f 685 772 682
f 772 764 682
f 772 771 764
f 686 772 685
f 775 774 773
f 688 689 773
f 689 775 773
f 689 776 775
f 778 776 777
f 776 690 777
f 776 689 690
f 691 779 690
f 690 779 777
f 692 780 691
f 691 780 779
f 781 780 692
f 684 781 692
f 765 781 684
f 782 768 769
f 782 769 770
f 782 770 783
f 785 784 783
f 770 785 783
f 771 785 770
f 695 785 694
f 785 772 694
f 785 771 772
f 694 772 686
f 788 787 786
f 788 786 774
f 774 786 773
f 786 697 773
f 697 698 773
f 773 698 688
f 789 778 777
f 791 790 789
f 777 791 789
f 779 791 777
f 792 779 780
f 791 779 792
f 780 781 793
f 780 793 792
f 796 795 794
f 794 795 784
f 785 794 784
f 797 794 785
f 700 797 695
f 695 797 785
f 786 787 798
f 798 787 799
f 798 702 697
f 798 697 786
f 790 791 800
f 790 800 801
f 802 791 792
f 800 791 802
f 792 793 803
f 792 803 802
f 796 794 804
f 796 804 805
f 806 794 797
f 804 794 806
f 704 806 700
f 700 806 797
f 799 807 798
f 798 807 702
f 807 705 702
f 807 808 705
f 810 809 706
f 705 810 706
f 808 810 705
f 812 811 809
f 812 809 810
f 811 812 801
f 800 811 801
f 813 811 800
f 709 813 708
f 813 802 708
f 813 800 802
f 710 708 802
f 803 710 802
f 814 710 803
f 815 805 804
f 817 816 815
f 804 817 815
f 806 817 804
f 711 818 704
f 818 806 704
f 818 817 806
f 713 818 711
f 809 714 706
f 714 809 716
f 716 809 811
f 716 811 718
f 718 811 813
f 718 813 709
f 814 819 710
f 710 819 720
f 819 821 820
f 723 819 820
f 720 819 723
f 820 724 723
f 816 817 822
f 816 822 823
f 727 822 726
f 822 818 726
f 822 817 818
f 726 818 713
f 821 824 820
f 729 724 820
f 825 729 820
f 824 825 820
f 729 825 826
f 827 826 825
f 828 823 822
f 822 727 828
f 727 829 828
f 727 732 829
f 826 733 729
f 734 733 826
f 827 734 826
f 830 734 827
f 732 735 831
f 832 732 831
f 829 732 832
f 737 831 735
f 830 738 734
f 833 738 830
f 832 831 834
f 832 834 835
f 739 836 737
f 836 831 737
f 836 834 831
f 741 836 739
f 833 742 738
f 837 742 833
f 838 835 834
f 840 839 838
f 834 840 838
f 836 840 834
f 744 840 741
f 741 840 836
f 837 841 742
f 742 841 746
f 843 842 747
f 746 843 747
f 841 843 746
f 845 844 842
f 845 842 843
f 844 845 839
f 840 844 839
f 846 844 840
f 749 846 744
f 744 846 840
f 842 751 747
f 751 842 753
f 753 842 844
f 753 844 755
f 755 844 846
f 755 846 749
f 847 765 766
f 767 848 766
f 766 848 847
f 768 848 767
f 850 849 775
f 775 849 774
f 852 850 851
f 850 776 851
f 850 775 776
f 778 851 776
f 853 781 847
f 847 781 765
f 854 847 848
f 853 847 854
f 782 855 768
f 855 848 768
f 855 854 848
f 783 856 782
f 782 856 855
f 784 856 783
f 858 857 788
f 788 857 787
f 788 774 849
f 788 849 858
f 852 851 859
f 852 859 860
f 789 861 778
f 861 851 778
f 861 859 851
f 790 861 789
f 862 793 853
f 853 793 781
f 863 853 854
f 862 853 863
f 864 854 855
f 863 854 864
f 796 864 795
f 864 856 795
f 864 855 856
f 795 856 784
f 866 799 865
f 799 857 865
f 799 787 857
f 867 866 865
f 868 860 859
f 870 869 868
f 859 870 868
f 861 870 859
f 801 870 790
f 790 870 861
f 871 803 862
f 862 803 793
f 872 862 863
f 871 862 872
f 873 863 864
f 872 863 873
f 805 873 796
f 796 873 864
f 866 807 799
f 867 874 866
f 874 807 866
f 874 808 807
f 808 875 810
f 874 875 808
f 870 812 869
f 812 875 869
f 812 810 875
f 812 870 801
f 876 814 871
f 871 814 803
f 877 871 872
f 876 871 877
f 878 872 873
f 877 872 878
f 815 879 805
f 879 873 805
f 879 878 873
f 816 879 815
f 876 819 814
f 819 876 821
f 876 880 821
f 876 877 880
f 881 877 878
f 880 877 881
f 882 878 879
f 881 878 882
f 823 882 816
f 816 882 879
f 880 824 821
f 824 880 825
f 825 880 881
f 825 881 827
f 881 883 827
f 881 882 883
f 828 884 823
f 884 882 823
f 884 883 882
f 829 884 828
f 885 830 883
f 883 830 827
f 886 883 884
f 885 883 886
f 832 886 829
f 829 886 884
f 887 833 885
f 885 833 830
f 888 885 886
f 887 885 888
f 835 888 832
f 832 888 886
f 889 837 887
f 887 837 833
f 890 887 888
f 889 887 890
f 838 891 835
f 891 888 835
f 891 890 888
f 839 891 838
f 889 841 837
f 841 889 843
f 843 889 890
f 843 890 845
f 845 890 891
f 845 891 839
f 892 849 850
f 852 892 850
f 893 857 858
f 849 892 858
f 892 893 858
f 892 894 893
f 860 894 852
f 852 894 892
f 893 865 857
f 865 893 867
f 893 895 867
f 893 894 895
f 868 896 860
f 896 894 860
f 896 895 894
f 869 896 868
f 895 874 867
f 874 895 875
f 875 895 896
f 875 896 869
