v -6.2 -77.0 34.0
v -6.0 -77.0 33.7
v -6.0 -77.3 34.0
v -6.0 -77.4 35.0
v -6.3 -77.0 35.0
v -6.0 -77.0 35.5
v -6.4 -76.0 34.0
v -6.0 -76.0 33.5
v -6.5 -76.0 35.0
v -6.0 -76.5 36.0
v -6.3 -76.0 36.0
v -6.0 -76.0 36.5
v -6.3 -75.0 34.0
v -6.0 -75.0 33.7
v -6.5 -75.0 35.0
v -6.5 -75.0 36.0
v -6.0 -75.5 37.0
v -6.3 -75.0 37.0
v -6.0 -75.0 37.5
v -6.0 -74.6 34.0
v -6.3 -74.0 35.0
v -6.0 -74.0 34.6
v -6.4 -74.0 36.0
v -6.4 -74.0 37.0
v -6.0 -74.4 38.0
v -6.2 -74.0 38.0
v -6.0 -74.0 38.3
v -6.0 -73.7 35.0
v -6.0 -73.5 36.0
v -6.1 -73.0 37.0
v -6.0 -73.0 36.9
v -6.0 -73.0 37.6
v -6.0 -73.1 38.0
v -6.0 -72.9 37.0
v -5.1 -81.0 37.0
v -5.0 -81.0 36.8
v -5.0 -81.2 37.0
v -5.0 -81.0 37.3
v -5.4 -80.0 37.0
v -5.0 -80.0 36.4
v -5.0 -80.6 38.0
v -5.4 -80.0 38.0
v -5.0 -80.2 39.0
v -5.1 -80.0 39.0
v -5.0 -80.0 39.2
v -5.1 -79.0 30.0
v -5.0 -79.0 29.9
v -5.0 -79.2 30.0
v -5.0 -79.3 31.0
v -5.3 -79.0 31.0
v -5.0 -79.0 31.7
v -5.3 -79.0 33.0
v -5.0 -79.0 32.3
v -5.0 -79.4 33.0
v -5.0 -79.5 34.0
v -5.4 -79.0 34.0
v -5.0 -79.5 35.0
v -5.4 -79.0 35.0
v -5.0 -79.7 36.0
v -5.4 -79.0 36.0
v -5.5 -79.0 37.0
v -5.4 -79.0 38.0
v -5.0 -79.0 38.8
v -5.0 -79.6 39.0
v -5.1 -78.0 30.0
v -5.0 -78.0 29.9
v -5.4 -78.0 31.0
v -5.0 -78.8 32.0
v -5.4 -78.0 32.0
v -5.5 -78.0 33.0
v -5.6 -78.0 34.0
v -5.6 -78.0 35.0
v -5.5 -78.0 36.0
v -5.5 -78.0 37.0
v -5.5 -78.0 38.0
v -5.0 -78.7 39.0
v -5.3 -78.0 39.0
v -5.0 -78.0 39.4
v -5.1 -78.0 45.0
v -5.0 -78.0 44.8
v -5.0 -78.1 45.0
v -5.0 -78.0 45.2
v -5.0 -77.9 30.0
v -5.1 -77.0 31.0
v -5.0 -77.0 30.9
v -5.4 -77.0 32.0
v -5.6 -77.0 33.0
v -5.7 -77.0 36.0
v -5.5 -77.0 37.0
v -5.5 -77.0 38.0
v -5.3 -77.0 39.0
v -5.0 -77.0 39.4
v -5.3 -77.0 44.0
v -5.0 -77.0 43.5
v -5.0 -77.5 44.0
v -5.5 -77.0 45.0
v -5.0 -77.4 46.0
v -5.2 -77.0 46.0
v -5.0 -77.0 46.3
v -5.0 -76.9 31.0
v -5.0 -76.4 32.0
v -5.5 -76.0 33.0
v -5.0 -76.0 32.4
v -5.7 -76.0 37.0
v -5.4 -76.0 38.0
v -5.0 -76.0 38.6
v -5.0 -76.5 39.0
v -5.1 -76.0 42.0
v -5.0 -76.0 41.9
v -5.0 -76.2 42.0
v -5.0 -76.6 43.0
v -5.4 -76.0 43.0
v -5.5 -76.0 44.0
v -5.5 -76.0 45.0
v -5.3 -76.0 46.0
v -5.0 -76.0 46.3
v -5.4 -75.0 33.0
v -5.0 -75.0 32.6
v -5.6 -75.0 38.0
v -5.0 -75.0 38.5
v -5.0 -75.8 42.0
v -5.4 -75.0 43.0
v -5.0 -75.0 42.4
v -5.5 -75.0 44.0
v -5.4 -75.0 45.0
v -5.0 -75.0 45.6
v -5.0 -75.6 46.0
v -5.0 -74.5 33.0
v -5.5 -74.0 34.0
v -5.0 -74.0 33.5
v -5.0 -74.0 38.8
v -5.2 -74.0 43.0
v -5.0 -74.0 42.7
v -5.4 -74.0 44.0
v -5.2 -74.0 45.0
v -5.0 -74.0 45.3
v -5.0 -73.4 34.0
v -5.4 -73.0 35.0
v -5.0 -73.0 34.5
v -5.5 -73.0 36.0
v -5.0 -73.0 36.8
v -5.0 -73.1 37.0
v -5.7 -73.0 37.0
v -5.0 -73.4 38.0
v -5.0 -73.8 43.0
v -5.0 -73.5 44.0
v -5.0 -73.7 45.0
v -5.0 -72.6 35.0
v -5.0 -72.7 36.0
v -4.3 -83.0 37.0
v -4.0 -83.0 36.6
v -4.0 -83.3 37.0
v -4.0 -83.3 38.0
v -4.3 -83.0 38.0
v -4.0 -83.0 38.4
v -4.2 -82.0 33.0
v -4.0 -82.0 32.6
v -4.0 -82.2 33.0
v -4.0 -82.3 34.0
v -4.3 -82.0 34.0
v -4.0 -82.4 35.0
v -4.4 -82.0 35.0
v -4.0 -82.6 36.0
v -4.4 -82.0 36.0
v -4.6 -82.0 37.0
v -4.5 -82.0 38.0
v -4.0 -82.5 39.0
v -4.3 -82.0 39.0
v -4.0 -82.0 39.4
v -4.3 -81.0 32.0
v -4.0 -81.0 31.6
v -4.0 -81.4 32.0
v -4.5 -81.0 33.0
v -4.5 -81.0 34.0
v -4.5 -81.0 35.0
v -4.6 -81.0 36.0
v -4.7 -81.0 38.0
v -4.6 -81.0 39.0
v -4.0 -81.4 40.0
v -4.3 -81.0 40.0
v -4.0 -81.0 40.5
v -4.4 -80.0 31.0
v -4.0 -80.0 30.5
v -4.0 -80.5 31.0
v -4.5 -80.0 32.0
v -4.6 -80.0 33.0
v -4.6 -80.0 34.0
v -4.6 -80.0 35.0
v -4.7 -80.0 36.0
v -4.5 -80.0 40.0
v -4.0 -80.2 41.0
v -4.1 -80.0 41.0
v -4.0 -80.0 41.1
v -4.0 -79.0 29.5
v -4.0 -79.5 30.0
v -4.8 -79.0 32.0
v -4.8 -79.0 39.0
v -4.4 -79.0 40.0
v -4.0 -79.0 40.6
v -4.0 -79.7 41.0
v -4.1 -78.0 29.0
v -4.0 -78.0 28.9
v -4.0 -78.1 29.0
v -4.5 -78.0 40.0
v -4.0 -78.0 40.7
v -4.3 -78.0 43.0
v -4.0 -78.0 42.5
v -4.0 -78.3 43.0
v -4.0 -78.4 44.0
v -4.5 -78.0 44.0
v -4.0 -78.6 45.0
v -4.0 -78.3 46.0
v -4.4 -78.0 46.0
v -4.0 -78.0 46.3
v -4.2 -77.0 27.0
v -4.0 -77.0 26.7
v -4.0 -77.2 27.0
v -4.0 -77.2 28.0
v -4.1 -77.0 28.0
v -4.0 -77.9 29.0
v -4.0 -77.0 28.2
v -4.0 -77.9 30.0
v -4.5 -77.0 31.0
v -4.0 -77.1 31.0
v -4.0 -77.0 31.1
v -4.6 -77.0 40.0
v -4.0 -77.7 41.0
v -4.4 -77.0 41.0
v -4.0 -77.6 42.0
v -4.5 -77.0 42.0
v -4.7 -77.0 43.0
v -4.0 -77.0 46.7
v -4.3 -76.0 26.0
v -4.0 -76.0 25.1
v -4.0 -76.3 26.0
v -4.2 -76.0 27.0
v -4.0 -76.0 27.3
v -4.0 -76.8 28.0
v -4.0 -76.0 31.5
v -4.6 -76.0 32.0
v -4.6 -76.0 39.0
v -4.4 -76.0 40.0
v -4.5 -76.0 41.0
v -4.0 -76.3 47.0
v -4.2 -76.0 47.0
v -4.0 -76.0 47.1
v -4.0 -75.7 26.0
v -4.0 -75.8 27.0
v -4.3 -75.0 32.0
v -4.0 -75.0 31.7
v -4.0 -75.3 39.0
v -4.0 -75.0 38.8
v -4.0 -75.5 40.0
v -4.0 -75.3 41.0
v -4.6 -75.0 42.0
v -4.0 -75.0 41.3
v -4.6 -75.0 46.0
v -4.0 -75.0 46.6
v -4.0 -75.7 47.0
v -4.0 -74.6 32.0
v -4.6 -74.0 33.0
v -4.0 -74.0 32.4
v -4.0 -74.0 38.5
v -4.3 -74.0 42.0
v -4.0 -74.0 41.7
v -4.1 -74.0 46.0
v -4.0 -74.0 46.1
v -4.4 -73.0 33.0
v -4.0 -73.0 32.6
v -4.7 -73.0 34.0
v -4.8 -73.0 37.0
v -4.0 -73.0 37.6
v -4.0 -73.4 38.0
v -4.0 -73.7 42.0
v -4.0 -73.3 43.0
v -4.3 -73.0 44.0
v -4.0 -73.0 43.5
v -4.1 -73.0 45.0
v -4.0 -73.0 45.1
v -4.0 -73.9 46.0
v -4.2 -72.0 33.0
v -4.0 -72.0 32.8
v -4.4 -72.0 34.0
v -4.3 -72.0 35.0
v -4.0 -72.0 35.4
v -4.0 -72.3 36.0
v -4.2 -72.0 37.0
v -4.0 -72.0 36.7
v -4.0 -72.0 37.4
v -4.0 -72.1 44.0
v -4.0 -72.9 45.0
v -4.0 -71.8 33.0
v -4.0 -71.7 34.0
v -4.0 -71.8 35.0
v -4.0 -71.9 37.0
v -4.1 -71.0 44.0
v -4.0 -71.0 43.9
v -4.0 -71.7 44.0
v -4.0 -71.0 44.1
v -4.0 -70.3 44.0
v -3.3 -84.0 37.0
v -3.0 -84.0 36.6
v -3.0 -84.3 37.0
v -3.0 -84.4 38.0
v -3.4 -84.0 38.0
v -3.0 -84.3 39.0
v -3.3 -84.0 39.0
v -3.0 -84.0 39.3
v -3.5 -83.0 36.0
v -3.0 -83.0 35.4
v -3.0 -83.5 36.0
v -3.6 -83.0 39.0
v -3.0 -83.0 39.6
v -3.4 -82.0 32.0
v -3.0 -82.0 31.7
v -3.0 -82.3 32.0
v -3.0 -82.6 33.0
v -3.0 -82.6 34.0
v -3.0 -82.7 35.0
v -3.0 -82.5 40.0
v -3.5 -82.0 40.0
v -3.0 -82.0 40.4
v -3.4 -81.0 31.0
v -3.0 -81.0 30.6
v -3.0 -81.4 31.0
v -3.0 -81.3 41.0
v -3.4 -81.0 41.0
v -3.0 -81.0 41.6
v -3.5 -80.0 30.0
v -3.0 -80.0 29.6
v -3.0 -80.4 30.0
v -3.0 -80.0 41.6
v -3.2 -79.0 28.0
v -3.0 -79.0 27.8
v -3.0 -79.2 28.0
v -3.0 -79.5 29.0
v -3.6 -79.0 29.0
v -3.7 -79.0 41.0
v -3.0 -79.4 42.0
v -3.3 -79.0 42.0
v -3.0 -79.0 42.4
v -3.3 -79.0 45.0
v -3.0 -79.0 44.7
v -3.0 -79.2 45.0
v -3.0 -79.2 46.0
v -3.3 -79.0 46.0
v -3.0 -79.0 46.2
v -3.6 -78.0 28.0
v -3.0 -78.0 27.5
v -3.8 -78.0 41.0
v -3.7 -78.0 42.0
v -3.0 -78.6 43.0
v -3.0 -78.6 44.0
v -3.0 -78.0 46.7
v -3.0 -77.0 26.7
v -3.0 -77.3 27.0
v -3.6 -77.0 29.0
v -3.4 -77.0 30.0
v -3.9 -77.0 31.0
v -3.0 -77.5 47.0
v -3.5 -77.0 47.0
v -3.0 -77.0 47.3
v -3.0 -76.0 25.8
v -3.0 -76.2 26.0
v -3.4 -76.0 28.0
v -3.0 -76.0 28.4
v -3.0 -76.4 29.0
v -3.0 -76.5 30.0
v -3.4 -76.0 31.0
v -3.0 -76.0 30.7
v -3.0 -76.0 47.5
v -3.0 -75.5 26.0
v -3.0 -75.6 27.0
v -3.0 -75.7 28.0
v -3.0 -75.6 31.0
v -3.0 -75.0 31.4
v -3.7 -75.0 39.0
v -3.5 -75.0 40.0
v -3.7 -75.0 41.0
v -3.4 -75.0 47.0
v -3.0 -75.0 47.3
v -3.4 -74.0 32.0
v -3.0 -74.0 31.7
v -3.0 -74.3 39.0
v -3.0 -74.0 38.7
v -3.0 -74.4 40.0
v -3.4 -74.0 41.0
v -3.0 -74.0 40.5
v -3.6 -74.0 46.0
v -3.0 -74.2 46.0
v -3.0 -74.0 45.8
v -3.0 -74.7 47.0
v -3.0 -73.6 32.0
v -3.0 -73.0 32.4
v -3.0 -73.3 38.0
v -3.0 -73.0 37.8
v -3.0 -73.6 41.0
v -3.3 -73.0 42.0
v -3.0 -73.0 41.7
v -3.5 -73.0 43.0
v -3.0 -73.2 44.0
v -3.0 -73.0 43.6
v -3.5 -73.0 44.0
v -3.9 -73.0 45.0
v -3.0 -73.5 45.0
v -3.0 -72.0 32.8
v -3.0 -72.1 36.0
v -3.0 -72.0 35.8
v -3.0 -72.0 36.2
v -3.0 -72.0 37.5
v -3.0 -72.7 42.0
v -3.0 -72.6 43.0
v -3.0 -71.8 33.0
v -3.0 -71.6 34.0
v -3.0 -71.7 35.0
v -3.0 -71.6 37.0
v -3.0 -71.0 43.9
v -3.0 -71.1 44.0
v -3.0 -71.0 44.1
v -3.8 -70.0 44.0
v -3.0 -70.0 43.8
v -3.0 -70.2 45.0
v -3.2 -70.0 45.0
v -3.0 -70.0 45.8
v -3.0 -69.8 44.0
v -3.1 -69.0 45.0
v -3.0 -69.0 44.8
v -3.0 -69.8 46.0
v -3.2 -69.0 46.0
v -3.0 -69.0 46.4
v -3.0 -68.6 45.0
v -3.0 -68.7 46.0
v -2.1 -85.0 39.0
v -2.0 -85.0 38.8
v -2.0 -85.1 39.0
v -2.0 -85.0 39.1
v -2.4 -84.0 36.0
v -2.0 -84.0 35.5
v -2.0 -84.3 36.0
v -2.0 -84.5 37.0
v -2.0 -84.7 38.0
v -2.0 -84.3 40.0
v -2.3 -84.0 40.0
v -2.0 -84.0 40.3
v -2.3 -83.0 33.0
v -2.0 -83.0 32.7
v -2.0 -83.3 33.0
v -2.0 -83.4 34.0
v -2.5 -83.0 34.0
v -2.0 -83.6 35.0
v -2.7 -83.0 35.0
v -2.6 -83.0 40.0
v -2.0 -83.0 40.5
v -2.0 -82.0 31.5
v -2.0 -82.5 32.0
v -2.0 -82.0 40.5
v -2.0 -81.0 30.5
v -2.0 -81.5 31.0
v -2.6 -81.0 41.0
v -2.0 -81.0 40.6
v -2.0 -80.0 29.5
v -2.0 -80.5 30.0
v -2.2 -80.0 41.0
v -2.0 -80.0 40.9
v -2.0 -79.0 27.8
v -2.0 -79.2 28.0
v -2.0 -79.5 29.0
v -2.0 -79.9 41.0
v -2.0 -79.5 42.0
v -2.0 -79.0 42.7
v -2.0 -79.0 44.6
v -2.0 -79.2 45.0
v -2.0 -79.2 46.0
v -2.0 -79.0 46.3
v -2.0 -78.0 27.6
v -2.0 -78.8 43.0
v -2.0 -78.6 44.0
v -2.0 -78.3 47.0
v -2.5 -78.0 47.0
v -2.0 -78.0 47.3
v -2.7 -77.0 27.0
v -2.0 -77.0 27.6
v -2.0 -77.0 47.5
v -2.8 -76.0 26.0
v -2.6 -76.0 27.0
v -2.0 -76.0 27.8
v -2.1 -76.0 29.0
v -2.0 -76.0 29.1
v -2.0 -76.5 30.0
v -2.0 -76.0 30.5
v -2.0 -76.0 47.5
v -2.0 -75.8 28.0
v -2.0 -75.9 29.0
v -2.0 -75.6 31.0
v -2.0 -75.0 31.4
v -2.0 -75.0 47.4
v -2.0 -74.0 31.6
v -2.6 -74.0 39.0
v -2.6 -74.0 40.0
v -2.5 -74.0 46.0
v -2.0 -74.0 46.2
v -2.0 -74.6 47.0
v -2.0 -73.5 32.0
v -2.0 -73.0 32.6
v -2.7 -73.0 38.0
v -2.0 -73.0 38.5
v -2.0 -73.5 39.0
v -2.0 -73.6 40.0
v -2.0 -73.4 41.0
v -2.0 -73.0 41.5
v -2.0 -73.4 44.0
v -2.0 -73.0 43.6
v -2.0 -73.5 45.0
v -2.0 -73.8 46.0
v -2.0 -72.6 33.0
v -2.7 -72.0 33.0
v -2.5 -72.0 34.0
v -2.0 -72.4 34.0
v -2.2 -72.0 35.0
v -2.0 -72.1 35.0
v -2.9 -72.0 36.0
v -2.0 -72.0 35.1
v -2.6 -72.0 38.0
v -2.0 -72.0 38.4
v -2.0 -72.4 42.0
v -2.3 -72.0 43.0
v -2.0 -72.0 42.5
v -2.0 -72.0 43.3
v -2.0 -71.0 35.8
v -2.2 -71.0 36.0
v -2.4 -71.0 37.0
v -2.2 -71.0 38.0
v -2.0 -71.0 38.2
v -2.2 -71.0 43.0
v -2.0 -71.0 42.8
v -2.9 -71.0 44.0
v -2.0 -71.0 43.2
v -2.0 -70.8 36.0
v -2.0 -70.6 37.0
v -2.0 -70.8 38.0
v -2.0 -70.1 43.0
v -2.8 -70.0 44.0
v -2.8 -70.0 45.0
v -2.9 -69.0 45.0
v -2.8 -69.0 46.0
v -1.5 -85.0 38.0
v -1.0 -85.0 37.5
v -1.0 -85.3 38.0
v -1.0 -85.2 39.0
v -1.0 -85.0 39.3
v -1.5 -84.0 35.0
v -1.0 -84.0 34.4
v -1.0 -84.4 35.0
v -1.0 -84.6 36.0
v -1.0 -84.7 37.0
v -1.0 -84.4 40.0
v -1.0 -84.0 40.9
v -1.0 -83.0 32.5
v -1.0 -83.5 33.0
v -1.0 -83.8 34.0
v -1.0 -83.6 41.0
v -1.1 -83.0 41.0
v -1.0 -83.0 41.1
v -1.0 -82.0 31.6
v -1.0 -82.4 32.0
v -1.0 -82.9 41.0
v -1.0 -82.0 40.6
v -1.0 -81.0 30.6
v -1.0 -81.4 31.0
v -1.0 -81.0 40.4
v -1.0 -80.0 29.6
v -1.0 -80.4 30.0
v -1.2 -80.0 39.0
v -1.0 -80.3 39.0
v -1.0 -80.0 38.7
v -1.3 -80.0 40.0
v -1.0 -80.5 40.0
v -1.0 -80.0 40.8
v -1.0 -80.1 41.0
v -1.4 -80.2 40.8
v -1.4 -80.0 41.0
v -1.0 -80.0 41.1
v -1.8 -79.0 28.0
v -1.5 -79.0 29.0
v -1.0 -79.2 30.0
v -1.1 -79.0 30.0
v -1.0 -79.0 30.1
v -1.2 -79.0 39.0
v -1.0 -79.0 38.6
v -1.3 -79.0 40.0
v -1.0 -79.0 40.5
v -1.0 -79.0 41.7
v -1.3 -79.0 42.0
v -1.0 -79.7 43.0
v -1.0 -79.0 42.5
v -1.5 -79.0 43.0
v -1.0 -79.0 43.3
v -1.5 -79.0 45.0
v -1.6 -79.0 46.0
v -1.6 -78.0 28.0
v -1.5 -78.0 29.0
v -1.5 -78.0 30.0
v -1.0 -78.1 31.0
v -1.1 -78.0 31.0
v -1.0 -78.0 31.1
v -1.2 -78.0 36.0
v -1.0 -78.6 36.0
v -1.0 -78.0 35.8
v -1.7 -78.0 37.0
v -1.0 -78.5 37.0
v -1.0 -78.0 37.6
v -1.0 -78.5 39.0
v -1.0 -78.6 40.0
v -1.0 -78.8 42.0
v -1.0 -78.6 44.0
v -1.0 -78.7 45.0
v -1.0 -78.6 46.0
v -1.0 -78.3 47.0
v -1.0 -78.0 47.2
v -1.6 -77.0 28.0
v -1.5 -77.0 29.0
v -1.6 -77.0 30.0
v -1.0 -77.0 30.7
v -1.0 -77.8 31.0
v -1.0 -77.8 36.0
v -1.0 -77.0 36.7
v -1.3 -77.0 37.0
v -1.0 -77.5 38.0
v -1.3 -77.0 38.0
v -1.0 -77.0 39.0
v -1.0 -77.1 39.0
v -1.0 -77.0 39.0
v -1.0 -77.0 47.5
v -1.8 -76.0 28.0
v -1.9 -76.0 29.0
v -1.0 -76.0 30.7
v -1.0 -76.7 37.0
v -1.0 -76.7 38.0
v -1.0 -77.0 39.0
v -1.0 -76.0 47.6
v -1.0 -75.6 31.0
v -1.0 -75.0 31.4
v -1.0 -75.0 47.4
v -1.0 -74.0 31.6
v -1.7 -74.0 46.0
v -1.0 -74.3 46.0
v -1.0 -74.0 45.6
v -1.0 -74.6 47.0
v -1.0 -73.5 32.0
v -1.2 -73.0 33.0
v -1.0 -73.1 33.0
v -1.0 -73.0 33.2
v -1.0 -73.2 39.0
v -1.0 -73.0 38.8
v -1.0 -73.4 40.0
v -1.0 -73.2 41.0
v -1.0 -73.0 41.2
v -1.0 -73.4 44.0
v -1.0 -73.0 43.6
v -1.0 -73.6 45.0
v -1.0 -72.5 34.0
v -1.8 -72.0 35.0
v -1.0 -72.0 34.6
v -1.0 -72.0 38.5
v -1.6 -72.0 42.0
v -1.0 -72.0 41.5
v -1.0 -72.0 43.5
v -1.0 -71.6 35.0
v -1.0 -71.0 35.6
v -1.0 -71.0 38.3
v -1.3 -71.0 42.0
v -1.0 -71.0 41.7
v -1.0 -71.0 43.2
v -1.0 -70.7 36.0
v -1.0 -70.6 37.0
v -1.0 -70.8 38.0
v -1.0 -70.7 42.0
v -1.0 -70.7 43.0
v -0.1 -85.0 34.0
v 0.0 -85.0 33.9
v 0.0 -85.1 34.0
v 0.0 -85.7 35.0
v -0.4 -85.0 35.0
v 0.0 -85.4 36.0
v -0.5 -85.0 36.0
v 0.0 -85.3 37.0
v -0.5 -85.0 37.0
v 0.0 -85.2 38.0
v -0.7 -85.0 39.0
v 0.0 -85.0 38.3
v -0.1 -84.0 33.0
v 0.0 -84.0 32.9
v 0.0 -84.1 33.0
v -0.7 -84.0 34.0
v -0.1 -84.0 39.0
v 0.0 -84.0 38.9
v -0.6 -84.0 40.0
v 0.0 -83.0 32.5
v 0.0 -83.9 39.0
v 0.0 -83.0 39.5
v -0.4 -83.0 40.0
v -0.9 -83.0 41.0
v -0.5 -82.0 32.0
v 0.0 -82.0 32.3
v -0.4 -82.0 40.0
v 0.0 -82.0 39.5
v -0.5 -81.0 31.0
v 0.0 -81.0 31.3
v 0.0 -81.7 32.0
v -0.3 -81.0 38.0
v 0.0 -81.4 38.0
v 0.0 -81.0 37.5
v -0.5 -81.0 39.0
v 0.0 -81.6 39.0
v -0.6 -81.0 40.0
v -0.0 -80.0 29.0
v 0.0 -80.0 29.0
v 0.0 -80.0 29.0
v 0.0 -80.4 30.0
v 0.0 -80.7 31.0
v -0.3 -80.0 37.0
v 0.0 -80.5 37.0
v 0.0 -80.0 36.6
v -0.6 -80.0 38.0
v -0.5 -80.0 41.0
v -0.2 -79.0 29.0
v 0.0 -79.0 28.9
v -0.9 -79.0 30.0
v -0.3 -79.0 36.0
v 0.0 -79.1 36.0
v 0.0 -79.0 35.6
v -0.6 -79.0 37.0
v -0.6 -79.0 38.0
v -0.7 -79.0 41.0
v -0.8 -79.0 43.0
v -0.0 -79.0 45.0
v 0.0 -79.0 45.0
v 0.0 -79.0 45.0
v 0.0 -79.0 45.0
v 0.0 -78.8 29.0
v 0.0 -78.5 30.0
v 0.0 -78.2 31.0
v 0.0 -78.0 31.2
v 0.0 -78.0 35.5
v -0.8 -78.0 38.0
v -0.7 -78.0 39.0
v -0.6 -78.0 40.0
v -0.5 -78.0 41.0
v -0.4 -78.0 42.0
v 0.0 -78.0 42.6
v 0.0 -78.3 43.0
v 0.0 -78.5 44.0
v 0.0 -78.3 46.0
v -0.6 -78.0 47.0
v 0.0 -78.0 46.4
v -0.4 -77.0 31.0
v 0.0 -77.0 31.2
v -0.1 -77.0 34.0
v 0.0 -77.1 34.0
v 0.0 -77.0 33.8
v 0.0 -77.0 34.2
v 0.0 -77.3 36.0
v 0.0 -77.0 36.2
v -0.5 -77.0 40.0
v -0.3 -77.0 41.0
v 0.0 -77.0 41.6
v 0.0 -77.3 42.0
v 0.0 -77.4 47.0
v 0.0 -77.0 47.3
v -0.1 -76.0 31.0
v 0.0 -76.2 32.0
v -0.2 -76.0 32.0
v -0.4 -76.0 33.0
v 0.0 -76.5 33.0
v -0.5 -76.0 34.0
v 0.0 -76.5 35.0
v -0.7 -76.0 35.0
v 0.0 -76.0 35.9
v -0.5 -76.0 37.0
v 0.0 -76.0 36.1
v -0.5 -76.0 38.0
v 0.0 -76.0 39.0
v 0.0 -76.0 39.0
v 0.0 -76.3 40.0
v 0.0 -76.4 41.0
v 0.0 -76.0 42.0
v -0.0 -76.0 42.0
v 0.0 -76.0 42.0
v -0.2 -76.0 43.0
v 0.0 -76.3 43.0
v -0.2 -76.0 44.0
v 0.0 -76.3 44.0
v 0.0 -76.0 44.3
v 0.0 -76.0 48.0
v -0.0 -76.0 48.0
v 0.0 -76.0 48.0
v 0.0 -75.4 32.0
v 0.0 -75.0 31.9
v 0.0 -75.0 32.3
v -0.3 -75.0 33.0
v -0.4 -75.0 34.0
v -0.4 -75.0 35.0
v 0.0 -75.8 36.0
v -0.3 -75.0 36.0
v -0.4 -75.0 37.0
v -0.4 -75.0 38.0
v 0.0 -75.9 39.0
v -0.3 -75.0 39.0
v -0.2 -75.0 40.0
v 0.0 -75.5 40.0
v -0.1 -75.0 41.0
v 0.0 -75.4 41.0
v 0.0 -76.0 42.0
v 0.0 -75.0 41.2
v 0.0 -75.6 43.0
v 0.0 -75.0 43.7
v -0.1 -75.0 44.0
v 0.0 -75.0 44.2
v 0.0 -75.8 48.0
v 0.0 -75.0 47.9
v 0.0 -74.0 31.7
v 0.0 -74.6 33.0
v 0.0 -74.5 34.0
v 0.0 -74.5 35.0
v 0.0 -74.6 36.0
v 0.0 -74.5 37.0
v 0.0 -74.5 38.0
v 0.0 -74.6 39.0
v 0.0 -74.6 40.0
v 0.0 -74.8 41.0
v 0.0 -74.7 44.0
v 0.0 -74.6 46.0
v 0.0 -74.0 45.2
v 0.0 -74.7 47.0
v 0.0 -73.1 32.0
v -0.6 -73.0 33.0
v 0.0 -73.0 32.1
v -0.5 -73.0 39.0
v -0.5 -73.0 40.0
v -0.7 -73.0 41.0
v 0.0 -73.6 44.0
v 0.0 -73.0 43.5
v 0.0 -73.8 45.0
v 0.0 -72.8 33.0
v 0.0 -72.6 34.0
v 0.0 -72.0 34.7
v -0.4 -72.0 38.0
v 0.0 -72.4 38.0
v 0.0 -72.0 37.5
v 0.0 -72.6 39.0
v -0.2 -72.0 40.0
v 0.0 -72.0 39.7
v -0.5 -72.0 41.0
v 0.0 -72.0 43.2
v 0.0 -71.7 35.0
v 0.0 -71.0 35.9
v -0.5 -71.0 37.0
v 0.0 -71.5 37.0
v 0.0 -71.0 36.1
v -0.7 -71.0 38.0
v -0.2 -71.0 40.0
v 0.0 -71.0 39.2
v -0.4 -71.0 41.0
v -0.6 -71.0 43.0
v 0.0 -71.6 43.0
v 0.0 -71.0 42.5
v 0.0 -70.9 36.0
v 0.0 -70.8 40.0
v 0.0 -70.1 41.0
v 0.0 -70.1 42.0
v 0.1 -85.0 34.0
v 0.5 -85.0 35.0
v 0.9 -85.0 36.0
v 0.4 -85.0 37.0
v 0.3 -85.0 38.0
v 0.2 -84.0 33.0
v 1.0 -84.0 33.6
v 1.0 -84.3 34.0
v 1.0 -84.4 35.0
v 1.0 -84.0 35.6
v 0.8 -84.0 36.0
v 1.0 -84.0 36.6
v 1.0 -84.2 37.0
v 1.0 -84.3 38.0
v 1.0 -84.0 38.9
v 1.0 -83.0 32.8
v 1.0 -83.4 33.0
v 0.6 -83.0 36.0
v 1.0 -83.0 35.5
v 1.0 -83.8 37.0
v 0.6 -83.0 37.0
v 0.7 -83.0 38.0
v 1.0 -83.6 38.0
v 1.0 -83.0 39.0
v 1.0 -83.3 39.0
v 1.0 -83.0 39.0
v 1.0 -82.0 32.6
v 0.6 -82.0 36.0
v 1.0 -82.0 35.5
v 0.5 -82.0 37.0
v 0.4 -82.0 38.0
v 1.0 -83.0 39.0
v 0.3 -82.0 39.0
v 1.0 -81.0 31.7
v 1.0 -81.3 32.0
v 0.6 -81.0 36.0
v 1.0 -81.0 35.5
v 0.3 -81.0 37.0
v 0.0 -80.0 29.0
v 0.5 -80.0 30.0
v 1.0 -80.0 30.8
v 1.0 -80.1 31.0
v 0.5 -80.0 36.0
v 1.0 -80.0 35.3
v 1.0 -79.0 29.0
v 1.0 -79.0 29.0
v 1.0 -79.4 30.0
v 1.0 -79.0 30.6
v 0.8 -79.0 31.0
v 1.0 -79.6 31.0
v 0.8 -79.0 32.0
v 1.0 -79.3 32.0
v 0.7 -79.0 33.0
v 1.0 -79.3 33.0
v 0.7 -79.0 34.0
v 1.0 -79.4 34.0
v 0.1 -79.0 35.0
v 1.0 -79.7 35.0
v 0.0 -79.0 45.0
v 1.0 -78.0 29.7
v 0.7 -78.0 30.0
v 1.0 -78.7 31.0
v 0.4 -78.0 31.0
v 1.0 -78.8 32.0
v 1.0 -78.7 33.0
v 1.0 -78.3 34.0
v 1.0 -78.0 34.2
v 0.4 -78.0 35.0
v 0.3 -78.0 43.0
v 0.4 -78.0 44.0
v 0.4 -78.0 45.0
v 0.3 -78.0 46.0
v 0.9 -77.0 30.0
v 1.0 -77.0 29.7
v 0.4 -77.0 31.0
v 1.0 -77.8 34.0
v 1.0 -77.0 33.4
v 0.7 -77.0 35.0
v 0.2 -77.0 36.0
v 0.2 -77.0 42.0
v 0.4 -77.0 43.0
v 0.4 -77.0 44.0
v 0.5 -77.0 45.0
v 0.5 -77.0 46.0
v 0.3 -77.0 47.0
v 1.0 -76.9 30.0
v 1.0 -76.7 31.0
v 1.0 -76.5 32.0
v 1.0 -76.8 33.0
v 0.1 -76.0 36.0
v 0.0 -76.0 39.0
v 0.2 -76.0 40.0
v 0.2 -76.0 41.0
v 0.4 -76.0 45.0
v 0.5 -76.0 46.0
v 0.5 -76.0 47.0
v 0.0 -76.0 48.0
v 0.1 -75.0 32.0
v 0.4 -75.0 42.0
v 0.3 -75.0 43.0
v 0.4 -75.0 45.0
v 0.4 -75.0 46.0
v 0.3 -75.0 47.0
v 0.3 -74.0 32.0
v 0.4 -74.0 33.0
v 0.4 -74.0 34.0
v 0.4 -74.0 35.0
v 0.4 -74.0 36.0
v 0.4 -74.0 37.0
v 0.4 -74.0 38.0
v 0.4 -74.0 39.0
v 0.4 -74.0 40.0
v 0.4 -74.0 41.0
v 0.5 -74.0 42.0
v 0.5 -74.0 43.0
v 0.3 -74.0 44.0
v 0.2 -74.0 45.0
v 0.2 -73.0 33.0
v 0.4 -73.0 34.0
v 0.5 -73.0 35.0
v 0.5 -73.0 36.0
v 0.5 -73.0 37.0
v 0.4 -73.0 38.0
v 0.3 -73.0 39.0
v 0.3 -73.0 40.0
v 0.4 -73.0 41.0
v 0.5 -73.0 42.0
v 0.4 -73.0 43.0
v 0.2 -72.0 35.0
v 0.5 -72.0 36.0
v 0.3 -72.0 37.0
v 0.2 -72.0 40.0
v 0.4 -72.0 41.0
v 0.5 -72.0 42.0
v 0.2 -72.0 43.0
v 0.1 -71.0 36.0
v 0.2 -71.0 40.0
v 0.3 -71.0 41.0
v 0.3 -71.0 42.0
v 1.3 -84.0 34.0
v 1.3 -84.0 35.0
v 1.1 -84.0 37.0
v 1.2 -84.0 38.0
v 1.2 -83.0 33.0
v 1.5 -83.0 34.0
v 1.4 -83.0 35.0
v 1.0 -83.0 39.0
v 1.4 -82.0 33.0
v 1.5 -82.0 34.0
v 1.4 -82.0 35.0
v 1.2 -81.0 32.0
v 1.5 -81.0 33.0
v 1.5 -81.0 34.0
v 1.4 -81.0 35.0
v 1.1 -80.0 31.0
v 1.4 -80.0 32.0
v 1.4 -80.0 33.0
v 1.4 -80.0 34.0
v 1.2 -80.0 35.0
v 1.2 -79.0 30.0
v 1.2 -78.0 30.0
v 1.4 -78.0 31.0
v 2.0 -78.0 31.8
v 2.0 -78.2 32.0
v 2.0 -78.0 33.0
v 1.1 -78.0 34.0
v 2.0 -78.0 33.1
v 1.1 -77.0 30.0
v 1.3 -77.0 31.0
v 2.0 -77.0 31.9
v 1.4 -77.0 33.0
v 2.0 -77.9 33.0
v 2.0 -77.0 32.1
v 2.0 -76.9 32.0
v 2.2 -78.0 32.0
v 2.0 -78.0 33.0
v 2.1 -77.0 32.0
f 3 2 1
f 5 4 1
f 1 4 3
f 5 6 4
f 1 2 7
f 7 2 8
f 1 9 5
f 1 7 9
f 6 5 10
f 5 11 10
f 5 9 11
f 11 12 10
f 7 8 13
f 13 8 14
f 7 15 9
f 7 13 15
f 9 16 11
f 9 15 16
f 12 11 17
f 11 18 17
f 11 16 18
f 18 19 17
f 14 20 13
f 22 21 20
f 21 13 20
f 21 15 13
f 15 23 16
f 15 21 23
f 16 24 18
f 16 23 24
f 19 18 25
f 18 26 25
f 18 24 26
f 26 27 25
f 22 28 21
f 21 28 23
f 23 28 29
f 31 30 29
f 30 23 29
f 30 24 23
f 33 26 32
f 26 30 32
f 26 24 30
f 26 33 27
f 31 34 30
f 30 34 32
f 37 36 35
f 35 38 37
f 35 36 39
f 39 36 40
f 38 35 41
f 35 42 41
f 35 39 42
f 44 43 42
f 42 43 41
f 44 45 43
f 48 47 46
f 50 49 46
f 46 49 48
f 50 51 49
f 54 53 52
f 56 55 52
f 52 55 54
f 58 57 56
f 56 57 55
f 60 59 58
f 58 59 57
f 59 60 40
f 60 39 40
f 60 61 39
f 39 62 42
f 39 61 62
f 64 44 63
f 44 62 63
f 44 42 62
f 44 64 45
f 46 47 65
f 65 47 66
f 46 67 50
f 46 65 67
f 51 50 68
f 50 69 68
f 50 67 69
f 68 69 53
f 69 52 53
f 69 70 52
f 52 71 56
f 52 70 71
f 56 72 58
f 56 71 72
f 58 73 60
f 58 72 73
f 60 74 61
f 60 73 74
f 61 75 62
f 61 74 75
f 63 62 76
f 62 77 76
f 62 75 77
f 77 78 76
f 81 80 79
f 79 82 81
f 66 83 65
f 85 84 83
f 84 65 83
f 84 67 65
f 67 86 69
f 67 84 86
f 69 87 70
f 69 86 87
f 87 2 3
f 71 87 3
f 70 87 71
f 71 3 4
f 71 4 72
f 72 4 6
f 88 72 6
f 73 72 88
f 73 89 74
f 73 88 89
f 74 90 75
f 74 89 90
f 75 91 77
f 75 90 91
f 78 77 92
f 92 77 91
f 95 94 93
f 95 93 80
f 93 79 80
f 93 96 79
f 82 79 97
f 79 98 97
f 79 96 98
f 98 99 97
f 85 100 84
f 84 100 86
f 86 100 101
f 103 102 101
f 102 86 101
f 102 87 86
f 102 8 2
f 102 2 87
f 10 88 6
f 88 10 12
f 104 88 12
f 89 88 104
f 89 105 90
f 89 104 105
f 107 91 106
f 91 105 106
f 91 90 105
f 91 107 92
f 110 109 108
f 112 111 108
f 108 111 110
f 111 112 94
f 112 93 94
f 112 113 93
f 93 114 96
f 93 113 114
f 96 115 98
f 96 114 115
f 99 98 116
f 116 98 115
f 102 103 117
f 117 103 118
f 117 14 8
f 117 8 102
f 17 104 12
f 104 17 19
f 119 104 19
f 105 104 119
f 106 105 120
f 120 105 119
f 109 121 108
f 123 122 121
f 122 108 121
f 122 112 108
f 112 124 113
f 112 122 124
f 113 125 114
f 113 124 125
f 127 115 126
f 115 125 126
f 115 114 125
f 115 127 116
f 118 128 117
f 128 130 129
f 128 129 20
f 117 128 20
f 14 117 20
f 129 22 20
f 25 119 19
f 25 27 119
f 27 120 119
f 27 131 120
f 122 123 132
f 132 123 133
f 122 134 124
f 122 132 134
f 124 135 125
f 124 134 135
f 126 125 136
f 136 125 135
f 130 137 129
f 137 139 138
f 137 138 28
f 129 137 28
f 22 129 28
f 140 29 28
f 140 28 138
f 142 140 141
f 142 29 140
f 142 143 31
f 29 142 31
f 33 32 143
f 142 33 143
f 144 33 142
f 27 33 131
f 131 33 144
f 133 145 132
f 132 145 134
f 134 145 146
f 134 146 135
f 135 146 147
f 135 147 136
f 139 148 138
f 138 148 140
f 140 148 149
f 143 34 31
f 149 141 140
f 34 143 32
f 152 151 150
f 154 153 150
f 150 153 152
f 154 155 153
f 158 157 156
f 160 159 156
f 156 159 158
f 162 161 160
f 160 161 159
f 164 163 162
f 162 163 161
f 163 164 151
f 164 150 151
f 164 165 150
f 150 166 154
f 150 165 166
f 155 154 167
f 154 168 167
f 154 166 168
f 168 169 167
f 172 171 170
f 172 170 157
f 170 156 157
f 170 173 156
f 156 174 160
f 156 173 174
f 160 175 162
f 160 174 175
f 162 176 164
f 162 175 176
f 176 36 37
f 165 176 37
f 164 176 165
f 165 37 38
f 177 165 38
f 166 165 177
f 166 178 168
f 166 177 178
f 169 168 179
f 168 180 179
f 168 178 180
f 180 181 179
f 184 183 182
f 184 182 171
f 182 170 171
f 182 185 170
f 170 186 173
f 170 185 186
f 173 187 174
f 173 186 187
f 174 188 175
f 174 187 188
f 175 189 176
f 175 188 189
f 189 40 36
f 189 36 176
f 41 177 38
f 177 41 43
f 177 43 178
f 178 43 45
f 190 178 45
f 180 178 190
f 181 180 191
f 180 192 191
f 180 190 192
f 192 193 191
f 195 194 48
f 48 194 47
f 49 182 183
f 195 49 183
f 48 49 195
f 182 49 51
f 196 182 51
f 185 182 196
f 196 53 54
f 186 196 54
f 185 196 186
f 186 54 55
f 186 55 187
f 187 55 57
f 187 57 188
f 188 57 59
f 188 59 189
f 189 59 40
f 63 197 64
f 190 45 64
f 197 190 64
f 198 190 197
f 200 192 199
f 192 198 199
f 192 190 198
f 192 200 193
f 203 202 201
f 194 203 201
f 66 194 201
f 47 194 66
f 68 196 51
f 196 68 53
f 76 197 63
f 197 76 78
f 204 197 78
f 198 197 204
f 199 198 205
f 205 198 204
f 208 207 206
f 210 209 206
f 206 209 208
f 80 81 210
f 81 209 210
f 81 211 209
f 213 212 82
f 212 81 82
f 212 211 81
f 213 214 212
f 217 216 215
f 219 218 215
f 215 218 217
f 220 201 202
f 219 221 218
f 201 220 66
f 220 83 66
f 220 222 83
f 224 223 85
f 83 224 85
f 222 224 83
f 225 223 224
f 92 226 204
f 92 204 78
f 205 204 227
f 204 228 227
f 204 226 228
f 230 229 228
f 228 229 227
f 229 230 207
f 230 206 207
f 230 231 206
f 231 94 95
f 210 231 95
f 206 231 210
f 210 95 80
f 97 213 82
f 97 99 213
f 99 214 213
f 99 232 214
f 235 234 233
f 235 233 216
f 233 215 216
f 233 236 215
f 238 219 237
f 219 236 237
f 219 215 236
f 219 238 221
f 223 100 85
f 101 100 223
f 239 101 223
f 225 239 223
f 240 101 239
f 240 103 101
f 106 241 107
f 226 92 107
f 241 226 107
f 242 226 241
f 226 243 228
f 226 242 243
f 243 109 110
f 230 243 110
f 228 243 230
f 230 110 111
f 230 111 231
f 231 111 94
f 116 245 244
f 232 116 244
f 99 116 232
f 245 246 244
f 234 247 233
f 233 247 236
f 236 247 248
f 236 248 237
f 240 239 249
f 249 239 250
f 249 118 103
f 249 103 240
f 252 251 241
f 106 252 241
f 120 252 106
f 241 251 242
f 242 251 253
f 242 253 243
f 243 253 254
f 254 256 255
f 254 255 121
f 243 254 121
f 109 243 121
f 255 123 121
f 126 257 127
f 257 258 127
f 127 258 116
f 258 259 116
f 259 245 116
f 245 259 246
f 250 260 249
f 260 262 261
f 260 261 128
f 249 260 128
f 118 249 128
f 261 130 128
f 131 252 120
f 131 263 252
f 255 256 264
f 264 256 265
f 264 133 123
f 264 123 255
f 136 266 257
f 136 257 126
f 258 257 267
f 267 257 266
f 261 262 268
f 268 262 269
f 270 137 130
f 261 270 130
f 268 270 261
f 270 139 137
f 141 271 142
f 142 271 272
f 273 142 272
f 144 142 273
f 131 144 263
f 263 144 273
f 265 274 264
f 264 274 133
f 274 145 133
f 274 275 145
f 275 277 276
f 146 275 276
f 145 275 146
f 278 147 146
f 278 146 276
f 278 279 147
f 147 279 136
f 279 280 136
f 280 266 136
f 266 280 267
f 268 269 281
f 281 269 282
f 268 283 270
f 268 281 283
f 284 148 139
f 270 284 139
f 283 284 270
f 148 284 285
f 286 148 285
f 149 148 286
f 149 286 141
f 286 287 141
f 287 271 141
f 287 286 288
f 272 271 289
f 289 271 287
f 277 290 276
f 276 290 278
f 278 290 291
f 278 291 279
f 282 292 281
f 281 292 283
f 283 292 293
f 283 293 284
f 284 293 294
f 284 294 285
f 288 295 287
f 287 295 289
f 298 297 296
f 296 299 298
f 297 300 296
f 296 300 299
f 303 302 301
f 305 304 301
f 301 304 303
f 307 306 305
f 305 306 304
f 307 308 306
f 311 310 309
f 311 309 302
f 302 309 301
f 309 151 301
f 151 152 301
f 301 152 153
f 301 153 305
f 305 153 155
f 312 305 155
f 307 305 312
f 308 307 313
f 313 307 312
f 316 315 314
f 157 158 314
f 158 316 314
f 158 317 316
f 318 158 159
f 318 317 158
f 319 159 161
f 319 318 159
f 163 309 310
f 319 163 310
f 161 163 319
f 309 163 151
f 167 312 155
f 321 320 169
f 169 320 167
f 320 313 167
f 313 312 167
f 321 322 320
f 325 324 323
f 325 323 315
f 315 323 314
f 323 171 314
f 171 172 314
f 314 172 157
f 179 321 169
f 327 326 181
f 181 326 179
f 326 322 179
f 322 321 179
f 327 328 326
f 331 330 329
f 331 329 324
f 324 329 323
f 329 183 323
f 183 184 323
f 323 184 171
f 191 327 181
f 191 193 327
f 193 328 327
f 193 332 328
f 335 334 333
f 337 336 333
f 333 336 335
f 336 337 330
f 330 337 329
f 337 194 329
f 194 195 329
f 329 195 183
f 199 338 200
f 332 193 339
f 193 338 339
f 338 340 339
f 193 200 338
f 340 341 339
f 344 343 342
f 346 345 342
f 342 345 344
f 346 347 345
f 333 334 348
f 348 334 349
f 348 202 203
f 337 348 203
f 333 348 337
f 337 203 194
f 205 350 338
f 205 338 199
f 338 351 340
f 338 350 351
f 208 352 207
f 352 340 207
f 340 351 207
f 340 352 341
f 353 208 209
f 353 352 208
f 211 342 343
f 353 211 343
f 209 211 353
f 342 211 212
f 342 212 346
f 212 214 346
f 214 347 346
f 214 354 347
f 356 355 217
f 217 355 216
f 218 348 349
f 356 218 349
f 217 218 356
f 357 218 221
f 357 348 218
f 357 220 202
f 348 357 202
f 358 222 220
f 358 220 357
f 359 224 222
f 359 222 358
f 359 225 224
f 227 350 205
f 350 227 229
f 350 229 351
f 351 229 207
f 232 361 360
f 354 232 360
f 214 232 354
f 361 362 360
f 364 363 235
f 235 363 234
f 235 216 355
f 235 355 364
f 237 365 238
f 365 366 238
f 238 366 221
f 366 367 221
f 367 357 221
f 357 367 358
f 358 367 368
f 370 369 368
f 369 358 368
f 369 359 358
f 369 239 225
f 369 225 359
f 244 361 232
f 244 246 361
f 246 362 361
f 246 371 362
f 363 372 234
f 234 372 247
f 247 373 248
f 372 373 247
f 237 248 365
f 248 374 365
f 248 373 374
f 365 374 366
f 370 375 369
f 239 369 375
f 376 239 375
f 250 239 376
f 252 377 251
f 378 253 251
f 378 251 377
f 379 254 253
f 379 253 378
f 379 256 254
f 258 380 259
f 380 381 259
f 381 246 259
f 381 371 246
f 260 250 382
f 250 383 382
f 250 376 383
f 382 262 260
f 385 384 377
f 252 385 377
f 263 385 252
f 377 384 378
f 378 384 386
f 388 387 386
f 387 378 386
f 387 379 378
f 387 265 256
f 387 256 379
f 391 390 389
f 390 392 380
f 267 390 380
f 258 267 380
f 389 390 267
f 380 392 381
f 383 393 382
f 262 382 393
f 394 262 393
f 269 262 394
f 396 395 273
f 396 273 272
f 263 273 385
f 385 273 395
f 388 397 387
f 397 399 398
f 397 398 274
f 387 397 274
f 265 387 274
f 400 275 274
f 400 274 398
f 277 275 400
f 403 402 401
f 405 404 403
f 405 403 401
f 404 405 391
f 404 391 389
f 279 404 389
f 280 279 389
f 280 389 267
f 394 282 269
f 406 282 394
f 408 407 286
f 408 286 285
f 288 286 407
f 288 407 409
f 289 396 272
f 289 410 396
f 399 411 398
f 398 411 400
f 400 411 412
f 402 403 412
f 403 290 412
f 277 400 412
f 277 412 290
f 290 403 291
f 291 403 404
f 291 404 279
f 406 413 282
f 282 413 292
f 292 414 293
f 413 414 292
f 293 415 294
f 414 415 293
f 285 294 408
f 408 294 415
f 409 416 288
f 288 416 295
f 289 295 410
f 410 295 416
f 418 417 298
f 298 417 297
f 298 299 418
f 418 299 419
f 300 297 420
f 297 421 420
f 297 417 421
f 419 299 422
f 299 420 422
f 420 423 422
f 299 300 420
f 423 424 422
f 421 425 420
f 427 426 425
f 426 420 425
f 426 423 420
f 424 423 428
f 423 429 428
f 423 426 429
f 429 430 428
f 427 431 426
f 426 431 429
f 429 431 432
f 429 432 430
f 435 434 433
f 433 436 435
f 439 438 437
f 302 303 437
f 303 439 437
f 303 440 439
f 441 303 304
f 441 440 303
f 306 433 434
f 441 306 434
f 304 306 441
f 443 442 308
f 308 442 306
f 442 436 306
f 436 433 306
f 443 444 442
f 447 446 445
f 449 448 445
f 445 448 447
f 451 450 449
f 449 450 448
f 450 451 438
f 438 451 437
f 451 310 437
f 310 311 437
f 437 311 302
f 313 452 443
f 313 443 308
f 444 443 453
f 453 443 452
f 455 454 316
f 316 454 315
f 317 445 446
f 455 317 446
f 316 317 455
f 445 317 318
f 445 318 449
f 449 318 319
f 449 319 451
f 451 319 310
f 320 452 313
f 320 322 452
f 322 453 452
f 322 456 453
f 458 457 325
f 325 457 324
f 325 315 454
f 325 454 458
f 322 326 459
f 460 322 459
f 456 322 460
f 328 459 326
f 462 461 331
f 331 461 330
f 331 324 457
f 331 457 462
f 460 459 463
f 460 463 464
f 332 463 328
f 328 463 459
f 466 465 335
f 335 465 334
f 467 335 336
f 467 466 335
f 336 330 461
f 336 461 467
f 468 464 463
f 468 463 332
f 339 468 332
f 469 468 339
f 339 341 469
f 469 341 470
f 472 471 344
f 344 471 343
f 473 344 345
f 473 472 344
f 345 347 473
f 473 347 474
f 465 349 334
f 475 349 465
f 476 470 341
f 476 341 352
f 477 352 353
f 477 476 352
f 353 343 471
f 353 471 477
f 354 479 478
f 474 354 478
f 347 354 474
f 479 480 478
f 481 355 356
f 482 481 356
f 349 482 356
f 475 482 349
f 360 479 354
f 360 362 479
f 362 480 479
f 362 483 480
f 484 363 364
f 355 481 364
f 481 484 364
f 481 485 484
f 481 482 486
f 481 486 485
f 366 487 367
f 367 487 488
f 489 367 488
f 368 367 489
f 370 368 489
f 370 489 490
f 371 483 362
f 371 491 483
f 484 372 363
f 372 484 373
f 373 484 485
f 486 492 485
f 492 373 485
f 492 374 373
f 366 374 487
f 374 493 487
f 374 492 493
f 487 493 488
f 490 494 370
f 370 494 375
f 376 375 494
f 376 494 495
f 381 491 371
f 381 496 491
f 495 383 376
f 497 383 495
f 385 498 384
f 499 386 384
f 499 384 498
f 499 388 386
f 391 500 390
f 390 500 501
f 502 390 501
f 392 390 502
f 381 392 496
f 496 392 502
f 497 503 383
f 383 503 393
f 394 393 503
f 394 503 504
f 396 505 395
f 505 506 395
f 395 506 385
f 506 507 385
f 507 498 385
f 498 507 499
f 499 507 508
f 499 508 388
f 508 397 388
f 508 509 397
f 399 397 509
f 399 509 510
f 512 511 401
f 512 401 402
f 401 513 405
f 511 513 401
f 391 405 500
f 405 514 500
f 405 513 514
f 500 514 501
f 516 406 515
f 406 504 515
f 406 394 504
f 518 517 516
f 518 516 515
f 520 519 517
f 520 517 518
f 521 407 408
f 522 519 520
f 521 409 407
f 410 523 505
f 410 505 396
f 506 505 524
f 524 505 523
f 510 525 399
f 399 525 411
f 525 527 526
f 412 525 526
f 411 525 412
f 526 528 412
f 528 402 412
f 528 512 402
f 516 413 406
f 413 516 414
f 414 516 517
f 414 517 415
f 415 517 519
f 529 519 522
f 519 529 415
f 530 415 529
f 415 530 408
f 521 408 530
f 531 416 409
f 521 531 409
f 530 531 521
f 523 410 416
f 531 523 416
f 532 523 531
f 524 523 533
f 533 523 532
f 526 527 534
f 534 527 535
f 536 417 418
f 526 537 528
f 537 526 534
f 419 536 418
f 529 538 530
f 530 538 531
f 531 538 539
f 531 539 532
f 532 539 540
f 532 540 533
f 535 541 534
f 541 537 534
f 421 417 542
f 536 542 417
f 422 543 419
f 543 536 419
f 543 542 536
f 424 543 422
f 542 425 421
f 425 542 427
f 542 544 427
f 542 543 544
f 428 545 424
f 545 543 424
f 545 544 543
f 430 545 428
f 544 431 427
f 431 544 432
f 432 544 545
f 432 545 430
f 548 547 546
f 434 435 546
f 435 548 546
f 435 549 548
f 435 436 549
f 549 436 550
f 553 552 551
f 438 439 551
f 439 553 551
f 439 554 553
f 555 439 440
f 555 554 439
f 441 546 547
f 555 441 547
f 440 441 555
f 546 441 434
f 556 550 436
f 556 436 442
f 442 444 556
f 556 444 557
f 559 558 447
f 447 558 446
f 560 447 448
f 560 559 447
f 450 551 552
f 560 450 552
f 448 450 560
f 551 450 438
f 453 562 561
f 557 453 561
f 444 453 557
f 562 563 561
f 565 564 455
f 455 564 454
f 455 446 558
f 455 558 565
f 567 566 562
f 453 567 562
f 456 567 453
f 562 566 563
f 569 568 458
f 458 568 457
f 458 454 564
f 458 564 569
f 460 567 456
f 460 570 567
f 572 571 462
f 462 571 461
f 462 457 568
f 462 568 572
f 575 574 573
f 577 576 573
f 577 573 574
f 580 579 578
f 580 578 576
f 580 576 577
f 580 577 570
f 580 570 460
f 580 460 464
f 580 464 581
f 580 581 579
f 581 582 579
f 583 465 466
f 467 584 466
f 466 584 583
f 461 571 585
f 584 461 585
f 586 584 585
f 467 461 584
f 587 586 585
f 575 573 588
f 575 588 589
f 590 573 576
f 588 573 590
f 581 464 468
f 590 578 591
f 578 590 576
f 468 469 581
f 469 592 581
f 592 582 581
f 469 593 592
f 595 593 594
f 593 469 594
f 470 596 594
f 470 594 469
f 596 597 594
f 598 471 472
f 473 599 472
f 472 599 598
f 474 599 473
f 600 475 583
f 583 475 465
f 601 583 584
f 600 583 601
f 602 584 586
f 601 584 602
f 586 587 603
f 604 586 603
f 602 586 604
f 605 604 603
f 608 607 606
f 610 609 606
f 610 606 607
f 611 609 610
f 612 589 588
f 612 588 590
f 612 590 613
f 613 590 591
f 614 592 593
f 470 476 596
f 593 595 614
f 615 597 596
f 476 615 596
f 477 615 476
f 477 471 598
f 616 477 598
f 615 477 616
f 616 598 599
f 616 599 617
f 617 599 474
f 478 617 474
f 618 617 478
f 478 480 618
f 618 480 619
f 620 482 600
f 600 482 475
f 621 600 601
f 620 600 621
f 622 601 602
f 621 601 622
f 604 624 623
f 622 604 623
f 602 604 622
f 624 604 605
f 625 608 606
f 627 626 625
f 606 627 625
f 609 627 606
f 609 611 628
f 629 609 628
f 627 609 629
f 631 630 629
f 631 629 628
f 632 630 631
f 483 619 480
f 483 633 619
f 634 486 620
f 620 486 482
f 635 620 621
f 634 620 635
f 488 635 489
f 635 622 489
f 635 621 622
f 490 489 622
f 623 490 622
f 636 490 623
f 637 626 627
f 637 627 629
f 637 629 638
f 638 629 630
f 638 630 639
f 639 630 632
f 491 633 483
f 491 640 633
f 634 492 486
f 492 634 493
f 493 634 635
f 493 635 488
f 636 641 490
f 490 641 494
f 495 494 641
f 495 641 642
f 496 640 491
f 496 643 640
f 642 497 495
f 644 497 642
f 647 646 645
f 502 501 645
f 646 502 645
f 648 502 646
f 496 502 643
f 643 502 648
f 644 649 497
f 497 649 503
f 651 650 504
f 503 651 504
f 649 651 503
f 652 650 651
f 654 653 507
f 654 507 506
f 507 655 508
f 653 655 507
f 508 656 509
f 655 656 508
f 510 509 656
f 510 656 657
f 659 658 511
f 659 511 512
f 511 660 513
f 658 660 511
f 645 514 647
f 514 660 647
f 514 513 660
f 514 645 501
f 650 515 504
f 652 661 650
f 661 515 650
f 661 518 515
f 661 663 662
f 520 661 662
f 518 661 520
f 662 522 520
f 524 654 506
f 524 664 654
f 525 510 665
f 510 666 665
f 510 657 666
f 665 527 525
f 528 659 512
f 528 667 659
f 663 668 662
f 522 662 668
f 669 522 668
f 529 522 669
f 533 664 524
f 533 670 664
f 665 666 671
f 671 666 672
f 671 535 527
f 671 527 665
f 537 667 528
f 537 673 667
f 669 674 529
f 529 674 538
f 538 675 539
f 674 675 538
f 539 676 540
f 675 676 539
f 533 540 670
f 670 540 676
f 672 677 671
f 671 677 535
f 677 541 535
f 677 678 541
f 537 541 673
f 673 541 678
f 681 680 679
f 683 682 679
f 679 682 681
f 685 684 683
f 683 684 682
f 687 686 685
f 685 686 684
f 547 548 687
f 548 686 687
f 548 688 686
f 690 688 689
f 688 549 689
f 688 548 549
f 550 689 549
f 693 692 691
f 693 691 680
f 691 679 680
f 691 694 679
f 694 552 553
f 683 694 553
f 679 694 683
f 683 553 554
f 683 554 685
f 685 554 555
f 685 555 687
f 687 555 547
f 690 689 695
f 690 695 696
f 556 697 550
f 697 689 550
f 697 695 689
f 557 697 556
f 691 692 559
f 692 558 559
f 692 698 558
f 691 559 560
f 691 560 694
f 694 560 552
f 699 696 695
f 701 700 699
f 695 701 699
f 697 701 695
f 561 702 557
f 702 697 557
f 702 701 697
f 563 702 561
f 703 564 565
f 704 703 565
f 558 704 565
f 698 704 558
f 700 701 705
f 700 705 706
f 567 705 566
f 705 702 566
f 705 701 702
f 566 702 563
f 707 568 569
f 708 707 569
f 708 569 564
f 709 708 564
f 703 709 564
f 709 703 704
f 712 711 710
f 714 713 710
f 714 710 711
f 713 714 706
f 705 713 706
f 715 713 705
f 570 715 567
f 567 715 705
f 718 717 716
f 571 572 716
f 572 718 716
f 572 719 718
f 572 568 707
f 720 572 707
f 719 572 720
f 720 707 708
f 723 722 721
f 721 722 712
f 710 721 712
f 724 721 710
f 575 724 574
f 724 713 574
f 724 710 713
f 574 713 577
f 577 713 715
f 577 715 570
f 725 578 579
f 582 725 579
f 716 717 726
f 726 717 727
f 728 585 571
f 716 728 571
f 726 728 716
f 728 587 585
f 731 730 729
f 729 730 723
f 721 729 723
f 732 729 721
f 733 721 724
f 732 721 733
f 589 733 575
f 575 733 724
f 734 591 725
f 725 591 578
f 592 734 582
f 582 734 725
f 735 595 594
f 597 735 594
f 738 737 736
f 736 739 738
f 727 740 726
f 726 740 728
f 728 740 741
f 728 741 587
f 741 603 587
f 741 742 603
f 605 603 742
f 605 742 743
f 731 729 607
f 608 731 607
f 744 731 608
f 607 729 610
f 610 729 732
f 610 732 611
f 732 745 611
f 732 733 745
f 612 746 589
f 746 733 589
f 746 745 733
f 613 747 612
f 612 747 746
f 591 734 613
f 734 747 613
f 734 748 747
f 614 749 592
f 749 734 592
f 749 748 734
f 750 749 614
f 750 614 595
f 751 750 595
f 735 751 595
f 751 735 597
f 615 751 597
f 752 751 615
f 616 736 737
f 752 616 737
f 615 616 752
f 753 739 736
f 616 753 736
f 617 753 616
f 755 753 754
f 753 618 754
f 753 617 618
f 619 754 618
f 756 623 624
f 757 756 624
f 605 757 624
f 743 757 605
f 760 759 758
f 761 758 759
f 762 744 608
f 762 608 625
f 625 626 762
f 762 626 763
f 745 628 611
f 628 745 631
f 631 745 746
f 631 746 632
f 746 764 632
f 746 747 764
f 765 747 748
f 764 747 765
f 749 767 766
f 765 749 766
f 748 749 765
f 767 749 750
f 768 755 754
f 754 619 768
f 619 769 768
f 619 633 769
f 770 636 756
f 756 636 623
f 756 757 771
f 772 756 771
f 770 756 772
f 774 773 772
f 774 772 771
f 773 774 760
f 758 773 760
f 775 773 758
f 758 761 776
f 777 758 776
f 775 758 777
f 778 777 776
f 626 637 779
f 780 626 779
f 763 626 780
f 638 781 637
f 637 781 779
f 781 638 782
f 638 783 782
f 638 639 783
f 639 632 764
f 784 639 764
f 783 639 784
f 784 764 765
f 784 765 785
f 788 787 786
f 766 785 765
f 790 789 787
f 790 787 788
f 792 791 789
f 792 789 790
f 793 791 792
f 640 795 794
f 769 640 794
f 633 640 769
f 795 796 794
f 770 641 636
f 770 772 797
f 642 770 797
f 798 642 797
f 770 642 641
f 800 799 797
f 772 800 797
f 773 800 772
f 801 773 775
f 800 773 801
f 802 775 777
f 801 775 802
f 777 778 803
f 804 777 803
f 802 777 804
f 804 803 780
f 779 804 780
f 805 804 779
f 806 779 781
f 805 779 806
f 781 782 807
f 808 781 807
f 806 781 808
f 810 809 808
f 810 808 807
f 812 811 809
f 812 809 810
f 786 787 813
f 812 814 811
f 813 787 789
f 813 789 815
f 817 816 815
f 789 817 815
f 791 817 789
f 791 793 818
f 791 818 817
f 820 819 795
f 640 820 795
f 643 820 640
f 795 819 796
f 798 644 642
f 821 644 798
f 822 799 800
f 822 800 801
f 822 801 823
f 823 801 802
f 823 802 824
f 824 802 804
f 824 804 825
f 825 804 805
f 825 805 826
f 826 805 806
f 826 806 827
f 827 806 808
f 827 808 828
f 828 808 809
f 828 809 829
f 829 809 811
f 829 811 830
f 830 811 814
f 831 816 817
f 831 817 818
f 833 832 646
f 833 646 647
f 646 834 648
f 832 834 646
f 643 648 820
f 820 648 834
f 821 835 644
f 644 835 649
f 835 837 836
f 651 835 836
f 649 835 651
f 836 652 651
f 654 838 653
f 839 655 653
f 839 653 838
f 840 656 655
f 840 655 839
f 840 657 656
f 842 841 658
f 842 658 659
f 658 843 660
f 841 843 658
f 647 660 833
f 833 660 843
f 837 844 836
f 836 844 652
f 844 661 652
f 844 845 661
f 663 661 845
f 663 845 846
f 849 848 847
f 848 850 838
f 664 848 838
f 654 664 838
f 847 848 664
f 852 851 850
f 851 838 850
f 851 839 838
f 839 853 840
f 839 851 853
f 853 666 657
f 853 657 840
f 667 842 659
f 667 854 842
f 846 855 663
f 663 855 668
f 669 668 855
f 669 855 856
f 859 858 857
f 857 858 849
f 847 857 849
f 860 857 847
f 670 860 664
f 664 860 847
f 851 852 861
f 861 852 862
f 851 863 853
f 851 861 863
f 863 672 666
f 863 666 853
f 866 865 864
f 865 854 864
f 854 673 864
f 854 667 673
f 856 867 669
f 669 867 674
f 857 675 859
f 675 867 859
f 675 674 867
f 675 857 676
f 676 857 860
f 676 860 670
f 862 868 861
f 861 868 863
f 863 868 869
f 863 869 672
f 869 677 672
f 869 870 677
f 864 678 866
f 678 870 866
f 678 677 870
f 678 864 673
f 871 680 681
f 682 872 681
f 681 872 871
f 684 873 682
f 682 873 872
f 686 874 684
f 684 874 873
f 688 875 686
f 686 875 874
f 690 875 688
f 876 692 693
f 877 876 693
f 877 693 680
f 878 877 680
f 871 878 680
f 878 871 872
f 878 872 879
f 881 880 879
f 872 881 879
f 873 881 872
f 874 883 882
f 881 874 882
f 873 874 881
f 883 874 875
f 883 875 884
f 875 690 884
f 690 885 884
f 690 696 885
f 887 886 876
f 886 692 876
f 886 698 692
f 887 876 877
f 880 881 888
f 880 888 889
f 881 882 890
f 891 881 890
f 888 881 891
f 893 892 891
f 893 891 890
f 895 894 699
f 892 699 894
f 699 892 696
f 893 696 892
f 696 893 885
f 699 700 895
f 895 700 896
f 886 704 698
f 897 704 886
f 889 888 898
f 889 898 899
f 900 888 891
f 898 888 900
f 901 891 892
f 900 891 901
f 892 894 902
f 903 892 902
f 901 892 903
f 902 896 903
f 896 706 903
f 896 700 706
f 905 904 709
f 709 904 708
f 709 704 897
f 709 897 905
f 899 898 906
f 899 906 907
f 908 898 900
f 906 898 908
f 712 908 711
f 908 901 711
f 908 900 901
f 711 901 714
f 714 901 903
f 714 903 706
f 909 717 718
f 719 910 718
f 718 910 909
f 910 719 911
f 719 912 911
f 719 720 912
f 720 708 904
f 720 904 912
f 907 906 913
f 907 913 914
f 723 913 722
f 913 908 722
f 913 906 908
f 722 908 712
f 915 727 909
f 909 727 717
f 910 917 916
f 915 910 916
f 909 910 915
f 910 918 917
f 910 919 918
f 910 911 920
f 919 910 920
f 922 921 919
f 922 919 920
f 924 923 921
f 924 921 922
f 926 925 923
f 926 923 924
f 928 927 925
f 928 925 926
f 927 928 914
f 927 914 913
f 731 927 913
f 730 731 913
f 730 913 723
f 929 737 738
f 739 929 738
f 915 740 727
f 741 740 915
f 930 741 915
f 916 930 915
f 931 741 930
f 919 932 918
f 931 742 741
f 742 931 933
f 743 742 933
f 934 932 921
f 919 921 932
f 934 921 923
f 934 923 935
f 935 923 925
f 935 925 936
f 938 937 936
f 925 938 936
f 927 938 925
f 744 938 731
f 731 938 927
f 939 750 751
f 752 940 751
f 751 940 939
f 737 929 752
f 929 940 752
f 929 941 940
f 753 942 739
f 942 929 739
f 942 941 929
f 755 942 753
f 931 930 943
f 943 930 944
f 931 945 933
f 931 943 945
f 945 757 743
f 945 743 933
f 947 946 759
f 947 759 760
f 938 948 761
f 946 938 761
f 759 946 761
f 937 938 946
f 762 949 744
f 949 938 744
f 949 948 938
f 763 949 762
f 950 766 767
f 750 939 767
f 939 950 767
f 939 951 950
f 952 939 940
f 951 939 952
f 953 940 941
f 952 940 953
f 954 941 942
f 953 941 954
f 768 955 755
f 955 942 755
f 955 954 942
f 769 955 768
f 944 956 943
f 943 956 945
f 945 956 957
f 945 957 757
f 957 771 757
f 957 958 771
f 771 959 774
f 958 959 771
f 760 774 947
f 947 774 959
f 948 776 761
f 776 948 778
f 948 960 778
f 948 949 960
f 780 960 763
f 763 960 949
f 961 782 783
f 784 962 783
f 783 962 961
f 785 963 784
f 784 963 962
f 785 766 963
f 766 950 963
f 788 786 963
f 788 963 950
f 788 950 790
f 790 950 951
f 790 951 792
f 792 951 952
f 792 952 793
f 952 964 793
f 952 953 964
f 965 953 954
f 964 953 965
f 966 954 955
f 965 954 966
f 794 967 769
f 967 955 769
f 967 966 955
f 796 967 794
f 968 798 797
f 799 968 797
f 960 803 778
f 803 960 780
f 961 807 782
f 807 961 810
f 810 961 962
f 810 962 812
f 812 962 963
f 814 812 969
f 812 963 969
f 786 813 969
f 786 969 963
f 815 970 813
f 813 970 969
f 816 970 815
f 971 818 964
f 964 818 793
f 972 964 965
f 971 964 972
f 973 965 966
f 972 965 973
f 820 973 819
f 973 967 819
f 973 966 967
f 819 967 796
f 974 821 968
f 968 821 798
f 822 975 799
f 975 968 799
f 975 974 968
f 823 976 822
f 822 976 975
f 824 977 823
f 823 977 976
f 825 978 824
f 824 978 977
f 826 979 825
f 825 979 978
f 827 980 826
f 826 980 979
f 828 981 827
f 827 981 980
f 829 982 828
f 828 982 981
f 830 983 829
f 829 983 982
f 814 969 830
f 969 983 830
f 969 984 983
f 985 969 970
f 984 969 985
f 831 986 816
f 986 970 816
f 986 985 970
f 818 971 831
f 971 986 831
f 971 987 986
f 833 987 832
f 987 972 832
f 987 971 972
f 832 972 834
f 834 972 973
f 834 973 820
f 974 835 821
f 835 974 837
f 974 988 837
f 974 975 988
f 989 975 976
f 988 975 989
f 990 976 977
f 989 976 990
f 991 977 978
f 990 977 991
f 992 978 979
f 991 978 992
f 993 979 980
f 992 979 993
f 994 980 981
f 993 980 994
f 995 981 982
f 994 981 995
f 996 982 983
f 995 982 996
f 997 983 984
f 996 983 997
f 998 984 985
f 997 984 998
f 842 998 841
f 998 986 841
f 998 985 986
f 841 986 843
f 843 986 987
f 843 987 833
f 988 844 837
f 844 988 845
f 845 988 989
f 845 989 846
f 989 999 846
f 989 990 999
f 1000 990 991
f 999 990 1000
f 1001 991 992
f 1000 991 1001
f 849 1001 848
f 1001 993 848
f 1001 992 993
f 848 993 850
f 850 993 994
f 850 994 852
f 994 1002 852
f 994 995 1002
f 1003 995 996
f 1002 995 1003
f 1004 996 997
f 1003 996 1004
f 1005 997 998
f 1004 997 1005
f 854 1005 842
f 842 1005 998
f 999 855 846
f 855 999 856
f 999 1006 856
f 999 1000 1006
f 859 1006 858
f 1006 1001 858
f 1006 1000 1001
f 858 1001 849
f 1007 862 1002
f 1002 862 852
f 1008 1002 1003
f 1007 1002 1008
f 1009 1003 1004
f 1008 1003 1009
f 866 1009 865
f 1009 1005 865
f 1009 1004 1005
f 865 1005 854
f 1006 867 856
f 867 1006 859
f 1007 868 862
f 868 1007 869
f 869 1007 1008
f 869 1008 870
f 870 1008 1009
f 870 1009 866
f 1010 877 878
f 879 1011 878
f 878 1011 1010
f 880 1011 879
f 1012 882 883
f 884 1013 883
f 883 1013 1012
f 885 1013 884
f 1014 886 887
f 877 1010 887
f 1010 1014 887
f 1010 1015 1014
f 1016 1010 1011
f 1015 1010 1016
f 889 1016 880
f 880 1016 1011
f 1012 890 882
f 890 1012 893
f 893 1012 1013
f 893 1013 885
f 1017 894 895
f 896 1017 895
f 1018 897 1014
f 1014 897 886
f 1019 1014 1015
f 1018 1014 1019
f 1020 1015 1016
f 1019 1015 1020
f 899 1020 889
f 889 1020 1016
f 1017 902 894
f 902 1017 896
f 1021 904 905
f 897 1018 905
f 1018 1021 905
f 1018 1022 1021
f 1023 1018 1019
f 1022 1018 1023
f 1024 1019 1020
f 1023 1019 1024
f 907 1024 899
f 899 1024 1020
f 1025 911 912
f 904 1021 912
f 1021 1025 912
f 1021 1026 1025
f 1027 1021 1022
f 1026 1021 1027
f 1028 1022 1023
f 1027 1022 1028
f 1029 1023 1024
f 1028 1023 1029
f 914 1029 907
f 907 1029 1024
f 1030 916 917
f 911 1025 920
f 1030 917 918
f 920 1025 922
f 922 1025 1026
f 922 1026 924
f 924 1026 1027
f 924 1027 926
f 926 1027 1028
f 926 1028 928
f 928 1028 1029
f 928 1029 914
f 1031 930 1030
f 1030 930 916
f 932 1032 918
f 1032 1030 918
f 1032 1031 1030
f 1032 932 1033
f 932 1034 1033
f 932 934 1034
f 1035 934 935
f 1035 1034 934
f 1037 1035 1036
f 1035 936 1036
f 1035 935 936
f 937 1036 936
f 1038 944 1031
f 1031 944 930
f 1039 1031 1032
f 1038 1031 1039
f 1032 1033 1040
f 1032 1040 1039
f 1043 1042 1041
f 1041 1042 1037
f 1041 1037 1036
f 947 1041 1036
f 946 947 1036
f 946 1036 937
f 1038 956 944
f 956 1038 957
f 957 1038 1039
f 1040 1044 1039
f 1044 957 1039
f 1044 958 957
f 1041 959 1043
f 959 1044 1043
f 959 958 1044
f 959 1041 947
f 1045 1033 1034
f 1035 1046 1034
f 1034 1046 1045
f 1037 1046 1035
f 1047 1040 1045
f 1045 1040 1033
f 1043 1047 1042
f 1047 1046 1042
f 1047 1045 1046
f 1042 1046 1037
f 1047 1044 1040
f 1044 1047 1043
