v 15.9 -61.0 -10.0
v 16.0 -61.0 -10.2
v 16.0 -61.1 -10.0
v 16.0 -61.0 -9.9
v 15.8 -60.0 -11.0
v 16.0 -60.0 -11.3
v 16.0 -60.4 -11.0
v 15.8 -60.0 -10.0
v 16.0 -60.0 -9.8
v 16.0 -59.0 -11.0
v 16.0 -59.0 -11.0
v 16.0 -59.0 -11.0
v 16.0 -59.8 -10.0
v 16.0 -59.0 -11.0
v 16.7 -62.0 -11.0
v 17.0 -62.0 -11.4
v 17.0 -62.3 -11.0
v 17.0 -62.5 -10.0
v 16.5 -62.0 -10.0
v 17.0 -62.3 -9.0
v 16.7 -62.0 -9.0
v 17.0 -62.0 -8.7
v 16.7 -61.0 -12.0
v 17.0 -61.0 -12.2
v 17.0 -61.4 -12.0
v 16.3 -61.0 -11.0
v 16.7 -61.0 -9.0
v 17.0 -61.0 -8.7
v 16.6 -60.0 -12.0
v 17.0 -60.0 -12.4
v 17.0 -60.6 -9.0
v 17.0 -60.0 -9.5
v 16.6 -59.0 -12.0
v 17.0 -59.0 -12.3
v 17.0 -59.5 -10.0
v 17.0 -59.0 -10.7
v 17.0 -58.1 -12.0
v 17.0 -58.7 -11.0
v 18.0 -64.0 -9.0
v 18.0 -64.0 -9.0
v 18.0 -64.0 -9.0
v 18.0 -64.0 -9.0
v 17.7 -63.0 -11.0
v 18.0 -63.0 -11.4
v 18.0 -63.3 -11.0
v 18.0 -63.5 -10.0
v 17.5 -63.0 -10.0
v 17.5 -63.0 -9.0
v 18.0 -63.8 -8.0
v 17.7 -63.0 -8.0
v 18.0 -63.0 -7.7
v 17.5 -62.0 -12.0
v 18.0 -62.0 -12.4
v 18.0 -62.5 -12.0
v 17.6 -62.0 -8.0
v 18.0 -62.0 -7.7
v 18.0 -61.0 -12.5
v 17.9 -61.0 -8.0
v 18.0 -61.0 -7.9
v 18.0 -60.0 -12.5
v 18.0 -60.3 -9.0
v 18.0 -60.0 -9.4
v 18.0 -60.9 -8.0
v 18.0 -59.0 -12.2
v 17.5 -59.0 -11.0
v 18.0 -59.3 -11.0
v 18.0 -59.0 -11.6
v 18.0 -59.6 -10.0
v 18.0 -58.7 -12.0
v 18.0 -64.0 -9.0
v 18.8 -63.0 -13.0
v 19.0 -63.0 -13.2
v 19.0 -63.2 -13.0
v 19.0 -63.4 -12.0
v 18.4 -63.0 -12.0
v 19.0 -63.6 -11.0
v 19.0 -63.6 -10.0
v 19.0 -63.5 -9.0
v 18.6 -63.0 -8.0
v 19.0 -63.0 -8.2
v 18.7 -62.0 -13.0
v 19.0 -62.0 -13.3
v 19.0 -62.7 -8.0
v 19.0 -62.0 -7.5
v 19.0 -61.5 -13.0
v 19.0 -61.0 -12.7
v 18.3 -61.0 -8.0
v 19.0 -61.3 -8.0
v 19.0 -61.0 -8.2
v 19.0 -60.0 -12.6
v 18.5 -60.0 -9.0
v 19.0 -60.0 -8.7
v 19.0 -59.0 -12.3
v 19.0 -59.3 -11.0
v 19.0 -59.0 -11.5
v 19.0 -59.5 -10.0
v 19.0 -59.7 -9.0
v 19.0 -58.7 -12.0
v 19.7 -64.0 -11.0
v 20.0 -64.0 -11.3
v 20.0 -64.2 -11.0
v 20.0 -64.1 -10.0
v 19.9 -64.0 -10.0
v 20.0 -64.0 -9.9
v 20.0 -63.0 -13.4
v 20.0 -63.4 -13.0
v 20.0 -63.6 -12.0
v 20.0 -63.3 -9.0
v 20.0 -63.0 -8.6
v 20.0 -62.0 -13.6
v 20.0 -62.5 -8.0
v 20.0 -62.0 -7.0
v 20.0 -62.0 -7.0
v 20.0 -62.0 -7.0
v 19.4 -61.0 -13.0
v 20.0 -61.0 -13.5
v 19.3 -61.0 -8.0
v 20.0 -61.0 -7.6
v 20.0 -62.0 -7.0
v 19.5 -60.0 -13.0
v 20.0 -60.0 -13.5
v 20.0 -60.5 -8.0
v 20.0 -60.0 -8.4
v 19.5 -59.0 -13.0
v 20.0 -59.0 -13.5
v 19.4 -59.0 -11.0
v 20.0 -59.0 -10.5
v 20.0 -59.3 -10.0
v 20.0 -59.6 -9.0
v 19.9 -58.0 -13.0
v 20.0 -58.0 -13.2
v 20.0 -58.3 -12.0
v 20.0 -58.0 -12.7
v 20.0 -58.6 -11.0
v 20.0 -57.9 -13.0
v 20.0 -50.0 -15.0
v 20.0 -50.0 -15.0
v 20.0 -50.0 -15.0
v 20.0 -50.0 -15.0
v 19.8 -49.0 -15.0
v 20.0 -49.0 -15.2
v 20.0 -49.0 -14.8
v 19.8 -48.0 -15.0
v 20.0 -48.0 -15.2
v 20.0 -48.0 -14.8
v 19.8 -47.0 -15.0
v 20.0 -47.0 -15.3
v 20.0 -47.0 -14.8
v 20.0 -46.0 -15.0
v 20.0 -46.0 -15.0
v 20.0 -46.0 -15.0
v 20.0 -46.0 -15.0
v 21.0 -64.0 -11.0
v 21.0 -64.0 -11.0
v 20.1 -64.0 -10.0
v 21.0 -64.0 -11.0
v 21.0 -63.0 -13.5
v 21.0 -63.4 -13.0
v 21.0 -63.5 -12.0
v 20.7 -63.0 -10.0
v 21.0 -63.0 -10.4
v 20.3 -63.0 -9.0
v 20.6 -62.0 -14.0
v 21.0 -62.0 -14.4
v 21.0 -62.5 -14.0
v 21.0 -62.7 -10.0
v 21.0 -62.4 -9.0
v 20.8 -62.0 -8.0
v 21.0 -62.0 -8.3
v 21.0 -62.0 -7.3
v 21.0 -62.1 -7.0
v 21.0 -62.0 -6.9
v 20.5 -61.0 -14.0
v 21.0 -61.0 -14.5
v 21.0 -61.8 -8.0
v 21.0 -61.0 -7.4
v 21.0 -61.9 -7.0
v 20.5 -60.0 -14.0
v 21.0 -60.0 -14.5
v 20.6 -60.0 -8.0
v 21.0 -60.0 -7.7
v 20.5 -59.0 -14.0
v 21.0 -59.0 -14.5
v 20.5 -59.0 -10.0
v 21.0 -59.0 -9.4
v 21.0 -59.3 -9.0
v 21.0 -59.7 -8.0
v 20.5 -58.0 -14.0
v 21.0 -58.0 -14.5
v 20.4 -58.0 -12.0
v 20.7 -58.0 -11.0
v 21.0 -58.0 -10.6
v 21.0 -58.6 -10.0
v 20.7 -57.0 -14.0
v 21.0 -57.0 -14.3
v 20.7 -57.0 -13.0
v 21.0 -57.0 -12.6
v 21.0 -57.5 -12.0
v 21.0 -57.6 -11.0
v 21.0 -56.6 -14.0
v 21.0 -56.6 -13.0
v 20.9 -55.0 -14.0
v 21.0 -55.0 -14.2
v 21.0 -55.2 -14.0
v 21.0 -55.0 -13.8
v 20.8 -54.0 -15.0
v 21.0 -54.0 -15.3
v 21.0 -54.4 -15.0
v 20.8 -54.0 -14.0
v 21.0 -54.0 -13.7
v 20.8 -53.0 -15.0
v 21.0 -53.0 -15.3
v 21.0 -53.0 -14.6
v 21.0 -53.6 -14.0
v 20.7 -52.0 -15.0
v 21.0 -52.0 -15.4
v 21.0 -52.4 -14.0
v 20.8 -52.0 -14.0
v 21.0 -52.0 -13.7
v 20.5 -51.0 -15.0
v 21.0 -51.0 -15.5
v 20.5 -51.0 -14.0
v 21.0 -51.1 -13.0
v 20.9 -51.0 -13.0
v 21.0 -51.0 -12.9
v 21.0 -50.0 -15.7
v 20.6 -50.0 -14.0
v 21.0 -50.0 -13.5
v 21.0 -50.8 -13.0
v 20.6 -49.0 -16.0
v 21.0 -49.0 -16.3
v 21.0 -49.5 -16.0
v 21.0 -49.4 -14.0
v 21.0 -49.0 -14.3
v 20.5 -48.0 -16.0
v 21.0 -48.0 -16.6
v 21.0 -48.0 -14.5
v 20.8 -47.0 -17.0
v 21.0 -47.0 -17.2
v 21.0 -47.4 -17.0
v 20.4 -47.0 -16.0
v 21.0 -47.0 -14.5
v 20.6 -46.0 -17.0
v 21.0 -46.0 -17.4
v 20.4 -46.0 -16.0
v 21.0 -46.0 -14.5
v 20.6 -45.0 -17.0
v 21.0 -45.0 -17.6
v 20.5 -45.0 -16.0
v 20.6 -45.0 -15.0
v 21.0 -45.0 -14.6
v 20.7 -44.0 -18.0
v 21.0 -44.0 -18.4
v 21.0 -44.5 -18.0
v 20.5 -44.0 -17.0
v 20.5 -44.0 -16.0
v 20.7 -44.0 -15.0
v 21.0 -44.0 -14.6
v 20.6 -43.0 -18.0
v 21.0 -43.0 -18.5
v 20.5 -43.0 -17.0
v 20.7 -43.0 -16.0
v 21.0 -43.0 -15.5
v 21.0 -43.6 -15.0
v 20.8 -42.0 -18.0
v 21.0 -42.0 -18.4
v 20.7 -42.0 -17.0
v 21.0 -42.0 -16.6
v 21.0 -42.6 -16.0
v 21.0 -41.7 -18.0
v 21.0 -41.7 -17.0
v 21.8 -65.0 -7.0
v 22.0 -65.0 -7.8
v 22.0 -65.2 -7.0
v 22.0 -65.0 -6.7
v 21.0 -64.0 -11.0
v 21.6 -64.0 -7.0
v 22.0 -64.0 -7.4
v 22.0 -64.5 -6.0
v 21.6 -64.0 -6.0
v 22.0 -64.1 -5.0
v 21.9 -64.0 -5.0
v 22.0 -64.0 -4.9
v 21.5 -63.0 -14.0
v 22.0 -63.0 -14.4
v 22.0 -63.3 -14.0
v 22.0 -63.4 -13.0
v 21.7 -63.0 -12.0
v 22.0 -63.0 -12.4
v 21.5 -63.0 -11.0
v 21.6 -63.0 -7.0
v 22.0 -63.0 -7.4
v 21.7 -63.0 -6.0
v 22.0 -63.0 -5.5
v 22.0 -63.9 -5.0
v 21.6 -62.0 -15.0
v 22.0 -62.0 -15.4
v 22.0 -62.4 -15.0
v 22.0 -62.8 -12.0
v 22.0 -62.5 -11.0
v 21.7 -62.0 -10.0
v 22.0 -62.0 -10.3
v 21.4 -62.0 -9.0
v 22.0 -62.0 -7.5
v 22.0 -62.4 -6.0
v 22.0 -62.0 -6.4
v 21.5 -61.0 -15.0
v 22.0 -61.0 -15.5
v 22.0 -61.8 -10.0
v 22.0 -61.6 -9.0
v 22.0 -61.6 -8.0
v 21.5 -61.0 -7.0
v 22.0 -61.0 -6.6
v 21.5 -60.0 -15.0
v 22.0 -60.0 -15.5
v 22.0 -60.5 -7.0
v 22.0 -60.0 -7.3
v 21.5 -59.0 -15.0
v 22.0 -59.0 -15.5
v 21.4 -59.0 -9.0
v 21.7 -59.0 -8.0
v 22.0 -59.0 -7.7
v 21.5 -58.0 -15.0
v 22.0 -58.0 -15.5
v 22.0 -58.0 -10.0
v 22.0 -58.0 -10.0
v 22.0 -58.3 -9.0
v 22.0 -58.7 -8.0
v 21.5 -57.0 -15.0
v 22.0 -57.0 -15.6
v 21.9 -57.0 -12.0
v 21.5 -57.0 -11.0
v 21.6 -57.0 -10.0
v 22.0 -57.5 -9.0
v 21.7 -57.0 -9.0
v 22.0 -57.0 -8.7
v 21.8 -56.0 -16.0
v 22.0 -56.0 -16.2
v 22.0 -56.4 -16.0
v 21.5 -56.0 -15.0
v 21.3 -56.0 -14.0
v 21.5 -56.0 -13.0
v 22.0 -56.0 -12.1
v 22.0 -56.7 -12.0
v 21.6 -56.0 -11.0
v 22.0 -56.0 -11.9
v 21.4 -56.0 -10.0
v 21.2 -56.0 -9.0
v 22.0 -56.0 -8.6
v 21.6 -55.0 -16.0
v 22.0 -55.0 -16.4
v 21.3 -55.0 -15.0
v 21.4 -55.0 -13.0
v 22.0 -55.8 -12.0
v 21.7 -55.0 -12.0
v 21.6 -55.0 -11.0
v 21.6 -55.0 -10.0
v 21.6 -55.0 -9.0
v 22.0 -55.0 -8.7
v 21.6 -54.0 -16.0
v 22.0 -54.0 -16.3
v 21.6 -54.0 -13.0
v 22.0 -54.0 -12.5
v 22.0 -54.5 -12.0
v 22.0 -54.5 -11.0
v 22.0 -54.4 -10.0
v 22.0 -54.0 -9.0
v 22.0 -54.0 -9.0
v 22.0 -54.0 -9.0
v 21.7 -53.0 -16.0
v 22.0 -53.0 -16.3
v 22.0 -53.0 -14.0
v 22.0 -53.0 -14.0
v 22.0 -53.6 -13.0
v 22.0 -54.0 -9.0
v 21.6 -52.0 -16.0
v 22.0 -52.0 -16.4
v 22.0 -53.0 -14.0
v 22.0 -52.0 -13.3
v 21.5 -51.0 -16.0
v 22.0 -51.0 -16.4
v 22.0 -51.7 -13.0
v 22.0 -51.1 -12.0
v 21.9 -51.0 -12.0
v 22.0 -51.0 -11.9
v 21.4 -50.0 -16.0
v 22.0 -50.0 -16.5
v 21.4 -50.0 -13.0
v 22.0 -50.0 -12.4
v 22.0 -50.8 -12.0
v 22.0 -49.0 -16.7
v 21.3 -49.0 -14.0
v 21.8 -49.0 -13.0
v 22.0 -49.0 -12.8
v 21.5 -48.0 -17.0
v 22.0 -48.0 -17.3
v 22.0 -48.5 -17.0
v 22.0 -48.3 -14.0
v 22.0 -48.0 -14.3
v 22.0 -48.8 -13.0
v 22.0 -47.0 -17.5
v 22.0 -47.0 -14.5
v 22.0 -46.0 -17.6
v 22.0 -46.0 -14.4
v 21.8 -45.0 -19.0
v 22.0 -45.0 -19.2
v 22.0 -45.2 -19.0
v 22.0 -45.5 -18.0
v 21.4 -45.0 -18.0
v 22.0 -45.0 -14.3
v 21.6 -44.0 -19.0
v 22.0 -44.0 -19.4
v 22.0 -44.0 -14.0
v 21.5 -44.0 -13.0
v 22.0 -44.0 -13.9
v 22.0 -44.3 -13.0
v 22.0 -44.0 -12.8
v 21.5 -43.0 -19.0
v 22.0 -43.0 -19.5
v 21.7 -43.0 -15.0
v 22.0 -43.9 -14.0
v 21.2 -43.0 -14.0
v 21.7 -43.0 -13.0
v 22.0 -43.0 -12.8
v 21.6 -42.0 -19.0
v 22.0 -42.0 -19.3
v 21.4 -42.0 -16.0
v 21.6 -42.0 -15.0
v 21.7 -42.0 -14.0
v 22.0 -42.0 -13.7
v 22.0 -42.7 -13.0
v 22.0 -41.7 -19.0
v 21.7 -41.0 -18.0
v 22.0 -41.0 -18.3
v 21.7 -41.0 -17.0
v 22.0 -41.0 -16.4
v 22.0 -41.3 -16.0
v 21.9 -41.0 -15.0
v 22.0 -41.0 -15.2
v 22.0 -41.0 -14.9
v 22.0 -41.7 -14.0
v 22.0 -40.8 -18.0
v 22.0 -40.7 -17.0
v 22.0 -40.9 -15.0
v 22.2 -65.0 -8.0
v 23.0 -65.0 -8.2
v 23.0 -65.2 -8.0
v 23.0 -65.5 -7.0
v 23.0 -65.4 -6.0
v 22.4 -65.0 -6.0
v 23.0 -65.1 -5.0
v 22.9 -65.0 -5.0
v 23.0 -65.0 -4.9
v 23.0 -64.5 -8.0
v 23.0 -64.0 -7.8
v 23.0 -64.0 -4.5
v 22.6 -63.0 -15.0
v 23.0 -63.0 -15.4
v 23.0 -63.3 -15.0
v 23.0 -63.6 -14.0
v 23.0 -63.5 -13.0
v 23.0 -63.0 -12.5
v 23.0 -63.0 -7.7
v 22.4 -63.0 -5.0
v 23.0 -63.0 -4.5
v 22.7 -62.0 -16.0
v 23.0 -62.0 -16.3
v 23.0 -62.4 -16.0
v 23.0 -62.6 -12.0
v 23.0 -62.4 -11.0
v 23.0 -62.0 -10.3
v 23.0 -62.0 -7.8
v 22.3 -62.0 -6.0
v 22.7 -62.0 -5.0
v 23.0 -62.0 -4.7
v 22.6 -61.0 -16.0
v 23.0 -61.0 -16.4
v 23.0 -61.8 -10.0
v 23.0 -61.7 -9.0
v 23.0 -61.8 -8.0
v 22.5 -61.0 -6.0
v 23.0 -61.0 -5.4
v 23.0 -61.5 -5.0
v 22.7 -60.0 -16.0
v 23.0 -60.0 -16.2
v 22.3 -60.0 -7.0
v 22.7 -60.0 -6.0
v 23.0 -60.0 -5.7
v 22.7 -59.0 -16.0
v 23.0 -59.0 -16.2
v 23.0 -59.3 -7.0
v 23.0 -59.0 -7.2
v 23.0 -59.6 -6.0
v 22.7 -58.0 -16.0
v 23.0 -58.0 -16.2
v 22.3 -58.0 -9.0
v 22.6 -58.0 -8.0
v 23.0 -58.0 -7.6
v 22.5 -57.0 -16.0
v 23.0 -57.0 -16.3
v 23.0 -57.4 -8.0
v 23.0 -57.0 -8.3
v 23.0 -56.0 -16.5
v 22.1 -56.0 -12.0
v 23.0 -56.0 -8.4
v 23.0 -55.0 -16.5
v 23.0 -55.0 -8.4
v 23.0 -54.0 -16.4
v 22.4 -54.0 -12.0
v 22.5 -54.0 -11.0
v 22.4 -54.0 -10.0
v 23.0 -54.0 -8.5
v 23.0 -53.1 -16.0
v 22.8 -53.0 -16.0
v 23.0 -53.0 -15.8
v 22.0 -53.0 -14.0
v 22.4 -53.0 -13.0
v 23.0 -53.0 -12.2
v 23.0 -53.2 -12.0
v 23.0 -53.5 -11.0
v 23.0 -53.5 -10.0
v 23.0 -53.5 -9.0
v 22.9 -53.0 -7.0
v 23.0 -53.0 -7.2
v 23.0 -53.1 -7.0
v 23.0 -53.0 -6.9
v 23.0 -52.0 -16.4
v 23.0 -52.9 -16.0
v 22.2 -52.0 -13.0
v 23.0 -52.7 -12.0
v 22.6 -52.0 -12.0
v 23.0 -52.0 -11.7
v 22.9 -52.0 -8.0
v 23.0 -52.0 -8.1
v 23.0 -52.3 -8.0
v 22.6 -52.0 -7.0
v 23.0 -52.2 -6.0
v 22.9 -52.0 -6.0
v 23.0 -52.0 -5.8
v 23.0 -51.0 -16.6
v 23.0 -51.0 -11.4
v 23.0 -51.8 -8.0
v 22.9 -51.0 -7.0
v 23.0 -51.0 -7.3
v 23.0 -51.0 -6.7
v 23.0 -51.8 -6.0
v 22.8 -50.0 -17.0
v 23.0 -50.0 -17.1
v 23.0 -50.2 -17.0
v 22.5 -50.0 -12.0
v 23.0 -50.0 -11.6
v 23.0 -50.8 -7.0
v 22.4 -49.0 -17.0
v 23.0 -49.0 -17.4
v 23.0 -49.5 -12.0
v 23.0 -49.0 -12.4
v 23.0 -48.0 -17.5
v 22.4 -48.0 -14.0
v 23.0 -48.0 -13.5
v 23.0 -48.4 -13.0
v 23.0 -47.0 -17.5
v 23.0 -47.2 -14.0
v 23.0 -47.0 -14.1
v 23.0 -46.0 -17.6
v 23.0 -46.7 -14.0
v 22.6 -46.0 -14.0
v 23.0 -46.0 -13.6
v 23.0 -45.0 -19.2
v 23.0 -45.2 -19.0
v 23.0 -45.6 -18.0
v 22.3 -45.0 -14.0
v 23.0 -45.3 -13.0
v 22.7 -45.0 -13.0
v 23.0 -45.0 -12.8
v 23.0 -44.0 -19.6
v 22.0 -44.0 -14.0
v 23.0 -44.0 -12.5
v 23.0 -43.0 -19.9
v 23.0 -43.0 -12.6
v 23.0 -42.0 -19.5
v 23.0 -42.5 -13.0
v 23.0 -42.0 -13.5
v 23.0 -41.5 -19.0
v 23.0 -41.0 -18.5
v 22.4 -41.0 -16.0
v 23.0 -41.5 -14.0
v 23.0 -41.0 -14.7
v 23.0 -40.6 -18.0
v 23.0 -40.5 -17.0
v 23.0 -40.7 -16.0
v 23.0 -40.8 -15.0
v 24.0 -65.0 -8.3
v 24.0 -65.2 -8.0
v 24.0 -65.4 -7.0
v 24.0 -65.3 -6.0
v 23.1 -65.0 -5.0
v 24.0 -65.0 -5.6
v 23.6 -64.0 -14.0
v 24.0 -64.0 -14.4
v 24.0 -64.3 -14.0
v 24.0 -64.2 -13.0
v 23.7 -64.0 -13.0
v 24.0 -64.0 -12.7
v 23.7 -64.0 -9.0
v 24.0 -64.0 -9.3
v 24.0 -64.3 -9.0
v 23.2 -64.0 -8.0
v 24.0 -64.5 -5.0
v 24.0 -64.0 -4.6
v 23.9 -63.0 -16.0
v 24.0 -63.0 -16.1
v 24.0 -63.1 -16.0
v 24.0 -63.6 -15.0
v 24.0 -63.0 -12.2
v 23.6 -63.0 -9.0
v 24.0 -63.0 -9.7
v 23.3 -63.0 -8.0
v 24.0 -63.1 -4.0
v 23.8 -63.0 -4.0
v 24.0 -63.0 -3.9
v 24.0 -62.0 -16.3
v 24.0 -62.8 -12.0
v 24.0 -62.6 -11.0
v 24.0 -62.7 -10.0
v 23.3 -62.0 -10.0
v 23.4 -62.0 -9.0
v 23.2 -62.0 -8.0
v 23.7 -62.0 -4.0
v 24.0 -62.0 -3.7
v 24.0 -61.0 -16.2
v 23.4 -61.0 -5.0
v 24.0 -61.0 -4.4
v 24.0 -61.5 -4.0
v 24.0 -60.6 -16.0
v 23.4 -60.0 -16.0
v 24.0 -60.0 -15.6
v 23.5 -60.0 -5.0
v 24.0 -60.0 -4.5
v 23.3 -59.0 -16.0
v 24.0 -59.0 -15.5
v 23.2 -59.0 -7.0
v 23.4 -59.0 -6.0
v 23.7 -59.0 -5.0
v 24.0 -59.0 -4.6
v 23.3 -58.0 -16.0
v 24.0 -58.0 -15.6
v 23.4 -58.0 -7.0
v 23.6 -58.0 -6.0
v 24.0 -58.0 -5.4
v 24.0 -58.5 -5.0
v 23.5 -57.0 -16.0
v 24.0 -57.0 -15.7
v 23.2 -57.0 -8.0
v 23.5 -57.0 -7.0
v 23.6 -57.0 -6.0
v 24.0 -57.0 -5.5
v 24.0 -56.0 -16.4
v 24.0 -56.7 -16.0
v 23.4 -56.0 -8.0
v 23.6 -56.0 -7.0
v 23.8 -56.0 -6.0
v 24.0 -56.0 -5.8
v 24.0 -55.0 -16.6
v 23.4 -55.0 -8.0
v 24.0 -55.0 -7.3
v 24.0 -55.3 -7.0
v 24.0 -55.7 -6.0
v 24.0 -54.0 -16.5
v 23.5 -54.0 -8.0
v 24.0 -54.0 -7.3
v 23.1 -53.0 -16.0
v 24.0 -53.0 -16.5
v 23.1 -53.0 -12.0
v 23.4 -53.0 -11.0
v 23.5 -53.0 -10.0
v 23.5 -53.0 -9.0
v 23.3 -53.0 -8.0
v 24.0 -53.7 -7.0
v 24.0 -53.0 -6.1
v 23.9 -53.0 -5.0
v 24.0 -53.0 -5.5
v 24.0 -53.1 -5.0
v 24.0 -53.0 -4.9
v 24.0 -52.0 -16.6
v 24.0 -52.0 -11.0
v 24.0 -52.0 -11.0
v 24.0 -52.3 -10.0
v 24.0 -52.1 -9.0
v 24.0 -52.0 -9.0
v 24.0 -52.9 -6.0
v 23.6 -52.0 -5.0
v 24.0 -52.0 -4.7
v 24.0 -51.0 -16.6
v 24.0 -52.0 -11.0
v 23.5 -51.0 -11.0
v 24.0 -51.7 -10.0
v 23.6 -51.0 -10.0
v 24.0 -51.9 -9.0
v 23.6 -51.0 -9.0
v 23.3 -51.0 -8.0
v 23.4 -51.0 -6.0
v 23.8 -51.0 -5.0
v 24.0 -51.0 -4.8
v 23.5 -50.0 -17.0
v 24.0 -50.0 -16.9
v 23.5 -50.0 -11.0
v 23.6 -50.0 -10.0
v 23.6 -50.0 -9.0
v 23.6 -50.0 -8.0
v 23.6 -50.0 -7.0
v 24.0 -50.0 -6.5
v 24.0 -50.3 -6.0
v 24.0 -50.7 -5.0
v 24.0 -49.0 -17.4
v 24.0 -49.8 -17.0
v 23.5 -49.0 -12.0
v 24.0 -49.0 -11.4
v 24.0 -49.4 -11.0
v 24.0 -49.5 -10.0
v 24.0 -49.5 -9.0
v 24.0 -49.5 -8.0
v 24.0 -49.6 -7.0
v 24.0 -48.0 -17.6
v 23.5 -48.0 -13.0
v 24.0 -48.0 -12.4
v 24.0 -48.4 -12.0
v 24.0 -47.0 -17.6
v 23.2 -47.0 -14.0
v 24.0 -47.0 -13.3
v 24.0 -47.4 -13.0
v 24.0 -46.0 -17.8
v 24.0 -46.0 -13.3
v 23.5 -45.0 -19.0
v 24.0 -45.0 -18.8
v 24.0 -45.8 -18.0
v 24.0 -45.7 -13.0
v 24.0 -45.0 -12.5
v 24.0 -44.0 -19.3
v 24.0 -44.7 -19.0
v 24.0 -44.0 -12.4
v 24.0 -43.0 -19.6
v 24.0 -43.0 -12.6
v 24.0 -42.0 -19.8
v 24.0 -42.5 -13.0
v 24.0 -42.0 -13.6
v 24.0 -41.6 -19.0
v 24.0 -41.0 -18.3
v 23.5 -41.0 -16.0
v 24.0 -41.4 -16.0
v 24.0 -41.0 -16.6
v 23.3 -41.0 -15.0
v 24.0 -41.4 -15.0
v 24.0 -41.7 -14.0
v 24.0 -40.8 -18.0
v 24.0 -40.8 -17.0
v 24.3 -65.0 -8.0
v 24.5 -65.0 -7.0
v 24.3 -65.0 -6.0
v 25.0 -64.0 -15.0
v 25.0 -64.0 -15.0
v 25.0 -64.0 -15.0
v 25.0 -64.3 -14.0
v 25.0 -64.3 -13.0
v 25.0 -64.2 -12.0
v 24.7 -64.0 -12.0
v 25.0 -64.2 -11.0
v 24.8 -64.0 -11.0
v 25.0 -64.2 -10.0
v 24.7 -64.0 -10.0
v 25.0 -64.4 -9.0
v 25.0 -64.5 -8.0
v 25.0 -64.5 -7.0
v 25.0 -64.3 -6.0
v 24.5 -64.0 -5.0
v 25.0 -64.0 -5.6
v 24.1 -63.0 -16.0
v 25.0 -63.0 -15.4
v 24.2 -63.0 -12.0
v 24.4 -63.0 -11.0
v 24.3 -63.0 -10.0
v 25.0 -63.5 -5.0
v 24.2 -63.0 -4.0
v 25.0 -63.0 -4.5
v 24.4 -62.0 -16.0
v 25.0 -62.0 -15.4
v 25.0 -62.5 -4.0
v 25.0 -62.0 -3.2
v 24.3 -61.0 -16.0
v 25.0 -61.5 -15.0
v 24.7 -61.0 -15.0
v 25.0 -61.0 -14.7
v 24.4 -61.0 -4.0
v 25.0 -61.0 -3.4
v 24.6 -60.0 -15.0
v 25.0 -60.0 -14.6
v 24.5 -60.0 -4.0
v 25.0 -60.0 -3.5
v 24.6 -59.0 -15.0
v 25.0 -59.0 -14.7
v 24.5 -59.0 -4.0
v 25.0 -59.0 -3.5
v 25.0 -58.0 -15.3
v 25.0 -58.5 -15.0
v 24.3 -58.0 -5.0
v 24.7 -58.0 -4.0
v 25.0 -58.0 -3.6
v 25.0 -57.0 -15.6
v 24.6 -57.0 -5.0
v 25.0 -57.0 -4.5
v 25.0 -57.5 -4.0
v 25.0 -56.0 -16.4
v 25.0 -56.4 -16.0
v 25.0 -56.4 -5.0
v 25.0 -56.0 -5.3
v 25.0 -55.0 -16.9
v 24.2 -55.0 -7.0
v 24.5 -55.0 -6.0
v 25.0 -55.0 -5.4
v 25.0 -54.0 -16.8
v 24.2 -54.0 -7.0
v 24.5 -54.0 -6.0
v 25.0 -54.5 -5.0
v 24.7 -54.0 -5.0
v 25.0 -54.0 -4.7
v 24.6 -53.0 -17.0
v 25.0 -53.0 -17.3
v 25.0 -53.6 -17.0
v 24.1 -53.0 -6.0
v 25.0 -53.0 -4.5
v 24.5 -52.0 -17.0
v 25.0 -52.0 -17.4
v 24.0 -52.0 -11.0
v 24.2 -52.0 -10.0
v 24.0 -52.0 -9.0
v 25.0 -52.0 -4.4
v 24.5 -51.0 -17.0
v 25.0 -51.0 -17.5
v 25.0 -51.0 -4.4
v 24.2 -50.0 -17.0
v 25.0 -50.0 -17.4
v 24.3 -50.0 -6.0
v 24.5 -50.0 -5.0
v 25.0 -50.0 -4.5
v 25.0 -49.0 -17.6
v 24.3 -49.0 -11.0
v 24.4 -49.0 -10.0
v 24.4 -49.0 -9.0
v 24.4 -49.0 -8.0
v 24.4 -49.0 -7.0
v 24.6 -49.0 -6.0
v 24.8 -49.0 -5.0
v 25.0 -49.0 -4.7
v 24.9 -48.0 -18.0
v 25.0 -48.0 -18.1
v 25.0 -48.1 -18.0
v 24.3 -48.0 -12.0
v 24.5 -48.0 -11.0
v 24.5 -48.0 -10.0
v 24.5 -48.0 -9.0
v 24.5 -48.0 -8.0
v 24.7 -48.0 -7.0
v 25.0 -48.0 -6.5
v 25.0 -48.4 -6.0
v 25.0 -48.7 -5.0
v 24.6 -47.0 -18.0
v 25.0 -47.0 -18.3
v 24.3 -47.0 -13.0
v 24.6 -47.0 -12.0
v 24.6 -47.0 -11.0
v 24.6 -47.0 -10.0
v 24.6 -47.0 -9.0
v 24.8 -47.0 -8.0
v 25.0 -47.0 -7.6
v 25.0 -47.6 -7.0
v 25.0 -46.0 -19.0
v 25.0 -46.0 -19.0
v 25.0 -46.0 -19.0
v 24.2 -46.0 -18.0
v 24.3 -46.0 -13.0
v 25.0 -46.0 -12.1
v 25.0 -46.2 -12.0
v 25.0 -46.5 -11.0
v 25.0 -46.5 -10.0
v 25.0 -46.6 -9.0
v 25.0 -46.7 -8.0
v 24.7 -45.0 -19.0
v 25.0 -45.0 -19.1
v 25.0 -45.8 -12.0
v 24.6 -45.0 -12.0
v 25.0 -45.0 -11.6
v 24.6 -44.0 -19.0
v 25.0 -44.7 -19.0
v 25.0 -44.0 -18.7
v 24.7 -44.0 -12.0
v 25.0 -44.0 -11.7
v 25.0 -43.0 -19.1
v 25.0 -43.3 -19.0
v 25.0 -43.7 -12.0
v 25.0 -43.0 -12.7
v 25.0 -42.8 -19.0
v 24.5 -42.0 -19.0
v 25.0 -42.0 -18.3
v 24.7 -42.0 -17.0
v 25.0 -42.3 -17.0
v 25.0 -42.0 -17.6
v 24.7 -42.0 -16.0
v 25.0 -42.3 -16.0
v 25.0 -42.0 -15.3
v 24.5 -42.0 -14.0
v 25.0 -42.3 -14.0
v 25.0 -42.0 -14.7
v 25.0 -42.7 -13.0
v 24.3 -41.0 -18.0
v 25.0 -41.8 -18.0
v 24.3 -41.0 -17.0
v 25.0 -41.8 -15.0
v 25.0 -64.0 -15.0
v 25.3 -64.0 -14.0
v 25.4 -64.0 -13.0
v 25.3 -64.0 -12.0
v 25.2 -64.0 -11.0
v 25.3 -64.0 -10.0
v 25.4 -64.0 -9.0
v 25.5 -64.0 -8.0
v 25.5 -64.0 -7.0
v 25.3 -64.0 -6.0
v 25.4 -63.0 -15.0
v 25.6 -63.0 -14.0
v 26.0 -63.0 -13.3
v 26.0 -63.3 -13.0
v 26.0 -63.5 -12.0
v 26.0 -63.5 -11.0
v 26.0 -63.5 -10.0
v 26.0 -63.5 -9.0
v 26.0 -63.5 -8.0
v 26.0 -63.4 -7.0
v 26.0 -63.0 -6.5
v 25.7 -63.0 -6.0
v 25.4 -63.0 -5.0
v 25.3 -62.0 -15.0
v 25.7 -62.0 -14.0
v 26.0 -62.0 -13.6
v 26.0 -62.6 -6.0
v 26.0 -62.3 -5.0
v 25.6 -62.0 -4.0
v 26.0 -62.0 -4.5
v 26.0 -61.5 -14.0
v 26.0 -61.0 -14.3
v 26.0 -61.7 -4.0
v 26.0 -61.3 -3.0
v 25.6 -61.0 -3.0
v 26.0 -61.0 -2.8
v 26.0 -60.0 -14.4
v 25.5 -60.0 -3.0
v 26.0 -60.0 -2.6
v 26.0 -59.0 -14.4
v 25.5 -59.0 -3.0
v 26.0 -59.0 -2.5
v 25.5 -58.0 -15.0
v 26.0 -58.0 -14.7
v 25.5 -58.0 -3.0
v 26.0 -58.0 -2.5
v 26.0 -57.0 -15.4
v 26.0 -57.6 -15.0
v 25.3 -57.0 -4.0
v 25.7 -57.0 -3.0
v 26.0 -57.0 -2.7
v 25.5 -56.0 -16.0
v 26.0 -56.0 -15.7
v 25.3 -56.0 -5.0
v 25.7 -56.0 -4.0
v 26.0 -56.0 -3.6
v 26.0 -56.6 -3.0
v 26.0 -55.0 -16.6
v 26.0 -55.7 -16.0
v 25.4 -55.0 -5.0
v 26.0 -55.0 -4.4
v 26.0 -55.5 -4.0
v 25.5 -54.0 -17.0
v 26.0 -54.0 -17.2
v 26.0 -54.3 -17.0
v 26.0 -54.0 -4.5
v 26.0 -53.0 -17.5
v 26.0 -53.0 -4.4
v 26.0 -52.0 -17.6
v 26.0 -52.2 -4.0
v 25.8 -52.0 -4.0
v 26.0 -52.0 -3.9
v 26.0 -51.0 -17.8
v 25.5 -51.0 -4.0
v 26.0 -51.0 -3.6
v 26.0 -50.0 -17.4
v 25.5 -50.0 -4.0
v 26.0 -50.0 -3.6
v 26.0 -49.0 -17.4
v 25.7 -49.0 -4.0
v 26.0 -49.0 -3.7
v 25.1 -48.0 -18.0
v 26.0 -48.0 -17.4
v 25.4 -48.0 -6.0
v 25.7 -48.0 -5.0
v 26.0 -48.0 -4.6
v 26.0 -48.6 -4.0
v 25.5 -47.0 -18.0
v 26.0 -47.0 -17.6
v 25.5 -47.0 -7.0
v 26.0 -47.0 -6.4
v 26.0 -47.3 -6.0
v 26.0 -47.6 -5.0
v 25.0 -46.0 -19.0
v 26.0 -46.0 -18.3
v 26.0 -46.4 -18.0
v 25.1 -46.0 -12.0
v 25.4 -46.0 -11.0
v 25.5 -46.0 -10.0
v 25.6 -46.0 -9.0
v 26.0 -46.0 -8.5
v 26.0 -46.3 -8.0
v 26.0 -46.6 -7.0
v 25.1 -45.0 -19.0
v 26.0 -45.0 -18.3
v 25.6 -45.0 -11.0
v 26.0 -45.0 -10.5
v 26.0 -45.4 -10.0
v 26.0 -45.6 -9.0
v 25.6 -44.0 -18.0
v 26.0 -44.5 -18.0
v 26.0 -44.0 -17.6
v 26.0 -44.6 -11.0
v 26.0 -44.0 -11.7
v 25.1 -43.0 -19.0
v 25.5 -43.0 -18.0
v 26.0 -43.0 -17.3
v 25.5 -43.0 -13.0
v 26.0 -43.3 -13.0
v 26.0 -43.0 -13.5
v 26.0 -43.7 -12.0
v 25.2 -42.0 -18.0
v 26.0 -42.8 -17.0
v 26.0 -42.6 -16.0
v 25.2 -42.0 -15.0
v 26.0 -42.5 -15.0
v 26.0 -42.7 -14.0
v 26.2 -63.0 -13.0
v 26.4 -63.0 -12.0
v 26.4 -63.0 -11.0
v 26.4 -63.0 -10.0
v 26.4 -63.0 -9.0
v 26.4 -63.0 -8.0
v 26.3 -63.0 -7.0
v 26.4 -62.0 -13.0
v 26.6 -62.0 -12.0
v 26.6 -62.0 -11.0
v 26.6 -62.0 -10.0
v 26.6 -62.0 -9.0
v 26.6 -62.0 -8.0
v 26.6 -62.0 -7.0
v 26.4 -62.0 -6.0
v 26.3 -62.0 -5.0
v 26.3 -61.0 -14.0
v 26.7 -61.0 -13.0
v 27.0 -61.0 -12.5
v 27.0 -61.4 -12.0
v 27.0 -61.5 -11.0
v 27.0 -61.5 -10.0
v 27.0 -61.5 -9.0
v 27.0 -61.5 -8.0
v 27.0 -61.4 -7.0
v 27.0 -61.0 -6.4
v 26.8 -61.0 -6.0
v 26.7 -61.0 -5.0
v 27.0 -61.3 -4.0
v 27.0 -61.0 -4.6
v 27.0 -61.3 -3.0
v 27.0 -61.0 -2.7
v 26.4 -60.0 -14.0
v 27.0 -60.0 -13.4
v 27.0 -60.5 -13.0
v 27.0 -60.8 -6.0
v 27.0 -60.8 -5.0
v 27.0 -60.0 -2.3
v 26.6 -59.0 -14.0
v 27.0 -59.0 -13.6
v 27.0 -59.5 -2.0
v 26.6 -59.0 -2.0
v 27.0 -59.0 -1.7
v 27.0 -58.0 -14.4
v 27.0 -58.5 -14.0
v 26.6 -58.0 -2.0
v 27.0 -58.0 -1.7
v 27.0 -57.0 -15.2
v 27.0 -57.3 -15.0
v 27.0 -57.5 -2.0
v 27.0 -57.0 -2.3
v 27.0 -56.0 -15.5
v 26.6 -56.0 -3.0
v 27.0 -56.0 -2.7
v 27.0 -55.0 -16.3
v 27.0 -55.3 -16.0
v 26.5 -55.0 -4.0
v 27.0 -55.0 -3.5
v 27.0 -55.6 -3.0
v 26.3 -54.0 -17.0
v 27.0 -54.0 -16.6
v 27.0 -54.4 -4.0
v 27.0 -54.0 -4.3
v 27.0 -53.0 -17.2
v 27.0 -53.4 -17.0
v 27.0 -53.0 -4.5
v 27.0 -52.0 -17.3
v 26.3 -52.0 -4.0
v 27.0 -52.0 -4.3
v 27.0 -51.6 -17.0
v 26.6 -51.0 -17.0
v 27.0 -51.0 -16.5
v 27.0 -51.6 -4.0
v 27.0 -51.0 -3.6
v 26.4 -50.0 -17.0
v 27.0 -50.5 -16.0
v 26.7 -50.0 -16.0
v 27.0 -50.0 -15.6
v 27.0 -50.0 -3.3
v 26.4 -49.0 -17.0
v 26.6 -49.0 -16.0
v 27.0 -49.0 -15.4
v 27.0 -49.4 -3.0
v 26.7 -49.0 -3.0
v 27.0 -49.0 -2.8
v 26.4 -48.0 -17.0
v 26.5 -48.0 -16.0
v 27.0 -48.5 -15.0
v 26.7 -48.0 -15.0
v 27.0 -48.0 -14.7
v 27.0 -48.0 -4.0
v 27.0 -48.0 -4.0
v 27.0 -48.0 -3.0
v 27.0 -48.0 -3.4
v 27.0 -48.0 -3.0
v 26.4 -47.0 -17.0
v 26.5 -47.0 -16.0
v 26.6 -47.0 -15.0
v 27.0 -47.0 -14.5
v 26.3 -47.0 -6.0
v 26.5 -47.0 -5.0
v 27.0 -47.0 -4.5
v 27.0 -48.0 -3.0
v 26.3 -46.0 -18.0
v 26.5 -46.0 -17.0
v 26.6 -46.0 -16.0
v 26.8 -46.0 -15.0
v 27.0 -46.0 -14.7
v 26.4 -46.0 -8.0
v 26.5 -46.0 -7.0
v 26.6 -46.0 -6.0
v 26.8 -46.0 -5.0
v 27.0 -46.0 -4.7
v 26.3 -45.0 -18.0
v 26.6 -45.0 -17.0
v 27.0 -45.0 -16.3
v 27.0 -45.3 -16.0
v 27.0 -45.7 -15.0
v 26.4 -45.0 -10.0
v 26.9 -45.0 -9.0
v 27.0 -45.0 -8.9
v 27.0 -45.5 -8.0
v 27.0 -45.6 -7.0
v 27.0 -45.6 -6.0
v 27.0 -45.8 -5.0
v 26.5 -44.0 -17.0
v 27.0 -44.0 -16.3
v 26.5 -44.0 -12.0
v 27.0 -44.3 -12.0
v 27.0 -44.0 -12.4
v 27.0 -44.5 -11.0
v 27.0 -44.6 -10.0
v 27.0 -44.9 -9.0
v 26.2 -43.0 -17.0
v 27.0 -43.7 -16.0
v 26.4 -43.0 -16.0
v 26.5 -43.0 -15.0
v 27.0 -43.5 -15.0
v 26.4 -43.0 -14.0
v 27.0 -43.4 -14.0
v 27.0 -43.6 -13.0
v 27.3 -61.0 -12.0
v 27.4 -61.0 -11.0
v 27.5 -61.0 -10.0
v 27.5 -61.0 -9.0
v 27.5 -61.0 -8.0
v 27.4 -61.0 -7.0
v 27.5 -61.0 -4.0
v 28.0 -61.0 -3.2
v 28.0 -61.1 -3.0
v 28.0 -61.0 -2.8
v 27.3 -60.0 -13.0
v 27.6 -60.0 -12.0
v 27.7 -60.0 -11.0
v 28.0 -60.0 -10.5
v 28.0 -60.4 -10.0
v 28.0 -60.5 -9.0
v 28.0 -60.5 -8.0
v 28.0 -60.5 -7.0
v 28.0 -60.4 -6.0
v 28.0 -60.4 -5.0
v 28.0 -60.6 -4.0
v 28.0 -60.4 -2.0
v 27.5 -60.0 -2.0
v 28.0 -60.0 -1.7
v 27.6 -59.0 -13.0
v 28.0 -59.0 -12.4
v 28.0 -59.4 -12.0
v 28.0 -59.6 -11.0
v 28.0 -59.0 -1.4
v 27.4 -58.0 -14.0
v 28.0 -58.0 -13.3
v 28.0 -58.4 -13.0
v 28.0 -58.0 -1.4
v 27.2 -57.0 -15.0
v 27.7 -57.0 -14.0
v 28.0 -57.0 -13.7
v 27.5 -57.0 -2.0
v 28.0 -57.0 -1.7
v 27.6 -56.0 -15.0
v 28.0 -56.0 -14.5
v 28.0 -56.6 -14.0
v 28.0 -56.5 -2.0
v 28.0 -56.0 -2.3
v 27.3 -55.0 -16.0
v 28.0 -55.0 -15.3
v 28.0 -55.4 -15.0
v 27.6 -55.0 -3.0
v 28.0 -55.0 -2.7
v 27.5 -54.0 -16.0
v 28.0 -54.0 -15.4
v 27.4 -54.0 -4.0
v 28.0 -54.0 -3.5
v 28.0 -54.5 -3.0
v 27.2 -53.0 -17.0
v 27.5 -53.0 -16.0
v 28.0 -53.4 -15.0
v 27.8 -53.0 -15.0
v 28.0 -53.0 -14.7
v 28.0 -53.4 -4.0
v 28.0 -53.0 -4.2
v 27.2 -52.0 -17.0
v 27.5 -52.0 -16.0
v 27.6 -52.0 -15.0
v 28.0 -52.0 -14.6
v 28.0 -52.0 -4.2
v 27.3 -51.0 -16.0
v 27.6 -51.0 -15.0
v 28.0 -51.0 -14.5
v 28.0 -51.7 -4.0
v 28.0 -51.0 -3.4
v 27.5 -50.0 -15.0
v 28.0 -50.0 -14.5
v 28.0 -50.5 -3.0
v 27.5 -50.0 -3.0
v 28.0 -50.0 -2.7
v 27.4 -49.0 -15.0
v 28.0 -49.0 -14.4
v 28.0 -49.0 -2.5
v 27.6 -48.0 -14.0
v 28.0 -48.5 -14.0
v 28.0 -48.0 -13.6
v 27.0 -48.0 -4.0
v 28.0 -48.0 -2.6
v 27.5 -47.0 -14.0
v 28.0 -47.0 -13.5
v 27.5 -47.0 -4.0
v 28.0 -47.4 -3.0
v 28.0 -47.0 -3.4
v 27.6 -46.0 -14.0
v 28.0 -46.0 -13.6
v 27.7 -46.0 -4.0
v 28.0 -46.0 -3.7
v 27.2 -45.0 -16.0
v 27.5 -45.0 -15.0
v 28.0 -45.0 -14.4
v 28.0 -45.5 -14.0
v 27.2 -45.0 -9.0
v 28.0 -45.3 -9.0
v 28.0 -45.0 -9.5
v 28.0 -45.5 -8.0
v 28.0 -45.5 -7.0
v 28.0 -45.4 -6.0
v 28.0 -45.4 -5.0
v 28.0 -45.7 -4.0
v 27.2 -44.0 -16.0
v 27.5 -44.0 -15.0
v 28.0 -44.0 -14.3
v 28.0 -44.4 -12.0
v 28.0 -44.0 -12.7
v 28.0 -44.5 -11.0
v 28.0 -44.7 -10.0
v 28.0 -43.8 -14.0
v 28.0 -43.8 -13.0
v 28.1 -61.0 -3.0
v 28.3 -60.0 -10.0
v 28.4 -60.0 -9.0
v 28.4 -60.0 -8.0
v 28.4 -60.0 -7.0
v 28.5 -60.0 -6.0
v 28.5 -60.0 -5.0
v 28.5 -60.0 -4.0
v 28.7 -60.0 -3.0
v 29.0 -60.6 -2.0
v 29.0 -60.0 -2.5
v 29.0 -60.0 -1.7
v 28.3 -59.0 -12.0
v 28.5 -59.0 -11.0
v 28.6 -59.0 -10.0
v 28.6 -59.0 -9.0
v 28.6 -59.0 -8.0
v 28.7 -59.0 -7.0
v 29.0 -59.0 -6.6
v 29.0 -59.4 -6.0
v 29.0 -59.5 -5.0
v 29.0 -59.6 -4.0
v 29.0 -59.8 -3.0
v 29.0 -59.1 -1.0
v 28.8 -59.0 -1.0
v 29.0 -59.0 -0.9
v 28.3 -58.0 -13.0
v 28.7 -58.0 -12.0
v 29.0 -58.0 -11.5
v 29.0 -58.4 -11.0
v 29.0 -58.5 -10.0
v 29.0 -58.6 -9.0
v 29.0 -58.6 -8.0
v 29.0 -58.7 -7.0
v 28.7 -58.0 -1.0
v 29.0 -58.0 -0.8
v 28.6 -57.0 -13.0
v 29.0 -57.0 -12.5
v 29.0 -57.5 -12.0
v 29.0 -57.7 -1.0
v 29.0 -57.0 -1.4
v 28.4 -56.0 -14.0
v 29.0 -56.0 -13.4
v 29.0 -56.5 -13.0
v 28.5 -56.0 -2.0
v 29.0 -56.0 -1.7
v 28.3 -55.0 -15.0
v 28.7 -55.0 -14.0
v 29.0 -55.0 -13.7
v 29.0 -55.6 -2.0
v 29.0 -55.0 -2.4
v 28.4 -54.0 -15.0
v 29.0 -54.0 -14.4
v 29.0 -54.6 -14.0
v 28.4 -54.0 -3.0
v 29.0 -54.0 -2.6
v 29.0 -53.0 -14.3
v 28.3 -53.0 -4.0
v 28.8 -53.0 -3.0
v 29.0 -53.0 -2.8
v 29.0 -52.5 -14.0
v 28.6 -52.0 -14.0
v 29.0 -52.0 -13.7
v 28.3 -52.0 -4.0
v 29.0 -52.0 -3.4
v 29.0 -52.6 -3.0
v 28.5 -51.0 -14.0
v 29.0 -51.0 -13.5
v 29.0 -51.3 -3.0
v 28.7 -51.0 -3.0
v 29.0 -51.0 -2.9
v 28.5 -50.0 -14.0
v 29.0 -50.0 -13.5
v 29.0 -50.0 -2.5
v 28.4 -49.0 -14.0
v 29.0 -49.0 -13.3
v 29.0 -49.0 -2.5
v 28.6 -48.0 -13.0
v 29.0 -48.5 -13.0
v 29.0 -48.0 -12.6
v 29.0 -48.0 -2.5
v 28.5 -47.0 -13.0
v 29.0 -47.0 -12.5
v 28.5 -47.0 -3.0
v 29.0 -47.0 -2.7
v 28.6 -46.0 -13.0
v 29.0 -46.0 -12.6
v 29.0 -46.5 -3.0
v 29.0 -46.0 -3.3
v 28.3 -45.0 -14.0
v 29.0 -45.0 -13.2
v 29.0 -45.3 -13.0
v 28.5 -45.0 -10.0
v 29.0 -45.3 -10.0
v 29.0 -45.0 -10.5
v 29.0 -45.5 -9.0
v 29.0 -45.6 -8.0
v 29.0 -45.4 -7.0
v 28.7 -45.0 -6.0
v 29.0 -45.0 -6.3
v 28.5 -45.0 -5.0
v 28.9 -45.0 -4.0
v 29.0 -45.0 -3.9
v 28.2 -44.0 -14.0
v 29.0 -44.8 -13.0
v 28.3 -44.0 -13.0
v 29.0 -44.6 -12.0
v 29.0 -44.7 -11.0
v 29.0 -44.8 -6.0
v 29.0 -44.6 -5.0
v 29.0 -44.9 -4.0
v 29.3 -60.0 -2.0
v 29.4 -59.0 -6.0
v 29.6 -59.0 -5.0
v 30.0 -59.0 -4.5
v 30.0 -59.3 -4.0
v 30.0 -59.5 -3.0
v 30.0 -59.5 -2.0
v 29.2 -59.0 -1.0
v 30.0 -59.0 -1.4
v 29.3 -58.0 -11.0
v 29.5 -58.0 -10.0
v 29.6 -58.0 -9.0
v 30.0 -58.0 -8.2
v 30.0 -58.1 -8.0
v 29.8 -58.0 -7.0
v 30.0 -58.0 -7.7
v 30.0 -58.0 -6.7
v 30.0 -58.4 -6.0
v 30.0 -58.7 -5.0
v 30.0 -58.2 -1.0
v 30.0 -58.0 -0.9
v 29.4 -57.0 -12.0
v 29.7 -57.0 -11.0
v 30.0 -57.0 -10.6
v 30.0 -57.4 -10.0
v 30.0 -57.6 -9.0
v 30.0 -57.8 -7.0
v 30.0 -57.8 -1.0
v 30.0 -57.0 -1.4
v 29.5 -56.0 -13.0
v 30.0 -56.0 -12.5
v 30.0 -56.4 -12.0
v 30.0 -56.7 -11.0
v 30.0 -56.0 -1.6
v 30.0 -55.0 -13.3
v 30.0 -55.4 -13.0
v 30.0 -55.5 -2.0
v 30.0 -55.0 -2.4
v 29.4 -54.0 -14.0
v 30.0 -54.0 -13.5
v 30.0 -54.0 -2.5
v 29.4 -53.0 -14.0
v 30.0 -53.0 -13.5
v 30.0 -53.0 -2.6
v 30.0 -52.0 -13.3
v 30.0 -52.5 -3.0
v 30.0 -52.0 -3.5
v 30.0 -51.5 -13.0
v 29.6 -51.0 -13.0
v 30.0 -51.0 -12.7
v 29.3 -51.0 -3.0
v 30.0 -51.0 -3.4
v 29.5 -50.0 -13.0
v 30.0 -50.0 -12.5
v 30.0 -50.5 -3.0
v 30.0 -50.0 -2.7
v 29.3 -49.0 -13.0
v 30.0 -49.3 -12.0
v 29.8 -49.0 -12.0
v 30.0 -49.0 -11.8
v 30.0 -49.0 -2.5
v 29.5 -48.0 -12.0
v 30.0 -48.0 -11.5
v 30.0 -48.0 -2.5
v 29.5 -47.0 -12.0
v 30.0 -47.0 -11.5
v 30.0 -47.0 -2.5
v 29.6 -46.0 -12.0
v 30.0 -46.0 -11.4
v 29.7 -46.0 -8.0
v 30.0 -46.2 -8.0
v 30.0 -46.0 -8.4
v 30.0 -46.0 -7.7
v 29.6 -46.0 -3.0
v 30.0 -46.0 -2.8
v 29.2 -45.0 -13.0
v 29.8 -45.0 -12.0
v 30.0 -45.6 -11.0
v 29.4 -45.0 -11.0
v 30.0 -45.6 -10.0
v 30.0 -45.8 -9.0
v 30.0 -45.6 -7.0
v 30.0 -45.0 -6.3
v 29.1 -45.0 -4.0
v 30.0 -45.3 -4.0
v 30.0 -45.0 -4.5
v 30.0 -45.7 -3.0
v 30.0 -44.8 -6.0
v 30.0 -44.7 -5.0
v 30.5 -59.0 -4.0
v 31.0 -59.0 -3.6
v 31.0 -59.4 -3.0
v 31.0 -59.2 -2.0
v 31.0 -59.0 -1.7
v 30.1 -58.0 -8.0
v 30.5 -58.0 -6.0
v 31.0 -58.0 -5.4
v 31.0 -58.3 -5.0
v 31.0 -58.6 -4.0
v 30.2 -58.0 -1.0
v 31.0 -58.0 -1.4
v 30.4 -57.0 -10.0
v 30.5 -57.0 -9.0
v 30.5 -57.0 -8.0
v 30.6 -57.0 -7.0
v 31.0 -57.0 -6.5
v 31.0 -57.4 -6.0
v 31.0 -57.0 -1.5
v 30.5 -56.0 -12.0
v 31.0 -56.0 -11.4
v 31.0 -56.3 -11.0
v 31.0 -56.5 -10.0
v 31.0 -56.4 -9.0
v 31.0 -56.0 -8.3
v 30.9 -56.0 -8.0
v 31.0 -56.0 -7.7
v 31.0 -56.5 -7.0
v 31.0 -56.0 -1.7
v 30.3 -55.0 -13.0
v 31.0 -55.0 -12.4
v 31.0 -55.5 -12.0
v 31.0 -55.8 -8.0
v 31.0 -55.6 -2.0
v 31.0 -55.0 -2.4
v 30.5 -54.0 -13.0
v 31.0 -54.0 -12.6
v 31.0 -54.0 -2.5
v 30.5 -53.0 -13.0
v 31.0 -53.0 -12.5
v 31.0 -53.0 -2.8
v 30.4 -52.0 -13.0
v 31.0 -52.0 -12.5
v 30.7 -52.0 -4.0
v 31.0 -52.3 -4.0
v 31.0 -52.0 -4.4
v 31.0 -52.8 -3.0
v 31.0 -51.0 -12.4
v 30.6 -51.0 -4.0
v 31.0 -51.0 -4.4
v 31.0 -50.0 -12.2
v 31.0 -50.5 -4.0
v 30.5 -50.0 -3.0
v 31.0 -50.0 -3.5
v 31.0 -49.7 -12.0
v 31.0 -49.0 -11.3
v 31.0 -49.6 -3.0
v 31.0 -49.0 -2.6
v 31.0 -48.6 -11.0
v 30.5 -48.0 -11.0
v 30.6 -48.0 -10.0
v 31.0 -48.4 -10.0
v 30.8 -48.0 -9.0
v 31.0 -48.2 -9.0
v 31.0 -48.0 -8.6
v 31.0 -48.0 -2.5
v 30.4 -47.0 -11.0
v 30.5 -47.0 -10.0
v 30.5 -47.0 -9.0
v 31.0 -47.5 -8.0
v 30.6 -47.0 -8.0
v 31.0 -47.0 -7.5
v 31.0 -47.0 -2.5
v 30.3 -46.0 -11.0
v 30.4 -46.0 -10.0
v 30.2 -46.0 -9.0
v 30.5 -46.0 -7.0
v 31.0 -46.6 -7.0
v 31.0 -46.0 -6.4
v 31.0 -46.0 -2.8
v 30.3 -45.0 -6.0
v 31.0 -45.7 -6.0
v 30.4 -45.0 -5.0
v 31.0 -45.5 -5.0
v 31.0 -45.5 -4.0
v 31.0 -45.8 -3.0
v 32.0 -59.0 -3.1
v 32.0 -59.1 -3.0
v 31.4 -59.0 -2.0
v 32.0 -59.0 -2.9
v 31.2 -58.0 -5.0
v 31.5 -58.0 -4.0
v 32.0 -58.0 -3.6
v 32.0 -58.4 -2.0
v 32.0 -58.0 -1.7
v 31.3 -57.0 -6.0
v 31.5 -57.0 -5.0
v 31.8 -57.0 -4.0
v 32.0 -57.0 -3.7
v 32.0 -57.0 -1.7
v 31.3 -56.0 -11.0
v 31.5 -56.0 -10.0
v 31.4 -56.0 -9.0
v 31.3 -56.0 -7.0
v 31.5 -56.0 -6.0
v 31.6 -56.0 -5.0
v 32.0 -56.0 -4.4
v 32.0 -56.6 -4.0
v 31.5 -56.0 -2.0
v 32.0 -56.5 -2.0
v 32.0 -56.0 -2.4
v 31.5 -55.0 -12.0
v 32.0 -55.0 -11.4
v 32.0 -55.3 -11.0
v 32.0 -55.5 -10.0
v 32.0 -55.4 -9.0
v 31.7 -55.0 -8.0
v 32.0 -55.0 -8.5
v 31.6 -55.0 -7.0
v 31.6 -55.0 -6.0
v 31.7 -55.0 -5.0
v 32.0 -55.0 -4.7
v 32.0 -55.0 -2.6
v 32.0 -54.0 -12.1
v 32.0 -54.2 -12.0
v 32.0 -54.7 -8.0
v 32.0 -54.5 -7.0
v 32.0 -54.5 -6.0
v 32.0 -54.6 -5.0
v 32.0 -54.0 -2.8
v 32.0 -53.8 -12.0
v 31.6 -53.0 -12.0
v 32.0 -53.0 -11.5
v 31.6 -53.0 -4.0
v 32.0 -53.4 -4.0
v 32.0 -53.0 -4.5
v 31.3 -53.0 -3.0
v 32.0 -53.7 -3.0
v 31.4 -52.0 -12.0
v 32.0 -52.5 -11.0
v 31.7 -52.0 -11.0
v 32.0 -52.0 -10.5
v 31.8 -52.0 -9.0
v 32.0 -52.3 -9.0
v 32.0 -52.0 -9.5
v 31.6 -52.0 -8.0
v 32.0 -52.5 -8.0
v 31.6 -52.0 -7.0
v 32.0 -52.5 -7.0
v 31.6 -52.0 -6.0
v 32.0 -52.5 -6.0
v 31.5 -52.0 -5.0
v 32.0 -52.7 -5.0
v 31.4 -51.0 -12.0
v 31.6 -51.0 -11.0
v 32.0 -51.0 -10.4
v 31.7 -51.0 -9.0
v 32.0 -51.0 -9.5
v 31.6 -51.0 -8.0
v 31.6 -51.0 -7.0
v 31.6 -51.0 -6.0
v 31.4 -51.0 -5.0
v 31.2 -50.0 -12.0
v 31.6 -50.0 -11.0
v 32.0 -50.0 -10.5
v 32.0 -50.6 -9.0
v 32.0 -50.5 -8.0
v 32.0 -50.5 -7.0
v 32.0 -50.4 -6.0
v 32.0 -50.0 -5.5
v 31.7 -50.0 -5.0
v 31.4 -50.0 -4.0
v 31.3 -49.0 -11.0
v 32.0 -49.0 -10.3
v 32.0 -49.7 -5.0
v 32.0 -49.6 -4.0
v 32.0 -49.3 -3.0
v 32.0 -49.0 -2.7
v 32.0 -48.8 -10.0
v 32.0 -48.6 -9.0
v 31.4 -48.0 -8.0
v 32.0 -48.5 -8.0
v 31.7 -48.0 -7.0
v 32.0 -48.4 -7.0
v 32.0 -48.0 -6.6
v 32.0 -48.0 -2.6
v 31.3 -47.0 -7.0
v 32.0 -47.5 -6.0
v 31.7 -47.0 -6.0
v 32.0 -47.0 -5.5
v 32.0 -47.0 -2.8
v 31.3 -46.0 -6.0
v 32.0 -46.5 -5.0
v 31.6 -46.0 -5.0
v 32.0 -46.0 -4.2
v 31.3 -46.0 -3.0
v 32.0 -46.6 -3.0
v 32.0 -46.0 -3.8
v 32.0 -45.9 -4.0
v 32.1 -59.0 -3.0
v 33.0 -58.0 -3.0
v 33.0 -58.0 -3.0
v 32.3 -58.0 -2.0
v 33.0 -58.0 -3.0
v 33.0 -57.0 -3.2
v 32.3 -57.0 -2.0
v 33.0 -57.0 -2.8
v 32.4 -56.0 -4.0
v 33.0 -56.0 -3.0
v 33.0 -56.0 -3.0
v 32.3 -55.0 -11.0
v 32.4 -55.0 -10.0
v 32.4 -55.0 -9.0
v 32.4 -55.0 -4.0
v 33.0 -56.0 -3.0
v 32.4 -55.0 -3.0
v 32.1 -54.0 -12.0
v 32.5 -54.0 -11.0
v 32.6 -54.0 -10.0
v 33.0 -54.0 -9.1
v 33.0 -54.1 -9.0
v 33.0 -54.0 -8.0
v 32.5 -54.0 -7.0
v 33.0 -54.0 -8.0
v 32.4 -54.0 -6.0
v 32.4 -54.0 -5.0
v 32.4 -54.0 -4.0
v 32.2 -54.0 -3.0
v 32.3 -53.0 -11.0
v 32.5 -53.0 -10.0
v 33.0 -53.9 -9.0
v 32.5 -53.0 -9.0
v 32.5 -53.0 -8.0
v 33.0 -54.0 -8.0
v 32.4 -53.0 -7.0
v 32.4 -53.0 -6.0
v 32.3 -53.0 -5.0
v 32.3 -52.0 -10.0
v 32.3 -51.0 -10.0
v 32.4 -50.0 -10.0
v 32.4 -50.0 -9.0
v 32.4 -50.0 -8.0
v 32.4 -50.0 -7.0
v 32.3 -50.0 -6.0
v 32.2 -49.0 -10.0
v 32.4 -49.0 -9.0
v 32.4 -49.0 -8.0
v 32.4 -49.0 -7.0
v 32.6 -49.0 -6.0
v 33.0 -49.2 -5.0
v 33.0 -49.0 -5.3
v 33.0 -49.3 -4.0
v 33.0 -49.0 -3.0
v 33.0 -49.0 -3.0
v 32.4 -48.0 -6.0
v 33.0 -48.0 -5.3
v 32.5 -48.0 -3.0
v 33.0 -49.0 -3.0
v 33.0 -48.0 -3.6
v 32.4 -47.0 -5.0
v 33.0 -47.7 -5.0
v 32.6 -47.0 -4.0
v 33.0 -47.6 -4.0
v 32.3 -47.0 -3.0
v 32.1 -46.0 -4.0
v 33.0 -58.0 -3.0
v 33.2 -57.0 -3.0
v 33.0 -56.0 -3.0
v 33.1 -54.0 -9.0
v 33.0 -54.0 -8.0
v 33.2 -49.0 -5.0
v 33.3 -49.0 -4.0
v 33.0 -49.0 -3.0
v 33.2 -48.0 -5.0
v 33.3 -48.0 -4.0
f 3 2 1
f 1 4 3
f 7 6 5
f 7 5 2
f 5 1 2
f 5 8 1
f 4 1 9
f 9 1 8
f 5 6 10
f 10 6 11
f 13 8 12
f 8 10 12
f 8 5 10
f 8 13 9
f 11 14 10
f 10 14 12
f 17 16 15
f 19 18 15
f 15 18 17
f 21 20 19
f 19 20 18
f 21 22 20
f 25 24 23
f 25 23 16
f 23 15 16
f 23 26 15
f 26 2 3
f 19 26 3
f 15 26 19
f 19 3 4
f 27 19 4
f 21 19 27
f 22 21 28
f 28 21 27
f 23 24 29
f 29 24 30
f 29 6 7
f 26 29 7
f 23 29 26
f 26 7 2
f 32 31 27
f 4 32 27
f 9 32 4
f 27 31 28
f 29 30 33
f 33 30 34
f 33 11 6
f 33 6 29
f 36 35 13
f 36 13 12
f 9 13 32
f 32 13 35
f 34 37 33
f 33 37 11
f 37 14 11
f 37 38 14
f 12 14 36
f 36 14 38
f 41 40 39
f 39 42 41
f 45 44 43
f 47 46 43
f 43 46 45
f 46 47 40
f 47 39 40
f 47 48 39
f 42 39 49
f 39 50 49
f 39 48 50
f 50 51 49
f 54 53 52
f 54 52 44
f 44 52 43
f 52 16 43
f 16 17 43
f 43 17 18
f 43 18 47
f 47 18 20
f 47 20 48
f 48 20 22
f 55 48 22
f 50 48 55
f 51 50 56
f 56 50 55
f 52 53 25
f 53 24 25
f 53 57 24
f 52 25 16
f 28 58 55
f 28 55 22
f 56 55 59
f 59 55 58
f 57 30 24
f 60 30 57
f 62 61 31
f 62 31 32
f 28 31 58
f 31 63 58
f 31 61 63
f 58 63 59
f 60 34 30
f 64 34 60
f 67 66 65
f 35 36 65
f 66 35 65
f 68 35 66
f 32 35 62
f 62 35 68
f 64 69 34
f 34 69 37
f 65 38 67
f 38 69 67
f 38 37 69
f 38 65 36
f 70 40 41
f 42 70 41
f 73 72 71
f 75 74 71
f 71 74 73
f 44 45 75
f 45 74 75
f 45 76 74
f 77 45 46
f 77 76 45
f 46 40 70
f 78 46 70
f 77 46 78
f 80 78 79
f 79 78 49
f 78 70 49
f 70 42 49
f 51 79 49
f 71 72 81
f 81 72 82
f 81 53 54
f 75 81 54
f 71 81 75
f 75 54 44
f 83 80 79
f 79 51 83
f 51 84 83
f 51 56 84
f 82 85 81
f 53 81 85
f 86 53 85
f 57 53 86
f 89 88 87
f 88 84 87
f 84 59 87
f 84 56 59
f 86 60 57
f 90 60 86
f 62 91 61
f 92 89 87
f 61 92 87
f 63 61 87
f 92 61 91
f 63 87 59
f 90 64 60
f 93 64 90
f 95 94 66
f 95 66 67
f 66 96 68
f 94 96 66
f 62 68 91
f 68 97 91
f 68 96 97
f 91 97 92
f 93 98 64
f 64 98 69
f 67 69 95
f 95 69 98
f 101 100 99
f 103 102 99
f 99 102 101
f 103 104 102
f 106 105 73
f 73 105 72
f 107 73 74
f 107 106 73
f 76 99 100
f 107 76 100
f 74 76 107
f 99 76 77
f 99 77 103
f 108 104 103
f 77 108 103
f 78 108 77
f 78 80 108
f 108 80 109
f 105 82 72
f 110 82 105
f 111 109 80
f 111 80 83
f 113 112 84
f 112 83 84
f 112 111 83
f 113 114 112
f 85 82 115
f 82 116 115
f 82 110 116
f 115 86 85
f 89 117 88
f 117 118 88
f 88 118 84
f 118 119 84
f 119 113 84
f 113 119 114
f 115 116 120
f 120 116 121
f 120 90 86
f 120 86 115
f 123 122 117
f 89 123 117
f 92 123 89
f 117 122 118
f 120 121 124
f 124 121 125
f 124 93 90
f 124 90 120
f 95 126 94
f 94 126 127
f 128 94 127
f 96 94 128
f 96 129 97
f 128 129 96
f 92 97 123
f 123 97 129
f 124 125 130
f 130 125 131
f 124 130 93
f 130 132 93
f 132 98 93
f 130 133 132
f 95 98 126
f 98 134 126
f 98 132 134
f 126 134 127
f 131 135 130
f 130 135 133
f 138 137 136
f 136 139 138
f 136 137 140
f 140 137 141
f 139 136 142
f 142 136 140
f 140 141 143
f 143 141 144
f 142 140 145
f 145 140 143
f 143 144 146
f 146 144 147
f 145 143 148
f 148 143 146
f 146 147 149
f 149 147 150
f 148 146 151
f 151 146 149
f 150 152 149
f 149 152 151
f 154 153 101
f 101 153 100
f 156 154 155
f 154 102 155
f 154 101 102
f 104 155 102
f 158 157 106
f 106 157 105
f 159 106 107
f 159 158 106
f 107 100 153
f 107 153 159
f 156 155 160
f 156 160 161
f 108 162 104
f 162 155 104
f 162 160 155
f 109 162 108
f 165 164 163
f 157 165 163
f 110 157 163
f 105 157 110
f 166 161 160
f 166 160 162
f 166 162 167
f 169 167 168
f 168 167 111
f 167 162 111
f 162 109 111
f 168 111 170
f 111 171 170
f 111 112 171
f 112 114 171
f 171 114 172
f 163 164 173
f 173 164 174
f 173 116 110
f 173 110 163
f 175 169 168
f 176 175 118
f 168 118 175
f 118 168 119
f 170 119 168
f 119 170 177
f 114 119 172
f 172 119 177
f 173 174 178
f 178 174 179
f 178 121 116
f 178 116 173
f 123 180 122
f 180 181 122
f 181 118 122
f 181 176 118
f 178 179 182
f 182 179 183
f 182 125 121
f 182 121 178
f 127 184 128
f 128 184 185
f 186 128 185
f 129 128 186
f 123 129 180
f 129 187 180
f 129 186 187
f 180 187 181
f 182 183 188
f 188 183 189
f 188 131 125
f 188 125 182
f 133 190 132
f 191 134 132
f 191 132 190
f 191 192 134
f 134 192 127
f 192 193 127
f 193 184 127
f 184 193 185
f 188 189 194
f 194 189 195
f 196 135 131
f 188 196 131
f 194 196 188
f 196 197 135
f 135 197 133
f 197 198 133
f 198 190 133
f 190 198 191
f 191 198 199
f 191 199 192
f 195 200 194
f 194 200 196
f 196 200 201
f 196 201 197
f 204 203 202
f 202 205 204
f 208 207 206
f 208 206 203
f 206 202 203
f 206 209 202
f 205 202 210
f 210 202 209
f 206 207 211
f 211 207 212
f 214 209 213
f 209 211 213
f 209 206 211
f 209 214 210
f 211 212 215
f 215 212 216
f 213 211 217
f 211 218 217
f 211 215 218
f 218 219 217
f 215 216 220
f 220 216 221
f 215 222 218
f 215 220 222
f 219 218 223
f 218 224 223
f 218 222 224
f 224 225 223
f 220 221 138
f 221 137 138
f 221 226 137
f 220 138 139
f 227 220 139
f 222 220 227
f 229 224 228
f 224 227 228
f 224 222 227
f 224 229 225
f 232 231 230
f 226 232 230
f 141 226 230
f 137 226 141
f 234 233 227
f 139 234 227
f 142 234 139
f 227 233 228
f 230 231 235
f 235 231 236
f 235 144 141
f 235 141 230
f 145 234 142
f 145 237 234
f 240 239 238
f 240 238 236
f 238 235 236
f 238 241 235
f 241 147 144
f 241 144 235
f 148 237 145
f 148 242 237
f 238 239 243
f 243 239 244
f 238 245 241
f 238 243 245
f 245 150 147
f 245 147 241
f 151 242 148
f 151 246 242
f 243 244 247
f 247 244 248
f 243 249 245
f 243 247 249
f 250 152 150
f 245 250 150
f 249 250 245
f 250 251 152
f 251 151 152
f 251 246 151
f 254 253 252
f 254 252 248
f 252 247 248
f 252 255 247
f 247 256 249
f 247 255 256
f 249 257 250
f 249 256 257
f 251 250 258
f 258 250 257
f 252 253 259
f 259 253 260
f 252 261 255
f 252 259 261
f 255 262 256
f 255 261 262
f 264 257 263
f 257 262 263
f 257 256 262
f 257 264 258
f 259 260 265
f 265 260 266
f 259 267 261
f 259 265 267
f 269 262 268
f 262 267 268
f 262 261 267
f 262 269 263
f 266 270 265
f 265 270 267
f 267 270 271
f 267 271 268
f 274 273 272
f 272 275 274
f 276 153 154
f 156 276 154
f 272 273 277
f 277 273 278
f 275 272 279
f 272 280 279
f 272 277 280
f 282 281 280
f 280 281 279
f 282 283 281
f 286 285 284
f 157 158 284
f 158 286 284
f 158 287 286
f 289 287 288
f 287 159 288
f 287 158 159
f 153 276 159
f 276 288 159
f 276 290 288
f 161 290 156
f 156 290 276
f 277 278 291
f 291 278 292
f 277 293 280
f 277 291 293
f 295 282 294
f 282 293 294
f 282 280 293
f 282 295 283
f 298 297 296
f 298 296 285
f 285 296 284
f 296 164 284
f 164 165 284
f 284 165 157
f 299 289 288
f 299 288 290
f 299 290 300
f 302 300 301
f 301 300 166
f 300 290 166
f 290 161 166
f 167 303 166
f 166 303 301
f 169 303 167
f 291 292 171
f 292 170 171
f 292 304 170
f 293 291 305
f 291 172 305
f 172 306 305
f 172 291 171
f 293 305 294
f 296 297 307
f 307 297 308
f 307 174 164
f 307 164 296
f 309 302 301
f 309 301 303
f 309 303 310
f 310 303 169
f 175 310 169
f 311 310 175
f 304 177 170
f 177 304 312
f 311 312 304
f 312 311 176
f 175 176 311
f 312 313 177
f 313 172 177
f 313 306 172
f 307 308 314
f 314 308 315
f 314 179 174
f 314 174 307
f 317 316 312
f 176 317 312
f 181 317 176
f 312 316 313
f 314 315 318
f 318 315 319
f 318 183 179
f 318 179 314
f 185 320 186
f 321 187 186
f 321 186 320
f 321 322 187
f 322 181 187
f 322 317 181
f 318 319 323
f 323 319 324
f 323 189 183
f 323 183 318
f 192 325 193
f 325 326 193
f 193 326 185
f 326 327 185
f 327 320 185
f 320 327 321
f 321 327 328
f 321 328 322
f 323 324 329
f 329 324 330
f 329 195 189
f 329 189 323
f 197 331 198
f 332 199 198
f 332 198 331
f 325 192 199
f 332 325 199
f 333 325 332
f 326 325 334
f 325 335 334
f 325 333 335
f 335 336 334
f 339 338 337
f 339 337 330
f 337 329 330
f 337 340 329
f 341 200 195
f 329 341 195
f 340 341 329
f 342 201 200
f 342 200 341
f 342 343 201
f 201 343 197
f 343 344 197
f 344 331 197
f 346 345 344
f 345 331 344
f 345 332 331
f 332 347 333
f 332 345 347
f 333 348 335
f 333 347 348
f 336 335 349
f 349 335 348
f 337 338 350
f 350 338 351
f 337 352 340
f 337 350 352
f 352 203 204
f 341 352 204
f 340 352 341
f 341 204 205
f 353 341 205
f 342 341 353
f 343 342 354
f 342 355 354
f 342 353 355
f 354 355 346
f 355 345 346
f 355 356 345
f 345 357 347
f 345 356 357
f 347 358 348
f 347 357 358
f 349 348 359
f 359 348 358
f 350 351 360
f 360 351 361
f 360 207 208
f 352 360 208
f 350 360 352
f 352 208 203
f 210 362 353
f 210 353 205
f 364 355 363
f 355 362 363
f 355 353 362
f 355 364 356
f 356 364 365
f 356 365 357
f 357 365 366
f 368 367 366
f 367 357 366
f 367 358 357
f 359 358 369
f 369 358 367
f 360 361 370
f 370 361 371
f 370 212 207
f 370 207 360
f 373 372 214
f 373 214 213
f 210 214 362
f 214 374 362
f 214 372 374
f 362 374 363
f 368 375 367
f 367 375 369
f 370 371 376
f 376 371 377
f 376 216 212
f 376 212 370
f 378 373 213
f 378 213 217
f 217 219 378
f 378 219 379
f 376 377 380
f 380 377 381
f 380 221 216
f 380 216 376
f 382 379 219
f 382 219 223
f 384 383 225
f 383 223 225
f 383 382 223
f 384 385 383
f 380 381 386
f 386 381 387
f 386 226 221
f 386 221 380
f 228 388 229
f 388 389 229
f 229 389 225
f 389 390 225
f 390 384 225
f 384 390 385
f 386 387 232
f 387 231 232
f 387 391 231
f 386 232 226
f 234 392 233
f 388 228 233
f 392 388 233
f 393 388 392
f 389 388 394
f 394 388 393
f 397 396 395
f 391 397 395
f 236 391 395
f 231 391 236
f 399 398 392
f 234 399 392
f 237 399 234
f 392 398 393
f 393 398 400
f 393 400 394
f 395 396 240
f 396 239 240
f 396 401 239
f 395 240 236
f 242 399 237
f 242 402 399
f 401 244 239
f 403 244 401
f 246 402 242
f 246 404 402
f 407 406 405
f 409 408 405
f 405 408 407
f 403 408 409
f 248 403 409
f 244 403 248
f 251 404 246
f 251 410 404
f 405 406 411
f 411 406 412
f 411 253 254
f 409 411 254
f 405 411 409
f 409 254 248
f 258 410 251
f 258 413 410
f 416 415 414
f 414 417 416
f 411 412 418
f 418 412 419
f 418 260 253
f 418 253 411
f 263 420 264
f 413 258 421
f 258 420 421
f 420 422 421
f 258 264 420
f 421 422 415
f 422 414 415
f 422 423 414
f 417 414 424
f 424 414 423
f 418 419 425
f 425 419 426
f 425 266 260
f 425 260 418
f 268 427 269
f 420 263 269
f 427 420 269
f 428 420 427
f 420 429 422
f 420 428 429
f 431 423 430
f 423 429 430
f 423 422 429
f 423 431 424
f 426 432 425
f 432 434 433
f 432 433 270
f 425 432 270
f 266 425 270
f 435 271 270
f 435 270 433
f 435 436 271
f 271 436 268
f 436 437 268
f 437 427 268
f 439 438 437
f 438 427 437
f 438 428 427
f 441 429 440
f 429 438 440
f 429 428 438
f 429 441 430
f 434 442 433
f 433 442 435
f 435 442 443
f 435 443 436
f 439 444 438
f 438 444 440
f 447 446 445
f 273 274 445
f 274 447 445
f 274 448 447
f 450 449 275
f 449 274 275
f 449 448 274
f 452 451 450
f 450 451 449
f 452 453 451
f 446 454 445
f 273 445 454
f 455 273 454
f 278 273 455
f 279 450 275
f 450 279 281
f 450 281 452
f 281 283 452
f 283 453 452
f 283 456 453
f 459 458 457
f 285 286 457
f 286 459 457
f 286 460 459
f 461 286 287
f 461 460 286
f 287 289 461
f 461 289 462
f 455 292 278
f 463 292 455
f 294 464 295
f 464 465 295
f 465 283 295
f 465 456 283
f 468 467 466
f 468 466 458
f 458 466 457
f 466 297 457
f 297 298 457
f 457 298 285
f 469 462 289
f 469 289 299
f 470 299 300
f 470 469 299
f 300 302 470
f 470 302 471
f 463 304 292
f 472 304 463
f 306 473 305
f 464 294 305
f 473 464 305
f 474 464 473
f 465 464 475
f 475 464 474
f 466 467 476
f 476 467 477
f 476 308 297
f 476 297 466
f 478 471 302
f 478 302 309
f 479 309 310
f 479 478 309
f 480 310 311
f 480 479 310
f 311 304 472
f 311 472 480
f 313 481 473
f 313 473 306
f 483 474 482
f 474 481 482
f 474 473 481
f 474 483 475
f 476 477 484
f 484 477 485
f 484 315 308
f 484 308 476
f 317 486 316
f 481 313 316
f 486 481 316
f 487 481 486
f 482 481 488
f 488 481 487
f 484 485 489
f 489 485 490
f 489 319 315
f 489 315 484
f 492 491 486
f 317 492 486
f 322 492 317
f 486 491 487
f 487 491 493
f 487 493 488
f 489 490 494
f 494 490 495
f 494 324 319
f 494 319 489
f 326 496 327
f 497 328 327
f 497 327 496
f 497 498 328
f 498 322 328
f 498 492 322
f 494 495 499
f 499 495 500
f 499 330 324
f 499 324 494
f 334 496 326
f 497 496 501
f 496 336 501
f 336 502 501
f 336 496 334
f 497 501 498
f 499 500 339
f 500 338 339
f 500 503 338
f 499 339 330
f 343 504 344
f 504 346 344
f 349 502 336
f 349 505 502
f 503 351 338
f 506 351 503
f 354 504 343
f 504 354 346
f 359 505 349
f 359 507 505
f 506 361 351
f 508 361 506
f 363 509 364
f 510 365 364
f 510 364 509
f 511 366 365
f 511 365 510
f 511 368 366
f 369 507 359
f 369 512 507
f 514 371 513
f 371 508 513
f 371 361 508
f 515 514 513
f 373 516 372
f 517 374 372
f 517 372 516
f 517 518 374
f 374 518 363
f 518 519 363
f 519 509 363
f 509 519 510
f 510 519 520
f 510 520 511
f 511 520 521
f 511 521 368
f 521 375 368
f 521 522 375
f 369 375 512
f 512 375 522
f 525 524 523
f 523 526 525
f 528 527 514
f 527 371 514
f 527 377 371
f 528 514 515
f 378 516 373
f 516 378 379
f 529 516 379
f 517 516 529
f 518 517 530
f 517 531 530
f 517 529 531
f 531 532 530
f 535 534 533
f 535 533 524
f 533 523 524
f 533 536 523
f 526 523 537
f 523 538 537
f 523 536 538
f 538 539 537
f 527 381 377
f 540 381 527
f 382 529 379
f 529 382 383
f 529 383 531
f 383 385 531
f 385 532 531
f 385 541 532
f 534 542 533
f 544 543 542
f 543 533 542
f 543 536 533
f 546 538 545
f 538 543 545
f 538 536 543
f 538 546 539
f 549 548 547
f 540 549 547
f 387 540 547
f 381 540 387
f 389 550 390
f 550 551 390
f 551 385 390
f 551 541 385
f 544 552 543
f 543 552 545
f 547 548 553
f 553 548 554
f 553 391 387
f 553 387 547
f 556 555 550
f 389 556 550
f 394 556 389
f 550 555 551
f 553 554 397
f 554 396 397
f 554 557 396
f 553 397 391
f 399 558 398
f 398 558 559
f 560 398 559
f 400 398 560
f 394 400 556
f 556 400 560
f 557 401 396
f 561 401 557
f 563 562 558
f 399 563 558
f 402 563 399
f 558 562 559
f 561 403 401
f 564 403 561
f 404 566 565
f 563 404 565
f 402 404 563
f 566 567 565
f 569 568 407
f 407 568 406
f 570 407 408
f 570 569 407
f 408 403 564
f 408 564 570
f 410 571 566
f 410 566 404
f 567 566 572
f 566 573 572
f 566 571 573
f 573 574 572
f 568 412 406
f 575 412 568
f 413 576 571
f 413 571 410
f 576 415 416
f 573 576 416
f 571 576 573
f 416 417 573
f 417 574 573
f 417 577 574
f 575 419 412
f 578 419 575
f 421 576 413
f 576 421 415
f 424 577 417
f 424 579 577
f 578 426 419
f 580 426 578
f 582 581 431
f 582 431 430
f 424 431 579
f 579 431 581
f 580 583 426
f 426 583 432
f 434 432 583
f 434 583 584
f 436 585 437
f 585 439 437
f 587 586 441
f 587 441 440
f 430 441 582
f 582 441 586
f 584 588 434
f 434 588 442
f 442 589 443
f 588 589 442
f 436 443 585
f 443 590 585
f 443 589 590
f 585 590 439
f 590 444 439
f 590 591 444
f 440 444 587
f 587 444 591
f 593 592 447
f 447 592 446
f 594 447 448
f 594 593 447
f 595 448 449
f 595 594 448
f 597 595 596
f 595 451 596
f 595 449 451
f 453 596 451
f 600 599 598
f 602 601 598
f 598 601 600
f 602 603 601
f 606 605 604
f 604 607 454
f 592 604 454
f 446 592 454
f 604 592 606
f 607 455 454
f 608 597 596
f 596 453 608
f 453 609 608
f 453 456 609
f 612 611 610
f 458 459 610
f 459 612 610
f 459 613 612
f 460 598 599
f 613 460 599
f 459 460 613
f 598 460 461
f 598 461 602
f 461 462 602
f 462 603 602
f 462 614 603
f 604 605 615
f 615 605 616
f 604 617 607
f 604 615 617
f 617 463 455
f 617 455 607
f 465 619 618
f 609 465 618
f 456 465 609
f 619 620 618
f 610 611 468
f 611 467 468
f 611 621 467
f 610 468 458
f 622 614 462
f 622 462 469
f 623 469 470
f 623 622 469
f 625 624 471
f 624 470 471
f 624 623 470
f 624 625 616
f 625 615 616
f 625 626 615
f 615 627 617
f 615 626 627
f 627 472 463
f 627 463 617
f 475 628 619
f 475 619 465
f 620 619 629
f 629 619 628
f 621 477 467
f 630 477 621
f 478 625 471
f 625 478 479
f 625 479 626
f 626 479 480
f 626 480 627
f 627 480 472
f 482 631 483
f 631 632 483
f 483 632 475
f 632 633 475
f 633 628 475
f 628 633 629
f 635 485 634
f 485 630 634
f 485 477 630
f 636 635 634
f 488 637 631
f 488 631 482
f 632 631 638
f 638 631 637
f 639 490 635
f 635 490 485
f 635 636 640
f 635 640 639
f 492 641 491
f 642 493 491
f 642 491 641
f 637 488 493
f 642 637 493
f 643 637 642
f 638 637 644
f 644 637 643
f 645 495 639
f 639 495 490
f 639 640 646
f 639 646 645
f 498 647 641
f 498 641 492
f 641 648 642
f 641 647 648
f 650 643 649
f 643 648 649
f 643 642 648
f 643 650 644
f 651 500 645
f 645 500 495
f 645 646 652
f 645 652 651
f 502 653 501
f 647 498 501
f 653 647 501
f 654 647 653
f 647 655 648
f 647 654 655
f 649 648 656
f 656 648 655
f 658 657 651
f 657 500 651
f 657 503 500
f 658 651 652
f 505 659 653
f 505 653 502
f 653 660 654
f 653 659 660
f 654 661 655
f 654 660 661
f 656 655 662
f 662 655 661
f 657 506 503
f 663 506 657
f 507 664 659
f 507 659 505
f 666 660 665
f 660 664 665
f 660 659 664
f 660 666 661
f 661 666 667
f 661 667 662
f 663 508 506
f 668 508 663
f 512 669 664
f 512 664 507
f 665 664 670
f 670 664 669
f 513 508 671
f 508 672 671
f 508 668 672
f 671 515 513
f 518 673 519
f 674 520 519
f 674 519 673
f 675 521 520
f 675 520 674
f 676 522 521
f 676 521 675
f 669 512 522
f 676 669 522
f 677 669 676
f 525 678 524
f 678 669 524
f 669 677 524
f 669 678 670
f 525 526 678
f 678 526 679
f 682 681 680
f 680 683 682
f 671 672 528
f 672 527 528
f 672 684 527
f 671 528 515
f 530 673 518
f 674 673 685
f 673 532 685
f 532 686 685
f 532 673 530
f 674 685 675
f 675 685 687
f 675 687 676
f 676 687 688
f 689 534 535
f 676 689 535
f 677 676 535
f 688 689 676
f 677 535 524
f 690 679 526
f 690 526 537
f 691 680 539
f 680 690 539
f 690 537 539
f 680 681 690
f 683 680 692
f 692 680 691
f 684 540 527
f 693 540 684
f 541 695 694
f 686 541 694
f 532 541 686
f 697 696 695
f 695 696 694
f 699 698 697
f 697 698 696
f 699 700 542
f 689 699 542
f 534 689 542
f 699 689 698
f 700 544 542
f 545 701 546
f 691 539 546
f 701 691 546
f 702 691 701
f 692 691 703
f 703 691 702
f 704 548 549
f 705 704 549
f 540 705 549
f 693 705 540
f 551 706 695
f 551 695 541
f 695 707 697
f 695 706 707
f 697 708 699
f 697 707 708
f 699 709 700
f 699 708 709
f 710 552 544
f 700 710 544
f 709 710 700
f 710 711 552
f 552 711 545
f 711 712 545
f 712 701 545
f 701 712 702
f 702 712 713
f 702 713 703
f 715 714 704
f 714 548 704
f 714 554 548
f 715 704 705
f 556 716 555
f 716 717 555
f 555 717 551
f 717 718 551
f 718 706 551
f 706 718 707
f 707 718 719
f 707 719 708
f 708 719 720
f 708 720 709
f 709 720 721
f 709 721 710
f 710 721 722
f 710 722 711
f 714 557 554
f 723 557 714
f 559 724 560
f 724 725 560
f 560 725 556
f 725 726 556
f 726 716 556
f 716 726 717
f 723 561 557
f 727 561 723
f 563 728 562
f 728 729 562
f 562 729 559
f 729 730 559
f 730 724 559
f 724 730 725
f 727 564 561
f 731 564 727
f 565 728 563
f 565 567 728
f 567 729 728
f 567 732 729
f 733 568 569
f 733 569 734
f 569 735 734
f 569 570 735
f 570 564 731
f 570 731 735
f 736 732 567
f 736 567 572
f 572 574 736
f 736 574 737
f 739 738 733
f 738 568 733
f 738 575 568
f 739 733 734
f 577 737 574
f 577 740 737
f 738 578 575
f 741 578 738
f 579 740 577
f 579 742 740
f 741 580 578
f 743 580 741
f 745 744 581
f 745 581 582
f 579 581 742
f 742 581 744
f 743 746 580
f 580 746 583
f 584 583 746
f 584 746 747
f 750 749 748
f 752 751 748
f 752 748 749
f 586 587 751
f 752 586 751
f 753 586 752
f 582 586 745
f 745 586 753
f 747 754 584
f 584 754 588
f 588 755 589
f 754 755 588
f 748 590 750
f 590 755 750
f 590 589 755
f 590 748 591
f 591 748 751
f 591 751 587
f 756 592 593
f 594 757 593
f 593 757 756
f 595 758 594
f 594 758 757
f 597 758 595
f 761 760 759
f 599 600 759
f 600 761 759
f 600 762 761
f 763 600 601
f 763 762 600
f 765 764 603
f 764 601 603
f 764 763 601
f 767 766 765
f 765 766 764
f 769 768 767
f 767 768 766
f 605 606 769
f 606 768 769
f 606 770 768
f 606 592 756
f 771 606 756
f 770 606 771
f 771 756 757
f 771 757 772
f 772 757 758
f 772 758 773
f 775 773 774
f 774 773 608
f 773 758 608
f 758 597 608
f 609 774 608
f 776 611 612
f 760 777 759
f 777 612 759
f 612 613 759
f 612 777 776
f 759 613 599
f 614 778 765
f 614 765 603
f 765 779 767
f 765 778 779
f 767 780 769
f 767 779 780
f 780 616 605
f 780 605 769
f 781 775 774
f 783 781 782
f 782 781 618
f 781 774 618
f 774 609 618
f 620 782 618
f 784 621 776
f 776 621 611
f 776 777 785
f 776 785 784
f 622 778 614
f 778 622 623
f 778 623 779
f 779 623 624
f 779 624 780
f 780 624 616
f 786 783 782
f 782 620 786
f 620 787 786
f 620 629 787
f 788 630 784
f 784 630 621
f 784 785 789
f 790 784 789
f 788 784 790
f 791 790 789
f 632 792 633
f 792 793 633
f 793 629 633
f 793 787 629
f 788 634 630
f 634 788 636
f 788 794 636
f 788 790 794
f 790 791 795
f 790 795 794
f 638 796 792
f 638 792 632
f 793 792 797
f 797 792 796
f 798 640 794
f 794 640 636
f 794 795 799
f 794 799 798
f 644 800 796
f 644 796 638
f 797 796 801
f 801 796 800
f 803 802 798
f 802 640 798
f 802 646 640
f 803 798 799
f 649 804 650
f 800 644 650
f 804 800 650
f 805 800 804
f 801 800 806
f 806 800 805
f 802 652 646
f 807 652 802
f 656 808 804
f 656 804 649
f 810 805 809
f 805 808 809
f 805 804 808
f 805 810 806
f 812 811 658
f 658 811 657
f 658 652 807
f 658 807 812
f 814 813 808
f 656 814 808
f 662 814 656
f 808 813 809
f 811 663 657
f 815 663 811
f 665 816 666
f 817 667 666
f 817 666 816
f 817 818 667
f 818 662 667
f 818 814 662
f 815 668 663
f 819 668 815
f 670 820 816
f 670 816 665
f 816 821 817
f 816 820 821
f 818 817 822
f 817 823 822
f 817 821 823
f 823 824 822
f 827 826 825
f 819 827 825
f 672 819 825
f 668 819 672
f 678 820 670
f 820 678 679
f 828 820 679
f 821 820 828
f 828 681 682
f 823 828 682
f 821 828 823
f 682 683 823
f 683 824 823
f 683 829 824
f 825 826 830
f 830 826 831
f 830 684 672
f 830 672 825
f 686 832 685
f 833 687 685
f 833 685 832
f 834 688 687
f 834 687 833
f 834 689 688
f 690 828 679
f 828 690 681
f 692 829 683
f 692 835 829
f 830 831 836
f 836 831 837
f 836 693 684
f 836 684 830
f 694 832 686
f 832 694 696
f 832 696 833
f 833 696 698
f 833 698 834
f 834 698 689
f 703 835 692
f 703 838 835
f 836 837 839
f 839 837 840
f 839 705 693
f 839 693 836
f 711 841 712
f 842 713 712
f 842 712 841
f 842 843 713
f 843 703 713
f 843 838 703
f 839 840 715
f 840 714 715
f 840 844 714
f 839 715 705
f 717 845 718
f 846 719 718
f 846 718 845
f 847 720 719
f 847 719 846
f 848 721 720
f 848 720 847
f 849 722 721
f 849 721 848
f 841 711 722
f 849 841 722
f 850 841 849
f 841 851 842
f 841 850 851
f 843 842 852
f 852 842 851
f 855 854 853
f 844 855 853
f 723 844 853
f 714 844 723
f 725 856 726
f 845 717 726
f 856 845 726
f 857 845 856
f 845 858 846
f 845 857 858
f 846 859 847
f 846 858 859
f 847 860 848
f 847 859 860
f 848 861 849
f 848 860 861
f 863 850 862
f 850 861 862
f 850 849 861
f 850 863 851
f 851 863 864
f 851 864 852
f 853 854 865
f 865 854 866
f 865 727 723
f 865 723 853
f 729 867 730
f 856 725 730
f 867 856 730
f 868 856 867
f 856 869 857
f 856 868 869
f 857 870 858
f 857 869 870
f 858 871 859
f 858 870 871
f 859 872 860
f 859 871 872
f 874 861 873
f 861 872 873
f 861 860 872
f 861 874 862
f 877 876 875
f 877 875 866
f 875 865 866
f 875 878 865
f 878 731 727
f 878 727 865
f 732 879 867
f 732 867 729
f 881 868 880
f 868 879 880
f 868 867 879
f 868 881 869
f 869 881 882
f 869 882 870
f 870 882 883
f 870 883 871
f 871 883 884
f 871 884 872
f 872 884 885
f 872 885 873
f 875 876 886
f 886 876 887
f 886 734 735
f 878 886 735
f 875 886 878
f 878 735 731
f 736 879 732
f 889 888 737
f 737 888 736
f 888 880 736
f 880 879 736
f 889 890 888
f 891 738 739
f 887 892 886
f 893 886 892
f 893 734 886
f 893 891 739
f 734 893 739
f 740 894 889
f 740 889 737
f 890 889 895
f 895 889 894
f 897 896 891
f 896 738 891
f 896 741 738
f 897 891 893
f 899 898 894
f 740 899 894
f 742 899 740
f 894 898 895
f 901 743 900
f 743 896 900
f 743 741 896
f 902 901 900
f 905 904 903
f 907 906 903
f 907 903 904
f 908 906 907
f 911 910 909
f 744 745 909
f 910 744 909
f 912 744 910
f 742 744 899
f 899 744 912
f 901 746 743
f 914 913 747
f 914 747 746
f 902 914 746
f 901 902 746
f 913 914 905
f 903 913 905
f 915 913 903
f 750 915 749
f 915 906 749
f 915 903 906
f 908 916 906
f 916 749 906
f 916 752 749
f 909 753 911
f 753 916 911
f 753 752 916
f 753 909 745
f 913 754 747
f 754 913 755
f 755 913 915
f 755 915 750
f 917 760 761
f 762 918 761
f 761 918 917
f 763 919 762
f 762 919 918
f 764 920 763
f 763 920 919
f 766 921 764
f 764 921 920
f 768 922 766
f 766 922 921
f 770 923 768
f 768 923 922
f 771 924 770
f 770 924 923
f 772 925 771
f 771 925 924
f 773 926 772
f 772 926 925
f 775 926 773
f 927 777 917
f 917 777 760
f 928 917 918
f 927 917 928
f 919 930 929
f 928 919 929
f 918 919 928
f 930 919 920
f 930 920 931
f 931 920 921
f 931 921 932
f 932 921 922
f 932 922 933
f 933 922 923
f 933 923 934
f 934 923 924
f 934 924 935
f 935 924 925
f 935 925 936
f 938 937 936
f 925 938 936
f 926 938 925
f 781 939 775
f 939 926 775
f 939 938 926
f 783 939 781
f 940 785 927
f 927 785 777
f 941 927 928
f 940 927 941
f 928 929 942
f 928 942 941
f 943 937 938
f 943 938 939
f 943 939 944
f 946 944 945
f 945 944 786
f 944 939 786
f 939 783 786
f 787 945 786
f 940 789 785
f 940 941 947
f 791 940 947
f 948 791 947
f 940 791 789
f 947 941 942
f 949 946 945
f 787 793 945
f 793 950 945
f 950 949 945
f 950 793 951
f 951 952 950
f 948 795 791
f 953 795 948
f 797 954 951
f 797 951 793
f 952 951 955
f 955 951 954
f 953 799 795
f 956 799 953
f 801 957 954
f 801 954 797
f 955 954 958
f 958 954 957
f 959 802 803
f 960 959 803
f 799 960 803
f 956 960 799
f 806 961 957
f 806 957 801
f 958 957 962
f 962 957 961
f 964 963 959
f 963 802 959
f 963 807 802
f 964 959 960
f 809 965 810
f 961 806 810
f 965 961 810
f 966 961 965
f 962 961 967
f 967 961 966
f 968 811 812
f 969 968 812
f 807 969 812
f 963 969 807
f 814 970 813
f 965 809 813
f 970 965 813
f 971 965 970
f 973 966 972
f 966 971 972
f 966 965 971
f 966 973 967
f 975 974 968
f 974 811 968
f 974 815 811
f 975 968 969
f 818 976 970
f 818 970 814
f 978 971 977
f 971 976 977
f 971 970 976
f 971 978 972
f 981 980 979
f 974 981 979
f 819 974 979
f 815 974 819
f 822 976 818
f 822 824 976
f 824 977 976
f 824 982 977
f 979 980 827
f 980 826 827
f 980 983 826
f 979 827 819
f 829 982 824
f 829 984 982
f 983 831 826
f 985 831 983
f 835 987 986
f 984 835 986
f 829 835 984
f 987 988 986
f 985 837 831
f 989 837 985
f 838 990 987
f 838 987 835
f 988 987 991
f 991 987 990
f 989 840 837
f 992 840 989
f 843 993 990
f 843 990 838
f 991 990 994
f 994 990 993
f 992 844 840
f 995 844 992
f 852 996 993
f 852 993 843
f 994 993 997
f 997 993 996
f 998 854 855
f 999 998 855
f 844 999 855
f 995 999 844
f 862 1000 863
f 1001 864 863
f 1001 863 1000
f 1001 1002 864
f 864 1002 852
f 1002 1003 852
f 1003 996 852
f 996 1003 997
f 1004 866 998
f 998 866 854
f 998 999 1005
f 998 1005 1004
f 873 1006 874
f 1006 1007 874
f 874 1007 862
f 1007 1008 862
f 1008 1000 862
f 1000 1008 1001
f 1001 1008 1009
f 1001 1009 1002
f 1010 876 877
f 1011 1010 877
f 1011 877 866
f 1012 1011 866
f 1004 1012 866
f 1012 1004 1005
f 880 1013 881
f 1014 882 881
f 1014 881 1013
f 1015 883 882
f 1015 882 1014
f 1016 884 883
f 1016 883 1015
f 884 1016 1017
f 1018 884 1017
f 885 884 1018
f 873 885 1006
f 885 1019 1006
f 885 1018 1019
f 1006 1019 1007
f 1020 887 1010
f 1010 887 876
f 1010 1011 1021
f 1010 1021 1020
f 888 1013 880
f 1013 888 890
f 1022 1013 890
f 1014 1013 1022
f 1024 1015 1023
f 1015 1022 1023
f 1015 1014 1022
f 1015 1024 1016
f 1016 1024 1025
f 1016 1025 1017
f 1020 892 887
f 1027 1026 893
f 1027 893 892
f 1021 1027 892
f 1020 1021 892
f 1028 1026 1027
f 1030 1029 1022
f 890 1030 1022
f 895 1030 890
f 1022 1029 1023
f 1031 896 897
f 893 1026 897
f 1026 1031 897
f 1026 1032 1031
f 1026 1028 1033
f 1026 1033 1032
f 1036 1035 1034
f 898 899 1034
f 1035 898 1034
f 1037 898 1035
f 895 898 1030
f 1030 898 1037
f 1031 900 896
f 900 1031 902
f 1031 1038 902
f 1031 1032 1038
f 1039 904 905
f 1032 1039 905
f 1038 1032 905
f 1039 1032 1033
f 904 1040 907
f 1039 1040 904
f 1042 1041 908
f 907 1042 908
f 1040 1042 907
f 910 911 1041
f 1042 910 1041
f 1043 910 1042
f 1034 912 1036
f 912 1043 1036
f 912 910 1043
f 912 1034 899
f 1038 914 902
f 914 1038 905
f 1041 916 908
f 916 1041 911
f 1044 929 930
f 931 1045 930
f 930 1045 1044
f 932 1046 931
f 931 1046 1045
f 933 1047 932
f 932 1047 1046
f 934 1048 933
f 933 1048 1047
f 935 1049 934
f 934 1049 1048
f 936 1050 935
f 935 1050 1049
f 937 1050 936
f 1051 942 1044
f 1044 942 929
f 1052 1044 1045
f 1051 1044 1052
f 1053 1045 1046
f 1052 1045 1053
f 1054 1046 1047
f 1053 1046 1054
f 1055 1047 1048
f 1054 1047 1055
f 1056 1048 1049
f 1055 1048 1056
f 1057 1049 1050
f 1056 1049 1057
f 943 1058 937
f 1058 1050 937
f 1058 1057 1050
f 944 1059 943
f 943 1059 1058
f 946 1059 944
f 1060 948 947
f 942 1051 947
f 1051 1060 947
f 1051 1061 1060
f 1052 1063 1062
f 1061 1052 1062
f 1051 1052 1061
f 1063 1052 1053
f 1063 1053 1064
f 1064 1053 1054
f 1064 1054 1065
f 1065 1054 1055
f 1065 1055 1066
f 1066 1055 1056
f 1066 1056 1067
f 1067 1056 1057
f 1067 1057 1068
f 1070 1069 1068
f 1057 1070 1068
f 1058 1070 1057
f 1071 1058 1059
f 1070 1058 1071
f 1071 1059 946
f 1072 1071 946
f 949 1072 946
f 1073 1071 1072
f 1074 949 950
f 1074 1072 949
f 950 952 1074
f 1074 952 1075
f 1076 953 1060
f 1060 953 948
f 1061 1078 1077
f 1076 1061 1077
f 1060 1061 1076
f 1078 1061 1062
f 1079 1069 1070
f 1079 1070 1071
f 1079 1071 1080
f 1080 1071 1073
f 955 1075 952
f 955 1081 1075
f 1082 956 1076
f 1076 956 953
f 1076 1077 1083
f 1076 1083 1082
f 958 1085 1084
f 1081 958 1084
f 955 958 1081
f 1085 1086 1084
f 1088 1087 1082
f 1087 956 1082
f 1087 960 956
f 1088 1082 1083
f 962 1089 1085
f 962 1085 958
f 1086 1085 1090
f 1090 1085 1089
f 1092 1091 964
f 964 1091 963
f 964 960 1087
f 964 1087 1092
f 1094 1093 1089
f 962 1094 1089
f 967 1094 962
f 1089 1093 1090
f 1091 969 963
f 1095 969 1091
f 972 1096 973
f 1096 1097 973
f 1097 967 973
f 1097 1094 967
f 1099 1098 975
f 975 1098 974
f 975 969 1095
f 975 1095 1099
f 977 1100 978
f 1100 1101 978
f 978 1101 972
f 1101 1102 972
f 1102 1096 972
f 1096 1102 1097
f 1103 980 981
f 1104 1103 981
f 974 1104 981
f 1098 1104 974
f 1106 1105 1100
f 977 1106 1100
f 982 1106 977
f 1100 1105 1101
f 1108 1107 1103
f 1107 980 1103
f 1107 983 980
f 1108 1103 1104
f 984 1106 982
f 984 1109 1106
f 1107 985 983
f 1110 985 1107
f 984 986 1111
f 1112 984 1111
f 1109 984 1112
f 988 1111 986
f 1114 989 1113
f 989 1110 1113
f 989 985 1110
f 1115 1114 1113
f 1116 1112 1111
f 1111 988 1116
f 988 1117 1116
f 988 991 1117
f 1118 992 1114
f 1114 992 989
f 1114 1115 1119
f 1120 1114 1119
f 1118 1114 1120
f 1121 1120 1119
f 994 1117 991
f 994 1122 1117
f 1123 995 1118
f 1118 995 992
f 1124 1118 1120
f 1123 1118 1124
f 1120 1121 1125
f 1120 1125 1124
f 997 1127 1126
f 1122 997 1126
f 994 997 1122
f 1127 1128 1126
f 1129 999 1123
f 1123 999 995
f 1130 1123 1124
f 1129 1123 1130
f 1124 1125 1131
f 1132 1124 1131
f 1130 1124 1132
f 1133 1132 1131
f 1135 1134 1003
f 1135 1003 1002
f 1003 1134 997
f 1134 1136 997
f 1136 1127 997
f 1136 1134 1137
f 1128 1127 1138
f 1138 1127 1136
f 1139 1005 1129
f 1129 1005 999
f 1140 1129 1130
f 1139 1129 1140
f 1141 1130 1132
f 1140 1130 1141
f 1132 1133 1142
f 1132 1142 1141
f 1007 1143 1008
f 1144 1009 1008
f 1144 1008 1143
f 1144 1145 1009
f 1145 1002 1009
f 1145 1135 1002
f 1137 1146 1136
f 1136 1146 1138
f 1147 1011 1012
f 1005 1139 1012
f 1139 1147 1012
f 1139 1148 1147
f 1149 1139 1140
f 1148 1139 1149
f 1150 1140 1141
f 1149 1140 1150
f 1141 1142 1151
f 1141 1151 1150
f 1017 1152 1018
f 1153 1019 1018
f 1153 1018 1152
f 1143 1007 1019
f 1153 1143 1019
f 1154 1143 1153
f 1143 1155 1144
f 1143 1154 1155
f 1145 1144 1156
f 1156 1144 1155
f 1157 1021 1147
f 1147 1021 1011
f 1158 1147 1148
f 1157 1147 1158
f 1149 1160 1159
f 1158 1149 1159
f 1148 1149 1158
f 1160 1149 1150
f 1160 1150 1161
f 1161 1150 1151
f 1023 1162 1024
f 1163 1025 1024
f 1163 1024 1162
f 1163 1164 1025
f 1025 1164 1017
f 1164 1165 1017
f 1165 1152 1017
f 1152 1165 1153
f 1153 1165 1166
f 1153 1166 1154
f 1154 1166 1167
f 1154 1167 1155
f 1155 1167 1168
f 1155 1168 1156
f 1157 1027 1021
f 1027 1157 1028
f 1157 1169 1028
f 1157 1158 1169
f 1158 1159 1170
f 1158 1170 1169
f 1173 1172 1171
f 1029 1030 1171
f 1172 1029 1171
f 1174 1029 1172
f 1023 1029 1162
f 1029 1175 1162
f 1029 1174 1175
f 1162 1175 1163
f 1163 1175 1176
f 1163 1176 1164
f 1177 1033 1169
f 1169 1033 1028
f 1169 1170 1178
f 1179 1169 1178
f 1177 1169 1179
f 1181 1180 1179
f 1181 1179 1178
f 1183 1182 1180
f 1183 1180 1181
f 1035 1036 1182
f 1183 1035 1182
f 1184 1035 1183
f 1171 1037 1173
f 1037 1184 1173
f 1037 1035 1184
f 1037 1171 1030
f 1177 1039 1033
f 1039 1177 1040
f 1040 1177 1179
f 1040 1179 1042
f 1042 1179 1180
f 1042 1180 1043
f 1043 1180 1182
f 1043 1182 1036
f 1185 1062 1063
f 1064 1186 1063
f 1063 1186 1185
f 1065 1187 1064
f 1064 1187 1186
f 1066 1188 1065
f 1065 1188 1187
f 1067 1189 1066
f 1066 1189 1188
f 1068 1190 1067
f 1067 1190 1189
f 1069 1190 1068
f 1191 1073 1072
f 1191 1072 1192
f 1072 1193 1192
f 1072 1074 1193
f 1074 1075 1193
f 1193 1075 1194
f 1195 1077 1078
f 1062 1185 1078
f 1185 1195 1078
f 1185 1196 1195
f 1197 1185 1186
f 1196 1185 1197
f 1187 1199 1198
f 1197 1187 1198
f 1186 1187 1197
f 1199 1187 1188
f 1199 1188 1200
f 1200 1188 1189
f 1200 1189 1201
f 1201 1189 1190
f 1201 1190 1202
f 1202 1190 1069
f 1079 1202 1069
f 1203 1202 1079
f 1204 1079 1080
f 1204 1203 1079
f 1080 1073 1191
f 1205 1080 1191
f 1204 1080 1205
f 1205 1191 1192
f 1081 1207 1206
f 1194 1081 1206
f 1075 1081 1194
f 1207 1208 1206
f 1209 1083 1195
f 1195 1083 1077
f 1196 1211 1210
f 1209 1196 1210
f 1195 1196 1209
f 1211 1196 1197
f 1211 1197 1212
f 1212 1197 1198
f 1084 1207 1081
f 1084 1086 1207
f 1086 1208 1207
f 1086 1213 1208
f 1214 1087 1088
f 1215 1214 1088
f 1215 1088 1083
f 1216 1215 1083
f 1209 1216 1083
f 1216 1209 1210
f 1090 1213 1086
f 1090 1217 1213
f 1218 1091 1092
f 1087 1214 1092
f 1214 1218 1092
f 1214 1219 1218
f 1214 1215 1220
f 1214 1220 1219
f 1094 1221 1093
f 1221 1222 1093
f 1222 1090 1093
f 1222 1217 1090
f 1223 1095 1218
f 1218 1095 1091
f 1219 1225 1224
f 1223 1219 1224
f 1218 1219 1223
f 1225 1219 1220
f 1227 1226 1221
f 1094 1227 1221
f 1097 1227 1094
f 1221 1226 1222
f 1228 1098 1099
f 1229 1228 1099
f 1229 1099 1095
f 1230 1229 1095
f 1223 1230 1095
f 1230 1223 1224
f 1101 1231 1102
f 1231 1232 1102
f 1232 1097 1102
f 1232 1227 1097
f 1233 1104 1228
f 1228 1104 1098
f 1228 1229 1234
f 1228 1234 1233
f 1106 1235 1105
f 1235 1236 1105
f 1105 1236 1101
f 1236 1237 1101
f 1237 1231 1101
f 1231 1237 1232
f 1238 1107 1108
f 1104 1233 1108
f 1233 1238 1108
f 1233 1239 1238
f 1233 1234 1240
f 1241 1233 1240
f 1239 1233 1241
f 1242 1241 1240
f 1244 1243 1235
f 1106 1244 1235
f 1109 1244 1106
f 1235 1243 1236
f 1245 1110 1238
f 1238 1110 1107
f 1246 1238 1239
f 1245 1238 1246
f 1247 1239 1241
f 1246 1239 1247
f 1241 1242 1248
f 1241 1248 1247
f 1112 1244 1109
f 1112 1249 1244
f 1245 1113 1110
f 1113 1245 1115
f 1245 1250 1115
f 1245 1246 1250
f 1251 1246 1247
f 1250 1246 1251
f 1247 1248 1252
f 1247 1252 1251
f 1253 1249 1112
f 1253 1112 1116
f 1116 1117 1253
f 1253 1117 1254
f 1250 1119 1115
f 1119 1250 1121
f 1250 1255 1121
f 1250 1251 1255
f 1251 1252 1256
f 1251 1256 1255
f 1122 1258 1257
f 1254 1122 1257
f 1117 1122 1254
f 1258 1259 1257
f 1260 1125 1255
f 1255 1125 1121
f 1255 1256 1261
f 1255 1261 1260
f 1126 1258 1122
f 1126 1128 1258
f 1128 1259 1258
f 1128 1262 1259
f 1260 1131 1125
f 1264 1263 1133
f 1264 1133 1131
f 1261 1264 1131
f 1260 1261 1131
f 1265 1263 1264
f 1135 1266 1134
f 1266 1137 1134
f 1138 1262 1128
f 1138 1267 1262
f 1268 1142 1263
f 1263 1142 1133
f 1263 1265 1269
f 1263 1269 1268
f 1145 1270 1266
f 1145 1266 1135
f 1266 1270 1137
f 1270 1271 1137
f 1271 1146 1137
f 1270 1272 1271
f 1138 1146 1267
f 1267 1146 1271
f 1273 1151 1268
f 1268 1151 1142
f 1268 1269 1274
f 1268 1274 1273
f 1156 1275 1270
f 1156 1270 1145
f 1272 1270 1276
f 1276 1270 1275
f 1277 1159 1160
f 1161 1278 1160
f 1160 1278 1277
f 1279 1278 1161
f 1279 1161 1151
f 1280 1279 1151
f 1273 1280 1151
f 1280 1273 1274
f 1283 1282 1281
f 1165 1164 1281
f 1282 1165 1281
f 1284 1165 1282
f 1165 1285 1166
f 1284 1285 1165
f 1166 1286 1167
f 1285 1286 1166
f 1167 1287 1168
f 1286 1287 1167
f 1156 1168 1275
f 1168 1288 1275
f 1168 1287 1288
f 1275 1288 1276
f 1289 1170 1277
f 1277 1170 1159
f 1290 1277 1278
f 1289 1277 1290
f 1278 1279 1291
f 1278 1291 1290
f 1293 1292 1172
f 1293 1172 1173
f 1172 1294 1174
f 1292 1294 1172
f 1174 1295 1175
f 1294 1295 1174
f 1281 1176 1283
f 1176 1295 1283
f 1176 1175 1295
f 1176 1281 1164
f 1289 1178 1170
f 1178 1289 1181
f 1181 1289 1290
f 1291 1296 1290
f 1296 1181 1290
f 1296 1183 1181
f 1183 1297 1184
f 1296 1297 1183
f 1173 1184 1293
f 1293 1184 1297
f 1298 1192 1193
f 1194 1298 1193
f 1299 1198 1199
f 1200 1300 1199
f 1199 1300 1299
f 1201 1301 1200
f 1200 1301 1300
f 1202 1302 1201
f 1201 1302 1301
f 1203 1303 1202
f 1202 1303 1302
f 1204 1304 1203
f 1203 1304 1303
f 1205 1305 1204
f 1204 1305 1304
f 1192 1298 1205
f 1298 1305 1205
f 1298 1306 1305
f 1306 1298 1194
f 1307 1306 1194
f 1206 1307 1194
f 1308 1306 1307
f 1206 1208 1307
f 1307 1208 1309
f 1310 1210 1211
f 1212 1311 1211
f 1211 1311 1310
f 1198 1299 1212
f 1299 1311 1212
f 1299 1312 1311
f 1313 1299 1300
f 1312 1299 1313
f 1314 1300 1301
f 1313 1300 1314
f 1315 1301 1302
f 1314 1301 1315
f 1303 1317 1316
f 1315 1303 1316
f 1302 1303 1315
f 1317 1303 1304
f 1317 1304 1318
f 1318 1304 1305
f 1318 1305 1319
f 1319 1305 1306
f 1319 1306 1320
f 1320 1306 1308
f 1213 1322 1321
f 1309 1213 1321
f 1208 1213 1309
f 1322 1323 1321
f 1324 1215 1216
f 1210 1310 1216
f 1310 1324 1216
f 1310 1325 1324
f 1311 1327 1326
f 1325 1311 1326
f 1310 1311 1325
f 1327 1311 1312
f 1327 1312 1328
f 1328 1312 1313
f 1328 1313 1329
f 1329 1313 1314
f 1329 1314 1330
f 1330 1314 1315
f 1330 1315 1331
f 1331 1315 1316
f 1217 1332 1322
f 1217 1322 1213
f 1323 1322 1333
f 1333 1322 1332
f 1334 1220 1324
f 1324 1220 1215
f 1325 1336 1335
f 1334 1325 1335
f 1324 1325 1334
f 1336 1325 1326
f 1338 1337 1332
f 1217 1338 1332
f 1222 1338 1217
f 1332 1337 1333
f 1339 1224 1225
f 1340 1339 1225
f 1340 1225 1220
f 1341 1340 1220
f 1334 1341 1220
f 1341 1334 1335
f 1227 1342 1226
f 1342 1343 1226
f 1343 1222 1226
f 1343 1338 1222
f 1344 1229 1230
f 1224 1339 1230
f 1339 1344 1230
f 1339 1345 1344
f 1339 1340 1346
f 1339 1346 1345
f 1348 1347 1342
f 1227 1348 1342
f 1232 1348 1227
f 1342 1347 1343
f 1349 1234 1344
f 1344 1234 1229
f 1345 1351 1350
f 1349 1345 1350
f 1344 1345 1349
f 1351 1345 1346
f 1236 1352 1237
f 1352 1353 1237
f 1353 1232 1237
f 1353 1348 1232
f 1349 1240 1234
f 1242 1240 1349
f 1350 1242 1349
f 1354 1242 1350
f 1244 1355 1243
f 1352 1236 1243
f 1355 1352 1243
f 1356 1352 1355
f 1353 1352 1357
f 1357 1352 1356
f 1359 1248 1358
f 1248 1354 1358
f 1248 1242 1354
f 1360 1359 1358
f 1249 1361 1355
f 1249 1355 1244
f 1363 1356 1362
f 1356 1361 1362
f 1356 1355 1361
f 1356 1363 1357
f 1364 1252 1359
f 1359 1252 1248
f 1359 1360 1365
f 1359 1365 1364
f 1253 1361 1249
f 1367 1366 1254
f 1254 1366 1253
f 1366 1362 1253
f 1362 1361 1253
f 1367 1368 1366
f 1369 1256 1364
f 1364 1256 1252
f 1364 1365 1370
f 1364 1370 1369
f 1257 1367 1254
f 1257 1259 1367
f 1259 1368 1367
f 1259 1371 1368
f 1372 1261 1369
f 1369 1261 1256
f 1369 1370 1373
f 1369 1373 1372
f 1262 1371 1259
f 1262 1374 1371
f 1372 1264 1261
f 1376 1375 1265
f 1376 1265 1264
f 1373 1376 1264
f 1372 1373 1264
f 1377 1375 1376
f 1267 1374 1262
f 1267 1378 1374
f 1379 1269 1375
f 1375 1269 1265
f 1375 1377 1380
f 1375 1380 1379
f 1272 1381 1271
f 1381 1382 1271
f 1382 1267 1271
f 1382 1378 1267
f 1383 1274 1379
f 1379 1274 1269
f 1379 1380 1384
f 1379 1384 1383
f 1386 1385 1381
f 1272 1386 1381
f 1276 1386 1272
f 1381 1385 1382
f 1387 1279 1280
f 1388 1387 1280
f 1388 1280 1274
f 1389 1388 1274
f 1383 1389 1274
f 1389 1383 1384
f 1392 1391 1390
f 1282 1283 1390
f 1391 1282 1390
f 1393 1282 1391
f 1282 1394 1284
f 1393 1394 1282
f 1284 1395 1285
f 1394 1395 1284
f 1395 1397 1396
f 1286 1395 1396
f 1285 1395 1286
f 1398 1287 1286
f 1398 1286 1396
f 1399 1288 1287
f 1399 1287 1398
f 1399 1400 1288
f 1400 1276 1288
f 1400 1386 1276
f 1401 1291 1387
f 1387 1291 1279
f 1387 1388 1402
f 1403 1387 1402
f 1401 1387 1403
f 1292 1293 1403
f 1402 1292 1403
f 1404 1292 1402
f 1292 1405 1294
f 1404 1405 1292
f 1390 1295 1392
f 1295 1405 1392
f 1295 1294 1405
f 1295 1390 1283
f 1397 1406 1396
f 1396 1406 1398
f 1398 1406 1407
f 1398 1407 1399
f 1399 1407 1408
f 1399 1408 1400
f 1401 1296 1291
f 1296 1401 1297
f 1297 1401 1403
f 1297 1403 1293
f 1409 1308 1307
f 1309 1409 1307
f 1410 1316 1317
f 1318 1411 1317
f 1317 1411 1410
f 1411 1318 1412
f 1318 1413 1412
f 1318 1319 1413
f 1414 1319 1320
f 1414 1413 1319
f 1320 1308 1409
f 1415 1320 1409
f 1414 1320 1415
f 1417 1415 1416
f 1416 1415 1321
f 1415 1409 1321
f 1409 1309 1321
f 1323 1416 1321
f 1418 1326 1327
f 1328 1419 1327
f 1327 1419 1418
f 1329 1420 1328
f 1328 1420 1419
f 1420 1329 1421
f 1329 1422 1421
f 1329 1330 1422
f 1424 1422 1423
f 1422 1331 1423
f 1422 1330 1331
f 1425 1423 1331
f 1425 1331 1316
f 1426 1425 1316
f 1410 1426 1316
f 1426 1410 1411
f 1426 1411 1427
f 1427 1411 1412
f 1428 1417 1416
f 1416 1323 1428
f 1323 1429 1428
f 1323 1333 1429
f 1430 1335 1336
f 1326 1418 1336
f 1418 1430 1336
f 1418 1431 1430
f 1419 1433 1432
f 1431 1419 1432
f 1418 1419 1431
f 1433 1419 1420
f 1433 1420 1434
f 1434 1420 1421
f 1435 1424 1423
f 1435 1423 1425
f 1437 1436 1337
f 1437 1337 1338
f 1333 1337 1429
f 1429 1337 1436
f 1438 1340 1341
f 1439 1438 1341
f 1439 1341 1335
f 1440 1439 1335
f 1430 1440 1335
f 1440 1430 1431
f 1440 1431 1441
f 1441 1431 1432
f 1343 1437 1338
f 1343 1442 1437
f 1444 1443 1438
f 1443 1340 1438
f 1443 1346 1340
f 1444 1438 1439
f 1446 1445 1347
f 1446 1347 1348
f 1343 1347 1442
f 1442 1347 1445
f 1447 1350 1351
f 1448 1447 1351
f 1346 1448 1351
f 1443 1448 1346
f 1353 1446 1348
f 1353 1449 1446
f 1450 1354 1447
f 1447 1354 1350
f 1447 1448 1451
f 1447 1451 1450
f 1357 1449 1353
f 1357 1452 1449
f 1450 1358 1354
f 1360 1358 1450
f 1451 1360 1450
f 1453 1360 1451
f 1455 1454 1363
f 1455 1363 1362
f 1357 1363 1452
f 1452 1363 1454
f 1457 1365 1456
f 1365 1453 1456
f 1365 1360 1453
f 1458 1457 1456
f 1362 1366 1459
f 1460 1362 1459
f 1455 1362 1460
f 1368 1459 1366
f 1461 1370 1457
f 1457 1370 1365
f 1457 1458 1462
f 1457 1462 1461
f 1463 1460 1459
f 1459 1368 1463
f 1368 1464 1463
f 1368 1371 1464
f 1465 1373 1461
f 1461 1373 1370
f 1461 1462 1466
f 1467 1461 1466
f 1465 1461 1467
f 1468 1467 1466
f 1374 1464 1371
f 1374 1469 1464
f 1465 1376 1373
f 1376 1465 1377
f 1465 1470 1377
f 1465 1467 1470
f 1467 1468 1471
f 1467 1471 1470
f 1378 1469 1374
f 1378 1472 1469
f 1473 1380 1470
f 1470 1380 1377
f 1470 1471 1474
f 1470 1474 1473
f 1382 1472 1378
f 1382 1475 1472
f 1476 1384 1473
f 1473 1384 1380
f 1473 1474 1477
f 1473 1477 1476
f 1480 1479 1478
f 1481 1478 1479
f 1386 1482 1385
f 1482 1483 1385
f 1483 1382 1385
f 1483 1475 1382
f 1484 1388 1389
f 1384 1476 1389
f 1476 1484 1389
f 1476 1485 1484
f 1476 1477 1486
f 1487 1476 1486
f 1485 1476 1487
f 1391 1392 1487
f 1486 1391 1487
f 1488 1391 1486
f 1391 1489 1393
f 1488 1489 1391
f 1478 1394 1480
f 1394 1489 1480
f 1394 1393 1489
f 1481 1490 1478
f 1490 1394 1478
f 1490 1395 1394
f 1397 1395 1490
f 1397 1490 1491
f 1494 1493 1492
f 1493 1495 1482
f 1400 1493 1482
f 1386 1400 1482
f 1492 1493 1400
f 1482 1495 1483
f 1484 1402 1388
f 1402 1484 1404
f 1404 1484 1485
f 1404 1485 1405
f 1405 1485 1487
f 1405 1487 1392
f 1491 1496 1397
f 1397 1496 1406
f 1406 1497 1407
f 1496 1497 1406
f 1492 1408 1494
f 1408 1497 1494
f 1408 1407 1497
f 1408 1492 1400
f 1498 1412 1413
f 1498 1413 1499
f 1413 1500 1499
f 1413 1414 1500
f 1501 1414 1415
f 1501 1500 1414
f 1415 1417 1501
f 1501 1417 1502
f 1503 1421 1422
f 1424 1503 1422
f 1504 1425 1426
f 1504 1426 1505
f 1426 1506 1505
f 1426 1427 1506
f 1427 1412 1498
f 1507 1427 1498
f 1506 1427 1507
f 1507 1498 1499
f 1417 1428 1508
f 1509 1417 1508
f 1502 1417 1509
f 1429 1508 1428
f 1510 1432 1433
f 1434 1511 1433
f 1433 1511 1510
f 1421 1503 1434
f 1503 1511 1434
f 1503 1512 1511
f 1435 1513 1424
f 1513 1503 1424
f 1513 1512 1503
f 1514 1513 1435
f 1514 1435 1425
f 1515 1514 1425
f 1504 1515 1425
f 1515 1504 1505
f 1509 1508 1436
f 1437 1509 1436
f 1516 1509 1437
f 1436 1508 1429
f 1517 1439 1440
f 1517 1440 1518
f 1440 1519 1518
f 1440 1441 1519
f 1441 1432 1510
f 1520 1441 1510
f 1519 1441 1520
f 1520 1510 1511
f 1520 1511 1521
f 1523 1522 1521
f 1511 1523 1521
f 1512 1523 1511
f 1513 1525 1524
f 1523 1513 1524
f 1512 1513 1523
f 1525 1513 1514
f 1442 1516 1437
f 1442 1526 1516
f 1527 1443 1444
f 1528 1527 1444
f 1528 1444 1439
f 1529 1528 1439
f 1517 1529 1439
f 1529 1517 1518
f 1530 1522 1523
f 1530 1523 1524
f 1532 1531 1445
f 1532 1445 1446
f 1442 1445 1526
f 1526 1445 1531
f 1533 1448 1527
f 1527 1448 1443
f 1527 1528 1534
f 1527 1534 1533
f 1449 1532 1446
f 1449 1535 1532
f 1536 1451 1533
f 1533 1451 1448
f 1533 1534 1537
f 1533 1537 1536
f 1452 1535 1449
f 1452 1538 1535
f 1539 1453 1536
f 1536 1453 1451
f 1536 1537 1540
f 1536 1540 1539
f 1543 1542 1541
f 1454 1455 1541
f 1542 1454 1541
f 1544 1454 1542
f 1452 1454 1538
f 1538 1454 1544
f 1539 1456 1453
f 1458 1456 1539
f 1540 1458 1539
f 1545 1458 1540
f 1543 1541 1546
f 1543 1546 1547
f 1460 1546 1455
f 1455 1546 1541
f 1545 1462 1458
f 1548 1462 1545
f 1549 1547 1546
f 1551 1549 1550
f 1550 1549 1463
f 1549 1546 1463
f 1546 1460 1463
f 1464 1550 1463
f 1548 1552 1462
f 1462 1552 1466
f 1468 1466 1552
f 1468 1552 1553
f 1554 1551 1550
f 1550 1464 1554
f 1464 1555 1554
f 1464 1469 1555
f 1557 1471 1556
f 1471 1553 1556
f 1471 1468 1553
f 1559 1558 1557
f 1559 1557 1556
f 1561 1560 1558
f 1561 1558 1559
f 1562 1560 1561
f 1472 1555 1469
f 1472 1563 1555
f 1564 1474 1557
f 1557 1474 1471
f 1565 1557 1558
f 1564 1557 1565
f 1566 1558 1560
f 1565 1558 1566
f 1560 1562 1567
f 1568 1560 1567
f 1566 1560 1568
f 1569 1568 1567
f 1475 1563 1472
f 1475 1570 1563
f 1571 1477 1564
f 1564 1477 1474
f 1572 1564 1565
f 1571 1564 1572
f 1573 1565 1566
f 1572 1565 1573
f 1480 1573 1479
f 1573 1568 1479
f 1573 1566 1568
f 1575 1574 1481
f 1575 1481 1479
f 1569 1575 1479
f 1568 1569 1479
f 1576 1574 1575
f 1483 1570 1475
f 1483 1577 1570
f 1571 1486 1477
f 1486 1571 1488
f 1488 1571 1572
f 1488 1572 1489
f 1489 1572 1573
f 1489 1573 1480
f 1574 1490 1481
f 1579 1578 1491
f 1579 1491 1490
f 1576 1579 1490
f 1574 1576 1490
f 1581 1580 1578
f 1581 1578 1579
f 1493 1494 1580
f 1581 1493 1580
f 1582 1493 1581
f 1493 1583 1495
f 1582 1583 1493
f 1483 1495 1577
f 1577 1495 1583
f 1578 1496 1491
f 1496 1578 1497
f 1497 1578 1580
f 1497 1580 1494
f 1585 1584 1500
f 1500 1584 1499
f 1587 1585 1586
f 1585 1501 1586
f 1585 1500 1501
f 1502 1586 1501
f 1588 1505 1506
f 1507 1589 1506
f 1506 1589 1588
f 1590 1589 1507
f 1499 1590 1507
f 1584 1590 1499
f 1591 1587 1586
f 1586 1502 1591
f 1502 1592 1591
f 1502 1509 1592
f 1593 1514 1515
f 1505 1588 1515
f 1588 1593 1515
f 1588 1594 1593
f 1595 1588 1589
f 1594 1588 1595
f 1589 1590 1596
f 1589 1596 1595
f 1516 1592 1509
f 1516 1597 1592
f 1598 1518 1519
f 1520 1599 1519
f 1519 1599 1598
f 1521 1600 1520
f 1520 1600 1599
f 1522 1600 1521
f 1601 1524 1525
f 1514 1593 1525
f 1593 1601 1525
f 1593 1602 1601
f 1603 1593 1594
f 1602 1593 1603
f 1595 1605 1604
f 1603 1595 1604
f 1594 1595 1603
f 1605 1595 1596
f 1608 1607 1606
f 1607 1597 1606
f 1597 1526 1606
f 1597 1516 1526
f 1609 1528 1529
f 1610 1609 1529
f 1610 1529 1518
f 1611 1610 1518
f 1598 1611 1518
f 1611 1598 1599
f 1611 1599 1612
f 1612 1599 1600
f 1612 1600 1613
f 1615 1613 1614
f 1614 1613 1530
f 1613 1600 1530
f 1600 1522 1530
f 1524 1601 1530
f 1601 1614 1530
f 1601 1616 1614
f 1617 1601 1602
f 1616 1601 1617
f 1618 1602 1603
f 1617 1602 1618
f 1603 1604 1619
f 1603 1619 1618
f 1608 1606 1531
f 1532 1608 1531
f 1620 1608 1532
f 1531 1606 1526
f 1622 1621 1609
f 1621 1528 1609
f 1621 1534 1528
f 1622 1609 1610
f 1623 1615 1614
f 1623 1614 1616
f 1623 1616 1624
f 1624 1616 1617
f 1624 1617 1625
f 1625 1617 1618
f 1625 1618 1626
f 1626 1618 1619
f 1535 1620 1532
f 1535 1627 1620
f 1629 1537 1628
f 1537 1621 1628
f 1537 1534 1621
f 1630 1629 1628
f 1633 1632 1631
f 1635 1634 1631
f 1635 1631 1632
f 1635 1627 1634
f 1627 1538 1634
f 1627 1535 1538
f 1636 1540 1629
f 1629 1540 1537
f 1629 1630 1637
f 1638 1629 1637
f 1636 1629 1638
f 1639 1638 1637
f 1642 1641 1640
f 1644 1643 1640
f 1644 1640 1641
f 1646 1645 1643
f 1646 1643 1644
f 1648 1647 1645
f 1648 1645 1646
f 1650 1649 1647
f 1650 1647 1648
f 1649 1650 1633
f 1649 1633 1631
f 1543 1649 1631
f 1542 1543 1631
f 1542 1631 1544
f 1544 1631 1634
f 1544 1634 1538
f 1651 1545 1636
f 1636 1545 1540
f 1652 1636 1638
f 1651 1636 1652
f 1638 1639 1653
f 1638 1653 1652
f 1642 1640 1654
f 1642 1654 1655
f 1656 1640 1643
f 1654 1640 1656
f 1657 1643 1645
f 1656 1643 1657
f 1658 1645 1647
f 1657 1645 1658
f 1659 1647 1649
f 1658 1647 1659
f 1547 1659 1543
f 1543 1659 1649
f 1660 1548 1651
f 1651 1548 1545
f 1661 1651 1652
f 1660 1651 1661
f 1652 1653 1662
f 1652 1662 1661
f 1663 1655 1654
f 1663 1654 1656
f 1663 1656 1664
f 1664 1656 1657
f 1664 1657 1665
f 1665 1657 1658
f 1665 1658 1666
f 1668 1667 1666
f 1658 1668 1666
f 1659 1668 1658
f 1549 1669 1547
f 1669 1659 1547
f 1669 1668 1659
f 1551 1669 1549
f 1660 1552 1548
f 1552 1660 1553
f 1660 1670 1553
f 1660 1661 1670
f 1661 1662 1671
f 1661 1671 1670
f 1672 1667 1668
f 1672 1668 1669
f 1672 1669 1673
f 1673 1669 1551
f 1554 1673 1551
f 1674 1673 1554
f 1554 1555 1674
f 1674 1555 1675
f 1670 1556 1553
f 1671 1676 1670
f 1676 1556 1670
f 1676 1559 1556
f 1559 1677 1561
f 1676 1677 1559
f 1679 1678 1562
f 1561 1679 1562
f 1677 1679 1561
f 1681 1680 1678
f 1681 1678 1679
f 1682 1680 1681
f 1563 1675 1555
f 1563 1683 1675
f 1678 1567 1562
f 1567 1678 1569
f 1678 1684 1569
f 1678 1680 1684
f 1680 1682 1685
f 1686 1680 1685
f 1684 1680 1686
f 1687 1686 1685
f 1570 1683 1563
f 1570 1688 1683
f 1684 1575 1569
f 1575 1684 1576
f 1684 1689 1576
f 1684 1686 1689
f 1686 1687 1690
f 1691 1686 1690
f 1689 1686 1691
f 1692 1691 1690
f 1695 1694 1693
f 1694 1688 1693
f 1688 1577 1693
f 1688 1570 1577
f 1689 1579 1576
f 1579 1689 1581
f 1581 1689 1691
f 1692 1696 1691
f 1696 1581 1691
f 1696 1582 1581
f 1693 1583 1695
f 1583 1696 1695
f 1583 1582 1696
f 1583 1693 1577
f 1697 1584 1585
f 1587 1697 1585
f 1699 1698 1697
f 1698 1584 1697
f 1698 1590 1584
f 1701 1699 1700
f 1700 1699 1591
f 1699 1697 1591
f 1697 1587 1591
f 1592 1700 1591
f 1698 1596 1590
f 1702 1596 1698
f 1701 1700 1703
f 1701 1703 1704
f 1597 1703 1592
f 1592 1703 1700
f 1705 1604 1605
f 1706 1705 1605
f 1596 1706 1605
f 1702 1706 1596
f 1704 1703 1607
f 1608 1704 1607
f 1707 1704 1608
f 1607 1703 1597
f 1708 1610 1611
f 1612 1709 1611
f 1611 1709 1708
f 1613 1710 1612
f 1612 1710 1709
f 1615 1710 1613
f 1711 1619 1705
f 1705 1619 1604
f 1705 1706 1712
f 1713 1705 1712
f 1711 1705 1713
f 1712 1707 1713
f 1707 1620 1713
f 1707 1608 1620
f 1714 1621 1622
f 1610 1708 1622
f 1708 1714 1622
f 1708 1715 1714
f 1716 1708 1709
f 1715 1708 1716
f 1710 1718 1717
f 1716 1710 1717
f 1709 1710 1716
f 1718 1710 1615
f 1623 1718 1615
f 1719 1718 1623
f 1721 1719 1720
f 1719 1624 1720
f 1719 1623 1624
f 1625 1722 1624
f 1624 1722 1720
f 1626 1723 1625
f 1625 1723 1722
f 1619 1711 1626
f 1711 1723 1626
f 1711 1724 1723
f 1725 1711 1713
f 1724 1711 1725
f 1627 1725 1620
f 1620 1725 1713
f 1714 1628 1621
f 1628 1714 1630
f 1714 1726 1630
f 1714 1715 1726
f 1727 1715 1716
f 1726 1715 1727
f 1716 1717 1728
f 1729 1716 1728
f 1727 1716 1729
f 1731 1730 1729
f 1731 1729 1728
f 1730 1731 1721
f 1720 1730 1721
f 1732 1730 1720
f 1733 1720 1722
f 1732 1720 1733
f 1734 1722 1723
f 1733 1722 1734
f 1633 1734 1632
f 1734 1724 1632
f 1734 1723 1724
f 1632 1724 1635
f 1635 1724 1725
f 1635 1725 1627
f 1726 1637 1630
f 1637 1726 1639
f 1726 1735 1639
f 1726 1727 1735
f 1642 1735 1641
f 1735 1729 1641
f 1735 1727 1729
f 1641 1729 1644
f 1644 1729 1730
f 1644 1730 1646
f 1646 1730 1732
f 1646 1732 1648
f 1648 1732 1733
f 1648 1733 1650
f 1650 1733 1734
f 1650 1734 1633
f 1736 1653 1735
f 1735 1653 1639
f 1655 1736 1642
f 1642 1736 1735
f 1737 1662 1736
f 1736 1662 1653
f 1663 1738 1655
f 1738 1736 1655
f 1738 1737 1736
f 1664 1739 1663
f 1663 1739 1738
f 1665 1740 1664
f 1664 1740 1739
f 1666 1741 1665
f 1665 1741 1740
f 1667 1741 1666
f 1742 1671 1737
f 1737 1671 1662
f 1743 1737 1738
f 1742 1737 1743
f 1744 1738 1739
f 1743 1738 1744
f 1745 1739 1740
f 1744 1739 1745
f 1746 1740 1741
f 1745 1740 1746
f 1746 1741 1667
f 1747 1746 1667
f 1672 1747 1667
f 1748 1746 1747
f 1749 1672 1673
f 1749 1747 1672
f 1750 1673 1674
f 1750 1749 1673
f 1674 1675 1750
f 1750 1675 1751
f 1742 1676 1671
f 1676 1742 1677
f 1677 1742 1743
f 1677 1743 1679
f 1679 1743 1744
f 1679 1744 1681
f 1681 1744 1745
f 1681 1745 1682
f 1745 1752 1682
f 1745 1746 1752
f 1746 1748 1753
f 1746 1753 1752
f 1756 1755 1754
f 1755 1751 1754
f 1751 1683 1754
f 1751 1675 1683
f 1752 1685 1682
f 1758 1757 1687
f 1758 1687 1685
f 1753 1758 1685
f 1752 1753 1685
f 1760 1759 1757
f 1760 1757 1758
f 1759 1760 1756
f 1754 1759 1756
f 1761 1759 1754
f 1688 1761 1683
f 1683 1761 1754
f 1757 1690 1687
f 1690 1757 1692
f 1757 1762 1692
f 1757 1759 1762
f 1695 1762 1694
f 1762 1761 1694
f 1762 1759 1761
f 1694 1761 1688
f 1762 1696 1692
f 1696 1762 1695
f 1763 1698 1699
f 1701 1763 1699
f 1764 1702 1763
f 1763 1702 1698
f 1704 1764 1701
f 1701 1764 1763
f 1765 1706 1764
f 1764 1706 1702
f 1707 1765 1704
f 1704 1765 1764
f 1765 1712 1706
f 1712 1765 1707
f 1766 1717 1718
f 1719 1767 1718
f 1718 1767 1766
f 1721 1767 1719
f 1766 1728 1717
f 1728 1766 1731
f 1731 1766 1767
f 1731 1767 1721
f 1768 1748 1747
f 1749 1769 1747
f 1747 1769 1768
f 1750 1770 1749
f 1749 1770 1769
f 1751 1770 1750
f 1771 1753 1768
f 1768 1753 1748
f 1772 1768 1769
f 1771 1768 1772
f 1756 1772 1755
f 1772 1770 1755
f 1772 1769 1770
f 1755 1770 1751
f 1771 1758 1753
f 1758 1771 1760
f 1760 1771 1772
f 1760 1772 1756
