v 46.9 -1.0 -4.0
v 47.0 -1.0 -4.1
v 47.0 -1.1 -4.0
v 47.0 -1.5 -3.0
v 46.6 -1.0 -3.0
v 47.0 -1.9 -2.0
v 46.8 -1.0 -2.0
v 47.0 -1.0 -1.7
v 46.1 0.0 -4.0
v 47.0 0.0 -4.5
v 46.5 0.0 -3.0
v 46.8 0.0 -2.0
v 47.0 0.0 -1.8
v 46.4 1.0 -5.0
v 47.0 1.0 -5.2
v 47.0 0.7 -5.0
v 46.5 1.0 -4.0
v 46.7 1.0 -3.0
v 47.0 1.0 -2.6
v 47.0 0.3 -2.0
v 46.9 2.0 -5.0
v 47.0 2.0 -5.3
v 47.0 2.0 -4.9
v 47.0 1.5 -4.0
v 47.0 1.3 -3.0
v 47.0 2.0 -5.0
v 47.8 -6.0 -1.0
v 48.0 -6.0 -1.2
v 48.0 -6.2 -1.0
v 48.0 -6.4 0.0
v 47.6 -6.0 0.0
v 48.0 -6.2 1.0
v 47.8 -6.0 1.0
v 48.0 -6.0 1.3
v 47.2 -5.0 -1.0
v 48.0 -5.0 -1.4
v 47.4 -5.0 0.0
v 47.6 -5.0 1.0
v 48.0 -5.0 1.4
v 47.7 -4.0 -1.0
v 48.0 -4.0 -1.3
v 47.5 -4.0 0.0
v 47.8 -4.0 1.0
v 48.0 -4.0 1.2
v 48.0 -3.5 -1.0
v 47.9 -3.0 0.0
v 48.0 -3.0 -0.2
v 48.0 -3.0 0.2
v 48.0 -3.7 1.0
v 47.9 -2.0 -3.0
v 48.0 -2.0 -3.1
v 48.0 -2.1 -3.0
v 48.0 -2.0 -2.8
v 48.0 -2.8 0.0
v 47.1 -1.0 -4.0
v 48.0 -1.0 -3.6
v 48.0 -1.3 -2.0
v 48.0 -1.0 -1.0
v 48.0 -1.0 -1.0
v 48.0 -1.0 -1.0
v 48.0 0.0 -4.4
v 48.0 -0.6 -4.0
v 48.0 -1.0 -1.0
v 48.0 0.0 -1.4
v 47.3 1.0 -5.0
v 48.0 1.0 -4.5
v 47.6 1.0 -2.0
v 48.0 1.0 -1.7
v 47.1 2.0 -5.0
v 48.0 1.9 -4.0
v 48.0 1.7 -3.0
v 48.0 1.3 -2.0
v 48.9 -7.0 0.0
v 49.0 -7.0 -0.1
v 49.0 -7.1 0.0
v 49.0 -7.0 0.1
v 49.0 -6.0 -1.4
v 49.0 -6.4 -1.0
v 49.0 -6.6 1.0
v 49.0 -6.2 2.0
v 48.8 -6.0 2.0
v 49.0 -6.0 2.2
v 49.0 -5.0 -1.5
v 49.0 -5.7 2.0
v 49.0 -5.0 1.7
v 49.0 -4.0 -1.5
v 49.0 -4.0 1.4
v 48.4 -3.0 -1.0
v 49.0 -3.0 -1.6
v 49.0 -3.4 1.0
v 49.0 -3.0 0.7
v 49.0 -2.0 -3.3
v 49.0 -2.3 -3.0
v 49.0 -2.6 -2.0
v 48.3 -2.0 -2.0
v 48.3 -2.0 -1.0
v 48.6 -2.0 0.0
v 49.0 -2.0 0.3
v 49.0 -1.0 -3.6
v 49.0 -1.5 0.0
v 49.0 -1.0 -0.4
v 49.0 0.0 -4.2
v 49.0 -0.3 -4.0
v 48.5 0.0 -1.0
v 49.0 0.0 -0.7
v 49.0 1.0 -4.3
v 49.0 0.5 -1.0
v 49.0 1.0 -1.3
v 49.0 1.4 -4.0
v 48.7 2.0 -3.0
v 49.0 2.0 -3.2
v 48.8 2.0 -2.0
v 49.0 2.0 -1.8
v 49.0 2.1 -3.0
v 49.0 2.2 -2.0
v 50.0 -7.0 -0.3
v 50.0 -7.2 0.0
v 50.0 -7.0 0.3
v 50.0 -6.0 -1.4
v 50.0 -6.5 -1.0
v 50.0 -6.6 1.0
v 50.0 -6.4 2.0
v 50.0 -6.0 2.8
v 50.0 -5.0 -1.5
v 49.4 -5.0 2.0
v 50.0 -5.0 2.5
v 50.0 -4.0 -1.6
v 50.0 -4.3 2.0
v 50.0 -4.0 1.8
v 49.5 -3.0 -2.0
v 50.0 -3.0 -2.4
v 50.0 -3.4 -2.0
v 49.3 -3.0 1.0
v 50.0 -3.1 2.0
v 50.0 -3.0 2.0
v 50.0 -3.0 2.0
v 50.0 -2.0 -3.4
v 50.0 -2.4 -3.0
v 50.0 -2.4 1.0
v 50.0 -2.0 0.7
v 50.0 -3.0 2.0
v 50.0 -1.0 -3.5
v 49.5 -1.0 0.0
v 50.0 -1.0 0.3
v 49.4 0.0 -4.0
v 50.0 0.0 -3.6
v 50.0 -0.6 0.0
v 50.0 0.0 -0.4
v 49.4 1.0 -4.0
v 50.0 1.0 -3.6
v 49.5 1.0 -1.0
v 50.0 1.0 -0.7
v 49.4 2.0 -3.0
v 50.0 1.8 -3.0
v 50.0 2.0 -2.6
v 50.0 1.4 -1.0
v 50.0 2.0 -1.7
v 50.0 2.3 -2.0
v 51.0 -7.0 -0.3
v 51.0 -7.2 0.0
v 51.0 -7.0 0.3
v 51.0 -6.0 -1.4
v 51.0 -6.5 -1.0
v 51.0 -6.6 1.0
v 51.0 -6.4 2.0
v 51.0 -6.0 2.7
v 51.0 -5.0 -1.5
v 51.0 -5.5 3.0
v 50.7 -5.0 3.0
v 51.0 -5.0 3.2
v 51.0 -4.0 -1.6
v 50.2 -4.0 2.0
v 51.0 -4.0 2.6
v 51.0 -4.6 3.0
v 51.0 -3.0 -2.5
v 51.0 -3.5 -2.0
v 51.0 -3.0 2.3
v 51.0 -2.0 -3.4
v 51.0 -2.5 -3.0
v 50.4 -2.0 1.0
v 51.0 -2.0 1.5
v 51.0 -2.6 2.0
v 51.0 -1.0 -3.6
v 51.0 -1.6 1.0
v 51.0 -1.0 0.5
v 51.0 0.0 -3.7
v 51.0 -0.4 0.0
v 51.0 0.0 -0.3
v 50.7 1.0 -4.0
v 51.0 1.0 -4.1
v 51.0 0.7 -4.0
v 51.0 1.0 -0.6
v 51.0 1.2 -4.0
v 50.4 2.0 -3.0
v 51.0 2.0 -3.4
v 51.0 1.6 -1.0
v 51.0 2.0 -1.4
v 51.0 2.3 -3.0
v 51.0 2.4 -2.0
v 52.0 -7.0 -0.3
v 52.0 -7.2 0.0
v 52.0 -7.0 0.3
v 52.0 -6.0 -1.3
v 52.0 -6.4 -1.0
v 52.0 -6.6 1.0
v 52.0 -6.5 2.0
v 52.0 -6.3 3.0
v 51.4 -6.0 3.0
v 52.0 -6.0 3.5
v 52.0 -5.0 -1.5
v 52.0 -5.0 4.0
v 52.0 -4.0 -1.7
v 51.6 -4.0 3.0
v 52.0 -4.0 3.3
v 52.0 -3.0 -2.6
v 52.0 -3.7 -2.0
v 52.0 -3.7 3.0
v 52.0 -3.0 2.1
v 52.0 -2.0 -3.5
v 52.0 -2.6 -3.0
v 51.8 -2.0 2.0
v 52.0 -2.0 2.1
v 51.7 -1.0 -4.0
v 52.0 -1.0 -4.3
v 52.0 -1.3 -4.0
v 52.0 -1.2 1.0
v 52.0 -1.0 0.8
v 52.0 -1.8 2.0
v 51.4 0.0 -4.0
v 52.0 0.0 -4.4
v 51.5 0.0 0.0
v 52.0 0.0 0.3
v 52.0 1.0 -4.5
v 52.0 0.5 0.0
v 52.0 1.0 -0.3
v 51.6 2.0 -4.0
v 52.0 2.0 -4.3
v 51.6 2.0 -1.0
v 52.0 2.0 -0.7
v 52.0 2.3 -4.0
v 52.0 2.5 -3.0
v 52.0 2.6 -2.0
v 52.0 2.3 -1.0
v 53.0 -7.0 -0.0
v 53.0 -7.0 0.0
v 53.0 -7.0 0.0
v 52.5 -6.0 -1.0
v 53.0 -6.0 -0.7
v 53.0 -6.6 1.0
v 53.0 -6.5 2.0
v 53.0 -6.4 3.0
v 53.0 -6.0 3.9
v 53.0 -5.0 -1.5
v 53.0 -5.6 -1.0
v 53.0 -5.0 3.8
v 52.5 -4.0 -2.0
v 53.0 -4.0 -2.4
v 53.0 -4.4 -2.0
v 53.0 -4.0 3.4
v 52.5 -3.0 -3.0
v 53.0 -3.0 -3.3
v 53.0 -3.3 -3.0
v 53.0 -3.5 3.0
v 53.0 -3.0 2.6
v 53.0 -2.0 -3.7
v 53.0 -2.0 2.5
v 53.0 -1.0 -4.4
v 53.0 -1.6 -4.0
v 52.3 -1.0 1.0
v 52.7 -1.0 2.0
v 53.0 -1.0 2.3
v 53.0 0.0 -4.6
v 53.0 -0.3 1.0
v 53.0 0.0 0.7
v 53.0 -0.7 2.0
v 53.0 1.0 -4.6
v 52.5 1.0 0.0
v 53.0 1.0 0.3
v 53.0 2.0 -4.6
v 53.0 1.4 0.0
v 53.0 2.0 -0.5
v 52.8 3.0 -4.0
v 53.0 3.0 -4.2
v 53.0 3.0 -3.2
v 53.0 2.9 -3.0
v 53.0 2.8 -2.0
v 53.0 2.5 -1.0
v 53.0 3.3 -4.0
v 53.0 4.0 -3.5
v 52.6 4.0 -3.0
v 53.0 3.1 -3.0
v 53.0 3.3 -2.0
v 52.3 4.0 -2.0
v 53.0 4.0 -1.7
v 52.6 5.0 -3.0
v 53.0 5.0 -3.4
v 52.7 5.0 -2.0
v 53.0 5.0 -1.8
v 53.0 5.9 -3.0
v 53.0 5.3 -2.0
v 53.0 -7.0 0.0
v 54.0 -6.0 -0.6
v 54.0 -6.5 0.0
v 54.0 -6.5 1.0
v 54.0 -6.4 2.0
v 53.6 -6.0 3.0
v 54.0 -6.0 2.6
v 54.0 -5.0 -1.5
v 54.0 -5.6 -1.0
v 54.0 -5.7 3.0
v 54.0 -5.1 4.0
v 53.7 -5.0 4.0
v 54.0 -5.0 4.1
v 54.0 -4.0 -2.5
v 54.0 -4.5 -2.0
v 54.0 -4.8 4.0
v 54.0 -4.0 3.6
v 54.0 -3.0 -3.6
v 54.0 -3.5 -3.0
v 54.0 -3.3 3.0
v 54.0 -3.0 2.8
v 53.5 -2.0 -4.0
v 54.0 -2.0 -4.3
v 54.0 -2.5 -4.0
v 54.0 -2.0 2.7
v 54.0 -1.0 -4.6
v 54.0 -1.2 3.0
v 53.9 -1.0 3.0
v 54.0 -1.0 3.1
v 53.6 0.0 -5.0
v 54.0 0.0 -5.3
v 54.0 -0.4 -5.0
v 53.4 0.0 1.0
v 54.0 0.0 1.6
v 54.0 -0.3 2.0
v 54.0 -0.9 3.0
v 53.5 1.0 -5.0
v 54.0 1.0 -5.5
v 54.0 0.5 1.0
v 54.0 1.0 0.6
v 53.5 2.0 -5.0
v 54.0 2.0 -5.4
v 54.0 1.7 0.0
v 54.0 2.0 -0.3
v 53.7 3.0 -5.0
v 54.0 3.0 -5.2
v 53.1 3.0 -3.0
v 53.2 3.0 -2.0
v 53.6 3.0 -1.0
v 54.0 3.0 -0.7
v 54.0 3.3 -5.0
v 53.4 4.0 -4.0
v 54.0 4.0 -4.5
v 54.0 3.5 -1.0
v 54.0 4.0 -1.3
v 53.8 5.0 -4.0
v 54.0 5.0 -4.1
v 54.0 5.0 -1.6
v 54.0 5.1 -4.0
v 53.4 6.0 -3.0
v 54.0 6.0 -3.1
v 54.0 6.0 -2.9
v 54.0 5.4 -2.0
v 54.0 6.1 -3.0
v 54.8 -6.0 -1.0
v 55.0 -6.0 -1.1
v 55.0 -6.1 -1.0
v 55.0 -6.5 0.0
v 55.0 -6.5 1.0
v 55.0 -6.4 2.0
v 55.0 -6.0 2.5
v 55.0 -5.0 -1.6
v 55.0 -5.6 3.0
v 55.0 -5.3 4.0
v 55.0 -5.0 4.3
v 55.0 -4.0 -2.5
v 55.0 -4.5 -2.0
v 54.5 -4.0 4.0
v 55.0 -4.0 4.3
v 54.6 -3.0 -4.0
v 55.0 -3.0 -4.2
v 55.0 -3.2 -4.0
v 55.0 -3.6 -3.0
v 54.4 -3.0 3.0
v 55.0 -3.0 3.6
v 55.0 -3.5 4.0
v 55.0 -2.0 -4.5
v 55.0 -2.1 3.0
v 55.0 -2.0 3.0
v 55.0 -1.0 -4.6
v 55.0 -1.9 3.0
v 55.0 -1.0 3.3
v 55.0 0.0 -5.5
v 55.0 -0.5 -5.0
v 54.5 0.0 2.0
v 55.0 0.0 2.4
v 55.0 -0.7 3.0
v 55.0 1.0 -5.9
v 54.5 1.0 1.0
v 55.0 1.0 1.4
v 55.0 0.4 2.0
v 55.0 2.0 -5.7
v 54.4 2.0 0.0
v 55.0 2.0 0.5
v 55.0 1.5 1.0
v 55.0 3.0 -5.4
v 55.0 2.5 0.0
v 55.0 3.0 -0.3
v 55.0 3.5 -5.0
v 55.0 4.0 -4.4
v 54.7 4.0 -1.0
v 55.0 4.0 -0.8
v 55.0 4.5 -4.0
v 54.2 5.0 -4.0
v 55.0 5.0 -3.4
v 55.0 4.2 -1.0
v 55.0 5.0 -1.7
v 54.1 6.0 -3.0
v 55.0 5.3 -3.0
v 55.0 5.2 -2.0
v 55.2 -6.0 -1.0
v 56.0 -6.0 -0.4
v 56.0 -6.3 0.0
v 56.0 -6.4 1.0
v 56.0 -6.4 2.0
v 56.0 -6.0 2.6
v 56.0 -5.0 -1.4
v 56.0 -5.5 -1.0
v 56.0 -5.7 3.0
v 56.0 -5.4 4.0
v 56.0 -5.0 4.4
v 56.0 -4.0 -2.5
v 56.0 -4.5 -2.0
v 56.0 -4.0 4.5
v 56.0 -3.0 -4.2
v 56.0 -3.2 -4.0
v 56.0 -3.6 -3.0
v 55.4 -3.0 4.0
v 56.0 -3.0 4.4
v 56.0 -2.0 -4.4
v 55.0 -2.0 3.0
v 55.7 -2.0 4.0
v 56.0 -2.0 4.2
v 56.0 -1.0 -4.6
v 56.0 -1.7 4.0
v 56.0 -1.0 3.5
v 56.0 0.0 -5.4
v 56.0 -0.5 -5.0
v 56.0 -0.4 3.0
v 56.0 0.0 2.6
v 56.0 1.0 -5.6
v 56.0 0.7 2.0
v 56.0 1.0 1.7
v 56.0 2.0 -5.9
v 55.5 2.0 1.0
v 56.0 2.0 1.4
v 56.0 3.0 -5.3
v 55.5 3.0 0.0
v 56.0 3.0 0.4
v 56.0 2.5 1.0
v 56.0 3.3 -5.0
v 55.5 4.0 -4.0
v 56.0 3.7 -4.0
v 56.0 4.0 -3.5
v 55.5 4.0 -1.0
v 56.0 3.8 -1.0
v 56.0 4.0 -1.2
v 56.0 3.3 0.0
v 55.4 5.0 -3.0
v 56.0 4.4 -3.0
v 55.3 5.0 -2.0
v 56.0 4.5 -2.0
v 56.3 -6.0 0.0
v 56.6 -6.0 1.0
v 57.0 -6.0 1.6
v 57.0 -6.2 2.0
v 57.0 -6.3 3.0
v 56.5 -6.0 3.0
v 57.0 -6.0 3.4
v 56.5 -5.0 -1.0
v 57.0 -5.0 -0.4
v 57.0 -5.3 0.0
v 57.0 -5.6 1.0
v 57.0 -5.5 4.0
v 57.0 -5.0 4.4
v 57.0 -4.0 -2.3
v 57.0 -4.2 -2.0
v 57.0 -4.6 -1.0
v 57.0 -4.0 4.5
v 56.3 -3.0 -4.0
v 57.0 -3.0 -3.3
v 57.0 -3.3 -3.0
v 57.0 -3.0 4.5
v 56.6 -2.0 -4.0
v 57.0 -2.0 -3.6
v 57.0 -2.0 4.4
v 57.0 -1.0 -4.4
v 57.0 -1.5 -4.0
v 57.0 -1.6 4.0
v 57.0 -1.0 3.5
v 57.0 0.0 -5.1
v 57.0 -0.1 -5.0
v 56.5 0.0 3.0
v 57.0 0.0 3.3
v 57.0 0.2 -5.0
v 56.6 1.0 -5.0
v 57.0 1.0 -4.6
v 56.3 1.0 2.0
v 57.0 1.0 2.6
v 57.0 0.4 3.0
v 56.6 2.0 -5.0
v 57.0 2.0 -4.5
v 56.7 2.0 2.0
v 57.0 2.0 2.3
v 56.3 3.0 -5.0
v 57.0 3.0 -4.3
v 56.6 3.0 1.0
v 57.0 3.0 1.3
v 57.0 2.3 2.0
v 57.0 3.2 -4.0
v 56.5 4.0 -3.0
v 57.0 3.6 -3.0
v 57.0 4.0 -2.4
v 56.6 4.0 -1.0
v 57.0 4.0 -0.8
v 57.0 3.6 0.0
v 57.0 3.3 1.0
v 57.0 4.2 -2.0
v 57.0 4.1 -1.0
v 57.3 -6.0 2.0
v 58.0 -6.0 2.8
v 58.0 -6.2 3.0
v 58.0 -6.0 4.0
v 57.9 -6.0 4.0
v 58.0 -6.0 4.0
v 57.3 -5.0 0.0
v 57.5 -5.0 1.0
v 57.7 -5.0 2.0
v 58.0 -5.0 2.3
v 58.0 -5.0 4.4
v 57.2 -4.0 -2.0
v 57.5 -4.0 -1.0
v 57.7 -4.0 0.0
v 58.0 -4.0 0.5
v 58.0 -4.4 1.0
v 58.0 -4.7 2.0
v 58.0 -4.0 4.5
v 57.3 -3.0 -3.0
v 57.7 -3.0 -2.0
v 58.0 -3.0 -1.5
v 58.0 -3.4 -1.0
v 58.0 -3.7 0.0
v 58.0 -3.0 4.4
v 57.5 -2.0 -3.0
v 58.0 -2.0 -2.4
v 58.0 -2.5 -2.0
v 57.9 -2.0 3.0
v 58.0 -2.1 3.0
v 58.0 -2.0 2.9
v 58.0 -2.0 3.5
v 58.0 -2.0 4.1
v 57.4 -1.0 -4.0
v 57.7 -1.0 -3.0
v 58.0 -1.0 -2.7
v 57.7 -1.0 3.0
v 58.0 -1.0 2.8
v 58.0 -1.9 4.0
v 57.1 0.0 -5.0
v 58.0 0.0 -4.1
v 58.0 -0.1 -4.0
v 58.0 -0.6 -3.0
v 58.0 -0.7 3.0
v 58.0 0.0 3.4
v 57.6 1.0 -4.0
v 58.0 0.2 -4.0
v 58.0 1.0 -3.6
v 57.6 1.0 3.0
v 58.0 1.0 3.3
v 57.5 2.0 -4.0
v 58.0 2.0 -3.4
v 58.0 1.3 3.0
v 58.0 2.0 2.5
v 57.2 3.0 -4.0
v 58.0 2.4 -3.0
v 57.6 3.0 -3.0
v 58.0 3.0 -2.4
v 58.0 2.5 2.0
v 58.0 3.0 1.3
v 57.3 4.0 -2.0
v 58.0 3.3 -2.0
v 57.2 4.0 -1.0
v 58.0 3.5 -1.0
v 58.0 3.5 0.0
v 58.0 3.3 1.0
v 58.2 -6.0 3.0
v 58.1 -6.0 4.0
v 58.5 -5.0 3.0
v 59.0 -5.0 4.0
v 59.0 -5.0 4.0
v 59.0 -5.0 4.0
v 58.4 -4.0 1.0
v 58.5 -4.0 2.0
v 58.6 -4.0 3.0
v 59.0 -4.0 3.7
v 59.0 -4.0 4.2
v 58.3 -3.0 -1.0
v 58.6 -3.0 0.0
v 59.0 -3.0 0.5
v 59.0 -3.4 1.0
v 59.0 -3.4 2.0
v 59.0 -3.0 2.5
v 58.7 -3.0 3.0
v 59.0 -3.0 4.0
v 59.0 -3.0 4.0
v 58.3 -2.0 -2.0
v 58.7 -2.0 -1.0
v 59.0 -2.0 -0.5
v 59.0 -2.5 0.0
v 59.0 -2.0 2.5
v 58.1 -2.0 4.0
v 59.0 -3.0 4.0
v 58.6 -1.0 -2.0
v 59.0 -1.0 -1.5
v 59.0 -1.5 -1.0
v 59.0 -1.0 2.6
v 58.1 0.0 -4.0
v 58.5 0.0 -3.0
v 59.0 0.0 -2.2
v 59.0 -0.3 -2.0
v 59.0 -0.4 3.0
v 59.0 0.0 3.3
v 58.4 1.0 -3.0
v 59.0 0.3 -2.0
v 58.7 1.0 -2.0
v 59.0 1.0 -1.5
v 59.0 1.0 3.2
v 58.3 2.0 -3.0
v 58.5 2.0 -2.0
v 59.0 1.5 -1.0
v 58.7 2.0 -1.0
v 59.0 2.0 -0.6
v 59.0 1.3 3.0
v 59.0 2.0 2.3
v 58.3 3.0 -2.0
v 58.5 3.0 -1.0
v 59.0 3.0 -0.1
v 58.4 3.0 1.0
v 59.0 2.5 1.0
v 59.0 3.0 0.1
v 59.0 2.2 2.0
v 59.0 3.1 0.0
v 59.0 -5.0 4.0
v 59.2 -4.0 4.0
v 59.4 -3.0 1.0
v 59.3 -3.0 2.0
v 59.0 -3.0 4.0
v 59.5 -2.0 0.0
v 60.0 -2.0 0.8
v 60.0 -2.2 1.0
v 60.0 -2.2 2.0
v 60.0 -2.0 2.2
v 59.4 -1.0 -1.0
v 59.9 -1.0 0.0
v 60.0 -1.6 1.0
v 59.8 -1.0 1.0
v 60.0 -1.0 1.7
v 60.0 -1.0 2.1
v 59.1 0.0 -2.0
v 59.5 0.0 -1.0
v 59.6 0.0 0.0
v 59.5 0.0 1.0
v 60.0 -0.8 2.0
v 59.6 0.0 2.0
v 59.7 0.0 3.0
v 59.3 1.0 -1.0
v 59.5 1.0 0.0
v 59.5 1.0 1.0
v 59.5 1.0 2.0
v 59.3 1.0 3.0
v 59.4 2.0 0.0
v 59.4 2.0 1.0
v 59.2 2.0 2.0
v 59.1 3.0 0.0
v 60.1 -2.0 1.0
v 60.2 -2.0 2.0
v 60.1 -1.0 2.0
f 3 2 1
f 5 4 1
f 1 4 3
f 7 6 5
f 5 6 4
f 7 8 6
f 1 2 9
f 9 2 10
f 1 11 5
f 1 9 11
f 5 12 7
f 5 11 12
f 8 7 13
f 13 7 12
f 16 15 14
f 16 14 10
f 14 9 10
f 14 17 9
f 9 18 11
f 9 17 18
f 20 12 19
f 12 18 19
f 12 11 18
f 12 20 13
f 14 15 21
f 21 15 22
f 24 17 23
f 17 21 23
f 17 14 21
f 17 24 18
f 18 24 25
f 18 25 19
f 22 26 21
f 21 26 23
f 29 28 27
f 31 30 27
f 27 30 29
f 33 32 31
f 31 32 30
f 33 34 32
f 27 28 35
f 35 28 36
f 27 37 31
f 27 35 37
f 31 38 33
f 31 37 38
f 34 33 39
f 39 33 38
f 35 36 40
f 40 36 41
f 35 42 37
f 35 40 42
f 37 43 38
f 37 42 43
f 39 38 44
f 44 38 43
f 41 45 40
f 47 46 45
f 46 40 45
f 46 42 40
f 49 43 48
f 43 46 48
f 43 42 46
f 43 49 44
f 52 51 50
f 50 53 52
f 47 54 46
f 46 54 48
f 55 2 3
f 51 56 50
f 56 3 50
f 3 4 50
f 3 56 55
f 57 53 50
f 4 57 50
f 6 57 4
f 59 58 8
f 58 6 8
f 58 57 6
f 59 60 58
f 62 61 55
f 61 2 55
f 61 10 2
f 62 55 56
f 64 63 59
f 8 64 59
f 13 64 8
f 59 63 60
f 65 15 16
f 66 65 16
f 10 66 16
f 61 66 10
f 19 67 20
f 67 68 20
f 68 13 20
f 68 64 13
f 69 22 65
f 65 22 15
f 70 24 23
f 65 70 23
f 69 65 23
f 70 65 66
f 24 71 25
f 70 71 24
f 19 25 67
f 25 72 67
f 25 71 72
f 67 72 68
f 69 26 22
f 26 69 23
f 75 74 73
f 73 76 75
f 78 77 29
f 29 77 28
f 30 73 74
f 78 30 74
f 29 30 78
f 79 76 73
f 30 79 73
f 32 79 30
f 81 80 34
f 80 32 34
f 80 79 32
f 81 82 80
f 77 36 28
f 83 36 77
f 85 84 81
f 34 85 81
f 39 85 34
f 81 84 82
f 83 41 36
f 86 41 83
f 44 85 39
f 44 87 85
f 45 41 88
f 41 89 88
f 41 86 89
f 88 47 45
f 91 90 49
f 91 49 48
f 44 49 87
f 87 49 90
f 93 92 52
f 52 92 51
f 95 94 53
f 94 52 53
f 94 93 52
f 94 95 89
f 95 88 89
f 95 96 88
f 97 54 47
f 88 97 47
f 96 97 88
f 97 98 54
f 98 48 54
f 98 91 48
f 92 56 51
f 99 56 92
f 57 95 53
f 95 57 58
f 95 58 96
f 97 96 100
f 96 60 100
f 60 101 100
f 60 96 58
f 97 100 98
f 103 102 62
f 62 102 61
f 62 56 99
f 62 99 103
f 64 104 63
f 104 105 63
f 105 60 63
f 105 101 60
f 102 66 61
f 106 66 102
f 108 107 104
f 64 108 104
f 68 108 64
f 104 107 105
f 106 109 66
f 66 109 70
f 109 111 110
f 71 109 110
f 70 109 71
f 112 72 71
f 112 71 110
f 112 113 72
f 113 68 72
f 113 108 68
f 111 114 110
f 110 114 112
f 112 114 115
f 112 115 113
f 117 116 75
f 75 116 74
f 75 76 117
f 117 76 118
f 120 119 78
f 78 119 77
f 78 74 116
f 78 116 120
f 121 118 76
f 121 76 79
f 122 79 80
f 122 121 79
f 80 82 122
f 122 82 123
f 119 83 77
f 124 83 119
f 85 125 84
f 125 126 84
f 126 82 84
f 126 123 82
f 124 86 83
f 127 86 124
f 129 128 125
f 85 129 125
f 87 129 85
f 125 128 126
f 132 131 130
f 127 132 130
f 89 127 130
f 86 127 89
f 91 133 90
f 129 87 134
f 87 133 134
f 133 135 134
f 87 90 133
f 135 136 134
f 138 137 93
f 93 137 92
f 94 130 131
f 138 94 131
f 93 94 138
f 130 94 89
f 140 139 133
f 91 140 133
f 98 140 91
f 133 139 135
f 135 139 141
f 135 141 136
f 137 99 92
f 142 99 137
f 101 143 100
f 143 144 100
f 144 98 100
f 144 140 98
f 145 102 103
f 146 145 103
f 99 146 103
f 142 146 99
f 148 147 143
f 101 148 143
f 105 148 101
f 143 147 144
f 149 106 145
f 145 106 102
f 145 146 150
f 145 150 149
f 108 151 107
f 151 152 107
f 152 105 107
f 152 148 105
f 149 109 106
f 154 153 111
f 154 111 109
f 150 154 109
f 149 150 109
f 155 153 154
f 157 156 151
f 108 157 151
f 113 157 108
f 151 156 152
f 153 114 111
f 155 158 153
f 158 114 153
f 158 115 114
f 113 115 157
f 157 115 158
f 160 159 117
f 117 159 116
f 117 118 160
f 160 118 161
f 163 162 120
f 120 162 119
f 120 116 159
f 120 159 163
f 164 161 118
f 164 118 121
f 165 121 122
f 165 164 121
f 122 123 165
f 165 123 166
f 162 124 119
f 167 124 162
f 126 169 168
f 166 126 168
f 123 126 166
f 169 170 168
f 167 127 124
f 171 127 167
f 129 172 128
f 172 173 128
f 128 173 126
f 173 174 126
f 174 169 126
f 169 174 170
f 176 175 132
f 132 175 131
f 132 127 171
f 132 171 176
f 134 172 129
f 134 136 172
f 136 173 172
f 136 177 173
f 179 178 138
f 138 178 137
f 138 131 175
f 138 175 179
f 140 180 139
f 139 180 181
f 182 139 181
f 141 139 182
f 136 141 177
f 177 141 182
f 178 142 137
f 183 142 178
f 185 184 180
f 140 185 180
f 144 185 140
f 180 184 181
f 183 146 142
f 186 146 183
f 188 187 147
f 188 147 148
f 144 147 185
f 185 147 187
f 191 190 189
f 186 191 189
f 150 186 189
f 146 186 150
f 152 188 148
f 152 192 188
f 190 193 189
f 193 195 194
f 193 194 154
f 189 193 154
f 150 189 154
f 194 155 154
f 197 196 156
f 197 156 157
f 152 156 192
f 192 156 196
f 195 198 194
f 194 198 155
f 198 158 155
f 198 199 158
f 157 158 197
f 197 158 199
f 201 200 160
f 160 200 159
f 160 161 201
f 201 161 202
f 204 203 163
f 163 203 162
f 163 159 200
f 163 200 204
f 205 202 161
f 205 161 164
f 206 164 165
f 206 205 164
f 208 207 166
f 207 165 166
f 207 206 165
f 208 209 207
f 203 167 162
f 210 167 203
f 168 208 166
f 168 170 208
f 170 209 208
f 170 211 209
f 210 171 167
f 212 171 210
f 173 213 174
f 213 214 174
f 214 170 174
f 214 211 170
f 216 215 176
f 176 215 175
f 176 171 212
f 176 212 216
f 218 217 213
f 173 218 213
f 177 218 173
f 213 217 214
f 220 219 179
f 179 219 178
f 179 175 215
f 179 215 220
f 181 221 182
f 221 222 182
f 222 177 182
f 222 218 177
f 225 224 223
f 219 225 223
f 183 219 223
f 178 219 183
f 227 226 184
f 227 184 185
f 181 184 221
f 184 228 221
f 184 226 228
f 221 228 222
f 223 224 229
f 229 224 230
f 229 186 183
f 229 183 223
f 188 231 187
f 231 232 187
f 232 185 187
f 232 227 185
f 229 230 191
f 230 190 191
f 230 233 190
f 229 191 186
f 235 234 231
f 188 235 231
f 192 235 188
f 231 234 232
f 193 190 236
f 190 237 236
f 190 233 237
f 236 195 193
f 197 238 196
f 238 239 196
f 239 192 196
f 239 235 192
f 237 240 236
f 236 240 195
f 240 198 195
f 240 241 198
f 198 242 199
f 241 242 198
f 197 199 238
f 199 243 238
f 199 242 243
f 238 243 239
f 245 244 201
f 201 244 200
f 201 202 245
f 245 202 246
f 247 203 204
f 248 247 204
f 200 248 204
f 244 248 200
f 249 246 202
f 249 202 205
f 250 205 206
f 250 249 205
f 251 206 207
f 251 250 206
f 207 209 251
f 251 209 252
f 254 253 247
f 253 203 247
f 253 210 203
f 254 247 248
f 211 252 209
f 211 255 252
f 258 257 256
f 253 258 256
f 212 253 256
f 210 253 212
f 214 255 211
f 214 259 255
f 262 261 260
f 262 260 257
f 257 260 256
f 260 215 256
f 215 216 256
f 256 216 212
f 264 263 217
f 264 217 218
f 214 217 259
f 259 217 263
f 260 261 220
f 261 219 220
f 261 265 219
f 260 220 215
f 222 264 218
f 222 266 264
f 268 267 225
f 225 267 224
f 225 219 265
f 225 265 268
f 227 269 226
f 270 228 226
f 270 226 269
f 270 271 228
f 271 222 228
f 271 266 222
f 267 230 224
f 272 230 267
f 274 273 269
f 227 274 269
f 232 274 227
f 269 273 270
f 270 273 275
f 270 275 271
f 272 233 230
f 276 233 272
f 235 277 234
f 277 278 234
f 278 232 234
f 278 274 232
f 276 237 233
f 279 237 276
f 281 280 277
f 235 281 277
f 239 281 235
f 277 280 278
f 240 237 282
f 237 283 282
f 237 279 283
f 240 282 284
f 285 240 284
f 241 240 285
f 241 286 242
f 285 286 241
f 242 287 243
f 286 287 242
f 239 243 281
f 281 243 287
f 283 288 282
f 288 289 282
f 289 290 282
f 291 284 282
f 291 282 290
f 293 292 290
f 290 292 291
f 293 294 292
f 290 289 295
f 295 289 296
f 290 297 293
f 290 295 297
f 294 293 298
f 298 293 297
f 296 299 295
f 295 299 297
f 297 299 300
f 297 300 298
f 301 244 245
f 246 301 245
f 303 302 301
f 302 244 301
f 302 248 244
f 303 301 246
f 249 303 246
f 304 303 249
f 305 249 250
f 305 304 249
f 307 305 306
f 305 251 306
f 305 250 251
f 252 306 251
f 309 308 254
f 254 308 253
f 254 248 302
f 254 302 309
f 310 307 306
f 252 255 306
f 255 311 306
f 311 310 306
f 311 255 312
f 312 313 311
f 315 314 258
f 258 314 257
f 258 253 308
f 258 308 315
f 317 316 312
f 255 317 312
f 259 317 255
f 312 316 313
f 319 318 262
f 262 318 261
f 262 257 314
f 262 314 319
f 321 320 263
f 321 263 264
f 259 263 317
f 317 263 320
f 324 323 322
f 318 324 322
f 265 318 322
f 261 318 265
f 266 321 264
f 266 325 321
f 322 323 268
f 323 267 268
f 323 326 267
f 322 268 265
f 271 328 327
f 325 271 327
f 266 271 325
f 328 329 327
f 332 331 330
f 326 332 330
f 272 326 330
f 267 326 272
f 274 333 273
f 273 333 334
f 335 273 334
f 275 273 335
f 271 275 328
f 275 336 328
f 275 335 336
f 328 336 329
f 330 331 337
f 337 331 338
f 337 276 272
f 337 272 330
f 340 339 333
f 274 340 333
f 278 340 274
f 333 339 334
f 337 338 341
f 341 338 342
f 341 279 276
f 341 276 337
f 344 343 280
f 344 280 281
f 278 280 340
f 340 280 343
f 341 342 345
f 345 342 346
f 345 283 279
f 345 279 341
f 284 347 285
f 348 286 285
f 348 285 347
f 349 287 286
f 349 286 348
f 349 350 287
f 350 281 287
f 350 344 281
f 346 351 345
f 351 353 352
f 351 352 288
f 345 351 288
f 283 345 288
f 291 347 284
f 289 288 352
f 347 291 292
f 347 292 348
f 349 348 354
f 348 294 354
f 294 355 354
f 294 348 292
f 349 354 350
f 352 353 356
f 356 353 357
f 356 296 289
f 356 289 352
f 298 355 294
f 298 358 355
f 357 359 356
f 359 361 360
f 359 360 299
f 356 359 299
f 296 356 299
f 299 360 362
f 363 299 362
f 300 299 363
f 298 300 358
f 358 300 363
f 361 364 360
f 360 364 362
f 367 366 365
f 302 303 365
f 303 367 365
f 303 368 367
f 369 303 304
f 369 368 303
f 370 304 305
f 370 369 304
f 305 307 370
f 370 307 371
f 365 366 309
f 366 308 309
f 366 372 308
f 365 309 302
f 373 371 307
f 373 307 310
f 374 310 311
f 374 373 310
f 311 313 374
f 374 313 375
f 377 376 315
f 315 376 314
f 315 308 372
f 315 372 377
f 317 378 316
f 378 379 316
f 379 313 316
f 379 375 313
f 382 381 380
f 318 319 380
f 319 382 380
f 319 383 382
f 319 314 376
f 319 376 383
f 321 384 320
f 384 385 320
f 320 385 317
f 385 386 317
f 386 378 317
f 378 386 379
f 380 381 324
f 381 323 324
f 381 387 323
f 380 324 318
f 389 388 384
f 321 389 384
f 325 389 321
f 384 388 385
f 387 326 323
f 390 326 387
f 391 389 325
f 391 325 327
f 327 329 391
f 391 329 392
f 394 393 332
f 332 393 331
f 332 326 390
f 332 390 394
f 334 395 335
f 335 395 396
f 397 335 396
f 336 335 397
f 329 336 392
f 392 336 397
f 393 338 331
f 398 338 393
f 340 399 339
f 399 400 339
f 339 400 334
f 400 401 334
f 401 395 334
f 395 401 396
f 398 342 338
f 402 342 398
f 344 403 343
f 403 404 343
f 343 404 340
f 404 405 340
f 405 399 340
f 399 405 400
f 402 346 342
f 406 346 402
f 408 407 403
f 344 408 403
f 350 408 344
f 403 407 404
f 406 409 346
f 346 409 351
f 353 351 409
f 353 409 410
f 355 411 354
f 411 412 354
f 412 350 354
f 412 408 350
f 414 357 413
f 357 410 413
f 357 353 410
f 415 414 413
f 417 416 411
f 355 417 411
f 358 417 355
f 411 416 412
f 414 359 357
f 419 418 361
f 419 361 359
f 415 419 359
f 414 415 359
f 363 362 418
f 419 363 418
f 420 363 419
f 358 363 417
f 417 363 420
f 418 364 361
f 364 418 362
f 421 366 367
f 421 367 422
f 367 423 422
f 367 368 423
f 424 368 369
f 424 423 368
f 425 369 370
f 425 424 369
f 370 371 425
f 425 371 426
f 428 427 421
f 427 366 421
f 427 372 366
f 428 421 422
f 429 426 371
f 429 371 373
f 430 373 374
f 430 429 373
f 374 375 430
f 430 375 431
f 433 432 377
f 377 432 376
f 377 372 427
f 377 427 433
f 379 431 375
f 379 434 431
f 436 435 382
f 382 435 381
f 437 382 383
f 437 436 382
f 383 376 432
f 383 432 437
f 385 438 386
f 438 439 386
f 439 379 386
f 439 434 379
f 435 387 381
f 440 387 435
f 389 441 388
f 438 385 388
f 441 438 388
f 442 438 441
f 439 438 443
f 443 438 442
f 440 390 387
f 444 390 440
f 391 441 389
f 442 441 445
f 441 392 445
f 392 446 445
f 392 441 391
f 442 445 443
f 448 447 394
f 394 447 393
f 394 390 444
f 394 444 448
f 450 449 397
f 450 397 396
f 392 397 446
f 446 397 449
f 447 398 393
f 451 398 447
f 453 452 401
f 453 401 400
f 396 401 450
f 450 401 452
f 451 402 398
f 454 402 451
f 404 455 405
f 455 456 405
f 456 400 405
f 456 453 400
f 454 406 402
f 457 406 454
f 408 458 407
f 458 459 407
f 407 459 404
f 459 460 404
f 460 455 404
f 455 460 456
f 457 461 406
f 406 461 409
f 463 462 410
f 409 463 410
f 461 463 409
f 464 462 463
f 467 466 465
f 466 468 458
f 412 466 458
f 408 412 458
f 465 466 412
f 458 468 459
f 462 413 410
f 470 469 415
f 470 415 413
f 464 470 413
f 462 464 413
f 472 471 469
f 472 469 470
f 471 472 467
f 471 467 465
f 417 471 465
f 416 417 465
f 416 465 412
f 469 419 415
f 419 469 420
f 420 469 471
f 420 471 417
f 473 422 423
f 424 474 423
f 423 474 473
f 474 424 475
f 424 476 475
f 424 425 476
f 478 477 426
f 477 425 426
f 477 476 425
f 478 479 477
f 480 427 428
f 481 480 428
f 481 428 422
f 482 481 422
f 473 482 422
f 482 473 474
f 482 474 483
f 483 474 475
f 429 478 426
f 484 479 478
f 429 484 478
f 430 484 429
f 430 431 484
f 484 431 485
f 487 486 433
f 433 486 432
f 433 427 480
f 488 433 480
f 487 433 488
f 488 480 481
f 434 485 431
f 434 489 485
f 490 435 436
f 490 436 491
f 436 492 491
f 436 437 492
f 437 432 486
f 437 486 492
f 439 489 434
f 439 493 489
f 494 440 490
f 490 440 435
f 490 491 495
f 490 495 494
f 443 493 439
f 443 496 493
f 498 497 494
f 497 440 494
f 497 444 440
f 498 494 495
f 500 499 445
f 500 445 446
f 443 445 496
f 496 445 499
f 502 501 448
f 448 501 447
f 448 444 497
f 448 497 502
f 450 503 449
f 503 504 449
f 504 446 449
f 504 500 446
f 506 451 505
f 451 501 505
f 451 447 501
f 507 506 505
f 453 508 452
f 508 509 452
f 452 509 450
f 509 510 450
f 510 503 450
f 503 510 504
f 511 454 506
f 506 454 451
f 506 507 512
f 506 512 511
f 456 513 508
f 456 508 453
f 509 508 514
f 514 508 513
f 515 457 511
f 511 457 454
f 511 512 516
f 511 516 515
f 459 517 460
f 517 518 460
f 460 518 456
f 518 519 456
f 519 513 456
f 513 519 514
f 515 461 457
f 516 520 515
f 520 461 515
f 520 463 461
f 522 521 464
f 463 522 464
f 520 522 463
f 523 521 522
f 467 524 466
f 466 524 525
f 526 466 525
f 468 466 526
f 459 468 517
f 468 527 517
f 468 526 527
f 517 527 518
f 521 470 464
f 523 528 521
f 528 470 521
f 528 472 470
f 467 472 524
f 472 529 524
f 472 528 529
f 524 529 525
f 530 475 476
f 530 476 531
f 476 532 531
f 476 477 532
f 534 533 479
f 533 477 479
f 533 532 477
f 534 535 533
f 536 481 482
f 483 537 482
f 482 537 536
f 475 530 483
f 530 537 483
f 530 538 537
f 530 531 539
f 530 539 538
f 484 534 479
f 484 485 534
f 485 535 534
f 485 540 535
f 541 486 487
f 488 542 487
f 487 542 541
f 481 536 488
f 536 542 488
f 536 543 542
f 537 545 544
f 543 537 544
f 536 537 543
f 545 537 538
f 545 538 546
f 546 538 539
f 489 540 485
f 489 547 540
f 548 491 492
f 486 541 492
f 541 548 492
f 541 549 548
f 542 551 550
f 549 542 550
f 541 542 549
f 551 542 543
f 551 543 552
f 552 543 544
f 493 547 489
f 493 553 547
f 554 495 548
f 548 495 491
f 549 556 555
f 554 549 555
f 548 549 554
f 556 549 550
f 559 558 557
f 560 557 558
f 496 553 493
f 496 561 553
f 562 497 498
f 495 554 498
f 554 562 498
f 554 563 562
f 554 555 564
f 554 564 563
f 559 557 565
f 559 565 566
f 567 499 500
f 557 567 500
f 565 557 500
f 567 557 560
f 496 499 561
f 561 499 567
f 568 501 502
f 569 568 502
f 569 502 497
f 570 569 497
f 562 570 497
f 570 562 563
f 570 563 571
f 571 563 564
f 572 566 565
f 565 500 572
f 500 573 572
f 500 504 573
f 568 505 501
f 575 574 507
f 575 507 505
f 569 575 505
f 568 569 505
f 576 574 575
f 509 577 510
f 577 578 510
f 578 504 510
f 578 573 504
f 579 512 574
f 574 512 507
f 574 576 580
f 574 580 579
f 582 581 577
f 509 582 577
f 514 582 509
f 577 581 578
f 583 516 579
f 579 516 512
f 579 580 584
f 585 579 584
f 583 579 585
f 586 585 584
f 588 587 519
f 588 519 518
f 514 519 582
f 582 519 587
f 583 520 516
f 520 583 522
f 522 583 585
f 590 589 523
f 590 523 522
f 586 590 522
f 585 586 522
f 592 591 589
f 592 589 590
f 526 525 591
f 592 526 591
f 593 526 592
f 526 594 527
f 593 594 526
f 518 527 588
f 588 527 594
f 589 528 523
f 528 589 529
f 529 589 591
f 529 591 525
f 595 531 532
f 533 596 532
f 532 596 595
f 535 596 533
f 597 539 595
f 595 539 531
f 596 599 598
f 597 596 598
f 595 596 597
f 596 535 599
f 535 600 599
f 535 540 600
f 601 544 545
f 546 602 545
f 545 602 601
f 539 597 546
f 597 602 546
f 597 603 602
f 597 598 604
f 597 604 603
f 547 600 540
f 547 605 600
f 606 550 551
f 552 607 551
f 551 607 606
f 608 607 552
f 608 552 544
f 609 608 544
f 601 609 544
f 609 601 602
f 609 602 610
f 612 611 610
f 602 612 610
f 603 612 602
f 603 604 613
f 603 613 612
f 553 605 547
f 553 614 605
f 615 555 556
f 550 606 556
f 606 615 556
f 606 616 615
f 607 618 617
f 616 607 617
f 606 607 616
f 618 607 608
f 611 612 558
f 559 611 558
f 619 611 559
f 621 620 560
f 621 560 558
f 613 621 558
f 612 613 558
f 621 614 620
f 614 561 620
f 614 553 561
f 622 564 615
f 615 564 555
f 616 624 623
f 622 616 623
f 615 616 622
f 624 616 617
f 566 619 559
f 566 625 619
f 620 567 560
f 567 620 561
f 626 569 570
f 571 627 570
f 570 627 626
f 628 627 571
f 628 571 564
f 629 628 564
f 622 629 564
f 629 622 623
f 630 625 566
f 630 566 572
f 572 573 630
f 630 573 631
f 626 575 569
f 575 626 576
f 626 632 576
f 626 627 632
f 627 628 633
f 634 627 633
f 632 627 634
f 635 634 633
f 578 631 573
f 578 636 631
f 637 580 632
f 632 580 576
f 638 632 634
f 637 632 638
f 634 635 639
f 640 634 639
f 638 634 640
f 641 640 639
f 643 642 581
f 643 581 582
f 578 581 636
f 636 581 642
f 637 584 580
f 584 637 586
f 637 644 586
f 637 638 644
f 645 638 640
f 644 638 645
f 640 641 646
f 640 646 645
f 649 648 647
f 587 588 647
f 648 587 647
f 650 587 648
f 582 587 643
f 643 587 650
f 644 590 586
f 590 644 592
f 592 644 645
f 646 651 645
f 651 592 645
f 651 593 592
f 647 594 649
f 594 651 649
f 594 593 651
f 594 647 588
f 652 598 599
f 600 652 599
f 653 604 652
f 652 604 598
f 605 653 600
f 600 653 652
f 654 608 609
f 610 655 609
f 609 655 654
f 611 655 610
f 656 613 653
f 653 613 604
f 614 656 605
f 605 656 653
f 657 617 618
f 658 657 618
f 658 618 608
f 659 658 608
f 654 659 608
f 659 654 655
f 659 655 660
f 655 611 660
f 611 661 660
f 611 619 661
f 656 621 613
f 621 656 614
f 662 623 624
f 617 657 624
f 657 662 624
f 657 663 662
f 657 658 664
f 665 657 664
f 663 657 665
f 666 665 664
f 625 661 619
f 625 667 661
f 668 628 629
f 623 662 629
f 662 668 629
f 662 669 668
f 670 662 663
f 669 662 670
f 671 663 665
f 670 663 671
f 665 666 672
f 673 665 672
f 671 665 673
f 674 673 630
f 673 667 630
f 667 625 630
f 667 673 672
f 631 674 630
f 668 633 628
f 633 668 635
f 668 675 635
f 668 669 675
f 676 669 670
f 675 669 676
f 677 670 671
f 676 670 677
f 678 671 673
f 677 671 678
f 679 673 674
f 678 673 679
f 636 679 631
f 631 679 674
f 675 639 635
f 639 675 641
f 675 680 641
f 675 676 680
f 681 676 677
f 680 676 681
f 682 677 678
f 681 677 682
f 643 682 642
f 682 679 642
f 682 678 679
f 642 679 636
f 683 646 680
f 680 646 641
f 649 683 648
f 683 681 648
f 683 680 681
f 648 681 650
f 650 681 682
f 650 682 643
f 683 651 646
f 651 683 649
f 684 658 659
f 660 685 659
f 659 685 684
f 661 685 660
f 684 664 658
f 664 684 666
f 684 686 666
f 684 685 686
f 667 686 661
f 661 686 685
f 686 672 666
f 672 686 667
