v -17.1 -19.0 -7.0
v -17.0 -19.0 -7.2
v -17.0 -19.1 -7.0
v -17.0 -19.0 -6.8
v -17.2 -18.0 -9.0
v -17.0 -18.0 -9.3
v -17.0 -18.3 -9.0
v -17.0 -18.6 -8.0
v -17.4 -18.0 -8.0
v -17.5 -18.0 -7.0
v -17.0 -18.5 -6.0
v -17.4 -18.0 -6.0
v -17.0 -18.0 -5.3
v -17.4 -17.0 -9.0
v -17.0 -17.0 -9.5
v -17.5 -17.0 -8.0
v -17.6 -17.0 -7.0
v -17.4 -17.0 -6.0
v -17.0 -17.0 -5.3
v -17.4 -16.0 -9.0
v -17.0 -16.0 -9.5
v -17.6 -16.0 -8.0
v -17.9 -16.0 -7.0
v -17.6 -16.0 -6.0
v -17.0 -16.5 -5.0
v -17.2 -16.0 -5.0
v -17.0 -16.0 -4.8
v -17.3 -15.0 -9.0
v -17.0 -15.0 -9.4
v -17.5 -15.0 -8.0
v -17.6 -15.0 -7.0
v -17.5 -15.0 -6.0
v -17.2 -15.0 -5.0
v -17.0 -15.0 -4.8
v -17.0 -14.5 -9.0
v -17.3 -14.0 -8.0
v -17.0 -14.0 -8.5
v -17.4 -14.0 -7.0
v -17.3 -14.0 -6.0
v -17.0 -14.0 -5.6
v -17.0 -14.6 -5.0
v -17.0 -13.6 -8.0
v -17.0 -13.5 -7.0
v -17.0 -13.6 -6.0
v -16.4 -19.0 -9.0
v -16.0 -19.0 -9.4
v -16.0 -19.4 -9.0
v -16.0 -19.5 -8.0
v -16.6 -19.0 -8.0
v -16.0 -19.6 -7.0
v -16.0 -19.4 -6.0
v -16.4 -19.0 -6.0
v -16.0 -19.0 -5.7
v -16.4 -18.0 -10.0
v -16.0 -18.0 -10.4
v -16.0 -18.4 -10.0
v -16.0 -18.0 -5.2
v -16.5 -17.0 -10.0
v -16.0 -17.0 -10.6
v -16.0 -17.6 -5.0
v -16.6 -17.0 -5.0
v -16.0 -17.0 -4.7
v -16.3 -16.0 -11.0
v -16.0 -16.0 -11.4
v -16.0 -16.5 -11.0
v -16.6 -16.0 -10.0
v -16.0 -16.0 -4.5
v -16.3 -15.0 -11.0
v -16.0 -15.0 -11.4
v -16.6 -15.0 -10.0
v -16.0 -15.0 -4.4
v -16.0 -14.5 -11.0
v -16.3 -14.0 -10.0
v -16.0 -14.0 -10.5
v -16.7 -14.0 -9.0
v -16.6 -14.0 -5.0
v -16.0 -14.0 -4.5
v -16.0 -13.5 -10.0
v -16.3 -13.0 -9.0
v -16.0 -13.0 -9.5
v -16.6 -13.0 -8.0
v -16.6 -13.0 -7.0
v -16.6 -13.0 -6.0
v -16.3 -13.0 -5.0
v -16.0 -13.0 -4.7
v -16.0 -12.5 -9.0
v -16.3 -12.0 -8.0
v -16.0 -12.0 -8.5
v -16.4 -12.0 -7.0
v -16.3 -12.0 -6.0
v -16.0 -12.0 -5.6
v -16.0 -12.6 -5.0
v -16.0 -11.6 -8.0
v -16.0 -11.5 -7.0
v -16.0 -11.6 -6.0
v -15.3 -21.0 -6.0
v -15.0 -21.0 -6.5
v -15.0 -21.3 -6.0
v -15.0 -21.4 -5.0
v -15.8 -21.0 -5.0
v -15.0 -21.1 -4.0
v -15.1 -21.0 -4.0
v -15.0 -21.0 -3.8
v -15.4 -20.0 -9.0
v -15.0 -20.0 -9.5
v -15.0 -20.4 -9.0
v -15.0 -20.5 -8.0
v -15.5 -20.0 -8.0
v -15.0 -20.6 -7.0
v -15.5 -20.0 -7.0
v -15.6 -20.0 -6.0
v -15.2 -20.0 -5.0
v -15.0 -20.0 -4.6
v -15.0 -20.7 -4.0
v -15.5 -19.0 -10.0
v -15.0 -19.0 -10.6
v -15.0 -19.5 -10.0
v -15.0 -19.7 -5.0
v -15.0 -19.0 -5.3
v -15.4 -18.0 -11.0
v -15.0 -18.0 -11.5
v -15.0 -18.5 -11.0
v -15.0 -18.3 -5.0
v -15.4 -18.0 -5.0
v -15.0 -18.0 -4.8
v -15.3 -17.0 -12.0
v -15.0 -17.0 -12.4
v -15.0 -17.5 -12.0
v -15.7 -17.0 -11.0
v -15.0 -17.0 -4.5
v -15.5 -16.0 -12.0
v -15.0 -16.0 -12.5
v -15.0 -16.0 -4.4
v -15.5 -15.0 -12.0
v -15.0 -15.0 -12.5
v -15.0 -15.3 -4.0
v -15.3 -15.0 -4.0
v -15.0 -15.0 -3.8
v -15.3 -14.0 -12.0
v -15.0 -14.0 -12.3
v -15.7 -14.0 -11.0
v -15.5 -14.0 -4.0
v -15.0 -14.0 -3.6
v -15.0 -13.6 -12.0
v -15.3 -13.0 -11.0
v -15.0 -13.0 -11.5
v -15.7 -13.0 -10.0
v -15.3 -13.0 -4.0
v -15.0 -13.0 -3.7
v -15.0 -12.5 -11.0
v -15.3 -12.0 -10.0
v -15.0 -12.0 -10.5
v -15.7 -12.0 -9.0
v -15.6 -12.0 -5.0
v -15.0 -12.0 -4.4
v -15.0 -12.6 -4.0
v -15.0 -11.5 -10.0
v -15.3 -11.0 -9.0
v -15.0 -11.0 -9.4
v -15.5 -11.0 -8.0
v -15.5 -11.0 -7.0
v -15.5 -11.0 -6.0
v -15.2 -11.0 -5.0
v -15.0 -11.0 -4.8
v -15.0 -10.7 -9.0
v -15.0 -10.5 -8.0
v -15.0 -10.5 -7.0
v -15.0 -10.5 -6.0
v -15.0 -10.8 -5.0
v -14.0 -22.0 -9.0
v -14.0 -22.0 -9.0
v -14.0 -22.0 -9.0
v -14.0 -22.0 -8.9
v -14.1 -22.0 -7.0
v -14.0 -22.0 -7.3
v -14.0 -22.1 -7.0
v -14.0 -22.0 -6.8
v -14.1 -21.0 -11.0
v -14.0 -21.0 -11.1
v -14.0 -21.1 -11.0
v -14.0 -21.0 -10.7
v -14.5 -21.0 -9.0
v -14.0 -21.0 -9.8
v -14.0 -21.7 -8.0
v -14.5 -21.0 -8.0
v -14.7 -21.0 -7.0
v -14.0 -21.6 -6.0
v -14.0 -21.4 -5.0
v -14.0 -21.4 -4.0
v -14.0 -21.3 -3.0
v -14.4 -21.0 -3.0
v -14.0 -21.0 -2.7
v -14.4 -20.0 -11.0
v -14.0 -20.0 -11.6
v -14.0 -20.8 -10.0
v -14.6 -20.0 -10.0
v -14.4 -20.0 -5.0
v -14.0 -20.2 -5.0
v -14.0 -20.0 -5.2
v -14.5 -20.0 -4.0
v -14.0 -20.0 -4.8
v -14.7 -20.0 -3.0
v -14.0 -20.0 -2.6
v -14.3 -19.0 -12.0
v -14.0 -19.0 -12.5
v -14.0 -19.5 -12.0
v -14.7 -19.0 -11.0
v -14.0 -19.0 -5.5
v -14.0 -19.7 -4.0
v -14.0 -19.7 -3.0
v -14.3 -18.0 -13.0
v -14.0 -18.0 -13.4
v -14.0 -18.5 -13.0
v -14.7 -18.0 -12.0
v -14.7 -18.0 -5.0
v -14.0 -18.0 -5.3
v -14.5 -17.0 -13.0
v -14.0 -17.0 -13.5
v -14.0 -17.5 -5.0
v -14.0 -17.0 -4.7
v -14.5 -16.0 -13.0
v -14.0 -16.0 -13.5
v -14.0 -16.0 -4.4
v -14.5 -15.0 -13.0
v -14.0 -15.0 -13.4
v -14.0 -15.4 -4.0
v -14.0 -15.0 -3.7
v -14.3 -14.0 -13.0
v -14.0 -14.0 -13.3
v -14.0 -14.0 -3.5
v -14.0 -13.6 -13.0
v -14.6 -13.0 -12.0
v -14.0 -13.0 -12.6
v -14.0 -13.0 -3.5
v -14.3 -12.0 -12.0
v -14.0 -12.0 -12.3
v -14.7 -12.0 -11.0
v -14.3 -12.0 -4.0
v -14.0 -12.0 -3.8
v -14.0 -11.6 -12.0
v -14.3 -11.0 -11.0
v -14.0 -11.0 -11.4
v -14.6 -11.0 -10.0
v -14.0 -11.8 -4.0
v -14.0 -11.0 -4.5
v -14.0 -10.7 -11.0
v -14.0 -10.4 -10.0
v -14.3 -10.0 -9.0
v -14.0 -10.0 -9.5
v -14.5 -10.0 -8.0
v -14.5 -10.0 -7.0
v -14.4 -10.0 -6.0
v -14.0 -10.0 -5.5
v -14.0 -10.4 -5.0
v -14.0 -9.7 -9.0
v -14.0 -9.5 -8.0
v -14.0 -9.5 -7.0
v -14.0 -9.6 -6.0
v -13.0 -22.0 -12.0
v -13.0 -22.0 -12.1
v -13.0 -22.0 -12.0
v -13.0 -22.1 -11.0
v -13.1 -22.0 -11.0
v -13.0 -22.0 -10.9
v -13.0 -22.0 -9.5
v -13.0 -22.4 -9.0
v -13.0 -22.4 -8.0
v -13.7 -22.0 -8.0
v -13.0 -22.5 -7.0
v -13.0 -22.3 -6.0
v -13.5 -22.0 -6.0
v -13.0 -22.0 -5.6
v -13.0 -21.7 -12.0
v -13.0 -21.0 -11.9
v -13.0 -21.6 -10.0
v -13.8 -21.0 -10.0
v -13.0 -21.5 -5.0
v -13.0 -21.5 -4.0
v -13.0 -21.5 -3.0
v -13.0 -21.1 -2.0
v -13.1 -21.0 -2.0
v -13.0 -21.0 -1.9
v -13.3 -20.0 -13.0
v -13.0 -20.0 -13.4
v -13.0 -20.4 -13.0
v -13.0 -20.9 -12.0
v -13.6 -20.0 -12.0
v -13.3 -20.0 -6.0
v -13.0 -20.2 -6.0
v -13.0 -20.0 -6.2
v -13.0 -20.5 -5.0
v -13.0 -20.0 -4.5
v -13.3 -20.0 -2.0
v -13.0 -20.0 -1.8
v -13.3 -19.0 -14.0
v -13.0 -19.0 -14.3
v -13.0 -19.4 -14.0
v -13.7 -19.0 -13.0
v -13.4 -19.0 -6.0
v -13.0 -19.0 -6.3
v -13.0 -19.6 -4.0
v -13.0 -19.4 -3.0
v -13.0 -19.7 -2.0
v -13.5 -18.0 -14.0
v -13.0 -18.0 -14.5
v -13.0 -18.5 -6.0
v -13.0 -18.0 -5.7
v -13.5 -17.0 -14.0
v -13.0 -17.0 -14.5
v -13.5 -17.0 -5.0
v -13.0 -17.0 -5.3
v -13.4 -16.0 -14.0
v -13.0 -16.0 -14.3
v -13.0 -16.6 -5.0
v -13.0 -16.0 -4.6
v -13.0 -15.5 -14.0
v -13.0 -15.0 -13.7
v -13.5 -15.0 -4.0
v -13.0 -15.0 -4.3
v -13.0 -14.0 -13.6
v -13.0 -14.5 -4.0
v -13.0 -14.0 -3.7
v -13.5 -13.0 -13.0
v -13.0 -13.0 -13.3
v -13.0 -13.0 -3.7
v -13.0 -12.5 -13.0
v -13.0 -12.0 -12.7
v -13.7 -12.0 -4.0
v -13.0 -12.5 -4.0
v -13.0 -12.0 -4.3
v -13.4 -11.0 -12.0
v -13.0 -11.0 -12.3
v -13.0 -11.0 -4.5
v -13.0 -10.6 -12.0
v -13.3 -10.0 -11.0
v -13.0 -10.0 -11.4
v -13.6 -10.0 -10.0
v -13.4 -10.0 -5.0
v -13.0 -10.0 -4.7
v -13.0 -9.7 -11.0
v -13.0 -9.5 -10.0
v -13.0 -9.3 -9.0
v -13.4 -9.0 -8.0
v -13.0 -9.0 -8.5
v -13.5 -9.0 -7.0
v -13.3 -9.0 -6.0
v -13.0 -9.0 -5.7
v -13.0 -9.7 -5.0
v -13.0 -8.6 -8.0
v -13.0 -8.6 -7.0
v -13.0 -8.8 -6.0
v -12.2 -24.0 -14.0
v -12.0 -24.0 -14.3
v -12.0 -24.2 -14.0
v -12.0 -24.0 -13.2
v -12.1 -23.0 -15.0
v -12.0 -23.0 -15.1
v -12.0 -23.2 -15.0
v -12.4 -23.0 -14.0
v -12.0 -23.9 -13.0
v -12.3 -23.0 -13.0
v -12.0 -23.0 -12.7
v -12.0 -22.7 -15.0
v -12.3 -22.0 -14.0
v -12.0 -22.0 -14.6
v -12.5 -22.0 -13.0
v -12.0 -22.4 -12.0
v -12.8 -22.0 -11.0
v -12.0 -22.0 -11.4
v -12.0 -22.0 -9.7
v -12.0 -22.4 -9.0
v -12.0 -22.5 -8.0
v -12.0 -22.5 -7.0
v -12.0 -22.4 -6.0
v -12.0 -22.0 -5.4
v -12.0 -21.0 -14.0
v -12.0 -21.0 -14.6
v -12.5 -21.0 -13.0
v -12.9 -21.0 -12.0
v -12.0 -21.7 -11.0
v -12.0 -21.8 -10.0
v -12.0 -21.6 -5.0
v -12.0 -21.5 -4.0
v -12.0 -21.4 -3.0
v -12.9 -21.0 -2.0
v -12.0 -21.0 -2.5
v -12.5 -20.0 -14.0
v -12.0 -20.0 -14.7
v -12.0 -20.4 -6.0
v -12.0 -20.0 -6.4
v -12.0 -20.5 -5.0
v -12.0 -20.0 -4.5
v -12.0 -20.4 -2.0
v -12.0 -20.0 -1.7
v -12.3 -19.0 -15.0
v -12.0 -19.0 -15.3
v -12.0 -19.6 -15.0
v -12.0 -19.0 -6.6
v -12.0 -19.5 -4.0
v -12.4 -19.0 -3.0
v -12.0 -19.0 -3.4
v -12.4 -19.0 -2.0
v -12.0 -19.0 -1.7
v -12.5 -18.0 -15.0
v -12.0 -18.0 -15.4
v -12.5 -18.0 -6.0
v -12.0 -18.0 -6.3
v -12.0 -18.6 -3.0
v -12.1 -18.0 -2.0
v -12.0 -18.0 -2.1
v -12.0 -18.0 -1.9
v -12.4 -17.0 -15.0
v -12.0 -17.0 -15.3
v -12.0 -17.5 -6.0
v -12.0 -17.0 -5.6
v -12.0 -17.9 -2.0
v -12.0 -16.5 -15.0
v -12.0 -16.0 -14.7
v -12.0 -16.3 -5.0
v -12.0 -16.0 -4.7
v -12.1 -16.0 -1.0
v -12.0 -16.0 -1.2
v -12.0 -16.4 -1.0
v -12.0 -16.0 -0.9
v -12.6 -15.0 -14.0
v -12.0 -15.0 -14.5
v -12.0 -15.0 -4.5
v -12.0 -15.3 -1.0
v -12.4 -14.0 -14.0
v -12.0 -14.0 -14.4
v -12.6 -14.0 -4.0
v -12.0 -14.0 -4.4
v -12.0 -13.5 -14.0
v -12.0 -13.0 -13.7
v -12.6 -13.0 -4.0
v -12.0 -13.0 -4.4
v -12.5 -12.0 -13.0
v -12.0 -12.0 -13.4
v -12.0 -12.0 -4.5
v -12.0 -11.5 -13.0
v -12.0 -11.0 -12.7
v -12.0 -11.0 -4.5
v -12.4 -10.0 -12.0
v -12.0 -10.0 -12.3
v -12.0 -10.0 -4.7
v -12.0 -9.7 -12.0
v -12.0 -9.3 -11.0
v -12.4 -9.0 -10.0
v -12.0 -9.0 -10.5
v -12.7 -9.0 -9.0
v -12.0 -9.6 -5.0
v -12.0 -9.0 -5.6
v -12.0 -8.7 -10.0
v -12.0 -8.4 -9.0
v -12.2 -8.0 -8.0
v -12.0 -8.0 -8.3
v -12.0 -8.0 -7.7
v -12.0 -8.3 -7.0
v -12.0 -8.6 -6.0
v -12.0 -7.9 -8.0
v -11.4 -24.0 -15.0
v -11.0 -24.0 -15.3
v -11.0 -24.3 -15.0
v -11.0 -24.4 -14.0
v -11.0 -24.0 -13.5
v -11.0 -23.0 -15.6
v -11.5 -23.0 -13.0
v -11.0 -23.0 -13.3
v -11.7 -22.0 -15.0
v -11.0 -22.0 -15.7
v -11.0 -22.7 -13.0
v -11.0 -22.3 -12.0
v -11.0 -22.0 -11.5
v -11.5 -22.0 -10.0
v -11.0 -22.0 -10.5
v -11.0 -22.3 -10.0
v -11.0 -22.5 -9.0
v -11.0 -22.5 -8.0
v -11.0 -22.5 -7.0
v -11.0 -22.5 -6.0
v -11.0 -22.3 -5.0
v -11.5 -22.0 -5.0
v -11.0 -22.0 -4.6
v -11.3 -21.0 -16.0
v -11.0 -21.0 -16.4
v -11.0 -21.5 -16.0
v -12.0 -21.0 -15.0
v -11.0 -21.7 -11.0
v -11.0 -21.6 -4.0
v -11.0 -21.2 -3.0
v -11.0 -21.0 -2.7
v -11.3 -20.0 -16.0
v -11.0 -20.0 -16.4
v -11.8 -20.0 -15.0
v -11.0 -20.4 -6.0
v -11.0 -20.0 -6.5
v -11.0 -20.4 -5.0
v -11.0 -20.0 -4.5
v -11.6 -20.0 -2.0
v -11.0 -20.0 -2.3
v -11.0 -19.5 -16.0
v -11.0 -19.0 -15.7
v -11.2 -19.0 -7.0
v -11.0 -19.3 -7.0
v -11.0 -19.0 -7.2
v -11.0 -19.5 -4.0
v -11.0 -19.0 -3.6
v -11.0 -19.4 -2.0
v -11.0 -19.0 -1.7
v -11.0 -18.0 -15.6
v -11.0 -18.7 -7.0
v -11.0 -18.0 -6.7
v -11.3 -18.0 -3.0
v -11.0 -18.0 -3.2
v -11.0 -18.0 -1.7
v -11.0 -17.0 -15.7
v -11.5 -17.0 -6.0
v -11.0 -17.0 -6.3
v -11.0 -17.7 -3.0
v -11.3 -17.0 -2.0
v -11.0 -17.0 -2.3
v -11.0 -17.0 -1.6
v -11.1 -16.0 -16.0
v -11.0 -16.0 -16.1
v -11.0 -16.2 -16.0
v -11.7 -16.0 -15.0
v -11.0 -16.6 -6.0
v -11.6 -16.0 -5.0
v -11.0 -16.0 -5.5
v -11.3 -16.0 -2.0
v -11.0 -16.0 -2.2
v -11.0 -16.3 -1.0
v -11.0 -16.0 -0.8
v -11.0 -15.8 -16.0
v -11.5 -15.0 -15.0
v -11.0 -15.0 -15.6
v -11.0 -15.4 -5.0
v -11.0 -15.0 -4.7
v -11.0 -15.7 -2.0
v -11.8 -15.0 -1.0
v -11.0 -15.0 -1.3
v -11.0 -15.0 -0.8
v -11.4 -14.0 -15.0
v -11.0 -14.0 -15.4
v -11.0 -14.0 -4.6
v -11.0 -14.3 -1.0
v -11.0 -13.5 -15.0
v -11.7 -13.0 -14.0
v -11.0 -13.0 -14.6
v -11.0 -13.0 -4.6
v -11.4 -12.0 -14.0
v -11.0 -12.0 -14.4
v -11.0 -12.0 -4.6
v -11.0 -11.6 -14.0
v -11.6 -11.0 -13.0
v -11.0 -11.0 -13.5
v -11.0 -11.0 -4.7
v -11.0 -10.5 -13.0
v -11.0 -10.0 -12.6
v -11.5 -10.0 -5.0
v -11.0 -10.5 -5.0
v -11.0 -10.0 -5.3
v -11.0 -9.4 -12.0
v -11.5 -9.0 -11.0
v -11.0 -9.0 -11.5
v -11.0 -9.0 -5.6
v -11.0 -8.7 -11.0
v -11.0 -8.3 -10.0
v -11.5 -8.0 -9.0
v -11.0 -8.0 -9.5
v -11.5 -8.0 -7.0
v -11.0 -8.0 -6.6
v -11.0 -8.5 -6.0
v -11.0 -7.7 -9.0
v -11.0 -7.5 -8.0
v -11.0 -7.7 -7.0
v -10.3 -25.0 -15.0
v -10.0 -25.0 -15.2
v -10.0 -25.2 -15.0
v -10.0 -25.2 -14.0
v -10.3 -25.0 -14.0
v -10.0 -25.0 -13.8
v -10.0 -24.0 -15.8
v -10.0 -24.0 -13.5
v -10.2 -23.0 -17.0
v -10.0 -23.0 -17.2
v -10.0 -23.5 -17.0
v -10.0 -23.8 -16.0
v -10.5 -23.0 -16.0
v -10.0 -23.0 -13.5
v -10.0 -22.4 -17.0
v -10.7 -22.0 -16.0
v -10.0 -22.0 -16.8
v -10.3 -22.0 -13.0
v -10.0 -22.0 -13.2
v -10.7 -22.0 -12.0
v -10.0 -22.0 -10.5
v -10.0 -22.3 -10.0
v -10.0 -22.5 -9.0
v -10.0 -22.5 -8.0
v -10.0 -22.4 -7.0
v -10.0 -22.5 -6.0
v -10.0 -22.3 -5.0
v -10.0 -22.0 -4.7
v -10.1 -21.0 -18.0
v -10.0 -21.0 -18.1
v -10.0 -21.2 -18.0
v -10.0 -21.8 -17.0
v -10.5 -21.0 -17.0
v -10.0 -21.7 -13.0
v -10.0 -21.5 -12.0
v -10.0 -21.5 -11.0
v -10.0 -21.4 -4.0
v -10.6 -21.0 -3.0
v -10.0 -21.0 -3.6
v -10.0 -20.8 -18.0
v -10.5 -20.0 -17.0
v -10.0 -20.0 -17.6
v -10.5 -20.0 -7.0
v -10.0 -20.4 -7.0
v -10.0 -20.0 -7.4
v -10.0 -20.5 -6.0
v -10.0 -20.3 -5.0
v -10.0 -20.0 -4.6
v -10.0 -20.4 -3.0
v -10.0 -20.0 -2.7
v -10.3 -19.0 -17.0
v -10.0 -19.0 -17.3
v -10.7 -19.0 -16.0
v -10.0 -19.0 -7.6
v -10.0 -19.4 -4.0
v -10.0 -19.0 -3.4
v -10.7 -19.0 -2.0
v -10.0 -19.0 -2.7
v -10.0 -18.6 -17.0
v -10.6 -18.0 -16.0
v -10.0 -18.0 -16.6
v -10.5 -18.0 -7.0
v -10.0 -18.0 -7.4
v -10.0 -18.0 -3.0
v -10.5 -18.0 -2.0
v -10.0 -18.0 -3.0
v -10.6 -17.0 -16.0
v -10.0 -17.0 -16.5
v -10.0 -17.5 -7.0
v -10.0 -17.0 -6.7
v -10.0 -18.0 -3.0
v -10.0 -17.0 -2.0
v -10.0 -17.0 -2.0
v -10.0 -17.0 -2.0
v -10.0 -16.0 -16.5
v -10.4 -16.0 -6.0
v -10.0 -16.0 -6.3
v -10.0 -16.0 -2.1
v -10.7 -16.0 -1.0
v -10.0 -16.0 -1.8
v -10.6 -15.0 -16.0
v -10.0 -15.0 -16.5
v -10.0 -15.5 -6.0
v -10.7 -15.0 -5.0
v -10.0 -15.0 -5.6
v -10.0 -15.6 -2.0
v -10.7 -15.0 -1.0
v -10.4 -14.0 -16.0
v -10.0 -14.0 -16.4
v -10.5 -14.0 -5.0
v -10.0 -14.0 -5.4
v -10.0 -13.5 -16.0
v -10.6 -13.0 -15.0
v -10.0 -13.0 -15.6
v -10.5 -13.0 -5.0
v -10.0 -13.0 -5.4
v -10.3 -12.0 -15.0
v -10.0 -12.0 -15.3
v -10.5 -12.0 -5.0
v -10.0 -12.0 -5.4
v -10.0 -11.7 -15.0
v -10.4 -11.0 -14.0
v -10.0 -11.0 -14.4
v -10.6 -11.0 -5.0
v -10.0 -11.0 -5.4
v -10.0 -10.6 -14.0
v -10.5 -10.0 -13.0
v -10.0 -10.0 -13.4
v -10.0 -10.0 -5.5
v -10.0 -9.5 -13.0
v -10.5 -9.0 -12.0
v -10.0 -9.0 -12.5
v -10.0 -9.0 -5.7
v -10.0 -8.6 -12.0
v -10.0 -8.3 -11.0
v -10.5 -8.0 -10.0
v -10.0 -8.0 -10.6
v -10.0 -8.6 -6.0
v -10.0 -8.0 -6.6
v -10.1 -7.0 -14.0
v -10.0 -7.0 -14.1
v -10.0 -7.1 -14.0
v -10.0 -7.2 -13.0
v -10.5 -7.0 -13.0
v -10.0 -7.0 -12.7
v -10.0 -7.6 -10.0
v -10.0 -7.4 -9.0
v -10.0 -7.4 -8.0
v -10.0 -7.6 -7.0
v -10.0 -6.9 -14.0
v -10.0 -6.7 -13.0
v -9.0 -25.0 -15.4
v -9.0 -25.4 -15.0
v -9.0 -25.4 -14.0
v -9.0 -25.0 -13.6
v -9.7 -24.0 -16.0
v -9.0 -24.0 -16.5
v -9.0 -24.4 -16.0
v -9.0 -24.0 -13.4
v -9.0 -23.0 -17.5
v -9.0 -23.5 -17.0
v -9.0 -23.0 -13.4
v -9.4 -22.0 -18.0
v -9.0 -22.0 -18.4
v -9.0 -22.4 -18.0
v -9.9 -22.0 -17.0
v -9.0 -22.0 -13.3
v -9.1 -22.0 -10.0
v -9.0 -22.0 -9.9
v -9.0 -22.2 -9.0
v -9.0 -22.0 -8.0
v -9.5 -22.0 -7.0
v -9.0 -22.0 -8.0
v -9.0 -22.0 -6.1
v -9.0 -22.1 -6.0
v -9.6 -22.0 -5.0
v -9.0 -22.0 -5.9
v -9.3 -21.0 -19.0
v -9.0 -21.0 -19.3
v -9.0 -21.4 -19.0
v -9.0 -21.0 -13.0
v -9.0 -21.0 -13.0
v -9.4 -21.0 -12.0
v -9.5 -21.0 -11.0
v -9.3 -21.0 -10.0
v -9.0 -21.7 -9.0
v -9.4 -21.0 -9.0
v -9.4 -21.0 -8.0
v -9.0 -22.0 -8.0
v -9.5 -21.0 -7.0
v -9.0 -21.0 -6.3
v -9.0 -21.4 -5.0
v -9.6 -21.0 -4.0
v -9.0 -21.0 -4.6
v -9.2 -20.0 -19.0
v -9.0 -20.0 -19.2
v -9.6 -20.0 -18.0
v -9.0 -21.0 -13.0
v -9.0 -20.6 -12.0
v -9.0 -20.5 -11.0
v -9.0 -20.5 -10.0
v -9.0 -20.0 -9.5
v -9.3 -20.0 -9.0
v -9.6 -20.0 -8.0
v -9.0 -20.7 -6.0
v -9.4 -20.0 -5.0
v -9.0 -20.0 -5.2
v -9.0 -20.3 -4.0
v -9.7 -20.0 -3.0
v -9.0 -20.0 -3.8
v -9.0 -19.8 -19.0
v -9.0 -19.3 -18.0
v -9.0 -19.0 -17.7
v -9.0 -19.5 -9.0
v -9.0 -19.0 -8.6
v -9.5 -19.0 -8.0
v -9.0 -19.8 -5.0
v -9.0 -19.4 -4.0
v -9.7 -19.0 -3.0
v -9.6 -18.0 -17.0
v -9.0 -18.0 -17.4
v -9.4 -18.0 -8.0
v -9.0 -18.0 -8.4
v -10.0 -18.0 -3.0
v -9.3 -17.0 -17.0
v -9.0 -17.0 -17.3
v -9.0 -17.6 -8.0
v -9.6 -17.0 -7.0
v -9.0 -17.0 -7.5
v -10.0 -17.0 -2.0
v -9.0 -16.5 -17.0
v -9.0 -16.0 -16.7
v -9.0 -16.4 -7.0
v -9.0 -16.0 -6.7
v -9.9 -16.0 -2.0
v -9.3 -15.0 -17.0
v -9.0 -15.0 -17.3
v -9.0 -15.5 -17.0
v -9.5 -15.0 -6.0
v -9.0 -15.0 -6.4
v -9.3 -14.0 -17.0
v -9.0 -14.0 -17.3
v -9.0 -14.4 -6.0
v -9.0 -14.0 -5.7
v -9.0 -13.6 -17.0
v -9.5 -13.0 -16.0
v -9.0 -13.0 -16.5
v -9.0 -13.0 -5.6
v -9.0 -12.5 -16.0
v -9.0 -12.0 -15.6
v -9.0 -12.0 -5.6
v -9.0 -11.4 -15.0
v -9.0 -11.0 -14.6
v -9.0 -11.0 -5.6
v -9.1 -10.0 -18.0
v -9.0 -10.0 -18.1
v -9.0 -10.1 -18.0
v -9.0 -10.2 -17.0
v -9.5 -10.0 -17.0
v -9.0 -10.0 -16.8
v -9.0 -10.3 -14.0
v -9.0 -10.0 -13.7
v -9.0 -10.0 -5.7
v -9.0 -9.9 -18.0
v -9.0 -9.6 -17.0
v -9.0 -9.3 -16.0
v -9.6 -9.0 -16.0
v -9.0 -9.0 -16.4
v -9.0 -9.0 -15.7
v -9.5 -9.0 -13.0
v -9.0 -9.0 -13.4
v -9.5 -9.0 -6.0
v -9.0 -9.5 -6.0
v -9.0 -9.0 -6.3
v -9.3 -8.0 -16.0
v -9.0 -8.0 -16.2
v -9.0 -8.5 -15.0
v -9.8 -8.0 -15.0
v -9.0 -8.0 -14.4
v -9.0 -8.4 -13.0
v -9.5 -8.0 -12.0
v -9.0 -8.0 -12.7
v -9.7 -8.0 -11.0
v -9.0 -8.0 -6.7
v -9.0 -7.7 -16.0
v -9.3 -7.0 -15.0
v -9.0 -7.0 -15.3
v -9.0 -7.7 -14.0
v -9.0 -7.8 -13.0
v -9.6 -7.0 -12.0
v -9.1 -7.0 -11.0
v -9.4 -7.0 -10.0
v -9.5 -7.0 -9.0
v -9.3 -7.0 -8.0
v -9.0 -7.0 -7.7
v -9.0 -7.7 -7.0
v -9.0 -6.8 -15.0
v -9.0 -6.4 -14.0
v -9.5 -6.0 -13.0
v -9.0 -6.0 -13.5
v -9.9 -6.0 -12.0
v -9.3 -6.0 -11.0
v -9.0 -6.0 -10.5
v -9.0 -6.5 -10.0
v -9.0 -6.6 -9.0
v -9.0 -6.8 -8.0
v -9.0 -5.7 -13.0
v -9.0 -5.4 -12.0
v -9.0 -5.0 -11.0
v -9.0 -5.0 -11.1
v -9.0 -5.0 -11.0
v -9.0 -5.0 -11.0
v -8.0 -25.0 -15.5
v -8.0 -25.4 -15.0
v -8.0 -25.5 -14.0
v -8.0 -25.2 -13.0
v -8.3 -25.0 -13.0
v -8.0 -25.0 -12.8
v -8.0 -24.0 -16.5
v -8.0 -24.5 -16.0
v -8.5 -24.0 -13.0
v -8.0 -24.0 -12.6
v -8.0 -23.0 -17.5
v -8.0 -23.5 -17.0
v -8.5 -23.0 -13.0
v -8.0 -23.0 -12.3
v -8.1 -22.0 -19.0
v -8.0 -22.0 -19.0
v -8.0 -22.0 -19.0
v -8.0 -22.6 -18.0
v -8.4 -22.0 -13.0
v -8.0 -22.0 -12.7
v -8.8 -22.0 -9.0
v -9.0 -22.0 -8.0
v -8.9 -22.0 -6.0
v -8.0 -21.0 -19.3
v -8.9 -21.0 -13.0
v -8.0 -21.0 -12.7
v -8.8 -21.0 -6.0
v -8.7 -21.0 -5.0
v -8.0 -20.0 -19.2
v -8.0 -20.4 -12.0
v -8.4 -20.0 -11.0
v -8.0 -20.0 -11.5
v -8.6 -20.0 -10.0
v -8.5 -20.0 -5.0
v -8.8 -20.0 -4.0
v -8.0 -19.7 -19.0
v -8.5 -19.0 -18.0
v -8.0 -19.0 -18.4
v -8.0 -19.6 -11.0
v -8.0 -19.3 -10.0
v -8.6 -19.0 -9.0
v -8.0 -19.0 -9.7
v -8.0 -18.6 -18.0
v -8.0 -18.0 -17.6
v -8.4 -18.0 -9.0
v -8.0 -18.0 -9.4
v -8.0 -17.0 -17.4
v -8.0 -17.6 -9.0
v -8.5 -17.0 -8.0
v -8.0 -17.0 -8.5
v -8.0 -16.1 -17.0
v -8.0 -16.0 -16.9
v -8.0 -16.4 -8.0
v -8.7 -16.0 -7.0
v -8.0 -16.0 -7.6
v -8.0 -15.0 -17.4
v -8.0 -15.9 -17.0
v -8.4 -15.0 -7.0
v -8.0 -15.0 -7.4
v -8.0 -14.0 -17.5
v -8.0 -14.5 -7.0
v -8.7 -14.0 -6.0
v -8.0 -14.0 -6.6
v -8.4 -13.0 -17.0
v -8.0 -13.0 -17.3
v -8.5 -13.0 -6.0
v -8.0 -13.0 -6.5
v -8.0 -12.7 -17.0
v -8.5 -12.0 -16.0
v -8.0 -12.0 -16.4
v -8.5 -12.0 -6.0
v -8.0 -12.0 -6.5
v -8.1 -11.0 -19.0
v -8.0 -11.0 -19.1
v -8.0 -11.1 -19.0
v -8.0 -11.0 -18.9
v -8.0 -11.6 -16.0
v -8.5 -11.0 -15.0
v -8.0 -11.0 -15.4
v -8.5 -11.0 -6.0
v -8.0 -11.0 -6.5
v -8.0 -10.0 -19.0
v -8.0 -10.0 -19.0
v -8.0 -10.5 -18.0
v -8.0 -10.4 -17.0
v -8.0 -10.0 -16.6
v -8.0 -10.6 -15.0
v -8.7 -10.0 -14.0
v -8.0 -10.0 -14.5
v -8.6 -10.0 -6.0
v -8.0 -10.0 -6.5
v -8.0 -10.0 -19.0
v -8.1 -9.0 -18.0
v -8.0 -9.0 -18.1
v -8.6 -9.0 -17.0
v -8.0 -9.5 -16.0
v -8.0 -9.0 -15.2
v -8.4 -9.0 -14.0
v -8.0 -9.0 -14.8
v -8.0 -9.0 -6.7
v -8.0 -9.0 -4.0
v -8.0 -9.0 -4.0
v -8.0 -9.0 -4.0
v -8.0 -9.0 -4.0
v -8.0 -8.9 -18.0
v -8.0 -8.6 -17.0
v -8.0 -8.0 -16.3
v -8.0 -8.8 -15.0
v -8.7 -8.0 -14.0
v -8.5 -8.0 -13.0
v -8.4 -8.0 -7.0
v -8.0 -8.3 -7.0
v -8.0 -8.0 -7.2
v -8.3 -8.0 -4.0
v -8.0 -8.0 -4.4
v -8.0 -8.0 -3.3
v -8.0 -7.7 -16.0
v -8.0 -7.0 -15.4
v -8.0 -7.0 -7.6
v -8.2 -7.0 -4.0
v -8.0 -7.0 -4.2
v -8.0 -7.0 -3.8
v -8.0 -6.6 -15.0
v -8.5 -6.0 -14.0
v -8.0 -6.0 -14.3
v -8.5 -6.0 -10.0
v -8.0 -6.0 -9.4
v -8.0 -6.3 -9.0
v -8.0 -6.6 -8.0
v -8.0 -6.5 -4.0
v -8.0 -5.7 -14.0
v -8.0 -5.3 -13.0
v -8.5 -5.0 -12.0
v -8.0 -5.0 -12.5
v -8.0 -5.4 -10.0
v -8.0 -5.0 -10.4
v -8.0 -4.6 -12.0
v -8.0 -4.5 -11.0
v -7.0 -25.0 -15.3
v -7.0 -25.2 -15.0
v -7.0 -25.4 -14.0
v -7.0 -25.2 -13.0
v -7.0 -25.0 -12.8
v -7.0 -24.0 -16.4
v -7.0 -24.4 -16.0
v -7.0 -24.0 -12.7
v -7.0 -23.0 -17.4
v -7.0 -23.4 -17.0
v -7.5 -23.0 -13.0
v -7.0 -23.6 -13.0
v -7.0 -23.0 -13.4
v -7.9 -22.0 -19.0
v -7.0 -22.0 -18.2
v -7.0 -22.2 -18.0
v -7.3 -22.0 -14.0
v -7.0 -22.4 -14.0
v -7.0 -22.0 -14.3
v -7.8 -22.0 -13.0
v -7.6 -21.0 -19.0
v -7.0 -21.0 -18.1
v -7.4 -21.0 -14.0
v -7.0 -21.0 -14.4
v -7.7 -21.0 -13.0
v -7.7 -20.0 -19.0
v -7.0 -20.0 -18.4
v -7.2 -20.0 -14.0
v -7.0 -20.0 -14.2
v -7.4 -20.0 -13.0
v -7.6 -20.0 -12.0
v -7.0 -19.0 -18.4
v -7.0 -19.7 -14.0
v -7.0 -19.5 -13.0
v -7.0 -19.3 -12.0
v -7.4 -19.0 -11.0
v -7.0 -19.0 -11.6
v -7.7 -19.0 -10.0
v -7.0 -18.5 -18.0
v -7.0 -18.0 -17.5
v -7.0 -18.5 -11.0
v -7.0 -18.0 -10.5
v -7.4 -18.0 -10.0
v -7.0 -17.0 -17.4
v -7.0 -17.5 -10.0
v -7.5 -17.0 -9.0
v -7.0 -17.0 -9.6
v -7.9 -16.0 -17.0
v -7.0 -16.0 -17.4
v -7.0 -16.4 -9.0
v -7.6 -16.0 -8.0
v -7.0 -16.0 -8.7
v -7.0 -15.0 -17.5
v -7.4 -15.0 -8.0
v -7.0 -15.0 -8.4
v -7.0 -14.0 -17.5
v -7.0 -14.5 -8.0
v -7.6 -14.0 -7.0
v -7.0 -14.0 -7.6
v -7.0 -13.0 -17.4
v -7.5 -13.0 -7.0
v -7.0 -13.0 -7.4
v -8.0 -12.0 -20.0
v -7.0 -12.0 -20.3
v -7.0 -12.3 -20.0
v -7.0 -12.0 -19.6
v -7.0 -12.5 -17.0
v -7.0 -12.0 -16.6
v -7.5 -12.0 -7.0
v -7.0 -12.0 -7.4
v -7.3 -11.0 -20.0
v -7.0 -11.0 -20.2
v -7.0 -11.6 -19.0
v -7.0 -11.2 -18.0
v -7.3 -11.0 -18.0
v -7.0 -11.0 -17.7
v -7.0 -11.4 -16.0
v -7.0 -11.0 -15.6
v -7.4 -11.0 -7.0
v -7.0 -11.0 -7.4
v -7.0 -10.8 -20.0
v -7.0 -10.5 -19.0
v -8.0 -10.0 -19.0
v -7.0 -10.5 -18.0
v -7.2 -10.0 -18.0
v -7.0 -10.0 -17.7
v -7.0 -10.5 -17.0
v -7.0 -10.0 -16.4
v -7.0 -10.3 -15.0
v -7.0 -10.0 -14.8
v -7.3 -10.0 -7.0
v -7.0 -10.0 -7.2
v -7.9 -9.0 -18.0
v -7.0 -9.0 -17.3
v -7.0 -9.6 -16.0
v -7.0 -9.7 -15.0
v -7.8 -9.0 -15.0
v -7.1 -9.0 -7.0
v -7.0 -9.0 -7.1
v -7.3 -9.0 -5.0
v -7.0 -9.0 -5.4
v -7.0 -9.3 -5.0
v -7.0 -9.3 -4.0
v -7.0 -9.0 -3.7
v -7.0 -8.7 -17.0
v -7.5 -8.0 -16.0
v -7.0 -8.4 -16.0
v -7.0 -8.0 -15.6
v -7.6 -8.0 -7.0
v -7.0 -8.8 -7.0
v -7.0 -8.0 -6.5
v -7.5 -8.0 -5.0
v -7.0 -8.0 -5.6
v -7.0 -8.0 -3.5
v -7.3 -7.0 -15.0
v -7.0 -7.2 -15.0
v -7.0 -7.0 -14.9
v -7.0 -7.5 -7.0
v -7.0 -7.0 -7.3
v -7.4 -7.0 -5.0
v -7.0 -7.0 -5.5
v -7.0 -7.0 -3.7
v -7.0 -6.0 -14.4
v -7.7 -6.0 -9.0
v -7.0 -6.0 -8.2
v -7.0 -6.2 -8.0
v -7.0 -6.2 -5.0
v -7.0 -6.6 -4.0
v -7.0 -5.5 -14.0
v -7.5 -5.0 -13.0
v -7.0 -5.0 -13.4
v -7.7 -5.0 -10.0
v -7.4 -5.0 -9.0
v -7.0 -5.1 -8.0
v -7.0 -5.0 -8.0
v -7.0 -5.0 -8.0
v -7.0 -4.6 -13.0
v -7.1 -4.0 -12.0
v -7.0 -4.0 -12.1
v -7.4 -4.0 -11.0
v -7.2 -4.0 -10.0
v -7.0 -4.0 -9.7
v -7.0 -4.6 -9.0
v -7.0 -5.0 -8.0
v -7.0 -3.9 -12.0
v -7.0 -3.7 -11.0
v -7.0 -3.8 -10.0
v -6.7 -25.0 -15.0
v -6.6 -25.0 -14.0
v -6.8 -25.0 -13.0
v -6.6 -24.0 -16.0
v -6.0 -24.0 -15.4
v -6.0 -24.3 -15.0
v -6.0 -24.1 -14.0
v -6.0 -24.0 -13.9
v -6.7 -24.0 -13.0
v -6.6 -23.0 -17.0
v -6.0 -23.0 -16.5
v -6.0 -23.5 -16.0
v -6.5 -23.0 -14.0
v -6.0 -23.8 -14.0
v -6.0 -23.0 -14.4
v -6.7 -22.0 -18.0
v -6.0 -22.0 -17.5
v -6.0 -22.5 -17.0
v -6.0 -22.0 -14.6
v -6.1 -21.0 -18.0
v -6.0 -21.0 -18.0
v -6.2 -21.0 -15.0
v -6.0 -21.2 -15.0
v -6.0 -21.0 -15.1
v -6.3 -20.0 -18.0
v -6.0 -20.0 -17.8
v -6.0 -20.8 -15.0
v -6.0 -20.0 -14.7
v -6.0 -19.0 -18.3
v -6.0 -19.6 -18.0
v -6.3 -19.0 -14.0
v -6.0 -19.0 -14.3
v -6.5 -19.0 -13.0
v -6.7 -19.0 -12.0
v -6.0 -18.7 -18.0
v -6.0 -18.0 -17.0
v -6.0 -18.7 -14.0
v -6.0 -18.4 -13.0
v -6.0 -18.0 -12.5
v -6.3 -18.0 -12.0
v -6.7 -18.0 -11.0
v -6.0 -17.7 -17.0
v -6.1 -17.0 -17.0
v -6.0 -17.0 -16.9
v -6.0 -17.5 -12.0
v -6.0 -17.0 -11.5
v -6.3 -17.0 -11.0
v -6.7 -17.0 -10.0
v -6.0 -16.0 -17.4
v -6.0 -16.9 -17.0
v -6.0 -16.5 -11.0
v -6.0 -16.0 -10.5
v -6.3 -16.0 -10.0
v -6.7 -16.0 -9.0
v -6.0 -15.0 -17.5
v -6.0 -15.5 -10.0
v -6.0 -15.0 -9.5
v -6.4 -15.0 -9.0
v -6.0 -14.0 -17.4
v -6.0 -14.5 -9.0
v -6.5 -14.0 -8.0
v -6.0 -14.0 -8.5
v -6.0 -13.0 -20.0
v -6.0 -13.0 -20.0
v -6.0 -13.0 -20.0
v -6.0 -13.0 -20.0
v -6.0 -13.0 -17.3
v -6.0 -13.4 -8.0
v -6.0 -13.0 -7.7
v -6.0 -12.0 -20.3
v -6.0 -12.3 -19.0
v -6.5 -12.0 -19.0
v -6.0 -12.0 -18.5
v -6.0 -12.3 -17.0
v -6.0 -12.0 -16.8
v -6.0 -12.0 -7.5
v -6.0 -11.0 -20.2
v -6.0 -11.6 -18.0
v -6.0 -11.7 -17.0
v -6.5 -11.0 -17.0
v -6.1 -11.0 -16.0
v -6.0 -11.0 -7.4
v -6.0 -10.8 -20.0
v -6.0 -10.6 -19.0
v -6.3 -10.0 -18.0
v -6.0 -10.0 -18.1
v -6.6 -10.0 -16.0
v -6.5 -10.0 -15.0
v -6.0 -10.4 -7.0
v -6.6 -10.0 -7.0
v -6.0 -10.0 -6.4
v -6.1 -10.0 -5.0
v -6.0 -10.0 -5.3
v -6.0 -10.1 -5.0
v -6.0 -10.0 -4.9
v -6.0 -9.9 -18.0
v -6.0 -9.5 -17.0
v -6.6 -9.0 -17.0
v -6.0 -9.0 -16.6
v -6.9 -9.0 -7.0
v -6.0 -9.7 -6.0
v -6.6 -9.0 -6.0
v -6.0 -9.3 -4.0
v -6.0 -9.0 -3.8
v -6.0 -8.3 -16.0
v -6.0 -8.0 -15.7
v -6.7 -8.0 -6.0
v -6.0 -8.0 -3.7
v -6.7 -7.0 -15.0
v -6.0 -7.0 -15.4
v -6.7 -7.0 -7.0
v -6.6 -7.0 -6.0
v -6.6 -7.0 -4.0
v -6.0 -7.6 -4.0
v -6.0 -7.0 -4.4
v -6.0 -6.6 -15.0
v -6.0 -6.0 -14.5
v -6.9 -6.0 -8.0
v -6.4 -6.0 -7.0
v -6.3 -6.0 -6.0
v -6.0 -6.4 -5.0
v -6.0 -6.0 -5.6
v -6.0 -5.5 -14.0
v -6.0 -5.0 -13.5
v -6.0 -5.4 -7.0
v -6.0 -5.0 -7.4
v -6.0 -5.7 -6.0
v -6.0 -4.6 -13.0
v -6.8 -4.0 -12.0
v -6.0 -4.3 -12.0
v -6.0 -4.0 -11.5
v -6.0 -4.3 -9.0
v -6.0 -4.0 -9.4
v -6.0 -4.6 -8.0
v -6.0 -3.7 -11.0
v -6.0 -3.6 -10.0
v -5.8 -24.0 -15.0
v -5.9 -24.0 -14.0
v -5.6 -23.0 -16.0
v -5.5 -23.0 -15.0
v -5.5 -22.0 -17.0
v -5.0 -22.0 -16.4
v -5.0 -22.3 -16.0
v -5.0 -22.0 -15.0
v -5.0 -22.0 -15.0
v -5.0 -21.0 -17.3
v -5.0 -21.4 -17.0
v -5.0 -22.0 -15.0
v -5.0 -21.0 -15.4
v -5.0 -20.0 -17.5
v -5.5 -20.0 -15.0
v -5.0 -20.0 -15.3
v -5.0 -19.0 -18.2
v -5.0 -19.3 -18.0
v -5.0 -19.5 -15.0
v -5.0 -19.0 -14.7
v -5.3 -18.0 -18.0
v -5.0 -18.0 -18.2
v -5.4 -18.0 -14.0
v -5.0 -18.0 -14.4
v -5.7 -18.0 -13.0
v -5.0 -17.7 -18.0
v -5.9 -17.0 -17.0
v -5.0 -17.0 -17.5
v -5.2 -17.0 -14.0
v -5.0 -17.0 -14.2
v -5.5 -17.0 -13.0
v -5.7 -17.0 -12.0
v -5.0 -16.0 -17.5
v -5.0 -16.8 -14.0
v -5.0 -16.0 -13.1
v -5.1 -16.0 -13.0
v -5.4 -16.0 -12.0
v -5.7 -16.0 -11.0
v -5.0 -15.0 -17.5
v -5.0 -15.9 -13.0
v -5.0 -15.6 -12.0
v -5.0 -15.0 -11.3
v -5.3 -15.0 -11.0
v -5.7 -15.0 -10.0
v -5.1 -14.0 -20.0
v -5.0 -14.0 -20.1
v -5.0 -14.1 -20.0
v -5.0 -14.0 -19.9
v -5.0 -14.0 -17.0
v -5.0 -14.0 -17.0
v -5.0 -14.0 -17.0
v -5.0 -14.7 -11.0
v -5.0 -14.0 -10.3
v -5.2 -14.0 -10.0
v -5.6 -14.0 -9.0
v -5.0 -13.0 -20.2
v -5.0 -13.0 -19.6
v -5.2 -13.0 -17.0
v -5.0 -13.0 -16.9
v -5.0 -13.8 -10.0
v -5.0 -13.5 -9.0
v -5.5 -13.0 -8.0
v -5.0 -13.0 -8.4
v -5.0 -12.7 -20.0
v -5.5 -12.0 -20.0
v -5.0 -12.0 -19.2
v -5.0 -12.2 -19.0
v -5.0 -12.2 -18.0
v -5.3 -12.0 -18.0
v -5.0 -12.9 -17.0
v -5.7 -12.0 -17.0
v -5.0 -12.6 -8.0
v -5.0 -12.0 -7.6
v -5.8 -11.0 -20.0
v -5.0 -11.9 -19.0
v -5.6 -11.0 -19.0
v -5.0 -11.7 -18.0
v -5.4 -11.0 -18.0
v -5.0 -11.0 -17.6
v -5.0 -11.0 -7.4
v -5.9 -10.0 -18.0
v -5.0 -10.4 -17.0
v -5.4 -10.0 -17.0
v -5.0 -10.0 -16.7
v -5.0 -10.6 -7.0
v -5.0 -10.4 -6.0
v -5.7 -10.0 -6.0
v -5.0 -10.2 -5.0
v -5.0 -10.0 -4.8
v -5.0 -9.0 -16.6
v -5.7 -9.0 -4.0
v -5.0 -9.0 -4.5
v -5.6 -8.0 -16.0
v -5.0 -8.0 -16.4
v -5.7 -8.0 -4.0
v -5.0 -8.0 -4.5
v -5.0 -7.0 -16.0
v -5.0 -7.0 -16.0
v -5.0 -7.0 -4.7
v -5.0 -7.0 -16.0
v -5.0 -6.5 -15.0
v -5.0 -6.0 -14.4
v -5.0 -6.7 -5.0
v -5.0 -6.0 -5.6
v -5.0 -5.6 -14.0
v -5.0 -5.0 -13.3
v -5.2 -5.0 -7.0
v -5.0 -5.0 -6.9
v -5.0 -5.7 -6.0
v -5.0 -4.7 -13.0
v -5.0 -4.6 -12.0
v -5.6 -4.0 -11.0
v -5.0 -4.8 -11.0
v -5.0 -4.0 -10.3
v -5.2 -4.0 -9.0
v -5.0 -4.0 -8.9
v -5.0 -4.5 -8.0
v -5.0 -4.9 -7.0
v -5.0 -3.8 -10.0
v -5.0 -3.9 -9.0
v -4.7 -22.0 -16.0
v -5.0 -22.0 -15.0
v -4.6 -21.0 -17.0
v -4.0 -21.0 -16.1
v -4.0 -21.1 -16.0
v -4.0 -21.0 -15.8
v -4.4 -20.0 -17.0
v -4.0 -20.0 -16.6
v -4.0 -20.0 -15.5
v -4.6 -19.0 -18.0
v -4.0 -19.0 -17.5
v -4.0 -19.6 -17.0
v -4.2 -19.0 -15.0
v -4.0 -19.0 -15.1
v -4.0 -18.0 -18.1
v -4.0 -18.2 -18.0
v -4.0 -18.8 -15.0
v -4.0 -18.0 -14.5
v -4.0 -17.7 -18.0
v -4.0 -17.0 -17.7
v -4.0 -17.0 -14.2
v -4.0 -16.0 -17.8
v -4.0 -16.8 -14.0
v -4.0 -16.2 -13.0
v -4.7 -16.0 -13.0
v -4.0 -16.0 -12.8
v -4.3 -15.0 -20.0
v -4.0 -15.0 -20.3
v -4.0 -15.7 -20.0
v -4.0 -15.5 -19.0
v -4.4 -15.0 -19.0
v -4.0 -15.7 -18.0
v -4.5 -15.0 -18.0
v -4.0 -15.5 -12.0
v -4.0 -15.0 -11.5
v -4.0 -14.0 -20.3
v -4.5 -14.0 -19.0
v -4.5 -14.0 -18.0
v -5.0 -14.0 -17.0
v -4.0 -14.5 -11.0
v -4.0 -14.0 -10.5
v -4.0 -13.0 -20.1
v -4.5 -13.0 -19.0
v -4.5 -13.0 -18.0
v -4.9 -13.0 -17.0
v -4.0 -13.6 -10.0
v -4.0 -13.4 -9.0
v -4.0 -13.0 -8.4
v -4.0 -12.9 -20.0
v -4.9 -12.0 -19.0
v -4.0 -12.7 -19.0
v -4.0 -12.4 -18.0
v -4.7 -12.0 -18.0
v -4.0 -12.0 -17.6
v -4.0 -12.6 -8.0
v -4.0 -12.0 -7.5
v -4.0 -11.0 -17.1
v -4.0 -11.0 -7.4
v -4.0 -10.7 -17.0
v -4.0 -10.0 -16.7
v -4.0 -10.6 -7.0
v -4.0 -10.2 -6.0
v -4.8 -10.0 -5.0
v -4.0 -10.0 -5.7
v -4.0 -9.0 -16.9
v -4.5 -9.0 -5.0
v -4.0 -9.0 -5.5
v -4.0 -8.0 -16.3
v -4.5 -8.0 -5.0
v -4.0 -8.0 -5.5
v -4.0 -7.7 -16.0
v -5.0 -7.0 -16.0
v -4.4 -7.0 -15.0
v -4.0 -7.4 -15.0
v -4.0 -7.0 -14.5
v -4.7 -7.0 -5.0
v -4.0 -7.0 -5.6
v -4.6 -6.0 -14.0
v -4.0 -6.5 -14.0
v -4.0 -6.0 -13.5
v -4.6 -6.0 -6.0
v -4.0 -6.6 -6.0
v -4.0 -6.0 -6.6
v -4.6 -5.0 -13.0
v -4.0 -5.5 -13.0
v -4.0 -5.0 -12.4
v -4.4 -5.0 -8.0
v -4.0 -5.4 -8.0
v -4.0 -5.0 -8.5
v -4.9 -5.0 -7.0
v -4.0 -5.6 -7.0
v -4.0 -4.8 -12.0
v -4.0 -4.7 -11.0
v -4.7 -4.0 -10.0
v -4.0 -4.6 -10.0
v -4.9 -4.0 -9.0
v -4.0 -4.7 -9.0
v -3.8 -21.0 -16.0
v -3.0 -20.0 -16.2
v -3.0 -20.3 -16.0
v -3.0 -20.5 -15.0
v -3.3 -20.0 -15.0
v -3.0 -20.0 -14.8
v -3.5 -19.0 -17.0
v -3.0 -19.0 -16.5
v -3.8 -19.0 -15.0
v -3.0 -19.0 -14.6
v -3.8 -18.0 -18.0
v -3.0 -18.0 -17.4
v -3.0 -18.4 -17.0
v -3.0 -18.3 -14.0
v -3.3 -18.0 -14.0
v -3.0 -18.0 -13.8
v -3.0 -17.2 -18.0
v -3.3 -17.0 -18.0
v -3.0 -17.0 -18.2
v -3.7 -17.0 -14.0
v -3.0 -17.0 -13.6
v -3.2 -16.0 -19.0
v -3.0 -16.0 -19.2
v -3.0 -16.2 -19.0
v -3.7 -16.0 -18.0
v -3.0 -16.0 -13.3
v -3.6 -16.0 -13.0
v -3.0 -15.0 -20.1
v -3.0 -15.1 -20.0
v -3.0 -15.8 -13.0
v -3.0 -15.4 -12.0
v -3.0 -15.0 -11.4
v -3.0 -14.9 -20.0
v -3.6 -14.0 -20.0
v -3.3 -14.0 -19.0
v -3.0 -14.3 -19.0
v -3.0 -14.0 -18.7
v -3.0 -14.6 -11.0
v -3.0 -14.0 -10.4
v -3.9 -13.0 -20.0
v -3.7 -13.0 -19.0
v -3.0 -13.0 -18.3
v -3.1 -13.0 -16.0
v -3.0 -13.2 -16.0
v -3.0 -13.0 -16.2
v -3.0 -13.0 -15.8
v -3.0 -13.6 -10.0
v -3.0 -13.5 -9.0
v -3.0 -13.1 -8.0
v -3.3 -13.0 -8.0
v -3.0 -13.0 -7.8
v -3.0 -12.7 -18.0
v -3.6 -12.0 -17.0
v -3.0 -12.5 -17.0
v -3.6 -12.0 -16.0
v -3.0 -12.5 -15.0
v -3.3 -12.0 -15.0
v -3.0 -12.0 -14.7
v -3.0 -12.0 -7.2
v -3.9 -11.0 -17.0
v -3.9 -11.0 -16.0
v -3.3 -11.0 -15.0
v -3.0 -11.0 -14.7
v -3.0 -11.0 -7.7
v -3.0 -10.2 -16.0
v -3.0 -10.0 -16.6
v -3.0 -10.6 -15.0
v -3.0 -10.4 -7.0
v -3.7 -10.0 -6.0
v -3.0 -10.0 -6.7
v -3.0 -9.6 -16.0
v -3.3 -9.0 -16.0
v -3.0 -9.0 -15.5
v -3.5 -9.0 -6.0
v -3.0 -9.0 -6.5
v -3.7 -8.0 -16.0
v -3.0 -8.5 -15.0
v -3.4 -8.0 -15.0
v -3.0 -8.0 -14.5
v -3.5 -8.0 -6.0
v -3.0 -8.0 -6.5
v -3.5 -7.0 -14.0
v -3.0 -7.5 -14.0
v -3.0 -7.0 -13.5
v -3.6 -7.0 -6.0
v -3.0 -7.0 -6.7
v -3.5 -6.0 -13.0
v -3.0 -6.5 -13.0
v -3.0 -6.0 -12.4
v -3.3 -6.0 -9.0
v -3.0 -6.3 -9.0
v -3.0 -6.0 -9.5
v -3.5 -6.0 -8.0
v -3.0 -6.5 -8.0
v -3.6 -6.0 -7.0
v -3.0 -6.7 -7.0
v -3.7 -5.0 -12.0
v -3.0 -5.6 -12.0
v -3.6 -5.0 -11.0
v -3.0 -5.5 -11.0
v -3.5 -5.0 -10.0
v -3.0 -5.6 -10.0
v -3.7 -5.0 -9.0
v -2.8 -20.0 -16.0
v -2.8 -20.0 -15.0
v -2.5 -19.0 -16.0
v -2.0 -19.0 -15.2
v -2.0 -19.1 -15.0
v -2.0 -19.0 -14.9
v -2.6 -18.0 -17.0
v -2.0 -18.0 -16.3
v -2.0 -18.3 -16.0
v -2.0 -18.3 -14.0
v -2.0 -18.0 -13.7
v -2.8 -17.0 -18.0
v -2.0 -17.0 -17.2
v -2.0 -17.2 -17.0
v -2.0 -17.0 -13.4
v -2.8 -16.0 -19.0
v -2.6 -16.0 -18.0
v -2.0 -16.7 -17.0
v -2.3 -16.0 -17.0
v -2.0 -16.0 -16.5
v -2.0 -16.0 -13.4
v -2.9 -15.0 -20.0
v -2.2 -15.0 -19.0
v -2.4 -15.0 -18.0
v -2.4 -15.0 -17.0
v -2.0 -15.6 -16.0
v -2.4 -15.0 -16.0
v -2.2 -15.0 -15.0
v -2.0 -15.2 -15.0
v -2.0 -15.0 -14.8
v -2.0 -15.6 -13.0
v -2.0 -15.3 -12.0
v -2.0 -15.0 -11.0
v -2.0 -15.0 -11.0
v -2.0 -15.0 -11.0
v -2.5 -14.0 -18.0
v -2.0 -14.0 -17.1
v -2.0 -14.1 -17.0
v -2.0 -14.0 -16.9
v -2.5 -14.0 -16.0
v -2.4 -14.0 -15.0
v -2.0 -14.0 -14.4
v -2.0 -14.0 -10.5
v -2.7 -13.0 -18.0
v -2.0 -13.3 -17.0
v -2.1 -13.0 -17.0
v -2.7 -13.0 -15.0
v -2.0 -13.4 -14.0
v -2.3 -13.0 -14.0
v -2.0 -13.0 -13.6
v -2.0 -13.5 -10.0
v -2.0 -13.3 -9.0
v -2.8 -13.0 -8.0
v -2.0 -13.0 -8.6
v -2.4 -12.0 -14.0
v -2.0 -12.0 -13.6
v -2.0 -12.4 -8.0
v -2.0 -12.0 -7.7
v -2.0 -11.0 -14.1
v -2.0 -11.2 -14.0
v -2.0 -11.0 -7.7
v -2.8 -10.0 -16.0
v -2.6 -10.0 -15.0
v -2.0 -10.8 -14.0
v -2.3 -10.0 -14.0
v -2.0 -10.0 -13.6
v -2.7 -10.0 -7.0
v -2.0 -10.0 -7.6
v -2.7 -9.0 -15.0
v -2.4 -9.0 -14.0
v -2.0 -9.0 -13.5
v -2.5 -9.0 -7.0
v -2.0 -9.0 -7.5
v -2.6 -8.0 -14.0
v -2.0 -8.0 -13.3
v -2.5 -8.0 -7.0
v -2.0 -8.0 -7.7
v -2.5 -7.0 -13.0
v -2.0 -7.6 -13.0
v -2.0 -7.0 -12.4
v -2.4 -7.0 -9.0
v -2.0 -7.4 -9.0
v -2.0 -7.0 -9.5
v -2.5 -7.0 -8.0
v -2.0 -7.7 -8.0
v -2.7 -7.0 -7.0
v -2.6 -6.0 -12.0
v -2.0 -6.7 -12.0
v -2.5 -6.0 -11.0
v -2.0 -6.5 -11.0
v -2.6 -6.0 -10.0
v -2.0 -6.7 -10.0
v -1.9 -19.0 -15.0
v -1.8 -18.0 -16.0
v -1.5 -18.0 -15.0
v -1.7 -18.0 -14.0
v -1.9 -17.0 -17.0
v -1.5 -17.0 -16.0
v -1.0 -17.0 -15.3
v -1.0 -17.3 -15.0
v -1.0 -17.4 -14.0
v -1.0 -17.0 -13.3
v -1.6 -16.0 -16.0
v -1.0 -16.0 -15.3
v -1.0 -16.0 -13.6
v -1.0 -15.7 -15.0
v -1.0 -15.0 -14.1
v -1.4 -15.0 -13.0
v -1.0 -15.0 -13.8
v -1.7 -15.0 -12.0
v -2.0 -15.0 -11.0
v -1.9 -14.0 -17.0
v -1.0 -14.8 -14.0
v -1.6 -14.0 -14.0
v -1.1 -14.0 -13.0
v -1.4 -14.0 -12.0
v -1.6 -14.0 -11.0
v -1.5 -13.0 -13.0
v -1.4 -13.0 -12.0
v -1.1 -13.0 -11.0
v -1.5 -13.0 -10.0
v -1.7 -13.0 -9.0
v -1.6 -12.0 -13.0
v -1.5 -12.0 -12.0
v -1.3 -12.0 -11.0
v -1.4 -12.0 -10.0
v -1.0 -12.0 -9.1
v -1.0 -12.1 -9.0
v -1.7 -12.0 -8.0
v -1.0 -12.0 -8.9
v -1.9 -11.0 -14.0
v -1.5 -11.0 -13.0
v -1.3 -11.0 -12.0
v -1.0 -11.0 -11.3
v -1.0 -11.3 -11.0
v -1.0 -11.0 -10.4
v -1.1 -11.0 -10.0
v -1.0 -11.0 -9.7
v -1.6 -11.0 -8.0
v -1.0 -11.0 -8.7
v -1.5 -10.0 -13.0
v -1.0 -10.0 -12.4
v -1.0 -10.5 -12.0
v -1.0 -10.8 -10.0
v -1.5 -10.0 -8.0
v -1.0 -10.0 -8.7
v -1.5 -9.0 -13.0
v -1.0 -9.0 -12.3
v -1.3 -9.0 -9.0
v -1.0 -9.6 -9.0
v -1.0 -9.0 -9.5
v -1.6 -9.0 -8.0
v -1.7 -8.0 -13.0
v -1.0 -8.7 -12.0
v -1.4 -8.0 -12.0
v -1.4 -8.0 -11.0
v -1.0 -8.5 -11.0
v -1.4 -8.0 -10.0
v -1.0 -8.6 -10.0
v -1.6 -8.0 -9.0
v -1.8 -8.0 -8.0
v -1.7 -7.0 -12.0
v -1.6 -7.0 -11.0
v -1.7 -7.0 -10.0
v -0.8 -17.0 -15.0
v -0.7 -17.0 -14.0
v -0.8 -16.0 -15.0
v -0.7 -16.0 -14.0
v -0.9 -15.0 -14.0
v -0.9 -12.0 -9.0
v -0.8 -11.0 -11.0
v -0.8 -11.0 -9.0
v -0.7 -10.0 -12.0
v -0.5 -10.0 -11.0
v -0.6 -10.0 -10.0
v -0.8 -10.0 -9.0
v -0.8 -9.0 -12.0
v -0.6 -9.0 -11.0
v -0.7 -9.0 -10.0
f 3 2 1
f 1 4 3
f 7 6 5
f 9 8 5
f 5 8 7
f 8 9 2
f 9 1 2
f 9 10 1
f 4 1 11
f 1 12 11
f 1 10 12
f 12 13 11
f 5 6 14
f 14 6 15
f 5 16 9
f 5 14 16
f 9 17 10
f 9 16 17
f 10 18 12
f 10 17 18
f 13 12 19
f 19 12 18
f 14 15 20
f 20 15 21
f 14 22 16
f 14 20 22
f 16 23 17
f 16 22 23
f 17 24 18
f 17 23 24
f 19 18 25
f 18 26 25
f 18 24 26
f 26 27 25
f 20 21 28
f 28 21 29
f 20 30 22
f 20 28 30
f 22 31 23
f 22 30 31
f 23 32 24
f 23 31 32
f 24 33 26
f 24 32 33
f 27 26 34
f 34 26 33
f 29 35 28
f 37 36 35
f 36 28 35
f 36 30 28
f 30 38 31
f 30 36 38
f 31 39 32
f 31 38 39
f 41 33 40
f 33 39 40
f 33 32 39
f 33 41 34
f 37 42 36
f 36 42 38
f 38 42 43
f 38 43 39
f 39 43 44
f 39 44 40
f 47 46 45
f 49 48 45
f 45 48 47
f 2 3 49
f 3 48 49
f 3 50 48
f 52 51 4
f 51 3 4
f 51 50 3
f 52 53 51
f 56 55 54
f 56 54 46
f 46 54 45
f 54 6 45
f 6 7 45
f 45 7 8
f 45 8 49
f 49 8 2
f 11 52 4
f 11 13 52
f 13 53 52
f 13 57 53
f 54 55 58
f 58 55 59
f 58 15 6
f 58 6 54
f 19 61 60
f 57 19 60
f 13 19 57
f 61 62 60
f 65 64 63
f 65 63 59
f 63 58 59
f 63 66 58
f 66 21 15
f 66 15 58
f 25 61 19
f 25 27 61
f 27 62 61
f 27 67 62
f 63 64 68
f 68 64 69
f 63 70 66
f 63 68 70
f 70 29 21
f 70 21 66
f 34 67 27
f 34 71 67
f 69 72 68
f 74 73 72
f 73 68 72
f 73 70 68
f 75 35 29
f 70 75 29
f 73 75 70
f 75 37 35
f 40 76 41
f 76 77 41
f 77 34 41
f 77 71 34
f 74 78 73
f 80 79 78
f 79 73 78
f 79 75 73
f 81 42 37
f 75 81 37
f 79 81 75
f 82 43 42
f 82 42 81
f 83 44 43
f 83 43 82
f 76 40 44
f 83 76 44
f 84 76 83
f 77 76 85
f 85 76 84
f 80 86 79
f 88 87 86
f 87 79 86
f 87 81 79
f 81 89 82
f 81 87 89
f 82 90 83
f 82 89 90
f 92 84 91
f 84 90 91
f 84 83 90
f 84 92 85
f 88 93 87
f 87 93 89
f 89 93 94
f 89 94 90
f 90 94 95
f 90 95 91
f 98 97 96
f 100 99 96
f 96 99 98
f 102 101 100
f 100 101 99
f 102 103 101
f 106 105 104
f 108 107 104
f 104 107 106
f 110 109 108
f 108 109 107
f 109 110 97
f 110 96 97
f 110 111 96
f 96 112 100
f 96 111 112
f 114 102 113
f 102 112 113
f 102 100 112
f 102 114 103
f 117 116 115
f 117 115 105
f 105 115 104
f 115 46 104
f 46 47 104
f 104 47 48
f 104 48 108
f 108 48 50
f 108 50 110
f 110 50 51
f 110 51 111
f 112 111 118
f 111 53 118
f 53 119 118
f 53 111 51
f 112 118 113
f 122 121 120
f 122 120 116
f 116 120 115
f 120 55 115
f 55 56 115
f 115 56 46
f 57 124 123
f 119 57 123
f 53 57 119
f 124 125 123
f 128 127 126
f 128 126 121
f 126 120 121
f 126 129 120
f 129 59 55
f 129 55 120
f 60 124 57
f 60 62 124
f 62 125 124
f 62 130 125
f 126 127 131
f 131 127 132
f 131 64 65
f 129 131 65
f 126 131 129
f 129 65 59
f 67 130 62
f 67 133 130
f 131 132 134
f 134 132 135
f 134 69 64
f 134 64 131
f 71 137 136
f 133 71 136
f 67 71 133
f 137 138 136
f 134 135 139
f 139 135 140
f 141 72 69
f 134 141 69
f 139 141 134
f 141 74 72
f 77 142 137
f 77 137 71
f 138 137 143
f 143 137 142
f 140 144 139
f 146 145 144
f 145 139 144
f 145 141 139
f 147 78 74
f 141 147 74
f 145 147 141
f 147 80 78
f 85 148 142
f 85 142 77
f 143 142 149
f 149 142 148
f 146 150 145
f 152 151 150
f 151 145 150
f 151 147 145
f 153 86 80
f 147 153 80
f 151 153 147
f 153 88 86
f 91 154 92
f 154 155 92
f 92 155 85
f 155 156 85
f 156 148 85
f 148 156 149
f 152 157 151
f 159 158 157
f 158 151 157
f 158 153 151
f 160 93 88
f 153 160 88
f 158 160 153
f 161 94 93
f 161 93 160
f 162 95 94
f 162 94 161
f 154 91 95
f 162 154 95
f 163 154 162
f 155 154 164
f 164 154 163
f 159 165 158
f 158 165 160
f 160 165 166
f 160 166 161
f 161 166 167
f 161 167 162
f 162 167 168
f 162 168 163
f 163 168 169
f 163 169 164
f 172 171 170
f 170 173 172
f 176 175 174
f 174 177 176
f 180 179 178
f 178 181 180
f 170 171 182
f 182 171 183
f 173 170 184
f 170 185 184
f 170 182 185
f 184 185 175
f 185 174 175
f 185 186 174
f 98 187 97
f 187 174 97
f 174 186 97
f 174 187 177
f 188 98 99
f 188 187 98
f 189 99 101
f 189 188 99
f 191 190 103
f 190 101 103
f 190 189 101
f 191 192 190
f 178 179 193
f 193 179 194
f 181 178 195
f 178 196 195
f 178 193 196
f 195 196 183
f 183 196 182
f 196 105 182
f 105 106 182
f 182 106 107
f 182 107 185
f 185 107 109
f 185 109 186
f 186 109 97
f 199 198 197
f 200 114 113
f 201 197 198
f 191 103 114
f 200 191 114
f 202 191 200
f 192 191 203
f 203 191 202
f 206 205 204
f 206 204 194
f 204 193 194
f 204 207 193
f 207 116 117
f 196 207 117
f 193 207 196
f 196 117 105
f 199 197 118
f 119 199 118
f 208 199 119
f 197 201 118
f 201 209 118
f 200 113 118
f 200 118 209
f 200 209 202
f 202 209 210
f 202 210 203
f 213 212 211
f 213 211 205
f 211 204 205
f 211 214 204
f 214 121 122
f 207 214 122
f 204 214 207
f 207 122 116
f 119 123 215
f 216 119 215
f 208 119 216
f 125 215 123
f 211 212 217
f 217 212 218
f 217 127 128
f 214 217 128
f 211 217 214
f 214 128 121
f 219 216 215
f 215 125 219
f 125 220 219
f 125 130 220
f 217 218 221
f 221 218 222
f 221 132 127
f 221 127 217
f 133 220 130
f 133 223 220
f 221 222 224
f 224 222 225
f 224 135 132
f 224 132 221
f 226 223 133
f 226 133 136
f 136 138 226
f 226 138 227
f 224 225 228
f 228 225 229
f 228 140 135
f 228 135 224
f 143 227 138
f 143 230 227
f 229 231 228
f 231 233 232
f 231 232 144
f 228 231 144
f 140 228 144
f 232 146 144
f 149 230 143
f 149 234 230
f 232 233 235
f 235 233 236
f 237 150 146
f 232 237 146
f 235 237 232
f 237 152 150
f 155 238 156
f 238 239 156
f 239 149 156
f 239 234 149
f 236 240 235
f 242 241 240
f 241 235 240
f 241 237 235
f 243 157 152
f 237 243 152
f 241 243 237
f 243 159 157
f 245 244 238
f 155 245 238
f 164 245 155
f 238 244 239
f 242 246 241
f 241 246 243
f 243 246 247
f 247 249 248
f 247 248 165
f 243 247 165
f 159 243 165
f 250 166 165
f 250 165 248
f 251 167 166
f 251 166 250
f 252 168 167
f 252 167 251
f 168 252 253
f 254 168 253
f 169 168 254
f 164 169 245
f 245 169 254
f 249 255 248
f 248 255 250
f 250 255 256
f 250 256 251
f 251 256 257
f 251 257 252
f 252 257 258
f 252 258 253
f 261 260 259
f 263 262 259
f 259 262 261
f 263 264 262
f 266 265 172
f 172 265 171
f 268 267 173
f 267 172 173
f 267 266 172
f 175 176 268
f 176 267 268
f 176 269 267
f 271 270 177
f 270 176 177
f 270 269 176
f 271 272 270
f 260 273 259
f 274 179 180
f 259 274 180
f 263 259 180
f 273 274 259
f 276 275 181
f 181 275 180
f 275 264 180
f 264 263 180
f 265 275 276
f 183 265 276
f 171 265 183
f 184 268 173
f 268 184 175
f 187 271 177
f 277 272 271
f 187 277 271
f 188 277 187
f 278 188 189
f 278 277 188
f 279 189 190
f 279 278 189
f 281 280 192
f 280 190 192
f 280 279 190
f 281 282 280
f 285 284 283
f 287 286 283
f 283 286 285
f 274 286 287
f 194 274 287
f 179 274 194
f 195 276 181
f 276 195 183
f 290 289 288
f 198 199 288
f 289 198 288
f 291 198 289
f 201 198 291
f 201 291 292
f 203 293 281
f 203 281 192
f 282 281 294
f 294 281 293
f 297 296 295
f 297 295 284
f 295 283 284
f 295 298 283
f 298 205 206
f 287 298 206
f 283 298 287
f 287 206 194
f 290 288 299
f 290 299 300
f 208 299 199
f 199 299 288
f 292 301 201
f 201 301 209
f 209 302 210
f 301 302 209
f 203 210 293
f 210 303 293
f 210 302 303
f 293 303 294
f 295 296 304
f 304 296 305
f 304 212 213
f 298 304 213
f 295 304 298
f 298 213 205
f 306 300 299
f 299 208 306
f 208 307 306
f 208 216 307
f 304 305 308
f 308 305 309
f 308 218 212
f 308 212 304
f 216 219 310
f 311 216 310
f 307 216 311
f 220 310 219
f 308 309 312
f 312 309 313
f 312 222 218
f 312 218 308
f 314 311 310
f 310 220 314
f 220 315 314
f 220 223 315
f 313 316 312
f 222 312 316
f 317 222 316
f 225 222 317
f 223 226 318
f 319 223 318
f 315 223 319
f 227 318 226
f 317 229 225
f 320 229 317
f 321 319 318
f 318 227 321
f 227 322 321
f 227 230 322
f 231 229 323
f 229 324 323
f 229 320 324
f 323 233 231
f 234 322 230
f 234 325 322
f 324 326 323
f 233 323 326
f 327 233 326
f 236 233 327
f 330 329 328
f 329 325 328
f 325 239 328
f 325 234 239
f 240 236 331
f 236 332 331
f 236 327 332
f 331 242 240
f 330 328 244
f 245 330 244
f 333 330 245
f 244 328 239
f 332 334 331
f 334 336 335
f 334 335 246
f 331 334 246
f 242 331 246
f 337 247 246
f 337 246 335
f 337 249 247
f 253 338 254
f 338 339 254
f 339 245 254
f 339 333 245
f 336 340 335
f 335 340 337
f 337 340 341
f 337 341 249
f 341 255 249
f 341 342 255
f 342 344 343
f 256 342 343
f 255 342 256
f 345 257 256
f 345 256 343
f 346 258 257
f 346 257 345
f 346 347 258
f 258 347 253
f 347 348 253
f 348 338 253
f 338 348 339
f 344 349 343
f 343 349 345
f 345 349 350
f 345 350 346
f 346 350 351
f 346 351 347
f 354 353 352
f 352 355 354
f 358 357 356
f 358 356 353
f 356 352 353
f 356 359 352
f 355 352 360
f 352 361 360
f 352 359 361
f 361 362 360
f 357 363 356
f 365 364 363
f 364 356 363
f 364 359 356
f 359 366 361
f 359 364 366
f 261 367 260
f 367 361 260
f 361 366 260
f 361 367 362
f 369 367 368
f 367 262 368
f 367 261 262
f 264 368 262
f 371 370 266
f 266 370 265
f 372 266 267
f 372 371 266
f 373 267 269
f 373 372 267
f 374 269 270
f 374 373 269
f 270 272 374
f 374 272 375
f 364 365 376
f 376 365 377
f 364 378 366
f 364 376 378
f 379 273 260
f 366 379 260
f 378 379 366
f 379 369 273
f 369 379 380
f 274 380 379
f 380 274 368
f 273 368 274
f 368 273 369
f 380 368 264
f 275 380 264
f 381 380 275
f 275 265 370
f 275 370 381
f 382 375 272
f 382 272 277
f 383 277 278
f 383 382 277
f 384 278 279
f 384 383 278
f 386 384 385
f 384 280 385
f 384 279 280
f 282 385 280
f 376 377 387
f 387 377 388
f 387 284 285
f 378 387 285
f 376 387 378
f 378 285 286
f 378 286 379
f 379 286 274
f 390 389 289
f 390 289 290
f 289 391 291
f 389 391 289
f 292 291 391
f 292 391 392
f 393 386 385
f 385 282 393
f 282 394 393
f 282 294 394
f 397 396 395
f 397 395 388
f 388 395 387
f 395 296 387
f 296 297 387
f 387 297 284
f 300 390 290
f 300 398 390
f 392 399 292
f 292 399 301
f 399 401 400
f 302 399 400
f 301 399 302
f 402 303 302
f 402 302 400
f 402 403 303
f 403 294 303
f 403 394 294
f 395 396 404
f 404 396 405
f 404 305 296
f 404 296 395
f 300 306 406
f 407 300 406
f 398 300 407
f 307 406 306
f 401 408 400
f 410 409 408
f 409 400 408
f 409 402 400
f 403 402 411
f 411 402 409
f 404 405 412
f 412 405 413
f 412 309 305
f 412 305 404
f 414 407 406
f 406 307 414
f 307 415 414
f 307 311 415
f 410 416 409
f 409 416 411
f 413 417 412
f 309 412 417
f 418 309 417
f 313 309 418
f 419 415 311
f 419 311 314
f 314 315 419
f 419 315 420
f 423 422 421
f 421 424 423
f 316 313 425
f 313 426 425
f 313 418 426
f 425 317 316
f 319 420 315
f 319 427 420
f 422 428 421
f 421 428 424
f 425 426 429
f 429 426 430
f 429 320 317
f 429 317 425
f 319 321 431
f 432 319 431
f 427 319 432
f 322 431 321
f 430 433 429
f 320 429 433
f 434 320 433
f 324 320 434
f 432 431 435
f 432 435 436
f 325 435 322
f 322 435 431
f 326 324 437
f 324 438 437
f 324 434 438
f 437 327 326
f 436 435 329
f 330 436 329
f 439 436 330
f 329 435 325
f 438 440 437
f 327 437 440
f 441 327 440
f 332 327 441
f 333 439 330
f 333 442 439
f 334 332 443
f 332 444 443
f 332 441 444
f 443 336 334
f 339 442 333
f 339 445 442
f 444 446 443
f 443 446 336
f 446 340 336
f 446 447 340
f 447 449 448
f 341 447 448
f 340 447 341
f 450 342 341
f 450 341 448
f 450 344 342
f 452 451 348
f 452 348 347
f 339 348 445
f 445 348 451
f 449 453 448
f 448 453 450
f 450 453 454
f 454 456 455
f 454 455 349
f 450 454 349
f 344 450 349
f 349 455 457
f 458 349 457
f 350 349 458
f 350 459 351
f 458 459 350
f 347 351 452
f 452 351 459
f 456 460 455
f 455 460 457
f 463 462 461
f 353 354 461
f 354 463 461
f 354 464 463
f 354 355 464
f 464 355 465
f 461 462 358
f 462 357 358
f 462 466 357
f 461 358 353
f 355 360 467
f 468 355 467
f 465 355 468
f 362 467 360
f 363 357 469
f 357 470 469
f 357 466 470
f 469 365 363
f 471 468 467
f 471 467 362
f 367 471 362
f 472 471 367
f 367 369 472
f 472 369 473
f 476 475 474
f 370 371 474
f 371 476 474
f 371 477 476
f 478 371 372
f 478 477 371
f 479 372 373
f 479 478 372
f 480 373 374
f 480 479 373
f 482 481 375
f 481 374 375
f 481 480 374
f 482 483 481
f 486 485 484
f 486 484 470
f 484 469 470
f 484 487 469
f 487 377 365
f 487 365 469
f 488 473 369
f 488 369 380
f 381 474 475
f 488 381 475
f 380 381 488
f 474 381 370
f 382 482 375
f 489 483 482
f 382 489 482
f 383 489 382
f 490 383 384
f 490 489 383
f 384 386 490
f 490 386 491
f 484 485 492
f 492 485 493
f 484 494 487
f 484 492 494
f 494 388 377
f 494 377 487
f 496 495 389
f 496 389 390
f 389 497 391
f 495 497 389
f 392 391 497
f 392 497 498
f 386 393 499
f 500 386 499
f 491 386 500
f 394 499 393
f 493 501 492
f 502 396 397
f 492 502 397
f 494 492 397
f 501 502 492
f 494 397 388
f 505 504 503
f 504 496 503
f 496 398 503
f 496 390 398
f 498 506 392
f 392 506 399
f 401 399 506
f 401 506 507
f 508 500 499
f 499 394 508
f 394 509 508
f 394 403 509
f 502 405 396
f 510 405 502
f 511 505 503
f 503 398 511
f 398 512 511
f 398 407 512
f 408 401 513
f 401 514 513
f 401 507 514
f 513 410 408
f 411 509 403
f 411 515 509
f 510 413 405
f 516 413 510
f 407 414 517
f 518 407 517
f 512 407 518
f 415 517 414
f 514 519 513
f 519 521 520
f 519 520 416
f 513 519 416
f 410 513 416
f 520 522 416
f 522 411 416
f 522 515 411
f 525 524 523
f 523 526 417
f 516 523 417
f 413 516 417
f 523 516 525
f 526 418 417
f 527 518 517
f 529 527 528
f 528 527 419
f 527 517 419
f 517 415 419
f 420 528 419
f 520 521 530
f 530 521 531
f 423 532 422
f 532 520 422
f 520 530 422
f 520 532 522
f 423 424 532
f 532 424 533
f 524 534 523
f 536 535 534
f 535 523 534
f 535 526 523
f 535 426 418
f 535 418 526
f 537 529 528
f 528 420 537
f 420 538 537
f 420 427 538
f 531 539 530
f 539 541 540
f 539 540 428
f 530 539 428
f 422 530 428
f 540 542 428
f 542 424 428
f 542 533 424
f 535 536 543
f 543 536 544
f 543 430 426
f 543 426 535
f 432 538 427
f 432 545 538
f 541 546 540
f 540 546 542
f 544 547 543
f 547 549 548
f 547 548 433
f 543 547 433
f 430 543 433
f 548 434 433
f 436 545 432
f 436 550 545
f 548 549 551
f 551 549 552
f 551 438 434
f 551 434 548
f 439 550 436
f 439 553 550
f 552 554 551
f 554 556 555
f 554 555 440
f 551 554 440
f 438 551 440
f 555 441 440
f 442 553 439
f 442 557 553
f 556 558 555
f 441 555 558
f 559 441 558
f 444 441 559
f 562 561 560
f 561 557 560
f 557 445 560
f 557 442 445
f 559 563 444
f 444 563 446
f 563 565 564
f 447 563 564
f 446 563 447
f 564 449 447
f 562 560 451
f 452 562 451
f 566 562 452
f 451 560 445
f 565 567 564
f 564 567 449
f 567 453 449
f 567 568 453
f 568 570 569
f 454 568 569
f 453 568 454
f 569 456 454
f 457 571 458
f 458 571 572
f 573 458 572
f 459 458 573
f 452 459 566
f 566 459 573
f 570 574 569
f 569 574 456
f 574 460 456
f 574 575 460
f 457 460 571
f 460 576 571
f 460 575 576
f 571 576 572
f 579 578 577
f 581 580 577
f 577 580 579
f 581 582 580
f 577 578 463
f 578 462 463
f 578 583 462
f 577 463 464
f 577 464 581
f 464 465 581
f 465 582 581
f 465 584 582
f 587 586 585
f 589 588 585
f 585 588 587
f 583 588 589
f 466 583 589
f 462 583 466
f 468 584 465
f 468 590 584
f 586 591 585
f 593 592 591
f 592 585 591
f 592 589 585
f 592 470 466
f 592 466 589
f 468 471 594
f 595 468 594
f 590 468 595
f 472 596 471
f 471 596 594
f 473 596 472
f 598 597 476
f 476 597 475
f 599 476 477
f 599 598 476
f 600 477 478
f 600 599 477
f 601 478 479
f 601 600 478
f 602 479 480
f 602 601 479
f 603 480 481
f 603 602 480
f 481 483 603
f 603 483 604
f 607 606 605
f 609 608 605
f 605 608 607
f 608 609 593
f 593 609 592
f 609 485 592
f 485 486 592
f 592 486 470
f 610 595 594
f 610 594 596
f 610 596 611
f 611 596 473
f 488 611 473
f 612 611 488
f 488 475 597
f 488 597 612
f 613 604 483
f 613 483 489
f 615 613 614
f 613 490 614
f 613 489 490
f 491 614 490
f 606 616 605
f 618 617 616
f 617 605 616
f 617 609 605
f 617 493 485
f 617 485 609
f 621 620 619
f 495 496 619
f 620 495 619
f 622 495 620
f 495 623 497
f 622 623 495
f 498 497 623
f 498 623 624
f 625 615 614
f 614 491 625
f 491 626 625
f 491 500 626
f 617 618 627
f 627 618 628
f 629 501 493
f 617 629 493
f 627 629 617
f 629 502 501
f 621 619 504
f 505 621 504
f 630 621 505
f 504 619 496
f 624 631 498
f 498 631 506
f 507 506 631
f 507 631 632
f 500 508 633
f 634 500 633
f 626 500 634
f 509 633 508
f 628 635 627
f 637 636 635
f 636 627 635
f 636 629 627
f 636 510 502
f 636 502 629
f 505 511 638
f 639 505 638
f 630 505 639
f 512 638 511
f 632 514 507
f 640 514 632
f 634 633 641
f 634 641 642
f 515 641 509
f 509 641 633
f 636 637 643
f 643 637 644
f 643 516 510
f 643 510 636
f 645 639 638
f 638 512 645
f 512 646 645
f 512 518 646
f 640 647 514
f 514 647 519
f 647 642 519
f 641 519 642
f 519 641 521
f 648 521 641
f 521 648 649
f 641 515 648
f 515 650 648
f 515 522 650
f 643 644 525
f 644 524 525
f 644 651 524
f 643 525 516
f 518 527 652
f 653 518 652
f 646 518 653
f 529 652 527
f 649 531 521
f 654 531 649
f 522 532 655
f 656 522 655
f 650 522 656
f 533 655 532
f 534 524 657
f 524 658 657
f 524 651 658
f 657 536 534
f 659 653 652
f 661 659 660
f 660 659 537
f 659 652 537
f 652 529 537
f 538 660 537
f 654 662 531
f 531 662 539
f 655 663 541
f 662 655 541
f 539 662 541
f 656 655 662
f 542 663 533
f 533 663 655
f 657 658 664
f 664 658 665
f 664 544 536
f 664 536 657
f 661 660 666
f 661 666 667
f 545 666 538
f 538 666 660
f 663 546 541
f 546 663 542
f 665 668 664
f 668 670 669
f 668 669 547
f 664 668 547
f 544 664 547
f 669 549 547
f 667 666 671
f 667 671 672
f 550 671 545
f 545 671 666
f 669 670 673
f 673 670 674
f 673 552 549
f 673 549 669
f 672 671 675
f 672 675 676
f 553 675 550
f 550 675 671
f 674 677 673
f 677 679 678
f 677 678 554
f 673 677 554
f 552 673 554
f 678 556 554
f 676 675 680
f 676 680 681
f 557 680 553
f 553 680 675
f 679 682 678
f 682 684 683
f 682 683 558
f 678 682 558
f 556 678 558
f 683 559 558
f 681 680 561
f 562 681 561
f 685 681 562
f 561 680 557
f 684 686 683
f 686 688 687
f 686 687 563
f 683 686 563
f 559 683 563
f 687 565 563
f 566 685 562
f 566 689 685
f 688 690 687
f 687 690 565
f 690 567 565
f 690 691 567
f 691 693 692
f 568 691 692
f 567 691 568
f 692 570 568
f 695 694 573
f 695 573 572
f 566 573 689
f 689 573 694
f 698 697 696
f 700 699 696
f 696 699 698
f 700 701 699
f 693 702 692
f 692 702 570
f 702 574 570
f 702 703 574
f 574 704 575
f 703 704 574
f 575 705 576
f 704 705 575
f 572 576 695
f 695 576 705
f 697 706 696
f 696 706 700
f 700 706 707
f 700 707 701
f 709 708 579
f 579 708 578
f 710 579 580
f 710 709 579
f 580 582 710
f 710 582 711
f 714 713 712
f 708 714 712
f 583 708 712
f 578 708 583
f 584 711 582
f 584 715 711
f 717 716 587
f 587 716 586
f 588 712 713
f 717 588 713
f 587 588 717
f 712 588 583
f 590 715 584
f 590 718 715
f 721 720 719
f 719 722 591
f 716 719 591
f 586 716 591
f 719 716 721
f 722 593 591
f 595 718 590
f 595 723 718
f 724 597 598
f 724 598 725
f 598 726 725
f 598 599 726
f 727 599 600
f 727 726 599
f 729 727 728
f 727 601 728
f 727 600 601
f 728 601 730
f 601 731 730
f 601 602 731
f 733 731 732
f 731 603 732
f 731 602 603
f 604 732 603
f 736 735 734
f 736 734 720
f 720 734 719
f 734 606 719
f 606 607 719
f 719 607 608
f 719 608 722
f 722 608 593
f 595 610 737
f 738 595 737
f 723 595 738
f 611 739 610
f 610 739 737
f 612 740 611
f 611 740 739
f 597 724 612
f 724 740 612
f 724 741 740
f 724 725 742
f 743 724 742
f 741 724 743
f 745 744 743
f 745 743 742
f 744 745 729
f 728 744 729
f 746 744 728
f 728 730 747
f 728 747 746
f 748 733 732
f 750 748 749
f 749 748 613
f 748 732 613
f 732 604 613
f 615 749 613
f 734 735 751
f 751 735 752
f 753 616 606
f 734 753 606
f 751 753 734
f 753 618 616
f 754 738 737
f 754 737 739
f 754 739 755
f 755 739 740
f 755 740 756
f 756 740 741
f 756 741 757
f 759 758 757
f 741 759 757
f 743 759 741
f 760 743 744
f 759 743 760
f 621 760 620
f 760 746 620
f 760 744 746
f 747 761 746
f 761 620 746
f 761 622 620
f 761 763 762
f 623 761 762
f 622 761 623
f 749 764 750
f 624 623 762
f 766 764 765
f 765 764 625
f 764 749 625
f 749 615 625
f 626 765 625
f 752 767 751
f 751 767 753
f 753 767 768
f 618 753 768
f 769 618 768
f 628 618 769
f 770 758 759
f 772 771 770
f 759 772 770
f 760 772 759
f 630 772 621
f 621 772 760
f 763 773 762
f 762 773 624
f 773 631 624
f 773 774 631
f 765 775 632
f 774 765 632
f 631 774 632
f 766 765 774
f 634 775 626
f 626 775 765
f 635 628 776
f 628 777 776
f 628 769 777
f 776 637 635
f 771 772 778
f 771 778 779
f 639 778 630
f 630 778 772
f 780 640 775
f 775 640 632
f 642 780 634
f 634 780 775
f 776 777 781
f 781 777 782
f 781 644 637
f 781 637 776
f 783 779 778
f 785 783 784
f 784 783 645
f 783 778 645
f 778 639 645
f 646 784 645
f 780 647 640
f 647 780 642
f 786 649 648
f 650 786 648
f 782 787 781
f 644 781 787
f 788 644 787
f 651 644 788
f 789 785 784
f 784 646 789
f 646 790 789
f 646 653 790
f 791 654 786
f 786 654 649
f 656 791 650
f 650 791 786
f 794 793 792
f 788 794 792
f 658 788 792
f 651 788 658
f 653 659 795
f 796 653 795
f 790 653 796
f 661 795 659
f 791 662 654
f 662 791 656
f 792 793 797
f 797 793 798
f 797 665 658
f 797 658 792
f 799 796 795
f 795 661 799
f 661 800 799
f 661 667 800
f 798 801 797
f 801 803 802
f 801 802 668
f 797 801 668
f 665 797 668
f 802 670 668
f 672 800 667
f 672 804 800
f 803 805 802
f 670 802 805
f 806 670 805
f 674 670 806
f 676 804 672
f 676 807 804
f 806 808 674
f 674 808 677
f 679 677 808
f 679 808 809
f 681 807 676
f 681 810 807
f 813 812 811
f 815 814 811
f 811 814 813
f 815 816 814
f 809 817 679
f 679 817 682
f 684 682 817
f 684 817 818
f 685 810 681
f 685 819 810
f 812 820 811
f 811 820 815
f 815 820 821
f 824 823 822
f 815 821 816
f 823 825 822
f 686 684 826
f 684 827 826
f 684 818 827
f 826 688 686
f 830 829 828
f 829 819 828
f 819 689 828
f 819 685 689
f 823 824 831
f 831 824 832
f 825 823 833
f 823 834 833
f 823 831 834
f 834 835 833
f 827 836 826
f 836 838 837
f 836 837 690
f 826 836 690
f 688 826 690
f 839 691 690
f 839 690 837
f 839 693 691
f 830 828 694
f 695 830 694
f 840 830 695
f 694 828 689
f 832 841 831
f 843 842 841
f 842 831 841
f 842 834 831
f 698 844 697
f 844 834 697
f 834 842 697
f 834 844 835
f 845 698 699
f 845 844 698
f 846 837 701
f 837 845 701
f 845 699 701
f 837 838 845
f 837 847 839
f 837 846 847
f 848 702 693
f 839 848 693
f 847 848 839
f 849 703 702
f 849 702 848
f 850 704 703
f 850 703 849
f 704 850 851
f 852 704 851
f 705 704 852
f 695 705 840
f 840 705 852
f 843 853 842
f 842 853 697
f 853 706 697
f 853 854 706
f 854 856 855
f 707 854 855
f 706 854 707
f 846 701 707
f 855 846 707
f 857 846 855
f 846 858 847
f 846 857 858
f 860 848 859
f 848 858 859
f 848 847 858
f 848 860 849
f 849 860 861
f 849 861 850
f 850 861 862
f 850 862 851
f 856 863 855
f 855 863 857
f 857 863 864
f 866 865 864
f 865 857 864
f 865 858 857
f 859 858 867
f 867 858 865
f 866 868 865
f 865 868 867
f 870 869 709
f 709 869 708
f 871 709 710
f 871 870 709
f 873 872 711
f 872 710 711
f 872 871 710
f 873 874 872
f 876 875 714
f 714 875 713
f 714 708 869
f 714 869 876
f 715 877 873
f 715 873 711
f 874 873 878
f 878 873 877
f 880 879 717
f 717 879 716
f 717 713 875
f 717 875 880
f 718 881 877
f 718 877 715
f 878 877 882
f 882 877 881
f 885 884 883
f 720 721 883
f 721 885 883
f 721 886 885
f 721 716 879
f 721 879 886
f 723 887 881
f 723 881 718
f 882 881 888
f 888 881 887
f 889 725 726
f 727 890 726
f 726 890 889
f 729 890 727
f 891 730 731
f 733 891 731
f 883 884 736
f 884 735 736
f 884 892 735
f 883 736 720
f 738 893 887
f 738 887 723
f 888 887 894
f 894 887 893
f 889 742 725
f 742 889 745
f 745 889 890
f 745 890 729
f 895 747 891
f 891 747 730
f 748 896 733
f 896 891 733
f 896 895 891
f 750 896 748
f 892 752 735
f 897 752 892
f 754 893 738
f 898 894 893
f 754 898 893
f 755 898 754
f 900 898 899
f 898 756 899
f 898 755 756
f 757 901 756
f 756 901 899
f 758 901 757
f 895 761 747
f 761 895 763
f 895 902 763
f 895 896 902
f 764 903 750
f 903 896 750
f 903 902 896
f 766 903 764
f 897 904 752
f 752 904 767
f 904 906 905
f 768 904 905
f 767 904 768
f 905 769 768
f 907 900 899
f 907 899 901
f 907 901 908
f 910 908 909
f 909 908 770
f 908 901 770
f 901 758 770
f 771 909 770
f 902 773 763
f 773 902 774
f 774 902 903
f 774 903 766
f 906 911 905
f 769 905 911
f 912 769 911
f 777 769 912
f 910 909 913
f 910 913 914
f 779 913 771
f 771 913 909
f 912 782 777
f 915 782 912
f 916 914 913
f 918 916 917
f 917 916 783
f 916 913 783
f 913 779 783
f 785 917 783
f 915 919 782
f 782 919 787
f 788 787 919
f 788 919 920
f 921 918 917
f 923 921 922
f 922 921 789
f 921 917 789
f 917 785 789
f 790 922 789
f 925 924 794
f 794 924 793
f 794 788 920
f 794 920 925
f 923 922 926
f 923 926 927
f 796 926 790
f 790 926 922
f 924 798 793
f 928 798 924
f 929 927 926
f 931 929 930
f 930 929 799
f 929 926 799
f 926 796 799
f 800 930 799
f 801 798 932
f 798 933 932
f 798 928 933
f 932 803 801
f 931 930 934
f 931 934 935
f 804 934 800
f 800 934 930
f 933 936 932
f 936 938 937
f 936 937 805
f 932 936 805
f 803 932 805
f 937 806 805
f 935 934 939
f 935 939 940
f 807 939 804
f 804 939 934
f 943 942 941
f 941 944 943
f 938 945 937
f 945 947 946
f 945 946 808
f 937 945 808
f 806 937 808
f 946 809 808
f 940 939 948
f 940 948 949
f 810 948 807
f 807 948 939
f 941 942 950
f 950 942 951
f 813 952 812
f 952 941 812
f 941 950 812
f 941 952 944
f 953 813 814
f 953 952 813
f 814 816 953
f 953 816 954
f 947 955 946
f 955 957 956
f 955 956 817
f 946 955 817
f 809 946 817
f 956 818 817
f 949 948 958
f 949 958 959
f 819 958 810
f 810 958 948
f 951 960 950
f 960 962 961
f 960 961 820
f 950 960 820
f 812 950 820
f 963 821 820
f 963 820 961
f 964 824 822
f 824 964 963
f 954 963 964
f 963 954 821
f 816 821 954
f 822 825 964
f 964 825 965
f 956 957 966
f 966 957 967
f 966 827 818
f 966 818 956
f 959 958 829
f 830 959 829
f 968 959 830
f 829 958 819
f 971 970 969
f 969 972 971
f 962 973 961
f 961 973 963
f 963 973 974
f 824 963 974
f 975 824 974
f 832 824 975
f 976 965 825
f 976 825 833
f 977 966 835
f 966 976 835
f 976 833 835
f 966 967 976
f 978 836 827
f 966 978 827
f 977 978 966
f 978 838 836
f 981 980 979
f 980 968 979
f 968 840 979
f 968 830 840
f 969 970 982
f 982 970 983
f 972 969 984
f 984 969 982
f 975 985 832
f 832 985 841
f 843 841 985
f 843 985 986
f 844 977 835
f 977 844 845
f 977 845 978
f 978 845 838
f 981 979 852
f 851 981 852
f 987 981 851
f 852 979 840
f 982 983 988
f 988 983 989
f 984 982 990
f 990 982 988
f 986 991 843
f 843 991 853
f 991 993 992
f 854 991 992
f 853 991 854
f 992 856 854
f 859 994 860
f 860 994 995
f 996 860 995
f 861 860 996
f 861 997 862
f 996 997 861
f 851 862 987
f 987 862 997
f 989 998 988
f 988 998 990
f 993 999 992
f 992 999 856
f 999 863 856
f 999 1000 863
f 1000 1002 1001
f 864 1000 1001
f 863 1000 864
f 1001 866 864
f 1004 1003 994
f 859 1004 994
f 867 1004 859
f 994 1003 995
f 1002 1005 1001
f 1001 1005 866
f 1005 868 866
f 1005 1006 868
f 867 868 1004
f 1004 868 1006
f 1008 1007 870
f 870 1007 869
f 1009 870 871
f 1009 1008 870
f 1010 871 872
f 1010 1009 871
f 872 874 1010
f 1010 874 1011
f 1013 1012 876
f 876 1012 875
f 876 869 1007
f 876 1007 1013
f 878 1011 874
f 878 1014 1011
f 1016 1015 880
f 880 1015 879
f 880 875 1012
f 880 1012 1016
f 1019 1018 1017
f 1018 1014 1017
f 1014 882 1017
f 1014 878 882
f 1020 884 885
f 1020 885 1021
f 885 1022 1021
f 885 886 1022
f 886 879 1015
f 886 1015 1022
f 1025 1024 1023
f 1023 1024 1019
f 1017 1023 1019
f 1026 1023 1017
f 888 1026 882
f 882 1026 1017
f 1027 892 1020
f 1020 892 884
f 1020 1021 1028
f 1020 1028 1027
f 1025 1023 1029
f 1025 1029 1030
f 1031 1023 1026
f 1029 1023 1031
f 894 1031 888
f 888 1031 1026
f 1032 897 1027
f 1027 897 892
f 1027 1028 1033
f 1027 1033 1032
f 1030 1029 1034
f 1030 1034 1035
f 1036 1029 1031
f 1034 1029 1036
f 898 1037 894
f 1037 1031 894
f 1037 1036 1031
f 900 1037 898
f 1032 904 897
f 906 904 1032
f 1033 906 1032
f 1038 906 1033
f 1039 1035 1034
f 1039 1034 1036
f 1039 1036 1040
f 1040 1036 1037
f 1040 1037 1041
f 1043 1041 1042
f 1042 1041 907
f 1041 1037 907
f 1037 900 907
f 908 1044 907
f 907 1044 1042
f 910 1044 908
f 1038 1045 906
f 906 1045 911
f 912 911 1045
f 912 1045 1046
f 1047 1043 1042
f 1049 1048 1047
f 1042 1049 1047
f 1044 1049 1042
f 914 1049 910
f 910 1049 1044
f 1046 915 912
f 1050 915 1046
f 1051 1048 1049
f 1053 1051 1052
f 1052 1051 916
f 1051 1049 916
f 1049 914 916
f 918 1052 916
f 919 915 1054
f 915 1055 1054
f 915 1050 1055
f 1054 920 919
f 1056 1053 1052
f 1058 1056 1057
f 1057 1056 921
f 1056 1052 921
f 1052 918 921
f 923 1057 921
f 1054 1055 925
f 1055 924 925
f 1055 1059 924
f 1054 925 920
f 1058 1057 1060
f 1058 1060 1061
f 927 1060 923
f 923 1060 1057
f 1059 928 924
f 1062 928 1059
f 1063 1061 1060
f 1065 1063 1064
f 1064 1063 929
f 1063 1060 929
f 1060 927 929
f 931 1064 929
f 1062 933 928
f 1066 933 1062
f 1065 1064 1067
f 1065 1067 1068
f 935 1067 931
f 931 1067 1064
f 1071 1070 1069
f 1069 1072 1071
f 1066 1073 933
f 933 1073 936
f 938 936 1073
f 938 1073 1074
f 1068 1067 1075
f 1068 1075 1076
f 940 1075 935
f 935 1075 1067
f 1069 1070 1077
f 1077 1070 1078
f 943 1079 942
f 1079 1069 942
f 1069 1077 942
f 1069 1079 1072
f 1081 1080 944
f 1080 943 944
f 1080 1079 943
f 1081 1082 1080
f 1074 1083 938
f 938 1083 945
f 947 945 1083
f 947 1083 1084
f 1076 1075 1085
f 1076 1085 1086
f 949 1085 940
f 940 1085 1075
f 1078 1087 1077
f 951 942 1077
f 1088 951 1077
f 1087 1088 1077
f 951 1088 1089
f 944 952 1081
f 1088 1090 1089
f 1091 1089 1090
f 1090 1092 1091
f 1082 1081 1093
f 952 1093 1081
f 1093 952 953
f 953 954 1093
f 1093 954 1094
f 1084 1095 947
f 947 1095 955
f 957 955 1095
f 957 1095 1096
f 1086 1085 1097
f 1086 1097 1098
f 959 1097 949
f 949 1097 1085
f 1089 960 951
f 960 1089 962
f 1089 1099 962
f 1089 1091 1099
f 1091 1092 1100
f 1091 1100 1099
f 1101 1094 954
f 1101 954 964
f 1103 1102 965
f 1102 964 965
f 1102 1101 964
f 1096 1102 1103
f 967 1096 1103
f 957 1096 967
f 1098 1097 1104
f 1098 1104 1105
f 968 1104 959
f 959 1104 1097
f 1108 1107 1106
f 970 971 1106
f 971 1108 1106
f 971 1109 1108
f 971 972 1109
f 1109 972 1110
f 1099 973 962
f 1100 1111 1099
f 1111 973 1099
f 1111 974 973
f 1113 1112 975
f 974 1113 975
f 1111 1113 974
f 965 976 1103
f 1112 1113 1114
f 1103 976 967
f 980 981 1115
f 1104 1116 1105
f 1116 1104 1117
f 1104 968 1117
f 980 1115 1117
f 980 1117 968
f 1106 1107 1118
f 1118 1107 1119
f 1118 983 970
f 1118 970 1106
f 984 1110 972
f 984 1120 1110
f 1112 985 975
f 1122 1121 986
f 1122 986 985
f 1114 1122 985
f 1112 1114 985
f 1123 1121 1122
f 1125 1124 1115
f 981 1125 1115
f 987 1125 981
f 1115 1124 1117
f 1118 1119 1126
f 1126 1119 1127
f 1126 989 983
f 1126 983 1118
f 990 1120 984
f 990 1128 1120
f 1121 991 986
f 993 991 1121
f 1123 993 1121
f 1129 993 1123
f 995 1130 996
f 996 1130 1131
f 1132 996 1131
f 997 996 1132
f 987 997 1125
f 1125 997 1132
f 1127 1133 1126
f 1126 1133 989
f 1133 998 989
f 1133 1134 998
f 990 998 1128
f 1128 998 1134
f 1129 1135 993
f 993 1135 999
f 1135 1137 1136
f 1000 1135 1136
f 999 1135 1000
f 1136 1002 1000
f 1004 1138 1003
f 1130 995 1003
f 1138 1130 1003
f 1139 1130 1138
f 1131 1130 1140
f 1130 1141 1140
f 1130 1139 1141
f 1141 1142 1140
f 1137 1143 1136
f 1143 1145 1144
f 1143 1144 1005
f 1136 1143 1005
f 1002 1136 1005
f 1146 1006 1005
f 1146 1005 1144
f 1138 1004 1006
f 1146 1138 1006
f 1147 1138 1146
f 1149 1139 1148
f 1139 1147 1148
f 1139 1138 1147
f 1139 1149 1141
f 1141 1149 1150
f 1141 1150 1142
f 1145 1151 1144
f 1144 1151 1146
f 1146 1151 1152
f 1146 1152 1147
f 1147 1152 1153
f 1147 1153 1148
f 1154 1007 1008
f 1009 1155 1008
f 1008 1155 1154
f 1010 1156 1009
f 1009 1156 1155
f 1011 1156 1010
f 1157 1012 1013
f 1158 1157 1013
f 1158 1013 1007
f 1159 1158 1007
f 1154 1159 1007
f 1159 1154 1155
f 1159 1155 1160
f 1162 1161 1160
f 1155 1162 1160
f 1156 1162 1155
f 1014 1162 1011
f 1011 1162 1156
f 1163 1015 1016
f 1164 1163 1016
f 1164 1016 1012
f 1165 1164 1012
f 1157 1165 1012
f 1165 1157 1158
f 1168 1167 1166
f 1166 1167 1161
f 1166 1161 1162
f 1019 1166 1162
f 1018 1019 1162
f 1018 1162 1014
f 1169 1021 1022
f 1170 1169 1022
f 1170 1022 1015
f 1171 1170 1015
f 1163 1171 1015
f 1171 1163 1164
f 1168 1166 1024
f 1025 1168 1024
f 1172 1168 1025
f 1024 1166 1019
f 1173 1028 1169
f 1169 1028 1021
f 1169 1170 1174
f 1169 1174 1173
f 1177 1176 1175
f 1176 1172 1175
f 1172 1030 1175
f 1172 1025 1030
f 1178 1033 1173
f 1173 1033 1028
f 1173 1174 1179
f 1173 1179 1178
f 1180 1177 1175
f 1175 1030 1180
f 1030 1181 1180
f 1030 1035 1181
f 1183 1182 1178
f 1182 1033 1178
f 1182 1038 1033
f 1183 1178 1179
f 1035 1039 1184
f 1185 1035 1184
f 1181 1035 1185
f 1040 1186 1039
f 1039 1186 1184
f 1041 1187 1040
f 1040 1187 1186
f 1043 1187 1041
f 1182 1188 1038
f 1038 1188 1045
f 1046 1045 1188
f 1046 1188 1189
f 1190 1185 1184
f 1190 1184 1186
f 1190 1186 1191
f 1193 1192 1191
f 1186 1193 1191
f 1187 1193 1186
f 1047 1194 1043
f 1194 1187 1043
f 1194 1193 1187
f 1048 1194 1047
f 1196 1050 1195
f 1050 1189 1195
f 1050 1046 1189
f 1197 1196 1195
f 1198 1192 1193
f 1200 1199 1198
f 1193 1200 1198
f 1194 1200 1193
f 1051 1201 1048
f 1201 1194 1048
f 1201 1200 1194
f 1053 1201 1051
f 1203 1202 1196
f 1202 1050 1196
f 1202 1055 1050
f 1203 1196 1197
f 1204 1199 1200
f 1206 1205 1204
f 1200 1206 1204
f 1201 1206 1200
f 1056 1207 1053
f 1207 1201 1053
f 1207 1206 1201
f 1058 1207 1056
f 1202 1059 1055
f 1208 1059 1202
f 1209 1205 1206
f 1211 1210 1209
f 1206 1211 1209
f 1207 1211 1206
f 1061 1211 1058
f 1058 1211 1207
f 1208 1062 1059
f 1212 1062 1208
f 1213 1210 1211
f 1215 1213 1214
f 1214 1213 1063
f 1213 1211 1063
f 1211 1061 1063
f 1065 1214 1063
f 1218 1217 1216
f 1216 1219 1218
f 1212 1066 1062
f 1220 1066 1212
f 1221 1215 1214
f 1214 1065 1221
f 1065 1222 1221
f 1065 1068 1222
f 1216 1217 1071
f 1217 1070 1071
f 1217 1223 1070
f 1225 1224 1072
f 1072 1224 1071
f 1224 1219 1071
f 1219 1216 1071
f 1225 1226 1224
f 1220 1227 1066
f 1066 1227 1073
f 1074 1073 1227
f 1074 1227 1228
f 1076 1222 1068
f 1076 1229 1222
f 1223 1078 1070
f 1230 1078 1223
f 1079 1225 1072
f 1231 1226 1225
f 1079 1231 1225
f 1080 1231 1079
f 1233 1232 1082
f 1232 1080 1082
f 1232 1231 1080
f 1233 1234 1083
f 1228 1233 1083
f 1074 1228 1083
f 1233 1228 1232
f 1234 1084 1083
f 1086 1229 1076
f 1086 1235 1229
f 1230 1236 1078
f 1078 1236 1087
f 1087 1237 1088
f 1236 1237 1087
f 1237 1239 1238
f 1090 1237 1238
f 1088 1237 1090
f 1093 1233 1082
f 1092 1090 1238
f 1233 1093 1094
f 1240 1233 1094
f 1234 1233 1240
f 1241 1095 1084
f 1234 1241 1084
f 1240 1241 1234
f 1241 1096 1095
f 1098 1243 1242
f 1235 1098 1242
f 1086 1098 1235
f 1243 1244 1242
f 1247 1246 1245
f 1245 1248 1247
f 1239 1249 1238
f 1100 1092 1238
f 1250 1100 1238
f 1249 1250 1238
f 1100 1250 1251
f 1094 1101 1240
f 1251 1250 1252
f 1240 1101 1102
f 1240 1102 1241
f 1241 1102 1096
f 1105 1253 1243
f 1105 1243 1098
f 1244 1243 1254
f 1243 1255 1254
f 1243 1253 1255
f 1254 1255 1246
f 1246 1255 1245
f 1255 1107 1245
f 1107 1108 1245
f 1256 1248 1245
f 1108 1256 1245
f 1109 1256 1108
f 1109 1110 1256
f 1256 1110 1257
f 1251 1111 1100
f 1252 1258 1251
f 1258 1111 1251
f 1258 1113 1111
f 1114 1113 1258
f 1114 1258 1259
f 1116 1253 1105
f 1253 1116 1117
f 1260 1253 1117
f 1255 1253 1260
f 1260 1119 1107
f 1260 1107 1255
f 1120 1257 1110
f 1120 1261 1257
f 1122 1114 1262
f 1114 1263 1262
f 1114 1259 1263
f 1262 1123 1122
f 1125 1264 1124
f 1260 1117 1124
f 1264 1260 1124
f 1265 1260 1264
f 1265 1127 1119
f 1265 1119 1260
f 1268 1267 1266
f 1267 1261 1266
f 1261 1128 1266
f 1261 1120 1128
f 1263 1269 1262
f 1123 1262 1269
f 1270 1123 1269
f 1129 1123 1270
f 1131 1271 1132
f 1264 1125 1132
f 1271 1264 1132
f 1272 1264 1271
f 1264 1273 1265
f 1264 1272 1273
f 1265 1273 1127
f 1273 1274 1127
f 1274 1133 1127
f 1273 1275 1274
f 1266 1134 1268
f 1134 1274 1268
f 1134 1133 1274
f 1134 1266 1128
f 1270 1276 1129
f 1129 1276 1135
f 1137 1135 1276
f 1137 1276 1277
f 1140 1271 1131
f 1272 1271 1278
f 1271 1142 1278
f 1142 1279 1278
f 1142 1271 1140
f 1272 1278 1273
f 1273 1278 1280
f 1273 1280 1275
f 1277 1281 1137
f 1137 1281 1143
f 1283 1282 1145
f 1143 1283 1145
f 1281 1283 1143
f 1284 1282 1283
f 1286 1285 1149
f 1286 1149 1148
f 1149 1287 1150
f 1285 1287 1149
f 1142 1150 1279
f 1279 1150 1287
f 1282 1151 1145
f 1284 1288 1282
f 1288 1151 1282
f 1288 1152 1151
f 1152 1289 1153
f 1288 1289 1152
f 1148 1153 1286
f 1286 1153 1289
f 1290 1158 1159
f 1160 1291 1159
f 1159 1291 1290
f 1161 1291 1160
f 1292 1164 1165
f 1158 1290 1165
f 1290 1292 1165
f 1290 1293 1292
f 1168 1293 1167
f 1293 1291 1167
f 1293 1290 1291
f 1167 1291 1161
f 1294 1170 1171
f 1295 1294 1171
f 1295 1171 1164
f 1296 1295 1164
f 1292 1296 1164
f 1296 1292 1293
f 1296 1293 1297
f 1293 1168 1297
f 1168 1298 1297
f 1168 1172 1298
f 1300 1299 1294
f 1299 1170 1294
f 1299 1174 1170
f 1300 1294 1295
f 1302 1301 1176
f 1302 1176 1177
f 1172 1176 1298
f 1298 1176 1301
f 1299 1179 1174
f 1303 1179 1299
f 1177 1180 1304
f 1305 1177 1304
f 1302 1177 1305
f 1181 1304 1180
f 1307 1306 1183
f 1183 1306 1182
f 1183 1179 1303
f 1183 1303 1307
f 1308 1305 1304
f 1304 1181 1308
f 1181 1309 1308
f 1181 1185 1309
f 1188 1182 1310
f 1182 1311 1310
f 1182 1306 1311
f 1310 1189 1188
f 1185 1190 1312
f 1313 1185 1312
f 1309 1185 1313
f 1191 1314 1190
f 1190 1314 1312
f 1192 1314 1191
f 1311 1315 1310
f 1315 1317 1316
f 1315 1316 1195
f 1310 1315 1195
f 1189 1310 1195
f 1316 1197 1195
f 1313 1312 1318
f 1313 1318 1319
f 1320 1312 1314
f 1318 1312 1320
f 1198 1321 1192
f 1321 1314 1192
f 1321 1320 1314
f 1199 1321 1198
f 1316 1317 1203
f 1317 1202 1203
f 1317 1322 1202
f 1316 1203 1197
f 1323 1319 1318
f 1325 1324 1323
f 1318 1325 1323
f 1320 1325 1318
f 1326 1320 1321
f 1325 1320 1326
f 1204 1327 1199
f 1327 1321 1199
f 1327 1326 1321
f 1205 1327 1204
f 1322 1208 1202
f 1328 1208 1322
f 1329 1324 1325
f 1329 1325 1326
f 1329 1326 1330
f 1332 1331 1330
f 1326 1332 1330
f 1327 1332 1326
f 1209 1333 1205
f 1333 1327 1205
f 1333 1332 1327
f 1210 1333 1209
f 1336 1335 1334
f 1334 1337 1336
f 1339 1212 1338
f 1212 1328 1338
f 1212 1208 1328
f 1340 1339 1338
f 1341 1331 1332
f 1343 1342 1341
f 1332 1343 1341
f 1333 1343 1332
f 1213 1344 1210
f 1344 1333 1210
f 1344 1343 1333
f 1215 1344 1213
f 1334 1335 1218
f 1335 1217 1218
f 1335 1345 1217
f 1218 1219 1334
f 1219 1337 1334
f 1219 1346 1337
f 1347 1220 1339
f 1339 1220 1212
f 1339 1340 1348
f 1339 1348 1347
f 1349 1342 1343
f 1349 1343 1344
f 1349 1344 1350
f 1352 1350 1351
f 1351 1350 1221
f 1350 1344 1221
f 1344 1215 1221
f 1222 1351 1221
f 1354 1223 1353
f 1223 1345 1353
f 1223 1217 1345
f 1356 1355 1224
f 1354 1224 1355
f 1224 1354 1219
f 1353 1219 1354
f 1219 1353 1346
f 1358 1357 1226
f 1357 1224 1226
f 1357 1356 1224
f 1357 1347 1359
f 1347 1357 1220
f 1358 1220 1357
f 1220 1358 1227
f 1360 1227 1358
f 1347 1348 1359
f 1227 1360 1228
f 1361 1352 1351
f 1351 1222 1361
f 1222 1362 1361
f 1222 1229 1362
f 1363 1230 1354
f 1354 1230 1223
f 1354 1355 1364
f 1365 1354 1364
f 1363 1354 1365
f 1366 1358 1364
f 1226 1364 1358
f 1364 1226 1365
f 1231 1365 1226
f 1365 1231 1367
f 1232 1367 1231
f 1367 1232 1368
f 1360 1368 1232
f 1368 1360 1366
f 1358 1366 1360
f 1360 1232 1228
f 1235 1362 1229
f 1235 1369 1362
f 1363 1236 1230
f 1236 1363 1237
f 1237 1363 1365
f 1237 1365 1239
f 1365 1370 1239
f 1365 1367 1370
f 1367 1368 1371
f 1372 1367 1371
f 1370 1367 1372
f 1373 1372 1371
f 1374 1369 1235
f 1374 1235 1242
f 1376 1375 1244
f 1375 1242 1244
f 1375 1374 1242
f 1246 1247 1376
f 1247 1375 1376
f 1247 1377 1375
f 1247 1248 1377
f 1377 1248 1378
f 1370 1249 1239
f 1249 1370 1250
f 1250 1370 1372
f 1252 1250 1372
f 1373 1252 1372
f 1379 1252 1373
f 1254 1376 1244
f 1376 1254 1246
f 1248 1256 1380
f 1381 1248 1380
f 1378 1248 1381
f 1257 1380 1256
f 1258 1252 1382
f 1252 1383 1382
f 1252 1379 1383
f 1382 1259 1258
f 1381 1380 1384
f 1381 1384 1385
f 1261 1384 1257
f 1257 1384 1380
f 1382 1383 1386
f 1386 1383 1387
f 1386 1263 1259
f 1386 1259 1382
f 1385 1384 1267
f 1268 1385 1267
f 1388 1385 1268
f 1267 1384 1261
f 1387 1389 1386
f 1386 1389 1263
f 1389 1269 1263
f 1389 1390 1269
f 1270 1269 1390
f 1270 1390 1391
f 1393 1392 1274
f 1393 1274 1275
f 1268 1274 1388
f 1388 1274 1392
f 1391 1394 1270
f 1270 1394 1276
f 1277 1276 1394
f 1277 1394 1395
f 1279 1396 1278
f 1278 1396 1397
f 1398 1278 1397
f 1280 1278 1398
f 1275 1280 1393
f 1393 1280 1398
f 1395 1399 1277
f 1277 1399 1281
f 1281 1400 1283
f 1399 1400 1281
f 1402 1401 1284
f 1283 1402 1284
f 1400 1402 1283
f 1403 1401 1402
f 1286 1404 1285
f 1285 1404 1405
f 1406 1285 1405
f 1287 1285 1406
f 1279 1287 1396
f 1287 1407 1396
f 1287 1406 1407
f 1396 1407 1397
f 1401 1288 1284
f 1403 1408 1401
f 1408 1288 1401
f 1408 1289 1288
f 1286 1289 1404
f 1289 1409 1404
f 1289 1408 1409
f 1404 1409 1405
f 1410 1295 1296
f 1297 1411 1296
f 1296 1411 1410
f 1298 1411 1297
f 1412 1299 1300
f 1413 1412 1300
f 1413 1300 1295
f 1414 1413 1295
f 1410 1414 1295
f 1302 1415 1301
f 1415 1410 1301
f 1410 1411 1301
f 1415 1414 1410
f 1301 1411 1298
f 1416 1303 1412
f 1412 1303 1299
f 1412 1413 1417
f 1412 1417 1416
f 1305 1415 1302
f 1305 1418 1415
f 1419 1306 1307
f 1420 1419 1307
f 1420 1307 1303
f 1421 1420 1303
f 1416 1421 1303
f 1421 1416 1417
f 1305 1308 1422
f 1423 1305 1422
f 1418 1305 1423
f 1309 1422 1308
f 1425 1424 1419
f 1424 1306 1419
f 1424 1311 1306
f 1425 1419 1420
f 1426 1423 1422
f 1422 1309 1426
f 1309 1427 1426
f 1309 1313 1427
f 1424 1428 1311
f 1311 1428 1315
f 1317 1315 1428
f 1317 1428 1429
f 1319 1427 1313
f 1319 1430 1427
f 1429 1322 1317
f 1431 1322 1429
f 1432 1430 1319
f 1432 1319 1323
f 1434 1433 1324
f 1433 1323 1324
f 1433 1432 1323
f 1434 1435 1433
f 1438 1437 1436
f 1440 1439 1436
f 1436 1439 1438
f 1442 1441 1440
f 1440 1441 1439
f 1431 1441 1442
f 1328 1431 1442
f 1322 1431 1328
f 1329 1434 1324
f 1443 1435 1434
f 1329 1443 1434
f 1330 1443 1329
f 1330 1331 1443
f 1443 1331 1444
f 1436 1437 1336
f 1437 1335 1336
f 1437 1445 1335
f 1436 1336 1337
f 1446 1436 1337
f 1440 1436 1446
f 1440 1447 1442
f 1440 1446 1447
f 1448 1338 1328
f 1442 1448 1328
f 1447 1448 1442
f 1448 1340 1338
f 1449 1444 1331
f 1449 1331 1341
f 1341 1342 1449
f 1449 1342 1450
f 1445 1345 1335
f 1451 1345 1445
f 1346 1452 1446
f 1346 1446 1337
f 1446 1453 1447
f 1446 1452 1453
f 1447 1454 1448
f 1447 1453 1454
f 1454 1348 1340
f 1454 1340 1448
f 1455 1450 1342
f 1455 1342 1349
f 1456 1349 1350
f 1456 1455 1349
f 1350 1352 1456
f 1456 1352 1457
f 1451 1458 1345
f 1345 1458 1353
f 1459 1355 1356
f 1353 1452 1346
f 1452 1353 1460
f 1458 1460 1353
f 1461 1453 1460
f 1452 1460 1453
f 1459 1357 1462
f 1357 1459 1356
f 1359 1462 1357
f 1462 1359 1463
f 1454 1463 1359
f 1463 1454 1461
f 1453 1461 1454
f 1454 1359 1348
f 1464 1457 1352
f 1464 1352 1361
f 1361 1362 1464
f 1464 1362 1465
f 1459 1364 1355
f 1364 1459 1366
f 1366 1459 1462
f 1368 1366 1462
f 1463 1368 1462
f 1466 1368 1463
f 1369 1465 1362
f 1369 1467 1465
f 1466 1468 1368
f 1368 1468 1371
f 1373 1371 1468
f 1373 1468 1469
f 1470 1467 1369
f 1470 1369 1374
f 1471 1374 1375
f 1471 1470 1374
f 1473 1471 1472
f 1471 1377 1472
f 1471 1375 1377
f 1378 1472 1377
f 1469 1379 1373
f 1474 1379 1469
f 1473 1472 1475
f 1473 1475 1476
f 1381 1475 1378
f 1378 1475 1472
f 1474 1383 1379
f 1477 1383 1474
f 1476 1475 1478
f 1476 1478 1479
f 1385 1478 1381
f 1381 1478 1475
f 1481 1387 1480
f 1387 1477 1480
f 1387 1383 1477
f 1483 1482 1481
f 1483 1481 1480
f 1484 1482 1483
f 1479 1478 1485
f 1479 1485 1486
f 1388 1485 1385
f 1385 1485 1478
f 1481 1389 1387
f 1389 1481 1390
f 1390 1481 1482
f 1488 1487 1391
f 1488 1391 1390
f 1484 1488 1390
f 1482 1484 1390
f 1489 1487 1488
f 1492 1491 1490
f 1490 1491 1486
f 1490 1486 1485
f 1393 1490 1485
f 1392 1393 1485
f 1392 1485 1388
f 1487 1394 1391
f 1494 1493 1395
f 1494 1395 1394
f 1489 1494 1394
f 1487 1489 1394
f 1495 1493 1494
f 1498 1497 1496
f 1500 1499 1496
f 1500 1496 1497
f 1499 1500 1492
f 1499 1492 1490
f 1397 1499 1490
f 1398 1397 1490
f 1398 1490 1393
f 1493 1399 1395
f 1495 1501 1493
f 1501 1399 1493
f 1501 1400 1399
f 1400 1502 1402
f 1501 1502 1400
f 1504 1503 1403
f 1402 1504 1403
f 1502 1504 1402
f 1506 1505 1503
f 1506 1503 1504
f 1505 1506 1498
f 1505 1498 1496
f 1405 1505 1496
f 1406 1405 1496
f 1406 1496 1407
f 1407 1496 1499
f 1407 1499 1397
f 1503 1408 1403
f 1408 1503 1409
f 1409 1503 1505
f 1409 1505 1405
f 1507 1413 1414
f 1415 1507 1414
f 1509 1508 1507
f 1508 1413 1507
f 1508 1417 1413
f 1415 1418 1507
f 1418 1510 1507
f 1510 1509 1507
f 1510 1418 1511
f 1511 1512 1510
f 1513 1420 1421
f 1514 1513 1421
f 1417 1514 1421
f 1508 1514 1417
f 1423 1515 1511
f 1423 1511 1418
f 1512 1511 1516
f 1516 1511 1515
f 1517 1424 1425
f 1518 1517 1425
f 1518 1425 1420
f 1519 1518 1420
f 1513 1519 1420
f 1519 1513 1514
f 1426 1515 1423
f 1521 1520 1427
f 1427 1520 1426
f 1520 1516 1426
f 1516 1515 1426
f 1521 1522 1520
f 1428 1424 1517
f 1525 1524 1523
f 1429 1523 1524
f 1429 1518 1523
f 1429 1428 1517
f 1518 1429 1517
f 1430 1526 1521
f 1430 1521 1427
f 1522 1521 1527
f 1527 1521 1526
f 1530 1529 1528
f 1530 1528 1525
f 1528 1524 1525
f 1528 1531 1524
f 1531 1431 1429
f 1531 1429 1524
f 1432 1526 1430
f 1432 1433 1526
f 1433 1532 1526
f 1532 1527 1526
f 1433 1533 1532
f 1435 1533 1433
f 1535 1534 1438
f 1438 1534 1437
f 1439 1528 1529
f 1535 1439 1529
f 1438 1439 1535
f 1528 1439 1441
f 1528 1441 1531
f 1531 1441 1431
f 1536 1532 1533
f 1536 1533 1435
f 1443 1536 1435
f 1537 1536 1443
f 1443 1444 1537
f 1537 1444 1538
f 1540 1445 1539
f 1445 1534 1539
f 1445 1437 1534
f 1542 1541 1540
f 1542 1540 1539
f 1543 1541 1542
f 1544 1538 1444
f 1544 1444 1449
f 1449 1450 1544
f 1544 1450 1545
f 1546 1451 1540
f 1540 1451 1445
f 1547 1540 1541
f 1546 1540 1547
f 1541 1543 1548
f 1541 1548 1547
f 1551 1550 1549
f 1552 1549 1550
f 1553 1545 1450
f 1553 1450 1455
f 1554 1455 1456
f 1554 1553 1455
f 1556 1555 1457
f 1555 1456 1457
f 1555 1554 1456
f 1556 1557 1555
f 1546 1458 1451
f 1458 1546 1460
f 1460 1546 1547
f 1548 1558 1547
f 1558 1460 1547
f 1558 1461 1460
f 1560 1559 1463
f 1461 1560 1463
f 1558 1560 1461
f 1559 1560 1551
f 1549 1559 1551
f 1561 1559 1549
f 1549 1552 1562
f 1563 1549 1562
f 1561 1549 1563
f 1564 1563 1562
f 1464 1556 1457
f 1464 1465 1556
f 1465 1557 1556
f 1465 1565 1557
f 1566 1466 1559
f 1559 1466 1463
f 1567 1559 1561
f 1566 1559 1567
f 1568 1561 1563
f 1567 1561 1568
f 1563 1564 1569
f 1563 1569 1568
f 1467 1565 1465
f 1467 1570 1565
f 1566 1468 1466
f 1566 1567 1571
f 1469 1566 1571
f 1572 1469 1571
f 1566 1469 1468
f 1571 1567 1568
f 1571 1568 1573
f 1573 1568 1569
f 1574 1570 1467
f 1574 1467 1470
f 1576 1574 1575
f 1574 1471 1575
f 1574 1470 1471
f 1473 1575 1471
f 1578 1474 1577
f 1474 1572 1577
f 1474 1469 1572
f 1579 1578 1577
f 1576 1575 1580
f 1576 1580 1581
f 1476 1580 1473
f 1473 1580 1575
f 1582 1477 1578
f 1578 1477 1474
f 1578 1579 1583
f 1584 1578 1583
f 1582 1578 1584
f 1585 1584 1583
f 1581 1580 1586
f 1581 1586 1587
f 1479 1586 1476
f 1476 1586 1580
f 1582 1480 1477
f 1480 1582 1483
f 1483 1582 1584
f 1589 1588 1484
f 1589 1484 1483
f 1585 1589 1483
f 1584 1585 1483
f 1590 1588 1589
f 1587 1586 1591
f 1587 1591 1592
f 1486 1591 1479
f 1479 1591 1586
f 1588 1488 1484
f 1594 1593 1489
f 1594 1489 1488
f 1590 1594 1488
f 1588 1590 1488
f 1595 1593 1594
f 1598 1597 1596
f 1600 1599 1596
f 1600 1596 1597
f 1602 1601 1599
f 1602 1599 1600
f 1601 1602 1592
f 1601 1592 1591
f 1492 1601 1591
f 1491 1492 1591
f 1491 1591 1486
f 1593 1494 1489
f 1604 1603 1495
f 1604 1495 1494
f 1595 1604 1494
f 1593 1595 1494
f 1606 1605 1603
f 1606 1603 1604
f 1608 1607 1605
f 1608 1605 1606
f 1607 1608 1598
f 1596 1607 1598
f 1609 1607 1596
f 1498 1609 1497
f 1609 1599 1497
f 1609 1596 1599
f 1497 1599 1500
f 1500 1599 1601
f 1500 1601 1492
f 1603 1501 1495
f 1501 1603 1502
f 1502 1603 1605
f 1502 1605 1504
f 1504 1605 1607
f 1504 1607 1506
f 1506 1607 1609
f 1506 1609 1498
f 1610 1508 1509
f 1510 1611 1509
f 1509 1611 1610
f 1512 1611 1510
f 1612 1514 1610
f 1610 1514 1508
f 1611 1614 1613
f 1612 1611 1613
f 1610 1611 1612
f 1611 1512 1614
f 1512 1615 1614
f 1512 1516 1615
f 1616 1518 1519
f 1617 1616 1519
f 1617 1519 1514
f 1618 1617 1514
f 1612 1618 1514
f 1618 1612 1613
f 1619 1615 1516
f 1619 1516 1520
f 1520 1522 1619
f 1619 1522 1620
f 1621 1525 1523
f 1622 1621 1523
f 1622 1523 1518
f 1623 1622 1518
f 1616 1623 1518
f 1623 1616 1617
f 1527 1620 1522
f 1527 1624 1620
f 1625 1529 1530
f 1525 1621 1530
f 1621 1625 1530
f 1621 1626 1625
f 1621 1622 1627
f 1628 1621 1627
f 1626 1621 1628
f 1629 1628 1627
f 1532 1624 1527
f 1532 1630 1624
f 1631 1534 1535
f 1529 1625 1535
f 1625 1631 1535
f 1625 1632 1631
f 1633 1625 1626
f 1632 1625 1633
f 1634 1626 1628
f 1633 1626 1634
f 1628 1629 1635
f 1636 1628 1635
f 1634 1628 1636
f 1638 1637 1636
f 1638 1636 1635
f 1639 1637 1638
f 1640 1630 1532
f 1640 1532 1536
f 1641 1536 1537
f 1641 1640 1536
f 1643 1642 1538
f 1642 1537 1538
f 1642 1641 1537
f 1643 1644 1642
f 1631 1539 1534
f 1539 1631 1542
f 1542 1631 1632
f 1542 1632 1543
f 1632 1645 1543
f 1632 1633 1645
f 1634 1647 1646
f 1645 1634 1646
f 1633 1634 1645
f 1649 1648 1647
f 1634 1649 1647
f 1636 1649 1634
f 1650 1636 1637
f 1649 1636 1650
f 1637 1639 1651
f 1637 1651 1650
f 1544 1643 1538
f 1544 1545 1643
f 1545 1644 1643
f 1545 1652 1644
f 1653 1548 1645
f 1645 1548 1543
f 1645 1646 1654
f 1655 1645 1654
f 1653 1645 1655
f 1655 1654 1648
f 1655 1648 1649
f 1551 1655 1649
f 1550 1551 1649
f 1550 1649 1552
f 1649 1656 1552
f 1649 1650 1656
f 1650 1651 1657
f 1658 1650 1657
f 1656 1650 1658
f 1659 1658 1657
f 1660 1652 1545
f 1660 1545 1553
f 1661 1553 1554
f 1661 1660 1553
f 1663 1661 1662
f 1661 1555 1662
f 1661 1554 1555
f 1557 1662 1555
f 1653 1558 1548
f 1558 1653 1560
f 1560 1653 1655
f 1560 1655 1551
f 1656 1562 1552
f 1562 1656 1564
f 1656 1664 1564
f 1656 1658 1664
f 1658 1659 1665
f 1658 1665 1664
f 1666 1663 1662
f 1662 1557 1666
f 1557 1667 1666
f 1557 1565 1667
f 1669 1668 1664
f 1668 1564 1664
f 1668 1569 1564
f 1669 1664 1665
f 1570 1667 1565
f 1570 1670 1667
f 1671 1572 1571
f 1573 1672 1571
f 1571 1672 1671
f 1569 1668 1673
f 1672 1569 1673
f 1674 1672 1673
f 1573 1569 1672
f 1675 1674 1673
f 1570 1574 1676
f 1677 1570 1676
f 1670 1570 1677
f 1576 1676 1574
f 1671 1577 1572
f 1577 1671 1579
f 1671 1678 1579
f 1671 1672 1678
f 1679 1672 1674
f 1678 1672 1679
f 1674 1675 1680
f 1674 1680 1679
f 1677 1676 1681
f 1677 1681 1682
f 1581 1681 1576
f 1576 1681 1676
f 1678 1583 1579
f 1583 1678 1585
f 1678 1683 1585
f 1678 1679 1683
f 1679 1680 1684
f 1679 1684 1683
f 1682 1681 1685
f 1682 1685 1686
f 1587 1685 1581
f 1581 1685 1681
f 1683 1589 1585
f 1688 1687 1590
f 1688 1590 1589
f 1684 1688 1589
f 1683 1684 1589
f 1689 1687 1688
f 1692 1691 1690
f 1694 1693 1690
f 1694 1690 1691
f 1693 1694 1686
f 1685 1693 1686
f 1695 1693 1685
f 1592 1695 1587
f 1587 1695 1685
f 1687 1594 1590
f 1697 1696 1595
f 1697 1595 1594
f 1689 1697 1594
f 1687 1689 1594
f 1699 1698 1696
f 1699 1696 1697
f 1701 1700 1698
f 1701 1698 1699
f 1700 1701 1692
f 1700 1692 1690
f 1598 1700 1690
f 1597 1598 1690
f 1597 1690 1600
f 1600 1690 1693
f 1600 1693 1602
f 1602 1693 1695
f 1602 1695 1592
f 1696 1604 1595
f 1604 1696 1606
f 1606 1696 1698
f 1606 1698 1608
f 1608 1698 1700
f 1608 1700 1598
f 1702 1613 1614
f 1615 1702 1614
f 1703 1617 1618
f 1613 1702 1618
f 1702 1703 1618
f 1702 1704 1703
f 1619 1705 1615
f 1705 1702 1615
f 1705 1704 1702
f 1620 1705 1619
f 1706 1622 1623
f 1617 1703 1623
f 1703 1706 1623
f 1703 1707 1706
f 1704 1709 1708
f 1707 1704 1708
f 1703 1704 1707
f 1709 1704 1705
f 1709 1705 1710
f 1705 1620 1710
f 1620 1711 1710
f 1620 1624 1711
f 1706 1627 1622
f 1627 1706 1629
f 1706 1712 1629
f 1706 1707 1712
f 1707 1708 1713
f 1707 1713 1712
f 1630 1711 1624
f 1630 1714 1711
f 1712 1635 1629
f 1713 1715 1712
f 1715 1635 1712
f 1715 1638 1635
f 1639 1638 1715
f 1639 1715 1716
f 1630 1640 1717
f 1718 1630 1717
f 1714 1630 1718
f 1641 1719 1640
f 1640 1719 1717
f 1642 1720 1641
f 1641 1720 1719
f 1644 1720 1642
f 1721 1646 1647
f 1648 1721 1647
f 1723 1651 1722
f 1651 1716 1722
f 1651 1639 1716
f 1723 1722 1718
f 1717 1723 1718
f 1724 1723 1717
f 1725 1717 1719
f 1724 1717 1725
f 1726 1719 1720
f 1725 1719 1726
f 1652 1726 1644
f 1644 1726 1720
f 1721 1654 1646
f 1654 1721 1648
f 1723 1657 1651
f 1657 1723 1659
f 1723 1727 1659
f 1723 1724 1727
f 1728 1724 1725
f 1727 1724 1728
f 1729 1725 1726
f 1728 1725 1729
f 1660 1730 1652
f 1730 1726 1652
f 1730 1729 1726
f 1661 1731 1660
f 1660 1731 1730
f 1663 1731 1661
f 1732 1665 1727
f 1727 1665 1659
f 1733 1727 1728
f 1732 1727 1733
f 1734 1728 1729
f 1733 1728 1734
f 1735 1729 1730
f 1734 1729 1735
f 1731 1737 1736
f 1735 1731 1736
f 1730 1731 1735
f 1739 1737 1738
f 1738 1737 1666
f 1737 1731 1666
f 1731 1663 1666
f 1667 1738 1666
f 1740 1668 1669
f 1665 1732 1669
f 1732 1740 1669
f 1732 1741 1740
f 1742 1732 1733
f 1741 1732 1742
f 1734 1744 1743
f 1742 1734 1743
f 1733 1734 1742
f 1746 1745 1744
f 1734 1746 1744
f 1735 1746 1734
f 1735 1736 1747
f 1735 1747 1746
f 1739 1738 1748
f 1739 1748 1749
f 1670 1748 1667
f 1667 1748 1738
f 1740 1673 1668
f 1673 1740 1675
f 1740 1750 1675
f 1740 1741 1750
f 1742 1752 1751
f 1750 1742 1751
f 1741 1742 1750
f 1752 1742 1743
f 1753 1745 1746
f 1753 1746 1747
f 1749 1748 1754
f 1749 1754 1755
f 1677 1754 1670
f 1670 1754 1748
f 1756 1680 1750
f 1750 1680 1675
f 1750 1751 1757
f 1750 1757 1756
f 1760 1759 1758
f 1758 1759 1755
f 1754 1758 1755
f 1761 1758 1754
f 1682 1761 1677
f 1677 1761 1754
f 1762 1684 1756
f 1756 1684 1680
f 1756 1757 1763
f 1764 1756 1763
f 1762 1756 1764
f 1766 1765 1764
f 1766 1764 1763
f 1768 1767 1765
f 1768 1765 1766
f 1767 1768 1760
f 1758 1767 1760
f 1769 1767 1758
f 1770 1758 1761
f 1769 1758 1770
f 1686 1770 1682
f 1682 1770 1761
f 1762 1688 1684
f 1688 1762 1689
f 1762 1771 1689
f 1762 1764 1771
f 1772 1764 1765
f 1771 1764 1772
f 1773 1765 1767
f 1772 1765 1773
f 1692 1773 1691
f 1773 1769 1691
f 1773 1767 1769
f 1691 1769 1694
f 1694 1769 1770
f 1694 1770 1686
f 1771 1697 1689
f 1697 1771 1699
f 1699 1771 1772
f 1699 1772 1701
f 1701 1772 1773
f 1701 1773 1692
f 1774 1708 1709
f 1710 1775 1709
f 1709 1775 1774
f 1711 1775 1710
f 1776 1713 1774
f 1774 1713 1708
f 1777 1774 1775
f 1776 1774 1777
f 1714 1777 1711
f 1711 1777 1775
f 1776 1715 1713
f 1715 1776 1716
f 1776 1778 1716
f 1776 1777 1778
f 1718 1778 1714
f 1714 1778 1777
f 1778 1722 1716
f 1722 1778 1718
f 1779 1736 1737
f 1739 1779 1737
f 1780 1743 1744
f 1745 1780 1744
f 1781 1747 1779
f 1779 1747 1736
f 1749 1781 1739
f 1739 1781 1779
f 1782 1751 1752
f 1743 1780 1752
f 1780 1782 1752
f 1780 1783 1782
f 1753 1784 1745
f 1784 1780 1745
f 1784 1783 1780
f 1747 1781 1753
f 1781 1784 1753
f 1781 1785 1784
f 1755 1785 1749
f 1749 1785 1781
f 1786 1757 1782
f 1782 1757 1751
f 1787 1782 1783
f 1786 1782 1787
f 1788 1783 1784
f 1787 1783 1788
f 1760 1788 1759
f 1788 1785 1759
f 1788 1784 1785
f 1759 1785 1755
f 1786 1763 1757
f 1763 1786 1766
f 1766 1786 1787
f 1766 1787 1768
f 1768 1787 1788
f 1768 1788 1760
