v -45.0 -29.0 -18.0
v -45.0 -29.0 -18.0
v -45.0 -29.0 -18.0
v -45.0 -29.0 -18.0
v -45.2 -28.0 -18.0
v -45.0 -28.0 -18.3
v -45.0 -28.0 -17.8
v -45.0 -27.1 -18.0
v -44.1 -31.0 -18.0
v -44.0 -31.0 -18.1
v -44.0 -31.1 -18.0
v -44.0 -31.0 -17.9
v -44.2 -30.0 -20.0
v -44.0 -30.0 -20.3
v -44.0 -30.2 -20.0
v -44.0 -30.6 -19.0
v -44.4 -30.0 -19.0
v -44.4 -30.0 -18.0
v -44.0 -30.0 -17.6
v -44.7 -29.0 -21.0
v -44.0 -29.0 -21.4
v -44.0 -29.4 -21.0
v -44.6 -29.0 -20.0
v -44.6 -29.0 -19.0
v -44.0 -29.0 -17.4
v -44.2 -28.0 -23.0
v -44.0 -28.0 -23.2
v -44.0 -28.2 -23.0
v -44.0 -28.5 -22.0
v -44.4 -28.0 -22.0
v -44.6 -28.0 -21.0
v -44.5 -28.0 -20.0
v -44.6 -28.0 -19.0
v -44.0 -28.0 -17.4
v -44.2 -27.0 -23.0
v -44.0 -27.0 -23.2
v -44.4 -27.0 -22.0
v -44.8 -27.0 -21.0
v -44.6 -27.0 -20.0
v -44.6 -27.0 -19.0
v -45.0 -27.0 -18.0
v -44.0 -27.0 -17.5
v -44.0 -26.8 -23.0
v -44.0 -26.5 -22.0
v -44.0 -26.3 -21.0
v -44.3 -26.0 -20.0
v -44.0 -26.0 -20.6
v -44.4 -26.0 -19.0
v -44.0 -26.0 -18.4
v -44.0 -26.4 -18.0
v -44.0 -25.5 -20.0
v -44.1 -25.0 -19.0
v -44.0 -25.0 -19.1
v -44.0 -25.0 -18.9
v -44.0 -24.9 -19.0
v -43.1 -32.0 -18.0
v -43.0 -32.0 -18.1
v -43.0 -32.1 -18.0
v -43.0 -32.0 -17.8
v -43.5 -31.0 -19.0
v -43.0 -31.0 -19.4
v -43.0 -31.4 -19.0
v -43.0 -31.0 -17.3
v -43.0 -30.0 -20.4
v -43.0 -30.4 -20.0
v -43.0 -30.6 -17.0
v -43.4 -30.0 -17.0
v -43.0 -30.0 -16.6
v -43.0 -29.0 -21.4
v -43.0 -29.4 -21.0
v -43.5 -29.0 -17.0
v -43.0 -29.0 -16.5
v -43.0 -28.0 -23.3
v -43.0 -28.3 -23.0
v -43.0 -28.6 -22.0
v -43.5 -28.0 -17.0
v -43.0 -28.0 -16.5
v -43.0 -27.0 -23.4
v -43.3 -27.0 -17.0
v -43.0 -27.0 -16.7
v -43.0 -26.4 -23.0
v -43.4 -26.0 -22.0
v -43.0 -26.0 -22.5
v -43.7 -26.0 -21.0
v -43.6 -26.0 -18.0
v -43.0 -26.0 -17.5
v -43.0 -26.7 -17.0
v -43.0 -25.5 -22.0
v -43.3 -25.0 -21.0
v -43.0 -25.0 -21.5
v -43.7 -25.0 -20.0
v -43.3 -25.0 -18.0
v -43.0 -25.0 -17.8
v -43.0 -24.5 -21.0
v -43.3 -24.0 -20.0
v -43.0 -24.0 -20.5
v -43.0 -24.3 -19.0
v -43.0 -24.0 -19.4
v -43.0 -24.7 -18.0
v -43.1 -23.0 -20.0
v -43.0 -23.0 -20.1
v -43.0 -23.0 -19.9
v -43.0 -22.9 -20.0
v -42.1 -34.0 -15.0
v -42.0 -34.0 -15.1
v -42.0 -34.1 -15.0
v -42.0 -34.0 -14.9
v -42.3 -33.0 -18.0
v -42.0 -33.0 -18.4
v -42.0 -33.4 -18.0
v -42.0 -33.5 -17.0
v -42.4 -33.0 -17.0
v -42.0 -33.6 -16.0
v -42.4 -33.0 -16.0
v -42.2 -33.0 -15.0
v -42.0 -33.0 -14.8
v -42.0 -32.0 -18.7
v -42.6 -32.0 -17.0
v -42.4 -32.0 -16.0
v -42.0 -32.0 -15.6
v -42.0 -32.8 -15.0
v -42.0 -31.0 -19.4
v -42.0 -31.7 -19.0
v -42.8 -31.0 -17.0
v -42.4 -31.0 -16.0
v -42.0 -31.0 -15.6
v -42.3 -30.0 -20.0
v -42.0 -30.0 -19.9
v -42.4 -30.0 -16.0
v -42.0 -30.0 -15.6
v -42.3 -29.0 -21.0
v -42.0 -29.0 -20.8
v -42.0 -29.8 -20.0
v -42.5 -29.0 -16.0
v -42.0 -29.0 -15.6
v -42.0 -28.0 -23.3
v -42.0 -28.2 -23.0
v -42.0 -28.5 -22.0
v -42.0 -28.9 -21.0
v -42.3 -28.0 -16.0
v -42.0 -28.0 -15.8
v -42.0 -27.0 -23.6
v -42.0 -27.7 -16.0
v -42.0 -27.0 -16.5
v -42.6 -26.0 -23.0
v -42.0 -26.0 -23.5
v -42.0 -26.5 -17.0
v -42.0 -26.0 -17.4
v -42.4 -25.0 -23.0
v -42.0 -25.0 -23.4
v -42.7 -25.0 -22.0
v -42.0 -25.0 -17.5
v -42.4 -24.0 -23.0
v -42.0 -24.0 -23.4
v -42.5 -24.0 -22.0
v -42.7 -24.0 -21.0
v -42.8 -24.0 -19.0
v -42.3 -24.0 -18.0
v -42.0 -24.0 -17.8
v -42.3 -23.0 -23.0
v -42.0 -23.0 -23.3
v -42.5 -23.0 -22.0
v -42.7 -23.0 -21.0
v -42.3 -23.0 -19.0
v -42.0 -23.0 -18.7
v -42.0 -23.7 -18.0
v -42.0 -22.6 -23.0
v -42.3 -22.0 -22.0
v -42.0 -22.0 -22.4
v -42.7 -22.0 -21.0
v -42.0 -22.3 -20.0
v -42.0 -22.0 -20.4
v -42.0 -22.7 -19.0
v -42.0 -21.7 -22.0
v -42.0 -21.6 -21.0
v -41.2 -35.0 -18.0
v -41.0 -35.0 -18.3
v -41.0 -35.2 -18.0
v -41.0 -35.3 -17.0
v -41.3 -35.0 -17.0
v -41.0 -35.4 -16.0
v -41.4 -35.0 -16.0
v -41.0 -35.2 -15.0
v -41.2 -35.0 -15.0
v -41.0 -35.0 -14.8
v -41.2 -34.0 -19.0
v -41.0 -34.0 -19.2
v -41.0 -34.3 -19.0
v -41.6 -34.0 -18.0
v -41.6 -34.0 -17.0
v -41.7 -34.0 -16.0
v -41.0 -34.0 -14.5
v -41.5 -33.0 -19.0
v -41.0 -33.0 -19.4
v -41.0 -33.0 -14.6
v -41.7 -32.0 -19.0
v -41.0 -32.0 -19.4
v -41.0 -32.5 -15.0
v -41.0 -32.0 -15.4
v -41.0 -31.0 -19.7
v -41.0 -31.0 -15.5
v -41.8 -30.0 -20.0
v -41.0 -30.0 -20.5
v -41.0 -30.6 -20.0
v -41.0 -30.0 -15.5
v -41.8 -29.0 -21.0
v -41.0 -29.0 -21.5
v -41.0 -29.5 -21.0
v -41.0 -29.0 -15.5
v -41.5 -28.0 -23.0
v -41.0 -28.0 -22.7
v -41.0 -28.6 -22.0
v -41.0 -28.0 -15.7
v -41.3 -27.0 -24.0
v -41.0 -27.0 -24.2
v -41.0 -27.2 -24.0
v -41.0 -27.7 -23.0
v -41.0 -27.7 -16.0
v -41.0 -27.0 -16.6
v -41.4 -26.0 -24.0
v -41.0 -26.0 -24.3
v -41.0 -26.6 -17.0
v -41.0 -26.0 -17.4
v -41.0 -25.3 -24.0
v -41.0 -25.0 -23.8
v -41.0 -25.0 -17.4
v -41.4 -24.0 -24.0
v -41.0 -24.0 -24.3
v -41.0 -24.7 -24.0
v -41.0 -24.0 -17.6
v -41.3 -23.0 -24.0
v -41.0 -23.0 -24.2
v -41.0 -23.5 -18.0
v -41.0 -23.0 -18.5
v -41.0 -22.7 -24.0
v -41.4 -22.0 -23.0
v -41.0 -22.0 -23.3
v -41.5 -22.0 -20.0
v -41.0 -22.0 -19.6
v -41.0 -22.5 -19.0
v -41.0 -21.7 -23.0
v -41.0 -21.4 -22.0
v -41.0 -21.5 -21.0
v -41.0 -21.7 -20.0
v -40.0 -35.0 -18.6
v -40.0 -35.5 -18.0
v -40.0 -35.6 -17.0
v -40.0 -35.6 -16.0
v -40.0 -35.4 -15.0
v -40.0 -35.0 -14.6
v -40.0 -34.0 -19.6
v -40.0 -34.7 -19.0
v -40.0 -34.0 -14.4
v -40.2 -33.0 -20.0
v -40.0 -33.0 -20.1
v -40.0 -33.2 -20.0
v -40.0 -33.0 -14.6
v -40.0 -32.7 -20.0
v -40.0 -32.0 -19.7
v -40.0 -32.5 -15.0
v -40.0 -32.0 -15.4
v -40.0 -31.0 -21.0
v -40.0 -31.0 -21.0
v -40.0 -31.0 -21.0
v -40.0 -31.7 -20.0
v -40.6 -31.0 -20.0
v -40.0 -31.0 -15.5
v -40.6 -30.0 -21.0
v -40.0 -30.0 -21.6
v -40.0 -30.0 -15.6
v -40.5 -29.0 -22.0
v -40.0 -29.0 -22.3
v -40.0 -29.5 -22.0
v -40.0 -29.0 -15.8
v -40.0 -28.0 -22.7
v -40.6 -28.0 -16.0
v -40.0 -28.6 -16.0
v -40.0 -28.0 -16.7
v -40.0 -27.0 -24.4
v -40.0 -27.4 -24.0
v -40.0 -27.8 -23.0
v -40.6 -27.0 -17.0
v -40.0 -27.7 -17.0
v -40.0 -27.0 -17.6
v -40.0 -26.0 -24.5
v -40.0 -26.0 -17.6
v -40.8 -25.0 -24.0
v -40.0 -25.0 -24.4
v -40.0 -25.0 -17.2
v -40.0 -24.0 -24.5
v -40.0 -24.0 -17.7
v -40.0 -23.0 -24.4
v -40.0 -23.7 -18.0
v -40.0 -23.0 -18.6
v -40.0 -22.5 -24.0
v -40.0 -22.0 -23.5
v -40.0 -22.6 -19.0
v -40.0 -22.0 -19.7
v -40.0 -21.6 -23.0
v -40.0 -21.2 -22.0
v -40.0 -21.5 -21.0
v -40.0 -21.8 -20.0
v -39.3 -36.0 -18.0
v -39.0 -36.0 -18.9
v -39.0 -36.2 -18.0
v -39.0 -36.3 -17.0
v -39.4 -36.0 -17.0
v -39.0 -36.1 -16.0
v -39.2 -36.0 -16.0
v -39.0 -36.0 -15.8
v -39.6 -35.0 -19.0
v -39.0 -35.0 -19.5
v -39.0 -36.0 -19.0
v -39.0 -35.6 -15.0
v -39.0 -35.2 -14.0
v -39.3 -35.0 -14.0
v -39.0 -35.0 -13.7
v -39.4 -34.0 -20.0
v -39.0 -34.0 -20.3
v -39.0 -34.3 -20.0
v -39.3 -34.0 -14.0
v -39.0 -34.0 -13.7
v -39.0 -33.0 -20.4
v -39.0 -33.7 -14.0
v -39.0 -33.0 -14.5
v -39.0 -32.1 -20.0
v -39.0 -32.0 -19.9
v -39.0 -32.5 -15.0
v -39.0 -32.0 -15.5
v -39.9 -31.0 -21.0
v -39.0 -31.0 -20.8
v -39.0 -31.9 -20.0
v -39.0 -31.0 -15.7
v -39.2 -30.0 -22.0
v -39.0 -30.0 -22.1
v -39.0 -30.1 -22.0
v -39.0 -30.8 -21.0
v -39.4 -30.0 -16.0
v -39.0 -30.6 -16.0
v -39.0 -30.0 -16.4
v -39.0 -29.0 -22.6
v -39.3 -29.0 -18.0
v -39.0 -29.3 -18.0
v -39.0 -29.0 -18.4
v -39.4 -29.0 -17.0
v -39.0 -29.5 -17.0
v -39.7 -29.0 -16.0
v -39.6 -28.0 -23.0
v -39.0 -28.0 -23.4
v -39.0 -28.4 -23.0
v -39.3 -28.0 -19.0
v -39.0 -28.4 -19.0
v -39.0 -28.0 -19.3
v -39.9 -28.0 -18.0
v -39.8 -28.0 -17.0
v -39.0 -27.0 -24.3
v -39.0 -27.3 -24.0
v -39.5 -27.0 -19.0
v -39.0 -27.0 -19.4
v -39.7 -27.0 -18.0
v -39.0 -26.0 -24.5
v -39.7 -26.0 -19.0
v -39.0 -26.0 -19.4
v -39.7 -26.0 -18.0
v -39.0 -25.0 -24.5
v -39.0 -25.4 -19.0
v -39.0 -25.0 -18.6
v -39.5 -25.0 -18.0
v -39.0 -24.0 -24.6
v -39.7 -24.0 -18.0
v -39.0 -24.0 -18.6
v -39.0 -23.0 -24.4
v -39.5 -23.0 -19.0
v -39.0 -23.5 -19.0
v -39.0 -23.0 -19.4
v -39.0 -22.4 -24.0
v -39.0 -22.0 -23.5
v -39.3 -22.0 -22.0
v -39.0 -22.2 -22.0
v -39.0 -22.0 -22.4
v -39.5 -22.0 -21.0
v -39.0 -22.4 -21.0
v -39.7 -22.0 -20.0
v -39.0 -22.5 -20.0
v -39.0 -21.7 -23.0
v -38.6 -36.0 -18.0
v -38.0 -36.0 -17.2
v -38.0 -36.1 -17.0
v -38.8 -36.0 -16.0
v -38.0 -36.0 -16.8
v -38.0 -35.0 -19.4
v -38.0 -35.3 -19.0
v -38.0 -35.6 -18.0
v -38.0 -35.5 -16.0
v -38.0 -35.4 -15.0
v -38.0 -35.3 -14.0
v -38.0 -35.0 -13.1
v -38.0 -34.0 -20.5
v -38.0 -34.5 -20.0
v -38.0 -34.0 -13.6
v -38.0 -33.0 -20.6
v -38.0 -33.6 -14.0
v -38.0 -33.0 -14.7
v -38.9 -32.0 -20.0
v -38.0 -32.0 -20.5
v -38.4 -32.0 -16.0
v -38.0 -32.4 -16.0
v -38.0 -32.0 -16.4
v -38.0 -32.8 -15.0
v -38.4 -31.0 -21.0
v -38.0 -31.0 -21.1
v -38.0 -31.2 -21.0
v -38.2 -31.0 -17.0
v -38.0 -31.3 -17.0
v -38.0 -31.0 -17.2
v -38.7 -31.0 -16.0
v -38.8 -30.0 -22.0
v -38.0 -30.0 -21.6
v -38.2 -30.0 -18.0
v -38.0 -30.2 -18.0
v -38.0 -30.0 -18.2
v -38.2 -30.0 -17.0
v -38.0 -29.0 -22.5
v -38.0 -29.5 -22.0
v -38.4 -29.0 -19.0
v -38.0 -29.4 -19.0
v -38.0 -29.0 -19.4
v -38.0 -28.0 -23.3
v -38.0 -28.4 -23.0
v -38.0 -28.0 -19.7
v -38.5 -27.0 -24.0
v -38.0 -27.0 -23.7
v -38.0 -27.0 -20.0
v -38.0 -26.0 -24.4
v -38.0 -26.6 -24.0
v -38.0 -26.0 -19.6
v -38.0 -25.0 -24.6
v -38.6 -25.0 -19.0
v -38.0 -25.0 -19.5
v -38.1 -24.0 -25.0
v -38.0 -24.0 -25.1
v -38.0 -24.1 -25.0
v -38.6 -24.0 -19.0
v -38.0 -24.0 -19.5
v -38.0 -23.9 -25.0
v -38.0 -23.0 -24.6
v -38.0 -23.0 -19.8
v -38.4 -22.0 -24.0
v -38.0 -22.0 -24.2
v -38.0 -22.2 -22.0
v -38.0 -22.0 -22.4
v -38.0 -22.4 -21.0
v -38.0 -22.8 -20.0
v -38.0 -21.8 -24.0
v -38.0 -21.6 -23.0
v -37.9 -36.0 -17.0
v -37.6 -35.0 -19.0
v -37.5 -35.0 -18.0
v -37.5 -35.0 -17.0
v -37.6 -35.0 -16.0
v -37.6 -35.0 -15.0
v -37.6 -35.0 -14.0
v -37.3 -34.0 -21.0
v -37.0 -34.0 -21.3
v -37.0 -34.2 -21.0
v -37.0 -34.5 -20.0
v -37.0 -34.6 -19.0
v -37.0 -34.4 -18.0
v -37.0 -34.0 -17.5
v -37.3 -34.0 -17.0
v -37.5 -34.0 -16.0
v -37.5 -34.0 -15.0
v -37.3 -34.0 -14.0
v -37.2 -33.0 -22.0
v -37.0 -33.0 -22.2
v -37.0 -33.2 -22.0
v -37.5 -33.0 -21.0
v -37.0 -33.3 -17.0
v -37.0 -33.0 -16.8
v -37.5 -33.0 -16.0
v -37.8 -33.0 -15.0
v -37.1 -32.0 -22.0
v -37.0 -32.0 -22.1
v -37.0 -32.0 -21.8
v -37.0 -32.3 -21.0
v -37.0 -32.0 -20.7
v -37.5 -32.0 -17.0
v -37.0 -32.7 -17.0
v -37.0 -32.0 -17.4
v -37.0 -31.9 -22.0
v -37.8 -31.0 -21.0
v -37.0 -31.0 -20.5
v -37.0 -31.0 -17.8
v -37.5 -30.0 -21.0
v -37.0 -30.0 -20.3
v -37.0 -30.7 -18.0
v -37.0 -30.0 -18.7
v -37.5 -29.0 -22.0
v -37.4 -29.0 -21.0
v -37.0 -29.7 -20.0
v -37.5 -29.0 -20.0
v -37.0 -29.8 -19.0
v -37.4 -28.0 -23.0
v -37.0 -28.0 -22.6
v -37.0 -28.5 -22.0
v -37.0 -28.5 -21.0
v -37.0 -28.0 -20.4
v -37.5 -28.0 -20.0
v -37.0 -27.0 -23.5
v -37.0 -27.7 -23.0
v -37.0 -27.5 -20.0
v -37.0 -27.0 -19.7
v -37.0 -26.0 -24.4
v -37.0 -26.5 -24.0
v -37.0 -26.0 -19.6
v -37.0 -25.0 -24.6
v -37.2 -25.0 -20.0
v -37.0 -25.2 -20.0
v -37.0 -25.0 -20.1
v -37.0 -24.0 -25.1
v -37.0 -24.1 -25.0
v -37.5 -24.0 -20.0
v -37.0 -24.0 -20.4
v -37.0 -23.9 -25.0
v -37.0 -23.0 -24.6
v -37.7 -23.0 -20.0
v -37.0 -23.0 -20.4
v -37.0 -22.0 -24.3
v -37.6 -22.0 -22.0
v -37.1 -22.0 -21.0
v -37.0 -22.0 -20.9
v -37.0 -21.7 -24.0
v -37.0 -21.5 -23.0
v -37.0 -21.6 -22.0
v -37.0 -21.9 -21.0
v -36.0 -34.0 -21.6
v -36.0 -34.4 -21.0
v -36.0 -34.5 -20.0
v -36.0 -34.1 -19.0
v -36.6 -34.0 -18.0
v -36.0 -34.0 -18.9
v -36.0 -33.0 -22.5
v -36.0 -33.6 -22.0
v -36.2 -33.0 -19.0
v -36.0 -33.7 -19.0
v -36.0 -33.0 -19.3
v -36.5 -33.0 -18.0
v -36.9 -33.0 -17.0
v -36.3 -32.0 -23.0
v -36.0 -32.0 -23.2
v -36.0 -32.3 -23.0
v -36.1 -32.0 -21.0
v -36.4 -32.0 -19.0
v -36.0 -32.0 -19.6
v -36.6 -32.0 -18.0
v -36.3 -31.0 -23.0
v -36.0 -31.0 -23.3
v -36.4 -31.0 -22.0
v -36.0 -31.0 -21.6
v -36.0 -31.9 -21.0
v -36.0 -31.5 -20.0
v -36.4 -31.0 -20.0
v -36.5 -31.0 -19.0
v -36.8 -31.0 -18.0
v -36.1 -30.0 -23.0
v -36.0 -30.0 -23.1
v -36.0 -30.0 -22.8
v -36.0 -30.6 -22.0
v -36.7 -30.0 -20.0
v -36.8 -30.0 -19.0
v -36.0 -29.9 -23.0
v -36.4 -28.0 -22.0
v -36.0 -28.0 -21.1
v -36.0 -28.1 -21.0
v -36.0 -28.0 -20.9
v -36.0 -27.0 -23.3
v -36.0 -27.4 -23.0
v -36.0 -27.6 -22.0
v -36.0 -27.3 -20.0
v -36.0 -27.0 -19.8
v -36.0 -26.0 -24.2
v -36.0 -26.3 -24.0
v -36.0 -26.0 -19.5
v -36.0 -25.0 -24.4
v -36.8 -25.0 -20.0
v -36.0 -25.0 -19.7
v -36.9 -24.0 -25.0
v -36.0 -24.0 -24.5
v -36.0 -24.5 -20.0
v -36.0 -24.0 -20.3
v -36.0 -23.0 -24.4
v -36.0 -23.0 -20.6
v -36.0 -22.0 -24.2
v -36.8 -22.0 -21.0
v -36.0 -22.3 -21.0
v -36.0 -22.0 -21.3
v -36.0 -21.8 -24.0
v -36.0 -21.6 -23.0
v -36.0 -21.6 -22.0
v -35.1 -34.0 -22.0
v -35.0 -34.0 -22.1
v -35.0 -34.1 -22.0
v -35.0 -34.4 -21.0
v -35.0 -34.2 -20.0
v -35.9 -34.0 -19.0
v -35.0 -34.0 -19.7
v -35.0 -33.0 -22.5
v -35.0 -33.0 -19.5
v -35.0 -32.0 -23.3
v -35.0 -32.3 -23.0
v -35.0 -32.0 -19.6
v -35.0 -31.0 -23.6
v -35.5 -31.0 -21.0
v -35.0 -31.0 -20.0
v -35.0 -31.0 -20.0
v -35.0 -30.0 -23.6
v -35.3 -30.0 -22.0
v -35.0 -30.0 -21.8
v -35.0 -30.6 -21.0
v -35.0 -31.0 -20.0
v -35.3 -29.0 -23.0
v -35.0 -29.0 -23.3
v -35.0 -29.0 -22.8
v -35.0 -29.8 -22.0
v -35.0 -28.5 -23.0
v -35.9 -28.0 -21.0
v -35.6 -27.0 -23.0
v -35.5 -27.0 -22.0
v -35.4 -27.0 -21.0
v -35.7 -27.0 -20.0
v -35.7 -26.0 -24.0
v -35.0 -26.0 -23.3
v -35.0 -26.4 -23.0
v -35.0 -26.5 -22.0
v -35.0 -26.5 -21.0
v -35.0 -26.5 -20.0
v -35.0 -26.0 -19.5
v -35.4 -25.0 -24.0
v -35.0 -25.0 -23.6
v -35.0 -25.0 -19.4
v -35.0 -24.0 -24.1
v -35.0 -24.2 -24.0
v -35.5 -24.0 -20.0
v -35.0 -24.0 -19.7
v -35.0 -23.8 -24.0
v -35.4 -23.0 -24.0
v -35.0 -23.0 -23.6
v -35.0 -23.5 -20.0
v -35.0 -23.0 -20.3
v -35.8 -22.0 -24.0
v -35.0 -22.4 -23.0
v -35.4 -22.0 -23.0
v -35.0 -22.0 -22.6
v -35.3 -22.0 -21.0
v -35.0 -22.0 -20.9
v -35.0 -21.6 -22.0
v -35.0 -21.9 -21.0
v -34.9 -34.0 -22.0
v -34.6 -34.0 -21.0
v -34.7 -34.0 -20.0
v -34.0 -33.0 -22.1
v -34.0 -33.1 -22.0
v -34.0 -33.4 -21.0
v -34.0 -33.1 -20.0
v -34.0 -33.0 -19.9
v -34.7 -32.0 -23.0
v -34.0 -32.8 -22.0
v -34.3 -32.0 -22.0
v -34.0 -32.0 -21.5
v -34.5 -32.0 -20.0
v -34.0 -32.9 -20.0
v -34.0 -32.0 -20.6
v -34.0 -31.0 -24.0
v -34.0 -31.0 -24.0
v -34.0 -31.0 -24.0
v -34.0 -31.3 -23.0
v -34.0 -31.0 -22.6
v -34.3 -31.0 -22.0
v -34.0 -31.0 -21.1
v -35.0 -31.0 -20.0
v -34.0 -31.0 -21.0
v -34.4 -30.0 -24.0
v -34.0 -30.0 -24.6
v -34.8 -30.0 -22.0
v -34.0 -30.0 -22.6
v -34.0 -31.0 -21.0
v -34.0 -29.0 -24.0
v -34.0 -29.0 -24.0
v -34.0 -29.0 -22.8
v -34.0 -29.0 -24.0
v -34.0 -28.8 -23.0
v -34.8 -26.0 -23.0
v -34.6 -26.0 -22.0
v -34.4 -26.0 -21.0
v -34.0 -26.0 -20.3
v -34.0 -26.2 -20.0
v -34.0 -26.0 -19.2
v -34.6 -25.0 -23.0
v -34.3 -25.0 -22.0
v -34.0 -25.0 -21.6
v -34.0 -25.5 -21.0
v -34.0 -25.2 -19.0
v -34.0 -25.0 -19.0
v -34.0 -25.0 -19.0
v -34.9 -24.0 -24.0
v -34.2 -24.0 -23.0
v -34.0 -24.0 -22.8
v -34.0 -24.7 -22.0
v -34.0 -25.0 -19.0
v -34.0 -24.0 -19.6
v -34.0 -23.5 -23.0
v -34.0 -23.0 -23.2
v -34.1 -23.0 -20.0
v -34.0 -23.0 -19.9
v -34.0 -22.8 -23.0
v -34.0 -22.0 -22.1
v -34.8 -22.0 -21.0
v -34.0 -22.4 -21.0
v -34.0 -22.0 -21.8
v -34.0 -22.9 -20.0
v -34.0 -21.9 -22.0
v -33.9 -33.0 -22.0
v -33.7 -33.0 -21.0
v -33.9 -33.0 -20.0
v -33.7 -32.0 -21.0
v -34.0 -31.0 -24.0
v -33.8 -31.0 -23.0
v -34.0 -31.0 -21.0
v -33.7 -30.0 -24.0
v -33.7 -30.0 -23.0
v -34.0 -29.0 -24.0
v -33.8 -29.0 -23.0
v -33.8 -26.0 -20.0
v -33.6 -25.0 -21.0
v -33.5 -25.0 -20.0
v -34.0 -25.0 -19.0
v -33.0 -24.0 -22.7
v -33.0 -24.3 -22.0
v -33.0 -24.3 -21.0
v -33.0 -24.0 -20.7
v -33.6 -24.0 -20.0
v -33.8 -23.0 -23.0
v -33.0 -23.0 -22.4
v -33.9 -23.0 -20.0
v -33.0 -23.0 -20.7
v -33.9 -22.0 -22.0
v -33.0 -22.7 -22.0
v -33.0 -22.8 -21.0
v -32.7 -24.0 -22.0
v -32.8 -24.0 -21.0
v -32.7 -23.0 -22.0
v -32.8 -23.0 -21.0
f 3 2 1
f 1 4 3
f 1 2 5
f 5 2 6
f 4 1 7
f 7 1 5
f 6 8 5
f 5 8 7
f 11 10 9
f 9 12 11
f 15 14 13
f 17 16 13
f 13 16 15
f 16 17 10
f 17 9 10
f 17 18 9
f 12 9 19
f 19 9 18
f 22 21 20
f 22 20 14
f 20 13 14
f 20 23 13
f 13 24 17
f 13 23 24
f 24 2 3
f 18 24 3
f 17 24 18
f 3 4 18
f 4 19 18
f 4 25 19
f 28 27 26
f 30 29 26
f 26 29 28
f 29 30 21
f 30 20 21
f 30 31 20
f 20 32 23
f 20 31 32
f 23 33 24
f 23 32 33
f 33 6 2
f 33 2 24
f 7 25 4
f 7 34 25
f 26 27 35
f 35 27 36
f 26 37 30
f 26 35 37
f 30 38 31
f 30 37 38
f 31 39 32
f 31 38 39
f 32 40 33
f 32 39 40
f 41 8 6
f 33 41 6
f 40 41 33
f 41 42 8
f 42 7 8
f 42 34 7
f 36 43 35
f 35 43 37
f 37 43 44
f 37 44 38
f 38 44 45
f 47 46 45
f 46 38 45
f 46 39 38
f 39 48 40
f 39 46 48
f 50 41 49
f 41 48 49
f 41 40 48
f 41 50 42
f 47 51 46
f 53 52 51
f 52 46 51
f 52 48 46
f 49 48 54
f 54 48 52
f 53 55 52
f 52 55 54
f 58 57 56
f 56 59 58
f 62 61 60
f 62 60 57
f 57 60 56
f 60 10 56
f 10 11 56
f 11 12 56
f 12 59 56
f 12 63 59
f 65 64 15
f 15 64 14
f 16 60 61
f 65 16 61
f 15 16 65
f 60 16 10
f 19 67 66
f 63 19 66
f 12 19 63
f 67 68 66
f 70 69 22
f 22 69 21
f 22 14 64
f 22 64 70
f 25 71 67
f 25 67 19
f 68 67 72
f 72 67 71
f 74 73 28
f 28 73 27
f 75 28 29
f 75 74 28
f 29 21 69
f 29 69 75
f 34 76 71
f 34 71 25
f 72 71 77
f 77 71 76
f 73 36 27
f 78 36 73
f 42 79 76
f 42 76 34
f 77 76 80
f 80 76 79
f 78 81 36
f 36 81 43
f 81 83 82
f 44 81 82
f 43 81 44
f 84 45 44
f 84 44 82
f 84 47 45
f 49 85 50
f 85 86 50
f 50 86 42
f 86 87 42
f 87 79 42
f 79 87 80
f 83 88 82
f 90 89 88
f 89 82 88
f 89 84 82
f 91 51 47
f 84 91 47
f 89 91 84
f 91 53 51
f 54 92 85
f 54 85 49
f 86 85 93
f 93 85 92
f 90 94 89
f 96 95 94
f 95 89 94
f 95 91 89
f 91 95 53
f 95 97 53
f 97 55 53
f 95 98 97
f 54 55 92
f 55 99 92
f 55 97 99
f 92 99 93
f 95 96 100
f 100 96 101
f 98 95 102
f 102 95 100
f 101 103 100
f 100 103 102
f 106 105 104
f 104 107 106
f 110 109 108
f 112 111 108
f 108 111 110
f 114 113 112
f 112 113 111
f 113 114 105
f 114 104 105
f 114 115 104
f 107 104 116
f 116 104 115
f 108 109 58
f 109 57 58
f 109 117 57
f 108 58 59
f 118 108 59
f 112 108 118
f 112 119 114
f 112 118 119
f 121 115 120
f 115 119 120
f 115 114 119
f 115 121 116
f 123 122 62
f 62 122 61
f 62 57 117
f 62 117 123
f 63 124 118
f 63 118 59
f 118 125 119
f 118 124 125
f 120 119 126
f 126 119 125
f 127 64 65
f 128 127 65
f 61 128 65
f 122 128 61
f 66 124 63
f 124 66 68
f 129 124 68
f 125 124 129
f 126 125 130
f 130 125 129
f 131 69 70
f 132 131 70
f 132 70 64
f 133 132 64
f 127 133 64
f 133 127 128
f 72 134 129
f 72 129 68
f 130 129 135
f 135 129 134
f 137 136 74
f 74 136 73
f 138 74 75
f 138 137 74
f 75 69 131
f 139 75 131
f 138 75 139
f 139 131 132
f 77 140 134
f 77 134 72
f 135 134 141
f 141 134 140
f 136 78 73
f 142 78 136
f 144 143 140
f 77 144 140
f 80 144 77
f 140 143 141
f 81 78 145
f 78 146 145
f 78 142 146
f 145 83 81
f 148 147 87
f 148 87 86
f 80 87 144
f 144 87 147
f 145 146 149
f 149 146 150
f 151 88 83
f 145 151 83
f 149 151 145
f 151 90 88
f 93 148 86
f 93 152 148
f 149 150 153
f 153 150 154
f 149 155 151
f 149 153 155
f 156 94 90
f 151 156 90
f 155 156 151
f 156 96 94
f 98 157 97
f 158 99 97
f 158 97 157
f 158 159 99
f 159 93 99
f 159 152 93
f 153 154 160
f 160 154 161
f 153 162 155
f 153 160 162
f 155 163 156
f 155 162 163
f 163 101 96
f 163 96 156
f 102 164 157
f 102 157 98
f 166 158 165
f 158 164 165
f 158 157 164
f 158 166 159
f 161 167 160
f 169 168 167
f 168 160 167
f 168 162 160
f 162 170 163
f 162 168 170
f 163 170 101
f 170 171 101
f 171 103 101
f 170 172 171
f 102 103 164
f 103 173 164
f 103 171 173
f 164 173 165
f 169 174 168
f 168 174 170
f 170 174 175
f 170 175 172
f 178 177 176
f 180 179 176
f 176 179 178
f 182 181 180
f 180 181 179
f 184 183 182
f 182 183 181
f 184 185 183
f 188 187 186
f 188 186 177
f 186 176 177
f 186 189 176
f 176 190 180
f 176 189 190
f 180 191 182
f 180 190 191
f 191 105 106
f 184 191 106
f 182 191 184
f 106 107 184
f 107 185 184
f 107 192 185
f 186 187 193
f 193 187 194
f 193 109 110
f 189 193 110
f 186 193 189
f 189 110 111
f 189 111 190
f 190 111 113
f 190 113 191
f 191 113 105
f 116 192 107
f 116 195 192
f 193 194 196
f 196 194 197
f 196 117 109
f 196 109 193
f 199 198 121
f 199 121 120
f 116 121 195
f 195 121 198
f 196 197 123
f 197 122 123
f 197 200 122
f 196 123 117
f 126 199 120
f 126 201 199
f 204 203 202
f 200 204 202
f 128 200 202
f 122 200 128
f 130 201 126
f 130 205 201
f 208 207 206
f 208 206 203
f 203 206 202
f 206 132 202
f 132 133 202
f 202 133 128
f 135 205 130
f 135 209 205
f 210 136 137
f 210 137 211
f 137 212 211
f 137 138 212
f 139 206 207
f 212 139 207
f 138 139 212
f 206 139 132
f 141 209 135
f 141 213 209
f 216 215 214
f 217 216 210
f 216 142 210
f 142 136 210
f 216 214 142
f 217 210 211
f 219 218 143
f 219 143 144
f 141 143 213
f 213 143 218
f 214 215 220
f 220 215 221
f 220 146 142
f 220 142 214
f 223 222 147
f 223 147 148
f 144 147 219
f 219 147 222
f 221 224 220
f 146 220 224
f 225 146 224
f 150 146 225
f 152 223 148
f 152 226 223
f 229 228 227
f 225 229 227
f 154 225 227
f 150 225 154
f 159 226 152
f 159 230 226
f 227 228 231
f 231 228 232
f 231 161 154
f 231 154 227
f 234 233 166
f 234 166 165
f 159 166 230
f 230 166 233
f 232 235 231
f 235 237 236
f 235 236 167
f 231 235 167
f 161 231 167
f 236 169 167
f 172 238 171
f 171 238 239
f 240 171 239
f 173 171 240
f 165 173 234
f 234 173 240
f 237 241 236
f 236 241 169
f 241 174 169
f 241 242 174
f 174 243 175
f 242 243 174
f 172 175 238
f 175 244 238
f 175 243 244
f 238 244 239
f 246 245 178
f 178 245 177
f 247 178 179
f 247 246 178
f 248 179 181
f 248 247 179
f 249 181 183
f 249 248 181
f 183 185 249
f 249 185 250
f 252 251 188
f 188 251 187
f 188 177 245
f 188 245 252
f 192 250 185
f 192 253 250
f 256 255 254
f 251 256 254
f 194 251 254
f 187 251 194
f 195 253 192
f 195 257 253
f 255 258 254
f 194 254 258
f 259 194 258
f 197 194 259
f 261 260 198
f 261 198 199
f 195 198 257
f 257 198 260
f 264 263 262
f 266 265 262
f 262 265 264
f 259 265 266
f 200 259 266
f 197 259 200
f 201 261 199
f 201 267 261
f 262 263 268
f 268 263 269
f 268 203 204
f 266 268 204
f 262 268 266
f 266 204 200
f 205 267 201
f 205 270 267
f 273 272 271
f 273 271 269
f 269 271 268
f 271 207 268
f 207 208 268
f 268 208 203
f 209 270 205
f 209 274 270
f 271 272 212
f 272 211 212
f 272 275 211
f 271 212 207
f 278 277 276
f 277 274 276
f 274 213 276
f 274 209 213
f 280 279 216
f 216 279 215
f 281 216 217
f 281 280 216
f 217 211 275
f 217 275 281
f 284 283 282
f 282 283 278
f 282 278 276
f 219 282 276
f 218 219 276
f 218 276 213
f 279 221 215
f 285 221 279
f 284 282 222
f 223 284 222
f 286 284 223
f 222 282 219
f 224 221 287
f 221 288 287
f 221 285 288
f 287 225 224
f 226 286 223
f 226 289 286
f 287 288 229
f 288 228 229
f 288 290 228
f 287 229 225
f 230 289 226
f 230 291 289
f 290 232 228
f 292 232 290
f 294 293 233
f 294 233 234
f 230 233 291
f 291 233 293
f 292 295 232
f 232 295 235
f 237 235 295
f 237 295 296
f 298 297 240
f 298 240 239
f 234 240 294
f 294 240 297
f 296 299 237
f 237 299 241
f 241 300 242
f 299 300 241
f 242 301 243
f 300 301 242
f 243 302 244
f 301 302 243
f 239 244 298
f 298 244 302
f 305 304 303
f 307 306 303
f 303 306 305
f 309 308 307
f 307 308 306
f 309 310 308
f 313 312 311
f 313 311 304
f 304 311 303
f 311 245 303
f 245 246 303
f 303 246 247
f 303 247 307
f 307 247 248
f 307 248 309
f 314 310 309
f 248 314 309
f 249 314 248
f 316 315 250
f 315 249 250
f 315 314 249
f 316 317 315
f 320 319 318
f 320 318 312
f 312 318 311
f 318 251 311
f 251 252 311
f 311 252 245
f 253 321 316
f 253 316 250
f 317 316 322
f 322 316 321
f 318 319 256
f 319 255 256
f 319 323 255
f 318 256 251
f 325 324 321
f 253 325 321
f 257 325 253
f 321 324 322
f 323 326 255
f 255 326 258
f 259 258 326
f 259 326 327
f 329 328 260
f 329 260 261
f 257 260 325
f 325 260 328
f 330 263 264
f 330 264 331
f 264 332 331
f 264 265 332
f 265 259 327
f 265 327 332
f 267 329 261
f 267 333 329
f 336 335 334
f 337 336 330
f 336 269 330
f 269 263 330
f 336 334 269
f 337 330 331
f 340 339 338
f 339 333 338
f 333 270 338
f 333 267 270
f 334 335 273
f 335 272 273
f 335 341 272
f 334 273 269
f 344 343 342
f 346 345 342
f 346 342 343
f 345 346 340
f 338 345 340
f 347 345 338
f 274 347 270
f 270 347 338
f 350 349 348
f 341 350 348
f 275 341 348
f 272 341 275
f 353 352 351
f 351 352 344
f 342 351 344
f 354 351 342
f 355 342 345
f 354 342 355
f 278 355 277
f 355 347 277
f 355 345 347
f 277 347 274
f 357 356 280
f 280 356 279
f 281 348 349
f 357 281 349
f 280 281 357
f 348 281 275
f 353 351 358
f 353 358 359
f 360 351 354
f 358 351 360
f 284 360 283
f 360 355 283
f 360 354 355
f 283 355 278
f 356 285 279
f 361 285 356
f 359 358 362
f 359 362 363
f 364 358 360
f 362 358 364
f 286 364 284
f 284 364 360
f 361 288 285
f 365 288 361
f 366 363 362
f 368 367 366
f 362 368 366
f 364 368 362
f 289 368 286
f 286 368 364
f 365 290 288
f 369 290 365
f 367 368 370
f 367 370 371
f 291 370 289
f 289 370 368
f 369 292 290
f 372 292 369
f 375 374 373
f 373 374 371
f 373 371 370
f 294 373 370
f 293 294 370
f 293 370 291
f 372 376 292
f 292 376 295
f 296 295 376
f 296 376 377
f 380 379 378
f 382 381 378
f 382 378 379
f 384 383 381
f 384 381 382
f 383 384 375
f 383 375 373
f 298 383 373
f 297 298 373
f 297 373 294
f 377 385 296
f 296 385 299
f 378 300 380
f 300 385 380
f 300 299 385
f 300 378 301
f 301 378 381
f 301 381 302
f 302 381 383
f 302 383 298
f 386 304 305
f 386 305 387
f 305 388 387
f 305 306 388
f 390 388 389
f 388 308 389
f 388 306 308
f 310 389 308
f 392 391 313
f 313 391 312
f 313 304 386
f 393 313 386
f 392 313 393
f 393 386 387
f 394 390 389
f 394 389 310
f 314 394 310
f 395 394 314
f 396 314 315
f 396 395 314
f 315 317 396
f 396 317 397
f 399 398 320
f 320 398 319
f 320 312 391
f 320 391 399
f 322 397 317
f 322 400 397
f 398 323 319
f 401 323 398
f 403 402 324
f 403 324 325
f 322 324 400
f 400 324 402
f 326 323 404
f 323 405 404
f 323 401 405
f 404 327 326
f 408 407 406
f 328 329 406
f 407 328 406
f 409 328 407
f 325 328 403
f 403 328 409
f 412 411 410
f 412 410 405
f 405 410 404
f 410 331 404
f 331 332 404
f 404 332 327
f 415 414 413
f 413 414 408
f 406 413 408
f 416 413 406
f 333 416 329
f 329 416 406
f 417 335 336
f 411 418 410
f 418 336 410
f 336 337 410
f 336 418 417
f 410 337 331
f 421 420 419
f 419 420 415
f 413 419 415
f 422 419 413
f 340 422 339
f 422 416 339
f 422 413 416
f 339 416 333
f 424 423 417
f 423 335 417
f 423 341 335
f 424 417 418
f 427 426 425
f 425 426 421
f 425 421 419
f 344 425 419
f 343 344 419
f 343 419 346
f 346 419 422
f 346 422 340
f 429 428 350
f 350 428 349
f 350 341 423
f 350 423 429
f 427 425 352
f 353 427 352
f 430 427 353
f 352 425 344
f 431 356 357
f 432 431 357
f 349 432 357
f 428 432 349
f 359 430 353
f 359 433 430
f 435 434 431
f 434 356 431
f 434 361 356
f 435 431 432
f 363 433 359
f 363 436 433
f 434 365 361
f 437 365 434
f 363 366 438
f 439 363 438
f 436 363 439
f 367 438 366
f 442 441 440
f 437 442 440
f 369 437 440
f 365 437 369
f 439 438 443
f 439 443 444
f 371 443 367
f 367 443 438
f 441 445 440
f 369 440 445
f 446 369 445
f 372 369 446
f 444 443 374
f 375 444 374
f 447 444 375
f 374 443 371
f 376 372 448
f 372 449 448
f 372 446 449
f 448 377 376
f 451 450 379
f 451 379 380
f 379 452 382
f 450 452 379
f 382 453 384
f 452 453 382
f 375 384 447
f 447 384 453
f 449 454 448
f 448 454 377
f 454 385 377
f 454 455 385
f 380 385 451
f 451 385 455
f 456 387 388
f 390 456 388
f 457 391 392
f 393 458 392
f 392 458 457
f 387 456 393
f 456 458 393
f 456 459 458
f 394 460 390
f 460 456 390
f 460 459 456
f 395 461 394
f 394 461 460
f 396 462 395
f 395 462 461
f 397 462 396
f 465 464 463
f 398 399 463
f 399 465 463
f 399 466 465
f 399 391 457
f 467 399 457
f 466 399 467
f 467 457 458
f 467 458 468
f 470 469 468
f 458 470 468
f 459 470 458
f 471 459 460
f 470 459 471
f 472 460 461
f 471 460 472
f 473 461 462
f 472 461 473
f 400 473 397
f 397 473 462
f 476 475 474
f 476 474 464
f 474 463 464
f 474 477 463
f 477 401 398
f 477 398 463
f 478 469 470
f 480 479 478
f 470 480 478
f 471 480 470
f 481 471 472
f 480 471 481
f 403 481 402
f 481 473 402
f 481 472 473
f 402 473 400
f 474 475 482
f 482 475 483
f 485 477 484
f 477 482 484
f 477 474 482
f 401 477 485
f 486 401 485
f 405 401 486
f 489 488 487
f 487 488 479
f 487 479 480
f 408 487 480
f 407 408 480
f 407 480 409
f 409 480 481
f 409 481 403
f 483 490 482
f 491 411 412
f 490 484 482
f 492 491 412
f 405 492 412
f 486 492 405
f 489 487 414
f 415 489 414
f 493 489 415
f 414 487 408
f 494 418 491
f 491 418 411
f 491 492 495
f 491 495 494
f 497 496 420
f 497 420 421
f 415 420 493
f 493 420 496
f 498 423 424
f 418 494 424
f 494 498 424
f 494 499 498
f 494 495 500
f 501 494 500
f 499 494 501
f 426 427 501
f 500 426 501
f 502 426 500
f 421 426 497
f 497 426 502
f 503 428 429
f 504 503 429
f 504 429 423
f 505 504 423
f 498 505 423
f 505 498 499
f 505 499 506
f 508 507 506
f 499 508 506
f 501 508 499
f 430 508 427
f 427 508 501
f 510 509 503
f 509 428 503
f 509 432 428
f 510 503 504
f 511 507 508
f 508 430 511
f 430 512 511
f 430 433 512
f 514 513 435
f 435 513 434
f 435 432 509
f 435 509 514
f 436 512 433
f 436 515 512
f 513 437 434
f 516 437 513
f 519 518 517
f 518 515 517
f 515 439 517
f 515 436 439
f 521 520 442
f 442 520 441
f 442 437 516
f 442 516 521
f 519 517 522
f 519 522 523
f 444 522 439
f 439 522 517
f 520 524 441
f 441 524 445
f 446 445 524
f 446 524 525
f 523 522 526
f 523 526 527
f 447 526 444
f 444 526 522
f 525 449 446
f 528 449 525
f 451 529 450
f 530 452 450
f 530 450 529
f 531 527 526
f 452 531 526
f 453 452 526
f 531 452 530
f 453 526 447
f 528 532 449
f 449 532 454
f 454 533 455
f 532 533 454
f 451 455 529
f 455 534 529
f 455 533 534
f 529 534 530
f 530 534 535
f 530 535 531
f 537 536 465
f 465 536 464
f 538 465 466
f 538 537 465
f 539 466 467
f 539 538 466
f 541 539 540
f 539 468 540
f 539 467 468
f 469 540 468
f 543 542 476
f 476 542 475
f 476 464 536
f 476 536 543
f 546 545 544
f 544 545 541
f 540 544 541
f 547 544 540
f 478 548 469
f 548 540 469
f 548 547 540
f 479 548 478
f 551 550 549
f 542 551 549
f 483 542 549
f 475 542 483
f 484 552 485
f 552 486 485
f 546 544 553
f 546 553 554
f 555 544 547
f 553 544 555
f 489 555 488
f 555 548 488
f 555 547 548
f 488 548 479
f 549 550 556
f 556 550 557
f 558 490 483
f 549 558 483
f 556 558 549
f 558 559 490
f 490 559 484
f 559 560 484
f 560 552 484
f 492 486 552
f 561 492 552
f 560 561 552
f 492 561 562
f 562 561 554
f 553 562 554
f 563 562 553
f 564 553 555
f 563 553 564
f 493 564 489
f 489 564 555
f 556 557 565
f 565 557 566
f 568 558 567
f 558 565 567
f 558 556 565
f 558 568 559
f 569 495 562
f 562 495 492
f 570 562 563
f 569 562 570
f 497 570 496
f 570 564 496
f 570 563 564
f 496 564 493
f 566 571 565
f 565 571 567
f 569 500 495
f 500 569 502
f 502 569 570
f 502 570 497
f 572 504 505
f 572 505 573
f 505 574 573
f 505 506 574
f 506 507 574
f 574 507 575
f 577 576 510
f 510 576 509
f 510 504 572
f 578 510 572
f 577 510 578
f 578 572 573
f 579 575 507
f 579 507 511
f 511 512 579
f 579 512 580
f 582 581 514
f 514 581 513
f 514 509 576
f 514 576 582
f 515 580 512
f 515 583 580
f 581 516 513
f 584 516 581
f 519 585 518
f 585 586 518
f 586 515 518
f 586 583 515
f 587 520 521
f 588 587 521
f 516 588 521
f 584 588 516
f 590 589 585
f 519 590 585
f 523 590 519
f 585 589 586
f 587 524 520
f 525 524 587
f 588 525 587
f 591 525 588
f 527 590 523
f 527 592 590
f 591 528 525
f 593 528 591
f 596 595 594
f 595 592 594
f 592 531 594
f 592 527 531
f 593 597 528
f 528 597 532
f 532 598 533
f 597 598 532
f 533 599 534
f 598 599 533
f 594 535 596
f 535 599 596
f 535 534 599
f 535 594 531
f 602 601 600
f 536 537 600
f 537 602 600
f 537 603 602
f 604 537 538
f 604 603 537
f 606 604 605
f 604 539 605
f 604 538 539
f 541 605 539
f 600 601 543
f 601 542 543
f 601 607 542
f 600 543 536
f 606 605 545
f 546 606 545
f 608 606 546
f 545 605 541
f 610 609 551
f 551 609 550
f 551 542 607
f 551 607 610
f 554 608 546
f 554 611 608
f 609 557 550
f 612 557 609
f 559 613 560
f 614 561 560
f 614 560 613
f 614 615 561
f 615 554 561
f 615 611 554
f 612 566 557
f 616 566 612
f 567 617 568
f 617 618 568
f 568 618 559
f 618 619 559
f 619 613 559
f 613 619 614
f 614 619 620
f 614 620 615
f 571 566 621
f 566 622 621
f 566 616 622
f 621 623 571
f 571 623 567
f 623 624 567
f 624 617 567
f 617 624 618
f 622 625 621
f 621 625 623
f 626 573 574
f 575 626 574
f 627 576 577
f 578 628 577
f 577 628 627
f 573 626 578
f 626 628 578
f 626 629 628
f 579 630 575
f 630 626 575
f 630 629 626
f 580 630 579
f 631 581 582
f 632 631 582
f 632 582 576
f 633 632 576
f 627 633 576
f 633 627 628
f 633 628 634
f 634 628 629
f 634 629 635
f 635 629 630
f 635 630 636
f 630 580 636
f 580 637 636
f 580 583 637
f 638 584 631
f 631 584 581
f 631 632 639
f 631 639 638
f 586 637 583
f 586 640 637
f 642 641 638
f 641 584 638
f 641 588 584
f 642 638 639
f 590 643 589
f 643 644 589
f 644 586 589
f 644 640 586
f 646 591 645
f 591 641 645
f 591 588 641
f 647 646 645
f 649 648 643
f 590 649 643
f 592 649 590
f 643 648 644
f 650 593 646
f 646 593 591
f 646 647 651
f 652 646 651
f 650 646 652
f 653 652 651
f 596 654 595
f 654 655 595
f 655 592 595
f 655 649 592
f 650 597 593
f 597 650 598
f 598 650 652
f 653 656 652
f 656 598 652
f 656 599 598
f 596 599 654
f 599 657 654
f 599 656 657
f 654 657 655
f 658 601 602
f 603 659 602
f 602 659 658
f 604 660 603
f 603 660 659
f 606 660 604
f 662 661 658
f 661 601 658
f 661 607 601
f 662 658 659
f 662 659 663
f 663 659 660
f 663 660 664
f 660 606 664
f 606 665 664
f 606 608 665
f 666 609 610
f 607 661 667
f 666 607 667
f 668 666 667
f 610 607 666
f 669 668 667
f 672 671 670
f 671 665 670
f 665 611 670
f 665 608 611
f 675 674 673
f 676 675 666
f 675 612 666
f 612 609 666
f 675 673 612
f 678 677 676
f 666 678 676
f 668 678 666
f 668 669 679
f 668 679 678
f 672 670 680
f 672 680 681
f 615 680 611
f 611 680 670
f 673 674 682
f 682 674 683
f 682 616 612
f 682 612 673
f 677 678 684
f 677 684 685
f 686 619 618
f 678 686 618
f 684 678 618
f 686 678 679
f 680 620 681
f 620 686 681
f 620 619 686
f 620 680 615
f 682 683 687
f 687 683 688
f 687 622 616
f 687 616 682
f 685 684 624
f 623 685 624
f 689 685 623
f 624 684 618
f 688 690 687
f 687 690 622
f 690 625 622
f 690 691 625
f 623 625 689
f 689 625 691
f 692 632 633
f 634 693 633
f 633 693 692
f 635 694 634
f 634 694 693
f 694 635 695
f 635 696 695
f 635 636 696
f 636 637 696
f 696 637 697
f 698 639 692
f 692 639 632
f 699 692 693
f 698 692 699
f 694 701 700
f 699 694 700
f 693 694 699
f 701 694 695
f 640 703 702
f 697 640 702
f 637 640 697
f 703 704 702
f 705 641 642
f 639 698 642
f 698 705 642
f 698 706 705
f 699 708 707
f 706 699 707
f 698 699 706
f 708 699 700
f 710 709 703
f 640 710 703
f 644 710 640
f 703 709 704
f 705 645 641
f 705 706 711
f 647 705 711
f 712 647 711
f 705 647 645
f 711 706 707
f 649 713 648
f 713 714 648
f 714 644 648
f 714 710 644
f 712 715 647
f 647 715 651
f 653 651 715
f 653 715 716
f 719 718 717
f 718 720 713
f 655 718 713
f 649 655 713
f 717 718 655
f 713 720 714
f 716 721 653
f 653 721 656
f 717 657 719
f 657 721 719
f 657 656 721
f 657 717 655
f 722 661 662
f 663 723 662
f 662 723 722
f 664 724 663
f 663 724 723
f 665 724 664
f 722 667 661
f 667 722 669
f 722 725 669
f 722 723 725
f 672 725 671
f 725 724 671
f 725 723 724
f 671 724 665
f 726 674 675
f 676 727 675
f 675 727 726
f 677 727 676
f 728 679 725
f 725 679 669
f 681 728 672
f 672 728 725
f 729 683 726
f 726 683 674
f 730 726 727
f 729 726 730
f 685 730 677
f 677 730 727
f 728 686 679
f 686 728 681
f 731 688 729
f 729 688 683
f 732 729 730
f 731 729 732
f 689 732 685
f 685 732 730
f 731 690 688
f 690 731 691
f 691 731 732
f 691 732 689
f 733 695 696
f 697 733 696
f 734 700 701
f 695 733 701
f 733 734 701
f 733 735 734
f 702 736 697
f 736 733 697
f 736 735 733
f 704 736 702
f 738 737 708
f 708 737 707
f 708 700 734
f 739 708 734
f 738 708 739
f 741 740 739
f 734 741 739
f 735 741 734
f 710 741 709
f 741 736 709
f 741 735 736
f 709 736 704
f 742 712 711
f 743 742 711
f 707 743 711
f 737 743 707
f 740 741 744
f 740 744 745
f 714 744 710
f 710 744 741
f 742 715 712
f 747 746 716
f 747 716 715
f 743 747 715
f 742 743 715
f 718 719 746
f 747 718 746
f 748 718 747
f 744 720 745
f 720 748 745
f 720 718 748
f 720 744 714
f 746 721 716
f 721 746 719
f 749 737 738
f 739 750 738
f 738 750 749
f 740 750 739
f 751 743 749
f 749 743 737
f 752 749 750
f 751 749 752
f 745 752 740
f 740 752 750
f 751 747 743
f 747 751 748
f 748 751 752
f 748 752 745
