v 4.8 -70.0 -36.0
v 5.0 -70.0 -36.2
v 5.0 -70.2 -36.0
v 5.0 -70.3 -35.0
v 4.8 -70.0 -35.0
v 5.0 -70.0 -34.7
v 4.7 -69.0 -36.0
v 5.0 -69.0 -36.3
v 4.6 -69.0 -35.0
v 5.0 -69.0 -34.6
v 5.0 -68.6 -36.0
v 4.8 -68.0 -35.0
v 5.0 -68.0 -35.4
v 5.0 -68.0 -34.7
v 4.8 -67.0 -35.0
v 5.0 -67.0 -35.3
v 5.0 -67.0 -34.7
v 4.9 -66.0 -35.0
v 5.0 -66.0 -35.1
v 5.0 -66.0 -34.9
v 5.0 -65.9 -35.0
v 5.9 -71.0 -35.0
v 6.0 -71.0 -35.2
v 6.0 -71.1 -35.0
v 6.0 -71.0 -34.8
v 6.0 -70.0 -36.6
v 6.0 -70.5 -36.0
v 6.0 -70.4 -34.0
v 5.7 -70.0 -34.0
v 6.0 -70.0 -33.7
v 5.8 -69.0 -37.0
v 6.0 -69.0 -37.2
v 6.0 -69.3 -37.0
v 5.5 -69.0 -34.0
v 6.0 -69.0 -33.6
v 6.0 -68.6 -37.0
v 5.4 -68.0 -36.0
v 6.0 -68.0 -36.7
v 5.5 -68.0 -34.0
v 6.0 -68.0 -33.6
v 5.5 -67.0 -36.0
v 6.0 -67.0 -36.5
v 5.5 -67.0 -34.0
v 6.0 -67.0 -33.6
v 5.5 -66.0 -36.0
v 6.0 -66.0 -36.6
v 5.6 -66.0 -34.0
v 6.0 -66.0 -33.7
v 5.7 -65.0 -37.0
v 6.0 -65.0 -37.4
v 6.0 -65.5 -37.0
v 5.5 -65.0 -36.0
v 5.5 -65.0 -35.0
v 5.9 -65.0 -34.0
v 6.0 -65.0 -33.9
v 5.6 -64.0 -37.0
v 6.0 -64.0 -37.5
v 5.5 -64.0 -36.0
v 5.6 -64.0 -35.0
v 6.0 -64.0 -34.6
v 6.0 -64.9 -34.0
v 5.7 -63.0 -37.0
v 6.0 -63.0 -37.4
v 5.5 -63.0 -36.0
v 5.8 -63.0 -35.0
v 6.0 -63.0 -34.8
v 6.0 -62.5 -37.0
v 5.8 -62.0 -36.0
v 6.0 -62.0 -36.3
v 6.0 -62.0 -35.7
v 6.0 -62.6 -35.0
v 6.0 -61.8 -36.0
v 7.0 -71.0 -35.6
v 7.0 -71.5 -35.0
v 7.0 -71.4 -34.0
v 6.6 -71.0 -34.0
v 7.0 -71.0 -33.6
v 6.6 -70.0 -37.0
v 7.0 -70.0 -37.3
v 7.0 -70.3 -37.0
v 7.0 -70.7 -36.0
v 7.0 -70.0 -33.4
v 6.7 -69.0 -38.0
v 7.0 -69.0 -38.3
v 7.0 -69.3 -38.0
v 7.0 -69.0 -33.4
v 6.6 -68.0 -38.0
v 7.0 -68.0 -38.5
v 6.3 -68.0 -37.0
v 7.0 -68.0 -33.5
v 6.6 -67.0 -38.0
v 7.0 -67.0 -38.6
v 6.4 -67.0 -37.0
v 7.0 -67.0 -33.4
v 6.8 -66.0 -39.0
v 7.0 -66.0 -39.2
v 7.0 -66.4 -39.0
v 6.5 -66.0 -38.0
v 6.3 -66.0 -37.0
v 7.0 -66.0 -33.6
v 6.6 -65.0 -39.0
v 7.0 -65.0 -39.4
v 6.4 -65.0 -38.0
v 6.2 -65.0 -34.0
v 7.0 -65.4 -34.0
v 7.0 -65.0 -34.3
v 6.7 -64.0 -39.0
v 7.0 -64.0 -39.3
v 6.4 -64.0 -38.0
v 7.0 -64.0 -34.5
v 7.0 -63.6 -39.0
v 6.5 -63.0 -38.0
v 7.0 -63.0 -38.6
v 7.0 -63.0 -34.5
v 6.7 -62.0 -38.0
v 7.0 -62.0 -38.3
v 6.3 -62.0 -37.0
v 6.6 -62.0 -35.0
v 7.0 -62.0 -34.7
v 7.0 -61.5 -38.0
v 6.6 -61.0 -37.0
v 7.0 -61.0 -37.6
v 6.6 -61.0 -36.0
v 7.0 -61.0 -35.0
v 7.0 -61.0 -35.0
v 6.8 -60.0 -37.0
v 7.0 -60.0 -37.3
v 7.0 -60.0 -36.7
v 7.0 -60.4 -36.0
v 6.9 -59.0 -38.0
v 7.0 -59.0 -38.2
v 7.0 -59.3 -38.0
v 7.0 -59.6 -37.0
v 7.0 -59.0 -37.6
v 6.8 -58.0 -38.0
v 7.0 -58.0 -38.3
v 7.0 -58.5 -37.0
v 6.8 -58.0 -37.0
v 7.0 -58.0 -36.8
v 7.0 -57.6 -38.0
v 6.9 -57.0 -37.0
v 7.0 -57.0 -37.2
v 7.0 -57.0 -36.9
v 7.0 -56.8 -37.0
v 7.6 -72.0 -35.0
v 8.0 -72.0 -35.4
v 8.0 -72.3 -35.0
v 8.0 -72.5 -34.0
v 7.5 -72.0 -34.0
v 8.0 -72.3 -33.0
v 7.7 -72.0 -33.0
v 8.0 -72.0 -32.7
v 7.4 -71.0 -36.0
v 8.0 -71.0 -36.5
v 8.0 -71.5 -36.0
v 7.5 -71.0 -33.0
v 8.0 -71.0 -32.6
v 8.0 -70.0 -37.6
v 8.0 -70.6 -37.0
v 7.5 -70.0 -33.0
v 8.0 -70.0 -32.6
v 8.0 -69.0 -38.6
v 8.0 -69.6 -38.0
v 7.6 -69.0 -33.0
v 8.0 -69.0 -32.7
v 7.6 -68.0 -39.0
v 8.0 -68.0 -39.4
v 8.0 -68.5 -39.0
v 8.0 -68.3 -33.0
v 8.0 -68.0 -33.2
v 7.4 -67.0 -39.0
v 8.0 -67.0 -39.5
v 8.0 -67.4 -33.0
v 7.8 -67.0 -33.0
v 8.0 -67.0 -32.9
v 8.0 -66.0 -39.6
v 8.0 -66.8 -33.0
v 8.0 -66.0 -33.5
v 8.0 -65.0 -39.7
v 8.0 -65.4 -34.0
v 8.0 -65.0 -34.3
v 7.8 -64.0 -40.0
v 8.0 -64.0 -40.1
v 8.0 -64.3 -40.0
v 8.0 -64.0 -34.5
v 8.0 -63.7 -40.0
v 7.4 -63.0 -39.0
v 8.0 -63.0 -39.6
v 8.0 -63.0 -34.6
v 7.6 -62.0 -39.0
v 8.0 -62.0 -39.4
v 7.5 -62.0 -35.0
v 8.0 -62.3 -35.0
v 8.0 -62.0 -35.3
v 8.0 -61.4 -39.0
v 7.4 -61.0 -38.0
v 8.0 -61.0 -38.8
v 8.0 -61.0 -35.4
v 7.7 -60.0 -39.0
v 8.0 -60.0 -39.3
v 8.0 -60.6 -39.0
v 7.3 -60.0 -38.0
v 7.4 -60.0 -36.0
v 8.0 -60.0 -35.5
v 7.5 -59.0 -39.0
v 8.0 -59.0 -39.5
v 7.2 -59.0 -37.0
v 7.6 -59.0 -36.0
v 8.0 -59.0 -35.3
v 7.5 -58.0 -39.0
v 8.0 -58.0 -39.5
v 8.0 -58.2 -36.0
v 8.0 -58.0 -36.1
v 7.6 -57.0 -39.0
v 8.0 -57.0 -39.5
v 7.3 -57.0 -38.0
v 8.0 -57.7 -36.0
v 7.7 -57.0 -36.0
v 8.0 -57.0 -35.7
v 7.7 -56.0 -39.0
v 8.0 -56.0 -39.4
v 7.5 -56.0 -38.0
v 7.4 -56.0 -37.0
v 7.6 -56.0 -36.0
v 8.0 -56.0 -35.7
v 8.0 -55.5 -39.0
v 7.7 -55.0 -38.0
v 8.0 -55.0 -38.5
v 7.6 -55.0 -37.0
v 7.8 -55.0 -36.0
v 8.0 -55.0 -35.8
v 8.0 -54.6 -38.0
v 8.0 -54.5 -37.0
v 8.0 -54.8 -36.0
v 7.9 -51.0 -38.0
v 8.0 -51.0 -38.2
v 8.0 -51.2 -38.0
v 8.0 -51.0 -37.8
v 7.9 -50.0 -39.0
v 8.0 -50.0 -39.2
v 8.0 -50.3 -39.0
v 7.7 -50.0 -38.0
v 8.0 -50.0 -37.6
v 8.0 -49.8 -39.0
v 7.9 -49.0 -38.0
v 8.0 -49.0 -38.1
v 8.0 -49.0 -37.9
v 8.0 -48.9 -38.0
v 8.9 -73.0 -36.0
v 9.0 -73.0 -36.1
v 9.0 -73.1 -36.0
v 9.0 -73.0 -35.7
v 8.6 -73.0 -34.0
v 9.0 -73.0 -34.7
v 9.0 -73.3 -34.0
v 9.0 -73.2 -33.0
v 8.7 -73.0 -33.0
v 9.0 -73.0 -32.7
v 8.4 -72.0 -36.0
v 9.0 -72.0 -36.6
v 9.0 -72.8 -35.0
v 9.0 -72.1 -32.0
v 8.9 -72.0 -32.0
v 9.0 -72.0 -31.9
v 8.5 -71.0 -37.0
v 9.0 -71.0 -37.5
v 9.0 -71.6 -37.0
v 9.0 -71.8 -32.0
v 9.0 -71.0 -32.3
v 8.4 -70.0 -38.0
v 9.0 -70.0 -38.5
v 9.0 -70.5 -38.0
v 9.0 -70.0 -32.4
v 8.5 -69.0 -39.0
v 9.0 -69.0 -39.5
v 9.0 -69.5 -39.0
v 9.0 -69.0 -32.5
v 8.7 -68.0 -40.0
v 9.0 -68.0 -40.3
v 9.0 -68.4 -40.0
v 8.2 -68.0 -33.0
v 9.0 -68.0 -32.6
v 8.5 -67.0 -40.0
v 9.0 -67.0 -40.5
v 9.0 -67.0 -32.6
v 8.5 -66.0 -40.0
v 9.0 -66.0 -40.5
v 9.0 -66.5 -33.0
v 9.0 -66.0 -33.4
v 8.4 -65.0 -40.0
v 9.0 -65.0 -40.5
v 8.5 -65.0 -34.0
v 9.0 -65.0 -33.7
v 9.0 -64.0 -40.6
v 9.0 -64.6 -34.0
v 9.0 -64.0 -34.4
v 8.4 -63.0 -40.0
v 9.0 -63.0 -40.4
v 9.0 -63.0 -34.6
v 8.7 -62.0 -40.0
v 9.0 -62.0 -40.3
v 9.0 -62.4 -35.0
v 9.0 -62.0 -35.3
v 9.0 -61.5 -40.0
v 8.2 -61.0 -39.0
v 9.0 -61.0 -39.7
v 9.0 -61.0 -35.5
v 9.0 -60.0 -39.7
v 9.0 -60.0 -35.5
v 8.6 -59.0 -40.0
v 9.0 -59.0 -40.4
v 9.0 -59.5 -40.0
v 9.0 -59.0 -35.4
v 8.5 -58.0 -40.0
v 9.0 -58.0 -40.5
v 8.2 -58.0 -36.0
v 9.0 -58.0 -35.6
v 8.5 -57.0 -40.0
v 9.0 -57.0 -40.5
v 9.0 -57.0 -35.5
v 8.5 -56.0 -40.0
v 9.0 -56.0 -40.5
v 9.0 -56.0 -35.5
v 8.7 -55.0 -40.0
v 9.0 -55.0 -40.4
v 8.3 -55.0 -39.0
v 9.0 -55.0 -35.6
v 9.0 -54.5 -40.0
v 8.6 -54.0 -39.0
v 9.0 -54.0 -39.6
v 8.4 -54.0 -38.0
v 8.5 -54.0 -37.0
v 9.0 -54.0 -36.5
v 9.0 -54.5 -36.0
v 8.6 -53.0 -39.0
v 9.0 -53.0 -39.6
v 8.5 -53.0 -38.0
v 8.6 -53.0 -37.0
v 9.0 -53.0 -36.7
v 8.7 -52.0 -40.0
v 9.0 -52.0 -40.4
v 9.0 -52.5 -40.0
v 8.5 -52.0 -39.0
v 8.4 -52.0 -38.0
v 8.6 -52.0 -37.0
v 9.0 -52.0 -36.6
v 8.6 -51.0 -40.0
v 9.0 -51.0 -40.5
v 8.3 -51.0 -39.0
v 8.6 -51.0 -37.0
v 9.0 -51.0 -36.6
v 8.6 -50.0 -40.0
v 9.0 -50.0 -40.4
v 8.5 -50.0 -37.0
v 9.0 -50.0 -36.6
v 9.0 -49.5 -40.0
v 8.6 -49.0 -39.0
v 9.0 -49.0 -39.5
v 8.6 -49.0 -37.0
v 9.0 -49.0 -36.6
v 9.0 -48.7 -39.0
v 9.0 -48.4 -38.0
v 9.0 -48.2 -37.0
v 9.7 -73.0 -37.0
v 10.0 -73.0 -37.2
v 10.0 -73.2 -37.0
v 10.0 -73.5 -36.0
v 10.0 -73.5 -35.0
v 9.2 -73.0 -35.0
v 10.0 -73.6 -34.0
v 10.0 -73.4 -33.0
v 10.0 -73.0 -32.6
v 9.4 -72.0 -37.0
v 10.0 -72.0 -37.6
v 10.0 -72.3 -32.0
v 10.0 -72.0 -31.8
v 9.5 -71.0 -38.0
v 10.0 -71.0 -38.5
v 10.0 -71.5 -38.0
v 9.5 -71.0 -32.0
v 10.0 -71.0 -31.8
v 9.5 -70.0 -39.0
v 10.0 -70.0 -39.5
v 10.0 -70.5 -39.0
v 9.8 -70.0 -32.0
v 10.0 -70.0 -31.9
v 9.6 -69.0 -40.0
v 10.0 -69.0 -40.3
v 10.0 -69.4 -40.0
v 10.0 -69.8 -32.0
v 10.0 -69.0 -32.3
v 10.0 -68.0 -40.7
v 10.0 -68.0 -32.5
v 9.6 -67.0 -41.0
v 10.0 -67.0 -41.3
v 10.0 -67.5 -41.0
v 10.0 -67.0 -32.6
v 9.5 -66.0 -41.0
v 10.0 -66.0 -41.4
v 10.0 -66.4 -33.0
v 10.0 -66.0 -33.3
v 9.5 -65.0 -41.0
v 10.0 -65.0 -41.4
v 10.0 -65.0 -33.6
v 9.6 -64.0 -41.0
v 10.0 -64.0 -41.4
v 10.0 -64.3 -34.0
v 10.0 -64.0 -34.3
v 10.0 -63.5 -41.0
v 10.0 -63.0 -40.7
v 10.0 -63.0 -34.4
v 10.0 -62.0 -40.6
v 9.5 -62.0 -35.0
v 10.0 -62.0 -34.7
v 9.4 -61.0 -40.0
v 10.0 -61.0 -40.5
v 10.0 -61.5 -35.0
v 10.0 -61.0 -35.3
v 9.3 -60.0 -40.0
v 10.0 -60.0 -40.6
v 10.0 -60.0 -35.4
v 9.6 -59.0 -41.0
v 10.0 -59.0 -41.4
v 10.0 -59.5 -41.0
v 10.0 -59.0 -35.4
v 9.5 -58.0 -41.0
v 10.0 -58.0 -41.5
v 10.0 -58.0 -35.5
v 9.5 -57.0 -41.0
v 10.0 -57.0 -41.5
v 10.0 -57.0 -35.5
v 9.5 -56.0 -41.0
v 10.0 -56.0 -41.5
v 10.0 -56.0 -35.5
v 9.5 -55.0 -41.0
v 10.0 -55.0 -41.5
v 10.0 -55.0 -35.7
v 9.6 -54.0 -41.0
v 10.0 -54.0 -41.5
v 9.3 -54.0 -40.0
v 10.0 -54.6 -36.0
v 10.0 -54.0 -36.4
v 9.6 -53.0 -41.0
v 10.0 -53.0 -41.5
v 9.3 -53.0 -40.0
v 10.0 -53.0 -36.5
v 9.5 -52.0 -41.0
v 10.0 -52.0 -41.6
v 10.0 -52.0 -36.5
v 9.9 -51.0 -42.0
v 10.0 -51.0 -42.2
v 10.0 -51.3 -42.0
v 9.4 -51.0 -41.0
v 10.0 -51.0 -36.5
v 10.0 -50.7 -42.0
v 9.5 -50.0 -41.0
v 10.0 -50.0 -41.6
v 10.0 -50.0 -36.4
v 9.8 -49.0 -41.0
v 10.0 -49.0 -41.3
v 9.4 -49.0 -40.0
v 10.0 -49.0 -36.2
v 10.0 -48.8 -41.0
v 10.0 -48.6 -40.0
v 10.0 -48.3 -39.0
v 9.7 -48.0 -38.0
v 10.0 -48.0 -38.3
v 10.0 -48.0 -37.5
v 10.0 -48.2 -37.0
v 10.0 -47.8 -38.0
v 10.9 -74.0 -35.0
v 11.0 -74.0 -35.1
v 11.0 -74.1 -35.0
v 11.0 -74.1 -34.0
v 10.9 -74.0 -34.0
v 11.0 -74.0 -33.9
v 11.0 -73.0 -37.3
v 11.0 -73.3 -37.0
v 11.0 -73.6 -36.0
v 11.0 -73.3 -33.0
v 11.0 -73.0 -32.7
v 10.5 -72.0 -38.0
v 11.0 -72.0 -38.4
v 11.0 -72.4 -38.0
v 10.3 -72.0 -32.0
v 11.0 -72.0 -32.5
v 10.6 -71.0 -39.0
v 11.0 -71.0 -39.4
v 11.0 -71.4 -39.0
v 10.3 -71.0 -32.0
v 11.0 -71.0 -32.5
v 10.6 -70.0 -40.0
v 11.0 -70.0 -40.3
v 11.0 -70.3 -40.0
v 10.2 -70.0 -32.0
v 11.0 -70.0 -32.4
v 11.0 -69.0 -40.7
v 11.0 -69.0 -32.0
v 10.5 -68.0 -41.0
v 11.0 -68.0 -41.3
v 11.0 -68.5 -41.0
v 11.0 -68.0 -32.3
v 11.0 -67.0 -41.5
v 11.0 -67.0 -32.4
v 11.0 -66.0 -41.6
v 10.4 -66.0 -33.0
v 11.0 -66.0 -32.6
v 11.0 -65.0 -41.7
v 11.0 -65.4 -33.0
v 11.0 -65.0 -33.3
v 10.8 -64.0 -42.0
v 11.0 -64.0 -42.1
v 11.0 -64.3 -42.0
v 10.3 -64.0 -34.0
v 11.0 -64.0 -33.4
v 11.0 -63.7 -42.0
v 10.3 -63.0 -41.0
v 11.0 -63.0 -41.6
v 10.6 -63.0 -34.0
v 11.0 -63.0 -33.6
v 10.5 -62.0 -41.0
v 11.0 -62.0 -41.5
v 11.0 -62.4 -34.0
v 11.0 -62.0 -34.3
v 10.5 -61.0 -41.0
v 11.0 -61.0 -41.5
v 10.4 -61.0 -35.0
v 11.0 -61.0 -34.5
v 10.4 -60.0 -41.0
v 11.0 -60.0 -41.6
v 10.5 -60.0 -35.0
v 11.0 -60.0 -34.5
v 10.6 -59.0 -42.0
v 11.0 -59.0 -42.4
v 11.0 -59.5 -42.0
v 10.6 -59.0 -35.0
v 11.0 -59.0 -34.7
v 10.5 -58.0 -42.0
v 11.0 -58.0 -42.5
v 11.0 -58.5 -35.0
v 11.0 -58.0 -35.3
v 10.5 -57.0 -42.0
v 11.0 -57.0 -42.5
v 11.0 -57.0 -35.4
v 10.5 -56.0 -42.0
v 11.0 -56.0 -42.5
v 11.0 -56.0 -35.6
v 10.5 -55.0 -42.0
v 11.0 -55.0 -42.5
v 10.5 -55.0 -36.0
v 11.0 -55.4 -36.0
v 11.0 -55.0 -36.3
v 10.5 -54.0 -42.0
v 11.0 -54.0 -42.5
v 11.0 -54.0 -36.5
v 10.5 -53.0 -42.0
v 11.0 -53.0 -42.6
v 11.0 -53.0 -36.5
v 10.7 -52.0 -43.0
v 11.0 -52.0 -43.2
v 11.0 -52.4 -43.0
v 10.3 -52.0 -42.0
v 11.0 -52.0 -36.5
v 10.7 -51.0 -43.0
v 11.0 -51.0 -43.3
v 11.0 -51.0 -36.5
v 11.0 -50.6 -43.0
v 10.4 -50.0 -42.0
v 11.0 -50.0 -42.6
v 11.0 -50.0 -36.5
v 10.7 -49.0 -42.0
v 11.0 -49.0 -42.2
v 11.0 -49.0 -36.4
v 11.0 -48.8 -42.0
v 11.0 -48.5 -41.0
v 11.0 -48.3 -40.0
v 10.5 -48.0 -39.0
v 11.0 -48.0 -39.5
v 10.5 -48.0 -37.0
v 11.0 -48.0 -36.7
v 11.0 -47.7 -39.0
v 11.0 -47.5 -38.0
v 11.0 -47.8 -37.0
v 11.1 -74.0 -35.0
v 11.1 -74.0 -34.0
v 11.5 -73.0 -37.0
v 12.0 -73.0 -36.6
v 12.0 -73.4 -36.0
v 12.0 -73.5 -35.0
v 12.0 -73.3 -34.0
v 11.3 -73.0 -33.0
v 12.0 -73.0 -33.7
v 12.0 -72.0 -38.3
v 12.0 -72.3 -38.0
v 12.0 -72.7 -37.0
v 11.5 -72.0 -33.0
v 12.0 -72.0 -33.5
v 12.0 -71.0 -39.4
v 12.0 -71.4 -39.0
v 11.5 -71.0 -33.0
v 12.0 -71.0 -33.4
v 12.0 -70.0 -40.6
v 12.0 -70.5 -40.0
v 11.7 -70.0 -33.0
v 12.0 -70.0 -33.2
v 11.5 -69.0 -41.0
v 12.0 -69.0 -41.3
v 12.0 -69.5 -41.0
v 12.0 -69.7 -33.0
v 12.0 -69.0 -32.4
v 12.0 -68.0 -41.6
v 12.0 -68.4 -32.0
v 11.5 -68.0 -32.0
v 12.0 -68.0 -31.7
v 12.0 -67.0 -41.7
v 11.5 -67.0 -32.0
v 12.0 -67.0 -31.6
v 11.6 -66.0 -42.0
v 12.0 -66.0 -42.3
v 12.0 -66.5 -42.0
v 11.5 -66.0 -32.0
v 12.0 -66.0 -31.5
v 11.4 -65.0 -42.0
v 12.0 -65.0 -42.4
v 11.2 -65.0 -33.0
v 11.6 -65.0 -32.0
v 12.0 -65.0 -31.6
v 12.0 -64.0 -42.5
v 11.4 -64.0 -33.0
v 11.7 -64.0 -32.0
v 12.0 -64.0 -31.7
v 11.4 -63.0 -42.0
v 12.0 -63.0 -42.4
v 11.4 -63.0 -33.0
v 11.8 -63.0 -32.0
v 12.0 -63.0 -31.7
v 11.5 -62.0 -42.0
v 12.0 -62.0 -42.5
v 11.3 -62.0 -34.0
v 11.7 -62.0 -33.0
v 12.0 -62.0 -32.5
v 12.0 -62.6 -32.0
v 11.5 -61.0 -42.0
v 12.0 -61.0 -42.5
v 11.5 -61.0 -34.0
v 12.0 -61.0 -33.4
v 12.0 -61.5 -33.0
v 11.4 -60.0 -42.0
v 12.0 -60.0 -42.6
v 11.6 -60.0 -34.0
v 12.0 -60.0 -33.6
v 11.7 -59.0 -43.0
v 12.0 -59.0 -43.3
v 12.0 -59.5 -43.0
v 12.0 -59.5 -34.0
v 12.0 -59.0 -34.3
v 11.5 -58.0 -43.0
v 12.0 -58.0 -43.4
v 11.4 -58.0 -35.0
v 12.0 -58.0 -34.5
v 11.5 -57.0 -43.0
v 12.0 -57.0 -43.5
v 11.6 -57.0 -35.0
v 12.0 -57.0 -34.6
v 11.5 -56.0 -43.0
v 12.0 -56.0 -43.5
v 12.0 -56.5 -35.0
v 12.0 -56.0 -35.4
v 11.5 -55.0 -43.0
v 12.0 -55.0 -43.5
v 12.0 -55.3 -36.0
v 12.0 -55.0 -36.2
v 11.5 -54.0 -43.0
v 12.0 -54.0 -43.5
v 12.0 -54.0 -36.4
v 11.4 -53.0 -43.0
v 12.0 -53.0 -43.5
v 12.0 -53.0 -36.4
v 12.0 -52.0 -43.6
v 12.0 -52.0 -36.5
v 12.0 -51.0 -43.6
v 12.0 -51.0 -36.5
v 11.5 -50.0 -43.0
v 12.0 -50.0 -43.4
v 12.0 -50.0 -36.5
v 12.0 -49.6 -43.0
v 12.0 -49.0 -42.5
v 12.0 -49.0 -36.5
v 12.0 -48.6 -42.0
v 12.0 -48.4 -41.0
v 11.5 -48.0 -40.0
v 12.0 -48.0 -40.4
v 12.0 -48.0 -36.7
v 12.0 -47.7 -40.0
v 12.0 -47.5 -39.0
v 12.0 -47.5 -38.0
v 12.0 -47.7 -37.0
v 13.0 -73.0 -36.1
v 13.0 -73.1 -36.0
v 12.6 -73.0 -35.0
v 13.0 -73.0 -35.9
v 12.3 -73.0 -34.0
v 12.4 -72.0 -38.0
v 13.0 -72.0 -37.5
v 13.0 -72.4 -37.0
v 13.0 -72.5 -35.0
v 13.0 -72.0 -34.5
v 12.6 -72.0 -34.0
v 12.5 -71.0 -39.0
v 13.0 -71.0 -38.6
v 13.0 -71.6 -38.0
v 13.0 -71.4 -34.0
v 13.0 -71.0 -33.8
v 12.8 -70.0 -41.0
v 13.0 -70.0 -41.1
v 13.0 -70.1 -41.0
v 13.0 -70.5 -40.0
v 13.0 -70.7 -39.0
v 13.0 -70.0 -33.5
v 13.0 -69.0 -41.5
v 13.0 -69.4 -33.0
v 13.0 -69.0 -32.6
v 12.8 -68.0 -42.0
v 13.0 -68.0 -42.1
v 13.0 -68.2 -42.0
v 13.0 -68.5 -32.0
v 13.0 -68.0 -31.6
v 12.4 -67.0 -42.0
v 13.0 -67.0 -42.4
v 13.0 -67.0 -31.3
v 13.0 -66.0 -42.5
v 13.0 -66.3 -31.0
v 12.8 -66.0 -31.0
v 13.0 -66.0 -30.8
v 13.0 -65.0 -42.5
v 13.0 -65.7 -31.0
v 13.0 -65.0 -31.3
v 13.0 -64.0 -42.5
v 13.0 -64.0 -31.4
v 13.0 -63.0 -42.7
v 13.0 -63.0 -31.3
v 12.6 -62.0 -43.0
v 13.0 -62.0 -43.3
v 13.0 -62.5 -43.0
v 12.3 -62.0 -32.0
v 13.0 -62.2 -31.0
v 12.9 -62.0 -31.0
v 13.0 -62.0 -30.9
v 12.5 -61.0 -43.0
v 13.0 -61.0 -43.4
v 12.3 -61.0 -33.0
v 12.6 -61.0 -32.0
v 13.0 -61.0 -31.4
v 13.0 -61.8 -31.0
v 12.4 -60.0 -43.0
v 13.0 -60.0 -43.4
v 12.5 -60.0 -33.0
v 12.8 -60.0 -32.0
v 13.0 -60.0 -31.7
v 13.0 -59.0 -43.5
v 12.3 -59.0 -34.0
v 13.0 -59.0 -33.3
v 13.0 -59.3 -33.0
v 13.0 -59.7 -32.0
v 13.0 -58.0 -43.7
v 12.5 -58.0 -34.0
v 13.0 -58.0 -33.5
v 12.6 -57.0 -44.0
v 13.0 -57.0 -44.3
v 13.0 -57.5 -44.0
v 12.6 -57.0 -34.0
v 13.0 -57.0 -33.6
v 12.5 -56.0 -44.0
v 13.0 -56.0 -44.4
v 12.5 -56.0 -35.0
v 13.0 -56.0 -34.5
v 13.0 -56.6 -34.0
v 12.5 -55.0 -44.0
v 13.0 -55.0 -44.4
v 12.3 -55.0 -36.0
v 13.0 -55.0 -35.4
v 13.0 -55.4 -35.0
v 12.5 -54.0 -44.0
v 13.0 -54.0 -44.4
v 12.5 -54.0 -36.0
v 13.0 -54.0 -35.5
v 12.5 -53.0 -44.0
v 13.0 -53.0 -44.4
v 12.6 -53.0 -36.0
v 13.0 -53.0 -35.7
v 12.5 -52.0 -44.0
v 13.0 -52.0 -44.4
v 13.0 -52.5 -36.0
v 13.0 -52.0 -36.3
v 12.5 -51.0 -44.0
v 13.0 -51.0 -44.4
v 13.0 -51.0 -36.4
v 12.7 -50.0 -44.0
v 13.0 -50.0 -44.2
v 13.0 -50.0 -36.5
v 13.0 -49.8 -44.0
v 13.0 -49.3 -43.0
v 13.0 -49.0 -42.6
v 13.0 -49.0 -36.5
v 13.0 -48.6 -42.0
v 13.0 -48.4 -41.0
v 13.0 -48.0 -40.5
v 13.0 -48.0 -36.6
v 13.0 -47.6 -40.0
v 13.0 -47.5 -39.0
v 13.0 -47.4 -38.0
v 13.0 -47.6 -37.0
v 13.1 -73.0 -36.0
v 13.4 -72.0 -37.0
v 13.6 -72.0 -36.0
v 13.3 -72.0 -35.0
v 14.0 -71.0 -38.2
v 14.0 -71.2 -38.0
v 14.0 -71.5 -37.0
v 14.0 -71.4 -36.0
v 14.0 -71.0 -35.5
v 13.7 -71.0 -35.0
v 13.3 -71.0 -34.0
v 13.2 -70.0 -41.0
v 14.0 -70.0 -40.2
v 14.0 -70.1 -40.0
v 13.9 -70.0 -39.0
v 14.0 -70.0 -39.4
v 14.0 -70.0 -38.8
v 14.0 -70.5 -35.0
v 14.0 -70.0 -34.5
v 13.6 -70.0 -34.0
v 14.0 -69.0 -41.3
v 14.0 -69.4 -41.0
v 14.0 -69.9 -39.0
v 14.0 -69.5 -34.0
v 13.5 -69.0 -33.0
v 14.0 -69.0 -33.4
v 13.2 -68.0 -42.0
v 14.0 -68.0 -41.7
v 14.0 -68.7 -33.0
v 14.0 -68.3 -32.0
v 14.0 -68.0 -31.7
v 14.0 -67.0 -42.3
v 14.0 -67.5 -42.0
v 14.0 -67.2 -31.0
v 13.7 -67.0 -31.0
v 14.0 -67.0 -30.9
v 14.0 -66.0 -42.5
v 14.0 -66.0 -30.6
v 14.0 -65.0 -42.5
v 13.4 -65.0 -31.0
v 14.0 -65.0 -30.6
v 14.0 -64.0 -42.6
v 13.5 -64.0 -31.0
v 14.0 -64.0 -30.5
v 13.7 -63.0 -43.0
v 14.0 -63.0 -43.2
v 14.0 -63.2 -43.0
v 13.4 -63.0 -31.0
v 14.0 -63.0 -30.5
v 14.0 -62.0 -43.5
v 14.0 -62.0 -30.4
v 14.0 -61.0 -43.5
v 13.4 -61.0 -31.0
v 14.0 -61.0 -30.5
v 14.0 -60.0 -43.5
v 13.6 -60.0 -31.0
v 14.0 -60.0 -30.6
v 14.0 -59.0 -43.6
v 13.2 -59.0 -33.0
v 13.5 -59.0 -32.0
v 14.0 -59.0 -31.4
v 14.0 -59.5 -31.0
v 13.7 -58.0 -44.0
v 14.0 -58.0 -44.2
v 14.0 -58.2 -44.0
v 13.4 -58.0 -33.0
v 13.7 -58.0 -32.0
v 14.0 -58.0 -31.6
v 14.0 -57.0 -44.5
v 13.6 -57.0 -33.0
v 14.0 -57.0 -32.5
v 14.0 -57.6 -32.0
v 14.0 -56.0 -44.5
v 13.5 -56.0 -34.0
v 14.0 -56.0 -33.4
v 14.0 -56.5 -33.0
v 14.0 -55.0 -44.5
v 13.4 -55.0 -35.0
v 14.0 -55.0 -34.3
v 14.0 -55.4 -34.0
v 14.0 -54.0 -44.5
v 13.6 -54.0 -35.0
v 14.0 -54.0 -34.6
v 14.0 -53.0 -44.5
v 14.0 -53.5 -35.0
v 14.0 -53.0 -35.3
v 14.0 -52.0 -44.5
v 13.4 -52.0 -36.0
v 14.0 -52.0 -35.5
v 14.0 -51.0 -44.5
v 13.6 -51.0 -36.0
v 14.0 -51.0 -35.7
v 14.0 -50.0 -44.3
v 14.0 -50.5 -36.0
v 14.0 -50.0 -36.3
v 14.0 -49.7 -44.0
v 13.8 -49.0 -43.0
v 14.0 -49.0 -43.1
v 14.0 -49.0 -36.5
v 14.0 -48.9 -43.0
v 14.0 -48.6 -42.0
v 14.0 -48.3 -41.0
v 14.0 -48.0 -40.6
v 14.0 -48.0 -36.5
v 14.0 -47.5 -40.0
v 14.0 -47.3 -39.0
v 13.6 -47.0 -38.0
v 14.0 -47.0 -38.5
v 13.7 -47.0 -37.0
v 14.0 -47.0 -36.8
v 14.0 -46.7 -38.0
v 14.0 -46.8 -37.0
v 14.2 -71.0 -38.0
v 14.4 -71.0 -37.0
v 14.3 -71.0 -36.0
v 14.2 -70.0 -40.0
v 14.7 -70.0 -38.0
v 15.0 -70.0 -37.4
v 15.0 -70.2 -37.0
v 15.0 -70.0 -36.6
v 14.7 -70.0 -36.0
v 14.4 -70.0 -35.0
v 14.4 -69.0 -41.0
v 15.0 -69.0 -40.5
v 15.0 -69.4 -40.0
v 15.0 -69.5 -39.0
v 15.0 -69.7 -38.0
v 15.0 -69.7 -36.0
v 15.0 -69.4 -35.0
v 14.6 -69.0 -34.0
v 15.0 -69.0 -34.5
v 15.0 -68.0 -41.3
v 15.0 -68.4 -41.0
v 15.0 -68.7 -34.0
v 15.0 -68.3 -33.0
v 14.4 -68.0 -32.0
v 15.0 -68.0 -32.5
v 14.5 -67.0 -42.0
v 15.0 -67.0 -41.7
v 15.0 -67.6 -32.0
v 14.3 -67.0 -31.0
v 15.0 -67.0 -31.4
v 15.0 -66.0 -42.3
v 15.0 -66.5 -42.0
v 15.0 -66.6 -31.0
v 15.0 -66.0 -30.6
v 15.0 -65.0 -42.5
v 15.0 -65.0 -30.4
v 15.0 -64.0 -42.5
v 15.0 -64.2 -30.0
v 14.8 -64.0 -30.0
v 15.0 -64.0 -29.9
v 14.5 -63.0 -43.0
v 15.0 -63.0 -42.8
v 14.6 -63.0 -30.0
v 15.0 -63.0 -29.6
v 15.0 -62.0 -43.4
v 15.0 -62.8 -43.0
v 14.5 -62.0 -30.0
v 15.0 -62.0 -29.6
v 15.0 -61.0 -43.5
v 14.5 -61.0 -30.0
v 15.0 -61.0 -29.5
v 15.0 -60.0 -43.5
v 14.4 -60.0 -30.0
v 15.0 -60.0 -29.0
v 15.0 -60.0 -29.0
v 15.0 -60.0 -29.0
v 15.0 -59.0 -43.5
v 14.3 -59.0 -31.0
v 14.5 -59.0 -30.0
v 15.0 -59.0 -29.0
v 15.0 -59.0 -29.0
v 14.3 -58.0 -44.0
v 15.0 -58.0 -43.7
v 14.5 -58.0 -31.0
v 14.8 -58.0 -30.0
v 15.0 -58.0 -29.8
v 15.0 -59.0 -29.0
v 15.0 -57.0 -44.3
v 15.0 -57.5 -44.0
v 14.4 -57.0 -32.0
v 15.0 -57.0 -31.3
v 15.0 -57.4 -31.0
v 15.0 -57.8 -30.0
v 15.0 -56.0 -44.5
v 14.3 -56.0 -33.0
v 14.7 -56.0 -32.0
v 15.0 -56.0 -31.6
v 15.0 -55.0 -44.5
v 14.3 -55.0 -34.0
v 14.6 -55.0 -33.0
v 15.0 -55.0 -32.4
v 15.0 -55.5 -32.0
v 15.0 -54.0 -44.5
v 14.5 -54.0 -34.0
v 14.8 -54.0 -33.0
v 15.0 -54.0 -32.7
v 15.0 -53.0 -44.5
v 14.3 -53.0 -35.0
v 15.0 -53.0 -34.3
v 15.0 -53.3 -34.0
v 15.0 -53.7 -33.0
v 15.0 -52.0 -44.5
v 14.6 -52.0 -35.0
v 15.0 -52.0 -34.6
v 15.0 -51.0 -44.3
v 15.0 -51.5 -35.0
v 15.0 -51.0 -35.3
v 15.0 -50.6 -44.0
v 14.4 -50.0 -44.0
v 15.0 -50.0 -43.5
v 14.5 -50.0 -36.0
v 15.0 -50.0 -35.7
v 14.1 -49.0 -43.0
v 15.0 -49.6 -43.0
v 14.7 -49.0 -42.0
v 15.0 -49.2 -42.0
v 15.0 -49.0 -41.7
v 15.0 -49.5 -36.0
v 15.0 -49.0 -36.3
v 15.0 -48.0 -41.2
v 14.7 -48.0 -41.0
v 15.0 -48.0 -36.5
v 15.0 -47.8 -41.0
v 14.9 -47.0 -40.0
v 15.0 -47.0 -40.1
v 14.4 -47.0 -39.0
v 15.0 -47.0 -36.8
v 15.0 -46.9 -40.0
v 15.0 -46.6 -39.0
v 15.0 -46.5 -38.0
v 15.0 -46.8 -37.0
v 15.2 -70.0 -37.0
v 15.5 -69.0 -40.0
v 16.0 -69.0 -39.4
v 16.0 -69.3 -39.0
v 16.0 -69.4 -38.0
v 16.0 -69.3 -37.0
v 15.6 -69.0 -36.0
v 16.0 -69.0 -36.5
v 15.4 -69.0 -35.0
v 15.5 -68.0 -41.0
v 16.0 -68.0 -40.6
v 16.0 -68.6 -40.0
v 16.0 -68.6 -36.0
v 16.0 -68.5 -35.0
v 16.0 -68.3 -34.0
v 15.5 -68.0 -33.0
v 16.0 -68.0 -33.5
v 16.0 -67.0 -41.3
v 16.0 -67.4 -41.0
v 16.0 -67.7 -33.0
v 16.0 -67.3 -32.0
v 16.0 -67.0 -31.7
v 15.5 -66.0 -42.0
v 16.0 -66.0 -41.6
v 16.0 -66.3 -31.0
v 16.0 -66.0 -30.8
v 16.0 -65.0 -42.3
v 16.0 -65.5 -42.0
v 16.0 -65.0 -30.6
v 16.0 -64.0 -42.6
v 15.2 -64.0 -30.0
v 16.0 -64.0 -30.3
v 15.6 -63.0 -43.0
v 16.0 -63.0 -43.1
v 16.0 -63.2 -43.0
v 16.0 -63.5 -30.0
v 16.0 -63.0 -29.7
v 16.0 -62.0 -43.4
v 16.0 -62.0 -29.6
v 16.0 -61.0 -43.4
v 16.0 -61.0 -29.6
v 16.0 -60.0 -43.5
v 15.0 -60.0 -29.0
v 16.0 -60.0 -29.5
v 16.0 -59.0 -43.5
v 15.0 -59.0 -29.0
v 16.0 -59.0 -29.5
v 16.0 -58.0 -43.5
v 16.0 -58.0 -29.7
v 15.5 -57.0 -44.0
v 16.0 -57.0 -43.7
v 15.4 -57.0 -31.0
v 16.0 -57.0 -30.5
v 16.0 -57.7 -30.0
v 16.0 -56.0 -44.4
v 16.0 -56.6 -44.0
v 15.6 -56.0 -31.0
v 16.0 -56.0 -30.7
v 16.0 -55.0 -44.5
v 15.3 -55.0 -32.0
v 15.9 -55.0 -31.0
v 16.0 -55.0 -30.9
v 16.0 -54.0 -44.5
v 15.6 -54.0 -32.0
v 16.0 -54.0 -31.7
v 16.0 -54.9 -31.0
v 16.0 -53.0 -44.4
v 15.2 -53.0 -34.0
v 15.5 -53.0 -33.0
v 16.0 -53.0 -32.4
v 16.0 -53.5 -32.0
v 16.0 -52.0 -44.2
v 15.5 -52.0 -34.0
v 15.8 -52.0 -33.0
v 16.0 -52.0 -32.8
v 16.0 -51.6 -44.0
v 15.4 -51.0 -44.0
v 16.0 -51.0 -43.5
v 15.4 -51.0 -35.0
v 16.0 -51.0 -34.4
v 16.0 -51.4 -34.0
v 16.0 -51.7 -33.0
v 15.5 -50.0 -43.0
v 16.0 -50.5 -43.0
v 16.0 -50.0 -42.5
v 16.0 -50.4 -35.0
v 16.0 -50.0 -35.3
v 16.0 -49.6 -42.0
v 16.0 -49.0 -41.5
v 15.5 -49.0 -36.0
v 16.0 -49.0 -35.7
v 16.0 -48.4 -41.0
v 15.3 -48.0 -41.0
v 16.0 -48.0 -40.6
v 16.0 -48.6 -36.0
v 16.0 -48.0 -36.5
v 15.2 -47.0 -40.0
v 16.0 -47.4 -40.0
v 16.0 -47.0 -39.6
v 15.4 -47.0 -37.0
v 16.0 -47.4 -37.0
v 16.0 -47.0 -37.4
v 16.0 -46.6 -39.0
v 16.0 -46.6 -38.0
v 16.3 -69.0 -39.0
v 16.4 -69.0 -38.0
v 16.4 -69.0 -37.0
v 17.0 -68.0 -40.0
v 17.0 -68.0 -40.0
v 16.8 -68.0 -39.0
v 17.0 -68.0 -39.9
v 17.0 -68.0 -38.6
v 17.0 -68.4 -38.0
v 17.0 -68.3 -37.0
v 16.6 -68.0 -36.0
v 17.0 -68.0 -36.5
v 16.5 -68.0 -35.0
v 16.4 -68.0 -34.0
v 16.4 -67.0 -41.0
v 17.0 -67.0 -40.5
v 17.0 -67.8 -39.0
v 17.0 -67.6 -36.0
v 17.0 -67.5 -35.0
v 17.0 -67.5 -34.0
v 17.0 -67.3 -33.0
v 16.4 -67.0 -32.0
v 17.0 -67.0 -32.6
v 16.7 -66.0 -41.0
v 17.0 -66.0 -40.7
v 17.0 -66.4 -32.0
v 16.3 -66.0 -31.0
v 17.0 -66.0 -31.7
v 16.5 -65.0 -42.0
v 17.0 -65.0 -41.6
v 17.0 -65.7 -41.0
v 16.6 -65.0 -31.0
v 17.0 -65.0 -31.4
v 17.0 -64.0 -42.3
v 17.0 -64.4 -42.0
v 17.0 -64.5 -31.0
v 17.0 -64.0 -30.7
v 16.2 -63.0 -43.0
v 17.0 -63.0 -42.5
v 16.4 -63.0 -30.0
v 17.0 -63.0 -30.5
v 16.5 -62.0 -43.0
v 17.0 -62.0 -42.6
v 16.5 -62.0 -30.0
v 17.0 -62.0 -30.5
v 16.6 -61.0 -43.0
v 17.0 -61.0 -42.7
v 16.5 -61.0 -30.0
v 17.0 -61.0 -30.5
v 17.0 -60.0 -43.3
v 17.0 -60.5 -43.0
v 16.5 -60.0 -30.0
v 17.0 -60.0 -30.5
v 17.0 -59.0 -43.4
v 16.5 -59.0 -30.0
v 17.0 -59.0 -30.5
v 17.0 -58.0 -43.5
v 16.3 -58.0 -30.0
v 17.0 -58.0 -30.5
v 17.0 -57.0 -43.6
v 17.0 -57.0 -30.6
v 17.0 -56.0 -44.2
v 17.0 -56.3 -44.0
v 17.0 -56.0 -30.7
v 17.0 -55.0 -44.4
v 16.1 -55.0 -31.0
v 17.0 -55.5 -31.0
v 17.0 -55.0 -31.3
v 17.0 -54.0 -44.2
v 17.0 -54.0 -31.6
v 17.0 -53.6 -44.0
v 16.5 -53.0 -44.0
v 17.0 -53.0 -43.5
v 16.8 -53.0 -32.0
v 17.0 -53.0 -31.9
v 16.3 -52.0 -44.0
v 17.0 -52.4 -43.0
v 16.7 -52.0 -43.0
v 17.0 -52.0 -42.7
v 17.0 -52.9 -32.0
v 17.0 -52.0 -32.6
v 16.4 -51.0 -43.0
v 17.0 -51.0 -42.4
v 16.3 -51.0 -34.0
v 16.9 -51.0 -33.0
v 17.0 -51.0 -32.9
v 16.5 -50.0 -42.0
v 17.0 -50.5 -42.0
v 17.0 -50.0 -41.7
v 16.5 -50.0 -35.0
v 17.0 -50.0 -34.0
v 17.0 -50.0 -34.0
v 17.0 -50.9 -33.0
v 17.0 -49.0 -41.3
v 17.0 -49.6 -35.0
v 17.0 -49.0 -35.6
v 17.0 -50.0 -34.0
v 17.0 -48.7 -41.0
v 17.0 -48.0 -40.4
v 17.0 -48.6 -36.0
v 17.0 -48.0 -36.6
v 17.0 -47.6 -40.0
v 17.0 -47.0 -39.3
v 17.0 -47.6 -37.0
v 17.0 -47.0 -37.7
v 17.0 -46.8 -39.0
v 17.0 -46.8 -38.0
v 17.0 -68.0 -40.0
v 17.3 -68.0 -38.0
v 17.3 -68.0 -37.0
v 17.4 -67.0 -40.0
v 17.5 -67.0 -39.0
v 17.6 -67.0 -38.0
v 17.6 -67.0 -37.0
v 17.5 -67.0 -36.0
v 17.5 -67.0 -35.0
v 17.5 -67.0 -34.0
v 17.3 -67.0 -33.0
v 18.0 -66.0 -40.2
v 18.0 -66.2 -40.0
v 18.0 -66.0 -39.5
v 17.9 -66.0 -39.0
v 18.0 -66.0 -38.7
v 18.0 -66.4 -38.0
v 18.0 -66.5 -37.0
v 18.0 -66.6 -36.0
v 18.0 -66.6 -35.0
v 18.0 -66.4 -34.0
v 18.0 -66.0 -33.5
v 17.7 -66.0 -33.0
v 17.3 -66.0 -32.0
v 18.0 -65.0 -41.3
v 18.0 -65.3 -41.0
v 18.0 -65.8 -39.0
v 18.0 -65.6 -33.0
v 18.0 -65.0 -32.5
v 17.6 -65.0 -32.0
v 17.4 -64.0 -42.0
v 18.0 -64.0 -41.5
v 18.0 -64.5 -32.0
v 17.3 -64.0 -31.0
v 18.0 -64.0 -31.6
v 17.7 -63.0 -42.0
v 18.0 -63.0 -41.7
v 17.5 -63.0 -31.0
v 18.0 -63.0 -31.5
v 18.0 -62.0 -42.4
v 18.0 -62.6 -42.0
v 17.5 -62.0 -31.0
v 18.0 -62.0 -31.5
v 18.0 -61.0 -42.5
v 17.5 -61.0 -31.0
v 18.0 -61.0 -31.4
v 17.4 -60.0 -43.0
v 18.0 -60.0 -42.5
v 17.5 -60.0 -31.0
v 18.0 -60.0 -31.4
v 17.6 -59.0 -43.0
v 18.0 -59.0 -42.6
v 17.5 -59.0 -31.0
v 18.0 -59.0 -31.4
v 18.0 -58.0 -43.3
v 18.0 -58.5 -43.0
v 17.5 -58.0 -31.0
v 18.0 -58.0 -31.5
v 18.0 -57.0 -43.4
v 17.5 -57.0 -31.0
v 18.0 -57.0 -31.5
v 17.3 -56.0 -44.0
v 18.0 -56.0 -43.5
v 17.4 -56.0 -31.0
v 18.0 -56.0 -31.5
v 17.4 -55.0 -44.0
v 18.0 -55.0 -43.4
v 18.0 -55.0 -31.7
v 17.3 -54.0 -44.0
v 18.0 -54.5 -43.0
v 17.7 -54.0 -43.0
v 18.0 -54.0 -42.7
v 17.6 -54.0 -32.0
v 18.0 -54.5 -32.0
v 18.0 -54.0 -32.3
v 17.4 -53.0 -43.0
v 18.0 -53.0 -42.4
v 17.1 -53.0 -32.0
v 18.0 -53.0 -32.6
v 17.7 -52.0 -42.0
v 18.0 -52.5 -42.0
v 18.0 -52.0 -41.7
v 17.6 -52.0 -33.0
v 18.0 -52.4 -33.0
v 18.0 -52.0 -33.3
v 17.4 -51.0 -42.0
v 18.0 -51.0 -41.6
v 17.1 -51.0 -33.0
v 18.0 -51.0 -33.6
v 18.0 -50.0 -41.3
v 17.5 -50.0 -35.0
v 18.0 -50.3 -35.0
v 18.0 -50.0 -35.4
v 17.0 -50.0 -34.0
v 18.0 -50.6 -34.0
v 18.0 -49.5 -41.0
v 17.4 -49.0 -41.0
v 18.0 -49.0 -40.6
v 17.4 -49.0 -36.0
v 18.0 -49.5 -36.0
v 18.0 -49.0 -36.5
v 17.5 -48.0 -40.0
v 18.0 -48.4 -40.0
v 18.0 -48.0 -39.6
v 17.4 -48.0 -37.0
v 18.0 -48.5 -37.0
v 18.0 -48.0 -37.5
v 17.3 -47.0 -39.0
v 18.0 -47.5 -39.0
v 17.3 -47.0 -38.0
v 18.0 -47.6 -38.0
v 18.2 -66.0 -40.0
v 18.4 -66.0 -38.0
v 18.6 -66.0 -37.0
v 19.0 -66.0 -36.5
v 19.0 -66.3 -36.0
v 19.0 -66.3 -35.0
v 18.5 -66.0 -34.0
v 19.0 -66.0 -34.6
v 18.3 -65.0 -41.0
v 19.0 -65.0 -40.1
v 19.0 -65.1 -40.0
v 18.8 -65.0 -39.0
v 19.0 -65.0 -39.7
v 19.0 -65.0 -38.6
v 19.0 -65.3 -38.0
v 19.0 -65.6 -37.0
v 19.0 -65.5 -34.0
v 18.5 -65.0 -33.0
v 19.0 -65.0 -33.5
v 18.6 -64.0 -41.0
v 19.0 -64.0 -40.6
v 19.0 -64.7 -39.0
v 19.0 -64.4 -33.0
v 18.4 -64.0 -32.0
v 19.0 -64.0 -32.6
v 19.0 -63.0 -41.3
v 19.0 -63.4 -41.0
v 18.5 -63.0 -32.0
v 19.0 -63.0 -32.5
v 19.0 -62.0 -42.2
v 19.0 -62.3 -42.0
v 18.6 -62.0 -32.0
v 19.0 -62.0 -32.3
v 19.0 -61.0 -42.3
v 19.0 -61.5 -32.0
v 19.0 -61.0 -31.7
v 19.0 -60.5 -42.0
v 18.6 -60.0 -42.0
v 19.0 -60.0 -41.7
v 19.0 -60.0 -31.6
v 18.7 -59.0 -42.0
v 19.0 -59.0 -41.8
v 19.0 -59.0 -31.7
v 18.3 -58.0 -43.0
v 19.0 -58.0 -42.5
v 19.0 -58.7 -42.0
v 18.6 -58.0 -32.0
v 19.0 -58.5 -32.0
v 19.0 -58.0 -32.3
v 18.5 -57.0 -43.0
v 19.0 -57.0 -42.5
v 18.5 -57.0 -32.0
v 19.0 -57.0 -32.5
v 18.5 -56.0 -43.0
v 19.0 -56.0 -42.5
v 18.5 -56.0 -32.0
v 19.0 -56.0 -32.5
v 18.4 -55.0 -43.0
v 19.0 -55.0 -42.4
v 18.4 -55.0 -32.0
v 19.0 -55.0 -32.5
v 18.7 -54.0 -42.0
v 19.0 -54.5 -42.0
v 19.0 -54.0 -41.7
v 19.0 -54.0 -32.7
v 18.4 -53.0 -42.0
v 19.0 -53.0 -41.6
v 18.5 -53.0 -33.0
v 19.0 -53.6 -33.0
v 19.0 -53.0 -33.4
v 19.0 -52.0 -41.5
v 19.0 -52.0 -33.7
v 19.0 -51.0 -41.3
v 18.4 -51.0 -34.0
v 19.0 -51.6 -34.0
v 19.0 -51.0 -34.6
v 19.0 -50.5 -41.0
v 18.5 -50.0 -41.0
v 19.0 -50.0 -40.7
v 18.6 -50.0 -36.0
v 19.0 -50.3 -36.0
v 19.0 -50.0 -36.4
v 19.0 -50.7 -35.0
v 19.0 -49.0 -40.3
v 18.5 -49.0 -37.0
v 19.0 -49.5 -37.0
v 19.0 -49.0 -37.5
v 19.0 -48.7 -40.0
v 19.0 -48.0 -39.1
v 18.5 -48.0 -38.0
v 19.0 -48.5 -38.0
v 19.0 -48.0 -38.8
v 19.0 -47.9 -39.0
v 19.3 -66.0 -36.0
v 19.3 -66.0 -35.0
v 19.1 -65.0 -40.0
v 19.3 -65.0 -38.0
v 19.6 -65.0 -37.0
v 20.0 -65.0 -36.4
v 20.0 -65.3 -36.0
v 20.0 -65.3 -35.0
v 19.5 -65.0 -34.0
v 20.0 -65.0 -34.6
v 19.4 -64.0 -40.0
v 19.4 -64.0 -39.0
v 19.6 -64.0 -38.0
v 20.0 -64.0 -37.4
v 20.0 -64.4 -37.0
v 20.0 -64.4 -34.0
v 19.4 -64.0 -33.0
v 20.0 -64.0 -33.7
v 19.3 -63.0 -41.0
v 19.5 -63.0 -40.0
v 19.5 -63.0 -39.0
v 19.7 -63.0 -38.0
v 20.0 -63.0 -37.6
v 19.6 -63.0 -33.0
v 20.0 -63.0 -33.4
v 19.2 -62.0 -42.0
v 19.6 -62.0 -41.0
v 19.6 -62.0 -40.0
v 19.7 -62.0 -39.0
v 20.0 -62.0 -38.5
v 20.0 -62.5 -38.0
v 20.0 -62.4 -33.0
v 20.0 -62.0 -32.7
v 19.3 -61.0 -42.0
v 20.0 -61.0 -41.3
v 20.0 -61.3 -41.0
v 20.0 -61.5 -40.0
v 20.0 -61.6 -39.0
v 19.4 -61.0 -32.0
v 20.0 -61.0 -32.6
v 20.0 -60.0 -41.4
v 19.5 -60.0 -32.0
v 20.0 -60.0 -32.5
v 20.0 -59.0 -41.4
v 19.4 -59.0 -32.0
v 20.0 -59.0 -32.5
v 20.0 -58.0 -42.1
v 20.0 -58.1 -42.0
v 20.0 -58.0 -32.7
v 20.0 -57.8 -42.0
v 19.6 -57.0 -42.0
v 20.0 -57.0 -41.7
v 19.6 -57.0 -33.0
v 20.0 -57.5 -33.0
v 20.0 -57.0 -33.3
v 19.5 -56.0 -42.0
v 20.0 -56.0 -41.6
v 19.5 -56.0 -33.0
v 20.0 -56.0 -33.5
v 19.4 -55.0 -42.0
v 20.0 -55.0 -41.6
v 19.5 -55.0 -33.0
v 20.0 -55.0 -33.5
v 20.0 -54.0 -41.5
v 19.3 -54.0 -33.0
v 20.0 -54.0 -33.6
v 20.0 -53.0 -41.4
v 19.6 -53.0 -34.0
v 20.0 -53.5 -34.0
v 20.0 -53.0 -34.4
v 20.0 -52.0 -41.3
v 19.3 -52.0 -34.0
v 20.0 -52.0 -34.7
v 20.0 -51.5 -41.0
v 19.5 -51.0 -41.0
v 20.0 -51.0 -40.7
v 19.4 -51.0 -35.0
v 20.0 -51.6 -35.0
v 20.0 -51.0 -35.6
v 20.0 -50.0 -40.3
v 19.6 -50.0 -37.0
v 20.0 -50.3 -37.0
v 20.0 -50.0 -37.5
v 20.0 -50.7 -36.0
v 20.0 -49.6 -40.0
v 19.4 -49.0 -40.0
v 20.0 -49.0 -39.2
v 19.5 -49.0 -38.0
v 20.0 -49.5 -38.0
v 20.0 -49.0 -38.8
v 19.1 -48.0 -39.0
v 20.0 -48.8 -39.0
v 20.3 -65.0 -36.0
v 20.3 -65.0 -35.0
v 20.3 -64.0 -37.0
v 20.5 -64.0 -36.0
v 20.5 -64.0 -35.0
v 20.3 -64.0 -34.0
v 20.4 -63.0 -37.0
v 20.5 -63.0 -36.0
v 20.5 -63.0 -35.0
v 20.4 -63.0 -34.0
v 20.3 -62.0 -38.0
v 20.6 -62.0 -37.0
v 20.6 -62.0 -36.0
v 20.6 -62.0 -35.0
v 20.5 -62.0 -34.0
v 20.2 -62.0 -33.0
v 20.2 -61.0 -41.0
v 20.4 -61.0 -40.0
v 20.4 -61.0 -39.0
v 20.7 -61.0 -38.0
v 21.0 -61.0 -37.5
v 21.0 -61.4 -37.0
v 21.0 -61.5 -36.0
v 21.0 -61.3 -35.0
v 21.0 -61.0 -34.7
v 20.6 -61.0 -34.0
v 20.4 -61.0 -33.0
v 20.4 -60.0 -41.0
v 20.5 -60.0 -40.0
v 20.7 -60.0 -39.0
v 21.0 -60.0 -38.5
v 21.0 -60.5 -38.0
v 20.7 -60.0 -34.0
v 21.0 -60.0 -34.4
v 20.4 -60.0 -33.0
v 20.4 -59.0 -41.0
v 20.6 -59.0 -40.0
v 21.0 -59.0 -39.4
v 21.0 -59.5 -39.0
v 21.0 -59.5 -34.0
v 21.0 -59.0 -33.6
v 20.5 -59.0 -33.0
v 20.1 -58.0 -42.0
v 20.6 -58.0 -41.0
v 20.7 -58.0 -40.0
v 21.0 -58.0 -39.7
v 20.4 -58.0 -33.0
v 21.0 -58.0 -33.6
v 21.0 -57.3 -41.0
v 21.0 -57.0 -41.2
v 21.0 -57.7 -40.0
v 21.0 -57.0 -33.7
v 21.0 -56.0 -41.3
v 20.6 -56.0 -34.0
v 21.0 -56.6 -34.0
v 21.0 -56.0 -34.4
v 21.0 -55.0 -41.3
v 20.5 -55.0 -34.0
v 21.0 -55.0 -34.5
v 21.0 -54.0 -41.2
v 20.4 -54.0 -34.0
v 21.0 -54.0 -34.7
v 21.0 -53.6 -41.0
v 20.6 -53.0 -41.0
v 21.0 -53.0 -40.6
v 20.6 -53.0 -35.0
v 21.0 -53.6 -35.0
v 21.0 -53.0 -35.5
v 20.4 -52.0 -41.0
v 21.0 -52.0 -40.4
v 20.7 -52.0 -36.0
v 21.0 -52.5 -36.0
v 21.0 -52.0 -36.4
v 20.3 -52.0 -35.0
v 21.0 -51.0 -40.2
v 20.3 -51.0 -36.0
v 21.0 -51.0 -36.7
v 21.0 -50.7 -40.0
v 20.3 -50.0 -40.0
v 20.6 -50.0 -39.0
v 21.0 -50.5 -39.0
v 20.4 -50.0 -38.0
v 21.0 -50.6 -38.0
v 21.0 -50.8 -37.0
v 20.1 -49.0 -39.0
v 21.3 -61.0 -37.0
v 21.4 -61.0 -36.0
v 21.3 -61.0 -35.0
v 21.3 -60.0 -38.0
v 21.6 -60.0 -37.0
v 21.6 -60.0 -36.0
v 21.4 -60.0 -35.0
v 21.3 -59.0 -39.0
v 21.7 -59.0 -38.0
v 22.0 -59.0 -37.5
v 22.0 -59.4 -37.0
v 22.0 -59.3 -36.0
v 22.0 -59.0 -35.7
v 21.6 -59.0 -35.0
v 21.3 -59.0 -34.0
v 21.5 -58.0 -39.0
v 22.0 -58.0 -38.4
v 22.0 -58.5 -38.0
v 21.6 -58.0 -35.0
v 22.0 -58.0 -35.5
v 21.4 -58.0 -34.0
v 21.2 -57.0 -41.0
v 21.4 -57.0 -40.0
v 21.6 -57.0 -39.0
v 22.0 -57.0 -38.5
v 21.6 -57.0 -35.0
v 22.0 -57.0 -35.5
v 21.2 -57.0 -34.0
v 21.3 -56.0 -41.0
v 21.5 -56.0 -40.0
v 21.6 -56.0 -39.0
v 22.0 -56.0 -38.5
v 21.5 -56.0 -35.0
v 22.0 -56.0 -35.6
v 21.3 -55.0 -41.0
v 21.5 -55.0 -40.0
v 21.6 -55.0 -39.0
v 22.0 -55.0 -38.3
v 21.7 -55.0 -36.0
v 22.0 -55.5 -36.0
v 22.0 -55.0 -36.5
v 21.4 -55.0 -35.0
v 21.2 -54.0 -41.0
v 21.5 -54.0 -40.0
v 21.5 -54.0 -39.0
v 22.0 -54.7 -38.0
v 21.6 -54.0 -38.0
v 21.6 -54.0 -37.0
v 22.0 -54.6 -37.0
v 21.5 -54.0 -36.0
v 21.3 -54.0 -35.0
v 21.4 -53.0 -40.0
v 21.5 -53.0 -39.0
v 21.5 -53.0 -38.0
v 21.5 -53.0 -37.0
v 21.3 -53.0 -36.0
v 21.4 -52.0 -40.0
v 21.5 -52.0 -39.0
v 21.5 -52.0 -38.0
v 21.4 -52.0 -37.0
v 21.2 -51.0 -40.0
v 21.4 -51.0 -39.0
v 21.4 -51.0 -38.0
v 21.2 -51.0 -37.0
v 22.3 -59.0 -37.0
v 22.2 -59.0 -36.0
v 22.3 -58.0 -38.0
v 22.5 -58.0 -37.0
v 22.4 -58.0 -36.0
v 22.4 -57.0 -38.0
v 22.5 -57.0 -37.0
v 22.4 -57.0 -36.0
v 22.4 -56.0 -38.0
v 22.5 -56.0 -37.0
v 22.3 -56.0 -36.0
v 22.2 -55.0 -38.0
v 22.3 -55.0 -37.0
f 3 2 1
f 5 4 1
f 1 4 3
f 5 6 4
f 1 2 7
f 7 2 8
f 1 9 5
f 1 7 9
f 6 5 10
f 10 5 9
f 8 11 7
f 13 12 11
f 12 7 11
f 12 9 7
f 10 9 14
f 14 9 12
f 12 13 15
f 15 13 16
f 14 12 17
f 17 12 15
f 15 16 18
f 18 16 19
f 17 15 20
f 20 15 18
f 19 21 18
f 18 21 20
f 24 23 22
f 22 25 24
f 27 26 3
f 3 26 2
f 4 22 23
f 27 4 23
f 3 4 27
f 29 28 6
f 6 28 4
f 28 25 4
f 25 22 4
f 29 30 28
f 33 32 31
f 26 33 31
f 8 26 31
f 2 26 8
f 10 34 29
f 10 29 6
f 30 29 35
f 35 29 34
f 32 36 31
f 36 38 37
f 36 37 11
f 31 36 11
f 8 31 11
f 37 13 11
f 14 39 34
f 14 34 10
f 35 34 40
f 40 34 39
f 37 38 41
f 41 38 42
f 41 16 13
f 41 13 37
f 17 43 39
f 17 39 14
f 40 39 44
f 44 39 43
f 41 42 45
f 45 42 46
f 45 19 16
f 45 16 41
f 20 47 43
f 20 43 17
f 44 43 48
f 48 43 47
f 51 50 49
f 51 49 46
f 49 45 46
f 49 52 45
f 53 21 19
f 45 53 19
f 52 53 45
f 47 20 21
f 53 47 21
f 54 47 53
f 48 47 55
f 55 47 54
f 49 50 56
f 56 50 57
f 49 58 52
f 49 56 58
f 52 59 53
f 52 58 59
f 61 54 60
f 54 59 60
f 54 53 59
f 54 61 55
f 56 57 62
f 62 57 63
f 56 64 58
f 56 62 64
f 58 65 59
f 58 64 65
f 60 59 66
f 66 59 65
f 63 67 62
f 69 68 67
f 68 62 67
f 68 64 62
f 71 65 70
f 65 68 70
f 65 64 68
f 65 71 66
f 69 72 68
f 68 72 70
f 74 73 24
f 24 73 23
f 76 75 25
f 75 24 25
f 75 74 24
f 76 77 75
f 80 79 78
f 26 27 78
f 27 80 78
f 27 81 80
f 27 23 73
f 27 73 81
f 28 76 25
f 28 30 76
f 30 77 76
f 30 82 77
f 85 84 83
f 85 83 79
f 79 83 78
f 83 32 78
f 32 33 78
f 78 33 26
f 35 82 30
f 35 86 82
f 83 84 87
f 87 84 88
f 89 36 32
f 83 89 32
f 87 89 83
f 89 38 36
f 40 86 35
f 40 90 86
f 87 88 91
f 91 88 92
f 87 93 89
f 87 91 93
f 93 42 38
f 93 38 89
f 44 90 40
f 44 94 90
f 97 96 95
f 97 95 92
f 95 91 92
f 95 98 91
f 91 99 93
f 91 98 99
f 99 46 42
f 99 42 93
f 48 94 44
f 48 100 94
f 95 96 101
f 101 96 102
f 95 103 98
f 95 101 103
f 103 50 51
f 99 103 51
f 98 103 99
f 99 51 46
f 106 105 104
f 105 100 104
f 100 55 104
f 100 48 55
f 101 102 107
f 107 102 108
f 101 109 103
f 101 107 109
f 109 57 50
f 109 50 103
f 106 104 61
f 60 106 61
f 110 106 60
f 61 104 55
f 108 111 107
f 113 112 111
f 112 107 111
f 112 109 107
f 112 63 57
f 112 57 109
f 66 110 60
f 66 114 110
f 112 113 115
f 115 113 116
f 117 67 63
f 112 117 63
f 115 117 112
f 117 69 67
f 70 118 71
f 118 119 71
f 119 66 71
f 119 114 66
f 116 120 115
f 122 121 120
f 121 115 120
f 121 117 115
f 123 72 69
f 117 123 69
f 121 123 117
f 123 124 72
f 72 124 70
f 124 125 70
f 125 118 70
f 118 125 119
f 121 122 126
f 126 122 127
f 129 123 128
f 123 126 128
f 123 121 126
f 123 129 124
f 132 131 130
f 133 126 127
f 130 134 132
f 126 133 128
f 130 131 135
f 135 131 136
f 134 130 137
f 130 138 137
f 130 135 138
f 138 139 137
f 136 140 135
f 142 141 140
f 141 135 140
f 141 138 135
f 139 138 143
f 143 138 141
f 142 144 141
f 141 144 143
f 147 146 145
f 149 148 145
f 145 148 147
f 151 150 149
f 149 150 148
f 151 152 150
f 155 154 153
f 155 153 146
f 146 153 145
f 153 73 145
f 73 74 145
f 145 74 75
f 145 75 149
f 149 75 77
f 156 149 77
f 151 149 156
f 152 151 157
f 157 151 156
f 159 158 80
f 80 158 79
f 81 153 154
f 159 81 154
f 80 81 159
f 153 81 73
f 82 160 156
f 82 156 77
f 157 156 161
f 161 156 160
f 163 162 85
f 85 162 84
f 85 79 158
f 85 158 163
f 86 164 160
f 86 160 82
f 161 160 165
f 165 160 164
f 168 167 166
f 162 168 166
f 88 162 166
f 84 162 88
f 170 169 164
f 86 170 164
f 90 170 86
f 164 169 165
f 166 167 171
f 171 167 172
f 171 92 88
f 171 88 166
f 94 174 173
f 170 94 173
f 90 94 170
f 174 175 173
f 171 172 97
f 172 96 97
f 172 176 96
f 171 97 92
f 178 177 174
f 94 178 174
f 100 178 94
f 174 177 175
f 176 102 96
f 179 102 176
f 181 180 105
f 181 105 106
f 100 105 178
f 178 105 180
f 184 183 182
f 179 184 182
f 108 179 182
f 102 179 108
f 110 181 106
f 110 185 181
f 183 186 182
f 186 188 187
f 186 187 111
f 182 186 111
f 108 182 111
f 187 113 111
f 114 185 110
f 114 189 185
f 187 188 190
f 190 188 191
f 190 116 113
f 190 113 187
f 194 193 192
f 193 189 192
f 189 119 192
f 189 114 119
f 191 195 190
f 195 197 196
f 195 196 120
f 190 195 120
f 116 190 120
f 196 122 120
f 194 192 125
f 124 194 125
f 198 194 124
f 125 192 119
f 201 200 199
f 201 199 197
f 199 196 197
f 199 202 196
f 202 127 122
f 202 122 196
f 128 203 129
f 203 204 129
f 204 124 129
f 204 198 124
f 199 200 205
f 205 200 206
f 205 131 132
f 202 205 132
f 199 205 202
f 207 132 134
f 207 202 132
f 207 133 127
f 202 207 127
f 203 128 133
f 207 203 133
f 208 203 207
f 204 203 209
f 209 203 208
f 205 206 210
f 210 206 211
f 210 136 131
f 210 131 205
f 137 207 134
f 208 207 212
f 207 139 212
f 139 213 212
f 139 207 137
f 208 212 209
f 210 211 214
f 214 211 215
f 216 140 136
f 210 216 136
f 214 216 210
f 216 142 140
f 143 218 217
f 213 143 217
f 139 143 213
f 218 219 217
f 214 215 220
f 220 215 221
f 214 222 216
f 214 220 222
f 223 144 142
f 216 223 142
f 222 223 216
f 218 143 144
f 223 218 144
f 224 218 223
f 219 218 225
f 225 218 224
f 221 226 220
f 228 227 226
f 227 220 226
f 227 222 220
f 222 229 223
f 222 227 229
f 223 230 224
f 223 229 230
f 225 224 231
f 231 224 230
f 228 232 227
f 227 232 229
f 229 232 233
f 229 233 230
f 230 233 234
f 230 234 231
f 237 236 235
f 235 238 237
f 241 240 239
f 241 239 236
f 239 235 236
f 239 242 235
f 238 235 243
f 243 235 242
f 240 244 239
f 246 245 244
f 245 239 244
f 245 242 239
f 243 242 247
f 247 242 245
f 246 248 245
f 245 248 247
f 251 250 249
f 249 252 251
f 255 254 253
f 257 256 253
f 253 256 255
f 257 258 256
f 249 250 259
f 259 250 260
f 147 261 146
f 261 249 146
f 249 259 146
f 249 261 252
f 148 253 254
f 261 148 254
f 147 148 261
f 253 148 150
f 253 150 257
f 263 262 152
f 152 262 150
f 262 258 150
f 258 257 150
f 263 264 262
f 267 266 265
f 267 265 260
f 260 265 259
f 265 154 259
f 154 155 259
f 259 155 146
f 269 268 263
f 152 269 263
f 157 269 152
f 263 268 264
f 272 271 270
f 272 270 266
f 266 270 265
f 270 158 265
f 158 159 265
f 265 159 154
f 161 269 157
f 161 273 269
f 276 275 274
f 276 274 271
f 271 274 270
f 274 162 270
f 162 163 270
f 270 163 158
f 165 273 161
f 165 277 273
f 280 279 278
f 280 278 275
f 275 278 274
f 278 167 274
f 167 168 274
f 274 168 162
f 170 281 169
f 281 282 169
f 282 165 169
f 282 277 165
f 278 279 283
f 283 279 284
f 283 172 167
f 283 167 278
f 173 281 170
f 173 175 281
f 175 282 281
f 175 285 282
f 283 284 286
f 286 284 287
f 286 176 172
f 286 172 283
f 289 288 177
f 289 177 178
f 175 177 285
f 285 177 288
f 286 287 290
f 290 287 291
f 290 179 176
f 290 176 286
f 181 292 180
f 292 293 180
f 293 178 180
f 293 289 178
f 290 291 184
f 291 183 184
f 291 294 183
f 290 184 179
f 296 295 292
f 181 296 292
f 185 296 181
f 292 295 293
f 186 183 297
f 183 298 297
f 183 294 298
f 297 188 186
f 189 296 185
f 189 299 296
f 297 298 300
f 300 298 301
f 300 191 188
f 300 188 297
f 303 302 193
f 303 193 194
f 189 193 299
f 299 193 302
f 301 304 300
f 304 306 305
f 304 305 195
f 300 304 195
f 191 300 195
f 305 197 195
f 198 303 194
f 198 307 303
f 305 306 201
f 306 200 201
f 306 308 200
f 305 201 197
f 204 307 198
f 204 309 307
f 312 311 310
f 308 312 310
f 206 308 310
f 200 308 206
f 209 309 204
f 209 313 309
f 310 311 314
f 314 311 315
f 314 211 206
f 314 206 310
f 213 316 212
f 316 317 212
f 317 209 212
f 317 313 209
f 314 315 318
f 318 315 319
f 318 215 211
f 318 211 314
f 217 316 213
f 217 219 316
f 219 317 316
f 219 320 317
f 318 319 321
f 321 319 322
f 321 221 215
f 321 215 318
f 225 320 219
f 225 323 320
f 321 322 324
f 324 322 325
f 326 226 221
f 321 326 221
f 324 326 321
f 326 228 226
f 231 323 225
f 231 327 323
f 325 328 324
f 330 329 328
f 329 324 328
f 329 326 324
f 331 232 228
f 326 331 228
f 329 331 326
f 332 233 232
f 332 232 331
f 233 332 333
f 334 233 333
f 234 233 334
f 231 234 327
f 327 234 334
f 329 330 335
f 335 330 336
f 329 337 331
f 329 335 337
f 331 338 332
f 331 337 338
f 333 332 339
f 339 332 338
f 342 341 340
f 342 340 336
f 340 335 336
f 340 343 335
f 335 344 337
f 335 343 344
f 337 345 338
f 337 344 345
f 339 338 346
f 346 338 345
f 340 341 347
f 347 341 348
f 340 349 343
f 340 347 349
f 349 236 237
f 344 349 237
f 343 349 344
f 344 237 238
f 350 344 238
f 345 344 350
f 346 345 351
f 351 345 350
f 347 348 352
f 352 348 353
f 352 240 241
f 349 352 241
f 347 352 349
f 349 241 236
f 243 354 350
f 243 350 238
f 351 350 355
f 355 350 354
f 353 356 352
f 356 358 357
f 356 357 244
f 352 356 244
f 240 352 244
f 357 246 244
f 247 359 354
f 247 354 243
f 355 354 360
f 360 354 359
f 358 361 357
f 357 361 246
f 361 248 246
f 361 362 248
f 247 248 359
f 248 363 359
f 248 362 363
f 359 363 360
f 366 365 364
f 250 251 364
f 251 366 364
f 251 367 366
f 369 368 252
f 368 251 252
f 368 367 251
f 254 255 369
f 255 368 369
f 255 370 368
f 371 255 256
f 371 370 255
f 256 258 371
f 371 258 372
f 364 365 373
f 373 365 374
f 373 260 250
f 373 250 364
f 261 369 252
f 369 261 254
f 375 372 258
f 375 258 262
f 262 264 375
f 375 264 376
f 379 378 377
f 379 377 374
f 374 377 373
f 377 266 373
f 266 267 373
f 373 267 260
f 269 380 268
f 380 381 268
f 381 264 268
f 381 376 264
f 384 383 382
f 384 382 378
f 378 382 377
f 382 271 377
f 271 272 377
f 377 272 266
f 273 385 380
f 273 380 269
f 381 380 386
f 386 380 385
f 389 388 387
f 389 387 383
f 383 387 382
f 387 275 382
f 275 276 382
f 382 276 271
f 391 390 385
f 273 391 385
f 277 391 273
f 385 390 386
f 387 388 280
f 388 279 280
f 388 392 279
f 387 280 275
f 282 391 277
f 282 393 391
f 396 395 394
f 392 396 394
f 284 392 394
f 279 392 284
f 285 393 282
f 285 397 393
f 394 395 398
f 398 395 399
f 398 287 284
f 398 284 394
f 401 400 288
f 401 288 289
f 285 288 397
f 397 288 400
f 398 399 402
f 402 399 403
f 402 291 287
f 402 287 398
f 293 401 289
f 293 404 401
f 402 403 405
f 405 403 406
f 405 294 291
f 405 291 402
f 408 407 295
f 408 295 296
f 293 295 404
f 404 295 407
f 406 409 405
f 294 405 409
f 410 294 409
f 298 294 410
f 299 408 296
f 299 411 408
f 410 301 298
f 412 301 410
f 303 413 302
f 413 414 302
f 414 299 302
f 414 411 299
f 304 301 415
f 301 416 415
f 301 412 416
f 415 306 304
f 418 417 413
f 303 418 413
f 307 418 303
f 413 417 414
f 415 416 419
f 419 416 420
f 419 308 306
f 419 306 415
f 309 418 307
f 309 421 418
f 424 423 422
f 424 422 420
f 420 422 419
f 422 311 419
f 311 312 419
f 419 312 308
f 313 421 309
f 313 425 421
f 422 423 426
f 426 423 427
f 426 315 311
f 426 311 422
f 317 425 313
f 317 428 425
f 426 427 429
f 429 427 430
f 429 319 315
f 429 315 426
f 320 428 317
f 320 431 428
f 429 430 432
f 432 430 433
f 432 322 319
f 432 319 429
f 323 431 320
f 323 434 431
f 432 433 435
f 435 433 436
f 435 325 322
f 435 322 432
f 327 434 323
f 327 437 434
f 435 436 438
f 438 436 439
f 440 328 325
f 435 440 325
f 438 440 435
f 440 330 328
f 442 441 334
f 442 334 333
f 327 334 437
f 437 334 441
f 438 439 443
f 443 439 444
f 438 445 440
f 438 443 445
f 445 336 330
f 445 330 440
f 339 442 333
f 339 446 442
f 443 444 447
f 447 444 448
f 447 341 342
f 445 447 342
f 443 447 445
f 445 342 336
f 346 446 339
f 346 449 446
f 452 451 450
f 452 450 448
f 450 447 448
f 450 453 447
f 453 348 341
f 453 341 447
f 351 449 346
f 351 454 449
f 451 455 450
f 457 456 455
f 456 450 455
f 456 453 450
f 456 353 348
f 456 348 453
f 355 454 351
f 355 458 454
f 456 457 459
f 459 457 460
f 461 356 353
f 456 461 353
f 459 461 456
f 461 358 356
f 360 458 355
f 360 462 458
f 460 463 459
f 459 463 461
f 461 463 464
f 461 464 358
f 464 361 358
f 464 465 361
f 465 467 466
f 362 465 466
f 361 465 362
f 362 466 468
f 469 362 468
f 363 362 469
f 360 363 462
f 462 363 469
f 467 470 466
f 466 470 468
f 473 472 471
f 475 474 471
f 471 474 473
f 475 476 474
f 478 477 366
f 366 477 365
f 479 366 367
f 479 478 366
f 368 471 472
f 479 368 472
f 367 368 479
f 471 368 370
f 471 370 475
f 480 476 475
f 370 480 475
f 371 480 370
f 371 372 480
f 480 372 481
f 484 483 482
f 477 484 482
f 374 477 482
f 365 477 374
f 372 375 485
f 486 372 485
f 481 372 486
f 376 485 375
f 489 488 487
f 489 487 483
f 483 487 482
f 487 378 482
f 378 379 482
f 482 379 374
f 486 485 490
f 486 490 491
f 381 490 376
f 376 490 485
f 494 493 492
f 494 492 488
f 488 492 487
f 492 383 487
f 383 384 487
f 487 384 378
f 491 490 495
f 491 495 496
f 386 495 381
f 381 495 490
f 492 493 389
f 493 388 389
f 493 497 388
f 492 389 383
f 496 495 390
f 391 496 390
f 498 496 391
f 390 495 386
f 501 500 499
f 497 501 499
f 392 497 499
f 388 497 392
f 393 498 391
f 393 502 498
f 499 500 396
f 500 395 396
f 500 503 395
f 499 396 392
f 397 502 393
f 397 504 502
f 503 399 395
f 505 399 503
f 401 506 400
f 506 507 400
f 507 397 400
f 507 504 397
f 505 403 399
f 508 403 505
f 510 509 506
f 401 510 506
f 404 510 401
f 506 509 507
f 513 512 511
f 508 513 511
f 406 508 511
f 403 508 406
f 408 514 407
f 514 515 407
f 515 404 407
f 515 510 404
f 512 516 511
f 516 518 517
f 516 517 409
f 511 516 409
f 406 511 409
f 517 410 409
f 411 519 514
f 411 514 408
f 515 514 520
f 520 514 519
f 517 518 521
f 521 518 522
f 521 412 410
f 521 410 517
f 524 523 519
f 411 524 519
f 414 524 411
f 519 523 520
f 521 522 525
f 525 522 526
f 525 416 412
f 525 412 521
f 418 527 417
f 527 528 417
f 528 414 417
f 528 524 414
f 525 526 529
f 529 526 530
f 529 420 416
f 529 416 525
f 421 531 527
f 421 527 418
f 528 527 532
f 532 527 531
f 535 534 533
f 535 533 530
f 530 533 529
f 533 423 529
f 423 424 529
f 529 424 420
f 425 536 531
f 425 531 421
f 532 531 537
f 537 531 536
f 533 534 538
f 538 534 539
f 538 427 423
f 538 423 533
f 541 540 536
f 425 541 536
f 428 541 425
f 536 540 537
f 538 539 542
f 542 539 543
f 542 430 427
f 542 427 538
f 431 541 428
f 431 544 541
f 542 543 545
f 545 543 546
f 545 433 430
f 545 430 542
f 434 544 431
f 434 547 544
f 545 546 548
f 548 546 549
f 548 436 433
f 548 433 545
f 552 551 550
f 551 547 550
f 547 437 550
f 547 434 437
f 548 549 553
f 553 549 554
f 553 439 436
f 553 436 548
f 552 550 441
f 442 552 441
f 555 552 442
f 441 550 437
f 553 554 556
f 556 554 557
f 556 444 439
f 556 439 553
f 446 555 442
f 446 558 555
f 561 560 559
f 561 559 557
f 559 556 557
f 559 562 556
f 562 448 444
f 562 444 556
f 449 558 446
f 449 563 558
f 559 560 564
f 564 560 565
f 564 451 452
f 562 564 452
f 559 564 562
f 562 452 448
f 454 563 449
f 454 566 563
f 565 567 564
f 567 569 568
f 567 568 455
f 564 567 455
f 451 564 455
f 568 457 455
f 458 566 454
f 458 570 566
f 568 569 571
f 571 569 572
f 571 460 457
f 571 457 568
f 462 570 458
f 462 573 570
f 572 574 571
f 571 574 460
f 574 463 460
f 574 575 463
f 463 576 464
f 575 576 463
f 576 578 577
f 465 576 577
f 464 576 465
f 577 467 465
f 468 579 469
f 579 580 469
f 580 462 469
f 580 573 462
f 578 581 577
f 577 581 467
f 581 470 467
f 581 582 470
f 468 470 579
f 470 583 579
f 470 582 583
f 579 583 580
f 584 472 473
f 474 585 473
f 473 585 584
f 476 585 474
f 586 477 478
f 586 478 587
f 478 588 587
f 478 479 588
f 479 472 584
f 589 479 584
f 588 479 589
f 589 584 585
f 589 585 590
f 592 590 591
f 591 590 480
f 590 585 480
f 585 476 480
f 481 591 480
f 594 593 484
f 484 593 483
f 484 477 586
f 595 484 586
f 594 484 595
f 595 586 587
f 592 591 596
f 592 596 597
f 486 596 481
f 481 596 591
f 599 598 489
f 489 598 488
f 489 483 593
f 489 593 599
f 597 596 600
f 597 600 601
f 491 600 486
f 486 600 596
f 603 602 494
f 494 602 493
f 494 488 598
f 494 598 603
f 601 600 604
f 601 604 605
f 496 604 491
f 491 604 600
f 608 607 606
f 602 608 606
f 497 602 606
f 493 602 497
f 609 605 604
f 604 496 609
f 496 610 609
f 496 498 610
f 606 607 501
f 607 500 501
f 607 611 500
f 606 501 497
f 502 613 612
f 610 502 612
f 498 502 610
f 613 614 612
f 611 503 500
f 615 503 611
f 504 616 613
f 504 613 502
f 614 613 617
f 617 613 616
f 620 619 618
f 615 620 618
f 505 615 618
f 503 615 505
f 507 621 616
f 507 616 504
f 617 616 622
f 622 616 621
f 618 619 623
f 623 619 624
f 623 508 505
f 623 505 618
f 510 625 509
f 621 507 509
f 625 621 509
f 626 621 625
f 622 621 627
f 627 621 626
f 623 624 513
f 624 512 513
f 624 628 512
f 623 513 508
f 515 629 625
f 515 625 510
f 625 630 626
f 625 629 630
f 627 626 631
f 631 626 630
f 516 512 632
f 512 633 632
f 512 628 633
f 632 518 516
f 520 634 629
f 520 629 515
f 629 635 630
f 629 634 635
f 631 630 636
f 636 630 635
f 632 633 637
f 637 633 638
f 637 522 518
f 637 518 632
f 524 639 523
f 634 520 523
f 639 634 523
f 640 634 639
f 642 635 641
f 635 640 641
f 635 634 640
f 635 642 636
f 637 638 643
f 643 638 644
f 643 526 522
f 643 522 637
f 528 645 639
f 528 639 524
f 647 640 646
f 640 645 646
f 640 639 645
f 640 647 641
f 643 644 648
f 648 644 649
f 648 530 526
f 648 526 643
f 532 650 645
f 532 645 528
f 646 645 651
f 651 645 650
f 654 653 652
f 654 652 649
f 649 652 648
f 652 534 648
f 534 535 648
f 648 535 530
f 656 655 650
f 532 656 650
f 537 656 532
f 650 655 651
f 652 653 657
f 657 653 658
f 657 539 534
f 657 534 652
f 541 659 540
f 659 660 540
f 660 537 540
f 660 656 537
f 657 658 661
f 661 658 662
f 661 543 539
f 661 539 657
f 544 663 659
f 544 659 541
f 660 659 664
f 664 659 663
f 661 662 665
f 665 662 666
f 665 546 543
f 665 543 661
f 668 667 663
f 544 668 663
f 547 668 544
f 663 667 664
f 665 666 669
f 669 666 670
f 669 549 546
f 669 546 665
f 672 671 551
f 672 551 552
f 547 551 668
f 668 551 671
f 669 670 673
f 673 670 674
f 673 554 549
f 673 549 669
f 555 672 552
f 555 675 672
f 673 674 676
f 676 674 677
f 676 557 554
f 676 554 673
f 558 675 555
f 558 678 675
f 676 677 561
f 677 560 561
f 677 679 560
f 676 561 557
f 563 678 558
f 563 680 678
f 679 565 560
f 681 565 679
f 566 680 563
f 566 682 680
f 567 565 683
f 565 684 683
f 565 681 684
f 683 569 567
f 570 682 566
f 570 685 682
f 684 686 683
f 569 683 686
f 687 569 686
f 572 569 687
f 573 685 570
f 573 688 685
f 687 689 572
f 572 689 574
f 574 690 575
f 689 690 574
f 690 692 691
f 576 690 691
f 575 690 576
f 691 578 576
f 580 688 573
f 580 693 688
f 692 694 691
f 691 694 578
f 694 581 578
f 694 695 581
f 581 696 582
f 695 696 581
f 582 697 583
f 696 697 582
f 580 583 693
f 693 583 697
f 699 698 588
f 588 698 587
f 701 699 700
f 699 589 700
f 699 588 589
f 590 702 589
f 589 702 700
f 592 702 590
f 703 593 594
f 703 594 704
f 594 705 704
f 594 595 705
f 595 587 698
f 595 698 705
f 706 701 700
f 708 707 706
f 700 708 706
f 702 708 700
f 597 708 592
f 592 708 702
f 709 598 599
f 710 709 599
f 710 599 593
f 711 710 593
f 703 711 593
f 711 703 704
f 712 707 708
f 708 597 712
f 597 713 712
f 597 601 713
f 716 715 714
f 602 603 714
f 603 716 714
f 603 717 716
f 603 598 709
f 718 603 709
f 717 603 718
f 718 709 710
f 605 713 601
f 605 719 713
f 714 715 608
f 715 607 608
f 715 720 607
f 714 608 602
f 721 719 605
f 721 605 609
f 609 610 721
f 721 610 722
f 725 724 723
f 720 725 723
f 611 720 723
f 607 720 611
f 726 722 610
f 726 610 612
f 612 614 726
f 726 614 727
f 723 724 728
f 728 724 729
f 728 615 611
f 728 611 723
f 617 727 614
f 617 730 727
f 728 729 620
f 729 619 620
f 729 731 619
f 728 620 615
f 622 733 732
f 730 622 732
f 617 622 730
f 733 734 732
f 731 624 619
f 735 624 731
f 737 736 733
f 622 737 733
f 627 737 622
f 733 736 734
f 735 628 624
f 738 628 735
f 631 737 627
f 631 739 737
f 738 633 628
f 740 633 738
f 636 739 631
f 636 741 739
f 744 743 742
f 740 744 742
f 638 740 742
f 633 740 638
f 641 745 642
f 741 636 746
f 636 745 746
f 745 747 746
f 636 642 745
f 747 748 746
f 742 743 749
f 749 743 750
f 749 644 638
f 749 638 742
f 646 751 647
f 745 641 647
f 751 745 647
f 752 745 751
f 754 747 753
f 747 752 753
f 747 745 752
f 747 754 748
f 749 750 755
f 755 750 756
f 755 649 644
f 755 644 749
f 651 757 751
f 651 751 646
f 751 758 752
f 751 757 758
f 753 752 759
f 759 752 758
f 755 756 654
f 756 653 654
f 756 760 653
f 755 654 649
f 656 761 655
f 761 762 655
f 655 762 651
f 762 763 651
f 763 757 651
f 757 763 758
f 758 763 764
f 758 764 759
f 760 658 653
f 765 658 760
f 660 766 761
f 660 761 656
f 762 761 767
f 767 761 766
f 770 769 768
f 765 770 768
f 662 765 768
f 658 765 662
f 664 771 766
f 664 766 660
f 767 766 772
f 772 766 771
f 768 769 773
f 773 769 774
f 773 666 662
f 773 662 768
f 668 775 667
f 775 776 667
f 667 776 664
f 776 777 664
f 777 771 664
f 771 777 772
f 773 774 778
f 778 774 779
f 778 670 666
f 778 666 773
f 672 780 671
f 780 781 671
f 671 781 668
f 781 782 668
f 782 775 668
f 775 782 776
f 778 779 783
f 783 779 784
f 783 674 670
f 783 670 778
f 675 785 780
f 675 780 672
f 781 780 786
f 786 780 785
f 783 784 787
f 787 784 788
f 787 677 674
f 787 674 783
f 678 789 785
f 678 785 675
f 786 785 790
f 790 785 789
f 787 788 791
f 791 788 792
f 791 679 677
f 791 677 787
f 794 793 789
f 678 794 789
f 680 794 678
f 789 793 790
f 791 792 795
f 795 792 796
f 795 681 679
f 795 679 791
f 682 794 680
f 682 797 794
f 795 796 798
f 798 796 799
f 798 684 681
f 798 681 795
f 685 797 682
f 685 800 797
f 799 801 798
f 798 801 684
f 801 686 684
f 801 802 686
f 687 686 802
f 687 802 803
f 688 800 685
f 688 804 800
f 803 805 687
f 687 805 689
f 689 806 690
f 805 806 689
f 692 690 806
f 692 806 807
f 693 804 688
f 693 808 804
f 807 809 692
f 692 809 694
f 694 810 695
f 809 810 694
f 695 811 696
f 810 811 695
f 696 812 697
f 811 812 696
f 693 697 808
f 808 697 812
f 813 698 699
f 701 813 699
f 814 704 705
f 698 813 705
f 813 814 705
f 813 815 814
f 706 816 701
f 816 813 701
f 816 815 813
f 707 816 706
f 818 817 711
f 711 817 710
f 711 704 814
f 819 711 814
f 818 711 819
f 819 814 815
f 819 815 820
f 822 821 820
f 815 822 820
f 816 822 815
f 712 823 707
f 823 816 707
f 823 822 816
f 713 823 712
f 824 715 716
f 824 716 825
f 716 826 825
f 716 717 826
f 828 826 827
f 826 718 827
f 826 717 718
f 829 827 718
f 710 829 718
f 817 829 710
f 830 821 822
f 832 831 830
f 822 832 830
f 823 832 822
f 719 832 713
f 713 832 823
f 834 833 824
f 833 715 824
f 833 720 715
f 834 824 825
f 835 828 827
f 835 827 829
f 836 831 832
f 838 836 837
f 837 836 721
f 836 832 721
f 832 719 721
f 722 837 721
f 839 724 725
f 840 839 725
f 720 840 725
f 833 840 720
f 841 838 837
f 841 837 722
f 726 841 722
f 842 841 726
f 726 727 842
f 842 727 843
f 845 844 839
f 844 724 839
f 844 729 724
f 845 839 840
f 730 847 846
f 843 730 846
f 727 730 843
f 847 848 846
f 844 731 729
f 849 731 844
f 732 847 730
f 732 734 847
f 734 848 847
f 734 850 848
f 849 735 731
f 851 735 849
f 737 852 736
f 852 853 736
f 853 734 736
f 853 850 734
f 851 738 735
f 854 738 851
f 739 855 852
f 739 852 737
f 853 852 856
f 856 852 855
f 859 858 857
f 854 859 857
f 740 854 857
f 738 854 740
f 741 860 855
f 741 855 739
f 856 855 861
f 861 855 860
f 857 858 744
f 858 743 744
f 858 862 743
f 857 744 740
f 746 860 741
f 746 748 860
f 748 861 860
f 748 863 861
f 862 750 743
f 864 750 862
f 753 865 754
f 865 866 754
f 866 748 754
f 866 863 748
f 864 756 750
f 867 756 864
f 759 868 865
f 759 865 753
f 866 865 869
f 869 865 868
f 867 760 756
f 870 760 867
f 762 871 763
f 872 764 763
f 872 763 871
f 872 873 764
f 764 873 759
f 873 874 759
f 874 868 759
f 868 874 869
f 877 876 875
f 870 877 875
f 765 870 875
f 760 870 765
f 767 878 871
f 767 871 762
f 871 879 872
f 871 878 879
f 873 872 880
f 880 872 879
f 875 876 770
f 876 769 770
f 876 881 769
f 875 770 765
f 772 882 878
f 772 878 767
f 884 879 883
f 879 882 883
f 879 878 882
f 879 884 880
f 881 774 769
f 885 774 881
f 776 886 777
f 886 887 777
f 777 887 772
f 887 888 772
f 888 882 772
f 882 888 883
f 885 779 774
f 889 779 885
f 781 890 782
f 890 891 782
f 782 891 776
f 891 892 776
f 892 886 776
f 886 892 887
f 889 784 779
f 893 784 889
f 786 894 890
f 786 890 781
f 891 890 895
f 895 890 894
f 893 788 784
f 896 788 893
f 898 897 894
f 786 898 894
f 790 898 786
f 894 897 895
f 896 792 788
f 899 792 896
f 794 900 793
f 900 901 793
f 901 790 793
f 901 898 790
f 899 796 792
f 902 796 899
f 797 903 900
f 797 900 794
f 901 900 904
f 904 900 903
f 902 799 796
f 905 799 902
f 907 906 903
f 797 907 903
f 800 907 797
f 903 906 904
f 905 908 799
f 799 908 801
f 908 910 909
f 802 908 909
f 801 908 802
f 909 803 802
f 804 907 800
f 804 911 907
f 910 912 909
f 909 912 803
f 912 805 803
f 912 913 805
f 805 914 806
f 913 914 805
f 807 806 914
f 807 914 915
f 808 911 804
f 808 916 911
f 915 917 807
f 807 917 809
f 809 918 810
f 917 918 809
f 918 920 919
f 811 918 919
f 810 918 811
f 921 812 811
f 921 811 919
f 921 922 812
f 922 808 812
f 922 916 808
f 920 923 919
f 919 923 921
f 921 923 924
f 921 924 922
f 925 817 818
f 819 926 818
f 818 926 925
f 820 927 819
f 819 927 926
f 821 927 820
f 928 825 826
f 828 928 826
f 929 829 925
f 925 829 817
f 926 931 930
f 929 926 930
f 925 926 929
f 933 932 931
f 926 933 931
f 927 933 926
f 830 934 821
f 934 927 821
f 934 933 927
f 831 934 830
f 935 833 834
f 936 935 834
f 936 834 825
f 937 936 825
f 928 937 825
f 937 928 828
f 835 937 828
f 938 937 835
f 835 829 929
f 939 835 929
f 938 835 939
f 939 929 930
f 940 932 933
f 940 933 934
f 940 934 941
f 943 941 942
f 942 941 836
f 941 934 836
f 934 831 836
f 838 942 836
f 945 944 935
f 944 833 935
f 944 840 833
f 945 935 936
f 946 943 942
f 946 942 838
f 841 946 838
f 947 946 841
f 949 947 948
f 947 842 948
f 947 841 842
f 843 948 842
f 950 844 845
f 951 950 845
f 840 951 845
f 944 951 840
f 952 949 948
f 954 952 953
f 953 952 846
f 952 948 846
f 948 843 846
f 848 953 846
f 956 955 950
f 955 844 950
f 955 849 844
f 956 950 951
f 957 954 953
f 953 848 957
f 848 958 957
f 848 850 958
f 955 851 849
f 959 851 955
f 853 958 850
f 853 960 958
f 959 854 851
f 961 854 959
f 856 963 962
f 960 856 962
f 853 856 960
f 963 964 962
f 965 858 859
f 966 965 859
f 854 966 859
f 961 966 854
f 861 967 963
f 861 963 856
f 964 963 968
f 968 963 967
f 970 969 965
f 969 858 965
f 969 862 858
f 970 965 966
f 863 971 967
f 863 967 861
f 968 967 972
f 972 967 971
f 969 864 862
f 973 864 969
f 866 974 971
f 866 971 863
f 972 971 975
f 975 971 974
f 973 867 864
f 976 867 973
f 869 977 974
f 869 974 866
f 975 974 978
f 974 979 978
f 974 977 979
f 979 980 978
f 976 870 867
f 981 870 976
f 873 982 874
f 977 869 874
f 982 977 874
f 983 977 982
f 977 984 979
f 977 983 984
f 980 979 985
f 985 979 984
f 986 876 877
f 987 986 877
f 870 987 877
f 981 987 870
f 880 988 982
f 880 982 873
f 982 989 983
f 982 988 989
f 991 984 990
f 984 989 990
f 984 983 989
f 984 991 985
f 993 992 986
f 992 876 986
f 992 881 876
f 993 986 987
f 883 994 884
f 994 995 884
f 884 995 880
f 995 996 880
f 996 988 880
f 988 996 989
f 989 996 997
f 989 997 990
f 992 885 881
f 998 885 992
f 887 999 888
f 994 883 888
f 999 994 888
f 1000 994 999
f 995 994 1001
f 1001 994 1000
f 998 889 885
f 1002 889 998
f 891 1003 892
f 999 887 892
f 1003 999 892
f 1004 999 1003
f 1006 1000 1005
f 1000 1004 1005
f 1000 999 1004
f 1000 1006 1001
f 1002 893 889
f 1007 893 1002
f 895 1008 1003
f 895 1003 891
f 1003 1009 1004
f 1003 1008 1009
f 1005 1004 1010
f 1010 1004 1009
f 1007 896 893
f 1011 896 1007
f 898 1012 897
f 1012 1013 897
f 897 1013 895
f 1013 1014 895
f 1014 1008 895
f 1008 1014 1009
f 1009 1014 1015
f 1009 1015 1010
f 1011 899 896
f 1016 899 1011
f 901 1017 1012
f 901 1012 898
f 1013 1012 1018
f 1018 1012 1017
f 1016 902 899
f 1019 902 1016
f 1021 1020 1017
f 901 1021 1017
f 904 1021 901
f 1017 1020 1018
f 1023 905 1022
f 905 1019 1022
f 905 902 1019
f 1024 1023 1022
f 907 1025 906
f 1025 1026 906
f 1026 904 906
f 1026 1021 904
f 1023 908 905
f 1028 1027 910
f 1028 910 908
f 1024 1028 908
f 1023 1024 908
f 1030 1029 1027
f 1030 1027 1028
f 1031 1029 1030
f 1033 1032 1025
f 907 1033 1025
f 911 1033 907
f 1025 1032 1026
f 1027 912 910
f 912 1027 913
f 913 1027 1029
f 914 913 1029
f 1034 914 1029
f 1031 1034 1029
f 1035 914 1034
f 1035 915 914
f 916 1033 911
f 916 1036 1033
f 1034 1037 1035
f 1037 1039 1038
f 1037 1038 917
f 1035 1037 917
f 915 1035 917
f 1040 918 917
f 1040 917 1038
f 1040 920 918
f 922 1036 916
f 922 1041 1036
f 1039 1042 1038
f 1038 1042 1040
f 1040 1042 1043
f 1040 1043 920
f 1043 923 920
f 1043 1044 923
f 923 1045 924
f 1044 1045 923
f 922 924 1041
f 1041 924 1045
f 1046 930 931
f 932 1046 931
f 1047 936 937
f 1047 937 1048
f 937 1049 1048
f 937 938 1049
f 1050 938 939
f 1050 1049 938
f 939 930 1046
f 1051 939 1046
f 1050 939 1051
f 1053 1051 1052
f 1052 1051 940
f 1051 1046 940
f 1046 932 940
f 941 1054 940
f 940 1054 1052
f 943 1054 941
f 1055 944 945
f 1056 1055 945
f 1056 945 936
f 1057 1056 936
f 1047 1057 936
f 1057 1047 1048
f 1058 1053 1052
f 1058 1052 1054
f 1058 1054 1059
f 1059 1054 943
f 946 1059 943
f 1060 1059 946
f 1062 1060 1061
f 1060 947 1061
f 1060 946 947
f 949 1061 947
f 1064 1063 1055
f 1063 944 1055
f 1063 951 944
f 1064 1055 1056
f 1065 1062 1061
f 1065 1061 949
f 952 1065 949
f 1066 1065 952
f 952 954 1066
f 1066 954 1067
f 1068 955 956
f 1069 1068 956
f 951 1069 956
f 1063 1069 951
f 1070 1067 954
f 1070 954 957
f 957 958 1070
f 1070 958 1071
f 1073 1072 1068
f 1072 955 1068
f 1072 959 955
f 1073 1068 1069
f 960 1071 958
f 960 1074 1071
f 1072 961 959
f 1075 961 1072
f 960 962 1076
f 1077 960 1076
f 1074 960 1077
f 964 1076 962
f 1080 1079 1078
f 1075 1080 1078
f 966 1075 1078
f 961 1075 966
f 1081 1077 1076
f 1076 964 1081
f 964 1082 1081
f 964 968 1082
f 1078 1079 970
f 1079 969 970
f 1079 1083 969
f 1078 970 966
f 972 1082 968
f 972 1084 1082
f 1083 973 969
f 1085 973 1083
f 975 1084 972
f 975 1086 1084
f 1085 976 973
f 1087 976 1085
f 975 978 1088
f 1089 975 1088
f 1086 975 1089
f 980 1088 978
f 1087 981 976
f 1090 981 1087
f 1089 1088 1091
f 1089 1091 1092
f 985 1091 980
f 980 1091 1088
f 1090 987 981
f 1093 987 1090
f 1092 1091 991
f 990 1092 991
f 1094 1092 990
f 991 1091 985
f 1095 992 993
f 1096 1095 993
f 987 1096 993
f 1093 1096 987
f 995 1097 996
f 996 1097 1098
f 1099 996 1098
f 997 996 1099
f 990 997 1094
f 1094 997 1099
f 1101 1100 1095
f 1100 992 1095
f 1100 998 992
f 1101 1095 1096
f 1001 1102 1097
f 1001 1097 995
f 1098 1097 1103
f 1103 1097 1102
f 1100 1002 998
f 1104 1002 1100
f 1005 1105 1006
f 1102 1001 1006
f 1105 1102 1006
f 1106 1102 1105
f 1103 1102 1107
f 1107 1102 1106
f 1104 1007 1002
f 1108 1007 1104
f 1010 1109 1105
f 1010 1105 1005
f 1111 1106 1110
f 1106 1109 1110
f 1106 1105 1109
f 1106 1111 1107
f 1108 1011 1007
f 1112 1011 1108
f 1013 1113 1014
f 1114 1015 1014
f 1114 1014 1113
f 1114 1115 1015
f 1015 1115 1010
f 1115 1116 1010
f 1116 1109 1010
f 1109 1116 1110
f 1112 1016 1011
f 1117 1016 1112
f 1018 1118 1113
f 1018 1113 1013
f 1113 1119 1114
f 1113 1118 1119
f 1115 1114 1120
f 1120 1114 1119
f 1122 1019 1121
f 1019 1117 1121
f 1019 1016 1117
f 1123 1122 1121
f 1021 1124 1020
f 1124 1125 1020
f 1020 1125 1018
f 1125 1126 1018
f 1126 1118 1018
f 1118 1126 1119
f 1119 1126 1127
f 1119 1127 1120
f 1122 1022 1019
f 1129 1128 1024
f 1129 1024 1022
f 1123 1129 1022
f 1122 1123 1022
f 1130 1128 1129
f 1132 1131 1124
f 1021 1132 1124
f 1026 1132 1021
f 1124 1131 1125
f 1128 1028 1024
f 1130 1133 1128
f 1133 1028 1128
f 1133 1030 1028
f 1031 1030 1133
f 1031 1133 1134
f 1033 1135 1032
f 1135 1136 1032
f 1136 1026 1032
f 1136 1132 1026
f 1138 1034 1137
f 1034 1134 1137
f 1034 1031 1134
f 1139 1138 1137
f 1141 1140 1135
f 1033 1141 1135
f 1036 1141 1033
f 1135 1140 1136
f 1138 1037 1034
f 1143 1142 1039
f 1143 1039 1037
f 1139 1143 1037
f 1138 1139 1037
f 1144 1142 1143
f 1147 1146 1145
f 1146 1141 1145
f 1141 1041 1145
f 1141 1036 1041
f 1142 1042 1039
f 1144 1148 1142
f 1148 1042 1142
f 1148 1043 1042
f 1043 1149 1044
f 1148 1149 1043
f 1145 1045 1147
f 1045 1149 1147
f 1045 1044 1149
f 1045 1145 1041
f 1150 1048 1049
f 1050 1151 1049
f 1049 1151 1150
f 1051 1152 1050
f 1050 1152 1151
f 1053 1152 1051
f 1154 1153 1057
f 1057 1153 1056
f 1154 1057 1048
f 1155 1154 1048
f 1150 1155 1048
f 1154 1155 1156
f 1151 1158 1157
f 1155 1151 1157
f 1150 1151 1155
f 1158 1151 1152
f 1158 1152 1159
f 1161 1159 1160
f 1160 1159 1058
f 1159 1152 1058
f 1152 1053 1058
f 1059 1162 1058
f 1058 1162 1160
f 1060 1163 1059
f 1059 1163 1162
f 1062 1163 1060
f 1164 1063 1064
f 1165 1164 1064
f 1056 1165 1064
f 1153 1165 1056
f 1166 1156 1155
f 1166 1155 1157
f 1167 1161 1160
f 1167 1160 1162
f 1167 1162 1168
f 1168 1162 1163
f 1168 1163 1169
f 1169 1163 1062
f 1065 1169 1062
f 1170 1169 1065
f 1172 1170 1171
f 1170 1066 1171
f 1170 1065 1066
f 1067 1171 1066
f 1173 1069 1164
f 1164 1069 1063
f 1164 1165 1174
f 1164 1174 1173
f 1175 1172 1171
f 1177 1175 1176
f 1176 1175 1070
f 1175 1171 1070
f 1171 1067 1070
f 1071 1176 1070
f 1178 1072 1073
f 1179 1178 1073
f 1179 1073 1069
f 1180 1179 1069
f 1173 1180 1069
f 1180 1173 1174
f 1177 1176 1181
f 1177 1181 1182
f 1074 1181 1071
f 1071 1181 1176
f 1184 1183 1178
f 1183 1072 1178
f 1183 1075 1072
f 1184 1178 1179
f 1185 1182 1181
f 1181 1074 1185
f 1074 1186 1185
f 1074 1077 1186
f 1187 1079 1080
f 1188 1187 1080
f 1075 1188 1080
f 1183 1188 1075
f 1077 1081 1189
f 1190 1077 1189
f 1186 1077 1190
f 1082 1189 1081
f 1191 1083 1187
f 1187 1083 1079
f 1187 1188 1192
f 1187 1192 1191
f 1190 1189 1193
f 1190 1193 1194
f 1084 1193 1082
f 1082 1193 1189
f 1195 1085 1191
f 1191 1085 1083
f 1191 1192 1196
f 1191 1196 1195
f 1194 1193 1197
f 1194 1197 1198
f 1086 1197 1084
f 1084 1197 1193
f 1200 1199 1195
f 1199 1085 1195
f 1199 1087 1085
f 1200 1195 1196
f 1198 1197 1201
f 1198 1201 1202
f 1089 1201 1086
f 1086 1201 1197
f 1199 1090 1087
f 1203 1090 1199
f 1202 1201 1204
f 1202 1204 1205
f 1092 1204 1089
f 1089 1204 1201
f 1203 1093 1090
f 1206 1093 1203
f 1205 1204 1207
f 1205 1207 1208
f 1094 1207 1092
f 1092 1207 1204
f 1206 1096 1093
f 1209 1096 1206
f 1208 1207 1099
f 1098 1208 1099
f 1210 1208 1098
f 1099 1207 1094
f 1212 1211 1101
f 1101 1211 1100
f 1101 1096 1209
f 1101 1209 1212
f 1103 1210 1098
f 1103 1213 1210
f 1211 1104 1100
f 1214 1104 1211
f 1217 1216 1215
f 1216 1213 1215
f 1213 1107 1215
f 1213 1103 1107
f 1214 1108 1104
f 1218 1108 1214
f 1217 1215 1111
f 1110 1217 1111
f 1219 1217 1110
f 1111 1215 1107
f 1221 1112 1220
f 1112 1218 1220
f 1112 1108 1218
f 1222 1221 1220
f 1115 1223 1116
f 1223 1224 1116
f 1224 1110 1116
f 1224 1219 1110
f 1225 1117 1221
f 1221 1117 1112
f 1221 1222 1226
f 1227 1221 1226
f 1225 1221 1227
f 1228 1227 1226
f 1230 1229 1223
f 1115 1230 1223
f 1120 1230 1115
f 1223 1229 1224
f 1225 1121 1117
f 1121 1225 1123
f 1225 1231 1123
f 1225 1227 1231
f 1227 1228 1232
f 1227 1232 1231
f 1125 1233 1126
f 1234 1127 1126
f 1234 1126 1233
f 1234 1235 1127
f 1235 1120 1127
f 1235 1230 1120
f 1231 1129 1123
f 1237 1236 1130
f 1237 1130 1129
f 1232 1237 1129
f 1231 1232 1129
f 1238 1236 1237
f 1132 1239 1131
f 1233 1125 1131
f 1239 1233 1131
f 1240 1233 1239
f 1242 1234 1241
f 1234 1240 1241
f 1234 1233 1240
f 1234 1242 1235
f 1236 1133 1130
f 1134 1133 1236
f 1238 1134 1236
f 1243 1134 1238
f 1245 1244 1239
f 1132 1245 1239
f 1136 1245 1132
f 1239 1244 1240
f 1240 1244 1246
f 1240 1246 1241
f 1243 1247 1134
f 1134 1247 1137
f 1139 1137 1247
f 1139 1247 1248
f 1250 1249 1140
f 1250 1140 1141
f 1136 1140 1245
f 1245 1140 1249
f 1248 1251 1139
f 1139 1251 1143
f 1144 1143 1251
f 1144 1251 1252
f 1254 1253 1146
f 1254 1146 1147
f 1141 1146 1250
f 1250 1146 1253
f 1252 1255 1144
f 1144 1255 1148
f 1148 1256 1149
f 1255 1256 1148
f 1147 1149 1254
f 1254 1149 1256
f 1257 1153 1154
f 1156 1257 1154
f 1258 1157 1158
f 1159 1259 1158
f 1158 1259 1258
f 1161 1259 1159
f 1260 1165 1257
f 1257 1165 1153
f 1166 1261 1156
f 1261 1257 1156
f 1261 1260 1257
f 1157 1258 1166
f 1258 1261 1166
f 1258 1262 1261
f 1263 1258 1259
f 1262 1258 1263
f 1167 1264 1161
f 1264 1259 1161
f 1264 1263 1259
f 1168 1265 1167
f 1167 1265 1264
f 1169 1266 1168
f 1168 1266 1265
f 1170 1267 1169
f 1169 1267 1266
f 1172 1267 1170
f 1269 1268 1260
f 1268 1165 1260
f 1268 1174 1165
f 1271 1270 1269
f 1260 1271 1269
f 1261 1271 1260
f 1262 1273 1272
f 1271 1262 1272
f 1261 1262 1271
f 1273 1262 1263
f 1273 1263 1274
f 1274 1263 1264
f 1274 1264 1275
f 1275 1264 1265
f 1275 1265 1276
f 1276 1265 1266
f 1276 1266 1277
f 1279 1278 1277
f 1266 1279 1277
f 1267 1279 1266
f 1175 1280 1172
f 1280 1267 1172
f 1280 1279 1267
f 1177 1280 1175
f 1282 1281 1180
f 1180 1281 1179
f 1180 1174 1268
f 1180 1268 1282
f 1283 1270 1271
f 1283 1271 1272
f 1284 1278 1279
f 1286 1285 1284
f 1279 1286 1284
f 1280 1286 1279
f 1182 1286 1177
f 1177 1286 1280
f 1287 1183 1184
f 1288 1287 1184
f 1179 1288 1184
f 1281 1288 1179
f 1289 1285 1286
f 1291 1289 1290
f 1290 1289 1185
f 1289 1286 1185
f 1286 1182 1185
f 1186 1290 1185
f 1292 1188 1287
f 1287 1188 1183
f 1287 1288 1293
f 1287 1293 1292
f 1291 1290 1294
f 1291 1294 1295
f 1190 1294 1186
f 1186 1294 1290
f 1297 1296 1292
f 1296 1188 1292
f 1296 1192 1188
f 1297 1292 1293
f 1295 1294 1298
f 1295 1298 1299
f 1194 1298 1190
f 1190 1298 1294
f 1296 1196 1192
f 1300 1196 1296
f 1299 1298 1301
f 1299 1301 1302
f 1198 1301 1194
f 1194 1301 1298
f 1303 1199 1200
f 1304 1303 1200
f 1196 1304 1200
f 1300 1304 1196
f 1302 1301 1305
f 1302 1305 1306
f 1202 1305 1198
f 1198 1305 1301
f 1307 1203 1303
f 1303 1203 1199
f 1303 1304 1308
f 1303 1308 1307
f 1306 1305 1309
f 1306 1309 1310
f 1205 1309 1202
f 1202 1309 1305
f 1312 1311 1307
f 1311 1203 1307
f 1311 1206 1203
f 1312 1307 1308
f 1310 1309 1313
f 1310 1313 1314
f 1208 1313 1205
f 1205 1313 1309
f 1311 1209 1206
f 1315 1209 1311
f 1314 1313 1316
f 1314 1316 1317
f 1210 1316 1208
f 1208 1316 1313
f 1318 1211 1212
f 1319 1318 1212
f 1209 1319 1212
f 1315 1319 1209
f 1317 1316 1320
f 1317 1320 1321
f 1213 1320 1210
f 1210 1320 1316
f 1322 1214 1318
f 1318 1214 1211
f 1318 1319 1323
f 1318 1323 1322
f 1321 1320 1216
f 1217 1321 1216
f 1324 1321 1217
f 1216 1320 1213
f 1325 1218 1322
f 1322 1218 1214
f 1322 1323 1326
f 1327 1322 1326
f 1325 1322 1327
f 1328 1327 1326
f 1331 1330 1329
f 1330 1324 1329
f 1324 1219 1329
f 1324 1217 1219
f 1325 1220 1218
f 1220 1325 1222
f 1325 1332 1222
f 1325 1327 1332
f 1327 1328 1333
f 1327 1333 1332
f 1331 1329 1334
f 1331 1334 1335
f 1224 1334 1219
f 1219 1334 1329
f 1332 1226 1222
f 1337 1336 1228
f 1337 1228 1226
f 1333 1337 1226
f 1332 1333 1226
f 1338 1336 1337
f 1341 1340 1339
f 1339 1340 1335
f 1339 1335 1334
f 1230 1339 1334
f 1229 1230 1334
f 1229 1334 1224
f 1342 1232 1336
f 1336 1232 1228
f 1336 1338 1343
f 1336 1343 1342
f 1341 1339 1344
f 1341 1344 1345
f 1235 1344 1230
f 1230 1344 1339
f 1342 1237 1232
f 1238 1237 1342
f 1343 1238 1342
f 1346 1238 1343
f 1349 1348 1347
f 1351 1350 1347
f 1351 1347 1348
f 1350 1351 1345
f 1350 1345 1344
f 1241 1350 1344
f 1242 1241 1344
f 1242 1344 1235
f 1353 1243 1352
f 1243 1346 1352
f 1243 1238 1346
f 1354 1353 1352
f 1357 1356 1355
f 1355 1356 1349
f 1355 1349 1347
f 1245 1355 1347
f 1244 1245 1347
f 1244 1347 1246
f 1246 1347 1350
f 1246 1350 1241
f 1353 1247 1243
f 1359 1358 1248
f 1359 1248 1247
f 1354 1359 1247
f 1353 1354 1247
f 1360 1358 1359
f 1363 1362 1361
f 1361 1362 1357
f 1361 1357 1355
f 1250 1361 1355
f 1249 1250 1355
f 1249 1355 1245
f 1358 1251 1248
f 1365 1364 1252
f 1365 1252 1251
f 1360 1365 1251
f 1358 1360 1251
f 1367 1366 1364
f 1367 1364 1365
f 1366 1367 1363
f 1366 1363 1361
f 1254 1366 1361
f 1253 1254 1361
f 1253 1361 1250
f 1364 1255 1252
f 1255 1364 1256
f 1256 1364 1366
f 1256 1366 1254
f 1368 1268 1269
f 1270 1368 1269
f 1369 1272 1273
f 1274 1370 1273
f 1273 1370 1369
f 1370 1274 1371
f 1274 1372 1371
f 1274 1275 1372
f 1373 1275 1276
f 1373 1372 1275
f 1375 1373 1374
f 1373 1277 1374
f 1373 1276 1277
f 1278 1374 1277
f 1376 1281 1282
f 1377 1376 1282
f 1377 1282 1268
f 1378 1377 1268
f 1368 1378 1268
f 1380 1378 1379
f 1379 1378 1283
f 1378 1368 1283
f 1368 1270 1283
f 1381 1379 1283
f 1381 1283 1272
f 1382 1381 1272
f 1369 1382 1272
f 1382 1369 1370
f 1382 1370 1383
f 1383 1370 1371
f 1384 1375 1374
f 1386 1384 1385
f 1385 1384 1284
f 1384 1374 1284
f 1374 1278 1284
f 1285 1385 1284
f 1387 1288 1376
f 1376 1288 1281
f 1376 1377 1388
f 1376 1388 1387
f 1389 1380 1379
f 1389 1379 1381
f 1390 1386 1385
f 1392 1390 1391
f 1391 1390 1289
f 1390 1385 1289
f 1385 1285 1289
f 1291 1391 1289
f 1394 1393 1387
f 1393 1288 1387
f 1393 1293 1288
f 1394 1387 1388
f 1392 1391 1395
f 1392 1395 1396
f 1295 1395 1291
f 1291 1395 1391
f 1398 1397 1297
f 1297 1397 1296
f 1297 1293 1393
f 1297 1393 1398
f 1396 1395 1399
f 1396 1399 1400
f 1299 1399 1295
f 1295 1399 1395
f 1397 1300 1296
f 1401 1300 1397
f 1402 1400 1399
f 1399 1299 1402
f 1299 1403 1402
f 1299 1302 1403
f 1405 1304 1404
f 1304 1401 1404
f 1304 1300 1401
f 1406 1405 1404
f 1306 1403 1302
f 1306 1407 1403
f 1408 1308 1405
f 1405 1308 1304
f 1405 1406 1409
f 1405 1409 1408
f 1310 1407 1306
f 1310 1410 1407
f 1411 1311 1312
f 1412 1411 1312
f 1412 1312 1308
f 1413 1412 1308
f 1408 1413 1308
f 1413 1408 1409
f 1416 1415 1414
f 1415 1410 1414
f 1410 1314 1414
f 1410 1310 1314
f 1417 1315 1411
f 1411 1315 1311
f 1411 1412 1418
f 1411 1418 1417
f 1416 1414 1419
f 1416 1419 1420
f 1317 1419 1314
f 1314 1419 1414
f 1421 1319 1417
f 1417 1319 1315
f 1417 1418 1422
f 1417 1422 1421
f 1420 1419 1423
f 1420 1423 1424
f 1321 1423 1317
f 1317 1423 1419
f 1425 1323 1421
f 1421 1323 1319
f 1421 1422 1426
f 1421 1426 1425
f 1424 1423 1427
f 1424 1427 1428
f 1324 1427 1321
f 1321 1427 1423
f 1425 1326 1323
f 1430 1429 1328
f 1430 1328 1326
f 1426 1430 1326
f 1425 1426 1326
f 1431 1429 1430
f 1428 1427 1330
f 1331 1428 1330
f 1432 1428 1331
f 1330 1427 1324
f 1433 1333 1429
f 1429 1333 1328
f 1429 1431 1434
f 1429 1434 1433
f 1437 1436 1435
f 1436 1432 1435
f 1432 1335 1435
f 1432 1331 1335
f 1433 1337 1333
f 1338 1337 1433
f 1434 1338 1433
f 1438 1338 1434
f 1437 1435 1340
f 1341 1437 1340
f 1439 1437 1341
f 1340 1435 1335
f 1438 1343 1338
f 1440 1343 1438
f 1443 1442 1441
f 1442 1439 1441
f 1439 1345 1441
f 1439 1341 1345
f 1445 1346 1444
f 1346 1440 1444
f 1346 1343 1440
f 1446 1445 1444
f 1449 1448 1447
f 1348 1349 1447
f 1448 1348 1447
f 1450 1348 1448
f 1441 1351 1443
f 1351 1450 1443
f 1351 1348 1450
f 1351 1441 1345
f 1445 1352 1346
f 1354 1352 1445
f 1446 1354 1445
f 1451 1354 1446
f 1454 1453 1452
f 1452 1453 1449
f 1452 1449 1447
f 1357 1452 1447
f 1356 1357 1447
f 1356 1447 1349
f 1451 1455 1354
f 1354 1455 1359
f 1360 1359 1455
f 1360 1455 1456
f 1459 1458 1457
f 1457 1458 1454
f 1457 1454 1452
f 1363 1457 1452
f 1362 1363 1452
f 1362 1452 1357
f 1456 1460 1360
f 1360 1460 1365
f 1457 1367 1459
f 1367 1460 1459
f 1367 1365 1460
f 1367 1457 1363
f 1461 1371 1372
f 1373 1462 1372
f 1372 1462 1461
f 1375 1462 1373
f 1463 1377 1378
f 1380 1463 1378
f 1464 1381 1382
f 1383 1465 1382
f 1382 1465 1464
f 1466 1465 1383
f 1466 1383 1371
f 1467 1466 1371
f 1461 1467 1371
f 1467 1461 1462
f 1467 1462 1468
f 1470 1468 1469
f 1469 1468 1384
f 1468 1462 1384
f 1462 1375 1384
f 1386 1469 1384
f 1471 1388 1463
f 1463 1388 1377
f 1389 1472 1380
f 1472 1463 1380
f 1472 1471 1463
f 1381 1464 1389
f 1464 1472 1389
f 1464 1473 1472
f 1465 1475 1474
f 1473 1465 1474
f 1464 1465 1473
f 1475 1465 1466
f 1476 1470 1469
f 1478 1476 1477
f 1477 1476 1390
f 1476 1469 1390
f 1469 1386 1390
f 1392 1477 1390
f 1479 1393 1394
f 1388 1471 1394
f 1471 1479 1394
f 1471 1480 1479
f 1481 1471 1472
f 1480 1471 1481
f 1482 1472 1473
f 1481 1472 1482
f 1473 1474 1483
f 1473 1483 1482
f 1478 1477 1484
f 1478 1484 1485
f 1396 1484 1392
f 1392 1484 1477
f 1486 1397 1398
f 1393 1479 1398
f 1479 1486 1398
f 1479 1487 1486
f 1488 1479 1480
f 1487 1479 1488
f 1489 1480 1481
f 1488 1480 1489
f 1482 1491 1490
f 1489 1482 1490
f 1481 1482 1489
f 1491 1482 1483
f 1492 1485 1484
f 1484 1396 1492
f 1396 1493 1492
f 1396 1400 1493
f 1494 1401 1486
f 1486 1401 1397
f 1487 1496 1495
f 1494 1487 1495
f 1486 1487 1494
f 1496 1487 1488
f 1496 1488 1497
f 1497 1488 1489
f 1497 1489 1498
f 1498 1489 1490
f 1400 1402 1499
f 1500 1400 1499
f 1493 1400 1500
f 1403 1499 1402
f 1494 1404 1401
f 1406 1404 1494
f 1495 1406 1494
f 1501 1406 1495
f 1500 1499 1502
f 1500 1502 1503
f 1407 1502 1403
f 1403 1502 1499
f 1501 1409 1406
f 1504 1409 1501
f 1503 1502 1505
f 1503 1505 1506
f 1410 1505 1407
f 1407 1505 1502
f 1508 1507 1413
f 1413 1507 1412
f 1413 1409 1504
f 1413 1504 1508
f 1506 1505 1415
f 1416 1506 1415
f 1509 1506 1416
f 1415 1505 1410
f 1511 1418 1510
f 1418 1507 1510
f 1418 1412 1507
f 1512 1511 1510
f 1515 1514 1513
f 1514 1509 1513
f 1509 1420 1513
f 1509 1416 1420
f 1516 1422 1511
f 1511 1422 1418
f 1511 1512 1517
f 1511 1517 1516
f 1515 1513 1518
f 1515 1518 1519
f 1424 1518 1420
f 1420 1518 1513
f 1520 1426 1516
f 1516 1426 1422
f 1516 1517 1521
f 1516 1521 1520
f 1519 1518 1522
f 1519 1522 1523
f 1428 1522 1424
f 1424 1522 1518
f 1520 1430 1426
f 1431 1430 1520
f 1521 1431 1520
f 1524 1431 1521
f 1523 1522 1525
f 1523 1525 1526
f 1432 1525 1428
f 1428 1525 1522
f 1524 1434 1431
f 1527 1434 1524
f 1530 1529 1528
f 1528 1529 1526
f 1528 1526 1525
f 1437 1528 1525
f 1436 1437 1525
f 1436 1525 1432
f 1527 1438 1434
f 1531 1438 1527
f 1530 1528 1532
f 1530 1532 1533
f 1439 1532 1437
f 1437 1532 1528
f 1535 1440 1534
f 1440 1531 1534
f 1440 1438 1531
f 1536 1535 1534
f 1539 1538 1537
f 1537 1538 1533
f 1537 1533 1532
f 1443 1537 1532
f 1442 1443 1532
f 1442 1532 1439
f 1535 1444 1440
f 1446 1444 1535
f 1536 1446 1535
f 1540 1446 1536
f 1543 1542 1541
f 1448 1449 1541
f 1542 1448 1541
f 1544 1448 1542
f 1537 1450 1539
f 1450 1544 1539
f 1450 1448 1544
f 1450 1537 1443
f 1546 1451 1545
f 1451 1540 1545
f 1451 1446 1540
f 1547 1546 1545
f 1550 1549 1548
f 1548 1549 1543
f 1548 1543 1541
f 1454 1548 1541
f 1453 1454 1541
f 1453 1541 1449
f 1546 1455 1451
f 1552 1551 1456
f 1552 1456 1455
f 1547 1552 1455
f 1546 1547 1455
f 1551 1552 1550
f 1551 1550 1548
f 1459 1551 1548
f 1458 1459 1548
f 1458 1548 1454
f 1551 1460 1456
f 1460 1551 1459
f 1553 1466 1467
f 1468 1554 1467
f 1467 1554 1553
f 1470 1554 1468
f 1555 1474 1475
f 1466 1553 1475
f 1553 1555 1475
f 1553 1556 1555
f 1557 1553 1554
f 1556 1553 1557
f 1476 1558 1470
f 1558 1554 1470
f 1558 1557 1554
f 1478 1558 1476
f 1559 1483 1555
f 1555 1483 1474
f 1560 1555 1556
f 1559 1555 1560
f 1561 1556 1557
f 1560 1556 1561
f 1562 1557 1558
f 1561 1557 1562
f 1485 1562 1478
f 1478 1562 1558
f 1563 1490 1491
f 1483 1559 1491
f 1559 1563 1491
f 1559 1564 1563
f 1565 1559 1560
f 1564 1559 1565
f 1566 1560 1561
f 1565 1560 1566
f 1567 1561 1562
f 1566 1561 1567
f 1492 1568 1485
f 1568 1562 1485
f 1568 1567 1562
f 1493 1568 1492
f 1569 1495 1496
f 1497 1570 1496
f 1496 1570 1569
f 1498 1571 1497
f 1497 1571 1570
f 1490 1563 1498
f 1563 1571 1498
f 1563 1572 1571
f 1564 1574 1573
f 1572 1564 1573
f 1563 1564 1572
f 1574 1564 1565
f 1574 1565 1575
f 1575 1565 1566
f 1575 1566 1576
f 1578 1577 1576
f 1566 1578 1576
f 1567 1578 1566
f 1579 1567 1568
f 1578 1567 1579
f 1500 1579 1493
f 1493 1579 1568
f 1580 1501 1569
f 1569 1501 1495
f 1581 1569 1570
f 1580 1569 1581
f 1582 1570 1571
f 1581 1570 1582
f 1572 1584 1583
f 1582 1572 1583
f 1571 1572 1582
f 1584 1572 1573
f 1577 1578 1585
f 1577 1585 1586
f 1587 1578 1579
f 1585 1578 1587
f 1503 1587 1500
f 1500 1587 1579
f 1588 1504 1580
f 1580 1504 1501
f 1589 1580 1581
f 1588 1580 1589
f 1582 1591 1590
f 1589 1582 1590
f 1581 1582 1589
f 1591 1582 1583
f 1592 1586 1585
f 1594 1593 1592
f 1585 1594 1592
f 1587 1594 1585
f 1506 1594 1503
f 1503 1594 1587
f 1595 1507 1508
f 1504 1588 1508
f 1588 1595 1508
f 1588 1596 1595
f 1597 1588 1589
f 1596 1588 1597
f 1589 1590 1598
f 1589 1598 1597
f 1593 1594 1599
f 1593 1599 1600
f 1509 1599 1506
f 1506 1599 1594
f 1595 1510 1507
f 1595 1596 1601
f 1512 1595 1601
f 1602 1512 1601
f 1595 1512 1510
f 1601 1596 1597
f 1601 1597 1603
f 1603 1597 1598
f 1600 1599 1514
f 1515 1600 1514
f 1604 1600 1515
f 1514 1599 1509
f 1602 1517 1512
f 1605 1517 1602
f 1608 1607 1606
f 1607 1604 1606
f 1604 1519 1606
f 1604 1515 1519
f 1605 1521 1517
f 1609 1521 1605
f 1608 1606 1610
f 1608 1610 1611
f 1523 1610 1519
f 1519 1610 1606
f 1609 1524 1521
f 1612 1524 1609
f 1611 1610 1613
f 1611 1613 1614
f 1526 1613 1523
f 1523 1613 1610
f 1616 1527 1615
f 1527 1612 1615
f 1527 1524 1612
f 1617 1616 1615
f 1620 1619 1618
f 1618 1619 1614
f 1618 1614 1613
f 1530 1618 1613
f 1529 1530 1613
f 1529 1613 1526
f 1621 1531 1616
f 1616 1531 1527
f 1616 1617 1622
f 1616 1622 1621
f 1625 1624 1623
f 1623 1624 1620
f 1618 1623 1620
f 1626 1623 1618
f 1533 1626 1530
f 1530 1626 1618
f 1621 1534 1531
f 1536 1534 1621
f 1622 1536 1621
f 1627 1536 1622
f 1625 1623 1628
f 1625 1628 1629
f 1539 1628 1538
f 1628 1626 1538
f 1628 1623 1626
f 1538 1626 1533
f 1631 1540 1630
f 1540 1627 1630
f 1540 1536 1627
f 1633 1632 1631
f 1633 1631 1630
f 1635 1634 1632
f 1635 1632 1633
f 1542 1543 1634
f 1635 1542 1634
f 1636 1542 1635
f 1628 1544 1629
f 1544 1636 1629
f 1544 1542 1636
f 1544 1628 1539
f 1631 1545 1540
f 1545 1631 1547
f 1631 1637 1547
f 1631 1632 1637
f 1550 1637 1549
f 1637 1634 1549
f 1637 1632 1634
f 1549 1634 1543
f 1637 1552 1547
f 1552 1637 1550
f 1638 1573 1574
f 1575 1639 1574
f 1574 1639 1638
f 1576 1640 1575
f 1575 1640 1639
f 1577 1640 1576
f 1641 1583 1584
f 1573 1638 1584
f 1638 1641 1584
f 1638 1642 1641
f 1643 1638 1639
f 1642 1638 1643
f 1644 1639 1640
f 1643 1639 1644
f 1586 1644 1577
f 1577 1644 1640
f 1645 1590 1591
f 1583 1641 1591
f 1641 1645 1591
f 1641 1646 1645
f 1642 1648 1647
f 1646 1642 1647
f 1641 1642 1646
f 1648 1642 1643
f 1648 1643 1649
f 1651 1650 1649
f 1643 1651 1649
f 1644 1651 1643
f 1592 1652 1586
f 1652 1644 1586
f 1652 1651 1644
f 1593 1652 1592
f 1653 1598 1645
f 1645 1598 1590
f 1646 1655 1654
f 1653 1646 1654
f 1645 1646 1653
f 1655 1646 1647
f 1650 1651 1656
f 1650 1656 1657
f 1658 1651 1652
f 1656 1651 1658
f 1600 1658 1593
f 1593 1658 1652
f 1659 1602 1601
f 1603 1660 1601
f 1601 1660 1659
f 1598 1653 1603
f 1653 1660 1603
f 1653 1661 1660
f 1653 1654 1662
f 1653 1662 1661
f 1657 1656 1663
f 1657 1663 1664
f 1665 1656 1658
f 1663 1656 1665
f 1604 1665 1600
f 1600 1665 1658
f 1666 1605 1659
f 1659 1605 1602
f 1667 1659 1660
f 1666 1659 1667
f 1668 1660 1661
f 1667 1660 1668
f 1661 1662 1669
f 1661 1669 1668
f 1664 1663 1670
f 1664 1670 1671
f 1608 1670 1607
f 1670 1665 1607
f 1670 1663 1665
f 1607 1665 1604
f 1672 1609 1666
f 1666 1609 1605
f 1673 1666 1667
f 1672 1666 1673
f 1674 1667 1668
f 1673 1667 1674
f 1668 1669 1675
f 1668 1675 1674
f 1678 1677 1676
f 1676 1677 1671
f 1670 1676 1671
f 1679 1676 1670
f 1611 1679 1608
f 1608 1679 1670
f 1680 1612 1672
f 1672 1612 1609
f 1681 1672 1673
f 1680 1672 1681
f 1682 1673 1674
f 1681 1673 1682
f 1674 1675 1683
f 1684 1674 1683
f 1682 1674 1684
f 1686 1685 1684
f 1686 1684 1683
f 1685 1686 1678
f 1676 1685 1678
f 1687 1685 1676
f 1688 1676 1679
f 1687 1676 1688
f 1614 1688 1611
f 1611 1688 1679
f 1680 1615 1612
f 1615 1680 1617
f 1680 1689 1617
f 1680 1681 1689
f 1690 1681 1682
f 1689 1681 1690
f 1691 1682 1684
f 1690 1682 1691
f 1692 1684 1685
f 1691 1684 1692
f 1693 1685 1687
f 1692 1685 1693
f 1620 1693 1619
f 1693 1688 1619
f 1693 1687 1688
f 1619 1688 1614
f 1694 1622 1689
f 1689 1622 1617
f 1695 1689 1690
f 1694 1689 1695
f 1696 1690 1691
f 1695 1690 1696
f 1697 1691 1692
f 1696 1691 1697
f 1625 1697 1624
f 1697 1693 1624
f 1697 1692 1693
f 1624 1693 1620
f 1698 1627 1694
f 1694 1627 1622
f 1699 1694 1695
f 1698 1694 1699
f 1700 1695 1696
f 1699 1695 1700
f 1701 1696 1697
f 1700 1696 1701
f 1629 1701 1625
f 1625 1701 1697
f 1698 1630 1627
f 1630 1698 1633
f 1633 1698 1699
f 1633 1699 1635
f 1635 1699 1700
f 1635 1700 1636
f 1636 1700 1701
f 1636 1701 1629
f 1702 1647 1648
f 1649 1703 1648
f 1648 1703 1702
f 1650 1703 1649
f 1704 1654 1655
f 1647 1702 1655
f 1702 1704 1655
f 1702 1705 1704
f 1706 1702 1703
f 1705 1702 1706
f 1657 1706 1650
f 1650 1706 1703
f 1707 1662 1704
f 1704 1662 1654
f 1708 1704 1705
f 1707 1704 1708
f 1709 1705 1706
f 1708 1705 1709
f 1664 1709 1657
f 1657 1709 1706
f 1710 1669 1707
f 1707 1669 1662
f 1711 1707 1708
f 1710 1707 1711
f 1712 1708 1709
f 1711 1708 1712
f 1671 1712 1664
f 1664 1712 1709
f 1713 1675 1710
f 1710 1675 1669
f 1714 1710 1711
f 1713 1710 1714
f 1678 1714 1677
f 1714 1712 1677
f 1714 1711 1712
f 1677 1712 1671
f 1713 1683 1675
f 1683 1713 1686
f 1686 1713 1714
f 1686 1714 1678
