v 26.9 22.0 4.0
v 27.0 22.0 3.9
v 27.0 21.9 4.0
v 27.0 22.0 4.1
v 26.7 23.0 3.0
v 27.0 23.0 2.7
v 27.0 22.6 3.0
v 26.6 23.0 4.0
v 27.0 23.0 4.6
v 26.9 23.0 6.0
v 27.0 23.0 5.7
v 27.0 22.8 6.0
v 27.0 23.0 6.3
v 26.6 24.0 3.0
v 27.0 24.0 2.5
v 26.6 24.0 4.0
v 27.0 24.0 4.9
v 26.6 24.0 6.0
v 27.0 24.0 5.1
v 27.0 23.4 7.0
v 26.6 24.0 7.0
v 27.0 23.7 8.0
v 26.7 24.0 8.0
v 27.0 24.0 8.3
v 26.6 25.0 3.0
v 27.0 25.0 2.5
v 26.5 25.0 4.0
v 27.0 24.1 5.0
v 26.5 25.0 5.0
v 26.5 25.0 6.0
v 26.5 25.0 7.0
v 26.6 25.0 8.0
v 27.0 25.0 8.6
v 26.7 26.0 3.0
v 27.0 26.0 2.6
v 26.4 26.0 4.0
v 26.1 26.0 5.0
v 26.4 26.0 6.0
v 26.5 26.0 7.0
v 26.5 26.0 8.0
v 27.0 25.5 9.0
v 26.7 26.0 9.0
v 27.0 26.0 9.3
v 27.0 26.5 3.0
v 26.6 27.0 4.0
v 27.0 27.0 3.4
v 26.4 27.0 5.0
v 26.6 27.0 6.0
v 26.5 27.0 7.0
v 26.5 27.0 8.0
v 26.8 27.0 9.0
v 27.0 27.0 9.3
v 26.8 28.0 4.0
v 27.0 28.0 3.7
v 26.7 28.0 5.0
v 27.0 28.0 5.7
v 27.0 27.8 6.0
v 26.7 28.0 7.0
v 27.0 28.0 6.3
v 26.7 28.0 8.0
v 27.0 28.0 8.4
v 27.0 27.4 9.0
v 27.0 28.3 4.0
v 27.0 28.4 5.0
v 27.0 28.4 7.0
v 27.0 28.3 8.0
v 26.9 31.0 5.0
v 27.0 31.0 4.9
v 27.0 30.9 5.0
v 27.0 31.0 5.1
v 26.8 32.0 5.0
v 27.0 32.0 4.7
v 27.0 32.0 5.3
v 26.9 33.0 5.0
v 27.0 33.0 4.8
v 27.0 33.0 5.2
v 27.0 33.2 5.0
v 27.7 21.0 6.0
v 28.0 21.0 5.5
v 28.0 20.7 6.0
v 28.0 20.6 7.0
v 27.7 21.0 7.0
v 28.0 21.0 7.4
v 27.6 22.0 3.0
v 28.0 22.0 2.6
v 28.0 21.7 3.0
v 28.0 21.4 4.0
v 28.0 21.4 5.0
v 27.5 22.0 5.0
v 27.4 22.0 6.0
v 27.5 22.0 7.0
v 28.0 21.5 8.0
v 27.7 22.0 8.0
v 28.0 22.0 8.5
v 27.7 23.0 2.0
v 28.0 23.0 1.7
v 28.0 22.6 2.0
v 27.3 23.0 5.0
v 27.3 23.0 7.0
v 27.4 23.0 8.0
v 28.0 22.4 9.0
v 27.6 23.0 9.0
v 28.0 22.7 10.0
v 27.8 23.0 10.0
v 28.0 23.0 10.3
v 27.5 24.0 2.0
v 28.0 24.0 1.5
v 27.1 24.0 5.0
v 27.4 24.0 9.0
v 27.6 24.0 10.0
v 28.0 24.0 10.5
v 27.5 25.0 2.0
v 28.0 25.0 1.6
v 27.3 25.0 9.0
v 27.6 25.0 10.0
v 28.0 25.0 10.5
v 27.6 26.0 2.0
v 28.0 26.0 1.6
v 27.6 26.0 10.0
v 28.0 26.0 10.4
v 27.6 27.0 2.0
v 28.0 27.0 1.6
v 27.3 27.0 3.0
v 28.0 26.6 10.0
v 28.0 27.0 9.7
v 27.6 28.0 2.0
v 28.0 28.0 1.5
v 27.4 28.0 3.0
v 27.2 28.0 6.0
v 27.5 28.0 9.0
v 28.0 28.0 9.4
v 27.6 29.0 2.0
v 28.0 29.0 1.4
v 27.5 29.0 3.0
v 27.4 29.0 4.0
v 27.4 29.0 5.0
v 27.5 29.0 6.0
v 27.5 29.0 7.0
v 27.6 29.0 8.0
v 28.0 29.0 8.5
v 28.0 28.5 9.0
v 27.7 30.0 1.0
v 28.0 30.0 0.6
v 28.0 29.5 1.0
v 27.5 30.0 2.0
v 27.5 30.0 3.0
v 27.5 30.0 4.0
v 27.4 30.0 5.0
v 27.6 30.0 6.0
v 28.0 30.0 6.8
v 28.0 29.8 7.0
v 28.0 29.4 8.0
v 27.7 31.0 1.0
v 28.0 31.0 0.6
v 27.5 31.0 2.0
v 27.5 31.0 3.0
v 27.4 31.0 4.0
v 27.4 31.0 6.0
v 28.0 30.3 7.0
v 27.8 31.0 7.0
v 28.0 31.0 7.3
v 28.0 31.5 1.0
v 27.6 32.0 2.0
v 28.0 32.0 1.4
v 27.5 32.0 3.0
v 27.4 32.0 4.0
v 27.4 32.0 6.0
v 27.6 32.0 7.0
v 28.0 32.0 7.4
v 27.7 33.0 2.0
v 28.0 33.0 1.6
v 27.5 33.0 3.0
v 27.3 33.0 4.0
v 27.4 33.0 6.0
v 27.6 33.0 7.0
v 28.0 33.0 7.8
v 28.0 33.4 2.0
v 27.6 34.0 3.0
v 28.0 34.0 2.5
v 27.1 34.0 4.0
v 27.3 34.0 5.0
v 27.5 34.0 6.0
v 27.9 34.0 7.0
v 28.0 34.0 7.2
v 28.0 34.5 3.0
v 27.7 35.0 4.0
v 28.0 35.0 3.6
v 27.6 35.0 5.0
v 27.8 35.0 6.0
v 28.0 35.0 6.3
v 28.0 34.2 7.0
v 28.0 35.3 4.0
v 28.0 35.4 5.0
v 28.0 35.2 6.0
v 28.7 20.0 6.0
v 29.0 20.0 5.6
v 29.0 19.7 6.0
v 29.0 19.1 7.0
v 28.5 20.0 7.0
v 29.0 19.4 8.0
v 28.8 20.0 8.0
v 29.0 20.0 8.1
v 28.7 21.0 4.0
v 29.0 21.0 3.6
v 29.0 20.7 4.0
v 29.0 20.4 5.0
v 28.4 21.0 5.0
v 28.5 21.0 8.0
v 29.0 21.0 8.4
v 28.6 22.0 2.0
v 29.0 22.0 1.7
v 29.0 21.7 2.0
v 29.0 21.4 3.0
v 29.0 21.5 9.0
v 28.4 22.0 9.0
v 29.0 21.8 10.0
v 28.7 22.0 10.0
v 29.0 21.8 11.0
v 28.8 22.0 11.0
v 29.0 21.9 12.0
v 28.9 22.0 12.0
v 29.0 22.0 12.1
v 29.0 23.0 1.3
v 28.4 23.0 11.0
v 28.6 23.0 12.0
v 29.0 23.0 12.4
v 28.8 24.0 1.0
v 29.0 24.0 0.8
v 29.0 23.7 1.0
v 28.4 24.0 11.0
v 28.6 24.0 12.0
v 29.0 24.0 12.5
v 29.0 24.3 1.0
v 29.0 25.0 1.3
v 28.4 25.0 11.0
v 28.6 25.0 12.0
v 29.0 25.0 12.5
v 29.0 26.0 1.5
v 28.4 26.0 11.0
v 28.7 26.0 12.0
v 29.0 26.0 12.4
v 29.0 27.0 1.3
v 28.3 27.0 10.0
v 28.7 27.0 11.0
v 29.0 27.0 11.5
v 29.0 26.5 12.0
v 28.6 28.0 1.0
v 29.0 28.0 0.6
v 29.0 27.5 1.0
v 28.6 28.0 10.0
v 29.0 28.0 10.5
v 29.0 27.5 11.0
v 28.8 29.0 0.0
v 29.0 29.0 -0.2
v 29.0 28.7 0.0
v 28.3 29.0 1.0
v 28.4 29.0 9.0
v 29.0 29.0 9.7
v 29.0 28.6 10.0
v 28.5 30.0 0.0
v 29.0 30.0 -0.6
v 28.1 30.0 7.0
v 28.5 30.0 8.0
v 28.7 30.0 9.0
v 29.0 30.0 9.4
v 28.8 31.0 -1.0
v 29.0 31.0 -1.3
v 29.0 30.6 -1.0
v 28.4 31.0 0.0
v 29.0 30.7 8.0
v 29.0 31.0 7.7
v 29.0 30.3 9.0
v 28.6 32.0 -1.0
v 29.0 32.0 -1.4
v 28.5 32.0 0.0
v 28.3 32.0 1.0
v 29.0 32.0 7.5
v 28.8 33.0 -1.0
v 29.0 33.0 -1.3
v 28.6 33.0 0.0
v 28.4 33.0 1.0
v 29.0 33.0 7.5
v 29.0 33.3 -1.0
v 29.0 33.6 0.0
v 28.7 34.0 1.0
v 29.0 34.0 0.6
v 28.4 34.0 2.0
v 28.5 34.0 7.0
v 29.0 33.8 7.0
v 29.0 34.0 6.8
v 29.0 34.3 1.0
v 29.0 34.6 2.0
v 28.6 35.0 3.0
v 29.0 35.0 2.5
v 29.0 35.0 6.8
v 29.0 35.3 3.0
v 29.0 35.5 4.0
v 29.0 35.5 5.0
v 29.0 35.4 6.0
v 29.8 20.0 5.0
v 30.0 20.0 4.9
v 30.0 19.9 5.0
v 30.0 19.8 6.0
v 29.5 20.0 7.0
v 30.0 20.0 6.4
v 29.2 20.0 8.0
v 30.0 21.0 3.4
v 30.0 20.5 4.0
v 30.0 20.5 7.0
v 30.0 21.0 7.5
v 29.5 21.0 8.0
v 29.7 22.0 1.0
v 30.0 22.0 0.7
v 30.0 21.7 1.0
v 30.0 21.5 2.0
v 30.0 21.3 3.0
v 30.0 21.4 8.0
v 30.0 21.7 9.0
v 29.5 22.0 10.0
v 30.0 22.0 9.5
v 29.4 22.0 11.0
v 30.0 22.0 11.8
v 30.0 21.9 12.0
v 30.0 22.0 12.1
v 29.4 23.0 1.0
v 30.0 23.0 0.6
v 30.0 22.3 10.0
v 30.0 22.3 11.0
v 30.0 22.7 13.0
v 29.7 23.0 13.0
v 30.0 23.0 13.2
v 30.0 24.0 0.5
v 29.5 24.0 13.0
v 30.0 24.0 13.4
v 29.5 25.0 1.0
v 30.0 25.0 0.7
v 29.6 25.0 13.0
v 30.0 25.0 13.4
v 30.0 25.7 1.0
v 30.0 26.0 1.2
v 29.7 26.0 13.0
v 30.0 26.0 13.2
v 29.5 27.0 1.0
v 30.0 27.0 0.7
v 30.0 26.3 1.0
v 29.3 27.0 12.0
v 29.8 27.0 13.0
v 30.0 27.0 13.2
v 30.0 28.0 0.4
v 29.3 28.0 11.0
v 29.5 28.0 12.0
v 29.8 28.0 13.0
v 30.0 28.0 13.2
v 30.0 29.0 -0.5
v 30.0 28.5 0.0
v 29.3 29.0 10.0
v 29.5 29.0 11.0
v 29.9 29.0 12.0
v 30.0 29.0 12.1
v 30.0 28.2 13.0
v 29.6 30.0 -1.0
v 30.0 30.0 -1.3
v 30.0 29.6 -1.0
v 29.5 30.0 10.0
v 29.9 30.0 11.0
v 30.0 30.0 11.1
v 30.0 29.1 12.0
v 30.0 31.0 -1.6
v 29.4 31.0 8.0
v 29.7 31.0 9.0
v 30.0 31.0 10.0
v 30.0 31.0 10.0
v 30.0 30.1 11.0
v 29.7 32.0 -2.0
v 30.0 32.0 -2.2
v 30.0 31.7 -2.0
v 30.0 31.4 8.0
v 30.0 32.0 7.6
v 30.0 31.2 9.0
v 30.0 31.0 10.0
v 29.7 33.0 -2.0
v 30.0 33.0 -2.3
v 30.0 33.0 7.3
v 30.0 33.4 -2.0
v 29.7 34.0 -1.0
v 30.0 34.0 -1.4
v 29.4 34.0 0.0
v 30.0 33.4 7.0
v 30.0 34.0 6.5
v 30.0 34.3 -1.0
v 30.0 34.4 0.0
v 30.0 34.7 1.0
v 29.5 35.0 2.0
v 30.0 35.0 1.5
v 30.0 35.0 6.3
v 30.0 35.3 2.0
v 30.0 35.5 3.0
v 30.0 35.5 4.0
v 30.0 35.5 5.0
v 30.0 35.2 6.0
v 30.1 20.0 5.0
v 30.2 20.0 6.0
v 30.9 21.0 1.0
v 31.0 21.0 0.6
v 31.0 20.9 1.0
v 31.0 21.0 1.1
v 30.7 21.0 3.0
v 31.0 21.0 2.8
v 31.0 20.9 3.0
v 31.0 20.6 4.0
v 31.0 20.7 5.0
v 31.0 21.0 5.5
v 30.7 21.0 6.0
v 30.3 21.0 7.0
v 31.0 22.0 0.5
v 31.0 21.3 2.0
v 31.0 21.5 6.0
v 31.0 22.0 6.6
v 30.7 22.0 7.0
v 30.5 22.0 8.0
v 30.4 22.0 9.0
v 30.1 22.0 12.0
v 31.0 23.0 0.5
v 31.0 22.3 7.0
v 31.0 22.5 8.0
v 31.0 22.5 9.0
v 31.0 22.6 10.0
v 31.0 22.6 11.0
v 31.0 22.5 12.0
v 31.0 22.7 13.0
v 31.0 23.0 13.3
v 31.0 24.0 0.5
v 31.0 24.0 13.4
v 31.0 25.0 0.5
v 31.0 25.0 13.3
v 30.2 26.0 1.0
v 31.0 26.0 0.6
v 30.4 26.0 13.0
v 31.0 25.5 13.0
v 31.0 26.0 12.6
v 31.0 27.0 0.5
v 30.4 27.0 13.0
v 31.0 27.0 12.6
v 31.0 28.0 0.4
v 31.0 28.0 13.0
v 31.0 28.0 13.0
v 31.0 29.0 -0.5
v 31.0 28.5 0.0
v 30.2 29.0 12.0
v 31.0 28.6 12.0
v 31.0 29.0 11.6
v 31.0 28.0 13.0
v 31.0 30.0 -1.4
v 31.0 29.5 -1.0
v 30.2 30.0 11.0
v 31.0 29.6 11.0
v 31.0 30.0 10.5
v 31.0 31.0 -1.6
v 30.6 31.0 8.0
v 31.0 30.8 8.0
v 31.0 31.0 7.8
v 30.3 31.0 9.0
v 31.0 30.6 9.0
v 30.0 31.0 10.0
v 31.0 30.4 10.0
v 31.0 32.0 -2.3
v 31.0 31.6 -2.0
v 31.0 32.0 7.3
v 31.0 33.0 -2.5
v 30.4 33.0 7.0
v 31.0 32.4 7.0
v 31.0 33.0 6.5
v 30.6 34.0 -2.0
v 31.0 34.0 -2.2
v 30.6 34.0 6.0
v 31.0 33.6 6.0
v 31.0 34.0 5.6
v 31.0 34.2 -2.0
v 31.0 34.5 -1.0
v 31.0 34.6 0.0
v 30.5 35.0 1.0
v 31.0 35.0 0.6
v 30.3 35.0 6.0
v 31.0 35.0 5.3
v 31.0 35.3 1.0
v 31.0 35.5 2.0
v 31.0 35.5 3.0
v 31.0 35.4 4.0
v 31.0 35.2 5.0
v 31.1 21.0 1.0
v 31.2 21.0 3.0
v 31.4 21.0 4.0
v 31.3 21.0 5.0
v 32.0 22.0 0.6
v 32.0 21.6 1.0
v 32.0 21.5 2.0
v 32.0 21.4 3.0
v 32.0 21.5 4.0
v 32.0 22.0 4.7
v 31.8 22.0 5.0
v 31.4 22.0 6.0
v 32.0 23.0 0.5
v 32.0 22.2 5.0
v 32.0 22.4 6.0
v 32.0 22.7 7.0
v 31.6 23.0 8.0
v 32.0 23.0 7.5
v 31.4 23.0 9.0
v 31.4 23.0 10.0
v 31.4 23.0 11.0
v 31.5 23.0 12.0
v 31.7 23.0 13.0
v 32.0 24.0 0.5
v 32.0 23.5 8.0
v 32.0 24.0 8.6
v 31.7 24.0 9.0
v 31.6 24.0 10.0
v 31.7 24.0 11.0
v 32.0 24.0 11.7
v 32.0 23.8 12.0
v 32.0 24.0 12.3
v 31.5 24.0 13.0
v 32.0 25.0 0.5
v 32.0 24.4 9.0
v 32.0 24.5 10.0
v 32.0 24.4 11.0
v 31.3 25.0 13.0
v 32.0 25.0 12.3
v 32.0 26.0 0.5
v 31.6 26.0 12.0
v 32.0 25.4 12.0
v 32.0 26.0 11.6
v 32.0 27.0 0.5
v 31.5 27.0 12.0
v 32.0 27.0 11.5
v 32.0 28.0 0.3
v 31.5 28.0 12.0
v 32.0 28.0 11.5
v 31.0 28.0 13.0
v 32.0 29.0 -0.6
v 32.0 28.3 0.0
v 32.0 29.0 11.2
v 32.0 30.0 -1.4
v 32.0 29.4 -1.0
v 31.5 30.0 10.0
v 32.0 29.7 10.0
v 32.0 30.0 9.5
v 32.0 29.2 11.0
v 32.0 31.0 -1.6
v 32.0 30.5 8.0
v 32.0 31.0 7.4
v 32.0 30.3 9.0
v 31.7 32.0 -2.0
v 32.0 32.0 -1.9
v 31.5 32.0 7.0
v 32.0 31.5 7.0
v 32.0 32.0 6.6
v 32.0 33.0 -2.4
v 32.0 32.2 -2.0
v 31.6 33.0 6.0
v 32.0 32.6 6.0
v 32.0 33.0 5.6
v 32.0 34.0 -2.4
v 31.6 34.0 5.0
v 32.0 33.6 5.0
v 32.0 34.0 4.6
v 32.0 34.4 -2.0
v 32.0 34.5 -1.0
v 32.0 34.7 0.0
v 32.0 35.0 0.4
v 31.6 35.0 4.0
v 32.0 34.5 4.0
v 32.0 35.0 3.5
v 31.2 35.0 5.0
v 32.0 35.4 1.0
v 32.0 35.5 2.0
v 32.0 35.3 3.0
v 32.5 22.0 1.0
v 33.0 22.0 1.5
v 33.0 21.7 2.0
v 33.0 21.5 3.0
v 33.0 21.7 4.0
v 33.0 22.0 4.4
v 33.0 23.0 0.6
v 33.0 22.4 1.0
v 33.0 22.5 5.0
v 33.0 22.7 6.0
v 32.4 23.0 7.0
v 33.0 23.0 6.4
v 33.0 24.0 0.5
v 33.0 23.5 7.0
v 32.5 24.0 8.0
v 33.0 24.0 7.5
v 32.1 24.0 12.0
v 33.0 25.0 0.6
v 33.0 24.7 8.0
v 32.5 25.0 9.0
v 33.0 25.0 8.2
v 32.4 25.0 10.0
v 32.4 25.0 11.0
v 32.2 25.0 12.0
v 33.0 26.0 0.8
v 32.9 26.0 8.0
v 33.0 25.7 8.0
v 33.0 26.0 7.9
v 32.6 26.0 9.0
v 32.6 26.0 10.0
v 32.4 26.0 11.0
v 33.0 27.0 0.6
v 33.0 26.1 8.0
v 33.0 26.4 9.0
v 33.0 26.6 10.0
v 33.0 27.0 10.4
v 32.5 27.0 11.0
v 32.5 28.0 0.0
v 33.0 28.0 -0.4
v 33.0 27.6 0.0
v 32.5 28.0 11.0
v 33.0 28.0 10.6
v 32.5 29.0 -1.0
v 33.0 29.0 -1.3
v 33.0 28.7 -1.0
v 32.3 29.0 11.0
v 33.0 29.0 10.3
v 33.0 30.0 -1.7
v 32.7 30.0 8.0
v 33.0 29.8 8.0
v 33.0 30.0 7.7
v 32.5 30.0 9.0
v 33.0 29.7 9.0
v 33.0 29.3 10.0
v 32.6 31.0 -2.0
v 33.0 31.0 -2.3
v 33.0 30.5 -2.0
v 32.6 31.0 7.0
v 33.0 30.7 7.0
v 33.0 31.0 6.7
v 32.2 32.0 -2.0
v 33.0 32.0 -2.4
v 33.0 32.0 6.4
v 33.0 33.0 -2.7
v 33.0 32.5 6.0
v 33.0 33.0 5.4
v 32.9 34.0 -3.0
v 33.0 34.0 -3.1
v 33.0 33.9 -3.0
v 32.5 34.0 4.0
v 33.0 33.6 4.0
v 33.0 34.0 3.5
v 33.0 33.4 5.0
v 33.0 34.1 -3.0
v 33.0 34.5 -2.0
v 33.0 34.7 -1.0
v 32.5 35.0 0.0
v 33.0 35.0 -0.5
v 32.4 35.0 3.0
v 33.0 34.5 3.0
v 33.0 35.0 2.4
v 33.0 35.3 0.0
v 33.0 35.5 1.0
v 33.0 35.3 2.0
v 33.5 22.0 2.0
v 34.0 22.0 2.7
v 34.0 21.9 3.0
v 33.4 22.0 4.0
v 34.0 22.0 3.2
v 34.0 23.0 0.6
v 34.0 22.6 1.0
v 34.0 22.3 2.0
v 34.0 22.5 4.0
v 33.6 23.0 5.0
v 34.0 23.0 4.6
v 33.3 23.0 6.0
v 34.0 24.0 0.6
v 34.0 23.3 5.0
v 34.0 23.6 6.0
v 33.5 24.0 7.0
v 34.0 24.0 6.5
v 34.0 24.8 1.0
v 33.8 25.0 1.0
v 34.0 25.0 1.2
v 34.0 24.7 7.0
v 33.2 25.0 8.0
v 34.0 25.0 7.2
v 33.3 26.0 1.0
v 34.0 25.8 2.0
v 33.2 26.0 2.0
v 34.0 26.0 2.2
v 33.8 26.0 7.0
v 34.0 25.6 7.0
v 34.0 26.0 6.9
v 33.6 27.0 1.0
v 33.3 27.0 2.0
v 34.0 27.0 2.1
v 34.0 26.2 7.0
v 33.7 27.0 8.0
v 34.0 27.0 7.6
v 33.5 27.0 9.0
v 33.3 27.0 10.0
v 34.0 28.0 -0.5
v 34.0 27.6 0.0
v 34.0 27.2 1.0
v 34.0 27.1 2.0
v 34.0 27.3 8.0
v 34.0 27.4 9.0
v 34.0 27.9 10.0
v 34.0 28.0 10.1
v 34.0 29.0 -1.6
v 34.0 28.5 -1.0
v 33.4 29.0 10.0
v 34.0 28.2 10.0
v 34.0 29.0 9.5
v 33.5 30.0 -2.0
v 34.0 30.0 -2.4
v 34.0 29.5 -2.0
v 34.0 29.7 8.0
v 34.0 30.0 7.5
v 34.0 29.7 9.0
v 34.0 31.0 -2.6
v 34.0 30.4 7.0
v 34.0 31.0 6.6
v 34.0 32.0 -2.6
v 33.9 32.0 4.0
v 34.0 31.9 4.0
v 34.0 32.0 3.9
v 34.0 32.0 4.1
v 34.0 32.0 6.3
v 33.5 33.0 -3.0
v 34.0 33.0 -3.3
v 34.0 32.6 -3.0
v 33.7 33.0 3.0
v 34.0 32.6 3.0
v 34.0 33.0 2.7
v 33.5 33.0 4.0
v 34.0 33.0 4.9
v 34.0 32.3 6.0
v 34.0 33.0 5.1
v 34.0 34.0 -3.4
v 33.4 34.0 3.0
v 34.0 34.0 2.4
v 34.0 33.1 5.0
v 34.0 34.4 -3.0
v 34.0 34.7 -2.0
v 33.5 35.0 -1.0
v 34.0 35.0 -1.5
v 33.4 35.0 2.0
v 34.0 34.4 2.0
v 34.0 35.0 1.4
v 34.0 35.3 -1.0
v 34.0 35.5 0.0
v 34.0 35.3 1.0
v 34.2 22.0 3.0
v 35.0 23.0 0.7
v 35.0 22.7 1.0
v 35.0 22.5 2.0
v 35.0 22.6 3.0
v 34.6 23.0 4.0
v 35.0 23.0 3.5
v 35.0 24.0 0.5
v 35.0 23.3 4.0
v 35.0 23.7 5.0
v 34.5 24.0 6.0
v 35.0 24.0 5.4
v 34.2 25.0 1.0
v 35.0 25.0 0.5
v 35.0 24.6 6.0
v 34.2 25.0 7.0
v 35.0 25.0 6.3
v 34.5 26.0 1.0
v 35.0 26.0 0.5
v 34.2 26.0 2.0
v 35.0 26.0 6.4
v 34.3 27.0 1.0
v 35.0 27.0 0.3
v 34.1 27.0 2.0
v 34.6 27.0 7.0
v 35.0 27.0 6.7
v 35.0 28.0 -0.7
v 35.0 27.3 0.0
v 35.0 27.3 7.0
v 35.0 27.5 8.0
v 35.0 27.9 9.0
v 34.1 28.0 10.0
v 35.0 28.0 9.1
v 34.6 29.0 -2.0
v 35.0 29.0 -2.3
v 35.0 28.7 -2.0
v 35.0 28.3 -1.0
v 34.6 29.0 9.0
v 35.0 28.2 9.0
v 35.0 29.0 8.6
v 34.7 30.0 -3.0
v 35.0 30.0 -3.2
v 35.0 29.7 -3.0
v 34.8 30.0 3.0
v 35.0 29.7 3.0
v 35.0 30.0 2.8
v 34.8 30.0 4.0
v 35.0 29.7 4.0
v 35.0 30.0 4.3
v 34.6 30.0 7.0
v 35.0 29.8 7.0
v 35.0 30.0 6.7
v 35.0 29.4 8.0
v 34.6 31.0 -3.0
v 35.0 31.0 -3.3
v 34.6 31.0 3.0
v 35.0 31.0 2.5
v 34.5 31.0 4.0
v 35.0 31.0 4.5
v 35.0 31.0 6.3
v 35.0 31.9 -3.0
v 35.0 32.0 -3.0
v 34.4 32.0 3.0
v 35.0 32.0 2.4
v 35.0 32.0 4.9
v 34.4 32.0 6.0
v 35.0 31.4 6.0
v 35.0 32.0 5.1
v 34.9 33.0 -4.0
v 35.0 33.0 -4.1
v 35.0 32.9 -4.0
v 35.0 32.0 -3.0
v 34.7 33.0 2.0
v 35.0 32.5 2.0
v 35.0 33.0 1.7
v 35.0 32.1 5.0
v 34.1 33.0 5.0
v 35.0 33.1 -4.0
v 35.0 34.0 -3.6
v 34.4 34.0 2.0
v 35.0 34.0 1.4
v 34.7 35.0 -3.0
v 35.0 35.0 -3.2
v 34.4 35.0 -2.0
v 34.4 35.0 1.0
v 35.0 34.5 1.0
v 35.0 35.0 0.4
v 35.0 35.2 -3.0
v 35.0 35.4 -2.0
v 35.0 35.5 -1.0
v 35.0 35.3 0.0
v 36.0 23.0 0.6
v 36.0 22.6 1.0
v 36.0 22.6 2.0
v 35.6 23.0 3.0
v 36.0 23.0 2.6
v 36.0 24.0 0.3
v 36.0 23.3 3.0
v 36.0 23.6 4.0
v 35.4 24.0 5.0
v 36.0 24.0 4.4
v 35.6 25.0 0.0
v 36.0 25.0 -0.5
v 36.0 24.5 0.0
v 35.6 25.0 5.0
v 36.0 25.0 4.5
v 35.3 25.0 6.0
v 35.8 26.0 -1.0
v 36.0 26.0 -1.2
v 36.0 25.6 -1.0
v 35.4 26.0 0.0
v 35.7 26.0 5.0
v 36.0 26.0 4.6
v 35.4 26.0 6.0
v 35.6 27.0 -1.0
v 36.0 27.0 -1.4
v 35.2 27.0 0.0
v 36.0 26.5 5.0
v 36.0 27.0 5.5
v 35.6 27.0 6.0
v 35.3 28.0 -1.0
v 36.0 28.0 -1.6
v 35.9 28.0 4.0
v 36.0 27.8 4.0
v 36.0 28.0 3.8
v 36.0 28.0 4.2
v 36.0 27.4 6.0
v 36.0 27.6 7.0
v 36.0 27.8 8.0
v 35.1 28.0 9.0
v 36.0 28.0 8.2
v 36.0 29.0 -2.6
v 36.0 28.4 -2.0
v 35.6 29.0 3.0
v 36.0 28.5 3.0
v 36.0 29.0 2.6
v 35.5 29.0 4.0
v 36.0 29.0 4.6
v 36.0 29.0 8.2
v 36.0 30.0 -3.4
v 36.0 29.4 -3.0
v 36.0 30.0 2.3
v 35.6 30.0 5.0
v 36.0 29.4 5.0
v 36.0 30.0 5.8
v 36.0 29.4 7.0
v 36.0 30.0 6.2
v 36.0 29.2 8.0
v 36.0 31.0 -3.6
v 35.6 31.0 2.0
v 36.0 30.4 2.0
v 36.0 31.0 1.6
v 35.4 31.0 5.0
v 36.0 30.1 6.0
v 35.3 31.0 6.0
v 35.7 32.0 -4.0
v 36.0 32.0 -4.3
v 36.0 31.7 -4.0
v 35.0 32.0 -3.0
v 35.4 32.0 2.0
v 36.0 32.0 1.5
v 35.1 32.0 5.0
v 36.0 33.0 -4.4
v 36.0 33.0 1.3
v 36.0 33.6 -4.0
v 36.0 34.0 -3.7
v 35.5 34.0 1.0
v 36.0 33.4 1.0
v 36.0 34.0 0.5
v 36.0 35.0 -3.4
v 35.5 35.0 0.0
v 36.0 34.5 0.0
v 36.0 35.0 -0.4
v 36.0 35.4 -3.0
v 36.0 35.6 -2.0
v 36.0 35.8 -1.0
v 36.9 22.0 1.0
v 37.0 22.0 0.9
v 37.0 21.9 1.0
v 37.0 22.0 1.1
v 37.0 23.0 0.4
v 37.0 22.4 2.0
v 37.0 23.0 2.7
v 36.5 24.0 0.0
v 37.0 24.0 -0.4
v 37.0 23.6 0.0
v 37.0 23.3 3.0
v 37.0 23.8 4.0
v 37.0 24.0 4.2
v 36.6 25.0 -1.0
v 37.0 25.0 -1.3
v 37.0 24.7 -1.0
v 36.6 25.0 4.0
v 37.0 24.3 4.0
v 37.0 25.0 3.5
v 37.0 26.0 -1.6
v 36.8 26.0 2.0
v 37.0 25.7 2.0
v 37.0 26.0 1.7
v 36.6 26.0 3.0
v 37.0 25.4 3.0
v 36.4 26.0 4.0
v 37.0 27.0 -1.7
v 36.6 27.0 2.0
v 37.0 27.0 1.4
v 36.5 27.0 3.0
v 36.4 27.0 4.0
v 36.3 27.0 5.0
v 36.4 28.0 -2.0
v 37.0 28.0 -2.5
v 37.0 27.4 -2.0
v 36.7 28.0 1.0
v 37.0 27.5 1.0
v 37.0 28.0 0.6
v 36.5 28.0 2.0
v 36.3 28.0 3.0
v 36.4 28.0 5.0
v 36.4 28.0 6.0
v 36.3 28.0 7.0
v 36.2 28.0 8.0
v 36.5 29.0 -3.0
v 37.0 29.0 -3.4
v 37.0 28.5 -3.0
v 36.6 29.0 1.0
v 37.0 29.0 0.5
v 36.4 29.0 2.0
v 36.3 29.0 5.0
v 36.5 29.0 6.0
v 36.4 29.0 7.0
v 36.2 29.0 8.0
v 37.0 30.0 -3.6
v 36.6 30.0 1.0
v 37.0 30.0 0.5
v 36.2 30.0 2.0
v 36.1 30.0 6.0
v 37.0 31.0 -3.8
v 36.5 31.0 1.0
v 37.0 31.0 0.5
v 37.0 32.0 -4.5
v 37.0 31.3 -4.0
v 36.5 32.0 1.0
v 37.0 32.0 0.5
v 37.0 33.0 -4.5
v 36.3 33.0 1.0
v 37.0 33.0 0.3
v 36.5 34.0 -4.0
v 37.0 34.0 -4.3
v 36.5 34.0 0.0
v 37.0 33.5 0.0
v 37.0 34.0 -0.3
v 37.0 34.4 -4.0
v 37.0 35.0 -3.4
v 37.0 35.0 -0.7
v 37.0 35.4 -3.0
v 37.0 35.5 -2.0
v 37.0 35.3 -1.0
v 38.0 22.0 0.8
v 38.0 21.8 1.0
v 38.0 21.7 2.0
v 37.6 22.0 2.0
v 38.0 22.0 2.4
v 38.0 23.0 0.3
v 38.0 22.5 3.0
v 37.4 23.0 3.0
v 38.0 23.0 3.8
v 38.0 24.0 -0.6
v 38.0 23.4 0.0
v 38.0 24.0 3.5
v 37.3 24.0 4.0
v 38.0 25.0 -1.6
v 38.0 24.4 -1.0
v 37.6 25.0 2.0
v 38.0 24.6 2.0
v 38.0 25.0 1.5
v 37.4 25.0 3.0
v 38.0 24.3 3.0
v 37.6 26.0 -2.0
v 38.0 26.0 -2.4
v 38.0 25.5 -2.0
v 37.6 26.0 1.0
v 38.0 25.5 1.0
v 38.0 26.0 0.5
v 37.4 27.0 -2.0
v 38.0 27.0 -2.8
v 37.7 27.0 0.0
v 38.0 26.6 0.0
v 38.0 27.0 -0.4
v 37.3 27.0 1.0
v 37.7 28.0 -4.0
v 38.0 28.0 -4.4
v 38.0 27.2 -4.0
v 38.0 27.2 -3.0
v 37.4 28.0 -3.0
v 37.5 28.0 0.0
v 38.0 28.0 -0.5
v 37.5 29.0 -4.0
v 38.0 29.0 -4.4
v 37.5 29.0 0.0
v 38.0 29.0 -0.5
v 37.5 30.0 -4.0
v 38.0 30.0 -4.4
v 37.5 30.0 0.0
v 38.0 30.0 -0.5
v 37.3 31.0 -4.0
v 38.0 31.0 -4.5
v 37.5 31.0 0.0
v 38.0 31.0 -0.5
v 37.9 32.0 -5.0
v 38.0 32.0 -5.1
v 38.0 31.9 -5.0
v 37.5 32.0 0.0
v 38.0 32.0 -0.6
v 38.0 32.1 -5.0
v 38.0 33.0 -4.5
v 37.8 33.0 -1.0
v 38.0 32.7 -1.0
v 38.0 33.0 -1.2
v 37.3 33.0 0.0
v 38.0 34.0 -4.2
v 38.0 33.6 -1.0
v 38.0 34.0 -0.9
v 38.0 34.3 -4.0
v 38.0 35.0 -3.3
v 37.4 35.0 -1.0
v 38.0 34.2 -1.0
v 38.0 35.0 -1.6
v 38.0 35.2 -3.0
v 38.0 35.2 -2.0
v 38.3 22.0 1.0
v 39.0 22.0 1.6
v 39.0 21.8 2.0
v 39.0 22.0 3.0
v 39.0 22.0 3.0
v 39.0 22.0 3.0
v 38.8 23.0 0.0
v 39.0 23.0 -0.1
v 39.0 22.9 0.0
v 39.0 22.6 1.0
v 39.0 23.0 3.3
v 38.5 24.0 -1.0
v 39.0 24.0 -1.5
v 39.0 23.6 -1.0
v 39.0 23.5 1.0
v 39.0 24.0 0.6
v 38.7 24.0 1.0
v 38.5 24.0 2.0
v 39.0 23.5 2.0
v 38.3 24.0 3.0
v 39.0 23.3 3.0
v 38.5 25.0 -2.0
v 39.0 25.0 -2.5
v 39.0 24.5 -2.0
v 38.4 25.0 1.0
v 39.0 25.0 0.3
v 38.6 26.0 -3.0
v 39.0 26.0 -3.4
v 39.0 25.6 -3.0
v 38.5 26.0 0.0
v 39.0 25.4 0.0
v 39.0 26.0 -0.5
v 38.9 27.0 -5.0
v 39.0 27.0 -5.1
v 39.0 26.9 -5.0
v 39.0 26.9 -4.0
v 38.5 27.0 -4.0
v 38.2 27.0 -3.0
v 38.6 27.0 -1.0
v 39.0 26.5 -1.0
v 39.0 27.0 -1.4
v 38.6 28.0 -5.0
v 39.0 28.0 -5.3
v 38.5 28.0 -1.0
v 39.0 28.0 -1.5
v 39.0 28.5 -5.0
v 39.0 29.0 -4.7
v 38.5 29.0 -1.0
v 39.0 29.0 -1.5
v 39.0 30.0 -4.5
v 38.5 30.0 -1.0
v 39.0 30.0 -1.5
v 39.0 31.0 -4.5
v 38.5 31.0 -1.0
v 39.0 31.0 -1.6
v 39.0 32.0 -5.0
v 39.0 32.0 -5.0
v 39.0 32.0 -3.0
v 39.0 32.0 -3.0
v 39.0 32.0 -3.0
v 39.0 32.0 -3.0
v 38.4 32.0 -1.0
v 39.0 32.0 -1.8
v 39.0 32.0 -5.0
v 38.6 33.0 -4.0
v 39.0 32.4 -4.0
v 39.0 32.0 -3.0
v 39.0 33.0 -3.3
v 39.0 33.0 -2.7
v 38.6 33.0 -2.0
v 39.0 32.3 -2.0
v 38.3 34.0 -4.0
v 39.0 34.0 -3.1
v 38.6 34.0 -2.0
v 39.0 34.0 -2.9
v 38.1 34.0 -1.0
v 38.3 35.0 -3.0
v 39.0 34.1 -3.0
v 38.3 35.0 -2.0
v 39.3 22.0 2.0
v 39.0 22.0 3.0
v 39.1 23.0 0.0
v 39.3 23.0 1.0
v 39.8 23.0 2.0
v 39.3 23.0 3.0
v 39.6 24.0 -2.0
v 40.0 24.0 -2.4
v 40.0 23.1 -2.0
v 40.0 23.0 -1.0
v 39.4 24.0 0.0
v 40.0 24.0 -0.7
v 39.5 25.0 -3.0
v 40.0 25.0 -3.5
v 40.0 24.5 -3.0
v 40.0 25.0 -1.4
v 39.7 25.0 -1.0
v 40.0 24.4 -1.0
v 39.3 25.0 0.0
v 39.6 26.0 -4.0
v 40.0 26.0 -4.5
v 40.0 25.5 -4.0
v 39.4 26.0 -1.0
v 40.0 26.0 -1.6
v 40.0 27.0 -5.6
v 40.0 26.4 -5.0
v 39.6 27.0 -2.0
v 40.0 26.5 -2.0
v 40.0 27.0 -2.4
v 39.7 28.0 -6.0
v 40.0 28.0 -6.2
v 40.0 27.6 -6.0
v 39.5 28.0 -2.0
v 40.0 28.0 -2.6
v 40.0 29.0 -6.0
v 40.0 29.0 -6.0
v 39.5 29.0 -5.0
v 39.7 29.0 -3.0
v 40.0 28.5 -3.0
v 40.0 29.0 -3.4
v 39.4 29.0 -2.0
v 40.0 29.0 -6.0
v 40.0 29.3 -5.0
v 40.0 30.0 -4.1
v 39.6 30.0 -3.0
v 40.0 30.0 -3.9
v 39.4 30.0 -2.0
v 40.0 30.1 -4.0
v 39.4 31.0 -4.0
v 39.4 31.0 -3.0
v 39.4 31.0 -2.0
v 39.0 32.0 -5.0
v 39.3 32.0 -4.0
v 39.1 32.0 -2.0
v 39.2 33.0 -3.0
v 39.1 34.0 -3.0
v 40.9 24.0 -3.0
v 41.0 24.0 -3.1
v 41.0 23.7 -3.0
v 40.3 24.0 -2.0
v 41.0 24.0 -2.9
v 40.2 24.0 -1.0
v 40.8 25.0 -4.0
v 41.0 25.0 -4.1
v 41.0 24.8 -4.0
v 41.0 25.0 -2.6
v 40.4 25.0 -2.0
v 40.8 26.0 -5.0
v 41.0 26.0 -5.1
v 41.0 25.9 -5.0
v 40.4 26.0 -2.0
v 41.0 26.0 -2.7
v 40.9 27.0 -6.0
v 41.0 27.0 -6.0
v 41.0 26.9 -6.0
v 40.6 27.0 -3.0
v 41.0 26.4 -3.0
v 41.0 27.0 -3.5
v 41.0 28.0 -6.2
v 40.7 28.0 -4.0
v 41.0 27.5 -4.0
v 41.0 28.0 -4.6
v 40.3 28.0 -3.0
v 41.0 28.2 -6.0
v 40.0 29.0 -6.0
v 40.3 29.0 -5.0
v 41.0 28.3 -5.0
v 40.4 29.0 -4.0
v 40.1 30.0 -4.0
v 41.1 24.0 -3.0
v 41.2 25.0 -4.0
v 41.3 25.0 -3.0
v 41.1 26.0 -5.0
v 41.4 26.0 -4.0
v 41.3 26.0 -3.0
v 41.0 27.0 -6.0
v 41.4 27.0 -5.0
v 41.3 27.0 -4.0
v 41.2 28.0 -6.0
v 41.3 28.0 -5.0
f 3 2 1
f 1 4 3
f 7 6 5
f 7 5 2
f 5 1 2
f 5 8 1
f 4 1 9
f 9 1 8
f 12 11 10
f 10 13 12
f 5 6 14
f 14 6 15
f 5 16 8
f 5 14 16
f 9 8 17
f 17 8 16
f 10 11 18
f 18 11 19
f 13 10 20
f 10 21 20
f 10 18 21
f 23 22 21
f 21 22 20
f 23 24 22
f 14 15 25
f 25 15 26
f 14 27 16
f 14 25 27
f 17 16 28
f 16 29 28
f 16 27 29
f 28 29 19
f 29 18 19
f 29 30 18
f 18 31 21
f 18 30 31
f 21 32 23
f 21 31 32
f 24 23 33
f 33 23 32
f 25 26 34
f 34 26 35
f 25 36 27
f 25 34 36
f 27 37 29
f 27 36 37
f 29 38 30
f 29 37 38
f 30 39 31
f 30 38 39
f 31 40 32
f 31 39 40
f 33 32 41
f 32 42 41
f 32 40 42
f 42 43 41
f 35 44 34
f 46 45 44
f 45 34 44
f 45 36 34
f 36 47 37
f 36 45 47
f 37 48 38
f 37 47 48
f 38 49 39
f 38 48 49
f 39 50 40
f 39 49 50
f 40 51 42
f 40 50 51
f 43 42 52
f 52 42 51
f 45 46 53
f 53 46 54
f 45 55 47
f 45 53 55
f 57 48 56
f 48 55 56
f 48 47 55
f 59 58 57
f 58 48 57
f 58 49 48
f 49 60 50
f 49 58 60
f 62 51 61
f 51 60 61
f 51 50 60
f 51 62 52
f 54 63 53
f 53 63 55
f 55 63 64
f 55 64 56
f 59 65 58
f 58 65 60
f 60 65 66
f 60 66 61
f 69 68 67
f 67 70 69
f 67 68 71
f 71 68 72
f 70 67 73
f 73 67 71
f 71 72 74
f 74 72 75
f 73 71 76
f 76 71 74
f 75 77 74
f 74 77 76
f 80 79 78
f 82 81 78
f 78 81 80
f 82 83 81
f 86 85 84
f 2 3 84
f 3 86 84
f 3 87 86
f 89 88 4
f 88 3 4
f 88 87 3
f 88 89 79
f 89 78 79
f 89 90 78
f 78 91 82
f 78 90 91
f 83 82 92
f 82 93 92
f 82 91 93
f 93 94 92
f 97 96 95
f 97 95 85
f 85 95 84
f 95 6 84
f 6 7 84
f 84 7 2
f 9 98 89
f 9 89 4
f 98 11 12
f 90 98 12
f 89 98 90
f 90 12 13
f 99 90 13
f 91 90 99
f 91 100 93
f 91 99 100
f 94 93 101
f 93 102 101
f 93 100 102
f 104 103 102
f 102 103 101
f 104 105 103
f 95 96 106
f 106 96 107
f 106 15 6
f 106 6 95
f 17 108 98
f 17 98 9
f 108 19 11
f 108 11 98
f 20 99 13
f 99 20 22
f 99 22 100
f 100 22 24
f 109 100 24
f 102 100 109
f 102 110 104
f 102 109 110
f 105 104 111
f 111 104 110
f 106 107 112
f 112 107 113
f 112 26 15
f 112 15 106
f 28 108 17
f 108 28 19
f 33 114 109
f 33 109 24
f 109 115 110
f 109 114 115
f 111 110 116
f 116 110 115
f 112 113 117
f 117 113 118
f 117 35 26
f 117 26 112
f 41 114 33
f 114 41 43
f 119 114 43
f 115 114 119
f 116 115 120
f 120 115 119
f 117 118 121
f 121 118 122
f 123 44 35
f 117 123 35
f 121 123 117
f 123 46 44
f 125 124 119
f 43 125 119
f 52 125 43
f 119 124 120
f 121 122 126
f 126 122 127
f 121 128 123
f 121 126 128
f 128 54 46
f 128 46 123
f 56 129 57
f 129 59 57
f 61 130 62
f 130 131 62
f 131 52 62
f 131 125 52
f 126 127 132
f 132 127 133
f 126 134 128
f 126 132 134
f 135 63 54
f 128 135 54
f 134 135 128
f 136 64 63
f 136 63 135
f 129 56 64
f 136 129 64
f 137 129 136
f 138 65 59
f 129 138 59
f 137 138 129
f 139 66 65
f 139 65 138
f 139 140 66
f 66 140 61
f 140 141 61
f 141 130 61
f 130 141 131
f 144 143 142
f 144 142 133
f 142 132 133
f 142 145 132
f 132 146 134
f 132 145 146
f 134 147 135
f 134 146 147
f 135 148 136
f 135 147 148
f 136 149 137
f 136 148 149
f 151 138 150
f 138 149 150
f 138 137 149
f 138 151 139
f 139 151 152
f 139 152 140
f 142 143 153
f 153 143 154
f 142 155 145
f 142 153 155
f 145 156 146
f 145 155 156
f 146 157 147
f 146 156 157
f 157 68 69
f 148 157 69
f 147 157 148
f 148 69 70
f 158 148 70
f 149 148 158
f 150 149 159
f 149 160 159
f 149 158 160
f 160 161 159
f 154 162 153
f 164 163 162
f 163 153 162
f 163 155 153
f 155 165 156
f 155 163 165
f 156 166 157
f 156 165 166
f 166 72 68
f 166 68 157
f 73 167 158
f 73 158 70
f 158 168 160
f 158 167 168
f 161 160 169
f 169 160 168
f 163 164 170
f 170 164 171
f 163 172 165
f 163 170 172
f 165 173 166
f 165 172 173
f 173 75 72
f 173 72 166
f 76 174 167
f 76 167 73
f 167 175 168
f 167 174 175
f 169 168 176
f 176 168 175
f 171 177 170
f 179 178 177
f 178 170 177
f 178 172 170
f 172 180 173
f 172 178 180
f 181 77 75
f 173 181 75
f 180 181 173
f 174 76 77
f 181 174 77
f 182 174 181
f 174 183 175
f 174 182 183
f 176 175 184
f 184 175 183
f 179 185 178
f 187 186 185
f 186 178 185
f 186 180 178
f 180 188 181
f 180 186 188
f 181 189 182
f 181 188 189
f 191 183 190
f 183 189 190
f 183 182 189
f 183 191 184
f 187 192 186
f 186 192 188
f 188 192 193
f 188 193 189
f 189 193 194
f 189 194 190
f 197 196 195
f 199 198 195
f 195 198 197
f 201 200 199
f 199 200 198
f 201 202 200
f 205 204 203
f 207 206 203
f 203 206 205
f 206 207 196
f 196 207 195
f 207 79 195
f 79 80 195
f 195 80 81
f 195 81 199
f 199 81 83
f 208 199 83
f 201 199 208
f 202 201 209
f 209 201 208
f 212 211 210
f 85 86 210
f 86 212 210
f 86 213 212
f 87 203 204
f 213 87 204
f 86 87 213
f 203 87 88
f 203 88 207
f 207 88 79
f 92 208 83
f 215 214 94
f 94 214 92
f 214 209 92
f 209 208 92
f 217 216 215
f 215 216 214
f 219 218 217
f 217 218 216
f 221 220 219
f 219 220 218
f 221 222 220
f 210 211 97
f 211 96 97
f 211 223 96
f 210 97 85
f 101 215 94
f 215 101 103
f 215 103 217
f 217 103 105
f 224 217 105
f 219 217 224
f 219 225 221
f 219 224 225
f 222 221 226
f 226 221 225
f 229 228 227
f 223 229 227
f 107 223 227
f 96 223 107
f 111 230 224
f 111 224 105
f 224 231 225
f 224 230 231
f 226 225 232
f 232 225 231
f 228 233 227
f 107 227 233
f 234 107 233
f 113 107 234
f 116 235 230
f 116 230 111
f 230 236 231
f 230 235 236
f 232 231 237
f 237 231 236
f 234 118 113
f 238 118 234
f 120 239 235
f 120 235 116
f 235 240 236
f 235 239 240
f 237 236 241
f 241 236 240
f 238 122 118
f 242 122 238
f 125 243 124
f 239 120 124
f 243 239 124
f 244 239 243
f 246 240 245
f 240 244 245
f 240 239 244
f 240 246 241
f 249 248 247
f 242 249 247
f 127 242 247
f 122 242 127
f 131 250 243
f 131 243 125
f 252 244 251
f 244 250 251
f 244 243 250
f 244 252 245
f 255 254 253
f 255 253 248
f 253 247 248
f 253 256 247
f 256 133 127
f 256 127 247
f 140 257 141
f 257 258 141
f 141 258 131
f 258 259 131
f 259 250 131
f 250 259 251
f 253 254 260
f 260 254 261
f 260 143 144
f 256 260 144
f 253 260 256
f 256 144 133
f 150 262 151
f 263 152 151
f 263 151 262
f 257 140 152
f 263 257 152
f 264 257 263
f 258 257 265
f 265 257 264
f 268 267 266
f 268 266 261
f 266 260 261
f 266 269 260
f 269 154 143
f 269 143 260
f 159 262 150
f 263 262 270
f 262 161 270
f 161 271 270
f 161 262 159
f 263 270 264
f 264 270 272
f 264 272 265
f 266 267 273
f 273 267 274
f 266 275 269
f 266 273 275
f 276 162 154
f 269 276 154
f 275 276 269
f 276 164 162
f 169 271 161
f 169 277 271
f 273 274 278
f 278 274 279
f 273 280 275
f 273 278 280
f 275 281 276
f 275 280 281
f 281 171 164
f 281 164 276
f 176 277 169
f 176 282 277
f 279 283 278
f 278 283 280
f 280 283 284
f 286 285 284
f 285 280 284
f 285 281 280
f 287 177 171
f 281 287 171
f 285 287 281
f 287 179 177
f 290 289 288
f 289 282 288
f 282 184 288
f 282 176 184
f 286 291 285
f 285 291 287
f 287 291 292
f 292 294 293
f 292 293 185
f 287 292 185
f 179 287 185
f 293 187 185
f 290 288 191
f 190 290 191
f 295 290 190
f 191 288 184
f 294 296 293
f 293 296 187
f 296 192 187
f 296 297 192
f 192 298 193
f 297 298 192
f 193 299 194
f 298 299 193
f 190 194 295
f 295 194 299
f 302 301 300
f 196 197 300
f 197 302 300
f 197 303 302
f 305 303 304
f 303 198 304
f 303 197 198
f 200 306 198
f 198 306 304
f 202 306 200
f 308 307 205
f 205 307 204
f 206 300 301
f 308 206 301
f 205 206 308
f 300 206 196
f 309 305 304
f 311 310 309
f 304 311 309
f 306 311 304
f 209 311 202
f 202 311 306
f 314 313 312
f 211 212 312
f 212 314 312
f 212 315 314
f 316 212 213
f 316 315 212
f 213 204 307
f 213 307 316
f 317 310 311
f 317 311 209
f 214 317 209
f 318 317 214
f 320 318 319
f 318 216 319
f 318 214 216
f 218 321 216
f 216 321 319
f 321 218 322
f 218 323 322
f 218 220 323
f 220 222 323
f 323 222 324
f 312 313 325
f 325 313 326
f 325 223 211
f 325 211 312
f 327 320 319
f 327 319 321
f 327 321 328
f 328 321 322
f 226 330 329
f 324 226 329
f 222 226 324
f 330 331 329
f 325 326 229
f 326 228 229
f 326 332 228
f 325 229 223
f 232 333 330
f 232 330 226
f 331 330 334
f 334 330 333
f 233 228 335
f 228 336 335
f 228 332 336
f 335 234 233
f 237 337 333
f 237 333 232
f 334 333 338
f 338 333 337
f 336 339 335
f 234 335 339
f 340 234 339
f 238 234 340
f 241 341 337
f 241 337 237
f 338 337 342
f 342 337 341
f 345 344 343
f 340 345 343
f 242 340 343
f 238 340 242
f 245 346 246
f 341 241 246
f 346 341 246
f 347 341 346
f 342 341 348
f 348 341 347
f 343 344 249
f 344 248 249
f 344 349 248
f 343 249 242
f 251 350 252
f 346 245 252
f 350 346 252
f 351 346 350
f 346 352 347
f 346 351 352
f 348 347 353
f 353 347 352
f 355 354 255
f 255 354 254
f 255 248 349
f 255 349 355
f 258 356 259
f 350 251 259
f 356 350 259
f 357 350 356
f 350 358 351
f 350 357 358
f 360 352 359
f 352 358 359
f 352 351 358
f 352 360 353
f 363 362 361
f 354 363 361
f 261 354 361
f 254 354 261
f 265 364 356
f 265 356 258
f 356 365 357
f 356 364 365
f 367 358 366
f 358 365 366
f 358 357 365
f 358 367 359
f 361 362 268
f 362 267 268
f 362 368 267
f 361 268 261
f 271 369 270
f 370 272 270
f 370 270 369
f 364 265 272
f 370 364 272
f 371 364 370
f 373 365 372
f 365 371 372
f 365 364 371
f 365 373 366
f 376 375 374
f 368 376 374
f 274 368 374
f 267 368 274
f 378 377 369
f 271 378 369
f 277 378 271
f 369 377 370
f 370 377 379
f 370 379 371
f 371 379 380
f 371 380 372
f 374 375 381
f 381 375 382
f 381 279 274
f 381 274 374
f 282 378 277
f 282 383 378
f 382 384 381
f 384 386 385
f 384 385 283
f 381 384 283
f 279 381 283
f 387 284 283
f 387 283 385
f 387 286 284
f 389 388 289
f 389 289 290
f 282 289 383
f 383 289 388
f 386 390 385
f 385 390 387
f 387 390 391
f 387 391 286
f 391 291 286
f 391 392 291
f 392 394 393
f 292 392 393
f 291 392 292
f 393 294 292
f 295 389 290
f 295 395 389
f 394 396 393
f 393 396 294
f 396 296 294
f 396 397 296
f 296 398 297
f 397 398 296
f 297 399 298
f 398 399 297
f 298 400 299
f 399 400 298
f 295 299 395
f 395 299 400
f 401 301 302
f 303 402 302
f 302 402 401
f 305 402 303
f 405 404 403
f 403 406 405
f 409 408 407
f 307 308 407
f 308 409 407
f 308 410 409
f 308 301 401
f 411 308 401
f 410 308 411
f 413 412 411
f 401 413 411
f 402 413 401
f 309 414 305
f 414 402 305
f 414 413 402
f 310 414 309
f 403 404 314
f 404 313 314
f 404 415 313
f 416 406 403
f 314 416 403
f 315 416 314
f 316 407 408
f 416 316 408
f 315 316 416
f 407 316 307
f 417 412 413
f 419 418 417
f 413 419 417
f 414 419 413
f 317 420 310
f 420 414 310
f 420 419 414
f 318 421 317
f 317 421 420
f 320 421 318
f 422 322 323
f 324 422 323
f 415 326 313
f 423 326 415
f 424 418 419
f 424 419 420
f 424 420 425
f 425 420 421
f 425 421 426
f 426 421 320
f 327 426 320
f 427 426 327
f 428 327 328
f 428 427 327
f 328 322 422
f 429 328 422
f 428 328 429
f 429 422 324
f 329 429 324
f 430 429 329
f 329 331 430
f 430 331 431
f 423 332 326
f 432 332 423
f 334 431 331
f 334 433 431
f 432 336 332
f 434 336 432
f 338 433 334
f 338 435 433
f 339 336 436
f 336 437 436
f 336 434 437
f 436 340 339
f 440 439 438
f 439 435 438
f 435 342 438
f 435 338 342
f 436 437 345
f 437 344 345
f 437 441 344
f 436 345 340
f 440 438 442
f 440 442 443
f 348 442 342
f 342 442 438
f 441 349 344
f 444 349 441
f 445 443 442
f 442 348 445
f 348 446 445
f 348 353 446
f 448 447 355
f 355 447 354
f 355 349 444
f 355 444 448
f 451 450 449
f 360 359 449
f 450 360 449
f 452 360 450
f 353 360 446
f 446 360 452
f 454 453 363
f 363 453 362
f 363 354 447
f 363 447 454
f 457 456 455
f 455 456 451
f 455 451 449
f 366 455 449
f 367 366 449
f 367 449 359
f 453 368 362
f 458 368 453
f 461 460 459
f 463 462 459
f 463 459 460
f 465 464 462
f 465 462 463
f 464 465 457
f 464 457 455
f 372 464 455
f 373 372 455
f 373 455 366
f 467 466 376
f 376 466 375
f 376 368 458
f 376 458 467
f 461 459 377
f 378 461 377
f 468 461 378
f 377 459 379
f 379 459 462
f 379 462 380
f 380 462 464
f 380 464 372
f 466 382 375
f 469 382 466
f 472 471 470
f 471 468 470
f 468 383 470
f 468 378 383
f 384 382 473
f 382 474 473
f 382 469 474
f 473 386 384
f 477 476 475
f 475 476 472
f 475 472 470
f 389 475 470
f 388 389 470
f 388 470 383
f 474 478 473
f 473 478 386
f 478 390 386
f 478 479 390
f 390 480 391
f 479 480 390
f 480 482 481
f 392 480 481
f 391 480 392
f 481 394 392
f 477 475 483
f 477 483 484
f 395 483 389
f 389 483 475
f 482 485 481
f 481 485 394
f 485 396 394
f 485 486 396
f 396 487 397
f 486 487 396
f 397 488 398
f 487 488 397
f 398 489 399
f 488 489 398
f 483 400 484
f 400 489 484
f 400 399 489
f 400 483 395
f 490 404 405
f 406 490 405
f 491 408 409
f 410 492 409
f 409 492 491
f 411 493 410
f 410 493 492
f 412 493 411
f 495 494 490
f 494 404 490
f 494 415 404
f 495 490 406
f 416 495 406
f 496 495 416
f 416 408 491
f 497 416 491
f 496 416 497
f 497 491 492
f 497 492 498
f 500 499 498
f 492 500 498
f 493 500 492
f 417 501 412
f 501 493 412
f 501 500 493
f 418 501 417
f 494 423 415
f 502 423 494
f 503 499 500
f 503 500 501
f 503 501 504
f 504 501 418
f 424 504 418
f 505 504 424
f 507 505 506
f 505 425 506
f 505 424 425
f 426 508 425
f 425 508 506
f 427 509 426
f 426 509 508
f 428 510 427
f 427 510 509
f 429 511 428
f 428 511 510
f 430 512 429
f 429 512 511
f 431 512 430
f 502 432 423
f 513 432 502
f 514 507 506
f 516 515 514
f 506 516 514
f 508 516 506
f 517 508 509
f 516 508 517
f 518 509 510
f 517 509 518
f 511 520 519
f 518 511 519
f 510 511 518
f 522 521 520
f 511 522 520
f 512 522 511
f 433 522 431
f 431 522 512
f 513 434 432
f 523 434 513
f 524 515 516
f 524 516 517
f 524 517 525
f 525 517 518
f 525 518 526
f 526 518 519
f 521 522 527
f 521 527 528
f 435 527 433
f 433 527 522
f 523 437 434
f 529 437 523
f 532 531 530
f 530 531 528
f 530 528 527
f 440 530 527
f 439 440 527
f 439 527 435
f 529 441 437
f 533 441 529
f 532 530 534
f 532 534 535
f 443 534 440
f 440 534 530
f 533 444 441
f 536 444 533
f 535 534 537
f 535 537 538
f 445 539 443
f 539 534 443
f 539 537 534
f 446 539 445
f 541 540 448
f 448 540 447
f 448 444 536
f 448 536 541
f 538 537 450
f 451 538 450
f 542 538 451
f 450 537 452
f 452 537 539
f 452 539 446
f 544 543 454
f 454 543 453
f 454 447 540
f 454 540 544
f 547 546 545
f 456 457 545
f 546 456 545
f 548 456 546
f 451 456 542
f 542 456 548
f 543 458 453
f 549 458 543
f 551 550 460
f 551 460 461
f 460 552 463
f 550 552 460
f 545 465 547
f 465 552 547
f 465 463 552
f 465 545 457
f 553 466 467
f 554 553 467
f 458 554 467
f 549 554 458
f 557 556 555
f 556 551 555
f 551 468 555
f 551 461 468
f 559 558 553
f 558 466 553
f 558 469 466
f 559 553 554
f 562 561 560
f 560 561 557
f 560 557 555
f 472 560 555
f 471 472 555
f 471 555 468
f 558 474 469
f 563 474 558
f 566 565 564
f 564 565 562
f 564 562 560
f 477 564 560
f 476 477 560
f 476 560 472
f 563 567 474
f 474 567 478
f 478 568 479
f 567 568 478
f 479 569 480
f 568 569 479
f 482 480 569
f 482 569 570
f 573 572 571
f 571 572 566
f 564 571 566
f 574 571 564
f 484 574 477
f 477 574 564
f 570 575 482
f 482 575 485
f 485 576 486
f 575 576 485
f 486 577 487
f 576 577 486
f 571 488 573
f 488 577 573
f 488 487 577
f 488 571 489
f 489 571 574
f 489 574 484
f 578 494 495
f 578 495 579
f 495 580 579
f 495 496 580
f 581 496 497
f 581 580 496
f 582 497 498
f 582 581 497
f 498 499 582
f 582 499 583
f 585 584 578
f 584 494 578
f 584 502 494
f 585 578 579
f 586 583 499
f 586 499 503
f 587 503 504
f 587 586 503
f 589 587 588
f 587 505 588
f 587 504 505
f 507 588 505
f 584 513 502
f 590 513 584
f 591 589 588
f 593 591 592
f 592 591 514
f 591 588 514
f 588 507 514
f 515 592 514
f 594 519 520
f 521 594 520
f 590 523 513
f 595 523 590
f 596 593 592
f 598 596 597
f 597 596 524
f 596 592 524
f 592 515 524
f 525 599 524
f 524 599 597
f 526 600 525
f 525 600 599
f 519 594 526
f 594 600 526
f 594 601 600
f 528 601 521
f 521 601 594
f 595 529 523
f 602 529 595
f 605 604 603
f 603 604 598
f 597 603 598
f 606 603 597
f 607 597 599
f 606 597 607
f 608 599 600
f 607 599 608
f 532 608 531
f 608 601 531
f 608 600 601
f 531 601 528
f 602 533 529
f 609 533 602
f 610 605 603
f 610 603 606
f 610 606 611
f 611 606 607
f 611 607 612
f 614 613 612
f 607 614 612
f 608 614 607
f 535 614 532
f 532 614 608
f 617 616 615
f 609 617 615
f 536 609 615
f 533 609 536
f 613 614 618
f 613 618 619
f 538 618 535
f 535 618 614
f 622 621 620
f 622 620 616
f 616 620 615
f 620 540 615
f 540 541 615
f 615 541 536
f 619 618 623
f 619 623 624
f 542 623 538
f 538 623 618
f 620 621 544
f 621 543 544
f 621 625 543
f 620 544 540
f 628 627 626
f 630 629 626
f 630 626 627
f 546 547 629
f 630 546 629
f 631 546 630
f 623 548 624
f 548 631 624
f 548 546 631
f 548 623 542
f 634 633 632
f 625 634 632
f 549 625 632
f 543 625 549
f 637 636 635
f 635 636 628
f 635 628 626
f 551 635 626
f 550 551 626
f 550 626 552
f 552 626 629
f 552 629 547
f 632 633 638
f 638 633 639
f 638 554 549
f 638 549 632
f 637 635 556
f 557 637 556
f 640 637 557
f 556 635 551
f 638 639 559
f 639 558 559
f 639 641 558
f 638 559 554
f 643 642 561
f 643 561 562
f 557 561 640
f 640 561 642
f 646 645 644
f 641 646 644
f 563 641 644
f 558 641 563
f 649 648 647
f 565 566 647
f 648 565 647
f 650 565 648
f 562 565 643
f 643 565 650
f 645 651 644
f 644 651 563
f 651 567 563
f 651 652 567
f 567 653 568
f 652 653 567
f 653 655 654
f 569 653 654
f 568 653 569
f 654 570 569
f 658 657 656
f 656 657 649
f 656 649 647
f 573 656 647
f 572 573 647
f 572 647 566
f 655 659 654
f 654 659 570
f 659 575 570
f 659 660 575
f 575 661 576
f 660 661 575
f 656 577 658
f 577 661 658
f 577 576 661
f 577 656 573
f 662 579 580
f 662 580 663
f 580 664 663
f 580 581 664
f 666 664 665
f 664 582 665
f 664 581 582
f 583 665 582
f 668 667 585
f 585 667 584
f 585 579 662
f 669 585 662
f 668 585 669
f 669 662 663
f 670 666 665
f 672 670 671
f 671 670 586
f 670 665 586
f 665 583 586
f 587 673 586
f 586 673 671
f 589 673 587
f 667 590 584
f 674 590 667
f 675 672 671
f 675 671 673
f 675 673 676
f 678 676 677
f 677 676 591
f 676 673 591
f 673 589 591
f 593 677 591
f 680 595 679
f 595 674 679
f 595 590 674
f 681 680 679
f 682 678 677
f 684 682 683
f 683 682 596
f 682 677 596
f 677 593 596
f 598 683 596
f 685 602 680
f 680 602 595
f 680 681 686
f 687 680 686
f 685 680 687
f 688 687 686
f 691 690 689
f 689 690 684
f 689 684 683
f 605 689 683
f 604 605 683
f 604 683 598
f 692 609 685
f 685 609 602
f 693 685 687
f 692 685 693
f 687 688 694
f 687 694 693
f 695 691 689
f 697 695 696
f 696 695 610
f 695 689 610
f 689 605 610
f 611 698 610
f 610 698 696
f 612 699 611
f 611 699 698
f 613 699 612
f 701 700 617
f 617 700 616
f 617 609 692
f 702 617 692
f 701 617 702
f 702 692 693
f 702 693 703
f 703 693 694
f 704 697 696
f 704 696 698
f 704 698 705
f 705 698 699
f 705 699 706
f 699 613 706
f 613 707 706
f 613 619 707
f 709 708 622
f 622 708 621
f 622 616 700
f 622 700 709
f 712 711 710
f 711 707 710
f 707 624 710
f 707 619 624
f 715 714 713
f 708 715 713
f 625 708 713
f 621 708 625
f 717 716 627
f 717 627 628
f 627 718 630
f 716 718 627
f 710 631 712
f 631 718 712
f 631 630 718
f 631 710 624
f 713 714 634
f 714 633 634
f 714 719 633
f 713 634 625
f 721 720 636
f 721 636 637
f 628 636 717
f 717 636 720
f 719 639 633
f 722 639 719
f 725 724 723
f 726 723 724
f 640 721 637
f 640 727 721
f 730 729 728
f 722 730 728
f 641 722 728
f 639 722 641
f 733 732 731
f 731 732 725
f 723 731 725
f 734 731 723
f 723 726 735
f 723 735 734
f 737 736 642
f 737 642 643
f 640 642 727
f 727 642 736
f 728 729 646
f 729 645 646
f 729 738 645
f 728 646 641
f 733 731 739
f 733 739 740
f 649 739 648
f 739 734 648
f 739 731 734
f 735 741 734
f 741 648 734
f 741 650 648
f 643 650 737
f 737 650 741
f 738 742 645
f 645 742 651
f 651 743 652
f 742 743 651
f 743 745 744
f 653 743 744
f 652 743 653
f 744 655 653
f 748 747 746
f 746 747 740
f 746 740 739
f 658 746 739
f 657 658 739
f 657 739 649
f 745 749 744
f 744 749 655
f 749 659 655
f 749 750 659
f 659 751 660
f 750 751 659
f 746 661 748
f 661 751 748
f 661 660 751
f 661 746 658
f 752 663 664
f 666 752 664
f 754 753 668
f 668 753 667
f 755 668 669
f 755 754 668
f 669 663 752
f 756 669 752
f 755 669 756
f 758 756 757
f 757 756 670
f 756 752 670
f 752 666 670
f 672 757 670
f 753 674 667
f 759 674 753
f 760 758 757
f 760 757 672
f 675 760 672
f 761 760 675
f 763 761 762
f 761 676 762
f 761 675 676
f 678 762 676
f 679 674 764
f 674 765 764
f 674 759 765
f 764 681 679
f 766 763 762
f 768 766 767
f 767 766 682
f 766 762 682
f 762 678 682
f 684 767 682
f 764 765 769
f 769 765 770
f 771 686 681
f 764 771 681
f 769 771 764
f 771 688 686
f 768 767 690
f 691 768 690
f 772 768 691
f 690 767 684
f 769 770 773
f 773 770 774
f 769 775 771
f 769 773 775
f 775 694 688
f 775 688 771
f 691 695 776
f 777 691 776
f 772 691 777
f 697 776 695
f 779 778 701
f 701 778 700
f 702 773 774
f 779 702 774
f 701 702 779
f 773 702 703
f 773 703 775
f 775 703 694
f 780 777 776
f 780 776 697
f 704 780 697
f 781 780 704
f 782 704 705
f 782 781 704
f 784 782 783
f 782 706 783
f 782 705 706
f 707 783 706
f 787 786 785
f 708 709 785
f 709 787 785
f 709 788 787
f 709 700 778
f 709 778 788
f 791 790 789
f 789 790 784
f 789 784 783
f 712 789 783
f 711 712 783
f 711 783 707
f 794 793 792
f 794 792 786
f 786 792 785
f 792 714 785
f 714 715 785
f 785 715 708
f 797 796 795
f 799 798 795
f 799 795 796
f 800 798 799
f 803 802 801
f 716 717 801
f 802 716 801
f 804 716 802
f 789 718 791
f 718 804 791
f 718 716 804
f 718 789 712
f 792 793 805
f 805 793 806
f 805 719 714
f 805 714 792
f 797 795 807
f 797 807 808
f 809 795 798
f 807 795 809
f 798 800 810
f 798 810 809
f 803 801 720
f 721 803 720
f 811 803 721
f 720 801 717
f 806 812 805
f 719 805 812
f 813 719 812
f 722 719 813
f 808 807 814
f 808 814 815
f 725 814 724
f 814 809 724
f 814 807 809
f 726 724 809
f 810 726 809
f 816 726 810
f 819 818 817
f 818 811 817
f 811 727 817
f 811 721 727
f 822 821 820
f 729 730 820
f 730 822 820
f 730 823 822
f 730 722 813
f 730 813 823
f 826 825 824
f 824 825 815
f 824 815 814
f 733 824 814
f 732 733 814
f 732 814 725
f 828 735 827
f 735 816 827
f 735 726 816
f 828 827 819
f 828 819 817
f 737 828 817
f 736 737 817
f 736 817 727
f 821 829 820
f 729 820 829
f 830 729 829
f 738 729 830
f 826 824 831
f 826 831 832
f 740 831 733
f 733 831 824
f 828 741 735
f 741 828 737
f 742 738 833
f 738 834 833
f 738 830 834
f 835 743 742
f 835 742 833
f 835 745 743
f 838 837 836
f 836 837 832
f 836 832 831
f 748 836 831
f 747 748 831
f 747 831 740
f 834 839 833
f 833 839 835
f 835 839 840
f 835 840 745
f 840 749 745
f 840 841 749
f 749 842 750
f 841 842 749
f 836 751 838
f 751 842 838
f 751 750 842
f 751 836 748
f 844 843 754
f 754 843 753
f 845 754 755
f 845 844 754
f 847 845 846
f 845 756 846
f 845 755 756
f 758 846 756
f 843 759 753
f 848 759 843
f 849 847 846
f 849 846 758
f 760 849 758
f 850 849 760
f 852 850 851
f 850 761 851
f 850 760 761
f 763 851 761
f 855 854 853
f 848 855 853
f 765 848 853
f 759 848 765
f 852 851 856
f 852 856 857
f 766 858 763
f 858 851 763
f 858 856 851
f 768 858 766
f 861 860 859
f 861 859 854
f 859 853 854
f 859 862 853
f 862 770 765
f 862 765 853
f 857 856 863
f 857 863 864
f 865 856 858
f 863 856 865
f 772 865 768
f 768 865 858
f 859 860 866
f 866 860 867
f 859 868 862
f 859 866 868
f 868 774 770
f 868 770 862
f 869 864 863
f 871 870 869
f 863 871 869
f 865 871 863
f 777 871 772
f 772 871 865
f 866 867 872
f 872 867 873
f 872 778 779
f 868 872 779
f 866 872 868
f 868 779 774
f 876 875 874
f 877 874 875
f 878 870 871
f 878 871 777
f 780 878 777
f 879 878 780
f 880 780 781
f 880 879 780
f 882 880 881
f 880 782 881
f 880 781 782
f 784 881 782
f 884 883 787
f 787 883 786
f 788 872 873
f 884 788 873
f 787 788 884
f 872 788 778
f 887 886 885
f 885 886 876
f 874 885 876
f 888 885 874
f 874 877 889
f 874 889 888
f 882 881 790
f 791 882 790
f 890 882 791
f 790 881 784
f 892 891 794
f 794 891 793
f 794 786 883
f 794 883 892
f 887 885 796
f 797 887 796
f 893 887 797
f 796 885 799
f 799 885 888
f 895 894 800
f 895 800 799
f 889 895 799
f 888 889 799
f 896 894 895
f 898 897 802
f 898 802 803
f 802 899 804
f 897 899 802
f 791 804 890
f 890 804 899
f 891 806 793
f 900 806 891
f 903 902 901
f 902 893 901
f 893 808 901
f 893 797 808
f 904 810 894
f 894 810 800
f 894 896 905
f 906 894 905
f 904 894 906
f 905 898 906
f 898 811 906
f 898 803 811
f 909 908 907
f 907 910 812
f 900 907 812
f 806 900 812
f 907 900 909
f 910 813 812
f 903 901 911
f 903 911 912
f 815 911 808
f 808 911 901
f 913 816 904
f 904 816 810
f 819 913 818
f 913 906 818
f 913 904 906
f 818 906 811
f 907 908 822
f 908 821 822
f 908 914 821
f 907 822 823
f 907 823 910
f 910 823 813
f 912 911 825
f 826 912 825
f 915 912 826
f 825 911 815
f 913 827 816
f 827 913 819
f 914 916 821
f 821 916 829
f 830 829 916
f 830 916 917
f 920 919 918
f 919 915 918
f 915 832 918
f 915 826 832
f 917 834 830
f 921 834 917
f 924 923 922
f 922 923 920
f 922 920 918
f 838 922 918
f 837 838 918
f 837 918 832
f 921 925 834
f 834 925 839
f 839 926 840
f 925 926 839
f 840 927 841
f 926 927 840
f 922 842 924
f 842 927 924
f 842 841 927
f 842 922 838
f 930 929 928
f 928 931 930
f 928 929 844
f 929 843 844
f 929 932 843
f 933 931 928
f 844 933 928
f 845 933 844
f 845 847 933
f 933 847 934
f 937 936 935
f 932 937 935
f 848 932 935
f 843 932 848
f 938 934 847
f 938 847 849
f 939 849 850
f 939 938 849
f 850 852 939
f 939 852 940
f 943 942 941
f 943 941 936
f 936 941 935
f 941 854 935
f 854 855 935
f 935 855 848
f 946 945 944
f 945 940 944
f 940 857 944
f 940 852 857
f 941 942 861
f 942 860 861
f 942 947 860
f 941 861 854
f 950 949 948
f 952 951 948
f 952 948 949
f 951 952 946
f 944 951 946
f 953 951 944
f 864 953 857
f 857 953 944
f 947 867 860
f 954 867 947
f 950 948 955
f 950 955 956
f 957 948 951
f 955 948 957
f 958 951 953
f 957 951 958
f 869 959 864
f 959 953 864
f 959 958 953
f 870 959 869
f 962 961 960
f 954 962 960
f 873 954 960
f 867 954 873
f 965 964 963
f 963 964 956
f 955 963 956
f 966 963 955
f 967 955 957
f 966 955 967
f 876 967 875
f 967 958 875
f 967 957 958
f 875 958 877
f 958 968 877
f 958 959 968
f 878 969 870
f 969 959 870
f 969 968 959
f 879 970 878
f 878 970 969
f 880 971 879
f 879 971 970
f 882 971 880
f 974 973 972
f 974 972 961
f 961 972 960
f 972 883 960
f 883 884 960
f 960 884 873
f 965 963 975
f 965 975 976
f 977 963 966
f 975 963 977
f 887 977 886
f 977 967 886
f 977 966 967
f 886 967 876
f 978 889 968
f 968 889 877
f 979 968 969
f 978 968 979
f 980 969 970
f 979 969 980
f 981 970 971
f 980 970 981
f 890 981 882
f 882 981 971
f 972 973 892
f 973 891 892
f 973 982 891
f 972 892 883
f 976 975 983
f 976 983 984
f 985 975 977
f 983 975 985
f 893 985 887
f 887 985 977
f 978 895 889
f 895 978 896
f 978 986 896
f 978 979 986
f 898 986 897
f 986 980 897
f 986 979 980
f 897 980 899
f 899 980 981
f 899 981 890
f 982 900 891
f 987 900 982
f 984 983 988
f 984 988 989
f 903 988 902
f 988 985 902
f 988 983 985
f 902 985 893
f 986 905 896
f 905 986 898
f 991 990 909
f 909 990 908
f 909 900 987
f 909 987 991
f 989 988 992
f 989 992 993
f 912 992 903
f 903 992 988
f 990 914 908
f 994 914 990
f 993 992 995
f 993 995 996
f 915 995 912
f 912 995 992
f 916 914 997
f 914 998 997
f 914 994 998
f 997 917 916
f 1001 1000 999
f 999 1000 996
f 999 996 995
f 920 999 995
f 919 920 995
f 919 995 915
f 998 1002 997
f 917 997 1002
f 1003 917 1002
f 921 917 1003
f 1001 999 923
f 924 1001 923
f 1004 1001 924
f 923 999 920
f 1003 1005 921
f 921 1005 925
f 925 1006 926
f 1005 1006 925
f 926 1007 927
f 1006 1007 926
f 924 927 1004
f 1004 927 1007
f 1009 1008 930
f 930 1008 929
f 1011 1010 931
f 1010 930 931
f 1010 1009 930
f 1011 1012 1010
f 1008 932 929
f 1013 932 1008
f 933 1011 931
f 1015 1014 934
f 934 1014 933
f 1014 1012 933
f 1012 1011 933
f 1015 1016 1014
f 1018 1017 937
f 937 1017 936
f 937 932 1013
f 937 1013 1018
f 938 1015 934
f 938 939 1015
f 939 1019 1015
f 1019 1016 1015
f 939 1020 1019
f 940 1020 939
f 1022 1021 943
f 943 1021 942
f 943 936 1017
f 943 1017 1022
f 1025 1024 1023
f 1027 1026 1023
f 1027 1023 1024
f 1026 1027 1019
f 1026 1019 1020
f 946 1026 1020
f 945 946 1020
f 945 1020 940
f 1030 1029 1028
f 1021 1030 1028
f 947 1021 1028
f 942 1021 947
f 1033 1032 1031
f 1031 1032 1025
f 1031 1025 1023
f 950 1031 1023
f 949 950 1023
f 949 1023 952
f 952 1023 1026
f 952 1026 946
f 1028 1029 1034
f 1034 1029 1035
f 1034 954 947
f 1034 947 1028
f 1038 1037 1036
f 1036 1037 1033
f 1031 1036 1033
f 1039 1036 1031
f 956 1039 950
f 950 1039 1031
f 1042 1041 1040
f 1044 1043 1040
f 1040 1043 1042
f 1043 1044 1035
f 1035 1044 1034
f 1044 961 1034
f 961 962 1034
f 1034 962 954
f 1038 1036 1045
f 1038 1045 1046
f 965 1045 964
f 1045 1039 964
f 1045 1036 1039
f 964 1039 956
f 1040 1041 1047
f 1047 1041 1048
f 1047 973 974
f 1044 1047 974
f 1040 1047 1044
f 1044 974 961
f 1046 1045 1049
f 1046 1049 1050
f 976 1049 965
f 965 1049 1045
f 1047 1048 1051
f 1051 1048 1052
f 1051 982 973
f 1051 973 1047
f 1050 1049 1053
f 1050 1053 1054
f 984 1053 976
f 976 1053 1049
f 1051 1052 1055
f 1055 1052 1056
f 1055 987 982
f 1055 982 1051
f 1054 1053 1057
f 1054 1057 1058
f 989 1057 984
f 984 1057 1053
f 1061 1060 1059
f 1061 1059 1056
f 1056 1059 1055
f 1059 990 1055
f 990 991 1055
f 1055 991 987
f 1058 1057 1062
f 1058 1062 1063
f 993 1062 989
f 989 1062 1057
f 1060 1064 1059
f 990 1059 1064
f 1065 990 1064
f 994 990 1065
f 1068 1067 1066
f 1066 1067 1063
f 1062 1066 1063
f 1069 1066 1062
f 996 1069 993
f 993 1069 1062
f 1065 998 994
f 1070 998 1065
f 1071 1068 1066
f 1001 1072 1000
f 1072 1066 1000
f 1066 1069 1000
f 1072 1071 1066
f 1000 1069 996
f 1070 1073 998
f 998 1073 1002
f 1003 1002 1073
f 1003 1073 1074
f 1077 1076 1075
f 1076 1072 1075
f 1072 1004 1075
f 1072 1001 1004
f 1074 1078 1003
f 1003 1078 1005
f 1005 1079 1006
f 1078 1079 1005
f 1075 1007 1077
f 1007 1079 1077
f 1007 1006 1079
f 1007 1075 1004
f 1080 1008 1009
f 1080 1009 1081
f 1009 1082 1081
f 1009 1010 1082
f 1084 1083 1012
f 1083 1010 1012
f 1083 1082 1010
f 1084 1085 1083
f 1088 1087 1086
f 1089 1088 1080
f 1088 1013 1080
f 1013 1008 1080
f 1088 1086 1013
f 1089 1080 1081
f 1014 1084 1012
f 1014 1016 1084
f 1016 1085 1084
f 1016 1090 1085
f 1093 1092 1091
f 1093 1091 1087
f 1087 1091 1086
f 1091 1017 1086
f 1017 1018 1086
f 1086 1094 1013
f 1094 1086 1095
f 1018 1095 1086
f 1095 1018 1096
f 1013 1096 1018
f 1096 1013 1094
f 1098 1097 1096
f 1098 1096 1094
f 1100 1099 1097
f 1100 1097 1098
f 1100 1090 1099
f 1090 1019 1099
f 1090 1016 1019
f 1103 1102 1101
f 1103 1101 1092
f 1092 1101 1091
f 1101 1021 1091
f 1021 1022 1091
f 1091 1022 1017
f 1095 1096 1104
f 1095 1104 1105
f 1025 1104 1024
f 1104 1097 1024
f 1104 1096 1097
f 1024 1097 1027
f 1027 1097 1099
f 1027 1099 1019
f 1108 1107 1106
f 1108 1106 1102
f 1102 1106 1101
f 1106 1029 1101
f 1029 1030 1101
f 1101 1030 1021
f 1111 1110 1109
f 1109 1110 1105
f 1109 1105 1104
f 1033 1109 1104
f 1032 1033 1104
f 1032 1104 1025
f 1114 1113 1112
f 1116 1115 1112
f 1112 1115 1114
f 1115 1116 1107
f 1116 1106 1107
f 1116 1117 1106
f 1117 1035 1029
f 1117 1029 1106
f 1120 1119 1118
f 1118 1119 1111
f 1118 1111 1109
f 1038 1118 1109
f 1037 1038 1109
f 1037 1109 1033
f 1112 1113 1121
f 1121 1113 1122
f 1121 1041 1042
f 1116 1121 1042
f 1112 1121 1116
f 1116 1042 1043
f 1116 1043 1117
f 1117 1043 1035
f 1120 1118 1123
f 1120 1123 1124
f 1046 1123 1038
f 1038 1123 1118
f 1122 1125 1121
f 1041 1121 1125
f 1126 1041 1125
f 1048 1041 1126
f 1124 1123 1127
f 1124 1127 1128
f 1050 1127 1046
f 1046 1127 1123
f 1126 1052 1048
f 1129 1052 1126
f 1128 1127 1130
f 1128 1130 1131
f 1054 1130 1050
f 1050 1130 1127
f 1129 1056 1052
f 1132 1056 1129
f 1131 1130 1133
f 1131 1133 1134
f 1058 1133 1054
f 1054 1133 1130
f 1136 1135 1061
f 1061 1135 1060
f 1061 1056 1132
f 1061 1132 1136
f 1139 1138 1137
f 1140 1137 1138
f 1134 1133 1141
f 1134 1141 1142
f 1063 1141 1058
f 1058 1141 1133
f 1135 1143 1060
f 1060 1143 1064
f 1145 1144 1065
f 1064 1145 1065
f 1143 1145 1064
f 1139 1137 1146
f 1145 1147 1144
f 1150 1149 1148
f 1140 1146 1137
f 1149 1150 1142
f 1149 1142 1141
f 1068 1149 1141
f 1067 1068 1141
f 1067 1141 1063
f 1151 1070 1144
f 1144 1070 1065
f 1144 1147 1152
f 1144 1152 1151
f 1148 1149 1153
f 1148 1153 1154
f 1071 1155 1068
f 1155 1149 1068
f 1155 1153 1149
f 1072 1155 1071
f 1151 1073 1070
f 1157 1156 1074
f 1157 1074 1073
f 1152 1157 1073
f 1151 1152 1073
f 1156 1157 1154
f 1153 1156 1154
f 1158 1156 1153
f 1077 1158 1076
f 1158 1155 1076
f 1158 1153 1155
f 1076 1155 1072
f 1156 1078 1074
f 1078 1156 1079
f 1079 1156 1158
f 1079 1158 1077
f 1159 1081 1082
f 1083 1160 1082
f 1082 1160 1159
f 1085 1160 1083
f 1161 1087 1088
f 1089 1162 1088
f 1088 1162 1161
f 1081 1159 1089
f 1159 1162 1089
f 1159 1163 1162
f 1164 1159 1160
f 1163 1159 1164
f 1090 1164 1085
f 1085 1164 1160
f 1167 1166 1165
f 1092 1093 1165
f 1093 1167 1165
f 1093 1168 1167
f 1168 1093 1087
f 1169 1168 1087
f 1161 1169 1087
f 1168 1169 1170
f 1095 1169 1094
f 1169 1162 1094
f 1169 1161 1162
f 1094 1162 1098
f 1098 1162 1163
f 1098 1163 1100
f 1100 1163 1164
f 1100 1164 1090
f 1173 1172 1171
f 1173 1171 1166
f 1166 1171 1165
f 1171 1102 1165
f 1102 1103 1165
f 1092 1165 1103
f 1176 1175 1174
f 1175 1176 1170
f 1169 1175 1170
f 1177 1175 1169
f 1105 1177 1095
f 1095 1177 1169
f 1180 1179 1178
f 1180 1178 1172
f 1172 1178 1171
f 1178 1107 1171
f 1107 1108 1171
f 1171 1108 1102
f 1174 1175 1181
f 1174 1181 1182
f 1111 1181 1110
f 1181 1177 1110
f 1181 1175 1177
f 1110 1177 1105
f 1184 1183 1114
f 1114 1183 1113
f 1115 1178 1179
f 1184 1115 1179
f 1114 1115 1184
f 1178 1115 1107
f 1187 1186 1185
f 1185 1186 1182
f 1185 1182 1181
f 1120 1185 1181
f 1119 1120 1181
f 1119 1181 1111
f 1190 1189 1188
f 1183 1190 1188
f 1122 1183 1188
f 1113 1183 1122
f 1187 1185 1191
f 1187 1191 1192
f 1124 1191 1120
f 1120 1191 1185
f 1188 1189 1193
f 1193 1189 1194
f 1195 1125 1122
f 1188 1195 1122
f 1193 1195 1188
f 1195 1126 1125
f 1198 1197 1196
f 1196 1197 1192
f 1191 1196 1192
f 1199 1196 1191
f 1128 1199 1124
f 1124 1199 1191
f 1194 1200 1193
f 1193 1200 1195
f 1195 1200 1201
f 1126 1195 1201
f 1202 1126 1201
f 1129 1126 1202
f 1198 1196 1203
f 1198 1203 1204
f 1205 1196 1199
f 1203 1196 1205
f 1131 1205 1128
f 1128 1205 1199
f 1207 1132 1206
f 1132 1202 1206
f 1132 1129 1202
f 1207 1206 1204
f 1203 1207 1204
f 1208 1207 1203
f 1209 1203 1205
f 1208 1203 1209
f 1134 1209 1131
f 1131 1209 1205
f 1210 1135 1136
f 1132 1207 1136
f 1207 1210 1136
f 1207 1211 1210
f 1139 1211 1138
f 1211 1208 1138
f 1211 1207 1208
f 1138 1208 1140
f 1208 1212 1140
f 1208 1209 1212
f 1142 1212 1134
f 1134 1212 1209
f 1210 1143 1135
f 1143 1210 1145
f 1145 1210 1211
f 1147 1145 1213
f 1145 1211 1213
f 1139 1146 1213
f 1139 1213 1211
f 1146 1140 1213
f 1140 1212 1213
f 1150 1148 1213
f 1150 1213 1212
f 1150 1212 1142
f 1214 1152 1213
f 1213 1152 1147
f 1154 1214 1148
f 1148 1214 1213
f 1214 1157 1152
f 1157 1214 1154
f 1217 1216 1215
f 1166 1167 1218
f 1217 1215 1219
f 1168 1220 1167
f 1167 1220 1218
f 1170 1220 1168
f 1223 1222 1221
f 1223 1221 1216
f 1216 1221 1215
f 1221 1172 1215
f 1172 1173 1215
f 1219 1215 1224
f 1173 1224 1215
f 1224 1173 1225
f 1166 1225 1173
f 1225 1166 1218
f 1174 1225 1176
f 1225 1220 1176
f 1225 1218 1220
f 1176 1220 1170
f 1228 1227 1226
f 1228 1226 1222
f 1222 1226 1221
f 1226 1179 1221
f 1179 1180 1221
f 1221 1180 1172
f 1224 1225 1229
f 1224 1229 1230
f 1182 1229 1174
f 1174 1229 1225
f 1233 1232 1231
f 1233 1231 1227
f 1227 1231 1226
f 1231 1183 1226
f 1183 1184 1226
f 1226 1184 1179
f 1236 1235 1234
f 1234 1235 1230
f 1234 1230 1229
f 1187 1234 1229
f 1186 1187 1229
f 1186 1229 1182
f 1231 1232 1190
f 1232 1189 1190
f 1232 1237 1189
f 1231 1190 1183
f 1240 1239 1238
f 1238 1239 1236
f 1234 1238 1236
f 1241 1238 1234
f 1192 1241 1187
f 1187 1241 1234
f 1243 1194 1242
f 1194 1237 1242
f 1194 1189 1237
f 1245 1244 1243
f 1245 1243 1242
f 1244 1245 1240
f 1238 1244 1240
f 1246 1244 1238
f 1198 1246 1197
f 1246 1241 1197
f 1246 1238 1241
f 1197 1241 1192
f 1243 1200 1194
f 1200 1243 1201
f 1201 1243 1244
f 1201 1244 1202
f 1244 1247 1202
f 1244 1246 1247
f 1204 1247 1198
f 1198 1247 1246
f 1247 1206 1202
f 1206 1247 1204
f 1248 1216 1217
f 1219 1248 1217
f 1249 1222 1223
f 1216 1248 1223
f 1248 1249 1223
f 1248 1250 1249
f 1224 1250 1219
f 1219 1250 1248
f 1251 1227 1228
f 1222 1249 1228
f 1249 1251 1228
f 1249 1252 1251
f 1253 1249 1250
f 1252 1249 1253
f 1230 1253 1224
f 1224 1253 1250
f 1254 1232 1233
f 1227 1251 1233
f 1251 1254 1233
f 1251 1255 1254
f 1256 1251 1252
f 1255 1251 1256
f 1236 1256 1235
f 1256 1253 1235
f 1256 1252 1253
f 1235 1253 1230
f 1257 1237 1254
f 1254 1237 1232
f 1258 1254 1255
f 1257 1254 1258
f 1240 1258 1239
f 1258 1256 1239
f 1258 1255 1256
f 1239 1256 1236
f 1257 1242 1237
f 1242 1257 1245
f 1245 1257 1258
f 1245 1258 1240
