v -1.2 4.0 -3.0
v -1.0 4.0 -3.4
v -1.0 3.8 -3.0
v -1.0 3.7 -2.0
v -1.3 4.0 -2.0
v -1.0 3.7 -1.0
v -1.3 4.0 -1.0
v -1.0 3.8 0.0
v -1.2 4.0 0.0
v -1.0 4.0 0.2
v -1.1 5.0 -5.0
v -1.0 5.0 -5.2
v -1.0 4.8 -5.0
v -1.0 4.4 -4.0
v -1.4 5.0 -4.0
v -1.5 5.0 -3.0
v -1.5 5.0 -2.0
v -1.5 5.0 -1.0
v -1.4 5.0 0.0
v -1.0 5.0 0.4
v -1.1 6.0 -8.0
v -1.0 6.0 -8.2
v -1.0 5.8 -8.0
v -1.0 5.7 -7.0
v -1.2 6.0 -7.0
v -1.0 6.0 -6.5
v -1.0 5.5 -5.0
v -1.4 6.0 -4.0
v -1.0 6.0 -4.8
v -1.5 6.0 -3.0
v -1.5 6.0 -2.0
v -1.5 6.0 -1.0
v -1.4 6.0 0.0
v -1.0 6.0 0.5
v -1.0 6.2 -8.0
v -1.2 7.0 -7.0
v -1.0 7.0 -7.4
v -1.0 6.5 -6.0
v -1.3 7.0 -6.0
v -1.0 6.2 -5.0
v -1.4 7.0 -5.0
v -1.5 7.0 -4.0
v -1.5 7.0 -3.0
v -1.5 7.0 -2.0
v -1.5 7.0 -1.0
v -1.4 7.0 0.0
v -1.0 7.0 0.5
v -1.0 7.3 -7.0
v -1.0 7.5 -6.0
v -1.3 8.0 -5.0
v -1.0 8.0 -5.5
v -1.4 8.0 -4.0
v -1.4 8.0 -3.0
v -1.4 8.0 -2.0
v -1.4 8.0 -1.0
v -1.2 8.0 0.0
v -1.0 8.0 0.3
v -1.0 8.4 -5.0
v -1.0 8.5 -4.0
v -1.0 8.5 -3.0
v -1.0 8.5 -2.0
v -1.0 8.5 -1.0
v -1.0 8.3 0.0
v -0.2 3.0 -12.0
v 0.0 3.0 -12.4
v 0.0 2.8 -12.0
v 0.0 2.7 -11.0
v -0.3 3.0 -11.0
v 0.0 2.6 -10.0
v -0.4 3.0 -10.0
v 0.0 2.5 -9.0
v -0.4 3.0 -9.0
v 0.0 2.6 -8.0
v -0.3 3.0 -8.0
v 0.0 3.0 -7.5
v -0.0 4.0 -15.0
v 0.0 4.0 -15.0
v 0.0 4.0 -15.0
v 0.0 3.7 -14.0
v -0.2 4.0 -14.0
v 0.0 3.4 -13.0
v -0.4 4.0 -13.0
v -0.5 4.0 -12.0
v -0.5 4.0 -11.0
v -0.5 4.0 -10.0
v -0.5 4.0 -9.0
v -0.5 4.0 -8.0
v 0.0 3.4 -7.0
v -0.4 4.0 -7.0
v 0.0 3.5 -6.0
v -0.4 4.0 -6.0
v 0.0 3.5 -5.0
v -0.5 4.0 -5.0
v 0.0 3.5 -4.0
v -0.6 4.0 -4.0
v 0.0 3.5 -3.0
v 0.0 3.5 -2.0
v 0.0 3.5 -1.0
v 0.0 3.6 0.0
v 0.0 4.0 0.4
v 0.0 4.0 -15.0
v 0.0 4.3 -14.0
v -0.3 5.0 -13.0
v 0.0 5.0 -13.4
v -0.4 5.0 -12.0
v -0.3 5.0 -11.0
v -0.3 5.0 -10.0
v -0.4 5.0 -9.0
v -0.6 5.0 -8.0
v -0.6 5.0 -7.0
v -0.6 5.0 -6.0
v 0.0 4.7 1.0
v -0.3 5.0 1.0
v 0.0 5.0 1.2
v 0.0 5.9 -13.0
v -0.1 6.0 -12.0
v 0.0 6.0 -12.7
v -0.0 6.0 -11.0
v 0.0 6.0 -11.0
v 0.0 5.5 -10.0
v -0.3 6.0 -9.0
v 0.0 6.0 -9.4
v -0.7 6.0 -6.0
v -0.9 6.0 -5.0
v -0.5 6.0 1.0
v 0.0 6.0 1.4
v 0.0 6.1 -12.0
v 0.0 6.0 -11.0
v -0.3 7.0 -9.0
v 0.0 7.0 -9.6
v -0.6 7.0 -8.0
v -0.5 7.0 1.0
v 0.0 7.0 1.4
v -0.2 8.0 -9.0
v 0.0 8.0 -9.2
v -0.4 8.0 -8.0
v -0.5 8.0 -7.0
v -0.6 8.0 -6.0
v -0.4 8.0 1.0
v 0.0 8.0 1.4
v 0.0 8.6 -9.0
v -0.1 9.0 -8.0
v 0.0 9.0 -8.6
v -0.1 9.0 -7.0
v -0.2 9.0 -6.0
v -0.4 9.0 -5.0
v -0.5 9.0 -4.0
v -0.6 9.0 -3.0
v -0.6 9.0 -2.0
v -0.6 9.0 -1.0
v -0.5 9.0 0.0
v -0.2 9.0 1.0
v 0.0 9.0 1.2
v 0.0 9.1 -8.0
v 0.0 9.1 -7.0
v 0.0 9.2 -6.0
v 0.0 9.9 -5.0
v -0.1 10.0 -4.0
v 0.0 10.0 -4.7
v -0.2 10.0 -3.0
v -0.2 10.0 -2.0
v -0.2 10.0 -1.0
v 0.0 10.0 -0.8
v 0.0 9.5 0.0
v 0.0 9.2 1.0
v 0.0 10.1 -4.0
v 0.0 10.2 -3.0
v 0.0 10.2 -2.0
v 0.0 10.2 -1.0
v 0.7 1.0 -15.0
v 1.0 1.0 -15.7
v 1.0 0.2 -15.0
v 1.0 0.5 -14.0
v 0.9 1.0 -14.0
v 1.0 1.0 -13.9
v 0.9 1.0 -9.0
v 1.0 1.0 -9.1
v 1.0 0.4 -9.0
v 1.0 1.0 -8.0
v 0.8 2.0 -15.0
v 1.0 2.0 -15.3
v 0.8 2.0 -14.0
v 1.0 2.0 -13.7
v 0.7 2.0 -9.0
v 1.0 2.0 -9.3
v 1.0 1.0 -8.0
v 0.6 2.0 -8.0
v 1.0 1.8 -7.0
v 0.8 2.0 -7.0
v 1.0 2.0 -6.8
v 0.5 3.0 -15.0
v 1.0 3.0 -15.6
v 0.4 3.0 -14.0
v 1.0 2.5 -13.0
v 0.4 3.0 -13.0
v 1.0 2.6 -12.0
v 1.0 2.6 -11.0
v 1.0 2.5 -10.0
v 0.4 3.0 -7.0
v 1.0 2.6 -6.0
v 0.5 3.0 -6.0
v 1.0 2.8 -5.0
v 0.7 3.0 -5.0
v 1.0 3.0 -4.0
v 1.0 3.0 -4.0
v 1.0 3.0 -4.0
v 0.9 4.0 -16.0
v 1.0 4.0 -16.1
v 1.0 3.9 -16.0
v 1.0 3.5 -3.0
v 1.0 3.6 -2.0
v 1.0 3.6 -1.0
v 1.0 3.8 0.0
v 1.0 4.0 0.3
v 1.0 4.1 -16.0
v 1.0 4.4 -15.0
v 1.0 4.6 -14.0
v 1.0 5.0 -13.3
v 0.7 5.0 -12.0
v 1.0 4.8 -12.0
v 1.0 5.0 -12.6
v 0.5 5.0 -11.0
v 1.0 4.7 -11.0
v 0.6 5.0 -10.0
v 1.0 4.8 -10.0
v 1.0 5.0 -9.1
v 1.0 4.7 1.0
v 1.0 5.0 1.2
v 1.0 5.2 -13.0
v 0.2 6.0 -12.0
v 0.0 6.0 -11.0
v 0.4 6.0 -9.0
v 1.0 5.1 -9.0
v 1.0 6.0 -8.1
v 1.0 6.0 1.4
v 0.3 7.0 -9.0
v 1.0 6.1 -8.0
v 0.7 7.0 -8.0
v 1.0 7.0 -7.7
v 1.0 7.0 1.5
v 0.2 8.0 -9.0
v 0.4 8.0 -8.0
v 1.0 7.6 -7.0
v 0.5 8.0 -7.0
v 0.8 8.0 -6.0
v 1.0 7.9 -6.0
v 1.0 8.0 -5.8
v 1.0 8.0 1.5
v 0.1 9.0 -8.0
v 0.1 9.0 -7.0
v 0.2 9.0 -6.0
v 1.0 8.4 -5.0
v 0.4 9.0 -5.0
v 0.7 9.0 -4.0
v 1.0 8.8 -4.0
v 1.0 9.0 -3.7
v 1.0 9.0 1.4
v 0.1 10.0 -4.0
v 1.0 9.5 -3.0
v 0.3 10.0 -3.0
v 0.6 10.0 -2.0
v 1.0 9.9 -2.0
v 1.0 10.0 -1.7
v 1.0 9.8 0.0
v 1.0 10.0 -0.3
v 1.0 9.8 1.0
v 1.0 10.3 -1.0
v 1.9 1.0 -17.0
v 2.0 1.0 -17.1
v 2.0 1.0 -17.0
v 2.0 1.0 -16.9
v 1.3 1.0 -15.0
v 1.1 1.0 -14.0
v 1.1 1.0 -9.0
v 1.3 2.0 -17.0
v 2.0 2.0 -17.4
v 2.0 2.0 -16.5
v 1.3 2.0 -15.0
v 1.3 2.0 -14.0
v 1.3 2.0 -9.0
v 1.4 2.0 -8.0
v 1.6 2.0 -7.0
v 1.7 3.0 -17.0
v 2.0 3.0 -17.3
v 2.0 2.6 -16.0
v 1.5 3.0 -16.0
v 2.0 2.6 -15.0
v 2.0 2.5 -14.0
v 2.0 2.7 -13.0
v 1.6 3.0 -12.0
v 2.0 3.0 -12.6
v 1.6 3.0 -11.0
v 1.9 3.0 -10.0
v 2.0 3.0 -9.9
v 2.0 2.6 -9.0
v 2.0 3.0 -8.3
v 1.8 3.0 -8.0
v 1.8 3.0 -7.0
v 2.0 2.8 -6.0
v 2.0 3.0 -6.6
v 1.4 3.0 -5.0
v 2.0 3.0 -5.7
v 1.0 3.0 -4.0
v 2.0 3.4 -17.0
v 2.0 4.0 -16.4
v 2.0 3.5 -12.0
v 2.0 3.3 -11.0
v 2.0 3.1 -10.0
v 2.0 3.2 -8.0
v 2.0 3.1 -7.0
v 2.0 3.5 -5.0
v 2.0 4.0 -4.5
v 1.7 4.0 -4.0
v 1.5 4.0 -3.0
v 1.5 4.0 -2.0
v 1.4 4.0 -1.0
v 1.2 4.0 0.0
v 2.0 4.2 -16.0
v 2.0 4.3 -15.0
v 2.0 4.4 -14.0
v 1.3 5.0 -13.0
v 2.0 4.6 -13.0
v 2.0 4.6 -12.0
v 2.0 5.0 -11.0
v 1.2 5.0 -10.0
v 2.0 5.0 -11.0
v 2.0 4.4 -4.0
v 2.0 4.5 -3.0
v 2.0 4.5 -2.0
v 2.0 4.7 -1.0
v 2.0 5.0 -0.7
v 1.6 5.0 0.0
v 1.2 5.0 1.0
v 2.0 5.9 -12.0
v 1.9 6.0 -12.0
v 2.0 6.0 -12.0
v 2.0 5.1 -11.0
v 1.7 6.0 -11.0
v 1.6 6.0 -10.0
v 1.4 6.0 -9.0
v 1.9 6.0 -5.0
v 2.0 5.9 -5.0
v 2.0 6.0 -5.1
v 2.0 6.0 -4.9
v 1.6 6.0 0.0
v 2.0 6.0 -0.5
v 1.4 6.0 1.0
v 2.0 6.0 -12.0
v 2.0 6.2 -11.0
v 2.0 6.4 -10.0
v 2.0 6.6 -9.0
v 1.5 7.0 -8.0
v 2.0 7.0 -8.5
v 1.8 7.0 -5.0
v 2.0 7.0 -5.4
v 2.0 7.0 -4.7
v 1.9 7.0 0.0
v 2.0 7.0 -0.2
v 2.0 7.0 0.7
v 2.0 6.9 1.0
v 2.0 7.0 1.1
v 2.0 7.3 -8.0
v 2.0 7.4 -7.0
v 2.0 7.7 -6.0
v 1.5 8.0 -5.0
v 2.0 8.0 -4.6
v 2.0 7.2 0.0
v 2.0 8.0 1.3
v 2.0 8.6 -4.0
v 2.0 9.0 -3.6
v 2.0 9.0 1.2
v 2.0 9.5 -3.0
v 1.3 10.0 -2.0
v 2.0 10.0 -2.3
v 1.6 10.0 0.0
v 2.0 10.0 0.2
v 2.0 9.3 1.0
v 2.0 10.2 -2.0
v 2.0 10.3 -1.0
v 2.0 10.1 0.0
v 2.8 -2.0 -14.0
v 3.0 -2.0 -14.8
v 3.0 -2.2 -14.0
v 3.0 -2.2 -13.0
v 2.8 -2.0 -13.0
v 3.0 -2.2 -12.0
v 2.8 -2.0 -12.0
v 3.0 -2.2 -11.0
v 2.8 -2.0 -11.0
v 3.0 -2.0 -10.3
v 3.0 -1.8 -14.0
v 3.0 -1.8 -13.0
v 3.0 -1.8 -12.0
v 3.0 -1.8 -11.0
v 2.8 1.0 -18.0
v 3.0 1.0 -18.2
v 3.0 0.8 -18.0
v 3.0 0.8 -17.0
v 3.0 1.0 -16.8
v 2.6 2.0 -18.0
v 3.0 2.0 -18.3
v 3.0 2.0 -16.6
v 2.7 3.0 -18.0
v 3.0 3.0 -18.3
v 2.4 3.0 -16.0
v 3.0 3.0 -16.5
v 2.4 3.0 -15.0
v 2.4 3.0 -14.0
v 2.3 3.0 -13.0
v 2.5 3.0 -11.0
v 3.0 3.0 -11.4
v 3.0 2.7 -11.0
v 3.0 2.6 -10.0
v 2.1 3.0 -10.0
v 3.0 2.6 -9.0
v 3.0 3.0 -8.4
v 2.2 3.0 -6.0
v 2.9 4.0 -18.0
v 3.0 4.0 -18.3
v 2.7 4.0 -17.0
v 3.0 4.0 -16.7
v 2.3 4.0 -16.0
v 2.3 4.0 -15.0
v 2.4 4.0 -14.0
v 2.5 4.0 -13.0
v 2.8 4.0 -12.0
v 3.0 4.0 -11.9
v 3.0 3.3 -8.0
v 3.0 3.7 -7.0
v 2.6 4.0 -6.0
v 3.0 4.0 -6.7
v 2.3 4.0 -5.0
v 3.0 4.2 -18.0
v 3.0 4.5 -17.0
v 3.0 5.0 -13.2
v 3.0 4.7 -13.0
v 2.6 5.0 -13.0
v 2.6 4.4 -12.3
v 3.0 4.1 -12.0
v 2.3 5.0 -12.0
v 2.0 5.0 -11.0
v 2.6 5.0 -6.0
v 3.0 5.0 -6.6
v 2.4 5.0 -5.0
v 2.4 5.0 -4.0
v 2.4 5.0 -3.0
v 2.4 5.0 -2.0
v 2.2 5.0 -1.0
v 2.8 6.0 -13.0
v 3.0 6.0 -13.2
v 2.7 6.0 -7.0
v 3.0 5.5 -7.0
v 3.0 6.0 -7.4
v 2.4 6.0 -6.0
v 2.4 6.0 -4.0
v 2.5 6.0 -3.0
v 2.5 6.0 -2.0
v 2.4 6.0 -1.0
v 3.0 6.2 -13.0
v 3.0 6.5 -12.0
v 3.0 6.6 -11.0
v 2.8 7.0 -10.0
v 3.0 7.0 -10.2
v 2.4 7.0 -9.0
v 2.5 7.0 -7.0
v 3.0 7.0 -7.6
v 2.3 7.0 -6.0
v 2.5 7.0 -4.0
v 2.6 7.0 -3.0
v 2.5 7.0 -2.0
v 2.5 7.0 -1.0
v 2.1 7.0 1.0
v 3.0 7.1 -10.0
v 3.0 7.9 -9.0
v 3.0 7.9 -8.0
v 3.0 8.0 -4.2
v 3.0 7.8 -4.0
v 3.0 7.6 -3.0
v 3.0 8.0 -2.4
v 2.8 8.0 -2.0
v 2.9 8.0 -1.0
v 2.5 8.0 0.0
v 2.3 8.0 1.0
v 3.0 9.0 -4.0
v 3.0 9.0 -4.0
v 3.0 8.4 -2.0
v 3.0 9.0 -1.5
v 2.7 9.0 -1.0
v 2.5 9.0 0.0
v 2.2 9.0 1.0
v 3.0 9.0 -4.0
v 3.0 9.4 -3.0
v 3.0 10.0 -2.0
v 2.4 10.0 -1.0
v 3.0 10.0 -2.0
v 2.1 10.0 0.0
v 3.0 10.0 -2.0
v 3.7 -3.0 -14.0
v 4.0 -3.0 -14.5
v 4.0 -3.3 -14.0
v 4.0 -3.4 -13.0
v 3.5 -3.0 -13.0
v 4.0 -3.4 -12.0
v 3.5 -3.0 -12.0
v 4.0 -3.2 -11.0
v 3.7 -3.0 -11.0
v 4.0 -3.0 -10.8
v 4.0 -2.0 -16.0
v 4.0 -2.0 -16.0
v 4.0 -2.0 -16.0
v 4.0 -2.5 -15.0
v 3.1 -2.0 -15.0
v 4.0 -2.0 -10.6
v 4.0 -2.0 -16.0
v 4.0 -1.6 -15.0
v 4.0 -1.5 -14.0
v 4.0 -1.5 -13.0
v 4.0 -1.5 -12.0
v 4.0 -1.7 -11.0
v 4.0 1.0 -18.1
v 4.0 0.7 -18.0
v 3.2 1.0 -17.0
v 4.0 1.0 -17.8
v 4.0 2.0 -18.1
v 3.5 2.0 -17.0
v 4.0 2.0 -17.9
v 4.0 2.1 -18.0
v 3.4 3.0 -18.0
v 3.8 3.0 -17.0
v 3.6 3.0 -12.0
v 4.0 3.0 -12.3
v 4.0 2.6 -12.0
v 4.0 2.4 -11.0
v 4.0 2.5 -10.0
v 4.0 2.6 -9.0
v 4.0 2.9 -8.0
v 3.9 3.0 -8.0
v 4.0 3.0 -7.9
v 3.1 4.0 -18.0
v 3.2 4.0 -17.0
v 3.1 4.0 -12.0
v 4.0 4.0 -12.5
v 4.0 4.0 -7.7
v 3.3 4.0 -7.0
v 4.0 5.0 -13.3
v 4.0 4.5 -13.0
v 3.7 5.0 -8.0
v 4.0 4.5 -8.0
v 4.0 5.0 -8.4
v 3.3 5.0 -7.0
v 4.0 6.0 -13.2
v 3.5 6.0 -8.0
v 4.0 6.0 -8.7
v 4.0 6.2 -13.0
v 4.0 6.4 -12.0
v 4.0 6.4 -11.0
v 3.2 7.0 -10.0
v 4.0 6.5 -10.0
v 3.5 7.0 -9.0
v 4.0 6.3 -9.0
v 3.3 7.0 -8.0
v 3.2 8.0 -4.0
v 3.3 8.0 -3.0
v 3.0 9.0 -4.0
v 3.3 9.0 -3.0
v 3.3 9.0 -2.0
v 3.0 10.0 -2.0
v 4.5 -3.0 -15.0
v 5.0 -3.0 -15.5
v 5.0 -3.3 -15.0
v 5.0 -3.5 -14.0
v 5.0 -3.5 -13.0
v 5.0 -3.5 -12.0
v 5.0 -3.2 -11.0
v 5.0 -3.0 -10.8
v 5.0 -2.0 -16.6
v 5.0 -2.5 -16.0
v 5.0 -2.0 -10.8
v 5.0 -1.7 -16.0
v 5.0 -1.5 -15.0
v 5.0 -1.5 -14.0
v 5.0 -1.5 -13.0
v 5.0 -1.6 -12.0
v 5.0 -1.8 -11.0
v 4.1 1.0 -18.0
v 4.1 2.0 -18.0
v 4.8 2.0 -13.0
v 5.0 2.0 -13.3
v 5.0 1.8 -13.0
v 5.0 1.6 -12.0
v 4.6 2.0 -12.0
v 5.0 1.7 -11.0
v 4.6 2.0 -11.0
v 5.0 2.0 -10.5
v 4.6 3.0 -13.0
v 5.0 3.0 -13.4
v 5.0 2.4 -10.0
v 5.0 2.9 -9.0
v 4.1 3.0 -8.0
v 5.0 3.0 -8.9
v 5.0 3.7 -13.0
v 5.0 4.0 -12.8
v 4.7 4.0 -9.0
v 5.0 3.2 -9.0
v 5.0 4.0 -9.4
v 4.3 4.0 -8.0
v 5.0 5.0 -13.1
v 5.0 4.7 -13.0
v 4.7 5.0 -10.0
v 5.0 4.6 -10.0
v 5.0 5.0 -10.5
v 4.4 5.0 -9.0
v 5.0 5.1 -13.0
v 4.2 6.0 -13.0
v 4.5 6.0 -12.0
v 5.0 5.5 -12.0
v 4.5 6.0 -11.0
v 5.0 5.4 -11.0
v 4.4 6.0 -10.0
v 4.2 6.0 -9.0
v 5.7 -3.0 -16.0
v 6.0 -3.0 -16.2
v 6.0 -3.2 -16.0
v 6.0 -3.4 -15.0
v 6.0 -3.3 -14.0
v 6.0 -3.3 -13.0
v 6.0 -3.1 -12.0
v 5.2 -3.0 -11.0
v 6.0 -3.0 -11.9
v 6.0 -2.0 -16.2
v 5.5 -2.0 -12.0
v 6.0 -2.9 -12.0
v 6.0 -2.0 -12.6
v 5.2 -2.0 -11.0
v 6.0 -1.8 -16.0
v 6.0 -1.7 -15.0
v 6.0 -1.7 -14.0
v 6.0 -1.8 -13.0
v 5.8 2.0 -14.0
v 6.0 2.0 -14.2
v 6.0 1.8 -14.0
v 6.0 1.5 -13.0
v 6.0 1.5 -12.0
v 6.0 1.5 -11.0
v 6.0 1.9 -10.0
v 5.8 2.0 -10.0
v 6.0 2.0 -9.9
v 5.7 3.0 -14.0
v 6.0 3.0 -14.3
v 6.0 3.0 -9.6
v 5.1 3.0 -9.0
v 6.0 3.4 -14.0
v 5.3 4.0 -13.0
v 6.0 4.0 -13.4
v 5.5 4.0 -10.0
v 6.0 3.5 -10.0
v 6.0 4.0 -10.5
v 5.1 5.0 -13.0
v 6.0 4.4 -13.0
v 6.0 4.5 -12.0
v 5.5 5.0 -12.0
v 5.4 5.0 -11.0
v 6.0 4.4 -11.0
v 6.8 -3.0 -16.0
v 6.4 -3.0 -15.0
v 6.3 -3.0 -14.0
v 6.3 -3.0 -13.0
v 6.1 -3.0 -12.0
v 6.2 -2.0 -16.0
v 6.4 -2.0 -15.0
v 6.3 -2.0 -14.0
v 6.2 -2.0 -13.0
v 7.0 2.0 -14.2
v 7.0 1.8 -14.0
v 7.0 1.5 -13.0
v 7.0 1.5 -12.0
v 7.0 1.7 -11.0
v 6.2 2.0 -10.0
v 7.0 2.0 -10.6
v 7.0 3.0 -14.5
v 7.0 3.0 -10.0
v 7.0 3.0 -10.0
v 6.7 4.0 -14.0
v 7.0 4.0 -14.2
v 6.6 4.0 -12.0
v 7.0 3.7 -12.0
v 7.0 4.0 -12.5
v 6.4 4.0 -11.0
v 7.0 3.5 -11.0
v 7.0 3.0 -10.0
v 7.0 4.2 -14.0
v 7.0 4.3 -13.0
v 7.3 2.0 -14.0
v 8.0 2.0 -13.3
v 8.0 1.8 -13.0
v 8.0 1.8 -12.0
v 7.3 2.0 -11.0
v 8.0 2.0 -11.7
v 8.0 3.0 -14.2
v 8.0 2.7 -14.0
v 7.4 3.0 -11.0
v 8.0 3.0 -11.7
v 7.0 3.0 -10.0
v 8.0 4.0 -14.0
v 8.0 4.0 -14.0
v 7.4 4.0 -13.0
v 8.0 3.5 -13.0
v 8.0 3.2 -12.0
v 8.2 2.0 -13.0
v 8.2 2.0 -12.0
v 8.2 3.0 -14.0
v 8.4 3.0 -13.0
v 8.2 3.0 -12.0
f 3 2 1
f 5 4 1
f 1 4 3
f 7 6 5
f 5 6 4
f 9 8 7
f 7 8 6
f 9 10 8
f 13 12 11
f 15 14 11
f 11 14 13
f 14 15 2
f 15 1 2
f 15 16 1
f 1 17 5
f 1 16 17
f 5 18 7
f 5 17 18
f 7 19 9
f 7 18 19
f 10 9 20
f 20 9 19
f 23 22 21
f 25 24 21
f 21 24 23
f 25 26 24
f 12 27 11
f 29 28 27
f 28 11 27
f 28 15 11
f 15 30 16
f 15 28 30
f 16 31 17
f 16 30 31
f 17 32 18
f 17 31 32
f 18 33 19
f 18 32 33
f 20 19 34
f 34 19 33
f 22 35 21
f 37 36 35
f 36 21 35
f 36 25 21
f 26 25 38
f 25 39 38
f 25 36 39
f 41 40 39
f 39 40 38
f 40 41 29
f 41 28 29
f 41 42 28
f 28 43 30
f 28 42 43
f 30 44 31
f 30 43 44
f 31 45 32
f 31 44 45
f 32 46 33
f 32 45 46
f 34 33 47
f 47 33 46
f 37 48 36
f 36 48 39
f 39 48 49
f 51 50 49
f 50 39 49
f 50 41 39
f 41 52 42
f 41 50 52
f 42 53 43
f 42 52 53
f 43 54 44
f 43 53 54
f 44 55 45
f 44 54 55
f 45 56 46
f 45 55 56
f 47 46 57
f 57 46 56
f 51 58 50
f 50 58 52
f 52 58 59
f 52 59 53
f 53 59 60
f 53 60 54
f 54 60 61
f 54 61 55
f 55 61 62
f 55 62 56
f 56 62 63
f 56 63 57
f 66 65 64
f 68 67 64
f 64 67 66
f 70 69 68
f 68 69 67
f 72 71 70
f 70 71 69
f 74 73 72
f 72 73 71
f 74 75 73
f 78 77 76
f 80 79 76
f 76 79 78
f 82 81 80
f 80 81 79
f 81 82 65
f 82 64 65
f 82 83 64
f 64 84 68
f 64 83 84
f 68 85 70
f 68 84 85
f 70 86 72
f 70 85 86
f 72 87 74
f 72 86 87
f 75 74 88
f 74 89 88
f 74 87 89
f 91 90 89
f 89 90 88
f 93 92 91
f 91 92 90
f 95 94 93
f 93 94 92
f 2 3 95
f 3 94 95
f 3 96 94
f 97 3 4
f 97 96 3
f 98 4 6
f 98 97 4
f 99 6 8
f 99 98 6
f 8 10 99
f 99 10 100
f 77 101 76
f 76 101 80
f 80 101 102
f 104 103 102
f 103 80 102
f 103 82 80
f 82 105 83
f 82 103 105
f 83 106 84
f 83 105 106
f 84 107 85
f 84 106 107
f 85 108 86
f 85 107 108
f 86 109 87
f 86 108 109
f 87 110 89
f 87 109 110
f 89 111 91
f 89 110 111
f 111 12 13
f 93 111 13
f 91 111 93
f 93 13 14
f 93 14 95
f 95 14 2
f 20 113 112
f 100 20 112
f 10 20 100
f 113 114 112
f 104 115 103
f 117 116 115
f 116 103 115
f 116 105 103
f 105 118 106
f 105 116 118
f 120 107 119
f 107 118 119
f 107 106 118
f 122 121 120
f 121 107 120
f 121 108 107
f 121 22 23
f 109 121 23
f 108 121 109
f 109 23 24
f 109 24 110
f 110 24 26
f 123 110 26
f 111 110 123
f 124 27 12
f 111 124 12
f 123 124 111
f 124 29 27
f 34 125 113
f 34 113 20
f 114 113 126
f 126 113 125
f 117 127 116
f 116 127 118
f 118 127 128
f 118 128 119
f 121 122 129
f 129 122 130
f 131 35 22
f 121 131 22
f 129 131 121
f 131 37 35
f 38 123 26
f 123 38 40
f 123 40 124
f 124 40 29
f 47 132 125
f 47 125 34
f 126 125 133
f 133 125 132
f 129 130 134
f 134 130 135
f 129 136 131
f 129 134 136
f 137 48 37
f 131 137 37
f 136 137 131
f 138 49 48
f 138 48 137
f 138 51 49
f 57 139 132
f 57 132 47
f 133 132 140
f 140 132 139
f 135 141 134
f 143 142 141
f 142 134 141
f 142 136 134
f 136 144 137
f 136 142 144
f 137 145 138
f 137 144 145
f 146 58 51
f 138 146 51
f 145 146 138
f 147 59 58
f 147 58 146
f 148 60 59
f 148 59 147
f 149 61 60
f 149 60 148
f 150 62 61
f 150 61 149
f 151 63 62
f 151 62 150
f 139 57 63
f 151 139 63
f 152 139 151
f 140 139 153
f 153 139 152
f 143 154 142
f 142 154 144
f 144 154 155
f 144 155 145
f 145 155 156
f 145 156 146
f 146 156 157
f 159 158 157
f 158 146 157
f 158 147 146
f 147 160 148
f 147 158 160
f 148 161 149
f 148 160 161
f 149 162 150
f 149 161 162
f 164 151 163
f 151 162 163
f 151 150 162
f 151 164 152
f 152 164 165
f 152 165 153
f 159 166 158
f 158 166 160
f 160 166 167
f 160 167 161
f 161 167 168
f 161 168 162
f 162 168 169
f 162 169 163
f 172 171 170
f 174 173 170
f 170 173 172
f 174 175 173
f 178 177 176
f 176 179 178
f 170 171 180
f 180 171 181
f 170 182 174
f 170 180 182
f 175 174 183
f 183 174 182
f 176 177 184
f 184 177 185
f 179 176 186
f 176 187 186
f 176 184 187
f 189 188 187
f 187 188 186
f 189 190 188
f 180 181 191
f 191 181 192
f 180 193 182
f 180 191 193
f 183 182 194
f 182 195 194
f 182 193 195
f 65 66 195
f 66 194 195
f 66 196 194
f 197 66 67
f 197 196 66
f 198 67 69
f 198 197 67
f 71 184 185
f 198 71 185
f 69 71 198
f 184 71 73
f 184 73 187
f 187 73 75
f 199 187 75
f 189 187 199
f 190 189 200
f 189 201 200
f 189 199 201
f 203 202 201
f 201 202 200
f 205 204 203
f 203 204 202
f 205 206 204
f 209 208 207
f 209 207 192
f 192 207 191
f 207 77 191
f 77 78 191
f 191 78 79
f 191 79 193
f 193 79 81
f 193 81 195
f 195 81 65
f 88 199 75
f 199 88 90
f 199 90 201
f 201 90 92
f 201 92 203
f 203 92 94
f 203 94 205
f 210 206 205
f 94 210 205
f 96 210 94
f 211 96 97
f 211 210 96
f 212 97 98
f 212 211 97
f 213 98 99
f 213 212 98
f 99 100 213
f 213 100 214
f 208 215 207
f 207 215 77
f 215 101 77
f 215 216 101
f 101 217 102
f 216 217 101
f 104 102 217
f 104 217 218
f 221 220 219
f 223 222 219
f 223 219 220
f 225 224 222
f 225 222 223
f 226 224 225
f 227 214 100
f 227 100 112
f 112 114 227
f 227 114 228
f 218 229 104
f 104 229 115
f 219 230 117
f 229 219 117
f 115 229 117
f 221 219 229
f 231 219 222
f 230 219 231
f 119 231 120
f 231 224 120
f 231 222 224
f 233 232 122
f 233 122 120
f 226 233 120
f 224 226 120
f 234 232 233
f 126 228 114
f 126 235 228
f 230 127 117
f 127 230 128
f 128 230 231
f 128 231 119
f 236 130 232
f 232 130 122
f 232 234 237
f 238 232 237
f 236 232 238
f 239 238 237
f 133 235 126
f 133 240 235
f 241 135 236
f 236 135 130
f 242 236 238
f 241 236 242
f 238 239 243
f 244 238 243
f 242 238 244
f 246 245 244
f 246 244 243
f 247 245 246
f 140 240 133
f 140 248 240
f 241 141 135
f 141 241 143
f 241 249 143
f 241 242 249
f 250 242 244
f 249 242 250
f 251 244 245
f 250 244 251
f 245 247 252
f 253 245 252
f 251 245 253
f 255 254 253
f 255 253 252
f 256 254 255
f 153 248 140
f 153 257 248
f 249 154 143
f 154 249 155
f 155 249 250
f 155 250 156
f 156 250 251
f 156 251 157
f 157 251 253
f 157 253 159
f 253 258 159
f 253 254 258
f 254 256 259
f 260 254 259
f 258 254 260
f 262 261 260
f 262 260 259
f 263 261 262
f 265 264 164
f 265 164 163
f 164 266 165
f 264 266 164
f 153 165 257
f 257 165 266
f 258 166 159
f 166 258 167
f 167 258 260
f 167 260 168
f 168 260 261
f 263 267 261
f 267 168 261
f 267 169 168
f 163 169 265
f 265 169 267
f 270 269 268
f 268 271 270
f 272 171 172
f 173 273 172
f 172 273 272
f 175 273 173
f 274 177 178
f 179 274 178
f 268 269 275
f 275 269 276
f 271 268 277
f 277 268 275
f 278 181 272
f 272 181 171
f 279 272 273
f 278 272 279
f 183 279 175
f 175 279 273
f 280 185 274
f 274 185 177
f 186 281 179
f 281 274 179
f 281 280 274
f 188 282 186
f 186 282 281
f 190 282 188
f 275 276 283
f 283 276 284
f 277 275 285
f 275 286 285
f 275 283 286
f 287 285 278
f 285 192 278
f 192 181 278
f 285 286 192
f 287 278 279
f 287 279 288
f 288 279 183
f 194 288 183
f 289 288 194
f 291 289 290
f 289 196 290
f 289 194 196
f 197 292 196
f 196 292 290
f 198 293 197
f 197 293 292
f 294 293 198
f 294 198 185
f 295 294 185
f 280 295 185
f 297 296 295
f 280 297 295
f 281 297 280
f 298 281 282
f 297 281 298
f 298 282 190
f 299 298 190
f 200 299 190
f 300 298 299
f 302 299 301
f 299 202 301
f 299 200 202
f 204 303 202
f 202 303 301
f 206 303 204
f 284 304 283
f 305 208 209
f 283 305 209
f 286 283 209
f 304 305 283
f 286 209 192
f 306 291 290
f 306 290 292
f 306 292 307
f 307 292 293
f 307 293 308
f 308 293 294
f 309 296 297
f 309 297 298
f 309 298 310
f 310 298 300
f 311 302 301
f 313 312 311
f 301 313 311
f 303 313 301
f 210 314 206
f 314 303 206
f 314 313 303
f 211 315 210
f 210 315 314
f 212 316 211
f 211 316 315
f 213 317 212
f 212 317 316
f 214 317 213
f 305 318 208
f 208 318 215
f 215 319 216
f 318 319 215
f 216 320 217
f 319 320 216
f 322 321 218
f 217 322 218
f 320 322 217
f 220 221 321
f 322 220 321
f 323 220 322
f 220 324 223
f 323 324 220
f 324 326 325
f 225 324 325
f 223 324 225
f 325 226 225
f 327 312 313
f 327 313 314
f 327 314 328
f 328 314 315
f 328 315 329
f 329 315 316
f 329 316 330
f 332 331 330
f 316 332 330
f 317 332 316
f 227 333 214
f 333 317 214
f 333 332 317
f 228 333 227
f 321 229 218
f 229 321 221
f 336 335 334
f 338 337 335
f 335 337 334
f 337 338 326
f 338 325 326
f 338 339 325
f 340 233 226
f 325 340 226
f 339 340 325
f 340 234 233
f 343 342 341
f 344 341 342
f 331 332 345
f 331 345 346
f 347 332 333
f 345 332 347
f 235 347 228
f 228 347 333
f 336 348 335
f 335 348 338
f 338 348 349
f 338 349 339
f 339 349 350
f 339 350 340
f 340 350 351
f 351 353 352
f 351 352 237
f 340 351 237
f 234 340 237
f 352 239 237
f 343 341 354
f 343 354 355
f 341 344 356
f 341 356 354
f 346 345 357
f 346 357 358
f 347 360 359
f 357 347 359
f 345 347 357
f 347 235 360
f 235 361 360
f 235 240 361
f 353 362 352
f 352 362 239
f 362 243 239
f 362 363 243
f 243 364 246
f 363 364 243
f 354 365 247
f 364 354 247
f 246 364 247
f 355 354 364
f 354 356 366
f 354 366 365
f 367 358 357
f 367 357 359
f 248 361 240
f 248 368 361
f 365 252 247
f 366 369 365
f 369 252 365
f 369 255 252
f 256 255 369
f 256 369 370
f 257 368 248
f 257 371 368
f 370 372 256
f 256 372 259
f 372 374 373
f 262 372 373
f 259 372 262
f 373 263 262
f 265 375 264
f 264 375 376
f 377 264 376
f 266 264 377
f 257 266 371
f 371 266 377
f 374 378 373
f 373 378 263
f 378 267 263
f 378 379 267
f 265 267 375
f 267 380 375
f 267 379 380
f 375 380 376
f 383 382 381
f 385 384 381
f 381 384 383
f 387 386 385
f 385 386 384
f 389 388 387
f 387 388 386
f 389 390 388
f 382 391 381
f 381 391 385
f 385 391 392
f 385 392 387
f 387 392 393
f 387 393 389
f 389 393 394
f 389 394 390
f 397 396 395
f 269 270 395
f 270 397 395
f 270 398 397
f 270 271 398
f 398 271 399
f 395 396 400
f 400 396 401
f 400 276 269
f 400 269 395
f 277 399 271
f 277 402 399
f 400 401 403
f 403 401 404
f 403 284 276
f 403 276 400
f 277 285 405
f 406 277 405
f 402 277 406
f 287 407 285
f 285 407 405
f 288 408 287
f 287 408 407
f 289 409 288
f 288 409 408
f 291 409 289
f 412 411 410
f 414 413 410
f 410 413 412
f 294 295 414
f 295 413 414
f 295 415 413
f 295 296 415
f 415 296 416
f 417 300 299
f 302 417 299
f 403 404 418
f 418 404 419
f 420 304 284
f 403 420 284
f 418 420 403
f 406 420 421
f 420 406 304
f 405 304 406
f 304 405 305
f 422 305 405
f 423 405 407
f 422 405 423
f 424 407 408
f 423 407 424
f 425 408 409
f 424 408 425
f 306 426 291
f 426 409 291
f 426 425 409
f 411 427 410
f 427 306 410
f 306 307 410
f 306 427 426
f 410 307 308
f 410 308 414
f 414 308 294
f 428 416 296
f 428 296 309
f 429 309 310
f 429 428 309
f 429 310 300
f 430 429 300
f 417 430 300
f 429 430 431
f 311 432 302
f 432 417 302
f 432 430 417
f 312 432 311
f 419 433 418
f 418 433 420
f 420 433 434
f 422 318 305
f 434 421 420
f 318 422 319
f 319 422 423
f 319 423 320
f 320 423 424
f 437 436 435
f 424 322 320
f 322 424 425
f 426 439 438
f 425 426 438
f 322 425 438
f 323 322 438
f 440 323 438
f 437 440 438
f 436 437 438
f 439 436 438
f 427 439 426
f 324 323 441
f 440 441 323
f 441 326 324
f 431 430 442
f 431 442 443
f 444 430 432
f 442 430 444
f 327 445 312
f 445 432 312
f 445 444 432
f 328 446 327
f 327 446 445
f 329 447 328
f 328 447 446
f 330 448 329
f 329 448 447
f 331 448 330
f 437 435 449
f 449 435 450
f 449 336 334
f 440 449 334
f 437 449 440
f 440 334 337
f 440 337 441
f 441 337 326
f 453 452 451
f 451 452 443
f 442 451 443
f 454 451 442
f 343 454 342
f 454 444 342
f 454 442 444
f 342 444 344
f 444 455 344
f 444 445 455
f 456 445 446
f 455 445 456
f 457 446 447
f 456 446 457
f 458 447 448
f 457 447 458
f 346 458 331
f 331 458 448
f 450 459 449
f 449 459 336
f 459 348 336
f 459 460 348
f 348 461 349
f 460 461 348
f 461 463 462
f 350 461 462
f 349 461 350
f 464 351 350
f 464 350 462
f 464 353 351
f 453 451 465
f 453 465 466
f 467 451 454
f 465 451 467
f 355 467 343
f 343 467 454
f 468 356 455
f 455 356 344
f 469 455 456
f 468 455 469
f 470 456 457
f 469 456 470
f 471 457 458
f 470 457 471
f 358 471 346
f 346 471 458
f 472 359 360
f 361 472 360
f 463 473 462
f 462 473 464
f 464 473 474
f 464 474 353
f 474 362 353
f 474 475 362
f 465 363 466
f 363 475 466
f 363 362 475
f 363 465 364
f 364 465 467
f 364 467 355
f 477 476 468
f 476 356 468
f 476 366 356
f 477 468 469
f 477 469 478
f 480 479 478
f 469 480 478
f 470 480 469
f 481 470 471
f 480 470 481
f 367 482 358
f 482 471 358
f 482 481 471
f 359 472 367
f 472 482 367
f 472 483 482
f 368 483 361
f 361 483 472
f 369 366 484
f 366 485 484
f 366 476 485
f 484 370 369
f 486 479 480
f 488 487 486
f 480 488 486
f 481 488 480
f 489 481 482
f 488 481 489
f 490 482 483
f 489 482 490
f 371 490 368
f 368 490 483
f 485 491 484
f 484 491 370
f 491 372 370
f 491 492 372
f 374 372 492
f 374 492 493
f 487 488 494
f 487 494 495
f 496 488 489
f 494 488 496
f 376 496 377
f 496 490 377
f 496 489 490
f 377 490 371
f 493 497 374
f 374 497 378
f 494 379 495
f 379 497 495
f 379 378 497
f 379 494 380
f 380 494 496
f 380 496 376
f 500 499 498
f 502 501 498
f 498 501 500
f 504 503 502
f 502 503 501
f 506 505 504
f 504 505 503
f 506 507 505
f 510 509 508
f 512 511 508
f 508 511 510
f 511 512 499
f 499 512 498
f 512 382 498
f 382 383 498
f 498 383 384
f 498 384 502
f 502 384 386
f 502 386 504
f 504 386 388
f 504 388 506
f 388 390 506
f 390 507 506
f 390 513 507
f 509 514 508
f 508 514 512
f 512 514 515
f 512 515 382
f 515 391 382
f 515 516 391
f 391 517 392
f 516 517 391
f 392 518 393
f 517 518 392
f 393 519 394
f 518 519 393
f 390 394 513
f 513 394 519
f 521 520 397
f 397 520 396
f 523 521 522
f 521 398 522
f 521 397 398
f 399 522 398
f 520 401 396
f 524 401 520
f 523 522 525
f 523 525 526
f 402 525 399
f 399 525 522
f 528 404 527
f 404 524 527
f 404 401 524
f 528 527 526
f 525 528 526
f 529 528 525
f 406 529 402
f 402 529 525
f 532 531 530
f 411 412 530
f 412 532 530
f 412 533 532
f 534 412 413
f 534 533 412
f 535 413 415
f 535 534 413
f 537 536 416
f 536 415 416
f 536 535 415
f 537 538 536
f 539 419 528
f 528 419 404
f 540 528 529
f 539 528 540
f 421 540 406
f 406 540 529
f 530 531 541
f 541 531 542
f 541 427 411
f 541 411 530
f 428 537 416
f 428 429 537
f 429 543 537
f 543 538 537
f 429 544 543
f 431 544 429
f 539 433 419
f 433 539 434
f 434 539 540
f 434 540 421
f 546 545 436
f 436 545 435
f 439 541 542
f 546 439 542
f 436 439 546
f 541 439 427
f 549 548 547
f 547 548 543
f 544 547 543
f 550 547 544
f 443 550 431
f 431 550 544
f 545 450 435
f 551 450 545
f 549 547 552
f 549 552 553
f 453 552 452
f 552 550 452
f 552 547 550
f 452 550 443
f 551 554 450
f 450 554 459
f 459 555 460
f 554 555 459
f 460 556 461
f 555 556 460
f 558 557 463
f 461 558 463
f 556 558 461
f 560 559 557
f 560 557 558
f 559 560 553
f 552 559 553
f 561 559 552
f 466 561 453
f 453 561 552
f 557 473 463
f 473 557 474
f 474 557 559
f 474 559 475
f 475 559 561
f 475 561 466
f 562 476 477
f 478 563 477
f 477 563 562
f 479 563 478
f 564 485 562
f 562 485 476
f 565 562 563
f 564 562 565
f 486 566 479
f 566 563 479
f 566 565 563
f 487 566 486
f 564 491 485
f 491 564 492
f 492 564 565
f 492 565 493
f 565 567 493
f 565 566 567
f 495 567 487
f 487 567 566
f 567 497 493
f 497 567 495
f 570 569 568
f 499 500 568
f 500 570 568
f 500 571 570
f 572 500 501
f 572 571 500
f 573 501 503
f 573 572 501
f 574 503 505
f 574 573 503
f 505 507 574
f 574 507 575
f 577 576 510
f 510 576 509
f 511 568 569
f 577 511 569
f 510 511 577
f 568 511 499
f 513 575 507
f 513 578 575
f 576 579 509
f 509 579 514
f 514 580 515
f 579 580 514
f 515 581 516
f 580 581 515
f 516 582 517
f 581 582 516
f 517 583 518
f 582 583 517
f 518 584 519
f 583 584 518
f 513 519 578
f 578 519 584
f 585 520 521
f 523 585 521
f 586 524 585
f 585 524 520
f 526 586 523
f 523 586 585
f 589 588 587
f 591 590 587
f 587 590 589
f 593 592 591
f 591 592 590
f 593 594 592
f 586 527 524
f 527 586 526
f 587 588 595
f 595 588 596
f 595 531 532
f 591 595 532
f 587 595 591
f 591 532 533
f 591 533 593
f 597 594 593
f 533 597 593
f 534 597 533
f 598 534 535
f 598 597 534
f 600 598 599
f 598 536 599
f 598 535 536
f 538 599 536
f 596 601 595
f 531 595 601
f 602 531 601
f 542 531 602
f 605 604 603
f 603 604 600
f 599 603 600
f 606 603 599
f 543 606 538
f 538 606 599
f 608 607 546
f 546 607 545
f 546 542 602
f 546 602 608
f 611 610 609
f 609 610 605
f 603 609 605
f 612 609 603
f 549 612 548
f 612 606 548
f 612 603 606
f 548 606 543
f 614 551 613
f 551 607 613
f 551 545 607
f 616 615 614
f 616 614 613
f 618 617 615
f 618 615 616
f 617 618 611
f 609 617 611
f 619 617 609
f 620 609 612
f 619 609 620
f 553 620 549
f 549 620 612
f 614 554 551
f 554 614 555
f 555 614 615
f 555 615 556
f 556 615 617
f 556 617 558
f 558 617 619
f 558 619 560
f 560 619 620
f 560 620 553
f 623 622 621
f 569 570 621
f 570 623 621
f 570 624 623
f 625 570 571
f 625 624 570
f 626 571 572
f 626 625 571
f 627 572 573
f 627 626 572
f 629 627 628
f 627 574 628
f 627 573 574
f 575 628 574
f 621 622 577
f 622 576 577
f 622 630 576
f 621 577 569
f 633 632 631
f 631 632 629
f 628 631 629
f 634 631 628
f 578 634 575
f 575 634 628
f 630 635 576
f 576 635 579
f 579 636 580
f 635 636 579
f 580 637 581
f 636 637 580
f 581 638 582
f 637 638 581
f 631 583 633
f 583 638 633
f 583 582 638
f 583 631 584
f 584 631 634
f 584 634 578
f 641 640 639
f 588 589 639
f 589 641 639
f 589 642 641
f 643 589 590
f 643 642 589
f 644 590 592
f 644 643 590
f 646 645 594
f 645 592 594
f 645 644 592
f 646 647 645
f 639 640 648
f 648 640 649
f 648 596 588
f 648 588 639
f 597 646 594
f 597 598 646
f 598 650 646
f 650 647 646
f 598 651 650
f 600 651 598
f 649 652 648
f 652 654 653
f 652 653 601
f 648 652 601
f 596 648 601
f 653 602 601
f 657 656 655
f 655 656 650
f 655 650 651
f 605 655 651
f 604 605 651
f 604 651 600
f 658 607 608
f 654 659 653
f 660 653 659
f 653 660 602
f 661 602 660
f 602 661 608
f 658 608 661
f 663 662 661
f 663 661 660
f 662 663 657
f 662 657 655
f 611 662 655
f 610 611 655
f 610 655 605
f 658 613 607
f 613 658 616
f 616 658 661
f 616 661 618
f 618 661 662
f 618 662 611
f 664 622 623
f 624 665 623
f 623 665 664
f 625 666 624
f 624 666 665
f 626 667 625
f 625 667 666
f 627 668 626
f 626 668 667
f 629 668 627
f 669 630 664
f 664 630 622
f 670 664 665
f 669 664 670
f 671 665 666
f 670 665 671
f 672 666 667
f 671 666 672
f 633 672 632
f 672 668 632
f 672 667 668
f 632 668 629
f 669 635 630
f 635 669 636
f 636 669 670
f 636 670 637
f 637 670 671
f 637 671 638
f 638 671 672
f 638 672 633
f 674 673 641
f 641 673 640
f 675 641 642
f 675 674 641
f 676 642 643
f 676 675 642
f 677 643 644
f 677 676 643
f 679 677 678
f 677 645 678
f 677 644 645
f 647 678 645
f 673 649 640
f 680 649 673
f 681 679 678
f 678 647 681
f 647 682 681
f 647 650 682
f 652 649 683
f 649 684 683
f 649 680 684
f 683 654 652
f 687 686 685
f 689 688 685
f 689 685 686
f 656 657 688
f 689 656 688
f 690 656 689
f 650 656 682
f 682 656 690
f 684 691 683
f 683 691 654
f 691 659 654
f 691 692 659
f 685 660 687
f 660 692 687
f 660 659 692
f 660 685 663
f 663 685 688
f 663 688 657
f 693 673 674
f 693 674 694
f 674 695 694
f 674 675 695
f 696 675 676
f 696 695 675
f 698 696 697
f 696 677 697
f 696 676 677
f 679 697 677
f 700 699 693
f 699 673 693
f 699 680 673
f 700 693 694
f 698 697 701
f 698 701 702
f 681 703 679
f 703 697 679
f 703 701 697
f 682 703 681
f 705 684 704
f 684 699 704
f 684 680 699
f 707 706 705
f 707 705 704
f 686 687 706
f 707 686 706
f 708 686 707
f 701 689 702
f 689 708 702
f 689 686 708
f 689 701 690
f 690 701 703
f 690 703 682
f 705 691 684
f 691 705 692
f 692 705 706
f 692 706 687
f 709 694 695
f 696 710 695
f 695 710 709
f 698 710 696
f 711 699 700
f 694 709 700
f 709 711 700
f 709 712 711
f 713 709 710
f 712 709 713
f 702 713 698
f 698 713 710
f 711 704 699
f 704 711 707
f 707 711 712
f 707 712 708
f 708 712 713
f 708 713 702
