v -46.2 -23.0 -5.0
v -46.0 -23.0 -5.3
v -46.0 -23.2 -5.0
v -46.0 -23.3 -4.0
v -46.3 -23.0 -4.0
v -46.0 -23.0 -3.6
v -46.2 -22.0 -6.0
v -46.0 -22.0 -6.3
v -46.0 -22.3 -6.0
v -46.5 -22.0 -5.0
v -46.4 -22.0 -4.0
v -46.0 -22.2 -3.0
v -46.1 -22.0 -3.0
v -46.0 -22.0 -2.9
v -46.2 -21.0 -7.0
v -46.0 -21.0 -7.2
v -46.0 -21.3 -7.0
v -46.5 -21.0 -6.0
v -46.4 -21.0 -5.0
v -46.1 -21.0 -4.0
v -46.0 -21.0 -3.9
v -46.0 -21.9 -3.0
v -46.4 -20.0 -7.0
v -46.0 -20.0 -7.4
v -46.5 -20.0 -6.0
v -46.1 -20.0 -5.0
v -46.0 -20.0 -4.9
v -46.0 -20.9 -4.0
v -46.2 -19.0 -8.0
v -46.0 -19.0 -8.2
v -46.0 -19.3 -8.0
v -46.5 -19.0 -7.0
v -46.4 -19.0 -6.0
v -46.0 -19.0 -5.6
v -46.0 -19.9 -5.0
v -46.4 -18.0 -8.0
v -46.0 -18.0 -8.4
v -46.5 -18.0 -7.0
v -46.2 -18.0 -6.0
v -46.0 -18.0 -5.8
v -46.4 -17.0 -8.0
v -46.0 -17.0 -8.4
v -46.4 -17.0 -7.0
v -46.0 -17.0 -6.6
v -46.0 -17.7 -6.0
v -46.4 -16.0 -8.0
v -46.0 -16.0 -8.5
v -46.2 -16.0 -7.0
v -46.0 -16.0 -6.8
v -46.2 -15.0 -9.0
v -46.0 -15.0 -9.3
v -46.0 -15.4 -9.0
v -46.3 -15.0 -8.0
v -46.0 -15.0 -7.6
v -46.0 -15.6 -7.0
v -46.2 -14.0 -9.0
v -46.0 -14.0 -9.8
v -46.0 -14.0 -8.7
v -46.0 -14.6 -8.0
v -46.0 -13.8 -9.0
v -45.3 -24.0 -4.0
v -45.0 -24.0 -4.4
v -45.0 -24.3 -4.0
v -45.0 -24.2 -3.0
v -45.2 -24.0 -3.0
v -45.0 -24.0 -2.7
v -45.0 -23.0 -5.5
v -45.0 -23.6 -5.0
v -45.6 -23.0 -3.0
v -45.0 -23.0 -2.4
v -45.0 -22.0 -6.5
v -45.0 -22.5 -6.0
v -45.0 -22.2 -2.0
v -45.1 -22.0 -2.0
v -45.0 -22.0 -1.9
v -45.0 -21.0 -7.4
v -45.0 -21.5 -7.0
v -45.5 -21.0 -4.0
v -45.0 -21.1 -4.0
v -45.0 -21.0 -4.1
v -45.0 -21.4 -3.0
v -45.0 -21.9 -2.0
v -45.0 -20.0 -7.7
v -45.8 -20.0 -5.0
v -45.0 -20.3 -5.0
v -45.0 -20.0 -5.3
v -45.0 -19.0 -8.5
v -45.0 -19.6 -8.0
v -45.0 -19.0 -5.5
v -45.2 -18.0 -9.0
v -45.0 -18.0 -9.1
v -45.0 -18.2 -9.0
v -45.0 -18.0 -5.7
v -45.0 -17.6 -9.0
v -45.0 -17.0 -8.9
v -45.0 -17.6 -6.0
v -45.0 -17.0 -6.4
v -45.5 -16.0 -9.0
v -45.0 -16.0 -9.4
v -45.0 -16.7 -9.0
v -45.0 -16.0 -6.4
v -45.0 -15.0 -9.8
v -45.4 -15.0 -7.0
v -45.0 -15.0 -6.7
v -45.9 -14.0 -10.0
v -45.0 -14.0 -10.3
v -45.0 -14.6 -10.0
v -45.4 -14.0 -8.0
v -45.0 -14.0 -7.7
v -45.0 -14.7 -7.0
v -45.0 -13.6 -10.0
v -45.0 -13.4 -9.0
v -45.0 -13.7 -8.0
v -44.0 -25.0 -1.0
v -44.0 -25.0 -1.0
v -44.0 -25.0 -1.0
v -44.0 -25.0 -1.0
v -44.3 -24.0 -5.0
v -44.0 -24.0 -5.2
v -44.0 -24.2 -5.0
v -44.0 -24.5 -4.0
v -44.0 -24.5 -3.0
v -44.0 -24.6 -2.0
v -44.5 -24.0 -2.0
v -44.3 -24.0 -1.0
v -44.0 -24.0 -0.7
v -44.0 -23.0 -5.5
v -44.7 -23.0 -2.0
v -44.3 -23.0 -1.0
v -44.0 -23.0 -0.8
v -44.0 -22.0 -6.5
v -44.0 -22.5 -6.0
v -44.0 -22.6 -1.0
v -44.0 -22.0 -1.5
v -44.0 -21.0 -7.5
v -44.0 -21.5 -7.0
v -44.8 -21.0 -4.0
v -44.4 -21.0 -3.0
v -44.0 -21.0 -2.7
v -44.0 -21.5 -2.0
v -44.3 -20.0 -8.0
v -44.0 -20.0 -8.2
v -44.0 -20.2 -8.0
v -44.0 -20.2 -5.0
v -44.0 -20.0 -5.2
v -44.0 -20.5 -4.0
v -44.0 -20.7 -3.0
v -44.0 -19.0 -8.6
v -44.0 -19.0 -5.5
v -44.0 -18.0 -9.4
v -44.0 -18.5 -9.0
v -44.2 -18.0 -6.0
v -44.0 -18.1 -6.0
v -44.0 -18.0 -6.1
v -44.8 -17.0 -9.0
v -44.0 -17.0 -9.5
v -44.0 -17.0 -6.3
v -44.3 -16.0 -10.0
v -44.0 -16.0 -10.3
v -44.0 -16.4 -10.0
v -44.0 -16.3 -6.0
v -44.2 -16.0 -6.0
v -44.0 -16.0 -5.9
v -44.2 -15.0 -11.0
v -44.0 -15.0 -11.2
v -44.0 -15.3 -11.0
v -44.8 -15.0 -10.0
v -44.0 -15.8 -6.0
v -44.0 -15.0 -6.5
v -44.3 -14.0 -11.0
v -44.0 -14.0 -11.3
v -44.0 -14.5 -7.0
v -44.0 -14.0 -7.5
v -44.0 -13.6 -11.0
v -44.3 -13.0 -10.0
v -44.0 -13.0 -10.4
v -44.3 -13.0 -9.0
v -44.0 -13.0 -8.7
v -44.0 -13.5 -8.0
v -44.0 -12.7 -10.0
v -44.0 -12.8 -9.0
v -43.5 -25.0 -2.0
v -43.0 -25.0 -2.5
v -43.0 -25.3 -2.0
v -43.0 -25.4 -1.0
v -43.0 -25.0 -0.6
v -43.0 -24.0 -5.1
v -43.0 -24.1 -5.0
v -43.0 -24.5 -4.0
v -43.0 -24.7 -3.0
v -43.0 -24.0 -0.4
v -43.0 -23.6 -5.0
v -43.1 -23.0 -5.0
v -43.0 -23.0 -4.9
v -43.0 -23.0 -0.4
v -43.0 -22.0 -6.4
v -43.0 -22.3 -6.0
v -43.0 -22.9 -5.0
v -43.4 -22.0 -1.0
v -43.0 -22.0 -0.7
v -43.0 -21.0 -7.4
v -43.0 -21.5 -7.0
v -43.0 -21.3 -2.0
v -43.0 -21.0 -2.3
v -43.0 -21.7 -1.0
v -43.7 -20.0 -8.0
v -43.0 -20.0 -7.7
v -43.8 -20.0 -5.0
v -43.5 -20.0 -4.0
v -43.0 -20.0 -3.4
v -43.0 -20.4 -3.0
v -43.0 -19.0 -8.5
v -43.0 -19.6 -8.0
v -43.5 -19.0 -5.0
v -43.2 -19.0 -4.0
v -43.0 -19.0 -3.8
v -43.0 -18.0 -9.4
v -43.0 -18.5 -9.0
v -43.8 -18.0 -6.0
v -43.0 -18.0 -5.5
v -43.0 -18.5 -5.0
v -43.0 -18.8 -4.0
v -43.0 -17.0 -9.6
v -43.7 -17.0 -6.0
v -43.0 -17.0 -5.6
v -43.0 -16.0 -10.5
v -43.0 -16.5 -10.0
v -43.0 -16.0 -5.6
v -43.0 -15.0 -11.4
v -43.0 -15.5 -11.0
v -43.0 -15.4 -6.0
v -43.0 -15.0 -6.3
v -43.0 -14.0 -11.5
v -43.0 -14.3 -7.0
v -43.0 -14.0 -7.4
v -43.4 -13.0 -11.0
v -43.0 -13.0 -11.3
v -43.0 -13.5 -8.0
v -43.0 -13.0 -8.5
v -43.0 -12.7 -11.0
v -43.0 -12.5 -10.0
v -43.0 -12.6 -9.0
v -42.2 -26.0 -1.0
v -42.0 -26.0 -1.3
v -42.0 -26.1 -1.0
v -42.0 -26.0 -0.8
v -42.5 -25.0 -3.0
v -42.0 -25.0 -3.3
v -42.0 -25.3 -3.0
v -42.0 -25.7 -2.0
v -42.0 -25.4 0.0
v -42.4 -25.0 0.0
v -42.0 -25.0 0.4
v -42.9 -24.0 -5.0
v -42.0 -24.0 -4.3
v -42.0 -24.4 -4.0
v -42.5 -24.0 0.0
v -42.0 -24.0 0.5
v -42.0 -23.0 -4.6
v -42.5 -23.0 0.0
v -42.0 -23.0 0.5
v -42.5 -22.0 -6.0
v -42.0 -22.0 -5.6
v -42.0 -22.6 -5.0
v -42.3 -22.0 0.0
v -42.0 -22.0 0.3
v -42.0 -21.0 -7.4
v -42.0 -21.4 -7.0
v -42.0 -21.7 -6.0
v -42.6 -21.0 -2.0
v -42.0 -21.0 -1.4
v -42.0 -21.3 -1.0
v -42.0 -21.7 0.0
v -42.0 -20.0 -7.6
v -42.6 -20.0 -3.0
v -42.0 -20.0 -2.5
v -42.0 -20.5 -2.0
v -42.0 -19.0 -8.5
v -42.0 -19.5 -8.0
v -42.0 -19.4 -3.0
v -42.0 -19.0 -3.4
v -42.0 -18.0 -9.4
v -42.0 -18.5 -9.0
v -42.0 -18.2 -5.0
v -42.0 -18.0 -5.2
v -42.0 -18.5 -4.0
v -42.0 -17.0 -9.6
v -42.0 -17.0 -5.3
v -42.0 -16.0 -10.5
v -42.0 -16.5 -10.0
v -42.0 -16.0 -5.4
v -42.0 -15.0 -11.3
v -42.0 -15.4 -11.0
v -42.6 -15.0 -6.0
v -42.0 -15.0 -5.6
v -42.0 -14.0 -11.6
v -42.5 -14.0 -7.0
v -42.0 -14.0 -6.1
v -42.0 -14.1 -6.0
v -42.0 -13.0 -11.8
v -42.0 -13.4 -8.0
v -42.0 -13.0 -8.5
v -42.0 -13.7 -7.0
v -42.0 -12.5 -11.0
v -42.0 -12.5 -10.0
v -42.0 -12.6 -9.0
v -41.5 -26.0 -2.0
v -41.0 -26.0 -2.3
v -41.0 -26.3 -2.0
v -41.0 -26.5 -1.0
v -41.0 -26.4 0.0
v -41.5 -26.0 0.0
v -41.0 -26.0 0.5
v -41.0 -25.0 -3.4
v -41.0 -25.4 -3.0
v -41.0 -25.5 1.0
v -41.4 -25.0 1.0
v -41.0 -25.0 1.4
v -41.5 -24.0 -4.0
v -41.0 -24.0 -3.7
v -41.5 -24.0 1.0
v -41.0 -24.0 1.5
v -41.0 -23.0 -4.5
v -41.0 -23.6 -4.0
v -41.5 -23.0 1.0
v -41.0 -23.0 1.4
v -41.0 -22.0 -5.5
v -41.0 -22.5 -5.0
v -41.3 -22.0 1.0
v -41.0 -22.0 1.2
v -41.0 -21.0 -7.2
v -41.0 -21.2 -7.0
v -41.0 -21.6 -6.0
v -41.5 -21.0 -1.0
v -41.0 -21.0 -0.6
v -41.0 -21.4 0.0
v -41.0 -21.8 1.0
v -41.0 -20.0 -7.6
v -41.6 -20.0 -2.0
v -41.0 -20.0 -1.5
v -41.0 -20.6 -1.0
v -41.0 -19.0 -8.5
v -41.0 -19.5 -8.0
v -41.7 -19.0 -3.0
v -41.1 -19.0 -2.0
v -41.0 -19.0 -1.9
v -41.0 -18.0 -9.4
v -41.0 -18.5 -9.0
v -41.8 -18.0 -5.0
v -41.6 -18.0 -4.0
v -41.4 -18.0 -3.0
v -41.0 -18.0 -2.6
v -41.0 -18.9 -2.0
v -41.0 -17.0 -9.6
v -41.7 -17.0 -5.0
v -41.5 -17.0 -4.0
v -41.2 -17.0 -3.0
v -41.0 -17.0 -2.8
v -41.0 -16.0 -10.4
v -41.0 -16.5 -10.0
v -41.5 -16.0 -5.0
v -41.2 -16.0 -4.0
v -41.0 -16.0 -3.7
v -41.0 -16.7 -3.0
v -41.5 -15.0 -11.0
v -41.0 -15.0 -10.7
v -41.0 -15.4 -5.0
v -41.0 -15.0 -5.4
v -41.0 -15.8 -4.0
v -41.0 -14.0 -11.3
v -41.0 -14.5 -11.0
v -41.5 -14.0 -7.0
v -41.0 -14.3 -7.0
v -41.0 -14.0 -7.3
v -41.0 -14.5 -6.0
v -41.0 -13.0 -11.5
v -41.0 -13.5 -8.0
v -41.0 -13.0 -8.5
v -41.0 -12.5 -11.0
v -41.0 -12.5 -10.0
v -41.0 -12.6 -9.0
v -40.3 -27.0 0.0
v -40.0 -27.0 -0.3
v -40.0 -27.2 0.0
v -40.0 -27.3 1.0
v -40.4 -27.0 1.0
v -40.0 -27.2 2.0
v -40.2 -27.0 2.0
v -40.0 -27.0 2.2
v -40.0 -26.0 -2.3
v -40.0 -26.3 -2.0
v -40.0 -26.6 -1.0
v -40.7 -26.0 1.0
v -40.4 -26.0 2.0
v -40.0 -26.0 2.4
v -40.0 -25.0 -3.3
v -40.0 -25.3 -3.0
v -40.4 -25.0 2.0
v -40.0 -25.0 2.3
v -40.0 -24.0 -3.6
v -40.2 -24.0 2.0
v -40.0 -24.0 2.1
v -40.0 -23.0 -4.5
v -40.0 -23.5 -4.0
v -40.0 -23.9 2.0
v -40.0 -23.0 1.5
v -40.0 -22.0 -5.5
v -40.0 -22.5 -5.0
v -40.0 -22.0 1.2
v -40.6 -21.0 -7.0
v -40.0 -21.0 -6.5
v -40.0 -21.4 -6.0
v -40.0 -21.4 0.0
v -40.0 -21.0 -0.5
v -40.0 -21.8 1.0
v -40.0 -20.0 -7.4
v -40.0 -20.5 -7.0
v -40.0 -20.5 -1.0
v -40.0 -20.0 -1.5
v -40.0 -19.0 -8.5
v -40.0 -19.5 -8.0
v -40.8 -19.0 -2.0
v -40.0 -19.4 -2.0
v -40.0 -19.0 -2.3
v -40.0 -18.0 -9.3
v -40.0 -18.4 -9.0
v -40.0 -18.0 -2.5
v -40.0 -17.0 -9.6
v -40.0 -17.0 -2.6
v -40.0 -16.0 -10.3
v -40.0 -16.4 -10.0
v -40.0 -16.4 -3.0
v -40.0 -16.0 -3.4
v -40.0 -15.0 -10.5
v -40.5 -15.0 -5.0
v -40.0 -15.0 -4.6
v -40.0 -15.5 -4.0
v -40.5 -14.0 -11.0
v -40.0 -14.0 -10.7
v -40.0 -14.4 -7.0
v -40.0 -14.0 -7.5
v -40.0 -14.5 -6.0
v -40.0 -14.7 -5.0
v -40.0 -13.0 -11.2
v -40.0 -13.3 -11.0
v -40.0 -13.5 -8.0
v -40.0 -13.0 -8.5
v -40.0 -12.7 -11.0
v -40.0 -12.5 -10.0
v -40.0 -12.6 -9.0
v -39.0 -27.0 -0.4
v -39.0 -27.3 0.0
v -39.0 -27.5 1.0
v -39.0 -27.4 2.0
v -39.0 -27.0 2.8
v -39.5 -26.0 -2.0
v -39.0 -26.0 -1.6
v -39.0 -26.5 -1.0
v -39.0 -26.0 2.6
v -39.5 -25.0 -3.0
v -39.0 -25.0 -2.6
v -39.0 -25.6 -2.0
v -39.0 -25.0 2.3
v -39.0 -24.0 -3.5
v -39.0 -24.6 -3.0
v -39.8 -24.0 2.0
v -39.0 -24.6 2.0
v -39.0 -24.0 1.5
v -39.0 -23.0 -4.5
v -39.0 -23.5 -4.0
v -39.4 -23.0 1.0
v -39.0 -23.4 1.0
v -39.0 -23.0 0.7
v -39.0 -22.0 -5.4
v -39.0 -22.5 -5.0
v -39.7 -22.0 1.0
v -39.0 -22.0 0.5
v -39.4 -21.0 -6.0
v -39.0 -21.0 -5.7
v -39.0 -21.5 0.0
v -39.0 -21.0 -0.5
v -39.4 -20.0 -7.0
v -39.0 -20.0 -6.7
v -39.0 -20.7 -6.0
v -39.0 -20.5 -1.0
v -39.0 -20.0 -1.5
v -39.0 -19.0 -8.4
v -39.0 -19.4 -8.0
v -39.0 -19.7 -7.0
v -39.0 -19.5 -2.0
v -39.0 -19.0 -2.4
v -39.5 -18.0 -9.0
v -39.0 -18.0 -8.7
v -39.0 -18.0 -2.5
v -39.0 -17.0 -9.4
v -39.0 -17.6 -9.0
v -39.0 -17.0 -2.5
v -39.5 -16.0 -10.0
v -39.0 -16.0 -9.7
v -39.2 -16.0 -3.0
v -39.0 -16.0 -2.9
v -39.0 -15.0 -10.4
v -39.0 -15.6 -10.0
v -39.0 -15.4 -4.0
v -39.0 -15.0 -4.5
v -39.0 -15.9 -3.0
v -39.0 -14.0 -10.5
v -39.0 -14.4 -7.0
v -39.0 -14.0 -7.5
v -39.0 -14.5 -6.0
v -39.0 -14.6 -5.0
v -39.7 -13.0 -11.0
v -39.0 -13.0 -10.5
v -39.0 -13.5 -8.0
v -39.0 -13.0 -8.5
v -39.0 -12.5 -10.0
v -39.0 -12.6 -9.0
v -38.5 -27.0 0.0
v -38.0 -27.0 0.4
v -38.0 -27.4 1.0
v -38.0 -27.2 2.0
v -38.0 -27.0 2.3
v -38.0 -26.0 -1.3
v -38.0 -26.3 -1.0
v -38.0 -26.7 0.0
v -38.0 -26.0 2.3
v -38.0 -25.0 -2.4
v -38.0 -25.4 -2.0
v -38.5 -25.0 2.0
v -38.0 -25.6 2.0
v -38.0 -25.0 1.6
v -38.0 -24.0 -3.4
v -38.0 -24.4 -3.0
v -38.2 -24.0 1.0
v -38.0 -24.2 1.0
v -38.0 -24.0 0.9
v -38.0 -23.0 -4.5
v -38.0 -23.5 -4.0
v -38.0 -23.0 0.5
v -38.0 -22.0 -5.3
v -38.0 -22.4 -5.0
v -38.0 -22.0 0.3
v -38.0 -21.0 -5.6
v -38.0 -21.7 0.0
v -38.0 -21.0 -0.6
v -38.0 -20.0 -6.5
v -38.0 -20.5 -6.0
v -38.0 -20.6 -1.0
v -38.0 -20.0 -1.5
v -38.0 -19.0 -8.2
v -38.0 -19.2 -8.0
v -38.0 -19.5 -7.0
v -38.0 -19.5 -2.0
v -38.0 -19.0 -2.4
v -38.0 -18.0 -8.5
v -38.0 -18.0 -2.3
v -38.0 -17.0 -9.2
v -38.0 -17.3 -9.0
v -38.0 -17.1 -2.0
v -38.1 -17.0 -2.0
v -38.0 -17.0 -1.9
v -38.0 -16.0 -9.5
v -38.8 -16.0 -3.0
v -38.0 -16.3 -3.0
v -38.0 -16.0 -3.4
v -38.0 -16.9 -2.0
v -38.0 -15.0 -10.2
v -38.0 -15.3 -10.0
v -38.0 -15.5 -4.0
v -38.0 -15.0 -4.5
v -38.0 -14.0 -10.4
v -38.0 -14.3 -7.0
v -38.0 -14.0 -7.3
v -38.0 -14.4 -6.0
v -38.0 -14.6 -5.0
v -38.0 -13.0 -10.3
v -38.0 -13.5 -8.0
v -38.0 -13.0 -8.7
v -38.0 -12.7 -10.0
v -38.0 -12.8 -9.0
v -37.0 -27.0 1.0
v -37.0 -27.0 1.0
v -37.7 -27.0 2.0
v -37.0 -27.0 1.0
v -37.6 -26.0 -1.0
v -37.0 -26.0 -0.4
v -37.0 -26.3 0.0
v -37.6 -26.0 2.0
v -37.0 -26.0 1.4
v -37.6 -25.0 -2.0
v -37.0 -25.0 -1.4
v -37.0 -25.4 -1.0
v -37.0 -25.0 1.3
v -37.5 -24.0 -3.0
v -37.0 -24.0 -2.5
v -37.0 -24.5 -2.0
v -37.3 -24.0 1.0
v -37.0 -24.0 1.1
v -37.0 -23.0 -4.2
v -37.0 -23.2 -4.0
v -37.0 -23.6 -3.0
v -37.0 -23.9 1.0
v -37.0 -23.0 0.3
v -37.6 -22.0 -5.0
v -37.0 -22.0 -4.6
v -37.6 -22.0 0.0
v -37.0 -22.6 0.0
v -37.0 -22.0 -0.5
v -37.0 -21.0 -5.4
v -37.0 -21.5 -5.0
v -37.5 -21.0 -1.0
v -37.0 -21.4 -1.0
v -37.0 -21.0 -1.3
v -37.0 -20.0 -6.3
v -37.0 -20.3 -6.0
v -37.0 -20.0 -1.6
v -37.8 -19.0 -8.0
v -37.4 -19.0 -7.0
v -37.0 -19.0 -6.6
v -37.0 -19.4 -2.0
v -37.0 -19.0 -2.3
v -37.5 -18.0 -8.0
v -37.0 -18.0 -7.4
v -37.0 -18.5 -7.0
v -37.0 -18.3 -2.0
v -37.2 -18.0 -2.0
v -37.0 -18.0 -1.9
v -37.8 -17.0 -9.0
v -37.4 -17.0 -8.0
v -37.0 -17.0 -7.5
v -37.0 -17.0 -1.8
v -37.5 -16.0 -9.0
v -37.2 -16.0 -8.0
v -37.0 -16.0 -7.7
v -37.0 -16.4 -3.0
v -37.0 -16.0 -3.5
v -37.0 -16.8 -2.0
v -37.7 -15.0 -10.0
v -37.0 -15.0 -9.3
v -37.0 -15.3 -9.0
v -37.0 -15.7 -8.0
v -37.0 -15.5 -4.0
v -37.0 -15.0 -4.5
v -37.6 -14.0 -10.0
v -37.0 -14.0 -9.3
v -37.6 -14.0 -7.0
v -37.2 -14.0 -6.0
v -37.0 -14.0 -5.8
v -37.0 -14.5 -5.0
v -37.8 -13.0 -10.0
v -37.0 -13.7 -9.0
v -37.7 -13.0 -9.0
v -37.0 -13.6 -8.0
v -37.0 -13.7 -7.0
v -37.0 -13.9 -6.0
v -37.0 -27.0 1.0
v -36.7 -26.0 0.0
v -36.7 -26.0 1.0
v -36.7 -25.0 -1.0
v -36.5 -25.0 0.0
v -36.7 -25.0 1.0
v -36.6 -24.0 -2.0
v -36.4 -24.0 -1.0
v -36.5 -24.0 0.0
v -36.9 -24.0 1.0
v -36.8 -23.0 -4.0
v -36.4 -23.0 -3.0
v -36.0 -23.0 -2.4
v -36.0 -23.3 -2.0
v -36.0 -23.2 -1.0
v -36.0 -23.0 -0.9
v -36.7 -23.0 0.0
v -36.4 -22.0 -4.0
v -36.0 -22.0 -3.5
v -36.0 -22.5 -3.0
v -36.5 -22.0 -1.0
v -36.0 -22.8 -1.0
v -36.0 -22.0 -1.5
v -36.5 -21.0 -5.0
v -36.0 -21.0 -4.4
v -36.0 -21.5 -4.0
v -36.0 -21.0 -1.6
v -36.7 -20.0 -6.0
v -36.0 -20.0 -5.3
v -36.0 -20.4 -5.0
v -36.0 -20.0 -1.8
v -36.5 -19.0 -6.0
v -36.0 -19.0 -5.5
v -36.0 -19.7 -2.0
v -36.0 -19.0 -2.5
v -36.7 -18.0 -7.0
v -36.3 -18.0 -6.0
v -36.0 -18.0 -5.6
v -36.8 -18.0 -2.0
v -36.0 -18.0 -2.5
v -36.5 -17.0 -7.0
v -36.0 -17.0 -6.4
v -36.0 -17.5 -6.0
v -36.8 -17.0 -2.0
v -36.0 -17.0 -2.6
v -36.4 -16.0 -7.0
v -36.0 -16.0 -6.6
v -36.0 -16.6 -3.0
v -36.0 -16.0 -3.5
v -36.8 -15.0 -9.0
v -36.5 -15.0 -8.0
v -36.0 -15.0 -7.3
v -36.0 -15.4 -7.0
v -36.0 -15.6 -4.0
v -36.0 -15.0 -4.6
v -36.8 -14.0 -9.0
v -36.6 -14.0 -8.0
v -36.0 -14.0 -7.1
v -36.8 -14.0 -6.0
v -36.0 -14.5 -6.0
v -36.0 -14.0 -6.9
v -36.0 -14.7 -5.0
v -36.0 -13.9 -7.0
v -35.8 -23.0 -2.0
v -35.9 -23.0 -1.0
v -35.7 -22.0 -3.0
v -35.6 -22.0 -2.0
v -35.7 -21.0 -4.0
v -35.5 -21.0 -3.0
v -35.6 -21.0 -2.0
v -35.7 -20.0 -5.0
v -35.5 -20.0 -4.0
v -35.5 -20.0 -3.0
v -35.8 -20.0 -2.0
v -35.6 -19.0 -5.0
v -35.5 -19.0 -4.0
v -35.6 -19.0 -3.0
v -35.6 -18.0 -5.0
v -35.5 -18.0 -4.0
v -35.6 -18.0 -3.0
v -35.7 -17.0 -6.0
v -35.5 -17.0 -5.0
v -35.4 -17.0 -4.0
v -35.3 -17.0 -3.0
v -35.6 -16.0 -6.0
v -35.4 -16.0 -5.0
v -35.2 -16.0 -4.0
v -35.8 -15.0 -7.0
v -35.6 -15.0 -6.0
v -35.3 -15.0 -5.0
v -35.9 -14.0 -7.0
f 3 2 1
f 5 4 1
f 1 4 3
f 5 6 4
f 9 8 7
f 9 7 2
f 7 1 2
f 7 10 1
f 1 11 5
f 1 10 11
f 6 5 12
f 5 13 12
f 5 11 13
f 13 14 12
f 17 16 15
f 17 15 8
f 15 7 8
f 15 18 7
f 7 19 10
f 7 18 19
f 10 20 11
f 10 19 20
f 22 13 21
f 13 20 21
f 13 11 20
f 13 22 14
f 15 16 23
f 23 16 24
f 15 25 18
f 15 23 25
f 18 26 19
f 18 25 26
f 28 20 27
f 20 26 27
f 20 19 26
f 20 28 21
f 31 30 29
f 31 29 24
f 29 23 24
f 29 32 23
f 23 33 25
f 23 32 33
f 35 26 34
f 26 33 34
f 26 25 33
f 26 35 27
f 29 30 36
f 36 30 37
f 29 38 32
f 29 36 38
f 32 39 33
f 32 38 39
f 34 33 40
f 40 33 39
f 36 37 41
f 41 37 42
f 36 43 38
f 36 41 43
f 45 39 44
f 39 43 44
f 39 38 43
f 39 45 40
f 41 42 46
f 46 42 47
f 41 48 43
f 41 46 48
f 44 43 49
f 49 43 48
f 52 51 50
f 52 50 47
f 50 46 47
f 50 53 46
f 55 48 54
f 48 53 54
f 48 46 53
f 48 55 49
f 50 51 56
f 56 51 57
f 59 53 58
f 53 56 58
f 53 50 56
f 53 59 54
f 57 60 56
f 56 60 58
f 63 62 61
f 65 64 61
f 61 64 63
f 65 66 64
f 68 67 3
f 3 67 2
f 4 61 62
f 68 4 62
f 3 4 68
f 61 4 6
f 69 61 6
f 65 61 69
f 66 65 70
f 70 65 69
f 72 71 9
f 9 71 8
f 9 2 67
f 9 67 72
f 12 69 6
f 74 73 14
f 14 73 12
f 73 70 12
f 70 69 12
f 74 75 73
f 77 76 17
f 17 76 16
f 17 8 71
f 17 71 77
f 80 79 78
f 22 21 78
f 79 22 78
f 81 22 79
f 14 22 74
f 22 82 74
f 22 81 82
f 74 82 75
f 76 24 16
f 83 24 76
f 86 85 84
f 84 85 80
f 84 80 78
f 27 84 78
f 28 27 78
f 28 78 21
f 88 87 31
f 31 87 30
f 31 24 83
f 31 83 88
f 86 84 35
f 34 86 35
f 89 86 34
f 35 84 27
f 92 91 90
f 87 92 90
f 37 87 90
f 30 87 37
f 40 89 34
f 40 93 89
f 91 94 90
f 37 90 94
f 95 37 94
f 42 37 95
f 97 96 45
f 97 45 44
f 40 45 93
f 93 45 96
f 100 99 98
f 95 100 98
f 47 95 98
f 42 95 47
f 49 97 44
f 49 101 97
f 98 99 52
f 99 51 52
f 99 102 51
f 98 52 47
f 54 103 55
f 103 104 55
f 104 49 55
f 104 101 49
f 107 106 105
f 102 107 105
f 57 102 105
f 51 102 57
f 58 108 59
f 108 109 59
f 59 109 54
f 109 110 54
f 110 103 54
f 103 110 104
f 106 111 105
f 105 111 57
f 111 60 57
f 111 112 60
f 58 60 108
f 60 113 108
f 60 112 113
f 108 113 109
f 116 115 114
f 114 117 116
f 120 119 118
f 62 63 118
f 63 120 118
f 63 121 120
f 122 63 64
f 122 121 63
f 124 123 66
f 123 64 66
f 123 122 64
f 123 124 115
f 124 114 115
f 124 125 114
f 117 114 126
f 126 114 125
f 118 119 68
f 119 67 68
f 119 127 67
f 118 68 62
f 70 128 124
f 70 124 66
f 124 129 125
f 124 128 129
f 126 125 130
f 130 125 129
f 132 131 72
f 72 131 71
f 72 67 127
f 72 127 132
f 73 128 70
f 129 128 133
f 128 75 133
f 75 134 133
f 75 128 73
f 129 133 130
f 136 135 77
f 77 135 76
f 77 71 131
f 77 131 136
f 80 137 79
f 138 81 79
f 138 79 137
f 81 138 139
f 140 81 139
f 82 81 140
f 75 82 134
f 134 82 140
f 143 142 141
f 135 143 141
f 83 135 141
f 76 135 83
f 145 144 85
f 145 85 86
f 80 85 137
f 85 146 137
f 85 144 146
f 137 146 138
f 138 146 147
f 138 147 139
f 141 142 88
f 142 87 88
f 142 148 87
f 141 88 83
f 89 145 86
f 89 149 145
f 151 150 92
f 92 150 91
f 92 87 148
f 92 148 151
f 154 153 152
f 153 149 152
f 149 93 152
f 149 89 93
f 94 91 155
f 91 156 155
f 91 150 156
f 155 95 94
f 154 152 96
f 97 154 96
f 157 154 97
f 96 152 93
f 160 159 158
f 160 158 156
f 156 158 155
f 158 99 155
f 99 100 155
f 155 100 95
f 101 162 161
f 157 101 161
f 97 101 157
f 162 163 161
f 166 165 164
f 166 164 159
f 164 158 159
f 164 167 158
f 167 102 99
f 167 99 158
f 169 168 162
f 101 169 162
f 104 169 101
f 162 168 163
f 164 165 170
f 170 165 171
f 170 106 107
f 167 170 107
f 164 170 167
f 167 107 102
f 173 172 110
f 173 110 109
f 104 110 169
f 169 110 172
f 171 174 170
f 174 176 175
f 174 175 111
f 170 174 111
f 106 170 111
f 177 112 111
f 177 111 175
f 112 177 178
f 179 112 178
f 113 112 179
f 109 113 173
f 173 113 179
f 176 180 175
f 175 180 177
f 177 180 181
f 177 181 178
f 184 183 182
f 115 116 182
f 116 184 182
f 116 185 184
f 116 117 185
f 185 117 186
f 188 187 120
f 120 187 119
f 189 120 121
f 189 188 120
f 190 121 122
f 190 189 121
f 123 182 183
f 190 123 183
f 122 123 190
f 182 123 115
f 126 186 117
f 126 191 186
f 193 127 192
f 127 187 192
f 127 119 187
f 194 193 192
f 130 191 126
f 130 195 191
f 197 196 132
f 132 196 131
f 132 127 193
f 198 132 193
f 197 132 198
f 198 193 194
f 134 199 133
f 199 200 133
f 200 130 133
f 200 195 130
f 202 201 136
f 136 201 135
f 136 131 196
f 136 196 202
f 204 203 140
f 204 140 139
f 134 140 199
f 140 205 199
f 140 203 205
f 199 205 200
f 206 142 143
f 207 206 143
f 135 207 143
f 201 207 135
f 145 208 144
f 209 146 144
f 209 144 208
f 146 209 210
f 211 146 210
f 147 146 211
f 139 147 204
f 204 147 211
f 213 212 206
f 212 142 206
f 212 148 142
f 213 206 207
f 149 214 208
f 149 208 145
f 208 215 209
f 208 214 215
f 210 209 216
f 216 209 215
f 218 217 151
f 151 217 150
f 151 148 212
f 151 212 218
f 154 219 153
f 219 220 153
f 153 220 149
f 220 221 149
f 221 214 149
f 214 221 215
f 215 221 222
f 215 222 216
f 217 156 150
f 223 156 217
f 157 224 219
f 157 219 154
f 220 219 225
f 225 219 224
f 227 226 160
f 160 226 159
f 160 156 223
f 160 223 227
f 161 224 157
f 161 163 224
f 163 225 224
f 163 228 225
f 230 229 166
f 166 229 165
f 166 159 226
f 166 226 230
f 232 231 168
f 232 168 169
f 163 168 228
f 228 168 231
f 229 171 165
f 233 171 229
f 235 234 172
f 235 172 173
f 169 172 232
f 232 172 234
f 174 171 236
f 171 237 236
f 171 233 237
f 236 176 174
f 239 238 179
f 239 179 178
f 173 179 235
f 235 179 238
f 237 240 236
f 236 240 176
f 240 180 176
f 240 241 180
f 180 242 181
f 241 242 180
f 178 181 239
f 239 181 242
f 245 244 243
f 243 246 245
f 249 248 247
f 183 184 247
f 184 249 247
f 184 250 249
f 185 243 244
f 250 185 244
f 184 185 250
f 252 251 186
f 186 251 185
f 251 246 185
f 246 243 185
f 252 253 251
f 254 187 188
f 254 188 255
f 188 256 255
f 188 189 256
f 190 247 248
f 256 190 248
f 189 190 256
f 247 190 183
f 191 257 252
f 191 252 186
f 253 252 258
f 258 252 257
f 254 192 187
f 194 192 254
f 255 194 254
f 259 194 255
f 195 260 257
f 195 257 191
f 258 257 261
f 261 257 260
f 262 196 197
f 262 197 263
f 197 264 263
f 197 198 264
f 198 194 259
f 198 259 264
f 200 265 260
f 200 260 195
f 261 260 266
f 266 260 265
f 268 267 202
f 202 267 201
f 202 196 262
f 269 202 262
f 268 202 269
f 269 262 263
f 204 270 203
f 203 270 271
f 272 203 271
f 205 203 272
f 200 205 265
f 205 273 265
f 205 272 273
f 265 273 266
f 267 207 201
f 274 207 267
f 210 275 211
f 275 276 211
f 211 276 204
f 276 277 204
f 277 270 204
f 270 277 271
f 279 278 213
f 213 278 212
f 213 207 274
f 213 274 279
f 281 280 275
f 210 281 275
f 216 281 210
f 275 280 276
f 283 282 218
f 218 282 217
f 218 212 278
f 218 278 283
f 285 284 221
f 285 221 220
f 221 286 222
f 284 286 221
f 216 222 281
f 281 222 286
f 282 223 217
f 287 223 282
f 225 285 220
f 225 288 285
f 290 289 227
f 227 289 226
f 227 223 287
f 227 287 290
f 228 288 225
f 228 291 288
f 293 292 230
f 230 292 229
f 230 226 289
f 230 289 293
f 232 294 231
f 294 295 231
f 295 228 231
f 295 291 228
f 292 233 229
f 296 233 292
f 235 297 234
f 297 298 234
f 234 298 232
f 298 299 232
f 299 294 232
f 294 299 295
f 296 237 233
f 300 237 296
f 302 301 238
f 302 238 239
f 235 238 297
f 238 303 297
f 238 301 303
f 297 303 298
f 300 304 237
f 237 304 240
f 240 305 241
f 304 305 240
f 241 306 242
f 305 306 241
f 239 242 302
f 302 242 306
f 309 308 307
f 244 245 307
f 245 309 307
f 245 310 309
f 312 311 246
f 311 245 246
f 311 310 245
f 312 313 311
f 315 314 249
f 249 314 248
f 250 307 308
f 315 250 308
f 249 250 315
f 307 250 244
f 251 312 246
f 317 316 253
f 253 316 251
f 316 313 251
f 313 312 251
f 317 318 316
f 319 255 256
f 320 319 256
f 248 320 256
f 314 320 248
f 258 321 317
f 258 317 253
f 318 317 322
f 322 317 321
f 324 323 319
f 323 255 319
f 323 259 255
f 324 319 320
f 261 325 321
f 261 321 258
f 322 321 326
f 326 321 325
f 328 327 264
f 264 327 263
f 264 259 323
f 264 323 328
f 266 329 325
f 266 325 261
f 326 325 330
f 330 325 329
f 332 331 268
f 268 331 267
f 333 268 269
f 333 332 268
f 269 263 327
f 269 327 333
f 271 334 272
f 272 334 335
f 336 272 335
f 273 272 336
f 266 273 329
f 273 337 329
f 273 336 337
f 329 337 330
f 331 274 267
f 338 274 331
f 276 339 277
f 339 340 277
f 277 340 271
f 340 341 271
f 341 334 271
f 334 341 335
f 343 342 279
f 279 342 278
f 279 274 338
f 279 338 343
f 281 344 280
f 339 276 280
f 344 339 280
f 345 339 344
f 340 339 346
f 346 339 345
f 348 347 283
f 283 347 282
f 283 278 342
f 283 342 348
f 285 349 284
f 350 286 284
f 350 284 349
f 344 281 286
f 350 344 286
f 351 344 350
f 353 345 352
f 345 351 352
f 345 344 351
f 345 353 346
f 347 287 282
f 354 287 347
f 288 355 349
f 288 349 285
f 349 356 350
f 349 355 356
f 350 357 351
f 350 356 357
f 352 351 358
f 358 351 357
f 360 359 290
f 290 359 289
f 290 287 354
f 290 354 360
f 291 361 355
f 291 355 288
f 355 362 356
f 355 361 362
f 364 357 363
f 357 362 363
f 357 356 362
f 357 364 358
f 365 292 293
f 366 365 293
f 289 366 293
f 359 366 289
f 368 367 361
f 291 368 361
f 295 368 291
f 361 367 362
f 362 367 369
f 362 369 363
f 371 370 365
f 370 292 365
f 370 296 292
f 371 365 366
f 374 373 372
f 299 298 372
f 373 299 372
f 375 299 373
f 295 299 368
f 368 299 375
f 370 300 296
f 376 300 370
f 378 377 301
f 378 301 302
f 372 303 374
f 303 377 374
f 303 301 377
f 303 372 298
f 376 379 300
f 300 379 304
f 304 380 305
f 379 380 304
f 305 381 306
f 380 381 305
f 302 306 378
f 378 306 381
f 384 383 382
f 386 385 382
f 382 385 384
f 388 387 386
f 386 387 385
f 388 389 387
f 391 390 309
f 309 390 308
f 392 309 310
f 392 391 309
f 311 382 383
f 392 311 383
f 310 311 392
f 382 311 313
f 393 382 313
f 386 382 393
f 386 394 388
f 386 393 394
f 389 388 395
f 395 388 394
f 397 396 315
f 315 396 314
f 315 308 390
f 315 390 397
f 316 393 313
f 393 316 318
f 398 393 318
f 394 393 398
f 395 394 399
f 399 394 398
f 396 320 314
f 400 320 396
f 322 401 398
f 322 398 318
f 399 398 402
f 402 398 401
f 404 403 324
f 324 403 323
f 324 320 400
f 324 400 404
f 406 405 401
f 322 406 401
f 326 406 322
f 401 405 402
f 408 407 328
f 328 407 327
f 328 323 403
f 328 403 408
f 330 406 326
f 330 409 406
f 410 331 332
f 410 332 411
f 332 412 411
f 332 333 412
f 333 327 407
f 333 407 412
f 414 413 336
f 414 336 335
f 336 415 337
f 413 415 336
f 330 337 409
f 409 337 415
f 417 416 410
f 416 331 410
f 416 338 331
f 417 410 411
f 419 418 341
f 419 341 340
f 335 341 414
f 414 341 418
f 421 420 343
f 343 420 342
f 343 338 416
f 343 416 421
f 424 423 422
f 423 419 422
f 419 346 422
f 419 340 346
f 426 425 348
f 348 425 347
f 348 342 420
f 348 420 426
f 424 422 353
f 352 424 353
f 427 424 352
f 353 422 346
f 425 354 347
f 428 354 425
f 358 427 352
f 358 429 427
f 431 430 360
f 360 430 359
f 360 354 428
f 360 428 431
f 433 432 364
f 433 364 363
f 358 364 429
f 429 364 432
f 430 366 359
f 434 366 430
f 368 435 367
f 367 435 436
f 437 367 436
f 369 367 437
f 363 369 433
f 433 369 437
f 438 370 371
f 439 438 371
f 366 439 371
f 434 439 366
f 441 440 373
f 441 373 374
f 373 442 375
f 440 442 373
f 368 375 435
f 375 443 435
f 375 442 443
f 435 443 436
f 445 444 438
f 444 370 438
f 444 376 370
f 445 438 439
f 447 446 377
f 447 377 378
f 374 377 441
f 441 377 446
f 444 448 376
f 376 448 379
f 379 449 380
f 448 449 379
f 380 450 381
f 449 450 380
f 378 381 447
f 447 381 450
f 452 451 384
f 384 451 383
f 453 384 385
f 453 452 384
f 454 385 387
f 454 453 385
f 387 389 454
f 454 389 455
f 456 390 391
f 456 391 457
f 391 458 457
f 391 392 458
f 392 383 451
f 392 451 458
f 395 455 389
f 395 459 455
f 460 396 397
f 461 460 397
f 461 397 390
f 462 461 390
f 456 462 390
f 462 456 457
f 399 459 395
f 399 463 459
f 465 464 460
f 464 396 460
f 464 400 396
f 465 460 461
f 468 467 466
f 467 463 466
f 463 402 466
f 463 399 402
f 470 469 404
f 404 469 403
f 404 400 464
f 404 464 470
f 473 472 471
f 471 472 468
f 471 468 466
f 406 471 466
f 405 406 466
f 405 466 402
f 475 474 408
f 408 474 407
f 408 403 469
f 408 469 475
f 473 471 476
f 473 476 477
f 409 476 406
f 406 476 471
f 478 411 412
f 479 478 412
f 407 479 412
f 474 479 407
f 481 480 413
f 481 413 414
f 476 415 477
f 415 480 477
f 415 413 480
f 415 476 409
f 482 416 417
f 483 482 417
f 483 417 411
f 484 483 411
f 478 484 411
f 484 478 479
f 486 485 418
f 486 418 419
f 414 418 481
f 481 418 485
f 488 487 421
f 421 487 420
f 421 416 482
f 489 421 482
f 488 421 489
f 489 482 483
f 491 490 423
f 491 423 424
f 419 423 486
f 486 423 490
f 492 425 426
f 493 492 426
f 420 493 426
f 487 493 420
f 427 491 424
f 427 494 491
f 496 495 492
f 495 425 492
f 495 428 425
f 496 492 493
f 429 494 427
f 429 497 494
f 498 430 431
f 499 498 431
f 428 499 431
f 495 499 428
f 433 500 432
f 500 501 432
f 501 429 432
f 501 497 429
f 503 502 498
f 502 430 498
f 502 434 430
f 503 498 499
f 505 504 437
f 505 437 436
f 433 437 500
f 437 506 500
f 437 504 506
f 500 506 501
f 502 439 434
f 507 439 502
f 509 508 440
f 509 440 441
f 440 510 442
f 508 510 440
f 442 511 443
f 510 511 442
f 436 443 505
f 505 443 511
f 512 444 445
f 513 512 445
f 439 513 445
f 507 513 439
f 515 514 446
f 515 446 447
f 441 446 509
f 509 446 514
f 512 448 444
f 513 516 512
f 516 448 512
f 516 449 448
f 449 517 450
f 516 517 449
f 447 450 515
f 515 450 517
f 518 451 452
f 518 452 519
f 452 520 519
f 452 453 520
f 521 453 454
f 521 520 453
f 454 455 521
f 521 455 522
f 524 523 458
f 458 523 457
f 458 451 518
f 525 458 518
f 524 458 525
f 525 518 519
f 459 522 455
f 459 526 522
f 528 527 462
f 462 527 461
f 462 457 523
f 462 523 528
f 531 530 529
f 530 526 529
f 526 463 529
f 526 459 463
f 533 532 465
f 465 532 464
f 465 461 527
f 465 527 533
f 536 535 534
f 534 535 531
f 534 531 529
f 468 534 529
f 467 468 529
f 467 529 463
f 538 537 470
f 470 537 469
f 470 464 532
f 470 532 538
f 536 534 472
f 473 536 472
f 539 536 473
f 472 534 468
f 541 540 475
f 475 540 474
f 475 469 537
f 475 537 541
f 477 539 473
f 477 542 539
f 540 479 474
f 543 479 540
f 545 544 480
f 545 480 481
f 477 480 542
f 542 480 544
f 547 546 484
f 484 546 483
f 484 479 543
f 484 543 547
f 549 548 485
f 549 485 486
f 481 485 545
f 545 485 548
f 551 550 488
f 488 550 487
f 552 488 489
f 552 551 488
f 489 483 546
f 489 546 552
f 554 553 490
f 554 490 491
f 486 490 549
f 549 490 553
f 550 493 487
f 555 493 550
f 494 554 491
f 494 556 554
f 558 557 496
f 496 557 495
f 496 493 555
f 496 555 558
f 497 560 559
f 556 497 559
f 494 497 556
f 560 561 559
f 557 499 495
f 562 499 557
f 565 564 563
f 564 566 560
f 501 564 560
f 497 501 560
f 563 564 501
f 560 566 561
f 568 567 503
f 503 567 502
f 503 499 562
f 503 562 568
f 570 569 504
f 570 504 505
f 563 506 565
f 506 569 565
f 506 504 569
f 506 563 501
f 567 507 502
f 571 507 567
f 573 572 508
f 573 508 509
f 508 574 510
f 572 574 508
f 510 575 511
f 574 575 510
f 505 511 570
f 570 511 575
f 571 513 507
f 576 513 571
f 578 577 514
f 578 514 515
f 509 514 573
f 573 514 577
f 576 579 513
f 513 579 516
f 516 580 517
f 579 580 516
f 515 517 578
f 578 517 580
f 582 581 520
f 520 581 519
f 584 582 583
f 582 521 583
f 582 520 521
f 522 583 521
f 585 523 524
f 585 524 586
f 524 587 586
f 524 525 587
f 525 519 581
f 525 581 587
f 584 583 588
f 584 588 589
f 526 588 522
f 522 588 583
f 590 527 528
f 591 590 528
f 591 528 523
f 592 591 523
f 585 592 523
f 592 585 586
f 589 588 530
f 531 589 530
f 593 589 531
f 530 588 526
f 594 532 533
f 595 594 533
f 595 533 527
f 596 595 527
f 590 596 527
f 596 590 591
f 536 597 535
f 597 598 535
f 598 531 535
f 598 593 531
f 600 599 538
f 538 599 537
f 538 532 594
f 601 538 594
f 600 538 601
f 601 594 595
f 603 602 597
f 536 603 597
f 539 603 536
f 597 602 598
f 604 540 541
f 605 604 541
f 537 605 541
f 599 605 537
f 608 607 606
f 607 603 606
f 603 542 606
f 603 539 542
f 610 609 604
f 609 540 604
f 609 543 540
f 610 604 605
f 613 612 611
f 611 612 608
f 611 608 606
f 545 611 606
f 544 545 606
f 544 606 542
f 615 614 547
f 547 614 546
f 547 543 609
f 547 609 615
f 613 611 548
f 549 613 548
f 616 613 549
f 548 611 545
f 617 550 551
f 552 618 551
f 551 618 617
f 619 618 552
f 546 619 552
f 614 619 546
f 621 620 553
f 621 553 554
f 549 553 616
f 616 553 620
f 622 555 617
f 617 555 550
f 618 624 623
f 622 618 623
f 617 618 622
f 624 618 619
f 556 626 625
f 621 556 625
f 554 556 621
f 626 627 625
f 628 557 558
f 555 622 558
f 622 628 558
f 622 629 628
f 622 623 630
f 622 630 629
f 559 626 556
f 559 561 626
f 561 627 626
f 561 631 627
f 632 562 628
f 628 562 557
f 633 628 629
f 632 628 633
f 629 630 634
f 629 634 633
f 636 635 564
f 636 564 565
f 564 637 566
f 635 637 564
f 561 566 631
f 631 566 637
f 638 567 568
f 639 638 568
f 639 568 562
f 640 639 562
f 632 640 562
f 640 632 633
f 640 633 641
f 641 633 634
f 643 642 569
f 643 569 570
f 565 569 636
f 636 569 642
f 644 571 638
f 638 571 567
f 638 639 645
f 638 645 644
f 573 646 572
f 647 574 572
f 647 572 646
f 574 647 648
f 649 574 648
f 575 574 649
f 570 575 643
f 643 575 649
f 650 576 644
f 644 576 571
f 644 645 651
f 652 644 651
f 650 644 652
f 577 578 652
f 651 577 652
f 653 577 651
f 573 577 646
f 577 654 646
f 577 653 654
f 646 654 647
f 647 654 655
f 647 655 648
f 650 579 576
f 579 650 580
f 580 650 652
f 580 652 578
f 656 581 582
f 584 656 582
f 657 586 587
f 581 656 587
f 656 657 587
f 656 658 657
f 589 658 584
f 584 658 656
f 659 591 592
f 586 657 592
f 657 659 592
f 657 660 659
f 661 657 658
f 660 657 661
f 593 661 589
f 589 661 658
f 662 595 596
f 591 659 596
f 659 662 596
f 659 663 662
f 664 659 660
f 663 659 664
f 665 660 661
f 664 660 665
f 598 665 593
f 593 665 661
f 666 599 600
f 601 667 600
f 600 667 666
f 668 667 601
f 668 601 595
f 669 668 595
f 662 669 595
f 669 662 663
f 669 663 670
f 672 671 670
f 663 672 670
f 664 672 663
f 603 672 602
f 672 665 602
f 672 664 665
f 602 665 598
f 673 605 666
f 666 605 599
f 667 675 674
f 673 667 674
f 666 667 673
f 675 667 668
f 678 677 676
f 676 677 671
f 676 671 672
f 608 676 672
f 607 608 672
f 607 672 603
f 679 609 610
f 680 679 610
f 680 610 605
f 681 680 605
f 673 681 605
f 681 673 674
f 678 676 612
f 613 678 612
f 682 678 613
f 612 676 608
f 683 614 615
f 684 683 615
f 684 615 609
f 685 684 609
f 679 685 609
f 685 679 680
f 616 682 613
f 616 686 682
f 687 619 683
f 683 619 614
f 683 684 688
f 683 688 687
f 690 689 620
f 690 620 621
f 616 620 686
f 686 620 689
f 691 623 624
f 619 687 624
f 687 691 624
f 687 692 691
f 687 688 693
f 687 693 692
f 621 625 694
f 695 621 694
f 690 621 695
f 627 694 625
f 696 630 691
f 691 630 623
f 692 698 697
f 696 692 697
f 691 692 696
f 698 692 693
f 695 694 699
f 695 699 700
f 631 699 627
f 627 699 694
f 701 634 696
f 696 634 630
f 696 697 702
f 696 702 701
f 704 703 635
f 704 635 636
f 699 637 700
f 637 703 700
f 637 635 703
f 637 699 631
f 705 639 640
f 641 706 640
f 640 706 705
f 707 706 641
f 707 641 634
f 708 707 634
f 701 708 634
f 708 701 702
f 710 709 642
f 710 642 643
f 636 642 704
f 704 642 709
f 711 645 705
f 705 645 639
f 712 705 706
f 711 705 712
f 706 707 713
f 706 713 712
f 716 715 714
f 649 648 714
f 715 649 714
f 717 649 715
f 643 649 710
f 710 649 717
f 711 651 645
f 651 711 653
f 653 711 712
f 713 718 712
f 718 653 712
f 718 654 653
f 714 655 716
f 655 718 716
f 655 654 718
f 655 714 648
f 719 668 669
f 670 720 669
f 669 720 719
f 671 720 670
f 721 674 675
f 668 719 675
f 719 721 675
f 719 722 721
f 678 722 677
f 722 720 677
f 722 719 720
f 677 720 671
f 723 680 681
f 674 721 681
f 721 723 681
f 721 724 723
f 725 721 722
f 724 721 725
f 682 725 678
f 678 725 722
f 726 684 685
f 680 723 685
f 723 726 685
f 723 727 726
f 728 723 724
f 727 723 728
f 729 724 725
f 728 724 729
f 686 729 682
f 682 729 725
f 730 688 726
f 726 688 684
f 731 726 727
f 730 726 731
f 732 727 728
f 731 727 732
f 690 732 689
f 732 729 689
f 732 728 729
f 689 729 686
f 733 693 730
f 730 693 688
f 734 730 731
f 733 730 734
f 735 731 732
f 734 731 735
f 695 735 690
f 690 735 732
f 736 697 698
f 693 733 698
f 733 736 698
f 733 737 736
f 738 733 734
f 737 733 738
f 739 734 735
f 738 734 739
f 700 739 695
f 695 739 735
f 740 702 736
f 736 702 697
f 741 736 737
f 740 736 741
f 742 737 738
f 741 737 742
f 704 742 703
f 742 739 703
f 742 738 739
f 703 739 700
f 743 707 708
f 702 740 708
f 740 743 708
f 740 744 743
f 745 740 741
f 744 740 745
f 710 745 709
f 745 742 709
f 745 741 742
f 709 742 704
f 746 713 743
f 743 713 707
f 716 746 715
f 746 744 715
f 746 743 744
f 715 744 717
f 717 744 745
f 717 745 710
f 746 718 713
f 718 746 716
