v 32.9 15.0 26.0
v 33.0 15.0 25.3
v 33.0 14.9 26.0
v 33.0 15.0 26.5
v 33.0 15.1 26.0
v 34.0 12.0 26.0
v 34.0 12.0 26.0
v 34.0 12.0 26.0
v 34.0 11.9 27.0
v 33.9 12.0 27.0
v 34.0 12.0 27.1
v 34.0 12.0 26.0
v 34.0 12.1 27.0
v 33.2 15.0 25.0
v 34.0 15.0 24.4
v 34.0 14.7 25.0
v 34.0 14.8 26.0
v 34.0 15.0 26.6
v 34.0 15.3 25.0
v 34.0 15.2 26.0
v 34.8 10.0 26.0
v 35.0 10.0 25.8
v 35.0 9.8 26.0
v 35.0 9.7 27.0
v 34.7 10.0 27.0
v 35.0 9.9 28.0
v 34.9 10.0 28.0
v 35.0 10.0 28.1
v 34.6 11.0 26.0
v 35.0 11.0 25.6
v 34.5 11.0 27.0
v 35.0 11.0 27.8
v 35.0 10.2 28.0
v 35.0 12.0 25.5
v 35.0 11.3 28.0
v 34.7 12.0 28.0
v 35.0 12.0 28.9
v 34.7 13.0 26.0
v 35.0 13.0 25.6
v 34.7 13.0 27.0
v 35.0 13.0 27.4
v 35.0 12.5 28.0
v 34.9 14.0 25.0
v 35.0 14.0 24.9
v 35.0 13.9 25.0
v 35.0 13.4 26.0
v 35.0 14.0 25.1
v 35.0 13.3 27.0
v 35.0 15.0 24.8
v 35.0 15.0 25.3
v 34.3 15.0 26.0
v 35.0 15.2 25.0
v 36.0 10.0 25.8
v 36.0 9.8 26.0
v 36.0 9.5 27.0
v 36.0 9.2 28.0
v 36.0 10.0 28.4
v 36.0 11.0 25.5
v 35.2 11.0 28.0
v 36.0 11.0 28.5
v 36.0 12.0 25.4
v 36.0 11.6 29.0
v 35.1 12.0 29.0
v 36.0 12.0 29.3
v 35.6 13.0 25.0
v 36.0 13.0 24.7
v 36.0 12.7 25.0
v 35.4 13.0 28.0
v 35.7 13.0 29.0
v 36.0 13.0 29.2
v 36.0 14.0 24.5
v 36.0 14.0 26.0
v 36.0 14.0 26.0
v 36.0 13.7 27.0
v 36.0 13.5 28.0
v 36.0 13.2 29.0
v 36.0 15.0 24.5
v 36.0 14.1 26.0
v 35.7 15.0 26.0
v 36.0 15.0 26.2
v 36.0 15.4 25.0
v 36.0 15.2 26.0
v 36.3 10.0 26.0
v 37.0 10.0 26.6
v 37.0 9.7 27.0
v 37.0 9.7 28.0
v 37.0 10.0 28.2
v 37.0 11.0 25.7
v 37.0 10.6 26.0
v 37.0 11.0 28.6
v 37.0 12.0 25.4
v 37.0 11.5 29.0
v 37.0 12.0 29.4
v 37.0 13.0 24.6
v 37.0 12.5 25.0
v 37.0 13.0 29.4
v 36.8 14.0 24.0
v 37.0 14.0 23.9
v 37.0 13.8 24.0
v 36.0 14.0 26.0
v 36.4 14.0 27.0
v 36.6 14.0 28.0
v 37.0 14.0 28.4
v 37.0 13.4 29.0
v 36.5 15.0 24.0
v 37.0 15.0 23.6
v 36.7 15.0 27.0
v 37.0 15.0 27.3
v 37.0 14.3 28.0
v 36.7 16.0 24.0
v 37.0 16.0 23.3
v 36.6 16.0 25.0
v 36.9 16.0 26.0
v 37.0 16.0 26.1
v 37.0 15.3 27.0
v 37.0 16.4 24.0
v 37.0 16.4 25.0
v 37.0 16.1 26.0
v 37.3 10.0 27.0
v 37.3 10.0 28.0
v 37.4 11.0 26.0
v 37.7 11.0 27.0
v 38.0 11.0 27.7
v 38.0 10.9 28.0
v 38.0 11.0 28.2
v 38.0 12.0 25.5
v 38.0 11.5 26.0
v 38.0 11.3 27.0
v 38.0 11.7 29.0
v 38.0 12.0 29.2
v 38.0 13.0 24.6
v 38.0 12.5 25.0
v 38.0 13.0 29.2
v 37.3 14.0 24.0
v 38.0 14.0 24.3
v 38.0 13.3 29.0
v 38.0 14.0 28.3
v 38.0 15.0 23.6
v 38.0 14.4 24.0
v 38.0 14.4 28.0
v 38.0 15.0 27.5
v 38.0 16.0 23.3
v 37.5 16.0 26.0
v 38.0 15.9 26.0
v 38.0 16.0 25.9
v 38.0 15.5 27.0
v 38.0 17.0 23.0
v 38.0 17.0 23.0
v 38.0 17.0 23.0
v 37.7 17.0 24.0
v 38.0 17.0 24.4
v 38.0 16.6 25.0
v 38.0 17.0 23.0
v 38.0 17.2 24.0
v 38.1 11.0 28.0
v 39.0 12.0 25.7
v 39.0 11.8 26.0
v 39.0 11.7 27.0
v 38.7 12.0 28.0
v 39.0 12.0 27.5
v 38.2 12.0 29.0
v 39.0 13.0 24.7
v 39.0 12.7 25.0
v 39.0 12.5 28.0
v 39.0 13.0 28.3
v 38.3 13.0 29.0
v 39.0 14.0 24.4
v 38.4 14.0 28.0
v 39.0 13.4 28.0
v 39.0 14.0 27.0
v 39.0 15.0 23.5
v 39.0 14.5 24.0
v 39.0 15.0 27.4
v 39.0 16.0 23.3
v 38.2 16.0 26.0
v 38.7 16.0 27.0
v 39.0 16.0 27.3
v 39.0 17.0 22.8
v 39.0 16.6 23.0
v 38.5 17.0 25.0
v 39.0 17.0 25.5
v 39.0 16.6 26.0
v 39.0 16.3 27.0
v 39.0 17.2 23.0
v 39.0 17.5 24.0
v 39.0 17.3 25.0
v 39.3 12.0 26.0
v 39.4 12.0 27.0
v 39.4 13.0 25.0
v 40.0 13.0 25.6
v 40.0 12.7 26.0
v 40.0 12.7 27.0
v 40.0 12.9 28.0
v 40.0 13.0 28.1
v 40.0 14.0 24.5
v 40.0 13.4 25.0
v 39.3 14.0 27.0
v 40.0 13.8 27.0
v 40.0 14.0 26.9
v 40.0 13.1 28.0
v 39.7 15.0 23.0
v 40.0 15.0 22.8
v 40.0 14.8 23.0
v 40.0 14.4 24.0
v 40.0 14.1 27.0
v 40.0 15.0 27.5
v 39.4 16.0 23.0
v 40.0 16.0 22.6
v 40.0 15.9 28.0
v 39.9 16.0 28.0
v 40.0 16.0 28.1
v 40.0 17.0 22.7
v 39.5 17.0 26.0
v 40.0 17.0 26.5
v 40.0 16.7 27.0
v 40.0 16.1 28.0
v 40.0 17.3 23.0
v 40.0 17.6 24.0
v 40.0 17.6 25.0
v 40.0 17.3 26.0
v 40.4 13.0 26.0
v 40.4 13.0 27.0
v 40.7 13.0 28.0
v 41.0 14.0 24.6
v 41.0 13.7 25.0
v 41.0 13.5 26.0
v 40.3 14.0 27.0
v 41.0 13.7 27.0
v 41.0 14.0 27.2
v 41.0 15.0 22.5
v 41.0 14.5 23.0
v 41.0 14.4 24.0
v 41.0 15.0 27.6
v 41.0 16.0 22.4
v 41.0 15.5 28.0
v 41.0 16.0 28.4
v 41.0 17.0 22.6
v 40.4 17.0 27.0
v 40.6 17.0 28.0
v 41.0 16.9 29.0
v 40.9 17.0 29.0
v 41.0 17.0 29.1
v 41.0 17.6 23.0
v 40.6 18.0 24.0
v 41.0 18.0 23.6
v 40.6 18.0 25.0
v 41.0 18.0 25.5
v 41.0 17.7 26.0
v 41.0 17.5 27.0
v 41.0 17.5 28.0
v 41.0 17.1 29.0
v 41.0 18.3 24.0
v 41.0 18.3 25.0
v 41.9 14.0 23.0
v 42.0 14.0 22.9
v 42.0 13.9 23.0
v 42.0 14.0 23.1
v 41.4 14.0 25.0
v 41.6 14.0 26.0
v 41.4 14.0 27.0
v 41.7 15.0 22.0
v 42.0 15.0 21.8
v 42.0 14.7 22.0
v 42.0 14.4 24.0
v 42.0 14.4 25.0
v 42.0 14.3 26.0
v 42.0 14.3 27.0
v 42.0 15.0 27.7
v 41.8 16.0 22.0
v 42.0 16.0 21.9
v 42.0 15.4 28.0
v 42.0 16.0 28.5
v 42.0 16.2 22.0
v 42.0 17.0 22.4
v 42.0 16.4 29.0
v 42.0 16.7 30.0
v 41.7 17.0 30.0
v 42.0 17.0 30.4
v 41.6 18.0 23.0
v 42.0 18.0 22.8
v 41.4 18.0 26.0
v 41.5 18.0 27.0
v 41.5 18.0 28.0
v 41.4 18.0 29.0
v 41.5 18.0 30.0
v 42.0 17.6 31.0
v 41.7 18.0 31.0
v 42.0 18.0 32.0
v 42.0 18.0 32.0
v 42.0 18.0 32.0
v 42.0 18.2 23.0
v 42.0 18.5 24.0
v 42.0 18.6 25.0
v 42.0 18.5 26.0
v 42.0 18.4 27.0
v 42.0 18.6 28.0
v 41.7 19.0 29.0
v 42.0 19.0 28.5
v 41.8 19.0 30.0
v 42.0 19.0 30.4
v 42.0 18.4 31.0
v 42.0 18.0 32.0
v 42.0 19.3 29.0
v 42.0 19.3 30.0
v 42.1 13.0 28.0
v 43.0 13.0 27.5
v 43.0 12.7 28.0
v 43.0 12.9 29.0
v 42.9 13.0 29.0
v 43.0 13.0 29.1
v 43.0 14.0 22.9
v 43.0 13.9 23.0
v 43.0 14.0 23.1
v 42.5 14.0 26.0
v 43.0 14.0 25.6
v 43.0 13.7 26.0
v 43.0 13.4 27.0
v 42.3 14.0 27.0
v 42.5 14.0 28.0
v 43.0 14.0 28.6
v 43.0 13.1 29.0
v 43.0 15.0 21.9
v 43.0 14.9 22.0
v 43.0 14.4 24.0
v 43.0 14.4 25.0
v 42.4 15.0 28.0
v 43.0 15.0 28.4
v 43.0 15.2 22.0
v 42.2 16.0 22.0
v 43.0 16.0 22.3
v 43.0 16.0 28.6
v 43.0 17.0 22.5
v 43.0 16.4 29.0
v 43.0 16.5 30.0
v 43.0 16.8 31.0
v 42.7 17.0 31.0
v 43.0 17.0 31.2
v 43.0 18.0 22.8
v 43.0 17.5 32.0
v 43.0 17.7 33.0
v 42.7 18.0 33.0
v 43.0 18.0 33.3
v 43.0 18.2 23.0
v 43.0 18.5 24.0
v 42.7 19.0 25.0
v 43.0 19.0 24.7
v 42.6 19.0 26.0
v 43.0 19.0 26.8
v 43.0 18.9 27.0
v 42.4 19.0 28.0
v 43.0 19.0 27.1
v 42.4 19.0 31.0
v 42.5 19.0 32.0
v 42.8 19.0 33.0
v 43.0 19.0 33.3
v 43.0 19.2 25.0
v 43.0 19.3 26.0
v 42.8 20.0 28.0
v 43.0 20.0 27.7
v 42.7 20.0 29.0
v 43.0 20.0 29.5
v 43.0 19.7 30.0
v 43.0 19.5 31.0
v 43.0 19.4 32.0
v 43.0 19.3 33.0
v 43.0 20.2 28.0
v 43.0 20.3 29.0
v 43.4 13.0 27.0
v 44.0 13.0 26.5
v 44.0 12.1 27.0
v 44.0 12.5 28.0
v 44.0 12.8 29.0
v 44.0 13.0 29.3
v 43.1 14.0 23.0
v 44.0 14.0 25.5
v 44.0 13.5 26.0
v 43.4 14.0 29.0
v 44.0 14.0 30.0
v 44.0 14.0 30.0
v 44.0 14.0 30.0
v 43.1 15.0 22.0
v 44.0 15.0 22.6
v 44.0 14.6 23.0
v 44.0 14.5 24.0
v 44.0 14.4 25.0
v 44.0 14.7 29.0
v 44.0 15.0 28.8
v 44.0 14.0 30.0
v 44.0 16.0 22.5
v 44.0 16.0 28.7
v 44.0 17.0 22.6
v 44.0 16.3 29.0
v 44.0 16.7 30.0
v 43.3 17.0 31.0
v 44.0 17.0 30.5
v 44.0 17.6 23.0
v 43.4 18.0 23.0
v 44.0 18.0 24.0
v 44.0 18.0 24.0
v 44.0 18.0 24.0
v 44.0 17.3 31.0
v 44.0 17.5 32.0
v 44.0 17.4 33.0
v 44.0 17.3 34.0
v 43.6 18.0 34.0
v 44.0 18.0 34.4
v 44.0 19.0 24.6
v 43.1 19.0 27.0
v 43.7 19.0 34.0
v 44.0 19.0 34.3
v 44.0 19.4 25.0
v 44.0 19.6 26.0
v 43.9 20.0 27.0
v 44.0 20.0 26.9
v 43.4 20.0 30.0
v 43.6 20.0 31.0
v 44.0 20.0 31.7
v 44.0 19.8 32.0
v 43.9 20.0 33.0
v 44.0 20.0 32.6
v 44.0 20.0 33.1
v 44.0 19.3 34.0
v 44.0 20.1 27.0
v 44.0 20.4 28.0
v 44.0 20.5 29.0
v 44.0 20.4 30.0
v 44.0 20.3 31.0
v 44.0 20.1 33.0
v 45.0 13.0 26.7
v 45.0 12.2 27.0
v 44.6 13.0 28.0
v 45.0 13.0 27.5
v 44.3 13.0 29.0
v 45.0 14.0 25.6
v 45.0 13.6 26.0
v 45.0 13.3 28.0
v 45.0 13.5 29.0
v 45.0 13.8 30.0
v 45.0 14.0 30.2
v 45.0 15.0 22.8
v 45.0 14.8 23.0
v 45.0 14.5 24.0
v 45.0 14.4 25.0
v 44.3 15.0 29.0
v 44.8 15.0 30.0
v 45.0 15.0 30.2
v 45.0 16.0 22.6
v 45.0 15.9 29.0
v 45.0 16.0 28.9
v 45.0 15.2 30.0
v 45.0 17.0 22.5
v 45.0 16.1 29.0
v 44.5 17.0 30.0
v 45.0 17.0 29.7
v 44.6 18.0 23.0
v 45.0 18.0 22.8
v 44.0 18.0 24.0
v 45.0 17.3 30.0
v 45.0 17.5 31.0
v 45.0 17.5 32.0
v 45.0 17.5 33.0
v 45.0 17.3 34.0
v 45.0 17.8 35.0
v 44.8 18.0 35.0
v 45.0 18.0 35.2
v 45.0 18.2 23.0
v 45.0 18.6 24.0
v 45.0 19.0 24.4
v 45.0 18.3 35.0
v 45.0 19.0 34.6
v 45.0 19.4 25.0
v 45.0 19.5 26.0
v 44.1 20.0 27.0
v 45.0 19.6 27.0
v 44.6 20.0 28.0
v 45.0 19.6 28.0
v 45.0 20.0 28.5
v 44.3 20.0 32.0
v 45.0 19.5 34.0
v 45.0 20.0 33.3
v 45.0 20.3 29.0
v 45.0 20.4 30.0
v 45.0 20.4 31.0
v 45.0 20.3 32.0
v 45.0 20.2 33.0
v 45.3 13.0 27.0
v 45.5 14.0 26.0
v 46.0 14.0 26.5
v 46.0 13.6 27.0
v 46.0 13.7 28.0
v 45.6 14.0 29.0
v 46.0 14.0 28.4
v 45.2 14.0 30.0
v 45.3 15.0 23.0
v 46.0 15.0 23.6
v 46.0 14.6 24.0
v 46.0 14.5 25.0
v 46.0 14.3 26.0
v 46.0 14.5 29.0
v 46.0 15.0 30.0
v 46.0 15.0 30.0
v 45.6 16.0 23.0
v 46.0 16.0 23.3
v 45.1 16.0 29.0
v 46.0 16.0 29.4
v 46.0 15.0 30.0
v 46.0 17.0 22.7
v 46.0 16.5 23.0
v 46.0 17.0 29.6
v 45.6 17.0 34.0
v 46.0 17.0 33.7
v 46.0 16.8 34.0
v 46.0 16.8 35.0
v 45.7 17.0 35.0
v 46.0 17.0 35.3
v 46.0 18.0 22.6
v 46.0 17.4 30.0
v 46.0 17.5 31.0
v 46.0 17.5 32.0
v 46.0 17.4 33.0
v 46.0 17.9 36.0
v 45.9 18.0 36.0
v 46.0 18.0 36.0
v 46.0 18.6 23.0
v 45.5 19.0 24.0
v 46.0 19.0 23.4
v 45.9 19.0 28.0
v 46.0 18.9 28.0
v 46.0 19.0 27.9
v 46.0 19.0 28.1
v 45.8 19.0 35.0
v 46.0 19.0 35.1
v 46.0 18.1 36.0
v 46.0 19.4 24.0
v 46.0 19.6 25.0
v 46.0 19.5 26.0
v 46.0 19.4 27.0
v 45.3 20.0 29.0
v 46.0 19.5 29.0
v 45.5 20.0 30.0
v 46.0 19.5 30.0
v 45.5 20.0 31.0
v 46.0 19.6 31.0
v 45.4 20.0 32.0
v 46.0 19.6 32.0
v 45.3 20.0 33.0
v 46.0 19.5 33.0
v 46.0 19.4 34.0
v 46.0 19.1 35.0
v 46.4 14.0 27.0
v 46.3 14.0 28.0
v 47.0 15.0 23.8
v 47.0 14.8 24.0
v 47.0 14.6 25.0
v 47.0 14.6 26.0
v 47.0 14.6 27.0
v 47.0 15.0 27.5
v 46.7 15.0 28.0
v 46.4 15.0 29.0
v 46.0 15.0 30.0
v 47.0 16.0 23.6
v 47.0 15.4 28.0
v 47.0 16.0 28.5
v 46.5 16.0 29.0
v 46.4 17.0 23.0
v 47.0 17.0 23.5
v 47.0 16.5 29.0
v 47.0 17.0 29.4
v 47.0 17.0 33.5
v 47.0 16.6 34.0
v 47.0 16.6 35.0
v 47.0 17.0 35.5
v 46.5 18.0 23.0
v 47.0 18.0 23.3
v 47.0 17.5 30.0
v 47.0 17.6 31.0
v 47.0 17.5 32.0
v 47.0 17.5 33.0
v 47.0 17.7 36.0
v 47.0 18.0 36.3
v 47.0 19.0 22.2
v 46.5 19.0 23.0
v 47.0 18.5 23.0
v 47.0 18.7 28.0
v 47.0 19.0 27.5
v 47.0 19.0 28.7
v 46.8 19.0 30.0
v 47.0 18.7 30.0
v 47.0 19.0 29.4
v 47.0 19.0 30.4
v 46.7 19.0 33.0
v 47.0 18.7 33.0
v 47.0 19.0 32.6
v 46.5 19.0 34.0
v 47.0 18.6 34.0
v 46.2 19.0 35.0
v 47.0 18.6 35.0
v 47.0 18.3 36.0
v 47.0 19.3 23.0
v 46.9 20.0 24.0
v 47.0 20.0 23.9
v 46.9 20.0 25.0
v 47.0 20.0 25.1
v 47.0 19.5 26.0
v 47.0 19.3 27.0
v 47.0 19.1 29.0
v 47.0 19.3 31.0
v 47.0 19.4 32.0
v 47.0 20.1 24.0
v 47.0 20.1 25.0
v 47.2 15.0 24.0
v 47.4 15.0 25.0
v 47.5 15.0 26.0
v 47.4 15.0 27.0
v 47.4 16.0 24.0
v 48.0 16.0 24.7
v 48.0 15.7 25.0
v 48.0 15.5 26.0
v 48.0 15.7 27.0
v 47.5 16.0 28.0
v 48.0 16.0 27.4
v 47.5 17.0 24.0
v 48.0 17.0 24.5
v 48.0 16.6 28.0
v 47.5 17.0 29.0
v 48.0 17.0 28.5
v 48.0 17.0 33.5
v 48.0 16.6 34.0
v 48.0 16.6 35.0
v 48.0 17.0 35.6
v 47.6 18.0 24.0
v 48.0 18.0 24.4
v 48.0 17.5 29.0
v 48.0 18.0 30.0
v 47.6 18.0 31.0
v 48.0 18.0 30.1
v 48.0 18.0 31.5
v 48.0 17.7 32.0
v 48.0 17.5 33.0
v 48.0 17.3 36.0
v 48.0 18.0 37.0
v 48.0 18.0 37.0
v 48.0 18.0 37.0
v 47.9 19.0 23.0
v 48.0 19.0 23.1
v 48.0 18.6 24.0
v 47.6 19.0 26.0
v 48.0 18.6 26.0
v 48.0 19.0 25.4
v 47.3 19.0 27.0
v 48.0 18.4 27.0
v 48.0 18.4 28.0
v 47.2 19.0 29.0
v 48.0 18.4 29.0
v 48.0 18.1 30.0
v 47.4 19.0 31.0
v 48.0 19.0 31.8
v 48.0 18.5 33.0
v 48.0 19.0 32.2
v 48.0 18.5 34.0
v 48.0 18.6 35.0
v 48.0 18.9 36.0
v 48.0 18.0 37.0
v 47.1 20.0 24.0
v 48.0 19.3 24.0
v 47.1 20.0 25.0
v 48.0 19.3 25.0
v 48.0 19.1 32.0
v 48.2 16.0 25.0
v 48.4 16.0 26.0
v 48.3 16.0 27.0
v 48.4 17.0 25.0
v 48.5 17.0 26.0
v 48.5 17.0 27.0
v 48.3 17.0 28.0
v 49.0 17.0 33.5
v 49.0 16.6 34.0
v 49.0 16.4 35.0
v 49.0 16.3 36.0
v 48.4 17.0 36.0
v 49.0 17.0 36.5
v 48.4 18.0 25.0
v 48.4 18.0 26.0
v 48.4 18.0 27.0
v 48.4 18.0 28.0
v 48.7 18.0 29.0
v 48.1 18.0 30.0
v 49.0 18.0 31.8
v 49.0 17.8 32.0
v 49.0 17.5 33.0
v 49.0 17.7 37.0
v 49.0 18.0 37.3
v 48.2 19.0 24.0
v 48.2 19.0 25.0
v 49.0 18.3 32.0
v 48.2 19.0 32.0
v 49.0 18.4 33.0
v 49.0 18.5 34.0
v 49.0 18.5 35.0
v 49.0 18.6 36.0
v 49.0 18.3 37.0
v 50.0 17.0 33.7
v 50.0 16.7 34.0
v 50.0 16.3 35.0
v 50.0 16.4 36.0
v 50.0 17.0 36.7
v 49.7 18.0 32.0
v 50.0 18.0 32.3
v 50.0 17.8 33.0
v 50.0 17.4 37.0
v 50.0 18.0 38.0
v 50.0 18.0 38.0
v 50.0 18.0 38.0
v 50.0 18.2 33.0
v 50.0 18.3 34.0
v 50.0 18.5 35.0
v 50.0 18.6 36.0
v 50.0 18.9 37.0
v 50.0 18.0 38.0
v 50.8 15.0 36.0
v 51.0 15.0 35.8
v 51.0 14.6 36.0
v 51.0 15.0 36.2
v 50.7 16.0 35.0
v 51.0 16.0 34.9
v 51.0 15.8 35.0
v 50.4 16.0 36.0
v 51.0 16.0 36.4
v 50.3 17.0 34.0
v 51.0 17.0 34.6
v 51.0 16.6 37.0
v 50.5 17.0 37.0
v 51.0 17.0 37.4
v 50.2 18.0 33.0
v 50.4 18.0 34.0
v 51.0 18.0 34.7
v 51.0 17.8 38.0
v 51.0 18.0 38.2
v 51.0 18.2 35.0
v 51.0 18.4 36.0
v 51.0 18.5 37.0
v 51.0 18.2 38.0
v 52.0 15.0 36.0
v 52.0 15.0 36.0
v 52.0 15.0 36.0
v 51.2 16.0 35.0
v 52.0 16.0 35.7
v 52.0 16.0 36.4
v 51.4 17.0 35.0
v 52.0 17.0 35.7
v 52.0 16.4 37.0
v 52.0 17.0 37.5
v 51.2 18.0 35.0
v 52.0 17.4 36.0
v 51.5 18.0 36.0
v 52.0 18.0 36.6
v 52.0 17.7 38.0
v 52.0 18.0 38.2
v 52.0 18.3 37.0
v 52.0 18.2 38.0
v 52.0 15.0 36.0
v 52.3 16.0 36.0
v 52.8 16.0 37.0
v 53.0 16.0 36.9
v 53.0 15.7 37.0
v 53.0 16.0 37.1
v 52.3 17.0 36.0
v 53.0 17.0 36.7
v 53.0 16.7 38.0
v 52.7 17.0 38.0
v 53.0 17.0 38.2
v 52.4 18.0 37.0
v 53.0 17.3 37.0
v 53.0 18.0 37.9
v 53.0 18.0 38.1
v 53.0 18.0 38.0
v 53.1 16.0 37.0
v 53.3 17.0 37.0
v 54.0 17.0 38.0
v 53.1 18.0 38.0
f 3 2 1
f 1 4 3
f 2 5 1
f 1 5 4
f 8 7 6
f 10 9 6
f 6 9 8
f 10 11 9
f 7 12 6
f 6 12 10
f 10 12 13
f 10 13 11
f 16 15 14
f 2 3 14
f 3 16 14
f 3 17 16
f 3 4 17
f 17 4 18
f 15 19 14
f 14 19 2
f 19 5 2
f 19 20 5
f 4 5 18
f 18 5 20
f 23 22 21
f 25 24 21
f 21 24 23
f 27 26 25
f 25 26 24
f 27 28 26
f 21 22 29
f 29 22 30
f 21 31 25
f 21 29 31
f 33 27 32
f 27 31 32
f 27 25 31
f 27 33 28
f 29 30 8
f 30 7 8
f 30 34 7
f 29 8 9
f 29 9 31
f 36 35 11
f 11 35 9
f 35 32 9
f 32 31 9
f 36 37 35
f 12 7 38
f 7 39 38
f 7 34 39
f 40 13 12
f 40 12 38
f 40 41 13
f 13 41 11
f 41 42 11
f 42 36 11
f 36 42 37
f 45 44 43
f 46 38 39
f 43 47 45
f 38 46 40
f 40 46 48
f 40 48 41
f 43 44 16
f 44 15 16
f 44 49 15
f 16 17 43
f 17 50 43
f 50 47 43
f 17 51 50
f 18 51 17
f 49 52 15
f 15 52 19
f 51 20 50
f 20 52 50
f 20 19 52
f 20 51 18
f 54 53 23
f 23 53 22
f 55 23 24
f 55 54 23
f 56 24 26
f 56 55 24
f 26 28 56
f 56 28 57
f 53 30 22
f 58 30 53
f 32 59 33
f 59 60 33
f 60 28 33
f 60 57 28
f 58 34 30
f 61 34 58
f 35 59 32
f 63 62 37
f 37 62 35
f 62 60 35
f 60 59 35
f 63 64 62
f 67 66 65
f 61 67 65
f 39 61 65
f 34 61 39
f 41 68 42
f 63 37 42
f 68 63 42
f 69 63 68
f 64 63 70
f 70 63 69
f 65 66 45
f 66 44 45
f 66 71 44
f 72 45 47
f 45 72 65
f 73 65 72
f 65 73 39
f 46 39 73
f 46 74 48
f 73 74 46
f 41 48 68
f 48 75 68
f 48 74 75
f 68 75 69
f 69 75 76
f 69 76 70
f 71 49 44
f 77 49 71
f 50 79 78
f 72 50 78
f 47 50 72
f 79 80 78
f 77 81 49
f 49 81 52
f 50 52 79
f 52 82 79
f 52 81 82
f 79 82 80
f 83 53 54
f 83 54 84
f 54 85 84
f 54 55 85
f 86 55 56
f 86 85 55
f 56 57 86
f 86 57 87
f 89 88 83
f 88 53 83
f 88 58 53
f 89 83 84
f 60 87 57
f 60 90 87
f 88 61 58
f 91 61 88
f 92 90 60
f 92 60 62
f 62 64 92
f 92 64 93
f 95 94 67
f 67 94 66
f 67 61 91
f 67 91 95
f 70 93 64
f 70 96 93
f 99 98 97
f 94 99 97
f 71 94 97
f 66 94 71
f 72 100 73
f 101 74 73
f 101 73 100
f 102 75 74
f 102 74 101
f 75 102 103
f 104 75 103
f 76 75 104
f 70 76 96
f 96 76 104
f 97 98 105
f 105 98 106
f 105 77 71
f 105 71 97
f 78 100 72
f 100 78 80
f 107 100 80
f 101 100 107
f 109 102 108
f 102 107 108
f 102 101 107
f 102 109 103
f 105 106 110
f 110 106 111
f 112 81 77
f 105 112 77
f 110 112 105
f 113 82 81
f 113 81 112
f 113 114 82
f 82 114 80
f 114 115 80
f 115 107 80
f 107 115 108
f 111 116 110
f 110 116 112
f 112 116 117
f 112 117 113
f 113 117 118
f 113 118 114
f 119 84 85
f 86 120 85
f 85 120 119
f 87 120 86
f 121 88 89
f 84 119 89
f 119 121 89
f 119 122 121
f 120 124 123
f 122 120 123
f 119 120 122
f 120 87 124
f 87 125 124
f 87 90 125
f 127 126 121
f 126 88 121
f 126 91 88
f 127 121 122
f 127 122 128
f 128 122 123
f 129 125 90
f 129 90 92
f 92 93 129
f 129 93 130
f 132 131 95
f 95 131 94
f 95 91 126
f 95 126 132
f 96 130 93
f 96 133 130
f 134 98 99
f 135 134 99
f 94 135 99
f 131 135 94
f 137 136 104
f 137 104 103
f 96 104 133
f 133 104 136
f 139 138 134
f 138 98 134
f 138 106 98
f 139 134 135
f 141 140 109
f 141 109 108
f 103 109 137
f 137 109 140
f 138 111 106
f 142 111 138
f 145 144 143
f 115 114 143
f 144 115 143
f 146 115 144
f 108 115 141
f 141 115 146
f 149 148 147
f 147 150 116
f 142 147 116
f 111 142 116
f 147 142 149
f 116 150 151
f 152 116 151
f 117 116 152
f 143 118 145
f 118 152 145
f 118 117 152
f 118 143 114
f 148 153 147
f 147 153 150
f 150 153 154
f 150 154 151
f 155 123 124
f 125 155 124
f 157 156 127
f 127 156 126
f 158 127 128
f 158 157 127
f 158 128 123
f 159 158 123
f 155 159 123
f 158 159 160
f 129 161 125
f 161 155 125
f 161 159 155
f 130 161 129
f 163 162 132
f 132 162 131
f 132 126 156
f 132 156 163
f 164 160 159
f 166 165 164
f 159 166 164
f 161 166 159
f 133 166 130
f 130 166 161
f 162 135 131
f 167 135 162
f 170 169 168
f 168 169 165
f 168 165 166
f 137 168 166
f 136 137 166
f 136 166 133
f 172 171 139
f 139 171 138
f 139 135 167
f 139 167 172
f 170 168 140
f 141 170 140
f 173 170 141
f 140 168 137
f 171 142 138
f 174 142 171
f 145 175 144
f 176 146 144
f 176 144 175
f 176 177 146
f 177 141 146
f 177 173 141
f 179 178 149
f 149 178 148
f 149 142 174
f 149 174 179
f 151 180 152
f 180 181 152
f 152 181 145
f 181 182 145
f 182 175 145
f 175 182 176
f 176 182 183
f 176 183 177
f 178 184 148
f 148 184 153
f 153 185 154
f 184 185 153
f 151 154 180
f 154 186 180
f 154 185 186
f 180 186 181
f 187 156 157
f 158 188 157
f 157 188 187
f 160 188 158
f 189 162 163
f 190 189 163
f 190 163 156
f 191 190 156
f 187 191 156
f 191 187 188
f 191 188 192
f 192 188 160
f 164 192 160
f 193 192 164
f 164 165 193
f 193 165 194
f 196 195 189
f 195 162 189
f 195 167 162
f 196 189 190
f 199 198 197
f 169 170 197
f 198 169 197
f 200 169 198
f 165 169 194
f 194 169 200
f 203 202 201
f 171 172 201
f 172 203 201
f 172 204 203
f 172 167 195
f 172 195 204
f 205 199 197
f 197 170 205
f 170 206 205
f 170 173 206
f 201 202 207
f 207 202 208
f 207 174 171
f 207 171 201
f 177 210 209
f 206 177 209
f 173 177 206
f 210 211 209
f 207 208 179
f 208 178 179
f 208 212 178
f 207 179 174
f 181 213 182
f 182 213 214
f 215 182 214
f 183 182 215
f 177 183 210
f 183 216 210
f 183 215 216
f 210 216 211
f 212 217 178
f 178 217 184
f 184 218 185
f 217 218 184
f 185 219 186
f 218 219 185
f 181 186 213
f 186 220 213
f 186 219 220
f 213 220 214
f 221 190 191
f 192 222 191
f 191 222 221
f 193 223 192
f 192 223 222
f 194 223 193
f 225 224 196
f 196 224 195
f 196 190 221
f 226 196 221
f 225 196 226
f 227 198 199
f 221 228 226
f 228 221 222
f 198 227 200
f 229 200 227
f 200 229 223
f 228 223 229
f 223 228 222
f 200 223 194
f 231 230 203
f 203 230 202
f 232 203 204
f 232 231 203
f 204 195 224
f 204 224 232
f 205 227 199
f 205 206 227
f 206 229 227
f 206 233 229
f 230 208 202
f 234 208 230
f 235 233 206
f 235 206 209
f 209 211 235
f 235 211 236
f 234 212 208
f 237 212 234
f 214 238 215
f 239 216 215
f 239 215 238
f 236 211 240
f 211 239 240
f 239 241 240
f 211 216 239
f 241 242 240
f 237 243 212
f 212 243 217
f 243 245 244
f 218 243 244
f 217 243 218
f 246 219 218
f 246 218 244
f 219 246 247
f 248 219 247
f 220 219 248
f 214 220 238
f 220 249 238
f 220 248 249
f 238 249 239
f 239 249 250
f 239 250 241
f 241 250 251
f 241 251 242
f 245 252 244
f 244 252 246
f 246 252 253
f 246 253 247
f 256 255 254
f 254 257 256
f 258 224 225
f 226 259 225
f 225 259 258
f 228 260 226
f 226 260 259
f 229 260 228
f 263 262 261
f 263 261 255
f 255 261 254
f 261 230 254
f 230 231 254
f 264 257 254
f 231 264 254
f 232 264 231
f 232 224 258
f 265 232 258
f 264 232 265
f 265 258 259
f 265 259 266
f 266 259 260
f 266 260 267
f 260 229 267
f 229 268 267
f 229 233 268
f 261 262 269
f 269 262 270
f 269 234 230
f 269 230 261
f 271 268 233
f 271 233 235
f 235 236 271
f 271 236 272
f 270 273 269
f 234 269 273
f 274 234 273
f 237 234 274
f 275 272 236
f 275 236 240
f 277 276 242
f 276 240 242
f 276 275 240
f 277 278 276
f 243 237 279
f 237 280 279
f 237 274 280
f 279 245 243
f 247 281 248
f 282 249 248
f 282 248 281
f 283 250 249
f 283 249 282
f 284 251 250
f 284 250 283
f 277 242 251
f 284 277 251
f 285 277 284
f 278 277 286
f 277 287 286
f 277 285 287
f 289 288 287
f 287 288 286
f 289 290 288
f 280 291 279
f 279 291 245
f 291 252 245
f 291 292 252
f 252 293 253
f 292 293 252
f 247 253 281
f 253 294 281
f 253 293 294
f 281 294 282
f 282 294 295
f 282 295 283
f 283 295 296
f 298 297 296
f 297 283 296
f 297 284 283
f 284 299 285
f 284 297 299
f 301 287 300
f 287 299 300
f 287 285 299
f 287 301 289
f 289 301 302
f 289 302 290
f 298 303 297
f 297 303 299
f 299 303 304
f 299 304 300
f 307 306 305
f 309 308 305
f 305 308 307
f 309 310 308
f 312 311 256
f 256 311 255
f 256 257 312
f 312 257 313
f 316 315 314
f 318 317 314
f 314 317 316
f 317 318 306
f 318 305 306
f 318 319 305
f 321 309 320
f 309 319 320
f 309 305 319
f 309 321 310
f 323 322 263
f 263 322 262
f 263 255 311
f 263 311 323
f 324 313 257
f 324 257 264
f 325 264 265
f 325 324 264
f 266 314 315
f 325 266 315
f 265 266 325
f 314 266 267
f 314 267 318
f 318 267 268
f 326 318 268
f 319 318 326
f 320 319 327
f 327 319 326
f 329 270 328
f 270 322 328
f 270 262 322
f 330 329 328
f 271 326 268
f 271 272 326
f 272 327 326
f 272 331 327
f 329 273 270
f 274 273 329
f 330 274 329
f 332 274 330
f 333 331 272
f 333 272 275
f 334 275 276
f 334 333 275
f 336 335 278
f 335 276 278
f 335 334 276
f 336 337 335
f 332 280 274
f 338 280 332
f 286 336 278
f 339 337 336
f 286 339 336
f 288 339 286
f 341 340 290
f 340 288 290
f 340 339 288
f 341 342 340
f 338 343 280
f 280 343 291
f 291 344 292
f 343 344 291
f 344 346 345
f 293 344 345
f 292 344 293
f 347 294 293
f 347 293 345
f 294 347 348
f 349 294 348
f 295 294 349
f 349 351 350
f 296 349 350
f 295 349 296
f 350 298 296
f 300 352 301
f 353 302 301
f 353 301 352
f 341 290 302
f 353 341 302
f 354 341 353
f 342 341 355
f 355 341 354
f 346 356 345
f 345 356 347
f 347 356 357
f 347 357 348
f 350 351 358
f 358 351 359
f 360 303 298
f 350 360 298
f 358 360 350
f 303 360 361
f 362 303 361
f 304 303 362
f 300 304 352
f 304 363 352
f 304 362 363
f 352 363 353
f 353 363 364
f 353 364 354
f 354 364 365
f 354 365 355
f 359 366 358
f 358 366 360
f 360 366 367
f 360 367 361
f 370 369 368
f 306 307 368
f 307 370 368
f 307 371 370
f 372 307 308
f 372 371 307
f 308 310 372
f 372 310 373
f 374 311 312
f 313 374 312
f 376 375 316
f 316 375 315
f 317 368 369
f 376 317 369
f 316 317 376
f 368 317 306
f 320 377 321
f 373 310 378
f 310 377 378
f 377 379 378
f 310 321 377
f 379 380 378
f 381 322 323
f 382 381 323
f 382 323 311
f 383 382 311
f 374 383 311
f 383 374 313
f 324 383 313
f 384 383 324
f 385 324 325
f 385 384 324
f 325 315 375
f 325 375 385
f 387 386 377
f 320 387 377
f 327 387 320
f 377 386 379
f 379 386 388
f 379 388 380
f 381 328 322
f 330 328 381
f 382 330 381
f 389 330 382
f 331 387 327
f 331 390 387
f 389 332 330
f 391 332 389
f 392 390 331
f 392 331 333
f 393 333 334
f 393 392 333
f 395 393 394
f 393 335 394
f 393 334 335
f 337 394 335
f 397 338 396
f 338 391 396
f 338 332 391
f 399 398 397
f 399 397 396
f 400 398 399
f 401 395 394
f 401 394 337
f 339 401 337
f 402 401 339
f 403 339 340
f 403 402 339
f 405 404 342
f 404 340 342
f 404 403 340
f 405 406 404
f 397 343 338
f 343 397 344
f 344 397 398
f 346 344 398
f 400 346 398
f 407 346 400
f 348 408 349
f 408 351 349
f 355 409 405
f 355 405 342
f 406 405 410
f 410 405 409
f 407 411 346
f 346 411 356
f 356 412 357
f 411 412 356
f 357 412 348
f 412 413 348
f 413 408 348
f 413 412 414
f 413 359 351
f 413 351 408
f 361 415 362
f 416 363 362
f 416 362 415
f 363 416 417
f 418 363 417
f 364 363 418
f 418 420 419
f 365 418 419
f 364 418 365
f 419 421 365
f 365 421 355
f 421 422 355
f 422 409 355
f 409 422 410
f 414 423 413
f 413 423 359
f 423 366 359
f 423 424 366
f 366 425 367
f 424 425 366
f 361 367 415
f 367 426 415
f 367 425 426
f 415 426 416
f 416 426 427
f 416 427 417
f 420 428 419
f 419 428 421
f 430 429 370
f 370 429 369
f 432 430 431
f 430 371 431
f 430 370 371
f 372 433 371
f 371 433 431
f 373 433 372
f 435 434 376
f 376 434 375
f 376 369 429
f 376 429 435
f 436 432 431
f 436 431 433
f 436 433 437
f 437 433 373
f 378 437 373
f 438 437 378
f 378 380 438
f 438 380 439
f 441 440 383
f 383 440 382
f 442 383 384
f 442 441 383
f 443 384 385
f 443 442 384
f 385 375 434
f 385 434 443
f 387 444 386
f 445 388 386
f 445 386 444
f 445 446 388
f 446 380 388
f 446 439 380
f 440 389 382
f 447 389 440
f 449 448 444
f 387 449 444
f 390 449 387
f 444 448 445
f 445 448 450
f 445 450 446
f 447 391 389
f 451 391 447
f 452 449 390
f 452 390 392
f 454 452 453
f 452 393 453
f 452 392 393
f 395 453 393
f 396 391 455
f 391 456 455
f 391 451 456
f 457 399 396
f 457 396 455
f 457 400 399
f 458 454 453
f 458 453 395
f 401 458 395
f 459 458 401
f 460 401 402
f 460 459 401
f 461 402 403
f 461 460 402
f 462 403 404
f 462 461 403
f 464 463 406
f 463 404 406
f 463 462 404
f 464 465 463
f 456 466 455
f 455 466 457
f 457 466 467
f 400 457 467
f 468 400 467
f 407 400 468
f 470 469 464
f 406 470 464
f 410 470 406
f 464 469 465
f 468 471 407
f 407 471 411
f 411 472 412
f 471 472 411
f 474 473 414
f 412 474 414
f 472 474 412
f 476 475 473
f 476 473 474
f 477 475 476
f 417 478 418
f 478 420 418
f 480 479 422
f 480 422 421
f 410 422 470
f 470 422 479
f 473 423 414
f 423 473 424
f 424 473 475
f 477 481 475
f 481 424 475
f 481 425 424
f 425 482 426
f 481 482 425
f 426 483 427
f 482 483 426
f 417 427 478
f 427 484 478
f 427 483 484
f 478 484 420
f 484 428 420
f 484 485 428
f 421 428 480
f 480 428 485
f 486 429 430
f 432 486 430
f 487 434 435
f 488 487 435
f 488 435 429
f 489 488 429
f 486 489 429
f 489 486 432
f 436 489 432
f 490 489 436
f 492 490 491
f 490 437 491
f 490 436 437
f 438 493 437
f 437 493 491
f 439 493 438
f 494 440 441
f 494 441 495
f 441 496 495
f 441 442 496
f 497 442 443
f 497 496 442
f 443 434 487
f 498 443 487
f 497 443 498
f 498 487 488
f 499 492 491
f 499 491 493
f 499 493 500
f 493 439 500
f 439 501 500
f 439 446 501
f 502 447 494
f 494 447 440
f 494 495 503
f 494 503 502
f 449 504 448
f 448 504 505
f 506 448 505
f 450 448 506
f 446 450 501
f 501 450 506
f 508 507 502
f 507 447 502
f 507 451 447
f 508 502 503
f 452 504 449
f 452 454 504
f 454 505 504
f 454 509 505
f 512 511 510
f 514 513 510
f 510 513 512
f 514 515 513
f 507 456 451
f 516 456 507
f 517 509 454
f 517 454 458
f 518 458 459
f 518 517 458
f 519 459 460
f 519 518 459
f 520 460 461
f 520 519 460
f 462 510 511
f 520 462 511
f 461 462 520
f 510 462 463
f 510 463 514
f 522 521 465
f 465 521 463
f 521 515 463
f 515 514 463
f 522 523 521
f 516 524 456
f 456 524 466
f 524 526 525
f 467 524 525
f 466 524 467
f 525 468 467
f 529 528 527
f 530 527 528
f 470 531 469
f 531 532 469
f 469 532 465
f 532 533 465
f 533 522 465
f 522 533 523
f 526 534 525
f 525 534 468
f 534 471 468
f 534 535 471
f 471 536 472
f 535 536 471
f 472 537 474
f 536 537 472
f 527 476 529
f 476 537 529
f 476 474 537
f 539 538 477
f 539 477 476
f 530 539 476
f 527 530 476
f 541 540 538
f 541 538 539
f 543 542 540
f 543 540 541
f 545 544 542
f 545 542 543
f 547 546 544
f 547 544 545
f 479 480 546
f 547 479 546
f 548 479 547
f 470 479 531
f 479 549 531
f 479 548 549
f 531 549 532
f 538 481 477
f 481 538 482
f 482 538 540
f 482 540 483
f 483 540 542
f 483 542 484
f 484 542 544
f 484 544 485
f 485 544 546
f 485 546 480
f 550 488 489
f 490 551 489
f 489 551 550
f 492 551 490
f 553 552 496
f 496 552 495
f 554 496 497
f 554 553 496
f 555 497 498
f 555 554 497
f 498 488 550
f 556 498 550
f 555 498 556
f 558 557 556
f 550 558 556
f 551 558 550
f 499 559 492
f 559 551 492
f 559 558 551
f 500 560 499
f 499 560 559
f 501 560 500
f 552 503 495
f 561 503 552
f 562 557 558
f 564 563 562
f 558 564 562
f 559 564 558
f 505 564 506
f 564 560 506
f 564 559 560
f 506 560 501
f 565 507 508
f 566 565 508
f 503 566 508
f 561 566 503
f 567 563 564
f 564 505 567
f 505 568 567
f 505 509 568
f 570 569 512
f 512 569 511
f 571 512 513
f 571 570 512
f 513 515 571
f 571 515 572
f 573 516 565
f 565 516 507
f 565 566 574
f 565 574 573
f 575 568 509
f 575 509 517
f 576 517 518
f 576 575 517
f 577 518 519
f 577 576 518
f 578 519 520
f 578 577 519
f 520 511 569
f 520 569 578
f 579 572 515
f 579 515 521
f 521 523 579
f 579 523 580
f 582 524 581
f 524 516 581
f 581 516 573
f 583 581 573
f 573 574 583
f 524 582 526
f 585 584 528
f 585 528 529
f 530 528 584
f 530 584 586
f 589 588 587
f 590 587 588
f 593 592 591
f 595 594 591
f 595 591 592
f 597 596 594
f 597 594 595
f 533 532 596
f 597 533 596
f 598 533 597
f 523 533 580
f 580 533 598
f 581 599 582
f 599 601 600
f 599 600 534
f 582 599 534
f 526 582 534
f 602 535 534
f 602 534 600
f 535 602 603
f 604 535 603
f 536 535 604
f 536 605 537
f 604 605 536
f 529 537 585
f 585 537 605
f 586 606 530
f 530 606 539
f 587 541 589
f 541 606 589
f 541 539 606
f 590 607 587
f 607 541 587
f 607 543 541
f 543 608 545
f 607 608 543
f 591 547 593
f 547 608 593
f 547 545 608
f 547 591 548
f 548 591 594
f 548 594 549
f 549 594 596
f 549 596 532
f 601 609 600
f 600 609 602
f 602 609 610
f 602 610 603
f 611 552 553
f 554 612 553
f 553 612 611
f 555 613 554
f 554 613 612
f 556 614 555
f 555 614 613
f 557 614 556
f 615 561 611
f 611 561 552
f 612 617 616
f 615 612 616
f 611 612 615
f 617 612 613
f 617 613 618
f 618 613 614
f 618 614 619
f 621 619 620
f 620 619 562
f 619 614 562
f 614 557 562
f 563 620 562
f 622 566 615
f 615 566 561
f 615 616 623
f 615 623 622
f 624 621 620
f 626 624 625
f 625 624 567
f 624 620 567
f 620 563 567
f 568 625 567
f 628 627 570
f 570 627 569
f 629 570 571
f 629 628 570
f 571 572 629
f 629 572 630
f 631 574 622
f 622 574 566
f 622 623 632
f 622 632 631
f 633 626 625
f 633 625 568
f 575 633 568
f 634 633 575
f 636 634 635
f 634 576 635
f 634 575 576
f 635 576 637
f 576 638 637
f 576 577 638
f 639 577 578
f 639 638 577
f 578 569 627
f 578 627 639
f 640 630 572
f 640 572 579
f 642 641 580
f 641 579 580
f 641 640 579
f 642 643 641
f 644 581 583
f 645 644 583
f 645 583 574
f 646 645 574
f 631 646 574
f 646 631 632
f 649 648 647
f 651 650 647
f 651 647 648
f 584 585 650
f 651 584 650
f 652 584 651
f 654 653 586
f 584 654 586
f 652 654 584
f 588 589 653
f 654 588 653
f 655 588 654
f 635 656 590
f 655 635 590
f 588 655 590
f 636 635 655
f 635 637 657
f 635 657 656
f 659 658 592
f 659 592 593
f 592 660 595
f 658 660 592
f 595 661 597
f 660 661 595
f 597 662 598
f 661 662 597
f 580 598 642
f 598 663 642
f 598 662 663
f 642 663 643
f 644 599 581
f 665 664 601
f 665 601 599
f 645 665 599
f 644 645 599
f 667 666 664
f 667 664 665
f 666 667 649
f 666 649 647
f 603 666 647
f 604 603 647
f 604 647 605
f 605 647 650
f 605 650 585
f 653 606 586
f 606 653 589
f 656 607 590
f 657 668 656
f 668 607 656
f 668 608 607
f 593 608 659
f 659 608 668
f 664 609 601
f 609 664 610
f 610 664 666
f 610 666 603
f 669 616 617
f 618 670 617
f 617 670 669
f 619 671 618
f 618 671 670
f 621 671 619
f 672 623 669
f 669 623 616
f 673 669 670
f 672 669 673
f 674 670 671
f 673 670 674
f 624 675 621
f 675 671 621
f 675 674 671
f 626 675 624
f 677 676 628
f 628 676 627
f 678 628 629
f 678 677 628
f 680 679 630
f 679 629 630
f 679 678 629
f 680 681 679
f 682 632 672
f 672 632 623
f 683 672 673
f 682 672 683
f 684 673 674
f 683 673 684
f 685 674 675
f 684 674 685
f 633 686 626
f 686 675 626
f 686 685 675
f 634 687 633
f 633 687 686
f 636 687 634
f 689 688 638
f 638 688 637
f 690 638 639
f 690 689 638
f 639 627 676
f 639 676 690
f 640 680 630
f 691 681 680
f 640 691 680
f 641 691 640
f 641 643 691
f 691 643 692
f 693 645 646
f 632 682 646
f 682 693 646
f 682 694 693
f 649 694 648
f 694 683 648
f 694 682 683
f 648 683 651
f 651 683 684
f 651 684 652
f 652 684 685
f 652 685 654
f 654 685 686
f 654 686 655
f 655 686 687
f 655 687 636
f 696 657 695
f 657 688 695
f 657 637 688
f 658 659 696
f 695 658 696
f 697 658 695
f 658 698 660
f 697 698 658
f 660 699 661
f 698 699 660
f 661 700 662
f 699 700 661
f 662 701 663
f 700 701 662
f 643 663 692
f 692 663 701
f 693 665 645
f 665 693 667
f 667 693 694
f 667 694 649
f 696 668 657
f 668 696 659
f 703 702 677
f 677 702 676
f 704 677 678
f 704 703 677
f 705 678 679
f 705 704 678
f 679 681 705
f 705 681 706
f 707 688 689
f 707 689 708
f 689 709 708
f 689 690 709
f 690 676 702
f 690 702 709
f 710 706 681
f 710 681 691
f 712 711 692
f 711 691 692
f 711 710 691
f 712 713 711
f 707 695 688
f 708 714 707
f 714 695 707
f 714 697 695
f 697 715 698
f 714 715 697
f 698 716 699
f 715 716 698
f 699 717 700
f 716 717 699
f 700 718 701
f 717 718 700
f 692 701 712
f 701 719 712
f 701 718 719
f 712 719 713
f 722 721 720
f 720 723 722
f 726 725 724
f 726 724 721
f 724 720 721
f 724 727 720
f 723 720 728
f 728 720 727
f 729 702 703
f 725 730 724
f 730 703 724
f 703 704 724
f 703 730 729
f 724 704 705
f 724 705 727
f 732 731 706
f 706 731 705
f 731 728 705
f 728 727 705
f 732 733 731
f 734 708 709
f 702 729 709
f 729 734 709
f 729 735 734
f 729 730 736
f 729 736 735
f 710 732 706
f 737 733 732
f 710 737 732
f 711 737 710
f 711 713 737
f 737 713 738
f 734 714 708
f 714 734 715
f 715 734 735
f 736 739 735
f 739 715 735
f 739 716 715
f 716 740 717
f 739 740 716
f 717 741 718
f 740 741 717
f 718 742 719
f 741 742 718
f 713 719 738
f 738 719 742
f 744 743 722
f 722 743 721
f 722 723 744
f 744 723 745
f 746 725 726
f 747 746 726
f 721 747 726
f 743 747 721
f 728 745 723
f 728 748 745
f 749 730 746
f 746 730 725
f 746 747 750
f 746 750 749
f 751 748 728
f 751 728 731
f 731 733 751
f 751 733 752
f 753 736 749
f 749 736 730
f 749 750 754
f 755 749 754
f 753 749 755
f 756 755 754
f 757 752 733
f 757 733 737
f 737 738 757
f 757 738 758
f 753 739 736
f 739 753 740
f 740 753 755
f 756 759 755
f 759 740 755
f 759 741 740
f 741 760 742
f 759 760 741
f 738 742 758
f 758 742 760
f 761 743 744
f 745 761 744
f 762 747 761
f 761 747 743
f 765 764 763
f 745 748 761
f 762 761 748
f 763 766 765
f 767 750 762
f 762 750 747
f 768 763 764
f 763 768 751
f 767 751 768
f 751 767 748
f 762 748 767
f 770 769 752
f 752 769 751
f 769 766 751
f 766 763 751
f 770 771 769
f 767 754 750
f 773 772 756
f 773 756 754
f 768 773 754
f 767 768 754
f 770 774 757
f 774 770 773
f 752 773 770
f 773 752 772
f 757 772 752
f 772 757 774
f 757 758 770
f 758 771 770
f 758 775 771
f 772 759 756
f 774 776 772
f 776 759 772
f 776 760 759
f 758 760 775
f 775 760 776
f 777 764 765
f 766 777 765
f 778 768 777
f 777 768 764
f 769 779 766
f 779 777 766
f 779 778 777
f 771 779 769
f 778 773 768
f 773 778 774
f 778 780 774
f 778 779 780
f 775 780 771
f 771 780 779
f 780 776 774
f 776 780 775
