v 20.7 48.0 15.0
v 21.0 48.0 14.7
v 21.0 47.7 15.0
v 21.0 47.5 16.0
v 20.6 48.0 16.0
v 21.0 47.7 17.0
v 20.8 48.0 17.0
v 21.0 48.0 17.2
v 20.5 49.0 15.0
v 21.0 49.0 14.4
v 20.1 49.0 16.0
v 20.6 49.0 17.0
v 21.0 49.0 17.4
v 20.7 50.0 14.0
v 21.0 50.0 13.6
v 21.0 49.5 14.0
v 20.5 50.0 15.0
v 20.4 50.0 16.0
v 20.5 50.0 17.0
v 21.0 50.0 17.8
v 20.8 51.0 14.0
v 21.0 51.0 13.7
v 20.6 51.0 15.0
v 20.6 51.0 16.0
v 20.7 51.0 17.0
v 21.0 51.0 17.4
v 21.0 51.3 14.0
v 21.0 51.5 15.0
v 21.0 51.6 16.0
v 21.0 52.0 17.0
v 21.0 52.0 17.0
v 21.0 52.0 17.0
v 21.0 52.0 17.0
v 21.9 46.0 28.0
v 22.0 46.0 27.9
v 22.0 45.9 28.0
v 22.0 46.0 28.1
v 21.8 47.0 14.0
v 22.0 47.0 13.8
v 22.0 46.8 14.0
v 22.0 46.6 15.0
v 21.6 47.0 15.0
v 22.0 46.6 16.0
v 21.5 47.0 16.0
v 22.0 46.9 17.0
v 21.9 47.0 17.0
v 22.0 47.0 17.1
v 22.0 47.0 28.0
v 22.0 47.0 28.0
v 22.0 47.0 28.0
v 21.5 48.0 14.0
v 22.0 48.0 13.4
v 22.0 48.0 17.5
v 22.0 47.0 28.0
v 21.7 49.0 13.0
v 22.0 49.0 12.7
v 22.0 48.6 13.0
v 21.3 49.0 14.0
v 22.0 49.0 17.5
v 21.5 50.0 13.0
v 22.0 50.0 12.5
v 22.0 50.0 17.6
v 21.6 51.0 13.0
v 22.0 51.0 12.6
v 22.0 51.0 17.4
v 22.0 51.5 13.0
v 21.6 52.0 14.0
v 22.0 52.0 13.5
v 21.4 52.0 15.0
v 21.4 52.0 16.0
v 22.0 52.0 17.2
v 22.0 52.5 14.0
v 21.9 53.0 15.0
v 22.0 53.0 14.9
v 22.0 53.0 15.1
v 22.0 52.5 16.0
v 22.0 52.2 17.0
v 22.0 53.1 15.0
v 22.8 43.0 25.0
v 23.0 43.0 24.7
v 23.0 42.8 25.0
v 23.0 42.7 26.0
v 22.7 43.0 26.0
v 23.0 42.8 27.0
v 22.8 43.0 27.0
v 23.0 43.0 27.4
v 22.6 44.0 25.0
v 23.0 44.0 24.6
v 22.5 44.0 26.0
v 22.5 44.0 27.0
v 23.0 43.4 28.0
v 22.6 44.0 28.0
v 23.0 43.7 29.0
v 22.8 44.0 29.0
v 23.0 44.0 29.2
v 22.6 45.0 25.0
v 23.0 45.0 24.5
v 22.5 45.0 26.0
v 22.5 45.0 27.0
v 22.4 45.0 28.0
v 22.6 45.0 29.0
v 23.0 45.0 29.3
v 22.8 46.0 24.0
v 23.0 46.0 23.8
v 23.0 45.7 24.0
v 22.5 46.0 25.0
v 22.5 46.0 26.0
v 22.4 46.0 27.0
v 22.7 46.0 29.0
v 23.0 46.0 29.3
v 23.0 47.0 13.6
v 23.0 46.6 14.0
v 23.0 46.4 15.0
v 23.0 46.2 16.0
v 22.1 47.0 17.0
v 23.0 47.0 16.5
v 22.7 47.0 24.0
v 23.0 47.0 23.7
v 22.5 47.0 25.0
v 22.5 47.0 26.0
v 22.4 47.0 27.0
v 23.0 46.4 29.0
v 23.0 47.0 28.7
v 22.7 48.0 13.0
v 23.0 48.0 12.8
v 23.0 47.8 13.0
v 23.0 47.6 17.0
v 23.0 48.0 17.3
v 22.7 48.0 24.0
v 23.0 48.0 23.7
v 22.5 48.0 25.0
v 22.5 48.0 26.0
v 22.5 48.0 27.0
v 22.6 48.0 28.0
v 23.0 48.0 28.4
v 23.0 49.0 12.5
v 23.0 49.0 17.5
v 22.7 49.0 24.0
v 23.0 49.0 23.7
v 22.5 49.0 25.0
v 22.5 49.0 26.0
v 22.5 49.0 27.0
v 22.7 49.0 28.0
v 23.0 49.0 28.3
v 22.8 50.0 12.0
v 23.0 50.0 11.9
v 23.0 49.8 12.0
v 23.0 50.0 17.4
v 22.8 50.0 24.0
v 23.0 50.0 23.8
v 22.5 50.0 25.0
v 22.5 50.0 26.0
v 22.5 50.0 27.0
v 22.6 50.0 28.0
v 23.0 50.0 28.4
v 22.6 51.0 12.0
v 23.0 51.0 11.7
v 22.8 51.0 17.0
v 23.0 50.8 17.0
v 23.0 51.0 16.9
v 23.0 50.4 24.0
v 22.8 51.0 25.0
v 23.0 51.0 24.6
v 22.6 51.0 26.0
v 22.5 51.0 27.0
v 22.6 51.0 28.0
v 23.0 51.0 28.4
v 22.6 52.0 12.0
v 23.0 52.0 11.6
v 22.3 52.0 13.0
v 22.2 52.0 17.0
v 23.0 52.0 16.4
v 23.0 51.2 25.0
v 23.0 51.4 26.0
v 22.9 52.0 27.0
v 23.0 52.0 26.9
v 22.8 52.0 28.0
v 23.0 52.0 28.3
v 22.8 53.0 12.0
v 23.0 53.0 11.8
v 22.6 53.0 13.0
v 22.4 53.0 14.0
v 23.0 52.3 16.0
v 23.0 53.0 15.3
v 23.0 52.1 27.0
v 23.0 52.3 28.0
v 23.0 53.2 12.0
v 23.0 53.4 13.0
v 23.0 54.0 14.0
v 23.0 54.0 14.0
v 23.0 53.3 15.0
v 23.0 54.0 14.0
v 23.0 54.0 14.0
v 23.9 43.0 24.0
v 24.0 43.0 23.9
v 24.0 42.9 24.0
v 24.0 42.6 25.0
v 24.0 42.5 26.0
v 24.0 42.5 27.0
v 24.0 42.6 28.0
v 23.4 43.0 28.0
v 24.0 42.9 29.0
v 23.9 43.0 29.0
v 24.0 43.0 29.1
v 23.6 44.0 24.0
v 24.0 44.0 23.6
v 24.0 44.0 29.5
v 24.0 44.7 24.0
v 24.0 45.0 24.1
v 24.0 45.0 29.5
v 23.9 46.0 15.0
v 24.0 46.0 14.9
v 24.0 45.9 15.0
v 24.0 46.0 15.1
v 24.0 46.0 23.7
v 24.0 45.3 24.0
v 24.0 46.0 29.4
v 24.0 47.0 13.6
v 24.0 46.6 14.0
v 24.0 47.0 15.7
v 23.6 47.0 16.0
v 24.0 47.0 23.6
v 23.8 47.0 29.0
v 24.0 47.0 29.1
v 23.3 48.0 13.0
v 24.0 48.0 13.3
v 24.0 47.4 16.0
v 23.4 48.0 17.0
v 24.0 48.0 16.5
v 24.0 48.0 23.6
v 24.0 47.2 29.0
v 24.0 48.0 28.6
v 24.0 49.0 12.7
v 24.0 48.5 13.0
v 24.0 48.6 17.0
v 24.0 49.0 17.3
v 24.0 49.0 23.5
v 24.0 49.0 28.5
v 23.2 50.0 12.0
v 24.0 50.0 12.3
v 24.0 50.0 17.5
v 24.0 50.0 23.5
v 24.0 50.0 28.6
v 24.0 51.0 11.7
v 24.0 50.5 12.0
v 23.3 51.0 17.0
v 24.0 51.0 17.3
v 23.6 51.0 24.0
v 24.0 51.0 23.8
v 24.0 50.6 29.0
v 23.7 51.0 29.0
v 24.0 51.0 29.3
v 24.0 52.0 11.5
v 23.5 52.0 16.0
v 24.0 51.7 16.0
v 24.0 52.0 15.2
v 24.0 51.3 17.0
v 24.0 51.3 24.0
v 24.0 51.6 25.0
v 24.0 51.7 26.0
v 23.8 52.0 27.0
v 24.0 52.0 27.0
v 24.0 52.0 27.0
v 23.5 52.0 29.0
v 24.0 52.0 29.6
v 24.0 53.0 11.8
v 23.5 53.0 15.0
v 24.0 52.2 15.0
v 24.0 53.0 14.7
v 24.0 53.0 27.6
v 23.6 53.0 28.0
v 23.5 53.0 29.0
v 24.0 52.6 30.0
v 23.8 53.0 30.0
v 24.0 53.0 30.3
v 24.0 53.2 12.0
v 24.0 53.6 13.0
v 24.0 54.0 13.7
v 24.0 54.0 14.2
v 24.0 53.5 28.0
v 23.6 54.0 29.0
v 24.0 54.0 28.4
v 23.6 54.0 30.0
v 24.0 54.0 30.4
v 24.0 54.2 14.0
v 23.8 55.0 29.0
v 24.0 55.0 28.8
v 23.8 55.0 30.0
v 24.0 55.0 30.2
v 24.0 55.2 29.0
v 24.0 55.2 30.0
v 24.9 41.0 21.0
v 25.0 41.0 20.8
v 25.0 40.8 21.0
v 25.0 41.0 21.3
v 24.9 42.0 20.0
v 25.0 42.0 19.9
v 25.0 41.8 20.0
v 24.6 42.0 21.0
v 25.0 41.6 22.0
v 24.7 42.0 22.0
v 25.0 42.0 22.3
v 25.0 42.1 20.0
v 24.7 43.0 21.0
v 25.0 43.0 20.6
v 24.6 43.0 22.0
v 25.0 42.8 23.0
v 24.8 43.0 23.0
v 24.1 43.0 24.0
v 25.0 43.0 23.3
v 24.6 43.0 25.0
v 25.0 43.0 25.6
v 25.0 42.8 26.0
v 25.0 42.7 27.0
v 25.0 42.8 28.0
v 24.1 43.0 29.0
v 25.0 43.0 28.3
v 25.0 43.4 21.0
v 24.7 44.0 22.0
v 25.0 44.0 21.6
v 24.6 44.0 23.0
v 25.0 43.4 24.0
v 25.0 43.4 25.0
v 25.0 43.7 29.0
v 25.0 44.0 29.2
v 25.0 44.3 22.0
v 25.0 44.6 23.0
v 24.3 45.0 24.0
v 25.0 45.0 23.5
v 25.0 45.0 29.2
v 24.7 46.0 15.0
v 24.5 46.0 24.0
v 25.0 45.6 24.0
v 25.0 46.0 24.3
v 24.6 46.0 29.0
v 25.0 45.4 29.0
v 25.0 46.0 28.6
v 25.0 47.0 13.7
v 25.0 46.6 14.0
v 25.0 46.1 15.0
v 25.0 47.0 15.4
v 24.5 47.0 24.0
v 25.0 47.0 24.4
v 24.2 47.0 29.0
v 25.0 47.0 28.5
v 25.0 48.0 13.5
v 24.5 48.0 16.0
v 25.0 48.0 15.6
v 24.6 48.0 24.0
v 25.0 48.0 24.3
v 25.0 48.0 28.4
v 24.5 49.0 13.0
v 25.0 49.0 13.3
v 25.0 48.5 16.0
v 24.4 49.0 17.0
v 25.0 49.0 16.5
v 25.0 49.0 23.7
v 25.0 48.5 24.0
v 25.0 49.0 28.4
v 25.0 50.0 12.7
v 25.0 49.5 13.0
v 25.0 49.8 17.0
v 25.0 50.0 18.0
v 25.0 50.0 18.0
v 25.0 50.0 18.0
v 25.0 50.0 23.4
v 25.0 50.0 28.5
v 24.5 51.0 12.0
v 25.0 51.0 12.4
v 24.8 51.0 18.0
v 25.0 51.0 18.2
v 25.0 51.0 23.5
v 25.0 50.5 29.0
v 25.0 51.0 29.5
v 25.0 52.0 11.9
v 25.0 51.8 12.0
v 24.5 52.0 16.0
v 25.0 52.0 16.5
v 25.0 51.6 17.0
v 25.0 51.2 18.0
v 25.0 51.6 24.0
v 24.6 52.0 25.0
v 25.0 52.0 24.5
v 24.3 52.0 26.0
v 24.0 52.0 27.0
v 25.0 51.7 30.0
v 24.6 52.0 30.0
v 25.0 52.0 30.3
v 25.0 52.2 12.0
v 24.4 53.0 12.0
v 25.0 53.0 12.6
v 24.7 53.0 15.0
v 25.0 53.0 15.2
v 25.0 52.4 16.0
v 25.0 52.5 25.0
v 24.7 53.0 26.0
v 25.0 53.0 25.6
v 24.5 53.0 27.0
v 25.0 53.0 30.6
v 25.0 53.4 13.0
v 25.0 54.0 14.0
v 25.0 53.1 15.0
v 25.0 54.0 14.0
v 25.0 53.4 26.0
v 25.0 53.6 27.0
v 24.5 54.0 28.0
v 25.0 54.0 27.4
v 25.0 53.8 31.0
v 24.8 54.0 31.0
v 25.0 54.0 31.1
v 25.0 54.0 14.0
v 25.0 54.6 28.0
v 25.0 55.0 28.3
v 25.0 54.2 31.0
v 25.0 55.0 30.7
v 25.0 55.6 29.0
v 24.8 56.0 30.0
v 25.0 56.0 29.7
v 25.0 56.0 30.2
v 25.0 56.2 30.0
v 25.7 40.0 21.0
v 26.0 40.0 20.6
v 26.0 39.7 21.0
v 26.0 39.7 22.0
v 25.7 40.0 22.0
v 26.0 40.0 22.3
v 25.5 41.0 20.0
v 26.0 41.0 19.5
v 26.0 40.5 20.0
v 25.4 41.0 22.0
v 26.0 41.0 22.5
v 25.8 42.0 19.0
v 26.0 42.0 18.8
v 26.0 41.7 19.0
v 26.0 42.0 22.7
v 26.0 42.2 19.0
v 26.0 43.0 20.0
v 26.0 43.0 20.0
v 25.9 43.0 23.0
v 26.0 43.0 23.0
v 25.3 43.0 26.0
v 25.4 43.0 27.0
v 25.2 43.0 28.0
v 25.9 44.0 20.0
v 26.0 44.0 19.9
v 26.0 43.3 20.0
v 25.4 44.0 21.0
v 26.0 43.0 23.0
v 26.0 43.4 24.0
v 25.9 44.0 25.0
v 26.0 44.0 24.9
v 25.5 44.0 26.0
v 25.5 44.0 27.0
v 25.5 44.0 28.0
v 25.2 44.0 29.0
v 26.0 44.1 20.0
v 26.0 44.5 21.0
v 25.7 45.0 22.0
v 26.0 45.0 21.6
v 25.4 45.0 23.0
v 26.0 44.1 25.0
v 26.0 45.0 25.7
v 25.8 45.0 26.0
v 25.5 45.0 27.0
v 25.5 45.0 28.0
v 25.2 45.0 29.0
v 26.0 45.3 22.0
v 26.0 45.5 23.0
v 26.0 45.7 24.0
v 26.0 46.0 24.3
v 26.0 45.3 26.0
v 26.0 46.0 26.6
v 25.6 46.0 27.0
v 25.4 46.0 28.0
v 26.0 47.0 14.0
v 26.0 47.0 14.0
v 25.4 47.0 15.0
v 26.0 47.0 14.0
v 26.0 47.0 24.4
v 25.8 47.0 27.0
v 26.0 47.0 26.8
v 25.4 47.0 28.0
v 26.0 48.0 13.6
v 25.9 48.0 15.0
v 26.0 48.0 14.9
v 26.0 48.0 24.5
v 26.0 47.4 27.0
v 26.0 48.0 27.4
v 25.5 48.0 28.0
v 26.0 49.0 13.5
v 26.0 48.1 15.0
v 25.8 49.0 16.0
v 26.0 49.0 15.9
v 25.8 49.0 18.0
v 26.0 49.0 17.8
v 26.0 48.8 18.0
v 26.0 48.7 19.0
v 25.7 49.0 19.0
v 26.0 49.0 19.4
v 25.5 49.0 24.0
v 26.0 49.0 24.3
v 25.5 49.0 28.0
v 26.0 49.0 27.6
v 25.4 50.0 13.0
v 26.0 50.0 13.5
v 26.0 49.1 16.0
v 26.0 49.6 17.0
v 25.5 50.0 19.0
v 26.0 49.5 20.0
v 25.7 50.0 20.0
v 26.0 50.0 20.4
v 26.0 50.0 23.0
v 26.0 49.4 24.0
v 25.7 50.0 28.0
v 26.0 50.0 27.8
v 25.6 51.0 13.0
v 26.0 51.0 13.4
v 25.6 51.0 19.0
v 25.8 51.0 20.0
v 26.0 51.0 20.3
v 25.7 51.0 23.0
v 26.0 51.0 22.8
v 26.0 50.1 23.0
v 26.0 50.2 28.0
v 26.0 50.7 29.0
v 26.0 51.0 29.3
v 25.2 52.0 12.0
v 26.0 52.0 12.9
v 26.0 51.8 13.0
v 25.6 52.0 17.0
v 26.0 52.0 17.4
v 26.0 51.5 18.0
v 26.0 51.5 19.0
v 26.0 51.3 20.0
v 25.9 52.0 23.0
v 26.0 52.0 22.9
v 25.4 52.0 24.0
v 26.0 51.7 30.0
v 26.0 52.0 30.2
v 25.4 53.0 13.0
v 26.0 52.1 13.0
v 25.6 53.0 14.0
v 26.0 52.5 14.0
v 25.2 53.0 15.0
v 26.0 52.5 15.0
v 26.0 52.4 16.0
v 26.0 52.2 17.0
v 26.0 52.1 23.0
v 26.0 52.5 24.0
v 25.4 53.0 25.0
v 26.0 53.0 24.5
v 26.0 53.0 30.5
v 25.0 54.0 14.0
v 25.8 54.0 25.0
v 26.0 54.0 24.8
v 25.5 54.0 26.0
v 25.3 54.0 27.0
v 26.0 53.7 31.0
v 26.0 54.0 31.2
v 26.0 54.2 25.0
v 26.0 54.6 26.0
v 25.7 55.0 27.0
v 26.0 55.0 26.5
v 25.3 55.0 28.0
v 25.5 55.0 31.0
v 26.0 55.0 31.3
v 26.0 55.4 27.0
v 25.7 56.0 28.0
v 26.0 56.0 27.6
v 25.4 56.0 29.0
v 25.7 56.0 31.0
v 26.0 56.0 31.3
v 26.0 56.3 28.0
v 26.0 56.6 29.0
v 25.7 57.0 30.0
v 26.0 57.0 29.5
v 25.7 57.0 31.0
v 26.0 57.0 31.4
v 26.0 57.4 30.0
v 26.0 57.4 31.0
v 26.0 57.8 32.0
v 25.9 58.0 32.0
v 26.0 58.0 31.8
v 26.0 58.0 32.7
v 26.0 58.1 32.0
v 26.9 39.0 22.0
v 27.0 39.0 21.9
v 27.0 38.9 22.0
v 27.0 38.8 23.0
v 26.8 39.0 23.0
v 27.0 39.0 23.9
v 27.0 40.0 19.0
v 27.0 40.0 19.0
v 27.0 40.0 19.0
v 27.0 39.6 20.0
v 26.5 40.0 20.0
v 27.0 39.4 21.0
v 26.4 40.0 23.0
v 27.0 39.1 24.0
v 26.7 40.0 24.0
v 27.0 40.0 24.4
v 26.4 41.0 19.0
v 27.0 41.0 18.6
v 26.4 41.0 23.0
v 26.6 41.0 24.0
v 27.0 41.0 24.6
v 26.9 42.0 18.0
v 27.0 42.0 17.9
v 27.0 41.9 18.0
v 26.3 42.0 23.0
v 26.5 42.0 24.0
v 27.0 41.6 25.0
v 26.7 42.0 25.0
v 27.0 42.0 25.3
v 26.8 43.0 18.0
v 27.0 43.0 17.8
v 26.4 43.0 19.0
v 26.0 43.0 20.0
v 26.0 43.0 23.0
v 26.3 43.0 24.0
v 26.5 43.0 25.0
v 27.0 42.9 26.0
v 26.9 43.0 26.0
v 27.0 43.0 26.1
v 27.0 43.3 18.0
v 26.7 44.0 19.0
v 27.0 44.0 18.6
v 26.1 44.0 25.0
v 27.0 44.0 25.7
v 27.0 43.3 26.0
v 27.0 44.4 19.0
v 27.0 44.6 20.0
v 27.0 44.8 21.0
v 27.0 45.0 21.2
v 27.0 45.0 25.8
v 26.6 46.0 22.0
v 27.0 46.0 21.6
v 26.5 46.0 23.0
v 26.6 46.0 24.0
v 27.0 45.3 26.0
v 27.0 46.0 26.4
v 26.0 47.0 14.0
v 27.0 46.5 22.0
v 26.7 47.0 23.0
v 27.0 47.0 22.5
v 26.5 47.0 24.0
v 27.0 47.0 26.5
v 27.0 48.0 13.8
v 27.0 47.7 14.0
v 27.0 47.5 15.0
v 26.1 48.0 15.0
v 27.0 47.5 16.0
v 26.6 48.0 16.0
v 27.0 47.6 17.0
v 26.7 48.0 17.0
v 27.0 47.5 18.0
v 26.5 48.0 18.0
v 27.0 47.5 19.0
v 26.5 48.0 19.0
v 27.0 47.5 20.0
v 26.6 48.0 20.0
v 27.0 47.6 21.0
v 26.7 48.0 21.0
v 27.0 48.0 21.4
v 27.0 47.4 23.0
v 27.0 47.7 24.0
v 27.0 48.0 24.2
v 26.6 48.0 27.0
v 27.0 48.0 26.7
v 27.0 49.0 13.7
v 26.1 49.0 16.0
v 27.0 49.0 17.0
v 26.3 49.0 20.0
v 26.6 49.0 21.0
v 27.0 49.0 21.5
v 27.0 49.0 24.3
v 27.0 48.4 27.0
v 27.0 49.0 27.4
v 27.0 49.4 14.0
v 26.6 50.0 14.0
v 27.0 50.0 14.5
v 26.5 50.0 21.0
v 27.0 50.0 21.6
v 26.6 50.0 24.0
v 27.0 50.0 24.3
v 27.0 50.0 27.7
v 26.4 51.0 14.0
v 27.0 50.6 15.0
v 26.7 51.0 15.0
v 27.0 51.0 15.5
v 26.5 51.0 21.0
v 27.0 51.0 21.6
v 26.4 51.0 23.0
v 26.9 51.0 24.0
v 27.0 51.0 24.1
v 27.0 50.3 28.0
v 26.4 51.0 29.0
v 27.0 51.0 28.5
v 26.1 52.0 13.0
v 26.4 52.0 14.0
v 26.4 52.0 15.0
v 27.0 51.5 16.0
v 26.5 52.0 16.0
v 27.0 52.0 16.7
v 27.0 51.8 18.0
v 27.0 52.0 17.5
v 26.6 52.0 19.0
v 27.0 52.0 18.3
v 26.5 52.0 20.0
v 26.7 52.0 21.0
v 27.0 52.0 21.4
v 27.0 52.0 22.6
v 27.0 51.5 23.0
v 27.0 51.2 24.0
v 26.9 52.0 29.0
v 27.0 52.0 28.9
v 26.2 52.0 30.0
v 27.0 52.1 17.0
v 27.0 52.3 19.0
v 27.0 52.5 20.0
v 27.0 52.3 21.0
v 27.0 52.3 23.0
v 27.0 52.7 24.0
v 27.0 53.0 24.2
v 27.0 52.1 29.0
v 27.0 53.0 29.8
v 26.8 53.0 30.0
v 27.0 54.0 24.5
v 27.0 53.2 30.0
v 26.4 54.0 31.0
v 27.0 54.0 30.6
v 27.0 54.6 25.0
v 26.5 55.0 26.0
v 27.0 55.0 25.5
v 26.5 55.0 31.0
v 27.0 55.0 30.8
v 27.0 55.5 26.0
v 26.5 56.0 27.0
v 27.0 56.0 26.5
v 26.9 56.0 31.0
v 27.0 56.0 31.0
v 27.0 56.4 27.0
v 27.0 56.8 28.0
v 26.4 57.0 29.0
v 27.0 57.0 28.3
v 27.0 56.0 31.0
v 27.0 56.7 32.0
v 26.5 57.0 32.0
v 27.0 57.0 32.5
v 26.8 58.0 29.0
v 27.0 58.0 28.7
v 26.5 58.0 30.0
v 26.4 58.0 31.0
v 27.0 57.5 33.0
v 26.1 58.0 33.0
v 27.0 58.0 33.7
v 27.0 58.2 29.0
v 27.0 58.4 30.0
v 27.0 58.6 31.0
v 26.9 59.0 32.0
v 27.0 59.0 31.8
v 27.0 59.0 32.2
v 27.0 58.4 33.0
v 27.0 59.1 32.0
v 27.1 39.0 22.0
v 27.3 39.0 23.0
v 27.0 40.0 19.0
v 28.0 40.0 19.4
v 28.0 39.6 20.0
v 28.0 39.5 21.0
v 28.0 39.4 22.0
v 28.0 39.5 23.0
v 28.0 39.6 24.0
v 28.0 40.0 24.9
v 28.0 41.0 18.6
v 28.0 40.4 19.0
v 28.0 40.1 25.0
v 27.6 41.0 25.0
v 28.0 41.0 25.2
v 27.2 42.0 18.0
v 28.0 42.0 18.3
v 28.0 42.0 25.4
v 28.0 43.0 17.7
v 28.0 42.5 18.0
v 28.0 42.6 26.0
v 28.0 43.0 26.9
v 27.6 44.0 18.0
v 28.0 44.0 17.7
v 27.3 44.0 26.0
v 28.0 43.2 27.0
v 27.8 44.0 27.0
v 28.0 44.0 27.2
v 28.0 44.7 18.0
v 27.5 45.0 19.0
v 28.0 45.0 18.2
v 27.4 45.0 20.0
v 27.2 45.0 21.0
v 27.2 45.0 26.0
v 28.0 45.0 27.0
v 28.0 45.0 27.0
v 27.8 46.0 17.0
v 28.0 46.0 16.6
v 28.0 45.7 17.0
v 28.0 45.2 18.0
v 27.6 46.0 18.0
v 27.5 46.0 19.0
v 27.5 46.0 20.0
v 27.4 46.0 21.0
v 28.0 45.0 27.0
v 28.0 46.0 26.6
v 27.9 47.0 15.0
v 28.0 47.0 15.0
v 28.0 47.0 15.0
v 28.0 46.5 16.0
v 27.5 47.0 16.0
v 27.5 47.0 17.0
v 27.4 47.0 18.0
v 27.4 47.0 19.0
v 27.4 47.0 20.0
v 27.4 47.0 21.0
v 27.3 47.0 22.0
v 28.0 47.0 26.5
v 27.3 48.0 14.0
v 28.0 48.0 14.6
v 27.4 48.0 22.0
v 27.4 48.0 23.0
v 27.2 48.0 24.0
v 28.0 48.0 26.6
v 27.3 49.0 14.0
v 28.0 49.0 14.6
v 27.4 49.0 22.0
v 27.5 49.0 23.0
v 27.4 49.0 24.0
v 28.0 48.6 27.0
v 28.0 49.0 27.4
v 27.5 50.0 15.0
v 28.0 49.5 15.0
v 28.0 50.0 15.4
v 27.4 50.0 22.0
v 27.5 50.0 23.0
v 28.0 50.0 24.0
v 28.0 50.0 24.0
v 28.0 50.0 24.0
v 28.0 49.6 28.0
v 27.5 50.0 28.0
v 28.0 50.0 28.4
v 27.5 51.0 16.0
v 28.0 50.6 16.0
v 28.0 51.0 16.4
v 27.3 51.0 22.0
v 27.3 51.0 23.0
v 28.0 50.1 24.0
v 27.7 51.0 24.0
v 28.0 51.0 28.7
v 27.4 52.0 17.0
v 28.0 51.7 17.0
v 27.3 52.0 18.0
v 28.0 52.0 17.4
v 27.4 52.0 22.0
v 28.0 51.4 29.0
v 27.1 52.0 29.0
v 28.0 52.0 29.5
v 28.0 52.4 18.0
v 28.0 52.7 19.0
v 27.6 53.0 20.0
v 28.0 53.0 19.5
v 27.7 53.0 21.0
v 28.0 53.0 21.5
v 28.0 52.7 22.0
v 28.0 52.8 23.0
v 27.3 53.0 24.0
v 28.0 53.0 23.3
v 28.0 52.5 30.0
v 27.2 53.0 30.0
v 28.0 53.0 30.5
v 28.0 53.3 20.0
v 28.0 53.3 21.0
v 27.6 54.0 24.0
v 28.0 54.0 23.6
v 28.0 53.6 31.0
v 27.5 54.0 31.0
v 28.0 54.0 31.3
v 28.0 54.5 24.0
v 27.5 55.0 25.0
v 28.0 55.0 24.5
v 27.3 55.0 31.0
v 28.0 55.0 31.5
v 28.0 55.5 25.0
v 27.5 56.0 26.0
v 28.0 56.0 25.5
v 27.0 56.0 31.0
v 28.0 56.0 31.7
v 28.0 56.5 26.0
v 27.6 57.0 27.0
v 28.0 57.0 26.5
v 27.2 57.0 28.0
v 28.0 56.2 32.0
v 28.0 56.5 33.0
v 27.4 57.0 33.0
v 28.0 57.0 33.8
v 28.0 57.5 27.0
v 27.7 58.0 28.0
v 28.0 58.0 27.6
v 28.0 58.0 33.5
v 28.0 58.3 28.0
v 28.0 58.5 29.0
v 28.0 58.7 30.0
v 27.6 59.0 31.0
v 28.0 59.0 30.5
v 28.0 58.4 33.0
v 28.0 59.0 32.3
v 28.0 59.3 31.0
v 28.0 59.2 32.0
v 29.0 40.0 19.7
v 29.0 39.8 20.0
v 29.0 39.6 21.0
v 29.0 39.8 22.0
v 28.5 40.0 23.0
v 29.0 40.0 22.3
v 28.3 40.0 24.0
v 29.0 41.0 18.8
v 29.0 40.7 19.0
v 28.8 41.0 23.0
v 29.0 41.0 22.7
v 28.5 41.0 24.0
v 28.2 41.0 25.0
v 29.0 42.0 18.6
v 29.0 41.4 23.0
v 29.0 42.0 23.6
v 28.7 42.0 24.0
v 28.4 42.0 25.0
v 28.5 43.0 18.0
v 29.0 43.0 18.3
v 29.0 42.3 24.0
v 29.0 43.0 24.7
v 28.7 43.0 25.0
v 28.4 43.0 26.0
v 29.0 44.0 17.7
v 29.0 43.5 18.0
v 29.0 43.3 25.0
v 29.0 43.7 26.0
v 28.2 44.0 27.0
v 29.0 44.0 26.3
v 28.8 45.0 17.0
v 29.0 45.0 16.9
v 29.0 44.9 17.0
v 28.1 45.0 18.0
v 28.0 45.0 27.0
v 29.0 45.0 26.5
v 28.9 46.0 16.0
v 29.0 46.0 16.0
v 29.0 46.0 16.0
v 29.0 46.0 26.5
v 28.1 47.0 15.0
v 29.0 47.0 15.6
v 29.0 47.0 26.6
v 28.5 48.0 15.0
v 29.0 48.0 15.4
v 29.0 48.0 26.7
v 28.4 49.0 15.0
v 29.0 49.0 15.4
v 29.0 49.0 27.0
v 29.0 49.0 27.0
v 29.0 50.0 15.7
v 28.0 50.0 24.0
v 29.0 49.0 27.0
v 29.0 49.4 28.0
v 29.0 49.9 29.0
v 28.9 50.0 29.0
v 29.0 50.0 29.1
v 29.0 50.4 16.0
v 29.0 51.0 16.4
v 28.4 51.0 29.0
v 29.0 51.0 29.5
v 28.4 52.0 17.0
v 29.0 52.0 16.7
v 29.0 51.8 30.0
v 28.7 52.0 30.0
v 29.0 52.0 30.2
v 29.0 52.3 17.0
v 29.0 52.7 18.0
v 28.5 53.0 19.0
v 29.0 53.0 18.4
v 28.3 53.0 22.0
v 28.2 53.0 23.0
v 29.0 52.7 31.0
v 28.6 53.0 31.0
v 29.0 53.0 31.3
v 29.0 53.5 19.0
v 29.0 53.6 20.0
v 29.0 53.7 21.0
v 28.7 54.0 22.0
v 29.0 54.0 21.4
v 28.5 54.0 23.0
v 29.0 54.0 31.6
v 29.0 54.4 22.0
v 29.0 54.6 23.0
v 28.5 55.0 24.0
v 29.0 55.0 23.4
v 29.0 54.5 32.0
v 28.5 55.0 32.0
v 29.0 55.0 33.0
v 29.0 55.0 33.0
v 29.0 55.0 33.0
v 29.0 55.6 24.0
v 28.5 56.0 25.0
v 29.0 56.0 24.4
v 28.2 56.0 32.0
v 28.6 56.0 33.0
v 29.0 56.0 33.3
v 29.0 56.5 25.0
v 28.5 57.0 26.0
v 29.0 57.0 25.5
v 29.0 57.0 33.4
v 29.0 57.4 26.0
v 28.8 58.0 27.0
v 29.0 58.0 26.9
v 28.9 58.0 32.0
v 29.0 57.9 32.0
v 29.0 58.0 31.9
v 29.0 58.0 32.7
v 29.0 58.0 33.0
v 29.0 58.1 27.0
v 29.0 58.4 28.0
v 29.0 58.5 29.0
v 28.9 59.0 30.0
v 29.0 59.0 29.9
v 28.3 59.0 32.0
v 29.0 59.0 31.2
v 29.0 58.0 33.0
v 29.0 59.1 30.0
v 29.0 59.2 31.0
v 29.2 40.0 20.0
v 29.5 40.0 21.0
v 29.3 40.0 22.0
v 29.2 41.0 19.0
v 29.6 41.0 20.0
v 30.0 41.0 20.5
v 30.0 40.5 21.0
v 30.0 40.6 22.0
v 30.0 41.0 22.4
v 29.5 42.0 19.0
v 29.8 42.0 20.0
v 30.0 42.0 20.3
v 29.6 42.0 23.0
v 30.0 42.0 22.7
v 30.0 43.0 18.8
v 30.0 42.7 19.0
v 30.0 42.3 20.0
v 30.0 42.3 23.0
v 30.0 42.8 24.0
v 30.0 43.0 24.2
v 29.5 44.0 18.0
v 30.0 44.0 18.4
v 29.5 44.0 25.0
v 30.0 44.0 24.5
v 29.2 44.0 26.0
v 29.1 45.0 17.0
v 30.0 45.0 17.6
v 30.0 44.5 18.0
v 29.8 45.0 25.0
v 30.0 45.0 24.7
v 29.5 45.0 26.0
v 29.0 46.0 16.0
v 29.6 46.0 17.0
v 30.0 46.0 17.3
v 30.0 45.2 25.0
v 30.0 45.5 26.0
v 30.0 46.0 26.5
v 29.4 47.0 16.0
v 30.0 47.0 16.7
v 30.0 46.6 17.0
v 30.0 46.7 27.0
v 29.7 47.0 27.0
v 30.0 47.0 27.3
v 30.0 48.0 15.8
v 30.0 47.7 16.0
v 29.4 48.0 27.0
v 30.0 48.0 27.5
v 30.0 49.0 15.8
v 29.0 49.0 27.0
v 30.0 48.7 28.0
v 29.6 49.0 28.0
v 30.0 49.0 28.3
v 30.0 49.4 16.0
v 29.5 50.0 16.0
v 30.0 50.0 16.3
v 30.0 50.0 28.8
v 29.2 50.0 29.0
v 30.0 51.0 16.5
v 30.0 50.3 29.0
v 30.0 51.0 29.3
v 30.0 52.0 16.5
v 29.4 52.0 30.0
v 30.0 52.0 29.7
v 29.7 53.0 17.0
v 30.0 53.0 16.7
v 29.3 53.0 18.0
v 30.0 52.4 30.0
v 30.0 52.8 31.0
v 30.0 53.0 31.2
v 30.0 53.4 17.0
v 29.6 54.0 18.0
v 30.0 54.0 17.4
v 29.4 54.0 19.0
v 29.4 54.0 20.0
v 29.2 54.0 21.0
v 30.0 54.0 31.5
v 29.7 55.0 18.0
v 30.0 55.0 17.7
v 29.5 55.0 19.0
v 29.5 55.0 20.0
v 29.6 55.0 21.0
v 29.4 55.0 22.0
v 29.3 55.0 23.0
v 30.0 54.5 32.0
v 29.0 55.0 33.0
v 30.0 55.0 32.6
v 30.0 55.6 18.0
v 29.7 56.0 19.0
v 30.0 56.0 18.4
v 29.7 56.0 20.0
v 30.0 56.0 20.7
v 30.0 55.8 21.0
v 29.8 56.0 22.0
v 30.0 56.0 21.4
v 29.6 56.0 23.0
v 29.3 56.0 24.0
v 30.0 55.8 33.0
v 30.0 56.0 33.1
v 29.9 57.0 18.0
v 30.0 57.0 17.9
v 30.0 56.7 18.0
v 30.0 56.7 19.0
v 30.0 57.0 18.4
v 30.0 56.4 20.0
v 30.0 56.3 22.0
v 30.0 56.5 23.0
v 29.8 57.0 24.0
v 30.0 57.0 23.8
v 29.6 57.0 25.0
v 29.5 57.0 33.0
v 30.0 56.2 33.0
v 30.0 57.0 32.4
v 29.9 58.0 16.0
v 30.0 58.0 15.8
v 30.0 57.9 16.0
v 30.0 58.0 16.4
v 29.6 58.0 18.0
v 30.0 58.0 17.3
v 30.0 57.3 19.0
v 29.7 58.0 19.0
v 30.0 58.0 19.4
v 30.0 57.2 24.0
v 30.0 57.2 25.0
v 30.0 57.3 26.0
v 29.2 58.0 27.0
v 30.0 57.4 27.0
v 29.4 58.0 28.0
v 30.0 57.5 28.0
v 29.5 58.0 29.0
v 30.0 57.5 29.0
v 29.6 58.0 30.0
v 30.0 57.5 30.0
v 29.5 58.0 31.0
v 30.0 57.5 31.0
v 30.0 57.3 32.0
v 29.0 58.0 33.0
v 29.7 59.0 16.0
v 30.0 59.0 15.6
v 30.0 58.3 17.0
v 29.6 59.0 17.0
v 29.6 59.0 18.0
v 29.8 59.0 19.0
v 30.0 59.0 19.3
v 29.1 59.0 30.0
v 29.2 59.0 31.0
v 30.0 59.6 16.0
v 29.9 60.0 17.0
v 30.0 60.0 16.7
v 30.0 60.0 17.2
v 30.0 59.6 18.0
v 30.0 59.3 19.0
v 30.0 60.1 17.0
v 31.0 41.0 21.0
v 31.0 41.0 21.0
v 31.0 40.9 22.0
v 31.0 41.0 22.1
v 31.0 41.0 21.0
v 30.6 42.0 21.0
v 31.0 42.0 21.5
v 31.0 42.0 22.3
v 30.2 43.0 19.0
v 30.5 43.0 20.0
v 30.8 43.0 21.0
v 31.0 43.0 21.2
v 31.0 42.6 23.0
v 30.3 43.0 24.0
v 31.0 43.0 23.3
v 30.6 44.0 19.0
v 31.0 44.0 19.5
v 31.0 43.6 20.0
v 31.0 43.2 21.0
v 30.5 44.0 24.0
v 31.0 44.0 23.5
v 30.5 45.0 18.0
v 31.0 45.0 18.5
v 31.0 44.5 19.0
v 30.7 45.0 24.0
v 31.0 45.0 23.7
v 31.0 46.0 17.8
v 31.0 45.8 18.0
v 31.0 45.2 24.0
v 31.0 45.5 25.0
v 31.0 45.7 26.0
v 31.0 46.0 26.4
v 30.2 47.0 17.0
v 31.0 46.3 18.0
v 30.7 47.0 18.0
v 31.0 47.0 18.3
v 31.0 46.6 27.0
v 31.0 47.0 27.4
v 30.2 48.0 16.0
v 30.5 48.0 17.0
v 30.6 48.0 18.0
v 31.0 48.0 18.6
v 31.0 48.0 27.6
v 30.3 49.0 16.0
v 30.6 49.0 17.0
v 30.6 49.0 18.0
v 31.0 48.7 19.0
v 30.8 49.0 19.0
v 31.0 49.0 19.2
v 31.0 48.5 28.0
v 31.0 49.0 28.5
v 31.0 49.9 17.0
v 31.0 50.0 16.9
v 31.0 50.0 17.3
v 30.8 50.0 18.0
v 31.0 50.0 18.3
v 31.0 49.3 19.0
v 31.0 49.8 29.0
v 30.6 50.0 29.0
v 31.0 50.0 29.1
v 31.0 51.0 16.6
v 31.0 50.2 18.0
v 31.0 51.0 28.8
v 30.7 51.0 29.0
v 31.0 50.4 29.0
v 31.0 52.0 16.5
v 31.0 51.3 29.0
v 31.0 52.0 29.3
v 31.0 53.0 16.5
v 30.5 53.0 30.0
v 31.0 53.0 29.5
v 30.2 53.0 31.0
v 30.4 54.0 17.0
v 31.0 54.0 16.5
v 30.8 54.0 30.0
v 31.0 54.0 29.5
v 30.5 54.0 31.0
v 30.6 55.0 17.0
v 31.0 55.0 16.6
v 30.7 55.0 27.0
v 31.0 54.6 27.0
v 31.0 55.0 26.5
v 30.6 55.0 28.0
v 31.0 54.5 28.0
v 30.7 55.0 29.0
v 31.0 54.5 29.0
v 31.0 54.3 30.0
v 31.0 55.0 29.4
v 31.0 54.4 31.0
v 31.0 54.8 32.0
v 31.0 55.0 32.2
v 31.0 56.0 15.0
v 31.0 56.0 15.0
v 31.0 56.0 15.0
v 31.0 56.0 15.1
v 31.0 55.6 17.0
v 30.3 56.0 18.0
v 31.0 56.0 17.3
v 30.2 56.0 21.0
v 31.0 56.0 25.0
v 31.0 56.0 25.0
v 31.0 56.0 25.0
v 30.6 56.0 26.0
v 31.0 55.4 26.0
v 30.5 56.0 27.0
v 30.5 56.0 28.0
v 30.6 56.0 29.0
v 31.0 56.0 29.6
v 30.2 56.0 33.0
v 31.0 56.0 32.3
v 30.6 57.0 15.0
v 31.0 57.0 14.5
v 31.0 56.5 16.0
v 30.6 57.0 16.0
v 31.0 57.0 16.9
v 31.0 57.0 17.1
v 30.2 57.0 19.0
v 30.4 57.0 20.0
v 30.7 57.0 21.0
v 31.0 56.7 22.0
v 31.0 57.0 21.6
v 31.0 56.8 23.0
v 31.0 57.0 23.4
v 30.3 57.0 25.0
v 31.0 57.0 24.4
v 30.3 57.0 26.0
v 30.4 57.0 27.0
v 30.4 57.0 28.0
v 30.4 57.0 29.0
v 31.0 56.4 30.0
v 30.5 57.0 30.0
v 30.5 57.0 31.0
v 31.0 56.5 31.0
v 30.3 57.0 32.0
v 31.0 56.3 32.0
v 30.9 58.0 14.0
v 31.0 58.0 13.9
v 31.0 57.9 14.0
v 30.4 58.0 15.0
v 31.0 57.1 17.0
v 30.2 58.0 17.0
v 30.5 58.0 20.0
v 31.0 58.0 20.6
v 31.0 57.5 21.0
v 31.0 57.3 24.0
v 31.0 58.1 14.0
v 30.4 59.0 15.0
v 31.0 59.0 14.5
v 30.6 59.0 20.0
v 31.0 59.0 20.4
v 30.2 60.0 15.0
v 31.0 60.0 14.6
v 30.3 60.0 16.0
v 30.4 60.0 18.0
v 30.5 60.0 19.0
v 31.0 60.0 19.6
v 31.0 59.5 20.0
v 30.9 61.0 15.0
v 31.0 61.0 14.9
v 31.0 61.0 15.1
v 31.0 60.7 16.0
v 31.0 60.6 17.0
v 31.0 60.6 18.0
v 30.9 61.0 19.0
v 31.0 61.0 18.9
v 31.0 61.0 19.1
v 31.0 61.1 15.0
v 31.0 61.1 19.0
v 31.0 41.0 21.0
v 31.1 41.0 22.0
v 31.3 42.0 22.0
v 32.0 43.0 21.9
v 32.0 42.9 22.0
v 31.3 43.0 23.0
v 32.0 43.0 22.1
v 31.5 44.0 20.0
v 32.0 44.0 20.6
v 32.0 43.6 21.0
v 31.5 44.0 23.0
v 32.0 44.0 22.6
v 31.5 45.0 19.0
v 32.0 45.0 19.6
v 32.0 44.6 20.0
v 31.7 45.0 23.0
v 32.0 45.0 22.7
v 31.2 46.0 18.0
v 32.0 46.0 18.8
v 32.0 45.8 19.0
v 32.0 45.3 23.0
v 32.0 45.5 24.0
v 32.0 45.7 25.0
v 31.5 46.0 26.0
v 32.0 46.0 25.5
v 31.6 47.0 19.0
v 32.0 46.2 19.0
v 32.0 47.0 19.5
v 32.0 46.3 26.0
v 32.0 46.7 27.0
v 32.0 47.0 27.2
v 31.3 48.0 19.0
v 32.0 47.6 20.0
v 31.7 48.0 20.0
v 32.0 48.0 20.2
v 32.0 48.0 27.6
v 31.6 49.0 20.0
v 32.0 49.0 20.4
v 32.0 48.5 28.0
v 32.0 49.0 28.5
v 31.1 50.0 17.0
v 31.3 50.0 19.0
v 31.7 50.0 20.0
v 32.0 50.0 20.3
v 32.0 49.9 29.0
v 32.0 50.0 29.1
v 31.4 51.0 17.0
v 31.5 51.0 18.0
v 31.7 51.0 19.0
v 32.0 51.0 19.5
v 32.0 50.5 20.0
v 32.0 50.1 29.0
v 32.0 51.0 28.6
v 32.0 52.0 16.8
v 32.0 51.7 17.0
v 32.0 51.5 18.0
v 32.0 51.4 19.0
v 31.4 52.0 29.0
v 32.0 52.0 28.5
v 32.0 53.0 16.5
v 31.7 53.0 28.0
v 32.0 52.6 28.0
v 32.0 53.0 27.5
v 31.4 53.0 29.0
v 31.7 54.0 16.0
v 32.0 54.0 15.8
v 32.0 53.7 16.0
v 31.7 54.0 26.0
v 32.0 53.7 26.0
v 32.0 54.0 25.7
v 31.5 54.0 27.0
v 32.0 53.4 27.0
v 31.4 54.0 28.0
v 31.3 54.0 29.0
v 31.5 55.0 16.0
v 32.0 55.0 15.5
v 31.4 55.0 26.0
v 32.0 55.0 25.5
v 31.9 55.0 30.0
v 32.0 55.0 30.7
v 32.0 55.0 31.0
v 31.2 55.0 32.0
v 32.0 55.0 31.0
v 32.0 56.0 14.6
v 32.0 55.5 15.0
v 31.3 56.0 16.0
v 31.2 56.0 17.0
v 31.2 56.0 25.0
v 32.0 56.0 25.1
v 31.3 56.0 30.0
v 32.0 55.0 31.0
v 31.5 56.0 31.0
v 31.2 56.0 32.0
v 31.6 57.0 14.0
v 32.0 57.0 13.7
v 32.0 56.7 14.0
v 31.1 57.0 17.0
v 31.3 57.0 22.0
v 31.2 57.0 23.0
v 32.0 56.1 25.0
v 32.0 57.0 24.4
v 32.0 58.0 13.6
v 31.4 58.0 21.0
v 31.6 58.0 22.0
v 31.5 58.0 23.0
v 31.9 58.0 24.0
v 32.0 58.0 24.1
v 32.0 58.5 14.0
v 32.0 59.0 14.4
v 31.4 59.0 21.0
v 31.7 59.0 22.0
v 31.8 59.0 23.0
v 32.0 59.0 23.2
v 32.0 58.1 24.0
v 32.0 60.0 14.4
v 31.3 60.0 20.0
v 31.6 60.0 21.0
v 32.0 60.0 21.5
v 32.0 59.4 22.0
v 32.0 59.2 23.0
v 32.0 61.0 14.6
v 31.3 61.0 16.0
v 31.5 61.0 17.0
v 31.4 61.0 18.0
v 31.6 61.0 20.0
v 31.8 61.0 21.0
v 32.0 61.0 21.2
v 32.0 61.6 15.0
v 31.8 62.0 16.0
v 32.0 62.0 15.7
v 32.0 62.0 16.3
v 32.0 61.6 17.0
v 32.0 61.5 18.0
v 32.0 61.5 19.0
v 32.0 61.4 20.0
v 32.0 61.2 21.0
v 32.0 62.2 16.0
v 32.1 43.0 22.0
v 32.4 44.0 21.0
v 33.0 44.0 22.0
v 33.0 44.0 22.0
v 33.0 44.0 22.0
v 32.3 45.0 20.0
v 32.7 45.0 21.0
v 33.0 45.0 21.6
v 33.0 45.0 22.3
v 32.1 46.0 19.0
v 32.6 46.0 20.0
v 33.0 46.0 20.6
v 33.0 45.5 21.0
v 32.9 46.0 23.0
v 33.0 46.0 22.9
v 33.0 46.0 23.4
v 33.0 45.9 24.0
v 32.5 46.0 25.0
v 33.0 46.0 24.2
v 32.4 47.0 20.0
v 33.0 47.0 20.5
v 33.0 46.1 23.0
v 33.0 46.4 25.0
v 33.0 46.7 26.0
v 32.4 47.0 27.0
v 33.0 47.0 26.4
v 33.0 48.0 20.6
v 33.0 47.6 27.0
v 33.0 48.0 27.3
v 33.0 49.0 20.8
v 33.0 48.7 28.0
v 33.0 49.0 28.2
v 33.0 49.4 21.0
v 32.6 50.0 21.0
v 33.0 50.0 21.5
v 32.1 50.0 29.0
v 33.0 50.0 28.4
v 32.3 51.0 20.0
v 32.5 51.0 21.0
v 33.0 50.8 22.0
v 32.9 51.0 22.0
v 33.0 51.0 22.2
v 33.0 51.0 28.4
v 32.2 52.0 17.0
v 32.5 52.0 18.0
v 32.4 52.0 19.0
v 32.6 52.0 20.0
v 32.8 52.0 21.0
v 33.0 52.0 21.3
v 33.0 51.2 22.0
v 33.0 52.0 28.2
v 32.8 53.0 17.0
v 33.0 53.0 17.4
v 33.0 52.7 18.0
v 33.0 53.0 18.8
v 32.9 53.0 19.0
v 33.0 53.0 19.1
v 33.0 52.5 20.0
v 33.0 52.2 21.0
v 32.7 53.0 25.0
v 33.0 52.7 25.0
v 33.0 53.0 24.7
v 32.5 53.0 26.0
v 33.0 52.5 26.0
v 32.4 53.0 27.0
v 33.0 52.4 27.0
v 33.0 52.2 28.0
v 33.0 54.0 15.8
v 33.0 53.8 16.0
v 33.0 53.2 17.0
v 33.0 53.1 19.0
v 32.5 54.0 25.0
v 33.0 54.0 24.5
v 33.0 55.0 15.5
v 32.5 55.0 25.0
v 33.0 55.0 24.4
v 32.0 55.0 31.0
v 33.0 56.0 14.7
v 33.0 55.6 15.0
v 32.7 56.0 24.0
v 33.0 55.5 24.0
v 33.0 56.0 23.6
v 32.1 56.0 25.0
v 33.0 57.0 13.7
v 33.0 56.7 14.0
v 32.4 57.0 24.0
v 33.0 57.0 23.5
v 33.0 58.0 13.6
v 33.0 58.0 20.0
v 33.0 58.0 20.0
v 33.0 58.0 20.0
v 32.7 58.0 21.0
v 33.0 57.7 21.0
v 32.9 58.0 22.0
v 33.0 57.9 22.0
v 33.0 58.0 22.2
v 32.1 58.0 24.0
v 33.0 58.0 23.3
v 33.0 58.6 14.0
v 33.0 59.0 14.3
v 33.0 58.0 20.0
v 33.0 58.4 21.0
v 33.0 58.3 22.0
v 33.0 59.0 23.1
v 32.8 60.0 14.0
v 33.0 60.0 13.9
v 33.0 59.7 14.0
v 33.0 59.3 22.0
v 33.0 60.0 21.5
v 33.0 59.1 23.0
v 33.0 60.2 14.0
v 33.0 61.0 14.3
v 33.0 61.0 21.2
v 32.4 62.0 15.0
v 33.0 62.0 14.6
v 32.3 62.0 17.0
v 32.6 62.0 18.0
v 33.0 62.0 18.5
v 33.0 61.7 19.0
v 33.0 61.4 20.0
v 33.0 61.2 21.0
v 32.8 63.0 15.0
v 33.0 63.0 14.8
v 32.6 63.0 16.0
v 32.8 63.0 17.0
v 33.0 63.0 17.3
v 33.0 62.4 18.0
v 33.0 63.2 15.0
v 33.0 63.4 16.0
v 33.0 63.2 17.0
v 33.0 44.0 22.0
v 33.3 45.0 22.0
v 33.4 46.0 21.0
v 34.0 46.0 21.9
v 34.0 45.9 22.0
v 34.0 46.0 22.1
v 33.1 46.0 24.0
v 33.5 47.0 21.0
v 34.0 47.0 21.7
v 34.0 46.5 23.0
v 33.9 47.0 24.0
v 34.0 47.0 23.8
v 33.5 47.0 25.0
v 33.3 47.0 26.0
v 33.4 48.0 21.0
v 34.0 47.5 22.0
v 33.7 48.0 22.0
v 34.0 48.0 22.5
v 34.0 47.1 24.0
v 34.0 47.6 25.0
v 34.0 48.0 25.5
v 33.7 48.0 26.0
v 33.3 48.0 27.0
v 33.2 49.0 21.0
v 33.5 49.0 22.0
v 34.0 48.6 23.0
v 33.7 49.0 23.0
v 34.0 49.0 23.4
v 34.0 48.5 26.0
v 34.0 49.0 26.4
v 33.6 49.0 27.0
v 33.2 49.0 28.0
v 33.3 50.0 22.0
v 33.6 50.0 23.0
v 34.0 50.0 23.5
v 33.6 50.0 27.0
v 34.0 50.0 26.5
v 33.4 50.0 28.0
v 33.5 51.0 23.0
v 34.0 51.0 23.7
v 33.6 51.0 27.0
v 34.0 51.0 26.3
v 33.4 51.0 28.0
v 34.0 52.0 21.9
v 34.0 51.9 22.0
v 33.7 52.0 23.0
v 34.0 52.0 22.2
v 34.0 51.4 24.0
v 33.6 52.0 24.0
v 33.5 52.0 25.0
v 34.0 51.5 25.0
v 33.5 52.0 26.0
v 34.0 51.3 26.0
v 33.4 52.0 27.0
v 33.2 52.0 28.0
v 33.4 53.0 18.0
v 34.0 53.0 19.7
v 34.0 52.8 20.0
v 34.0 52.6 21.0
v 34.0 52.5 23.0
v 34.0 53.0 23.4
v 33.5 53.0 24.0
v 33.3 54.0 16.0
v 34.0 54.0 16.6
v 34.0 53.3 17.0
v 34.0 53.6 18.0
v 34.0 53.5 19.0
v 33.5 54.0 24.0
v 34.0 54.0 23.5
v 33.5 55.0 16.0
v 34.0 55.0 16.6
v 33.4 55.0 24.0
v 34.0 55.0 23.3
v 33.3 56.0 15.0
v 33.7 56.0 16.0
v 34.0 56.0 16.4
v 33.7 56.0 21.0
v 34.0 55.6 21.0
v 34.0 56.0 20.5
v 33.6 56.0 22.0
v 34.0 55.5 22.0
v 33.5 56.0 23.0
v 34.0 55.3 23.0
v 33.4 57.0 14.0
v 34.0 57.0 14.6
v 34.0 56.6 15.0
v 34.0 56.4 16.0
v 33.9 57.0 19.0
v 34.0 56.8 19.0
v 34.0 57.0 18.8
v 33.5 57.0 20.0
v 34.0 56.4 20.0
v 33.4 57.0 21.0
v 33.4 57.0 22.0
v 33.4 57.0 23.0
v 34.0 58.0 13.9
v 34.0 57.8 14.0
v 34.0 57.3 19.0
v 34.0 58.0 19.3
v 33.3 58.0 23.0
v 34.0 58.3 14.0
v 34.0 59.0 14.3
v 33.5 59.0 20.0
v 34.0 59.0 19.4
v 33.4 59.0 21.0
v 33.2 59.0 22.0
v 33.1 59.0 23.0
v 34.0 60.0 13.7
v 34.0 59.5 14.0
v 33.8 60.0 19.0
v 34.0 59.7 19.0
v 34.0 60.0 18.8
v 33.5 60.0 20.0
v 33.4 60.0 21.0
v 33.8 61.0 14.0
v 34.0 61.0 13.9
v 34.0 60.4 19.0
v 34.0 61.0 19.3
v 33.4 61.0 20.0
v 33.2 61.0 21.0
v 34.0 61.1 14.0
v 34.0 62.0 14.5
v 34.0 62.0 19.0
v 34.0 62.0 19.0
v 34.0 63.0 14.8
v 34.0 62.4 18.0
v 34.0 63.0 17.3
v 34.0 62.0 19.0
v 34.0 63.2 15.0
v 34.0 63.4 16.0
v 34.0 63.2 17.0
v 34.1 46.0 22.0
v 34.3 47.0 22.0
v 35.0 47.0 23.0
v 35.0 47.0 23.0
v 35.0 47.0 23.3
v 34.5 48.0 23.0
v 35.0 47.0 23.0
v 35.0 48.0 23.9
v 35.0 47.4 24.0
v 34.4 48.0 25.0
v 35.0 48.0 24.1
v 34.5 49.0 24.0
v 35.0 48.1 24.0
v 34.5 49.0 25.0
v 34.3 49.0 26.0
v 34.4 50.0 24.0
v 34.5 50.0 25.0
v 34.4 50.0 26.0
v 34.3 51.0 24.0
v 34.4 51.0 25.0
v 34.2 51.0 26.0
v 34.1 52.0 22.0
v 34.2 53.0 20.0
v 34.4 53.0 21.0
v 34.5 53.0 22.0
v 34.3 53.0 23.0
v 34.3 54.0 17.0
v 34.3 54.0 18.0
v 34.4 54.0 19.0
v 34.5 54.0 20.0
v 34.5 54.0 21.0
v 34.5 54.0 22.0
v 34.4 54.0 23.0
v 34.3 55.0 17.0
v 34.1 55.0 18.0
v 34.4 55.0 19.0
v 34.5 55.0 20.0
v 34.4 55.0 21.0
v 34.4 55.0 22.0
v 34.2 55.0 23.0
v 34.4 56.0 17.0
v 34.4 56.0 18.0
v 34.4 56.0 19.0
v 34.3 56.0 20.0
v 34.3 57.0 15.0
v 34.4 57.0 16.0
v 34.5 57.0 17.0
v 34.4 57.0 18.0
v 34.1 58.0 14.0
v 35.0 58.0 14.9
v 35.0 57.9 15.0
v 35.0 58.0 15.1
v 34.6 58.0 16.0
v 34.5 58.0 17.0
v 34.5 58.0 18.0
v 34.3 58.0 19.0
v 35.0 59.0 14.8
v 34.7 59.0 16.0
v 35.0 59.0 15.3
v 34.6 59.0 17.0
v 34.5 59.0 18.0
v 34.3 59.0 19.0
v 34.7 60.0 14.0
v 35.0 59.3 15.0
v 34.8 60.0 15.0
v 35.0 60.0 15.4
v 35.0 59.5 16.0
v 35.0 59.7 17.0
v 35.0 60.0 17.3
v 34.5 60.0 18.0
v 34.1 61.0 14.0
v 34.7 61.0 15.0
v 35.0 61.0 15.4
v 34.6 61.0 18.0
v 35.0 61.0 17.5
v 34.2 61.0 19.0
v 35.0 61.8 15.0
v 35.0 62.0 14.9
v 34.5 62.0 18.0
v 35.0 62.0 17.3
v 34.0 62.0 19.0
v 35.0 62.1 15.0
v 34.2 63.0 15.0
v 34.5 63.0 16.0
v 35.0 62.4 16.0
v 34.3 63.0 17.0
v 35.0 62.3 17.0
v 35.0 47.0 23.0
v 35.1 48.0 24.0
v 35.1 58.0 15.0
v 35.1 59.0 15.0
v 35.3 60.0 16.0
v 35.2 60.0 17.0
v 35.4 61.0 16.0
v 35.4 61.0 17.0
v 35.1 62.0 15.0
v 35.4 62.0 16.0
v 35.2 62.0 17.0
f 3 2 1
f 5 4 1
f 1 4 3
f 7 6 5
f 5 6 4
f 7 8 6
f 1 2 9
f 9 2 10
f 1 11 5
f 1 9 11
f 5 12 7
f 5 11 12
f 8 7 13
f 13 7 12
f 16 15 14
f 16 14 10
f 14 9 10
f 14 17 9
f 9 18 11
f 9 17 18
f 11 19 12
f 11 18 19
f 13 12 20
f 20 12 19
f 14 15 21
f 21 15 22
f 14 23 17
f 14 21 23
f 17 24 18
f 17 23 24
f 18 25 19
f 18 24 25
f 20 19 26
f 26 19 25
f 22 27 21
f 21 27 23
f 23 27 28
f 23 28 24
f 24 28 29
f 31 30 29
f 30 24 29
f 30 25 24
f 26 25 32
f 32 25 30
f 31 33 30
f 30 33 32
f 36 35 34
f 34 37 36
f 40 39 38
f 42 41 38
f 38 41 40
f 44 43 42
f 42 43 41
f 46 45 44
f 44 45 43
f 46 47 45
f 34 35 48
f 48 35 49
f 37 34 50
f 50 34 48
f 38 39 51
f 51 39 52
f 51 2 3
f 42 51 3
f 38 51 42
f 42 3 4
f 42 4 44
f 44 4 6
f 44 6 46
f 6 8 46
f 8 47 46
f 8 53 47
f 49 54 48
f 48 54 50
f 57 56 55
f 57 55 52
f 55 51 52
f 55 58 51
f 58 10 2
f 58 2 51
f 13 53 8
f 13 59 53
f 55 56 60
f 60 56 61
f 60 15 16
f 58 60 16
f 55 60 58
f 58 16 10
f 20 59 13
f 20 62 59
f 60 61 63
f 63 61 64
f 63 22 15
f 63 15 60
f 26 62 20
f 26 65 62
f 64 66 63
f 66 68 67
f 66 67 27
f 63 66 27
f 22 63 27
f 69 28 27
f 69 27 67
f 70 29 28
f 70 28 69
f 70 31 29
f 32 65 26
f 32 71 65
f 68 72 67
f 74 73 72
f 73 67 72
f 73 69 67
f 76 70 75
f 70 73 75
f 70 69 73
f 70 76 31
f 76 33 31
f 76 77 33
f 32 33 71
f 71 33 77
f 74 78 73
f 73 78 75
f 81 80 79
f 83 82 79
f 79 82 81
f 85 84 83
f 83 84 82
f 85 86 84
f 79 80 87
f 87 80 88
f 79 89 83
f 79 87 89
f 83 90 85
f 83 89 90
f 86 85 91
f 85 92 91
f 85 90 92
f 94 93 92
f 92 93 91
f 94 95 93
f 87 88 96
f 96 88 97
f 87 98 89
f 87 96 98
f 89 99 90
f 89 98 99
f 90 100 92
f 90 99 100
f 92 101 94
f 92 100 101
f 95 94 102
f 102 94 101
f 105 104 103
f 105 103 97
f 103 96 97
f 103 106 96
f 96 107 98
f 96 106 107
f 98 108 99
f 98 107 108
f 108 35 36
f 100 108 36
f 99 108 100
f 100 36 37
f 109 100 37
f 101 100 109
f 102 101 110
f 110 101 109
f 112 111 40
f 40 111 39
f 113 40 41
f 113 112 40
f 114 41 43
f 114 113 41
f 116 114 115
f 114 45 115
f 114 43 45
f 47 115 45
f 103 104 117
f 117 104 118
f 103 119 106
f 103 117 119
f 106 120 107
f 106 119 120
f 107 121 108
f 107 120 121
f 121 49 35
f 121 35 108
f 123 122 109
f 37 123 109
f 50 123 37
f 109 122 110
f 126 125 124
f 111 126 124
f 52 111 124
f 39 111 52
f 127 116 115
f 115 47 127
f 47 128 127
f 47 53 128
f 117 118 129
f 129 118 130
f 117 131 119
f 117 129 131
f 119 132 120
f 119 131 132
f 120 133 121
f 120 132 133
f 134 54 49
f 121 134 49
f 133 134 121
f 134 135 54
f 135 50 54
f 135 123 50
f 124 125 57
f 125 56 57
f 125 136 56
f 124 57 52
f 59 128 53
f 59 137 128
f 129 130 138
f 138 130 139
f 129 140 131
f 129 138 140
f 131 141 132
f 131 140 141
f 132 142 133
f 132 141 142
f 133 143 134
f 133 142 143
f 135 134 144
f 144 134 143
f 147 146 145
f 136 147 145
f 61 136 145
f 56 136 61
f 62 137 59
f 62 148 137
f 138 139 149
f 149 139 150
f 138 151 140
f 138 149 151
f 140 152 141
f 140 151 152
f 141 153 142
f 141 152 153
f 142 154 143
f 142 153 154
f 144 143 155
f 155 143 154
f 145 146 156
f 156 146 157
f 156 64 61
f 156 61 145
f 160 159 158
f 159 148 158
f 148 65 158
f 148 62 65
f 150 161 149
f 163 162 161
f 162 149 161
f 162 151 149
f 151 164 152
f 151 162 164
f 152 165 153
f 152 164 165
f 153 166 154
f 153 165 166
f 155 154 167
f 167 154 166
f 156 157 168
f 168 157 169
f 170 66 64
f 156 170 64
f 168 170 156
f 170 68 66
f 160 158 171
f 160 171 172
f 71 171 65
f 65 171 158
f 163 173 162
f 162 173 164
f 164 173 174
f 176 175 174
f 175 164 174
f 175 165 164
f 165 177 166
f 165 175 177
f 167 166 178
f 178 166 177
f 168 169 179
f 179 169 180
f 168 181 170
f 168 179 181
f 182 72 68
f 170 182 68
f 181 182 170
f 182 74 72
f 184 183 76
f 184 76 75
f 171 77 172
f 77 183 172
f 77 76 183
f 77 171 71
f 176 185 175
f 175 185 177
f 177 185 186
f 177 186 178
f 180 187 179
f 179 187 181
f 181 187 188
f 190 189 188
f 189 181 188
f 189 182 181
f 182 189 74
f 189 191 74
f 191 78 74
f 189 192 191
f 75 78 184
f 184 78 191
f 190 193 189
f 189 193 192
f 196 195 194
f 80 81 194
f 81 196 194
f 81 197 196
f 198 81 82
f 198 197 81
f 199 82 84
f 199 198 82
f 201 200 86
f 200 84 86
f 200 199 84
f 203 202 201
f 201 202 200
f 203 204 202
f 194 195 205
f 205 195 206
f 205 88 80
f 205 80 194
f 91 201 86
f 201 91 93
f 201 93 203
f 93 95 203
f 95 204 203
f 95 207 204
f 206 208 205
f 88 205 208
f 209 88 208
f 97 88 209
f 102 207 95
f 102 210 207
f 213 212 211
f 211 214 213
f 216 215 105
f 105 215 104
f 105 97 209
f 105 209 216
f 110 210 102
f 110 217 210
f 219 218 112
f 112 218 111
f 113 211 212
f 219 113 212
f 112 113 219
f 113 114 211
f 114 220 211
f 220 214 211
f 114 221 220
f 116 221 114
f 215 118 104
f 222 118 215
f 123 223 122
f 223 224 122
f 224 110 122
f 224 217 110
f 225 125 126
f 226 225 126
f 111 226 126
f 218 226 111
f 227 220 221
f 229 227 228
f 228 227 127
f 227 221 127
f 221 116 127
f 128 228 127
f 222 130 118
f 230 130 222
f 232 231 223
f 123 232 223
f 135 232 123
f 223 231 224
f 234 233 225
f 233 125 225
f 233 136 125
f 234 225 226
f 235 229 228
f 228 128 235
f 128 236 235
f 128 137 236
f 230 139 130
f 237 139 230
f 144 232 135
f 144 238 232
f 239 146 147
f 240 239 147
f 136 240 147
f 233 240 136
f 148 236 137
f 148 241 236
f 237 150 139
f 242 150 237
f 155 238 144
f 155 243 238
f 245 244 239
f 244 146 239
f 244 157 146
f 245 239 240
f 160 246 159
f 246 247 159
f 247 148 159
f 247 241 148
f 161 150 248
f 150 249 248
f 150 242 249
f 248 163 161
f 167 251 250
f 243 167 250
f 155 167 243
f 251 252 250
f 244 169 157
f 253 169 244
f 256 255 254
f 255 257 246
f 172 255 246
f 160 172 246
f 254 255 172
f 246 257 247
f 249 258 248
f 248 258 163
f 258 173 163
f 258 259 173
f 173 260 174
f 259 260 173
f 262 261 176
f 174 262 176
f 260 262 174
f 263 261 262
f 178 264 251
f 178 251 167
f 252 251 265
f 265 251 264
f 253 180 169
f 266 180 253
f 269 268 267
f 267 268 256
f 267 256 254
f 184 267 254
f 183 184 254
f 183 254 172
f 261 185 176
f 186 185 261
f 270 186 261
f 263 270 261
f 271 186 270
f 264 178 186
f 271 264 186
f 272 264 271
f 265 264 273
f 264 274 273
f 264 272 274
f 274 275 273
f 266 276 180
f 180 276 187
f 187 277 188
f 276 277 187
f 190 188 277
f 190 277 278
f 269 267 191
f 192 269 191
f 279 269 192
f 191 267 184
f 270 280 271
f 282 281 280
f 281 271 280
f 281 272 271
f 272 283 274
f 272 281 283
f 275 274 284
f 284 274 283
f 278 285 190
f 190 285 193
f 192 193 279
f 279 193 285
f 281 282 286
f 286 282 287
f 281 288 283
f 281 286 288
f 284 283 289
f 289 283 288
f 287 290 286
f 286 290 288
f 288 290 291
f 288 291 289
f 294 293 292
f 292 295 294
f 298 297 296
f 298 296 293
f 296 292 293
f 296 299 292
f 295 292 300
f 292 301 300
f 292 299 301
f 301 302 300
f 297 303 296
f 305 304 303
f 304 296 303
f 304 299 296
f 299 306 301
f 299 304 306
f 302 301 307
f 301 308 307
f 301 306 308
f 195 196 309
f 307 308 310
f 197 311 196
f 196 311 309
f 311 197 312
f 197 313 312
f 197 198 313
f 314 198 199
f 314 313 198
f 315 199 200
f 315 314 199
f 317 315 316
f 315 202 316
f 315 200 202
f 204 316 202
f 305 318 304
f 320 319 318
f 319 304 318
f 319 306 304
f 306 321 308
f 306 319 321
f 195 309 206
f 322 206 309
f 206 322 321
f 310 321 322
f 321 310 308
f 322 309 311
f 322 311 323
f 323 311 312
f 324 317 316
f 316 204 324
f 204 325 324
f 204 207 325
f 320 326 319
f 319 326 321
f 321 326 327
f 327 329 328
f 327 328 208
f 321 327 208
f 206 321 208
f 328 209 208
f 210 325 207
f 210 330 325
f 331 212 213
f 214 331 213
f 333 332 329
f 332 215 329
f 216 328 329
f 216 329 215
f 216 209 328
f 332 333 334
f 337 336 335
f 336 330 335
f 330 217 335
f 330 210 217
f 339 338 219
f 219 338 218
f 219 212 331
f 340 219 331
f 339 219 340
f 331 214 340
f 214 341 340
f 214 220 341
f 342 222 332
f 332 222 215
f 332 334 343
f 332 343 342
f 337 335 344
f 337 344 345
f 224 344 217
f 217 344 335
f 338 226 218
f 346 226 338
f 220 227 347
f 348 220 347
f 341 220 348
f 229 347 227
f 349 230 342
f 342 230 222
f 342 343 350
f 342 350 349
f 345 344 231
f 232 345 231
f 351 345 232
f 231 344 224
f 352 233 234
f 353 352 234
f 226 353 234
f 346 353 226
f 354 348 347
f 356 354 355
f 355 354 235
f 354 347 235
f 347 229 235
f 236 355 235
f 358 357 349
f 357 230 349
f 357 237 230
f 358 349 350
f 238 351 232
f 238 359 351
f 361 360 352
f 360 233 352
f 360 240 233
f 361 352 353
f 362 356 355
f 236 241 355
f 241 363 355
f 363 362 355
f 363 241 364
f 364 365 363
f 357 242 237
f 366 242 357
f 243 359 238
f 243 367 359
f 368 244 245
f 369 368 245
f 240 369 245
f 360 369 240
f 247 370 364
f 247 364 241
f 365 364 371
f 371 364 370
f 366 249 242
f 372 249 366
f 373 367 243
f 373 243 250
f 250 252 373
f 373 252 374
f 376 375 368
f 375 244 368
f 375 253 244
f 376 368 369
f 256 377 255
f 255 377 378
f 379 255 378
f 257 255 379
f 247 257 370
f 257 380 370
f 257 379 380
f 370 380 371
f 372 381 249
f 249 381 258
f 381 383 382
f 259 381 382
f 258 381 259
f 384 260 259
f 384 259 382
f 385 262 260
f 385 260 384
f 385 263 262
f 265 387 386
f 374 265 386
f 252 265 374
f 387 388 386
f 390 266 389
f 266 375 389
f 266 253 375
f 391 390 389
f 269 392 268
f 392 393 268
f 268 393 256
f 393 394 256
f 394 377 256
f 377 394 378
f 383 395 382
f 397 396 395
f 396 382 395
f 396 384 382
f 384 398 385
f 384 396 398
f 398 270 263
f 398 263 385
f 273 387 265
f 273 275 387
f 275 388 387
f 275 399 388
f 390 276 266
f 391 400 390
f 400 276 390
f 400 277 276
f 278 277 400
f 278 400 401
f 403 402 392
f 269 403 392
f 279 403 269
f 392 402 393
f 397 404 396
f 396 404 398
f 398 404 405
f 405 407 406
f 405 406 280
f 398 405 280
f 270 398 280
f 406 282 280
f 284 409 408
f 399 284 408
f 275 284 399
f 409 410 408
f 401 411 278
f 278 411 285
f 279 285 403
f 403 285 411
f 407 412 406
f 282 406 412
f 413 282 412
f 287 282 413
f 415 414 409
f 284 415 409
f 289 415 284
f 409 414 410
f 413 416 287
f 287 416 290
f 416 418 417
f 291 416 417
f 290 416 291
f 417 419 291
f 419 289 291
f 419 415 289
f 418 420 417
f 417 420 419
f 423 422 421
f 425 424 421
f 421 424 423
f 425 426 424
f 429 428 427
f 429 427 422
f 422 427 421
f 427 293 421
f 293 294 421
f 421 294 295
f 430 421 295
f 425 421 430
f 426 425 431
f 431 425 430
f 434 433 432
f 434 432 428
f 428 432 427
f 432 297 427
f 297 298 427
f 427 298 293
f 300 430 295
f 300 302 430
f 302 431 430
f 302 435 431
f 433 436 432
f 432 436 297
f 436 303 297
f 436 437 303
f 305 303 437
f 305 437 438
f 302 307 439
f 440 302 439
f 435 302 440
f 310 439 307
f 441 312 313
f 314 442 313
f 313 442 441
f 315 443 314
f 314 443 442
f 317 443 315
f 446 445 444
f 444 447 318
f 438 444 318
f 305 438 318
f 444 438 446
f 447 320 318
f 448 440 439
f 448 439 310
f 322 448 310
f 449 448 322
f 451 449 450
f 449 323 450
f 449 322 323
f 312 441 323
f 441 450 323
f 441 452 450
f 453 441 442
f 452 441 453
f 454 442 443
f 453 442 454
f 324 455 317
f 455 443 317
f 455 454 443
f 325 455 324
f 445 456 444
f 444 456 447
f 447 456 457
f 457 459 458
f 457 458 326
f 447 457 326
f 320 447 326
f 460 327 326
f 460 326 458
f 460 329 327
f 461 451 450
f 463 462 461
f 450 463 461
f 452 463 450
f 464 452 453
f 463 452 464
f 465 453 454
f 464 453 465
f 466 454 455
f 465 454 466
f 330 466 325
f 325 466 455
f 459 467 458
f 458 467 460
f 460 467 468
f 460 468 329
f 468 333 329
f 468 469 333
f 334 333 469
f 334 469 470
f 471 462 463
f 473 472 471
f 463 473 471
f 464 473 463
f 474 464 465
f 473 464 474
f 337 474 336
f 474 466 336
f 474 465 466
f 336 466 330
f 476 475 339
f 339 475 338
f 478 476 477
f 476 340 477
f 476 339 340
f 341 477 340
f 470 343 334
f 479 343 470
f 472 473 480
f 472 480 481
f 482 473 474
f 480 473 482
f 345 482 337
f 337 482 474
f 475 346 338
f 483 346 475
f 478 477 484
f 478 484 485
f 348 484 341
f 341 484 477
f 479 350 343
f 486 350 479
f 487 481 480
f 489 488 487
f 480 489 487
f 482 489 480
f 351 489 345
f 345 489 482
f 483 353 346
f 490 353 483
f 491 485 484
f 493 491 492
f 492 491 354
f 491 484 354
f 484 348 354
f 356 492 354
f 496 495 494
f 498 497 494
f 494 497 496
f 498 499 497
f 500 357 358
f 501 500 358
f 350 501 358
f 486 501 350
f 488 489 502
f 488 502 503
f 359 502 351
f 351 502 489
f 504 360 361
f 505 504 361
f 353 505 361
f 490 505 353
f 506 493 492
f 506 492 356
f 362 506 356
f 507 506 362
f 363 494 495
f 507 363 495
f 362 363 507
f 494 363 365
f 508 494 365
f 498 494 508
f 499 498 509
f 498 510 509
f 498 508 510
f 510 511 509
f 513 512 500
f 512 357 500
f 512 366 357
f 513 500 501
f 503 502 514
f 503 514 515
f 367 514 359
f 359 514 502
f 516 369 504
f 504 369 360
f 504 505 517
f 504 517 516
f 371 518 508
f 371 508 365
f 508 519 510
f 508 518 519
f 511 510 520
f 520 510 519
f 523 522 521
f 512 523 521
f 372 512 521
f 366 512 372
f 524 515 514
f 524 514 367
f 373 524 367
f 525 524 373
f 373 374 525
f 525 374 526
f 527 375 376
f 528 527 376
f 528 376 369
f 529 528 369
f 516 529 369
f 529 516 517
f 378 530 379
f 379 530 531
f 532 379 531
f 380 379 532
f 371 380 518
f 380 533 518
f 380 532 533
f 518 533 519
f 519 533 534
f 519 534 520
f 521 522 535
f 535 522 536
f 537 381 372
f 521 537 372
f 535 537 521
f 537 383 381
f 538 526 374
f 538 374 386
f 386 388 538
f 538 388 539
f 527 389 375
f 541 540 391
f 541 391 389
f 528 541 389
f 527 528 389
f 543 542 540
f 543 540 541
f 545 544 542
f 545 542 543
f 394 393 544
f 545 394 544
f 546 394 545
f 378 394 530
f 394 547 530
f 394 546 547
f 530 547 531
f 536 548 535
f 535 548 537
f 537 548 549
f 549 551 550
f 549 550 395
f 537 549 395
f 383 537 395
f 550 397 395
f 399 539 388
f 399 552 539
f 540 400 391
f 400 540 401
f 540 553 401
f 540 542 553
f 403 553 402
f 553 544 402
f 553 542 544
f 402 544 393
f 550 551 554
f 554 551 555
f 556 404 397
f 550 556 397
f 554 556 550
f 557 405 404
f 557 404 556
f 557 407 405
f 558 552 399
f 558 399 408
f 408 410 558
f 558 410 559
f 553 411 401
f 411 553 403
f 555 560 554
f 554 560 556
f 556 560 561
f 563 562 561
f 562 556 561
f 562 557 556
f 564 412 407
f 557 564 407
f 562 564 557
f 564 413 412
f 415 565 414
f 565 566 414
f 566 410 414
f 566 559 410
f 563 567 562
f 569 568 567
f 568 562 567
f 568 564 562
f 570 416 413
f 564 570 413
f 568 570 564
f 570 418 416
f 419 571 565
f 419 565 415
f 566 565 572
f 572 565 571
f 569 573 568
f 568 573 570
f 570 573 574
f 574 576 575
f 574 575 420
f 570 574 420
f 418 570 420
f 571 419 420
f 575 571 420
f 577 571 575
f 572 571 578
f 578 571 577
f 576 579 575
f 575 579 577
f 577 579 580
f 583 582 581
f 577 580 578
f 582 584 581
f 583 585 582
f 582 585 584
f 588 587 586
f 590 589 586
f 586 589 588
f 590 591 589
f 594 593 592
f 596 595 592
f 592 595 594
f 422 423 596
f 423 595 596
f 423 597 595
f 424 586 587
f 597 424 587
f 423 424 597
f 586 424 426
f 598 586 426
f 590 586 598
f 591 590 599
f 590 600 599
f 590 598 600
f 600 601 599
f 592 593 602
f 602 593 603
f 602 428 429
f 596 602 429
f 592 602 596
f 596 429 422
f 431 604 598
f 431 598 426
f 598 605 600
f 598 604 605
f 601 600 606
f 606 600 605
f 609 608 607
f 609 607 603
f 603 607 602
f 607 433 602
f 433 434 602
f 602 434 428
f 435 610 604
f 435 604 431
f 604 611 605
f 604 610 611
f 606 605 612
f 605 613 612
f 605 611 613
f 613 614 612
f 607 608 615
f 615 608 616
f 617 436 433
f 607 617 433
f 615 617 607
f 618 437 436
f 618 436 617
f 618 438 437
f 440 619 610
f 440 610 435
f 610 620 611
f 610 619 620
f 611 621 613
f 611 620 621
f 614 613 622
f 613 623 622
f 613 621 623
f 623 624 622
f 616 625 615
f 627 626 625
f 626 615 625
f 626 617 615
f 626 445 446
f 618 626 446
f 617 626 618
f 618 446 438
f 448 619 440
f 619 448 449
f 619 449 620
f 620 449 451
f 628 620 451
f 621 620 628
f 630 623 629
f 623 628 629
f 623 621 628
f 623 630 624
f 627 631 626
f 626 631 445
f 631 456 445
f 631 632 456
f 456 633 457
f 632 633 456
f 459 457 633
f 459 633 634
f 461 628 451
f 461 462 628
f 462 629 628
f 462 635 629
f 467 459 636
f 459 637 636
f 459 634 637
f 638 468 467
f 638 467 636
f 639 469 468
f 639 468 638
f 639 470 469
f 640 635 462
f 640 462 471
f 471 472 640
f 640 472 641
f 642 475 476
f 478 642 476
f 637 643 636
f 645 644 643
f 644 636 643
f 644 638 636
f 638 646 639
f 638 644 646
f 646 479 470
f 646 470 639
f 481 641 472
f 481 647 641
f 649 648 642
f 648 475 642
f 648 483 475
f 478 485 642
f 485 650 642
f 650 649 642
f 650 485 651
f 653 652 651
f 651 652 650
f 655 654 653
f 653 654 652
f 657 656 655
f 655 656 654
f 659 658 657
f 657 658 656
f 661 660 659
f 659 660 658
f 663 662 661
f 661 662 660
f 663 664 662
f 645 665 644
f 644 665 646
f 646 665 666
f 479 646 666
f 667 479 666
f 486 479 667
f 481 487 668
f 669 481 668
f 647 481 669
f 488 668 487
f 648 490 483
f 670 490 648
f 491 651 485
f 651 491 493
f 671 651 493
f 653 651 671
f 653 672 655
f 653 671 672
f 672 495 496
f 657 672 496
f 655 672 657
f 657 496 497
f 657 497 659
f 659 497 499
f 673 659 499
f 661 659 673
f 661 674 663
f 661 673 674
f 664 663 675
f 675 663 674
f 667 501 486
f 676 501 667
f 677 669 668
f 668 488 677
f 488 678 677
f 488 503 678
f 680 505 679
f 505 670 679
f 505 490 670
f 681 680 679
f 506 671 493
f 671 506 507
f 671 507 672
f 672 507 495
f 509 673 499
f 673 509 511
f 682 673 511
f 674 673 682
f 675 674 683
f 683 674 682
f 684 512 513
f 685 684 513
f 501 685 513
f 676 685 501
f 515 678 503
f 515 686 678
f 687 517 680
f 680 517 505
f 680 681 688
f 689 680 688
f 687 680 689
f 690 689 688
f 520 691 682
f 520 682 511
f 683 682 692
f 692 682 691
f 693 522 523
f 512 684 523
f 684 693 523
f 684 694 693
f 684 685 695
f 684 695 694
f 696 686 515
f 696 515 524
f 698 696 697
f 696 525 697
f 696 524 525
f 526 697 525
f 699 528 529
f 517 687 529
f 687 699 529
f 687 700 699
f 701 687 689
f 700 687 701
f 689 690 702
f 703 689 702
f 701 689 703
f 704 703 702
f 706 705 532
f 706 532 531
f 705 708 707
f 533 705 707
f 532 705 533
f 709 534 533
f 709 533 707
f 691 520 534
f 709 691 534
f 710 691 709
f 692 691 711
f 711 691 710
f 713 712 693
f 712 522 693
f 712 536 522
f 713 693 694
f 713 694 714
f 714 694 695
f 698 697 715
f 698 715 716
f 538 717 526
f 717 697 526
f 717 715 697
f 539 717 538
f 699 541 528
f 541 699 543
f 543 699 700
f 543 700 545
f 545 700 701
f 545 701 546
f 546 701 703
f 704 718 703
f 718 546 703
f 718 547 546
f 531 547 706
f 706 547 718
f 708 719 707
f 707 719 709
f 709 719 720
f 709 720 710
f 710 720 721
f 710 721 711
f 712 722 536
f 536 722 548
f 548 723 549
f 722 723 548
f 551 549 723
f 551 723 724
f 725 716 715
f 727 726 725
f 715 727 725
f 717 727 715
f 552 727 539
f 539 727 717
f 724 555 551
f 728 555 724
f 729 726 727
f 731 729 730
f 730 729 558
f 729 727 558
f 727 552 558
f 559 730 558
f 728 732 555
f 555 732 560
f 732 734 733
f 561 732 733
f 560 732 561
f 733 563 561
f 731 730 735
f 731 735 736
f 566 735 559
f 559 735 730
f 734 737 733
f 737 739 738
f 737 738 567
f 733 737 567
f 563 733 567
f 738 569 567
f 736 735 740
f 736 740 741
f 572 740 566
f 566 740 735
f 739 742 738
f 738 742 569
f 742 573 569
f 742 743 573
f 743 745 744
f 574 743 744
f 573 743 574
f 744 576 574
f 746 741 740
f 572 578 740
f 578 747 740
f 747 746 740
f 747 578 748
f 748 749 747
f 744 745 750
f 750 745 751
f 752 579 576
f 744 752 576
f 750 752 744
f 753 580 579
f 753 579 752
f 753 578 580
f 753 748 578
f 753 583 581
f 748 753 581
f 755 754 584
f 584 754 581
f 754 749 581
f 749 748 581
f 755 756 754
f 751 757 750
f 750 757 752
f 752 757 758
f 752 758 753
f 753 758 759
f 759 761 760
f 759 760 585
f 753 759 585
f 583 753 585
f 760 762 585
f 585 762 584
f 762 763 584
f 763 755 584
f 755 763 756
f 761 764 760
f 760 764 762
f 765 587 588
f 589 766 588
f 588 766 765
f 591 766 589
f 767 593 594
f 767 594 768
f 594 769 768
f 594 595 769
f 770 595 597
f 770 769 595
f 597 587 765
f 771 597 765
f 770 597 771
f 771 765 766
f 771 766 772
f 772 766 591
f 599 772 591
f 773 772 599
f 599 601 773
f 773 601 774
f 776 775 767
f 775 593 767
f 775 603 593
f 776 767 768
f 606 778 777
f 774 606 777
f 601 606 774
f 778 779 777
f 780 608 609
f 781 780 609
f 603 781 609
f 775 781 603
f 612 778 606
f 612 614 778
f 614 779 778
f 614 782 779
f 784 783 780
f 783 608 780
f 783 616 608
f 784 780 781
f 785 782 614
f 785 614 622
f 622 624 785
f 785 624 786
f 625 616 787
f 616 788 787
f 616 783 788
f 787 627 625
f 629 789 630
f 786 624 790
f 624 789 790
f 789 791 790
f 624 630 789
f 791 792 790
f 788 793 787
f 793 795 794
f 793 794 631
f 787 793 631
f 627 787 631
f 796 632 631
f 796 631 794
f 797 633 632
f 797 632 796
f 797 634 633
f 635 798 789
f 635 789 629
f 789 799 791
f 789 798 799
f 792 791 800
f 800 791 799
f 803 802 801
f 805 804 801
f 801 804 803
f 804 805 795
f 805 794 795
f 805 806 794
f 794 807 796
f 794 806 807
f 796 808 797
f 796 807 808
f 808 637 634
f 808 634 797
f 640 798 635
f 799 798 809
f 798 641 809
f 641 810 809
f 641 798 640
f 799 809 800
f 813 812 811
f 815 814 811
f 811 814 813
f 814 815 802
f 815 801 802
f 815 816 801
f 801 817 805
f 801 816 817
f 805 818 806
f 805 817 818
f 806 819 807
f 806 818 819
f 807 820 808
f 807 819 820
f 821 643 637
f 808 821 637
f 820 821 808
f 821 645 643
f 647 810 641
f 647 822 810
f 823 648 649
f 812 824 811
f 824 649 811
f 649 650 811
f 649 824 823
f 811 650 652
f 811 652 815
f 815 652 654
f 815 654 816
f 816 654 656
f 816 656 817
f 817 656 658
f 817 658 818
f 818 658 660
f 818 660 819
f 819 660 662
f 819 662 820
f 820 662 664
f 825 820 664
f 821 820 825
f 826 665 645
f 821 826 645
f 825 826 821
f 827 666 665
f 827 665 826
f 827 667 666
f 669 822 647
f 669 828 822
f 829 670 823
f 823 670 648
f 823 824 830
f 823 830 829
f 675 831 825
f 675 825 664
f 825 832 826
f 825 831 832
f 826 833 827
f 826 832 833
f 833 676 667
f 833 667 827
f 834 828 669
f 834 669 677
f 677 678 834
f 834 678 835
f 829 679 670
f 837 836 681
f 837 681 679
f 830 837 679
f 829 830 679
f 838 836 837
f 683 839 831
f 683 831 675
f 831 840 832
f 831 839 840
f 842 833 841
f 833 840 841
f 833 832 840
f 676 833 842
f 843 676 842
f 685 676 843
f 686 845 844
f 835 686 844
f 678 686 835
f 845 846 844
f 836 688 681
f 848 847 690
f 848 690 688
f 838 848 688
f 836 838 688
f 849 847 848
f 692 850 839
f 692 839 683
f 839 851 840
f 839 850 851
f 841 840 852
f 840 853 852
f 840 851 853
f 843 852 853
f 695 843 853
f 685 843 695
f 696 845 686
f 696 698 845
f 698 846 845
f 698 854 846
f 847 702 690
f 856 855 704
f 856 704 702
f 849 856 702
f 847 849 702
f 857 705 706
f 858 855 856
f 857 708 705
f 711 859 850
f 711 850 692
f 859 712 713
f 851 859 713
f 850 859 851
f 851 713 714
f 851 714 853
f 853 714 695
f 716 861 860
f 854 716 860
f 698 716 854
f 861 862 860
f 855 718 704
f 855 858 718
f 858 863 718
f 857 706 718
f 857 718 863
f 857 863 708
f 863 719 708
f 863 864 719
f 864 866 865
f 720 864 865
f 719 864 720
f 867 721 720
f 867 720 865
f 867 868 721
f 721 868 711
f 868 869 711
f 869 859 711
f 859 869 712
f 869 722 712
f 869 870 722
f 870 872 871
f 723 870 871
f 722 870 723
f 871 724 723
f 725 861 716
f 874 873 726
f 726 873 725
f 873 862 725
f 862 861 725
f 874 875 873
f 866 876 865
f 865 876 867
f 867 876 877
f 867 877 868
f 871 872 878
f 878 872 879
f 878 728 724
f 878 724 871
f 729 874 726
f 881 880 731
f 731 880 729
f 880 875 729
f 875 874 729
f 881 882 880
f 879 883 878
f 883 885 884
f 883 884 732
f 878 883 732
f 728 878 732
f 884 734 732
f 736 886 881
f 736 881 731
f 882 881 887
f 887 881 886
f 885 888 884
f 888 890 889
f 888 889 737
f 884 888 737
f 734 884 737
f 889 739 737
f 741 891 886
f 741 886 736
f 887 886 892
f 892 886 891
f 890 893 889
f 893 895 894
f 893 894 742
f 889 893 742
f 739 889 742
f 896 743 742
f 896 742 894
f 896 745 743
f 746 891 741
f 897 892 891
f 746 897 891
f 747 897 746
f 899 898 749
f 898 747 749
f 898 897 747
f 899 900 898
f 895 901 894
f 903 902 901
f 902 894 901
f 902 896 894
f 902 751 745
f 902 745 896
f 754 899 749
f 754 756 899
f 756 900 899
f 756 904 900
f 903 905 902
f 902 905 751
f 905 757 751
f 905 906 757
f 757 907 758
f 906 907 757
f 907 909 908
f 759 907 908
f 758 907 759
f 908 761 759
f 911 910 763
f 911 763 762
f 756 763 904
f 904 763 910
f 909 912 908
f 908 912 761
f 912 764 761
f 912 913 764
f 762 764 911
f 911 764 913
f 915 914 769
f 769 914 768
f 916 769 770
f 916 915 769
f 917 770 771
f 917 916 770
f 919 917 918
f 917 772 918
f 917 771 772
f 773 920 772
f 772 920 918
f 774 920 773
f 922 921 776
f 776 921 775
f 776 768 914
f 776 914 922
f 919 918 923
f 919 923 924
f 925 918 920
f 923 918 925
f 777 926 774
f 926 920 774
f 926 925 920
f 779 926 777
f 921 781 775
f 927 781 921
f 928 924 923
f 930 929 928
f 923 930 928
f 925 930 923
f 931 925 926
f 930 925 931
f 782 931 779
f 779 931 926
f 932 783 784
f 933 932 784
f 781 933 784
f 927 933 781
f 934 929 930
f 936 935 934
f 930 936 934
f 931 936 930
f 785 937 782
f 937 931 782
f 937 936 931
f 786 937 785
f 939 938 932
f 938 783 932
f 938 788 783
f 939 932 933
f 940 935 936
f 940 936 937
f 940 937 941
f 943 941 942
f 942 941 790
f 941 937 790
f 937 786 790
f 792 942 790
f 946 945 944
f 944 947 793
f 938 944 793
f 788 938 793
f 944 938 946
f 947 795 793
f 943 942 948
f 943 948 949
f 800 948 792
f 792 948 942
f 952 951 950
f 952 950 945
f 945 950 944
f 950 802 944
f 802 803 944
f 944 803 804
f 944 804 947
f 947 804 795
f 949 948 809
f 810 949 809
f 953 949 810
f 809 948 800
f 954 812 813
f 951 955 950
f 955 813 950
f 813 814 950
f 813 955 954
f 950 814 802
f 822 953 810
f 822 956 953
f 957 824 954
f 954 824 812
f 954 955 958
f 954 958 957
f 828 956 822
f 828 959 956
f 960 830 957
f 957 830 824
f 957 958 961
f 957 961 960
f 828 834 962
f 963 828 962
f 959 828 963
f 835 962 834
f 960 837 830
f 838 837 960
f 961 838 960
f 964 838 961
f 841 965 842
f 965 843 842
f 966 963 962
f 966 962 835
f 844 966 835
f 967 966 844
f 969 968 846
f 968 844 846
f 968 967 844
f 969 970 968
f 964 971 838
f 838 971 848
f 849 848 971
f 849 971 972
f 852 965 841
f 965 852 843
f 854 973 969
f 854 969 846
f 970 969 974
f 974 969 973
f 856 849 975
f 849 976 975
f 849 972 976
f 975 858 856
f 860 973 854
f 978 977 862
f 862 977 860
f 977 974 860
f 974 973 860
f 978 979 977
f 976 980 975
f 975 980 858
f 980 863 858
f 980 981 863
f 981 983 982
f 864 981 982
f 863 981 864
f 982 866 864
f 868 984 869
f 985 870 869
f 985 869 984
f 985 872 870
f 873 978 862
f 987 986 875
f 875 986 873
f 986 979 873
f 979 978 873
f 987 988 986
f 983 989 982
f 982 989 866
f 989 876 866
f 989 990 876
f 876 991 877
f 990 991 876
f 877 991 868
f 991 992 868
f 992 984 868
f 992 991 993
f 984 994 985
f 984 992 994
f 994 879 872
f 994 872 985
f 880 987 875
f 880 882 987
f 882 988 987
f 882 995 988
f 993 996 992
f 992 996 994
f 994 996 997
f 997 999 998
f 997 998 883
f 994 997 883
f 879 994 883
f 998 885 883
f 887 1001 1000
f 995 887 1000
f 882 887 995
f 1003 1002 1001
f 1001 1002 1000
f 1003 1004 1002
f 999 1005 998
f 1005 1007 1006
f 1005 1006 888
f 998 1005 888
f 885 998 888
f 1006 890 888
f 892 1008 1001
f 892 1001 887
f 1001 1009 1003
f 1001 1008 1009
f 1004 1003 1010
f 1010 1003 1009
f 1007 1011 1006
f 1011 1013 1012
f 1011 1012 893
f 1006 1011 893
f 890 1006 893
f 1012 895 893
f 897 1008 892
f 1008 897 898
f 1008 898 1009
f 898 900 1009
f 900 1010 1009
f 900 1014 1010
f 1013 1015 1012
f 1015 1017 1016
f 1015 1016 901
f 1012 1015 901
f 895 1012 901
f 1016 903 901
f 1020 1019 1018
f 1021 1018 1019
f 904 1014 900
f 904 1022 1014
f 1017 1023 1016
f 1016 1023 903
f 1023 905 903
f 1023 1024 905
f 905 1025 906
f 1024 1025 905
f 1025 1027 1026
f 907 1025 1026
f 906 1025 907
f 1026 909 907
f 1020 1018 1028
f 1020 1028 1029
f 1030 910 911
f 1018 1030 911
f 1028 1018 911
f 1030 1018 1021
f 904 910 1022
f 1022 910 1030
f 1027 1031 1026
f 1026 1031 909
f 1031 912 909
f 1031 1032 912
f 1028 913 1029
f 913 1032 1029
f 913 912 1032
f 913 1028 911
f 1033 914 915
f 916 1034 915
f 915 1034 1033
f 917 1035 916
f 916 1035 1034
f 919 1035 917
f 1036 921 922
f 914 1033 922
f 1033 1036 922
f 1033 1037 1036
f 1034 1039 1038
f 1037 1034 1038
f 1033 1034 1037
f 1039 1034 1035
f 1039 1035 1040
f 1035 919 1040
f 919 1041 1040
f 919 924 1041
f 1042 927 1036
f 1036 927 921
f 1043 1036 1037
f 1042 1036 1043
f 1037 1038 1044
f 1037 1044 1043
f 924 928 1045
f 1046 924 1045
f 1041 924 1046
f 929 1045 928
f 1048 1047 1042
f 1047 927 1042
f 1047 933 927
f 1048 1042 1043
f 1048 1043 1049
f 1049 1043 1044
f 1050 1046 1045
f 1050 1045 929
f 934 1050 929
f 1051 1050 934
f 934 935 1051
f 1051 935 1052
f 1053 938 939
f 1054 1053 939
f 933 1054 939
f 1047 1054 933
f 935 940 1055
f 1056 935 1055
f 1052 935 1056
f 941 1057 940
f 940 1057 1055
f 943 1057 941
f 1058 945 946
f 1059 1058 946
f 1059 946 938
f 1060 1059 938
f 1053 1060 938
f 1060 1053 1054
f 1056 1055 1061
f 1056 1061 1062
f 1063 1055 1057
f 1061 1055 1063
f 949 1063 943
f 943 1063 1057
f 1064 951 952
f 945 1058 952
f 1058 1064 952
f 1058 1065 1064
f 1058 1059 1066
f 1058 1066 1065
f 1067 1062 1061
f 1067 1061 1063
f 1067 1063 1068
f 1063 949 1068
f 949 1069 1068
f 949 953 1069
f 1070 955 1064
f 1064 955 951
f 1065 1072 1071
f 1070 1065 1071
f 1064 1065 1070
f 1072 1065 1066
f 956 1074 1073
f 1069 956 1073
f 953 956 1069
f 1074 1075 1073
f 1077 1076 1070
f 1076 955 1070
f 1076 958 955
f 1077 1070 1071
f 959 1078 1074
f 959 1074 956
f 1075 1074 1079
f 1079 1074 1078
f 1076 961 958
f 1080 961 1076
f 963 1081 1078
f 963 1078 959
f 1079 1078 1082
f 1078 1083 1082
f 1078 1081 1083
f 1083 1084 1082
f 1086 964 1085
f 964 1080 1085
f 964 961 1080
f 1087 1086 1085
f 966 1081 963
f 1081 966 967
f 1081 967 1083
f 967 968 1083
f 968 1088 1083
f 1088 1084 1083
f 968 1089 1088
f 970 1089 968
f 1086 971 964
f 972 971 1086
f 1087 972 1086
f 1090 972 1087
f 1091 1088 1089
f 1089 970 1091
f 970 1092 1091
f 970 974 1092
f 1090 976 972
f 1093 976 1090
f 974 977 1094
f 1095 974 1094
f 1092 974 1095
f 979 1094 977
f 980 976 1096
f 976 1097 1096
f 976 1093 1097
f 1098 981 980
f 1098 980 1096
f 1098 983 981
f 1099 1095 1094
f 1099 1094 979
f 986 1099 979
f 1100 1099 986
f 986 988 1100
f 1100 988 1101
f 1097 1102 1096
f 1104 1103 1102
f 1103 1096 1102
f 1103 1098 1096
f 1105 989 983
f 1098 1105 983
f 1103 1105 1098
f 1106 990 989
f 1106 989 1105
f 1107 991 990
f 1107 990 1106
f 1107 993 991
f 995 1101 988
f 995 1108 1101
f 1103 1104 1109
f 1109 1104 1110
f 1103 1111 1105
f 1103 1109 1111
f 1105 1112 1106
f 1105 1111 1112
f 1106 1113 1107
f 1106 1112 1113
f 1114 996 993
f 1107 1114 993
f 1113 1114 1107
f 1115 997 996
f 1115 996 1114
f 1115 999 997
f 1116 1108 995
f 1116 995 1000
f 1118 1116 1117
f 1116 1002 1117
f 1116 1000 1002
f 1004 1117 1002
f 1110 1119 1109
f 1121 1120 1119
f 1120 1109 1119
f 1120 1111 1109
f 1111 1122 1112
f 1111 1120 1122
f 1124 1113 1123
f 1113 1122 1123
f 1113 1112 1122
f 1126 1125 1124
f 1125 1113 1124
f 1125 1114 1113
f 1114 1127 1115
f 1114 1125 1127
f 1128 1005 999
f 1115 1128 999
f 1127 1128 1115
f 1128 1007 1005
f 1129 1118 1117
f 1117 1004 1129
f 1004 1130 1129
f 1004 1010 1130
f 1133 1132 1131
f 1134 1120 1121
f 1131 1135 1133
f 1120 1134 1122
f 1122 1134 1136
f 1122 1136 1123
f 1126 1137 1125
f 1125 1137 1127
f 1127 1137 1138
f 1140 1139 1138
f 1139 1127 1138
f 1139 1128 1127
f 1141 1011 1007
f 1128 1141 1007
f 1139 1141 1128
f 1141 1013 1011
f 1144 1143 1142
f 1143 1130 1142
f 1130 1014 1142
f 1130 1010 1014
f 1147 1146 1145
f 1145 1148 1147
f 1131 1132 1149
f 1149 1132 1150
f 1135 1131 1151
f 1131 1152 1151
f 1131 1149 1152
f 1152 1153 1151
f 1140 1154 1139
f 1139 1154 1141
f 1141 1154 1155
f 1141 1155 1013
f 1155 1015 1013
f 1155 1156 1015
f 1158 1157 1017
f 1015 1158 1017
f 1156 1158 1015
f 1160 1159 1157
f 1160 1157 1158
f 1162 1161 1159
f 1162 1159 1160
f 1164 1163 1161
f 1164 1161 1162
f 1166 1165 1163
f 1166 1163 1164
f 1019 1020 1165
f 1166 1019 1165
f 1167 1019 1166
f 1142 1168 1021
f 1167 1142 1021
f 1019 1167 1021
f 1144 1142 1167
f 1022 1168 1014
f 1014 1168 1142
f 1145 1146 1169
f 1169 1146 1170
f 1148 1145 1171
f 1145 1172 1171
f 1145 1169 1172
f 1171 1172 1150
f 1172 1149 1150
f 1172 1173 1149
f 1149 1174 1152
f 1149 1173 1174
f 1153 1152 1175
f 1175 1152 1174
f 1157 1023 1017
f 1023 1157 1024
f 1024 1157 1159
f 1024 1159 1025
f 1025 1159 1161
f 1025 1161 1027
f 1161 1176 1027
f 1161 1163 1176
f 1177 1163 1165
f 1176 1163 1177
f 1029 1177 1020
f 1020 1177 1165
f 1168 1030 1021
f 1030 1168 1022
f 1170 1178 1169
f 1180 1179 1178
f 1179 1169 1178
f 1179 1172 1169
f 1182 1173 1181
f 1173 1179 1181
f 1173 1172 1179
f 1173 1182 1174
f 1174 1182 1183
f 1174 1183 1175
f 1176 1031 1027
f 1031 1176 1032
f 1032 1176 1177
f 1032 1177 1029
f 1180 1184 1179
f 1179 1184 1181
f 1186 1185 1039
f 1039 1185 1038
f 1187 1039 1040
f 1187 1186 1039
f 1040 1041 1187
f 1187 1041 1188
f 1190 1044 1189
f 1044 1185 1189
f 1044 1038 1185
f 1191 1190 1189
f 1046 1188 1041
f 1046 1192 1188
f 1193 1047 1048
f 1049 1194 1048
f 1048 1194 1193
f 1044 1190 1049
f 1190 1194 1049
f 1190 1195 1194
f 1190 1191 1196
f 1190 1196 1195
f 1197 1192 1046
f 1197 1046 1050
f 1199 1197 1198
f 1197 1051 1198
f 1197 1050 1051
f 1052 1198 1051
f 1200 1054 1193
f 1193 1054 1047
f 1194 1202 1201
f 1200 1194 1201
f 1193 1194 1200
f 1202 1194 1195
f 1202 1195 1203
f 1203 1195 1196
f 1199 1198 1204
f 1199 1204 1205
f 1056 1204 1052
f 1052 1204 1198
f 1206 1059 1060
f 1207 1206 1060
f 1207 1060 1054
f 1208 1207 1054
f 1200 1208 1054
f 1208 1200 1201
f 1205 1204 1209
f 1205 1209 1210
f 1062 1209 1056
f 1056 1209 1204
f 1212 1211 1206
f 1211 1059 1206
f 1211 1066 1059
f 1212 1206 1207
f 1213 1210 1209
f 1213 1209 1062
f 1067 1213 1062
f 1214 1213 1067
f 1215 1067 1068
f 1215 1214 1067
f 1068 1069 1215
f 1215 1069 1216
f 1217 1071 1072
f 1066 1211 1218
f 1217 1066 1218
f 1219 1217 1218
f 1072 1066 1217
f 1220 1219 1218
f 1221 1216 1069
f 1221 1069 1073
f 1073 1075 1221
f 1221 1075 1222
f 1223 1076 1077
f 1071 1217 1077
f 1217 1223 1077
f 1217 1224 1223
f 1225 1217 1219
f 1224 1217 1225
f 1219 1220 1226
f 1219 1226 1225
f 1079 1222 1075
f 1079 1227 1222
f 1228 1080 1223
f 1223 1080 1076
f 1229 1223 1224
f 1228 1223 1229
f 1230 1224 1225
f 1229 1224 1230
f 1225 1226 1231
f 1232 1225 1231
f 1230 1225 1232
f 1233 1232 1231
f 1234 1227 1079
f 1234 1079 1082
f 1082 1084 1234
f 1234 1084 1235
f 1228 1085 1080
f 1228 1229 1236
f 1087 1228 1236
f 1237 1087 1236
f 1228 1087 1085
f 1239 1238 1236
f 1229 1239 1236
f 1230 1239 1229
f 1232 1241 1240
f 1239 1232 1240
f 1230 1232 1239
f 1241 1232 1233
f 1088 1243 1242
f 1235 1088 1242
f 1084 1088 1235
f 1243 1244 1242
f 1237 1090 1087
f 1245 1090 1237
f 1246 1238 1239
f 1246 1239 1240
f 1243 1088 1091
f 1249 1248 1247
f 1248 1249 1092
f 1249 1244 1092
f 1243 1091 1092
f 1243 1092 1244
f 1245 1093 1090
f 1250 1093 1245
f 1251 1247 1248
f 1248 1092 1251
f 1092 1252 1251
f 1092 1095 1252
f 1250 1097 1093
f 1253 1097 1250
f 1095 1099 1254
f 1255 1095 1254
f 1252 1095 1255
f 1100 1256 1099
f 1099 1256 1254
f 1101 1256 1100
f 1102 1097 1257
f 1097 1258 1257
f 1097 1253 1258
f 1257 1104 1102
f 1255 1254 1259
f 1255 1259 1260
f 1261 1254 1256
f 1259 1254 1261
f 1108 1261 1101
f 1101 1261 1256
f 1257 1258 1262
f 1262 1258 1263
f 1262 1110 1104
f 1262 1104 1257
f 1266 1265 1264
f 1268 1267 1264
f 1268 1264 1265
f 1270 1269 1267
f 1270 1267 1268
f 1260 1259 1271
f 1270 1272 1269
f 1271 1259 1261
f 1271 1261 1273
f 1273 1261 1108
f 1116 1273 1108
f 1274 1273 1116
f 1116 1118 1274
f 1274 1118 1275
f 1278 1277 1276
f 1276 1279 1278
f 1263 1280 1262
f 1280 1282 1281
f 1280 1281 1119
f 1262 1280 1119
f 1110 1262 1119
f 1281 1121 1119
f 1123 1283 1124
f 1283 1126 1124
f 1286 1285 1284
f 1288 1287 1284
f 1288 1284 1285
f 1287 1288 1266
f 1264 1287 1266
f 1289 1287 1264
f 1290 1264 1267
f 1289 1264 1290
f 1291 1267 1269
f 1290 1267 1291
f 1269 1272 1292
f 1269 1292 1291
f 1118 1129 1293
f 1294 1118 1293
f 1275 1118 1294
f 1130 1293 1129
f 1276 1277 1295
f 1295 1277 1296
f 1279 1276 1297
f 1276 1298 1297
f 1276 1295 1298
f 1298 1299 1297
f 1281 1282 1133
f 1282 1132 1133
f 1282 1300 1132
f 1301 1133 1135
f 1301 1281 1133
f 1301 1134 1121
f 1281 1301 1121
f 1302 1136 1134
f 1302 1134 1301
f 1283 1123 1136
f 1302 1283 1136
f 1303 1283 1302
f 1283 1303 1126
f 1303 1304 1126
f 1304 1137 1126
f 1303 1305 1304
f 1137 1306 1138
f 1304 1306 1137
f 1140 1138 1306
f 1140 1306 1307
f 1286 1284 1308
f 1286 1308 1309
f 1310 1284 1287
f 1308 1284 1310
f 1311 1287 1289
f 1310 1287 1311
f 1312 1289 1290
f 1311 1289 1312
f 1313 1290 1291
f 1312 1290 1313
f 1291 1292 1314
f 1315 1291 1314
f 1313 1291 1315
f 1317 1316 1315
f 1317 1315 1314
f 1319 1318 1316
f 1319 1316 1317
f 1318 1319 1294
f 1318 1294 1293
f 1144 1318 1293
f 1143 1144 1293
f 1143 1293 1130
f 1322 1321 1320
f 1322 1320 1296
f 1320 1295 1296
f 1320 1323 1295
f 1323 1146 1147
f 1298 1323 1147
f 1295 1323 1298
f 1325 1324 1148
f 1148 1324 1147
f 1324 1299 1147
f 1299 1298 1147
f 1300 1324 1325
f 1150 1300 1325
f 1132 1300 1150
f 1151 1301 1135
f 1301 1151 1153
f 1326 1301 1153
f 1302 1301 1326
f 1328 1303 1327
f 1303 1326 1327
f 1303 1302 1326
f 1303 1328 1305
f 1307 1329 1140
f 1140 1329 1154
f 1308 1155 1309
f 1155 1329 1309
f 1155 1154 1329
f 1155 1308 1156
f 1156 1308 1310
f 1156 1310 1158
f 1158 1310 1311
f 1158 1311 1160
f 1160 1311 1312
f 1160 1312 1162
f 1162 1312 1313
f 1162 1313 1164
f 1164 1313 1315
f 1164 1315 1166
f 1166 1315 1316
f 1166 1316 1167
f 1167 1316 1318
f 1167 1318 1144
f 1321 1330 1320
f 1332 1331 1330
f 1331 1320 1330
f 1331 1323 1320
f 1331 1170 1146
f 1331 1146 1323
f 1171 1325 1148
f 1325 1171 1150
f 1175 1333 1326
f 1175 1326 1153
f 1327 1326 1334
f 1334 1326 1333
f 1331 1332 1335
f 1335 1332 1336
f 1337 1178 1170
f 1331 1337 1170
f 1335 1337 1331
f 1337 1180 1178
f 1181 1338 1182
f 1339 1183 1182
f 1339 1182 1338
f 1339 1340 1183
f 1183 1340 1175
f 1340 1341 1175
f 1341 1333 1175
f 1333 1341 1334
f 1335 1336 1342
f 1342 1336 1343
f 1345 1337 1344
f 1337 1342 1344
f 1337 1335 1342
f 1337 1345 1180
f 1345 1184 1180
f 1345 1346 1184
f 1181 1184 1338
f 1184 1347 1338
f 1184 1346 1347
f 1349 1348 1347
f 1348 1338 1347
f 1348 1339 1338
f 1340 1339 1350
f 1350 1339 1348
f 1343 1351 1342
f 1342 1351 1344
f 1349 1352 1348
f 1348 1352 1350
f 1353 1185 1186
f 1187 1354 1186
f 1186 1354 1353
f 1188 1354 1187
f 1353 1189 1185
f 1189 1353 1191
f 1353 1355 1191
f 1353 1354 1355
f 1192 1355 1188
f 1188 1355 1354
f 1357 1356 1355
f 1356 1191 1355
f 1356 1196 1191
f 1359 1357 1358
f 1358 1357 1197
f 1357 1355 1197
f 1355 1192 1197
f 1199 1358 1197
f 1360 1201 1202
f 1360 1202 1361
f 1202 1362 1361
f 1202 1203 1362
f 1203 1196 1356
f 1203 1356 1362
f 1359 1358 1363
f 1359 1363 1364
f 1205 1363 1199
f 1199 1363 1358
f 1365 1207 1208
f 1366 1365 1208
f 1366 1208 1201
f 1367 1366 1201
f 1360 1367 1201
f 1367 1360 1361
f 1364 1363 1368
f 1364 1368 1369
f 1210 1368 1205
f 1205 1368 1363
f 1370 1211 1212
f 1371 1370 1212
f 1371 1212 1207
f 1372 1371 1207
f 1365 1372 1207
f 1372 1365 1366
f 1373 1369 1368
f 1373 1368 1210
f 1213 1373 1210
f 1374 1373 1213
f 1375 1213 1214
f 1375 1374 1213
f 1377 1375 1376
f 1375 1215 1376
f 1375 1214 1215
f 1216 1376 1215
f 1370 1218 1211
f 1379 1378 1220
f 1379 1220 1218
f 1371 1379 1218
f 1370 1371 1218
f 1380 1378 1379
f 1381 1377 1376
f 1381 1376 1216
f 1221 1381 1216
f 1382 1381 1221
f 1221 1222 1382
f 1382 1222 1383
f 1384 1226 1378
f 1378 1226 1220
f 1378 1380 1385
f 1386 1378 1385
f 1384 1378 1386
f 1387 1386 1385
f 1227 1383 1222
f 1227 1388 1383
f 1384 1231 1226
f 1231 1384 1233
f 1384 1389 1233
f 1384 1386 1389
f 1386 1387 1390
f 1386 1390 1389
f 1391 1388 1227
f 1391 1227 1234
f 1234 1235 1391
f 1391 1235 1392
f 1393 1237 1236
f 1238 1393 1236
f 1394 1240 1241
f 1233 1389 1241
f 1389 1394 1241
f 1389 1395 1394
f 1389 1390 1396
f 1389 1396 1395
f 1397 1392 1235
f 1397 1235 1242
f 1242 1244 1397
f 1397 1244 1398
f 1399 1245 1393
f 1393 1245 1237
f 1246 1400 1238
f 1400 1393 1238
f 1400 1399 1393
f 1240 1394 1246
f 1394 1400 1246
f 1394 1401 1400
f 1395 1403 1402
f 1401 1395 1402
f 1394 1395 1401
f 1403 1395 1396
f 1405 1404 1249
f 1405 1249 1247
f 1244 1249 1398
f 1398 1249 1404
f 1407 1406 1399
f 1406 1245 1399
f 1406 1250 1245
f 1407 1399 1400
f 1407 1400 1408
f 1408 1400 1401
f 1408 1401 1409
f 1409 1401 1402
f 1247 1251 1410
f 1411 1247 1410
f 1405 1247 1411
f 1252 1410 1251
f 1406 1253 1250
f 1412 1253 1406
f 1415 1414 1413
f 1413 1414 1411
f 1410 1413 1411
f 1416 1413 1410
f 1255 1416 1252
f 1252 1416 1410
f 1419 1418 1417
f 1412 1419 1417
f 1258 1412 1417
f 1253 1412 1258
f 1422 1421 1420
f 1424 1423 1420
f 1424 1420 1421
f 1423 1424 1415
f 1413 1423 1415
f 1425 1423 1413
f 1426 1413 1416
f 1425 1413 1426
f 1260 1426 1255
f 1255 1426 1416
f 1417 1418 1427
f 1427 1418 1428
f 1427 1263 1258
f 1427 1258 1417
f 1422 1420 1429
f 1422 1429 1430
f 1266 1429 1265
f 1429 1423 1265
f 1429 1420 1423
f 1265 1423 1268
f 1268 1423 1425
f 1268 1425 1270
f 1270 1425 1426
f 1272 1270 1431
f 1270 1426 1431
f 1260 1271 1431
f 1260 1431 1426
f 1431 1271 1432
f 1271 1433 1432
f 1271 1273 1433
f 1435 1433 1434
f 1433 1274 1434
f 1433 1273 1274
f 1275 1434 1274
f 1437 1436 1278
f 1278 1436 1277
f 1438 1427 1279
f 1427 1437 1279
f 1437 1278 1279
f 1427 1428 1437
f 1439 1280 1263
f 1427 1439 1263
f 1438 1439 1427
f 1439 1282 1280
f 1286 1440 1285
f 1441 1430 1429
f 1285 1441 1429
f 1288 1285 1429
f 1441 1285 1440
f 1288 1429 1266
f 1442 1292 1431
f 1431 1292 1272
f 1431 1432 1443
f 1444 1431 1443
f 1442 1431 1444
f 1444 1443 1435
f 1434 1444 1435
f 1445 1444 1434
f 1294 1445 1275
f 1275 1445 1434
f 1448 1447 1446
f 1436 1448 1446
f 1296 1436 1446
f 1277 1436 1296
f 1297 1438 1279
f 1438 1297 1299
f 1449 1438 1299
f 1439 1438 1449
f 1449 1300 1282
f 1449 1282 1439
f 1305 1450 1304
f 1451 1306 1304
f 1451 1304 1450
f 1451 1307 1306
f 1453 1452 1440
f 1286 1453 1440
f 1309 1453 1286
f 1440 1452 1441
f 1442 1314 1292
f 1314 1442 1317
f 1317 1442 1444
f 1317 1444 1319
f 1319 1444 1445
f 1319 1445 1294
f 1446 1447 1322
f 1447 1321 1322
f 1447 1454 1321
f 1446 1322 1296
f 1324 1449 1299
f 1449 1324 1300
f 1327 1455 1328
f 1450 1305 1328
f 1455 1450 1328
f 1456 1450 1455
f 1450 1457 1451
f 1450 1456 1457
f 1458 1329 1307
f 1451 1458 1307
f 1457 1458 1451
f 1458 1459 1329
f 1459 1309 1329
f 1459 1453 1309
f 1454 1460 1321
f 1321 1460 1330
f 1332 1330 1460
f 1332 1460 1461
f 1334 1462 1455
f 1334 1455 1327
f 1455 1463 1456
f 1455 1462 1463
f 1456 1464 1457
f 1456 1463 1464
f 1466 1458 1465
f 1458 1464 1465
f 1458 1457 1464
f 1458 1466 1459
f 1461 1336 1332
f 1467 1336 1461
f 1340 1468 1341
f 1462 1334 1341
f 1468 1462 1341
f 1469 1462 1468
f 1471 1463 1470
f 1463 1469 1470
f 1463 1462 1469
f 1463 1471 1464
f 1464 1471 1472
f 1464 1472 1465
f 1467 1343 1336
f 1473 1343 1467
f 1344 1474 1345
f 1475 1346 1345
f 1475 1345 1474
f 1476 1347 1346
f 1476 1346 1475
f 1476 1349 1347
f 1350 1477 1468
f 1350 1468 1340
f 1468 1478 1469
f 1468 1477 1478
f 1470 1469 1479
f 1479 1469 1478
f 1473 1480 1343
f 1343 1480 1351
f 1351 1480 1344
f 1480 1481 1344
f 1481 1474 1344
f 1481 1480 1482
f 1484 1475 1483
f 1475 1481 1483
f 1475 1474 1481
f 1475 1484 1476
f 1476 1484 1485
f 1476 1485 1349
f 1485 1352 1349
f 1485 1486 1352
f 1350 1352 1477
f 1352 1487 1477
f 1352 1486 1487
f 1477 1487 1478
f 1478 1487 1488
f 1478 1488 1479
f 1482 1489 1481
f 1481 1489 1483
f 1490 1356 1357
f 1359 1490 1357
f 1491 1361 1362
f 1492 1491 1362
f 1492 1362 1356
f 1493 1492 1356
f 1490 1493 1356
f 1490 1359 1493
f 1359 1494 1493
f 1359 1364 1494
f 1495 1366 1367
f 1361 1491 1367
f 1491 1495 1367
f 1491 1496 1495
f 1491 1492 1497
f 1491 1497 1496
f 1369 1494 1364
f 1369 1498 1494
f 1499 1371 1372
f 1366 1495 1372
f 1495 1499 1372
f 1495 1500 1499
f 1496 1502 1501
f 1500 1496 1501
f 1495 1496 1500
f 1502 1496 1497
f 1369 1373 1503
f 1504 1369 1503
f 1498 1369 1504
f 1503 1373 1505
f 1373 1506 1505
f 1373 1374 1506
f 1508 1506 1507
f 1506 1375 1507
f 1506 1374 1375
f 1377 1507 1375
f 1499 1379 1371
f 1379 1499 1380
f 1499 1509 1380
f 1499 1500 1509
f 1500 1501 1510
f 1500 1510 1509
f 1511 1504 1503
f 1511 1503 1505
f 1512 1508 1507
f 1512 1507 1377
f 1381 1512 1377
f 1513 1512 1381
f 1515 1513 1514
f 1513 1382 1514
f 1513 1381 1382
f 1383 1514 1382
f 1509 1385 1380
f 1387 1385 1509
f 1510 1387 1509
f 1516 1387 1510
f 1517 1515 1514
f 1514 1383 1517
f 1383 1518 1517
f 1383 1388 1518
f 1516 1390 1387
f 1519 1390 1516
f 1520 1518 1388
f 1520 1388 1391
f 1391 1392 1520
f 1520 1392 1521
f 1523 1396 1522
f 1396 1519 1522
f 1396 1390 1519
f 1524 1523 1522
f 1392 1397 1525
f 1526 1392 1525
f 1521 1392 1526
f 1398 1525 1397
f 1527 1402 1403
f 1396 1523 1403
f 1523 1527 1403
f 1523 1528 1527
f 1523 1524 1529
f 1530 1523 1529
f 1528 1523 1530
f 1531 1530 1529
f 1526 1525 1404
f 1405 1526 1404
f 1532 1526 1405
f 1404 1525 1398
f 1533 1406 1407
f 1408 1534 1407
f 1407 1534 1533
f 1409 1535 1408
f 1408 1535 1534
f 1402 1527 1409
f 1527 1535 1409
f 1527 1536 1535
f 1537 1527 1528
f 1536 1527 1537
f 1530 1539 1538
f 1537 1530 1538
f 1528 1530 1537
f 1539 1530 1531
f 1411 1532 1405
f 1411 1540 1532
f 1541 1412 1533
f 1533 1412 1406
f 1534 1543 1542
f 1541 1534 1542
f 1533 1534 1541
f 1545 1544 1543
f 1534 1545 1543
f 1535 1545 1534
f 1536 1547 1546
f 1545 1536 1546
f 1535 1536 1545
f 1547 1536 1537
f 1547 1537 1548
f 1548 1537 1538
f 1551 1550 1549
f 1553 1552 1549
f 1553 1549 1550
f 1555 1554 1552
f 1555 1552 1553
f 1414 1415 1554
f 1555 1414 1554
f 1556 1414 1555
f 1411 1414 1540
f 1540 1414 1556
f 1558 1557 1419
f 1419 1557 1418
f 1419 1412 1541
f 1559 1419 1541
f 1558 1419 1559
f 1559 1541 1542
f 1560 1544 1545
f 1560 1545 1546
f 1551 1549 1561
f 1551 1561 1562
f 1422 1561 1421
f 1561 1552 1421
f 1561 1549 1552
f 1421 1552 1424
f 1424 1552 1554
f 1424 1554 1415
f 1557 1428 1418
f 1563 1428 1557
f 1562 1561 1564
f 1562 1564 1565
f 1430 1564 1422
f 1422 1564 1561
f 1566 1432 1433
f 1435 1566 1433
f 1568 1567 1437
f 1437 1567 1436
f 1437 1428 1563
f 1437 1563 1568
f 1571 1570 1569
f 1569 1570 1565
f 1564 1569 1565
f 1572 1569 1564
f 1441 1572 1430
f 1430 1572 1564
f 1566 1443 1432
f 1443 1566 1435
f 1574 1573 1448
f 1448 1573 1447
f 1448 1436 1567
f 1448 1567 1574
f 1571 1569 1575
f 1571 1575 1576
f 1453 1575 1452
f 1575 1572 1452
f 1575 1569 1572
f 1452 1572 1441
f 1573 1454 1447
f 1577 1454 1573
f 1580 1579 1578
f 1582 1581 1578
f 1582 1578 1579
f 1584 1583 1581
f 1584 1581 1582
f 1585 1583 1584
f 1576 1575 1586
f 1576 1586 1587
f 1459 1586 1453
f 1453 1586 1575
f 1577 1588 1454
f 1454 1588 1460
f 1461 1460 1588
f 1461 1588 1589
f 1590 1580 1578
f 1590 1578 1581
f 1590 1581 1591
f 1591 1581 1583
f 1591 1583 1592
f 1592 1583 1585
f 1587 1586 1466
f 1465 1587 1466
f 1593 1587 1465
f 1466 1586 1459
f 1596 1595 1594
f 1589 1596 1594
f 1467 1589 1594
f 1461 1589 1467
f 1598 1597 1471
f 1598 1471 1470
f 1471 1599 1472
f 1597 1599 1471
f 1465 1472 1593
f 1593 1472 1599
f 1595 1600 1594
f 1467 1594 1600
f 1601 1467 1600
f 1473 1467 1601
f 1479 1598 1470
f 1479 1602 1598
f 1480 1473 1603
f 1473 1604 1603
f 1473 1601 1604
f 1603 1482 1480
f 1483 1605 1484
f 1606 1485 1484
f 1606 1484 1605
f 1485 1606 1607
f 1608 1485 1607
f 1486 1485 1608
f 1486 1609 1487
f 1608 1609 1486
f 1487 1610 1488
f 1609 1610 1487
f 1479 1488 1602
f 1602 1488 1610
f 1603 1604 1611
f 1611 1604 1612
f 1613 1489 1482
f 1603 1613 1482
f 1611 1613 1603
f 1605 1483 1489
f 1613 1605 1489
f 1614 1605 1613
f 1616 1606 1615
f 1606 1614 1615
f 1606 1605 1614
f 1606 1616 1607
f 1612 1617 1611
f 1611 1617 1613
f 1613 1617 1618
f 1613 1618 1614
f 1614 1618 1619
f 1614 1619 1615
f 1620 1492 1493
f 1494 1620 1493
f 1621 1497 1620
f 1620 1497 1492
f 1498 1621 1494
f 1494 1621 1620
f 1622 1501 1502
f 1623 1622 1502
f 1623 1502 1497
f 1624 1623 1497
f 1621 1624 1497
f 1621 1498 1624
f 1498 1625 1624
f 1498 1504 1625
f 1626 1505 1506
f 1508 1626 1506
f 1627 1510 1622
f 1622 1510 1501
f 1622 1623 1628
f 1622 1628 1627
f 1629 1625 1504
f 1629 1504 1511
f 1629 1511 1505
f 1630 1629 1505
f 1626 1630 1505
f 1629 1630 1631
f 1512 1632 1508
f 1632 1626 1508
f 1632 1630 1626
f 1513 1633 1512
f 1512 1633 1632
f 1515 1633 1513
f 1634 1516 1627
f 1627 1516 1510
f 1627 1628 1635
f 1636 1627 1635
f 1634 1627 1636
f 1637 1636 1635
f 1638 1631 1630
f 1638 1630 1632
f 1638 1632 1639
f 1641 1640 1639
f 1632 1641 1639
f 1633 1641 1632
f 1517 1642 1515
f 1642 1633 1515
f 1642 1641 1633
f 1518 1642 1517
f 1643 1519 1634
f 1634 1519 1516
f 1644 1634 1636
f 1643 1634 1644
f 1636 1637 1645
f 1646 1636 1645
f 1644 1636 1646
f 1647 1646 1645
f 1648 1640 1641
f 1650 1649 1648
f 1641 1650 1648
f 1642 1650 1641
f 1520 1651 1518
f 1651 1642 1518
f 1651 1650 1642
f 1521 1651 1520
f 1643 1522 1519
f 1522 1643 1524
f 1643 1652 1524
f 1643 1644 1652
f 1653 1644 1646
f 1652 1644 1653
f 1646 1647 1654
f 1646 1654 1653
f 1649 1650 1655
f 1649 1655 1656
f 1657 1650 1651
f 1655 1650 1657
f 1526 1657 1521
f 1521 1657 1651
f 1652 1529 1524
f 1529 1652 1531
f 1652 1658 1531
f 1652 1653 1658
f 1653 1654 1659
f 1653 1659 1658
f 1656 1655 1660
f 1656 1660 1661
f 1662 1655 1657
f 1660 1655 1662
f 1532 1662 1526
f 1526 1662 1657
f 1664 1663 1539
f 1539 1663 1538
f 1664 1539 1531
f 1665 1664 1531
f 1658 1665 1531
f 1664 1665 1666
f 1658 1659 1667
f 1668 1658 1667
f 1665 1658 1668
f 1670 1669 1668
f 1670 1668 1667
f 1672 1671 1669
f 1672 1669 1670
f 1671 1672 1661
f 1660 1671 1661
f 1673 1671 1660
f 1674 1660 1662
f 1673 1660 1674
f 1540 1674 1532
f 1532 1674 1662
f 1675 1542 1543
f 1544 1675 1543
f 1677 1676 1547
f 1547 1676 1546
f 1678 1547 1548
f 1678 1677 1547
f 1548 1538 1663
f 1548 1663 1678
f 1679 1666 1665
f 1681 1680 1679
f 1665 1681 1679
f 1668 1681 1665
f 1551 1681 1550
f 1681 1669 1550
f 1681 1668 1669
f 1550 1669 1553
f 1553 1669 1671
f 1553 1671 1555
f 1555 1671 1673
f 1555 1673 1556
f 1556 1673 1674
f 1556 1674 1540
f 1682 1557 1558
f 1682 1558 1683
f 1558 1684 1683
f 1558 1559 1684
f 1559 1542 1675
f 1685 1559 1675
f 1684 1559 1685
f 1685 1675 1544
f 1560 1685 1544
f 1686 1685 1560
f 1560 1546 1676
f 1560 1676 1686
f 1680 1681 1687
f 1680 1687 1688
f 1562 1687 1551
f 1551 1687 1681
f 1689 1563 1682
f 1682 1563 1557
f 1682 1683 1690
f 1682 1690 1689
f 1688 1687 1691
f 1688 1691 1692
f 1565 1691 1562
f 1562 1691 1687
f 1693 1567 1568
f 1563 1689 1568
f 1689 1693 1568
f 1689 1694 1693
f 1689 1690 1695
f 1689 1695 1694
f 1698 1697 1696
f 1700 1699 1696
f 1700 1696 1697
f 1702 1701 1699
f 1702 1699 1700
f 1701 1702 1692
f 1701 1692 1691
f 1571 1701 1691
f 1570 1571 1691
f 1570 1691 1565
f 1703 1573 1574
f 1704 1703 1574
f 1704 1574 1567
f 1705 1704 1567
f 1693 1705 1567
f 1705 1693 1694
f 1705 1694 1706
f 1706 1694 1695
f 1709 1708 1707
f 1711 1710 1707
f 1711 1707 1708
f 1710 1711 1698
f 1696 1710 1698
f 1712 1710 1696
f 1713 1696 1699
f 1712 1696 1713
f 1714 1699 1701
f 1713 1699 1714
f 1576 1714 1571
f 1571 1714 1701
f 1716 1715 1703
f 1715 1573 1703
f 1715 1577 1573
f 1716 1703 1704
f 1717 1709 1707
f 1580 1718 1579
f 1718 1707 1579
f 1707 1710 1579
f 1718 1717 1707
f 1579 1710 1582
f 1582 1710 1712
f 1582 1712 1584
f 1584 1712 1713
f 1584 1713 1585
f 1713 1719 1585
f 1713 1714 1719
f 1587 1719 1576
f 1576 1719 1714
f 1715 1720 1577
f 1577 1720 1588
f 1589 1588 1720
f 1589 1720 1721
f 1580 1590 1722
f 1723 1580 1722
f 1718 1580 1723
f 1591 1724 1590
f 1590 1724 1722
f 1592 1725 1591
f 1591 1725 1724
f 1585 1719 1592
f 1719 1725 1592
f 1719 1726 1725
f 1593 1726 1587
f 1587 1726 1719
f 1728 1727 1596
f 1596 1727 1595
f 1596 1589 1721
f 1596 1721 1728
f 1731 1730 1729
f 1729 1730 1723
f 1722 1729 1723
f 1732 1729 1722
f 1733 1722 1724
f 1732 1722 1733
f 1598 1733 1597
f 1733 1725 1597
f 1733 1724 1725
f 1597 1725 1599
f 1599 1725 1726
f 1599 1726 1593
f 1600 1595 1734
f 1595 1735 1734
f 1595 1727 1735
f 1734 1601 1600
f 1736 1731 1729
f 1738 1737 1736
f 1729 1738 1736
f 1732 1738 1729
f 1739 1732 1733
f 1738 1732 1739
f 1602 1739 1598
f 1598 1739 1733
f 1735 1740 1734
f 1601 1734 1740
f 1741 1601 1740
f 1604 1601 1741
f 1607 1742 1608
f 1743 1737 1738
f 1608 1743 1738
f 1609 1608 1738
f 1743 1608 1742
f 1609 1738 1610
f 1610 1738 1739
f 1610 1739 1602
f 1741 1612 1604
f 1744 1612 1741
f 1746 1745 1616
f 1746 1616 1615
f 1607 1616 1742
f 1616 1747 1742
f 1616 1745 1747
f 1742 1747 1743
f 1744 1748 1612
f 1612 1748 1617
f 1617 1749 1618
f 1748 1749 1617
f 1618 1750 1619
f 1749 1750 1618
f 1615 1619 1746
f 1746 1619 1750
f 1751 1623 1624
f 1625 1751 1624
f 1752 1628 1751
f 1751 1628 1623
f 1752 1751 1625
f 1753 1752 1625
f 1629 1753 1625
f 1754 1752 1753
f 1629 1631 1753
f 1753 1631 1755
f 1752 1635 1628
f 1757 1756 1637
f 1757 1637 1635
f 1754 1757 1635
f 1752 1754 1635
f 1759 1758 1638
f 1756 1638 1758
f 1638 1756 1631
f 1757 1631 1756
f 1631 1757 1755
f 1761 1759 1760
f 1759 1639 1760
f 1759 1638 1639
f 1640 1760 1639
f 1756 1645 1637
f 1763 1762 1647
f 1763 1647 1645
f 1758 1763 1645
f 1756 1758 1645
f 1762 1763 1761
f 1760 1762 1761
f 1764 1762 1760
f 1648 1765 1640
f 1765 1760 1640
f 1765 1764 1760
f 1649 1765 1648
f 1766 1654 1762
f 1762 1654 1647
f 1767 1762 1764
f 1766 1762 1767
f 1768 1764 1765
f 1767 1764 1768
f 1656 1768 1649
f 1649 1768 1765
f 1769 1659 1766
f 1766 1659 1654
f 1770 1766 1767
f 1769 1766 1770
f 1771 1767 1768
f 1770 1767 1771
f 1661 1771 1656
f 1656 1771 1768
f 1772 1663 1664
f 1666 1772 1664
f 1769 1667 1659
f 1667 1769 1670
f 1670 1769 1770
f 1670 1770 1672
f 1672 1770 1771
f 1672 1771 1661
f 1773 1676 1677
f 1678 1774 1677
f 1677 1774 1773
f 1663 1772 1678
f 1772 1774 1678
f 1772 1775 1774
f 1679 1776 1666
f 1776 1772 1666
f 1776 1775 1772
f 1680 1776 1679
f 1777 1683 1684
f 1685 1778 1684
f 1684 1778 1777
f 1686 1779 1685
f 1685 1779 1778
f 1676 1773 1686
f 1773 1779 1686
f 1773 1780 1779
f 1781 1773 1774
f 1780 1773 1781
f 1782 1774 1775
f 1781 1774 1782
f 1783 1775 1776
f 1782 1775 1783
f 1688 1783 1680
f 1680 1783 1776
f 1784 1690 1777
f 1777 1690 1683
f 1785 1777 1778
f 1784 1777 1785
f 1786 1778 1779
f 1785 1778 1786
f 1787 1779 1780
f 1786 1779 1787
f 1788 1780 1781
f 1787 1780 1788
f 1789 1781 1782
f 1788 1781 1789
f 1790 1782 1783
f 1789 1782 1790
f 1692 1790 1688
f 1688 1790 1783
f 1791 1695 1784
f 1784 1695 1690
f 1792 1784 1785
f 1791 1784 1792
f 1793 1785 1786
f 1792 1785 1793
f 1794 1786 1787
f 1793 1786 1794
f 1698 1794 1697
f 1794 1788 1697
f 1794 1787 1788
f 1697 1788 1700
f 1700 1788 1789
f 1700 1789 1702
f 1702 1789 1790
f 1702 1790 1692
f 1795 1704 1705
f 1706 1796 1705
f 1705 1796 1795
f 1695 1791 1706
f 1791 1796 1706
f 1791 1797 1796
f 1798 1791 1792
f 1797 1791 1798
f 1709 1798 1708
f 1798 1793 1708
f 1798 1792 1793
f 1708 1793 1711
f 1711 1793 1794
f 1711 1794 1698
f 1799 1715 1716
f 1800 1799 1716
f 1800 1716 1704
f 1801 1800 1704
f 1795 1801 1704
f 1803 1802 1801
f 1795 1803 1801
f 1796 1803 1795
f 1804 1796 1797
f 1803 1796 1804
f 1805 1797 1798
f 1804 1797 1805
f 1717 1806 1709
f 1806 1798 1709
f 1806 1805 1798
f 1718 1806 1717
f 1799 1720 1715
f 1721 1720 1799
f 1800 1721 1799
f 1807 1721 1800
f 1802 1803 1808
f 1802 1808 1809
f 1810 1803 1804
f 1808 1803 1810
f 1811 1804 1805
f 1810 1804 1811
f 1812 1805 1806
f 1811 1805 1812
f 1723 1812 1718
f 1718 1812 1806
f 1813 1727 1728
f 1721 1807 1814
f 1813 1721 1814
f 1815 1813 1814
f 1728 1721 1813
f 1815 1817 1816
f 1815 1808 1817
f 1815 1814 1809
f 1808 1815 1809
f 1817 1808 1810
f 1817 1810 1818
f 1820 1819 1818
f 1810 1820 1818
f 1811 1820 1810
f 1731 1820 1730
f 1820 1812 1730
f 1820 1811 1812
f 1730 1812 1723
f 1821 1735 1813
f 1813 1735 1727
f 1822 1813 1815
f 1821 1813 1822
f 1815 1816 1823
f 1815 1823 1822
f 1819 1820 1824
f 1819 1824 1825
f 1736 1826 1731
f 1826 1820 1731
f 1826 1824 1820
f 1737 1826 1736
f 1821 1740 1735
f 1821 1822 1827
f 1741 1821 1827
f 1828 1741 1827
f 1821 1741 1740
f 1827 1822 1823
f 1825 1824 1829
f 1825 1829 1830
f 1831 1824 1826
f 1829 1824 1831
f 1743 1831 1737
f 1737 1831 1826
f 1833 1744 1832
f 1744 1828 1832
f 1744 1741 1828
f 1835 1834 1833
f 1835 1833 1832
f 1837 1836 1834
f 1837 1834 1835
f 1836 1837 1830
f 1836 1830 1829
f 1746 1836 1829
f 1745 1746 1829
f 1745 1829 1747
f 1747 1829 1831
f 1747 1831 1743
f 1833 1748 1744
f 1748 1833 1749
f 1749 1833 1834
f 1749 1834 1750
f 1750 1834 1836
f 1750 1836 1746
f 1838 1754 1753
f 1755 1838 1753
f 1838 1757 1754
f 1757 1838 1755
f 1839 1758 1759
f 1761 1839 1759
f 1839 1763 1758
f 1763 1839 1761
f 1840 1800 1801
f 1802 1840 1801
f 1841 1807 1840
f 1840 1807 1800
f 1809 1841 1802
f 1802 1841 1840
f 1841 1814 1807
f 1814 1841 1809
f 1842 1816 1817
f 1818 1843 1817
f 1817 1843 1842
f 1819 1843 1818
f 1844 1823 1842
f 1842 1823 1816
f 1845 1842 1843
f 1844 1842 1845
f 1825 1845 1819
f 1819 1845 1843
f 1846 1828 1827
f 1823 1844 1827
f 1844 1846 1827
f 1844 1847 1846
f 1848 1844 1845
f 1847 1844 1848
f 1830 1848 1825
f 1825 1848 1845
f 1846 1832 1828
f 1832 1846 1835
f 1835 1846 1847
f 1835 1847 1837
f 1837 1847 1848
f 1837 1848 1830
