v -56.1 2.0 -4.0
v -56.0 2.0 -4.2
v -56.0 1.9 -4.0
v -56.0 2.0 -3.9
v -56.2 3.0 -5.0
v -56.0 3.0 -5.2
v -56.0 2.7 -5.0
v -56.3 3.0 -4.0
v -56.0 3.0 -3.0
v -56.0 3.0 -3.0
v -56.0 3.0 -3.0
v -56.1 4.0 -5.0
v -56.0 4.0 -5.2
v -56.0 4.0 -4.5
v -56.0 3.7 -4.0
v -56.0 3.0 -3.0
v -56.0 4.3 -5.0
v -55.1 1.0 -4.0
v -55.0 1.0 -4.2
v -55.0 0.9 -4.0
v -55.0 1.0 -3.9
v -55.5 2.0 -5.0
v -55.0 2.0 -5.4
v -55.0 1.5 -5.0
v -55.0 2.0 -3.3
v -55.0 3.0 -5.7
v -55.0 2.4 -3.0
v -55.0 3.0 -2.5
v -55.4 4.0 -6.0
v -55.0 4.0 -6.4
v -55.0 3.4 -6.0
v -55.8 4.0 -4.0
v -55.6 4.0 -3.0
v -55.0 3.8 -2.0
v -55.2 4.0 -2.0
v -55.0 4.0 -1.8
v -55.4 5.0 -6.0
v -55.0 5.0 -6.5
v -55.6 5.0 -5.0
v -55.9 5.0 -4.0
v -55.4 5.0 -3.0
v -55.0 5.0 -2.0
v -55.0 5.0 -2.0
v -55.3 6.0 -6.0
v -55.0 6.0 -6.4
v -55.4 6.0 -5.0
v -55.0 6.0 -4.3
v -55.0 5.7 -4.0
v -55.0 5.5 -3.0
v -55.0 5.0 -2.0
v -55.0 6.4 -6.0
v -55.1 7.0 -5.0
v -55.0 7.0 -5.1
v -55.0 7.0 -4.9
v -55.0 7.1 -5.0
v -54.3 0.0 -4.0
v -54.0 0.0 -4.4
v -54.0 -0.3 -4.0
v -54.0 -0.3 -3.0
v -54.2 0.0 -3.0
v -54.0 0.0 -2.2
v -54.5 1.0 -5.0
v -54.0 1.0 -5.5
v -54.0 0.5 -5.0
v -54.0 0.4 -3.0
v -54.0 1.0 -3.4
v -54.2 2.0 -7.0
v -54.0 2.0 -7.2
v -54.0 1.8 -7.0
v -54.0 1.4 -6.0
v -54.5 2.0 -6.0
v -54.0 1.8 -3.0
v -54.2 2.0 -3.0
v -54.0 2.0 -2.9
v -54.4 3.0 -7.0
v -54.0 3.0 -7.6
v -54.8 3.0 -6.0
v -54.0 3.0 -2.4
v -54.3 4.0 -8.0
v -54.0 4.0 -8.3
v -54.0 3.6 -8.0
v -54.6 4.0 -7.0
v -54.0 3.7 -2.0
v -54.0 4.0 -1.8
v -54.4 5.0 -8.0
v -54.0 5.0 -8.5
v -54.6 5.0 -7.0
v -55.0 5.0 -2.0
v -54.0 4.4 -2.0
v -54.0 5.0 -2.3
v -54.4 6.0 -8.0
v -54.0 6.0 -8.4
v -54.6 6.0 -7.0
v -54.8 6.0 -4.0
v -54.5 6.0 -3.0
v -54.0 6.0 -2.6
v -54.3 7.0 -8.0
v -54.0 7.0 -8.3
v -54.5 7.0 -7.0
v -54.6 7.0 -6.0
v -54.4 7.0 -4.0
v -54.0 7.0 -3.0
v -54.0 7.0 -3.0
v -54.0 7.5 -8.0
v -54.2 8.0 -7.0
v -54.0 8.0 -7.3
v -54.0 8.0 -6.7
v -54.0 7.7 -6.0
v -54.0 7.6 -5.0
v -54.0 7.5 -4.0
v -54.0 7.0 -3.0
v -54.0 8.2 -7.0
v -54.1 10.0 -9.0
v -54.0 10.0 -9.1
v -54.0 9.9 -9.0
v -54.0 10.0 -8.9
v -54.2 11.0 -9.0
v -54.0 11.0 -9.9
v -54.0 11.0 -8.7
v -54.0 11.3 -9.0
v -53.1 -3.0 -5.0
v -53.0 -3.0 -5.1
v -53.0 -3.1 -5.0
v -53.0 -3.0 -4.8
v -53.1 -3.0 -1.0
v -53.0 -3.0 -1.1
v -53.0 -3.1 -1.0
v -53.0 -3.0 -0.9
v -53.2 -2.0 -6.0
v -53.0 -2.0 -6.2
v -53.0 -2.3 -6.0
v -53.5 -2.0 -5.0
v -53.0 -2.5 -4.0
v -53.3 -2.0 -4.0
v -53.0 -2.0 -3.5
v -53.0 -2.0 -1.0
v -53.0 -2.0 -1.1
v -53.0 -2.0 -1.0
v -53.3 -1.0 -6.0
v -53.0 -1.0 -6.3
v -53.5 -1.0 -5.0
v -53.6 -1.0 -4.0
v -53.0 -1.6 -3.0
v -53.5 -1.0 -3.0
v -53.0 -1.4 -2.0
v -53.3 -1.0 -2.0
v -53.0 -2.0 -1.0
v -53.0 -1.0 -1.7
v -53.4 0.0 -6.0
v -53.0 0.0 -6.4
v -53.7 0.0 -5.0
v -53.8 0.0 -2.0
v -53.0 0.0 -1.8
v -53.6 1.0 -6.0
v -53.0 1.0 -6.6
v -53.0 1.0 -4.4
v -53.4 1.0 -4.0
v -53.0 0.6 -4.0
v -53.0 0.4 -3.0
v -53.0 0.2 -2.0
v -53.0 2.0 -7.5
v -53.0 1.5 -7.0
v -53.2 2.0 -4.0
v -53.0 2.0 -4.3
v -53.8 2.0 -3.0
v -53.5 3.0 -8.0
v -53.0 3.0 -8.5
v -53.0 2.5 -8.0
v -53.0 2.2 -4.0
v -53.0 2.5 -3.0
v -53.0 3.0 -2.5
v -53.4 4.0 -9.0
v -53.0 4.0 -9.5
v -53.0 3.5 -9.0
v -53.0 3.9 -2.0
v -53.0 4.0 -1.9
v -53.1 5.0 -10.0
v -53.0 5.0 -10.1
v -53.0 4.8 -10.0
v -53.5 5.0 -9.0
v -53.0 4.1 -2.0
v -53.0 5.0 -2.4
v -53.0 5.1 -10.0
v -53.0 5.9 -9.0
v -53.0 6.0 -8.9
v -53.0 6.0 -2.7
v -53.4 7.0 -9.0
v -53.0 7.0 -9.5
v -53.0 6.1 -9.0
v -54.0 7.0 -3.0
v -53.0 6.4 -3.0
v -53.0 7.0 -3.4
v -53.2 8.0 -10.0
v -53.0 8.0 -10.3
v -53.0 7.6 -10.0
v -53.5 8.0 -9.0
v -53.7 8.0 -8.0
v -53.7 8.0 -6.0
v -53.6 8.0 -5.0
v -53.1 8.0 -4.0
v -53.0 8.0 -3.9
v -53.2 9.0 -10.0
v -53.0 9.0 -10.2
v -53.6 9.0 -9.0
v -53.5 9.0 -8.0
v -53.6 9.0 -7.0
v -53.5 9.0 -6.0
v -53.4 9.0 -5.0
v -53.0 9.0 -4.6
v -53.0 8.1 -4.0
v -53.0 9.4 -10.0
v -53.0 10.0 -9.7
v -53.6 10.0 -8.0
v -53.5 10.0 -7.0
v -53.5 10.0 -6.0
v -53.3 10.0 -5.0
v -53.0 10.0 -4.7
v -53.9 11.0 -10.0
v -53.0 11.0 -10.3
v -53.0 10.5 -10.0
v -53.6 11.0 -8.0
v -53.4 11.0 -7.0
v -53.4 11.0 -6.0
v -53.1 11.0 -5.0
v -53.0 11.0 -4.9
v -53.0 11.5 -10.0
v -53.3 12.0 -9.0
v -53.0 12.0 -9.5
v -53.3 12.0 -8.0
v -53.0 12.0 -7.4
v -53.0 11.8 -7.0
v -53.1 12.0 -6.0
v -53.0 12.0 -6.2
v -53.0 12.0 -5.9
v -53.0 11.1 -5.0
v -53.0 12.3 -9.0
v -53.0 12.3 -8.0
v -53.0 12.1 -6.0
v -52.0 -15.0 -2.0
v -52.0 -15.0 -2.0
v -52.0 -15.0 -2.0
v -52.0 -15.3 -1.0
v -52.2 -15.0 -1.0
v -52.0 -15.3 0.0
v -52.2 -15.0 0.0
v -52.0 -15.0 0.3
v -52.0 -15.0 -2.0
v -52.0 -14.6 -1.0
v -52.1 -14.0 0.0
v -52.0 -14.0 -0.1
v -52.0 -14.0 0.1
v -52.0 -13.9 0.0
v -52.1 -9.0 -2.0
v -52.0 -9.0 -2.1
v -52.0 -9.1 -2.0
v -52.0 -9.0 -1.9
v -52.2 -8.0 -2.0
v -52.0 -8.0 -2.3
v -52.0 -8.0 -1.7
v -52.2 -7.0 -2.0
v -52.0 -7.0 -2.3
v -52.0 -7.0 -1.7
v -52.2 -6.0 -2.0
v -52.0 -6.0 -2.3
v -52.0 -6.0 -1.7
v -52.3 -5.0 -2.0
v -52.0 -5.0 -2.5
v -52.0 -5.0 -1.5
v -52.3 -4.0 -4.0
v -52.0 -4.0 -4.7
v -52.0 -4.4 -4.0
v -52.0 -4.6 -3.0
v -52.4 -4.0 -3.0
v -52.5 -4.0 -2.0
v -52.0 -4.5 -1.0
v -52.4 -4.0 -1.0
v -52.0 -4.0 -0.5
v -52.0 -3.0 -5.8
v -52.0 -3.8 -5.0
v -52.7 -3.0 -4.0
v -52.5 -3.0 -3.0
v -52.6 -3.0 -2.0
v -52.0 -3.0 -0.1
v -52.0 -2.0 -6.5
v -52.0 -2.8 -6.0
v -52.7 -2.0 -3.0
v -52.6 -2.0 -2.0
v -52.0 -2.0 -0.7
v -52.0 -1.0 -6.6
v -52.0 -1.0 -1.7
v -52.0 -1.7 -1.0
v -52.0 0.0 -6.7
v -52.4 0.0 -4.0
v -52.0 -0.3 -4.0
v -52.0 0.0 -4.3
v -52.6 0.0 -3.0
v -52.0 -0.5 -3.0
v -52.8 0.0 -2.0
v -52.0 -0.7 -2.0
v -52.2 1.0 -7.0
v -52.0 1.0 -7.6
v -52.0 0.8 -7.0
v -52.4 1.0 -5.0
v -52.0 0.6 -5.0
v -52.0 1.0 -5.6
v -52.0 2.0 -9.0
v -52.0 2.0 -9.0
v -52.0 2.0 -9.0
v -52.0 1.2 -8.0
v -52.4 2.0 -8.0
v -52.5 2.0 -7.0
v -52.0 2.0 -7.6
v -52.0 1.2 -7.0
v -52.0 1.5 -6.0
v -52.3 2.0 -6.0
v -52.4 2.0 -5.0
v -52.6 3.0 -9.0
v -52.0 3.0 -9.6
v -52.0 3.0 -7.1
v -52.1 3.0 -7.0
v -52.0 3.0 -6.9
v -52.0 2.4 -6.0
v -52.0 2.4 -5.0
v -52.0 2.5 -4.0
v -52.0 2.6 -3.0
v -52.0 3.0 -2.6
v -52.0 4.0 -11.0
v -52.0 4.0 -11.0
v -52.0 4.0 -11.0
v -52.0 3.4 -10.0
v -52.6 4.0 -10.0
v -52.0 3.1 -7.0
v -52.9 4.0 -2.0
v -52.0 4.0 -2.4
v -52.0 4.1 -11.0
v -52.0 5.0 -10.8
v -52.0 5.0 -2.7
v -52.3 6.0 -11.0
v -52.0 6.0 -11.2
v -52.0 5.4 -11.0
v -52.6 6.0 -10.0
v -52.9 6.0 -9.0
v -52.5 6.0 -3.0
v -52.0 5.5 -3.0
v -52.0 6.0 -3.4
v -52.2 7.0 -11.0
v -52.0 7.0 -11.2
v -52.7 7.0 -10.0
v -52.3 7.0 -4.0
v -52.0 6.7 -4.0
v -52.0 7.0 -4.3
v -52.0 7.3 -11.0
v -52.0 8.0 -10.6
v -52.9 8.0 -4.0
v -52.0 8.0 -4.5
v -52.0 9.0 -10.4
v -52.0 9.0 -4.6
v -52.0 9.7 -10.0
v -52.0 10.0 -9.8
v -52.0 10.0 -4.7
v -52.0 11.0 -10.5
v -52.0 10.3 -10.0
v -52.9 11.0 -5.0
v -52.0 10.5 -5.0
v -52.0 11.0 -5.3
v -52.3 12.0 -11.0
v -52.0 12.0 -11.3
v -52.0 11.7 -11.0
v -52.7 12.0 -10.0
v -52.8 12.0 -7.0
v -52.0 12.0 -5.6
v -52.4 13.0 -11.0
v -52.0 13.0 -11.8
v -52.4 13.0 -10.0
v -52.0 12.8 -9.0
v -52.0 13.0 -9.3
v -52.0 12.7 -8.0
v -52.1 13.0 -7.0
v -52.0 13.0 -7.2
v -52.0 12.4 -6.0
v -52.0 13.0 -6.9
v -52.2 14.0 -11.0
v -52.0 14.0 -11.3
v -52.3 14.0 -10.0
v -52.0 14.0 -9.5
v -52.0 13.1 -7.0
v -52.0 14.3 -11.0
v -52.2 15.0 -10.0
v -52.0 15.0 -10.2
v -52.0 15.0 -9.8
v -52.0 15.4 -10.0
v -51.1 -19.0 -1.0
v -51.0 -19.0 -1.2
v -51.0 -19.1 -1.0
v -51.0 -19.0 -0.8
v -51.1 -18.0 -2.0
v -51.0 -18.0 -2.2
v -51.0 -18.2 -2.0
v -51.3 -18.0 -1.0
v -51.0 -18.0 -0.6
v -51.0 -17.5 -2.0
v -51.3 -17.0 -1.0
v -51.0 -17.0 -1.7
v -51.0 -17.0 -0.4
v -51.4 -16.0 -2.0
v -51.0 -16.0 -2.5
v -51.0 -16.7 -2.0
v -51.6 -16.0 -1.0
v -51.0 -16.7 0.0
v -51.5 -16.0 0.0
v -51.0 -16.4 1.0
v -51.3 -16.0 1.0
v -51.0 -16.0 1.4
v -51.2 -15.0 -3.0
v -51.0 -15.0 -3.2
v -51.0 -15.3 -3.0
v -51.5 -15.0 1.0
v -51.0 -15.0 2.0
v -51.0 -15.0 2.0
v -51.0 -15.0 2.0
v -51.0 -14.8 -3.0
v -51.0 -14.3 -2.0
v -51.6 -14.0 -1.0
v -51.0 -14.0 -1.7
v -51.0 -14.4 1.0
v -51.0 -14.0 0.7
v -51.0 -15.0 2.0
v -51.4 -13.0 -1.0
v -51.0 -13.0 -1.5
v -51.4 -13.0 0.0
v -51.0 -13.0 0.4
v -51.4 -12.0 -1.0
v -51.0 -12.0 -1.6
v -51.3 -12.0 0.0
v -51.0 -12.0 0.3
v -51.3 -11.0 -2.0
v -51.0 -11.0 -2.5
v -51.0 -11.5 -2.0
v -51.4 -11.0 -1.0
v -51.2 -11.0 0.0
v -51.0 -11.0 0.2
v -51.3 -10.0 -3.0
v -51.0 -10.0 -3.5
v -51.0 -10.5 -3.0
v -51.5 -10.0 -2.0
v -51.0 -10.0 -1.1
v -51.0 -10.1 -1.0
v -51.0 -10.6 0.0
v -51.3 -9.0 -4.0
v -51.0 -9.0 -4.3
v -51.0 -9.4 -4.0
v -51.6 -9.0 -3.0
v -51.0 -9.9 -1.0
v -51.5 -9.0 -1.0
v -51.0 -9.4 0.0
v -51.2 -9.0 0.0
v -51.0 -9.0 0.2
v -51.4 -8.0 -4.0
v -51.0 -8.0 -4.6
v -51.6 -8.0 -3.0
v -51.6 -8.0 -1.0
v -51.4 -8.0 0.0
v -51.0 -8.0 0.5
v -51.3 -7.0 -5.0
v -51.0 -7.0 -5.3
v -51.0 -7.5 -5.0
v -51.5 -7.0 -4.0
v -51.6 -7.0 -3.0
v -51.6 -7.0 -1.0
v -51.5 -7.0 0.0
v -51.0 -7.2 1.0
v -51.1 -7.0 1.0
v -51.0 -7.0 1.1
v -51.4 -6.0 -5.0
v -51.0 -6.0 -5.5
v -51.5 -6.0 -4.0
v -51.6 -6.0 -3.0
v -51.6 -6.0 -1.0
v -51.4 -6.0 0.0
v -51.0 -6.0 0.5
v -51.0 -6.8 1.0
v -51.4 -5.0 -5.0
v -51.0 -5.0 -5.7
v -51.6 -5.0 -4.0
v -51.7 -5.0 -3.0
v -51.7 -5.0 -1.0
v -51.2 -5.0 0.0
v -51.0 -5.0 0.2
v -51.3 -4.0 -7.0
v -51.0 -4.0 -7.4
v -51.0 -4.4 -7.0
v -51.0 -4.7 -6.0
v -51.9 -4.0 -6.0
v -51.8 -4.0 -5.0
v -51.2 -4.0 0.0
v -51.0 -4.0 0.1
v -51.2 -3.0 -8.0
v -51.0 -3.0 -8.2
v -51.0 -3.3 -8.0
v -51.5 -3.0 -7.0
v -51.9 -3.0 -6.0
v -51.0 -3.8 0.0
v -51.0 -3.0 -0.6
v -51.2 -2.0 -8.0
v -51.0 -2.0 -8.2
v -51.6 -2.0 -7.0
v -51.4 -2.0 -2.0
v -51.0 -2.4 -2.0
v -51.0 -2.0 -2.5
v -51.7 -2.0 -1.0
v -51.0 -2.6 -1.0
v -51.0 -1.7 -8.0
v -51.5 -1.0 -7.0
v -51.0 -1.0 -7.4
v -51.5 -1.0 -3.0
v -51.0 -1.5 -3.0
v -51.0 -1.0 -3.5
v -51.8 -1.0 -2.0
v -51.3 0.0 -7.0
v -51.0 0.0 -7.1
v -51.0 -0.6 -4.0
v -51.0 0.0 -4.7
v -51.9 1.0 -7.0
v -51.0 0.2 -7.0
v -51.0 0.5 -6.0
v -51.7 1.0 -6.0
v -51.0 0.3 -5.0
v -52.0 2.0 -9.0
v -51.8 2.0 -8.0
v -51.5 3.0 -10.0
v -51.0 3.0 -10.3
v -51.0 2.7 -10.0
v -51.0 2.5 -9.0
v -51.0 3.0 -8.1
v -51.1 3.0 -8.0
v -51.2 3.0 -6.0
v -51.0 3.0 -5.8
v -51.0 2.6 -5.0
v -51.0 2.5 -4.0
v -51.0 2.6 -3.0
v -51.0 3.0 -2.2
v -51.0 4.0 -11.2
v -51.0 3.7 -11.0
v -51.0 3.1 -8.0
v -51.0 3.3 -7.0
v -51.0 3.1 -6.0
v -51.0 4.0 -2.5
v -51.7 5.0 -11.0
v -51.0 5.0 -11.4
v -51.5 5.0 -3.0
v -51.0 4.6 -3.0
v -51.0 5.0 -3.3
v -51.0 6.0 -11.4
v -51.0 6.0 -3.7
v -51.0 7.0 -11.4
v -51.0 6.3 -4.0
v -51.0 7.0 -4.6
v -51.0 7.5 -11.0
v -51.0 8.0 -10.6
v -51.4 8.0 -5.0
v -51.0 7.6 -5.0
v -51.0 8.0 -5.3
v -51.0 9.0 -10.3
v -51.5 9.0 -5.0
v -51.0 9.0 -5.4
v -51.0 9.5 -10.0
v -51.0 10.0 -9.7
v -51.6 10.0 -5.0
v -51.0 10.0 -5.4
v -51.0 11.0 -10.4
v -51.0 10.5 -10.0
v -51.0 11.0 -5.6
v -51.0 12.0 -11.3
v -51.0 11.7 -11.0
v -51.0 12.0 -5.8
v -51.0 13.0 -11.6
v -51.8 13.0 -9.0
v -51.7 13.0 -8.0
v -51.0 12.3 -6.0
v -51.0 13.0 -6.6
v -51.0 14.0 -11.4
v -51.6 14.0 -9.0
v -51.4 14.0 -8.0
v -51.0 13.5 -7.0
v -51.0 14.0 -7.6
v -51.0 14.6 -11.0
v -51.0 15.0 -10.6
v -51.4 15.0 -9.0
v -51.0 15.0 -8.0
v -51.0 15.0 -8.0
v -51.0 15.4 -10.0
v -51.0 15.4 -9.0
v -51.0 15.0 -8.0
v -50.1 -21.0 0.0
v -50.0 -21.0 -0.2
v -50.0 -21.2 0.0
v -50.0 -21.0 0.3
v -50.4 -20.0 -1.0
v -50.0 -20.0 -1.5
v -50.0 -20.5 -1.0
v -50.5 -20.0 0.0
v -50.0 -20.2 1.0
v -50.1 -20.0 1.0
v -50.0 -20.0 1.2
v -50.0 -19.0 -4.0
v -50.0 -19.0 -4.0
v -50.0 -19.0 -4.0
v -50.0 -19.0 -3.9
v -50.5 -19.0 -2.0
v -50.0 -19.0 -2.7
v -50.0 -19.5 -2.0
v -50.5 -19.0 0.0
v -50.0 -19.0 0.6
v -50.0 -19.7 1.0
v -50.2 -18.0 -4.0
v -50.0 -18.0 -4.2
v -50.0 -18.8 -3.0
v -50.5 -18.0 -3.0
v -50.5 -18.0 0.0
v -50.0 -18.0 0.7
v -50.0 -17.5 -4.0
v -50.5 -17.0 -3.0
v -50.0 -17.0 -3.7
v -50.8 -17.0 -2.0
v -50.7 -17.0 0.0
v -50.0 -17.7 1.0
v -50.5 -17.0 1.0
v -50.0 -17.3 2.0
v -50.2 -17.0 2.0
v -50.0 -17.0 2.2
v -50.3 -16.0 -4.0
v -50.0 -16.0 -4.2
v -50.0 -16.5 -4.0
v -50.7 -16.0 -3.0
v -50.5 -16.0 2.0
v -50.0 -16.0 2.4
v -50.3 -15.0 -4.0
v -50.0 -15.0 -4.3
v -50.0 -15.0 2.3
v -50.0 -14.6 -4.0
v -50.5 -14.0 -3.0
v -50.0 -14.0 -3.6
v -50.8 -14.0 -2.0
v -50.5 -14.0 1.0
v -50.0 -14.0 1.4
v -50.0 -14.6 2.0
v -50.4 -13.0 -3.0
v -50.0 -13.0 -3.4
v -50.6 -13.0 -2.0
v -50.0 -13.6 1.0
v -50.0 -13.0 0.6
v -50.4 -12.0 -3.0
v -50.0 -12.0 -3.5
v -50.7 -12.0 -2.0
v -50.0 -12.0 0.5
v -50.2 -11.0 -4.0
v -50.0 -11.0 -4.2
v -50.0 -11.3 -4.0
v -50.7 -11.0 -3.0
v -50.0 -11.0 0.5
v -50.6 -10.0 -4.0
v -50.0 -10.0 -4.6
v -50.9 -10.0 -1.0
v -50.6 -10.0 0.0
v -50.0 -10.0 0.4
v -50.3 -9.0 -5.0
v -50.0 -9.0 -5.3
v -50.0 -9.4 -5.0
v -50.0 -9.0 0.6
v -50.6 -8.0 -5.0
v -50.0 -8.0 -5.9
v -50.0 -8.4 1.0
v -50.4 -8.0 1.0
v -50.0 -8.0 1.3
v -50.2 -7.0 -6.0
v -50.0 -7.0 -6.2
v -50.0 -7.9 -6.0
v -50.0 -7.0 1.4
v -50.4 -6.0 -6.0
v -50.0 -6.0 -6.3
v -50.1 -6.0 1.0
v -50.0 -6.0 1.1
v -50.1 -5.0 -7.0
v -50.0 -5.0 -7.1
v -50.0 -5.1 -7.0
v -50.7 -5.0 -6.0
v -50.6 -5.0 0.0
v -50.0 -5.4 0.0
v -50.0 -5.0 -0.4
v -50.0 -5.9 1.0
v -50.1 -4.0 -8.0
v -50.0 -4.0 -8.0
v -50.0 -4.1 -8.0
v -50.9 -4.0 0.0
v -50.0 -4.0 -0.7
v -50.0 -3.0 -8.3
v -50.3 -3.0 -3.0
v -50.0 -3.3 -3.0
v -50.0 -3.0 -3.4
v -50.5 -3.0 -2.0
v -50.0 -3.5 -2.0
v -50.6 -3.0 -1.0
v -50.0 -3.7 -1.0
v -50.0 -2.0 -8.2
v -50.3 -2.0 -4.0
v -50.0 -2.4 -4.0
v -50.0 -2.0 -4.4
v -50.7 -2.0 -3.0
v -50.0 -1.7 -8.0
v -50.0 -1.0 -7.4
v -50.6 -1.0 -4.0
v -50.0 -1.0 -4.6
v -50.0 -0.6 -7.0
v -50.8 0.0 -7.0
v -50.0 0.0 -6.2
v -50.6 0.0 -5.0
v -50.0 -0.6 -5.0
v -50.0 0.0 -5.8
v -50.0 0.1 -6.0
v -50.0 3.0 -10.2
v -50.0 2.8 -10.0
v -50.0 2.6 -9.0
v -50.0 2.6 -8.0
v -50.9 3.0 -8.0
v -50.0 2.6 -7.0
v -50.6 3.0 -7.0
v -50.0 2.5 -6.0
v -50.8 3.0 -6.0
v -50.0 2.4 -5.0
v -50.0 2.4 -4.0
v -50.0 2.7 -3.0
v -50.0 3.0 -2.7
v -50.6 4.0 -11.0
v -50.0 4.0 -10.6
v -50.0 4.0 -2.7
v -50.0 5.0 -11.1
v -50.0 4.7 -11.0
v -50.0 4.3 -3.0
v -50.0 5.0 -3.5
v -50.0 5.5 -11.0
v -50.2 6.0 -11.0
v -50.0 6.0 -10.8
v -50.6 6.0 -4.0
v -50.0 5.6 -4.0
v -50.0 6.0 -4.5
v -50.0 7.0 -11.1
v -50.0 6.6 -11.0
v -50.5 7.0 -5.0
v -50.0 6.6 -5.0
v -50.0 7.0 -5.3
v -50.0 7.2 -11.0
v -50.0 8.0 -10.5
v -50.0 8.0 -5.5
v -50.0 8.6 -10.0
v -50.5 9.0 -10.0
v -50.0 9.0 -9.7
v -50.0 9.0 -5.6
v -50.0 10.0 -9.5
v -50.0 10.0 -5.7
v -50.5 11.0 -10.0
v -50.0 11.0 -9.7
v -50.4 11.0 -6.0
v -50.0 10.5 -6.0
v -50.0 11.0 -6.3
v -50.5 12.0 -11.0
v -50.0 12.0 -10.6
v -50.0 11.3 -10.0
v -50.7 12.0 -6.0
v -50.0 12.0 -6.5
v -50.0 13.0 -11.4
v -50.0 12.4 -11.0
v -50.0 13.0 -6.7
v -50.0 14.0 -11.5
v -50.0 13.3 -7.0
v -50.0 14.0 -7.6
v -50.4 15.0 -11.0
v -50.0 15.0 -11.2
v -51.0 15.0 -8.0
v -50.0 14.5 -8.0
v -50.0 15.0 -8.6
v -50.0 15.3 -11.0
v -50.0 15.5 -10.0
v -50.0 15.3 -9.0
v -49.3 -22.0 0.0
v -49.0 -22.0 -0.4
v -49.0 -22.3 0.0
v -49.0 -22.2 1.0
v -49.2 -22.0 1.0
v -49.0 -22.0 1.3
v -49.5 -21.0 -1.0
v -49.0 -21.0 -1.5
v -49.0 -21.5 -1.0
v -49.6 -21.0 1.0
v -49.0 -21.0 1.7
v -49.3 -20.0 -3.0
v -49.0 -20.0 -3.4
v -49.0 -20.3 -3.0
v -49.0 -20.6 -2.0
v -49.6 -20.0 -2.0
v -49.0 -20.4 2.0
v -49.3 -20.0 2.0
v -49.0 -20.0 2.3
v -49.0 -19.0 -4.4
v -49.0 -19.5 -4.0
v -49.8 -19.0 -3.0
v -49.6 -19.0 1.0
v -49.0 -19.0 2.0
v -49.0 -19.0 2.0
v -49.0 -18.0 -4.4
v -49.7 -18.0 1.0
v -49.0 -19.0 2.0
v -49.4 -18.0 2.0
v -49.0 -18.0 2.4
v -49.7 -17.0 -4.0
v -49.0 -17.0 -4.4
v -49.0 -17.0 2.5
v -49.0 -16.0 -4.4
v -49.0 -16.0 2.4
v -49.0 -15.0 -4.3
v -49.0 -15.0 2.3
v -49.4 -14.0 -4.0
v -49.0 -14.0 -4.2
v -49.0 -14.6 2.0
v -49.0 -14.0 1.6
v -49.0 -13.0 -4.0
v -49.0 -13.0 -4.0
v -49.0 -13.5 1.0
v -49.0 -13.0 0.6
v -49.0 -13.0 -4.0
v -49.0 -12.0 -3.6
v -49.0 -12.0 0.5
v -49.0 -11.0 -4.3
v -49.0 -11.5 -4.0
v -49.0 -11.0 0.5
v -49.1 -10.0 -5.0
v -49.0 -10.0 -5.1
v -49.0 -10.1 -5.0
v -49.0 -10.0 0.4
v -49.0 -9.0 -5.0
v -49.0 -9.1 -4.0
v -49.0 -9.0 -4.7
v -49.1 -9.0 -4.0
v -49.0 -9.0 -3.9
v -49.0 -9.0 0.7
v -49.0 -8.9 -5.0
v -49.6 -8.0 -5.0
v -49.4 -8.0 -4.0
v -49.0 -8.0 -3.6
v -49.0 -8.5 1.0
v -49.0 -8.0 1.3
v -49.8 -7.0 -6.0
v -49.4 -7.0 -5.0
v -49.2 -7.0 -4.0
v -49.0 -7.0 -3.7
v -49.0 -7.0 1.2
v -49.6 -6.0 -6.0
v -49.0 -6.0 -5.4
v -49.0 -6.4 -5.0
v -49.0 -6.7 -4.0
v -49.4 -6.0 0.0
v -49.0 -6.3 0.0
v -49.0 -6.0 -0.4
v -49.9 -6.0 1.0
v -49.0 -6.7 1.0
v -49.9 -5.0 -7.0
v -49.0 -5.0 -6.4
v -49.0 -5.5 -6.0
v -49.4 -5.0 -1.0
v -49.0 -5.4 -1.0
v -49.0 -5.0 -1.4
v -49.9 -4.0 -8.0
v -49.4 -4.0 -7.0
v -49.0 -4.0 -6.6
v -49.4 -4.0 -2.0
v -49.0 -4.4 -2.0
v -49.0 -4.0 -2.5
v -49.7 -4.0 -1.0
v -49.7 -3.0 -8.0
v -49.4 -3.0 -7.0
v -49.0 -3.0 -6.5
v -49.2 -3.0 -5.0
v -49.0 -3.2 -5.0
v -49.0 -3.0 -5.3
v -49.6 -3.0 -4.0
v -49.0 -3.5 -4.0
v -49.0 -3.7 -3.0
v -49.8 -2.0 -8.0
v -49.4 -2.0 -7.0
v -49.0 -2.0 -6.4
v -49.5 -2.0 -5.0
v -49.0 -2.0 -5.7
v -49.6 -1.0 -7.0
v -49.0 -1.0 -6.1
v -49.6 -1.0 -5.0
v -49.0 -1.0 -5.9
v -49.8 0.0 -6.0
v -49.0 -0.9 -6.0
v -49.3 2.0 -6.0
v -49.0 2.0 -6.4
v -49.0 1.7 -6.0
v -49.0 1.5 -5.0
v -49.5 2.0 -5.0
v -49.0 1.7 -4.0
v -49.3 2.0 -4.0
v -49.0 2.0 -3.7
v -49.8 3.0 -10.0
v -49.4 3.0 -9.0
v -49.0 3.0 -8.5
v -49.0 2.7 -8.0
v -49.0 2.4 -7.0
v -49.0 3.0 -3.4
v -49.7 3.0 -3.0
v -49.4 4.0 -10.0
v -49.0 4.0 -9.6
v -49.0 3.4 -9.0
v -49.7 4.0 -3.0
v -49.0 4.0 -3.5
v -49.8 5.0 -11.0
v -49.0 5.0 -10.4
v -49.0 4.5 -10.0
v -49.0 5.0 -3.8
v -49.0 6.0 -10.4
v -49.4 6.0 -5.0
v -49.0 5.7 -5.0
v -49.0 6.0 -5.3
v -49.0 5.2 -4.0
v -49.8 7.0 -11.0
v -49.0 7.0 -10.5
v -49.0 7.0 -5.6
v -49.0 8.0 -10.3
v -49.0 8.0 -5.8
v -49.0 8.4 -10.0
v -49.0 9.0 -9.6
v -49.4 9.0 -6.0
v -49.0 8.4 -6.0
v -49.0 9.0 -6.4
v -49.0 10.0 -9.5
v -49.6 10.0 -6.0
v -49.0 10.0 -6.5
v -49.0 11.0 -9.5
v -49.0 11.0 -6.7
v -49.0 12.0 -10.3
v -49.0 11.7 -10.0
v -49.4 12.0 -7.0
v -49.0 11.4 -7.0
v -49.0 12.0 -7.4
v -49.0 13.0 -11.2
v -49.0 12.7 -11.0
v -49.7 13.0 -7.0
v -49.0 13.0 -7.6
v -49.0 14.0 -11.3
v -49.5 14.0 -8.0
v -49.0 13.4 -8.0
v -49.0 14.0 -8.5
v -49.0 15.0 -11.2
v -49.5 15.0 -9.0
v -49.0 14.5 -9.0
v -49.0 15.0 -9.5
v -49.0 15.2 -11.0
v -49.0 15.7 -10.0
v -48.5 -22.0 -1.0
v -48.0 -22.0 -1.5
v -48.0 -22.4 -1.0
v -48.0 -22.6 0.0
v -48.0 -22.6 1.0
v -48.0 -22.5 2.0
v -48.5 -22.0 2.0
v -48.0 -22.3 3.0
v -48.2 -22.0 3.0
v -48.0 -22.0 3.2
v -48.5 -21.0 -2.0
v -48.0 -21.0 -2.6
v -48.0 -21.5 -2.0
v -48.7 -21.0 2.0
v -48.4 -21.0 3.0
v -48.0 -21.0 3.4
v -48.4 -20.0 -4.0
v -48.0 -20.0 -4.2
v -48.0 -20.3 -4.0
v -48.0 -20.7 -3.0
v -48.5 -20.0 3.0
v -48.0 -20.0 3.4
v -48.0 -19.0 -4.4
v -49.0 -19.0 2.0
v -48.8 -19.0 3.0
v -48.0 -19.0 3.3
v -48.0 -18.2 -4.0
v -48.2 -18.0 -4.0
v -48.0 -18.0 -3.9
v -48.0 -18.6 3.0
v -48.0 -18.0 2.6
v -48.0 -17.0 -4.1
v -48.0 -17.5 -4.0
v -48.0 -17.0 2.3
v -48.0 -16.7 -4.0
v -48.4 -16.0 -4.0
v -48.0 -16.0 -3.6
v -48.4 -16.0 2.0
v -48.0 -16.5 2.0
v -48.0 -16.0 1.7
v -48.6 -15.0 -4.0
v -48.0 -15.0 -3.4
v -48.5 -15.0 2.0
v -48.0 -15.0 1.7
v -48.8 -14.0 -4.0
v -48.0 -14.4 -3.0
v -48.3 -14.0 -3.0
v -48.0 -14.0 -2.7
v -48.0 -14.0 1.9
v -49.0 -13.0 -4.0
v -48.4 -13.0 -3.0
v -48.0 -13.0 -2.6
v -48.0 -13.3 1.0
v -48.0 -13.0 0.7
v -48.4 -12.0 -3.0
v -48.0 -12.0 -2.6
v -48.0 -12.0 0.5
v -48.6 -11.0 -4.0
v -48.0 -11.0 -3.4
v -48.0 -11.5 -3.0
v -48.0 -11.0 0.4
v -48.9 -10.0 -5.0
v -48.0 -10.0 -4.1
v -48.0 -10.1 -4.0
v -48.1 -10.0 0.0
v -48.0 -10.2 0.0
v -48.0 -10.0 -0.1
v -49.0 -9.0 -5.0
v -48.0 -9.9 -4.0
v -48.3 -9.0 -3.0
v -48.0 -9.4 -3.0
v -48.0 -9.0 -2.7
v -48.0 -9.9 0.0
v -48.0 -9.1 1.0
v -48.2 -9.0 1.0
v -48.0 -9.0 1.1
v -48.5 -8.0 -3.0
v -48.0 -8.0 -2.4
v -48.5 -8.0 1.0
v -48.0 -8.0 0.5
v -48.0 -8.8 1.0
v -48.3 -7.0 -3.0
v -48.0 -7.0 -2.6
v -48.7 -7.0 1.0
v -48.0 -7.0 0.2
v -48.7 -6.0 -5.0
v -48.4 -6.0 -4.0
v -48.0 -6.0 -3.6
v -48.0 -6.7 -3.0
v -48.4 -6.0 -1.0
v -48.0 -6.5 -1.0
v -48.0 -6.0 -1.3
v -48.0 -6.8 0.0
v -48.6 -5.0 -6.0
v -48.3 -5.0 -5.0
v -48.0 -5.0 -4.4
v -48.0 -5.4 -4.0
v -48.0 -5.0 -1.6
v -48.0 -4.0 -6.2
v -48.0 -4.2 -6.0
v -48.0 -4.2 -5.0
v -48.0 -4.0 -4.8
v -48.4 -4.0 -4.0
v -48.0 -4.7 -4.0
v -48.6 -4.0 -3.0
v -48.0 -4.4 -3.0
v -48.0 -4.6 -2.0
v -48.0 -3.0 -6.0
v -48.0 -3.9 -5.0
v -48.0 -3.0 -6.0
v -48.0 -3.0 -6.0
v -48.7 -2.0 -6.0
v -48.9 -1.0 -6.0
v -48.2 1.0 -5.0
v -48.0 1.0 -5.1
v -48.0 0.9 -5.0
v -48.0 0.7 -4.0
v -48.3 1.0 -4.0
v -48.0 1.0 -3.3
v -48.0 2.0 -6.6
v -48.0 1.5 -6.0
v -48.0 2.0 -3.4
v -48.5 3.0 -8.0
v -48.0 3.0 -7.7
v -48.0 2.4 -7.0
v -48.0 3.0 -3.6
v -48.0 4.0 -9.3
v -48.0 3.7 -9.0
v -48.0 3.3 -8.0
v -48.4 4.0 -4.0
v -48.0 3.6 -4.0
v -48.0 4.0 -4.3
v -48.6 5.0 -10.0
v -48.0 5.0 -9.6
v -48.7 5.0 -4.0
v -48.0 5.0 -4.7
v -48.2 6.0 -10.0
v -48.0 6.0 -9.9
v -48.3 6.0 -6.0
v -48.0 5.7 -6.0
v -48.0 6.0 -6.3
v -48.0 5.3 -5.0
v -48.0 7.0 -10.3
v -48.0 6.3 -10.0
v -48.2 7.0 -7.0
v -48.0 6.7 -7.0
v -48.0 7.0 -7.3
v -48.6 7.0 -6.0
v -48.0 7.5 -10.0
v -48.5 8.0 -10.0
v -48.0 8.0 -9.6
v -48.4 8.0 -7.0
v -48.0 8.0 -7.5
v -48.8 8.0 -6.0
v -48.0 9.0 -9.4
v -48.5 9.0 -7.0
v -48.0 9.0 -7.5
v -48.0 10.0 -9.2
v -48.5 10.0 -7.0
v -48.0 10.0 -7.7
v -48.0 10.3 -9.0
v -48.5 11.0 -9.0
v -48.4 11.0 -8.0
v -48.0 10.3 -8.0
v -48.7 11.0 -7.0
v -48.7 12.0 -10.0
v -48.4 12.0 -9.0
v -48.6 12.0 -8.0
v -48.8 13.0 -11.0
v -48.5 13.0 -10.0
v -48.1 13.0 -9.0
v -48.7 13.0 -8.0
v -48.7 14.0 -11.0
v -48.5 14.0 -10.0
v -48.6 14.0 -9.0
v -48.8 15.0 -11.0
v -48.7 15.0 -10.0
v -47.3 -23.0 -1.0
v -47.0 -23.0 -1.3
v -47.0 -23.3 -1.0
v -47.0 -23.5 0.0
v -47.5 -23.0 0.0
v -47.0 -23.5 1.0
v -47.5 -23.0 1.0
v -47.0 -23.5 2.0
v -47.5 -23.0 2.0
v -47.0 -23.3 3.0
v -47.3 -23.0 3.0
v -47.0 -23.0 3.3
v -47.4 -22.0 -2.0
v -47.0 -22.0 -2.4
v -47.0 -22.4 -2.0
v -47.0 -22.0 3.6
v -47.5 -21.0 -3.0
v -47.0 -21.0 -3.4
v -47.0 -21.4 -3.0
v -47.0 -21.0 3.5
v -47.0 -20.0 -4.2
v -47.0 -20.3 -4.0
v -47.0 -20.0 3.5
v -47.0 -19.0 -4.2
v -47.0 -19.0 3.3
v -47.0 -18.7 -4.0
v -47.0 -18.0 -3.5
v -47.0 -18.6 3.0
v -47.0 -18.0 2.5
v -47.8 -17.0 -4.0
v -47.0 -17.0 -3.4
v -47.5 -17.0 2.0
v -47.0 -17.4 2.0
v -47.0 -17.0 1.6
v -47.3 -16.0 -3.0
v -47.0 -16.5 -3.0
v -47.0 -16.0 -2.7
v -47.1 -16.0 1.0
v -47.0 -16.1 1.0
v -47.0 -16.0 0.9
v -47.6 -15.0 -3.0
v -47.0 -15.0 -2.5
v -47.0 -15.8 1.0
v -47.0 -15.0 1.3
v -47.0 -14.0 -2.3
v -47.0 -14.0 1.5
v -47.0 -13.5 -2.0
v -47.4 -13.0 -2.0
v -47.0 -13.0 -1.7
v -47.4 -13.0 1.0
v -47.0 -13.0 1.3
v -47.5 -12.0 -2.0
v -47.0 -12.0 -1.4
v -47.0 -12.5 1.0
v -47.0 -12.0 0.6
v -47.7 -11.0 -3.0
v -47.5 -11.0 -2.0
v -47.0 -11.6 -1.0
v -47.4 -11.0 -1.0
v -47.3 -11.0 0.0
v -47.0 -11.3 0.0
v -47.0 -11.0 0.7
v -47.0 -11.2 1.0
v -47.1 -11.0 1.0
v -47.0 -11.0 1.1
v -47.9 -10.0 -4.0
v -47.6 -10.0 -3.0
v -47.4 -10.0 -2.0
v -47.3 -10.0 -1.0
v -47.0 -10.0 0.8
v -47.1 -10.0 1.0
v -47.0 -10.0 1.1
v -47.0 -9.0 -2.0
v -47.0 -9.0 -2.0
v -47.0 -9.4 -1.0
v -47.0 -9.5 0.0
v -47.0 -9.0 1.1
v -47.0 -9.0 -2.0
v -47.6 -8.0 -2.0
v -47.8 -8.0 -1.0
v -47.0 -8.7 -1.0
v -47.6 -8.0 0.0
v -47.0 -8.7 0.0
v -47.0 -8.9 1.0
v -47.5 -7.0 -2.0
v -47.6 -7.0 -1.0
v -47.8 -7.0 0.0
v -47.0 -6.0 -3.3
v -47.0 -6.3 -3.0
v -47.0 -6.4 -2.0
v -47.0 -6.0 -1.7
v -47.7 -5.0 -4.0
v -47.0 -5.0 -3.4
v -47.0 -5.0 -1.8
v -47.8 -4.0 -6.0
v -47.9 -4.0 -5.0
v -47.0 -4.7 -3.0
v -47.0 -4.8 -2.0
v -48.0 -3.0 -6.0
v -47.8 1.0 -5.0
v -47.0 1.0 -4.3
v -47.0 0.9 -4.0
v -47.0 1.0 -3.8
v -47.4 2.0 -7.0
v -47.0 2.0 -7.2
v -47.0 1.8 -7.0
v -47.0 1.5 -6.0
v -47.0 1.4 -5.0
v -47.0 2.0 -3.6
v -47.0 3.0 -7.6
v -47.0 3.0 -3.8
v -47.6 4.0 -9.0
v -47.0 4.0 -8.5
v -47.0 3.6 -8.0
v -47.1 4.0 -5.0
v -47.0 3.9 -5.0
v -47.0 4.0 -5.1
v -47.0 3.2 -4.0
v -47.0 5.0 -9.5
v -47.0 4.4 -9.0
v -47.7 5.0 -5.0
v -47.0 5.0 -5.5
v -47.5 6.0 -10.0
v -47.0 6.0 -10.1
v -47.0 5.8 -10.0
v -47.0 5.5 -6.0
v -47.0 6.0 -6.5
v -47.0 7.0 -10.2
v -47.3 7.0 -8.0
v -47.0 6.7 -8.0
v -47.0 7.0 -8.4
v -47.0 6.4 -7.0
v -47.0 7.2 -10.0
v -47.5 8.0 -9.0
v -47.0 7.5 -9.0
v -47.6 8.0 -8.0
v -47.6 9.0 -9.0
v -47.6 9.0 -8.0
v -47.8 10.0 -9.0
v -47.8 10.0 -8.0
v -46.1 -24.0 -1.0
v -46.0 -24.0 -1.1
v -46.0 -24.1 -1.0
v -46.0 -24.5 0.0
v -46.5 -24.0 0.0
v -46.0 -24.5 1.0
v -46.5 -24.0 1.0
v -46.0 -24.5 2.0
v -46.5 -24.0 2.0
v -46.0 -24.4 3.0
v -46.4 -24.0 3.0
v -46.0 -24.0 3.4
v -46.0 -23.0 -1.6
v -46.0 -23.4 4.0
v -46.4 -23.0 4.0
v -46.0 -23.0 4.3
v -46.0 -22.0 -2.4
v -46.0 -22.5 -2.0
v -46.3 -22.0 4.0
v -46.0 -22.0 4.3
v -46.0 -21.0 -3.2
v -46.0 -21.3 -3.0
v -46.0 -21.7 4.0
v -46.0 -21.0 3.6
v -46.7 -20.0 -4.0
v -46.0 -20.0 -3.3
v -46.0 -20.0 3.3
v -46.8 -19.0 -4.0
v -46.0 -19.5 -3.0
v -46.3 -19.0 -3.0
v -46.0 -19.0 -2.7
v -46.5 -19.0 3.0
v -46.0 -19.5 3.0
v -46.0 -19.0 2.7
v -46.5 -18.0 -3.0
v -46.0 -18.0 -2.5
v -46.0 -18.0 2.3
v -46.6 -17.0 -3.0
v -46.0 -17.0 -2.5
v -46.0 -17.7 2.0
v -46.0 -17.0 1.4
v -46.0 -16.0 -2.3
v -46.0 -16.4 1.0
v -46.0 -16.0 0.8
v -46.0 -15.5 -2.0
v -46.4 -15.0 -2.0
v -46.0 -15.0 -1.7
v -46.2 -15.0 1.0
v -46.0 -15.0 0.9
v -46.6 -14.0 -2.0
v -46.0 -14.0 -1.6
v -46.0 -14.8 1.0
v -46.0 -14.0 1.4
v -46.0 -13.0 -1.1
v -46.2 -13.0 0.0
v -46.0 -13.2 0.0
v -46.0 -13.0 -0.6
v -46.0 -13.0 0.9
v -46.0 -13.1 2.0
v -46.1 -13.0 2.0
v -46.0 -13.0 2.1
v -46.0 -12.8 -1.0
v -46.7 -12.0 -1.0
v -46.4 -12.0 0.0
v -46.6 -12.0 1.0
v -46.0 -12.0 0.5
v -46.0 -12.0 2.0
v -46.0 -12.0 2.0
v -46.6 -11.0 0.0
v -46.0 -11.0 -0.3
v -46.0 -11.5 0.0
v -46.0 -12.0 2.0
v -46.0 -11.0 1.3
v -46.5 -10.0 0.0
v -46.0 -10.0 -0.7
v -46.9 -10.0 1.0
v -46.0 -10.6 1.0
v -46.0 -10.0 0.4
v -47.0 -9.0 -2.0
v -46.7 -9.0 -1.0
v -46.0 -9.6 0.0
v -46.6 -9.0 0.0
v -46.9 -9.0 1.0
v -46.3 -6.0 -3.0
v -46.6 -6.0 -2.0
v -46.7 -5.0 -3.0
v -46.8 -5.0 -2.0
v -46.3 1.0 -4.0
v -46.0 2.0 -7.2
v -46.0 1.8 -7.0
v -46.0 1.6 -6.0
v -46.0 1.6 -5.0
v -46.0 1.5 -4.0
v -46.0 2.0 -3.9
v -46.0 3.0 -7.4
v -46.7 3.0 -4.0
v -46.0 2.2 -4.0
v -46.0 3.0 -4.5
v -46.4 4.0 -8.0
v -46.0 4.0 -7.7
v -46.5 4.0 -5.0
v -46.0 4.0 -4.9
v -46.0 5.0 -9.2
v -46.0 4.8 -9.0
v -46.0 4.5 -8.0
v -46.0 4.1 -5.0
v -46.0 5.0 -5.7
v -46.8 6.0 -10.0
v -46.0 6.0 -9.5
v -46.0 5.3 -6.0
v -46.0 6.0 -6.9
v -46.8 7.0 -10.0
v -46.0 7.0 -9.2
v -46.0 6.0 -8.0
v -46.0 7.0 -8.8
v -46.0 6.1 -7.0
v -46.0 7.2 -9.0
v -45.3 -25.0 0.0
v -45.0 -25.0 -0.2
v -45.0 -25.2 0.0
v -45.0 -25.5 1.0
v -45.5 -25.0 1.0
v -45.0 -25.5 2.0
v -45.5 -25.0 2.0
v -45.0 -25.4 3.0
v -45.4 -25.0 3.0
v -45.0 -25.0 3.4
v -45.8 -24.0 -1.0
v -45.0 -24.0 -0.7
v -45.0 -24.5 4.0
v -45.5 -24.0 4.0
v -45.0 -24.0 4.4
v -45.0 -23.0 -1.8
v -45.0 -23.6 -1.0
v -45.0 -23.0 4.9
v -45.5 -22.0 -2.0
v -45.0 -22.0 -1.7
v -45.0 -22.0 4.3
v -45.8 -21.0 -3.0
v -45.4 -21.0 -2.0
v -45.0 -21.0 -1.6
v -45.0 -21.6 4.0
v -45.0 -21.0 3.5
v -45.7 -20.0 -3.0
v -45.3 -20.0 -2.0
v -45.0 -20.0 -1.8
v -45.5 -20.0 3.0
v -45.0 -20.4 3.0
v -45.0 -20.0 2.7
v -45.0 -19.4 -2.0
v -45.0 -19.0 -2.2
v -45.0 -19.0 2.4
v -45.0 -18.7 -2.0
v -45.4 -18.0 -2.0
v -45.0 -18.0 -1.7
v -45.6 -18.0 2.0
v -45.0 -18.4 2.0
v -45.0 -18.0 1.5
v -45.5 -17.0 -2.0
v -45.0 -17.0 -1.6
v -45.4 -17.0 1.0
v -45.0 -17.3 1.0
v -45.0 -17.0 0.7
v -45.6 -16.0 -2.0
v -45.0 -16.0 -1.5
v -45.0 -16.4 1.0
v -45.4 -16.0 1.0
v -45.0 -16.0 1.1
v -45.0 -15.0 -1.5
v -45.8 -15.0 1.0
v -45.0 -15.0 1.4
v -45.0 -14.0 -1.2
v -45.0 -14.0 1.4
v -45.0 -13.7 -1.0
v -45.8 -13.0 -1.0
v -45.0 -13.4 0.0
v -45.0 -13.0 0.4
v -45.0 -13.1 2.0
v -45.0 -13.0 2.1
v -45.0 -12.0 0.9
v -46.0 -12.0 2.0
v -45.0 -12.9 2.0
v -45.0 -12.0 1.2
v -45.0 -11.0 -0.0
v -45.0 -11.0 0.0
v -45.0 -11.8 1.0
v -45.7 -11.0 1.0
v -45.0 -11.0 0.0
v -45.0 -10.0 -0.2
v -45.0 -10.0 0.1
v -45.0 -9.7 0.0
v -45.8 2.0 -7.0
v -45.6 2.0 -6.0
v -45.7 2.0 -5.0
v -45.9 2.0 -4.0
v -45.5 3.0 -7.0
v -45.1 3.0 -6.0
v -45.6 3.0 -5.0
v -45.1 4.0 -7.0
v -45.4 4.0 -6.0
v -45.9 4.0 -5.0
v -45.8 5.0 -9.0
v -45.6 5.0 -8.0
v -45.5 5.0 -7.0
v -45.7 5.0 -6.0
v -45.0 6.0 -9.1
v -45.0 5.8 -9.0
v -45.0 6.0 -8.5
v -45.8 6.0 -8.0
v -45.9 6.0 -7.0
v -45.0 6.7 -9.0
v -45.2 7.0 -9.0
v -44.4 -26.0 1.0
v -44.0 -26.0 0.6
v -44.0 -26.3 1.0
v -44.0 -26.4 2.0
v -44.5 -26.0 2.0
v -44.0 -26.3 3.0
v -44.3 -26.0 3.0
v -44.0 -26.0 3.4
v -44.0 -25.0 -0.4
v -44.0 -25.5 0.0
v -44.0 -25.2 4.0
v -44.2 -25.0 4.0
v -44.0 -25.0 4.1
v -44.0 -24.0 -0.5
v -44.0 -24.0 4.4
v -44.4 -23.0 -1.0
v -44.0 -23.0 -0.7
v -44.0 -23.0 4.3
v -44.0 -22.0 -1.3
v -44.0 -22.5 -1.0
v -44.5 -22.0 4.0
v -44.0 -22.5 4.0
v -44.0 -22.0 3.7
v -44.0 -21.0 -1.4
v -44.0 -21.0 3.3
v -44.0 -20.0 -1.4
v -44.0 -20.6 3.0
v -44.0 -20.0 2.5
v -44.8 -19.0 -2.0
v -44.0 -19.0 -1.4
v -44.0 -19.0 2.2
v -44.0 -18.0 -1.3
v -44.5 -18.0 1.0
v -44.0 -18.4 1.0
v -44.0 -18.0 0.5
v -44.0 -18.8 2.0
v -44.0 -17.0 -1.1
v -44.3 -17.0 0.0
v -44.0 -17.4 0.0
v -44.0 -17.0 -0.7
v -44.0 -16.7 -1.0
v -44.3 -16.0 -1.0
v -44.0 -16.0 -0.5
v -44.0 -16.5 0.0
v -44.8 -16.0 1.0
v -44.0 -16.0 0.3
v -44.0 -15.0 -1.1
v -44.0 -15.3 -1.0
v -44.0 -15.2 1.0
v -44.0 -15.0 1.1
v -44.0 -14.9 -1.0
v -44.7 -14.0 -1.0
v -44.3 -14.0 0.0
v -44.0 -14.4 0.0
v -44.5 -14.0 1.0
v -44.0 -14.8 1.0
v -44.0 -13.0 1.0
v -44.0 -13.0 1.0
v -44.9 -13.0 2.0
v -44.0 -13.0 1.0
v -44.0 -13.0 1.0
v -44.9 -12.0 1.0
v -45.0 -11.0 0.0
v -44.9 -10.0 0.0
v -44.9 6.0 -9.0
v -43.3 -26.0 0.0
v -43.0 -26.0 -0.2
v -43.0 -26.2 0.0
v -43.0 -26.6 1.0
v -43.0 -26.6 2.0
v -43.0 -26.6 3.0
v -43.0 -26.0 3.9
v -43.0 -25.0 -0.4
v -43.7 -25.0 4.0
v -43.0 -25.0 3.7
v -43.0 -24.0 -0.4
v -43.5 -24.0 4.0
v -43.0 -24.0 3.5
v -43.0 -23.0 -0.4
v -43.6 -23.0 4.0
v -43.0 -23.0 3.5
v -43.6 -22.0 -1.0
v -43.0 -22.0 -0.5
v -43.0 -22.0 3.3
v -43.5 -21.0 -1.0
v -43.0 -21.0 -0.6
v -43.6 -21.0 3.0
v -43.0 -21.6 3.0
v -43.0 -21.0 2.5
v -43.5 -20.0 -1.0
v -43.0 -20.0 -0.5
v -43.4 -20.0 2.0
v -43.0 -20.5 2.0
v -43.0 -20.0 1.5
v -43.5 -19.0 -1.0
v -43.0 -19.0 -0.2
v -43.4 -19.0 1.0
v -43.0 -19.5 1.0
v -43.0 -19.0 0.2
v -43.8 -19.0 2.0
v -43.7 -18.0 -1.0
v -43.0 -18.9 0.0
v -43.6 -18.0 0.0
v -43.9 -17.0 -1.0
v -43.8 -16.0 0.0
v -43.9 -15.0 -1.0
v -43.2 -15.0 0.0
v -43.9 -15.0 1.0
v -44.0 -13.0 1.0
v -42.3 -27.0 1.0
v -42.0 -27.0 0.7
v -42.0 -27.2 1.0
v -42.0 -27.4 2.0
v -42.5 -27.0 2.0
v -42.0 -27.3 3.0
v -42.4 -27.0 3.0
v -42.0 -27.0 3.7
v -42.0 -26.0 -0.1
v -42.0 -26.1 0.0
v -42.0 -26.0 3.5
v -42.0 -25.8 0.0
v -42.4 -25.0 0.0
v -42.0 -25.0 0.4
v -42.0 -25.0 3.3
v -42.5 -24.0 0.0
v -42.0 -24.0 0.5
v -42.4 -24.0 3.0
v -42.0 -24.5 3.0
v -42.0 -24.0 2.7
v -42.5 -23.0 0.0
v -42.0 -23.0 0.5
v -42.5 -23.0 3.0
v -42.0 -23.0 2.4
v -42.4 -22.0 0.0
v -42.0 -22.0 0.6
v -42.3 -22.0 2.0
v -42.0 -22.5 2.0
v -42.0 -22.0 1.5
v -42.7 -22.0 3.0
v -42.0 -21.0 -0.1
v -42.0 -21.1 0.0
v -42.6 -21.0 2.0
v -42.0 -21.0 1.3
v -42.0 -20.9 0.0
v -42.6 -20.0 0.0
v -42.6 -20.0 1.0
v -42.0 -20.7 1.0
v -42.9 -19.0 0.0
v -41.0 -27.0 0.8
v -41.0 -27.2 1.0
v -41.0 -27.3 2.0
v -41.0 -27.0 3.0
v -41.0 -27.0 3.1
v -41.9 -26.0 0.0
v -41.0 -26.0 0.7
v -41.4 -26.0 3.0
v -41.0 -26.9 3.0
v -41.0 -26.0 2.6
v -41.4 -25.0 1.0
v -41.0 -25.6 1.0
v -41.0 -25.0 1.6
v -41.6 -25.0 3.0
v -41.0 -25.0 2.3
v -41.5 -24.0 1.0
v -41.0 -24.0 2.0
v -41.0 -24.0 2.0
v -41.6 -23.0 1.0
v -41.0 -24.0 2.0
v -41.7 -23.0 2.0
v -41.7 -22.0 1.0
v -41.9 -21.0 0.0
v -41.8 -21.0 1.0
v -40.8 -27.0 1.0
v -40.7 -27.0 2.0
v -41.0 -27.0 3.0
v -40.7 -26.0 1.0
v -40.6 -26.0 2.0
v -40.8 -25.0 2.0
v -41.0 -24.0 2.0
f 3 2 1
f 1 4 3
f 7 6 5
f 7 5 2
f 5 1 2
f 5 8 1
f 4 1 9
f 1 10 9
f 1 8 10
f 10 11 9
f 5 6 12
f 12 6 13
f 15 8 14
f 8 12 14
f 8 5 12
f 8 15 10
f 10 15 16
f 10 16 11
f 13 17 12
f 12 17 14
f 20 19 18
f 18 21 20
f 24 23 22
f 24 22 19
f 19 22 18
f 22 2 18
f 2 3 18
f 3 4 18
f 4 21 18
f 4 25 21
f 22 23 7
f 23 6 7
f 23 26 6
f 22 7 2
f 27 25 4
f 27 4 9
f 9 11 27
f 27 11 28
f 31 30 29
f 26 31 29
f 13 26 29
f 6 26 13
f 14 32 15
f 33 16 15
f 33 15 32
f 28 11 34
f 11 33 34
f 33 35 34
f 11 16 33
f 35 36 34
f 29 30 37
f 37 30 38
f 39 17 13
f 29 39 13
f 37 39 29
f 32 14 17
f 39 32 17
f 40 32 39
f 32 41 33
f 32 40 41
f 33 42 35
f 33 41 42
f 36 35 43
f 43 35 42
f 37 38 44
f 44 38 45
f 37 46 39
f 37 44 46
f 48 40 47
f 40 46 47
f 40 39 46
f 40 48 41
f 41 48 49
f 41 49 42
f 42 49 50
f 42 50 43
f 45 51 44
f 53 52 51
f 52 44 51
f 52 46 44
f 47 46 54
f 54 46 52
f 53 55 52
f 52 55 54
f 58 57 56
f 60 59 56
f 56 59 58
f 60 61 59
f 64 63 62
f 64 62 57
f 57 62 56
f 62 19 56
f 19 20 56
f 60 56 65
f 56 21 65
f 21 66 65
f 21 56 20
f 60 65 61
f 69 68 67
f 71 70 67
f 67 70 69
f 70 71 63
f 63 71 62
f 71 23 62
f 23 24 62
f 62 24 19
f 25 73 72
f 66 25 72
f 21 25 66
f 73 74 72
f 67 68 75
f 75 68 76
f 67 77 71
f 67 75 77
f 77 26 23
f 77 23 71
f 27 73 25
f 27 28 73
f 28 74 73
f 28 78 74
f 81 80 79
f 81 79 76
f 79 75 76
f 79 82 75
f 82 30 31
f 77 82 31
f 75 82 77
f 77 31 26
f 83 78 28
f 83 28 34
f 34 36 83
f 83 36 84
f 79 80 85
f 85 80 86
f 79 87 82
f 79 85 87
f 87 38 30
f 87 30 82
f 90 89 88
f 89 84 88
f 84 43 88
f 84 36 43
f 85 86 91
f 91 86 92
f 85 93 87
f 85 91 93
f 93 45 38
f 93 38 87
f 47 94 48
f 95 49 48
f 95 48 94
f 96 90 88
f 49 96 88
f 50 49 88
f 96 49 95
f 50 88 43
f 91 92 97
f 97 92 98
f 91 99 93
f 91 97 99
f 100 51 45
f 93 100 45
f 99 100 93
f 100 53 51
f 54 101 94
f 54 94 47
f 94 102 95
f 94 101 102
f 96 95 103
f 103 95 102
f 98 104 97
f 106 105 104
f 105 97 104
f 105 99 97
f 108 100 107
f 100 105 107
f 100 99 105
f 100 108 53
f 108 55 53
f 108 109 55
f 54 55 101
f 55 110 101
f 55 109 110
f 101 110 102
f 102 110 111
f 102 111 103
f 106 112 105
f 105 112 107
f 115 114 113
f 113 116 115
f 113 114 117
f 117 114 118
f 116 113 119
f 119 113 117
f 118 120 117
f 117 120 119
f 123 122 121
f 121 124 123
f 127 126 125
f 125 128 127
f 131 130 129
f 131 129 122
f 129 121 122
f 129 132 121
f 124 121 133
f 121 134 133
f 121 132 134
f 134 135 133
f 125 126 136
f 136 126 137
f 128 125 138
f 138 125 136
f 129 130 139
f 139 130 140
f 129 141 132
f 129 139 141
f 132 142 134
f 132 141 142
f 135 134 143
f 134 144 143
f 134 142 144
f 146 145 144
f 144 145 143
f 147 136 137
f 146 148 145
f 136 147 138
f 139 140 149
f 149 140 150
f 139 151 141
f 139 149 151
f 151 57 58
f 142 151 58
f 141 151 142
f 142 58 59
f 142 59 144
f 144 59 61
f 152 144 61
f 146 144 152
f 148 146 153
f 153 146 152
f 149 150 154
f 154 150 155
f 154 63 64
f 151 154 64
f 149 154 151
f 57 151 64
f 158 157 156
f 65 66 157
f 158 65 157
f 159 65 158
f 61 65 152
f 65 160 152
f 65 159 160
f 152 160 153
f 162 161 69
f 69 161 68
f 70 154 155
f 162 70 155
f 69 70 162
f 154 70 63
f 156 157 163
f 156 163 164
f 72 165 66
f 165 157 66
f 165 163 157
f 74 165 72
f 168 167 166
f 161 168 166
f 76 161 166
f 68 161 76
f 169 164 163
f 169 163 165
f 169 165 170
f 165 74 170
f 74 171 170
f 74 78 171
f 174 173 172
f 174 172 167
f 167 172 166
f 172 80 166
f 80 81 166
f 166 81 76
f 175 171 78
f 175 78 83
f 83 84 175
f 175 84 176
f 179 178 177
f 179 177 173
f 177 172 173
f 177 180 172
f 180 86 80
f 180 80 172
f 182 181 89
f 182 89 90
f 84 89 176
f 176 89 181
f 178 183 177
f 177 183 180
f 180 183 184
f 86 180 184
f 185 86 184
f 92 86 185
f 96 182 90
f 96 186 182
f 189 188 187
f 185 189 187
f 98 185 187
f 92 185 98
f 192 191 190
f 191 186 190
f 186 103 190
f 186 96 103
f 195 194 193
f 195 193 188
f 193 187 188
f 193 196 187
f 197 104 98
f 187 197 98
f 196 197 187
f 197 106 104
f 107 198 108
f 199 109 108
f 199 108 198
f 200 110 109
f 200 109 199
f 201 192 190
f 110 201 190
f 111 110 190
f 201 110 200
f 111 190 103
f 193 194 202
f 202 194 203
f 193 204 196
f 193 202 204
f 196 205 197
f 196 204 205
f 206 112 106
f 197 206 106
f 205 206 197
f 198 107 112
f 206 198 112
f 207 198 206
f 198 208 199
f 198 207 208
f 210 200 209
f 200 208 209
f 200 199 208
f 200 210 201
f 203 211 202
f 212 114 115
f 202 212 115
f 204 202 115
f 211 212 202
f 204 115 116
f 213 204 116
f 205 204 213
f 205 214 206
f 205 213 214
f 206 215 207
f 206 214 215
f 207 216 208
f 207 215 216
f 209 208 217
f 217 208 216
f 220 219 218
f 212 220 218
f 118 212 218
f 114 212 118
f 119 221 213
f 119 213 116
f 213 222 214
f 213 221 222
f 214 223 215
f 214 222 223
f 215 224 216
f 215 223 224
f 217 216 225
f 225 216 224
f 219 226 218
f 226 228 227
f 226 227 120
f 218 226 120
f 118 218 120
f 221 119 120
f 227 221 120
f 229 221 227
f 231 222 230
f 222 229 230
f 222 221 229
f 233 232 231
f 232 222 231
f 232 223 222
f 235 224 234
f 224 232 234
f 224 223 232
f 224 235 225
f 228 236 227
f 227 236 229
f 229 236 237
f 229 237 230
f 233 238 232
f 232 238 234
f 241 240 239
f 243 242 239
f 239 242 241
f 245 244 243
f 243 244 242
f 245 246 244
f 240 247 239
f 239 247 243
f 243 247 248
f 250 249 248
f 249 243 248
f 249 245 243
f 246 245 251
f 251 245 249
f 250 252 249
f 249 252 251
f 255 254 253
f 253 256 255
f 253 254 257
f 257 254 258
f 256 253 259
f 259 253 257
f 257 258 260
f 260 258 261
f 259 257 262
f 262 257 260
f 260 261 263
f 263 261 264
f 262 260 265
f 265 260 263
f 263 264 266
f 266 264 267
f 265 263 268
f 268 263 266
f 271 270 269
f 273 272 269
f 269 272 271
f 272 273 267
f 273 266 267
f 273 274 266
f 268 266 275
f 266 276 275
f 266 274 276
f 276 277 275
f 279 278 123
f 123 278 122
f 280 269 124
f 269 279 124
f 279 123 124
f 269 270 279
f 269 281 273
f 269 280 281
f 273 282 274
f 273 281 282
f 282 126 127
f 276 282 127
f 274 282 276
f 127 128 276
f 128 277 276
f 128 283 277
f 285 284 131
f 131 284 130
f 131 122 278
f 131 278 285
f 133 280 124
f 280 133 135
f 286 280 135
f 281 280 286
f 281 287 282
f 281 286 287
f 287 137 126
f 287 126 282
f 138 283 128
f 138 288 283
f 284 140 130
f 289 140 284
f 143 286 135
f 286 143 145
f 286 145 287
f 290 145 148
f 145 290 287
f 291 287 290
f 287 291 137
f 147 137 291
f 138 147 288
f 288 147 291
f 289 150 140
f 292 150 289
f 295 294 293
f 297 296 293
f 297 293 294
f 299 298 296
f 299 296 297
f 299 290 298
f 290 153 298
f 290 148 153
f 302 301 300
f 292 302 300
f 155 292 300
f 150 292 155
f 305 304 303
f 303 304 295
f 303 295 293
f 156 303 293
f 158 156 293
f 158 293 159
f 159 293 296
f 159 296 160
f 160 296 298
f 160 298 153
f 308 307 306
f 310 309 306
f 306 309 308
f 311 161 162
f 310 312 309
f 300 301 313
f 314 300 313
f 300 314 155
f 315 155 314
f 155 315 162
f 311 162 315
f 315 314 305
f 303 315 305
f 316 315 303
f 164 316 156
f 156 316 303
f 306 307 317
f 317 307 318
f 317 167 168
f 310 317 168
f 306 317 310
f 312 310 319
f 168 319 310
f 319 168 320
f 161 320 168
f 320 161 311
f 315 322 321
f 320 315 321
f 311 315 320
f 322 315 316
f 322 316 323
f 323 316 164
f 169 323 164
f 324 323 169
f 325 169 170
f 325 324 169
f 170 171 325
f 325 171 326
f 329 328 327
f 331 330 327
f 327 330 329
f 330 331 318
f 318 331 317
f 331 173 317
f 173 174 317
f 317 174 167
f 332 319 320
f 332 320 321
f 171 175 333
f 334 171 333
f 326 171 334
f 176 333 175
f 328 335 327
f 336 178 179
f 327 336 179
f 331 327 179
f 335 336 327
f 331 179 173
f 334 333 181
f 182 334 181
f 337 334 182
f 181 333 176
f 340 339 338
f 338 341 183
f 336 338 183
f 178 336 183
f 338 336 340
f 342 184 183
f 342 183 341
f 342 185 184
f 345 344 343
f 344 337 343
f 337 186 343
f 337 182 186
f 338 339 346
f 346 339 347
f 338 348 341
f 338 346 348
f 348 188 189
f 342 348 189
f 341 348 342
f 342 189 185
f 351 350 349
f 349 350 345
f 349 345 343
f 192 349 343
f 191 192 343
f 191 343 186
f 347 352 346
f 353 194 195
f 346 353 195
f 348 346 195
f 352 353 346
f 348 195 188
f 351 349 354
f 351 354 355
f 201 354 192
f 192 354 349
f 353 203 194
f 356 203 353
f 355 354 210
f 209 355 210
f 357 355 209
f 210 354 201
f 356 358 203
f 203 358 211
f 212 211 358
f 212 358 359
f 217 357 209
f 217 360 357
f 362 361 220
f 220 361 219
f 220 212 359
f 220 359 362
f 365 364 363
f 364 360 363
f 360 225 363
f 360 217 225
f 368 367 366
f 366 369 226
f 361 366 226
f 219 361 226
f 366 361 368
f 369 228 226
f 230 370 231
f 370 233 231
f 365 363 235
f 234 365 235
f 371 365 234
f 235 363 225
f 366 367 372
f 372 367 373
f 366 374 369
f 366 372 374
f 369 374 228
f 374 375 228
f 375 236 228
f 374 376 375
f 236 377 237
f 375 377 236
f 237 377 230
f 377 378 230
f 378 370 230
f 378 377 379
f 370 378 233
f 378 380 233
f 380 238 233
f 378 381 380
f 234 238 371
f 371 238 380
f 372 373 382
f 382 373 383
f 372 384 374
f 372 382 384
f 376 374 385
f 385 374 384
f 379 386 378
f 378 386 381
f 383 387 382
f 389 388 387
f 388 382 387
f 388 384 382
f 385 384 390
f 390 384 388
f 389 391 388
f 388 391 390
f 394 393 392
f 392 395 394
f 398 397 396
f 398 396 393
f 396 392 393
f 396 399 392
f 395 392 400
f 400 392 399
f 397 401 396
f 403 402 401
f 402 396 401
f 402 399 396
f 400 399 404
f 404 399 402
f 407 406 405
f 407 405 403
f 405 402 403
f 405 408 402
f 404 402 409
f 402 410 409
f 402 408 410
f 412 411 410
f 410 411 409
f 412 413 411
f 416 415 414
f 416 414 406
f 406 414 405
f 414 240 405
f 240 241 405
f 405 241 242
f 405 242 408
f 408 242 244
f 408 244 410
f 410 244 246
f 417 410 246
f 412 410 417
f 413 412 418
f 412 419 418
f 412 417 419
f 419 420 418
f 415 421 414
f 414 421 240
f 421 247 240
f 421 422 247
f 422 424 423
f 248 422 423
f 247 422 248
f 423 250 248
f 426 425 417
f 246 426 417
f 251 426 246
f 417 425 419
f 419 425 427
f 419 427 420
f 423 424 428
f 428 424 429
f 430 252 250
f 423 430 250
f 428 430 423
f 430 431 252
f 431 251 252
f 431 426 251
f 428 429 432
f 432 429 433
f 428 434 430
f 428 432 434
f 431 430 435
f 435 430 434
f 438 437 436
f 438 436 433
f 436 432 433
f 436 439 432
f 432 440 434
f 432 439 440
f 435 434 441
f 441 434 440
f 444 443 442
f 444 442 437
f 442 436 437
f 442 445 436
f 447 439 446
f 439 445 446
f 439 436 445
f 439 447 440
f 440 447 448
f 440 448 441
f 451 450 449
f 451 449 443
f 449 442 443
f 449 452 442
f 452 254 255
f 445 452 255
f 442 452 445
f 454 453 256
f 256 453 255
f 453 446 255
f 446 445 255
f 456 455 454
f 454 455 453
f 456 457 455
f 449 450 458
f 458 450 459
f 449 460 452
f 449 458 460
f 460 258 254
f 460 254 452
f 259 461 454
f 259 454 256
f 454 462 456
f 454 461 462
f 457 456 463
f 463 456 462
f 466 465 464
f 466 464 459
f 464 458 459
f 464 467 458
f 458 468 460
f 458 467 468
f 468 261 258
f 468 258 460
f 262 469 461
f 262 461 259
f 461 470 462
f 461 469 470
f 463 462 471
f 462 472 471
f 462 470 472
f 472 473 471
f 464 465 474
f 474 465 475
f 464 476 467
f 464 474 476
f 467 477 468
f 467 476 477
f 477 264 261
f 477 261 468
f 265 478 469
f 265 469 262
f 469 479 470
f 469 478 479
f 481 472 480
f 472 479 480
f 472 470 479
f 472 481 473
f 474 475 482
f 482 475 483
f 474 484 476
f 474 482 484
f 476 485 477
f 476 484 485
f 485 267 264
f 485 264 477
f 268 486 478
f 268 478 265
f 478 487 479
f 478 486 487
f 480 479 488
f 488 479 487
f 491 490 489
f 493 492 489
f 489 492 491
f 492 493 483
f 493 482 483
f 493 494 482
f 494 270 271
f 484 494 271
f 482 494 484
f 484 271 272
f 484 272 485
f 485 272 267
f 275 486 268
f 486 275 277
f 495 486 277
f 487 486 495
f 488 487 496
f 496 487 495
f 499 498 497
f 499 497 490
f 497 489 490
f 497 500 489
f 489 501 493
f 489 500 501
f 501 278 279
f 494 501 279
f 493 501 494
f 494 279 270
f 503 502 495
f 277 503 495
f 283 503 277
f 495 502 496
f 497 498 504
f 504 498 505
f 497 506 500
f 497 504 506
f 506 284 285
f 501 506 285
f 500 506 501
f 501 285 278
f 509 508 507
f 511 510 507
f 511 507 508
f 511 503 510
f 503 288 510
f 503 283 288
f 505 512 504
f 514 513 512
f 513 504 512
f 513 506 504
f 513 289 284
f 513 284 506
f 517 516 515
f 515 516 509
f 507 515 509
f 518 515 507
f 290 518 291
f 518 510 291
f 518 507 510
f 291 510 288
f 513 514 519
f 519 514 520
f 519 292 289
f 519 289 513
f 522 521 294
f 522 294 295
f 515 297 517
f 297 521 517
f 297 294 521
f 297 515 299
f 299 515 518
f 299 518 290
f 523 301 302
f 520 524 519
f 525 519 524
f 519 525 292
f 526 292 525
f 292 526 302
f 523 302 526
f 304 305 526
f 525 304 526
f 527 304 525
f 295 304 522
f 522 304 527
f 528 307 308
f 309 529 308
f 308 529 528
f 301 523 313
f 529 309 312
f 313 523 314
f 314 523 526
f 314 526 305
f 532 531 530
f 533 532 528
f 532 318 528
f 318 307 528
f 532 530 318
f 535 534 533
f 528 535 533
f 529 535 528
f 319 535 312
f 312 535 529
f 536 321 322
f 536 322 537
f 322 538 537
f 322 323 538
f 539 323 324
f 539 538 323
f 540 324 325
f 540 539 324
f 325 326 540
f 540 326 541
f 543 542 329
f 329 542 328
f 330 530 531
f 543 330 531
f 329 330 543
f 530 330 318
f 544 534 535
f 544 535 319
f 332 544 319
f 545 544 332
f 332 321 536
f 546 332 536
f 545 332 546
f 546 536 537
f 334 541 326
f 334 547 541
f 335 328 548
f 328 549 548
f 328 542 549
f 548 336 335
f 552 551 550
f 551 547 550
f 547 337 550
f 547 334 337
f 548 549 340
f 549 339 340
f 549 553 339
f 548 340 336
f 552 550 344
f 345 552 344
f 554 552 345
f 344 550 337
f 553 347 339
f 555 347 553
f 557 556 350
f 557 350 351
f 345 350 554
f 554 350 556
f 555 558 347
f 347 558 352
f 353 352 558
f 353 558 559
f 562 561 560
f 561 557 560
f 557 355 560
f 557 351 355
f 559 356 353
f 563 356 559
f 562 560 564
f 562 564 565
f 357 564 355
f 355 564 560
f 563 566 356
f 356 566 358
f 359 358 566
f 359 566 567
f 565 564 568
f 565 568 569
f 360 568 357
f 357 568 564
f 571 570 362
f 362 570 361
f 362 359 567
f 362 567 571
f 569 568 364
f 365 569 364
f 572 569 365
f 364 568 360
f 574 573 368
f 368 573 367
f 368 361 570
f 368 570 574
f 371 572 365
f 371 575 572
f 573 373 367
f 576 373 573
f 376 577 375
f 578 377 375
f 578 375 577
f 578 379 377
f 580 579 380
f 580 380 381
f 371 380 575
f 575 380 579
f 576 383 373
f 581 383 576
f 385 582 577
f 385 577 376
f 577 583 578
f 577 582 583
f 578 583 379
f 583 584 379
f 584 386 379
f 583 585 584
f 381 386 580
f 580 386 584
f 581 586 383
f 383 586 387
f 389 387 586
f 389 586 587
f 390 588 582
f 390 582 385
f 582 589 583
f 582 588 589
f 585 583 590
f 590 583 589
f 587 591 389
f 389 591 391
f 390 391 588
f 391 592 588
f 391 591 592
f 588 592 589
f 589 592 593
f 589 593 590
f 596 595 594
f 594 597 596
f 600 599 598
f 600 598 595
f 598 594 595
f 598 601 594
f 597 594 602
f 594 603 602
f 594 601 603
f 603 604 602
f 607 606 605
f 605 608 607
f 611 610 609
f 611 609 599
f 599 609 598
f 609 393 598
f 393 394 598
f 598 394 395
f 612 598 395
f 601 598 612
f 614 603 613
f 603 612 613
f 603 601 612
f 603 614 604
f 605 606 615
f 615 606 616
f 608 605 617
f 605 618 617
f 605 615 618
f 617 618 610
f 610 618 609
f 618 397 609
f 397 398 609
f 609 398 393
f 400 619 612
f 400 612 395
f 613 612 620
f 620 612 619
f 616 621 615
f 623 622 621
f 622 615 621
f 622 618 615
f 624 401 397
f 618 624 397
f 622 624 618
f 624 403 401
f 404 625 619
f 404 619 400
f 620 619 626
f 619 627 626
f 619 625 627
f 629 628 627
f 627 628 626
f 629 630 628
f 633 632 631
f 633 631 623
f 631 622 623
f 631 634 622
f 634 406 407
f 624 634 407
f 622 634 624
f 624 407 403
f 409 625 404
f 625 409 411
f 625 411 627
f 627 411 413
f 635 627 413
f 629 627 635
f 630 629 636
f 636 629 635
f 631 632 637
f 637 632 638
f 637 415 416
f 634 637 416
f 631 637 634
f 634 416 406
f 418 635 413
f 418 420 635
f 420 636 635
f 420 639 636
f 638 640 637
f 640 642 641
f 640 641 421
f 637 640 421
f 415 637 421
f 643 422 421
f 643 421 641
f 643 424 422
f 426 644 425
f 425 644 645
f 646 425 645
f 427 425 646
f 420 427 639
f 639 427 646
f 641 642 647
f 647 642 648
f 641 649 643
f 641 647 649
f 649 429 424
f 649 424 643
f 651 650 644
f 426 651 644
f 431 651 426
f 644 650 645
f 647 648 652
f 652 648 653
f 647 654 649
f 647 652 654
f 654 433 429
f 654 429 649
f 435 651 431
f 435 655 651
f 658 657 656
f 658 656 653
f 656 652 653
f 656 659 652
f 659 437 438
f 654 659 438
f 652 659 654
f 654 438 433
f 441 655 435
f 441 660 655
f 656 657 661
f 661 657 662
f 661 443 444
f 659 661 444
f 656 661 659
f 659 444 437
f 446 663 447
f 664 448 447
f 664 447 663
f 664 665 448
f 665 441 448
f 665 660 441
f 668 667 666
f 668 666 662
f 662 666 661
f 666 450 661
f 450 451 661
f 661 451 443
f 453 663 446
f 663 453 455
f 663 455 664
f 455 457 664
f 457 665 664
f 457 669 665
f 666 667 670
f 670 667 671
f 670 459 450
f 670 450 666
f 463 673 672
f 669 463 672
f 457 463 669
f 673 674 672
f 677 676 675
f 677 675 671
f 671 675 670
f 675 465 670
f 465 466 670
f 670 466 459
f 471 673 463
f 471 473 673
f 473 674 673
f 473 678 674
f 675 676 679
f 679 676 680
f 679 475 465
f 679 465 675
f 480 681 481
f 681 682 481
f 682 473 481
f 682 678 473
f 685 684 683
f 685 683 680
f 683 679 680
f 683 686 679
f 686 483 475
f 686 475 679
f 689 688 687
f 688 690 681
f 488 688 681
f 480 488 681
f 687 688 488
f 681 690 682
f 693 692 691
f 693 691 684
f 684 691 683
f 691 490 683
f 490 491 683
f 683 491 492
f 683 492 686
f 686 492 483
f 689 687 694
f 689 694 695
f 496 694 488
f 488 694 687
f 691 692 499
f 692 498 499
f 692 696 498
f 691 499 490
f 699 698 697
f 701 700 697
f 701 697 698
f 703 702 700
f 703 700 701
f 702 703 695
f 702 695 694
f 503 702 694
f 502 503 694
f 502 694 496
f 696 505 498
f 704 505 696
f 707 706 705
f 705 706 699
f 697 705 699
f 708 705 697
f 509 708 508
f 708 700 508
f 708 697 700
f 508 700 511
f 511 700 702
f 511 702 503
f 704 709 505
f 505 709 512
f 514 512 709
f 514 709 710
f 707 705 711
f 707 711 712
f 517 711 516
f 711 708 516
f 711 705 708
f 516 708 509
f 714 520 713
f 520 710 713
f 520 514 710
f 715 714 713
f 718 717 716
f 716 717 712
f 716 712 711
f 522 716 711
f 521 522 711
f 521 711 517
f 714 524 520
f 715 719 714
f 719 524 714
f 719 525 524
f 716 527 718
f 527 719 718
f 527 525 719
f 527 716 522
f 721 720 532
f 532 720 531
f 722 532 533
f 722 721 532
f 724 723 534
f 723 533 534
f 723 722 533
f 726 725 724
f 724 725 723
f 728 727 726
f 726 727 725
f 537 538 728
f 538 727 728
f 538 729 727
f 730 538 539
f 730 729 538
f 731 539 540
f 731 730 539
f 540 541 731
f 731 541 732
f 733 542 543
f 734 733 543
f 531 734 543
f 720 734 531
f 544 724 534
f 724 544 545
f 724 545 726
f 726 545 546
f 726 546 728
f 728 546 537
f 547 732 541
f 547 735 732
f 737 736 733
f 736 542 733
f 736 549 542
f 737 733 734
f 739 738 551
f 739 551 552
f 547 551 735
f 735 551 738
f 741 553 740
f 553 736 740
f 553 549 736
f 742 741 740
f 745 744 743
f 744 739 743
f 739 554 743
f 739 552 554
f 747 746 741
f 746 553 741
f 746 555 553
f 747 741 742
f 750 749 748
f 748 749 745
f 748 745 743
f 557 748 743
f 556 557 743
f 556 743 554
f 746 751 555
f 555 751 558
f 559 558 751
f 559 751 752
f 750 748 561
f 562 750 561
f 753 750 562
f 561 748 557
f 755 563 754
f 563 752 754
f 563 559 752
f 756 755 754
f 565 753 562
f 565 757 753
f 755 566 563
f 567 566 755
f 756 567 755
f 758 567 756
f 569 757 565
f 569 759 757
f 760 570 571
f 761 760 571
f 567 761 571
f 758 761 567
f 764 763 762
f 763 759 762
f 759 572 762
f 759 569 572
f 765 573 574
f 766 765 574
f 766 574 570
f 767 766 570
f 760 767 570
f 767 760 761
f 764 762 768
f 764 768 769
f 575 768 572
f 572 768 762
f 771 770 765
f 770 573 765
f 770 576 573
f 771 765 766
f 769 768 579
f 580 769 579
f 772 769 580
f 579 768 575
f 770 581 576
f 773 581 770
f 775 774 584
f 775 584 585
f 580 584 772
f 772 584 774
f 586 581 776
f 581 777 776
f 581 773 777
f 776 587 586
f 780 779 778
f 779 775 778
f 775 590 778
f 775 585 590
f 777 781 776
f 776 781 587
f 781 591 587
f 781 782 591
f 591 783 592
f 782 783 591
f 778 593 780
f 593 783 780
f 593 592 783
f 593 778 590
f 786 785 784
f 788 787 784
f 784 787 786
f 788 789 787
f 792 791 790
f 792 790 785
f 785 790 784
f 790 595 784
f 595 596 784
f 784 596 597
f 793 784 597
f 788 784 793
f 789 788 794
f 794 788 793
f 797 796 795
f 799 798 795
f 795 798 797
f 798 799 791
f 791 799 790
f 799 599 790
f 599 600 790
f 790 600 595
f 602 793 597
f 801 800 604
f 604 800 602
f 800 794 602
f 794 793 602
f 801 802 800
f 804 803 607
f 607 803 606
f 805 795 608
f 795 804 608
f 804 607 608
f 795 796 804
f 805 610 611
f 799 805 611
f 795 805 799
f 799 611 599
f 613 806 614
f 806 807 614
f 614 807 604
f 807 808 604
f 808 801 604
f 801 808 802
f 803 616 606
f 809 616 803
f 617 805 608
f 805 617 610
f 620 810 806
f 620 806 613
f 807 806 811
f 806 812 811
f 806 810 812
f 812 813 811
f 621 616 814
f 616 815 814
f 616 809 815
f 814 623 621
f 626 810 620
f 810 626 628
f 810 628 812
f 628 630 812
f 630 813 812
f 630 816 813
f 814 815 633
f 815 632 633
f 815 817 632
f 814 633 623
f 636 816 630
f 636 818 816
f 817 638 632
f 819 638 817
f 639 818 636
f 639 820 818
f 640 638 821
f 638 822 821
f 638 819 822
f 821 642 640
f 824 823 646
f 824 646 645
f 639 646 820
f 820 646 823
f 821 822 825
f 825 822 826
f 825 648 642
f 825 642 821
f 828 827 650
f 828 650 651
f 645 650 824
f 824 650 827
f 826 829 825
f 648 825 829
f 830 648 829
f 653 648 830
f 655 828 651
f 655 831 828
f 833 832 658
f 658 832 657
f 658 653 830
f 658 830 833
f 660 831 655
f 660 834 831
f 837 836 835
f 832 837 835
f 662 832 835
f 657 832 662
f 665 834 660
f 665 838 834
f 835 836 668
f 836 667 668
f 836 839 667
f 835 840 662
f 840 835 841
f 668 841 835
f 841 668 842
f 662 842 668
f 842 662 840
f 843 842 840
f 669 838 665
f 669 844 838
f 846 671 845
f 671 839 845
f 671 667 839
f 846 845 841
f 842 846 841
f 847 846 842
f 842 843 848
f 842 848 847
f 849 844 669
f 849 669 672
f 672 674 849
f 849 674 850
f 851 676 677
f 671 846 677
f 846 851 677
f 846 852 851
f 853 846 847
f 852 846 853
f 847 848 854
f 847 854 853
f 678 850 674
f 678 855 850
f 856 680 851
f 851 680 676
f 852 858 857
f 856 852 857
f 851 852 856
f 858 852 853
f 858 853 859
f 859 853 854
f 862 861 860
f 864 863 860
f 864 860 861
f 864 855 863
f 855 682 863
f 855 678 682
f 865 684 685
f 866 865 685
f 866 685 680
f 867 866 680
f 856 867 680
f 867 856 857
f 870 869 868
f 868 869 862
f 868 862 860
f 689 868 860
f 688 689 860
f 688 860 690
f 690 860 863
f 690 863 682
f 871 692 693
f 684 865 693
f 865 871 693
f 865 872 871
f 865 866 873
f 865 873 872
f 876 875 874
f 874 875 870
f 868 874 870
f 877 874 868
f 695 877 689
f 689 877 868
f 878 696 871
f 871 696 692
f 879 871 872
f 878 871 879
f 872 873 880
f 872 880 879
f 883 882 881
f 885 884 881
f 885 881 882
f 698 699 884
f 885 698 884
f 886 698 885
f 874 701 876
f 701 886 876
f 701 698 886
f 701 874 703
f 703 874 877
f 703 877 695
f 887 704 878
f 878 704 696
f 888 878 879
f 887 878 888
f 879 880 889
f 879 889 888
f 883 881 890
f 883 890 891
f 707 890 706
f 890 884 706
f 890 881 884
f 706 884 699
f 887 709 704
f 709 887 710
f 887 892 710
f 887 888 892
f 888 889 893
f 888 893 892
f 891 890 894
f 891 894 895
f 712 894 707
f 707 894 890
f 892 713 710
f 897 896 715
f 897 715 713
f 893 897 713
f 892 893 713
f 896 897 895
f 896 895 894
f 718 896 894
f 717 718 894
f 717 894 712
f 896 719 715
f 719 896 718
f 900 899 898
f 902 901 898
f 898 901 900
f 904 903 902
f 902 903 901
f 904 905 903
f 906 720 721
f 722 907 721
f 721 907 906
f 907 722 908
f 722 909 908
f 722 723 909
f 910 723 725
f 910 909 723
f 727 898 899
f 910 727 899
f 725 727 910
f 898 727 729
f 898 729 902
f 902 729 730
f 902 730 904
f 730 731 904
f 731 911 904
f 911 905 904
f 731 912 911
f 732 912 731
f 913 734 906
f 906 734 720
f 907 915 914
f 913 907 914
f 906 907 913
f 915 907 908
f 911 912 916
f 911 916 917
f 735 916 732
f 732 916 912
f 918 736 737
f 919 918 737
f 919 737 734
f 920 919 734
f 913 920 734
f 920 913 914
f 917 916 738
f 739 917 738
f 921 917 739
f 738 916 735
f 918 740 736
f 742 740 918
f 919 742 918
f 922 742 919
f 925 924 923
f 744 745 923
f 924 744 923
f 926 744 924
f 739 744 921
f 921 744 926
f 927 746 747
f 928 927 747
f 742 928 747
f 922 928 742
f 925 923 749
f 750 925 749
f 929 925 750
f 749 923 745
f 927 751 746
f 752 751 927
f 928 752 927
f 930 752 928
f 753 929 750
f 753 931 929
f 930 932 752
f 752 932 754
f 756 754 932
f 756 932 933
f 936 935 934
f 935 931 934
f 931 757 934
f 931 753 757
f 933 758 756
f 937 758 933
f 936 934 938
f 936 938 939
f 759 938 757
f 757 938 934
f 937 761 758
f 940 761 937
f 939 938 763
f 764 939 763
f 941 939 764
f 763 938 759
f 943 942 767
f 767 942 766
f 767 761 940
f 767 940 943
f 946 945 944
f 945 941 944
f 941 769 944
f 941 764 769
f 948 947 771
f 771 947 770
f 771 766 942
f 771 942 948
f 946 944 949
f 946 949 950
f 772 949 769
f 769 949 944
f 947 773 770
f 951 773 947
f 954 953 952
f 952 953 950
f 952 950 949
f 775 952 949
f 774 775 949
f 774 949 772
f 951 777 773
f 955 777 951
f 958 957 956
f 956 957 954
f 956 954 952
f 780 956 952
f 779 780 952
f 779 952 775
f 955 959 777
f 777 959 781
f 781 960 782
f 959 960 781
f 956 783 958
f 783 960 958
f 783 782 960
f 783 956 780
f 963 962 961
f 785 786 961
f 786 963 961
f 786 964 963
f 965 786 787
f 965 964 786
f 967 966 789
f 966 787 789
f 966 965 787
f 969 968 967
f 967 968 966
f 969 970 968
f 973 972 971
f 973 971 962
f 962 971 961
f 971 791 961
f 791 792 961
f 961 792 785
f 794 974 967
f 794 967 789
f 967 975 969
f 967 974 975
f 970 969 976
f 976 969 975
f 979 978 977
f 796 797 977
f 797 979 977
f 797 980 979
f 798 971 972
f 980 798 972
f 797 798 980
f 971 798 791
f 800 974 794
f 974 800 802
f 981 974 802
f 975 974 981
f 976 975 982
f 982 975 981
f 977 978 804
f 978 803 804
f 978 983 803
f 977 804 796
f 807 984 808
f 981 802 808
f 984 981 808
f 985 981 984
f 982 981 986
f 986 981 985
f 988 809 987
f 809 983 987
f 809 803 983
f 989 988 987
f 811 984 807
f 985 984 990
f 984 813 990
f 813 991 990
f 813 984 811
f 985 990 986
f 993 992 988
f 992 809 988
f 992 815 809
f 993 988 989
f 816 991 813
f 816 994 991
f 996 817 995
f 817 992 995
f 817 815 992
f 997 996 995
f 1000 999 998
f 999 994 998
f 994 818 998
f 994 816 818
f 1001 819 996
f 996 819 817
f 996 997 1002
f 996 1002 1001
f 1000 998 1003
f 1000 1003 1004
f 820 1003 818
f 818 1003 998
f 1005 822 1001
f 1001 822 819
f 1001 1002 1006
f 1007 1001 1006
f 1005 1001 1007
f 1008 1007 1006
f 1004 1003 823
f 824 1004 823
f 1009 1004 824
f 823 1003 820
f 1010 826 1005
f 1005 826 822
f 1011 1005 1007
f 1010 1005 1011
f 1007 1008 1012
f 1007 1012 1011
f 1014 1013 827
f 1014 827 828
f 824 827 1009
f 1009 827 1013
f 1010 829 826
f 829 1010 830
f 1010 1015 830
f 1010 1011 1015
f 1011 1012 1016
f 1011 1016 1015
f 831 1014 828
f 831 1017 1014
f 1018 832 833
f 1019 1018 833
f 1019 833 830
f 1020 1019 830
f 1015 1020 830
f 1020 1015 1016
f 834 1017 831
f 834 1021 1017
f 1022 836 837
f 1023 1022 837
f 1023 837 832
f 1024 1023 832
f 1018 1024 832
f 1024 1018 1019
f 1027 1026 1025
f 1026 1021 1025
f 1021 838 1025
f 1021 834 838
f 1028 839 1022
f 1022 839 836
f 1029 840 841
f 1022 1029 841
f 1028 1022 841
f 1029 1022 1023
f 1031 1030 843
f 840 1031 843
f 1029 1031 840
f 1032 1030 1031
f 1033 1027 1025
f 838 844 1025
f 844 1034 1025
f 1034 1033 1025
f 1034 844 1035
f 1035 1036 1034
f 1028 845 839
f 845 1028 841
f 1037 848 1030
f 1030 848 843
f 1030 1032 1038
f 1030 1038 1037
f 1040 849 1039
f 1040 844 849
f 1035 844 1040
f 1035 1040 1041
f 1041 1036 1035
f 850 1039 849
f 1042 854 1037
f 1037 854 848
f 1037 1038 1043
f 1037 1043 1042
f 1040 1039 1044
f 1040 1044 1045
f 855 1044 850
f 850 1044 1039
f 1046 857 858
f 859 1047 858
f 858 1047 1046
f 1048 1047 859
f 1048 859 854
f 1049 1048 854
f 1042 1049 854
f 1049 1042 1043
f 1052 1051 1050
f 861 862 1050
f 1051 861 1050
f 1053 861 1051
f 1044 864 1045
f 864 1053 1045
f 864 861 1053
f 864 1044 855
f 1054 866 867
f 857 1046 867
f 1046 1054 867
f 1046 1055 1054
f 1047 1057 1056
f 1055 1047 1056
f 1046 1047 1055
f 1057 1047 1048
f 1052 1050 869
f 870 1052 869
f 1058 1052 870
f 869 1050 862
f 1060 1059 1054
f 1059 866 1054
f 1059 873 866
f 1060 1054 1055
f 1060 1055 1061
f 1055 1062 1061
f 1055 1063 1062
f 1055 1056 1064
f 1063 1055 1064
f 1066 1065 1063
f 1066 1063 1064
f 875 876 1065
f 1066 875 1065
f 1067 875 1066
f 870 875 1058
f 1058 875 1067
f 1059 880 873
f 1068 880 1059
f 1070 1069 882
f 1070 882 883
f 1063 885 1062
f 885 1069 1062
f 885 882 1069
f 885 1063 886
f 886 1063 1065
f 886 1065 876
f 1072 889 1071
f 889 1068 1071
f 889 880 1068
f 1071 1070 1072
f 1070 891 1072
f 1070 883 891
f 1073 893 1072
f 1072 893 889
f 895 1073 891
f 891 1073 1072
f 1073 897 893
f 897 1073 895
f 1076 1075 1074
f 1078 1077 1074
f 1074 1077 1076
f 1078 1079 1077
f 1081 1080 900
f 900 1080 899
f 901 1074 1075
f 1081 901 1075
f 900 901 1081
f 1074 901 903
f 1074 903 1078
f 903 905 1078
f 905 1079 1078
f 905 1082 1079
f 1083 908 909
f 1083 909 1084
f 909 1085 1084
f 909 910 1085
f 910 899 1080
f 910 1080 1085
f 911 1082 905
f 911 1086 1082
f 1088 1087 915
f 915 1087 914
f 915 908 1083
f 1089 915 1083
f 1088 915 1089
f 1089 1083 1084
f 1092 1091 1090
f 1091 1086 1090
f 1086 917 1090
f 1086 911 917
f 1093 919 920
f 1094 1093 920
f 914 1094 920
f 1087 1094 914
f 1092 1090 1095
f 1092 1095 1096
f 921 1095 917
f 917 1095 1090
f 1097 922 1093
f 1093 922 919
f 1093 1094 1098
f 1093 1098 1097
f 1101 1100 1099
f 924 925 1099
f 1100 924 1099
f 1102 924 1100
f 1095 926 1096
f 926 1102 1096
f 926 924 1102
f 926 1095 921
f 1104 1103 1097
f 1103 922 1097
f 1103 928 922
f 1104 1097 1098
f 1107 1106 1105
f 1105 1106 1101
f 1099 1105 1101
f 1108 1105 1099
f 929 1108 925
f 925 1108 1099
f 1110 930 1109
f 930 1103 1109
f 930 928 1103
f 1111 1110 1109
f 1107 1105 1112
f 1107 1112 1113
f 1114 1105 1108
f 1112 1105 1114
f 931 1114 929
f 929 1114 1108
f 1110 932 930
f 933 932 1110
f 1111 933 1110
f 1115 933 1111
f 1113 1112 1116
f 1113 1116 1117
f 936 1116 935
f 1116 1114 935
f 1116 1112 1114
f 935 1114 931
f 1115 937 933
f 1118 937 1115
f 1117 1116 1119
f 1117 1119 1120
f 939 1119 936
f 936 1119 1116
f 1122 940 1121
f 940 1118 1121
f 940 937 1118
f 1124 1123 1122
f 1124 1122 1121
f 1123 1124 1120
f 1119 1123 1120
f 1125 1123 1119
f 941 1125 939
f 939 1125 1119
f 1126 942 943
f 940 1122 943
f 1122 1126 943
f 1122 1127 1126
f 1128 1122 1123
f 1127 1122 1128
f 946 1128 945
f 1128 1125 945
f 1128 1123 1125
f 945 1125 941
f 1129 947 948
f 942 1126 948
f 1126 1129 948
f 1126 1130 1129
f 1131 1126 1127
f 1130 1126 1131
f 1132 1127 1128
f 1131 1127 1132
f 950 1132 946
f 946 1132 1128
f 1133 951 1129
f 1129 951 947
f 1134 1129 1130
f 1133 1129 1134
f 1135 1130 1131
f 1134 1130 1135
f 954 1135 953
f 1135 1132 953
f 1135 1131 1132
f 953 1132 950
f 1136 955 1133
f 1133 955 951
f 1137 1133 1134
f 1136 1133 1137
f 958 1137 957
f 1137 1135 957
f 1137 1134 1135
f 957 1135 954
f 1136 959 955
f 959 1136 960
f 960 1136 1137
f 960 1137 958
f 1140 1139 1138
f 1142 1141 1138
f 1138 1141 1140
f 1144 1143 1142
f 1142 1143 1141
f 1146 1145 1144
f 1144 1145 1143
f 1148 1147 1146
f 1146 1147 1145
f 1148 1149 1147
f 1152 1151 1150
f 1152 1150 1139
f 1139 1150 1138
f 1150 962 1138
f 962 963 1138
f 1138 963 964
f 1138 964 1142
f 1142 964 965
f 1142 965 1144
f 1144 965 966
f 1144 966 1146
f 1146 966 968
f 1146 968 1148
f 968 970 1148
f 970 1149 1148
f 970 1153 1149
f 1156 1155 1154
f 1156 1154 1151
f 1151 1154 1150
f 1154 972 1150
f 972 973 1150
f 1150 973 962
f 976 1153 970
f 976 1157 1153
f 1159 1158 979
f 979 1158 978
f 980 1154 1155
f 1159 980 1155
f 979 980 1159
f 1154 980 972
f 982 1157 976
f 982 1160 1157
f 1158 983 978
f 1161 983 1158
f 986 1160 982
f 986 1162 1160
f 1161 1163 983
f 983 1163 987
f 989 987 1163
f 989 1163 1164
f 1166 1165 990
f 1166 990 991
f 986 990 1162
f 1162 990 1165
f 1167 992 993
f 1168 1167 993
f 989 1168 993
f 1164 1168 989
f 1171 1170 1169
f 1170 1166 1169
f 1166 994 1169
f 1166 991 994
f 1167 995 992
f 1173 1172 997
f 1173 997 995
f 1168 1173 995
f 1167 1168 995
f 1174 1172 1173
f 1177 1176 1175
f 1175 1176 1171
f 1175 1171 1169
f 1000 1175 1169
f 999 1000 1169
f 999 1169 994
f 1178 1002 1172
f 1172 1002 997
f 1172 1174 1179
f 1172 1179 1178
f 1180 1177 1175
f 1175 1000 1180
f 1000 1181 1180
f 1000 1004 1181
f 1178 1006 1002
f 1008 1006 1178
f 1179 1008 1178
f 1182 1008 1179
f 1009 1181 1004
f 1009 1183 1181
f 1185 1012 1184
f 1012 1182 1184
f 1012 1008 1182
f 1186 1185 1184
f 1014 1187 1013
f 1187 1188 1013
f 1188 1009 1013
f 1188 1183 1009
f 1189 1016 1185
f 1185 1016 1012
f 1185 1186 1190
f 1185 1190 1189
f 1192 1191 1187
f 1014 1192 1187
f 1017 1192 1014
f 1187 1191 1188
f 1193 1019 1020
f 1016 1189 1020
f 1189 1193 1020
f 1189 1194 1193
f 1189 1190 1195
f 1196 1189 1195
f 1194 1189 1196
f 1198 1197 1196
f 1198 1196 1195
f 1201 1200 1199
f 1192 1197 1198
f 1197 1192 1021
f 1017 1021 1192
f 1201 1202 1200
f 1203 1023 1024
f 1019 1193 1024
f 1193 1203 1024
f 1193 1204 1203
f 1205 1193 1194
f 1204 1193 1205
f 1206 1194 1196
f 1205 1194 1206
f 1027 1206 1026
f 1206 1197 1026
f 1206 1196 1197
f 1197 1021 1026
f 1208 1199 1207
f 1199 1208 1201
f 1202 1201 1209
f 1209 1201 1208
f 1203 1029 1023
f 1029 1203 1031
f 1031 1203 1204
f 1204 1205 1210
f 1032 1204 1210
f 1211 1032 1210
f 1204 1032 1031
f 1210 1205 1206
f 1210 1206 1212
f 1212 1206 1027
f 1033 1212 1027
f 1213 1212 1033
f 1034 1208 1207
f 1213 1034 1207
f 1033 1034 1213
f 1034 1036 1208
f 1036 1209 1208
f 1036 1214 1209
f 1216 1038 1215
f 1038 1211 1215
f 1038 1032 1211
f 1218 1217 1216
f 1218 1216 1215
f 1220 1219 1217
f 1220 1217 1218
f 1041 1040 1219
f 1220 1041 1219
f 1221 1041 1220
f 1036 1041 1214
f 1214 1041 1221
f 1222 1043 1216
f 1216 1043 1038
f 1223 1216 1217
f 1222 1216 1223
f 1224 1217 1219
f 1223 1217 1224
f 1045 1224 1040
f 1040 1224 1219
f 1226 1225 1049
f 1049 1225 1048
f 1049 1043 1222
f 1227 1049 1222
f 1226 1049 1227
f 1052 1228 1051
f 1228 1222 1051
f 1222 1223 1051
f 1228 1227 1222
f 1051 1223 1053
f 1053 1223 1224
f 1053 1224 1045
f 1229 1056 1057
f 1230 1229 1057
f 1048 1230 1057
f 1225 1230 1048
f 1058 1228 1052
f 1058 1231 1228
f 1232 1059 1060
f 1061 1233 1060
f 1060 1233 1232
f 1056 1229 1064
f 1233 1061 1062
f 1230 1234 1229
f 1234 1064 1229
f 1234 1066 1064
f 1066 1235 1067
f 1234 1235 1066
f 1058 1067 1231
f 1231 1067 1235
f 1236 1068 1232
f 1232 1068 1059
f 1070 1236 1069
f 1236 1233 1069
f 1236 1232 1233
f 1069 1233 1062
f 1236 1071 1068
f 1071 1236 1070
f 1237 1075 1076
f 1237 1076 1238
f 1076 1239 1238
f 1076 1077 1239
f 1077 1079 1239
f 1239 1079 1240
f 1243 1242 1241
f 1080 1081 1241
f 1081 1243 1241
f 1081 1244 1243
f 1081 1075 1237
f 1245 1081 1237
f 1244 1081 1245
f 1245 1237 1238
f 1082 1240 1079
f 1082 1246 1240
f 1241 1242 1085
f 1242 1084 1085
f 1242 1247 1084
f 1241 1085 1080
f 1086 1246 1082
f 1086 1248 1246
f 1249 1087 1088
f 1249 1088 1250
f 1088 1251 1250
f 1088 1089 1251
f 1089 1084 1247
f 1089 1247 1251
f 1254 1253 1252
f 1091 1092 1252
f 1253 1091 1252
f 1255 1091 1253
f 1086 1091 1248
f 1248 1091 1255
f 1257 1256 1249
f 1256 1087 1249
f 1256 1094 1087
f 1257 1249 1250
f 1254 1252 1258
f 1254 1258 1259
f 1096 1258 1092
f 1092 1258 1252
f 1262 1261 1260
f 1256 1262 1260
f 1098 1256 1260
f 1094 1256 1098
f 1264 1263 1100
f 1264 1100 1101
f 1258 1102 1259
f 1102 1263 1259
f 1102 1100 1263
f 1102 1258 1096
f 1260 1261 1104
f 1261 1103 1104
f 1261 1265 1103
f 1260 1104 1098
f 1268 1267 1266
f 1106 1107 1266
f 1267 1106 1266
f 1269 1106 1267
f 1101 1106 1264
f 1264 1106 1269
f 1265 1270 1103
f 1103 1270 1109
f 1272 1271 1111
f 1109 1272 1111
f 1270 1272 1109
f 1271 1272 1268
f 1266 1271 1268
f 1273 1271 1266
f 1113 1273 1107
f 1107 1273 1266
f 1274 1115 1271
f 1271 1115 1111
f 1275 1271 1273
f 1274 1271 1275
f 1117 1275 1113
f 1113 1275 1273
f 1276 1118 1274
f 1274 1118 1115
f 1277 1274 1275
f 1276 1274 1277
f 1120 1277 1117
f 1117 1277 1275
f 1276 1121 1118
f 1121 1276 1124
f 1124 1276 1277
f 1124 1277 1120
f 1280 1279 1278
f 1282 1281 1278
f 1278 1281 1280
f 1284 1283 1282
f 1282 1283 1281
f 1286 1285 1284
f 1284 1285 1283
f 1288 1287 1286
f 1286 1287 1285
f 1288 1289 1287
f 1278 1279 1140
f 1279 1139 1140
f 1279 1290 1139
f 1278 1140 1141
f 1278 1141 1282
f 1282 1141 1143
f 1282 1143 1284
f 1284 1143 1145
f 1284 1145 1286
f 1286 1145 1147
f 1286 1147 1288
f 1292 1291 1149
f 1149 1291 1147
f 1291 1289 1147
f 1289 1288 1147
f 1292 1293 1291
f 1295 1294 1152
f 1152 1294 1151
f 1152 1139 1290
f 1152 1290 1295
f 1153 1296 1292
f 1153 1292 1149
f 1293 1292 1297
f 1297 1292 1296
f 1299 1298 1156
f 1156 1298 1155
f 1156 1151 1294
f 1156 1294 1299
f 1301 1300 1296
f 1153 1301 1296
f 1157 1301 1153
f 1296 1300 1297
f 1302 1158 1159
f 1303 1302 1159
f 1155 1303 1159
f 1298 1303 1155
f 1160 1301 1157
f 1160 1304 1301
f 1305 1161 1302
f 1302 1161 1158
f 1302 1303 1306
f 1307 1302 1306
f 1305 1302 1307
f 1308 1307 1306
f 1311 1310 1309
f 1310 1304 1309
f 1304 1162 1309
f 1304 1160 1162
f 1305 1163 1161
f 1163 1305 1164
f 1305 1312 1164
f 1305 1307 1312
f 1307 1308 1313
f 1307 1313 1312
f 1311 1309 1165
f 1166 1311 1165
f 1314 1311 1166
f 1165 1309 1162
f 1315 1168 1312
f 1312 1168 1164
f 1312 1313 1316
f 1312 1316 1315
f 1318 1317 1170
f 1318 1170 1171
f 1166 1170 1314
f 1314 1170 1317
f 1315 1173 1168
f 1174 1173 1315
f 1316 1174 1315
f 1319 1174 1316
f 1321 1320 1176
f 1321 1176 1177
f 1171 1176 1318
f 1318 1176 1320
f 1323 1179 1322
f 1179 1319 1322
f 1179 1174 1319
f 1324 1323 1322
f 1177 1180 1325
f 1326 1177 1325
f 1321 1177 1326
f 1181 1325 1180
f 1327 1182 1323
f 1323 1182 1179
f 1323 1324 1328
f 1323 1328 1327
f 1329 1326 1325
f 1325 1181 1329
f 1181 1330 1329
f 1181 1183 1330
f 1327 1184 1182
f 1186 1184 1327
f 1328 1186 1327
f 1331 1186 1328
f 1334 1333 1332
f 1335 1332 1333
f 1188 1337 1336
f 1330 1188 1336
f 1183 1188 1330
f 1337 1338 1336
f 1340 1190 1339
f 1190 1331 1339
f 1190 1186 1331
f 1340 1339 1334
f 1332 1340 1334
f 1341 1340 1332
f 1191 1192 1342
f 1335 1343 1332
f 1341 1332 1343
f 1337 1188 1191
f 1342 1337 1191
f 1344 1337 1342
f 1338 1337 1345
f 1345 1337 1344
f 1340 1195 1190
f 1195 1346 1198
f 1346 1195 1347
f 1340 1347 1195
f 1347 1340 1348
f 1341 1348 1340
f 1341 1343 1348
f 1198 1342 1192
f 1342 1198 1346
f 1342 1346 1200
f 1199 1200 1346
f 1344 1342 1349
f 1342 1202 1349
f 1202 1350 1349
f 1202 1342 1200
f 1344 1349 1345
f 1346 1347 1351
f 1351 1347 1352
f 1199 1353 1207
f 1353 1199 1354
f 1346 1354 1199
f 1354 1346 1355
f 1351 1355 1346
f 1354 1350 1353
f 1350 1209 1353
f 1350 1202 1209
f 1356 1211 1210
f 1212 1357 1210
f 1210 1357 1356
f 1352 1358 1351
f 1212 1213 1357
f 1359 1357 1213
f 1351 1358 1355
f 1213 1207 1359
f 1353 1359 1207
f 1359 1353 1360
f 1214 1360 1209
f 1209 1360 1353
f 1356 1215 1211
f 1215 1356 1218
f 1218 1356 1357
f 1218 1357 1220
f 1220 1357 1359
f 1220 1359 1221
f 1221 1359 1360
f 1221 1360 1214
f 1361 1225 1226
f 1227 1362 1226
f 1226 1362 1361
f 1228 1362 1227
f 1363 1230 1361
f 1361 1230 1225
f 1364 1361 1362
f 1363 1361 1364
f 1231 1364 1228
f 1228 1364 1362
f 1363 1234 1230
f 1234 1363 1235
f 1235 1363 1364
f 1235 1364 1231
f 1365 1238 1239
f 1240 1365 1239
f 1367 1366 1243
f 1243 1366 1242
f 1368 1243 1244
f 1368 1367 1243
f 1369 1244 1245
f 1369 1368 1244
f 1245 1238 1365
f 1370 1245 1365
f 1369 1245 1370
f 1365 1240 1370
f 1240 1371 1370
f 1240 1246 1371
f 1366 1247 1242
f 1372 1247 1366
f 1375 1374 1373
f 1374 1371 1373
f 1371 1248 1373
f 1371 1246 1248
f 1376 1250 1251
f 1377 1376 1251
f 1247 1377 1251
f 1372 1377 1247
f 1254 1378 1253
f 1379 1375 1373
f 1253 1379 1373
f 1255 1253 1373
f 1379 1253 1378
f 1255 1373 1248
f 1381 1380 1257
f 1257 1380 1256
f 1257 1250 1376
f 1382 1257 1376
f 1381 1257 1382
f 1382 1376 1377
f 1384 1383 1378
f 1254 1384 1378
f 1259 1384 1254
f 1378 1383 1379
f 1385 1261 1262
f 1386 1385 1262
f 1256 1386 1262
f 1380 1386 1256
f 1388 1387 1263
f 1388 1263 1264
f 1259 1263 1384
f 1384 1263 1387
f 1389 1265 1385
f 1385 1265 1261
f 1385 1386 1390
f 1385 1390 1389
f 1392 1391 1267
f 1392 1267 1268
f 1267 1393 1269
f 1391 1393 1267
f 1264 1269 1388
f 1388 1269 1393
f 1389 1270 1265
f 1390 1394 1389
f 1394 1270 1389
f 1394 1272 1270
f 1268 1272 1392
f 1392 1272 1394
f 1397 1396 1395
f 1399 1398 1395
f 1395 1398 1397
f 1401 1400 1399
f 1399 1400 1398
f 1403 1402 1401
f 1401 1402 1400
f 1403 1404 1402
f 1405 1279 1280
f 1396 1406 1395
f 1406 1280 1395
f 1280 1281 1395
f 1280 1406 1405
f 1395 1281 1283
f 1395 1283 1399
f 1399 1283 1285
f 1399 1285 1401
f 1401 1285 1287
f 1401 1287 1403
f 1408 1407 1289
f 1289 1407 1287
f 1407 1404 1287
f 1404 1403 1287
f 1408 1409 1407
f 1411 1410 1405
f 1410 1279 1405
f 1410 1290 1279
f 1411 1405 1406
f 1291 1408 1289
f 1291 1293 1408
f 1293 1409 1408
f 1293 1412 1409
f 1413 1294 1295
f 1414 1413 1295
f 1290 1414 1295
f 1410 1414 1290
f 1297 1412 1293
f 1297 1415 1412
f 1416 1298 1299
f 1294 1413 1299
f 1413 1416 1299
f 1413 1417 1416
f 1413 1414 1418
f 1413 1418 1417
f 1420 1419 1300
f 1420 1300 1301
f 1297 1300 1415
f 1415 1300 1419
f 1421 1303 1416
f 1416 1303 1298
f 1422 1416 1417
f 1421 1416 1422
f 1417 1418 1423
f 1417 1423 1422
f 1426 1425 1424
f 1425 1420 1424
f 1420 1304 1424
f 1420 1301 1304
f 1421 1306 1303
f 1421 1422 1427
f 1308 1421 1427
f 1428 1308 1427
f 1421 1308 1306
f 1427 1422 1423
f 1426 1424 1310
f 1311 1426 1310
f 1429 1426 1311
f 1310 1424 1304
f 1431 1313 1430
f 1313 1428 1430
f 1313 1308 1428
f 1432 1431 1430
f 1435 1434 1433
f 1434 1429 1433
f 1429 1314 1433
f 1429 1311 1314
f 1436 1316 1431
f 1431 1316 1313
f 1431 1432 1437
f 1431 1437 1436
f 1440 1439 1438
f 1438 1439 1435
f 1438 1435 1433
f 1318 1438 1433
f 1317 1318 1433
f 1317 1433 1314
f 1441 1319 1436
f 1436 1319 1316
f 1436 1437 1442
f 1436 1442 1441
f 1440 1444 1443
f 1440 1321 1444
f 1440 1438 1320
f 1321 1440 1320
f 1438 1318 1320
f 1445 1443 1444
f 1441 1322 1319
f 1324 1322 1441
f 1442 1324 1441
f 1446 1324 1442
f 1326 1447 1444
f 1326 1444 1321
f 1445 1444 1448
f 1448 1444 1447
f 1446 1328 1324
f 1449 1328 1446
f 1329 1447 1326
f 1329 1330 1447
f 1330 1448 1447
f 1330 1450 1448
f 1452 1331 1451
f 1331 1449 1451
f 1331 1328 1449
f 1333 1334 1452
f 1451 1333 1452
f 1453 1333 1451
f 1335 1333 1453
f 1335 1453 1454
f 1455 1450 1330
f 1455 1330 1336
f 1336 1338 1455
f 1455 1338 1456
f 1452 1339 1331
f 1339 1452 1334
f 1454 1343 1335
f 1457 1343 1454
f 1460 1459 1458
f 1459 1456 1458
f 1456 1345 1458
f 1456 1338 1345
f 1462 1461 1348
f 1348 1461 1347
f 1457 1463 1343
f 1464 1343 1463
f 1343 1464 1348
f 1465 1348 1464
f 1348 1465 1462
f 1464 1463 1460
f 1464 1460 1458
f 1350 1464 1458
f 1349 1350 1458
f 1349 1458 1345
f 1461 1352 1347
f 1466 1352 1461
f 1465 1464 1354
f 1355 1465 1354
f 1467 1465 1355
f 1354 1464 1350
f 1466 1468 1352
f 1352 1468 1358
f 1355 1358 1467
f 1467 1358 1468
f 1469 1366 1367
f 1368 1470 1367
f 1367 1470 1469
f 1369 1471 1368
f 1368 1471 1470
f 1370 1472 1369
f 1369 1472 1471
f 1371 1472 1370
f 1473 1372 1469
f 1469 1372 1366
f 1474 1469 1470
f 1473 1469 1474
f 1475 1470 1471
f 1474 1470 1475
f 1375 1475 1374
f 1475 1472 1374
f 1475 1471 1472
f 1374 1472 1371
f 1476 1377 1473
f 1473 1377 1372
f 1477 1473 1474
f 1476 1473 1477
f 1478 1474 1475
f 1477 1474 1478
f 1379 1478 1375
f 1375 1478 1475
f 1479 1380 1381
f 1382 1480 1381
f 1381 1480 1479
f 1377 1476 1382
f 1476 1480 1382
f 1476 1481 1480
f 1482 1476 1477
f 1481 1476 1482
f 1384 1482 1383
f 1482 1478 1383
f 1482 1477 1478
f 1383 1478 1379
f 1484 1483 1479
f 1483 1380 1479
f 1483 1386 1380
f 1486 1485 1484
f 1479 1486 1484
f 1480 1486 1479
f 1487 1480 1481
f 1486 1480 1487
f 1388 1487 1387
f 1487 1482 1387
f 1487 1481 1482
f 1387 1482 1384
f 1489 1390 1488
f 1390 1483 1488
f 1390 1386 1483
f 1489 1488 1485
f 1489 1485 1486
f 1392 1489 1486
f 1391 1392 1486
f 1391 1486 1393
f 1393 1486 1487
f 1393 1487 1388
f 1489 1394 1390
f 1394 1489 1392
f 1492 1491 1490
f 1494 1493 1490
f 1490 1493 1492
f 1496 1495 1494
f 1494 1495 1493
f 1496 1497 1495
f 1499 1498 1397
f 1397 1498 1396
f 1398 1490 1491
f 1499 1398 1491
f 1397 1398 1499
f 1490 1398 1400
f 1490 1400 1494
f 1494 1400 1402
f 1494 1402 1496
f 1501 1500 1404
f 1404 1500 1402
f 1500 1497 1402
f 1497 1496 1402
f 1501 1502 1500
f 1498 1406 1396
f 1503 1406 1498
f 1407 1501 1404
f 1407 1409 1501
f 1409 1502 1501
f 1409 1504 1502
f 1505 1410 1411
f 1506 1505 1411
f 1406 1506 1411
f 1503 1506 1406
f 1412 1504 1409
f 1412 1507 1504
f 1509 1508 1505
f 1508 1410 1505
f 1508 1414 1410
f 1509 1505 1506
f 1512 1511 1510
f 1511 1507 1510
f 1507 1415 1510
f 1507 1412 1415
f 1508 1418 1414
f 1513 1418 1508
f 1512 1510 1419
f 1420 1512 1419
f 1514 1512 1420
f 1419 1510 1415
f 1513 1423 1418
f 1515 1423 1513
f 1517 1516 1425
f 1517 1425 1426
f 1420 1425 1514
f 1514 1425 1516
f 1518 1428 1427
f 1519 1518 1427
f 1423 1519 1427
f 1515 1519 1423
f 1429 1517 1426
f 1429 1520 1517
f 1518 1430 1428
f 1432 1430 1518
f 1519 1432 1518
f 1521 1432 1519
f 1524 1523 1522
f 1434 1435 1522
f 1523 1434 1522
f 1525 1434 1523
f 1429 1434 1520
f 1520 1434 1525
f 1521 1437 1432
f 1526 1437 1521
f 1529 1528 1527
f 1527 1528 1524
f 1527 1524 1522
f 1440 1527 1522
f 1439 1440 1522
f 1439 1522 1435
f 1531 1442 1530
f 1442 1526 1530
f 1442 1437 1526
f 1531 1533 1532
f 1531 1527 1533
f 1531 1530 1529
f 1527 1531 1529
f 1535 1533 1534
f 1534 1533 1443
f 1533 1527 1443
f 1527 1440 1443
f 1445 1534 1443
f 1537 1536 1531
f 1536 1442 1531
f 1536 1446 1442
f 1537 1531 1532
f 1538 1535 1534
f 1534 1445 1538
f 1445 1539 1538
f 1445 1448 1539
f 1541 1449 1540
f 1449 1536 1540
f 1449 1446 1536
f 1543 1542 1541
f 1543 1541 1540
f 1545 1544 1542
f 1545 1542 1543
f 1545 1539 1544
f 1539 1450 1544
f 1539 1448 1450
f 1541 1451 1449
f 1451 1541 1453
f 1453 1541 1542
f 1542 1544 1546
f 1454 1542 1546
f 1547 1454 1546
f 1542 1454 1453
f 1549 1546 1548
f 1548 1546 1455
f 1546 1544 1455
f 1544 1450 1455
f 1456 1548 1455
f 1551 1457 1550
f 1457 1547 1550
f 1457 1454 1547
f 1551 1550 1549
f 1551 1549 1548
f 1460 1551 1548
f 1459 1460 1548
f 1459 1548 1456
f 1552 1461 1462
f 1457 1551 1463
f 1552 1462 1465
f 1463 1551 1460
f 1553 1466 1552
f 1552 1466 1461
f 1467 1553 1465
f 1465 1553 1552
f 1553 1468 1466
f 1468 1553 1467
f 1554 1483 1484
f 1485 1554 1484
f 1554 1488 1483
f 1488 1554 1485
f 1557 1556 1555
f 1491 1492 1555
f 1492 1557 1555
f 1492 1558 1557
f 1559 1492 1493
f 1559 1558 1492
f 1560 1493 1495
f 1560 1559 1493
f 1495 1497 1560
f 1560 1497 1561
f 1555 1556 1499
f 1556 1498 1499
f 1556 1562 1498
f 1555 1499 1491
f 1497 1500 1563
f 1564 1497 1563
f 1561 1497 1564
f 1502 1563 1500
f 1562 1503 1498
f 1565 1503 1562
f 1564 1563 1566
f 1564 1566 1567
f 1504 1566 1502
f 1502 1566 1563
f 1565 1506 1503
f 1568 1506 1565
f 1567 1566 1569
f 1567 1569 1570
f 1507 1569 1504
f 1504 1569 1566
f 1571 1508 1509
f 1572 1571 1509
f 1506 1572 1509
f 1568 1572 1506
f 1570 1569 1511
f 1512 1570 1511
f 1573 1570 1512
f 1511 1569 1507
f 1574 1513 1571
f 1571 1513 1508
f 1571 1572 1575
f 1571 1575 1574
f 1578 1577 1576
f 1577 1573 1576
f 1573 1514 1576
f 1573 1512 1514
f 1579 1515 1574
f 1574 1515 1513
f 1574 1575 1580
f 1574 1580 1579
f 1583 1582 1581
f 1581 1582 1578
f 1581 1578 1576
f 1517 1581 1576
f 1516 1517 1576
f 1516 1576 1514
f 1584 1519 1579
f 1579 1519 1515
f 1579 1580 1585
f 1579 1585 1584
f 1588 1587 1586
f 1586 1587 1583
f 1581 1586 1583
f 1589 1586 1581
f 1520 1589 1517
f 1517 1589 1581
f 1590 1521 1584
f 1584 1521 1519
f 1584 1585 1591
f 1592 1584 1591
f 1590 1584 1592
f 1592 1591 1588
f 1592 1588 1586
f 1524 1592 1586
f 1523 1524 1586
f 1523 1586 1525
f 1525 1586 1589
f 1525 1589 1520
f 1593 1526 1590
f 1590 1526 1521
f 1529 1593 1528
f 1593 1592 1528
f 1593 1590 1592
f 1528 1592 1524
f 1593 1530 1526
f 1530 1593 1529
f 1594 1532 1533
f 1535 1594 1533
f 1595 1536 1537
f 1532 1594 1537
f 1594 1595 1537
f 1594 1596 1595
f 1538 1597 1535
f 1597 1594 1535
f 1597 1596 1594
f 1539 1597 1538
f 1595 1540 1536
f 1540 1595 1543
f 1543 1595 1596
f 1543 1596 1545
f 1545 1596 1597
f 1545 1597 1539
f 1598 1547 1546
f 1549 1598 1546
f 1598 1550 1547
f 1550 1598 1549
f 1601 1600 1599
f 1603 1602 1599
f 1599 1602 1601
f 1605 1604 1603
f 1603 1604 1602
f 1605 1606 1604
f 1608 1607 1557
f 1557 1607 1556
f 1558 1599 1600
f 1608 1558 1600
f 1557 1558 1608
f 1599 1558 1559
f 1599 1559 1603
f 1603 1559 1560
f 1603 1560 1605
f 1560 1561 1605
f 1561 1606 1605
f 1561 1609 1606
f 1611 1562 1610
f 1562 1607 1610
f 1562 1556 1607
f 1612 1611 1610
f 1564 1609 1561
f 1564 1613 1609
f 1614 1565 1611
f 1611 1565 1562
f 1611 1612 1615
f 1611 1615 1614
f 1618 1617 1616
f 1617 1613 1616
f 1613 1567 1616
f 1613 1564 1567
f 1619 1568 1614
f 1614 1568 1565
f 1614 1615 1620
f 1614 1620 1619
f 1618 1616 1621
f 1618 1621 1622
f 1570 1621 1567
f 1567 1621 1616
f 1623 1572 1619
f 1619 1572 1568
f 1619 1620 1624
f 1619 1624 1623
f 1627 1626 1625
f 1625 1626 1622
f 1621 1625 1622
f 1628 1625 1621
f 1573 1628 1570
f 1570 1628 1621
f 1630 1629 1623
f 1629 1572 1623
f 1629 1575 1572
f 1630 1623 1624
f 1627 1625 1631
f 1627 1631 1632
f 1578 1631 1577
f 1631 1628 1577
f 1631 1625 1628
f 1577 1628 1573
f 1634 1580 1633
f 1580 1629 1633
f 1580 1575 1629
f 1636 1635 1634
f 1636 1634 1633
f 1635 1636 1632
f 1635 1632 1631
f 1583 1635 1631
f 1582 1583 1631
f 1582 1631 1578
f 1637 1585 1634
f 1634 1585 1580
f 1588 1637 1587
f 1637 1635 1587
f 1637 1634 1635
f 1587 1635 1583
f 1637 1591 1585
f 1591 1637 1588
f 1639 1638 1601
f 1601 1638 1600
f 1640 1601 1602
f 1640 1639 1601
f 1641 1602 1604
f 1641 1640 1602
f 1604 1606 1641
f 1641 1606 1642
f 1643 1607 1608
f 1644 1643 1608
f 1600 1644 1608
f 1638 1644 1600
f 1647 1646 1645
f 1646 1642 1645
f 1642 1609 1645
f 1642 1606 1609
f 1643 1610 1607
f 1649 1648 1612
f 1649 1612 1610
f 1644 1649 1610
f 1643 1644 1610
f 1650 1648 1649
f 1647 1645 1651
f 1647 1651 1652
f 1613 1651 1609
f 1609 1651 1645
f 1653 1615 1648
f 1648 1615 1612
f 1648 1650 1654
f 1648 1654 1653
f 1652 1651 1617
f 1618 1652 1617
f 1655 1652 1618
f 1617 1651 1613
f 1656 1620 1653
f 1653 1620 1615
f 1653 1654 1657
f 1658 1653 1657
f 1656 1653 1658
f 1657 1655 1658
f 1655 1622 1658
f 1655 1618 1622
f 1659 1624 1656
f 1656 1624 1620
f 1627 1659 1626
f 1659 1658 1626
f 1659 1656 1658
f 1626 1658 1622
f 1660 1629 1630
f 1624 1659 1630
f 1659 1660 1630
f 1659 1661 1660
f 1632 1661 1627
f 1627 1661 1659
f 1660 1633 1629
f 1633 1660 1636
f 1636 1660 1661
f 1636 1661 1632
f 1662 1638 1639
f 1640 1663 1639
f 1639 1663 1662
f 1641 1664 1640
f 1640 1664 1663
f 1642 1664 1641
f 1665 1644 1662
f 1662 1644 1638
f 1666 1662 1663
f 1665 1662 1666
f 1647 1666 1646
f 1666 1664 1646
f 1666 1663 1664
f 1646 1664 1642
f 1665 1649 1644
f 1649 1665 1650
f 1665 1667 1650
f 1665 1666 1667
f 1652 1667 1647
f 1647 1667 1666
f 1668 1654 1667
f 1667 1654 1650
f 1655 1668 1652
f 1652 1668 1667
f 1668 1657 1654
f 1657 1668 1655
