v 6.8 -4.0 -15.0
v 7.0 -4.0 -15.2
v 7.0 -4.2 -15.0
v 7.0 -4.3 -14.0
v 6.7 -4.0 -14.0
v 7.0 -4.0 -13.0
v 7.0 -4.0 -13.0
v 7.0 -4.0 -13.0
v 6.7 -3.0 -15.0
v 7.0 -3.0 -15.4
v 6.6 -3.0 -14.0
v 7.0 -3.0 -13.5
v 7.0 -4.0 -13.0
v 6.9 -2.0 -15.0
v 7.0 -2.0 -15.3
v 6.8 -2.0 -14.0
v 7.0 -2.0 -13.3
v 7.0 -1.9 -15.0
v 7.0 -1.8 -14.0
v 8.0 -4.0 -15.3
v 8.0 -4.4 -15.0
v 8.0 -4.6 -14.0
v 8.0 -4.4 -13.0
v 8.0 -4.0 -12.1
v 8.0 -3.0 -15.4
v 8.0 -3.4 -13.0
v 8.0 -3.0 -13.3
v 8.0 -2.5 -15.0
v 7.2 -2.0 -15.0
v 7.3 -2.0 -14.0
v 8.0 -2.4 -14.0
v 8.8 -5.0 -14.0
v 9.0 -5.0 -14.2
v 9.0 -5.2 -14.0
v 9.0 -5.3 -13.0
v 8.6 -5.0 -13.0
v 9.0 -5.0 -12.6
v 9.0 -4.0 -15.3
v 9.0 -4.4 -15.0
v 9.0 -4.3 -12.0
v 8.1 -4.0 -12.0
v 9.0 -4.0 -11.8
v 9.0 -3.0 -15.2
v 9.0 -3.3 -13.0
v 9.0 -3.0 -13.3
v 9.0 -3.8 -12.0
v 9.0 -2.8 -15.0
v 9.0 -2.5 -14.0
v 8.8 2.0 -14.0
v 9.0 2.0 -14.2
v 9.0 1.8 -14.0
v 9.0 1.1 -13.0
v 8.7 2.0 -13.0
v 9.0 2.0 -12.7
v 8.8 3.0 -14.0
v 9.0 3.0 -14.2
v 8.8 3.0 -13.0
v 9.0 3.0 -12.8
v 9.0 3.2 -14.0
v 9.0 3.2 -13.0
v 9.9 -6.0 -13.0
v 10.0 -6.0 -13.1
v 10.0 -6.1 -13.0
v 10.0 -6.0 -12.9
v 10.0 -5.0 -14.0
v 10.0 -5.0 -14.0
v 10.0 -5.4 -12.0
v 9.6 -5.0 -12.0
v 10.0 -5.0 -11.7
v 9.4 -4.0 -15.0
v 10.0 -4.0 -14.6
v 10.0 -5.0 -14.0
v 10.0 -4.0 -11.8
v 9.3 -3.0 -15.0
v 10.0 -3.0 -14.2
v 10.0 -3.3 -13.0
v 10.0 -3.0 -13.8
v 10.0 -3.8 -12.0
v 10.0 -2.9 -14.0
v 9.1 1.0 -13.0
v 10.0 1.0 -13.3
v 10.0 0.8 -13.0
v 10.0 1.0 -12.8
v 10.0 2.0 -14.4
v 10.0 1.5 -14.0
v 10.0 2.0 -12.5
v 10.0 3.0 -14.3
v 10.0 3.0 -12.7
v 10.0 3.3 -14.0
v 10.0 3.3 -13.0
v 11.0 -6.0 -13.5
v 11.0 -6.4 -13.0
v 11.0 -6.3 -12.0
v 10.6 -6.0 -12.0
v 11.0 -6.0 -11.7
v 10.0 -5.0 -14.0
v 11.0 -5.0 -14.2
v 11.0 -5.3 -14.0
v 11.0 -5.0 -11.6
v 11.0 -4.0 -14.2
v 10.3 -4.0 -12.0
v 11.0 -4.5 -12.0
v 11.0 -4.0 -12.6
v 11.0 -3.8 -14.0
v 10.1 -3.0 -14.0
v 11.0 -3.7 -13.0
v 10.9 0.0 -13.0
v 11.0 0.0 -13.1
v 11.0 -0.1 -13.0
v 11.0 0.0 -12.9
v 11.0 1.0 -13.5
v 11.0 1.0 -12.6
v 11.0 2.0 -14.4
v 11.0 1.5 -14.0
v 11.0 2.0 -12.5
v 11.0 3.0 -14.3
v 11.0 3.0 -12.7
v 11.0 3.3 -14.0
v 11.0 3.3 -13.0
v 12.0 -6.0 -13.8
v 12.0 -6.5 -13.0
v 12.0 -6.7 -12.0
v 12.0 -6.0 -11.6
v 11.3 -5.0 -14.0
v 12.0 -5.0 -13.5
v 12.0 -5.1 -11.0
v 11.9 -5.0 -11.0
v 12.0 -5.0 -10.9
v 11.2 -4.0 -14.0
v 12.0 -4.5 -13.0
v 11.4 -4.0 -13.0
v 12.0 -4.5 -12.0
v 12.0 -4.9 -11.0
v 11.7 -1.0 -13.0
v 12.0 -1.0 -13.2
v 12.0 -1.2 -13.0
v 12.0 -1.2 -12.0
v 11.8 -1.0 -12.0
v 12.0 -1.0 -11.8
v 12.0 0.0 -13.5
v 11.6 0.0 -12.0
v 12.0 0.0 -11.6
v 12.0 1.0 -13.6
v 11.6 1.0 -12.0
v 12.0 1.0 -11.7
v 12.0 2.0 -14.4
v 12.0 1.5 -14.0
v 12.0 1.5 -12.0
v 12.0 2.0 -12.3
v 12.0 3.0 -14.3
v 12.0 3.0 -12.6
v 12.0 3.3 -14.0
v 12.0 3.4 -13.0
v 13.0 -6.0 -13.1
v 13.0 -6.1 -13.0
v 12.5 -6.0 -12.0
v 13.0 -6.0 -12.9
v 13.0 -5.8 -13.0
v 12.7 -5.0 -13.0
v 13.0 -5.0 -12.6
v 13.0 -5.5 -12.0
v 13.0 -5.4 -11.0
v 13.0 -5.0 -10.0
v 12.9 -5.0 -10.0
v 13.0 -5.0 -9.9
v 13.0 -4.1 -13.0
v 13.0 -4.0 -13.0
v 13.0 -4.0 -13.0
v 12.7 -4.0 -12.0
v 13.0 -4.0 -11.6
v 13.0 -4.5 -11.0
v 13.0 -4.9 -10.0
v 13.0 -4.0 -13.0
v 13.0 -3.6 -12.0
v 12.9 -2.0 -12.0
v 13.0 -2.0 -12.1
v 13.0 -2.1 -12.0
v 13.0 -2.0 -11.9
v 13.0 -1.0 -13.4
v 13.0 -1.4 -13.0
v 13.0 -1.0 -11.5
v 13.0 0.0 -13.5
v 13.0 0.0 -11.5
v 13.0 1.0 -13.6
v 13.0 1.0 -11.5
v 13.0 2.0 -14.4
v 13.0 1.5 -14.0
v 12.5 2.0 -12.0
v 13.0 2.0 -11.7
v 13.0 3.0 -14.3
v 13.0 2.4 -12.0
v 13.0 3.0 -12.6
v 13.0 3.3 -14.0
v 13.0 3.4 -13.0
v 13.2 -6.0 -13.0
v 13.7 -5.0 -12.0
v 14.0 -5.0 -11.7
v 14.0 -5.4 -11.0
v 14.0 -5.4 -10.0
v 14.0 -5.0 -9.0
v 13.9 -5.0 -9.0
v 14.0 -5.0 -9.0
v 13.4 -4.0 -13.0
v 14.0 -4.0 -12.9
v 14.0 -4.7 -12.0
v 13.4 -4.0 -11.0
v 13.6 -4.0 -10.0
v 14.0 -4.0 -9.6
v 14.0 -4.9 -9.0
v 14.0 -3.0 -12.2
v 13.8 -3.0 -12.0
v 14.0 -3.0 -11.7
v 14.0 -3.4 -11.0
v 14.0 -3.6 -10.0
v 14.0 -2.0 -12.4
v 14.0 -2.0 -11.7
v 14.0 -1.0 -13.4
v 14.0 -1.5 -13.0
v 14.0 -1.0 -11.5
v 14.0 0.0 -13.5
v 14.0 0.0 -11.5
v 14.0 1.0 -13.6
v 14.0 1.0 -11.5
v 14.0 2.0 -14.4
v 14.0 1.5 -14.0
v 14.0 2.0 -11.6
v 14.0 3.0 -14.3
v 14.0 2.5 -12.0
v 14.0 3.0 -12.5
v 14.0 3.3 -14.0
v 14.0 3.4 -13.0
v 15.0 -5.0 -11.8
v 15.0 -5.4 -11.0
v 15.0 -5.6 -10.0
v 15.0 -5.3 -9.0
v 15.0 -5.0 -8.7
v 14.6 -4.0 -12.0
v 15.0 -4.0 -11.7
v 14.6 -4.0 -9.0
v 15.0 -4.0 -8.7
v 14.4 -3.0 -12.0
v 14.5 -3.0 -11.0
v 15.0 -3.0 -11.7
v 14.7 -3.0 -10.0
v 15.0 -3.0 -9.7
v 15.0 -3.6 -9.0
v 15.0 -2.0 -12.5
v 15.0 -2.7 -12.0
v 14.5 -2.6 -11.7
v 15.0 -2.5 -11.0
v 15.0 -2.0 -11.5
v 15.0 -2.7 -10.0
v 15.0 -1.0 -13.4
v 15.0 -1.6 -13.0
v 15.0 -1.0 -11.5
v 15.0 0.0 -13.5
v 15.0 0.0 -11.5
v 15.0 1.0 -13.6
v 15.0 1.0 -11.5
v 15.0 2.0 -14.4
v 15.0 1.5 -14.0
v 15.0 2.0 -11.6
v 15.0 3.0 -14.2
v 15.0 2.6 -12.0
v 15.0 3.0 -12.4
v 15.0 3.2 -14.0
v 15.0 3.4 -13.0
v 15.9 -6.0 -10.0
v 16.0 -6.0 -10.3
v 16.0 -6.1 -10.0
v 16.0 -6.0 -9.9
v 15.8 -5.0 -11.0
v 16.0 -5.0 -10.8
v 16.0 -5.5 -9.0
v 16.0 -5.0 -8.5
v 16.0 -4.0 -11.5
v 16.0 -4.8 -11.0
v 16.0 -4.0 -8.4
v 15.3 -3.0 -12.0
v 16.0 -3.0 -12.4
v 16.0 -3.4 -12.0
v 16.0 -3.2 -9.0
v 16.0 -3.0 -9.2
v 15.5 -2.0 -13.0
v 16.0 -2.0 -13.4
v 16.0 -2.4 -13.0
v 15.5 -2.0 -11.0
v 16.0 -2.0 -10.6
v 16.0 -2.5 -10.0
v 16.0 -1.0 -13.6
v 16.0 -1.4 -11.0
v 16.0 -1.0 -11.3
v 16.0 0.0 -13.6
v 16.0 0.0 -11.4
v 16.0 1.0 -13.6
v 16.0 1.0 -11.4
v 16.0 2.0 -14.1
v 16.0 1.8 -14.0
v 16.0 2.0 -11.5
v 16.0 2.2 -14.0
v 15.4 3.0 -14.0
v 16.0 3.0 -13.5
v 15.6 3.0 -12.0
v 16.0 3.0 -11.8
v 16.0 3.4 -13.0
v 16.0 3.2 -12.0
v 16.1 -6.0 -10.0
v 16.7 -6.0 -9.0
v 17.0 -6.0 -9.3
v 17.0 -6.2 -9.0
v 17.0 -6.0 -8.7
v 17.0 -5.0 -10.5
v 17.0 -5.6 -10.0
v 17.0 -5.4 -8.0
v 16.6 -5.0 -8.0
v 17.0 -5.0 -7.7
v 17.0 -4.0 -11.6
v 17.0 -4.5 -11.0
v 16.4 -4.0 -8.0
v 17.0 -4.0 -7.6
v 17.0 -3.0 -12.5
v 17.0 -3.6 -12.0
v 16.2 -3.0 -9.0
v 16.3 -3.0 -8.0
v 17.0 -3.0 -7.7
v 16.9 -2.0 -14.0
v 17.0 -2.0 -14.1
v 17.0 -2.1 -14.0
v 17.0 -2.6 -13.0
v 17.0 -2.3 -10.0
v 17.0 -2.0 -10.3
v 17.0 -2.5 -9.0
v 17.0 -2.6 -8.0
v 16.5 -1.0 -14.0
v 17.0 -1.0 -14.4
v 16.4 -1.0 -11.0
v 17.0 -1.0 -10.6
v 16.7 0.0 -14.0
v 17.0 0.0 -14.2
v 16.5 0.0 -11.0
v 17.0 0.0 -10.6
v 17.0 0.4 -14.0
v 17.0 1.0 -13.6
v 16.7 1.0 -11.0
v 17.0 1.0 -10.7
v 16.2 2.0 -14.0
v 17.0 2.0 -13.6
v 17.0 1.3 -11.0
v 17.0 2.0 -11.4
v 17.0 3.0 -13.4
v 17.0 3.0 -11.7
v 17.0 3.3 -13.0
v 17.0 3.3 -12.0
v 17.9 -7.0 -9.0
v 18.0 -7.0 -9.0
v 18.0 -7.0 -9.0
v 18.0 -7.0 -8.9
v 18.0 -6.0 -9.6
v 18.0 -6.4 -8.0
v 17.6 -6.0 -8.0
v 18.0 -6.0 -7.7
v 18.0 -5.0 -10.5
v 18.0 -5.5 -10.0
v 18.0 -5.0 -7.5
v 17.9 -4.0 -12.0
v 18.0 -4.0 -12.1
v 18.0 -4.1 -12.0
v 18.0 -4.5 -11.0
v 18.0 -4.0 -7.4
v 18.0 -3.0 -12.6
v 18.0 -3.0 -7.4
v 17.1 -2.0 -14.0
v 18.0 -2.0 -13.6
v 18.0 -2.5 -13.0
v 17.4 -2.0 -10.0
v 18.0 -2.0 -9.3
v 18.0 -2.2 -9.0
v 18.0 -2.0 -8.0
v 18.0 -1.0 -14.4
v 18.0 -1.5 -14.0
v 18.0 -1.4 -10.0
v 18.0 -1.0 -10.3
v 18.0 0.0 -14.3
v 18.0 0.0 -10.5
v 18.0 0.4 -14.0
v 18.0 1.0 -13.6
v 18.0 1.0 -10.6
v 18.0 2.0 -13.5
v 18.0 1.6 -11.0
v 18.0 2.0 -11.3
v 18.0 3.0 -13.2
v 18.0 3.0 -11.7
v 18.0 3.2 -13.0
v 18.0 3.3 -12.0
v 19.0 -7.0 -9.2
v 19.0 -7.2 -9.0
v 19.0 -7.3 -8.0
v 18.6 -7.0 -8.0
v 19.0 -7.0 -7.8
v 19.0 -6.0 -9.6
v 19.0 -6.0 -7.5
v 19.0 -5.0 -10.4
v 19.0 -5.5 -10.0
v 19.0 -5.0 -7.3
v 18.1 -4.0 -12.0
v 18.9 -4.0 -11.0
v 19.0 -4.0 -10.9
v 19.0 -4.5 -7.0
v 18.6 -4.0 -7.0
v 19.0 -4.0 -6.7
v 19.0 -3.0 -12.5
v 19.0 -3.5 -12.0
v 19.0 -3.9 -11.0
v 18.5 -3.0 -7.0
v 19.0 -3.0 -6.6
v 19.0 -2.0 -13.4
v 19.0 -2.4 -13.0
v 18.3 -2.0 -9.0
v 18.1 -2.0 -8.0
v 18.9 -2.0 -7.0
v 19.0 -2.0 -6.9
v 19.0 -1.0 -14.1
v 19.0 -1.1 -14.0
v 18.5 -1.0 -10.0
v 19.0 -1.0 -9.5
v 19.0 -1.4 -9.0
v 19.0 -1.4 -8.0
v 19.0 -1.9 -7.0
v 19.0 -0.8 -14.0
v 18.5 0.0 -14.0
v 19.0 0.0 -13.7
v 19.0 -0.5 -10.0
v 19.0 0.0 -10.3
v 19.0 1.0 -13.5
v 19.0 1.0 -10.5
v 19.0 2.0 -13.4
v 18.5 2.0 -11.0
v 19.0 2.0 -10.7
v 19.0 2.5 -13.0
v 18.4 3.0 -13.0
v 19.0 3.0 -12.2
v 19.0 2.3 -11.0
v 19.0 3.0 -11.9
v 19.0 3.1 -12.0
v 19.4 -7.0 -9.0
v 20.0 -7.0 -8.6
v 20.0 -7.9 -8.0
v 20.0 -7.0 -7.6
v 20.0 -6.0 -9.5
v 20.0 -6.6 -9.0
v 20.0 -6.0 -7.3
v 20.0 -5.0 -10.6
v 20.0 -5.5 -10.0
v 20.0 -5.5 -7.0
v 19.5 -5.0 -7.0
v 20.0 -5.0 -6.7
v 19.1 -4.0 -11.0
v 20.0 -4.0 -11.4
v 20.0 -4.5 -11.0
v 20.0 -4.0 -6.4
v 20.0 -3.0 -12.3
v 20.0 -3.3 -12.0
v 20.0 -3.0 -6.4
v 19.5 -2.0 -13.0
v 20.0 -2.0 -12.7
v 20.0 -2.0 -6.6
v 19.1 -1.0 -14.0
v 20.0 -1.0 -13.5
v 20.0 -1.6 -13.0
v 20.0 -1.3 -9.0
v 20.0 -1.0 -9.3
v 20.0 -1.0 -8.0
v 20.0 -1.6 -7.0
v 20.0 0.0 -13.5
v 19.5 0.0 -10.0
v 20.0 0.0 -9.7
v 20.0 1.0 -13.5
v 20.0 0.4 -10.0
v 20.0 1.0 -10.4
v 20.0 2.0 -13.4
v 20.0 2.0 -10.6
v 20.0 2.4 -13.0
v 19.2 3.0 -12.0
v 20.0 2.6 -12.0
v 20.0 2.4 -11.0
v 20.2 -8.0 -8.0
v 21.0 -8.0 -8.2
v 21.0 -8.2 -8.0
v 21.0 -8.0 -7.8
v 21.0 -7.0 -8.6
v 21.0 -7.0 -7.4
v 21.0 -6.0 -9.7
v 21.0 -6.7 -9.0
v 21.0 -6.5 -7.0
v 20.5 -6.0 -7.0
v 21.0 -6.0 -6.7
v 20.6 -5.0 -11.0
v 21.0 -5.0 -11.3
v 21.0 -5.3 -11.0
v 21.0 -5.7 -10.0
v 21.0 -5.0 -6.3
v 21.0 -4.0 -11.5
v 21.0 -4.5 -6.0
v 20.6 -4.0 -6.0
v 21.0 -4.0 -5.7
v 20.5 -3.0 -12.0
v 21.0 -3.0 -11.7
v 20.5 -3.0 -6.0
v 21.0 -3.0 -5.6
v 21.0 -2.0 -12.5
v 21.0 -2.6 -12.0
v 20.8 -2.0 -6.0
v 21.0 -2.0 -5.8
v 21.0 -1.0 -13.3
v 21.0 -1.4 -13.0
v 21.0 -1.4 -9.0
v 21.0 -1.0 -9.3
v 21.0 -1.9 -8.0
v 21.0 -1.7 -7.0
v 21.0 -1.8 -6.0
v 21.0 0.0 -13.5
v 21.0 0.0 -9.6
v 21.0 1.0 -13.5
v 21.0 0.6 -10.0
v 21.0 1.0 -10.3
v 21.0 2.0 -13.2
v 21.0 2.0 -10.6
v 21.0 2.2 -13.0
v 21.0 2.5 -12.0
v 21.0 2.4 -11.0
v 22.0 -11.0 -9.0
v 22.0 -11.0 -9.0
v 22.0 -11.0 -9.0
v 22.0 -11.0 -9.0
v 22.0 -11.0 -9.0
v 21.9 -9.0 -8.0
v 22.0 -9.0 -8.1
v 22.0 -9.1 -8.0
v 22.0 -9.0 -7.9
v 22.0 -8.0 -8.7
v 22.0 -8.0 -7.4
v 21.4 -7.0 -9.0
v 22.0 -7.0 -9.6
v 22.0 -7.6 -9.0
v 22.0 -7.5 -7.0
v 21.5 -7.0 -7.0
v 22.0 -7.0 -6.7
v 21.7 -6.0 -11.0
v 22.0 -6.0 -11.2
v 22.0 -6.2 -11.0
v 22.0 -6.6 -10.0
v 21.3 -6.0 -10.0
v 22.0 -6.0 -6.4
v 22.0 -5.0 -11.5
v 22.0 -5.4 -6.0
v 21.5 -5.0 -6.0
v 22.0 -5.0 -5.7
v 22.0 -4.0 -11.5
v 22.0 -4.0 -5.5
v 22.0 -3.0 -11.6
v 22.0 -3.0 -5.6
v 22.0 -2.0 -12.3
v 22.0 -2.4 -12.0
v 21.6 -2.0 -7.0
v 22.0 -2.3 -7.0
v 22.0 -2.0 -7.5
v 22.0 -2.0 -6.2
v 22.0 -2.0 -6.0
v 21.5 -1.0 -13.0
v 22.0 -1.0 -12.7
v 22.0 -1.4 -9.0
v 22.0 -1.0 -9.4
v 22.0 -1.8 -8.0
v 22.0 -2.0 -6.0
v 22.0 0.0 -13.3
v 22.0 -0.5 -13.0
v 22.0 0.0 -9.5
v 22.0 1.0 -13.4
v 21.7 1.0 -10.0
v 22.0 1.0 -9.9
v 22.0 1.6 -13.0
v 21.4 2.0 -13.0
v 22.0 2.0 -12.6
v 22.0 1.2 -10.0
v 22.0 2.0 -10.7
v 22.0 2.4 -12.0
v 22.0 2.3 -11.0
v 22.9 -12.0 -9.0
v 23.0 -12.0 -9.1
v 23.0 -12.1 -9.0
v 23.0 -12.0 -8.9
v 23.0 -11.0 -9.6
v 23.0 -11.1 -8.0
v 22.9 -11.0 -8.0
v 23.0 -11.0 -7.9
v 22.7 -10.0 -10.0
v 23.0 -10.0 -10.2
v 23.0 -10.4 -10.0
v 22.4 -10.0 -9.0
v 22.6 -10.0 -8.0
v 23.0 -10.0 -7.6
v 22.7 -9.0 -10.0
v 23.0 -9.0 -10.3
v 22.4 -9.0 -9.0
v 23.0 -9.0 -7.4
v 22.6 -8.0 -10.0
v 23.0 -8.0 -10.4
v 22.2 -8.0 -9.0
v 23.0 -8.4 -7.0
v 22.5 -8.0 -7.0
v 23.0 -8.0 -6.7
v 22.4 -7.0 -10.0
v 23.0 -7.0 -10.6
v 23.0 -7.0 -6.5
v 23.0 -6.0 -11.4
v 23.0 -6.6 -11.0
v 23.0 -6.0 -6.4
v 23.0 -5.0 -11.5
v 23.0 -5.5 -6.0
v 23.0 -5.0 -5.6
v 23.0 -4.0 -11.5
v 23.0 -4.0 -5.5
v 23.0 -3.0 -11.5
v 22.9 -3.0 -7.0
v 23.0 -3.1 -7.0
v 23.0 -3.0 -7.1
v 23.0 -3.0 -6.8
v 23.0 -3.0 -5.7
v 22.5 -2.0 -12.0
v 23.0 -2.0 -11.7
v 22.5 -2.0 -8.0
v 23.0 -2.2 -8.0
v 23.0 -2.0 -8.3
v 22.1 -2.0 -6.0
v 23.0 -2.7 -6.0
v 23.0 -1.0 -12.3
v 23.0 -1.5 -12.0
v 23.0 -1.4 -9.0
v 23.0 -1.0 -9.4
v 22.5 0.0 -13.0
v 23.0 0.0 -12.6
v 23.0 0.0 -9.6
v 23.0 1.0 -13.1
v 23.0 0.9 -13.0
v 22.3 1.0 -10.0
v 23.0 0.5 -10.0
v 23.0 1.0 -10.5
v 23.0 1.1 -13.0
v 23.0 2.0 -12.1
v 22.4 2.0 -11.0
v 23.0 1.4 -11.0
v 23.0 2.0 -11.9
v 23.0 2.1 -12.0
v 24.0 -12.0 -9.3
v 24.0 -12.6 -9.0
v 24.0 -12.0 -8.7
v 24.0 -11.0 -9.5
v 23.2 -11.0 -8.0
v 24.0 -11.0 -8.4
v 24.0 -10.0 -10.4
v 24.0 -10.4 -10.0
v 24.0 -10.6 -8.0
v 24.0 -10.0 -7.6
v 24.0 -9.0 -10.6
v 24.0 -9.0 -7.4
v 24.0 -8.0 -10.7
v 24.0 -8.4 -7.0
v 24.0 -8.0 -6.7
v 23.5 -7.0 -11.0
v 24.0 -7.0 -11.3
v 24.0 -7.5 -11.0
v 24.0 -7.0 -6.5
v 24.0 -6.0 -11.6
v 24.0 -6.0 -6.4
v 24.0 -5.0 -11.6
v 24.0 -5.5 -6.0
v 24.0 -5.0 -5.6
v 24.0 -4.0 -11.5
v 24.0 -4.0 -5.5
v 24.0 -3.0 -11.5
v 24.0 -3.2 -7.0
v 24.0 -3.0 -7.2
v 24.0 -3.0 -6.5
v 24.0 -3.0 -5.8
v 24.0 -2.0 -11.5
v 23.4 -2.0 -8.0
v 24.0 -2.0 -7.7
v 24.0 -2.8 -6.0
v 23.4 -1.0 -12.0
v 24.0 -1.0 -11.5
v 24.0 -1.4 -9.0
v 24.0 -1.0 -9.5
v 24.0 -1.8 -8.0
v 23.9 0.0 -12.0
v 24.0 -0.4 -11.0
v 23.8 0.0 -11.0
v 24.0 0.0 -10.1
v 24.0 0.0 -10.0
v 23.1 1.0 -13.0
v 23.5 1.0 -12.0
v 23.3 1.0 -11.0
v 24.0 0.0 -10.0
v 23.1 2.0 -12.0
v 25.0 -12.0 -9.3
v 25.0 -12.4 -9.0
v 25.0 -12.0 -8.8
v 25.0 -11.0 -9.5
v 25.0 -11.0 -8.5
v 24.9 -10.0 -11.0
v 25.0 -10.0 -11.1
v 25.0 -10.1 -11.0
v 25.0 -10.2 -10.0
v 25.0 -10.4 -8.0
v 25.0 -10.0 -7.7
v 24.5 -9.0 -11.0
v 25.0 -9.0 -11.4
v 25.0 -9.0 -7.5
v 24.4 -8.0 -11.0
v 25.0 -8.0 -11.4
v 24.5 -8.0 -7.0
v 25.0 -8.0 -7.3
v 25.0 -7.0 -11.6
v 25.0 -7.5 -7.0
v 25.0 -7.0 -6.7
v 24.7 -6.0 -12.0
v 25.0 -6.0 -12.2
v 25.0 -6.3 -12.0
v 25.0 -6.0 -6.4
v 24.7 -5.0 -12.0
v 25.0 -5.0 -12.2
v 25.0 -5.3 -6.0
v 25.0 -5.0 -5.8
v 25.0 -4.7 -12.0
v 25.0 -4.0 -11.6
v 25.0 -4.0 -5.7
v 25.0 -3.0 -11.5
v 25.0 -3.3 -7.0
v 25.0 -3.0 -7.4
v 24.9 -3.0 -6.0
v 25.0 -3.1 -6.0
v 25.0 -2.0 -11.1
v 24.9 -2.0 -10.0
v 25.0 -2.1 -10.0
v 25.0 -2.0 -10.4
v 25.0 -2.0 -9.9
v 25.0 -2.0 -7.8
v 25.0 -1.9 -11.0
v 24.4 -1.0 -11.0
v 24.4 -1.0 -10.0
v 25.0 -1.6 -9.0
v 25.0 -1.8 -8.0
v 24.0 0.0 -10.0
v 25.8 -13.0 -10.0
v 26.0 -13.0 -10.1
v 26.0 -13.1 -10.0
v 26.0 -13.0 -9.0
v 26.0 -13.0 -9.0
v 26.0 -13.0 -9.0
v 25.7 -12.0 -10.0
v 26.0 -12.0 -10.2
v 26.0 -12.0 -8.7
v 25.5 -11.0 -10.0
v 26.0 -11.0 -10.4
v 26.0 -11.0 -8.6
v 26.0 -10.0 -11.2
v 26.0 -10.3 -11.0
v 25.5 -10.0 -8.0
v 26.0 -10.0 -8.3
v 26.0 -9.0 -11.5
v 26.0 -9.5 -8.0
v 26.0 -9.0 -7.7
v 26.0 -8.0 -11.5
v 26.0 -8.0 -7.6
v 26.0 -7.0 -11.5
v 25.5 -7.0 -7.0
v 26.0 -7.0 -7.3
v 26.0 -6.0 -12.2
v 26.0 -6.3 -12.0
v 26.0 -6.4 -7.0
v 26.0 -6.0 -6.7
v 26.0 -5.0 -12.2
v 26.0 -5.0 -8.0
v 26.0 -5.0 -8.0
v 26.0 -5.0 -8.1
v 26.0 -5.0 -7.9
v 25.3 -5.0 -6.0
v 26.0 -5.0 -6.7
v 26.0 -4.7 -12.0
v 26.0 -4.0 -11.4
v 25.7 -4.0 -8.0
v 26.0 -4.0 -8.4
v 26.0 -4.0 -7.1
v 25.4 -4.0 -6.0
v 26.0 -4.0 -6.9
v 26.0 -3.0 -11.2
v 25.5 -3.0 -8.0
v 26.0 -3.0 -8.5
v 26.0 -4.0 -7.0
v 26.0 -2.8 -11.0
v 25.1 -2.0 -11.0
v 26.0 -2.5 -10.0
v 26.0 -2.0 -9.0
v 25.2 -2.0 -8.0
v 26.0 -2.0 -9.0
v 26.0 -2.0 -9.0
v 26.4 -13.0 -10.0
v 26.0 -13.0 -9.0
v 26.3 -12.0 -10.0
v 26.3 -12.0 -9.0
v 27.0 -11.0 -10.1
v 27.0 -11.1 -10.0
v 27.0 -11.0 -9.9
v 26.5 -11.0 -9.0
v 26.4 -10.0 -11.0
v 27.0 -10.0 -10.6
v 27.0 -10.4 -9.0
v 27.0 -10.0 -8.7
v 27.0 -9.0 -11.4
v 27.0 -9.6 -11.0
v 26.4 -9.0 -8.0
v 27.0 -9.0 -8.5
v 27.0 -8.0 -11.3
v 26.6 -8.0 -8.0
v 27.0 -8.0 -8.4
v 27.0 -7.5 -11.0
v 26.6 -7.0 -11.0
v 27.0 -7.0 -10.6
v 27.0 -7.5 -8.0
v 27.0 -7.0 -7.7
v 26.2 -6.0 -12.0
v 26.5 -6.0 -11.0
v 27.0 -6.3 -10.0
v 26.8 -6.0 -10.0
v 27.0 -6.0 -9.7
v 26.3 -6.0 -7.0
v 27.0 -6.0 -7.7
v 26.2 -5.0 -12.0
v 26.5 -5.0 -11.0
v 26.5 -5.0 -10.0
v 27.0 -5.5 -9.0
v 26.5 -5.0 -9.0
v 27.0 -5.7 -8.0
v 26.3 -5.0 -7.0
v 26.4 -4.0 -11.0
v 26.5 -4.0 -10.0
v 26.4 -4.0 -9.0
v 26.0 -4.0 -7.0
v 26.2 -3.0 -11.0
v 26.4 -3.0 -10.0
v 26.3 -3.0 -9.0
v 26.0 -2.0 -9.0
v 27.1 -11.0 -10.0
v 27.5 -10.0 -10.0
v 27.3 -10.0 -9.0
v 28.0 -9.0 -11.0
v 28.0 -9.0 -11.0
v 28.0 -9.3 -10.0
v 28.0 -9.0 -9.7
v 27.5 -9.0 -9.0
v 28.0 -9.0 -11.0
v 27.5 -8.0 -11.0
v 28.0 -8.0 -10.4
v 27.6 -8.0 -9.0
v 28.0 -8.0 -9.6
v 28.0 -7.0 -10.2
v 28.0 -7.4 -9.0
v 27.3 -7.0 -8.0
v 28.0 -7.0 -8.7
v 28.0 -6.8 -10.0
v 28.0 -6.0 -9.0
v 27.3 -6.0 -8.0
v 28.0 -6.0 -9.0
v 28.0 -6.0 -9.0
v 28.0 -9.0 -11.0
v 28.2 -9.0 -10.0
v 28.3 -8.0 -10.0
v 28.2 -7.0 -10.0
v 28.2 -7.0 -9.0
v 28.0 -6.0 -9.0
f 3 2 1
f 5 4 1
f 1 4 3
f 7 6 5
f 5 6 4
f 7 8 6
f 1 2 9
f 9 2 10
f 1 11 5
f 1 9 11
f 13 7 12
f 7 11 12
f 7 5 11
f 7 13 8
f 9 10 14
f 14 10 15
f 9 16 11
f 9 14 16
f 12 11 17
f 17 11 16
f 15 18 14
f 14 18 16
f 16 18 19
f 16 19 17
f 21 20 3
f 3 20 2
f 22 3 4
f 22 21 3
f 23 4 6
f 23 22 4
f 6 8 23
f 23 8 24
f 20 10 2
f 25 10 20
f 27 26 13
f 27 13 12
f 8 13 24
f 24 13 26
f 29 15 28
f 15 25 28
f 15 10 25
f 31 30 29
f 31 29 28
f 31 27 30
f 27 17 30
f 27 12 17
f 29 18 15
f 18 29 19
f 19 29 30
f 19 30 17
f 34 33 32
f 36 35 32
f 32 35 34
f 36 37 35
f 39 38 21
f 21 38 20
f 22 32 33
f 39 22 33
f 21 22 39
f 32 22 23
f 32 23 36
f 41 40 24
f 24 40 23
f 40 37 23
f 37 36 23
f 41 42 40
f 38 25 20
f 43 25 38
f 45 44 26
f 45 26 27
f 24 26 41
f 26 46 41
f 26 44 46
f 41 46 42
f 43 47 25
f 25 47 28
f 28 48 31
f 47 48 28
f 27 31 45
f 45 31 48
f 51 50 49
f 53 52 49
f 49 52 51
f 53 54 52
f 49 50 55
f 55 50 56
f 49 57 53
f 49 55 57
f 54 53 58
f 58 53 57
f 56 59 55
f 55 59 57
f 57 59 60
f 57 60 58
f 63 62 61
f 61 64 63
f 65 33 34
f 62 66 61
f 66 34 61
f 34 35 61
f 34 66 65
f 68 67 37
f 37 67 35
f 67 64 35
f 64 61 35
f 68 69 67
f 70 38 39
f 71 70 39
f 71 39 33
f 72 71 33
f 65 72 33
f 72 65 66
f 40 68 37
f 40 42 68
f 42 69 68
f 42 73 69
f 74 43 70
f 70 43 38
f 70 71 75
f 70 75 74
f 77 76 44
f 77 44 45
f 44 78 46
f 76 78 44
f 42 46 73
f 73 46 78
f 74 47 43
f 75 79 74
f 79 47 74
f 79 48 47
f 45 48 77
f 77 48 79
f 82 81 80
f 80 83 82
f 85 84 51
f 51 84 50
f 52 80 81
f 85 52 81
f 51 52 85
f 52 54 80
f 54 83 80
f 54 86 83
f 84 56 50
f 87 56 84
f 58 86 54
f 58 88 86
f 87 89 56
f 56 89 59
f 59 90 60
f 89 90 59
f 58 60 88
f 88 60 90
f 92 91 63
f 63 91 62
f 94 93 64
f 93 63 64
f 93 92 63
f 94 95 93
f 98 97 96
f 91 98 96
f 66 91 96
f 62 91 66
f 67 94 64
f 67 69 94
f 69 95 94
f 69 99 95
f 96 97 72
f 97 71 72
f 97 100 71
f 96 72 66
f 103 102 101
f 102 99 101
f 99 73 101
f 99 69 73
f 105 75 104
f 75 100 104
f 75 71 100
f 76 77 105
f 104 76 105
f 106 76 104
f 101 78 103
f 78 106 103
f 78 76 106
f 78 101 73
f 105 79 75
f 79 105 77
f 109 108 107
f 107 110 109
f 107 108 82
f 108 81 82
f 108 111 81
f 82 83 107
f 83 110 107
f 83 112 110
f 114 113 85
f 85 113 84
f 85 81 111
f 85 111 114
f 86 112 83
f 86 115 112
f 113 87 84
f 116 87 113
f 88 115 86
f 88 117 115
f 116 118 87
f 87 118 89
f 89 119 90
f 118 119 89
f 88 90 117
f 117 90 119
f 121 120 92
f 92 120 91
f 122 92 93
f 122 121 92
f 93 95 122
f 122 95 123
f 124 97 98
f 125 124 98
f 91 125 98
f 120 125 91
f 99 127 126
f 123 99 126
f 95 99 123
f 127 128 126
f 129 100 124
f 124 100 97
f 124 125 130
f 131 124 130
f 129 124 131
f 102 103 131
f 130 102 131
f 132 102 130
f 99 102 127
f 102 133 127
f 102 132 133
f 127 133 128
f 129 104 100
f 104 129 106
f 106 129 131
f 106 131 103
f 136 135 134
f 138 137 134
f 134 137 136
f 138 139 137
f 134 135 109
f 135 108 109
f 135 140 108
f 134 109 110
f 141 134 110
f 138 134 141
f 139 138 142
f 142 138 141
f 140 111 108
f 143 111 140
f 112 144 141
f 112 141 110
f 142 141 145
f 145 141 144
f 147 146 114
f 114 146 113
f 114 111 143
f 114 143 147
f 149 148 144
f 112 149 144
f 115 149 112
f 144 148 145
f 146 116 113
f 150 116 146
f 117 149 115
f 117 151 149
f 150 152 116
f 116 152 118
f 118 153 119
f 152 153 118
f 117 119 151
f 151 119 153
f 155 154 121
f 121 154 120
f 157 155 156
f 155 122 156
f 155 121 122
f 123 156 122
f 159 125 158
f 125 154 158
f 125 120 154
f 159 161 160
f 159 156 161
f 159 158 157
f 156 159 157
f 161 156 123
f 126 161 123
f 162 161 126
f 164 163 128
f 163 126 128
f 163 162 126
f 164 165 163
f 130 125 159
f 168 167 166
f 130 159 132
f 160 132 159
f 132 160 169
f 166 169 160
f 169 166 167
f 132 169 170
f 171 132 170
f 133 132 171
f 128 133 164
f 133 172 164
f 133 171 172
f 164 172 165
f 168 173 167
f 167 173 169
f 169 173 174
f 169 174 170
f 177 176 175
f 175 178 177
f 180 179 136
f 136 179 135
f 137 175 176
f 180 137 176
f 136 137 180
f 137 139 175
f 139 178 175
f 139 181 178
f 179 140 135
f 182 140 179
f 142 181 139
f 142 183 181
f 182 143 140
f 184 143 182
f 145 183 142
f 145 185 183
f 187 186 147
f 147 186 146
f 147 143 184
f 147 184 187
f 149 188 148
f 188 189 148
f 189 145 148
f 189 185 145
f 186 150 146
f 190 150 186
f 192 191 188
f 149 192 188
f 151 192 149
f 188 191 189
f 190 193 150
f 150 193 152
f 152 194 153
f 193 194 152
f 151 153 192
f 192 153 194
f 195 154 155
f 157 195 155
f 195 158 154
f 158 195 157
f 196 160 161
f 196 161 197
f 161 198 197
f 161 162 198
f 199 162 163
f 199 198 162
f 201 200 165
f 200 163 165
f 200 199 163
f 201 202 200
f 203 168 166
f 204 203 166
f 204 166 160
f 205 204 160
f 196 205 160
f 171 170 206
f 196 197 205
f 207 172 171
f 207 171 206
f 207 208 172
f 172 208 165
f 208 209 165
f 209 201 165
f 201 209 202
f 203 173 168
f 174 173 203
f 210 174 203
f 204 210 203
f 211 174 210
f 211 212 174
f 174 212 170
f 212 213 170
f 213 206 170
f 206 213 207
f 207 213 214
f 207 214 208
f 211 210 177
f 210 176 177
f 210 215 176
f 177 178 211
f 178 212 211
f 178 216 212
f 218 217 180
f 180 217 179
f 180 176 215
f 180 215 218
f 181 216 178
f 181 219 216
f 217 182 179
f 220 182 217
f 183 219 181
f 183 221 219
f 220 184 182
f 222 184 220
f 185 221 183
f 185 223 221
f 225 224 187
f 187 224 186
f 187 184 222
f 187 222 225
f 189 223 185
f 189 226 223
f 224 190 186
f 227 190 224
f 229 228 191
f 229 191 192
f 189 191 226
f 226 191 228
f 227 230 190
f 190 230 193
f 193 231 194
f 230 231 193
f 192 194 229
f 229 194 231
f 233 232 198
f 198 232 197
f 234 198 199
f 234 233 198
f 235 199 200
f 235 234 199
f 200 202 235
f 235 202 236
f 237 204 205
f 238 237 205
f 197 238 205
f 232 238 197
f 208 239 209
f 239 240 209
f 240 202 209
f 240 236 202
f 241 210 237
f 237 210 204
f 243 242 238
f 213 238 242
f 238 213 237
f 212 237 213
f 237 212 241
f 244 214 213
f 244 213 242
f 244 245 214
f 214 245 208
f 245 246 208
f 246 239 208
f 239 246 240
f 248 247 241
f 247 210 241
f 247 215 210
f 243 248 249
f 242 243 249
f 250 242 249
f 251 250 249
f 216 251 249
f 212 216 249
f 241 212 249
f 248 241 249
f 242 250 244
f 244 250 252
f 244 252 245
f 254 253 218
f 218 253 217
f 218 215 247
f 218 247 254
f 219 251 216
f 219 255 251
f 253 220 217
f 256 220 253
f 221 255 219
f 221 257 255
f 256 222 220
f 258 222 256
f 223 257 221
f 223 259 257
f 261 260 225
f 225 260 224
f 225 222 258
f 225 258 261
f 226 259 223
f 226 262 259
f 260 227 224
f 263 227 260
f 265 264 228
f 265 228 229
f 226 228 262
f 262 228 264
f 263 266 227
f 227 266 230
f 230 267 231
f 266 267 230
f 229 231 265
f 265 231 267
f 270 269 268
f 268 271 270
f 272 232 233
f 269 273 268
f 273 233 268
f 233 234 268
f 233 273 272
f 274 271 268
f 234 274 268
f 235 274 234
f 235 236 274
f 274 236 275
f 277 276 272
f 276 232 272
f 276 238 232
f 277 272 273
f 240 275 236
f 240 278 275
f 281 280 279
f 276 281 279
f 243 276 279
f 238 276 243
f 283 282 246
f 283 246 245
f 240 246 278
f 278 246 282
f 286 285 284
f 286 284 280
f 280 284 279
f 284 247 279
f 247 248 279
f 243 279 248
f 250 251 287
f 250 287 288
f 289 250 288
f 252 250 289
f 245 252 283
f 283 252 289
f 284 285 254
f 285 253 254
f 285 290 253
f 284 254 247
f 292 291 287
f 251 292 287
f 255 292 251
f 287 291 288
f 290 256 253
f 293 256 290
f 257 292 255
f 257 294 292
f 293 258 256
f 295 258 293
f 259 294 257
f 259 296 294
f 298 297 261
f 261 297 260
f 261 258 295
f 261 295 298
f 262 296 259
f 262 299 296
f 301 263 300
f 263 297 300
f 263 260 297
f 302 301 300
f 265 303 264
f 303 304 264
f 304 262 264
f 304 299 262
f 301 266 263
f 302 305 301
f 305 266 301
f 305 267 266
f 265 267 303
f 267 306 303
f 267 305 306
f 303 306 304
f 307 269 270
f 307 270 271
f 310 309 308
f 308 311 310
f 313 312 307
f 312 269 307
f 312 273 269
f 313 308 309
f 313 274 308
f 313 307 271
f 274 313 271
f 315 314 275
f 275 314 274
f 314 311 274
f 311 308 274
f 315 316 314
f 318 317 277
f 277 317 276
f 277 273 312
f 277 312 318
f 278 319 315
f 278 315 275
f 316 315 320
f 320 315 319
f 322 321 281
f 281 321 280
f 281 276 317
f 281 317 322
f 283 323 282
f 319 278 282
f 323 319 282
f 324 319 323
f 320 319 325
f 325 319 324
f 328 327 326
f 285 286 326
f 286 328 326
f 286 329 328
f 286 280 321
f 286 321 329
f 331 330 289
f 331 289 288
f 283 289 323
f 289 332 323
f 289 330 332
f 323 332 324
f 324 332 333
f 324 333 325
f 326 327 334
f 334 327 335
f 334 290 285
f 334 285 326
f 292 336 291
f 336 337 291
f 337 288 291
f 337 331 288
f 334 335 338
f 338 335 339
f 338 293 290
f 338 290 334
f 294 340 336
f 294 336 292
f 337 336 341
f 341 336 340
f 339 342 338
f 293 338 342
f 343 293 342
f 295 293 343
f 296 344 340
f 296 340 294
f 341 340 345
f 345 340 344
f 346 297 298
f 347 346 298
f 295 347 298
f 343 347 295
f 349 348 344
f 296 349 344
f 299 349 296
f 344 348 345
f 346 300 297
f 302 300 346
f 347 302 346
f 350 302 347
f 304 349 299
f 304 351 349
f 350 352 302
f 302 352 305
f 305 353 306
f 352 353 305
f 304 306 351
f 351 306 353
f 356 355 354
f 354 357 356
f 354 355 310
f 355 309 310
f 355 358 309
f 360 359 311
f 311 359 310
f 359 357 310
f 357 354 310
f 360 361 359
f 363 362 313
f 313 362 312
f 313 309 358
f 313 358 363
f 314 360 311
f 314 316 360
f 316 361 360
f 316 364 361
f 367 366 365
f 317 318 365
f 318 367 365
f 318 368 367
f 318 312 362
f 318 362 368
f 320 364 316
f 320 369 364
f 365 366 322
f 366 321 322
f 366 370 321
f 365 322 317
f 325 369 320
f 325 371 369
f 372 327 328
f 372 328 373
f 328 374 373
f 328 329 374
f 329 321 370
f 329 370 374
f 331 375 330
f 330 375 376
f 377 330 376
f 332 330 377
f 332 378 333
f 377 378 332
f 325 333 371
f 371 333 378
f 380 379 372
f 379 327 372
f 379 335 327
f 380 372 373
f 382 381 375
f 331 382 375
f 337 382 331
f 375 381 376
f 379 339 335
f 383 339 379
f 341 382 337
f 341 384 382
f 383 385 339
f 339 385 342
f 343 342 385
f 343 385 386
f 345 384 341
f 345 387 384
f 386 347 343
f 388 347 386
f 390 389 348
f 390 348 349
f 345 348 387
f 387 348 389
f 388 350 347
f 391 350 388
f 351 390 349
f 351 392 390
f 391 393 350
f 350 393 352
f 352 394 353
f 393 394 352
f 351 353 392
f 392 353 394
f 396 395 356
f 356 395 355
f 398 397 357
f 397 356 357
f 397 396 356
f 398 399 397
f 395 358 355
f 400 358 395
f 359 398 357
f 359 361 398
f 361 399 398
f 361 401 399
f 403 402 363
f 363 402 362
f 363 358 400
f 363 400 403
f 364 401 361
f 364 404 401
f 405 366 367
f 368 406 367
f 367 406 405
f 407 406 368
f 362 407 368
f 402 407 362
f 369 409 408
f 404 369 408
f 364 369 404
f 409 410 408
f 412 411 405
f 411 366 405
f 411 370 366
f 412 405 406
f 412 406 413
f 413 406 407
f 371 414 409
f 371 409 369
f 410 409 415
f 415 409 414
f 417 416 374
f 374 416 373
f 374 370 411
f 374 411 417
f 376 418 377
f 419 378 377
f 419 377 418
f 414 371 378
f 419 414 378
f 420 414 419
f 415 414 421
f 421 414 420
f 423 422 380
f 380 422 379
f 380 373 416
f 380 416 423
f 382 424 381
f 424 425 381
f 381 425 376
f 425 426 376
f 426 418 376
f 418 426 419
f 419 426 427
f 419 427 420
f 420 427 428
f 420 428 421
f 430 383 429
f 383 422 429
f 383 379 422
f 431 430 429
f 433 432 424
f 382 433 424
f 384 433 382
f 424 432 425
f 430 385 383
f 386 385 430
f 431 386 430
f 434 386 431
f 387 433 384
f 387 435 433
f 434 388 386
f 436 388 434
f 390 437 389
f 437 438 389
f 438 387 389
f 438 435 387
f 440 391 439
f 391 436 439
f 391 388 436
f 441 440 439
f 443 442 437
f 390 443 437
f 392 443 390
f 437 442 438
f 440 393 391
f 441 444 440
f 444 393 440
f 444 394 393
f 392 394 443
f 443 394 444
f 445 395 396
f 445 396 446
f 396 447 446
f 396 397 447
f 397 399 447
f 447 399 448
f 450 449 445
f 449 395 445
f 449 400 395
f 450 445 446
f 401 448 399
f 401 451 448
f 453 452 403
f 403 452 402
f 403 400 449
f 403 449 453
f 404 455 454
f 451 404 454
f 401 404 451
f 455 456 454
f 459 458 457
f 452 459 457
f 407 452 457
f 402 452 407
f 408 455 404
f 408 410 455
f 410 456 455
f 410 460 456
f 462 461 412
f 412 461 411
f 413 457 458
f 462 413 458
f 412 413 462
f 457 413 407
f 415 460 410
f 415 463 460
f 464 416 417
f 465 464 417
f 411 465 417
f 461 465 411
f 421 463 415
f 421 466 463
f 467 422 423
f 468 467 423
f 468 423 416
f 469 468 416
f 464 469 416
f 469 464 465
f 471 470 426
f 471 426 425
f 426 472 427
f 470 472 426
f 427 473 428
f 472 473 427
f 421 428 466
f 466 428 473
f 467 429 422
f 431 429 467
f 468 431 467
f 474 431 468
f 433 475 432
f 475 476 432
f 476 425 432
f 476 471 425
f 474 434 431
f 477 434 474
f 479 478 475
f 433 479 475
f 435 479 433
f 475 478 476
f 477 436 434
f 480 436 477
f 438 479 435
f 438 481 479
f 480 482 436
f 436 482 439
f 484 483 441
f 439 484 441
f 482 484 439
f 442 443 483
f 484 442 483
f 485 442 484
f 438 442 481
f 481 442 485
f 483 444 441
f 444 483 443
f 488 487 486
f 486 489 488
f 486 487 447
f 487 446 447
f 487 490 446
f 447 448 486
f 448 489 486
f 448 491 489
f 493 492 450
f 450 492 449
f 450 446 490
f 450 490 493
f 451 495 494
f 491 451 494
f 448 451 491
f 495 496 494
f 499 498 497
f 452 453 497
f 453 499 497
f 453 500 499
f 453 449 492
f 453 492 500
f 454 495 451
f 454 456 495
f 456 496 495
f 456 501 496
f 497 498 459
f 498 458 459
f 498 502 458
f 497 459 452
f 460 504 503
f 501 460 503
f 456 460 501
f 504 505 503
f 506 461 462
f 507 506 462
f 458 507 462
f 502 507 458
f 463 508 504
f 463 504 460
f 505 504 509
f 509 504 508
f 511 510 506
f 510 461 506
f 510 465 461
f 511 506 507
f 466 512 508
f 466 508 463
f 509 508 513
f 513 508 512
f 515 514 469
f 469 514 468
f 469 465 510
f 469 510 515
f 517 516 470
f 517 470 471
f 470 518 472
f 516 518 470
f 472 519 473
f 518 519 472
f 466 473 512
f 473 520 512
f 473 519 520
f 512 520 513
f 514 474 468
f 521 474 514
f 476 517 471
f 476 522 517
f 521 477 474
f 523 477 521
f 525 524 478
f 525 478 479
f 476 478 522
f 522 478 524
f 523 480 477
f 526 480 523
f 481 525 479
f 481 527 525
f 526 528 480
f 480 528 482
f 482 529 484
f 528 529 482
f 484 530 485
f 529 530 484
f 481 485 527
f 527 485 530
f 533 532 531
f 531 534 533
f 532 535 531
f 531 535 534
f 538 537 536
f 536 539 538
f 536 537 488
f 537 487 488
f 537 540 487
f 488 489 536
f 489 539 536
f 489 541 539
f 544 543 542
f 540 544 542
f 490 540 542
f 487 540 490
f 491 546 545
f 541 491 545
f 489 491 541
f 546 547 545
f 550 549 548
f 552 551 548
f 548 551 550
f 551 552 543
f 543 552 542
f 552 492 542
f 492 493 542
f 542 493 490
f 494 546 491
f 494 496 546
f 496 547 546
f 496 553 547
f 548 549 499
f 549 498 499
f 549 554 498
f 548 499 500
f 548 500 552
f 552 500 492
f 501 556 555
f 553 501 555
f 496 501 553
f 556 557 555
f 554 502 498
f 558 502 554
f 503 556 501
f 503 505 556
f 505 557 556
f 505 559 557
f 558 507 502
f 560 507 558
f 509 559 505
f 509 561 559
f 563 562 511
f 511 562 510
f 511 507 560
f 511 560 563
f 566 565 564
f 567 564 565
f 513 561 509
f 513 568 561
f 569 514 515
f 570 569 515
f 510 570 515
f 562 570 510
f 572 571 516
f 572 516 517
f 516 573 518
f 571 573 516
f 564 519 566
f 519 573 566
f 519 518 573
f 567 574 564
f 574 519 564
f 574 520 519
f 513 520 568
f 568 520 574
f 576 575 569
f 575 514 569
f 575 521 514
f 576 569 570
f 522 572 517
f 522 577 572
f 575 523 521
f 578 523 575
f 525 579 524
f 579 580 524
f 580 522 524
f 580 577 522
f 582 526 581
f 526 578 581
f 526 523 578
f 583 582 581
f 585 584 579
f 525 585 579
f 527 585 525
f 579 584 580
f 582 528 526
f 583 586 582
f 586 528 582
f 586 529 528
f 529 587 530
f 586 587 529
f 527 530 585
f 585 530 587
f 590 589 588
f 588 591 590
f 588 589 533
f 589 532 533
f 589 592 532
f 594 593 534
f 534 593 533
f 593 591 533
f 591 588 533
f 594 595 593
f 598 597 596
f 596 599 535
f 592 596 535
f 532 592 535
f 596 592 598
f 594 534 535
f 599 594 535
f 600 594 599
f 595 594 601
f 601 594 600
f 596 597 602
f 602 597 603
f 596 604 599
f 596 602 604
f 604 537 538
f 600 604 538
f 599 604 600
f 538 539 600
f 539 601 600
f 539 605 601
f 602 603 606
f 606 603 607
f 602 608 604
f 602 606 608
f 608 540 537
f 608 537 604
f 541 610 609
f 605 541 609
f 539 541 605
f 610 611 609
f 606 607 612
f 612 607 613
f 612 543 544
f 608 612 544
f 606 612 608
f 608 544 540
f 545 610 541
f 545 547 610
f 547 611 610
f 547 614 611
f 616 615 550
f 550 615 549
f 551 612 613
f 616 551 613
f 550 551 616
f 612 551 543
f 553 614 547
f 553 617 614
f 615 554 549
f 618 554 615
f 619 617 553
f 619 553 555
f 555 557 619
f 619 557 620
f 618 558 554
f 621 558 618
f 559 620 557
f 559 622 620
f 621 560 558
f 623 560 621
f 626 625 624
f 627 624 625
f 561 622 559
f 561 628 622
f 629 562 563
f 630 629 563
f 560 630 563
f 623 630 560
f 633 632 631
f 631 632 626
f 631 626 624
f 566 631 624
f 565 566 624
f 635 634 567
f 635 567 565
f 627 635 565
f 624 627 565
f 635 628 634
f 628 568 634
f 628 561 568
f 637 636 629
f 636 562 629
f 636 570 562
f 637 629 630
f 639 638 571
f 639 571 572
f 631 573 633
f 573 638 633
f 573 571 638
f 573 631 566
f 634 574 567
f 574 634 568
f 640 575 576
f 641 640 576
f 570 641 576
f 636 641 570
f 577 639 572
f 577 642 639
f 644 643 640
f 643 575 640
f 643 578 575
f 644 640 641
f 647 646 645
f 646 642 645
f 642 580 645
f 642 577 580
f 643 648 578
f 578 648 581
f 583 581 648
f 583 648 649
f 652 651 650
f 650 651 647
f 650 647 645
f 585 650 645
f 584 585 645
f 584 645 580
f 649 653 583
f 583 653 586
f 650 587 652
f 587 653 652
f 587 586 653
f 587 650 585
f 655 654 590
f 590 654 589
f 590 591 655
f 655 591 656
f 654 592 589
f 657 592 654
f 591 593 658
f 659 591 658
f 656 591 659
f 595 658 593
f 661 660 598
f 598 660 597
f 598 592 657
f 598 657 661
f 662 659 658
f 658 595 662
f 595 663 662
f 595 601 663
f 660 603 597
f 664 603 660
f 605 663 601
f 605 665 663
f 664 607 603
f 666 607 664
f 667 665 605
f 667 605 609
f 609 611 667
f 667 611 668
f 671 670 669
f 666 671 669
f 613 666 669
f 607 666 613
f 614 668 611
f 614 672 668
f 669 670 616
f 670 615 616
f 670 673 615
f 669 616 613
f 617 672 614
f 617 674 672
f 673 618 615
f 675 618 673
f 676 674 617
f 676 617 619
f 619 620 676
f 676 620 677
f 675 621 618
f 678 621 675
f 622 677 620
f 622 679 677
f 678 623 621
f 680 623 678
f 682 681 625
f 682 625 626
f 627 625 681
f 627 681 683
f 628 679 622
f 628 684 679
f 680 630 623
f 685 630 680
f 633 686 632
f 686 687 632
f 687 626 632
f 687 682 626
f 683 688 627
f 627 688 635
f 628 635 684
f 684 635 688
f 689 636 637
f 690 689 637
f 630 690 637
f 685 690 630
f 692 691 638
f 692 638 639
f 633 638 686
f 638 693 686
f 638 691 693
f 686 693 687
f 694 641 689
f 689 641 636
f 689 690 695
f 696 689 695
f 694 689 696
f 697 696 695
f 642 692 639
f 642 698 692
f 699 643 644
f 641 694 644
f 694 699 644
f 694 700 699
f 701 694 696
f 700 694 701
f 702 646 647
f 696 702 647
f 701 696 647
f 702 696 697
f 642 646 698
f 698 646 702
f 699 648 643
f 648 699 649
f 699 703 649
f 699 700 703
f 652 703 651
f 703 701 651
f 703 700 701
f 651 701 647
f 703 653 649
f 653 703 652
f 705 704 655
f 655 704 654
f 655 656 705
f 705 656 706
f 704 657 654
f 707 657 704
f 659 706 656
f 659 708 706
f 711 710 709
f 660 661 709
f 661 711 709
f 661 712 711
f 661 657 707
f 661 707 712
f 713 708 659
f 713 659 662
f 662 663 713
f 713 663 714
f 709 710 715
f 715 710 716
f 715 664 660
f 715 660 709
f 665 714 663
f 665 717 714
f 715 716 718
f 718 716 719
f 718 666 664
f 718 664 715
f 665 667 720
f 721 665 720
f 717 665 721
f 668 720 667
f 718 719 671
f 719 670 671
f 719 722 670
f 718 671 666
f 723 721 720
f 720 668 723
f 668 724 723
f 668 672 724
f 727 726 725
f 722 727 725
f 673 722 725
f 670 722 673
f 674 724 672
f 674 728 724
f 725 726 729
f 729 726 730
f 729 675 673
f 729 673 725
f 731 728 674
f 731 674 676
f 676 677 731
f 731 677 732
f 730 733 729
f 675 729 733
f 734 675 733
f 678 675 734
f 679 732 677
f 679 735 732
f 734 680 678
f 736 680 734
f 738 737 681
f 738 681 682
f 740 739 683
f 681 740 683
f 737 740 681
f 740 735 739
f 735 684 739
f 735 679 684
f 736 685 680
f 741 685 736
f 744 743 742
f 745 742 743
f 687 738 682
f 687 746 738
f 739 688 683
f 688 739 684
f 748 690 747
f 690 741 747
f 690 685 741
f 748 747 744
f 742 748 744
f 749 748 742
f 750 691 692
f 742 750 692
f 749 742 692
f 750 742 745
f 691 751 693
f 750 751 691
f 687 693 746
f 746 693 751
f 748 695 690
f 695 748 697
f 748 752 697
f 748 749 752
f 698 752 692
f 692 752 749
f 752 702 697
f 702 752 698
f 755 754 753
f 757 756 753
f 753 756 755
f 757 758 756
f 753 754 759
f 759 754 760
f 759 704 705
f 757 759 705
f 753 759 757
f 705 706 757
f 706 758 757
f 706 761 758
f 759 760 762
f 762 760 763
f 762 707 704
f 762 704 759
f 708 761 706
f 708 764 761
f 766 765 711
f 711 765 710
f 712 762 763
f 766 712 763
f 711 712 766
f 762 712 707
f 708 713 767
f 768 708 767
f 764 708 768
f 714 767 713
f 765 716 710
f 769 716 765
f 770 768 767
f 767 714 770
f 714 771 770
f 714 717 771
f 769 719 716
f 772 719 769
f 721 771 717
f 721 773 771
f 772 722 719
f 774 722 772
f 721 723 775
f 776 721 775
f 773 721 776
f 724 775 723
f 778 777 727
f 727 777 726
f 727 722 774
f 727 774 778
f 779 776 775
f 775 724 779
f 724 780 779
f 724 728 780
f 777 730 726
f 781 730 777
f 784 783 782
f 785 782 783
f 728 731 786
f 787 728 786
f 780 728 787
f 732 786 731
f 781 788 730
f 730 788 733
f 734 733 788
f 734 788 789
f 784 782 790
f 784 790 791
f 782 785 792
f 782 792 790
f 787 786 793
f 787 793 794
f 735 793 732
f 732 793 786
f 789 736 734
f 795 736 789
f 791 790 796
f 791 796 797
f 798 737 738
f 790 798 738
f 796 790 738
f 798 790 792
f 793 740 794
f 740 798 794
f 740 737 798
f 740 793 735
f 800 741 799
f 741 795 799
f 741 736 795
f 743 744 800
f 799 743 800
f 801 743 799
f 745 743 801
f 745 801 802
f 797 796 803
f 797 803 804
f 746 803 738
f 738 803 796
f 800 747 741
f 747 800 744
f 802 805 745
f 745 805 750
f 803 751 804
f 751 805 804
f 751 750 805
f 751 803 746
f 806 754 755
f 756 807 755
f 755 807 806
f 758 807 756
f 808 760 806
f 806 760 754
f 809 806 807
f 808 806 809
f 761 809 758
f 758 809 807
f 811 810 808
f 810 760 808
f 810 763 760
f 813 812 811
f 808 813 811
f 809 813 808
f 764 813 761
f 761 813 809
f 814 765 766
f 815 814 766
f 763 815 766
f 810 815 763
f 816 812 813
f 813 764 816
f 764 817 816
f 764 768 817
f 819 818 814
f 818 765 814
f 818 769 765
f 819 814 815
f 768 770 820
f 821 768 820
f 817 768 821
f 771 820 770
f 818 772 769
f 822 772 818
f 821 820 823
f 821 823 824
f 773 823 771
f 771 823 820
f 826 774 825
f 774 822 825
f 774 772 822
f 827 826 825
f 828 824 823
f 823 773 828
f 773 829 828
f 773 776 829
f 830 777 778
f 774 826 778
f 826 830 778
f 826 831 830
f 826 827 832
f 833 826 832
f 831 826 833
f 834 833 832
f 776 779 835
f 836 776 835
f 829 776 836
f 780 835 779
f 837 781 830
f 830 781 777
f 838 830 831
f 837 830 838
f 839 831 833
f 838 831 839
f 833 834 840
f 841 833 840
f 839 833 841
f 783 784 841
f 840 783 841
f 842 783 840
f 835 843 785
f 842 835 785
f 783 842 785
f 836 835 842
f 787 843 780
f 780 843 835
f 837 788 781
f 788 837 789
f 837 844 789
f 837 838 844
f 845 838 839
f 844 838 845
f 846 839 841
f 845 839 846
f 791 846 784
f 784 846 841
f 847 792 843
f 843 792 785
f 794 847 787
f 787 847 843
f 848 795 844
f 844 795 789
f 849 844 845
f 848 844 849
f 850 845 846
f 849 845 850
f 797 850 791
f 791 850 846
f 847 798 792
f 798 847 794
f 848 799 795
f 799 848 801
f 801 848 849
f 801 849 802
f 849 851 802
f 849 850 851
f 804 851 797
f 797 851 850
f 851 805 802
f 805 851 804
f 852 810 811
f 812 852 811
f 853 815 852
f 852 815 810
f 816 854 812
f 854 852 812
f 854 853 852
f 817 854 816
f 856 855 819
f 819 855 818
f 819 815 853
f 857 819 853
f 856 819 857
f 859 858 857
f 853 859 857
f 854 859 853
f 821 859 817
f 817 859 854
f 861 822 860
f 822 855 860
f 822 818 855
f 862 861 860
f 858 859 863
f 858 863 864
f 824 863 821
f 821 863 859
f 861 825 822
f 827 825 861
f 862 827 861
f 865 827 862
f 866 864 863
f 868 866 867
f 867 866 828
f 866 863 828
f 863 824 828
f 829 867 828
f 865 869 827
f 827 869 832
f 834 832 869
f 834 869 870
f 868 867 871
f 868 871 872
f 836 871 829
f 829 871 867
f 870 873 834
f 834 873 840
f 871 842 872
f 842 873 872
f 842 840 873
f 842 871 836
f 874 855 856
f 857 875 856
f 856 875 874
f 858 875 857
f 874 860 855
f 860 874 862
f 874 876 862
f 874 875 876
f 864 876 858
f 858 876 875
f 877 865 876
f 876 865 862
f 866 878 864
f 878 876 864
f 878 877 876
f 868 878 866
f 877 869 865
f 869 877 870
f 877 879 870
f 877 878 879
f 872 879 868
f 868 879 878
f 879 873 870
f 873 879 872
