v -54.8 -11.0 18.0
v -54.0 -11.0 17.8
v -54.0 -11.2 18.0
v -54.0 -11.3 19.0
v -54.9 -11.0 19.0
v -54.0 -11.0 19.3
v -54.2 -10.0 18.0
v -54.0 -10.0 17.8
v -54.2 -10.0 19.0
v -54.0 -10.0 19.2
v -54.0 -9.8 18.0
v -54.0 -9.8 19.0
v -53.7 -11.0 18.0
v -53.0 -11.0 18.6
v -53.0 -11.2 19.0
v -53.0 -11.0 19.3
v -53.0 -10.0 17.8
v -53.0 -10.4 18.0
v -53.0 -10.0 19.3
v -53.0 -9.7 18.0
v -53.0 -9.7 19.0
v -52.1 -12.0 20.0
v -52.0 -12.0 19.9
v -52.0 -12.2 20.0
v -52.0 -12.0 20.2
v -52.0 -11.0 18.6
v -52.0 -11.4 19.0
v -52.3 -11.0 20.0
v -52.0 -11.0 20.3
v -52.0 -10.0 17.7
v -52.0 -10.4 18.0
v -52.0 -10.6 20.0
v -52.0 -10.0 19.5
v -52.0 -9.0 18.0
v -52.0 -9.0 18.0
v -52.0 -9.0 18.0
v -52.0 -9.5 19.0
v -52.0 -9.0 18.0
v -51.2 -15.0 20.0
v -51.0 -15.0 19.8
v -51.0 -15.3 20.0
v -51.0 -15.3 21.0
v -51.2 -15.0 21.0
v -51.0 -15.0 21.2
v -51.4 -14.0 20.0
v -51.0 -14.0 19.6
v -51.4 -14.0 21.0
v -51.0 -14.0 21.5
v -51.5 -13.0 20.0
v -51.0 -13.0 19.6
v -51.9 -13.0 21.0
v -51.0 -13.0 21.5
v -51.0 -12.0 19.3
v -51.4 -12.0 21.0
v -51.0 -12.0 21.3
v -51.0 -11.0 18.5
v -51.0 -11.6 19.0
v -51.0 -11.5 21.0
v -51.0 -11.0 20.7
v -51.0 -10.0 17.7
v -51.0 -10.4 18.0
v -51.4 -10.0 20.0
v -51.0 -10.0 20.3
v -51.0 -9.0 17.8
v -51.0 -9.3 19.0
v -51.0 -9.0 18.4
v -51.0 -9.7 20.0
v -51.0 -8.8 18.0
v -50.1 -16.0 19.0
v -50.0 -16.0 18.9
v -50.0 -16.1 19.0
v -50.0 -16.4 20.0
v -50.4 -16.0 20.0
v -50.0 -16.2 21.0
v -50.3 -16.0 21.0
v -50.0 -16.0 21.2
v -50.0 -15.7 19.0
v -50.0 -15.0 19.3
v -50.0 -15.0 21.7
v -50.0 -14.0 19.3
v -50.0 -14.5 22.0
v -50.4 -14.0 22.0
v -50.0 -14.0 22.3
v -50.0 -13.0 19.2
v -50.3 -13.0 22.0
v -50.0 -13.0 22.2
v -50.6 -12.0 19.0
v -50.0 -12.0 18.6
v -50.0 -12.6 19.0
v -50.0 -12.7 22.0
v -50.0 -12.0 21.6
v -50.0 -11.0 18.3
v -50.5 -11.0 21.0
v -50.0 -11.0 21.3
v -50.0 -10.0 17.6
v -50.0 -10.6 18.0
v -50.0 -10.6 21.0
v -50.0 -10.0 20.5
v -50.0 -9.0 17.8
v -50.5 -9.0 19.0
v -50.0 -9.0 19.4
v -50.0 -9.4 20.0
v -50.0 -8.8 18.0
v -50.0 -8.7 19.0
v -49.1 -17.0 19.0
v -49.0 -17.0 18.8
v -49.0 -17.1 19.0
v -49.0 -17.0 19.2
v -49.4 -16.0 18.0
v -49.0 -16.0 17.1
v -49.0 -16.4 18.0
v -49.0 -16.7 20.0
v -49.0 -16.5 21.0
v -49.0 -16.0 21.6
v -49.4 -15.0 18.0
v -49.0 -15.0 17.5
v -49.8 -15.0 19.0
v -49.0 -15.5 22.0
v -49.5 -15.0 22.0
v -49.0 -15.0 22.3
v -49.4 -14.0 18.0
v -49.0 -14.0 17.6
v -49.7 -14.0 19.0
v -49.0 -14.0 22.5
v -49.4 -13.0 18.0
v -49.0 -13.0 17.5
v -49.8 -13.0 19.0
v -49.0 -13.0 22.5
v -49.5 -12.0 18.0
v -49.0 -12.0 17.5
v -49.0 -12.4 22.0
v -49.0 -12.0 21.7
v -49.7 -11.0 18.0
v -49.0 -11.0 17.5
v -49.0 -11.0 21.4
v -49.0 -10.0 17.6
v -49.0 -10.4 21.0
v -49.0 -10.0 20.7
v -49.0 -9.5 18.0
v -49.7 -9.0 18.0
v -49.0 -9.0 18.6
v -49.3 -9.0 20.0
v -49.0 -9.0 20.2
v -49.0 -8.7 19.0
v -49.0 -8.8 20.0
v -48.0 -17.0 18.4
v -48.0 -17.4 19.0
v -48.0 -17.5 20.0
v -48.6 -17.0 20.0
v -48.0 -17.5 21.0
v -48.5 -17.0 21.0
v -48.0 -17.3 22.0
v -48.2 -17.0 22.0
v -48.0 -17.0 22.2
v -48.8 -16.0 17.0
v -48.0 -16.0 16.8
v -48.0 -16.2 17.0
v -48.0 -16.7 18.0
v -48.6 -16.0 22.0
v -48.0 -16.0 22.4
v -48.0 -15.6 17.0
v -48.0 -15.0 17.3
v -48.0 -15.0 22.6
v -48.3 -14.0 17.0
v -48.0 -14.0 16.7
v -48.0 -14.5 17.0
v -48.0 -14.0 22.7
v -48.5 -13.0 17.0
v -48.0 -13.0 16.4
v -48.0 -13.2 23.0
v -48.1 -13.0 23.0
v -48.0 -13.0 23.1
v -48.1 -12.0 16.0
v -48.0 -12.0 15.8
v -48.0 -12.2 16.0
v -48.6 -12.0 17.0
v -48.6 -12.0 22.0
v -48.0 -12.0 22.4
v -48.0 -12.9 23.0
v -48.0 -11.8 16.0
v -48.4 -11.0 17.0
v -48.0 -11.0 16.5
v -48.0 -11.5 22.0
v -48.0 -11.0 21.7
v -48.0 -10.5 17.0
v -48.0 -10.0 17.4
v -48.5 -10.0 21.0
v -48.0 -10.0 21.3
v -48.0 -9.6 18.0
v -48.5 -9.0 19.0
v -48.0 -9.3 19.0
v -48.0 -9.0 19.8
v -48.0 -9.7 21.0
v -48.0 -9.0 20.1
v -48.0 -8.9 20.0
v -47.4 -18.0 20.0
v -47.0 -18.0 19.5
v -47.0 -18.3 20.0
v -47.0 -18.4 21.0
v -47.5 -18.0 21.0
v -47.0 -18.2 22.0
v -47.3 -18.0 22.0
v -47.0 -18.0 22.2
v -47.5 -17.0 18.0
v -47.0 -17.0 17.7
v -47.0 -17.3 18.0
v -47.0 -17.7 19.0
v -47.0 -17.0 22.6
v -47.0 -16.0 16.9
v -47.0 -16.1 17.0
v -47.0 -16.0 22.7
v -47.0 -15.8 17.0
v -47.0 -15.0 17.3
v -47.0 -15.5 23.0
v -47.4 -15.0 23.0
v -47.0 -15.0 23.3
v -47.0 -14.0 16.5
v -47.0 -14.7 17.0
v -47.6 -14.0 23.0
v -47.0 -14.0 23.4
v -47.5 -13.0 16.0
v -47.0 -13.0 15.5
v -47.0 -13.4 16.0
v -47.0 -13.0 23.4
v -47.2 -12.0 15.0
v -47.0 -12.0 14.9
v -47.0 -12.3 15.0
v -47.0 -12.4 23.0
v -47.0 -12.0 22.7
v -47.0 -11.8 15.0
v -47.5 -11.0 16.0
v -47.0 -11.0 15.5
v -47.5 -11.0 22.0
v -47.0 -11.0 22.3
v -47.0 -10.6 16.0
v -47.4 -10.0 17.0
v -47.0 -10.0 16.7
v -47.0 -10.6 22.0
v -47.0 -10.0 21.5
v -47.0 -9.7 17.0
v -47.0 -9.5 18.0
v -47.0 -9.5 19.0
v -47.8 -9.0 20.0
v -47.0 -9.4 20.0
v -47.0 -9.6 21.0
v -46.5 -18.0 19.0
v -46.0 -18.0 18.6
v -46.0 -18.3 19.0
v -46.0 -18.6 20.0
v -46.0 -18.5 21.0
v -46.0 -18.4 22.0
v -46.0 -18.0 22.6
v -46.0 -17.0 17.6
v -46.0 -17.5 18.0
v -46.0 -17.5 23.0
v -46.4 -17.0 23.0
v -46.0 -17.0 23.3
v -46.9 -16.0 17.0
v -46.0 -16.0 17.4
v -46.6 -16.0 23.0
v -46.0 -16.0 23.4
v -46.0 -15.0 17.4
v -46.0 -15.0 23.5
v -46.0 -14.0 16.5
v -46.0 -14.6 17.0
v -46.0 -14.0 23.5
v -46.0 -13.0 14.0
v -46.0 -13.0 14.0
v -46.0 -13.0 14.0
v -46.0 -13.4 15.0
v -46.5 -13.0 15.0
v -46.0 -13.6 16.0
v -46.0 -13.0 23.5
v -46.0 -13.0 14.0
v -46.0 -12.0 14.3
v -46.5 -12.0 23.0
v -46.0 -12.0 23.3
v -46.4 -11.0 15.0
v -46.0 -11.0 14.7
v -46.0 -11.6 23.0
v -46.0 -11.0 22.5
v -46.0 -10.8 15.0
v -46.0 -10.4 16.0
v -46.0 -10.0 16.5
v -46.0 -10.5 22.0
v -46.0 -10.0 21.5
v -46.0 -9.6 17.0
v -46.0 -9.5 18.0
v -46.0 -9.5 19.0
v -46.0 -9.5 20.0
v -46.0 -9.6 21.0
v -45.0 -19.0 23.0
v -45.0 -19.0 23.0
v -45.0 -19.0 23.0
v -45.0 -19.0 23.0
v -45.0 -18.0 18.5
v -45.0 -18.5 19.0
v -45.0 -19.0 20.0
v -45.0 -18.7 21.0
v -45.0 -18.6 22.0
v -45.5 -18.0 23.0
v -45.0 -18.0 23.4
v -45.0 -17.0 17.6
v -45.0 -17.5 18.0
v -45.0 -17.0 23.5
v -45.0 -16.0 17.5
v -45.0 -16.0 23.5
v -45.0 -15.0 17.4
v -45.0 -15.0 23.5
v -45.0 -14.0 16.4
v -45.0 -14.6 17.0
v -45.0 -14.0 23.6
v -45.0 -13.0 13.7
v -45.0 -13.3 14.0
v -45.0 -13.5 15.0
v -45.0 -13.7 16.0
v -45.0 -13.0 23.5
v -45.4 -12.0 14.0
v -45.0 -12.0 13.7
v -45.0 -12.0 23.4
v -45.0 -11.7 14.0
v -45.0 -11.0 14.6
v -45.0 -11.5 23.0
v -45.0 -11.0 22.5
v -45.0 -10.6 15.0
v -45.0 -10.4 16.0
v -45.0 -10.0 16.6
v -45.0 -10.5 22.0
v -45.0 -10.0 21.5
v -45.0 -9.7 17.0
v -45.0 -9.5 18.0
v -45.0 -9.5 19.0
v -45.0 -9.5 20.0
v -45.0 -9.6 21.0
v -44.3 -19.0 21.0
v -44.0 -19.0 20.7
v -44.0 -19.2 21.0
v -44.0 -19.0 21.6
v -44.0 -19.0 22.2
v -44.0 -19.4 23.0
v -44.0 -19.0 24.0
v -44.0 -19.0 24.0
v -44.0 -19.0 24.0
v -44.0 -18.0 18.5
v -44.0 -18.4 19.0
v -44.0 -18.7 20.0
v -44.0 -18.9 22.0
v -44.0 -19.0 24.0
v -44.0 -18.0 23.6
v -44.0 -17.0 17.5
v -44.0 -17.5 18.0
v -44.0 -17.0 23.5
v -44.0 -16.0 17.4
v -44.0 -16.0 23.5
v -44.0 -15.0 17.2
v -44.0 -15.0 23.7
v -44.5 -14.0 16.0
v -44.0 -14.0 15.6
v -44.0 -14.3 16.0
v -44.0 -14.8 17.0
v -44.0 -14.2 24.0
v -44.2 -14.0 24.0
v -44.0 -14.0 24.1
v -44.0 -13.0 13.8
v -44.0 -13.2 14.0
v -44.0 -13.6 15.0
v -44.0 -13.8 24.0
v -44.0 -13.0 23.6
v -44.0 -12.0 13.6
v -44.0 -12.0 23.4
v -44.0 -11.4 14.0
v -44.0 -11.0 14.4
v -44.0 -11.5 23.0
v -44.0 -11.0 22.5
v -44.0 -10.6 15.0
v -44.0 -10.5 16.0
v -44.5 -10.0 17.0
v -44.0 -10.3 17.0
v -44.0 -10.0 17.5
v -44.0 -10.5 22.0
v -44.0 -10.0 21.5
v -44.0 -9.7 18.0
v -44.0 -9.5 19.0
v -44.0 -9.5 20.0
v -44.0 -9.6 21.0
v -43.0 -19.0 20.5
v -43.0 -19.4 21.0
v -43.0 -19.5 22.0
v -43.8 -19.0 22.0
v -43.0 -19.9 23.0
v -43.0 -19.2 24.0
v -43.0 -19.0 24.2
v -43.0 -18.0 18.6
v -43.0 -18.3 19.0
v -43.0 -18.6 20.0
v -43.0 -18.7 24.0
v -43.0 -18.0 23.6
v -43.3 -17.0 17.0
v -43.0 -17.0 16.8
v -43.0 -17.2 17.0
v -43.0 -17.6 18.0
v -43.0 -17.0 23.5
v -43.5 -16.0 17.0
v -43.0 -16.0 16.6
v -43.0 -16.0 23.7
v -43.7 -15.0 17.0
v -43.0 -15.0 16.5
v -43.0 -15.5 24.0
v -43.5 -15.0 24.0
v -43.0 -15.0 24.3
v -43.0 -14.0 15.5
v -43.0 -14.5 16.0
v -43.0 -14.0 24.4
v -43.6 -13.0 14.0
v -43.0 -13.0 14.5
v -43.0 -13.4 15.0
v -43.0 -13.5 24.0
v -43.0 -13.0 23.6
v -43.0 -12.0 13.7
v -43.0 -12.4 14.0
v -43.0 -12.0 23.4
v -43.4 -11.0 14.0
v -43.0 -11.0 13.8
v -43.0 -11.5 23.0
v -43.0 -11.0 22.5
v -43.0 -10.7 14.0
v -43.0 -10.5 15.0
v -43.0 -10.5 16.0
v -43.0 -10.5 17.0
v -43.5 -10.0 18.0
v -43.0 -10.3 18.0
v -43.0 -10.0 18.4
v -43.0 -10.5 22.0
v -43.0 -10.0 21.5
v -43.0 -9.6 19.0
v -43.0 -9.5 20.0
v -43.0 -9.6 21.0
v -42.0 -19.0 20.5
v -42.0 -19.4 21.0
v -42.0 -19.5 22.0
v -42.0 -19.5 23.0
v -42.0 -19.1 24.0
v -42.0 -19.0 24.1
v -42.3 -18.0 19.0
v -42.0 -18.0 19.2
v -42.0 -18.5 20.0
v -42.0 -18.8 24.0
v -42.0 -18.0 23.7
v -42.0 -17.0 16.7
v -42.0 -17.3 17.0
v -42.0 -17.6 18.0
v -42.0 -17.9 19.0
v -42.0 -17.0 23.7
v -42.0 -16.0 16.6
v -42.0 -16.5 24.0
v -42.5 -16.0 24.0
v -42.0 -16.0 24.3
v -42.0 -15.0 16.5
v -42.0 -15.0 24.5
v -42.0 -14.0 15.7
v -42.0 -14.4 16.0
v -42.0 -14.0 24.4
v -42.4 -13.0 15.0
v -42.0 -13.0 15.3
v -42.0 -13.5 24.0
v -42.0 -13.0 23.6
v -42.5 -12.0 14.0
v -42.0 -12.0 14.4
v -42.0 -12.7 15.0
v -42.0 -12.0 23.4
v -42.0 -11.0 13.6
v -42.0 -11.5 14.0
v -42.0 -11.5 23.0
v -42.0 -11.0 22.5
v -42.3 -10.0 14.0
v -42.0 -10.0 13.7
v -42.0 -10.0 14.5
v -42.0 -10.3 15.0
v -42.0 -10.5 16.0
v -42.0 -10.5 17.0
v -42.0 -10.4 18.0
v -42.0 -10.0 18.5
v -42.0 -10.4 22.0
v -42.0 -10.0 21.6
v -42.2 -9.0 13.0
v -42.0 -9.0 12.7
v -42.0 -9.3 13.0
v -42.2 -9.0 14.0
v -42.0 -9.0 14.2
v -42.0 -9.6 19.0
v -42.0 -9.5 20.0
v -42.0 -9.5 21.0
v -42.1 -8.0 12.0
v -42.0 -8.0 11.7
v -42.0 -8.2 12.0
v -42.2 -8.0 13.0
v -42.0 -8.0 13.2
v -42.0 -8.8 14.0
v -42.0 -7.9 12.0
v -42.0 -7.8 13.0
v -41.0 -19.0 20.4
v -41.0 -19.4 21.0
v -41.0 -19.5 22.0
v -41.0 -19.4 23.0
v -41.9 -19.0 24.0
v -41.0 -19.0 23.5
v -41.4 -18.0 18.0
v -41.0 -18.0 17.6
v -41.0 -18.3 18.0
v -41.0 -18.4 19.0
v -41.8 -18.0 19.0
v -41.0 -18.7 20.0
v -41.0 -18.4 24.0
v -41.5 -18.0 24.0
v -41.0 -18.0 24.3
v -41.0 -17.0 16.7
v -41.0 -17.4 17.0
v -41.6 -17.0 24.0
v -41.0 -17.0 24.4
v -41.0 -16.2 17.0
v -41.1 -16.0 17.0
v -41.0 -16.0 17.1
v -41.0 -16.0 24.5
v -41.1 -15.0 17.0
v -41.0 -15.0 17.1
v -41.0 -15.0 24.5
v -41.6 -14.0 16.0
v -41.0 -14.0 16.4
v -41.0 -14.9 17.0
v -41.0 -14.0 24.4
v -41.0 -13.0 15.6
v -41.0 -13.5 16.0
v -41.0 -13.5 24.0
v -41.0 -13.0 23.6
v -41.0 -12.0 14.5
v -41.0 -12.5 15.0
v -41.0 -12.0 23.4
v -41.0 -11.0 13.6
v -41.0 -11.5 14.0
v -41.0 -11.4 23.0
v -41.0 -11.0 22.7
v -41.0 -10.0 13.3
v -41.6 -10.0 15.0
v -41.0 -10.0 15.6
v -41.0 -10.3 16.0
v -41.0 -10.4 17.0
v -41.0 -10.2 18.0
v -41.0 -10.0 18.3
v -41.5 -10.0 22.0
v -41.0 -10.0 22.3
v -41.0 -9.0 12.4
v -41.0 -9.6 13.0
v -41.0 -9.5 15.0
v -41.0 -9.0 14.6
v -41.0 -9.6 19.0
v -41.0 -9.3 20.0
v -41.1 -9.0 21.0
v -41.0 -9.0 20.8
v -41.0 -9.0 21.1
v -41.0 -9.7 22.0
v -41.0 -8.0 11.9
v -41.0 -8.2 12.0
v -41.0 -8.4 14.0
v -41.0 -8.0 13.5
v -41.0 -8.9 21.0
v -41.0 -7.9 12.0
v -41.0 -7.7 13.0
v -40.5 -19.0 20.0
v -40.0 -19.0 19.5
v -40.0 -19.3 20.0
v -40.0 -19.4 21.0
v -40.0 -19.4 22.0
v -40.0 -19.2 23.0
v -40.0 -19.0 23.3
v -40.4 -18.0 17.0
v -40.0 -18.0 16.8
v -40.0 -18.3 17.0
v -40.0 -18.6 18.0
v -40.0 -18.7 19.0
v -40.0 -18.4 24.0
v -40.0 -18.0 24.4
v -40.0 -17.0 16.6
v -40.0 -17.0 24.5
v -40.8 -16.0 17.0
v -40.0 -16.0 16.7
v -40.0 -16.0 24.5
v -40.8 -15.0 17.0
v -40.0 -15.0 16.7
v -40.0 -15.0 24.5
v -40.0 -14.0 16.6
v -40.0 -14.0 24.4
v -40.4 -13.0 16.0
v -40.0 -13.0 16.3
v -40.0 -13.5 24.0
v -40.0 -13.0 23.6
v -40.0 -12.0 14.5
v -40.0 -12.4 15.0
v -40.0 -12.7 16.0
v -40.0 -12.0 23.5
v -40.0 -11.0 13.6
v -40.0 -11.4 14.0
v -40.5 -11.0 23.0
v -40.0 -11.0 23.3
v -40.5 -10.0 13.0
v -40.0 -10.0 12.6
v -40.0 -10.4 13.0
v -40.7 -10.0 16.0
v -40.5 -10.0 17.0
v -40.7 -10.0 18.0
v -40.0 -10.6 23.0
v -40.0 -10.0 22.5
v -40.5 -9.0 12.0
v -40.0 -9.0 11.2
v -40.0 -9.4 12.0
v -40.5 -9.0 15.0
v -40.0 -9.0 15.4
v -40.0 -9.5 16.0
v -40.0 -9.6 17.0
v -40.0 -9.6 18.0
v -40.0 -9.4 19.0
v -40.5 -9.0 20.0
v -40.0 -9.0 19.6
v -40.0 -9.5 22.0
v -40.0 -9.0 21.4
v -40.7 -8.0 12.0
v -40.0 -8.4 12.0
v -40.0 -8.0 12.3
v -40.5 -8.0 14.0
v -40.0 -8.0 14.4
v -40.0 -8.5 15.0
v -40.0 -8.7 20.0
v -40.0 -8.6 21.0
v -40.0 -7.6 13.0
v -40.0 -7.7 14.0
v -39.3 -19.0 18.0
v -39.0 -19.0 17.1
v -39.0 -19.2 18.0
v -39.0 -19.2 19.0
v -39.5 -19.0 19.0
v -39.0 -19.2 20.0
v -39.4 -19.0 21.0
v -39.0 -19.0 20.5
v -39.5 -19.0 22.0
v -39.8 -19.0 23.0
v -39.0 -18.0 16.8
v -39.0 -18.9 17.0
v -39.0 -18.7 21.0
v -39.0 -18.5 22.0
v -39.0 -18.0 22.9
v -39.0 -18.0 23.0
v -39.0 -18.2 24.0
v -39.0 -18.0 23.1
v -39.0 -18.0 24.2
v -39.0 -17.6 17.0
v -39.4 -17.0 17.0
v -39.0 -17.0 17.3
v -39.0 -18.0 23.0
v -39.0 -17.0 24.5
v -39.7 -16.0 17.0
v -39.0 -16.0 17.5
v -39.0 -16.0 24.5
v -39.7 -15.0 17.0
v -39.0 -15.0 17.5
v -39.0 -15.0 24.5
v -39.5 -14.0 17.0
v -39.0 -14.0 17.5
v -39.0 -14.0 24.4
v -39.3 -13.0 17.0
v -39.0 -13.0 17.2
v -39.0 -13.5 24.0
v -39.0 -13.0 23.6
v -39.0 -12.0 14.7
v -39.0 -12.2 15.0
v -39.0 -12.5 16.0
v -39.0 -12.8 17.0
v -39.0 -12.0 23.5
v -39.4 -11.0 14.0
v -39.0 -11.0 14.3
v -39.0 -11.0 23.4
v -39.0 -10.0 12.5
v -39.0 -10.4 13.0
v -39.0 -10.8 14.0
v -39.0 -10.5 23.0
v -39.0 -10.0 22.5
v -39.0 -9.0 11.0
v -39.0 -9.5 12.0
v -39.0 -9.2 16.0
v -39.0 -9.0 15.7
v -39.0 -9.5 17.0
v -39.0 -9.5 18.0
v -39.0 -9.4 19.0
v -39.0 -9.0 19.5
v -39.0 -9.5 22.0
v -39.0 -9.0 21.5
v -39.4 -8.0 12.0
v -39.0 -8.0 11.8
v -39.4 -8.0 15.0
v -39.0 -8.0 15.3
v -39.0 -8.6 20.0
v -39.0 -8.6 21.0
v -39.0 -7.9 12.0
v -39.0 -7.5 13.0
v -39.0 -7.5 14.0
v -39.0 -7.8 15.0
v -38.7 -19.0 18.0
v -38.7 -19.0 19.0
v -38.7 -19.0 20.0
v -38.7 -18.0 17.0
v -38.0 -18.0 17.7
v -38.0 -18.3 18.0
v -38.0 -18.5 19.0
v -38.0 -18.6 20.0
v -38.0 -18.5 21.0
v -38.0 -18.3 22.0
v -38.0 -18.0 22.5
v -38.1 -18.0 24.0
v -38.0 -17.0 17.7
v -38.0 -17.7 23.0
v -38.0 -17.9 24.0
v -38.0 -17.0 24.3
v -38.0 -16.5 18.0
v -38.4 -16.0 18.0
v -38.0 -16.0 18.4
v -38.0 -16.0 24.4
v -38.5 -15.0 18.0
v -38.0 -15.0 18.4
v -38.0 -15.0 24.5
v -38.3 -14.0 18.0
v -38.0 -14.0 18.2
v -38.0 -14.0 24.4
v -38.0 -13.0 17.4
v -38.0 -13.7 18.0
v -38.0 -13.5 24.0
v -38.0 -13.0 23.6
v -38.6 -12.0 15.0
v -38.0 -12.0 15.4
v -38.0 -12.4 16.0
v -38.0 -12.6 17.0
v -38.0 -12.0 23.5
v -38.0 -11.0 14.3
v -38.0 -11.6 15.0
v -38.0 -11.0 23.3
v -38.0 -10.0 12.5
v -38.0 -10.5 13.0
v -38.0 -10.8 14.0
v -38.0 -10.6 23.0
v -38.0 -10.0 22.5
v -38.0 -9.0 11.7
v -38.0 -9.4 12.0
v -38.6 -9.0 16.0
v -38.0 -9.0 16.6
v -38.0 -9.3 17.0
v -38.0 -9.5 18.0
v -38.0 -9.3 19.0
v -38.0 -9.0 19.4
v -38.0 -9.5 22.0
v -38.0 -9.0 21.5
v -38.0 -8.6 12.0
v -38.7 -8.0 12.0
v -38.0 -8.0 12.5
v -38.0 -8.5 16.0
v -38.0 -8.0 15.6
v -38.0 -8.6 20.0
v -38.0 -8.6 21.0
v -38.0 -7.7 13.0
v -38.0 -7.5 14.0
v -38.0 -7.6 15.0
v -37.7 -18.0 18.0
v -37.4 -18.0 19.0
v -37.0 -18.0 19.6
v -37.0 -18.3 20.0
v -37.0 -18.3 21.0
v -37.5 -18.0 22.0
v -37.0 -18.0 21.5
v -37.7 -17.0 18.0
v -37.0 -17.0 18.8
v -37.0 -17.3 19.0
v -37.0 -17.7 22.0
v -37.0 -17.5 23.0
v -37.6 -17.0 24.0
v -37.0 -17.0 23.5
v -37.1 -16.0 19.0
v -37.0 -16.4 19.0
v -37.0 -16.0 19.1
v -37.4 -16.0 24.0
v -37.0 -16.0 23.7
v -37.0 -15.0 18.6
v -37.0 -15.8 19.0
v -37.0 -15.5 24.0
v -37.0 -15.0 24.3
v -37.0 -14.0 18.4
v -37.0 -14.0 24.2
v -37.0 -13.0 17.6
v -37.0 -13.4 18.0
v -37.0 -13.7 24.0
v -37.0 -13.0 23.6
v -37.0 -12.0 15.5
v -37.0 -12.4 16.0
v -37.0 -12.6 17.0
v -37.0 -12.0 23.4
v -37.1 -11.0 13.0
v -37.0 -11.0 12.9
v -37.0 -11.1 13.0
v -37.0 -11.4 14.0
v -37.6 -11.0 14.0
v -37.0 -11.6 15.0
v -37.5 -11.0 23.0
v -37.0 -11.4 23.0
v -37.0 -11.0 22.7
v -37.0 -10.0 12.5
v -37.0 -10.0 22.3
v -37.0 -9.0 12.0
v -37.0 -9.0 12.0
v -37.5 -9.0 17.0
v -37.0 -9.0 17.7
v -37.0 -9.2 18.0
v -37.5 -9.0 19.0
v -37.0 -9.0 18.3
v -37.0 -9.7 22.0
v -37.0 -9.0 21.3
v -37.5 -8.0 13.0
v -37.0 -8.4 13.0
v -37.0 -8.0 13.5
v -37.3 -8.0 16.0
v -37.0 -8.0 16.2
v -37.0 -8.6 17.0
v -37.0 -8.7 19.0
v -37.0 -8.5 20.0
v -37.0 -8.7 21.0
v -37.0 -7.7 14.0
v -37.0 -7.6 15.0
v -37.0 -7.9 16.0
v -36.7 -18.0 20.0
v -36.6 -18.0 21.0
v -36.8 -17.0 19.0
v -36.0 -17.0 19.7
v -36.0 -17.3 20.0
v -36.0 -17.5 21.0
v -36.0 -17.5 22.0
v -36.0 -17.6 23.0
v -36.0 -17.0 23.3
v -36.0 -16.0 19.5
v -36.0 -16.0 23.4
v -36.0 -15.0 18.7
v -36.0 -15.4 19.0
v -36.6 -15.0 24.0
v -36.0 -15.0 23.6
v -36.0 -14.0 18.5
v -36.7 -14.0 24.0
v -36.0 -14.0 23.6
v -36.2 -13.0 18.0
v -36.0 -13.0 18.1
v -36.0 -13.0 23.5
v -36.0 -12.0 15.5
v -36.0 -12.4 16.0
v -36.0 -12.5 17.0
v -36.0 -12.9 18.0
v -36.0 -12.0 23.3
v -36.9 -11.0 13.0
v -36.0 -11.0 13.5
v -36.0 -11.4 14.0
v -36.0 -11.6 15.0
v -36.0 -11.6 23.0
v -36.0 -11.0 22.5
v -36.0 -10.0 12.8
v -36.0 -10.3 13.0
v -36.5 -10.0 22.0
v -36.0 -10.4 22.0
v -36.0 -10.0 21.6
v -36.0 -9.7 13.0
v -36.4 -9.0 13.0
v -36.0 -9.0 13.5
v -36.8 -9.0 18.0
v -36.5 -9.0 21.0
v -36.0 -9.4 21.0
v -36.0 -9.0 20.6
v -36.6 -8.0 14.0
v -36.0 -8.5 14.0
v -36.0 -8.0 14.8
v -36.7 -8.0 16.0
v -36.0 -8.3 16.0
v -36.0 -8.0 15.3
v -36.0 -8.5 17.0
v -36.0 -8.6 18.0
v -36.0 -8.5 19.0
v -36.0 -8.6 20.0
v -36.0 -7.9 15.0
v -35.7 -17.0 20.0
v -35.5 -17.0 21.0
v -35.5 -17.0 22.0
v -35.7 -17.0 23.0
v -35.4 -16.0 20.0
v -35.0 -16.0 20.4
v -35.0 -16.5 21.0
v -35.0 -16.4 22.0
v -35.0 -16.0 22.5
v -35.4 -16.0 23.0
v -35.5 -15.0 19.0
v -35.0 -15.0 19.3
v -35.0 -15.7 20.0
v -35.0 -15.4 23.0
v -35.0 -15.0 23.3
v -35.0 -14.0 18.3
v -35.0 -14.7 19.0
v -35.0 -14.0 23.4
v -35.8 -13.0 18.0
v -35.0 -13.0 17.4
v -35.0 -13.6 18.0
v -35.0 -13.0 23.3
v -35.0 -12.0 15.3
v -35.0 -12.6 16.0
v -35.0 -12.8 17.0
v -35.6 -12.0 23.0
v -35.0 -12.6 23.0
v -35.0 -12.0 22.6
v -35.0 -11.0 13.5
v -35.0 -11.5 14.0
v -35.0 -11.8 15.0
v -35.0 -11.0 22.3
v -35.8 -10.0 13.0
v -35.0 -10.0 13.6
v -35.0 -10.7 22.0
v -35.0 -10.0 21.4
v -35.5 -9.0 14.0
v -35.0 -9.5 14.0
v -35.0 -9.0 14.5
v -35.0 -9.6 21.0
v -35.0 -9.0 20.3
v -35.8 -8.0 15.0
v -35.0 -8.6 15.0
v -35.0 -8.5 16.0
v -35.0 -8.5 17.0
v -35.0 -8.5 18.0
v -35.0 -8.5 19.0
v -35.0 -8.7 20.0
v -34.0 -16.0 20.9
v -34.0 -16.1 21.0
v -34.5 -16.0 22.0
v -34.0 -16.0 21.1
v -34.0 -15.0 13.0
v -34.0 -15.0 12.9
v -34.0 -15.1 13.0
v -34.0 -15.7 14.0
v -34.4 -15.0 14.0
v -34.0 -15.5 15.0
v -34.4 -15.0 15.0
v -34.0 -15.4 16.0
v -34.4 -15.0 16.0
v -34.0 -15.4 17.0
v -34.3 -15.0 17.0
v -34.0 -15.1 18.0
v -34.1 -15.0 18.0
v -34.0 -15.0 18.2
v -34.0 -15.0 19.6
v -34.0 -15.3 20.0
v -34.0 -15.4 22.0
v -34.7 -15.0 23.0
v -34.0 -15.0 22.3
v -34.4 -14.0 13.0
v -34.0 -14.0 12.1
v -34.5 -14.0 14.0
v -34.5 -14.0 15.0
v -34.5 -14.0 16.0
v -34.5 -14.0 17.0
v -34.7 -14.0 18.0
v -34.0 -14.7 19.0
v -34.5 -14.0 23.0
v -34.0 -14.0 22.5
v -34.4 -13.0 13.0
v -34.0 -13.0 12.1
v -34.5 -13.0 14.0
v -34.5 -13.0 15.0
v -34.6 -13.0 16.0
v -34.8 -13.0 17.0
v -34.7 -13.0 23.0
v -34.0 -13.0 22.3
v -34.1 -12.0 10.0
v -34.0 -12.0 9.7
v -34.0 -12.1 10.0
v -34.0 -12.8 11.0
v -34.3 -12.0 11.0
v -34.0 -12.9 12.0
v -34.4 -12.0 12.0
v -34.5 -12.0 13.0
v -34.6 -12.0 14.0
v -34.8 -12.0 15.0
v -34.4 -12.0 22.0
v -34.0 -12.5 22.0
v -34.0 -12.0 21.6
v -34.0 -11.9 10.0
v -34.0 -11.6 11.0
v -34.2 -11.0 12.0
v -34.0 -11.0 11.7
v -34.5 -11.0 13.0
v -34.7 -11.0 22.0
v -34.0 -11.0 21.3
v -34.0 -10.8 12.0
v -34.0 -10.6 13.0
v -34.0 -10.2 14.0
v -34.3 -10.0 14.0
v -34.0 -10.0 14.2
v -34.6 -10.0 21.0
v -34.0 -10.6 21.0
v -34.0 -10.0 20.5
v -34.3 -9.0 15.0
v -34.0 -9.2 15.0
v -34.0 -9.0 15.3
v -34.6 -9.0 20.0
v -34.0 -9.5 20.0
v -34.0 -9.0 19.4
v -34.0 -8.6 16.0
v -34.0 -8.4 17.0
v -34.0 -8.4 18.0
v -34.0 -8.7 19.0
v -33.9 -16.0 21.0
v -33.9 -15.0 13.0
v -33.5 -15.0 14.0
v -33.0 -15.0 14.6
v -33.0 -15.3 15.0
v -33.0 -15.4 16.0
v -33.0 -15.7 17.0
v -33.8 -15.0 18.0
v -33.0 -15.0 17.5
v -33.7 -15.0 20.0
v -33.5 -15.0 21.0
v -33.7 -15.0 22.0
v -33.0 -14.0 12.6
v -33.0 -14.3 13.0
v -33.0 -14.6 14.0
v -33.0 -14.6 18.0
v -33.0 -14.2 19.0
v -33.4 -14.0 20.0
v -33.0 -14.0 19.3
v -33.5 -14.0 21.0
v -33.6 -14.0 22.0
v -33.8 -13.0 12.0
v -33.0 -13.0 11.7
v -33.0 -13.3 12.0
v -33.4 -13.0 20.0
v -33.0 -13.0 19.5
v -33.5 -13.0 21.0
v -33.7 -13.0 22.0
v -33.3 -12.0 10.0
v -33.0 -12.0 10.1
v -33.0 -12.4 11.0
v -33.4 -12.0 20.0
v -33.0 -12.0 19.5
v -33.6 -12.0 21.0
v -33.0 -11.7 11.0
v -33.0 -11.0 11.6
v -33.4 -11.0 20.0
v -33.0 -11.0 19.5
v -33.7 -11.0 21.0
v -33.0 -10.6 12.0
v -33.0 -10.3 13.0
v -33.7 -10.0 14.0
v -33.0 -10.0 13.5
v -33.6 -10.0 20.0
v -33.0 -10.0 19.3
v -33.0 -9.6 14.0
v -33.4 -9.0 15.0
v -33.0 -9.0 14.8
v -33.5 -9.0 19.0
v -33.0 -9.6 19.0
v -33.0 -9.0 18.5
v -33.0 -8.9 15.0
v -33.0 -8.5 16.0
v -33.0 -8.0 17.0
v -33.0 -8.0 17.0
v -33.0 -8.0 17.4
v -33.0 -8.1 18.0
v -33.0 -8.0 17.0
v -32.8 -15.0 15.0
v -32.6 -15.0 16.0
v -32.7 -15.0 17.0
v -32.7 -14.0 13.0
v -32.6 -14.0 14.0
v -32.5 -14.0 15.0
v -32.5 -14.0 16.0
v -32.5 -14.0 17.0
v -32.6 -14.0 18.0
v -32.8 -14.0 19.0
v -32.8 -13.0 12.0
v -32.5 -13.0 13.0
v -32.4 -13.0 14.0
v -32.4 -13.0 15.0
v -32.5 -13.0 16.0
v -32.5 -13.0 17.0
v -32.5 -13.0 18.0
v -32.6 -13.0 19.0
v -32.8 -12.0 11.0
v -32.5 -12.0 12.0
v -32.3 -12.0 13.0
v -32.0 -12.0 13.5
v -32.0 -12.4 14.0
v -32.0 -12.4 15.0
v -32.0 -12.0 15.5
v -32.3 -12.0 16.0
v -32.4 -12.0 17.0
v -32.5 -12.0 18.0
v -32.6 -12.0 19.0
v -32.0 -11.0 12.0
v -32.0 -11.0 12.0
v -32.0 -11.6 13.0
v -32.0 -11.6 16.0
v -32.0 -11.3 17.0
v -32.0 -11.0 17.3
v -32.4 -11.0 18.0
v -32.6 -11.0 19.0
v -32.0 -11.0 12.0
v -32.1 -10.0 13.0
v -32.0 -10.0 12.9
v -32.4 -10.0 18.0
v -32.0 -10.0 17.4
v -32.7 -10.0 19.0
v -32.0 -9.9 13.0
v -32.0 -9.7 14.0
v -32.7 -9.0 15.0
v -32.0 -9.5 15.0
v -32.0 -9.0 15.8
v -32.3 -9.0 17.0
v -32.0 -9.5 17.0
v -32.0 -9.0 16.2
v -32.6 -9.0 18.0
v -32.0 -8.9 16.0
v -33.0 -8.0 17.0
v -31.7 -12.0 14.0
v -31.7 -12.0 15.0
v -32.0 -11.0 12.0
v -31.7 -11.0 13.0
v -31.5 -11.0 14.0
v -31.5 -11.0 15.0
v -31.6 -11.0 16.0
v -31.8 -11.0 17.0
v -31.9 -10.0 13.0
v -31.7 -10.0 14.0
v -31.6 -10.0 15.0
v -31.5 -10.0 16.0
v -31.7 -10.0 17.0
v -31.9 -9.0 16.0
f 3 2 1
f 5 4 1
f 1 4 3
f 5 6 4
f 1 2 7
f 7 2 8
f 1 9 5
f 1 7 9
f 6 5 10
f 10 5 9
f 8 11 7
f 7 11 9
f 9 11 12
f 9 12 10
f 13 2 3
f 13 3 14
f 3 15 14
f 3 4 15
f 4 6 15
f 15 6 16
f 18 17 13
f 17 2 13
f 17 8 2
f 18 13 14
f 10 16 6
f 10 19 16
f 17 20 8
f 8 20 11
f 11 21 12
f 20 21 11
f 10 12 19
f 19 12 21
f 24 23 22
f 22 25 24
f 27 26 15
f 15 26 14
f 28 22 16
f 22 27 16
f 27 15 16
f 22 23 27
f 25 22 29
f 29 22 28
f 31 30 18
f 18 30 17
f 18 14 26
f 18 26 31
f 33 32 28
f 16 33 28
f 19 33 16
f 28 32 29
f 20 17 34
f 17 35 34
f 17 30 35
f 20 34 36
f 37 20 36
f 21 20 37
f 19 21 33
f 33 21 37
f 35 38 34
f 34 38 36
f 41 40 39
f 43 42 39
f 39 42 41
f 43 44 42
f 39 40 45
f 45 40 46
f 39 47 43
f 39 45 47
f 44 43 48
f 48 43 47
f 45 46 49
f 49 46 50
f 45 51 47
f 45 49 51
f 48 47 52
f 52 47 51
f 49 50 24
f 50 23 24
f 50 53 23
f 49 24 25
f 54 49 25
f 51 49 54
f 52 51 55
f 55 51 54
f 57 56 27
f 27 56 26
f 27 23 53
f 27 53 57
f 59 58 54
f 25 59 54
f 29 59 25
f 54 58 55
f 61 60 31
f 31 60 30
f 31 26 56
f 31 56 61
f 33 62 32
f 62 63 32
f 63 29 32
f 63 59 29
f 60 35 30
f 64 35 60
f 66 65 37
f 66 37 36
f 33 37 62
f 37 67 62
f 37 65 67
f 62 67 63
f 64 68 35
f 35 68 38
f 36 38 66
f 66 38 68
f 71 70 69
f 73 72 69
f 69 72 71
f 75 74 73
f 73 74 72
f 75 76 74
f 70 77 69
f 78 40 41
f 69 78 41
f 73 69 41
f 77 78 69
f 73 41 42
f 73 42 75
f 42 44 75
f 44 76 75
f 44 79 76
f 78 46 40
f 80 46 78
f 48 82 81
f 79 48 81
f 44 48 79
f 82 83 81
f 80 50 46
f 84 50 80
f 52 85 82
f 52 82 48
f 83 82 86
f 86 82 85
f 89 88 87
f 84 89 87
f 53 84 87
f 50 84 53
f 91 90 85
f 52 91 85
f 55 91 52
f 85 90 86
f 87 88 57
f 88 56 57
f 88 92 56
f 87 57 53
f 59 93 58
f 93 94 58
f 94 55 58
f 94 91 55
f 96 95 61
f 61 95 60
f 61 56 92
f 61 92 96
f 98 97 93
f 59 98 93
f 63 98 59
f 93 97 94
f 95 64 60
f 99 64 95
f 66 100 65
f 65 100 101
f 102 65 101
f 67 65 102
f 63 67 98
f 98 67 102
f 99 103 64
f 64 103 68
f 66 68 100
f 68 104 100
f 68 103 104
f 100 104 101
f 107 106 105
f 105 108 107
f 111 110 109
f 111 109 106
f 106 109 105
f 109 70 105
f 70 71 105
f 112 108 105
f 71 112 105
f 72 112 71
f 113 72 74
f 113 112 72
f 74 76 113
f 113 76 114
f 109 110 115
f 115 110 116
f 117 77 70
f 109 117 70
f 115 117 109
f 117 78 77
f 79 119 118
f 114 79 118
f 76 79 114
f 119 120 118
f 115 116 121
f 121 116 122
f 115 123 117
f 115 121 123
f 123 80 78
f 123 78 117
f 81 119 79
f 81 83 119
f 83 120 119
f 83 124 120
f 121 122 125
f 125 122 126
f 121 127 123
f 121 125 127
f 127 84 80
f 127 80 123
f 86 124 83
f 86 128 124
f 125 126 129
f 129 126 130
f 129 88 89
f 127 129 89
f 125 129 127
f 127 89 84
f 132 131 90
f 132 90 91
f 86 90 128
f 128 90 131
f 129 130 133
f 133 130 134
f 133 92 88
f 133 88 129
f 94 132 91
f 94 135 132
f 133 134 96
f 134 95 96
f 134 136 95
f 133 96 92
f 138 137 97
f 138 97 98
f 94 97 135
f 135 97 137
f 140 99 139
f 99 136 139
f 99 95 136
f 141 140 139
f 101 142 102
f 142 143 102
f 143 98 102
f 143 138 98
f 140 103 99
f 141 144 140
f 144 103 140
f 144 104 103
f 101 104 142
f 104 145 142
f 104 144 145
f 142 145 143
f 147 146 107
f 107 146 106
f 149 148 108
f 148 107 108
f 148 147 107
f 151 150 149
f 149 150 148
f 153 152 151
f 151 152 150
f 153 154 152
f 157 156 155
f 110 111 155
f 111 157 155
f 111 158 157
f 111 106 146
f 111 146 158
f 112 149 108
f 149 112 113
f 149 113 151
f 151 113 114
f 159 151 114
f 153 151 159
f 154 153 160
f 160 153 159
f 156 161 155
f 110 155 161
f 162 110 161
f 116 110 162
f 118 159 114
f 118 120 159
f 120 160 159
f 120 163 160
f 166 165 164
f 162 166 164
f 122 162 164
f 116 162 122
f 124 163 120
f 124 167 163
f 164 165 168
f 168 165 169
f 168 126 122
f 168 122 164
f 128 171 170
f 167 128 170
f 124 128 167
f 171 172 170
f 175 174 173
f 175 173 169
f 173 168 169
f 173 176 168
f 176 130 126
f 176 126 168
f 132 177 131
f 177 178 131
f 131 178 128
f 178 179 128
f 179 171 128
f 171 179 172
f 174 180 173
f 182 181 180
f 181 173 180
f 181 176 173
f 181 134 130
f 181 130 176
f 184 183 177
f 132 184 177
f 135 184 132
f 177 183 178
f 182 185 181
f 134 181 185
f 186 134 185
f 136 134 186
f 138 187 137
f 187 188 137
f 188 135 137
f 188 184 135
f 186 189 136
f 136 189 139
f 191 190 141
f 139 191 141
f 189 191 139
f 192 190 191
f 194 193 187
f 138 194 187
f 143 194 138
f 187 193 188
f 190 144 141
f 192 195 190
f 195 144 190
f 195 145 144
f 143 145 194
f 194 145 195
f 198 197 196
f 200 199 196
f 196 199 198
f 202 201 200
f 200 201 199
f 202 203 201
f 206 205 204
f 146 147 204
f 147 206 204
f 147 207 206
f 148 196 197
f 207 148 197
f 147 148 207
f 196 148 150
f 196 150 200
f 200 150 152
f 200 152 202
f 152 154 202
f 154 203 202
f 154 208 203
f 210 209 157
f 157 209 156
f 158 204 205
f 210 158 205
f 157 158 210
f 204 158 146
f 160 208 154
f 160 211 208
f 209 212 156
f 156 212 161
f 162 161 212
f 162 212 213
f 163 215 214
f 211 163 214
f 160 163 211
f 215 216 214
f 218 217 166
f 166 217 165
f 166 162 213
f 166 213 218
f 167 219 215
f 167 215 163
f 216 215 220
f 220 215 219
f 223 222 221
f 217 223 221
f 169 217 221
f 165 217 169
f 170 219 167
f 170 172 219
f 172 220 219
f 172 224 220
f 227 226 225
f 227 225 222
f 222 225 221
f 225 174 221
f 174 175 221
f 221 175 169
f 229 228 179
f 229 179 178
f 172 179 224
f 224 179 228
f 226 230 225
f 230 232 231
f 230 231 180
f 225 230 180
f 174 225 180
f 231 182 180
f 184 233 183
f 233 234 183
f 234 178 183
f 234 229 178
f 232 235 231
f 235 237 236
f 235 236 185
f 231 235 185
f 182 231 185
f 236 186 185
f 239 238 233
f 184 239 233
f 188 239 184
f 233 238 234
f 237 240 236
f 236 240 186
f 240 189 186
f 240 241 189
f 189 242 191
f 241 242 189
f 244 243 192
f 191 244 192
f 242 244 191
f 193 194 243
f 244 193 243
f 245 193 244
f 188 193 239
f 239 193 245
f 243 195 192
f 195 243 194
f 248 247 246
f 197 198 246
f 198 248 246
f 198 249 248
f 250 198 199
f 250 249 198
f 251 199 201
f 251 250 199
f 201 203 251
f 251 203 252
f 254 253 206
f 206 253 205
f 207 246 247
f 254 207 247
f 206 207 254
f 246 207 197
f 208 256 255
f 252 208 255
f 203 208 252
f 256 257 255
f 258 209 210
f 259 258 210
f 205 259 210
f 253 259 205
f 211 260 256
f 211 256 208
f 257 256 261
f 261 256 260
f 258 212 209
f 213 212 258
f 259 213 258
f 262 213 259
f 214 260 211
f 214 216 260
f 216 261 260
f 216 263 261
f 265 264 218
f 218 264 217
f 218 213 262
f 218 262 265
f 220 263 216
f 220 266 263
f 269 268 267
f 271 270 267
f 267 270 269
f 222 223 271
f 223 270 271
f 223 272 270
f 223 217 264
f 223 264 272
f 224 266 220
f 224 273 266
f 268 274 267
f 275 226 227
f 267 275 227
f 271 267 227
f 274 275 267
f 271 227 222
f 229 276 228
f 276 277 228
f 277 224 228
f 277 273 224
f 230 226 278
f 226 279 278
f 226 275 279
f 278 232 230
f 281 280 276
f 229 281 276
f 234 281 229
f 276 280 277
f 279 282 278
f 278 282 232
f 282 235 232
f 282 283 235
f 237 235 283
f 237 283 284
f 286 285 238
f 286 238 239
f 234 238 281
f 281 238 285
f 284 287 237
f 237 287 240
f 240 288 241
f 287 288 240
f 241 289 242
f 288 289 241
f 242 290 244
f 289 290 242
f 244 291 245
f 290 291 244
f 239 245 286
f 286 245 291
f 294 293 292
f 292 295 294
f 297 296 248
f 248 296 247
f 298 248 249
f 298 297 248
f 299 249 250
f 299 298 249
f 300 250 251
f 300 299 250
f 301 292 252
f 292 300 252
f 300 251 252
f 292 293 300
f 295 292 302
f 302 292 301
f 304 303 254
f 254 303 253
f 254 247 296
f 254 296 304
f 255 301 252
f 255 257 301
f 257 302 301
f 257 305 302
f 303 259 253
f 306 259 303
f 261 305 257
f 261 307 305
f 306 262 259
f 308 262 306
f 263 307 261
f 263 309 307
f 311 310 265
f 265 310 264
f 265 262 308
f 265 308 311
f 266 309 263
f 266 312 309
f 314 313 269
f 269 313 268
f 315 269 270
f 315 314 269
f 316 270 272
f 316 315 270
f 272 264 310
f 272 310 316
f 273 312 266
f 273 317 312
f 274 268 318
f 268 319 318
f 268 313 319
f 318 275 274
f 277 317 273
f 277 320 317
f 319 321 318
f 275 318 321
f 322 275 321
f 279 275 322
f 324 323 280
f 324 280 281
f 277 280 320
f 320 280 323
f 322 325 279
f 279 325 282
f 282 326 283
f 325 326 282
f 284 283 326
f 284 326 327
f 329 328 285
f 329 285 286
f 281 285 324
f 324 285 328
f 327 330 284
f 284 330 287
f 287 331 288
f 330 331 287
f 288 332 289
f 331 332 288
f 289 333 290
f 332 333 289
f 290 334 291
f 333 334 290
f 286 291 329
f 329 291 334
f 337 336 335
f 335 338 337
f 340 339 294
f 294 339 293
f 342 341 295
f 341 294 295
f 341 340 294
f 342 343 341
f 345 344 297
f 297 344 296
f 346 297 298
f 346 345 297
f 299 335 336
f 346 299 336
f 298 299 346
f 347 338 335
f 299 347 335
f 300 347 299
f 300 293 339
f 300 339 347
f 349 348 342
f 295 349 342
f 302 349 295
f 342 348 343
f 351 350 304
f 304 350 303
f 304 296 344
f 304 344 351
f 305 349 302
f 305 352 349
f 350 306 303
f 353 306 350
f 307 352 305
f 307 354 352
f 353 308 306
f 355 308 353
f 309 354 307
f 309 356 354
f 359 358 357
f 310 311 357
f 311 359 357
f 311 360 359
f 311 308 355
f 311 355 360
f 312 362 361
f 356 312 361
f 309 312 356
f 362 363 361
f 365 364 314
f 314 364 313
f 366 314 315
f 366 365 314
f 316 357 358
f 366 316 358
f 315 316 366
f 357 316 310
f 368 367 362
f 312 368 362
f 317 368 312
f 362 367 363
f 364 319 313
f 369 319 364
f 320 368 317
f 320 370 368
f 369 371 319
f 319 371 321
f 322 321 371
f 322 371 372
f 374 373 323
f 374 323 324
f 320 323 370
f 370 323 373
f 372 375 322
f 322 375 325
f 325 376 326
f 375 376 325
f 378 377 327
f 326 378 327
f 376 378 326
f 379 377 378
f 381 380 328
f 381 328 329
f 324 328 374
f 374 328 380
f 377 330 327
f 379 382 377
f 382 330 377
f 382 331 330
f 331 383 332
f 382 383 331
f 332 384 333
f 383 384 332
f 333 385 334
f 384 385 333
f 329 334 381
f 381 334 385
f 387 386 337
f 337 386 336
f 389 388 338
f 388 337 338
f 388 387 337
f 339 340 389
f 340 388 389
f 340 390 388
f 391 340 341
f 391 390 340
f 341 343 391
f 391 343 392
f 394 393 345
f 345 393 344
f 395 345 346
f 395 394 345
f 346 336 386
f 346 386 395
f 347 389 338
f 389 347 339
f 397 396 348
f 397 348 349
f 343 348 392
f 392 348 396
f 400 399 398
f 350 351 398
f 351 400 398
f 351 401 400
f 351 344 393
f 351 393 401
f 352 397 349
f 352 402 397
f 398 399 403
f 403 399 404
f 403 353 350
f 403 350 398
f 354 402 352
f 354 405 402
f 403 404 406
f 406 404 407
f 406 355 353
f 406 353 403
f 356 409 408
f 405 356 408
f 354 356 405
f 409 410 408
f 412 411 359
f 359 411 358
f 360 406 407
f 412 360 407
f 359 360 412
f 406 360 355
f 361 409 356
f 361 363 409
f 363 410 409
f 363 413 410
f 414 364 365
f 414 365 415
f 365 416 415
f 365 366 416
f 366 358 411
f 366 411 416
f 418 417 367
f 418 367 368
f 363 367 413
f 413 367 417
f 420 419 414
f 419 364 414
f 419 369 364
f 420 414 415
f 370 418 368
f 370 421 418
f 371 369 422
f 369 423 422
f 369 419 423
f 422 372 371
f 425 424 373
f 425 373 374
f 370 373 421
f 421 373 424
f 423 426 422
f 422 426 372
f 426 375 372
f 426 427 375
f 375 428 376
f 427 428 375
f 376 429 378
f 428 429 376
f 431 430 379
f 378 431 379
f 429 431 378
f 432 430 431
f 434 433 380
f 434 380 381
f 374 380 425
f 425 380 433
f 430 382 379
f 432 435 430
f 435 382 430
f 435 383 382
f 383 436 384
f 435 436 383
f 384 437 385
f 436 437 384
f 381 385 434
f 434 385 437
f 439 438 387
f 387 438 386
f 440 387 388
f 440 439 387
f 441 388 390
f 441 440 388
f 442 390 391
f 442 441 390
f 391 392 442
f 442 392 443
f 444 393 394
f 444 394 445
f 394 446 445
f 394 395 446
f 395 386 438
f 395 438 446
f 448 447 396
f 448 396 397
f 392 396 443
f 443 396 447
f 450 449 400
f 400 449 399
f 451 400 401
f 451 450 400
f 401 393 444
f 452 401 444
f 451 401 452
f 452 444 445
f 402 448 397
f 402 453 448
f 449 404 399
f 454 404 449
f 405 456 455
f 453 405 455
f 402 405 453
f 456 457 455
f 454 407 404
f 458 407 454
f 408 456 405
f 408 410 456
f 410 457 456
f 410 459 457
f 461 460 412
f 412 460 411
f 412 407 458
f 412 458 461
f 413 459 410
f 413 462 459
f 463 415 416
f 464 463 416
f 411 464 416
f 460 464 411
f 466 465 417
f 466 417 418
f 413 417 462
f 462 417 465
f 467 419 420
f 468 467 420
f 468 420 415
f 469 468 415
f 463 469 415
f 469 463 464
f 421 466 418
f 421 470 466
f 472 471 467
f 471 419 467
f 471 423 419
f 472 467 468
f 474 473 424
f 474 424 425
f 421 424 470
f 470 424 473
f 426 423 475
f 423 476 475
f 423 471 476
f 426 475 477
f 478 426 477
f 427 426 478
f 427 479 428
f 478 479 427
f 428 480 429
f 479 480 428
f 429 481 431
f 480 481 429
f 432 431 481
f 432 481 482
f 484 483 433
f 484 433 434
f 425 433 474
f 474 433 483
f 487 486 485
f 487 485 476
f 485 475 476
f 485 488 475
f 477 475 489
f 489 475 488
f 482 490 432
f 432 490 435
f 435 491 436
f 490 491 435
f 436 492 437
f 491 492 436
f 434 437 484
f 484 437 492
f 495 494 493
f 495 493 486
f 493 485 486
f 493 496 485
f 498 488 497
f 488 496 497
f 488 485 496
f 488 498 489
f 494 499 493
f 493 499 496
f 496 499 500
f 496 500 497
f 502 501 439
f 439 501 438
f 503 439 440
f 503 502 439
f 504 440 441
f 504 503 440
f 506 504 505
f 504 442 505
f 504 441 442
f 443 505 442
f 509 508 507
f 511 510 507
f 507 510 509
f 445 446 511
f 446 510 511
f 446 512 510
f 446 438 501
f 446 501 512
f 506 514 513
f 506 448 514
f 506 505 447
f 448 506 447
f 505 443 447
f 515 513 514
f 517 516 450
f 450 516 449
f 451 507 508
f 517 451 508
f 450 451 517
f 507 451 452
f 507 452 511
f 511 452 445
f 453 518 514
f 453 514 448
f 515 514 519
f 519 514 518
f 521 454 520
f 454 516 520
f 454 449 516
f 522 521 520
f 455 518 453
f 455 457 518
f 457 519 518
f 457 523 519
f 524 458 521
f 521 458 454
f 521 522 525
f 521 525 524
f 459 523 457
f 459 526 523
f 527 460 461
f 528 527 461
f 528 461 458
f 529 528 458
f 524 529 458
f 529 524 525
f 462 526 459
f 462 530 526
f 532 531 527
f 531 460 527
f 531 464 460
f 532 527 528
f 534 533 465
f 534 465 466
f 462 465 530
f 530 465 533
f 536 535 469
f 469 535 468
f 469 464 531
f 469 531 536
f 470 534 466
f 470 537 534
f 539 538 472
f 472 538 471
f 472 468 535
f 472 535 539
f 541 540 473
f 541 473 474
f 470 473 537
f 537 473 540
f 538 476 471
f 542 476 538
f 477 543 478
f 478 543 544
f 545 478 544
f 479 478 545
f 479 546 480
f 545 546 479
f 480 547 481
f 546 547 480
f 482 481 547
f 482 547 548
f 484 549 483
f 549 550 483
f 550 474 483
f 550 541 474
f 552 551 487
f 487 551 486
f 487 476 542
f 487 542 552
f 554 553 543
f 477 554 543
f 489 554 477
f 543 553 544
f 548 555 482
f 482 555 490
f 490 556 491
f 555 556 490
f 556 558 557
f 492 556 557
f 491 556 492
f 557 559 492
f 492 559 484
f 559 560 484
f 560 549 484
f 549 560 550
f 562 561 495
f 495 561 494
f 495 486 551
f 495 551 562
f 564 563 498
f 564 498 497
f 489 498 554
f 554 498 563
f 558 565 557
f 557 565 559
f 561 566 494
f 494 566 499
f 499 567 500
f 566 567 499
f 497 500 564
f 564 500 567
f 570 569 568
f 501 502 568
f 502 570 568
f 502 571 570
f 572 502 503
f 572 571 502
f 573 503 504
f 573 572 503
f 504 506 573
f 573 506 574
f 577 576 575
f 508 509 575
f 509 577 575
f 509 578 577
f 579 509 510
f 579 578 509
f 512 568 569
f 579 512 569
f 510 512 579
f 568 512 501
f 580 574 506
f 580 506 513
f 513 515 580
f 580 515 581
f 575 576 517
f 576 516 517
f 576 582 516
f 575 517 508
f 519 581 515
f 519 583 581
f 520 516 584
f 516 585 584
f 516 582 585
f 584 522 520
f 523 583 519
f 523 586 583
f 584 585 587
f 587 585 588
f 587 525 522
f 587 522 584
f 526 586 523
f 526 589 586
f 587 588 529
f 588 528 529
f 588 590 528
f 587 529 525
f 530 589 526
f 530 591 589
f 592 531 532
f 593 592 532
f 528 593 532
f 590 593 528
f 595 594 533
f 595 533 534
f 530 533 591
f 591 533 594
f 597 596 536
f 536 596 535
f 536 531 592
f 598 536 592
f 597 536 598
f 598 592 593
f 537 595 534
f 537 599 595
f 601 600 539
f 539 600 538
f 539 535 596
f 539 596 601
f 541 602 540
f 602 603 540
f 603 537 540
f 603 599 537
f 606 605 604
f 600 606 604
f 542 600 604
f 538 600 542
f 544 607 545
f 608 546 545
f 608 545 607
f 609 547 546
f 609 546 608
f 609 548 547
f 611 610 602
f 541 611 602
f 550 611 541
f 602 610 603
f 614 613 612
f 614 612 605
f 605 612 604
f 612 551 604
f 551 552 604
f 604 552 542
f 554 615 553
f 615 616 553
f 553 616 544
f 616 617 544
f 617 607 544
f 607 617 608
f 608 617 618
f 608 618 609
f 609 618 619
f 609 619 548
f 619 555 548
f 619 620 555
f 620 622 621
f 556 620 621
f 555 620 556
f 621 558 556
f 624 623 560
f 624 560 559
f 550 560 611
f 611 560 623
f 625 561 562
f 613 626 612
f 627 612 626
f 627 551 612
f 627 625 562
f 551 627 562
f 564 628 563
f 628 629 563
f 563 629 554
f 629 630 554
f 630 615 554
f 615 630 616
f 622 631 621
f 621 631 558
f 631 565 558
f 631 632 565
f 559 565 624
f 624 565 632
f 625 566 561
f 627 633 625
f 633 566 625
f 633 567 566
f 564 567 628
f 567 634 628
f 567 633 634
f 628 634 629
f 637 636 635
f 639 638 635
f 635 638 637
f 569 570 639
f 570 638 639
f 570 640 638
f 642 640 641
f 640 571 641
f 640 570 571
f 572 643 571
f 571 643 641
f 573 644 572
f 572 644 643
f 574 644 573
f 646 645 577
f 577 645 576
f 578 635 636
f 646 578 636
f 577 578 646
f 635 578 579
f 635 579 639
f 639 579 569
f 647 642 641
f 647 641 643
f 647 643 648
f 650 649 648
f 643 650 648
f 644 650 643
f 650 644 574
f 651 650 574
f 580 651 574
f 652 650 651
f 580 581 651
f 651 581 653
f 655 582 654
f 582 645 654
f 582 576 645
f 656 655 654
f 657 649 650
f 657 650 652
f 583 653 581
f 583 658 653
f 659 585 655
f 655 585 582
f 655 656 660
f 655 660 659
f 586 658 583
f 586 661 658
f 662 588 659
f 659 588 585
f 659 660 663
f 659 663 662
f 589 661 586
f 589 664 661
f 665 590 662
f 662 590 588
f 662 663 666
f 662 666 665
f 591 664 589
f 591 667 664
f 668 593 665
f 665 593 590
f 665 666 669
f 665 669 668
f 671 670 594
f 671 594 595
f 591 594 667
f 667 594 670
f 673 672 597
f 597 672 596
f 674 597 598
f 674 673 597
f 598 593 668
f 675 598 668
f 674 598 675
f 675 668 669
f 599 671 595
f 599 676 671
f 677 600 601
f 678 677 601
f 596 678 601
f 672 678 596
f 603 676 599
f 603 679 676
f 681 680 606
f 606 680 605
f 606 600 677
f 682 606 677
f 681 606 682
f 682 677 678
f 684 683 610
f 684 610 611
f 603 610 679
f 679 610 683
f 686 685 614
f 614 685 613
f 614 605 680
f 614 680 686
f 688 687 617
f 688 617 616
f 617 689 618
f 687 689 617
f 618 690 619
f 689 690 618
f 619 691 620
f 690 691 619
f 622 620 691
f 622 691 692
f 694 693 623
f 694 623 624
f 611 623 684
f 684 623 693
f 626 613 695
f 613 696 695
f 613 685 696
f 695 627 626
f 629 697 630
f 697 698 630
f 698 616 630
f 698 688 616
f 692 699 622
f 622 699 631
f 631 700 632
f 699 700 631
f 624 632 694
f 694 632 700
f 696 701 695
f 695 701 627
f 701 633 627
f 701 702 633
f 633 703 634
f 702 703 633
f 629 634 697
f 634 704 697
f 634 703 704
f 697 704 698
f 705 636 637
f 638 706 637
f 637 706 705
f 640 707 638
f 638 707 706
f 642 707 640
f 708 645 646
f 709 708 646
f 709 646 636
f 710 709 636
f 705 710 636
f 710 705 706
f 710 706 711
f 711 706 707
f 711 707 712
f 712 707 642
f 647 712 642
f 713 712 647
f 714 647 648
f 714 713 647
f 648 649 714
f 714 649 715
f 716 652 651
f 653 716 651
f 708 654 645
f 656 654 708
f 709 656 708
f 717 656 709
f 718 715 649
f 718 649 657
f 657 652 716
f 719 657 716
f 718 657 719
f 716 653 719
f 653 720 719
f 653 658 720
f 722 660 721
f 660 717 721
f 660 656 717
f 723 722 721
f 661 720 658
f 661 724 720
f 725 663 722
f 722 663 660
f 722 723 726
f 722 726 725
f 664 724 661
f 664 727 724
f 728 666 725
f 725 666 663
f 725 726 729
f 725 729 728
f 667 727 664
f 667 730 727
f 732 731 728
f 731 666 728
f 731 669 666
f 732 728 729
f 734 733 670
f 734 670 671
f 667 670 730
f 730 670 733
f 735 672 673
f 735 673 736
f 673 737 736
f 673 674 737
f 738 674 675
f 738 737 674
f 675 669 731
f 675 731 738
f 676 734 671
f 676 739 734
f 741 740 735
f 740 672 735
f 740 678 672
f 741 735 736
f 679 739 676
f 679 742 739
f 744 743 681
f 681 743 680
f 745 681 682
f 745 744 681
f 682 678 740
f 682 740 745
f 747 746 683
f 747 683 684
f 679 683 742
f 742 683 746
f 749 748 686
f 686 748 685
f 686 680 743
f 686 743 749
f 688 750 687
f 687 750 751
f 752 687 751
f 689 687 752
f 689 753 690
f 752 753 689
f 690 754 691
f 753 754 690
f 692 691 754
f 692 754 755
f 757 756 693
f 757 693 694
f 684 693 747
f 747 693 756
f 759 696 758
f 696 748 758
f 696 685 748
f 760 759 758
f 762 761 750
f 688 762 750
f 698 762 688
f 750 761 751
f 755 763 692
f 692 763 699
f 699 764 700
f 763 764 699
f 694 700 757
f 757 700 764
f 759 701 696
f 760 765 759
f 765 701 759
f 765 702 701
f 702 766 703
f 765 766 702
f 703 767 704
f 766 767 703
f 698 704 762
f 762 704 767
f 768 709 710
f 711 769 710
f 710 769 768
f 769 711 770
f 711 771 770
f 711 712 771
f 772 712 713
f 772 771 712
f 774 772 773
f 772 714 773
f 772 713 714
f 715 773 714
f 775 717 768
f 768 717 709
f 769 777 776
f 775 769 776
f 768 769 775
f 777 769 770
f 778 774 773
f 778 773 715
f 718 778 715
f 779 778 718
f 781 779 780
f 779 719 780
f 779 718 719
f 720 780 719
f 775 721 717
f 783 782 723
f 783 723 721
f 776 783 721
f 775 776 721
f 784 782 783
f 781 780 785
f 781 785 786
f 724 785 720
f 720 785 780
f 788 787 782
f 787 723 782
f 787 726 723
f 788 782 784
f 789 786 785
f 785 724 789
f 724 790 789
f 724 727 790
f 787 729 726
f 791 729 787
f 730 790 727
f 730 792 790
f 794 793 732
f 732 793 731
f 732 729 791
f 732 791 794
f 796 795 733
f 796 733 734
f 730 733 792
f 792 733 795
f 798 797 737
f 737 797 736
f 799 737 738
f 799 798 737
f 738 731 793
f 738 793 799
f 739 796 734
f 739 800 796
f 803 802 801
f 805 804 801
f 801 804 803
f 740 741 805
f 741 804 805
f 741 806 804
f 741 736 797
f 741 797 806
f 809 808 807
f 808 800 807
f 800 742 807
f 800 739 742
f 801 802 744
f 802 743 744
f 802 810 743
f 801 744 745
f 801 745 805
f 805 745 740
f 809 807 746
f 747 809 746
f 811 809 747
f 746 807 742
f 812 748 749
f 813 812 749
f 743 813 749
f 810 813 743
f 751 814 752
f 752 814 815
f 816 752 815
f 753 752 816
f 816 818 817
f 754 816 817
f 753 816 754
f 817 755 754
f 820 819 756
f 820 756 757
f 747 756 811
f 811 756 819
f 812 758 748
f 822 821 760
f 822 760 758
f 813 822 758
f 812 813 758
f 823 821 822
f 762 824 761
f 824 825 761
f 761 825 751
f 825 826 751
f 826 814 751
f 814 826 815
f 818 827 817
f 817 827 755
f 827 763 755
f 827 828 763
f 763 829 764
f 828 829 763
f 757 764 820
f 820 764 829
f 821 765 760
f 823 830 821
f 830 765 821
f 830 766 765
f 766 831 767
f 830 831 766
f 762 767 824
f 767 832 824
f 767 831 832
f 824 832 825
f 833 770 771
f 772 834 771
f 771 834 833
f 774 834 772
f 835 776 777
f 836 835 777
f 836 777 770
f 837 836 770
f 833 837 770
f 837 833 834
f 837 834 838
f 838 834 774
f 778 838 774
f 839 838 778
f 840 778 779
f 840 839 778
f 779 781 840
f 840 781 841
f 835 783 776
f 784 783 835
f 836 784 835
f 842 784 836
f 786 841 781
f 786 843 841
f 845 844 788
f 788 844 787
f 788 784 842
f 788 842 845
f 786 789 846
f 847 786 846
f 843 786 847
f 790 846 789
f 844 791 787
f 848 791 844
f 847 846 849
f 847 849 850
f 792 849 790
f 790 849 846
f 851 793 794
f 852 851 794
f 791 852 794
f 848 852 791
f 850 849 795
f 796 850 795
f 853 850 796
f 795 849 792
f 855 854 798
f 798 854 797
f 856 798 799
f 856 855 798
f 799 793 851
f 857 799 851
f 856 799 857
f 857 851 852
f 800 853 796
f 800 858 853
f 859 802 803
f 859 803 860
f 803 861 860
f 803 804 861
f 862 804 806
f 862 861 804
f 806 797 854
f 806 854 862
f 864 863 808
f 864 808 809
f 800 808 858
f 858 808 863
f 866 865 859
f 865 802 859
f 865 810 802
f 866 859 860
f 869 868 867
f 868 864 867
f 864 811 867
f 864 809 811
f 871 813 870
f 813 865 870
f 813 810 865
f 872 871 870
f 815 873 816
f 873 818 816
f 876 875 874
f 874 875 869
f 874 869 867
f 820 874 867
f 819 820 867
f 819 867 811
f 871 822 813
f 878 877 823
f 878 823 822
f 872 878 822
f 871 872 822
f 879 877 878
f 882 881 880
f 826 825 880
f 881 826 880
f 883 826 881
f 815 826 873
f 826 884 873
f 826 883 884
f 873 884 818
f 884 827 818
f 884 885 827
f 827 886 828
f 885 886 827
f 874 829 876
f 829 886 876
f 829 828 886
f 829 874 820
f 877 830 823
f 879 887 877
f 887 830 877
f 887 831 830
f 880 832 882
f 832 887 882
f 832 831 887
f 832 880 825
f 888 836 837
f 838 889 837
f 837 889 888
f 839 890 838
f 838 890 889
f 840 891 839
f 839 891 890
f 841 891 840
f 892 842 888
f 888 842 836
f 889 894 893
f 892 889 893
f 888 889 892
f 894 889 890
f 894 890 895
f 897 896 895
f 890 897 895
f 891 897 890
f 843 897 841
f 841 897 891
f 898 844 845
f 899 898 845
f 899 845 842
f 900 899 842
f 892 900 842
f 900 892 893
f 901 896 897
f 897 843 901
f 843 902 901
f 843 847 902
f 904 903 898
f 903 844 898
f 903 848 844
f 904 898 899
f 850 902 847
f 850 905 902
f 908 907 906
f 903 908 906
f 852 903 906
f 848 903 852
f 853 905 850
f 853 909 905
f 911 910 855
f 855 910 854
f 912 855 856
f 912 911 855
f 857 906 907
f 912 857 907
f 856 857 912
f 906 857 852
f 915 914 913
f 914 909 913
f 909 858 913
f 909 853 858
f 917 916 861
f 861 916 860
f 918 861 862
f 918 917 861
f 862 854 910
f 862 910 918
f 915 913 863
f 864 915 863
f 919 915 864
f 863 913 858
f 920 865 866
f 921 920 866
f 860 921 866
f 916 921 860
f 923 922 868
f 923 868 869
f 864 868 919
f 919 868 922
f 920 870 865
f 925 924 872
f 925 872 870
f 921 925 870
f 920 921 870
f 926 924 925
f 928 927 875
f 928 875 876
f 869 875 923
f 923 875 927
f 924 878 872
f 930 929 879
f 930 879 878
f 926 930 878
f 924 926 878
f 881 882 929
f 930 881 929
f 931 881 930
f 881 932 883
f 931 932 881
f 883 933 884
f 932 933 883
f 884 934 885
f 933 934 884
f 885 935 886
f 934 935 885
f 876 886 928
f 928 886 935
f 929 887 879
f 887 929 882
f 937 936 894
f 894 936 893
f 939 937 938
f 937 895 938
f 937 894 895
f 896 938 895
f 942 941 940
f 944 943 940
f 940 943 942
f 946 945 944
f 944 945 943
f 948 947 946
f 946 947 945
f 950 949 948
f 948 949 947
f 952 951 950
f 950 951 949
f 952 953 951
f 955 954 900
f 900 954 899
f 900 893 936
f 900 936 955
f 956 939 938
f 958 956 957
f 957 956 901
f 956 938 901
f 938 896 901
f 902 957 901
f 940 941 959
f 959 941 960
f 940 961 944
f 940 959 961
f 944 962 946
f 944 961 962
f 946 963 948
f 946 962 963
f 948 964 950
f 948 963 964
f 950 965 952
f 950 964 965
f 904 966 903
f 966 952 903
f 952 965 903
f 952 966 953
f 904 899 954
f 904 954 966
f 958 957 967
f 958 967 968
f 905 967 902
f 902 967 957
f 959 960 969
f 969 960 970
f 959 971 961
f 959 969 971
f 961 972 962
f 961 971 972
f 962 973 963
f 962 972 973
f 963 974 964
f 963 973 974
f 974 907 908
f 965 974 908
f 964 974 965
f 965 908 903
f 968 967 975
f 968 975 976
f 909 975 905
f 905 975 967
f 979 978 977
f 981 980 977
f 977 980 979
f 983 982 981
f 981 982 980
f 982 983 970
f 983 969 970
f 983 984 969
f 969 985 971
f 969 984 985
f 971 986 972
f 971 985 986
f 986 910 911
f 973 986 911
f 972 986 973
f 973 911 912
f 973 912 974
f 974 912 907
f 989 988 987
f 987 988 976
f 987 976 975
f 915 987 975
f 914 915 975
f 914 975 909
f 978 990 977
f 977 990 981
f 981 990 991
f 993 992 991
f 992 981 991
f 992 983 981
f 983 994 984
f 983 992 994
f 994 916 917
f 985 994 917
f 984 994 985
f 985 917 918
f 985 918 986
f 986 918 910
f 989 987 995
f 989 995 996
f 919 995 915
f 915 995 987
f 993 997 992
f 992 997 994
f 994 997 998
f 921 916 994
f 999 921 994
f 998 999 994
f 921 999 1000
f 1001 1000 999
f 1004 1003 1002
f 1002 1003 996
f 1002 996 995
f 923 1002 995
f 922 923 995
f 922 995 919
f 1000 925 921
f 1006 1005 926
f 1006 926 925
f 1001 1006 925
f 1000 1001 925
f 1007 1005 1006
f 1010 1009 1008
f 1008 1009 1004
f 1008 1004 1002
f 928 1008 1002
f 927 928 1002
f 927 1002 923
f 1005 930 926
f 1007 1011 1005
f 1011 930 1005
f 1011 931 930
f 931 1012 932
f 1011 1012 931
f 932 1013 933
f 1012 1013 932
f 933 1014 934
f 1013 1014 933
f 1008 935 1010
f 935 1014 1010
f 935 934 1014
f 935 1008 928
f 1015 936 937
f 939 1015 937
f 1016 941 942
f 943 1017 942
f 942 1017 1016
f 1017 943 1018
f 943 1019 1018
f 943 945 1019
f 1020 945 947
f 1020 1019 945
f 1021 947 949
f 1021 1020 947
f 1023 1021 1022
f 1021 951 1022
f 1021 949 951
f 953 1022 951
f 1024 954 955
f 936 1015 955
f 1015 1024 955
f 1015 1025 1024
f 956 1026 939
f 1026 1015 939
f 1026 1025 1015
f 958 1026 956
f 1028 1027 1016
f 1027 941 1016
f 1027 960 941
f 1028 1016 1017
f 1028 1017 1029
f 1029 1017 1018
f 1030 1023 1022
f 1030 1022 953
f 966 1030 953
f 1031 1030 966
f 1031 966 954
f 1032 1031 954
f 1024 1032 954
f 1031 1032 1033
f 1034 1024 1025
f 1032 1024 1034
f 1035 1025 1026
f 1034 1025 1035
f 968 1035 958
f 958 1035 1026
f 1038 1037 1036
f 1027 1038 1036
f 970 1027 1036
f 960 1027 970
f 1033 1032 1039
f 1033 1039 1040
f 1041 1032 1034
f 1039 1032 1041
f 1042 1034 1035
f 1041 1034 1042
f 976 1042 968
f 968 1042 1035
f 1043 978 979
f 1043 979 1044
f 979 1045 1044
f 979 980 1045
f 982 1036 1037
f 1045 982 1037
f 980 982 1045
f 1036 982 970
f 1040 1039 1046
f 1040 1046 1047
f 1048 1039 1041
f 1046 1039 1048
f 989 1048 988
f 1048 1042 988
f 1048 1041 1042
f 988 1042 976
f 1043 990 978
f 1044 1049 1043
f 1049 990 1043
f 1049 991 990
f 993 991 1049
f 993 1049 1050
f 1047 1046 1051
f 1047 1051 1052
f 1053 1046 1048
f 1051 1046 1053
f 996 1053 989
f 989 1053 1048
f 1050 1054 993
f 993 1054 997
f 997 1055 998
f 1054 1055 997
f 1055 1057 1056
f 999 1055 1056
f 998 1055 999
f 1056 1001 999
f 1052 1051 1058
f 1052 1058 1059
f 1004 1058 1003
f 1058 1053 1003
f 1058 1051 1053
f 1003 1053 996
f 1057 1060 1056
f 1060 1062 1061
f 1060 1061 1006
f 1056 1060 1006
f 1001 1056 1006
f 1061 1007 1006
f 1065 1064 1063
f 1063 1064 1059
f 1063 1059 1058
f 1010 1063 1058
f 1009 1010 1058
f 1009 1058 1004
f 1062 1066 1061
f 1061 1066 1007
f 1066 1011 1007
f 1066 1067 1011
f 1067 1069 1068
f 1012 1067 1068
f 1011 1067 1012
f 1012 1068 1070
f 1071 1012 1070
f 1013 1012 1071
f 1063 1014 1065
f 1014 1071 1065
f 1014 1013 1071
f 1014 1063 1010
f 1069 1072 1068
f 1068 1072 1070
f 1073 1018 1019
f 1020 1074 1019
f 1019 1074 1073
f 1021 1075 1020
f 1020 1075 1074
f 1023 1075 1021
f 1076 1027 1028
f 1029 1077 1028
f 1028 1077 1076
f 1018 1073 1029
f 1073 1077 1029
f 1073 1078 1077
f 1079 1073 1074
f 1078 1073 1079
f 1080 1074 1075
f 1079 1074 1080
f 1030 1081 1023
f 1081 1075 1023
f 1081 1080 1075
f 1031 1082 1030
f 1030 1082 1081
f 1033 1082 1031
f 1083 1037 1038
f 1027 1076 1038
f 1076 1083 1038
f 1076 1084 1083
f 1085 1076 1077
f 1084 1076 1085
f 1086 1077 1078
f 1085 1077 1086
f 1087 1078 1079
f 1086 1078 1087
f 1088 1079 1080
f 1087 1079 1088
f 1089 1080 1081
f 1088 1080 1089
f 1090 1081 1082
f 1089 1081 1090
f 1040 1090 1033
f 1033 1090 1082
f 1091 1044 1045
f 1037 1083 1045
f 1083 1091 1045
f 1083 1092 1091
f 1093 1083 1084
f 1092 1083 1093
f 1085 1095 1094
f 1093 1085 1094
f 1084 1085 1093
f 1095 1085 1086
f 1095 1086 1096
f 1098 1097 1096
f 1086 1098 1096
f 1087 1098 1086
f 1099 1087 1088
f 1098 1087 1099
f 1100 1088 1089
f 1099 1088 1100
f 1101 1089 1090
f 1100 1089 1101
f 1047 1101 1040
f 1040 1101 1090
f 1091 1049 1044
f 1091 1092 1102
f 1050 1091 1102
f 1103 1050 1102
f 1091 1050 1049
f 1102 1092 1093
f 1102 1093 1104
f 1104 1093 1094
f 1105 1097 1098
f 1105 1098 1099
f 1105 1099 1106
f 1108 1107 1106
f 1099 1108 1106
f 1100 1108 1099
f 1109 1100 1101
f 1108 1100 1109
f 1052 1109 1047
f 1047 1109 1101
f 1103 1110 1050
f 1050 1110 1054
f 1110 1112 1111
f 1055 1110 1111
f 1054 1110 1055
f 1111 1057 1055
f 1107 1108 1113
f 1107 1113 1114
f 1115 1108 1109
f 1113 1108 1115
f 1059 1115 1052
f 1052 1115 1109
f 1112 1116 1111
f 1111 1116 1057
f 1116 1060 1057
f 1116 1117 1060
f 1119 1118 1062
f 1060 1119 1062
f 1117 1119 1060
f 1120 1118 1119
f 1123 1122 1121
f 1121 1122 1114
f 1113 1121 1114
f 1124 1121 1113
f 1065 1124 1064
f 1124 1115 1064
f 1124 1113 1115
f 1064 1115 1059
f 1118 1066 1062
f 1120 1125 1118
f 1125 1066 1118
f 1125 1067 1066
f 1121 1126 1069
f 1125 1121 1069
f 1067 1125 1069
f 1123 1121 1125
f 1070 1126 1071
f 1126 1124 1071
f 1126 1121 1124
f 1071 1124 1065
f 1126 1072 1069
f 1072 1126 1070
f 1127 1094 1095
f 1096 1128 1095
f 1095 1128 1127
f 1097 1128 1096
f 1129 1103 1102
f 1104 1130 1102
f 1102 1130 1129
f 1094 1127 1104
f 1127 1130 1104
f 1127 1131 1130
f 1132 1127 1128
f 1131 1127 1132
f 1105 1133 1097
f 1133 1128 1097
f 1133 1132 1128
f 1106 1134 1105
f 1105 1134 1133
f 1107 1134 1106
f 1129 1110 1103
f 1110 1129 1112
f 1129 1135 1112
f 1129 1130 1135
f 1136 1130 1131
f 1135 1130 1136
f 1137 1131 1132
f 1136 1131 1137
f 1138 1132 1133
f 1137 1132 1138
f 1139 1133 1134
f 1138 1133 1139
f 1114 1139 1107
f 1107 1139 1134
f 1135 1116 1112
f 1116 1135 1117
f 1117 1135 1136
f 1117 1136 1119
f 1119 1136 1137
f 1119 1137 1120
f 1137 1140 1120
f 1137 1138 1140
f 1123 1140 1122
f 1140 1139 1122
f 1140 1138 1139
f 1122 1139 1114
f 1140 1125 1120
f 1125 1140 1123
