v 42.9 -12.0 -1.0
v 43.0 -12.0 -1.1
v 43.0 -12.1 -1.0
v 43.0 -12.0 -0.9
v 42.9 -11.0 -1.0
v 43.0 -11.0 -1.1
v 43.0 -11.2 0.0
v 42.9 -11.0 0.0
v 43.0 -11.0 0.1
v 43.0 -10.9 -1.0
v 43.0 -10.9 0.0
v 44.0 -17.0 2.0
v 44.0 -17.0 2.0
v 44.0 -17.0 2.0
v 44.0 -17.0 2.0
v 43.7 -16.0 2.0
v 44.0 -16.0 1.7
v 44.0 -16.6 3.0
v 43.6 -16.0 3.0
v 44.0 -16.5 4.0
v 43.6 -16.0 4.0
v 44.0 -16.5 5.0
v 43.6 -16.0 5.0
v 44.0 -16.5 6.0
v 43.6 -16.0 6.0
v 44.0 -16.5 7.0
v 43.6 -16.0 7.0
v 44.0 -16.4 8.0
v 43.6 -16.0 8.0
v 44.0 -16.2 9.0
v 43.9 -16.0 9.0
v 44.0 -16.0 9.2
v 43.6 -15.0 2.0
v 44.0 -15.0 1.6
v 43.6 -15.0 3.0
v 43.6 -15.0 4.0
v 43.6 -15.0 5.0
v 43.6 -15.0 6.0
v 43.6 -15.0 7.0
v 43.7 -15.0 8.0
v 44.0 -15.0 8.5
v 44.0 -15.8 9.0
v 43.9 -14.0 1.0
v 44.0 -14.0 0.9
v 44.0 -14.1 1.0
v 43.8 -14.0 2.0
v 44.0 -14.0 2.4
v 44.0 -14.4 3.0
v 44.0 -14.5 4.0
v 44.0 -14.5 5.0
v 44.0 -14.5 6.0
v 44.0 -14.5 7.0
v 44.0 -14.6 8.0
v 43.9 -13.0 -1.0
v 44.0 -13.0 -1.0
v 44.0 -13.0 -1.0
v 44.0 -13.3 0.0
v 43.8 -13.0 0.0
v 44.0 -13.8 1.0
v 44.0 -13.0 0.4
v 44.0 -13.7 2.0
v 44.0 -12.0 -1.4
v 43.4 -12.0 0.0
v 44.0 -12.0 0.6
v 44.0 -11.0 -1.4
v 44.0 -11.0 0.9
v 44.0 -10.5 -1.0
v 44.0 -10.0 0.0
v 45.0 -17.0 1.7
v 45.0 -17.3 2.0
v 45.0 -17.4 3.0
v 44.4 -17.0 3.0
v 45.0 -17.4 4.0
v 44.5 -17.0 4.0
v 45.0 -17.5 5.0
v 44.5 -17.0 5.0
v 45.0 -17.5 6.0
v 44.5 -17.0 6.0
v 45.0 -17.5 7.0
v 44.5 -17.0 7.0
v 45.0 -17.5 8.0
v 44.5 -17.0 8.0
v 45.0 -17.5 9.0
v 44.5 -17.0 9.0
v 45.0 -17.4 10.0
v 44.6 -17.0 10.0
v 45.0 -17.4 11.0
v 44.1 -17.0 11.0
v 45.0 -17.0 11.7
v 45.0 -16.0 1.5
v 44.4 -16.0 10.0
v 44.5 -16.0 11.0
v 45.0 -16.0 12.0
v 45.0 -15.0 1.3
v 44.3 -15.0 9.0
v 44.5 -15.0 10.0
v 44.6 -15.0 11.0
v 45.0 -15.0 11.5
v 45.0 -14.0 0.5
v 45.0 -14.6 1.0
v 44.4 -14.0 3.0
v 44.5 -14.0 4.0
v 44.5 -14.0 5.0
v 44.5 -14.0 6.0
v 44.5 -14.0 7.0
v 44.4 -14.0 8.0
v 44.5 -14.0 9.0
v 44.5 -14.0 10.0
v 44.6 -14.0 11.0
v 45.0 -14.0 11.4
v 44.1 -13.0 -1.0
v 45.0 -13.0 -0.5
v 45.0 -13.5 0.0
v 44.3 -13.0 1.0
v 44.5 -13.0 2.0
v 45.0 -13.0 2.7
v 45.0 -13.3 3.0
v 45.0 -13.5 4.0
v 45.0 -13.5 5.0
v 45.0 -13.5 6.0
v 45.0 -13.4 7.0
v 44.8 -13.0 8.0
v 45.0 -13.0 7.6
v 44.6 -13.0 9.0
v 44.6 -13.0 10.0
v 44.8 -13.0 11.0
v 45.0 -13.0 11.2
v 45.0 -12.0 -1.3
v 45.0 -12.4 -1.0
v 44.4 -12.0 1.0
v 44.7 -12.0 2.0
v 45.0 -12.0 2.3
v 45.0 -12.7 8.0
v 45.0 -12.6 9.0
v 45.0 -12.6 10.0
v 45.0 -12.8 11.0
v 45.0 -11.0 -1.4
v 45.0 -11.2 1.0
v 45.0 -11.0 0.8
v 45.0 -11.7 2.0
v 44.8 -10.0 -1.0
v 45.0 -10.0 -1.1
v 45.0 -10.0 -0.4
v 45.0 -10.1 0.0
v 45.0 -9.8 -1.0
v 45.6 -18.0 5.0
v 46.0 -18.0 4.5
v 46.0 -18.4 5.0
v 46.0 -18.5 6.0
v 45.5 -18.0 6.0
v 46.0 -18.5 7.0
v 45.5 -18.0 7.0
v 46.0 -18.4 8.0
v 45.5 -18.0 8.0
v 46.0 -18.3 9.0
v 45.6 -18.0 9.0
v 46.0 -18.0 9.5
v 45.7 -18.0 12.0
v 46.0 -18.0 11.5
v 46.0 -18.3 12.0
v 46.0 -18.2 13.0
v 45.8 -18.0 13.0
v 46.0 -18.0 13.2
v 46.0 -17.0 1.8
v 46.0 -17.3 2.0
v 46.0 -17.6 3.0
v 46.0 -17.7 4.0
v 46.0 -17.7 10.0
v 46.0 -17.7 11.0
v 45.3 -17.0 12.0
v 45.8 -17.0 13.0
v 46.0 -17.0 13.2
v 46.0 -16.0 1.4
v 46.0 -16.2 12.0
v 46.0 -16.0 11.8
v 46.0 -16.8 13.0
v 45.7 -15.0 1.0
v 46.0 -15.0 0.8
v 46.0 -15.2 1.0
v 46.0 -15.0 11.9
v 46.0 -14.0 0.4
v 46.0 -14.0 11.5
v 46.0 -13.0 -0.3
v 46.0 -13.4 0.0
v 45.3 -13.0 3.0
v 45.5 -13.0 4.0
v 45.5 -13.0 5.0
v 45.5 -13.0 6.0
v 45.4 -13.0 7.0
v 46.0 -13.0 11.4
v 45.4 -12.0 -1.0
v 46.0 -12.0 -0.6
v 45.5 -12.0 3.0
v 46.0 -12.0 3.9
v 46.0 -12.1 4.0
v 46.0 -12.3 5.0
v 46.0 -12.3 6.0
v 46.0 -12.4 7.0
v 46.0 -12.2 8.0
v 45.6 -12.0 9.0
v 46.0 -12.0 8.3
v 45.8 -12.0 10.0
v 46.0 -12.0 10.3
v 46.0 -12.5 11.0
v 45.6 -11.0 -1.0
v 46.0 -11.0 -0.7
v 45.2 -11.0 1.0
v 45.5 -11.0 2.0
v 45.6 -11.0 3.0
v 46.0 -11.8 4.0
v 45.7 -11.0 4.0
v 46.0 -11.5 5.0
v 45.8 -11.0 5.0
v 46.0 -11.1 6.0
v 46.0 -11.0 6.0
v 46.0 -11.0 6.1
v 46.0 -11.6 9.0
v 46.0 -11.8 10.0
v 46.0 -10.0 -1.3
v 46.0 -10.5 -1.0
v 45.2 -10.0 0.0
v 46.0 -10.0 0.5
v 46.0 -10.4 1.0
v 46.0 -10.5 2.0
v 46.0 -10.5 3.0
v 46.0 -10.7 4.0
v 46.0 -10.7 5.0
v 46.0 -10.9 6.0
v 46.0 -9.1 -1.0
v 46.0 -9.4 0.0
v 46.7 -19.0 5.0
v 47.0 -19.0 4.7
v 47.0 -19.2 5.0
v 47.0 -19.3 6.0
v 46.6 -19.0 6.0
v 47.0 -19.2 7.0
v 46.7 -19.0 7.0
v 47.0 -19.0 7.5
v 46.8 -19.0 11.0
v 47.0 -19.0 10.6
v 47.0 -19.2 11.0
v 47.0 -19.1 12.0
v 46.9 -19.0 12.0
v 47.0 -19.0 12.1
v 46.7 -18.0 3.0
v 47.0 -18.0 2.8
v 47.0 -18.2 3.0
v 47.0 -18.5 4.0
v 46.4 -18.0 4.0
v 47.0 -18.7 8.0
v 47.0 -18.6 9.0
v 47.0 -18.6 10.0
v 46.3 -18.0 10.0
v 46.3 -18.0 11.0
v 47.0 -18.3 13.0
v 47.0 -18.0 13.2
v 46.4 -17.0 2.0
v 47.0 -17.0 2.3
v 47.0 -17.0 13.2
v 47.0 -16.0 1.7
v 47.0 -16.5 2.0
v 47.0 -16.3 12.0
v 47.0 -16.0 11.8
v 47.0 -16.8 13.0
v 46.3 -15.0 1.0
v 47.0 -15.0 1.3
v 47.0 -15.0 11.6
v 47.0 -14.0 0.6
v 47.0 -14.6 1.0
v 47.0 -14.0 11.1
v 46.5 -13.0 0.0
v 47.0 -13.0 0.3
v 47.0 -13.0 11.2
v 47.0 -12.0 -0.4
v 47.0 -12.6 0.0
v 46.1 -12.0 4.0
v 46.2 -12.0 5.0
v 46.3 -12.0 6.0
v 46.4 -12.0 7.0
v 46.2 -12.0 8.0
v 46.6 -12.0 10.0
v 47.0 -12.1 10.0
v 47.0 -12.0 9.9
v 47.0 -12.4 11.0
v 47.0 -11.0 -0.6
v 47.0 -11.1 7.0
v 47.0 -11.0 6.9
v 47.0 -11.2 8.0
v 46.8 -11.0 9.0
v 47.0 -11.0 8.6
v 47.0 -11.0 9.1
v 47.0 -10.0 -1.1
v 47.0 -10.2 -1.0
v 46.4 -10.0 1.0
v 46.5 -10.0 2.0
v 46.4 -10.0 3.0
v 46.5 -10.0 4.0
v 46.4 -10.0 5.0
v 46.5 -10.0 6.0
v 47.0 -10.5 7.0
v 46.9 -10.0 7.0
v 47.0 -10.0 7.1
v 47.0 -10.9 9.0
v 47.0 -9.4 -1.0
v 46.5 -9.0 0.0
v 47.0 -9.0 -0.7
v 47.0 -9.0 0.4
v 47.0 -9.4 1.0
v 47.0 -9.4 2.0
v 46.8 -9.0 3.0
v 47.0 -9.0 2.6
v 47.0 -9.0 4.0
v 46.7 -9.0 5.0
v 47.0 -9.0 5.5
v 47.0 -9.4 6.0
v 47.0 -9.9 7.0
v 46.9 -8.0 -1.0
v 47.0 -8.0 -1.1
v 47.0 -8.5 -1.0
v 47.0 -8.6 0.0
v 47.0 -8.0 -0.8
v 47.0 -8.7 3.0
v 46.9 -8.0 4.0
v 47.0 -8.0 3.7
v 46.9 -8.0 5.0
v 47.0 -8.0 5.2
v 46.9 -7.0 -1.0
v 47.0 -7.0 -1.1
v 47.0 -7.0 -0.8
v 47.0 -7.8 4.0
v 47.0 -7.8 5.0
v 47.0 -6.7 -1.0
v 48.0 -19.0 4.8
v 48.0 -19.1 5.0
v 47.7 -19.0 6.0
v 48.0 -19.0 5.4
v 48.0 -19.0 6.4
v 48.0 -19.2 7.0
v 48.0 -19.2 8.0
v 47.5 -19.0 8.0
v 48.0 -19.2 9.0
v 47.7 -19.0 9.0
v 48.0 -19.2 10.0
v 47.6 -19.0 10.0
v 48.0 -19.2 11.0
v 47.2 -19.0 12.0
v 48.0 -19.0 11.4
v 48.0 -18.0 2.8
v 48.0 -18.2 3.0
v 48.0 -18.5 4.0
v 48.0 -18.8 6.0
v 48.0 -18.3 12.0
v 47.3 -18.0 13.0
v 48.0 -18.0 12.3
v 48.0 -17.0 2.6
v 47.2 -17.0 13.0
v 48.0 -17.0 12.0
v 47.5 -16.0 2.0
v 48.0 -16.0 2.3
v 47.6 -16.0 12.0
v 48.0 -16.0 12.2
v 48.0 -15.0 1.5
v 48.0 -15.6 2.0
v 47.9 -15.0 12.0
v 48.0 -15.0 12.1
v 48.0 -14.0 0.7
v 48.0 -14.4 1.0
v 48.0 -14.9 12.0
v 48.0 -14.0 11.4
v 48.0 -13.0 0.4
v 47.4 -13.0 11.0
v 48.0 -13.5 11.0
v 48.0 -13.0 10.6
v 48.0 -12.0 -0.4
v 48.0 -12.5 0.0
v 48.0 -12.3 10.0
v 48.0 -12.0 9.8
v 48.0 -11.0 -0.5
v 47.1 -11.0 7.0
v 47.2 -11.0 8.0
v 48.0 -11.0 9.5
v 47.3 -10.0 -1.0
v 48.0 -10.0 -0.7
v 48.0 -10.3 8.0
v 48.0 -10.0 7.6
v 48.0 -10.5 9.0
v 48.0 -9.3 -1.0
v 47.3 -9.0 -1.0
v 48.0 -9.0 -1.2
v 47.3 -9.0 1.0
v 47.3 -9.0 2.0
v 47.5 -9.0 6.0
v 48.0 -9.0 6.4
v 48.0 -9.5 7.0
v 48.0 -8.0 -1.4
v 47.4 -8.0 0.0
v 47.9 -8.0 1.0
v 47.6 -8.0 2.0
v 47.3 -8.0 3.0
v 48.0 -8.5 6.0
v 48.0 -8.0 5.6
v 48.0 -7.0 -1.3
v 47.7 -7.0 0.0
v 47.8 -7.0 1.0
v 47.6 -7.0 2.0
v 47.6 -7.0 3.0
v 47.7 -7.0 4.0
v 48.0 -7.0 4.4
v 48.0 -7.4 5.0
v 48.0 -6.6 -1.0
v 48.0 -6.7 0.0
v 48.0 -6.7 1.0
v 48.0 -6.2 2.0
v 48.0 -6.6 3.0
v 48.0 -6.7 4.0
v 48.1 -19.0 5.0
v 48.3 -19.0 7.0
v 48.4 -19.0 8.0
v 48.3 -19.0 9.0
v 48.2 -19.0 10.0
v 48.3 -19.0 11.0
v 48.2 -18.0 3.0
v 48.6 -18.0 4.0
v 49.0 -18.0 4.5
v 49.0 -18.3 5.0
v 49.0 -18.4 6.0
v 49.0 -18.5 7.0
v 49.0 -18.6 8.0
v 49.0 -18.4 9.0
v 49.0 -18.0 9.8
v 48.9 -18.0 10.0
v 49.0 -18.0 10.3
v 49.0 -18.2 11.0
v 48.3 -18.0 12.0
v 49.0 -18.0 11.3
v 48.6 -17.0 3.0
v 49.0 -17.0 3.5
v 49.0 -17.5 4.0
v 49.0 -17.9 10.0
v 48.4 -17.0 12.0
v 49.0 -17.0 12.0
v 49.0 -16.0 2.6
v 49.0 -16.4 3.0
v 48.3 -16.0 12.0
v 49.0 -16.0 11.7
v 49.0 -15.0 1.6
v 49.0 -15.4 2.0
v 48.1 -15.0 12.0
v 49.0 -15.0 11.6
v 48.5 -14.0 1.0
v 49.0 -14.0 1.3
v 49.0 -14.0 11.4
v 49.0 -13.0 0.6
v 49.0 -13.5 1.0
v 49.0 -13.5 11.0
v 49.0 -13.0 10.6
v 49.0 -12.0 -0.3
v 49.0 -12.3 0.0
v 48.3 -12.0 10.0
v 49.0 -12.0 10.4
v 49.0 -11.0 -0.5
v 48.7 -11.0 10.0
v 49.0 -11.0 10.2
v 49.0 -10.0 -0.5
v 48.4 -10.0 8.0
v 48.7 -10.0 9.0
v 49.0 -10.0 9.3
v 49.0 -10.7 10.0
v 48.4 -9.0 -1.0
v 49.0 -9.0 -0.7
v 49.0 -9.4 7.0
v 49.0 -9.0 6.6
v 49.0 -9.6 8.0
v 49.0 -9.8 9.0
v 49.0 -8.0 -1.4
v 49.0 -8.6 -1.0
v 48.6 -8.0 6.0
v 49.0 -8.0 6.3
v 49.0 -7.0 -1.2
v 48.7 -7.0 0.0
v 49.0 -7.1 0.0
v 49.0 -7.0 -0.3
v 49.0 -7.0 0.2
v 48.6 -7.0 5.0
v 49.0 -7.0 5.3
v 49.0 -7.7 6.0
v 49.0 -6.8 -1.0
v 49.0 -6.6 1.0
v 49.0 -6.4 2.0
v 49.0 -6.5 3.0
v 49.0 -6.4 4.0
v 49.0 -6.7 5.0
v 49.4 -18.0 5.0
v 49.5 -18.0 6.0
v 49.6 -18.0 7.0
v 50.0 -18.0 7.7
v 50.0 -18.2 8.0
v 49.5 -18.0 9.0
v 50.0 -18.0 8.3
v 49.2 -18.0 11.0
v 49.4 -17.0 4.0
v 50.0 -17.0 4.7
v 50.0 -17.3 5.0
v 50.0 -17.5 6.0
v 50.0 -17.7 7.0
v 50.0 -17.7 9.0
v 50.0 -17.5 10.0
v 50.0 -17.4 11.0
v 50.0 -17.0 11.4
v 49.3 -16.0 3.0
v 49.7 -16.0 4.0
v 50.0 -16.0 4.3
v 50.0 -16.0 11.4
v 50.0 -15.0 2.0
v 50.0 -15.0 2.0
v 49.8 -15.0 3.0
v 50.0 -15.0 2.1
v 50.0 -15.0 3.3
v 50.0 -15.6 4.0
v 50.0 -15.0 11.4
v 50.0 -14.0 1.8
v 50.0 -14.8 3.0
v 50.0 -14.0 11.4
v 49.4 -13.0 1.0
v 50.0 -13.3 2.0
v 49.9 -13.0 2.0
v 50.0 -13.0 2.2
v 50.0 -13.5 11.0
v 50.0 -13.0 10.6
v 49.4 -12.0 0.0
v 50.0 -12.0 0.5
v 50.0 -12.4 1.0
v 50.0 -12.8 2.0
v 50.0 -12.0 10.5
v 50.0 -11.0 -0.4
v 50.0 -11.6 0.0
v 50.0 -11.0 10.3
v 50.0 -10.0 -0.5
v 50.0 -10.7 10.0
v 50.0 -10.0 9.3
v 50.0 -9.0 -0.6
v 50.0 -9.2 7.0
v 50.0 -9.0 6.8
v 50.0 -9.5 8.0
v 50.0 -9.7 9.0
v 50.0 -8.0 -1.2
v 50.0 -8.3 -1.0
v 50.0 -8.0 6.4
v 50.0 -7.1 -1.0
v 49.9 -7.0 -1.0
v 50.0 -7.3 0.0
v 50.0 -7.0 0.4
v 50.0 -7.5 6.0
v 50.0 -7.0 5.5
v 50.0 -6.6 1.0
v 50.0 -6.5 2.0
v 50.0 -6.3 3.0
v 49.8 -6.0 4.0
v 50.0 -6.0 3.8
v 50.0 -6.0 4.2
v 50.0 -6.5 5.0
v 50.0 -5.9 4.0
v 50.2 -18.0 8.0
v 50.3 -17.0 5.0
v 50.6 -17.0 6.0
v 51.0 -17.0 6.6
v 51.0 -17.3 7.0
v 51.0 -17.4 8.0
v 51.0 -17.4 9.0
v 51.0 -17.5 10.0
v 51.0 -17.2 11.0
v 51.0 -17.0 11.2
v 50.6 -16.0 5.0
v 51.0 -16.0 5.4
v 51.0 -16.6 6.0
v 50.7 -16.0 11.0
v 51.0 -16.6 11.0
v 51.0 -16.0 10.7
v 50.0 -15.0 2.0
v 50.4 -15.0 4.0
v 51.0 -15.0 4.6
v 51.0 -15.5 5.0
v 50.7 -15.0 11.0
v 51.0 -15.0 10.7
v 50.2 -14.0 2.0
v 50.4 -14.0 3.0
v 50.7 -14.0 4.0
v 51.0 -14.0 4.3
v 51.0 -14.5 11.0
v 51.0 -14.0 11.3
v 50.6 -13.0 3.0
v 51.0 -13.0 3.5
v 51.0 -13.6 4.0
v 51.0 -13.5 11.0
v 51.0 -13.0 10.7
v 50.4 -12.0 1.0
v 50.6 -12.0 2.0
v 51.0 -12.0 2.4
v 51.0 -12.5 3.0
v 51.0 -12.0 10.6
v 51.0 -11.0 -0.2
v 51.0 -11.2 0.0
v 51.0 -11.5 1.0
v 51.0 -11.6 2.0
v 51.0 -11.0 10.3
v 51.0 -10.0 -0.5
v 51.0 -10.7 10.0
v 51.0 -10.0 9.3
v 51.0 -9.0 -0.5
v 50.4 -9.0 7.0
v 51.0 -9.0 7.4
v 51.0 -9.4 8.0
v 51.0 -9.7 9.0
v 50.3 -8.0 -1.0
v 51.0 -8.0 -0.5
v 51.0 -8.6 7.0
v 51.0 -8.0 6.5
v 51.0 -7.5 0.0
v 51.0 -7.0 0.5
v 51.0 -7.4 6.0
v 51.0 -7.0 5.6
v 51.0 -6.6 1.0
v 51.0 -6.4 2.0
v 50.7 -6.0 3.0
v 51.0 -6.0 2.8
v 51.0 -6.5 5.0
v 51.0 -6.0 4.4
v 51.0 -5.9 3.0
v 51.0 -5.7 4.0
v 51.3 -17.0 7.0
v 51.5 -17.0 8.0
v 51.6 -17.0 9.0
v 52.0 -17.0 9.6
v 52.0 -17.2 10.0
v 52.0 -17.1 11.0
v 52.0 -17.0 11.1
v 52.0 -16.0 6.0
v 52.0 -16.0 6.0
v 51.9 -16.0 7.0
v 52.0 -16.0 6.2
v 52.0 -16.0 7.3
v 52.0 -16.4 8.0
v 52.0 -16.7 9.0
v 52.0 -16.8 11.0
v 52.0 -16.0 10.5
v 51.5 -15.0 5.0
v 52.0 -15.0 5.4
v 52.0 -15.9 7.0
v 52.0 -15.0 10.5
v 52.0 -14.0 4.7
v 52.0 -14.5 5.0
v 52.0 -14.3 11.0
v 52.0 -14.0 11.2
v 51.6 -13.0 4.0
v 52.0 -13.0 4.3
v 51.4 -13.0 11.0
v 52.0 -13.0 11.4
v 51.6 -12.0 3.0
v 52.0 -12.0 3.4
v 52.0 -12.7 4.0
v 51.7 -12.0 11.0
v 52.0 -12.0 11.2
v 51.3 -11.0 0.0
v 51.5 -11.0 1.0
v 51.7 -11.0 2.0
v 52.0 -11.0 2.3
v 52.0 -11.6 3.0
v 52.0 -11.7 11.0
v 52.0 -11.0 10.5
v 52.0 -10.0 -0.2
v 52.0 -10.3 0.0
v 52.0 -10.5 1.0
v 52.0 -10.7 2.0
v 52.0 -10.5 10.0
v 52.0 -10.0 9.5
v 52.0 -9.0 -0.5
v 52.0 -9.4 8.0
v 52.0 -9.0 7.6
v 52.0 -9.6 9.0
v 52.0 -8.0 -0.4
v 52.0 -8.3 7.0
v 52.0 -8.0 6.7
v 52.0 -7.5 0.0
v 52.0 -7.0 0.5
v 51.5 -7.0 6.0
v 52.0 -7.0 6.3
v 52.0 -6.6 1.0
v 52.0 -6.5 2.0
v 51.3 -6.0 3.0
v 52.0 -6.3 3.0
v 52.0 -6.0 3.8
v 52.0 -6.4 5.0
v 52.0 -6.0 4.2
v 52.0 -6.7 6.0
v 52.0 -5.9 4.0
v 52.3 -17.0 10.0
v 52.3 -17.0 11.0
v 52.0 -16.0 6.0
v 52.4 -16.0 8.0
v 53.0 -16.0 8.9
v 53.0 -16.1 9.0
v 52.5 -16.0 10.0
v 53.0 -16.0 9.1
v 52.6 -15.0 6.0
v 53.0 -15.2 7.0
v 53.0 -15.0 6.7
v 53.0 -15.0 8.0
v 53.0 -15.0 7.8
v 53.0 -15.0 8.1
v 52.7 -15.0 10.0
v 53.0 -15.0 9.7
v 52.5 -14.0 5.0
v 53.0 -14.0 5.4
v 53.0 -14.6 6.0
v 53.0 -15.0 8.0
v 53.0 -14.7 10.0
v 52.4 -14.0 11.0
v 53.0 -14.0 10.6
v 53.0 -13.0 4.5
v 53.0 -13.6 5.0
v 53.0 -13.6 11.0
v 53.0 -13.0 11.4
v 53.0 -12.0 3.5
v 53.0 -12.5 4.0
v 53.0 -12.0 11.4
v 53.0 -11.0 2.7
v 53.0 -11.4 3.0
v 53.0 -11.5 11.0
v 53.0 -11.0 10.5
v 52.3 -10.0 0.0
v 52.5 -10.0 1.0
v 52.7 -10.0 2.0
v 53.0 -10.0 2.2
v 53.0 -10.5 10.0
v 53.0 -10.0 9.6
v 53.0 -9.0 -0.2
v 53.0 -9.3 0.0
v 53.0 -9.5 1.0
v 53.0 -9.8 2.0
v 53.0 -9.2 8.0
v 53.0 -9.0 7.8
v 53.0 -9.0 9.0
v 53.0 -9.0 8.9
v 53.0 -9.0 9.0
v 53.0 -8.0 -0.3
v 52.4 -8.0 7.0
v 53.0 -8.0 7.4
v 53.0 -9.0 9.0
v 53.0 -7.6 0.0
v 53.0 -7.0 0.4
v 52.7 -7.0 7.0
v 53.0 -7.0 7.2
v 53.0 -6.6 1.0
v 53.0 -6.5 2.0
v 53.0 -6.4 3.0
v 52.3 -6.0 4.0
v 53.0 -6.3 4.0
v 53.0 -6.4 5.0
v 53.0 -6.4 6.0
v 53.0 -6.8 7.0
v 53.1 -16.0 9.0
v 53.2 -15.0 7.0
v 54.0 -15.0 8.8
v 54.0 -15.1 9.0
v 54.0 -15.0 9.1
v 54.0 -14.0 5.7
v 54.0 -14.3 6.0
v 54.0 -14.5 7.0
v 54.0 -14.5 8.0
v 54.0 -14.4 10.0
v 54.0 -14.0 10.4
v 54.0 -13.0 4.5
v 54.0 -13.5 5.0
v 54.0 -13.5 11.0
v 54.0 -13.0 11.5
v 54.0 -12.0 3.6
v 54.0 -12.5 4.0
v 54.0 -12.0 11.5
v 53.5 -11.0 3.0
v 54.0 -11.0 3.3
v 54.0 -11.5 11.0
v 54.0 -11.0 10.5
v 54.0 -10.0 2.6
v 54.0 -10.5 3.0
v 54.0 -10.5 10.0
v 54.0 -10.0 9.6
v 53.2 -9.0 0.0
v 53.6 -9.0 1.0
v 54.0 -9.0 1.5
v 54.0 -9.4 2.0
v 54.0 -9.0 8.0
v 54.0 -9.0 8.0
v 54.0 -9.0 8.1
v 54.0 -9.0 9.2
v 53.4 -8.0 0.0
v 54.0 -8.0 0.5
v 54.0 -8.5 1.0
v 54.0 -8.0 7.5
v 54.0 -8.8 9.0
v 54.0 -7.0 0.1
v 54.0 -7.0 7.4
v 54.0 -6.6 1.0
v 54.0 -6.4 2.0
v 53.6 -6.0 3.0
v 54.0 -6.0 2.7
v 53.4 -6.0 4.0
v 53.5 -6.0 5.0
v 53.6 -6.0 6.0
v 54.0 -6.0 6.4
v 54.0 -6.5 7.0
v 54.0 -5.7 3.0
v 54.0 -5.6 4.0
v 54.0 -5.6 5.0
v 54.0 -5.7 6.0
v 54.1 -15.0 9.0
v 54.3 -14.0 6.0
v 54.5 -14.0 7.0
v 54.6 -14.0 8.0
v 55.0 -14.0 8.6
v 55.0 -14.2 9.0
v 54.5 -14.0 10.0
v 55.0 -14.0 9.4
v 55.0 -13.0 4.7
v 55.0 -13.3 5.0
v 55.0 -13.5 6.0
v 55.0 -13.5 7.0
v 55.0 -13.7 8.0
v 55.0 -13.7 10.0
v 55.0 -13.5 11.0
v 55.0 -13.1 12.0
v 54.9 -13.0 12.0
v 55.0 -13.0 12.1
v 55.0 -12.0 3.7
v 55.0 -12.3 4.0
v 54.7 -12.0 12.0
v 55.0 -12.0 12.2
v 55.0 -11.0 3.5
v 55.0 -11.3 11.0
v 55.0 -11.0 10.7
v 55.0 -11.7 12.0
v 54.6 -10.0 3.0
v 55.0 -10.0 3.3
v 55.0 -10.4 10.0
v 55.0 -10.0 9.6
v 54.5 -9.0 2.0
v 55.0 -9.0 2.4
v 55.0 -9.7 3.0
v 54.0 -9.0 8.0
v 55.0 -9.0 9.3
v 54.5 -8.0 1.0
v 55.0 -8.0 1.5
v 55.0 -8.5 2.0
v 55.0 -8.3 8.0
v 55.0 -8.0 7.7
v 55.0 -8.7 9.0
v 55.0 -7.0 0.9
v 55.0 -7.2 1.0
v 55.0 -7.0 7.5
v 55.0 -6.9 1.0
v 55.0 -6.4 2.0
v 55.0 -6.0 2.5
v 54.6 -6.0 7.0
v 55.0 -6.0 7.2
v 55.0 -5.6 3.0
v 55.0 -5.5 4.0
v 55.0 -5.5 5.0
v 55.0 -5.5 6.0
v 55.0 -5.8 7.0
v 55.2 -14.0 9.0
v 55.3 -13.0 5.0
v 55.5 -13.0 6.0
v 55.6 -13.0 7.0
v 56.0 -13.0 7.5
v 56.0 -13.3 8.0
v 56.0 -13.5 9.0
v 56.0 -13.5 10.0
v 56.0 -13.4 11.0
v 55.1 -13.0 12.0
v 56.0 -13.0 11.5
v 55.4 -12.0 4.0
v 56.0 -12.0 4.6
v 56.0 -12.4 5.0
v 56.0 -12.5 6.0
v 56.0 -12.6 7.0
v 56.0 -12.4 12.0
v 56.0 -12.0 12.2
v 56.0 -11.0 3.7
v 56.0 -11.4 4.0
v 55.4 -11.0 11.0
v 56.0 -11.0 12.0
v 56.0 -11.0 12.0
v 56.0 -10.0 3.4
v 56.0 -10.4 10.0
v 56.0 -10.0 9.6
v 56.0 -10.6 11.0
v 56.0 -11.0 12.0
v 56.0 -9.0 2.7
v 56.0 -9.4 3.0
v 56.0 -9.0 9.3
v 55.6 -8.0 2.0
v 56.0 -8.0 2.3
v 55.7 -8.0 8.0
v 56.0 -8.0 8.2
v 56.0 -8.7 9.0
v 55.1 -7.0 1.0
v 56.0 -7.0 1.8
v 56.0 -7.3 2.0
v 56.0 -7.8 8.0
v 56.0 -7.0 7.5
v 56.0 -6.8 2.0
v 56.0 -6.0 2.7
v 56.0 -6.0 7.2
v 56.0 -5.7 3.0
v 56.0 -5.5 4.0
v 56.0 -5.5 5.0
v 56.0 -5.5 6.0
v 56.0 -5.8 7.0
v 56.3 -13.0 8.0
v 56.6 -13.0 9.0
v 57.0 -13.0 9.6
v 57.0 -13.2 10.0
v 57.0 -13.2 11.0
v 57.0 -13.0 11.2
v 56.4 -12.0 5.0
v 56.5 -12.0 6.0
v 56.6 -12.0 7.0
v 57.0 -12.0 7.5
v 57.0 -12.4 8.0
v 57.0 -12.6 9.0
v 56.3 -12.0 12.0
v 57.0 -12.0 11.4
v 56.4 -11.0 4.0
v 57.0 -11.0 4.5
v 57.0 -11.4 5.0
v 57.0 -11.6 6.0
v 57.0 -11.7 7.0
v 56.0 -11.0 12.0
v 57.0 -11.0 11.3
v 57.0 -10.0 3.7
v 57.0 -10.4 4.0
v 57.0 -10.6 10.0
v 57.0 -10.0 9.4
v 57.0 -10.8 11.0
v 56.5 -9.0 3.0
v 57.0 -9.0 3.3
v 56.4 -9.0 9.0
v 57.0 -9.5 9.0
v 57.0 -9.0 8.5
v 57.0 -8.0 2.6
v 57.0 -8.6 3.0
v 56.6 -8.0 7.0
v 57.0 -8.7 7.0
v 57.0 -8.0 6.6
v 56.2 -8.0 8.0
v 57.0 -8.6 8.0
v 56.2 -7.0 2.0
v 57.0 -7.0 2.6
v 56.5 -7.0 7.0
v 57.0 -7.0 6.5
v 56.4 -6.0 3.0
v 57.0 -6.5 3.0
v 57.0 -6.0 3.6
v 56.3 -6.0 7.0
v 57.0 -6.0 6.4
v 57.0 -5.7 4.0
v 57.0 -5.5 5.0
v 57.0 -5.6 6.0
v 57.2 -13.0 10.0
v 57.2 -13.0 11.0
v 57.3 -12.0 8.0
v 57.4 -12.0 9.0
v 57.5 -12.0 10.0
v 57.4 -12.0 11.0
v 57.5 -11.0 5.0
v 58.0 -11.0 5.8
v 58.0 -11.1 6.0
v 57.8 -11.0 7.0
v 58.0 -11.0 6.3
v 58.0 -11.0 7.7
v 58.0 -11.1 8.0
v 58.0 -11.0 8.2
v 57.6 -11.0 9.0
v 57.4 -11.0 10.0
v 57.2 -11.0 11.0
v 57.4 -10.0 4.0
v 58.0 -10.0 4.5
v 58.0 -10.5 5.0
v 58.0 -10.7 7.0
v 57.4 -10.0 9.0
v 58.0 -10.0 8.4
v 58.0 -9.0 3.6
v 58.0 -9.5 4.0
v 58.0 -9.0 8.1
v 58.0 -8.0 2.9
v 58.0 -8.1 3.0
v 57.7 -8.0 6.0
v 58.0 -8.4 6.0
v 58.0 -8.0 5.7
v 58.0 -8.7 7.0
v 58.0 -8.9 8.0
v 58.0 -7.8 3.0
v 57.5 -7.0 3.0
v 58.0 -7.0 3.4
v 57.6 -7.0 6.0
v 58.0 -7.0 5.6
v 57.5 -6.0 4.0
v 58.0 -6.4 4.0
v 58.0 -6.0 4.7
v 58.0 -6.0 6.0
v 58.0 -6.0 6.0
v 58.0 -5.8 5.0
v 58.0 -6.0 6.0
v 58.1 -11.0 6.0
v 58.1 -11.0 8.0
v 58.4 -10.0 5.0
v 58.5 -10.0 6.0
v 58.4 -10.0 7.0
v 58.3 -10.0 8.0
v 58.5 -9.0 4.0
v 59.0 -9.0 4.8
v 59.0 -9.1 5.0
v 59.0 -9.0 5.1
v 58.5 -9.0 6.0
v 58.3 -9.0 7.0
v 58.1 -9.0 8.0
v 58.1 -8.0 3.0
v 59.0 -8.0 3.7
v 59.0 -8.4 4.0
v 59.0 -8.0 5.2
v 59.0 -7.0 4.0
v 58.6 -7.0 5.0
v 59.0 -7.7 5.0
v 59.0 -7.0 4.0
v 59.0 -7.0 4.0
v 58.2 -6.0 5.0
v 58.0 -6.0 6.0
v 59.1 -9.0 5.0
v 59.2 -8.0 4.0
v 59.2 -8.0 5.0
v 59.0 -7.0 4.0
f 3 2 1
f 1 4 3
f 1 2 5
f 5 2 6
f 4 1 7
f 1 8 7
f 1 5 8
f 8 9 7
f 6 10 5
f 5 10 8
f 8 10 11
f 8 11 9
f 14 13 12
f 12 15 14
f 12 13 16
f 16 13 17
f 15 12 18
f 12 19 18
f 12 16 19
f 21 20 19
f 19 20 18
f 23 22 21
f 21 22 20
f 25 24 23
f 23 24 22
f 27 26 25
f 25 26 24
f 29 28 27
f 27 28 26
f 31 30 29
f 29 30 28
f 31 32 30
f 16 17 33
f 33 17 34
f 16 35 19
f 16 33 35
f 19 36 21
f 19 35 36
f 21 37 23
f 21 36 37
f 23 38 25
f 23 37 38
f 25 39 27
f 25 38 39
f 27 40 29
f 27 39 40
f 42 31 41
f 31 40 41
f 31 29 40
f 31 42 32
f 45 44 43
f 45 43 34
f 43 33 34
f 43 46 33
f 48 35 47
f 35 46 47
f 35 33 46
f 35 48 36
f 36 48 49
f 36 49 37
f 37 49 50
f 37 50 38
f 38 50 51
f 38 51 39
f 39 51 52
f 39 52 40
f 40 52 53
f 40 53 41
f 56 55 54
f 58 57 54
f 54 57 56
f 59 43 44
f 58 60 57
f 43 59 46
f 46 59 61
f 46 61 47
f 54 55 3
f 55 2 3
f 55 62 2
f 54 3 4
f 63 54 4
f 58 54 63
f 60 58 64
f 64 58 63
f 62 6 2
f 65 6 62
f 7 63 4
f 7 9 63
f 9 64 63
f 9 66 64
f 65 67 6
f 6 67 10
f 10 68 11
f 67 68 10
f 9 11 66
f 66 11 68
f 70 69 14
f 14 69 13
f 72 71 15
f 71 14 15
f 71 70 14
f 74 73 72
f 72 73 71
f 76 75 74
f 74 75 73
f 78 77 76
f 76 77 75
f 80 79 78
f 78 79 77
f 82 81 80
f 80 81 79
f 84 83 82
f 82 83 81
f 86 85 84
f 84 85 83
f 88 87 86
f 86 87 85
f 88 89 87
f 69 17 13
f 90 17 69
f 18 72 15
f 72 18 20
f 72 20 74
f 74 20 22
f 74 22 76
f 76 22 24
f 76 24 78
f 78 24 26
f 78 26 80
f 80 26 28
f 80 28 82
f 82 28 30
f 82 30 84
f 84 30 32
f 91 84 32
f 86 84 91
f 86 92 88
f 86 91 92
f 89 88 93
f 93 88 92
f 90 34 17
f 94 34 90
f 41 95 42
f 91 32 42
f 95 91 42
f 96 91 95
f 91 97 92
f 91 96 97
f 93 92 98
f 98 92 97
f 100 99 45
f 45 99 44
f 45 34 94
f 45 94 100
f 47 101 48
f 102 49 48
f 102 48 101
f 103 50 49
f 103 49 102
f 104 51 50
f 104 50 103
f 105 52 51
f 105 51 104
f 106 53 52
f 106 52 105
f 95 41 53
f 106 95 53
f 107 95 106
f 95 108 96
f 95 107 108
f 96 109 97
f 96 108 109
f 98 97 110
f 110 97 109
f 111 55 56
f 111 56 112
f 56 113 112
f 56 57 113
f 99 59 44
f 59 99 114
f 113 114 99
f 114 113 60
f 57 60 113
f 115 61 59
f 115 59 114
f 115 116 61
f 61 116 47
f 116 117 47
f 117 101 47
f 101 117 102
f 102 117 118
f 102 118 103
f 103 118 119
f 103 119 104
f 104 119 120
f 104 120 105
f 105 120 121
f 123 122 121
f 122 105 121
f 122 106 105
f 106 124 107
f 106 122 124
f 107 125 108
f 107 124 125
f 108 126 109
f 108 125 126
f 110 109 127
f 127 109 126
f 129 128 111
f 128 55 111
f 128 62 55
f 129 111 112
f 64 130 114
f 64 114 60
f 114 131 115
f 114 130 131
f 116 115 132
f 132 115 131
f 123 133 122
f 122 133 124
f 124 133 134
f 124 134 125
f 125 134 135
f 125 135 126
f 126 135 136
f 126 136 127
f 128 65 62
f 137 65 128
f 139 138 130
f 64 139 130
f 66 139 64
f 130 138 131
f 131 138 140
f 131 140 132
f 67 65 141
f 65 142 141
f 65 137 142
f 67 141 143
f 144 67 143
f 68 67 144
f 66 68 139
f 139 68 144
f 142 145 141
f 141 145 143
f 148 147 146
f 150 149 146
f 146 149 148
f 152 151 150
f 150 151 149
f 154 153 152
f 152 153 151
f 156 155 154
f 154 155 153
f 156 157 155
f 160 159 158
f 162 161 158
f 158 161 160
f 162 163 161
f 165 164 70
f 70 164 69
f 166 70 71
f 166 165 70
f 167 71 73
f 167 166 71
f 75 146 147
f 167 75 147
f 73 75 167
f 146 75 77
f 146 77 150
f 150 77 79
f 150 79 152
f 152 79 81
f 152 81 154
f 154 81 83
f 154 83 156
f 168 157 156
f 83 168 156
f 85 168 83
f 169 85 87
f 169 168 85
f 170 158 89
f 158 169 89
f 169 87 89
f 158 159 169
f 158 171 162
f 158 170 171
f 163 162 172
f 172 162 171
f 164 90 69
f 173 90 164
f 175 174 170
f 89 175 170
f 93 175 89
f 170 174 171
f 171 174 176
f 171 176 172
f 179 178 177
f 173 179 177
f 94 173 177
f 90 173 94
f 98 175 93
f 98 180 175
f 177 178 100
f 178 99 100
f 178 181 99
f 177 100 94
f 110 180 98
f 110 182 180
f 184 183 113
f 113 183 112
f 113 99 181
f 113 181 184
f 116 185 117
f 186 118 117
f 186 117 185
f 187 119 118
f 187 118 186
f 188 120 119
f 188 119 187
f 189 121 120
f 189 120 188
f 189 123 121
f 127 182 110
f 127 190 182
f 191 128 129
f 192 191 129
f 112 192 129
f 183 192 112
f 132 193 185
f 132 185 116
f 195 186 194
f 186 193 194
f 186 185 193
f 186 195 187
f 187 195 196
f 187 196 188
f 188 196 197
f 188 197 189
f 189 197 198
f 189 198 123
f 198 133 123
f 198 199 133
f 199 201 200
f 134 199 200
f 133 199 134
f 202 135 134
f 202 134 200
f 135 202 203
f 204 135 203
f 136 135 204
f 127 136 190
f 190 136 204
f 205 137 191
f 191 137 128
f 191 192 206
f 191 206 205
f 139 207 138
f 208 140 138
f 208 138 207
f 193 132 140
f 208 193 140
f 209 193 208
f 194 193 210
f 193 211 210
f 193 209 211
f 213 212 211
f 211 212 210
f 215 214 213
f 213 214 212
f 215 216 214
f 201 217 200
f 200 217 202
f 202 217 218
f 202 218 203
f 220 219 205
f 219 137 205
f 219 142 137
f 144 143 221
f 205 206 220
f 221 222 144
f 144 222 139
f 222 223 139
f 223 207 139
f 207 223 208
f 208 223 224
f 208 224 209
f 209 224 225
f 209 225 211
f 211 225 226
f 211 226 213
f 213 226 227
f 213 227 215
f 215 227 228
f 215 228 216
f 219 229 142
f 142 229 145
f 143 145 221
f 145 230 221
f 145 229 230
f 221 230 222
f 233 232 231
f 235 234 231
f 231 234 233
f 237 236 235
f 235 236 234
f 237 238 236
f 241 240 239
f 243 242 239
f 239 242 241
f 243 244 242
f 247 246 245
f 249 248 245
f 245 248 247
f 248 249 232
f 232 249 231
f 249 147 231
f 147 148 231
f 231 148 149
f 231 149 235
f 235 149 151
f 235 151 237
f 250 238 237
f 151 250 237
f 153 250 151
f 251 153 155
f 251 250 153
f 253 252 157
f 252 155 157
f 252 251 155
f 252 253 240
f 253 239 240
f 253 254 239
f 254 159 160
f 243 254 160
f 239 254 243
f 255 244 243
f 160 255 243
f 161 255 160
f 161 163 255
f 255 163 256
f 257 164 165
f 246 258 245
f 258 165 245
f 165 166 245
f 165 258 257
f 245 166 167
f 245 167 249
f 249 167 147
f 168 253 157
f 253 168 169
f 253 169 254
f 254 169 159
f 172 256 163
f 172 259 256
f 261 260 257
f 260 164 257
f 260 173 164
f 261 257 258
f 263 262 174
f 263 174 175
f 174 264 176
f 262 264 174
f 172 176 259
f 259 176 264
f 265 178 179
f 266 265 179
f 173 266 179
f 260 266 173
f 180 263 175
f 180 267 263
f 269 268 265
f 268 178 265
f 268 181 178
f 269 265 266
f 182 267 180
f 182 270 267
f 271 183 184
f 272 271 184
f 181 272 184
f 268 272 181
f 190 270 182
f 190 273 270
f 275 274 271
f 274 183 271
f 274 192 183
f 275 271 272
f 194 276 195
f 277 196 195
f 277 195 276
f 278 197 196
f 278 196 277
f 279 198 197
f 279 197 278
f 280 199 198
f 280 198 279
f 280 201 199
f 283 282 281
f 204 203 281
f 282 204 281
f 284 204 282
f 190 204 273
f 273 204 284
f 274 206 192
f 285 206 274
f 210 276 194
f 276 210 212
f 276 212 277
f 277 212 214
f 277 214 278
f 279 278 286
f 278 216 286
f 216 287 286
f 216 278 214
f 279 286 280
f 280 286 288
f 288 290 289
f 288 289 217
f 280 288 217
f 201 280 217
f 291 283 281
f 217 291 281
f 218 217 281
f 291 217 289
f 218 281 203
f 293 292 220
f 220 292 219
f 220 206 285
f 220 285 293
f 222 294 223
f 295 224 223
f 295 223 294
f 296 225 224
f 296 224 295
f 297 226 225
f 297 225 296
f 298 227 226
f 298 226 297
f 299 228 227
f 299 227 298
f 287 216 300
f 216 299 300
f 299 301 300
f 216 228 299
f 301 302 300
f 290 303 289
f 289 303 291
f 292 304 219
f 219 304 229
f 304 306 305
f 230 304 305
f 229 304 230
f 305 307 230
f 230 307 222
f 307 308 222
f 308 294 222
f 294 308 295
f 295 308 309
f 311 310 309
f 310 295 309
f 310 296 295
f 296 312 297
f 296 310 312
f 297 313 298
f 297 312 313
f 315 299 314
f 299 313 314
f 299 298 313
f 299 315 301
f 301 315 316
f 301 316 302
f 319 318 317
f 320 305 306
f 317 321 319
f 305 320 307
f 311 322 310
f 324 323 322
f 323 310 322
f 323 312 310
f 312 325 313
f 312 323 325
f 314 313 326
f 326 313 325
f 317 318 327
f 327 318 328
f 321 317 329
f 329 317 327
f 324 330 323
f 323 330 325
f 325 330 331
f 325 331 326
f 328 332 327
f 327 332 329
f 334 333 233
f 233 333 232
f 336 334 335
f 334 234 335
f 334 233 234
f 335 234 337
f 234 338 337
f 234 236 338
f 340 339 238
f 339 236 238
f 339 338 236
f 342 341 340
f 340 341 339
f 344 343 342
f 342 343 341
f 240 241 344
f 241 343 344
f 241 345 343
f 347 345 346
f 345 242 346
f 345 241 242
f 244 346 242
f 349 348 247
f 247 348 246
f 350 247 248
f 350 349 247
f 248 232 333
f 248 333 350
f 351 336 335
f 351 335 337
f 250 340 238
f 340 250 251
f 340 251 342
f 342 251 252
f 342 252 344
f 344 252 240
f 352 347 346
f 354 352 353
f 353 352 255
f 352 346 255
f 346 244 255
f 256 353 255
f 348 258 246
f 355 258 348
f 354 353 356
f 354 356 357
f 259 356 256
f 256 356 353
f 358 260 261
f 359 358 261
f 258 359 261
f 355 359 258
f 263 360 262
f 361 357 356
f 262 361 356
f 264 262 356
f 361 262 360
f 264 356 259
f 363 362 358
f 362 260 358
f 362 266 260
f 363 358 359
f 267 364 360
f 267 360 263
f 361 360 365
f 365 360 364
f 367 366 269
f 269 366 268
f 269 266 362
f 269 362 367
f 369 368 364
f 267 369 364
f 270 369 267
f 364 368 365
f 366 272 268
f 370 272 366
f 373 372 371
f 372 369 371
f 369 273 371
f 369 270 273
f 375 374 275
f 275 374 274
f 275 272 370
f 275 370 375
f 377 376 282
f 377 282 283
f 371 284 373
f 284 376 373
f 284 282 376
f 284 371 273
f 374 285 274
f 378 285 374
f 287 379 286
f 380 288 286
f 380 286 379
f 380 290 288
f 291 377 283
f 291 381 377
f 382 292 293
f 383 382 293
f 285 383 293
f 378 383 285
f 300 379 287
f 380 379 384
f 379 302 384
f 302 385 384
f 302 379 300
f 380 384 290
f 384 303 290
f 384 386 303
f 291 303 381
f 381 303 386
f 304 292 382
f 389 388 387
f 306 387 388
f 306 383 387
f 306 304 382
f 383 306 382
f 307 390 308
f 391 309 308
f 391 308 390
f 391 311 309
f 314 392 315
f 315 392 393
f 394 315 393
f 316 315 394
f 302 316 385
f 385 316 394
f 388 389 319
f 389 318 319
f 389 395 318
f 396 319 321
f 396 388 319
f 396 320 306
f 388 396 306
f 390 307 320
f 396 390 320
f 397 390 396
f 390 398 391
f 390 397 398
f 399 322 311
f 391 399 311
f 398 399 391
f 399 324 322
f 401 400 392
f 314 401 392
f 326 401 314
f 392 400 393
f 395 328 318
f 402 328 395
f 329 403 396
f 329 396 321
f 396 404 397
f 396 403 404
f 397 405 398
f 397 404 405
f 398 406 399
f 398 405 406
f 407 330 324
f 399 407 324
f 406 407 399
f 330 407 408
f 409 330 408
f 331 330 409
f 326 331 401
f 401 331 409
f 402 410 328
f 328 410 332
f 329 332 403
f 332 411 403
f 332 410 411
f 403 411 404
f 404 411 412
f 404 412 405
f 405 412 413
f 405 413 406
f 406 413 414
f 406 414 407
f 407 414 415
f 407 415 408
f 416 333 334
f 336 416 334
f 417 337 338
f 339 418 338
f 338 418 417
f 341 419 339
f 339 419 418
f 343 420 341
f 341 420 419
f 345 421 343
f 343 421 420
f 347 421 345
f 422 348 349
f 350 423 349
f 349 423 422
f 424 423 350
f 424 350 333
f 425 424 333
f 416 425 333
f 425 416 336
f 351 425 336
f 426 425 351
f 351 337 417
f 427 351 417
f 426 351 427
f 427 417 418
f 427 418 428
f 428 418 419
f 428 419 429
f 431 430 429
f 419 431 429
f 420 431 419
f 421 433 432
f 431 421 432
f 420 421 431
f 435 433 434
f 434 433 352
f 433 421 352
f 421 347 352
f 354 434 352
f 436 355 422
f 422 355 348
f 423 438 437
f 436 423 437
f 422 423 436
f 438 423 424
f 439 430 431
f 439 431 432
f 435 434 440
f 435 440 441
f 357 440 354
f 354 440 434
f 443 442 436
f 442 355 436
f 442 359 355
f 443 436 437
f 441 440 444
f 441 444 445
f 361 444 357
f 357 444 440
f 447 446 363
f 363 446 362
f 363 359 442
f 363 442 447
f 445 444 448
f 445 448 449
f 365 448 361
f 361 448 444
f 450 366 367
f 451 450 367
f 362 451 367
f 446 451 362
f 449 448 368
f 369 449 368
f 452 449 369
f 368 448 365
f 454 453 450
f 453 366 450
f 453 370 366
f 454 450 451
f 456 455 372
f 456 372 373
f 369 372 452
f 452 372 455
f 458 457 375
f 375 457 374
f 375 370 453
f 375 453 458
f 377 459 376
f 459 460 376
f 460 373 376
f 460 456 373
f 457 378 374
f 461 378 457
f 381 462 459
f 381 459 377
f 460 459 463
f 463 459 462
f 461 383 378
f 464 383 461
f 385 465 384
f 466 386 384
f 466 384 465
f 466 467 386
f 386 467 381
f 467 468 381
f 468 462 381
f 462 468 463
f 469 389 387
f 470 469 387
f 383 470 387
f 464 470 383
f 472 471 394
f 472 394 393
f 385 394 465
f 394 473 465
f 394 471 473
f 465 473 466
f 466 473 474
f 466 474 467
f 476 475 469
f 475 389 469
f 475 395 389
f 476 469 470
f 401 477 400
f 477 478 400
f 478 393 400
f 478 472 393
f 475 402 395
f 479 402 475
f 482 481 480
f 483 480 481
f 408 484 409
f 484 485 409
f 409 485 401
f 485 486 401
f 486 477 401
f 477 486 478
f 479 487 402
f 402 487 410
f 480 411 482
f 411 487 482
f 411 410 487
f 483 488 480
f 488 411 480
f 488 412 411
f 412 489 413
f 488 489 412
f 413 490 414
f 489 490 413
f 414 491 415
f 490 491 414
f 408 415 484
f 415 492 484
f 415 491 492
f 484 492 485
f 493 424 425
f 426 494 425
f 425 494 493
f 427 495 426
f 426 495 494
f 495 427 496
f 427 497 496
f 427 428 497
f 499 497 498
f 497 429 498
f 497 428 429
f 430 498 429
f 500 432 433
f 435 500 433
f 501 437 438
f 502 501 438
f 502 438 424
f 503 502 424
f 493 503 424
f 503 493 494
f 503 494 504
f 504 494 495
f 504 495 505
f 505 495 496
f 506 499 498
f 506 498 430
f 439 506 430
f 507 506 439
f 439 432 500
f 508 439 500
f 507 439 508
f 500 435 508
f 435 509 508
f 435 441 509
f 510 442 443
f 437 501 443
f 501 510 443
f 501 511 510
f 501 502 512
f 501 512 511
f 445 509 441
f 445 513 509
f 515 514 447
f 447 514 446
f 515 447 442
f 516 515 442
f 510 516 442
f 515 516 517
f 511 519 518
f 516 511 518
f 510 511 516
f 519 511 512
f 449 513 445
f 449 520 513
f 514 451 446
f 521 451 514
f 522 517 516
f 522 516 518
f 452 520 449
f 452 523 520
f 524 453 454
f 451 521 525
f 524 451 525
f 526 524 525
f 454 451 524
f 527 526 525
f 529 528 455
f 529 455 456
f 452 455 523
f 523 455 528
f 530 457 458
f 531 530 458
f 531 458 453
f 532 531 453
f 524 532 453
f 532 524 526
f 532 526 533
f 533 526 527
f 460 529 456
f 460 534 529
f 536 535 530
f 535 457 530
f 535 461 457
f 536 530 531
f 463 534 460
f 463 537 534
f 535 464 461
f 538 464 535
f 540 539 468
f 540 468 467
f 463 468 537
f 537 468 539
f 538 470 464
f 541 470 538
f 543 542 471
f 543 471 472
f 471 544 473
f 542 544 471
f 473 545 474
f 544 545 473
f 467 474 540
f 540 474 545
f 547 546 476
f 476 546 475
f 476 470 541
f 476 541 547
f 478 543 472
f 478 548 543
f 550 479 549
f 479 546 549
f 479 475 546
f 481 482 550
f 549 481 550
f 551 481 549
f 483 481 551
f 483 551 552
f 554 553 486
f 554 486 485
f 478 486 548
f 548 486 553
f 550 487 479
f 487 550 482
f 552 555 483
f 483 555 488
f 488 556 489
f 555 556 488
f 489 557 490
f 556 557 489
f 557 559 558
f 491 557 558
f 490 557 491
f 491 558 560
f 561 491 560
f 492 491 561
f 485 492 554
f 554 492 561
f 559 562 558
f 558 562 560
f 563 496 497
f 499 563 497
f 564 502 503
f 504 565 503
f 503 565 564
f 565 504 566
f 504 567 566
f 504 505 567
f 505 496 563
f 568 505 563
f 567 505 568
f 568 563 499
f 506 568 499
f 569 568 506
f 570 506 507
f 570 569 506
f 571 507 508
f 571 570 507
f 508 509 571
f 571 509 572
f 573 512 564
f 564 512 502
f 565 575 574
f 573 565 574
f 564 565 573
f 575 565 566
f 578 577 576
f 577 572 576
f 572 513 576
f 572 509 513
f 579 514 515
f 517 579 515
f 580 518 519
f 581 580 519
f 581 519 512
f 582 581 512
f 573 582 512
f 582 573 574
f 578 576 583
f 578 583 584
f 520 583 513
f 513 583 576
f 585 521 579
f 579 521 514
f 522 586 517
f 586 579 517
f 586 585 579
f 518 580 522
f 580 586 522
f 580 587 586
f 580 581 588
f 580 588 587
f 589 584 583
f 583 520 589
f 520 590 589
f 520 523 590
f 585 525 521
f 525 585 527
f 585 591 527
f 585 586 591
f 587 593 592
f 591 587 592
f 586 587 591
f 593 587 588
f 595 594 528
f 595 528 529
f 523 528 590
f 590 528 594
f 596 531 532
f 533 597 532
f 532 597 596
f 598 597 533
f 598 533 527
f 599 598 527
f 591 599 527
f 599 591 592
f 534 595 529
f 534 600 595
f 602 601 536
f 536 601 535
f 536 531 596
f 603 536 596
f 602 536 603
f 603 596 597
f 603 597 604
f 604 597 598
f 537 600 534
f 537 605 600
f 601 538 535
f 606 538 601
f 608 607 539
f 608 539 540
f 537 539 605
f 605 539 607
f 606 541 538
f 609 541 606
f 543 610 542
f 542 610 611
f 612 542 611
f 544 542 612
f 544 613 545
f 612 613 544
f 540 545 608
f 608 545 613
f 614 546 547
f 615 614 547
f 541 615 547
f 609 615 541
f 617 616 610
f 543 617 610
f 548 617 543
f 610 616 611
f 614 549 546
f 615 618 614
f 618 549 614
f 618 551 549
f 552 551 618
f 552 618 619
f 621 620 553
f 621 553 554
f 548 553 617
f 617 553 620
f 619 622 552
f 552 622 555
f 555 623 556
f 622 623 555
f 623 625 624
f 557 623 624
f 556 623 557
f 624 559 557
f 627 626 561
f 627 561 560
f 554 561 621
f 621 561 626
f 625 628 624
f 624 628 559
f 628 562 559
f 628 629 562
f 560 562 627
f 627 562 629
f 630 566 567
f 568 631 567
f 567 631 630
f 569 632 568
f 568 632 631
f 632 569 633
f 569 634 633
f 569 570 634
f 635 570 571
f 635 634 570
f 571 572 635
f 635 572 636
f 638 637 575
f 575 637 574
f 638 575 566
f 639 638 566
f 630 639 566
f 638 639 640
f 631 642 641
f 639 631 641
f 630 631 639
f 642 631 632
f 642 632 643
f 643 632 633
f 645 644 577
f 645 577 578
f 572 577 636
f 636 577 644
f 646 581 582
f 647 646 582
f 574 647 582
f 637 647 574
f 648 640 639
f 648 639 641
f 584 645 578
f 584 649 645
f 651 650 646
f 650 581 646
f 650 588 581
f 651 646 647
f 652 649 584
f 652 584 589
f 589 590 652
f 652 590 653
f 654 592 593
f 655 654 593
f 588 655 593
f 650 655 588
f 595 656 594
f 656 657 594
f 657 590 594
f 657 653 590
f 658 598 599
f 659 658 599
f 659 599 592
f 660 659 592
f 654 660 592
f 660 654 655
f 600 661 656
f 600 656 595
f 657 656 662
f 662 656 661
f 663 601 602
f 603 664 602
f 602 664 663
f 604 665 603
f 603 665 664
f 666 665 604
f 666 604 598
f 667 666 598
f 658 667 598
f 667 658 659
f 669 668 661
f 600 669 661
f 605 669 600
f 661 668 662
f 671 670 663
f 670 601 663
f 670 606 601
f 671 663 664
f 671 664 672
f 672 664 665
f 672 665 673
f 673 665 666
f 675 674 607
f 675 607 608
f 605 607 669
f 669 607 674
f 670 609 606
f 676 609 670
f 678 677 612
f 678 612 611
f 612 679 613
f 677 679 612
f 608 613 675
f 675 613 679
f 676 615 609
f 680 615 676
f 682 681 616
f 682 616 617
f 611 616 678
f 678 616 681
f 680 683 615
f 615 683 618
f 619 618 683
f 619 683 684
f 621 685 620
f 685 686 620
f 686 617 620
f 686 682 617
f 684 687 619
f 619 687 622
f 622 688 623
f 687 688 622
f 690 689 625
f 623 690 625
f 688 690 623
f 691 689 690
f 693 692 626
f 693 626 627
f 621 626 685
f 626 694 685
f 626 692 694
f 685 694 686
f 689 628 625
f 691 695 689
f 695 628 689
f 695 629 628
f 627 629 693
f 693 629 695
f 696 633 634
f 635 697 634
f 634 697 696
f 636 697 635
f 698 637 638
f 640 698 638
f 699 641 642
f 699 642 700
f 642 701 700
f 642 643 701
f 701 643 633
f 702 701 633
f 696 702 633
f 701 702 703
f 645 702 644
f 702 697 644
f 702 696 697
f 644 697 636
f 704 647 698
f 698 647 637
f 704 698 640
f 705 704 640
f 648 705 640
f 706 704 705
f 705 648 641
f 707 705 641
f 699 707 641
f 705 707 708
f 699 700 709
f 699 709 707
f 703 702 710
f 703 710 711
f 649 710 645
f 645 710 702
f 712 650 651
f 713 712 651
f 713 651 647
f 714 713 647
f 704 714 647
f 714 704 706
f 715 708 707
f 715 707 709
f 716 711 710
f 718 716 717
f 717 716 652
f 716 710 652
f 710 649 652
f 653 717 652
f 720 719 712
f 719 650 712
f 719 655 650
f 720 712 713
f 721 718 717
f 717 653 721
f 653 722 721
f 653 657 722
f 724 723 660
f 660 723 659
f 660 655 719
f 660 719 724
f 662 722 657
f 662 725 722
f 727 726 667
f 667 726 666
f 667 659 723
f 667 723 727
f 729 728 668
f 729 668 669
f 662 668 725
f 725 668 728
f 730 670 671
f 672 731 671
f 671 731 730
f 673 732 672
f 672 732 731
f 733 732 673
f 666 733 673
f 726 733 666
f 735 734 674
f 735 674 675
f 669 674 729
f 729 674 734
f 737 736 730
f 736 670 730
f 736 676 670
f 737 730 731
f 737 731 738
f 738 731 732
f 738 732 739
f 739 732 733
f 741 740 677
f 741 677 678
f 740 743 742
f 679 740 742
f 677 740 679
f 742 744 679
f 744 675 679
f 744 735 675
f 736 680 676
f 745 680 736
f 682 746 681
f 746 747 681
f 747 678 681
f 747 741 678
f 743 748 742
f 742 748 744
f 745 749 680
f 680 749 683
f 684 683 749
f 684 749 750
f 686 751 746
f 686 746 682
f 747 746 752
f 752 746 751
f 750 753 684
f 684 753 687
f 687 754 688
f 753 754 687
f 688 755 690
f 754 755 688
f 757 756 691
f 690 757 691
f 755 757 690
f 692 693 756
f 757 692 756
f 758 692 757
f 692 759 694
f 758 759 692
f 686 694 751
f 694 760 751
f 694 759 760
f 751 760 752
f 756 695 691
f 695 756 693
f 761 700 701
f 703 761 701
f 762 706 705
f 708 762 705
f 764 763 761
f 763 700 761
f 763 709 700
f 761 703 764
f 703 765 764
f 703 711 765
f 767 766 714
f 714 766 713
f 714 706 762
f 768 714 762
f 767 714 768
f 768 762 708
f 715 768 708
f 769 768 715
f 715 709 763
f 715 763 769
f 770 765 711
f 770 711 716
f 716 718 770
f 770 718 771
f 773 772 720
f 720 772 719
f 720 713 766
f 720 766 773
f 774 771 718
f 774 718 721
f 721 722 774
f 774 722 775
f 777 776 724
f 724 776 723
f 724 719 772
f 724 772 777
f 725 775 722
f 725 778 775
f 779 726 727
f 780 779 727
f 723 780 727
f 776 780 723
f 782 781 728
f 782 728 729
f 725 728 778
f 778 728 781
f 784 783 779
f 783 726 779
f 783 733 726
f 784 779 780
f 786 785 734
f 786 734 735
f 729 734 782
f 782 734 785
f 787 736 737
f 738 788 737
f 737 788 787
f 788 738 789
f 738 790 789
f 738 739 790
f 739 733 783
f 739 783 790
f 792 791 740
f 792 740 741
f 743 740 791
f 743 791 793
f 744 786 735
f 744 794 786
f 795 745 787
f 787 745 736
f 788 797 796
f 795 788 796
f 787 788 795
f 797 788 789
f 747 792 741
f 747 798 792
f 793 799 743
f 743 799 748
f 744 748 794
f 794 748 799
f 795 749 745
f 750 749 795
f 796 750 795
f 800 750 796
f 752 798 747
f 752 801 798
f 800 802 750
f 750 802 753
f 753 803 754
f 802 803 753
f 803 805 804
f 755 803 804
f 754 803 755
f 806 757 755
f 806 755 804
f 807 758 757
f 807 757 806
f 808 759 758
f 808 758 807
f 759 808 809
f 810 759 809
f 760 759 810
f 752 760 801
f 801 760 810
f 805 811 804
f 804 811 806
f 806 811 812
f 806 812 807
f 807 812 813
f 807 813 808
f 808 813 814
f 808 814 809
f 815 763 764
f 765 815 764
f 816 766 767
f 768 817 767
f 767 817 816
f 769 818 768
f 768 818 817
f 819 818 769
f 819 769 763
f 820 819 763
f 815 820 763
f 822 820 821
f 821 820 770
f 820 815 770
f 815 765 770
f 771 821 770
f 824 823 773
f 773 823 772
f 773 766 816
f 825 773 816
f 824 773 825
f 825 816 817
f 825 817 826
f 826 817 818
f 826 818 827
f 827 818 819
f 828 822 821
f 828 821 771
f 774 828 771
f 829 828 774
f 831 830 775
f 830 774 775
f 830 829 774
f 831 832 830
f 834 833 777
f 777 833 776
f 777 772 823
f 777 823 834
f 778 835 831
f 778 831 775
f 832 831 836
f 836 831 835
f 833 780 776
f 837 780 833
f 839 838 781
f 839 781 782
f 778 781 835
f 781 840 835
f 781 838 840
f 835 840 836
f 841 783 784
f 842 841 784
f 780 842 784
f 837 842 780
f 844 843 785
f 844 785 786
f 782 785 839
f 839 785 843
f 845 789 790
f 846 845 790
f 846 790 783
f 847 846 783
f 841 847 783
f 847 841 842
f 792 848 791
f 848 793 791
f 794 844 786
f 794 849 844
f 850 796 797
f 851 850 797
f 851 797 789
f 852 851 789
f 845 852 789
f 852 845 846
f 854 853 848
f 792 854 848
f 798 854 792
f 848 853 793
f 853 799 793
f 853 855 799
f 794 799 849
f 849 799 855
f 857 856 850
f 856 796 850
f 856 800 796
f 857 850 851
f 801 854 798
f 801 858 854
f 856 859 800
f 800 859 802
f 802 860 803
f 859 860 802
f 805 803 860
f 805 860 861
f 809 862 810
f 862 863 810
f 863 801 810
f 863 858 801
f 861 864 805
f 805 864 811
f 811 865 812
f 864 865 811
f 812 866 813
f 865 866 812
f 813 867 814
f 866 867 813
f 809 814 862
f 814 868 862
f 814 867 868
f 862 868 863
f 869 819 820
f 822 869 820
f 870 823 824
f 825 871 824
f 824 871 870
f 826 872 825
f 825 872 871
f 872 826 873
f 826 874 873
f 826 827 874
f 827 819 869
f 875 827 869
f 874 827 875
f 875 869 822
f 828 875 822
f 876 875 828
f 877 828 829
f 877 876 828
f 879 877 878
f 877 830 878
f 877 829 830
f 832 878 830
f 880 833 834
f 881 880 834
f 881 834 823
f 882 881 823
f 870 882 823
f 882 870 871
f 882 871 883
f 883 871 872
f 883 872 884
f 884 872 873
f 885 879 878
f 878 832 885
f 832 886 885
f 832 836 886
f 888 887 880
f 887 833 880
f 887 837 833
f 888 880 881
f 839 889 838
f 890 840 838
f 890 838 889
f 890 891 840
f 891 836 840
f 891 886 836
f 887 842 837
f 892 842 887
f 894 893 843
f 894 843 844
f 839 843 889
f 843 895 889
f 843 893 895
f 889 895 890
f 890 895 896
f 890 896 891
f 898 897 847
f 847 897 846
f 847 842 892
f 847 892 898
f 849 894 844
f 849 899 894
f 900 851 852
f 901 900 852
f 846 901 852
f 897 901 846
f 854 902 853
f 853 902 903
f 904 853 903
f 855 853 904
f 849 855 899
f 899 855 904
f 905 856 857
f 906 905 857
f 906 857 851
f 907 906 851
f 900 907 851
f 907 900 901
f 909 908 902
f 854 909 902
f 858 909 854
f 902 908 903
f 905 859 856
f 906 910 905
f 910 859 905
f 910 860 859
f 861 860 910
f 861 910 911
f 863 909 858
f 863 912 909
f 911 913 861
f 861 913 864
f 864 914 865
f 913 914 864
f 865 915 866
f 914 915 865
f 866 916 867
f 915 916 866
f 867 917 868
f 916 917 867
f 863 868 912
f 912 868 917
f 918 873 874
f 875 919 874
f 874 919 918
f 919 875 920
f 875 921 920
f 875 876 921
f 922 876 877
f 922 921 876
f 877 879 922
f 922 879 923
f 924 881 882
f 883 925 882
f 882 925 924
f 884 926 883
f 883 926 925
f 927 926 884
f 927 884 873
f 928 927 873
f 918 928 873
f 928 918 919
f 928 919 929
f 929 919 920
f 879 885 930
f 931 879 930
f 923 879 931
f 886 930 885
f 932 887 888
f 933 932 888
f 933 888 881
f 934 933 881
f 924 934 881
f 934 924 925
f 934 925 935
f 935 925 926
f 935 926 936
f 936 926 927
f 931 930 937
f 931 937 938
f 891 937 886
f 886 937 930
f 940 939 932
f 939 887 932
f 939 892 887
f 940 932 933
f 942 941 893
f 942 893 894
f 893 943 895
f 941 943 893
f 937 896 938
f 896 943 938
f 896 895 943
f 896 937 891
f 944 897 898
f 945 944 898
f 892 945 898
f 939 945 892
f 948 947 946
f 947 942 946
f 942 899 946
f 942 894 899
f 950 949 944
f 949 897 944
f 949 901 897
f 950 944 945
f 953 952 951
f 955 954 951
f 955 951 952
f 954 955 948
f 954 948 946
f 903 954 946
f 904 903 946
f 904 946 899
f 956 906 907
f 957 956 907
f 901 957 907
f 949 957 901
f 953 951 958
f 953 958 959
f 909 958 908
f 958 954 908
f 958 951 954
f 908 954 903
f 956 910 906
f 961 960 911
f 961 911 910
f 957 961 910
f 956 957 910
f 962 960 961
f 959 958 963
f 959 963 964
f 912 963 909
f 909 963 958
f 960 913 911
f 962 965 960
f 965 913 960
f 965 914 913
f 914 966 915
f 965 966 914
f 915 967 916
f 966 967 915
f 963 917 964
f 917 967 964
f 917 916 967
f 917 963 912
f 968 920 921
f 922 969 921
f 921 969 968
f 923 969 922
f 970 927 928
f 929 971 928
f 928 971 970
f 920 968 929
f 968 971 929
f 968 972 971
f 973 968 969
f 972 968 973
f 931 973 923
f 923 973 969
f 974 933 934
f 974 934 975
f 934 976 975
f 934 935 976
f 978 976 977
f 976 936 977
f 976 935 936
f 979 977 936
f 979 936 927
f 980 979 927
f 970 980 927
f 982 981 980
f 970 982 980
f 971 982 970
f 983 971 972
f 982 971 983
f 984 972 973
f 983 972 984
f 938 984 931
f 931 984 973
f 985 939 940
f 986 985 940
f 986 940 933
f 987 986 933
f 974 987 933
f 987 974 975
f 988 978 977
f 988 977 979
f 981 982 989
f 981 989 990
f 942 989 941
f 989 983 941
f 989 982 983
f 941 983 943
f 943 983 984
f 943 984 938
f 992 991 985
f 991 939 985
f 991 945 939
f 992 985 986
f 990 989 947
f 948 990 947
f 993 990 948
f 947 989 942
f 995 994 950
f 950 994 949
f 950 945 991
f 950 991 995
f 998 997 996
f 952 953 996
f 997 952 996
f 999 952 997
f 952 1000 955
f 999 1000 952
f 948 955 993
f 993 955 1000
f 1002 957 1001
f 957 994 1001
f 957 949 994
f 1003 1002 1001
f 998 996 1004
f 998 1004 1005
f 959 1004 953
f 953 1004 996
f 1002 961 957
f 1007 1006 962
f 1007 962 961
f 1003 1007 961
f 1002 1003 961
f 1008 1006 1007
f 1009 1005 1004
f 1004 959 1009
f 959 1010 1009
f 959 964 1010
f 1006 965 962
f 1008 1011 1006
f 1011 965 1006
f 1011 966 965
f 966 1012 967
f 1011 1012 966
f 964 967 1010
f 1010 967 1012
f 1013 975 976
f 978 1013 976
f 1014 979 980
f 981 1014 980
f 1015 986 987
f 975 1013 987
f 1013 1015 987
f 1013 1016 1015
f 988 1017 978
f 1017 1013 978
f 1017 1016 1013
f 979 1014 988
f 1014 1017 988
f 1014 1018 1017
f 990 1018 981
f 981 1018 1014
f 1019 991 992
f 1020 1019 992
f 1020 992 986
f 1021 1020 986
f 1015 1021 986
f 1023 1022 1021
f 1015 1023 1021
f 1016 1023 1015
f 1024 1016 1017
f 1023 1016 1024
f 1025 1017 1018
f 1024 1017 1025
f 993 1025 990
f 990 1025 1018
f 1026 994 995
f 1027 1026 995
f 1027 995 991
f 1028 1027 991
f 1019 1028 991
f 1028 1019 1020
f 1022 1023 997
f 998 1022 997
f 1029 1022 998
f 997 1023 999
f 999 1023 1024
f 999 1024 1000
f 1000 1024 1025
f 1000 1025 993
f 1026 1001 994
f 1003 1001 1026
f 1027 1003 1026
f 1030 1003 1027
f 1033 1032 1031
f 1032 1029 1031
f 1029 1005 1031
f 1029 998 1005
f 1030 1034 1003
f 1003 1034 1007
f 1031 1035 1008
f 1034 1031 1008
f 1007 1034 1008
f 1033 1031 1034
f 1009 1036 1005
f 1036 1031 1005
f 1036 1035 1031
f 1010 1036 1009
f 1035 1011 1008
f 1011 1035 1012
f 1012 1035 1036
f 1012 1036 1010
f 1037 1020 1021
f 1022 1037 1021
f 1038 1027 1028
f 1020 1037 1028
f 1037 1038 1028
f 1037 1039 1038
f 1029 1039 1022
f 1022 1039 1037
f 1040 1030 1038
f 1038 1030 1027
f 1033 1040 1032
f 1040 1039 1032
f 1040 1038 1039
f 1032 1039 1029
f 1040 1034 1030
f 1034 1040 1033
