v 13.0 -36.0 -15.0
v 13.0 -36.0 -15.0
v 13.0 -36.0 -15.0
v 13.0 -36.0 -15.0
v 12.9 -35.0 -16.0
v 13.0 -35.0 -16.1
v 13.0 -35.1 -16.0
v 12.7 -35.0 -15.0
v 13.0 -35.0 -14.5
v 12.6 -34.0 -16.0
v 13.0 -34.0 -17.0
v 12.5 -34.0 -15.0
v 13.0 -34.3 -14.0
v 12.9 -34.0 -14.0
v 13.0 -34.0 -13.8
v 12.8 -33.0 -17.0
v 13.0 -33.0 -17.2
v 13.0 -34.0 -17.0
v 12.6 -33.0 -16.0
v 12.6 -33.0 -15.0
v 13.0 -33.0 -14.4
v 13.0 -33.7 -14.0
v 12.6 -32.0 -17.0
v 13.0 -32.0 -17.9
v 12.6 -32.0 -16.0
v 12.7 -32.0 -15.0
v 13.0 -32.0 -14.6
v 12.8 -31.0 -18.0
v 13.0 -31.0 -18.2
v 13.0 -31.9 -18.0
v 12.7 -31.0 -17.0
v 12.7 -31.0 -16.0
v 13.0 -31.0 -15.5
v 13.0 -31.5 -15.0
v 12.8 -30.0 -19.0
v 13.0 -30.0 -19.2
v 13.0 -30.2 -19.0
v 12.8 -30.0 -18.0
v 13.0 -30.0 -17.7
v 13.0 -30.6 -17.0
v 13.0 -30.7 -16.0
v 12.9 -29.0 -19.0
v 13.0 -29.0 -19.1
v 13.0 -29.0 -18.8
v 13.0 -29.7 -18.0
v 13.0 -28.9 -19.0
v 13.8 -44.0 -6.0
v 14.0 -44.0 -6.3
v 14.0 -44.3 -6.0
v 14.0 -44.8 -5.0
v 13.8 -44.0 -5.0
v 14.0 -44.0 -4.8
v 13.8 -43.0 -8.0
v 14.0 -43.0 -8.2
v 14.0 -43.2 -8.0
v 14.0 -43.4 -7.0
v 13.6 -43.0 -7.0
v 13.6 -43.0 -6.0
v 14.0 -43.0 -5.5
v 14.0 -43.7 -5.0
v 13.6 -42.0 -8.0
v 14.0 -42.0 -8.5
v 13.6 -42.0 -7.0
v 13.8 -42.0 -6.0
v 14.0 -42.0 -5.7
v 13.9 -41.0 -9.0
v 14.0 -41.0 -9.1
v 14.0 -41.1 -9.0
v 13.8 -41.0 -8.0
v 14.0 -41.0 -7.6
v 14.0 -41.4 -7.0
v 14.0 -41.7 -6.0
v 14.0 -40.9 -9.0
v 14.0 -40.7 -8.0
v 14.0 -36.0 -15.4
v 14.0 -36.4 -15.0
v 14.0 -36.9 -14.0
v 13.6 -36.0 -14.0
v 14.0 -36.0 -13.6
v 13.2 -35.0 -16.0
v 14.0 -35.0 -15.7
v 13.4 -35.0 -14.0
v 14.0 -35.0 -13.4
v 14.0 -34.0 -16.3
v 14.0 -34.4 -16.0
v 14.0 -34.5 -13.0
v 13.6 -34.0 -13.0
v 14.0 -34.0 -12.5
v 13.3 -33.0 -17.0
v 14.0 -33.0 -16.3
v 13.3 -33.0 -14.0
v 13.6 -33.0 -13.0
v 14.0 -33.0 -12.5
v 13.9 -32.0 -17.0
v 14.0 -32.0 -16.9
v 13.4 -32.0 -14.0
v 13.6 -32.0 -13.0
v 14.0 -32.0 -12.6
v 13.6 -31.0 -18.0
v 14.0 -31.0 -17.8
v 14.0 -31.9 -17.0
v 13.3 -31.0 -15.0
v 13.5 -31.0 -14.0
v 13.8 -31.0 -13.0
v 14.0 -31.0 -12.8
v 14.0 -30.0 -19.3
v 14.0 -30.3 -19.0
v 14.0 -30.8 -18.0
v 13.8 -30.0 -17.0
v 13.6 -30.0 -16.0
v 13.6 -30.0 -15.0
v 13.8 -30.0 -14.0
v 14.0 -30.0 -13.7
v 14.0 -30.7 -13.0
v 13.7 -29.0 -20.0
v 14.0 -29.0 -20.2
v 14.0 -29.3 -20.0
v 13.4 -29.0 -18.0
v 13.8 -29.0 -17.0
v 14.0 -29.0 -16.7
v 14.0 -29.5 -16.0
v 14.0 -29.5 -15.0
v 14.0 -29.8 -14.0
v 13.6 -28.0 -20.0
v 14.0 -28.0 -20.4
v 13.6 -28.0 -19.0
v 14.0 -28.0 -18.5
v 14.0 -28.4 -18.0
v 14.0 -28.8 -17.0
v 14.0 -27.0 -20.0
v 14.0 -27.0 -20.0
v 14.0 -27.0 -20.0
v 14.0 -27.5 -19.0
v 14.0 -27.0 -20.0
v 14.4 -45.0 -5.0
v 15.0 -45.0 -5.1
v 15.0 -45.1 -5.0
v 15.0 -45.0 -4.9
v 15.0 -44.0 -6.6
v 15.0 -44.6 -6.0
v 15.0 -44.0 -4.5
v 15.0 -43.0 -8.4
v 15.0 -43.3 -8.0
v 15.0 -43.7 -7.0
v 14.4 -43.0 -5.0
v 15.0 -43.0 -4.5
v 14.4 -42.0 -9.0
v 15.0 -42.0 -9.8
v 15.0 -42.4 -9.0
v 14.7 -42.0 -5.0
v 15.0 -42.0 -4.7
v 15.0 -41.0 -9.6
v 14.4 -41.0 -7.0
v 14.7 -41.0 -6.0
v 15.0 -41.0 -5.6
v 15.0 -41.6 -5.0
v 14.7 -40.0 -9.0
v 15.0 -40.0 -9.4
v 14.6 -40.0 -8.0
v 15.0 -40.0 -7.5
v 15.0 -40.4 -7.0
v 15.0 -40.7 -6.0
v 15.0 -39.6 -9.0
v 15.0 -39.6 -8.0
v 14.1 -37.0 -14.0
v 15.0 -37.0 -14.4
v 15.0 -37.3 -14.0
v 15.0 -37.0 -13.6
v 15.0 -36.0 -15.4
v 15.0 -36.6 -15.0
v 15.0 -36.0 -13.2
v 14.9 -36.0 -10.0
v 15.0 -36.0 -10.1
v 15.0 -36.1 -10.0
v 15.0 -36.0 -9.9
v 15.0 -35.0 -15.4
v 15.0 -35.7 -13.0
v 14.4 -35.0 -13.0
v 15.0 -35.4 -12.0
v 14.7 -35.0 -12.0
v 15.0 -35.0 -11.3
v 14.9 -35.0 -10.0
v 15.0 -35.0 -10.5
v 15.0 -35.0 -9.8
v 14.4 -34.0 -16.0
v 15.0 -34.0 -15.6
v 14.3 -34.0 -12.0
v 15.0 -34.8 -11.0
v 14.3 -34.0 -11.0
v 15.0 -34.8 -10.0
v 15.0 -34.0 -10.4
v 14.7 -33.0 -17.0
v 15.0 -33.0 -17.2
v 15.0 -33.2 -17.0
v 15.0 -33.6 -16.0
v 14.4 -33.0 -12.0
v 14.7 -33.0 -11.0
v 15.0 -33.0 -10.6
v 14.1 -32.0 -17.0
v 15.0 -32.0 -17.5
v 14.6 -32.0 -12.0
v 15.0 -32.0 -11.5
v 15.0 -32.6 -11.0
v 14.3 -31.0 -18.0
v 15.0 -31.0 -18.4
v 15.0 -31.4 -18.0
v 15.0 -31.5 -12.0
v 15.0 -31.0 -12.4
v 14.8 -30.0 -19.0
v 15.0 -30.0 -18.9
v 15.0 -30.4 -13.0
v 15.0 -30.0 -13.4
v 15.0 -29.0 -20.5
v 15.0 -29.4 -20.0
v 15.0 -29.9 -19.0
v 14.4 -29.0 -16.0
v 14.5 -29.0 -15.0
v 15.0 -29.0 -14.4
v 15.0 -29.4 -14.0
v 14.8 -28.0 -21.0
v 15.0 -28.0 -21.1
v 15.0 -28.2 -21.0
v 14.4 -28.0 -18.0
v 14.7 -28.0 -17.0
v 15.0 -28.0 -16.4
v 15.0 -28.3 -16.0
v 15.0 -28.2 -15.0
v 15.0 -27.8 -21.0
v 15.0 -27.0 -20.5
v 14.6 -27.0 -19.0
v 15.0 -27.0 -18.7
v 15.0 -27.5 -18.0
v 15.0 -27.7 -17.0
v 15.0 -26.6 -20.0
v 15.0 -26.7 -19.0
v 15.8 -45.0 -6.0
v 16.0 -45.0 -6.1
v 16.0 -45.1 -6.0
v 15.1 -45.0 -5.0
v 16.0 -45.0 -5.8
v 15.5 -44.0 -7.0
v 16.0 -44.0 -7.3
v 16.0 -44.3 -7.0
v 16.0 -44.7 -5.0
v 16.0 -44.2 -4.0
v 15.7 -44.0 -4.0
v 16.0 -44.0 -3.8
v 15.7 -43.0 -8.0
v 16.0 -43.0 -7.9
v 15.6 -43.0 -4.0
v 16.0 -43.0 -3.7
v 16.0 -42.0 -9.6
v 16.0 -42.4 -9.0
v 16.0 -42.9 -8.0
v 16.0 -42.5 -4.0
v 16.0 -42.0 -4.3
v 15.5 -41.0 -10.0
v 16.0 -41.0 -10.3
v 16.0 -41.4 -10.0
v 15.6 -41.0 -5.0
v 16.0 -41.0 -4.7
v 15.6 -40.0 -10.0
v 16.0 -40.0 -10.4
v 15.5 -40.0 -7.0
v 16.0 -40.0 -6.4
v 16.0 -40.3 -6.0
v 16.0 -40.7 -5.0
v 15.6 -39.0 -10.0
v 16.0 -39.0 -10.4
v 15.4 -39.0 -9.0
v 15.6 -39.0 -8.0
v 16.0 -39.0 -7.5
v 16.0 -39.5 -7.0
v 15.9 -38.0 -11.0
v 16.0 -38.0 -11.1
v 16.0 -38.1 -11.0
v 15.6 -38.0 -10.0
v 15.6 -38.0 -9.0
v 16.0 -38.0 -8.4
v 16.0 -38.4 -8.0
v 15.9 -37.0 -15.0
v 16.0 -37.0 -15.1
v 16.0 -37.1 -15.0
v 16.0 -37.8 -14.0
v 16.0 -37.5 -13.0
v 15.5 -37.0 -13.0
v 16.0 -37.4 -12.0
v 15.6 -37.0 -12.0
v 15.5 -37.0 -11.0
v 15.4 -37.0 -10.0
v 15.6 -37.0 -9.0
v 16.0 -37.0 -8.5
v 16.0 -36.0 -15.2
v 15.2 -36.0 -13.0
v 15.4 -36.0 -12.0
v 15.4 -36.0 -11.0
v 15.5 -36.0 -9.0
v 16.0 -36.0 -8.5
v 16.0 -35.6 -15.0
v 15.6 -35.0 -15.0
v 16.0 -35.0 -14.6
v 15.1 -35.0 -11.0
v 15.6 -35.0 -9.0
v 16.0 -35.0 -8.6
v 15.7 -34.0 -15.0
v 16.0 -34.0 -14.7
v 15.4 -34.0 -10.0
v 16.0 -34.0 -9.2
v 16.0 -34.3 -9.0
v 16.0 -33.0 -17.2
v 16.0 -33.2 -17.0
v 16.0 -33.4 -16.0
v 16.0 -33.7 -15.0
v 15.5 -33.0 -10.0
v 16.0 -33.3 -9.0
v 15.9 -33.0 -9.0
v 16.0 -33.0 -8.9
v 16.0 -32.0 -17.5
v 15.5 -32.0 -11.0
v 16.0 -32.0 -10.4
v 16.0 -32.4 -10.0
v 16.0 -32.9 -9.0
v 16.0 -31.0 -19.0
v 16.0 -31.0 -19.0
v 16.0 -31.0 -19.0
v 16.0 -31.5 -18.0
v 15.5 -31.0 -12.0
v 16.0 -31.0 -11.5
v 16.0 -31.5 -11.0
v 15.1 -30.0 -19.0
v 16.0 -30.0 -19.6
v 15.4 -30.0 -13.0
v 16.0 -30.0 -12.5
v 16.0 -30.5 -12.0
v 16.0 -29.0 -20.7
v 16.0 -29.6 -20.0
v 15.5 -29.0 -14.0
v 16.0 -29.0 -13.6
v 16.0 -29.5 -13.0
v 16.0 -28.0 -21.5
v 16.0 -28.6 -21.0
v 15.4 -28.0 -16.0
v 16.0 -28.0 -15.5
v 16.0 -28.3 -15.0
v 16.0 -28.7 -14.0
v 15.6 -27.0 -21.0
v 16.0 -27.0 -21.3
v 16.0 -27.3 -18.0
v 16.0 -27.0 -18.4
v 16.0 -27.5 -17.0
v 16.0 -27.7 -16.0
v 16.0 -26.7 -21.0
v 16.0 -26.5 -20.0
v 16.0 -26.6 -19.0
v 17.0 -45.0 -6.4
v 17.0 -45.2 -6.0
v 17.0 -45.0 -5.6
v 17.0 -44.0 -7.5
v 17.0 -44.6 -7.0
v 17.0 -44.6 -5.0
v 17.0 -44.3 -4.0
v 17.0 -44.0 -3.7
v 16.2 -43.0 -8.0
v 17.0 -43.0 -8.4
v 17.0 -43.4 -8.0
v 17.0 -43.0 -3.5
v 17.0 -42.0 -9.5
v 17.0 -42.5 -9.0
v 16.5 -42.0 -4.0
v 17.0 -42.0 -3.7
v 17.0 -41.0 -10.4
v 17.0 -41.5 -10.0
v 17.0 -41.6 -4.0
v 17.0 -41.0 -4.5
v 17.0 -40.0 -10.5
v 16.4 -40.0 -6.0
v 17.0 -40.0 -5.4
v 17.0 -40.4 -5.0
v 17.0 -39.0 -10.4
v 16.4 -39.0 -7.0
v 17.0 -39.0 -6.2
v 17.0 -39.3 -6.0
v 16.2 -38.0 -11.0
v 17.0 -38.0 -10.4
v 16.3 -38.0 -8.0
v 16.5 -38.0 -7.0
v 17.0 -38.3 -6.0
v 16.9 -38.0 -6.0
v 17.0 -38.0 -5.9
v 16.1 -37.0 -15.0
v 16.7 -37.0 -14.0
v 17.0 -37.0 -13.7
v 17.0 -37.9 -13.0
v 17.0 -37.7 -12.0
v 17.0 -37.8 -11.0
v 16.4 -37.0 -8.0
v 16.7 -37.0 -7.0
v 17.0 -37.0 -6.7
v 17.0 -37.9 -6.0
v 16.3 -36.0 -15.0
v 17.0 -36.0 -14.2
v 17.0 -36.4 -14.0
v 16.5 -36.0 -8.0
v 17.0 -36.0 -7.4
v 17.0 -36.6 -7.0
v 16.6 -35.0 -14.0
v 17.0 -35.6 -14.0
v 17.0 -35.0 -13.6
v 16.4 -35.0 -8.0
v 17.0 -35.0 -7.0
v 17.0 -35.0 -7.0
v 17.0 -35.0 -7.0
v 16.7 -34.0 -14.0
v 17.0 -34.0 -13.7
v 16.2 -34.0 -9.0
v 16.7 -34.0 -8.0
v 17.0 -34.0 -7.7
v 17.0 -35.0 -7.0
v 16.2 -33.0 -17.0
v 16.6 -33.0 -16.0
v 17.0 -33.0 -15.5
v 17.0 -33.3 -15.0
v 17.0 -33.7 -14.0
v 17.0 -33.7 -8.0
v 17.0 -33.0 -8.4
v 16.6 -32.0 -17.0
v 17.0 -32.0 -16.7
v 17.0 -32.6 -16.0
v 16.3 -32.0 -10.0
v 16.7 -32.0 -9.0
v 17.0 -32.0 -8.8
v 16.1 -31.0 -19.0
v 16.9 -31.0 -18.0
v 17.0 -31.0 -17.9
v 17.0 -31.7 -17.0
v 16.4 -31.0 -11.0
v 16.8 -31.0 -10.0
v 17.0 -31.0 -9.7
v 17.0 -31.7 -9.0
v 16.5 -30.0 -20.0
v 17.0 -30.0 -20.5
v 17.0 -30.3 -20.0
v 17.0 -30.7 -19.0
v 17.0 -30.9 -18.0
v 16.5 -30.0 -12.0
v 17.0 -30.0 -11.5
v 17.0 -30.4 -11.0
v 17.0 -30.8 -10.0
v 16.7 -29.0 -22.0
v 17.0 -29.0 -22.6
v 17.0 -29.3 -22.0
v 17.0 -29.6 -21.0
v 16.3 -29.0 -21.0
v 16.6 -29.0 -13.0
v 17.0 -29.0 -12.7
v 17.0 -29.6 -12.0
v 16.5 -28.0 -22.0
v 17.0 -28.0 -22.5
v 17.0 -28.3 -15.0
v 17.0 -28.0 -15.4
v 17.0 -28.5 -14.0
v 17.0 -28.7 -13.0
v 16.7 -27.0 -22.0
v 17.0 -27.0 -22.3
v 16.5 -27.0 -18.0
v 17.0 -27.0 -17.6
v 17.0 -27.4 -17.0
v 17.0 -27.6 -16.0
v 17.0 -26.6 -22.0
v 17.0 -26.4 -21.0
v 17.0 -26.5 -20.0
v 17.0 -26.5 -19.0
v 17.0 -26.7 -18.0
v 17.8 -45.0 -7.0
v 18.0 -45.0 -7.1
v 18.0 -45.1 -7.0
v 18.0 -45.3 -6.0
v 18.0 -45.0 -5.6
v 18.0 -44.0 -7.6
v 18.0 -44.6 -5.0
v 18.0 -44.3 -4.0
v 18.0 -44.0 -3.7
v 18.0 -43.0 -8.5
v 18.0 -43.5 -8.0
v 18.0 -43.0 -3.5
v 18.0 -42.0 -9.5
v 18.0 -42.5 -9.0
v 18.0 -42.0 -3.6
v 18.0 -41.0 -10.2
v 18.0 -41.3 -10.0
v 18.0 -41.4 -4.0
v 18.0 -41.0 -4.3
v 18.0 -40.0 -10.3
v 17.4 -40.0 -5.0
v 18.0 -40.0 -4.5
v 18.0 -39.3 -10.0
v 17.7 -39.0 -10.0
v 18.0 -39.0 -9.8
v 17.2 -39.0 -6.0
v 17.8 -39.0 -5.0
v 18.0 -39.0 -4.8
v 17.9 -38.0 -12.0
v 18.0 -38.0 -12.1
v 18.0 -38.1 -12.0
v 18.0 -38.2 -11.0
v 17.5 -38.0 -11.0
v 18.0 -38.7 -10.0
v 18.0 -38.7 -5.0
v 18.0 -38.0 -5.6
v 18.0 -37.0 -13.2
v 18.0 -37.3 -13.0
v 18.0 -37.5 -6.0
v 18.0 -37.0 -6.5
v 17.2 -36.0 -14.0
v 18.0 -36.0 -13.3
v 18.0 -36.3 -7.0
v 18.0 -36.0 -7.3
v 17.7 -35.0 -13.0
v 18.0 -35.5 -13.0
v 18.0 -35.0 -12.7
v 18.0 -35.2 -7.0
v 18.0 -35.0 -6.9
v 17.7 -34.0 -13.0
v 18.0 -34.0 -12.7
v 18.0 -34.9 -7.0
v 18.0 -34.0 -7.5
v 17.4 -33.0 -15.0
v 17.7 -33.0 -14.0
v 18.0 -33.0 -13.6
v 18.0 -33.6 -13.0
v 18.0 -33.5 -8.0
v 18.0 -33.0 -8.4
v 18.0 -32.0 -16.5
v 18.0 -32.4 -16.0
v 18.0 -32.6 -15.0
v 18.0 -32.7 -14.0
v 18.0 -32.0 -8.7
v 17.8 -31.0 -19.0
v 18.0 -31.0 -19.1
v 18.0 -31.1 -19.0
v 18.0 -31.3 -18.0
v 17.2 -31.0 -18.0
v 18.0 -31.5 -17.0
v 18.0 -31.7 -9.0
v 18.0 -31.0 -9.7
v 17.5 -30.0 -21.0
v 18.0 -30.0 -21.4
v 18.0 -30.3 -21.0
v 18.0 -30.6 -20.0
v 17.9 -30.0 -11.0
v 18.0 -30.0 -10.9
v 18.0 -30.7 -10.0
v 18.0 -29.0 -22.3
v 18.0 -29.4 -22.0
v 18.0 -29.5 -12.0
v 18.0 -29.0 -12.7
v 18.0 -29.9 -11.0
v 18.0 -28.0 -22.4
v 17.5 -28.0 -15.0
v 18.0 -28.0 -14.6
v 18.0 -28.4 -14.0
v 18.0 -28.7 -13.0
v 17.9 -27.0 -23.0
v 18.0 -27.0 -23.1
v 18.0 -27.1 -23.0
v 18.0 -27.3 -17.0
v 18.0 -27.0 -17.3
v 18.0 -27.4 -16.0
v 18.0 -27.7 -15.0
v 17.9 -26.0 -23.0
v 18.0 -26.0 -23.1
v 17.6 -26.0 -22.0
v 17.6 -26.0 -21.0
v 18.0 -26.0 -20.4
v 18.0 -26.2 -20.0
v 18.0 -26.4 -19.0
v 18.0 -26.6 -18.0
v 18.0 -25.9 -23.0
v 18.0 -25.6 -22.0
v 18.0 -25.6 -21.0
v 18.2 -45.0 -7.0
v 19.0 -45.0 -6.2
v 19.0 -45.1 -6.0
v 19.0 -45.0 -5.8
v 19.0 -44.0 -7.4
v 19.0 -44.4 -7.0
v 19.0 -44.6 -5.0
v 19.0 -44.2 -4.0
v 19.0 -44.0 -3.8
v 19.0 -43.0 -8.3
v 19.0 -43.3 -8.0
v 19.0 -43.0 -3.6
v 19.0 -42.0 -9.2
v 19.0 -42.3 -9.0
v 19.0 -42.0 -3.6
v 18.3 -41.0 -10.0
v 19.0 -41.0 -9.5
v 18.5 -41.0 -4.0
v 19.0 -41.0 -3.7
v 18.4 -40.0 -10.0
v 19.0 -40.0 -9.5
v 18.9 -40.0 -4.0
v 19.0 -40.0 -3.9
v 19.0 -39.0 -9.4
v 19.0 -39.9 -4.0
v 19.0 -39.0 -4.7
v 18.1 -38.0 -12.0
v 18.2 -38.0 -11.0
v 18.5 -38.0 -10.0
v 19.0 -38.0 -9.6
v 19.0 -38.6 -5.0
v 19.0 -38.0 -5.6
v 18.2 -37.0 -13.0
v 18.5 -37.0 -12.0
v 18.6 -37.0 -11.0
v 19.0 -37.0 -10.4
v 19.0 -37.5 -10.0
v 19.0 -37.6 -6.0
v 19.0 -37.0 -6.7
v 18.3 -36.0 -13.0
v 18.6 -36.0 -12.0
v 18.8 -36.0 -11.0
v 19.0 -36.0 -10.7
v 19.0 -36.6 -7.0
v 19.0 -36.0 -7.4
v 19.0 -35.3 -12.0
v 19.0 -35.0 -12.2
v 19.0 -35.7 -11.0
v 18.1 -35.0 -7.0
v 19.0 -35.0 -7.5
v 19.0 -34.0 -12.4
v 19.0 -34.0 -7.8
v 18.6 -33.0 -13.0
v 19.0 -33.0 -12.7
v 19.0 -33.7 -8.0
v 19.0 -33.0 -8.7
v 19.0 -32.0 -16.4
v 19.0 -32.3 -16.0
v 19.0 -32.5 -15.0
v 19.0 -32.5 -14.0
v 19.0 -32.7 -13.0
v 18.4 -32.0 -9.0
v 19.0 -32.6 -9.0
v 19.0 -32.0 -9.6
v 18.1 -31.0 -19.0
v 18.3 -31.0 -18.0
v 18.7 -31.0 -17.0
v 19.0 -31.0 -16.7
v 18.7 -31.0 -11.0
v 19.0 -31.4 -11.0
v 19.0 -31.0 -11.5
v 18.3 -31.0 -10.0
v 19.0 -31.7 -10.0
v 19.0 -30.0 -21.8
v 19.0 -30.8 -21.0
v 19.0 -30.6 -20.0
v 19.0 -30.6 -19.0
v 19.0 -30.5 -18.0
v 19.0 -30.7 -17.0
v 18.6 -30.0 -12.0
v 19.0 -30.5 -12.0
v 19.0 -30.0 -12.5
v 18.1 -30.0 -11.0
v 18.3 -29.0 -22.0
v 19.0 -29.3 -21.0
v 18.8 -29.0 -21.0
v 19.0 -29.0 -20.8
v 18.4 -29.0 -13.0
v 19.0 -29.6 -13.0
v 19.0 -29.0 -13.6
v 18.4 -28.0 -22.0
v 18.8 -28.0 -21.0
v 19.0 -28.0 -20.8
v 19.0 -28.7 -14.0
v 19.0 -28.0 -14.7
v 18.1 -27.0 -23.0
v 18.7 -27.0 -22.0
v 19.0 -27.0 -21.6
v 19.0 -27.6 -21.0
v 18.5 -27.0 -17.0
v 19.0 -27.0 -16.0
v 19.0 -27.0 -16.0
v 19.0 -27.7 -15.0
v 19.0 -26.0 -23.0
v 19.0 -26.1 -23.0
v 19.0 -26.7 -22.0
v 18.3 -26.0 -20.0
v 18.8 -26.0 -19.0
v 19.0 -26.0 -18.8
v 19.0 -26.5 -18.0
v 19.0 -26.7 -17.0
v 19.0 -27.0 -16.0
v 19.0 -25.9 -23.0
v 18.9 -25.0 -22.0
v 19.0 -25.0 -22.1
v 18.7 -25.0 -21.0
v 19.0 -25.0 -20.0
v 19.0 -25.0 -20.0
v 19.0 -25.8 -19.0
v 19.0 -24.9 -22.0
v 19.0 -24.8 -21.0
v 19.0 -25.0 -20.0
v 19.1 -45.0 -6.0
v 19.4 -44.0 -7.0
v 20.0 -44.0 -6.3
v 20.0 -44.3 -6.0
v 20.0 -44.2 -5.0
v 19.3 -44.0 -4.0
v 20.0 -44.0 -4.7
v 19.3 -43.0 -8.0
v 19.7 -43.0 -7.0
v 20.0 -43.0 -6.6
v 19.6 -43.0 -4.0
v 20.0 -43.0 -4.4
v 19.2 -42.0 -9.0
v 19.7 -42.0 -8.0
v 20.0 -42.0 -7.5
v 20.0 -42.6 -7.0
v 20.0 -42.3 -4.0
v 20.0 -42.0 -3.9
v 19.5 -41.0 -9.0
v 20.0 -41.0 -8.4
v 20.0 -41.5 -8.0
v 19.5 -41.0 -4.0
v 20.0 -41.7 -4.0
v 20.0 -41.0 -4.3
v 19.5 -40.0 -9.0
v 20.0 -40.0 -8.5
v 19.1 -40.0 -4.0
v 20.0 -40.0 -4.6
v 19.5 -39.0 -9.0
v 20.0 -39.0 -8.5
v 19.4 -39.0 -5.0
v 20.0 -39.5 -5.0
v 20.0 -39.0 -5.5
v 19.5 -38.0 -9.0
v 20.0 -38.0 -8.3
v 19.4 -38.0 -6.0
v 20.0 -38.5 -6.0
v 20.0 -38.0 -6.6
v 19.3 -37.0 -10.0
v 19.6 -37.0 -9.0
v 20.0 -37.5 -8.0
v 19.7 -37.0 -8.0
v 19.4 -37.0 -7.0
v 20.0 -37.7 -7.0
v 19.6 -36.0 -10.0
v 20.0 -36.0 -9.4
v 20.0 -36.4 -9.0
v 20.0 -36.2 -8.0
v 20.0 -36.0 -7.9
v 19.2 -35.0 -12.0
v 19.6 -35.0 -11.0
v 20.0 -35.0 -10.4
v 20.0 -35.4 -10.0
v 19.6 -35.0 -8.0
v 20.0 -35.9 -8.0
v 20.0 -35.0 -8.6
v 19.5 -34.0 -12.0
v 20.0 -34.0 -11.2
v 20.0 -34.3 -11.0
v 19.7 -34.0 -9.0
v 20.0 -34.5 -9.0
v 20.0 -34.0 -9.6
v 19.2 -34.0 -8.0
v 19.9 -33.0 -12.0
v 20.0 -33.7 -11.0
v 19.7 -33.0 -11.0
v 19.6 -33.0 -10.0
v 20.0 -33.7 -10.0
v 19.3 -33.0 -9.0
v 20.0 -32.0 -16.1
v 20.0 -32.1 -16.0
v 20.0 -32.2 -15.0
v 20.0 -32.2 -14.0
v 20.0 -32.1 -13.0
v 19.6 -32.0 -12.0
v 20.0 -32.0 -12.9
v 19.4 -32.0 -11.0
v 19.3 -32.0 -10.0
v 20.0 -31.0 -16.2
v 19.7 -31.0 -15.0
v 20.0 -31.6 -15.0
v 20.0 -31.0 -15.6
v 19.6 -31.0 -14.0
v 20.0 -31.7 -14.0
v 19.6 -31.0 -13.0
v 20.0 -31.9 -13.0
v 19.3 -31.0 -12.0
v 20.0 -30.0 -21.1
v 20.0 -30.1 -21.0
v 20.0 -30.3 -20.0
v 20.0 -30.2 -19.0
v 19.5 -30.0 -18.0
v 20.0 -30.0 -18.7
v 19.6 -30.0 -17.0
v 20.0 -30.0 -16.2
v 19.6 -30.0 -15.0
v 20.0 -30.0 -15.8
v 19.5 -30.0 -14.0
v 19.3 -30.0 -13.0
v 20.0 -29.9 -21.0
v 20.0 -29.0 -20.4
v 19.7 -29.0 -18.0
v 20.0 -29.0 -18.4
v 20.0 -29.0 -17.3
v 20.0 -29.2 -17.0
v 20.0 -29.0 -16.8
v 19.7 -29.0 -16.0
v 20.0 -29.8 -16.0
v 19.5 -29.0 -15.0
v 19.3 -29.0 -14.0
v 20.0 -28.0 -20.4
v 19.9 -28.0 -18.0
v 20.0 -28.0 -18.2
v 20.0 -28.0 -17.5
v 19.6 -28.0 -16.0
v 20.0 -28.0 -16.8
v 19.2 -28.0 -15.0
v 19.6 -27.0 -21.0
v 20.0 -27.0 -20.6
v 20.0 -27.5 -18.0
v 20.0 -27.0 -17.8
v 19.4 -27.0 -17.0
v 20.0 -27.8 -17.0
v 19.0 -27.0 -16.0
v 19.1 -26.0 -23.0
v 20.0 -26.0 -22.0
v 20.0 -26.0 -22.0
v 20.0 -26.4 -21.0
v 19.3 -26.0 -19.0
v 20.0 -26.5 -19.0
v 20.0 -26.0 -19.6
v 20.0 -26.9 -18.0
v 19.1 -25.0 -22.0
v 20.0 -26.0 -22.0
v 19.3 -25.0 -21.0
v 20.0 -25.7 -21.0
v 19.0 -25.0 -20.0
v 20.0 -25.7 -20.0
v 20.2 -44.0 -6.0
v 20.2 -44.0 -5.0
v 20.5 -43.0 -6.0
v 20.5 -43.0 -5.0
v 20.4 -42.0 -7.0
v 21.0 -42.0 -6.1
v 21.0 -42.2 -6.0
v 21.0 -42.3 -5.0
v 20.2 -42.0 -4.0
v 21.0 -42.0 -4.8
v 20.3 -41.0 -8.0
v 20.6 -41.0 -7.0
v 21.0 -41.6 -6.0
v 20.8 -41.0 -6.0
v 21.0 -41.0 -5.4
v 21.0 -41.0 -4.9
v 20.5 -40.0 -8.0
v 21.0 -40.0 -7.1
v 21.0 -40.1 -7.0
v 21.0 -40.4 -6.0
v 21.0 -40.0 -5.8
v 20.4 -40.0 -5.0
v 21.0 -40.8 -5.0
v 20.4 -39.0 -8.0
v 21.0 -39.9 -7.0
v 20.6 -39.0 -7.0
v 20.4 -39.0 -6.0
v 21.0 -39.9 -6.0
v 20.2 -38.0 -8.0
v 20.3 -38.0 -7.0
v 20.2 -36.0 -9.0
v 20.1 -36.0 -8.0
v 20.3 -35.0 -10.0
v 20.3 -35.0 -9.0
v 20.1 -34.0 -11.0
v 20.2 -34.0 -10.0
v 20.1 -32.0 -16.0
v 20.2 -32.0 -15.0
v 20.2 -32.0 -14.0
v 20.1 -32.0 -13.0
v 20.2 -31.0 -16.0
v 20.0 -30.0 -21.0
v 20.3 -30.0 -20.0
v 20.2 -30.0 -19.0
v 20.1 -30.0 -16.0
v 20.4 -29.0 -20.0
v 20.4 -29.0 -19.0
v 20.1 -29.0 -17.0
v 20.4 -28.0 -20.0
v 20.4 -28.0 -19.0
v 20.1 -28.0 -17.0
v 20.4 -27.0 -20.0
v 20.4 -27.0 -19.0
v 20.1 -27.0 -18.0
v 20.0 -26.0 -22.0
v 20.2 -26.0 -21.0
v 20.2 -26.0 -20.0
v 21.1 -42.0 -6.0
v 21.2 -42.0 -5.0
v 21.1 -41.0 -5.0
v 21.1 -40.0 -7.0
v 21.1 -40.0 -6.0
f 3 2 1
f 1 4 3
f 7 6 5
f 7 5 2
f 5 1 2
f 5 8 1
f 4 1 9
f 9 1 8
f 5 6 10
f 10 6 11
f 5 12 8
f 5 10 12
f 9 8 13
f 8 14 13
f 8 12 14
f 14 15 13
f 18 17 16
f 18 16 11
f 16 10 11
f 16 19 10
f 10 20 12
f 10 19 20
f 22 14 21
f 14 20 21
f 14 12 20
f 14 22 15
f 16 17 23
f 23 17 24
f 16 25 19
f 16 23 25
f 19 26 20
f 19 25 26
f 21 20 27
f 27 20 26
f 30 29 28
f 30 28 24
f 28 23 24
f 28 31 23
f 23 32 25
f 23 31 32
f 34 26 33
f 26 32 33
f 26 25 32
f 26 34 27
f 37 36 35
f 37 35 29
f 35 28 29
f 35 38 28
f 40 31 39
f 31 38 39
f 31 28 38
f 31 40 32
f 32 40 41
f 32 41 33
f 35 36 42
f 42 36 43
f 45 38 44
f 38 42 44
f 38 35 42
f 38 45 39
f 43 46 42
f 42 46 44
f 49 48 47
f 51 50 47
f 47 50 49
f 51 52 50
f 55 54 53
f 57 56 53
f 53 56 55
f 56 57 48
f 57 47 48
f 57 58 47
f 60 51 59
f 51 58 59
f 51 47 58
f 51 60 52
f 53 54 61
f 61 54 62
f 53 63 57
f 53 61 63
f 57 64 58
f 57 63 64
f 59 58 65
f 65 58 64
f 68 67 66
f 68 66 62
f 66 61 62
f 66 69 61
f 71 63 70
f 63 69 70
f 63 61 69
f 63 71 64
f 64 71 72
f 64 72 65
f 67 73 66
f 66 73 69
f 69 73 74
f 69 74 70
f 76 75 3
f 3 75 2
f 78 77 4
f 77 3 4
f 77 76 3
f 78 79 77
f 80 6 7
f 81 80 7
f 2 81 7
f 75 81 2
f 9 82 78
f 9 78 4
f 79 78 83
f 83 78 82
f 85 84 80
f 84 6 80
f 84 11 6
f 85 80 81
f 13 82 9
f 87 86 15
f 15 86 13
f 86 83 13
f 83 82 13
f 87 88 86
f 89 17 18
f 90 89 18
f 11 90 18
f 84 90 11
f 21 91 22
f 87 15 22
f 91 87 22
f 92 87 91
f 88 87 93
f 93 87 92
f 94 24 89
f 89 24 17
f 89 90 95
f 89 95 94
f 27 96 91
f 27 91 21
f 91 97 92
f 91 96 97
f 93 92 98
f 98 92 97
f 99 29 30
f 100 99 30
f 100 30 24
f 101 100 24
f 94 101 24
f 101 94 95
f 33 102 34
f 96 27 34
f 102 96 34
f 103 96 102
f 96 104 97
f 96 103 104
f 98 97 105
f 105 97 104
f 107 106 37
f 37 106 36
f 37 29 99
f 108 37 99
f 107 37 108
f 40 39 109
f 99 100 108
f 110 41 40
f 110 40 109
f 102 33 41
f 110 102 41
f 111 102 110
f 102 112 103
f 102 111 112
f 114 104 113
f 104 112 113
f 104 103 112
f 104 114 105
f 117 116 115
f 106 117 115
f 43 106 115
f 36 106 43
f 44 118 45
f 109 39 45
f 118 109 45
f 119 109 118
f 121 110 120
f 110 119 120
f 110 109 119
f 110 121 111
f 111 121 122
f 111 122 112
f 112 122 123
f 112 123 113
f 115 116 124
f 124 116 125
f 126 46 43
f 115 126 43
f 124 126 115
f 126 127 46
f 46 127 44
f 127 128 44
f 128 118 44
f 118 128 119
f 119 128 129
f 119 129 120
f 124 125 130
f 130 125 131
f 133 126 132
f 126 130 132
f 126 124 130
f 126 133 127
f 131 134 130
f 130 134 132
f 137 136 135
f 135 138 137
f 140 139 49
f 49 139 48
f 50 135 136
f 140 50 136
f 49 50 140
f 50 52 135
f 52 138 135
f 52 141 138
f 143 142 55
f 55 142 54
f 144 55 56
f 144 143 55
f 56 48 139
f 56 139 144
f 59 145 60
f 145 146 60
f 146 52 60
f 146 141 52
f 149 148 147
f 142 149 147
f 62 142 147
f 54 142 62
f 65 150 145
f 65 145 59
f 146 145 151
f 151 145 150
f 147 148 68
f 148 67 68
f 148 152 67
f 147 68 62
f 70 153 71
f 154 72 71
f 154 71 153
f 154 155 72
f 72 155 65
f 155 156 65
f 156 150 65
f 150 156 151
f 73 67 157
f 67 158 157
f 67 152 158
f 159 74 73
f 159 73 157
f 159 160 74
f 74 160 70
f 160 161 70
f 161 153 70
f 153 161 154
f 154 161 162
f 154 162 155
f 158 163 157
f 157 163 159
f 159 163 164
f 159 164 160
f 167 166 165
f 165 168 167
f 170 169 76
f 76 169 75
f 77 165 166
f 170 77 166
f 76 77 170
f 77 79 165
f 79 168 165
f 79 171 168
f 174 173 172
f 172 175 174
f 169 81 75
f 176 81 169
f 83 178 177
f 171 83 177
f 79 83 171
f 180 179 178
f 178 179 177
f 180 181 179
f 172 173 182
f 182 173 183
f 175 172 184
f 184 172 182
f 185 84 85
f 186 185 85
f 81 186 85
f 176 186 81
f 86 178 83
f 178 86 88
f 187 178 88
f 180 178 187
f 181 180 188
f 180 189 188
f 180 187 189
f 191 190 189
f 190 182 189
f 183 188 189
f 183 189 182
f 182 190 184
f 194 193 192
f 195 194 185
f 194 90 185
f 90 84 185
f 194 192 90
f 195 185 186
f 93 196 187
f 93 187 88
f 187 197 189
f 187 196 197
f 191 189 198
f 198 189 197
f 192 193 199
f 199 193 200
f 199 95 90
f 199 90 192
f 98 201 196
f 98 196 93
f 203 197 202
f 197 201 202
f 197 196 201
f 197 203 198
f 206 205 204
f 206 204 200
f 200 204 199
f 204 100 199
f 100 101 199
f 199 101 95
f 208 207 201
f 98 208 201
f 105 208 98
f 201 207 202
f 209 106 107
f 205 210 204
f 210 107 204
f 107 108 204
f 107 210 209
f 204 108 100
f 212 211 114
f 212 114 113
f 105 114 208
f 208 114 211
f 214 213 117
f 117 213 116
f 117 106 209
f 215 117 209
f 214 117 215
f 215 209 210
f 120 216 121
f 217 122 121
f 217 121 216
f 122 217 218
f 219 122 218
f 123 122 219
f 113 123 212
f 212 123 219
f 222 221 220
f 213 222 220
f 125 213 220
f 116 213 125
f 127 223 128
f 224 129 128
f 224 128 223
f 224 225 129
f 129 225 120
f 225 226 120
f 226 216 120
f 216 226 217
f 217 226 227
f 217 227 218
f 221 228 220
f 125 220 228
f 229 125 228
f 131 125 229
f 132 230 133
f 230 231 133
f 133 231 127
f 231 232 127
f 232 223 127
f 223 232 224
f 224 232 233
f 224 233 225
f 229 234 131
f 131 234 134
f 132 134 230
f 134 235 230
f 134 234 235
f 230 235 231
f 238 237 236
f 136 137 239
f 238 236 240
f 138 239 137
f 243 242 241
f 243 241 237
f 237 241 236
f 241 139 236
f 139 140 236
f 140 240 236
f 140 244 240
f 140 136 239
f 244 140 239
f 138 141 239
f 141 245 239
f 245 244 239
f 245 141 246
f 246 247 245
f 248 142 143
f 242 249 241
f 249 143 241
f 143 144 241
f 143 249 248
f 241 144 139
f 146 250 246
f 146 246 141
f 247 246 251
f 251 246 250
f 253 252 149
f 149 252 148
f 149 142 248
f 254 149 248
f 253 149 254
f 254 248 249
f 256 255 250
f 146 256 250
f 151 256 146
f 250 255 251
f 259 258 257
f 252 259 257
f 152 252 257
f 148 252 152
f 155 260 156
f 260 261 156
f 261 151 156
f 261 256 151
f 257 258 262
f 262 258 263
f 262 158 152
f 262 152 257
f 160 264 161
f 161 264 265
f 266 161 265
f 162 161 266
f 155 162 260
f 162 267 260
f 162 266 267
f 260 267 261
f 262 263 268
f 268 263 269
f 270 163 158
f 262 270 158
f 268 270 262
f 271 164 163
f 271 163 270
f 271 272 164
f 164 272 160
f 272 273 160
f 273 264 160
f 264 273 265
f 276 275 274
f 276 274 269
f 274 268 269
f 274 277 268
f 268 278 270
f 268 277 278
f 280 271 279
f 271 278 279
f 271 270 278
f 271 280 272
f 283 282 281
f 166 167 281
f 167 283 281
f 167 284 283
f 286 285 168
f 285 167 168
f 285 284 167
f 288 287 286
f 286 287 285
f 287 288 275
f 288 274 275
f 288 289 274
f 274 290 277
f 274 289 290
f 277 291 278
f 277 290 291
f 279 278 292
f 292 278 291
f 281 282 170
f 282 169 170
f 282 293 169
f 281 170 166
f 171 294 286
f 171 286 168
f 286 295 288
f 286 294 295
f 288 296 289
f 288 295 296
f 296 173 174
f 290 296 174
f 289 296 290
f 290 174 175
f 297 290 175
f 291 290 297
f 292 291 298
f 298 291 297
f 300 176 299
f 176 293 299
f 176 169 293
f 301 300 299
f 177 294 171
f 294 177 179
f 294 179 295
f 295 179 181
f 302 295 181
f 296 295 302
f 302 183 173
f 302 173 296
f 184 303 297
f 184 297 175
f 298 297 304
f 304 297 303
f 305 186 300
f 300 186 176
f 300 301 306
f 300 306 305
f 188 302 181
f 183 302 188
f 190 191 307
f 307 308 190
f 190 308 184
f 308 309 184
f 309 303 184
f 303 309 304
f 311 310 194
f 194 310 193
f 312 194 195
f 312 311 194
f 195 186 305
f 313 195 305
f 312 195 313
f 313 305 306
f 198 314 307
f 198 307 191
f 308 307 315
f 307 316 315
f 307 314 316
f 316 317 315
f 310 200 193
f 318 200 310
f 202 319 203
f 319 320 203
f 203 320 198
f 320 321 198
f 321 314 198
f 314 321 316
f 316 321 322
f 316 322 317
f 325 324 323
f 205 206 323
f 206 325 323
f 206 326 325
f 206 200 318
f 206 318 326
f 208 327 207
f 327 328 207
f 207 328 202
f 328 329 202
f 329 319 202
f 319 329 320
f 323 324 330
f 330 324 331
f 330 210 205
f 330 205 323
f 212 332 211
f 332 333 211
f 211 333 208
f 333 334 208
f 334 327 208
f 327 334 328
f 336 335 214
f 214 335 213
f 215 330 331
f 336 215 331
f 214 215 336
f 330 215 210
f 218 337 219
f 337 338 219
f 219 338 212
f 338 339 212
f 339 332 212
f 332 339 333
f 341 340 222
f 222 340 221
f 222 213 335
f 222 335 341
f 225 342 226
f 226 342 343
f 344 226 343
f 227 226 344
f 218 227 337
f 227 345 337
f 227 344 345
f 337 345 338
f 228 221 346
f 221 347 346
f 221 340 347
f 346 229 228
f 349 348 232
f 349 232 231
f 232 350 233
f 348 350 232
f 225 233 342
f 233 351 342
f 233 350 351
f 342 351 343
f 347 352 346
f 346 352 229
f 352 234 229
f 352 353 234
f 234 354 235
f 353 354 234
f 231 235 349
f 349 235 354
f 356 355 238
f 238 355 237
f 238 240 356
f 356 240 357
f 359 358 243
f 243 358 242
f 243 237 355
f 243 355 359
f 360 357 240
f 360 240 244
f 361 244 245
f 361 360 244
f 245 247 361
f 361 247 362
f 365 364 363
f 358 365 363
f 249 358 363
f 242 358 249
f 251 362 247
f 251 366 362
f 368 367 253
f 253 367 252
f 254 363 364
f 368 254 364
f 253 254 368
f 363 254 249
f 256 369 255
f 369 370 255
f 370 251 255
f 370 366 251
f 372 371 259
f 259 371 258
f 259 252 367
f 259 367 372
f 374 373 369
f 256 374 369
f 261 374 256
f 369 373 370
f 371 263 258
f 375 263 371
f 265 376 266
f 266 376 377
f 378 266 377
f 267 266 378
f 261 267 374
f 374 267 378
f 375 269 263
f 379 269 375
f 272 380 273
f 380 381 273
f 273 381 265
f 381 382 265
f 382 376 265
f 376 382 377
f 383 275 276
f 384 383 276
f 269 384 276
f 379 384 269
f 279 385 280
f 380 272 280
f 385 380 280
f 386 380 385
f 381 380 387
f 380 388 387
f 380 386 388
f 388 389 387
f 390 282 283
f 284 391 283
f 283 391 390
f 391 284 392
f 284 393 392
f 284 285 393
f 394 285 287
f 394 393 285
f 287 275 383
f 395 287 383
f 394 287 395
f 395 383 384
f 292 396 385
f 292 385 279
f 385 397 386
f 385 396 397
f 399 388 398
f 388 397 398
f 388 386 397
f 388 399 389
f 400 293 390
f 390 293 282
f 391 402 401
f 400 391 401
f 390 391 400
f 402 391 392
f 298 403 396
f 298 396 292
f 405 397 404
f 397 403 404
f 397 396 403
f 397 405 398
f 400 299 293
f 407 406 301
f 407 301 299
f 401 407 299
f 400 401 299
f 408 406 407
f 304 409 403
f 304 403 298
f 404 403 410
f 403 411 410
f 403 409 411
f 411 412 410
f 413 306 406
f 406 306 301
f 406 408 414
f 406 414 413
f 308 415 309
f 409 304 309
f 415 409 309
f 416 409 415
f 418 411 417
f 411 416 417
f 411 409 416
f 411 418 412
f 419 310 311
f 312 420 311
f 311 420 419
f 420 312 421
f 312 422 421
f 312 313 422
f 313 306 413
f 423 313 413
f 422 313 423
f 423 413 414
f 315 415 308
f 416 415 424
f 415 317 424
f 317 425 424
f 317 415 315
f 416 424 417
f 426 318 419
f 419 318 310
f 420 428 427
f 426 420 427
f 419 420 426
f 428 420 421
f 320 429 321
f 430 322 321
f 430 321 429
f 430 431 322
f 431 317 322
f 431 425 317
f 432 324 325
f 326 433 325
f 325 433 432
f 434 433 326
f 434 326 318
f 435 434 318
f 426 435 318
f 435 426 427
f 328 436 329
f 429 320 329
f 436 429 329
f 437 429 436
f 439 430 438
f 430 437 438
f 430 429 437
f 430 439 431
f 442 441 440
f 443 442 432
f 442 331 432
f 331 324 432
f 442 440 331
f 443 432 433
f 443 433 444
f 444 433 434
f 333 445 334
f 445 446 334
f 334 446 328
f 446 447 328
f 447 436 328
f 436 447 437
f 437 447 448
f 437 448 438
f 451 450 449
f 453 452 449
f 449 452 451
f 452 453 441
f 441 453 440
f 453 335 440
f 335 336 440
f 440 336 331
f 338 454 339
f 454 455 339
f 339 455 333
f 455 456 333
f 456 445 333
f 445 456 446
f 449 450 457
f 457 450 458
f 457 340 341
f 453 457 341
f 449 457 453
f 453 341 335
f 460 459 344
f 460 344 343
f 344 461 345
f 459 461 344
f 338 345 454
f 345 462 454
f 345 461 462
f 454 462 455
f 457 458 463
f 463 458 464
f 463 347 340
f 463 340 457
f 349 465 348
f 348 465 466
f 467 348 466
f 350 348 467
f 350 468 351
f 467 468 350
f 343 351 460
f 460 351 468
f 464 469 463
f 463 469 347
f 469 352 347
f 469 470 352
f 352 471 353
f 470 471 352
f 353 472 354
f 471 472 353
f 349 354 465
f 354 473 465
f 354 472 473
f 465 473 466
f 476 475 474
f 355 356 474
f 356 476 474
f 356 477 476
f 356 357 477
f 477 357 478
f 474 475 359
f 475 358 359
f 475 479 358
f 474 359 355
f 480 478 357
f 480 357 360
f 481 360 361
f 481 480 360
f 361 362 481
f 481 362 482
f 484 483 365
f 365 483 364
f 365 358 479
f 365 479 484
f 366 482 362
f 366 485 482
f 487 486 368
f 368 486 367
f 368 364 483
f 368 483 487
f 370 485 366
f 370 488 485
f 490 489 372
f 372 489 371
f 372 367 486
f 372 486 490
f 492 491 373
f 492 373 374
f 370 373 488
f 488 373 491
f 489 375 371
f 493 375 489
f 377 494 378
f 494 495 378
f 495 374 378
f 495 492 374
f 497 379 496
f 379 493 496
f 379 375 493
f 498 497 496
f 381 499 382
f 494 377 382
f 499 494 382
f 500 494 499
f 495 494 501
f 501 494 500
f 504 503 502
f 506 505 502
f 502 505 504
f 507 505 497
f 505 384 497
f 384 379 497
f 505 506 384
f 507 497 498
f 387 499 381
f 500 499 508
f 499 389 508
f 389 509 508
f 389 499 387
f 500 508 501
f 511 510 393
f 393 510 392
f 394 502 503
f 511 394 503
f 393 394 511
f 502 394 395
f 502 395 506
f 506 395 384
f 513 512 399
f 513 399 398
f 389 399 509
f 509 399 512
f 514 401 402
f 515 514 402
f 392 515 402
f 510 515 392
f 517 516 405
f 517 405 404
f 398 405 513
f 513 405 516
f 514 407 401
f 519 518 408
f 519 408 407
f 515 519 407
f 514 515 407
f 520 518 519
f 521 517 404
f 521 404 410
f 410 412 521
f 521 412 522
f 523 414 518
f 518 414 408
f 518 520 524
f 518 524 523
f 526 525 418
f 526 418 417
f 412 418 522
f 522 418 525
f 527 421 422
f 423 528 422
f 422 528 527
f 529 528 423
f 529 423 414
f 530 529 414
f 523 530 414
f 530 523 524
f 532 531 424
f 532 424 425
f 417 424 526
f 526 424 531
f 534 533 428
f 428 533 427
f 428 421 527
f 535 428 527
f 534 428 535
f 535 527 528
f 535 528 536
f 536 528 529
f 431 532 425
f 431 537 532
f 540 539 538
f 542 541 538
f 538 541 540
f 434 435 542
f 435 541 542
f 435 543 541
f 435 427 533
f 435 533 543
f 545 544 439
f 545 439 438
f 431 439 537
f 537 439 544
f 548 547 546
f 441 442 546
f 442 548 546
f 442 549 548
f 443 538 539
f 549 443 539
f 442 443 549
f 538 443 444
f 538 444 542
f 542 444 434
f 446 550 447
f 447 550 551
f 552 447 551
f 448 447 552
f 438 448 545
f 545 448 552
f 554 553 451
f 451 553 450
f 452 546 547
f 554 452 547
f 451 452 554
f 546 452 441
f 556 555 456
f 556 456 455
f 446 456 550
f 456 557 550
f 456 555 557
f 550 557 551
f 553 458 450
f 558 458 553
f 460 559 459
f 459 559 560
f 561 459 560
f 461 459 561
f 461 562 462
f 561 562 461
f 455 462 556
f 556 462 562
f 565 564 563
f 558 565 563
f 464 558 563
f 458 558 464
f 567 566 467
f 567 467 466
f 467 568 468
f 566 568 467
f 460 468 559
f 468 569 559
f 468 568 569
f 559 569 560
f 563 564 570
f 570 564 571
f 572 469 464
f 563 572 464
f 570 572 563
f 573 470 469
f 573 469 572
f 470 573 574
f 575 470 574
f 471 470 575
f 471 576 472
f 575 576 471
f 472 577 473
f 576 577 472
f 466 473 567
f 567 473 577
f 571 578 570
f 570 578 572
f 572 578 579
f 572 579 573
f 573 579 580
f 573 580 574
f 581 475 476
f 581 476 582
f 476 583 582
f 476 477 583
f 477 478 583
f 583 478 584
f 586 585 581
f 585 475 581
f 585 479 475
f 586 581 582
f 587 584 478
f 587 478 480
f 588 480 481
f 588 587 480
f 481 482 588
f 588 482 589
f 591 590 484
f 484 590 483
f 484 479 585
f 484 585 591
f 485 589 482
f 485 592 589
f 594 593 487
f 487 593 486
f 487 483 590
f 487 590 594
f 488 592 485
f 488 595 592
f 596 489 490
f 597 596 490
f 486 597 490
f 593 597 486
f 492 598 491
f 598 599 491
f 599 488 491
f 599 595 488
f 600 493 596
f 596 493 489
f 596 597 601
f 596 601 600
f 495 602 598
f 495 598 492
f 599 598 603
f 603 598 602
f 600 496 493
f 498 496 600
f 601 498 600
f 604 498 601
f 606 605 602
f 495 606 602
f 501 606 495
f 602 605 603
f 607 503 504
f 505 608 504
f 504 608 607
f 507 609 505
f 505 609 608
f 610 609 507
f 498 610 507
f 604 610 498
f 612 611 508
f 612 508 509
f 501 508 606
f 606 508 611
f 613 510 511
f 503 607 511
f 607 613 511
f 607 614 613
f 615 607 608
f 614 607 615
f 609 617 616
f 615 609 616
f 608 609 615
f 617 609 610
f 619 618 512
f 619 512 513
f 509 512 612
f 612 512 618
f 620 515 613
f 613 515 510
f 621 613 614
f 620 613 621
f 622 614 615
f 621 614 622
f 615 616 623
f 615 623 622
f 625 624 516
f 625 516 517
f 513 516 619
f 619 516 624
f 620 519 515
f 620 621 626
f 520 620 626
f 627 520 626
f 620 520 519
f 626 621 622
f 626 622 628
f 628 622 623
f 517 521 629
f 630 517 629
f 625 517 630
f 522 629 521
f 627 524 520
f 631 524 627
f 630 629 525
f 526 630 525
f 632 630 526
f 525 629 522
f 633 529 530
f 634 633 530
f 524 634 530
f 631 634 524
f 636 635 531
f 636 531 532
f 526 531 632
f 632 531 635
f 638 637 534
f 534 637 533
f 639 534 535
f 639 638 534
f 640 535 536
f 640 639 535
f 536 529 633
f 641 536 633
f 640 536 641
f 641 633 634
f 644 643 642
f 643 636 642
f 636 537 642
f 636 532 537
f 645 539 540
f 541 646 540
f 540 646 645
f 543 647 541
f 541 647 646
f 648 647 543
f 533 648 543
f 637 648 533
f 651 650 649
f 653 652 649
f 653 649 650
f 652 653 644
f 652 644 642
f 545 652 642
f 544 545 642
f 544 642 537
f 655 654 548
f 548 654 547
f 656 548 549
f 656 655 548
f 549 539 645
f 657 549 645
f 656 549 657
f 657 645 646
f 657 646 658
f 658 646 647
f 658 647 659
f 659 647 648
f 662 661 660
f 660 661 651
f 649 660 651
f 663 660 649
f 551 663 552
f 663 652 552
f 663 649 652
f 552 652 545
f 664 553 554
f 547 654 665
f 664 547 665
f 666 664 665
f 554 547 664
f 667 666 665
f 670 669 668
f 668 669 662
f 668 662 660
f 556 668 660
f 555 556 660
f 555 660 557
f 557 660 663
f 557 663 551
f 671 558 664
f 664 558 553
f 672 664 666
f 671 664 672
f 666 667 673
f 666 673 672
f 675 674 561
f 675 561 560
f 668 562 670
f 562 674 670
f 562 561 674
f 562 668 556
f 676 564 565
f 558 671 565
f 671 676 565
f 671 677 676
f 672 679 678
f 677 672 678
f 671 672 677
f 679 672 673
f 567 680 566
f 681 568 566
f 681 566 680
f 568 681 682
f 683 568 682
f 569 568 683
f 560 569 675
f 675 569 683
f 685 684 676
f 684 564 676
f 684 571 564
f 685 676 677
f 685 677 686
f 686 677 678
f 574 687 575
f 688 576 575
f 688 575 687
f 576 688 689
f 690 576 689
f 577 576 690
f 567 577 680
f 577 691 680
f 577 690 691
f 680 691 681
f 681 691 692
f 681 692 682
f 684 693 571
f 571 693 578
f 693 695 694
f 579 693 694
f 578 693 579
f 696 580 579
f 696 579 694
f 687 574 580
f 696 687 580
f 697 687 696
f 699 688 698
f 688 697 698
f 688 687 697
f 688 699 689
f 695 700 694
f 694 700 696
f 696 700 701
f 696 701 697
f 697 701 702
f 697 702 698
f 703 582 583
f 584 703 583
f 704 585 586
f 705 704 586
f 705 586 582
f 706 705 582
f 703 706 582
f 706 703 584
f 587 706 584
f 707 706 587
f 709 707 708
f 707 588 708
f 707 587 588
f 589 708 588
f 710 590 591
f 585 704 591
f 704 710 591
f 704 711 710
f 704 705 712
f 704 712 711
f 709 708 713
f 709 713 714
f 592 713 589
f 589 713 708
f 715 593 594
f 590 710 594
f 710 715 594
f 710 716 715
f 711 718 717
f 716 711 717
f 710 711 716
f 718 711 712
f 719 714 713
f 713 592 719
f 592 720 719
f 592 595 720
f 721 597 715
f 715 597 593
f 716 723 722
f 721 716 722
f 715 716 721
f 723 716 717
f 726 725 724
f 725 720 724
f 720 599 724
f 720 595 599
f 727 601 721
f 721 601 597
f 721 722 728
f 721 728 727
f 726 724 729
f 726 729 730
f 603 729 599
f 599 729 724
f 731 604 727
f 727 604 601
f 727 728 732
f 727 732 731
f 735 734 733
f 733 734 730
f 733 730 729
f 606 733 729
f 605 606 729
f 605 729 603
f 736 610 731
f 731 610 604
f 731 732 737
f 731 737 736
f 740 739 738
f 738 739 735
f 738 735 733
f 612 738 733
f 611 612 733
f 611 733 606
f 741 616 617
f 610 736 617
f 736 741 617
f 736 742 741
f 736 737 743
f 744 736 743
f 742 736 744
f 746 745 744
f 746 744 743
f 745 746 740
f 745 740 738
f 619 745 738
f 618 619 738
f 618 738 612
f 747 623 741
f 741 623 616
f 742 749 748
f 747 742 748
f 741 742 747
f 749 742 744
f 749 744 750
f 625 751 624
f 751 744 624
f 744 745 624
f 751 750 744
f 624 745 619
f 752 627 626
f 628 753 626
f 626 753 752
f 754 753 628
f 754 628 623
f 755 754 623
f 747 755 623
f 755 747 748
f 758 757 756
f 757 751 756
f 751 630 756
f 751 625 630
f 759 631 752
f 752 631 627
f 753 761 760
f 759 753 760
f 752 753 759
f 761 753 754
f 764 763 762
f 762 763 758
f 756 762 758
f 765 762 756
f 632 765 630
f 630 765 756
f 766 634 759
f 759 634 631
f 759 760 767
f 768 759 767
f 766 759 768
f 770 769 768
f 770 768 767
f 769 770 764
f 762 769 764
f 771 769 762
f 636 771 635
f 771 765 635
f 771 762 765
f 635 765 632
f 773 772 638
f 638 772 637
f 774 638 639
f 774 773 638
f 775 639 640
f 775 774 639
f 776 640 641
f 776 775 640
f 776 641 634
f 777 776 634
f 766 777 634
f 776 777 778
f 779 766 768
f 777 766 779
f 780 768 769
f 779 768 780
f 644 780 643
f 780 771 643
f 780 769 771
f 643 771 636
f 772 648 637
f 781 648 772
f 784 783 782
f 786 785 782
f 786 782 783
f 788 787 785
f 788 785 786
f 787 788 778
f 777 787 778
f 789 787 777
f 651 789 650
f 789 779 650
f 789 777 779
f 650 779 653
f 653 779 780
f 653 780 644
f 791 790 655
f 655 790 654
f 792 655 656
f 792 791 655
f 793 656 657
f 793 792 656
f 795 793 794
f 793 658 794
f 793 657 658
f 659 796 658
f 658 796 794
f 797 796 659
f 648 797 659
f 781 797 648
f 784 782 798
f 784 798 799
f 800 782 785
f 798 782 800
f 801 785 787
f 800 785 801
f 662 801 661
f 801 789 661
f 801 787 789
f 661 789 651
f 790 802 654
f 654 802 665
f 667 665 802
f 667 802 803
f 795 794 804
f 795 804 805
f 796 807 806
f 804 796 806
f 794 796 804
f 796 808 807
f 796 809 808
f 796 797 810
f 809 796 810
f 809 810 799
f 798 809 799
f 811 809 798
f 812 798 800
f 811 798 812
f 670 812 669
f 812 801 669
f 812 800 801
f 669 801 662
f 803 673 667
f 813 673 803
f 805 804 814
f 805 814 815
f 804 806 816
f 804 816 814
f 808 809 817
f 808 817 818
f 819 809 811
f 817 809 819
f 675 819 674
f 819 812 674
f 819 811 812
f 674 812 670
f 820 678 679
f 821 820 679
f 673 821 679
f 813 821 673
f 822 815 814
f 814 823 822
f 814 824 823
f 814 816 825
f 824 814 825
f 824 825 818
f 817 824 818
f 826 824 817
f 682 826 683
f 826 819 683
f 826 817 819
f 683 819 675
f 827 684 685
f 827 685 828
f 685 829 828
f 685 686 829
f 686 678 820
f 830 686 820
f 829 686 830
f 830 820 821
f 833 832 831
f 690 689 831
f 832 690 831
f 834 690 832
f 824 691 823
f 691 834 823
f 691 690 834
f 691 824 692
f 692 824 826
f 692 826 682
f 827 693 684
f 836 835 695
f 836 695 693
f 828 836 693
f 827 828 693
f 838 837 835
f 838 835 836
f 840 839 837
f 840 837 838
f 839 840 833
f 839 833 831
f 698 839 831
f 699 698 831
f 699 831 689
f 835 700 695
f 700 835 701
f 701 835 837
f 701 837 702
f 702 837 839
f 702 839 698
f 841 705 706
f 707 842 706
f 706 842 841
f 709 842 707
f 843 712 841
f 841 712 705
f 844 841 842
f 843 841 844
f 714 844 709
f 709 844 842
f 845 717 718
f 846 845 718
f 846 718 712
f 847 846 712
f 843 847 712
f 847 843 844
f 847 844 848
f 850 848 849
f 849 848 719
f 848 844 719
f 844 714 719
f 720 849 719
f 851 722 723
f 717 845 723
f 845 851 723
f 845 852 851
f 845 846 853
f 854 845 853
f 852 845 854
f 855 854 853
f 850 849 725
f 726 850 725
f 856 850 726
f 725 849 720
f 857 728 851
f 851 728 722
f 852 859 858
f 857 852 858
f 851 852 857
f 859 852 854
f 859 854 860
f 854 861 860
f 854 862 861
f 854 855 863
f 862 854 863
f 863 856 862
f 856 730 862
f 856 726 730
f 864 732 857
f 857 732 728
f 857 858 865
f 866 857 865
f 864 857 866
f 868 867 866
f 868 866 865
f 867 868 861
f 867 861 862
f 735 867 862
f 734 735 862
f 734 862 730
f 869 737 864
f 864 737 732
f 870 864 866
f 869 864 870
f 740 870 739
f 870 867 739
f 870 866 867
f 739 867 735
f 869 743 737
f 743 869 746
f 746 869 870
f 746 870 740
f 871 748 749
f 750 872 749
f 749 872 871
f 751 872 750
f 873 754 755
f 748 871 755
f 871 873 755
f 871 874 873
f 758 874 757
f 874 872 757
f 874 871 872
f 757 872 751
f 875 760 761
f 754 873 761
f 873 875 761
f 873 876 875
f 764 876 763
f 876 874 763
f 876 873 874
f 763 874 758
f 875 767 760
f 767 875 770
f 770 875 876
f 770 876 764
f 877 772 773
f 774 878 773
f 773 878 877
f 775 879 774
f 774 879 878
f 776 880 775
f 775 880 879
f 778 880 776
f 881 781 877
f 877 781 772
f 784 881 783
f 881 878 783
f 881 877 878
f 783 878 786
f 786 878 879
f 786 879 788
f 788 879 880
f 788 880 778
f 882 790 791
f 792 883 791
f 791 883 882
f 793 884 792
f 792 884 883
f 795 884 793
f 885 797 881
f 881 797 781
f 799 885 784
f 784 885 881
f 882 802 790
f 802 882 803
f 882 886 803
f 882 883 886
f 887 883 884
f 886 883 887
f 805 887 795
f 795 887 884
f 888 806 807
f 797 885 810
f 888 807 808
f 810 885 799
f 889 813 886
f 886 813 803
f 890 886 887
f 889 886 890
f 815 890 805
f 805 890 887
f 891 816 888
f 888 816 806
f 818 891 808
f 808 891 888
f 892 821 889
f 889 821 813
f 893 889 890
f 892 889 893
f 822 894 815
f 894 890 815
f 894 893 890
f 816 891 825
f 894 822 823
f 825 891 818
f 895 828 829
f 830 896 829
f 829 896 895
f 821 892 830
f 892 896 830
f 892 897 896
f 833 897 832
f 897 893 832
f 897 892 893
f 832 893 834
f 834 893 894
f 834 894 823
f 895 836 828
f 836 895 838
f 838 895 896
f 838 896 840
f 840 896 897
f 840 897 833
f 898 846 847
f 848 899 847
f 847 899 898
f 850 899 848
f 898 853 846
f 853 898 855
f 898 900 855
f 898 899 900
f 856 900 850
f 850 900 899
f 901 858 859
f 860 902 859
f 859 902 901
f 855 900 863
f 902 860 861
f 863 900 856
f 901 865 858
f 865 901 868
f 868 901 902
f 868 902 861
