v -1.2 14.0 -10.0
v -1.0 14.0 -10.2
v -1.0 13.7 -10.0
v -1.0 13.8 -9.0
v -1.1 14.0 -9.0
v -1.0 14.0 -8.8
v -1.0 15.0 -10.0
v -1.0 15.0 -10.1
v -1.0 15.0 -9.9
v -1.0 14.2 -9.0
v -1.0 15.0 -10.0
v -0.0 7.0 -15.0
v 0.0 7.0 -15.0
v 0.0 7.0 -15.0
v 0.0 6.8 -14.0
v -0.1 7.0 -14.0
v 0.0 7.0 -13.9
v -0.1 8.0 -16.0
v 0.0 8.0 -16.1
v 0.0 7.9 -16.0
v -0.4 8.0 -15.0
v -0.1 8.0 -14.0
v 0.0 8.0 -13.9
v -0.4 9.0 -16.0
v 0.0 9.0 -16.5
v -0.4 9.0 -15.0
v 0.0 9.0 -14.3
v 0.0 8.2 -14.0
v -0.1 9.0 -12.0
v 0.0 9.0 -12.5
v 0.0 8.9 -12.0
v 0.0 9.0 -11.4
v -0.3 10.0 -19.0
v 0.0 10.0 -19.9
v 0.0 9.8 -19.0
v 0.0 9.7 -18.0
v -0.3 10.0 -18.0
v 0.0 9.4 -17.0
v -0.4 10.0 -17.0
v -0.5 10.0 -16.0
v -0.4 10.0 -15.0
v 0.0 9.5 -14.0
v -0.2 10.0 -14.0
v 0.0 10.0 -13.4
v -0.3 10.0 -12.0
v 0.0 10.0 -12.7
v 0.0 9.2 -11.0
v -0.2 10.0 -11.0
v 0.0 10.0 -10.7
v -0.2 11.0 -20.0
v 0.0 11.0 -20.2
v 0.0 10.1 -20.0
v -0.9 11.0 -19.0
v -0.6 11.0 -18.0
v -0.5 11.0 -17.0
v -0.4 11.0 -16.0
v 0.0 11.0 -15.1
v 0.0 10.9 -15.0
v -0.3 11.0 -14.0
v 0.0 11.0 -14.8
v 0.0 11.0 -13.2
v -0.4 11.0 -12.0
v 0.0 11.0 -12.9
v -0.5 11.0 -11.0
v 0.0 10.6 -10.0
v -0.3 11.0 -10.0
v 0.0 11.0 -9.0
v -0.1 11.0 -9.0
v 0.0 11.0 -8.9
v 0.0 11.2 -20.0
v -0.3 12.0 -19.0
v 0.0 12.0 -19.3
v -0.5 12.0 -18.0
v -0.5 12.0 -17.0
v -0.4 12.0 -16.0
v 0.0 12.0 -15.2
v -0.3 12.0 -14.0
v 0.0 12.0 -14.7
v 0.0 11.2 -13.0
v -0.3 12.0 -13.0
v -0.5 12.0 -12.0
v -0.5 12.0 -11.0
v -0.5 12.0 -10.0
v -0.4 12.0 -9.0
v 0.0 11.9 -8.0
v -0.1 12.0 -8.0
v 0.0 12.0 -7.9
v 0.0 12.3 -19.0
v -0.2 13.0 -18.0
v 0.0 13.0 -18.3
v -0.4 13.0 -17.0
v -0.4 13.0 -16.0
v 0.0 12.4 -15.0
v -0.2 13.0 -15.0
v 0.0 12.6 -14.0
v 0.0 13.0 -14.5
v 0.0 12.6 -13.0
v -0.4 13.0 -12.0
v 0.0 13.0 -12.7
v -0.4 13.0 -11.0
v -0.6 13.0 -10.0
v -0.6 13.0 -9.0
v -0.5 13.0 -8.0
v 0.0 12.7 -7.0
v -0.3 13.0 -7.0
v 0.0 13.0 -6.6
v 0.0 13.6 -18.0
v 0.0 13.5 -17.0
v 0.0 13.5 -16.0
v 0.0 13.3 -15.0
v -0.2 14.0 -12.0
v 0.0 14.0 -12.3
v -0.1 14.0 -11.0
v -0.6 14.0 -8.0
v -0.5 14.0 -7.0
v 0.0 13.6 -6.0
v -0.2 14.0 -6.0
v 0.0 14.0 -5.7
v 0.0 14.3 -12.0
v -0.2 15.0 -11.0
v 0.0 15.0 -11.2
v -0.6 15.0 -9.0
v -0.5 15.0 -8.0
v -0.4 15.0 -7.0
v -0.4 15.0 -6.0
v 0.0 15.0 -5.0
v -0.0 15.0 -5.0
v 0.0 15.0 -5.0
v 0.0 15.2 -11.0
v 0.0 15.5 -10.0
v 0.0 15.6 -9.0
v -0.1 16.0 -8.0
v 0.0 16.0 -8.2
v 0.0 16.0 -7.6
v 0.0 15.7 -7.0
v -0.4 16.0 -6.0
v 0.0 16.0 -6.7
v -0.3 16.0 -5.0
v 0.0 16.0 -4.7
v 0.0 16.1 -8.0
v -0.2 17.0 -6.0
v 0.0 17.0 -6.2
v -0.2 17.0 -5.0
v 0.0 17.0 -4.8
v 0.0 17.2 -6.0
v 0.0 17.2 -5.0
v 0.0 7.0 -15.0
v 0.1 7.0 -14.0
v 0.2 8.0 -16.0
v 1.0 8.0 -15.5
v 1.0 7.8 -15.0
v 1.0 8.0 -14.7
v 0.1 8.0 -14.0
v 0.6 9.0 -17.0
v 1.0 9.0 -17.3
v 1.0 8.8 -17.0
v 1.0 8.2 -16.0
v 1.0 9.0 -14.2
v 0.2 9.0 -12.0
v 0.4 10.0 -19.0
v 1.0 10.0 -18.6
v 1.0 9.4 -18.0
v 1.0 9.2 -14.0
v 1.0 9.4 -13.0
v 0.2 10.0 -13.0
v 1.0 9.5 -12.0
v 0.7 10.0 -11.0
v 1.0 10.0 -11.2
v 1.0 11.0 -20.0
v 1.0 11.0 -20.0
v 1.0 10.4 -19.0
v 0.1 11.0 -15.0
v 0.1 11.0 -13.0
v 1.0 10.1 -11.0
v 1.0 10.6 -10.0
v 0.1 11.0 -9.0
v 1.0 11.0 -9.4
v 1.0 11.0 -20.0
v 1.0 12.0 -19.4
v 0.1 12.0 -15.0
v 1.0 11.4 -9.0
v 0.5 12.0 -8.0
v 1.0 12.0 -8.1
v 1.0 12.5 -19.0
v 1.0 13.0 -18.1
v 0.2 13.0 -14.0
v 0.2 13.0 -13.0
v 1.0 12.1 -8.0
v 1.0 12.4 -7.0
v 1.0 12.7 -6.0
v 0.6 13.0 -6.0
v 1.0 13.0 -5.8
v 1.0 13.1 -18.0
v 0.7 14.0 -17.0
v 1.0 14.0 -17.4
v 0.5 14.0 -16.0
v 0.3 14.0 -15.0
v 0.0 14.0 -14.0
v 0.3 14.0 -13.0
v 1.0 14.0 -5.6
v 1.0 14.2 -17.0
v 1.0 14.6 -16.0
v 0.7 15.0 -15.0
v 1.0 15.0 -15.4
v 0.6 15.0 -14.0
v 0.6 15.0 -13.0
v 0.5 15.0 -12.0
v 0.0 15.0 -5.0
v 1.0 15.0 -5.6
v 1.0 15.2 -15.0
v 1.0 15.4 -14.0
v 1.0 15.4 -13.0
v 1.0 15.4 -12.0
v 1.0 15.5 -11.0
v 1.0 15.6 -10.0
v 0.7 16.0 -9.0
v 1.0 16.0 -9.2
v 0.2 16.0 -7.0
v 1.0 15.4 -5.0
v 1.0 16.0 -4.6
v 1.0 16.2 -9.0
v 1.0 16.4 -8.0
v 1.0 16.5 -7.0
v 1.0 17.0 -6.5
v 1.0 17.0 -4.7
v 1.0 17.4 -6.0
v 1.0 17.3 -5.0
v 1.3 8.0 -15.0
v 1.5 9.0 -17.0
v 2.0 9.0 -16.7
v 2.0 8.2 -16.0
v 2.0 8.4 -15.0
v 2.0 8.6 -14.0
v 1.2 9.0 -14.0
v 2.0 8.7 -13.0
v 1.5 9.0 -13.0
v 2.0 9.0 -12.5
v 2.0 10.0 -18.3
v 2.0 9.3 -18.0
v 2.0 9.3 -17.0
v 2.0 9.3 -12.0
v 2.0 9.7 -11.0
v 1.2 10.0 -11.0
v 2.0 10.0 -10.5
v 1.0 11.0 -20.0
v 1.5 11.0 -19.0
v 2.0 11.0 -18.5
v 2.0 10.4 -10.0
v 2.0 11.0 -9.5
v 1.5 12.0 -19.0
v 2.0 12.0 -18.6
v 2.0 11.4 -9.0
v 2.0 11.6 -8.0
v 1.2 12.0 -8.0
v 2.0 11.8 -7.0
v 1.6 12.0 -7.0
v 2.0 12.0 -6.7
v 2.0 12.6 -19.0
v 1.6 13.0 -19.0
v 2.0 13.0 -19.5
v 2.0 12.6 -6.0
v 2.0 13.0 -5.6
v 1.3 14.0 -19.0
v 2.0 14.0 -19.3
v 1.5 14.0 -18.0
v 2.0 14.0 -5.3
v 2.0 14.3 -19.0
v 2.0 14.3 -18.0
v 2.0 14.1 -17.0
v 1.6 15.0 -16.0
v 2.0 15.0 -16.3
v 2.0 14.5 -5.0
v 1.5 15.0 -5.0
v 2.0 15.0 -4.7
v 2.0 15.3 -16.0
v 2.0 15.5 -15.0
v 2.0 15.5 -14.0
v 2.0 15.5 -13.0
v 2.0 15.5 -12.0
v 2.0 15.5 -11.0
v 2.0 15.5 -10.0
v 1.3 16.0 -9.0
v 2.0 15.7 -9.0
v 2.0 16.0 -8.6
v 2.0 16.0 -4.5
v 2.0 16.4 -8.0
v 2.0 16.6 -7.0
v 2.0 17.0 -6.5
v 2.0 17.0 -4.6
v 2.0 17.4 -6.0
v 2.0 17.4 -5.0
v 2.5 9.0 -16.0
v 3.0 9.0 -15.5
v 3.0 8.6 -15.0
v 3.0 8.5 -14.0
v 3.0 8.5 -13.0
v 3.0 8.7 -12.0
v 2.5 9.0 -12.0
v 3.0 9.0 -11.6
v 2.3 10.0 -18.0
v 2.5 10.0 -17.0
v 2.8 10.0 -16.0
v 3.0 10.0 -15.8
v 3.0 9.4 -11.0
v 3.0 9.8 -10.0
v 2.6 10.0 -10.0
v 3.0 10.0 -9.8
v 2.5 11.0 -18.0
v 3.0 11.0 -17.2
v 3.0 10.8 -17.0
v 3.0 10.2 -16.0
v 3.0 11.0 -9.4
v 2.4 12.0 -18.0
v 3.0 11.5 -17.0
v 2.9 12.0 -17.0
v 3.0 12.0 -16.8
v 3.0 11.4 -9.0
v 3.0 11.5 -8.0
v 3.0 11.6 -7.0
v 3.0 12.0 -6.5
v 2.3 13.0 -19.0
v 2.6 13.0 -18.0
v 3.0 13.0 -17.5
v 3.0 12.3 -17.0
v 3.0 12.5 -6.0
v 3.0 13.0 -5.5
v 2.9 14.0 -19.0
v 3.0 14.0 -18.9
v 3.0 13.6 -18.0
v 3.0 13.6 -5.0
v 2.5 14.0 -5.0
v 3.0 14.0 -4.7
v 3.0 14.2 -18.0
v 3.0 14.5 -17.0
v 3.0 15.0 -16.5
v 3.0 15.0 -4.4
v 3.0 15.4 -16.0
v 3.0 15.5 -15.0
v 3.0 15.5 -14.0
v 3.0 15.5 -13.0
v 3.0 15.5 -12.0
v 3.0 15.5 -11.0
v 3.0 15.5 -10.0
v 3.0 15.6 -9.0
v 3.0 16.0 -8.5
v 3.0 16.0 -4.3
v 3.0 16.4 -8.0
v 3.0 16.6 -7.0
v 3.0 17.0 -6.5
v 3.0 16.5 -4.0
v 2.7 17.0 -4.0
v 3.0 17.0 -3.7
v 3.0 17.4 -6.0
v 3.0 17.7 -5.0
v 3.0 18.0 -4.0
v 3.0 18.0 -4.0
v 3.0 18.0 -4.0
v 3.0 18.0 -4.0
v 4.0 9.0 -15.4
v 4.0 8.6 -15.0
v 4.0 8.5 -14.0
v 4.0 8.5 -13.0
v 4.0 8.6 -12.0
v 4.0 9.0 -11.5
v 4.0 10.0 -15.8
v 4.0 9.4 -11.0
v 4.0 9.8 -10.0
v 4.0 10.0 -9.8
v 3.2 11.0 -17.0
v 4.0 11.0 -16.4
v 4.0 10.4 -16.0
v 4.0 11.0 -9.4
v 4.0 12.0 -16.1
v 4.0 11.5 -9.0
v 4.0 11.6 -8.0
v 4.0 11.8 -7.0
v 4.0 12.0 -6.7
v 3.5 13.0 -17.0
v 4.0 13.0 -16.5
v 4.0 12.7 -6.0
v 4.0 13.0 -5.7
v 3.2 14.0 -18.0
v 4.0 14.0 -17.1
v 4.0 13.8 -17.0
v 4.0 13.7 -5.0
v 4.0 14.0 -4.7
v 4.0 14.1 -17.0
v 4.0 15.0 -16.3
v 4.0 15.0 -4.0
v 4.0 15.0 -4.0
v 4.0 15.0 -4.0
v 4.0 15.2 -16.0
v 4.0 15.4 -15.0
v 4.0 15.4 -14.0
v 4.0 15.5 -13.0
v 4.0 15.5 -12.0
v 4.0 15.5 -11.0
v 4.0 15.5 -10.0
v 4.0 15.6 -9.0
v 4.0 16.0 -8.5
v 3.6 16.0 -4.0
v 4.0 16.0 -3.7
v 4.0 16.4 -8.0
v 4.0 16.7 -7.0
v 4.0 17.0 -6.6
v 4.0 17.0 -3.2
v 4.0 17.5 -6.0
v 3.8 18.0 -5.0
v 4.0 18.0 -5.2
v 4.0 18.0 -3.8
v 4.0 18.1 -5.0
v 4.0 18.2 -4.0
v 4.8 9.0 -16.0
v 5.0 9.0 -16.2
v 5.0 8.8 -16.0
v 5.0 8.6 -15.0
v 5.0 8.6 -14.0
v 5.0 8.6 -13.0
v 5.0 8.8 -12.0
v 5.0 9.0 -11.7
v 4.3 10.0 -16.0
v 5.0 10.0 -16.4
v 5.0 9.6 -11.0
v 4.4 10.0 -10.0
v 5.0 10.0 -10.6
v 5.0 11.0 -16.5
v 5.0 10.6 -10.0
v 5.0 11.0 -9.7
v 5.0 12.0 -16.3
v 4.6 12.0 -9.0
v 5.0 12.0 -9.4
v 4.4 12.0 -8.0
v 4.2 12.0 -7.0
v 5.0 12.5 -16.0
v 4.6 13.0 -16.0
v 5.0 13.0 -15.7
v 5.0 12.4 -9.0
v 5.0 12.6 -8.0
v 5.0 13.0 -7.5
v 4.7 13.0 -7.0
v 4.3 13.0 -6.0
v 4.1 14.0 -17.0
v 4.6 14.0 -16.0
v 5.0 14.0 -15.5
v 5.0 13.5 -7.0
v 5.0 14.0 -6.6
v 4.6 14.0 -6.0
v 4.2 14.0 -5.0
v 4.2 15.0 -16.0
v 5.0 14.5 -15.0
v 4.5 15.0 -15.0
v 4.6 15.0 -14.0
v 5.0 14.7 -14.0
v 5.0 15.0 -13.5
v 4.6 15.0 -6.0
v 5.0 15.0 -6.5
v 4.5 15.0 -5.0
v 4.0 15.0 -4.0
v 5.0 15.3 -13.0
v 5.0 15.5 -12.0
v 5.0 15.5 -11.0
v 5.0 15.5 -10.0
v 5.0 15.6 -9.0
v 5.0 16.0 -8.5
v 4.7 16.0 -6.0
v 5.0 16.0 -6.4
v 4.5 16.0 -5.0
v 4.2 16.0 -4.0
v 5.0 16.4 -8.0
v 4.6 17.0 -7.0
v 5.0 17.0 -7.3
v 5.0 16.6 -6.0
v 5.0 17.0 -5.7
v 4.6 17.0 -5.0
v 4.4 17.0 -4.0
v 5.0 17.2 -7.0
v 5.0 17.6 -6.0
v 4.1 18.0 -5.0
v 4.2 18.0 -4.0
v 6.0 9.0 -16.0
v 6.0 9.0 -16.0
v 5.5 9.0 -15.0
v 6.0 9.0 -16.0
v 5.5 9.0 -14.0
v 5.5 9.0 -13.0
v 5.3 9.0 -12.0
v 6.0 10.0 -16.3
v 6.0 9.4 -15.0
v 6.0 9.5 -14.0
v 6.0 9.5 -13.0
v 6.0 9.7 -12.0
v 5.4 10.0 -11.0
v 6.0 10.0 -11.7
v 6.0 11.0 -16.3
v 5.7 11.0 -11.0
v 6.0 11.0 -11.4
v 5.3 11.0 -10.0
v 6.0 12.0 -16.2
v 6.0 11.5 -11.0
v 6.0 12.0 -10.6
v 5.5 12.0 -10.0
v 6.0 12.3 -16.0
v 6.0 13.0 -15.4
v 5.7 13.0 -10.0
v 6.0 13.0 -10.4
v 5.5 13.0 -9.0
v 5.3 13.0 -8.0
v 6.0 14.0 -15.2
v 5.9 14.0 -13.0
v 6.0 13.8 -13.0
v 6.0 14.0 -13.3
v 6.0 14.0 -12.8
v 6.0 13.4 -10.0
v 6.0 13.7 -9.0
v 6.0 14.0 -8.7
v 5.6 14.0 -8.0
v 5.3 14.0 -7.0
v 6.0 14.2 -15.0
v 6.0 14.3 -14.0
v 5.4 15.0 -13.0
v 6.0 15.0 -12.3
v 5.7 15.0 -8.0
v 6.0 15.0 -8.6
v 5.4 15.0 -7.0
v 6.0 15.2 -12.0
v 6.0 15.3 -11.0
v 6.0 15.3 -10.0
v 6.0 15.3 -9.0
v 5.8 16.0 -8.0
v 5.5 16.0 -7.0
v 5.6 17.0 -7.0
v 5.2 17.0 -6.0
v 6.0 9.0 -16.0
v 6.3 10.0 -16.0
v 6.4 10.0 -15.0
v 6.4 10.0 -14.0
v 6.4 10.0 -13.0
v 6.2 10.0 -12.0
v 6.3 11.0 -16.0
v 6.5 11.0 -15.0
v 6.5 11.0 -14.0
v 6.5 11.0 -13.0
v 6.4 11.0 -12.0
v 6.2 12.0 -16.0
v 6.5 12.0 -15.0
v 6.5 12.0 -14.0
v 6.5 12.0 -13.0
v 6.5 12.0 -12.0
v 6.3 12.0 -11.0
v 6.4 13.0 -15.0
v 6.5 13.0 -14.0
v 6.4 13.0 -13.0
v 6.5 13.0 -12.0
v 6.4 13.0 -11.0
v 6.2 14.0 -15.0
v 6.2 14.0 -14.0
v 6.4 14.0 -12.0
v 6.5 14.0 -11.0
v 6.4 14.0 -10.0
v 6.2 14.0 -9.0
v 6.2 15.0 -12.0
v 6.3 15.0 -11.0
v 6.3 15.0 -10.0
v 6.2 15.0 -9.0
f 3 2 1
f 5 4 1
f 1 4 3
f 5 6 4
f 1 2 7
f 7 2 8
f 10 5 9
f 5 7 9
f 5 1 7
f 5 10 6
f 8 11 7
f 7 11 9
f 14 13 12
f 16 15 12
f 12 15 14
f 16 17 15
f 20 19 18
f 20 18 13
f 18 12 13
f 18 21 12
f 12 22 16
f 12 21 22
f 17 16 23
f 23 16 22
f 18 19 24
f 24 19 25
f 18 26 21
f 18 24 26
f 28 22 27
f 22 26 27
f 22 21 26
f 22 28 23
f 31 30 29
f 29 32 31
f 35 34 33
f 37 36 33
f 33 36 35
f 39 38 37
f 37 38 36
f 38 39 25
f 39 24 25
f 39 40 24
f 24 41 26
f 24 40 41
f 27 26 42
f 26 43 42
f 26 41 43
f 43 44 42
f 29 30 45
f 45 30 46
f 32 29 47
f 29 48 47
f 29 45 48
f 48 49 47
f 52 51 50
f 52 50 34
f 50 33 34
f 50 53 33
f 33 54 37
f 33 53 54
f 37 55 39
f 37 54 55
f 39 56 40
f 39 55 56
f 58 41 57
f 41 56 57
f 41 40 56
f 60 59 58
f 59 41 58
f 59 43 41
f 44 43 61
f 61 43 59
f 45 46 62
f 62 46 63
f 45 64 48
f 45 62 64
f 49 48 65
f 48 66 65
f 48 64 66
f 68 67 66
f 66 67 65
f 68 69 67
f 51 70 50
f 72 71 70
f 71 50 70
f 71 53 50
f 53 73 54
f 53 71 73
f 54 74 55
f 54 73 74
f 55 75 56
f 55 74 75
f 57 56 76
f 76 56 75
f 59 60 77
f 77 60 78
f 61 59 79
f 59 80 79
f 59 77 80
f 79 80 63
f 80 62 63
f 80 81 62
f 62 82 64
f 62 81 82
f 64 83 66
f 64 82 83
f 66 84 68
f 66 83 84
f 69 68 85
f 68 86 85
f 68 84 86
f 86 87 85
f 72 88 71
f 90 89 88
f 89 71 88
f 89 73 71
f 73 91 74
f 73 89 91
f 74 92 75
f 74 91 92
f 76 75 93
f 75 94 93
f 75 92 94
f 96 95 94
f 95 77 94
f 78 93 94
f 78 94 77
f 77 95 80
f 80 95 97
f 99 98 97
f 98 80 97
f 98 81 80
f 81 100 82
f 81 98 100
f 82 101 83
f 82 100 101
f 83 102 84
f 83 101 102
f 84 103 86
f 84 102 103
f 87 86 104
f 86 105 104
f 86 103 105
f 105 106 104
f 90 107 89
f 89 107 91
f 91 107 108
f 91 108 92
f 92 108 109
f 92 109 94
f 94 109 110
f 94 110 96
f 98 99 111
f 111 99 112
f 98 113 100
f 98 111 113
f 113 2 3
f 101 113 3
f 100 113 101
f 101 3 4
f 101 4 102
f 102 4 6
f 114 102 6
f 103 102 114
f 103 115 105
f 103 114 115
f 106 105 116
f 105 117 116
f 105 115 117
f 117 118 116
f 112 119 111
f 121 120 119
f 120 111 119
f 120 113 111
f 120 8 2
f 120 2 113
f 9 122 10
f 114 6 10
f 122 114 10
f 123 114 122
f 114 124 115
f 114 123 124
f 115 125 117
f 115 124 125
f 118 117 126
f 117 127 126
f 117 125 127
f 127 128 126
f 121 129 120
f 120 129 8
f 129 11 8
f 129 130 11
f 9 11 122
f 11 131 122
f 11 130 131
f 133 132 131
f 132 122 131
f 132 123 122
f 135 124 134
f 124 132 134
f 124 123 132
f 137 136 135
f 136 124 135
f 136 125 124
f 125 138 127
f 125 136 138
f 128 127 139
f 139 127 138
f 133 140 132
f 132 140 134
f 136 137 141
f 141 137 142
f 136 143 138
f 136 141 143
f 139 138 144
f 144 138 143
f 142 145 141
f 141 145 143
f 143 145 146
f 143 146 144
f 147 13 14
f 15 148 14
f 14 148 147
f 17 148 15
f 149 19 20
f 150 149 20
f 150 20 13
f 151 150 13
f 147 151 13
f 153 152 151
f 147 153 151
f 148 153 147
f 23 153 17
f 17 153 148
f 156 155 154
f 157 156 149
f 156 25 149
f 25 19 149
f 156 154 25
f 157 149 150
f 152 153 28
f 27 152 28
f 158 152 27
f 28 153 23
f 159 30 31
f 32 159 31
f 160 34 35
f 160 35 161
f 35 162 161
f 35 36 162
f 38 154 155
f 162 38 155
f 36 38 162
f 154 38 25
f 163 158 27
f 163 27 42
f 165 164 44
f 164 42 44
f 164 163 42
f 166 164 159
f 164 46 159
f 46 30 159
f 164 165 46
f 168 166 167
f 167 166 47
f 166 159 47
f 159 32 47
f 49 167 47
f 170 169 52
f 52 169 51
f 52 34 160
f 171 52 160
f 170 52 171
f 171 160 161
f 57 172 58
f 172 60 58
f 61 173 165
f 61 165 44
f 173 63 46
f 173 46 165
f 174 168 167
f 174 167 49
f 65 174 49
f 175 174 65
f 177 175 176
f 175 67 176
f 175 65 67
f 69 176 67
f 169 178 51
f 51 178 70
f 72 70 178
f 72 178 179
f 76 180 172
f 76 172 57
f 180 78 60
f 180 60 172
f 79 173 61
f 173 79 63
f 181 177 176
f 183 181 182
f 182 181 85
f 181 176 85
f 176 69 85
f 87 182 85
f 179 184 72
f 72 184 88
f 90 88 184
f 90 184 185
f 93 180 76
f 78 180 93
f 95 96 186
f 187 97 95
f 187 95 186
f 187 99 97
f 188 183 182
f 188 182 87
f 104 188 87
f 189 188 104
f 191 190 106
f 190 104 106
f 190 189 104
f 191 192 190
f 185 193 90
f 90 193 107
f 193 195 194
f 108 193 194
f 107 193 108
f 196 109 108
f 196 108 194
f 197 110 109
f 197 109 196
f 186 96 110
f 197 186 110
f 198 186 197
f 186 199 187
f 186 198 199
f 199 112 99
f 199 99 187
f 116 191 106
f 116 118 191
f 118 192 191
f 118 200 192
f 195 201 194
f 194 201 196
f 196 201 202
f 204 203 202
f 203 196 202
f 203 197 196
f 197 205 198
f 197 203 205
f 198 206 199
f 198 205 206
f 207 119 112
f 199 207 112
f 206 207 199
f 207 121 119
f 118 126 208
f 209 118 208
f 200 118 209
f 128 208 126
f 204 210 203
f 203 210 205
f 205 210 211
f 205 211 206
f 206 211 212
f 206 212 207
f 207 212 213
f 207 213 121
f 213 129 121
f 213 214 129
f 129 215 130
f 214 215 129
f 215 217 216
f 131 215 216
f 130 215 131
f 216 133 131
f 134 218 135
f 218 137 135
f 219 209 208
f 208 128 219
f 128 220 219
f 128 139 220
f 217 221 216
f 216 221 133
f 221 140 133
f 221 222 140
f 134 140 218
f 140 223 218
f 140 222 223
f 137 218 223
f 224 137 223
f 142 137 224
f 144 220 139
f 144 225 220
f 224 226 142
f 142 226 145
f 145 227 146
f 226 227 145
f 144 146 225
f 225 146 227
f 228 150 151
f 152 228 151
f 229 155 156
f 229 156 230
f 156 231 230
f 156 157 231
f 157 150 228
f 232 157 228
f 231 157 232
f 152 158 228
f 158 233 228
f 233 232 228
f 233 158 234
f 236 235 234
f 234 235 233
f 236 237 235
f 239 238 162
f 162 238 161
f 162 155 229
f 240 162 229
f 239 162 240
f 240 229 230
f 163 234 158
f 234 163 164
f 234 164 236
f 241 237 236
f 164 241 236
f 166 241 164
f 243 242 168
f 242 166 168
f 242 241 166
f 243 244 242
f 245 169 170
f 171 246 170
f 170 246 245
f 247 246 171
f 161 247 171
f 238 247 161
f 174 243 168
f 248 244 243
f 174 248 243
f 175 248 174
f 175 177 248
f 248 177 249
f 245 178 169
f 178 245 179
f 245 250 179
f 245 246 250
f 246 247 251
f 246 251 250
f 252 249 177
f 252 177 181
f 254 253 183
f 253 181 183
f 253 252 181
f 256 255 254
f 254 255 253
f 256 257 255
f 184 179 250
f 260 259 258
f 185 258 259
f 185 251 258
f 185 184 250
f 251 185 250
f 188 254 183
f 254 188 189
f 254 189 256
f 261 257 256
f 189 261 256
f 190 261 189
f 190 192 261
f 261 192 262
f 259 260 263
f 263 260 264
f 265 193 185
f 259 265 185
f 263 265 259
f 265 195 193
f 200 262 192
f 200 266 262
f 264 267 263
f 263 267 265
f 265 267 268
f 265 268 195
f 268 201 195
f 268 269 201
f 269 271 270
f 202 269 270
f 201 269 202
f 270 204 202
f 209 273 272
f 266 209 272
f 200 209 266
f 273 274 272
f 271 275 270
f 270 275 204
f 275 210 204
f 275 276 210
f 210 277 211
f 276 277 210
f 211 278 212
f 277 278 211
f 212 279 213
f 278 279 212
f 213 280 214
f 279 280 213
f 214 281 215
f 280 281 214
f 283 282 217
f 215 283 217
f 281 283 215
f 284 282 283
f 219 273 209
f 219 220 273
f 220 274 273
f 220 285 274
f 282 221 217
f 284 286 282
f 286 221 282
f 286 222 221
f 222 287 223
f 286 287 222
f 224 223 287
f 224 287 288
f 225 285 220
f 225 289 285
f 288 290 224
f 224 290 226
f 226 291 227
f 290 291 226
f 225 227 289
f 289 227 291
f 292 230 231
f 292 231 293
f 231 294 293
f 231 232 294
f 295 232 233
f 295 294 232
f 296 233 235
f 296 295 233
f 298 297 237
f 297 235 237
f 297 296 235
f 298 299 297
f 300 238 239
f 240 301 239
f 239 301 300
f 230 292 240
f 292 301 240
f 292 302 301
f 292 293 303
f 292 303 302
f 241 298 237
f 304 299 298
f 241 304 298
f 242 304 241
f 306 305 244
f 305 242 244
f 305 304 242
f 306 307 305
f 308 247 300
f 300 247 238
f 301 310 309
f 308 301 309
f 300 301 308
f 310 301 302
f 310 302 311
f 311 302 303
f 248 306 244
f 248 249 306
f 249 307 306
f 249 312 307
f 313 251 308
f 308 251 247
f 308 309 314
f 315 308 314
f 313 308 315
f 316 315 314
f 317 312 249
f 317 249 252
f 318 252 253
f 318 317 252
f 319 253 255
f 319 318 253
f 255 257 319
f 319 257 320
f 321 260 258
f 251 313 258
f 313 321 258
f 313 322 321
f 315 324 323
f 322 315 323
f 313 315 322
f 324 315 316
f 325 320 257
f 325 257 261
f 261 262 325
f 325 262 326
f 327 264 321
f 321 264 260
f 322 329 328
f 327 322 328
f 321 322 327
f 329 322 323
f 266 331 330
f 326 266 330
f 262 266 326
f 331 332 330
f 327 267 264
f 328 333 327
f 333 267 327
f 333 268 267
f 268 334 269
f 333 334 268
f 271 269 334
f 271 334 335
f 272 331 266
f 272 274 331
f 274 332 331
f 274 336 332
f 335 337 271
f 271 337 275
f 275 338 276
f 337 338 275
f 276 339 277
f 338 339 276
f 277 340 278
f 339 340 277
f 278 341 279
f 340 341 278
f 279 342 280
f 341 342 279
f 280 343 281
f 342 343 280
f 281 344 283
f 343 344 281
f 284 283 344
f 284 344 345
f 285 336 274
f 285 346 336
f 345 347 284
f 284 347 286
f 286 348 287
f 347 348 286
f 288 287 348
f 288 348 349
f 289 351 350
f 346 289 350
f 285 289 346
f 351 352 350
f 349 353 288
f 288 353 290
f 290 354 291
f 353 354 290
f 291 354 289
f 354 355 289
f 355 351 289
f 355 354 356
f 352 351 357
f 357 351 355
f 356 358 355
f 355 358 357
f 360 359 294
f 294 359 293
f 361 294 295
f 361 360 294
f 362 295 296
f 362 361 295
f 363 296 297
f 363 362 296
f 297 299 363
f 363 299 364
f 359 303 293
f 365 303 359
f 366 364 299
f 366 299 304
f 367 304 305
f 367 366 304
f 305 307 367
f 367 307 368
f 369 309 310
f 369 310 370
f 310 371 370
f 310 311 371
f 311 303 365
f 311 365 371
f 312 368 307
f 312 372 368
f 369 314 309
f 316 314 369
f 370 316 369
f 373 316 370
f 374 372 312
f 374 312 317
f 375 317 318
f 375 374 317
f 376 318 319
f 376 375 318
f 319 320 376
f 376 320 377
f 378 323 324
f 379 378 324
f 316 379 324
f 373 379 316
f 380 377 320
f 380 320 325
f 325 326 380
f 380 326 381
f 382 328 329
f 383 382 329
f 383 329 323
f 384 383 323
f 378 384 323
f 384 378 379
f 385 381 326
f 385 326 330
f 330 332 385
f 385 332 386
f 382 333 328
f 383 387 382
f 387 333 382
f 387 334 333
f 335 334 387
f 335 387 388
f 336 390 389
f 386 336 389
f 332 336 386
f 390 391 389
f 388 392 335
f 335 392 337
f 337 393 338
f 392 393 337
f 338 394 339
f 393 394 338
f 339 395 340
f 394 395 339
f 340 396 341
f 395 396 340
f 341 397 342
f 396 397 341
f 342 398 343
f 397 398 342
f 343 399 344
f 398 399 343
f 345 344 399
f 345 399 400
f 346 401 390
f 346 390 336
f 391 390 402
f 402 390 401
f 400 403 345
f 345 403 347
f 347 404 348
f 403 404 347
f 349 348 404
f 349 404 405
f 350 401 346
f 350 352 401
f 352 402 401
f 352 406 402
f 405 407 349
f 349 407 353
f 407 409 408
f 354 407 408
f 353 407 354
f 408 356 354
f 357 406 352
f 357 410 406
f 409 411 408
f 408 411 356
f 411 358 356
f 411 412 358
f 357 358 410
f 410 358 412
f 415 414 413
f 359 360 413
f 360 415 413
f 360 416 415
f 417 360 361
f 417 416 360
f 418 361 362
f 418 417 361
f 419 362 363
f 419 418 362
f 363 364 419
f 419 364 420
f 413 414 421
f 421 414 422
f 421 365 359
f 421 359 413
f 423 420 364
f 423 364 366
f 425 423 424
f 423 367 424
f 423 366 367
f 368 424 367
f 421 422 371
f 422 370 371
f 422 426 370
f 421 371 365
f 427 425 424
f 424 368 427
f 368 428 427
f 368 372 428
f 426 373 370
f 429 373 426
f 372 374 430
f 431 372 430
f 428 372 431
f 375 432 374
f 374 432 430
f 376 433 375
f 375 433 432
f 377 433 376
f 435 379 434
f 379 429 434
f 379 373 429
f 436 435 434
f 437 431 430
f 437 430 432
f 437 432 438
f 440 439 438
f 432 440 438
f 433 440 432
f 380 441 377
f 441 433 377
f 441 440 433
f 381 441 380
f 442 383 384
f 379 435 384
f 435 442 384
f 435 443 442
f 435 436 444
f 435 444 443
f 445 439 440
f 447 446 445
f 440 447 445
f 441 447 440
f 385 448 381
f 448 441 381
f 448 447 441
f 386 448 385
f 442 387 383
f 387 442 388
f 442 449 388
f 442 443 449
f 443 444 450
f 451 443 450
f 449 443 451
f 453 452 451
f 453 451 450
f 454 452 453
f 446 447 455
f 446 455 456
f 457 447 448
f 455 447 457
f 389 458 386
f 458 448 386
f 458 457 448
f 391 458 389
f 449 392 388
f 392 449 393
f 393 449 451
f 393 451 394
f 394 451 452
f 454 459 452
f 459 394 452
f 459 395 394
f 395 460 396
f 459 460 395
f 396 461 397
f 460 461 396
f 397 462 398
f 461 462 397
f 398 463 399
f 462 463 398
f 400 399 463
f 400 463 464
f 456 455 465
f 456 465 466
f 467 455 457
f 465 455 467
f 468 457 458
f 467 457 468
f 402 468 391
f 391 468 458
f 464 469 400
f 400 469 403
f 469 471 470
f 404 469 470
f 403 469 404
f 465 472 466
f 405 404 470
f 474 473 472
f 465 474 472
f 467 474 465
f 475 467 468
f 474 467 475
f 406 475 402
f 402 475 468
f 471 476 470
f 470 476 405
f 476 407 405
f 476 477 407
f 474 478 409
f 477 474 409
f 407 477 409
f 473 474 477
f 479 474 475
f 478 474 479
f 410 479 406
f 406 479 475
f 478 411 409
f 411 478 412
f 412 478 479
f 412 479 410
f 481 480 415
f 415 480 414
f 483 481 482
f 481 416 482
f 481 415 416
f 417 484 416
f 416 484 482
f 418 485 417
f 417 485 484
f 419 486 418
f 418 486 485
f 420 486 419
f 480 422 414
f 487 422 480
f 488 483 482
f 488 482 484
f 488 484 489
f 489 484 485
f 489 485 490
f 490 485 486
f 490 486 491
f 493 491 492
f 492 491 423
f 491 486 423
f 486 420 423
f 425 492 423
f 487 426 422
f 494 426 487
f 493 492 495
f 493 495 496
f 427 497 425
f 497 492 425
f 497 495 492
f 428 497 427
f 494 429 426
f 498 429 494
f 499 496 495
f 501 500 499
f 495 501 499
f 497 501 495
f 431 501 428
f 428 501 497
f 498 502 429
f 429 502 434
f 436 434 502
f 436 502 503
f 500 501 504
f 500 504 505
f 437 506 431
f 506 501 431
f 506 504 501
f 438 507 437
f 437 507 506
f 439 507 438
f 503 444 436
f 508 444 503
f 511 510 509
f 512 509 510
f 513 505 504
f 513 504 506
f 513 506 514
f 516 515 514
f 506 516 514
f 507 516 506
f 445 517 439
f 517 507 439
f 517 516 507
f 446 517 445
f 508 518 444
f 444 518 450
f 450 519 453
f 518 519 450
f 509 520 454
f 519 509 454
f 453 519 454
f 511 509 519
f 509 512 521
f 509 521 520
f 515 516 522
f 515 522 523
f 524 516 517
f 522 516 524
f 456 524 446
f 446 524 517
f 520 459 454
f 521 525 520
f 525 459 520
f 525 460 459
f 460 526 461
f 525 526 460
f 461 527 462
f 526 527 461
f 462 528 463
f 527 528 462
f 522 529 464
f 528 522 464
f 463 528 464
f 523 522 528
f 530 522 524
f 529 522 530
f 466 530 456
f 456 530 524
f 529 469 464
f 469 529 471
f 529 531 471
f 529 530 531
f 472 532 466
f 532 530 466
f 532 531 530
f 473 532 472
f 531 476 471
f 476 531 477
f 477 531 532
f 477 532 473
f 533 480 481
f 483 533 481
f 534 487 533
f 533 487 480
f 488 535 483
f 535 533 483
f 535 534 533
f 489 536 488
f 488 536 535
f 490 537 489
f 489 537 536
f 491 538 490
f 490 538 537
f 493 538 491
f 539 494 534
f 534 494 487
f 540 534 535
f 539 534 540
f 541 535 536
f 540 535 541
f 542 536 537
f 541 536 542
f 543 537 538
f 542 537 543
f 496 543 493
f 493 543 538
f 544 498 539
f 539 498 494
f 545 539 540
f 544 539 545
f 546 540 541
f 545 540 546
f 547 541 542
f 546 541 547
f 548 542 543
f 547 542 548
f 499 549 496
f 549 543 496
f 549 548 543
f 500 549 499
f 544 502 498
f 502 544 503
f 544 550 503
f 544 545 550
f 551 545 546
f 550 545 551
f 552 546 547
f 551 546 552
f 553 547 548
f 552 547 553
f 554 548 549
f 553 548 554
f 505 554 500
f 500 554 549
f 555 508 550
f 550 508 503
f 556 550 551
f 555 550 556
f 511 556 510
f 556 552 510
f 556 551 552
f 510 552 512
f 552 557 512
f 552 553 557
f 558 553 554
f 557 553 558
f 513 559 505
f 559 554 505
f 559 558 554
f 514 560 513
f 513 560 559
f 515 560 514
f 555 518 508
f 518 555 519
f 519 555 556
f 519 556 511
f 561 521 557
f 557 521 512
f 562 557 558
f 561 557 562
f 563 558 559
f 562 558 563
f 564 559 560
f 563 559 564
f 523 564 515
f 515 564 560
f 561 525 521
f 525 561 526
f 526 561 562
f 526 562 527
f 527 562 563
f 527 563 528
f 528 563 564
f 528 564 523
