v 2.0 6.0 -5.0
v 2.0 6.0 -5.0
v 2.0 6.0 -5.0
v 2.0 6.0 -5.0
v 2.0 7.0 -5.0
v 2.0 7.0 -5.0
v 2.0 7.0 -5.0
v 2.0 7.0 -5.0
v 2.8 5.0 -6.0
v 3.0 5.0 -6.3
v 3.0 4.5 -6.0
v 3.0 5.0 -5.1
v 2.9 6.0 -7.0
v 3.0 6.0 -7.1
v 3.0 5.9 -7.0
v 2.6 6.0 -6.0
v 3.0 5.0 -5.0
v 3.0 6.0 -4.7
v 2.8 7.0 -7.0
v 3.0 7.0 -7.2
v 2.6 7.0 -6.0
v 3.0 7.0 -4.7
v 3.0 7.7 -7.0
v 2.9 8.0 -6.0
v 3.0 8.0 -6.6
v 3.0 7.9 -5.0
v 3.0 8.0 -5.3
v 3.0 8.1 -6.0
v 3.9 5.0 -8.0
v 4.0 5.0 -8.2
v 4.0 4.8 -8.0
v 4.0 4.8 -7.0
v 3.9 5.0 -7.0
v 3.2 5.0 -6.0
v 4.0 5.0 -6.9
v 3.9 6.0 -8.0
v 4.0 6.0 -8.2
v 3.1 6.0 -7.0
v 4.0 5.1 -7.0
v 4.0 6.0 -7.8
v 3.3 6.0 -6.0
v 3.3 6.0 -5.0
v 3.9 7.0 -11.0
v 4.0 7.0 -11.1
v 4.0 6.9 -11.0
v 4.0 6.7 -10.0
v 3.8 7.0 -10.0
v 4.0 6.5 -9.0
v 3.7 7.0 -9.0
v 3.9 7.0 -8.0
v 3.2 7.0 -7.0
v 4.0 7.0 -7.9
v 3.4 7.0 -6.0
v 3.3 7.0 -5.0
v 4.0 7.1 -11.0
v 4.0 7.3 -10.0
v 4.0 8.0 -9.0
v 4.0 7.0 -8.0
v 3.1 8.0 -6.0
v 4.9 4.0 -9.0
v 5.0 4.0 -9.1
v 5.0 3.9 -9.0
v 5.0 4.0 -8.9
v 4.7 5.0 -10.0
v 5.0 5.0 -10.5
v 5.0 4.6 -10.0
v 4.5 5.0 -9.0
v 5.0 4.9 -8.0
v 4.1 5.0 -7.0
v 5.0 5.0 -7.9
v 4.8 6.0 -13.0
v 5.0 6.0 -13.2
v 5.0 5.7 -13.0
v 5.0 5.5 -12.0
v 4.6 6.0 -12.0
v 5.0 5.4 -11.0
v 4.5 6.0 -11.0
v 4.4 6.0 -10.0
v 4.4 6.0 -9.0
v 4.2 6.0 -8.0
v 5.0 5.2 -8.0
v 5.0 6.0 -8.4
v 4.7 7.0 -13.0
v 5.0 7.0 -13.3
v 4.4 7.0 -12.0
v 5.0 7.0 -8.5
v 4.1 7.0 -8.0
v 5.0 8.0 -14.0
v 5.0 8.0 -14.1
v 5.0 8.0 -14.0
v 5.0 7.6 -13.0
v 5.0 8.0 -13.9
v 4.7 8.0 -12.0
v 5.0 8.0 -12.6
v 4.7 8.0 -11.0
v 5.0 8.0 -10.6
v 5.0 7.6 -10.0
v 4.1 8.0 -9.0
v 5.0 8.0 -9.0
v 5.0 8.0 -9.0
v 5.0 8.0 -14.0
v 5.0 8.3 -12.0
v 5.0 8.2 -11.0
v 5.0 8.0 -9.0
v 5.6 4.0 -10.0
v 6.0 4.0 -10.4
v 6.0 3.7 -10.0
v 6.0 3.8 -9.0
v 6.0 4.0 -8.8
v 5.7 5.0 -13.0
v 6.0 5.0 -13.2
v 6.0 4.8 -13.0
v 6.0 4.5 -12.0
v 5.5 5.0 -12.0
v 6.0 4.4 -11.0
v 5.4 5.0 -11.0
v 5.1 5.0 -8.0
v 6.0 5.0 -8.5
v 6.0 6.0 -13.5
v 6.0 6.0 -8.5
v 6.0 7.0 -13.6
v 6.0 7.0 -10.0
v 6.0 7.0 -10.0
v 6.0 7.0 -10.0
v 6.0 7.0 -9.9
v 6.0 7.0 -8.8
v 6.0 8.0 -14.5
v 6.0 7.6 -14.0
v 5.2 8.0 -13.0
v 6.0 8.0 -10.7
v 5.0 8.0 -9.0
v 6.0 7.3 -9.0
v 5.9 9.0 -15.0
v 6.0 9.0 -15.1
v 6.0 8.7 -15.0
v 5.6 9.0 -14.0
v 5.8 9.0 -13.0
v 6.0 8.6 -12.0
v 6.0 9.0 -12.7
v 6.0 8.2 -11.0
v 6.0 9.1 -15.0
v 6.0 9.3 -14.0
v 6.0 9.2 -13.0
v 6.7 4.0 -12.0
v 7.0 4.0 -12.4
v 7.0 3.8 -12.0
v 7.0 3.7 -11.0
v 6.5 4.0 -11.0
v 7.0 3.8 -10.0
v 6.3 4.0 -9.0
v 7.0 4.0 -9.6
v 7.0 5.0 -13.4
v 7.0 4.5 -13.0
v 7.0 4.6 -9.0
v 7.0 5.0 -8.7
v 7.0 6.0 -13.5
v 7.0 6.0 -8.6
v 7.0 7.0 -13.4
v 7.0 6.8 -10.0
v 7.0 7.0 -10.3
v 7.0 7.0 -9.1
v 7.0 7.0 -9.0
v 6.5 8.0 -14.0
v 7.0 8.0 -13.7
v 6.4 8.0 -11.0
v 7.0 7.6 -11.0
v 7.0 8.0 -11.5
v 7.0 7.0 -9.0
v 6.8 9.0 -16.0
v 7.0 9.0 -16.2
v 7.0 8.2 -16.0
v 7.0 8.6 -15.0
v 7.0 8.6 -14.0
v 7.0 8.4 -12.0
v 7.0 9.0 -12.7
v 7.0 9.2 -16.0
v 7.0 9.3 -15.0
v 7.0 9.2 -14.0
v 7.0 9.2 -13.0
v 7.6 4.0 -13.0
v 8.0 4.0 -13.3
v 8.0 3.7 -13.0
v 8.0 3.6 -12.0
v 7.5 4.0 -11.0
v 8.0 4.0 -11.4
v 7.3 4.0 -10.0
v 8.0 5.0 -13.6
v 8.0 4.3 -11.0
v 8.0 4.5 -10.0
v 7.5 5.0 -9.0
v 8.0 5.0 -9.4
v 8.0 6.0 -13.4
v 8.0 5.8 -9.0
v 8.0 6.0 -8.9
v 8.0 6.8 -13.0
v 7.8 7.0 -13.0
v 8.0 7.0 -12.8
v 8.0 6.7 -10.0
v 8.0 7.0 -10.4
v 7.0 7.0 -9.0
v 8.0 6.1 -9.0
v 7.9 8.0 -13.0
v 8.0 7.6 -12.0
v 7.5 8.0 -12.0
v 8.0 7.4 -11.0
v 8.0 9.0 -16.1
v 8.0 8.9 -16.0
v 8.0 9.0 -15.0
v 8.0 9.0 -15.0
v 7.3 9.0 -14.0
v 7.2 9.0 -13.0
v 8.0 9.1 -16.0
v 8.7 4.0 -14.0
v 9.0 4.0 -14.2
v 9.0 3.8 -14.0
v 9.0 3.5 -13.0
v 9.0 3.6 -12.0
v 9.0 4.0 -11.5
v 8.6 5.0 -14.0
v 9.0 5.0 -14.3
v 9.0 4.4 -11.0
v 9.0 4.8 -10.0
v 9.0 5.0 -9.7
v 9.0 5.4 -14.0
v 9.0 6.0 -13.6
v 8.2 6.0 -9.0
v 9.0 6.0 -9.5
v 9.0 6.7 -13.0
v 9.0 7.0 -12.6
v 8.5 7.0 -10.0
v 9.0 7.0 -9.7
v 9.0 7.4 -12.0
v 9.0 7.5 -11.0
v 9.0 7.3 -10.0
v 8.3 9.0 -16.0
v 10.0 4.0 -14.3
v 10.0 3.7 -14.0
v 10.0 3.5 -13.0
v 10.0 3.7 -12.0
v 10.0 4.0 -11.7
v 10.0 5.0 -14.5
v 10.0 4.6 -11.0
v 9.4 5.0 -10.0
v 10.0 5.0 -10.5
v 9.6 6.0 -14.0
v 10.0 6.0 -14.3
v 10.0 5.6 -10.0
v 10.0 6.0 -9.7
v 10.0 6.3 -14.0
v 9.5 7.0 -13.0
v 10.0 7.0 -13.3
v 10.0 7.0 -9.6
v 10.0 7.3 -13.0
v 10.0 7.5 -12.0
v 10.0 7.6 -11.0
v 10.0 7.8 -10.0
v 11.0 4.0 -14.3
v 11.0 3.7 -14.0
v 11.0 3.6 -13.0
v 10.5 4.0 -12.0
v 11.0 4.0 -12.4
v 11.0 5.0 -14.5
v 11.0 4.4 -12.0
v 10.5 5.0 -11.0
v 11.0 5.0 -11.4
v 11.0 6.0 -14.4
v 11.0 5.5 -11.0
v 10.4 6.0 -10.0
v 11.0 6.0 -10.5
v 11.0 6.6 -14.0
v 11.0 7.0 -13.6
v 11.0 6.9 -10.0
v 11.0 7.0 -10.0
v 11.0 7.4 -13.0
v 11.0 7.4 -12.0
v 11.0 7.3 -11.0
v 11.0 7.1 -10.0
v 12.0 4.0 -14.3
v 12.0 3.7 -14.0
v 12.0 3.6 -13.0
v 12.0 4.0 -12.6
v 12.0 5.0 -14.5
v 12.0 4.7 -12.0
v 12.0 5.0 -11.7
v 12.0 6.0 -14.5
v 11.4 6.0 -11.0
v 12.0 6.0 -11.6
v 11.9 7.0 -17.0
v 12.0 7.0 -17.0
v 12.0 7.0 -17.0
v 12.0 7.0 -16.9
v 11.7 7.0 -14.0
v 12.0 7.0 -14.2
v 11.6 7.0 -12.0
v 12.0 6.5 -12.0
v 12.0 7.0 -12.5
v 11.3 7.0 -11.0
v 11.0 7.0 -10.0
v 11.4 8.0 -17.0
v 12.0 8.0 -17.3
v 12.0 7.8 -16.0
v 11.9 8.0 -16.0
v 12.0 8.0 -15.9
v 12.0 7.2 -14.0
v 12.0 7.3 -13.0
v 12.0 8.3 -17.0
v 12.0 8.1 -16.0
v 13.0 4.0 -14.2
v 13.0 3.8 -14.0
v 13.0 3.7 -13.0
v 13.0 4.0 -12.7
v 13.0 5.0 -14.5
v 12.4 5.0 -12.0
v 13.0 5.0 -12.4
v 13.0 6.0 -14.5
v 12.4 6.0 -12.0
v 13.0 6.0 -12.4
v 13.0 7.0 -17.3
v 13.0 6.7 -17.0
v 13.0 6.6 -16.0
v 12.5 7.0 -16.0
v 13.0 6.7 -15.0
v 12.7 7.0 -15.0
v 12.6 6.7 -14.3
v 13.0 6.8 -14.0
v 13.0 7.0 -14.3
v 12.5 7.0 -14.0
v 13.0 7.0 -13.6
v 13.0 7.0 -12.8
v 13.0 8.0 -17.3
v 12.7 8.0 -15.0
v 13.0 8.0 -14.8
v 13.0 7.2 -13.0
v 13.0 8.3 -17.0
v 13.0 8.5 -16.0
v 13.0 8.2 -15.0
v 13.5 4.0 -14.0
v 14.0 4.0 -13.5
v 14.0 3.8 -13.0
v 14.0 4.0 -12.8
v 14.0 5.0 -14.4
v 14.0 4.3 -14.0
v 14.0 5.0 -12.5
v 14.0 6.0 -14.6
v 14.0 6.0 -12.5
v 14.0 7.0 -17.4
v 14.0 6.5 -17.0
v 14.0 6.4 -16.0
v 14.0 6.4 -15.0
v 14.0 6.8 -14.0
v 14.0 7.0 -14.2
v 14.0 7.0 -13.3
v 14.0 7.0 -12.9
v 14.0 8.0 -17.3
v 14.0 8.0 -14.6
v 14.0 7.1 -13.0
v 14.0 8.3 -17.0
v 14.0 8.5 -16.0
v 14.0 8.4 -15.0
v 14.5 4.0 -14.0
v 15.0 4.0 -14.2
v 15.0 3.8 -14.0
v 15.0 3.7 -13.0
v 15.0 4.0 -12.7
v 15.0 5.0 -14.5
v 15.0 5.0 -12.4
v 14.8 6.0 -18.0
v 15.0 6.0 -18.6
v 15.0 5.8 -18.0
v 15.0 5.7 -17.0
v 14.6 6.0 -17.0
v 15.0 5.7 -16.0
v 14.6 6.0 -16.0
v 15.0 6.0 -15.1
v 15.0 6.0 -14.9
v 15.0 6.0 -12.6
v 15.0 6.2 -18.0
v 15.0 7.0 -17.5
v 15.0 6.1 -15.0
v 14.2 7.0 -14.0
v 15.0 7.0 -13.4
v 15.0 6.7 -13.0
v 14.2 7.0 -13.0
v 15.0 8.0 -17.3
v 15.0 7.4 -14.0
v 15.0 8.0 -14.5
v 15.0 8.3 -17.0
v 15.0 8.6 -16.0
v 15.0 8.4 -15.0
v 16.0 4.0 -14.4
v 16.0 3.7 -14.0
v 16.0 3.6 -13.0
v 16.0 4.0 -12.5
v 16.0 5.0 -14.7
v 16.0 4.8 -12.0
v 15.8 5.0 -12.0
v 16.0 5.0 -11.9
v 16.0 6.0 -18.9
v 16.0 5.7 -18.0
v 16.0 5.4 -17.0
v 16.0 5.1 -16.0
v 16.0 5.3 -15.0
v 15.1 6.0 -15.0
v 16.0 5.2 -12.0
v 16.0 6.0 -12.4
v 16.0 6.3 -18.0
v 15.9 7.0 -17.0
v 16.0 6.9 -17.0
v 16.0 7.0 -16.9
v 15.5 7.0 -13.0
v 16.0 7.0 -12.8
v 16.0 8.0 -17.1
v 16.0 7.4 -17.0
v 16.0 7.7 -14.0
v 16.0 8.0 -14.3
v 16.0 7.3 -13.0
v 16.0 8.1 -17.0
v 15.8 9.0 -16.0
v 16.0 9.0 -16.1
v 16.0 9.0 -15.8
v 16.0 8.6 -15.0
v 16.0 9.1 -16.0
v 17.0 4.0 -14.4
v 17.0 3.7 -14.0
v 17.0 3.5 -13.0
v 17.0 3.8 -12.0
v 16.6 4.0 -12.0
v 17.0 4.0 -11.8
v 16.7 5.0 -17.0
v 17.0 5.0 -17.2
v 17.0 4.9 -17.0
v 17.0 5.0 -16.6
v 17.0 5.0 -14.7
v 17.0 5.0 -11.6
v 17.0 6.0 -18.1
v 17.0 5.8 -18.0
v 17.0 5.2 -16.0
v 17.0 5.3 -15.0
v 17.0 5.5 -12.0
v 17.0 6.0 -12.4
v 17.0 6.1 -18.0
v 17.0 6.5 -17.0
v 17.0 7.0 -16.6
v 17.0 7.0 -12.7
v 16.2 8.0 -17.0
v 17.0 8.0 -16.6
v 16.5 8.0 -14.0
v 17.0 8.0 -13.6
v 17.0 7.3 -13.0
v 17.0 9.0 -16.3
v 16.6 9.0 -15.0
v 17.0 9.0 -14.7
v 17.0 8.4 -14.0
v 17.0 9.3 -16.0
v 17.0 9.3 -15.0
v 18.0 4.0 -14.3
v 18.0 3.7 -14.0
v 18.0 3.4 -13.0
v 18.0 3.6 -12.0
v 18.0 4.0 -11.7
v 17.8 5.0 -18.0
v 18.0 5.0 -18.1
v 18.0 4.9 -18.0
v 18.0 4.5 -17.0
v 18.0 4.7 -16.0
v 17.4 5.0 -16.0
v 18.0 5.0 -15.4
v 18.0 5.0 -14.8
v 18.0 5.0 -11.6
v 17.2 6.0 -18.0
v 18.0 5.3 -18.0
v 18.0 5.9 -17.0
v 17.9 6.0 -17.0
v 18.0 6.0 -16.9
v 18.0 5.2 -15.0
v 18.0 5.5 -12.0
v 18.0 6.0 -12.5
v 18.0 7.0 -16.5
v 17.5 7.0 -13.0
v 18.0 6.6 -13.0
v 18.0 7.0 -13.3
v 18.0 8.0 -16.4
v 18.0 8.0 -13.7
v 18.0 9.0 -16.2
v 18.0 8.4 -14.0
v 18.0 9.0 -14.6
v 18.0 9.2 -16.0
v 18.0 9.3 -15.0
v 18.9 3.0 -13.0
v 19.0 3.0 -13.1
v 19.0 2.9 -13.0
v 19.0 3.0 -12.9
v 19.0 4.0 -17.0
v 19.0 4.0 -17.0
v 19.0 4.0 -17.0
v 19.0 4.0 -16.8
v 18.5 4.0 -14.0
v 19.0 4.0 -13.7
v 19.0 3.4 -12.0
v 19.0 4.0 -11.6
v 19.0 5.0 -18.2
v 19.0 4.8 -18.0
v 19.0 4.1 -16.0
v 19.0 5.0 -15.4
v 19.0 5.0 -14.7
v 19.0 4.4 -14.0
v 19.0 5.0 -11.7
v 18.6 6.0 -18.0
v 19.0 6.0 -18.2
v 18.1 6.0 -17.0
v 19.0 5.3 -15.0
v 19.0 5.4 -12.0
v 19.0 6.0 -12.5
v 19.0 6.2 -18.0
v 19.0 6.3 -17.0
v 19.0 7.0 -16.4
v 19.0 6.5 -13.0
v 19.0 7.0 -13.5
v 19.0 7.5 -16.0
v 18.6 8.0 -16.0
v 19.0 8.0 -15.6
v 18.5 8.0 -14.0
v 19.0 7.6 -14.0
v 19.0 8.0 -14.4
v 18.3 9.0 -16.0
v 19.0 9.0 -15.0
v 19.0 9.0 -15.0
v 19.0 9.0 -15.0
v 20.0 3.0 -13.3
v 20.0 2.7 -13.0
v 20.0 2.6 -12.0
v 19.5 3.0 -12.0
v 20.0 3.0 -11.1
v 19.0 4.0 -17.0
v 20.0 4.0 -13.6
v 20.0 4.0 -11.5
v 19.2 5.0 -18.0
v 19.4 5.0 -17.0
v 19.3 5.0 -16.0
v 20.0 5.0 -14.4
v 20.0 4.5 -14.0
v 19.5 5.0 -12.0
v 20.0 4.6 -12.0
v 20.0 5.0 -12.3
v 19.4 6.0 -18.0
v 19.3 6.0 -17.0
v 19.5 6.0 -16.0
v 19.7 6.0 -15.0
v 20.0 6.0 -14.7
v 20.0 6.0 -12.6
v 19.4 7.0 -16.0
v 20.0 7.0 -15.3
v 20.0 6.5 -15.0
v 20.0 6.5 -13.0
v 20.0 7.0 -13.6
v 20.0 8.0 -15.0
v 20.0 7.4 -14.0
v 20.0 8.0 -15.0
v 20.0 8.0 -15.0
v 19.0 9.0 -15.0
v 21.0 3.0 -13.4
v 21.0 2.6 -13.0
v 21.0 2.5 -12.0
v 21.0 3.0 -11.0
v 20.7 3.0 -11.0
v 21.0 3.0 -11.0
v 21.0 4.0 -13.6
v 21.0 3.0 -11.0
v 21.0 4.0 -11.5
v 21.0 5.0 -14.2
v 21.0 4.7 -14.0
v 21.0 4.5 -12.0
v 21.0 5.0 -12.4
v 21.0 6.0 -14.4
v 21.0 6.0 -12.7
v 20.3 7.0 -15.0
v 21.0 7.0 -14.0
v 21.0 6.4 -13.0
v 21.0 7.0 -14.0
v 20.0 8.0 -15.0
v 21.0 7.0 -14.0
v 22.0 2.0 -13.0
v 22.0 2.0 -13.0
v 22.0 2.0 -13.0
v 22.0 2.0 -13.0
v 22.0 3.0 -13.4
v 22.0 2.6 -12.0
v 21.0 3.0 -11.0
v 22.0 3.0 -11.6
v 22.0 4.0 -13.5
v 22.0 4.0 -11.7
v 21.3 5.0 -14.0
v 22.0 5.0 -13.4
v 22.0 4.4 -12.0
v 22.0 5.0 -12.6
v 21.4 6.0 -14.0
v 22.0 6.0 -13.0
v 22.0 6.0 -13.0
v 21.0 7.0 -14.0
v 22.0 6.0 -13.0
v 22.2 2.0 -13.0
v 23.0 3.0 -13.3
v 23.0 2.1 -13.0
v 23.0 2.7 -12.0
v 23.0 3.0 -11.8
v 23.0 4.0 -13.2
v 22.4 4.0 -12.0
v 23.0 3.3 -12.0
v 23.0 4.0 -12.6
v 23.0 4.9 -13.0
v 22.9 5.0 -13.0
v 22.0 6.0 -13.0
v 23.4 3.0 -13.0
v 23.5 3.0 -12.0
v 23.2 4.0 -13.0
f 3 2 1
f 1 4 3
f 1 2 5
f 5 2 6
f 4 1 7
f 7 1 5
f 6 8 5
f 5 8 7
f 11 10 9
f 9 12 11
f 15 14 13
f 15 13 10
f 13 9 10
f 13 16 9
f 3 17 2
f 17 9 2
f 9 16 2
f 9 17 12
f 3 4 17
f 17 4 18
f 13 14 19
f 19 14 20
f 13 21 16
f 13 19 21
f 21 6 2
f 21 2 16
f 7 18 4
f 7 22 18
f 20 23 19
f 25 24 23
f 24 19 23
f 24 21 19
f 21 24 6
f 24 26 6
f 26 8 6
f 24 27 26
f 7 8 22
f 22 8 26
f 25 28 24
f 24 28 27
f 31 30 29
f 33 32 29
f 29 32 31
f 10 11 34
f 32 33 35
f 12 34 11
f 29 30 36
f 36 30 37
f 14 15 38
f 33 40 39
f 40 33 36
f 29 36 33
f 33 39 35
f 15 10 38
f 34 38 10
f 38 34 41
f 17 42 12
f 42 34 12
f 42 41 34
f 18 42 17
f 45 44 43
f 47 46 43
f 43 46 45
f 49 48 47
f 47 48 46
f 48 49 37
f 49 36 37
f 49 50 36
f 51 14 38
f 14 51 20
f 40 36 52
f 50 52 36
f 53 38 41
f 51 38 53
f 54 41 42
f 53 41 54
f 22 54 18
f 18 54 42
f 44 55 43
f 43 55 47
f 47 55 56
f 47 56 49
f 49 56 57
f 49 57 50
f 50 57 58
f 51 23 20
f 58 52 50
f 23 51 25
f 51 59 25
f 51 53 59
f 27 59 26
f 59 54 26
f 59 53 54
f 26 54 22
f 59 28 25
f 28 59 27
f 62 61 60
f 60 63 62
f 66 65 64
f 66 64 61
f 64 60 61
f 64 67 60
f 31 68 30
f 68 60 30
f 60 67 30
f 60 68 63
f 70 68 69
f 68 32 69
f 68 31 32
f 35 69 32
f 73 72 71
f 75 74 71
f 71 74 73
f 77 76 75
f 75 76 74
f 76 77 65
f 77 64 65
f 77 78 64
f 64 79 67
f 64 78 79
f 30 80 37
f 80 30 81
f 67 81 30
f 81 67 82
f 79 82 67
f 80 81 70
f 80 70 69
f 40 80 69
f 39 40 69
f 39 69 35
f 71 72 83
f 83 72 84
f 71 85 75
f 71 83 85
f 85 44 45
f 77 85 45
f 75 85 77
f 77 45 46
f 77 46 78
f 78 46 48
f 78 48 79
f 82 79 86
f 48 86 79
f 86 48 87
f 37 87 48
f 87 37 80
f 52 87 40
f 40 87 80
f 90 89 88
f 91 83 84
f 88 92 90
f 94 93 91
f 93 83 91
f 93 85 83
f 95 55 44
f 85 95 44
f 93 95 85
f 55 95 96
f 97 55 96
f 56 55 97
f 97 99 98
f 57 97 98
f 56 97 57
f 100 86 87
f 57 100 87
f 58 57 87
f 100 57 98
f 58 87 52
f 89 101 88
f 88 101 92
f 94 102 93
f 93 102 95
f 95 102 103
f 95 103 96
f 99 104 98
f 98 104 100
f 107 106 105
f 61 62 105
f 62 107 105
f 62 108 107
f 62 63 108
f 108 63 109
f 112 111 110
f 114 113 110
f 110 113 112
f 116 115 114
f 114 115 113
f 115 116 106
f 106 116 105
f 116 65 105
f 65 66 105
f 105 66 61
f 63 68 117
f 118 63 117
f 109 63 118
f 70 117 68
f 110 111 73
f 111 72 73
f 111 119 72
f 110 73 74
f 110 74 114
f 114 74 76
f 114 76 116
f 116 76 65
f 118 117 81
f 82 118 81
f 120 118 82
f 81 117 70
f 119 84 72
f 121 84 119
f 124 123 122
f 125 122 123
f 86 120 82
f 86 126 120
f 128 127 90
f 90 127 89
f 121 91 84
f 91 121 129
f 128 129 121
f 129 128 92
f 90 92 128
f 129 94 91
f 124 122 97
f 96 124 97
f 130 124 96
f 132 131 99
f 132 99 97
f 125 132 97
f 122 125 97
f 132 126 131
f 126 100 131
f 126 86 100
f 135 134 133
f 133 136 101
f 127 133 101
f 89 127 101
f 133 127 135
f 129 92 101
f 136 129 101
f 137 129 136
f 129 137 94
f 137 138 94
f 138 102 94
f 137 139 138
f 102 140 103
f 138 140 102
f 96 103 130
f 130 103 140
f 131 104 99
f 104 131 100
f 134 141 133
f 133 141 136
f 136 141 142
f 136 142 137
f 137 142 143
f 137 143 139
f 146 145 144
f 148 147 144
f 144 147 146
f 106 107 148
f 107 147 148
f 107 149 147
f 151 149 150
f 149 108 150
f 149 107 108
f 109 150 108
f 153 152 112
f 112 152 111
f 113 144 145
f 153 113 145
f 112 113 153
f 144 113 115
f 144 115 148
f 148 115 106
f 154 151 150
f 150 109 154
f 109 155 154
f 109 118 155
f 152 119 111
f 156 119 152
f 120 155 118
f 120 157 155
f 156 121 119
f 158 121 156
f 160 159 123
f 160 123 124
f 125 123 159
f 125 159 161
f 126 157 120
f 126 162 157
f 163 127 128
f 164 163 128
f 121 164 128
f 158 164 121
f 167 166 165
f 166 160 165
f 160 130 165
f 160 124 130
f 161 168 125
f 125 168 132
f 126 132 162
f 162 132 168
f 171 170 169
f 134 135 169
f 135 171 169
f 135 172 171
f 135 127 163
f 173 135 163
f 172 135 173
f 173 163 164
f 175 174 138
f 175 138 139
f 165 140 167
f 140 174 167
f 140 138 174
f 140 165 130
f 170 176 169
f 169 176 134
f 176 141 134
f 176 177 141
f 141 178 142
f 177 178 141
f 142 179 143
f 178 179 142
f 139 143 175
f 175 143 179
f 182 181 180
f 145 146 180
f 146 182 180
f 146 183 182
f 185 183 184
f 183 147 184
f 183 146 147
f 149 186 147
f 147 186 184
f 151 186 149
f 180 181 153
f 181 152 153
f 181 187 152
f 180 153 145
f 188 185 184
f 188 184 186
f 188 186 189
f 191 189 190
f 190 189 154
f 189 186 154
f 186 151 154
f 155 190 154
f 187 156 152
f 192 156 187
f 193 191 190
f 190 155 193
f 155 194 193
f 155 157 194
f 196 158 195
f 158 192 195
f 158 156 192
f 197 196 195
f 199 198 159
f 199 159 160
f 201 200 161
f 159 201 161
f 198 201 159
f 201 194 200
f 194 162 200
f 194 157 162
f 202 164 196
f 196 164 158
f 196 197 203
f 204 196 203
f 202 196 204
f 166 167 204
f 203 166 204
f 205 166 203
f 160 166 199
f 199 166 205
f 200 168 161
f 168 200 162
f 207 206 171
f 171 206 170
f 209 207 208
f 207 172 208
f 207 171 172
f 173 210 172
f 172 210 208
f 164 202 173
f 202 210 173
f 202 211 210
f 175 211 174
f 211 204 174
f 211 202 204
f 174 204 167
f 206 212 170
f 170 212 176
f 208 177 209
f 177 212 209
f 177 176 212
f 177 208 178
f 178 208 210
f 178 210 179
f 179 210 211
f 179 211 175
f 215 214 213
f 181 182 213
f 182 215 213
f 182 216 215
f 217 182 183
f 217 216 182
f 183 185 217
f 217 185 218
f 213 214 219
f 219 214 220
f 219 187 181
f 219 181 213
f 221 218 185
f 221 185 188
f 222 188 189
f 222 221 188
f 189 191 222
f 222 191 223
f 220 224 219
f 187 219 224
f 225 187 224
f 192 187 225
f 191 193 226
f 227 191 226
f 223 191 227
f 194 226 193
f 225 228 192
f 192 228 195
f 197 195 228
f 197 228 229
f 199 230 198
f 231 227 226
f 198 231 226
f 201 198 226
f 231 198 230
f 201 226 194
f 229 232 197
f 197 232 203
f 203 233 205
f 232 233 203
f 199 205 230
f 205 234 230
f 205 233 234
f 230 234 231
f 235 206 207
f 209 235 207
f 235 212 206
f 212 235 209
f 237 236 215
f 215 236 214
f 238 215 216
f 238 237 215
f 239 216 217
f 239 238 216
f 217 218 239
f 239 218 240
f 236 220 214
f 241 220 236
f 242 240 218
f 242 218 221
f 244 242 243
f 242 222 243
f 242 221 222
f 223 243 222
f 224 220 245
f 220 246 245
f 220 241 246
f 245 225 224
f 247 244 243
f 243 223 247
f 223 248 247
f 223 227 248
f 246 249 245
f 249 251 250
f 249 250 228
f 245 249 228
f 225 245 228
f 250 229 228
f 231 248 227
f 231 252 248
f 251 253 250
f 250 253 229
f 253 232 229
f 253 254 232
f 232 255 233
f 254 255 232
f 233 256 234
f 255 256 233
f 231 234 252
f 252 234 256
f 258 257 237
f 237 257 236
f 259 237 238
f 259 258 237
f 261 259 260
f 259 239 260
f 259 238 239
f 240 260 239
f 257 241 236
f 262 241 257
f 263 261 260
f 265 263 264
f 264 263 242
f 263 260 242
f 260 240 242
f 244 264 242
f 262 246 241
f 266 246 262
f 267 265 264
f 269 267 268
f 268 267 247
f 267 264 247
f 264 244 247
f 248 268 247
f 266 270 246
f 246 270 249
f 251 249 270
f 251 270 271
f 272 269 268
f 268 248 272
f 248 273 272
f 248 252 273
f 271 274 251
f 251 274 253
f 253 275 254
f 274 275 253
f 254 276 255
f 275 276 254
f 255 277 256
f 276 277 255
f 252 256 273
f 273 256 277
f 279 278 258
f 258 278 257
f 280 258 259
f 280 279 258
f 259 261 280
f 280 261 281
f 278 262 257
f 282 262 278
f 283 281 261
f 283 261 263
f 263 265 283
f 283 265 284
f 282 266 262
f 285 266 282
f 265 267 286
f 287 265 286
f 284 265 287
f 269 286 267
f 290 289 288
f 288 291 290
f 270 266 292
f 266 293 292
f 266 285 293
f 292 271 270
f 296 295 294
f 294 295 287
f 286 294 287
f 297 294 286
f 272 298 269
f 298 286 269
f 298 297 286
f 273 298 272
f 288 289 299
f 299 289 300
f 291 288 301
f 288 302 301
f 288 299 302
f 302 303 301
f 293 304 292
f 292 304 271
f 304 274 271
f 304 305 274
f 294 275 296
f 275 305 296
f 275 274 305
f 275 294 276
f 276 294 297
f 276 297 277
f 277 297 298
f 277 298 273
f 300 306 299
f 299 306 302
f 302 306 307
f 302 307 303
f 309 308 279
f 279 308 278
f 310 279 280
f 310 309 279
f 280 281 310
f 310 281 311
f 308 282 278
f 312 282 308
f 281 283 313
f 314 281 313
f 311 281 314
f 284 313 283
f 312 285 282
f 315 285 312
f 314 313 316
f 314 316 317
f 287 316 284
f 284 316 313
f 319 318 290
f 290 318 289
f 321 320 291
f 320 290 291
f 320 319 290
f 323 322 321
f 321 322 320
f 326 325 324
f 323 326 324
f 322 323 324
f 315 322 324
f 285 315 324
f 293 285 324
f 327 293 324
f 325 327 324
f 328 327 325
f 317 316 295
f 296 317 295
f 329 317 296
f 295 316 287
f 318 300 289
f 330 300 318
f 301 321 291
f 321 301 303
f 331 321 303
f 323 321 331
f 304 293 327
f 332 326 331
f 323 331 326
f 328 333 327
f 333 304 327
f 333 305 304
f 296 305 329
f 329 305 333
f 330 334 300
f 300 334 306
f 306 335 307
f 334 335 306
f 303 307 331
f 307 336 331
f 307 335 336
f 331 336 332
f 337 308 309
f 337 309 338
f 309 339 338
f 309 310 339
f 310 311 339
f 339 311 340
f 342 341 337
f 341 308 337
f 341 312 308
f 342 337 338
f 314 340 311
f 314 343 340
f 341 315 312
f 344 315 341
f 317 343 314
f 317 345 343
f 347 346 319
f 319 346 318
f 348 319 320
f 348 347 319
f 349 320 322
f 349 348 320
f 325 326 350
f 351 350 326
f 344 322 315
f 322 344 349
f 328 325 350
f 328 350 352
f 329 345 317
f 329 353 345
f 346 330 318
f 354 330 346
f 332 351 326
f 332 355 351
f 352 356 328
f 328 356 333
f 329 333 353
f 353 333 356
f 354 357 330
f 330 357 334
f 334 358 335
f 357 358 334
f 335 359 336
f 358 359 335
f 332 336 355
f 355 336 359
f 362 361 360
f 338 339 360
f 339 362 360
f 339 363 362
f 339 340 363
f 363 340 364
f 360 361 342
f 361 341 342
f 361 365 341
f 360 342 338
f 343 364 340
f 343 366 364
f 369 368 367
f 371 370 367
f 367 370 369
f 373 372 371
f 371 372 370
f 373 374 372
f 365 344 341
f 375 344 365
f 345 366 343
f 345 376 366
f 368 377 367
f 378 346 347
f 367 378 347
f 371 367 347
f 377 378 367
f 371 347 348
f 371 348 373
f 379 374 373
f 348 379 373
f 349 379 348
f 350 351 380
f 379 344 375
f 344 379 349
f 382 380 381
f 382 350 380
f 382 383 352
f 350 382 352
f 382 376 383
f 376 353 383
f 376 345 353
f 378 354 346
f 384 354 378
f 386 385 380
f 351 386 380
f 355 386 351
f 383 356 352
f 385 381 380
f 356 383 353
f 384 387 354
f 354 387 357
f 357 388 358
f 387 388 357
f 358 389 359
f 388 389 358
f 355 359 386
f 386 359 389
f 391 390 362
f 362 390 361
f 392 362 363
f 392 391 362
f 363 364 392
f 392 364 393
f 390 365 361
f 394 365 390
f 366 396 395
f 393 366 395
f 364 366 393
f 396 397 395
f 399 398 369
f 369 398 368
f 400 369 370
f 400 399 369
f 401 370 372
f 401 400 370
f 403 402 374
f 402 372 374
f 402 401 372
f 394 402 403
f 375 394 403
f 365 394 375
f 405 404 396
f 366 405 396
f 376 405 366
f 396 404 397
f 398 406 368
f 368 406 377
f 408 407 378
f 377 408 378
f 406 408 377
f 409 407 408
f 379 403 374
f 403 379 375
f 381 410 382
f 410 411 382
f 411 376 382
f 411 405 376
f 413 412 407
f 412 378 407
f 412 384 378
f 413 407 409
f 415 414 385
f 415 385 386
f 381 385 410
f 385 416 410
f 385 414 416
f 410 416 411
f 412 417 384
f 384 417 387
f 417 419 418
f 388 417 418
f 387 417 388
f 388 418 420
f 421 388 420
f 389 388 421
f 386 389 415
f 415 389 421
f 419 422 418
f 418 422 420
f 424 423 391
f 391 423 390
f 425 391 392
f 425 424 391
f 427 426 393
f 426 392 393
f 426 425 392
f 427 428 426
f 431 430 429
f 429 432 431
f 423 394 390
f 433 394 423
f 395 427 393
f 395 397 427
f 397 428 427
f 397 434 428
f 436 435 399
f 399 435 398
f 400 429 430
f 436 400 430
f 399 400 436
f 437 432 429
f 400 437 429
f 401 437 400
f 438 401 402
f 438 437 401
f 402 394 433
f 402 433 438
f 440 439 404
f 440 404 405
f 397 404 434
f 434 404 439
f 435 441 398
f 398 441 406
f 406 442 408
f 441 442 406
f 409 408 442
f 409 442 443
f 411 440 405
f 411 444 440
f 445 412 413
f 446 445 413
f 409 446 413
f 443 446 409
f 415 447 414
f 414 447 448
f 449 414 448
f 416 414 449
f 411 416 444
f 444 416 449
f 445 417 412
f 419 417 445
f 446 419 445
f 450 419 446
f 420 451 421
f 451 452 421
f 421 452 415
f 452 453 415
f 453 447 415
f 447 453 448
f 450 454 419
f 419 454 422
f 420 422 451
f 422 455 451
f 422 454 455
f 451 455 452
f 457 456 424
f 424 456 423
f 458 424 425
f 458 457 424
f 459 425 426
f 459 458 425
f 426 428 459
f 459 428 460
f 463 462 461
f 430 431 461
f 431 463 461
f 431 464 463
f 466 465 432
f 465 431 432
f 465 464 431
f 466 467 465
f 456 433 423
f 468 433 456
f 434 460 428
f 434 469 460
f 470 435 436
f 462 471 461
f 472 461 471
f 461 472 430
f 473 430 472
f 430 473 436
f 470 436 473
f 432 437 466
f 473 472 474
f 475 467 466
f 437 475 466
f 438 475 437
f 438 433 468
f 438 468 475
f 477 476 439
f 477 439 440
f 434 439 469
f 469 439 476
f 470 441 435
f 441 470 442
f 442 470 473
f 443 442 473
f 474 443 473
f 478 443 474
f 481 480 479
f 480 477 479
f 477 444 479
f 477 440 444
f 478 446 443
f 482 446 478
f 481 479 449
f 448 481 449
f 483 481 448
f 449 479 444
f 482 450 446
f 484 450 482
f 486 485 453
f 486 453 452
f 448 453 483
f 483 453 485
f 484 487 450
f 450 487 454
f 454 488 455
f 487 488 454
f 452 455 486
f 486 455 488
f 491 490 489
f 489 492 491
f 495 494 493
f 493 496 495
f 497 456 457
f 490 498 489
f 498 457 489
f 457 458 489
f 457 498 497
f 499 492 489
f 458 499 489
f 459 499 458
f 459 460 499
f 499 460 500
f 502 501 463
f 463 501 462
f 464 493 494
f 502 464 494
f 463 464 502
f 503 496 493
f 464 503 493
f 465 503 464
f 465 467 503
f 503 467 504
f 506 505 497
f 505 456 497
f 505 468 456
f 506 497 498
f 469 500 460
f 469 507 500
f 471 462 508
f 462 509 508
f 462 501 509
f 510 472 471
f 510 471 508
f 510 474 472
f 511 504 467
f 511 467 475
f 475 468 505
f 475 505 511
f 513 512 476
f 513 476 477
f 469 476 507
f 507 476 512
f 509 514 508
f 508 514 510
f 510 514 515
f 474 510 515
f 516 474 515
f 478 474 516
f 518 517 480
f 518 480 481
f 477 480 513
f 513 480 517
f 520 482 519
f 482 516 519
f 482 478 516
f 521 520 519
f 524 523 522
f 523 518 522
f 518 483 522
f 518 481 483
f 525 484 520
f 520 484 482
f 520 521 526
f 520 526 525
f 524 522 485
f 486 524 485
f 527 524 486
f 485 522 483
f 525 487 484
f 526 528 525
f 528 487 525
f 528 488 487
f 486 488 527
f 527 488 528
f 530 529 491
f 491 529 490
f 532 531 492
f 531 491 492
f 531 530 491
f 532 533 531
f 534 494 495
f 496 534 495
f 529 498 490
f 535 498 529
f 499 532 492
f 499 500 532
f 500 533 532
f 500 536 533
f 537 501 502
f 494 534 502
f 534 537 502
f 534 538 537
f 503 539 496
f 539 534 496
f 539 538 534
f 504 539 503
f 541 540 506
f 506 540 505
f 506 498 535
f 506 535 541
f 544 543 542
f 543 536 542
f 536 507 542
f 536 500 507
f 545 509 537
f 537 509 501
f 546 537 538
f 545 537 546
f 547 538 539
f 546 538 547
f 511 548 504
f 548 539 504
f 548 547 539
f 549 548 511
f 505 549 511
f 540 549 505
f 544 542 512
f 513 544 512
f 550 544 513
f 512 542 507
f 545 514 509
f 514 545 515
f 515 545 546
f 515 546 516
f 546 551 516
f 546 547 551
f 548 553 552
f 551 548 552
f 547 548 551
f 553 548 549
f 555 554 517
f 555 517 518
f 513 517 550
f 550 517 554
f 551 519 516
f 521 519 551
f 552 521 551
f 556 521 552
f 558 557 523
f 558 523 524
f 518 523 555
f 555 523 557
f 560 526 559
f 526 556 559
f 526 521 556
f 559 558 560
f 558 527 560
f 558 524 527
f 560 528 526
f 528 560 527
f 562 561 530
f 530 561 529
f 563 530 531
f 563 562 530
f 565 564 533
f 564 531 533
f 564 563 531
f 565 566 564
f 561 535 529
f 567 535 561
f 569 568 565
f 533 569 565
f 536 569 533
f 565 568 566
f 571 570 541
f 541 570 540
f 541 535 567
f 541 567 571
f 573 572 543
f 573 543 544
f 536 543 569
f 569 543 572
f 570 549 540
f 574 549 570
f 550 573 544
f 550 575 573
f 576 552 553
f 577 576 553
f 549 577 553
f 574 577 549
f 579 578 554
f 579 554 555
f 550 554 575
f 575 554 578
f 580 556 576
f 576 556 552
f 581 557 558
f 576 581 558
f 580 576 558
f 581 576 577
f 555 557 579
f 579 557 581
f 580 559 556
f 559 580 558
f 584 583 582
f 582 585 584
f 582 583 562
f 583 561 562
f 583 586 561
f 587 585 582
f 562 587 582
f 563 587 562
f 589 587 588
f 587 564 588
f 587 563 564
f 566 588 564
f 586 567 561
f 590 567 586
f 589 588 568
f 569 589 568
f 591 589 569
f 568 588 566
f 592 570 571
f 593 592 571
f 567 593 571
f 590 593 567
f 595 594 572
f 595 572 573
f 569 572 591
f 591 572 594
f 596 574 592
f 592 574 570
f 592 593 597
f 592 597 596
f 575 595 573
f 575 598 595
f 599 577 596
f 596 577 574
f 600 578 579
f 596 600 579
f 599 596 579
f 600 596 597
f 575 578 598
f 598 578 600
f 599 581 577
f 581 599 579
f 601 583 584
f 585 601 584
f 603 602 601
f 602 583 601
f 602 586 583
f 603 601 585
f 587 603 585
f 604 603 587
f 587 589 604
f 604 589 605
f 602 590 586
f 606 590 602
f 609 608 607
f 608 605 607
f 605 591 607
f 605 589 591
f 611 593 610
f 593 606 610
f 593 590 606
f 611 610 609
f 611 609 607
f 595 611 607
f 594 595 607
f 594 607 591
f 612 597 611
f 611 597 593
f 598 612 595
f 595 612 611
f 612 600 597
f 600 612 598
f 613 602 603
f 604 614 603
f 603 614 613
f 605 614 604
f 615 606 613
f 613 606 602
f 609 615 608
f 615 614 608
f 615 613 614
f 608 614 605
f 615 610 606
f 610 615 609
