v -48.1 8.0 4.0
v -48.0 8.0 3.8
v -48.0 7.9 4.0
v -48.0 8.0 4.2
v -48.1 9.0 1.0
v -48.0 9.0 0.9
v -48.0 8.9 1.0
v -48.0 8.7 2.0
v -48.3 9.0 2.0
v -48.0 8.4 3.0
v -48.4 9.0 3.0
v -48.5 9.0 4.0
v -48.0 8.5 5.0
v -48.3 9.0 5.0
v -48.0 9.0 5.4
v -48.0 9.2 1.0
v -48.0 9.8 2.0
v -48.4 10.0 3.0
v -48.0 10.0 2.1
v -48.5 10.0 4.0
v -48.4 10.0 5.0
v -48.0 10.0 5.5
v -48.2 11.0 2.0
v -48.0 11.0 1.1
v -48.0 10.2 2.0
v -48.4 11.0 3.0
v -48.4 11.0 4.0
v -48.2 11.0 5.0
v -48.0 11.0 5.3
v -48.0 11.3 2.0
v -48.0 11.4 3.0
v -48.0 11.4 4.0
v -48.0 11.2 5.0
v -47.3 7.0 5.0
v -47.0 7.0 4.5
v -47.0 6.7 5.0
v -47.0 6.6 6.0
v -47.4 7.0 6.0
v -47.0 6.8 7.0
v -47.2 7.0 7.0
v -47.0 7.0 7.3
v -47.1 8.0 -1.0
v -47.0 8.0 -1.1
v -47.0 7.9 -1.0
v -47.0 7.5 0.0
v -47.4 8.0 0.0
v -47.0 7.5 1.0
v -47.5 8.0 1.0
v -47.0 7.5 2.0
v -47.5 8.0 2.0
v -47.0 7.5 3.0
v -47.6 8.0 3.0
v -47.0 7.3 4.0
v -47.7 8.0 5.0
v -47.5 8.0 6.0
v -47.4 8.0 7.0
v -47.0 8.0 7.6
v -47.0 8.2 -1.0
v -47.5 9.0 0.0
v -47.0 9.0 -0.6
v -47.6 9.0 6.0
v -47.5 9.0 7.0
v -47.0 8.7 8.0
v -47.2 9.0 8.0
v -47.0 9.0 8.2
v -47.3 10.0 0.0
v -47.0 10.0 -0.3
v -47.7 10.0 1.0
v -47.9 10.0 2.0
v -47.6 10.0 6.0
v -47.4 10.0 7.0
v -47.0 10.0 7.5
v -47.0 9.3 8.0
v -47.0 10.3 0.0
v -47.9 11.0 1.0
v -47.0 11.0 0.7
v -47.3 11.0 6.0
v -47.0 11.0 6.9
v -47.0 10.9 7.0
v -47.0 11.3 1.0
v -47.1 12.0 2.0
v -47.0 12.0 1.9
v -47.3 12.0 3.0
v -47.3 12.0 4.0
v -47.0 12.0 4.3
v -47.0 11.5 5.0
v -47.0 11.2 6.0
v -47.0 12.1 2.0
v -47.0 12.2 3.0
v -47.0 12.2 4.0
v -46.2 6.0 4.0
v -46.0 6.0 3.7
v -46.0 5.8 4.0
v -46.0 5.7 5.0
v -46.3 6.0 5.0
v -46.0 6.0 5.5
v -46.3 7.0 -1.0
v -46.0 7.0 -1.3
v -46.0 6.8 -1.0
v -46.0 6.6 0.0
v -46.5 7.0 0.0
v -46.0 6.5 1.0
v -46.5 7.0 1.0
v -46.0 6.6 2.0
v -46.5 7.0 2.0
v -46.0 6.5 3.0
v -46.5 7.0 3.0
v -46.7 7.0 4.0
v -46.0 6.3 6.0
v -46.0 6.4 7.0
v -46.0 6.6 8.0
v -46.4 7.0 8.0
v -46.0 7.0 8.5
v -46.2 8.0 -2.0
v -46.0 8.0 -2.2
v -46.0 7.8 -2.0
v -46.7 8.0 8.0
v -46.0 7.5 9.0
v -46.3 8.0 9.0
v -46.0 8.0 9.4
v -46.0 9.0 -3.0
v -46.0 9.0 -3.1
v -46.0 8.9 -3.0
v -46.4 9.0 -2.0
v -46.7 9.0 -1.0
v -46.5 9.0 9.0
v -46.0 9.0 9.5
v -46.0 9.1 -3.0
v -46.3 10.0 -2.0
v -46.0 10.0 -2.4
v -46.4 10.0 -1.0
v -46.6 10.0 8.0
v -46.3 10.0 9.0
v -46.0 10.0 9.4
v -46.0 10.3 -2.0
v -46.0 10.4 -1.0
v -46.0 10.5 0.0
v -46.5 11.0 1.0
v -46.0 10.7 1.0
v -46.0 11.0 1.5
v -46.4 11.0 5.0
v -46.0 10.7 5.0
v -46.0 11.0 4.6
v -46.7 11.0 6.0
v -46.0 10.6 6.0
v -46.0 10.6 7.0
v -46.0 10.5 8.0
v -46.0 10.7 9.0
v -46.9 12.0 2.0
v -46.0 11.4 2.0
v -46.6 12.0 3.0
v -46.0 11.6 3.0
v -46.0 12.0 4.0
v -46.0 12.0 4.0
v -46.0 12.0 4.0
v -45.0 5.0 11.0
v -45.0 5.0 11.0
v -45.0 5.0 11.0
v -45.0 5.0 11.0
v -45.0 6.0 3.3
v -45.0 5.5 4.0
v -45.0 5.4 5.0
v -45.0 5.5 6.0
v -45.6 6.0 6.0
v -45.0 5.5 7.0
v -45.5 6.0 7.0
v -45.0 5.5 8.0
v -45.5 6.0 8.0
v -45.0 5.5 9.0
v -45.4 6.0 9.0
v -45.0 5.4 10.0
v -45.4 6.0 10.0
v -45.3 6.0 11.0
v -45.0 6.0 11.4
v -45.0 7.0 -1.2
v -45.0 6.8 -1.0
v -45.0 6.5 0.0
v -45.0 6.1 1.0
v -45.0 6.3 2.0
v -45.0 6.2 3.0
v -45.7 7.0 9.0
v -45.5 7.0 10.0
v -45.3 7.0 11.0
v -45.0 7.0 11.4
v -45.8 8.0 -2.0
v -45.0 8.0 -1.6
v -45.5 8.0 10.0
v -45.0 8.0 10.6
v -45.0 7.5 11.0
v -45.9 9.0 -3.0
v -45.0 9.0 -2.4
v -45.0 8.6 -2.0
v -45.5 9.0 10.0
v -45.0 9.0 10.5
v -45.0 10.0 -2.8
v -45.1 10.0 5.0
v -45.0 9.9 5.0
v -45.0 10.0 4.9
v -45.0 10.0 5.1
v -45.3 10.0 10.0
v -45.0 10.0 10.3
v -45.0 10.8 -2.0
v -45.0 10.4 -1.0
v -45.0 10.4 0.0
v -45.0 10.5 1.0
v -45.6 11.0 2.0
v -45.0 10.6 2.0
v -45.5 11.0 3.0
v -45.0 10.6 3.0
v -45.5 11.0 4.0
v -45.0 10.5 4.0
v -45.0 10.4 6.0
v -45.0 10.5 7.0
v -45.0 10.5 8.0
v -45.0 10.6 9.0
v -45.0 10.3 10.0
v -46.0 12.0 4.0
v -44.2 5.0 3.0
v -44.0 5.0 2.7
v -44.0 4.8 3.0
v -44.0 4.6 4.0
v -44.5 5.0 4.0
v -44.0 4.6 5.0
v -44.5 5.0 5.0
v -44.0 4.6 6.0
v -44.5 5.0 6.0
v -44.0 4.6 7.0
v -44.5 5.0 7.0
v -44.0 4.6 8.0
v -44.5 5.0 8.0
v -44.0 4.6 9.0
v -44.5 5.0 9.0
v -44.0 4.6 10.0
v -44.6 5.0 10.0
v -44.0 4.6 11.0
v -44.0 5.0 11.6
v -44.5 6.0 2.0
v -44.0 6.0 1.5
v -44.0 5.6 2.0
v -44.8 6.0 3.0
v -44.0 5.5 12.0
v -44.4 6.0 12.0
v -44.0 6.0 12.4
v -44.8 7.0 -1.0
v -44.0 7.0 -0.1
v -44.0 6.9 0.0
v -44.0 6.4 1.0
v -44.5 7.0 12.0
v -44.0 7.0 12.5
v -44.6 8.0 -1.0
v -44.0 7.2 0.0
v -44.3 8.0 0.0
v -44.0 8.0 0.4
v -44.7 8.0 11.0
v -44.3 8.0 12.0
v -44.0 8.0 12.3
v -44.7 9.0 -2.0
v -44.5 9.0 -1.0
v -44.4 9.0 0.0
v -44.0 9.0 0.4
v -44.5 9.0 11.0
v -44.0 9.0 11.6
v -44.0 8.5 12.0
v -44.6 10.0 -2.0
v -44.6 10.0 -1.0
v -44.5 10.0 0.0
v -44.0 10.0 0.6
v -44.0 10.0 5.0
v -44.0 10.0 4.9
v -44.0 10.0 5.1
v -44.3 10.0 11.0
v -44.0 10.0 11.3
v -44.0 10.4 1.0
v -44.0 10.5 2.0
v -44.0 10.5 3.0
v -44.0 10.4 4.0
v -44.0 10.4 6.0
v -44.0 10.5 7.0
v -44.0 10.5 8.0
v -44.0 10.5 9.0
v -44.0 10.5 10.0
v -44.0 10.2 11.0
v -43.0 5.0 2.5
v -43.0 4.6 3.0
v -43.0 4.5 4.0
v -43.0 4.5 5.0
v -43.0 4.5 6.0
v -43.0 4.5 7.0
v -43.0 4.5 8.0
v -43.0 4.5 9.0
v -43.0 4.5 10.0
v -43.0 4.5 11.0
v -43.0 4.6 12.0
v -43.6 5.0 12.0
v -43.0 4.7 13.0
v -43.3 5.0 13.0
v -43.0 5.0 13.3
v -43.0 6.0 1.6
v -43.0 5.6 2.0
v -43.5 6.0 13.0
v -43.0 6.0 13.5
v -43.9 7.0 0.0
v -43.5 7.0 1.0
v -43.0 7.0 1.5
v -43.5 7.0 13.0
v -43.0 7.0 13.4
v -43.5 8.0 1.0
v -43.0 8.0 1.5
v -43.3 8.0 13.0
v -43.0 8.0 13.3
v -43.4 9.0 1.0
v -43.0 9.0 1.4
v -43.6 9.0 12.0
v -43.0 9.0 12.6
v -43.0 8.5 13.0
v -43.0 10.0 1.0
v -43.0 9.9 1.0
v -44.0 10.0 5.0
v -43.3 10.0 12.0
v -43.0 10.0 12.4
v -43.0 10.1 1.0
v -43.0 10.5 2.0
v -43.0 10.6 3.0
v -43.0 10.7 4.0
v -43.1 11.0 5.0
v -43.0 11.0 4.7
v -43.0 10.7 6.0
v -43.0 11.0 5.2
v -43.0 10.5 7.0
v -43.0 10.4 8.0
v -43.0 10.5 9.0
v -43.0 10.6 10.0
v -43.0 10.6 11.0
v -43.0 10.4 12.0
v -43.0 11.1 5.0
v -42.1 4.0 13.0
v -42.0 4.0 12.9
v -42.0 3.9 13.0
v -42.0 4.0 13.1
v -42.0 5.0 2.7
v -42.0 4.8 3.0
v -42.0 4.6 4.0
v -42.0 4.5 5.0
v -42.0 4.5 6.0
v -42.0 4.5 7.0
v -42.0 4.5 8.0
v -42.0 4.5 9.0
v -42.0 4.5 10.0
v -42.0 4.5 11.0
v -42.0 4.4 12.0
v -42.0 4.7 14.0
v -42.3 5.0 14.0
v -42.0 5.0 14.2
v -42.0 6.0 1.9
v -42.0 5.9 2.0
v -42.4 6.0 14.0
v -42.0 6.0 14.3
v -42.0 6.1 2.0
v -42.4 7.0 2.0
v -42.0 7.0 2.6
v -42.0 6.5 14.0
v -42.0 7.0 13.7
v -42.6 8.0 2.0
v -42.0 7.5 3.0
v -42.3 8.0 3.0
v -42.0 8.0 3.9
v -42.0 8.0 13.6
v -42.4 9.0 2.0
v -42.0 9.0 2.5
v -42.0 8.4 3.0
v -42.6 9.0 13.0
v -42.0 9.0 13.5
v -42.9 10.0 1.0
v -42.0 10.0 1.9
v -42.0 9.8 2.0
v -42.5 10.0 13.0
v -42.0 10.0 13.4
v -42.0 10.2 2.0
v -42.4 11.0 3.0
v -42.0 11.0 2.7
v -42.6 11.0 4.0
v -42.5 11.0 6.0
v -42.0 11.0 6.4
v -42.0 10.5 7.0
v -42.0 10.1 8.0
v -42.0 10.6 9.0
v -42.4 11.0 10.0
v -42.0 11.0 9.6
v -42.5 11.0 11.0
v -42.4 11.0 12.0
v -42.2 11.0 13.0
v -42.0 11.0 13.2
v -42.0 11.6 3.0
v -42.0 11.5 4.0
v -42.0 11.5 5.0
v -42.0 11.3 6.0
v -42.0 11.3 10.0
v -42.0 11.4 11.0
v -42.0 11.4 12.0
v -42.0 11.2 13.0
v -41.0 4.0 12.6
v -41.0 3.8 13.0
v -41.0 4.0 13.5
v -41.8 5.0 3.0
v -41.5 5.0 4.0
v -41.0 5.0 4.6
v -41.0 4.7 5.0
v -41.0 4.6 6.0
v -41.0 4.4 7.0
v -41.0 4.4 8.0
v -41.0 4.5 9.0
v -41.0 4.5 10.0
v -41.0 4.5 11.0
v -41.0 4.4 12.0
v -41.0 4.4 14.0
v -41.0 5.0 14.5
v -41.9 6.0 2.0
v -41.5 6.0 3.0
v -41.0 6.0 3.7
v -41.0 5.7 4.0
v -41.0 6.0 14.6
v -41.7 7.0 3.0
v -41.0 6.4 4.0
v -41.4 7.0 4.0
v -41.0 7.0 4.3
v -41.6 7.0 14.0
v -41.0 7.0 14.4
v -41.9 8.0 4.0
v -41.0 8.0 4.4
v -41.5 8.0 14.0
v -41.0 8.0 14.4
v -41.5 9.0 3.0
v -41.0 9.0 3.6
v -41.0 8.6 4.0
v -41.4 9.0 14.0
v -41.0 9.0 14.3
v -41.8 10.0 2.0
v -41.0 10.0 2.8
v -41.0 9.8 3.0
v -41.0 9.5 14.0
v -41.0 10.0 13.7
v -41.6 11.0 3.0
v -41.0 10.3 3.0
v -41.0 11.0 3.4
v -41.0 10.7 7.0
v -41.0 11.0 6.6
v -41.0 10.5 8.0
v -41.3 11.0 9.0
v -41.0 11.0 8.8
v -41.0 11.0 13.4
v -41.0 11.9 4.0
v -41.0 11.7 5.0
v -41.0 11.5 6.0
v -41.0 11.1 9.0
v -41.0 11.5 10.0
v -41.0 11.5 11.0
v -41.0 11.5 12.0
v -41.0 11.4 13.0
v -40.0 4.0 7.0
v -40.0 4.0 7.0
v -40.0 4.0 7.0
v -40.0 3.9 8.0
v -40.1 4.0 8.0
v -40.0 4.0 8.1
v -40.0 4.0 12.4
v -40.0 3.6 13.0
v -40.0 3.5 14.0
v -40.6 4.0 14.0
v -40.0 3.6 15.0
v -40.4 4.0 15.0
v -40.0 3.9 16.0
v -40.0 4.0 16.0
v -40.0 4.0 16.0
v -40.7 5.0 5.0
v -40.4 5.0 6.0
v -40.0 5.0 6.3
v -40.0 4.4 9.0
v -40.0 4.5 10.0
v -40.0 4.5 11.0
v -40.0 4.3 12.0
v -40.5 5.0 15.0
v -40.0 5.0 15.6
v -40.0 4.1 16.0
v -40.8 6.0 4.0
v -40.0 6.0 4.9
v -40.0 5.9 5.0
v -40.0 5.3 6.0
v -40.4 6.0 15.0
v -40.0 6.0 15.4
v -40.2 7.0 5.0
v -40.0 6.4 5.0
v -40.0 7.0 5.2
v -40.0 6.5 15.0
v -40.0 7.0 14.7
v -40.0 8.0 4.7
v -40.0 7.3 5.0
v -40.0 8.0 14.5
v -40.6 9.0 4.0
v -40.0 9.0 4.5
v -40.0 9.0 14.7
v -40.9 10.0 3.0
v -40.4 10.0 4.0
v -40.0 10.0 4.5
v -40.7 10.0 14.0
v -40.0 9.8 15.0
v -40.1 10.0 15.0
v -40.0 10.0 15.1
v -40.5 11.0 4.0
v -40.0 11.0 4.5
v -40.6 11.0 7.0
v -40.0 11.0 7.6
v -40.0 10.7 8.0
v -40.7 11.0 9.0
v -40.0 10.7 9.0
v -40.0 11.0 9.5
v -40.3 11.0 14.0
v -40.0 11.0 14.3
v -40.0 10.1 15.0
v -40.0 12.0 4.6
v -40.5 12.0 5.0
v -40.5 12.0 6.0
v -40.0 12.0 6.6
v -40.0 11.6 7.0
v -40.0 11.3 10.0
v -40.0 11.5 11.0
v -40.0 11.6 12.0
v -40.0 11.5 13.0
v -40.0 11.2 14.0
v -40.3 13.0 5.0
v -40.0 13.0 4.3
v -40.2 13.0 6.0
v -40.0 13.0 6.3
v -40.0 13.4 5.0
v -40.0 13.3 6.0
v -39.2 3.0 14.0
v -39.0 3.0 13.8
v -39.0 2.9 14.0
v -39.0 3.0 14.2
v -40.0 4.0 7.0
v -39.9 4.0 8.0
v -39.5 4.0 12.0
v -39.0 4.0 11.5
v -39.0 3.7 12.0
v -39.0 3.3 13.0
v -39.0 3.3 15.0
v -39.0 3.2 16.0
v -39.0 4.0 16.4
v -39.0 5.0 6.8
v -39.0 4.7 7.0
v -39.0 4.5 8.0
v -39.0 4.5 9.0
v -39.0 4.5 10.0
v -39.0 4.3 11.0
v -39.6 5.0 16.0
v -39.0 5.0 16.4
v -39.9 6.0 5.0
v -39.4 6.0 6.0
v -39.0 6.0 6.4
v -39.3 6.0 16.0
v -39.0 6.0 16.3
v -39.0 6.5 6.0
v -39.0 7.0 5.7
v -39.6 7.0 15.0
v -39.0 7.0 15.5
v -39.0 6.4 16.0
v -39.7 8.0 5.0
v -39.0 8.0 5.7
v -39.0 7.8 15.0
v -39.0 8.0 14.9
v -39.6 9.0 5.0
v -39.0 8.8 6.0
v -39.1 9.0 6.0
v -39.0 9.0 6.1
v -39.0 8.2 15.0
v -39.5 9.0 15.0
v -39.0 9.0 15.3
v -39.5 10.0 5.0
v -39.0 10.0 5.6
v -39.0 9.2 6.0
v -39.0 10.0 15.5
v -39.5 11.0 5.0
v -39.0 11.0 5.5
v -39.6 11.0 8.0
v -39.0 11.0 8.6
v -39.0 10.8 9.0
v -39.1 11.0 10.0
v -39.0 10.9 10.0
v -39.0 11.0 10.1
v -39.0 10.6 15.0
v -39.0 11.0 14.6
v -39.5 12.0 5.0
v -39.0 12.0 5.4
v -39.6 12.0 7.0
v -39.0 12.0 7.6
v -39.0 11.6 8.0
v -39.0 11.6 11.0
v -39.2 12.0 12.0
v -39.0 12.0 11.7
v -39.0 12.0 12.3
v -39.0 11.7 13.0
v -39.0 11.5 14.0
v -39.0 13.0 4.7
v -39.0 12.6 5.0
v -39.4 13.0 7.0
v -39.0 13.0 7.4
v -39.0 12.2 12.0
v -39.3 14.0 5.0
v -39.0 14.0 4.8
v -39.4 14.0 6.0
v -39.0 14.0 6.5
v -39.0 13.5 7.0
v -39.0 14.6 5.0
v -39.0 14.4 6.0
v -38.2 3.0 13.0
v -38.0 3.0 12.8
v -38.0 2.9 13.0
v -38.0 2.8 14.0
v -38.0 3.0 14.3
v -38.5 4.0 11.0
v -38.0 4.0 10.6
v -38.0 3.7 11.0
v -38.0 3.4 12.0
v -38.0 3.4 15.0
v -38.0 3.6 16.0
v -38.0 4.0 16.4
v -38.8 5.0 7.0
v -38.4 5.0 8.0
v -38.0 5.0 8.5
v -38.0 4.7 9.0
v -38.0 4.4 10.0
v -38.0 5.0 16.5
v -38.4 6.0 7.0
v -38.0 6.0 7.5
v -38.0 5.5 8.0
v -38.0 6.0 16.5
v -38.7 7.0 6.0
v -38.0 7.0 6.8
v -38.0 6.7 7.0
v -38.6 7.0 16.0
v -38.0 7.0 16.4
v -38.7 8.0 6.0
v -38.0 7.5 7.0
v -38.2 8.0 7.0
v -38.0 8.0 7.2
v -38.9 8.0 15.0
v -38.2 8.0 16.0
v -38.0 8.0 16.2
v -38.0 8.3 7.0
v -38.0 9.0 6.7
v -38.0 8.4 16.0
v -38.0 9.0 15.7
v -38.6 10.0 6.0
v -38.0 10.0 6.5
v -38.0 9.5 16.0
v -38.3 10.0 16.0
v -38.0 10.0 16.2
v -38.5 11.0 6.0
v -38.0 11.0 6.5
v -38.7 11.0 9.0
v -38.9 11.0 10.0
v -38.7 11.0 15.0
v -38.2 11.0 16.0
v -38.0 11.0 16.2
v -38.4 12.0 6.0
v -38.0 12.0 6.4
v -38.6 12.0 8.0
v -38.0 12.0 8.8
v -38.0 11.9 9.0
v -38.3 12.0 10.0
v -38.0 12.0 9.2
v -38.6 12.0 11.0
v -38.6 12.0 13.0
v -38.4 12.0 14.0
v -38.0 12.0 14.4
v -38.0 11.6 15.0
v -38.0 11.2 16.0
v -38.7 13.0 5.0
v -38.0 13.0 5.6
v -38.0 12.5 6.0
v -38.4 13.0 8.0
v -38.0 13.0 8.4
v -38.0 12.4 10.0
v -38.0 12.5 11.0
v -38.0 12.6 12.0
v -38.0 12.4 13.0
v -38.0 12.3 14.0
v -38.7 14.0 5.0
v -38.0 14.0 5.6
v -38.6 14.0 7.0
v -38.0 14.0 7.6
v -38.0 13.5 8.0
v -38.0 15.0 5.9
v -38.1 15.0 6.0
v -38.2 15.0 7.0
v -38.0 15.0 7.3
v -38.0 15.1 6.0
v -38.0 15.2 7.0
v -37.8 3.0 13.0
v -37.7 3.0 14.0
v -37.0 4.0 10.7
v -37.0 3.7 11.0
v -37.0 3.5 12.0
v -37.0 3.4 13.0
v -37.0 3.4 14.0
v -37.0 3.6 15.0
v -37.0 3.8 16.0
v -37.0 4.0 16.2
v -37.6 5.0 9.0
v -37.0 5.0 9.5
v -37.0 4.6 10.0
v -37.0 5.0 16.5
v -37.6 6.0 8.0
v -37.0 6.0 8.8
v -37.0 5.7 9.0
v -37.0 6.0 16.5
v -37.9 7.0 7.0
v -37.5 7.0 8.0
v -37.0 6.6 9.0
v -37.1 7.0 9.0
v -37.0 7.0 9.2
v -37.0 7.0 16.5
v -37.4 8.0 8.0
v -37.0 8.0 8.5
v -37.0 7.2 9.0
v -37.0 8.0 16.4
v -37.7 9.0 7.0
v -37.0 9.0 7.6
v -37.0 8.5 8.0
v -37.0 8.9 16.0
v -37.0 9.0 15.9
v -37.5 10.0 7.0
v -37.0 10.0 7.5
v -37.0 9.1 16.0
v -37.0 10.0 16.5
v -37.5 11.0 7.0
v -37.0 11.0 7.5
v -37.0 11.0 16.5
v -37.4 12.0 7.0
v -37.0 12.0 7.4
v -37.9 12.0 9.0
v -37.4 12.0 15.0
v -37.0 12.0 15.4
v -37.0 11.5 16.0
v -37.6 13.0 6.0
v -37.0 13.0 6.7
v -37.0 12.5 7.0
v -37.5 13.0 9.0
v -37.5 13.0 10.0
v -37.5 13.0 11.0
v -37.4 13.0 12.0
v -37.0 13.0 12.5
v -37.0 12.7 13.0
v -37.0 12.5 14.0
v -37.0 12.3 15.0
v -37.6 14.0 6.0
v -37.0 14.0 6.5
v -37.6 14.0 8.0
v -37.0 14.0 8.6
v -37.0 13.6 9.0
v -37.0 13.5 10.0
v -37.0 13.5 11.0
v -37.0 13.4 12.0
v -37.9 15.0 6.0
v -37.0 15.0 6.6
v -37.1 15.0 8.0
v -37.0 15.0 8.1
v -37.0 15.6 7.0
v -37.0 15.1 8.0
v -36.6 4.0 11.0
v -36.0 4.0 11.6
v -36.0 3.8 12.0
v -36.0 3.6 13.0
v -36.0 3.7 14.0
v -36.4 4.0 15.0
v -36.0 4.0 14.5
v -36.7 4.0 16.0
v -36.5 5.0 10.0
v -36.0 5.0 10.5
v -36.0 4.5 11.0
v -36.0 4.3 15.0
v -36.0 4.6 16.0
v -36.0 5.0 16.4
v -36.8 6.0 9.0
v -36.0 6.0 9.8
v -36.0 5.7 10.0
v -36.0 6.0 16.5
v -36.2 7.0 10.0
v -36.0 6.5 10.0
v -36.0 7.0 10.2
v -36.0 7.0 16.5
v -36.5 8.0 9.0
v -36.0 8.0 9.6
v -36.0 7.3 10.0
v -36.0 8.0 16.5
v -36.6 9.0 8.0
v -36.0 9.0 8.7
v -36.0 8.6 9.0
v -36.9 9.0 16.0
v -36.0 9.0 16.5
v -36.5 10.0 8.0
v -36.0 10.0 8.5
v -36.0 9.7 17.0
v -36.3 10.0 17.0
v -36.0 10.0 17.2
v -36.5 11.0 8.0
v -36.0 11.0 8.5
v -36.3 11.0 17.0
v -36.0 11.0 17.2
v -36.5 12.0 8.0
v -36.0 12.0 8.5
v -36.0 11.7 16.0
v -36.0 12.0 15.6
v -36.0 11.3 17.0
v -36.7 13.0 7.0
v -36.4 13.0 8.0
v -36.0 13.0 8.4
v -36.5 13.0 13.0
v -36.0 13.0 13.5
v -36.0 12.7 14.0
v -36.0 12.4 15.0
v -36.6 14.0 7.0
v -36.0 14.0 7.9
v -36.0 13.8 8.0
v -36.6 14.0 9.0
v -36.5 14.0 10.0
v -36.5 14.0 11.0
v -36.3 14.0 12.0
v -36.0 14.0 12.3
v -36.0 13.4 13.0
v -36.7 15.0 7.0
v -36.0 14.2 8.0
v -36.8 15.0 8.0
v -36.0 14.7 9.0
v -36.0 14.4 10.0
v -36.0 14.4 11.0
v -36.0 14.2 12.0
v -35.7 4.0 12.0
v -35.6 4.0 13.0
v -35.6 4.0 14.0
v -35.6 5.0 11.0
v -35.3 5.0 12.0
v -35.0 5.0 12.4
v -35.0 4.6 13.0
v -35.0 4.4 14.0
v -35.0 4.5 15.0
v -35.0 4.7 16.0
v -35.0 5.0 16.3
v -35.8 6.0 10.0
v -35.0 6.0 10.9
v -35.0 5.9 11.0
v -35.0 5.4 12.0
v -35.0 6.0 16.5
v -35.4 7.0 11.0
v -35.0 6.2 11.0
v -35.0 7.0 11.4
v -35.0 7.0 16.5
v -35.7 8.0 10.0
v -35.5 8.0 11.0
v -35.0 7.9 12.0
v -35.1 8.0 12.0
v -35.0 8.0 12.1
v -35.0 8.0 16.5
v -35.7 9.0 9.0
v -35.5 9.0 10.0
v -35.3 9.0 11.0
v -35.0 9.0 11.4
v -35.0 8.1 12.0
v -35.0 9.0 16.6
v -35.6 10.0 9.0
v -35.4 10.0 10.0
v -35.0 10.0 10.6
v -35.0 9.5 11.0
v -35.0 9.5 17.0
v -35.0 10.0 17.4
v -35.6 11.0 9.0
v -35.3 11.0 10.0
v -35.0 11.0 10.3
v -35.0 11.0 17.5
v -35.5 12.0 9.0
v -35.0 12.0 9.6
v -35.0 11.5 10.0
v -35.7 12.0 16.0
v -35.3 12.0 17.0
v -35.0 12.0 17.2
v -35.5 13.0 9.0
v -35.0 13.0 9.5
v -35.5 13.0 14.0
v -35.0 13.0 14.5
v -35.0 12.7 15.0
v -35.0 12.5 16.0
v -35.0 12.2 17.0
v -35.9 14.0 8.0
v -35.6 14.0 9.0
v -35.0 14.0 9.7
v -35.0 13.7 13.0
v -35.0 14.0 12.6
v -35.0 13.3 14.0
v -35.0 14.3 10.0
v -35.0 14.5 11.0
v -35.0 14.4 12.0
v -34.5 5.0 13.0
v -34.0 5.0 13.6
v -34.0 4.7 14.0
v -34.0 4.5 15.0
v -34.0 4.7 16.0
v -34.0 5.0 16.3
v -34.9 6.0 11.0
v -34.4 6.0 12.0
v -34.0 6.0 12.5
v -34.0 5.5 13.0
v -34.0 6.0 16.5
v -34.0 6.8 12.0
v -34.0 7.0 11.9
v -34.0 7.0 16.5
v -34.0 7.2 12.0
v -34.0 8.0 12.5
v -34.0 8.0 16.5
v -34.4 9.0 12.0
v -34.0 9.0 12.3
v -34.0 9.0 16.6
v -34.6 10.0 11.0
v -34.0 10.0 11.6
v -34.0 9.5 12.0
v -34.0 9.5 17.0
v -34.0 10.0 17.4
v -34.4 11.0 11.0
v -34.0 11.0 11.4
v -34.0 11.0 17.5
v -34.6 12.0 10.0
v -34.0 12.0 10.6
v -34.0 11.5 11.0
v -34.0 12.0 17.4
v -34.5 13.0 10.0
v -34.0 13.0 10.4
v -34.6 13.0 15.0
v -34.3 13.0 16.0
v -34.0 13.0 16.3
v -34.0 12.4 17.0
v -34.7 14.0 10.0
v -34.0 14.0 10.7
v -34.5 14.0 13.0
v -34.0 14.0 13.5
v -34.0 13.7 14.0
v -34.0 13.4 15.0
v -34.0 13.2 16.0
v -34.0 14.2 11.0
v -34.0 14.4 12.0
v -34.0 14.3 13.0
v -33.5 5.0 14.0
v -33.0 5.0 14.4
v -33.0 4.6 15.0
v -33.0 4.7 16.0
v -33.0 5.0 16.3
v -33.5 6.0 13.0
v -33.0 6.0 13.4
v -33.0 5.4 14.0
v -33.0 6.0 16.5
v -33.9 7.0 12.0
v -33.0 7.0 12.8
v -33.0 6.7 13.0
v -33.0 7.0 16.5
v -33.2 8.0 13.0
v -33.0 7.6 13.0
v -33.0 8.0 13.1
v -33.0 8.0 16.5
v -33.0 9.0 12.7
v -33.0 8.3 13.0
v -33.0 9.0 16.6
v -33.6 10.0 12.0
v -33.0 10.0 12.5
v -33.0 9.5 17.0
v -33.0 10.0 17.4
v -33.4 11.0 12.0
v -33.0 11.0 12.4
v -33.0 11.0 17.5
v -33.5 12.0 11.0
v -33.0 12.0 11.5
v -33.0 11.5 12.0
v -33.0 12.0 17.4
v -33.0 13.0 10.9
v -33.0 12.9 11.0
v -33.0 12.5 17.0
v -33.0 13.0 16.5
v -33.0 13.1 11.0
v -33.7 14.0 11.0
v -33.4 14.0 12.0
v -33.0 13.6 12.0
v -33.0 14.0 12.5
v -33.3 14.0 14.0
v -33.0 14.0 14.3
v -33.0 13.7 15.0
v -33.0 13.4 16.0
v -33.0 14.7 13.0
v -33.0 14.2 14.0
v -32.0 5.0 14.6
v -32.0 4.6 15.0
v -32.0 4.8 16.0
v -32.0 5.0 16.2
v -32.0 6.0 13.7
v -32.0 5.7 14.0
v -32.0 6.0 16.5
v -32.8 7.0 13.0
v -32.0 7.0 13.5
v -32.0 7.0 16.5
v -32.0 8.0 13.6
v -32.0 8.0 16.5
v -32.6 9.0 13.0
v -32.0 9.0 13.5
v -32.0 9.0 16.6
v -32.5 10.0 13.0
v -32.0 10.0 13.5
v -32.0 9.7 17.0
v -32.0 10.0 17.2
v -32.4 11.0 13.0
v -32.0 11.0 13.4
v -32.0 11.0 17.4
v -32.6 12.0 12.0
v -32.0 12.0 12.8
v -32.0 11.7 13.0
v -32.0 12.0 17.3
v -32.9 13.0 11.0
v -32.6 13.0 12.0
v -32.0 12.3 13.0
v -32.3 13.0 13.0
v -32.0 13.0 13.5
v -32.0 12.4 17.0
v -32.0 13.0 16.4
v -32.7 14.0 13.0
v -32.0 13.4 14.0
v -32.7 14.0 14.0
v -32.0 13.9 15.0
v -32.0 13.3 16.0
v -31.0 5.0 14.8
v -31.0 4.6 15.0
v -31.6 5.0 16.0
v -31.0 5.0 15.3
v -31.7 6.0 14.0
v -31.0 6.0 14.6
v -31.0 5.6 16.0
v -31.0 6.0 16.2
v -31.5 7.0 14.0
v -31.0 7.0 14.5
v -31.0 7.0 16.3
v -31.5 8.0 14.0
v -31.0 8.0 14.5
v -31.0 8.0 16.3
v -31.5 9.0 14.0
v -31.0 9.0 14.5
v -31.0 9.0 16.4
v -31.5 10.0 14.0
v -31.0 10.0 14.5
v -31.7 10.0 17.0
v -31.0 10.0 16.4
v -31.5 11.0 14.0
v -31.0 11.0 14.5
v -31.4 11.0 17.0
v -31.0 11.0 16.6
v -31.9 12.0 13.0
v -31.4 12.0 14.0
v -31.0 12.0 14.7
v -31.0 12.0 17.0
v -31.0 12.0 17.0
v -31.7 13.0 14.0
v -31.0 12.3 15.0
v -31.5 13.0 15.0
v -31.6 13.0 16.0
v -31.0 12.4 16.0
v -31.0 12.0 17.0
v -30.8 5.0 15.0
v -30.7 6.0 15.0
v -30.8 6.0 16.0
v -30.6 7.0 15.0
v -30.7 7.0 16.0
v -30.6 8.0 15.0
v -30.7 8.0 16.0
v -30.6 9.0 15.0
v -30.6 9.0 16.0
v -30.6 10.0 15.0
v -30.6 10.0 16.0
v -30.6 11.0 15.0
v -30.6 11.0 16.0
v -30.8 12.0 15.0
v -30.7 12.0 16.0
v -31.0 12.0 17.0
f 3 2 1
f 1 4 3
f 7 6 5
f 9 8 5
f 5 8 7
f 11 10 9
f 9 10 8
f 10 11 2
f 11 1 2
f 11 12 1
f 4 1 13
f 1 14 13
f 1 12 14
f 14 15 13
f 6 16 5
f 5 16 9
f 9 16 17
f 19 18 17
f 18 9 17
f 18 11 9
f 11 20 12
f 11 18 20
f 12 21 14
f 12 20 21
f 15 14 22
f 22 14 21
f 25 24 23
f 25 23 19
f 23 18 19
f 23 26 18
f 18 27 20
f 18 26 27
f 20 28 21
f 20 27 28
f 22 21 29
f 29 21 28
f 24 30 23
f 23 30 26
f 26 30 31
f 26 31 27
f 27 31 32
f 27 32 28
f 28 32 33
f 28 33 29
f 36 35 34
f 38 37 34
f 34 37 36
f 40 39 38
f 38 39 37
f 40 41 39
f 44 43 42
f 46 45 42
f 42 45 44
f 48 47 46
f 46 47 45
f 50 49 48
f 48 49 47
f 52 51 50
f 50 51 49
f 2 3 52
f 3 51 52
f 3 53 51
f 54 34 4
f 34 53 4
f 53 3 4
f 34 35 53
f 34 55 38
f 34 54 55
f 38 56 40
f 38 55 56
f 41 40 57
f 57 40 56
f 43 58 42
f 60 59 58
f 59 42 58
f 59 46 42
f 59 6 7
f 48 59 7
f 46 59 48
f 48 7 8
f 48 8 50
f 50 8 10
f 50 10 52
f 52 10 2
f 13 54 4
f 54 13 15
f 61 54 15
f 55 54 61
f 55 62 56
f 55 61 62
f 57 56 63
f 56 64 63
f 56 62 64
f 64 65 63
f 59 60 66
f 66 60 67
f 68 16 6
f 59 68 6
f 66 68 59
f 69 17 16
f 69 16 68
f 69 19 17
f 22 70 61
f 22 61 15
f 61 71 62
f 61 70 71
f 73 64 72
f 64 71 72
f 64 62 71
f 64 73 65
f 67 74 66
f 76 75 74
f 75 66 74
f 75 68 66
f 75 24 25
f 69 75 25
f 68 75 69
f 69 25 19
f 29 77 70
f 29 70 22
f 79 71 78
f 71 77 78
f 71 70 77
f 71 79 72
f 76 80 75
f 80 82 81
f 80 81 30
f 75 80 30
f 24 75 30
f 83 31 30
f 83 30 81
f 84 32 31
f 84 31 83
f 32 84 85
f 86 32 85
f 33 32 86
f 29 33 77
f 33 87 77
f 33 86 87
f 77 87 78
f 82 88 81
f 81 88 83
f 83 88 89
f 83 89 84
f 84 89 90
f 84 90 85
f 93 92 91
f 95 94 91
f 91 94 93
f 95 96 94
f 99 98 97
f 101 100 97
f 97 100 99
f 103 102 101
f 101 102 100
f 105 104 103
f 103 104 102
f 107 106 105
f 105 106 104
f 106 107 92
f 107 91 92
f 107 108 91
f 108 35 36
f 95 108 36
f 91 108 95
f 109 96 95
f 36 109 95
f 37 109 36
f 110 37 39
f 110 109 37
f 112 111 41
f 111 39 41
f 111 110 39
f 112 113 111
f 116 115 114
f 116 114 98
f 98 114 97
f 114 43 97
f 43 44 97
f 97 44 45
f 97 45 101
f 101 45 47
f 101 47 103
f 103 47 49
f 103 49 105
f 105 49 51
f 105 51 107
f 107 51 53
f 107 53 108
f 108 53 35
f 57 117 112
f 57 112 41
f 113 112 118
f 112 119 118
f 112 117 119
f 119 120 118
f 123 122 121
f 123 121 115
f 121 114 115
f 121 124 114
f 125 58 43
f 114 125 43
f 124 125 114
f 125 60 58
f 63 117 57
f 117 63 65
f 126 117 65
f 119 117 126
f 120 119 127
f 127 119 126
f 122 128 121
f 130 129 128
f 129 121 128
f 129 124 121
f 124 131 125
f 124 129 131
f 131 67 60
f 131 60 125
f 72 132 73
f 126 65 73
f 132 126 73
f 133 126 132
f 127 126 134
f 134 126 133
f 130 135 129
f 129 135 131
f 131 135 136
f 131 136 67
f 136 74 67
f 136 137 74
f 139 138 76
f 74 139 76
f 137 139 74
f 140 138 139
f 143 142 141
f 145 144 141
f 145 141 142
f 79 78 144
f 145 79 144
f 146 79 145
f 72 79 132
f 79 147 132
f 79 146 147
f 132 147 133
f 133 147 148
f 133 148 134
f 138 80 76
f 150 149 82
f 150 82 80
f 140 150 80
f 138 140 80
f 152 151 149
f 152 149 150
f 153 151 152
f 143 141 86
f 85 143 86
f 154 143 85
f 86 141 87
f 87 141 144
f 87 144 78
f 149 88 82
f 88 149 89
f 89 149 151
f 153 155 151
f 155 89 151
f 155 90 89
f 85 90 154
f 154 90 155
f 158 157 156
f 156 159 158
f 161 160 93
f 93 160 92
f 162 93 94
f 162 161 93
f 164 163 96
f 163 94 96
f 163 162 94
f 166 165 164
f 164 165 163
f 168 167 166
f 166 167 165
f 170 169 168
f 168 169 167
f 172 171 170
f 170 171 169
f 171 172 157
f 172 156 157
f 172 173 156
f 159 156 174
f 174 156 173
f 176 175 99
f 99 175 98
f 177 99 100
f 177 176 99
f 178 100 102
f 178 177 100
f 179 102 104
f 179 178 102
f 180 104 106
f 180 179 104
f 106 92 160
f 106 160 180
f 109 164 96
f 164 109 110
f 164 110 166
f 166 110 111
f 166 111 168
f 168 111 113
f 181 168 113
f 170 168 181
f 170 182 172
f 170 181 182
f 172 183 173
f 172 182 183
f 174 173 184
f 184 173 183
f 185 115 116
f 186 185 116
f 98 186 116
f 175 186 98
f 118 181 113
f 181 118 120
f 187 181 120
f 182 181 187
f 189 183 188
f 183 187 188
f 183 182 187
f 183 189 184
f 190 122 123
f 191 190 123
f 191 123 115
f 192 191 115
f 185 192 115
f 192 185 186
f 127 193 187
f 127 187 120
f 188 187 194
f 194 187 193
f 190 128 122
f 130 128 190
f 191 130 190
f 195 130 191
f 198 197 196
f 199 196 197
f 134 200 193
f 134 193 127
f 194 193 201
f 201 193 200
f 195 202 130
f 130 202 135
f 135 203 136
f 202 203 135
f 136 204 137
f 203 204 136
f 137 205 139
f 204 205 137
f 207 206 140
f 139 207 140
f 205 207 139
f 209 208 206
f 209 206 207
f 211 210 208
f 211 208 209
f 210 211 198
f 210 198 196
f 143 210 196
f 142 143 196
f 199 212 196
f 212 142 196
f 212 145 142
f 145 213 146
f 212 213 145
f 146 214 147
f 213 214 146
f 147 215 148
f 214 215 147
f 134 148 200
f 148 216 200
f 148 215 216
f 200 216 201
f 206 150 140
f 150 206 152
f 152 206 208
f 152 208 153
f 208 217 153
f 208 210 217
f 154 217 143
f 143 217 210
f 217 155 153
f 155 217 154
f 220 219 218
f 222 221 218
f 218 221 220
f 224 223 222
f 222 223 221
f 226 225 224
f 224 225 223
f 228 227 226
f 226 227 225
f 230 229 228
f 228 229 227
f 232 231 230
f 230 231 229
f 234 233 232
f 232 233 231
f 157 158 234
f 158 233 234
f 158 235 233
f 158 159 235
f 235 159 236
f 239 238 237
f 239 237 219
f 237 218 219
f 237 240 218
f 240 160 161
f 222 240 161
f 218 240 222
f 222 161 162
f 222 162 224
f 224 162 163
f 224 163 226
f 226 163 165
f 226 165 228
f 228 165 167
f 228 167 230
f 230 167 169
f 230 169 232
f 232 169 171
f 232 171 234
f 234 171 157
f 174 242 241
f 236 174 241
f 159 174 236
f 242 243 241
f 244 175 176
f 244 176 245
f 176 246 245
f 176 177 246
f 247 177 178
f 247 246 177
f 179 237 238
f 247 179 238
f 178 179 247
f 237 179 180
f 237 180 240
f 240 180 160
f 184 248 242
f 184 242 174
f 243 242 249
f 249 242 248
f 250 186 244
f 244 186 175
f 244 245 251
f 252 244 251
f 250 244 252
f 253 252 251
f 188 254 189
f 248 184 189
f 254 248 189
f 255 248 254
f 249 248 256
f 256 248 255
f 257 191 192
f 186 250 192
f 250 257 192
f 250 258 257
f 259 250 252
f 258 250 259
f 252 253 260
f 252 260 259
f 194 261 254
f 194 254 188
f 263 255 262
f 255 261 262
f 255 254 261
f 255 263 256
f 264 195 257
f 257 195 191
f 265 257 258
f 264 257 265
f 266 258 259
f 265 258 266
f 259 260 267
f 259 267 266
f 269 268 197
f 269 197 198
f 199 197 268
f 199 268 270
f 201 271 261
f 201 261 194
f 262 261 272
f 272 261 271
f 264 202 195
f 202 264 203
f 203 264 265
f 203 265 204
f 204 265 266
f 267 273 266
f 273 204 266
f 273 205 204
f 205 274 207
f 273 274 205
f 207 275 209
f 274 275 207
f 209 276 211
f 275 276 209
f 198 211 269
f 269 211 276
f 270 277 199
f 199 277 212
f 212 278 213
f 277 278 212
f 213 279 214
f 278 279 213
f 214 280 215
f 279 280 214
f 215 281 216
f 280 281 215
f 201 216 271
f 216 282 271
f 216 281 282
f 271 282 272
f 284 283 220
f 220 283 219
f 285 220 221
f 285 284 220
f 286 221 223
f 286 285 221
f 287 223 225
f 287 286 223
f 288 225 227
f 288 287 225
f 289 227 229
f 289 288 227
f 290 229 231
f 290 289 229
f 291 231 233
f 291 290 231
f 292 233 235
f 292 291 233
f 294 293 236
f 293 235 236
f 293 292 235
f 296 295 294
f 294 295 293
f 296 297 295
f 299 298 239
f 239 298 238
f 239 219 283
f 239 283 299
f 241 294 236
f 294 241 243
f 300 294 243
f 296 294 300
f 297 296 301
f 301 296 300
f 302 245 246
f 247 303 246
f 246 303 302
f 304 303 247
f 238 304 247
f 298 304 238
f 249 305 300
f 249 300 243
f 301 300 306
f 306 300 305
f 302 251 245
f 251 302 253
f 302 307 253
f 302 303 307
f 303 304 308
f 303 308 307
f 256 309 305
f 256 305 249
f 306 305 310
f 310 305 309
f 311 260 307
f 307 260 253
f 307 308 312
f 307 312 311
f 262 313 263
f 313 314 263
f 263 314 256
f 314 315 256
f 315 309 256
f 309 315 310
f 317 316 311
f 316 260 311
f 316 267 260
f 317 311 312
f 269 318 268
f 318 270 268
f 272 319 313
f 272 313 262
f 314 313 320
f 320 313 319
f 316 321 267
f 267 321 273
f 273 322 274
f 321 322 273
f 274 323 275
f 322 323 274
f 275 324 276
f 323 324 275
f 276 324 269
f 324 325 269
f 325 318 269
f 325 324 326
f 318 325 270
f 325 327 270
f 327 277 270
f 325 328 327
f 277 329 278
f 327 329 277
f 278 330 279
f 329 330 278
f 279 331 280
f 330 331 279
f 280 332 281
f 331 332 280
f 281 333 282
f 332 333 281
f 272 282 319
f 282 334 319
f 282 333 334
f 319 334 320
f 326 335 325
f 325 335 328
f 338 337 336
f 336 339 338
f 341 340 284
f 284 340 283
f 342 284 285
f 342 341 284
f 343 285 286
f 343 342 285
f 344 286 287
f 344 343 286
f 345 287 288
f 345 344 287
f 346 288 289
f 346 345 288
f 347 289 290
f 347 346 289
f 348 290 291
f 348 347 290
f 349 291 292
f 349 348 291
f 350 292 293
f 350 349 292
f 295 336 337
f 350 295 337
f 293 295 350
f 352 351 297
f 297 351 295
f 351 339 295
f 339 336 295
f 352 353 351
f 355 354 299
f 299 354 298
f 299 283 340
f 299 340 355
f 301 356 352
f 301 352 297
f 353 352 357
f 357 352 356
f 359 304 358
f 304 354 358
f 304 298 354
f 360 359 358
f 362 361 356
f 301 362 356
f 306 362 301
f 356 361 357
f 363 308 359
f 359 308 304
f 359 360 364
f 365 359 364
f 363 359 365
f 366 365 364
f 310 362 306
f 310 367 362
f 368 312 363
f 363 312 308
f 365 370 369
f 368 365 369
f 363 365 368
f 370 365 366
f 314 371 315
f 371 372 315
f 372 310 315
f 372 367 310
f 373 316 317
f 374 373 317
f 374 317 312
f 375 374 312
f 368 375 312
f 375 368 369
f 320 376 371
f 320 371 314
f 372 371 377
f 377 371 376
f 373 321 316
f 374 378 373
f 378 321 373
f 378 322 321
f 378 380 379
f 323 378 379
f 322 378 323
f 381 324 323
f 381 323 379
f 381 326 324
f 328 382 327
f 327 382 383
f 384 327 383
f 329 327 384
f 329 385 330
f 384 385 329
f 330 386 331
f 385 386 330
f 386 388 387
f 332 386 387
f 331 386 332
f 389 333 332
f 389 332 387
f 390 334 333
f 390 333 389
f 376 320 334
f 390 376 334
f 391 376 390
f 377 376 392
f 392 376 391
f 380 393 379
f 379 393 381
f 381 393 394
f 381 394 326
f 394 335 326
f 394 395 335
f 328 335 382
f 335 396 382
f 335 395 396
f 382 396 383
f 388 397 387
f 387 397 389
f 389 397 398
f 389 398 390
f 390 398 399
f 390 399 391
f 391 399 400
f 391 400 392
f 402 401 338
f 338 401 337
f 338 339 402
f 402 339 403
f 404 340 341
f 342 405 341
f 341 405 404
f 405 342 406
f 342 407 406
f 342 343 407
f 408 343 344
f 408 407 343
f 409 344 345
f 409 408 344
f 410 345 346
f 410 409 345
f 411 346 347
f 411 410 346
f 412 347 348
f 412 411 347
f 413 348 349
f 413 412 348
f 414 349 350
f 414 413 349
f 350 337 401
f 350 401 414
f 415 403 339
f 415 339 351
f 351 353 415
f 415 353 416
f 417 354 355
f 340 404 355
f 404 417 355
f 404 418 417
f 405 420 419
f 418 405 419
f 404 405 418
f 420 405 406
f 357 416 353
f 357 421 416
f 417 358 354
f 358 417 360
f 417 422 360
f 417 418 422
f 418 419 423
f 424 418 423
f 422 418 424
f 425 424 423
f 362 426 361
f 426 427 361
f 427 357 361
f 427 421 357
f 422 364 360
f 364 422 366
f 422 428 366
f 422 424 428
f 424 425 429
f 424 429 428
f 367 430 426
f 367 426 362
f 427 426 431
f 431 426 430
f 432 369 370
f 433 432 370
f 433 370 366
f 434 433 366
f 428 434 366
f 434 428 429
f 372 435 430
f 372 430 367
f 431 430 436
f 436 430 435
f 437 374 375
f 438 437 375
f 438 375 369
f 439 438 369
f 432 439 369
f 439 432 433
f 441 440 435
f 372 441 435
f 377 441 372
f 435 440 436
f 437 378 374
f 443 442 380
f 443 380 378
f 438 443 378
f 437 438 378
f 444 442 443
f 446 445 384
f 446 384 383
f 384 447 385
f 445 447 384
f 447 449 448
f 386 447 448
f 385 447 386
f 448 388 386
f 392 441 377
f 392 450 441
f 442 393 380
f 444 451 442
f 451 393 442
f 451 394 393
f 394 452 395
f 451 452 394
f 395 453 396
f 452 453 395
f 383 396 446
f 446 396 453
f 449 454 448
f 448 454 388
f 454 397 388
f 454 455 397
f 397 456 398
f 455 456 397
f 398 457 399
f 456 457 398
f 399 458 400
f 457 458 399
f 392 400 450
f 450 400 458
f 461 460 459
f 463 462 459
f 459 462 461
f 463 464 462
f 466 465 402
f 402 465 401
f 468 467 403
f 467 402 403
f 467 466 402
f 470 469 468
f 468 469 467
f 472 471 470
f 470 471 469
f 472 473 471
f 474 406 407
f 408 475 407
f 407 475 474
f 460 476 459
f 476 408 459
f 408 409 459
f 408 476 475
f 459 409 410
f 459 410 463
f 477 464 463
f 410 477 463
f 411 477 410
f 478 411 412
f 478 477 411
f 479 412 413
f 479 478 412
f 480 413 414
f 480 479 413
f 414 401 465
f 414 465 480
f 415 468 403
f 468 415 416
f 481 468 416
f 470 468 481
f 483 472 482
f 472 481 482
f 472 470 481
f 472 483 473
f 484 419 420
f 485 484 420
f 485 420 406
f 486 485 406
f 474 486 406
f 486 474 475
f 486 475 487
f 487 475 476
f 421 488 481
f 421 481 416
f 482 481 489
f 489 481 488
f 484 423 419
f 491 490 425
f 491 425 423
f 485 491 423
f 484 485 423
f 492 490 491
f 494 493 488
f 421 494 488
f 427 494 421
f 488 493 489
f 496 495 490
f 495 425 490
f 495 429 425
f 496 490 492
f 431 494 427
f 431 497 494
f 498 433 434
f 499 498 434
f 429 499 434
f 495 499 429
f 436 497 431
f 436 500 497
f 501 438 439
f 433 498 439
f 498 501 439
f 498 502 501
f 498 499 503
f 498 503 502
f 441 504 440
f 500 436 505
f 436 504 505
f 504 506 505
f 436 440 504
f 506 507 505
f 501 443 438
f 443 501 444
f 501 508 444
f 501 502 508
f 502 503 509
f 502 509 508
f 446 510 445
f 445 510 511
f 512 445 511
f 447 445 512
f 514 513 449
f 447 514 449
f 512 514 447
f 515 513 514
f 450 516 504
f 450 504 441
f 518 506 517
f 506 516 517
f 506 504 516
f 506 518 507
f 508 451 444
f 452 451 508
f 519 452 508
f 509 519 508
f 520 452 519
f 521 453 452
f 521 452 520
f 521 522 453
f 453 522 446
f 522 523 446
f 523 510 446
f 510 523 511
f 513 454 449
f 515 524 513
f 524 454 513
f 524 455 454
f 455 525 456
f 524 525 455
f 456 526 457
f 525 526 456
f 457 527 458
f 526 527 457
f 450 458 516
f 458 528 516
f 458 527 528
f 516 528 517
f 520 519 529
f 529 519 530
f 520 531 521
f 520 529 531
f 522 521 532
f 532 521 531
f 530 533 529
f 529 533 531
f 531 533 534
f 531 534 532
f 537 536 535
f 535 538 537
f 539 460 461
f 462 540 461
f 461 540 539
f 464 540 462
f 543 542 541
f 465 466 541
f 466 543 541
f 466 544 543
f 467 535 536
f 544 467 536
f 466 467 544
f 545 538 535
f 467 545 535
f 469 545 467
f 546 469 471
f 546 545 469
f 471 473 546
f 546 473 547
f 549 548 539
f 548 460 539
f 548 476 460
f 549 539 540
f 549 540 550
f 550 540 464
f 477 550 464
f 551 550 477
f 552 477 478
f 552 551 477
f 553 478 479
f 553 552 478
f 480 541 542
f 553 480 542
f 479 480 553
f 541 480 465
f 482 554 483
f 554 555 483
f 555 473 483
f 555 547 473
f 556 485 486
f 487 557 486
f 486 557 556
f 558 557 487
f 476 558 487
f 548 558 476
f 489 559 554
f 489 554 482
f 555 554 560
f 560 554 559
f 556 491 485
f 556 557 561
f 492 556 561
f 562 492 561
f 556 492 491
f 561 557 558
f 494 563 493
f 563 564 493
f 493 564 489
f 564 565 489
f 565 559 489
f 559 565 560
f 566 495 496
f 567 566 496
f 492 567 496
f 562 567 492
f 569 568 563
f 494 569 563
f 497 569 494
f 563 568 564
f 570 499 566
f 566 499 495
f 566 567 571
f 572 566 571
f 570 566 572
f 573 572 571
f 500 575 574
f 569 500 574
f 497 500 569
f 575 576 574
f 577 503 570
f 570 503 499
f 572 579 578
f 577 572 578
f 570 572 577
f 579 572 573
f 505 575 500
f 505 507 575
f 507 576 575
f 507 580 576
f 581 509 577
f 577 509 503
f 577 578 582
f 577 582 581
f 511 583 512
f 512 583 584
f 585 512 584
f 514 512 585
f 587 586 515
f 514 587 515
f 585 587 514
f 588 586 587
f 590 589 518
f 590 518 517
f 507 518 580
f 580 518 589
f 591 519 581
f 581 519 509
f 581 582 592
f 581 592 591
f 522 593 523
f 593 594 523
f 523 594 511
f 594 595 511
f 595 583 511
f 583 595 584
f 586 524 515
f 588 596 586
f 596 524 586
f 596 525 524
f 596 598 597
f 526 596 597
f 525 596 526
f 526 597 599
f 600 526 599
f 527 526 600
f 527 601 528
f 600 601 527
f 517 528 590
f 590 528 601
f 603 602 591
f 602 519 591
f 602 530 519
f 603 591 592
f 532 604 593
f 532 593 522
f 594 593 605
f 605 593 604
f 598 606 597
f 597 606 599
f 533 530 607
f 530 608 607
f 530 602 608
f 609 534 533
f 609 533 607
f 609 610 534
f 534 610 532
f 610 611 532
f 611 604 532
f 604 611 605
f 608 612 607
f 607 612 609
f 609 612 613
f 609 613 610
f 616 615 614
f 536 537 614
f 537 616 614
f 537 617 616
f 537 538 617
f 617 538 618
f 621 620 619
f 542 543 619
f 543 621 619
f 543 622 621
f 544 614 615
f 622 544 615
f 543 544 622
f 614 544 536
f 623 618 538
f 623 538 545
f 624 545 546
f 624 623 545
f 546 547 624
f 624 547 625
f 626 548 549
f 550 627 549
f 549 627 626
f 627 550 628
f 550 629 628
f 550 551 629
f 630 551 552
f 630 629 551
f 553 619 620
f 630 553 620
f 552 553 630
f 619 553 542
f 555 625 547
f 555 631 625
f 632 558 626
f 626 558 548
f 627 634 633
f 632 627 633
f 626 627 632
f 634 627 628
f 560 631 555
f 560 635 631
f 636 562 561
f 637 636 561
f 637 561 558
f 638 637 558
f 632 638 558
f 638 632 633
f 564 639 565
f 639 640 565
f 640 560 565
f 640 635 560
f 641 567 636
f 636 567 562
f 636 637 642
f 643 636 642
f 641 636 643
f 644 643 642
f 569 645 568
f 639 564 568
f 645 639 568
f 646 639 645
f 640 639 647
f 647 639 646
f 641 571 567
f 641 643 648
f 573 641 648
f 649 573 648
f 641 573 571
f 648 643 644
f 574 645 569
f 646 645 650
f 645 576 650
f 576 651 650
f 576 645 574
f 646 650 647
f 652 578 579
f 653 652 579
f 573 653 579
f 649 653 573
f 580 655 654
f 651 580 654
f 576 580 651
f 655 656 654
f 657 582 652
f 652 582 578
f 652 653 658
f 652 658 657
f 584 659 585
f 660 587 585
f 660 585 659
f 660 588 587
f 590 661 589
f 655 580 589
f 661 655 589
f 662 655 661
f 656 655 663
f 663 655 662
f 664 592 657
f 657 592 582
f 657 658 665
f 657 665 664
f 594 666 595
f 666 667 595
f 595 667 584
f 667 668 584
f 668 659 584
f 670 669 668
f 669 659 668
f 669 660 659
f 671 596 588
f 660 671 588
f 669 671 660
f 671 598 596
f 599 672 600
f 673 601 600
f 673 600 672
f 673 674 601
f 601 674 590
f 674 675 590
f 675 661 590
f 661 675 662
f 662 675 676
f 662 676 663
f 677 602 603
f 678 677 603
f 678 603 592
f 679 678 592
f 664 679 592
f 679 664 665
f 605 680 666
f 605 666 594
f 667 666 681
f 681 666 680
f 670 682 669
f 669 682 671
f 671 682 683
f 671 683 598
f 683 606 598
f 683 684 606
f 599 606 672
f 606 685 672
f 606 684 685
f 672 685 673
f 673 685 686
f 673 686 674
f 687 608 677
f 677 608 602
f 677 678 688
f 677 688 687
f 610 689 611
f 689 690 611
f 611 690 605
f 690 691 605
f 691 680 605
f 680 691 681
f 687 612 608
f 613 612 687
f 692 613 687
f 688 692 687
f 693 613 692
f 689 610 613
f 693 689 613
f 694 689 693
f 690 689 695
f 695 689 694
f 692 696 693
f 693 696 694
f 694 696 697
f 694 697 695
f 698 615 616
f 617 699 616
f 616 699 698
f 618 699 617
f 701 700 621
f 621 700 620
f 702 621 622
f 702 701 621
f 622 615 698
f 703 622 698
f 702 622 703
f 703 698 699
f 703 699 704
f 704 699 618
f 623 704 618
f 705 704 623
f 706 623 624
f 706 705 623
f 624 625 706
f 706 625 707
f 708 628 629
f 708 629 709
f 629 710 709
f 629 630 710
f 630 620 700
f 630 700 710
f 631 707 625
f 631 711 707
f 712 633 634
f 713 712 634
f 713 634 628
f 714 713 628
f 708 714 628
f 714 708 709
f 635 711 631
f 635 715 711
f 716 637 638
f 633 712 638
f 712 716 638
f 712 717 716
f 712 713 718
f 719 712 718
f 717 712 719
f 720 719 718
f 640 715 635
f 640 721 715
f 716 642 637
f 642 716 644
f 716 722 644
f 716 717 722
f 719 724 723
f 722 719 723
f 717 719 722
f 724 719 720
f 647 721 640
f 647 725 721
f 726 649 648
f 727 726 648
f 727 648 644
f 728 727 644
f 722 728 644
f 728 722 723
f 730 729 650
f 730 650 651
f 647 650 725
f 725 650 729
f 731 653 726
f 726 653 649
f 726 727 732
f 726 732 731
f 733 730 651
f 733 651 654
f 654 656 733
f 733 656 734
f 735 658 731
f 731 658 653
f 731 732 736
f 731 736 735
f 663 734 656
f 663 737 734
f 738 665 735
f 735 665 658
f 735 736 739
f 735 739 738
f 667 740 668
f 740 670 668
f 674 741 675
f 675 741 742
f 743 675 742
f 676 675 743
f 663 676 737
f 737 676 743
f 744 678 679
f 745 744 679
f 745 679 665
f 746 745 665
f 738 746 665
f 746 738 739
f 681 747 740
f 681 740 667
f 748 682 670
f 740 748 670
f 747 748 740
f 749 683 682
f 749 682 748
f 750 684 683
f 750 683 749
f 684 750 751
f 752 684 751
f 685 684 752
f 685 753 686
f 752 753 685
f 674 686 741
f 686 754 741
f 686 753 754
f 741 754 742
f 755 688 744
f 744 688 678
f 744 745 756
f 744 756 755
f 690 757 691
f 757 758 691
f 691 758 681
f 758 759 681
f 759 747 681
f 747 759 748
f 748 759 760
f 748 760 749
f 749 760 761
f 749 761 750
f 750 761 762
f 750 762 751
f 763 692 755
f 755 692 688
f 755 756 764
f 755 764 763
f 695 765 757
f 695 757 690
f 758 757 766
f 766 757 765
f 763 696 692
f 764 767 763
f 767 696 763
f 767 697 696
f 695 697 765
f 697 768 765
f 697 767 768
f 765 768 766
f 769 700 701
f 769 701 770
f 701 771 770
f 701 702 771
f 772 702 703
f 772 771 702
f 773 703 704
f 773 772 703
f 775 773 774
f 773 705 774
f 773 704 705
f 706 776 705
f 705 776 774
f 707 776 706
f 777 709 710
f 778 777 710
f 778 710 700
f 779 778 700
f 769 779 700
f 779 769 770
f 780 775 774
f 780 774 776
f 780 776 781
f 776 707 781
f 707 782 781
f 707 711 782
f 783 713 714
f 784 783 714
f 784 714 709
f 785 784 709
f 777 785 709
f 785 777 778
f 715 782 711
f 715 786 782
f 783 718 713
f 788 787 720
f 788 720 718
f 784 788 718
f 783 784 718
f 789 787 788
f 721 786 715
f 721 790 786
f 791 723 724
f 792 791 724
f 792 724 720
f 793 792 720
f 787 793 720
f 793 787 789
f 725 790 721
f 725 794 790
f 795 727 728
f 796 795 728
f 796 728 723
f 797 796 723
f 791 797 723
f 797 791 792
f 730 798 729
f 798 799 729
f 799 725 729
f 799 794 725
f 800 732 795
f 795 732 727
f 795 796 801
f 795 801 800
f 733 798 730
f 803 802 734
f 734 802 733
f 802 799 733
f 799 798 733
f 803 804 802
f 805 736 800
f 800 736 732
f 800 801 806
f 800 806 805
f 737 807 803
f 737 803 734
f 804 803 808
f 808 803 807
f 809 739 805
f 805 739 736
f 805 806 810
f 805 810 809
f 812 811 743
f 812 743 742
f 737 743 807
f 743 813 807
f 743 811 813
f 807 813 808
f 814 745 746
f 739 809 746
f 809 814 746
f 809 815 814
f 809 810 816
f 809 816 815
f 751 817 752
f 752 817 818
f 819 752 818
f 753 752 819
f 753 820 754
f 819 820 753
f 742 754 812
f 812 754 820
f 821 756 814
f 814 756 745
f 815 823 822
f 821 815 822
f 814 815 821
f 759 758 824
f 815 816 823
f 825 760 759
f 825 759 824
f 826 761 760
f 826 760 825
f 827 762 761
f 827 761 826
f 827 828 762
f 762 828 751
f 828 829 751
f 829 817 751
f 817 829 818
f 830 764 821
f 821 764 756
f 821 822 831
f 832 821 831
f 830 821 832
f 831 833 824
f 766 831 824
f 758 766 824
f 832 831 766
f 824 833 825
f 825 833 834
f 825 834 826
f 826 834 835
f 826 835 827
f 827 835 836
f 827 836 828
f 830 767 764
f 767 830 768
f 768 830 832
f 768 832 766
f 837 770 771
f 772 838 771
f 771 838 837
f 773 839 772
f 772 839 838
f 775 839 773
f 840 778 779
f 770 837 779
f 837 840 779
f 837 841 840
f 838 843 842
f 841 838 842
f 837 838 841
f 843 838 839
f 843 839 844
f 844 839 775
f 780 844 775
f 845 844 780
f 846 780 781
f 846 845 780
f 781 782 846
f 846 782 847
f 848 784 785
f 849 848 785
f 849 785 778
f 850 849 778
f 840 850 778
f 850 840 841
f 850 841 851
f 851 841 842
f 786 847 782
f 786 852 847
f 848 788 784
f 854 853 789
f 854 789 788
f 849 854 788
f 848 849 788
f 855 853 854
f 790 852 786
f 790 856 852
f 857 792 793
f 789 853 793
f 853 857 793
f 853 858 857
f 853 855 859
f 860 853 859
f 858 853 860
f 861 860 859
f 794 856 790
f 794 862 856
f 863 796 797
f 792 857 797
f 857 863 797
f 857 864 863
f 865 857 858
f 864 857 865
f 860 867 866
f 865 860 866
f 858 860 865
f 867 860 861
f 799 862 794
f 799 868 862
f 869 801 863
f 863 801 796
f 870 863 864
f 869 863 870
f 865 872 871
f 870 865 871
f 864 865 870
f 872 865 866
f 873 868 799
f 873 799 802
f 802 804 873
f 873 804 874
f 875 806 869
f 869 806 801
f 876 869 870
f 875 869 876
f 870 871 877
f 870 877 876
f 808 874 804
f 808 878 874
f 879 810 875
f 875 810 806
f 876 881 880
f 879 876 880
f 875 876 879
f 881 876 877
f 812 882 811
f 883 813 811
f 883 811 882
f 883 884 813
f 884 808 813
f 884 878 808
f 885 816 879
f 879 816 810
f 879 880 886
f 879 886 885
f 818 887 819
f 819 887 888
f 889 819 888
f 820 819 889
f 812 820 882
f 820 890 882
f 820 889 890
f 882 890 883
f 883 890 891
f 883 891 884
f 892 822 823
f 816 885 823
f 885 892 823
f 885 893 892
f 885 886 894
f 885 894 893
f 896 895 829
f 896 829 828
f 818 829 887
f 829 897 887
f 829 895 897
f 887 897 888
f 892 831 822
f 831 892 833
f 833 892 893
f 894 898 893
f 898 833 893
f 898 834 833
f 834 899 835
f 898 899 834
f 835 900 836
f 899 900 835
f 828 836 896
f 896 836 900
f 901 842 843
f 901 843 902
f 843 903 902
f 843 844 903
f 904 844 845
f 904 903 844
f 905 845 846
f 905 904 845
f 846 847 905
f 905 847 906
f 907 849 850
f 851 908 850
f 850 908 907
f 909 908 851
f 909 851 842
f 910 909 842
f 901 910 842
f 910 901 902
f 852 906 847
f 852 911 906
f 907 854 849
f 907 908 912
f 855 907 912
f 913 855 912
f 907 855 854
f 912 908 909
f 856 911 852
f 856 914 911
f 913 915 855
f 855 915 859
f 861 859 915
f 861 915 916
f 862 914 856
f 862 917 914
f 918 866 867
f 919 918 867
f 861 919 867
f 916 919 861
f 868 917 862
f 868 920 917
f 921 871 872
f 922 921 872
f 922 872 866
f 923 922 866
f 918 923 866
f 923 918 919
f 924 920 868
f 924 868 873
f 873 874 924
f 924 874 925
f 926 877 921
f 921 877 871
f 921 922 927
f 921 927 926
f 878 925 874
f 878 928 925
f 929 880 881
f 930 929 881
f 930 881 877
f 931 930 877
f 926 931 877
f 931 926 927
f 884 928 878
f 884 932 928
f 933 886 929
f 929 886 880
f 929 930 934
f 929 934 933
f 888 935 889
f 936 890 889
f 936 889 935
f 890 936 937
f 938 890 937
f 891 890 938
f 884 891 932
f 932 891 938
f 939 894 933
f 933 894 886
f 933 934 940
f 933 940 939
f 896 941 895
f 895 941 942
f 943 895 942
f 897 895 943
f 888 897 935
f 897 944 935
f 897 943 944
f 935 944 936
f 936 944 945
f 936 945 937
f 939 898 894
f 940 946 939
f 946 898 939
f 946 899 898
f 899 947 900
f 946 947 899
f 896 900 941
f 900 948 941
f 900 947 948
f 941 948 942
f 949 902 903
f 949 903 950
f 903 951 950
f 903 904 951
f 952 904 905
f 952 951 904
f 905 906 952
f 952 906 953
f 954 909 910
f 955 954 910
f 955 910 902
f 956 955 902
f 949 956 902
f 956 949 950
f 911 953 906
f 911 957 953
f 958 913 912
f 959 958 912
f 959 912 909
f 960 959 909
f 954 960 909
f 960 954 955
f 914 957 911
f 914 961 957
f 958 915 913
f 963 962 916
f 963 916 915
f 959 963 915
f 958 959 915
f 964 962 963
f 917 961 914
f 917 965 961
f 967 966 962
f 966 916 962
f 966 919 916
f 967 962 964
f 920 965 917
f 920 968 965
f 969 922 923
f 970 969 923
f 919 970 923
f 966 970 919
f 971 968 920
f 971 920 924
f 924 925 971
f 971 925 972
f 973 927 969
f 969 927 922
f 969 970 974
f 969 974 973
f 928 972 925
f 928 975 972
f 976 930 931
f 977 976 931
f 977 931 927
f 978 977 927
f 973 978 927
f 978 973 974
f 932 975 928
f 932 979 975
f 981 980 976
f 980 930 976
f 980 934 930
f 981 976 977
f 983 982 938
f 983 938 937
f 932 938 979
f 979 938 982
f 985 940 984
f 940 980 984
f 940 934 980
f 987 986 985
f 987 985 984
f 988 986 987
f 942 989 943
f 943 989 990
f 991 943 990
f 944 943 991
f 944 992 945
f 991 992 944
f 937 945 983
f 983 945 992
f 985 946 940
f 946 985 947
f 947 985 986
f 988 993 986
f 993 947 986
f 993 948 947
f 942 948 989
f 948 994 989
f 948 993 994
f 989 994 990
f 996 995 951
f 951 995 950
f 997 951 952
f 997 996 951
f 952 953 997
f 997 953 998
f 1000 999 956
f 956 999 955
f 956 950 995
f 956 995 1000
f 957 998 953
f 957 1001 998
f 1002 959 960
f 1003 1002 960
f 955 1003 960
f 999 1003 955
f 961 1001 957
f 961 1004 1001
f 1002 963 959
f 964 963 1002
f 1003 964 1002
f 1005 964 1003
f 965 1004 961
f 965 1006 1004
f 1007 966 967
f 1008 1007 967
f 964 1008 967
f 1005 1008 964
f 968 1006 965
f 968 1009 1006
f 1010 970 1007
f 1007 970 966
f 1007 1008 1011
f 1007 1011 1010
f 1012 1009 968
f 1012 968 971
f 971 972 1012
f 1012 972 1013
f 1014 974 1010
f 1010 974 970
f 1010 1011 1015
f 1010 1015 1014
f 975 1013 972
f 975 1016 1013
f 1017 977 978
f 1018 1017 978
f 1018 978 974
f 1019 1018 974
f 1014 1019 974
f 1019 1014 1015
f 979 1016 975
f 979 1020 1016
f 1021 980 981
f 977 1017 981
f 1017 1021 981
f 1017 1022 1021
f 1017 1018 1023
f 1024 1017 1023
f 1022 1017 1024
f 1025 1024 1023
f 1027 1026 982
f 1027 982 983
f 979 982 1020
f 1020 982 1026
f 1021 984 980
f 984 1021 987
f 987 1021 1022
f 987 1022 988
f 1022 1028 988
f 1022 1024 1028
f 1024 1025 1029
f 1030 1024 1029
f 1028 1024 1030
f 991 990 1030
f 1029 991 1030
f 1031 991 1029
f 991 1032 992
f 1031 1032 991
f 983 992 1027
f 1027 992 1032
f 1028 993 988
f 993 1028 994
f 994 1028 1030
f 994 1030 990
f 1034 1033 996
f 996 1033 995
f 1036 1034 1035
f 1034 997 1035
f 1034 996 997
f 998 1035 997
f 1037 999 1000
f 1038 1037 1000
f 995 1038 1000
f 1033 1038 995
f 1039 1036 1035
f 1035 998 1039
f 998 1040 1039
f 998 1001 1040
f 1041 1003 1037
f 1037 1003 999
f 1037 1038 1042
f 1037 1042 1041
f 1004 1040 1001
f 1004 1043 1040
f 1044 1005 1041
f 1041 1005 1003
f 1041 1042 1045
f 1041 1045 1044
f 1006 1043 1004
f 1006 1046 1043
f 1047 1008 1044
f 1044 1008 1005
f 1044 1045 1048
f 1044 1048 1047
f 1009 1046 1006
f 1009 1049 1046
f 1050 1011 1047
f 1047 1011 1008
f 1047 1048 1051
f 1047 1051 1050
f 1009 1012 1052
f 1053 1009 1052
f 1049 1009 1053
f 1013 1052 1012
f 1054 1015 1050
f 1050 1015 1011
f 1050 1051 1055
f 1050 1055 1054
f 1053 1052 1056
f 1053 1056 1057
f 1016 1056 1013
f 1013 1056 1052
f 1058 1018 1019
f 1015 1054 1019
f 1054 1058 1019
f 1054 1059 1058
f 1054 1055 1060
f 1054 1060 1059
f 1061 1057 1056
f 1056 1016 1061
f 1016 1062 1061
f 1016 1020 1062
f 1058 1023 1018
f 1023 1058 1025
f 1058 1063 1025
f 1058 1059 1063
f 1059 1060 1064
f 1065 1059 1064
f 1063 1059 1065
f 1067 1066 1065
f 1067 1065 1064
f 1026 1027 1066
f 1067 1026 1066
f 1068 1026 1067
f 1020 1026 1062
f 1062 1026 1068
f 1063 1029 1025
f 1029 1063 1031
f 1031 1063 1065
f 1031 1065 1032
f 1032 1065 1066
f 1032 1066 1027
f 1069 1033 1034
f 1036 1069 1034
f 1070 1038 1069
f 1069 1038 1033
f 1039 1071 1036
f 1071 1069 1036
f 1071 1070 1069
f 1040 1071 1039
f 1072 1042 1070
f 1070 1042 1038
f 1073 1070 1071
f 1072 1070 1073
f 1043 1073 1040
f 1040 1073 1071
f 1074 1045 1072
f 1072 1045 1042
f 1075 1072 1073
f 1074 1072 1075
f 1046 1075 1043
f 1043 1075 1073
f 1076 1048 1074
f 1074 1048 1045
f 1077 1074 1075
f 1076 1074 1077
f 1049 1077 1046
f 1046 1077 1075
f 1078 1051 1076
f 1076 1051 1048
f 1079 1076 1077
f 1078 1076 1079
f 1053 1079 1049
f 1049 1079 1077
f 1080 1055 1078
f 1078 1055 1051
f 1081 1078 1079
f 1080 1078 1081
f 1057 1081 1053
f 1053 1081 1079
f 1082 1060 1080
f 1080 1060 1055
f 1083 1080 1081
f 1082 1080 1083
f 1061 1084 1057
f 1084 1081 1057
f 1084 1083 1081
f 1062 1084 1061
f 1082 1064 1060
f 1064 1082 1067
f 1067 1082 1083
f 1067 1083 1068
f 1068 1083 1084
f 1068 1084 1062
