v 29.8 -26.0 16.0
v 30.0 -26.0 15.8
v 30.0 -26.3 16.0
v 30.0 -26.5 17.0
v 29.6 -26.0 17.0
v 30.0 -26.3 18.0
v 29.7 -26.0 18.0
v 30.0 -26.0 18.3
v 29.7 -25.0 16.0
v 30.0 -25.0 15.7
v 29.5 -25.0 17.0
v 29.6 -25.0 18.0
v 30.0 -25.0 18.6
v 29.6 -24.0 16.0
v 30.0 -24.0 15.6
v 29.5 -24.0 17.0
v 29.5 -24.0 18.0
v 30.0 -24.5 19.0
v 29.7 -24.0 19.0
v 30.0 -24.0 19.4
v 29.8 -23.0 15.0
v 30.0 -23.0 14.7
v 30.0 -23.3 15.0
v 29.5 -23.0 16.0
v 29.5 -23.0 17.0
v 29.5 -23.0 18.0
v 29.6 -23.0 19.0
v 30.0 -23.0 19.5
v 29.8 -22.0 14.0
v 30.0 -22.0 13.8
v 30.0 -22.3 14.0
v 29.5 -22.0 15.0
v 29.5 -22.0 16.0
v 29.5 -22.0 17.0
v 29.5 -22.0 18.0
v 29.6 -22.0 19.0
v 30.0 -22.0 19.5
v 29.8 -21.0 14.0
v 30.0 -21.0 13.7
v 29.6 -21.0 15.0
v 29.6 -21.0 16.0
v 29.6 -21.0 17.0
v 29.6 -21.0 18.0
v 29.8 -21.0 19.0
v 30.0 -21.0 19.3
v 30.0 -20.7 14.0
v 30.0 -20.5 15.0
v 30.0 -20.5 16.0
v 30.0 -20.5 17.0
v 30.0 -20.5 18.0
v 30.0 -20.7 19.0
v 30.8 -28.0 18.0
v 31.0 -28.0 17.6
v 31.0 -28.3 18.0
v 31.0 -28.4 19.0
v 30.6 -28.0 19.0
v 31.0 -28.3 20.0
v 30.8 -28.0 20.0
v 31.0 -28.0 20.3
v 30.9 -27.0 16.0
v 31.0 -27.0 15.9
v 31.0 -27.1 16.0
v 31.0 -27.5 17.0
v 30.5 -27.0 17.0
v 30.4 -27.0 18.0
v 30.5 -27.0 19.0
v 30.6 -27.0 20.0
v 31.0 -27.0 20.5
v 31.0 -26.0 15.5
v 30.4 -26.0 19.0
v 30.6 -26.0 20.0
v 31.0 -26.0 20.5
v 31.0 -25.0 15.5
v 30.3 -25.0 19.0
v 30.6 -25.0 20.0
v 31.0 -25.0 20.6
v 31.0 -24.0 15.4
v 30.4 -24.0 20.0
v 31.0 -24.5 21.0
v 30.7 -24.0 21.0
v 31.0 -24.0 21.4
v 31.0 -23.0 14.6
v 31.0 -23.4 15.0
v 30.4 -23.0 20.0
v 30.6 -23.0 21.0
v 31.0 -23.0 21.5
v 31.0 -22.0 13.7
v 31.0 -22.4 14.0
v 30.4 -22.0 20.0
v 30.6 -22.0 21.0
v 31.0 -22.0 21.5
v 30.9 -21.0 13.0
v 31.0 -21.0 12.9
v 31.0 -21.1 13.0
v 30.4 -21.0 20.0
v 30.6 -21.0 21.0
v 31.0 -21.0 21.5
v 31.0 -20.0 13.0
v 31.0 -20.0 13.0
v 30.4 -20.0 14.0
v 30.4 -20.0 15.0
v 30.4 -20.0 16.0
v 30.4 -20.0 17.0
v 30.4 -20.0 18.0
v 30.4 -20.0 19.0
v 30.6 -20.0 20.0
v 30.8 -20.0 21.0
v 31.0 -20.0 21.3
v 31.0 -20.0 13.0
v 30.7 -19.0 14.0
v 31.0 -19.0 13.7
v 30.5 -19.0 15.0
v 30.5 -19.0 16.0
v 30.5 -19.0 17.0
v 30.5 -19.0 18.0
v 30.6 -19.0 19.0
v 31.0 -19.0 19.6
v 31.0 -19.3 20.0
v 31.0 -19.7 21.0
v 31.0 -18.6 14.0
v 30.7 -18.0 15.0
v 31.0 -18.0 14.6
v 30.6 -18.0 16.0
v 30.6 -18.0 17.0
v 30.6 -18.0 18.0
v 30.7 -18.0 19.0
v 31.0 -18.0 19.3
v 31.0 -17.7 15.0
v 31.0 -17.5 16.0
v 31.0 -17.5 17.0
v 31.0 -17.5 18.0
v 31.0 -17.7 19.0
v 31.8 -29.0 19.0
v 32.0 -29.0 18.8
v 32.0 -29.1 19.0
v 32.0 -29.3 20.0
v 31.6 -29.0 20.0
v 32.0 -29.2 21.0
v 31.8 -29.0 21.0
v 32.0 -29.0 21.3
v 31.8 -28.0 17.0
v 32.0 -28.0 16.9
v 32.0 -28.1 17.0
v 32.0 -28.5 18.0
v 31.5 -28.0 21.0
v 32.0 -28.0 21.5
v 31.2 -27.0 16.0
v 32.0 -27.0 16.3
v 31.5 -27.0 21.0
v 32.0 -27.0 21.6
v 32.0 -26.0 15.6
v 32.0 -26.6 16.0
v 31.4 -26.0 21.0
v 32.0 -26.2 22.0
v 31.9 -26.0 22.0
v 32.0 -26.0 22.1
v 32.0 -25.0 15.5
v 31.4 -25.0 21.0
v 32.0 -25.0 21.8
v 32.0 -25.5 22.0
v 32.0 -24.0 15.5
v 32.0 -24.8 22.0
v 31.5 -24.0 22.0
v 32.0 -24.3 23.0
v 31.8 -24.0 23.0
v 32.0 -24.0 23.2
v 31.5 -23.0 15.0
v 32.0 -23.0 15.4
v 31.4 -23.0 22.0
v 31.8 -23.0 23.0
v 32.0 -23.0 23.2
v 31.5 -22.0 14.0
v 32.0 -22.0 14.5
v 32.0 -22.5 15.0
v 31.5 -22.0 22.0
v 32.0 -22.0 22.6
v 32.0 -22.6 23.0
v 31.1 -21.0 13.0
v 32.0 -21.0 13.5
v 32.0 -21.6 14.0
v 31.5 -21.0 22.0
v 32.0 -21.0 22.5
v 31.0 -20.0 13.0
v 32.0 -20.0 13.4
v 31.7 -20.0 22.0
v 32.0 -20.0 22.3
v 32.0 -19.0 13.5
v 31.3 -19.0 20.0
v 31.5 -19.0 21.0
v 32.0 -19.0 21.6
v 32.0 -19.5 22.0
v 31.5 -18.0 14.0
v 32.0 -18.0 13.6
v 31.4 -18.0 20.0
v 31.6 -18.0 21.0
v 32.0 -18.0 21.5
v 32.0 -17.5 14.0
v 31.6 -17.0 15.0
v 32.0 -17.0 14.5
v 31.4 -17.0 16.0
v 31.4 -17.0 17.0
v 31.4 -17.0 18.0
v 31.4 -17.0 19.0
v 31.5 -17.0 20.0
v 31.7 -17.0 21.0
v 32.0 -17.0 21.3
v 32.0 -16.5 15.0
v 31.9 -16.0 16.0
v 32.0 -16.0 15.9
v 31.8 -16.0 17.0
v 31.6 -16.0 18.0
v 31.6 -16.0 19.0
v 31.7 -16.0 20.0
v 32.0 -16.0 20.5
v 32.0 -16.6 21.0
v 32.0 -15.9 16.0
v 32.0 -15.8 17.0
v 32.0 -15.6 18.0
v 32.0 -15.1 19.0
v 32.0 -15.6 20.0
v 32.2 -29.0 19.0
v 33.0 -29.0 19.6
v 33.0 -29.3 20.0
v 33.0 -29.4 21.0
v 33.0 -29.2 22.0
v 32.8 -29.0 22.0
v 33.0 -29.0 22.2
v 32.2 -28.0 17.0
v 33.0 -28.0 17.6
v 33.0 -28.3 18.0
v 33.0 -28.6 19.0
v 32.5 -28.0 22.0
v 33.0 -28.0 22.4
v 33.0 -27.0 16.6
v 33.0 -27.5 17.0
v 32.4 -27.0 22.0
v 33.0 -27.0 22.5
v 33.0 -26.0 15.7
v 33.0 -26.3 16.0
v 33.0 -26.0 22.7
v 33.0 -25.0 15.5
v 32.1 -25.0 22.0
v 33.0 -25.5 23.0
v 32.6 -25.0 23.0
v 33.0 -25.0 23.3
v 33.0 -24.0 15.7
v 33.0 -24.0 23.5
v 33.0 -23.2 16.0
v 32.9 -23.0 16.0
v 33.0 -23.0 16.1
v 33.0 -23.0 23.5
v 32.6 -22.0 15.0
v 33.0 -22.0 15.3
v 33.0 -22.9 16.0
v 32.4 -22.0 23.0
v 33.0 -22.0 23.4
v 33.0 -21.0 13.8
v 33.0 -21.3 14.0
v 33.0 -21.7 15.0
v 32.6 -21.0 23.0
v 33.0 -21.0 23.3
v 33.0 -20.0 13.5
v 33.0 -20.5 23.0
v 33.0 -20.0 22.7
v 33.0 -19.0 13.4
v 32.4 -19.0 22.0
v 33.0 -19.0 22.5
v 32.7 -18.0 13.0
v 33.0 -18.0 12.8
v 33.0 -18.3 13.0
v 32.5 -18.0 22.0
v 33.0 -18.0 22.5
v 32.6 -17.0 13.0
v 33.0 -17.0 12.7
v 32.3 -17.0 14.0
v 32.6 -17.0 22.0
v 33.0 -17.0 22.4
v 32.8 -16.0 13.0
v 33.0 -16.0 12.8
v 32.7 -16.0 14.0
v 32.8 -16.0 15.0
v 33.0 -16.0 15.3
v 33.0 -16.3 16.0
v 32.1 -16.0 16.0
v 32.4 -16.0 17.0
v 33.0 -16.3 17.0
v 33.0 -16.0 17.5
v 32.4 -16.0 21.0
v 33.0 -16.0 21.6
v 33.0 -16.5 22.0
v 33.0 -15.8 13.0
v 33.0 -15.7 14.0
v 33.0 -15.9 15.0
v 33.0 -15.7 18.0
v 33.0 -15.3 19.0
v 32.5 -15.0 20.0
v 33.0 -15.0 19.4
v 32.7 -15.0 21.0
v 33.0 -15.0 21.3
v 32.9 -14.0 20.0
v 33.0 -14.0 19.9
v 33.0 -14.0 20.1
v 33.0 -14.6 21.0
v 33.0 -13.9 20.0
v 33.3 -29.0 20.0
v 33.5 -29.0 21.0
v 34.0 -29.0 22.0
v 34.0 -29.0 22.0
v 34.0 -29.0 22.0
v 33.3 -28.0 18.0
v 33.7 -28.0 19.0
v 34.0 -28.0 19.4
v 34.0 -28.5 20.0
v 34.0 -28.6 21.0
v 34.0 -28.0 22.4
v 33.5 -27.0 17.0
v 34.0 -27.0 17.6
v 34.0 -27.4 18.0
v 34.0 -27.7 19.0
v 34.0 -27.1 23.0
v 33.9 -27.0 23.0
v 34.0 -27.0 23.1
v 33.4 -26.0 16.0
v 34.0 -26.0 16.5
v 34.0 -26.5 17.0
v 33.5 -26.0 23.0
v 34.0 -26.0 23.3
v 34.0 -25.0 15.9
v 34.0 -25.2 16.0
v 34.0 -25.0 23.5
v 34.0 -24.7 16.0
v 33.5 -24.0 16.0
v 34.0 -24.0 16.3
v 34.0 -24.0 23.6
v 34.0 -23.0 16.4
v 34.0 -23.0 23.6
v 34.0 -22.0 15.5
v 34.0 -22.6 16.0
v 34.0 -22.0 23.5
v 33.4 -21.0 14.0
v 34.0 -21.0 14.5
v 34.0 -21.4 15.0
v 34.0 -21.0 23.5
v 34.0 -20.0 13.6
v 34.0 -20.5 14.0
v 33.4 -20.0 23.0
v 34.0 -20.0 23.4
v 34.0 -19.0 13.4
v 33.5 -19.0 23.0
v 34.0 -19.0 23.4
v 34.0 -18.0 12.7
v 34.0 -18.4 13.0
v 33.5 -18.0 23.0
v 34.0 -18.0 23.4
v 34.0 -17.0 12.5
v 33.7 -17.0 23.0
v 34.0 -17.0 23.3
v 34.0 -16.0 12.6
v 33.3 -16.0 15.0
v 34.0 -16.3 15.0
v 34.0 -16.0 14.5
v 34.0 -16.5 16.0
v 34.0 -16.5 17.0
v 33.5 -16.0 18.0
v 34.0 -16.3 18.0
v 34.0 -16.0 18.5
v 33.4 -16.0 22.0
v 34.0 -16.0 22.6
v 34.0 -16.6 23.0
v 34.0 -15.2 13.0
v 34.0 -15.6 14.0
v 34.0 -15.6 19.0
v 34.0 -15.0 19.4
v 33.7 -15.0 22.0
v 34.0 -15.0 22.3
v 34.0 -14.0 19.7
v 33.8 -14.0 21.0
v 34.0 -14.0 21.2
v 34.0 -14.7 22.0
v 34.0 -13.4 20.0
v 34.0 -13.8 21.0
v 34.0 -29.0 22.0
v 35.0 -28.0 19.9
v 35.0 -28.1 20.0
v 34.7 -28.0 21.0
v 35.0 -28.0 20.2
v 34.5 -28.0 22.0
v 34.4 -27.0 18.0
v 34.7 -27.0 19.0
v 35.0 -27.0 19.2
v 35.0 -27.7 21.0
v 35.0 -27.5 22.0
v 34.1 -27.0 23.0
v 35.0 -27.0 22.5
v 34.6 -26.0 17.0
v 35.0 -26.0 17.4
v 35.0 -26.5 18.0
v 35.0 -26.8 19.0
v 34.5 -26.0 23.0
v 35.0 -26.0 22.7
v 34.3 -25.0 16.0
v 35.0 -25.0 16.4
v 35.0 -25.6 17.0
v 35.0 -25.7 23.0
v 35.0 -25.0 23.5
v 35.0 -24.0 16.3
v 35.0 -24.3 24.0
v 34.7 -24.0 24.0
v 35.0 -24.0 24.2
v 35.0 -23.0 16.2
v 34.6 -23.0 24.0
v 35.0 -23.0 24.3
v 35.0 -22.0 15.6
v 35.0 -22.7 16.0
v 35.0 -22.5 24.0
v 35.0 -22.0 23.7
v 34.6 -21.0 15.0
v 35.0 -21.0 15.2
v 35.0 -21.0 23.5
v 35.0 -20.0 13.8
v 35.0 -20.3 14.0
v 35.0 -20.7 15.0
v 35.0 -20.0 23.5
v 35.0 -19.0 13.5
v 35.0 -19.0 23.5
v 34.5 -18.0 13.0
v 35.0 -18.0 13.3
v 35.0 -18.0 23.5
v 35.0 -17.0 12.8
v 35.0 -17.4 13.0
v 35.0 -17.0 23.5
v 35.0 -16.0 12.9
v 34.5 -16.0 14.0
v 35.0 -16.3 14.0
v 35.0 -16.0 13.1
v 35.0 -16.5 15.0
v 35.0 -16.6 16.0
v 35.0 -16.6 17.0
v 35.0 -16.6 18.0
v 34.6 -16.0 19.0
v 35.0 -16.3 19.0
v 35.0 -16.0 19.2
v 34.6 -16.0 23.0
v 35.0 -16.0 23.3
v 35.0 -15.9 13.0
v 35.0 -15.0 19.6
v 35.0 -15.7 23.0
v 35.0 -15.0 22.3
v 35.0 -14.5 20.0
v 34.4 -14.0 20.0
v 34.2 -14.0 21.0
v 35.0 -14.4 21.0
v 35.0 -14.7 22.0
v 35.1 -28.0 20.0
v 36.0 -27.0 19.4
v 36.0 -27.5 20.0
v 36.0 -27.4 21.0
v 36.0 -27.2 22.0
v 36.0 -27.0 22.2
v 36.0 -26.0 17.5
v 36.0 -26.4 18.0
v 36.0 -26.7 19.0
v 36.0 -26.0 22.6
v 35.9 -25.0 16.0
v 36.0 -25.0 15.9
v 36.0 -25.1 16.0
v 36.0 -25.5 17.0
v 36.0 -25.5 23.0
v 36.0 -25.0 23.6
v 35.4 -24.0 16.0
v 36.0 -24.0 15.3
v 36.0 -24.6 24.0
v 36.0 -24.0 24.4
v 35.4 -23.0 16.0
v 36.0 -23.0 15.7
v 36.0 -23.0 24.5
v 36.0 -22.0 15.6
v 35.7 -22.0 24.0
v 36.0 -22.0 24.2
v 36.0 -21.0 15.5
v 36.0 -21.8 24.0
v 36.0 -21.0 23.6
v 35.4 -20.0 14.0
v 36.0 -20.0 14.4
v 36.0 -20.5 15.0
v 36.0 -20.0 23.6
v 36.0 -19.0 13.6
v 36.0 -19.6 14.0
v 36.0 -19.0 23.6
v 36.0 -18.0 13.5
v 36.0 -18.0 23.6
v 35.3 -17.0 13.0
v 36.0 -17.0 13.7
v 35.6 -17.0 16.0
v 36.0 -17.4 16.0
v 36.0 -17.0 15.5
v 35.5 -17.0 17.0
v 36.0 -17.5 17.0
v 35.6 -17.0 18.0
v 36.0 -17.3 18.0
v 36.0 -17.0 18.5
v 36.0 -17.0 23.6
v 35.1 -16.0 13.0
v 36.0 -16.7 14.0
v 36.0 -16.7 15.0
v 36.0 -16.6 19.0
v 36.0 -16.0 19.4
v 36.0 -16.0 23.5
v 36.0 -15.0 19.7
v 35.5 -15.0 22.0
v 36.0 -15.3 22.0
v 36.0 -15.0 21.6
v 36.0 -15.6 23.0
v 36.0 -14.7 20.0
v 36.0 -14.6 21.0
v 36.9 -27.0 19.0
v 37.0 -27.0 18.9
v 37.0 -27.1 19.0
v 37.0 -27.2 20.0
v 36.6 -27.0 21.0
v 37.0 -27.0 20.4
v 36.3 -27.0 22.0
v 37.0 -26.0 17.8
v 37.0 -26.3 18.0
v 37.0 -26.6 21.0
v 37.0 -26.3 22.0
v 37.0 -26.0 22.3
v 36.1 -25.0 16.0
v 36.5 -25.0 17.0
v 37.0 -25.0 17.5
v 37.0 -25.5 23.0
v 37.0 -25.2 24.0
v 36.6 -25.0 24.0
v 37.0 -25.0 24.2
v 36.9 -24.0 16.0
v 36.9 -24.0 17.0
v 37.0 -24.0 17.1
v 37.0 -24.0 24.5
v 36.5 -23.0 16.0
v 37.0 -23.0 16.5
v 37.0 -23.8 17.0
v 37.0 -23.0 24.4
v 36.5 -22.0 16.0
v 37.0 -22.0 16.5
v 36.6 -22.0 24.0
v 37.0 -22.2 24.0
v 37.0 -22.0 23.9
v 36.7 -21.0 16.0
v 37.0 -21.0 16.3
v 37.0 -21.0 23.8
v 37.0 -20.0 14.7
v 37.0 -20.3 15.0
v 37.0 -20.7 16.0
v 37.0 -20.5 24.0
v 36.6 -20.0 24.0
v 37.0 -20.0 24.3
v 37.0 -19.0 13.8
v 37.0 -19.3 14.0
v 36.5 -19.0 24.0
v 37.0 -19.0 24.4
v 37.0 -18.0 13.8
v 36.6 -18.0 16.0
v 37.0 -18.4 16.0
v 37.0 -18.0 15.5
v 36.6 -18.0 17.0
v 37.0 -18.3 17.0
v 37.0 -18.0 17.5
v 36.5 -18.0 24.0
v 37.0 -18.0 24.4
v 37.0 -17.7 14.0
v 36.3 -17.0 14.0
v 36.3 -17.0 15.0
v 37.0 -17.6 15.0
v 37.0 -17.7 18.0
v 36.5 -17.0 19.0
v 37.0 -17.4 19.0
v 37.0 -17.0 19.7
v 36.5 -17.0 24.0
v 37.0 -17.0 24.4
v 37.0 -16.0 19.7
v 36.7 -16.0 24.0
v 37.0 -16.0 24.2
v 37.0 -15.0 19.8
v 37.0 -15.4 22.0
v 37.0 -15.0 21.5
v 37.0 -15.5 23.0
v 37.0 -15.8 24.0
v 37.0 -14.8 20.0
v 37.0 -14.7 21.0
v 37.1 -27.0 19.0
v 37.2 -27.0 20.0
v 37.2 -26.0 18.0
v 37.6 -26.0 19.0
v 37.6 -26.0 20.0
v 37.5 -26.0 21.0
v 37.3 -26.0 22.0
v 37.6 -25.0 18.0
v 38.0 -25.0 18.6
v 38.0 -25.4 19.0
v 38.0 -25.5 20.0
v 38.0 -25.4 21.0
v 38.0 -25.0 21.6
v 37.7 -25.0 22.0
v 37.6 -25.0 23.0
v 38.0 -25.0 24.0
v 38.0 -25.0 24.0
v 38.0 -25.0 24.0
v 38.0 -24.0 17.9
v 38.0 -24.2 18.0
v 38.0 -24.7 22.0
v 38.0 -24.6 23.0
v 38.0 -24.0 24.3
v 37.3 -23.0 17.0
v 38.0 -23.5 18.0
v 37.9 -23.0 18.0
v 38.0 -23.0 18.1
v 38.0 -23.0 24.4
v 37.6 -22.0 17.0
v 38.0 -22.0 17.5
v 38.0 -22.8 18.0
v 37.2 -22.0 24.0
v 38.0 -22.0 24.4
v 38.0 -21.0 16.7
v 38.0 -21.5 17.0
v 37.3 -21.0 24.0
v 38.0 -21.0 24.4
v 37.3 -20.0 15.0
v 37.6 -20.0 16.0
v 38.0 -20.0 16.4
v 38.0 -20.0 24.5
v 37.3 -19.0 14.0
v 37.9 -19.0 15.0
v 37.6 -19.0 16.0
v 38.0 -19.0 16.6
v 38.0 -19.0 24.5
v 37.2 -18.0 14.0
v 37.3 -18.0 15.0
v 38.0 -18.7 17.0
v 37.5 -18.0 18.0
v 38.0 -18.4 18.0
v 38.0 -18.0 18.5
v 38.0 -18.0 24.5
v 38.0 -17.6 19.0
v 38.0 -17.0 19.6
v 38.0 -17.0 24.5
v 38.0 -16.2 20.0
v 37.7 -16.0 20.0
v 38.0 -16.0 20.1
v 38.0 -16.0 24.3
v 37.3 -15.0 20.0
v 38.0 -15.0 20.8
v 38.0 -15.4 22.0
v 38.0 -15.0 21.2
v 38.0 -15.5 23.0
v 38.0 -15.7 24.0
v 38.0 -14.9 21.0
v 38.3 -25.0 19.0
v 38.5 -25.0 20.0
v 38.4 -25.0 21.0
v 38.0 -25.0 24.0
v 38.1 -24.0 18.0
v 38.7 -24.0 19.0
v 39.0 -24.0 19.5
v 39.0 -24.4 20.0
v 39.0 -24.4 21.0
v 39.0 -24.3 22.0
v 38.6 -24.0 23.0
v 39.0 -24.0 22.4
v 38.3 -24.0 24.0
v 39.0 -23.4 19.0
v 39.0 -23.0 18.7
v 39.0 -23.5 23.0
v 39.0 -23.0 23.5
v 38.5 -23.0 24.0
v 38.6 -22.0 18.0
v 39.0 -22.0 18.4
v 39.0 -22.5 24.0
v 39.0 -22.0 24.3
v 38.5 -21.0 17.0
v 39.0 -21.0 17.4
v 39.0 -21.6 18.0
v 39.0 -21.0 24.5
v 39.0 -20.0 16.9
v 39.0 -20.2 17.0
v 39.0 -20.0 24.5
v 39.0 -19.8 17.0
v 38.4 -19.0 17.0
v 38.8 -19.0 18.0
v 39.0 -19.1 18.0
v 39.0 -19.0 18.1
v 39.0 -19.0 24.5
v 38.7 -18.0 19.0
v 39.0 -18.2 19.0
v 39.0 -18.0 19.1
v 39.0 -18.0 24.5
v 39.0 -17.0 19.5
v 39.0 -17.0 24.5
v 38.2 -16.0 20.0
v 39.0 -16.0 19.6
v 39.0 -16.0 24.3
v 39.0 -15.3 20.0
v 39.0 -15.4 21.0
v 38.2 -15.0 21.0
v 39.0 -15.5 22.0
v 39.0 -15.5 23.0
v 39.0 -15.7 24.0
v 39.3 -24.0 20.0
v 39.4 -24.0 21.0
v 39.2 -24.0 22.0
v 39.3 -23.0 19.0
v 39.6 -23.0 20.0
v 39.6 -23.0 21.0
v 39.6 -23.0 22.0
v 39.4 -23.0 23.0
v 39.6 -22.0 19.0
v 40.0 -22.0 19.5
v 40.0 -22.4 20.0
v 40.0 -22.5 21.0
v 40.0 -22.5 22.0
v 40.0 -22.4 23.0
v 39.4 -22.0 24.0
v 40.0 -22.0 23.4
v 40.0 -21.0 18.0
v 40.0 -21.0 18.0
v 40.0 -21.6 19.0
v 40.0 -21.4 24.0
v 40.0 -21.0 24.3
v 39.2 -20.0 17.0
v 40.0 -20.9 18.0
v 39.8 -20.0 18.0
v 40.0 -20.0 18.2
v 40.0 -20.0 24.5
v 39.4 -19.0 18.0
v 40.0 -19.0 17.3
v 40.0 -19.5 18.0
v 40.0 -19.0 24.5
v 40.0 -18.7 18.0
v 39.2 -18.0 19.0
v 40.0 -18.0 18.5
v 40.0 -18.0 24.5
v 40.0 -17.4 19.0
v 40.0 -17.0 19.3
v 40.0 -17.0 24.5
v 40.0 -16.0 19.6
v 40.0 -16.0 24.2
v 40.0 -15.6 20.0
v 40.0 -15.5 21.0
v 40.0 -15.6 22.0
v 40.0 -15.6 23.0
v 40.0 -15.8 24.0
v 40.3 -22.0 20.0
v 40.5 -22.0 21.0
v 40.5 -22.0 22.0
v 40.4 -22.0 23.0
v 40.0 -21.0 18.0
v 40.4 -21.0 19.0
v 40.7 -21.0 20.0
v 41.0 -21.0 20.5
v 41.0 -21.4 21.0
v 41.0 -21.5 22.0
v 41.0 -21.4 23.0
v 40.4 -21.0 24.0
v 41.0 -21.0 23.4
v 40.6 -20.0 19.0
v 41.0 -20.0 19.5
v 41.0 -20.5 20.0
v 41.0 -20.4 24.0
v 41.0 -20.0 24.3
v 40.2 -19.0 18.0
v 41.0 -19.0 18.6
v 41.0 -19.5 19.0
v 41.0 -19.0 24.4
v 41.0 -18.1 18.0
v 40.9 -18.0 18.0
v 41.0 -18.0 17.9
v 41.0 -18.0 24.4
v 41.0 -17.4 18.0
v 40.4 -17.0 19.0
v 41.0 -17.0 18.1
v 41.0 -17.0 24.2
v 41.0 -16.6 19.0
v 41.0 -16.0 19.7
v 40.6 -16.0 22.0
v 41.0 -16.4 22.0
v 41.0 -16.0 21.4
v 40.5 -16.0 23.0
v 41.0 -16.4 23.0
v 40.3 -16.0 24.0
v 41.0 -16.7 24.0
v 41.0 -15.8 20.0
v 41.0 -15.8 21.0
v 41.4 -21.0 21.0
v 41.5 -21.0 22.0
v 41.4 -21.0 23.0
v 41.4 -20.0 20.0
v 42.0 -20.0 20.7
v 42.0 -20.3 21.0
v 42.0 -20.5 22.0
v 42.0 -20.3 23.0
v 41.3 -20.0 24.0
v 42.0 -20.0 23.3
v 41.3 -19.0 19.0
v 41.7 -19.0 20.0
v 42.0 -19.0 20.4
v 41.5 -19.0 24.0
v 42.0 -19.0 23.5
v 41.1 -18.0 18.0
v 41.6 -18.0 19.0
v 42.0 -18.0 19.5
v 42.0 -18.5 20.0
v 41.5 -18.0 24.0
v 42.0 -18.0 23.4
v 42.0 -17.1 19.0
v 42.0 -17.0 18.9
v 41.7 -17.0 21.0
v 42.0 -17.4 21.0
v 42.0 -17.0 20.4
v 41.6 -17.0 22.0
v 42.0 -17.4 22.0
v 42.0 -17.0 22.9
v 41.3 -17.0 24.0
v 42.0 -17.0 23.1
v 42.0 -16.9 19.0
v 41.3 -16.0 20.0
v 42.0 -16.7 20.0
v 41.3 -16.0 21.0
v 42.0 -16.9 23.0
v 42.2 -20.0 21.0
v 42.4 -20.0 22.0
v 42.2 -20.0 23.0
v 42.4 -19.0 21.0
v 42.5 -19.0 22.0
v 42.4 -19.0 23.0
v 42.3 -18.0 20.0
v 42.4 -18.0 21.0
v 42.4 -18.0 22.0
v 42.4 -18.0 23.0
v 42.1 -17.0 19.0
v 42.2 -17.0 20.0
v 42.1 -17.0 23.0
f 3 2 1
f 5 4 1
f 1 4 3
f 7 6 5
f 5 6 4
f 7 8 6
f 1 2 9
f 9 2 10
f 1 11 5
f 1 9 11
f 5 12 7
f 5 11 12
f 8 7 13
f 13 7 12
f 9 10 14
f 14 10 15
f 9 16 11
f 9 14 16
f 11 17 12
f 11 16 17
f 13 12 18
f 12 19 18
f 12 17 19
f 19 20 18
f 23 22 21
f 23 21 15
f 21 14 15
f 21 24 14
f 14 25 16
f 14 24 25
f 16 26 17
f 16 25 26
f 17 27 19
f 17 26 27
f 20 19 28
f 28 19 27
f 31 30 29
f 31 29 22
f 29 21 22
f 29 32 21
f 21 33 24
f 21 32 33
f 24 34 25
f 24 33 34
f 25 35 26
f 25 34 35
f 26 36 27
f 26 35 36
f 28 27 37
f 37 27 36
f 29 30 38
f 38 30 39
f 29 40 32
f 29 38 40
f 32 41 33
f 32 40 41
f 33 42 34
f 33 41 42
f 34 43 35
f 34 42 43
f 35 44 36
f 35 43 44
f 37 36 45
f 45 36 44
f 39 46 38
f 38 46 40
f 40 46 47
f 40 47 41
f 41 47 48
f 41 48 42
f 42 48 49
f 42 49 43
f 43 49 50
f 43 50 44
f 44 50 51
f 44 51 45
f 54 53 52
f 56 55 52
f 52 55 54
f 58 57 56
f 56 57 55
f 58 59 57
f 62 61 60
f 64 63 60
f 60 63 62
f 63 64 53
f 64 52 53
f 64 65 52
f 52 66 56
f 52 65 66
f 56 67 58
f 56 66 67
f 59 58 68
f 68 58 67
f 60 61 3
f 61 2 3
f 61 69 2
f 60 3 4
f 60 4 64
f 64 4 6
f 64 6 65
f 65 6 8
f 70 65 8
f 66 65 70
f 66 71 67
f 66 70 71
f 68 67 72
f 72 67 71
f 69 10 2
f 73 10 69
f 13 74 70
f 13 70 8
f 70 75 71
f 70 74 75
f 72 71 76
f 76 71 75
f 73 15 10
f 77 15 73
f 18 74 13
f 74 18 20
f 78 74 20
f 75 74 78
f 76 75 79
f 75 80 79
f 75 78 80
f 80 81 79
f 83 82 23
f 23 82 22
f 23 15 77
f 23 77 83
f 28 84 78
f 28 78 20
f 78 85 80
f 78 84 85
f 81 80 86
f 86 80 85
f 88 87 31
f 31 87 30
f 31 22 82
f 31 82 88
f 37 89 84
f 37 84 28
f 84 90 85
f 84 89 90
f 86 85 91
f 91 85 90
f 94 93 92
f 87 94 92
f 39 87 92
f 30 87 39
f 45 95 89
f 45 89 37
f 89 96 90
f 89 95 96
f 91 90 97
f 97 90 96
f 92 93 98
f 98 93 99
f 100 46 39
f 92 100 39
f 98 100 92
f 101 47 46
f 101 46 100
f 102 48 47
f 102 47 101
f 103 49 48
f 103 48 102
f 104 50 49
f 104 49 103
f 105 51 50
f 105 50 104
f 95 45 51
f 105 95 51
f 106 95 105
f 95 107 96
f 95 106 107
f 97 96 108
f 108 96 107
f 99 109 98
f 111 110 109
f 110 98 109
f 110 100 98
f 100 112 101
f 100 110 112
f 101 113 102
f 101 112 113
f 102 114 103
f 102 113 114
f 103 115 104
f 103 114 115
f 104 116 105
f 104 115 116
f 118 106 117
f 106 116 117
f 106 105 116
f 106 118 107
f 107 118 119
f 107 119 108
f 111 120 110
f 122 121 120
f 121 110 120
f 121 112 110
f 112 123 113
f 112 121 123
f 113 124 114
f 113 123 124
f 114 125 115
f 114 124 125
f 115 126 116
f 115 125 126
f 117 116 127
f 127 116 126
f 122 128 121
f 121 128 123
f 123 128 129
f 123 129 124
f 124 129 130
f 124 130 125
f 125 130 131
f 125 131 126
f 126 131 132
f 126 132 127
f 135 134 133
f 137 136 133
f 133 136 135
f 139 138 137
f 137 138 136
f 139 140 138
f 143 142 141
f 53 54 141
f 54 143 141
f 54 144 143
f 55 133 134
f 144 55 134
f 54 55 144
f 133 55 57
f 133 57 137
f 137 57 59
f 145 137 59
f 139 137 145
f 140 139 146
f 146 139 145
f 147 61 62
f 142 148 141
f 148 62 141
f 62 63 141
f 62 148 147
f 141 63 53
f 68 149 145
f 68 145 59
f 146 145 150
f 150 145 149
f 152 151 147
f 151 61 147
f 151 69 61
f 152 147 148
f 72 153 149
f 72 149 68
f 150 149 154
f 149 155 154
f 149 153 155
f 155 156 154
f 151 73 69
f 157 73 151
f 76 158 153
f 76 153 72
f 160 155 159
f 155 158 159
f 155 153 158
f 155 160 156
f 157 77 73
f 161 77 157
f 79 158 76
f 163 162 81
f 81 162 79
f 162 159 79
f 159 158 79
f 165 164 163
f 163 164 162
f 165 166 164
f 167 82 83
f 168 167 83
f 77 168 83
f 161 168 77
f 86 169 163
f 86 163 81
f 163 170 165
f 163 169 170
f 166 165 171
f 171 165 170
f 172 87 88
f 173 172 88
f 173 88 82
f 174 173 82
f 167 174 82
f 174 167 168
f 91 175 169
f 91 169 86
f 177 170 176
f 170 175 176
f 170 169 175
f 170 177 171
f 178 93 94
f 179 178 94
f 179 94 87
f 180 179 87
f 172 180 87
f 180 172 173
f 97 181 175
f 97 175 91
f 176 175 182
f 182 175 181
f 183 99 178
f 178 99 93
f 178 179 184
f 178 184 183
f 108 185 181
f 108 181 97
f 182 181 186
f 186 181 185
f 183 109 99
f 111 109 183
f 184 111 183
f 187 111 184
f 117 188 118
f 189 119 118
f 189 118 188
f 189 190 119
f 119 190 108
f 190 191 108
f 191 185 108
f 185 191 186
f 120 111 192
f 111 193 192
f 111 187 193
f 192 122 120
f 127 194 188
f 127 188 117
f 188 195 189
f 188 194 195
f 190 189 196
f 196 189 195
f 193 197 192
f 197 199 198
f 197 198 128
f 192 197 128
f 122 192 128
f 200 129 128
f 200 128 198
f 201 130 129
f 201 129 200
f 202 131 130
f 202 130 201
f 203 132 131
f 203 131 202
f 194 127 132
f 203 194 132
f 204 194 203
f 194 205 195
f 194 204 205
f 196 195 206
f 206 195 205
f 199 207 198
f 209 208 207
f 208 198 207
f 208 200 198
f 200 210 201
f 200 208 210
f 201 211 202
f 201 210 211
f 202 212 203
f 202 211 212
f 203 213 204
f 203 212 213
f 215 205 214
f 205 213 214
f 205 204 213
f 205 215 206
f 209 216 208
f 208 216 210
f 210 216 217
f 210 217 211
f 211 217 218
f 211 218 212
f 212 218 219
f 212 219 213
f 213 219 220
f 213 220 214
f 221 134 135
f 221 135 222
f 135 223 222
f 135 136 223
f 224 136 138
f 224 223 136
f 226 225 140
f 225 138 140
f 225 224 138
f 226 227 225
f 228 142 143
f 228 143 229
f 143 230 229
f 143 144 230
f 144 134 221
f 231 144 221
f 230 144 231
f 231 221 222
f 146 232 226
f 146 226 140
f 227 226 233
f 233 226 232
f 235 234 228
f 234 142 228
f 234 148 142
f 235 228 229
f 150 236 232
f 150 232 146
f 233 232 237
f 237 232 236
f 239 238 152
f 152 238 151
f 152 148 234
f 152 234 239
f 154 236 150
f 154 156 236
f 156 237 236
f 156 240 237
f 238 157 151
f 241 157 238
f 159 242 160
f 240 156 243
f 156 242 243
f 242 244 243
f 156 160 242
f 244 245 243
f 241 161 157
f 246 161 241
f 162 242 159
f 242 162 164
f 242 164 244
f 164 166 244
f 166 245 244
f 166 247 245
f 249 168 248
f 168 246 248
f 168 161 246
f 250 249 248
f 171 247 166
f 171 251 247
f 252 173 174
f 253 252 174
f 253 174 168
f 254 253 168
f 249 254 168
f 254 249 250
f 176 255 177
f 255 256 177
f 256 171 177
f 256 251 171
f 258 257 180
f 180 257 179
f 180 173 252
f 259 180 252
f 258 180 259
f 259 252 253
f 182 260 255
f 182 255 176
f 256 255 261
f 261 255 260
f 257 184 179
f 262 184 257
f 264 263 260
f 182 264 260
f 186 264 182
f 260 263 261
f 262 187 184
f 265 187 262
f 190 266 191
f 266 267 191
f 267 186 191
f 267 264 186
f 270 269 268
f 265 270 268
f 193 265 268
f 187 265 193
f 196 271 266
f 196 266 190
f 267 266 272
f 272 266 271
f 268 269 273
f 273 269 274
f 275 197 193
f 268 275 193
f 273 275 268
f 275 199 197
f 206 276 271
f 206 271 196
f 272 271 277
f 277 271 276
f 273 274 278
f 278 274 279
f 273 280 275
f 273 278 280
f 281 207 199
f 275 281 199
f 280 281 275
f 283 281 282
f 283 207 281
f 283 284 209
f 207 283 209
f 286 285 284
f 286 284 283
f 287 285 286
f 214 288 215
f 288 289 215
f 215 289 206
f 289 290 206
f 290 276 206
f 276 290 277
f 279 291 278
f 278 291 280
f 280 291 292
f 280 292 281
f 281 292 293
f 284 216 209
f 293 282 281
f 216 284 217
f 217 284 285
f 287 294 285
f 294 217 285
f 294 218 217
f 218 295 219
f 294 295 218
f 295 297 296
f 220 295 296
f 219 295 220
f 288 214 220
f 296 288 220
f 298 288 296
f 289 288 299
f 299 288 298
f 296 297 300
f 300 297 301
f 303 298 302
f 298 300 302
f 298 296 300
f 298 303 299
f 301 304 300
f 300 304 302
f 305 222 223
f 224 306 223
f 223 306 305
f 306 224 307
f 224 308 307
f 224 225 308
f 225 227 308
f 308 227 309
f 310 229 230
f 231 311 230
f 230 311 310
f 312 311 231
f 312 231 222
f 313 312 222
f 305 313 222
f 313 305 306
f 313 306 314
f 314 306 307
f 233 309 227
f 233 315 309
f 316 234 235
f 317 316 235
f 317 235 229
f 318 317 229
f 310 318 229
f 318 310 311
f 318 311 319
f 319 311 312
f 237 321 320
f 315 237 320
f 233 237 315
f 321 322 320
f 323 238 239
f 324 323 239
f 324 239 234
f 325 324 234
f 316 325 234
f 325 316 317
f 240 326 321
f 240 321 237
f 322 321 327
f 327 321 326
f 329 328 323
f 328 238 323
f 328 241 238
f 329 323 324
f 243 326 240
f 243 245 326
f 245 327 326
f 245 330 327
f 332 246 331
f 246 328 331
f 246 241 328
f 333 332 331
f 247 330 245
f 247 334 330
f 332 248 246
f 250 248 332
f 333 250 332
f 335 250 333
f 251 334 247
f 251 336 334
f 338 337 254
f 254 337 253
f 254 250 335
f 254 335 338
f 256 336 251
f 256 339 336
f 340 257 258
f 340 258 341
f 258 342 341
f 258 259 342
f 259 253 337
f 259 337 342
f 261 339 256
f 261 343 339
f 345 344 340
f 344 257 340
f 344 262 257
f 345 340 341
f 264 346 263
f 346 347 263
f 347 261 263
f 347 343 261
f 344 265 262
f 348 265 344
f 267 349 346
f 267 346 264
f 347 346 350
f 350 346 349
f 352 351 270
f 270 351 269
f 270 265 348
f 270 348 352
f 272 353 349
f 272 349 267
f 350 349 354
f 354 349 353
f 351 274 269
f 355 274 351
f 277 356 353
f 277 353 272
f 354 353 357
f 357 353 356
f 355 279 274
f 358 279 355
f 361 360 359
f 283 282 359
f 360 283 359
f 362 283 360
f 283 363 286
f 362 363 283
f 365 364 287
f 286 365 287
f 363 365 286
f 366 364 365
f 289 367 290
f 367 368 290
f 290 368 277
f 368 369 277
f 369 356 277
f 356 369 357
f 358 370 279
f 279 370 291
f 291 371 292
f 370 371 291
f 359 293 361
f 293 371 361
f 293 292 371
f 293 359 282
f 364 294 287
f 366 372 364
f 372 294 364
f 372 295 294
f 297 295 372
f 297 372 373
f 299 374 367
f 299 367 289
f 368 367 375
f 375 367 374
f 373 301 297
f 376 301 373
f 302 377 303
f 377 378 303
f 303 378 299
f 378 379 299
f 379 374 299
f 374 379 375
f 376 380 301
f 301 380 304
f 302 304 377
f 304 381 377
f 304 380 381
f 377 381 378
f 382 307 308
f 309 382 308
f 384 383 313
f 313 383 312
f 386 384 385
f 384 314 385
f 384 313 314
f 307 382 314
f 382 385 314
f 382 387 385
f 315 387 309
f 309 387 382
f 388 317 318
f 319 389 318
f 318 389 388
f 390 389 319
f 312 390 319
f 383 390 312
f 391 386 385
f 391 385 387
f 391 387 392
f 394 392 393
f 393 392 320
f 392 387 320
f 387 315 320
f 322 393 320
f 395 324 325
f 396 395 325
f 396 325 317
f 397 396 317
f 388 397 317
f 397 388 389
f 397 389 398
f 398 389 390
f 394 393 399
f 394 399 400
f 327 399 322
f 322 399 393
f 401 328 329
f 402 401 329
f 402 329 324
f 403 402 324
f 395 403 324
f 403 395 396
f 404 400 399
f 399 327 404
f 327 405 404
f 327 330 405
f 401 331 328
f 333 331 401
f 402 333 401
f 406 333 402
f 334 408 407
f 405 334 407
f 330 334 405
f 408 409 407
f 406 335 333
f 410 335 406
f 336 411 408
f 336 408 334
f 409 408 412
f 412 408 411
f 414 413 338
f 338 413 337
f 338 335 410
f 338 410 414
f 416 415 411
f 336 416 411
f 339 416 336
f 411 415 412
f 417 341 342
f 418 417 342
f 337 418 342
f 413 418 337
f 343 416 339
f 343 419 416
f 421 420 345
f 345 420 344
f 345 341 417
f 422 345 417
f 421 345 422
f 422 417 418
f 347 419 343
f 347 423 419
f 420 348 344
f 424 348 420
f 350 423 347
f 350 425 423
f 426 351 352
f 427 426 352
f 348 427 352
f 424 427 348
f 354 425 350
f 354 428 425
f 430 429 426
f 429 351 426
f 429 355 351
f 430 426 427
f 357 428 354
f 357 431 428
f 429 358 355
f 432 358 429
f 435 434 433
f 360 361 433
f 434 360 433
f 436 360 434
f 360 437 362
f 436 437 360
f 362 438 363
f 437 438 362
f 363 439 365
f 438 439 363
f 441 440 366
f 365 441 366
f 439 441 365
f 442 440 441
f 368 443 369
f 443 444 369
f 444 357 369
f 444 431 357
f 432 445 358
f 358 445 370
f 433 371 435
f 371 445 435
f 371 370 445
f 371 433 361
f 440 372 366
f 373 372 440
f 442 373 440
f 446 373 442
f 448 447 443
f 368 448 443
f 375 448 368
f 443 447 444
f 450 376 449
f 376 446 449
f 376 373 446
f 452 451 450
f 452 450 449
f 379 378 451
f 452 379 451
f 453 379 452
f 375 379 448
f 448 379 453
f 450 380 376
f 380 450 381
f 381 450 451
f 381 451 378
f 454 383 384
f 386 454 384
f 456 455 454
f 455 383 454
f 455 390 383
f 456 454 386
f 391 456 386
f 457 456 391
f 458 391 392
f 458 457 391
f 392 394 458
f 458 394 459
f 461 460 397
f 397 460 396
f 462 397 398
f 462 461 397
f 398 390 455
f 398 455 462
f 400 459 394
f 400 463 459
f 466 465 464
f 402 403 464
f 403 466 464
f 403 467 466
f 403 396 460
f 403 460 467
f 468 463 400
f 468 400 404
f 404 405 468
f 468 405 469
f 464 465 470
f 470 465 471
f 470 406 402
f 470 402 464
f 472 469 405
f 472 405 407
f 407 409 472
f 472 409 473
f 470 471 474
f 474 471 475
f 474 410 406
f 474 406 470
f 412 473 409
f 412 476 473
f 474 475 414
f 475 413 414
f 475 477 413
f 474 414 410
f 416 478 415
f 478 479 415
f 479 412 415
f 479 476 412
f 477 418 413
f 480 418 477
f 482 481 478
f 416 482 478
f 419 482 416
f 478 481 479
f 483 420 421
f 483 421 484
f 421 485 484
f 421 422 485
f 422 418 480
f 422 480 485
f 423 482 419
f 423 486 482
f 488 487 483
f 487 420 483
f 487 424 420
f 488 483 484
f 425 486 423
f 425 489 486
f 487 427 424
f 490 427 487
f 428 489 425
f 428 491 489
f 492 429 430
f 493 492 430
f 427 493 430
f 490 493 427
f 496 495 494
f 498 497 494
f 498 494 495
f 500 499 497
f 500 497 498
f 501 499 500
f 431 491 428
f 431 502 491
f 503 432 492
f 492 432 429
f 504 434 435
f 492 504 435
f 503 492 435
f 504 492 493
f 434 505 436
f 504 505 434
f 494 437 496
f 437 505 496
f 437 436 505
f 437 494 438
f 438 494 497
f 438 497 439
f 439 497 499
f 501 506 499
f 506 439 499
f 506 441 439
f 442 441 506
f 442 506 507
f 444 502 431
f 444 508 502
f 503 445 432
f 445 503 435
f 507 446 442
f 509 446 507
f 512 511 510
f 447 448 510
f 511 447 510
f 513 447 511
f 444 447 508
f 508 447 513
f 509 514 446
f 446 514 449
f 449 515 452
f 514 515 449
f 510 453 512
f 453 515 512
f 453 452 515
f 453 510 448
f 518 517 516
f 455 456 516
f 456 518 516
f 456 519 518
f 521 519 520
f 519 457 520
f 519 456 457
f 458 522 457
f 457 522 520
f 459 522 458
f 524 523 461
f 461 523 460
f 462 516 517
f 524 462 517
f 461 462 524
f 516 462 455
f 525 521 520
f 525 520 522
f 525 522 526
f 522 459 526
f 459 527 526
f 459 463 527
f 528 465 466
f 467 529 466
f 466 529 528
f 530 529 467
f 460 530 467
f 523 530 460
f 531 527 463
f 531 463 468
f 533 532 469
f 532 468 469
f 532 531 468
f 533 534 532
f 535 471 528
f 528 471 465
f 536 528 529
f 535 528 536
f 529 530 537
f 529 537 536
f 472 533 469
f 472 473 533
f 473 534 533
f 473 538 534
f 539 475 535
f 535 475 471
f 536 541 540
f 539 536 540
f 535 536 539
f 541 536 537
f 476 538 473
f 476 542 538
f 543 477 539
f 539 477 475
f 539 540 544
f 539 544 543
f 547 546 545
f 546 542 545
f 542 479 545
f 542 476 479
f 548 480 543
f 543 480 477
f 543 544 549
f 543 549 548
f 547 545 481
f 482 547 481
f 550 547 482
f 481 545 479
f 552 551 485
f 485 551 484
f 485 480 548
f 553 485 548
f 552 485 553
f 553 548 549
f 486 555 554
f 550 486 554
f 482 486 550
f 555 556 554
f 558 557 488
f 488 557 487
f 488 484 551
f 488 551 558
f 489 559 555
f 489 555 486
f 556 555 560
f 560 555 559
f 557 490 487
f 561 490 557
f 564 563 562
f 566 565 562
f 566 562 563
f 567 565 566
f 491 568 559
f 491 559 489
f 560 559 569
f 569 559 568
f 571 493 570
f 493 561 570
f 493 490 561
f 573 572 571
f 573 571 570
f 572 573 564
f 572 564 562
f 496 572 562
f 495 496 562
f 495 562 498
f 498 562 565
f 567 574 565
f 574 498 565
f 574 500 498
f 576 575 501
f 500 576 501
f 574 576 500
f 577 575 576
f 502 578 568
f 502 568 491
f 569 568 579
f 579 568 578
f 571 504 493
f 504 571 505
f 505 571 572
f 505 572 496
f 575 506 501
f 507 506 575
f 577 507 575
f 580 507 577
f 508 581 578
f 508 578 502
f 579 578 582
f 582 578 581
f 580 509 507
f 583 509 580
f 585 584 511
f 585 511 512
f 511 586 513
f 584 586 511
f 508 513 581
f 513 587 581
f 513 586 587
f 581 587 582
f 583 588 509
f 509 588 514
f 514 589 515
f 588 589 514
f 512 515 585
f 585 515 589
f 590 517 518
f 519 591 518
f 518 591 590
f 521 591 519
f 592 523 524
f 517 590 524
f 590 592 524
f 590 593 592
f 594 590 591
f 593 590 594
f 525 595 521
f 595 591 521
f 595 594 591
f 526 596 525
f 525 596 595
f 527 596 526
f 597 530 592
f 592 530 523
f 593 599 598
f 597 593 598
f 592 593 597
f 599 593 594
f 599 594 600
f 600 594 595
f 600 595 601
f 603 602 601
f 595 603 601
f 596 603 595
f 531 604 527
f 604 596 527
f 604 603 596
f 604 531 605
f 531 606 605
f 531 532 606
f 532 534 606
f 606 534 607
f 609 608 597
f 608 530 597
f 608 537 530
f 609 597 598
f 610 602 603
f 610 603 604
f 610 604 611
f 611 604 605
f 538 607 534
f 538 612 607
f 613 540 541
f 537 608 614
f 613 537 614
f 615 613 614
f 541 537 613
f 616 615 614
f 542 612 538
f 542 617 612
f 618 544 613
f 613 544 540
f 615 620 619
f 618 615 619
f 613 615 618
f 620 615 616
f 547 621 546
f 621 622 546
f 622 542 546
f 622 617 542
f 624 623 618
f 623 544 618
f 623 549 544
f 624 618 619
f 550 625 621
f 550 621 547
f 622 621 626
f 626 621 625
f 627 551 552
f 553 628 552
f 552 628 627
f 629 628 553
f 549 629 553
f 623 629 549
f 554 625 550
f 554 556 625
f 556 626 625
f 556 630 626
f 631 557 558
f 551 627 558
f 627 631 558
f 627 632 631
f 633 627 628
f 632 627 633
f 628 629 634
f 628 634 633
f 560 630 556
f 560 635 630
f 636 561 631
f 631 561 557
f 637 631 632
f 636 631 637
f 564 637 563
f 637 633 563
f 637 632 633
f 634 638 633
f 638 563 633
f 638 566 563
f 640 639 567
f 566 640 567
f 638 640 566
f 641 639 640
f 569 635 560
f 569 642 635
f 636 570 561
f 570 636 573
f 573 636 637
f 573 637 564
f 639 574 567
f 641 643 639
f 643 574 639
f 643 576 574
f 577 576 643
f 577 643 644
f 579 642 569
f 579 645 642
f 647 580 646
f 580 644 646
f 580 577 644
f 648 647 646
f 582 645 579
f 582 649 645
f 650 583 647
f 647 583 580
f 647 648 651
f 647 651 650
f 653 652 584
f 653 584 585
f 584 654 586
f 652 654 584
f 586 655 587
f 654 655 586
f 582 587 649
f 649 587 655
f 650 588 583
f 651 656 650
f 656 588 650
f 656 589 588
f 585 589 653
f 653 589 656
f 657 598 599
f 600 658 599
f 599 658 657
f 601 659 600
f 600 659 658
f 602 659 601
f 660 605 606
f 607 660 606
f 661 608 609
f 598 657 609
f 657 661 609
f 657 662 661
f 658 664 663
f 662 658 663
f 657 658 662
f 664 658 659
f 664 659 665
f 665 659 602
f 610 665 602
f 666 665 610
f 668 666 667
f 666 611 667
f 666 610 611
f 605 660 611
f 660 667 611
f 660 669 667
f 612 669 607
f 607 669 660
f 661 614 608
f 661 662 670
f 616 661 670
f 671 616 670
f 661 616 614
f 670 662 663
f 672 668 667
f 674 673 672
f 667 674 672
f 669 674 667
f 617 674 612
f 612 674 669
f 675 619 620
f 676 675 620
f 616 676 620
f 671 676 616
f 677 673 674
f 674 617 677
f 617 678 677
f 617 622 678
f 679 623 624
f 680 679 624
f 680 624 619
f 681 680 619
f 675 681 619
f 681 675 676
f 626 678 622
f 626 682 678
f 684 683 679
f 683 623 679
f 683 629 623
f 684 679 680
f 630 682 626
f 630 685 682
f 687 634 686
f 634 683 686
f 634 629 683
f 689 688 687
f 689 687 686
f 690 688 689
f 635 685 630
f 635 691 685
f 687 638 634
f 638 687 640
f 640 687 688
f 693 692 641
f 693 641 640
f 690 693 640
f 688 690 640
f 694 692 693
f 642 691 635
f 642 695 691
f 692 643 641
f 644 643 692
f 694 644 692
f 696 644 694
f 645 695 642
f 645 697 695
f 646 644 698
f 644 699 698
f 644 696 699
f 698 648 646
f 649 697 645
f 649 700 697
f 699 701 698
f 651 648 698
f 702 651 698
f 701 702 698
f 651 702 703
f 652 653 703
f 702 652 703
f 704 652 702
f 652 705 654
f 704 705 652
f 654 706 655
f 705 706 654
f 649 655 700
f 700 655 706
f 703 656 651
f 656 703 653
f 707 663 664
f 665 708 664
f 664 708 707
f 666 709 665
f 665 709 708
f 668 709 666
f 710 671 670
f 663 707 670
f 707 710 670
f 707 711 710
f 712 707 708
f 711 707 712
f 713 708 709
f 712 708 713
f 672 714 668
f 714 709 668
f 714 713 709
f 673 714 672
f 715 676 710
f 710 676 671
f 711 717 716
f 715 711 716
f 710 711 715
f 717 711 712
f 717 712 718
f 718 712 713
f 718 713 719
f 719 713 714
f 719 714 720
f 722 720 721
f 721 720 677
f 720 714 677
f 714 673 677
f 678 721 677
f 724 723 681
f 681 723 680
f 681 676 715
f 725 681 715
f 724 681 725
f 725 715 716
f 726 722 721
f 721 678 726
f 678 727 726
f 678 682 727
f 728 683 684
f 680 723 729
f 728 680 729
f 730 728 729
f 684 680 728
f 731 730 729
f 685 727 682
f 685 732 727
f 728 686 683
f 686 733 689
f 733 686 734
f 728 734 686
f 734 728 735
f 730 735 728
f 730 731 735
f 689 733 690
f 691 732 685
f 691 736 732
f 734 737 733
f 737 739 738
f 737 738 693
f 733 737 693
f 690 733 693
f 738 694 693
f 695 736 691
f 695 740 736
f 739 741 738
f 694 738 741
f 742 694 741
f 696 694 742
f 697 740 695
f 697 743 740
f 742 699 696
f 744 699 742
f 700 743 697
f 700 745 743
f 744 746 699
f 699 746 701
f 701 747 702
f 746 747 701
f 702 748 704
f 747 748 702
f 704 749 705
f 748 749 704
f 705 750 706
f 749 750 705
f 700 706 745
f 745 706 750
f 751 716 717
f 718 752 717
f 717 752 751
f 719 753 718
f 718 753 752
f 720 754 719
f 719 754 753
f 722 754 720
f 755 723 724
f 725 756 724
f 724 756 755
f 716 751 725
f 751 756 725
f 751 757 756
f 752 759 758
f 757 752 758
f 751 752 757
f 759 752 753
f 759 753 760
f 760 753 754
f 760 754 761
f 763 761 762
f 762 761 726
f 761 754 726
f 754 722 726
f 727 762 726
f 755 729 723
f 729 755 731
f 755 764 731
f 755 756 764
f 757 766 765
f 764 757 765
f 756 757 764
f 766 757 758
f 767 763 762
f 762 727 767
f 727 768 767
f 727 732 768
f 769 734 735
f 770 769 735
f 770 735 731
f 771 770 731
f 764 771 731
f 771 764 765
f 736 768 732
f 736 772 768
f 737 734 769
f 775 774 773
f 739 773 774
f 739 770 773
f 739 737 769
f 770 739 769
f 740 772 736
f 740 776 772
f 775 777 774
f 777 779 778
f 777 778 741
f 774 777 741
f 739 774 741
f 778 742 741
f 743 776 740
f 743 780 776
f 779 781 778
f 742 778 781
f 782 742 781
f 744 742 782
f 785 784 783
f 787 786 783
f 787 783 784
f 789 788 786
f 789 786 787
f 789 780 788
f 780 745 788
f 780 743 745
f 782 790 744
f 744 790 746
f 746 791 747
f 790 791 746
f 783 748 785
f 748 791 785
f 748 747 791
f 748 783 749
f 749 783 786
f 749 786 750
f 750 786 788
f 750 788 745
f 792 758 759
f 760 793 759
f 759 793 792
f 761 794 760
f 760 794 793
f 763 794 761
f 795 765 766
f 796 795 766
f 796 766 758
f 797 796 758
f 792 797 758
f 797 792 793
f 797 793 798
f 798 793 794
f 798 794 799
f 801 799 800
f 800 799 767
f 799 794 767
f 794 763 767
f 768 800 767
f 802 770 771
f 765 795 771
f 795 802 771
f 795 803 802
f 795 796 804
f 795 804 803
f 801 800 805
f 801 805 806
f 772 805 768
f 768 805 800
f 807 775 773
f 770 802 773
f 802 807 773
f 802 808 807
f 803 810 809
f 808 803 809
f 802 803 808
f 810 803 804
f 806 805 811
f 806 811 812
f 776 811 772
f 772 811 805
f 807 777 775
f 807 808 813
f 779 807 813
f 814 779 813
f 807 779 777
f 813 808 809
f 817 816 815
f 819 818 815
f 819 815 816
f 820 818 819
f 812 811 821
f 812 821 822
f 780 821 776
f 776 821 811
f 814 823 779
f 779 823 781
f 825 824 782
f 781 825 782
f 823 825 781
f 824 825 817
f 815 824 817
f 826 824 815
f 785 826 784
f 826 818 784
f 826 815 818
f 820 827 818
f 827 784 818
f 827 787 784
f 821 789 822
f 789 827 822
f 789 787 827
f 789 821 780
f 824 790 782
f 790 824 791
f 791 824 826
f 791 826 785
f 828 796 797
f 798 829 797
f 797 829 828
f 799 830 798
f 798 830 829
f 801 830 799
f 831 804 828
f 828 804 796
f 832 828 829
f 831 828 832
f 833 829 830
f 832 829 833
f 806 833 801
f 801 833 830
f 834 809 810
f 804 831 810
f 831 834 810
f 831 835 834
f 836 831 832
f 835 831 836
f 837 832 833
f 836 832 837
f 812 837 806
f 806 837 833
f 838 814 813
f 809 834 813
f 834 838 813
f 834 839 838
f 817 839 816
f 839 835 816
f 839 834 835
f 816 835 819
f 819 835 836
f 819 836 820
f 836 840 820
f 836 837 840
f 822 840 812
f 812 840 837
f 838 823 814
f 823 838 825
f 825 838 839
f 825 839 817
f 840 827 820
f 827 840 822
