v 22.0 -40.0 -15.0
v 22.0 -40.0 -15.0
v 22.0 -40.0 -15.0
v 22.0 -40.0 -15.0
v 21.4 -39.0 -19.0
v 22.0 -39.0 -19.3
v 22.0 -39.4 -19.0
v 22.0 -39.2 -18.0
v 21.8 -39.0 -18.0
v 22.0 -39.0 -17.8
v 22.0 -39.0 -15.0
v 22.0 -39.0 -15.0
v 22.0 -39.0 -15.0
v 21.7 -38.0 -19.0
v 22.0 -38.0 -19.3
v 22.0 -38.0 -18.5
v 22.0 -38.7 -18.0
v 22.0 -39.0 -15.0
v 21.8 -37.0 -19.0
v 22.0 -37.0 -19.4
v 22.0 -37.0 -18.6
v 21.8 -36.0 -20.0
v 22.0 -36.0 -20.2
v 22.0 -36.4 -20.0
v 21.7 -36.0 -19.0
v 22.0 -36.0 -18.6
v 21.9 -35.0 -20.0
v 22.0 -35.0 -20.1
v 21.9 -35.0 -19.0
v 22.0 -35.0 -18.9
v 22.0 -34.9 -20.0
v 22.0 -34.9 -19.0
v 22.8 -42.0 -13.0
v 23.0 -42.0 -13.3
v 23.0 -42.2 -13.0
v 23.0 -42.2 -12.0
v 22.8 -42.0 -12.0
v 23.0 -42.0 -11.8
v 22.7 -41.0 -14.0
v 23.0 -41.0 -14.5
v 23.0 -41.3 -14.0
v 22.6 -41.0 -13.0
v 22.8 -41.0 -12.0
v 23.0 -41.0 -11.8
v 22.7 -40.0 -19.0
v 23.0 -40.0 -19.3
v 23.0 -40.2 -19.0
v 23.0 -40.4 -18.0
v 22.6 -40.0 -18.0
v 23.0 -40.4 -17.0
v 22.6 -40.0 -17.0
v 23.0 -40.5 -16.0
v 22.5 -40.0 -16.0
v 23.0 -40.7 -15.0
v 22.5 -40.0 -14.0
v 22.8 -40.0 -13.0
v 23.0 -40.0 -12.7
v 23.0 -40.8 -12.0
v 23.0 -39.0 -19.7
v 22.4 -39.0 -17.0
v 22.4 -39.0 -16.0
v 23.0 -39.4 -14.0
v 23.0 -39.0 -14.3
v 23.0 -39.8 -13.0
v 22.6 -38.0 -20.0
v 23.0 -38.0 -20.3
v 23.0 -38.5 -20.0
v 22.3 -38.0 -18.0
v 22.5 -38.0 -17.0
v 22.5 -38.0 -16.0
v 22.7 -38.0 -15.0
v 23.0 -38.0 -14.7
v 22.4 -37.0 -20.0
v 23.0 -37.0 -20.4
v 22.4 -37.0 -18.0
v 22.5 -37.0 -17.0
v 22.7 -37.0 -16.0
v 23.0 -37.0 -15.7
v 23.0 -37.7 -15.0
v 23.0 -36.0 -20.4
v 22.4 -36.0 -18.0
v 22.7 -36.0 -17.0
v 23.0 -36.0 -16.5
v 23.0 -36.6 -16.0
v 23.0 -35.0 -20.1
v 22.7 -35.0 -19.0
v 23.0 -35.0 -19.0
v 23.0 -35.0 -19.3
v 23.0 -35.0 -18.8
v 22.8 -35.0 -18.0
v 23.0 -35.0 -17.7
v 23.0 -35.5 -17.0
v 23.0 -34.9 -20.0
v 23.0 -34.9 -18.0
v 24.0 -42.0 -13.6
v 24.0 -42.4 -13.0
v 24.0 -42.4 -12.0
v 24.0 -42.0 -11.6
v 23.6 -41.0 -16.0
v 24.0 -41.0 -16.6
v 24.0 -41.4 -16.0
v 24.0 -41.4 -15.0
v 23.4 -41.0 -15.0
v 24.0 -41.7 -14.0
v 24.0 -41.0 -11.6
v 23.7 -40.0 -20.0
v 24.0 -40.0 -20.2
v 24.0 -40.2 -20.0
v 24.0 -40.5 -19.0
v 24.0 -40.6 -18.0
v 24.0 -40.8 -17.0
v 24.0 -40.5 -12.0
v 24.0 -40.0 -12.5
v 23.4 -39.0 -20.0
v 24.0 -39.0 -20.4
v 23.5 -39.0 -14.0
v 24.0 -39.0 -13.6
v 24.0 -39.5 -13.0
v 24.0 -38.0 -20.5
v 24.0 -38.6 -14.0
v 24.0 -38.0 -14.5
v 24.0 -37.0 -20.4
v 24.0 -37.3 -15.0
v 24.0 -37.0 -15.3
v 24.0 -36.2 -20.0
v 23.8 -36.0 -20.0
v 24.0 -36.0 -19.9
v 23.4 -36.0 -16.0
v 24.0 -36.0 -15.5
v 23.1 -35.0 -20.0
v 23.1 -35.0 -19.0
v 24.0 -35.0 -19.4
v 23.5 -35.0 -17.0
v 23.8 -35.0 -16.0
v 24.0 -35.0 -15.8
v 24.0 -34.7 -19.0
v 24.0 -34.5 -18.0
v 24.0 -34.6 -17.0
v 24.0 -34.8 -16.0
v 24.7 -43.0 -12.0
v 25.0 -43.0 -12.4
v 25.0 -43.3 -12.0
v 25.0 -43.1 -11.0
v 24.9 -43.0 -11.0
v 25.0 -43.0 -10.9
v 24.7 -42.0 -17.0
v 25.0 -42.0 -17.4
v 25.0 -42.2 -17.0
v 25.0 -42.3 -16.0
v 24.7 -42.0 -16.0
v 25.0 -42.0 -15.3
v 24.5 -42.0 -14.0
v 25.0 -42.0 -14.7
v 25.0 -42.3 -14.0
v 25.0 -42.7 -13.0
v 25.0 -42.9 -11.0
v 25.0 -42.0 -11.3
v 24.6 -41.0 -18.0
v 25.0 -41.0 -18.4
v 25.0 -41.4 -18.0
v 24.3 -41.0 -17.0
v 25.0 -41.8 -15.0
v 25.0 -41.0 -11.6
v 25.0 -40.0 -20.2
v 25.0 -40.2 -20.0
v 25.0 -40.6 -19.0
v 25.0 -40.5 -12.0
v 25.0 -40.0 -12.5
v 25.0 -39.0 -20.4
v 25.0 -39.4 -13.0
v 25.0 -39.0 -13.4
v 25.0 -38.0 -20.4
v 25.0 -38.3 -14.0
v 25.0 -38.0 -14.3
v 25.0 -37.0 -20.4
v 24.3 -37.0 -15.0
v 25.0 -37.0 -14.5
v 24.5 -36.0 -20.0
v 25.0 -36.0 -20.2
v 24.6 -36.0 -15.0
v 25.0 -36.0 -14.6
v 25.0 -35.7 -20.0
v 25.0 -35.0 -19.5
v 25.0 -35.5 -15.0
v 25.0 -35.0 -15.4
v 25.0 -34.5 -19.0
v 25.0 -34.5 -18.0
v 25.0 -34.5 -17.0
v 25.0 -34.6 -16.0
v 25.9 -44.0 -11.0
v 26.0 -44.0 -11.2
v 26.0 -44.1 -11.0
v 26.0 -44.0 -10.8
v 25.5 -43.0 -13.0
v 26.0 -43.0 -13.5
v 26.0 -43.3 -13.0
v 26.0 -43.7 -12.0
v 26.0 -43.0 -10.5
v 25.8 -42.0 -18.0
v 26.0 -42.0 -18.1
v 26.0 -42.1 -18.0
v 26.0 -42.5 -17.0
v 26.0 -42.6 -16.0
v 26.0 -42.5 -15.0
v 25.2 -42.0 -15.0
v 26.0 -42.7 -14.0
v 25.5 -42.0 -11.0
v 26.0 -42.0 -10.7
v 26.0 -41.0 -18.6
v 26.0 -41.5 -11.0
v 26.0 -41.0 -11.3
v 25.3 -40.0 -20.0
v 26.0 -40.0 -19.5
v 26.0 -40.5 -19.0
v 26.0 -40.3 -12.0
v 26.0 -40.0 -12.2
v 25.5 -39.0 -20.0
v 26.0 -39.0 -19.6
v 25.5 -39.0 -13.0
v 26.0 -39.0 -12.6
v 25.5 -38.0 -20.0
v 26.0 -38.0 -19.6
v 25.3 -38.0 -14.0
v 26.0 -38.0 -13.3
v 26.0 -38.4 -13.0
v 25.5 -37.0 -20.0
v 26.0 -37.0 -19.6
v 25.5 -37.0 -14.0
v 26.0 -37.0 -13.5
v 25.3 -36.0 -20.0
v 26.0 -36.0 -19.7
v 25.7 -36.0 -14.0
v 26.0 -36.0 -13.7
v 26.0 -35.0 -19.9
v 25.5 -35.0 -15.0
v 26.0 -35.0 -14.6
v 26.0 -35.7 -14.0
v 25.9 -34.0 -19.0
v 26.0 -34.0 -19.1
v 26.0 -34.0 -18.7
v 26.0 -34.2 -18.0
v 26.0 -34.3 -17.0
v 26.0 -34.4 -16.0
v 26.0 -34.6 -15.0
v 26.0 -33.9 -19.0
v 26.5 -44.0 -12.0
v 27.0 -44.0 -12.4
v 27.0 -44.3 -12.0
v 27.0 -44.5 -11.0
v 27.0 -44.4 -10.0
v 26.6 -44.0 -10.0
v 27.0 -44.1 -9.0
v 26.9 -44.0 -9.0
v 27.0 -44.0 -8.9
v 26.8 -43.0 -16.0
v 27.0 -43.0 -16.1
v 27.0 -43.1 -16.0
v 27.0 -43.4 -15.0
v 26.5 -43.0 -15.0
v 27.0 -43.4 -14.0
v 26.4 -43.0 -14.0
v 27.0 -43.6 -13.0
v 26.6 -43.0 -10.0
v 27.0 -43.0 -9.5
v 27.0 -43.8 -9.0
v 26.2 -42.0 -18.0
v 27.0 -42.0 -17.5
v 27.0 -42.4 -17.0
v 27.0 -42.2 -10.0
v 27.0 -42.0 -10.1
v 27.0 -41.0 -18.5
v 27.0 -41.6 -18.0
v 26.3 -41.0 -11.0
v 27.0 -41.8 -10.0
v 26.7 -41.0 -10.0
v 27.0 -41.0 -9.6
v 27.0 -40.0 -19.3
v 27.0 -40.3 -19.0
v 26.2 -40.0 -12.0
v 26.5 -40.0 -11.0
v 26.7 -40.0 -10.0
v 27.0 -40.0 -9.6
v 27.0 -39.0 -19.4
v 26.4 -39.0 -12.0
v 26.7 -39.0 -11.0
v 27.0 -39.0 -10.5
v 27.0 -39.5 -10.0
v 27.0 -38.0 -19.5
v 26.3 -38.0 -13.0
v 26.7 -38.0 -12.0
v 27.0 -38.0 -11.5
v 27.0 -38.5 -11.0
v 27.0 -37.0 -19.5
v 26.6 -37.0 -13.0
v 27.0 -37.0 -12.6
v 27.0 -37.6 -12.0
v 27.0 -36.0 -19.5
v 27.0 -36.6 -13.0
v 27.0 -36.0 -13.5
v 27.0 -35.0 -19.6
v 27.0 -35.5 -14.0
v 27.0 -35.0 -14.4
v 27.0 -34.0 -19.4
v 26.3 -34.0 -18.0
v 26.3 -34.0 -17.0
v 26.4 -34.0 -16.0
v 26.7 -34.0 -15.0
v 27.0 -34.0 -14.7
v 27.0 -33.6 -19.0
v 26.7 -33.0 -18.0
v 27.0 -33.0 -18.3
v 26.6 -33.0 -17.0
v 26.6 -33.0 -16.0
v 27.0 -33.0 -15.5
v 27.0 -33.6 -15.0
v 27.0 -32.7 -18.0
v 27.0 -32.4 -17.0
v 27.0 -32.0 -16.0
v 27.0 -32.0 -16.1
v 27.0 -32.0 -16.0
v 27.0 -32.0 -16.0
v 27.7 -45.0 -9.0
v 28.0 -45.0 -9.5
v 28.0 -45.3 -9.0
v 28.0 -45.2 -8.0
v 27.8 -45.0 -8.0
v 28.0 -45.0 -7.7
v 28.0 -44.0 -12.6
v 28.0 -44.4 -12.0
v 28.0 -44.5 -11.0
v 28.0 -44.7 -10.0
v 27.7 -44.0 -8.0
v 28.0 -44.0 -7.6
v 27.2 -43.0 -16.0
v 28.0 -43.0 -15.5
v 28.0 -43.3 -15.0
v 28.0 -43.6 -14.0
v 28.0 -43.7 -13.0
v 27.4 -43.0 -9.0
v 28.0 -43.0 -8.3
v 28.0 -43.5 -8.0
v 27.6 -42.0 -17.0
v 28.0 -42.0 -16.7
v 28.0 -42.6 -16.0
v 27.1 -42.0 -10.0
v 27.6 -42.0 -9.0
v 28.0 -42.0 -8.5
v 28.0 -41.0 -18.3
v 28.0 -41.3 -18.0
v 28.0 -41.7 -17.0
v 27.5 -41.0 -9.0
v 28.0 -41.0 -8.5
v 27.3 -40.0 -19.0
v 28.0 -40.0 -18.6
v 27.5 -40.0 -9.0
v 28.0 -40.0 -8.5
v 27.6 -39.0 -19.0
v 28.0 -39.0 -18.7
v 27.3 -39.0 -10.0
v 27.8 -39.0 -9.0
v 28.0 -39.0 -8.8
v 28.0 -38.0 -19.4
v 28.0 -38.6 -19.0
v 27.4 -38.0 -11.0
v 27.8 -38.0 -10.0
v 28.0 -38.0 -9.7
v 28.0 -38.7 -9.0
v 28.0 -37.0 -19.5
v 27.6 -37.0 -12.0
v 28.0 -37.0 -11.5
v 28.0 -37.4 -11.0
v 28.0 -37.8 -10.0
v 28.0 -36.0 -19.5
v 28.0 -36.3 -13.0
v 28.0 -36.0 -13.4
v 28.0 -36.7 -12.0
v 28.0 -35.0 -19.5
v 28.0 -35.4 -14.0
v 28.0 -35.0 -14.4
v 28.0 -34.0 -19.4
v 28.0 -34.0 -14.5
v 28.0 -33.4 -19.0
v 28.0 -33.0 -18.7
v 27.6 -33.0 -15.0
v 28.0 -33.0 -14.7
v 27.5 -32.0 -18.0
v 28.0 -32.0 -18.5
v 27.3 -32.0 -17.0
v 28.0 -32.6 -15.0
v 28.0 -32.0 -15.5
v 27.8 -31.0 -18.0
v 28.0 -31.0 -18.3
v 27.7 -31.0 -17.0
v 28.0 -31.5 -16.0
v 28.0 -31.0 -16.6
v 28.0 -30.7 -18.0
v 28.0 -30.7 -17.0
v 28.5 -45.0 -10.0
v 29.0 -45.0 -10.5
v 29.0 -45.3 -10.0
v 29.0 -45.5 -9.0
v 29.0 -45.5 -8.0
v 29.0 -45.3 -7.0
v 28.7 -45.0 -7.0
v 29.0 -45.0 -6.7
v 28.9 -44.0 -14.0
v 29.0 -44.0 -14.1
v 29.0 -44.1 -14.0
v 29.0 -44.4 -13.0
v 28.4 -44.0 -13.0
v 29.0 -44.5 -12.0
v 29.0 -44.7 -11.0
v 28.4 -44.0 -7.0
v 29.0 -44.1 -6.0
v 28.9 -44.0 -6.0
v 29.0 -44.0 -5.9
v 28.6 -43.0 -15.0
v 29.0 -43.0 -14.7
v 28.3 -43.0 -8.0
v 28.7 -43.0 -7.0
v 29.0 -43.0 -6.5
v 29.0 -43.8 -6.0
v 29.0 -42.0 -16.3
v 29.0 -42.3 -16.0
v 29.0 -42.7 -15.0
v 28.5 -42.0 -8.0
v 29.0 -42.0 -7.4
v 29.0 -42.5 -7.0
v 28.4 -41.0 -18.0
v 29.0 -41.0 -17.5
v 29.0 -41.4 -17.0
v 28.5 -41.0 -8.0
v 29.0 -41.0 -7.5
v 29.0 -40.0 -18.3
v 29.0 -40.4 -18.0
v 28.6 -40.0 -8.0
v 29.0 -40.0 -7.7
v 29.0 -39.0 -18.6
v 29.0 -39.6 -8.0
v 29.0 -39.0 -8.5
v 29.0 -38.0 -19.3
v 29.0 -38.4 -19.0
v 29.0 -38.4 -9.0
v 29.0 -38.0 -9.4
v 29.0 -37.0 -19.5
v 28.6 -37.0 -11.0
v 29.0 -37.0 -10.6
v 29.0 -37.5 -10.0
v 29.0 -36.0 -19.5
v 28.5 -36.0 -13.0
v 29.0 -36.0 -12.5
v 29.0 -36.3 -12.0
v 29.0 -36.7 -11.0
v 29.0 -35.0 -19.5
v 29.0 -35.4 -14.0
v 29.0 -35.0 -14.4
v 29.0 -35.7 -13.0
v 29.0 -34.0 -19.5
v 29.0 -34.0 -14.5
v 28.4 -33.0 -19.0
v 29.0 -33.0 -19.4
v 29.0 -33.0 -14.7
v 28.5 -32.0 -19.0
v 29.0 -32.0 -19.4
v 29.0 -32.6 -15.0
v 29.0 -32.0 -15.4
v 28.6 -31.0 -19.0
v 29.0 -31.0 -19.3
v 28.8 -31.0 -16.0
v 29.0 -31.0 -15.9
v 29.0 -30.0 -19.0
v 29.0 -30.0 -19.0
v 28.7 -30.0 -18.0
v 29.0 -30.0 -17.6
v 29.0 -30.3 -17.0
v 29.0 -30.9 -16.0
v 29.0 -30.0 -19.0
v 29.0 -29.8 -18.0
v 29.5 -45.0 -11.0
v 30.0 -45.0 -11.4
v 30.0 -45.3 -11.0
v 30.0 -45.6 -10.0
v 30.0 -45.6 -9.0
v 30.0 -45.9 -8.0
v 30.0 -45.5 -7.0
v 30.0 -45.0 -6.3
v 29.1 -44.0 -14.0
v 30.0 -44.0 -13.4
v 30.0 -44.3 -13.0
v 30.0 -44.6 -12.0
v 30.0 -44.7 -6.0
v 30.0 -44.2 -5.0
v 29.8 -44.0 -5.0
v 30.0 -44.0 -4.8
v 30.0 -43.0 -14.3
v 30.0 -43.4 -14.0
v 29.4 -43.0 -6.0
v 30.0 -43.0 -5.2
v 30.0 -43.5 -5.0
v 29.4 -42.0 -16.0
v 30.0 -42.0 -15.4
v 30.0 -42.3 -15.0
v 29.3 -42.0 -7.0
v 29.5 -42.0 -6.0
v 30.0 -42.5 -5.0
v 29.9 -42.0 -5.0
v 30.0 -42.0 -4.8
v 29.5 -41.0 -17.0
v 30.0 -41.0 -16.5
v 30.0 -41.5 -16.0
v 29.4 -41.0 -7.0
v 29.7 -41.0 -6.0
v 30.0 -41.0 -5.6
v 30.0 -41.8 -5.0
v 29.4 -40.0 -18.0
v 30.0 -40.0 -17.5
v 30.0 -40.5 -17.0
v 29.7 -40.0 -7.0
v 30.0 -40.0 -6.7
v 30.0 -40.7 -6.0
v 30.0 -39.0 -18.3
v 30.0 -39.4 -18.0
v 30.0 -39.3 -8.0
v 30.0 -39.0 -8.3
v 30.0 -39.7 -7.0
v 29.5 -38.0 -19.0
v 30.0 -38.0 -18.7
v 29.6 -38.0 -9.0
v 30.0 -38.0 -8.7
v 30.0 -37.0 -19.4
v 30.0 -37.6 -19.0
v 30.0 -37.4 -10.0
v 30.0 -37.0 -10.5
v 30.0 -37.8 -9.0
v 30.0 -36.0 -19.5
v 29.5 -36.0 -12.0
v 30.0 -36.0 -11.6
v 30.0 -36.5 -11.0
v 30.0 -35.0 -19.5
v 30.0 -35.2 -14.0
v 30.0 -35.0 -14.2
v 30.0 -35.5 -13.0
v 30.0 -35.7 -12.0
v 30.0 -34.0 -19.5
v 30.0 -34.0 -14.5
v 30.0 -33.0 -19.5
v 29.5 -33.0 -15.0
v 30.0 -33.4 -15.0
v 30.0 -33.0 -15.3
v 30.0 -32.0 -19.5
v 30.0 -32.0 -15.6
v 30.0 -31.0 -19.3
v 29.3 -31.0 -16.0
v 30.0 -31.3 -16.0
v 30.0 -31.0 -16.2
v 30.0 -30.5 -19.0
v 29.0 -30.0 -19.0
v 30.0 -30.0 -18.5
v 29.6 -30.0 -17.0
v 30.0 -30.0 -16.7
v 30.0 -29.6 -18.0
v 30.0 -29.8 -17.0
v 31.0 -45.0 -11.3
v 31.0 -45.3 -11.0
v 31.0 -45.8 -10.0
v 31.0 -45.6 -9.0
v 31.0 -45.6 -8.0
v 31.0 -45.5 -7.0
v 31.0 -45.4 -6.0
v 30.4 -45.0 -6.0
v 31.0 -45.4 -5.0
v 30.6 -45.0 -5.0
v 31.0 -45.2 -4.0
v 30.8 -45.0 -4.0
v 31.0 -45.0 -3.8
v 30.3 -44.0 -13.0
v 31.0 -44.0 -12.3
v 31.0 -44.3 -12.0
v 30.6 -44.0 -4.0
v 31.0 -44.0 -3.6
v 30.3 -43.0 -14.0
v 30.7 -43.0 -13.0
v 31.0 -43.0 -12.7
v 30.2 -43.0 -5.0
v 30.6 -43.0 -4.0
v 31.0 -43.0 -3.6
v 30.3 -42.0 -15.0
v 30.6 -42.0 -14.0
v 31.0 -42.0 -13.4
v 31.0 -42.6 -13.0
v 30.7 -42.0 -4.0
v 31.0 -42.0 -3.7
v 30.4 -41.0 -16.0
v 30.6 -41.0 -15.0
v 30.8 -41.0 -14.0
v 31.0 -41.0 -13.8
v 30.5 -41.0 -5.0
v 31.0 -41.0 -4.5
v 31.0 -41.6 -4.0
v 30.5 -40.0 -17.0
v 31.0 -40.0 -16.5
v 31.0 -40.4 -16.0
v 31.0 -40.5 -15.0
v 31.0 -40.8 -14.0
v 31.0 -40.3 -6.0
v 31.0 -40.0 -6.3
v 31.0 -40.6 -5.0
v 30.5 -39.0 -18.0
v 31.0 -39.0 -17.6
v 31.0 -39.6 -17.0
v 30.4 -39.0 -8.0
v 31.0 -39.0 -7.5
v 31.0 -39.4 -7.0
v 31.0 -38.0 -18.5
v 31.0 -38.6 -18.0
v 31.0 -38.6 -8.0
v 31.0 -38.0 -8.5
v 31.0 -37.0 -19.3
v 31.0 -37.4 -19.0
v 31.0 -37.3 -10.0
v 31.0 -37.0 -10.4
v 31.0 -37.6 -9.0
v 31.0 -36.0 -19.5
v 31.0 -36.5 -11.0
v 31.0 -36.0 -11.5
v 31.0 -35.0 -19.5
v 30.3 -35.0 -14.0
v 31.0 -35.0 -13.4
v 31.0 -35.3 -13.0
v 31.0 -35.6 -12.0
v 31.0 -34.0 -19.5
v 30.9 -34.0 -14.0
v 31.0 -34.0 -13.9
v 31.0 -33.0 -19.5
v 31.0 -33.3 -15.0
v 31.0 -33.0 -15.3
v 31.0 -33.9 -14.0
v 31.0 -32.0 -19.4
v 31.0 -32.0 -15.9
v 31.0 -31.4 -19.0
v 30.5 -31.0 -19.0
v 31.0 -31.0 -18.7
v 30.6 -31.0 -16.0
v 31.0 -31.0 -15.9
v 31.0 -30.0 -18.3
v 31.0 -30.8 -16.0
v 31.0 -30.0 -16.7
v 31.0 -29.7 -18.0
v 31.0 -29.7 -17.0
v 31.3 -45.0 -11.0
v 31.6 -45.0 -10.0
v 32.0 -45.0 -9.5
v 32.0 -45.3 -9.0
v 32.0 -45.4 -8.0
v 32.0 -45.5 -7.0
v 32.0 -45.5 -6.0
v 32.0 -45.5 -5.0
v 32.0 -45.3 -4.0
v 32.0 -45.0 -3.7
v 31.3 -44.0 -12.0
v 31.7 -44.0 -11.0
v 32.0 -44.0 -10.6
v 32.0 -44.5 -10.0
v 32.0 -44.0 -3.5
v 32.0 -43.0 -12.2
v 32.0 -43.3 -12.0
v 32.0 -43.7 -11.0
v 32.0 -43.0 -3.5
v 31.5 -42.0 -13.0
v 32.0 -42.0 -12.6
v 32.0 -42.0 -3.5
v 32.0 -41.0 -13.4
v 32.0 -41.5 -13.0
v 31.6 -41.0 -4.0
v 32.0 -41.0 -3.7
v 31.4 -40.0 -16.0
v 31.6 -40.0 -15.0
v 32.0 -40.0 -14.6
v 32.0 -40.4 -14.0
v 31.3 -40.0 -6.0
v 31.7 -40.0 -5.0
v 32.0 -40.0 -4.7
v 32.0 -40.7 -4.0
v 32.0 -39.0 -17.3
v 32.0 -39.3 -17.0
v 32.0 -39.6 -16.0
v 32.0 -39.7 -15.0
v 31.5 -39.0 -7.0
v 32.0 -39.0 -6.4
v 32.0 -39.3 -6.0
v 32.0 -39.6 -5.0
v 32.0 -38.0 -18.3
v 32.0 -38.3 -18.0
v 32.0 -38.3 -8.0
v 32.0 -38.0 -8.3
v 32.0 -38.6 -7.0
v 31.5 -37.0 -19.0
v 32.0 -37.0 -18.7
v 31.5 -37.0 -10.0
v 32.0 -37.0 -9.5
v 32.0 -37.4 -9.0
v 32.0 -36.0 -19.3
v 32.0 -36.5 -19.0
v 32.0 -36.3 -11.0
v 32.0 -36.0 -11.4
v 32.0 -36.7 -10.0
v 32.0 -35.0 -19.4
v 31.5 -35.0 -13.0
v 32.0 -35.0 -12.6
v 32.0 -35.5 -12.0
v 32.0 -34.0 -19.4
v 31.2 -34.0 -14.0
v 32.0 -34.3 -14.0
v 32.0 -34.0 -14.3
v 32.0 -34.7 -13.0
v 32.0 -33.0 -19.5
v 31.5 -33.0 -15.0
v 32.0 -33.0 -14.7
v 32.0 -32.0 -19.3
v 32.0 -32.6 -15.0
v 32.0 -32.0 -15.5
v 32.0 -31.6 -19.0
v 32.0 -31.0 -18.6
v 32.0 -31.0 -15.8
v 32.0 -30.0 -18.1
v 31.4 -30.0 -17.0
v 32.0 -30.3 -17.0
v 32.0 -30.0 -17.9
v 32.0 -30.8 -16.0
v 32.0 -29.9 -18.0
v 32.4 -45.0 -9.0
v 32.6 -45.0 -8.0
v 33.0 -45.0 -7.5
v 33.0 -45.3 -7.0
v 33.0 -45.4 -6.0
v 33.0 -45.4 -5.0
v 33.0 -45.2 -4.0
v 33.0 -45.0 -3.8
v 32.5 -44.0 -10.0
v 33.0 -44.0 -9.6
v 33.0 -44.5 -9.0
v 33.0 -44.7 -8.0
v 33.0 -44.0 -3.6
v 32.2 -43.0 -12.0
v 32.6 -43.0 -11.0
v 33.0 -43.0 -10.5
v 33.0 -43.5 -10.0
v 33.0 -43.0 -3.5
v 32.6 -42.0 -12.0
v 33.0 -42.0 -11.5
v 33.0 -42.5 -11.0
v 33.0 -42.0 -3.5
v 32.5 -41.0 -13.0
v 33.0 -41.0 -12.5
v 33.0 -41.5 -12.0
v 33.0 -41.0 -3.6
v 32.5 -40.0 -14.0
v 33.0 -40.0 -13.6
v 33.0 -40.5 -13.0
v 33.0 -40.4 -4.0
v 33.0 -40.0 -4.3
v 32.4 -39.0 -17.0
v 33.0 -39.0 -16.4
v 33.0 -39.3 -16.0
v 33.0 -39.4 -15.0
v 33.0 -39.7 -14.0
v 32.3 -39.0 -6.0
v 32.5 -39.0 -5.0
v 33.0 -39.0 -4.5
v 32.5 -38.0 -18.0
v 33.0 -38.0 -17.6
v 33.0 -38.6 -17.0
v 32.3 -38.0 -8.0
v 32.4 -38.0 -7.0
v 32.5 -38.0 -6.0
v 32.8 -38.0 -5.0
v 33.0 -38.0 -4.7
v 33.0 -37.0 -18.4
v 33.0 -37.6 -18.0
v 32.5 -37.0 -9.0
v 33.0 -37.0 -8.3
v 33.0 -37.2 -8.0
v 32.8 -37.0 -7.0
v 33.0 -37.0 -7.6
v 32.8 -37.0 -6.0
v 33.0 -37.0 -5.7
v 33.0 -37.6 -5.0
v 32.4 -36.0 -19.0
v 33.0 -36.0 -18.6
v 32.5 -36.0 -11.0
v 33.0 -36.0 -10.5
v 33.0 -36.3 -10.0
v 33.0 -36.6 -9.0
v 33.0 -36.7 -7.0
v 33.0 -36.8 -6.0
v 32.5 -35.0 -19.0
v 33.0 -35.0 -18.6
v 33.0 -35.4 -12.0
v 33.0 -35.0 -12.5
v 33.0 -35.7 -11.0
v 32.6 -34.0 -19.0
v 33.0 -34.0 -18.7
v 33.0 -34.2 -14.0
v 33.0 -34.0 -14.2
v 33.0 -34.6 -13.0
v 33.0 -33.0 -19.3
v 33.0 -33.5 -19.0
v 33.0 -33.0 -14.5
v 33.0 -32.6 -19.0
v 32.5 -32.0 -19.0
v 33.0 -32.0 -18.6
v 33.0 -32.5 -15.0
v 33.0 -32.0 -15.5
v 33.0 -31.0 -18.2
v 32.4 -31.0 -16.0
v 33.0 -31.4 -16.0
v 33.0 -31.0 -16.6
v 33.0 -30.7 -18.0
v 32.1 -30.0 -18.0
v 33.0 -30.7 -17.0
v 33.4 -45.0 -7.0
v 33.5 -45.0 -6.0
v 33.5 -45.0 -5.0
v 33.2 -45.0 -4.0
v 34.0 -44.0 -9.2
v 34.0 -44.2 -9.0
v 34.0 -44.4 -8.0
v 34.0 -44.6 -7.0
v 34.0 -44.6 -6.0
v 34.0 -44.5 -5.0
v 34.0 -44.0 -4.4
v 33.6 -44.0 -4.0
v 33.5 -43.0 -10.0
v 34.0 -43.0 -9.6
v 34.0 -43.6 -4.0
v 34.0 -43.0 -3.6
v 33.5 -42.0 -11.0
v 34.0 -42.0 -10.5
v 34.0 -42.5 -10.0
v 34.0 -42.0 -3.5
v 33.6 -41.0 -12.0
v 34.0 -41.0 -11.6
v 34.0 -41.6 -11.0
v 34.0 -41.0 -3.5
v 33.6 -40.0 -13.0
v 34.0 -40.0 -12.7
v 34.0 -40.6 -12.0
v 33.4 -40.0 -4.0
v 34.0 -40.0 -3.6
v 33.4 -39.0 -16.0
v 33.6 -39.0 -15.0
v 34.0 -39.0 -14.5
v 34.0 -39.3 -14.0
v 34.0 -39.7 -13.0
v 33.6 -39.0 -4.0
v 34.0 -39.0 -3.7
v 34.0 -38.0 -17.4
v 34.0 -38.3 -17.0
v 34.0 -38.6 -16.0
v 34.0 -38.7 -15.0
v 34.0 -38.5 -4.0
v 34.0 -38.0 -4.3
v 34.0 -37.0 -18.4
v 34.0 -37.4 -18.0
v 33.2 -37.0 -8.0
v 33.6 -37.0 -5.0
v 34.0 -37.0 -4.7
v 34.0 -36.0 -18.5
v 33.4 -36.0 -10.0
v 33.5 -36.0 -9.0
v 33.7 -36.0 -8.0
v 34.0 -36.3 -7.0
v 34.0 -36.0 -7.6
v 34.0 -36.5 -6.0
v 34.0 -36.8 -5.0
v 34.0 -35.0 -18.5
v 34.0 -35.2 -12.0
v 34.0 -35.0 -12.3
v 34.0 -35.4 -11.0
v 34.0 -35.5 -10.0
v 34.0 -35.6 -9.0
v 34.0 -35.7 -8.0
v 34.0 -34.0 -18.6
v 33.3 -34.0 -14.0
v 34.0 -34.0 -13.4
v 34.0 -34.4 -13.0
v 34.0 -33.0 -19.0
v 34.0 -33.0 -19.0
v 33.7 -33.0 -14.0
v 34.0 -33.0 -13.8
v 33.7 -32.0 -18.0
v 34.0 -32.4 -18.0
v 34.0 -32.0 -17.6
v 34.0 -32.3 -15.0
v 34.0 -32.0 -15.4
v 34.0 -32.8 -14.0
v 33.2 -31.0 -18.0
v 34.0 -31.5 -17.0
v 33.4 -31.0 -17.0
v 34.0 -31.5 -16.0
v 34.2 -44.0 -9.0
v 34.6 -44.0 -8.0
v 35.0 -44.0 -7.5
v 35.0 -44.3 -7.0
v 35.0 -44.4 -6.0
v 35.0 -44.2 -5.0
v 35.0 -44.0 -4.7
v 34.5 -43.0 -9.0
v 35.0 -43.0 -8.5
v 35.0 -43.6 -8.0
v 35.0 -43.3 -4.0
v 35.0 -43.0 -3.8
v 34.4 -42.0 -10.0
v 34.8 -42.0 -9.0
v 35.0 -42.0 -8.8
v 35.0 -42.0 -3.6
v 35.0 -41.0 -11.4
v 35.0 -41.3 -11.0
v 35.0 -41.6 -10.0
v 35.0 -41.8 -9.0
v 35.0 -41.0 -3.6
v 35.0 -40.0 -12.5
v 35.0 -40.5 -12.0
v 35.0 -40.0 -3.6
v 34.5 -39.0 -14.0
v 35.0 -39.0 -13.6
v 35.0 -39.5 -13.0
v 35.0 -39.0 -3.5
v 34.5 -38.0 -17.0
v 35.0 -38.0 -16.6
v 35.0 -38.4 -16.0
v 35.0 -38.5 -15.0
v 35.0 -38.7 -14.0
v 34.5 -38.0 -4.0
v 35.0 -38.0 -3.7
v 35.0 -37.0 -18.2
v 35.0 -37.2 -18.0
v 35.0 -37.6 -17.0
v 35.0 -37.7 -4.0
v 35.0 -37.0 -4.6
v 35.0 -36.0 -18.4
v 34.5 -36.0 -7.0
v 35.0 -36.0 -6.5
v 35.0 -36.3 -6.0
v 35.0 -36.6 -5.0
v 35.0 -35.0 -18.4
v 34.3 -35.0 -12.0
v 34.5 -35.0 -11.0
v 34.6 -35.0 -10.0
v 35.0 -35.0 -9.5
v 35.0 -35.3 -9.0
v 35.0 -35.5 -8.0
v 35.0 -35.7 -7.0
v 35.0 -34.0 -18.3
v 34.5 -34.0 -13.0
v 35.0 -34.0 -12.5
v 35.0 -34.4 -12.0
v 35.0 -34.6 -11.0
v 35.0 -34.7 -10.0
v 35.0 -33.5 -18.0
v 34.6 -33.0 -18.0
v 35.0 -33.0 -17.7
v 35.0 -33.6 -13.0
v 35.0 -33.0 -13.5
v 35.0 -32.0 -17.4
v 34.5 -32.0 -15.0
v 35.0 -32.0 -14.6
v 35.0 -32.5 -14.0
v 35.0 -31.6 -17.0
v 35.0 -31.2 -16.0
v 35.0 -31.7 -15.0
v 35.4 -44.0 -7.0
v 35.4 -44.0 -6.0
v 35.2 -44.0 -5.0
v 36.0 -43.0 -8.2
v 36.0 -43.2 -8.0
v 36.0 -43.4 -7.0
v 36.0 -43.4 -6.0
v 36.0 -43.0 -5.6
v 35.6 -43.0 -5.0
v 35.2 -43.0 -4.0
v 36.0 -42.0 -8.5
v 35.7 -42.0 -5.0
v 36.0 -42.0 -5.3
v 35.4 -42.0 -4.0
v 35.5 -41.0 -11.0
v 36.0 -41.0 -10.5
v 36.0 -41.3 -10.0
v 36.0 -41.6 -9.0
v 36.0 -41.5 -5.0
v 36.0 -41.0 -4.6
v 35.4 -41.0 -4.0
v 36.0 -40.0 -12.4
v 36.0 -40.3 -12.0
v 36.0 -40.7 -11.0
v 35.6 -40.0 -4.0
v 36.0 -40.0 -4.4
v 36.0 -39.0 -13.5
v 36.0 -39.5 -13.0
v 36.0 -39.4 -4.0
v 36.0 -39.0 -3.8
v 36.0 -38.0 -16.2
v 36.0 -38.2 -16.0
v 36.0 -38.4 -15.0
v 36.0 -38.6 -14.0
v 36.0 -38.0 -3.8
v 35.2 -37.0 -18.0
v 35.5 -37.0 -17.0
v 36.0 -37.0 -16.6
v 36.0 -37.7 -4.0
v 36.0 -37.0 -4.7
v 35.4 -36.0 -18.0
v 35.8 -36.0 -17.0
v 36.0 -36.0 -16.7
v 35.5 -36.0 -6.0
v 36.0 -36.0 -5.7
v 36.0 -36.7 -5.0
v 35.4 -35.0 -18.0
v 36.0 -35.0 -17.4
v 36.0 -35.6 -17.0
v 35.5 -35.0 -9.0
v 36.0 -35.0 -8.6
v 36.0 -35.4 -8.0
v 36.0 -35.5 -7.0
v 36.0 -35.7 -6.0
v 35.4 -34.0 -18.0
v 36.0 -34.0 -17.5
v 35.6 -34.0 -12.0
v 36.0 -34.0 -11.6
v 36.0 -34.4 -11.0
v 36.0 -34.5 -10.0
v 36.0 -34.7 -9.0
v 36.0 -33.0 -17.4
v 36.0 -33.4 -13.0
v 36.0 -33.0 -13.5
v 36.0 -33.7 -12.0
v 36.0 -32.0 -17.0
v 35.8 -32.0 -16.0
v 36.0 -32.1 -16.0
v 36.0 -32.0 -16.8
v 36.0 -32.0 -15.5
v 36.0 -32.5 -14.0
v 36.0 -32.0 -14.8
v 36.0 -32.0 -17.0
v 36.0 -31.9 -15.0
v 36.2 -43.0 -8.0
v 36.4 -43.0 -7.0
v 36.3 -43.0 -6.0
v 36.5 -42.0 -8.0
v 36.7 -42.0 -7.0
v 36.9 -42.0 -6.0
v 36.5 -41.0 -10.0
v 37.0 -41.0 -9.4
v 37.0 -41.3 -9.0
v 37.0 -41.5 -8.0
v 37.0 -41.5 -7.0
v 37.0 -41.0 -6.5
v 36.7 -41.0 -6.0
v 36.3 -41.0 -5.0
v 36.5 -40.0 -12.0
v 37.0 -40.0 -11.6
v 37.0 -40.4 -11.0
v 37.0 -40.7 -10.0
v 36.6 -40.0 -6.0
v 37.0 -40.0 -6.6
v 36.4 -40.0 -5.0
v 37.0 -39.0 -13.6
v 37.0 -39.4 -13.0
v 37.0 -39.7 -12.0
v 36.9 -39.0 -7.0
v 37.0 -39.2 -7.0
v 37.0 -39.0 -7.1
v 36.6 -39.0 -6.0
v 36.5 -39.0 -5.0
v 36.2 -39.0 -4.0
v 36.3 -38.0 -16.0
v 36.6 -38.0 -15.0
v 37.0 -38.0 -14.7
v 37.0 -38.6 -14.0
v 37.0 -38.9 -7.0
v 37.0 -38.4 -6.0
v 37.0 -38.0 -5.7
v 36.6 -38.0 -5.0
v 36.2 -38.0 -4.0
v 37.0 -37.0 -16.2
v 37.0 -37.3 -16.0
v 37.0 -37.6 -15.0
v 36.4 -37.0 -5.0
v 37.0 -37.0 -5.5
v 37.0 -36.0 -16.3
v 37.0 -36.0 -5.8
v 36.3 -35.0 -17.0
v 37.0 -35.4 -16.0
v 36.8 -35.0 -16.0
v 37.0 -35.0 -15.8
v 37.0 -35.3 -8.0
v 37.0 -35.0 -8.4
v 37.0 -35.5 -7.0
v 37.0 -35.8 -6.0
v 36.5 -34.0 -17.0
v 37.0 -34.0 -16.4
v 37.0 -34.7 -16.0
v 37.0 -34.3 -11.0
v 37.0 -34.0 -11.4
v 37.0 -34.5 -10.0
v 37.0 -34.6 -9.0
v 36.4 -33.0 -17.0
v 37.0 -33.0 -16.3
v 37.0 -33.4 -13.0
v 37.0 -33.0 -13.5
v 37.0 -33.6 -12.0
v 36.0 -32.0 -17.0
v 37.0 -32.8 -16.0
v 36.2 -32.0 -15.0
v 37.0 -32.5 -15.0
v 37.0 -32.6 -14.0
v 37.3 -41.0 -9.0
v 37.4 -41.0 -8.0
v 37.3 -41.0 -7.0
v 38.0 -40.0 -11.5
v 38.0 -40.3 -11.0
v 38.0 -40.3 -10.0
v 37.7 -40.0 -9.0
v 38.0 -40.0 -9.5
v 37.6 -40.0 -8.0
v 37.3 -40.0 -7.0
v 37.5 -39.0 -14.0
v 38.0 -39.0 -14.3
v 38.0 -39.3 -14.0
v 38.0 -39.6 -13.0
v 38.0 -39.7 -12.0
v 38.0 -39.7 -9.0
v 38.0 -39.4 -8.0
v 38.0 -39.0 -7.7
v 38.0 -38.0 -14.5
v 37.5 -38.0 -7.0
v 38.0 -38.0 -7.4
v 37.3 -38.0 -6.0
v 37.2 -37.0 -16.0
v 37.5 -37.0 -15.0
v 38.0 -37.0 -14.4
v 37.7 -37.0 -7.0
v 38.0 -37.0 -7.3
v 37.4 -37.0 -6.0
v 37.2 -36.0 -16.0
v 37.5 -36.0 -15.0
v 38.0 -36.5 -14.0
v 37.7 -36.0 -14.0
v 38.0 -36.0 -13.6
v 38.0 -36.2 -7.0
v 38.0 -36.0 -6.9
v 37.2 -36.0 -6.0
v 37.4 -35.0 -15.0
v 37.7 -35.0 -14.0
v 38.0 -35.0 -13.6
v 37.8 -35.0 -8.0
v 38.0 -35.0 -7.9
v 38.0 -35.9 -7.0
v 37.3 -34.0 -16.0
v 37.6 -34.0 -15.0
v 38.0 -34.0 -14.3
v 38.0 -34.5 -14.0
v 37.6 -34.0 -11.0
v 38.0 -34.0 -10.7
v 38.0 -34.4 -10.0
v 38.0 -34.5 -9.0
v 38.0 -34.9 -8.0
v 37.2 -33.0 -16.0
v 37.5 -33.0 -15.0
v 38.0 -33.0 -14.0
v 38.0 -33.6 -13.0
v 38.0 -33.0 -14.0
v 38.0 -33.7 -12.0
v 38.0 -33.8 -11.0
v 38.0 -33.0 -14.0
v 39.0 -40.0 -13.0
v 39.0 -40.0 -13.0
v 39.0 -40.0 -13.0
v 39.0 -40.1 -12.0
v 38.9 -40.0 -12.0
v 38.4 -40.0 -11.0
v 39.0 -40.0 -11.9
v 38.3 -40.0 -10.0
v 39.0 -39.0 -14.6
v 39.0 -39.4 -14.0
v 39.0 -39.5 -11.0
v 39.0 -39.3 -10.0
v 38.6 -39.0 -9.0
v 39.0 -39.0 -9.5
v 38.3 -39.0 -8.0
v 39.0 -38.0 -14.3
v 39.0 -38.6 -9.0
v 39.0 -38.1 -8.0
v 39.0 -38.0 -7.9
v 39.0 -37.7 -14.0
v 38.4 -37.0 -14.0
v 38.6 -37.0 -13.0
v 39.0 -37.5 -13.0
v 38.7 -37.0 -12.0
v 39.0 -37.4 -12.0
v 39.0 -37.0 -11.5
v 38.6 -37.0 -8.0
v 39.0 -37.9 -8.0
v 39.0 -37.0 -8.4
v 38.4 -36.0 -13.0
v 38.5 -36.0 -12.0
v 39.0 -36.5 -11.0
v 38.7 -36.0 -11.0
v 39.0 -36.0 -10.6
v 38.6 -36.0 -8.0
v 39.0 -36.0 -8.5
v 38.1 -36.0 -7.0
v 38.4 -35.0 -13.0
v 38.5 -35.0 -12.0
v 38.7 -35.0 -11.0
v 39.0 -35.0 -10.4
v 38.1 -35.0 -8.0
v 39.0 -35.0 -8.7
v 38.2 -34.0 -14.0
v 38.4 -34.0 -13.0
v 38.4 -34.0 -12.0
v 38.6 -34.0 -11.0
v 39.0 -34.7 -10.0
v 39.0 -34.8 -9.0
v 38.0 -33.0 -14.0
v 39.0 -40.0 -13.0
v 39.1 -40.0 -12.0
v 39.3 -39.0 -14.0
v 39.5 -39.0 -13.0
v 39.5 -39.0 -12.0
v 39.4 -39.0 -11.0
v 39.3 -39.0 -10.0
v 39.2 -38.0 -14.0
v 39.4 -38.0 -13.0
v 39.4 -38.0 -12.0
v 39.5 -38.0 -11.0
v 39.5 -38.0 -10.0
v 39.4 -38.0 -9.0
v 39.1 -38.0 -8.0
v 39.3 -37.0 -11.0
v 39.5 -37.0 -10.0
v 39.4 -37.0 -9.0
v 39.4 -36.0 -10.0
v 39.4 -36.0 -9.0
v 39.2 -35.0 -10.0
v 39.2 -35.0 -9.0
f 3 2 1
f 1 4 3
f 7 6 5
f 9 8 5
f 5 8 7
f 9 10 8
f 1 2 11
f 11 2 12
f 4 1 13
f 13 1 11
f 5 6 14
f 14 6 15
f 17 9 16
f 9 14 16
f 9 5 14
f 9 17 10
f 12 18 11
f 11 18 13
f 14 15 19
f 19 15 20
f 16 14 21
f 21 14 19
f 24 23 22
f 24 22 20
f 22 19 20
f 22 25 19
f 21 19 26
f 26 19 25
f 22 23 27
f 27 23 28
f 22 29 25
f 22 27 29
f 26 25 30
f 30 25 29
f 28 31 27
f 27 31 29
f 29 31 32
f 29 32 30
f 35 34 33
f 37 36 33
f 33 36 35
f 37 38 36
f 41 40 39
f 41 39 34
f 39 33 34
f 39 42 33
f 33 43 37
f 33 42 43
f 38 37 44
f 44 37 43
f 47 46 45
f 49 48 45
f 45 48 47
f 51 50 49
f 49 50 48
f 53 52 51
f 51 52 50
f 2 3 53
f 3 52 53
f 3 54 52
f 55 39 4
f 39 54 4
f 54 3 4
f 39 40 54
f 39 56 42
f 39 55 56
f 58 43 57
f 43 56 57
f 43 42 56
f 43 58 44
f 45 46 7
f 46 6 7
f 46 59 6
f 45 7 8
f 45 8 49
f 49 8 10
f 60 49 10
f 51 49 60
f 51 61 53
f 51 60 61
f 61 12 2
f 61 2 53
f 63 62 55
f 4 63 55
f 13 63 4
f 55 62 56
f 56 62 64
f 56 64 57
f 67 66 65
f 59 67 65
f 15 59 65
f 6 59 15
f 16 68 17
f 60 10 17
f 68 60 17
f 69 60 68
f 60 70 61
f 60 69 70
f 71 18 12
f 61 71 12
f 70 71 61
f 71 72 18
f 72 13 18
f 72 63 13
f 65 66 73
f 73 66 74
f 73 20 15
f 73 15 65
f 21 75 68
f 21 68 16
f 68 76 69
f 68 75 76
f 69 77 70
f 69 76 77
f 79 71 78
f 71 77 78
f 71 70 77
f 71 79 72
f 73 74 24
f 74 23 24
f 74 80 23
f 73 24 20
f 26 81 75
f 26 75 21
f 75 82 76
f 75 81 82
f 84 77 83
f 77 82 83
f 77 76 82
f 77 84 78
f 80 28 23
f 85 28 80
f 88 87 86
f 30 86 26
f 87 26 86
f 26 87 81
f 89 81 87
f 81 89 90
f 92 82 91
f 82 90 91
f 82 81 90
f 82 92 83
f 85 93 28
f 28 93 31
f 86 32 88
f 32 93 88
f 32 31 93
f 89 94 90
f 32 86 30
f 90 94 91
f 96 95 35
f 35 95 34
f 97 35 36
f 97 96 35
f 36 38 97
f 97 38 98
f 101 100 99
f 103 102 99
f 99 102 101
f 40 41 103
f 41 102 103
f 41 104 102
f 41 34 95
f 41 95 104
f 44 98 38
f 44 105 98
f 108 107 106
f 46 47 106
f 47 108 106
f 47 109 108
f 110 47 48
f 110 109 47
f 111 48 50
f 111 110 48
f 52 99 100
f 111 52 100
f 50 52 111
f 99 52 54
f 99 54 103
f 103 54 40
f 113 112 58
f 113 58 57
f 44 58 105
f 105 58 112
f 106 107 114
f 114 107 115
f 114 59 46
f 114 46 106
f 63 116 62
f 62 116 117
f 118 62 117
f 64 62 118
f 57 64 113
f 113 64 118
f 114 115 67
f 115 66 67
f 115 119 66
f 114 67 59
f 121 120 116
f 63 121 116
f 72 121 63
f 116 120 117
f 119 74 66
f 122 74 119
f 124 123 79
f 124 79 78
f 72 79 121
f 121 79 123
f 126 80 125
f 80 122 125
f 80 74 122
f 127 126 125
f 83 128 84
f 128 129 84
f 129 78 84
f 129 124 78
f 130 85 126
f 126 85 80
f 87 88 131
f 127 132 126
f 130 126 132
f 131 89 87
f 91 133 92
f 128 83 92
f 133 128 92
f 134 128 133
f 129 128 135
f 135 128 134
f 130 93 85
f 130 132 93
f 132 136 93
f 131 88 93
f 131 93 136
f 131 136 89
f 136 94 89
f 136 137 94
f 91 94 133
f 94 138 133
f 94 137 138
f 133 138 134
f 134 138 139
f 134 139 135
f 142 141 140
f 144 143 140
f 140 143 142
f 144 145 143
f 148 147 146
f 150 149 146
f 146 149 148
f 150 151 149
f 154 153 152
f 95 96 152
f 96 154 152
f 96 155 154
f 97 140 141
f 155 97 141
f 96 97 155
f 144 140 156
f 140 98 156
f 98 157 156
f 98 140 97
f 144 156 145
f 160 159 158
f 160 158 147
f 158 146 147
f 158 161 146
f 161 100 101
f 150 161 101
f 146 161 150
f 162 151 150
f 101 162 150
f 102 162 101
f 104 152 153
f 162 104 153
f 102 104 162
f 152 104 95
f 105 157 98
f 105 163 157
f 165 164 108
f 108 164 107
f 166 108 109
f 166 165 108
f 110 158 159
f 166 110 159
f 109 110 166
f 158 110 111
f 158 111 161
f 161 111 100
f 168 167 112
f 168 112 113
f 105 112 163
f 163 112 167
f 164 115 107
f 169 115 164
f 171 170 118
f 171 118 117
f 113 118 168
f 168 118 170
f 169 119 115
f 172 119 169
f 174 173 120
f 174 120 121
f 117 120 171
f 171 120 173
f 172 122 119
f 175 122 172
f 124 176 123
f 176 177 123
f 177 121 123
f 177 174 121
f 125 122 178
f 122 179 178
f 122 175 179
f 178 127 125
f 129 180 176
f 129 176 124
f 177 176 181
f 181 176 180
f 179 182 178
f 127 178 182
f 183 127 182
f 132 127 183
f 185 184 180
f 129 185 180
f 135 185 129
f 180 184 181
f 183 186 132
f 132 186 136
f 136 187 137
f 186 187 136
f 137 188 138
f 187 188 137
f 138 189 139
f 188 189 138
f 135 139 185
f 185 139 189
f 192 191 190
f 190 193 192
f 196 195 194
f 141 142 194
f 142 196 194
f 142 197 196
f 143 190 191
f 197 143 191
f 142 143 197
f 143 145 190
f 145 193 190
f 145 198 193
f 201 200 199
f 147 148 199
f 148 201 199
f 148 202 201
f 203 148 149
f 203 202 148
f 205 204 151
f 204 149 151
f 204 203 149
f 153 154 205
f 154 204 205
f 154 206 204
f 155 194 195
f 206 155 195
f 154 155 206
f 194 155 141
f 157 207 156
f 207 208 156
f 208 145 156
f 208 198 145
f 199 200 160
f 200 159 160
f 200 209 159
f 199 160 147
f 162 205 151
f 205 162 153
f 211 210 207
f 157 211 207
f 163 211 157
f 207 210 208
f 212 164 165
f 212 165 213
f 165 214 213
f 165 166 214
f 166 159 209
f 166 209 214
f 216 215 167
f 216 167 168
f 163 167 211
f 211 167 215
f 217 169 212
f 212 169 164
f 212 213 218
f 212 218 217
f 171 219 170
f 219 220 170
f 220 168 170
f 220 216 168
f 221 172 217
f 217 172 169
f 217 218 222
f 217 222 221
f 174 223 173
f 223 224 173
f 173 224 171
f 224 225 171
f 225 219 171
f 219 225 220
f 226 175 221
f 221 175 172
f 221 222 227
f 221 227 226
f 177 228 223
f 177 223 174
f 224 223 229
f 229 223 228
f 230 179 226
f 226 179 175
f 226 227 231
f 226 231 230
f 181 232 228
f 181 228 177
f 229 228 233
f 233 228 232
f 230 182 179
f 183 182 230
f 231 183 230
f 234 183 231
f 185 235 184
f 235 236 184
f 184 236 181
f 236 237 181
f 237 232 181
f 232 237 233
f 186 183 238
f 183 239 238
f 183 234 239
f 186 238 240
f 241 186 240
f 187 186 241
f 187 242 188
f 241 242 187
f 188 243 189
f 242 243 188
f 185 189 235
f 189 244 235
f 189 243 244
f 235 244 236
f 239 245 238
f 238 245 240
f 248 247 246
f 191 192 246
f 192 248 246
f 192 249 248
f 251 250 193
f 250 192 193
f 250 249 192
f 253 252 251
f 251 252 250
f 253 254 252
f 257 256 255
f 259 258 255
f 255 258 257
f 261 260 259
f 259 260 258
f 195 196 261
f 196 260 261
f 196 262 260
f 197 246 247
f 262 197 247
f 196 197 262
f 246 197 191
f 198 263 251
f 198 251 193
f 265 253 264
f 253 263 264
f 253 251 263
f 253 265 254
f 266 200 201
f 266 201 267
f 201 268 267
f 201 202 268
f 203 255 256
f 268 203 256
f 202 203 268
f 255 203 204
f 255 204 259
f 259 204 206
f 259 206 261
f 261 206 195
f 270 269 263
f 198 270 263
f 208 270 198
f 263 269 264
f 272 271 266
f 271 200 266
f 271 209 200
f 272 266 267
f 211 273 210
f 270 208 274
f 208 273 274
f 273 275 274
f 208 210 273
f 275 276 274
f 278 277 214
f 214 277 213
f 214 209 271
f 214 271 278
f 216 279 215
f 273 211 215
f 279 273 215
f 280 273 279
f 273 281 275
f 273 280 281
f 276 275 282
f 282 275 281
f 277 218 213
f 283 218 277
f 220 284 279
f 220 279 216
f 279 285 280
f 279 284 285
f 287 281 286
f 281 285 286
f 281 280 285
f 281 287 282
f 283 222 218
f 288 222 283
f 224 289 225
f 284 220 225
f 289 284 225
f 290 284 289
f 292 285 291
f 285 290 291
f 285 284 290
f 285 292 286
f 288 227 222
f 293 227 288
f 229 294 289
f 229 289 224
f 296 290 295
f 290 294 295
f 290 289 294
f 290 296 291
f 293 231 227
f 297 231 293
f 299 298 294
f 229 299 294
f 233 299 229
f 294 298 295
f 297 234 231
f 300 234 297
f 302 301 237
f 302 237 236
f 233 237 299
f 299 237 301
f 300 239 234
f 303 239 300
f 240 304 241
f 305 242 241
f 305 241 304
f 306 243 242
f 306 242 305
f 307 244 243
f 307 243 306
f 307 308 244
f 308 236 244
f 308 302 236
f 303 309 239
f 239 309 245
f 245 309 240
f 309 310 240
f 310 304 240
f 310 309 311
f 304 312 305
f 304 310 312
f 305 313 306
f 305 312 313
f 315 307 314
f 307 313 314
f 307 306 313
f 307 315 308
f 311 316 310
f 310 316 312
f 312 316 317
f 319 318 317
f 318 312 317
f 318 313 312
f 314 313 320
f 320 313 318
f 319 321 318
f 318 321 320
f 324 323 322
f 326 325 322
f 322 325 324
f 326 327 325
f 329 328 248
f 248 328 247
f 330 248 249
f 330 329 248
f 331 249 250
f 331 330 249
f 252 322 323
f 331 252 323
f 250 252 331
f 322 252 254
f 332 322 254
f 326 322 332
f 327 326 333
f 333 326 332
f 334 256 257
f 334 257 335
f 257 336 335
f 257 258 336
f 337 258 260
f 337 336 258
f 338 260 262
f 338 337 260
f 262 247 328
f 262 328 338
f 264 339 265
f 339 340 265
f 265 340 254
f 340 341 254
f 341 332 254
f 332 341 333
f 342 267 268
f 343 342 268
f 343 268 256
f 344 343 256
f 334 344 256
f 344 334 335
f 270 345 269
f 339 264 269
f 345 339 269
f 346 339 345
f 340 339 347
f 347 339 346
f 349 348 272
f 272 348 271
f 272 267 342
f 350 272 342
f 349 272 350
f 350 342 343
f 274 345 270
f 345 274 276
f 351 345 276
f 346 345 351
f 347 346 352
f 352 346 351
f 353 277 278
f 354 353 278
f 271 354 278
f 348 354 271
f 282 355 351
f 282 351 276
f 352 351 356
f 356 351 355
f 357 283 353
f 353 283 277
f 353 354 358
f 353 358 357
f 286 359 287
f 355 282 287
f 359 355 287
f 360 355 359
f 356 355 361
f 361 355 360
f 363 362 357
f 362 283 357
f 362 288 283
f 363 357 358
f 291 364 292
f 359 286 292
f 364 359 292
f 365 359 364
f 367 360 366
f 360 365 366
f 360 359 365
f 360 367 361
f 362 293 288
f 368 293 362
f 295 369 296
f 369 370 296
f 296 370 291
f 370 371 291
f 371 364 291
f 364 371 365
f 365 371 372
f 365 372 366
f 368 297 293
f 373 297 368
f 375 374 298
f 375 298 299
f 295 298 369
f 298 376 369
f 298 374 376
f 369 376 370
f 373 300 297
f 377 300 373
f 379 378 301
f 379 301 302
f 299 301 375
f 375 301 378
f 377 303 300
f 380 303 377
f 308 379 302
f 308 381 379
f 380 382 303
f 303 382 309
f 311 309 382
f 311 382 383
f 314 384 315
f 384 385 315
f 385 308 315
f 385 381 308
f 316 311 386
f 311 387 386
f 311 383 387
f 388 317 316
f 388 316 386
f 388 319 317
f 390 389 384
f 314 390 384
f 320 390 314
f 384 389 385
f 386 387 391
f 391 387 392
f 386 393 388
f 386 391 393
f 388 393 319
f 393 394 319
f 394 321 319
f 393 395 394
f 320 321 390
f 390 321 394
f 392 396 391
f 391 396 393
f 393 396 397
f 393 397 395
f 400 399 398
f 323 324 398
f 324 400 398
f 324 401 400
f 402 324 325
f 402 401 324
f 404 403 327
f 403 325 327
f 403 402 325
f 404 405 403
f 408 407 406
f 410 409 406
f 406 409 408
f 328 329 410
f 329 409 410
f 329 411 409
f 412 329 330
f 412 411 329
f 331 398 399
f 412 331 399
f 330 331 412
f 398 331 323
f 333 413 404
f 333 404 327
f 405 404 414
f 404 415 414
f 404 413 415
f 415 416 414
f 417 335 336
f 407 418 406
f 418 336 406
f 336 337 406
f 336 418 417
f 406 337 338
f 406 338 410
f 410 338 328
f 340 419 341
f 413 333 341
f 419 413 341
f 420 413 419
f 422 415 421
f 415 420 421
f 415 413 420
f 415 422 416
f 424 423 344
f 344 423 343
f 344 335 417
f 425 344 417
f 424 344 425
f 425 417 418
f 347 426 419
f 347 419 340
f 428 420 427
f 420 426 427
f 420 419 426
f 420 428 421
f 429 348 349
f 429 349 430
f 349 431 430
f 349 350 431
f 350 343 423
f 350 423 431
f 352 432 426
f 352 426 347
f 427 426 433
f 433 426 432
f 435 434 429
f 434 348 429
f 434 354 348
f 435 429 430
f 356 436 432
f 356 432 352
f 433 432 437
f 437 432 436
f 434 358 354
f 438 358 434
f 440 439 436
f 356 440 436
f 361 440 356
f 436 439 437
f 442 441 363
f 363 441 362
f 363 358 438
f 363 438 442
f 444 443 367
f 444 367 366
f 361 367 440
f 440 367 443
f 441 368 362
f 445 368 441
f 370 446 371
f 371 446 447
f 448 371 447
f 372 371 448
f 366 372 444
f 444 372 448
f 445 373 368
f 449 373 445
f 375 450 374
f 374 450 451
f 452 374 451
f 376 374 452
f 370 376 446
f 376 453 446
f 376 452 453
f 446 453 447
f 449 377 373
f 454 377 449
f 456 455 378
f 456 378 379
f 375 378 450
f 378 457 450
f 378 455 457
f 450 457 451
f 454 380 377
f 458 380 454
f 381 456 379
f 381 459 456
f 382 380 460
f 380 461 460
f 380 458 461
f 460 383 382
f 385 459 381
f 385 462 459
f 460 461 463
f 463 461 464
f 463 387 383
f 463 383 460
f 466 465 389
f 466 389 390
f 385 389 462
f 462 389 465
f 463 464 467
f 467 464 468
f 467 392 387
f 467 387 463
f 395 469 394
f 469 470 394
f 470 390 394
f 470 466 390
f 467 468 471
f 471 468 472
f 473 396 392
f 467 473 392
f 471 473 467
f 396 473 474
f 475 396 474
f 397 396 475
f 395 397 469
f 397 476 469
f 397 475 476
f 469 476 470
f 472 477 471
f 471 477 473
f 473 477 478
f 473 478 474
f 481 480 479
f 399 400 479
f 400 481 479
f 400 482 481
f 483 400 401
f 483 482 400
f 484 401 402
f 484 483 401
f 485 402 403
f 485 484 402
f 403 405 485
f 485 405 486
f 487 407 408
f 487 408 488
f 408 489 488
f 408 409 489
f 490 409 411
f 490 489 409
f 412 479 480
f 490 412 480
f 411 412 490
f 479 412 399
f 491 486 405
f 491 405 414
f 493 492 416
f 492 414 416
f 492 491 414
f 493 494 492
f 496 495 487
f 495 407 487
f 495 418 407
f 496 487 488
f 421 497 422
f 497 498 422
f 422 498 416
f 498 499 416
f 499 493 416
f 493 499 494
f 500 423 424
f 500 424 501
f 424 502 501
f 424 425 502
f 425 418 495
f 425 495 502
f 427 503 428
f 497 421 428
f 503 497 428
f 504 497 503
f 498 497 505
f 497 506 505
f 497 504 506
f 506 507 505
f 508 430 431
f 509 508 431
f 509 431 423
f 510 509 423
f 500 510 423
f 510 500 501
f 433 511 503
f 433 503 427
f 503 512 504
f 503 511 512
f 514 506 513
f 506 512 513
f 506 504 512
f 506 514 507
f 515 434 435
f 516 515 435
f 516 435 430
f 517 516 430
f 508 517 430
f 517 508 509
f 437 518 511
f 437 511 433
f 520 512 519
f 512 518 519
f 512 511 518
f 512 520 513
f 522 521 515
f 521 434 515
f 521 438 434
f 522 515 516
f 524 523 439
f 524 439 440
f 437 439 518
f 439 525 518
f 439 523 525
f 518 525 519
f 526 441 442
f 527 526 442
f 438 527 442
f 521 527 438
f 444 528 443
f 528 529 443
f 529 440 443
f 529 524 440
f 531 530 526
f 530 441 526
f 530 445 441
f 531 526 527
f 533 532 448
f 533 448 447
f 444 448 528
f 448 534 528
f 448 532 534
f 528 534 529
f 530 449 445
f 535 449 530
f 451 536 452
f 452 536 537
f 538 452 537
f 453 452 538
f 447 453 533
f 533 453 538
f 535 454 449
f 539 454 535
f 541 540 455
f 541 455 456
f 455 542 457
f 540 542 455
f 451 457 536
f 457 543 536
f 457 542 543
f 536 543 537
f 539 458 454
f 544 458 539
f 459 541 456
f 459 545 541
f 544 461 458
f 546 461 544
f 549 548 547
f 548 545 547
f 545 462 547
f 545 459 462
f 546 464 461
f 550 464 546
f 549 547 465
f 466 549 465
f 551 549 466
f 465 547 462
f 550 468 464
f 552 468 550
f 555 554 553
f 554 551 553
f 551 470 553
f 551 466 470
f 557 472 556
f 472 552 556
f 472 468 552
f 558 557 556
f 474 559 475
f 560 555 553
f 475 560 553
f 476 475 553
f 560 475 559
f 476 553 470
f 557 477 472
f 558 561 557
f 561 477 557
f 561 478 477
f 474 478 559
f 478 562 559
f 478 561 562
f 559 562 560
f 564 563 481
f 481 563 480
f 565 481 482
f 565 564 481
f 566 482 483
f 566 565 482
f 567 483 484
f 567 566 483
f 568 484 485
f 568 567 484
f 570 569 486
f 569 485 486
f 569 568 485
f 572 571 570
f 570 571 569
f 574 573 572
f 572 573 571
f 574 575 573
f 576 488 489
f 576 489 577
f 489 578 577
f 489 490 578
f 490 480 563
f 490 563 578
f 491 570 486
f 570 491 492
f 570 492 572
f 572 492 494
f 579 572 494
f 574 572 579
f 575 574 580
f 580 574 579
f 581 495 496
f 488 576 496
f 576 581 496
f 576 582 581
f 576 577 583
f 576 583 582
f 498 584 499
f 579 494 499
f 584 579 499
f 585 579 584
f 580 579 586
f 586 579 585
f 587 501 502
f 495 581 502
f 581 587 502
f 581 588 587
f 582 590 589
f 588 582 589
f 581 582 588
f 590 582 583
f 505 584 498
f 584 505 507
f 591 584 507
f 585 584 591
f 586 585 592
f 592 585 591
f 593 509 510
f 501 587 510
f 587 593 510
f 587 594 593
f 595 587 588
f 594 587 595
f 588 589 596
f 588 596 595
f 513 597 514
f 597 598 514
f 514 598 507
f 598 599 507
f 599 591 507
f 591 599 592
f 600 516 517
f 601 600 517
f 601 517 509
f 602 601 509
f 593 602 509
f 602 593 594
f 602 594 603
f 603 594 595
f 603 595 604
f 604 595 596
f 606 605 520
f 606 520 519
f 513 520 597
f 520 607 597
f 520 605 607
f 597 607 598
f 608 521 522
f 609 608 522
f 609 522 516
f 610 609 516
f 600 610 516
f 610 600 601
f 524 611 523
f 523 611 612
f 613 523 612
f 525 523 613
f 519 525 606
f 606 525 613
f 615 614 608
f 614 521 608
f 614 527 521
f 615 608 609
f 617 616 611
f 524 617 611
f 529 617 524
f 611 616 612
f 619 618 531
f 531 618 530
f 531 527 614
f 531 614 619
f 621 620 532
f 621 532 533
f 532 622 534
f 620 622 532
f 529 534 617
f 617 534 622
f 618 535 530
f 623 535 618
f 625 624 538
f 625 538 537
f 533 538 621
f 621 538 624
f 623 539 535
f 626 539 623
f 541 627 540
f 540 627 628
f 629 540 628
f 542 540 629
f 542 630 543
f 629 630 542
f 537 543 625
f 625 543 630
f 626 544 539
f 631 544 626
f 545 632 627
f 545 627 541
f 628 627 633
f 633 627 632
f 631 546 544
f 634 546 631
f 636 635 548
f 636 548 549
f 545 548 632
f 548 637 632
f 548 635 637
f 632 637 633
f 634 550 546
f 638 550 634
f 551 636 549
f 551 639 636
f 641 552 640
f 552 638 640
f 552 550 638
f 642 641 640
f 555 643 554
f 643 644 554
f 644 551 554
f 644 639 551
f 641 556 552
f 558 556 641
f 642 558 641
f 645 558 642
f 647 646 643
f 555 647 643
f 560 647 555
f 643 646 644
f 645 648 558
f 558 648 561
f 561 649 562
f 648 649 561
f 560 562 647
f 647 562 649
f 650 563 564
f 565 651 564
f 564 651 650
f 651 565 652
f 565 653 652
f 565 566 653
f 654 566 567
f 654 653 566
f 655 567 568
f 655 654 567
f 656 568 569
f 656 655 568
f 657 569 571
f 657 656 569
f 658 571 573
f 658 657 571
f 573 575 658
f 658 575 659
f 660 577 578
f 563 650 578
f 650 660 578
f 650 661 660
f 651 663 662
f 661 651 662
f 650 651 661
f 663 651 652
f 580 659 575
f 580 664 659
f 666 665 660
f 665 577 660
f 665 583 577
f 666 660 661
f 666 661 667
f 667 661 662
f 586 664 580
f 586 668 664
f 669 589 590
f 670 669 590
f 583 670 590
f 665 670 583
f 592 668 586
f 592 671 668
f 673 672 669
f 672 589 669
f 672 596 589
f 673 669 670
f 598 674 599
f 674 675 599
f 675 592 599
f 675 671 592
f 676 601 602
f 603 677 602
f 602 677 676
f 677 603 678
f 603 679 678
f 603 604 679
f 604 596 672
f 604 672 679
f 606 680 605
f 681 607 605
f 681 605 680
f 681 682 607
f 607 682 598
f 682 683 598
f 683 674 598
f 674 683 675
f 685 684 610
f 610 684 609
f 610 601 676
f 686 610 676
f 685 610 686
f 686 676 677
f 686 677 687
f 687 677 678
f 612 688 613
f 688 689 613
f 613 689 606
f 689 690 606
f 690 680 606
f 680 690 681
f 681 690 691
f 681 691 682
f 693 692 615
f 615 692 614
f 615 609 684
f 615 684 693
f 695 694 616
f 695 616 617
f 612 616 688
f 616 696 688
f 616 694 696
f 688 696 689
f 697 618 619
f 698 697 619
f 614 698 619
f 692 698 614
f 621 699 620
f 620 699 700
f 701 620 700
f 622 620 701
f 617 622 695
f 695 622 701
f 703 702 697
f 702 618 697
f 702 623 618
f 703 697 698
f 705 704 624
f 705 624 625
f 621 624 699
f 624 706 699
f 624 704 706
f 699 706 700
f 702 626 623
f 707 626 702
f 628 708 629
f 629 708 709
f 710 629 709
f 630 629 710
f 625 630 705
f 705 630 710
f 707 631 626
f 711 631 707
f 714 713 712
f 713 715 708
f 633 713 708
f 628 633 708
f 712 713 633
f 708 715 709
f 711 634 631
f 716 634 711
f 636 717 635
f 718 714 712
f 635 718 712
f 637 635 712
f 718 635 717
f 637 712 633
f 716 638 634
f 719 638 716
f 721 720 717
f 636 721 717
f 639 721 636
f 717 720 718
f 719 722 638
f 638 722 640
f 642 640 722
f 642 722 723
f 644 721 639
f 644 724 721
f 723 645 642
f 725 645 723
f 728 727 726
f 646 647 726
f 727 646 726
f 729 646 727
f 644 646 724
f 724 646 729
f 725 730 645
f 645 730 648
f 726 649 728
f 649 730 728
f 649 648 730
f 649 726 647
f 731 652 653
f 654 732 653
f 653 732 731
f 732 654 733
f 654 734 733
f 654 655 734
f 735 655 656
f 735 734 655
f 736 656 657
f 736 735 656
f 737 657 658
f 737 736 657
f 658 659 737
f 737 659 738
f 739 662 663
f 740 739 663
f 740 663 652
f 741 740 652
f 731 741 652
f 741 731 732
f 741 732 742
f 742 732 733
f 664 738 659
f 664 743 738
f 744 665 666
f 667 745 666
f 666 745 744
f 746 745 667
f 746 667 662
f 747 746 662
f 739 747 662
f 747 739 740
f 668 743 664
f 668 748 743
f 749 670 744
f 744 670 665
f 745 751 750
f 749 745 750
f 744 745 749
f 751 745 746
f 671 748 668
f 671 752 748
f 753 672 673
f 754 753 673
f 754 673 670
f 755 754 670
f 749 755 670
f 755 749 750
f 675 752 671
f 675 756 752
f 757 678 679
f 758 757 679
f 758 679 672
f 759 758 672
f 753 759 672
f 759 753 754
f 761 760 683
f 761 683 682
f 675 683 756
f 756 683 760
f 762 684 685
f 762 685 763
f 685 764 763
f 685 686 764
f 765 686 687
f 765 764 686
f 687 678 757
f 766 687 757
f 765 687 766
f 766 757 758
f 689 767 690
f 768 691 690
f 768 690 767
f 768 769 691
f 769 682 691
f 769 761 682
f 770 692 693
f 771 770 693
f 771 693 684
f 772 771 684
f 762 772 684
f 772 762 763
f 695 773 694
f 774 696 694
f 774 694 773
f 767 689 696
f 774 767 696
f 775 767 774
f 767 776 768
f 767 775 776
f 769 768 777
f 777 768 776
f 779 778 770
f 778 692 770
f 778 698 692
f 779 770 771
f 700 780 701
f 780 781 701
f 701 781 695
f 781 782 695
f 782 773 695
f 784 783 782
f 783 773 782
f 783 774 773
f 774 785 775
f 774 783 785
f 787 776 786
f 776 785 786
f 776 775 785
f 776 787 777
f 788 702 703
f 789 788 703
f 698 789 703
f 778 789 698
f 705 790 704
f 704 790 791
f 792 704 791
f 706 704 792
f 700 706 780
f 706 793 780
f 706 792 793
f 780 793 781
f 784 794 783
f 783 794 785
f 785 794 795
f 785 795 786
f 796 707 788
f 788 707 702
f 788 789 797
f 788 797 796
f 799 798 710
f 799 710 709
f 705 710 790
f 710 800 790
f 710 798 800
f 790 800 791
f 801 711 796
f 796 711 707
f 796 797 802
f 796 802 801
f 804 803 713
f 804 713 714
f 713 805 715
f 803 805 713
f 709 715 799
f 799 715 805
f 807 806 801
f 806 711 801
f 806 716 711
f 807 801 802
f 718 804 714
f 718 808 804
f 810 719 809
f 719 806 809
f 719 716 806
f 811 810 809
f 813 812 720
f 813 720 721
f 718 720 808
f 808 720 812
f 810 722 719
f 723 722 810
f 811 723 810
f 814 723 811
f 817 816 815
f 816 813 815
f 813 724 815
f 813 721 724
f 819 725 818
f 725 814 818
f 725 723 814
f 727 728 819
f 818 727 819
f 820 727 818
f 815 729 817
f 729 820 817
f 729 727 820
f 729 815 724
f 819 730 725
f 730 819 728
f 821 733 734
f 735 822 734
f 734 822 821
f 736 823 735
f 735 823 822
f 737 824 736
f 736 824 823
f 738 824 737
f 826 825 741
f 741 825 740
f 827 741 742
f 827 826 741
f 742 733 821
f 828 742 821
f 827 742 828
f 828 821 822
f 828 822 829
f 829 822 823
f 829 823 830
f 832 831 830
f 823 832 830
f 824 832 823
f 743 832 738
f 738 832 824
f 833 746 747
f 834 833 747
f 740 834 747
f 825 834 740
f 835 831 832
f 832 743 835
f 743 836 835
f 743 748 836
f 837 750 751
f 838 837 751
f 838 751 746
f 839 838 746
f 833 839 746
f 839 833 834
f 752 836 748
f 752 840 836
f 841 754 755
f 842 841 755
f 842 755 750
f 843 842 750
f 837 843 750
f 843 837 838
f 756 840 752
f 756 844 840
f 845 758 759
f 846 845 759
f 846 759 754
f 847 846 754
f 841 847 754
f 847 841 842
f 761 848 760
f 848 849 760
f 849 756 760
f 849 844 756
f 850 763 764
f 765 851 764
f 764 851 850
f 851 765 852
f 765 853 852
f 765 766 853
f 766 758 845
f 854 766 845
f 853 766 854
f 854 845 846
f 769 855 848
f 769 848 761
f 849 848 856
f 856 848 855
f 858 857 772
f 772 857 771
f 772 763 850
f 859 772 850
f 858 772 859
f 859 850 851
f 859 851 860
f 860 851 852
f 862 861 855
f 769 862 855
f 777 862 769
f 855 861 856
f 864 863 779
f 779 863 778
f 779 771 857
f 779 857 864
f 781 865 782
f 865 784 782
f 786 866 787
f 866 867 787
f 867 777 787
f 867 862 777
f 863 789 778
f 868 789 863
f 791 869 792
f 870 793 792
f 870 792 869
f 865 781 793
f 870 865 793
f 871 865 870
f 865 871 784
f 871 872 784
f 872 794 784
f 871 873 872
f 794 874 795
f 872 874 794
f 786 795 866
f 795 875 866
f 795 874 875
f 866 875 867
f 868 797 789
f 876 797 868
f 878 877 798
f 878 798 799
f 798 879 800
f 877 879 798
f 791 800 869
f 800 880 869
f 800 879 880
f 869 880 870
f 870 880 881
f 870 881 871
f 871 881 882
f 871 882 873
f 876 802 797
f 883 802 876
f 804 884 803
f 803 884 885
f 886 803 885
f 805 803 886
f 799 805 878
f 878 805 886
f 887 806 807
f 888 887 807
f 802 888 807
f 883 888 802
f 808 889 884
f 808 884 804
f 885 884 890
f 890 884 889
f 887 809 806
f 892 891 811
f 892 811 809
f 888 892 809
f 887 888 809
f 893 891 892
f 895 894 812
f 895 812 813
f 808 812 889
f 812 896 889
f 812 894 896
f 889 896 890
f 897 814 891
f 891 814 811
f 891 893 898
f 899 891 898
f 897 891 899
f 816 817 899
f 898 816 899
f 900 816 898
f 813 816 895
f 895 816 900
f 897 818 814
f 818 897 820
f 820 897 899
f 820 899 817
f 901 825 826
f 827 902 826
f 826 902 901
f 902 827 903
f 827 904 903
f 827 828 904
f 905 828 829
f 905 904 828
f 906 829 830
f 906 905 829
f 830 831 906
f 906 831 907
f 908 834 901
f 901 834 825
f 902 910 909
f 908 902 909
f 901 902 908
f 910 902 903
f 911 907 831
f 911 831 835
f 835 836 911
f 911 836 912
f 913 838 839
f 834 908 839
f 908 913 839
f 908 914 913
f 908 909 915
f 908 915 914
f 840 912 836
f 840 916 912
f 918 917 843
f 843 917 842
f 843 838 913
f 919 843 913
f 918 843 919
f 919 913 914
f 919 914 920
f 920 914 915
f 844 916 840
f 844 921 916
f 923 922 847
f 847 922 846
f 847 842 917
f 847 917 923
f 849 921 844
f 849 924 921
f 925 852 853
f 925 853 926
f 853 927 926
f 853 854 927
f 854 846 922
f 854 922 927
f 856 924 849
f 856 928 924
f 929 857 858
f 929 858 930
f 858 931 930
f 858 859 931
f 932 859 860
f 932 931 859
f 860 852 925
f 933 860 925
f 932 860 933
f 933 925 926
f 862 934 861
f 934 935 861
f 935 856 861
f 935 928 856
f 937 936 864
f 864 936 863
f 864 857 929
f 938 864 929
f 937 864 938
f 938 929 930
f 940 939 934
f 862 940 934
f 867 940 862
f 934 939 935
f 936 868 863
f 941 868 936
f 873 942 872
f 872 942 943
f 944 872 943
f 874 872 944
f 874 945 875
f 944 945 874
f 867 875 940
f 940 875 945
f 941 876 868
f 946 876 941
f 878 947 877
f 948 879 877
f 948 877 947
f 949 880 879
f 949 879 948
f 880 949 950
f 951 880 950
f 881 880 951
f 881 952 882
f 951 952 881
f 873 882 942
f 882 953 942
f 882 952 953
f 942 953 943
f 946 883 876
f 954 883 946
f 885 955 886
f 955 956 886
f 886 956 878
f 956 957 878
f 957 947 878
f 947 957 948
f 948 957 958
f 948 958 949
f 949 958 959
f 949 959 950
f 961 888 960
f 888 954 960
f 888 883 954
f 962 961 960
f 964 963 955
f 885 964 955
f 890 964 885
f 955 963 956
f 961 892 888
f 893 892 961
f 962 893 961
f 965 893 962
f 895 966 894
f 894 966 967
f 968 894 967
f 896 894 968
f 890 896 964
f 964 896 968
f 965 969 893
f 893 969 898
f 898 970 900
f 969 970 898
f 895 900 966
f 900 971 966
f 900 970 971
f 966 971 967
f 972 903 904
f 905 973 904
f 904 973 972
f 906 974 905
f 905 974 973
f 907 974 906
f 976 975 910
f 910 975 909
f 910 903 972
f 977 910 972
f 976 910 977
f 977 972 973
f 977 973 978
f 980 979 978
f 973 980 978
f 974 980 973
f 911 981 907
f 981 974 907
f 981 980 974
f 912 981 911
f 975 915 909
f 982 915 975
f 979 980 983
f 979 983 984
f 985 980 981
f 983 980 985
f 916 985 912
f 912 985 981
f 986 917 918
f 986 918 987
f 918 988 987
f 918 919 988
f 989 919 920
f 989 988 919
f 920 915 982
f 920 982 989
f 990 984 983
f 992 991 990
f 983 992 990
f 985 992 983
f 921 992 916
f 916 992 985
f 994 993 923
f 923 993 922
f 923 917 986
f 995 923 986
f 994 923 995
f 995 986 987
f 991 992 996
f 991 996 997
f 924 996 921
f 921 996 992
f 999 998 927
f 927 998 926
f 927 922 993
f 927 993 999
f 1000 997 996
f 996 924 1000
f 924 1001 1000
f 924 928 1001
f 1003 1002 931
f 931 1002 930
f 1004 931 932
f 1004 1003 931
f 1005 932 933
f 1005 1004 932
f 933 926 998
f 933 998 1005
f 935 1001 928
f 935 1006 1001
f 1007 936 937
f 938 1008 937
f 937 1008 1007
f 1009 1008 938
f 930 1009 938
f 1002 1009 930
f 1011 1010 939
f 1011 939 940
f 935 939 1006
f 1006 939 1010
f 1012 941 1007
f 1007 941 936
f 1013 1007 1008
f 1012 1007 1013
f 1008 1009 1014
f 1008 1014 1013
f 943 1015 944
f 944 1015 1016
f 1017 944 1016
f 945 944 1017
f 940 945 1011
f 1011 945 1017
f 1018 946 1012
f 1012 946 941
f 1013 1020 1019
f 1018 1013 1019
f 1012 1013 1018
f 1020 1013 1014
f 950 1021 951
f 951 1021 1022
f 1023 951 1022
f 952 951 1023
f 952 1024 953
f 1023 1024 952
f 943 953 1015
f 953 1025 1015
f 953 1024 1025
f 1015 1025 1016
f 1026 954 1018
f 1018 954 946
f 1018 1019 1027
f 1018 1027 1026
f 956 1028 957
f 957 1028 1029
f 1030 957 1029
f 958 957 1030
f 958 1031 959
f 1030 1031 958
f 950 959 1021
f 959 1032 1021
f 959 1031 1032
f 1021 1032 1022
f 1026 960 954
f 962 960 1026
f 1027 962 1026
f 1033 962 1027
f 1035 1034 963
f 1035 963 964
f 956 963 1028
f 963 1036 1028
f 963 1034 1036
f 1028 1036 1029
f 1033 965 962
f 1037 965 1033
f 1040 1039 1038
f 1041 1038 1039
f 1043 1042 968
f 1043 968 967
f 964 968 1035
f 1035 968 1042
f 1037 1044 965
f 965 1044 969
f 1038 970 1040
f 970 1044 1040
f 970 969 1044
f 1041 1045 1038
f 1045 970 1038
f 1045 971 970
f 967 971 1043
f 1043 971 1045
f 1046 975 976
f 977 1047 976
f 976 1047 1046
f 978 1048 977
f 977 1048 1047
f 979 1048 978
f 1049 982 1046
f 1046 982 975
f 1050 1046 1047
f 1049 1046 1050
f 1051 1047 1048
f 1050 1047 1051
f 984 1051 979
f 979 1051 1048
f 1052 987 988
f 1052 988 1053
f 988 1054 1053
f 988 989 1054
f 989 982 1049
f 1055 989 1049
f 1054 989 1055
f 1055 1049 1050
f 1055 1050 1056
f 1058 1057 1056
f 1050 1058 1056
f 1051 1058 1050
f 990 1059 984
f 1059 1051 984
f 1059 1058 1051
f 991 1059 990
f 1060 993 994
f 1060 994 1061
f 994 1062 1061
f 994 995 1062
f 995 987 1052
f 1063 995 1052
f 1062 995 1063
f 1063 1052 1053
f 1057 1058 1064
f 1057 1064 1065
f 1066 1058 1059
f 1064 1058 1066
f 997 1066 991
f 991 1066 1059
f 1068 1067 999
f 999 1067 998
f 999 993 1060
f 1069 999 1060
f 1068 999 1069
f 1069 1060 1061
f 1072 1071 1070
f 1070 1071 1065
f 1064 1070 1065
f 1073 1070 1064
f 1074 1064 1066
f 1073 1064 1074
f 1000 1075 997
f 1075 1066 997
f 1075 1074 1066
f 1001 1075 1000
f 1076 1002 1003
f 1004 1077 1003
f 1003 1077 1076
f 1077 1004 1078
f 1004 1079 1078
f 1004 1005 1079
f 1005 998 1067
f 1005 1067 1079
f 1080 1072 1070
f 1080 1070 1073
f 1080 1073 1081
f 1083 1082 1081
f 1073 1083 1081
f 1074 1083 1073
f 1084 1074 1075
f 1083 1074 1084
f 1006 1084 1001
f 1001 1084 1075
f 1086 1085 1076
f 1085 1002 1076
f 1085 1009 1002
f 1086 1076 1077
f 1086 1077 1087
f 1087 1077 1078
f 1082 1083 1088
f 1082 1088 1089
f 1011 1088 1010
f 1088 1084 1010
f 1088 1083 1084
f 1010 1084 1006
f 1085 1014 1009
f 1090 1014 1085
f 1089 1088 1017
f 1016 1089 1017
f 1091 1089 1016
f 1017 1088 1011
f 1092 1019 1020
f 1014 1090 1093
f 1092 1014 1093
f 1094 1092 1093
f 1020 1014 1092
f 1095 1094 1093
f 1097 1096 1023
f 1097 1023 1022
f 1023 1098 1024
f 1096 1098 1023
f 1024 1099 1025
f 1098 1099 1024
f 1016 1025 1091
f 1091 1025 1099
f 1100 1027 1092
f 1092 1027 1019
f 1094 1102 1101
f 1100 1094 1101
f 1092 1094 1100
f 1102 1094 1095
f 1104 1103 1030
f 1104 1030 1029
f 1030 1105 1031
f 1103 1105 1030
f 1031 1106 1032
f 1105 1106 1031
f 1022 1032 1097
f 1097 1032 1106
f 1107 1033 1100
f 1100 1033 1027
f 1100 1101 1108
f 1100 1108 1107
f 1110 1109 1034
f 1110 1034 1035
f 1034 1111 1036
f 1109 1111 1034
f 1029 1036 1104
f 1104 1036 1111
f 1112 1037 1107
f 1107 1037 1033
f 1113 1039 1040
f 1107 1113 1040
f 1112 1107 1040
f 1113 1107 1108
f 1115 1114 1041
f 1039 1115 1041
f 1113 1115 1039
f 1042 1043 1114
f 1115 1042 1114
f 1116 1042 1115
f 1035 1042 1110
f 1110 1042 1116
f 1112 1044 1037
f 1044 1112 1040
f 1114 1045 1041
f 1045 1114 1043
f 1117 1053 1054
f 1055 1118 1054
f 1054 1118 1117
f 1056 1119 1055
f 1055 1119 1118
f 1057 1119 1056
f 1121 1120 1062
f 1062 1120 1061
f 1122 1062 1063
f 1122 1121 1062
f 1122 1063 1053
f 1123 1122 1053
f 1117 1123 1053
f 1122 1123 1124
f 1125 1117 1118
f 1123 1117 1125
f 1126 1118 1119
f 1125 1118 1126
f 1065 1126 1057
f 1057 1126 1119
f 1129 1128 1127
f 1067 1068 1127
f 1068 1129 1127
f 1068 1130 1129
f 1131 1068 1069
f 1131 1130 1068
f 1069 1061 1120
f 1069 1120 1131
f 1132 1124 1123
f 1132 1123 1125
f 1132 1125 1133
f 1072 1134 1071
f 1134 1125 1071
f 1125 1126 1071
f 1134 1133 1125
f 1071 1126 1065
f 1127 1128 1079
f 1128 1078 1079
f 1128 1135 1078
f 1127 1079 1067
f 1072 1080 1136
f 1137 1072 1136
f 1134 1072 1137
f 1081 1138 1080
f 1080 1138 1136
f 1082 1138 1081
f 1139 1085 1086
f 1087 1140 1086
f 1086 1140 1139
f 1141 1140 1087
f 1078 1141 1087
f 1135 1141 1078
f 1137 1136 1142
f 1137 1142 1143
f 1144 1136 1138
f 1142 1136 1144
f 1089 1144 1082
f 1082 1144 1138
f 1145 1090 1139
f 1139 1090 1085
f 1146 1139 1140
f 1145 1139 1146
f 1140 1141 1147
f 1148 1140 1147
f 1146 1140 1148
f 1149 1148 1147
f 1150 1143 1142
f 1152 1151 1150
f 1142 1152 1150
f 1144 1152 1142
f 1091 1152 1089
f 1089 1152 1144
f 1145 1093 1090
f 1093 1145 1095
f 1145 1153 1095
f 1145 1146 1153
f 1154 1146 1148
f 1153 1146 1154
f 1148 1149 1155
f 1148 1155 1154
f 1097 1156 1096
f 1096 1156 1157
f 1158 1096 1157
f 1098 1096 1158
f 1152 1099 1151
f 1099 1158 1151
f 1099 1098 1158
f 1099 1152 1091
f 1159 1101 1102
f 1095 1153 1102
f 1153 1159 1102
f 1153 1160 1159
f 1154 1162 1161
f 1160 1154 1161
f 1153 1154 1160
f 1162 1154 1155
f 1104 1163 1103
f 1103 1163 1164
f 1165 1103 1164
f 1105 1103 1165
f 1105 1166 1106
f 1165 1166 1105
f 1097 1106 1156
f 1106 1167 1156
f 1106 1166 1167
f 1156 1167 1157
f 1168 1108 1159
f 1159 1108 1101
f 1169 1159 1160
f 1168 1159 1169
f 1160 1161 1170
f 1160 1170 1169
f 1172 1171 1109
f 1172 1109 1110
f 1109 1173 1111
f 1171 1173 1109
f 1104 1111 1163
f 1111 1174 1163
f 1111 1173 1174
f 1163 1174 1164
f 1168 1113 1108
f 1113 1168 1115
f 1115 1168 1169
f 1170 1175 1169
f 1175 1115 1169
f 1175 1116 1115
f 1110 1116 1172
f 1172 1116 1175
f 1178 1177 1176
f 1180 1179 1176
f 1176 1179 1178
f 1120 1121 1181
f 1179 1180 1182
f 1122 1183 1121
f 1121 1183 1181
f 1124 1183 1122
f 1185 1184 1129
f 1129 1184 1128
f 1130 1176 1177
f 1185 1130 1177
f 1129 1130 1185
f 1176 1130 1131
f 1176 1131 1180
f 1131 1182 1180
f 1131 1186 1182
f 1131 1120 1181
f 1186 1131 1181
f 1186 1181 1183
f 1186 1183 1187
f 1189 1187 1188
f 1188 1187 1132
f 1187 1183 1132
f 1183 1124 1132
f 1133 1190 1132
f 1132 1190 1188
f 1134 1190 1133
f 1184 1135 1128
f 1191 1135 1184
f 1192 1189 1188
f 1192 1188 1190
f 1192 1190 1193
f 1190 1134 1193
f 1134 1194 1193
f 1134 1137 1194
f 1196 1141 1195
f 1141 1191 1195
f 1141 1135 1191
f 1198 1197 1196
f 1198 1196 1195
f 1200 1199 1197
f 1200 1197 1198
f 1201 1199 1200
f 1204 1203 1202
f 1203 1194 1202
f 1194 1143 1202
f 1194 1137 1143
f 1196 1147 1141
f 1147 1196 1149
f 1196 1205 1149
f 1196 1197 1205
f 1206 1197 1199
f 1205 1197 1206
f 1199 1201 1207
f 1208 1199 1207
f 1206 1199 1208
f 1209 1208 1207
f 1204 1202 1210
f 1204 1210 1211
f 1150 1212 1143
f 1212 1202 1143
f 1212 1210 1202
f 1151 1212 1150
f 1213 1155 1205
f 1205 1155 1149
f 1214 1205 1206
f 1213 1205 1214
f 1215 1206 1208
f 1214 1206 1215
f 1208 1209 1216
f 1208 1216 1215
f 1211 1210 1217
f 1211 1217 1218
f 1157 1217 1158
f 1217 1212 1158
f 1217 1210 1212
f 1158 1212 1151
f 1219 1161 1162
f 1155 1213 1162
f 1213 1219 1162
f 1213 1220 1219
f 1221 1213 1214
f 1220 1213 1221
f 1222 1214 1215
f 1221 1214 1222
f 1223 1165 1164
f 1215 1223 1164
f 1222 1215 1164
f 1223 1215 1216
f 1165 1224 1166
f 1223 1224 1165
f 1217 1167 1218
f 1167 1224 1218
f 1167 1166 1224
f 1167 1217 1157
f 1225 1170 1219
f 1219 1170 1161
f 1172 1225 1171
f 1225 1220 1171
f 1225 1219 1220
f 1171 1220 1173
f 1173 1220 1221
f 1173 1221 1174
f 1174 1221 1222
f 1174 1222 1164
f 1225 1175 1170
f 1175 1225 1172
f 1226 1177 1178
f 1179 1227 1178
f 1178 1227 1226
f 1182 1227 1179
f 1228 1184 1185
f 1177 1226 1185
f 1226 1228 1185
f 1226 1229 1228
f 1230 1226 1227
f 1229 1226 1230
f 1186 1231 1182
f 1231 1227 1182
f 1231 1230 1227
f 1187 1232 1186
f 1186 1232 1231
f 1189 1232 1187
f 1233 1191 1228
f 1228 1191 1184
f 1234 1228 1229
f 1233 1228 1234
f 1235 1229 1230
f 1234 1229 1235
f 1236 1230 1231
f 1235 1230 1236
f 1237 1231 1232
f 1236 1231 1237
f 1192 1238 1189
f 1238 1232 1189
f 1238 1237 1232
f 1193 1239 1192
f 1192 1239 1238
f 1194 1239 1193
f 1233 1195 1191
f 1195 1233 1198
f 1198 1233 1234
f 1198 1234 1200
f 1200 1234 1235
f 1200 1235 1201
f 1235 1240 1201
f 1235 1236 1240
f 1241 1236 1237
f 1240 1236 1241
f 1242 1237 1238
f 1241 1237 1242
f 1204 1242 1203
f 1242 1239 1203
f 1242 1238 1239
f 1203 1239 1194
f 1240 1207 1201
f 1207 1240 1209
f 1240 1243 1209
f 1240 1241 1243
f 1244 1241 1242
f 1243 1241 1244
f 1211 1244 1204
f 1204 1244 1242
f 1245 1216 1243
f 1243 1216 1209
f 1246 1243 1244
f 1245 1243 1246
f 1218 1246 1211
f 1211 1246 1244
f 1245 1223 1216
f 1223 1245 1224
f 1224 1245 1246
f 1224 1246 1218
