v -4.1 -59.0 -28.0
v -4.0 -59.0 -28.3
v -4.0 -59.2 -28.0
v -4.0 -59.0 -27.8
v -4.2 -58.0 -30.0
v -4.0 -58.0 -30.3
v -4.0 -58.3 -30.0
v -4.0 -58.6 -29.0
v -4.4 -58.0 -29.0
v -4.5 -58.0 -28.0
v -4.0 -58.4 -27.0
v -4.3 -58.0 -27.0
v -4.0 -58.0 -26.7
v -4.4 -57.0 -30.0
v -4.0 -57.0 -30.5
v -4.5 -57.0 -29.0
v -4.5 -57.0 -28.0
v -4.3 -57.0 -27.0
v -4.0 -57.0 -26.7
v -4.2 -56.0 -30.0
v -4.0 -56.0 -30.3
v -4.4 -56.0 -29.0
v -4.3 -56.0 -28.0
v -4.0 -56.0 -27.6
v -4.0 -56.6 -27.0
v -4.0 -55.7 -30.0
v -4.0 -55.5 -29.0
v -4.0 -55.7 -28.0
v -3.2 -60.0 -28.0
v -3.0 -60.0 -28.2
v -3.0 -60.1 -28.0
v -3.0 -60.0 -27.8
v -3.3 -59.0 -30.0
v -3.0 -59.0 -30.4
v -3.0 -59.3 -30.0
v -3.0 -59.6 -29.0
v -3.6 -59.0 -29.0
v -3.0 -59.5 -27.0
v -3.5 -59.0 -27.0
v -3.0 -59.0 -26.5
v -3.3 -58.0 -31.0
v -3.0 -58.0 -31.3
v -3.0 -58.4 -31.0
v -3.0 -58.4 -26.0
v -3.3 -58.0 -26.0
v -3.0 -58.0 -25.7
v -3.5 -57.0 -31.0
v -3.0 -57.0 -31.4
v -3.4 -57.0 -26.0
v -3.0 -57.0 -25.6
v -3.3 -56.0 -31.0
v -3.0 -56.0 -31.3
v -3.6 -56.0 -27.0
v -3.2 -56.0 -26.0
v -3.0 -56.0 -25.8
v -3.0 -55.6 -31.0
v -3.4 -55.0 -30.0
v -3.0 -55.0 -30.4
v -3.6 -55.0 -29.0
v -3.4 -55.0 -28.0
v -3.0 -55.0 -27.5
v -3.0 -55.4 -27.0
v -3.0 -55.7 -26.0
v -3.0 -54.6 -30.0
v -3.1 -54.0 -29.0
v -3.0 -54.0 -29.1
v -3.0 -54.0 -28.9
v -3.0 -54.5 -28.0
v -3.0 -53.9 -29.0
v -2.5 -60.0 -29.0
v -2.0 -60.0 -29.5
v -2.0 -60.3 -29.0
v -2.0 -60.5 -28.0
v -2.0 -60.4 -27.0
v -2.6 -60.0 -27.0
v -2.0 -60.2 -26.0
v -2.2 -60.0 -26.0
v -2.0 -60.0 -25.8
v -2.1 -59.0 -31.0
v -2.0 -59.0 -31.1
v -2.0 -59.1 -31.0
v -2.0 -59.7 -30.0
v -2.6 -59.0 -26.0
v -2.0 -59.0 -25.6
v -2.0 -58.0 -31.4
v -2.0 -58.0 -25.5
v -2.0 -57.0 -31.6
v -2.0 -57.0 -25.5
v -2.0 -56.0 -31.6
v -2.0 -56.0 -25.5
v -2.4 -55.0 -31.0
v -2.0 -55.0 -31.4
v -2.6 -55.0 -27.0
v -2.3 -55.0 -26.0
v -2.0 -55.0 -25.8
v -2.0 -54.6 -31.0
v -2.0 -54.3 -30.0
v -2.0 -54.0 -29.6
v -2.4 -54.0 -28.0
v -2.0 -54.0 -27.5
v -2.0 -54.4 -27.0
v -2.0 -54.7 -26.0
v -2.0 -53.6 -29.0
v -2.0 -53.7 -28.0
v -1.4 -60.0 -30.0
v -1.0 -60.0 -30.3
v -1.0 -60.2 -30.0
v -1.0 -60.5 -29.0
v -1.0 -60.5 -28.0
v -1.0 -60.5 -27.0
v -1.0 -60.3 -26.0
v -1.0 -60.0 -25.7
v -1.8 -59.0 -31.0
v -1.0 -59.0 -30.7
v -1.0 -59.0 -25.5
v -1.1 -58.0 -31.0
v -1.0 -58.0 -31.0
v -1.0 -58.0 -25.5
v -1.1 -57.0 -32.0
v -1.0 -57.0 -32.1
v -1.0 -57.1 -32.0
v -1.0 -58.0 -31.0
v -1.0 -57.0 -25.5
v -1.5 -56.0 -32.0
v -1.0 -56.0 -32.5
v -1.0 -56.0 -25.5
v -1.5 -55.0 -32.0
v -1.0 -55.0 -32.6
v -1.0 -55.0 -25.5
v -1.2 -54.0 -33.0
v -1.0 -54.0 -33.3
v -1.0 -54.5 -33.0
v -1.4 -54.0 -32.0
v -1.6 -54.0 -31.0
v -1.7 -54.0 -30.0
v -1.6 -54.0 -27.0
v -1.3 -54.0 -26.0
v -1.0 -54.0 -25.8
v -1.1 -53.0 -33.0
v -1.0 -53.0 -33.2
v -1.0 -53.0 -32.0
v -1.0 -53.0 -32.0
v -1.2 -53.0 -31.0
v -1.0 -53.0 -32.0
v -1.0 -53.0 -30.6
v -1.0 -53.3 -30.0
v -1.0 -53.4 -29.0
v -1.0 -53.4 -28.0
v -1.0 -53.5 -27.0
v -1.0 -53.7 -26.0
v -1.0 -52.8 -33.0
v -1.0 -52.7 -31.0
v 0.0 -60.0 -30.3
v 0.0 -60.2 -30.0
v 0.0 -60.4 -29.0
v 0.0 -60.4 -28.0
v 0.0 -60.4 -27.0
v 0.0 -60.2 -26.0
v 0.0 -60.0 -25.8
v -0.4 -59.0 -31.0
v 0.0 -59.0 -31.2
v 0.0 -59.3 -31.0
v 0.0 -59.0 -25.5
v -0.9 -58.0 -31.0
v 0.0 -58.0 -31.4
v 0.0 -58.0 -25.5
v -0.6 -57.0 -32.0
v 0.0 -57.0 -31.9
v 0.0 -57.0 -25.5
v -0.3 -56.0 -33.0
v 0.0 -56.0 -33.3
v 0.0 -56.3 -33.0
v 0.0 -56.9 -32.0
v 0.0 -56.0 -25.5
v -0.2 -55.0 -34.0
v 0.0 -55.0 -34.2
v 0.0 -55.3 -34.0
v -0.7 -55.0 -33.0
v 0.0 -55.0 -25.5
v -0.5 -54.0 -34.0
v 0.0 -54.0 -34.5
v 0.0 -54.0 -25.5
v -0.4 -53.0 -34.0
v 0.0 -53.0 -34.4
v -1.0 -53.0 -32.0
v -0.7 -53.0 -30.0
v -0.6 -53.0 -29.0
v -0.6 -53.0 -28.0
v -0.5 -53.0 -27.0
v -0.3 -53.0 -26.0
v 0.0 -53.0 -25.8
v 0.0 -52.5 -34.0
v -0.6 -52.0 -33.0
v 0.0 -52.0 -33.6
v -1.0 -52.0 -32.0
v -0.6 -52.0 -31.0
v -0.3 -52.0 -30.0
v 0.0 -52.0 -29.4
v 0.0 -52.3 -29.0
v -0.1 -52.0 -28.0
v 0.0 -52.0 -28.4
v 0.0 -52.0 -27.7
v 0.0 -52.4 -27.0
v 0.0 -52.8 -26.0
v -0.3 -51.0 -33.0
v 0.0 -51.0 -33.4
v -0.5 -51.0 -32.0
v -0.3 -51.0 -31.0
v 0.0 -51.0 -30.7
v 0.0 -51.7 -30.0
v 0.0 -51.8 -28.0
v 0.0 -50.5 -33.0
v -0.1 -50.0 -32.0
v 0.0 -50.0 -32.1
v 0.0 -50.0 -31.9
v 0.0 -50.7 -31.0
v 0.0 -49.9 -32.0
v 0.3 -60.0 -30.0
v 0.5 -60.0 -29.0
v 0.4 -60.0 -28.0
v 0.4 -60.0 -27.0
v 0.2 -60.0 -26.0
v 1.0 -59.0 -31.2
v 1.0 -59.2 -31.0
v 1.0 -59.5 -30.0
v 1.0 -59.5 -29.0
v 1.0 -59.4 -28.0
v 1.0 -59.0 -27.3
v 0.8 -59.0 -27.0
v 1.0 -59.0 -26.3
v 1.0 -59.1 -26.0
v 1.0 -59.0 -25.9
v 1.0 -58.0 -31.5
v 1.0 -58.8 -27.0
v 1.0 -58.0 -25.6
v 0.4 -57.0 -32.0
v 1.0 -57.0 -32.3
v 1.0 -57.3 -32.0
v 1.0 -57.0 -25.5
v 1.0 -56.0 -33.6
v 1.0 -56.5 -33.0
v 1.0 -56.0 -25.5
v 1.0 -55.0 -34.6
v 1.0 -55.6 -34.0
v 1.0 -55.0 -25.5
v 0.7 -54.0 -35.0
v 1.0 -54.0 -35.3
v 1.0 -54.4 -35.0
v 1.0 -54.0 -25.4
v 0.7 -53.0 -35.0
v 1.0 -53.0 -35.3
v 1.0 -53.0 -25.5
v 1.0 -52.5 -35.0
v 0.4 -52.0 -34.0
v 1.0 -52.0 -34.6
v 0.3 -52.0 -29.0
v 0.5 -52.0 -27.0
v 1.0 -52.0 -26.5
v 1.0 -52.4 -26.0
v 0.5 -51.0 -34.0
v 1.0 -51.0 -34.5
v 1.0 -51.3 -30.0
v 1.0 -51.0 -30.4
v 1.0 -51.5 -29.0
v 0.9 -51.0 -28.0
v 1.0 -51.0 -28.2
v 1.0 -51.0 -27.8
v 1.0 -51.5 -27.0
v 0.6 -50.0 -34.0
v 1.0 -50.0 -34.4
v 0.3 -50.0 -33.0
v 1.0 -50.5 -31.0
v 1.0 -50.0 -31.5
v 1.0 -50.9 -28.0
v 0.8 -49.0 -34.0
v 1.0 -49.0 -34.2
v 0.8 -49.0 -33.0
v 1.0 -49.5 -32.0
v 1.0 -49.0 -32.7
v 1.0 -48.8 -34.0
v 1.0 -48.8 -33.0
v 1.2 -59.0 -31.0
v 1.5 -59.0 -30.0
v 1.5 -59.0 -29.0
v 1.3 -59.0 -28.0
v 1.1 -59.0 -26.0
v 1.6 -58.0 -31.0
v 2.0 -58.0 -30.4
v 2.0 -58.4 -30.0
v 2.0 -58.4 -29.0
v 2.0 -58.0 -28.5
v 1.7 -58.0 -28.0
v 1.6 -58.0 -27.0
v 1.4 -58.0 -26.0
v 1.4 -57.0 -32.0
v 2.0 -57.0 -31.5
v 2.0 -57.5 -31.0
v 2.0 -57.7 -28.0
v 2.0 -57.6 -27.0
v 2.0 -57.3 -26.0
v 2.0 -57.0 -25.7
v 1.7 -56.0 -34.0
v 2.0 -56.0 -34.2
v 2.0 -56.1 -34.0
v 2.0 -56.5 -33.0
v 2.0 -56.7 -32.0
v 2.0 -56.0 -25.5
v 1.6 -55.0 -35.0
v 2.0 -55.0 -35.3
v 2.0 -55.3 -35.0
v 2.0 -55.0 -25.4
v 2.0 -54.0 -35.5
v 2.0 -54.3 -25.0
v 1.7 -54.0 -25.0
v 2.0 -54.0 -24.8
v 2.0 -53.0 -35.6
v 1.7 -53.0 -25.0
v 2.0 -53.0 -24.8
v 1.4 -52.0 -35.0
v 2.0 -52.0 -35.4
v 1.5 -52.0 -26.0
v 2.0 -52.0 -25.6
v 2.0 -52.7 -25.0
v 1.6 -51.0 -35.0
v 2.0 -51.0 -35.3
v 1.7 -51.0 -30.0
v 2.0 -51.0 -29.5
v 2.0 -51.2 -29.0
v 2.0 -51.0 -28.8
v 1.6 -51.0 -27.0
v 2.0 -51.0 -26.6
v 2.0 -51.5 -26.0
v 2.0 -50.5 -35.0
v 2.0 -50.0 -34.7
v 2.0 -50.5 -31.0
v 2.0 -50.0 -31.5
v 2.0 -50.8 -30.0
v 2.0 -50.6 -28.0
v 2.0 -50.7 -27.0
v 2.0 -49.0 -34.6
v 2.0 -49.5 -32.0
v 2.0 -49.0 -32.5
v 2.0 -48.5 -34.0
v 2.0 -48.6 -33.0
v 2.3 -58.0 -30.0
v 2.3 -58.0 -29.0
v 2.4 -57.0 -31.0
v 2.6 -57.0 -30.0
v 2.7 -57.0 -29.0
v 3.0 -57.3 -28.0
v 3.0 -57.0 -28.6
v 3.0 -57.4 -27.0
v 2.6 -57.0 -26.0
v 3.0 -57.0 -26.3
v 2.3 -56.0 -34.0
v 3.0 -56.0 -33.4
v 3.0 -56.3 -33.0
v 3.0 -56.4 -32.0
v 3.0 -56.5 -31.0
v 3.0 -56.6 -30.0
v 3.0 -56.8 -29.0
v 3.0 -56.8 -26.0
v 3.0 -56.0 -25.6
v 3.0 -55.0 -35.2
v 3.0 -55.2 -35.0
v 3.0 -55.6 -34.0
v 3.0 -55.0 -25.4
v 3.0 -54.0 -35.4
v 3.0 -54.3 -25.0
v 3.0 -54.0 -24.8
v 3.0 -53.0 -35.8
v 3.0 -53.0 -24.8
v 3.0 -52.0 -35.5
v 3.0 -52.7 -25.0
v 3.0 -52.0 -25.4
v 3.0 -51.0 -35.5
v 2.9 -51.0 -31.0
v 3.0 -51.1 -31.0
v 3.0 -51.0 -31.1
v 2.6 -51.0 -30.0
v 3.0 -51.1 -30.0
v 2.3 -51.0 -29.0
v 3.0 -51.0 -29.8
v 2.6 -51.0 -26.0
v 3.0 -51.0 -25.8
v 2.4 -50.0 -35.0
v 3.0 -50.0 -35.4
v 3.0 -50.0 -31.7
v 3.0 -50.7 -29.0
v 3.0 -50.4 -28.0
v 3.0 -50.5 -27.0
v 3.0 -50.8 -26.0
v 2.5 -49.0 -35.0
v 3.0 -49.0 -35.3
v 3.0 -49.7 -32.0
v 3.0 -49.0 -32.5
v 3.0 -48.5 -35.0
v 2.8 -48.0 -34.0
v 3.0 -48.0 -34.3
v 3.0 -48.0 -33.8
v 3.0 -48.5 -33.0
v 3.0 -47.9 -34.0
v 3.5 -57.0 -28.0
v 4.0 -57.0 -27.6
v 4.0 -57.5 -27.0
v 4.0 -57.7 -26.0
v 3.3 -57.0 -26.0
v 4.0 -57.0 -25.7
v 3.3 -56.0 -33.0
v 3.5 -56.0 -32.0
v 3.7 -56.0 -31.0
v 4.0 -56.0 -30.6
v 4.0 -56.4 -30.0
v 4.0 -56.5 -29.0
v 4.0 -56.7 -28.0
v 4.0 -56.0 -25.5
v 3.2 -55.0 -35.0
v 3.6 -55.0 -34.0
v 4.0 -55.0 -33.4
v 4.0 -55.3 -33.0
v 4.0 -55.5 -32.0
v 4.0 -55.7 -31.0
v 4.0 -55.0 -25.5
v 3.5 -54.0 -35.0
v 4.0 -54.0 -34.4
v 4.0 -54.4 -34.0
v 3.3 -54.0 -25.0
v 4.0 -54.0 -25.4
v 3.6 -53.0 -35.0
v 4.0 -53.0 -34.5
v 3.3 -53.0 -25.0
v 4.0 -53.0 -25.4
v 3.6 -52.0 -35.0
v 4.0 -52.0 -34.6
v 4.0 -52.0 -25.5
v 4.0 -51.0 -35.3
v 4.0 -51.4 -35.0
v 3.8 -51.0 -32.0
v 4.0 -51.2 -32.0
v 4.0 -51.0 -32.1
v 3.3 -51.0 -31.0
v 4.0 -51.0 -31.6
v 3.2 -51.0 -30.0
v 4.0 -51.0 -25.6
v 4.0 -50.0 -35.5
v 3.4 -50.0 -32.0
v 4.0 -50.0 -32.5
v 4.0 -50.8 -31.0
v 4.0 -50.6 -30.0
v 4.0 -50.4 -29.0
v 4.0 -50.0 -28.0
v 4.0 -50.3 -27.0
v 4.0 -50.6 -26.0
v 4.0 -49.0 -35.5
v 4.0 -49.0 -32.6
v 3.8 -48.0 -35.0
v 4.0 -48.0 -35.1
v 4.0 -48.6 -33.0
v 4.0 -48.0 -33.6
v 4.0 -47.9 -35.0
v 4.0 -47.7 -34.0
v 5.0 -57.0 -27.4
v 5.0 -57.7 -27.0
v 5.0 -57.3 -26.0
v 5.0 -57.0 -25.8
v 5.0 -56.0 -30.3
v 5.0 -56.2 -30.0
v 5.0 -56.4 -29.0
v 5.0 -56.5 -28.0
v 5.0 -56.0 -25.6
v 4.3 -55.0 -33.0
v 4.6 -55.0 -32.0
v 5.0 -55.0 -31.5
v 5.0 -55.4 -31.0
v 5.0 -55.0 -25.6
v 4.3 -54.0 -34.0
v 4.6 -54.0 -33.0
v 5.0 -54.0 -32.4
v 5.0 -54.5 -32.0
v 5.0 -54.0 -25.6
v 4.4 -53.0 -34.0
v 4.6 -53.0 -33.0
v 5.0 -53.0 -32.4
v 5.0 -53.0 -25.6
v 4.4 -52.0 -34.0
v 4.6 -52.0 -33.0
v 5.0 -52.5 -32.0
v 4.6 -52.0 -32.0
v 5.0 -52.0 -31.5
v 5.0 -52.0 -25.6
v 4.3 -51.0 -35.0
v 4.6 -51.0 -34.0
v 4.8 -51.0 -33.0
v 4.3 -51.0 -31.0
v 5.0 -51.5 -31.0
v 5.0 -51.0 -30.6
v 5.0 -51.0 -25.8
v 5.0 -50.0 -35.1
v 5.0 -50.1 -35.0
v 5.0 -50.0 -34.8
v 4.8 -50.0 -34.0
v 4.6 -50.0 -33.0
v 5.0 -50.6 -30.0
v 5.0 -50.5 -29.0
v 5.0 -50.3 -28.0
v 4.8 -50.0 -27.0
v 5.0 -50.0 -27.2
v 5.0 -50.0 -26.9
v 5.0 -50.7 -26.0
v 5.0 -49.0 -35.2
v 5.0 -49.7 -34.0
v 5.0 -49.1 -33.0
v 5.0 -49.0 -32.9
v 5.0 -49.9 -27.0
v 5.0 -48.7 -35.0
v 4.2 -48.0 -35.0
v 5.0 -48.0 -34.2
v 5.0 -48.9 -33.0
v 5.0 -48.0 -33.9
v 5.0 -47.9 -34.0
v 5.4 -57.0 -27.0
v 5.2 -57.0 -26.0
v 5.2 -56.0 -30.0
v 5.4 -56.0 -29.0
v 5.6 -56.0 -28.0
v 6.0 -56.0 -27.2
v 6.0 -56.1 -27.0
v 6.0 -56.0 -26.9
v 5.4 -56.0 -26.0
v 5.4 -55.0 -31.0
v 5.7 -55.0 -30.0
v 6.0 -55.0 -29.5
v 6.0 -55.4 -29.0
v 6.0 -55.6 -28.0
v 5.4 -55.0 -26.0
v 6.0 -55.0 -26.7
v 5.3 -54.0 -32.0
v 6.0 -54.0 -31.1
v 6.0 -54.1 -31.0
v 6.0 -54.6 -30.0
v 5.7 -54.0 -27.0
v 6.0 -54.5 -27.0
v 6.0 -54.0 -27.4
v 5.4 -54.0 -26.0
v 5.3 -53.0 -32.0
v 6.0 -53.8 -31.0
v 5.7 -53.0 -31.0
v 6.0 -53.0 -30.6
v 5.7 -53.0 -27.0
v 6.0 -53.0 -27.4
v 5.4 -53.0 -26.0
v 5.4 -52.0 -31.0
v 6.0 -52.0 -30.5
v 6.0 -52.5 -27.0
v 6.0 -52.0 -26.6
v 5.4 -52.0 -26.0
v 6.0 -51.0 -30.2
v 5.3 -51.0 -26.0
v 6.0 -51.0 -26.6
v 5.1 -50.0 -35.0
v 6.0 -50.8 -30.0
v 6.0 -50.7 -29.0
v 6.0 -50.6 -28.0
v 5.8 -50.0 -27.0
v 6.0 -50.1 -27.0
v 5.3 -49.0 -35.0
v 5.8 -49.0 -34.0
v 5.1 -49.0 -33.0
v 5.1 -48.0 -34.0
v 6.1 -56.0 -27.0
v 6.3 -55.0 -29.0
v 6.4 -55.0 -28.0
v 6.2 -55.0 -27.0
v 6.1 -54.0 -31.0
v 6.4 -54.0 -30.0
v 6.5 -54.0 -29.0
v 6.4 -54.0 -28.0
v 6.4 -53.0 -30.0
v 6.5 -53.0 -29.0
v 6.4 -53.0 -28.0
v 6.4 -52.0 -30.0
v 6.5 -52.0 -29.0
v 6.5 -52.0 -28.0
v 6.3 -52.0 -27.0
v 6.2 -51.0 -30.0
v 6.3 -51.0 -29.0
v 6.4 -51.0 -28.0
v 6.3 -51.0 -27.0
f 3 2 1
f 1 4 3
f 7 6 5
f 9 8 5
f 5 8 7
f 8 9 2
f 9 1 2
f 9 10 1
f 4 1 11
f 1 12 11
f 1 10 12
f 12 13 11
f 5 6 14
f 14 6 15
f 5 16 9
f 5 14 16
f 9 17 10
f 9 16 17
f 10 18 12
f 10 17 18
f 13 12 19
f 19 12 18
f 14 15 20
f 20 15 21
f 14 22 16
f 14 20 22
f 16 23 17
f 16 22 23
f 25 18 24
f 18 23 24
f 18 17 23
f 18 25 19
f 21 26 20
f 20 26 22
f 22 26 27
f 22 27 23
f 23 27 28
f 23 28 24
f 31 30 29
f 29 32 31
f 35 34 33
f 37 36 33
f 33 36 35
f 36 37 30
f 30 37 29
f 37 2 29
f 2 3 29
f 39 38 4
f 4 38 3
f 38 32 3
f 32 29 3
f 39 40 38
f 43 42 41
f 43 41 34
f 34 41 33
f 41 6 33
f 6 7 33
f 33 7 8
f 33 8 37
f 37 8 2
f 11 39 4
f 45 44 13
f 13 44 11
f 44 40 11
f 40 39 11
f 45 46 44
f 41 42 47
f 47 42 48
f 47 15 6
f 47 6 41
f 19 49 45
f 19 45 13
f 46 45 50
f 50 45 49
f 47 48 51
f 51 48 52
f 51 21 15
f 51 15 47
f 24 53 25
f 49 19 25
f 53 49 25
f 54 49 53
f 50 49 55
f 55 49 54
f 52 56 51
f 56 58 57
f 56 57 26
f 51 56 26
f 21 51 26
f 59 27 26
f 59 26 57
f 60 28 27
f 60 27 59
f 60 61 28
f 28 61 24
f 61 62 24
f 62 53 24
f 53 62 54
f 54 62 63
f 54 63 55
f 58 64 57
f 66 65 64
f 65 57 64
f 65 59 57
f 68 60 67
f 60 65 67
f 60 59 65
f 60 68 61
f 66 69 65
f 65 69 67
f 72 71 70
f 30 31 70
f 31 72 70
f 31 73 72
f 75 74 32
f 74 31 32
f 74 73 31
f 77 76 75
f 75 76 74
f 77 78 76
f 81 80 79
f 34 35 79
f 35 81 79
f 35 82 81
f 36 70 71
f 82 36 71
f 35 36 82
f 70 36 30
f 38 75 32
f 75 38 40
f 83 75 40
f 77 75 83
f 78 77 84
f 84 77 83
f 79 80 43
f 80 42 43
f 80 85 42
f 79 43 34
f 44 83 40
f 44 46 83
f 46 84 83
f 46 86 84
f 85 48 42
f 87 48 85
f 50 86 46
f 50 88 86
f 87 52 48
f 89 52 87
f 55 88 50
f 55 90 88
f 56 52 91
f 52 92 91
f 52 89 92
f 91 58 56
f 61 93 62
f 94 63 62
f 94 62 93
f 94 95 63
f 95 55 63
f 95 90 55
f 92 96 91
f 91 96 58
f 96 64 58
f 96 97 64
f 66 64 97
f 66 97 98
f 67 99 68
f 99 100 68
f 68 100 61
f 100 101 61
f 101 93 61
f 93 101 94
f 94 101 102
f 94 102 95
f 98 103 66
f 66 103 69
f 67 69 99
f 69 104 99
f 69 103 104
f 99 104 100
f 107 106 105
f 71 72 105
f 72 107 105
f 72 108 107
f 109 72 73
f 109 108 72
f 110 73 74
f 110 109 73
f 111 74 76
f 111 110 74
f 76 78 111
f 111 78 112
f 113 80 81
f 106 114 105
f 114 81 105
f 81 82 105
f 81 114 113
f 105 82 71
f 84 112 78
f 84 115 112
f 116 85 113
f 113 85 80
f 113 114 117
f 113 117 116
f 86 115 84
f 86 118 115
f 121 120 119
f 122 121 116
f 121 87 116
f 87 85 116
f 121 119 87
f 122 116 117
f 88 118 86
f 88 123 118
f 119 120 124
f 124 120 125
f 124 89 87
f 124 87 119
f 90 123 88
f 90 126 123
f 124 125 127
f 127 125 128
f 127 92 89
f 127 89 124
f 95 126 90
f 95 129 126
f 132 131 130
f 132 130 128
f 130 127 128
f 130 133 127
f 134 96 92
f 127 134 92
f 133 134 127
f 135 97 96
f 135 96 134
f 135 98 97
f 100 136 101
f 137 102 101
f 137 101 136
f 137 138 102
f 138 95 102
f 138 129 95
f 130 131 139
f 139 131 140
f 142 133 141
f 133 139 141
f 133 130 139
f 144 143 142
f 143 133 142
f 143 134 133
f 146 135 145
f 135 143 145
f 135 134 143
f 135 146 98
f 146 103 98
f 146 147 103
f 103 148 104
f 147 148 103
f 100 104 136
f 104 149 136
f 104 148 149
f 136 149 137
f 137 149 150
f 137 150 138
f 140 151 139
f 139 151 141
f 144 152 143
f 143 152 145
f 154 153 107
f 107 153 106
f 155 107 108
f 155 154 107
f 156 108 109
f 156 155 108
f 157 109 110
f 157 156 109
f 158 110 111
f 158 157 110
f 111 112 158
f 158 112 159
f 162 161 160
f 153 162 160
f 114 153 160
f 106 153 114
f 115 159 112
f 115 163 159
f 160 161 164
f 164 161 165
f 164 117 114
f 164 114 160
f 118 163 115
f 118 166 163
f 167 120 121
f 165 168 164
f 168 121 164
f 121 122 164
f 121 168 167
f 164 122 117
f 123 166 118
f 123 169 166
f 172 171 170
f 173 172 167
f 172 125 167
f 125 120 167
f 172 170 125
f 173 167 168
f 126 169 123
f 126 174 169
f 177 176 175
f 177 175 171
f 175 170 171
f 175 178 170
f 178 128 125
f 178 125 170
f 129 174 126
f 129 179 174
f 175 176 180
f 180 176 181
f 180 131 132
f 178 180 132
f 175 180 178
f 178 132 128
f 138 179 129
f 138 182 179
f 180 181 183
f 183 181 184
f 183 140 131
f 183 131 180
f 141 185 142
f 185 144 142
f 145 186 146
f 187 147 146
f 187 146 186
f 188 148 147
f 188 147 187
f 189 149 148
f 189 148 188
f 190 150 149
f 190 149 189
f 190 191 150
f 191 138 150
f 191 182 138
f 184 192 183
f 192 194 193
f 192 193 151
f 183 192 151
f 140 183 151
f 185 141 151
f 193 185 151
f 195 185 193
f 196 152 144
f 185 196 144
f 195 196 185
f 186 145 152
f 196 186 152
f 197 186 196
f 199 187 198
f 187 197 198
f 187 186 197
f 201 200 199
f 200 187 199
f 200 188 187
f 203 189 202
f 189 200 202
f 189 188 200
f 189 203 190
f 190 203 204
f 190 204 191
f 193 194 205
f 205 194 206
f 193 207 195
f 193 205 207
f 195 208 196
f 195 207 208
f 210 197 209
f 197 208 209
f 197 196 208
f 197 210 198
f 201 211 200
f 200 211 202
f 206 212 205
f 214 213 212
f 213 205 212
f 213 207 205
f 216 208 215
f 208 213 215
f 208 207 213
f 208 216 209
f 214 217 213
f 213 217 215
f 218 153 154
f 155 219 154
f 154 219 218
f 156 220 155
f 155 220 219
f 157 221 156
f 156 221 220
f 158 222 157
f 157 222 221
f 159 222 158
f 224 223 162
f 162 223 161
f 162 153 218
f 225 162 218
f 224 162 225
f 225 218 219
f 225 219 226
f 226 219 220
f 226 220 227
f 229 228 227
f 220 229 227
f 221 229 220
f 222 231 230
f 229 222 230
f 221 222 229
f 222 159 231
f 159 232 231
f 159 163 232
f 223 165 161
f 233 165 223
f 234 228 229
f 234 229 230
f 166 232 163
f 166 235 232
f 238 237 236
f 233 238 236
f 168 233 236
f 165 233 168
f 169 235 166
f 169 239 235
f 241 240 172
f 172 240 171
f 173 236 237
f 241 173 237
f 172 173 241
f 236 173 168
f 174 239 169
f 174 242 239
f 244 243 177
f 177 243 176
f 177 171 240
f 177 240 244
f 179 242 174
f 179 245 242
f 248 247 246
f 243 248 246
f 181 243 246
f 176 243 181
f 182 245 179
f 182 249 245
f 246 247 250
f 250 247 251
f 250 184 181
f 250 181 246
f 191 249 182
f 191 252 249
f 251 253 250
f 253 255 254
f 253 254 192
f 250 253 192
f 184 250 192
f 254 194 192
f 198 256 199
f 256 201 199
f 202 257 203
f 203 257 258
f 259 203 258
f 204 203 259
f 191 204 252
f 252 204 259
f 254 255 260
f 260 255 261
f 260 206 194
f 260 194 254
f 263 262 210
f 263 210 209
f 198 210 256
f 210 264 256
f 210 262 264
f 264 266 265
f 264 265 211
f 256 264 211
f 201 256 211
f 265 267 211
f 211 267 202
f 267 268 202
f 268 257 202
f 257 268 258
f 260 261 269
f 269 261 270
f 271 212 206
f 260 271 206
f 269 271 260
f 271 214 212
f 273 272 216
f 273 216 215
f 209 216 263
f 263 216 272
f 266 274 265
f 265 274 267
f 269 270 275
f 275 270 276
f 269 277 271
f 269 275 277
f 271 277 214
f 277 278 214
f 278 217 214
f 277 279 278
f 215 217 273
f 273 217 278
f 276 280 275
f 275 280 277
f 277 280 281
f 277 281 279
f 282 223 224
f 225 283 224
f 224 283 282
f 226 284 225
f 225 284 283
f 227 285 226
f 226 285 284
f 228 285 227
f 286 230 231
f 232 286 231
f 287 233 282
f 282 233 223
f 283 289 288
f 287 283 288
f 282 283 287
f 289 283 284
f 289 284 290
f 292 291 290
f 284 292 290
f 285 292 284
f 234 293 228
f 293 285 228
f 293 292 285
f 230 286 234
f 286 293 234
f 286 294 293
f 235 294 232
f 232 294 286
f 295 237 238
f 296 295 238
f 296 238 233
f 297 296 233
f 287 297 233
f 297 287 288
f 298 291 292
f 298 292 293
f 298 293 299
f 299 293 294
f 299 294 300
f 294 235 300
f 235 301 300
f 235 239 301
f 304 303 302
f 240 241 302
f 241 304 302
f 241 305 304
f 241 237 295
f 306 241 295
f 305 241 306
f 306 295 296
f 242 301 239
f 242 307 301
f 310 309 308
f 310 308 303
f 303 308 302
f 308 243 302
f 243 244 302
f 302 244 240
f 245 307 242
f 245 311 307
f 308 309 248
f 309 247 248
f 309 312 247
f 308 248 243
f 249 314 313
f 311 249 313
f 245 249 311
f 314 315 313
f 312 251 247
f 316 251 312
f 252 317 314
f 252 314 249
f 315 314 318
f 318 314 317
f 253 251 319
f 251 320 319
f 251 316 320
f 319 255 253
f 258 321 259
f 321 322 259
f 259 322 252
f 322 323 252
f 323 317 252
f 317 323 318
f 319 320 324
f 324 320 325
f 324 261 255
f 324 255 319
f 263 326 262
f 262 326 327
f 328 262 327
f 264 262 328
f 266 264 328
f 266 328 329
f 267 330 268
f 330 331 268
f 268 331 258
f 331 332 258
f 332 321 258
f 321 332 322
f 325 333 324
f 261 324 333
f 334 261 333
f 270 261 334
f 336 335 272
f 336 272 273
f 263 272 326
f 272 337 326
f 272 335 337
f 326 337 327
f 329 338 266
f 266 338 274
f 267 274 330
f 274 339 330
f 274 338 339
f 330 339 331
f 334 276 270
f 340 276 334
f 342 341 278
f 342 278 279
f 273 278 336
f 336 278 341
f 340 343 276
f 276 343 280
f 280 344 281
f 343 344 280
f 279 281 342
f 342 281 344
f 345 288 289
f 290 346 289
f 289 346 345
f 291 346 290
f 347 296 297
f 288 345 297
f 345 347 297
f 345 348 347
f 349 345 346
f 348 345 349
f 349 346 291
f 350 349 291
f 298 350 291
f 351 349 350
f 352 298 299
f 352 350 298
f 354 352 353
f 352 300 353
f 352 299 300
f 301 353 300
f 355 303 304
f 355 304 356
f 304 357 356
f 304 305 357
f 358 305 306
f 358 357 305
f 306 296 347
f 359 306 347
f 358 306 359
f 359 347 348
f 359 348 360
f 360 348 349
f 360 349 361
f 361 349 351
f 362 354 353
f 353 301 362
f 301 363 362
f 301 307 363
f 365 364 310
f 310 364 309
f 310 303 355
f 366 310 355
f 365 310 366
f 366 355 356
f 311 363 307
f 311 367 363
f 364 312 309
f 368 312 364
f 369 367 311
f 369 311 313
f 313 315 369
f 369 315 370
f 368 316 312
f 371 316 368
f 318 370 315
f 318 372 370
f 371 320 316
f 373 320 371
f 375 374 323
f 375 323 322
f 318 323 372
f 372 323 374
f 373 325 320
f 376 325 373
f 379 378 377
f 381 380 377
f 381 377 378
f 382 328 327
f 383 380 381
f 382 329 328
f 331 384 332
f 384 385 332
f 385 322 332
f 385 375 322
f 333 325 386
f 325 387 386
f 325 376 387
f 386 334 333
f 379 377 335
f 336 379 335
f 388 379 336
f 335 377 337
f 337 377 380
f 380 383 337
f 383 389 337
f 382 327 337
f 382 337 389
f 382 389 329
f 389 338 329
f 389 390 338
f 338 391 339
f 390 391 338
f 331 339 384
f 339 392 384
f 339 391 392
f 384 392 385
f 386 387 393
f 393 387 394
f 393 340 334
f 393 334 386
f 396 395 341
f 396 341 342
f 336 341 388
f 388 341 395
f 394 397 393
f 397 399 398
f 397 398 343
f 393 397 343
f 340 393 343
f 343 398 400
f 401 343 400
f 344 343 401
f 342 344 396
f 396 344 401
f 399 402 398
f 398 402 400
f 403 351 350
f 403 350 404
f 350 405 404
f 350 352 405
f 407 406 354
f 406 352 354
f 406 405 352
f 407 408 406
f 409 356 357
f 358 410 357
f 357 410 409
f 359 411 358
f 358 411 410
f 411 359 412
f 359 413 412
f 359 360 413
f 414 360 361
f 414 413 360
f 361 351 403
f 415 361 403
f 414 361 415
f 415 403 404
f 362 407 354
f 362 363 407
f 363 408 407
f 363 416 408
f 417 364 365
f 366 418 365
f 365 418 417
f 419 418 366
f 419 366 356
f 420 419 356
f 409 420 356
f 420 409 410
f 420 410 421
f 421 410 411
f 421 411 422
f 422 411 412
f 367 416 363
f 367 423 416
f 424 368 417
f 417 368 364
f 418 426 425
f 424 418 425
f 417 418 424
f 426 418 419
f 367 369 427
f 428 367 427
f 423 367 428
f 370 427 369
f 429 371 424
f 424 371 368
f 424 425 430
f 424 430 429
f 428 427 431
f 428 431 432
f 372 431 370
f 370 431 427
f 433 373 429
f 429 373 371
f 429 430 434
f 429 434 433
f 432 431 374
f 375 432 374
f 435 432 375
f 374 431 372
f 437 436 433
f 436 373 433
f 436 376 373
f 437 433 434
f 440 439 438
f 441 378 379
f 442 438 439
f 443 381 378
f 443 378 441
f 443 383 381
f 385 435 375
f 385 444 435
f 436 387 376
f 445 387 436
f 440 438 446
f 440 446 447
f 388 441 379
f 441 388 448
f 446 448 388
f 448 446 442
f 438 442 446
f 441 448 443
f 443 448 449
f 443 449 383
f 449 389 383
f 449 450 389
f 389 451 390
f 450 451 389
f 390 452 391
f 451 452 390
f 391 453 392
f 452 453 391
f 385 392 444
f 444 392 453
f 445 394 387
f 454 394 445
f 447 446 395
f 396 447 395
f 455 447 396
f 395 446 388
f 397 394 456
f 394 457 456
f 394 454 457
f 456 399 397
f 459 458 401
f 459 401 400
f 396 401 455
f 455 401 458
f 457 460 456
f 456 460 399
f 460 402 399
f 460 461 402
f 400 402 459
f 459 402 461
f 463 462 405
f 405 462 404
f 464 405 406
f 464 463 405
f 406 408 464
f 464 408 465
f 467 466 413
f 413 466 412
f 468 413 414
f 468 467 413
f 469 414 415
f 469 468 414
f 415 404 462
f 415 462 469
f 416 465 408
f 416 470 465
f 471 419 420
f 421 472 420
f 420 472 471
f 472 421 473
f 421 474 473
f 421 422 474
f 422 412 466
f 422 466 474
f 423 470 416
f 423 475 470
f 476 425 426
f 419 471 426
f 471 476 426
f 471 477 476
f 472 479 478
f 477 472 478
f 471 472 477
f 479 472 473
f 428 475 423
f 428 480 475
f 481 430 476
f 476 430 425
f 482 476 477
f 481 476 482
f 477 478 483
f 477 483 482
f 432 480 428
f 432 484 480
f 485 434 481
f 481 434 430
f 486 481 482
f 485 481 486
f 482 483 487
f 488 482 487
f 486 482 488
f 489 488 487
f 435 484 432
f 435 490 484
f 491 436 437
f 434 485 437
f 485 491 437
f 485 492 491
f 493 485 486
f 492 485 493
f 440 493 439
f 493 488 439
f 493 486 488
f 495 494 442
f 495 442 439
f 489 495 439
f 488 489 439
f 496 494 495
f 444 490 435
f 444 497 490
f 499 498 491
f 498 436 491
f 498 445 436
f 501 500 499
f 491 501 499
f 492 501 491
f 502 492 493
f 501 492 502
f 447 502 440
f 440 502 493
f 494 448 442
f 496 503 494
f 503 448 494
f 503 449 448
f 449 504 450
f 503 504 449
f 450 505 451
f 504 505 450
f 505 507 506
f 452 505 506
f 451 505 452
f 452 506 508
f 509 452 508
f 453 452 509
f 444 453 497
f 497 453 509
f 498 454 445
f 510 454 498
f 511 500 501
f 511 501 502
f 511 502 512
f 502 447 512
f 447 513 512
f 447 455 513
f 507 514 506
f 506 514 508
f 516 457 515
f 457 510 515
f 457 454 510
f 517 516 515
f 519 518 458
f 519 458 459
f 455 458 513
f 513 458 518
f 516 460 457
f 517 520 516
f 520 460 516
f 520 461 460
f 459 461 519
f 519 461 520
f 521 462 463
f 464 522 463
f 463 522 521
f 465 522 464
f 523 466 467
f 468 524 467
f 467 524 523
f 469 525 468
f 468 525 524
f 526 525 469
f 526 469 462
f 527 526 462
f 521 527 462
f 529 528 527
f 521 529 527
f 522 529 521
f 470 529 465
f 465 529 522
f 530 473 474
f 466 523 474
f 523 530 474
f 523 531 530
f 524 533 532
f 531 524 532
f 523 524 531
f 533 524 525
f 533 525 534
f 534 525 526
f 528 529 535
f 528 535 536
f 475 535 470
f 470 535 529
f 537 478 479
f 538 537 479
f 538 479 473
f 539 538 473
f 530 539 473
f 539 530 531
f 539 531 540
f 540 531 532
f 543 542 541
f 541 542 536
f 535 541 536
f 544 541 535
f 480 544 475
f 475 544 535
f 545 483 537
f 537 483 478
f 537 538 546
f 547 537 546
f 545 537 547
f 548 547 546
f 543 541 549
f 543 549 550
f 551 541 544
f 549 541 551
f 484 551 480
f 480 551 544
f 545 487 483
f 487 545 489
f 545 552 489
f 545 547 552
f 547 548 553
f 547 553 552
f 554 550 549
f 556 555 554
f 549 556 554
f 551 556 549
f 490 556 484
f 484 556 551
f 552 495 489
f 496 495 552
f 553 496 552
f 557 496 553
f 555 556 558
f 555 558 559
f 497 558 490
f 490 558 556
f 560 498 499
f 500 560 499
f 557 561 496
f 496 561 503
f 503 562 504
f 561 562 503
f 504 563 505
f 562 563 504
f 565 564 507
f 505 565 507
f 563 565 505
f 564 565 559
f 564 559 558
f 508 564 558
f 509 508 558
f 509 558 497
f 566 510 560
f 560 510 498
f 511 567 500
f 567 560 500
f 567 566 560
f 512 568 511
f 511 568 567
f 513 568 512
f 564 514 507
f 514 564 508
f 566 515 510
f 515 566 517
f 566 569 517
f 566 567 569
f 519 569 518
f 569 568 518
f 569 567 568
f 518 568 513
f 569 520 517
f 520 569 519
f 570 526 527
f 528 570 527
f 571 532 533
f 534 572 533
f 533 572 571
f 526 570 534
f 570 572 534
f 570 573 572
f 536 573 528
f 528 573 570
f 574 538 539
f 540 575 539
f 539 575 574
f 532 571 540
f 571 575 540
f 571 576 575
f 577 571 572
f 576 571 577
f 543 577 542
f 577 573 542
f 577 572 573
f 542 573 536
f 574 546 538
f 546 574 548
f 574 578 548
f 574 575 578
f 579 575 576
f 578 575 579
f 580 576 577
f 579 576 580
f 550 580 543
f 543 580 577
f 581 553 578
f 578 553 548
f 582 578 579
f 581 578 582
f 583 579 580
f 582 579 583
f 554 584 550
f 584 580 550
f 584 583 580
f 555 584 554
f 585 557 581
f 581 557 553
f 586 581 582
f 585 581 586
f 587 582 583
f 586 582 587
f 588 583 584
f 587 583 588
f 559 588 555
f 555 588 584
f 585 561 557
f 561 585 562
f 562 585 586
f 562 586 563
f 563 586 587
f 563 587 565
f 565 587 588
f 565 588 559
