v 34.7 -21.0 -1.0
v 35.0 -21.0 -1.5
v 35.0 -21.4 -1.0
v 35.0 -21.3 0.0
v 34.8 -21.0 0.0
v 35.0 -21.0 0.3
v 34.7 -20.0 -2.0
v 35.0 -20.0 -2.4
v 35.0 -20.5 -2.0
v 34.7 -20.0 -1.0
v 34.8 -20.0 0.0
v 35.0 -20.0 0.2
v 34.7 -19.0 -3.0
v 35.0 -19.0 -3.4
v 35.0 -19.5 -3.0
v 34.7 -19.0 -2.0
v 35.0 -19.0 -1.6
v 35.0 -19.6 -1.0
v 35.0 -19.8 0.0
v 34.7 -18.0 -4.0
v 35.0 -18.0 -4.4
v 35.0 -18.4 -4.0
v 34.5 -18.0 -3.0
v 34.8 -18.0 -2.0
v 35.0 -18.0 -1.8
v 34.7 -17.0 -5.0
v 35.0 -17.0 -5.3
v 35.0 -17.4 -5.0
v 34.5 -17.0 -4.0
v 34.6 -17.0 -3.0
v 35.0 -17.0 -2.6
v 35.0 -17.7 -2.0
v 34.6 -16.0 -5.0
v 35.0 -16.0 -5.5
v 34.5 -16.0 -4.0
v 34.7 -16.0 -3.0
v 35.0 -16.0 -2.7
v 34.8 -15.0 -5.0
v 35.0 -15.0 -5.3
v 34.7 -15.0 -4.0
v 35.0 -15.0 -3.0
v 35.0 -15.0 -3.0
v 35.0 -14.7 -5.0
v 35.0 -14.7 -4.0
v 35.0 -15.0 -3.0
v 35.7 -24.0 1.0
v 36.0 -24.0 0.6
v 36.0 -24.4 1.0
v 36.0 -24.4 2.0
v 35.3 -24.0 2.0
v 36.0 -24.0 2.4
v 35.7 -23.0 0.0
v 36.0 -23.0 -0.5
v 36.0 -23.4 0.0
v 35.5 -23.0 1.0
v 35.6 -23.0 2.0
v 36.0 -23.0 2.4
v 35.7 -22.0 -2.0
v 36.0 -22.0 -2.4
v 36.0 -22.3 -2.0
v 36.0 -22.6 -1.0
v 35.5 -22.0 -1.0
v 35.4 -22.0 0.0
v 35.5 -22.0 1.0
v 35.8 -22.0 2.0
v 36.0 -22.0 2.2
v 35.7 -21.0 -3.0
v 36.0 -21.0 -3.3
v 36.0 -21.4 -3.0
v 35.3 -21.0 -2.0
v 35.7 -21.0 1.0
v 36.0 -21.0 1.3
v 36.0 -21.7 2.0
v 35.4 -20.0 -3.0
v 36.0 -20.0 -3.6
v 36.0 -20.6 1.0
v 36.0 -20.0 0.5
v 35.5 -19.0 -4.0
v 36.0 -19.0 -4.5
v 36.0 -19.6 -4.0
v 36.0 -19.2 -1.0
v 36.0 -19.0 -1.2
v 36.0 -19.6 0.0
v 35.5 -18.0 -5.0
v 36.0 -18.0 -5.5
v 36.0 -18.5 -5.0
v 36.0 -18.0 -1.6
v 35.6 -17.0 -6.0
v 36.0 -17.0 -6.4
v 36.0 -17.4 -6.0
v 36.0 -17.5 -2.0
v 36.0 -17.0 -2.4
v 35.5 -16.0 -6.0
v 36.0 -16.0 -6.5
v 36.0 -16.0 -2.6
v 35.5 -15.0 -6.0
v 36.0 -15.0 -6.5
v 35.0 -15.0 -3.0
v 36.0 -15.4 -3.0
v 36.0 -15.0 -3.4
v 35.7 -14.0 -6.0
v 36.0 -14.0 -6.3
v 35.7 -14.0 -5.0
v 36.0 -14.0 -4.7
v 36.0 -14.5 -4.0
v 36.0 -13.7 -6.0
v 36.0 -13.7 -5.0
v 36.7 -25.0 1.0
v 37.0 -25.0 0.7
v 37.0 -25.2 1.0
v 37.0 -25.4 2.0
v 36.5 -25.0 2.0
v 37.0 -25.2 3.0
v 36.8 -25.0 3.0
v 37.0 -25.0 3.2
v 36.6 -24.0 0.0
v 37.0 -24.0 -0.4
v 37.0 -24.4 0.0
v 36.7 -24.0 3.0
v 37.0 -24.0 3.3
v 36.5 -23.0 -1.0
v 37.0 -23.0 -1.5
v 37.0 -23.4 -1.0
v 37.0 -23.5 3.0
v 37.0 -23.0 2.7
v 36.6 -22.0 -3.0
v 37.0 -22.0 -3.3
v 37.0 -22.3 -3.0
v 37.0 -22.7 -2.0
v 37.0 -22.0 2.4
v 36.7 -21.0 -4.0
v 37.0 -21.0 -4.3
v 37.0 -21.3 -4.0
v 37.0 -21.4 2.0
v 37.0 -21.0 1.6
v 36.4 -20.0 -4.0
v 37.0 -20.0 -4.6
v 37.0 -20.4 1.0
v 37.0 -20.0 0.6
v 36.5 -19.0 -5.0
v 37.0 -19.0 -5.5
v 37.0 -19.5 -5.0
v 36.4 -19.0 -1.0
v 37.0 -19.0 -0.6
v 37.0 -19.5 0.0
v 36.5 -18.0 -6.0
v 37.0 -18.0 -6.4
v 37.0 -18.5 -6.0
v 37.0 -18.6 -1.0
v 37.0 -18.0 -1.5
v 36.7 -17.0 -7.0
v 37.0 -17.0 -7.3
v 37.0 -17.3 -7.0
v 37.0 -17.4 -2.0
v 37.0 -17.0 -2.3
v 36.5 -16.0 -7.0
v 37.0 -16.0 -7.6
v 37.0 -16.0 -2.6
v 36.7 -15.0 -8.0
v 37.0 -15.0 -8.3
v 37.0 -15.4 -8.0
v 36.4 -15.0 -7.0
v 37.0 -15.5 -3.0
v 37.0 -15.0 -3.5
v 36.6 -14.0 -8.0
v 37.0 -14.0 -8.5
v 36.4 -14.0 -7.0
v 37.0 -14.5 -4.0
v 37.0 -14.0 -4.5
v 36.6 -13.0 -8.0
v 37.0 -13.0 -8.6
v 36.6 -13.0 -7.0
v 36.7 -13.0 -6.0
v 37.0 -13.0 -5.7
v 37.0 -13.5 -5.0
v 37.0 -12.0 -9.0
v 37.0 -12.0 -9.1
v 37.0 -12.1 -9.0
v 36.8 -12.0 -8.0
v 37.0 -12.0 -7.8
v 37.0 -12.6 -7.0
v 37.0 -12.8 -6.0
v 37.0 -12.0 -9.0
v 37.0 -11.8 -8.0
v 38.0 -25.0 0.5
v 38.0 -25.4 1.0
v 38.0 -25.5 2.0
v 38.0 -25.3 3.0
v 38.0 -25.0 3.3
v 38.0 -24.0 -0.5
v 38.0 -24.5 0.0
v 38.0 -24.0 3.5
v 37.5 -23.0 -2.0
v 38.0 -23.0 -2.4
v 38.0 -23.3 -2.0
v 38.0 -23.6 -1.0
v 37.5 -23.0 3.0
v 38.0 -23.0 3.3
v 38.0 -22.0 -3.5
v 38.0 -22.5 -3.0
v 38.0 -22.6 3.0
v 38.0 -22.0 2.6
v 38.0 -21.0 -4.5
v 38.0 -21.5 -4.0
v 37.7 -21.0 2.0
v 38.0 -21.0 2.1
v 37.5 -20.0 -5.0
v 38.0 -20.0 -5.4
v 38.0 -20.4 -5.0
v 37.5 -20.0 1.0
v 38.0 -20.0 1.3
v 38.0 -20.8 2.0
v 37.6 -19.0 -6.0
v 38.0 -19.0 -6.3
v 38.0 -19.3 -6.0
v 38.0 -19.3 0.0
v 38.0 -19.0 -0.3
v 38.0 -19.7 1.0
v 38.0 -18.0 -6.7
v 38.0 -18.3 -1.0
v 38.0 -18.0 -1.3
v 38.0 -17.0 -7.6
v 38.0 -17.7 -7.0
v 37.5 -17.0 -2.0
v 38.0 -17.0 -1.7
v 37.5 -16.0 -8.0
v 38.0 -16.0 -8.5
v 38.0 -16.5 -8.0
v 38.0 -16.6 -2.0
v 38.0 -16.0 -2.5
v 37.6 -15.0 -9.0
v 38.0 -15.0 -9.4
v 38.0 -15.4 -9.0
v 38.0 -15.4 -3.0
v 38.0 -15.0 -3.4
v 37.5 -14.0 -9.0
v 38.0 -14.0 -9.5
v 38.0 -14.5 -4.0
v 38.0 -14.0 -4.5
v 37.4 -13.0 -9.0
v 38.0 -13.0 -9.6
v 38.0 -13.5 -5.0
v 38.0 -13.0 -5.5
v 37.9 -12.0 -10.0
v 38.0 -12.0 -10.1
v 38.0 -12.2 -10.0
v 38.0 -12.3 -7.0
v 38.0 -12.0 -7.4
v 38.0 -12.6 -6.0
v 38.0 -11.9 -10.0
v 38.0 -11.6 -9.0
v 38.0 -11.6 -8.0
v 39.0 -25.0 0.6
v 39.0 -25.3 1.0
v 39.0 -25.5 2.0
v 39.0 -25.2 3.0
v 39.0 -25.0 3.2
v 39.0 -24.0 -0.6
v 39.0 -24.5 0.0
v 39.0 -24.0 3.4
v 39.0 -23.0 -2.5
v 39.0 -23.4 -2.0
v 39.0 -23.7 -1.0
v 39.0 -23.0 3.2
v 39.0 -22.0 -3.5
v 39.0 -22.5 -3.0
v 39.0 -22.7 3.0
v 39.0 -22.0 2.5
v 39.0 -21.0 -4.5
v 39.0 -21.5 -4.0
v 38.3 -21.0 2.0
v 39.0 -21.4 2.0
v 39.0 -21.0 1.7
v 39.0 -20.0 -5.6
v 39.0 -20.5 -5.0
v 39.0 -20.0 1.4
v 39.0 -19.0 -6.5
v 39.0 -19.6 -6.0
v 38.5 -19.0 0.0
v 39.0 -19.0 0.4
v 39.0 -19.5 1.0
v 38.5 -18.0 -7.0
v 39.0 -18.0 -7.4
v 39.0 -18.4 -7.0
v 38.4 -18.0 -1.0
v 39.0 -18.0 -0.6
v 39.0 -18.6 0.0
v 38.5 -17.0 -8.0
v 39.0 -17.0 -8.4
v 39.0 -17.4 -8.0
v 39.0 -17.5 -1.0
v 39.0 -17.0 -1.4
v 38.6 -16.0 -9.0
v 39.0 -16.0 -9.4
v 39.0 -16.4 -9.0
v 39.0 -16.3 -2.0
v 39.0 -16.0 -2.3
v 38.7 -15.0 -10.0
v 39.0 -15.0 -10.2
v 39.0 -15.3 -10.0
v 38.6 -15.0 -3.0
v 39.0 -15.0 -2.7
v 38.5 -14.0 -10.0
v 39.0 -14.0 -10.4
v 39.0 -14.3 -4.0
v 39.0 -14.0 -4.4
v 39.0 -14.7 -3.0
v 38.4 -13.0 -10.0
v 39.0 -13.0 -10.6
v 39.0 -13.5 -5.0
v 39.0 -13.0 -5.5
v 38.8 -12.0 -11.0
v 39.0 -12.0 -11.2
v 39.0 -12.3 -11.0
v 38.5 -12.0 -7.0
v 39.0 -12.0 -6.6
v 39.0 -12.5 -6.0
v 39.0 -11.8 -11.0
v 39.0 -11.5 -10.0
v 39.0 -11.4 -9.0
v 39.0 -11.5 -8.0
v 39.0 -11.7 -7.0
v 39.4 -25.0 1.0
v 40.0 -25.0 1.8
v 40.0 -25.1 2.0
v 39.3 -25.0 3.0
v 40.0 -25.0 2.1
v 39.8 -24.0 -1.0
v 40.0 -24.0 -1.1
v 40.0 -24.1 -1.0
v 40.0 -24.4 0.0
v 40.0 -24.6 1.0
v 39.5 -24.0 3.0
v 40.0 -24.0 2.6
v 40.0 -23.0 -2.4
v 40.0 -23.4 -2.0
v 39.3 -23.0 3.0
v 40.0 -23.0 2.6
v 40.0 -22.0 -3.5
v 40.0 -22.5 -3.0
v 40.0 -22.0 2.3
v 40.0 -21.0 -4.5
v 40.0 -21.5 -4.0
v 40.0 -21.6 2.0
v 40.0 -21.0 1.6
v 39.8 -20.0 -6.0
v 40.0 -20.0 -6.1
v 40.0 -20.1 -6.0
v 40.0 -20.6 -5.0
v 40.0 -20.0 1.4
v 40.0 -19.0 -6.7
v 40.0 -19.6 1.0
v 40.0 -19.0 0.4
v 40.0 -18.0 -7.6
v 40.0 -18.6 -7.0
v 40.0 -18.6 0.0
v 40.0 -18.0 -0.4
v 40.0 -17.0 -8.5
v 40.0 -17.6 -8.0
v 39.7 -17.0 -1.0
v 40.0 -17.0 -0.9
v 40.0 -16.0 -9.5
v 40.0 -16.5 -9.0
v 39.5 -16.0 -2.0
v 40.0 -16.0 -1.7
v 40.0 -16.8 -1.0
v 40.0 -15.0 -10.4
v 40.0 -15.5 -10.0
v 40.0 -15.6 -2.0
v 40.0 -15.0 -2.5
v 40.0 -14.0 -10.6
v 39.7 -14.0 -4.0
v 40.0 -14.0 -3.8
v 40.0 -14.6 -3.0
v 39.5 -13.0 -11.0
v 40.0 -13.0 -11.4
v 40.0 -13.4 -11.0
v 40.0 -13.5 -5.0
v 40.0 -13.0 -5.5
v 40.0 -13.9 -4.0
v 39.6 -12.0 -12.0
v 40.0 -12.0 -12.3
v 40.0 -12.3 -12.0
v 40.0 -12.5 -6.0
v 40.0 -12.0 -6.5
v 39.8 -11.0 -13.0
v 40.0 -11.0 -13.2
v 40.0 -11.3 -13.0
v 39.3 -11.0 -12.0
v 40.0 -11.1 -11.0
v 40.0 -11.0 -11.2
v 39.6 -11.0 -10.0
v 40.0 -11.0 -10.8
v 39.6 -11.0 -9.0
v 40.0 -11.0 -8.6
v 40.0 -11.4 -8.0
v 40.0 -11.6 -7.0
v 40.0 -10.0 -13.0
v 40.0 -10.0 -13.0
v 40.0 -10.0 -13.0
v 40.0 -10.6 -12.0
v 40.0 -10.6 -10.0
v 40.0 -10.7 -9.0
v 40.0 -10.0 -13.0
v 40.1 -25.0 2.0
v 40.1 -24.0 -1.0
v 40.5 -24.0 0.0
v 40.6 -24.0 1.0
v 41.0 -24.0 1.9
v 41.0 -24.1 2.0
v 41.0 -24.0 2.1
v 40.5 -23.0 -2.0
v 41.0 -23.0 -1.4
v 41.0 -23.3 -1.0
v 41.0 -23.5 0.0
v 41.0 -23.7 1.0
v 41.0 -23.0 2.2
v 41.0 -22.0 -3.3
v 41.0 -22.2 -3.0
v 41.0 -22.6 -2.0
v 40.4 -22.0 2.0
v 41.0 -22.6 2.0
v 41.0 -22.0 1.6
v 41.0 -21.0 -4.3
v 41.0 -21.3 -4.0
v 41.0 -21.0 1.4
v 40.2 -20.0 -6.0
v 41.0 -20.0 -5.5
v 41.0 -20.4 -5.0
v 41.0 -20.0 1.2
v 40.8 -19.0 -7.0
v 41.0 -19.0 -7.1
v 41.0 -19.1 -7.0
v 41.0 -19.5 -6.0
v 40.5 -19.0 0.0
v 41.0 -19.4 0.0
v 41.0 -19.0 -0.4
v 41.0 -19.8 1.0
v 40.8 -18.0 -8.0
v 41.0 -18.0 -8.1
v 41.0 -18.1 -8.0
v 41.0 -18.0 -0.7
v 41.0 -17.0 -8.6
v 40.3 -17.0 -1.0
v 41.0 -17.5 -1.0
v 41.0 -17.0 -1.3
v 41.0 -16.0 -9.5
v 41.0 -16.5 -9.0
v 41.0 -16.0 -1.7
v 41.0 -15.0 -10.4
v 41.0 -15.5 -10.0
v 41.0 -15.7 -2.0
v 41.0 -15.0 -2.7
v 41.0 -14.0 -10.6
v 40.7 -14.0 -5.0
v 41.0 -14.3 -5.0
v 41.0 -14.0 -5.3
v 40.2 -14.0 -4.0
v 41.0 -14.5 -4.0
v 41.0 -14.8 -3.0
v 41.0 -13.0 -11.5
v 41.0 -13.5 -11.0
v 41.0 -13.0 -5.7
v 41.0 -12.0 -12.5
v 41.0 -12.5 -12.0
v 41.0 -12.7 -6.0
v 41.0 -12.0 -6.6
v 41.0 -11.0 -13.4
v 41.0 -11.5 -13.0
v 40.1 -11.0 -11.0
v 41.0 -11.3 -8.0
v 41.0 -11.0 -8.3
v 41.0 -11.6 -7.0
v 41.0 -10.0 -14.0
v 41.0 -10.0 -14.0
v 41.0 -10.0 -14.0
v 41.0 -10.1 -12.0
v 41.0 -10.0 -12.2
v 40.7 -10.0 -11.0
v 41.0 -10.0 -11.7
v 40.7 -10.0 -10.0
v 41.0 -10.0 -9.6
v 41.0 -10.4 -9.0
v 41.0 -10.0 -14.0
v 41.0 -9.7 -13.0
v 41.0 -9.8 -11.0
v 41.0 -9.7 -10.0
v 41.1 -24.0 2.0
v 41.3 -23.0 -1.0
v 41.5 -23.0 0.0
v 41.8 -23.0 1.0
v 41.3 -23.0 2.0
v 41.2 -22.0 -3.0
v 41.5 -22.0 -2.0
v 41.5 -22.0 -1.0
v 41.5 -22.0 0.0
v 41.5 -22.0 1.0
v 41.3 -21.0 -4.0
v 41.7 -21.0 -3.0
v 42.0 -21.0 -2.3
v 42.0 -21.2 -2.0
v 42.0 -21.0 -1.7
v 41.7 -21.0 -1.0
v 41.5 -21.0 0.0
v 41.4 -21.0 1.0
v 41.4 -20.0 -5.0
v 42.0 -20.0 -4.3
v 42.0 -20.3 -4.0
v 42.0 -20.6 -3.0
v 42.0 -20.3 -1.0
v 42.0 -20.0 -0.8
v 41.5 -20.0 0.0
v 41.2 -20.0 1.0
v 41.1 -19.0 -7.0
v 41.5 -19.0 -6.0
v 41.7 -19.0 -5.0
v 42.0 -19.0 -4.6
v 41.6 -19.0 -1.0
v 42.0 -19.7 -1.0
v 42.0 -19.0 -1.4
v 41.1 -18.0 -8.0
v 41.7 -18.0 -7.0
v 42.0 -18.0 -6.6
v 42.0 -18.4 -6.0
v 42.0 -18.7 -5.0
v 41.4 -18.0 -1.0
v 42.0 -18.0 -1.6
v 42.0 -17.0 -8.4
v 42.0 -17.4 -8.0
v 42.0 -17.7 -7.0
v 42.0 -17.0 -1.8
v 42.0 -16.0 -9.5
v 42.0 -16.5 -9.0
v 41.8 -16.0 -4.0
v 42.0 -16.3 -4.0
v 42.0 -16.0 -4.3
v 41.6 -16.0 -3.0
v 42.0 -16.5 -3.0
v 41.3 -16.0 -2.0
v 42.0 -16.7 -2.0
v 42.0 -15.0 -10.4
v 42.0 -15.5 -10.0
v 41.5 -15.0 -4.0
v 42.0 -15.0 -4.7
v 41.2 -15.0 -3.0
v 42.0 -14.0 -10.6
v 41.7 -14.0 -6.0
v 42.0 -14.4 -6.0
v 42.0 -14.0 -6.4
v 42.0 -14.8 -5.0
v 42.0 -13.0 -11.5
v 42.0 -13.5 -11.0
v 41.3 -13.0 -6.0
v 42.0 -13.0 -6.5
v 42.0 -12.0 -12.5
v 42.0 -12.5 -12.0
v 42.0 -12.0 -6.7
v 42.0 -11.0 -13.4
v 42.0 -11.4 -13.0
v 41.6 -11.0 -8.0
v 42.0 -11.0 -7.8
v 42.0 -11.7 -7.0
v 41.9 -10.0 -14.0
v 42.0 -10.0 -14.0
v 41.2 -10.0 -12.0
v 41.8 -10.0 -9.0
v 42.0 -10.0 -8.9
v 42.0 -10.8 -8.0
v 42.0 -9.6 -13.0
v 42.0 -9.6 -12.0
v 42.0 -9.6 -11.0
v 42.0 -9.7 -10.0
v 42.0 -9.9 -9.0
v 42.2 -21.0 -2.0
v 42.2 -20.0 -4.0
v 42.4 -20.0 -3.0
v 42.4 -20.0 -2.0
v 42.1 -20.0 -1.0
v 42.4 -19.0 -4.0
v 42.5 -19.0 -3.0
v 42.4 -19.0 -2.0
v 42.4 -18.0 -6.0
v 42.5 -18.0 -5.0
v 42.5 -18.0 -4.0
v 42.5 -18.0 -3.0
v 42.4 -18.0 -2.0
v 42.5 -17.0 -8.0
v 43.0 -17.0 -7.3
v 43.0 -17.2 -7.0
v 43.0 -17.3 -6.0
v 43.0 -17.1 -5.0
v 43.0 -17.0 -4.9
v 42.5 -17.0 -4.0
v 42.4 -17.0 -3.0
v 42.2 -17.0 -2.0
v 43.0 -16.0 -9.3
v 43.0 -16.3 -9.0
v 43.0 -16.5 -8.0
v 42.7 -16.0 -6.0
v 43.0 -16.6 -6.0
v 43.0 -16.0 -6.5
v 42.5 -16.0 -5.0
v 43.0 -16.9 -5.0
v 43.0 -15.0 -10.3
v 43.0 -15.3 -10.0
v 42.7 -15.0 -7.0
v 43.0 -15.5 -7.0
v 43.0 -15.0 -7.3
v 42.4 -15.0 -6.0
v 42.2 -15.0 -5.0
v 43.0 -14.0 -10.6
v 42.5 -14.0 -7.0
v 43.0 -14.0 -7.5
v 43.0 -13.0 -11.5
v 43.0 -13.5 -11.0
v 42.5 -13.0 -7.0
v 43.0 -13.0 -7.5
v 43.0 -12.0 -12.3
v 43.0 -12.4 -12.0
v 42.3 -12.0 -7.0
v 43.0 -12.0 -7.7
v 42.5 -11.0 -13.0
v 43.0 -11.0 -12.6
v 42.8 -11.0 -11.0
v 43.0 -11.3 -11.0
v 43.0 -11.0 -11.3
v 42.7 -11.0 -10.0
v 43.0 -11.4 -10.0
v 43.0 -11.0 -9.3
v 42.3 -11.0 -8.0
v 43.0 -11.6 -8.0
v 43.0 -11.0 -8.8
v 43.0 -10.0 -13.1
v 43.0 -10.1 -13.0
v 42.4 -10.0 -11.0
v 43.0 -10.0 -11.7
v 42.3 -10.0 -10.0
v 43.0 -10.8 -9.0
v 42.1 -10.0 -9.0
v 43.0 -9.9 -13.0
v 43.0 -9.8 -12.0
v 43.2 -17.0 -7.0
v 43.2 -17.0 -6.0
v 43.1 -17.0 -5.0
v 43.3 -16.0 -9.0
v 43.5 -16.0 -8.0
v 43.3 -16.0 -7.0
v 43.4 -15.0 -10.0
v 44.0 -15.0 -9.4
v 44.0 -15.3 -9.0
v 44.0 -15.1 -8.0
v 44.0 -15.0 -7.9
v 44.0 -14.0 -10.3
v 44.0 -14.4 -10.0
v 43.6 -14.0 -8.0
v 44.0 -14.9 -8.0
v 44.0 -14.0 -8.6
v 44.0 -13.0 -11.1
v 44.0 -13.1 -11.0
v 43.7 -13.0 -9.0
v 44.0 -13.5 -9.0
v 44.0 -13.0 -9.6
v 43.4 -13.0 -8.0
v 44.0 -12.0 -12.0
v 44.0 -12.0 -12.0
v 44.0 -12.9 -11.0
v 43.6 -12.0 -11.0
v 44.0 -12.0 -12.0
v 43.5 -12.0 -10.0
v 44.0 -12.7 -10.0
v 43.5 -12.0 -9.0
v 43.3 -12.0 -8.0
v 44.0 -12.0 -12.0
v 43.9 -11.0 -12.0
v 43.1 -11.0 -9.0
v 43.1 -10.0 -13.0
v 43.2 -10.0 -12.0
v 44.2 -15.0 -9.0
v 44.1 -15.0 -8.0
v 44.2 -14.0 -10.0
v 44.3 -14.0 -9.0
v 44.1 -13.0 -11.0
v 44.2 -13.0 -10.0
v 44.0 -12.0 -12.0
f 3 2 1
f 5 4 1
f 1 4 3
f 5 6 4
f 9 8 7
f 9 7 2
f 7 1 2
f 7 10 1
f 1 11 5
f 1 10 11
f 6 5 12
f 12 5 11
f 15 14 13
f 15 13 8
f 13 7 8
f 13 16 7
f 18 10 17
f 10 16 17
f 10 7 16
f 10 18 11
f 11 18 19
f 11 19 12
f 22 21 20
f 22 20 14
f 20 13 14
f 20 23 13
f 13 24 16
f 13 23 24
f 17 16 25
f 25 16 24
f 28 27 26
f 28 26 21
f 26 20 21
f 26 29 20
f 20 30 23
f 20 29 30
f 32 24 31
f 24 30 31
f 24 23 30
f 24 32 25
f 26 27 33
f 33 27 34
f 26 35 29
f 26 33 35
f 29 36 30
f 29 35 36
f 31 30 37
f 37 30 36
f 33 34 38
f 38 34 39
f 33 40 35
f 33 38 40
f 35 41 36
f 35 40 41
f 37 36 42
f 42 36 41
f 39 43 38
f 38 43 40
f 40 43 44
f 40 44 41
f 41 44 45
f 41 45 42
f 48 47 46
f 50 49 46
f 46 49 48
f 50 51 49
f 54 53 52
f 54 52 47
f 52 46 47
f 52 55 46
f 46 56 50
f 46 55 56
f 51 50 57
f 57 50 56
f 60 59 58
f 62 61 58
f 58 61 60
f 61 62 53
f 62 52 53
f 62 63 52
f 52 64 55
f 52 63 64
f 55 65 56
f 55 64 65
f 57 56 66
f 66 56 65
f 69 68 67
f 69 67 59
f 67 58 59
f 67 70 58
f 70 2 3
f 62 70 3
f 58 70 62
f 62 3 4
f 62 4 63
f 63 4 6
f 71 63 6
f 64 63 71
f 73 65 72
f 65 71 72
f 65 64 71
f 65 73 66
f 67 68 74
f 74 68 75
f 74 8 9
f 70 74 9
f 67 74 70
f 70 9 2
f 77 76 71
f 6 77 71
f 12 77 6
f 71 76 72
f 80 79 78
f 80 78 75
f 75 78 74
f 78 14 74
f 14 15 74
f 74 15 8
f 82 81 18
f 82 18 17
f 18 83 19
f 81 83 18
f 12 19 77
f 77 19 83
f 86 85 84
f 86 84 79
f 79 84 78
f 84 21 78
f 21 22 78
f 78 22 14
f 25 82 17
f 25 87 82
f 90 89 88
f 90 88 85
f 85 88 84
f 88 27 84
f 27 28 84
f 84 28 21
f 92 91 32
f 92 32 31
f 25 32 87
f 87 32 91
f 88 89 93
f 93 89 94
f 93 34 27
f 93 27 88
f 37 92 31
f 37 95 92
f 93 94 96
f 96 94 97
f 96 39 34
f 96 34 93
f 100 99 98
f 99 95 98
f 95 42 98
f 95 37 42
f 96 97 101
f 101 97 102
f 103 43 39
f 96 103 39
f 101 103 96
f 43 103 104
f 105 43 104
f 44 43 105
f 98 45 100
f 45 105 100
f 45 44 105
f 45 98 42
f 102 106 101
f 101 106 103
f 103 106 107
f 103 107 104
f 110 109 108
f 112 111 108
f 108 111 110
f 114 113 112
f 112 113 111
f 114 115 113
f 118 117 116
f 118 116 109
f 109 116 108
f 116 47 108
f 47 48 108
f 108 48 49
f 108 49 112
f 112 49 51
f 119 112 51
f 114 112 119
f 115 114 120
f 120 114 119
f 123 122 121
f 123 121 117
f 117 121 116
f 121 53 116
f 53 54 116
f 116 54 47
f 125 124 119
f 51 125 119
f 57 125 51
f 119 124 120
f 128 127 126
f 59 60 126
f 60 128 126
f 60 129 128
f 61 121 122
f 129 61 122
f 60 61 129
f 121 61 53
f 66 125 57
f 66 130 125
f 133 132 131
f 133 131 127
f 127 131 126
f 131 68 126
f 68 69 126
f 126 69 59
f 135 134 73
f 135 73 72
f 66 73 130
f 130 73 134
f 131 132 136
f 136 132 137
f 136 75 68
f 136 68 131
f 139 138 76
f 139 76 77
f 72 76 135
f 135 76 138
f 142 141 140
f 142 140 137
f 137 140 136
f 140 79 136
f 79 80 136
f 136 80 75
f 82 143 81
f 81 143 144
f 145 81 144
f 83 81 145
f 77 83 139
f 139 83 145
f 148 147 146
f 148 146 141
f 141 146 140
f 146 85 140
f 85 86 140
f 140 86 79
f 150 149 143
f 82 150 143
f 87 150 82
f 143 149 144
f 153 152 151
f 153 151 147
f 147 151 146
f 151 89 146
f 89 90 146
f 146 90 85
f 155 154 91
f 155 91 92
f 87 91 150
f 150 91 154
f 151 152 156
f 156 152 157
f 156 94 89
f 156 89 151
f 95 155 92
f 95 158 155
f 161 160 159
f 161 159 157
f 159 156 157
f 159 162 156
f 162 97 94
f 162 94 156
f 164 163 99
f 164 99 100
f 95 99 158
f 158 99 163
f 159 160 165
f 165 160 166
f 159 167 162
f 159 165 167
f 167 102 97
f 167 97 162
f 169 168 105
f 169 105 104
f 100 105 164
f 164 105 168
f 165 166 170
f 170 166 171
f 165 172 167
f 165 170 172
f 173 106 102
f 167 173 102
f 172 173 167
f 106 173 174
f 175 106 174
f 107 106 175
f 104 107 169
f 169 107 175
f 178 177 176
f 178 176 171
f 176 170 171
f 176 179 170
f 181 172 180
f 172 179 180
f 172 170 179
f 172 181 173
f 173 181 182
f 173 182 174
f 177 183 176
f 176 183 179
f 179 183 184
f 179 184 180
f 186 185 110
f 110 185 109
f 187 110 111
f 187 186 110
f 188 111 113
f 188 187 111
f 113 115 188
f 188 115 189
f 191 190 118
f 118 190 117
f 118 109 185
f 118 185 191
f 120 189 115
f 120 192 189
f 195 194 193
f 122 123 193
f 123 195 193
f 123 196 195
f 123 117 190
f 123 190 196
f 125 197 124
f 197 198 124
f 198 120 124
f 198 192 120
f 200 199 128
f 128 199 127
f 129 193 194
f 200 129 194
f 128 129 200
f 193 129 122
f 202 201 197
f 125 202 197
f 130 202 125
f 197 201 198
f 204 203 133
f 133 203 132
f 133 127 199
f 133 199 204
f 135 205 134
f 205 206 134
f 206 130 134
f 206 202 130
f 209 208 207
f 203 209 207
f 137 203 207
f 132 203 137
f 139 210 138
f 210 211 138
f 138 211 135
f 211 212 135
f 212 205 135
f 205 212 206
f 215 214 213
f 215 213 208
f 208 213 207
f 213 141 207
f 141 142 207
f 207 142 137
f 217 216 145
f 217 145 144
f 139 145 210
f 145 218 210
f 145 216 218
f 210 218 211
f 213 214 148
f 214 147 148
f 214 219 147
f 213 148 141
f 221 220 149
f 221 149 150
f 144 149 217
f 217 149 220
f 223 222 153
f 153 222 152
f 153 147 219
f 153 219 223
f 155 224 154
f 224 225 154
f 225 150 154
f 225 221 150
f 228 227 226
f 222 228 226
f 157 222 226
f 152 222 157
f 230 229 224
f 155 230 224
f 158 230 155
f 224 229 225
f 233 232 231
f 233 231 227
f 227 231 226
f 231 160 226
f 160 161 226
f 226 161 157
f 235 234 163
f 235 163 164
f 158 163 230
f 230 163 234
f 231 232 236
f 236 232 237
f 236 166 160
f 236 160 231
f 239 238 168
f 239 168 169
f 164 168 235
f 235 168 238
f 236 237 240
f 240 237 241
f 240 171 166
f 240 166 236
f 243 242 175
f 243 175 174
f 169 175 239
f 239 175 242
f 246 245 244
f 246 244 241
f 241 244 240
f 244 177 240
f 177 178 240
f 240 178 171
f 248 247 181
f 248 181 180
f 181 249 182
f 247 249 181
f 174 182 243
f 243 182 249
f 245 250 244
f 244 250 177
f 250 183 177
f 250 251 183
f 183 252 184
f 251 252 183
f 180 184 248
f 248 184 252
f 254 253 186
f 186 253 185
f 255 186 187
f 255 254 186
f 256 187 188
f 256 255 187
f 188 189 256
f 256 189 257
f 259 258 191
f 191 258 190
f 191 185 253
f 191 253 259
f 192 257 189
f 192 260 257
f 262 261 195
f 195 261 194
f 263 195 196
f 263 262 195
f 196 190 258
f 196 258 263
f 198 260 192
f 198 264 260
f 266 265 200
f 200 265 199
f 200 194 261
f 200 261 266
f 268 267 201
f 268 201 202
f 198 201 264
f 264 201 267
f 270 269 204
f 204 269 203
f 204 199 265
f 204 265 270
f 273 272 271
f 272 268 271
f 268 206 271
f 268 202 206
f 275 274 209
f 209 274 208
f 209 203 269
f 209 269 275
f 273 271 212
f 211 273 212
f 276 273 211
f 212 271 206
f 278 277 215
f 215 277 214
f 215 208 274
f 215 274 278
f 217 279 216
f 216 279 280
f 281 216 280
f 218 216 281
f 211 218 276
f 276 218 281
f 284 283 282
f 277 284 282
f 219 277 282
f 214 277 219
f 221 285 220
f 285 286 220
f 220 286 217
f 286 287 217
f 287 279 217
f 279 287 280
f 290 289 288
f 290 288 283
f 283 288 282
f 288 222 282
f 222 223 282
f 282 223 219
f 292 291 285
f 221 292 285
f 225 292 221
f 285 291 286
f 295 294 293
f 295 293 289
f 289 293 288
f 293 227 288
f 227 228 288
f 288 228 222
f 297 296 229
f 297 229 230
f 225 229 292
f 292 229 296
f 300 299 298
f 300 298 294
f 294 298 293
f 298 232 293
f 232 233 293
f 293 233 227
f 235 301 234
f 301 302 234
f 302 230 234
f 302 297 230
f 298 299 303
f 303 299 304
f 303 237 232
f 303 232 298
f 306 305 238
f 306 238 239
f 235 238 301
f 238 307 301
f 238 305 307
f 301 307 302
f 303 304 308
f 308 304 309
f 308 241 237
f 308 237 303
f 311 310 242
f 311 242 243
f 239 242 306
f 306 242 310
f 314 313 312
f 314 312 309
f 309 312 308
f 312 245 308
f 245 246 308
f 308 246 241
f 248 315 247
f 247 315 316
f 317 247 316
f 249 247 317
f 243 249 311
f 311 249 317
f 313 318 312
f 312 318 245
f 318 250 245
f 318 319 250
f 250 320 251
f 319 320 250
f 251 321 252
f 320 321 251
f 248 252 315
f 252 322 315
f 252 321 322
f 315 322 316
f 323 253 254
f 323 254 324
f 254 325 324
f 254 255 325
f 327 325 326
f 325 256 326
f 325 255 256
f 257 326 256
f 330 329 328
f 258 259 328
f 259 330 328
f 259 331 330
f 259 253 323
f 332 259 323
f 331 259 332
f 332 323 324
f 327 326 333
f 327 333 334
f 260 333 257
f 257 333 326
f 336 335 262
f 262 335 261
f 263 328 329
f 336 263 329
f 262 263 336
f 328 263 258
f 334 333 337
f 334 337 338
f 264 337 260
f 260 337 333
f 340 339 266
f 266 339 265
f 266 261 335
f 266 335 340
f 338 337 267
f 268 338 267
f 341 338 268
f 267 337 264
f 343 342 270
f 270 342 269
f 270 265 339
f 270 339 343
f 345 344 272
f 345 272 273
f 268 272 341
f 341 272 344
f 348 347 346
f 274 275 346
f 275 348 346
f 275 349 348
f 275 269 342
f 275 342 349
f 276 345 273
f 276 350 345
f 346 347 278
f 347 277 278
f 347 351 277
f 346 278 274
f 353 352 281
f 353 281 280
f 276 281 350
f 350 281 352
f 355 354 284
f 284 354 283
f 284 277 351
f 284 351 355
f 357 356 287
f 357 287 286
f 280 287 353
f 353 287 356
f 359 358 290
f 290 358 289
f 290 283 354
f 290 354 359
f 292 360 291
f 360 361 291
f 361 286 291
f 361 357 286
f 363 362 295
f 295 362 294
f 295 289 358
f 295 358 363
f 297 364 296
f 364 365 296
f 296 365 292
f 365 366 292
f 366 360 292
f 360 366 361
f 368 367 300
f 300 367 299
f 300 294 362
f 300 362 368
f 370 369 364
f 297 370 364
f 302 370 297
f 364 369 365
f 367 304 299
f 371 304 367
f 306 372 305
f 305 372 373
f 374 305 373
f 307 305 374
f 302 307 370
f 370 307 374
f 377 376 375
f 371 377 375
f 309 371 375
f 304 371 309
f 379 378 310
f 379 310 311
f 306 310 372
f 310 380 372
f 310 378 380
f 372 380 373
f 383 382 381
f 383 381 376
f 376 381 375
f 381 313 375
f 313 314 375
f 375 314 309
f 385 384 317
f 385 317 316
f 311 317 379
f 379 317 384
f 388 387 386
f 388 386 382
f 386 381 382
f 386 389 381
f 381 389 313
f 389 390 313
f 390 318 313
f 389 391 390
f 390 393 392
f 319 390 392
f 318 390 319
f 394 320 319
f 394 319 392
f 320 394 395
f 396 320 395
f 321 320 396
f 321 397 322
f 396 397 321
f 316 322 385
f 385 322 397
f 386 387 398
f 398 387 399
f 401 389 400
f 389 398 400
f 389 386 398
f 389 401 391
f 393 402 392
f 392 402 394
f 394 402 403
f 394 403 395
f 399 404 398
f 398 404 400
f 405 324 325
f 327 405 325
f 406 329 330
f 331 407 330
f 330 407 406
f 332 408 331
f 331 408 407
f 409 408 332
f 409 332 324
f 410 409 324
f 405 410 324
f 405 327 410
f 327 411 410
f 327 334 411
f 412 335 336
f 413 412 336
f 413 336 329
f 414 413 329
f 406 414 329
f 414 406 407
f 414 407 415
f 415 407 408
f 415 408 416
f 416 408 409
f 338 411 334
f 338 417 411
f 419 418 340
f 340 418 339
f 340 335 412
f 420 340 412
f 419 340 420
f 420 412 413
f 423 422 421
f 422 417 421
f 417 341 421
f 417 338 341
f 425 424 343
f 343 424 342
f 343 339 418
f 343 418 425
f 423 421 344
f 345 423 344
f 426 423 345
f 344 421 341
f 427 347 348
f 427 348 428
f 348 429 428
f 348 349 429
f 349 342 424
f 349 424 429
f 350 426 345
f 350 430 426
f 433 432 431
f 434 433 427
f 433 351 427
f 351 347 427
f 433 431 351
f 434 427 428
f 437 436 435
f 352 353 435
f 436 352 435
f 438 352 436
f 350 352 430
f 430 352 438
f 441 440 439
f 441 439 432
f 432 439 431
f 439 354 431
f 354 355 431
f 431 355 351
f 437 435 356
f 357 437 356
f 442 437 357
f 356 435 353
f 439 440 359
f 440 358 359
f 440 443 358
f 439 359 354
f 446 445 444
f 445 442 444
f 442 361 444
f 442 357 361
f 448 447 363
f 363 447 362
f 363 358 443
f 363 443 448
f 446 444 366
f 365 446 366
f 449 446 365
f 366 444 361
f 451 450 368
f 368 450 367
f 368 362 447
f 368 447 451
f 453 452 369
f 453 369 370
f 365 369 449
f 449 369 452
f 450 371 367
f 454 371 450
f 457 456 455
f 459 458 455
f 459 455 456
f 374 373 458
f 459 374 458
f 460 374 459
f 370 374 453
f 453 374 460
f 462 461 377
f 377 461 376
f 377 371 454
f 377 454 462
f 457 455 378
f 379 457 378
f 463 457 379
f 378 455 380
f 380 455 458
f 380 458 373
f 465 464 383
f 383 464 382
f 383 376 461
f 383 461 465
f 467 466 384
f 467 384 385
f 379 384 463
f 463 384 466
f 469 468 388
f 388 468 387
f 388 382 464
f 388 464 469
f 391 470 390
f 470 393 390
f 472 471 396
f 472 396 395
f 396 473 397
f 471 473 396
f 385 397 467
f 467 397 473
f 476 475 474
f 468 476 474
f 399 468 474
f 387 468 399
f 478 477 401
f 478 401 400
f 401 477 391
f 477 479 391
f 479 470 391
f 479 477 480
f 481 402 393
f 470 481 393
f 479 481 470
f 402 481 482
f 483 402 482
f 403 402 483
f 395 403 472
f 472 403 483
f 475 484 474
f 474 484 399
f 484 404 399
f 484 485 404
f 400 404 478
f 478 404 485
f 480 486 479
f 479 486 481
f 481 486 487
f 481 487 482
f 488 409 410
f 411 488 410
f 489 413 414
f 415 490 414
f 414 490 489
f 416 491 415
f 415 491 490
f 409 488 416
f 488 491 416
f 488 492 491
f 417 492 411
f 411 492 488
f 493 418 419
f 420 494 419
f 419 494 493
f 413 489 420
f 489 494 420
f 489 495 494
f 496 489 490
f 495 489 496
f 497 490 491
f 496 490 497
f 423 497 422
f 497 492 422
f 497 491 492
f 422 492 417
f 498 424 425
f 418 493 425
f 493 498 425
f 493 499 498
f 494 501 500
f 499 494 500
f 493 494 499
f 503 502 501
f 494 503 501
f 495 503 494
f 504 495 496
f 503 495 504
f 505 496 497
f 504 496 505
f 426 505 423
f 423 505 497
f 506 428 429
f 507 506 429
f 507 429 424
f 508 507 424
f 498 508 424
f 508 498 499
f 508 499 509
f 509 499 500
f 510 502 503
f 512 511 510
f 503 512 510
f 504 512 503
f 513 504 505
f 512 504 513
f 430 513 426
f 426 513 505
f 514 432 433
f 434 515 433
f 433 515 514
f 428 506 434
f 506 515 434
f 506 516 515
f 506 507 517
f 506 517 516
f 520 519 518
f 518 519 511
f 518 511 512
f 437 518 512
f 436 437 512
f 436 512 438
f 438 512 513
f 438 513 430
f 521 440 441
f 432 514 441
f 514 521 441
f 514 522 521
f 515 524 523
f 522 515 523
f 514 515 522
f 524 515 516
f 524 516 525
f 525 516 517
f 520 518 526
f 520 526 527
f 442 526 437
f 437 526 518
f 529 528 521
f 528 440 521
f 528 443 440
f 529 521 522
f 529 522 530
f 530 522 523
f 527 526 445
f 446 527 445
f 531 527 446
f 445 526 442
f 533 532 448
f 448 532 447
f 448 443 528
f 448 528 533
f 536 535 534
f 538 537 534
f 538 534 535
f 540 539 537
f 540 537 538
f 540 531 539
f 531 449 539
f 531 446 449
f 542 541 451
f 451 541 450
f 451 447 532
f 451 532 542
f 536 534 543
f 536 543 544
f 545 534 537
f 543 534 545
f 453 545 452
f 545 539 452
f 545 537 539
f 452 539 449
f 541 454 450
f 546 454 541
f 549 548 547
f 456 457 547
f 548 456 547
f 550 456 548
f 543 459 544
f 459 550 544
f 459 456 550
f 459 543 460
f 460 543 545
f 460 545 453
f 552 551 462
f 462 551 461
f 462 454 546
f 462 546 552
f 549 547 553
f 549 553 554
f 463 553 457
f 457 553 547
f 556 555 465
f 465 555 464
f 465 461 551
f 465 551 556
f 554 553 466
f 467 554 466
f 557 554 467
f 466 553 463
f 559 558 469
f 469 558 468
f 469 464 555
f 469 555 559
f 472 560 471
f 471 560 561
f 562 471 561
f 473 471 562
f 467 473 557
f 557 473 562
f 563 475 476
f 564 563 476
f 468 564 476
f 558 564 468
f 478 565 477
f 565 480 477
f 482 566 483
f 566 567 483
f 483 567 472
f 567 568 472
f 568 560 472
f 560 568 561
f 563 484 475
f 564 569 563
f 569 484 563
f 569 485 484
f 478 485 565
f 485 570 565
f 485 569 570
f 565 570 480
f 570 486 480
f 570 571 486
f 486 572 487
f 571 572 486
f 482 487 566
f 487 573 566
f 487 572 573
f 566 573 567
f 574 500 501
f 502 574 501
f 575 507 508
f 509 576 508
f 508 576 575
f 500 574 509
f 574 576 509
f 574 577 576
f 510 578 502
f 578 574 502
f 578 577 574
f 511 578 510
f 579 517 575
f 575 517 507
f 580 575 576
f 579 575 580
f 581 576 577
f 580 576 581
f 520 581 519
f 581 578 519
f 581 577 578
f 519 578 511
f 582 523 524
f 525 583 524
f 524 583 582
f 517 579 525
f 579 583 525
f 579 584 583
f 585 579 580
f 584 579 585
f 586 580 581
f 585 580 586
f 527 586 520
f 520 586 581
f 587 528 529
f 587 529 588
f 529 589 588
f 529 530 589
f 530 523 582
f 590 530 582
f 589 530 590
f 590 582 583
f 590 583 591
f 593 592 591
f 583 593 591
f 584 593 583
f 594 584 585
f 593 584 594
f 595 585 586
f 594 585 595
f 531 595 527
f 527 595 586
f 597 596 533
f 533 596 532
f 533 528 587
f 598 533 587
f 597 533 598
f 598 587 588
f 601 600 599
f 603 602 599
f 603 599 600
f 602 603 592
f 602 592 593
f 536 602 593
f 535 536 593
f 535 593 538
f 538 593 594
f 538 594 540
f 540 594 595
f 540 595 531
f 605 604 542
f 542 604 541
f 542 532 596
f 542 596 605
f 608 607 606
f 606 607 601
f 599 606 601
f 609 606 599
f 610 599 602
f 609 599 610
f 544 610 536
f 536 610 602
f 604 546 541
f 611 546 604
f 608 606 612
f 608 612 613
f 549 612 548
f 612 609 548
f 612 606 609
f 548 609 550
f 550 609 610
f 550 610 544
f 615 614 552
f 552 614 551
f 552 546 611
f 552 611 615
f 613 612 616
f 613 616 617
f 554 616 549
f 549 616 612
f 619 618 556
f 556 618 555
f 556 551 614
f 556 614 619
f 617 616 620
f 617 620 621
f 557 620 554
f 554 620 616
f 622 558 559
f 623 622 559
f 555 623 559
f 618 623 555
f 626 625 624
f 628 627 624
f 628 624 625
f 629 627 628
f 632 631 630
f 630 631 621
f 630 621 620
f 561 630 620
f 562 561 620
f 562 620 557
f 634 633 622
f 633 558 622
f 633 564 558
f 634 622 623
f 626 624 635
f 626 635 636
f 637 624 627
f 635 624 637
f 627 629 638
f 639 627 638
f 637 627 639
f 639 638 632
f 639 632 630
f 567 639 630
f 568 567 630
f 568 630 561
f 633 640 564
f 564 640 569
f 569 641 570
f 640 641 569
f 635 571 636
f 571 641 636
f 571 570 641
f 571 635 572
f 572 635 637
f 572 637 573
f 573 637 639
f 573 639 567
f 642 588 589
f 590 643 589
f 589 643 642
f 591 644 590
f 590 644 643
f 592 644 591
f 645 596 597
f 598 646 597
f 597 646 645
f 588 642 598
f 642 646 598
f 642 647 646
f 601 647 600
f 647 643 600
f 647 642 643
f 600 643 603
f 603 643 644
f 603 644 592
f 648 604 605
f 649 648 605
f 649 605 596
f 650 649 596
f 645 650 596
f 650 645 646
f 650 646 651
f 608 652 607
f 652 646 607
f 646 647 607
f 652 651 646
f 607 647 601
f 654 653 648
f 653 604 648
f 653 611 604
f 654 648 649
f 657 656 655
f 656 652 655
f 652 613 655
f 652 608 613
f 659 658 615
f 615 658 614
f 615 611 653
f 615 653 659
f 662 661 660
f 660 661 657
f 655 660 657
f 663 660 655
f 617 663 613
f 613 663 655
f 665 664 619
f 619 664 618
f 658 666 614
f 667 614 666
f 614 667 619
f 668 619 667
f 619 668 665
f 670 669 667
f 670 667 666
f 669 670 662
f 660 669 662
f 671 669 660
f 672 660 663
f 671 660 672
f 621 672 617
f 617 672 663
f 674 623 673
f 623 664 673
f 623 618 664
f 674 673 668
f 674 668 667
f 626 674 667
f 625 626 667
f 625 667 628
f 628 667 669
f 628 669 629
f 669 675 629
f 669 671 675
f 632 675 631
f 675 672 631
f 675 671 672
f 631 672 621
f 676 633 634
f 623 674 634
f 674 676 634
f 674 677 676
f 636 677 626
f 626 677 674
f 675 638 629
f 638 675 632
f 676 640 633
f 640 676 641
f 641 676 677
f 641 677 636
f 678 649 650
f 651 679 650
f 650 679 678
f 652 679 651
f 680 653 654
f 649 678 654
f 678 680 654
f 678 681 680
f 657 681 656
f 681 679 656
f 681 678 679
f 656 679 652
f 682 658 659
f 653 680 659
f 680 682 659
f 680 683 682
f 662 683 661
f 683 681 661
f 683 680 681
f 661 681 657
f 684 664 665
f 658 682 666
f 684 665 668
f 666 682 670
f 670 682 683
f 670 683 662
f 684 673 664
f 673 684 668
