v -1.1 16.0 -11.0
v -1.0 16.0 -11.1
v -1.0 15.9 -11.0
v -1.0 15.8 -10.0
v -1.2 16.0 -10.0
v -1.0 16.0 -9.7
v -1.2 17.0 -11.0
v -1.0 17.0 -11.2
v -1.3 17.0 -10.0
v -1.0 16.8 -9.0
v -1.1 17.0 -9.0
v -1.0 17.0 -8.8
v -1.0 17.2 -11.0
v -1.0 17.4 -10.0
v -1.0 17.2 -9.0
v -1.0 17.7 -8.0
v -1.1 18.0 -8.0
v -1.0 18.0 -8.3
v -1.0 17.5 -7.0
v -1.4 18.0 -7.0
v -1.0 17.3 -6.0
v -1.3 18.0 -6.0
v -1.0 18.0 -5.6
v -1.0 18.3 -8.0
v -1.3 19.0 -7.0
v -1.0 19.0 -7.5
v -1.4 19.0 -6.0
v -1.0 19.0 -5.1
v -1.0 19.5 -7.0
v -1.3 20.0 -6.0
v -1.0 20.0 -6.5
v -1.0 20.0 -5.5
v -1.1 21.0 -6.0
v -1.0 21.0 -6.2
v -1.0 21.0 -5.8
v -1.0 21.2 -6.0
v -1.2 29.0 -12.0
v -1.0 29.0 -12.2
v -1.0 28.8 -12.0
v -1.0 28.8 -11.0
v -1.2 29.0 -11.0
v -1.0 29.0 -10.5
v -1.5 29.0 -9.0
v -1.0 29.0 -9.5
v -1.0 28.8 -9.0
v -1.0 28.7 -8.0
v -1.3 29.0 -8.0
v -1.0 28.7 -7.0
v -1.4 29.0 -7.0
v -1.0 28.6 -6.0
v -1.4 29.0 -6.0
v -1.0 28.8 -5.0
v -1.2 29.0 -5.0
v -1.0 29.0 -4.7
v -1.3 30.0 -12.0
v -1.0 30.0 -12.3
v -1.3 30.0 -11.0
v -1.0 29.7 -10.0
v -1.1 30.0 -10.0
v -1.0 29.4 -9.0
v -1.0 30.0 -9.7
v -1.0 29.8 -8.0
v -1.8 30.0 -7.0
v -1.0 30.0 -7.9
v -1.6 30.0 -6.0
v -1.4 30.0 -5.0
v -1.0 30.0 -4.2
v -1.0 30.9 -12.0
v -1.0 30.4 -11.0
v -1.0 30.2 -10.0
v -1.3 31.0 -8.0
v -1.0 31.0 -8.4
v -1.0 30.2 -8.0
v -1.6 31.0 -7.0
v -1.4 31.0 -6.0
v -1.0 31.0 -5.4
v -1.0 30.6 -5.0
v -1.3 32.0 -8.0
v -1.0 32.0 -8.4
v -1.5 32.0 -7.0
v -1.4 32.0 -6.0
v -1.0 32.0 -5.5
v -1.0 32.7 -8.0
v -1.4 33.0 -7.0
v -1.0 33.0 -7.8
v -1.4 33.0 -6.0
v -1.0 33.0 -5.4
v -1.3 34.0 -9.0
v -1.0 34.0 -9.3
v -1.0 33.7 -9.0
v -1.0 33.2 -8.0
v -1.7 34.0 -8.0
v -1.4 34.0 -7.0
v -1.4 34.0 -6.0
v -1.0 33.8 -5.0
v -1.1 34.0 -5.0
v -1.0 34.0 -4.9
v -1.2 35.0 -10.0
v -1.0 35.0 -10.2
v -1.0 34.8 -10.0
v -1.4 35.0 -9.0
v -1.0 35.0 -8.1
v -1.0 34.9 -8.0
v -1.0 34.5 -7.0
v -1.0 34.5 -6.0
v -1.0 34.2 -5.0
v -1.1 36.0 -10.0
v -1.0 36.0 -10.1
v -1.4 36.0 -9.0
v -1.0 35.2 -8.0
v -1.3 36.0 -8.0
v -1.0 36.0 -7.6
v -1.0 36.1 -10.0
v -1.3 37.0 -9.0
v -1.0 37.0 -9.4
v -1.3 37.0 -8.0
v -1.0 37.0 -7.6
v -1.0 37.7 -9.0
v -1.0 37.4 -8.0
v -1.0 40.0 -5.0
v -1.0 40.0 -5.0
v -1.0 40.0 -5.0
v -1.0 40.0 -5.0
v -1.2 41.0 -6.0
v -1.0 41.0 -6.5
v -1.0 40.7 -6.0
v -1.2 41.0 -5.0
v -1.0 41.0 -4.8
v -1.0 41.2 -6.0
v -1.0 41.2 -5.0
v -0.3 15.0 -17.0
v 0.0 15.0 -17.4
v 0.0 14.1 -17.0
v 0.0 14.1 -16.0
v -0.3 15.0 -16.0
v 0.0 15.0 -15.7
v -0.4 16.0 -17.0
v 0.0 16.0 -17.6
v -0.4 16.0 -16.0
v 0.0 16.0 -15.4
v -0.2 16.0 -13.0
v 0.0 16.0 -13.4
v 0.0 15.8 -13.0
v 0.0 15.7 -12.0
v -0.3 16.0 -12.0
v 0.0 16.0 -11.0
v 0.0 15.6 -10.0
v 0.0 15.9 -9.0
v -0.2 16.0 -9.0
v 0.0 16.0 -8.8
v -0.2 17.0 -17.0
v 0.0 17.0 -17.3
v -0.4 17.0 -16.0
v 0.0 16.5 -15.0
v -0.3 17.0 -15.0
v 0.0 16.5 -14.0
v -0.3 17.0 -14.0
v -0.4 17.0 -13.0
v -0.5 17.0 -12.0
v 0.0 16.5 -8.0
v -0.6 17.0 -8.0
v 0.0 16.3 -7.0
v -0.6 17.0 -7.0
v 0.0 17.0 -6.4
v 0.0 17.4 -17.0
v 0.0 17.6 -16.0
v 0.0 17.5 -15.0
v 0.0 17.8 -14.0
v -0.3 18.0 -13.0
v 0.0 18.0 -13.8
v 0.0 18.0 -12.1
v 0.0 17.9 -12.0
v 0.0 17.8 -11.0
v 0.0 17.7 -10.0
v 0.0 17.8 -9.0
v 0.0 18.0 -8.8
v 0.0 17.4 -6.0
v 0.0 18.0 -5.5
v -0.2 19.0 -17.0
v 0.0 19.0 -17.2
v 0.0 18.6 -17.0
v 0.0 18.3 -16.0
v -0.4 19.0 -16.0
v 0.0 18.3 -15.0
v -0.4 19.0 -15.0
v 0.0 18.1 -14.0
v -0.4 19.0 -14.0
v -0.5 19.0 -13.0
v 0.0 18.1 -12.0
v -0.5 19.0 -12.0
v 0.0 18.3 -11.0
v -1.0 19.0 -11.0
v 0.0 19.0 -10.1
v -0.6 19.0 -8.0
v 0.0 19.0 -8.8
v 0.0 18.9 -5.0
v -0.5 19.0 -5.0
v 0.0 19.0 -4.7
v -0.4 20.0 -17.0
v 0.0 20.0 -17.4
v -0.5 20.0 -16.0
v -0.5 20.0 -15.0
v -0.5 20.0 -14.0
v -0.5 20.0 -13.0
v -0.5 20.0 -12.0
v -0.6 20.0 -11.0
v 0.0 19.1 -10.0
v -0.5 20.0 -10.0
v 0.0 19.2 -9.0
v -0.4 20.0 -9.0
v -0.1 20.0 -8.0
v -0.6 20.0 -7.0
v -0.6 20.0 -5.0
v 0.0 19.2 -4.0
v -0.3 20.0 -4.0
v 0.0 20.0 -3.7
v -0.3 21.0 -17.0
v 0.0 21.0 -17.3
v -0.5 21.0 -16.0
v -0.5 21.0 -15.0
v -0.5 21.0 -14.0
v -0.5 21.0 -13.0
v -0.5 21.0 -12.0
v -0.5 21.0 -11.0
v -0.5 21.0 -10.0
v -0.5 21.0 -9.0
v -0.4 21.0 -8.0
v -0.6 21.0 -7.0
v -0.7 21.0 -5.0
v -0.3 21.0 -4.0
v 0.0 21.0 -3.7
v 0.0 21.5 -17.0
v -0.3 22.0 -16.0
v 0.0 22.0 -16.5
v -0.5 22.0 -15.0
v -0.5 22.0 -14.0
v -0.4 22.0 -13.0
v -0.4 22.0 -12.0
v -0.4 22.0 -11.0
v -0.5 22.0 -10.0
v -0.5 22.0 -9.0
v -0.5 22.0 -8.0
v -0.5 22.0 -7.0
v -0.7 22.0 -6.0
v -0.9 22.0 -5.0
v -0.3 22.0 -4.0
v 0.0 22.0 -3.8
v 0.0 22.7 -16.0
v -0.4 23.0 -15.0
v 0.0 23.0 -15.8
v -0.3 23.0 -14.0
v 0.0 23.0 -13.5
v 0.0 22.6 -13.0
v 0.0 22.5 -12.0
v 0.0 22.7 -11.0
v -0.4 23.0 -10.0
v 0.0 23.0 -10.7
v -0.5 23.0 -9.0
v -0.5 23.0 -8.0
v -0.5 23.0 -7.0
v -0.5 23.0 -6.0
v -0.5 23.0 -5.0
v -0.2 23.0 -4.0
v 0.0 23.0 -3.8
v -0.2 24.0 -16.0
v 0.0 24.0 -16.3
v 0.0 23.4 -16.0
v -0.3 24.0 -15.0
v 0.0 24.0 -14.5
v 0.0 23.5 -14.0
v -0.4 24.0 -10.0
v 0.0 24.0 -10.5
v -0.5 24.0 -9.0
v -0.5 24.0 -8.0
v -0.4 24.0 -7.0
v -0.4 24.0 -6.0
v -0.3 24.0 -5.0
v -0.3 24.0 -4.0
v 0.0 24.0 -3.5
v -0.0 25.0 -16.0
v 0.0 25.0 -16.0
v 0.0 25.0 -15.9
v 0.0 24.5 -15.0
v -0.4 25.0 -10.0
v 0.0 25.0 -10.5
v -0.5 25.0 -9.0
v -0.3 25.0 -8.0
v 0.0 25.0 -7.5
v 0.0 24.6 -7.0
v 0.0 24.5 -6.0
v 0.0 24.4 -5.0
v -0.0 25.0 -4.0
v 0.0 25.0 -4.1
v 0.0 25.0 -3.9
v 0.0 25.0 -16.0
v -0.2 26.0 -10.0
v 0.0 26.0 -10.3
v -0.3 26.0 -9.0
v 0.0 26.0 -8.5
v 0.0 25.5 -8.0
v 0.0 25.7 -4.0
v 0.0 26.3 -10.0
v 0.0 26.4 -9.0
v 0.0 29.0 -12.4
v 0.0 28.5 -12.0
v 0.0 28.4 -11.0
v 0.0 28.4 -10.0
v -0.7 29.0 -10.0
v 0.0 28.4 -9.0
v 0.0 28.4 -8.0
v 0.0 28.4 -7.0
v 0.0 28.4 -6.0
v 0.0 28.4 -5.0
v 0.0 28.6 -4.0
v -0.4 29.0 -4.0
v 0.0 29.0 -3.0
v -0.0 29.0 -3.0
v 0.0 29.0 -3.0
v 0.0 30.0 -12.5
v -0.7 30.0 -9.0
v -0.9 30.0 -8.0
v -0.5 30.0 -4.0
v 0.0 30.0 -3.9
v 0.0 29.0 -3.0
v -0.9 31.0 -12.0
v 0.0 31.0 -12.2
v 0.0 31.0 -11.4
v 0.0 30.8 -11.0
v 0.0 31.0 -10.0
v -0.6 31.0 -9.0
v 0.0 31.0 -10.0
v -0.7 31.0 -5.0
v -0.4 31.0 -4.0
v 0.0 31.0 -3.6
v 0.0 31.2 -12.0
v -0.5 32.0 -10.0
v 0.0 32.0 -10.3
v 0.0 31.1 -10.0
v -0.6 32.0 -9.0
v -0.6 32.0 -5.0
v -0.4 32.0 -4.0
v 0.0 32.0 -3.6
v 0.0 32.3 -10.0
v 0.0 32.9 -9.0
v -0.9 33.0 -8.0
v 0.0 33.0 -8.9
v -0.7 33.0 -5.0
v -0.4 33.0 -4.0
v 0.0 33.0 -3.7
v 0.0 34.0 -9.5
v 0.0 33.1 -9.0
v -0.3 34.0 -4.0
v 0.0 34.0 -3.7
v 0.0 35.0 -10.1
v 0.0 34.8 -10.0
v -0.9 35.0 -8.0
v -0.7 35.0 -7.0
v -0.6 35.0 -6.0
v -0.5 35.0 -5.0
v 0.0 35.0 -4.3
v 0.0 34.6 -4.0
v 0.0 35.2 -10.0
v -0.9 36.0 -10.0
v 0.0 36.0 -9.7
v -0.6 36.0 -7.0
v -0.5 36.0 -6.0
v -0.5 36.0 -5.0
v 0.0 35.5 -4.0
v -0.2 36.0 -4.0
v 0.0 36.0 -3.8
v 0.0 37.0 -9.4
v -0.6 37.0 -7.0
v -0.4 37.0 -6.0
v -0.4 37.0 -5.0
v -0.2 37.0 -4.0
v 0.0 37.0 -3.8
v 0.0 37.5 -9.0
v -0.4 38.0 -8.0
v 0.0 38.0 -8.5
v -0.4 38.0 -7.0
v 0.0 38.0 -6.2
v 0.0 37.8 -6.0
v 0.0 37.5 -5.0
v 0.0 37.3 -4.0
v 0.0 38.4 -8.0
v -0.3 39.0 -7.0
v 0.0 39.0 -7.4
v 0.0 38.3 -6.0
v -0.3 39.0 -6.0
v 0.0 39.0 -5.6
v -0.1 40.0 -7.0
v 0.0 40.0 -7.1
v -0.5 40.0 -6.0
v 0.0 39.6 -5.0
v 0.0 40.0 -4.8
v 0.0 40.1 -7.0
v 0.0 41.0 -6.3
v 0.0 41.0 -4.7
v 0.0 41.3 -6.0
v 0.0 41.6 -5.0
v 0.7 15.0 -18.0
v 1.0 15.0 -18.3
v 1.0 14.8 -18.0
v 1.0 14.6 -17.0
v 1.0 14.7 -16.0
v 1.0 15.0 -15.7
v 0.5 16.0 -19.0
v 1.0 16.0 -19.2
v 1.0 15.7 -19.0
v 0.3 16.0 -18.0
v 1.0 15.5 -15.0
v 0.4 16.0 -15.0
v 1.0 15.6 -14.0
v 0.4 16.0 -14.0
v 1.0 15.5 -13.0
v 1.0 15.5 -12.0
v 1.0 15.6 -11.0
v 1.0 15.6 -10.0
v 0.5 16.0 -9.0
v 1.0 16.0 -9.2
v 0.8 17.0 -19.0
v 1.0 17.0 -19.2
v 0.5 17.0 -18.0
v 1.0 16.2 -9.0
v 1.0 16.4 -8.0
v 1.0 16.5 -7.0
v 1.0 17.0 -6.5
v 1.0 17.3 -19.0
v 1.0 17.7 -18.0
v 0.4 18.0 -17.0
v 1.0 18.0 -17.7
v 0.2 18.0 -16.0
v 0.2 18.0 -15.0
v 0.1 18.0 -14.0
v 0.1 18.0 -12.0
v 0.2 18.0 -11.0
v 0.3 18.0 -10.0
v 0.1 18.0 -9.0
v 1.0 17.4 -6.0
v 1.0 17.8 -5.0
v 0.7 18.0 -5.0
v 1.0 18.0 -4.8
v 1.0 19.0 -17.6
v 0.1 19.0 -10.0
v 0.1 19.0 -9.0
v 1.0 19.0 -4.4
v 1.0 20.0 -17.7
v 1.0 19.4 -4.0
v 1.0 20.0 -3.6
v 0.7 21.0 -18.0
v 1.0 21.0 -18.3
v 1.0 20.5 -18.0
v 1.0 21.0 -3.7
v 0.8 22.0 -18.0
v 1.0 22.0 -18.2
v 0.3 22.0 -17.0
v 0.4 22.0 -4.0
v 1.0 21.5 -4.0
v 1.0 22.0 -4.3
v 1.0 22.3 -18.0
v 0.6 23.0 -17.0
v 1.0 23.0 -17.5
v 0.2 23.0 -16.0
v 0.3 23.0 -13.0
v 0.4 23.0 -12.0
v 0.2 23.0 -11.0
v 0.3 23.0 -4.0
v 1.0 23.0 -4.5
v 0.7 24.0 -17.0
v 1.0 24.0 -17.2
v 0.3 24.0 -14.0
v 0.5 24.0 -13.0
v 0.5 24.0 -12.0
v 0.4 24.0 -11.0
v 0.7 24.0 -5.0
v 1.0 23.8 -5.0
v 1.0 24.0 -5.1
v 0.3 24.0 -4.0
v 1.0 24.3 -17.0
v 1.0 25.0 -16.4
v 0.3 25.0 -15.0
v 0.5 25.0 -14.0
v 0.5 25.0 -13.0
v 0.5 25.0 -12.0
v 0.4 25.0 -11.0
v 0.3 25.0 -7.0
v 0.4 25.0 -6.0
v 1.0 24.4 -5.0
v 0.7 25.0 -5.0
v 0.3 24.7 -4.4
v 0.1 25.0 -4.0
v 1.0 25.0 -4.7
v 1.0 25.4 -16.0
v 0.7 26.0 -15.0
v 1.0 26.0 -15.3
v 0.5 26.0 -14.0
v 0.5 26.0 -13.0
v 0.5 26.0 -12.0
v 0.4 26.0 -11.0
v 0.3 26.0 -8.0
v 0.5 26.0 -7.0
v 0.5 26.0 -6.0
v 0.5 26.0 -5.0
v 1.0 25.7 -4.0
v 0.1 26.0 -4.0
v 1.0 26.0 -3.8
v 1.0 26.3 -15.0
v 0.8 27.0 -14.0
v 1.0 27.0 -14.3
v 0.5 27.0 -13.0
v 0.5 27.0 -12.0
v 0.5 27.0 -11.0
v 0.4 27.0 -10.0
v 0.4 27.0 -9.0
v 0.5 27.0 -8.0
v 0.5 27.0 -7.0
v 0.5 27.0 -6.0
v 0.5 27.0 -5.0
v 0.6 27.0 -4.0
v 1.0 27.0 -3.1
v 1.0 27.3 -14.0
v 0.7 28.0 -13.0
v 1.0 28.0 -13.3
v 0.4 28.0 -12.0
v 0.4 28.0 -11.0
v 0.4 28.0 -10.0
v 0.4 28.0 -9.0
v 0.3 28.0 -8.0
v 0.3 28.0 -7.0
v 0.3 28.0 -6.0
v 0.4 28.0 -5.0
v 0.5 28.0 -4.0
v 1.0 27.2 -3.0
v 0.8 28.0 -3.0
v 1.0 28.0 -2.8
v 1.0 28.5 -13.0
v 1.0 29.0 -12.7
v 1.0 29.0 -2.7
v 1.0 30.0 -12.5
v 0.7 30.0 -3.0
v 1.0 30.0 -2.8
v 1.0 31.0 -12.4
v 0.2 31.0 -11.0
v 0.0 31.0 -10.0
v 1.0 31.0 -3.0
v 1.0 31.0 -3.0
v 1.0 31.4 -12.0
v 0.6 32.0 -11.0
v 1.0 32.0 -11.4
v 1.0 31.0 -3.0
v 1.0 32.0 -3.6
v 1.0 32.5 -11.0
v 0.6 33.0 -10.0
v 1.0 33.0 -10.5
v 0.1 33.0 -9.0
v 1.0 33.0 -3.7
v 1.0 33.6 -10.0
v 1.0 34.0 -9.8
v 1.0 34.0 -3.7
v 0.2 35.0 -10.0
v 1.0 35.0 -9.7
v 0.4 35.0 -4.0
v 1.0 35.0 -3.7
v 1.0 36.0 -9.5
v 1.0 36.0 -3.5
v 1.0 37.0 -9.3
v 1.0 37.0 -3.5
v 1.0 37.4 -9.0
v 1.0 38.0 -8.5
v 0.1 38.0 -6.0
v 0.4 38.0 -5.0
v 0.6 38.0 -4.0
v 1.0 38.0 -3.7
v 1.0 38.5 -8.0
v 1.0 39.0 -7.4
v 0.6 39.0 -5.0
v 1.0 39.0 -4.1
v 1.0 38.9 -4.0
v 1.0 39.3 -7.0
v 0.1 40.0 -7.0
v 0.5 40.0 -6.0
v 1.0 39.5 -6.0
v 1.0 39.3 -5.0
v 0.3 40.0 -5.0
v 0.2 41.0 -6.0
v 0.3 41.0 -5.0
v 2.0 15.0 -18.2
v 2.0 14.8 -18.0
v 1.6 15.0 -17.0
v 2.0 15.0 -17.6
v 1.3 15.0 -16.0
v 1.6 16.0 -19.0
v 2.0 16.0 -18.8
v 2.0 15.9 -17.0
v 2.0 16.0 -16.8
v 1.8 16.0 -16.0
v 2.0 15.6 -15.0
v 2.0 16.0 -15.8
v 2.0 15.5 -14.0
v 2.0 15.5 -13.0
v 2.0 15.5 -12.0
v 2.0 15.5 -11.0
v 2.0 15.5 -10.0
v 2.0 15.7 -9.0
v 1.3 16.0 -9.0
v 2.0 16.0 -8.6
v 2.0 17.0 -19.4
v 2.0 16.3 -19.0
v 2.0 16.2 -16.0
v 2.0 16.4 -8.0
v 2.0 16.6 -7.0
v 2.0 17.0 -6.5
v 1.9 18.0 -19.0
v 2.0 18.0 -19.1
v 1.3 18.0 -18.0
v 2.0 17.4 -6.0
v 2.0 17.6 -5.0
v 2.0 18.0 -4.6
v 2.0 18.1 -19.0
v 1.5 19.0 -18.0
v 2.0 19.0 -18.5
v 2.0 19.0 -4.3
v 1.4 20.0 -18.0
v 2.0 20.0 -18.4
v 2.0 19.5 -4.0
v 2.0 20.0 -3.7
v 2.0 21.0 -18.5
v 1.7 21.0 -4.0
v 2.0 20.7 -4.0
v 2.0 21.0 -4.2
v 2.0 22.0 -18.4
v 2.0 22.0 -4.5
v 2.0 22.6 -18.0
v 2.0 23.0 -17.7
v 2.0 23.0 -4.7
v 2.0 24.0 -17.4
v 2.0 23.4 -5.0
v 2.0 24.0 -5.4
v 2.0 24.4 -17.0
v 2.0 25.0 -16.4
v 1.2 25.0 -5.0
v 2.0 25.0 -5.4
v 2.0 25.4 -16.0
v 2.0 26.0 -15.5
v 1.6 26.0 -5.0
v 2.0 26.0 -5.3
v 1.2 26.0 -4.0
v 2.0 26.6 -15.0
v 2.0 27.0 -14.6
v 2.0 26.4 -5.0
v 2.0 27.0 -4.6
v 1.4 27.0 -4.0
v 2.0 27.7 -14.0
v 2.0 28.0 -13.7
v 1.5 28.0 -4.0
v 2.0 28.0 -4.5
v 1.2 28.0 -3.0
v 1.5 29.0 -13.0
v 2.0 29.0 -13.3
v 1.7 29.0 -4.0
v 2.0 29.0 -4.3
v 1.3 29.0 -3.0
v 2.0 29.4 -13.0
v 2.0 30.0 -12.6
v 2.0 29.6 -4.0
v 2.0 30.0 -3.7
v 1.3 30.0 -3.0
v 2.0 31.0 -12.4
v 1.7 31.0 -4.0
v 2.0 30.4 -4.0
v 2.0 31.0 -4.3
v 1.0 31.0 -3.0
v 2.0 31.5 -12.0
v 2.0 32.0 -11.6
v 1.8 32.0 -5.0
v 2.0 31.7 -5.0
v 2.0 32.0 -5.2
v 1.4 32.0 -4.0
v 1.5 33.0 -11.0
v 2.0 33.0 -11.4
v 1.6 33.0 -5.0
v 2.0 33.0 -5.4
v 1.3 33.0 -4.0
v 1.9 34.0 -11.0
v 2.0 34.0 -11.1
v 1.2 34.0 -10.0
v 1.8 34.0 -5.0
v 2.0 34.0 -5.3
v 1.3 34.0 -4.0
v 2.0 34.1 -11.0
v 1.5 35.0 -10.0
v 2.0 35.0 -10.3
v 2.0 34.4 -5.0
v 2.0 35.0 -4.5
v 1.5 35.0 -4.0
v 2.0 35.4 -10.0
v 2.0 36.0 -9.5
v 2.0 35.6 -4.0
v 2.0 36.0 -3.8
v 2.0 36.6 -9.0
v 1.5 37.0 -9.0
v 2.0 37.0 -8.7
v 2.0 37.0 -3.7
v 2.0 38.0 -8.3
v 2.0 38.0 -3.8
v 2.0 38.3 -8.0
v 1.4 39.0 -7.0
v 2.0 38.6 -7.0
v 1.5 39.0 -6.0
v 2.0 38.5 -6.0
v 1.3 39.0 -5.0
v 2.0 38.5 -5.0
v 2.0 38.2 -4.0
v 3.0 15.0 -18.4
v 3.0 14.7 -18.0
v 3.0 14.8 -17.0
v 2.6 15.0 -17.0
v 3.0 15.0 -16.8
v 2.5 16.0 -19.0
v 3.0 16.0 -19.2
v 3.0 15.8 -19.0
v 3.0 16.0 -16.1
v 3.0 16.0 -15.9
v 3.0 15.6 -15.0
v 3.0 15.5 -14.0
v 3.0 15.5 -13.0
v 3.0 15.5 -12.0
v 3.0 15.5 -11.0
v 3.0 15.5 -10.0
v 3.0 15.6 -9.0
v 3.0 16.0 -8.5
v 3.0 17.0 -19.4
v 3.0 16.1 -16.0
v 3.0 16.4 -8.0
v 3.0 16.6 -7.0
v 3.0 17.0 -6.5
v 3.0 17.6 -19.0
v 2.2 18.0 -19.0
v 3.0 18.0 -18.7
v 3.0 17.4 -6.0
v 3.0 17.7 -5.0
v 3.0 18.0 -4.7
v 3.0 19.0 -18.5
v 3.0 18.7 -4.0
v 2.5 19.0 -4.0
v 3.0 19.0 -3.7
v 3.0 20.0 -18.5
v 3.0 20.0 -3.5
v 3.0 21.0 -18.5
v 2.3 21.0 -4.0
v 3.0 21.0 -3.7
v 3.0 22.0 -18.5
v 3.0 21.3 -4.0
v 3.0 22.0 -4.6
v 2.5 23.0 -18.0
v 3.0 23.0 -18.3
v 2.5 23.0 -5.0
v 3.0 22.5 -5.0
v 3.0 23.0 -5.3
v 3.0 23.3 -18.0
v 3.0 24.0 -17.3
v 3.0 24.0 -5.5
v 3.0 24.3 -17.0
v 2.6 25.0 -16.0
v 3.0 24.7 -16.0
v 3.0 25.0 -15.8
v 3.0 25.0 -5.6
v 3.0 26.0 -15.5
v 3.0 26.0 -5.6
v 2.5 27.0 -15.0
v 3.0 27.0 -15.3
v 2.4 27.0 -5.0
v 3.0 27.0 -5.5
v 3.0 27.4 -15.0
v 2.4 28.0 -14.0
v 3.0 28.0 -14.5
v 2.6 28.0 -5.0
v 3.0 28.0 -5.3
v 3.0 28.5 -14.0
v 3.0 29.0 -13.6
v 3.0 28.5 -5.0
v 3.0 29.0 -4.7
v 3.0 29.5 -13.0
v 3.0 30.0 -12.6
v 2.3 30.0 -4.0
v 3.0 30.0 -4.5
v 3.0 31.0 -12.3
v 3.0 31.0 -4.7
v 3.0 31.4 -12.0
v 3.0 32.0 -11.6
v 3.0 31.3 -5.0
v 3.0 32.0 -5.5
v 3.0 33.0 -11.5
v 2.6 33.0 -6.0
v 3.0 32.6 -6.0
v 3.0 33.0 -6.9
v 3.0 33.6 -11.0
v 2.2 34.0 -11.0
v 3.0 34.0 -10.7
v 3.0 33.6 -6.0
v 3.0 34.0 -5.8
v 3.0 35.0 -10.3
v 2.4 35.0 -5.0
v 3.0 35.0 -5.6
v 3.0 35.3 -10.0
v 3.0 36.0 -9.3
v 2.6 36.0 -5.0
v 3.0 36.0 -5.6
v 2.2 36.0 -4.0
v 3.0 36.3 -9.0
v 3.0 37.0 -8.4
v 2.7 37.0 -6.0
v 3.0 36.5 -6.0
v 3.0 37.0 -6.4
v 2.5 37.0 -5.0
v 2.3 37.0 -4.0
v 3.0 37.4 -8.0
v 2.4 38.0 -8.0
v 3.0 38.0 -7.1
v 2.5 38.0 -6.0
v 3.0 38.0 -6.9
v 2.4 38.0 -5.0
v 2.2 38.0 -4.0
v 3.0 38.1 -7.0
v 4.0 15.0 -18.2
v 4.0 14.8 -18.0
v 4.0 14.8 -17.0
v 4.0 15.0 -16.7
v 3.3 16.0 -19.0
v 4.0 16.0 -18.6
v 4.0 15.5 -16.0
v 3.1 16.0 -16.0
v 4.0 15.4 -15.0
v 4.0 15.4 -14.0
v 4.0 15.5 -13.0
v 4.0 15.5 -12.0
v 4.0 15.5 -11.0
v 4.0 15.5 -10.0
v 4.0 15.6 -9.0
v 4.0 16.0 -8.5
v 4.0 17.0 -19.1
v 4.0 16.8 -19.0
v 4.0 16.4 -8.0
v 4.0 16.7 -7.0
v 4.0 17.0 -6.7
v 4.0 17.2 -19.0
v 4.0 18.0 -18.6
v 4.0 17.6 -6.0
v 3.4 18.0 -5.0
v 4.0 18.0 -5.5
v 4.0 19.0 -18.5
v 4.0 18.4 -5.0
v 4.0 18.8 -4.0
v 4.0 19.0 -3.8
v 4.0 20.0 -18.5
v 4.0 20.0 -3.6
v 4.0 21.0 -18.5
v 4.0 21.0 -3.8
v 4.0 22.0 -18.5
v 3.6 22.0 -5.0
v 4.0 21.7 -5.0
v 4.0 22.0 -5.3
v 4.0 21.2 -4.0
v 4.0 23.0 -18.2
v 4.0 23.0 -5.5
v 4.0 23.2 -18.0
v 3.5 24.0 -17.0
v 4.0 23.6 -17.0
v 4.0 24.0 -16.6
v 4.0 24.0 -5.7
v 4.0 24.5 -16.0
v 4.0 25.0 -15.6
v 3.6 25.0 -6.0
v 4.0 24.5 -6.0
v 4.0 25.0 -6.3
v 4.0 26.0 -15.5
v 3.5 26.0 -6.0
v 4.0 26.0 -6.4
v 4.0 27.0 -15.4
v 3.6 27.0 -6.0
v 4.0 27.0 -6.3
v 3.6 28.0 -15.0
v 4.0 28.0 -15.2
v 4.0 27.5 -6.0
v 4.0 28.0 -5.7
v 4.0 28.3 -15.0
v 3.6 29.0 -14.0
v 4.0 29.0 -14.3
v 3.4 29.0 -5.0
v 4.0 29.0 -5.4
v 4.0 29.3 -14.0
v 4.0 29.6 -13.0
v 4.0 30.0 -12.5
v 3.5 30.0 -5.0
v 4.0 30.0 -5.4
v 4.0 30.6 -12.0
v 3.5 31.0 -12.0
v 4.0 31.0 -11.7
v 3.4 31.0 -5.0
v 4.0 31.0 -5.4
v 4.0 32.0 -11.5
v 4.0 32.0 -5.6
v 4.0 33.0 -11.7
v 3.1 33.0 -7.0
v 4.0 32.7 -7.0
v 4.0 33.0 -7.3
v 4.0 32.4 -6.0
v 4.0 33.4 -11.0
v 4.0 34.0 -10.4
v 3.5 34.0 -7.0
v 4.0 34.0 -7.5
v 3.2 34.0 -6.0
v 4.0 34.3 -10.0
v 3.3 35.0 -10.0
v 3.7 35.0 -9.0
v 4.0 34.7 -9.0
v 4.0 35.0 -8.5
v 3.6 35.0 -7.0
v 4.0 35.0 -7.6
v 3.4 35.0 -6.0
v 3.3 36.0 -9.0
v 4.0 36.0 -8.1
v 3.6 36.0 -7.0
v 4.0 36.0 -7.9
v 3.3 36.0 -6.0
v 3.3 37.0 -8.0
v 4.0 36.1 -8.0
v 3.4 37.0 -7.0
v 3.1 38.0 -7.0
v 4.2 15.0 -18.0
v 4.3 15.0 -17.0
v 4.7 15.0 -15.0
v 5.0 15.0 -15.3
v 5.0 14.8 -15.0
v 5.0 14.7 -14.0
v 4.6 15.0 -14.0
v 5.0 15.0 -13.5
v 4.6 16.0 -18.0
v 5.0 16.0 -17.5
v 5.0 15.6 -17.0
v 5.0 15.5 -16.0
v 5.0 15.3 -13.0
v 5.0 15.5 -12.0
v 5.0 15.5 -11.0
v 5.0 15.5 -10.0
v 5.0 15.6 -9.0
v 5.0 16.0 -8.5
v 4.1 17.0 -19.0
v 5.0 17.0 -18.3
v 5.0 16.5 -18.0
v 5.0 16.5 -8.0
v 4.5 17.0 -7.0
v 5.0 17.0 -7.4
v 5.0 18.0 -18.4
v 5.0 17.4 -7.0
v 4.5 18.0 -6.0
v 5.0 18.0 -6.4
v 5.0 19.0 -18.4
v 5.0 18.5 -6.0
v 4.6 19.0 -5.0
v 5.0 19.0 -5.5
v 4.3 19.0 -4.0
v 5.0 20.0 -18.5
v 5.0 19.5 -5.0
v 5.0 20.0 -4.0
v 5.0 20.0 -4.0
v 5.0 21.0 -18.4
v 4.7 21.0 -5.0
v 5.0 20.5 -5.0
v 5.0 21.0 -5.3
v 4.3 21.0 -4.0
v 5.0 20.0 -4.0
v 5.0 22.0 -18.2
v 5.0 22.0 -5.6
v 5.0 22.3 -18.0
v 4.3 23.0 -18.0
v 4.7 23.0 -17.0
v 5.0 22.7 -17.0
v 5.0 23.0 -16.7
v 5.0 23.0 -5.7
v 5.0 24.0 -16.2
v 4.5 24.0 -6.0
v 5.0 23.5 -6.0
v 5.0 24.0 -6.3
v 5.0 24.3 -16.0
v 5.0 25.0 -15.5
v 5.0 25.0 -6.6
v 5.0 26.0 -15.4
v 5.0 26.0 -6.6
v 5.0 27.0 -15.0
v 5.0 27.0 -6.6
v 5.0 28.0 -15.2
v 4.5 28.0 -6.0
v 5.0 28.0 -6.3
v 5.0 28.2 -15.0
v 5.0 29.0 -14.4
v 5.0 28.5 -6.0
v 5.0 29.0 -5.7
v 5.0 29.4 -14.0
v 5.0 29.6 -13.0
v 5.0 30.0 -12.4
v 5.0 30.0 -5.6
v 5.0 30.4 -12.0
v 5.0 31.0 -11.5
v 5.0 31.0 -5.5
v 5.0 31.8 -11.0
v 4.8 32.0 -11.0
v 5.0 32.0 -10.9
v 5.0 32.0 -5.6
v 4.5 33.0 -11.0
v 5.0 33.0 -10.5
v 5.0 32.7 -7.0
v 5.0 33.0 -7.4
v 5.0 32.4 -6.0
v 4.4 34.0 -10.0
v 5.0 33.5 -10.0
v 4.5 34.0 -9.0
v 5.0 33.6 -9.0
v 4.5 34.0 -8.0
v 5.0 33.5 -8.0
v 4.2 35.0 -8.0
v 4.1 36.0 -8.0
v 6.0 15.0 -15.2
v 6.0 14.8 -15.0
v 6.0 14.6 -14.0
v 6.0 14.5 -13.0
v 5.5 15.0 -13.0
v 6.0 15.0 -12.6
v 5.4 16.0 -17.0
v 5.7 16.0 -16.0
v 6.0 16.0 -15.7
v 6.0 15.4 -12.0
v 6.0 15.4 -11.0
v 6.0 15.5 -10.0
v 6.0 15.7 -9.0
v 6.0 16.0 -8.7
v 5.4 17.0 -18.0
v 6.0 17.0 -17.3
v 6.0 16.7 -17.0
v 6.0 16.3 -16.0
v 6.0 16.6 -8.0
v 6.0 17.0 -7.6
v 5.5 18.0 -18.0
v 6.0 18.0 -17.5
v 6.0 17.7 -7.0
v 6.0 18.0 -6.7
v 5.6 19.0 -18.0
v 6.0 19.0 -17.6
v 5.4 19.0 -6.0
v 6.0 19.0 -6.5
v 6.0 20.0 -18.1
v 6.0 19.8 -18.0
v 5.7 20.0 -6.0
v 6.0 20.0 -6.4
v 5.3 20.0 -5.0
v 5.0 20.0 -4.0
v 6.0 20.2 -18.0
v 5.6 21.0 -18.0
v 6.0 21.0 -17.6
v 6.0 20.7 -6.0
v 6.0 21.0 -5.9
v 5.3 22.0 -18.0
v 6.0 22.0 -17.3
v 5.6 22.0 -6.0
v 6.0 21.3 -6.0
v 6.0 22.0 -6.3
v 6.0 22.3 -17.0
v 5.7 23.0 -16.0
v 6.0 22.7 -16.0
v 6.0 23.0 -15.6
v 5.4 23.0 -6.0
v 6.0 23.0 -6.5
v 5.2 24.0 -16.0
v 6.0 23.6 -15.0
v 5.7 24.0 -15.0
v 6.0 24.0 -14.8
v 6.0 24.0 -6.7
v 5.7 25.0 -15.0
v 6.0 25.0 -14.8
v 5.6 25.0 -7.0
v 6.0 24.4 -7.0
v 6.0 25.0 -7.4
v 6.0 26.0 -15.4
v 6.0 25.4 -15.0
v 5.5 26.0 -7.0
v 6.0 26.0 -7.5
v 6.0 27.0 -15.3
v 5.6 27.0 -7.0
v 6.0 27.0 -7.4
v 6.0 27.5 -15.0
v 5.3 28.0 -15.0
v 6.0 28.0 -14.7
v 6.0 27.6 -7.0
v 6.0 28.0 -6.7
v 6.0 29.0 -14.3
v 5.4 29.0 -6.0
v 6.0 29.0 -6.6
v 6.0 29.2 -14.0
v 6.0 29.5 -13.0
v 5.6 30.0 -12.0
v 6.0 29.8 -12.0
v 6.0 30.0 -11.8
v 5.6 30.0 -6.0
v 6.0 30.0 -6.4
v 6.0 31.0 -11.5
v 6.0 30.5 -6.0
v 6.0 31.0 -5.7
v 5.4 32.0 -11.0
v 6.0 32.0 -11.2
v 6.0 32.0 -5.8
v 6.0 32.2 -11.0
v 6.0 33.0 -10.4
v 5.5 33.0 -7.0
v 6.0 33.0 -6.7
v 6.0 32.3 -6.0
v 6.0 33.4 -10.0
v 6.0 33.5 -9.0
v 6.0 33.5 -8.0
v 6.0 33.3 -7.0
v 6.2 15.0 -15.0
v 6.4 15.0 -14.0
v 6.3 15.0 -13.0
v 6.6 16.0 -15.0
v 7.0 16.0 -14.5
v 7.0 15.6 -14.0
v 7.0 15.5 -13.0
v 7.0 15.5 -12.0
v 7.0 15.1 -11.0
v 7.0 15.6 -10.0
v 6.4 16.0 -9.0
v 7.0 16.0 -9.5
v 6.3 17.0 -17.0
v 7.0 17.0 -16.1
v 7.0 16.9 -16.0
v 7.0 16.4 -15.0
v 7.0 16.5 -9.0
v 6.4 17.0 -8.0
v 7.0 17.0 -8.5
v 6.4 18.0 -17.0
v 7.0 17.2 -16.0
v 6.7 18.0 -16.0
v 7.0 18.0 -15.6
v 7.0 17.6 -8.0
v 6.3 18.0 -7.0
v 7.0 18.0 -7.6
v 6.4 19.0 -17.0
v 6.6 19.0 -16.0
v 7.0 19.0 -15.5
v 6.5 19.0 -7.0
v 7.0 19.0 -7.5
v 6.1 20.0 -18.0
v 6.5 20.0 -17.0
v 6.7 20.0 -16.0
v 7.0 20.0 -15.5
v 6.5 20.0 -7.0
v 7.0 20.0 -7.5
v 6.5 21.0 -17.0
v 7.0 21.0 -16.2
v 7.0 20.7 -16.0
v 6.7 21.0 -7.0
v 7.0 21.0 -7.4
v 6.1 21.0 -6.0
v 6.3 22.0 -17.0
v 7.0 22.0 -16.2
v 7.0 21.8 -7.0
v 7.0 22.0 -6.9
v 7.0 22.2 -16.0
v 6.6 23.0 -15.0
v 7.0 22.5 -15.0
v 7.0 23.0 -14.6
v 6.6 23.0 -7.0
v 7.0 22.2 -7.0
v 7.0 23.0 -7.5
v 7.0 24.0 -14.4
v 6.7 24.0 -8.0
v 7.0 23.5 -8.0
v 7.0 24.0 -8.4
v 6.3 24.0 -7.0
v 7.0 25.0 -14.4
v 6.5 25.0 -8.0
v 7.0 25.0 -8.6
v 7.0 26.0 -15.2
v 7.0 25.7 -15.0
v 6.7 26.0 -9.0
v 7.0 25.5 -9.0
v 7.0 26.0 -9.4
v 6.4 26.0 -8.0
v 7.0 27.0 -15.2
v 6.6 27.0 -9.0
v 7.0 27.0 -9.5
v 6.4 27.0 -8.0
v 7.0 27.3 -15.0
v 7.0 28.0 -14.4
v 6.7 28.0 -9.0
v 7.0 28.0 -9.4
v 6.5 28.0 -8.0
v 6.2 28.0 -7.0
v 7.0 28.5 -14.0
v 6.4 29.0 -14.0
v 7.0 29.0 -13.6
v 7.0 28.7 -9.0
v 7.0 29.0 -8.8
v 6.6 29.0 -8.0
v 6.4 29.0 -7.0
v 7.0 29.4 -13.0
v 7.0 29.8 -12.0
v 7.0 30.0 -11.8
v 7.0 30.0 -9.0
v 7.0 29.9 -9.0
v 7.0 30.0 -9.0
v 6.6 30.0 -8.0
v 6.5 30.0 -7.0
v 7.0 31.0 -11.4
v 7.0 30.0 -9.0
v 7.0 30.4 -8.0
v 7.0 30.7 -7.0
v 6.3 31.0 -6.0
v 7.0 31.0 -6.7
v 7.0 31.6 -11.0
v 6.3 32.0 -11.0
v 7.0 32.0 -10.7
v 6.3 32.0 -6.0
v 7.0 32.0 -6.6
v 7.0 33.0 -10.4
v 7.0 33.0 -6.8
v 7.0 33.4 -10.0
v 7.0 33.5 -9.0
v 7.0 33.5 -8.0
v 7.0 33.2 -7.0
v 7.3 16.0 -14.0
v 7.4 16.0 -13.0
v 7.5 16.0 -12.0
v 8.0 16.0 -11.1
v 8.0 15.9 -11.0
v 7.5 16.0 -10.0
v 8.0 16.0 -10.8
v 7.1 17.0 -16.0
v 7.4 17.0 -15.0
v 7.5 17.0 -14.0
v 7.6 17.0 -13.0
v 7.8 17.0 -12.0
v 8.0 17.0 -11.7
v 8.0 16.6 -10.0
v 7.5 17.0 -9.0
v 8.0 17.0 -9.6
v 7.4 18.0 -15.0
v 7.6 18.0 -14.0
v 8.0 18.0 -13.2
v 8.0 17.8 -13.0
v 8.0 17.3 -12.0
v 8.0 17.6 -9.0
v 7.4 18.0 -8.0
v 8.0 18.0 -8.7
v 7.4 19.0 -15.0
v 7.5 19.0 -14.0
v 8.0 18.3 -13.0
v 7.7 19.0 -13.0
v 8.0 19.0 -12.6
v 7.5 19.0 -8.0
v 8.0 19.0 -8.5
v 7.3 20.0 -15.0
v 7.5 20.0 -14.0
v 7.6 20.0 -13.0
v 8.0 20.0 -12.5
v 7.5 20.0 -8.0
v 8.0 20.0 -8.5
v 7.2 21.0 -16.0
v 7.0 21.0 -15.0
v 7.4 21.0 -14.0
v 7.6 21.0 -13.0
v 8.0 21.0 -12.4
v 7.5 21.0 -8.0
v 8.0 21.0 -8.7
v 7.2 22.0 -16.0
v 7.3 22.0 -15.0
v 7.5 22.0 -14.0
v 7.6 22.0 -13.0
v 8.0 21.5 -12.0
v 7.7 22.0 -12.0
v 7.6 22.0 -11.0
v 8.0 21.5 -11.0
v 7.6 22.0 -10.0
v 8.0 21.5 -10.0
v 7.6 22.0 -9.0
v 8.0 21.4 -9.0
v 7.5 22.0 -8.0
v 7.1 22.0 -7.0
v 7.5 23.0 -14.0
v 8.0 23.0 -13.2
v 8.0 22.8 -13.0
v 8.0 22.5 -12.0
v 8.0 23.0 -11.6
v 7.7 23.0 -11.0
v 7.5 23.0 -10.0
v 7.5 23.0 -9.0
v 7.3 23.0 -8.0
v 7.4 24.0 -14.0
v 8.0 23.2 -13.0
v 7.7 24.0 -13.0
v 8.0 24.0 -12.5
v 8.0 23.6 -11.0
v 8.0 24.0 -10.7
v 7.6 24.0 -10.0
v 7.4 24.0 -9.0
v 7.4 25.0 -14.0
v 7.5 25.0 -13.0
v 8.0 24.5 -12.0
v 7.7 25.0 -12.0
v 8.0 25.0 -11.5
v 7.6 25.0 -10.0
v 8.0 25.0 -10.6
v 7.3 25.0 -9.0
v 7.2 26.0 -15.0
v 7.5 26.0 -14.0
v 7.6 26.0 -13.0
v 7.7 26.0 -12.0
v 8.0 26.0 -11.5
v 7.5 26.0 -10.0
v 8.0 26.0 -10.7
v 7.2 27.0 -15.0
v 7.6 27.0 -14.0
v 8.0 27.0 -13.3
v 8.0 26.7 -13.0
v 8.0 26.4 -12.0
v 7.5 27.0 -10.0
v 8.0 27.0 -10.6
v 7.4 28.0 -14.0
v 8.0 28.0 -13.4
v 7.5 28.0 -10.0
v 8.0 28.0 -10.5
v 8.0 29.0 -13.2
v 7.7 29.0 -10.0
v 8.0 29.0 -10.4
v 7.2 29.0 -9.0
v 8.0 29.2 -13.0
v 7.6 30.0 -12.0
v 8.0 30.0 -12.2
v 8.0 29.5 -10.0
v 8.0 30.0 -9.6
v 8.0 30.2 -12.0
v 8.0 31.0 -11.5
v 8.0 30.7 -9.0
v 7.5 31.0 -8.0
v 8.0 31.0 -8.7
v 7.2 31.0 -7.0
v 8.0 31.6 -11.0
v 8.0 32.0 -10.6
v 7.7 32.0 -8.0
v 8.0 32.0 -8.4
v 7.4 32.0 -7.0
v 8.0 33.0 -10.4
v 8.0 32.9 -8.0
v 8.0 33.0 -7.9
v 7.2 33.0 -7.0
v 8.0 33.3 -10.0
v 8.0 33.3 -9.0
v 8.0 33.1 -8.0
v 8.1 16.0 -11.0
v 8.5 17.0 -11.0
v 8.3 17.0 -10.0
v 8.1 18.0 -13.0
v 8.5 18.0 -12.0
v 9.0 18.0 -11.1
v 9.0 17.9 -11.0
v 9.0 18.0 -10.8
v 8.7 18.0 -10.0
v 8.3 18.0 -9.0
v 8.5 19.0 -12.0
v 9.0 19.0 -11.3
v 9.0 18.6 -10.0
v 9.0 19.0 -9.7
v 8.5 19.0 -9.0
v 8.4 20.0 -12.0
v 9.0 19.4 -11.0
v 8.7 20.0 -11.0
v 9.0 20.0 -10.2
v 8.5 20.0 -9.0
v 9.0 20.0 -9.8
v 8.3 21.0 -12.0
v 8.4 21.0 -11.0
v 9.0 20.2 -10.0
v 8.5 21.0 -10.0
v 8.3 21.0 -9.0
v 8.1 23.0 -13.0
v 8.2 23.0 -12.0
v 8.3 24.0 -12.0
v 8.2 24.0 -11.0
v 8.2 25.0 -11.0
v 8.2 26.0 -11.0
v 8.3 27.0 -13.0
v 8.4 27.0 -12.0
v 8.4 27.0 -11.0
v 8.4 28.0 -13.0
v 8.5 28.0 -12.0
v 8.4 28.0 -11.0
v 8.2 29.0 -13.0
v 8.5 29.0 -12.0
v 8.4 29.0 -11.0
v 8.2 30.0 -12.0
v 8.5 30.0 -11.0
v 8.3 30.0 -10.0
v 9.0 30.8 -11.0
v 9.0 31.0 -11.5
v 9.0 31.0 -10.8
v 8.6 31.0 -10.0
v 8.2 31.0 -9.0
v 8.9 32.0 -11.0
v 9.0 32.0 -11.1
v 9.0 32.0 -10.9
v 8.6 32.0 -10.0
v 8.4 32.0 -9.0
v 9.0 32.4 -11.0
v 9.0 33.0 -10.0
v 9.0 33.0 -10.0
v 9.0 33.0 -10.0
v 8.4 33.0 -9.0
v 8.1 33.0 -8.0
v 9.0 33.0 -10.0
v 9.1 18.0 -11.0
v 9.2 19.0 -11.0
v 9.2 19.0 -10.0
v 9.1 20.0 -10.0
v 9.1 31.0 -11.0
v 9.1 32.0 -11.0
v 9.0 33.0 -10.0
f 3 2 1
f 5 4 1
f 1 4 3
f 5 6 4
f 1 2 7
f 7 2 8
f 1 9 5
f 1 7 9
f 6 5 10
f 5 11 10
f 5 9 11
f 11 12 10
f 8 13 7
f 7 13 9
f 9 13 14
f 9 14 11
f 11 14 15
f 18 17 16
f 11 15 12
f 20 19 17
f 17 19 16
f 22 21 20
f 20 21 19
f 22 23 21
f 18 24 17
f 26 25 24
f 25 17 24
f 25 20 17
f 20 27 22
f 20 25 27
f 23 22 28
f 28 22 27
f 26 29 25
f 31 30 29
f 30 25 29
f 30 27 25
f 28 27 32
f 32 27 30
f 30 31 33
f 33 31 34
f 32 30 35
f 35 30 33
f 34 36 33
f 33 36 35
f 39 38 37
f 41 40 37
f 37 40 39
f 41 42 40
f 45 44 43
f 47 46 43
f 43 46 45
f 49 48 47
f 47 48 46
f 51 50 49
f 49 50 48
f 53 52 51
f 51 52 50
f 53 54 52
f 37 38 55
f 55 38 56
f 37 57 41
f 37 55 57
f 42 41 58
f 41 59 58
f 41 57 59
f 60 43 44
f 59 61 58
f 43 60 47
f 47 60 62
f 64 63 62
f 63 47 62
f 63 49 47
f 49 65 51
f 49 63 65
f 51 66 53
f 51 65 66
f 54 53 67
f 67 53 66
f 56 68 55
f 55 68 57
f 57 68 69
f 57 69 59
f 59 69 70
f 59 70 61
f 73 72 71
f 73 71 64
f 71 63 64
f 71 74 63
f 63 75 65
f 63 74 75
f 77 66 76
f 66 75 76
f 66 65 75
f 66 77 67
f 71 72 78
f 78 72 79
f 71 80 74
f 71 78 80
f 74 81 75
f 74 80 81
f 76 75 82
f 82 75 81
f 79 83 78
f 85 84 83
f 84 78 83
f 84 80 78
f 80 86 81
f 80 84 86
f 82 81 87
f 87 81 86
f 90 89 88
f 92 91 88
f 88 91 90
f 91 92 85
f 92 84 85
f 92 93 84
f 84 94 86
f 84 93 94
f 87 86 95
f 86 96 95
f 86 94 96
f 96 97 95
f 100 99 98
f 100 98 89
f 98 88 89
f 98 101 88
f 103 92 102
f 92 101 102
f 92 88 101
f 92 103 93
f 93 103 104
f 93 104 94
f 94 104 105
f 94 105 96
f 96 105 106
f 96 106 97
f 98 99 107
f 107 99 108
f 98 109 101
f 98 107 109
f 102 101 110
f 101 111 110
f 101 109 111
f 111 112 110
f 108 113 107
f 115 114 113
f 114 107 113
f 114 109 107
f 109 116 111
f 109 114 116
f 112 111 117
f 117 111 116
f 115 118 114
f 114 118 116
f 116 118 119
f 116 119 117
f 122 121 120
f 120 123 122
f 126 125 124
f 126 124 121
f 124 120 121
f 124 127 120
f 123 120 128
f 128 120 127
f 125 129 124
f 124 129 127
f 127 129 130
f 127 130 128
f 133 132 131
f 135 134 131
f 131 134 133
f 135 136 134
f 131 132 137
f 137 132 138
f 131 139 135
f 131 137 139
f 136 135 140
f 140 135 139
f 143 142 141
f 145 144 141
f 141 144 143
f 2 3 145
f 3 144 145
f 3 146 144
f 147 3 4
f 147 146 3
f 149 148 6
f 148 4 6
f 148 147 4
f 149 150 148
f 137 138 151
f 151 138 152
f 137 153 139
f 137 151 153
f 140 139 154
f 139 155 154
f 139 153 155
f 157 156 155
f 155 156 154
f 156 157 142
f 157 141 142
f 157 158 141
f 141 159 145
f 141 158 159
f 159 8 2
f 159 2 145
f 10 149 6
f 161 160 12
f 12 160 10
f 160 150 10
f 150 149 10
f 163 162 161
f 161 162 160
f 163 164 162
f 152 165 151
f 151 165 153
f 153 165 166
f 153 166 155
f 155 166 167
f 155 167 157
f 157 167 168
f 170 169 168
f 169 157 168
f 169 158 157
f 172 159 171
f 159 169 171
f 159 158 169
f 159 172 8
f 172 13 8
f 172 173 13
f 13 174 14
f 173 174 13
f 14 175 15
f 174 175 14
f 175 12 15
f 12 175 161
f 176 161 175
f 161 176 16
f 18 16 176
f 161 16 19
f 161 19 163
f 177 164 163
f 19 177 163
f 21 177 19
f 21 23 177
f 177 23 178
f 181 180 179
f 183 182 179
f 179 182 181
f 185 184 183
f 183 184 182
f 187 186 185
f 185 186 184
f 186 187 170
f 187 169 170
f 187 188 169
f 171 169 189
f 169 190 189
f 169 188 190
f 192 191 190
f 190 191 189
f 192 193 191
f 24 18 194
f 18 195 194
f 18 176 195
f 194 26 24
f 28 197 196
f 178 28 196
f 23 28 178
f 197 198 196
f 179 180 199
f 199 180 200
f 179 201 183
f 179 199 201
f 183 202 185
f 183 201 202
f 185 203 187
f 185 202 203
f 187 204 188
f 187 203 204
f 188 205 190
f 188 204 205
f 190 206 192
f 190 205 206
f 193 192 207
f 192 208 207
f 192 206 208
f 210 209 208
f 208 209 207
f 209 210 195
f 210 194 195
f 210 211 194
f 212 29 26
f 194 212 26
f 211 212 194
f 212 31 29
f 32 213 197
f 32 197 28
f 198 197 214
f 197 215 214
f 197 213 215
f 215 216 214
f 199 200 217
f 217 200 218
f 199 219 201
f 199 217 219
f 201 220 202
f 201 219 220
f 202 221 203
f 202 220 221
f 203 222 204
f 203 221 222
f 204 223 205
f 204 222 223
f 205 224 206
f 205 223 224
f 206 225 208
f 206 224 225
f 208 226 210
f 208 225 226
f 210 227 211
f 210 226 227
f 211 228 212
f 211 227 228
f 228 34 31
f 228 31 212
f 35 229 213
f 35 213 32
f 213 230 215
f 213 229 230
f 216 215 231
f 231 215 230
f 218 232 217
f 234 233 232
f 233 217 232
f 233 219 217
f 219 235 220
f 219 233 235
f 220 236 221
f 220 235 236
f 221 237 222
f 221 236 237
f 222 238 223
f 222 237 238
f 223 239 224
f 223 238 239
f 224 240 225
f 224 239 240
f 225 241 226
f 225 240 241
f 226 242 227
f 226 241 242
f 227 243 228
f 227 242 243
f 244 36 34
f 228 244 34
f 243 244 228
f 229 35 36
f 244 229 36
f 245 229 244
f 229 246 230
f 229 245 246
f 231 230 247
f 247 230 246
f 234 248 233
f 250 249 248
f 249 233 248
f 249 235 233
f 235 251 236
f 235 249 251
f 253 237 252
f 237 251 252
f 237 236 251
f 237 253 238
f 238 253 254
f 238 254 239
f 239 254 255
f 257 256 255
f 256 239 255
f 256 240 239
f 240 258 241
f 240 256 258
f 241 259 242
f 241 258 259
f 242 260 243
f 242 259 260
f 243 261 244
f 243 260 261
f 244 262 245
f 244 261 262
f 245 263 246
f 245 262 263
f 247 246 264
f 264 246 263
f 267 266 265
f 267 265 250
f 265 249 250
f 265 268 249
f 270 251 269
f 251 268 269
f 251 249 268
f 251 270 252
f 256 257 271
f 271 257 272
f 256 273 258
f 256 271 273
f 258 274 259
f 258 273 274
f 259 275 260
f 259 274 275
f 260 276 261
f 260 275 276
f 261 277 262
f 261 276 277
f 262 278 263
f 262 277 278
f 264 263 279
f 279 263 278
f 265 266 280
f 280 266 281
f 283 268 282
f 268 280 282
f 268 265 280
f 268 283 269
f 271 272 284
f 284 272 285
f 271 286 273
f 271 284 286
f 273 287 274
f 273 286 287
f 289 275 288
f 275 287 288
f 275 274 287
f 275 289 276
f 276 289 290
f 276 290 277
f 277 290 291
f 293 292 291
f 292 277 291
f 292 278 277
f 279 278 294
f 294 278 292
f 281 295 280
f 280 295 282
f 284 285 296
f 296 285 297
f 284 298 286
f 284 296 298
f 300 287 299
f 287 298 299
f 287 286 298
f 287 300 288
f 293 301 292
f 292 301 294
f 297 302 296
f 296 302 298
f 298 302 303
f 298 303 299
f 305 304 39
f 39 304 38
f 306 39 40
f 306 305 39
f 308 307 42
f 307 40 42
f 307 306 40
f 44 45 308
f 45 307 308
f 45 309 307
f 310 45 46
f 310 309 45
f 311 46 48
f 311 310 46
f 312 48 50
f 312 311 48
f 313 50 52
f 313 312 50
f 315 314 54
f 314 52 54
f 314 313 52
f 317 316 315
f 315 316 314
f 317 318 316
f 304 56 38
f 319 56 304
f 58 308 42
f 320 58 61
f 320 308 58
f 320 60 44
f 308 320 44
f 321 62 60
f 321 60 320
f 321 64 62
f 67 322 315
f 67 315 54
f 324 317 323
f 317 322 323
f 317 315 322
f 317 324 318
f 68 56 325
f 56 326 325
f 56 319 326
f 68 325 327
f 328 68 327
f 69 68 328
f 69 329 70
f 328 329 69
f 70 329 61
f 329 330 61
f 330 320 61
f 330 329 331
f 330 72 73
f 321 330 73
f 320 330 321
f 321 73 64
f 76 332 77
f 322 67 77
f 332 322 77
f 333 322 332
f 323 322 334
f 334 322 333
f 326 335 325
f 325 335 327
f 338 337 336
f 338 336 331
f 336 330 331
f 336 339 330
f 339 79 72
f 339 72 330
f 82 340 332
f 82 332 76
f 332 341 333
f 332 340 341
f 334 333 342
f 342 333 341
f 337 343 336
f 336 343 339
f 339 343 344
f 344 346 345
f 344 345 83
f 339 344 83
f 79 339 83
f 345 85 83
f 87 347 340
f 87 340 82
f 340 348 341
f 340 347 348
f 342 341 349
f 349 341 348
f 351 350 90
f 90 350 89
f 91 345 346
f 351 91 346
f 90 91 351
f 345 91 85
f 95 347 87
f 347 95 97
f 352 347 97
f 348 347 352
f 349 348 353
f 353 348 352
f 355 354 100
f 100 354 99
f 100 89 350
f 100 350 355
f 102 356 103
f 357 104 103
f 357 103 356
f 358 105 104
f 358 104 357
f 359 106 105
f 359 105 358
f 359 360 106
f 106 360 97
f 360 361 97
f 361 352 97
f 352 361 353
f 363 108 362
f 108 354 362
f 108 99 354
f 364 363 362
f 110 356 102
f 356 110 112
f 365 356 112
f 357 356 365
f 357 366 358
f 357 365 366
f 358 367 359
f 358 366 367
f 360 359 368
f 359 369 368
f 359 367 369
f 369 370 368
f 363 113 108
f 115 113 363
f 364 115 363
f 371 115 364
f 117 372 365
f 117 365 112
f 365 373 366
f 365 372 373
f 366 374 367
f 366 373 374
f 367 375 369
f 367 374 375
f 370 369 376
f 376 369 375
f 371 377 115
f 115 377 118
f 377 379 378
f 119 377 378
f 118 377 119
f 372 117 119
f 378 372 119
f 380 372 378
f 382 373 381
f 373 380 381
f 373 372 380
f 373 382 374
f 374 382 383
f 374 383 375
f 375 383 384
f 375 384 376
f 379 385 378
f 387 386 385
f 386 378 385
f 386 380 378
f 381 380 388
f 380 389 388
f 380 386 389
f 389 390 388
f 386 387 391
f 391 387 392
f 386 393 389
f 386 391 393
f 122 394 121
f 394 389 121
f 389 393 121
f 389 394 390
f 122 123 394
f 394 123 395
f 392 396 391
f 397 125 126
f 391 397 126
f 393 391 126
f 396 397 391
f 393 126 121
f 128 395 123
f 128 398 395
f 397 399 125
f 125 399 129
f 129 400 130
f 399 400 129
f 128 130 398
f 398 130 400
f 403 402 401
f 132 133 401
f 133 403 401
f 133 404 403
f 405 133 134
f 405 404 133
f 134 136 405
f 405 136 406
f 409 408 407
f 409 407 402
f 407 401 402
f 407 410 401
f 410 138 132
f 410 132 401
f 140 412 411
f 406 140 411
f 136 140 406
f 414 413 412
f 412 413 411
f 142 143 414
f 143 413 414
f 143 415 413
f 416 143 144
f 416 415 143
f 417 144 146
f 417 416 144
f 418 146 147
f 418 417 146
f 420 418 419
f 418 148 419
f 418 147 148
f 150 419 148
f 407 408 421
f 421 408 422
f 407 423 410
f 407 421 423
f 423 152 138
f 423 138 410
f 154 412 140
f 412 154 156
f 412 156 414
f 414 156 142
f 424 420 419
f 424 419 150
f 160 424 150
f 425 424 160
f 426 160 162
f 426 425 160
f 162 164 426
f 426 164 427
f 422 428 421
f 421 428 423
f 423 428 429
f 429 431 430
f 429 430 165
f 423 429 165
f 152 423 165
f 432 166 165
f 432 165 430
f 433 167 166
f 433 166 432
f 434 168 167
f 434 167 433
f 434 170 168
f 171 435 172
f 436 173 172
f 436 172 435
f 437 174 173
f 437 173 436
f 438 175 174
f 438 174 437
f 438 176 175
f 439 427 164
f 439 164 177
f 441 440 178
f 440 177 178
f 440 439 177
f 441 442 440
f 430 431 181
f 431 180 181
f 431 443 180
f 430 181 182
f 430 182 432
f 432 182 184
f 432 184 433
f 433 184 186
f 433 186 434
f 434 186 170
f 189 435 171
f 435 189 191
f 435 191 436
f 436 191 193
f 444 436 193
f 437 436 444
f 437 445 438
f 437 444 445
f 445 195 176
f 445 176 438
f 196 441 178
f 196 198 441
f 198 442 441
f 198 446 442
f 443 200 180
f 447 200 443
f 207 444 193
f 444 207 209
f 444 209 445
f 445 209 195
f 448 446 198
f 448 198 214
f 214 216 448
f 448 216 449
f 452 451 450
f 447 452 450
f 218 447 450
f 200 447 218
f 231 449 216
f 231 453 449
f 450 451 454
f 454 451 455
f 456 232 218
f 450 456 218
f 454 456 450
f 456 234 232
f 459 458 457
f 458 453 457
f 453 247 457
f 453 231 247
f 455 460 454
f 462 461 460
f 461 454 460
f 461 456 454
f 463 248 234
f 456 463 234
f 461 463 456
f 463 250 248
f 252 464 253
f 465 254 253
f 465 253 464
f 466 255 254
f 466 254 465
f 466 257 255
f 459 457 467
f 459 467 468
f 264 467 247
f 247 467 457
f 461 462 469
f 469 462 470
f 469 266 267
f 463 469 267
f 461 469 463
f 463 267 250
f 269 471 270
f 464 252 270
f 471 464 270
f 472 464 471
f 464 473 465
f 464 472 473
f 465 474 466
f 465 473 474
f 474 272 257
f 474 257 466
f 477 476 475
f 475 476 468
f 467 475 468
f 478 475 467
f 279 478 264
f 264 478 467
f 470 479 469
f 266 469 479
f 480 266 479
f 281 266 480
f 282 481 283
f 471 269 283
f 481 471 283
f 482 471 481
f 471 483 472
f 471 482 483
f 472 484 473
f 472 483 484
f 473 485 474
f 473 484 485
f 485 285 272
f 485 272 474
f 288 486 289
f 487 290 289
f 487 289 486
f 475 488 477
f 487 291 290
f 291 487 489
f 490 475 478
f 490 478 491
f 490 491 293
f 490 293 291
f 490 291 489
f 490 489 492
f 490 492 488
f 490 488 475
f 294 491 279
f 279 491 478
f 480 493 281
f 281 493 295
f 295 493 282
f 493 494 282
f 494 481 282
f 494 493 495
f 481 496 482
f 481 494 496
f 482 497 483
f 482 496 497
f 483 498 484
f 483 497 498
f 484 499 485
f 484 498 499
f 499 297 285
f 499 285 485
f 299 500 300
f 486 288 300
f 500 486 300
f 501 486 500
f 486 502 487
f 486 501 502
f 487 503 489
f 487 502 503
f 301 293 491
f 489 504 492
f 504 489 505
f 503 505 489
f 491 294 301
f 506 504 505
f 495 507 494
f 509 508 507
f 508 494 507
f 508 496 494
f 496 510 497
f 496 508 510
f 497 511 498
f 497 510 511
f 498 512 499
f 498 511 512
f 513 302 297
f 499 513 297
f 512 513 499
f 514 303 302
f 514 302 513
f 500 299 303
f 514 500 303
f 515 500 514
f 500 516 501
f 500 515 516
f 501 517 502
f 501 516 517
f 502 518 503
f 502 517 518
f 503 519 505
f 503 518 519
f 506 505 520
f 520 505 519
f 509 521 508
f 523 522 521
f 522 508 521
f 522 510 508
f 510 524 511
f 510 522 524
f 511 525 512
f 511 524 525
f 512 526 513
f 512 525 526
f 513 527 514
f 513 526 527
f 514 528 515
f 514 527 528
f 515 529 516
f 515 528 529
f 516 530 517
f 516 529 530
f 517 531 518
f 517 530 531
f 518 532 519
f 518 531 532
f 520 519 533
f 519 534 533
f 519 532 534
f 534 535 533
f 523 536 522
f 537 304 305
f 522 537 305
f 524 522 305
f 536 537 522
f 524 305 306
f 524 306 525
f 525 306 307
f 525 307 526
f 526 307 309
f 526 309 527
f 527 309 310
f 527 310 528
f 528 310 311
f 528 311 529
f 529 311 312
f 529 312 530
f 530 312 313
f 530 313 531
f 531 313 314
f 531 314 532
f 532 314 316
f 532 316 534
f 316 318 534
f 318 535 534
f 318 538 535
f 537 319 304
f 539 319 537
f 323 540 324
f 540 541 324
f 541 318 324
f 541 538 318
f 539 326 319
f 542 326 539
f 327 543 328
f 544 329 328
f 544 328 543
f 544 331 329
f 334 545 540
f 334 540 323
f 541 540 546
f 546 540 545
f 542 547 326
f 326 547 335
f 335 547 327
f 547 548 327
f 548 543 327
f 548 547 549
f 548 337 338
f 544 548 338
f 543 548 544
f 544 338 331
f 551 550 545
f 334 551 545
f 342 551 334
f 545 550 546
f 549 552 548
f 552 554 553
f 552 553 343
f 548 552 343
f 337 548 343
f 555 344 343
f 555 343 553
f 555 346 344
f 349 551 342
f 349 556 551
f 554 557 553
f 558 350 351
f 553 558 351
f 555 553 351
f 557 558 553
f 555 351 346
f 353 556 349
f 353 559 556
f 560 354 355
f 561 560 355
f 350 561 355
f 558 561 350
f 360 562 361
f 562 563 361
f 563 353 361
f 563 559 353
f 560 362 354
f 364 362 560
f 561 364 560
f 564 364 561
f 368 562 360
f 368 370 562
f 370 563 562
f 370 565 563
f 564 371 364
f 566 371 564
f 376 565 370
f 376 567 565
f 566 568 371
f 371 568 377
f 379 377 568
f 379 568 569
f 381 570 382
f 571 383 382
f 571 382 570
f 572 384 383
f 572 383 571
f 572 573 384
f 573 376 384
f 573 567 376
f 569 574 379
f 379 574 385
f 387 385 574
f 387 574 575
f 388 570 381
f 570 388 390
f 576 570 390
f 571 570 576
f 578 572 577
f 572 576 577
f 572 571 576
f 572 578 573
f 580 392 579
f 392 575 579
f 392 387 575
f 582 581 580
f 582 580 579
f 583 576 582
f 390 582 576
f 582 390 581
f 394 581 390
f 581 394 584
f 583 577 576
f 395 584 394
f 580 396 392
f 396 580 397
f 580 585 397
f 580 581 585
f 586 581 584
f 585 581 586
f 398 586 395
f 395 586 584
f 585 399 397
f 399 585 400
f 400 585 586
f 400 586 398
f 588 587 403
f 403 587 402
f 590 588 589
f 588 404 589
f 588 403 404
f 405 591 404
f 404 591 589
f 406 591 405
f 592 408 409
f 593 592 409
f 402 593 409
f 587 593 402
f 594 590 589
f 596 595 594
f 589 596 594
f 591 596 589
f 596 591 406
f 597 596 406
f 411 597 406
f 598 596 597
f 599 411 413
f 599 597 411
f 600 413 415
f 600 599 413
f 601 415 416
f 601 600 415
f 602 416 417
f 602 601 416
f 603 417 418
f 603 602 417
f 605 604 420
f 604 418 420
f 604 603 418
f 605 606 604
f 608 607 592
f 607 408 592
f 607 422 408
f 608 592 593
f 609 595 596
f 609 596 598
f 424 605 420
f 610 606 605
f 424 610 605
f 425 610 424
f 611 425 426
f 611 610 425
f 426 427 611
f 611 427 612
f 428 422 613
f 422 614 613
f 422 607 614
f 615 429 428
f 615 428 613
f 615 431 429
f 616 612 427
f 616 427 439
f 617 439 440
f 617 616 439
f 440 442 617
f 617 442 618
f 614 619 613
f 621 620 619
f 620 613 619
f 620 615 613
f 620 443 431
f 620 431 615
f 446 618 442
f 446 622 618
f 620 621 623
f 623 621 624
f 623 447 443
f 623 443 620
f 625 622 446
f 625 446 448
f 448 449 625
f 625 449 626
f 623 624 452
f 624 451 452
f 624 627 451
f 623 452 447
f 630 629 628
f 629 626 628
f 626 453 628
f 626 449 453
f 627 455 451
f 631 455 627
f 630 628 458
f 459 630 458
f 632 630 459
f 458 628 453
f 631 633 455
f 455 633 460
f 462 460 633
f 462 633 634
f 468 632 459
f 468 635 632
f 634 470 462
f 636 470 634
f 638 637 476
f 638 476 477
f 468 476 635
f 635 476 637
f 636 639 470
f 470 639 479
f 480 479 639
f 480 639 640
f 477 488 641
f 642 477 641
f 638 477 642
f 492 641 488
f 640 643 480
f 480 643 493
f 495 493 643
f 495 643 644
f 642 641 645
f 642 645 646
f 504 647 492
f 647 641 492
f 647 645 641
f 506 647 504
f 644 648 495
f 495 648 507
f 509 507 648
f 509 648 649
f 650 646 645
f 652 651 650
f 645 652 650
f 647 652 645
f 520 652 506
f 506 652 647
f 649 653 509
f 509 653 521
f 523 521 653
f 523 653 654
f 651 652 655
f 651 655 656
f 533 657 520
f 657 652 520
f 657 655 652
f 535 657 533
f 536 523 658
f 523 659 658
f 523 654 659
f 658 537 536
f 656 655 660
f 656 660 661
f 662 655 657
f 660 655 662
f 538 662 535
f 535 662 657
f 659 663 658
f 537 658 663
f 664 537 663
f 539 537 664
f 665 661 660
f 667 666 665
f 660 667 665
f 662 667 660
f 541 667 538
f 538 667 662
f 664 542 539
f 668 542 664
f 671 670 669
f 669 670 666
f 667 669 666
f 672 669 667
f 546 672 541
f 541 672 667
f 668 673 542
f 542 673 547
f 549 547 673
f 549 673 674
f 677 676 675
f 675 676 671
f 669 675 671
f 678 675 669
f 551 678 550
f 678 672 550
f 678 669 672
f 550 672 546
f 552 549 679
f 549 680 679
f 549 674 680
f 679 554 552
f 677 675 681
f 677 681 682
f 683 675 678
f 681 675 683
f 556 683 551
f 551 683 678
f 679 680 684
f 684 680 685
f 686 557 554
f 679 686 554
f 684 686 679
f 686 558 557
f 682 681 687
f 682 687 688
f 689 681 683
f 687 681 689
f 559 689 556
f 556 689 683
f 685 690 684
f 692 691 690
f 691 684 690
f 691 686 684
f 691 561 558
f 691 558 686
f 693 688 687
f 695 694 693
f 687 695 693
f 689 695 687
f 563 695 559
f 559 695 689
f 692 696 691
f 561 691 696
f 697 561 696
f 564 561 697
f 698 694 695
f 695 563 698
f 563 699 698
f 563 565 699
f 701 566 700
f 566 697 700
f 566 564 697
f 702 701 700
f 567 699 565
f 567 703 699
f 701 568 566
f 569 568 701
f 702 569 701
f 704 569 702
f 573 703 567
f 573 705 703
f 704 706 569
f 569 706 574
f 708 707 575
f 574 708 575
f 706 708 574
f 710 709 707
f 710 707 708
f 712 711 709
f 712 709 710
f 578 577 711
f 712 578 711
f 713 578 712
f 573 578 705
f 705 578 713
f 707 579 575
f 579 707 582
f 582 707 709
f 582 709 583
f 583 709 711
f 583 711 577
f 715 714 588
f 588 714 587
f 717 716 590
f 716 588 590
f 716 715 588
f 717 718 716
f 721 720 719
f 714 721 719
f 593 714 719
f 587 714 593
f 594 717 590
f 594 595 717
f 595 718 717
f 595 722 718
f 724 723 597
f 597 723 598
f 725 597 599
f 725 724 597
f 726 599 600
f 726 725 599
f 727 600 601
f 727 726 600
f 728 601 602
f 728 727 601
f 729 602 603
f 729 728 602
f 730 603 604
f 730 729 603
f 604 606 730
f 730 606 731
f 719 720 608
f 720 607 608
f 720 732 607
f 719 608 593
f 733 722 595
f 733 595 609
f 609 598 723
f 609 723 733
f 734 731 606
f 734 606 610
f 735 610 611
f 735 734 610
f 611 612 735
f 735 612 736
f 738 614 737
f 614 732 737
f 614 607 732
f 739 738 737
f 740 736 612
f 740 612 616
f 741 616 617
f 741 740 616
f 617 618 741
f 741 618 742
f 738 619 614
f 621 619 738
f 739 621 738
f 743 621 739
f 622 745 744
f 742 622 744
f 618 622 742
f 745 746 744
f 743 624 621
f 747 624 743
f 625 745 622
f 625 626 745
f 626 746 745
f 626 748 746
f 747 627 624
f 749 627 747
f 630 750 629
f 750 751 629
f 751 626 629
f 751 748 626
f 749 631 627
f 752 631 749
f 754 753 750
f 630 754 750
f 632 754 630
f 750 753 751
f 633 631 755
f 631 756 755
f 631 752 756
f 755 634 633
f 759 758 757
f 758 754 757
f 754 635 757
f 754 632 635
f 756 760 755
f 634 755 760
f 761 634 760
f 636 634 761
f 759 757 637
f 638 759 637
f 762 759 638
f 637 757 635
f 761 763 636
f 636 763 639
f 765 764 640
f 639 765 640
f 763 765 639
f 766 764 765
f 642 762 638
f 642 767 762
f 764 643 640
f 644 643 764
f 766 644 764
f 768 644 766
f 646 767 642
f 646 769 767
f 648 644 770
f 644 771 770
f 644 768 771
f 770 649 648
f 646 650 772
f 773 646 772
f 769 646 773
f 651 772 650
f 771 774 770
f 774 776 775
f 774 775 653
f 770 774 653
f 649 770 653
f 775 654 653
f 773 772 777
f 773 777 778
f 656 777 651
f 651 777 772
f 776 779 775
f 654 775 779
f 780 654 779
f 659 654 780
f 781 778 777
f 777 656 781
f 656 782 781
f 656 661 782
f 780 783 659
f 659 783 663
f 664 663 783
f 664 783 784
f 661 665 785
f 786 661 785
f 782 661 786
f 666 785 665
f 784 668 664
f 787 668 784
f 786 785 670
f 671 786 670
f 788 786 671
f 670 785 666
f 787 789 668
f 668 789 673
f 674 673 789
f 674 789 790
f 792 791 676
f 792 676 677
f 671 676 788
f 788 676 791
f 790 680 674
f 793 680 790
f 796 795 794
f 795 792 794
f 792 682 794
f 792 677 682
f 798 685 797
f 685 793 797
f 685 680 793
f 799 798 797
f 800 796 794
f 794 682 800
f 682 801 800
f 682 688 801
f 798 690 685
f 692 690 798
f 799 692 798
f 802 692 799
f 688 693 803
f 804 688 803
f 801 688 804
f 694 803 693
f 802 805 692
f 692 805 696
f 697 696 805
f 697 805 806
f 804 803 807
f 804 807 808
f 698 809 694
f 809 803 694
f 809 807 803
f 699 809 698
f 806 810 697
f 697 810 700
f 702 700 810
f 702 810 811
f 814 813 812
f 812 813 808
f 807 812 808
f 815 812 807
f 816 807 809
f 815 807 816
f 703 816 699
f 699 816 809
f 818 704 817
f 704 811 817
f 704 702 811
f 819 818 817
f 814 812 820
f 814 820 821
f 822 812 815
f 820 812 822
f 823 815 816
f 822 815 823
f 705 823 703
f 703 823 816
f 818 706 704
f 819 824 818
f 824 706 818
f 824 708 706
f 820 710 821
f 710 824 821
f 710 708 824
f 710 820 712
f 712 820 822
f 712 822 713
f 713 822 823
f 713 823 705
f 826 825 715
f 715 825 714
f 827 715 716
f 827 826 715
f 716 718 827
f 827 718 828
f 829 720 721
f 830 829 721
f 714 830 721
f 825 830 714
f 722 832 831
f 828 722 831
f 718 722 828
f 723 724 832
f 724 831 832
f 724 833 831
f 834 724 725
f 834 833 724
f 835 725 726
f 835 834 725
f 836 726 727
f 836 835 726
f 837 727 728
f 837 836 727
f 838 728 729
f 838 837 728
f 839 729 730
f 839 838 729
f 730 731 839
f 839 731 840
f 842 841 829
f 841 720 829
f 841 732 720
f 842 829 830
f 733 832 722
f 832 733 723
f 843 840 731
f 843 731 734
f 844 734 735
f 844 843 734
f 735 736 844
f 844 736 845
f 841 846 732
f 732 846 737
f 739 737 846
f 739 846 847
f 848 845 736
f 848 736 740
f 850 848 849
f 848 741 849
f 848 740 741
f 742 849 741
f 847 743 739
f 851 743 847
f 852 850 849
f 852 849 742
f 744 852 742
f 853 852 744
f 744 746 853
f 853 746 854
f 851 747 743
f 855 747 851
f 748 854 746
f 748 856 854
f 855 749 747
f 857 749 855
f 751 856 748
f 751 858 856
f 857 752 749
f 859 752 857
f 862 861 860
f 753 754 860
f 861 753 860
f 863 753 861
f 751 753 858
f 858 753 863
f 859 756 752
f 864 756 859
f 862 860 758
f 759 862 758
f 865 862 759
f 758 860 754
f 864 866 756
f 756 866 760
f 868 867 761
f 760 868 761
f 866 868 760
f 869 867 868
f 762 865 759
f 762 870 865
f 867 763 761
f 869 871 867
f 871 763 867
f 871 765 763
f 766 765 871
f 766 871 872
f 875 874 873
f 874 870 873
f 870 767 873
f 870 762 767
f 872 768 766
f 876 768 872
f 875 873 877
f 875 877 878
f 769 877 767
f 767 877 873
f 876 771 768
f 879 771 876
f 878 877 880
f 878 880 881
f 773 880 769
f 769 880 877
f 774 771 882
f 771 883 882
f 771 879 883
f 882 776 774
f 884 881 880
f 880 773 884
f 773 885 884
f 773 778 885
f 883 886 882
f 886 888 887
f 886 887 779
f 882 886 779
f 776 882 779
f 887 780 779
f 778 781 889
f 890 778 889
f 885 778 890
f 782 889 781
f 888 891 887
f 887 891 780
f 891 783 780
f 891 892 783
f 784 783 892
f 784 892 893
f 890 889 894
f 890 894 895
f 786 894 782
f 782 894 889
f 897 787 896
f 787 893 896
f 787 784 893
f 898 897 896
f 895 894 899
f 895 899 900
f 788 899 786
f 786 899 894
f 897 789 787
f 790 789 897
f 898 790 897
f 901 790 898
f 900 899 791
f 792 900 791
f 902 900 792
f 791 899 788
f 901 793 790
f 903 793 901
f 906 905 904
f 795 796 904
f 905 795 904
f 907 795 905
f 792 795 902
f 902 795 907
f 903 908 793
f 793 908 797
f 799 797 908
f 799 908 909
f 906 904 910
f 906 910 911
f 800 912 796
f 912 904 796
f 912 910 904
f 801 912 800
f 914 802 913
f 802 909 913
f 802 799 909
f 916 915 914
f 916 914 913
f 917 915 916
f 911 910 918
f 911 918 919
f 920 910 912
f 918 910 920
f 804 920 801
f 801 920 912
f 914 805 802
f 805 914 806
f 914 921 806
f 914 915 921
f 915 917 922
f 915 922 921
f 919 918 923
f 919 923 924
f 925 918 920
f 923 918 925
f 808 925 804
f 804 925 920
f 921 810 806
f 927 926 811
f 927 811 810
f 922 927 810
f 921 922 810
f 926 927 924
f 923 926 924
f 928 926 923
f 814 928 813
f 928 925 813
f 928 923 925
f 813 925 808
f 926 817 811
f 817 926 819
f 926 929 819
f 926 928 929
f 821 929 814
f 814 929 928
f 929 824 819
f 824 929 821
f 930 825 826
f 827 931 826
f 826 931 930
f 828 931 827
f 934 933 932
f 936 935 932
f 932 935 934
f 936 937 935
f 938 830 930
f 930 830 825
f 931 940 939
f 938 931 939
f 930 931 938
f 940 931 828
f 831 940 828
f 941 940 831
f 833 932 933
f 941 833 933
f 831 833 941
f 932 833 834
f 932 834 936
f 942 937 936
f 834 942 936
f 835 942 834
f 943 835 836
f 943 942 835
f 944 836 837
f 944 943 836
f 945 837 838
f 945 944 837
f 946 838 839
f 946 945 838
f 839 840 946
f 946 840 947
f 948 841 842
f 949 948 842
f 949 842 830
f 950 949 830
f 938 950 830
f 950 938 939
f 951 947 840
f 951 840 843
f 953 951 952
f 951 844 952
f 951 843 844
f 845 952 844
f 948 846 841
f 847 846 948
f 949 847 948
f 954 847 949
f 955 953 952
f 957 955 956
f 956 955 848
f 955 952 848
f 952 845 848
f 850 956 848
f 954 851 847
f 958 851 954
f 959 957 956
f 961 959 960
f 960 959 852
f 959 956 852
f 956 850 852
f 853 962 852
f 852 962 960
f 854 962 853
f 958 855 851
f 963 855 958
f 964 961 960
f 964 960 962
f 964 962 965
f 962 854 965
f 854 966 965
f 854 856 966
f 963 857 855
f 967 857 963
f 970 969 968
f 972 971 968
f 972 968 969
f 972 966 971
f 966 858 971
f 966 856 858
f 967 859 857
f 973 859 967
f 970 968 861
f 862 970 861
f 974 970 862
f 861 968 863
f 863 968 971
f 863 971 858
f 976 864 975
f 864 973 975
f 864 859 973
f 978 977 976
f 978 976 975
f 979 977 978
f 865 974 862
f 865 980 974
f 976 866 864
f 866 976 868
f 868 976 977
f 869 868 977
f 979 869 977
f 981 869 979
f 984 983 982
f 983 980 982
f 980 870 982
f 980 865 870
f 981 985 869
f 869 985 871
f 872 871 985
f 872 985 986
f 984 982 874
f 875 984 874
f 987 984 875
f 874 982 870
f 986 876 872
f 988 876 986
f 878 987 875
f 878 989 987
f 988 879 876
f 990 879 988
f 881 989 878
f 881 991 989
f 990 883 879
f 992 883 990
f 881 884 993
f 994 881 993
f 991 881 994
f 885 993 884
f 992 995 883
f 883 995 886
f 888 886 995
f 888 995 996
f 997 994 993
f 993 885 997
f 885 998 997
f 885 890 998
f 996 999 888
f 888 999 891
f 891 1000 892
f 999 1000 891
f 893 892 1000
f 893 1000 1001
f 895 998 890
f 895 1002 998
f 1001 1003 893
f 893 1003 896
f 898 896 1003
f 898 1003 1004
f 900 1002 895
f 900 1005 1002
f 1007 901 1006
f 901 1004 1006
f 901 898 1004
f 1008 1007 1006
f 902 1005 900
f 902 1009 1005
f 1010 903 1007
f 1007 903 901
f 1007 1008 1011
f 1007 1011 1010
f 1013 1012 905
f 1013 905 906
f 905 1014 907
f 1012 1014 905
f 902 907 1009
f 1009 907 1014
f 1010 908 903
f 1016 1015 909
f 1016 909 908
f 1011 1016 908
f 1010 1011 908
f 1018 1017 1015
f 1018 1015 1016
f 1020 1019 1017
f 1020 1017 1018
f 1020 1013 1019
f 1013 911 1019
f 1013 906 911
f 1015 913 909
f 913 1015 916
f 916 1015 1017
f 916 1017 917
f 1017 1021 917
f 1017 1019 1021
f 919 1021 911
f 911 1021 1019
f 1022 922 1021
f 1021 922 917
f 924 1022 919
f 919 1022 1021
f 1022 927 922
f 927 1022 924
f 1024 1023 934
f 934 1023 933
f 1025 934 935
f 1025 1024 934
f 1027 1026 937
f 1026 935 937
f 1026 1025 935
f 1027 1028 1026
f 1029 939 940
f 941 1030 940
f 940 1030 1029
f 1031 1030 941
f 933 1031 941
f 1023 1031 933
f 942 1027 937
f 1032 1028 1027
f 942 1032 1027
f 943 1032 942
f 1033 943 944
f 1033 1032 943
f 1034 944 945
f 1034 1033 944
f 1035 945 946
f 1035 1034 945
f 946 947 1035
f 1035 947 1036
f 1037 949 950
f 1038 1037 950
f 1038 950 939
f 1039 1038 939
f 1029 1039 939
f 1039 1029 1030
f 1039 1030 1040
f 1040 1030 1031
f 1041 1036 947
f 1041 947 951
f 951 953 1041
f 1041 953 1042
f 1043 954 1037
f 1037 954 949
f 1037 1038 1044
f 1037 1044 1043
f 1045 1042 953
f 1045 953 955
f 955 957 1045
f 1045 957 1046
f 1047 958 1043
f 1043 958 954
f 1043 1044 1048
f 1043 1048 1047
f 957 959 1049
f 1050 957 1049
f 1046 957 1050
f 961 1049 959
f 1052 1051 1047
f 1051 958 1047
f 1051 963 958
f 1052 1047 1048
f 1050 1049 1053
f 1050 1053 1054
f 964 1055 961
f 1055 1049 961
f 1055 1053 1049
f 965 1056 964
f 964 1056 1055
f 966 1056 965
f 1058 967 1057
f 967 1051 1057
f 967 963 1051
f 1059 1058 1057
f 1060 1054 1053
f 970 1061 969
f 1061 1053 969
f 1053 1055 969
f 1061 1060 1053
f 969 1055 972
f 972 1055 1056
f 972 1056 966
f 1062 973 1058
f 1058 973 967
f 1058 1059 1063
f 1058 1063 1062
f 1066 1065 1064
f 1065 1061 1064
f 1061 974 1064
f 1061 970 974
f 1062 975 973
f 1063 1067 1062
f 1067 975 1062
f 1067 978 975
f 1069 1068 979
f 978 1069 979
f 1067 1069 978
f 1070 1068 1069
f 1066 1064 1071
f 1066 1071 1072
f 980 1071 974
f 974 1071 1064
f 1073 981 1068
f 1068 981 979
f 1068 1070 1074
f 1075 1068 1074
f 1073 1068 1075
f 1076 1075 1074
f 1072 1071 983
f 984 1072 983
f 1077 1072 984
f 983 1071 980
f 1073 985 981
f 985 1073 986
f 1073 1078 986
f 1073 1075 1078
f 1075 1076 1079
f 1075 1079 1078
f 1082 1081 1080
f 1081 1077 1080
f 1077 987 1080
f 1077 984 987
f 1084 1083 1078
f 1083 986 1078
f 1083 988 986
f 1084 1078 1079
f 1082 1080 1085
f 1082 1085 1086
f 989 1085 987
f 987 1085 1080
f 1083 990 988
f 1087 990 1083
f 1086 1085 1088
f 1086 1088 1089
f 991 1088 989
f 989 1088 1085
f 1091 992 1090
f 992 1087 1090
f 992 990 1087
f 1092 1091 1090
f 1093 1089 1088
f 1088 991 1093
f 991 1094 1093
f 991 994 1094
f 1091 995 992
f 996 995 1091
f 1092 996 1091
f 1095 996 1092
f 994 997 1096
f 1097 994 1096
f 1094 994 1097
f 998 1096 997
f 1095 1098 996
f 996 1098 999
f 999 1099 1000
f 1098 1099 999
f 1101 1100 1001
f 1000 1101 1001
f 1099 1101 1000
f 1102 1100 1101
f 1097 1096 1103
f 1097 1103 1104
f 1002 1103 998
f 998 1103 1096
f 1100 1003 1001
f 1004 1003 1100
f 1102 1004 1100
f 1105 1004 1102
f 1106 1104 1103
f 1103 1002 1106
f 1002 1107 1106
f 1002 1005 1107
f 1006 1004 1108
f 1004 1109 1108
f 1004 1105 1109
f 1108 1008 1006
f 1009 1107 1005
f 1009 1110 1107
f 1109 1111 1108
f 1008 1108 1111
f 1112 1008 1111
f 1011 1008 1112
f 1013 1113 1012
f 1012 1113 1114
f 1115 1012 1114
f 1014 1012 1115
f 1009 1014 1110
f 1110 1014 1115
f 1112 1116 1011
f 1011 1116 1016
f 1016 1117 1018
f 1116 1117 1016
f 1018 1118 1020
f 1117 1118 1018
f 1013 1020 1113
f 1020 1119 1113
f 1020 1118 1119
f 1113 1119 1114
f 1120 1023 1024
f 1025 1121 1024
f 1024 1121 1120
f 1026 1122 1025
f 1025 1122 1121
f 1028 1122 1026
f 1123 1031 1120
f 1120 1031 1023
f 1121 1125 1124
f 1123 1121 1124
f 1120 1121 1123
f 1125 1121 1122
f 1125 1122 1126
f 1126 1122 1028
f 1032 1126 1028
f 1127 1126 1032
f 1128 1032 1033
f 1128 1127 1032
f 1129 1033 1034
f 1129 1128 1033
f 1131 1129 1130
f 1129 1035 1130
f 1129 1034 1035
f 1036 1130 1035
f 1132 1038 1039
f 1132 1039 1133
f 1039 1134 1133
f 1039 1040 1134
f 1040 1031 1123
f 1135 1040 1123
f 1134 1040 1135
f 1135 1123 1124
f 1136 1131 1130
f 1138 1136 1137
f 1137 1136 1041
f 1136 1130 1041
f 1130 1036 1041
f 1042 1137 1041
f 1139 1044 1132
f 1132 1044 1038
f 1132 1133 1140
f 1141 1132 1140
f 1139 1132 1141
f 1142 1141 1140
f 1143 1138 1137
f 1145 1143 1144
f 1144 1143 1045
f 1143 1137 1045
f 1137 1042 1045
f 1046 1144 1045
f 1146 1048 1139
f 1139 1048 1044
f 1147 1139 1141
f 1146 1139 1147
f 1141 1142 1148
f 1141 1148 1147
f 1145 1144 1149
f 1145 1149 1150
f 1050 1149 1046
f 1046 1149 1144
f 1151 1051 1052
f 1048 1146 1052
f 1146 1151 1052
f 1146 1152 1151
f 1153 1146 1147
f 1152 1146 1153
f 1147 1148 1154
f 1147 1154 1153
f 1150 1149 1155
f 1150 1155 1156
f 1054 1155 1050
f 1050 1155 1149
f 1151 1057 1051
f 1057 1151 1059
f 1151 1157 1059
f 1151 1152 1157
f 1153 1159 1158
f 1157 1153 1158
f 1152 1153 1157
f 1159 1153 1154
f 1156 1155 1160
f 1156 1160 1161
f 1060 1162 1054
f 1162 1155 1054
f 1162 1160 1155
f 1061 1162 1060
f 1163 1063 1157
f 1157 1063 1059
f 1157 1158 1164
f 1157 1164 1163
f 1165 1161 1160
f 1066 1166 1065
f 1166 1160 1065
f 1160 1162 1065
f 1166 1165 1160
f 1065 1162 1061
f 1163 1067 1063
f 1164 1167 1163
f 1167 1067 1163
f 1167 1069 1067
f 1169 1168 1070
f 1069 1169 1070
f 1167 1169 1069
f 1170 1168 1169
f 1173 1172 1171
f 1172 1166 1171
f 1166 1072 1171
f 1166 1066 1072
f 1168 1074 1070
f 1076 1074 1168
f 1170 1076 1168
f 1174 1076 1170
f 1177 1176 1175
f 1175 1176 1173
f 1171 1175 1173
f 1178 1175 1171
f 1077 1178 1072
f 1072 1178 1171
f 1174 1079 1076
f 1179 1079 1174
f 1177 1175 1180
f 1177 1180 1181
f 1082 1180 1081
f 1180 1178 1081
f 1180 1175 1178
f 1081 1178 1077
f 1183 1182 1084
f 1084 1182 1083
f 1084 1079 1179
f 1084 1179 1183
f 1186 1185 1184
f 1184 1185 1181
f 1180 1184 1181
f 1187 1184 1180
f 1086 1187 1082
f 1082 1187 1180
f 1182 1087 1083
f 1188 1087 1182
f 1186 1184 1189
f 1186 1189 1190
f 1191 1184 1187
f 1189 1184 1191
f 1089 1191 1086
f 1086 1191 1187
f 1188 1192 1087
f 1087 1192 1090
f 1092 1090 1192
f 1092 1192 1193
f 1190 1189 1194
f 1190 1194 1195
f 1196 1189 1191
f 1194 1189 1196
f 1093 1197 1089
f 1197 1191 1089
f 1197 1196 1191
f 1094 1197 1093
f 1199 1095 1198
f 1095 1193 1198
f 1095 1092 1193
f 1200 1199 1198
f 1201 1195 1194
f 1203 1202 1201
f 1194 1203 1201
f 1196 1203 1194
f 1204 1196 1197
f 1203 1196 1204
f 1097 1204 1094
f 1094 1204 1197
f 1199 1098 1095
f 1200 1205 1199
f 1205 1098 1199
f 1205 1099 1098
f 1099 1206 1101
f 1205 1206 1099
f 1102 1101 1206
f 1102 1206 1207
f 1210 1209 1208
f 1208 1209 1202
f 1203 1208 1202
f 1211 1208 1203
f 1212 1203 1204
f 1211 1203 1212
f 1104 1212 1097
f 1097 1212 1204
f 1207 1105 1102
f 1213 1105 1207
f 1214 1210 1208
f 1214 1208 1211
f 1214 1211 1215
f 1215 1211 1212
f 1215 1212 1216
f 1218 1216 1217
f 1217 1216 1106
f 1216 1212 1106
f 1212 1104 1106
f 1107 1217 1106
f 1220 1109 1219
f 1109 1213 1219
f 1109 1105 1213
f 1221 1220 1219
f 1218 1217 1222
f 1218 1222 1223
f 1110 1222 1107
f 1107 1222 1217
f 1220 1111 1109
f 1112 1111 1220
f 1221 1112 1220
f 1224 1112 1221
f 1223 1222 1115
f 1114 1223 1115
f 1225 1223 1114
f 1115 1222 1110
f 1224 1226 1112
f 1112 1226 1116
f 1116 1227 1117
f 1226 1227 1116
f 1117 1228 1118
f 1227 1228 1117
f 1118 1229 1119
f 1228 1229 1118
f 1114 1119 1225
f 1225 1119 1229
f 1230 1124 1125
f 1126 1231 1125
f 1125 1231 1230
f 1127 1232 1126
f 1126 1232 1231
f 1232 1127 1233
f 1127 1234 1233
f 1127 1128 1234
f 1236 1234 1235
f 1234 1129 1235
f 1234 1128 1129
f 1131 1235 1129
f 1237 1133 1134
f 1135 1238 1134
f 1134 1238 1237
f 1124 1230 1135
f 1230 1238 1135
f 1230 1239 1238
f 1240 1230 1231
f 1239 1230 1240
f 1241 1231 1232
f 1240 1231 1241
f 1232 1233 1242
f 1232 1242 1241
f 1243 1236 1235
f 1245 1243 1244
f 1244 1243 1136
f 1243 1235 1136
f 1235 1131 1136
f 1138 1244 1136
f 1237 1140 1133
f 1140 1237 1142
f 1237 1246 1142
f 1237 1238 1246
f 1247 1238 1239
f 1246 1238 1247
f 1240 1249 1248
f 1247 1240 1248
f 1239 1240 1247
f 1249 1240 1241
f 1249 1241 1250
f 1250 1241 1242
f 1251 1245 1244
f 1253 1251 1252
f 1252 1251 1143
f 1251 1244 1143
f 1244 1138 1143
f 1145 1252 1143
f 1254 1148 1246
f 1246 1148 1142
f 1255 1246 1247
f 1254 1246 1255
f 1247 1248 1256
f 1257 1247 1256
f 1255 1247 1257
f 1258 1257 1256
f 1253 1252 1259
f 1253 1259 1260
f 1150 1259 1145
f 1145 1259 1252
f 1261 1154 1254
f 1254 1154 1148
f 1262 1254 1255
f 1261 1254 1262
f 1263 1255 1257
f 1262 1255 1263
f 1257 1258 1264
f 1257 1264 1263
f 1260 1259 1265
f 1260 1265 1266
f 1156 1265 1150
f 1150 1265 1259
f 1267 1158 1159
f 1154 1261 1159
f 1261 1267 1159
f 1261 1268 1267
f 1269 1261 1262
f 1268 1261 1269
f 1270 1262 1263
f 1269 1262 1270
f 1263 1264 1271
f 1263 1271 1270
f 1266 1265 1272
f 1266 1272 1273
f 1161 1272 1156
f 1156 1272 1265
f 1274 1164 1267
f 1267 1164 1158
f 1275 1267 1268
f 1274 1267 1275
f 1276 1268 1269
f 1275 1268 1276
f 1277 1269 1270
f 1276 1269 1277
f 1270 1271 1278
f 1279 1270 1278
f 1277 1270 1279
f 1281 1280 1279
f 1281 1279 1278
f 1283 1282 1280
f 1283 1280 1281
f 1285 1284 1282
f 1285 1282 1283
f 1284 1285 1273
f 1272 1284 1273
f 1286 1284 1272
f 1165 1287 1161
f 1287 1272 1161
f 1287 1286 1272
f 1166 1287 1165
f 1274 1167 1164
f 1167 1274 1169
f 1169 1274 1275
f 1169 1275 1170
f 1275 1288 1170
f 1275 1276 1288
f 1277 1290 1289
f 1288 1277 1289
f 1276 1277 1288
f 1290 1277 1279
f 1290 1279 1291
f 1293 1292 1291
f 1279 1293 1291
f 1280 1293 1279
f 1294 1280 1282
f 1293 1280 1294
f 1295 1282 1284
f 1294 1282 1295
f 1296 1284 1286
f 1295 1284 1296
f 1173 1296 1172
f 1296 1287 1172
f 1296 1286 1287
f 1172 1287 1166
f 1297 1174 1288
f 1288 1174 1170
f 1288 1289 1298
f 1299 1288 1298
f 1297 1288 1299
f 1300 1299 1298
f 1301 1292 1293
f 1303 1302 1301
f 1293 1303 1301
f 1294 1303 1293
f 1304 1294 1295
f 1303 1294 1304
f 1177 1304 1176
f 1304 1296 1176
f 1304 1295 1296
f 1176 1296 1173
f 1305 1179 1297
f 1297 1179 1174
f 1306 1297 1299
f 1305 1297 1306
f 1299 1300 1307
f 1308 1299 1307
f 1306 1299 1308
f 1309 1308 1307
f 1302 1303 1310
f 1302 1310 1311
f 1312 1303 1304
f 1310 1303 1312
f 1181 1312 1177
f 1177 1312 1304
f 1313 1182 1183
f 1179 1305 1183
f 1305 1313 1183
f 1305 1314 1313
f 1315 1305 1306
f 1314 1305 1315
f 1316 1306 1308
f 1315 1306 1316
f 1308 1309 1317
f 1308 1317 1316
f 1311 1310 1318
f 1311 1318 1319
f 1186 1318 1185
f 1318 1312 1185
f 1318 1310 1312
f 1185 1312 1181
f 1320 1188 1313
f 1313 1188 1182
f 1321 1313 1314
f 1320 1313 1321
f 1315 1323 1322
f 1321 1315 1322
f 1314 1315 1321
f 1323 1315 1316
f 1323 1316 1324
f 1324 1316 1317
f 1319 1318 1325
f 1319 1325 1326
f 1190 1325 1186
f 1186 1325 1318
f 1320 1192 1188
f 1192 1320 1193
f 1320 1327 1193
f 1320 1321 1327
f 1321 1322 1328
f 1321 1328 1327
f 1326 1325 1329
f 1326 1329 1330
f 1195 1329 1190
f 1190 1329 1325
f 1327 1198 1193
f 1200 1198 1327
f 1328 1200 1327
f 1331 1200 1328
f 1330 1329 1332
f 1330 1332 1333
f 1201 1334 1195
f 1334 1329 1195
f 1334 1332 1329
f 1202 1334 1201
f 1331 1335 1200
f 1200 1335 1205
f 1335 1337 1336
f 1206 1335 1336
f 1205 1335 1206
f 1336 1207 1206
f 1338 1333 1332
f 1210 1339 1209
f 1339 1332 1209
f 1332 1334 1209
f 1339 1338 1332
f 1209 1334 1202
f 1337 1340 1336
f 1207 1336 1340
f 1341 1207 1340
f 1213 1207 1341
f 1342 1339 1210
f 1342 1210 1214
f 1344 1342 1343
f 1342 1215 1343
f 1342 1214 1215
f 1216 1345 1215
f 1215 1345 1343
f 1218 1345 1216
f 1341 1346 1213
f 1213 1346 1219
f 1221 1219 1346
f 1221 1346 1347
f 1344 1343 1348
f 1344 1348 1349
f 1350 1343 1345
f 1348 1343 1350
f 1223 1350 1218
f 1218 1350 1345
f 1347 1224 1221
f 1351 1224 1347
f 1352 1349 1348
f 1354 1353 1352
f 1348 1354 1352
f 1350 1354 1348
f 1225 1354 1223
f 1223 1354 1350
f 1351 1355 1224
f 1224 1355 1226
f 1226 1356 1227
f 1355 1356 1226
f 1227 1357 1228
f 1356 1357 1227
f 1354 1229 1353
f 1229 1357 1353
f 1229 1228 1357
f 1229 1354 1225
f 1358 1233 1234
f 1236 1358 1234
f 1359 1242 1358
f 1358 1242 1233
f 1243 1360 1236
f 1360 1358 1236
f 1360 1359 1358
f 1245 1360 1243
f 1361 1248 1249
f 1250 1362 1249
f 1249 1362 1361
f 1363 1362 1250
f 1363 1250 1242
f 1364 1363 1242
f 1359 1364 1242
f 1366 1365 1364
f 1359 1366 1364
f 1360 1366 1359
f 1251 1367 1245
f 1367 1360 1245
f 1367 1366 1360
f 1253 1367 1251
f 1361 1256 1248
f 1256 1361 1258
f 1361 1368 1258
f 1361 1362 1368
f 1362 1363 1369
f 1362 1369 1368
f 1370 1365 1366
f 1372 1371 1370
f 1366 1372 1370
f 1367 1372 1366
f 1260 1372 1253
f 1253 1372 1367
f 1373 1264 1368
f 1368 1264 1258
f 1368 1369 1374
f 1375 1368 1374
f 1373 1368 1375
f 1376 1375 1374
f 1371 1372 1377
f 1371 1377 1378
f 1266 1377 1260
f 1260 1377 1372
f 1379 1271 1373
f 1373 1271 1264
f 1380 1373 1375
f 1379 1373 1380
f 1375 1376 1381
f 1382 1375 1381
f 1380 1375 1382
f 1382 1381 1378
f 1377 1382 1378
f 1383 1382 1377
f 1273 1383 1266
f 1266 1383 1377
f 1379 1278 1271
f 1278 1379 1281
f 1281 1379 1380
f 1281 1380 1283
f 1283 1380 1382
f 1283 1382 1285
f 1285 1382 1383
f 1285 1383 1273
f 1384 1289 1290
f 1291 1385 1290
f 1290 1385 1384
f 1292 1385 1291
f 1384 1298 1289
f 1298 1384 1300
f 1384 1386 1300
f 1384 1385 1386
f 1301 1387 1292
f 1387 1385 1292
f 1387 1386 1385
f 1302 1387 1301
f 1386 1307 1300
f 1307 1386 1309
f 1386 1388 1309
f 1386 1387 1388
f 1311 1388 1302
f 1302 1388 1387
f 1389 1317 1388
f 1388 1317 1309
f 1319 1389 1311
f 1311 1389 1388
f 1390 1322 1323
f 1324 1391 1323
f 1323 1391 1390
f 1317 1389 1324
f 1389 1391 1324
f 1389 1392 1391
f 1326 1392 1319
f 1319 1392 1389
f 1393 1328 1390
f 1390 1328 1322
f 1394 1390 1391
f 1393 1390 1394
f 1395 1391 1392
f 1394 1391 1395
f 1330 1395 1326
f 1326 1395 1392
f 1396 1331 1393
f 1393 1331 1328
f 1397 1393 1394
f 1396 1393 1397
f 1398 1394 1395
f 1397 1394 1398
f 1333 1398 1330
f 1330 1398 1395
f 1396 1335 1331
f 1335 1396 1337
f 1396 1399 1337
f 1396 1397 1399
f 1400 1397 1398
f 1399 1397 1400
f 1338 1401 1333
f 1401 1398 1333
f 1401 1400 1398
f 1339 1401 1338
f 1399 1340 1337
f 1399 1400 1402
f 1341 1399 1402
f 1403 1341 1402
f 1399 1341 1340
f 1405 1404 1402
f 1400 1405 1402
f 1401 1405 1400
f 1342 1406 1339
f 1406 1401 1339
f 1406 1405 1401
f 1344 1406 1342
f 1346 1341 1407
f 1341 1408 1407
f 1341 1403 1408
f 1404 1407 1409
f 1407 1404 1346
f 1405 1346 1404
f 1346 1405 1347
f 1410 1347 1405
f 1411 1405 1406
f 1410 1405 1411
f 1349 1411 1344
f 1344 1411 1406
f 1408 1412 1407
f 1407 1412 1409
f 1414 1410 1413
f 1410 1414 1347
f 1351 1347 1414
f 1416 1415 1413
f 1410 1416 1413
f 1411 1416 1410
f 1352 1417 1349
f 1417 1411 1349
f 1417 1416 1411
f 1353 1417 1352
f 1414 1418 1351
f 1351 1418 1355
f 1416 1356 1415
f 1356 1418 1415
f 1356 1355 1418
f 1356 1416 1357
f 1357 1416 1417
f 1357 1417 1353
f 1419 1363 1364
f 1365 1419 1364
f 1420 1369 1419
f 1419 1369 1363
f 1370 1421 1365
f 1421 1419 1365
f 1421 1420 1419
f 1371 1421 1370
f 1420 1374 1369
f 1374 1420 1376
f 1420 1422 1376
f 1420 1421 1422
f 1378 1422 1371
f 1371 1422 1421
f 1422 1381 1376
f 1381 1422 1378
f 1423 1403 1402
f 1404 1423 1402
f 1424 1408 1423
f 1423 1408 1403
f 1409 1424 1404
f 1404 1424 1423
f 1424 1412 1408
f 1412 1424 1409
f 1425 1414 1413
f 1415 1425 1413
f 1425 1418 1414
f 1418 1425 1415
