v -21.1 -45.0 -5.0
v -21.0 -45.0 -5.1
v -21.0 -45.1 -5.0
v -21.0 -45.0 -4.9
v -21.3 -44.0 -6.0
v -21.0 -44.0 -6.5
v -21.0 -44.5 -6.0
v -21.4 -44.0 -5.0
v -21.0 -44.1 -4.0
v -21.1 -44.0 -4.0
v -21.0 -44.0 -3.9
v -21.3 -43.0 -7.0
v -21.0 -43.0 -7.4
v -21.0 -43.5 -7.0
v -21.5 -43.0 -6.0
v -21.3 -43.0 -5.0
v -21.0 -43.0 -4.5
v -21.0 -43.8 -4.0
v -21.2 -42.0 -7.0
v -21.0 -42.0 -7.3
v -21.3 -42.0 -6.0
v -21.0 -42.0 -5.6
v -21.0 -42.5 -5.0
v -21.0 -41.8 -7.0
v -21.0 -41.7 -6.0
v -20.2 -45.0 -7.0
v -20.0 -45.0 -7.2
v -20.0 -45.2 -7.0
v -20.0 -45.3 -6.0
v -20.4 -45.0 -6.0
v -20.0 -45.4 -5.0
v -20.0 -45.0 -4.4
v -20.2 -44.0 -8.0
v -20.0 -44.0 -8.2
v -20.0 -44.3 -8.0
v -20.7 -44.0 -7.0
v -20.0 -44.7 -4.0
v -20.0 -44.4 -3.0
v -20.4 -44.0 -3.0
v -20.0 -44.0 -2.1
v -20.5 -43.0 -8.0
v -20.0 -43.0 -8.6
v -20.7 -43.0 -4.0
v -20.3 -43.0 -3.0
v -20.0 -43.0 -2.7
v -20.0 -42.0 -9.0
v -20.0 -42.0 -9.0
v -20.0 -42.0 -9.0
v -20.4 -42.0 -8.0
v -20.6 -42.0 -5.0
v -20.2 -42.0 -4.0
v -20.0 -42.0 -3.7
v -20.0 -42.7 -3.0
v -20.0 -42.0 -9.0
v -20.0 -41.6 -8.0
v -20.0 -41.4 -7.0
v -20.1 -41.0 -6.0
v -20.0 -41.0 -6.1
v -20.0 -41.0 -5.9
v -20.0 -41.5 -5.0
v -20.0 -41.8 -4.0
v -20.0 -40.9 -6.0
v -20.3 -33.0 -20.0
v -20.0 -33.0 -20.4
v -20.0 -33.3 -20.0
v -20.0 -33.4 -19.0
v -20.4 -33.0 -19.0
v -20.0 -33.3 -18.0
v -20.2 -33.0 -18.0
v -20.0 -33.3 -17.0
v -20.2 -33.0 -17.0
v -20.0 -33.1 -16.0
v -20.1 -33.0 -16.0
v -20.0 -33.0 -15.9
v -20.1 -32.0 -21.0
v -20.0 -32.0 -21.1
v -20.0 -32.2 -21.0
v -20.4 -32.0 -20.0
v -20.3 -32.0 -19.0
v -20.0 -32.0 -18.5
v -20.0 -32.5 -18.0
v -20.0 -32.7 -17.0
v -20.0 -32.9 -16.0
v -20.0 -31.8 -21.0
v -20.0 -31.5 -20.0
v -20.0 -31.6 -19.0
v -19.0 -45.0 -7.2
v -19.0 -45.2 -7.0
v -19.0 -45.0 -6.0
v -19.0 -45.4 -5.0
v -19.0 -45.3 -4.0
v -19.5 -45.0 -4.0
v -19.0 -45.0 -3.5
v -19.0 -44.0 -8.6
v -19.0 -44.5 -8.0
v -19.0 -44.6 -3.0
v -19.0 -44.0 -2.0
v -19.2 -44.0 -2.0
v -19.0 -44.0 -2.0
v -19.5 -43.0 -9.0
v -19.0 -43.0 -9.4
v -19.0 -43.5 -9.0
v -19.0 -44.0 -2.0
v -19.0 -43.0 -2.6
v -19.0 -42.0 -9.5
v -19.0 -42.6 -3.0
v -19.0 -42.0 -3.6
v -19.0 -41.5 -9.0
v -19.0 -41.4 -8.0
v -19.0 -41.2 -7.0
v -19.0 -41.0 -6.6
v -19.0 -41.3 -5.0
v -19.0 -41.0 -5.5
v -19.0 -41.6 -4.0
v -19.0 -40.7 -6.0
v -19.3 -34.0 -20.0
v -19.0 -34.0 -20.3
v -19.0 -34.2 -20.0
v -19.0 -34.5 -19.0
v -19.5 -34.0 -19.0
v -19.0 -34.5 -18.0
v -19.5 -34.0 -18.0
v -19.0 -34.5 -17.0
v -19.5 -34.0 -17.0
v -19.0 -34.5 -16.0
v -19.5 -34.0 -16.0
v -19.0 -34.3 -15.0
v -19.3 -34.0 -15.0
v -19.0 -34.0 -14.7
v -19.3 -33.0 -21.0
v -19.0 -33.0 -21.2
v -19.0 -33.2 -21.0
v -19.3 -33.0 -15.0
v -19.0 -33.0 -14.6
v -19.1 -32.0 -22.0
v -19.0 -32.0 -22.0
v -19.0 -32.1 -22.0
v -19.7 -32.0 -18.0
v -19.6 -32.0 -17.0
v -19.4 -32.0 -16.0
v -19.0 -32.0 -15.5
v -19.0 -32.6 -15.0
v -19.0 -31.0 -22.0
v -19.0 -31.0 -22.0
v -19.6 -31.0 -21.0
v -19.6 -31.0 -20.0
v -19.6 -31.0 -19.0
v -19.5 -31.0 -18.0
v -19.3 -31.0 -17.0
v -19.0 -31.0 -16.6
v -19.0 -31.5 -16.0
v -19.0 -31.0 -22.0
v -19.2 -30.0 -21.0
v -19.0 -30.0 -21.3
v -19.4 -30.0 -20.0
v -19.4 -30.0 -19.0
v -19.2 -30.0 -18.0
v -19.0 -30.0 -17.6
v -19.0 -30.6 -17.0
v -19.0 -29.7 -21.0
v -19.0 -29.6 -20.0
v -19.0 -29.6 -19.0
v -19.0 -29.8 -18.0
v -18.7 -45.0 -7.0
v -18.0 -45.0 -6.5
v -18.0 -45.3 -6.0
v -18.0 -45.5 -5.0
v -18.0 -45.5 -4.0
v -18.0 -45.2 -3.0
v -18.4 -45.0 -3.0
v -18.0 -45.0 -2.7
v -18.4 -44.0 -9.0
v -18.0 -44.0 -9.3
v -18.0 -44.3 -9.0
v -18.0 -44.5 -8.0
v -18.0 -44.7 -7.0
v -18.0 -44.0 -2.4
v -19.0 -44.0 -2.0
v -18.4 -43.0 -10.0
v -18.0 -43.0 -10.4
v -18.0 -43.4 -10.0
v -18.3 -43.0 -3.0
v -18.0 -43.2 -3.0
v -18.0 -43.0 -3.2
v -18.3 -42.0 -11.0
v -18.0 -42.0 -11.3
v -18.0 -42.4 -11.0
v -18.6 -42.0 -10.0
v -18.0 -42.0 -3.7
v -18.2 -41.0 -11.0
v -18.0 -41.0 -11.3
v -18.4 -41.0 -10.0
v -18.5 -41.0 -9.0
v -18.5 -41.0 -8.0
v -18.7 -41.0 -7.0
v -18.4 -41.0 -5.0
v -18.0 -41.0 -4.8
v -18.0 -41.7 -4.0
v -18.0 -40.7 -11.0
v -18.0 -40.5 -10.0
v -18.0 -40.5 -9.0
v -18.0 -40.5 -8.0
v -18.0 -40.3 -7.0
v -18.1 -40.0 -6.0
v -18.0 -40.0 -6.2
v -18.0 -40.0 -5.9
v -18.0 -40.8 -5.0
v -18.0 -39.9 -6.0
v -18.2 -36.0 -18.0
v -18.0 -36.0 -18.3
v -18.0 -36.3 -18.0
v -18.0 -36.4 -17.0
v -18.3 -36.0 -17.0
v -18.0 -36.0 -16.3
v -18.1 -36.0 -15.0
v -18.0 -36.0 -15.3
v -18.0 -36.1 -15.0
v -18.0 -36.0 -14.9
v -18.4 -35.0 -19.0
v -18.0 -35.0 -19.3
v -18.0 -35.3 -19.0
v -18.6 -35.0 -18.0
v -18.6 -35.0 -17.0
v -18.0 -35.8 -16.0
v -18.5 -35.0 -16.0
v -18.4 -35.0 -15.0
v -18.0 -35.0 -14.6
v -18.0 -34.0 -20.3
v -18.0 -34.3 -20.0
v -18.0 -34.1 -14.0
v -18.1 -34.0 -14.0
v -18.0 -34.0 -13.9
v -18.7 -33.0 -21.0
v -18.0 -33.0 -20.6
v -18.3 -33.0 -14.0
v -18.0 -33.0 -13.8
v -18.9 -32.0 -22.0
v -18.0 -32.0 -21.5
v -18.0 -32.6 -21.0
v -18.4 -32.0 -15.0
v -18.0 -32.0 -14.6
v -18.0 -32.7 -14.0
v -19.0 -31.0 -22.0
v -18.0 -31.0 -21.6
v -18.4 -31.0 -16.0
v -18.0 -31.0 -15.6
v -18.0 -31.6 -15.0
v -18.0 -30.0 -21.4
v -18.4 -30.0 -17.0
v -18.0 -30.0 -16.7
v -18.0 -30.6 -16.0
v -18.2 -29.0 -21.0
v -18.0 -29.0 -21.2
v -18.3 -29.0 -20.0
v -18.0 -29.0 -19.5
v -18.0 -29.3 -19.0
v -18.0 -29.4 -18.0
v -18.0 -29.7 -17.0
v -18.0 -28.8 -21.0
v -18.0 -28.7 -20.0
v -17.0 -45.0 -6.6
v -17.0 -45.4 -6.0
v -17.0 -45.6 -5.0
v -17.0 -45.6 -4.0
v -17.0 -45.4 -3.0
v -17.0 -45.0 -2.6
v -17.0 -44.0 -9.5
v -17.0 -44.4 -9.0
v -17.0 -44.5 -8.0
v -17.0 -44.7 -7.0
v -17.0 -44.1 -2.0
v -17.1 -44.0 -2.0
v -17.0 -44.0 -1.9
v -17.2 -43.0 -11.0
v -17.0 -43.0 -11.2
v -17.0 -43.1 -11.0
v -17.0 -43.6 -10.0
v -17.7 -43.0 -3.0
v -17.0 -43.0 -2.7
v -17.0 -43.9 -2.0
v -17.3 -42.0 -12.0
v -17.0 -42.0 -12.3
v -17.0 -42.3 -12.0
v -17.3 -42.0 -4.0
v -17.0 -42.2 -4.0
v -17.0 -42.0 -4.2
v -17.0 -42.7 -3.0
v -17.5 -41.0 -12.0
v -17.0 -41.0 -12.6
v -17.4 -41.0 -5.0
v -17.0 -41.2 -5.0
v -17.0 -41.0 -5.1
v -17.1 -40.0 -13.0
v -17.0 -40.0 -13.3
v -17.0 -40.3 -13.0
v -17.4 -40.0 -12.0
v -17.5 -40.0 -11.0
v -17.5 -40.0 -10.0
v -17.5 -40.0 -9.0
v -17.5 -40.0 -8.0
v -17.7 -40.0 -7.0
v -17.0 -40.0 -5.6
v -17.0 -39.0 -17.0
v -17.0 -39.0 -17.0
v -17.0 -39.0 -17.0
v -17.0 -39.4 -16.0
v -17.3 -39.0 -16.0
v -17.0 -39.5 -15.0
v -17.4 -39.0 -15.0
v -17.0 -39.4 -14.0
v -17.3 -39.0 -14.0
v -17.0 -39.7 -13.0
v -17.0 -39.0 -13.5
v -17.0 -39.5 -12.0
v -17.0 -39.5 -11.0
v -17.0 -39.5 -10.0
v -17.0 -39.5 -9.0
v -17.0 -39.4 -8.0
v -17.1 -39.0 -7.0
v -17.0 -39.0 -7.3
v -17.0 -39.5 -6.0
v -17.0 -39.0 -6.8
v -17.3 -38.0 -17.0
v -17.0 -38.0 -17.4
v -17.5 -38.0 -16.0
v -17.5 -38.0 -15.0
v -17.4 -38.0 -14.0
v -17.0 -38.0 -13.5
v -17.0 -38.9 -7.0
v -17.1 -37.0 -18.0
v -17.0 -37.0 -18.1
v -17.0 -37.1 -18.0
v -17.6 -37.0 -17.0
v -17.5 -37.0 -16.0
v -17.6 -37.0 -15.0
v -17.3 -37.0 -14.0
v -17.0 -37.0 -13.7
v -17.0 -36.0 -18.4
v -17.8 -36.0 -16.0
v -17.0 -36.5 -14.0
v -17.0 -36.0 -14.3
v -17.0 -35.0 -19.2
v -17.0 -35.3 -19.0
v -17.0 -35.0 -14.4
v -17.7 -34.0 -20.0
v -17.0 -34.0 -19.5
v -17.5 -34.0 -14.0
v -17.0 -34.0 -14.1
v -17.3 -33.0 -20.0
v -17.0 -33.0 -19.7
v -17.0 -33.7 -14.0
v -17.0 -33.0 -13.7
v -17.0 -32.0 -21.2
v -17.0 -32.2 -21.0
v -17.0 -32.6 -20.0
v -17.0 -32.6 -14.0
v -17.0 -32.0 -14.5
v -17.0 -31.0 -21.2
v -17.0 -31.5 -15.0
v -17.0 -31.0 -15.5
v -17.0 -30.4 -21.0
v -17.3 -30.0 -21.0
v -17.0 -30.0 -20.8
v -17.0 -30.4 -16.0
v -17.0 -30.0 -16.4
v -17.0 -29.0 -21.2
v -17.0 -29.5 -21.0
v -17.6 -29.0 -19.0
v -17.4 -29.0 -18.0
v -17.0 -29.0 -17.6
v -17.0 -29.4 -17.0
v -17.0 -28.8 -21.0
v -17.0 -28.6 -20.0
v -17.0 -28.6 -19.0
v -17.0 -28.7 -18.0
v -16.4 -46.0 -5.0
v -16.0 -46.0 -5.5
v -16.0 -46.3 -5.0
v -16.0 -46.2 -4.0
v -16.3 -46.0 -4.0
v -16.0 -46.0 -3.7
v -16.5 -45.0 -7.0
v -16.0 -45.0 -7.5
v -16.0 -45.3 -7.0
v -16.0 -45.7 -6.0
v -16.0 -45.5 -3.0
v -16.0 -45.0 -2.5
v -16.0 -44.0 -9.5
v -16.0 -44.4 -9.0
v -16.0 -44.7 -8.0
v -16.0 -44.3 -2.0
v -16.0 -44.0 -1.8
v -16.4 -43.0 -11.0
v -16.0 -43.0 -10.8
v -16.0 -43.5 -10.0
v -16.0 -43.7 -2.0
v -16.0 -43.0 -2.5
v -16.0 -42.0 -12.6
v -16.0 -42.5 -12.0
v -16.0 -42.9 -11.0
v -16.7 -42.0 -4.0
v -16.0 -42.0 -3.6
v -16.0 -42.5 -3.0
v -16.1 -41.0 -15.0
v -16.0 -41.0 -15.1
v -16.0 -41.1 -15.0
v -16.0 -41.0 -14.8
v -16.5 -41.0 -13.0
v -16.0 -41.0 -13.7
v -16.0 -41.6 -13.0
v -16.7 -41.0 -5.0
v -16.0 -41.0 -4.6
v -16.0 -41.6 -4.0
v -16.1 -40.0 -16.0
v -16.0 -40.0 -16.1
v -16.0 -40.1 -16.0
v -16.6 -40.0 -15.0
v -16.0 -40.8 -14.0
v -16.6 -40.0 -14.0
v -16.0 -40.6 -5.0
v -16.0 -40.0 -5.4
v -17.0 -39.0 -17.0
v -16.0 -39.0 -16.6
v -16.7 -39.0 -13.0
v -16.5 -39.0 -12.0
v -16.5 -39.0 -11.0
v -16.5 -39.0 -10.0
v -16.6 -39.0 -9.0
v -16.7 -39.0 -8.0
v -16.4 -39.0 -6.0
v -16.0 -39.0 -5.7
v -16.0 -38.0 -17.4
v -16.0 -38.6 -17.0
v -16.5 -38.0 -13.0
v -16.0 -38.0 -12.4
v -16.0 -38.4 -12.0
v -16.0 -38.6 -11.0
v -16.0 -38.4 -10.0
v -16.3 -38.0 -9.0
v -16.0 -38.0 -9.4
v -16.3 -38.0 -8.0
v -16.0 -38.3 -7.0
v -16.0 -38.0 -7.5
v -16.0 -38.7 -6.0
v -16.9 -37.0 -18.0
v -16.0 -37.0 -17.6
v -16.3 -37.0 -13.0
v -16.0 -37.0 -12.7
v -16.0 -37.7 -9.0
v -16.0 -37.7 -8.0
v -16.5 -36.0 -18.0
v -16.0 -36.0 -17.6
v -16.7 -36.0 -14.0
v -16.0 -36.0 -13.4
v -16.0 -36.6 -13.0
v -16.8 -35.0 -19.0
v -16.3 -35.0 -18.0
v -16.0 -35.0 -17.8
v -16.5 -35.0 -14.0
v -16.0 -35.0 -13.6
v -16.5 -34.0 -19.0
v -16.0 -34.0 -18.4
v -16.0 -34.6 -18.0
v -16.8 -34.0 -14.0
v -16.0 -34.0 -13.6
v -16.4 -33.0 -19.0
v -16.0 -33.0 -18.6
v -16.0 -33.0 -13.7
v -16.8 -32.0 -21.0
v -16.5 -32.0 -20.0
v -16.0 -32.0 -19.4
v -16.0 -32.5 -19.0
v -16.0 -32.6 -14.0
v -16.0 -32.0 -14.4
v -16.8 -31.0 -21.0
v -16.4 -31.0 -20.0
v -16.0 -31.0 -19.5
v -16.0 -31.5 -15.0
v -16.0 -31.0 -15.4
v -16.4 -30.0 -20.0
v -16.0 -30.0 -19.5
v -16.2 -30.0 -16.0
v -16.0 -30.0 -15.9
v -16.6 -29.0 -21.0
v -16.5 -29.0 -20.0
v -16.0 -29.0 -19.5
v -16.1 -29.0 -17.0
v -16.0 -29.0 -16.9
v -16.0 -29.9 -16.0
v -16.0 -28.7 -19.0
v -16.0 -28.6 -18.0
v -16.0 -28.9 -17.0
v -15.2 -46.0 -6.0
v -15.0 -46.0 -6.1
v -15.0 -46.1 -6.0
v -15.0 -46.4 -5.0
v -15.0 -46.2 -4.0
v -15.0 -46.0 -3.7
v -15.5 -45.0 -8.0
v -15.0 -45.0 -8.5
v -15.0 -45.3 -8.0
v -15.0 -45.5 -7.0
v -15.0 -45.5 -3.0
v -15.0 -45.0 -2.5
v -15.0 -44.0 -9.7
v -15.0 -44.6 -9.0
v -15.0 -44.3 -2.0
v -15.0 -44.0 -1.8
v -15.3 -43.0 -12.0
v -15.0 -43.0 -12.3
v -15.0 -43.3 -12.0
v -15.0 -43.5 -11.0
v -15.8 -43.0 -11.0
v -15.0 -43.8 -10.0
v -15.0 -43.7 -2.0
v -15.0 -43.0 -2.5
v -15.0 -42.0 -14.0
v -15.0 -42.0 -14.0
v -15.0 -42.0 -14.0
v -15.0 -42.4 -13.0
v -15.6 -42.0 -13.0
v -15.0 -42.5 -3.0
v -15.0 -42.0 -3.5
v -15.0 -41.0 -15.2
v -15.0 -41.2 -15.0
v -15.8 -41.0 -14.0
v -15.0 -41.5 -4.0
v -15.0 -41.0 -4.5
v -15.9 -40.0 -16.0
v -15.0 -40.0 -15.5
v -15.0 -40.5 -5.0
v -15.0 -40.0 -5.4
v -15.3 -39.0 -16.0
v -15.0 -39.0 -15.8
v -15.0 -39.0 -5.7
v -15.0 -38.0 -17.2
v -15.0 -38.2 -17.0
v -15.0 -38.8 -16.0
v -15.5 -38.0 -12.0
v -15.0 -38.0 -11.3
v -15.0 -38.1 -11.0
v -15.5 -38.0 -10.0
v -15.0 -38.0 -10.7
v -15.0 -38.2 -7.0
v -15.0 -38.0 -7.3
v -15.0 -38.2 -6.0
v -15.0 -37.0 -17.4
v -15.0 -37.6 -12.0
v -15.0 -37.0 -12.4
v -15.0 -37.5 -10.0
v -15.1 -37.0 -9.0
v -15.0 -37.0 -9.2
v -15.0 -37.0 -8.8
v -15.0 -37.5 -8.0
v -15.0 -36.0 -17.5
v -15.4 -36.0 -13.0
v -15.0 -36.0 -12.7
v -15.0 -36.9 -9.0
v -15.0 -35.0 -17.4
v -15.0 -35.6 -13.0
v -15.0 -35.0 -13.4
v -15.6 -34.0 -18.0
v -15.0 -34.0 -17.4
v -15.0 -34.0 -13.7
v -15.5 -33.0 -18.0
v -15.0 -33.0 -17.5
v -15.5 -33.0 -14.0
v -15.0 -33.5 -14.0
v -15.0 -33.0 -14.3
v -15.7 -32.0 -19.0
v -15.4 -32.0 -18.0
v -15.0 -32.0 -17.5
v -15.0 -32.0 -14.3
v -15.6 -31.0 -19.0
v -15.3 -31.0 -18.0
v -15.0 -31.0 -17.5
v -15.0 -31.6 -15.0
v -15.0 -31.0 -15.7
v -15.4 -30.0 -19.0
v -15.0 -30.0 -18.3
v -15.0 -30.3 -18.0
v -15.0 -30.0 -17.7
v -15.3 -30.0 -17.0
v -15.0 -30.5 -17.0
v -15.9 -30.0 -16.0
v -15.0 -30.7 -16.0
v -15.0 -29.0 -19.0
v -15.0 -29.0 -19.0
v -15.0 -29.0 -19.0
v -15.5 -29.0 -18.0
v -15.0 -29.7 -18.0
v -15.9 -29.0 -17.0
v -15.0 -29.0 -19.0
v -14.8 -46.0 -6.0
v -14.6 -46.0 -5.0
v -14.7 -46.0 -4.0
v -14.2 -45.0 -10.0
v -14.0 -45.0 -10.2
v -14.0 -45.2 -10.0
v -14.0 -45.5 -9.0
v -14.6 -45.0 -9.0
v -14.0 -45.5 -8.0
v -14.0 -45.1 -7.0
v -14.0 -45.4 -6.0
v -14.0 -45.5 -5.0
v -14.0 -45.6 -4.0
v -14.0 -45.3 -3.0
v -14.0 -45.0 -2.6
v -14.2 -44.0 -11.0
v -14.0 -44.0 -11.2
v -14.0 -44.2 -11.0
v -14.8 -44.0 -10.0
v -14.0 -44.3 -2.0
v -14.0 -44.0 -1.8
v -14.0 -43.0 -12.3
v -14.0 -43.3 -12.0
v -14.0 -43.7 -2.0
v -14.0 -43.0 -2.5
v -15.0 -42.0 -14.0
v -14.0 -42.0 -13.1
v -14.0 -42.2 -13.0
v -14.0 -42.4 -3.0
v -14.0 -42.0 -3.4
v -14.8 -41.0 -15.0
v -14.5 -41.0 -14.0
v -14.0 -41.2 -13.0
v -14.0 -41.0 -13.0
v -14.0 -41.0 -13.0
v -14.0 -41.5 -4.0
v -14.0 -41.0 -4.5
v -14.4 -40.0 -15.0
v -14.0 -40.0 -14.5
v -14.0 -40.4 -14.0
v -14.0 -41.0 -13.0
v -14.0 -40.5 -5.0
v -14.0 -40.0 -5.5
v -14.0 -39.0 -15.3
v -14.0 -39.4 -15.0
v -14.5 -39.0 -6.0
v -14.0 -39.4 -6.0
v -14.0 -39.0 -6.5
v -14.7 -38.0 -17.0
v -14.0 -38.0 -16.3
v -14.0 -38.3 -16.0
v -14.7 -38.0 -11.0
v -14.5 -38.0 -8.0
v -14.0 -38.4 -8.0
v -14.0 -38.0 -8.4
v -14.0 -38.7 -7.0
v -14.4 -37.0 -17.0
v -14.0 -37.0 -16.6
v -14.0 -37.5 -12.0
v -14.0 -37.0 -12.5
v -14.0 -37.6 -11.0
v -14.3 -37.0 -10.0
v -14.0 -37.0 -10.2
v -14.0 -37.0 -8.8
v -14.0 -36.0 -17.1
v -14.0 -36.1 -17.0
v -14.0 -36.0 -12.8
v -14.0 -36.5 -10.0
v -14.0 -36.8 -9.0
v -14.0 -35.9 -17.0
v -14.5 -35.0 -17.0
v -14.3 -35.0 -16.0
v -14.0 -35.4 -16.0
v -14.0 -35.0 -15.5
v -14.0 -35.7 -13.0
v -14.0 -35.0 -13.7
v -14.6 -34.0 -17.0
v -14.5 -34.0 -16.0
v -14.0 -34.6 -15.0
v -14.4 -34.0 -15.0
v -14.7 -34.0 -14.0
v -14.0 -34.7 -14.0
v -14.6 -33.0 -17.0
v -14.5 -33.0 -16.0
v -14.6 -33.0 -15.0
v -14.6 -32.0 -17.0
v -14.5 -32.0 -16.0
v -14.7 -32.0 -15.0
v -14.7 -31.0 -17.0
v -14.8 -31.0 -16.0
v -14.6 -30.0 -18.0
v -15.0 -29.0 -19.0
v -13.2 -46.0 -9.0
v -13.0 -46.0 -9.2
v -13.0 -46.2 -9.0
v -13.0 -46.8 -8.0
v -13.5 -46.0 -8.0
v -13.0 -46.3 -7.0
v -13.3 -46.0 -7.0
v -13.0 -46.0 -6.7
v -13.0 -45.0 -10.2
v -13.0 -45.3 -10.0
v -13.0 -45.0 -6.3
v -13.4 -45.0 -6.0
v -13.4 -45.0 -5.0
v -13.0 -45.0 -4.2
v -13.0 -45.1 -4.0
v -13.6 -45.0 -3.0
v -13.0 -45.0 -3.8
v -13.7 -44.0 -11.0
v -13.0 -44.0 -10.6
v -13.0 -44.7 -6.0
v -13.0 -44.6 -5.0
v -13.0 -44.5 -3.0
v -13.1 -44.0 -2.0
v -13.0 -44.0 -2.0
v -13.7 -43.0 -12.0
v -13.0 -43.0 -11.3
v -13.0 -43.4 -11.0
v -13.0 -43.0 -2.5
v -13.9 -42.0 -13.0
v -13.3 -42.0 -12.0
v -13.0 -42.0 -11.6
v -13.2 -42.0 -3.0
v -13.0 -42.0 -2.9
v -13.0 -41.5 -12.0
v -13.0 -41.0 -12.4
v -13.0 -41.5 -4.0
v -13.0 -41.0 -4.6
v -13.0 -41.9 -3.0
v -13.6 -40.0 -14.0
v -13.0 -40.0 -13.3
v -13.0 -40.3 -13.0
v -13.0 -40.6 -5.0
v -13.0 -40.0 -5.7
v -13.7 -39.0 -15.0
v -13.4 -39.0 -14.0
v -13.0 -39.0 -13.3
v -13.3 -39.0 -9.0
v -13.0 -39.3 -9.0
v -13.0 -39.0 -9.5
v -13.5 -39.0 -8.0
v -13.0 -39.5 -8.0
v -13.6 -39.0 -7.0
v -13.0 -39.5 -7.0
v -13.0 -39.7 -6.0
v -13.8 -38.0 -16.0
v -13.5 -38.0 -15.0
v -13.5 -38.0 -14.0
v -13.0 -38.7 -13.0
v -13.4 -38.0 -13.0
v -13.5 -38.0 -12.0
v -13.0 -38.5 -12.0
v -13.6 -38.0 -11.0
v -13.0 -38.5 -11.0
v -13.5 -38.0 -10.0
v -13.0 -38.6 -10.0
v -13.6 -38.0 -9.0
v -13.6 -37.0 -16.0
v -13.5 -37.0 -15.0
v -13.5 -37.0 -14.0
v -13.6 -37.0 -13.0
v -13.8 -37.0 -10.0
v -13.8 -37.0 -9.0
v -13.9 -36.0 -17.0
v -13.6 -36.0 -16.0
v -13.5 -36.0 -15.0
v -13.5 -36.0 -14.0
v -13.8 -36.0 -13.0
v -13.7 -35.0 -15.0
v -13.8 -35.0 -14.0
v -12.8 -46.0 -9.0
v -12.0 -46.0 -8.5
v -12.0 -46.4 -8.0
v -12.0 -46.8 -7.0
v -12.0 -46.0 -6.5
v -12.7 -45.0 -10.0
v -12.0 -45.0 -9.3
v -12.0 -45.4 -9.0
v -12.0 -45.0 -6.3
v -12.9 -45.0 -4.0
v -12.5 -44.0 -10.0
v -12.0 -44.0 -9.5
v -12.0 -44.7 -6.0
v -12.4 -44.0 -5.0
v -12.0 -44.0 -5.4
v -12.5 -44.0 -4.0
v -12.6 -44.0 -3.0
v -12.7 -43.0 -11.0
v -12.3 -43.0 -10.0
v -12.0 -43.0 -9.7
v -12.0 -43.0 -5.0
v -12.0 -43.0 -5.0
v -12.3 -43.0 -4.0
v -12.1 -43.0 -3.0
v -12.5 -42.0 -11.0
v -12.0 -42.0 -10.4
v -12.0 -42.5 -10.0
v -12.0 -43.0 -5.0
v -12.0 -42.3 -4.0
v -12.0 -42.0 -3.8
v -12.9 -42.0 -3.0
v -12.7 -41.0 -12.0
v -12.4 -41.0 -11.0
v -12.0 -41.0 -10.4
v -12.5 -41.0 -5.0
v -12.0 -41.4 -5.0
v -12.0 -41.0 -5.5
v -12.0 -41.9 -4.0
v -12.8 -40.0 -13.0
v -12.5 -40.0 -12.0
v -12.5 -40.0 -11.0
v -12.0 -40.5 -10.0
v -12.3 -40.0 -10.0
v -12.0 -40.0 -9.3
v -12.4 -40.0 -8.0
v -12.0 -40.3 -8.0
v -12.0 -40.0 -8.7
v -12.5 -40.0 -7.0
v -12.0 -40.5 -7.0
v -12.7 -40.0 -6.0
v -12.0 -40.6 -6.0
v -12.8 -39.0 -13.0
v -12.6 -39.0 -12.0
v -12.6 -39.0 -11.0
v -12.7 -39.0 -10.0
v -12.0 -39.8 -9.0
v -11.6 -46.0 -8.0
v -11.0 -46.0 -7.4
v -11.0 -46.4 -7.0
v -11.0 -46.2 -6.0
v -11.3 -46.0 -6.0
v -11.0 -46.0 -5.8
v -11.7 -45.0 -9.0
v -11.3 -45.0 -8.0
v -11.0 -45.0 -7.7
v -11.6 -45.0 -6.0
v -11.0 -45.0 -5.6
v -11.5 -44.0 -9.0
v -11.0 -44.0 -8.4
v -11.0 -44.6 -8.0
v -11.0 -44.0 -5.4
v -11.3 -43.0 -9.0
v -11.0 -43.0 -8.7
v -11.0 -43.4 -5.0
v -11.9 -43.0 -5.0
v -11.0 -43.0 -4.6
v -11.6 -42.0 -10.0
v -11.0 -42.0 -9.3
v -11.0 -42.5 -9.0
v -11.0 -42.0 -4.7
v -11.8 -42.0 -4.0
v -11.6 -41.0 -10.0
v -11.0 -41.0 -9.3
v -11.4 -41.0 -7.0
v -11.0 -41.4 -7.0
v -11.0 -41.0 -7.6
v -11.6 -41.0 -6.0
v -11.0 -41.5 -6.0
v -11.0 -41.8 -5.0
v -11.8 -40.0 -9.0
v -11.0 -40.7 -9.0
v -11.0 -40.7 -8.0
v -10.0 -46.0 -7.0
v -10.0 -46.0 -7.0
v -10.0 -46.1 -6.0
v -10.0 -46.0 -5.9
v -10.0 -46.0 -7.0
v -10.3 -45.0 -7.0
v -10.0 -45.0 -6.5
v -10.0 -45.0 -5.7
v -10.6 -44.0 -8.0
v -10.0 -44.0 -7.3
v -10.0 -44.5 -7.0
v -10.0 -44.0 -5.5
v -10.1 -43.0 -8.0
v -10.0 -43.5 -7.0
v -10.2 -43.0 -7.0
v -10.0 -43.0 -6.6
v -10.0 -43.3 -5.0
v -10.0 -43.0 -4.2
v -10.7 -42.0 -9.0
v -10.5 -42.0 -8.0
v -10.6 -42.0 -7.0
v -10.0 -42.7 -6.0
v -10.5 -42.0 -6.0
v -10.7 -42.0 -5.0
v -10.0 -42.7 -5.0
v -10.8 -41.0 -9.0
v -10.8 -41.0 -8.0
v -10.0 -46.0 -7.0
v -9.9 -46.0 -6.0
v -9.8 -45.0 -6.0
v -9.8 -44.0 -7.0
v -9.7 -44.0 -6.0
v -9.8 -43.0 -6.0
v -9.8 -43.0 -5.0
f 3 2 1
f 1 4 3
f 7 6 5
f 7 5 2
f 5 1 2
f 5 8 1
f 4 1 9
f 1 10 9
f 1 8 10
f 10 11 9
f 14 13 12
f 14 12 6
f 12 5 6
f 12 15 5
f 5 16 8
f 5 15 16
f 18 10 17
f 10 16 17
f 10 8 16
f 10 18 11
f 12 13 19
f 19 13 20
f 12 21 15
f 12 19 21
f 23 16 22
f 16 21 22
f 16 15 21
f 16 23 17
f 20 24 19
f 19 24 21
f 21 24 25
f 21 25 22
f 28 27 26
f 30 29 26
f 26 29 28
f 2 3 30
f 3 29 30
f 3 31 29
f 3 4 31
f 31 4 32
f 35 34 33
f 35 33 27
f 33 26 27
f 33 36 26
f 36 6 7
f 30 36 7
f 26 36 30
f 30 7 2
f 37 32 4
f 37 4 9
f 39 38 11
f 38 9 11
f 38 37 9
f 39 40 38
f 33 34 41
f 41 34 42
f 41 13 14
f 36 41 14
f 33 41 36
f 36 14 6
f 17 43 18
f 39 11 18
f 43 39 18
f 44 39 43
f 40 39 45
f 45 39 44
f 48 47 46
f 48 46 42
f 46 41 42
f 46 49 41
f 49 20 13
f 49 13 41
f 22 50 23
f 43 17 23
f 50 43 23
f 51 43 50
f 53 44 52
f 44 51 52
f 44 43 51
f 44 53 45
f 47 54 46
f 46 54 49
f 49 54 55
f 49 55 20
f 55 24 20
f 55 56 24
f 56 58 57
f 25 56 57
f 24 56 25
f 57 59 25
f 25 59 22
f 59 60 22
f 60 50 22
f 50 60 51
f 51 60 61
f 51 61 52
f 58 62 57
f 57 62 59
f 65 64 63
f 67 66 63
f 63 66 65
f 69 68 67
f 67 68 66
f 71 70 69
f 69 70 68
f 73 72 71
f 71 72 70
f 73 74 72
f 77 76 75
f 77 75 64
f 75 63 64
f 75 78 63
f 63 79 67
f 63 78 79
f 81 69 80
f 69 79 80
f 69 67 79
f 69 81 71
f 71 81 82
f 71 82 73
f 73 82 83
f 73 83 74
f 76 84 75
f 75 84 78
f 78 84 85
f 78 85 79
f 79 85 86
f 79 86 80
f 88 87 28
f 28 87 27
f 89 28 29
f 89 88 28
f 90 29 31
f 90 89 29
f 92 91 32
f 91 31 32
f 91 90 31
f 92 93 91
f 95 94 35
f 35 94 34
f 35 27 87
f 35 87 95
f 37 92 32
f 96 93 92
f 37 96 92
f 38 96 37
f 98 97 40
f 97 38 40
f 97 96 38
f 98 99 97
f 102 101 100
f 94 102 100
f 42 94 100
f 34 94 42
f 104 103 98
f 40 104 98
f 45 104 40
f 98 103 99
f 100 101 48
f 101 47 48
f 101 105 47
f 100 48 42
f 107 106 53
f 107 53 52
f 45 53 104
f 104 53 106
f 105 108 47
f 47 108 54
f 54 109 55
f 108 109 54
f 55 110 56
f 109 110 55
f 58 56 110
f 58 110 111
f 113 112 60
f 113 60 59
f 60 114 61
f 112 114 60
f 52 61 107
f 107 61 114
f 111 115 58
f 58 115 62
f 59 62 113
f 113 62 115
f 118 117 116
f 120 119 116
f 116 119 118
f 122 121 120
f 120 121 119
f 124 123 122
f 122 123 121
f 126 125 124
f 124 125 123
f 128 127 126
f 126 127 125
f 128 129 127
f 132 131 130
f 132 130 117
f 117 130 116
f 130 64 116
f 64 65 116
f 116 65 66
f 116 66 120
f 120 66 68
f 120 68 122
f 122 68 70
f 122 70 124
f 124 70 72
f 124 72 126
f 126 72 74
f 133 126 74
f 128 126 133
f 129 128 134
f 134 128 133
f 137 136 135
f 137 135 131
f 131 135 130
f 135 76 130
f 76 77 130
f 130 77 64
f 80 138 81
f 139 82 81
f 139 81 138
f 140 83 82
f 140 82 139
f 140 141 83
f 83 141 74
f 141 142 74
f 142 133 74
f 133 142 134
f 135 136 143
f 143 136 144
f 145 84 76
f 135 145 76
f 143 145 135
f 146 85 84
f 146 84 145
f 147 86 85
f 147 85 146
f 138 80 86
f 147 138 86
f 148 138 147
f 138 149 139
f 138 148 149
f 151 140 150
f 140 149 150
f 140 139 149
f 140 151 141
f 144 152 143
f 154 153 152
f 153 143 152
f 153 145 143
f 145 155 146
f 145 153 155
f 146 156 147
f 146 155 156
f 147 157 148
f 147 156 157
f 159 149 158
f 149 157 158
f 149 148 157
f 149 159 150
f 154 160 153
f 153 160 155
f 155 160 161
f 155 161 156
f 156 161 162
f 156 162 157
f 157 162 163
f 157 163 158
f 164 87 88
f 164 88 165
f 88 166 165
f 88 89 166
f 167 89 90
f 167 166 89
f 168 90 91
f 168 167 90
f 170 169 93
f 169 91 93
f 169 168 91
f 170 171 169
f 174 173 172
f 94 95 172
f 95 174 172
f 95 175 174
f 95 87 164
f 176 95 164
f 175 95 176
f 176 164 165
f 96 170 93
f 96 97 170
f 97 177 170
f 177 171 170
f 97 178 177
f 99 178 97
f 181 180 179
f 181 179 173
f 173 179 172
f 179 101 172
f 101 102 172
f 172 102 94
f 184 183 182
f 182 183 177
f 182 177 178
f 104 182 178
f 103 104 178
f 103 178 99
f 187 186 185
f 187 185 180
f 185 179 180
f 185 188 179
f 188 105 101
f 188 101 179
f 184 182 106
f 107 184 106
f 189 184 107
f 106 182 104
f 185 186 190
f 190 186 191
f 185 192 188
f 185 190 192
f 193 108 105
f 188 193 105
f 192 193 188
f 194 109 108
f 194 108 193
f 195 110 109
f 195 109 194
f 195 111 110
f 113 196 112
f 112 196 197
f 198 112 197
f 114 112 198
f 107 114 189
f 189 114 198
f 191 199 190
f 190 199 192
f 192 199 200
f 192 200 193
f 193 200 201
f 193 201 194
f 194 201 202
f 194 202 195
f 195 202 203
f 203 205 204
f 203 204 115
f 195 203 115
f 111 195 115
f 204 206 115
f 115 206 113
f 206 207 113
f 207 196 113
f 196 207 197
f 205 208 204
f 204 208 206
f 211 210 209
f 213 212 209
f 209 212 211
f 213 214 212
f 217 216 215
f 215 218 217
f 221 220 219
f 221 219 210
f 219 209 210
f 219 222 209
f 209 223 213
f 209 222 223
f 214 213 224
f 213 225 224
f 213 223 225
f 224 225 216
f 225 215 216
f 225 226 215
f 218 215 227
f 227 215 226
f 229 228 118
f 118 228 117
f 119 219 220
f 229 119 220
f 118 119 229
f 219 119 121
f 219 121 222
f 222 121 123
f 222 123 223
f 223 123 125
f 223 125 225
f 225 125 127
f 225 127 226
f 231 230 129
f 129 230 127
f 230 227 127
f 227 226 127
f 231 232 230
f 233 131 132
f 234 233 132
f 117 234 132
f 228 234 117
f 134 235 231
f 134 231 129
f 232 231 236
f 236 231 235
f 237 136 137
f 238 237 137
f 238 137 131
f 239 238 131
f 233 239 131
f 239 233 234
f 141 240 142
f 240 241 142
f 142 241 134
f 241 242 134
f 242 235 134
f 235 242 236
f 243 144 237
f 237 144 136
f 237 238 244
f 237 244 243
f 150 245 151
f 245 246 151
f 151 246 141
f 246 247 141
f 247 240 141
f 240 247 241
f 243 152 144
f 154 152 243
f 244 154 243
f 248 154 244
f 158 249 159
f 249 250 159
f 159 250 150
f 250 251 150
f 251 245 150
f 245 251 246
f 160 154 252
f 154 253 252
f 154 248 253
f 254 161 160
f 254 160 252
f 161 254 255
f 256 161 255
f 162 161 256
f 162 257 163
f 256 257 162
f 158 163 249
f 163 258 249
f 163 257 258
f 249 258 250
f 253 259 252
f 252 259 254
f 254 259 260
f 254 260 255
f 262 261 166
f 166 261 165
f 263 166 167
f 263 262 166
f 264 167 168
f 264 263 167
f 265 168 169
f 265 264 168
f 169 171 265
f 265 171 266
f 268 267 174
f 174 267 173
f 269 174 175
f 269 268 174
f 270 175 176
f 270 269 175
f 176 165 261
f 176 261 270
f 177 272 271
f 266 177 271
f 171 177 266
f 272 273 271
f 276 275 274
f 180 181 274
f 181 276 274
f 181 277 276
f 181 173 267
f 181 267 277
f 184 278 183
f 278 279 183
f 183 279 177
f 279 280 177
f 280 272 177
f 272 280 273
f 283 282 281
f 283 281 275
f 275 281 274
f 281 186 274
f 186 187 274
f 274 187 180
f 286 285 284
f 285 287 278
f 189 285 278
f 184 189 278
f 284 285 189
f 278 287 279
f 281 282 288
f 288 282 289
f 288 191 186
f 288 186 281
f 292 291 290
f 290 291 286
f 290 286 284
f 197 290 284
f 198 197 284
f 198 284 189
f 295 294 293
f 295 293 289
f 293 288 289
f 293 296 288
f 297 199 191
f 288 297 191
f 296 297 288
f 298 200 199
f 298 199 297
f 299 201 200
f 299 200 298
f 300 202 201
f 300 201 299
f 301 203 202
f 301 202 300
f 301 205 203
f 292 290 207
f 206 292 207
f 302 292 206
f 207 290 197
f 305 304 303
f 307 306 303
f 303 306 305
f 309 308 307
f 307 308 306
f 311 310 309
f 309 310 308
f 312 293 294
f 311 313 310
f 293 312 296
f 296 312 314
f 296 314 297
f 297 314 315
f 297 315 298
f 298 315 316
f 298 316 299
f 299 316 317
f 299 317 300
f 300 317 318
f 320 319 318
f 319 300 318
f 319 301 300
f 301 319 205
f 319 321 205
f 321 208 205
f 319 322 321
f 206 208 302
f 302 208 321
f 303 304 323
f 323 304 324
f 303 325 307
f 303 323 325
f 307 326 309
f 307 325 326
f 309 327 311
f 309 326 327
f 313 311 328
f 328 311 327
f 320 329 319
f 319 329 322
f 332 331 330
f 332 330 324
f 330 323 324
f 330 333 323
f 323 334 325
f 323 333 334
f 325 335 326
f 325 334 335
f 326 336 327
f 326 335 336
f 328 327 337
f 337 327 336
f 330 331 211
f 331 210 211
f 331 338 210
f 330 211 212
f 330 212 333
f 333 212 214
f 339 333 214
f 334 333 339
f 339 216 217
f 335 339 217
f 334 339 335
f 336 335 340
f 335 218 340
f 218 341 340
f 218 335 217
f 336 340 337
f 343 342 221
f 221 342 220
f 221 210 338
f 221 338 343
f 224 339 214
f 339 224 216
f 227 341 218
f 227 344 341
f 345 228 229
f 346 345 229
f 220 346 229
f 342 346 220
f 227 230 347
f 348 227 347
f 344 227 348
f 232 347 230
f 349 234 345
f 345 234 228
f 345 346 350
f 345 350 349
f 351 348 347
f 347 232 351
f 232 352 351
f 232 236 352
f 354 353 239
f 239 353 238
f 239 234 349
f 355 239 349
f 354 239 355
f 355 349 350
f 357 356 242
f 357 242 241
f 236 242 352
f 352 242 356
f 353 244 238
f 358 244 353
f 360 359 247
f 360 247 246
f 241 247 357
f 357 247 359
f 362 248 361
f 248 358 361
f 248 244 358
f 363 362 361
f 365 364 251
f 365 251 250
f 246 251 360
f 360 251 364
f 367 366 362
f 366 248 362
f 366 253 248
f 367 362 363
f 255 368 256
f 369 257 256
f 369 256 368
f 257 369 370
f 371 257 370
f 258 257 371
f 250 258 365
f 365 258 371
f 366 372 253
f 253 372 259
f 259 373 260
f 372 373 259
f 255 260 368
f 260 374 368
f 260 373 374
f 368 374 369
f 369 374 375
f 369 375 370
f 378 377 376
f 380 379 376
f 376 379 378
f 380 381 379
f 384 383 382
f 261 262 382
f 262 384 382
f 262 385 384
f 263 376 377
f 385 263 377
f 262 263 385
f 376 263 264
f 376 264 380
f 386 381 380
f 264 386 380
f 265 386 264
f 265 266 386
f 386 266 387
f 389 388 268
f 268 388 267
f 390 268 269
f 390 389 268
f 270 382 383
f 390 270 383
f 269 270 390
f 382 270 261
f 391 387 266
f 391 266 271
f 271 273 391
f 391 273 392
f 393 275 276
f 393 276 394
f 276 395 394
f 276 277 395
f 277 267 388
f 277 388 395
f 397 396 280
f 397 280 279
f 273 280 392
f 392 280 396
f 399 398 283
f 283 398 282
f 283 275 393
f 400 283 393
f 399 283 400
f 400 393 394
f 286 401 285
f 285 401 402
f 403 285 402
f 287 285 403
f 279 287 397
f 397 287 403
f 406 405 404
f 404 407 406
f 410 409 408
f 398 410 408
f 289 398 408
f 282 398 289
f 292 411 291
f 411 412 291
f 291 412 286
f 412 413 286
f 413 401 286
f 401 413 402
f 416 415 414
f 416 414 405
f 414 404 405
f 414 417 404
f 407 404 418
f 404 419 418
f 404 417 419
f 418 419 409
f 409 419 408
f 419 294 408
f 294 295 408
f 408 295 289
f 421 420 411
f 292 421 411
f 302 421 292
f 411 420 412
f 422 304 305
f 415 423 414
f 423 305 414
f 305 306 414
f 305 423 422
f 414 306 308
f 414 308 417
f 417 308 310
f 417 310 419
f 424 310 313
f 424 419 310
f 424 312 294
f 419 424 294
f 425 314 312
f 425 312 424
f 426 315 314
f 426 314 425
f 427 316 315
f 427 315 426
f 428 317 316
f 428 316 427
f 429 318 317
f 429 317 428
f 429 320 318
f 322 430 321
f 430 431 321
f 431 302 321
f 431 421 302
f 433 432 422
f 432 304 422
f 432 324 304
f 433 422 423
f 328 434 424
f 328 424 313
f 436 425 435
f 425 434 435
f 425 424 434
f 425 436 426
f 426 436 437
f 426 437 427
f 427 437 438
f 440 439 438
f 439 427 438
f 439 428 427
f 428 441 429
f 428 439 441
f 429 441 320
f 441 442 320
f 442 329 320
f 441 443 442
f 322 329 430
f 329 444 430
f 329 442 444
f 430 444 431
f 445 331 332
f 446 445 332
f 324 446 332
f 432 446 324
f 337 447 434
f 337 434 328
f 435 434 448
f 448 434 447
f 440 449 439
f 439 449 441
f 441 449 450
f 441 450 443
f 451 338 445
f 445 338 331
f 445 446 452
f 445 452 451
f 341 453 340
f 453 454 340
f 340 454 337
f 454 455 337
f 455 447 337
f 447 455 448
f 456 342 343
f 338 451 343
f 451 456 343
f 451 457 456
f 451 452 458
f 451 458 457
f 344 459 453
f 344 453 341
f 454 453 460
f 460 453 459
f 461 346 456
f 456 346 342
f 457 463 462
f 461 457 462
f 456 457 461
f 463 457 458
f 348 464 459
f 348 459 344
f 460 459 465
f 465 459 464
f 466 350 461
f 461 350 346
f 461 462 467
f 461 467 466
f 351 464 348
f 351 352 464
f 352 465 464
f 352 468 465
f 469 353 354
f 355 470 354
f 354 470 469
f 471 470 355
f 471 355 350
f 472 471 350
f 466 472 350
f 472 466 467
f 474 473 356
f 474 356 357
f 352 356 468
f 468 356 473
f 475 358 469
f 469 358 353
f 476 469 470
f 475 469 476
f 470 471 477
f 470 477 476
f 479 478 359
f 479 359 360
f 357 359 474
f 474 359 478
f 475 361 358
f 361 475 363
f 475 480 363
f 475 476 480
f 476 477 481
f 476 481 480
f 365 482 364
f 482 483 364
f 483 360 364
f 483 479 360
f 484 366 367
f 363 480 367
f 480 484 367
f 480 485 484
f 480 481 486
f 480 486 485
f 370 487 371
f 487 488 371
f 371 488 365
f 488 489 365
f 489 482 365
f 482 489 483
f 484 372 366
f 372 484 373
f 373 484 485
f 486 490 485
f 490 373 485
f 490 374 373
f 374 491 375
f 490 491 374
f 370 375 487
f 375 492 487
f 375 491 492
f 487 492 488
f 495 494 493
f 377 378 493
f 378 495 493
f 378 496 495
f 497 378 379
f 497 496 378
f 379 381 497
f 497 381 498
f 501 500 499
f 383 384 499
f 384 501 499
f 384 502 501
f 385 493 494
f 502 385 494
f 384 385 502
f 493 385 377
f 503 498 381
f 503 381 386
f 386 387 503
f 503 387 504
f 506 505 389
f 389 505 388
f 390 499 500
f 506 390 500
f 389 390 506
f 499 390 383
f 507 504 387
f 507 387 391
f 391 392 507
f 507 392 508
f 511 510 509
f 513 512 509
f 509 512 511
f 394 395 513
f 395 512 513
f 395 514 512
f 395 388 505
f 395 505 514
f 516 515 396
f 516 396 397
f 392 396 508
f 508 396 515
f 519 518 517
f 521 520 517
f 517 520 519
f 520 521 510
f 510 521 509
f 521 398 509
f 398 399 509
f 509 399 400
f 509 400 513
f 513 400 394
f 523 522 403
f 523 403 402
f 397 403 516
f 516 403 522
f 525 524 406
f 406 524 405
f 526 517 407
f 517 525 407
f 525 406 407
f 517 518 525
f 526 409 410
f 521 526 410
f 517 526 521
f 521 410 398
f 528 527 413
f 528 413 412
f 402 413 523
f 523 413 527
f 529 415 416
f 530 529 416
f 405 530 416
f 524 530 405
f 418 526 407
f 526 418 409
f 532 531 420
f 532 420 421
f 412 420 528
f 528 420 531
f 533 423 529
f 529 423 415
f 529 530 534
f 529 534 533
f 431 532 421
f 431 535 532
f 537 536 433
f 433 536 432
f 433 423 533
f 538 433 533
f 537 433 538
f 538 533 534
f 435 539 436
f 436 539 540
f 541 436 540
f 437 436 541
f 541 543 542
f 438 541 542
f 437 541 438
f 542 440 438
f 545 544 442
f 545 442 443
f 442 546 444
f 544 546 442
f 431 444 535
f 535 444 546
f 536 446 432
f 547 446 536
f 549 548 539
f 435 549 539
f 448 549 435
f 539 548 540
f 543 550 542
f 550 552 551
f 550 551 449
f 542 550 449
f 440 542 449
f 449 551 553
f 554 449 553
f 450 449 554
f 443 450 545
f 545 450 554
f 547 452 446
f 555 452 547
f 454 556 455
f 556 557 455
f 557 448 455
f 557 549 448
f 552 558 551
f 551 558 553
f 555 458 452
f 559 458 555
f 561 560 556
f 454 561 556
f 460 561 454
f 556 560 557
f 562 462 463
f 563 562 463
f 458 563 463
f 559 563 458
f 465 561 460
f 465 564 561
f 565 467 562
f 562 467 462
f 562 563 566
f 562 566 565
f 569 568 567
f 568 564 567
f 564 468 567
f 564 465 468
f 570 471 472
f 467 565 472
f 565 570 472
f 565 571 570
f 565 566 572
f 565 572 571
f 569 567 473
f 474 569 473
f 573 569 474
f 473 567 468
f 574 477 570
f 570 477 471
f 575 570 571
f 574 570 575
f 571 572 576
f 571 576 575
f 578 577 478
f 578 478 479
f 474 478 573
f 573 478 577
f 579 481 574
f 574 481 477
f 575 581 580
f 579 575 580
f 574 575 579
f 575 582 581
f 575 583 582
f 575 576 584
f 583 575 584
f 586 585 583
f 586 583 584
f 586 578 585
f 578 483 585
f 578 479 483
f 588 587 579
f 587 481 579
f 587 486 481
f 579 589 588
f 579 590 589
f 579 580 591
f 590 579 591
f 590 591 582
f 583 590 582
f 592 590 583
f 488 592 489
f 592 585 489
f 592 583 585
f 489 585 483
f 587 593 486
f 486 593 490
f 590 491 589
f 491 593 589
f 491 490 593
f 491 590 492
f 492 590 592
f 492 592 488
f 594 494 495
f 496 595 495
f 495 595 594
f 497 596 496
f 496 596 595
f 498 596 497
f 599 598 597
f 601 600 597
f 597 600 599
f 500 501 601
f 501 600 601
f 501 602 600
f 603 501 502
f 603 602 501
f 502 494 594
f 604 502 594
f 603 502 604
f 604 594 595
f 604 595 605
f 605 595 596
f 605 596 606
f 606 596 498
f 503 606 498
f 607 606 503
f 503 504 607
f 607 504 608
f 611 610 609
f 611 609 598
f 609 597 598
f 609 612 597
f 612 505 506
f 601 612 506
f 597 612 601
f 601 506 500
f 613 608 504
f 613 504 507
f 507 508 613
f 613 508 614
f 616 615 511
f 511 615 510
f 512 609 610
f 616 512 610
f 511 512 616
f 609 512 514
f 609 514 612
f 612 514 505
f 618 617 515
f 618 515 516
f 508 515 614
f 614 515 617
f 619 518 519
f 619 519 620
f 519 621 620
f 519 520 621
f 520 510 615
f 520 615 621
f 623 622 522
f 623 522 523
f 516 522 618
f 618 522 622
f 624 524 525
f 518 619 525
f 619 624 525
f 619 625 624
f 619 620 626
f 627 619 626
f 625 619 627
f 628 627 626
f 630 629 527
f 630 527 528
f 523 527 623
f 623 527 629
f 631 530 624
f 624 530 524
f 625 633 632
f 631 625 632
f 624 625 631
f 633 625 627
f 633 627 634
f 634 627 628
f 636 635 531
f 636 531 532
f 528 531 630
f 630 531 635
f 638 637 631
f 637 530 631
f 637 534 530
f 638 631 632
f 641 640 639
f 640 636 639
f 636 535 639
f 636 532 535
f 642 536 537
f 642 537 643
f 537 644 643
f 537 538 644
f 538 534 637
f 538 637 644
f 540 645 541
f 645 543 541
f 648 647 646
f 544 545 646
f 647 544 646
f 649 544 647
f 639 546 641
f 546 649 641
f 546 544 649
f 546 639 535
f 650 547 642
f 642 547 536
f 642 643 651
f 642 651 650
f 653 652 548
f 653 548 549
f 540 548 645
f 548 654 645
f 548 652 654
f 654 656 655
f 654 655 550
f 645 654 550
f 543 645 550
f 655 552 550
f 648 646 554
f 553 648 554
f 657 648 553
f 554 646 545
f 659 658 650
f 658 547 650
f 658 555 547
f 659 650 651
f 557 653 549
f 557 660 653
f 656 661 655
f 655 661 552
f 661 558 552
f 661 662 558
f 553 558 657
f 657 558 662
f 664 559 663
f 559 658 663
f 559 555 658
f 666 665 664
f 666 664 663
f 667 665 666
f 669 668 560
f 669 560 561
f 557 560 660
f 660 560 668
f 670 563 664
f 664 563 559
f 671 664 665
f 670 664 671
f 665 667 672
f 673 665 672
f 671 665 673
f 675 674 673
f 675 673 672
f 675 669 674
f 669 564 674
f 669 561 564
f 676 566 670
f 670 566 563
f 677 670 671
f 676 670 677
f 678 671 673
f 677 671 678
f 569 678 568
f 678 674 568
f 678 673 674
f 568 674 564
f 679 572 676
f 676 572 566
f 680 676 677
f 679 676 680
f 681 677 678
f 680 677 681
f 573 681 569
f 569 681 678
f 682 576 679
f 679 576 572
f 683 679 680
f 682 679 683
f 578 683 577
f 683 681 577
f 683 680 681
f 577 681 573
f 684 580 581
f 576 682 584
f 684 581 582
f 584 682 586
f 586 682 683
f 586 683 578
f 685 587 588
f 580 684 591
f 685 588 589
f 591 684 582
f 685 593 587
f 593 685 589
f 688 687 686
f 690 689 686
f 686 689 688
f 692 691 690
f 690 691 689
f 692 693 691
f 695 694 599
f 599 694 598
f 600 686 687
f 695 600 687
f 599 600 695
f 686 600 602
f 686 602 690
f 690 602 603
f 690 603 692
f 603 604 692
f 604 696 692
f 696 693 692
f 604 697 696
f 605 698 604
f 604 698 697
f 698 605 699
f 605 700 699
f 605 606 700
f 702 700 701
f 700 607 701
f 700 606 607
f 608 701 607
f 703 610 611
f 704 703 611
f 598 704 611
f 694 704 598
f 705 696 697
f 705 697 698
f 705 698 706
f 706 698 699
f 707 702 701
f 709 707 708
f 708 707 613
f 707 701 613
f 701 608 613
f 614 708 613
f 710 615 616
f 711 710 616
f 711 616 610
f 712 711 610
f 703 712 610
f 712 703 704
f 709 708 617
f 618 709 617
f 713 709 618
f 617 708 614
f 714 620 621
f 615 710 621
f 710 714 621
f 710 715 714
f 710 711 716
f 710 716 715
f 623 717 622
f 717 718 622
f 718 618 622
f 718 713 618
f 714 626 620
f 714 715 719
f 628 714 719
f 720 628 719
f 714 628 626
f 719 715 716
f 722 721 629
f 722 629 630
f 623 629 717
f 629 723 717
f 629 721 723
f 717 723 718
f 724 632 633
f 724 633 725
f 633 726 725
f 633 634 726
f 634 628 720
f 634 720 726
f 728 727 635
f 728 635 636
f 630 635 722
f 722 635 727
f 729 637 638
f 632 724 638
f 724 729 638
f 724 730 729
f 724 725 731
f 724 731 730
f 734 733 732
f 736 735 732
f 736 732 733
f 738 737 735
f 738 735 736
f 640 641 737
f 738 640 737
f 739 640 738
f 636 640 728
f 728 640 739
f 740 643 644
f 637 729 644
f 729 740 644
f 729 741 740
f 742 729 730
f 741 729 742
f 730 731 743
f 744 730 743
f 742 730 744
f 746 745 744
f 746 744 743
f 748 747 745
f 748 745 746
f 750 749 747
f 750 747 748
f 749 750 734
f 732 749 734
f 751 749 732
f 648 751 647
f 751 735 647
f 751 732 735
f 647 735 649
f 649 735 737
f 649 737 641
f 752 651 740
f 740 651 643
f 753 740 741
f 752 740 753
f 754 741 742
f 753 741 754
f 755 742 744
f 754 742 755
f 653 755 652
f 755 745 652
f 755 744 745
f 652 745 654
f 654 745 747
f 654 747 656
f 747 756 656
f 747 749 756
f 757 749 751
f 756 749 757
f 657 757 648
f 648 757 751
f 758 658 659
f 651 752 659
f 752 758 659
f 752 759 758
f 760 752 753
f 759 752 760
f 761 753 754
f 760 753 761
f 762 754 755
f 761 754 762
f 660 762 653
f 653 762 755
f 756 661 656
f 661 756 662
f 662 756 757
f 662 757 657
f 758 663 658
f 663 758 666
f 666 758 759
f 666 759 667
f 759 763 667
f 759 760 763
f 764 760 761
f 763 760 764
f 669 764 668
f 764 762 668
f 764 761 762
f 668 762 660
f 763 672 667
f 672 763 675
f 675 763 764
f 675 764 669
f 765 687 688
f 765 688 766
f 688 767 766
f 688 689 767
f 768 689 691
f 768 767 689
f 691 693 768
f 768 693 769
f 770 694 695
f 771 770 695
f 771 695 687
f 772 771 687
f 765 772 687
f 772 765 766
f 696 769 693
f 696 773 769
f 774 699 700
f 702 774 700
f 775 704 770
f 770 704 694
f 770 771 776
f 770 776 775
f 777 773 696
f 777 696 705
f 779 777 778
f 777 706 778
f 777 705 706
f 699 774 706
f 774 778 706
f 774 780 778
f 707 781 702
f 781 774 702
f 781 780 774
f 709 781 707
f 782 711 712
f 704 775 712
f 775 782 712
f 775 783 782
f 775 776 784
f 775 784 783
f 779 778 785
f 779 785 786
f 787 778 780
f 785 778 787
f 788 780 781
f 787 780 788
f 713 788 709
f 709 788 781
f 789 716 782
f 782 716 711
f 783 791 790
f 789 783 790
f 782 783 789
f 791 783 784
f 792 786 785
f 792 785 787
f 792 787 793
f 795 794 793
f 787 795 793
f 788 795 787
f 718 795 713
f 713 795 788
f 796 720 719
f 716 789 719
f 789 796 719
f 789 797 796
f 789 790 798
f 789 798 797
f 801 800 799
f 721 722 799
f 800 721 799
f 802 721 800
f 795 723 794
f 723 802 794
f 723 721 802
f 723 795 718
f 803 725 726
f 720 796 726
f 796 803 726
f 796 804 803
f 805 796 797
f 804 796 805
f 797 798 806
f 807 797 806
f 805 797 807
f 808 807 806
f 811 810 809
f 813 812 809
f 813 809 810
f 815 814 812
f 815 812 813
f 814 815 801
f 814 801 799
f 728 814 799
f 727 728 799
f 727 799 722
f 816 731 803
f 803 731 725
f 817 803 804
f 816 803 817
f 818 804 805
f 817 804 818
f 819 805 807
f 818 805 819
f 820 733 734
f 807 820 734
f 819 807 734
f 820 807 808
f 809 736 811
f 736 820 811
f 736 733 820
f 736 809 738
f 738 809 812
f 738 812 739
f 739 812 814
f 739 814 728
f 816 743 731
f 743 816 746
f 746 816 817
f 746 817 748
f 748 817 818
f 748 818 750
f 750 818 819
f 750 819 734
f 821 766 767
f 821 767 822
f 767 823 822
f 767 768 823
f 825 824 769
f 824 768 769
f 824 823 768
f 825 826 824
f 827 771 772
f 766 821 772
f 821 827 772
f 821 828 827
f 821 822 829
f 821 829 828
f 773 830 825
f 773 825 769
f 826 825 831
f 831 825 830
f 832 776 827
f 827 776 771
f 828 834 833
f 832 828 833
f 827 828 832
f 834 828 829
f 777 830 773
f 777 779 830
f 779 831 830
f 779 835 831
f 836 784 832
f 832 784 776
f 832 833 837
f 832 837 836
f 786 839 838
f 835 786 838
f 779 786 835
f 839 840 838
f 841 790 791
f 842 841 791
f 842 791 784
f 843 842 784
f 836 843 784
f 843 836 837
f 792 839 786
f 792 793 839
f 793 844 839
f 844 840 839
f 793 845 844
f 794 845 793
f 846 798 841
f 841 798 790
f 841 842 847
f 841 847 846
f 850 849 848
f 852 851 848
f 852 848 849
f 800 801 851
f 852 800 851
f 853 800 852
f 845 802 844
f 802 853 844
f 802 800 853
f 802 845 794
f 846 806 798
f 855 854 808
f 855 808 806
f 847 855 806
f 846 847 806
f 810 811 854
f 855 810 854
f 856 810 855
f 848 813 850
f 813 856 850
f 813 810 856
f 813 848 815
f 815 848 851
f 815 851 801
f 854 820 808
f 820 854 811
f 858 857 823
f 823 857 822
f 859 823 824
f 859 858 823
f 824 826 859
f 859 826 860
f 862 829 861
f 829 857 861
f 829 822 857
f 863 862 861
f 831 860 826
f 831 864 860
f 865 833 834
f 866 865 834
f 866 834 829
f 867 866 829
f 862 867 829
f 867 862 863
f 835 864 831
f 835 868 864
f 869 837 865
f 865 837 833
f 865 866 870
f 871 865 870
f 869 865 871
f 872 871 870
f 873 868 835
f 873 835 838
f 838 840 873
f 873 840 874
f 875 842 843
f 837 869 843
f 869 875 843
f 869 876 875
f 877 869 871
f 876 869 877
f 871 872 878
f 879 871 878
f 877 871 879
f 881 880 879
f 881 879 878
f 881 874 880
f 874 844 880
f 874 840 844
f 882 847 875
f 875 847 842
f 883 875 876
f 882 875 883
f 850 883 849
f 883 877 849
f 883 876 877
f 849 877 852
f 852 877 879
f 852 879 853
f 853 879 880
f 853 880 844
f 882 855 847
f 855 882 856
f 856 882 883
f 856 883 850
f 884 857 858
f 859 885 858
f 858 885 884
f 860 885 859
f 884 861 857
f 861 884 863
f 884 886 863
f 884 885 886
f 864 886 860
f 860 886 885
f 887 866 867
f 863 886 867
f 886 887 867
f 886 888 887
f 868 888 864
f 864 888 886
f 887 870 866
f 870 887 872
f 887 889 872
f 887 888 889
f 873 890 868
f 890 888 868
f 890 889 888
f 874 890 873
f 889 878 872
f 878 889 881
f 881 889 890
f 881 890 874
