v -47.1 -3.0 -18.0
v -47.0 -3.0 -18.3
v -47.0 -3.9 -18.0
v -47.0 -3.0 -17.9
v -47.0 -2.9 -18.0
v -46.2 -13.0 -11.0
v -46.0 -13.0 -11.3
v -46.0 -13.2 -11.0
v -46.0 -13.0 -10.2
v -46.2 -12.0 -12.0
v -46.0 -12.0 -12.3
v -46.0 -12.4 -12.0
v -46.2 -12.0 -11.0
v -46.0 -12.0 -10.7
v -46.2 -11.0 -12.0
v -46.0 -11.0 -12.4
v -46.0 -11.0 -11.6
v -46.0 -11.6 -11.0
v -46.1 -10.0 -12.0
v -46.0 -10.0 -12.1
v -46.0 -10.0 -11.9
v -46.1 -9.0 -15.0
v -46.0 -9.0 -15.1
v -46.0 -9.1 -15.0
v -46.0 -9.0 -14.9
v -46.0 -9.9 -12.0
v -46.2 -8.0 -15.0
v -46.0 -8.0 -15.3
v -46.0 -8.0 -14.5
v -46.4 -7.0 -15.0
v -46.0 -7.0 -15.6
v -46.0 -7.4 -14.0
v -46.2 -7.0 -14.0
v -46.0 -7.0 -13.7
v -46.2 -6.0 -16.0
v -46.0 -6.0 -16.3
v -46.0 -6.4 -16.0
v -46.4 -6.0 -15.0
v -46.2 -6.0 -14.0
v -46.0 -6.0 -13.8
v -46.3 -5.0 -16.0
v -46.0 -5.0 -16.5
v -46.0 -5.0 -15.6
v -46.0 -5.4 -15.0
v -46.0 -5.8 -14.0
v -47.0 -4.0 -18.0
v -46.0 -4.0 -18.4
v -46.0 -4.4 -18.0
v -46.0 -4.5 -17.0
v -46.4 -4.0 -17.0
v -46.1 -4.0 -16.0
v -46.0 -4.0 -15.8
v -46.0 -3.0 -18.4
v -46.0 -3.5 -17.0
v -46.0 -3.0 -17.5
v -46.0 -3.8 -16.0
v -46.0 -2.7 -18.0
v -45.4 -13.0 -12.0
v -45.0 -13.0 -12.3
v -45.0 -13.3 -12.0
v -45.0 -13.4 -11.0
v -45.0 -13.1 -10.0
v -45.5 -13.0 -10.0
v -45.0 -13.0 -9.9
v -45.0 -12.0 -14.0
v -45.0 -12.0 -14.0
v -45.0 -12.0 -14.0
v -45.0 -12.4 -13.0
v -45.5 -12.0 -13.0
v -45.0 -12.9 -10.0
v -45.0 -12.0 -10.3
v -45.4 -11.0 -14.0
v -45.0 -11.0 -14.4
v -45.6 -11.0 -13.0
v -45.6 -11.0 -11.0
v -45.0 -11.0 -10.6
v -45.3 -10.0 -15.0
v -45.0 -10.0 -15.3
v -45.0 -10.3 -15.0
v -45.5 -10.0 -14.0
v -45.6 -10.0 -13.0
v -45.3 -10.0 -11.0
v -45.0 -10.0 -10.7
v -45.1 -9.0 -16.0
v -45.0 -9.0 -16.1
v -45.0 -9.1 -16.0
v -45.6 -9.0 -14.0
v -45.5 -9.0 -13.0
v -45.4 -9.0 -12.0
v -45.0 -9.0 -11.5
v -45.0 -9.6 -11.0
v -45.4 -8.0 -16.0
v -45.0 -8.0 -16.4
v -45.7 -8.0 -14.0
v -45.3 -8.0 -13.0
v -45.0 -8.0 -12.5
v -45.0 -8.5 -12.0
v -45.6 -7.0 -16.0
v -45.0 -7.0 -16.5
v -45.0 -7.5 -13.0
v -45.0 -7.0 -13.3
v -45.3 -6.0 -17.0
v -45.0 -6.0 -17.3
v -45.0 -6.4 -17.0
v -45.0 -6.0 -13.6
v -45.4 -5.0 -18.0
v -45.0 -5.0 -18.3
v -45.0 -5.3 -18.0
v -45.7 -5.0 -17.0
v -45.5 -5.0 -15.0
v -45.0 -5.0 -14.5
v -45.0 -5.4 -14.0
v -45.0 -4.0 -18.7
v -45.0 -4.6 -15.0
v -45.0 -4.0 -15.5
v -45.5 -3.0 -19.0
v -45.0 -3.0 -19.4
v -45.0 -3.5 -19.0
v -45.5 -3.0 -17.0
v -45.0 -3.0 -16.6
v -45.0 -3.5 -16.0
v -45.2 -2.0 -19.0
v -45.0 -2.0 -19.3
v -45.4 -2.0 -18.0
v -45.0 -2.0 -17.5
v -45.0 -2.5 -17.0
v -45.0 -1.8 -19.0
v -45.0 -1.6 -18.0
v -44.1 -15.0 2.0
v -44.0 -15.0 1.7
v -44.0 -15.1 2.0
v -44.0 -15.0 2.1
v -44.1 -14.0 -1.0
v -44.0 -14.0 -1.1
v -44.0 -14.1 -1.0
v -44.0 -14.2 0.0
v -44.2 -14.0 0.0
v -44.0 -14.6 1.0
v -44.3 -14.0 1.0
v -44.7 -14.0 2.0
v -44.0 -14.0 2.4
v -44.0 -13.0 -12.4
v -44.0 -13.4 -12.0
v -44.0 -13.3 -11.0
v -44.9 -13.0 -10.0
v -44.0 -13.0 -10.6
v -44.1 -13.0 -2.0
v -44.0 -13.0 -2.2
v -44.0 -13.1 -2.0
v -44.0 -13.9 -1.0
v -44.0 -13.0 -1.8
v -44.0 -13.7 0.0
v -44.0 -13.5 1.0
v -44.1 -13.0 2.0
v -44.0 -13.0 1.9
v -44.0 -13.0 2.1
v -45.0 -12.0 -14.0
v -44.0 -12.0 -13.6
v -44.0 -12.5 -13.0
v -44.0 -12.3 -10.0
v -44.3 -12.0 -10.0
v -44.0 -12.0 -9.8
v -44.2 -12.0 -4.0
v -44.0 -12.0 -4.3
v -44.0 -12.3 -4.0
v -44.0 -12.6 -3.0
v -44.4 -12.0 -3.0
v -44.4 -12.0 -2.0
v -44.0 -12.0 -1.5
v -44.0 -12.9 2.0
v -44.0 -11.0 -14.5
v -44.0 -11.6 -14.0
v -44.0 -11.6 -10.0
v -44.0 -11.0 -10.2
v -44.4 -11.0 -4.0
v -44.0 -11.0 -4.5
v -44.5 -11.0 -3.0
v -44.4 -11.0 -2.0
v -44.0 -11.0 -1.4
v -44.0 -10.0 -15.3
v -44.0 -10.4 -15.0
v -44.0 -10.0 -10.4
v -44.4 -10.0 -4.0
v -44.0 -10.0 -4.6
v -44.5 -10.0 -3.0
v -44.5 -10.0 -2.0
v -44.0 -10.3 -1.0
v -44.1 -10.0 -1.0
v -44.0 -10.0 -0.8
v -44.8 -9.0 -16.0
v -44.0 -9.0 -15.7
v -44.6 -9.0 -11.0
v -44.0 -9.0 -10.5
v -44.3 -9.0 -5.0
v -44.0 -9.0 -5.4
v -44.0 -9.5 -5.0
v -44.5 -9.0 -4.0
v -44.5 -9.0 -3.0
v -44.5 -9.0 -2.0
v -44.0 -9.0 -1.4
v -44.0 -9.7 -1.0
v -44.0 -8.0 -16.4
v -44.0 -8.6 -16.0
v -44.7 -8.0 -12.0
v -44.3 -8.0 -11.0
v -44.0 -8.0 -10.6
v -44.4 -8.0 -5.0
v -44.0 -8.0 -5.6
v -44.5 -8.0 -4.0
v -44.5 -8.0 -3.0
v -44.7 -8.0 -2.0
v -44.0 -8.0 -1.7
v -44.0 -7.0 -16.6
v -44.7 -7.0 -13.0
v -44.3 -7.0 -12.0
v -44.0 -7.0 -11.5
v -44.0 -7.5 -11.0
v -44.1 -7.0 -9.0
v -44.0 -7.0 -9.2
v -44.0 -7.2 -9.0
v -44.0 -7.5 -8.0
v -44.3 -7.0 -8.0
v -44.0 -7.5 -7.0
v -44.4 -7.0 -7.0
v -44.0 -7.6 -6.0
v -44.3 -7.0 -6.0
v -44.2 -7.0 -5.0
v -44.2 -7.0 -4.0
v -44.0 -7.0 -3.0
v -44.0 -7.0 -3.0
v -44.0 -7.6 -2.0
v -44.0 -6.0 -17.5
v -44.0 -6.5 -17.0
v -44.0 -6.3 -13.0
v -44.0 -6.0 -13.2
v -44.0 -6.6 -12.0
v -44.0 -6.7 -9.0
v -44.4 -6.0 -8.0
v -44.0 -6.0 -8.6
v -44.4 -6.0 -7.0
v -44.2 -6.0 -6.0
v -44.0 -6.0 -5.8
v -44.0 -6.7 -5.0
v -44.0 -6.8 -4.0
v -44.0 -7.0 -3.0
v -44.3 -5.0 -19.0
v -44.0 -5.0 -19.2
v -44.0 -5.2 -19.0
v -44.0 -5.6 -18.0
v -44.4 -5.0 -14.0
v -44.0 -5.0 -13.6
v -44.3 -5.0 -8.0
v -44.0 -5.0 -8.4
v -44.2 -5.0 -7.0
v -44.0 -5.0 -6.3
v -44.0 -5.3 -6.0
v -44.6 -4.0 -19.0
v -44.0 -4.0 -19.5
v -44.0 -4.3 -15.0
v -44.0 -4.0 -15.3
v -44.0 -4.7 -14.0
v -44.0 -4.4 -8.0
v -44.0 -4.8 -7.0
v -44.3 -3.0 -20.0
v -44.0 -3.0 -20.2
v -44.0 -3.3 -20.0
v -44.0 -3.3 -16.0
v -44.0 -3.0 -16.3
v -44.1 -2.0 -20.0
v -44.0 -2.0 -20.1
v -44.6 -2.0 -17.0
v -44.0 -2.0 -16.6
v -44.0 -1.9 -20.0
v -44.0 -1.5 -19.0
v -44.1 -1.0 -18.0
v -44.0 -1.0 -18.1
v -44.1 -1.0 -17.0
v -44.0 -1.0 -16.9
v -44.0 -0.9 -18.0
v -44.0 -0.9 -17.0
v -43.4 -16.0 0.0
v -43.0 -16.0 -0.4
v -43.0 -16.9 0.0
v -43.0 -16.4 1.0
v -43.8 -16.0 1.0
v -43.0 -16.0 1.4
v -43.2 -15.0 -1.0
v -43.0 -15.0 -1.3
v -43.0 -15.3 -1.0
v -43.2 -15.0 0.0
v -43.8 -15.0 1.0
v -43.0 -15.4 2.0
v -43.0 -15.0 2.4
v -43.0 -14.0 -1.8
v -43.0 -14.0 2.6
v -43.0 -13.0 -12.1
v -43.0 -13.1 -12.0
v -43.5 -13.0 -11.0
v -43.0 -13.0 -11.8
v -43.4 -13.0 -4.0
v -43.0 -13.0 -4.5
v -43.0 -13.4 -4.0
v -43.0 -13.5 -3.0
v -43.6 -13.0 -3.0
v -43.0 -13.8 -2.0
v -43.7 -13.0 -1.0
v -43.6 -13.0 0.0
v -43.7 -13.0 1.0
v -43.0 -13.0 2.4
v -43.0 -12.0 -13.4
v -43.0 -12.4 -13.0
v -43.0 -12.7 -11.0
v -43.0 -12.4 -10.0
v -43.0 -12.0 -9.4
v -43.3 -12.0 -6.0
v -43.0 -12.0 -6.5
v -43.0 -12.4 -6.0
v -43.0 -12.6 -5.0
v -43.5 -12.0 -5.0
v -43.6 -12.0 -1.0
v -43.5 -12.0 0.0
v -43.3 -12.0 1.0
v -43.0 -12.6 2.0
v -43.0 -12.0 1.3
v -43.0 -11.0 -14.3
v -43.0 -11.3 -14.0
v -43.7 -11.0 -10.0
v -43.0 -11.6 -9.0
v -43.4 -11.0 -9.0
v -43.0 -11.5 -8.0
v -43.4 -11.0 -8.0
v -43.0 -11.6 -7.0
v -43.4 -11.0 -7.0
v -43.5 -11.0 -6.0
v -43.6 -11.0 -5.0
v -43.7 -11.0 -1.0
v -43.4 -11.0 0.0
v -43.0 -11.0 0.5
v -43.0 -11.7 1.0
v -43.5 -10.0 -15.0
v -43.0 -10.0 -14.7
v -43.6 -10.0 -10.0
v -43.5 -10.0 -9.0
v -43.5 -10.0 -8.0
v -43.5 -10.0 -7.0
v -43.5 -10.0 -6.0
v -43.7 -10.0 -5.0
v -43.3 -10.0 0.0
v -43.0 -10.0 0.2
v -43.0 -9.0 -15.5
v -43.0 -9.6 -15.0
v -43.6 -9.0 -10.0
v -43.5 -9.0 -9.0
v -43.5 -9.0 -8.0
v -43.5 -9.0 -7.0
v -43.6 -9.0 -6.0
v -43.5 -9.0 -1.0
v -43.0 -9.0 -0.6
v -43.0 -9.7 0.0
v -43.0 -8.0 -16.4
v -43.0 -8.5 -16.0
v -43.6 -8.0 -10.0
v -43.6 -8.0 -9.0
v -43.6 -8.0 -8.0
v -43.6 -8.0 -7.0
v -43.7 -8.0 -6.0
v -43.0 -8.6 -1.0
v -43.0 -8.0 -1.7
v -43.0 -7.0 -16.6
v -43.7 -7.0 -11.0
v -43.6 -7.0 -10.0
v -43.0 -7.0 -5.4
v -43.6 -7.0 -5.0
v -43.0 -7.3 -5.0
v -43.7 -7.0 -4.0
v -43.0 -7.4 -4.0
v -44.0 -7.0 -3.0
v -43.0 -7.4 -3.0
v -43.0 -7.7 -2.0
v -43.0 -6.0 -17.5
v -43.0 -6.5 -17.0
v -43.8 -6.0 -13.0
v -43.6 -6.0 -12.0
v -43.5 -6.0 -11.0
v -43.5 -6.0 -10.0
v -43.7 -6.0 -9.0
v -43.3 -6.0 -7.0
v -43.0 -6.2 -7.0
v -43.0 -6.0 -7.2
v -43.7 -6.0 -6.0
v -43.0 -6.5 -6.0
v -43.0 -5.0 -19.2
v -43.0 -5.2 -19.0
v -43.0 -5.6 -18.0
v -43.6 -5.0 -13.0
v -43.5 -5.0 -12.0
v -43.5 -5.0 -11.0
v -43.4 -5.0 -10.0
v -43.4 -5.0 -9.0
v -43.7 -5.0 -7.0
v -43.0 -5.0 -7.7
v -43.0 -4.0 -19.6
v -43.6 -4.0 -15.0
v -43.0 -4.0 -14.2
v -43.0 -4.1 -14.0
v -43.3 -4.0 -13.0
v -43.0 -4.0 -13.8
v -43.4 -4.0 -12.0
v -43.3 -4.0 -11.0
v -43.1 -4.0 -10.0
v -43.0 -4.0 -9.9
v -43.0 -4.7 -9.0
v -43.0 -4.7 -8.0
v -43.0 -3.0 -20.2
v -43.0 -3.3 -20.0
v -43.6 -3.0 -16.0
v -43.0 -3.0 -15.5
v -43.0 -3.5 -15.0
v -43.0 -3.6 -13.0
v -43.0 -3.2 -12.0
v -43.0 -3.6 -11.0
v -43.0 -3.9 -10.0
v -43.0 -2.6 -20.0
v -43.9 -2.0 -20.0
v -43.0 -2.0 -19.5
v -43.0 -2.4 -16.0
v -43.0 -2.0 -16.3
v -43.0 -1.7 -19.0
v -43.8 -1.0 -18.0
v -43.0 -1.3 -18.0
v -43.0 -1.0 -17.1
v -43.0 -1.0 -16.9
v -43.0 -0.9 -17.0
v -42.2 -16.0 -2.0
v -42.0 -16.0 -2.3
v -42.0 -16.2 -2.0
v -42.0 -16.4 -1.0
v -42.6 -16.0 -1.0
v -42.0 -16.7 0.0
v -42.0 -16.5 1.0
v -42.0 -16.0 1.6
v -42.5 -15.0 -2.0
v -42.0 -15.0 -2.7
v -42.0 -15.7 2.0
v -42.0 -15.0 2.6
v -42.3 -14.0 -5.0
v -42.0 -14.0 -5.5
v -42.0 -14.3 -5.0
v -42.0 -14.5 -4.0
v -42.5 -14.0 -4.0
v -42.0 -14.7 -3.0
v -42.5 -14.0 -3.0
v -42.8 -14.0 -2.0
v -42.0 -14.2 3.0
v -42.2 -14.0 3.0
v -42.0 -14.0 3.1
v -42.9 -13.0 -12.0
v -42.2 -13.0 -8.0
v -42.0 -13.0 -8.3
v -42.0 -13.2 -8.0
v -42.0 -13.5 -7.0
v -42.4 -13.0 -7.0
v -42.0 -13.6 -6.0
v -42.5 -13.0 -6.0
v -42.7 -13.0 -5.0
v -42.0 -13.8 3.0
v -42.0 -13.0 2.5
v -42.6 -12.0 -13.0
v -42.0 -12.0 -12.5
v -42.0 -12.4 -12.0
v -42.0 -12.5 -11.0
v -42.0 -12.5 -10.0
v -42.0 -12.5 -9.0
v -42.6 -12.0 -9.0
v -42.6 -12.0 -8.0
v -42.7 -12.0 -7.0
v -42.0 -12.5 2.0
v -42.0 -12.0 1.5
v -42.6 -11.0 -14.0
v -42.0 -11.0 -13.5
v -42.0 -11.5 -13.0
v -42.0 -11.5 1.0
v -42.0 -11.0 0.6
v -42.0 -10.0 -14.4
v -42.0 -10.5 -14.0
v -42.0 -10.0 0.4
v -42.0 -9.0 -15.5
v -42.0 -9.5 -15.0
v -42.0 -9.5 0.0
v -42.0 -9.0 -0.5
v -42.0 -8.0 -16.4
v -42.0 -8.5 -16.0
v -42.5 -8.0 -2.0
v -42.0 -8.3 -2.0
v -42.0 -8.0 -2.5
v -42.0 -8.7 -1.0
v -42.0 -7.0 -16.6
v -42.0 -7.4 -5.0
v -42.0 -7.0 -5.5
v -42.0 -7.5 -4.0
v -42.0 -7.7 -3.0
v -42.0 -6.0 -17.5
v -42.0 -6.5 -17.0
v -42.0 -6.4 -7.0
v -42.0 -6.0 -7.5
v -42.0 -6.6 -6.0
v -42.6 -5.0 -19.0
v -42.0 -5.0 -18.6
v -42.0 -5.5 -18.0
v -42.5 -5.0 -9.0
v -42.0 -5.2 -9.0
v -42.0 -5.0 -9.3
v -42.7 -5.0 -8.0
v -42.0 -5.5 -8.0
v -42.0 -4.0 -19.5
v -42.0 -4.6 -19.0
v -42.9 -4.0 -14.0
v -42.9 -4.0 -10.0
v -42.0 -4.4 -10.0
v -42.0 -4.0 -10.4
v -42.0 -3.0 -20.0
v -42.0 -3.0 -20.0
v -42.6 -3.0 -15.0
v -42.4 -3.0 -14.0
v -42.2 -3.0 -13.0
v -42.0 -3.0 -12.7
v -42.0 -3.3 -12.0
v -42.0 -3.6 -11.0
v -42.0 -3.0 -20.0
v -42.5 -2.0 -19.0
v -42.0 -2.3 -19.0
v -42.0 -2.0 -18.5
v -42.5 -2.0 -16.0
v -42.0 -2.0 -15.6
v -42.0 -2.5 -15.0
v -42.0 -2.7 -14.0
v -42.0 -2.9 -13.0
v -42.0 -1.7 -18.0
v -42.9 -1.0 -17.0
v -42.0 -1.5 -17.0
v -42.0 -1.7 -16.0
v -41.2 -17.0 0.0
v -41.0 -17.0 -0.1
v -41.0 -17.1 0.0
v -41.0 -17.2 1.0
v -41.3 -17.0 1.0
v -41.0 -17.0 1.9
v -41.3 -16.0 -3.0
v -41.0 -16.0 -3.3
v -41.0 -16.2 -3.0
v -41.0 -16.5 -2.0
v -41.0 -16.6 -1.0
v -41.0 -16.9 2.0
v -41.6 -16.0 2.0
v -41.0 -16.0 2.5
v -41.1 -15.0 -5.0
v -41.0 -15.0 -5.1
v -41.0 -15.1 -5.0
v -41.0 -15.5 -4.0
v -41.5 -15.0 -4.0
v -41.7 -15.0 -3.0
v -41.0 -15.4 3.0
v -41.4 -15.0 3.0
v -41.0 -15.0 3.8
v -41.3 -14.0 -7.0
v -41.0 -14.0 -7.3
v -41.0 -14.2 -7.0
v -41.0 -14.5 -6.0
v -41.6 -14.0 -6.0
v -41.0 -14.0 3.2
v -41.0 -13.0 -8.5
v -41.0 -13.5 -8.0
v -41.0 -13.7 3.0
v -41.0 -13.0 2.4
v -41.5 -12.0 -12.0
v -41.0 -12.0 -11.6
v -41.0 -12.4 -11.0
v -41.0 -12.5 -10.0
v -41.0 -12.6 -9.0
v -41.0 -12.6 2.0
v -41.0 -12.0 1.4
v -41.5 -11.0 -13.0
v -41.0 -11.0 -12.5
v -41.0 -11.5 -12.0
v -41.0 -11.6 1.0
v -41.0 -11.0 0.5
v -41.4 -10.0 -14.0
v -41.0 -10.0 -13.7
v -41.0 -10.6 -13.0
v -41.0 -10.0 0.3
v -41.0 -9.0 -15.3
v -41.0 -9.3 -15.0
v -41.0 -9.7 -14.0
v -41.0 -9.0 -1.0
v -41.0 -9.0 -1.0
v -41.0 -9.0 -1.0
v -41.0 -9.2 0.0
v -41.0 -8.0 -16.3
v -41.0 -8.3 -16.0
v -41.5 -8.0 -3.0
v -41.0 -8.3 -3.0
v -41.0 -8.0 -3.4
v -41.0 -8.6 -2.0
v -41.0 -7.0 -16.6
v -41.0 -7.4 -5.0
v -41.0 -7.0 -5.5
v -41.0 -7.6 -4.0
v -41.0 -6.0 -17.4
v -41.0 -6.4 -17.0
v -41.0 -6.4 -7.0
v -41.0 -6.0 -7.5
v -41.0 -6.6 -6.0
v -41.0 -5.0 -18.5
v -41.0 -5.5 -18.0
v -41.0 -5.3 -9.0
v -41.0 -5.0 -9.4
v -41.0 -5.6 -8.0
v -41.0 -4.0 -19.4
v -41.0 -4.5 -19.0
v -41.0 -4.5 -10.0
v -41.0 -4.0 -10.5
v -42.0 -3.0 -20.0
v -41.0 -3.0 -19.4
v -41.7 -3.0 -13.0
v -41.0 -3.3 -13.0
v -41.0 -3.0 -13.4
v -41.0 -3.5 -12.0
v -41.0 -3.6 -11.0
v -41.0 -2.6 -19.0
v -41.5 -2.0 -18.0
v -41.0 -2.3 -18.0
v -41.0 -2.0 -17.5
v -41.0 -2.4 -15.0
v -41.0 -2.0 -15.7
v -41.0 -2.6 -14.0
v -41.0 -1.7 -17.0
v -41.0 -1.8 -16.0
v -40.9 -17.0 0.0
v -40.7 -17.0 1.0
v -40.0 -16.0 -3.4
v -40.0 -16.3 -3.0
v -40.0 -16.5 -2.0
v -40.0 -16.5 -1.0
v -40.0 -16.6 0.0
v -40.0 -16.5 1.0
v -40.0 -16.1 2.0
v -40.0 -16.0 2.1
v -40.8 -15.0 -5.0
v -40.0 -15.0 -4.6
v -40.0 -15.5 -4.0
v -40.3 -15.0 2.0
v -40.0 -15.8 2.0
v -40.0 -15.0 1.7
v -40.7 -15.0 3.0
v -40.0 -14.0 -7.5
v -40.0 -14.4 -7.0
v -40.0 -14.5 -6.0
v -40.0 -14.7 -5.0
v -40.3 -14.0 2.0
v -40.0 -14.0 1.7
v -40.8 -14.0 3.0
v -40.0 -13.0 -8.5
v -40.0 -13.5 -8.0
v -40.0 -13.1 2.0
v -40.0 -13.0 2.0
v -40.0 -12.0 -11.3
v -40.0 -12.2 -11.0
v -40.0 -12.5 -10.0
v -40.0 -12.6 -9.0
v -40.5 -12.0 1.0
v -40.0 -12.4 1.0
v -40.0 -12.0 0.7
v -40.0 -13.0 2.0
v -40.4 -11.0 -12.0
v -40.0 -11.0 -11.7
v -40.2 -11.0 0.0
v -40.0 -11.1 0.0
v -40.0 -11.0 -0.1
v -40.0 -10.0 -13.3
v -40.0 -10.3 -13.0
v -40.0 -10.7 -12.0
v -40.5 -10.0 0.0
v -40.0 -10.0 -0.4
v -40.6 -9.0 -15.0
v -40.0 -9.0 -14.5
v -40.0 -9.4 -14.0
v -41.0 -9.0 -1.0
v -40.0 -9.0 -0.7
v -40.6 -8.0 -16.0
v -40.0 -8.0 -15.5
v -40.0 -8.5 -15.0
v -40.0 -8.3 -3.0
v -40.0 -8.0 -3.4
v -40.0 -8.5 -2.0
v -40.0 -8.7 -1.0
v -40.0 -7.0 -16.3
v -40.0 -7.4 -16.0
v -40.0 -7.4 -5.0
v -40.0 -7.0 -5.5
v -40.0 -7.6 -4.0
v -40.5 -6.0 -17.0
v -40.0 -6.0 -16.7
v -40.0 -6.4 -7.0
v -40.0 -6.0 -7.5
v -40.0 -6.6 -6.0
v -40.0 -5.0 -18.3
v -40.0 -5.2 -18.0
v -40.0 -5.7 -17.0
v -40.5 -5.0 -9.0
v -40.0 -5.0 -8.6
v -40.0 -5.5 -8.0
v -40.0 -4.0 -19.2
v -40.0 -4.3 -19.0
v -40.0 -4.4 -10.0
v -40.0 -4.0 -10.5
v -40.0 -4.7 -9.0
v -40.0 -3.0 -19.2
v -40.0 -3.4 -13.0
v -40.0 -3.0 -13.5
v -40.0 -3.5 -12.0
v -40.0 -3.6 -11.0
v -40.0 -2.8 -19.0
v -40.0 -2.6 -18.0
v -40.6 -2.0 -17.0
v -40.0 -2.4 -17.0
v -40.7 -2.0 -16.0
v -40.0 -2.4 -16.0
v -40.0 -2.5 -15.0
v -40.0 -2.6 -14.0
v -39.3 -16.0 -3.0
v -39.0 -16.0 -2.8
v -39.0 -16.4 -2.0
v -39.0 -16.5 -1.0
v -39.0 -16.4 0.0
v -39.4 -16.0 1.0
v -39.0 -16.0 0.6
v -39.9 -16.0 2.0
v -39.0 -15.0 -4.5
v -39.0 -15.4 -4.0
v -39.0 -15.8 -3.0
v -39.0 -15.5 1.0
v -39.0 -15.0 1.3
v -39.0 -14.0 -7.5
v -39.0 -14.4 -7.0
v -39.0 -14.5 -6.0
v -39.0 -14.6 -5.0
v -39.3 -14.0 1.0
v -39.0 -14.4 1.0
v -39.0 -14.0 0.8
v -39.0 -13.0 -8.5
v -39.0 -13.5 -8.0
v -39.5 -13.0 1.0
v -39.0 -13.0 0.6
v -40.0 -13.0 2.0
v -39.6 -12.0 -11.0
v -39.0 -12.0 -10.6
v -39.0 -12.4 -10.0
v -39.0 -12.6 -9.0
v -39.0 -12.0 0.5
v -39.0 -11.0 -11.5
v -39.0 -11.6 -11.0
v -39.7 -11.0 0.0
v -39.0 -11.0 0.2
v -39.6 -10.0 -13.0
v -39.0 -10.0 -12.5
v -39.0 -10.4 -12.0
v -39.0 -10.7 0.0
v -39.0 -10.0 -0.4
v -39.5 -9.0 -14.0
v -39.0 -9.0 -13.5
v -39.0 -9.5 -13.0
v -39.0 -9.0 -0.8
v -39.5 -8.0 -15.0
v -39.0 -8.0 -14.5
v -39.0 -8.5 -14.0
v -39.3 -8.0 -3.0
v -39.0 -8.0 -2.8
v -39.0 -8.5 -2.0
v -39.0 -8.8 -1.0
v -39.6 -7.0 -16.0
v -39.0 -7.0 -15.4
v -39.0 -7.4 -15.0
v -39.0 -7.3 -5.0
v -39.0 -7.0 -5.4
v -39.0 -7.5 -4.0
v -39.0 -7.9 -3.0
v -39.0 -6.0 -16.3
v -39.0 -6.4 -16.0
v -39.0 -6.2 -7.0
v -39.0 -6.0 -7.3
v -39.0 -6.5 -6.0
v -39.8 -5.0 -18.0
v -39.4 -5.0 -17.0
v -39.0 -5.0 -16.6
v -39.0 -5.4 -8.0
v -39.0 -5.0 -8.4
v -39.8 -4.0 -19.0
v -39.4 -4.0 -18.0
v -39.0 -4.0 -17.4
v -39.0 -4.5 -17.0
v -39.0 -4.4 -10.0
v -39.0 -4.0 -10.5
v -39.0 -4.6 -9.0
v -39.8 -3.0 -19.0
v -39.6 -3.0 -18.0
v -39.0 -3.0 -17.3
v -39.0 -3.4 -13.0
v -39.0 -3.0 -13.5
v -39.0 -3.5 -12.0
v -39.0 -3.6 -11.0
v -39.0 -2.8 -17.0
v -39.0 -2.7 -16.0
v -39.0 -2.6 -15.0
v -39.0 -2.7 -14.0
v -38.7 -16.0 -3.0
v -38.0 -16.0 -3.4
v -38.0 -16.3 -3.0
v -38.0 -16.5 -2.0
v -38.0 -16.5 -1.0
v -38.0 -16.3 0.0
v -38.0 -16.0 0.4
v -38.0 -15.0 -4.5
v -38.0 -15.5 -4.0
v -38.0 -15.3 1.0
v -38.0 -15.0 1.2
v -38.0 -14.0 -7.3
v -38.0 -14.3 -7.0
v -38.0 -14.4 -6.0
v -38.0 -14.6 -5.0
v -38.0 -14.5 1.0
v -38.0 -14.0 0.7
v -38.0 -13.0 -8.6
v -38.0 -13.5 -8.0
v -38.0 -13.0 0.5
v -38.0 -12.0 -10.5
v -38.0 -12.4 -10.0
v -38.0 -12.7 -9.0
v -38.0 -12.0 0.5
v -38.0 -11.0 -11.4
v -38.0 -11.5 -11.0
v -38.4 -11.0 0.0
v -38.0 -11.2 0.0
v -38.0 -11.0 -0.1
v -38.5 -10.0 -12.0
v -38.0 -10.0 -11.7
v -38.0 -10.0 -0.1
v -38.5 -9.0 -13.0
v -38.0 -9.0 -12.5
v -38.0 -9.5 -12.0
v -38.3 -9.0 -2.0
v -38.0 -9.2 -2.0
v -38.0 -9.0 -2.3
v -38.7 -9.0 -1.0
v -38.0 -9.5 -1.0
v -38.6 -8.0 -14.0
v -38.0 -8.0 -13.3
v -38.0 -8.4 -13.0
v -38.6 -8.0 -3.0
v -38.0 -8.2 -3.0
v -38.0 -8.0 -3.3
v -38.7 -7.0 -15.0
v -38.3 -7.0 -14.0
v -38.0 -7.0 -13.6
v -38.5 -7.0 -5.0
v -38.0 -7.0 -4.6
v -38.0 -7.5 -4.0
v -38.8 -6.0 -16.0
v -38.4 -6.0 -15.0
v -38.0 -6.0 -14.4
v -38.0 -6.5 -14.0
v -38.6 -6.0 -7.0
v -38.1 -6.0 -6.0
v -38.0 -6.0 -5.9
v -38.0 -6.7 -5.0
v -38.6 -5.0 -16.0
v -38.4 -5.0 -15.0
v -38.0 -5.0 -14.5
v -38.3 -5.0 -8.0
v -38.0 -5.0 -7.8
v -38.0 -5.7 -7.0
v -38.0 -5.9 -6.0
v -38.7 -4.0 -17.0
v -38.5 -4.0 -16.0
v -38.4 -4.0 -15.0
v -38.0 -4.0 -14.5
v -38.0 -4.4 -10.0
v -38.0 -4.0 -10.7
v -38.0 -4.5 -9.0
v -38.0 -4.9 -8.0
v -38.8 -3.0 -17.0
v -38.7 -3.0 -16.0
v -38.6 -3.0 -15.0
v -38.0 -3.0 -14.0
v -38.0 -3.6 -13.0
v -38.0 -3.0 -14.0
v -38.0 -3.6 -12.0
v -38.0 -3.8 -11.0
v -38.0 -3.0 -14.0
v -37.0 -16.0 -3.5
v -37.0 -16.4 -3.0
v -37.0 -16.5 -2.0
v -37.0 -16.4 -1.0
v -37.5 -16.0 0.0
v -37.0 -16.0 -0.4
v -37.0 -15.0 -4.5
v -37.0 -15.5 -4.0
v -37.0 -15.7 0.0
v -37.0 -15.2 1.0
v -37.0 -15.0 1.2
v -37.6 -14.0 -7.0
v -37.2 -14.0 -6.0
v -37.0 -14.0 -5.8
v -37.0 -14.5 -5.0
v -37.5 -14.0 1.0
v -37.0 -14.0 1.3
v -37.2 -13.0 -9.0
v -37.0 -13.0 -9.1
v -37.0 -13.1 -9.0
v -37.0 -13.4 -8.0
v -37.0 -13.6 -7.0
v -37.0 -13.9 -6.0
v -37.0 -13.4 1.0
v -37.0 -13.0 0.8
v -37.0 -12.0 -10.3
v -37.0 -12.3 -10.0
v -37.0 -12.0 0.9
v -37.0 -11.0 -11.2
v -37.0 -11.3 -11.0
v -37.0 -11.2 0.0
v -37.0 -11.0 -0.2
v -37.0 -10.0 -11.4
v -37.0 -10.0 -0.4
v -37.6 -9.0 -12.0
v -37.0 -9.0 -11.6
v -37.0 -9.2 -2.0
v -37.0 -9.0 -2.2
v -37.0 -9.5 -1.0
v -37.7 -8.0 -13.0
v -37.3 -8.0 -12.0
v -37.0 -8.0 -11.7
v -37.6 -8.0 -3.0
v -37.0 -8.0 -2.7
v -37.5 -7.0 -13.0
v -37.0 -7.0 -12.4
v -37.0 -7.5 -12.0
v -37.0 -7.4 -4.0
v -37.0 -7.0 -4.7
v -37.0 -7.8 -3.0
v -37.7 -6.0 -14.0
v -37.4 -6.0 -13.0
v -37.0 -6.0 -12.5
v -37.5 -6.0 -7.0
v -37.0 -6.4 -7.0
v -37.0 -6.0 -7.4
v -37.9 -6.0 -6.0
v -37.0 -6.5 -6.0
v -37.0 -6.7 -5.0
v -37.6 -5.0 -14.0
v -37.4 -5.0 -13.0
v -37.0 -5.0 -12.3
v -37.8 -5.0 -8.0
v -37.0 -5.4 -8.0
v -37.0 -5.0 -8.5
v -37.7 -4.0 -14.0
v -37.6 -4.0 -13.0
v -37.0 -4.7 -12.0
v -37.6 -4.0 -12.0
v -37.7 -4.0 -11.0
v -37.0 -4.5 -11.0
v -37.0 -4.5 -10.0
v -37.0 -4.7 -9.0
v -38.0 -3.0 -14.0
v -36.0 -16.0 -3.5
v -36.0 -16.4 -3.0
v -36.0 -16.5 -2.0
v -36.0 -16.3 -1.0
v -36.0 -16.0 -0.6
v -36.0 -15.0 -4.5
v -36.0 -15.5 -4.0
v -36.0 -15.5 0.0
v -36.7 -15.0 1.0
v -36.0 -15.0 0.6
v -36.7 -14.0 -6.0
v -36.0 -14.0 -6.3
v -36.0 -14.3 -6.0
v -36.0 -14.6 -5.0
v -36.0 -14.4 1.0
v -36.0 -14.0 1.2
v -36.9 -13.0 -9.0
v -36.5 -13.0 -8.0
v -36.0 -13.0 -7.5
v -36.0 -13.4 -7.0
v -36.4 -13.0 1.0
v -36.0 -13.0 1.1
v -36.7 -12.0 -10.0
v -36.3 -12.0 -9.0
v -36.0 -12.0 -8.6
v -36.0 -12.5 -8.0
v -36.0 -12.7 1.0
v -36.0 -12.0 0.6
v -36.7 -11.0 -11.0
v -36.0 -11.0 -10.3
v -36.0 -11.3 -10.0
v -36.0 -11.6 -9.0
v -36.7 -11.0 0.0
v -36.0 -11.0 0.4
v -36.4 -10.0 -11.0
v -36.0 -10.0 -10.6
v -36.4 -10.0 0.0
v -36.0 -10.0 0.2
v -36.0 -9.0 -11.1
v -36.0 -9.2 -11.0
v -36.7 -9.0 -2.0
v -36.3 -9.0 -1.0
v -36.0 -9.0 -0.7
v -36.0 -9.7 0.0
v -36.0 -8.8 -11.0
v -36.4 -8.0 -11.0
v -36.0 -8.0 -10.6
v -36.2 -8.0 -6.0
v -36.0 -8.2 -6.0
v -36.0 -8.0 -6.9
v -36.0 -8.0 -5.7
v -36.0 -8.5 -2.0
v -36.0 -8.0 -2.5
v -36.0 -8.8 -1.0
v -36.7 -7.0 -12.0
v -36.4 -7.0 -11.0
v -36.0 -7.0 -10.5
v -36.3 -7.0 -7.0
v -36.0 -7.9 -7.0
v -36.0 -7.0 -7.3
v -36.6 -7.0 -6.0
v -36.0 -7.5 -5.0
v -36.7 -7.0 -5.0
v -36.0 -7.5 -4.0
v -36.0 -7.6 -3.0
v -36.6 -6.0 -12.0
v -36.4 -6.0 -11.0
v -36.0 -6.0 -10.5
v -36.0 -6.0 -7.8
v -36.7 -5.0 -12.0
v -36.5 -5.0 -11.0
v -36.0 -5.0 -10.1
v -36.5 -5.0 -9.0
v -36.0 -5.5 -9.0
v -36.0 -5.0 -9.9
v -36.0 -5.8 -8.0
v -36.0 -4.9 -10.0
v -35.0 -16.0 -3.3
v -35.0 -16.2 -3.0
v -35.0 -16.2 -2.0
v -35.6 -16.0 -1.0
v -35.0 -16.0 -1.6
v -35.0 -15.0 -4.3
v -35.0 -15.3 -4.0
v -35.0 -15.5 -1.0
v -35.0 -15.2 0.0
v -35.0 -15.0 0.2
v -35.0 -14.0 -6.2
v -35.0 -14.2 -6.0
v -35.0 -14.5 -5.0
v -35.7 -14.0 1.0
v -35.0 -14.0 0.4
v -35.5 -13.0 -7.0
v -35.0 -13.0 -6.6
v -35.8 -13.0 1.0
v -35.0 -13.0 0.4
v -35.6 -12.0 -8.0
v -35.0 -12.0 -7.3
v -35.0 -12.4 -7.0
v -35.0 -12.0 0.4
v -35.8 -11.0 -10.0
v -35.6 -11.0 -9.0
v -35.3 -11.0 -8.0
v -35.0 -11.0 -7.5
v -35.1 -11.0 -6.0
v -35.0 -11.1 -6.0
v -35.0 -11.0 -6.2
v -35.0 -11.0 -5.9
v -35.0 -11.0 0.3
v -35.6 -10.0 -10.0
v -35.3 -10.0 -9.0
v -35.0 -10.0 -8.5
v -35.0 -10.5 -8.0
v -35.2 -10.0 -6.0
v -35.0 -10.0 -6.3
v -35.0 -10.0 -5.7
v -35.0 -10.0 0.2
v -35.9 -9.0 -11.0
v -35.4 -9.0 -10.0
v -35.0 -9.0 -9.4
v -35.0 -9.5 -9.0
v -35.3 -9.0 -6.0
v -35.0 -9.0 -6.4
v -35.0 -9.0 -5.6
v -35.0 -9.7 0.0
v -35.0 -9.0 -0.7
v -35.5 -8.0 -10.0
v -35.0 -8.0 -9.4
v -35.0 -8.0 -6.7
v -35.0 -8.0 -5.3
v -35.0 -8.6 -2.0
v -35.0 -8.0 -2.7
v -35.0 -8.8 -1.0
v -35.6 -7.0 -10.0
v -35.0 -7.5 -9.0
v -35.3 -7.0 -9.0
v -35.0 -7.0 -8.4
v -35.3 -7.0 -7.0
v -35.0 -7.0 -6.9
v -35.0 -7.8 -5.0
v -35.0 -7.5 -4.0
v -35.0 -7.8 -3.0
v -35.6 -6.0 -10.0
v -35.6 -6.0 -9.0
v -35.0 -6.7 -8.0
v -35.7 -6.0 -8.0
v -35.0 -6.9 -7.0
v -35.9 -5.0 -10.0
v -34.8 -16.0 -3.0
v -34.8 -16.0 -2.0
v -34.8 -15.0 -4.0
v -34.5 -15.0 -3.0
v -34.5 -15.0 -2.0
v -34.6 -15.0 -1.0
v -34.8 -15.0 0.0
v -34.8 -14.0 -6.0
v -34.6 -14.0 -5.0
v -34.5 -14.0 -4.0
v -34.5 -14.0 -3.0
v -34.5 -14.0 -2.0
v -34.5 -14.0 -1.0
v -34.6 -14.0 0.0
v -34.5 -13.0 -6.0
v -34.1 -13.0 -5.0
v -34.4 -13.0 -4.0
v -34.5 -13.0 -3.0
v -34.5 -13.0 -2.0
v -34.5 -13.0 -1.0
v -34.6 -13.0 0.0
v -34.8 -12.0 -7.0
v -34.6 -12.0 -6.0
v -34.4 -12.0 -5.0
v -34.4 -12.0 -4.0
v -34.5 -12.0 -3.0
v -34.5 -12.0 -2.0
v -34.5 -12.0 -1.0
v -34.6 -12.0 0.0
v -34.7 -11.0 -7.0
v -34.5 -11.0 -5.0
v -34.0 -11.0 -4.1
v -34.0 -11.1 -4.0
v -34.0 -11.0 -3.9
v -34.4 -11.0 -3.0
v -34.5 -11.0 -2.0
v -34.4 -11.0 -1.0
v -34.6 -11.0 0.0
v -34.7 -10.0 -8.0
v -34.6 -10.0 -7.0
v -34.5 -10.0 -5.0
v -34.0 -10.0 -4.3
v -34.4 -10.0 -3.0
v -34.0 -10.0 -3.7
v -34.4 -10.0 -2.0
v -34.1 -10.0 -1.0
v -34.7 -10.0 0.0
v -34.7 -9.0 -9.0
v -34.5 -9.0 -8.0
v -34.6 -9.0 -7.0
v -34.5 -9.0 -5.0
v -34.0 -9.0 -4.3
v -34.4 -9.0 -3.0
v -34.0 -9.0 -3.7
v -34.6 -9.0 -2.0
v -34.7 -9.0 -1.0
v -34.7 -8.0 -9.0
v -34.5 -8.0 -8.0
v -34.7 -8.0 -7.0
v -34.7 -8.0 -5.0
v -34.0 -8.0 -4.0
v -34.7 -8.0 -3.0
v -34.0 -8.0 -4.0
v -34.7 -7.0 -8.0
v -34.6 -7.0 -7.0
v -34.0 -8.0 -4.0
v -33.9 -11.0 -4.0
v -33.8 -10.0 -4.0
v -33.8 -9.0 -4.0
v -34.0 -8.0 -4.0
f 3 2 1
f 1 4 3
f 2 5 1
f 1 5 4
f 8 7 6
f 6 9 8
f 12 11 10
f 12 10 7
f 10 6 7
f 10 13 6
f 9 6 14
f 14 6 13
f 10 11 15
f 15 11 16
f 18 13 17
f 13 15 17
f 13 10 15
f 13 18 14
f 15 16 19
f 19 16 20
f 17 15 21
f 21 15 19
f 24 23 22
f 22 25 24
f 20 26 19
f 19 26 21
f 22 23 27
f 27 23 28
f 25 22 29
f 29 22 27
f 27 28 30
f 30 28 31
f 29 27 32
f 27 33 32
f 27 30 33
f 33 34 32
f 37 36 35
f 37 35 31
f 35 30 31
f 35 38 30
f 30 39 33
f 30 38 39
f 34 33 40
f 40 33 39
f 35 36 41
f 41 36 42
f 44 38 43
f 38 41 43
f 38 35 41
f 38 44 39
f 39 44 45
f 39 45 40
f 48 47 46
f 50 49 46
f 46 49 48
f 49 50 42
f 50 41 42
f 50 51 41
f 43 41 52
f 52 41 51
f 46 47 3
f 47 2 3
f 47 53 2
f 50 46 54
f 46 4 54
f 4 55 54
f 4 46 3
f 50 54 51
f 51 54 56
f 51 56 52
f 53 57 2
f 2 57 5
f 4 5 55
f 55 5 57
f 60 59 58
f 7 8 58
f 8 60 58
f 8 61 60
f 63 62 9
f 62 8 9
f 62 61 8
f 63 64 62
f 67 66 65
f 69 68 65
f 65 68 67
f 68 69 59
f 59 69 58
f 69 11 58
f 11 12 58
f 58 12 7
f 71 70 63
f 9 71 63
f 14 71 9
f 63 70 64
f 65 66 72
f 72 66 73
f 65 74 69
f 65 72 74
f 74 16 11
f 74 11 69
f 17 75 18
f 75 76 18
f 76 14 18
f 76 71 14
f 79 78 77
f 79 77 73
f 77 72 73
f 77 80 72
f 72 81 74
f 72 80 81
f 81 20 16
f 81 16 74
f 21 82 75
f 21 75 17
f 76 75 83
f 83 75 82
f 86 85 84
f 86 84 78
f 78 84 77
f 84 23 77
f 23 24 77
f 77 24 25
f 87 77 25
f 80 77 87
f 80 88 81
f 80 87 88
f 89 26 20
f 81 89 20
f 88 89 81
f 89 90 26
f 26 90 21
f 90 91 21
f 91 82 21
f 82 91 83
f 84 85 92
f 92 85 93
f 92 28 23
f 92 23 84
f 29 94 87
f 29 87 25
f 87 95 88
f 87 94 95
f 97 89 96
f 89 95 96
f 89 88 95
f 89 97 90
f 92 93 98
f 98 93 99
f 98 31 28
f 98 28 92
f 32 94 29
f 95 94 100
f 94 34 100
f 34 101 100
f 34 94 32
f 95 100 96
f 104 103 102
f 104 102 99
f 99 102 98
f 102 36 98
f 36 37 98
f 98 37 31
f 40 101 34
f 40 105 101
f 108 107 106
f 108 106 103
f 106 102 103
f 106 109 102
f 109 42 36
f 109 36 102
f 43 110 44
f 44 110 111
f 112 44 111
f 45 44 112
f 40 45 105
f 105 45 112
f 106 107 48
f 107 47 48
f 107 113 47
f 106 48 49
f 106 49 109
f 109 49 42
f 115 114 110
f 43 115 110
f 52 115 43
f 110 114 111
f 118 117 116
f 113 118 116
f 53 113 116
f 47 113 53
f 55 119 54
f 54 119 120
f 121 54 120
f 56 54 121
f 52 56 115
f 115 56 121
f 116 117 122
f 122 117 123
f 124 57 53
f 116 124 53
f 122 124 116
f 124 125 57
f 57 125 55
f 125 126 55
f 126 119 55
f 119 126 120
f 123 127 122
f 122 127 124
f 124 127 128
f 124 128 125
f 131 130 129
f 129 132 131
f 135 134 133
f 137 136 133
f 133 136 135
f 139 138 137
f 137 138 136
f 138 139 130
f 139 129 130
f 139 140 129
f 132 129 141
f 141 129 140
f 143 142 60
f 60 142 59
f 144 60 61
f 144 143 60
f 146 144 145
f 144 62 145
f 144 61 62
f 64 145 62
f 149 148 147
f 150 133 134
f 147 151 149
f 133 150 137
f 137 150 152
f 137 152 139
f 139 152 153
f 155 154 153
f 154 139 153
f 154 140 139
f 141 140 156
f 156 140 154
f 157 66 67
f 157 67 158
f 67 159 158
f 67 68 159
f 68 59 142
f 68 142 159
f 146 161 160
f 146 71 161
f 146 145 70
f 71 146 70
f 145 64 70
f 162 160 161
f 165 164 163
f 167 166 163
f 163 166 165
f 166 167 148
f 167 147 148
f 167 168 147
f 151 147 169
f 169 147 168
f 155 170 154
f 154 170 156
f 172 171 157
f 171 66 157
f 171 73 66
f 172 157 158
f 174 173 161
f 71 174 161
f 76 174 71
f 161 173 162
f 163 164 175
f 175 164 176
f 163 177 167
f 163 175 177
f 167 178 168
f 167 177 178
f 169 168 179
f 179 168 178
f 181 180 79
f 79 180 78
f 79 73 171
f 79 171 181
f 83 174 76
f 83 182 174
f 175 176 183
f 183 176 184
f 175 185 177
f 175 183 185
f 177 186 178
f 177 185 186
f 179 178 187
f 178 188 187
f 178 186 188
f 188 189 187
f 190 85 86
f 191 190 86
f 78 191 86
f 180 191 78
f 90 192 91
f 192 193 91
f 193 83 91
f 193 182 83
f 196 195 194
f 196 194 184
f 194 183 184
f 194 197 183
f 183 198 185
f 183 197 198
f 185 199 186
f 185 198 199
f 201 188 200
f 188 199 200
f 188 186 199
f 188 201 189
f 203 202 190
f 202 85 190
f 202 93 85
f 203 190 191
f 96 204 97
f 192 90 97
f 204 192 97
f 205 192 204
f 193 192 206
f 206 192 205
f 194 195 207
f 207 195 208
f 194 209 197
f 194 207 209
f 197 210 198
f 197 209 210
f 198 211 199
f 198 210 211
f 200 199 212
f 212 199 211
f 202 99 93
f 213 99 202
f 101 214 100
f 204 96 100
f 214 204 100
f 215 204 214
f 217 205 216
f 205 215 216
f 205 204 215
f 205 217 206
f 220 219 218
f 222 221 218
f 218 221 220
f 224 223 222
f 222 223 221
f 226 225 224
f 224 225 223
f 225 226 208
f 226 207 208
f 226 227 207
f 207 228 209
f 207 227 228
f 209 229 210
f 209 228 229
f 231 211 230
f 211 229 230
f 211 210 229
f 211 231 212
f 233 232 104
f 104 232 103
f 104 99 213
f 104 213 233
f 235 234 214
f 101 235 214
f 105 235 101
f 214 234 215
f 215 234 236
f 215 236 216
f 219 237 218
f 239 238 237
f 238 218 237
f 238 222 218
f 222 240 224
f 222 238 240
f 224 241 226
f 224 240 241
f 243 227 242
f 227 241 242
f 227 226 241
f 227 243 228
f 228 243 244
f 228 244 229
f 229 244 245
f 229 245 230
f 248 247 246
f 107 108 246
f 108 248 246
f 108 249 248
f 108 103 232
f 108 232 249
f 111 250 112
f 250 251 112
f 251 105 112
f 251 235 105
f 238 239 252
f 252 239 253
f 238 254 240
f 238 252 254
f 256 241 255
f 241 254 255
f 241 240 254
f 241 256 242
f 246 247 257
f 257 247 258
f 257 113 107
f 257 107 246
f 260 259 114
f 260 114 115
f 111 114 250
f 114 261 250
f 114 259 261
f 250 261 251
f 253 262 252
f 252 262 254
f 254 262 263
f 254 263 255
f 266 265 264
f 266 264 258
f 258 264 257
f 264 117 257
f 117 118 257
f 257 118 113
f 268 267 121
f 268 121 120
f 115 121 260
f 260 121 267
f 264 265 269
f 269 265 270
f 269 123 117
f 269 117 264
f 125 271 126
f 271 272 126
f 272 120 126
f 272 268 120
f 270 273 269
f 269 273 123
f 273 127 123
f 273 274 127
f 274 276 275
f 128 274 275
f 127 274 128
f 271 125 128
f 275 271 128
f 277 271 275
f 272 271 278
f 278 271 277
f 276 279 275
f 275 279 277
f 277 279 280
f 277 280 278
f 283 282 281
f 285 284 281
f 281 284 283
f 285 286 284
f 289 288 287
f 289 287 282
f 287 281 282
f 287 290 281
f 281 291 285
f 281 290 291
f 131 292 130
f 292 285 130
f 285 291 130
f 285 292 286
f 131 132 292
f 292 132 293
f 287 288 135
f 288 134 135
f 288 294 134
f 287 135 136
f 287 136 290
f 290 136 138
f 290 138 291
f 291 138 130
f 141 293 132
f 141 295 293
f 297 296 143
f 143 296 142
f 299 297 298
f 297 144 298
f 297 143 144
f 146 298 144
f 302 301 300
f 304 303 300
f 300 303 302
f 148 149 304
f 149 303 304
f 149 305 303
f 294 150 134
f 150 294 306
f 305 306 294
f 306 305 151
f 149 151 305
f 307 152 150
f 307 150 306
f 308 153 152
f 308 152 307
f 308 155 153
f 156 295 141
f 156 309 295
f 311 310 159
f 159 310 158
f 159 142 296
f 159 296 311
f 312 299 298
f 312 298 146
f 160 312 146
f 313 312 160
f 160 162 313
f 313 162 314
f 317 316 315
f 319 318 315
f 315 318 317
f 318 319 301
f 301 319 300
f 319 164 300
f 164 165 300
f 300 165 166
f 300 166 304
f 304 166 148
f 169 320 306
f 169 306 151
f 306 321 307
f 306 320 321
f 307 322 308
f 307 321 322
f 308 322 155
f 322 323 155
f 323 170 155
f 322 324 323
f 156 170 309
f 309 170 323
f 326 325 172
f 172 325 171
f 172 158 310
f 172 310 326
f 174 327 173
f 314 162 328
f 162 327 328
f 327 329 328
f 162 173 327
f 331 330 329
f 329 330 328
f 333 332 331
f 331 332 330
f 332 333 316
f 333 315 316
f 333 334 315
f 315 335 319
f 315 334 335
f 335 176 164
f 335 164 319
f 179 336 320
f 179 320 169
f 320 337 321
f 320 336 337
f 339 322 338
f 322 337 338
f 322 321 337
f 322 339 324
f 340 180 181
f 341 340 181
f 171 341 181
f 325 341 171
f 182 342 327
f 182 327 174
f 327 343 329
f 327 342 343
f 329 344 331
f 329 343 344
f 331 345 333
f 331 344 345
f 333 346 334
f 333 345 346
f 334 347 335
f 334 346 347
f 347 184 176
f 347 176 335
f 187 336 179
f 336 187 189
f 348 336 189
f 337 336 348
f 338 337 349
f 349 337 348
f 351 350 340
f 350 180 340
f 350 191 180
f 351 340 341
f 193 352 342
f 193 342 182
f 342 353 343
f 342 352 353
f 343 354 344
f 343 353 354
f 344 355 345
f 344 354 355
f 345 356 346
f 345 355 356
f 356 195 196
f 347 356 196
f 346 356 347
f 347 196 184
f 200 357 201
f 357 358 201
f 201 358 189
f 358 359 189
f 359 348 189
f 348 359 349
f 361 360 203
f 203 360 202
f 203 191 350
f 203 350 361
f 206 362 352
f 206 352 193
f 352 363 353
f 352 362 363
f 353 364 354
f 353 363 364
f 354 365 355
f 354 364 365
f 355 366 356
f 355 365 366
f 366 208 195
f 366 195 356
f 368 367 357
f 200 368 357
f 212 368 200
f 357 367 358
f 360 213 202
f 369 213 360
f 216 370 217
f 362 206 217
f 370 362 217
f 371 362 370
f 371 219 220
f 363 371 220
f 362 371 363
f 363 220 221
f 363 221 364
f 364 221 223
f 364 223 365
f 365 223 225
f 365 225 366
f 208 366 225
f 374 373 372
f 376 375 373
f 376 373 374
f 378 377 375
f 378 375 376
f 231 230 377
f 378 231 377
f 379 231 378
f 212 231 368
f 368 231 379
f 381 380 233
f 233 380 232
f 233 213 369
f 233 369 381
f 235 382 234
f 383 236 234
f 383 234 382
f 370 216 236
f 383 370 236
f 384 370 383
f 370 385 371
f 370 384 385
f 386 237 219
f 371 386 219
f 385 386 371
f 386 239 237
f 389 388 387
f 391 390 387
f 391 387 388
f 390 391 372
f 390 372 373
f 242 390 373
f 243 242 373
f 243 373 244
f 244 373 375
f 244 375 245
f 245 375 377
f 245 377 230
f 393 392 248
f 248 392 247
f 394 248 249
f 394 393 248
f 249 232 380
f 249 380 394
f 251 395 382
f 251 382 235
f 382 396 383
f 382 395 396
f 383 397 384
f 383 396 397
f 384 398 385
f 384 397 398
f 385 399 386
f 385 398 399
f 399 253 239
f 399 239 386
f 389 387 400
f 389 400 401
f 255 400 256
f 400 390 256
f 400 387 390
f 256 390 242
f 392 258 247
f 402 258 392
f 260 403 259
f 259 403 404
f 405 259 404
f 261 259 405
f 261 405 251
f 405 406 251
f 406 395 251
f 406 405 407
f 395 408 396
f 395 406 408
f 396 409 397
f 396 408 409
f 397 410 398
f 397 409 410
f 412 399 411
f 399 410 411
f 399 398 410
f 399 412 253
f 412 262 253
f 412 413 262
f 400 263 401
f 263 413 401
f 263 262 413
f 263 400 255
f 415 414 266
f 266 414 265
f 266 258 402
f 266 402 415
f 268 416 267
f 416 417 267
f 267 417 260
f 417 418 260
f 418 403 260
f 403 418 404
f 407 419 406
f 406 419 408
f 408 419 420
f 408 420 409
f 409 420 421
f 409 421 410
f 410 421 422
f 410 422 411
f 424 270 423
f 270 414 423
f 270 265 414
f 425 424 423
f 427 426 416
f 268 427 416
f 272 427 268
f 416 426 417
f 424 273 270
f 425 428 424
f 428 273 424
f 428 274 273
f 430 429 276
f 274 430 276
f 428 430 274
f 431 429 430
f 278 427 272
f 278 432 427
f 429 279 276
f 431 433 429
f 433 279 429
f 433 280 279
f 278 280 432
f 432 280 433
f 436 435 434
f 438 437 434
f 434 437 436
f 282 283 438
f 283 437 438
f 283 439 437
f 440 283 284
f 440 439 283
f 284 286 440
f 440 286 441
f 434 435 442
f 442 435 443
f 442 288 289
f 438 442 289
f 434 442 438
f 438 289 282
f 444 441 286
f 444 286 292
f 292 293 444
f 444 293 445
f 448 447 446
f 450 449 446
f 446 449 448
f 452 451 450
f 450 451 449
f 451 452 443
f 452 442 443
f 452 453 442
f 453 294 288
f 453 288 442
f 295 455 454
f 445 295 454
f 293 295 445
f 455 456 454
f 457 296 297
f 299 457 297
f 460 459 458
f 462 461 458
f 458 461 460
f 464 463 462
f 462 463 461
f 463 464 447
f 464 446 447
f 464 465 446
f 465 301 302
f 450 465 302
f 446 465 450
f 450 302 303
f 450 303 452
f 452 303 305
f 452 305 453
f 453 305 294
f 467 466 455
f 295 467 455
f 309 467 295
f 455 466 456
f 468 310 311
f 469 468 311
f 469 311 296
f 470 469 296
f 457 470 296
f 470 457 299
f 312 470 299
f 471 470 312
f 472 312 313
f 472 471 312
f 474 473 314
f 473 313 314
f 473 472 313
f 473 474 459
f 474 458 459
f 474 475 458
f 458 476 462
f 458 475 476
f 476 316 317
f 464 476 317
f 462 476 464
f 464 317 318
f 464 318 465
f 465 318 301
f 478 477 323
f 478 323 324
f 309 323 467
f 467 323 477
f 479 325 326
f 480 479 326
f 480 326 310
f 481 480 310
f 468 481 310
f 481 468 469
f 328 474 314
f 474 328 330
f 474 330 475
f 475 330 332
f 475 332 476
f 476 332 316
f 483 482 339
f 483 339 338
f 324 339 478
f 478 339 482
f 485 484 479
f 484 325 479
f 484 341 325
f 485 479 480
f 349 483 338
f 349 486 483
f 488 487 351
f 351 487 350
f 351 341 484
f 351 484 488
f 490 489 359
f 490 359 358
f 349 359 486
f 486 359 489
f 492 491 361
f 361 491 360
f 361 350 487
f 361 487 492
f 495 494 493
f 367 368 493
f 494 367 493
f 496 367 494
f 358 367 490
f 490 367 496
f 491 369 360
f 497 369 491
f 499 498 374
f 499 374 372
f 374 500 376
f 498 500 374
f 376 501 378
f 500 501 376
f 493 379 495
f 379 501 495
f 379 378 501
f 379 493 368
f 503 502 381
f 381 502 380
f 381 369 497
f 381 497 503
f 505 504 388
f 505 388 389
f 388 506 391
f 504 506 388
f 372 391 499
f 499 391 506
f 507 392 393
f 507 393 508
f 393 509 508
f 393 394 509
f 394 380 502
f 394 502 509
f 512 511 510
f 514 513 510
f 514 510 511
f 514 505 513
f 505 401 513
f 505 389 401
f 516 515 507
f 515 392 507
f 515 402 392
f 516 507 508
f 404 517 405
f 517 407 405
f 520 519 518
f 518 519 512
f 518 512 510
f 411 518 510
f 412 411 510
f 412 510 413
f 413 510 513
f 413 513 401
f 522 521 415
f 415 521 414
f 415 402 515
f 415 515 522
f 417 523 418
f 517 404 418
f 523 517 418
f 524 517 523
f 525 419 407
f 517 525 407
f 524 525 517
f 419 525 526
f 527 419 526
f 420 419 527
f 420 528 421
f 527 528 420
f 518 422 520
f 422 528 520
f 422 421 528
f 422 518 411
f 521 529 414
f 414 529 423
f 531 530 425
f 423 531 425
f 529 531 423
f 532 530 531
f 427 533 426
f 533 534 426
f 426 534 417
f 534 535 417
f 535 523 417
f 523 535 524
f 524 535 536
f 524 536 525
f 525 536 537
f 525 537 526
f 530 428 425
f 532 538 530
f 538 428 530
f 538 430 428
f 540 539 431
f 430 540 431
f 538 540 430
f 540 541 533
f 432 540 533
f 427 432 533
f 539 540 432
f 533 541 534
f 539 433 431
f 433 539 432
f 544 543 542
f 546 545 542
f 542 545 544
f 546 547 545
f 550 549 548
f 435 436 548
f 436 550 548
f 436 551 550
f 552 436 437
f 552 551 436
f 439 542 543
f 552 439 543
f 437 439 552
f 542 439 440
f 542 440 546
f 554 553 441
f 441 553 440
f 553 547 440
f 547 546 440
f 554 555 553
f 558 557 556
f 560 559 556
f 556 559 558
f 559 560 549
f 560 548 549
f 560 561 548
f 561 443 435
f 561 435 548
f 444 554 441
f 563 562 445
f 445 562 444
f 562 555 444
f 555 554 444
f 563 564 562
f 567 566 565
f 569 568 565
f 565 568 567
f 568 569 557
f 557 569 556
f 569 447 556
f 447 448 556
f 556 448 449
f 556 449 560
f 560 449 451
f 560 451 561
f 561 451 443
f 454 563 445
f 454 456 563
f 456 564 563
f 456 570 564
f 572 571 460
f 460 571 459
f 461 565 566
f 572 461 566
f 460 461 572
f 565 461 463
f 565 463 569
f 569 463 447
f 574 573 466
f 574 466 467
f 456 466 570
f 570 466 573
f 575 469 470
f 575 470 576
f 470 577 576
f 470 471 577
f 578 471 472
f 578 577 471
f 579 472 473
f 579 578 472
f 473 459 571
f 473 571 579
f 581 580 477
f 581 477 478
f 467 477 574
f 574 477 580
f 582 480 481
f 583 582 481
f 583 481 469
f 584 583 469
f 575 584 469
f 584 575 576
f 586 585 482
f 586 482 483
f 478 482 581
f 581 482 585
f 587 484 485
f 588 587 485
f 588 485 480
f 589 588 480
f 582 589 480
f 589 582 583
f 486 586 483
f 486 590 586
f 592 591 488
f 488 591 487
f 488 484 587
f 593 488 587
f 592 488 593
f 593 587 588
f 596 595 594
f 489 490 594
f 595 489 594
f 597 489 595
f 486 489 590
f 590 489 597
f 599 598 492
f 492 598 491
f 492 487 591
f 492 591 599
f 602 601 600
f 494 495 600
f 601 494 600
f 603 494 601
f 594 496 596
f 496 603 596
f 496 494 603
f 496 594 490
f 598 497 491
f 604 497 598
f 606 605 498
f 606 498 499
f 498 607 500
f 605 607 498
f 600 501 602
f 501 607 602
f 501 500 607
f 501 600 495
f 609 608 503
f 503 608 502
f 503 497 604
f 503 604 609
f 611 610 504
f 611 504 505
f 504 612 506
f 610 612 504
f 499 506 606
f 606 506 612
f 614 613 509
f 509 613 508
f 509 502 608
f 509 608 614
f 616 615 511
f 616 511 512
f 511 617 514
f 615 617 511
f 505 514 611
f 611 514 617
f 619 618 516
f 516 618 515
f 516 508 613
f 516 613 619
f 621 620 519
f 621 519 520
f 512 519 616
f 616 519 620
f 622 521 522
f 623 622 522
f 515 623 522
f 618 623 515
f 626 625 624
f 527 526 624
f 625 527 624
f 627 527 625
f 527 628 528
f 627 628 527
f 520 528 621
f 621 528 628
f 622 529 521
f 623 629 622
f 629 529 622
f 629 531 529
f 631 630 532
f 531 631 532
f 629 631 531
f 632 630 631
f 634 633 535
f 634 535 534
f 535 635 536
f 633 635 535
f 624 537 626
f 537 635 626
f 537 536 635
f 537 624 526
f 630 538 532
f 632 636 630
f 636 538 630
f 636 540 538
f 540 637 541
f 636 637 540
f 534 541 634
f 634 541 637
f 638 543 544
f 545 639 544
f 544 639 638
f 547 639 545
f 641 640 550
f 550 640 549
f 642 550 551
f 642 641 550
f 643 551 552
f 643 642 551
f 552 543 638
f 644 552 638
f 643 552 644
f 644 638 639
f 644 639 645
f 645 639 547
f 553 645 547
f 646 645 553
f 553 555 646
f 646 555 647
f 648 557 558
f 648 558 649
f 558 650 649
f 558 559 650
f 559 549 640
f 559 640 650
f 653 652 651
f 654 651 562
f 651 647 562
f 647 555 562
f 647 651 652
f 564 654 562
f 656 655 567
f 567 655 566
f 657 567 568
f 657 656 567
f 568 557 648
f 658 568 648
f 657 568 658
f 658 648 649
f 653 651 659
f 653 659 660
f 661 651 654
f 659 651 661
f 570 661 564
f 564 661 654
f 663 662 572
f 572 662 571
f 572 566 655
f 572 655 663
f 664 660 659
f 574 665 573
f 665 659 573
f 659 661 573
f 665 664 659
f 573 661 570
f 667 666 577
f 577 666 576
f 668 577 578
f 668 667 577
f 669 578 579
f 669 668 578
f 579 571 662
f 579 662 669
f 672 671 670
f 580 581 670
f 671 580 670
f 673 580 671
f 574 580 665
f 665 580 673
f 674 583 584
f 675 674 584
f 576 675 584
f 666 675 576
f 678 677 676
f 676 677 672
f 676 672 670
f 586 676 670
f 585 586 670
f 585 670 581
f 680 679 589
f 589 679 588
f 589 583 674
f 681 589 674
f 680 589 681
f 681 674 675
f 678 676 682
f 678 682 683
f 590 682 586
f 586 682 676
f 684 591 592
f 684 592 685
f 592 686 685
f 592 593 686
f 593 588 679
f 593 679 686
f 596 687 595
f 688 683 682
f 595 688 682
f 597 595 682
f 688 595 687
f 597 682 590
f 689 598 599
f 690 689 599
f 690 599 591
f 691 690 591
f 684 691 591
f 691 684 685
f 693 692 601
f 693 601 602
f 601 694 603
f 692 694 601
f 596 603 687
f 603 695 687
f 603 694 695
f 687 695 688
f 697 696 689
f 696 598 689
f 696 604 598
f 697 689 690
f 699 698 605
f 699 605 606
f 605 700 607
f 698 700 605
f 602 607 693
f 693 607 700
f 701 608 609
f 702 701 609
f 604 702 609
f 696 702 604
f 704 703 610
f 704 610 611
f 610 705 612
f 703 705 610
f 606 612 699
f 699 612 705
f 707 706 614
f 614 706 613
f 614 608 701
f 708 614 701
f 707 614 708
f 708 701 702
f 616 709 615
f 615 709 710
f 711 615 710
f 617 615 711
f 611 617 704
f 704 617 711
f 713 712 619
f 619 712 618
f 619 613 706
f 619 706 713
f 715 714 620
f 715 620 621
f 616 620 709
f 620 716 709
f 620 714 716
f 709 716 710
f 712 623 618
f 717 623 712
f 719 718 625
f 719 625 626
f 625 720 627
f 718 720 625
f 627 721 628
f 720 721 627
f 621 628 715
f 715 628 721
f 717 722 623
f 623 722 629
f 629 723 631
f 722 723 629
f 725 724 632
f 631 725 632
f 723 725 631
f 727 726 724
f 727 724 725
f 633 634 726
f 727 633 726
f 728 633 727
f 633 729 635
f 728 729 633
f 626 635 719
f 719 635 729
f 724 636 632
f 636 724 637
f 637 724 726
f 637 726 634
f 730 640 641
f 730 641 731
f 641 732 731
f 641 642 732
f 733 642 643
f 733 732 642
f 734 643 644
f 734 733 643
f 736 734 735
f 734 645 735
f 734 644 645
f 646 737 645
f 645 737 735
f 647 737 646
f 739 738 650
f 650 738 649
f 650 640 730
f 740 650 730
f 739 650 740
f 740 730 731
f 741 736 735
f 653 742 652
f 742 735 652
f 735 737 652
f 742 741 735
f 652 737 647
f 744 743 656
f 656 743 655
f 745 656 657
f 745 744 656
f 746 657 658
f 746 745 657
f 658 649 738
f 658 738 746
f 749 748 747
f 748 742 747
f 742 660 747
f 742 653 660
f 751 750 663
f 663 750 662
f 663 655 743
f 663 743 751
f 749 747 752
f 749 752 753
f 664 754 660
f 754 747 660
f 754 752 747
f 665 754 664
f 755 666 667
f 755 667 756
f 667 757 756
f 667 668 757
f 758 668 669
f 758 757 668
f 669 662 750
f 669 750 758
f 753 752 671
f 672 753 671
f 759 753 672
f 671 752 673
f 673 752 754
f 673 754 665
f 761 760 755
f 760 666 755
f 760 675 666
f 761 755 756
f 678 762 677
f 762 763 677
f 763 672 677
f 763 759 672
f 764 679 680
f 764 680 765
f 680 766 765
f 680 681 766
f 681 675 760
f 681 760 766
f 768 767 762
f 678 768 762
f 683 768 678
f 762 767 763
f 769 685 686
f 770 769 686
f 770 686 679
f 771 770 679
f 764 771 679
f 771 764 765
f 688 768 683
f 688 772 768
f 773 690 691
f 774 773 691
f 774 691 685
f 775 774 685
f 769 775 685
f 775 769 770
f 693 776 692
f 692 776 777
f 778 692 777
f 694 692 778
f 694 779 695
f 778 779 694
f 688 695 772
f 772 695 779
f 780 696 697
f 781 780 697
f 781 697 690
f 782 781 690
f 773 782 690
f 782 773 774
f 784 783 698
f 784 698 699
f 698 785 700
f 783 785 698
f 693 700 776
f 700 786 776
f 700 785 786
f 776 786 777
f 788 787 780
f 787 696 780
f 787 702 696
f 788 780 781
f 790 789 703
f 790 703 704
f 703 791 705
f 789 791 703
f 699 705 784
f 784 705 791
f 792 706 707
f 708 793 707
f 707 793 792
f 794 793 708
f 702 794 708
f 787 794 702
f 796 795 711
f 796 711 710
f 704 711 790
f 790 711 795
f 797 712 713
f 706 792 713
f 792 797 713
f 792 798 797
f 793 800 799
f 798 793 799
f 792 793 798
f 800 793 794
f 802 801 714
f 802 714 715
f 714 803 716
f 801 803 714
f 710 716 796
f 796 716 803
f 804 717 797
f 797 717 712
f 805 797 798
f 804 797 805
f 798 799 806
f 798 806 805
f 808 807 718
f 808 718 719
f 718 809 720
f 807 809 718
f 720 810 721
f 809 810 720
f 715 721 802
f 802 721 810
f 804 722 717
f 722 804 723
f 723 804 805
f 806 811 805
f 811 723 805
f 811 725 723
f 725 812 727
f 811 812 725
f 727 813 728
f 812 813 727
f 728 814 729
f 813 814 728
f 719 729 808
f 808 729 814
f 817 816 815
f 731 732 815
f 732 817 815
f 732 818 817
f 819 732 733
f 819 818 732
f 820 733 734
f 820 819 733
f 734 736 820
f 820 736 821
f 823 822 739
f 739 822 738
f 740 815 816
f 823 740 816
f 739 740 823
f 815 740 731
f 824 821 736
f 824 736 741
f 741 742 824
f 824 742 825
f 827 826 744
f 744 826 743
f 828 744 745
f 828 827 744
f 829 745 746
f 829 828 745
f 746 738 822
f 746 822 829
f 831 830 748
f 831 748 749
f 742 748 825
f 825 748 830
f 833 832 751
f 751 832 750
f 751 743 826
f 751 826 833
f 753 831 749
f 753 834 831
f 836 835 757
f 757 835 756
f 837 757 758
f 837 836 757
f 758 750 832
f 758 832 837
f 759 834 753
f 759 838 834
f 840 839 761
f 761 839 760
f 761 756 835
f 761 835 840
f 843 842 841
f 842 838 841
f 838 763 841
f 838 759 763
f 844 765 766
f 845 844 766
f 760 845 766
f 839 845 760
f 843 841 767
f 768 843 767
f 846 843 768
f 767 841 763
f 847 770 771
f 848 847 771
f 848 771 765
f 849 848 765
f 844 849 765
f 849 844 845
f 852 851 850
f 854 853 850
f 854 850 851
f 854 846 853
f 846 772 853
f 846 768 772
f 855 774 775
f 856 855 775
f 856 775 770
f 857 856 770
f 847 857 770
f 857 847 848
f 860 859 858
f 858 859 852
f 858 852 850
f 777 858 850
f 778 777 850
f 778 850 779
f 779 850 853
f 779 853 772
f 861 781 782
f 774 855 782
f 855 861 782
f 855 862 861
f 855 856 863
f 855 863 862
f 784 864 783
f 783 864 865
f 866 783 865
f 785 783 866
f 858 786 860
f 786 866 860
f 786 785 866
f 786 858 777
f 867 787 788
f 781 861 788
f 861 867 788
f 861 868 867
f 862 870 869
f 868 862 869
f 861 862 868
f 870 862 863
f 790 871 789
f 872 791 789
f 872 789 871
f 872 873 791
f 791 873 784
f 873 874 784
f 874 864 784
f 864 874 865
f 875 794 867
f 867 794 787
f 876 867 868
f 875 867 876
f 868 869 877
f 868 877 876
f 796 878 795
f 878 879 795
f 795 879 790
f 879 880 790
f 880 871 790
f 871 880 872
f 872 880 881
f 872 881 873
f 882 799 800
f 794 875 800
f 875 882 800
f 875 883 882
f 884 875 876
f 883 875 884
f 876 877 885
f 876 885 884
f 887 886 801
f 887 801 802
f 801 888 803
f 886 888 801
f 796 803 878
f 803 889 878
f 803 888 889
f 878 889 879
f 890 806 882
f 882 806 799
f 891 882 883
f 890 882 891
f 892 883 884
f 891 883 892
f 884 885 893
f 884 893 892
f 895 894 807
f 895 807 808
f 807 896 809
f 894 896 807
f 809 897 810
f 896 897 809
f 802 810 887
f 887 810 897
f 890 811 806
f 811 890 812
f 812 890 891
f 812 891 813
f 813 891 892
f 893 898 892
f 898 813 892
f 898 814 813
f 808 814 895
f 895 814 898
f 900 899 817
f 817 899 816
f 901 817 818
f 901 900 817
f 902 818 819
f 902 901 818
f 904 902 903
f 902 820 903
f 902 819 820
f 821 903 820
f 906 905 823
f 823 905 822
f 823 816 899
f 823 899 906
f 907 904 903
f 907 903 821
f 824 907 821
f 908 907 824
f 824 825 908
f 908 825 909
f 910 826 827
f 828 911 827
f 827 911 910
f 911 828 912
f 828 913 912
f 828 829 913
f 829 822 905
f 829 905 913
f 831 914 830
f 914 915 830
f 915 825 830
f 915 909 825
f 918 917 916
f 832 833 916
f 833 918 916
f 833 919 918
f 833 826 910
f 920 833 910
f 919 833 920
f 920 910 911
f 920 911 921
f 921 911 912
f 923 922 914
f 831 923 914
f 834 923 831
f 914 922 915
f 925 924 836
f 836 924 835
f 837 916 917
f 925 837 917
f 836 837 925
f 916 837 832
f 838 923 834
f 838 926 923
f 928 927 840
f 840 927 839
f 840 835 924
f 840 924 928
f 930 929 842
f 930 842 843
f 838 842 926
f 926 842 929
f 927 845 839
f 931 845 927
f 846 930 843
f 846 932 930
f 933 848 849
f 934 933 849
f 845 934 849
f 931 934 845
f 936 935 851
f 936 851 852
f 851 937 854
f 935 937 851
f 846 854 932
f 932 854 937
f 938 856 857
f 848 933 857
f 933 938 857
f 933 939 938
f 933 934 940
f 933 940 939
f 860 941 859
f 941 942 859
f 942 852 859
f 942 936 852
f 943 863 938
f 938 863 856
f 939 945 944
f 943 939 944
f 938 939 943
f 945 939 940
f 947 946 866
f 947 866 865
f 860 866 941
f 866 948 941
f 866 946 948
f 941 948 942
f 949 869 870
f 863 943 870
f 943 949 870
f 943 950 949
f 943 944 951
f 943 951 950
f 954 953 952
f 956 955 952
f 956 952 953
f 874 873 955
f 956 874 955
f 957 874 956
f 865 874 947
f 947 874 957
f 958 877 949
f 949 877 869
f 959 949 950
f 958 949 959
f 950 951 960
f 950 960 959
f 963 962 961
f 961 962 954
f 961 954 952
f 879 961 952
f 880 879 952
f 880 952 881
f 881 952 955
f 881 955 873
f 964 885 958
f 958 885 877
f 965 958 959
f 964 958 965
f 959 960 966
f 967 959 966
f 965 959 967
f 969 968 967
f 969 967 966
f 886 887 968
f 969 886 968
f 970 886 969
f 886 971 888
f 970 971 886
f 961 889 963
f 889 971 963
f 889 888 971
f 889 961 879
f 972 893 964
f 964 893 885
f 895 972 894
f 972 965 894
f 972 964 965
f 894 965 896
f 896 965 967
f 896 967 897
f 897 967 968
f 897 968 887
f 972 898 893
f 898 972 895
f 974 973 900
f 900 973 899
f 975 900 901
f 975 974 900
f 976 901 902
f 976 975 901
f 902 904 976
f 976 904 977
f 979 978 906
f 906 978 905
f 906 899 973
f 906 973 979
f 980 977 904
f 980 904 907
f 982 980 981
f 980 908 981
f 980 907 908
f 909 981 908
f 985 984 983
f 912 913 983
f 913 985 983
f 913 986 985
f 913 905 978
f 913 978 986
f 987 982 981
f 981 909 987
f 909 988 987
f 909 915 988
f 989 917 918
f 919 990 918
f 918 990 989
f 990 919 991
f 919 992 991
f 919 920 992
f 921 983 984
f 992 921 984
f 920 921 992
f 983 921 912
f 923 993 922
f 993 994 922
f 994 915 922
f 994 988 915
f 995 924 925
f 917 989 925
f 989 995 925
f 989 996 995
f 990 998 997
f 996 990 997
f 989 990 996
f 998 990 991
f 1000 999 993
f 923 1000 993
f 926 1000 923
f 993 999 994
f 1001 927 928
f 1002 1001 928
f 1002 928 924
f 1003 1002 924
f 995 1003 924
f 1003 995 996
f 1003 996 1004
f 1004 996 997
f 930 1005 929
f 1005 1006 929
f 1006 926 929
f 1006 1000 926
f 1007 931 1001
f 1001 931 927
f 1001 1002 1008
f 1001 1008 1007
f 932 1009 1005
f 932 1005 930
f 1006 1005 1010
f 1010 1005 1009
f 1012 1011 1007
f 1011 931 1007
f 1011 934 931
f 1012 1007 1008
f 936 1013 935
f 1014 937 935
f 1014 935 1013
f 1014 1015 937
f 937 1015 932
f 1015 1016 932
f 1016 1009 932
f 1009 1016 1010
f 1018 940 1017
f 940 1011 1017
f 940 934 1011
f 1019 1018 1017
f 1022 1021 1020
f 1023 1020 1021
f 1025 1024 1013
f 936 1025 1013
f 942 1025 936
f 1013 1024 1014
f 1014 1024 1026
f 1014 1026 1015
f 1027 944 945
f 940 1018 945
f 1018 1027 945
f 1018 1028 1027
f 1018 1019 1029
f 1018 1029 1028
f 1032 1031 1030
f 1030 1031 1022
f 1020 1030 1022
f 1033 1030 1020
f 1020 1023 1034
f 1035 1020 1034
f 1033 1020 1035
f 946 947 1035
f 1034 946 1035
f 1036 946 1034
f 946 1037 948
f 1036 1037 946
f 942 948 1025
f 1025 948 1037
f 1038 951 1027
f 1027 951 944
f 1039 1027 1028
f 1038 1027 1039
f 1028 1029 1040
f 1028 1040 1039
f 1032 1030 953
f 954 1032 953
f 1041 1032 954
f 953 1030 956
f 956 1030 1033
f 956 1033 957
f 957 1033 1035
f 957 1035 947
f 1042 960 1038
f 1038 960 951
f 1043 1038 1039
f 1042 1038 1043
f 1039 1040 1044
f 1039 1044 1043
f 1047 1046 1045
f 962 963 1045
f 1046 962 1045
f 1048 962 1046
f 954 962 1041
f 1041 962 1048
f 1042 966 960
f 966 1042 969
f 969 1042 1043
f 1044 1049 1043
f 1049 969 1043
f 1049 970 969
f 1045 971 1047
f 971 1049 1047
f 971 970 1049
f 971 1045 963
f 1051 1050 974
f 974 1050 973
f 1052 974 975
f 1052 1051 974
f 1054 1052 1053
f 1052 976 1053
f 1052 975 976
f 977 1053 976
f 1056 1055 979
f 979 1055 978
f 979 973 1050
f 979 1050 1056
f 1057 1054 1053
f 1057 1053 977
f 980 1057 977
f 1058 1057 980
f 980 982 1058
f 1058 982 1059
f 1061 1060 985
f 985 1060 984
f 1062 985 986
f 1062 1061 985
f 986 978 1055
f 986 1055 1062
f 982 987 1063
f 1064 982 1063
f 1059 982 1064
f 988 1063 987
f 1065 991 992
f 1066 1065 992
f 984 1066 992
f 1060 1066 984
f 1064 1063 1067
f 1064 1067 1068
f 994 1067 988
f 988 1067 1063
f 1069 997 998
f 1070 1069 998
f 1070 998 991
f 1071 1070 991
f 1065 1071 991
f 1071 1065 1066
f 1068 1067 999
f 1000 1068 999
f 1072 1068 1000
f 999 1067 994
f 1073 1002 1003
f 1004 1074 1003
f 1003 1074 1073
f 997 1069 1004
f 1069 1074 1004
f 1069 1075 1074
f 1069 1070 1076
f 1069 1076 1075
f 1079 1078 1077
f 1080 1077 1078
f 1006 1072 1000
f 1006 1081 1072
f 1082 1008 1073
f 1073 1008 1002
f 1083 1073 1074
f 1082 1073 1083
f 1075 1085 1084
f 1083 1075 1084
f 1074 1075 1083
f 1085 1075 1076
f 1079 1077 1086
f 1079 1086 1087
f 1077 1080 1088
f 1077 1088 1086
f 1010 1081 1006
f 1010 1089 1081
f 1090 1011 1012
f 1008 1082 1012
f 1082 1090 1012
f 1082 1091 1090
f 1083 1093 1092
f 1091 1083 1092
f 1082 1083 1091
f 1093 1083 1084
f 1087 1086 1094
f 1087 1094 1095
f 1086 1088 1096
f 1086 1096 1094
f 1098 1097 1016
f 1098 1016 1015
f 1010 1016 1089
f 1089 1016 1097
f 1090 1017 1011
f 1017 1090 1019
f 1090 1099 1019
f 1090 1091 1099
f 1091 1092 1100
f 1091 1100 1099
f 1095 1094 1021
f 1022 1095 1021
f 1101 1095 1022
f 1023 1021 1094
f 1096 1023 1094
f 1102 1023 1096
f 1104 1103 1024
f 1104 1024 1025
f 1024 1105 1026
f 1103 1105 1024
f 1015 1026 1098
f 1098 1026 1105
f 1106 1029 1099
f 1099 1029 1019
f 1099 1100 1107
f 1108 1099 1107
f 1106 1099 1108
f 1109 1108 1107
f 1032 1110 1031
f 1110 1111 1031
f 1111 1022 1031
f 1111 1101 1022
f 1102 1112 1023
f 1023 1112 1034
f 1034 1113 1036
f 1112 1113 1034
f 1036 1114 1037
f 1113 1114 1036
f 1025 1037 1104
f 1104 1037 1114
f 1115 1040 1106
f 1106 1040 1029
f 1116 1106 1108
f 1115 1106 1116
f 1108 1109 1117
f 1118 1108 1117
f 1116 1108 1118
f 1117 1119 1110
f 1041 1117 1110
f 1032 1041 1110
f 1118 1117 1041
f 1110 1119 1111
f 1120 1044 1115
f 1115 1044 1040
f 1047 1120 1046
f 1120 1116 1046
f 1120 1115 1116
f 1046 1116 1048
f 1048 1116 1118
f 1048 1118 1041
f 1120 1049 1044
f 1049 1120 1047
f 1121 1050 1051
f 1052 1122 1051
f 1051 1122 1121
f 1054 1122 1052
f 1123 1055 1056
f 1050 1121 1056
f 1121 1123 1056
f 1121 1124 1123
f 1125 1121 1122
f 1124 1121 1125
f 1057 1126 1054
f 1126 1122 1054
f 1126 1125 1122
f 1058 1127 1057
f 1057 1127 1126
f 1059 1127 1058
f 1128 1060 1061
f 1062 1129 1061
f 1061 1129 1128
f 1055 1123 1062
f 1123 1129 1062
f 1123 1130 1129
f 1131 1123 1124
f 1130 1123 1131
f 1132 1124 1125
f 1131 1124 1132
f 1133 1125 1126
f 1132 1125 1133
f 1134 1126 1127
f 1133 1126 1134
f 1064 1134 1059
f 1059 1134 1127
f 1135 1066 1128
f 1128 1066 1060
f 1136 1128 1129
f 1135 1128 1136
f 1137 1129 1130
f 1136 1129 1137
f 1138 1130 1131
f 1137 1130 1138
f 1139 1131 1132
f 1138 1131 1139
f 1140 1132 1133
f 1139 1132 1140
f 1141 1133 1134
f 1140 1133 1141
f 1068 1141 1064
f 1064 1141 1134
f 1142 1070 1071
f 1066 1135 1071
f 1135 1142 1071
f 1135 1143 1142
f 1144 1135 1136
f 1143 1135 1144
f 1145 1136 1137
f 1144 1136 1145
f 1146 1137 1138
f 1145 1137 1146
f 1147 1138 1139
f 1146 1138 1147
f 1148 1139 1140
f 1147 1139 1148
f 1149 1140 1141
f 1148 1140 1149
f 1072 1149 1068
f 1068 1149 1141
f 1150 1076 1142
f 1142 1076 1070
f 1079 1150 1078
f 1150 1143 1078
f 1150 1142 1143
f 1078 1143 1080
f 1143 1151 1080
f 1143 1144 1151
f 1145 1153 1152
f 1151 1145 1152
f 1144 1145 1151
f 1155 1154 1153
f 1145 1155 1153
f 1146 1155 1145
f 1156 1146 1147
f 1155 1146 1156
f 1157 1147 1148
f 1156 1147 1157
f 1158 1148 1149
f 1157 1148 1158
f 1081 1158 1072
f 1072 1158 1149
f 1159 1084 1085
f 1076 1150 1085
f 1150 1159 1085
f 1150 1160 1159
f 1087 1160 1079
f 1079 1160 1150
f 1161 1088 1151
f 1151 1088 1080
f 1151 1152 1162
f 1151 1162 1161
f 1154 1155 1163
f 1154 1163 1164
f 1165 1155 1156
f 1163 1155 1165
f 1166 1156 1157
f 1165 1156 1166
f 1167 1157 1158
f 1166 1157 1167
f 1089 1167 1081
f 1081 1167 1158
f 1168 1092 1093
f 1084 1159 1093
f 1159 1168 1093
f 1159 1169 1168
f 1170 1159 1160
f 1169 1159 1170
f 1095 1170 1087
f 1087 1170 1160
f 1171 1096 1161
f 1161 1096 1088
f 1161 1162 1172
f 1161 1172 1171
f 1164 1163 1173
f 1164 1173 1174
f 1175 1163 1165
f 1173 1163 1175
f 1176 1165 1166
f 1175 1165 1176
f 1098 1176 1097
f 1176 1167 1097
f 1176 1166 1167
f 1097 1167 1089
f 1177 1100 1168
f 1168 1100 1092
f 1178 1168 1169
f 1177 1168 1178
f 1179 1169 1170
f 1178 1169 1179
f 1101 1179 1095
f 1095 1179 1170
f 1180 1102 1171
f 1171 1102 1096
f 1171 1172 1181
f 1171 1181 1180
f 1174 1173 1182
f 1174 1182 1183
f 1104 1182 1103
f 1182 1175 1103
f 1182 1173 1175
f 1103 1175 1105
f 1105 1175 1176
f 1105 1176 1098
f 1177 1107 1100
f 1107 1177 1109
f 1177 1184 1109
f 1177 1178 1184
f 1185 1178 1179
f 1184 1178 1185
f 1111 1185 1101
f 1101 1185 1179
f 1180 1112 1102
f 1181 1186 1180
f 1186 1112 1180
f 1186 1113 1112
f 1182 1114 1183
f 1114 1186 1183
f 1114 1113 1186
f 1114 1182 1104
f 1184 1117 1109
f 1117 1184 1119
f 1119 1184 1185
f 1119 1185 1111
f 1187 1152 1153
f 1154 1187 1153
f 1188 1162 1187
f 1187 1162 1152
f 1164 1188 1154
f 1154 1188 1187
f 1189 1172 1188
f 1188 1172 1162
f 1174 1189 1164
f 1164 1189 1188
f 1190 1181 1189
f 1189 1181 1172
f 1183 1190 1174
f 1174 1190 1189
f 1190 1186 1181
f 1186 1190 1183
