v -45.0 -6.0 7.0
v -45.0 -6.0 6.9
v -45.0 -6.6 7.0
v -45.0 -6.0 7.1
v -45.0 -5.9 7.0
v -45.2 -4.0 1.0
v -45.0 -4.0 0.8
v -45.0 -4.3 1.0
v -45.0 -4.4 2.0
v -45.3 -4.0 2.0
v -45.0 -4.2 3.0
v -45.2 -4.0 3.0
v -45.0 -4.0 3.3
v -45.3 -3.0 1.0
v -45.0 -3.0 0.6
v -45.4 -3.0 2.0
v -45.2 -3.0 3.0
v -45.0 -3.0 3.2
v -45.1 -2.0 0.0
v -45.0 -2.0 -0.2
v -45.0 -2.1 0.0
v -45.2 -2.0 1.0
v -45.0 -2.0 1.3
v -45.0 -2.5 2.0
v -45.0 -2.8 3.0
v -45.4 -1.0 -2.0
v -45.0 -1.0 -2.2
v -45.0 -1.2 -2.0
v -45.0 -1.2 -1.0
v -45.1 -1.0 -1.0
v -45.0 -1.8 0.0
v -45.0 -1.0 -0.8
v -45.0 -1.8 1.0
v -45.0 -0.8 -2.0
v -45.0 -0.9 -1.0
v -44.9 -7.0 7.0
v -44.0 -7.0 6.6
v -44.0 -7.3 7.0
v -44.0 -7.2 8.0
v -44.3 -7.0 8.0
v -44.0 -7.0 8.3
v -44.2 -6.0 6.0
v -44.0 -6.0 5.6
v -44.0 -6.3 6.0
v -44.3 -6.0 8.0
v -44.0 -6.0 8.3
v -44.1 -5.0 0.0
v -44.0 -5.0 -0.1
v -44.0 -5.1 0.0
v -44.0 -5.3 1.0
v -44.3 -5.0 1.0
v -44.0 -5.0 1.5
v -44.3 -5.0 4.0
v -44.0 -5.0 3.5
v -44.0 -5.4 4.0
v -44.0 -5.5 5.0
v -44.3 -5.0 5.0
v -44.0 -5.4 6.0
v -44.0 -5.0 5.7
v -44.1 -5.0 7.0
v -44.0 -5.0 6.6
v -44.0 -5.0 7.1
v -44.0 -5.7 8.0
v -44.0 -4.8 0.0
v -44.0 -4.0 0.3
v -44.0 -4.8 2.0
v -44.0 -4.7 3.0
v -44.5 -4.0 4.0
v -44.2 -4.0 5.0
v -44.0 -4.0 5.3
v -44.0 -4.9 7.0
v -44.0 -3.0 0.2
v -44.0 -3.4 4.0
v -44.0 -3.0 3.6
v -44.0 -3.8 5.0
v -44.1 -2.0 -3.0
v -44.0 -2.0 -3.2
v -44.0 -2.2 -3.0
v -44.0 -2.6 -2.0
v -44.5 -2.0 -2.0
v -44.0 -2.6 -1.0
v -44.6 -2.0 -1.0
v -44.0 -2.8 0.0
v -44.4 -2.0 2.0
v -44.0 -2.0 2.4
v -44.0 -2.5 3.0
v -44.3 -1.0 -3.0
v -44.0 -1.0 -3.3
v -44.4 -1.0 0.0
v -44.0 -1.0 0.5
v -44.0 -1.3 1.0
v -44.0 -1.7 2.0
v -44.0 -0.7 -3.0
v -44.0 -0.4 -2.0
v -44.0 -0.4 -1.0
v -44.0 -0.7 0.0
v -43.2 -7.0 5.0
v -43.0 -7.0 4.7
v -43.0 -7.2 5.0
v -43.0 -7.0 5.7
v -43.0 -7.0 6.1
v -43.0 -7.5 7.0
v -43.0 -7.6 8.0
v -43.0 -7.2 9.0
v -43.2 -7.0 9.0
v -43.0 -7.0 9.2
v -43.3 -6.0 2.0
v -43.0 -6.0 1.5
v -43.0 -6.3 2.0
v -43.0 -6.5 3.0
v -43.4 -6.0 3.0
v -43.0 -6.6 4.0
v -43.5 -6.0 4.0
v -43.7 -6.0 5.0
v -43.0 -6.9 6.0
v -43.1 -6.0 9.0
v -43.0 -6.0 9.1
v -43.3 -5.0 -1.0
v -43.0 -5.0 -1.3
v -43.0 -5.3 -1.0
v -43.0 -5.6 0.0
v -43.0 -5.7 1.0
v -43.7 -5.0 2.0
v -43.8 -5.0 3.0
v -43.8 -5.0 6.0
v -43.0 -5.4 8.0
v -43.0 -5.0 7.5
v -43.0 -5.9 9.0
v -43.7 -4.0 -2.0
v -43.0 -4.0 -2.4
v -43.0 -4.4 -2.0
v -43.6 -4.0 -1.0
v -43.8 -4.0 0.0
v -43.1 -4.0 6.0
v -43.0 -4.6 7.0
v -43.0 -4.0 6.1
v -43.2 -3.0 -4.0
v -43.0 -3.0 -4.2
v -43.0 -3.2 -4.0
v -43.0 -3.4 -3.0
v -43.4 -3.0 -3.0
v -43.7 -3.0 -2.0
v -43.7 -3.0 -1.0
v -43.8 -3.0 0.0
v -43.3 -3.0 4.0
v -43.0 -3.0 4.2
v -43.0 -3.6 5.0
v -43.0 -3.9 6.0
v -43.5 -2.0 -5.0
v -43.0 -2.0 -5.3
v -43.0 -2.3 -5.0
v -43.5 -2.0 -4.0
v -43.0 -2.4 3.0
v -43.0 -2.0 2.5
v -43.0 -2.9 4.0
v -43.1 -1.0 -6.0
v -43.0 -1.0 -6.2
v -43.0 -1.2 -6.0
v -43.0 -1.2 -5.0
v -43.0 -1.0 -5.3
v -43.0 -1.1 -4.0
v -43.0 -1.0 -3.9
v -43.3 -1.0 1.0
v -43.0 -1.0 1.2
v -43.0 -1.5 2.0
v -43.0 0.0 -7.0
v -43.0 0.0 -7.0
v -43.0 -0.0 -7.0
v -43.4 0.0 -6.0
v -43.0 -0.9 -5.0
v -43.7 0.0 -5.0
v -43.0 -0.8 -4.0
v -43.3 0.0 -4.0
v -43.4 0.0 -3.0
v -43.5 0.0 -2.0
v -43.3 0.0 -1.0
v -43.0 0.0 -0.7
v -43.0 -0.4 0.0
v -43.0 -0.8 1.0
v -43.0 0.0 -7.0
v -43.0 0.3 -6.0
v -43.0 0.3 -5.0
v -43.0 0.3 -4.0
v -43.0 0.4 -3.0
v -43.0 0.4 -2.0
v -43.0 0.2 -1.0
v -42.3 -9.0 7.0
v -42.0 -9.0 6.6
v -42.0 -9.3 7.0
v -42.0 -9.4 8.0
v -42.3 -9.0 8.0
v -42.0 -9.1 9.0
v -42.1 -9.0 9.0
v -42.0 -9.0 9.1
v -42.3 -8.0 4.0
v -42.0 -8.0 3.6
v -42.0 -8.2 4.0
v -42.0 -8.4 5.0
v -42.4 -8.0 5.0
v -42.0 -8.6 6.0
v -42.4 -8.0 6.0
v -42.6 -8.0 7.0
v -42.5 -8.0 8.0
v -42.0 -8.0 8.6
v -42.0 -8.9 9.0
v -42.4 -7.0 2.0
v -42.0 -7.0 1.5
v -42.0 -7.4 2.0
v -42.0 -7.6 3.0
v -42.5 -7.0 3.0
v -42.7 -7.0 4.0
v -42.9 -7.0 6.0
v -42.0 -7.2 9.0
v -42.0 -7.0 9.1
v -42.4 -6.0 0.0
v -42.0 -6.0 -0.5
v -42.0 -6.3 0.0
v -42.0 -6.6 1.0
v -42.7 -6.0 1.0
v -42.9 -6.0 9.0
v -42.0 -6.8 9.0
v -42.0 -6.0 8.6
v -42.0 -5.0 -1.6
v -42.0 -5.6 -1.0
v -42.0 -5.5 8.0
v -42.0 -5.0 7.5
v -42.0 -4.0 -2.7
v -42.0 -4.6 -2.0
v -42.3 -4.0 5.0
v -42.0 -4.2 5.0
v -42.0 -4.0 4.7
v -42.9 -4.0 6.0
v -42.0 -4.4 6.0
v -42.0 -4.6 7.0
v -42.0 -3.0 -4.6
v -42.0 -3.5 -4.0
v -42.0 -3.7 -3.0
v -42.7 -3.0 4.0
v -42.0 -3.4 4.0
v -42.0 -3.0 3.6
v -42.0 -2.0 -5.5
v -42.0 -2.6 -5.0
v -42.0 -2.5 3.0
v -42.0 -2.0 2.5
v -42.0 -1.0 -6.5
v -42.0 -1.5 -6.0
v -42.9 -1.0 -5.0
v -42.9 -1.0 -4.0
v -42.7 -1.0 1.0
v -42.0 -1.3 1.0
v -42.0 -1.0 0.6
v -42.0 -1.6 2.0
v -42.0 0.0 -7.3
v -42.0 -0.3 -7.0
v -42.0 -0.5 0.0
v -42.0 0.0 -0.5
v -42.0 0.4 -7.0
v -42.0 0.5 -6.0
v -42.0 0.5 -5.0
v -42.0 0.5 -4.0
v -42.0 0.5 -3.0
v -42.0 0.6 -2.0
v -42.0 0.4 -1.0
v -41.3 -10.0 7.0
v -41.0 -10.0 6.6
v -41.0 -10.3 7.0
v -41.0 -10.4 8.0
v -41.5 -10.0 8.0
v -41.0 -10.3 9.0
v -41.3 -10.0 9.0
v -41.0 -10.0 9.4
v -41.5 -9.0 6.0
v -41.0 -9.0 5.4
v -41.0 -9.5 6.0
v -41.0 -9.1 10.0
v -41.1 -9.0 10.0
v -41.0 -9.0 10.1
v -41.4 -8.0 2.0
v -41.0 -8.0 1.5
v -41.0 -8.4 2.0
v -41.0 -8.5 3.0
v -41.6 -8.0 3.0
v -41.0 -8.6 4.0
v -41.0 -8.7 5.0
v -41.0 -8.4 9.0
v -41.0 -8.0 8.6
v -41.0 -9.0 10.0
v -41.1 -7.0 -1.0
v -41.0 -7.0 -1.2
v -41.0 -7.2 -1.0
v -41.0 -7.0 -0.5
v -41.5 -7.0 1.0
v -41.0 -7.0 0.2
v -41.0 -7.5 1.0
v -41.9 -7.0 9.0
v -41.0 -7.0 8.5
v -41.6 -6.0 -1.0
v -41.0 -6.0 -1.6
v -41.0 -6.9 0.0
v -41.0 -6.0 8.3
v -41.6 -5.0 -2.0
v -41.0 -5.0 -2.6
v -41.0 -5.6 -2.0
v -41.0 -5.7 8.0
v -41.0 -5.0 7.3
v -41.4 -4.0 -4.0
v -41.0 -4.0 -4.4
v -41.0 -4.3 -4.0
v -41.0 -4.6 -3.0
v -41.7 -4.0 -3.0
v -41.0 -4.4 5.0
v -41.0 -4.0 4.5
v -41.0 -4.5 6.0
v -41.0 -4.7 7.0
v -41.5 -3.0 -5.0
v -41.0 -3.0 -5.3
v -41.0 -3.4 -5.0
v -41.0 -3.5 4.0
v -41.0 -3.0 3.5
v -41.0 -2.0 -5.7
v -41.0 -2.4 3.0
v -41.0 -2.0 2.6
v -41.0 -1.0 -6.5
v -41.0 -1.6 -6.0
v -41.0 -1.4 1.0
v -41.0 -1.0 0.6
v -41.0 -1.6 2.0
v -41.0 0.0 -7.4
v -41.0 -0.5 -7.0
v -41.0 -0.4 0.0
v -41.0 0.0 -0.4
v -41.8 1.0 -8.0
v -41.0 1.0 -8.1
v -41.0 0.8 -8.0
v -41.4 1.0 -7.0
v -41.0 1.0 -6.7
v -41.0 0.6 -6.0
v -41.0 0.6 -5.0
v -41.0 0.6 -4.0
v -41.0 0.7 -3.0
v -41.2 1.0 -2.0
v -41.0 1.0 -2.3
v -41.0 1.0 -1.8
v -41.0 0.5 -1.0
v -41.0 1.1 -8.0
v -41.0 1.2 -7.0
v -41.0 1.1 -2.0
v -40.4 -10.0 6.0
v -40.0 -10.0 5.5
v -40.0 -10.3 6.0
v -40.0 -10.5 7.0
v -40.0 -10.5 8.0
v -40.0 -10.5 9.0
v -40.0 -10.1 10.0
v -40.1 -10.0 10.0
v -40.0 -10.0 10.1
v -40.3 -9.0 2.0
v -40.0 -9.0 1.5
v -40.0 -9.3 2.0
v -40.0 -9.4 3.0
v -40.5 -9.0 3.0
v -40.0 -9.5 4.0
v -40.5 -9.0 4.0
v -40.0 -9.6 5.0
v -40.7 -9.0 5.0
v -40.9 -9.0 10.0
v -40.0 -9.0 9.6
v -40.0 -9.9 10.0
v -40.2 -8.0 -2.0
v -40.0 -8.0 -2.3
v -40.0 -8.2 -2.0
v -40.0 -8.4 -1.0
v -40.4 -8.0 -1.0
v -40.0 -8.5 0.0
v -40.4 -8.0 0.0
v -40.0 -8.6 1.0
v -40.6 -8.0 1.0
v -40.0 -8.5 9.0
v -40.0 -8.0 8.5
v -40.2 -7.0 -3.0
v -40.0 -7.0 -3.2
v -40.0 -7.3 -3.0
v -40.6 -7.0 -2.0
v -40.9 -7.0 0.0
v -40.3 -7.0 8.0
v -40.0 -7.3 8.0
v -40.0 -7.0 7.7
v -40.4 -6.0 -3.0
v -40.0 -6.0 -3.5
v -40.7 -6.0 -2.0
v -40.7 -6.0 8.0
v -40.0 -6.0 7.4
v -40.6 -5.0 -3.0
v -40.0 -5.0 -3.7
v -40.6 -5.0 7.0
v -40.0 -5.5 7.0
v -40.0 -5.0 6.6
v -40.4 -4.0 -5.0
v -40.0 -4.0 -5.3
v -40.0 -4.3 -5.0
v -40.0 -4.7 -4.0
v -40.0 -4.3 5.0
v -40.0 -4.0 4.7
v -40.0 -4.6 6.0
v -40.0 -3.0 -5.7
v -40.0 -3.3 4.0
v -40.0 -3.0 3.7
v -40.6 -2.0 -6.0
v -40.0 -2.0 -6.4
v -40.0 -2.6 -6.0
v -40.4 -2.0 3.0
v -40.0 -2.0 3.3
v -40.0 -1.0 -6.7
v -40.0 -1.3 1.0
v -40.0 -1.0 0.7
v -40.0 -1.5 2.0
v -40.0 -1.8 3.0
v -40.0 0.0 -7.6
v -40.0 -0.7 -7.0
v -40.2 0.0 0.0
v -40.0 0.0 0.1
v -40.0 1.0 -8.3
v -40.0 0.6 -8.0
v -40.0 0.9 -6.0
v -40.0 1.0 -6.2
v -40.4 1.0 -5.0
v -40.0 1.0 -5.7
v -40.5 1.0 -4.0
v -40.6 1.0 -3.0
v -40.0 0.6 -1.0
v -40.0 1.0 -1.5
v -40.0 0.1 0.0
v -40.0 1.2 -8.0
v -40.0 1.4 -7.0
v -40.0 1.3 -5.0
v -40.0 1.4 -4.0
v -40.0 1.4 -3.0
v -40.0 1.4 -2.0
v -39.4 -10.0 4.0
v -39.0 -10.0 3.5
v -39.0 -10.3 4.0
v -39.0 -10.4 5.0
v -39.6 -10.0 5.0
v -39.0 -10.5 6.0
v -39.0 -10.5 7.0
v -39.0 -10.6 8.0
v -39.0 -10.5 9.0
v -39.0 -10.2 10.0
v -39.0 -10.0 10.2
v -39.2 -9.0 0.0
v -39.0 -9.0 -0.3
v -39.0 -9.2 0.0
v -39.0 -9.4 1.0
v -39.6 -9.0 1.0
v -39.0 -9.5 2.0
v -39.0 -9.7 3.0
v -39.0 -9.8 10.0
v -39.0 -9.0 9.4
v -39.0 -8.0 -2.5
v -39.0 -8.4 -2.0
v -39.0 -8.7 -1.0
v -39.0 -8.6 9.0
v -39.0 -8.0 8.5
v -39.0 -7.0 -3.5
v -39.0 -7.5 -3.0
v -39.0 -7.5 8.0
v -39.0 -7.0 7.4
v -39.3 -6.0 -4.0
v -39.0 -6.0 -4.3
v -39.0 -6.3 -4.0
v -39.5 -6.0 7.0
v -39.0 -6.5 7.0
v -39.0 -6.0 6.7
v -39.7 -5.0 -4.0
v -39.0 -5.0 -4.5
v -39.0 -5.0 6.4
v -39.3 -4.0 -6.0
v -39.0 -4.0 -6.2
v -39.0 -4.2 -6.0
v -39.0 -4.6 -5.0
v -39.5 -4.0 5.0
v -39.0 -4.0 5.4
v -39.0 -4.5 6.0
v -39.7 -3.0 -6.0
v -39.0 -3.0 -6.6
v -39.5 -3.0 4.0
v -39.0 -3.0 4.4
v -39.0 -3.6 5.0
v -39.4 -2.0 -7.0
v -39.0 -2.0 -7.4
v -39.0 -2.5 -7.0
v -39.0 -2.6 4.0
v -39.0 -2.0 3.4
v -39.7 -1.0 -7.0
v -39.0 -1.0 -7.6
v -39.5 -1.0 1.0
v -39.0 -1.0 1.4
v -39.0 -1.4 2.0
v -39.0 -1.6 3.0
v -39.5 0.0 -8.0
v -39.0 0.0 -8.5
v -39.0 -0.5 -8.0
v -39.8 0.0 0.0
v -39.0 -0.3 0.0
v -39.0 0.0 -0.4
v -39.0 -0.7 1.0
v -39.1 1.0 -9.0
v -39.0 1.0 -9.1
v -39.0 0.8 -9.0
v -39.8 1.0 -6.0
v -39.0 0.5 -1.0
v -39.0 1.0 -1.6
v -39.0 1.1 -9.0
v -39.0 1.5 -8.0
v -39.0 1.5 -7.0
v -39.0 1.4 -6.0
v -39.0 1.5 -5.0
v -39.0 1.5 -4.0
v -39.0 1.5 -3.0
v -39.0 1.3 -2.0
v -38.2 -11.0 8.0
v -38.0 -11.0 7.8
v -38.0 -11.1 8.0
v -38.0 -11.0 8.3
v -38.5 -10.0 3.0
v -38.0 -10.0 2.6
v -38.0 -10.3 3.0
v -38.0 -10.5 4.0
v -38.0 -10.5 5.0
v -38.0 -10.5 6.0
v -38.0 -10.6 7.0
v -38.0 -10.6 9.0
v -38.0 -10.0 10.0
v -38.0 -10.0 10.0
v -38.0 -9.0 -0.7
v -38.0 -9.0 0.0
v -38.0 -9.5 1.0
v -38.0 -9.6 2.0
v -38.5 -9.0 9.0
v -38.0 -9.4 9.0
v -38.0 -9.0 8.7
v -38.0 -10.0 10.0
v -38.0 -8.0 -2.5
v -38.0 -8.5 -2.0
v -38.0 -9.0 -1.0
v -38.0 -8.0 8.2
v -38.0 -7.0 -3.5
v -38.0 -7.5 -3.0
v -38.4 -7.0 7.0
v -38.0 -7.3 7.0
v -38.0 -7.0 6.7
v -38.0 -7.8 8.0
v -38.0 -6.0 -4.4
v -38.0 -6.5 -4.0
v -38.0 -6.0 6.5
v -38.0 -5.0 -4.7
v -38.0 -5.0 6.4
v -38.0 -4.0 -6.4
v -38.0 -4.4 -6.0
v -38.0 -4.7 -5.0
v -38.0 -4.4 6.0
v -38.0 -4.0 5.6
v -38.5 -3.0 -7.0
v -38.0 -3.0 -7.4
v -38.0 -3.4 -7.0
v -38.0 -3.4 5.0
v -38.0 -3.0 4.6
v -38.3 -2.0 -8.0
v -38.0 -2.0 -8.3
v -38.0 -2.3 -8.0
v -38.0 -2.5 4.0
v -38.0 -2.0 3.5
v -38.6 -1.0 -8.0
v -38.0 -1.0 -8.6
v -38.0 -1.4 2.0
v -38.0 -1.0 1.5
v -38.0 -1.6 3.0
v -38.4 0.0 -9.0
v -38.0 0.0 -9.3
v -38.0 -0.5 -9.0
v -38.0 -0.4 0.0
v -38.0 0.0 -0.6
v -38.0 -0.6 1.0
v -38.0 1.0 -9.4
v -38.5 1.0 -2.0
v -38.0 0.7 -2.0
v -38.0 1.0 -2.5
v -38.0 0.3 -1.0
v -38.1 2.0 -9.0
v -38.0 2.0 -9.1
v -38.0 2.0 -8.9
v -38.0 1.7 -8.0
v -38.0 1.5 -7.0
v -38.0 1.5 -6.0
v -38.0 1.5 -5.0
v -38.0 1.5 -4.0
v -38.0 1.3 -3.0
v -38.0 2.1 -9.0
v -37.0 -11.0 7.4
v -37.0 -11.4 8.0
v -37.0 -11.3 9.0
v -37.4 -11.0 9.0
v -37.0 -11.0 9.6
v -37.0 -10.0 2.2
v -37.0 -10.5 3.0
v -37.0 -10.6 4.0
v -37.0 -10.6 5.0
v -37.0 -10.6 6.0
v -37.0 -10.8 7.0
v -37.0 -10.0 9.3
v -38.0 -10.0 10.0
v -37.0 -9.0 -0.5
v -37.0 -9.4 0.0
v -37.0 -9.9 1.0
v -37.0 -9.8 2.0
v -37.3 -9.0 8.0
v -37.0 -9.4 8.0
v -37.0 -9.0 7.7
v -37.0 -9.8 9.0
v -37.0 -8.0 -2.5
v -37.0 -8.4 -2.0
v -37.0 -8.7 -1.0
v -37.1 -8.0 7.0
v -37.0 -8.1 7.0
v -37.0 -8.0 6.9
v -37.8 -8.0 8.0
v -37.0 -7.0 -3.5
v -37.0 -7.5 -3.0
v -37.0 -7.0 6.5
v -37.0 -6.0 -4.4
v -37.0 -6.5 -4.0
v -37.0 -6.0 6.5
v -37.0 -5.0 -4.8
v -37.0 -5.0 6.5
v -37.0 -4.0 -6.5
v -37.0 -4.5 -6.0
v -37.0 -4.8 -5.0
v -37.5 -4.0 6.0
v -37.0 -4.0 6.3
v -37.0 -3.0 -7.5
v -37.0 -3.5 -7.0
v -37.5 -3.0 5.0
v -37.0 -3.0 5.3
v -37.0 -3.7 6.0
v -37.0 -2.0 -8.5
v -37.0 -2.5 -8.0
v -37.0 -2.4 4.0
v -37.0 -2.0 3.5
v -37.0 -2.7 5.0
v -37.4 -1.0 -9.0
v -37.0 -1.0 -9.3
v -37.0 -1.4 -9.0
v -37.0 -1.4 2.0
v -37.0 -1.0 1.3
v -37.0 -1.6 3.0
v -37.0 0.0 -9.6
v -37.3 0.0 -1.0
v -37.0 -0.2 -1.0
v -37.0 0.0 -1.2
v -37.0 -0.6 0.0
v -37.0 -0.7 1.0
v -37.0 1.0 -9.5
v -37.5 1.0 -3.0
v -37.0 0.7 -3.0
v -37.0 1.0 -3.5
v -37.0 0.4 -2.0
v -37.0 2.0 -9.3
v -37.5 2.0 -8.0
v -37.0 2.0 -7.5
v -37.0 1.7 -7.0
v -37.0 1.5 -6.0
v -37.0 1.4 -5.0
v -37.0 1.3 -4.0
v -37.0 2.3 -9.0
v -37.0 2.3 -8.0
v -36.1 -12.0 7.0
v -36.0 -12.0 6.9
v -36.0 -12.1 7.0
v -36.0 -12.3 8.0
v -36.3 -12.0 8.0
v -36.0 -12.0 8.7
v -36.0 -11.0 3.0
v -36.0 -11.0 3.0
v -36.0 -11.0 3.0
v -36.0 -11.2 4.0
v -36.4 -11.0 4.0
v -36.0 -11.4 5.0
v -36.5 -11.0 5.0
v -36.0 -11.5 6.0
v -36.5 -11.0 6.0
v -36.7 -11.0 7.0
v -36.0 -11.0 8.4
v -36.6 -11.0 9.0
v -36.4 -10.0 2.0
v -36.0 -10.0 1.9
v -36.0 -10.1 2.0
v -36.0 -10.0 7.7
v -36.4 -10.0 8.0
v -36.0 -10.5 8.0
v -36.8 -10.0 9.0
v -36.0 -9.0 -0.4
v -36.0 -9.3 0.0
v -36.1 -9.0 1.0
v -36.0 -9.0 0.8
v -36.0 -9.0 1.2
v -36.0 -9.0 7.5
v -36.0 -8.0 -2.5
v -36.0 -8.4 -2.0
v -36.0 -8.6 -1.0
v -36.0 -8.9 1.0
v -36.8 -8.0 7.0
v -36.0 -8.0 7.3
v -36.0 -7.0 -3.5
v -36.0 -7.5 -3.0
v -36.0 -7.5 7.0
v -36.0 -7.0 6.7
v -36.0 -6.0 -4.5
v -36.0 -6.5 -4.0
v -36.0 -6.0 6.6
v -36.6 -5.0 -5.0
v -36.0 -5.0 -5.9
v -36.0 -5.4 -5.0
v -36.0 -5.0 6.6
v -36.0 -4.0 -6.4
v -36.0 -4.9 -6.0
v -36.0 -4.0 6.4
v -36.0 -3.0 -7.3
v -36.0 -3.3 -7.0
v -36.0 -3.6 6.0
v -36.0 -3.0 5.3
v -36.0 -2.0 -8.3
v -36.0 -2.3 -8.0
v -36.0 -2.5 4.0
v -36.0 -2.0 3.3
v -36.0 -2.8 5.0
v -36.0 -1.0 -9.3
v -36.0 -1.3 -9.0
v -36.4 -1.0 0.0
v -36.0 -1.3 0.0
v -36.0 -1.0 -0.4
v -36.7 -1.0 1.0
v -36.0 -1.5 1.0
v -36.0 -1.6 2.0
v -36.0 -1.8 3.0
v -36.0 0.0 -9.8
v -36.1 0.0 -1.0
v -36.0 0.0 -1.0
v -36.0 1.0 -9.4
v -36.2 1.0 -5.0
v -36.0 0.9 -5.0
v -36.0 1.0 -5.3
v -36.5 1.0 -4.0
v -36.0 0.7 -4.0
v -36.0 0.5 -3.0
v -36.0 0.4 -2.0
v -36.0 0.0 -1.0
v -36.0 2.0 -9.2
v -36.1 2.0 -7.0
v -36.0 2.0 -6.9
v -36.0 1.4 -6.0
v -36.0 2.2 -9.0
v -36.0 2.3 -8.0
v -36.0 2.1 -7.0
v -35.9 -12.0 7.0
v -35.3 -12.0 8.0
v -36.0 -11.0 3.0
v -35.6 -11.0 4.0
v -35.0 -11.0 4.6
v -35.0 -11.2 5.0
v -35.0 -11.4 6.0
v -35.0 -11.4 7.0
v -35.0 -11.0 7.4
v -35.6 -11.0 8.0
v -35.9 -10.0 2.0
v -35.5 -10.0 3.0
v -35.0 -10.0 3.6
v -35.0 -10.4 4.0
v -35.0 -10.0 7.4
v -35.0 -9.0 -0.3
v -35.0 -9.2 0.0
v -35.0 -9.0 0.2
v -35.6 -9.0 2.0
v -35.3 -9.0 3.0
v -35.0 -9.0 3.4
v -35.0 -9.0 7.5
v -35.0 -8.0 -2.3
v -35.0 -8.2 -2.0
v -35.0 -8.6 -1.0
v -35.3 -8.0 1.0
v -35.0 -8.0 0.7
v -35.3 -8.0 2.0
v -35.0 -8.0 2.5
v -35.0 -8.5 3.0
v -35.0 -8.0 7.5
v -35.0 -7.0 -3.3
v -35.0 -7.3 -3.0
v -35.0 -7.7 1.0
v -35.0 -7.6 2.0
v -35.6 -7.0 7.0
v -35.0 -7.0 7.3
v -35.0 -6.0 -4.3
v -35.0 -6.3 -4.0
v -35.3 -6.0 7.0
v -35.0 -6.0 7.2
v -35.6 -5.0 -5.0
v -35.0 -5.0 -4.5
v -35.0 -5.0 7.0
v -35.0 -5.0 7.0
v -35.6 -4.0 -6.0
v -35.4 -4.0 -5.0
v -35.0 -4.0 -4.6
v -35.0 -5.0 7.0
v -35.0 -4.0 6.2
v -35.8 -3.0 -7.0
v -35.5 -3.0 -6.0
v -35.2 -3.0 -5.0
v -35.0 -3.0 -4.8
v -35.3 -3.0 2.0
v -35.0 -3.4 2.0
v -35.0 -3.0 1.5
v -35.4 -3.0 3.0
v -35.0 -3.5 3.0
v -35.5 -3.0 4.0
v -35.0 -3.5 4.0
v -35.7 -3.0 5.0
v -35.0 -3.6 5.0
v -35.0 -3.8 6.0
v -35.7 -2.0 -8.0
v -35.4 -2.0 -7.0
v -35.3 -2.0 -6.0
v -35.0 -2.0 -5.6
v -35.0 -2.6 -5.0
v -35.4 -2.0 0.0
v -35.0 -2.4 0.0
v -35.0 -2.0 -0.5
v -35.5 -2.0 1.0
v -35.0 -2.6 1.0
v -35.6 -2.0 2.0
v -35.8 -2.0 3.0
v -35.7 -1.0 -9.0
v -35.3 -1.0 -8.0
v -35.0 -1.0 -7.4
v -35.0 -1.3 -7.0
v -35.0 -1.5 -6.0
v -35.2 -1.0 -2.0
v -35.0 -1.3 -2.0
v -35.0 -1.0 -2.2
v -35.5 -1.0 -1.0
v -35.0 -1.6 -1.0
v -35.5 0.0 -9.0
v -35.0 0.0 -8.2
v -35.0 -0.2 -8.0
v -35.1 0.0 -6.0
v -35.0 -0.3 -6.0
v -35.0 0.0 -6.3
v -35.0 0.0 -5.8
v -35.6 0.0 -2.0
v -35.0 0.0 -2.5
v -36.0 0.0 -1.0
v -35.6 1.0 -9.0
v -35.0 0.2 -8.0
v -35.4 1.0 -8.0
v -35.4 1.0 -7.0
v -35.0 0.3 -7.0
v -35.6 1.0 -6.0
v -35.3 1.0 -5.0
v -35.0 1.0 -5.1
v -35.4 1.0 -4.0
v -35.0 1.0 -3.7
v -35.0 0.5 -3.0
v -35.8 2.0 -9.0
v -35.7 2.0 -8.0
v -35.9 2.0 -7.0
v -35.0 1.1 -5.0
v -35.0 1.2 -4.0
v -34.8 -11.0 5.0
v -34.7 -11.0 6.0
v -34.7 -11.0 7.0
v -34.7 -10.0 4.0
v -34.5 -10.0 5.0
v -34.4 -10.0 6.0
v -34.6 -10.0 7.0
v -34.2 -9.0 0.0
v -34.6 -9.0 4.0
v -34.4 -9.0 5.0
v -34.0 -9.0 5.8
v -34.0 -9.2 6.0
v -34.0 -9.2 7.0
v -34.0 -9.0 7.2
v -34.7 -8.0 -2.0
v -34.0 -8.0 -1.3
v -34.0 -8.3 -1.0
v -34.0 -8.8 0.0
v -34.0 -8.0 0.2
v -34.7 -8.0 3.0
v -34.5 -8.0 4.0
v -34.5 -8.0 5.0
v -34.0 -8.7 6.0
v -34.3 -8.0 6.0
v -34.0 -8.0 6.6
v -34.0 -8.0 7.2
v -34.7 -7.0 -3.0
v -34.4 -7.0 -2.0
v -34.0 -7.0 -1.4
v -34.3 -7.0 0.0
v -34.0 -7.6 0.0
v -34.0 -7.0 -0.5
v -34.6 -7.0 1.0
v -34.6 -7.0 2.0
v -34.5 -7.0 3.0
v -34.5 -7.0 4.0
v -34.5 -7.0 5.0
v -34.4 -7.0 6.0
v -34.0 -7.0 7.0
v -34.0 -7.0 7.0
v -34.7 -6.0 -4.0
v -34.0 -6.0 -3.1
v -34.0 -6.1 -3.0
v -34.0 -6.0 -2.8
v -34.3 -6.0 -2.0
v -34.0 -6.0 -1.5
v -34.4 -6.0 0.0
v -34.0 -6.0 -0.7
v -34.5 -6.0 1.0
v -34.5 -6.0 2.0
v -34.5 -6.0 3.0
v -34.5 -6.0 4.0
v -34.5 -6.0 5.0
v -34.5 -6.0 6.0
v -34.0 -7.0 7.0
v -34.7 -6.0 7.0
v -34.4 -5.0 -4.0
v -34.0 -5.0 -3.4
v -34.2 -5.0 -2.0
v -34.0 -5.0 -2.5
v -34.0 -5.0 -1.5
v -34.4 -5.0 0.0
v -34.0 -5.0 -0.7
v -34.5 -5.0 1.0
v -34.5 -5.0 2.0
v -34.5 -5.0 3.0
v -34.5 -5.0 4.0
v -34.5 -5.0 5.0
v -34.5 -5.0 6.0
v -35.0 -5.0 7.0
v -34.0 -4.0 -4.2
v -34.0 -4.4 -4.0
v -34.2 -4.0 -2.0
v -34.0 -4.0 -2.4
v -34.0 -4.0 -1.5
v -34.4 -4.0 0.0
v -34.0 -4.0 -0.7
v -34.5 -4.0 1.0
v -34.6 -4.0 2.0
v -34.6 -4.0 3.0
v -34.6 -4.0 4.0
v -34.6 -4.0 5.0
v -34.8 -4.0 6.0
v -34.0 -3.0 -4.4
v -34.3 -3.0 -2.0
v -34.0 -3.0 -2.4
v -34.0 -3.0 -1.2
v -34.5 -3.0 0.0
v -34.0 -3.0 -0.9
v -34.7 -3.0 1.0
v -34.6 -2.0 -5.0
v -34.0 -2.0 -4.5
v -34.5 -2.0 -2.0
v -34.0 -2.0 -2.5
v -34.0 -2.9 -1.0
v -34.7 -2.0 -1.0
v -34.8 -1.0 -7.0
v -34.7 -1.0 -6.0
v -34.4 -1.0 -5.0
v -34.0 -1.0 -4.6
v -34.0 -1.0 -2.6
v -34.9 0.0 -8.0
v -34.8 0.0 -7.0
v -34.5 0.0 -5.0
v -34.0 0.0 -4.6
v -34.0 0.0 -2.8
v -34.9 1.0 -5.0
v -34.0 1.0 -4.1
v -34.0 0.3 -3.0
v -34.0 1.0 -3.9
v -34.0 1.1 -4.0
v -33.9 -9.0 6.0
v -33.8 -9.0 7.0
v -33.8 -8.0 -1.0
v -33.8 -8.0 0.0
v -33.8 -8.0 7.0
v -33.8 -7.0 -1.0
v -34.0 -7.0 7.0
v -33.9 -6.0 -3.0
v -33.8 -6.0 -1.0
v -33.8 -5.0 -3.0
v -33.8 -5.0 -1.0
v -33.8 -4.0 -4.0
v -33.6 -4.0 -3.0
v -33.8 -4.0 -1.0
v -33.6 -3.0 -4.0
v -33.6 -3.0 -3.0
v -33.9 -3.0 -1.0
v -33.6 -2.0 -4.0
v -33.6 -2.0 -3.0
v -33.0 -1.0 -4.0
v -33.0 -1.0 -4.0
v -33.0 -1.0 -4.0
v -33.6 -1.0 -3.0
v -33.0 0.0 -4.0
v -33.7 0.0 -3.0
v -33.0 0.0 -4.0
v -33.0 0.0 -4.0
v -33.9 1.0 -4.0
v -33.0 -1.0 -4.0
v -33.0 0.0 -4.0
f 3 2 1
f 1 4 3
f 2 5 1
f 1 5 4
f 8 7 6
f 10 9 6
f 6 9 8
f 12 11 10
f 10 11 9
f 12 13 11
f 6 7 14
f 14 7 15
f 6 16 10
f 6 14 16
f 10 17 12
f 10 16 17
f 13 12 18
f 18 12 17
f 21 20 19
f 21 19 15
f 19 14 15
f 19 22 14
f 24 16 23
f 16 22 23
f 16 14 22
f 16 24 17
f 17 24 25
f 17 25 18
f 28 27 26
f 30 29 26
f 26 29 28
f 31 19 20
f 30 32 29
f 19 31 22
f 22 31 33
f 22 33 23
f 27 34 26
f 26 34 30
f 30 34 35
f 30 35 32
f 38 37 36
f 40 39 36
f 36 39 38
f 40 41 39
f 44 43 42
f 44 42 37
f 37 42 36
f 42 2 36
f 2 3 36
f 36 3 4
f 45 36 4
f 40 36 45
f 41 40 46
f 46 40 45
f 49 48 47
f 51 50 47
f 47 50 49
f 51 52 50
f 55 54 53
f 57 56 53
f 53 56 55
f 59 58 57
f 58 42 57
f 43 56 57
f 43 57 42
f 58 61 60
f 58 60 5
f 42 58 5
f 2 42 5
f 60 62 5
f 5 62 4
f 62 63 4
f 63 45 4
f 45 63 46
f 48 64 47
f 65 7 8
f 47 65 8
f 51 47 8
f 64 65 47
f 66 52 51
f 8 66 51
f 9 66 8
f 67 9 11
f 67 66 9
f 68 53 13
f 53 67 13
f 67 11 13
f 53 54 67
f 53 69 57
f 53 68 69
f 59 57 70
f 70 57 69
f 61 71 60
f 60 71 62
f 65 15 7
f 72 15 65
f 74 73 68
f 13 74 68
f 18 74 13
f 68 73 69
f 69 73 75
f 69 75 70
f 78 77 76
f 80 79 76
f 76 79 78
f 82 81 80
f 80 81 79
f 20 21 82
f 21 81 82
f 21 83 81
f 21 15 72
f 21 72 83
f 23 84 24
f 24 84 85
f 86 24 85
f 25 24 86
f 18 25 74
f 74 25 86
f 76 77 87
f 87 77 88
f 87 27 28
f 80 87 28
f 76 87 80
f 80 28 29
f 80 29 82
f 89 29 32
f 89 82 29
f 89 31 20
f 82 89 20
f 31 89 90
f 91 31 90
f 33 31 91
f 23 33 84
f 33 92 84
f 33 91 92
f 84 92 85
f 88 93 87
f 87 93 27
f 93 34 27
f 93 94 34
f 34 95 35
f 94 95 34
f 32 35 89
f 35 96 89
f 35 95 96
f 89 96 90
f 99 98 97
f 97 100 99
f 102 101 38
f 38 101 37
f 103 38 39
f 103 102 38
f 105 104 41
f 104 39 41
f 104 103 39
f 105 106 104
f 109 108 107
f 111 110 107
f 107 110 109
f 113 112 111
f 111 112 110
f 112 113 98
f 113 97 98
f 113 114 97
f 44 115 43
f 115 97 43
f 97 114 43
f 97 115 100
f 44 37 101
f 44 101 115
f 46 116 105
f 46 105 41
f 106 105 117
f 117 105 116
f 120 119 118
f 48 49 118
f 49 120 118
f 49 121 120
f 122 49 50
f 122 121 49
f 123 107 52
f 107 122 52
f 122 50 52
f 107 108 122
f 107 124 111
f 107 123 124
f 124 54 55
f 113 124 55
f 111 124 113
f 113 55 56
f 113 56 114
f 43 114 56
f 58 59 125
f 125 61 58
f 127 126 63
f 127 63 62
f 46 63 116
f 63 128 116
f 63 126 128
f 116 128 117
f 131 130 129
f 131 129 119
f 129 118 119
f 129 132 118
f 133 64 48
f 118 133 48
f 132 133 118
f 133 65 64
f 66 123 52
f 123 66 67
f 123 67 124
f 124 67 54
f 70 134 125
f 70 125 59
f 125 134 61
f 134 135 61
f 135 71 61
f 134 136 135
f 62 71 127
f 127 71 135
f 139 138 137
f 141 140 137
f 137 140 139
f 140 141 130
f 141 129 130
f 141 142 129
f 129 143 132
f 129 142 143
f 132 144 133
f 132 143 144
f 144 72 65
f 144 65 133
f 74 145 73
f 73 145 146
f 147 73 146
f 75 73 147
f 70 75 134
f 75 148 134
f 75 147 148
f 134 148 136
f 151 150 149
f 151 149 138
f 149 137 138
f 149 152 137
f 152 77 78
f 141 152 78
f 137 152 141
f 141 78 79
f 141 79 142
f 142 79 81
f 142 81 143
f 143 81 83
f 143 83 144
f 144 83 72
f 154 153 86
f 154 86 85
f 74 86 145
f 86 155 145
f 86 153 155
f 145 155 146
f 158 157 156
f 159 149 150
f 156 160 158
f 149 159 152
f 152 159 161
f 77 152 161
f 162 77 161
f 88 77 162
f 90 163 91
f 91 163 164
f 165 91 164
f 92 91 165
f 85 92 154
f 154 92 165
f 168 167 166
f 168 166 157
f 166 156 157
f 166 169 156
f 160 156 170
f 156 171 170
f 156 169 171
f 173 172 171
f 171 172 170
f 173 174 93
f 162 173 93
f 88 162 93
f 173 162 172
f 175 94 93
f 175 93 174
f 176 95 94
f 176 94 175
f 95 176 177
f 178 95 177
f 96 95 178
f 90 96 163
f 96 179 163
f 96 178 179
f 163 179 164
f 167 180 166
f 166 180 169
f 169 180 181
f 169 181 171
f 171 181 182
f 171 182 173
f 173 182 183
f 173 183 174
f 174 183 184
f 174 184 175
f 175 184 185
f 175 185 176
f 176 185 186
f 176 186 177
f 189 188 187
f 191 190 187
f 187 190 189
f 193 192 191
f 191 192 190
f 193 194 192
f 197 196 195
f 199 198 195
f 195 198 197
f 201 200 199
f 199 200 198
f 200 201 188
f 201 187 188
f 201 202 187
f 187 203 191
f 187 202 203
f 205 193 204
f 193 203 204
f 193 191 203
f 193 205 194
f 208 207 206
f 210 209 206
f 206 209 208
f 209 210 196
f 210 195 196
f 210 211 195
f 211 98 99
f 199 211 99
f 195 211 199
f 199 99 100
f 212 199 100
f 201 199 212
f 212 101 102
f 202 212 102
f 201 212 202
f 202 102 103
f 202 103 203
f 213 204 203
f 103 213 203
f 104 213 103
f 104 106 213
f 213 106 214
f 217 216 215
f 219 218 215
f 215 218 217
f 218 219 207
f 207 219 206
f 219 108 206
f 108 109 206
f 206 109 110
f 206 110 210
f 210 110 112
f 210 112 211
f 211 112 98
f 115 212 100
f 212 115 101
f 222 221 220
f 221 214 220
f 214 117 220
f 214 106 117
f 224 223 120
f 120 223 119
f 121 215 216
f 224 121 216
f 120 121 224
f 215 121 122
f 215 122 219
f 219 122 108
f 226 225 126
f 226 126 127
f 220 128 222
f 128 225 222
f 128 126 225
f 128 220 117
f 228 227 131
f 131 227 130
f 131 119 223
f 131 223 228
f 231 230 229
f 233 232 229
f 233 229 230
f 135 136 232
f 233 135 232
f 234 135 233
f 127 135 226
f 226 135 234
f 236 235 139
f 139 235 138
f 237 139 140
f 237 236 139
f 140 130 227
f 140 227 237
f 240 239 238
f 238 239 231
f 238 231 229
f 146 238 229
f 147 146 229
f 147 229 148
f 148 229 232
f 148 232 136
f 242 241 151
f 151 241 150
f 151 138 235
f 151 235 242
f 244 243 153
f 244 153 154
f 238 155 240
f 155 243 240
f 155 153 243
f 155 238 146
f 246 245 158
f 158 245 157
f 241 159 150
f 159 241 247
f 246 247 241
f 247 246 160
f 158 160 246
f 248 161 159
f 248 159 247
f 248 162 161
f 251 250 249
f 165 164 249
f 250 165 249
f 252 165 250
f 154 165 244
f 244 165 252
f 254 253 168
f 168 253 167
f 168 157 245
f 168 245 254
f 170 247 160
f 247 170 172
f 247 172 248
f 248 172 162
f 256 255 178
f 256 178 177
f 249 179 251
f 179 255 251
f 179 178 255
f 179 249 164
f 253 257 167
f 167 257 180
f 180 258 181
f 257 258 180
f 181 259 182
f 258 259 181
f 182 260 183
f 259 260 182
f 183 261 184
f 260 261 183
f 184 262 185
f 261 262 184
f 185 263 186
f 262 263 185
f 177 186 256
f 256 186 263
f 266 265 264
f 268 267 264
f 264 267 266
f 270 269 268
f 268 269 267
f 270 271 269
f 274 273 272
f 274 272 265
f 265 272 264
f 272 188 264
f 188 189 264
f 264 189 190
f 264 190 268
f 268 190 192
f 268 192 270
f 276 275 194
f 194 275 192
f 275 271 192
f 271 270 192
f 276 277 275
f 280 279 278
f 282 281 278
f 278 281 280
f 196 197 282
f 197 281 282
f 197 283 281
f 284 197 198
f 284 283 197
f 200 272 273
f 284 200 273
f 198 200 284
f 272 200 188
f 286 285 205
f 286 205 204
f 194 205 276
f 205 287 276
f 205 285 287
f 276 287 277
f 290 289 288
f 288 291 290
f 294 293 292
f 294 292 279
f 279 292 278
f 292 207 278
f 207 208 278
f 278 208 209
f 278 209 282
f 282 209 196
f 204 213 295
f 296 204 295
f 286 204 296
f 214 295 213
f 288 289 297
f 297 289 298
f 217 299 216
f 299 288 216
f 288 297 216
f 288 299 291
f 218 292 293
f 299 218 293
f 217 218 299
f 292 218 207
f 296 295 221
f 222 296 221
f 300 296 222
f 221 295 214
f 303 302 301
f 303 301 298
f 298 301 297
f 301 223 297
f 223 224 297
f 297 224 216
f 305 304 225
f 305 225 226
f 222 225 300
f 300 225 304
f 308 307 306
f 310 309 306
f 306 309 308
f 309 310 302
f 302 310 301
f 310 227 301
f 227 228 301
f 301 228 223
f 312 311 230
f 312 230 231
f 230 313 233
f 311 313 230
f 233 314 234
f 313 314 233
f 226 234 305
f 305 234 314
f 317 316 315
f 317 315 307
f 307 315 306
f 315 235 306
f 235 236 306
f 306 236 237
f 306 237 310
f 310 237 227
f 319 318 239
f 319 239 240
f 231 239 312
f 312 239 318
f 315 316 242
f 316 241 242
f 316 320 241
f 315 242 235
f 322 321 243
f 322 243 244
f 240 243 319
f 319 243 321
f 324 323 246
f 246 323 245
f 246 241 320
f 246 320 324
f 326 325 250
f 326 250 251
f 250 327 252
f 325 327 250
f 244 252 322
f 322 252 327
f 329 328 254
f 254 328 253
f 254 245 323
f 254 323 329
f 331 330 255
f 331 255 256
f 251 255 326
f 326 255 330
f 334 333 332
f 332 335 257
f 328 332 257
f 253 328 257
f 332 328 334
f 257 335 336
f 337 257 336
f 258 257 337
f 258 338 259
f 337 338 258
f 259 339 260
f 338 339 259
f 260 340 261
f 339 340 260
f 340 342 341
f 262 340 341
f 261 340 262
f 262 341 343
f 344 262 343
f 263 262 344
f 256 263 331
f 331 263 344
f 333 345 332
f 332 345 335
f 335 345 346
f 335 346 336
f 342 347 341
f 341 347 343
f 350 349 348
f 265 266 348
f 266 350 348
f 266 351 350
f 352 266 267
f 352 351 266
f 353 267 269
f 353 352 267
f 355 354 271
f 354 269 271
f 354 353 269
f 355 356 354
f 359 358 357
f 361 360 357
f 357 360 359
f 363 362 361
f 361 362 360
f 365 364 363
f 363 364 362
f 364 365 349
f 349 365 348
f 365 273 348
f 273 274 348
f 348 274 265
f 367 275 366
f 367 271 275
f 355 271 367
f 355 367 368
f 368 356 355
f 277 366 275
f 371 370 369
f 373 372 369
f 369 372 371
f 375 374 373
f 373 374 372
f 377 376 375
f 375 376 374
f 376 377 358
f 358 377 357
f 377 279 357
f 279 280 357
f 357 280 281
f 357 281 361
f 361 281 283
f 361 283 363
f 363 283 284
f 363 284 365
f 365 284 273
f 379 378 285
f 379 285 286
f 366 287 367
f 287 378 367
f 287 285 378
f 287 366 277
f 382 381 380
f 382 380 370
f 380 369 370
f 380 383 369
f 383 289 290
f 373 383 290
f 369 383 373
f 373 290 291
f 384 373 291
f 375 373 384
f 384 293 294
f 377 384 294
f 375 384 377
f 377 294 279
f 387 386 385
f 386 379 385
f 379 296 385
f 379 286 296
f 380 381 388
f 388 381 389
f 380 390 383
f 380 388 390
f 390 298 289
f 390 289 383
f 299 384 291
f 384 299 293
f 387 385 391
f 387 391 392
f 300 391 296
f 296 391 385
f 388 389 393
f 393 389 394
f 393 302 303
f 390 393 303
f 388 393 390
f 390 303 298
f 397 396 395
f 395 396 392
f 395 392 391
f 305 395 391
f 304 305 391
f 304 391 300
f 400 399 398
f 307 308 398
f 308 400 398
f 308 401 400
f 309 393 394
f 401 309 394
f 308 309 401
f 393 309 302
f 403 402 311
f 403 311 312
f 311 404 313
f 402 404 311
f 395 314 397
f 314 404 397
f 314 313 404
f 314 395 305
f 398 399 317
f 399 316 317
f 399 405 316
f 398 317 307
f 407 406 318
f 407 318 319
f 312 318 403
f 403 318 406
f 410 409 408
f 405 410 408
f 320 405 408
f 316 405 320
f 322 411 321
f 411 412 321
f 412 319 321
f 412 407 319
f 408 409 324
f 409 323 324
f 409 413 323
f 408 324 320
f 415 414 325
f 415 325 326
f 325 416 327
f 414 416 325
f 322 327 411
f 327 417 411
f 327 416 417
f 411 417 412
f 419 418 329
f 329 418 328
f 329 323 413
f 329 413 419
f 331 420 330
f 420 421 330
f 421 326 330
f 421 415 326
f 423 422 334
f 334 422 333
f 334 328 418
f 334 418 423
f 425 424 337
f 425 337 336
f 424 427 426
f 338 424 426
f 337 424 338
f 428 339 338
f 428 338 426
f 429 340 339
f 429 339 428
f 429 342 340
f 431 430 344
f 431 344 343
f 331 344 420
f 344 432 420
f 344 430 432
f 420 432 421
f 422 433 333
f 333 433 345
f 345 434 346
f 433 434 345
f 336 346 425
f 425 346 434
f 427 435 426
f 426 435 428
f 428 435 436
f 428 436 429
f 429 436 437
f 429 437 342
f 437 347 342
f 437 438 347
f 343 347 431
f 431 347 438
f 441 440 439
f 443 442 439
f 439 442 441
f 349 350 443
f 350 442 443
f 350 444 442
f 445 350 351
f 445 444 350
f 446 351 352
f 446 445 351
f 447 352 353
f 447 446 352
f 448 353 354
f 448 447 353
f 354 356 448
f 448 356 449
f 452 451 450
f 454 453 450
f 450 453 452
f 358 359 454
f 359 453 454
f 359 455 453
f 456 359 360
f 456 455 359
f 362 439 440
f 456 362 440
f 360 362 456
f 439 362 364
f 439 364 443
f 443 364 349
f 458 457 368
f 458 368 367
f 356 368 449
f 449 368 457
f 460 459 371
f 371 459 370
f 461 371 372
f 461 460 371
f 374 450 451
f 461 374 451
f 372 374 461
f 450 374 376
f 450 376 454
f 454 376 358
f 463 462 378
f 463 378 379
f 367 378 458
f 458 378 462
f 465 464 382
f 382 464 381
f 382 370 459
f 382 459 465
f 467 466 386
f 467 386 387
f 379 386 463
f 463 386 466
f 470 469 468
f 464 470 468
f 389 464 468
f 381 464 389
f 473 472 471
f 472 467 471
f 467 392 471
f 467 387 392
f 468 469 474
f 474 469 475
f 474 394 389
f 474 389 468
f 473 471 396
f 397 473 396
f 476 473 397
f 396 471 392
f 479 478 477
f 399 400 477
f 400 479 477
f 400 480 479
f 401 474 475
f 480 401 475
f 400 401 480
f 474 401 394
f 403 481 402
f 402 481 482
f 483 402 482
f 404 402 483
f 397 404 476
f 476 404 483
f 477 478 484
f 484 478 485
f 484 405 399
f 484 399 477
f 407 486 406
f 486 487 406
f 406 487 403
f 487 488 403
f 488 481 403
f 481 488 482
f 491 490 489
f 491 489 485
f 485 489 484
f 489 409 484
f 409 410 484
f 484 410 405
f 493 492 486
f 407 493 486
f 412 493 407
f 486 492 487
f 489 490 494
f 494 490 495
f 494 413 409
f 494 409 489
f 415 496 414
f 414 496 497
f 498 414 497
f 416 414 498
f 416 499 417
f 498 499 416
f 412 417 493
f 493 417 499
f 502 501 500
f 502 500 495
f 495 500 494
f 500 418 494
f 418 419 494
f 494 419 413
f 505 504 503
f 504 506 496
f 421 504 496
f 415 421 496
f 503 504 421
f 496 506 497
f 509 508 507
f 509 507 501
f 501 507 500
f 507 422 500
f 422 423 500
f 500 423 418
f 425 510 424
f 510 427 424
f 512 511 430
f 512 430 431
f 503 432 505
f 432 511 505
f 432 430 511
f 432 503 421
f 508 513 507
f 507 513 422
f 513 433 422
f 513 514 433
f 433 515 434
f 514 515 433
f 425 434 510
f 434 516 510
f 434 515 516
f 510 516 427
f 516 435 427
f 516 517 435
f 435 518 436
f 517 518 435
f 436 519 437
f 518 519 436
f 437 520 438
f 519 520 437
f 431 438 512
f 512 438 520
f 523 522 521
f 521 524 523
f 527 526 525
f 440 441 525
f 441 527 525
f 441 528 527
f 529 441 442
f 529 528 441
f 530 442 444
f 530 529 442
f 531 444 445
f 531 530 444
f 446 521 522
f 531 446 522
f 445 446 531
f 532 524 521
f 446 532 521
f 447 532 446
f 533 447 448
f 533 532 447
f 448 449 533
f 533 449 534
f 536 535 452
f 452 535 451
f 537 452 453
f 537 536 452
f 538 453 455
f 538 537 453
f 456 525 526
f 538 456 526
f 455 456 538
f 525 456 440
f 541 540 539
f 457 458 539
f 540 457 539
f 542 457 540
f 449 457 534
f 534 457 542
f 544 543 460
f 460 543 459
f 545 460 461
f 545 544 460
f 461 451 535
f 461 535 545
f 541 539 462
f 463 541 462
f 546 541 463
f 462 539 458
f 548 547 465
f 465 547 464
f 465 459 543
f 465 543 548
f 551 550 549
f 466 467 549
f 550 466 549
f 552 466 550
f 463 466 546
f 546 466 552
f 554 553 470
f 470 553 469
f 470 464 547
f 470 547 554
f 551 549 472
f 473 551 472
f 555 551 473
f 472 549 467
f 553 475 469
f 556 475 553
f 476 555 473
f 476 557 555
f 559 558 479
f 479 558 478
f 560 479 480
f 560 559 479
f 480 475 556
f 480 556 560
f 562 561 483
f 562 483 482
f 476 483 557
f 557 483 561
f 565 564 563
f 558 565 563
f 485 558 563
f 478 558 485
f 567 566 488
f 567 488 487
f 482 488 562
f 562 488 566
f 570 569 568
f 570 568 564
f 564 568 563
f 568 490 563
f 490 491 563
f 563 491 485
f 572 571 492
f 572 492 493
f 487 492 567
f 567 492 571
f 568 569 573
f 573 569 574
f 573 495 490
f 573 490 568
f 576 575 498
f 576 498 497
f 498 577 499
f 575 577 498
f 493 499 572
f 572 499 577
f 580 579 578
f 580 578 574
f 574 578 573
f 578 501 573
f 501 502 573
f 573 502 495
f 582 581 504
f 582 504 505
f 504 583 506
f 581 583 504
f 497 506 576
f 576 506 583
f 578 579 509
f 579 508 509
f 579 584 508
f 578 509 501
f 587 586 585
f 511 512 585
f 586 511 585
f 588 511 586
f 505 511 582
f 582 511 588
f 513 508 589
f 508 590 589
f 508 584 590
f 513 589 591
f 592 513 591
f 514 513 592
f 514 593 515
f 592 593 514
f 515 594 516
f 593 594 515
f 516 595 517
f 594 595 516
f 517 596 518
f 595 596 517
f 518 597 519
f 596 597 518
f 585 520 587
f 520 597 587
f 520 519 597
f 520 585 512
f 590 598 589
f 589 598 591
f 600 599 523
f 523 599 522
f 602 601 524
f 601 523 524
f 601 600 523
f 602 603 601
f 605 604 527
f 527 604 526
f 606 527 528
f 606 605 527
f 607 528 529
f 607 606 528
f 608 529 530
f 608 607 529
f 609 530 531
f 609 608 530
f 531 522 599
f 531 599 609
f 532 602 524
f 532 533 602
f 533 610 602
f 610 603 602
f 533 611 610
f 534 611 533
f 613 612 536
f 536 612 535
f 614 536 537
f 614 613 536
f 615 537 538
f 615 614 537
f 538 526 604
f 538 604 615
f 618 617 616
f 540 541 616
f 617 540 616
f 619 540 617
f 611 542 610
f 542 619 610
f 542 540 619
f 542 611 534
f 621 620 544
f 544 620 543
f 622 544 545
f 622 621 544
f 545 535 612
f 545 612 622
f 625 624 623
f 623 624 618
f 616 623 618
f 626 623 616
f 546 626 541
f 541 626 616
f 628 627 548
f 548 627 547
f 548 543 620
f 548 620 628
f 625 623 550
f 551 625 550
f 629 625 551
f 550 623 552
f 552 623 626
f 552 626 546
f 631 630 554
f 554 630 553
f 554 547 627
f 554 627 631
f 555 629 551
f 555 632 629
f 630 556 553
f 633 556 630
f 557 632 555
f 557 634 632
f 636 635 559
f 559 635 558
f 637 559 560
f 637 636 559
f 560 556 633
f 560 633 637
f 562 638 561
f 638 639 561
f 639 557 561
f 639 634 557
f 641 640 565
f 565 640 564
f 565 558 635
f 565 635 641
f 567 642 566
f 642 643 566
f 566 643 562
f 643 644 562
f 644 638 562
f 638 644 639
f 646 645 570
f 570 645 569
f 570 564 640
f 570 640 646
f 648 647 571
f 648 571 572
f 567 571 642
f 571 649 642
f 571 647 649
f 642 649 643
f 652 651 650
f 645 652 650
f 574 645 650
f 569 645 574
f 654 653 575
f 654 575 576
f 575 655 577
f 653 655 575
f 572 577 648
f 648 577 655
f 650 651 580
f 651 579 580
f 651 656 579
f 650 580 574
f 659 658 657
f 581 582 657
f 658 581 657
f 660 581 658
f 581 661 583
f 660 661 581
f 576 583 654
f 654 583 661
f 656 584 579
f 662 584 656
f 665 664 663
f 586 587 663
f 664 586 663
f 666 586 664
f 657 588 659
f 588 666 659
f 588 586 666
f 588 657 582
f 662 590 584
f 667 590 662
f 591 668 592
f 592 668 669
f 670 592 669
f 593 592 670
f 593 671 594
f 670 671 593
f 594 672 595
f 671 672 594
f 595 673 596
f 672 673 595
f 663 597 665
f 597 673 665
f 597 596 673
f 597 663 587
f 667 674 590
f 590 674 598
f 591 598 668
f 598 675 668
f 598 674 675
f 668 675 669
f 678 677 676
f 680 679 676
f 676 679 678
f 680 681 679
f 684 683 682
f 686 685 682
f 682 685 684
f 688 687 686
f 686 687 685
f 690 689 688
f 688 689 687
f 689 690 677
f 690 676 677
f 690 691 676
f 691 599 600
f 680 691 600
f 676 691 680
f 600 601 680
f 601 692 680
f 692 681 680
f 601 693 692
f 603 693 601
f 696 695 694
f 696 694 683
f 683 694 682
f 694 604 682
f 604 605 682
f 682 605 606
f 682 606 686
f 686 606 607
f 686 607 688
f 688 607 608
f 688 608 690
f 690 608 609
f 690 609 691
f 599 691 609
f 699 698 697
f 698 699 692
f 693 698 692
f 700 698 693
f 610 700 603
f 603 700 693
f 702 701 613
f 613 701 612
f 704 702 703
f 702 614 703
f 702 613 614
f 695 705 694
f 705 614 694
f 614 615 694
f 614 705 703
f 694 615 604
f 697 698 617
f 618 697 617
f 706 697 618
f 617 698 619
f 619 698 700
f 619 700 610
f 708 707 621
f 621 707 620
f 709 621 622
f 709 708 621
f 622 612 701
f 622 701 709
f 710 704 703
f 710 703 705
f 625 711 624
f 711 712 624
f 712 618 624
f 712 706 618
f 714 713 628
f 628 713 627
f 628 620 707
f 628 707 714
f 716 715 711
f 625 716 711
f 629 716 625
f 711 715 712
f 718 717 631
f 631 717 630
f 631 627 713
f 631 713 718
f 632 716 629
f 632 719 716
f 722 721 720
f 717 722 720
f 633 717 720
f 630 717 633
f 634 719 632
f 634 723 719
f 725 724 636
f 636 724 635
f 637 720 721
f 725 637 721
f 636 637 725
f 720 637 633
f 639 723 634
f 639 726 723
f 728 727 641
f 641 727 640
f 641 635 724
f 641 724 728
f 730 729 644
f 730 644 643
f 639 644 726
f 726 644 729
f 732 731 646
f 646 731 645
f 646 640 727
f 646 727 732
f 734 733 647
f 734 647 648
f 647 735 649
f 733 735 647
f 643 649 730
f 730 649 735
f 737 736 652
f 652 736 651
f 652 645 731
f 652 731 737
f 740 739 738
f 742 741 738
f 742 738 739
f 653 654 741
f 742 653 741
f 743 653 742
f 653 744 655
f 743 744 653
f 648 655 734
f 734 655 744
f 736 656 651
f 745 656 736
f 659 746 658
f 747 740 738
f 658 747 738
f 660 658 738
f 747 658 746
f 660 738 661
f 661 738 741
f 661 741 654
f 745 662 656
f 748 662 745
f 751 750 749
f 753 752 749
f 753 749 750
f 664 665 752
f 753 664 752
f 754 664 753
f 664 755 666
f 754 755 664
f 659 666 746
f 666 756 746
f 666 755 756
f 746 756 747
f 748 667 662
f 757 667 748
f 669 758 670
f 670 758 759
f 760 670 759
f 671 670 760
f 749 672 751
f 672 760 751
f 672 671 760
f 672 749 673
f 673 749 752
f 673 752 665
f 757 761 667
f 667 761 674
f 674 762 675
f 761 762 674
f 669 675 758
f 675 763 758
f 675 762 763
f 758 763 759
f 764 677 678
f 679 765 678
f 678 765 764
f 681 765 679
f 766 683 684
f 685 767 684
f 684 767 766
f 767 685 768
f 685 769 768
f 685 687 769
f 770 687 689
f 770 769 687
f 689 677 764
f 771 689 764
f 770 689 771
f 773 772 771
f 764 773 771
f 765 773 764
f 692 773 681
f 681 773 765
f 774 695 696
f 683 766 696
f 766 774 696
f 766 775 774
f 767 777 776
f 775 767 776
f 766 767 775
f 777 767 768
f 772 773 699
f 697 772 699
f 778 772 697
f 699 773 692
f 780 779 702
f 702 779 701
f 702 704 780
f 780 704 781
f 782 705 774
f 774 705 695
f 783 774 775
f 782 774 783
f 775 776 784
f 775 784 783
f 706 778 697
f 706 785 778
f 787 786 708
f 708 786 707
f 788 708 709
f 788 787 708
f 709 701 779
f 709 779 788
f 704 710 789
f 790 704 789
f 781 704 790
f 705 782 710
f 782 789 710
f 782 791 789
f 783 793 792
f 791 783 792
f 782 783 791
f 793 783 784
f 712 785 706
f 712 794 785
f 796 795 714
f 714 795 713
f 714 707 786
f 714 786 796
f 797 790 789
f 797 789 791
f 797 791 798
f 798 791 792
f 716 799 715
f 799 800 715
f 800 712 715
f 800 794 712
f 802 801 718
f 718 801 717
f 718 713 795
f 718 795 802
f 719 803 799
f 719 799 716
f 800 799 804
f 804 799 803
f 805 721 722
f 806 805 722
f 717 806 722
f 801 806 717
f 723 807 803
f 723 803 719
f 804 803 808
f 808 803 807
f 809 724 725
f 721 805 725
f 805 809 725
f 805 810 809
f 805 806 811
f 805 811 810
f 813 812 807
f 723 813 807
f 726 813 723
f 807 812 808
f 814 727 728
f 724 809 728
f 809 814 728
f 809 815 814
f 816 809 810
f 815 809 816
f 810 811 817
f 810 817 816
f 820 819 818
f 822 821 818
f 822 818 819
f 824 823 821
f 824 821 822
f 826 825 823
f 826 823 824
f 729 730 825
f 826 729 825
f 827 729 826
f 726 729 813
f 813 729 827
f 828 731 732
f 727 814 732
f 814 828 732
f 814 829 828
f 830 814 815
f 829 814 830
f 816 832 831
f 830 816 831
f 815 816 830
f 832 816 817
f 835 834 833
f 837 836 833
f 837 833 834
f 836 837 820
f 818 836 820
f 838 836 818
f 839 818 821
f 838 818 839
f 734 839 733
f 839 823 733
f 839 821 823
f 733 823 735
f 735 823 825
f 735 825 730
f 840 736 737
f 731 828 737
f 828 840 737
f 828 841 840
f 829 843 842
f 841 829 842
f 828 829 841
f 843 829 830
f 843 830 844
f 844 830 831
f 847 846 845
f 849 848 845
f 849 845 846
f 848 849 835
f 848 835 833
f 740 848 833
f 739 740 833
f 739 833 742
f 742 833 836
f 742 836 743
f 743 836 838
f 743 838 744
f 744 838 839
f 744 839 734
f 850 745 840
f 840 745 736
f 841 852 851
f 850 841 851
f 840 841 850
f 852 841 842
f 855 854 853
f 856 853 854
f 847 845 857
f 847 857 858
f 859 845 848
f 857 845 859
f 747 859 740
f 740 859 848
f 860 748 850
f 850 748 745
f 850 851 861
f 862 850 861
f 860 850 862
f 864 863 862
f 864 862 861
f 863 864 855
f 853 863 855
f 865 863 853
f 867 866 856
f 750 856 866
f 856 750 853
f 751 853 750
f 853 751 865
f 868 753 750
f 868 750 866
f 753 868 869
f 870 753 869
f 754 753 870
f 857 755 858
f 755 870 858
f 755 754 870
f 755 857 756
f 756 857 859
f 756 859 747
f 871 757 860
f 860 757 748
f 872 860 862
f 871 860 872
f 873 862 863
f 872 862 873
f 759 873 760
f 873 865 760
f 873 863 865
f 867 874 866
f 760 865 751
f 866 874 868
f 868 874 875
f 868 875 869
f 871 761 757
f 761 871 762
f 762 871 872
f 762 872 763
f 763 872 873
f 763 873 759
f 876 768 769
f 770 877 769
f 769 877 876
f 771 878 770
f 770 878 877
f 772 878 771
f 879 776 777
f 768 876 777
f 876 879 777
f 876 880 879
f 881 876 877
f 880 876 881
f 882 877 878
f 881 877 882
f 778 882 772
f 772 882 878
f 883 779 780
f 781 883 780
f 884 784 879
f 879 784 776
f 885 879 880
f 884 879 885
f 881 887 886
f 885 881 886
f 880 881 885
f 887 881 882
f 887 882 888
f 882 778 888
f 778 889 888
f 778 785 889
f 890 786 787
f 890 787 891
f 787 892 891
f 787 788 892
f 788 779 883
f 893 788 883
f 892 788 893
f 883 781 893
f 781 894 893
f 781 790 894
f 895 792 793
f 784 884 793
f 884 895 793
f 884 896 895
f 897 884 885
f 896 884 897
f 885 886 898
f 899 885 898
f 897 885 899
f 900 899 898
f 794 889 785
f 794 901 889
f 902 795 796
f 786 890 796
f 890 902 796
f 890 903 902
f 890 891 904
f 890 904 903
f 907 906 905
f 908 905 797
f 905 894 797
f 894 790 797
f 894 905 906
f 798 909 797
f 797 909 908
f 792 895 798
f 895 909 798
f 895 910 909
f 911 895 896
f 910 895 911
f 912 896 897
f 911 896 912
f 913 897 899
f 912 897 913
f 899 900 914
f 899 914 913
f 800 901 794
f 800 915 901
f 916 801 802
f 917 916 802
f 917 802 795
f 918 917 795
f 902 918 795
f 920 919 918
f 902 920 918
f 903 920 902
f 903 904 921
f 903 921 920
f 907 905 922
f 907 922 923
f 924 905 908
f 922 905 924
f 925 908 909
f 924 908 925
f 926 909 910
f 925 909 926
f 927 910 911
f 926 910 927
f 928 911 912
f 927 911 928
f 929 912 913
f 928 912 929
f 913 914 930
f 931 913 930
f 929 913 931
f 930 915 931
f 915 804 931
f 915 800 804
f 932 806 916
f 916 806 801
f 916 917 933
f 916 933 932
f 919 920 934
f 919 934 935
f 920 921 936
f 920 936 934
f 923 922 937
f 923 937 938
f 939 922 924
f 937 922 939
f 940 924 925
f 939 924 940
f 941 925 926
f 940 925 941
f 942 926 927
f 941 926 942
f 943 927 928
f 942 927 943
f 944 928 929
f 943 928 944
f 945 929 931
f 944 929 945
f 808 945 804
f 804 945 931
f 947 946 932
f 946 806 932
f 946 811 806
f 947 932 933
f 935 934 948
f 935 948 949
f 934 936 950
f 934 950 948
f 938 937 951
f 938 951 952
f 953 937 939
f 951 937 953
f 954 939 940
f 953 939 954
f 955 940 941
f 954 940 955
f 956 941 942
f 955 941 956
f 957 942 943
f 956 942 957
f 958 943 944
f 957 943 958
f 813 958 812
f 958 945 812
f 958 944 945
f 812 945 808
f 946 817 811
f 959 817 946
f 949 948 960
f 949 960 961
f 948 950 962
f 948 962 960
f 952 951 963
f 952 963 964
f 965 951 953
f 963 951 965
f 820 965 819
f 965 954 819
f 965 953 954
f 819 954 822
f 822 954 955
f 822 955 824
f 824 955 956
f 824 956 826
f 826 956 957
f 826 957 827
f 827 957 958
f 827 958 813
f 966 831 832
f 967 966 832
f 817 967 832
f 959 967 817
f 961 960 968
f 961 968 969
f 960 962 970
f 971 960 970
f 968 960 971
f 971 970 964
f 971 964 963
f 835 971 963
f 834 835 963
f 834 963 837
f 837 963 965
f 837 965 820
f 972 842 843
f 844 973 843
f 843 973 972
f 831 966 844
f 966 973 844
f 966 974 973
f 966 967 975
f 966 975 974
f 969 968 846
f 847 969 846
f 976 969 847
f 846 968 849
f 849 968 971
f 849 971 835
f 977 851 852
f 842 972 852
f 972 977 852
f 972 978 977
f 855 978 854
f 978 973 854
f 978 972 973
f 854 973 856
f 973 979 856
f 973 974 979
f 974 975 980
f 974 980 979
f 858 976 847
f 858 981 976
f 977 861 851
f 861 977 864
f 864 977 978
f 864 978 855
f 982 867 979
f 979 867 856
f 979 980 983
f 979 983 982
f 985 984 870
f 985 870 869
f 858 870 981
f 981 870 984
f 982 874 867
f 983 986 982
f 986 874 982
f 986 875 874
f 869 875 985
f 985 875 986
f 987 886 887
f 888 988 887
f 887 988 987
f 889 988 888
f 989 891 892
f 893 990 892
f 892 990 989
f 894 990 893
f 987 898 886
f 898 987 900
f 987 991 900
f 987 988 991
f 901 991 889
f 889 991 988
f 992 904 989
f 989 904 891
f 907 992 906
f 992 990 906
f 992 989 990
f 906 990 894
f 993 914 991
f 991 914 900
f 915 993 901
f 901 993 991
f 994 917 918
f 919 994 918
f 995 921 992
f 992 921 904
f 923 995 907
f 907 995 992
f 993 930 914
f 930 993 915
f 996 933 994
f 994 933 917
f 935 996 919
f 919 996 994
f 997 936 995
f 995 936 921
f 938 997 923
f 923 997 995
f 998 946 947
f 933 996 947
f 996 998 947
f 996 999 998
f 949 999 935
f 935 999 996
f 1000 950 997
f 997 950 936
f 952 1000 938
f 938 1000 997
f 1001 959 998
f 998 959 946
f 1002 998 999
f 1001 998 1002
f 961 1002 949
f 949 1002 999
f 1003 962 1000
f 1000 962 950
f 964 1003 952
f 952 1003 1000
f 1004 967 1001
f 1001 967 959
f 1005 1001 1002
f 1004 1001 1005
f 969 1005 961
f 961 1005 1002
f 1003 970 962
f 970 1003 964
f 1007 1006 1004
f 1006 967 1004
f 1006 975 967
f 1009 1008 1007
f 1004 1009 1007
f 1005 1009 1004
f 976 1009 969
f 969 1009 1005
f 1006 980 975
f 1010 980 1006
f 1008 1009 1011
f 1008 1011 1012
f 981 1011 976
f 976 1011 1009
f 1014 983 1013
f 983 1010 1013
f 983 980 1010
f 1014 1013 1012
f 1014 1012 1011
f 985 1014 1011
f 984 985 1011
f 984 1011 981
f 1014 986 983
f 986 1014 985
f 1015 1006 1007
f 1008 1015 1007
f 1016 1010 1015
f 1015 1010 1006
f 1012 1016 1008
f 1008 1016 1015
f 1016 1013 1010
f 1013 1016 1012
