v -44.2 -3.0 5.0
v -44.0 -3.0 4.6
v -44.0 -3.2 5.0
v -44.0 -3.8 6.0
v -44.3 -3.0 6.0
v -44.0 -3.2 7.0
v -44.1 -3.0 7.0
v -44.0 -3.0 7.2
v -44.0 -2.8 5.0
v -44.0 -2.6 6.0
v -44.0 -2.8 7.0
v -43.2 -5.0 8.0
v -43.0 -5.0 7.7
v -43.0 -5.2 8.0
v -43.0 -5.4 9.0
v -43.3 -5.0 9.0
v -43.0 -5.2 10.0
v -43.1 -5.0 10.0
v -43.0 -5.0 10.2
v -43.5 -4.0 7.0
v -43.0 -4.0 6.3
v -43.0 -4.4 7.0
v -43.5 -4.0 8.0
v -43.4 -4.0 9.0
v -43.0 -4.0 9.8
v -43.0 -4.6 10.0
v -43.0 -3.0 4.5
v -43.0 -3.5 5.0
v -43.0 -3.8 6.0
v -43.6 -3.0 8.0
v -43.5 -3.0 9.0
v -43.0 -3.7 10.0
v -43.3 -3.0 10.0
v -43.0 -3.0 10.4
v -43.3 -2.0 5.0
v -43.0 -2.0 4.8
v -43.5 -2.0 6.0
v -43.6 -2.0 7.0
v -43.5 -2.0 8.0
v -43.4 -2.0 9.0
v -43.2 -2.0 10.0
v -43.0 -2.0 10.3
v -43.0 -1.8 5.0
v -43.0 -1.4 6.0
v -43.3 -1.0 7.0
v -43.0 -1.0 6.5
v -43.4 -1.0 8.0
v -43.0 -1.0 8.6
v -43.0 -1.4 9.0
v -43.0 -1.7 10.0
v -43.0 -0.6 7.0
v -43.1 0.0 8.0
v -43.0 0.0 7.9
v -43.0 0.0 8.1
v -43.0 0.1 8.0
v -42.3 -7.0 10.0
v -42.0 -7.0 9.6
v -42.0 -7.4 10.0
v -42.0 -7.3 11.0
v -42.3 -7.0 11.0
v -42.0 -7.0 11.4
v -42.4 -6.0 9.0
v -42.0 -6.0 8.6
v -42.0 -6.5 9.0
v -42.6 -6.0 10.0
v -42.5 -6.0 11.0
v -42.0 -6.5 12.0
v -42.3 -6.0 12.0
v -42.0 -6.0 12.5
v -42.0 -5.0 7.5
v -42.0 -5.5 8.0
v -42.6 -5.0 11.0
v -42.5 -5.0 12.0
v -42.0 -5.3 13.0
v -42.2 -5.0 13.0
v -42.0 -5.0 13.2
v -42.3 -4.0 5.0
v -42.0 -4.0 4.7
v -42.0 -4.2 5.0
v -42.0 -4.4 6.0
v -42.8 -4.0 6.0
v -42.0 -4.6 7.0
v -42.8 -4.0 10.0
v -42.6 -4.0 11.0
v -42.8 -4.0 12.0
v -42.0 -4.0 12.7
v -42.0 -4.6 13.0
v -42.1 -3.0 4.0
v -42.0 -3.0 3.9
v -42.0 -3.1 4.0
v -42.6 -3.0 11.0
v -42.3 -3.0 12.0
v -42.0 -3.0 12.5
v -42.0 -2.9 4.0
v -42.0 -2.0 4.5
v -42.5 -2.0 11.0
v -42.0 -2.0 11.6
v -42.0 -2.5 12.0
v -42.0 -1.5 5.0
v -42.5 -1.0 6.0
v -42.0 -1.0 5.6
v -42.7 -1.0 9.0
v -42.5 -1.0 10.0
v -42.3 -1.0 11.0
v -42.0 -1.0 11.3
v -42.0 -0.5 6.0
v -42.5 0.0 7.0
v -42.0 0.0 6.5
v -42.3 0.0 9.0
v -42.0 0.0 9.4
v -42.0 -0.4 10.0
v -42.0 -0.7 11.0
v -42.0 0.7 7.0
v -42.0 0.5 8.0
v -42.0 0.3 9.0
v -41.2 -8.0 9.0
v -41.0 -8.0 8.8
v -41.0 -8.2 9.0
v -41.0 -8.4 10.0
v -41.5 -8.0 10.0
v -41.0 -8.3 11.0
v -41.3 -8.0 11.0
v -41.0 -8.0 11.4
v -41.6 -7.0 9.0
v -41.0 -7.0 8.5
v -41.0 -7.6 12.0
v -41.6 -7.0 12.0
v -41.0 -7.3 13.0
v -41.3 -7.0 13.0
v -41.0 -7.0 13.4
v -41.0 -6.0 8.3
v -41.7 -6.0 13.0
v -41.0 -6.4 14.0
v -41.3 -6.0 14.0
v -41.0 -6.0 14.5
v -41.0 -5.0 7.3
v -41.0 -5.7 8.0
v -41.5 -5.0 14.0
v -41.0 -5.3 15.0
v -41.1 -5.0 15.0
v -41.0 -5.0 15.2
v -41.0 -4.0 4.5
v -41.0 -4.4 5.0
v -41.0 -4.5 6.0
v -41.0 -4.7 7.0
v -41.8 -4.0 13.0
v -41.5 -4.0 14.0
v -41.0 -4.0 14.7
v -41.0 -4.6 15.0
v -41.0 -3.0 3.8
v -41.0 -3.3 4.0
v -41.6 -3.0 13.0
v -41.7 -3.0 14.0
v -41.0 -3.0 14.4
v -41.0 -2.7 4.0
v -41.0 -2.0 4.5
v -41.6 -2.0 12.0
v -41.0 -2.0 12.7
v -41.0 -2.3 13.0
v -41.0 -2.6 14.0
v -41.0 -1.4 5.0
v -41.0 -1.0 5.3
v -41.3 -1.0 12.0
v -41.0 -1.0 12.3
v -41.4 0.0 6.0
v -41.0 0.0 5.7
v -41.6 0.0 10.0
v -41.3 0.0 11.0
v -41.0 0.0 11.3
v -41.0 -0.7 12.0
v -41.0 0.3 6.0
v -41.0 0.6 7.0
v -41.0 0.5 8.0
v -41.0 0.5 9.0
v -41.0 0.5 10.0
v -41.0 0.3 11.0
v -40.1 -9.0 10.0
v -40.0 -9.0 9.9
v -40.0 -9.1 10.0
v -40.0 -9.0 10.1
v -40.0 -8.0 8.5
v -40.0 -8.5 9.0
v -40.0 -8.6 11.0
v -40.0 -8.2 12.0
v -40.3 -8.0 12.0
v -40.0 -8.0 12.2
v -40.3 -7.0 8.0
v -40.0 -7.0 7.7
v -40.0 -7.3 8.0
v -40.0 -7.6 13.0
v -40.0 -7.3 14.0
v -40.4 -7.0 14.0
v -40.0 -7.0 14.5
v -40.7 -6.0 8.0
v -40.0 -6.0 7.4
v -40.0 -6.6 15.0
v -40.6 -6.0 15.0
v -40.0 -6.1 16.0
v -40.1 -6.0 16.0
v -40.0 -6.0 16.1
v -40.6 -5.0 7.0
v -40.0 -5.0 6.6
v -40.0 -5.5 7.0
v -40.0 -5.8 16.0
v -40.0 -5.0 15.7
v -40.0 -4.0 4.7
v -40.0 -4.3 5.0
v -40.0 -4.6 6.0
v -40.7 -4.0 15.0
v -40.0 -4.0 15.7
v -40.0 -3.0 3.9
v -40.0 -3.1 4.0
v -40.4 -3.0 15.0
v -40.0 -3.0 15.4
v -40.0 -2.9 4.0
v -40.0 -2.0 4.4
v -40.7 -2.0 13.0
v -40.4 -2.0 14.0
v -40.0 -2.0 14.5
v -40.0 -2.5 15.0
v -40.3 -1.0 5.0
v -40.0 -1.0 4.8
v -40.3 -1.0 13.0
v -40.0 -1.0 13.4
v -40.0 -1.5 14.0
v -40.0 -0.8 5.0
v -40.0 0.0 5.6
v -40.0 -0.3 12.0
v -40.0 0.0 11.7
v -40.0 -0.7 13.0
v -40.0 0.4 6.0
v -40.0 0.9 7.0
v -40.0 0.5 8.0
v -40.0 0.6 9.0
v -40.3 1.0 10.0
v -40.0 1.0 9.7
v -40.3 1.0 11.0
v -40.0 1.0 11.2
v -40.0 1.2 10.0
v -40.0 1.2 11.0
v -39.0 -9.0 9.6
v -39.0 -9.2 10.0
v -39.0 -9.0 10.3
v -39.0 -8.0 8.5
v -39.0 -8.6 9.0
v -39.0 -8.5 11.0
v -39.5 -8.0 12.0
v -39.0 -8.0 11.8
v -39.0 -7.0 7.4
v -39.0 -7.5 8.0
v -39.0 -7.8 12.0
v -39.0 -7.5 13.0
v -39.0 -7.5 14.0
v -39.0 -7.4 15.0
v -39.6 -7.0 15.0
v -39.0 -7.1 16.0
v -39.1 -7.0 16.0
v -39.0 -7.0 16.1
v -39.5 -6.0 7.0
v -39.0 -6.0 6.7
v -39.0 -6.5 7.0
v -39.0 -6.0 16.5
v -39.0 -5.0 6.4
v -39.7 -5.0 16.0
v -39.0 -5.0 16.6
v -39.5 -4.0 5.0
v -39.0 -4.0 5.4
v -39.0 -4.5 6.0
v -39.7 -4.0 16.0
v -39.0 -4.3 17.0
v -39.1 -4.0 17.0
v -39.0 -4.0 17.2
v -39.9 -3.0 4.0
v -39.0 -3.0 4.5
v -39.0 -3.6 5.0
v -39.4 -3.0 16.0
v -39.0 -3.0 16.5
v -39.0 -3.8 17.0
v -39.0 -2.0 4.7
v -39.5 -2.0 15.0
v -39.0 -2.0 15.5
v -39.0 -2.5 16.0
v -39.0 -1.5 5.0
v -39.7 -1.0 5.0
v -39.0 -1.0 5.4
v -39.4 -1.0 14.0
v -39.0 -1.0 14.3
v -39.0 -1.6 15.0
v -39.0 0.0 5.8
v -39.6 0.0 12.0
v -39.0 0.0 12.6
v -39.0 -0.3 13.0
v -39.0 -0.7 14.0
v -39.0 0.2 6.0
v -39.0 0.3 7.0
v -39.0 0.1 8.0
v -39.0 0.6 9.0
v -39.0 1.0 9.4
v -39.0 0.5 12.0
v -39.0 1.0 11.6
v -39.0 1.4 10.0
v -39.0 1.4 11.0
v -38.5 -9.0 9.0
v -38.0 -9.0 8.7
v -38.0 -9.3 9.0
v -38.0 -9.5 10.0
v -38.0 -9.0 10.7
v -38.0 -8.0 8.2
v -38.0 -8.7 11.0
v -38.0 -8.3 12.0
v -38.7 -8.0 12.0
v -38.0 -8.0 12.5
v -38.4 -7.0 7.0
v -38.0 -7.0 6.7
v -38.0 -7.3 7.0
v -38.0 -7.8 8.0
v -38.0 -7.7 13.0
v -38.0 -7.5 14.0
v -38.0 -7.4 15.0
v -38.9 -7.0 16.0
v -38.0 -7.0 15.6
v -38.0 -6.0 6.5
v -38.0 -6.6 16.0
v -38.0 -6.0 16.6
v -38.0 -5.0 6.4
v -38.0 -5.5 17.0
v -38.5 -5.0 17.0
v -38.0 -5.0 17.5
v -38.0 -4.0 5.6
v -38.0 -4.4 6.0
v -38.0 -4.2 18.0
v -38.1 -4.0 18.0
v -38.0 -4.0 18.1
v -38.0 -3.0 4.9
v -38.0 -3.1 5.0
v -38.5 -3.0 17.0
v -38.0 -3.0 17.4
v -38.0 -3.9 18.0
v -38.0 -2.8 5.0
v -38.5 -2.0 5.0
v -38.0 -2.0 5.4
v -38.5 -2.0 16.0
v -38.0 -2.0 16.5
v -38.0 -2.5 17.0
v -38.5 -1.0 6.0
v -38.0 -1.5 6.0
v -38.0 -1.0 7.0
v -38.0 -1.0 7.0
v -38.0 -1.0 7.0
v -38.0 -1.3 15.0
v -38.0 -1.0 14.7
v -38.0 -1.6 16.0
v -38.8 0.0 6.0
v -38.6 0.0 7.0
v -38.0 0.0 7.7
v -38.5 0.0 13.0
v -38.0 0.0 13.4
v -38.0 -0.5 14.0
v -38.0 0.2 8.0
v -38.3 1.0 9.0
v -38.0 1.0 8.8
v -38.4 1.0 12.0
v -38.0 1.0 12.3
v -38.0 0.4 13.0
v -38.0 1.1 9.0
v -38.0 1.5 10.0
v -38.0 1.5 11.0
v -38.0 1.3 12.0
v -37.4 -10.0 10.0
v -37.0 -10.0 9.5
v -37.0 -10.3 10.0
v -37.0 -10.2 11.0
v -37.2 -10.0 11.0
v -37.0 -10.0 11.3
v -37.3 -9.0 8.0
v -37.0 -9.0 7.7
v -37.0 -9.3 8.0
v -37.0 -9.7 9.0
v -37.7 -9.0 11.0
v -37.0 -9.0 11.7
v -37.1 -8.0 7.0
v -37.0 -8.0 6.9
v -37.0 -8.1 7.0
v -37.8 -8.0 8.0
v -37.0 -8.8 12.0
v -37.0 -8.4 13.0
v -37.5 -8.0 13.0
v -37.0 -8.0 13.5
v -37.0 -7.0 6.5
v -37.0 -7.7 14.0
v -37.0 -7.4 15.0
v -37.0 -7.0 15.5
v -37.0 -6.0 6.5
v -37.0 -6.6 16.0
v -37.0 -6.3 17.0
v -37.4 -6.0 17.0
v -37.0 -6.0 17.3
v -37.0 -5.0 6.5
v -37.0 -5.1 18.0
v -37.2 -5.0 18.0
v -37.0 -5.0 18.1
v -37.5 -4.0 6.0
v -37.0 -4.0 6.3
v -37.0 -4.0 18.2
v -37.9 -3.0 5.0
v -37.0 -3.0 5.5
v -37.0 -3.6 6.0
v -37.0 -3.7 18.0
v -37.0 -3.0 17.6
v -37.0 -2.0 5.7
v -37.4 -2.0 17.0
v -37.0 -2.0 17.3
v -37.0 -1.7 6.0
v -37.8 -1.0 7.0
v -37.0 -1.0 6.8
v -37.6 -1.0 15.0
v -37.3 -1.0 16.0
v -37.0 -1.0 16.3
v -37.0 -1.7 17.0
v -37.0 -0.8 7.0
v -37.0 -0.3 8.0
v -37.6 0.0 8.0
v -37.0 0.0 8.5
v -37.0 -0.3 14.0
v -37.0 0.0 13.6
v -37.0 -0.6 15.0
v -37.0 -0.8 16.0
v -37.8 1.0 9.0
v -37.0 0.5 9.0
v -37.0 1.0 9.6
v -37.0 0.5 13.0
v -37.0 1.0 12.5
v -37.0 1.3 10.0
v -37.0 1.5 11.0
v -37.0 1.4 12.0
v -36.1 -11.0 9.0
v -36.0 -11.0 8.8
v -36.0 -11.2 9.0
v -36.0 -11.0 9.3
v -36.3 -10.0 8.0
v -36.0 -10.0 7.7
v -36.0 -10.4 8.0
v -36.7 -10.0 9.0
v -36.0 -10.7 10.0
v -36.0 -10.5 11.0
v -36.0 -10.3 12.0
v -36.3 -10.0 12.0
v -36.0 -10.0 12.4
v -36.0 -9.0 7.5
v -36.8 -9.0 12.0
v -36.0 -9.5 13.0
v -36.4 -9.0 13.0
v -36.0 -9.0 13.5
v -36.8 -8.0 7.0
v -36.0 -8.0 7.3
v -36.0 -8.5 14.0
v -36.6 -8.0 14.0
v -36.0 -8.0 14.5
v -36.0 -7.0 6.7
v -36.0 -7.5 7.0
v -36.0 -7.6 15.0
v -36.0 -7.0 15.5
v -36.0 -6.0 6.6
v -36.0 -6.6 16.0
v -36.0 -6.2 17.0
v -36.0 -6.0 17.3
v -36.0 -5.0 6.6
v -36.8 -5.0 18.0
v -36.0 -5.0 17.6
v -36.0 -4.0 6.4
v -36.7 -4.0 18.0
v -36.0 -4.0 17.6
v -36.0 -3.0 5.9
v -36.0 -3.2 6.0
v -36.0 -3.0 17.5
v -36.0 -2.8 6.0
v -36.6 -2.0 6.0
v -36.0 -2.0 6.4
v -36.0 -2.0 17.4
v -36.7 -1.0 7.0
v -36.0 -1.4 7.0
v -36.0 -1.0 7.5
v -36.0 -1.5 17.0
v -36.0 -1.0 16.4
v -36.0 -0.7 8.0
v -36.4 0.0 9.0
v -36.0 -0.3 9.0
v -36.0 0.0 9.4
v -36.5 0.0 14.0
v -36.0 0.0 14.4
v -36.0 -0.5 15.0
v -36.0 -0.6 16.0
v -36.6 1.0 10.0
v -36.0 0.5 10.0
v -36.0 1.0 10.6
v -36.0 0.6 13.0
v -36.0 1.0 12.3
v -36.0 0.3 14.0
v -36.0 1.3 11.0
v -36.0 1.2 12.0
v -35.4 -11.0 8.0
v -35.0 -11.0 7.7
v -35.0 -11.3 8.0
v -35.0 -11.9 9.0
v -35.0 -11.4 10.0
v -35.5 -11.0 10.0
v -35.0 -11.0 10.5
v -35.0 -10.0 7.5
v -35.0 -10.7 11.0
v -35.0 -10.5 12.0
v -35.0 -10.3 13.0
v -35.4 -10.0 13.0
v -35.0 -10.0 13.4
v -35.0 -9.0 7.5
v -35.0 -9.5 14.0
v -35.5 -9.0 14.0
v -35.0 -9.0 14.5
v -35.0 -8.0 7.5
v -35.0 -8.5 15.0
v -35.5 -8.0 15.0
v -35.0 -8.0 15.4
v -35.6 -7.0 7.0
v -35.0 -7.0 7.4
v -35.0 -7.0 15.7
v -35.3 -6.0 7.0
v -35.0 -6.0 7.2
v -35.0 -6.7 16.0
v -35.6 -6.0 17.0
v -35.0 -6.0 16.6
v -35.2 -5.0 7.0
v -35.0 -5.0 7.1
v -35.0 -5.6 17.0
v -35.0 -5.0 17.4
v -35.0 -4.0 6.7
v -35.0 -4.8 7.0
v -35.0 -4.0 17.5
v -35.8 -3.0 6.0
v -35.0 -3.0 6.5
v -35.0 -3.0 17.5
v -35.0 -2.0 6.8
v -35.0 -2.0 17.4
v -35.0 -1.8 7.0
v -35.5 -1.0 8.0
v -35.0 -1.4 8.0
v -35.0 -1.0 8.6
v -35.0 -1.0 15.0
v -35.0 -1.0 15.0
v -35.0 -1.0 15.0
v -35.0 -1.0 15.1
v -35.0 -1.4 17.0
v -35.0 -1.0 16.5
v -35.0 -0.7 9.0
v -35.5 0.0 10.0
v -35.0 -0.4 10.0
v -35.0 0.0 10.5
v -35.0 0.0 14.3
v -35.0 -0.7 16.0
v -35.7 1.0 11.0
v -35.0 0.4 11.0
v -35.7 1.0 12.0
v -35.0 0.6 12.0
v -35.0 0.5 13.0
v -35.0 0.2 14.0
v -34.0 -11.0 7.8
v -34.0 -11.2 8.0
v -34.0 -11.5 9.0
v -34.0 -11.5 10.0
v -34.0 -11.3 11.0
v -34.5 -11.0 11.0
v -34.0 -11.0 11.4
v -34.0 -10.0 7.6
v -34.0 -10.6 12.0
v -34.0 -10.5 13.0
v -34.0 -10.1 14.0
v -34.2 -10.0 14.0
v -34.0 -10.0 14.2
v -34.0 -9.0 7.6
v -34.0 -9.2 15.0
v -34.3 -9.0 15.0
v -34.0 -9.0 15.2
v -34.0 -8.0 7.5
v -34.0 -8.3 16.0
v -34.3 -8.0 16.0
v -34.0 -8.0 16.2
v -34.0 -7.0 7.3
v -34.7 -7.0 16.0
v -34.0 -7.0 16.5
v -34.5 -6.0 7.0
v -34.0 -6.0 6.3
v -34.0 -6.4 7.0
v -34.0 -6.0 16.7
v -34.5 -5.0 7.0
v -34.0 -5.0 6.9
v -34.0 -5.6 17.0
v -34.0 -5.0 17.4
v -34.4 -4.0 7.0
v -34.0 -4.8 7.0
v -34.0 -4.0 7.4
v -34.0 -4.0 17.4
v -34.1 -3.0 7.0
v -34.0 -3.3 8.0
v -34.2 -3.0 8.0
v -34.0 -3.0 8.2
v -34.0 -3.0 17.3
v -34.7 -2.0 7.0
v -34.5 -2.0 8.0
v -34.0 -2.0 8.7
v -34.0 -2.0 17.3
v -34.7 -1.0 9.0
v -34.0 -1.7 9.0
v -34.4 -1.0 10.0
v -34.0 -1.4 10.0
v -34.0 -1.0 10.5
v -34.0 -1.3 15.0
v -34.0 -1.0 14.6
v -34.0 -1.0 15.6
v -34.0 -1.0 17.0
v -34.0 -1.0 17.0
v -34.5 0.0 11.0
v -34.0 -0.6 11.0
v -34.0 0.0 11.6
v -34.6 0.0 14.0
v -34.0 -0.4 14.0
v -34.0 0.0 13.4
v -34.0 -0.8 16.0
v -34.0 -1.0 17.0
v -34.0 0.2 12.0
v -34.0 0.3 13.0
v -33.7 -11.0 8.0
v -33.0 -11.0 8.7
v -33.0 -11.2 9.0
v -33.0 -11.5 10.0
v -33.0 -11.3 11.0
v -33.0 -11.0 11.3
v -33.5 -10.0 8.0
v -33.0 -10.0 8.5
v -33.0 -10.5 12.0
v -33.0 -10.2 13.0
v -33.8 -10.0 14.0
v -33.0 -10.0 13.4
v -33.4 -9.0 8.0
v -33.0 -9.0 8.3
v -33.0 -9.5 14.0
v -33.7 -9.0 15.0
v -33.0 -9.0 14.5
v -33.0 -8.0 7.8
v -33.0 -8.4 8.0
v -33.0 -8.6 15.0
v -33.0 -8.2 16.0
v -33.0 -8.0 16.2
v -33.0 -7.0 7.8
v -33.0 -7.0 17.0
v -33.0 -7.0 17.0
v -33.0 -7.0 17.0
v -33.8 -6.0 7.0
v -33.0 -6.7 8.0
v -33.4 -6.0 8.0
v -33.3 -6.0 9.0
v -33.0 -6.4 9.0
v -33.0 -6.0 9.5
v -33.4 -6.0 17.0
v -33.0 -6.0 17.2
v -33.9 -5.0 7.0
v -33.5 -5.0 8.0
v -33.5 -5.0 9.0
v -33.0 -5.3 10.0
v -33.2 -5.0 10.0
v -33.0 -5.0 10.2
v -33.0 -5.0 17.2
v -33.7 -4.0 8.0
v -33.4 -4.0 9.0
v -33.0 -4.0 9.8
v -33.0 -4.4 10.0
v -33.2 -4.0 16.0
v -33.0 -4.3 16.0
v -33.0 -4.0 15.7
v -33.6 -4.0 17.0
v -33.0 -4.8 17.0
v -33.6 -3.0 9.0
v -33.0 -3.8 10.0
v -33.4 -3.0 10.0
v -33.3 -3.0 11.0
v -33.0 -3.4 11.0
v -33.0 -3.0 11.4
v -33.4 -3.0 16.0
v -33.0 -3.0 15.4
v -33.6 -3.0 17.0
v -33.8 -2.0 9.0
v -33.6 -2.0 10.0
v -33.4 -2.0 11.0
v -33.0 -2.0 11.6
v -33.4 -2.0 15.0
v -33.0 -2.5 15.0
v -33.0 -2.0 14.6
v -33.5 -2.0 16.0
v -33.7 -2.0 17.0
v -33.7 -1.0 11.0
v -33.0 -1.5 12.0
v -33.3 -1.0 12.0
v -33.0 -1.0 12.6
v -33.0 -1.0 14.2
v -33.8 -1.0 16.0
v -34.0 -1.0 17.0
v -33.7 0.0 12.0
v -33.0 -0.7 13.0
v -33.7 0.0 13.0
v -33.0 -0.8 14.0
v -32.7 -11.0 9.0
v -32.0 -11.0 9.9
v -32.0 -11.1 10.0
v -32.6 -11.0 11.0
v -32.0 -11.0 10.1
v -32.4 -10.0 9.0
v -32.0 -10.0 9.6
v -32.0 -10.2 11.0
v -32.5 -10.0 12.0
v -32.0 -10.0 11.1
v -32.8 -10.0 13.0
v -32.1 -9.0 9.0
v -32.0 -9.5 10.0
v -32.3 -9.0 10.0
v -32.3 -9.0 11.0
v -32.0 -9.8 11.0
v -32.4 -9.0 12.0
v -32.4 -9.0 13.0
v -32.6 -9.0 14.0
v -32.7 -8.0 8.0
v -32.4 -8.0 9.0
v -32.4 -8.0 10.0
v -32.0 -8.0 10.6
v -32.0 -8.5 11.0
v -32.0 -8.5 12.0
v -32.0 -8.5 13.0
v -32.0 -8.3 14.0
v -32.5 -8.0 15.0
v -32.0 -8.0 14.3
v -32.8 -8.0 16.0
v -32.8 -7.0 8.0
v -32.6 -7.0 9.0
v -32.4 -7.0 10.0
v -32.0 -7.0 10.7
v -32.3 -7.0 15.0
v -32.0 -7.0 14.6
v -32.5 -7.0 16.0
v -33.0 -7.0 17.0
v -32.7 -6.0 10.0
v -32.0 -6.7 11.0
v -32.4 -6.0 11.0
v -32.4 -6.0 12.0
v -32.0 -6.5 12.0
v -32.3 -6.0 13.0
v -32.0 -6.4 13.0
v -32.0 -6.0 13.4
v -32.0 -6.5 15.0
v -32.0 -6.0 15.4
v -32.4 -6.0 16.0
v -32.8 -6.0 17.0
v -32.6 -5.0 11.0
v -32.5 -5.0 12.0
v -32.4 -5.0 13.0
v -32.0 -5.0 13.5
v -32.5 -5.0 16.0
v -32.0 -5.0 15.3
v -32.8 -5.0 17.0
v -32.9 -4.0 10.0
v -32.6 -4.0 11.0
v -32.5 -4.0 12.0
v -32.4 -4.0 13.0
v -32.0 -4.0 13.8
v -32.4 -4.0 15.0
v -32.0 -4.6 15.0
v -32.0 -4.0 14.2
v -32.6 -3.0 12.0
v -32.5 -3.0 13.0
v -32.0 -3.8 14.0
v -32.4 -3.0 14.0
v -32.7 -3.0 15.0
v -32.7 -2.0 12.0
v -32.5 -2.0 13.0
v -32.6 -2.0 14.0
v -32.7 -1.0 13.0
v -32.8 -1.0 14.0
v -31.9 -11.0 10.0
v -31.8 -10.0 10.0
v -31.9 -10.0 11.0
v -31.7 -8.0 11.0
v -31.6 -8.0 12.0
v -31.6 -8.0 13.0
v -31.8 -8.0 14.0
v -31.8 -7.0 11.0
v -31.6 -7.0 12.0
v -31.6 -7.0 13.0
v -31.6 -7.0 14.0
v -31.6 -6.0 14.0
v -31.7 -6.0 15.0
v -31.6 -5.0 14.0
v -31.7 -5.0 15.0
v -31.9 -4.0 14.0
f 3 2 1
f 5 4 1
f 1 4 3
f 7 6 5
f 5 6 4
f 7 8 6
f 2 9 1
f 1 9 5
f 5 9 10
f 5 10 7
f 7 10 11
f 7 11 8
f 14 13 12
f 16 15 12
f 12 15 14
f 18 17 16
f 16 17 15
f 18 19 17
f 22 21 20
f 22 20 13
f 20 12 13
f 20 23 12
f 12 24 16
f 12 23 24
f 26 18 25
f 18 24 25
f 18 16 24
f 18 26 19
f 28 27 3
f 3 27 2
f 29 3 4
f 29 28 3
f 6 20 21
f 29 6 21
f 4 6 29
f 20 6 8
f 30 20 8
f 23 20 30
f 23 31 24
f 23 30 31
f 25 24 32
f 24 33 32
f 24 31 33
f 33 34 32
f 9 2 35
f 2 36 35
f 2 27 36
f 37 10 9
f 37 9 35
f 38 11 10
f 38 10 37
f 30 8 11
f 38 30 11
f 39 30 38
f 30 40 31
f 30 39 40
f 31 41 33
f 31 40 41
f 34 33 42
f 42 33 41
f 36 43 35
f 35 43 37
f 37 43 44
f 46 45 44
f 45 37 44
f 45 38 37
f 38 47 39
f 38 45 47
f 49 40 48
f 40 47 48
f 40 39 47
f 40 49 41
f 41 49 50
f 41 50 42
f 46 51 45
f 53 52 51
f 52 45 51
f 52 47 45
f 48 47 54
f 54 47 52
f 53 55 52
f 52 55 54
f 58 57 56
f 60 59 56
f 56 59 58
f 60 61 59
f 64 63 62
f 64 62 57
f 62 56 57
f 62 65 56
f 56 66 60
f 56 65 66
f 61 60 67
f 60 68 67
f 60 66 68
f 68 69 67
f 71 70 14
f 14 70 13
f 15 62 63
f 71 15 63
f 14 15 71
f 62 15 17
f 62 17 65
f 65 17 19
f 72 65 19
f 66 65 72
f 66 73 68
f 66 72 73
f 69 68 74
f 68 75 74
f 68 73 75
f 75 76 74
f 79 78 77
f 81 80 77
f 77 80 79
f 21 22 81
f 22 80 81
f 22 82 80
f 22 13 70
f 22 70 82
f 25 83 26
f 72 19 26
f 83 72 26
f 84 72 83
f 72 85 73
f 72 84 85
f 87 75 86
f 75 85 86
f 75 73 85
f 75 87 76
f 90 89 88
f 90 88 78
f 78 88 77
f 88 27 77
f 27 28 77
f 77 28 29
f 77 29 81
f 81 29 21
f 32 83 25
f 83 32 34
f 91 83 34
f 84 83 91
f 84 92 85
f 84 91 92
f 86 85 93
f 93 85 92
f 89 94 88
f 27 88 94
f 95 27 94
f 36 27 95
f 42 96 91
f 42 91 34
f 98 92 97
f 92 96 97
f 92 91 96
f 92 98 93
f 95 99 36
f 36 99 43
f 99 101 100
f 44 99 100
f 43 99 44
f 100 46 44
f 48 102 49
f 103 50 49
f 103 49 102
f 96 42 50
f 103 96 50
f 104 96 103
f 97 96 105
f 105 96 104
f 101 106 100
f 106 108 107
f 106 107 51
f 100 106 51
f 46 100 51
f 107 53 51
f 54 109 102
f 54 102 48
f 111 103 110
f 103 109 110
f 103 102 109
f 103 111 104
f 104 111 112
f 104 112 105
f 108 113 107
f 107 113 53
f 113 55 53
f 113 114 55
f 54 55 109
f 55 115 109
f 55 114 115
f 109 115 110
f 118 117 116
f 120 119 116
f 116 119 118
f 122 121 120
f 120 121 119
f 122 123 121
f 116 117 124
f 124 117 125
f 124 57 58
f 120 124 58
f 116 124 120
f 120 58 59
f 120 59 122
f 127 126 61
f 61 126 59
f 126 123 59
f 123 122 59
f 129 128 127
f 127 128 126
f 129 130 128
f 124 125 64
f 125 63 64
f 125 131 63
f 124 64 57
f 67 127 61
f 127 67 69
f 132 127 69
f 129 127 132
f 130 129 133
f 129 134 133
f 129 132 134
f 134 135 133
f 137 136 71
f 71 136 70
f 71 63 131
f 71 131 137
f 74 132 69
f 132 74 76
f 138 132 76
f 134 132 138
f 135 134 139
f 134 140 139
f 134 138 140
f 140 141 139
f 143 142 79
f 79 142 78
f 144 79 80
f 144 143 79
f 145 80 82
f 145 144 80
f 82 70 136
f 82 136 145
f 86 146 87
f 138 76 87
f 146 138 87
f 147 138 146
f 149 140 148
f 140 147 148
f 140 138 147
f 140 149 141
f 151 150 90
f 90 150 89
f 90 78 142
f 90 142 151
f 93 152 146
f 93 146 86
f 146 153 147
f 146 152 153
f 148 147 154
f 154 147 153
f 150 155 89
f 89 155 94
f 95 94 155
f 95 155 156
f 97 157 98
f 157 158 98
f 98 158 93
f 158 159 93
f 159 152 93
f 152 159 153
f 153 159 160
f 153 160 154
f 156 161 95
f 95 161 99
f 101 99 161
f 101 161 162
f 105 163 157
f 105 157 97
f 158 157 164
f 164 157 163
f 106 101 165
f 101 166 165
f 101 162 166
f 165 108 106
f 110 167 111
f 168 112 111
f 168 111 167
f 168 169 112
f 112 169 105
f 169 170 105
f 170 163 105
f 163 170 164
f 166 171 165
f 165 171 108
f 171 113 108
f 171 172 113
f 113 173 114
f 172 173 113
f 114 174 115
f 173 174 114
f 110 115 167
f 115 175 167
f 115 174 175
f 167 175 168
f 168 175 176
f 168 176 169
f 179 178 177
f 177 180 179
f 182 181 118
f 118 181 117
f 119 177 178
f 182 119 178
f 118 119 182
f 183 180 177
f 119 183 177
f 121 183 119
f 185 184 123
f 184 121 123
f 184 183 121
f 185 186 184
f 189 188 187
f 181 189 187
f 125 181 187
f 117 181 125
f 126 185 123
f 190 186 185
f 126 190 185
f 128 190 126
f 192 191 130
f 191 128 130
f 191 190 128
f 192 193 191
f 187 188 194
f 194 188 195
f 194 131 125
f 194 125 187
f 133 192 130
f 197 196 135
f 135 196 133
f 196 193 133
f 193 192 133
f 199 198 197
f 197 198 196
f 199 200 198
f 203 202 201
f 203 201 195
f 195 201 194
f 201 136 194
f 136 137 194
f 194 137 131
f 139 197 135
f 199 197 204
f 197 141 204
f 141 205 204
f 141 197 139
f 199 204 200
f 207 206 143
f 143 206 142
f 208 143 144
f 208 207 143
f 145 201 202
f 208 145 202
f 144 145 208
f 201 145 136
f 148 209 149
f 209 210 149
f 210 141 149
f 210 205 141
f 212 211 151
f 151 211 150
f 151 142 206
f 151 206 212
f 154 213 209
f 154 209 148
f 210 209 214
f 214 209 213
f 211 215 150
f 150 215 155
f 156 155 215
f 156 215 216
f 158 217 159
f 218 160 159
f 218 159 217
f 218 219 160
f 160 219 154
f 219 220 154
f 220 213 154
f 213 220 214
f 161 156 221
f 156 222 221
f 156 216 222
f 221 162 161
f 164 223 217
f 164 217 158
f 225 218 224
f 218 223 224
f 218 217 223
f 218 225 219
f 222 226 221
f 162 221 226
f 227 162 226
f 166 162 227
f 229 228 170
f 229 170 169
f 164 170 223
f 170 230 223
f 170 228 230
f 223 230 224
f 227 231 166
f 166 231 171
f 171 232 172
f 231 232 171
f 172 233 173
f 232 233 172
f 173 234 174
f 233 234 173
f 234 236 235
f 175 234 235
f 174 234 175
f 237 176 175
f 237 175 235
f 237 238 176
f 238 169 176
f 238 229 169
f 236 239 235
f 235 239 237
f 237 239 240
f 237 240 238
f 242 241 179
f 179 241 178
f 179 180 242
f 242 180 243
f 245 244 182
f 182 244 181
f 182 178 241
f 182 241 245
f 246 243 180
f 246 180 183
f 248 246 247
f 246 184 247
f 246 183 184
f 186 247 184
f 250 249 189
f 189 249 188
f 189 181 244
f 189 244 250
f 251 248 247
f 251 247 186
f 190 251 186
f 252 251 190
f 253 190 191
f 253 252 190
f 255 254 193
f 254 191 193
f 254 253 191
f 257 256 255
f 255 256 254
f 257 258 256
f 261 260 259
f 249 261 259
f 195 249 259
f 188 249 195
f 196 255 193
f 255 196 198
f 255 198 257
f 198 200 257
f 200 258 257
f 200 262 258
f 259 260 203
f 260 202 203
f 260 263 202
f 259 203 195
f 205 264 204
f 264 265 204
f 265 200 204
f 265 262 200
f 266 206 207
f 266 207 267
f 207 268 267
f 207 208 268
f 208 202 263
f 208 263 268
f 210 269 264
f 210 264 205
f 265 264 270
f 264 271 270
f 264 269 271
f 271 272 270
f 273 211 212
f 274 273 212
f 274 212 206
f 275 274 206
f 266 275 206
f 275 266 267
f 214 276 269
f 214 269 210
f 278 271 277
f 271 276 277
f 271 269 276
f 271 278 272
f 273 215 211
f 216 215 273
f 274 216 273
f 279 216 274
f 219 280 220
f 280 281 220
f 220 281 214
f 281 282 214
f 282 276 214
f 276 282 277
f 284 222 283
f 222 279 283
f 222 216 279
f 285 284 283
f 224 286 225
f 286 287 225
f 225 287 219
f 287 288 219
f 288 280 219
f 280 288 281
f 284 226 222
f 227 226 284
f 285 227 284
f 289 227 285
f 229 290 228
f 228 290 291
f 292 228 291
f 230 228 292
f 224 230 286
f 230 293 286
f 230 292 293
f 286 293 287
f 289 294 227
f 227 294 231
f 231 295 232
f 294 295 231
f 232 296 233
f 295 296 232
f 233 297 234
f 296 297 233
f 236 234 297
f 236 297 298
f 300 299 290
f 229 300 290
f 238 300 229
f 290 299 291
f 298 301 236
f 236 301 239
f 239 302 240
f 301 302 239
f 238 240 300
f 300 240 302
f 305 304 303
f 241 242 303
f 242 305 303
f 242 306 305
f 242 243 306
f 306 243 307
f 303 304 245
f 304 244 245
f 304 308 244
f 303 245 241
f 309 307 243
f 309 243 246
f 311 310 248
f 310 246 248
f 310 309 246
f 311 312 310
f 315 314 313
f 249 250 313
f 250 315 313
f 250 316 315
f 250 244 308
f 250 308 316
f 251 311 248
f 317 312 311
f 251 317 311
f 252 317 251
f 318 252 253
f 318 317 252
f 319 253 254
f 319 318 253
f 321 319 320
f 319 256 320
f 319 254 256
f 258 320 256
f 313 314 261
f 314 260 261
f 314 322 260
f 313 261 249
f 323 321 320
f 320 258 323
f 258 324 323
f 258 262 324
f 322 263 260
f 325 263 322
f 265 327 326
f 324 265 326
f 262 265 324
f 327 328 326
f 330 329 268
f 268 329 267
f 268 263 325
f 268 325 330
f 270 327 265
f 332 331 272
f 272 331 270
f 331 328 270
f 328 327 270
f 332 333 331
f 335 334 275
f 275 334 274
f 275 267 329
f 275 329 335
f 277 336 278
f 336 337 278
f 278 337 272
f 337 338 272
f 338 332 272
f 332 338 333
f 340 279 339
f 279 334 339
f 279 274 334
f 341 340 339
f 281 342 282
f 342 343 282
f 282 343 277
f 343 344 277
f 344 336 277
f 336 344 337
f 340 283 279
f 346 345 285
f 346 285 283
f 341 346 283
f 340 341 283
f 348 347 345
f 348 345 346
f 349 347 348
f 351 350 288
f 351 288 287
f 281 288 342
f 288 352 342
f 288 350 352
f 342 352 343
f 353 289 345
f 345 289 285
f 354 345 347
f 353 345 354
f 347 349 355
f 347 355 354
f 291 356 292
f 292 356 357
f 358 292 357
f 293 292 358
f 287 293 351
f 351 293 358
f 353 294 289
f 294 353 295
f 295 353 354
f 355 359 354
f 359 295 354
f 359 296 295
f 359 361 360
f 297 359 360
f 296 359 297
f 360 298 297
f 300 362 299
f 362 363 299
f 299 363 291
f 363 364 291
f 364 356 291
f 356 364 357
f 361 365 360
f 360 365 298
f 365 301 298
f 365 366 301
f 301 367 302
f 366 367 301
f 300 302 362
f 302 368 362
f 302 367 368
f 362 368 363
f 371 370 369
f 373 372 369
f 369 372 371
f 373 374 372
f 377 376 375
f 304 305 375
f 305 377 375
f 305 378 377
f 306 369 370
f 378 306 370
f 305 306 378
f 369 306 307
f 379 369 307
f 373 369 379
f 374 373 380
f 380 373 379
f 383 382 381
f 383 381 376
f 381 375 376
f 381 384 375
f 384 308 304
f 384 304 375
f 309 379 307
f 385 380 379
f 309 385 379
f 310 385 309
f 387 386 312
f 386 310 312
f 386 385 310
f 387 388 386
f 381 382 315
f 382 314 315
f 382 389 314
f 381 315 316
f 381 316 384
f 384 316 308
f 317 387 312
f 390 388 387
f 317 390 387
f 318 390 317
f 391 318 319
f 391 390 318
f 319 321 391
f 391 321 392
f 389 322 314
f 393 322 389
f 394 392 321
f 394 321 323
f 396 395 324
f 395 323 324
f 395 394 323
f 396 397 395
f 393 325 322
f 398 325 393
f 326 396 324
f 400 399 328
f 328 399 326
f 399 397 326
f 397 396 326
f 400 401 399
f 402 329 330
f 403 402 330
f 325 403 330
f 398 403 325
f 331 400 328
f 331 333 400
f 333 401 400
f 333 404 401
f 405 334 335
f 406 405 335
f 406 335 329
f 407 406 329
f 402 407 329
f 407 402 403
f 409 408 338
f 409 338 337
f 333 338 404
f 404 338 408
f 405 339 334
f 341 339 405
f 406 341 405
f 410 341 406
f 343 411 344
f 411 412 344
f 412 337 344
f 412 409 337
f 410 413 341
f 341 413 346
f 413 415 414
f 348 413 414
f 346 413 348
f 414 349 348
f 351 416 350
f 417 352 350
f 417 350 416
f 417 418 352
f 352 418 343
f 418 419 343
f 419 411 343
f 411 419 412
f 415 420 414
f 355 349 414
f 421 355 414
f 420 421 414
f 355 421 422
f 423 422 421
f 425 424 358
f 425 358 357
f 351 358 416
f 358 426 416
f 358 424 426
f 416 426 417
f 417 426 427
f 417 427 418
f 422 359 355
f 429 428 361
f 429 361 359
f 423 429 359
f 422 423 359
f 430 428 429
f 432 431 364
f 432 364 363
f 357 364 425
f 425 364 431
f 428 365 361
f 430 433 428
f 433 365 428
f 433 366 365
f 366 434 367
f 433 434 366
f 367 435 368
f 434 435 367
f 363 368 432
f 432 368 435
f 438 437 436
f 436 439 438
f 442 441 440
f 442 440 437
f 440 436 437
f 440 443 436
f 371 444 370
f 444 436 370
f 436 443 370
f 436 444 439
f 445 371 372
f 445 444 371
f 447 446 374
f 446 372 374
f 446 445 372
f 447 448 446
f 440 441 377
f 441 376 377
f 441 449 376
f 440 377 378
f 440 378 443
f 443 378 370
f 380 450 447
f 380 447 374
f 448 447 451
f 447 452 451
f 447 450 452
f 452 453 451
f 454 382 383
f 455 454 383
f 376 455 383
f 449 455 376
f 385 450 380
f 450 385 386
f 450 386 452
f 457 456 388
f 388 456 386
f 456 453 386
f 453 452 386
f 457 458 456
f 460 459 454
f 459 382 454
f 459 389 382
f 460 454 455
f 390 457 388
f 461 458 457
f 390 461 457
f 391 461 390
f 391 392 461
f 461 392 462
f 459 393 389
f 463 393 459
f 464 462 392
f 464 392 394
f 465 394 395
f 465 464 394
f 395 397 465
f 465 397 466
f 463 398 393
f 467 398 463
f 397 399 468
f 469 397 468
f 466 397 469
f 401 468 399
f 467 403 398
f 470 403 467
f 469 468 471
f 469 471 472
f 404 471 401
f 401 471 468
f 474 473 407
f 407 473 406
f 407 403 470
f 407 470 474
f 472 471 408
f 409 472 408
f 475 472 409
f 408 471 404
f 477 410 476
f 410 473 476
f 410 406 473
f 478 477 476
f 412 475 409
f 412 479 475
f 477 413 410
f 481 480 415
f 481 415 413
f 478 481 413
f 477 478 413
f 482 480 481
f 484 483 419
f 484 419 418
f 412 419 479
f 479 419 483
f 480 420 415
f 482 485 480
f 485 420 480
f 485 421 420
f 487 486 423
f 421 487 423
f 485 487 421
f 488 486 487
f 425 489 424
f 424 489 490
f 491 424 490
f 426 424 491
f 426 492 427
f 491 492 426
f 418 427 484
f 484 427 492
f 486 429 423
f 494 493 430
f 494 430 429
f 488 494 429
f 486 488 429
f 495 493 494
f 497 496 431
f 497 431 432
f 425 431 489
f 431 498 489
f 431 496 498
f 489 498 490
f 493 433 430
f 495 499 493
f 499 433 493
f 499 434 433
f 434 500 435
f 499 500 434
f 432 435 497
f 497 435 500
f 503 502 501
f 437 438 501
f 438 503 501
f 438 504 503
f 506 505 439
f 505 438 439
f 505 504 438
f 506 507 505
f 501 502 442
f 502 441 442
f 502 508 441
f 501 442 437
f 444 506 439
f 509 507 506
f 444 509 506
f 445 509 444
f 510 445 446
f 510 509 445
f 512 511 448
f 511 446 448
f 511 510 446
f 512 513 511
f 508 449 441
f 514 449 508
f 451 512 448
f 516 515 453
f 453 515 451
f 515 513 451
f 513 512 451
f 516 517 515
f 514 455 449
f 518 455 514
f 456 516 453
f 520 519 458
f 458 519 456
f 519 517 456
f 517 516 456
f 520 521 519
f 522 459 460
f 523 522 460
f 455 523 460
f 518 523 455
f 461 520 458
f 461 462 520
f 462 521 520
f 462 524 521
f 525 463 522
f 522 463 459
f 522 523 526
f 522 526 525
f 527 524 462
f 527 462 464
f 529 527 528
f 527 465 528
f 527 464 465
f 466 528 465
f 530 467 525
f 525 467 463
f 525 526 531
f 525 531 530
f 532 529 528
f 528 466 532
f 466 533 532
f 466 469 533
f 535 534 530
f 534 467 530
f 534 470 467
f 535 530 531
f 472 533 469
f 472 536 533
f 537 473 474
f 538 537 474
f 470 538 474
f 534 538 470
f 475 536 472
f 475 539 536
f 537 476 473
f 478 476 537
f 538 478 537
f 540 478 538
f 479 539 475
f 479 541 539
f 540 542 478
f 478 542 481
f 544 543 482
f 481 544 482
f 542 544 481
f 545 543 544
f 548 547 546
f 549 546 547
f 551 550 483
f 551 483 484
f 479 483 541
f 541 483 550
f 543 485 482
f 545 552 543
f 552 485 543
f 552 487 485
f 554 553 488
f 487 554 488
f 552 554 487
f 555 553 554
f 548 546 491
f 490 548 491
f 556 548 490
f 549 557 546
f 557 491 546
f 557 492 491
f 484 492 551
f 551 492 557
f 553 494 488
f 559 558 495
f 559 495 494
f 555 559 494
f 553 555 494
f 561 560 558
f 561 558 559
f 496 497 560
f 561 496 560
f 562 496 561
f 496 563 498
f 562 563 496
f 490 498 556
f 556 498 563
f 558 499 495
f 499 558 500
f 500 558 560
f 500 560 497
f 565 564 503
f 503 564 502
f 566 503 504
f 566 565 503
f 567 504 505
f 567 566 504
f 569 568 507
f 568 505 507
f 568 567 505
f 569 570 568
f 564 508 502
f 571 508 564
f 509 569 507
f 572 570 569
f 509 572 569
f 510 572 509
f 573 510 511
f 573 572 510
f 575 574 513
f 574 511 513
f 574 573 511
f 575 576 574
f 571 514 508
f 577 514 571
f 515 575 513
f 579 578 517
f 517 578 515
f 578 576 515
f 576 575 515
f 579 580 578
f 577 518 514
f 581 518 577
f 519 579 517
f 583 582 521
f 521 582 519
f 582 580 519
f 580 579 519
f 583 584 582
f 581 523 518
f 585 523 581
f 524 586 583
f 524 583 521
f 584 583 587
f 587 583 586
f 590 589 588
f 585 590 588
f 526 585 588
f 523 585 526
f 527 586 524
f 527 529 586
f 529 587 586
f 529 591 587
f 588 589 592
f 592 589 593
f 592 531 526
f 592 526 588
f 594 591 529
f 594 529 532
f 532 533 594
f 594 533 595
f 597 596 593
f 596 534 593
f 535 592 593
f 535 593 534
f 535 531 592
f 596 597 598
f 536 595 533
f 536 599 595
f 600 538 596
f 596 538 534
f 596 598 601
f 602 596 601
f 600 596 602
f 603 602 601
f 539 599 536
f 539 604 599
f 605 540 600
f 600 540 538
f 606 600 602
f 605 600 606
f 602 603 607
f 602 607 606
f 541 604 539
f 541 608 604
f 605 542 540
f 542 605 544
f 544 605 606
f 610 609 545
f 610 545 544
f 607 610 544
f 606 607 544
f 612 611 609
f 612 609 610
f 613 611 612
f 615 614 547
f 615 547 548
f 549 547 614
f 549 614 616
f 551 617 550
f 617 618 550
f 618 541 550
f 618 608 541
f 609 552 545
f 552 609 554
f 554 609 611
f 620 619 555
f 620 555 554
f 613 620 554
f 611 613 554
f 621 619 620
f 624 623 622
f 623 615 622
f 615 556 622
f 615 548 556
f 616 625 549
f 549 625 557
f 551 557 617
f 557 626 617
f 557 625 626
f 617 626 618
f 619 559 555
f 621 627 619
f 627 559 619
f 627 561 559
f 561 628 562
f 627 628 561
f 622 563 624
f 563 628 624
f 563 562 628
f 563 622 556
f 629 564 565
f 629 565 630
f 565 631 630
f 565 566 631
f 632 566 567
f 632 631 566
f 633 567 568
f 633 632 567
f 568 570 633
f 633 570 634
f 635 571 629
f 629 571 564
f 629 630 636
f 629 636 635
f 637 634 570
f 637 570 572
f 638 572 573
f 638 637 572
f 640 638 639
f 638 574 639
f 638 573 574
f 576 639 574
f 641 577 635
f 635 577 571
f 635 636 642
f 635 642 641
f 643 640 639
f 645 643 644
f 644 643 578
f 643 639 578
f 639 576 578
f 580 644 578
f 647 646 641
f 646 577 641
f 646 581 577
f 647 641 642
f 648 645 644
f 648 644 580
f 582 648 580
f 649 648 582
f 582 584 649
f 649 584 650
f 646 585 581
f 651 585 646
f 587 653 652
f 650 587 652
f 584 587 650
f 653 654 652
f 655 589 590
f 585 651 656
f 655 585 656
f 657 655 656
f 590 585 655
f 659 658 657
f 659 657 656
f 660 658 659
f 591 661 653
f 591 653 587
f 654 653 662
f 662 653 661
f 663 593 655
f 655 593 589
f 664 655 657
f 663 655 664
f 665 657 658
f 664 657 665
f 658 660 666
f 667 658 666
f 665 658 667
f 668 667 666
f 594 661 591
f 594 595 661
f 595 662 661
f 595 669 662
f 663 597 593
f 597 663 598
f 663 670 598
f 663 664 670
f 671 664 665
f 670 664 671
f 667 673 672
f 671 667 672
f 665 667 671
f 673 667 668
f 676 675 674
f 678 677 674
f 678 674 675
f 678 669 677
f 669 599 677
f 669 595 599
f 670 601 598
f 601 670 603
f 670 679 603
f 670 671 679
f 671 672 680
f 681 671 680
f 679 671 681
f 683 682 681
f 683 681 680
f 684 682 683
f 676 674 685
f 676 685 686
f 687 674 677
f 685 674 687
f 604 687 599
f 599 687 677
f 688 607 679
f 679 607 603
f 689 679 681
f 688 679 689
f 690 681 682
f 689 681 690
f 682 684 691
f 682 691 690
f 694 693 692
f 692 693 686
f 685 692 686
f 695 692 685
f 696 685 687
f 695 685 696
f 608 696 604
f 604 696 687
f 688 610 607
f 610 688 612
f 612 688 689
f 612 689 613
f 689 697 613
f 689 690 697
f 690 691 698
f 699 690 698
f 697 690 699
f 700 699 698
f 694 692 614
f 615 694 614
f 701 694 615
f 614 692 616
f 692 702 616
f 692 695 702
f 703 695 696
f 702 695 703
f 618 703 608
f 608 703 696
f 697 620 613
f 620 697 621
f 697 704 621
f 697 699 704
f 699 700 705
f 706 699 705
f 704 699 706
f 623 624 706
f 705 623 706
f 707 623 705
f 615 623 701
f 701 623 707
f 702 625 616
f 625 702 626
f 626 702 703
f 626 703 618
f 704 627 621
f 627 704 628
f 628 704 706
f 628 706 624
f 708 630 631
f 708 631 709
f 631 710 709
f 631 632 710
f 712 710 711
f 710 633 711
f 710 632 633
f 634 711 633
f 713 636 708
f 708 636 630
f 708 709 714
f 708 714 713
f 715 712 711
f 717 715 716
f 716 715 637
f 715 711 637
f 711 634 637
f 638 718 637
f 637 718 716
f 640 718 638
f 719 642 713
f 713 642 636
f 713 714 720
f 721 713 720
f 719 713 721
f 723 722 721
f 723 721 720
f 722 723 717
f 716 722 717
f 724 722 716
f 725 716 718
f 724 716 725
f 643 726 640
f 726 718 640
f 726 725 718
f 645 726 643
f 727 646 647
f 642 719 647
f 719 727 647
f 719 728 727
f 729 719 721
f 728 719 729
f 722 731 730
f 729 722 730
f 721 722 729
f 731 722 724
f 731 724 732
f 732 724 725
f 732 725 733
f 733 725 726
f 733 726 734
f 736 734 735
f 735 734 648
f 734 726 648
f 726 645 648
f 649 737 648
f 648 737 735
f 650 737 649
f 738 651 727
f 727 651 646
f 739 727 728
f 738 727 739
f 740 728 729
f 739 728 740
f 729 730 741
f 729 741 740
f 736 735 742
f 736 742 743
f 744 735 737
f 742 735 744
f 652 745 650
f 745 737 650
f 745 744 737
f 654 745 652
f 738 656 651
f 656 738 659
f 659 738 739
f 659 739 660
f 739 746 660
f 739 740 746
f 740 741 747
f 748 740 747
f 746 740 748
f 750 749 748
f 750 748 747
f 752 751 749
f 752 749 750
f 753 751 752
f 754 743 742
f 756 755 754
f 742 756 754
f 744 756 742
f 757 744 745
f 756 744 757
f 662 757 654
f 654 757 745
f 746 666 660
f 666 746 668
f 746 758 668
f 746 748 758
f 759 748 749
f 758 748 759
f 760 749 751
f 759 749 760
f 751 753 761
f 751 761 760
f 755 756 762
f 755 762 763
f 764 756 757
f 762 756 764
f 669 764 662
f 662 764 757
f 765 672 673
f 668 758 673
f 758 765 673
f 758 766 765
f 767 758 759
f 766 758 767
f 768 759 760
f 767 759 768
f 760 761 769
f 760 769 768
f 772 771 770
f 770 771 763
f 770 763 762
f 676 770 762
f 675 676 762
f 675 762 678
f 678 762 764
f 678 764 669
f 765 680 672
f 680 765 683
f 683 765 766
f 683 766 684
f 766 773 684
f 766 767 773
f 774 767 768
f 773 767 774
f 768 769 775
f 776 768 775
f 774 768 776
f 776 775 772
f 770 776 772
f 777 776 770
f 686 777 676
f 676 777 770
f 778 691 773
f 773 691 684
f 779 773 774
f 778 773 779
f 780 774 776
f 779 774 780
f 694 780 693
f 780 777 693
f 780 776 777
f 693 777 686
f 778 698 691
f 698 778 700
f 778 781 700
f 778 779 781
f 782 779 780
f 781 779 782
f 701 782 694
f 694 782 780
f 781 705 700
f 705 781 707
f 707 781 782
f 707 782 701
f 783 709 710
f 712 783 710
f 784 714 783
f 783 714 709
f 715 785 712
f 785 783 712
f 785 784 783
f 717 785 715
f 784 720 714
f 720 784 723
f 723 784 785
f 723 785 717
f 786 730 731
f 732 787 731
f 731 787 786
f 733 788 732
f 732 788 787
f 734 789 733
f 733 789 788
f 736 789 734
f 790 741 786
f 786 741 730
f 791 786 787
f 790 786 791
f 792 787 788
f 791 787 792
f 793 788 789
f 792 788 793
f 743 793 736
f 736 793 789
f 790 747 741
f 747 790 750
f 750 790 791
f 750 791 752
f 752 791 792
f 752 792 753
f 792 794 753
f 792 793 794
f 754 795 743
f 795 793 743
f 795 794 793
f 755 795 754
f 796 761 794
f 794 761 753
f 797 794 795
f 796 794 797
f 763 797 755
f 755 797 795
f 798 769 796
f 796 769 761
f 772 798 771
f 798 797 771
f 798 796 797
f 771 797 763
f 798 775 769
f 775 798 772
