v 27.7 41.0 -10.0
v 28.0 41.0 -10.3
v 28.0 40.7 -10.0
v 28.0 40.6 -9.0
v 27.6 41.0 -9.0
v 28.0 40.7 -8.0
v 27.8 41.0 -8.0
v 28.0 41.0 -7.7
v 27.2 42.0 -10.0
v 28.0 42.0 -10.7
v 27.4 42.0 -9.0
v 27.7 42.0 -8.0
v 28.0 42.0 -7.6
v 28.0 43.0 -12.0
v 28.0 43.0 -12.0
v 28.0 43.0 -12.0
v 28.0 42.4 -11.0
v 27.6 43.0 -11.0
v 27.4 43.0 -10.0
v 27.6 43.0 -9.0
v 28.0 43.0 -8.4
v 28.0 42.5 -8.0
v 28.0 43.0 -12.0
v 27.7 44.0 -11.0
v 28.0 44.0 -11.4
v 27.6 44.0 -10.0
v 27.6 44.0 -9.0
v 28.0 44.0 -8.5
v 28.0 44.4 -11.0
v 28.0 44.6 -10.0
v 27.9 45.0 -9.0
v 28.0 45.0 -9.2
v 28.0 45.0 -8.9
v 28.0 45.1 -9.0
v 28.9 39.0 -7.0
v 29.0 39.0 -7.2
v 29.0 38.9 -7.0
v 29.0 39.0 -6.9
v 28.6 40.0 -9.0
v 29.0 40.0 -9.6
v 29.0 39.6 -9.0
v 29.0 39.4 -8.0
v 28.5 40.0 -8.0
v 28.6 40.0 -7.0
v 29.0 40.0 -6.6
v 28.7 41.0 -11.0
v 29.0 41.0 -11.4
v 29.0 40.6 -11.0
v 29.0 40.3 -10.0
v 28.5 41.0 -7.0
v 29.0 41.0 -6.5
v 28.3 42.0 -11.0
v 29.0 42.0 -11.7
v 28.6 42.0 -7.0
v 29.0 42.0 -6.6
v 29.0 43.0 -12.5
v 29.0 42.3 -12.0
v 28.3 43.0 -8.0
v 28.9 43.0 -7.0
v 29.0 43.0 -6.9
v 28.4 44.0 -12.0
v 29.0 44.0 -12.5
v 28.5 44.0 -8.0
v 29.0 44.0 -7.5
v 29.0 43.1 -7.0
v 28.7 45.0 -12.0
v 29.0 45.0 -12.4
v 28.4 45.0 -11.0
v 28.3 45.0 -10.0
v 28.7 45.0 -8.0
v 29.0 45.0 -7.7
v 29.0 45.4 -12.0
v 28.7 46.0 -11.0
v 29.0 46.0 -11.5
v 28.5 46.0 -10.0
v 28.5 46.0 -9.0
v 29.0 46.0 -8.4
v 29.0 45.4 -8.0
v 29.0 46.4 -11.0
v 28.7 47.0 -10.0
v 29.0 47.0 -10.4
v 28.8 47.0 -9.0
v 29.0 47.0 -8.8
v 29.0 47.3 -10.0
v 29.0 47.2 -9.0
v 29.8 33.0 -11.0
v 30.0 33.0 -11.1
v 30.0 32.9 -11.0
v 30.0 33.0 -10.9
v 29.6 34.0 -11.0
v 30.0 34.0 -11.6
v 30.0 33.6 -10.0
v 29.7 34.0 -10.0
v 30.0 34.0 -9.7
v 29.9 35.0 -12.0
v 30.0 35.0 -12.1
v 30.0 34.9 -12.0
v 29.5 35.0 -11.0
v 29.5 35.0 -10.0
v 30.0 34.7 -9.0
v 29.8 35.0 -9.0
v 30.0 35.0 -8.7
v 30.0 35.1 -12.0
v 29.6 36.0 -11.0
v 30.0 36.0 -11.6
v 29.5 36.0 -10.0
v 29.5 36.0 -9.0
v 30.0 35.7 -8.0
v 29.7 36.0 -8.0
v 30.0 36.0 -7.6
v 29.9 37.0 -12.0
v 30.0 37.0 -12.2
v 30.0 36.8 -12.0
v 29.5 37.0 -11.0
v 29.5 37.0 -10.0
v 29.5 37.0 -9.0
v 29.5 37.0 -8.0
v 30.0 36.6 -7.0
v 29.7 37.0 -7.0
v 30.0 37.0 -6.6
v 29.6 38.0 -12.0
v 30.0 38.0 -12.5
v 29.5 38.0 -11.0
v 29.5 38.0 -10.0
v 29.5 38.0 -9.0
v 29.5 38.0 -8.0
v 29.5 38.0 -7.0
v 30.0 38.0 -6.5
v 29.6 39.0 -12.0
v 30.0 39.0 -12.5
v 29.5 39.0 -11.0
v 29.5 39.0 -10.0
v 29.4 39.0 -9.0
v 29.3 39.0 -8.0
v 30.0 39.0 -6.3
v 29.6 40.0 -12.0
v 30.0 40.0 -12.6
v 29.4 40.0 -11.0
v 29.2 40.0 -10.0
v 30.0 39.5 -6.0
v 29.7 40.0 -6.0
v 30.0 40.0 -5.7
v 29.9 41.0 -15.0
v 30.0 41.0 -15.2
v 30.0 40.9 -15.0
v 30.0 41.0 -14.6
v 29.7 41.0 -13.0
v 30.0 41.0 -13.7
v 30.0 40.5 -13.0
v 29.4 41.0 -12.0
v 29.9 41.0 -6.0
v 30.0 41.0 -5.9
v 29.9 42.0 -16.0
v 30.0 42.0 -16.2
v 30.0 41.7 -16.0
v 29.6 42.0 -15.0
v 30.0 41.2 -14.0
v 29.6 42.0 -14.0
v 29.5 42.0 -13.0
v 29.2 42.0 -12.0
v 30.0 41.1 -6.0
v 30.0 42.0 -6.6
v 30.0 42.3 -16.0
v 29.6 43.0 -15.0
v 30.0 43.0 -15.5
v 29.5 43.0 -14.0
v 29.4 43.0 -13.0
v 29.1 43.0 -7.0
v 30.0 42.5 -7.0
v 30.0 43.0 -7.4
v 29.8 44.0 -15.0
v 30.0 44.0 -15.2
v 29.5 44.0 -14.0
v 29.4 44.0 -13.0
v 30.0 44.0 -7.6
v 30.0 44.3 -15.0
v 29.7 45.0 -14.0
v 30.0 45.0 -14.4
v 29.4 45.0 -13.0
v 30.0 45.0 -7.6
v 30.0 45.4 -14.0
v 29.7 46.0 -13.0
v 30.0 46.0 -13.4
v 29.4 46.0 -12.0
v 29.6 46.0 -8.0
v 30.0 46.0 -7.7
v 30.0 46.3 -13.0
v 30.0 46.6 -12.0
v 29.5 47.0 -11.0
v 30.0 47.0 -11.5
v 30.0 46.4 -8.0
v 30.0 47.0 -8.4
v 30.0 47.4 -11.0
v 30.0 47.9 -10.0
v 30.0 47.5 -9.0
v 30.7 33.0 -12.0
v 31.0 33.0 -12.2
v 31.0 32.3 -12.0
v 30.3 33.0 -11.0
v 31.0 33.0 -11.4
v 30.9 33.0 -10.0
v 31.0 33.0 -10.4
v 31.0 32.9 -10.0
v 31.0 33.0 -9.9
v 30.5 34.0 -12.0
v 31.0 34.0 -12.4
v 31.0 33.1 -11.0
v 31.0 34.0 -9.3
v 31.0 35.0 -12.4
v 31.0 34.3 -9.0
v 31.0 35.0 -8.3
v 31.0 35.6 -12.0
v 31.0 36.0 -11.7
v 31.0 35.3 -8.0
v 31.0 35.5 -7.0
v 30.4 36.0 -7.0
v 31.0 35.7 -6.0
v 30.7 36.0 -6.0
v 31.0 36.0 -5.6
v 31.0 37.0 -14.0
v 31.0 37.0 -14.0
v 31.0 37.0 -14.0
v 31.0 36.9 -13.0
v 30.8 37.0 -13.0
v 31.0 36.9 -12.0
v 30.4 37.0 -6.0
v 31.0 36.6 -5.0
v 30.8 37.0 -5.0
v 31.0 37.0 -4.7
v 30.6 38.0 -14.0
v 31.0 38.0 -14.4
v 30.4 38.0 -13.0
v 30.4 38.0 -6.0
v 30.6 38.0 -5.0
v 31.0 38.0 -4.6
v 30.6 39.0 -14.0
v 31.0 39.0 -14.5
v 30.4 39.0 -13.0
v 30.3 39.0 -6.0
v 30.7 39.0 -5.0
v 31.0 39.0 -4.7
v 30.7 40.0 -17.0
v 31.0 40.0 -17.4
v 31.0 39.7 -17.0
v 31.0 39.6 -16.0
v 30.7 40.0 -16.0
v 31.0 40.0 -15.2
v 30.6 40.0 -14.0
v 31.0 40.0 -14.9
v 30.3 40.0 -13.0
v 31.0 39.4 -5.0
v 31.0 40.0 -5.4
v 30.8 41.0 -18.0
v 31.0 41.0 -18.2
v 31.0 40.7 -18.0
v 30.5 41.0 -17.0
v 30.3 41.0 -16.0
v 31.0 40.1 -15.0
v 30.2 41.0 -14.0
v 30.2 41.0 -6.0
v 31.0 40.6 -6.0
v 31.0 41.0 -6.5
v 31.0 41.3 -18.0
v 30.7 42.0 -17.0
v 31.0 42.0 -17.5
v 30.5 42.0 -7.0
v 31.0 41.5 -7.0
v 31.0 42.0 -7.4
v 31.0 42.4 -17.0
v 30.5 43.0 -16.0
v 31.0 43.0 -16.4
v 30.9 43.0 -8.0
v 31.0 42.9 -8.0
v 31.0 43.0 -8.1
v 31.0 43.4 -16.0
v 31.0 44.0 -15.5
v 30.5 44.0 -8.0
v 31.0 44.0 -8.4
v 31.0 44.8 -15.0
v 31.0 45.0 -14.8
v 30.6 45.0 -8.0
v 31.0 45.0 -8.3
v 30.5 46.0 -14.0
v 31.0 46.0 -14.7
v 31.0 45.5 -8.0
v 31.0 46.0 -7.8
v 31.0 46.4 -14.0
v 31.0 46.6 -13.0
v 30.6 47.0 -12.0
v 31.0 47.0 -12.4
v 30.9 47.0 -8.0
v 31.0 47.0 -7.9
v 31.0 47.3 -12.0
v 31.0 47.5 -11.0
v 31.0 47.6 -10.0
v 31.0 47.5 -9.0
v 31.0 47.1 -8.0
v 32.0 33.0 -12.4
v 32.0 32.1 -12.0
v 32.0 33.0 -11.3
v 32.0 33.0 -10.5
v 32.0 32.8 -10.0
v 32.0 33.0 -9.7
v 32.0 34.0 -12.6
v 32.0 33.2 -11.0
v 32.0 33.6 -9.0
v 31.5 34.0 -9.0
v 32.0 34.0 -8.6
v 32.0 35.0 -12.5
v 32.0 34.5 -8.0
v 31.3 35.0 -8.0
v 32.0 34.6 -7.0
v 31.5 35.0 -7.0
v 32.0 34.7 -6.0
v 31.7 35.0 -6.0
v 32.0 35.0 -5.6
v 32.0 35.9 -12.0
v 32.0 36.0 -11.9
v 32.0 35.5 -5.0
v 31.5 36.0 -5.0
v 32.0 36.0 -4.6
v 31.9 37.0 -17.0
v 32.0 37.0 -17.1
v 32.0 36.9 -17.0
v 32.0 37.0 -16.8
v 31.9 37.0 -15.0
v 32.0 37.0 -15.2
v 32.0 36.9 -15.0
v 31.1 37.0 -14.0
v 32.0 37.0 -14.5
v 31.5 37.0 -13.0
v 32.0 37.0 -12.8
v 32.0 36.1 -12.0
v 32.0 37.0 -4.3
v 31.7 38.0 -17.0
v 32.0 38.0 -17.4
v 32.0 38.0 -16.2
v 31.5 38.0 -15.0
v 32.0 38.0 -15.9
v 32.0 37.1 -14.0
v 32.0 37.1 -13.0
v 32.0 38.0 -4.1
v 31.9 39.0 -19.0
v 32.0 39.0 -19.1
v 32.0 38.9 -19.0
v 32.0 39.0 -18.6
v 31.5 39.0 -17.0
v 32.0 39.0 -17.8
v 32.0 38.1 -16.0
v 31.5 39.0 -16.0
v 31.4 39.0 -15.0
v 32.0 39.0 -4.4
v 31.6 40.0 -19.0
v 32.0 40.0 -19.4
v 32.0 39.1 -18.0
v 31.4 40.0 -18.0
v 31.1 40.0 -15.0
v 31.6 40.0 -5.0
v 32.0 40.0 -4.7
v 31.6 41.0 -19.0
v 32.0 41.0 -19.4
v 31.6 41.0 -7.0
v 32.0 40.8 -7.0
v 32.0 41.0 -7.2
v 32.0 40.5 -6.0
v 32.0 40.2 -5.0
v 31.8 42.0 -19.0
v 32.0 42.0 -19.2
v 31.5 42.0 -18.0
v 32.0 42.0 -7.5
v 32.0 42.2 -19.0
v 32.0 42.4 -18.0
v 32.0 42.6 -17.0
v 32.0 43.0 -16.4
v 31.2 43.0 -8.0
v 32.0 43.0 -7.7
v 32.0 43.4 -16.0
v 32.0 44.0 -15.6
v 32.0 43.5 -8.0
v 32.0 44.0 -8.3
v 31.5 45.0 -15.0
v 32.0 45.0 -15.2
v 32.0 45.0 -8.5
v 32.0 45.3 -15.0
v 32.0 46.0 -14.4
v 31.3 46.0 -8.0
v 32.0 46.0 -8.4
v 32.0 46.3 -14.0
v 32.0 46.5 -13.0
v 32.0 47.0 -12.3
v 31.1 47.0 -8.0
v 32.0 47.0 -8.6
v 32.0 47.2 -12.0
v 32.0 47.4 -11.0
v 32.0 47.5 -10.0
v 32.0 47.4 -9.0
v 33.0 33.0 -12.5
v 33.0 32.6 -12.0
v 33.0 33.0 -11.4
v 33.0 33.0 -10.5
v 33.0 32.8 -10.0
v 33.0 33.0 -9.7
v 32.6 34.0 -13.0
v 33.0 34.0 -13.3
v 33.0 33.5 -13.0
v 33.0 33.2 -11.0
v 33.0 33.5 -9.0
v 33.0 34.0 -8.4
v 33.0 35.0 -23.0
v 33.0 35.0 -23.0
v 33.0 35.0 -23.0
v 33.0 34.8 -22.0
v 32.8 35.0 -22.0
v 33.0 34.8 -21.0
v 32.8 35.0 -21.0
v 33.0 34.8 -20.0
v 32.8 35.0 -20.0
v 33.0 35.0 -19.0
v 33.0 35.0 -19.0
v 33.0 35.0 -19.0
v 32.6 35.0 -13.0
v 33.0 35.0 -13.4
v 33.0 34.3 -8.0
v 33.0 34.5 -7.0
v 33.0 34.5 -6.0
v 33.0 34.7 -5.0
v 32.6 35.0 -5.0
v 33.0 35.0 -4.7
v 33.0 35.0 -23.0
v 32.8 36.0 -22.0
v 33.0 36.0 -22.3
v 32.7 36.0 -21.0
v 32.7 36.0 -20.0
v 32.7 36.0 -19.0
v 33.0 35.6 -18.0
v 32.6 36.0 -18.0
v 33.0 35.8 -17.0
v 32.7 36.0 -17.0
v 33.0 36.0 -16.7
v 33.0 35.7 -13.0
v 32.1 36.0 -12.0
v 33.0 36.0 -12.8
v 33.0 35.9 -4.0
v 32.9 36.0 -4.0
v 33.0 36.0 -3.9
v 33.0 36.2 -22.0
v 33.0 36.4 -21.0
v 33.0 36.5 -20.0
v 33.0 36.8 -19.0
v 32.5 37.0 -18.0
v 33.0 37.0 -18.8
v 33.0 36.5 -16.0
v 32.4 37.0 -16.0
v 33.0 36.5 -15.0
v 33.0 36.5 -14.0
v 32.2 37.0 -14.0
v 33.0 36.2 -13.0
v 32.1 37.0 -13.0
v 32.6 37.0 -4.0
v 33.0 37.0 -3.8
v 32.7 38.0 -19.0
v 33.0 38.0 -19.3
v 33.0 37.3 -19.0
v 32.4 38.0 -18.0
v 32.1 38.0 -16.0
v 33.0 37.4 -4.0
v 33.0 38.0 -4.7
v 33.0 39.0 -19.6
v 32.1 39.0 -18.0
v 33.0 39.0 -4.2
v 32.8 40.0 -20.0
v 33.0 40.0 -20.1
v 33.0 39.8 -20.0
v 33.0 40.0 -4.8
v 33.0 40.2 -20.0
v 33.0 41.0 -19.7
v 33.0 40.6 -7.0
v 33.0 41.0 -7.4
v 33.0 40.4 -6.0
v 33.0 40.2 -5.0
v 33.0 42.0 -19.3
v 33.0 42.0 -7.5
v 33.0 42.2 -19.0
v 33.0 42.5 -18.0
v 33.0 42.5 -17.0
v 32.8 43.0 -16.0
v 33.0 42.9 -16.0
v 33.0 43.0 -15.9
v 33.0 43.0 -7.5
v 33.0 44.0 -15.4
v 32.5 44.0 -8.0
v 33.0 44.0 -7.7
v 33.0 44.6 -15.0
v 32.3 45.0 -15.0
v 33.0 45.0 -14.6
v 33.0 44.4 -8.0
v 33.0 45.0 -8.4
v 32.3 46.0 -14.0
v 33.0 45.5 -14.0
v 32.6 46.0 -13.0
v 33.0 45.7 -13.0
v 33.0 46.0 -12.6
v 33.0 46.0 -8.6
v 32.3 47.0 -12.0
v 33.0 46.4 -12.0
v 32.6 47.0 -11.0
v 33.0 46.7 -11.0
v 33.0 47.0 -10.5
v 33.0 47.0 -8.8
v 33.0 47.3 -10.0
v 33.0 47.2 -9.0
v 33.8 32.0 -13.0
v 34.0 32.0 -13.3
v 34.0 31.8 -13.0
v 34.0 31.8 -12.0
v 33.7 32.0 -12.0
v 34.0 32.0 -11.8
v 33.4 33.0 -13.0
v 34.0 33.0 -13.5
v 34.0 33.0 -11.0
v 34.0 33.0 -10.9
v 34.0 32.7 -10.0
v 34.0 33.0 -9.6
v 33.9 34.0 -24.0
v 34.0 34.0 -24.1
v 34.0 33.3 -24.0
v 34.0 33.9 -23.0
v 33.9 34.0 -23.0
v 34.0 34.0 -22.9
v 34.0 34.0 -13.7
v 34.0 33.0 -11.0
v 34.0 33.4 -9.0
v 34.0 33.7 -8.0
v 33.5 34.0 -8.0
v 34.0 34.0 -7.5
v 34.0 34.2 -24.0
v 34.0 35.0 -23.4
v 34.0 35.0 -22.4
v 33.4 35.0 -22.0
v 33.3 35.0 -21.0
v 33.3 35.0 -20.0
v 33.0 35.0 -19.0
v 33.8 35.0 -14.0
v 34.0 35.0 -14.2
v 34.0 34.6 -14.0
v 34.0 34.3 -7.0
v 34.0 34.5 -6.0
v 34.0 34.8 -5.0
v 34.0 35.0 -4.7
v 33.7 36.0 -23.0
v 34.0 36.0 -23.2
v 34.0 35.4 -22.0
v 34.0 35.4 -21.0
v 34.0 35.4 -20.0
v 34.0 35.4 -19.0
v 34.0 35.5 -18.0
v 34.0 35.6 -17.0
v 34.0 36.0 -16.2
v 33.9 36.0 -15.0
v 34.0 36.0 -15.3
v 34.0 35.9 -15.0
v 33.9 36.0 -14.0
v 33.2 36.0 -13.0
v 33.2 36.0 -4.0
v 34.0 36.0 -4.3
v 34.0 36.2 -23.0
v 34.0 36.5 -22.0
v 33.7 37.0 -21.0
v 34.0 37.0 -21.3
v 33.5 37.0 -20.0
v 33.1 37.0 -19.0
v 34.0 36.2 -16.0
v 34.0 36.8 -4.0
v 34.0 37.0 -3.9
v 34.0 37.2 -21.0
v 34.0 37.5 -20.0
v 34.0 38.0 -19.6
v 34.0 37.2 -4.0
v 34.0 38.0 -4.6
v 34.0 39.0 -19.6
v 33.6 39.0 -5.0
v 34.0 38.6 -5.0
v 34.0 39.0 -5.4
v 34.0 40.0 -20.2
v 34.0 39.7 -20.0
v 33.7 40.0 -7.0
v 34.0 39.8 -7.0
v 34.0 40.0 -7.2
v 33.5 40.0 -6.0
v 34.0 39.5 -6.0
v 33.2 40.0 -5.0
v 33.6 41.0 -20.0
v 34.0 41.0 -20.2
v 34.0 41.0 -7.5
v 34.0 41.2 -20.0
v 34.0 41.7 -19.0
v 33.4 42.0 -19.0
v 34.0 42.0 -18.6
v 34.0 42.0 -7.5
v 34.0 42.4 -18.0
v 34.0 42.6 -17.0
v 33.2 43.0 -16.0
v 34.0 43.0 -16.4
v 34.0 43.0 -7.5
v 34.0 43.4 -16.0
v 34.0 44.0 -15.5
v 34.0 44.0 -7.7
v 34.0 44.5 -15.0
v 34.0 45.0 -14.5
v 34.0 44.3 -8.0
v 34.0 45.0 -8.6
v 34.0 45.4 -14.0
v 34.0 45.5 -13.0
v 33.5 46.0 -12.0
v 34.0 45.7 -12.0
v 34.0 46.0 -11.5
v 33.6 46.0 -9.0
v 34.0 45.5 -9.0
v 34.0 46.0 -9.5
v 34.0 46.3 -11.0
v 33.3 47.0 -10.0
v 34.0 46.4 -10.0
v 33.2 47.0 -9.0
v 34.7 32.0 -14.0
v 35.0 32.0 -14.2
v 35.0 31.8 -14.0
v 35.0 31.5 -13.0
v 35.0 31.6 -12.0
v 35.0 32.0 -11.5
v 34.5 33.0 -14.0
v 35.0 33.0 -14.5
v 35.0 32.5 -11.0
v 34.0 33.0 -11.0
v 35.0 32.6 -10.0
v 35.0 33.0 -9.5
v 35.0 34.0 -24.0
v 35.0 33.9 -24.0
v 34.1 34.0 -23.0
v 35.0 34.0 -24.0
v 34.4 34.0 -14.0
v 35.0 34.0 -14.4
v 35.0 33.4 -9.0
v 35.0 33.5 -8.0
v 35.0 33.9 -7.0
v 34.7 34.0 -7.0
v 35.0 34.0 -6.8
v 35.0 34.0 -24.0
v 35.0 34.7 -23.0
v 35.0 35.0 -23.3
v 35.0 35.0 -22.7
v 35.0 35.0 -14.6
v 35.0 34.6 -6.0
v 34.4 35.0 -5.0
v 35.0 35.0 -5.5
v 35.0 36.0 -23.2
v 35.0 35.5 -22.0
v 35.0 35.5 -21.0
v 35.0 35.5 -20.0
v 35.0 35.5 -19.0
v 35.0 35.5 -18.0
v 35.0 35.5 -17.0
v 35.0 35.6 -16.0
v 34.3 36.0 -16.0
v 35.0 35.8 -15.0
v 35.0 35.4 -5.0
v 35.0 36.0 -4.6
v 35.0 36.2 -23.0
v 35.0 36.5 -22.0
v 35.0 37.0 -21.5
v 34.2 37.0 -4.0
v 35.0 37.0 -4.4
v 35.0 37.4 -21.0
v 35.0 37.7 -20.0
v 35.0 38.0 -19.7
v 35.0 38.0 -4.6
v 35.0 39.0 -19.5
v 35.0 38.5 -5.0
v 35.0 39.0 -5.7
v 34.5 40.0 -20.0
v 35.0 40.0 -19.7
v 35.0 39.5 -7.0
v 35.0 40.0 -7.4
v 35.0 39.3 -6.0
v 35.0 41.0 -20.2
v 35.0 40.6 -20.0
v 35.0 41.0 -7.6
v 35.0 41.2 -20.0
v 35.0 41.6 -19.0
v 35.0 42.0 -18.5
v 35.0 42.0 -7.6
v 35.0 42.5 -18.0
v 35.0 42.8 -17.0
v 35.0 43.0 -16.7
v 35.0 43.0 -7.6
v 35.0 43.7 -16.0
v 35.0 44.0 -15.7
v 34.5 44.0 -8.0
v 35.0 43.6 -8.0
v 35.0 44.0 -8.4
v 35.0 44.6 -15.0
v 35.0 45.0 -14.6
v 34.5 45.0 -9.0
v 35.0 44.6 -9.0
v 35.0 45.0 -9.4
v 35.0 45.5 -14.0
v 35.0 45.6 -13.0
v 35.0 45.7 -12.0
v 34.6 46.0 -11.0
v 35.0 45.8 -11.0
v 34.5 46.0 -10.0
v 35.0 45.6 -10.0
v 36.0 32.0 -14.4
v 36.0 31.6 -14.0
v 36.0 31.5 -13.0
v 36.0 31.6 -12.0
v 36.0 32.0 -11.4
v 36.0 33.0 -15.0
v 36.0 32.3 -11.0
v 36.0 32.6 -10.0
v 36.0 33.0 -9.5
v 35.0 34.0 -24.0
v 36.0 34.0 -14.8
v 36.0 33.4 -9.0
v 36.0 33.6 -8.0
v 35.3 34.0 -7.0
v 36.0 34.0 -7.4
v 35.6 35.0 -23.0
v 35.5 35.0 -15.0
v 36.0 35.0 -15.4
v 36.0 34.3 -15.0
v 36.0 34.5 -7.0
v 35.5 35.0 -6.0
v 36.0 35.0 -6.4
v 35.3 36.0 -23.0
v 36.0 35.7 -22.0
v 36.0 36.0 -22.4
v 36.0 35.5 -21.0
v 36.0 35.5 -20.0
v 36.0 35.5 -19.0
v 36.0 35.5 -18.0
v 36.0 35.5 -17.0
v 36.0 35.4 -16.0
v 36.0 35.3 -6.0
v 36.0 35.7 -5.0
v 36.0 36.0 -4.8
v 36.0 36.5 -22.0
v 36.0 37.0 -21.6
v 36.0 37.0 -4.5
v 36.0 37.5 -21.0
v 36.0 37.8 -20.0
v 36.0 38.0 -19.8
v 36.0 38.0 -4.6
v 36.0 39.0 -19.7
v 35.7 39.0 -7.0
v 36.0 38.8 -7.0
v 36.0 39.0 -7.3
v 35.4 39.0 -6.0
v 36.0 38.6 -6.0
v 36.0 38.4 -5.0
v 36.0 40.0 -19.8
v 36.0 40.0 -7.7
v 36.0 41.0 -20.2
v 36.0 40.6 -20.0
v 35.6 41.0 -8.0
v 36.0 40.5 -8.0
v 36.0 41.0 -8.3
v 36.0 41.2 -20.0
v 36.0 41.6 -19.0
v 36.0 42.0 -18.6
v 35.6 42.0 -8.0
v 36.0 42.0 -8.3
v 35.6 43.0 -18.0
v 36.0 43.0 -18.3
v 35.2 43.0 -17.0
v 36.0 42.5 -8.0
v 36.0 43.0 -7.8
v 36.0 43.4 -18.0
v 35.7 44.0 -17.0
v 36.0 44.0 -17.4
v 35.3 44.0 -16.0
v 36.0 43.3 -8.0
v 36.0 44.0 -8.5
v 36.0 44.3 -17.0
v 36.0 44.6 -16.0
v 35.4 45.0 -15.0
v 36.0 45.0 -15.6
v 36.0 44.5 -9.0
v 36.0 45.0 -9.4
v 36.0 45.5 -15.0
v 35.6 46.0 -14.0
v 36.0 46.0 -14.4
v 35.5 46.0 -13.0
v 35.4 46.0 -12.0
v 35.3 46.0 -11.0
v 35.9 46.0 -10.0
v 36.0 46.0 -9.9
v 36.0 46.3 -14.0
v 36.0 46.5 -13.0
v 36.0 46.6 -12.0
v 35.9 47.0 -11.0
v 36.0 47.0 -11.1
v 36.0 47.0 -10.9
v 36.0 46.1 -10.0
v 35.9 48.0 -11.0
v 36.0 48.0 -11.1
v 36.0 48.0 -10.9
v 36.0 48.8 -11.0
v 37.0 32.0 -14.4
v 37.0 31.6 -14.0
v 37.0 31.5 -13.0
v 37.0 31.5 -12.0
v 37.0 31.9 -11.0
v 36.7 32.0 -11.0
v 37.0 32.0 -10.8
v 37.0 33.0 -14.7
v 37.0 32.7 -10.0
v 37.0 33.0 -9.7
v 36.4 34.0 -15.0
v 37.0 34.0 -15.3
v 37.0 33.5 -15.0
v 37.0 33.5 -9.0
v 37.0 33.8 -8.0
v 37.0 34.0 -7.8
v 37.0 35.0 -15.8
v 36.6 35.0 -7.0
v 37.0 35.0 -7.3
v 37.0 36.0 -22.5
v 37.0 35.5 -22.0
v 37.0 35.4 -21.0
v 37.0 35.4 -20.0
v 37.0 35.4 -19.0
v 37.0 35.4 -18.0
v 37.0 35.4 -17.0
v 37.0 35.2 -16.0
v 37.0 35.3 -7.0
v 37.0 35.7 -6.0
v 36.4 36.0 -5.0
v 37.0 36.0 -5.5
v 36.5 37.0 -22.0
v 37.0 37.0 -22.3
v 37.0 36.5 -5.0
v 37.0 37.0 -4.6
v 37.0 37.5 -22.0
v 36.5 38.0 -21.0
v 37.0 38.0 -21.6
v 36.2 38.0 -20.0
v 37.0 38.0 -4.7
v 36.7 39.0 -21.0
v 37.0 39.0 -21.4
v 36.4 39.0 -20.0
v 37.0 39.0 -9.0
v 37.0 39.0 -9.0
v 37.0 39.0 -9.0
v 36.6 39.0 -8.0
v 37.0 38.6 -8.0
v 37.0 38.5 -7.0
v 37.0 38.5 -6.0
v 37.0 38.3 -5.0
v 37.0 39.5 -21.0
v 36.3 40.0 -20.0
v 37.0 40.0 -20.7
v 37.0 39.0 -9.0
v 37.0 40.0 -8.6
v 36.3 40.0 -8.0
v 37.0 41.0 -20.5
v 37.0 41.0 -8.6
v 37.0 41.5 -20.0
v 37.0 41.8 -19.0
v 37.0 42.0 -18.8
v 37.0 42.0 -8.4
v 37.0 43.0 -18.6
v 37.0 43.0 -8.0
v 37.0 43.0 -8.0
v 36.6 44.0 -18.0
v 37.0 44.0 -18.3
v 37.0 43.0 -8.0
v 37.0 44.0 -8.7
v 37.0 44.2 -18.0
v 37.0 44.6 -17.0
v 36.4 45.0 -16.0
v 37.0 45.0 -16.5
v 37.0 44.3 -9.0
v 37.0 45.0 -9.6
v 36.8 46.0 -16.0
v 37.0 46.0 -16.2
v 36.4 46.0 -15.0
v 36.7 46.0 -11.0
v 37.0 45.8 -11.0
v 37.0 46.0 -11.2
v 36.1 46.0 -10.0
v 37.0 45.4 -10.0
v 37.0 46.3 -16.0
v 37.0 46.5 -15.0
v 37.0 46.7 -14.0
v 36.6 47.0 -13.0
v 37.0 47.0 -13.6
v 36.5 47.0 -12.0
v 37.0 47.0 -11.5
v 36.1 47.0 -11.0
v 37.0 47.5 -13.0
v 36.6 48.0 -12.0
v 37.0 48.0 -12.5
v 37.0 47.8 -11.0
v 37.0 48.0 -10.9
v 36.7 49.0 -12.0
v 37.0 49.0 -12.3
v 37.0 48.2 -11.0
v 37.0 49.0 -11.6
v 36.9 50.0 -12.0
v 37.0 50.0 -12.0
v 37.0 50.0 -11.9
v 36.9 51.0 -12.0
v 37.0 51.0 -12.1
v 37.0 51.0 -11.9
v 37.0 51.1 -12.0
v 38.0 32.0 -14.2
v 38.0 31.8 -14.0
v 38.0 31.6 -13.0
v 38.0 31.6 -12.0
v 37.3 32.0 -11.0
v 38.0 32.0 -11.4
v 38.0 33.0 -14.7
v 38.0 32.4 -11.0
v 37.4 33.0 -10.0
v 38.0 33.0 -10.5
v 38.0 34.0 -15.5
v 38.0 33.4 -15.0
v 37.8 34.0 -10.0
v 38.0 34.0 -10.2
v 37.5 34.0 -9.0
v 37.2 34.0 -8.0
v 37.8 35.0 -23.0
v 38.0 35.0 -23.2
v 38.0 34.8 -23.0
v 38.0 34.6 -22.0
v 37.5 35.0 -22.0
v 38.0 34.6 -21.0
v 37.5 35.0 -21.0
v 38.0 34.6 -20.0
v 37.5 35.0 -20.0
v 38.0 34.6 -19.0
v 37.5 35.0 -19.0
v 38.0 34.5 -18.0
v 37.5 35.0 -18.0
v 38.0 34.5 -17.0
v 37.5 35.0 -17.0
v 38.0 34.4 -16.0
v 37.3 35.0 -16.0
v 38.0 34.2 -10.0
v 38.0 34.6 -9.0
v 38.0 35.0 -8.5
v 37.6 35.0 -8.0
v 37.6 36.0 -23.0
v 38.0 36.0 -23.3
v 38.0 35.4 -8.0
v 38.0 35.7 -7.0
v 37.5 36.0 -6.0
v 38.0 36.0 -6.6
v 38.0 36.5 -23.0
v 38.0 37.0 -22.7
v 38.0 36.4 -6.0
v 38.0 36.8 -5.0
v 38.0 37.0 -4.8
v 37.4 38.0 -22.0
v 38.0 38.0 -22.5
v 38.0 38.0 -4.7
v 37.5 39.0 -22.0
v 38.0 39.0 -22.4
v 38.0 38.7 -9.0
v 38.0 39.0 -9.4
v 38.0 38.5 -8.0
v 38.0 38.5 -7.0
v 38.0 38.5 -6.0
v 38.0 38.3 -5.0
v 37.6 40.0 -22.0
v 38.0 40.0 -22.4
v 37.3 40.0 -21.0
v 37.4 40.0 -9.0
v 38.0 40.0 -9.4
v 37.6 41.0 -22.0
v 38.0 41.0 -22.5
v 37.4 41.0 -21.0
v 37.6 41.0 -9.0
v 38.0 41.0 -9.3
v 37.8 42.0 -22.0
v 38.0 42.0 -22.3
v 37.6 42.0 -21.0
v 37.5 42.0 -20.0
v 37.2 42.0 -19.0
v 38.0 41.7 -9.0
v 38.0 42.0 -8.9
v 38.0 42.2 -22.0
v 38.0 42.4 -21.0
v 38.0 42.6 -20.0
v 37.6 43.0 -19.0
v 38.0 43.0 -19.5
v 37.7 43.0 -9.0
v 38.0 42.3 -9.0
v 38.0 43.0 -9.3
v 37.0 43.0 -8.0
v 38.0 43.4 -19.0
v 38.0 44.0 -18.3
v 37.3 44.0 -9.0
v 38.0 44.0 -9.6
v 38.0 44.2 -18.0
v 38.0 44.5 -17.0
v 38.0 45.0 -16.5
v 37.5 45.0 -10.0
v 38.0 44.5 -10.0
v 38.0 45.0 -10.4
v 38.0 46.0 -16.4
v 38.0 45.5 -11.0
v 38.0 46.0 -11.5
v 37.8 47.0 -16.0
v 38.0 47.0 -16.2
v 37.5 47.0 -15.0
v 37.3 47.0 -14.0
v 37.8 47.0 -12.0
v 38.0 46.9 -12.0
v 38.0 47.0 -12.1
v 38.0 47.2 -16.0
v 38.0 47.4 -15.0
v 37.9 48.0 -14.0
v 38.0 48.0 -14.2
v 37.3 48.0 -13.0
v 38.0 47.1 -12.0
v 37.1 48.0 -11.0
v 38.0 48.0 -11.6
v 38.0 48.2 -14.0
v 37.7 49.0 -13.0
v 38.0 49.0 -13.3
v 38.0 49.0 -11.7
v 38.0 49.4 -13.0
v 38.0 49.6 -12.0
v 37.1 50.0 -12.0
v 37.7 51.0 -13.0
v 38.0 51.0 -13.2
v 38.0 50.6 -13.0
v 38.0 50.5 -12.0
v 38.0 51.0 -11.7
v 37.8 52.0 -13.0
v 38.0 52.0 -13.2
v 37.7 52.0 -12.0
v 38.0 52.0 -11.3
v 38.0 52.2 -13.0
v 38.0 52.2 -12.0
v 38.3 32.0 -14.0
v 38.6 32.0 -13.0
v 39.0 32.0 -12.2
v 39.0 31.9 -12.0
v 39.0 32.0 -11.9
v 38.6 33.0 -15.0
v 39.0 33.0 -15.3
v 39.0 32.8 -15.0
v 39.0 32.5 -14.0
v 39.0 32.3 -13.0
v 39.0 32.7 -11.0
v 39.0 33.0 -10.8
v 38.6 34.0 -18.0
v 39.0 34.0 -18.5
v 39.0 33.6 -18.0
v 39.0 33.6 -17.0
v 38.6 34.0 -17.0
v 39.0 34.0 -16.1
v 39.0 34.0 -15.9
v 39.0 34.0 -10.5
v 39.0 35.0 -23.3
v 39.0 34.6 -23.0
v 39.0 34.5 -22.0
v 39.0 34.5 -21.0
v 39.0 34.4 -20.0
v 39.0 34.3 -19.0
v 39.0 34.1 -16.0
v 39.0 34.6 -10.0
v 38.5 35.0 -9.0
v 39.0 35.0 -9.5
v 39.0 36.0 -23.4
v 39.0 35.5 -9.0
v 38.6 36.0 -8.0
v 39.0 36.0 -8.4
v 38.3 36.0 -7.0
v 38.6 37.0 -23.0
v 39.0 37.0 -23.2
v 39.0 36.4 -8.0
v 39.0 36.6 -7.0
v 38.6 37.0 -6.0
v 39.0 37.0 -6.5
v 38.3 37.0 -5.0
v 39.0 38.0 -23.0
v 39.0 38.0 -23.0
v 39.0 37.6 -6.0
v 39.0 38.0 -5.1
v 38.9 38.0 -5.0
v 39.0 38.1 -23.0
v 39.0 39.0 -22.5
v 38.7 39.0 -10.0
v 39.0 38.8 -10.0
v 39.0 39.0 -10.5
v 39.0 38.5 -9.0
v 39.0 38.5 -8.0
v 39.0 38.5 -7.0
v 39.0 38.3 -6.0
v 38.9 40.0 -23.0
v 39.0 40.0 -23.1
v 39.0 39.9 -23.0
v 39.0 39.4 -10.0
v 39.0 40.0 -9.7
v 38.7 41.0 -23.0
v 39.0 41.0 -23.2
v 39.0 41.0 -9.7
v 39.0 42.0 -23.0
v 39.0 42.0 -23.0
v 38.9 42.0 -10.0
v 39.0 41.7 -10.0
v 39.0 42.0 -10.1
v 38.1 42.0 -9.0
v 39.0 42.0 -23.0
v 39.0 42.5 -22.0
v 39.0 42.6 -21.0
v 38.8 43.0 -20.0
v 39.0 43.0 -20.2
v 39.0 42.4 -10.0
v 39.0 43.0 -9.8
v 39.0 43.1 -20.0
v 39.0 43.3 -19.0
v 38.3 44.0 -18.0
v 39.0 43.5 -18.0
v 38.8 44.0 -17.0
v 39.0 43.9 -17.0
v 39.0 44.0 -16.9
v 38.5 44.0 -10.0
v 39.0 43.3 -10.0
v 39.0 44.0 -10.3
v 38.9 45.0 -16.0
v 39.0 44.9 -16.0
v 39.0 45.0 -15.9
v 39.0 45.0 -10.7
v 38.8 46.0 -16.0
v 39.0 46.0 -15.9
v 39.0 45.4 -11.0
v 39.0 46.0 -11.5
v 39.0 47.0 -16.1
v 39.0 46.6 -16.0
v 39.0 46.7 -12.0
v 39.0 47.0 -12.3
v 39.0 47.1 -16.0
v 39.0 47.5 -15.0
v 38.6 48.0 -14.0
v 39.0 47.9 -14.0
v 39.0 48.0 -13.9
v 39.0 47.7 -12.0
v 39.0 48.0 -11.9
v 39.0 49.0 -13.5
v 38.6 49.0 -12.0
v 39.0 48.4 -12.0
v 39.0 49.0 -12.3
v 38.4 50.0 -13.0
v 39.0 50.0 -13.4
v 39.0 50.0 -12.1
v 39.0 51.0 -13.5
v 39.0 51.0 -12.4
v 38.4 51.0 -12.0
v 39.0 52.0 -14.0
v 39.0 52.0 -14.0
v 39.0 52.0 -14.0
v 38.3 52.0 -12.0
v 39.0 52.0 -12.6
v 39.0 52.0 -14.0
v 39.0 52.3 -13.0
v 39.1 32.0 -12.0
v 39.7 33.0 -18.0
v 40.0 33.0 -18.3
v 40.0 32.7 -18.0
v 40.0 32.6 -17.0
v 39.6 33.0 -17.0
v 40.0 33.0 -16.3
v 40.0 33.0 -15.5
v 40.0 32.8 -15.0
v 39.8 33.0 -14.0
v 40.0 33.0 -14.4
v 40.0 33.0 -13.8
v 40.0 32.6 -13.0
v 40.0 32.7 -12.0
v 39.3 33.0 -11.0
v 40.0 33.0 -11.7
v 39.9 34.0 -20.0
v 40.0 34.0 -20.1
v 40.0 33.9 -20.0
v 40.0 33.7 -19.0
v 39.5 34.0 -19.0
v 40.0 33.2 -16.0
v 39.1 34.0 -16.0
v 40.0 33.1 -14.0
v 39.6 34.0 -11.0
v 40.0 34.0 -11.3
v 40.0 35.0 -23.2
v 40.0 34.6 -23.0
v 40.0 34.6 -22.0
v 40.0 34.4 -21.0
v 40.0 34.4 -11.0
v 39.5 35.0 -10.0
v 40.0 35.0 -10.4
v 40.0 35.3 -23.0
v 39.6 36.0 -23.0
v 40.0 36.0 -22.6
v 40.0 35.5 -10.0
v 39.5 36.0 -9.0
v 40.0 36.0 -9.5
v 39.3 37.0 -23.0
v 40.0 37.0 -22.3
v 39.7 37.0 -19.0
v 40.0 36.5 -19.0
v 40.0 37.0 -19.7
v 39.7 37.0 -18.0
v 40.0 36.7 -18.0
v 40.0 37.0 -17.0
v 40.0 37.0 -17.0
v 40.0 37.0 -17.0
v 40.0 36.5 -9.0
v 39.6 37.0 -8.0
v 40.0 37.0 -8.5
v 39.4 37.0 -7.0
v 39.0 38.0 -23.0
v 40.0 37.3 -22.0
v 39.6 38.0 -22.0
v 39.6 38.0 -21.0
v 40.0 37.5 -21.0
v 39.6 38.0 -20.0
v 40.0 37.2 -20.0
v 39.5 38.0 -19.0
v 39.5 38.0 -18.0
v 39.6 38.0 -17.0
v 40.0 38.0 -16.6
v 40.0 37.5 -8.0
v 40.0 37.8 -7.0
v 39.3 38.0 -6.0
v 40.0 38.0 -6.8
v 39.5 39.0 -22.0
v 39.6 39.0 -21.0
v 39.6 39.0 -20.0
v 39.5 39.0 -19.0
v 39.5 39.0 -18.0
v 39.6 39.0 -17.0
v 40.0 39.0 -16.6
v 40.0 38.8 -10.0
v 40.0 39.0 -10.2
v 40.0 38.6 -9.0
v 40.0 38.5 -8.0
v 40.0 38.5 -7.0
v 39.1 40.0 -23.0
v 40.0 40.0 -22.3
v 40.0 39.7 -22.0
v 40.0 39.5 -21.0
v 40.0 39.7 -20.0
v 40.0 40.0 -19.7
v 39.6 40.0 -19.0
v 39.5 40.0 -18.0
v 39.8 40.0 -17.0
v 40.0 40.0 -16.7
v 39.5 40.0 -10.0
v 40.0 40.0 -10.3
v 39.3 41.0 -23.0
v 40.0 41.0 -22.5
v 39.6 41.0 -19.0
v 40.0 41.0 -19.5
v 39.6 41.0 -18.0
v 40.0 41.0 -17.4
v 40.0 40.4 -17.0
v 39.4 41.0 -10.0
v 40.0 41.0 -10.5
v 39.0 42.0 -23.0
v 40.0 42.0 -22.3
v 39.6 42.0 -19.0
v 40.0 42.0 -19.7
v 39.6 42.0 -18.0
v 40.0 42.0 -17.5
v 40.0 42.0 -10.6
v 40.0 42.2 -22.0
v 40.0 42.4 -21.0
v 39.1 43.0 -20.0
v 40.0 42.3 -20.0
v 39.3 43.0 -19.0
v 39.5 43.0 -18.0
v 40.0 43.0 -17.5
v 39.2 43.0 -10.0
v 40.0 43.0 -10.5
v 40.0 44.0 -17.1
v 39.6 44.0 -17.0
v 40.0 44.0 -10.7
v 40.0 44.1 -17.0
v 39.2 45.0 -16.0
v 40.0 45.0 -16.3
v 39.5 45.0 -11.0
v 40.0 44.5 -11.0
v 40.0 45.0 -11.3
v 39.7 46.0 -16.0
v 40.0 46.0 -16.1
v 40.0 46.0 -11.6
v 39.2 47.0 -16.0
v 40.0 46.1 -16.0
v 40.0 47.0 -15.4
v 40.0 46.5 -12.0
v 40.0 47.0 -12.4
v 40.0 47.3 -15.0
v 39.2 48.0 -14.0
v 40.0 48.0 -14.3
v 39.2 48.0 -12.0
v 40.0 48.0 -12.6
v 39.7 49.0 -14.0
v 40.0 49.0 -14.2
v 40.0 49.0 -12.7
v 40.0 50.0 -14.0
v 40.0 50.0 -14.0
v 40.0 50.0 -12.6
v 40.0 50.0 -14.0
v 40.0 51.0 -13.3
v 40.0 51.0 -12.8
v 39.1 52.0 -14.0
v 40.0 52.0 -13.7
v 40.0 52.0 -12.9
v 40.0 52.1 -13.0
v 40.9 32.0 -18.0
v 41.0 32.0 -18.1
v 41.0 31.9 -18.0
v 41.0 31.0 -17.0
v 40.5 32.0 -17.0
v 41.0 31.7 -16.0
v 40.8 32.0 -16.0
v 41.0 32.0 -15.8
v 41.0 33.0 -18.4
v 40.2 33.0 -16.0
v 41.0 33.0 -15.3
v 40.3 33.0 -15.0
v 41.0 33.0 -13.1
v 41.0 32.9 -13.0
v 40.3 33.0 -12.0
v 41.0 33.0 -12.9
v 40.1 34.0 -20.0
v 40.4 34.0 -19.0
v 41.0 34.0 -18.5
v 41.0 33.3 -15.0
v 41.0 33.4 -14.0
v 40.7 34.0 -12.0
v 41.0 34.0 -12.3
v 40.2 35.0 -23.0
v 40.4 35.0 -22.0
v 41.0 35.0 -21.0
v 41.0 34.9 -21.0
v 40.5 35.0 -20.0
v 41.0 35.0 -21.0
v 40.6 35.0 -19.0
v 41.0 35.0 -18.5
v 41.0 34.3 -12.0
v 41.0 34.9 -11.0
v 41.0 35.0 -10.9
v 40.4 36.0 -22.0
v 41.0 35.0 -21.0
v 40.5 36.0 -21.0
v 40.1 36.0 -20.0
v 40.4 36.0 -19.0
v 41.0 36.0 -18.3
v 40.9 36.0 -11.0
v 41.0 35.4 -11.0
v 41.0 36.0 -11.1
v 40.4 36.0 -10.0
v 40.2 37.0 -22.0
v 40.4 37.0 -21.0
v 40.2 37.0 -20.0
v 41.0 36.3 -18.0
v 40.0 37.0 -17.0
v 41.0 37.0 -17.3
v 41.0 36.2 -11.0
v 41.0 36.6 -10.0
v 40.5 37.0 -9.0
v 41.0 37.0 -9.6
v 41.0 37.3 -17.0
v 41.0 37.8 -16.0
v 40.7 38.0 -16.0
v 41.0 38.0 -15.8
v 41.0 37.5 -9.0
v 40.4 38.0 -8.0
v 41.0 38.0 -8.5
v 40.2 38.0 -7.0
v 40.6 39.0 -16.0
v 41.0 39.0 -15.7
v 40.2 39.0 -10.0
v 40.4 39.0 -9.0
v 41.0 39.0 -8.1
v 40.2 40.0 -22.0
v 40.4 40.0 -21.0
v 40.2 40.0 -20.0
v 41.0 40.0 -16.3
v 41.0 39.5 -16.0
v 40.4 40.0 -10.0
v 40.8 40.0 -9.0
v 41.0 40.0 -8.7
v 40.4 41.0 -22.0
v 40.5 41.0 -21.0
v 40.4 41.0 -20.0
v 40.4 41.0 -17.0
v 41.0 41.0 -16.6
v 40.9 41.0 -11.0
v 41.0 40.9 -11.0
v 41.0 41.0 -11.1
v 41.0 40.4 -10.0
v 41.0 40.3 -9.0
v 40.2 42.0 -22.0
v 40.3 42.0 -21.0
v 40.2 42.0 -20.0
v 40.5 42.0 -17.0
v 41.0 42.0 -16.6
v 40.5 42.0 -11.0
v 41.0 42.0 -11.4
v 40.5 43.0 -17.0
v 41.0 43.0 -16.4
v 40.5 43.0 -11.0
v 41.0 43.0 -11.4
v 40.1 44.0 -17.0
v 41.0 43.5 -16.0
v 40.7 44.0 -16.0
v 41.0 44.0 -15.5
v 40.4 44.0 -11.0
v 41.0 44.0 -11.4
v 40.3 45.0 -16.0
v 41.0 44.4 -15.0
v 40.6 45.0 -15.0
v 40.8 45.0 -14.0
v 41.0 44.7 -14.0
v 41.0 45.0 -13.7
v 41.0 45.0 -11.6
v 40.1 46.0 -16.0
v 40.5 46.0 -15.0
v 40.6 46.0 -14.0
v 41.0 46.0 -13.5
v 41.0 46.0 -11.8
v 40.3 47.0 -15.0
v 40.6 47.0 -14.0
v 41.0 47.0 -13.1
v 41.0 46.3 -12.0
v 41.0 47.0 -12.9
v 40.3 48.0 -14.0
v 41.0 47.1 -13.0
v 40.4 48.0 -13.0
v 40.2 49.0 -14.0
v 40.3 49.0 -13.0
v 40.0 50.0 -14.0
v 40.3 50.0 -13.0
v 40.2 51.0 -13.0
v 40.1 52.0 -13.0
v 41.1 32.0 -18.0
v 42.0 32.0 -17.4
v 42.0 31.1 -17.0
v 42.0 31.8 -16.0
v 42.0 32.0 -15.8
v 41.4 33.0 -18.0
v 42.0 33.0 -17.5
v 42.0 33.0 -15.5
v 41.1 33.0 -13.0
v 41.5 34.0 -18.0
v 42.0 34.0 -17.6
v 42.0 33.5 -15.0
v 42.0 33.6 -14.0
v 42.0 33.7 -13.0
v 42.0 34.0 -12.7
v 41.0 35.0 -21.0
v 41.5 35.0 -18.0
v 42.0 35.0 -17.6
v 42.0 34.9 -12.0
v 41.1 35.0 -11.0
v 42.0 35.0 -11.9
v 41.4 36.0 -18.0
v 42.0 36.0 -17.6
v 42.0 36.0 -13.0
v 42.0 35.9 -13.0
v 42.0 36.0 -13.0
v 41.7 36.0 -12.0
v 42.0 35.1 -12.0
v 42.0 37.0 -17.4
v 42.0 36.0 -13.0
v 42.0 36.5 -12.0
v 41.6 37.0 -11.0
v 42.0 37.0 -11.5
v 41.4 37.0 -10.0
v 42.0 37.4 -17.0
v 42.0 37.6 -16.0
v 42.0 38.0 -15.4
v 42.0 37.4 -11.0
v 42.0 37.6 -10.0
v 41.5 38.0 -9.0
v 42.0 38.0 -9.6
v 42.0 38.6 -15.0
v 41.8 39.0 -15.0
v 42.0 39.0 -14.8
v 42.0 38.5 -9.0
v 42.0 39.0 -8.6
v 41.4 40.0 -16.0
v 42.0 40.0 -15.5
v 42.0 39.3 -15.0
v 42.0 40.0 -8.6
v 42.0 41.0 -16.2
v 42.0 40.6 -16.0
v 41.2 41.0 -11.0
v 42.0 41.0 -10.5
v 42.0 40.8 -10.0
v 42.0 40.8 -9.0
v 42.0 42.0 -16.3
v 42.0 41.3 -11.0
v 42.0 42.0 -11.5
v 42.0 42.4 -16.0
v 41.5 43.0 -16.0
v 42.0 43.0 -15.4
v 41.9 43.0 -13.0
v 42.0 42.8 -13.0
v 42.0 43.0 -13.3
v 42.0 43.0 -12.7
v 42.0 43.0 -11.7
v 41.4 44.0 -15.0
v 42.0 43.4 -15.0
v 41.5 44.0 -14.0
v 42.0 43.4 -14.0
v 41.6 44.0 -13.0
v 42.0 44.0 -12.0
v 42.0 44.0 -12.0
v 41.4 45.0 -13.0
v 42.0 44.0 -12.0
v 41.4 45.0 -12.0
v 41.3 46.0 -13.0
v 41.2 46.0 -12.0
v 41.1 47.0 -13.0
v 42.3 32.0 -17.0
v 42.2 32.0 -16.0
v 42.5 33.0 -17.0
v 42.5 33.0 -16.0
v 43.0 34.0 -17.2
v 43.0 33.7 -17.0
v 43.0 33.7 -16.0
v 42.5 34.0 -15.0
v 43.0 34.0 -15.7
v 42.4 34.0 -14.0
v 42.2 34.0 -13.0
v 43.0 35.0 -17.4
v 42.7 35.0 -15.0
v 43.0 35.0 -15.4
v 42.5 35.0 -14.0
v 42.4 35.0 -13.0
v 42.1 35.0 -12.0
v 43.0 36.0 -17.5
v 43.0 35.6 -15.0
v 43.0 36.0 -14.6
v 42.6 36.0 -14.0
v 43.0 37.0 -17.3
v 42.8 37.0 -15.0
v 43.0 36.6 -15.0
v 43.0 37.0 -15.2
v 43.0 37.0 -14.4
v 43.0 36.8 -14.0
v 43.0 37.0 -13.0
v 42.3 37.0 -12.0
v 43.0 37.0 -13.0
v 43.0 37.3 -17.0
v 43.0 37.4 -16.0
v 42.3 38.0 -15.0
v 43.0 37.2 -14.0
v 42.6 38.0 -14.0
v 42.7 38.0 -13.0
v 43.0 37.1 -13.0
v 42.6 38.0 -12.0
v 42.5 38.0 -11.0
v 42.4 38.0 -10.0
v 42.8 39.0 -14.0
v 43.0 39.0 -13.7
v 43.0 38.4 -13.0
v 43.0 38.5 -12.0
v 43.0 38.5 -11.0
v 43.0 38.6 -10.0
v 42.5 39.0 -9.0
v 43.0 39.0 -9.6
v 42.4 40.0 -15.0
v 43.0 40.0 -14.5
v 43.0 39.3 -14.0
v 43.0 39.8 -9.0
v 43.0 40.0 -8.9
v 42.3 41.0 -16.0
v 42.7 41.0 -15.0
v 43.0 41.0 -14.4
v 42.9 41.0 -13.0
v 43.0 40.9 -13.0
v 43.0 41.0 -13.2
v 43.0 41.0 -12.9
v 42.6 41.0 -11.0
v 43.0 40.8 -11.0
v 43.0 41.0 -11.3
v 43.0 41.0 -10.0
v 43.0 40.2 -9.0
v 42.3 42.0 -16.0
v 42.9 42.0 -15.0
v 43.0 41.3 -14.0
v 42.6 42.0 -14.0
v 42.5 42.0 -13.0
v 43.0 42.0 -12.0
v 43.0 42.0 -12.0
v 42.3 43.0 -15.0
v 42.3 43.0 -14.0
v 42.3 43.0 -12.0
v 43.0 42.0 -12.0
v 42.0 44.0 -12.0
v 43.2 34.0 -17.0
v 43.2 34.0 -16.0
v 43.4 35.0 -17.0
v 43.5 35.0 -16.0
v 44.0 36.0 -17.2
v 44.0 35.7 -17.0
v 44.0 35.6 -16.0
v 43.3 36.0 -15.0
v 44.0 36.0 -15.6
v 44.0 37.0 -17.2
v 44.0 37.0 -15.8
v 43.1 37.0 -14.0
v 43.0 37.0 -13.0
v 44.0 37.2 -17.0
v 44.0 37.2 -16.0
v 43.5 39.0 -13.0
v 43.5 39.0 -12.0
v 43.5 39.0 -11.0
v 43.4 39.0 -10.0
v 44.0 40.0 -14.3
v 44.0 39.3 -14.0
v 44.0 39.6 -13.0
v 44.0 39.7 -12.0
v 44.0 39.7 -11.0
v 44.0 39.9 -10.0
v 43.1 40.0 -9.0
v 44.0 40.0 -9.9
v 44.0 40.3 -14.0
v 43.2 41.0 -14.0
v 44.0 40.3 -13.0
v 43.4 41.0 -12.0
v 44.0 40.3 -12.0
v 44.0 40.2 -11.0
v 44.0 40.1 -10.0
v 43.0 42.0 -12.0
v 44.3 36.0 -17.0
v 44.7 36.0 -16.0
v 44.2 37.0 -17.0
v 44.2 37.0 -16.0
v 44.6 40.0 -14.0
v 44.3 40.0 -13.0
v 44.2 40.0 -12.0
v 44.2 40.0 -11.0
v 44.0 40.0 -10.0
f 3 2 1
f 5 4 1
f 1 4 3
f 7 6 5
f 5 6 4
f 7 8 6
f 1 2 9
f 9 2 10
f 1 11 5
f 1 9 11
f 5 12 7
f 5 11 12
f 8 7 13
f 13 7 12
f 16 15 14
f 18 17 14
f 14 17 16
f 17 18 10
f 18 9 10
f 18 19 9
f 9 20 11
f 9 19 20
f 22 12 21
f 12 20 21
f 12 11 20
f 12 22 13
f 15 23 14
f 25 24 23
f 24 14 23
f 24 18 14
f 18 26 19
f 18 24 26
f 19 27 20
f 19 26 27
f 21 20 28
f 28 20 27
f 25 29 24
f 24 29 26
f 26 29 30
f 32 31 30
f 31 26 30
f 31 27 26
f 28 27 33
f 33 27 31
f 32 34 31
f 31 34 33
f 37 36 35
f 35 38 37
f 41 40 39
f 43 42 39
f 39 42 41
f 42 43 36
f 43 35 36
f 43 44 35
f 38 35 45
f 45 35 44
f 48 47 46
f 2 3 46
f 3 48 46
f 3 49 48
f 4 39 40
f 49 4 40
f 3 4 49
f 39 4 6
f 39 6 43
f 43 6 8
f 50 43 8
f 44 43 50
f 45 44 51
f 51 44 50
f 46 47 52
f 52 47 53
f 52 10 2
f 52 2 46
f 13 54 50
f 13 50 8
f 51 50 55
f 55 50 54
f 57 56 16
f 16 56 15
f 17 52 53
f 57 17 53
f 16 17 57
f 52 17 10
f 21 58 22
f 54 13 22
f 58 54 22
f 59 54 58
f 55 54 60
f 60 54 59
f 23 15 61
f 15 62 61
f 15 56 62
f 61 25 23
f 28 63 58
f 28 58 21
f 65 59 64
f 59 63 64
f 59 58 63
f 59 65 60
f 61 62 66
f 66 62 67
f 68 29 25
f 61 68 25
f 66 68 61
f 69 30 29
f 69 29 68
f 69 32 30
f 33 70 63
f 33 63 28
f 64 63 71
f 71 63 70
f 67 72 66
f 74 73 72
f 73 66 72
f 73 68 66
f 68 75 69
f 68 73 75
f 76 34 32
f 69 76 32
f 75 76 69
f 76 77 34
f 34 77 33
f 77 78 33
f 78 70 33
f 70 78 71
f 74 79 73
f 81 80 79
f 80 73 79
f 80 75 73
f 75 82 76
f 75 80 82
f 77 76 83
f 83 76 82
f 81 84 80
f 80 84 82
f 82 84 85
f 82 85 83
f 88 87 86
f 86 89 88
f 86 87 90
f 90 87 91
f 89 86 92
f 86 93 92
f 86 90 93
f 93 94 92
f 97 96 95
f 97 95 91
f 95 90 91
f 95 98 90
f 90 99 93
f 90 98 99
f 94 93 100
f 93 101 100
f 93 99 101
f 101 102 100
f 96 103 95
f 105 104 103
f 104 95 103
f 104 98 95
f 98 106 99
f 98 104 106
f 99 107 101
f 99 106 107
f 102 101 108
f 101 109 108
f 101 107 109
f 109 110 108
f 113 112 111
f 113 111 105
f 111 104 105
f 111 114 104
f 104 115 106
f 104 114 115
f 106 116 107
f 106 115 116
f 107 117 109
f 107 116 117
f 110 109 118
f 109 119 118
f 109 117 119
f 119 120 118
f 111 112 121
f 121 112 122
f 111 123 114
f 111 121 123
f 114 124 115
f 114 123 124
f 115 125 116
f 115 124 125
f 116 126 117
f 116 125 126
f 117 127 119
f 117 126 127
f 120 119 128
f 128 119 127
f 121 122 129
f 129 122 130
f 121 131 123
f 121 129 131
f 123 132 124
f 123 131 132
f 124 133 125
f 124 132 133
f 125 134 126
f 125 133 134
f 134 36 37
f 127 134 37
f 126 134 127
f 37 38 127
f 38 128 127
f 38 135 128
f 129 130 136
f 136 130 137
f 129 138 131
f 129 136 138
f 131 139 132
f 131 138 139
f 139 40 41
f 133 139 41
f 132 139 133
f 133 41 42
f 133 42 134
f 134 42 36
f 45 141 140
f 135 45 140
f 38 45 135
f 141 142 140
f 145 144 143
f 143 146 145
f 149 148 147
f 149 147 137
f 147 136 137
f 147 150 136
f 150 47 48
f 138 150 48
f 136 150 138
f 138 48 49
f 138 49 139
f 139 49 40
f 51 151 141
f 51 141 45
f 142 141 152
f 152 141 151
f 155 154 153
f 155 153 144
f 153 143 144
f 153 156 143
f 146 143 157
f 143 158 157
f 143 156 158
f 157 158 148
f 158 147 148
f 158 159 147
f 147 160 150
f 147 159 160
f 160 53 47
f 160 47 150
f 162 161 151
f 51 162 151
f 55 162 51
f 151 161 152
f 154 163 153
f 165 164 163
f 164 153 163
f 164 156 153
f 156 166 158
f 156 164 166
f 158 167 159
f 158 166 167
f 167 56 57
f 160 167 57
f 159 167 160
f 160 57 53
f 170 169 168
f 169 162 168
f 162 60 168
f 162 55 60
f 164 165 171
f 171 165 172
f 164 173 166
f 164 171 173
f 166 174 167
f 166 173 174
f 174 62 56
f 174 56 167
f 170 168 65
f 64 170 65
f 175 170 64
f 65 168 60
f 172 176 171
f 178 177 176
f 177 171 176
f 177 173 171
f 173 179 174
f 173 177 179
f 179 67 62
f 179 62 174
f 71 175 64
f 71 180 175
f 178 181 177
f 183 182 181
f 182 177 181
f 182 179 177
f 184 72 67
f 179 184 67
f 182 184 179
f 184 74 72
f 77 185 78
f 185 186 78
f 186 71 78
f 186 180 71
f 183 187 182
f 182 187 184
f 184 187 188
f 188 190 189
f 188 189 79
f 184 188 79
f 74 184 79
f 189 81 79
f 192 191 185
f 77 192 185
f 83 192 77
f 185 191 186
f 190 193 189
f 189 193 81
f 193 84 81
f 193 194 84
f 84 195 85
f 194 195 84
f 83 85 192
f 192 85 195
f 198 197 196
f 87 88 199
f 198 196 200
f 199 88 89
f 203 202 201
f 201 204 203
f 196 197 205
f 205 197 206
f 87 199 91
f 207 91 199
f 91 207 205
f 200 205 207
f 205 200 196
f 207 201 202
f 207 92 201
f 207 199 89
f 92 207 89
f 92 94 201
f 94 204 201
f 94 208 204
f 205 206 97
f 206 96 97
f 206 209 96
f 205 97 91
f 210 208 94
f 210 94 100
f 100 102 210
f 210 102 211
f 209 212 96
f 96 212 103
f 105 103 212
f 105 212 213
f 214 211 102
f 214 102 108
f 216 215 110
f 215 108 110
f 215 214 108
f 218 217 216
f 216 217 215
f 218 219 217
f 222 221 220
f 224 223 220
f 220 223 222
f 112 113 224
f 113 223 224
f 113 225 223
f 113 105 213
f 113 213 225
f 118 216 110
f 216 118 120
f 226 216 120
f 218 216 226
f 219 218 227
f 218 228 227
f 218 226 228
f 228 229 227
f 220 221 230
f 230 221 231
f 220 232 224
f 220 230 232
f 232 122 112
f 232 112 224
f 128 233 226
f 128 226 120
f 226 234 228
f 226 233 234
f 229 228 235
f 235 228 234
f 230 231 236
f 236 231 237
f 230 238 232
f 230 236 238
f 238 130 122
f 238 122 232
f 135 239 233
f 135 233 128
f 233 240 234
f 233 239 240
f 235 234 241
f 241 234 240
f 244 243 242
f 246 245 242
f 242 245 244
f 246 247 245
f 236 237 248
f 248 237 249
f 236 250 238
f 236 248 250
f 250 137 130
f 250 130 238
f 140 239 135
f 240 239 251
f 239 142 251
f 142 252 251
f 142 239 140
f 240 251 241
f 255 254 253
f 255 253 243
f 253 242 243
f 253 256 242
f 242 257 246
f 242 256 257
f 145 258 144
f 258 246 144
f 246 257 144
f 246 258 247
f 259 248 146
f 248 258 146
f 258 145 146
f 248 249 258
f 259 148 149
f 250 259 149
f 248 259 250
f 250 149 137
f 262 261 260
f 261 252 260
f 252 152 260
f 252 142 152
f 254 263 253
f 265 264 263
f 264 253 263
f 264 256 253
f 264 154 155
f 257 264 155
f 256 264 257
f 257 155 144
f 157 259 146
f 259 157 148
f 268 267 266
f 266 267 262
f 266 262 260
f 162 266 260
f 161 162 260
f 161 260 152
f 265 269 264
f 269 271 270
f 269 270 163
f 264 269 163
f 154 264 163
f 270 165 163
f 274 273 272
f 272 273 268
f 272 268 266
f 170 272 266
f 169 170 266
f 169 266 162
f 271 275 270
f 165 270 275
f 276 165 275
f 172 165 276
f 274 272 277
f 274 277 278
f 175 277 170
f 170 277 272
f 276 279 172
f 172 279 176
f 178 176 279
f 178 279 280
f 278 277 281
f 278 281 282
f 180 281 175
f 175 281 277
f 181 178 283
f 178 284 283
f 178 280 284
f 283 183 181
f 285 282 281
f 281 180 285
f 180 286 285
f 180 186 286
f 284 287 283
f 283 287 183
f 287 187 183
f 287 288 187
f 288 290 289
f 188 288 289
f 187 288 188
f 289 190 188
f 192 291 191
f 291 292 191
f 292 186 191
f 292 286 186
f 290 293 289
f 289 293 190
f 293 193 190
f 293 294 193
f 193 295 194
f 294 295 193
f 194 296 195
f 295 296 194
f 192 195 291
f 195 297 291
f 195 296 297
f 291 297 292
f 299 298 198
f 198 298 197
f 198 200 299
f 299 200 300
f 302 301 203
f 203 301 202
f 203 204 302
f 302 204 303
f 298 206 197
f 304 206 298
f 305 300 200
f 305 200 207
f 207 202 301
f 207 301 305
f 208 307 306
f 303 208 306
f 204 208 303
f 307 308 306
f 304 209 206
f 309 209 304
f 210 307 208
f 311 310 211
f 211 310 210
f 310 308 210
f 308 307 210
f 313 312 311
f 311 312 310
f 315 314 313
f 313 314 312
f 315 316 314
f 309 317 209
f 209 317 212
f 213 212 317
f 213 317 318
f 214 311 211
f 311 214 215
f 311 215 313
f 313 215 217
f 313 217 315
f 320 319 219
f 219 319 217
f 319 316 217
f 316 315 217
f 320 321 319
f 324 323 322
f 322 325 324
f 328 327 326
f 221 222 329
f 328 326 330
f 223 331 222
f 222 331 329
f 331 223 332
f 223 333 332
f 223 225 333
f 225 213 318
f 225 318 333
f 227 320 219
f 227 229 320
f 229 321 320
f 229 334 321
f 322 323 335
f 335 323 336
f 325 322 337
f 337 322 335
f 326 327 338
f 338 327 339
f 221 329 231
f 340 231 329
f 231 340 338
f 330 338 340
f 338 330 326
f 340 329 331
f 340 331 341
f 341 331 332
f 235 334 229
f 235 342 334
f 345 344 343
f 343 346 345
f 335 336 347
f 347 336 348
f 337 335 349
f 335 350 349
f 335 347 350
f 349 350 339
f 350 338 339
f 350 351 338
f 351 237 231
f 351 231 338
f 241 342 235
f 241 352 342
f 343 344 353
f 353 344 354
f 346 343 355
f 343 356 355
f 343 353 356
f 355 356 348
f 348 356 347
f 356 243 347
f 243 244 347
f 347 244 245
f 347 245 350
f 350 245 247
f 357 350 247
f 351 350 357
f 357 249 237
f 357 237 351
f 252 358 251
f 358 359 251
f 359 241 251
f 359 352 241
f 353 354 360
f 360 354 361
f 360 254 255
f 356 360 255
f 353 360 356
f 356 255 243
f 258 357 247
f 357 258 249
f 364 363 362
f 261 262 362
f 363 261 362
f 365 261 363
f 252 261 358
f 261 366 358
f 261 365 366
f 358 366 359
f 360 361 367
f 367 361 368
f 369 263 254
f 360 369 254
f 367 369 360
f 369 265 263
f 364 362 267
f 268 364 267
f 370 364 268
f 267 362 262
f 368 371 367
f 367 371 369
f 369 371 372
f 369 372 265
f 372 269 265
f 372 373 269
f 271 269 373
f 271 373 374
f 274 375 273
f 375 376 273
f 376 268 273
f 376 370 268
f 374 377 271
f 271 377 275
f 276 275 377
f 276 377 378
f 380 379 375
f 274 380 375
f 278 380 274
f 375 379 376
f 279 276 381
f 276 382 381
f 276 378 382
f 381 280 279
f 282 380 278
f 282 383 380
f 382 384 381
f 280 381 384
f 385 280 384
f 284 280 385
f 282 285 386
f 387 282 386
f 383 282 387
f 286 386 285
f 385 388 284
f 284 388 287
f 287 389 288
f 388 389 287
f 290 288 389
f 290 389 390
f 387 386 391
f 387 391 392
f 292 391 286
f 286 391 386
f 390 393 290
f 290 393 293
f 293 394 294
f 393 394 293
f 294 395 295
f 394 395 294
f 295 396 296
f 395 396 295
f 391 297 392
f 297 396 392
f 297 296 396
f 297 391 292
f 398 397 299
f 299 397 298
f 299 300 398
f 398 300 399
f 401 400 302
f 302 400 301
f 302 303 401
f 401 303 402
f 405 404 403
f 397 405 403
f 304 397 403
f 298 397 304
f 406 399 300
f 406 300 305
f 305 301 400
f 305 400 406
f 407 402 303
f 407 303 306
f 306 308 407
f 407 308 408
f 411 410 409
f 413 412 409
f 409 412 411
f 415 414 413
f 413 414 412
f 417 416 415
f 415 416 414
f 419 418 417
f 417 418 416
f 419 420 418
f 403 404 421
f 421 404 422
f 421 309 304
f 421 304 403
f 423 408 308
f 423 308 310
f 424 310 312
f 424 423 310
f 425 312 314
f 425 424 312
f 427 426 316
f 426 314 316
f 426 425 314
f 427 428 426
f 410 429 409
f 431 430 429
f 430 409 429
f 430 413 409
f 413 432 415
f 413 430 432
f 415 433 417
f 415 432 433
f 417 434 419
f 417 433 434
f 420 419 435
f 419 436 435
f 419 434 436
f 438 437 436
f 436 437 435
f 438 439 437
f 422 440 421
f 440 442 441
f 440 441 317
f 421 440 317
f 309 421 317
f 441 318 317
f 319 427 316
f 444 443 321
f 321 443 319
f 443 428 319
f 428 427 319
f 444 445 443
f 431 446 430
f 430 446 432
f 432 446 447
f 432 447 433
f 433 447 448
f 433 448 434
f 434 448 449
f 451 450 449
f 450 434 449
f 450 436 434
f 450 323 324
f 438 450 324
f 436 450 438
f 453 452 325
f 325 452 324
f 452 439 324
f 439 438 324
f 327 328 453
f 328 452 453
f 328 454 452
f 456 455 330
f 455 328 330
f 455 454 328
f 458 457 456
f 456 457 455
f 457 458 442
f 442 458 441
f 458 332 441
f 332 333 441
f 441 333 318
f 334 459 444
f 334 444 321
f 445 444 460
f 460 444 459
f 463 462 461
f 463 461 451
f 461 450 451
f 461 464 450
f 464 336 323
f 464 323 450
f 337 465 453
f 337 453 325
f 465 339 327
f 465 327 453
f 340 456 330
f 456 340 341
f 456 341 458
f 458 341 332
f 467 466 459
f 334 467 459
f 342 467 334
f 459 466 460
f 461 462 345
f 462 344 345
f 462 468 344
f 461 345 346
f 469 461 346
f 464 461 469
f 469 348 336
f 469 336 464
f 349 465 337
f 465 349 339
f 352 467 342
f 352 470 467
f 473 472 471
f 468 473 471
f 354 468 471
f 344 468 354
f 355 469 346
f 469 355 348
f 359 470 352
f 359 474 470
f 472 475 471
f 354 471 475
f 476 354 475
f 361 354 476
f 478 477 363
f 478 363 364
f 363 479 365
f 477 479 363
f 365 480 366
f 479 480 365
f 359 366 474
f 474 366 480
f 476 368 361
f 481 368 476
f 370 478 364
f 370 482 478
f 481 483 368
f 368 483 371
f 371 484 372
f 483 484 371
f 372 485 373
f 484 485 372
f 487 486 374
f 373 487 374
f 485 487 373
f 488 486 487
f 376 482 370
f 376 489 482
f 486 377 374
f 378 377 486
f 488 378 486
f 490 378 488
f 380 491 379
f 491 492 379
f 492 376 379
f 492 489 376
f 494 382 493
f 382 490 493
f 382 378 490
f 495 494 493
f 497 496 491
f 380 497 491
f 383 497 380
f 491 496 492
f 494 384 382
f 499 498 385
f 499 385 384
f 495 499 384
f 494 495 384
f 501 500 498
f 501 498 499
f 502 500 501
f 387 497 383
f 387 503 497
f 498 388 385
f 388 498 389
f 389 498 500
f 505 504 390
f 505 390 389
f 502 505 389
f 500 502 389
f 507 506 504
f 507 504 505
f 508 506 507
f 392 503 387
f 392 509 503
f 504 393 390
f 393 504 394
f 394 504 506
f 508 510 506
f 510 394 506
f 510 395 394
f 395 511 396
f 510 511 395
f 392 396 509
f 509 396 511
f 514 513 512
f 516 515 512
f 512 515 514
f 516 517 515
f 512 513 518
f 518 513 519
f 518 397 398
f 516 518 398
f 512 518 516
f 398 399 516
f 399 517 516
f 399 520 517
f 522 521 401
f 401 521 400
f 401 402 522
f 522 402 523
f 526 525 524
f 528 527 524
f 524 527 526
f 528 529 527
f 518 519 405
f 519 404 405
f 519 530 404
f 518 405 397
f 531 520 399
f 531 399 406
f 406 400 521
f 406 521 531
f 532 523 402
f 532 402 407
f 534 533 408
f 533 407 408
f 533 532 407
f 534 535 533
f 525 536 524
f 537 410 411
f 524 537 411
f 528 524 411
f 536 537 524
f 411 412 528
f 412 538 528
f 538 529 528
f 412 539 538
f 414 540 412
f 412 540 539
f 416 541 414
f 414 541 540
f 418 542 416
f 416 542 541
f 420 542 418
f 545 544 543
f 530 545 543
f 422 530 543
f 404 530 422
f 423 534 408
f 546 535 534
f 423 546 534
f 424 546 423
f 547 424 425
f 547 546 424
f 548 425 426
f 548 547 425
f 426 428 548
f 548 428 549
f 429 410 550
f 410 551 550
f 410 537 551
f 539 552 538
f 431 429 550
f 552 539 540
f 552 540 553
f 553 540 541
f 553 541 554
f 554 541 542
f 554 542 555
f 555 542 420
f 435 555 420
f 556 555 435
f 557 435 437
f 557 556 435
f 437 439 557
f 557 439 558
f 561 560 559
f 561 559 544
f 559 543 544
f 559 562 543
f 563 440 422
f 543 563 422
f 562 563 543
f 563 442 440
f 428 443 564
f 565 428 564
f 549 428 565
f 445 564 443
f 551 566 550
f 550 566 431
f 566 446 431
f 566 567 446
f 567 569 568
f 447 567 568
f 446 567 447
f 570 448 447
f 570 447 568
f 571 449 448
f 571 448 570
f 571 451 449
f 572 558 439
f 572 439 452
f 454 559 560
f 572 454 560
f 452 454 572
f 559 454 455
f 559 455 562
f 562 455 457
f 562 457 563
f 563 457 442
f 573 565 564
f 564 445 573
f 445 574 573
f 445 460 574
f 569 575 568
f 568 575 570
f 570 575 576
f 577 462 463
f 570 577 463
f 571 570 463
f 576 577 570
f 571 463 451
f 579 578 466
f 579 466 467
f 460 466 574
f 574 466 578
f 577 468 462
f 580 468 577
f 583 582 581
f 582 579 581
f 579 470 581
f 579 467 470
f 585 584 473
f 473 584 472
f 473 468 580
f 473 580 585
f 588 587 586
f 590 589 586
f 590 586 587
f 589 590 583
f 581 589 583
f 591 589 581
f 474 591 470
f 470 591 581
f 475 472 592
f 472 593 592
f 472 584 593
f 592 476 475
f 588 586 477
f 478 588 477
f 594 588 478
f 477 586 479
f 479 586 589
f 479 589 480
f 480 589 591
f 480 591 474
f 593 595 592
f 481 476 592
f 596 481 592
f 595 596 592
f 481 596 597
f 598 597 596
f 482 594 478
f 482 599 594
f 597 483 481
f 598 600 597
f 600 483 597
f 600 484 483
f 484 601 485
f 600 601 484
f 601 603 602
f 487 601 602
f 485 601 487
f 602 488 487
f 489 599 482
f 489 604 599
f 603 605 602
f 488 602 605
f 606 488 605
f 490 488 606
f 492 604 489
f 492 607 604
f 606 608 490
f 490 608 493
f 495 493 608
f 495 608 609
f 611 610 496
f 611 496 497
f 492 496 607
f 607 496 610
f 609 612 495
f 495 612 499
f 499 613 501
f 612 613 499
f 615 614 502
f 501 615 502
f 613 615 501
f 616 614 615
f 619 618 617
f 618 611 617
f 611 503 617
f 611 497 503
f 614 505 502
f 616 620 614
f 620 505 614
f 620 507 505
f 622 621 508
f 507 622 508
f 620 622 507
f 621 622 619
f 617 621 619
f 623 621 617
f 509 623 503
f 503 623 617
f 621 510 508
f 510 621 511
f 511 621 623
f 511 623 509
f 626 625 624
f 513 514 624
f 514 626 624
f 514 627 626
f 628 514 515
f 628 627 514
f 515 517 628
f 628 517 629
f 624 625 630
f 630 625 631
f 630 519 513
f 630 513 624
f 520 633 632
f 629 520 632
f 517 520 629
f 521 522 633
f 522 632 633
f 522 634 632
f 522 523 634
f 634 523 635
f 637 636 526
f 526 636 525
f 639 637 638
f 637 527 638
f 637 526 527
f 529 638 527
f 630 631 640
f 640 631 641
f 640 530 519
f 640 519 630
f 531 633 520
f 633 531 521
f 642 635 523
f 642 523 532
f 643 532 533
f 643 642 532
f 645 644 535
f 644 533 535
f 644 643 533
f 645 646 644
f 636 647 525
f 525 647 536
f 647 639 536
f 638 536 639
f 536 638 537
f 648 537 638
f 537 648 649
f 638 529 648
f 529 650 648
f 529 538 650
f 640 641 545
f 641 544 545
f 641 651 544
f 640 545 530
f 546 645 535
f 652 646 645
f 546 652 645
f 547 652 546
f 654 652 653
f 652 548 653
f 652 547 548
f 549 653 548
f 649 551 537
f 655 551 649
f 656 650 538
f 656 538 552
f 657 552 553
f 657 656 552
f 658 553 554
f 658 657 553
f 659 554 555
f 659 658 554
f 660 555 556
f 660 659 555
f 661 556 557
f 661 660 556
f 663 662 558
f 662 557 558
f 662 661 557
f 560 561 663
f 561 662 663
f 561 664 662
f 561 544 651
f 561 651 664
f 665 654 653
f 653 549 665
f 549 666 665
f 549 565 666
f 655 667 551
f 551 667 566
f 566 668 567
f 667 668 566
f 569 567 668
f 569 668 669
f 572 663 558
f 663 572 560
f 565 573 670
f 671 565 670
f 666 565 671
f 574 670 573
f 669 672 569
f 569 672 575
f 575 673 576
f 672 673 575
f 577 576 673
f 577 673 674
f 671 670 578
f 579 671 578
f 675 671 579
f 578 670 574
f 674 580 577
f 676 580 674
f 678 677 582
f 678 582 583
f 579 582 675
f 675 582 677
f 679 584 585
f 680 679 585
f 580 680 585
f 676 680 580
f 682 681 587
f 682 587 588
f 587 683 590
f 681 683 587
f 583 590 678
f 678 590 683
f 685 684 679
f 684 584 679
f 684 593 584
f 685 679 680
f 594 682 588
f 594 686 682
f 684 687 593
f 593 687 595
f 595 688 596
f 687 688 595
f 598 596 688
f 598 688 689
f 599 686 594
f 599 690 686
f 689 691 598
f 598 691 600
f 600 692 601
f 691 692 600
f 603 601 692
f 603 692 693
f 604 690 599
f 604 694 690
f 693 695 603
f 603 695 605
f 606 605 695
f 606 695 696
f 699 698 697
f 698 694 697
f 694 607 697
f 694 604 607
f 696 700 606
f 606 700 608
f 609 608 700
f 609 700 701
f 704 703 702
f 702 703 699
f 702 699 697
f 611 702 697
f 610 611 697
f 610 697 607
f 701 705 609
f 609 705 612
f 612 706 613
f 705 706 612
f 613 707 615
f 706 707 613
f 709 708 616
f 615 709 616
f 707 709 615
f 711 710 708
f 711 708 709
f 710 711 704
f 710 704 702
f 619 710 702
f 618 619 702
f 618 702 611
f 708 620 616
f 620 708 622
f 622 708 710
f 622 710 619
f 713 712 626
f 626 712 625
f 714 626 627
f 714 713 626
f 715 627 628
f 715 714 627
f 628 629 715
f 715 629 716
f 712 631 625
f 717 631 712
f 718 716 629
f 718 629 632
f 719 632 634
f 719 718 632
f 634 635 719
f 719 635 720
f 721 636 637
f 639 721 637
f 717 641 631
f 722 641 717
f 723 720 635
f 723 635 642
f 724 642 643
f 724 723 642
f 726 724 725
f 724 644 725
f 724 643 644
f 646 725 644
f 721 647 636
f 647 721 639
f 727 649 648
f 650 727 648
f 730 729 728
f 722 730 728
f 651 722 728
f 641 722 651
f 731 726 725
f 733 731 732
f 732 731 652
f 731 725 652
f 725 646 652
f 654 732 652
f 734 655 727
f 727 655 649
f 734 727 650
f 735 734 650
f 656 735 650
f 736 734 735
f 737 656 657
f 737 735 656
f 738 657 658
f 738 737 657
f 739 658 659
f 739 738 658
f 740 659 660
f 740 739 659
f 741 660 661
f 741 740 660
f 742 661 662
f 742 741 661
f 664 728 729
f 742 664 729
f 662 664 742
f 728 664 651
f 743 733 732
f 743 732 654
f 665 743 654
f 744 743 665
f 665 666 744
f 744 666 745
f 734 667 655
f 736 746 734
f 746 667 734
f 746 668 667
f 669 668 746
f 669 746 747
f 671 745 666
f 671 748 745
f 747 749 669
f 669 749 672
f 672 750 673
f 749 750 672
f 674 673 750
f 674 750 751
f 675 748 671
f 675 752 748
f 751 676 674
f 753 676 751
f 756 755 754
f 758 757 754
f 758 754 755
f 677 678 757
f 758 677 757
f 759 677 758
f 675 677 752
f 752 677 759
f 753 680 676
f 760 680 753
f 756 754 681
f 682 756 681
f 761 756 682
f 681 754 683
f 683 754 757
f 683 757 678
f 763 762 685
f 685 762 684
f 685 680 760
f 685 760 763
f 766 765 764
f 765 761 764
f 761 686 764
f 761 682 686
f 762 767 684
f 684 767 687
f 687 768 688
f 767 768 687
f 689 688 768
f 689 768 769
f 766 764 770
f 766 770 771
f 690 770 686
f 686 770 764
f 691 689 772
f 689 773 772
f 689 769 773
f 774 692 691
f 774 691 772
f 774 693 692
f 775 771 770
f 770 690 775
f 690 776 775
f 690 694 776
f 773 777 772
f 779 778 777
f 778 772 777
f 778 774 772
f 780 695 693
f 774 780 693
f 778 780 774
f 780 696 695
f 782 781 698
f 782 698 699
f 694 698 776
f 776 698 781
f 779 783 778
f 778 783 780
f 780 783 784
f 784 786 785
f 784 785 700
f 780 784 700
f 696 780 700
f 785 701 700
f 788 787 703
f 788 703 704
f 699 703 782
f 782 703 787
f 786 789 785
f 789 791 790
f 789 790 705
f 785 789 705
f 701 785 705
f 792 706 705
f 792 705 790
f 793 707 706
f 793 706 792
f 794 709 707
f 794 707 793
f 795 711 709
f 795 709 794
f 795 796 711
f 796 704 711
f 796 788 704
f 791 797 790
f 790 797 792
f 792 797 798
f 792 798 793
f 793 798 799
f 801 800 799
f 800 793 799
f 800 794 793
f 803 795 802
f 795 800 802
f 795 794 800
f 795 803 796
f 800 801 804
f 804 801 805
f 802 800 806
f 806 800 804
f 805 807 804
f 804 807 806
f 809 808 713
f 713 808 712
f 810 713 714
f 810 809 713
f 811 714 715
f 811 810 714
f 813 812 716
f 812 715 716
f 812 811 715
f 813 814 812
f 808 717 712
f 815 717 808
f 718 813 716
f 816 814 813
f 718 816 813
f 719 816 718
f 719 720 816
f 816 720 817
f 820 819 818
f 815 820 818
f 722 815 818
f 717 815 722
f 821 817 720
f 821 720 723
f 822 723 724
f 822 821 723
f 724 726 822
f 822 726 823
f 818 819 730
f 819 729 730
f 819 824 729
f 818 730 722
f 726 731 825
f 826 726 825
f 823 726 826
f 733 825 731
f 828 827 735
f 735 827 736
f 829 735 737
f 829 828 735
f 830 737 738
f 830 829 737
f 831 738 739
f 831 830 738
f 832 739 740
f 832 831 739
f 833 740 741
f 833 832 740
f 834 741 742
f 834 833 741
f 742 729 824
f 742 824 834
f 835 826 825
f 835 825 733
f 743 835 733
f 836 835 743
f 838 836 837
f 836 744 837
f 836 743 744
f 745 837 744
f 746 736 839
f 736 840 839
f 736 827 840
f 839 747 746
f 841 838 837
f 837 745 841
f 745 842 841
f 745 748 842
f 840 843 839
f 843 845 844
f 843 844 749
f 839 843 749
f 747 839 749
f 846 750 749
f 846 749 844
f 846 751 750
f 752 842 748
f 752 847 842
f 844 845 848
f 848 845 849
f 844 850 846
f 844 848 850
f 850 753 751
f 850 751 846
f 853 852 851
f 855 854 851
f 855 851 852
f 755 756 854
f 855 755 854
f 856 755 855
f 755 857 758
f 856 857 755
f 758 858 759
f 857 858 758
f 752 759 847
f 847 759 858
f 849 859 848
f 861 860 859
f 860 848 859
f 860 850 848
f 860 760 753
f 860 753 850
f 862 853 851
f 864 863 862
f 851 864 862
f 854 864 851
f 761 864 756
f 756 864 854
f 860 861 763
f 861 762 763
f 861 865 762
f 860 763 760
f 863 864 765
f 766 863 765
f 866 863 766
f 765 864 761
f 865 867 762
f 762 867 767
f 767 868 768
f 867 868 767
f 769 768 868
f 769 868 869
f 771 866 766
f 771 870 866
f 869 773 769
f 871 773 869
f 872 870 771
f 872 771 775
f 775 776 872
f 872 776 873
f 777 773 874
f 773 875 874
f 773 871 875
f 874 779 777
f 877 876 781
f 877 781 782
f 776 781 873
f 873 781 876
f 875 878 874
f 874 878 779
f 878 783 779
f 878 879 783
f 879 881 880
f 784 879 880
f 783 879 784
f 880 786 784
f 883 882 787
f 883 787 788
f 782 787 877
f 877 787 882
f 880 881 884
f 884 881 885
f 886 789 786
f 880 886 786
f 884 886 880
f 886 791 789
f 889 888 887
f 891 890 887
f 891 887 888
f 891 883 890
f 883 796 890
f 883 788 796
f 885 892 884
f 884 892 886
f 886 892 893
f 886 893 791
f 893 797 791
f 893 894 797
f 894 896 895
f 798 894 895
f 797 894 798
f 897 799 798
f 897 798 895
f 889 897 898
f 897 889 799
f 887 799 889
f 799 887 801
f 899 801 887
f 802 899 803
f 899 890 803
f 899 887 890
f 803 890 796
f 896 900 895
f 902 901 900
f 901 895 900
f 901 897 895
f 801 899 805
f 903 805 899
f 805 903 901
f 898 901 903
f 901 898 897
f 899 802 903
f 802 904 903
f 802 806 904
f 901 902 905
f 905 902 906
f 901 905 805
f 905 907 805
f 907 807 805
f 905 908 907
f 806 807 904
f 904 807 907
f 905 906 909
f 909 906 910
f 908 905 911
f 911 905 909
f 909 910 912
f 912 910 913
f 911 909 914
f 914 909 912
f 913 915 912
f 912 915 914
f 917 916 809
f 809 916 808
f 918 809 810
f 918 917 809
f 919 810 811
f 919 918 810
f 921 919 920
f 919 812 920
f 919 811 812
f 814 920 812
f 916 815 808
f 922 815 916
f 923 921 920
f 925 923 924
f 924 923 816
f 923 920 816
f 920 814 816
f 817 924 816
f 927 926 820
f 820 926 819
f 820 815 922
f 820 922 927
f 925 924 928
f 925 928 929
f 821 930 817
f 930 924 817
f 930 928 924
f 822 931 821
f 821 931 930
f 823 931 822
f 934 933 932
f 936 935 932
f 932 935 934
f 938 937 936
f 936 937 935
f 940 939 938
f 938 939 937
f 942 941 940
f 940 941 939
f 944 943 942
f 942 943 941
f 946 945 944
f 944 945 943
f 948 947 946
f 946 947 945
f 926 947 948
f 824 926 948
f 819 926 824
f 949 929 928
f 949 928 930
f 949 930 950
f 952 951 950
f 930 952 950
f 931 952 930
f 826 952 823
f 823 952 931
f 932 933 953
f 953 933 954
f 953 827 828
f 936 953 828
f 932 953 936
f 936 828 829
f 936 829 938
f 938 829 830
f 938 830 940
f 940 830 831
f 940 831 942
f 942 831 832
f 942 832 944
f 944 832 833
f 944 833 946
f 946 833 834
f 946 834 948
f 948 834 824
f 955 951 952
f 955 952 826
f 835 955 826
f 956 955 835
f 958 956 957
f 956 836 957
f 956 835 836
f 838 957 836
f 954 959 953
f 827 953 959
f 960 827 959
f 840 827 960
f 961 958 957
f 961 957 838
f 841 961 838
f 962 961 841
f 841 842 962
f 962 842 963
f 843 840 964
f 840 965 964
f 840 960 965
f 964 845 843
f 847 963 842
f 847 966 963
f 964 965 967
f 967 965 968
f 967 849 845
f 967 845 964
f 970 969 852
f 970 852 853
f 852 971 855
f 969 971 852
f 855 972 856
f 971 972 855
f 856 973 857
f 972 973 856
f 857 974 858
f 973 974 857
f 847 858 966
f 966 858 974
f 967 968 975
f 975 968 976
f 977 859 849
f 967 977 849
f 975 977 967
f 977 861 859
f 853 862 978
f 979 853 978
f 970 853 979
f 863 978 862
f 975 976 980
f 980 976 981
f 975 982 977
f 975 980 982
f 982 865 861
f 982 861 977
f 979 978 983
f 979 983 984
f 866 983 863
f 863 983 978
f 980 981 985
f 985 981 986
f 980 987 982
f 980 985 987
f 988 867 865
f 982 988 865
f 987 988 982
f 989 868 867
f 989 867 988
f 989 869 868
f 990 984 983
f 983 866 990
f 866 991 990
f 866 870 991
f 986 992 985
f 985 992 987
f 987 992 993
f 987 993 988
f 988 993 994
f 996 995 994
f 995 988 994
f 995 989 988
f 995 871 869
f 995 869 989
f 999 998 997
f 1000 997 872
f 997 991 872
f 991 870 872
f 991 997 998
f 873 1000 872
f 996 1001 995
f 871 995 1001
f 1002 871 1001
f 875 871 1002
f 999 997 1003
f 999 1003 1004
f 877 1003 876
f 1003 1000 876
f 1003 997 1000
f 876 1000 873
f 1002 1005 875
f 875 1005 878
f 878 1006 879
f 1005 1006 878
f 881 879 1006
f 881 1006 1007
f 1010 1009 1008
f 1008 1009 1004
f 1008 1004 1003
f 883 1008 1003
f 882 883 1003
f 882 1003 877
f 1007 885 881
f 1011 885 1007
f 1013 1012 888
f 1013 888 889
f 1008 891 1010
f 891 1012 1010
f 891 888 1012
f 891 1008 883
f 892 885 1014
f 885 1015 1014
f 885 1011 1015
f 1016 893 892
f 1016 892 1014
f 1017 894 893
f 1017 893 1016
f 1017 896 894
f 1020 1019 1018
f 1019 1013 1018
f 1013 898 1018
f 1013 889 898
f 1015 1021 1014
f 1014 1021 1016
f 1016 1021 1022
f 1024 1023 1022
f 1023 1016 1022
f 1023 1017 1016
f 1025 900 896
f 1017 1025 896
f 1023 1025 1017
f 1018 1026 1020
f 902 900 1025
f 1028 1026 1027
f 1027 1026 903
f 1026 1018 903
f 1018 898 903
f 904 1027 903
f 1024 1029 1023
f 1031 1030 1029
f 1030 1023 1029
f 1030 1025 1023
f 1030 906 902
f 1030 902 1025
f 1028 1027 907
f 908 1028 907
f 1032 1028 908
f 907 1027 904
f 1031 1033 1030
f 910 906 1030
f 1034 910 1030
f 1033 1034 1030
f 910 1034 1035
f 1034 1032 1035
f 1032 911 1035
f 1032 908 911
f 1038 1037 1036
f 1039 1038 1035
f 1038 913 1035
f 913 910 1035
f 1038 1036 913
f 1035 911 1039
f 911 1040 1039
f 911 914 1040
f 1036 1037 1041
f 1041 1037 1042
f 1043 915 913
f 1036 1043 913
f 1041 1043 1036
f 1043 1044 915
f 1044 914 915
f 1044 1040 914
f 1042 1045 1041
f 1041 1045 1043
f 1043 1045 1046
f 1043 1046 1044
f 1047 916 917
f 918 1048 917
f 917 1048 1047
f 1048 918 1049
f 918 1050 1049
f 918 919 1050
f 919 921 1050
f 1050 921 1051
f 1054 1053 1052
f 1055 1054 1047
f 1054 922 1047
f 922 916 1047
f 1054 1052 922
f 1055 1047 1048
f 1055 1048 1056
f 1056 1048 1049
f 1057 1051 921
f 1057 921 923
f 923 925 1057
f 1057 925 1058
f 1061 1060 1059
f 1063 1062 1059
f 1059 1062 1061
f 1063 1064 1062
f 1052 1053 927
f 1053 926 927
f 1053 1065 926
f 1052 927 922
f 929 1058 925
f 929 1066 1058
f 1068 1067 934
f 934 1067 933
f 1069 934 935
f 1069 1068 934
f 1070 935 937
f 1070 1069 935
f 1071 937 939
f 1071 1070 937
f 1072 939 941
f 1072 1071 939
f 943 1059 1060
f 1072 943 1060
f 941 943 1072
f 1059 943 945
f 1059 945 1063
f 1073 1064 1063
f 945 1073 1063
f 947 1073 945
f 947 926 1065
f 947 1065 1073
f 1074 1066 929
f 1074 929 949
f 1076 1074 1075
f 1074 950 1075
f 1074 949 950
f 951 1075 950
f 1067 954 933
f 1077 954 1067
f 1078 1076 1075
f 1080 1078 1079
f 1079 1078 955
f 1078 1075 955
f 1075 951 955
f 956 1081 955
f 955 1081 1079
f 958 1081 956
f 959 954 1082
f 954 1083 1082
f 954 1077 1083
f 1082 960 959
f 1084 1080 1079
f 1084 1079 1081
f 1084 1081 1085
f 1087 1085 1086
f 1086 1085 961
f 1085 1081 961
f 1081 958 961
f 962 1088 961
f 961 1088 1086
f 963 1088 962
f 1082 1083 1089
f 1089 1083 1090
f 1089 965 960
f 1089 960 1082
f 1091 1087 1086
f 1093 1092 1091
f 1086 1093 1091
f 1088 1093 1086
f 966 1093 963
f 963 1093 1088
f 1090 1094 1089
f 965 1089 1094
f 1095 965 1094
f 968 965 1095
f 1098 1097 1096
f 969 970 1096
f 1097 969 1096
f 1099 969 1097
f 969 1100 971
f 1099 1100 969
f 971 1101 972
f 1100 1101 971
f 972 1102 973
f 1101 1102 972
f 1093 974 1092
f 974 1102 1092
f 974 973 1102
f 974 1093 966
f 1105 1104 1103
f 1095 1105 1103
f 976 1095 1103
f 968 1095 976
f 1106 1098 1096
f 1096 970 1106
f 970 1107 1106
f 970 979 1107
f 1103 1104 1108
f 1108 1104 1109
f 1108 981 976
f 1108 976 1103
f 984 1107 979
f 984 1110 1107
f 1108 1109 1111
f 1111 1109 1112
f 1111 986 981
f 1111 981 1108
f 1115 1114 1113
f 1116 1113 990
f 1113 1110 990
f 1110 984 990
f 1110 1113 1114
f 991 1116 990
f 1112 1117 1111
f 1111 1117 986
f 1117 992 986
f 1117 1118 992
f 992 1119 993
f 1118 1119 992
f 1119 1121 1120
f 994 1119 1120
f 993 1119 994
f 1120 996 994
f 1122 1115 1113
f 999 1123 998
f 1123 1113 998
f 1113 1116 998
f 1123 1122 1113
f 998 1116 991
f 1121 1124 1120
f 1120 1124 996
f 1124 1001 996
f 1124 1125 1001
f 1127 1126 1002
f 1001 1127 1002
f 1125 1127 1001
f 1129 1128 1126
f 1129 1126 1127
f 1130 1128 1129
f 1133 1132 1131
f 1132 1123 1131
f 1123 1004 1131
f 1123 999 1004
f 1126 1005 1002
f 1005 1126 1006
f 1006 1126 1128
f 1135 1134 1007
f 1135 1007 1006
f 1130 1135 1006
f 1128 1130 1006
f 1136 1134 1135
f 1133 1131 1009
f 1010 1133 1009
f 1137 1133 1010
f 1009 1131 1004
f 1138 1011 1134
f 1134 1011 1007
f 1134 1136 1139
f 1134 1139 1138
f 1141 1140 1012
f 1141 1012 1013
f 1010 1012 1137
f 1137 1012 1140
f 1143 1142 1138
f 1142 1011 1138
f 1142 1015 1011
f 1143 1138 1139
f 1145 1144 1019
f 1145 1019 1020
f 1013 1019 1141
f 1141 1019 1144
f 1142 1146 1015
f 1015 1146 1021
f 1021 1147 1022
f 1146 1147 1021
f 1149 1148 1024
f 1022 1149 1024
f 1147 1149 1022
f 1150 1148 1149
f 1151 1145 1020
f 1151 1020 1026
f 1026 1028 1151
f 1151 1028 1152
f 1148 1029 1024
f 1031 1029 1148
f 1150 1031 1148
f 1153 1031 1150
f 1156 1155 1154
f 1155 1152 1154
f 1152 1032 1154
f 1152 1028 1032
f 1033 1031 1157
f 1031 1158 1157
f 1031 1153 1158
f 1159 1156 1154
f 1033 1159 1154
f 1034 1033 1154
f 1159 1033 1157
f 1034 1154 1032
f 1157 1158 1038
f 1158 1037 1038
f 1158 1160 1037
f 1038 1039 1157
f 1039 1161 1157
f 1161 1159 1157
f 1039 1162 1161
f 1040 1162 1039
f 1165 1164 1163
f 1160 1165 1163
f 1042 1160 1163
f 1037 1160 1042
f 1161 1162 1166
f 1161 1166 1167
f 1044 1166 1040
f 1040 1166 1162
f 1164 1168 1163
f 1163 1168 1042
f 1168 1045 1042
f 1168 1169 1045
f 1166 1046 1167
f 1046 1169 1167
f 1046 1045 1169
f 1046 1166 1044
f 1170 1049 1050
f 1051 1170 1050
f 1173 1172 1171
f 1175 1174 1171
f 1171 1174 1173
f 1175 1176 1174
f 1178 1177 1054
f 1054 1177 1053
f 1180 1178 1179
f 1178 1055 1179
f 1178 1054 1055
f 1179 1055 1181
f 1055 1182 1181
f 1055 1056 1182
f 1056 1049 1170
f 1183 1056 1170
f 1182 1056 1183
f 1185 1183 1184
f 1184 1183 1057
f 1183 1170 1057
f 1170 1051 1057
f 1058 1184 1057
f 1188 1187 1186
f 1190 1189 1186
f 1186 1189 1188
f 1189 1190 1172
f 1172 1190 1171
f 1190 1060 1171
f 1060 1061 1171
f 1171 1061 1062
f 1171 1062 1175
f 1192 1191 1064
f 1064 1191 1062
f 1191 1176 1062
f 1176 1175 1062
f 1177 1191 1192
f 1065 1177 1192
f 1053 1177 1065
f 1193 1180 1179
f 1193 1179 1181
f 1185 1184 1194
f 1185 1194 1195
f 1066 1194 1058
f 1058 1194 1184
f 1197 1196 1068
f 1068 1196 1067
f 1198 1068 1069
f 1198 1197 1068
f 1199 1069 1070
f 1199 1198 1069
f 1071 1186 1187
f 1199 1071 1187
f 1070 1071 1199
f 1186 1071 1072
f 1186 1072 1190
f 1190 1072 1060
f 1073 1192 1064
f 1192 1073 1065
f 1200 1195 1194
f 1202 1200 1201
f 1201 1200 1074
f 1200 1194 1074
f 1194 1066 1074
f 1076 1201 1074
f 1204 1077 1203
f 1077 1196 1203
f 1077 1067 1196
f 1205 1204 1203
f 1206 1202 1201
f 1208 1206 1207
f 1207 1206 1078
f 1206 1201 1078
f 1201 1076 1078
f 1080 1207 1078
f 1209 1083 1204
f 1204 1083 1077
f 1204 1205 1210
f 1204 1210 1209
f 1213 1212 1211
f 1215 1214 1211
f 1215 1211 1212
f 1217 1216 1214
f 1217 1214 1215
f 1218 1216 1217
f 1219 1208 1207
f 1221 1219 1220
f 1220 1219 1084
f 1219 1207 1084
f 1207 1080 1084
f 1085 1222 1084
f 1084 1222 1220
f 1087 1222 1085
f 1223 1090 1209
f 1209 1090 1083
f 1209 1210 1224
f 1225 1209 1224
f 1223 1209 1225
f 1227 1226 1225
f 1227 1225 1224
f 1229 1228 1226
f 1229 1226 1227
f 1228 1229 1213
f 1211 1228 1213
f 1230 1228 1211
f 1231 1211 1214
f 1230 1211 1231
f 1232 1214 1216
f 1231 1214 1232
f 1216 1218 1233
f 1216 1233 1232
f 1234 1221 1220
f 1234 1220 1222
f 1234 1222 1235
f 1237 1235 1236
f 1236 1235 1091
f 1235 1222 1091
f 1222 1087 1091
f 1092 1236 1091
f 1223 1094 1090
f 1094 1223 1095
f 1223 1238 1095
f 1223 1225 1238
f 1239 1225 1226
f 1238 1225 1239
f 1240 1226 1228
f 1239 1226 1240
f 1241 1228 1230
f 1240 1228 1241
f 1242 1230 1231
f 1241 1230 1242
f 1243 1231 1232
f 1242 1231 1243
f 1232 1233 1244
f 1232 1244 1243
f 1246 1245 1097
f 1246 1097 1098
f 1097 1247 1099
f 1245 1247 1097
f 1099 1248 1100
f 1247 1248 1099
f 1100 1249 1101
f 1248 1249 1100
f 1236 1102 1237
f 1102 1249 1237
f 1102 1101 1249
f 1102 1236 1092
f 1250 1104 1105
f 1251 1250 1105
f 1251 1105 1095
f 1252 1251 1095
f 1238 1252 1095
f 1252 1238 1239
f 1252 1239 1253
f 1253 1239 1240
f 1253 1240 1254
f 1256 1255 1254
f 1240 1256 1254
f 1241 1256 1240
f 1257 1241 1242
f 1256 1241 1257
f 1258 1242 1243
f 1257 1242 1258
f 1243 1244 1259
f 1243 1259 1258
f 1098 1106 1260
f 1261 1098 1260
f 1246 1098 1261
f 1107 1260 1106
f 1262 1109 1250
f 1250 1109 1104
f 1250 1251 1263
f 1250 1263 1262
f 1255 1256 1264
f 1255 1264 1265
f 1266 1256 1257
f 1264 1256 1266
f 1258 1268 1267
f 1266 1258 1267
f 1257 1258 1266
f 1268 1258 1259
f 1261 1260 1269
f 1261 1269 1270
f 1110 1269 1107
f 1107 1269 1260
f 1271 1112 1262
f 1262 1112 1109
f 1262 1263 1272
f 1262 1272 1271
f 1265 1264 1273
f 1265 1273 1274
f 1275 1264 1266
f 1273 1264 1275
f 1266 1267 1276
f 1266 1276 1275
f 1270 1269 1114
f 1115 1270 1114
f 1277 1270 1115
f 1114 1269 1110
f 1271 1117 1112
f 1272 1278 1271
f 1278 1117 1271
f 1278 1118 1117
f 1118 1279 1119
f 1278 1279 1118
f 1281 1280 1121
f 1119 1281 1121
f 1279 1281 1119
f 1280 1281 1274
f 1273 1280 1274
f 1282 1280 1273
f 1283 1273 1275
f 1282 1273 1283
f 1275 1276 1284
f 1275 1284 1283
f 1115 1122 1285
f 1286 1115 1285
f 1277 1115 1286
f 1123 1285 1122
f 1280 1124 1121
f 1124 1280 1125
f 1125 1280 1282
f 1125 1282 1127
f 1127 1282 1283
f 1129 1127 1283
f 1287 1129 1283
f 1284 1287 1283
f 1288 1129 1287
f 1288 1130 1129
f 1286 1285 1132
f 1133 1286 1132
f 1289 1286 1133
f 1132 1285 1123
f 1287 1290 1288
f 1290 1292 1291
f 1290 1291 1135
f 1288 1290 1135
f 1130 1288 1135
f 1291 1136 1135
f 1295 1294 1293
f 1294 1289 1293
f 1289 1137 1293
f 1289 1133 1137
f 1291 1292 1296
f 1296 1292 1297
f 1296 1139 1136
f 1296 1136 1291
f 1295 1293 1140
f 1141 1295 1140
f 1298 1295 1141
f 1140 1293 1137
f 1299 1142 1143
f 1297 1300 1296
f 1301 1296 1300
f 1301 1139 1296
f 1301 1299 1143
f 1139 1301 1143
f 1303 1302 1144
f 1303 1144 1145
f 1141 1144 1298
f 1298 1144 1302
f 1299 1146 1142
f 1301 1304 1299
f 1304 1146 1299
f 1304 1147 1146
f 1304 1306 1305
f 1149 1304 1305
f 1147 1304 1149
f 1305 1150 1149
f 1145 1151 1307
f 1308 1145 1307
f 1303 1145 1308
f 1152 1307 1151
f 1305 1306 1309
f 1309 1306 1310
f 1309 1153 1150
f 1309 1150 1305
f 1308 1307 1155
f 1156 1308 1155
f 1311 1308 1156
f 1155 1307 1152
f 1309 1310 1312
f 1312 1310 1313
f 1312 1158 1153
f 1312 1153 1309
f 1159 1311 1156
f 1159 1314 1311
f 1313 1315 1312
f 1158 1312 1315
f 1316 1158 1315
f 1160 1158 1316
f 1161 1314 1159
f 1161 1317 1314
f 1318 1164 1165
f 1319 1318 1165
f 1160 1319 1165
f 1316 1319 1160
f 1167 1317 1161
f 1167 1320 1317
f 1318 1168 1164
f 1319 1321 1318
f 1321 1168 1318
f 1321 1169 1168
f 1167 1169 1320
f 1320 1169 1321
f 1324 1323 1322
f 1326 1325 1322
f 1322 1325 1324
f 1328 1327 1326
f 1326 1327 1325
f 1328 1329 1327
f 1322 1323 1173
f 1323 1172 1173
f 1323 1330 1172
f 1322 1173 1174
f 1322 1174 1326
f 1326 1174 1176
f 1331 1326 1176
f 1328 1326 1331
f 1329 1333 1332
f 1333 1329 1178
f 1328 1178 1329
f 1178 1328 1177
f 1331 1177 1328
f 1180 1333 1178
f 1335 1334 1182
f 1182 1334 1181
f 1337 1335 1336
f 1335 1183 1336
f 1335 1182 1183
f 1185 1336 1183
f 1338 1187 1188
f 1189 1339 1188
f 1188 1339 1338
f 1340 1339 1189
f 1172 1340 1189
f 1330 1340 1172
f 1191 1331 1176
f 1333 1341 1332
f 1177 1331 1191
f 1341 1333 1180
f 1193 1341 1180
f 1342 1341 1193
f 1193 1181 1334
f 1193 1334 1342
f 1337 1336 1343
f 1337 1343 1344
f 1195 1343 1185
f 1185 1343 1336
f 1345 1196 1197
f 1198 1346 1197
f 1197 1346 1345
f 1346 1198 1347
f 1198 1348 1347
f 1198 1199 1348
f 1348 1199 1187
f 1349 1348 1187
f 1338 1349 1187
f 1348 1349 1350
f 1351 1338 1339
f 1349 1338 1351
f 1339 1340 1352
f 1339 1352 1351
f 1353 1344 1343
f 1353 1343 1195
f 1200 1353 1195
f 1354 1353 1200
f 1200 1202 1354
f 1354 1202 1355
f 1345 1203 1196
f 1203 1345 1205
f 1345 1356 1205
f 1345 1346 1356
f 1346 1347 1357
f 1358 1346 1357
f 1356 1346 1358
f 1358 1357 1350
f 1349 1358 1350
f 1359 1358 1349
f 1360 1349 1351
f 1359 1349 1360
f 1351 1352 1361
f 1351 1361 1360
f 1364 1363 1362
f 1365 1362 1206
f 1362 1355 1206
f 1355 1202 1206
f 1355 1362 1363
f 1208 1365 1206
f 1366 1210 1356
f 1356 1210 1205
f 1367 1356 1358
f 1366 1356 1367
f 1368 1358 1359
f 1367 1358 1368
f 1213 1368 1212
f 1368 1360 1212
f 1368 1359 1360
f 1361 1369 1360
f 1369 1212 1360
f 1369 1215 1212
f 1369 1371 1370
f 1217 1369 1370
f 1215 1369 1217
f 1370 1218 1217
f 1372 1364 1362
f 1372 1362 1365
f 1372 1365 1373
f 1375 1373 1374
f 1374 1373 1219
f 1373 1365 1219
f 1365 1208 1219
f 1221 1374 1219
f 1366 1224 1210
f 1224 1366 1227
f 1227 1366 1367
f 1227 1367 1229
f 1229 1367 1368
f 1229 1368 1213
f 1371 1376 1370
f 1233 1218 1370
f 1377 1233 1370
f 1376 1377 1370
f 1233 1377 1378
f 1379 1378 1377
f 1380 1375 1374
f 1382 1380 1381
f 1381 1380 1234
f 1380 1374 1234
f 1374 1221 1234
f 1235 1383 1234
f 1234 1383 1381
f 1237 1383 1235
f 1384 1244 1378
f 1378 1244 1233
f 1378 1379 1385
f 1378 1385 1384
f 1246 1386 1245
f 1387 1247 1245
f 1387 1245 1386
f 1388 1382 1381
f 1247 1388 1381
f 1248 1247 1381
f 1388 1247 1387
f 1248 1381 1249
f 1249 1381 1383
f 1249 1383 1237
f 1389 1251 1252
f 1253 1390 1252
f 1252 1390 1389
f 1254 1391 1253
f 1253 1391 1390
f 1255 1391 1254
f 1393 1392 1384
f 1392 1244 1384
f 1392 1259 1244
f 1393 1384 1385
f 1261 1394 1386
f 1261 1386 1246
f 1386 1395 1387
f 1386 1394 1395
f 1388 1387 1396
f 1396 1387 1395
f 1397 1263 1389
f 1389 1263 1251
f 1398 1389 1390
f 1397 1389 1398
f 1399 1390 1391
f 1398 1390 1399
f 1265 1399 1255
f 1255 1399 1391
f 1400 1267 1268
f 1401 1400 1268
f 1259 1401 1268
f 1392 1401 1259
f 1404 1403 1402
f 1403 1405 1394
f 1270 1403 1394
f 1261 1270 1394
f 1402 1403 1270
f 1394 1405 1395
f 1395 1405 1406
f 1395 1406 1396
f 1407 1272 1397
f 1397 1272 1263
f 1408 1397 1398
f 1407 1397 1408
f 1409 1398 1399
f 1408 1398 1409
f 1274 1409 1265
f 1265 1409 1399
f 1410 1276 1400
f 1400 1276 1267
f 1400 1401 1411
f 1400 1411 1410
f 1404 1402 1412
f 1404 1412 1413
f 1277 1412 1270
f 1270 1412 1402
f 1407 1278 1272
f 1278 1407 1279
f 1279 1407 1408
f 1279 1408 1281
f 1281 1408 1409
f 1281 1409 1274
f 1414 1284 1410
f 1410 1284 1276
f 1410 1411 1415
f 1410 1415 1414
f 1413 1412 1416
f 1413 1416 1417
f 1286 1416 1277
f 1277 1416 1412
f 1418 1287 1414
f 1414 1287 1284
f 1414 1415 1419
f 1420 1414 1419
f 1418 1414 1420
f 1421 1420 1419
f 1417 1416 1422
f 1417 1422 1423
f 1289 1422 1286
f 1286 1422 1416
f 1418 1290 1287
f 1290 1418 1292
f 1418 1424 1292
f 1418 1420 1424
f 1420 1421 1425
f 1426 1420 1425
f 1424 1420 1426
f 1428 1427 1426
f 1428 1426 1425
f 1429 1427 1428
f 1423 1422 1294
f 1295 1423 1294
f 1430 1423 1295
f 1294 1422 1289
f 1431 1297 1424
f 1424 1297 1292
f 1432 1424 1426
f 1431 1424 1432
f 1433 1426 1427
f 1432 1426 1433
f 1427 1429 1434
f 1427 1434 1433
f 1298 1430 1295
f 1298 1435 1430
f 1431 1300 1297
f 1300 1431 1301
f 1431 1436 1301
f 1431 1432 1436
f 1437 1432 1433
f 1436 1432 1437
f 1433 1434 1438
f 1433 1438 1437
f 1440 1439 1302
f 1440 1302 1303
f 1298 1302 1435
f 1435 1302 1439
f 1436 1304 1301
f 1304 1436 1306
f 1436 1441 1306
f 1436 1437 1441
f 1437 1438 1442
f 1443 1437 1442
f 1441 1437 1443
f 1442 1440 1443
f 1440 1308 1443
f 1440 1303 1308
f 1444 1310 1441
f 1441 1310 1306
f 1445 1441 1443
f 1444 1441 1445
f 1311 1445 1308
f 1308 1445 1443
f 1446 1313 1444
f 1444 1313 1310
f 1447 1444 1445
f 1446 1444 1447
f 1314 1447 1311
f 1311 1447 1445
f 1446 1315 1313
f 1315 1446 1316
f 1446 1448 1316
f 1446 1447 1448
f 1317 1448 1314
f 1314 1448 1447
f 1449 1319 1448
f 1448 1319 1316
f 1320 1449 1317
f 1317 1449 1448
f 1449 1321 1319
f 1321 1449 1320
f 1450 1323 1324
f 1450 1324 1451
f 1324 1452 1451
f 1324 1325 1452
f 1453 1325 1327
f 1453 1452 1325
f 1327 1329 1453
f 1453 1329 1454
f 1455 1330 1450
f 1450 1330 1323
f 1450 1451 1456
f 1450 1456 1455
f 1332 1454 1329
f 1332 1457 1454
f 1458 1334 1335
f 1337 1458 1335
f 1459 1340 1455
f 1455 1340 1330
f 1455 1456 1460
f 1455 1460 1459
f 1461 1457 1332
f 1461 1332 1341
f 1462 1341 1342
f 1462 1461 1341
f 1342 1334 1458
f 1463 1342 1458
f 1462 1342 1463
f 1458 1337 1463
f 1337 1464 1463
f 1337 1344 1464
f 1465 1347 1348
f 1350 1465 1348
f 1466 1352 1459
f 1459 1352 1340
f 1459 1460 1467
f 1459 1467 1466
f 1468 1464 1344
f 1468 1344 1353
f 1470 1468 1469
f 1468 1354 1469
f 1468 1353 1354
f 1355 1469 1354
f 1465 1357 1347
f 1357 1465 1350
f 1471 1361 1466
f 1466 1361 1352
f 1466 1467 1472
f 1466 1472 1471
f 1475 1474 1473
f 1477 1476 1473
f 1477 1473 1474
f 1476 1477 1470
f 1476 1470 1469
f 1364 1476 1469
f 1363 1364 1469
f 1363 1469 1355
f 1471 1369 1361
f 1371 1369 1471
f 1472 1371 1471
f 1478 1371 1472
f 1479 1475 1473
f 1479 1473 1476
f 1479 1476 1480
f 1482 1480 1481
f 1481 1480 1372
f 1480 1476 1372
f 1476 1364 1372
f 1373 1483 1372
f 1372 1483 1481
f 1375 1483 1373
f 1478 1484 1371
f 1371 1484 1376
f 1376 1485 1377
f 1484 1485 1376
f 1379 1377 1485
f 1379 1485 1486
f 1487 1482 1481
f 1487 1481 1483
f 1487 1483 1488
f 1490 1488 1489
f 1489 1488 1380
f 1488 1483 1380
f 1483 1375 1380
f 1382 1489 1380
f 1492 1385 1491
f 1385 1486 1491
f 1385 1379 1486
f 1493 1492 1491
f 1494 1490 1489
f 1489 1382 1494
f 1382 1495 1494
f 1382 1388 1495
f 1496 1392 1393
f 1497 1496 1393
f 1497 1393 1385
f 1498 1497 1385
f 1492 1498 1385
f 1498 1492 1493
f 1396 1495 1388
f 1396 1499 1495
f 1501 1500 1496
f 1500 1392 1496
f 1500 1401 1392
f 1501 1496 1497
f 1404 1502 1403
f 1403 1502 1503
f 1504 1403 1503
f 1405 1403 1504
f 1405 1505 1406
f 1504 1505 1405
f 1396 1406 1499
f 1499 1406 1505
f 1500 1411 1401
f 1506 1411 1500
f 1508 1507 1502
f 1404 1508 1502
f 1413 1508 1404
f 1502 1507 1503
f 1510 1415 1509
f 1415 1506 1509
f 1415 1411 1506
f 1511 1510 1509
f 1514 1513 1512
f 1515 1512 1513
f 1417 1508 1413
f 1417 1516 1508
f 1510 1419 1415
f 1518 1517 1421
f 1518 1421 1419
f 1511 1518 1419
f 1510 1511 1419
f 1520 1519 1517
f 1520 1517 1518
f 1519 1520 1514
f 1512 1519 1514
f 1521 1519 1512
f 1512 1515 1522
f 1512 1522 1521
f 1423 1516 1417
f 1423 1523 1516
f 1517 1425 1421
f 1425 1517 1428
f 1428 1517 1519
f 1428 1519 1429
f 1519 1524 1429
f 1519 1521 1524
f 1521 1522 1525
f 1526 1521 1525
f 1524 1521 1526
f 1525 1523 1526
f 1523 1430 1526
f 1523 1423 1430
f 1527 1434 1524
f 1524 1434 1429
f 1528 1524 1526
f 1527 1524 1528
f 1435 1528 1430
f 1430 1528 1526
f 1529 1438 1527
f 1527 1438 1434
f 1440 1529 1439
f 1529 1528 1439
f 1529 1527 1528
f 1439 1528 1435
f 1529 1442 1438
f 1442 1529 1440
f 1530 1451 1452
f 1453 1531 1452
f 1452 1531 1530
f 1454 1531 1453
f 1532 1456 1530
f 1530 1456 1451
f 1533 1530 1531
f 1532 1530 1533
f 1457 1533 1454
f 1454 1533 1531
f 1535 1534 1532
f 1534 1456 1532
f 1534 1460 1456
f 1535 1532 1533
f 1535 1533 1536
f 1538 1536 1537
f 1537 1536 1461
f 1536 1533 1461
f 1533 1457 1461
f 1462 1539 1461
f 1461 1539 1537
f 1463 1540 1462
f 1462 1540 1539
f 1464 1540 1463
f 1534 1467 1460
f 1541 1467 1534
f 1538 1537 1542
f 1538 1542 1543
f 1544 1537 1539
f 1542 1537 1544
f 1545 1539 1540
f 1544 1539 1545
f 1468 1546 1464
f 1546 1540 1464
f 1546 1545 1540
f 1470 1546 1468
f 1541 1472 1467
f 1547 1472 1541
f 1548 1543 1542
f 1550 1549 1548
f 1542 1550 1548
f 1544 1550 1542
f 1475 1550 1474
f 1550 1545 1474
f 1550 1544 1545
f 1474 1545 1477
f 1477 1545 1546
f 1477 1546 1470
f 1547 1478 1472
f 1551 1478 1547
f 1554 1553 1552
f 1552 1556 1555
f 1552 1550 1556
f 1552 1553 1549
f 1550 1552 1549
f 1556 1550 1475
f 1479 1556 1475
f 1557 1556 1479
f 1559 1557 1558
f 1557 1480 1558
f 1557 1479 1480
f 1482 1558 1480
f 1551 1560 1478
f 1478 1560 1484
f 1484 1561 1485
f 1560 1561 1484
f 1552 1562 1486
f 1561 1552 1486
f 1485 1561 1486
f 1554 1552 1561
f 1552 1555 1563
f 1564 1552 1563
f 1562 1552 1564
f 1566 1565 1564
f 1566 1564 1563
f 1565 1566 1559
f 1558 1565 1559
f 1567 1565 1558
f 1487 1568 1482
f 1568 1558 1482
f 1568 1567 1558
f 1488 1569 1487
f 1487 1569 1568
f 1490 1569 1488
f 1562 1491 1486
f 1491 1562 1493
f 1562 1570 1493
f 1562 1564 1570
f 1565 1572 1571
f 1570 1565 1571
f 1564 1565 1570
f 1572 1565 1567
f 1572 1567 1573
f 1573 1567 1568
f 1573 1568 1574
f 1574 1568 1569
f 1574 1569 1575
f 1577 1575 1576
f 1576 1575 1494
f 1575 1569 1494
f 1569 1490 1494
f 1495 1576 1494
f 1578 1497 1498
f 1579 1578 1498
f 1579 1498 1493
f 1580 1579 1493
f 1570 1580 1493
f 1580 1570 1571
f 1581 1577 1576
f 1576 1495 1581
f 1495 1582 1581
f 1495 1499 1582
f 1583 1500 1501
f 1497 1578 1501
f 1578 1583 1501
f 1578 1584 1583
f 1578 1579 1585
f 1578 1585 1584
f 1588 1587 1586
f 1589 1586 1587
f 1592 1591 1590
f 1504 1503 1590
f 1591 1504 1590
f 1593 1504 1591
f 1504 1594 1505
f 1593 1594 1504
f 1499 1505 1582
f 1582 1505 1594
f 1595 1506 1583
f 1583 1506 1500
f 1596 1583 1584
f 1595 1583 1596
f 1584 1585 1597
f 1598 1584 1597
f 1596 1584 1598
f 1598 1597 1588
f 1586 1598 1588
f 1599 1598 1586
f 1586 1589 1600
f 1586 1600 1599
f 1592 1590 1507
f 1508 1592 1507
f 1601 1592 1508
f 1507 1590 1503
f 1595 1509 1506
f 1509 1595 1511
f 1595 1602 1511
f 1595 1596 1602
f 1603 1596 1598
f 1602 1596 1603
f 1514 1603 1513
f 1603 1599 1513
f 1603 1598 1599
f 1605 1604 1515
f 1605 1515 1513
f 1600 1605 1513
f 1599 1600 1513
f 1605 1601 1604
f 1601 1516 1604
f 1601 1508 1516
f 1602 1518 1511
f 1518 1602 1520
f 1520 1602 1603
f 1520 1603 1514
f 1606 1522 1604
f 1604 1522 1515
f 1523 1606 1516
f 1516 1606 1604
f 1606 1525 1522
f 1525 1606 1523
f 1607 1534 1535
f 1536 1608 1535
f 1535 1608 1607
f 1538 1608 1536
f 1609 1541 1607
f 1607 1541 1534
f 1610 1607 1608
f 1609 1607 1610
f 1543 1610 1538
f 1538 1610 1608
f 1612 1611 1609
f 1611 1541 1609
f 1611 1547 1541
f 1612 1609 1610
f 1612 1610 1613
f 1615 1613 1614
f 1614 1613 1548
f 1613 1610 1548
f 1610 1543 1548
f 1549 1614 1548
f 1611 1551 1547
f 1616 1551 1611
f 1615 1614 1553
f 1554 1615 1553
f 1617 1615 1554
f 1553 1614 1549
f 1618 1555 1556
f 1557 1619 1556
f 1556 1619 1618
f 1559 1619 1557
f 1616 1620 1551
f 1551 1620 1560
f 1560 1621 1561
f 1620 1621 1560
f 1554 1561 1617
f 1617 1561 1621
f 1618 1563 1555
f 1563 1618 1566
f 1566 1618 1619
f 1566 1619 1559
f 1622 1571 1572
f 1573 1623 1572
f 1572 1623 1622
f 1574 1624 1573
f 1573 1624 1623
f 1575 1625 1574
f 1574 1625 1624
f 1577 1625 1575
f 1627 1626 1580
f 1580 1626 1579
f 1580 1571 1622
f 1628 1580 1622
f 1627 1580 1628
f 1628 1622 1623
f 1628 1623 1629
f 1629 1623 1624
f 1629 1624 1630
f 1630 1624 1625
f 1630 1625 1631
f 1633 1631 1632
f 1632 1631 1581
f 1631 1625 1581
f 1625 1577 1581
f 1582 1632 1581
f 1635 1585 1634
f 1585 1626 1634
f 1585 1579 1626
f 1587 1588 1635
f 1634 1587 1635
f 1636 1587 1634
f 1638 1637 1589
f 1587 1638 1589
f 1636 1638 1587
f 1591 1592 1637
f 1638 1591 1637
f 1639 1591 1638
f 1591 1640 1593
f 1639 1640 1591
f 1632 1594 1633
f 1594 1640 1633
f 1594 1593 1640
f 1594 1632 1582
f 1635 1597 1585
f 1597 1635 1588
f 1641 1600 1637
f 1637 1600 1589
f 1601 1641 1592
f 1592 1641 1637
f 1641 1605 1600
f 1605 1641 1601
f 1642 1611 1612
f 1613 1643 1612
f 1612 1643 1642
f 1615 1643 1613
f 1644 1616 1642
f 1642 1616 1611
f 1645 1642 1643
f 1644 1642 1645
f 1617 1645 1615
f 1615 1645 1643
f 1644 1620 1616
f 1620 1644 1621
f 1621 1644 1645
f 1621 1645 1617
f 1646 1626 1627
f 1628 1647 1627
f 1627 1647 1646
f 1629 1648 1628
f 1628 1648 1647
f 1630 1649 1629
f 1629 1649 1648
f 1631 1650 1630
f 1630 1650 1649
f 1633 1650 1631
f 1646 1634 1626
f 1634 1646 1636
f 1636 1646 1647
f 1636 1647 1638
f 1638 1647 1648
f 1638 1648 1639
f 1639 1648 1649
f 1639 1649 1640
f 1640 1649 1650
f 1640 1650 1633
