v 23.0 14.0 -18.0
v 23.0 14.0 -18.0
v 23.0 14.0 -18.0
v 23.0 14.0 -17.0
v 23.0 14.0 -17.0
v 23.0 14.0 -17.0
v 22.8 15.0 -18.0
v 23.0 15.0 -18.3
v 22.7 15.0 -17.0
v 23.0 14.8 -16.0
v 22.8 15.0 -16.0
v 23.0 15.0 -15.8
v 23.0 15.3 -18.0
v 23.0 15.8 -17.0
v 22.7 16.0 -16.0
v 23.0 16.0 -16.7
v 23.0 16.0 -15.7
v 22.8 17.0 -17.0
v 23.0 17.0 -17.3
v 23.0 16.3 -17.0
v 22.7 17.0 -16.0
v 23.0 17.0 -15.5
v 22.9 18.0 -17.0
v 23.0 18.0 -17.2
v 23.0 18.0 -16.7
v 23.0 17.6 -16.0
v 23.0 18.1 -17.0
v 23.9 14.0 -21.0
v 24.0 14.0 -21.2
v 24.0 13.9 -21.0
v 24.0 13.7 -20.0
v 23.7 14.0 -20.0
v 24.0 13.8 -19.0
v 23.7 14.0 -19.0
v 23.0 14.0 -18.0
v 24.0 14.0 -18.6
v 23.0 14.0 -17.0
v 24.0 14.2 -21.0
v 23.6 15.0 -20.0
v 24.0 15.0 -20.6
v 23.4 15.0 -19.0
v 24.0 14.3 -18.0
v 24.0 14.4 -17.0
v 24.0 14.6 -16.0
v 24.0 15.0 -15.4
v 23.6 16.0 -20.0
v 24.0 16.0 -20.5
v 23.5 16.0 -19.0
v 23.4 16.0 -18.0
v 23.1 16.0 -17.0
v 24.0 15.5 -15.0
v 23.6 16.0 -15.0
v 24.0 16.0 -14.5
v 23.7 17.0 -20.0
v 24.0 17.0 -20.4
v 23.5 17.0 -19.0
v 23.4 17.0 -18.0
v 23.3 17.0 -15.0
v 24.0 16.4 -14.0
v 23.6 17.0 -14.0
v 24.0 16.9 -13.0
v 23.9 17.0 -13.0
v 24.0 17.0 -12.9
v 24.0 17.5 -20.0
v 23.7 18.0 -19.0
v 24.0 18.0 -19.4
v 23.5 18.0 -18.0
v 23.2 18.0 -16.0
v 23.0 18.0 -15.0
v 23.5 18.0 -14.0
v 24.0 18.0 -13.2
v 24.0 17.3 -13.0
v 24.0 18.3 -19.0
v 24.0 18.6 -18.0
v 23.6 19.0 -17.0
v 24.0 19.0 -17.5
v 23.5 19.0 -16.0
v 23.4 19.0 -15.0
v 23.5 19.0 -14.0
v 24.0 18.3 -13.0
v 23.7 19.0 -13.0
v 24.0 19.0 -12.5
v 24.0 19.6 -17.0
v 23.6 20.0 -16.0
v 24.0 20.0 -16.6
v 23.5 20.0 -15.0
v 23.5 20.0 -14.0
v 23.5 20.0 -13.0
v 24.0 19.5 -12.0
v 23.7 20.0 -12.0
v 24.0 20.0 -11.6
v 23.6 21.0 -16.0
v 24.0 21.0 -16.5
v 23.5 21.0 -15.0
v 23.5 21.0 -14.0
v 23.5 21.0 -13.0
v 23.6 21.0 -12.0
v 24.0 21.0 -11.5
v 23.8 22.0 -16.0
v 24.0 22.0 -16.3
v 23.6 22.0 -15.0
v 23.6 22.0 -14.0
v 23.6 22.0 -13.0
v 23.8 22.0 -12.0
v 24.0 22.0 -11.7
v 24.0 22.3 -16.0
v 24.0 22.5 -15.0
v 24.0 22.5 -14.0
v 24.0 22.5 -13.0
v 24.0 22.3 -12.0
v 25.0 13.0 -24.0
v 25.0 13.0 -24.0
v 25.0 13.0 -24.0
v 25.0 13.0 -23.7
v 25.0 13.0 -24.0
v 24.6 14.0 -22.0
v 25.0 14.0 -22.5
v 25.0 13.6 -22.0
v 25.0 13.5 -21.0
v 25.0 13.5 -20.0
v 25.0 13.6 -19.0
v 25.0 14.0 -18.3
v 24.6 15.0 -22.0
v 25.0 15.0 -22.5
v 24.3 15.0 -21.0
v 25.0 14.2 -18.0
v 25.0 14.4 -17.0
v 25.0 14.5 -16.0
v 25.0 14.7 -15.0
v 24.5 15.0 -15.0
v 25.0 15.0 -14.5
v 24.7 16.0 -22.0
v 25.0 16.0 -22.3
v 24.4 16.0 -21.0
v 25.0 15.4 -14.0
v 24.4 16.0 -14.0
v 25.0 15.7 -13.0
v 24.7 16.0 -13.0
v 25.0 16.0 -12.7
v 25.0 16.5 -22.0
v 24.5 17.0 -21.0
v 25.0 17.0 -21.6
v 25.0 17.0 -12.3
v 24.7 18.0 -21.0
v 25.0 18.0 -21.4
v 24.3 18.0 -20.0
v 24.2 18.0 -13.0
v 25.0 17.4 -12.0
v 24.7 18.0 -12.0
v 25.0 18.0 -11.5
v 25.0 18.4 -21.0
v 24.8 19.0 -20.0
v 25.0 19.0 -20.3
v 25.0 18.9 -19.0
v 25.0 19.0 -19.3
v 24.4 19.0 -18.0
v 25.0 19.0 -18.9
v 24.3 19.0 -12.0
v 25.0 18.5 -11.0
v 24.7 19.0 -11.0
v 25.0 19.0 -10.5
v 25.0 19.2 -20.0
v 24.6 20.0 -18.0
v 25.0 20.0 -18.5
v 24.3 20.0 -17.0
v 24.4 20.0 -11.0
v 25.0 19.5 -10.0
v 24.7 20.0 -10.0
v 25.0 20.0 -9.6
v 24.6 21.0 -18.0
v 25.0 21.0 -18.4
v 24.4 21.0 -17.0
v 24.4 21.0 -11.0
v 24.6 21.0 -10.0
v 25.0 21.0 -9.5
v 24.8 22.0 -18.0
v 25.0 22.0 -18.2
v 24.4 22.0 -17.0
v 24.4 22.0 -11.0
v 24.6 22.0 -10.0
v 25.0 22.0 -9.5
v 25.0 22.3 -18.0
v 24.7 23.0 -17.0
v 25.0 23.0 -17.3
v 24.5 23.0 -16.0
v 24.4 23.0 -15.0
v 24.4 23.0 -14.0
v 24.4 23.0 -13.0
v 24.4 23.0 -12.0
v 24.5 23.0 -11.0
v 24.7 23.0 -10.0
v 25.0 23.0 -9.6
v 24.9 23.0 -7.0
v 25.0 23.0 -7.1
v 25.0 22.9 -7.0
v 25.0 23.0 -6.9
v 25.0 23.3 -17.0
v 25.0 23.6 -16.0
v 24.7 24.0 -15.0
v 25.0 24.0 -15.5
v 24.6 24.0 -14.0
v 24.6 24.0 -13.0
v 24.6 24.0 -12.0
v 24.7 24.0 -11.0
v 25.0 24.0 -10.5
v 25.0 23.5 -10.0
v 24.9 24.0 -7.0
v 25.0 24.0 -7.2
v 25.0 24.0 -6.8
v 25.0 24.4 -15.0
v 25.0 24.6 -14.0
v 25.0 24.7 -13.0
v 25.0 24.6 -12.0
v 25.0 24.4 -11.0
v 25.0 24.2 -7.0
v 24.9 26.0 -14.0
v 25.0 26.0 -14.1
v 25.0 25.8 -14.0
v 25.0 25.5 -13.0
v 24.8 26.0 -13.0
v 25.0 25.8 -12.0
v 24.9 26.0 -12.0
v 25.0 26.0 -11.9
v 25.0 26.1 -14.0
v 25.0 26.3 -13.0
v 25.0 26.1 -12.0
v 26.0 10.0 -26.0
v 26.0 10.0 -26.0
v 26.0 10.0 -26.0
v 26.0 9.9 -25.0
v 25.3 10.0 -25.0
v 26.0 10.0 -24.9
v 26.0 10.0 -26.0
v 25.1 11.0 -25.0
v 26.0 11.0 -25.6
v 26.0 11.0 -24.7
v 25.9 12.0 -26.0
v 26.0 12.0 -26.2
v 26.0 11.6 -26.0
v 25.5 12.0 -25.0
v 26.0 11.9 -24.0
v 25.9 12.0 -24.0
v 26.0 12.0 -23.9
v 26.0 12.3 -26.0
v 25.7 13.0 -25.0
v 26.0 13.0 -25.4
v 26.0 13.0 -23.3
v 26.0 13.4 -25.0
v 25.7 14.0 -24.0
v 26.0 14.0 -24.4
v 26.0 13.2 -23.0
v 25.4 14.0 -23.0
v 26.0 13.4 -22.0
v 26.0 13.5 -21.0
v 26.0 13.5 -20.0
v 26.0 13.5 -19.0
v 26.0 13.6 -18.0
v 25.3 14.0 -18.0
v 26.0 13.7 -17.0
v 25.6 14.0 -17.0
v 26.0 14.0 -16.5
v 26.0 14.5 -24.0
v 25.5 15.0 -23.0
v 26.0 15.0 -23.6
v 26.0 14.3 -16.0
v 26.0 14.4 -15.0
v 26.0 14.7 -14.0
v 25.5 15.0 -14.0
v 26.0 15.0 -13.5
v 25.7 16.0 -23.0
v 26.0 16.0 -23.3
v 26.0 15.3 -13.0
v 26.0 15.7 -12.0
v 25.7 16.0 -12.0
v 26.0 16.0 -11.6
v 26.0 16.4 -23.0
v 25.4 17.0 -22.0
v 26.0 17.0 -22.6
v 25.3 17.0 -12.0
v 26.0 16.5 -11.0
v 25.7 17.0 -11.0
v 26.0 17.0 -10.5
v 25.5 18.0 -22.0
v 26.0 18.0 -22.4
v 25.3 18.0 -11.0
v 26.0 17.5 -10.0
v 25.7 18.0 -10.0
v 26.0 18.0 -9.5
v 25.8 19.0 -22.0
v 26.0 19.0 -22.2
v 25.4 19.0 -21.0
v 25.1 19.0 -19.0
v 25.3 19.0 -10.0
v 26.0 18.4 -9.0
v 25.6 19.0 -9.0
v 26.0 18.7 -8.0
v 25.7 19.0 -8.0
v 26.0 19.0 -7.5
v 26.0 19.3 -22.0
v 26.0 19.7 -21.0
v 25.6 20.0 -20.0
v 26.0 20.0 -20.6
v 25.4 20.0 -19.0
v 25.4 20.0 -9.0
v 25.5 20.0 -8.0
v 26.0 19.4 -7.0
v 25.6 20.0 -7.0
v 26.0 19.7 -6.0
v 25.8 20.0 -6.0
v 26.0 20.0 -5.7
v 26.0 20.5 -20.0
v 25.6 21.0 -19.0
v 26.0 21.0 -19.5
v 25.4 21.0 -9.0
v 25.5 21.0 -8.0
v 25.5 21.0 -7.0
v 25.6 21.0 -6.0
v 26.0 21.0 -5.4
v 26.0 21.5 -19.0
v 26.0 22.0 -18.6
v 25.4 22.0 -9.0
v 25.5 22.0 -8.0
v 25.4 22.0 -7.0
v 25.5 22.0 -6.0
v 26.0 21.4 -5.0
v 25.6 22.0 -5.0
v 26.0 21.7 -4.0
v 25.8 22.0 -4.0
v 26.0 22.0 -3.7
v 26.0 22.7 -18.0
v 26.0 23.0 -17.8
v 25.4 23.0 -9.0
v 25.4 23.0 -8.0
v 25.4 23.0 -6.0
v 25.5 23.0 -5.0
v 25.6 23.0 -4.0
v 26.0 23.0 -3.5
v 25.5 24.0 -17.0
v 26.0 24.0 -17.5
v 25.4 24.0 -16.0
v 25.3 24.0 -10.0
v 25.5 24.0 -9.0
v 25.3 24.0 -8.0
v 25.4 24.0 -6.0
v 25.5 24.0 -5.0
v 25.6 24.0 -4.0
v 26.0 24.0 -3.5
v 25.9 25.0 -17.0
v 26.0 25.0 -17.2
v 25.9 25.0 -16.0
v 25.5 25.0 -15.0
v 25.3 25.0 -14.0
v 25.2 25.0 -13.0
v 25.3 25.0 -12.0
v 25.4 25.0 -11.0
v 25.5 25.0 -10.0
v 25.4 25.0 -9.0
v 25.0 25.0 -8.0
v 25.4 25.0 -7.0
v 25.6 25.0 -6.0
v 25.6 25.0 -5.0
v 25.8 25.0 -4.0
v 26.0 25.0 -3.7
v 26.0 25.2 -17.0
v 25.8 26.0 -16.0
v 26.0 26.0 -16.3
v 25.5 26.0 -15.0
v 25.6 26.0 -11.0
v 25.9 26.0 -10.0
v 25.1 26.0 -9.0
v 25.3 26.0 -8.0
v 25.6 26.0 -7.0
v 26.0 26.0 -6.4
v 26.0 25.6 -6.0
v 26.0 25.5 -5.0
v 26.0 25.3 -4.0
v 26.0 26.3 -16.0
v 25.7 27.0 -15.0
v 26.0 27.0 -15.4
v 25.5 27.0 -14.0
v 25.5 27.0 -13.0
v 25.7 27.0 -12.0
v 26.0 27.0 -11.4
v 26.0 26.7 -11.0
v 25.8 27.0 -10.0
v 26.0 27.0 -10.4
v 25.6 27.0 -9.0
v 25.7 27.0 -8.0
v 26.0 27.0 -7.0
v 26.0 27.0 -7.0
v 26.0 27.3 -15.0
v 26.0 27.5 -14.0
v 26.0 27.5 -13.0
v 26.0 27.3 -12.0
v 26.0 27.2 -10.0
v 26.0 27.4 -9.0
v 26.0 27.3 -8.0
v 26.0 27.0 -7.0
v 27.0 10.0 -26.1
v 27.0 9.9 -26.0
v 26.2 10.0 -25.0
v 27.0 10.0 -25.8
v 26.4 11.0 -26.0
v 27.0 11.0 -26.5
v 27.0 11.0 -25.5
v 26.5 11.0 -25.0
v 26.7 12.0 -27.0
v 27.0 12.0 -27.3
v 27.0 11.5 -27.0
v 27.0 11.5 -25.0
v 26.1 12.0 -24.0
v 27.0 12.0 -24.6
v 26.8 13.0 -27.0
v 27.0 13.0 -27.2
v 26.4 13.0 -26.0
v 26.9 13.0 -24.0
v 27.0 13.0 -24.1
v 26.4 13.0 -23.0
v 27.0 12.7 -23.0
v 27.0 13.0 -23.9
v 27.0 12.9 -22.0
v 26.8 13.0 -22.0
v 27.0 13.0 -21.8
v 27.0 13.2 -27.0
v 27.0 13.5 -26.0
v 26.4 14.0 -25.0
v 27.0 14.0 -25.5
v 27.0 13.0 -24.0
v 27.0 13.4 -21.0
v 27.0 13.5 -20.0
v 27.0 13.5 -19.0
v 27.0 13.5 -18.0
v 27.0 13.5 -17.0
v 27.0 13.6 -16.0
v 26.4 14.0 -16.0
v 27.0 13.8 -15.0
v 26.7 14.0 -15.0
v 27.0 14.0 -14.7
v 26.8 15.0 -25.0
v 27.0 15.0 -25.2
v 26.4 15.0 -24.0
v 27.0 14.4 -14.0
v 27.0 14.7 -13.0
v 26.5 15.0 -13.0
v 27.0 15.0 -12.5
v 27.0 15.3 -25.0
v 27.0 15.7 -24.0
v 27.0 16.0 -23.7
v 27.0 15.3 -12.0
v 27.0 15.6 -11.0
v 26.4 16.0 -11.0
v 27.0 15.8 -10.0
v 26.7 16.0 -10.0
v 27.0 16.0 -9.6
v 26.5 17.0 -23.0
v 27.0 17.0 -23.3
v 26.3 17.0 -10.0
v 27.0 16.6 -9.0
v 26.7 17.0 -9.0
v 27.0 17.0 -8.6
v 27.0 17.5 -23.0
v 27.0 18.0 -22.7
v 26.3 18.0 -9.0
v 27.0 17.5 -8.0
v 26.6 18.0 -8.0
v 27.0 18.0 -7.5
v 27.0 19.0 -22.5
v 27.0 18.4 -7.0
v 26.4 19.0 -7.0
v 27.0 18.5 -6.0
v 26.5 19.0 -6.0
v 27.0 18.7 -5.0
v 26.7 19.0 -5.0
v 27.0 19.0 -4.6
v 26.6 20.0 -22.0
v 27.0 20.0 -22.4
v 26.3 20.0 -21.0
v 26.4 20.0 -5.0
v 27.0 19.5 -4.0
v 26.7 20.0 -4.0
v 27.0 20.0 -3.5
v 26.8 21.0 -22.0
v 27.0 21.0 -22.2
v 26.6 21.0 -21.0
v 26.4 21.0 -20.0
v 26.3 21.0 -5.0
v 26.4 21.0 -4.0
v 27.0 20.6 -3.0
v 26.7 21.0 -3.0
v 27.0 21.0 -2.7
v 27.0 21.2 -22.0
v 27.0 21.5 -21.0
v 27.0 21.7 -20.0
v 26.4 22.0 -19.0
v 27.0 22.0 -19.7
v 26.5 22.0 -3.0
v 27.0 22.0 -2.5
v 26.7 23.0 -19.0
v 27.0 23.0 -19.5
v 26.2 23.0 -18.0
v 26.5 23.0 -3.0
v 27.0 23.0 -2.5
v 27.0 23.7 -19.0
v 26.5 24.0 -18.0
v 27.0 24.0 -18.8
v 26.5 24.0 -3.0
v 27.0 24.0 -2.4
v 26.6 25.0 -18.0
v 27.0 25.0 -18.4
v 26.5 25.0 -3.0
v 27.0 24.6 -2.0
v 26.8 25.0 -2.0
v 27.0 25.0 -1.8
v 27.0 25.4 -18.0
v 26.6 26.0 -17.0
v 27.0 26.0 -17.5
v 26.4 26.0 -6.0
v 26.5 26.0 -5.0
v 26.7 26.0 -4.0
v 27.0 26.0 -3.5
v 27.0 25.6 -3.0
v 27.0 25.9 -2.0
v 27.0 26.4 -17.0
v 26.8 27.0 -16.0
v 27.0 27.0 -16.2
v 26.2 27.0 -11.0
v 26.1 27.0 -7.0
v 27.0 26.9 -7.0
v 27.0 27.0 -7.2
v 27.0 26.5 -6.0
v 27.0 26.5 -5.0
v 27.0 26.3 -4.0
v 27.0 27.2 -16.0
v 27.0 28.0 -15.0
v 27.0 28.0 -15.0
v 26.8 28.0 -14.0
v 26.8 28.0 -13.0
v 27.0 28.0 -12.7
v 27.0 27.8 -12.0
v 26.7 28.0 -11.0
v 27.0 28.0 -11.6
v 26.7 28.0 -10.0
v 27.0 28.0 -9.7
v 27.0 27.6 -9.0
v 27.0 27.4 -8.0
v 27.0 28.0 -15.0
v 27.0 28.2 -14.0
v 27.0 28.1 -13.0
v 27.0 28.3 -11.0
v 27.0 28.2 -10.0
v 28.0 10.0 -26.2
v 28.0 9.8 -26.0
v 28.0 10.0 -25.8
v 27.7 11.0 -27.0
v 28.0 11.0 -27.2
v 28.0 10.8 -27.0
v 28.0 11.0 -25.4
v 28.0 12.0 -27.8
v 27.9 12.0 -25.0
v 28.0 12.0 -25.1
v 28.0 13.0 -27.3
v 28.0 12.1 -25.0
v 28.0 13.0 -24.0
v 28.0 13.0 -24.0
v 28.0 12.7 -23.0
v 27.3 13.0 -22.0
v 28.0 13.0 -22.5
v 28.0 13.3 -27.0
v 28.0 13.7 -26.0
v 28.0 14.0 -25.7
v 28.0 13.0 -24.0
v 28.0 13.3 -22.0
v 28.0 13.5 -21.0
v 28.0 13.5 -20.0
v 28.0 13.5 -19.0
v 28.0 13.5 -18.0
v 28.0 13.5 -17.0
v 28.0 13.6 -16.0
v 28.0 13.8 -15.0
v 28.0 14.0 -14.7
v 28.0 15.0 -25.5
v 28.0 14.4 -14.0
v 28.0 14.5 -13.0
v 28.0 14.7 -12.0
v 27.5 15.0 -12.0
v 28.0 15.0 -11.5
v 27.7 16.0 -25.0
v 28.0 16.0 -25.2
v 27.3 16.0 -24.0
v 28.0 15.3 -11.0
v 28.0 15.5 -10.0
v 28.0 15.7 -9.0
v 27.6 16.0 -9.0
v 28.0 16.0 -8.6
v 28.0 16.2 -25.0
v 28.0 16.5 -24.0
v 28.0 17.0 -23.6
v 28.0 16.5 -8.0
v 27.5 17.0 -8.0
v 28.0 17.0 -7.4
v 27.5 18.0 -23.0
v 28.0 18.0 -23.3
v 28.0 17.4 -7.0
v 27.4 18.0 -7.0
v 28.0 17.5 -6.0
v 27.5 18.0 -6.0
v 28.0 17.7 -5.0
v 27.7 18.0 -5.0
v 28.0 18.0 -4.6
v 28.0 18.4 -23.0
v 28.0 19.0 -22.6
v 28.0 18.4 -4.0
v 27.4 19.0 -4.0
v 28.0 18.8 -3.0
v 27.8 19.0 -3.0
v 28.0 19.0 -2.8
v 28.0 20.0 -22.5
v 27.4 20.0 -3.0
v 28.0 20.0 -2.4
v 28.0 21.0 -22.4
v 28.0 20.6 -2.0
v 27.7 21.0 -2.0
v 28.0 21.0 -1.7
v 28.0 21.5 -22.0
v 27.5 22.0 -21.0
v 28.0 22.0 -21.5
v 27.2 22.0 -20.0
v 27.5 22.0 -2.0
v 28.0 22.0 -1.5
v 27.8 23.0 -21.0
v 28.0 23.0 -21.2
v 27.3 23.0 -20.0
v 27.5 23.0 -2.0
v 28.0 23.0 -1.4
v 28.0 23.3 -21.0
v 27.2 24.0 -20.0
v 28.0 24.0 -20.4
v 27.2 24.0 -19.0
v 27.4 24.0 -2.0
v 28.0 23.6 -1.0
v 27.8 24.0 -1.0
v 28.0 24.0 -0.8
v 28.0 24.5 -20.0
v 27.6 25.0 -19.0
v 28.0 25.0 -19.5
v 28.0 25.0 -1.0
v 28.0 25.0 -1.0
v 28.0 25.4 -19.0
v 27.8 26.0 -18.0
v 28.0 26.0 -18.2
v 27.8 26.0 -16.0
v 28.0 25.8 -16.0
v 28.0 26.0 -16.3
v 27.9 26.0 -15.0
v 28.0 25.9 -15.0
v 28.0 26.0 -14.9
v 28.0 25.5 -3.0
v 28.0 26.0 -3.5
v 28.0 25.4 -2.0
v 28.0 25.0 -1.0
v 28.0 26.2 -18.0
v 28.0 26.7 -17.0
v 27.2 27.0 -16.0
v 27.5 27.0 -15.0
v 28.0 26.7 -14.0
v 27.7 27.0 -14.0
v 28.0 27.0 -13.7
v 27.2 27.0 -7.0
v 27.5 27.0 -6.0
v 27.6 27.0 -5.0
v 28.0 27.0 -4.0
v 28.0 27.0 -4.0
v 27.0 28.0 -15.0
v 27.2 28.0 -14.0
v 28.0 27.6 -13.0
v 27.2 28.0 -13.0
v 27.4 28.0 -12.0
v 28.0 28.0 -12.5
v 28.0 27.6 -9.0
v 28.0 28.0 -9.5
v 28.0 27.5 -8.0
v 28.0 27.4 -7.0
v 28.0 27.4 -6.0
v 28.0 27.3 -5.0
v 28.0 27.0 -4.0
v 28.0 28.3 -12.0
v 28.0 28.5 -11.0
v 28.0 28.4 -10.0
v 28.8 10.0 -26.0
v 28.2 11.0 -27.0
v 29.0 11.0 -26.4
v 29.0 10.1 -26.0
v 29.0 10.6 -25.0
v 28.5 11.0 -25.0
v 29.0 10.3 -24.0
v 28.7 11.0 -24.0
v 29.0 11.0 -23.6
v 28.6 12.0 -27.0
v 29.0 12.0 -26.6
v 28.1 12.0 -25.0
v 28.5 12.0 -24.0
v 29.0 12.0 -23.4
v 28.3 13.0 -27.0
v 29.0 13.0 -26.6
v 28.0 13.0 -24.0
v 29.0 12.4 -23.0
v 29.0 13.0 -22.5
v 29.0 14.0 -26.3
v 28.5 14.0 -26.0
v 29.0 13.4 -22.0
v 29.0 13.5 -21.0
v 29.0 13.4 -20.0
v 29.0 13.4 -19.0
v 29.0 13.6 -18.0
v 29.0 13.7 -17.0
v 28.6 14.0 -16.0
v 29.0 14.0 -16.5
v 28.3 14.0 -15.0
v 29.0 14.4 -26.0
v 29.0 15.0 -25.6
v 29.0 14.4 -16.0
v 29.0 14.5 -15.0
v 29.0 14.6 -14.0
v 29.0 14.6 -13.0
v 29.0 14.6 -12.0
v 29.0 14.9 -11.0
v 28.8 15.0 -11.0
v 29.0 15.0 -10.8
v 29.0 16.0 -25.3
v 29.0 15.4 -10.0
v 29.0 15.5 -9.0
v 29.0 15.7 -8.0
v 28.6 16.0 -8.0
v 29.0 16.0 -7.5
v 29.0 16.3 -25.0
v 29.0 16.6 -24.0
v 29.0 17.0 -23.6
v 29.0 16.4 -7.0
v 28.4 17.0 -7.0
v 29.0 16.6 -6.0
v 28.6 17.0 -6.0
v 29.0 17.0 -5.5
v 29.0 18.0 -23.4
v 29.0 17.3 -5.0
v 29.0 17.6 -4.0
v 28.5 18.0 -4.0
v 29.0 18.0 -3.6
v 29.0 18.5 -23.0
v 29.0 19.0 -22.6
v 29.0 18.7 -3.0
v 29.0 19.0 -2.7
v 29.0 20.0 -22.5
v 29.0 19.9 -2.0
v 28.9 20.0 -2.0
v 29.0 20.0 -1.9
v 29.0 21.0 -22.4
v 29.0 21.0 -1.6
v 29.0 21.6 -22.0
v 29.0 22.0 -21.7
v 29.0 22.0 -1.0
v 29.0 22.0 -1.0
v 29.0 22.0 -1.0
v 29.0 23.0 -21.3
v 28.6 23.0 -1.0
v 29.0 23.0 -0.8
v 29.0 23.4 -21.0
v 29.0 24.0 -20.6
v 28.8 24.0 -3.0
v 29.0 23.7 -3.0
v 29.0 24.0 -3.2
v 28.6 24.0 -2.0
v 29.0 23.6 -2.0
v 29.0 24.0 -1.3
v 29.0 24.0 -0.5
v 28.6 25.0 -20.0
v 29.0 25.0 -20.2
v 28.5 25.0 -3.0
v 29.0 25.0 -3.5
v 28.3 25.0 -2.0
v 29.0 24.2 -1.0
v 28.0 25.0 -1.0
v 29.0 25.3 -20.0
v 29.0 25.6 -19.0
v 28.2 26.0 -18.0
v 29.0 25.6 -18.0
v 28.5 26.0 -17.0
v 29.0 25.6 -17.0
v 29.0 25.7 -16.0
v 28.1 26.0 -15.0
v 29.0 26.0 -15.5
v 28.6 26.0 -4.0
v 29.0 25.7 -4.0
v 29.0 26.0 -4.3
v 29.0 26.3 -15.0
v 29.0 26.6 -14.0
v 29.0 27.0 -13.5
v 28.0 27.0 -4.0
v 29.0 27.0 -4.7
v 29.0 27.5 -13.0
v 29.0 28.0 -12.4
v 29.0 27.5 -9.0
v 29.0 28.0 -9.7
v 29.0 27.4 -8.0
v 29.0 27.4 -7.0
v 29.0 27.5 -6.0
v 29.0 27.3 -5.0
v 29.0 28.4 -12.0
v 29.0 28.4 -11.0
v 29.0 28.2 -10.0
v 29.4 11.0 -26.0
v 29.5 11.0 -25.0
v 30.0 11.0 -24.5
v 30.0 10.6 -24.0
v 30.0 10.2 -23.0
v 29.6 11.0 -23.0
v 30.0 11.0 -22.6
v 30.0 12.0 -26.2
v 30.0 11.7 -26.0
v 30.0 11.3 -25.0
v 29.4 12.0 -23.0
v 30.0 12.0 -22.5
v 30.0 13.0 -26.4
v 30.0 13.0 -22.3
v 29.9 13.0 -20.0
v 30.0 13.0 -20.1
v 30.0 12.9 -20.0
v 30.0 13.0 -19.3
v 30.0 14.0 -26.2
v 30.0 13.3 -22.0
v 30.0 13.5 -21.0
v 30.0 13.0 -19.0
v 29.6 14.0 -18.0
v 30.0 14.0 -18.4
v 29.3 14.0 -17.0
v 30.0 14.3 -26.0
v 30.0 15.0 -25.6
v 30.0 14.4 -18.0
v 30.0 14.7 -17.0
v 29.6 15.0 -16.0
v 30.0 15.0 -16.5
v 29.5 15.0 -15.0
v 29.5 15.0 -14.0
v 29.5 15.0 -13.0
v 29.5 15.0 -12.0
v 29.2 15.0 -11.0
v 30.0 16.0 -25.2
v 30.0 15.4 -16.0
v 30.0 15.5 -15.0
v 30.0 15.4 -14.0
v 30.0 15.4 -13.0
v 30.0 15.4 -12.0
v 30.0 15.4 -11.0
v 30.0 15.5 -10.0
v 30.0 15.4 -9.0
v 30.0 15.4 -8.0
v 30.0 15.6 -7.0
v 29.4 16.0 -7.0
v 30.0 15.7 -6.0
v 29.7 16.0 -6.0
v 30.0 16.0 -5.6
v 30.0 16.2 -25.0
v 30.0 16.6 -24.0
v 30.0 17.0 -23.6
v 30.0 16.4 -5.0
v 29.3 17.0 -5.0
v 30.0 16.8 -4.0
v 29.7 17.0 -4.0
v 30.0 17.0 -3.8
v 30.0 18.0 -23.4
v 30.0 18.0 -3.5
v 30.0 18.5 -23.0
v 30.0 19.0 -22.6
v 29.3 19.0 -3.0
v 30.0 19.0 -3.5
v 30.0 20.0 -22.5
v 29.6 20.0 -3.0
v 30.0 20.0 -3.6
v 29.1 20.0 -2.0
v 30.0 21.0 -22.4
v 29.8 21.0 -4.0
v 30.0 20.7 -4.0
v 30.0 21.0 -4.2
v 29.5 21.0 -3.0
v 29.3 21.0 -2.0
v 29.8 22.0 -22.0
v 30.0 22.0 -22.1
v 30.0 21.3 -4.0
v 30.0 22.0 -3.6
v 29.6 22.0 -3.0
v 29.5 22.0 -2.0
v 29.0 22.0 -1.0
v 30.0 22.1 -22.0
v 30.0 22.9 -21.0
v 29.7 23.0 -21.0
v 30.0 23.0 -20.9
v 29.5 23.0 -3.0
v 30.0 23.0 -3.5
v 29.4 23.0 -2.0
v 29.2 23.0 -1.0
v 30.0 24.0 -20.5
v 30.0 24.0 -3.6
v 29.2 24.0 -1.0
v 30.0 25.0 -20.4
v 30.0 25.0 -3.8
v 30.0 25.4 -20.0
v 29.9 26.0 -19.0
v 30.0 26.0 -19.1
v 30.0 26.0 -18.9
v 30.0 25.6 -18.0
v 30.0 25.7 -17.0
v 29.5 26.0 -16.0
v 30.0 26.0 -16.5
v 30.0 25.3 -4.0
v 30.0 26.0 -4.6
v 30.0 26.1 -19.0
v 30.0 26.3 -16.0
v 30.0 26.5 -15.0
v 30.0 26.7 -14.0
v 30.0 27.0 -13.6
v 29.7 27.0 -10.0
v 30.0 26.7 -10.0
v 30.0 27.0 -10.3
v 29.5 27.0 -9.0
v 30.0 26.5 -9.0
v 29.5 27.0 -8.0
v 30.0 26.5 -8.0
v 29.6 27.0 -7.0
v 30.0 26.6 -7.0
v 30.0 27.0 -6.3
v 29.4 27.0 -5.0
v 30.0 26.4 -5.0
v 30.0 27.0 -5.8
v 30.0 27.5 -13.0
v 30.0 28.0 -12.4
v 29.6 28.0 -11.0
v 30.0 27.7 -11.0
v 30.0 28.0 -11.5
v 29.2 28.0 -10.0
v 30.0 27.1 -6.0
v 30.0 28.3 -12.0
v 30.4 11.0 -24.0
v 31.0 11.0 -23.3
v 31.0 10.6 -23.0
v 31.0 10.3 -22.0
v 30.6 11.0 -22.0
v 31.0 11.0 -21.7
v 30.3 12.0 -26.0
v 31.0 12.0 -25.1
v 31.0 11.9 -25.0
v 30.9 12.0 -24.0
v 31.0 12.0 -24.5
v 31.0 12.0 -23.9
v 30.7 12.0 -22.0
v 31.0 12.0 -21.8
v 30.5 13.0 -26.0
v 31.0 13.0 -25.5
v 31.0 12.1 -24.0
v 31.0 12.7 -22.0
v 31.0 13.0 -22.1
v 30.1 13.0 -20.0
v 30.3 14.0 -26.0
v 31.0 14.0 -25.6
v 31.0 13.2 -22.0
v 30.8 14.0 -21.0
v 31.0 14.0 -21.2
v 31.0 14.0 -20.5
v 31.0 13.8 -20.0
v 30.6 14.0 -19.0
v 31.0 14.0 -19.7
v 31.0 15.0 -25.3
v 31.0 14.2 -21.0
v 31.0 14.5 -19.0
v 30.6 15.0 -18.0
v 31.0 15.0 -18.5
v 30.3 15.0 -17.0
v 30.8 15.0 -9.0
v 31.0 15.0 -9.2
v 31.0 14.9 -9.0
v 31.0 14.8 -8.0
v 30.7 15.0 -8.0
v 31.0 15.0 -7.6
v 31.0 15.4 -25.0
v 30.4 16.0 -25.0
v 31.0 16.0 -24.5
v 31.0 15.5 -18.0
v 31.0 16.0 -17.5
v 30.7 16.0 -17.0
v 30.5 16.0 -16.0
v 30.6 16.0 -15.0
v 31.0 16.0 -14.5
v 31.0 15.7 -14.0
v 31.0 15.6 -13.0
v 31.0 15.6 -12.0
v 31.0 15.5 -11.0
v 31.0 15.4 -10.0
v 31.0 15.3 -7.0
v 31.0 15.5 -6.0
v 31.0 15.8 -5.0
v 30.6 16.0 -5.0
v 31.0 16.0 -4.7
v 31.0 16.4 -24.0
v 31.0 17.0 -23.6
v 31.0 16.4 -17.0
v 31.0 16.5 -16.0
v 31.0 16.3 -15.0
v 31.0 16.8 -4.0
v 31.0 17.0 -3.8
v 31.0 18.0 -23.4
v 31.0 18.0 -3.8
v 31.0 18.5 -23.0
v 31.0 19.0 -22.6
v 30.6 19.0 -4.0
v 31.0 18.4 -4.0
v 31.0 19.0 -4.5
v 31.0 20.0 -22.3
v 30.7 20.0 -5.0
v 31.0 19.5 -5.0
v 31.0 20.0 -5.4
v 30.3 20.0 -4.0
v 31.0 20.5 -22.0
v 30.6 21.0 -22.0
v 31.0 21.0 -21.7
v 30.5 21.0 -5.0
v 31.0 21.0 -5.6
v 30.1 22.0 -22.0
v 31.0 22.0 -21.5
v 30.9 22.0 -6.0
v 31.0 21.8 -6.0
v 31.0 22.0 -6.1
v 30.5 22.0 -5.0
v 30.3 22.0 -4.0
v 31.0 23.0 -21.1
v 30.5 23.0 -21.0
v 31.0 22.2 -6.0
v 31.0 23.0 -5.6
v 30.6 23.0 -5.0
v 30.4 23.0 -4.0
v 31.0 23.1 -21.0
v 31.0 24.0 -20.4
v 30.6 24.0 -5.0
v 31.0 24.0 -5.5
v 30.4 24.0 -4.0
v 31.0 25.0 -20.2
v 30.8 25.0 -8.0
v 31.0 24.8 -8.0
v 31.0 25.0 -8.4
v 30.8 25.0 -7.0
v 31.0 24.8 -7.0
v 31.0 25.0 -6.6
v 30.6 25.0 -5.0
v 31.0 25.0 -5.6
v 30.2 25.0 -4.0
v 31.0 25.3 -20.0
v 31.0 26.0 -19.0
v 31.0 25.6 -18.0
v 31.0 26.0 -19.0
v 30.8 26.0 -17.0
v 31.0 26.0 -17.1
v 30.8 26.0 -10.0
v 31.0 25.8 -10.0
v 31.0 26.0 -10.1
v 30.5 26.0 -9.0
v 31.0 25.4 -9.0
v 30.4 26.0 -8.0
v 30.5 26.0 -7.0
v 31.0 26.0 -6.1
v 30.4 26.0 -5.0
v 31.0 26.0 -5.9
v 31.0 26.0 -19.0
v 31.0 26.1 -17.0
v 31.0 26.4 -16.0
v 31.0 26.6 -15.0
v 30.5 27.0 -14.0
v 31.0 27.0 -14.4
v 31.0 27.0 -10.7
v 30.2 27.0 -6.0
v 31.0 26.1 -6.0
v 31.0 27.4 -14.0
v 31.0 27.8 -13.0
v 31.0 28.0 -12.7
v 31.0 27.4 -11.0
v 31.0 28.0 -11.5
v 31.0 29.0 -12.0
v 31.0 29.0 -12.0
v 31.0 29.0 -12.0
v 31.0 29.0 -12.0
v 31.3 11.0 -23.0
v 32.0 11.0 -22.3
v 32.0 10.7 -22.0
v 32.0 11.0 -21.7
v 31.1 12.0 -25.0
v 31.7 12.0 -23.0
v 32.0 12.0 -22.6
v 32.0 12.0 -21.6
v 31.6 13.0 -25.0
v 32.0 12.7 -24.0
v 32.0 13.0 -24.5
v 32.0 12.3 -23.0
v 31.2 13.0 -22.0
v 32.0 13.0 -21.6
v 32.0 14.0 -25.1
v 32.0 13.8 -25.0
v 32.0 14.0 -21.6
v 31.1 14.0 -20.0
v 32.0 14.2 -25.0
v 31.4 15.0 -25.0
v 32.0 15.0 -24.5
v 31.7 15.0 -21.0
v 32.0 15.0 -21.3
v 31.5 15.0 -20.0
v 31.3 15.0 -19.0
v 31.3 15.0 -9.0
v 32.0 15.0 -8.6
v 32.0 14.7 -8.0
v 32.0 14.9 -7.0
v 31.8 15.0 -7.0
v 32.0 15.0 -6.9
v 31.5 16.0 -24.0
v 32.0 15.6 -24.0
v 32.0 16.0 -23.7
v 32.0 15.3 -21.0
v 32.0 16.0 -20.3
v 31.8 16.0 -20.0
v 31.5 16.0 -19.0
v 31.3 16.0 -18.0
v 31.4 16.0 -14.0
v 31.5 16.0 -13.0
v 31.6 16.0 -12.0
v 32.0 16.0 -11.5
v 32.0 15.7 -11.0
v 32.0 15.5 -10.0
v 32.0 15.3 -9.0
v 32.0 15.6 -6.0
v 32.0 16.0 -5.0
v 32.0 16.0 -5.0
v 32.0 17.0 -23.5
v 32.0 16.3 -20.0
v 32.0 17.0 -19.3
v 31.7 17.0 -19.0
v 31.6 17.0 -18.0
v 31.5 17.0 -17.0
v 31.6 17.0 -16.0
v 32.0 17.0 -15.5
v 32.0 16.7 -15.0
v 32.0 16.5 -14.0
v 32.0 16.5 -13.0
v 32.0 16.3 -12.0
v 31.7 17.0 -5.0
v 32.0 16.0 -5.0
v 32.0 17.0 -5.4
v 31.2 17.0 -4.0
v 32.0 18.0 -23.4
v 32.0 17.3 -19.0
v 32.0 17.5 -18.0
v 32.0 17.5 -17.0
v 32.0 17.3 -16.0
v 31.6 18.0 -5.0
v 32.0 18.0 -5.6
v 31.2 18.0 -4.0
v 32.0 18.4 -23.0
v 32.0 19.0 -22.4
v 31.7 19.0 -6.0
v 32.0 18.5 -6.0
v 32.0 19.0 -6.4
v 31.3 19.0 -5.0
v 32.0 19.5 -22.0
v 31.5 20.0 -22.0
v 32.0 20.0 -21.5
v 31.5 20.0 -6.0
v 32.0 20.0 -6.6
v 32.0 21.0 -21.3
v 31.8 21.0 -7.0
v 32.0 20.7 -7.0
v 32.0 21.0 -7.2
v 31.3 21.0 -6.0
v 32.0 22.0 -21.1
v 31.8 22.0 -20.0
v 32.0 21.8 -20.0
v 32.0 22.0 -20.7
v 32.0 22.0 -19.7
v 32.0 21.3 -7.0
v 32.0 22.0 -6.7
v 32.0 22.1 -21.0
v 31.1 23.0 -21.0
v 31.5 23.0 -20.0
v 32.0 22.4 -19.0
v 31.6 23.0 -19.0
v 31.8 23.0 -18.0
v 32.0 22.7 -18.0
v 32.0 23.0 -17.7
v 31.4 23.0 -6.0
v 32.0 23.0 -6.6
v 31.4 24.0 -20.0
v 31.5 24.0 -19.0
v 31.6 24.0 -18.0
v 32.0 24.0 -17.4
v 31.5 24.0 -6.0
v 32.0 24.0 -6.7
v 31.2 25.0 -20.0
v 31.5 25.0 -19.0
v 31.4 25.0 -18.0
v 32.0 24.5 -17.0
v 31.7 25.0 -17.0
v 32.0 25.0 -16.5
v 31.8 25.0 -10.0
v 32.0 24.8 -10.0
v 32.0 25.0 -10.2
v 31.4 25.0 -9.0
v 32.0 24.5 -9.0
v 32.0 24.4 -8.0
v 32.0 24.2 -7.0
v 31.3 25.0 -6.0
v 31.0 26.0 -19.0
v 31.1 26.0 -17.0
v 32.0 25.5 -16.0
v 31.6 26.0 -16.0
v 32.0 26.0 -15.6
v 32.0 26.0 -10.2
v 31.1 26.0 -6.0
v 32.0 26.5 -15.0
v 32.0 27.0 -14.5
v 31.5 27.0 -11.0
v 32.0 26.5 -11.0
v 32.0 27.0 -11.4
v 32.0 28.0 -14.0
v 32.0 28.0 -14.0
v 31.3 28.0 -13.0
v 32.0 28.0 -11.7
v 32.0 28.0 -14.0
v 32.0 29.0 -13.0
v 32.0 29.0 -13.0
v 32.0 29.0 -11.9
v 32.0 29.1 -12.0
v 33.0 11.0 -22.2
v 33.0 10.8 -22.0
v 33.0 11.0 -21.8
v 33.0 12.0 -22.4
v 33.0 12.0 -21.6
v 32.4 13.0 -24.0
v 33.0 13.0 -23.4
v 33.0 12.6 -23.0
v 33.0 13.0 -21.6
v 32.2 14.0 -25.0
v 33.0 14.0 -24.2
v 33.0 13.8 -24.0
v 33.0 14.0 -22.0
v 33.0 14.0 -22.0
v 33.0 14.0 -22.0
v 32.6 15.0 -24.0
v 33.0 14.3 -24.0
v 33.0 15.0 -23.7
v 33.0 14.0 -22.0
v 33.0 15.0 -21.6
v 33.0 15.0 -8.0
v 33.0 15.0 -8.0
v 32.1 15.0 -7.0
v 33.0 15.0 -8.0
v 33.0 16.0 -23.5
v 33.0 15.5 -21.0
v 33.0 16.0 -20.6
v 32.5 16.0 -11.0
v 33.0 16.0 -10.5
v 33.0 15.7 -10.0
v 33.0 15.5 -9.0
v 32.6 16.0 -7.0
v 33.0 16.0 -7.5
v 32.3 16.0 -6.0
v 32.0 16.0 -5.0
v 33.0 17.0 -23.5
v 33.0 16.9 -20.0
v 33.0 17.0 -20.0
v 32.4 17.0 -15.0
v 32.5 17.0 -14.0
v 32.6 17.0 -13.0
v 33.0 17.0 -12.5
v 33.0 16.7 -12.0
v 33.0 16.3 -11.0
v 32.6 17.0 -7.0
v 33.0 17.0 -7.5
v 32.4 17.0 -6.0
v 33.0 18.0 -23.2
v 32.7 18.0 -21.0
v 33.0 17.6 -21.0
v 33.0 18.0 -21.5
v 32.6 18.0 -20.0
v 33.0 17.1 -20.0
v 32.4 18.0 -19.0
v 32.5 18.0 -18.0
v 32.6 18.0 -17.0
v 33.0 18.0 -16.5
v 33.0 17.7 -16.0
v 33.0 17.5 -15.0
v 33.0 17.4 -14.0
v 33.0 17.4 -13.0
v 32.6 18.0 -7.0
v 33.0 18.0 -7.6
v 32.3 18.0 -6.0
v 33.0 18.2 -23.0
v 32.4 19.0 -22.0
v 33.0 18.4 -22.0
v 32.5 19.0 -21.0
v 32.5 19.0 -20.0
v 32.6 19.0 -19.0
v 33.0 19.0 -18.2
v 33.0 18.8 -18.0
v 33.0 18.4 -17.0
v 32.7 19.0 -8.0
v 33.0 18.5 -8.0
v 33.0 19.0 -8.4
v 32.4 19.0 -7.0
v 32.4 20.0 -21.0
v 32.5 20.0 -20.0
v 32.5 20.0 -19.0
v 33.0 19.3 -18.0
v 32.7 20.0 -18.0
v 33.0 20.0 -17.6
v 32.6 20.0 -8.0
v 33.0 20.0 -8.5
v 32.3 20.0 -7.0
v 32.3 21.0 -21.0
v 32.4 21.0 -20.0
v 32.5 21.0 -19.0
v 32.6 21.0 -18.0
v 33.0 21.0 -17.5
v 32.6 21.0 -8.0
v 33.0 21.0 -8.4
v 32.1 22.0 -21.0
v 32.3 22.0 -19.0
v 32.5 22.0 -18.0
v 33.0 22.0 -17.4
v 33.0 21.8 -8.0
v 32.3 22.0 -7.0
v 33.0 22.0 -7.9
v 32.6 23.0 -17.0
v 33.0 22.4 -17.0
v 33.0 23.0 -16.5
v 32.8 23.0 -13.0
v 33.0 22.7 -13.0
v 33.0 23.0 -13.3
v 32.6 23.0 -12.0
v 33.0 22.5 -12.0
v 32.6 23.0 -11.0
v 33.0 22.5 -11.0
v 32.6 23.0 -10.0
v 33.0 22.5 -10.0
v 32.6 23.0 -9.0
v 33.0 22.5 -9.0
v 32.6 23.0 -8.0
v 33.0 22.2 -8.0
v 32.4 23.0 -7.0
v 32.3 24.0 -17.0
v 33.0 23.5 -16.0
v 32.7 24.0 -16.0
v 33.0 24.0 -15.6
v 32.6 24.0 -13.0
v 33.0 24.0 -13.5
v 32.5 24.0 -12.0
v 32.5 24.0 -11.0
v 32.4 24.0 -10.0
v 32.4 24.0 -9.0
v 32.4 24.0 -8.0
v 32.2 24.0 -7.0
v 32.4 25.0 -16.0
v 33.0 25.0 -15.4
v 32.6 25.0 -13.0
v 33.0 25.0 -13.5
v 32.5 25.0 -12.0
v 32.4 25.0 -11.0
v 33.0 26.0 -15.2
v 32.6 26.0 -13.0
v 33.0 26.0 -13.7
v 32.5 26.0 -12.0
v 32.4 26.0 -11.0
v 33.0 26.2 -15.0
v 32.4 27.0 -14.0
v 33.0 26.3 -14.0
v 32.5 27.0 -13.0
v 32.4 27.0 -12.0
v 32.0 28.0 -14.0
v 32.4 28.0 -13.0
v 32.3 28.0 -12.0
v 32.1 29.0 -12.0
v 33.8 11.0 -22.0
v 34.0 12.0 -22.2
v 34.0 11.2 -22.0
v 34.0 12.0 -21.8
v 33.4 13.0 -23.0
v 34.0 13.0 -22.3
v 34.0 13.0 -21.7
v 33.1 14.0 -24.0
v 33.6 14.0 -23.0
v 34.0 13.9 -22.0
v 34.0 14.7 -23.0
v 34.0 15.0 -23.2
v 33.9 15.0 -22.0
v 34.0 15.0 -22.2
v 33.0 15.0 -8.0
v 34.0 16.0 -23.4
v 34.0 15.1 -22.0
v 34.0 15.7 -21.0
v 34.0 16.0 -20.8
v 33.4 16.0 -10.0
v 33.9 16.0 -9.0
v 33.4 16.0 -8.0
v 34.0 17.0 -23.2
v 33.6 17.0 -21.0
v 34.0 16.4 -21.0
v 34.0 17.0 -21.5
v 33.0 17.0 -20.0
v 33.3 17.0 -12.0
v 34.0 17.0 -11.1
v 34.0 16.9 -11.0
v 34.0 16.6 -10.0
v 34.0 17.0 -9.6
v 33.7 17.0 -9.0
v 33.4 17.0 -8.0
v 34.0 17.3 -23.0
v 33.3 18.0 -23.0
v 33.4 18.0 -22.0
v 34.0 17.4 -22.0
v 33.3 18.0 -16.0
v 33.5 18.0 -15.0
v 34.0 18.0 -14.0
v 34.0 18.0 -14.0
v 33.5 18.0 -13.0
v 34.0 18.0 -14.0
v 33.5 18.0 -12.0
v 34.0 17.2 -11.0
v 33.7 18.0 -11.0
v 34.0 18.0 -10.5
v 33.6 18.0 -9.0
v 34.0 18.0 -9.6
v 33.3 18.0 -8.0
v 33.1 19.0 -18.0
v 33.5 19.0 -17.0
v 33.9 19.0 -16.0
v 33.8 19.0 -15.0
v 34.0 19.0 -14.6
v 33.6 19.0 -13.0
v 34.0 19.0 -13.6
v 33.5 19.0 -12.0
v 33.6 19.0 -11.0
v 34.0 19.0 -10.3
v 33.5 19.0 -9.0
v 34.0 19.0 -9.7
v 33.4 20.0 -17.0
v 33.7 20.0 -16.0
v 34.0 20.0 -15.3
v 34.0 19.5 -15.0
v 33.6 20.0 -13.0
v 34.0 20.0 -13.7
v 33.6 20.0 -12.0
v 33.6 20.0 -11.0
v 34.0 20.0 -10.1
v 33.5 20.0 -9.0
v 34.0 20.0 -9.9
v 33.4 21.0 -17.0
v 33.5 21.0 -16.0
v 34.0 20.2 -15.0
v 33.6 21.0 -15.0
v 33.6 21.0 -14.0
v 34.0 20.3 -14.0
v 33.6 21.0 -13.0
v 33.9 21.0 -12.0
v 33.6 21.0 -11.0
v 34.0 20.1 -10.0
v 33.6 21.0 -10.0
v 33.4 21.0 -9.0
v 33.3 22.0 -17.0
v 33.5 22.0 -16.0
v 33.5 22.0 -15.0
v 33.5 22.0 -14.0
v 33.4 22.0 -13.0
v 33.5 22.0 -12.0
v 33.4 22.0 -11.0
v 33.4 22.0 -10.0
v 33.4 22.0 -9.0
v 33.1 22.0 -8.0
v 33.3 23.0 -16.0
v 33.5 23.0 -15.0
v 33.4 23.0 -14.0
v 33.4 24.0 -15.0
v 33.4 24.0 -14.0
v 33.4 25.0 -15.0
v 33.4 25.0 -14.0
v 33.2 26.0 -15.0
v 33.2 26.0 -14.0
v 34.2 12.0 -22.0
v 34.6 13.0 -22.0
v 34.2 15.0 -23.0
v 35.0 14.8 -22.0
v 35.0 15.0 -22.2
v 34.2 15.0 -22.0
v 35.0 15.0 -21.8
v 34.5 16.0 -23.0
v 35.0 16.0 -22.5
v 35.0 15.8 -21.0
v 35.0 16.0 -20.8
v 34.2 17.0 -23.0
v 35.0 16.4 -22.0
v 34.4 17.0 -22.0
v 35.0 16.2 -21.0
v 34.1 17.0 -11.0
v 34.2 17.0 -10.0
v 34.0 18.0 -14.0
v 34.2 18.0 -10.0
v 34.2 19.0 -14.0
v 34.2 19.0 -10.0
v 34.2 20.0 -15.0
v 34.2 20.0 -14.0
v 34.1 20.0 -10.0
v 36.0 15.0 -22.5
v 36.0 14.8 -22.0
v 36.0 15.0 -21.7
v 36.0 16.0 -22.2
v 36.0 15.7 -21.0
v 36.0 16.0 -20.8
v 36.0 16.2 -22.0
v 36.0 16.2 -21.0
v 36.2 15.0 -22.0
v 36.2 16.0 -22.0
v 37.0 15.7 -21.0
v 37.0 16.0 -21.1
v 37.0 16.0 -20.7
v 37.0 16.1 -21.0
v 37.1 16.0 -21.0
f 3 2 1
f 5 4 1
f 1 4 3
f 5 6 4
f 1 2 7
f 7 2 8
f 1 9 5
f 1 7 9
f 6 5 10
f 5 11 10
f 5 9 11
f 11 12 10
f 8 13 7
f 7 13 9
f 9 13 14
f 16 15 14
f 15 9 14
f 15 11 9
f 12 11 17
f 17 11 15
f 20 19 18
f 20 18 16
f 18 15 16
f 18 21 15
f 17 15 22
f 22 15 21
f 18 19 23
f 23 19 24
f 26 21 25
f 21 23 25
f 21 18 23
f 21 26 22
f 24 27 23
f 23 27 25
f 30 29 28
f 32 31 28
f 28 31 30
f 34 33 32
f 32 33 31
f 2 3 35
f 33 34 36
f 4 37 3
f 3 37 35
f 6 37 4
f 29 38 28
f 40 39 38
f 39 28 38
f 39 32 28
f 32 41 34
f 32 39 41
f 2 35 8
f 42 8 35
f 8 42 41
f 36 41 42
f 41 36 34
f 42 35 37
f 42 37 43
f 43 37 6
f 10 43 6
f 44 43 10
f 10 12 44
f 44 12 45
f 39 40 46
f 46 40 47
f 39 48 41
f 39 46 48
f 49 13 8
f 41 49 8
f 48 49 41
f 50 14 13
f 50 13 49
f 50 16 14
f 17 52 51
f 45 17 51
f 12 17 45
f 52 53 51
f 46 47 54
f 54 47 55
f 46 56 48
f 46 54 56
f 48 57 49
f 48 56 57
f 57 19 20
f 50 57 20
f 49 57 50
f 50 20 16
f 22 58 52
f 22 52 17
f 53 52 59
f 52 60 59
f 52 58 60
f 62 61 60
f 60 61 59
f 62 63 61
f 55 64 54
f 66 65 64
f 65 54 64
f 65 56 54
f 56 67 57
f 56 65 67
f 67 24 19
f 67 19 57
f 25 68 26
f 58 22 26
f 68 58 26
f 69 58 68
f 58 70 60
f 58 69 70
f 72 62 71
f 62 70 71
f 62 60 70
f 62 72 63
f 66 73 65
f 65 73 67
f 67 73 74
f 74 76 75
f 74 75 27
f 67 74 27
f 24 67 27
f 68 25 27
f 75 68 27
f 77 68 75
f 68 78 69
f 68 77 78
f 69 79 70
f 69 78 79
f 71 70 80
f 70 81 80
f 70 79 81
f 81 82 80
f 76 83 75
f 85 84 83
f 84 75 83
f 84 77 75
f 77 86 78
f 77 84 86
f 78 87 79
f 78 86 87
f 79 88 81
f 79 87 88
f 82 81 89
f 81 90 89
f 81 88 90
f 90 91 89
f 84 85 92
f 92 85 93
f 84 94 86
f 84 92 94
f 86 95 87
f 86 94 95
f 87 96 88
f 87 95 96
f 88 97 90
f 88 96 97
f 91 90 98
f 98 90 97
f 92 93 99
f 99 93 100
f 92 101 94
f 92 99 101
f 94 102 95
f 94 101 102
f 95 103 96
f 95 102 103
f 96 104 97
f 96 103 104
f 98 97 105
f 105 97 104
f 100 106 99
f 99 106 101
f 101 106 107
f 101 107 102
f 102 107 108
f 102 108 103
f 103 108 109
f 103 109 104
f 104 109 110
f 104 110 105
f 113 112 111
f 111 114 113
f 112 115 111
f 111 115 114
f 118 117 116
f 29 30 116
f 30 118 116
f 30 119 118
f 120 30 31
f 120 119 30
f 121 31 33
f 121 120 31
f 33 36 121
f 121 36 122
f 116 117 123
f 123 117 124
f 125 38 29
f 116 125 29
f 123 125 116
f 125 40 38
f 126 122 36
f 126 36 42
f 127 42 43
f 127 126 42
f 128 43 44
f 128 127 43
f 130 129 45
f 129 44 45
f 129 128 44
f 130 131 129
f 123 124 132
f 132 124 133
f 123 134 125
f 123 132 134
f 134 47 40
f 134 40 125
f 51 130 45
f 136 135 53
f 53 135 51
f 135 131 51
f 131 130 51
f 138 137 136
f 136 137 135
f 138 139 137
f 133 140 132
f 142 141 140
f 141 132 140
f 141 134 132
f 141 55 47
f 141 47 134
f 59 136 53
f 136 59 61
f 136 61 138
f 61 63 138
f 63 139 138
f 63 143 139
f 141 142 144
f 144 142 145
f 146 64 55
f 141 146 55
f 144 146 141
f 146 66 64
f 71 147 72
f 143 63 148
f 63 147 148
f 147 149 148
f 63 72 147
f 149 150 148
f 145 151 144
f 153 152 151
f 152 144 151
f 152 146 144
f 146 152 66
f 152 154 66
f 154 73 66
f 152 155 154
f 154 157 156
f 74 154 156
f 73 154 74
f 156 76 74
f 80 147 71
f 147 80 82
f 158 147 82
f 149 147 158
f 150 149 159
f 149 160 159
f 149 158 160
f 160 161 159
f 153 162 152
f 152 162 155
f 156 157 163
f 163 157 164
f 165 83 76
f 156 165 76
f 163 165 156
f 165 85 83
f 89 158 82
f 158 89 91
f 166 158 91
f 160 158 166
f 161 160 167
f 160 168 167
f 160 166 168
f 168 169 167
f 163 164 170
f 170 164 171
f 163 172 165
f 163 170 172
f 172 93 85
f 172 85 165
f 98 173 166
f 98 166 91
f 166 174 168
f 166 173 174
f 169 168 175
f 175 168 174
f 170 171 176
f 176 171 177
f 170 178 172
f 170 176 178
f 178 100 93
f 178 93 172
f 105 179 173
f 105 173 98
f 173 180 174
f 173 179 180
f 175 174 181
f 181 174 180
f 177 182 176
f 184 183 182
f 183 176 182
f 183 178 176
f 185 106 100
f 178 185 100
f 183 185 178
f 186 107 106
f 186 106 185
f 187 108 107
f 187 107 186
f 188 109 108
f 188 108 187
f 189 110 109
f 189 109 188
f 179 105 110
f 189 179 110
f 190 179 189
f 179 191 180
f 179 190 191
f 181 180 192
f 192 180 191
f 195 194 193
f 193 196 195
f 184 197 183
f 183 197 185
f 185 197 198
f 200 199 198
f 199 185 198
f 199 186 185
f 186 201 187
f 186 199 201
f 187 202 188
f 187 201 202
f 188 203 189
f 188 202 203
f 189 204 190
f 189 203 204
f 206 191 205
f 191 204 205
f 191 190 204
f 191 206 192
f 193 194 207
f 207 194 208
f 196 193 209
f 209 193 207
f 200 210 199
f 199 210 201
f 201 210 211
f 201 211 202
f 202 211 212
f 202 212 203
f 203 212 213
f 203 213 204
f 204 213 214
f 204 214 205
f 208 215 207
f 207 215 209
f 218 217 216
f 220 219 216
f 216 219 218
f 222 221 220
f 220 221 219
f 222 223 221
f 217 224 216
f 216 224 220
f 220 224 225
f 220 225 222
f 222 225 226
f 222 226 223
f 229 228 227
f 231 230 227
f 227 230 229
f 231 232 230
f 228 233 227
f 235 234 233
f 234 227 233
f 234 231 227
f 232 231 236
f 236 231 234
f 239 238 237
f 239 237 235
f 237 234 235
f 237 240 234
f 236 234 241
f 234 242 241
f 234 240 242
f 242 243 241
f 238 244 237
f 246 245 244
f 245 237 244
f 245 240 237
f 245 112 113
f 242 245 113
f 240 245 242
f 113 114 242
f 114 243 242
f 114 247 243
f 246 248 245
f 248 250 249
f 248 249 115
f 245 248 115
f 112 245 115
f 247 114 251
f 114 249 251
f 249 252 251
f 114 115 249
f 117 118 252
f 118 251 252
f 118 253 251
f 254 118 119
f 254 253 118
f 255 119 120
f 255 254 119
f 256 120 121
f 256 255 120
f 258 257 122
f 257 121 122
f 257 256 121
f 260 259 258
f 258 259 257
f 260 261 259
f 250 262 249
f 264 263 262
f 263 249 262
f 263 252 249
f 263 124 117
f 263 117 252
f 126 258 122
f 258 126 127
f 258 127 260
f 265 261 260
f 127 265 260
f 128 265 127
f 266 128 129
f 266 265 128
f 268 267 131
f 267 129 131
f 267 266 129
f 268 269 267
f 263 264 270
f 270 264 271
f 270 133 124
f 270 124 263
f 135 268 131
f 272 269 268
f 135 272 268
f 137 272 135
f 274 273 139
f 273 137 139
f 273 272 137
f 274 275 273
f 271 276 270
f 276 278 277
f 276 277 140
f 270 276 140
f 133 270 140
f 277 142 140
f 143 279 274
f 143 274 139
f 275 274 280
f 274 281 280
f 274 279 281
f 281 282 280
f 277 278 283
f 283 278 284
f 283 145 142
f 283 142 277
f 148 279 143
f 279 148 150
f 285 279 150
f 281 279 285
f 282 281 286
f 281 287 286
f 281 285 287
f 287 288 286
f 283 284 289
f 289 284 290
f 291 151 145
f 283 291 145
f 289 291 283
f 291 153 151
f 155 292 154
f 292 157 154
f 159 285 150
f 285 159 161
f 293 285 161
f 287 285 293
f 288 287 294
f 287 295 294
f 287 293 295
f 297 296 295
f 295 296 294
f 297 298 296
f 290 299 289
f 289 299 291
f 291 299 300
f 300 302 301
f 300 301 162
f 291 300 162
f 153 291 162
f 292 155 162
f 301 292 162
f 303 292 301
f 303 164 157
f 303 157 292
f 167 293 161
f 293 167 169
f 304 293 169
f 295 293 304
f 295 305 297
f 295 304 305
f 298 297 306
f 297 307 306
f 297 305 307
f 309 308 307
f 307 308 306
f 309 310 308
f 302 311 301
f 313 312 311
f 312 301 311
f 312 303 301
f 312 171 164
f 312 164 303
f 175 314 304
f 175 304 169
f 304 315 305
f 304 314 315
f 305 316 307
f 305 315 316
f 307 317 309
f 307 316 317
f 310 309 318
f 318 309 317
f 313 319 312
f 171 312 319
f 320 171 319
f 177 171 320
f 181 321 314
f 181 314 175
f 314 322 315
f 314 321 322
f 315 323 316
f 315 322 323
f 316 324 317
f 316 323 324
f 318 317 325
f 317 326 325
f 317 324 326
f 328 327 326
f 326 327 325
f 328 329 327
f 320 330 177
f 177 330 182
f 184 182 330
f 184 330 331
f 192 332 321
f 192 321 181
f 321 333 322
f 321 332 333
f 333 194 195
f 323 333 195
f 322 333 323
f 323 195 196
f 334 323 196
f 324 323 334
f 324 335 326
f 324 334 335
f 326 336 328
f 326 335 336
f 329 328 337
f 337 328 336
f 197 184 338
f 184 339 338
f 184 331 339
f 340 198 197
f 340 197 338
f 340 200 198
f 205 341 206
f 332 192 206
f 341 332 206
f 342 332 341
f 332 343 333
f 332 342 343
f 343 208 194
f 343 194 333
f 209 344 334
f 209 334 196
f 334 345 335
f 334 344 345
f 335 346 336
f 335 345 346
f 337 336 347
f 347 336 346
f 338 339 348
f 348 339 349
f 338 350 340
f 338 348 350
f 351 210 200
f 340 351 200
f 350 351 340
f 352 211 210
f 352 210 351
f 353 212 211
f 353 211 352
f 354 213 212
f 354 212 353
f 355 214 213
f 355 213 354
f 341 205 214
f 355 341 214
f 356 341 355
f 341 357 342
f 341 356 357
f 342 358 343
f 342 357 358
f 359 215 208
f 343 359 208
f 358 359 343
f 344 209 215
f 359 344 215
f 360 344 359
f 344 361 345
f 344 360 361
f 345 362 346
f 345 361 362
f 347 346 363
f 363 346 362
f 349 364 348
f 366 365 364
f 365 348 364
f 365 350 348
f 350 367 351
f 350 365 367
f 367 217 218
f 352 367 218
f 351 367 352
f 352 218 219
f 352 219 353
f 353 219 221
f 353 221 354
f 354 221 223
f 368 354 223
f 355 354 368
f 355 369 356
f 355 368 369
f 356 370 357
f 356 369 370
f 357 371 358
f 357 370 371
f 358 372 359
f 358 371 372
f 374 360 373
f 360 372 373
f 360 359 372
f 360 374 361
f 361 374 375
f 361 375 362
f 362 375 376
f 362 376 363
f 366 377 365
f 379 378 377
f 378 365 377
f 378 367 365
f 380 224 217
f 367 380 217
f 378 380 367
f 381 225 224
f 381 224 380
f 382 226 225
f 382 225 381
f 382 383 226
f 226 383 223
f 383 384 223
f 384 368 223
f 386 385 384
f 385 368 384
f 385 369 368
f 369 387 370
f 369 385 387
f 370 388 371
f 370 387 388
f 371 389 372
f 371 388 389
f 373 372 390
f 390 372 389
f 379 391 378
f 378 391 380
f 380 391 392
f 380 392 381
f 381 392 393
f 381 393 382
f 382 393 394
f 382 394 383
f 386 395 385
f 385 395 387
f 387 395 396
f 387 396 388
f 388 396 397
f 388 397 389
f 389 397 398
f 389 398 390
f 400 399 229
f 229 399 228
f 402 400 401
f 400 230 401
f 400 229 230
f 232 401 230
f 233 228 403
f 228 404 403
f 228 399 404
f 403 235 233
f 401 405 402
f 405 401 406
f 236 406 232
f 232 406 401
f 409 408 407
f 409 407 404
f 404 407 403
f 407 238 403
f 238 239 403
f 406 410 405
f 235 403 239
f 412 410 411
f 411 410 241
f 410 406 241
f 406 236 241
f 243 411 241
f 407 408 413
f 413 408 414
f 415 244 238
f 407 415 238
f 413 415 407
f 415 246 244
f 412 411 416
f 412 416 417
f 247 418 243
f 419 243 418
f 243 419 411
f 420 411 419
f 411 420 416
f 422 421 418
f 418 421 419
f 422 423 421
f 414 424 413
f 413 424 415
f 415 424 425
f 425 427 426
f 425 426 248
f 415 425 248
f 246 415 248
f 416 428 417
f 250 248 426
f 247 251 418
f 416 420 428
f 418 251 253
f 418 253 422
f 429 423 422
f 253 429 422
f 254 429 253
f 430 254 255
f 430 429 254
f 431 255 256
f 431 430 255
f 432 256 257
f 432 431 256
f 433 257 259
f 433 432 257
f 435 434 261
f 434 259 261
f 434 433 259
f 437 436 435
f 435 436 434
f 437 438 436
f 426 427 439
f 439 427 440
f 441 262 250
f 426 441 250
f 439 441 426
f 441 264 262
f 265 435 261
f 435 265 266
f 435 266 437
f 442 438 437
f 266 442 437
f 267 442 266
f 444 443 269
f 443 267 269
f 443 442 267
f 444 445 443
f 440 446 439
f 439 446 441
f 441 446 447
f 264 441 447
f 448 264 447
f 271 264 448
f 272 444 269
f 449 445 444
f 272 449 444
f 273 449 272
f 451 450 275
f 450 273 275
f 450 449 273
f 453 452 451
f 451 452 450
f 453 454 452
f 276 271 455
f 271 456 455
f 271 448 456
f 455 278 276
f 280 451 275
f 451 280 282
f 457 451 282
f 453 451 457
f 454 453 458
f 453 459 458
f 453 457 459
f 459 460 458
f 456 461 455
f 278 455 461
f 462 278 461
f 284 278 462
f 286 457 282
f 457 286 288
f 463 457 288
f 459 457 463
f 460 459 464
f 459 465 464
f 459 463 465
f 465 466 464
f 462 290 284
f 467 290 462
f 294 463 288
f 463 294 296
f 463 296 465
f 469 468 298
f 298 468 296
f 468 466 296
f 466 465 296
f 471 470 469
f 469 470 468
f 473 472 471
f 471 472 470
f 473 474 472
f 299 290 475
f 290 476 475
f 290 467 476
f 477 300 299
f 477 299 475
f 477 302 300
f 306 469 298
f 469 306 308
f 469 308 471
f 471 308 310
f 478 471 310
f 473 471 478
f 474 473 479
f 473 480 479
f 473 478 480
f 480 481 479
f 475 476 482
f 482 476 483
f 475 484 477
f 475 482 484
f 485 311 302
f 477 485 302
f 484 485 477
f 485 313 311
f 318 486 478
f 318 478 310
f 478 487 480
f 478 486 487
f 481 480 488
f 480 489 488
f 480 487 489
f 489 490 488
f 483 491 482
f 482 491 484
f 484 491 492
f 484 492 485
f 485 492 493
f 493 495 494
f 493 494 319
f 485 493 319
f 313 485 319
f 494 320 319
f 325 486 318
f 486 325 327
f 486 327 487
f 487 327 329
f 496 487 329
f 489 487 496
f 490 489 497
f 497 489 496
f 494 495 498
f 498 495 499
f 500 330 320
f 494 500 320
f 498 500 494
f 500 331 330
f 337 501 496
f 337 496 329
f 497 496 502
f 502 496 501
f 499 503 498
f 505 504 503
f 504 498 503
f 504 500 498
f 504 339 331
f 504 331 500
f 347 506 501
f 347 501 337
f 502 501 507
f 507 501 506
f 504 505 508
f 508 505 509
f 508 349 339
f 508 339 504
f 363 510 506
f 363 506 347
f 507 506 511
f 506 512 511
f 506 510 512
f 512 513 511
f 509 514 508
f 514 516 515
f 514 515 364
f 508 514 364
f 349 508 364
f 515 366 364
f 373 517 374
f 518 375 374
f 518 374 517
f 519 376 375
f 519 375 518
f 519 520 376
f 376 520 363
f 520 521 363
f 521 510 363
f 510 521 512
f 512 521 522
f 512 522 513
f 516 523 515
f 523 525 524
f 523 524 377
f 515 523 377
f 366 515 377
f 524 379 377
f 383 526 384
f 526 386 384
f 529 528 527
f 528 530 517
f 390 528 517
f 373 390 517
f 527 528 390
f 517 530 518
f 518 530 531
f 518 531 519
f 519 531 532
f 519 532 520
f 525 533 524
f 533 535 534
f 533 534 391
f 524 533 391
f 379 524 391
f 536 392 391
f 536 391 534
f 537 393 392
f 537 392 536
f 393 537 538
f 539 393 538
f 394 393 539
f 394 539 383
f 539 540 383
f 540 526 383
f 540 539 541
f 542 395 386
f 526 542 386
f 540 542 526
f 395 542 543
f 544 395 543
f 396 395 544
f 396 545 397
f 544 545 396
f 527 398 529
f 398 545 529
f 398 397 545
f 398 527 390
f 535 546 534
f 534 546 536
f 536 546 547
f 536 547 537
f 537 547 548
f 537 548 538
f 541 549 540
f 540 549 542
f 542 549 550
f 542 550 543
f 552 551 400
f 400 551 399
f 400 402 552
f 552 402 553
f 556 555 554
f 551 556 554
f 404 551 554
f 399 551 404
f 405 553 402
f 405 557 553
f 554 555 409
f 555 408 409
f 555 558 408
f 554 409 404
f 405 410 559
f 560 405 559
f 557 405 560
f 412 559 410
f 558 414 408
f 561 414 558
f 562 560 559
f 559 412 562
f 412 563 562
f 412 417 563
f 565 564 419
f 419 564 420
f 567 565 566
f 565 421 566
f 565 419 421
f 423 566 421
f 561 568 414
f 414 568 424
f 424 569 425
f 568 569 424
f 427 425 569
f 427 569 570
f 571 563 417
f 571 417 428
f 428 420 564
f 428 564 571
f 572 567 566
f 572 566 423
f 429 572 423
f 573 572 429
f 574 429 430
f 574 573 429
f 575 430 431
f 575 574 430
f 576 431 432
f 576 575 431
f 577 432 433
f 577 576 432
f 578 433 434
f 578 577 433
f 579 434 436
f 579 578 434
f 436 438 579
f 579 438 580
f 570 440 427
f 581 440 570
f 582 580 438
f 582 438 442
f 583 442 443
f 583 582 442
f 585 584 445
f 584 443 445
f 584 583 443
f 585 586 584
f 446 440 587
f 440 588 587
f 440 581 588
f 589 447 446
f 589 446 587
f 589 448 447
f 449 585 445
f 590 586 585
f 449 590 585
f 450 590 449
f 591 450 452
f 591 590 450
f 593 592 454
f 592 452 454
f 592 591 452
f 593 594 592
f 588 595 587
f 587 595 589
f 589 595 596
f 448 589 596
f 597 448 596
f 456 448 597
f 458 593 454
f 599 598 460
f 460 598 458
f 598 594 458
f 594 593 458
f 599 600 598
f 461 456 601
f 456 602 601
f 456 597 602
f 601 462 461
f 464 599 460
f 604 603 466
f 466 603 464
f 603 600 464
f 600 599 464
f 606 605 604
f 604 605 603
f 608 607 606
f 606 607 605
f 608 609 607
f 602 610 601
f 462 601 610
f 611 462 610
f 467 462 611
f 468 604 466
f 604 468 470
f 604 470 606
f 606 470 472
f 606 472 608
f 613 612 474
f 474 612 472
f 612 609 472
f 609 608 472
f 615 614 613
f 613 614 612
f 615 616 614
f 611 476 467
f 617 476 611
f 479 613 474
f 613 479 481
f 618 613 481
f 615 613 618
f 616 615 619
f 619 615 618
f 617 483 476
f 620 483 617
f 488 618 481
f 622 621 490
f 490 621 488
f 621 619 488
f 619 618 488
f 622 623 621
f 620 624 483
f 483 624 491
f 624 626 625
f 492 624 625
f 491 624 492
f 627 493 492
f 627 492 625
f 627 495 493
f 497 628 622
f 497 622 490
f 623 622 629
f 629 622 628
f 625 626 630
f 630 626 631
f 625 632 627
f 625 630 632
f 632 499 495
f 632 495 627
f 502 633 628
f 502 628 497
f 629 628 634
f 634 628 633
f 631 635 630
f 637 636 635
f 636 630 635
f 636 632 630
f 638 503 499
f 632 638 499
f 636 638 632
f 638 505 503
f 507 639 633
f 507 633 502
f 634 633 640
f 633 641 640
f 633 639 641
f 641 642 640
f 637 643 636
f 645 644 643
f 644 636 643
f 644 638 636
f 644 509 505
f 644 505 638
f 511 639 507
f 639 511 513
f 646 639 513
f 641 639 646
f 642 641 647
f 647 641 646
f 645 648 644
f 648 650 649
f 648 649 514
f 644 648 514
f 509 644 514
f 649 516 514
f 653 652 651
f 655 654 651
f 655 651 652
f 656 654 655
f 658 657 521
f 658 521 520
f 521 659 522
f 657 659 521
f 513 522 646
f 522 660 646
f 522 659 660
f 646 660 647
f 650 661 649
f 649 661 516
f 661 523 516
f 661 662 523
f 651 663 525
f 662 651 525
f 523 662 525
f 653 651 662
f 664 651 654
f 663 651 664
f 654 656 665
f 666 654 665
f 664 654 666
f 667 666 665
f 529 668 528
f 669 530 528
f 669 528 668
f 670 531 530
f 670 530 669
f 671 532 531
f 671 531 670
f 671 672 532
f 672 520 532
f 672 658 520
f 663 533 525
f 533 663 535
f 663 673 535
f 663 664 673
f 674 664 666
f 673 664 674
f 666 667 675
f 676 666 675
f 674 666 676
f 675 538 676
f 675 539 538
f 675 678 677
f 539 675 677
f 677 541 539
f 680 679 544
f 680 544 543
f 544 681 545
f 679 681 544
f 529 545 668
f 545 682 668
f 545 681 682
f 668 682 669
f 669 682 683
f 669 683 670
f 670 683 684
f 670 684 671
f 671 684 685
f 671 685 672
f 673 546 535
f 546 673 547
f 547 673 674
f 547 674 548
f 548 674 676
f 678 686 677
f 548 676 538
f 677 686 541
f 686 549 541
f 686 687 549
f 549 688 550
f 687 688 549
f 543 550 680
f 680 550 688
f 689 551 552
f 553 689 552
f 690 555 556
f 691 690 556
f 691 556 551
f 692 691 551
f 689 692 551
f 553 557 689
f 557 693 689
f 693 692 689
f 693 557 694
f 696 695 694
f 694 695 693
f 696 697 695
f 698 558 690
f 690 558 555
f 690 691 699
f 690 699 698
f 560 700 694
f 560 694 557
f 694 701 696
f 694 700 701
f 697 696 702
f 702 696 701
f 703 561 698
f 698 561 558
f 698 699 704
f 698 704 703
f 562 700 560
f 700 562 563
f 705 700 563
f 701 700 705
f 565 706 564
f 706 701 564
f 701 705 564
f 701 706 702
f 565 567 706
f 706 567 707
f 703 568 561
f 569 568 703
f 708 569 703
f 704 708 703
f 709 569 708
f 709 570 569
f 571 705 563
f 705 571 564
f 710 707 567
f 710 567 572
f 711 572 573
f 711 710 572
f 712 573 574
f 712 711 573
f 713 574 575
f 713 712 574
f 714 575 576
f 714 713 575
f 715 576 577
f 715 714 576
f 717 715 716
f 715 578 716
f 715 577 578
f 579 718 578
f 578 718 716
f 580 718 579
f 708 719 709
f 570 709 719
f 720 570 719
f 581 570 720
f 721 717 716
f 721 716 718
f 721 718 722
f 722 718 580
f 582 722 580
f 723 722 582
f 724 582 583
f 724 723 582
f 725 583 584
f 725 724 583
f 727 726 586
f 726 584 586
f 726 725 584
f 727 728 726
f 720 588 581
f 729 588 720
f 590 727 586
f 730 728 727
f 590 730 727
f 591 730 590
f 731 591 592
f 731 730 591
f 733 732 594
f 732 592 594
f 732 731 592
f 733 734 732
f 729 735 588
f 588 735 595
f 595 736 596
f 735 736 595
f 597 596 736
f 597 736 737
f 598 733 594
f 739 738 600
f 600 738 598
f 738 734 598
f 734 733 598
f 741 740 739
f 739 740 738
f 741 742 740
f 737 602 597
f 743 602 737
f 603 739 600
f 739 603 605
f 739 605 741
f 744 742 741
f 605 744 741
f 607 744 605
f 746 745 609
f 745 607 609
f 745 744 607
f 746 747 745
f 743 748 602
f 602 748 610
f 611 610 748
f 611 748 749
f 612 746 609
f 750 747 746
f 612 750 746
f 614 750 612
f 614 616 750
f 750 616 751
f 749 617 611
f 752 617 749
f 619 754 753
f 751 619 753
f 616 619 751
f 754 755 753
f 752 620 617
f 756 620 752
f 621 754 619
f 621 623 754
f 623 755 754
f 623 757 755
f 756 758 620
f 620 758 624
f 626 624 758
f 626 758 759
f 629 761 760
f 757 629 760
f 623 629 757
f 761 762 760
f 759 631 626
f 763 631 759
f 634 764 761
f 634 761 629
f 762 761 765
f 765 761 764
f 763 766 631
f 631 766 635
f 637 635 766
f 637 766 767
f 770 769 768
f 772 771 768
f 772 768 769
f 634 640 764
f 771 772 773
f 640 642 764
f 642 765 764
f 642 774 765
f 643 637 775
f 637 776 775
f 637 767 776
f 775 645 643
f 770 768 777
f 770 777 778
f 779 768 771
f 777 768 779
f 771 773 780
f 781 771 780
f 779 771 781
f 780 774 781
f 774 647 781
f 774 642 647
f 776 782 775
f 775 782 645
f 782 648 645
f 782 783 648
f 785 784 650
f 648 785 650
f 783 785 648
f 787 786 784
f 787 784 785
f 652 653 786
f 787 652 786
f 788 652 787
f 788 790 789
f 655 788 789
f 652 788 655
f 789 656 655
f 793 792 791
f 791 792 778
f 791 778 777
f 658 791 777
f 657 658 777
f 657 777 659
f 659 777 779
f 659 779 660
f 660 779 781
f 660 781 647
f 784 661 650
f 661 784 662
f 662 784 786
f 662 786 653
f 790 794 789
f 789 794 656
f 794 665 656
f 794 795 665
f 667 665 795
f 667 795 796
f 793 791 797
f 793 797 798
f 672 797 658
f 658 797 791
f 796 799 667
f 667 799 675
f 678 675 799
f 678 799 800
f 802 801 679
f 802 679 680
f 679 803 681
f 801 803 679
f 681 804 682
f 803 804 681
f 682 805 683
f 804 805 682
f 683 806 684
f 805 806 683
f 797 685 798
f 685 806 798
f 685 684 806
f 685 797 672
f 800 807 678
f 678 807 686
f 686 808 687
f 807 808 686
f 687 809 688
f 808 809 687
f 680 688 802
f 802 688 809
f 810 691 692
f 693 811 692
f 692 811 810
f 811 693 812
f 693 813 812
f 693 695 813
f 815 814 697
f 814 695 697
f 814 813 695
f 815 816 814
f 818 817 810
f 817 691 810
f 817 699 691
f 818 810 811
f 818 811 819
f 819 811 812
f 702 820 815
f 702 815 697
f 816 815 821
f 821 815 820
f 817 704 699
f 822 704 817
f 706 820 702
f 706 707 820
f 707 821 820
f 707 823 821
f 826 825 824
f 824 827 826
f 822 708 704
f 828 708 822
f 829 823 707
f 829 707 710
f 830 710 711
f 830 829 710
f 712 824 825
f 830 712 825
f 711 712 830
f 831 827 824
f 712 831 824
f 713 831 712
f 833 831 832
f 831 714 832
f 831 713 714
f 715 834 714
f 714 834 832
f 717 834 715
f 828 835 708
f 708 835 719
f 720 719 835
f 720 835 836
f 837 833 832
f 837 832 834
f 837 834 838
f 840 838 839
f 839 838 721
f 838 834 721
f 834 717 721
f 722 841 721
f 721 841 839
f 723 842 722
f 722 842 841
f 724 843 723
f 723 843 842
f 725 844 724
f 724 844 843
f 726 845 725
f 725 845 844
f 728 845 726
f 836 729 720
f 846 729 836
f 847 840 839
f 847 839 841
f 847 841 848
f 848 841 842
f 848 842 849
f 849 842 843
f 849 843 850
f 850 843 844
f 850 844 851
f 851 844 845
f 851 845 852
f 852 845 728
f 730 852 728
f 853 852 730
f 854 730 731
f 854 853 730
f 855 731 732
f 855 854 731
f 857 856 734
f 856 732 734
f 856 855 732
f 859 858 857
f 857 858 856
f 859 860 858
f 846 861 729
f 729 861 735
f 735 862 736
f 861 862 735
f 737 736 862
f 737 862 863
f 738 857 734
f 857 738 740
f 857 740 859
f 865 864 742
f 742 864 740
f 864 860 740
f 860 859 740
f 867 866 865
f 865 866 864
f 867 868 866
f 863 743 737
f 869 743 863
f 744 865 742
f 865 744 745
f 865 745 867
f 745 747 867
f 747 868 867
f 747 870 868
f 869 871 743
f 743 871 748
f 749 748 871
f 749 871 872
f 747 750 873
f 874 747 873
f 870 747 874
f 751 873 750
f 872 752 749
f 875 752 872
f 874 873 876
f 874 876 877
f 753 878 751
f 878 873 751
f 878 876 873
f 755 878 753
f 875 756 752
f 879 756 875
f 882 881 880
f 880 881 877
f 876 880 877
f 883 880 876
f 884 876 878
f 883 876 884
f 757 884 755
f 755 884 878
f 758 756 885
f 756 886 885
f 756 879 886
f 885 759 758
f 887 882 880
f 889 888 887
f 880 889 887
f 883 889 880
f 890 883 884
f 889 883 890
f 760 891 757
f 891 884 757
f 891 890 884
f 762 891 760
f 886 892 885
f 763 759 885
f 893 763 885
f 892 893 885
f 763 893 894
f 895 894 893
f 888 889 896
f 888 896 897
f 898 889 890
f 896 889 898
f 899 890 891
f 898 890 899
f 765 899 762
f 762 899 891
f 894 766 763
f 767 766 894
f 895 767 894
f 900 767 895
f 897 896 769
f 770 897 769
f 901 897 770
f 769 896 772
f 772 896 898
f 772 898 773
f 898 902 773
f 898 899 902
f 774 902 765
f 765 902 899
f 900 776 767
f 903 776 900
f 778 901 770
f 778 904 901
f 902 780 773
f 780 902 774
f 903 905 776
f 776 905 782
f 905 907 906
f 783 905 906
f 782 905 783
f 783 906 908
f 909 783 908
f 785 783 909
f 785 910 787
f 909 910 785
f 910 912 911
f 788 910 911
f 787 910 788
f 911 790 788
f 914 913 792
f 914 792 793
f 778 792 904
f 904 792 913
f 907 915 906
f 906 915 908
f 912 916 911
f 911 916 790
f 916 794 790
f 916 917 794
f 794 918 795
f 917 918 794
f 796 795 918
f 796 918 919
f 922 921 920
f 924 923 920
f 924 920 921
f 926 925 923
f 926 923 924
f 928 927 925
f 928 925 926
f 929 927 928
f 932 931 930
f 931 914 930
f 914 798 930
f 914 793 798
f 919 933 796
f 796 933 799
f 800 799 933
f 800 933 934
f 937 936 935
f 935 936 922
f 920 935 922
f 938 935 920
f 802 938 801
f 938 923 801
f 938 920 923
f 801 923 803
f 803 923 925
f 803 925 804
f 804 925 927
f 929 939 927
f 939 804 927
f 939 805 804
f 930 806 932
f 806 939 932
f 806 805 939
f 806 930 798
f 934 940 800
f 800 940 807
f 935 808 937
f 808 940 937
f 808 807 940
f 808 935 809
f 809 935 938
f 809 938 802
f 941 812 813
f 941 813 942
f 813 943 942
f 813 814 943
f 945 944 816
f 944 814 816
f 944 943 814
f 945 946 944
f 947 817 818
f 947 818 948
f 818 949 948
f 818 819 949
f 949 819 812
f 950 949 812
f 941 950 812
f 949 950 951
f 941 942 952
f 941 952 950
f 821 953 945
f 821 945 816
f 946 945 954
f 954 945 953
f 955 822 947
f 947 822 817
f 947 948 956
f 947 956 955
f 957 951 950
f 957 950 952
f 959 958 953
f 821 959 953
f 823 959 821
f 953 958 954
f 960 825 826
f 827 960 826
f 961 828 955
f 955 828 822
f 955 956 962
f 955 962 961
f 963 959 823
f 963 823 829
f 965 963 964
f 963 830 964
f 963 829 830
f 966 964 830
f 966 830 825
f 967 966 825
f 960 967 825
f 969 967 968
f 968 967 831
f 967 960 831
f 960 827 831
f 833 968 831
f 961 835 828
f 836 835 961
f 962 836 961
f 970 836 962
f 971 965 964
f 971 964 966
f 972 969 968
f 974 972 973
f 973 972 837
f 972 968 837
f 968 833 837
f 838 975 837
f 837 975 973
f 840 975 838
f 978 977 976
f 980 979 976
f 976 979 978
f 980 981 979
f 983 846 982
f 846 970 982
f 846 836 970
f 984 983 982
f 985 974 973
f 987 986 985
f 973 987 985
f 975 987 973
f 847 988 840
f 988 975 840
f 988 987 975
f 848 989 847
f 847 989 988
f 989 848 990
f 848 991 990
f 848 849 991
f 992 849 850
f 992 991 849
f 993 850 851
f 993 992 850
f 994 851 852
f 994 993 851
f 995 852 853
f 995 994 852
f 854 976 977
f 995 854 977
f 853 854 995
f 976 854 855
f 976 855 980
f 996 981 980
f 855 996 980
f 856 996 855
f 997 856 858
f 997 996 856
f 999 998 860
f 998 858 860
f 998 997 858
f 999 1000 998
f 983 861 846
f 984 1001 983
f 1001 861 983
f 1001 862 861
f 863 862 1001
f 863 1001 1002
f 1003 986 987
f 1003 987 988
f 1003 988 1004
f 1004 988 989
f 1004 989 1005
f 1005 989 990
f 864 999 860
f 1006 1000 999
f 864 1006 999
f 866 1006 864
f 866 868 1006
f 1006 868 1007
f 1002 869 863
f 1008 869 1002
f 870 1007 868
f 870 1009 1007
f 1008 1010 869
f 869 1010 871
f 872 871 1010
f 872 1010 1011
f 1014 1013 1012
f 1013 1009 1012
f 1009 874 1012
f 1009 870 874
f 1011 875 872
f 1015 875 1011
f 1018 1017 1016
f 1016 1017 1014
f 1012 1016 1014
f 1019 1016 1012
f 877 1019 874
f 874 1019 1012
f 1021 879 1020
f 879 1015 1020
f 879 875 1015
f 1022 1021 1020
f 1018 1016 1023
f 1018 1023 1024
f 882 1023 881
f 1023 1019 881
f 1023 1016 1019
f 881 1019 877
f 1025 886 1021
f 1021 886 879
f 1021 1022 1026
f 1021 1026 1025
f 1029 1028 1027
f 1027 1028 1024
f 1023 1027 1024
f 1030 1027 1023
f 887 1031 882
f 1031 1023 882
f 1031 1030 1023
f 888 1031 887
f 1025 892 886
f 893 892 1025
f 1032 893 1025
f 1026 1032 1025
f 1033 893 1032
f 1033 895 893
f 1034 1029 1027
f 1036 1035 1034
f 1027 1036 1034
f 1030 1036 1027
f 1037 1030 1031
f 1036 1030 1037
f 897 1037 888
f 888 1037 1031
f 1032 1038 1033
f 895 1033 1038
f 1039 895 1038
f 900 895 1039
f 1035 1036 1040
f 1035 1040 1041
f 1042 1036 1037
f 1040 1036 1042
f 901 1042 897
f 897 1042 1037
f 1039 903 900
f 1043 903 1039
f 1046 1045 1044
f 1048 1047 1044
f 1048 1044 1045
f 1049 1047 1048
f 1041 1040 1050
f 1041 1050 1051
f 1052 1040 1042
f 1050 1040 1052
f 904 1052 901
f 901 1052 1042
f 1043 1053 903
f 903 1053 905
f 907 905 1053
f 907 1053 1054
f 1056 1055 909
f 1056 909 908
f 1055 1058 1057
f 910 1055 1057
f 909 1055 910
f 1057 912 910
f 1061 1060 1059
f 1063 1062 1059
f 1063 1059 1060
f 1062 1063 1046
f 1044 1062 1046
f 1064 1062 1044
f 1065 1044 1047
f 1064 1044 1065
f 1047 1049 1066
f 1047 1066 1065
f 1051 1050 1067
f 1051 1067 1068
f 914 1067 913
f 1067 1052 913
f 1067 1050 1052
f 913 1052 904
f 1054 1069 907
f 907 1069 915
f 908 915 1056
f 1056 915 1069
f 1058 1070 1057
f 1057 1070 912
f 1070 916 912
f 1070 1071 916
f 916 1072 917
f 1071 1072 916
f 1072 1074 1073
f 918 1072 1073
f 917 1072 918
f 1073 919 918
f 1061 1059 921
f 922 1061 921
f 1075 1061 922
f 921 1059 924
f 924 1059 1062
f 924 1062 926
f 926 1062 1064
f 926 1064 928
f 928 1064 1065
f 1077 1076 929
f 1077 929 928
f 1066 1077 928
f 1065 1066 928
f 1076 1077 1068
f 1076 1068 1067
f 932 1076 1067
f 931 932 1067
f 931 1067 914
f 1074 1078 1073
f 1073 1078 919
f 1078 933 919
f 1078 1079 933
f 934 933 1079
f 934 1079 1080
f 1082 1081 936
f 1082 936 937
f 922 936 1075
f 1075 936 1081
f 1076 939 929
f 939 1076 932
f 940 934 1083
f 934 1084 1083
f 934 1080 1084
f 1083 1085 940
f 1085 937 940
f 1085 1082 937
f 1084 1086 1083
f 1083 1086 1085
f 1087 942 943
f 1087 943 1088
f 943 1089 1088
f 943 944 1089
f 944 946 1089
f 1089 946 1090
f 1091 948 949
f 951 1091 949
f 1092 952 1087
f 1087 952 942
f 1087 1088 1093
f 1087 1093 1092
f 954 1090 946
f 954 1094 1090
f 1095 956 1091
f 1091 956 948
f 1095 1091 951
f 1096 1095 951
f 957 1096 951
f 1097 1095 1096
f 957 952 1092
f 1098 957 1092
f 1096 957 1098
f 958 959 1099
f 1092 1093 1098
f 1099 1100 958
f 1100 954 958
f 1100 1094 954
f 1102 1101 1095
f 1101 956 1095
f 1101 962 956
f 1102 1095 1097
f 963 1099 959
f 963 965 1099
f 965 1100 1099
f 965 1103 1100
f 1104 966 967
f 969 1104 967
f 1106 970 1105
f 970 1101 1105
f 970 962 1101
f 1107 1106 1105
f 965 971 1108
f 1109 965 1108
f 1103 965 1109
f 966 1104 971
f 1104 1108 971
f 1104 1110 1108
f 972 1111 969
f 1111 1104 969
f 1111 1110 1104
f 974 1111 972
f 1112 977 978
f 1112 978 1113
f 978 1114 1113
f 978 979 1114
f 1116 1115 981
f 1115 979 981
f 1115 1114 979
f 1116 1117 1115
f 1106 982 970
f 1119 1118 984
f 1119 984 982
f 1107 1119 982
f 1106 1107 982
f 1120 1118 1119
f 1121 1109 1108
f 1123 1122 1121
f 1108 1123 1121
f 1110 1123 1108
f 1124 1110 1111
f 1123 1110 1124
f 985 1125 974
f 1125 1111 974
f 1125 1124 1111
f 986 1125 985
f 1126 990 991
f 992 1127 991
f 991 1127 1126
f 993 1128 992
f 992 1128 1127
f 1128 993 1129
f 993 1130 1129
f 993 994 1130
f 1131 994 995
f 1131 1130 994
f 995 977 1112
f 1132 995 1112
f 1131 995 1132
f 1132 1112 1113
f 996 1116 981
f 1133 1117 1116
f 996 1133 1116
f 997 1133 996
f 1134 997 998
f 1134 1133 997
f 998 1000 1134
f 1134 1000 1135
f 1118 1001 984
f 1002 1001 1118
f 1120 1002 1118
f 1136 1002 1120
f 1137 1122 1123
f 1139 1138 1137
f 1123 1139 1137
f 1124 1139 1123
f 1140 1124 1125
f 1139 1124 1140
f 1003 1141 986
f 1141 1125 986
f 1141 1140 1125
f 1004 1142 1003
f 1003 1142 1141
f 1142 1004 1143
f 1004 1144 1143
f 1004 1005 1144
f 1005 990 1126
f 1145 1005 1126
f 1144 1005 1145
f 1145 1126 1127
f 1145 1127 1146
f 1146 1127 1128
f 1146 1128 1147
f 1147 1128 1129
f 1150 1149 1148
f 1151 1148 1006
f 1148 1135 1006
f 1135 1000 1006
f 1135 1148 1149
f 1007 1151 1006
f 1136 1008 1002
f 1152 1008 1136
f 1153 1138 1139
f 1153 1139 1140
f 1153 1140 1154
f 1154 1140 1141
f 1154 1141 1155
f 1155 1141 1142
f 1155 1142 1156
f 1156 1142 1143
f 1150 1148 1157
f 1150 1157 1158
f 1159 1148 1151
f 1157 1148 1159
f 1009 1159 1007
f 1007 1159 1151
f 1152 1160 1008
f 1008 1160 1010
f 1011 1010 1160
f 1011 1160 1161
f 1164 1163 1162
f 1162 1163 1158
f 1157 1162 1158
f 1165 1162 1157
f 1014 1165 1013
f 1165 1159 1013
f 1165 1157 1159
f 1013 1159 1009
f 1167 1015 1166
f 1015 1161 1166
f 1015 1011 1161
f 1168 1167 1166
f 1164 1162 1169
f 1164 1169 1170
f 1018 1169 1017
f 1169 1165 1017
f 1169 1162 1165
f 1017 1165 1014
f 1167 1020 1015
f 1022 1020 1167
f 1168 1022 1167
f 1171 1022 1168
f 1174 1173 1172
f 1172 1173 1170
f 1169 1172 1170
f 1175 1172 1169
f 1024 1175 1018
f 1018 1175 1169
f 1171 1026 1022
f 1176 1026 1171
f 1179 1178 1177
f 1180 1177 1178
f 1181 1174 1172
f 1029 1182 1028
f 1182 1172 1028
f 1172 1175 1028
f 1182 1181 1172
f 1028 1175 1024
f 1184 1032 1183
f 1032 1176 1183
f 1032 1026 1176
f 1184 1183 1179
f 1177 1184 1179
f 1185 1184 1177
f 1177 1180 1186
f 1187 1177 1186
f 1185 1177 1187
f 1189 1188 1187
f 1189 1187 1186
f 1190 1188 1189
f 1029 1034 1191
f 1192 1029 1191
f 1182 1029 1192
f 1035 1191 1034
f 1184 1038 1032
f 1038 1184 1039
f 1184 1193 1039
f 1184 1185 1193
f 1194 1185 1187
f 1193 1185 1194
f 1195 1187 1188
f 1194 1187 1195
f 1188 1190 1196
f 1188 1196 1195
f 1192 1191 1197
f 1192 1197 1198
f 1041 1197 1035
f 1035 1197 1191
f 1199 1043 1193
f 1193 1043 1039
f 1200 1193 1194
f 1199 1193 1200
f 1201 1194 1195
f 1200 1194 1201
f 1195 1196 1202
f 1203 1195 1202
f 1201 1195 1203
f 1204 1203 1202
f 1207 1206 1205
f 1209 1208 1205
f 1209 1205 1206
f 1045 1046 1208
f 1209 1045 1208
f 1210 1045 1209
f 1045 1211 1048
f 1210 1211 1045
f 1197 1212 1049
f 1211 1197 1049
f 1048 1211 1049
f 1198 1197 1211
f 1051 1212 1041
f 1041 1212 1197
f 1199 1053 1043
f 1053 1199 1054
f 1199 1213 1054
f 1199 1200 1213
f 1056 1213 1055
f 1213 1201 1055
f 1213 1200 1201
f 1055 1201 1058
f 1201 1214 1058
f 1201 1203 1214
f 1203 1204 1215
f 1216 1203 1215
f 1214 1203 1216
f 1217 1216 1215
f 1207 1205 1060
f 1061 1207 1060
f 1218 1207 1061
f 1060 1205 1063
f 1063 1205 1208
f 1063 1208 1046
f 1219 1066 1212
f 1212 1066 1049
f 1068 1219 1051
f 1051 1219 1212
f 1213 1069 1054
f 1069 1213 1056
f 1214 1070 1058
f 1070 1214 1071
f 1071 1214 1216
f 1217 1220 1216
f 1220 1071 1216
f 1220 1072 1071
f 1074 1072 1220
f 1074 1220 1221
f 1224 1223 1222
f 1223 1218 1222
f 1218 1075 1222
f 1218 1061 1075
f 1219 1077 1066
f 1077 1219 1068
f 1078 1074 1225
f 1074 1226 1225
f 1074 1221 1226
f 1227 1079 1078
f 1227 1078 1225
f 1227 1080 1079
f 1224 1222 1081
f 1082 1224 1081
f 1228 1224 1082
f 1081 1222 1075
f 1226 1229 1225
f 1225 1229 1227
f 1227 1229 1230
f 1080 1227 1230
f 1231 1080 1230
f 1084 1080 1231
f 1085 1228 1082
f 1085 1232 1228
f 1231 1233 1084
f 1084 1233 1086
f 1085 1086 1232
f 1232 1086 1233
f 1235 1234 1089
f 1089 1234 1088
f 1089 1090 1235
f 1235 1090 1236
f 1234 1093 1088
f 1237 1093 1234
f 1094 1236 1090
f 1094 1238 1236
f 1239 1097 1096
f 1239 1096 1240
f 1096 1241 1240
f 1096 1098 1241
f 1098 1093 1237
f 1098 1237 1241
f 1100 1238 1094
f 1100 1242 1238
f 1243 1101 1102
f 1244 1243 1102
f 1244 1102 1097
f 1245 1244 1097
f 1239 1245 1097
f 1245 1239 1240
f 1248 1247 1246
f 1247 1242 1246
f 1242 1103 1246
f 1242 1100 1103
f 1243 1105 1101
f 1250 1249 1107
f 1250 1107 1105
f 1244 1250 1105
f 1243 1244 1105
f 1251 1249 1250
f 1252 1248 1246
f 1246 1103 1252
f 1103 1253 1252
f 1103 1109 1253
f 1255 1254 1114
f 1114 1254 1113
f 1257 1255 1256
f 1255 1115 1256
f 1255 1114 1115
f 1117 1256 1115
f 1249 1119 1107
f 1120 1119 1249
f 1251 1120 1249
f 1258 1120 1251
f 1259 1253 1109
f 1259 1109 1121
f 1121 1122 1259
f 1259 1122 1260
f 1261 1129 1130
f 1261 1130 1262
f 1130 1263 1262
f 1130 1131 1263
f 1264 1131 1132
f 1264 1263 1131
f 1132 1113 1254
f 1132 1254 1264
f 1257 1256 1265
f 1257 1265 1266
f 1133 1267 1117
f 1267 1256 1117
f 1267 1265 1256
f 1134 1268 1133
f 1133 1268 1267
f 1135 1268 1134
f 1258 1136 1120
f 1269 1136 1258
f 1270 1260 1122
f 1270 1122 1137
f 1137 1138 1270
f 1270 1138 1271
f 1272 1143 1144
f 1145 1273 1144
f 1144 1273 1272
f 1146 1274 1145
f 1145 1274 1273
f 1274 1146 1275
f 1146 1276 1275
f 1146 1147 1276
f 1147 1129 1261
f 1277 1147 1261
f 1276 1147 1277
f 1277 1261 1262
f 1266 1265 1278
f 1266 1278 1279
f 1280 1265 1267
f 1278 1265 1280
f 1150 1280 1149
f 1280 1268 1149
f 1280 1267 1268
f 1149 1268 1135
f 1269 1152 1136
f 1281 1152 1269
f 1284 1283 1282
f 1286 1285 1282
f 1286 1282 1283
f 1287 1285 1153
f 1285 1271 1153
f 1271 1138 1153
f 1271 1285 1286
f 1154 1288 1153
f 1153 1288 1287
f 1155 1289 1154
f 1154 1289 1288
f 1289 1155 1290
f 1155 1291 1290
f 1155 1156 1291
f 1156 1143 1272
f 1292 1156 1272
f 1291 1156 1292
f 1292 1272 1273
f 1292 1273 1293
f 1293 1273 1274
f 1293 1274 1294
f 1294 1274 1275
f 1279 1278 1295
f 1279 1295 1296
f 1297 1278 1280
f 1295 1278 1297
f 1158 1297 1150
f 1150 1297 1280
f 1281 1298 1152
f 1152 1298 1160
f 1300 1299 1161
f 1160 1300 1161
f 1298 1300 1160
f 1299 1300 1284
f 1282 1299 1284
f 1301 1299 1282
f 1302 1282 1285
f 1301 1282 1302
f 1303 1285 1287
f 1302 1285 1303
f 1288 1305 1304
f 1303 1288 1304
f 1287 1288 1303
f 1305 1288 1289
f 1305 1289 1306
f 1306 1289 1290
f 1309 1308 1307
f 1307 1308 1296
f 1295 1307 1296
f 1310 1307 1295
f 1164 1310 1163
f 1310 1297 1163
f 1310 1295 1297
f 1163 1297 1158
f 1299 1166 1161
f 1166 1299 1168
f 1299 1311 1168
f 1299 1301 1311
f 1312 1301 1302
f 1311 1301 1312
f 1313 1302 1303
f 1312 1302 1313
f 1303 1304 1314
f 1315 1303 1314
f 1313 1303 1315
f 1316 1315 1314
f 1309 1307 1317
f 1309 1317 1318
f 1319 1307 1310
f 1317 1307 1319
f 1170 1319 1164
f 1164 1319 1310
f 1320 1171 1311
f 1311 1171 1168
f 1321 1311 1312
f 1320 1311 1321
f 1322 1312 1313
f 1321 1312 1322
f 1323 1313 1315
f 1322 1313 1323
f 1315 1316 1324
f 1315 1324 1323
f 1318 1317 1325
f 1318 1325 1326
f 1174 1325 1173
f 1325 1319 1173
f 1325 1317 1319
f 1173 1319 1170
f 1327 1176 1320
f 1320 1176 1171
f 1179 1327 1178
f 1327 1321 1178
f 1327 1320 1321
f 1178 1321 1180
f 1321 1328 1180
f 1321 1322 1328
f 1329 1322 1323
f 1328 1322 1329
f 1323 1324 1330
f 1323 1330 1329
f 1331 1326 1325
f 1333 1331 1332
f 1332 1331 1181
f 1331 1325 1181
f 1325 1174 1181
f 1182 1332 1181
f 1327 1183 1176
f 1183 1327 1179
f 1328 1186 1180
f 1186 1328 1189
f 1189 1328 1329
f 1335 1334 1190
f 1335 1190 1189
f 1330 1335 1189
f 1329 1330 1189
f 1336 1334 1335
f 1339 1338 1337
f 1341 1340 1337
f 1341 1337 1338
f 1343 1342 1340
f 1343 1340 1341
f 1345 1344 1342
f 1345 1342 1343
f 1347 1346 1344
f 1347 1344 1345
f 1349 1348 1346
f 1349 1346 1347
f 1348 1349 1333
f 1332 1348 1333
f 1350 1348 1332
f 1192 1350 1182
f 1182 1350 1332
f 1351 1196 1334
f 1334 1196 1190
f 1334 1336 1352
f 1353 1334 1352
f 1351 1334 1353
f 1354 1353 1352
f 1339 1337 1355
f 1339 1355 1356
f 1357 1337 1340
f 1355 1337 1357
f 1358 1340 1342
f 1357 1340 1358
f 1359 1342 1344
f 1358 1342 1359
f 1360 1344 1346
f 1359 1344 1360
f 1361 1346 1348
f 1360 1346 1361
f 1362 1348 1350
f 1361 1348 1362
f 1198 1362 1192
f 1192 1362 1350
f 1351 1202 1196
f 1202 1351 1204
f 1351 1363 1204
f 1351 1353 1363
f 1353 1354 1364
f 1353 1364 1363
f 1356 1355 1365
f 1356 1365 1366
f 1367 1355 1357
f 1365 1355 1367
f 1368 1357 1358
f 1367 1357 1368
f 1207 1368 1206
f 1368 1359 1206
f 1368 1358 1359
f 1206 1359 1209
f 1209 1359 1360
f 1209 1360 1210
f 1210 1360 1361
f 1210 1361 1211
f 1211 1361 1362
f 1211 1362 1198
f 1363 1215 1204
f 1217 1215 1363
f 1364 1217 1363
f 1369 1217 1364
f 1366 1365 1370
f 1366 1370 1371
f 1372 1365 1367
f 1370 1365 1372
f 1373 1367 1368
f 1372 1367 1373
f 1218 1373 1207
f 1207 1373 1368
f 1369 1374 1217
f 1217 1374 1220
f 1376 1375 1221
f 1220 1376 1221
f 1374 1376 1220
f 1375 1376 1371
f 1370 1375 1371
f 1377 1375 1370
f 1378 1370 1372
f 1377 1370 1378
f 1224 1378 1223
f 1378 1373 1223
f 1378 1372 1373
f 1223 1373 1218
f 1379 1226 1375
f 1375 1226 1221
f 1380 1375 1377
f 1379 1375 1380
f 1381 1377 1378
f 1380 1377 1381
f 1228 1381 1224
f 1224 1381 1378
f 1379 1229 1226
f 1229 1379 1230
f 1230 1379 1380
f 1230 1380 1231
f 1380 1382 1231
f 1380 1381 1382
f 1232 1382 1228
f 1228 1382 1381
f 1382 1233 1231
f 1233 1382 1232
f 1383 1234 1235
f 1236 1383 1235
f 1385 1384 1383
f 1384 1234 1383
f 1384 1237 1234
f 1383 1236 1385
f 1236 1386 1385
f 1236 1238 1386
f 1387 1240 1241
f 1388 1387 1241
f 1237 1388 1241
f 1384 1388 1237
f 1242 1386 1238
f 1242 1389 1386
f 1390 1244 1245
f 1240 1387 1245
f 1387 1390 1245
f 1387 1391 1390
f 1392 1247 1248
f 1387 1392 1248
f 1391 1387 1248
f 1392 1387 1388
f 1242 1247 1389
f 1389 1247 1392
f 1390 1250 1244
f 1390 1391 1393
f 1251 1390 1393
f 1394 1251 1393
f 1390 1251 1250
f 1396 1393 1395
f 1395 1393 1252
f 1393 1391 1252
f 1391 1248 1252
f 1253 1395 1252
f 1397 1254 1255
f 1257 1397 1255
f 1394 1258 1251
f 1398 1258 1394
f 1399 1396 1395
f 1399 1395 1253
f 1259 1399 1253
f 1400 1399 1259
f 1259 1260 1400
f 1400 1260 1401
f 1402 1262 1263
f 1264 1403 1263
f 1263 1403 1402
f 1254 1397 1264
f 1397 1403 1264
f 1397 1404 1403
f 1266 1404 1257
f 1257 1404 1397
f 1398 1269 1258
f 1405 1269 1398
f 1408 1407 1406
f 1409 1406 1270
f 1406 1401 1270
f 1401 1260 1270
f 1401 1406 1407
f 1271 1409 1270
f 1410 1275 1276
f 1410 1276 1411
f 1276 1412 1411
f 1276 1277 1412
f 1277 1262 1402
f 1413 1277 1402
f 1412 1277 1413
f 1415 1414 1413
f 1402 1415 1413
f 1403 1415 1402
f 1416 1403 1404
f 1415 1403 1416
f 1279 1416 1266
f 1266 1416 1404
f 1418 1281 1417
f 1281 1405 1417
f 1281 1269 1405
f 1420 1419 1418
f 1420 1418 1417
f 1419 1420 1408
f 1419 1408 1406
f 1284 1419 1406
f 1283 1284 1406
f 1283 1406 1286
f 1286 1406 1409
f 1286 1409 1271
f 1421 1290 1291
f 1292 1422 1291
f 1291 1422 1421
f 1422 1292 1423
f 1292 1424 1423
f 1292 1293 1424
f 1426 1424 1425
f 1424 1294 1425
f 1424 1293 1294
f 1275 1410 1294
f 1410 1425 1294
f 1410 1427 1425
f 1410 1411 1428
f 1429 1410 1428
f 1427 1410 1429
f 1430 1429 1428
f 1414 1415 1431
f 1414 1431 1432
f 1433 1415 1416
f 1431 1415 1433
f 1296 1433 1279
f 1279 1433 1416
f 1418 1298 1281
f 1298 1418 1300
f 1300 1418 1419
f 1300 1419 1284
f 1434 1304 1305
f 1306 1435 1305
f 1305 1435 1434
f 1290 1421 1306
f 1421 1435 1306
f 1421 1436 1435
f 1437 1421 1422
f 1436 1421 1437
f 1422 1423 1438
f 1422 1438 1437
f 1426 1425 1439
f 1426 1439 1440
f 1441 1425 1427
f 1439 1425 1441
f 1442 1427 1429
f 1441 1427 1442
f 1429 1430 1443
f 1429 1443 1442
f 1432 1431 1444
f 1432 1444 1445
f 1309 1444 1308
f 1444 1433 1308
f 1444 1431 1433
f 1308 1433 1296
f 1434 1314 1304
f 1314 1434 1316
f 1434 1446 1316
f 1434 1435 1446
f 1447 1435 1436
f 1446 1435 1447
f 1437 1449 1448
f 1447 1437 1448
f 1436 1437 1447
f 1449 1437 1438
f 1440 1439 1450
f 1440 1450 1451
f 1452 1439 1441
f 1450 1439 1452
f 1453 1441 1442
f 1452 1441 1453
f 1442 1443 1454
f 1442 1454 1453
f 1445 1444 1455
f 1445 1455 1456
f 1318 1455 1309
f 1309 1455 1444
f 1457 1324 1446
f 1446 1324 1316
f 1458 1446 1447
f 1457 1446 1458
f 1447 1448 1459
f 1460 1447 1459
f 1458 1447 1460
f 1462 1461 1460
f 1462 1460 1459
f 1461 1462 1451
f 1450 1461 1451
f 1463 1461 1450
f 1464 1450 1452
f 1463 1450 1464
f 1465 1452 1453
f 1464 1452 1465
f 1453 1454 1466
f 1467 1453 1466
f 1465 1453 1467
f 1467 1466 1456
f 1455 1467 1456
f 1468 1467 1455
f 1326 1468 1318
f 1318 1468 1455
f 1469 1330 1457
f 1457 1330 1324
f 1470 1457 1458
f 1469 1457 1470
f 1471 1458 1460
f 1470 1458 1471
f 1472 1460 1461
f 1471 1460 1472
f 1473 1461 1463
f 1472 1461 1473
f 1474 1463 1464
f 1473 1463 1474
f 1475 1464 1465
f 1474 1464 1475
f 1476 1465 1467
f 1475 1465 1476
f 1477 1467 1468
f 1476 1467 1477
f 1331 1478 1326
f 1478 1468 1326
f 1478 1477 1468
f 1333 1478 1331
f 1469 1335 1330
f 1335 1469 1336
f 1469 1479 1336
f 1469 1470 1479
f 1480 1470 1471
f 1479 1470 1480
f 1481 1471 1472
f 1480 1471 1481
f 1339 1481 1338
f 1481 1473 1338
f 1481 1472 1473
f 1338 1473 1341
f 1341 1473 1474
f 1341 1474 1343
f 1343 1474 1475
f 1343 1475 1345
f 1345 1475 1476
f 1345 1476 1347
f 1347 1476 1477
f 1347 1477 1349
f 1349 1477 1478
f 1349 1478 1333
f 1479 1352 1336
f 1352 1479 1354
f 1479 1482 1354
f 1479 1480 1482
f 1483 1480 1481
f 1482 1480 1483
f 1356 1483 1339
f 1339 1483 1481
f 1484 1364 1482
f 1482 1364 1354
f 1485 1482 1483
f 1484 1482 1485
f 1366 1485 1356
f 1356 1485 1483
f 1486 1369 1484
f 1484 1369 1364
f 1487 1484 1485
f 1486 1484 1487
f 1371 1487 1366
f 1366 1487 1485
f 1486 1374 1369
f 1374 1486 1376
f 1376 1486 1487
f 1376 1487 1371
f 1488 1384 1385
f 1386 1488 1385
f 1489 1388 1488
f 1488 1388 1384
f 1389 1489 1386
f 1386 1489 1488
f 1489 1392 1388
f 1392 1489 1389
f 1490 1394 1393
f 1492 1490 1491
f 1490 1393 1491
f 1396 1493 1491
f 1396 1491 1393
f 1493 1494 1491
f 1495 1398 1490
f 1490 1398 1394
f 1493 1396 1399
f 1495 1492 1496
f 1492 1495 1490
f 1497 1494 1493
f 1399 1497 1493
f 1400 1497 1399
f 1400 1401 1497
f 1497 1401 1498
f 1499 1405 1495
f 1495 1405 1398
f 1495 1496 1500
f 1501 1495 1500
f 1499 1495 1501
f 1407 1408 1501
f 1500 1407 1501
f 1502 1407 1500
f 1401 1407 1498
f 1498 1407 1502
f 1503 1411 1412
f 1413 1504 1412
f 1412 1504 1503
f 1414 1504 1413
f 1499 1417 1405
f 1417 1499 1420
f 1420 1499 1501
f 1420 1501 1408
f 1505 1423 1424
f 1426 1505 1424
f 1503 1428 1411
f 1428 1503 1430
f 1503 1506 1430
f 1503 1504 1506
f 1432 1506 1414
f 1414 1506 1504
f 1507 1438 1505
f 1505 1438 1423
f 1440 1507 1426
f 1426 1507 1505
f 1508 1443 1506
f 1506 1443 1430
f 1445 1508 1432
f 1432 1508 1506
f 1509 1448 1449
f 1438 1507 1449
f 1507 1509 1449
f 1507 1510 1509
f 1451 1510 1440
f 1440 1510 1507
f 1511 1454 1508
f 1508 1454 1443
f 1456 1511 1445
f 1445 1511 1508
f 1509 1459 1448
f 1459 1509 1462
f 1462 1509 1510
f 1462 1510 1451
f 1511 1466 1454
f 1466 1511 1456
f 1513 1512 1491
f 1491 1512 1492
f 1491 1494 1513
f 1513 1494 1514
f 1512 1496 1492
f 1515 1496 1512
f 1516 1514 1494
f 1516 1494 1497
f 1497 1498 1516
f 1516 1498 1517
f 1515 1518 1496
f 1496 1518 1500
f 1500 1519 1502
f 1518 1519 1500
f 1498 1502 1517
f 1517 1502 1519
f 1520 1512 1513
f 1514 1520 1513
f 1521 1515 1520
f 1520 1515 1512
f 1521 1520 1514
f 1522 1521 1514
f 1516 1522 1514
f 1523 1521 1522
f 1516 1517 1522
f 1522 1517 1524
f 1521 1518 1515
f 1523 1525 1521
f 1525 1518 1521
f 1525 1519 1518
f 1517 1519 1524
f 1524 1519 1525
f 1526 1523 1522
f 1524 1526 1522
f 1526 1525 1523
f 1525 1526 1524
