v -40.2 21.0 -1.0
v -40.0 21.0 -1.2
v -40.0 20.8 -1.0
v -40.0 20.8 0.0
v -40.2 21.0 0.0
v -40.0 21.0 0.2
v -40.2 22.0 -1.0
v -40.0 22.0 -1.2
v -40.2 22.0 0.0
v -40.0 22.0 0.3
v -40.0 22.2 -1.0
v -40.0 22.3 0.0
v -39.1 20.0 -1.0
v -39.0 20.0 -1.1
v -39.0 19.9 -1.0
v -39.0 20.0 -0.8
v -39.0 21.0 -1.5
v -39.0 20.4 0.0
v -39.0 21.0 0.6
v -39.0 22.0 -1.4
v -39.0 21.5 1.0
v -39.3 22.0 1.0
v -39.0 22.0 1.3
v -39.0 22.4 -1.0
v -39.3 23.0 0.0
v -39.0 23.0 -0.3
v -39.2 23.0 1.0
v -39.0 23.0 1.3
v -39.0 23.3 0.0
v -39.0 23.2 1.0
v -38.3 19.0 0.0
v -38.0 19.0 -0.4
v -38.0 18.8 0.0
v -38.0 18.8 1.0
v -38.2 19.0 1.0
v -38.0 19.0 1.4
v -38.0 20.0 -1.4
v -38.0 19.5 -1.0
v -38.7 20.0 0.0
v -38.5 20.0 1.0
v -38.0 19.8 2.0
v -38.1 20.0 2.0
v -38.0 20.0 2.1
v -38.0 21.0 -1.5
v -38.6 21.0 1.0
v -38.0 21.0 1.7
v -38.0 20.3 2.0
v -38.0 22.0 -1.4
v -38.0 22.0 1.7
v -38.0 22.6 -1.0
v -38.0 23.0 -0.7
v -38.0 22.5 2.0
v -38.3 23.0 2.0
v -38.0 23.0 2.3
v -38.2 24.0 0.0
v -38.0 24.0 -0.1
v -38.0 24.0 1.0
v -38.2 24.0 2.0
v -38.0 24.0 2.2
v -38.0 24.1 0.0
v -38.0 24.3 1.0
v -38.0 24.3 2.0
v -37.4 19.0 -1.0
v -37.0 19.0 -1.2
v -37.0 18.8 -1.0
v -37.0 18.5 0.0
v -37.0 18.5 1.0
v -37.0 18.6 2.0
v -37.5 19.0 2.0
v -37.0 19.0 3.0
v -37.0 19.0 3.0
v -37.0 19.0 3.0
v -37.0 20.0 -1.5
v -37.0 19.1 3.0
v -37.0 20.0 2.8
v -37.0 21.0 -1.6
v -37.7 21.0 2.0
v -37.0 20.5 3.0
v -37.2 21.0 3.0
v -37.0 21.0 3.2
v -37.0 22.0 -1.5
v -37.7 22.0 2.0
v -37.0 22.0 2.8
v -37.0 21.4 3.0
v -37.5 23.0 -1.0
v -37.0 23.0 -1.3
v -37.0 22.4 3.0
v -37.3 23.0 3.0
v -37.0 23.0 3.3
v -37.0 23.5 -1.0
v -37.0 24.0 -0.6
v -37.5 24.0 3.0
v -37.0 24.0 3.5
v -37.0 24.6 0.0
v -37.8 25.0 1.0
v -37.0 25.0 0.4
v -37.6 25.0 2.0
v -37.3 25.0 3.0
v -37.0 25.0 3.4
v -37.0 25.5 1.0
v -37.1 26.0 2.0
v -37.0 26.0 1.8
v -37.0 26.0 2.2
v -37.0 25.4 3.0
v -37.0 26.1 2.0
v -36.0 19.0 -1.3
v -36.0 18.7 -1.0
v -36.0 18.5 0.0
v -36.0 18.5 1.0
v -36.0 18.5 2.0
v -36.0 18.8 3.0
v -36.0 19.0 3.2
v -36.0 20.0 -1.6
v -36.8 20.0 3.0
v -36.0 20.0 3.6
v -36.0 21.0 -1.9
v -36.0 20.7 4.0
v -36.2 21.0 4.0
v -36.0 21.0 4.2
v -36.0 22.0 -1.6
v -36.8 22.0 3.0
v -36.0 22.0 3.7
v -36.0 21.4 4.0
v -36.0 23.0 -1.5
v -36.0 23.0 3.7
v -36.4 24.0 -1.0
v -36.0 24.0 -1.3
v -36.0 23.4 4.0
v -36.4 24.0 4.0
v -36.0 24.0 4.4
v -36.0 24.3 -1.0
v -36.5 25.0 0.0
v -36.0 25.0 -0.4
v -36.5 25.0 4.0
v -36.0 25.0 4.5
v -36.0 25.4 0.0
v -36.0 25.8 1.0
v -36.0 26.0 1.3
v -36.6 26.0 3.0
v -36.2 26.0 4.0
v -36.0 26.0 4.3
v -36.1 27.0 2.0
v -36.0 27.0 1.9
v -36.0 27.0 2.1
v -36.0 26.6 3.0
v -36.0 26.2 4.0
v -36.0 27.1 2.0
v -35.0 19.0 -1.3
v -35.0 18.7 -1.0
v -35.0 18.5 0.0
v -35.0 18.5 1.0
v -35.0 18.6 2.0
v -35.6 19.0 3.0
v -35.0 19.0 2.6
v -35.0 20.0 -1.5
v -35.0 19.3 3.0
v -35.0 19.7 4.0
v -35.5 20.0 4.0
v -35.0 20.0 4.4
v -35.0 21.0 -1.6
v -35.0 20.6 5.0
v -35.3 21.0 5.0
v -35.0 21.0 5.4
v -35.0 22.0 -1.4
v -35.7 22.0 4.0
v -35.4 22.0 5.0
v -35.0 22.0 5.6
v -35.0 23.0 -1.5
v -35.8 23.0 4.0
v -35.5 23.0 5.0
v -35.0 22.4 6.0
v -35.4 23.0 6.0
v -35.0 22.9 7.0
v -35.1 23.0 7.0
v -35.0 23.0 7.1
v -35.0 24.0 -1.4
v -35.6 24.0 5.0
v -35.4 24.0 6.0
v -35.0 24.0 6.6
v -35.0 23.2 7.0
v -35.0 24.5 -1.0
v -35.0 25.0 -0.6
v -35.6 25.0 5.0
v -35.4 25.0 6.0
v -35.0 25.0 6.5
v -35.3 26.0 0.0
v -35.0 26.0 -0.2
v -35.7 26.0 1.0
v -35.5 26.0 5.0
v -35.2 26.0 6.0
v -35.0 26.0 6.3
v -35.0 26.2 0.0
v -35.0 26.6 1.0
v -35.0 27.0 1.4
v -35.5 27.0 3.0
v -35.0 27.0 3.6
v -35.0 26.7 4.0
v -35.0 26.5 5.0
v -35.0 26.2 6.0
v -35.0 27.4 2.0
v -35.0 27.4 3.0
v -34.0 19.0 -1.3
v -34.0 18.7 -1.0
v -34.0 18.5 0.0
v -34.0 18.5 1.0
v -34.0 18.6 2.0
v -34.0 19.0 2.5
v -34.0 20.0 -1.5
v -34.0 19.4 3.0
v -34.0 19.5 4.0
v -34.0 19.9 5.0
v -34.2 20.0 5.0
v -34.0 20.0 5.2
v -34.0 21.0 -1.4
v -34.0 20.7 6.0
v -34.4 21.0 6.0
v -34.0 21.0 6.4
v -34.0 21.8 -1.0
v -34.2 22.0 -1.0
v -34.0 22.0 -0.9
v -34.7 22.0 6.0
v -34.0 21.5 7.0
v -34.4 22.0 7.0
v -34.0 22.0 7.5
v -34.0 23.0 -1.3
v -34.0 22.2 -1.0
v -34.0 22.5 8.0
v -34.4 23.0 8.0
v -34.0 23.0 8.5
v -34.0 24.0 -1.4
v -34.7 24.0 7.0
v -34.5 24.0 8.0
v -34.0 23.7 9.0
v -34.2 24.0 9.0
v -34.0 24.0 9.2
v -34.0 24.5 -1.0
v -34.0 25.0 -0.6
v -34.6 25.0 7.0
v -34.4 25.0 8.0
v -34.0 25.0 8.8
v -34.0 24.5 9.0
v -34.0 26.0 -0.4
v -34.5 26.0 7.0
v -34.5 26.0 8.0
v -34.0 25.3 9.0
v -34.3 26.0 9.0
v -34.0 26.0 9.8
v -34.1 26.0 11.0
v -34.0 26.0 10.6
v -34.0 25.9 11.0
v -34.0 26.0 11.1
v -34.0 26.4 0.0
v -34.5 27.0 1.0
v -34.0 27.0 0.6
v -34.7 27.0 4.0
v -34.4 27.0 5.0
v -34.0 27.0 5.5
v -34.0 26.7 6.0
v -34.0 26.5 7.0
v -34.3 27.0 8.0
v -34.0 27.0 7.7
v -34.6 27.0 9.0
v -34.0 26.2 10.0
v -34.8 27.0 10.0
v -34.2 27.0 11.0
v -34.0 27.0 11.2
v -34.0 27.4 1.0
v -34.0 27.7 2.0
v -34.4 28.0 3.0
v -34.0 28.0 2.5
v -34.3 28.0 4.0
v -34.0 28.0 4.4
v -34.0 27.5 5.0
v -34.0 27.3 8.0
v -34.6 28.0 9.0
v -34.0 28.0 8.7
v -34.0 28.0 9.4
v -34.0 27.6 10.0
v -34.0 27.2 11.0
v -34.0 28.4 3.0
v -34.0 28.3 4.0
v -34.0 28.3 9.0
v -33.0 19.0 -1.3
v -33.0 18.7 -1.0
v -33.0 18.5 0.0
v -33.0 18.5 1.0
v -33.0 18.7 2.0
v -33.0 19.0 2.4
v -33.0 20.0 -1.5
v -33.0 19.4 3.0
v -33.0 19.7 4.0
v -33.7 20.0 5.0
v -33.0 20.0 4.5
v -33.0 21.0 -1.4
v -33.0 20.3 5.0
v -33.0 20.5 6.0
v -33.0 20.7 7.0
v -33.4 21.0 7.0
v -33.0 21.0 7.5
v -33.0 21.5 -1.0
v -33.0 22.0 -0.6
v -33.0 21.4 8.0
v -33.6 22.0 8.0
v -33.0 21.5 9.0
v -33.4 22.0 9.0
v -33.0 21.7 10.0
v -33.2 22.0 10.0
v -33.0 22.0 10.3
v -33.5 23.0 -1.0
v -33.0 23.0 -0.7
v -33.7 23.0 9.0
v -33.4 23.0 10.0
v -33.0 23.0 10.7
v -33.1 23.0 13.0
v -33.0 23.0 12.8
v -33.0 22.9 13.0
v -33.0 23.0 13.1
v -33.0 24.0 -1.1
v -33.0 23.8 -1.0
v -33.6 24.0 10.0
v -33.0 23.3 11.0
v -33.4 24.0 11.0
v -33.0 23.4 12.0
v -33.4 24.0 12.0
v -33.2 24.0 13.0
v -33.0 24.0 13.2
v -33.0 24.2 -1.0
v -33.0 25.0 -0.6
v -33.8 25.0 9.0
v -33.6 25.0 10.0
v -33.6 25.0 11.0
v -33.3 25.0 12.0
v -33.0 25.0 12.4
v -33.0 24.3 13.0
v -33.0 26.0 -0.4
v -33.9 26.0 10.0
v -33.0 25.5 12.0
v -33.0 26.0 11.7
v -33.0 26.5 0.0
v -33.0 27.0 0.4
v -33.6 27.0 6.0
v -33.0 27.0 6.8
v -33.0 26.9 7.0
v -33.0 27.0 7.1
v -33.0 27.0 11.4
v -33.3 28.0 1.0
v -33.0 28.0 0.8
v -33.7 28.0 2.0
v -33.5 28.0 5.0
v -33.0 28.0 5.5
v -33.0 27.5 6.0
v -33.0 27.7 8.0
v -33.0 28.0 8.3
v -33.5 28.0 10.0
v -33.0 28.0 10.4
v -33.0 27.5 11.0
v -33.0 28.2 1.0
v -33.0 28.6 2.0
v -33.3 29.0 3.0
v -33.0 29.0 2.6
v -33.3 29.0 4.0
v -33.0 29.0 4.4
v -33.0 28.5 5.0
v -33.3 29.0 9.0
v -33.0 29.0 8.7
v -33.0 29.0 9.4
v -33.0 28.5 10.0
v -33.0 29.3 3.0
v -33.0 29.3 4.0
v -33.0 30.0 9.0
v -33.0 30.0 9.0
v -33.0 30.0 9.0
v -33.0 30.0 9.0
v -32.0 19.0 -1.2
v -32.0 18.8 -1.0
v -32.0 18.5 0.0
v -32.0 18.6 1.0
v -32.5 19.0 2.0
v -32.0 19.0 1.6
v -32.0 20.0 -1.4
v -32.0 19.3 2.0
v -32.0 19.6 3.0
v -32.3 20.0 4.0
v -32.0 20.0 3.8
v -32.0 21.0 -1.2
v -32.0 20.2 4.0
v -32.0 20.5 5.0
v -32.0 20.5 6.0
v -32.0 20.4 7.0
v -32.0 20.5 8.0
v -32.6 21.0 8.0
v -32.0 20.5 9.0
v -32.5 21.0 9.0
v -32.0 20.7 10.0
v -32.3 21.0 10.0
v -32.0 21.0 10.3
v -32.0 21.3 -1.0
v -32.0 22.0 -0.6
v -32.0 21.5 11.0
v -32.5 22.0 11.0
v -32.0 21.6 12.0
v -32.4 22.0 12.0
v -32.0 21.6 13.0
v -32.4 22.0 13.0
v -32.0 21.8 14.0
v -32.2 22.0 14.0
v -32.0 22.0 14.2
v -32.0 23.0 -0.4
v -32.8 23.0 11.0
v -32.7 23.0 12.0
v -32.3 23.0 14.0
v -32.0 23.0 14.3
v -32.8 24.0 -1.0
v -32.0 24.0 -0.5
v -32.0 23.4 14.0
v -32.0 24.0 13.7
v -32.0 25.0 -0.4
v -32.4 25.0 13.0
v -32.0 25.0 13.3
v -32.0 26.0 -0.3
v -32.6 26.0 12.0
v -32.0 26.0 12.5
v -32.0 25.4 13.0
v -32.0 26.4 0.0
v -32.0 27.0 0.5
v -32.9 27.0 7.0
v -32.0 26.5 12.0
v -32.0 27.0 11.6
v -32.0 28.0 0.8
v -32.5 28.0 6.0
v -32.0 28.0 6.7
v -32.0 27.8 7.0
v -32.6 28.0 8.0
v -32.0 28.0 7.3
v -32.0 27.7 11.0
v -32.0 28.0 10.7
v -32.0 28.3 1.0
v -32.4 29.0 2.0
v -32.0 29.0 1.7
v -32.5 29.0 5.0
v -32.0 29.0 5.5
v -32.0 28.5 6.0
v -32.0 28.5 8.0
v -32.0 29.0 8.4
v -32.6 29.0 10.0
v -32.0 29.0 10.4
v -32.0 29.3 2.0
v -32.0 29.5 3.0
v -32.0 29.6 4.0
v -32.0 29.4 5.0
v -32.0 30.0 8.6
v -32.3 30.0 10.0
v -32.0 30.0 10.2
v -32.0 31.0 9.0
v -32.0 31.0 9.0
v -32.0 31.0 9.0
v -32.0 30.3 10.0
v -32.0 31.0 9.0
v -31.7 19.0 -1.0
v -31.0 19.0 -0.3
v -31.0 18.7 0.0
v -31.0 18.6 1.0
v -31.0 19.0 1.5
v -31.5 20.0 -1.0
v -31.0 20.0 -0.6
v -31.0 19.4 2.0
v -31.0 19.5 3.0
v -31.0 19.7 4.0
v -31.7 20.0 4.0
v -31.0 20.0 4.5
v -31.4 20.0 7.0
v -31.0 20.0 6.5
v -31.0 19.7 7.0
v -31.0 19.6 8.0
v -31.5 20.0 8.0
v -31.0 19.7 9.0
v -31.4 20.0 9.0
v -31.0 20.0 9.5
v -31.7 21.0 -1.0
v -31.0 21.0 -0.6
v -31.0 20.3 5.0
v -31.0 20.3 6.0
v -31.0 20.4 10.0
v -31.0 21.0 10.7
v -31.0 22.0 -0.4
v -31.0 21.2 11.0
v -31.0 21.4 12.0
v -31.0 21.4 13.0
v -31.0 21.6 14.0
v -31.0 22.0 14.4
v -31.0 22.7 0.0
v -31.3 23.0 0.0
v -31.0 23.0 0.2
v -31.0 23.0 14.5
v -31.5 24.0 0.0
v -31.0 24.0 0.4
v -31.3 24.0 14.0
v -31.0 24.0 14.2
v -31.4 25.0 0.0
v -31.0 25.0 0.3
v -31.0 24.2 14.0
v -31.0 25.0 13.6
v -31.0 26.0 -0.0
v -31.0 25.9 0.0
v -31.4 26.0 13.0
v -31.0 26.0 13.3
v -31.0 26.0 0.0
v -31.3 27.0 1.0
v -31.0 26.7 1.0
v -31.0 27.0 1.2
v -31.5 27.0 12.0
v -31.0 27.0 12.4
v -31.0 26.3 13.0
v -31.7 28.0 1.0
v -31.0 28.0 1.4
v -31.8 28.0 7.0
v -31.6 28.0 11.0
v -31.0 28.0 11.4
v -31.0 27.4 12.0
v -31.0 29.0 1.6
v -31.5 29.0 6.0
v -31.0 29.0 6.6
v -31.0 28.7 7.0
v -31.0 28.8 8.0
v -31.0 29.0 8.2
v -31.0 28.5 11.0
v -31.0 29.0 10.7
v -31.0 29.4 2.0
v -31.0 29.7 3.0
v -31.4 30.0 4.0
v -31.0 30.0 3.5
v -31.3 30.0 5.0
v -31.0 30.0 5.4
v -31.0 29.5 6.0
v -31.0 30.0 8.4
v -31.0 30.0 10.4
v -31.0 30.3 4.0
v -31.0 30.3 5.0
v -31.0 31.0 8.7
v -31.0 30.5 10.0
v -31.0 31.0 9.3
v -31.0 31.2 9.0
v -30.6 19.0 0.0
v -30.0 19.0 0.8
v -30.0 18.9 1.0
v -30.0 19.0 1.2
v -30.0 20.0 -0.3
v -30.0 19.6 0.0
v -30.0 19.4 2.0
v -30.0 19.5 3.0
v -30.0 19.6 4.0
v -30.0 19.6 5.0
v -30.6 20.0 5.0
v -30.0 19.6 6.0
v -30.6 20.0 6.0
v -30.0 19.5 7.0
v -30.0 19.5 8.0
v -30.0 19.5 9.0
v -30.0 19.6 10.0
v -30.6 20.0 10.0
v -30.0 19.8 11.0
v -30.3 20.0 11.0
v -30.0 20.0 11.4
v -30.0 21.0 -0.4
v -30.8 21.0 11.0
v -30.0 20.4 12.0
v -30.6 21.0 12.0
v -30.0 20.5 13.0
v -30.5 21.0 13.0
v -30.0 20.8 14.0
v -30.3 21.0 14.0
v -30.0 21.0 14.2
v -30.0 22.0 -0.4
v -30.0 22.0 14.5
v -30.0 22.6 0.0
v -30.0 23.0 0.2
v -30.0 23.0 14.4
v -30.0 24.0 0.4
v -30.7 24.0 14.0
v -30.0 23.6 14.0
v -30.0 24.0 13.7
v -30.0 25.0 0.5
v -30.0 25.0 13.5
v -31.0 26.0 0.0
v -30.0 25.9 1.0
v -30.1 26.0 1.0
v -30.0 26.0 1.1
v -30.0 26.0 13.3
v -30.0 27.0 1.3
v -30.0 26.3 13.0
v -30.0 27.0 12.4
v -30.0 28.0 1.4
v -30.0 27.4 12.0
v -30.0 28.0 11.5
v -30.0 29.0 1.6
v -30.7 29.0 7.0
v -30.8 29.0 8.0
v -30.2 29.0 11.0
v -30.0 29.0 11.1
v -30.0 29.5 2.0
v -30.5 30.0 3.0
v -30.0 30.0 2.6
v -30.4 30.0 6.0
v -30.0 30.0 6.5
v -30.0 29.7 7.0
v -30.5 30.0 8.0
v -30.0 30.0 7.4
v -30.0 29.1 11.0
v -30.0 30.0 10.3
v -30.0 30.3 3.0
v -30.0 30.5 4.0
v -30.0 30.5 5.0
v -30.0 30.3 6.0
v -30.2 31.0 8.0
v -30.0 31.0 7.8
v -30.0 30.4 10.0
v -30.0 31.0 9.3
v -30.0 31.2 8.0
v -30.0 31.2 9.0
v -29.9 19.0 1.0
v -29.7 20.0 0.0
v -29.0 20.0 0.7
v -29.0 19.7 1.0
v -29.0 19.6 2.0
v -29.0 19.6 3.0
v -29.2 20.0 4.0
v -29.0 20.0 3.8
v -29.0 20.0 4.3
v -29.0 19.7 5.0
v -29.0 19.5 6.0
v -29.0 19.5 7.0
v -29.0 19.5 8.0
v -29.0 19.4 9.0
v -29.0 19.4 10.0
v -29.0 19.4 11.0
v -29.0 19.5 12.0
v -29.6 20.0 12.0
v -29.0 19.7 13.0
v -29.3 20.0 13.0
v -29.0 20.0 13.3
v -29.4 21.0 0.0
v -29.0 21.0 0.4
v -29.0 20.1 4.0
v -29.0 20.7 14.0
v -29.0 21.0 14.2
v -29.0 22.0 -0.3
v -29.0 21.5 0.0
v -29.0 22.0 14.4
v -29.6 23.0 0.0
v -29.0 23.0 -0.4
v -29.0 23.0 14.3
v -29.4 24.0 0.0
v -29.0 24.0 -0.3
v -29.0 23.3 14.0
v -29.0 24.0 13.6
v -29.0 24.5 0.0
v -29.0 25.0 0.3
v -29.0 25.0 13.3
v -29.9 26.0 1.0
v -29.0 26.0 0.5
v -29.6 26.0 13.0
v -29.0 25.4 13.0
v -29.0 26.0 12.5
v -29.6 27.0 1.0
v -29.0 27.0 0.5
v -29.5 27.0 12.0
v -29.0 26.5 12.0
v -29.0 27.0 11.6
v -29.4 28.0 1.0
v -29.0 28.0 0.7
v -29.3 28.0 11.0
v -29.0 27.7 11.0
v -29.0 28.0 10.8
v -29.0 28.4 1.0
v -29.0 29.0 1.5
v -29.8 29.0 11.0
v -29.0 29.0 10.5
v -29.0 29.5 2.0
v -29.0 30.0 2.7
v -29.0 29.7 7.0
v -29.0 30.0 6.5
v -29.0 30.0 7.3
v -29.5 30.0 10.0
v -29.0 29.6 10.0
v -29.0 30.0 9.6
v -29.0 30.2 3.0
v -29.0 30.4 4.0
v -29.0 30.4 5.0
v -29.0 30.2 6.0
v -29.0 31.0 7.8
v -29.6 31.0 9.0
v -29.0 30.6 9.0
v -29.0 31.0 8.4
v -29.0 31.2 8.0
v -28.2 19.0 9.0
v -28.0 19.0 8.9
v -28.0 18.9 9.0
v -28.0 18.6 10.0
v -28.5 19.0 10.0
v -28.0 18.6 11.0
v -28.5 19.0 11.0
v -28.0 18.8 12.0
v -28.3 19.0 12.0
v -28.0 19.0 12.3
v -28.8 20.0 1.0
v -28.6 20.0 2.0
v -28.2 20.0 3.0
v -28.5 20.0 5.0
v -28.0 20.0 5.4
v -28.0 19.6 6.0
v -28.0 19.6 7.0
v -28.0 19.5 8.0
v -28.0 19.6 13.0
v -28.0 20.0 13.4
v -28.5 21.0 1.0
v -28.4 21.0 2.0
v -28.2 21.0 3.0
v -28.0 20.6 4.0
v -28.0 21.0 3.3
v -28.0 20.3 5.0
v -28.7 21.0 14.0
v -28.0 21.0 13.6
v -28.6 22.0 0.0
v -28.0 22.0 0.6
v -28.0 21.6 1.0
v -28.0 21.4 2.0
v -28.0 21.2 3.0
v -28.5 22.0 14.0
v -28.0 22.0 13.6
v -28.0 23.0 -0.3
v -28.0 22.6 0.0
v -28.7 23.0 14.0
v -28.0 23.0 13.6
v -28.0 24.0 -0.5
v -28.0 24.0 13.3
v -28.6 25.0 0.0
v -28.0 25.0 -0.4
v -28.5 25.0 13.0
v -28.0 24.5 13.0
v -28.0 25.0 12.6
v -28.5 26.0 0.0
v -28.0 26.0 -0.4
v -28.4 26.0 12.0
v -28.0 25.7 12.0
v -28.0 26.0 11.7
v -28.4 27.0 0.0
v -28.0 27.0 -0.3
v -28.0 27.0 11.3
v -28.0 28.0 0.0
v -28.0 28.0 -0.0
v -28.0 27.4 11.0
v -28.0 28.0 10.5
v -28.0 28.0 0.0
v -28.0 28.5 1.0
v -28.0 29.0 1.7
v -28.0 29.0 10.2
v -28.0 29.3 2.0
v -28.7 30.0 3.0
v -28.0 29.5 3.0
v -28.5 30.0 4.0
v -28.0 29.5 4.0
v -28.5 30.0 5.0
v -28.0 29.5 5.0
v -28.7 30.0 6.0
v -28.0 29.4 6.0
v -28.0 29.2 7.0
v -28.0 30.0 7.5
v -28.0 29.3 10.0
v -28.0 30.0 9.3
v -28.0 30.9 8.0
v -28.1 31.0 8.0
v -28.0 30.3 9.0
v -27.8 19.0 9.0
v -27.0 19.0 9.4
v -27.0 18.6 10.0
v -27.0 18.6 11.0
v -27.0 18.8 12.0
v -27.0 19.0 12.3
v -27.0 20.0 6.0
v -27.0 20.0 6.0
v -27.6 20.0 7.0
v -27.0 20.0 6.0
v -27.5 20.0 8.0
v -27.0 20.0 8.5
v -27.0 19.4 9.0
v -27.0 19.7 13.0
v -27.0 20.0 13.2
v -27.6 21.0 4.0
v -27.0 21.0 4.7
v -27.0 20.7 5.0
v -27.3 21.0 7.0
v -27.0 21.0 6.6
v -27.3 21.0 8.0
v -27.0 21.0 8.3
v -27.0 21.0 13.4
v -27.6 22.0 1.0
v -27.5 22.0 2.0
v -27.5 22.0 3.0
v -27.3 22.0 4.0
v -27.0 22.0 4.4
v -27.0 21.5 7.0
v -27.0 22.0 8.0
v -27.0 22.0 8.0
v -27.0 22.0 8.0
v -27.0 22.0 13.4
v -27.6 23.0 0.0
v -27.0 23.0 0.6
v -27.0 22.7 1.0
v -27.0 22.5 2.0
v -27.0 22.5 3.0
v -27.0 22.4 4.0
v -27.0 22.0 8.0
v -27.0 23.0 13.2
v -27.0 24.0 -0.2
v -27.0 23.6 0.0
v -27.5 24.0 13.0
v -27.0 23.4 13.0
v -27.0 24.0 12.6
v -27.0 25.0 -0.4
v -27.0 25.0 12.3
v -27.0 26.0 -0.4
v -27.0 25.3 12.0
v -27.0 26.0 11.4
v -27.0 27.0 -0.3
v -27.6 27.0 11.0
v -27.0 26.5 11.0
v -27.0 27.0 10.5
v -27.0 27.4 0.0
v -28.0 28.0 0.0
v -27.4 28.0 1.0
v -27.0 27.7 1.0
v -27.0 28.0 1.5
v -27.4 28.0 10.0
v -27.0 27.5 10.0
v -27.0 28.0 9.6
v -27.7 29.0 2.0
v -27.0 28.4 2.0
v -27.5 29.0 3.0
v -27.0 28.5 3.0
v -27.5 29.0 4.0
v -27.0 28.6 4.0
v -27.3 29.0 5.0
v -27.0 28.7 5.0
v -27.2 29.0 6.0
v -27.0 28.9 6.0
v -27.0 29.0 6.1
v -27.7 29.0 10.0
v -27.0 29.0 9.3
v -27.0 29.8 7.0
v -27.4 30.0 8.0
v -27.0 29.6 8.0
v -27.7 30.0 9.0
v -27.0 29.3 9.0
v -26.0 19.0 9.9
v -26.0 18.9 10.0
v -26.5 19.0 11.0
v -26.0 19.0 10.1
v -26.8 19.0 12.0
v -27.0 20.0 6.0
v -26.0 20.0 8.8
v -26.0 19.7 9.0
v -26.0 19.5 11.0
v -26.0 20.0 11.5
v -26.3 20.0 12.0
v -26.8 20.0 13.0
v -26.8 21.0 5.0
v -26.6 21.0 6.0
v -26.0 21.0 8.6
v -26.0 20.5 12.0
v -26.0 21.0 12.4
v -26.6 21.0 13.0
v -26.6 22.0 5.0
v -26.5 22.0 6.0
v -26.7 22.0 7.0
v -26.0 22.0 8.5
v -26.6 22.0 13.0
v -26.0 22.0 12.4
v -26.7 23.0 1.0
v -26.6 23.0 2.0
v -26.6 23.0 3.0
v -26.6 23.0 4.0
v -26.5 23.0 5.0
v -26.5 23.0 6.0
v -26.3 23.0 7.0
v -26.0 22.6 8.0
v -26.0 23.0 7.5
v -26.3 23.0 12.0
v -26.0 22.5 12.0
v -26.0 23.0 11.6
v -26.7 23.0 13.0
v -26.8 24.0 0.0
v -26.5 24.0 1.0
v -26.5 24.0 2.0
v -26.5 24.0 3.0
v -26.5 24.0 4.0
v -26.5 24.0 5.0
v -26.3 24.0 6.0
v -26.0 24.0 6.5
v -26.0 23.5 7.0
v -26.5 24.0 12.0
v -26.0 24.0 11.5
v -26.6 25.0 0.0
v -26.4 25.0 1.0
v -26.4 25.0 2.0
v -26.4 25.0 3.0
v -26.4 25.0 4.0
v -26.3 25.0 5.0
v -26.0 25.0 5.5
v -26.0 24.5 6.0
v -26.7 25.0 12.0
v -26.0 25.0 11.3
v -26.5 26.0 0.0
v -26.0 26.0 0.6
v -26.0 25.6 1.0
v -26.0 25.5 2.0
v -26.0 25.5 3.0
v -26.0 25.5 4.0
v -26.0 25.4 5.0
v -26.5 26.0 11.0
v -26.0 25.4 11.0
v -26.0 26.0 10.4
v -26.0 27.0 -0.0
v -26.0 27.0 0.0
v -26.5 27.0 10.0
v -26.0 26.4 10.0
v -26.0 27.0 9.4
v -26.0 27.0 0.0
v -26.0 27.3 1.0
v -26.6 28.0 2.0
v -26.0 27.4 2.0
v -26.4 28.0 3.0
v -26.0 27.6 3.0
v -26.0 28.0 3.6
v -26.4 28.0 9.0
v -26.0 27.5 9.0
v -26.0 28.0 8.5
v -26.0 28.3 4.0
v -26.1 29.0 5.0
v -26.0 29.0 5.0
v -26.7 29.0 6.0
v -26.4 29.0 8.0
v -26.0 28.5 8.0
v -26.0 29.0 7.4
v -26.7 29.0 9.0
v -26.0 29.0 5.0
v -26.0 29.2 6.0
v -26.0 29.3 7.0
v -25.9 19.0 10.0
v -25.8 20.0 9.0
v -25.5 20.0 10.0
v -25.7 20.0 11.0
v -25.7 21.0 9.0
v -25.5 21.0 10.0
v -25.5 21.0 11.0
v -25.7 21.0 12.0
v -25.6 22.0 9.0
v -25.5 22.0 10.0
v -25.5 22.0 11.0
v -25.7 22.0 12.0
v -25.7 23.0 8.0
v -25.5 23.0 9.0
v -25.5 23.0 10.0
v -25.6 23.0 11.0
v -25.7 24.0 7.0
v -25.5 24.0 8.0
v -25.5 24.0 9.0
v -25.5 24.0 10.0
v -25.6 24.0 11.0
v -25.7 25.0 6.0
v -25.5 25.0 7.0
v -25.5 25.0 8.0
v -25.5 25.0 9.0
v -25.5 25.0 10.0
v -25.7 25.0 11.0
v -25.7 26.0 1.0
v -25.6 26.0 2.0
v -25.6 26.0 3.0
v -25.6 26.0 4.0
v -25.6 26.0 5.0
v -25.5 26.0 6.0
v -25.5 26.0 7.0
v -25.5 26.0 8.0
v -25.5 26.0 9.0
v -25.7 26.0 10.0
v -26.0 27.0 0.0
v -25.7 27.0 1.0
v -25.6 27.0 2.0
v -25.6 27.0 3.0
v -25.5 27.0 4.0
v -25.5 27.0 5.0
v -25.5 27.0 6.0
v -25.5 27.0 7.0
v -25.5 27.0 8.0
v -25.7 27.0 9.0
v -25.7 28.0 4.0
v -25.5 28.0 5.0
v -25.5 28.0 6.0
v -25.5 28.0 7.0
v -25.7 28.0 8.0
v -26.0 29.0 5.0
v -25.8 29.0 6.0
v -25.8 29.0 7.0
f 3 2 1
f 5 4 1
f 1 4 3
f 5 6 4
f 1 2 7
f 7 2 8
f 1 9 5
f 1 7 9
f 6 5 10
f 10 5 9
f 8 11 7
f 7 11 9
f 9 11 12
f 9 12 10
f 15 14 13
f 13 16 15
f 13 14 3
f 14 2 3
f 14 17 2
f 18 16 13
f 3 18 13
f 4 18 3
f 4 6 18
f 18 6 19
f 17 8 2
f 20 8 17
f 10 22 21
f 19 10 21
f 6 10 19
f 22 23 21
f 20 24 8
f 8 24 11
f 24 26 25
f 12 24 25
f 11 24 12
f 22 10 12
f 25 22 12
f 27 22 25
f 23 22 28
f 28 22 27
f 26 29 25
f 25 29 27
f 27 29 30
f 27 30 28
f 33 32 31
f 35 34 31
f 31 34 33
f 35 36 34
f 38 37 15
f 15 37 14
f 39 31 16
f 31 38 16
f 38 15 16
f 31 32 38
f 31 40 35
f 31 39 40
f 36 35 41
f 35 42 41
f 35 40 42
f 42 43 41
f 37 17 14
f 44 17 37
f 18 39 16
f 39 18 19
f 45 39 19
f 40 39 45
f 47 42 46
f 42 45 46
f 42 40 45
f 42 47 43
f 44 20 17
f 48 20 44
f 21 45 19
f 21 23 45
f 23 46 45
f 23 49 46
f 48 50 20
f 20 50 24
f 26 24 50
f 26 50 51
f 28 53 52
f 49 28 52
f 23 28 49
f 53 54 52
f 29 26 55
f 26 56 55
f 26 51 56
f 57 30 29
f 57 29 55
f 53 28 30
f 57 53 30
f 58 53 57
f 54 53 59
f 59 53 58
f 56 60 55
f 55 60 57
f 57 60 61
f 57 61 58
f 58 61 62
f 58 62 59
f 65 64 63
f 32 33 63
f 33 65 63
f 33 66 65
f 67 33 34
f 67 66 33
f 69 68 36
f 68 34 36
f 68 67 34
f 71 70 69
f 69 70 68
f 71 72 70
f 63 64 38
f 64 37 38
f 64 73 37
f 63 38 32
f 41 69 36
f 71 69 74
f 69 43 74
f 43 75 74
f 43 69 41
f 71 74 72
f 73 44 37
f 76 44 73
f 46 77 47
f 75 43 78
f 43 77 78
f 77 79 78
f 43 47 77
f 79 80 78
f 76 48 44
f 81 48 76
f 49 82 77
f 49 77 46
f 84 79 83
f 79 82 83
f 79 77 82
f 79 84 80
f 50 48 85
f 48 86 85
f 48 81 86
f 85 51 50
f 52 82 49
f 88 87 54
f 54 87 52
f 87 83 52
f 83 82 52
f 88 89 87
f 86 90 85
f 51 85 90
f 91 51 90
f 56 51 91
f 59 92 88
f 59 88 54
f 89 88 93
f 93 88 92
f 91 94 56
f 56 94 60
f 94 96 95
f 61 94 95
f 60 94 61
f 97 62 61
f 97 61 95
f 92 59 62
f 97 92 62
f 98 92 97
f 93 92 99
f 99 92 98
f 96 100 95
f 102 101 100
f 101 95 100
f 101 97 95
f 104 98 103
f 98 101 103
f 98 97 101
f 98 104 99
f 102 105 101
f 101 105 103
f 107 106 65
f 65 106 64
f 108 65 66
f 108 107 65
f 109 66 67
f 109 108 66
f 110 67 68
f 110 109 67
f 111 68 70
f 111 110 68
f 70 72 111
f 111 72 112
f 106 73 64
f 113 73 106
f 75 114 74
f 114 115 74
f 115 72 74
f 115 112 72
f 113 76 73
f 116 76 113
f 78 114 75
f 118 117 80
f 80 117 78
f 117 115 78
f 115 114 78
f 118 119 117
f 116 81 76
f 120 81 116
f 83 121 84
f 121 122 84
f 84 122 80
f 122 123 80
f 123 118 80
f 118 123 119
f 120 86 81
f 124 86 120
f 87 121 83
f 87 89 121
f 89 122 121
f 89 125 122
f 90 86 126
f 86 127 126
f 86 124 127
f 126 91 90
f 93 129 128
f 125 93 128
f 89 93 125
f 129 130 128
f 127 131 126
f 131 133 132
f 131 132 94
f 126 131 94
f 91 126 94
f 132 96 94
f 99 134 129
f 99 129 93
f 130 129 135
f 135 129 134
f 133 136 132
f 132 136 96
f 136 100 96
f 136 137 100
f 102 100 137
f 102 137 138
f 103 139 104
f 134 99 104
f 139 134 104
f 140 134 139
f 135 134 141
f 141 134 140
f 105 102 142
f 102 143 142
f 102 138 143
f 142 144 105
f 105 144 103
f 144 145 103
f 145 139 103
f 139 145 140
f 140 145 146
f 140 146 141
f 143 147 142
f 142 147 144
f 149 148 107
f 107 148 106
f 150 107 108
f 150 149 107
f 151 108 109
f 151 150 108
f 152 109 110
f 152 151 109
f 154 152 153
f 152 111 153
f 152 110 111
f 112 153 111
f 148 113 106
f 155 113 148
f 156 154 153
f 112 115 153
f 115 157 153
f 157 156 153
f 157 115 158
f 158 159 157
f 155 116 113
f 160 116 155
f 117 158 115
f 162 161 119
f 119 161 117
f 161 159 117
f 159 158 117
f 162 163 161
f 160 120 116
f 164 120 160
f 122 165 123
f 162 119 123
f 165 162 123
f 166 162 165
f 163 162 167
f 167 162 166
f 164 124 120
f 168 124 164
f 125 169 165
f 125 165 122
f 165 170 166
f 165 169 170
f 167 166 171
f 166 172 171
f 166 170 172
f 174 173 172
f 172 173 171
f 174 175 173
f 168 127 124
f 176 127 168
f 128 169 125
f 169 128 130
f 177 169 130
f 170 169 177
f 170 178 172
f 170 177 178
f 180 174 179
f 174 178 179
f 174 172 178
f 174 180 175
f 176 181 127
f 127 181 131
f 133 131 181
f 133 181 182
f 135 183 177
f 135 177 130
f 177 184 178
f 177 183 184
f 179 178 185
f 185 178 184
f 136 133 186
f 133 187 186
f 133 182 187
f 188 137 136
f 188 136 186
f 188 138 137
f 141 189 183
f 141 183 135
f 183 190 184
f 183 189 190
f 185 184 191
f 191 184 190
f 187 192 186
f 186 192 188
f 188 192 193
f 138 188 193
f 194 138 193
f 143 138 194
f 144 195 145
f 145 195 196
f 197 145 196
f 146 145 197
f 141 146 189
f 146 198 189
f 146 197 198
f 189 198 190
f 190 198 199
f 190 199 191
f 194 200 143
f 143 200 147
f 144 147 195
f 147 201 195
f 147 200 201
f 195 201 196
f 203 202 149
f 149 202 148
f 204 149 150
f 204 203 149
f 205 150 151
f 205 204 150
f 206 151 152
f 206 205 151
f 152 154 206
f 206 154 207
f 202 155 148
f 208 155 202
f 209 207 154
f 209 154 156
f 210 156 157
f 210 209 156
f 212 211 159
f 211 157 159
f 211 210 157
f 212 213 211
f 208 160 155
f 214 160 208
f 161 212 159
f 216 215 163
f 163 215 161
f 215 213 161
f 213 212 161
f 216 217 215
f 219 164 218
f 164 214 218
f 164 160 214
f 220 219 218
f 167 221 216
f 167 216 163
f 217 216 222
f 216 223 222
f 216 221 223
f 223 224 222
f 226 225 219
f 225 164 219
f 225 168 164
f 226 219 220
f 171 221 167
f 221 171 173
f 221 173 223
f 228 227 175
f 175 227 173
f 227 224 173
f 224 223 173
f 228 229 227
f 225 176 168
f 230 176 225
f 179 231 180
f 228 175 180
f 231 228 180
f 232 228 231
f 229 228 233
f 228 234 233
f 228 232 234
f 234 235 233
f 230 236 176
f 176 236 181
f 182 181 236
f 182 236 237
f 185 238 231
f 185 231 179
f 231 239 232
f 231 238 239
f 241 234 240
f 234 239 240
f 234 232 239
f 234 241 235
f 237 187 182
f 242 187 237
f 191 243 238
f 191 238 185
f 238 244 239
f 238 243 244
f 240 239 245
f 239 246 245
f 239 244 246
f 246 247 245
f 250 249 248
f 248 251 250
f 242 252 187
f 187 252 192
f 252 254 253
f 193 252 253
f 192 252 193
f 253 194 193
f 196 255 197
f 256 198 197
f 256 197 255
f 198 256 257
f 258 198 257
f 199 198 258
f 191 199 243
f 199 259 243
f 199 258 259
f 261 260 259
f 260 243 259
f 260 244 243
f 244 262 246
f 244 260 262
f 247 246 263
f 246 264 263
f 246 262 264
f 263 264 249
f 264 248 249
f 264 265 248
f 251 248 266
f 266 248 265
f 254 267 253
f 253 267 194
f 267 200 194
f 267 268 200
f 268 270 269
f 201 268 269
f 200 268 201
f 255 196 201
f 269 255 201
f 271 255 269
f 273 256 272
f 256 271 272
f 256 255 271
f 256 273 257
f 261 274 260
f 276 275 274
f 275 260 274
f 275 262 260
f 278 264 277
f 264 275 277
f 264 262 275
f 264 278 265
f 265 278 279
f 265 279 266
f 270 280 269
f 269 280 271
f 271 280 281
f 271 281 272
f 276 282 275
f 275 282 277
f 284 283 203
f 203 283 202
f 285 203 204
f 285 284 203
f 286 204 205
f 286 285 204
f 287 205 206
f 287 286 205
f 206 207 287
f 287 207 288
f 283 208 202
f 289 208 283
f 290 288 207
f 290 207 209
f 291 209 210
f 291 290 209
f 293 291 292
f 291 211 292
f 291 210 211
f 213 292 211
f 289 214 208
f 294 214 289
f 295 293 292
f 295 292 213
f 215 295 213
f 296 295 215
f 298 297 217
f 297 215 217
f 297 296 215
f 298 299 297
f 294 300 214
f 214 300 218
f 220 218 300
f 220 300 301
f 222 298 217
f 303 302 224
f 224 302 222
f 302 299 222
f 299 298 222
f 305 304 303
f 303 304 302
f 307 306 305
f 305 306 304
f 307 308 306
f 309 225 226
f 310 309 226
f 220 310 226
f 301 310 220
f 227 303 224
f 303 227 229
f 311 303 229
f 305 303 311
f 305 312 307
f 305 311 312
f 308 307 313
f 313 307 312
f 316 315 314
f 314 317 316
f 319 318 309
f 318 225 309
f 318 230 225
f 319 309 310
f 233 311 229
f 311 233 235
f 320 311 235
f 312 311 320
f 313 312 321
f 312 322 321
f 312 320 322
f 324 323 322
f 322 323 321
f 323 324 315
f 324 314 315
f 324 325 314
f 317 314 326
f 326 314 325
f 318 327 230
f 230 327 236
f 237 236 327
f 237 327 328
f 240 329 241
f 320 235 241
f 329 320 241
f 330 320 329
f 320 331 322
f 320 330 331
f 322 332 324
f 322 331 332
f 334 325 333
f 325 332 333
f 325 324 332
f 325 334 326
f 328 242 237
f 335 242 328
f 245 329 240
f 329 245 247
f 336 329 247
f 330 329 336
f 336 249 250
f 331 336 250
f 330 336 331
f 332 331 337
f 331 251 337
f 251 338 337
f 251 331 250
f 332 337 333
f 335 339 242
f 242 339 252
f 254 252 339
f 254 339 340
f 257 341 258
f 258 341 342
f 343 258 342
f 259 258 343
f 261 259 343
f 261 343 344
f 263 336 247
f 336 263 249
f 266 338 251
f 266 345 338
f 267 254 346
f 254 347 346
f 254 340 347
f 348 268 267
f 348 267 346
f 348 270 268
f 272 349 273
f 349 350 273
f 273 350 257
f 350 351 257
f 351 341 257
f 341 351 342
f 344 352 261
f 261 352 274
f 276 274 352
f 276 352 353
f 277 354 278
f 278 354 355
f 356 278 355
f 279 278 356
f 266 279 345
f 345 279 356
f 347 357 346
f 346 357 348
f 348 357 358
f 358 360 359
f 358 359 280
f 348 358 280
f 270 348 280
f 361 281 280
f 361 280 359
f 361 362 281
f 281 362 272
f 362 363 272
f 363 349 272
f 349 363 350
f 282 276 364
f 276 365 364
f 276 353 365
f 364 366 282
f 282 366 277
f 366 367 277
f 367 354 277
f 354 367 355
f 360 368 359
f 359 368 361
f 361 368 369
f 361 369 362
f 364 365 370
f 370 365 371
f 366 364 372
f 372 364 370
f 371 373 370
f 370 373 372
f 375 374 284
f 284 374 283
f 376 284 285
f 376 375 284
f 377 285 286
f 377 376 285
f 379 377 378
f 377 287 378
f 377 286 287
f 288 378 287
f 374 289 283
f 380 289 374
f 381 379 378
f 381 378 288
f 290 381 288
f 382 381 290
f 384 382 383
f 382 291 383
f 382 290 291
f 293 383 291
f 380 294 289
f 385 294 380
f 386 384 383
f 386 383 293
f 295 386 293
f 387 386 295
f 388 295 296
f 388 387 295
f 389 296 297
f 389 388 296
f 391 390 299
f 390 297 299
f 390 389 297
f 393 392 391
f 391 392 390
f 395 394 393
f 393 394 392
f 395 396 394
f 385 397 294
f 294 397 300
f 301 300 397
f 301 397 398
f 302 391 299
f 391 302 304
f 391 304 393
f 393 304 306
f 393 306 395
f 400 399 308
f 308 399 306
f 399 396 306
f 396 395 306
f 402 401 400
f 400 401 399
f 404 403 402
f 402 403 401
f 406 405 404
f 404 405 403
f 406 407 405
f 398 310 301
f 408 310 398
f 313 409 400
f 313 400 308
f 400 410 402
f 400 409 410
f 410 315 316
f 404 410 316
f 402 410 404
f 404 316 317
f 411 404 317
f 406 404 411
f 407 406 412
f 412 406 411
f 413 318 319
f 414 413 319
f 310 414 319
f 408 414 310
f 321 409 313
f 409 321 323
f 409 323 410
f 410 323 315
f 416 415 411
f 317 416 411
f 326 416 317
f 411 415 412
f 413 327 318
f 328 327 413
f 414 328 413
f 417 328 414
f 333 418 334
f 418 419 334
f 419 326 334
f 419 416 326
f 417 335 328
f 420 335 417
f 338 421 337
f 421 422 337
f 337 422 333
f 422 423 333
f 423 418 333
f 418 423 419
f 420 424 335
f 335 424 339
f 340 339 424
f 340 424 425
f 342 426 343
f 426 344 343
f 428 427 421
f 338 428 421
f 345 428 338
f 421 427 422
f 425 347 340
f 429 347 425
f 350 430 351
f 430 431 351
f 351 431 342
f 431 432 342
f 432 426 342
f 432 434 433
f 432 433 352
f 426 432 352
f 344 426 352
f 433 353 352
f 436 435 356
f 436 356 355
f 345 356 428
f 428 356 435
f 429 437 347
f 347 437 357
f 437 439 438
f 358 437 438
f 357 437 358
f 438 360 358
f 362 440 363
f 440 441 363
f 363 441 350
f 441 442 350
f 442 430 350
f 430 442 431
f 434 443 433
f 353 433 443
f 444 353 443
f 365 353 444
f 366 445 367
f 445 446 367
f 446 355 367
f 446 436 355
f 439 447 438
f 438 447 360
f 447 368 360
f 447 448 368
f 368 449 369
f 448 449 368
f 362 369 440
f 369 450 440
f 369 449 450
f 440 450 441
f 444 371 365
f 451 371 444
f 372 452 445
f 372 445 366
f 446 445 453
f 453 445 452
f 373 371 454
f 371 455 454
f 371 451 455
f 454 456 373
f 373 456 372
f 456 457 372
f 457 452 372
f 452 457 453
f 455 458 454
f 454 458 456
f 459 374 375
f 459 375 460
f 375 461 460
f 375 376 461
f 462 376 377
f 462 461 376
f 377 379 462
f 462 379 463
f 464 380 459
f 459 380 374
f 459 460 465
f 459 465 464
f 466 463 379
f 466 379 381
f 467 381 382
f 467 466 381
f 469 468 384
f 468 382 384
f 468 467 382
f 469 470 468
f 473 472 471
f 475 474 471
f 471 474 473
f 477 476 475
f 475 476 474
f 477 478 476
f 479 385 464
f 464 385 380
f 464 465 480
f 464 480 479
f 386 469 384
f 481 470 469
f 386 481 469
f 387 481 386
f 482 387 388
f 482 481 387
f 389 471 472
f 482 389 472
f 388 389 482
f 471 389 390
f 471 390 475
f 475 390 392
f 475 392 477
f 483 478 477
f 392 483 477
f 394 483 392
f 394 396 483
f 483 396 484
f 479 397 385
f 398 397 479
f 480 398 479
f 485 398 480
f 486 484 396
f 486 396 399
f 487 399 401
f 487 486 399
f 488 401 403
f 488 487 401
f 489 403 405
f 489 488 403
f 405 407 489
f 489 407 490
f 492 408 491
f 408 485 491
f 408 398 485
f 493 492 491
f 412 490 407
f 412 494 490
f 495 414 492
f 492 414 408
f 492 493 496
f 492 496 495
f 416 497 415
f 497 498 415
f 498 412 415
f 498 494 412
f 499 417 495
f 495 417 414
f 495 496 500
f 495 500 499
f 502 501 497
f 416 502 497
f 419 502 416
f 497 501 498
f 504 503 499
f 503 417 499
f 503 420 417
f 504 499 500
f 422 505 423
f 505 506 423
f 506 419 423
f 506 502 419
f 503 507 420
f 420 507 424
f 509 508 425
f 424 509 425
f 507 509 424
f 510 508 509
f 428 511 427
f 511 512 427
f 427 512 422
f 512 513 422
f 513 505 422
f 505 513 506
f 514 429 508
f 508 429 425
f 508 510 515
f 508 515 514
f 431 516 432
f 516 434 432
f 436 517 435
f 517 518 435
f 435 518 428
f 518 519 428
f 519 511 428
f 511 519 512
f 514 437 429
f 439 437 514
f 515 439 514
f 520 439 515
f 441 521 442
f 521 522 442
f 442 522 431
f 522 523 431
f 523 516 431
f 516 523 434
f 523 443 434
f 523 524 443
f 444 443 524
f 444 524 525
f 527 526 517
f 436 527 517
f 446 527 436
f 517 526 518
f 520 528 439
f 439 528 447
f 447 529 448
f 528 529 447
f 529 531 530
f 449 529 530
f 448 529 449
f 532 450 449
f 532 449 530
f 532 533 450
f 450 533 441
f 533 534 441
f 534 521 441
f 521 534 522
f 525 451 444
f 535 451 525
f 453 527 446
f 453 536 527
f 531 537 530
f 530 537 532
f 532 537 538
f 532 538 533
f 535 455 451
f 539 455 535
f 541 540 457
f 541 457 456
f 453 457 536
f 536 457 540
f 539 542 455
f 455 542 458
f 456 458 541
f 541 458 542
f 543 460 461
f 543 461 544
f 461 545 544
f 461 462 545
f 462 463 545
f 545 463 546
f 548 547 543
f 547 460 543
f 547 465 460
f 548 543 544
f 549 546 463
f 549 463 466
f 550 466 467
f 550 549 466
f 551 467 468
f 551 550 467
f 553 552 470
f 552 468 470
f 552 551 468
f 555 554 553
f 553 554 552
f 472 473 555
f 473 554 555
f 473 556 554
f 557 473 474
f 557 556 473
f 558 474 476
f 558 557 474
f 560 559 478
f 559 476 478
f 559 558 476
f 562 561 560
f 560 561 559
f 562 563 561
f 547 480 465
f 564 480 547
f 481 553 470
f 553 481 482
f 553 482 555
f 555 482 472
f 483 560 478
f 560 483 484
f 565 560 484
f 562 560 565
f 563 562 566
f 562 567 566
f 562 565 567
f 569 568 567
f 567 568 566
f 571 570 569
f 569 570 568
f 571 572 570
f 564 485 480
f 573 485 564
f 486 565 484
f 565 486 487
f 565 487 567
f 567 487 488
f 567 488 569
f 569 488 489
f 569 489 571
f 489 490 571
f 490 572 571
f 490 574 572
f 573 575 485
f 485 575 491
f 493 491 575
f 493 575 576
f 494 574 490
f 494 577 574
f 576 496 493
f 578 496 576
f 581 580 579
f 580 577 579
f 577 498 579
f 577 494 498
f 578 500 496
f 582 500 578
f 581 579 501
f 502 581 501
f 583 581 502
f 501 579 498
f 584 503 504
f 500 582 585
f 584 500 585
f 586 584 585
f 504 500 584
f 587 586 585
f 506 583 502
f 506 588 583
f 584 507 503
f 507 584 509
f 509 584 586
f 510 509 586
f 587 510 586
f 589 510 587
f 591 590 513
f 591 513 512
f 506 513 588
f 588 513 590
f 589 515 510
f 592 515 589
f 594 593 519
f 594 519 518
f 512 519 591
f 591 519 593
f 592 520 515
f 595 520 592
f 522 596 523
f 597 524 523
f 597 523 596
f 597 525 524
f 527 598 526
f 598 599 526
f 599 518 526
f 599 594 518
f 595 600 520
f 520 600 528
f 600 602 601
f 529 600 601
f 528 600 529
f 601 531 529
f 533 603 534
f 603 604 534
f 534 604 522
f 604 605 522
f 605 596 522
f 607 606 605
f 606 596 605
f 606 597 596
f 606 535 525
f 606 525 597
f 609 608 598
f 527 609 598
f 536 609 527
f 598 608 599
f 602 610 601
f 601 610 531
f 610 537 531
f 610 611 537
f 537 612 538
f 611 612 537
f 533 538 603
f 538 613 603
f 538 612 613
f 603 613 604
f 606 607 614
f 614 607 615
f 614 539 535
f 614 535 606
f 617 616 540
f 617 540 541
f 536 540 609
f 609 540 616
f 615 618 614
f 614 618 539
f 618 542 539
f 618 619 542
f 541 542 617
f 617 542 619
f 620 544 545
f 546 620 545
f 621 547 548
f 622 621 548
f 622 548 544
f 623 622 544
f 620 623 544
f 623 620 546
f 549 623 546
f 624 623 549
f 625 549 550
f 625 624 549
f 627 625 626
f 625 551 626
f 625 550 551
f 626 551 628
f 551 629 628
f 551 552 629
f 630 552 554
f 630 629 552
f 631 554 556
f 631 630 554
f 632 556 557
f 632 631 556
f 633 557 558
f 633 632 557
f 634 558 559
f 634 633 558
f 635 559 561
f 635 634 559
f 637 636 563
f 636 561 563
f 636 635 561
f 639 638 637
f 637 638 636
f 639 640 638
f 641 564 621
f 621 564 547
f 621 622 642
f 621 642 641
f 643 627 626
f 643 626 628
f 566 637 563
f 637 566 568
f 637 568 639
f 644 640 639
f 568 644 639
f 570 644 568
f 570 572 644
f 644 572 645
f 647 646 641
f 646 564 641
f 646 573 564
f 647 641 642
f 574 645 572
f 574 648 645
f 575 573 649
f 573 650 649
f 573 646 650
f 649 576 575
f 577 648 574
f 577 651 648
f 649 650 652
f 652 650 653
f 652 578 576
f 652 576 649
f 655 654 580
f 655 580 581
f 577 580 651
f 651 580 654
f 653 656 652
f 578 652 656
f 657 578 656
f 582 578 657
f 583 655 581
f 583 658 655
f 585 582 659
f 582 660 659
f 582 657 660
f 659 587 585
f 663 662 661
f 662 658 661
f 658 588 661
f 658 583 588
f 659 660 664
f 664 660 665
f 664 589 587
f 664 587 659
f 668 667 666
f 666 667 663
f 666 663 661
f 591 666 661
f 590 591 661
f 590 661 588
f 664 665 669
f 669 665 670
f 669 592 589
f 669 589 664
f 673 672 671
f 671 672 668
f 671 668 666
f 594 671 666
f 593 594 666
f 593 666 591
f 670 674 669
f 592 669 674
f 675 592 674
f 595 592 675
f 673 671 676
f 673 676 677
f 599 676 594
f 594 676 671
f 675 678 595
f 595 678 600
f 602 600 678
f 602 678 679
f 681 680 605
f 681 605 604
f 607 605 680
f 607 680 682
f 685 684 683
f 683 684 677
f 683 677 676
f 609 683 676
f 608 609 676
f 608 676 599
f 679 686 602
f 602 686 610
f 610 687 611
f 686 687 610
f 611 688 612
f 687 688 611
f 612 689 613
f 688 689 612
f 604 613 681
f 681 613 689
f 682 615 607
f 690 615 682
f 693 692 691
f 691 692 685
f 691 685 683
f 617 691 683
f 616 617 683
f 616 683 609
f 690 694 615
f 615 694 618
f 691 619 693
f 619 694 693
f 619 618 694
f 619 691 617
f 697 696 695
f 699 698 695
f 695 698 697
f 701 700 699
f 699 700 698
f 703 702 701
f 701 702 700
f 703 704 702
f 705 622 623
f 624 706 623
f 623 706 705
f 625 707 624
f 624 707 706
f 627 707 625
f 708 628 629
f 708 629 709
f 629 710 709
f 629 630 710
f 711 630 631
f 711 710 630
f 712 631 632
f 712 711 631
f 633 695 696
f 712 633 696
f 632 633 712
f 695 633 634
f 695 634 699
f 699 634 635
f 699 635 701
f 701 635 636
f 701 636 703
f 713 704 703
f 636 713 703
f 638 713 636
f 638 640 713
f 713 640 714
f 715 642 705
f 705 642 622
f 716 705 706
f 715 705 716
f 717 706 707
f 716 706 717
f 717 707 627
f 718 717 627
f 643 718 627
f 719 717 718
f 643 628 708
f 720 643 708
f 718 643 720
f 720 708 709
f 640 644 721
f 722 640 721
f 714 640 722
f 645 721 644
f 723 646 647
f 724 723 647
f 724 647 642
f 725 724 642
f 715 725 642
f 725 715 716
f 725 716 726
f 726 716 717
f 726 717 727
f 727 717 719
f 722 721 728
f 722 728 729
f 648 728 645
f 645 728 721
f 731 730 723
f 730 646 723
f 730 650 646
f 731 723 724
f 729 728 732
f 729 732 733
f 651 732 648
f 648 732 728
f 730 653 650
f 734 653 730
f 733 732 654
f 655 733 654
f 735 733 655
f 654 732 651
f 656 653 736
f 653 737 736
f 653 734 737
f 736 657 656
f 740 739 738
f 739 735 738
f 735 658 738
f 735 655 658
f 736 737 741
f 741 737 742
f 741 660 657
f 741 657 736
f 745 744 743
f 743 744 740
f 743 740 738
f 663 743 738
f 662 663 738
f 662 738 658
f 741 742 746
f 746 742 747
f 746 665 660
f 746 660 741
f 745 743 667
f 668 745 667
f 748 745 668
f 667 743 663
f 746 747 749
f 749 747 750
f 749 670 665
f 749 665 746
f 752 751 672
f 752 672 673
f 668 672 748
f 748 672 751
f 750 753 749
f 749 753 670
f 753 674 670
f 753 754 674
f 675 674 754
f 675 754 755
f 677 752 673
f 677 756 752
f 755 757 675
f 675 757 678
f 759 758 679
f 678 759 679
f 757 759 678
f 761 760 758
f 761 758 759
f 763 762 760
f 763 760 761
f 765 764 762
f 765 762 763
f 680 681 764
f 765 680 764
f 766 680 765
f 682 680 766
f 682 766 767
f 769 768 684
f 769 684 685
f 677 684 756
f 756 684 768
f 758 686 679
f 686 758 687
f 687 758 760
f 687 760 688
f 688 760 762
f 688 762 689
f 689 762 764
f 689 764 681
f 771 690 770
f 690 767 770
f 690 682 767
f 692 693 771
f 770 692 771
f 772 692 770
f 685 692 769
f 769 692 772
f 771 694 690
f 694 771 693
f 773 696 697
f 773 697 774
f 697 775 774
f 697 698 775
f 776 698 700
f 776 775 698
f 777 700 702
f 777 776 700
f 702 704 777
f 777 704 778
f 780 779 710
f 710 779 709
f 782 780 781
f 780 711 781
f 780 710 711
f 712 783 711
f 711 783 781
f 784 783 712
f 784 712 696
f 785 784 696
f 773 785 696
f 785 773 774
f 786 778 704
f 786 704 713
f 713 714 786
f 786 714 787
f 788 719 718
f 788 718 789
f 718 790 789
f 718 720 790
f 720 709 779
f 720 779 790
f 782 781 791
f 782 791 792
f 793 781 783
f 791 781 793
f 783 784 794
f 783 794 793
f 722 787 714
f 722 795 787
f 796 724 725
f 726 797 725
f 725 797 796
f 727 798 726
f 726 798 797
f 719 788 727
f 788 798 727
f 788 799 798
f 788 789 800
f 788 800 799
f 801 792 791
f 803 802 801
f 791 803 801
f 793 803 791
f 793 794 804
f 793 804 803
f 729 795 722
f 729 805 795
f 806 730 731
f 807 806 731
f 807 731 724
f 808 807 724
f 796 808 724
f 808 796 797
f 808 797 809
f 809 797 798
f 809 798 810
f 810 798 799
f 810 799 811
f 811 799 800
f 812 802 803
f 812 803 804
f 733 805 729
f 733 813 805
f 815 814 806
f 814 730 806
f 814 734 730
f 815 806 807
f 818 817 816
f 817 813 816
f 813 735 816
f 813 733 735
f 814 737 734
f 819 737 814
f 818 816 739
f 740 818 739
f 820 818 740
f 739 816 735
f 819 742 737
f 821 742 819
f 823 822 744
f 823 744 745
f 740 744 820
f 820 744 822
f 821 747 742
f 824 747 821
f 827 826 825
f 826 823 825
f 823 748 825
f 823 745 748
f 829 750 828
f 750 824 828
f 750 747 824
f 831 830 829
f 831 829 828
f 832 830 831
f 835 834 833
f 833 834 827
f 833 827 825
f 752 833 825
f 751 752 825
f 751 825 748
f 829 753 750
f 753 829 754
f 754 829 830
f 837 836 755
f 837 755 754
f 832 837 754
f 830 832 754
f 839 838 836
f 839 836 837
f 841 840 838
f 841 838 839
f 843 842 840
f 843 840 841
f 845 844 842
f 845 842 843
f 846 844 845
f 835 833 847
f 835 847 848
f 756 847 752
f 752 847 833
f 836 757 755
f 757 836 759
f 759 836 838
f 759 838 761
f 761 838 840
f 761 840 763
f 763 840 842
f 763 842 765
f 765 842 844
f 846 849 844
f 849 765 844
f 849 766 765
f 851 850 767
f 766 851 767
f 849 851 766
f 853 852 850
f 853 850 851
f 852 853 848
f 852 848 847
f 769 852 847
f 768 769 847
f 768 847 756
f 850 770 767
f 770 850 772
f 772 850 852
f 772 852 769
f 855 854 775
f 775 854 774
f 857 855 856
f 855 776 856
f 855 775 776
f 777 858 776
f 776 858 856
f 778 858 777
f 859 779 780
f 782 859 780
f 861 860 785
f 785 860 784
f 785 774 854
f 785 854 861
f 862 857 856
f 864 863 862
f 856 864 862
f 858 864 856
f 786 865 778
f 865 858 778
f 865 864 858
f 787 865 786
f 866 789 790
f 779 859 790
f 859 866 790
f 859 867 866
f 792 867 782
f 782 867 859
f 860 794 784
f 868 794 860
f 869 863 864
f 871 870 869
f 864 871 869
f 865 871 864
f 795 871 787
f 787 871 865
f 872 800 866
f 866 800 789
f 873 866 867
f 872 866 873
f 801 874 792
f 874 867 792
f 874 873 867
f 802 874 801
f 868 804 794
f 875 804 868
f 870 871 876
f 870 876 877
f 805 876 795
f 795 876 871
f 878 807 808
f 809 879 808
f 808 879 878
f 810 880 809
f 809 880 879
f 811 881 810
f 810 881 880
f 800 872 811
f 872 881 811
f 872 882 881
f 883 872 873
f 882 872 883
f 884 873 874
f 883 873 884
f 884 874 802
f 885 884 802
f 812 885 802
f 886 884 885
f 812 804 875
f 812 875 885
f 889 888 887
f 887 888 877
f 876 887 877
f 890 887 876
f 813 890 805
f 805 890 876
f 891 814 815
f 807 878 815
f 878 891 815
f 878 892 891
f 893 878 879
f 892 878 893
f 894 879 880
f 893 879 894
f 895 880 881
f 894 880 895
f 896 881 882
f 895 881 896
f 897 882 883
f 896 882 897
f 884 899 898
f 897 884 898
f 883 884 897
f 899 884 886
f 889 887 900
f 889 900 901
f 818 900 817
f 900 890 817
f 900 887 890
f 817 890 813
f 902 819 891
f 891 819 814
f 903 891 892
f 902 891 903
f 904 892 893
f 903 892 904
f 905 893 894
f 904 893 905
f 906 894 895
f 905 894 906
f 907 895 896
f 906 895 907
f 897 909 908
f 907 897 908
f 896 897 907
f 909 897 898
f 901 900 910
f 901 910 911
f 820 910 818
f 818 910 900
f 912 821 902
f 902 821 819
f 903 914 913
f 912 903 913
f 902 903 912
f 914 903 904
f 914 904 915
f 915 904 905
f 915 905 916
f 916 905 906
f 916 906 917
f 917 906 907
f 917 907 918
f 918 907 908
f 921 920 919
f 919 920 911
f 919 911 910
f 823 919 910
f 822 823 910
f 822 910 820
f 923 922 912
f 922 821 912
f 922 824 821
f 923 912 913
f 926 925 924
f 924 925 921
f 924 921 919
f 827 924 919
f 826 827 919
f 826 919 823
f 922 927 824
f 824 927 828
f 828 928 831
f 927 928 828
f 930 929 832
f 831 930 832
f 928 930 831
f 932 931 929
f 932 929 930
f 933 931 932
f 936 935 934
f 934 935 926
f 934 926 924
f 835 934 924
f 834 835 924
f 834 924 827
f 929 837 832
f 837 929 839
f 839 929 931
f 933 937 931
f 937 839 931
f 937 841 839
f 937 939 938
f 843 937 938
f 841 937 843
f 940 845 843
f 940 843 938
f 940 846 845
f 943 942 941
f 941 942 936
f 934 941 936
f 944 941 934
f 848 944 835
f 835 944 934
f 939 945 938
f 938 945 940
f 940 945 946
f 940 946 846
f 946 849 846
f 946 947 849
f 941 851 943
f 851 947 943
f 851 849 947
f 851 941 853
f 853 941 944
f 853 944 848
f 948 854 855
f 857 948 855
f 949 860 861
f 854 948 861
f 948 949 861
f 948 950 949
f 862 951 857
f 951 948 857
f 951 950 948
f 863 951 862
f 952 868 949
f 949 868 860
f 953 949 950
f 952 949 953
f 954 950 951
f 953 950 954
f 869 955 863
f 955 951 863
f 955 954 951
f 870 955 869
f 956 875 952
f 952 875 868
f 957 952 953
f 956 952 957
f 958 953 954
f 957 953 958
f 959 954 955
f 958 954 959
f 877 959 870
f 870 959 955
f 960 886 885
f 875 956 885
f 956 960 885
f 956 961 960
f 962 956 957
f 961 956 962
f 963 957 958
f 962 957 963
f 889 963 888
f 963 959 888
f 963 958 959
f 888 959 877
f 964 898 899
f 886 960 899
f 960 964 899
f 960 965 964
f 966 960 961
f 965 960 966
f 967 961 962
f 966 961 967
f 968 962 963
f 967 962 968
f 901 968 889
f 889 968 963
f 969 908 909
f 898 964 909
f 964 969 909
f 964 970 969
f 971 964 965
f 970 964 971
f 972 965 966
f 971 965 972
f 973 966 967
f 972 966 973
f 974 967 968
f 973 967 974
f 911 974 901
f 901 974 968
f 975 913 914
f 915 976 914
f 914 976 975
f 916 977 915
f 915 977 976
f 917 978 916
f 916 978 977
f 918 979 917
f 917 979 978
f 908 969 918
f 969 979 918
f 969 980 979
f 981 969 970
f 980 969 981
f 982 970 971
f 981 970 982
f 983 971 972
f 982 971 983
f 984 972 973
f 983 972 984
f 921 984 920
f 984 974 920
f 984 973 974
f 920 974 911
f 985 922 923
f 913 975 923
f 975 985 923
f 975 986 985
f 987 975 976
f 986 975 987
f 988 976 977
f 987 976 988
f 989 977 978
f 988 977 989
f 990 978 979
f 989 978 990
f 991 979 980
f 990 979 991
f 992 980 981
f 991 980 992
f 993 981 982
f 992 981 993
f 994 982 983
f 993 982 994
f 926 994 925
f 994 984 925
f 994 983 984
f 925 984 921
f 985 927 922
f 927 985 928
f 928 985 986
f 928 986 930
f 930 986 987
f 930 987 932
f 932 987 988
f 932 988 933
f 988 995 933
f 988 989 995
f 996 989 990
f 995 989 996
f 997 990 991
f 996 990 997
f 998 991 992
f 997 991 998
f 999 992 993
f 998 992 999
f 936 999 935
f 999 994 935
f 999 993 994
f 935 994 926
f 995 937 933
f 937 995 939
f 995 1000 939
f 995 996 1000
f 1001 996 997
f 1000 996 1001
f 1002 997 998
f 1001 997 1002
f 943 1002 942
f 1002 999 942
f 1002 998 999
f 942 999 936
f 1000 945 939
f 945 1000 946
f 946 1000 1001
f 946 1001 947
f 947 1001 1002
f 947 1002 943
