v -49.2 16.0 22.0
v -49.0 16.0 21.7
v -49.0 15.7 22.0
v -49.0 15.9 23.0
v -49.1 16.0 23.0
v -49.0 16.0 23.1
v -49.0 17.0 21.0
v -49.0 17.0 21.0
v -49.0 17.0 21.0
v -49.0 17.0 22.0
v -49.0 17.0 22.0
v -49.0 16.1 23.0
v -49.0 17.0 21.0
v -49.0 17.0 22.0
v -48.1 14.0 23.0
v -48.0 14.0 22.9
v -48.0 13.9 23.0
v -48.0 14.0 23.2
v -48.4 15.0 22.0
v -48.0 15.0 21.5
v -48.0 14.6 22.0
v -48.6 15.0 23.0
v -48.0 14.6 24.0
v -48.6 15.0 24.0
v -48.0 15.0 24.3
v -48.0 16.0 20.0
v -48.0 16.0 20.0
v -48.0 16.0 20.0
v -48.0 15.5 21.0
v -48.5 16.0 21.0
v -48.0 15.5 24.0
v -48.0 16.0 23.6
v -48.2 17.0 20.0
v -48.0 17.0 19.8
v -48.0 16.7 22.0
v -48.0 17.0 21.6
v -49.0 17.0 22.0
v -48.0 16.4 23.0
v -48.0 17.2 20.0
v -48.0 17.4 21.0
v -47.0 13.0 24.0
v -47.0 13.0 24.0
v -47.0 13.0 24.0
v -47.0 13.0 24.0
v -47.0 14.0 22.3
v -47.0 13.4 23.0
v -47.6 14.0 24.0
v -47.0 14.0 24.5
v -47.4 15.0 21.0
v -47.0 15.0 20.7
v -47.0 14.7 21.0
v -47.0 14.3 22.0
v -47.0 14.7 25.0
v -47.3 15.0 25.0
v -47.0 15.0 25.2
v -47.9 16.0 20.0
v -47.0 16.0 20.3
v -47.6 16.0 24.0
v -47.2 16.0 25.0
v -47.0 16.0 25.2
v -47.0 17.0 19.7
v -47.0 16.5 20.0
v -47.0 16.6 22.0
v -47.0 17.0 21.5
v -47.0 16.5 23.0
v -47.0 16.4 24.0
v -47.0 16.2 25.0
v -47.0 17.7 20.0
v -47.0 17.4 21.0
v -46.4 13.0 23.0
v -46.0 13.0 22.6
v -46.0 12.7 23.0
v -46.0 12.7 24.0
v -46.0 13.0 24.3
v -46.3 14.0 21.0
v -46.0 14.0 20.8
v -46.0 13.7 21.0
v -46.0 13.5 22.0
v -46.7 14.0 22.0
v -46.0 14.0 24.6
v -46.0 15.0 20.5
v -46.0 14.7 25.0
v -46.0 15.0 25.2
v -46.0 16.0 20.4
v -46.0 16.0 25.2
v -46.0 17.0 19.8
v -46.0 16.7 20.0
v -46.0 16.6 22.0
v -46.0 17.0 21.3
v -46.0 16.5 23.0
v -46.0 16.4 24.0
v -46.0 16.2 25.0
v -46.0 17.2 20.0
v -46.0 17.3 21.0
v -45.1 13.0 21.0
v -45.0 13.0 20.9
v -45.0 12.9 21.0
v -45.0 13.0 21.3
v -45.0 13.0 22.2
v -45.0 12.5 23.0
v -45.0 12.6 24.0
v -45.0 13.0 24.5
v -45.0 14.0 20.5
v -45.0 13.1 22.0
v -45.0 14.0 24.6
v -45.0 15.0 20.5
v -45.6 15.0 25.0
v -45.0 15.0 24.6
v -45.0 16.0 20.5
v -45.4 16.0 24.0
v -45.0 15.7 24.0
v -45.0 16.0 23.6
v -45.8 16.0 25.0
v -45.1 17.0 20.0
v -45.0 16.6 21.0
v -45.6 17.0 21.0
v -45.0 16.5 22.0
v -45.0 16.4 23.0
v -44.0 13.0 20.8
v -44.0 12.8 21.0
v -44.0 12.5 22.0
v -44.8 13.0 22.0
v -44.0 12.2 23.0
v -44.0 12.5 24.0
v -44.0 12.8 25.0
v -44.3 13.0 25.0
v -44.0 13.0 25.5
v -44.0 14.0 20.4
v -44.5 14.0 25.0
v -44.0 14.0 25.6
v -44.0 15.0 20.5
v -44.4 15.0 25.0
v -44.0 15.0 25.3
v -44.0 16.0 20.5
v -44.0 15.6 24.0
v -44.0 16.0 23.5
v -44.0 15.3 25.0
v -44.0 16.6 21.0
v -44.0 16.5 22.0
v -44.0 16.4 23.0
v -43.6 13.0 21.0
v -43.0 13.0 21.5
v -43.0 12.7 22.0
v -43.1 13.0 23.0
v -43.0 13.0 22.8
v -43.0 13.0 23.3
v -43.0 12.8 24.0
v -43.6 13.0 25.0
v -43.0 13.0 24.3
v -43.0 14.0 20.2
v -43.0 13.3 21.0
v -43.0 13.1 23.0
v -43.0 13.3 25.0
v -43.0 13.5 26.0
v -43.6 14.0 26.0
v -43.0 13.7 27.0
v -43.3 14.0 27.0
v -43.0 13.8 28.0
v -43.2 14.0 28.0
v -43.0 14.0 28.9
v -43.0 15.0 20.4
v -43.4 15.0 26.0
v -43.2 15.0 27.0
v -43.0 15.0 27.4
v -43.0 14.4 28.0
v -43.6 15.0 37.0
v -43.0 15.0 36.8
v -43.0 14.8 37.0
v -43.0 15.0 37.2
v -43.0 16.0 20.5
v -43.0 15.6 24.0
v -43.0 16.0 23.5
v -43.0 15.5 25.0
v -43.0 15.4 26.0
v -43.0 15.2 27.0
v -43.0 16.0 32.0
v -43.0 16.0 31.9
v -43.0 15.9 32.0
v -43.0 16.0 32.1
v -43.9 16.0 37.0
v -43.0 16.0 36.6
v -43.0 16.0 37.3
v -43.1 17.0 21.0
v -43.0 17.0 20.6
v -43.0 17.0 21.1
v -43.0 16.6 22.0
v -43.0 16.4 23.0
v -43.0 16.4 32.0
v -43.0 16.7 37.0
v -43.0 17.1 21.0
v -42.0 13.0 21.7
v -42.0 12.8 22.0
v -42.0 13.0 22.3
v -42.8 13.0 24.0
v -42.0 14.0 20.7
v -42.0 13.6 21.0
v -42.0 13.4 23.0
v -42.0 13.4 24.0
v -42.0 13.4 25.0
v -42.0 13.4 26.0
v -42.0 13.5 27.0
v -42.0 13.6 28.0
v -42.0 13.8 29.0
v -42.9 14.0 29.0
v -42.0 14.0 29.2
v -42.0 15.0 20.5
v -42.4 15.0 28.0
v -42.2 15.0 29.0
v -42.0 14.8 30.0
v -42.2 15.0 30.0
v -42.0 14.7 31.0
v -42.3 15.0 31.0
v -42.0 14.7 32.0
v -42.5 15.0 32.0
v -42.0 14.9 33.0
v -42.4 15.0 33.0
v -42.0 15.0 33.1
v -42.3 15.0 36.0
v -42.0 15.0 35.7
v -42.0 14.7 36.0
v -42.0 14.6 37.0
v -42.0 15.0 37.4
v -42.0 16.0 20.6
v -42.0 15.6 24.0
v -42.0 16.0 23.5
v -42.0 15.5 25.0
v -42.0 15.5 26.0
v -42.0 15.5 27.0
v -42.0 15.3 28.0
v -42.0 15.2 29.0
v -42.0 15.2 30.0
v -42.3 16.0 31.0
v -42.0 16.0 30.7
v -42.0 15.2 33.0
v -42.0 16.0 32.4
v -42.5 16.0 36.0
v -42.0 16.0 35.6
v -42.0 16.0 37.4
v -42.0 16.4 21.0
v -42.9 17.0 21.0
v -42.0 16.5 22.0
v -42.0 16.4 23.0
v -42.0 16.4 31.0
v -42.0 17.0 32.0
v -42.1 17.0 36.0
v -42.0 17.0 35.9
v -42.0 16.5 37.0
v -42.0 17.0 36.2
v -42.0 17.2 36.0
v -41.0 13.0 21.8
v -41.0 12.8 22.0
v -41.0 13.0 22.4
v -41.4 13.0 25.0
v -41.0 13.0 24.5
v -41.0 12.7 25.0
v -41.0 12.8 26.0
v -41.3 13.0 26.0
v -41.0 13.0 26.3
v -41.5 14.0 21.0
v -41.0 14.0 21.3
v -41.0 13.3 23.0
v -41.0 13.3 24.0
v -41.0 13.4 27.0
v -41.0 13.8 28.0
v -41.7 14.0 29.0
v -41.0 14.0 28.3
v -41.0 15.0 20.6
v -41.0 14.4 21.0
v -41.6 15.0 28.0
v -41.0 14.4 28.0
v -41.0 15.0 27.5
v -41.8 15.0 29.0
v -41.0 15.0 30.0
v -41.0 15.0 30.0
v -41.0 14.7 31.0
v -41.0 14.6 32.0
v -41.0 14.9 33.0
v -41.0 15.0 33.2
v -41.1 15.0 35.0
v -41.0 15.0 34.9
v -41.0 14.9 35.0
v -41.0 14.5 36.0
v -41.0 14.2 37.0
v -41.0 15.0 37.5
v -41.0 16.0 20.7
v -41.0 15.6 24.0
v -41.0 16.0 23.5
v -41.0 15.5 25.0
v -41.0 15.5 26.0
v -41.0 15.3 27.0
v -41.0 15.0 30.0
v -41.0 16.0 30.7
v -41.4 16.0 32.0
v -41.0 15.6 32.0
v -41.0 16.0 31.4
v -41.0 15.1 33.0
v -41.0 15.1 35.0
v -41.0 16.0 35.3
v -41.0 16.0 37.9
v -41.0 16.3 21.0
v -41.0 16.5 22.0
v -41.0 16.4 23.0
v -41.0 16.5 31.0
v -41.0 17.0 35.5
v -41.0 16.7 37.0
v -41.0 17.0 36.7
v -41.7 18.0 35.0
v -41.0 18.0 34.5
v -41.0 17.5 35.0
v -41.3 18.0 36.0
v -41.0 18.0 36.2
v -41.0 19.0 34.0
v -41.0 19.0 34.0
v -41.0 19.0 34.0
v -41.1 19.0 35.0
v -41.0 19.0 35.1
v -41.0 18.3 36.0
v -41.0 19.0 34.0
v -41.0 19.1 35.0
v -40.0 13.0 21.8
v -40.0 12.8 22.0
v -40.0 12.6 23.0
v -40.6 13.0 23.0
v -40.0 12.6 24.0
v -40.6 13.0 24.0
v -40.0 12.5 25.0
v -40.0 12.6 26.0
v -40.0 13.0 26.5
v -40.0 14.0 21.4
v -40.0 13.5 27.0
v -40.0 13.9 28.0
v -40.0 14.0 28.1
v -40.0 15.0 20.6
v -40.0 14.5 21.0
v -40.5 15.0 27.0
v -40.0 14.6 27.0
v -40.0 15.0 26.6
v -40.0 14.1 28.0
v -41.0 15.0 30.0
v -40.5 15.0 31.0
v -40.0 15.0 31.7
v -40.0 14.8 32.0
v -40.3 15.0 33.0
v -40.0 15.0 32.8
v -40.0 15.0 34.6
v -40.0 14.7 35.0
v -40.0 14.4 36.0
v -40.0 14.7 37.0
v -40.0 15.0 37.3
v -40.0 16.0 20.8
v -40.0 15.6 24.0
v -40.0 16.0 23.5
v -40.0 15.5 25.0
v -40.0 15.4 26.0
v -40.8 16.0 31.0
v -40.0 15.2 32.0
v -40.5 16.0 35.0
v -40.0 16.0 34.7
v -40.0 16.0 37.6
v -40.0 16.2 21.0
v -40.0 16.5 22.0
v -40.0 16.4 23.0
v -40.0 16.8 35.0
v -40.0 17.0 35.1
v -40.6 17.0 37.0
v -40.0 17.0 37.6
v -40.4 18.0 34.0
v -40.0 18.0 33.6
v -40.0 17.7 34.0
v -40.0 17.1 35.0
v -40.0 17.3 37.0
v -40.0 18.0 36.3
v -40.2 19.0 33.0
v -40.0 19.0 32.8
v -40.0 18.8 33.0
v -40.0 19.0 34.5
v -40.9 19.0 35.0
v -40.0 18.6 35.0
v -40.0 18.2 36.0
v -40.0 19.2 33.0
v -40.0 19.3 34.0
v -39.7 13.0 22.0
v -39.0 13.0 22.4
v -39.0 12.5 23.0
v -39.0 12.4 24.0
v -39.0 12.5 25.0
v -39.0 12.6 26.0
v -39.0 13.0 26.6
v -39.0 14.0 21.6
v -39.0 13.5 22.0
v -39.0 13.4 27.0
v -39.0 13.7 28.0
v -39.0 14.0 28.3
v -39.0 15.0 20.9
v -39.0 14.9 21.0
v -39.0 14.5 27.0
v -39.0 15.0 26.4
v -39.0 14.2 28.0
v -39.4 15.0 32.0
v -39.0 15.0 34.8
v -39.0 14.7 35.0
v -39.0 14.3 36.0
v -39.6 15.0 37.0
v -39.0 15.0 36.5
v -39.0 15.1 21.0
v -39.6 16.0 21.0
v -39.0 16.0 21.5
v -39.0 15.6 24.0
v -39.0 16.0 23.5
v -39.0 15.5 25.0
v -39.0 15.3 26.0
v -39.0 16.0 34.5
v -39.0 15.7 37.0
v -39.0 16.0 37.2
v -39.0 16.4 22.0
v -39.0 16.4 23.0
v -39.9 17.0 35.0
v -39.0 17.0 34.5
v -39.4 17.0 37.0
v -39.0 16.5 37.0
v -39.0 17.0 36.7
v -39.4 18.0 33.0
v -39.0 18.0 32.7
v -39.0 17.7 33.0
v -39.0 17.4 34.0
v -39.0 18.0 35.6
v -39.6 18.0 36.0
v -39.0 17.6 36.0
v -39.3 19.0 32.0
v -39.0 19.0 31.8
v -39.0 18.8 32.0
v -39.0 18.4 35.0
v -39.0 19.0 34.3
v -39.0 19.9 32.0
v -39.0 19.5 33.0
v -39.0 19.3 34.0
v -38.3 12.0 23.0
v -38.0 12.0 22.8
v -38.0 11.8 23.0
v -38.0 11.7 24.0
v -38.4 12.0 24.0
v -38.0 12.0 24.5
v -38.0 13.0 22.5
v -38.0 12.3 25.0
v -38.0 12.4 26.0
v -38.0 12.6 27.0
v -38.6 13.0 27.0
v -38.0 12.6 28.0
v -38.5 13.0 28.0
v -38.0 12.8 29.0
v -38.3 13.0 29.0
v -38.0 13.0 29.4
v -38.6 14.0 22.0
v -38.0 14.0 22.4
v -38.4 14.0 29.0
v -38.0 14.0 30.0
v -38.0 14.0 30.0
v -38.0 14.0 30.0
v -38.9 15.0 21.0
v -38.3 15.0 22.0
v -38.0 15.0 22.3
v -38.5 15.0 26.0
v -38.0 14.7 26.0
v -38.0 15.0 25.6
v -38.0 14.5 27.0
v -38.0 14.5 28.0
v -38.0 14.3 29.0
v -38.0 14.0 30.0
v -38.6 15.0 35.0
v -38.5 15.0 36.0
v -38.0 15.8 22.0
v -38.0 16.0 21.9
v -38.0 15.6 24.0
v -38.0 16.0 23.4
v -38.0 15.4 25.0
v -38.0 16.0 34.7
v -38.0 15.6 35.0
v -38.0 15.5 36.0
v -38.7 16.0 37.0
v -38.0 16.0 36.6
v -38.0 16.1 22.0
v -38.0 16.3 23.0
v -38.0 17.0 34.4
v -38.0 16.9 37.0
v -38.2 17.0 37.0
v -38.0 17.0 37.1
v -38.0 18.0 32.8
v -38.0 17.8 33.0
v -38.0 17.7 34.0
v -38.0 17.6 36.0
v -38.0 18.0 35.3
v -38.0 17.1 37.0
v -38.0 19.0 32.0
v -38.0 19.0 32.0
v -38.6 19.0 34.0
v -38.0 18.4 34.0
v -38.0 19.0 33.3
v -38.0 18.2 35.0
v -38.0 19.2 33.0
v -37.0 12.0 22.8
v -37.0 11.8 23.0
v -37.0 11.6 24.0
v -37.0 11.6 25.0
v -37.6 12.0 25.0
v -37.0 11.7 26.0
v -37.4 12.0 26.0
v -37.0 12.0 26.5
v -37.2 12.0 31.0
v -37.0 12.0 30.7
v -37.0 11.8 31.0
v -37.0 11.7 32.0
v -37.3 12.0 32.0
v -37.0 11.9 33.0
v -37.1 12.0 33.0
v -37.0 12.0 33.1
v -37.0 13.0 22.5
v -37.0 12.3 27.0
v -37.0 12.6 28.0
v -37.0 12.5 29.0
v -37.0 12.6 30.0
v -37.5 13.0 30.0
v -37.4 13.0 31.0
v -37.4 13.0 32.0
v -37.3 13.0 33.0
v -37.0 12.8 34.0
v -37.2 13.0 34.0
v -37.0 13.0 34.2
v -37.0 14.0 22.5
v -37.0 13.4 31.0
v -37.0 14.0 30.3
v -37.0 13.4 32.0
v -37.0 13.5 33.0
v -37.1 14.0 34.0
v -37.0 14.0 33.8
v -37.0 14.0 34.1
v -37.0 15.0 22.5
v -37.0 14.8 26.0
v -37.0 15.0 25.7
v -37.0 14.6 27.0
v -37.0 14.6 28.0
v -37.0 14.5 29.0
v -37.0 14.2 30.0
v -37.0 14.2 34.0
v -37.9 16.0 22.0
v -37.0 16.0 22.9
v -37.0 15.6 24.0
v -37.0 16.0 23.1
v -37.0 15.5 25.0
v -37.1 16.0 35.0
v -37.0 16.0 35.1
v -37.0 15.7 36.0
v -37.0 16.0 36.3
v -37.0 16.1 23.0
v -37.0 17.0 34.9
v -37.0 16.2 35.0
v -37.4 17.0 37.0
v -37.0 17.0 36.9
v -37.8 18.0 33.0
v -37.8 18.0 34.0
v -37.0 17.2 35.0
v -37.7 18.0 35.0
v -37.0 17.3 36.0
v -37.8 19.0 33.0
v -36.7 12.0 23.0
v -36.4 12.0 24.0
v -36.0 12.0 24.4
v -36.0 11.6 25.0
v -36.0 11.6 26.0
v -36.0 11.8 27.0
v -36.4 12.0 27.0
v -36.0 12.0 27.3
v -36.0 12.0 30.7
v -36.0 11.8 31.0
v -36.0 11.7 32.0
v -36.8 12.0 33.0
v -36.0 12.0 32.6
v -36.0 13.0 22.8
v -36.0 12.7 23.0
v -36.0 12.3 24.0
v -36.0 12.9 28.0
v -36.0 12.7 29.0
v -36.0 12.6 30.0
v -36.0 12.3 33.0
v -36.0 12.8 34.0
v -36.0 13.0 34.2
v -36.0 14.0 22.6
v -36.4 14.0 30.0
v -36.0 13.7 30.0
v -36.0 14.0 29.8
v -36.0 13.7 31.0
v -36.3 14.0 32.0
v -36.0 14.0 31.5
v -36.6 14.0 33.0
v -36.0 14.0 34.5
v -36.0 15.0 22.8
v -36.7 15.0 26.0
v -36.5 15.0 27.0
v -36.3 15.0 28.0
v -36.0 15.0 28.3
v -36.0 14.5 29.0
v -36.0 14.3 32.0
v -36.0 14.5 33.0
v -36.5 15.0 34.0
v -36.0 15.0 33.6
v -36.0 14.6 35.0
v -36.9 15.0 35.0
v -36.0 15.0 35.4
v -36.0 15.3 23.0
v -36.9 16.0 23.0
v -36.0 15.6 24.0
v -36.1 16.0 25.0
v -36.0 16.0 24.9
v -36.0 16.0 25.1
v -36.0 15.5 26.0
v -36.0 15.4 27.0
v -36.0 15.2 28.0
v -36.0 16.0 34.0
v -36.9 16.0 35.0
v -36.0 16.0 34.1
v -36.0 16.0 36.0
v -36.0 16.0 36.0
v -36.0 16.1 25.0
v -36.8 17.0 35.0
v -36.0 16.3 35.0
v -36.6 17.0 36.0
v -35.0 12.0 24.8
v -35.0 11.9 25.0
v -35.2 12.0 26.0
v -35.0 12.0 25.5
v -35.0 12.0 26.3
v -35.0 11.8 27.0
v -35.0 12.0 27.3
v -35.7 12.0 31.0
v -35.6 12.0 32.0
v -35.7 13.0 23.0
v -35.0 13.0 23.5
v -35.0 12.5 24.0
v -35.0 12.1 26.0
v -35.0 12.6 28.0
v -35.5 13.0 29.0
v -35.0 13.0 28.6
v -35.5 13.0 30.0
v -35.0 13.0 30.4
v -35.0 12.5 31.0
v -35.0 12.4 32.0
v -35.2 13.0 33.0
v -35.0 13.0 32.8
v -35.7 13.0 34.0
v -35.5 14.0 23.0
v -35.0 14.0 23.4
v -35.0 13.4 29.0
v -35.6 14.0 30.0
v -35.0 13.5 30.0
v -35.6 14.0 31.0
v -35.0 13.3 33.0
v -35.0 13.7 34.0
v -35.0 14.0 34.3
v -35.7 15.0 23.0
v -35.0 15.0 23.6
v -35.0 14.6 29.0
v -35.0 15.0 28.6
v -35.0 14.3 30.0
v -35.0 14.4 31.0
v -35.0 14.4 32.0
v -35.0 14.4 33.0
v -35.0 15.0 33.7
v -35.0 15.0 35.0
v -35.0 15.0 35.0
v -35.0 15.4 24.0
v -35.0 16.0 24.7
v -35.0 15.6 26.0
v -35.0 16.0 25.3
v -35.0 15.5 27.0
v -35.0 15.4 28.0
v -35.0 15.2 34.0
v -35.7 16.0 35.0
v -35.0 15.0 35.0
v -35.0 16.2 25.0
v -34.8 12.0 25.0
v -34.0 12.0 26.9
v -34.0 11.9 27.0
v -34.0 12.0 27.1
v -34.0 13.0 23.8
v -34.0 12.8 24.0
v -34.0 12.5 25.0
v -34.0 12.4 26.0
v -34.0 12.5 28.0
v -34.0 13.0 28.7
v -34.0 13.0 30.4
v -34.0 12.6 31.0
v -34.0 12.6 32.0
v -34.0 13.0 32.4
v -34.0 14.0 23.7
v -34.0 13.3 29.0
v -34.0 13.4 30.0
v -34.6 14.0 33.0
v -34.0 14.0 32.4
v -34.8 14.0 34.0
v -34.0 14.5 24.0
v -34.5 15.0 24.0
v -34.0 15.0 24.3
v -34.3 15.0 29.0
v -34.0 15.0 29.2
v -34.0 14.5 30.0
v -34.0 14.5 31.0
v -34.0 14.4 32.0
v -34.8 15.0 34.0
v -35.0 15.0 35.0
v -34.0 16.0 25.0
v -34.0 15.6 26.0
v -34.0 16.0 25.0
v -34.0 15.5 27.0
v -34.0 15.4 28.0
v -34.0 15.1 29.0
v -34.0 16.0 25.0
v -33.9 12.0 27.0
v -33.8 13.0 24.0
v -33.4 13.0 25.0
v -33.0 13.0 25.5
v -33.0 12.7 26.0
v -33.0 12.4 27.0
v -33.0 12.5 28.0
v -33.0 12.6 29.0
v -33.7 13.0 29.0
v -33.0 12.6 30.0
v -33.7 13.0 30.0
v -33.0 12.5 31.0
v -33.0 12.6 32.0
v -33.0 13.0 32.3
v -33.7 14.0 24.0
v -33.0 14.0 24.5
v -33.0 13.4 25.0
v -33.0 14.0 32.2
v -33.0 15.0 24.6
v -33.4 15.0 28.0
v -33.0 14.7 28.0
v -33.0 15.0 27.6
v -33.8 15.0 29.0
v -33.0 14.6 29.0
v -33.0 14.5 30.0
v -33.0 14.5 31.0
v -33.0 14.2 32.0
v -33.0 15.4 25.0
v -34.0 16.0 25.0
v -33.0 15.5 26.0
v -33.0 15.4 27.0
v -32.5 13.0 26.0
v -32.0 13.0 26.6
v -32.0 12.8 27.0
v -32.0 12.6 28.0
v -32.0 12.5 29.0
v -32.0 12.5 30.0
v -32.0 12.5 31.0
v -32.0 12.5 32.0
v -32.0 13.0 32.2
v -32.0 14.0 24.8
v -32.0 13.8 25.0
v -32.0 13.5 26.0
v -32.6 14.0 32.0
v -32.0 13.3 32.0
v -32.0 14.0 31.4
v -32.0 15.0 24.8
v -32.0 14.5 28.0
v -32.0 15.0 27.3
v -32.0 14.5 29.0
v -32.0 14.5 30.0
v -32.0 14.3 31.0
v -32.0 15.2 25.0
v -32.0 15.3 26.0
v -32.0 15.2 27.0
v -31.8 13.0 27.0
v -31.6 13.0 28.0
v -31.0 13.0 28.7
v -31.0 12.8 29.0
v -31.0 12.7 30.0
v -31.0 12.9 31.0
v -31.8 13.0 32.0
v -31.0 13.0 31.1
v -31.8 14.0 25.0
v -31.6 14.0 26.0
v -31.5 14.0 27.0
v -31.5 14.0 28.0
v -31.0 14.0 28.7
v -31.6 14.0 31.0
v -31.0 13.1 31.0
v -31.0 14.0 30.3
v -31.8 15.0 25.0
v -31.7 15.0 26.0
v -31.8 15.0 27.0
v -31.0 14.2 29.0
v -31.0 14.2 30.0
v -30.8 13.0 29.0
v -30.7 13.0 30.0
v -30.9 13.0 31.0
v -30.8 14.0 29.0
v -30.8 14.0 30.0
f 3 2 1
f 5 4 1
f 1 4 3
f 5 6 4
f 9 8 7
f 9 7 2
f 7 1 2
f 7 10 1
f 12 5 11
f 5 10 11
f 5 1 10
f 5 12 6
f 8 13 7
f 7 13 10
f 10 13 14
f 10 14 11
f 17 16 15
f 15 18 17
f 21 20 19
f 21 19 16
f 19 15 16
f 19 22 15
f 18 15 23
f 15 24 23
f 15 22 24
f 24 25 23
f 28 27 26
f 30 29 26
f 26 29 28
f 29 30 20
f 20 30 19
f 30 2 19
f 2 3 19
f 19 3 4
f 19 4 22
f 24 22 31
f 22 6 31
f 6 32 31
f 6 22 4
f 24 31 25
f 26 27 33
f 33 27 34
f 33 8 9
f 30 33 9
f 26 33 30
f 30 35 2
f 35 30 36
f 9 36 30
f 36 9 37
f 2 37 9
f 37 2 35
f 12 11 37
f 35 12 37
f 38 12 35
f 6 12 32
f 32 12 38
f 34 39 33
f 33 39 8
f 39 13 8
f 39 40 13
f 37 14 36
f 14 40 36
f 14 13 40
f 14 37 11
f 43 42 41
f 41 44 43
f 46 45 17
f 17 45 16
f 47 41 18
f 41 46 18
f 46 17 18
f 41 42 46
f 44 41 48
f 48 41 47
f 51 50 49
f 20 21 49
f 21 51 49
f 21 52 51
f 21 16 45
f 21 45 52
f 23 47 18
f 54 53 25
f 25 53 23
f 53 48 23
f 48 47 23
f 54 55 53
f 56 27 28
f 50 57 49
f 57 28 49
f 28 29 49
f 28 57 56
f 49 29 20
f 32 58 31
f 54 25 31
f 58 54 31
f 59 54 58
f 55 54 60
f 60 54 59
f 62 61 56
f 61 27 56
f 61 34 27
f 62 56 57
f 64 63 35
f 64 35 36
f 35 65 38
f 63 65 35
f 32 38 58
f 38 66 58
f 38 65 66
f 58 66 59
f 59 66 67
f 59 67 60
f 61 68 34
f 34 68 39
f 39 69 40
f 68 69 39
f 36 40 64
f 64 40 69
f 72 71 70
f 42 43 70
f 43 72 70
f 43 73 72
f 43 44 73
f 73 44 74
f 77 76 75
f 79 78 75
f 75 78 77
f 78 79 71
f 71 79 70
f 79 45 70
f 45 46 70
f 70 46 42
f 48 74 44
f 48 80 74
f 75 76 51
f 76 50 51
f 76 81 50
f 75 51 52
f 75 52 79
f 79 52 45
f 82 80 48
f 82 48 53
f 53 55 82
f 82 55 83
f 81 57 50
f 84 57 81
f 60 83 55
f 60 85 83
f 87 86 62
f 62 86 61
f 62 57 84
f 62 84 87
f 89 88 63
f 89 63 64
f 63 90 65
f 88 90 63
f 65 91 66
f 90 91 65
f 66 92 67
f 91 92 66
f 60 67 85
f 85 67 92
f 86 93 61
f 61 93 68
f 68 94 69
f 93 94 68
f 64 69 89
f 89 69 94
f 97 96 95
f 95 98 97
f 100 99 72
f 72 99 71
f 101 72 73
f 101 100 72
f 73 74 101
f 101 74 102
f 95 96 77
f 96 76 77
f 96 103 76
f 104 98 95
f 77 104 95
f 78 104 77
f 78 71 99
f 78 99 104
f 80 102 74
f 80 105 102
f 103 81 76
f 106 81 103
f 80 82 107
f 108 80 107
f 105 80 108
f 83 107 82
f 106 84 81
f 109 84 106
f 112 111 110
f 110 111 108
f 107 110 108
f 113 110 107
f 85 113 83
f 83 113 107
f 114 86 87
f 84 109 115
f 114 84 115
f 116 114 115
f 87 84 114
f 88 89 116
f 115 88 116
f 117 88 115
f 88 118 90
f 117 118 88
f 110 91 112
f 91 118 112
f 91 90 118
f 91 110 92
f 92 110 113
f 92 113 85
f 114 93 86
f 93 114 94
f 94 114 116
f 94 116 89
f 120 119 97
f 97 119 96
f 122 121 98
f 121 97 98
f 121 120 97
f 99 100 122
f 100 121 122
f 100 123 121
f 124 100 101
f 124 123 100
f 126 125 102
f 125 101 102
f 125 124 101
f 126 127 125
f 119 103 96
f 128 103 119
f 104 122 98
f 122 104 99
f 105 129 126
f 105 126 102
f 127 126 130
f 130 126 129
f 128 106 103
f 131 106 128
f 108 132 129
f 108 129 105
f 130 129 133
f 133 129 132
f 131 109 106
f 134 109 131
f 136 135 111
f 136 111 112
f 108 111 132
f 111 137 132
f 111 135 137
f 132 137 133
f 134 138 109
f 109 138 115
f 115 139 117
f 138 139 115
f 117 140 118
f 139 140 117
f 112 118 136
f 136 118 140
f 141 119 120
f 141 120 142
f 120 143 142
f 120 121 143
f 145 143 144
f 143 123 144
f 143 121 123
f 144 123 146
f 123 147 146
f 123 124 147
f 149 147 148
f 147 125 148
f 147 124 125
f 127 148 125
f 151 150 141
f 150 119 141
f 150 128 119
f 151 141 142
f 152 145 144
f 152 144 146
f 153 149 148
f 127 130 148
f 130 154 148
f 154 153 148
f 154 130 155
f 157 156 155
f 155 156 154
f 159 158 157
f 157 158 156
f 159 160 158
f 150 131 128
f 161 131 150
f 133 162 155
f 133 155 130
f 155 163 157
f 155 162 163
f 165 159 164
f 159 163 164
f 159 157 163
f 159 165 160
f 168 167 166
f 166 169 168
f 161 134 131
f 170 134 161
f 172 171 135
f 172 135 136
f 135 173 137
f 171 173 135
f 133 137 162
f 137 174 162
f 137 173 174
f 162 174 163
f 163 174 175
f 163 175 164
f 178 177 176
f 176 179 178
f 166 167 180
f 180 167 181
f 169 166 182
f 182 166 180
f 138 134 183
f 134 184 183
f 134 170 184
f 138 183 185
f 186 138 185
f 139 138 186
f 139 187 140
f 186 187 139
f 136 140 172
f 172 140 187
f 177 188 176
f 176 188 179
f 181 189 180
f 180 189 182
f 184 190 183
f 183 190 185
f 192 191 143
f 143 191 142
f 143 145 192
f 192 145 193
f 194 146 147
f 149 194 147
f 196 195 151
f 151 195 150
f 151 142 191
f 151 191 196
f 197 193 145
f 197 145 152
f 152 146 194
f 198 152 194
f 197 152 198
f 198 194 149
f 153 198 149
f 199 198 153
f 200 153 154
f 200 199 153
f 201 154 156
f 201 200 154
f 202 156 158
f 202 201 156
f 204 203 160
f 203 158 160
f 203 202 158
f 204 205 203
f 195 161 150
f 206 161 195
f 164 207 165
f 204 160 165
f 207 204 165
f 208 204 207
f 205 204 209
f 204 210 209
f 204 208 210
f 212 211 210
f 210 211 209
f 214 213 212
f 212 213 211
f 216 215 214
f 214 215 213
f 216 217 215
f 220 219 218
f 167 168 218
f 168 220 218
f 168 221 220
f 168 169 221
f 221 169 222
f 206 170 161
f 223 170 206
f 225 224 171
f 225 171 172
f 171 226 173
f 224 226 171
f 173 227 174
f 226 227 173
f 174 228 175
f 227 228 174
f 164 175 207
f 175 229 207
f 175 228 229
f 207 229 208
f 208 229 230
f 208 230 210
f 210 230 231
f 233 232 231
f 232 210 231
f 232 212 210
f 232 177 178
f 214 232 178
f 212 232 214
f 216 214 234
f 214 179 234
f 179 235 234
f 179 214 178
f 216 234 217
f 218 219 236
f 236 219 237
f 236 181 167
f 236 167 218
f 182 222 169
f 182 238 222
f 240 184 239
f 184 223 239
f 184 170 223
f 186 185 240
f 239 186 240
f 241 186 239
f 186 242 187
f 241 242 186
f 172 187 225
f 225 187 242
f 233 243 232
f 232 243 177
f 243 188 177
f 243 244 188
f 179 188 235
f 235 188 244
f 236 237 245
f 245 237 246
f 236 245 181
f 245 247 181
f 247 189 181
f 245 248 247
f 182 189 238
f 238 189 247
f 240 190 184
f 190 240 185
f 246 249 245
f 245 249 248
f 251 250 192
f 192 250 191
f 192 193 251
f 251 193 252
f 255 254 253
f 257 256 253
f 253 256 255
f 257 258 256
f 259 195 196
f 260 259 196
f 191 260 196
f 250 260 191
f 261 252 193
f 261 193 197
f 262 197 198
f 262 261 197
f 199 253 254
f 262 199 254
f 198 199 262
f 253 199 200
f 253 200 257
f 263 258 257
f 200 263 257
f 201 263 200
f 264 201 202
f 264 263 201
f 266 264 265
f 264 203 265
f 264 202 203
f 205 265 203
f 268 267 259
f 267 195 259
f 267 206 195
f 268 259 260
f 271 270 269
f 269 270 266
f 265 269 266
f 272 269 265
f 272 265 205
f 273 272 205
f 209 273 205
f 274 272 273
f 275 209 211
f 275 273 209
f 276 211 213
f 276 275 211
f 277 213 215
f 277 276 213
f 215 217 277
f 277 217 278
f 281 280 279
f 219 220 279
f 220 281 279
f 220 282 281
f 283 220 221
f 283 282 220
f 221 222 283
f 283 222 284
f 267 223 206
f 285 223 267
f 287 286 224
f 287 224 225
f 224 288 226
f 286 288 224
f 226 289 227
f 288 289 226
f 227 290 228
f 289 290 227
f 269 229 271
f 229 290 271
f 229 228 290
f 229 269 230
f 230 269 272
f 274 291 272
f 291 230 272
f 291 231 230
f 233 231 291
f 233 291 292
f 295 294 293
f 234 235 293
f 294 234 293
f 296 234 294
f 217 234 278
f 278 234 296
f 280 297 279
f 219 279 297
f 298 219 297
f 237 219 298
f 238 284 222
f 238 299 284
f 285 300 223
f 223 300 239
f 239 301 241
f 300 301 239
f 241 302 242
f 301 302 241
f 225 242 287
f 287 242 302
f 292 303 233
f 233 303 243
f 293 244 295
f 244 303 295
f 244 243 303
f 244 293 235
f 298 246 237
f 304 246 298
f 306 305 247
f 306 247 248
f 238 247 299
f 299 247 305
f 309 308 307
f 307 310 249
f 304 307 249
f 246 304 249
f 307 304 309
f 310 311 249
f 311 248 249
f 311 306 248
f 314 313 312
f 314 312 308
f 312 307 308
f 312 315 307
f 317 310 316
f 310 315 316
f 310 307 315
f 310 317 311
f 313 318 312
f 312 318 315
f 315 318 319
f 315 319 316
f 321 320 251
f 251 320 250
f 323 322 252
f 322 251 252
f 322 321 251
f 325 324 323
f 323 324 322
f 254 255 325
f 255 324 325
f 255 326 324
f 327 255 256
f 327 326 255
f 256 258 327
f 327 258 328
f 320 260 250
f 329 260 320
f 261 323 252
f 323 261 262
f 323 262 325
f 325 262 254
f 330 328 258
f 330 258 263
f 331 263 264
f 331 330 263
f 264 266 331
f 331 266 332
f 334 333 268
f 268 333 267
f 268 260 329
f 268 329 334
f 337 336 335
f 270 271 335
f 336 270 335
f 338 270 336
f 266 270 332
f 332 270 338
f 339 274 273
f 275 340 273
f 273 340 339
f 340 275 341
f 275 342 341
f 275 276 342
f 344 342 343
f 342 277 343
f 342 276 277
f 278 343 277
f 346 345 281
f 281 345 280
f 347 281 282
f 347 346 281
f 348 282 283
f 348 347 282
f 283 284 348
f 348 284 349
f 333 285 267
f 350 285 333
f 352 351 286
f 352 286 287
f 286 353 288
f 351 353 286
f 288 354 289
f 353 354 288
f 335 290 337
f 290 354 337
f 290 289 354
f 290 335 271
f 339 291 274
f 291 339 292
f 339 355 292
f 339 340 355
f 356 294 295
f 340 356 295
f 355 340 295
f 356 340 341
f 343 296 344
f 296 356 344
f 296 294 356
f 296 343 278
f 297 280 357
f 280 358 357
f 280 345 358
f 357 298 297
f 299 349 284
f 299 359 349
f 350 360 285
f 285 360 300
f 300 361 301
f 360 361 300
f 301 362 302
f 361 362 301
f 287 302 352
f 352 302 362
f 355 303 292
f 303 355 295
f 358 363 357
f 298 357 363
f 364 298 363
f 304 298 364
f 306 365 305
f 365 366 305
f 366 299 305
f 366 359 299
f 369 368 367
f 308 309 367
f 309 369 367
f 309 370 369
f 309 304 364
f 309 364 370
f 372 371 365
f 306 372 365
f 311 372 306
f 365 371 366
f 375 374 373
f 375 373 368
f 368 373 367
f 373 313 367
f 313 314 367
f 308 367 314
f 378 377 376
f 317 316 377
f 378 317 377
f 379 317 378
f 311 317 372
f 372 317 379
f 374 380 373
f 373 380 313
f 380 318 313
f 380 381 318
f 377 319 376
f 319 381 376
f 319 318 381
f 319 377 316
f 382 320 321
f 382 321 383
f 321 384 383
f 321 322 384
f 385 322 324
f 385 384 322
f 386 324 326
f 386 385 324
f 387 326 327
f 387 386 326
f 327 328 387
f 387 328 388
f 390 389 382
f 389 320 382
f 389 329 320
f 390 382 383
f 391 388 328
f 391 328 330
f 392 330 331
f 392 391 330
f 331 332 392
f 392 332 393
f 395 394 334
f 334 394 333
f 334 329 389
f 334 389 395
f 397 396 336
f 397 336 337
f 336 398 338
f 396 398 336
f 332 338 393
f 393 338 398
f 399 341 342
f 344 399 342
f 401 400 346
f 346 400 345
f 402 346 347
f 402 401 346
f 404 402 403
f 402 348 403
f 402 347 348
f 349 403 348
f 406 350 405
f 350 394 405
f 350 333 394
f 407 406 405
f 409 408 351
f 409 351 352
f 351 410 353
f 408 410 351
f 353 411 354
f 410 411 353
f 337 354 397
f 397 354 411
f 399 356 341
f 356 399 344
f 400 358 345
f 412 358 400
f 413 404 403
f 403 349 413
f 349 414 413
f 349 359 414
f 406 360 350
f 407 415 406
f 415 360 406
f 415 361 360
f 361 416 362
f 415 416 361
f 352 362 409
f 409 362 416
f 363 358 417
f 358 418 417
f 358 412 418
f 417 364 363
f 421 420 419
f 420 414 419
f 414 366 419
f 414 359 366
f 424 423 422
f 368 369 422
f 369 424 422
f 369 425 424
f 370 417 418
f 425 370 418
f 369 370 425
f 364 417 370
f 428 427 426
f 427 428 421
f 427 421 419
f 372 427 419
f 371 372 419
f 371 419 366
f 431 430 429
f 431 429 423
f 423 429 422
f 429 374 422
f 374 375 422
f 422 375 368
f 433 432 378
f 433 378 376
f 427 379 426
f 379 432 426
f 379 378 432
f 379 427 372
f 430 434 429
f 429 434 374
f 434 380 374
f 434 435 380
f 380 436 381
f 435 436 380
f 376 381 433
f 433 381 436
f 439 438 437
f 441 440 437
f 437 440 439
f 441 442 440
f 437 438 384
f 438 383 384
f 438 443 383
f 437 384 385
f 437 385 441
f 444 442 441
f 385 444 441
f 386 444 385
f 445 386 387
f 445 444 386
f 447 446 388
f 446 387 388
f 446 445 387
f 449 448 447
f 447 448 446
f 451 450 449
f 449 450 448
f 451 452 450
f 453 389 390
f 454 453 390
f 383 454 390
f 443 454 383
f 391 447 388
f 447 391 392
f 447 392 449
f 449 392 393
f 455 449 393
f 451 449 455
f 452 451 456
f 451 457 456
f 451 455 457
f 457 458 456
f 459 394 395
f 389 453 395
f 453 459 395
f 453 460 459
f 453 454 461
f 453 461 460
f 464 463 462
f 396 397 462
f 463 396 462
f 465 396 463
f 396 466 398
f 465 466 396
f 393 398 455
f 398 467 455
f 398 466 467
f 455 467 457
f 457 467 468
f 457 468 458
f 469 400 401
f 402 470 401
f 401 470 469
f 404 470 402
f 459 405 394
f 459 460 471
f 407 459 471
f 472 407 471
f 459 407 405
f 471 460 461
f 474 473 408
f 474 408 409
f 408 475 410
f 473 475 408
f 462 411 464
f 411 475 464
f 411 410 475
f 411 462 397
f 477 476 469
f 476 400 469
f 476 412 400
f 477 469 470
f 477 470 478
f 480 478 479
f 479 478 413
f 478 470 413
f 470 404 413
f 414 479 413
f 472 481 407
f 407 481 415
f 415 482 416
f 481 482 415
f 409 416 474
f 474 416 482
f 476 418 412
f 483 418 476
f 480 485 484
f 480 421 485
f 480 479 420
f 421 480 420
f 479 414 420
f 486 484 485
f 488 487 424
f 424 487 423
f 489 424 425
f 489 488 424
f 425 418 483
f 425 483 489
f 491 490 428
f 491 428 426
f 421 428 485
f 428 492 485
f 428 490 492
f 485 492 486
f 493 430 431
f 494 493 431
f 423 494 431
f 487 494 423
f 497 496 495
f 432 433 495
f 496 432 495
f 498 432 496
f 426 432 491
f 491 432 498
f 493 434 430
f 494 499 493
f 499 434 493
f 499 435 434
f 495 436 497
f 436 499 497
f 436 435 499
f 436 495 433
f 501 500 439
f 439 500 438
f 502 439 440
f 502 501 439
f 504 503 442
f 503 440 442
f 503 502 440
f 506 505 504
f 504 505 503
f 506 507 505
f 510 509 508
f 512 511 508
f 508 511 510
f 514 513 512
f 512 513 511
f 514 515 513
f 500 443 438
f 516 443 500
f 444 504 442
f 504 444 445
f 504 445 506
f 517 507 506
f 445 517 506
f 446 517 445
f 518 446 448
f 518 517 446
f 519 448 450
f 519 518 448
f 521 520 452
f 520 450 452
f 520 519 450
f 520 521 509
f 521 508 509
f 521 522 508
f 508 523 512
f 508 522 523
f 512 524 514
f 512 523 524
f 515 514 525
f 514 526 525
f 514 524 526
f 526 527 525
f 516 454 443
f 528 454 516
f 456 521 452
f 522 521 529
f 521 458 529
f 458 530 529
f 458 521 456
f 522 529 523
f 523 529 531
f 523 531 524
f 524 531 532
f 534 533 532
f 533 524 532
f 533 526 524
f 527 526 535
f 535 526 533
f 528 461 454
f 536 461 528
f 538 537 463
f 538 463 464
f 463 539 465
f 537 539 463
f 465 540 466
f 539 540 465
f 466 541 467
f 540 541 466
f 467 542 468
f 541 542 467
f 458 468 530
f 530 468 542
f 534 543 533
f 533 543 535
f 544 472 471
f 545 544 471
f 461 545 471
f 536 545 461
f 547 546 473
f 547 473 474
f 473 548 475
f 546 548 473
f 464 475 538
f 538 475 548
f 549 476 477
f 549 477 550
f 477 551 550
f 477 478 551
f 478 480 551
f 551 480 552
f 544 481 472
f 545 553 544
f 553 481 544
f 553 482 481
f 474 482 547
f 547 482 553
f 555 554 549
f 554 476 549
f 554 483 476
f 555 549 550
f 480 484 556
f 557 480 556
f 552 480 557
f 486 556 484
f 558 487 488
f 489 559 488
f 488 559 558
f 483 554 560
f 559 483 560
f 561 559 560
f 489 483 559
f 490 491 561
f 560 490 561
f 562 490 560
f 556 492 557
f 492 562 557
f 492 490 562
f 492 556 486
f 563 494 558
f 558 494 487
f 497 563 496
f 563 559 496
f 563 558 559
f 496 559 498
f 498 559 561
f 498 561 491
f 563 499 494
f 499 563 497
f 564 500 501
f 502 565 501
f 501 565 564
f 565 502 566
f 502 567 566
f 502 503 567
f 568 503 505
f 568 567 503
f 570 569 507
f 569 505 507
f 569 568 505
f 570 571 569
f 573 572 510
f 510 572 509
f 574 510 511
f 574 573 510
f 576 574 575
f 574 513 575
f 574 511 513
f 515 575 513
f 578 577 564
f 577 500 564
f 577 516 500
f 578 564 565
f 578 565 579
f 579 565 566
f 517 570 507
f 580 571 570
f 517 580 570
f 518 580 517
f 581 518 519
f 581 580 518
f 582 519 520
f 582 581 519
f 520 509 572
f 520 572 582
f 583 576 575
f 583 575 515
f 525 583 515
f 584 583 525
f 525 527 584
f 584 527 585
f 577 528 516
f 586 528 577
f 589 588 587
f 529 530 587
f 588 529 587
f 590 529 588
f 590 592 591
f 531 590 591
f 529 590 531
f 593 532 531
f 593 531 591
f 593 534 532
f 535 585 527
f 535 594 585
f 586 536 528
f 595 536 586
f 538 596 537
f 597 539 537
f 597 537 596
f 598 540 539
f 598 539 597
f 540 598 599
f 600 540 599
f 541 540 600
f 587 542 589
f 542 600 589
f 542 541 600
f 542 587 530
f 592 601 591
f 591 601 593
f 593 601 602
f 602 604 603
f 602 603 543
f 593 602 543
f 534 593 543
f 594 535 605
f 535 603 605
f 603 606 605
f 535 543 603
f 606 607 605
f 609 545 608
f 545 595 608
f 545 536 595
f 546 547 609
f 608 546 609
f 610 546 608
f 610 612 611
f 548 610 611
f 546 610 548
f 611 613 548
f 548 613 538
f 613 614 538
f 614 596 538
f 596 614 597
f 597 614 615
f 597 615 598
f 598 615 616
f 598 616 599
f 604 617 603
f 619 618 617
f 618 603 617
f 618 606 603
f 607 621 620
f 621 607 551
f 606 551 607
f 551 606 550
f 618 550 606
f 552 621 551
f 609 553 545
f 553 609 547
f 612 622 611
f 611 622 613
f 624 623 619
f 623 554 619
f 555 618 619
f 555 619 554
f 618 555 550
f 624 620 623
f 621 623 620
f 623 621 625
f 557 625 552
f 552 625 621
f 623 560 554
f 560 623 562
f 562 623 625
f 562 625 557
f 627 626 567
f 567 626 566
f 629 627 628
f 627 568 628
f 627 567 568
f 628 568 630
f 568 631 630
f 568 569 631
f 569 571 631
f 631 571 632
f 633 572 573
f 574 634 573
f 573 634 633
f 576 634 574
f 635 577 578
f 635 578 636
f 578 637 636
f 578 579 637
f 579 566 626
f 579 626 637
f 638 629 628
f 638 628 630
f 639 632 571
f 639 571 580
f 641 639 640
f 639 581 640
f 639 580 581
f 582 642 581
f 581 642 640
f 643 642 582
f 643 582 572
f 644 643 572
f 633 644 572
f 644 633 634
f 644 634 645
f 647 645 646
f 646 645 583
f 645 634 583
f 634 576 583
f 584 648 583
f 583 648 646
f 585 648 584
f 649 586 635
f 635 586 577
f 635 636 650
f 635 650 649
f 651 641 640
f 652 588 589
f 640 653 651
f 653 640 642
f 643 653 642
f 590 588 654
f 652 654 588
f 654 592 590
f 655 647 646
f 655 646 648
f 655 648 656
f 648 585 656
f 585 657 656
f 585 594 657
f 658 595 649
f 649 595 586
f 649 650 659
f 649 659 658
f 661 660 600
f 661 600 599
f 589 600 652
f 600 662 652
f 600 660 662
f 652 662 654
f 654 662 663
f 654 663 592
f 663 601 592
f 663 664 601
f 601 665 602
f 664 665 601
f 604 602 665
f 604 665 666
f 667 657 594
f 667 594 605
f 605 607 667
f 667 607 668
f 658 608 595
f 659 669 658
f 669 608 658
f 669 610 608
f 612 610 669
f 612 669 670
f 672 671 614
f 672 614 613
f 614 673 615
f 671 673 614
f 615 674 616
f 673 674 615
f 599 616 661
f 661 616 674
f 666 675 604
f 604 675 617
f 677 676 619
f 617 677 619
f 675 677 617
f 677 668 676
f 668 620 676
f 668 607 620
f 670 678 612
f 612 678 622
f 613 622 672
f 672 622 678
f 676 624 619
f 624 676 620
f 679 626 627
f 629 679 627
f 681 680 631
f 631 680 630
f 631 632 681
f 681 632 682
f 684 683 637
f 637 683 636
f 637 626 679
f 685 637 679
f 684 637 685
f 685 679 629
f 638 685 629
f 686 685 638
f 638 630 680
f 638 680 686
f 687 682 632
f 687 632 639
f 639 641 687
f 687 641 688
f 690 689 644
f 644 689 643
f 691 644 645
f 691 690 644
f 645 647 691
f 691 647 692
f 683 650 636
f 693 650 683
f 694 688 641
f 694 641 651
f 695 651 653
f 695 694 651
f 653 643 689
f 653 689 695
f 647 655 696
f 697 647 696
f 692 647 697
f 656 698 655
f 655 698 696
f 657 698 656
f 700 659 699
f 659 693 699
f 659 650 693
f 701 700 699
f 661 702 660
f 660 702 703
f 704 660 703
f 662 660 704
f 662 705 663
f 704 705 662
f 663 706 664
f 705 706 663
f 696 665 697
f 665 706 697
f 665 664 706
f 665 696 666
f 696 707 666
f 696 698 707
f 667 708 657
f 708 698 657
f 708 707 698
f 668 708 667
f 700 669 659
f 670 669 700
f 701 670 700
f 709 670 701
f 711 710 671
f 711 671 672
f 671 712 673
f 710 712 671
f 673 713 674
f 712 713 673
f 661 674 702
f 674 714 702
f 674 713 714
f 702 714 703
f 707 675 666
f 675 707 677
f 677 707 708
f 677 708 668
f 709 715 670
f 670 715 678
f 672 678 711
f 711 678 715
f 716 680 681
f 682 716 681
f 717 683 684
f 685 718 684
f 684 718 717
f 718 685 719
f 685 720 719
f 685 686 720
f 686 680 716
f 721 686 716
f 720 686 721
f 721 716 682
f 687 721 682
f 722 721 687
f 724 723 688
f 723 687 688
f 723 722 687
f 726 725 724
f 724 725 723
f 689 690 726
f 690 725 726
f 690 727 725
f 728 690 691
f 728 727 690
f 691 692 728
f 728 692 729
f 730 693 717
f 717 693 683
f 718 732 731
f 730 718 731
f 717 718 730
f 732 718 719
f 694 724 688
f 724 694 695
f 724 695 726
f 726 695 689
f 697 729 692
f 697 733 729
f 730 699 693
f 701 699 730
f 731 701 730
f 734 701 731
f 737 736 735
f 739 738 735
f 739 735 736
f 704 703 738
f 739 704 738
f 740 704 739
f 704 741 705
f 740 741 704
f 705 742 706
f 741 742 705
f 697 706 733
f 733 706 742
f 744 709 743
f 709 734 743
f 709 701 734
f 710 711 744
f 743 710 744
f 745 710 743
f 710 746 712
f 745 746 710
f 735 713 737
f 713 746 737
f 713 712 746
f 713 735 714
f 714 735 738
f 714 738 703
f 744 715 709
f 715 744 711
f 747 719 720
f 747 720 748
f 720 749 748
f 720 721 749
f 750 721 722
f 750 749 721
f 751 722 723
f 751 750 722
f 752 723 725
f 752 751 723
f 753 725 727
f 753 752 725
f 754 727 728
f 754 753 727
f 728 729 754
f 754 729 755
f 757 756 732
f 732 756 731
f 732 719 747
f 758 732 747
f 757 732 758
f 758 747 748
f 761 760 759
f 760 755 759
f 755 733 759
f 755 729 733
f 756 734 731
f 762 734 756
f 764 763 736
f 764 736 737
f 736 765 739
f 763 765 736
f 739 766 740
f 765 766 739
f 740 767 741
f 766 767 740
f 759 742 761
f 742 767 761
f 742 741 767
f 742 759 733
f 762 768 734
f 734 768 743
f 743 769 745
f 768 769 743
f 745 770 746
f 769 770 745
f 737 746 764
f 764 746 770
f 771 748 749
f 750 772 749
f 749 772 771
f 772 750 773
f 750 774 773
f 750 751 774
f 775 751 752
f 775 774 751
f 776 752 753
f 776 775 752
f 778 776 777
f 776 754 777
f 776 753 754
f 755 777 754
f 779 756 757
f 758 780 757
f 757 780 779
f 748 771 758
f 771 780 758
f 771 781 780
f 782 771 772
f 781 771 782
f 772 773 783
f 772 783 782
f 786 785 784
f 784 785 778
f 784 778 777
f 761 784 777
f 760 761 777
f 760 777 755
f 787 762 779
f 779 762 756
f 788 779 780
f 787 779 788
f 789 780 781
f 788 780 789
f 764 789 763
f 789 782 763
f 789 781 782
f 783 790 782
f 790 763 782
f 790 765 763
f 765 791 766
f 790 791 765
f 784 767 786
f 767 791 786
f 767 766 791
f 767 784 761
f 787 768 762
f 768 787 769
f 769 787 788
f 769 788 770
f 770 788 789
f 770 789 764
f 792 773 774
f 775 793 774
f 774 793 792
f 776 794 775
f 775 794 793
f 778 794 776
f 795 783 792
f 792 783 773
f 796 792 793
f 795 792 796
f 786 796 785
f 796 794 785
f 796 793 794
f 785 794 778
f 795 790 783
f 790 795 791
f 791 795 796
f 791 796 786
