v -16.2 5.0 -13.0
v -16.0 5.0 -13.3
v -16.0 4.8 -13.0
v -16.0 4.8 -12.0
v -16.2 5.0 -12.0
v -16.0 5.0 -11.8
v -16.3 6.0 -14.0
v -16.0 6.0 -14.4
v -16.0 5.7 -14.0
v -16.5 6.0 -13.0
v -16.4 6.0 -12.0
v -16.0 6.0 -11.5
v -16.2 7.0 -15.0
v -16.0 7.0 -15.3
v -16.0 6.6 -15.0
v -16.4 7.0 -14.0
v -16.4 7.0 -13.0
v -16.2 7.0 -12.0
v -16.0 7.0 -11.7
v -16.2 8.0 -16.0
v -16.0 8.0 -16.2
v -16.0 7.7 -16.0
v -16.4 8.0 -15.0
v -16.0 8.0 -14.2
v -16.0 7.8 -14.0
v -16.0 7.5 -13.0
v -16.0 7.3 -12.0
v -16.2 9.0 -16.0
v -16.0 9.0 -16.2
v -16.5 9.0 -15.0
v -16.0 8.2 -14.0
v -16.3 9.0 -14.0
v -16.0 9.0 -13.5
v -16.0 9.2 -16.0
v -16.2 10.0 -15.0
v -16.0 10.0 -15.3
v -16.5 10.0 -14.0
v -16.0 9.4 -13.0
v -16.4 10.0 -13.0
v -16.0 9.6 -12.0
v -16.3 10.0 -12.0
v -16.0 10.0 -11.5
v -16.0 10.3 -15.0
v -16.2 11.0 -14.0
v -16.0 11.0 -14.3
v -16.5 11.0 -13.0
v -16.5 11.0 -12.0
v -16.0 10.5 -11.0
v -16.3 11.0 -11.0
v -16.0 11.0 -10.6
v -16.0 11.3 -14.0
v -16.2 12.0 -13.0
v -16.0 12.0 -13.3
v -16.4 12.0 -12.0
v -16.4 12.0 -11.0
v -16.0 12.0 -10.6
v -16.0 12.2 -13.0
v -16.0 12.6 -12.0
v -16.2 13.0 -11.0
v -16.0 13.0 -11.4
v -16.0 13.0 -10.7
v -16.2 14.0 -11.0
v -16.0 14.0 -11.2
v -16.0 14.0 -10.8
v -16.1 15.0 -11.0
v -16.0 15.0 -11.1
v -16.0 15.0 -10.9
v -16.0 15.2 -11.0
v -15.0 5.0 -13.6
v -15.0 4.6 -13.0
v -15.0 4.6 -12.0
v -15.0 5.0 -11.5
v -15.4 6.0 -15.0
v -15.0 6.0 -15.3
v -15.0 5.7 -15.0
v -15.0 5.3 -14.0
v -15.0 5.5 -11.0
v -15.5 6.0 -11.0
v -15.0 5.8 -10.0
v -15.2 6.0 -10.0
v -15.0 6.0 -9.8
v -15.0 7.0 -15.7
v -15.6 7.0 -11.0
v -15.3 7.0 -10.0
v -15.0 7.0 -9.7
v -15.0 8.0 -16.4
v -15.0 7.4 -16.0
v -15.9 8.0 -14.0
v -15.6 8.0 -13.0
v -15.6 8.0 -12.0
v -15.5 8.0 -11.0
v -15.3 8.0 -10.0
v -15.0 8.0 -9.7
v -15.0 9.0 -16.3
v -15.7 9.0 -13.0
v -15.6 9.0 -12.0
v -15.5 9.0 -11.0
v -15.3 9.0 -10.0
v -15.0 9.0 -9.7
v -15.0 9.3 -16.0
v -15.0 10.0 -15.5
v -15.7 10.0 -11.0
v -15.4 10.0 -10.0
v -15.0 10.0 -9.6
v -15.0 10.5 -15.0
v -15.0 11.0 -14.5
v -15.4 11.0 -10.0
v -15.0 11.0 -9.6
v -15.0 11.6 -14.0
v -15.0 12.0 -13.6
v -15.5 12.0 -10.0
v -15.0 12.0 -9.6
v -15.0 12.5 -13.0
v -15.6 13.0 -12.0
v -15.0 13.0 -12.5
v -15.3 13.0 -10.0
v -15.0 13.0 -9.8
v -15.3 14.0 -12.0
v -15.0 14.0 -12.3
v -15.0 13.3 -10.0
v -15.0 14.0 -10.4
v -15.0 14.4 -12.0
v -15.0 15.0 -11.4
v -15.0 15.0 -10.7
v -15.0 15.4 -11.0
v -14.5 5.0 -14.0
v -14.0 5.0 -14.4
v -14.0 4.7 -14.0
v -14.0 4.5 -13.0
v -14.0 4.6 -12.0
v -14.0 5.0 -11.5
v -14.0 6.0 -15.5
v -14.0 5.5 -15.0
v -14.0 5.4 -11.0
v -14.0 5.7 -10.0
v -14.0 6.0 -9.7
v -14.5 7.0 -16.0
v -14.0 7.0 -16.3
v -14.0 6.7 -16.0
v -14.0 7.0 -9.5
v -14.0 8.0 -16.4
v -14.0 8.0 -9.5
v -14.0 8.8 -16.0
v -14.3 9.0 -16.0
v -14.0 9.0 -15.8
v -14.0 9.0 -9.5
v -14.0 10.0 -15.4
v -14.0 10.0 -9.5
v -14.0 10.5 -15.0
v -14.0 11.0 -14.6
v -14.0 11.0 -9.5
v -14.4 12.0 -14.0
v -14.0 12.0 -14.2
v -14.0 12.0 -9.5
v -14.0 12.3 -14.0
v -14.0 12.8 -13.0
v -14.0 13.0 -12.8
v -14.0 13.0 -9.6
v -14.0 14.0 -12.6
v -14.0 13.6 -10.0
v -14.0 14.0 -10.3
v -14.4 15.0 -12.0
v -14.0 15.0 -12.3
v -14.0 15.0 -10.5
v -14.0 15.3 -12.0
v -14.0 16.0 -11.0
v -14.0 16.0 -11.0
v -14.0 16.0 -11.0
v -14.0 16.0 -11.0
v -13.0 5.0 -14.4
v -13.0 4.6 -14.0
v -13.0 4.5 -13.0
v -13.0 4.7 -12.0
v -13.0 5.0 -11.6
v -13.0 6.0 -15.4
v -13.0 5.6 -15.0
v -13.0 5.4 -11.0
v -13.0 5.7 -10.0
v -13.0 6.0 -9.7
v -13.0 7.0 -16.3
v -13.0 6.7 -16.0
v -13.0 7.0 -9.5
v -13.0 8.0 -16.5
v -13.0 8.0 -9.5
v -13.7 9.0 -16.0
v -13.0 9.0 -16.3
v -13.0 9.0 -9.5
v -13.0 9.4 -16.0
v -13.0 10.0 -15.5
v -13.0 10.0 -9.4
v -13.0 10.5 -15.0
v -13.0 11.0 -14.6
v -13.0 11.0 -9.4
v -13.0 12.0 -14.4
v -13.0 12.0 -9.4
v -13.0 12.5 -14.0
v -13.7 13.0 -13.0
v -13.0 13.0 -13.5
v -13.0 13.0 -9.4
v -13.1 14.0 -13.0
v -13.0 14.0 -13.1
v -13.6 14.0 -10.0
v -13.0 14.0 -9.6
v -13.0 14.1 -13.0
v -13.0 15.0 -12.4
v -13.0 14.6 -10.0
v -13.0 15.0 -10.3
v -13.0 15.5 -12.0
v -13.0 16.0 -11.3
v -13.0 16.0 -10.7
v -13.0 16.3 -11.0
v -12.0 5.0 -14.2
v -12.0 4.8 -14.0
v -12.0 4.7 -13.0
v -12.5 5.0 -12.0
v -12.0 5.0 -12.5
v -12.5 6.0 -15.0
v -12.0 6.0 -14.7
v -12.0 5.3 -12.0
v -12.0 5.5 -11.0
v -12.0 5.8 -10.0
v -12.0 6.0 -9.8
v -12.6 7.0 -16.0
v -12.0 7.0 -15.5
v -12.0 6.4 -15.0
v -12.0 7.0 -9.6
v -12.0 8.0 -16.7
v -12.0 7.4 -16.0
v -12.0 8.0 -9.6
v -12.0 9.0 -16.4
v -12.0 9.0 -9.5
v -12.0 9.5 -16.0
v -12.0 10.0 -15.5
v -12.0 9.7 -9.0
v -12.3 10.0 -9.0
v -12.0 10.0 -8.8
v -12.0 10.5 -15.0
v -12.0 11.0 -14.6
v -12.5 11.0 -9.0
v -12.0 11.0 -8.6
v -12.0 12.0 -14.4
v -12.5 12.0 -9.0
v -12.0 12.0 -8.6
v -12.0 12.4 -14.0
v -12.0 13.0 -13.4
v -12.5 13.0 -9.0
v -12.0 13.0 -8.6
v -12.0 13.4 -13.0
v -12.9 14.0 -13.0
v -12.0 14.0 -12.0
v -12.3 14.0 -9.0
v -12.0 14.0 -8.8
v -12.0 15.0 -12.3
v -12.6 15.0 -10.0
v -12.0 15.0 -9.5
v -12.0 14.3 -9.0
v -12.0 15.4 -12.0
v -12.0 16.0 -11.6
v -12.3 16.0 -10.0
v -12.0 16.0 -9.7
v -12.1 17.0 -11.0
v -12.0 17.0 -11.0
v -12.0 17.0 -10.9
v -12.0 16.4 -10.0
v -12.0 17.0 -11.0
v -11.7 5.0 -14.0
v -11.6 5.0 -13.0
v -11.0 6.0 -14.3
v -11.0 5.7 -14.0
v -11.0 5.4 -13.0
v -11.0 5.6 -12.0
v -11.0 5.8 -11.0
v -11.7 6.0 -10.0
v -11.0 6.0 -10.7
v -11.5 7.0 -15.0
v -11.0 7.0 -14.6
v -11.5 7.0 -10.0
v -11.0 7.0 -10.5
v -11.4 8.0 -16.0
v -11.0 8.0 -15.5
v -11.0 7.5 -15.0
v -11.5 8.0 -10.0
v -11.0 8.0 -10.5
v -11.0 9.0 -16.3
v -11.0 8.6 -16.0
v -11.4 9.0 -10.0
v -11.0 9.0 -10.3
v -11.0 9.3 -16.0
v -11.0 10.0 -15.5
v -11.0 9.3 -10.0
v -11.0 9.8 -9.0
v -11.0 10.0 -8.8
v -11.0 10.5 -15.0
v -11.0 11.0 -14.6
v -11.0 11.0 -8.5
v -11.0 12.0 -14.2
v -11.0 12.0 -8.4
v -11.0 12.3 -14.0
v -11.5 13.0 -13.0
v -11.0 12.7 -13.0
v -11.0 13.0 -12.7
v -11.0 13.0 -8.4
v -11.9 14.0 -12.0
v -11.0 13.9 -12.0
v -11.0 14.0 -11.9
v -11.0 14.0 -8.5
v -11.0 15.0 -12.1
v -11.0 14.5 -12.0
v -11.0 14.7 -9.0
v -11.0 15.0 -9.2
v -11.0 15.2 -12.0
v -11.0 16.0 -11.6
v -11.0 16.0 -9.5
v -11.0 17.0 -11.2
v -11.3 17.0 -10.0
v -11.0 17.0 -9.8
v -11.0 17.2 -11.0
v -11.0 17.2 -10.0
v -10.7 6.0 -14.0
v -10.0 6.0 -13.1
v -10.0 5.9 -13.0
v -10.4 6.0 -12.0
v -10.0 6.0 -12.8
v -10.8 6.0 -11.0
v -10.3 7.0 -14.0
v -10.0 7.0 -13.7
v -10.0 6.5 -12.0
v -10.0 7.0 -11.6
v -10.5 7.0 -11.0
v -10.4 8.0 -15.0
v -10.0 8.0 -14.7
v -10.0 7.3 -14.0
v -10.5 8.0 -11.0
v -10.0 8.0 -11.4
v -10.0 9.0 -16.0
v -10.0 9.0 -16.0
v -10.0 8.3 -15.0
v -10.3 9.0 -11.0
v -10.0 9.0 -11.3
v -10.0 9.0 -16.0
v -10.0 10.0 -15.4
v -10.0 9.4 -11.0
v -10.4 10.0 -10.0
v -10.0 10.0 -10.4
v -10.7 10.0 -9.0
v -10.0 10.4 -15.0
v -10.0 11.0 -14.4
v -10.0 10.4 -10.0
v -10.0 10.7 -9.0
v -10.0 11.0 -8.7
v -10.0 11.5 -14.0
v -10.6 12.0 -14.0
v -10.0 12.0 -13.5
v -10.0 11.7 -8.0
v -10.3 12.0 -8.0
v -10.0 12.0 -7.8
v -10.0 12.4 -13.0
v -10.0 13.0 -12.5
v -10.5 13.0 -8.0
v -10.0 13.0 -7.6
v -10.8 14.0 -12.0
v -10.0 14.0 -12.4
v -10.5 14.0 -8.0
v -10.0 14.0 -7.6
v -10.6 15.0 -12.0
v -10.0 14.7 -12.0
v -10.0 15.0 -11.8
v -10.7 15.0 -9.0
v -10.2 15.0 -8.0
v -10.0 15.0 -7.8
v -10.0 16.0 -11.5
v -10.0 15.7 -9.0
v -10.0 16.0 -9.3
v -10.0 15.2 -8.0
v -10.0 16.7 -11.0
v -10.5 17.0 -11.0
v -10.0 17.0 -10.6
v -10.0 17.0 -9.7
v -10.0 17.3 -10.0
v -9.9 6.0 -13.0
v -9.0 7.0 -13.1
v -9.0 6.9 -13.0
v -9.5 7.0 -12.0
v -9.0 7.0 -12.8
v -9.0 8.0 -14.3
v -9.0 7.7 -14.0
v -9.0 7.6 -12.0
v -9.0 8.0 -11.8
v -10.0 9.0 -16.0
v -9.0 9.0 -15.2
v -9.0 8.8 -15.0
v -9.0 9.0 -11.6
v -9.6 10.0 -15.0
v -9.0 9.2 -15.0
v -9.0 10.0 -14.5
v -9.5 10.0 -11.0
v -9.0 10.0 -11.4
v -9.5 11.0 -14.0
v -9.0 10.5 -14.0
v -9.0 11.0 -13.4
v -9.0 10.5 -11.0
v -9.3 11.0 -10.0
v -9.0 11.0 -10.4
v -9.6 11.0 -9.0
v -9.5 12.0 -13.0
v -9.0 11.4 -13.0
v -9.0 12.0 -12.5
v -9.0 11.3 -10.0
v -9.0 11.4 -9.0
v -9.0 11.7 -8.0
v -9.0 12.0 -7.7
v -9.2 13.0 -12.0
v -9.0 12.8 -12.0
v -9.0 13.0 -11.9
v -9.0 13.0 -7.4
v -9.0 14.0 -12.7
v -9.0 13.2 -12.0
v -9.0 14.0 -7.4
v -9.4 15.0 -12.0
v -9.0 15.0 -12.1
v -9.0 15.0 -7.5
v -9.0 15.1 -12.0
v -9.0 16.0 -11.4
v -9.7 16.0 -9.0
v -9.0 16.0 -8.3
v -9.0 15.7 -8.0
v -9.0 17.0 -11.0
v -9.0 17.0 -11.0
v -9.3 17.0 -9.0
v -9.0 17.0 -8.7
v -9.0 17.0 -11.0
v -9.0 17.3 -10.0
v -9.0 17.2 -9.0
v -8.9 7.0 -13.0
v -8.7 8.0 -14.0
v -8.5 8.0 -13.0
v -8.8 8.0 -12.0
v -8.8 9.0 -15.0
v -8.1 9.0 -14.0
v -8.4 9.0 -13.0
v -8.6 9.0 -12.0
v -8.6 10.0 -14.0
v -8.5 10.0 -13.0
v -8.6 10.0 -12.0
v -8.7 11.0 -13.0
v -8.5 11.0 -12.0
v -8.6 11.0 -11.0
v -8.6 12.0 -12.0
v -8.0 12.0 -11.3
v -8.0 11.7 -11.0
v -8.0 11.6 -10.0
v -8.0 11.6 -9.0
v -8.5 12.0 -8.0
v -8.0 12.0 -8.4
v -8.0 13.0 -11.4
v -8.0 12.3 -8.0
v -8.0 12.8 -7.0
v -8.3 13.0 -7.0
v -8.0 13.0 -6.8
v -8.6 14.0 -12.0
v -8.0 14.0 -11.3
v -8.5 14.0 -7.0
v -8.0 14.0 -6.6
v -8.9 15.0 -12.0
v -8.0 14.3 -11.0
v -8.4 15.0 -11.0
v -8.2 15.0 -10.0
v -8.0 14.7 -10.0
v -8.0 15.0 -9.7
v -8.4 15.0 -7.0
v -8.0 15.0 -6.7
v -8.6 16.0 -11.0
v -8.4 16.0 -10.0
v -8.0 16.0 -9.5
v -8.6 16.0 -8.0
v -8.0 16.0 -7.0
v -8.0 16.0 -7.0
v -9.0 17.0 -11.0
v -8.6 17.0 -10.0
v -8.0 17.0 -9.2
v -8.0 17.0 -8.0
v -8.0 17.0 -8.0
v -8.0 16.0 -7.0
v -8.0 17.2 -9.0
v -7.8 12.0 -11.0
v -7.6 12.0 -10.0
v -7.0 12.0 -9.0
v -7.0 12.0 -9.0
v -7.0 12.0 -9.0
v -7.6 13.0 -11.0
v -7.4 13.0 -10.0
v -7.0 13.0 -9.5
v -7.0 12.6 -8.0
v -7.0 12.8 -7.0
v -7.0 13.0 -6.8
v -7.8 14.0 -11.0
v -7.5 14.0 -10.0
v -7.0 14.0 -9.3
v -7.0 14.0 -6.7
v -7.5 15.0 -9.0
v -7.0 14.3 -9.0
v -7.3 15.0 -8.0
v -7.0 14.6 -8.0
v -7.0 15.0 -7.1
v -7.0 15.0 -6.9
v -7.6 16.0 -9.0
v -7.6 16.0 -8.0
v -7.0 15.1 -7.0
v -8.0 16.0 -7.0
v -7.8 17.0 -9.0
v -7.0 12.0 -9.0
v -6.7 13.0 -9.0
v -6.6 13.0 -8.0
v -6.8 13.0 -7.0
v -6.8 14.0 -9.0
v -6.6 14.0 -8.0
v -6.7 14.0 -7.0
v -6.9 15.0 -7.0
f 3 2 1
f 5 4 1
f 1 4 3
f 5 6 4
f 9 8 7
f 9 7 2
f 7 1 2
f 7 10 1
f 1 11 5
f 1 10 11
f 6 5 12
f 12 5 11
f 15 14 13
f 15 13 8
f 13 7 8
f 13 16 7
f 7 17 10
f 7 16 17
f 10 18 11
f 10 17 18
f 12 11 19
f 19 11 18
f 22 21 20
f 22 20 14
f 20 13 14
f 20 23 13
f 25 16 24
f 16 23 24
f 16 13 23
f 16 25 17
f 17 25 26
f 17 26 18
f 18 26 27
f 18 27 19
f 20 21 28
f 28 21 29
f 20 30 23
f 20 28 30
f 24 23 31
f 23 32 31
f 23 30 32
f 32 33 31
f 29 34 28
f 36 35 34
f 35 28 34
f 35 30 28
f 30 37 32
f 30 35 37
f 33 32 38
f 32 39 38
f 32 37 39
f 41 40 39
f 39 40 38
f 41 42 40
f 36 43 35
f 45 44 43
f 44 35 43
f 44 37 35
f 37 46 39
f 37 44 46
f 39 47 41
f 39 46 47
f 42 41 48
f 41 49 48
f 41 47 49
f 49 50 48
f 45 51 44
f 53 52 51
f 52 44 51
f 52 46 44
f 46 54 47
f 46 52 54
f 47 55 49
f 47 54 55
f 50 49 56
f 56 49 55
f 53 57 52
f 52 57 54
f 54 57 58
f 60 59 58
f 59 54 58
f 59 55 54
f 56 55 61
f 61 55 59
f 59 60 62
f 62 60 63
f 61 59 64
f 64 59 62
f 62 63 65
f 65 63 66
f 64 62 67
f 67 62 65
f 66 68 65
f 65 68 67
f 70 69 3
f 3 69 2
f 71 3 4
f 71 70 3
f 4 6 71
f 71 6 72
f 75 74 73
f 8 9 73
f 9 75 73
f 9 76 75
f 9 2 69
f 9 69 76
f 12 78 77
f 72 12 77
f 6 12 72
f 80 79 78
f 78 79 77
f 80 81 79
f 73 74 15
f 74 14 15
f 74 82 14
f 73 15 8
f 19 83 78
f 19 78 12
f 78 84 80
f 78 83 84
f 81 80 85
f 85 80 84
f 87 86 22
f 22 86 21
f 22 14 82
f 22 82 87
f 24 88 25
f 89 26 25
f 89 25 88
f 90 27 26
f 90 26 89
f 83 19 27
f 90 83 27
f 91 83 90
f 83 92 84
f 83 91 92
f 85 84 93
f 93 84 92
f 86 29 21
f 94 29 86
f 31 88 24
f 88 31 33
f 95 88 33
f 89 88 95
f 89 96 90
f 89 95 96
f 90 97 91
f 90 96 97
f 91 98 92
f 91 97 98
f 93 92 99
f 99 92 98
f 94 100 29
f 29 100 34
f 36 34 100
f 36 100 101
f 38 95 33
f 95 38 40
f 95 40 96
f 96 40 42
f 102 96 42
f 97 96 102
f 97 103 98
f 97 102 103
f 99 98 104
f 104 98 103
f 101 105 36
f 36 105 43
f 45 43 105
f 45 105 106
f 48 102 42
f 102 48 50
f 107 102 50
f 103 102 107
f 104 103 108
f 108 103 107
f 106 109 45
f 45 109 51
f 53 51 109
f 53 109 110
f 56 111 107
f 56 107 50
f 108 107 112
f 112 107 111
f 110 113 53
f 53 113 57
f 113 115 114
f 58 113 114
f 57 113 58
f 114 60 58
f 61 116 111
f 61 111 56
f 112 111 117
f 117 111 116
f 114 115 118
f 118 115 119
f 118 63 60
f 118 60 114
f 121 120 116
f 61 121 116
f 64 121 61
f 116 120 117
f 119 122 118
f 63 118 122
f 123 63 122
f 66 63 123
f 67 121 64
f 67 124 121
f 123 125 66
f 66 125 68
f 67 68 124
f 124 68 125
f 128 127 126
f 69 70 126
f 70 128 126
f 70 129 128
f 130 70 71
f 130 129 70
f 71 72 130
f 130 72 131
f 133 132 75
f 75 132 74
f 76 126 127
f 133 76 127
f 75 76 133
f 126 76 69
f 134 131 72
f 134 72 77
f 135 77 79
f 135 134 77
f 79 81 135
f 135 81 136
f 139 138 137
f 132 139 137
f 82 132 137
f 74 132 82
f 85 136 81
f 85 140 136
f 137 138 87
f 138 86 87
f 138 141 86
f 137 87 82
f 93 140 85
f 93 142 140
f 144 94 143
f 94 141 143
f 94 86 141
f 145 144 143
f 99 142 93
f 99 146 142
f 144 100 94
f 101 100 144
f 145 101 144
f 147 101 145
f 104 146 99
f 104 148 146
f 147 149 101
f 101 149 105
f 106 105 149
f 106 149 150
f 108 148 104
f 108 151 148
f 109 106 152
f 106 153 152
f 106 150 153
f 152 110 109
f 112 151 108
f 112 154 151
f 153 155 152
f 152 155 110
f 155 113 110
f 155 156 113
f 115 113 156
f 115 156 157
f 117 154 112
f 117 158 154
f 157 119 115
f 159 119 157
f 161 160 120
f 161 120 121
f 117 120 158
f 158 120 160
f 122 119 162
f 119 163 162
f 119 159 163
f 162 123 122
f 124 161 121
f 124 164 161
f 163 165 162
f 165 167 166
f 165 166 125
f 162 165 125
f 123 162 125
f 166 168 125
f 168 124 125
f 168 164 124
f 167 169 166
f 166 169 168
f 171 170 128
f 128 170 127
f 172 128 129
f 172 171 128
f 173 129 130
f 173 172 129
f 130 131 173
f 173 131 174
f 176 175 133
f 133 175 132
f 133 127 170
f 133 170 176
f 177 174 131
f 177 131 134
f 178 134 135
f 178 177 134
f 135 136 178
f 178 136 179
f 181 180 139
f 139 180 138
f 139 132 175
f 139 175 181
f 140 179 136
f 140 182 179
f 180 141 138
f 183 141 180
f 142 182 140
f 142 184 182
f 143 141 185
f 141 186 185
f 141 183 186
f 185 145 143
f 146 184 142
f 146 187 184
f 186 188 185
f 145 185 188
f 189 145 188
f 147 145 189
f 148 187 146
f 148 190 187
f 189 191 147
f 147 191 149
f 150 149 191
f 150 191 192
f 151 190 148
f 151 193 190
f 192 153 150
f 194 153 192
f 154 193 151
f 154 195 193
f 194 196 153
f 153 196 155
f 196 198 197
f 156 196 197
f 155 196 156
f 197 157 156
f 158 195 154
f 158 199 195
f 197 198 200
f 200 198 201
f 200 159 157
f 200 157 197
f 161 202 160
f 202 203 160
f 203 158 160
f 203 199 158
f 201 204 200
f 159 200 204
f 205 159 204
f 163 159 205
f 207 206 202
f 161 207 202
f 164 207 161
f 202 206 203
f 205 208 163
f 163 208 165
f 167 165 208
f 167 208 209
f 168 207 164
f 168 210 207
f 209 211 167
f 167 211 169
f 168 169 210
f 210 169 211
f 213 212 171
f 171 212 170
f 214 171 172
f 214 213 171
f 216 214 215
f 214 173 215
f 214 172 173
f 174 215 173
f 217 175 176
f 218 217 176
f 170 218 176
f 212 218 170
f 219 216 215
f 219 215 174
f 177 219 174
f 220 219 177
f 221 177 178
f 221 220 177
f 178 179 221
f 221 179 222
f 223 180 181
f 224 223 181
f 224 181 175
f 225 224 175
f 217 225 175
f 225 217 218
f 182 222 179
f 182 226 222
f 228 227 223
f 227 180 223
f 227 183 180
f 228 223 224
f 184 226 182
f 184 229 226
f 227 186 183
f 230 186 227
f 187 229 184
f 187 231 229
f 230 232 186
f 186 232 188
f 189 188 232
f 189 232 233
f 190 235 234
f 231 190 234
f 187 190 231
f 235 236 234
f 233 237 189
f 189 237 191
f 192 191 237
f 192 237 238
f 193 239 235
f 193 235 190
f 236 235 240
f 240 235 239
f 238 194 192
f 241 194 238
f 195 242 239
f 195 239 193
f 240 239 243
f 243 239 242
f 241 244 194
f 194 244 196
f 198 196 244
f 198 244 245
f 199 246 242
f 199 242 195
f 243 242 247
f 247 242 246
f 249 201 248
f 201 245 248
f 201 198 245
f 250 249 248
f 203 251 246
f 203 246 199
f 247 246 252
f 252 246 251
f 249 204 201
f 205 204 249
f 250 205 249
f 253 205 250
f 207 254 206
f 254 255 206
f 206 255 203
f 255 256 203
f 256 251 203
f 251 256 252
f 253 257 205
f 205 257 208
f 209 208 257
f 209 257 258
f 210 259 254
f 210 254 207
f 255 254 260
f 260 254 259
f 211 209 261
f 209 262 261
f 209 258 262
f 261 263 211
f 211 263 210
f 263 264 210
f 264 259 210
f 259 264 260
f 262 265 261
f 261 265 263
f 266 212 213
f 214 267 213
f 213 267 266
f 216 267 214
f 269 268 266
f 268 212 266
f 268 218 212
f 269 266 267
f 269 267 270
f 270 267 216
f 219 270 216
f 271 270 219
f 272 219 220
f 272 271 219
f 274 272 273
f 272 221 273
f 272 220 221
f 222 273 221
f 275 224 225
f 276 275 225
f 218 276 225
f 268 276 218
f 274 273 277
f 274 277 278
f 226 277 222
f 222 277 273
f 279 227 228
f 280 279 228
f 280 228 224
f 281 280 224
f 275 281 224
f 281 275 276
f 278 277 282
f 278 282 283
f 229 282 226
f 226 282 277
f 285 284 279
f 284 227 279
f 284 230 227
f 285 279 280
f 283 282 286
f 283 286 287
f 231 286 229
f 229 286 282
f 284 288 230
f 230 288 232
f 233 232 288
f 233 288 289
f 290 287 286
f 290 286 231
f 234 290 231
f 291 290 234
f 234 236 291
f 291 236 292
f 289 293 233
f 233 293 237
f 238 237 293
f 238 293 294
f 240 292 236
f 240 295 292
f 294 241 238
f 296 241 294
f 243 295 240
f 243 297 295
f 296 298 241
f 241 298 244
f 300 299 245
f 244 300 245
f 298 300 244
f 301 299 300
f 247 297 243
f 247 302 297
f 299 248 245
f 304 303 250
f 304 250 248
f 301 304 248
f 299 301 248
f 305 303 304
f 252 302 247
f 252 306 302
f 308 307 303
f 307 250 303
f 307 253 250
f 308 303 305
f 310 309 256
f 310 256 255
f 252 256 306
f 306 256 309
f 307 311 253
f 253 311 257
f 258 257 311
f 258 311 312
f 260 310 255
f 260 313 310
f 312 262 258
f 314 262 312
f 263 315 264
f 315 316 264
f 316 260 264
f 316 313 260
f 314 317 262
f 262 317 265
f 263 265 315
f 265 318 315
f 265 317 318
f 315 318 316
f 319 268 269
f 319 269 320
f 269 321 320
f 269 270 321
f 323 321 322
f 321 271 322
f 321 270 271
f 272 324 271
f 271 324 322
f 274 324 272
f 325 276 319
f 319 276 268
f 319 320 326
f 319 326 325
f 327 323 322
f 329 328 327
f 322 329 327
f 324 329 322
f 278 329 274
f 274 329 324
f 330 280 281
f 331 330 281
f 331 281 276
f 332 331 276
f 325 332 276
f 332 325 326
f 328 329 333
f 328 333 334
f 283 333 278
f 278 333 329
f 336 335 285
f 285 335 284
f 285 280 330
f 337 285 330
f 336 285 337
f 337 330 331
f 334 333 338
f 334 338 339
f 287 338 283
f 283 338 333
f 335 340 284
f 284 340 288
f 289 288 340
f 289 340 341
f 342 339 338
f 344 342 343
f 343 342 290
f 342 338 290
f 338 287 290
f 291 345 290
f 290 345 343
f 292 345 291
f 341 346 289
f 289 346 293
f 294 293 346
f 294 346 347
f 348 344 343
f 348 343 345
f 348 345 349
f 345 292 349
f 292 350 349
f 292 295 350
f 352 296 351
f 296 347 351
f 296 294 347
f 353 352 351
f 297 355 354
f 350 297 354
f 295 297 350
f 355 356 354
f 352 298 296
f 353 357 352
f 357 298 352
f 357 300 298
f 301 300 357
f 301 357 358
f 302 359 355
f 302 355 297
f 356 355 360
f 360 355 359
f 304 301 361
f 301 362 361
f 301 358 362
f 361 305 304
f 306 363 359
f 306 359 302
f 360 359 364
f 364 359 363
f 366 365 362
f 365 307 362
f 308 361 362
f 308 362 307
f 308 305 361
f 365 366 367
f 310 368 309
f 363 306 309
f 368 363 309
f 369 363 368
f 364 363 370
f 370 363 369
f 365 311 307
f 312 311 365
f 367 312 365
f 371 312 367
f 373 372 368
f 310 373 368
f 313 373 310
f 368 372 369
f 369 372 374
f 369 374 370
f 376 314 375
f 314 371 375
f 314 312 371
f 377 376 375
f 316 373 313
f 316 378 373
f 376 317 314
f 377 379 376
f 379 317 376
f 379 318 317
f 316 318 378
f 378 318 379
f 380 320 321
f 323 380 321
f 382 381 380
f 381 320 380
f 381 326 320
f 384 382 383
f 383 382 327
f 382 380 327
f 380 323 327
f 328 383 327
f 386 385 332
f 332 385 331
f 332 326 381
f 332 381 386
f 387 384 383
f 383 328 387
f 328 388 387
f 328 334 388
f 389 335 336
f 389 336 390
f 336 391 390
f 336 337 391
f 337 331 385
f 337 385 391
f 339 388 334
f 339 392 388
f 389 340 335
f 394 393 341
f 394 341 340
f 390 394 340
f 389 390 340
f 395 393 394
f 339 342 396
f 397 339 396
f 392 339 397
f 344 396 342
f 393 346 341
f 399 398 347
f 399 347 346
f 395 399 346
f 393 395 346
f 400 398 399
f 401 397 396
f 403 401 402
f 402 401 348
f 401 396 348
f 396 344 348
f 349 404 348
f 348 404 402
f 350 404 349
f 398 351 347
f 406 405 353
f 406 353 351
f 400 406 351
f 398 400 351
f 407 405 406
f 408 403 402
f 408 402 404
f 408 404 409
f 409 404 350
f 354 409 350
f 410 409 354
f 354 356 410
f 410 356 411
f 405 357 353
f 413 412 358
f 413 358 357
f 407 413 357
f 405 407 357
f 414 412 413
f 360 411 356
f 360 415 411
f 417 416 412
f 416 358 412
f 416 362 358
f 417 412 414
f 364 415 360
f 364 418 415
f 366 362 419
f 362 420 419
f 362 416 420
f 419 367 366
f 370 418 364
f 370 421 418
f 420 422 419
f 367 419 422
f 423 367 422
f 371 367 423
f 373 424 372
f 372 424 425
f 426 372 425
f 374 372 426
f 370 374 421
f 421 374 426
f 375 371 427
f 371 428 427
f 371 423 428
f 427 377 375
f 378 429 424
f 378 424 373
f 425 424 430
f 430 424 429
f 428 431 427
f 427 431 377
f 431 379 377
f 431 432 379
f 378 379 429
f 379 433 429
f 379 432 433
f 429 433 430
f 434 381 382
f 384 434 382
f 435 385 386
f 381 434 386
f 434 435 386
f 434 436 435
f 387 437 384
f 437 434 384
f 437 436 434
f 388 437 387
f 438 390 391
f 385 435 391
f 435 438 391
f 435 439 438
f 440 435 436
f 439 435 440
f 441 436 437
f 440 436 441
f 392 441 388
f 388 441 437
f 438 394 390
f 394 438 395
f 438 442 395
f 438 439 442
f 443 439 440
f 442 439 443
f 444 440 441
f 443 440 444
f 397 444 392
f 392 444 441
f 442 399 395
f 399 442 400
f 442 445 400
f 442 443 445
f 446 443 444
f 445 443 446
f 401 447 397
f 447 444 397
f 447 446 444
f 403 447 401
f 445 406 400
f 406 445 407
f 445 448 407
f 445 446 448
f 447 450 449
f 448 447 449
f 446 447 448
f 450 447 403
f 408 450 403
f 451 450 408
f 452 408 409
f 452 451 408
f 454 452 453
f 452 410 453
f 452 409 410
f 411 453 410
f 448 413 407
f 414 413 448
f 449 414 448
f 455 414 449
f 456 454 453
f 411 415 453
f 415 457 453
f 457 456 453
f 457 415 458
f 458 459 457
f 460 416 417
f 461 460 417
f 414 461 417
f 455 461 414
f 418 462 458
f 418 458 415
f 459 458 463
f 463 458 462
f 464 420 460
f 460 420 416
f 460 461 465
f 466 460 465
f 464 460 466
f 468 467 466
f 468 466 465
f 469 467 468
f 421 470 462
f 421 462 418
f 463 462 471
f 471 462 470
f 464 422 420
f 422 464 423
f 464 472 423
f 464 466 472
f 473 466 467
f 472 466 473
f 467 469 474
f 467 474 473
f 425 475 426
f 470 421 426
f 475 470 426
f 476 470 475
f 471 470 477
f 477 470 476
f 478 428 472
f 472 428 423
f 479 472 473
f 478 472 479
f 473 474 480
f 473 480 479
f 482 481 475
f 425 482 475
f 430 482 425
f 475 481 476
f 476 481 483
f 476 483 477
f 478 431 428
f 431 478 432
f 432 478 479
f 480 484 479
f 484 432 479
f 484 433 432
f 430 433 482
f 482 433 484
f 485 449 450
f 451 486 450
f 450 486 485
f 486 451 487
f 451 488 487
f 451 452 488
f 452 454 488
f 488 454 489
f 490 455 485
f 485 455 449
f 491 485 486
f 490 485 491
f 486 487 492
f 486 492 491
f 493 489 454
f 493 454 456
f 494 456 457
f 494 493 456
f 457 459 494
f 494 459 495
f 496 461 490
f 490 461 455
f 497 490 491
f 496 490 497
f 491 492 498
f 491 498 497
f 463 495 459
f 463 499 495
f 496 465 461
f 465 496 468
f 468 496 497
f 501 500 469
f 501 469 468
f 498 501 468
f 497 498 468
f 503 502 500
f 503 500 501
f 504 502 503
f 471 499 463
f 471 505 499
f 506 474 500
f 500 474 469
f 507 500 502
f 506 500 507
f 502 504 508
f 509 502 508
f 507 502 509
f 508 505 509
f 505 477 509
f 505 471 477
f 510 480 506
f 506 480 474
f 482 510 481
f 510 507 481
f 510 506 507
f 481 507 483
f 483 507 509
f 483 509 477
f 510 484 480
f 484 510 482
f 511 487 488
f 489 511 488
f 512 492 511
f 511 492 487
f 493 513 489
f 513 511 489
f 513 512 511
f 494 514 493
f 493 514 513
f 495 514 494
f 515 498 512
f 512 498 492
f 516 512 513
f 515 512 516
f 517 513 514
f 516 513 517
f 499 517 495
f 495 517 514
f 515 501 498
f 501 515 503
f 503 515 516
f 503 516 504
f 516 518 504
f 516 517 518
f 505 518 499
f 499 518 517
f 518 508 504
f 508 518 505
