v -44.0 -2.0 -12.0
v -44.0 -2.0 -12.1
v -44.0 -2.0 -12.0
v -44.0 -2.0 -12.0
v -44.1 -1.0 -12.0
v -44.0 -1.0 -12.1
v -44.0 -1.0 -11.9
v -44.0 -0.9 -12.0
v -43.6 -2.0 -14.0
v -43.0 -2.0 -14.5
v -43.0 -2.4 -14.0
v -43.0 -2.9 -13.0
v -43.6 -2.0 -13.0
v -43.0 -2.6 -12.0
v -43.0 -2.1 -11.0
v -43.1 -2.0 -11.0
v -43.0 -2.0 -10.9
v -43.1 -1.0 -16.0
v -43.0 -1.0 -16.1
v -43.0 -1.3 -16.0
v -43.0 -1.0 -15.9
v -43.0 -1.3 -14.0
v -43.5 -1.0 -13.0
v -43.0 -1.0 -13.8
v -43.3 -1.0 -11.0
v -43.0 -1.0 -10.7
v -43.1 0.0 -17.0
v -43.0 0.0 -17.2
v -43.0 -0.2 -17.0
v -43.0 -0.9 -16.0
v -43.0 0.0 -16.7
v -43.1 0.0 -14.0
v -43.0 0.0 -14.2
v -43.0 -0.5 -14.0
v -43.4 0.0 -13.0
v -43.5 0.0 -12.0
v -43.0 0.0 -11.4
v -43.0 -0.5 -11.0
v -43.3 1.0 -18.0
v -43.0 1.0 -18.3
v -43.0 0.6 -18.0
v -43.4 1.0 -17.0
v -43.0 1.0 -16.5
v -43.0 0.2 -14.0
v -43.0 0.6 -13.0
v -43.1 1.0 -12.0
v -43.0 1.0 -12.3
v -43.0 1.0 -11.8
v -43.3 2.0 -18.0
v -43.0 2.0 -18.4
v -43.2 2.0 -17.0
v -43.0 2.0 -16.7
v -43.0 1.2 -12.0
v -43.0 2.7 -18.0
v -43.0 2.3 -17.0
v -42.3 -3.0 -12.0
v -42.0 -3.0 -12.4
v -42.0 -3.2 -12.0
v -42.0 -3.0 -11.8
v -42.6 -2.0 -15.0
v -42.0 -2.0 -15.5
v -42.0 -2.3 -15.0
v -42.0 -2.5 -14.0
v -42.0 -2.8 -13.0
v -42.0 -2.0 -11.1
v -42.7 -2.0 -11.0
v -42.4 -1.0 -17.0
v -42.0 -1.0 -17.4
v -42.0 -1.3 -17.0
v -42.0 -1.6 -16.0
v -42.6 -1.0 -15.0
v -42.9 -1.0 -14.0
v -42.0 -1.8 -11.0
v -42.0 -1.0 -10.5
v -42.5 0.0 -18.0
v -42.0 0.0 -18.4
v -42.0 -0.5 -18.0
v -42.7 0.0 -16.0
v -42.6 0.0 -15.0
v -42.7 0.0 -11.0
v -42.0 0.0 -10.1
v -42.3 1.0 -19.0
v -42.0 1.0 -19.3
v -42.0 0.7 -19.0
v -42.6 1.0 -16.0
v -42.5 1.0 -15.0
v -42.6 1.0 -14.0
v -42.7 1.0 -13.0
v -42.5 1.0 -11.0
v -42.0 1.0 -10.5
v -42.5 2.0 -19.0
v -42.0 2.0 -19.4
v -42.5 2.0 -16.0
v -42.4 2.0 -15.0
v -42.4 2.0 -14.0
v -42.4 2.0 -13.0
v -42.4 2.0 -12.0
v -42.2 2.0 -11.0
v -42.0 2.0 -10.8
v -42.1 3.0 -19.0
v -42.0 3.0 -19.1
v -42.0 2.8 -18.0
v -42.0 3.0 -18.6
v -42.0 2.5 -17.0
v -42.0 2.5 -16.0
v -42.0 2.5 -15.0
v -42.0 2.5 -14.0
v -42.0 2.5 -13.0
v -42.0 2.4 -12.0
v -42.0 2.2 -11.0
v -42.0 3.1 -19.0
v -41.6 -3.0 -13.0
v -41.0 -3.0 -13.4
v -41.0 -3.3 -13.0
v -41.0 -3.4 -12.0
v -41.0 -3.1 -11.0
v -41.1 -3.0 -11.0
v -41.0 -3.0 -10.9
v -41.0 -2.0 -15.7
v -41.0 -2.4 -15.0
v -41.0 -2.6 -14.0
v -41.8 -2.0 -11.0
v -41.0 -2.0 -10.6
v -41.4 -1.0 -18.0
v -41.0 -1.0 -18.2
v -41.0 -1.3 -18.0
v -41.0 -1.6 -17.0
v -41.0 -1.7 -16.0
v -41.0 -1.0 -10.5
v -41.0 0.0 -18.6
v -41.0 0.0 -10.3
v -41.0 1.0 -19.5
v -41.0 0.5 -19.0
v -41.0 0.8 -10.0
v -41.2 1.0 -10.0
v -41.0 1.0 -9.9
v -41.1 2.0 -20.0
v -41.0 2.0 -20.1
v -41.0 1.9 -20.0
v -41.0 1.2 -10.0
v -41.0 2.0 -10.5
v -41.0 2.1 -20.0
v -41.0 3.0 -19.6
v -41.8 3.0 -18.0
v -41.0 3.0 -17.1
v -41.0 2.9 -17.0
v -41.4 3.0 -16.0
v -41.0 3.0 -16.9
v -41.5 3.0 -15.0
v -41.5 3.0 -14.0
v -41.5 3.0 -13.0
v -41.0 3.0 -12.3
v -41.0 2.8 -12.0
v -41.0 2.5 -11.0
v -41.3 4.0 -19.0
v -41.0 4.0 -19.3
v -41.2 4.0 -18.0
v -41.0 4.0 -17.7
v -41.0 3.4 -16.0
v -41.0 3.4 -15.0
v -41.0 3.6 -14.0
v -41.1 4.0 -13.0
v -41.0 4.0 -13.1
v -41.0 4.0 -12.9
v -41.0 4.2 -19.0
v -41.0 4.2 -18.0
v -41.0 4.1 -13.0
v -40.0 -3.0 -13.5
v -40.0 -3.4 -13.0
v -40.0 -3.3 -12.0
v -40.9 -3.0 -11.0
v -40.0 -3.0 -11.5
v -40.2 -2.0 -17.0
v -40.0 -2.0 -17.2
v -40.0 -2.1 -17.0
v -40.0 -2.4 -16.0
v -40.6 -2.0 -16.0
v -40.0 -2.5 -15.0
v -40.0 -2.6 -14.0
v -40.0 -2.5 -11.0
v -40.0 -2.0 -10.6
v -40.0 -1.0 -18.4
v -40.0 -1.4 -18.0
v -40.0 -1.0 -10.5
v -40.0 0.0 -18.6
v -40.0 0.0 -10.3
v -40.0 1.0 -19.5
v -40.0 0.5 -19.0
v -40.0 0.5 -10.0
v -40.0 1.0 -9.8
v -40.0 2.0 -20.2
v -40.0 1.7 -20.0
v -40.0 1.4 -10.0
v -40.0 2.0 -10.4
v -40.0 2.4 -20.0
v -40.0 3.0 -19.7
v -40.9 3.0 -17.0
v -40.8 3.0 -12.0
v -40.4 3.0 -11.0
v -40.0 3.0 -10.7
v -40.0 4.0 -19.8
v -40.5 4.0 -17.0
v -40.4 4.0 -16.0
v -40.1 4.0 -15.0
v -40.5 4.0 -14.0
v -40.3 4.0 -12.0
v -40.0 4.0 -11.6
v -40.0 3.4 -11.0
v -40.0 4.5 -19.0
v -40.0 4.6 -18.0
v -40.0 4.5 -17.0
v -40.0 4.5 -16.0
v -40.0 4.5 -15.0
v -40.0 4.5 -14.0
v -40.0 4.5 -13.0
v -40.0 4.3 -12.0
v -39.0 -3.0 -13.4
v -39.0 -3.2 -13.0
v -39.5 -3.0 -12.0
v -39.0 -3.0 -12.5
v -39.8 -2.0 -17.0
v -39.0 -2.0 -16.4
v -39.0 -2.2 -16.0
v -39.0 -2.4 -15.0
v -39.0 -2.6 -14.0
v -39.0 -2.7 -12.0
v -39.0 -2.4 -11.0
v -39.0 -2.0 -10.6
v -39.0 -1.0 -18.2
v -39.0 -1.2 -18.0
v -39.0 -1.6 -17.0
v -39.0 -1.0 -10.3
v -39.0 0.0 -18.6
v -39.0 -0.5 -10.0
v -39.5 0.0 -10.0
v -39.0 0.0 -9.7
v -39.0 1.0 -19.5
v -39.0 0.5 -19.0
v -39.0 1.0 -9.6
v -39.0 2.0 -20.2
v -39.0 1.7 -20.0
v -39.0 1.8 -10.0
v -39.0 2.0 -10.1
v -39.0 2.3 -20.0
v -39.0 3.0 -19.6
v -39.0 2.4 -10.0
v -39.2 3.0 -10.0
v -39.0 3.0 -9.9
v -39.0 4.0 -19.6
v -39.4 4.0 -11.0
v -39.0 4.0 -10.6
v -39.0 3.2 -10.0
v -39.3 5.0 -19.0
v -39.0 5.0 -19.2
v -39.5 5.0 -18.0
v -39.5 5.0 -17.0
v -39.5 5.0 -16.0
v -39.9 5.0 -15.0
v -39.4 5.0 -14.0
v -39.0 5.0 -13.5
v -39.0 4.7 -13.0
v -39.0 4.6 -12.0
v -39.0 4.3 -11.0
v -39.0 5.3 -19.0
v -39.0 5.4 -18.0
v -39.0 5.4 -17.0
v -39.0 5.3 -16.0
v -39.0 5.4 -15.0
v -39.0 5.3 -14.0
v -38.0 -3.0 -13.0
v -38.0 -3.0 -13.0
v -38.0 -3.0 -13.0
v -38.8 -2.0 -16.0
v -38.6 -2.0 -15.0
v -38.0 -2.0 -14.3
v -38.0 -2.3 -14.0
v -38.0 -2.5 -12.0
v -38.0 -2.3 -11.0
v -38.0 -2.0 -10.5
v -38.7 -1.0 -18.0
v -38.5 -1.0 -17.0
v -38.4 -1.0 -16.0
v -38.3 -1.0 -15.0
v -38.0 -1.0 -14.6
v -38.0 -1.6 -10.0
v -38.6 -1.0 -10.0
v -38.0 -1.0 -9.2
v -38.0 0.0 -18.3
v -38.0 -0.3 -18.0
v -38.0 -0.5 -17.0
v -38.0 -0.5 -16.0
v -38.0 -0.7 -15.0
v -38.0 0.0 -9.5
v -38.0 1.0 -19.4
v -38.0 0.6 -19.0
v -38.0 1.0 -9.5
v -38.0 2.0 -20.1
v -38.0 1.9 -20.0
v -38.8 2.0 -10.0
v -38.0 2.0 -9.6
v -38.0 2.2 -20.0
v -38.0 3.0 -19.7
v -38.0 3.0 -9.5
v -38.0 4.0 -19.6
v -38.4 4.0 -10.0
v -38.0 4.0 -9.8
v -38.0 5.0 -19.5
v -38.2 5.0 -16.0
v -38.0 4.9 -16.0
v -38.0 5.0 -16.1
v -38.0 5.0 -15.9
v -38.6 5.0 -13.0
v -38.4 5.0 -12.0
v -38.0 5.0 -11.5
v -38.0 4.7 -11.0
v -38.0 4.3 -10.0
v -38.0 5.4 -19.0
v -38.0 5.5 -18.0
v -38.0 5.4 -17.0
v -38.0 5.4 -15.0
v -38.0 5.5 -14.0
v -38.0 5.4 -13.0
v -38.0 5.3 -12.0
v -38.0 -3.0 -13.0
v -37.8 -2.0 -14.0
v -37.5 -2.0 -13.0
v -37.5 -2.0 -12.0
v -37.0 -2.0 -11.0
v -37.0 -2.0 -11.0
v -37.0 -2.1 -10.0
v -37.3 -2.0 -10.0
v -37.0 -2.0 -9.6
v -37.6 -1.0 -14.0
v -37.5 -1.0 -13.0
v -37.5 -1.0 -12.0
v -37.0 -2.0 -11.0
v -37.3 -1.0 -11.0
v -37.0 -1.0 -10.4
v -37.0 -1.0 -9.7
v -37.7 0.0 -18.0
v -37.5 0.0 -17.0
v -37.6 0.0 -16.0
v -37.6 0.0 -15.0
v -37.4 0.0 -14.0
v -37.4 0.0 -13.0
v -37.4 0.0 -12.0
v -37.2 0.0 -11.0
v -37.0 0.0 -10.5
v -37.0 0.0 -9.7
v -37.6 1.0 -19.0
v -37.0 1.0 -18.4
v -37.0 0.7 -18.0
v -37.0 0.6 -17.0
v -37.0 1.0 -16.5
v -37.3 1.0 -16.0
v -37.3 1.0 -15.0
v -37.0 1.0 -14.5
v -37.0 0.6 -14.0
v -37.0 0.5 -13.0
v -37.0 0.5 -12.0
v -37.0 0.3 -11.0
v -37.0 1.0 -9.6
v -37.8 2.0 -20.0
v -37.0 2.0 -19.4
v -37.0 1.6 -19.0
v -37.0 1.4 -16.0
v -37.0 1.4 -15.0
v -37.0 2.0 -9.5
v -37.0 2.9 -20.0
v -37.1 3.0 -20.0
v -37.0 3.0 -20.1
v -37.0 3.0 -9.5
v -37.3 4.0 -20.0
v -37.0 4.0 -20.2
v -37.0 4.0 -9.6
v -37.2 5.0 -20.0
v -37.0 5.0 -20.1
v -37.0 4.7 -16.0
v -37.0 5.0 -16.4
v -37.0 5.0 -15.4
v -37.3 5.0 -11.0
v -37.0 5.0 -10.8
v -37.0 4.4 -10.0
v -37.0 5.4 -20.0
v -37.0 5.4 -19.0
v -37.0 5.4 -18.0
v -37.0 5.3 -17.0
v -37.0 5.2 -15.0
v -37.0 5.4 -14.0
v -37.0 5.4 -13.0
v -37.0 5.4 -12.0
v -37.0 5.2 -11.0
v -37.0 -2.0 -11.0
v -36.9 -2.0 -10.0
v -36.8 -1.0 -10.0
v -36.7 0.0 -10.0
v -36.7 1.0 -18.0
v -36.7 1.0 -17.0
v -36.7 1.0 -14.0
v -36.6 1.0 -13.0
v -36.6 1.0 -12.0
v -36.4 1.0 -11.0
v -36.0 1.0 -10.1
v -36.0 0.9 -10.0
v -36.0 1.0 -9.9
v -36.7 2.0 -19.0
v -36.4 2.0 -18.0
v -36.4 2.0 -17.0
v -36.5 2.0 -16.0
v -36.5 2.0 -15.0
v -36.5 2.0 -14.0
v -36.5 2.0 -13.0
v -36.3 2.0 -12.0
v -36.0 2.0 -11.5
v -36.0 1.5 -11.0
v -36.0 2.0 -9.7
v -36.9 3.0 -20.0
v -36.5 3.0 -19.0
v -36.0 3.0 -18.1
v -36.0 2.9 -18.0
v -36.0 2.6 -17.0
v -36.0 2.6 -16.0
v -36.0 2.8 -15.0
v -36.0 3.0 -14.7
v -36.3 3.0 -14.0
v -36.3 3.0 -13.0
v -36.0 3.0 -12.5
v -36.0 2.5 -12.0
v -36.0 3.0 -9.5
v -36.8 4.0 -20.0
v -36.5 4.0 -19.0
v -36.0 3.1 -18.0
v -36.4 4.0 -18.0
v -36.2 4.0 -17.0
v -36.0 3.6 -17.0
v -36.0 4.0 -16.5
v -36.2 4.0 -15.0
v -36.0 3.4 -15.0
v -36.0 4.0 -15.6
v -36.0 4.0 -14.4
v -36.0 3.8 -14.0
v -36.0 3.5 -13.0
v -36.0 4.0 -9.7
v -36.9 5.0 -20.0
v -36.7 5.0 -19.0
v -36.6 5.0 -18.0
v -36.3 5.0 -17.0
v -36.0 4.2 -16.0
v -36.8 5.0 -15.0
v -36.0 4.2 -14.0
v -36.6 5.0 -14.0
v -36.4 5.0 -13.0
v -36.0 4.4 -13.0
v -36.0 5.0 -12.2
v -36.7 5.0 -11.0
v -36.0 4.7 -11.0
v -36.0 5.0 -11.8
v -36.0 4.4 -10.0
v -36.0 5.1 -12.0
v -36.0 1.0 -10.0
v -35.7 2.0 -11.0
v -35.6 2.0 -10.0
v -35.9 3.0 -18.0
v -35.8 3.0 -17.0
v -35.7 3.0 -16.0
v -35.8 3.0 -15.0
v -35.7 3.0 -12.0
v -35.3 3.0 -11.0
v -35.0 3.0 -10.1
v -35.0 2.9 -10.0
v -35.0 3.0 -9.9
v -35.8 4.0 -16.0
v -35.9 4.0 -14.0
v -35.7 4.0 -13.0
v -35.5 4.0 -12.0
v -35.0 4.0 -11.1
v -35.0 3.9 -11.0
v -35.0 4.0 -9.9
v -35.9 5.0 -12.0
v -35.0 4.1 -11.0
v -35.0 4.1 -10.0
v -34.9 3.0 -10.0
v -34.9 4.0 -11.0
v -34.9 4.0 -10.0
f 3 2 1
f 1 4 3
f 1 2 5
f 5 2 6
f 4 1 7
f 7 1 5
f 6 8 5
f 5 8 7
f 11 10 9
f 13 12 9
f 9 12 11
f 2 3 13
f 3 12 13
f 3 14 12
f 16 15 4
f 15 3 4
f 15 14 3
f 16 17 15
f 20 19 18
f 18 21 20
f 10 22 9
f 24 23 22
f 23 9 22
f 23 13 9
f 23 6 2
f 23 2 13
f 7 25 16
f 7 16 4
f 17 16 26
f 26 16 25
f 29 28 27
f 30 18 19
f 27 31 29
f 18 30 21
f 34 33 32
f 34 32 24
f 32 23 24
f 32 35 23
f 36 8 6
f 23 36 6
f 35 36 23
f 36 37 8
f 8 37 7
f 37 38 7
f 38 25 7
f 25 38 26
f 41 40 39
f 41 39 28
f 39 27 28
f 39 42 27
f 31 27 43
f 43 27 42
f 33 44 32
f 32 44 35
f 35 44 45
f 47 46 45
f 46 35 45
f 46 36 35
f 37 36 48
f 48 36 46
f 39 40 49
f 49 40 50
f 39 51 42
f 39 49 51
f 43 42 52
f 52 42 51
f 47 53 46
f 46 53 48
f 50 54 49
f 49 54 51
f 51 54 55
f 51 55 52
f 58 57 56
f 56 59 58
f 62 61 60
f 10 11 60
f 11 62 60
f 11 63 62
f 64 11 12
f 64 63 11
f 14 56 57
f 64 14 57
f 12 14 64
f 14 15 56
f 15 65 56
f 65 59 56
f 15 66 65
f 17 66 15
f 69 68 67
f 19 20 67
f 20 69 67
f 20 70 69
f 71 60 21
f 60 70 21
f 70 20 21
f 60 61 70
f 72 22 10
f 60 72 10
f 71 72 60
f 72 24 22
f 73 65 66
f 66 17 73
f 17 74 73
f 17 26 74
f 77 76 75
f 77 75 68
f 68 75 67
f 75 28 67
f 28 29 67
f 78 29 31
f 78 67 29
f 78 30 19
f 67 78 19
f 71 21 30
f 78 71 30
f 79 71 78
f 79 33 34
f 72 79 34
f 71 79 72
f 72 34 24
f 37 80 38
f 80 81 38
f 81 26 38
f 81 74 26
f 84 83 82
f 84 82 76
f 76 82 75
f 82 40 75
f 40 41 75
f 75 41 28
f 43 85 78
f 43 78 31
f 78 86 79
f 78 85 86
f 87 44 33
f 79 87 33
f 86 87 79
f 88 45 44
f 88 44 87
f 88 47 45
f 48 89 80
f 48 80 37
f 81 80 90
f 90 80 89
f 82 83 91
f 91 83 92
f 91 50 40
f 91 40 82
f 52 93 85
f 52 85 43
f 85 94 86
f 85 93 94
f 86 95 87
f 86 94 95
f 87 96 88
f 87 95 96
f 97 53 47
f 88 97 47
f 96 97 88
f 89 48 53
f 97 89 53
f 98 89 97
f 90 89 99
f 99 89 98
f 91 92 100
f 100 92 101
f 91 100 50
f 100 102 50
f 102 54 50
f 100 103 102
f 54 104 55
f 102 104 54
f 52 55 93
f 55 105 93
f 55 104 105
f 93 105 94
f 94 105 106
f 94 106 95
f 95 106 107
f 95 107 96
f 96 107 108
f 96 108 97
f 97 108 109
f 97 109 98
f 98 109 110
f 98 110 99
f 101 111 100
f 100 111 103
f 114 113 112
f 57 58 112
f 58 114 112
f 58 115 114
f 117 116 59
f 116 58 59
f 116 115 58
f 117 118 116
f 120 119 62
f 62 119 61
f 121 62 63
f 121 120 62
f 64 112 113
f 121 64 113
f 63 64 121
f 112 64 57
f 65 122 117
f 65 117 59
f 118 117 123
f 123 117 122
f 126 125 124
f 68 69 124
f 69 126 124
f 69 127 126
f 128 69 70
f 128 127 69
f 70 61 119
f 70 119 128
f 73 122 65
f 73 74 122
f 74 123 122
f 74 129 123
f 124 125 77
f 125 76 77
f 125 130 76
f 124 77 68
f 81 129 74
f 81 131 129
f 133 132 84
f 84 132 83
f 84 76 130
f 84 130 133
f 90 135 134
f 131 90 134
f 81 90 131
f 135 136 134
f 139 138 137
f 132 139 137
f 92 132 137
f 83 132 92
f 141 140 135
f 90 141 135
f 99 141 90
f 135 140 136
f 138 142 137
f 92 137 142
f 143 92 142
f 101 92 143
f 103 144 102
f 102 144 145
f 146 102 145
f 104 102 146
f 146 148 147
f 105 146 147
f 104 146 105
f 149 106 105
f 149 105 147
f 150 107 106
f 150 106 149
f 151 108 107
f 151 107 150
f 108 151 152
f 153 108 152
f 109 108 153
f 109 154 110
f 153 154 109
f 99 110 141
f 141 110 154
f 111 101 155
f 101 156 155
f 101 143 156
f 144 103 111
f 155 144 111
f 157 144 155
f 145 144 158
f 158 144 157
f 148 159 147
f 147 159 149
f 149 159 160
f 149 160 150
f 150 160 161
f 163 162 161
f 162 150 161
f 162 151 150
f 152 151 164
f 164 151 162
f 156 165 155
f 155 165 157
f 157 165 166
f 157 166 158
f 163 167 162
f 162 167 164
f 169 168 114
f 114 168 113
f 170 114 115
f 170 169 114
f 172 170 171
f 170 116 171
f 170 115 116
f 118 171 116
f 175 174 173
f 177 176 173
f 173 176 175
f 119 120 177
f 120 176 177
f 120 178 176
f 179 120 121
f 179 178 120
f 121 113 168
f 121 168 179
f 180 172 171
f 171 118 180
f 118 181 180
f 118 123 181
f 183 182 126
f 126 182 125
f 127 173 174
f 183 127 174
f 126 127 183
f 173 127 128
f 173 128 177
f 177 128 119
f 129 181 123
f 129 184 181
f 182 130 125
f 185 130 182
f 131 184 129
f 131 186 184
f 188 187 133
f 133 187 132
f 133 130 185
f 133 185 188
f 189 186 131
f 189 131 134
f 134 136 189
f 189 136 190
f 192 191 139
f 139 191 138
f 139 132 187
f 139 187 192
f 194 193 140
f 194 140 141
f 136 140 190
f 190 140 193
f 191 195 138
f 138 195 142
f 143 142 195
f 143 195 196
f 145 197 146
f 197 148 146
f 152 198 153
f 199 154 153
f 199 153 198
f 199 200 154
f 200 141 154
f 200 194 141
f 196 156 143
f 201 156 196
f 158 202 197
f 158 197 145
f 203 159 148
f 197 203 148
f 202 203 197
f 204 160 159
f 204 159 203
f 205 161 160
f 205 160 204
f 205 163 161
f 164 206 198
f 164 198 152
f 208 199 207
f 199 206 207
f 199 198 206
f 199 208 200
f 201 209 156
f 156 209 165
f 165 210 166
f 209 210 165
f 158 166 202
f 166 211 202
f 166 210 211
f 202 211 203
f 203 211 212
f 203 212 204
f 204 212 213
f 204 213 205
f 205 213 214
f 205 214 163
f 214 167 163
f 214 215 167
f 164 167 206
f 167 216 206
f 167 215 216
f 206 216 207
f 218 217 169
f 169 217 168
f 220 218 219
f 218 170 219
f 218 169 170
f 172 219 170
f 221 174 175
f 221 175 222
f 175 223 222
f 175 176 223
f 224 176 178
f 224 223 176
f 225 178 179
f 225 224 178
f 179 168 217
f 179 217 225
f 226 220 219
f 226 219 172
f 180 226 172
f 227 226 180
f 180 181 227
f 227 181 228
f 230 229 183
f 183 229 182
f 183 174 221
f 231 183 221
f 230 183 231
f 231 221 222
f 184 228 181
f 184 232 228
f 229 185 182
f 233 185 229
f 186 235 234
f 232 186 234
f 184 186 232
f 235 236 234
f 238 237 188
f 188 237 187
f 188 185 233
f 188 233 238
f 189 235 186
f 189 190 235
f 190 236 235
f 190 239 236
f 241 240 192
f 192 240 191
f 192 187 237
f 192 237 241
f 243 242 193
f 243 193 194
f 190 193 239
f 239 193 242
f 240 244 191
f 191 244 195
f 196 195 244
f 196 244 245
f 200 247 246
f 243 200 246
f 194 200 243
f 247 248 246
f 245 201 196
f 249 201 245
f 207 250 208
f 250 251 208
f 208 251 200
f 251 252 200
f 252 247 200
f 247 252 248
f 209 201 253
f 201 254 253
f 201 249 254
f 255 210 209
f 255 209 253
f 256 211 210
f 256 210 255
f 257 212 211
f 257 211 256
f 258 213 212
f 258 212 257
f 259 214 213
f 259 213 258
f 214 259 260
f 261 214 260
f 215 214 261
f 215 262 216
f 261 262 215
f 207 216 250
f 216 263 250
f 216 262 263
f 250 263 251
f 254 264 253
f 253 264 255
f 255 264 265
f 255 265 256
f 256 265 266
f 256 266 257
f 257 266 267
f 257 267 258
f 258 267 268
f 258 268 259
f 259 268 269
f 259 269 260
f 271 270 218
f 218 270 217
f 218 220 271
f 271 220 272
f 273 222 223
f 224 274 223
f 223 274 273
f 274 224 275
f 224 276 275
f 224 225 276
f 225 217 270
f 225 270 276
f 277 272 220
f 277 220 226
f 278 226 227
f 278 277 226
f 227 228 278
f 278 228 279
f 280 229 230
f 231 281 230
f 230 281 280
f 222 273 231
f 273 281 231
f 273 282 281
f 283 273 274
f 282 273 283
f 274 275 284
f 274 284 283
f 232 286 285
f 279 232 285
f 228 232 279
f 286 287 285
f 289 288 280
f 288 229 280
f 288 233 229
f 289 280 281
f 289 281 290
f 290 281 282
f 290 282 291
f 291 282 283
f 291 283 292
f 292 283 284
f 234 286 232
f 234 236 286
f 236 287 286
f 236 293 287
f 295 294 238
f 238 294 237
f 238 233 288
f 238 288 295
f 239 293 236
f 239 296 293
f 298 297 241
f 241 297 240
f 241 237 294
f 241 294 298
f 243 299 242
f 299 300 242
f 300 239 242
f 300 296 239
f 297 301 240
f 240 301 244
f 245 244 301
f 245 301 302
f 246 299 243
f 246 248 299
f 248 300 299
f 248 303 300
f 302 249 245
f 304 249 302
f 251 305 252
f 305 306 252
f 306 248 252
f 306 303 248
f 304 254 249
f 307 254 304
f 310 309 308
f 311 308 309
f 260 312 261
f 313 262 261
f 313 261 312
f 262 313 314
f 315 262 314
f 263 262 315
f 251 263 305
f 263 316 305
f 263 315 316
f 305 316 306
f 307 317 254
f 254 317 264
f 264 318 265
f 317 318 264
f 265 319 266
f 318 319 265
f 308 267 310
f 267 319 310
f 267 266 319
f 311 320 308
f 320 267 308
f 320 268 267
f 268 321 269
f 320 321 268
f 260 269 312
f 269 322 312
f 269 321 322
f 312 322 313
f 313 322 323
f 313 323 314
f 324 270 271
f 272 324 271
f 325 275 276
f 270 324 276
f 324 325 276
f 324 326 325
f 277 327 272
f 327 324 272
f 327 326 324
f 327 277 328
f 277 329 328
f 277 278 329
f 331 330 279
f 330 278 279
f 330 329 278
f 331 332 330
f 333 284 325
f 325 284 275
f 334 325 326
f 333 325 334
f 335 326 327
f 334 326 335
f 327 328 336
f 337 327 336
f 335 327 337
f 279 285 331
f 337 336 338
f 285 287 331
f 287 332 331
f 287 339 332
f 340 288 289
f 290 341 289
f 289 341 340
f 291 342 290
f 290 342 341
f 292 343 291
f 291 343 342
f 284 333 292
f 333 343 292
f 333 344 343
f 345 333 334
f 344 333 345
f 346 334 335
f 345 334 346
f 347 335 337
f 346 335 347
f 337 338 348
f 337 348 347
f 293 339 287
f 293 349 339
f 350 294 295
f 351 350 295
f 351 295 288
f 352 351 288
f 340 352 288
f 352 340 341
f 352 341 353
f 355 354 353
f 341 355 353
f 342 355 341
f 356 342 343
f 355 342 356
f 344 358 357
f 356 344 357
f 343 344 356
f 358 344 345
f 358 345 359
f 359 345 346
f 359 346 360
f 360 346 347
f 360 347 361
f 361 347 348
f 296 349 293
f 296 362 349
f 363 297 298
f 364 363 298
f 364 298 294
f 365 364 294
f 350 365 294
f 365 350 351
f 366 354 355
f 366 355 356
f 366 356 367
f 367 356 357
f 300 362 296
f 300 368 362
f 301 297 363
f 371 370 369
f 302 369 370
f 302 364 369
f 302 301 363
f 364 302 363
f 303 368 300
f 303 372 368
f 370 371 373
f 373 371 374
f 373 304 302
f 373 302 370
f 306 372 303
f 306 375 372
f 373 374 376
f 376 374 377
f 376 307 304
f 376 304 373
f 379 378 309
f 379 309 310
f 311 309 378
f 311 378 380
f 314 381 315
f 315 381 382
f 383 315 382
f 316 315 383
f 306 316 375
f 375 316 383
f 377 384 376
f 376 384 307
f 384 317 307
f 384 385 317
f 317 386 318
f 385 386 317
f 318 387 319
f 386 387 318
f 310 319 379
f 379 319 387
f 380 388 311
f 311 388 320
f 320 389 321
f 388 389 320
f 321 390 322
f 389 390 321
f 322 391 323
f 390 391 322
f 314 323 381
f 323 392 381
f 323 391 392
f 381 392 382
f 393 328 329
f 330 394 329
f 329 394 393
f 332 394 330
f 393 336 328
f 336 393 338
f 393 395 338
f 393 394 395
f 339 395 332
f 332 395 394
f 396 348 395
f 395 348 338
f 349 396 339
f 339 396 395
f 397 351 352
f 353 398 352
f 352 398 397
f 354 398 353
f 399 357 358
f 359 400 358
f 358 400 399
f 360 401 359
f 359 401 400
f 361 402 360
f 360 402 401
f 403 402 361
f 403 361 348
f 404 403 348
f 396 404 348
f 396 349 404
f 349 405 404
f 349 362 405
f 406 364 365
f 351 397 365
f 397 406 365
f 397 407 406
f 408 397 398
f 407 397 408
f 366 409 354
f 409 398 354
f 409 408 398
f 367 410 366
f 366 410 409
f 357 399 367
f 399 410 367
f 399 411 410
f 412 399 400
f 411 399 412
f 413 400 401
f 412 400 413
f 402 415 414
f 413 402 414
f 401 402 413
f 415 402 403
f 368 405 362
f 368 416 405
f 417 371 369
f 364 406 369
f 406 417 369
f 406 418 417
f 407 420 419
f 418 407 419
f 406 407 418
f 420 407 408
f 420 408 421
f 421 408 409
f 421 409 422
f 422 409 410
f 422 410 423
f 425 424 423
f 410 425 423
f 411 425 410
f 426 411 412
f 425 411 426
f 413 428 427
f 426 413 427
f 412 413 426
f 428 413 414
f 372 416 368
f 372 429 416
f 430 374 417
f 417 374 371
f 431 417 418
f 430 417 431
f 418 419 432
f 433 418 432
f 431 418 433
f 435 434 433
f 435 433 432
f 436 434 435
f 439 438 437
f 437 441 440
f 437 425 441
f 437 438 424
f 425 437 424
f 441 425 426
f 441 426 442
f 442 426 427
f 375 429 372
f 375 443 429
f 444 377 430
f 430 377 374
f 445 430 431
f 444 430 445
f 446 431 433
f 445 431 446
f 447 433 434
f 446 433 447
f 448 378 379
f 434 448 379
f 447 434 379
f 448 434 436
f 437 449 380
f 448 437 380
f 378 448 380
f 439 437 448
f 437 440 450
f 451 437 450
f 449 437 451
f 453 452 451
f 453 451 450
f 454 452 453
f 457 456 455
f 383 382 455
f 456 383 455
f 458 383 456
f 375 383 443
f 443 383 458
f 444 384 377
f 384 444 385
f 385 444 445
f 385 445 386
f 386 445 446
f 386 446 387
f 387 446 447
f 387 447 379
f 449 388 380
f 388 449 389
f 389 449 451
f 389 451 390
f 390 451 452
f 454 459 452
f 459 390 452
f 459 391 390
f 455 392 457
f 392 459 457
f 392 391 459
f 392 455 382
f 460 403 404
f 405 460 404
f 461 414 415
f 403 460 415
f 460 461 415
f 460 462 461
f 416 462 405
f 405 462 460
f 463 419 420
f 421 464 420
f 420 464 463
f 422 465 421
f 421 465 464
f 423 466 422
f 422 466 465
f 424 466 423
f 467 427 428
f 414 461 428
f 461 467 428
f 461 468 467
f 462 470 469
f 468 462 469
f 461 462 468
f 462 416 470
f 416 471 470
f 416 429 471
f 463 432 419
f 432 463 435
f 435 463 464
f 435 464 436
f 464 472 436
f 464 465 472
f 439 472 438
f 472 466 438
f 472 465 466
f 438 466 424
f 473 440 441
f 442 474 441
f 441 474 473
f 427 467 442
f 467 474 442
f 467 475 474
f 468 477 476
f 475 468 476
f 467 468 475
f 477 468 469
f 443 471 429
f 443 478 471
f 472 448 436
f 448 472 439
f 473 450 440
f 450 473 453
f 453 473 474
f 453 474 454
f 474 479 454
f 474 475 479
f 480 456 457
f 475 480 457
f 479 475 457
f 480 475 476
f 456 481 458
f 480 481 456
f 443 458 478
f 478 458 481
f 479 459 454
f 459 479 457
f 482 469 470
f 471 482 470
f 483 476 477
f 469 482 477
f 482 483 477
f 482 484 483
f 478 484 471
f 471 484 482
f 483 480 476
f 480 483 481
f 481 483 484
f 481 484 478
