v 30.7 17.0 13.0
v 31.0 17.0 12.5
v 31.0 16.6 13.0
v 31.0 16.5 14.0
v 30.6 17.0 14.0
v 31.0 16.8 15.0
v 30.8 17.0 15.0
v 31.0 17.0 15.2
v 30.7 18.0 12.0
v 31.0 18.0 11.6
v 31.0 17.5 12.0
v 30.5 18.0 13.0
v 30.5 18.0 14.0
v 30.7 18.0 15.0
v 31.0 18.0 15.3
v 30.7 19.0 12.0
v 31.0 19.0 11.6
v 30.5 19.0 13.0
v 30.6 19.0 14.0
v 30.8 19.0 15.0
v 31.0 19.0 15.2
v 31.0 19.5 12.0
v 30.9 20.0 13.0
v 31.0 20.0 12.8
v 31.0 20.0 13.2
v 31.0 19.6 14.0
v 31.0 19.3 15.0
v 31.0 20.1 13.0
v 31.9 14.0 14.0
v 32.0 14.0 13.8
v 32.0 13.8 14.0
v 32.0 14.0 14.1
v 31.8 15.0 12.0
v 32.0 15.0 11.7
v 32.0 14.8 12.0
v 32.0 14.4 13.0
v 31.6 15.0 13.0
v 31.7 15.0 14.0
v 32.0 15.0 14.3
v 31.6 16.0 12.0
v 32.0 16.0 11.4
v 31.4 16.0 13.0
v 31.6 16.0 14.0
v 32.0 16.0 14.4
v 31.7 17.0 11.0
v 32.0 17.0 10.6
v 32.0 16.5 11.0
v 31.3 17.0 12.0
v 32.0 16.7 15.0
v 32.0 17.0 15.3
v 31.5 18.0 11.0
v 32.0 18.0 10.4
v 32.0 18.0 15.5
v 31.9 19.0 10.0
v 32.0 19.0 9.9
v 32.0 18.9 10.0
v 31.4 19.0 11.0
v 32.0 19.0 15.5
v 32.0 19.1 10.0
v 31.7 20.0 11.0
v 32.0 20.0 10.6
v 31.3 20.0 12.0
v 31.4 20.0 14.0
v 31.7 20.0 15.0
v 32.0 20.0 15.2
v 32.0 20.4 11.0
v 31.9 21.0 12.0
v 32.0 21.0 11.8
v 32.0 20.7 13.0
v 32.0 21.0 12.2
v 32.0 20.4 14.0
v 32.0 20.2 15.0
v 32.0 21.1 12.0
v 32.8 11.0 14.0
v 33.0 11.0 13.7
v 33.0 10.7 14.0
v 33.0 10.7 15.0
v 32.8 11.0 15.0
v 33.0 11.0 15.2
v 32.6 12.0 14.0
v 33.0 12.0 13.4
v 32.7 12.0 15.0
v 33.0 12.0 15.3
v 32.7 13.0 13.0
v 33.0 13.0 12.6
v 33.0 12.5 13.0
v 32.4 13.0 14.0
v 32.6 13.0 15.0
v 33.0 13.0 15.4
v 32.4 14.0 13.0
v 33.0 14.0 12.3
v 32.7 14.0 15.0
v 33.0 14.0 15.2
v 32.8 15.0 10.0
v 33.0 15.0 9.7
v 33.0 14.8 10.0
v 33.0 14.5 11.0
v 32.5 15.0 11.0
v 33.0 14.2 12.0
v 33.0 14.3 15.0
v 33.0 15.0 14.5
v 32.6 16.0 10.0
v 33.0 16.0 9.5
v 32.3 16.0 11.0
v 32.8 16.0 14.0
v 33.0 15.8 14.0
v 33.0 16.0 13.9
v 32.5 17.0 10.0
v 33.0 17.0 9.5
v 33.0 16.2 14.0
v 32.4 17.0 15.0
v 33.0 17.0 14.5
v 32.4 18.0 10.0
v 33.0 18.0 9.5
v 33.0 17.6 15.0
v 33.0 18.0 15.2
v 33.0 19.0 9.6
v 33.0 19.0 15.3
v 33.0 19.6 10.0
v 33.0 20.0 10.4
v 33.0 20.0 15.2
v 33.0 21.0 10.0
v 33.0 21.0 10.0
v 33.0 21.0 10.0
v 32.5 21.0 11.0
v 32.5 21.0 13.0
v 33.0 21.0 13.4
v 33.0 20.6 14.0
v 33.0 20.2 15.0
v 33.0 21.0 10.0
v 33.0 21.4 11.0
v 33.0 21.4 12.0
v 33.0 21.8 13.0
v 33.9 7.0 14.0
v 34.0 7.0 13.9
v 34.0 6.9 14.0
v 34.0 7.0 14.1
v 33.7 8.0 13.0
v 34.0 8.0 12.7
v 34.0 7.5 13.0
v 33.7 8.0 14.0
v 34.0 8.0 14.3
v 33.6 9.0 13.0
v 34.0 9.0 12.5
v 33.6 9.0 14.0
v 34.0 9.0 14.4
v 33.6 10.0 13.0
v 34.0 10.0 12.4
v 33.4 10.0 14.0
v 34.0 9.7 15.0
v 33.7 10.0 15.0
v 34.0 10.0 15.2
v 33.7 11.0 12.0
v 34.0 11.0 11.7
v 34.0 10.5 12.0
v 33.4 11.0 13.0
v 34.0 11.0 15.5
v 33.6 12.0 12.0
v 34.0 12.0 11.4
v 33.3 12.0 13.0
v 34.0 12.0 15.5
v 33.8 13.0 11.0
v 34.0 13.0 10.7
v 34.0 12.6 11.0
v 33.4 13.0 12.0
v 34.0 13.0 15.5
v 33.5 14.0 11.0
v 34.0 14.0 10.4
v 33.2 14.0 12.0
v 34.0 14.0 15.4
v 33.7 15.0 9.0
v 34.0 15.0 8.7
v 34.0 14.7 9.0
v 34.0 14.3 10.0
v 34.0 14.5 15.0
v 34.0 15.0 14.5
v 33.5 16.0 9.0
v 34.0 16.0 8.5
v 34.0 15.5 14.0
v 34.0 16.0 13.6
v 33.5 17.0 9.0
v 34.0 17.0 8.5
v 33.4 17.0 14.0
v 34.0 17.0 13.5
v 33.6 18.0 9.0
v 34.0 18.0 8.6
v 33.6 18.0 14.0
v 34.0 18.0 13.5
v 33.2 18.0 15.0
v 34.0 19.0 9.0
v 34.0 19.0 9.0
v 33.7 19.0 11.0
v 34.0 18.8 11.0
v 34.0 19.0 10.5
v 33.8 19.0 12.0
v 34.0 18.8 12.0
v 34.0 19.0 12.4
v 33.7 19.0 14.0
v 34.0 19.0 13.5
v 33.4 19.0 15.0
v 34.0 19.0 9.0
v 34.0 19.3 10.0
v 33.5 20.0 11.0
v 33.6 20.0 12.0
v 34.0 20.0 12.6
v 34.0 19.6 14.0
v 34.0 20.0 14.3
v 33.2 20.0 15.0
v 34.0 21.0 9.9
v 34.0 20.8 10.0
v 34.0 20.7 11.0
v 34.0 21.0 11.3
v 33.4 21.0 12.0
v 34.0 20.3 13.0
v 33.3 21.0 13.0
v 34.0 20.2 14.0
v 34.0 21.7 10.0
v 34.0 21.9 11.0
v 34.9 6.0 13.0
v 35.0 6.0 12.9
v 35.0 5.9 13.0
v 35.0 6.0 13.6
v 34.7 7.0 12.0
v 35.0 7.0 11.7
v 35.0 6.7 12.0
v 34.4 7.0 13.0
v 35.0 6.1 14.0
v 35.0 7.0 14.3
v 34.5 8.0 12.0
v 35.0 8.0 11.5
v 35.0 8.0 14.5
v 34.5 9.0 12.0
v 35.0 9.0 11.5
v 35.0 9.0 14.6
v 34.4 10.0 12.0
v 35.0 10.0 11.4
v 35.0 9.5 15.0
v 35.0 10.0 15.4
v 34.6 11.0 11.0
v 35.0 11.0 10.6
v 35.0 10.5 11.0
v 35.0 11.0 15.5
v 34.4 12.0 11.0
v 35.0 12.0 10.5
v 35.0 12.0 15.5
v 35.0 13.0 10.3
v 35.0 13.0 15.5
v 34.4 14.0 10.0
v 35.0 14.0 9.4
v 35.0 13.4 10.0
v 35.0 14.0 15.4
v 34.7 15.0 8.0
v 35.0 15.0 7.8
v 35.0 14.8 8.0
v 35.0 14.3 9.0
v 35.0 14.5 15.0
v 35.0 15.0 14.5
v 34.5 16.0 8.0
v 35.0 16.0 7.6
v 35.0 15.5 14.0
v 35.0 16.0 13.4
v 34.7 17.0 8.0
v 35.0 17.0 7.8
v 34.6 17.0 13.0
v 35.0 16.6 13.0
v 35.0 17.0 12.7
v 35.0 17.3 8.0
v 35.0 18.0 8.5
v 34.5 18.0 13.0
v 35.0 18.0 12.4
v 35.0 18.5 9.0
v 34.0 19.0 9.0
v 34.3 19.0 10.0
v 35.0 18.6 10.0
v 35.0 18.5 11.0
v 35.0 18.3 12.0
v 34.3 19.0 13.0
v 34.3 20.0 13.0
v 34.5 20.0 14.0
v 34.1 21.0 10.0
v 34.2 21.0 11.0
v 35.1 6.0 13.0
v 36.0 7.0 11.3
v 36.0 6.1 12.0
v 36.0 6.4 13.0
v 35.5 7.0 14.0
v 36.0 7.0 13.6
v 35.6 8.0 11.0
v 36.0 8.0 10.7
v 36.0 7.5 11.0
v 36.0 7.5 14.0
v 36.0 8.0 14.3
v 35.5 9.0 11.0
v 36.0 9.0 10.5
v 36.0 9.0 14.6
v 35.4 10.0 11.0
v 36.0 10.0 10.4
v 36.0 9.5 15.0
v 36.0 10.0 15.4
v 35.7 11.0 10.0
v 36.0 11.0 9.7
v 36.0 10.5 10.0
v 36.0 11.0 15.5
v 35.5 12.0 10.0
v 36.0 12.0 9.6
v 36.0 12.0 15.4
v 35.3 13.0 10.0
v 36.0 13.0 9.4
v 36.0 13.0 15.4
v 35.5 14.0 9.0
v 36.0 14.0 8.6
v 36.0 13.5 9.0
v 36.0 14.0 15.2
v 36.0 15.0 7.8
v 36.0 14.7 8.0
v 36.0 14.3 15.0
v 36.0 15.0 14.4
v 36.0 16.0 7.6
v 35.6 16.0 13.0
v 36.0 15.8 13.0
v 36.0 16.0 12.7
v 36.0 15.4 14.0
v 36.0 17.0 7.8
v 36.0 17.0 12.3
v 36.0 17.3 8.0
v 36.0 18.0 8.7
v 35.4 18.0 12.0
v 36.0 17.4 12.0
v 36.0 18.0 11.4
v 36.0 18.2 9.0
v 36.0 18.4 10.0
v 36.0 18.2 11.0
v 36.6 7.0 11.0
v 37.0 7.0 10.4
v 37.0 6.8 11.0
v 37.0 6.6 12.0
v 37.0 6.8 13.0
v 37.0 7.0 13.2
v 37.0 8.0 10.2
v 36.5 8.0 14.0
v 37.0 8.0 13.7
v 36.6 9.0 10.0
v 37.0 9.0 9.6
v 37.0 8.3 10.0
v 37.0 8.5 14.0
v 37.0 9.0 14.4
v 36.4 10.0 10.0
v 37.0 10.0 9.5
v 37.0 9.7 15.0
v 37.0 10.0 15.2
v 37.0 11.0 9.4
v 37.0 11.0 15.3
v 37.0 12.0 9.3
v 36.6 12.0 15.0
v 37.0 11.5 15.0
v 37.0 12.0 14.7
v 36.5 13.0 9.0
v 37.0 13.0 8.6
v 37.0 12.4 9.0
v 36.5 13.0 15.0
v 37.0 13.0 14.6
v 37.0 14.0 8.5
v 36.3 14.0 15.0
v 37.0 14.0 14.5
v 36.4 15.0 8.0
v 37.0 15.0 8.3
v 37.0 15.0 14.2
v 36.5 16.0 8.0
v 37.0 16.0 8.5
v 37.0 15.6 13.0
v 37.0 16.0 12.4
v 37.0 15.2 14.0
v 36.2 17.0 8.0
v 37.0 16.6 9.0
v 36.7 17.0 9.0
v 37.0 17.0 9.6
v 36.7 17.0 11.0
v 37.0 16.7 11.0
v 37.0 17.0 10.4
v 36.3 17.0 12.0
v 37.0 16.4 12.0
v 36.2 18.0 9.0
v 37.0 17.3 10.0
v 36.4 18.0 10.0
v 36.3 18.0 11.0
v 37.3 7.0 11.0
v 37.5 7.0 12.0
v 37.3 7.0 13.0
v 37.7 8.0 9.0
v 38.0 8.0 8.7
v 38.0 7.3 9.0
v 38.0 7.4 10.0
v 37.2 8.0 10.0
v 38.0 7.5 11.0
v 38.0 7.5 12.0
v 38.0 7.7 13.0
v 38.0 8.0 13.2
v 37.6 9.0 9.0
v 38.0 9.0 8.7
v 37.5 9.0 14.0
v 38.0 9.0 13.6
v 37.5 10.0 9.0
v 38.0 10.0 8.6
v 38.0 9.5 14.0
v 37.3 10.0 15.0
v 38.0 10.0 14.4
v 37.5 11.0 9.0
v 38.0 11.0 8.6
v 37.4 11.0 15.0
v 38.0 11.0 14.5
v 37.4 12.0 9.0
v 38.0 12.0 8.5
v 38.0 12.0 14.4
v 37.9 13.0 8.0
v 38.0 13.0 7.9
v 38.0 12.8 8.0
v 38.0 13.0 14.3
v 38.0 13.4 8.0
v 38.0 14.0 8.2
v 37.6 14.0 14.0
v 38.0 13.5 14.0
v 38.0 14.0 13.7
v 37.7 15.0 8.0
v 38.0 15.0 7.9
v 38.0 14.6 8.0
v 37.3 15.0 14.0
v 38.0 15.0 13.5
v 38.0 15.2 8.0
v 38.0 16.0 8.5
v 37.5 16.0 12.0
v 38.0 15.7 12.0
v 38.0 16.0 11.5
v 38.0 15.4 13.0
v 38.0 16.4 9.0
v 37.3 17.0 10.0
v 38.0 16.6 10.0
v 38.0 16.3 11.0
v 39.0 8.0 8.5
v 39.0 7.7 9.0
v 39.0 7.8 10.0
v 38.6 8.0 11.0
v 39.0 8.0 10.4
v 38.5 8.0 12.0
v 38.2 8.0 13.0
v 39.0 8.9 9.0
v 39.0 9.0 9.0
v 39.0 9.0 9.0
v 39.0 8.4 11.0
v 39.0 8.6 12.0
v 39.0 9.0 12.4
v 38.6 9.0 13.0
v 39.0 10.0 8.7
v 39.0 9.0 9.0
v 39.0 9.5 13.0
v 38.4 10.0 14.0
v 39.0 10.0 13.4
v 39.0 11.0 8.5
v 38.5 11.0 14.0
v 39.0 11.0 13.6
v 39.0 12.0 8.4
v 38.5 12.0 14.0
v 39.0 12.0 13.6
v 39.0 13.0 7.6
v 39.0 12.5 8.0
v 38.4 13.0 14.0
v 39.0 13.0 13.5
v 38.2 14.0 8.0
v 39.0 14.0 7.5
v 39.0 14.0 13.5
v 39.0 15.0 7.5
v 39.0 15.0 13.4
v 39.0 15.6 8.0
v 39.0 16.0 8.5
v 38.8 16.0 11.0
v 39.0 15.9 11.0
v 39.0 16.0 10.9
v 39.0 15.6 12.0
v 39.0 15.4 13.0
v 39.0 16.4 9.0
v 39.0 16.8 10.0
v 39.3 8.0 9.0
v 39.2 8.0 10.0
v 39.6 9.0 10.0
v 39.5 9.0 11.0
v 39.3 9.0 12.0
v 39.8 10.0 9.0
v 40.0 10.0 9.2
v 40.0 9.5 10.0
v 40.0 9.6 11.0
v 40.0 10.0 11.6
v 39.7 10.0 12.0
v 39.4 10.0 13.0
v 40.0 11.0 8.6
v 40.0 10.1 9.0
v 40.0 10.3 12.0
v 40.0 10.7 13.0
v 40.0 11.0 13.2
v 40.0 12.0 8.4
v 40.0 12.0 13.3
v 40.0 13.0 7.4
v 40.0 12.4 8.0
v 39.8 13.0 13.0
v 40.0 12.7 13.0
v 40.0 13.0 12.8
v 39.6 14.0 7.0
v 40.0 14.0 6.6
v 40.0 13.5 7.0
v 40.0 13.3 13.0
v 40.0 14.0 13.3
v 39.6 15.0 7.0
v 40.0 15.0 6.6
v 40.0 15.0 13.2
v 40.0 15.4 7.0
v 39.6 16.0 8.0
v 40.0 16.0 7.7
v 39.1 16.0 11.0
v 39.6 16.0 12.0
v 40.0 16.0 12.3
v 40.0 15.3 13.0
v 40.0 16.2 8.0
v 40.0 16.1 9.0
v 40.0 16.5 10.0
v 40.0 16.4 11.0
v 40.0 16.2 12.0
v 40.6 10.0 10.0
v 40.4 10.0 11.0
v 41.0 11.0 8.6
v 41.0 10.2 9.0
v 41.0 10.3 10.0
v 41.0 10.4 11.0
v 41.0 10.7 12.0
v 40.3 11.0 13.0
v 41.0 11.0 12.3
v 41.0 12.0 8.3
v 40.4 12.0 13.0
v 41.0 12.0 12.5
v 40.7 13.0 6.0
v 41.0 13.0 5.6
v 41.0 12.8 6.0
v 41.0 12.6 7.0
v 40.4 13.0 7.0
v 41.0 12.3 8.0
v 41.0 13.0 12.4
v 40.9 14.0 5.0
v 41.0 14.0 4.8
v 41.0 13.8 5.0
v 40.4 14.0 6.0
v 40.4 14.0 13.0
v 41.0 14.0 12.6
v 41.0 14.3 5.0
v 40.6 15.0 6.0
v 41.0 15.0 5.5
v 40.3 15.0 13.0
v 41.0 15.0 12.6
v 41.0 15.3 6.0
v 40.7 16.0 7.0
v 41.0 16.0 6.8
v 41.0 16.0 12.3
v 41.0 16.2 7.0
v 41.0 16.9 8.0
v 41.0 16.5 9.0
v 41.0 16.5 10.0
v 41.0 16.5 11.0
v 41.0 16.2 12.0
v 41.5 11.0 9.0
v 42.0 11.0 9.6
v 42.0 10.7 10.0
v 42.0 10.7 11.0
v 41.3 11.0 12.0
v 42.0 11.0 11.4
v 41.7 12.0 8.0
v 42.0 12.0 7.8
v 42.0 11.9 8.0
v 42.0 11.4 9.0
v 41.5 12.0 12.0
v 42.0 12.0 11.6
v 41.6 13.0 5.0
v 42.0 13.0 4.5
v 42.0 12.7 5.0
v 42.0 12.5 6.0
v 42.0 12.4 7.0
v 41.6 13.0 12.0
v 42.0 13.0 11.6
v 41.7 14.0 4.0
v 42.0 14.0 3.6
v 42.0 13.5 4.0
v 42.0 13.5 12.0
v 42.0 14.0 12.3
v 41.8 15.0 4.0
v 42.0 15.0 3.8
v 41.5 15.0 5.0
v 42.0 15.0 12.3
v 42.0 15.2 4.0
v 42.0 15.4 5.0
v 42.0 15.6 6.0
v 41.6 16.0 7.0
v 42.0 15.9 7.0
v 42.0 16.0 7.2
v 41.4 16.0 12.0
v 42.0 15.4 12.0
v 42.0 16.0 11.4
v 42.0 16.5 8.0
v 42.0 16.5 9.0
v 42.0 16.4 10.0
v 42.0 16.3 11.0
v 42.3 11.0 10.0
v 42.9 11.0 11.0
v 42.2 12.0 8.0
v 42.5 12.0 9.0
v 42.7 12.0 10.0
v 43.0 12.0 10.9
v 43.0 11.4 11.0
v 43.0 12.0 11.1
v 42.7 13.0 3.0
v 43.0 13.0 2.7
v 43.0 12.4 3.0
v 43.0 12.5 4.0
v 42.4 13.0 4.0
v 43.0 12.5 5.0
v 43.0 12.5 6.0
v 43.0 12.6 7.0
v 43.0 12.6 8.0
v 43.0 12.5 9.0
v 43.0 12.5 10.0
v 43.0 13.0 10.6
v 42.7 13.0 11.0
v 43.0 12.2 11.0
v 42.7 14.0 3.0
v 43.0 14.0 2.8
v 43.0 13.4 11.0
v 42.3 14.0 12.0
v 43.0 14.0 11.3
v 43.0 14.3 3.0
v 43.0 15.0 3.6
v 42.3 15.0 12.0
v 43.0 15.0 11.3
v 43.0 15.4 4.0
v 43.0 15.7 5.0
v 42.6 16.0 6.0
v 43.0 16.0 5.5
v 42.2 16.0 7.0
v 42.6 16.0 10.0
v 43.0 15.6 10.0
v 43.0 16.0 9.4
v 42.3 16.0 11.0
v 43.0 15.3 11.0
v 43.0 16.3 6.0
v 43.0 16.4 7.0
v 43.0 16.4 8.0
v 43.0 16.2 9.0
v 43.1 12.0 11.0
v 44.0 13.0 2.7
v 44.0 12.7 3.0
v 44.0 12.5 4.0
v 44.0 12.5 5.0
v 44.0 12.8 6.0
v 43.5 13.0 7.0
v 44.0 13.0 6.3
v 43.4 13.0 8.0
v 43.4 13.0 9.0
v 43.3 13.0 10.0
v 44.0 14.0 2.7
v 43.8 14.0 7.0
v 44.0 14.0 6.7
v 43.6 14.0 8.0
v 43.5 14.0 9.0
v 43.5 14.0 10.0
v 43.3 14.0 11.0
v 44.0 14.4 3.0
v 44.0 15.0 3.5
v 44.0 14.3 7.0
v 44.0 14.8 8.0
v 44.0 15.0 8.2
v 43.6 15.0 9.0
v 43.4 15.0 10.0
v 43.2 15.0 11.0
v 44.0 15.5 4.0
v 43.8 16.0 5.0
v 44.0 16.0 4.8
v 43.5 16.0 8.0
v 44.0 15.2 8.0
v 44.0 16.0 7.4
v 43.3 16.0 9.0
v 44.0 16.1 5.0
v 44.0 16.3 6.0
v 44.0 16.2 7.0
v 44.4 13.0 3.0
v 45.0 13.0 3.7
v 45.0 12.8 4.0
v 45.0 12.8 5.0
v 44.3 13.0 6.0
v 45.0 13.0 5.3
v 45.0 14.0 2.9
v 45.0 13.9 3.0
v 44.6 14.0 6.0
v 45.0 14.0 5.6
v 45.0 14.1 3.0
v 45.0 15.0 3.7
v 45.0 14.8 6.0
v 44.5 15.0 7.0
v 45.0 15.0 6.1
v 44.1 15.0 8.0
v 45.0 15.2 4.0
v 44.2 16.0 5.0
v 45.0 15.4 5.0
v 44.4 16.0 6.0
v 45.0 15.2 6.0
v 44.2 16.0 7.0
v 45.2 13.0 4.0
v 45.2 13.0 5.0
v 45.1 14.0 3.0
v 45.5 14.0 4.0
v 45.4 14.0 5.0
v 45.2 15.0 4.0
v 45.3 15.0 5.0
v 45.1 15.0 6.0
f 3 2 1
f 5 4 1
f 1 4 3
f 7 6 5
f 5 6 4
f 7 8 6
f 11 10 9
f 11 9 2
f 9 1 2
f 9 12 1
f 1 13 5
f 1 12 13
f 5 14 7
f 5 13 14
f 8 7 15
f 15 7 14
f 9 10 16
f 16 10 17
f 9 18 12
f 9 16 18
f 12 19 13
f 12 18 19
f 13 20 14
f 13 19 20
f 15 14 21
f 21 14 20
f 17 22 16
f 24 23 22
f 23 16 22
f 23 18 16
f 26 19 25
f 19 23 25
f 19 18 23
f 19 26 20
f 20 26 27
f 20 27 21
f 24 28 23
f 23 28 25
f 31 30 29
f 29 32 31
f 35 34 33
f 37 36 33
f 33 36 35
f 36 37 30
f 37 29 30
f 37 38 29
f 32 29 39
f 39 29 38
f 33 34 40
f 40 34 41
f 33 42 37
f 33 40 42
f 37 43 38
f 37 42 43
f 39 38 44
f 44 38 43
f 47 46 45
f 47 45 41
f 45 40 41
f 45 48 40
f 48 2 3
f 42 48 3
f 40 48 42
f 42 3 4
f 42 4 43
f 49 44 43
f 4 49 43
f 6 49 4
f 6 8 49
f 49 8 50
f 45 46 51
f 51 46 52
f 51 10 11
f 48 51 11
f 45 51 48
f 48 11 2
f 15 50 8
f 15 53 50
f 56 55 54
f 56 54 52
f 54 51 52
f 54 57 51
f 57 17 10
f 57 10 51
f 21 53 15
f 21 58 53
f 55 59 54
f 61 60 59
f 60 54 59
f 60 57 54
f 62 22 17
f 57 62 17
f 60 62 57
f 62 24 22
f 25 63 26
f 64 27 26
f 64 26 63
f 64 65 27
f 65 21 27
f 65 58 21
f 61 66 60
f 68 67 66
f 67 60 66
f 67 62 60
f 62 67 24
f 67 69 24
f 69 28 24
f 67 70 69
f 25 28 63
f 28 71 63
f 28 69 71
f 63 71 64
f 64 71 72
f 64 72 65
f 68 73 67
f 67 73 70
f 76 75 74
f 78 77 74
f 74 77 76
f 78 79 77
f 74 75 80
f 80 75 81
f 74 82 78
f 74 80 82
f 79 78 83
f 83 78 82
f 86 85 84
f 86 84 81
f 84 80 81
f 84 87 80
f 80 88 82
f 80 87 88
f 83 82 89
f 89 82 88
f 84 85 90
f 90 85 91
f 90 30 31
f 87 90 31
f 84 90 87
f 87 31 32
f 92 87 32
f 88 87 92
f 89 88 93
f 93 88 92
f 96 95 94
f 98 97 94
f 94 97 96
f 34 35 98
f 35 97 98
f 35 99 97
f 36 90 91
f 99 36 91
f 35 36 99
f 90 36 30
f 101 100 92
f 32 101 92
f 39 101 32
f 92 100 93
f 94 95 102
f 102 95 103
f 94 104 98
f 94 102 104
f 104 41 34
f 104 34 98
f 107 106 105
f 106 101 105
f 101 44 105
f 101 39 44
f 102 103 108
f 108 103 109
f 108 46 47
f 104 108 47
f 102 108 104
f 104 47 41
f 110 107 105
f 112 110 111
f 111 110 49
f 110 105 49
f 105 44 49
f 50 111 49
f 108 109 113
f 113 109 114
f 113 52 46
f 113 46 108
f 115 112 111
f 111 50 115
f 50 116 115
f 50 53 116
f 113 114 56
f 114 55 56
f 114 117 55
f 113 56 52
f 58 116 53
f 58 118 116
f 117 119 55
f 55 119 59
f 61 59 119
f 61 119 120
f 65 118 58
f 65 121 118
f 124 123 122
f 122 125 66
f 120 122 66
f 61 120 66
f 122 120 124
f 125 68 66
f 70 126 69
f 69 126 127
f 128 69 127
f 71 69 128
f 71 129 72
f 128 129 71
f 65 72 121
f 121 72 129
f 123 130 122
f 122 130 125
f 125 130 131
f 125 131 68
f 131 73 68
f 131 132 73
f 70 73 126
f 73 133 126
f 73 132 133
f 126 133 127
f 136 135 134
f 134 137 136
f 140 139 138
f 140 138 135
f 138 134 135
f 138 141 134
f 137 134 142
f 142 134 141
f 138 139 143
f 143 139 144
f 138 145 141
f 138 143 145
f 142 141 146
f 146 141 145
f 143 144 147
f 147 144 148
f 143 149 145
f 143 147 149
f 146 145 150
f 145 151 150
f 145 149 151
f 151 152 150
f 155 154 153
f 155 153 148
f 153 147 148
f 153 156 147
f 156 75 76
f 149 156 76
f 147 156 149
f 149 76 77
f 149 77 151
f 77 79 151
f 79 152 151
f 79 157 152
f 153 154 158
f 158 154 159
f 153 160 156
f 153 158 160
f 160 81 75
f 160 75 156
f 83 157 79
f 83 161 157
f 164 163 162
f 164 162 159
f 162 158 159
f 162 165 158
f 165 85 86
f 160 165 86
f 158 165 160
f 160 86 81
f 89 161 83
f 89 166 161
f 162 163 167
f 167 163 168
f 162 169 165
f 162 167 169
f 169 91 85
f 169 85 165
f 93 166 89
f 93 170 166
f 173 172 171
f 95 96 171
f 96 173 171
f 96 174 173
f 97 167 168
f 174 97 168
f 96 97 174
f 167 97 99
f 167 99 169
f 169 99 91
f 176 175 100
f 176 100 101
f 93 100 170
f 170 100 175
f 171 172 177
f 177 172 178
f 177 103 95
f 177 95 171
f 180 179 106
f 180 106 107
f 101 106 176
f 176 106 179
f 177 178 181
f 181 178 182
f 181 109 103
f 181 103 177
f 107 110 183
f 184 107 183
f 180 107 184
f 112 183 110
f 181 182 185
f 185 182 186
f 185 114 109
f 185 109 181
f 184 183 187
f 184 187 188
f 115 189 112
f 189 183 112
f 189 187 183
f 116 189 115
f 185 186 190
f 190 186 191
f 190 117 114
f 190 114 185
f 194 193 192
f 196 195 192
f 196 192 193
f 197 195 196
f 188 187 198
f 188 198 199
f 200 187 189
f 198 187 200
f 118 200 116
f 116 200 189
f 191 201 190
f 190 201 117
f 201 119 117
f 201 202 119
f 192 203 120
f 202 192 120
f 119 202 120
f 194 192 202
f 204 192 195
f 203 192 204
f 195 197 205
f 195 205 204
f 206 199 198
f 208 207 206
f 198 208 206
f 200 208 198
f 121 208 118
f 118 208 200
f 210 209 124
f 124 209 123
f 124 120 203
f 211 124 203
f 210 124 211
f 213 212 211
f 203 213 211
f 204 213 203
f 204 205 214
f 215 204 214
f 213 204 215
f 128 127 215
f 214 128 215
f 216 128 214
f 208 129 207
f 129 216 207
f 129 128 216
f 129 208 121
f 209 217 123
f 123 217 130
f 130 218 131
f 217 218 130
f 213 132 212
f 132 218 212
f 132 131 218
f 132 213 133
f 133 213 215
f 133 215 127
f 221 220 219
f 219 222 221
f 225 224 223
f 225 223 220
f 223 219 220
f 223 226 219
f 136 227 135
f 227 219 135
f 219 226 135
f 219 227 222
f 136 137 227
f 227 137 228
f 223 224 229
f 229 224 230
f 229 139 140
f 226 229 140
f 223 229 226
f 226 140 135
f 142 228 137
f 142 231 228
f 229 230 232
f 232 230 233
f 232 144 139
f 232 139 229
f 146 231 142
f 146 234 231
f 232 233 235
f 235 233 236
f 235 148 144
f 235 144 232
f 237 234 146
f 237 146 150
f 150 152 237
f 237 152 238
f 241 240 239
f 241 239 236
f 236 239 235
f 239 154 235
f 154 155 235
f 235 155 148
f 157 238 152
f 157 242 238
f 239 240 243
f 243 240 244
f 243 159 154
f 243 154 239
f 161 242 157
f 161 245 242
f 243 244 164
f 244 163 164
f 244 246 163
f 243 164 159
f 166 245 161
f 166 247 245
f 250 249 248
f 246 250 248
f 168 246 248
f 163 246 168
f 170 247 166
f 170 251 247
f 254 253 252
f 172 173 252
f 173 254 252
f 173 255 254
f 174 248 249
f 255 174 249
f 173 174 255
f 248 174 168
f 257 256 175
f 257 175 176
f 170 175 251
f 251 175 256
f 252 253 258
f 258 253 259
f 258 178 172
f 258 172 252
f 261 260 179
f 261 179 180
f 176 179 257
f 257 179 260
f 258 259 262
f 262 259 263
f 262 182 178
f 262 178 258
f 266 265 264
f 265 261 264
f 261 184 264
f 261 180 184
f 263 267 262
f 182 262 267
f 268 182 267
f 186 182 268
f 266 264 269
f 266 269 270
f 188 269 184
f 184 269 264
f 272 191 271
f 191 268 271
f 191 186 268
f 274 273 272
f 274 272 271
f 193 194 273
f 274 193 273
f 275 193 274
f 193 276 196
f 275 276 193
f 269 277 197
f 276 269 197
f 196 276 197
f 270 269 276
f 199 277 188
f 188 277 269
f 272 201 191
f 201 272 202
f 202 272 273
f 202 273 194
f 278 205 277
f 277 205 197
f 206 279 199
f 279 277 199
f 279 278 277
f 207 279 206
f 280 209 210
f 211 281 210
f 210 281 280
f 212 281 211
f 278 214 205
f 214 278 216
f 216 278 279
f 216 279 207
f 280 217 209
f 217 280 218
f 218 280 281
f 218 281 212
f 282 220 221
f 222 282 221
f 284 283 225
f 225 283 224
f 225 220 282
f 285 225 282
f 284 225 285
f 287 285 286
f 286 285 227
f 285 282 227
f 282 222 227
f 228 286 227
f 290 289 288
f 283 290 288
f 230 283 288
f 224 283 230
f 291 287 286
f 286 228 291
f 228 292 291
f 228 231 292
f 288 289 293
f 293 289 294
f 293 233 230
f 293 230 288
f 234 292 231
f 234 295 292
f 293 294 296
f 296 294 297
f 296 236 233
f 296 233 293
f 298 295 234
f 298 234 237
f 237 238 298
f 298 238 299
f 302 301 300
f 302 300 297
f 297 300 296
f 300 240 296
f 240 241 296
f 296 241 236
f 242 299 238
f 242 303 299
f 300 301 304
f 304 301 305
f 304 244 240
f 304 240 300
f 245 303 242
f 245 306 303
f 304 305 307
f 307 305 308
f 307 246 244
f 307 244 304
f 247 306 245
f 247 309 306
f 312 311 310
f 312 310 308
f 308 310 307
f 310 249 307
f 249 250 307
f 307 250 246
f 251 309 247
f 251 313 309
f 315 314 254
f 254 314 253
f 255 310 311
f 315 255 311
f 254 255 315
f 310 255 249
f 317 316 256
f 317 256 257
f 251 256 313
f 313 256 316
f 314 259 253
f 318 259 314
f 321 320 319
f 260 261 319
f 320 260 319
f 322 260 320
f 257 260 317
f 317 260 322
f 318 263 259
f 323 263 318
f 321 319 265
f 266 321 265
f 324 321 266
f 265 319 261
f 323 325 263
f 263 325 267
f 268 267 325
f 268 325 326
f 329 328 327
f 328 324 327
f 324 270 327
f 324 266 270
f 326 330 268
f 268 330 271
f 271 331 274
f 330 331 271
f 274 332 275
f 331 332 274
f 327 276 329
f 276 332 329
f 276 275 332
f 276 327 270
f 335 334 333
f 283 284 333
f 284 335 333
f 284 336 335
f 337 284 285
f 337 336 284
f 285 287 337
f 337 287 338
f 333 334 290
f 334 289 290
f 334 339 289
f 333 290 283
f 287 291 340
f 341 287 340
f 338 287 341
f 292 340 291
f 344 343 342
f 339 344 342
f 294 339 342
f 289 339 294
f 345 341 340
f 340 292 345
f 292 346 345
f 292 295 346
f 342 343 347
f 347 343 348
f 347 297 294
f 347 294 342
f 349 346 295
f 349 295 298
f 298 299 349
f 349 299 350
f 347 348 302
f 348 301 302
f 348 351 301
f 347 302 297
f 303 350 299
f 303 352 350
f 351 305 301
f 353 305 351
f 356 355 354
f 355 352 354
f 352 306 354
f 352 303 306
f 359 358 357
f 353 359 357
f 308 353 357
f 305 353 308
f 356 354 360
f 356 360 361
f 309 360 306
f 306 360 354
f 357 358 312
f 358 311 312
f 358 362 311
f 357 312 308
f 361 360 363
f 361 363 364
f 313 363 309
f 309 363 360
f 365 314 315
f 366 365 315
f 311 366 315
f 362 366 311
f 364 363 316
f 317 364 316
f 367 364 317
f 316 363 313
f 368 318 365
f 365 318 314
f 365 366 369
f 365 369 368
f 371 370 320
f 371 320 321
f 320 372 322
f 370 372 320
f 317 322 367
f 367 322 372
f 373 323 368
f 368 323 318
f 368 369 374
f 375 368 374
f 373 368 375
f 376 375 374
f 379 378 377
f 381 380 377
f 381 377 378
f 381 371 380
f 371 324 380
f 371 321 324
f 373 325 323
f 325 373 326
f 373 382 326
f 373 375 382
f 375 376 383
f 384 375 383
f 382 375 384
f 384 383 379
f 377 384 379
f 385 384 377
f 329 385 328
f 385 380 328
f 385 377 380
f 328 380 324
f 382 330 326
f 330 382 331
f 331 382 384
f 331 384 332
f 332 384 385
f 332 385 329
f 386 334 335
f 336 387 335
f 335 387 386
f 337 388 336
f 336 388 387
f 338 388 337
f 391 390 389
f 393 392 389
f 389 392 391
f 394 392 386
f 392 339 386
f 339 334 386
f 392 393 339
f 394 386 387
f 394 387 395
f 395 387 388
f 395 388 396
f 388 338 396
f 338 397 396
f 338 341 397
f 389 390 398
f 398 390 399
f 398 343 344
f 393 398 344
f 389 398 393
f 393 344 339
f 341 345 400
f 401 341 400
f 397 341 401
f 346 400 345
f 398 399 402
f 402 399 403
f 402 348 343
f 402 343 398
f 404 401 400
f 406 404 405
f 405 404 349
f 404 400 349
f 400 346 349
f 350 405 349
f 402 403 407
f 407 403 408
f 407 351 348
f 407 348 402
f 406 405 409
f 406 409 410
f 352 409 350
f 350 409 405
f 407 408 411
f 411 408 412
f 411 353 351
f 411 351 407
f 410 409 355
f 356 410 355
f 413 410 356
f 355 409 352
f 416 415 414
f 416 414 412
f 412 414 411
f 414 358 411
f 358 359 411
f 411 359 353
f 361 413 356
f 361 417 413
f 415 418 414
f 358 414 418
f 419 358 418
f 362 358 419
f 422 421 420
f 421 417 420
f 417 364 420
f 417 361 364
f 425 424 423
f 419 425 423
f 366 419 423
f 362 419 366
f 422 420 426
f 422 426 427
f 367 426 364
f 364 426 420
f 424 428 423
f 366 423 428
f 429 366 428
f 369 366 429
f 432 431 430
f 370 371 430
f 431 370 430
f 433 370 431
f 426 372 427
f 372 433 427
f 372 370 433
f 372 426 367
f 429 434 369
f 369 434 374
f 436 435 376
f 374 436 376
f 434 436 374
f 378 379 435
f 436 378 435
f 437 378 436
f 430 381 432
f 381 437 432
f 381 378 437
f 381 430 371
f 435 383 376
f 383 435 379
f 439 438 391
f 391 438 390
f 440 391 392
f 440 439 391
f 442 440 441
f 440 394 441
f 440 392 394
f 395 443 394
f 394 443 441
f 396 444 395
f 395 444 443
f 397 444 396
f 446 399 445
f 399 438 445
f 399 390 438
f 447 446 445
f 448 442 441
f 448 441 443
f 448 443 449
f 451 450 449
f 443 451 449
f 444 451 443
f 401 451 397
f 397 451 444
f 453 452 446
f 452 399 446
f 452 403 399
f 453 446 447
f 454 450 451
f 456 454 455
f 455 454 404
f 454 451 404
f 451 401 404
f 406 455 404
f 452 408 403
f 457 408 452
f 456 455 458
f 456 458 459
f 410 458 406
f 406 458 455
f 457 412 408
f 460 412 457
f 459 458 461
f 459 461 462
f 413 461 410
f 410 461 458
f 464 463 416
f 416 463 415
f 416 412 460
f 416 460 464
f 462 461 465
f 462 465 466
f 417 465 413
f 413 465 461
f 418 415 467
f 415 468 467
f 415 463 468
f 467 419 418
f 466 465 421
f 422 466 421
f 469 466 422
f 421 465 417
f 467 468 425
f 468 424 425
f 468 470 424
f 467 425 419
f 427 469 422
f 427 471 469
f 470 472 424
f 424 472 428
f 429 428 472
f 429 472 473
f 476 475 474
f 431 432 474
f 475 431 474
f 477 431 475
f 431 478 433
f 477 478 431
f 427 433 471
f 471 433 478
f 473 479 429
f 429 479 434
f 434 480 436
f 479 480 434
f 474 437 476
f 437 480 476
f 437 436 480
f 437 474 432
f 481 438 439
f 440 482 439
f 439 482 481
f 442 482 440
f 481 445 438
f 445 481 447
f 481 483 447
f 481 482 483
f 448 484 442
f 484 482 442
f 484 483 482
f 449 485 448
f 448 485 484
f 450 485 449
f 486 452 453
f 487 486 453
f 487 453 447
f 488 487 447
f 483 488 447
f 488 483 484
f 488 484 489
f 491 490 489
f 484 491 489
f 485 491 484
f 454 492 450
f 492 485 450
f 492 491 485
f 456 492 454
f 494 493 486
f 493 452 486
f 493 457 452
f 494 486 487
f 495 490 491
f 495 491 492
f 495 492 496
f 492 456 496
f 456 497 496
f 456 459 497
f 493 460 457
f 498 460 493
f 462 497 459
f 462 499 497
f 501 500 464
f 464 500 463
f 464 460 498
f 464 498 501
f 504 503 502
f 503 499 502
f 499 466 502
f 499 462 466
f 507 506 505
f 500 507 505
f 468 500 505
f 463 500 468
f 508 504 502
f 502 466 508
f 466 509 508
f 466 469 509
f 505 506 510
f 510 506 511
f 510 470 468
f 510 468 505
f 471 509 469
f 471 512 509
f 511 513 510
f 513 515 514
f 513 514 472
f 510 513 472
f 470 510 472
f 514 473 472
f 476 516 475
f 517 477 475
f 517 475 516
f 477 517 518
f 519 477 518
f 478 477 519
f 471 478 512
f 512 478 519
f 515 520 514
f 514 520 473
f 520 479 473
f 520 521 479
f 479 522 480
f 521 522 479
f 476 480 516
f 480 523 516
f 480 522 523
f 516 523 517
f 517 523 524
f 517 524 518
f 525 487 488
f 489 526 488
f 488 526 525
f 490 526 489
f 528 527 494
f 494 527 493
f 494 487 525
f 529 494 525
f 528 494 529
f 529 525 526
f 529 526 530
f 530 526 490
f 495 530 490
f 531 530 495
f 533 531 532
f 531 496 532
f 531 495 496
f 497 532 496
f 527 498 493
f 534 498 527
f 533 532 535
f 533 535 536
f 499 535 497
f 497 535 532
f 539 538 537
f 541 540 537
f 537 540 539
f 500 501 541
f 501 540 541
f 501 542 540
f 501 498 534
f 501 534 542
f 536 535 503
f 504 536 503
f 543 536 504
f 503 535 499
f 546 545 544
f 546 544 538
f 544 537 538
f 544 547 537
f 547 506 507
f 541 547 507
f 537 547 541
f 541 507 500
f 504 508 548
f 549 504 548
f 543 504 549
f 509 548 508
f 545 550 544
f 552 551 550
f 551 544 550
f 551 547 544
f 551 511 506
f 551 506 547
f 549 548 553
f 549 553 554
f 512 553 509
f 509 553 548
f 552 555 551
f 555 557 556
f 555 556 513
f 551 555 513
f 511 551 513
f 556 515 513
f 554 553 519
f 518 554 519
f 558 554 518
f 519 553 512
f 557 559 556
f 556 559 515
f 559 520 515
f 559 560 520
f 520 561 521
f 560 561 520
f 521 562 522
f 561 562 521
f 522 563 523
f 562 563 522
f 523 564 524
f 563 564 523
f 518 524 558
f 558 524 564
f 565 527 528
f 565 528 566
f 528 567 566
f 528 529 567
f 568 529 530
f 568 567 529
f 570 568 569
f 568 531 569
f 568 530 531
f 533 569 531
f 573 572 571
f 574 573 565
f 573 534 565
f 534 527 565
f 573 571 534
f 574 565 566
f 570 569 575
f 570 575 576
f 536 575 533
f 533 575 569
f 579 578 577
f 538 539 577
f 539 579 577
f 539 580 579
f 581 539 540
f 581 580 539
f 542 571 572
f 581 542 572
f 540 542 581
f 571 542 534
f 576 575 582
f 576 582 583
f 543 582 536
f 536 582 575
f 586 585 584
f 586 584 578
f 578 584 577
f 584 545 577
f 545 546 577
f 577 546 538
f 587 583 582
f 582 543 587
f 543 588 587
f 543 549 588
f 584 585 589
f 589 585 590
f 591 550 545
f 584 591 545
f 589 591 584
f 591 552 550
f 554 588 549
f 554 592 588
f 590 593 589
f 589 593 591
f 591 593 594
f 591 594 552
f 594 555 552
f 594 595 555
f 597 596 557
f 555 597 557
f 595 597 555
f 598 596 597
f 601 600 599
f 600 592 599
f 592 558 599
f 592 554 558
f 596 559 557
f 598 602 596
f 602 559 596
f 602 560 559
f 560 603 561
f 602 603 560
f 561 604 562
f 603 604 561
f 562 605 563
f 604 605 562
f 599 564 601
f 564 605 601
f 564 563 605
f 564 599 558
f 606 566 567
f 568 607 567
f 567 607 606
f 570 607 568
f 608 572 573
f 574 609 573
f 573 609 608
f 566 606 574
f 606 609 574
f 606 610 609
f 607 612 611
f 610 607 611
f 606 607 610
f 607 570 612
f 570 613 612
f 570 576 613
f 616 615 614
f 618 617 614
f 614 617 616
f 578 579 618
f 579 617 618
f 579 619 617
f 620 579 580
f 620 619 579
f 621 580 581
f 621 620 580
f 581 572 608
f 622 581 608
f 621 581 622
f 622 608 609
f 622 609 623
f 623 609 610
f 623 610 624
f 610 625 624
f 610 626 625
f 610 611 627
f 626 610 627
f 627 613 626
f 613 583 626
f 613 576 583
f 614 615 628
f 628 615 629
f 628 585 586
f 618 628 586
f 614 628 618
f 618 586 578
f 630 625 626
f 632 630 631
f 631 630 587
f 630 626 587
f 626 583 587
f 588 631 587
f 629 633 628
f 585 628 633
f 634 585 633
f 590 585 634
f 632 631 635
f 632 635 636
f 592 635 588
f 588 635 631
f 634 637 590
f 590 637 593
f 593 638 594
f 637 638 593
f 638 640 639
f 595 638 639
f 594 638 595
f 641 597 595
f 641 595 639
f 641 598 597
f 644 643 642
f 646 645 642
f 646 642 643
f 645 646 636
f 645 636 635
f 601 645 635
f 600 601 635
f 600 635 592
f 640 647 639
f 639 647 641
f 641 647 648
f 641 648 598
f 648 602 598
f 648 649 602
f 602 650 603
f 649 650 602
f 642 604 644
f 604 650 644
f 604 603 650
f 604 642 605
f 605 642 645
f 605 645 601
f 651 611 612
f 613 651 612
f 653 652 616
f 616 652 615
f 654 616 617
f 654 653 616
f 655 617 619
f 655 654 617
f 656 619 620
f 656 655 619
f 658 656 657
f 656 621 657
f 656 620 621
f 622 659 621
f 621 659 657
f 623 660 622
f 622 660 659
f 624 661 623
f 623 661 660
f 611 651 627
f 661 624 625
f 627 651 613
f 652 629 615
f 662 629 652
f 658 657 663
f 658 663 664
f 665 657 659
f 663 657 665
f 666 659 660
f 665 659 666
f 667 660 661
f 666 660 667
f 630 668 625
f 668 661 625
f 668 667 661
f 632 668 630
f 662 669 629
f 629 669 633
f 634 633 669
f 634 669 670
f 671 664 663
f 671 663 665
f 671 665 672
f 674 673 672
f 665 674 672
f 666 674 665
f 675 666 667
f 674 666 675
f 676 667 668
f 675 667 676
f 636 676 632
f 632 676 668
f 670 677 634
f 634 677 637
f 677 679 678
f 638 677 678
f 637 677 638
f 678 640 638
f 682 681 680
f 680 681 673
f 674 680 673
f 683 680 674
f 644 683 643
f 683 675 643
f 683 674 675
f 643 675 646
f 646 675 676
f 646 676 636
f 679 684 678
f 678 684 640
f 684 647 640
f 684 685 647
f 647 686 648
f 685 686 647
f 680 649 682
f 649 686 682
f 649 648 686
f 649 680 650
f 650 680 683
f 650 683 644
f 687 652 653
f 687 653 688
f 653 689 688
f 653 654 689
f 690 654 655
f 690 689 654
f 692 690 691
f 690 656 691
f 690 655 656
f 658 691 656
f 694 693 687
f 693 652 687
f 693 662 652
f 694 687 688
f 692 691 695
f 692 695 696
f 664 695 658
f 658 695 691
f 693 697 662
f 662 697 669
f 670 669 697
f 670 697 698
f 699 696 695
f 701 699 700
f 700 699 671
f 699 695 671
f 695 664 671
f 672 702 671
f 671 702 700
f 673 702 672
f 698 703 670
f 670 703 677
f 705 704 679
f 677 705 679
f 703 705 677
f 707 706 704
f 707 704 705
f 706 707 701
f 700 706 701
f 708 706 700
f 682 708 681
f 708 702 681
f 708 700 702
f 681 702 673
f 704 684 679
f 684 704 685
f 685 704 706
f 685 706 686
f 686 706 708
f 686 708 682
f 709 688 689
f 690 710 689
f 689 710 709
f 692 710 690
f 711 693 694
f 688 709 694
f 709 711 694
f 709 712 711
f 713 709 710
f 712 709 713
f 696 713 692
f 692 713 710
f 711 697 693
f 697 711 698
f 711 714 698
f 711 712 714
f 715 712 713
f 714 712 715
f 699 716 696
f 716 713 696
f 716 715 713
f 701 716 699
f 714 703 698
f 703 714 705
f 705 714 715
f 705 715 707
f 707 715 716
f 707 716 701
