v -9.1 18.0 -13.0
v -9.0 18.0 -13.2
v -9.0 17.8 -13.0
v -9.0 18.0 -12.8
v -9.4 19.0 -13.0
v -9.0 19.0 -13.6
v -9.0 18.5 -12.0
v -9.3 19.0 -12.0
v -9.0 19.0 -11.5
v -9.3 20.0 -14.0
v -9.0 20.0 -14.5
v -9.0 19.5 -14.0
v -9.4 20.0 -13.0
v -9.4 20.0 -12.0
v -9.0 19.7 -11.0
v -9.2 20.0 -11.0
v -9.0 20.0 -10.7
v -9.3 21.0 -15.0
v -9.0 21.0 -15.3
v -9.0 20.6 -15.0
v -9.4 21.0 -14.0
v -9.0 21.0 -13.1
v -9.0 20.9 -13.0
v -9.0 20.6 -12.0
v -9.0 20.4 -11.0
v -9.0 20.8 -10.0
v -9.1 21.0 -10.0
v -9.0 21.0 -10.3
v -9.0 21.0 -9.8
v -9.2 22.0 -15.0
v -9.0 22.0 -15.2
v -9.5 22.0 -14.0
v -9.0 21.1 -13.0
v -9.4 22.0 -13.0
v -9.0 21.7 -12.0
v -9.1 22.0 -12.0
v -9.0 22.0 -11.7
v -9.1 22.0 -10.0
v -9.0 22.0 -10.2
v -9.0 22.0 -9.9
v -9.0 22.3 -15.0
v -9.3 23.0 -14.0
v -9.0 23.0 -14.3
v -9.4 23.0 -13.0
v -9.0 23.0 -12.4
v -9.0 22.3 -12.0
v -9.0 22.1 -10.0
v -9.0 23.4 -14.0
v -9.3 24.0 -13.0
v -9.0 24.0 -13.4
v -9.0 24.0 -12.5
v -9.3 25.0 -13.0
v -9.0 25.0 -13.3
v -9.0 24.5 -12.0
v -9.3 25.0 -12.0
v -9.0 25.0 -11.6
v -9.4 26.0 -13.0
v -9.0 26.0 -13.4
v -9.4 26.0 -12.0
v -9.0 26.0 -11.2
v -9.1 26.0 -10.0
v -9.0 26.0 -10.5
v -9.0 25.8 -10.0
v -9.0 26.0 -9.8
v -9.4 27.0 -13.0
v -9.0 27.0 -13.4
v -9.5 27.0 -12.0
v -9.0 26.2 -11.0
v -9.4 27.0 -11.0
v -9.4 27.0 -10.0
v -9.0 27.0 -9.4
v -9.2 28.0 -13.0
v -9.0 28.0 -13.2
v -9.4 28.0 -12.0
v -9.4 28.0 -11.0
v -9.5 28.0 -10.0
v -9.0 27.3 -9.0
v -9.4 28.0 -9.0
v -9.0 27.5 -8.0
v -9.4 28.0 -8.0
v -9.0 27.7 -7.0
v -9.3 28.0 -7.0
v -9.0 28.0 -6.7
v -9.0 28.2 -13.0
v -9.0 28.4 -12.0
v -9.0 28.6 -11.0
v -9.3 29.0 -10.0
v -9.0 29.0 -10.5
v -9.5 29.0 -9.0
v -9.5 29.0 -8.0
v -9.4 29.0 -7.0
v -9.0 29.0 -6.4
v -9.0 29.5 -10.0
v -9.4 30.0 -9.0
v -9.0 30.0 -9.6
v -9.5 30.0 -8.0
v -9.5 30.0 -7.0
v -9.0 29.5 -6.0
v -9.3 30.0 -6.0
v -9.0 30.0 -5.6
v -9.4 31.0 -9.0
v -9.0 31.0 -9.5
v -9.5 31.0 -8.0
v -9.5 31.0 -7.0
v -9.2 31.0 -6.0
v -9.0 31.0 -5.7
v -9.2 32.0 -9.0
v -9.0 32.0 -9.3
v -9.5 32.0 -8.0
v -9.2 32.0 -7.0
v -9.0 32.0 -6.7
v -9.0 31.3 -6.0
v -9.0 32.4 -9.0
v -9.1 33.0 -8.0
v -9.0 33.0 -8.1
v -9.0 33.0 -7.9
v -9.0 32.3 -7.0
v -9.0 33.1 -8.0
v -8.2 16.0 -13.0
v -8.0 16.0 -13.9
v -8.0 15.8 -13.0
v -8.0 16.0 -12.2
v -8.4 17.0 -14.0
v -8.0 17.0 -14.4
v -8.0 16.1 -14.0
v -8.6 17.0 -13.0
v -8.0 16.1 -12.0
v -8.4 17.0 -12.0
v -8.0 17.0 -11.6
v -8.5 18.0 -14.0
v -8.0 18.0 -14.6
v -8.7 18.0 -12.0
v -8.0 17.5 -11.0
v -8.4 18.0 -11.0
v -8.0 17.8 -10.0
v -8.2 18.0 -10.0
v -8.0 18.0 -9.7
v -8.3 19.0 -15.0
v -8.0 19.0 -15.5
v -8.0 18.5 -15.0
v -8.7 19.0 -14.0
v -8.7 19.0 -11.0
v -8.4 19.0 -10.0
v -8.0 19.0 -9.4
v -8.2 20.0 -17.0
v -8.0 20.0 -17.2
v -8.0 19.7 -17.0
v -8.0 19.4 -16.0
v -8.4 20.0 -16.0
v -8.7 20.0 -15.0
v -8.6 20.0 -10.0
v -8.0 19.5 -9.0
v -8.3 20.0 -9.0
v -8.0 20.0 -8.5
v -8.2 21.0 -17.0
v -8.0 21.0 -17.2
v -8.5 21.0 -16.0
v -8.9 21.0 -13.0
v -8.8 21.0 -12.0
v -8.7 21.0 -11.0
v -8.6 21.0 -9.0
v -8.0 20.5 -8.0
v -8.3 21.0 -8.0
v -8.0 21.0 -7.6
v -8.0 21.2 -17.0
v -8.0 21.6 -16.0
v -8.0 22.0 -15.6
v -8.7 22.0 -11.0
v -8.6 22.0 -9.0
v -8.4 22.0 -8.0
v -8.0 22.0 -7.4
v -8.0 22.5 -15.0
v -8.0 23.0 -14.6
v -8.7 23.0 -12.0
v -8.5 23.0 -11.0
v -8.6 23.0 -10.0
v -8.5 23.0 -9.0
v -8.5 23.0 -8.0
v -8.0 22.5 -7.0
v -8.3 23.0 -7.0
v -8.0 23.0 -6.5
v -8.4 24.0 -14.0
v -8.0 24.0 -14.3
v -8.7 24.0 -12.0
v -8.5 24.0 -11.0
v -8.5 24.0 -10.0
v -8.5 24.0 -9.0
v -8.5 24.0 -8.0
v -8.5 24.0 -7.0
v -8.0 23.5 -6.0
v -8.3 24.0 -6.0
v -8.0 24.0 -5.6
v -8.0 24.4 -14.0
v -8.0 25.0 -13.6
v -8.6 25.0 -11.0
v -8.6 25.0 -10.0
v -8.5 25.0 -9.0
v -8.5 25.0 -8.0
v -8.5 25.0 -7.0
v -8.4 25.0 -6.0
v -8.0 25.0 -5.5
v -8.0 26.0 -13.6
v -8.9 26.0 -11.0
v -8.6 26.0 -9.0
v -8.5 26.0 -8.0
v -8.5 26.0 -7.0
v -8.4 26.0 -6.0
v -8.0 26.0 -5.5
v -8.1 27.0 -14.0
v -8.0 27.0 -14.1
v -8.0 26.9 -14.0
v -8.7 27.0 -9.0
v -8.6 27.0 -8.0
v -8.6 27.0 -7.0
v -8.4 27.0 -6.0
v -8.0 27.0 -5.4
v -8.0 27.1 -14.0
v -8.0 28.0 -13.5
v -8.6 28.0 -6.0
v -8.0 27.6 -5.0
v -8.2 28.0 -5.0
v -8.0 28.0 -4.8
v -8.0 28.6 -13.0
v -8.4 29.0 -12.0
v -8.0 29.0 -12.5
v -8.7 29.0 -11.0
v -8.7 29.0 -6.0
v -8.4 29.0 -5.0
v -8.0 29.0 -4.6
v -8.0 29.5 -12.0
v -8.3 30.0 -11.0
v -8.0 30.0 -11.5
v -8.7 30.0 -10.0
v -8.5 30.0 -5.0
v -8.0 30.0 -4.6
v -8.0 30.5 -11.0
v -8.4 31.0 -10.0
v -8.0 31.0 -10.5
v -8.3 31.0 -5.0
v -8.0 31.0 -4.8
v -8.0 31.6 -10.0
v -8.0 32.0 -9.7
v -8.0 31.6 -6.0
v -8.0 32.0 -6.5
v -8.0 31.2 -5.0
v -8.4 33.0 -9.0
v -8.0 33.0 -9.4
v -8.0 32.5 -7.0
v -8.0 33.0 -7.6
v -8.0 33.4 -9.0
v -8.0 33.4 -8.0
v -7.7 16.0 -13.0
v -7.2 17.0 -16.0
v -7.0 17.0 -16.3
v -7.0 16.7 -16.0
v -7.0 16.6 -15.0
v -7.5 17.0 -15.0
v -7.0 16.4 -14.0
v -7.0 16.4 -13.0
v -7.0 16.5 -12.0
v -7.0 17.0 -11.3
v -7.4 18.0 -16.0
v -7.0 18.0 -16.6
v -7.7 18.0 -15.0
v -7.0 17.2 -11.0
v -7.0 17.4 -10.0
v -7.0 17.6 -9.0
v -7.4 18.0 -9.0
v -7.0 18.0 -8.5
v -7.3 19.0 -17.0
v -7.0 19.0 -17.3
v -7.0 18.6 -17.0
v -7.7 19.0 -16.0
v -7.7 19.0 -9.0
v -7.0 18.4 -8.0
v -7.4 19.0 -8.0
v -7.0 18.5 -7.0
v -7.4 19.0 -7.0
v -7.0 18.7 -6.0
v -7.3 19.0 -6.0
v -7.0 19.0 -5.6
v -7.0 20.0 -17.5
v -7.7 20.0 -8.0
v -7.5 20.0 -7.0
v -7.5 20.0 -6.0
v -7.0 19.6 -5.0
v -7.3 20.0 -5.0
v -7.0 20.0 -4.6
v -7.0 21.0 -17.5
v -7.6 21.0 -7.0
v -7.5 21.0 -6.0
v -7.4 21.0 -5.0
v -7.0 21.0 -4.4
v -7.0 21.6 -17.0
v -7.5 22.0 -16.0
v -7.0 22.0 -16.5
v -7.7 22.0 -7.0
v -7.5 22.0 -6.0
v -7.5 22.0 -5.0
v -7.0 21.5 -4.0
v -7.3 22.0 -4.0
v -7.0 22.0 -3.7
v -7.0 22.3 -16.0
v -7.0 22.8 -15.0
v -7.0 23.0 -14.8
v -7.7 23.0 -6.0
v -7.5 23.0 -5.0
v -7.2 23.0 -4.0
v -7.0 23.0 -3.7
v -7.0 24.0 -14.5
v -7.5 24.0 -5.0
v -7.0 24.0 -4.5
v -7.0 23.3 -4.0
v -7.0 24.5 -14.0
v -7.0 25.0 -13.6
v -7.5 25.0 -5.0
v -7.0 25.0 -4.6
v -7.0 26.0 -13.6
v -7.5 26.0 -5.0
v -7.0 26.0 -4.6
v -7.0 27.0 -14.1
v -7.0 26.8 -14.0
v -7.6 27.0 -5.0
v -7.0 27.0 -4.6
v -7.0 27.3 -14.0
v -7.0 28.0 -13.7
v -7.0 28.0 -4.5
v -7.5 29.0 -13.0
v -7.0 29.0 -13.4
v -7.0 29.0 -4.4
v -7.0 29.6 -13.0
v -7.6 30.0 -12.0
v -7.0 30.0 -12.7
v -7.0 30.0 -4.1
v -7.3 31.0 -12.0
v -7.0 31.0 -12.3
v -7.6 31.0 -11.0
v -7.0 31.0 -4.6
v -7.0 31.3 -12.0
v -7.0 31.7 -11.0
v -7.7 32.0 -10.0
v -7.0 32.0 -10.7
v -7.0 31.6 -6.0
v -7.0 32.0 -6.5
v -7.0 31.4 -5.0
v -7.5 33.0 -10.0
v -7.0 33.0 -10.5
v -7.0 32.5 -7.0
v -7.0 33.0 -7.5
v -7.4 34.0 -10.0
v -7.0 34.0 -10.8
v -7.5 34.0 -9.0
v -7.0 34.0 -8.4
v -7.0 33.6 -8.0
v -7.0 34.5 -10.0
v -7.1 35.0 -9.0
v -7.0 35.0 -9.1
v -7.0 35.0 -8.9
v -7.0 35.1 -9.0
v -6.2 16.0 -17.0
v -6.0 16.0 -17.2
v -6.0 15.8 -17.0
v -6.0 15.7 -16.0
v -6.3 16.0 -16.0
v -6.0 16.0 -15.5
v -6.5 17.0 -17.0
v -6.0 17.0 -17.4
v -6.0 16.3 -15.0
v -6.0 16.4 -14.0
v -6.0 16.5 -13.0
v -6.0 16.4 -12.0
v -6.0 16.6 -11.0
v -6.7 17.0 -11.0
v -6.0 16.6 -10.0
v -6.5 17.0 -10.0
v -6.0 16.7 -9.0
v -6.3 17.0 -9.0
v -6.0 17.0 -8.6
v -6.6 18.0 -17.0
v -6.0 18.0 -17.5
v -6.0 17.4 -8.0
v -6.6 18.0 -8.0
v -6.0 17.6 -7.0
v -6.5 18.0 -7.0
v -6.0 17.7 -6.0
v -6.3 18.0 -6.0
v -6.0 18.0 -5.6
v -6.0 19.0 -17.6
v -6.0 18.4 -5.0
v -6.6 19.0 -5.0
v -6.0 18.8 -4.0
v -6.2 19.0 -4.0
v -6.0 19.0 -3.7
v -6.0 20.0 -17.6
v -6.5 20.0 -4.0
v -6.0 20.0 -3.5
v -6.0 21.0 -17.9
v -6.6 21.0 -4.0
v -6.0 21.0 -3.4
v -6.5 22.0 -17.0
v -6.0 22.0 -17.4
v -6.0 21.6 -3.0
v -6.3 22.0 -3.0
v -6.0 22.0 -2.8
v -6.0 22.4 -17.0
v -6.0 22.8 -16.0
v -6.7 23.0 -15.0
v -6.0 23.0 -15.7
v -6.1 23.0 -3.0
v -6.0 23.0 -2.9
v -6.4 24.0 -15.0
v -6.0 24.0 -15.4
v -6.0 23.7 -4.0
v -6.0 24.0 -4.3
v -6.0 23.1 -3.0
v -6.0 24.3 -15.0
v -6.0 24.8 -14.0
v -6.0 25.0 -13.8
v -6.0 25.0 -4.5
v -6.0 26.0 -13.6
v -6.0 26.0 -4.5
v -6.6 27.0 -14.0
v -6.0 27.0 -13.8
v -6.0 27.0 -4.5
v -6.0 27.3 -14.0
v -6.6 28.0 -14.0
v -6.0 28.0 -14.4
v -6.0 28.0 -4.5
v -6.5 29.0 -14.0
v -6.0 29.0 -14.5
v -6.0 29.0 -4.5
v -6.3 30.0 -14.0
v -6.0 30.0 -14.3
v -6.7 30.0 -13.0
v -6.0 30.0 -4.4
v -6.0 30.4 -14.0
v -6.4 31.0 -13.0
v -6.0 31.0 -13.5
v -6.0 31.0 -4.6
v -6.0 31.5 -13.0
v -6.3 32.0 -12.0
v -6.0 32.0 -12.4
v -6.7 32.0 -11.0
v -6.0 31.7 -6.0
v -6.0 32.0 -6.3
v -6.0 31.4 -5.0
v -6.0 32.3 -12.0
v -6.0 32.7 -11.0
v -6.0 33.0 -10.8
v -6.0 32.7 -7.0
v -6.0 33.0 -7.3
v -6.0 34.0 -10.8
v -6.5 34.0 -8.0
v -6.0 34.0 -7.7
v -6.6 35.0 -10.0
v -6.0 35.0 -10.9
v -6.0 34.5 -8.0
v -6.0 35.0 -8.4
v -6.0 35.6 -10.0
v -6.1 36.0 -9.0
v -6.0 36.0 -9.2
v -6.0 36.0 -8.9
v -6.0 36.1 -9.0
v -5.1 16.0 -18.0
v -5.0 16.0 -18.1
v -5.0 15.9 -18.0
v -5.0 15.5 -17.0
v -5.0 15.5 -16.0
v -5.0 15.6 -15.0
v -5.6 16.0 -15.0
v -5.0 15.7 -14.0
v -5.4 16.0 -14.0
v -5.0 16.0 -13.3
v -5.2 16.0 -12.0
v -5.0 16.0 -12.4
v -5.0 15.9 -12.0
v -5.0 16.0 -11.8
v -5.0 16.4 -18.0
v -5.0 17.0 -17.8
v -5.0 16.2 -13.0
v -5.0 16.4 -11.0
v -5.0 16.5 -10.0
v -5.0 16.5 -9.0
v -5.0 16.7 -8.0
v -5.5 17.0 -8.0
v -5.0 17.0 -7.5
v -5.4 18.0 -18.0
v -5.0 18.0 -18.3
v -5.0 17.3 -18.0
v -5.0 17.3 -7.0
v -5.0 17.4 -6.0
v -5.0 17.7 -5.0
v -5.4 18.0 -5.0
v -5.0 18.0 -4.6
v -5.4 19.0 -18.0
v -5.0 19.0 -18.3
v -5.0 18.4 -4.0
v -5.0 18.8 -3.0
v -5.3 19.0 -3.0
v -5.0 19.0 -2.8
v -5.0 19.5 -18.0
v -5.0 20.0 -17.8
v -5.5 20.0 -3.0
v -5.0 20.0 -2.6
v -5.0 21.0 -17.9
v -5.6 21.0 -3.0
v -5.0 21.0 -2.6
v -5.3 22.0 -18.0
v -5.0 22.0 -18.2
v -5.0 21.4 -18.0
v -5.0 22.0 -2.7
v -5.0 22.4 -18.0
v -5.5 23.0 -17.0
v -5.0 23.0 -17.6
v -5.8 23.0 -16.0
v -5.9 23.0 -3.0
v -5.0 22.5 -3.0
v -5.0 23.0 -3.3
v -5.3 24.0 -17.0
v -5.0 24.0 -17.3
v -5.5 24.0 -16.0
v -5.6 24.0 -4.0
v -5.0 24.0 -3.7
v -5.0 24.3 -17.0
v -5.0 24.6 -16.0
v -5.4 25.0 -15.0
v -5.0 25.0 -15.5
v -5.7 25.0 -14.0
v -5.0 24.5 -4.0
v -5.0 25.0 -4.3
v -5.0 25.4 -15.0
v -5.0 25.9 -14.0
v -5.0 26.0 -13.9
v -5.0 26.0 -4.6
v -5.7 27.0 -14.0
v -5.0 27.0 -14.6
v -5.0 26.1 -14.0
v -5.0 27.0 -4.5
v -5.4 28.0 -15.0
v -5.0 28.0 -15.4
v -5.0 27.5 -15.0
v -5.0 28.0 -4.5
v -5.4 29.0 -15.0
v -5.0 29.0 -15.4
v -5.0 29.0 -4.5
v -5.1 30.0 -15.0
v -5.0 30.0 -15.1
v -5.0 30.0 -4.5
v -5.0 30.2 -15.0
v -5.5 31.0 -14.0
v -5.0 31.0 -14.4
v -5.0 31.0 -4.6
v -5.0 31.5 -14.0
v -5.4 32.0 -13.0
v -5.0 32.0 -13.4
v -5.6 32.0 -6.0
v -5.0 32.0 -5.6
v -5.0 31.4 -5.0
v -5.0 32.3 -13.0
v -5.0 32.9 -12.0
v -5.8 33.0 -11.0
v -5.0 33.0 -11.8
v -5.6 33.0 -7.0
v -5.0 33.0 -6.5
v -5.0 32.5 -6.0
v -5.0 34.0 -12.0
v -5.0 34.0 -12.0
v -5.0 33.8 -12.0
v -5.8 34.0 -11.0
v -5.0 33.6 -7.0
v -5.0 34.0 -7.3
v -5.0 34.0 -12.0
v -5.5 35.0 -11.0
v -5.0 35.0 -11.1
v -5.5 35.0 -8.0
v -5.0 35.0 -7.7
v -5.2 36.0 -11.0
v -5.0 36.0 -11.2
v -5.7 36.0 -10.0
v -5.0 35.5 -8.0
v -5.0 36.0 -8.3
v -5.0 36.3 -11.0
v -5.3 37.0 -10.0
v -5.0 37.0 -10.4
v -5.3 37.0 -9.0
v -5.0 37.0 -8.6
v -5.0 37.3 -10.0
v -5.0 37.4 -9.0
v -4.0 15.0 -19.0
v -4.0 15.0 -19.0
v -4.0 15.0 -19.0
v -4.0 14.8 -18.0
v -4.3 15.0 -18.0
v -4.0 15.0 -17.6
v -4.0 15.0 -19.0
v -4.0 16.0 -18.6
v -4.0 15.3 -17.0
v -4.0 15.5 -16.0
v -4.0 15.5 -15.0
v -4.0 15.5 -14.0
v -4.0 15.6 -13.0
v -4.8 16.0 -13.0
v -4.0 15.6 -12.0
v -4.0 16.0 -11.5
v -4.8 17.0 -18.0
v -4.0 17.0 -18.4
v -4.0 16.4 -11.0
v -4.0 16.5 -10.0
v -4.0 16.5 -9.0
v -4.0 16.5 -8.0
v -4.0 16.6 -7.0
v -4.6 17.0 -7.0
v -4.0 16.8 -6.0
v -4.3 17.0 -6.0
v -4.0 17.0 -5.7
v -4.0 18.0 -18.5
v -4.0 17.5 -5.0
v -4.0 18.0 -4.5
v -4.0 19.0 -18.6
v -4.0 18.4 -4.0
v -4.0 18.8 -3.0
v -4.0 19.0 -2.8
v -4.7 20.0 -18.0
v -4.0 20.0 -18.5
v -4.0 20.0 -2.5
v -4.8 21.0 -18.0
v -4.0 21.0 -18.7
v -4.0 21.0 -2.7
v -4.1 22.0 -19.0
v -4.0 22.0 -19.1
v -4.0 21.7 -19.0
v -4.5 22.0 -3.0
v -4.0 21.5 -3.0
v -4.0 22.0 -3.3
v -4.0 22.2 -19.0
v -4.6 23.0 -18.0
v -4.0 23.0 -18.5
v -4.0 23.0 -3.5
v -4.5 24.0 -18.0
v -4.0 24.0 -18.4
v -4.0 24.0 -3.5
v -4.4 25.0 -18.0
v -4.0 25.0 -18.4
v -4.5 25.0 -17.0
v -4.7 25.0 -16.0
v -4.2 25.0 -4.0
v -4.0 25.0 -3.9
v -4.0 26.0 -18.0
v -4.0 26.0 -18.0
v -4.0 26.0 -17.8
v -4.0 25.8 -17.0
v -4.4 26.0 -16.0
v -4.0 26.0 -16.8
v -4.6 26.0 -15.0
v -4.9 26.0 -14.0
v -4.2 26.0 -5.0
v -4.0 25.8 -5.0
v -4.0 26.0 -5.2
v -4.0 25.1 -4.0
v -4.0 26.0 -18.0
v -4.4 27.0 -16.0
v -4.0 27.0 -16.5
v -4.7 27.0 -15.0
v -4.0 26.4 -5.0
v -4.0 27.0 -4.7
v -4.4 28.0 -16.0
v -4.0 28.0 -16.4
v -4.0 28.0 -4.6
v -4.0 28.5 -16.0
v -4.0 29.0 -15.6
v -4.0 29.0 -4.6
v -4.0 29.6 -15.0
v -4.7 30.0 -15.0
v -4.0 30.0 -14.2
v -4.0 30.0 -4.6
v -4.0 30.7 -15.0
v -4.2 31.0 -15.0
v -4.0 31.0 -15.2
v -4.0 31.0 -4.8
v -4.0 31.2 -15.0
v -4.5 32.0 -14.0
v -4.0 32.0 -14.5
v -4.0 31.3 -5.0
v -4.0 32.0 -5.4
v -4.0 32.4 -14.0
v -4.0 32.8 -13.0
v -4.8 33.0 -12.0
v -4.0 33.0 -12.8
v -4.4 33.0 -6.0
v -4.0 33.0 -5.7
v -4.0 34.0 -12.5
v -4.5 34.0 -7.0
v -4.0 34.0 -6.5
v -4.0 33.4 -6.0
v -4.0 34.8 -12.0
v -4.0 35.0 -11.9
v -4.0 34.4 -7.0
v -4.0 35.0 -7.4
v -4.2 36.0 -12.0
v -4.0 36.0 -12.2
v -4.0 35.3 -12.0
v -4.6 36.0 -8.0
v -4.0 36.0 -7.6
v -4.0 36.4 -12.0
v -4.5 37.0 -11.0
v -4.0 37.0 -11.6
v -4.4 37.0 -8.0
v -4.0 37.0 -7.6
v -4.0 37.5 -11.0
v -4.3 38.0 -10.0
v -4.0 38.0 -10.4
v -4.4 38.0 -9.0
v -4.2 38.0 -8.0
v -4.0 38.0 -7.8
v -4.0 38.3 -10.0
v -4.0 38.4 -9.0
v -4.0 38.2 -8.0
v -3.0 15.0 -19.5
v -3.0 14.5 -19.0
v -3.0 14.4 -18.0
v -3.0 14.8 -17.0
v -3.3 15.0 -17.0
v -3.0 15.0 -16.8
v -3.5 16.0 -19.0
v -3.0 16.0 -19.4
v -3.0 15.5 -16.0
v -3.0 15.5 -15.0
v -3.0 15.5 -14.0
v -3.0 15.6 -13.0
v -3.0 15.6 -12.0
v -3.0 16.0 -11.4
v -3.0 16.4 -19.0
v -3.0 17.0 -18.6
v -3.0 16.3 -11.0
v -3.0 16.4 -10.0
v -3.0 16.5 -9.0
v -3.0 16.5 -8.0
v -3.0 16.5 -7.0
v -3.0 16.7 -6.0
v -3.0 17.0 -5.7
v -3.0 18.0 -18.6
v -3.0 17.6 -5.0
v -3.0 18.0 -4.5
v -3.4 19.0 -19.0
v -3.0 19.0 -19.4
v -3.0 18.6 -19.0
v -3.0 18.6 -4.0
v -3.6 19.0 -3.0
v -3.0 19.0 -3.6
v -3.2 20.0 -20.0
v -3.0 20.0 -20.2
v -3.0 19.6 -20.0
v -3.6 20.0 -19.0
v -3.0 19.8 -3.0
v -3.0 20.0 -2.9
v -3.3 21.0 -20.0
v -3.0 21.0 -20.3
v -3.7 21.0 -19.0
v -3.5 21.0 -3.0
v -3.0 20.3 -3.0
v -3.0 21.0 -3.3
v -3.0 21.4 -20.0
v -3.0 22.0 -19.6
v -3.0 22.0 -3.5
v -3.0 22.7 -19.0
v -3.0 23.0 -18.8
v -3.0 23.0 -3.5
v -3.0 24.0 -18.8
v -3.1 24.0 -7.0
v -3.0 23.8 -7.0
v -3.0 24.0 -7.2
v -3.0 24.0 -6.7
v -3.0 24.0 -3.6
v -3.2 25.0 -19.0
v -3.0 25.0 -19.1
v -3.0 24.7 -19.0
v -3.2 25.0 -7.0
v -3.0 25.0 -7.3
v -3.0 24.4 -6.0
v -3.4 25.0 -6.0
v -3.5 25.0 -5.0
v -3.0 24.5 -5.0
v -3.9 25.0 -4.0
v -3.0 24.4 -4.0
v -3.0 25.2 -19.0
v -3.0 26.0 -18.4
v -3.9 26.0 -17.0
v -3.0 25.4 -7.0
v -3.0 26.0 -6.5
v -3.4 26.0 -6.0
v -3.0 26.5 -18.0
v -3.5 27.0 -17.0
v -3.0 27.0 -17.5
v -3.0 26.7 -6.0
v -3.7 27.0 -5.0
v -3.0 27.0 -5.8
v -3.3 28.0 -17.0
v -3.0 28.0 -17.3
v -3.3 28.0 -6.0
v -3.0 27.4 -6.0
v -3.0 28.0 -6.3
v -3.6 28.0 -5.0
v -3.2 29.0 -17.0
v -3.0 29.0 -17.2
v -3.5 29.0 -16.0
v -3.3 29.0 -6.0
v -3.0 29.0 -6.3
v -3.6 29.0 -5.0
v -3.0 30.0 -17.0
v -3.0 29.4 -16.0
v -3.0 29.5 -15.0
v -3.8 30.0 -14.0
v -3.0 29.7 -14.0
v -3.0 30.0 -13.8
v -3.0 29.3 -6.0
v -3.0 30.0 -5.5
v -3.5 30.0 -5.0
v -3.0 31.0 -16.0
v -3.0 30.6 -15.0
v -3.0 30.3 -14.0
v -3.7 31.0 -5.0
v -3.0 31.0 -5.4
v -3.4 32.0 -15.0
v -3.0 32.0 -15.3
v -3.0 32.0 -5.5
v -3.0 32.9 -15.0
v -3.4 33.0 -14.0
v -3.0 33.0 -14.9
v -3.7 33.0 -13.0
v -3.0 33.0 -5.5
v -3.2 34.0 -14.0
v -3.0 34.0 -14.3
v -3.6 34.0 -13.0
v -3.4 34.0 -6.0
v -3.0 34.0 -5.8
v -3.2 35.0 -14.0
v -3.0 35.0 -14.2
v -3.5 35.0 -13.0
v -3.9 35.0 -12.0
v -3.0 34.6 -7.0
v -3.0 35.0 -7.4
v -3.0 34.2 -6.0
v -3.0 35.2 -14.0
v -3.3 36.0 -13.0
v -3.0 36.0 -13.3
v -3.0 36.0 -7.5
v -3.2 37.0 -13.0
v -3.0 37.0 -13.2
v -3.7 37.0 -12.0
v -3.0 37.0 -7.6
v -3.0 37.2 -13.0
v -3.2 38.0 -12.0
v -3.0 38.0 -12.3
v -3.6 38.0 -11.0
v -3.0 38.0 -7.7
v -3.0 38.2 -12.0
v -3.0 38.5 -11.0
v -3.0 38.6 -10.0
v -3.0 38.7 -9.0
v -3.0 38.7 -8.0
v -2.4 14.0 -19.0
v -2.0 14.0 -19.9
v -2.0 13.4 -19.0
v -2.0 13.8 -18.0
v -2.3 14.0 -18.0
v -2.0 14.0 -17.8
v -2.2 15.0 -20.0
v -2.0 15.0 -20.2
v -2.0 14.2 -20.0
v -2.0 15.0 -17.3
v -2.6 15.0 -17.0
v -2.0 15.8 -20.0
v -2.0 16.0 -19.9
v -2.0 15.3 -17.0
v -2.0 16.0 -16.0
v -2.0 15.7 -15.0
v -2.0 15.8 -14.0
v -2.5 16.0 -13.0
v -2.0 16.0 -13.7
v -2.0 16.0 -12.0
v -2.0 16.0 -12.0
v -2.0 15.8 -11.0
v -2.4 16.0 -11.0
v -2.0 15.9 -10.0
v -2.1 16.0 -10.0
v -2.0 16.0 -9.9
v -2.0 16.5 -19.0
v -2.0 17.0 -18.6
v -2.3 17.0 -13.0
v -2.0 17.0 -13.3
v -2.0 16.0 -12.0
v -2.3 17.0 -12.0
v -2.0 17.0 -11.4
v -2.0 16.6 -9.0
v -2.0 16.7 -8.0
v -2.0 16.8 -7.0
v -2.6 17.0 -6.0
v -2.0 17.0 -6.7
v -2.0 18.0 -18.8
v -2.0 17.4 -13.0
v -2.0 18.0 -12.4
v -2.2 18.0 -12.0
v -2.0 17.5 -11.0
v -2.3 18.0 -11.0
v -2.4 18.0 -10.0
v -2.0 17.5 -10.0
v -2.4 18.0 -9.0
v -2.0 17.4 -9.0
v -2.1 18.0 -8.0
v -2.0 17.7 -8.0
v -2.0 18.0 -7.8
v -2.0 17.5 -6.0
v -2.0 18.0 -5.0
v -2.0 18.0 -5.0
v -2.4 19.0 -20.0
v -2.0 19.0 -20.3
v -2.0 18.7 -20.0
v -2.0 18.3 -19.0
v -2.0 18.3 -12.0
v -2.0 18.4 -11.0
v -2.0 19.0 -10.4
v -2.2 19.0 -10.0
v -2.3 19.0 -9.0
v -2.0 19.0 -8.4
v -2.0 18.4 -8.0
v -2.0 19.0 -5.0
v -2.0 18.5 -5.0
v -2.0 19.0 -5.1
v -2.5 19.0 -4.0
v -2.0 20.0 -20.6
v -2.0 19.2 -10.0
v -2.0 19.3 -9.0
v -2.0 20.0 -8.1
v -2.1 20.0 -8.0
v -2.0 19.7 -8.0
v -2.2 20.0 -7.0
v -2.0 19.7 -7.0
v -2.0 20.0 -6.7
v -2.0 19.1 -5.0
v -2.0 19.4 -4.0
v -2.8 20.0 -3.0
v -2.0 20.0 -3.5
v -2.0 21.0 -20.7
v -2.0 20.1 -8.0
v -2.0 21.0 -7.2
v -2.1 21.0 -7.0
v -2.0 21.0 -6.8
v -2.0 21.0 -3.6
v -2.3 22.0 -21.0
v -2.0 22.0 -21.8
v -2.0 21.5 -21.0
v -2.7 22.0 -20.0
v -2.2 22.0 -9.0
v -2.0 21.8 -9.0
v -2.0 22.0 -9.2
v -2.4 22.0 -8.0
v -2.0 21.5 -8.0
v -2.3 22.0 -7.0
v -2.0 21.9 -6.0
v -2.1 22.0 -6.0
v -2.0 22.0 -5.9
v -2.0 22.0 -3.6
v -2.0 22.5 -21.0
v -2.4 23.0 -20.0
v -2.0 23.0 -20.6
v -2.8 23.0 -19.0
v -2.4 23.0 -9.0
v -2.0 23.0 -9.5
v -2.5 23.0 -8.0
v -2.5 23.0 -7.0
v -2.3 23.0 -6.0
v -2.0 23.0 -5.7
v -2.0 23.0 -3.7
v -2.3 24.0 -20.0
v -2.0 24.0 -20.3
v -2.7 24.0 -19.0
v -2.4 24.0 -9.0
v -2.0 24.0 -9.5
v -2.6 24.0 -8.0
v -2.7 24.0 -6.0
v -2.0 23.7 -5.0
v -2.3 24.0 -5.0
v -2.0 24.0 -4.2
v -2.0 24.0 -3.9
v -2.0 24.3 -20.0
v -2.0 25.0 -19.5
v -2.2 25.0 -9.0
v -2.0 25.0 -9.2
v -2.4 25.0 -8.0
v -2.0 24.1 -4.0
v -2.0 25.5 -19.0
v -2.0 26.0 -18.5
v -2.0 25.2 -9.0
v -2.0 25.4 -8.0
v -2.4 26.0 -7.0
v -2.0 26.0 -7.4
v -2.0 26.5 -18.0
v -2.0 27.0 -17.4
v -2.0 26.5 -7.0
v -2.8 27.0 -6.0
v -2.0 27.0 -6.7
v -2.0 27.5 -17.0
v -2.6 28.0 -17.0
v -2.0 28.0 -16.6
v -2.3 28.0 -7.0
v -2.0 27.6 -7.0
v -2.0 28.0 -7.3
v -2.8 29.0 -17.0
v -2.0 28.5 -16.0
v -2.6 29.0 -16.0
v -2.5 29.0 -15.0
v -2.0 28.6 -15.0
v -2.4 29.0 -14.0
v -2.0 28.6 -14.0
v -2.1 29.0 -13.0
v -2.0 28.9 -13.0
v -2.0 29.0 -12.9
v -2.4 29.0 -7.0
v -2.0 29.0 -7.5
v -2.0 29.4 -13.0
v -2.0 30.0 -13.1
v -2.1 30.0 -7.0
v -2.0 30.0 -7.1
v -2.0 30.0 -6.0
v -2.0 30.0 -6.2
v -2.0 30.0 -6.0
v -2.7 31.0 -15.0
v -2.5 31.0 -14.0
v -2.0 30.2 -13.0
v -2.3 31.0 -13.0
v -2.0 31.0 -12.0
v -2.0 30.9 -12.0
v -2.0 31.0 -12.0
v -2.0 30.1 -7.0
v -2.0 31.0 -5.7
v -2.7 32.0 -15.0
v -2.0 32.0 -14.1
v -2.0 31.9 -14.0
v -2.0 31.5 -13.0
v -2.0 31.0 -12.0
v -2.0 32.0 -5.7
v -2.5 33.0 -14.0
v -2.0 32.1 -14.0
v -2.2 33.0 -13.0
v -2.0 32.7 -13.0
v -2.0 33.0 -12.8
v -2.0 33.0 -5.7
v -2.6 34.0 -14.0
v -2.0 34.0 -13.5
v -2.0 33.3 -13.0
v -2.0 34.0 -5.8
v -2.0 35.0 -14.0
v -2.0 35.0 -14.0
v -2.0 34.4 -7.0
v -2.0 35.0 -7.5
v -2.0 34.2 -6.0
v -2.0 35.0 -14.0
v -2.5 36.0 -13.0
v -2.0 35.6 -13.0
v -2.1 36.0 -12.0
v -2.0 35.9 -12.0
v -2.0 36.0 -11.9
v -2.0 36.0 -7.7
v -2.0 37.0 -13.2
v -2.0 36.6 -13.0
v -2.0 36.1 -12.0
v -2.4 37.0 -8.0
v -2.0 36.4 -8.0
v -2.0 37.0 -8.4
v -2.0 37.2 -13.0
v -2.0 38.0 -12.4
v -2.6 38.0 -8.0
v -2.0 38.0 -8.5
v -2.0 38.4 -12.0
v -2.3 39.0 -11.0
v -2.0 39.0 -11.3
v -2.5 39.0 -10.0
v -2.4 39.0 -9.0
v -2.0 39.0 -8.7
v -2.0 39.2 -11.0
v -2.0 39.3 -10.0
v -2.0 39.2 -9.0
v -1.6 14.0 -19.0
v -1.5 14.0 -18.0
v -1.8 15.0 -20.0
v -1.5 15.0 -19.0
v -1.5 15.0 -18.0
v -1.6 16.0 -19.0
v -1.4 16.0 -18.0
v -1.5 16.0 -17.0
v -2.0 16.0 -16.0
v -1.7 16.0 -15.0
v -1.8 16.0 -14.0
v -2.0 16.0 -12.0
v -1.8 16.0 -11.0
v -1.9 16.0 -10.0
v -1.0 16.8 -18.0
v -1.0 17.0 -18.1
v -1.0 17.0 -17.8
v -1.3 17.0 -17.0
v -1.5 17.0 -16.0
v -1.5 17.0 -15.0
v -1.6 17.0 -14.0
v -1.8 17.0 -11.0
v -1.7 17.0 -10.0
v -1.7 17.0 -9.0
v -1.7 17.0 -8.0
v -1.8 17.0 -7.0
v -1.4 18.0 -19.0
v -1.0 18.0 -19.2
v -1.0 17.8 -19.0
v -1.0 17.5 -17.0
v -1.0 18.0 -16.6
v -1.4 18.0 -16.0
v -1.5 18.0 -15.0
v -1.5 18.0 -14.0
v -1.7 18.0 -13.0
v -1.6 18.0 -7.0
v -1.6 18.0 -6.0
v -2.0 18.0 -5.0
v -1.0 19.0 -20.5
v -1.0 18.6 -20.0
v -1.3 19.0 -16.0
v -1.0 19.0 -16.3
v -1.4 19.0 -15.0
v -1.4 19.0 -14.0
v -1.4 19.0 -13.0
v -1.1 19.0 -12.0
v -1.5 19.0 -11.0
v -1.8 19.0 -8.0
v -1.6 19.0 -7.0
v -1.6 19.0 -6.0
v -1.3 20.0 -21.0
v -1.0 20.0 -21.2
v -1.0 19.7 -21.0
v -1.0 19.3 -16.0
v -1.0 19.5 -15.0
v -1.0 19.6 -14.0
v -1.0 20.0 -13.5
v -1.3 20.0 -13.0
v -1.3 20.0 -12.0
v -1.0 20.0 -11.2
v -1.0 19.8 -11.0
v -1.0 19.8 -10.0
v -1.0 19.8 -9.0
v -1.0 20.0 -8.7
v -1.5 20.0 -6.0
v -1.0 19.7 -5.0
v -1.0 20.0 -5.3
v -1.0 19.5 -4.0
v -1.0 20.0 -3.8
v -1.7 21.0 -21.0
v -1.0 21.0 -21.5
v -1.0 20.5 -13.0
v -1.0 21.0 -12.4
v -1.2 21.0 -12.0
v -1.0 20.3 -11.0
v -1.3 21.0 -11.0
v -1.1 21.0 -10.0
v -1.0 20.6 -10.0
v -1.0 21.0 -9.7
v -1.0 20.8 -8.0
v -1.0 21.0 -7.0
v -1.1 21.0 -7.0
v -1.0 21.0 -7.0
v -1.4 21.0 -6.0
v -1.0 21.0 -5.4
v -1.5 21.0 -4.0
v -1.0 20.3 -4.0
v -1.0 21.0 -4.7
v -1.8 22.0 -22.0
v -1.0 22.0 -22.2
v -1.0 21.7 -22.0
v -1.0 21.3 -12.0
v -1.0 21.5 -11.0
v -1.0 21.6 -10.0
v -1.0 22.0 -9.9
v -1.0 21.3 -9.0
v -1.0 21.2 -8.0
v -1.0 21.3 -7.0
v -1.0 21.7 -6.0
v -1.0 22.0 -6.8
v -1.6 22.0 -6.0
v -1.0 22.0 -5.7
v -1.3 22.0 -5.0
v -1.0 21.4 -5.0
v -1.6 22.0 -4.0
v -1.0 22.3 -22.0
v -1.6 23.0 -21.0
v -1.0 23.0 -21.5
v -1.0 23.0 -11.0
v -1.0 22.9 -11.0
v -1.0 23.0 -11.0
v -1.5 23.0 -10.0
v -1.0 22.1 -10.0
v -1.0 23.0 -6.0
v -1.0 23.0 -6.0
v -1.0 22.6 -5.0
v -1.0 23.0 -4.8
v -1.6 23.0 -4.0
v -1.0 24.0 -21.0
v -1.0 24.0 -21.0
v -1.2 24.0 -11.0
v -1.0 24.0 -11.2
v -1.6 24.0 -10.0
v -1.0 23.0 -6.0
v -1.0 23.5 -5.0
v -1.9 24.0 -4.0
v -1.0 24.0 -21.0
v -1.0 24.4 -20.0
v -1.0 25.0 -19.3
v -1.0 24.9 -11.0
v -1.0 25.0 -11.0
v -1.4 25.0 -10.0
v -1.0 25.3 -19.0
v -1.0 26.0 -18.3
v -1.0 25.4 -10.0
v -1.0 25.5 -9.0
v -1.0 25.2 -8.0
v -1.0 26.0 -7.5
v -1.0 26.2 -18.0
v -1.5 27.0 -17.0
v -1.0 26.6 -17.0
v -1.0 27.0 -16.6
v -1.0 26.9 -7.0
v -1.0 27.0 -6.9
v -1.0 28.0 -16.2
v -1.0 27.1 -7.0
v -1.0 28.0 -7.6
v -1.0 28.2 -16.0
v -1.0 28.5 -15.0
v -1.0 28.5 -14.0
v -1.0 28.5 -13.0
v -1.4 29.0 -12.0
v -1.0 28.6 -12.0
v -1.2 29.0 -11.0
v -1.0 28.8 -11.0
v -1.0 29.0 -10.5
v -1.5 29.0 -9.0
v -1.0 28.8 -9.0
v -1.0 29.0 -9.5
v -1.5 29.0 -8.0
v -1.0 28.5 -8.0
v -1.9 30.0 -13.0
v -1.6 30.0 -12.0
v -1.4 30.0 -11.0
v -1.0 29.7 -10.0
v -1.1 30.0 -10.0
v -1.0 29.4 -9.0
v -1.0 30.0 -9.7
v -1.0 29.9 -8.0
v -1.0 30.0 -7.9
v -2.0 30.0 -6.0
v -1.0 30.5 -11.0
v -1.0 31.0 -11.4
v -1.0 30.2 -10.0
v -1.3 31.0 -8.0
v -1.0 30.2 -8.0
v -1.0 31.0 -8.4
v -1.6 31.0 -7.0
v -1.7 31.0 -6.0
v -1.9 32.0 -14.0
v -1.7 32.0 -13.0
v -1.5 32.0 -12.0
v -1.0 32.0 -11.5
v -1.3 32.0 -8.0
v -1.0 32.0 -8.4
v -1.5 32.0 -7.0
v -1.7 32.0 -6.0
v -1.5 33.0 -12.0
v -1.0 33.0 -11.5
v -1.0 32.7 -8.0
v -1.0 33.0 -7.8
v -1.4 33.0 -7.0
v -1.7 33.0 -6.0
v -1.7 34.0 -13.0
v -1.5 34.0 -12.0
v -1.0 33.7 -11.0
v -1.3 34.0 -11.0
v -1.0 34.0 -10.6
v -1.3 34.0 -9.0
v -1.0 33.7 -9.0
v -1.0 34.0 -9.4
v -1.8 34.0 -8.0
v -1.0 33.2 -8.0
v -1.7 34.0 -7.0
v -1.8 34.0 -6.0
v -2.0 35.0 -14.0
v -1.7 35.0 -13.0
v -1.6 35.0 -12.0
v -1.5 35.0 -11.0
v -1.0 34.4 -10.0
v -1.4 35.0 -10.0
v -1.4 35.0 -9.0
v -1.3 35.0 -8.0
v -1.6 36.0 -11.0
v -1.5 36.0 -10.0
v -1.5 36.0 -9.0
v -1.7 36.0 -8.0
v -1.5 37.0 -13.0
v -1.5 37.0 -12.0
v -1.5 37.0 -11.0
v -1.5 37.0 -10.0
v -1.6 37.0 -9.0
v -1.2 38.0 -12.0
v -1.3 38.0 -11.0
v -1.4 38.0 -10.0
v -1.5 38.0 -9.0
v -1.0 39.0 -11.0
v -1.0 39.0 -11.0
v -1.0 38.7 -10.0
v -1.0 38.8 -9.0
v -1.0 39.0 -8.9
v -1.0 39.0 -11.0
v -1.0 39.2 -10.0
v -1.0 39.1 -9.0
v -0.9 17.0 -18.0
v -0.8 18.0 -19.0
v -0.5 18.0 -18.0
v -0.7 18.0 -17.0
v 0.0 19.0 -20.3
v 0.0 18.8 -20.0
v 0.0 18.7 -19.0
v 0.0 19.0 -18.7
v -0.4 19.0 -18.0
v -0.6 19.0 -17.0
v 0.0 20.0 -21.2
v 0.0 19.7 -21.0
v -0.4 20.0 -18.0
v 0.0 20.0 -18.5
v -0.5 20.0 -17.0
v -0.6 20.0 -16.0
v -0.6 20.0 -15.0
v -0.7 20.0 -14.0
v -0.9 20.0 -11.0
v -0.8 20.0 -10.0
v -0.8 20.0 -9.0
v -0.8 20.0 -5.0
v -0.8 20.0 -4.0
v 0.0 21.0 -21.4
v -0.4 21.0 -18.0
v 0.0 21.0 -18.6
v -0.5 21.0 -17.0
v -0.5 21.0 -16.0
v -0.5 21.0 -15.0
v -0.5 21.0 -14.0
v -0.7 21.0 -13.0
v -0.8 21.0 -9.0
v -0.8 21.0 -8.0
v -1.0 21.0 -7.0
v -0.9 21.0 -5.0
v 0.0 22.0 -22.0
v 0.0 22.0 -22.0
v -0.3 22.0 -19.0
v 0.0 21.5 -19.0
v 0.0 22.0 -19.5
v -0.5 22.0 -18.0
v -0.5 22.0 -17.0
v -0.5 22.0 -16.0
v -0.5 22.0 -15.0
v -0.5 22.0 -14.0
v -0.4 22.0 -13.0
v -0.5 22.0 -12.0
v -0.7 22.0 -11.0
v -0.9 22.0 -10.0
v -0.9 22.0 -6.0
v 0.0 22.0 -22.0
v 0.0 23.0 -21.1
v -0.3 23.0 -20.0
v 0.0 22.5 -20.0
v 0.0 23.0 -20.8
v -0.5 23.0 -19.0
v -0.5 23.0 -18.0
v -0.5 23.0 -17.0
v -0.5 23.0 -16.0
v -0.5 23.0 -15.0
v -0.3 23.0 -14.0
v 0.0 23.0 -13.5
v 0.0 22.6 -13.0
v 0.0 22.6 -12.0
v 0.0 23.0 -11.0
v -0.4 23.0 -11.0
v 0.0 23.0 -11.0
v -1.0 23.0 -6.0
v -0.8 23.0 -5.0
v 0.0 23.1 -21.0
v -1.0 24.0 -21.0
v -0.6 24.0 -20.0
v -0.5 24.0 -19.0
v -0.5 24.0 -18.0
v -0.5 24.0 -17.0
v -0.5 24.0 -16.0
v -0.3 24.0 -15.0
v 0.0 24.0 -14.5
v 0.0 23.5 -14.0
v -0.5 24.0 -11.0
v 0.0 24.0 -10.8
v -0.8 25.0 -19.0
v -0.5 25.0 -18.0
v -0.5 25.0 -17.0
v -0.4 25.0 -16.0
v 0.0 25.0 -15.4
v 0.0 24.5 -15.0
v 0.0 25.0 -10.8
v -0.8 26.0 -18.0
v -0.6 26.0 -17.0
v -0.4 26.0 -16.0
v 0.0 26.0 -15.5
v -0.4 26.0 -10.0
v 0.0 26.0 -10.4
v -0.4 26.0 -9.0
v 0.0 26.0 -8.1
v 0.0 25.9 -8.0
v 0.0 26.0 -7.9
v -0.5 27.0 -16.0
v 0.0 27.0 -15.5
v 0.0 26.4 -10.0
v 0.0 26.4 -9.0
v -0.9 27.0 -7.0
v 0.0 27.0 -7.7
v -0.7 28.0 -16.0
v 0.0 28.0 -15.3
v -0.6 28.0 -8.0
v 0.0 27.4 -8.0
v 0.0 28.0 -8.6
v 0.0 28.2 -15.0
v 0.0 28.3 -14.0
v 0.0 28.3 -13.0
v 0.0 28.3 -12.0
v 0.0 28.4 -11.0
v -0.7 29.0 -10.0
v 0.0 28.4 -10.0
v 0.0 28.3 -9.0
v -0.7 30.0 -9.0
v -0.9 30.0 -8.0
v 0.0 31.0 -11.1
v 0.0 30.9 -11.0
v 0.0 31.0 -10.0
v -0.6 31.0 -9.0
v 0.0 31.0 -10.0
v 0.0 32.0 -11.2
v -0.6 32.0 -10.0
v 0.0 31.1 -10.0
v 0.0 32.0 -10.6
v -0.6 32.0 -9.0
v 0.0 33.0 -11.2
v 0.0 32.4 -10.0
v 0.0 32.9 -9.0
v -0.9 33.0 -8.0
v 0.0 33.0 -8.9
v 0.0 33.2 -11.0
v 0.0 34.0 -10.3
v 0.0 33.1 -9.0
v 0.0 34.0 -9.7
v 0.0 34.2 -10.0
v -1.0 39.0 -11.0
v -0.8 39.0 -10.0
v -0.7 39.0 -9.0
v 0.2 19.0 -20.0
v 0.2 19.0 -19.0
v 0.2 20.0 -21.0
v 0.5 20.0 -20.0
v 0.4 20.0 -19.0
v 0.4 21.0 -21.0
v 0.5 21.0 -20.0
v 0.3 21.0 -19.0
v 0.0 22.0 -22.0
v 0.4 22.0 -21.0
v 0.3 22.0 -20.0
v 0.1 23.0 -21.0
v 0.3 23.0 -13.0
v 0.4 23.0 -12.0
v 0.0 23.0 -11.0
v 0.3 24.0 -14.0
v 0.5 24.0 -13.0
v 0.5 24.0 -12.0
v 0.2 24.0 -11.0
v 0.3 25.0 -15.0
v 0.5 25.0 -14.0
v 0.5 25.0 -13.0
v 0.5 25.0 -12.0
v 0.2 25.0 -11.0
v 0.4 26.0 -15.0
v 0.5 26.0 -14.0
v 0.5 26.0 -13.0
v 0.5 26.0 -12.0
v 0.4 26.0 -11.0
v 0.1 26.0 -8.0
v 0.4 27.0 -15.0
v 0.5 27.0 -14.0
v 0.5 27.0 -13.0
v 0.5 27.0 -12.0
v 0.5 27.0 -11.0
v 0.4 27.0 -10.0
v 0.4 27.0 -9.0
v 0.2 27.0 -8.0
v 0.2 28.0 -15.0
v 0.3 28.0 -14.0
v 0.3 28.0 -13.0
v 0.3 28.0 -12.0
v 0.4 28.0 -11.0
v 0.4 28.0 -10.0
v 0.2 28.0 -9.0
v 0.1 31.0 -11.0
v 0.0 31.0 -10.0
v 0.2 32.0 -11.0
v 0.2 33.0 -11.0
v 0.4 33.0 -10.0
v 0.1 33.0 -9.0
v 0.7 34.0 -10.0
f 3 2 1
f 1 4 3
f 1 2 5
f 5 2 6
f 4 1 7
f 1 8 7
f 1 5 8
f 8 9 7
f 12 11 10
f 12 10 6
f 10 5 6
f 10 13 5
f 5 14 8
f 5 13 14
f 9 8 15
f 8 16 15
f 8 14 16
f 16 17 15
f 20 19 18
f 20 18 11
f 18 10 11
f 18 21 10
f 23 13 22
f 13 21 22
f 13 10 21
f 13 23 14
f 14 23 24
f 14 24 16
f 16 24 25
f 28 27 26
f 16 25 17
f 27 29 26
f 18 19 30
f 30 19 31
f 18 32 21
f 18 30 32
f 22 21 33
f 21 34 33
f 21 32 34
f 36 35 34
f 34 35 33
f 36 37 35
f 27 28 38
f 38 28 39
f 29 27 40
f 40 27 38
f 31 41 30
f 43 42 41
f 42 30 41
f 42 32 30
f 32 44 34
f 32 42 44
f 46 36 45
f 36 44 45
f 36 34 44
f 36 46 37
f 39 47 38
f 38 47 40
f 43 48 42
f 50 49 48
f 49 42 48
f 49 44 42
f 45 44 51
f 51 44 49
f 49 50 52
f 52 50 53
f 51 49 54
f 49 55 54
f 49 52 55
f 55 56 54
f 52 53 57
f 57 53 58
f 52 59 55
f 52 57 59
f 56 55 60
f 60 55 59
f 63 62 61
f 61 64 63
f 57 58 65
f 65 58 66
f 57 67 59
f 57 65 67
f 60 59 68
f 59 69 68
f 59 67 69
f 68 69 62
f 69 61 62
f 69 70 61
f 64 61 71
f 71 61 70
f 65 66 72
f 72 66 73
f 65 74 67
f 65 72 74
f 67 75 69
f 67 74 75
f 69 76 70
f 69 75 76
f 71 70 77
f 70 78 77
f 70 76 78
f 80 79 78
f 78 79 77
f 82 81 80
f 80 81 79
f 82 83 81
f 73 84 72
f 72 84 74
f 74 84 85
f 74 85 75
f 75 85 86
f 88 87 86
f 87 75 86
f 87 76 75
f 76 89 78
f 76 87 89
f 78 90 80
f 78 89 90
f 80 91 82
f 80 90 91
f 83 82 92
f 92 82 91
f 88 93 87
f 95 94 93
f 94 87 93
f 94 89 87
f 89 96 90
f 89 94 96
f 90 97 91
f 90 96 97
f 92 91 98
f 91 99 98
f 91 97 99
f 99 100 98
f 94 95 101
f 101 95 102
f 94 103 96
f 94 101 103
f 96 104 97
f 96 103 104
f 97 105 99
f 97 104 105
f 100 99 106
f 106 99 105
f 101 102 107
f 107 102 108
f 101 109 103
f 101 107 109
f 103 110 104
f 103 109 110
f 112 105 111
f 105 110 111
f 105 104 110
f 105 112 106
f 108 113 107
f 115 114 113
f 114 107 113
f 114 109 107
f 117 110 116
f 110 114 116
f 110 109 114
f 110 117 111
f 115 118 114
f 114 118 116
f 121 120 119
f 119 122 121
f 125 124 123
f 125 123 120
f 123 119 120
f 123 126 119
f 122 119 127
f 119 128 127
f 119 126 128
f 128 129 127
f 123 124 130
f 130 124 131
f 130 2 3
f 126 130 3
f 123 130 126
f 126 3 4
f 132 126 4
f 128 126 132
f 129 128 133
f 128 134 133
f 128 132 134
f 136 135 134
f 134 135 133
f 136 137 135
f 140 139 138
f 140 138 131
f 138 130 131
f 138 141 130
f 141 6 2
f 141 2 130
f 7 132 4
f 132 7 9
f 142 132 9
f 134 132 142
f 134 143 136
f 134 142 143
f 137 136 144
f 144 136 143
f 147 146 145
f 149 148 145
f 145 148 147
f 148 149 139
f 149 138 139
f 149 150 138
f 150 11 12
f 141 150 12
f 138 150 141
f 141 12 6
f 15 142 9
f 142 15 17
f 151 142 17
f 143 142 151
f 144 143 152
f 143 153 152
f 143 151 153
f 153 154 152
f 145 146 155
f 155 146 156
f 145 157 149
f 145 155 157
f 157 19 20
f 150 157 20
f 149 157 150
f 150 20 11
f 22 158 23
f 159 24 23
f 159 23 158
f 160 25 24
f 160 24 159
f 160 17 25
f 160 151 17
f 160 28 26
f 151 160 26
f 151 26 29
f 161 151 29
f 153 151 161
f 154 153 162
f 153 163 162
f 153 161 163
f 163 164 162
f 156 165 155
f 155 165 157
f 157 165 166
f 19 157 166
f 167 19 166
f 31 19 167
f 33 158 22
f 158 33 35
f 158 35 159
f 159 35 37
f 168 159 37
f 160 159 168
f 168 39 28
f 168 28 160
f 40 169 161
f 40 161 29
f 161 170 163
f 161 169 170
f 164 163 171
f 171 163 170
f 167 172 31
f 31 172 41
f 43 41 172
f 43 172 173
f 45 174 46
f 168 37 46
f 174 168 46
f 175 168 174
f 176 47 39
f 168 176 39
f 175 176 168
f 169 40 47
f 176 169 47
f 177 169 176
f 169 178 170
f 169 177 178
f 171 170 179
f 170 180 179
f 170 178 180
f 180 181 179
f 48 43 182
f 43 183 182
f 43 173 183
f 182 50 48
f 51 184 174
f 51 174 45
f 174 185 175
f 174 184 185
f 175 186 176
f 175 185 186
f 176 187 177
f 176 186 187
f 177 188 178
f 177 187 188
f 178 189 180
f 178 188 189
f 181 180 190
f 180 191 190
f 180 189 191
f 191 192 190
f 183 193 182
f 50 182 193
f 194 50 193
f 53 50 194
f 54 184 51
f 184 54 56
f 195 184 56
f 185 184 195
f 185 196 186
f 185 195 196
f 186 197 187
f 186 196 197
f 187 198 188
f 187 197 198
f 188 199 189
f 188 198 199
f 189 200 191
f 189 199 200
f 192 191 201
f 201 191 200
f 194 58 53
f 202 58 194
f 60 203 195
f 60 195 56
f 203 62 63
f 196 203 63
f 195 203 196
f 196 63 64
f 204 196 64
f 197 196 204
f 197 205 198
f 197 204 205
f 198 206 199
f 198 205 206
f 199 207 200
f 199 206 207
f 201 200 208
f 208 200 207
f 211 210 209
f 202 211 209
f 66 202 209
f 58 202 66
f 68 203 60
f 203 68 62
f 71 212 204
f 71 204 64
f 204 213 205
f 204 212 213
f 205 214 206
f 205 213 214
f 206 215 207
f 206 214 215
f 208 207 216
f 216 207 215
f 210 217 209
f 66 209 217
f 218 66 217
f 73 66 218
f 77 212 71
f 212 77 79
f 212 79 213
f 213 79 81
f 213 81 214
f 214 81 83
f 219 214 83
f 215 214 219
f 216 215 220
f 215 221 220
f 215 219 221
f 221 222 220
f 218 223 73
f 73 223 84
f 223 225 224
f 85 223 224
f 84 223 85
f 226 86 85
f 226 85 224
f 226 88 86
f 92 227 219
f 92 219 83
f 219 228 221
f 219 227 228
f 222 221 229
f 229 221 228
f 225 230 224
f 232 231 230
f 231 224 230
f 231 226 224
f 233 93 88
f 226 233 88
f 231 233 226
f 233 95 93
f 98 227 92
f 227 98 100
f 234 227 100
f 228 227 234
f 229 228 235
f 235 228 234
f 232 236 231
f 238 237 236
f 237 231 236
f 237 233 231
f 237 102 95
f 237 95 233
f 106 239 234
f 106 234 100
f 235 234 240
f 240 234 239
f 238 241 237
f 102 237 241
f 242 102 241
f 108 102 242
f 244 243 112
f 244 112 111
f 106 112 239
f 112 245 239
f 112 243 245
f 239 245 240
f 113 108 246
f 108 247 246
f 108 242 247
f 246 115 113
f 249 248 117
f 249 117 116
f 111 117 244
f 244 117 248
f 247 250 246
f 246 250 115
f 250 118 115
f 250 251 118
f 116 118 249
f 249 118 251
f 252 120 121
f 122 252 121
f 255 254 253
f 257 256 253
f 253 256 255
f 124 125 257
f 125 256 257
f 125 258 256
f 125 120 252
f 259 125 252
f 258 125 259
f 259 252 122
f 127 259 122
f 260 259 127
f 127 129 260
f 260 129 261
f 253 254 262
f 262 254 263
f 253 264 257
f 253 262 264
f 264 131 124
f 264 124 257
f 265 261 129
f 265 129 133
f 266 133 135
f 266 265 133
f 268 267 137
f 267 135 137
f 267 266 135
f 268 269 267
f 272 271 270
f 272 270 263
f 270 262 263
f 270 273 262
f 273 139 140
f 264 273 140
f 262 273 264
f 264 140 131
f 144 274 268
f 144 268 137
f 269 268 275
f 268 276 275
f 268 274 276
f 278 277 276
f 276 277 275
f 280 279 278
f 278 279 277
f 280 281 279
f 270 271 147
f 271 146 147
f 271 282 146
f 270 147 148
f 270 148 273
f 273 148 139
f 152 274 144
f 274 152 154
f 283 274 154
f 276 274 283
f 276 284 278
f 276 283 284
f 278 285 280
f 278 284 285
f 281 280 286
f 280 287 286
f 280 285 287
f 287 288 286
f 282 156 146
f 289 156 282
f 162 283 154
f 283 162 164
f 290 283 164
f 284 283 290
f 284 291 285
f 284 290 291
f 285 292 287
f 285 291 292
f 288 287 293
f 293 287 292
f 289 294 156
f 156 294 165
f 294 296 295
f 166 294 295
f 165 294 166
f 295 167 166
f 171 297 290
f 171 290 164
f 290 298 291
f 290 297 298
f 291 299 292
f 291 298 299
f 293 292 300
f 292 301 300
f 292 299 301
f 301 302 300
f 296 303 295
f 295 303 167
f 303 172 167
f 303 304 172
f 173 172 304
f 173 304 305
f 179 297 171
f 297 179 181
f 306 297 181
f 298 297 306
f 298 307 299
f 298 306 307
f 299 308 301
f 299 307 308
f 302 301 309
f 309 301 308
f 305 183 173
f 310 183 305
f 190 306 181
f 306 190 192
f 311 306 192
f 307 306 311
f 313 308 312
f 308 311 312
f 308 307 311
f 308 313 309
f 310 314 183
f 183 314 193
f 194 193 314
f 194 314 315
f 201 316 311
f 201 311 192
f 312 311 317
f 317 311 316
f 315 202 194
f 318 202 315
f 208 319 316
f 208 316 201
f 317 316 320
f 320 316 319
f 322 321 211
f 211 321 210
f 211 202 318
f 211 318 322
f 216 323 319
f 216 319 208
f 320 319 324
f 324 319 323
f 321 325 210
f 210 325 217
f 218 217 325
f 218 325 326
f 220 323 216
f 220 222 323
f 222 324 323
f 222 327 324
f 223 218 328
f 218 329 328
f 218 326 329
f 328 225 223
f 229 327 222
f 229 330 327
f 329 331 328
f 331 333 332
f 331 332 230
f 328 331 230
f 225 328 230
f 332 232 230
f 235 330 229
f 235 334 330
f 332 333 335
f 335 333 336
f 337 236 232
f 332 337 232
f 335 337 332
f 337 238 236
f 240 334 235
f 240 338 334
f 336 339 335
f 335 339 337
f 337 339 340
f 340 342 341
f 340 341 241
f 337 340 241
f 238 337 241
f 341 242 241
f 344 343 243
f 344 243 244
f 243 345 245
f 343 345 243
f 240 245 338
f 338 245 345
f 341 342 346
f 346 342 347
f 346 247 242
f 346 242 341
f 349 348 248
f 349 248 249
f 244 248 344
f 344 248 348
f 346 347 350
f 350 347 351
f 352 250 247
f 346 352 247
f 350 352 346
f 250 352 353
f 354 250 353
f 251 250 354
f 249 251 349
f 349 251 354
f 351 355 350
f 357 356 355
f 356 350 355
f 356 352 350
f 353 352 358
f 358 352 356
f 357 359 356
f 356 359 358
f 362 361 360
f 364 363 360
f 360 363 362
f 364 365 363
f 360 361 366
f 366 361 367
f 366 254 255
f 364 366 255
f 360 366 364
f 368 365 364
f 255 368 364
f 256 368 255
f 369 256 258
f 369 368 256
f 370 258 259
f 370 369 258
f 371 259 260
f 371 370 259
f 373 372 261
f 372 260 261
f 372 371 260
f 375 374 373
f 373 374 372
f 377 376 375
f 375 376 374
f 377 378 376
f 366 367 379
f 379 367 380
f 379 263 254
f 379 254 366
f 265 373 261
f 373 265 266
f 373 266 375
f 375 266 267
f 375 267 377
f 382 381 269
f 269 381 267
f 381 378 267
f 378 377 267
f 384 383 382
f 382 383 381
f 386 385 384
f 384 385 383
f 386 387 385
f 379 380 272
f 380 271 272
f 380 388 271
f 379 272 263
f 275 382 269
f 382 275 277
f 382 277 384
f 384 277 279
f 384 279 386
f 390 389 281
f 281 389 279
f 389 387 279
f 387 386 279
f 392 391 390
f 390 391 389
f 392 393 391
f 388 282 271
f 394 282 388
f 286 390 281
f 390 286 288
f 395 390 288
f 392 390 395
f 393 392 396
f 396 392 395
f 394 289 282
f 397 289 394
f 293 398 395
f 293 395 288
f 396 395 399
f 399 395 398
f 294 289 400
f 289 401 400
f 289 397 401
f 400 296 294
f 300 398 293
f 403 402 302
f 302 402 300
f 402 399 300
f 399 398 300
f 403 404 402
f 401 405 400
f 400 405 296
f 405 303 296
f 405 406 303
f 406 408 407
f 304 406 407
f 303 406 304
f 407 305 304
f 309 409 403
f 309 403 302
f 404 403 410
f 410 403 409
f 407 408 411
f 411 408 412
f 411 310 305
f 411 305 407
f 414 413 313
f 414 313 312
f 309 313 409
f 313 415 409
f 313 413 415
f 409 415 410
f 412 416 411
f 411 416 310
f 416 314 310
f 416 417 314
f 315 314 417
f 315 417 418
f 317 414 312
f 317 419 414
f 418 318 315
f 420 318 418
f 320 419 317
f 320 421 419
f 422 321 322
f 423 422 322
f 318 423 322
f 420 423 318
f 324 421 320
f 324 424 421
f 325 321 422
f 427 426 425
f 326 425 426
f 326 423 425
f 326 325 422
f 423 326 422
f 327 424 324
f 327 428 424
f 426 427 429
f 429 427 430
f 429 329 326
f 429 326 426
f 330 428 327
f 330 431 428
f 429 430 432
f 432 430 433
f 434 331 329
f 429 434 329
f 432 434 429
f 434 333 331
f 334 431 330
f 334 435 431
f 433 436 432
f 438 437 436
f 437 432 436
f 437 434 432
f 437 336 333
f 437 333 434
f 338 435 334
f 338 439 435
f 438 440 437
f 440 442 441
f 440 441 339
f 437 440 339
f 336 437 339
f 443 340 339
f 443 339 441
f 443 342 340
f 445 444 343
f 445 343 344
f 343 446 345
f 444 446 343
f 338 345 439
f 439 345 446
f 442 447 441
f 441 447 443
f 443 447 448
f 342 443 448
f 449 342 448
f 347 342 449
f 451 450 348
f 451 348 349
f 344 348 445
f 445 348 450
f 449 351 347
f 452 351 449
f 353 453 354
f 453 454 354
f 454 349 354
f 454 451 349
f 355 351 455
f 351 456 455
f 351 452 456
f 455 357 355
f 458 457 453
f 353 458 453
f 358 458 353
f 453 457 454
f 456 459 455
f 459 461 460
f 459 460 359
f 455 459 359
f 357 455 359
f 460 462 359
f 462 358 359
f 462 458 358
f 461 463 460
f 460 463 462
f 466 465 464
f 361 362 464
f 362 466 464
f 362 467 466
f 468 362 363
f 468 467 362
f 470 469 365
f 469 363 365
f 469 468 363
f 472 471 470
f 470 471 469
f 472 473 471
f 476 475 474
f 474 477 476
f 465 478 464
f 361 464 478
f 479 361 478
f 367 361 479
f 368 470 365
f 470 368 369
f 470 369 472
f 480 473 472
f 369 480 472
f 370 480 369
f 371 474 475
f 480 371 475
f 370 371 480
f 481 477 474
f 371 481 474
f 372 481 371
f 482 372 374
f 482 481 372
f 483 374 376
f 483 482 374
f 485 484 378
f 484 376 378
f 484 483 376
f 485 486 484
f 489 488 487
f 479 489 487
f 380 479 487
f 367 479 380
f 381 485 378
f 490 486 485
f 381 490 485
f 383 490 381
f 491 383 385
f 491 490 383
f 493 492 387
f 492 385 387
f 492 491 385
f 493 494 492
f 487 488 495
f 495 488 496
f 495 388 380
f 495 380 487
f 389 493 387
f 497 494 493
f 389 497 493
f 391 497 389
f 499 498 393
f 498 391 393
f 498 497 391
f 499 500 498
f 496 501 495
f 388 495 501
f 502 388 501
f 394 388 502
f 396 503 499
f 396 499 393
f 500 499 504
f 504 499 503
f 502 397 394
f 505 397 502
f 399 506 503
f 399 503 396
f 504 503 507
f 507 503 506
f 510 509 508
f 505 510 508
f 401 505 508
f 397 505 401
f 402 506 399
f 402 404 506
f 404 507 506
f 404 511 507
f 509 512 508
f 512 514 513
f 512 513 405
f 508 512 405
f 401 508 405
f 515 406 405
f 515 405 513
f 515 408 406
f 518 517 516
f 517 511 516
f 511 410 516
f 511 404 410
f 513 514 519
f 519 514 520
f 513 521 515
f 513 519 521
f 521 412 408
f 521 408 515
f 414 522 413
f 523 518 516
f 413 523 516
f 415 413 516
f 523 413 522
f 415 516 410
f 520 524 519
f 519 524 521
f 521 524 525
f 525 527 526
f 525 526 416
f 521 525 416
f 412 521 416
f 528 417 416
f 528 416 526
f 528 418 417
f 530 529 522
f 414 530 522
f 419 530 414
f 522 529 523
f 527 531 526
f 526 531 528
f 528 531 532
f 418 528 532
f 533 418 532
f 420 418 533
f 421 530 419
f 421 534 530
f 537 536 535
f 533 537 535
f 423 533 535
f 420 533 423
f 424 534 421
f 424 538 534
f 541 540 539
f 541 539 536
f 536 539 535
f 539 427 535
f 427 425 535
f 535 425 423
f 428 538 424
f 428 542 538
f 539 540 543
f 543 540 544
f 543 430 427
f 543 427 539
f 431 542 428
f 431 545 542
f 543 544 546
f 546 544 547
f 546 433 430
f 546 430 543
f 435 545 431
f 435 548 545
f 547 549 546
f 549 551 550
f 549 550 436
f 546 549 436
f 433 546 436
f 550 438 436
f 439 548 435
f 439 552 548
f 551 553 550
f 553 555 554
f 553 554 440
f 550 553 440
f 438 550 440
f 554 442 440
f 445 556 444
f 444 556 557
f 558 444 557
f 446 444 558
f 439 446 552
f 552 446 558
f 555 559 554
f 554 559 442
f 559 447 442
f 559 560 447
f 560 562 561
f 448 560 561
f 447 560 448
f 561 449 448
f 451 563 450
f 563 564 450
f 450 564 445
f 564 565 445
f 565 556 445
f 556 565 557
f 568 567 566
f 568 566 562
f 566 561 562
f 566 569 561
f 569 452 449
f 569 449 561
f 571 570 563
f 451 571 563
f 454 571 451
f 563 570 564
f 567 572 566
f 574 573 572
f 573 566 572
f 573 569 566
f 573 456 452
f 573 452 569
f 458 575 457
f 575 576 457
f 576 454 457
f 576 571 454
f 573 574 577
f 577 574 578
f 579 459 456
f 573 579 456
f 577 579 573
f 579 461 459
f 581 580 575
f 458 581 575
f 462 581 458
f 575 580 576
f 578 582 577
f 584 583 582
f 583 577 582
f 583 579 577
f 585 463 461
f 579 585 461
f 583 585 579
f 585 586 463
f 586 462 463
f 586 581 462
f 584 587 583
f 583 587 585
f 585 587 588
f 585 588 586
f 591 590 589
f 593 592 589
f 589 592 591
f 593 594 592
f 590 595 589
f 596 465 466
f 589 596 466
f 593 589 466
f 595 596 589
f 597 594 593
f 466 597 593
f 467 597 466
f 598 467 468
f 598 597 467
f 599 468 469
f 599 598 468
f 600 469 471
f 600 599 469
f 602 601 473
f 601 471 473
f 601 600 471
f 475 476 602
f 476 601 602
f 476 603 601
f 476 477 603
f 603 477 604
f 478 465 605
f 465 606 605
f 465 596 606
f 605 479 478
f 480 602 473
f 602 480 475
f 607 604 477
f 607 477 481
f 608 481 482
f 608 607 481
f 609 482 483
f 609 608 482
f 610 483 484
f 610 609 483
f 612 611 486
f 611 484 486
f 611 610 484
f 614 613 612
f 612 613 611
f 614 615 613
f 605 606 489
f 606 488 489
f 606 616 488
f 605 489 479
f 490 612 486
f 612 490 491
f 612 491 614
f 617 615 614
f 491 617 614
f 492 617 491
f 492 494 617
f 617 494 618
f 616 496 488
f 619 496 616
f 620 618 494
f 620 494 497
f 621 497 498
f 621 620 497
f 498 500 621
f 621 500 622
f 501 496 623
f 496 624 623
f 496 619 624
f 623 502 501
f 504 622 500
f 504 625 622
f 623 624 626
f 626 624 627
f 626 505 502
f 626 502 623
f 507 625 504
f 507 628 625
f 631 630 629
f 631 629 627
f 627 629 626
f 629 509 626
f 509 510 626
f 626 510 505
f 634 633 632
f 633 628 632
f 628 511 632
f 628 507 511
f 630 635 629
f 635 637 636
f 635 636 512
f 629 635 512
f 509 629 512
f 636 514 512
f 634 632 517
f 518 634 517
f 638 634 518
f 517 632 511
f 636 637 639
f 639 637 640
f 639 520 514
f 639 514 636
f 523 638 518
f 523 641 638
f 639 640 642
f 642 640 643
f 644 524 520
f 639 644 520
f 642 644 639
f 645 525 524
f 645 524 644
f 645 527 525
f 530 646 529
f 646 647 529
f 647 523 529
f 647 641 523
f 642 643 648
f 648 643 649
f 651 644 650
f 644 648 650
f 644 642 648
f 653 652 651
f 652 644 651
f 652 645 644
f 654 531 527
f 645 654 527
f 652 654 645
f 655 532 531
f 655 531 654
f 655 533 532
f 658 657 656
f 657 659 646
f 534 657 646
f 530 534 646
f 656 657 534
f 646 659 647
f 649 660 648
f 648 660 650
f 652 653 661
f 661 653 662
f 652 663 654
f 652 661 663
f 663 536 537
f 655 663 537
f 654 663 655
f 655 537 533
f 664 658 656
f 656 534 664
f 534 665 664
f 534 538 665
f 661 662 666
f 666 662 667
f 666 540 541
f 663 666 541
f 661 666 663
f 663 541 536
f 542 665 538
f 542 668 665
f 667 669 666
f 540 666 669
f 670 540 669
f 544 540 670
f 545 668 542
f 545 671 668
f 673 547 672
f 547 670 672
f 547 544 670
f 674 673 672
f 548 671 545
f 548 675 671
f 549 547 673
f 678 677 676
f 551 676 677
f 551 674 676
f 551 549 673
f 674 551 673
f 552 675 548
f 552 679 675
f 678 680 677
f 680 682 681
f 680 681 553
f 677 680 553
f 551 677 553
f 681 555 553
f 684 683 558
f 684 558 557
f 552 558 679
f 679 558 683
f 682 685 681
f 681 685 555
f 685 559 555
f 685 686 559
f 686 688 687
f 560 686 687
f 559 686 560
f 687 562 560
f 564 689 565
f 689 690 565
f 690 557 565
f 690 684 557
f 687 688 568
f 688 567 568
f 688 691 567
f 687 568 562
f 571 692 570
f 692 693 570
f 570 693 564
f 693 694 564
f 694 689 564
f 689 694 690
f 691 695 567
f 567 695 572
f 574 572 695
f 574 695 696
f 698 697 692
f 571 698 692
f 576 698 571
f 692 697 693
f 701 700 699
f 696 701 699
f 578 696 699
f 574 696 578
f 581 702 580
f 702 703 580
f 703 576 580
f 703 698 576
f 700 704 699
f 704 706 705
f 704 705 582
f 699 704 582
f 578 699 582
f 705 584 582
f 586 707 702
f 586 702 581
f 703 702 708
f 708 702 707
f 706 709 705
f 709 711 710
f 709 710 587
f 705 709 587
f 584 705 587
f 712 588 587
f 712 587 710
f 707 586 588
f 712 707 588
f 713 707 712
f 708 707 714
f 714 707 713
f 711 715 710
f 710 715 712
f 712 715 716
f 712 716 713
f 713 716 717
f 713 717 714
f 719 718 591
f 591 718 590
f 720 591 592
f 720 719 591
f 722 721 594
f 721 592 594
f 721 720 592
f 722 723 721
f 595 590 724
f 590 725 724
f 590 718 725
f 724 596 595
f 597 722 594
f 726 723 722
f 597 726 722
f 598 726 597
f 727 598 599
f 727 726 598
f 728 599 600
f 728 727 599
f 729 600 601
f 729 728 600
f 730 601 603
f 730 729 601
f 603 604 730
f 730 604 731
f 725 732 724
f 596 724 732
f 733 596 732
f 606 596 733
f 734 731 604
f 734 604 607
f 735 607 608
f 735 734 607
f 736 608 609
f 736 735 608
f 737 609 610
f 737 736 609
f 738 610 611
f 738 737 610
f 739 611 613
f 739 738 611
f 613 615 739
f 739 615 740
f 733 616 606
f 741 616 733
f 742 740 615
f 742 615 617
f 617 618 742
f 742 618 743
f 746 745 744
f 741 746 744
f 619 741 744
f 616 741 619
f 747 743 618
f 747 618 620
f 749 747 748
f 747 621 748
f 747 620 621
f 622 748 621
f 752 751 750
f 752 750 745
f 750 744 745
f 750 753 744
f 753 624 619
f 753 619 744
f 754 749 748
f 748 622 754
f 622 755 754
f 622 625 755
f 750 751 756
f 756 751 757
f 750 758 753
f 750 756 758
f 758 627 624
f 758 624 753
f 761 760 759
f 760 755 759
f 755 628 759
f 755 625 628
f 757 762 756
f 763 630 631
f 756 763 631
f 758 756 631
f 762 763 756
f 758 631 627
f 761 759 633
f 634 761 633
f 764 761 634
f 633 759 628
f 763 765 630
f 630 765 635
f 637 635 765
f 637 765 766
f 638 764 634
f 638 767 764
f 766 640 637
f 768 640 766
f 771 770 769
f 772 769 770
f 641 767 638
f 641 773 767
f 776 775 774
f 768 776 774
f 643 768 774
f 640 768 643
f 771 769 777
f 771 777 778
f 769 772 779
f 780 769 779
f 777 769 780
f 782 781 780
f 782 780 779
f 784 783 781
f 784 781 782
f 784 773 783
f 773 647 783
f 773 641 647
f 775 785 774
f 643 774 785
f 786 643 785
f 649 643 786
f 650 787 651
f 787 653 651
f 788 778 777
f 790 789 788
f 777 790 788
f 780 790 777
f 658 790 657
f 790 781 657
f 790 780 781
f 657 781 659
f 659 781 783
f 659 783 647
f 786 791 649
f 649 791 660
f 660 791 650
f 791 792 650
f 792 787 650
f 792 791 793
f 792 662 653
f 792 653 787
f 794 789 790
f 796 794 795
f 795 794 664
f 794 790 664
f 790 658 664
f 665 795 664
f 792 793 797
f 797 793 798
f 797 667 662
f 797 662 792
f 801 800 799
f 799 800 796
f 795 799 796
f 802 799 795
f 668 802 665
f 665 802 795
f 797 798 803
f 803 798 804
f 805 669 667
f 797 805 667
f 803 805 797
f 805 670 669
f 801 799 806
f 801 806 807
f 808 799 802
f 806 799 808
f 671 808 668
f 668 808 802
f 804 809 803
f 803 809 805
f 805 809 810
f 805 810 670
f 810 672 670
f 810 811 672
f 813 812 674
f 672 813 674
f 811 813 672
f 814 812 813
f 815 807 806
f 817 816 815
f 806 817 815
f 808 817 806
f 675 817 671
f 671 817 808
f 819 818 676
f 676 818 678
f 676 674 812
f 820 676 812
f 819 676 820
f 820 812 814
f 816 817 821
f 816 821 822
f 679 821 675
f 675 821 817
f 680 678 823
f 678 824 823
f 678 818 824
f 823 682 680
f 822 821 683
f 684 822 683
f 825 822 684
f 683 821 679
f 824 826 823
f 826 828 827
f 826 827 685
f 823 826 685
f 682 823 685
f 829 686 685
f 829 685 827
f 829 688 686
f 690 825 684
f 690 830 825
f 827 828 831
f 831 828 832
f 827 833 829
f 827 831 833
f 833 691 688
f 833 688 829
f 693 834 694
f 834 835 694
f 835 690 694
f 835 830 690
f 831 832 836
f 836 832 837
f 831 838 833
f 831 836 838
f 839 695 691
f 833 839 691
f 838 839 833
f 839 696 695
f 841 840 697
f 841 697 698
f 693 697 834
f 697 842 834
f 697 840 842
f 834 842 835
f 837 843 836
f 845 844 843
f 844 836 843
f 844 838 836
f 844 700 701
f 839 844 701
f 838 844 839
f 839 701 696
f 703 841 698
f 703 846 841
f 844 845 847
f 847 845 848
f 849 704 700
f 844 849 700
f 847 849 844
f 849 706 704
f 708 846 703
f 708 850 846
f 848 851 847
f 853 852 851
f 852 847 851
f 852 849 847
f 854 709 706
f 849 854 706
f 852 854 849
f 854 711 709
f 714 850 708
f 714 855 850
f 853 856 852
f 852 856 854
f 854 856 857
f 854 857 711
f 857 715 711
f 857 858 715
f 715 859 716
f 858 859 715
f 716 860 717
f 859 860 716
f 714 717 855
f 855 717 860
f 863 862 861
f 865 864 861
f 861 864 863
f 865 866 864
f 869 868 867
f 869 867 862
f 862 867 861
f 867 718 861
f 718 719 861
f 861 719 720
f 861 720 865
f 720 721 865
f 721 870 865
f 870 866 865
f 721 871 870
f 723 871 721
f 868 872 867
f 718 867 872
f 873 718 872
f 725 718 873
f 874 870 871
f 874 871 723
f 726 874 723
f 875 874 726
f 876 726 727
f 876 875 726
f 877 727 728
f 877 876 727
f 879 877 878
f 877 729 878
f 877 728 729
f 878 729 880
f 729 881 880
f 729 730 881
f 883 882 731
f 882 730 731
f 882 881 730
f 885 884 883
f 883 884 882
f 885 886 884
f 873 887 725
f 725 887 732
f 733 732 887
f 733 887 888
f 879 878 889
f 879 889 890
f 878 880 891
f 892 878 891
f 889 878 892
f 731 734 883
f 892 891 893
f 883 734 735
f 883 735 885
f 894 886 885
f 735 894 885
f 736 894 735
f 895 736 737
f 895 894 736
f 896 737 738
f 896 895 737
f 898 896 897
f 896 739 897
f 896 738 739
f 740 897 739
f 888 741 733
f 899 741 888
f 900 890 889
f 902 901 900
f 889 902 900
f 892 902 889
f 892 893 903
f 904 892 903
f 902 892 904
f 906 905 904
f 906 904 903
f 908 907 905
f 908 905 906
f 910 909 907
f 910 907 908
f 911 909 910
f 912 898 897
f 912 897 740
f 742 912 740
f 913 912 742
f 742 743 913
f 913 743 914
f 917 916 915
f 745 746 915
f 746 917 915
f 746 918 917
f 746 741 899
f 746 899 918
f 919 901 902
f 919 902 904
f 919 904 920
f 922 921 920
f 904 922 920
f 905 922 904
f 923 905 907
f 922 905 923
f 909 925 924
f 923 909 924
f 907 909 923
f 925 909 911
f 928 927 926
f 929 926 747
f 926 914 747
f 914 743 747
f 914 926 927
f 749 929 747
f 915 916 752
f 916 751 752
f 916 930 751
f 915 752 745
f 931 921 922
f 931 922 923
f 931 923 932
f 935 934 933
f 924 932 923
f 937 936 934
f 937 934 935
f 938 936 937
f 939 928 926
f 939 926 929
f 939 929 940
f 942 940 941
f 941 940 754
f 940 929 754
f 929 749 754
f 755 941 754
f 930 757 751
f 943 757 930
f 944 933 934
f 946 945 944
f 934 946 944
f 936 946 934
f 936 938 947
f 936 947 946
f 942 941 760
f 761 942 760
f 948 942 761
f 760 941 755
f 951 950 949
f 949 952 762
f 943 949 762
f 757 943 762
f 949 943 951
f 952 763 762
f 955 954 953
f 957 956 953
f 957 953 954
f 956 957 945
f 946 956 945
f 958 956 946
f 946 947 959
f 960 946 959
f 958 946 960
f 961 960 959
f 764 948 761
f 764 962 948
f 950 963 949
f 965 964 963
f 964 949 963
f 964 952 949
f 966 765 763
f 952 966 763
f 964 966 952
f 966 766 765
f 955 953 967
f 955 967 968
f 969 953 956
f 967 953 969
f 970 956 958
f 969 956 970
f 971 958 960
f 970 958 971
f 960 961 972
f 960 972 971
f 767 962 764
f 767 973 962
f 964 965 974
f 974 965 975
f 964 976 966
f 964 974 976
f 976 768 766
f 976 766 966
f 968 967 977
f 968 977 978
f 979 967 969
f 977 967 979
f 771 979 770
f 979 970 770
f 979 969 970
f 770 970 772
f 970 980 772
f 970 971 980
f 971 972 981
f 982 971 981
f 980 971 982
f 983 982 981
f 773 973 767
f 773 984 973
f 975 985 974
f 986 775 776
f 974 986 776
f 976 974 776
f 985 986 974
f 976 776 768
f 978 977 987
f 978 987 988
f 989 977 979
f 987 977 989
f 778 989 771
f 771 989 979
f 980 779 772
f 779 980 782
f 782 980 982
f 983 990 982
f 990 782 982
f 990 784 782
f 773 784 984
f 984 784 990
f 986 991 775
f 775 991 785
f 786 785 991
f 786 991 992
f 993 988 987
f 993 987 989
f 993 989 994
f 996 994 995
f 995 994 788
f 994 989 788
f 989 778 788
f 789 995 788
f 992 997 786
f 786 997 791
f 793 791 997
f 793 997 998
f 999 996 995
f 1001 999 1000
f 1000 999 794
f 999 995 794
f 995 789 794
f 796 1000 794
f 1003 798 1002
f 798 998 1002
f 798 793 998
f 1004 1003 1002
f 1007 1006 1005
f 1005 1006 1001
f 1005 1001 1000
f 801 1005 1000
f 800 801 1000
f 800 1000 796
f 1008 804 1003
f 1003 804 798
f 1003 1004 1009
f 1010 1003 1009
f 1008 1003 1010
f 1012 1011 1010
f 1012 1010 1009
f 1014 1013 1011
f 1014 1011 1012
f 1016 1015 1013
f 1016 1013 1014
f 1017 1015 1016
f 1007 1005 1018
f 1007 1018 1019
f 807 1018 801
f 801 1018 1005
f 1008 809 804
f 809 1008 810
f 810 1008 1010
f 810 1010 811
f 811 1010 1011
f 811 1011 813
f 813 1011 1013
f 1013 1015 1020
f 814 1013 1020
f 1021 814 1020
f 1013 814 813
f 1020 1015 1017
f 1019 1018 1022
f 1019 1022 1023
f 1022 1018 807
f 1024 1022 807
f 815 1024 807
f 1025 1022 1024
f 815 816 1024
f 1024 816 1026
f 1027 818 819
f 820 1028 819
f 819 1028 1027
f 814 1021 1029
f 1028 814 1029
f 1030 1028 1029
f 820 814 1028
f 1032 1031 1030
f 1032 1030 1029
f 1033 1031 1032
f 1034 1023 1022
f 1034 1022 1025
f 822 1026 816
f 822 1035 1026
f 1036 824 1027
f 1027 824 818
f 1028 1038 1037
f 1036 1028 1037
f 1027 1028 1036
f 1038 1028 1030
f 1038 1030 1039
f 1039 1030 1031
f 1039 1031 1040
f 1040 1031 1033
f 825 1035 822
f 825 1041 1035
f 1036 826 824
f 1043 1042 828
f 1043 828 826
f 1037 1043 826
f 1036 1037 826
f 1045 1044 1042
f 1045 1042 1043
f 1046 1044 1045
f 830 1041 825
f 830 1047 1041
f 1048 832 1042
f 1042 832 828
f 1044 1050 1049
f 1048 1044 1049
f 1042 1044 1048
f 1050 1044 1046
f 835 1047 830
f 835 1051 1047
f 1053 1052 1048
f 1052 832 1048
f 1052 837 832
f 1053 1048 1049
f 1055 1054 840
f 1055 840 841
f 840 1056 842
f 1054 1056 840
f 835 842 1051
f 1051 842 1056
f 1052 1057 837
f 837 1057 843
f 1059 1058 845
f 843 1059 845
f 1057 1059 843
f 1061 1060 1058
f 1061 1058 1059
f 1062 1060 1061
f 846 1055 841
f 846 1063 1055
f 1065 1064 1058
f 1064 845 1058
f 1064 848 845
f 1065 1058 1060
f 1065 1060 1066
f 1066 1060 1062
f 1069 1068 1067
f 1068 1063 1067
f 1063 850 1067
f 1063 846 850
f 1064 1070 848
f 848 1070 851
f 853 851 1070
f 853 1070 1071
f 1069 1067 1072
f 1069 1072 1073
f 855 1072 850
f 850 1072 1067
f 1071 1074 853
f 853 1074 856
f 1074 1076 1075
f 857 1074 1075
f 856 1074 857
f 1077 858 857
f 1077 857 1075
f 1078 859 858
f 1078 858 1077
f 1079 1073 1072
f 859 1079 1072
f 860 859 1072
f 1079 859 1078
f 860 1072 855
f 1076 1080 1075
f 1075 1080 1077
f 1077 1080 1081
f 1077 1081 1078
f 1078 1081 1082
f 1078 1082 1079
f 1083 862 863
f 864 1084 863
f 863 1084 1083
f 866 1084 864
f 1085 868 869
f 862 1083 869
f 1083 1085 869
f 1083 1086 1085
f 1087 1083 1084
f 1086 1083 1087
f 870 1087 866
f 866 1087 1084
f 1085 872 868
f 872 1085 873
f 1085 1088 873
f 1085 1086 1088
f 1089 1086 1087
f 1088 1086 1089
f 874 1090 870
f 1090 1087 870
f 1090 1089 1087
f 875 1091 874
f 874 1091 1090
f 876 1092 875
f 875 1092 1091
f 877 1093 876
f 876 1093 1092
f 879 1093 877
f 1094 880 881
f 882 1095 881
f 881 1095 1094
f 884 1096 882
f 882 1096 1095
f 886 1096 884
f 1088 887 873
f 1088 1089 1097
f 888 1088 1097
f 1098 888 1097
f 1088 888 887
f 1100 1099 1097
f 1089 1100 1097
f 1090 1100 1089
f 1101 1090 1091
f 1100 1090 1101
f 1102 1091 1092
f 1101 1091 1102
f 1103 1092 1093
f 1102 1092 1103
f 890 1103 879
f 879 1103 1093
f 1094 891 880
f 891 1094 893
f 1094 1104 893
f 1094 1095 1104
f 1105 1095 1096
f 1104 1095 1105
f 894 1106 886
f 1106 1096 886
f 1106 1105 1096
f 895 1107 894
f 894 1107 1106
f 896 1108 895
f 895 1108 1107
f 898 1108 896
f 1111 1110 1109
f 1098 1111 1109
f 899 1098 1109
f 888 1098 899
f 1112 1099 1100
f 1114 1113 1112
f 1100 1114 1112
f 1101 1114 1100
f 1115 1101 1102
f 1114 1101 1115
f 1116 1102 1103
f 1115 1102 1116
f 900 1117 890
f 1117 1103 890
f 1117 1116 1103
f 901 1117 900
f 1104 903 893
f 903 1104 906
f 906 1104 1105
f 906 1105 908
f 908 1105 1106
f 908 1106 910
f 910 1106 1107
f 910 1107 911
f 1107 1118 911
f 1107 1108 1118
f 912 1119 898
f 1119 1108 898
f 1119 1118 1108
f 913 1120 912
f 912 1120 1119
f 914 1120 913
f 1122 1121 917
f 917 1121 916
f 918 1109 1110
f 1122 918 1110
f 917 918 1122
f 1109 918 899
f 1113 1114 1123
f 1113 1123 1124
f 1125 1114 1115
f 1123 1114 1125
f 1126 1115 1116
f 1125 1115 1126
f 1127 1116 1117
f 1126 1116 1127
f 919 1128 901
f 1128 1117 901
f 1128 1127 1117
f 920 1129 919
f 919 1129 1128
f 921 1129 920
f 1130 924 925
f 911 1118 925
f 1118 1130 925
f 1118 1131 1130
f 1132 1118 1119
f 1131 1118 1132
f 928 1132 927
f 1132 1120 927
f 1132 1119 1120
f 927 1120 914
f 1135 1134 1133
f 1121 1135 1133
f 930 1121 1133
f 916 1121 930
f 1136 1124 1123
f 1136 1123 1125
f 1136 1125 1137
f 1137 1125 1126
f 1137 1126 1138
f 1140 1139 1138
f 1126 1140 1138
f 1127 1140 1126
f 1141 1127 1128
f 1140 1127 1141
f 1129 1143 1142
f 1141 1129 1142
f 1128 1129 1141
f 1143 1129 921
f 931 1143 921
f 1144 1143 931
f 1145 931 932
f 1145 1144 931
f 932 924 1145
f 1130 1145 924
f 1145 1130 1146
f 935 1146 1130
f 1146 935 933
f 935 1130 937
f 937 1130 1131
f 937 1131 938
f 1131 1147 938
f 1131 1132 1147
f 1147 1132 928
f 1148 1147 928
f 939 1148 928
f 1149 1147 1148
f 1150 939 940
f 1150 1148 939
f 940 942 1150
f 1150 942 1151
f 1133 1134 1152
f 1152 1134 1153
f 1152 943 930
f 1152 930 1133
f 1154 1139 1140
f 1156 1155 1154
f 1140 1156 1154
f 1141 1156 1140
f 1141 1142 1157
f 1158 1141 1157
f 1156 1141 1158
f 1160 1159 1158
f 1160 1158 1157
f 1161 1159 1160
f 1162 1146 933
f 1162 933 944
f 1164 1163 945
f 1163 944 945
f 1163 1162 944
f 1164 1165 1163
f 1147 947 938
f 947 1147 1166
f 1147 1149 1167
f 1147 1167 1166
f 1170 1169 1168
f 1169 1151 1168
f 1151 948 1168
f 1151 942 948
f 1173 1172 1171
f 1173 1171 1153
f 1153 1171 1152
f 1171 950 1152
f 950 951 1152
f 1152 951 943
f 1174 1155 1156
f 1174 1156 1158
f 1174 1158 1175
f 1175 1158 1159
f 1175 1159 1176
f 1177 1176 955
f 1159 955 1176
f 955 1159 954
f 1161 954 1159
f 954 1161 1178
f 954 1179 957
f 1178 1179 954
f 945 957 1164
f 957 1180 1164
f 957 1179 1180
f 1180 1165 1164
f 1166 1181 947
f 1182 947 1181
f 947 1182 959
f 1183 959 1182
f 961 959 1183
f 1181 1166 1184
f 1185 1184 1166
f 1167 1185 1166
f 1185 1167 1186
f 1185 1186 1170
f 1168 1185 1170
f 1187 1185 1168
f 962 1187 948
f 948 1187 1168
f 1172 1188 1171
f 1188 1190 1189
f 1188 1189 963
f 1171 1188 963
f 950 1171 963
f 1189 965 963
f 1193 1192 1191
f 1195 1194 1191
f 1195 1191 1192
f 1195 1177 1194
f 1177 968 1194
f 1177 955 968
f 1183 1182 1196
f 1196 1182 1197
f 1198 1184 1185
f 972 961 1196
f 1183 1196 961
f 1200 1199 1198
f 1185 1200 1198
f 1187 1200 1185
f 973 1200 962
f 962 1200 1187
f 1189 1190 1201
f 1201 1190 1202
f 1201 975 965
f 1201 965 1189
f 1193 1191 1203
f 1193 1203 1204
f 1205 1191 1194
f 1203 1191 1205
f 978 1205 968
f 968 1205 1194
f 1197 1206 1196
f 1196 1206 972
f 1206 981 972
f 1206 1207 981
f 1200 1208 983
f 1207 1200 983
f 981 1207 983
f 1199 1200 1207
f 984 1208 973
f 973 1208 1200
f 1202 1209 1201
f 1201 1209 975
f 1209 985 975
f 1209 1210 985
f 986 985 1210
f 986 1210 1211
f 1212 1204 1203
f 1214 1213 1212
f 1203 1214 1212
f 1205 1214 1203
f 988 1214 978
f 978 1214 1205
f 1208 990 983
f 990 1208 984
f 1211 1215 986
f 986 1215 991
f 992 991 1215
f 992 1215 1216
f 1217 1213 1214
f 1217 1214 988
f 993 1217 988
f 1218 1217 993
f 1219 993 994
f 1219 1218 993
f 994 996 1219
f 1219 996 1220
f 1216 1221 992
f 992 1221 997
f 1223 1222 998
f 997 1223 998
f 1221 1223 997
f 1224 1222 1223
f 1225 1220 996
f 1225 996 999
f 999 1001 1225
f 1225 1001 1226
f 1222 1002 998
f 1004 1002 1222
f 1224 1004 1222
f 1227 1004 1224
f 1229 1228 1006
f 1229 1006 1007
f 1001 1006 1226
f 1226 1006 1228
f 1227 1230 1004
f 1004 1230 1009
f 1009 1231 1012
f 1230 1231 1009
f 1012 1232 1014
f 1231 1232 1012
f 1014 1233 1016
f 1232 1233 1014
f 1235 1234 1017
f 1016 1235 1017
f 1233 1235 1016
f 1237 1236 1234
f 1237 1234 1235
f 1238 1236 1237
f 1241 1240 1239
f 1243 1242 1239
f 1243 1239 1240
f 1243 1229 1242
f 1229 1019 1242
f 1229 1007 1019
f 1244 1021 1020
f 1017 1234 1020
f 1234 1244 1020
f 1234 1245 1244
f 1246 1234 1236
f 1245 1234 1246
f 1236 1238 1247
f 1248 1236 1247
f 1246 1236 1248
f 1241 1239 1249
f 1247 1250 1248
f 1249 1239 1242
f 1249 1242 1251
f 1242 1019 1251
f 1019 1252 1251
f 1019 1023 1252
f 1253 1025 1024
f 1026 1253 1024
f 1244 1029 1021
f 1029 1244 1032
f 1032 1244 1245
f 1245 1246 1254
f 1033 1245 1254
f 1255 1033 1254
f 1245 1033 1032
f 1254 1246 1248
f 1254 1248 1256
f 1256 1248 1250
f 1259 1258 1257
f 1260 1257 1034
f 1257 1252 1034
f 1252 1023 1034
f 1252 1257 1258
f 1025 1253 1034
f 1253 1260 1034
f 1253 1261 1260
f 1035 1261 1026
f 1026 1261 1253
f 1262 1037 1038
f 1039 1263 1038
f 1038 1263 1262
f 1040 1264 1039
f 1039 1264 1263
f 1265 1264 1040
f 1033 1265 1040
f 1255 1265 1033
f 1259 1257 1266
f 1259 1266 1267
f 1268 1257 1260
f 1266 1257 1268
f 1269 1260 1261
f 1268 1260 1269
f 1041 1269 1035
f 1035 1269 1261
f 1262 1043 1037
f 1043 1262 1045
f 1045 1262 1263
f 1045 1263 1046
f 1263 1270 1046
f 1263 1264 1270
f 1264 1265 1271
f 1264 1271 1270
f 1272 1267 1266
f 1274 1273 1272
f 1266 1274 1272
f 1268 1274 1266
f 1275 1268 1269
f 1274 1268 1275
f 1047 1275 1041
f 1041 1275 1269
f 1276 1049 1050
f 1046 1270 1050
f 1270 1276 1050
f 1270 1277 1276
f 1270 1271 1278
f 1279 1270 1278
f 1277 1270 1279
f 1280 1279 1278
f 1283 1282 1281
f 1285 1284 1281
f 1285 1281 1282
f 1284 1285 1273
f 1274 1284 1273
f 1286 1284 1274
f 1287 1274 1275
f 1286 1274 1287
f 1051 1287 1047
f 1047 1287 1275
f 1288 1052 1053
f 1049 1276 1053
f 1276 1288 1053
f 1276 1289 1288
f 1290 1276 1277
f 1289 1276 1290
f 1291 1277 1279
f 1290 1277 1291
f 1279 1280 1292
f 1293 1279 1292
f 1291 1279 1293
f 1293 1292 1283
f 1281 1293 1283
f 1294 1293 1281
f 1295 1281 1284
f 1294 1281 1295
f 1055 1295 1054
f 1295 1286 1054
f 1295 1284 1286
f 1054 1286 1056
f 1056 1286 1287
f 1056 1287 1051
f 1288 1057 1052
f 1057 1288 1059
f 1059 1288 1289
f 1059 1289 1061
f 1061 1289 1290
f 1061 1290 1062
f 1290 1296 1062
f 1290 1291 1296
f 1297 1291 1293
f 1296 1291 1297
f 1298 1293 1294
f 1297 1293 1298
f 1299 1294 1295
f 1298 1294 1299
f 1063 1299 1055
f 1055 1299 1295
f 1300 1064 1065
f 1066 1301 1065
f 1065 1301 1300
f 1062 1296 1066
f 1296 1301 1066
f 1296 1302 1301
f 1303 1296 1297
f 1302 1296 1303
f 1304 1297 1298
f 1303 1297 1304
f 1069 1304 1068
f 1304 1299 1068
f 1304 1298 1299
f 1068 1299 1063
f 1300 1070 1064
f 1070 1300 1071
f 1300 1305 1071
f 1300 1301 1305
f 1306 1301 1302
f 1305 1301 1306
f 1307 1302 1303
f 1306 1302 1307
f 1308 1303 1304
f 1307 1303 1308
f 1073 1308 1069
f 1069 1308 1304
f 1305 1074 1071
f 1305 1306 1309
f 1076 1305 1309
f 1310 1076 1309
f 1305 1076 1074
f 1309 1306 1307
f 1309 1307 1311
f 1311 1307 1308
f 1311 1308 1312
f 1308 1073 1312
f 1073 1313 1312
f 1073 1079 1313
f 1310 1314 1076
f 1076 1314 1080
f 1080 1315 1081
f 1314 1315 1080
f 1081 1316 1082
f 1315 1316 1081
f 1079 1082 1313
f 1313 1082 1316
f 1317 1098 1097
f 1099 1317 1097
f 1318 1110 1111
f 1098 1317 1111
f 1317 1318 1111
f 1317 1319 1318
f 1112 1320 1099
f 1320 1317 1099
f 1320 1319 1317
f 1113 1320 1112
f 1322 1321 1122
f 1122 1321 1121
f 1122 1110 1318
f 1323 1122 1318
f 1322 1122 1323
f 1325 1324 1323
f 1318 1325 1323
f 1319 1325 1318
f 1326 1319 1320
f 1325 1319 1326
f 1124 1326 1113
f 1113 1326 1320
f 1328 1327 1135
f 1135 1327 1134
f 1135 1121 1321
f 1135 1321 1328
f 1324 1325 1329
f 1324 1329 1330
f 1331 1325 1326
f 1329 1325 1331
f 1136 1332 1124
f 1332 1326 1124
f 1332 1331 1326
f 1137 1333 1136
f 1136 1333 1332
f 1138 1334 1137
f 1137 1334 1333
f 1139 1334 1138
f 1335 1142 1143
f 1144 1336 1143
f 1143 1336 1335
f 1145 1337 1144
f 1144 1337 1336
f 1146 1337 1145
f 1338 1149 1148
f 1150 1339 1148
f 1148 1339 1338
f 1151 1339 1150
f 1327 1153 1134
f 1340 1153 1327
f 1330 1329 1341
f 1330 1341 1342
f 1343 1329 1331
f 1341 1329 1343
f 1344 1331 1332
f 1343 1331 1344
f 1345 1332 1333
f 1344 1332 1345
f 1346 1333 1334
f 1345 1333 1346
f 1154 1347 1139
f 1347 1334 1139
f 1347 1346 1334
f 1155 1347 1154
f 1335 1157 1142
f 1157 1335 1160
f 1160 1335 1336
f 1160 1336 1161
f 1336 1348 1161
f 1336 1337 1348
f 1162 1349 1146
f 1349 1337 1146
f 1349 1348 1337
f 1163 1350 1162
f 1162 1350 1349
f 1165 1350 1163
f 1351 1167 1338
f 1338 1167 1149
f 1170 1351 1169
f 1351 1339 1169
f 1351 1338 1339
f 1169 1339 1151
f 1353 1352 1173
f 1173 1352 1172
f 1173 1153 1340
f 1173 1340 1353
f 1356 1355 1354
f 1354 1355 1342
f 1341 1354 1342
f 1357 1354 1341
f 1358 1341 1343
f 1357 1341 1358
f 1359 1343 1344
f 1358 1343 1359
f 1360 1344 1345
f 1359 1344 1360
f 1361 1345 1346
f 1360 1345 1361
f 1362 1346 1347
f 1361 1346 1362
f 1174 1363 1155
f 1363 1347 1155
f 1363 1362 1347
f 1175 1364 1174
f 1174 1364 1363
f 1176 1365 1175
f 1175 1365 1364
f 1161 1348 1178
f 1365 1176 1177
f 1178 1348 1179
f 1179 1348 1349
f 1179 1349 1180
f 1180 1349 1350
f 1180 1350 1165
f 1366 1182 1181
f 1167 1351 1186
f 1366 1181 1184
f 1186 1351 1170
f 1352 1367 1172
f 1172 1367 1188
f 1190 1188 1367
f 1190 1367 1368
f 1371 1370 1369
f 1369 1370 1356
f 1354 1369 1356
f 1372 1369 1354
f 1373 1354 1357
f 1372 1354 1373
f 1374 1357 1358
f 1373 1357 1374
f 1375 1358 1359
f 1374 1358 1375
f 1376 1359 1360
f 1375 1359 1376
f 1377 1360 1361
f 1376 1360 1377
f 1362 1379 1378
f 1377 1362 1378
f 1361 1362 1377
f 1379 1362 1363
f 1379 1363 1380
f 1380 1382 1381
f 1382 1380 1193
f 1363 1193 1380
f 1193 1363 1192
f 1364 1192 1363
f 1383 1381 1382
f 1195 1192 1365
f 1364 1365 1192
f 1195 1365 1177
f 1384 1197 1366
f 1366 1197 1182
f 1198 1385 1184
f 1385 1366 1184
f 1385 1384 1366
f 1199 1385 1198
f 1387 1202 1386
f 1202 1368 1386
f 1202 1190 1368
f 1387 1386 1371
f 1369 1387 1371
f 1388 1387 1369
f 1389 1369 1372
f 1388 1369 1389
f 1390 1372 1373
f 1389 1372 1390
f 1391 1373 1374
f 1390 1373 1391
f 1392 1374 1375
f 1391 1374 1392
f 1393 1375 1376
f 1392 1375 1393
f 1377 1395 1394
f 1393 1377 1394
f 1376 1377 1393
f 1395 1377 1378
f 1204 1396 1382
f 1204 1382 1193
f 1383 1382 1397
f 1397 1382 1396
f 1384 1206 1197
f 1206 1384 1207
f 1207 1384 1385
f 1207 1385 1199
f 1387 1209 1202
f 1209 1387 1210
f 1210 1387 1388
f 1210 1388 1211
f 1388 1398 1211
f 1388 1389 1398
f 1399 1389 1390
f 1398 1389 1399
f 1400 1390 1391
f 1399 1390 1400
f 1401 1391 1392
f 1400 1391 1401
f 1393 1403 1402
f 1401 1393 1402
f 1392 1393 1401
f 1403 1393 1394
f 1212 1396 1204
f 1212 1213 1396
f 1213 1397 1396
f 1213 1404 1397
f 1398 1215 1211
f 1215 1398 1216
f 1398 1405 1216
f 1398 1399 1405
f 1406 1399 1400
f 1405 1399 1406
f 1407 1400 1401
f 1406 1400 1407
f 1401 1402 1408
f 1401 1408 1407
f 1213 1217 1409
f 1410 1213 1409
f 1404 1213 1410
f 1218 1411 1217
f 1217 1411 1409
f 1411 1218 1412
f 1218 1413 1412
f 1218 1219 1413
f 1219 1220 1413
f 1413 1220 1414
f 1405 1221 1216
f 1221 1405 1223
f 1223 1405 1406
f 1223 1406 1224
f 1406 1415 1224
f 1406 1407 1415
f 1407 1408 1416
f 1407 1416 1415
f 1417 1410 1409
f 1417 1409 1411
f 1417 1411 1418
f 1418 1411 1412
f 1220 1225 1419
f 1420 1220 1419
f 1414 1220 1420
f 1226 1419 1225
f 1421 1227 1415
f 1415 1227 1224
f 1415 1416 1422
f 1415 1422 1421
f 1425 1424 1423
f 1423 1424 1420
f 1423 1420 1419
f 1229 1423 1419
f 1228 1229 1419
f 1228 1419 1226
f 1421 1230 1227
f 1422 1426 1421
f 1426 1230 1421
f 1426 1231 1230
f 1231 1427 1232
f 1426 1427 1231
f 1232 1428 1233
f 1427 1428 1232
f 1233 1429 1235
f 1428 1429 1233
f 1235 1430 1237
f 1429 1430 1235
f 1432 1431 1238
f 1237 1432 1238
f 1430 1432 1237
f 1240 1241 1431
f 1432 1240 1431
f 1433 1240 1432
f 1423 1243 1425
f 1243 1433 1425
f 1243 1240 1433
f 1243 1423 1229
f 1431 1247 1238
f 1250 1247 1434
f 1247 1431 1434
f 1241 1249 1434
f 1241 1434 1431
f 1251 1435 1249
f 1249 1435 1434
f 1252 1435 1251
f 1437 1436 1254
f 1254 1436 1255
f 1438 1254 1256
f 1438 1437 1254
f 1438 1256 1250
f 1439 1438 1250
f 1434 1439 1250
f 1438 1439 1440
f 1259 1439 1258
f 1439 1435 1258
f 1439 1434 1435
f 1258 1435 1252
f 1436 1265 1255
f 1441 1265 1436
f 1444 1443 1442
f 1442 1443 1440
f 1439 1442 1440
f 1445 1442 1439
f 1267 1445 1259
f 1259 1445 1439
f 1441 1271 1265
f 1446 1271 1441
f 1447 1444 1442
f 1447 1442 1445
f 1447 1445 1448
f 1450 1448 1449
f 1449 1448 1272
f 1448 1445 1272
f 1445 1267 1272
f 1273 1449 1272
f 1446 1451 1271
f 1271 1451 1278
f 1280 1278 1451
f 1280 1451 1452
f 1454 1453 1282
f 1454 1282 1283
f 1449 1285 1450
f 1285 1453 1450
f 1285 1282 1453
f 1285 1449 1273
f 1452 1455 1280
f 1280 1455 1292
f 1283 1292 1454
f 1454 1292 1455
f 1456 1310 1309
f 1311 1457 1309
f 1309 1457 1456
f 1312 1458 1311
f 1311 1458 1457
f 1313 1458 1312
f 1456 1314 1310
f 1314 1456 1315
f 1315 1456 1457
f 1315 1457 1316
f 1316 1457 1458
f 1316 1458 1313
f 1459 1321 1322
f 1323 1460 1322
f 1322 1460 1459
f 1324 1460 1323
f 1461 1327 1328
f 1321 1459 1328
f 1459 1461 1328
f 1459 1462 1461
f 1463 1459 1460
f 1462 1459 1463
f 1330 1463 1324
f 1324 1463 1460
f 1464 1340 1461
f 1461 1340 1327
f 1465 1461 1462
f 1464 1461 1465
f 1466 1462 1463
f 1465 1462 1466
f 1342 1466 1330
f 1330 1466 1463
f 1467 1352 1353
f 1340 1464 1353
f 1464 1467 1353
f 1464 1468 1467
f 1469 1464 1465
f 1468 1464 1469
f 1356 1469 1355
f 1469 1466 1355
f 1469 1465 1466
f 1355 1466 1342
f 1467 1367 1352
f 1367 1467 1368
f 1467 1470 1368
f 1467 1468 1470
f 1371 1470 1370
f 1470 1469 1370
f 1470 1468 1469
f 1370 1469 1356
f 1471 1378 1379
f 1380 1472 1379
f 1379 1472 1471
f 1381 1473 1380
f 1380 1473 1472
f 1383 1473 1381
f 1470 1386 1368
f 1386 1470 1371
f 1474 1394 1395
f 1378 1471 1395
f 1471 1474 1395
f 1471 1475 1474
f 1476 1471 1472
f 1475 1471 1476
f 1477 1472 1473
f 1476 1472 1477
f 1397 1477 1383
f 1383 1477 1473
f 1478 1402 1403
f 1394 1474 1403
f 1474 1478 1403
f 1474 1479 1478
f 1480 1474 1475
f 1479 1474 1480
f 1481 1475 1476
f 1480 1475 1481
f 1482 1476 1477
f 1481 1476 1482
f 1404 1482 1397
f 1397 1482 1477
f 1483 1408 1478
f 1478 1408 1402
f 1484 1478 1479
f 1483 1478 1484
f 1485 1479 1480
f 1484 1479 1485
f 1486 1480 1481
f 1485 1480 1486
f 1487 1481 1482
f 1486 1481 1487
f 1410 1487 1404
f 1404 1487 1482
f 1488 1412 1413
f 1414 1488 1413
f 1489 1416 1483
f 1483 1416 1408
f 1490 1483 1484
f 1489 1483 1490
f 1491 1484 1485
f 1490 1484 1491
f 1492 1485 1486
f 1491 1485 1492
f 1493 1486 1487
f 1492 1486 1493
f 1417 1494 1410
f 1494 1487 1410
f 1494 1493 1487
f 1418 1495 1417
f 1417 1495 1494
f 1412 1488 1418
f 1488 1495 1418
f 1488 1496 1495
f 1420 1496 1414
f 1414 1496 1488
f 1497 1422 1489
f 1489 1422 1416
f 1498 1489 1490
f 1497 1489 1498
f 1499 1490 1491
f 1498 1490 1499
f 1500 1491 1492
f 1499 1491 1500
f 1501 1492 1493
f 1500 1492 1501
f 1502 1493 1494
f 1501 1493 1502
f 1503 1494 1495
f 1502 1494 1503
f 1425 1503 1424
f 1503 1496 1424
f 1503 1495 1496
f 1424 1496 1420
f 1497 1426 1422
f 1426 1497 1427
f 1427 1497 1498
f 1427 1498 1428
f 1428 1498 1499
f 1428 1499 1429
f 1429 1499 1500
f 1429 1500 1430
f 1430 1500 1501
f 1430 1501 1432
f 1432 1501 1502
f 1432 1502 1433
f 1433 1502 1503
f 1433 1503 1425
f 1504 1436 1437
f 1438 1505 1437
f 1437 1505 1504
f 1440 1505 1438
f 1506 1441 1504
f 1504 1441 1436
f 1444 1506 1443
f 1506 1505 1443
f 1506 1504 1505
f 1443 1505 1440
f 1507 1446 1506
f 1506 1446 1441
f 1447 1508 1444
f 1508 1506 1444
f 1508 1507 1506
f 1448 1509 1447
f 1447 1509 1508
f 1450 1509 1448
f 1507 1451 1446
f 1451 1507 1452
f 1507 1510 1452
f 1507 1508 1510
f 1454 1510 1453
f 1510 1509 1453
f 1510 1508 1509
f 1453 1509 1450
f 1510 1455 1452
f 1455 1510 1454
