v 4.0 15.0 -2.0
v 4.0 15.0 -2.0
v 4.0 14.7 -2.0
v 4.0 15.0 -2.0
v 4.0 15.0 -2.0
v 4.9 10.0 -4.0
v 5.0 10.0 -4.2
v 5.0 9.8 -4.0
v 5.0 10.0 -3.8
v 4.8 11.0 -5.0
v 5.0 11.0 -5.3
v 5.0 10.6 -5.0
v 4.5 11.0 -4.0
v 5.0 10.6 -3.0
v 4.7 11.0 -3.0
v 5.0 11.0 -2.6
v 4.6 12.0 -5.0
v 5.0 12.0 -5.6
v 4.5 12.0 -4.0
v 4.5 12.0 -3.0
v 5.0 11.8 -2.0
v 4.9 12.0 -2.0
v 5.0 12.0 -1.9
v 4.9 13.0 -7.0
v 5.0 13.0 -7.1
v 5.0 12.9 -7.0
v 5.0 12.4 -6.0
v 4.6 13.0 -6.0
v 4.5 13.0 -5.0
v 4.5 13.0 -4.0
v 4.6 13.0 -3.0
v 5.0 13.0 -2.2
v 5.0 12.5 -2.0
v 5.0 13.2 -7.0
v 4.6 14.0 -6.0
v 5.0 14.0 -6.6
v 4.5 14.0 -5.0
v 4.5 14.0 -4.0
v 4.4 14.0 -3.0
v 5.0 13.2 -2.0
v 4.0 14.0 -2.0
v 5.0 14.0 -1.5
v 4.6 15.0 -6.0
v 5.0 15.0 -6.5
v 4.5 15.0 -5.0
v 4.5 15.0 -4.0
v 4.4 15.0 -3.0
v 5.0 15.0 -1.4
v 4.7 16.0 -6.0
v 5.0 16.0 -6.3
v 4.5 16.0 -5.0
v 4.5 16.0 -4.0
v 4.5 16.0 -3.0
v 4.5 16.0 -2.0
v 5.0 16.0 -1.4
v 5.0 16.5 -6.0
v 4.6 17.0 -5.0
v 5.0 17.0 -5.6
v 4.5 17.0 -4.0
v 4.5 17.0 -3.0
v 4.5 17.0 -2.0
v 5.0 16.7 -1.0
v 4.9 17.0 -1.0
v 5.0 17.0 -0.8
v 4.6 18.0 -5.0
v 5.0 18.0 -5.5
v 4.5 18.0 -4.0
v 4.5 18.0 -3.0
v 4.7 18.0 -2.0
v 5.0 18.0 -1.5
v 5.0 17.3 -1.0
v 4.8 19.0 -5.0
v 5.0 19.0 -5.3
v 4.6 19.0 -4.0
v 4.7 19.0 -3.0
v 5.0 19.0 -2.5
v 5.0 18.5 -2.0
v 5.0 19.3 -5.0
v 5.0 19.5 -4.0
v 5.0 19.4 -3.0
v 5.9 8.0 -4.0
v 6.0 8.0 -4.1
v 6.0 7.9 -4.0
v 6.0 8.0 -3.9
v 5.7 9.0 -4.0
v 6.0 9.0 -4.5
v 6.0 9.0 -3.5
v 5.6 10.0 -5.0
v 6.0 10.0 -5.3
v 6.0 9.5 -5.0
v 6.0 9.4 -3.0
v 5.5 10.0 -3.0
v 6.0 10.0 -2.4
v 6.0 11.0 -5.7
v 6.0 10.5 -2.0
v 5.5 11.0 -2.0
v 6.0 11.0 -1.6
v 5.7 12.0 -7.0
v 6.0 12.0 -7.2
v 6.0 11.8 -7.0
v 6.0 11.3 -6.0
v 5.3 12.0 -6.0
v 6.0 12.0 -1.3
v 6.0 13.0 -7.7
v 5.1 13.0 -2.0
v 6.0 12.5 -1.0
v 5.7 13.0 -1.0
v 6.0 13.0 -0.6
v 5.9 14.0 -8.0
v 6.0 14.0 -8.1
v 6.0 13.9 -8.0
v 5.3 14.0 -7.0
v 5.5 14.0 -1.0
v 6.0 14.0 -0.5
v 6.0 14.1 -8.0
v 5.5 15.0 -7.0
v 6.0 15.0 -7.5
v 5.5 15.0 -1.0
v 6.0 15.0 -0.5
v 5.7 16.0 -7.0
v 6.0 16.0 -7.3
v 5.4 16.0 -1.0
v 6.0 16.0 -0.3
v 6.0 16.5 -7.0
v 5.4 17.0 -6.0
v 6.0 17.0 -6.6
v 6.0 16.5 0.0
v 5.7 17.0 0.0
v 6.0 17.0 0.4
v 5.5 18.0 -6.0
v 6.0 18.0 -6.5
v 5.3 18.0 -1.0
v 5.7 18.0 0.0
v 6.0 18.0 0.3
v 5.5 19.0 -6.0
v 6.0 19.0 -6.5
v 5.3 19.0 -2.0
v 5.7 19.0 -1.0
v 6.0 19.0 -0.6
v 6.0 18.4 0.0
v 5.7 20.0 -6.0
v 6.0 20.0 -6.4
v 5.4 20.0 -5.0
v 5.4 20.0 -4.0
v 5.4 20.0 -3.0
v 5.7 20.0 -2.0
v 6.0 20.0 -1.6
v 6.0 19.4 -1.0
v 6.0 20.5 -6.0
v 5.7 21.0 -5.0
v 6.0 21.0 -5.5
v 5.6 21.0 -4.0
v 5.7 21.0 -3.0
v 6.0 21.0 -2.6
v 6.0 20.4 -2.0
v 6.0 21.4 -5.0
v 6.0 21.5 -4.0
v 6.0 21.3 -3.0
v 6.8 7.0 -4.0
v 7.0 7.0 -4.2
v 7.0 6.9 -4.0
v 7.0 7.0 -3.7
v 6.6 8.0 -5.0
v 7.0 8.0 -5.4
v 7.0 7.6 -5.0
v 7.0 7.4 -3.0
v 6.5 8.0 -3.0
v 7.0 7.6 -2.0
v 6.7 8.0 -2.0
v 7.0 8.0 -1.5
v 6.4 9.0 -5.0
v 7.0 9.0 -5.5
v 6.3 9.0 -3.0
v 6.5 9.0 -2.0
v 7.0 8.5 -1.0
v 6.7 9.0 -1.0
v 7.0 9.0 -0.5
v 7.0 10.0 -5.7
v 6.3 10.0 -2.0
v 6.5 10.0 -1.0
v 7.0 9.5 0.0
v 6.7 10.0 0.0
v 7.0 10.0 1.0
v 7.0 10.0 1.0
v 7.0 10.0 1.0
v 6.4 11.0 -6.0
v 7.0 11.0 -6.4
v 7.0 10.4 -6.0
v 6.5 11.0 -1.0
v 7.0 11.0 -0.1
v 7.0 10.8 0.0
v 7.0 10.1 1.0
v 7.0 12.0 -7.5
v 7.0 11.5 -7.0
v 6.3 12.0 -1.0
v 7.0 11.1 0.0
v 6.6 12.0 0.0
v 7.0 11.5 1.0
v 6.7 12.0 1.0
v 7.0 12.0 1.4
v 6.6 13.0 -8.0
v 7.0 13.0 -8.3
v 7.0 12.6 -8.0
v 6.4 13.0 0.0
v 6.5 13.0 1.0
v 7.0 12.8 2.0
v 6.9 13.0 2.0
v 7.0 13.0 2.1
v 7.0 14.0 -8.4
v 6.4 14.0 0.0
v 6.6 14.0 1.0
v 7.0 14.0 1.5
v 7.0 13.2 2.0
v 7.0 14.6 -8.0
v 7.0 15.0 -7.7
v 6.4 15.0 0.0
v 6.6 15.0 1.0
v 7.0 15.0 1.4
v 7.0 16.0 -7.5
v 6.3 16.0 0.0
v 6.6 16.0 1.0
v 7.0 16.0 1.4
v 6.4 17.0 -7.0
v 7.0 17.0 -7.5
v 6.6 17.0 1.0
v 7.0 17.0 1.4
v 6.5 18.0 -7.0
v 7.0 18.0 -7.5
v 6.7 18.0 1.0
v 7.0 18.0 1.3
v 6.5 19.0 -7.0
v 7.0 19.0 -7.5
v 6.5 19.0 0.0
v 7.0 19.0 0.5
v 7.0 18.4 1.0
v 6.5 20.0 -7.0
v 7.0 20.0 -7.5
v 6.5 20.0 -1.0
v 7.0 20.0 -0.5
v 7.0 19.5 0.0
v 6.7 21.0 -7.0
v 7.0 21.0 -7.4
v 6.3 21.0 -6.0
v 6.5 21.0 -2.0
v 7.0 21.0 -1.5
v 7.0 20.5 -1.0
v 7.0 21.5 -7.0
v 6.7 22.0 -6.0
v 7.0 22.0 -6.5
v 6.5 22.0 -5.0
v 6.5 22.0 -4.0
v 6.6 22.0 -3.0
v 7.0 22.0 -2.6
v 7.0 21.5 -2.0
v 7.0 22.4 -6.0
v 7.0 22.5 -5.0
v 7.0 22.5 -4.0
v 7.0 22.4 -3.0
v 7.5 7.0 -5.0
v 8.0 7.0 -5.5
v 8.0 6.6 -5.0
v 8.0 6.4 -4.0
v 8.0 6.6 -3.0
v 7.4 7.0 -3.0
v 8.0 6.6 -2.0
v 7.6 7.0 -2.0
v 8.0 6.6 -1.0
v 7.6 7.0 -1.0
v 8.0 6.8 0.0
v 7.8 7.0 0.0
v 8.0 7.0 0.3
v 7.7 8.0 -6.0
v 8.0 8.0 -6.3
v 8.0 7.6 -6.0
v 7.3 8.0 -1.0
v 7.5 8.0 0.0
v 8.0 7.7 1.0
v 7.8 8.0 1.0
v 8.0 8.0 1.2
v 7.5 9.0 -6.0
v 8.0 9.0 -6.5
v 7.3 9.0 0.0
v 7.6 9.0 1.0
v 8.0 9.0 1.4
v 7.4 10.0 -6.0
v 8.0 10.0 -6.6
v 8.0 10.0 1.6
v 8.0 11.0 -6.8
v 7.1 11.0 0.0
v 7.3 11.0 1.0
v 8.0 10.7 2.0
v 7.8 11.0 2.0
v 8.0 11.0 2.2
v 8.0 12.0 -7.7
v 8.0 11.3 -7.0
v 7.5 12.0 2.0
v 8.0 12.0 2.4
v 8.0 13.0 -8.4
v 8.0 12.4 -8.0
v 8.0 13.0 2.4
v 8.0 14.0 -8.5
v 7.7 14.0 2.0
v 8.0 14.0 2.2
v 7.5 15.0 -8.0
v 8.0 15.0 -8.3
v 8.0 14.2 2.0
v 8.0 15.0 1.6
v 8.0 15.7 -8.0
v 8.0 16.0 -7.8
v 8.0 16.0 1.5
v 7.6 17.0 -8.0
v 8.0 17.0 -8.3
v 8.0 16.3 -8.0
v 8.0 17.0 1.5
v 7.5 18.0 -8.0
v 8.0 18.0 -8.5
v 8.0 18.0 1.5
v 7.5 19.0 -8.0
v 8.0 19.0 -8.5
v 7.6 19.0 1.0
v 8.0 19.0 1.3
v 7.5 20.0 -8.0
v 8.0 20.0 -8.5
v 7.5 20.0 0.0
v 8.0 20.0 0.4
v 8.0 19.3 1.0
v 7.5 21.0 -8.0
v 8.0 21.0 -8.5
v 7.5 21.0 -1.0
v 8.0 21.0 -0.5
v 8.0 20.5 0.0
v 7.7 22.0 -8.0
v 8.0 22.0 -8.3
v 7.3 22.0 -7.0
v 7.5 22.0 -2.0
v 8.0 22.0 -1.5
v 8.0 21.5 -1.0
v 8.0 22.4 -8.0
v 7.7 23.0 -7.0
v 8.0 23.0 -7.4
v 7.5 23.0 -6.0
v 7.5 23.0 -5.0
v 7.5 23.0 -4.0
v 7.6 23.0 -3.0
v 8.0 23.0 -2.6
v 8.0 22.5 -2.0
v 8.0 23.3 -7.0
v 8.0 23.5 -6.0
v 8.0 23.5 -5.0
v 8.0 23.5 -4.0
v 8.0 23.4 -3.0
v 8.9 6.0 -5.0
v 9.0 6.0 -5.1
v 9.0 5.9 -5.0
v 9.0 5.9 -4.0
v 8.9 6.0 -4.0
v 9.0 6.0 -3.9
v 8.8 7.0 -6.0
v 9.0 7.0 -6.2
v 9.0 6.8 -6.0
v 9.0 6.4 -3.0
v 9.0 6.5 -2.0
v 9.0 6.5 -1.0
v 9.0 6.6 0.0
v 9.0 7.0 1.0
v 9.0 7.0 1.0
v 9.0 7.0 1.0
v 9.0 8.0 -6.7
v 9.0 8.0 1.3
v 8.8 9.0 -8.0
v 9.0 9.0 -8.2
v 9.0 8.7 -8.0
v 9.0 8.3 -7.0
v 8.5 9.0 -7.0
v 9.0 9.0 1.4
v 8.6 10.0 -8.0
v 9.0 10.0 -8.4
v 8.4 10.0 -7.0
v 9.0 10.0 1.6
v 8.6 11.0 -8.0
v 9.0 11.0 -8.5
v 8.2 11.0 -7.0
v 9.0 10.6 2.0
v 9.0 11.0 2.3
v 8.4 12.0 -8.0
v 9.0 12.0 -8.5
v 9.0 12.0 2.5
v 9.0 13.0 -8.6
v 9.0 13.0 2.4
v 9.0 14.0 -8.6
v 8.5 14.0 2.0
v 9.0 13.8 2.0
v 9.0 14.0 1.8
v 9.0 15.0 -8.5
v 9.0 15.0 1.5
v 8.2 16.0 -8.0
v 9.0 16.0 -8.4
v 9.0 16.0 1.5
v 9.0 17.0 -8.7
v 9.0 17.0 1.5
v 8.6 18.0 -9.0
v 9.0 18.0 -9.4
v 9.0 17.5 -9.0
v 9.0 18.0 1.5
v 8.5 19.0 -9.0
v 9.0 19.0 -9.5
v 9.0 19.0 1.4
v 8.5 20.0 -9.0
v 9.0 20.0 -9.5
v 9.0 19.5 1.0
v 9.0 20.0 0.6
v 8.5 21.0 -9.0
v 9.0 21.0 -9.5
v 8.6 21.0 0.0
v 9.0 21.0 0.3
v 8.7 22.0 -9.0
v 9.0 22.0 -9.3
v 8.6 22.0 -1.0
v 9.0 22.0 -0.6
v 9.0 21.3 0.0
v 9.0 22.4 -9.0
v 8.5 23.0 -8.0
v 9.0 23.0 -8.5
v 8.6 23.0 -2.0
v 9.0 23.0 -1.6
v 9.0 22.4 -1.0
v 9.0 23.4 -8.0
v 9.0 23.7 -7.0
v 8.6 24.0 -6.0
v 9.0 24.0 -6.5
v 8.5 24.0 -5.0
v 8.5 24.0 -4.0
v 8.7 24.0 -3.0
v 9.0 24.0 -2.7
v 9.0 23.4 -2.0
v 9.0 24.4 -6.0
v 9.0 24.5 -5.0
v 9.0 24.5 -4.0
v 9.0 24.3 -3.0
v 9.1 6.0 -5.0
v 9.1 6.0 -4.0
v 9.3 7.0 -6.0
v 10.0 7.0 -5.5
v 10.0 6.6 -5.0
v 10.0 6.5 -4.0
v 10.0 6.6 -3.0
v 10.0 6.7 -2.0
v 10.0 6.8 -1.0
v 9.5 7.0 0.0
v 10.0 7.0 -0.6
v 9.0 7.0 1.0
v 9.7 8.0 -8.0
v 10.0 8.0 -8.3
v 10.0 7.8 -8.0
v 10.0 7.6 -7.0
v 9.4 8.0 -7.0
v 10.0 7.3 -6.0
v 10.0 7.6 0.0
v 10.0 8.0 0.4
v 9.4 8.0 1.0
v 10.0 9.0 -8.7
v 9.6 9.0 1.0
v 10.0 9.0 0.6
v 9.6 10.0 -9.0
v 10.0 10.0 -9.3
v 10.0 9.5 -9.0
v 10.0 9.6 1.0
v 10.0 10.0 1.3
v 9.5 11.0 -9.0
v 10.0 11.0 -9.4
v 9.4 11.0 2.0
v 10.0 11.0 1.5
v 9.5 12.0 -9.0
v 10.0 12.0 -9.4
v 10.0 11.6 2.0
v 10.0 12.0 2.2
v 9.5 13.0 -9.0
v 10.0 13.0 -9.4
v 10.0 13.0 2.3
v 9.6 14.0 -9.0
v 10.0 14.0 -9.3
v 9.7 14.0 2.0
v 10.0 14.0 2.1
v 10.0 14.5 -9.0
v 10.0 15.0 -8.7
v 10.0 14.1 2.0
v 10.0 15.0 1.5
v 10.0 16.0 -8.7
v 10.0 16.0 1.5
v 9.4 17.0 -9.0
v 10.0 17.0 -9.5
v 10.0 16.4 -9.0
v 10.0 17.0 1.5
v 9.6 18.0 -10.0
v 10.0 18.0 -10.4
v 10.0 17.6 -10.0
v 10.0 18.0 1.5
v 9.5 19.0 -10.0
v 10.0 19.0 -10.5
v 10.0 19.0 1.3
v 9.5 20.0 -10.0
v 10.0 20.0 -10.5
v 10.0 19.4 1.0
v 10.0 20.0 0.6
v 9.6 21.0 -10.0
v 10.0 21.0 -10.3
v 10.0 21.0 0.4
v 10.0 21.5 -10.0
v 10.0 22.0 -9.7
v 10.0 21.5 0.0
v 10.0 22.0 -0.5
v 9.5 23.0 -9.0
v 10.0 23.0 -9.4
v 10.0 22.5 -1.0
v 10.0 23.0 -1.5
v 10.0 23.5 -9.0
v 9.6 24.0 -8.0
v 10.0 24.0 -8.4
v 9.3 24.0 -7.0
v 10.0 23.5 -2.0
v 10.0 24.0 -2.5
v 10.0 24.4 -8.0
v 10.0 24.6 -7.0
v 9.7 25.0 -6.0
v 10.0 25.0 -6.5
v 9.5 25.0 -5.0
v 9.7 25.0 -4.0
v 10.0 25.0 -3.7
v 10.0 24.5 -3.0
v 10.0 25.3 -6.0
v 10.0 25.4 -5.0
v 10.0 25.3 -4.0
v 10.4 7.0 -5.0
v 10.5 7.0 -4.0
v 10.4 7.0 -3.0
v 10.3 7.0 -2.0
v 10.2 7.0 -1.0
v 10.8 8.0 -9.0
v 11.0 8.0 -9.2
v 11.0 7.8 -9.0
v 11.0 7.6 -8.0
v 11.0 7.6 -7.0
v 11.0 7.6 -6.0
v 11.0 7.5 -5.0
v 11.0 7.6 -4.0
v 11.0 8.0 -3.5
v 10.7 8.0 -3.0
v 10.5 8.0 -2.0
v 10.5 8.0 -1.0
v 10.3 8.0 0.0
v 10.4 9.0 -9.0
v 11.0 9.0 -9.4
v 11.0 8.5 -3.0
v 11.0 9.0 -2.5
v 10.7 9.0 -2.0
v 10.5 9.0 -1.0
v 10.4 9.0 0.0
v 11.0 10.0 -9.5
v 11.0 9.5 -2.0
v 11.0 10.0 -1.6
v 10.6 10.0 -1.0
v 10.5 10.0 0.0
v 10.2 10.0 1.0
v 11.0 11.0 -9.5
v 10.7 11.0 -1.0
v 11.0 11.0 -1.4
v 10.5 11.0 0.0
v 10.4 11.0 1.0
v 11.0 12.0 -9.5
v 11.0 11.4 -1.0
v 11.0 12.0 -0.5
v 10.7 12.0 0.0
v 10.5 12.0 1.0
v 10.2 12.0 2.0
v 11.0 13.0 -9.5
v 11.0 12.5 0.0
v 11.0 13.0 0.4
v 10.6 13.0 1.0
v 10.3 13.0 2.0
v 11.0 14.0 -9.5
v 10.6 14.0 1.0
v 11.0 14.0 0.6
v 10.1 14.0 2.0
v 10.4 15.0 -9.0
v 11.0 15.0 -9.4
v 10.6 15.0 1.0
v 11.0 15.0 0.7
v 10.3 16.0 -9.0
v 11.0 16.0 -9.5
v 11.0 15.5 1.0
v 11.0 16.0 1.3
v 10.5 17.0 -10.0
v 11.0 17.0 -10.5
v 11.0 16.6 -10.0
v 11.0 17.0 1.4
v 10.7 18.0 -11.0
v 11.0 18.0 -11.3
v 11.0 17.6 -11.0
v 11.0 18.0 1.3
v 10.5 19.0 -11.0
v 11.0 19.0 -11.4
v 10.5 19.0 1.0
v 11.0 18.5 1.0
v 11.0 19.0 0.7
v 10.6 20.0 -11.0
v 11.0 20.0 -11.3
v 11.0 20.0 0.5
v 11.0 20.5 -11.0
v 11.0 21.0 -10.7
v 11.0 21.0 0.4
v 10.4 22.0 -10.0
v 11.0 22.0 -10.4
v 11.0 21.5 0.0
v 11.0 22.0 -0.5
v 10.7 23.0 -10.0
v 11.0 23.0 -10.2
v 11.0 22.6 -1.0
v 11.0 23.0 -1.4
v 11.0 23.3 -10.0
v 10.5 24.0 -9.0
v 11.0 24.0 -9.4
v 11.0 23.6 -2.0
v 11.0 24.0 -2.4
v 11.0 24.5 -9.0
v 10.7 25.0 -8.0
v 11.0 25.0 -8.4
v 10.4 25.0 -7.0
v 11.0 24.6 -3.0
v 11.0 25.0 -3.4
v 11.0 25.3 -8.0
v 11.0 25.5 -7.0
v 11.0 25.6 -6.0
v 11.0 25.6 -5.0
v 11.0 25.5 -4.0
v 12.0 8.0 -9.1
v 12.0 7.9 -9.0
v 11.6 8.0 -8.0
v 12.0 8.0 -8.9
v 11.5 8.0 -7.0
v 11.5 8.0 -6.0
v 11.5 8.0 -5.0
v 11.4 8.0 -4.0
v 12.0 9.0 -9.5
v 12.0 8.3 -8.0
v 12.0 8.4 -7.0
v 12.0 8.5 -6.0
v 12.0 8.5 -5.0
v 12.0 8.7 -4.0
v 11.4 9.0 -3.0
v 12.0 9.0 -3.7
v 12.0 10.0 -9.5
v 11.7 10.0 -3.0
v 12.0 10.0 -3.4
v 11.3 10.0 -2.0
v 12.0 11.0 -9.5
v 12.0 10.5 -3.0
v 12.0 11.0 -2.6
v 11.5 11.0 -2.0
v 12.0 12.0 -9.5
v 11.7 12.0 -2.0
v 12.0 12.0 -2.3
v 11.4 12.0 -1.0
v 12.0 13.0 -9.5
v 12.0 12.3 -2.0
v 12.0 12.7 -1.0
v 11.5 13.0 0.0
v 12.0 13.0 -0.6
v 12.0 14.0 -9.5
v 12.0 13.6 0.0
v 12.0 14.0 0.2
v 12.0 15.0 -9.5
v 12.0 15.0 0.4
v 12.0 16.0 -9.7
v 11.4 16.0 1.0
v 12.0 16.0 0.5
v 11.8 17.0 -11.0
v 12.0 17.0 -11.1
v 12.0 16.9 -11.0
v 12.0 16.3 -10.0
v 11.5 17.0 1.0
v 12.0 17.0 0.5
v 12.0 18.0 -11.5
v 11.4 18.0 1.0
v 12.0 18.0 0.5
v 12.0 19.0 -11.5
v 12.0 19.0 0.4
v 12.0 20.0 -11.5
v 12.0 20.0 0.4
v 11.5 21.0 -11.0
v 12.0 21.0 -11.3
v 12.0 21.0 0.2
v 12.0 21.5 -11.0
v 12.0 22.0 -10.7
v 12.0 21.3 0.0
v 12.0 22.0 -0.4
v 12.0 23.0 -10.4
v 11.5 23.0 -1.0
v 12.0 23.0 -0.7
v 12.0 23.6 -10.0
v 12.0 24.0 -9.7
v 11.5 24.0 -2.0
v 12.0 24.0 -1.6
v 12.0 23.3 -1.0
v 11.6 25.0 -9.0
v 12.0 25.0 -9.3
v 11.4 25.0 -3.0
v 12.0 25.0 -2.5
v 12.0 24.5 -2.0
v 12.0 25.3 -9.0
v 12.0 25.7 -8.0
v 11.6 26.0 -7.0
v 12.0 26.0 -7.5
v 11.5 26.0 -6.0
v 11.5 26.0 -5.0
v 11.6 26.0 -4.0
v 12.0 26.0 -3.6
v 12.0 25.5 -3.0
v 12.0 26.3 -7.0
v 12.0 26.4 -6.0
v 12.0 26.4 -5.0
v 12.0 26.3 -4.0
v 12.1 8.0 -9.0
v 13.0 9.0 -9.2
v 13.0 8.8 -9.0
v 13.0 8.6 -8.0
v 13.0 8.7 -7.0
v 12.6 9.0 -6.0
v 13.0 9.0 -6.6
v 12.4 9.0 -5.0
v 12.2 9.0 -4.0
v 13.0 10.0 -9.4
v 13.0 9.5 -6.0
v 13.0 10.0 -5.6
v 12.6 10.0 -5.0
v 12.4 10.0 -4.0
v 13.0 11.0 -9.4
v 12.7 11.0 -5.0
v 13.0 11.0 -5.3
v 12.6 11.0 -4.0
v 12.3 11.0 -3.0
v 13.0 12.0 -9.4
v 13.0 11.3 -5.0
v 13.0 11.6 -4.0
v 13.0 12.0 -3.6
v 12.6 12.0 -3.0
v 13.0 13.0 -9.5
v 13.0 12.5 -3.0
v 12.6 13.0 -2.0
v 13.0 13.0 -2.5
v 12.3 13.0 -1.0
v 13.0 14.0 -9.5
v 13.0 13.5 -2.0
v 13.0 14.0 -1.5
v 12.7 14.0 -1.0
v 12.3 14.0 0.0
v 13.0 15.0 -9.6
v 13.0 14.5 -1.0
v 13.0 15.0 -0.6
v 12.5 15.0 0.0
v 12.5 16.0 -10.0
v 13.0 16.0 -10.3
v 13.0 15.6 -10.0
v 12.5 16.0 0.0
v 13.0 16.0 -0.5
v 12.2 17.0 -11.0
v 13.0 17.0 -10.7
v 12.5 17.0 0.0
v 13.0 17.0 -0.5
v 13.0 18.0 -11.4
v 13.0 17.4 -11.0
v 12.5 18.0 0.0
v 13.0 18.0 -0.4
v 13.0 19.0 -11.5
v 12.5 19.0 0.0
v 13.0 19.0 -0.4
v 13.0 20.0 -11.5
v 12.5 20.0 0.0
v 13.0 20.0 -0.4
v 13.0 21.0 -11.5
v 12.3 21.0 0.0
v 13.0 21.0 -0.4
v 12.5 22.0 -11.0
v 13.0 22.0 -11.3
v 13.0 22.0 -0.5
v 13.0 22.4 -11.0
v 13.0 23.0 -10.6
v 13.0 23.0 -0.6
v 12.5 24.0 -10.0
v 13.0 24.0 -10.3
v 13.0 23.5 -1.0
v 13.0 24.0 -1.4
v 13.0 24.4 -10.0
v 13.0 25.0 -9.5
v 12.6 25.0 -2.0
v 13.0 25.0 -1.7
v 13.0 25.6 -9.0
v 12.5 26.0 -8.0
v 13.0 26.0 -8.5
v 12.6 26.0 -3.0
v 13.0 26.0 -2.7
v 13.0 25.3 -2.0
v 13.0 26.3 -8.0
v 13.0 26.6 -7.0
v 13.0 26.6 -6.0
v 13.0 26.6 -5.0
v 13.0 26.6 -4.0
v 13.0 26.3 -3.0
v 13.2 9.0 -9.0
v 13.4 9.0 -8.0
v 13.3 9.0 -7.0
v 13.4 10.0 -9.0
v 14.0 10.0 -8.3
v 14.0 9.7 -8.0
v 14.0 9.7 -7.0
v 13.4 10.0 -6.0
v 14.0 10.0 -6.7
v 13.5 11.0 -9.0
v 14.0 11.0 -8.5
v 13.5 11.0 -6.0
v 14.0 11.0 -6.5
v 13.6 12.0 -9.0
v 14.0 12.0 -8.6
v 13.7 12.0 -6.0
v 14.0 12.0 -6.4
v 13.4 12.0 -5.0
v 13.3 12.0 -4.0
v 14.0 13.0 -9.2
v 14.0 12.6 -9.0
v 14.0 12.5 -6.0
v 14.0 13.0 -5.5
v 13.7 13.0 -5.0
v 13.6 13.0 -4.0
v 13.3 13.0 -3.0
v 14.0 14.0 -9.4
v 14.0 13.4 -5.0
v 14.0 13.6 -4.0
v 14.0 14.0 -3.5
v 13.7 14.0 -3.0
v 13.3 14.0 -2.0
v 14.0 15.0 -9.5
v 14.0 14.5 -3.0
v 14.0 15.0 -2.5
v 13.7 15.0 -2.0
v 13.3 15.0 -1.0
v 14.0 16.0 -10.4
v 14.0 15.5 -10.0
v 14.0 15.5 -2.0
v 14.0 16.0 -1.6
v 13.5 16.0 -1.0
v 14.0 17.0 -10.6
v 13.6 17.0 -1.0
v 14.0 17.0 -1.4
v 14.0 18.0 -11.4
v 14.0 17.5 -11.0
v 14.0 17.6 -1.0
v 14.0 18.0 -0.8
v 14.0 19.0 -11.5
v 14.0 19.0 -0.6
v 14.0 20.0 -11.5
v 14.0 20.0 -0.5
v 14.0 21.0 -11.5
v 14.0 21.0 -0.5
v 14.0 22.0 -11.4
v 14.0 22.0 -0.5
v 14.0 22.5 -11.0
v 14.0 23.0 -10.6
v 14.0 23.0 -0.7
v 14.0 24.0 -10.4
v 14.0 23.4 -1.0
v 14.0 24.0 -1.4
v 14.0 24.5 -10.0
v 14.0 25.0 -9.6
v 14.0 25.0 -1.6
v 13.6 26.0 -9.0
v 14.0 26.0 -9.2
v 14.0 25.5 -2.0
v 14.0 26.0 -2.5
v 14.0 26.2 -9.0
v 14.0 26.6 -8.0
v 13.6 27.0 -7.0
v 14.0 27.0 -7.4
v 13.4 27.0 -6.0
v 13.4 27.0 -5.0
v 13.6 27.0 -4.0
v 14.0 27.0 -3.6
v 14.0 26.5 -3.0
v 14.0 27.3 -7.0
v 14.0 27.6 -6.0
v 13.9 28.0 -5.0
v 14.0 28.0 -5.1
v 14.0 28.0 -4.9
v 14.0 27.3 -4.0
v 14.0 28.1 -5.0
v 14.2 10.0 -8.0
v 14.2 10.0 -7.0
v 14.4 11.0 -8.0
v 14.4 11.0 -7.0
v 14.4 12.0 -8.0
v 14.4 12.0 -7.0
v 14.2 13.0 -9.0
v 14.5 13.0 -8.0
v 14.5 13.0 -7.0
v 14.3 13.0 -6.0
v 14.4 14.0 -9.0
v 14.6 14.0 -8.0
v 14.6 14.0 -7.0
v 14.5 14.0 -6.0
v 14.4 14.0 -5.0
v 14.3 14.0 -4.0
v 14.6 15.0 -9.0
v 15.0 15.0 -8.5
v 15.0 14.6 -8.0
v 15.0 14.6 -7.0
v 15.0 15.0 -6.5
v 14.7 15.0 -6.0
v 14.5 15.0 -5.0
v 14.5 15.0 -4.0
v 14.3 15.0 -3.0
v 15.0 16.0 -10.2
v 15.0 15.8 -10.0
v 15.0 15.4 -9.0
v 15.0 15.5 -6.0
v 15.0 16.0 -5.5
v 14.7 16.0 -5.0
v 14.5 16.0 -4.0
v 14.5 16.0 -3.0
v 14.3 16.0 -2.0
v 15.0 17.0 -10.5
v 15.0 16.5 -5.0
v 15.0 17.0 -4.5
v 14.7 17.0 -4.0
v 14.6 17.0 -3.0
v 14.4 17.0 -2.0
v 15.0 18.0 -11.3
v 15.0 17.7 -11.0
v 15.0 17.4 -4.0
v 15.0 17.6 -3.0
v 15.0 18.0 -2.5
v 14.7 18.0 -2.0
v 14.3 18.0 -1.0
v 15.0 19.0 -11.5
v 15.0 18.4 -2.0
v 15.0 19.0 -1.5
v 14.6 19.0 -1.0
v 15.0 20.0 -11.5
v 15.0 19.6 -1.0
v 15.0 20.0 -0.7
v 15.0 21.0 -11.5
v 15.0 21.0 -0.6
v 15.0 22.0 -11.4
v 15.0 22.0 -0.7
v 15.0 22.5 -11.0
v 15.0 23.0 -10.6
v 14.5 23.0 -1.0
v 15.0 22.5 -1.0
v 15.0 23.0 -1.3
v 15.0 24.0 -10.3
v 15.0 24.0 -1.5
v 15.0 24.4 -10.0
v 15.0 25.0 -9.6
v 15.0 25.0 -1.6
v 15.0 26.0 -9.2
v 15.0 25.5 -2.0
v 15.0 26.0 -2.5
v 15.0 26.2 -9.0
v 15.0 26.6 -8.0
v 15.0 27.0 -7.6
v 15.0 26.5 -3.0
v 15.0 27.0 -3.5
v 15.0 28.0 -7.0
v 15.0 28.0 -7.0
v 14.6 28.0 -6.0
v 15.0 27.5 -4.0
v 15.0 28.0 -4.7
v 15.0 28.0 -7.0
v 15.0 28.2 -6.0
v 15.0 28.2 -5.0
v 15.3 15.0 -8.0
v 15.3 15.0 -7.0
v 15.2 16.0 -10.0
v 15.5 16.0 -9.0
v 15.5 16.0 -8.0
v 15.5 16.0 -7.0
v 15.3 16.0 -6.0
v 15.6 17.0 -10.0
v 16.0 17.0 -9.3
v 16.0 16.8 -9.0
v 16.0 17.0 -8.7
v 15.7 17.0 -8.0
v 15.5 17.0 -7.0
v 15.5 17.0 -6.0
v 15.3 17.0 -5.0
v 15.4 18.0 -11.0
v 16.0 18.0 -10.4
v 16.0 17.5 -10.0
v 16.0 17.5 -8.0
v 16.0 18.0 -7.5
v 15.7 18.0 -7.0
v 15.6 18.0 -6.0
v 15.6 18.0 -5.0
v 15.5 18.0 -4.0
v 15.4 18.0 -3.0
v 16.0 19.0 -11.2
v 16.0 18.6 -11.0
v 16.0 18.4 -7.0
v 16.0 18.5 -6.0
v 16.0 18.5 -5.0
v 16.0 18.5 -4.0
v 16.0 18.7 -3.0
v 15.5 19.0 -2.0
v 16.0 19.0 -2.6
v 16.0 20.0 -11.4
v 16.0 19.6 -2.0
v 15.3 20.0 -1.0
v 16.0 20.0 -1.7
v 16.0 21.0 -11.4
v 15.5 21.0 -1.0
v 16.0 21.0 -1.5
v 16.0 22.0 -11.2
v 15.4 22.0 -1.0
v 16.0 22.0 -1.4
v 16.0 22.3 -11.0
v 16.0 23.0 -10.4
v 16.0 23.0 -1.5
v 16.0 23.5 -10.0
v 15.5 24.0 -10.0
v 16.0 24.0 -9.7
v 16.0 24.0 -1.5
v 16.0 25.0 -9.3
v 16.0 25.0 -1.6
v 16.0 25.4 -9.0
v 15.4 26.0 -9.0
v 16.0 26.0 -8.4
v 16.0 25.4 -2.0
v 16.0 26.0 -2.6
v 16.0 26.3 -8.0
v 16.0 27.0 -7.3
v 16.0 26.4 -3.0
v 16.0 27.0 -3.7
v 16.0 27.3 -7.0
v 15.0 28.0 -7.0
v 15.3 28.0 -6.0
v 16.0 27.5 -6.0
v 15.3 28.0 -5.0
v 16.0 27.5 -5.0
v 16.0 27.3 -4.0
v 16.2 17.0 -9.0
v 16.3 18.0 -10.0
v 16.5 18.0 -9.0
v 16.3 18.0 -8.0
v 16.3 19.0 -11.0
v 16.6 19.0 -10.0
v 16.6 19.0 -9.0
v 16.5 19.0 -8.0
v 16.4 19.0 -7.0
v 16.4 19.0 -6.0
v 16.4 19.0 -5.0
v 16.4 19.0 -4.0
v 16.3 19.0 -3.0
v 16.4 20.0 -11.0
v 17.0 20.0 -10.3
v 17.0 19.7 -10.0
v 17.0 19.6 -9.0
v 17.0 20.0 -8.5
v 16.7 20.0 -8.0
v 16.6 20.0 -7.0
v 16.6 20.0 -6.0
v 16.6 20.0 -5.0
v 16.5 20.0 -4.0
v 16.5 20.0 -3.0
v 16.3 20.0 -2.0
v 16.5 21.0 -11.0
v 17.0 21.0 -10.5
v 17.0 20.4 -8.0
v 17.0 20.5 -7.0
v 17.0 20.5 -6.0
v 17.0 20.6 -5.0
v 17.0 21.0 -4.5
v 16.7 21.0 -4.0
v 16.6 21.0 -3.0
v 16.5 21.0 -2.0
v 16.3 22.0 -11.0
v 17.0 22.0 -10.3
v 17.0 21.4 -4.0
v 17.0 21.5 -3.0
v 17.0 21.7 -2.0
v 17.0 22.0 -1.8
v 16.5 23.0 -10.0
v 17.0 22.4 -10.0
v 17.0 23.0 -9.6
v 17.0 23.0 -1.6
v 17.0 24.0 -9.3
v 17.0 24.0 -1.6
v 17.0 24.3 -9.0
v 16.3 25.0 -9.0
v 16.8 25.0 -8.0
v 17.0 24.8 -8.0
v 17.0 25.0 -7.7
v 17.0 25.0 -1.8
v 16.3 26.0 -8.0
v 17.0 25.7 -7.0
v 16.7 26.0 -7.0
v 17.0 26.0 -6.5
v 16.5 26.0 -3.0
v 17.0 25.6 -3.0
v 17.0 26.0 -3.5
v 17.0 25.2 -2.0
v 16.3 27.0 -7.0
v 17.0 26.4 -6.0
v 16.5 27.0 -6.0
v 16.5 27.0 -5.0
v 17.0 26.5 -5.0
v 16.3 27.0 -4.0
v 17.0 26.4 -4.0
v 17.2 20.0 -10.0
v 17.3 20.0 -9.0
v 17.4 21.0 -10.0
v 17.5 21.0 -9.0
v 17.4 21.0 -8.0
v 17.4 21.0 -7.0
v 17.4 21.0 -6.0
v 17.3 21.0 -5.0
v 17.3 22.0 -10.0
v 17.5 22.0 -9.0
v 17.6 22.0 -8.0
v 17.5 22.0 -7.0
v 17.5 22.0 -6.0
v 17.5 22.0 -5.0
v 17.5 22.0 -4.0
v 17.4 22.0 -3.0
v 17.2 22.0 -2.0
v 17.5 23.0 -9.0
v 18.0 23.0 -8.2
v 18.0 22.8 -8.0
v 18.0 23.0 -7.7
v 17.7 23.0 -7.0
v 17.6 23.0 -6.0
v 17.7 23.0 -5.0
v 18.0 23.0 -4.3
v 18.0 22.8 -4.0
v 18.0 23.0 -3.7
v 17.7 23.0 -3.0
v 17.4 23.0 -2.0
v 17.3 24.0 -9.0
v 18.0 24.0 -8.3
v 18.0 23.4 -7.0
v 18.0 23.5 -6.0
v 18.0 23.4 -5.0
v 18.0 23.7 -3.0
v 18.0 24.0 -2.8
v 17.4 24.0 -2.0
v 18.0 24.3 -8.0
v 18.0 25.0 -7.3
v 17.6 25.0 -3.0
v 18.0 24.3 -3.0
v 18.0 25.0 -3.6
v 17.2 25.0 -2.0
v 18.0 25.2 -7.0
v 17.4 26.0 -6.0
v 18.0 25.4 -6.0
v 17.5 26.0 -5.0
v 18.0 25.5 -5.0
v 17.4 26.0 -4.0
v 18.0 25.3 -4.0
v 18.1 23.0 -8.0
v 18.2 23.0 -4.0
v 18.2 24.0 -8.0
v 18.4 24.0 -7.0
v 18.4 24.0 -6.0
v 18.4 24.0 -5.0
v 18.4 24.0 -4.0
v 18.2 24.0 -3.0
v 18.2 25.0 -7.0
v 18.4 25.0 -6.0
v 18.4 25.0 -5.0
v 18.3 25.0 -4.0
f 3 2 1
f 1 4 3
f 2 5 1
f 1 5 4
f 8 7 6
f 6 9 8
f 12 11 10
f 12 10 7
f 10 6 7
f 10 13 6
f 9 6 14
f 6 15 14
f 6 13 15
f 15 16 14
f 10 11 17
f 17 11 18
f 10 19 13
f 10 17 19
f 13 20 15
f 13 19 20
f 16 15 21
f 15 22 21
f 15 20 22
f 22 23 21
f 26 25 24
f 28 27 24
f 24 27 26
f 27 28 18
f 28 17 18
f 28 29 17
f 17 30 19
f 17 29 30
f 19 31 20
f 19 30 31
f 33 22 32
f 22 31 32
f 22 20 31
f 22 33 23
f 25 34 24
f 36 35 34
f 35 24 34
f 35 28 24
f 28 37 29
f 28 35 37
f 29 38 30
f 29 37 38
f 30 39 31
f 30 38 39
f 32 31 40
f 31 41 40
f 31 39 41
f 41 42 40
f 35 36 43
f 43 36 44
f 35 45 37
f 35 43 45
f 37 46 38
f 37 45 46
f 38 47 39
f 38 46 47
f 47 2 3
f 41 47 3
f 39 47 41
f 3 4 41
f 4 42 41
f 4 48 42
f 43 44 49
f 49 44 50
f 43 51 45
f 43 49 51
f 45 52 46
f 45 51 52
f 46 53 47
f 46 52 53
f 54 5 2
f 47 54 2
f 53 54 47
f 54 55 5
f 55 4 5
f 55 48 4
f 50 56 49
f 58 57 56
f 57 49 56
f 57 51 49
f 51 59 52
f 51 57 59
f 52 60 53
f 52 59 60
f 53 61 54
f 53 60 61
f 55 54 62
f 54 63 62
f 54 61 63
f 63 64 62
f 57 58 65
f 65 58 66
f 57 67 59
f 57 65 67
f 59 68 60
f 59 67 68
f 60 69 61
f 60 68 69
f 71 63 70
f 63 69 70
f 63 61 69
f 63 71 64
f 65 66 72
f 72 66 73
f 65 74 67
f 65 72 74
f 67 75 68
f 67 74 75
f 77 69 76
f 69 75 76
f 69 68 75
f 69 77 70
f 73 78 72
f 72 78 74
f 74 78 79
f 74 79 75
f 75 79 80
f 75 80 76
f 83 82 81
f 81 84 83
f 81 82 85
f 85 82 86
f 84 81 87
f 87 81 85
f 90 89 88
f 90 88 86
f 86 88 85
f 88 7 85
f 7 8 85
f 92 91 9
f 9 91 8
f 91 87 8
f 87 85 8
f 92 93 91
f 88 89 12
f 89 11 12
f 89 94 11
f 88 12 7
f 14 92 9
f 96 95 16
f 16 95 14
f 95 93 14
f 93 92 14
f 96 97 95
f 100 99 98
f 102 101 98
f 98 101 100
f 94 101 102
f 18 94 102
f 11 94 18
f 21 96 16
f 21 23 96
f 23 97 96
f 23 103 97
f 98 99 26
f 99 25 26
f 99 104 25
f 98 26 27
f 98 27 102
f 102 27 18
f 32 105 33
f 103 23 106
f 23 105 106
f 105 107 106
f 23 33 105
f 107 108 106
f 111 110 109
f 109 112 34
f 104 109 34
f 25 104 34
f 109 104 111
f 112 36 34
f 40 105 32
f 105 40 42
f 113 105 42
f 107 105 113
f 108 107 114
f 114 107 113
f 110 115 109
f 117 116 115
f 116 109 115
f 116 112 109
f 116 44 36
f 116 36 112
f 48 118 113
f 48 113 42
f 114 113 119
f 119 113 118
f 116 117 120
f 120 117 121
f 120 50 44
f 120 44 116
f 55 122 118
f 55 118 48
f 119 118 123
f 123 118 122
f 121 124 120
f 124 126 125
f 124 125 56
f 120 124 56
f 50 120 56
f 125 58 56
f 62 122 55
f 128 127 64
f 64 127 62
f 127 123 62
f 123 122 62
f 128 129 127
f 125 126 130
f 130 126 131
f 130 66 58
f 130 58 125
f 70 132 71
f 128 64 71
f 132 128 71
f 133 128 132
f 129 128 134
f 134 128 133
f 130 131 135
f 135 131 136
f 135 73 66
f 135 66 130
f 76 137 77
f 132 70 77
f 137 132 77
f 138 132 137
f 140 133 139
f 133 138 139
f 133 132 138
f 133 140 134
f 135 136 141
f 141 136 142
f 143 78 73
f 135 143 73
f 141 143 135
f 144 79 78
f 144 78 143
f 145 80 79
f 145 79 144
f 137 76 80
f 145 137 80
f 146 137 145
f 148 138 147
f 138 146 147
f 138 137 146
f 138 148 139
f 142 149 141
f 151 150 149
f 150 141 149
f 150 143 141
f 143 152 144
f 143 150 152
f 144 153 145
f 144 152 153
f 155 146 154
f 146 153 154
f 146 145 153
f 146 155 147
f 151 156 150
f 150 156 152
f 152 156 157
f 152 157 153
f 153 157 158
f 153 158 154
f 161 160 159
f 159 162 161
f 165 164 163
f 165 163 160
f 160 163 159
f 163 82 159
f 82 83 159
f 167 166 84
f 84 166 83
f 166 162 83
f 162 159 83
f 169 168 167
f 167 168 166
f 169 170 168
f 163 164 171
f 171 164 172
f 171 86 82
f 171 82 163
f 87 173 167
f 87 167 84
f 167 174 169
f 167 173 174
f 170 169 175
f 169 176 175
f 169 174 176
f 176 177 175
f 171 172 90
f 172 89 90
f 172 178 89
f 171 90 86
f 91 173 87
f 173 91 93
f 179 173 93
f 174 173 179
f 174 180 176
f 174 179 180
f 177 176 181
f 176 182 181
f 176 180 182
f 184 183 182
f 182 183 181
f 184 185 183
f 188 187 186
f 178 188 186
f 94 178 186
f 89 178 94
f 95 179 93
f 179 95 97
f 189 179 97
f 180 179 189
f 191 182 190
f 182 189 190
f 182 180 189
f 182 191 184
f 184 191 192
f 184 192 185
f 194 193 100
f 100 193 99
f 101 186 187
f 194 101 187
f 100 101 194
f 186 101 94
f 103 195 189
f 103 189 97
f 190 189 196
f 189 197 196
f 189 195 197
f 199 198 197
f 197 198 196
f 199 200 198
f 203 202 201
f 193 203 201
f 104 193 201
f 99 193 104
f 106 195 103
f 195 106 108
f 204 195 108
f 197 195 204
f 197 205 199
f 197 204 205
f 200 199 206
f 199 207 206
f 199 205 207
f 207 208 206
f 201 202 111
f 202 110 111
f 202 209 110
f 201 111 104
f 114 210 204
f 114 204 108
f 204 211 205
f 204 210 211
f 213 207 212
f 207 211 212
f 207 205 211
f 207 213 208
f 209 214 110
f 110 214 115
f 117 115 214
f 117 214 215
f 119 216 210
f 119 210 114
f 210 217 211
f 210 216 217
f 212 211 218
f 218 211 217
f 215 121 117
f 219 121 215
f 123 220 216
f 123 216 119
f 216 221 217
f 216 220 221
f 218 217 222
f 222 217 221
f 124 121 223
f 121 224 223
f 121 219 224
f 223 126 124
f 127 220 123
f 220 127 129
f 225 220 129
f 221 220 225
f 222 221 226
f 226 221 225
f 223 224 227
f 227 224 228
f 227 131 126
f 227 126 223
f 134 229 225
f 134 225 129
f 226 225 230
f 230 225 229
f 227 228 231
f 231 228 232
f 231 136 131
f 231 131 227
f 139 233 140
f 233 234 140
f 140 234 134
f 234 235 134
f 235 229 134
f 229 235 230
f 231 232 236
f 236 232 237
f 236 142 136
f 236 136 231
f 147 238 148
f 238 239 148
f 148 239 139
f 239 240 139
f 240 233 139
f 233 240 234
f 236 237 241
f 241 237 242
f 243 149 142
f 236 243 142
f 241 243 236
f 243 151 149
f 154 244 155
f 244 245 155
f 155 245 147
f 245 246 147
f 246 238 147
f 238 246 239
f 242 247 241
f 249 248 247
f 248 241 247
f 248 243 241
f 250 156 151
f 243 250 151
f 248 250 243
f 251 157 156
f 251 156 250
f 252 158 157
f 252 157 251
f 252 253 158
f 158 253 154
f 253 254 154
f 254 244 154
f 244 254 245
f 249 255 248
f 248 255 250
f 250 255 256
f 250 256 251
f 251 256 257
f 251 257 252
f 252 257 258
f 252 258 253
f 261 260 259
f 160 161 259
f 161 261 259
f 161 262 261
f 264 263 162
f 263 161 162
f 263 262 161
f 266 265 264
f 264 265 263
f 268 267 266
f 266 267 265
f 270 269 268
f 268 269 267
f 270 271 269
f 274 273 272
f 274 272 260
f 260 272 259
f 272 164 259
f 164 165 259
f 259 165 160
f 166 264 162
f 264 166 168
f 264 168 266
f 266 168 170
f 275 266 170
f 268 266 275
f 268 276 270
f 268 275 276
f 271 270 277
f 270 278 277
f 270 276 278
f 278 279 277
f 272 273 280
f 280 273 281
f 280 172 164
f 280 164 272
f 175 275 170
f 275 175 177
f 282 275 177
f 276 275 282
f 276 283 278
f 276 282 283
f 279 278 284
f 284 278 283
f 280 281 285
f 285 281 286
f 285 178 172
f 285 172 280
f 181 282 177
f 282 181 183
f 282 183 283
f 183 185 283
f 185 284 283
f 185 287 284
f 285 286 188
f 286 187 188
f 286 288 187
f 285 188 178
f 190 289 191
f 290 192 191
f 290 191 289
f 287 185 291
f 185 290 291
f 290 292 291
f 185 192 290
f 292 293 291
f 295 294 194
f 194 294 193
f 194 187 288
f 194 288 295
f 196 289 190
f 289 196 198
f 289 198 290
f 290 198 200
f 296 290 200
f 292 290 296
f 293 292 297
f 297 292 296
f 299 298 203
f 203 298 202
f 203 193 294
f 203 294 299
f 206 296 200
f 206 208 296
f 208 297 296
f 208 300 297
f 298 209 202
f 301 209 298
f 212 302 213
f 302 303 213
f 303 208 213
f 303 300 208
f 214 209 304
f 209 305 304
f 209 301 305
f 304 215 214
f 307 306 302
f 212 307 302
f 218 307 212
f 302 306 303
f 305 308 304
f 215 304 308
f 309 215 308
f 219 215 309
f 222 307 218
f 222 310 307
f 313 312 311
f 309 313 311
f 224 309 311
f 219 309 224
f 226 310 222
f 226 314 310
f 311 312 315
f 315 312 316
f 315 228 224
f 315 224 311
f 230 314 226
f 230 317 314
f 315 316 318
f 318 316 319
f 318 232 228
f 318 228 315
f 234 320 235
f 320 321 235
f 321 230 235
f 321 317 230
f 318 319 322
f 322 319 323
f 322 237 232
f 322 232 318
f 239 324 240
f 324 325 240
f 240 325 234
f 325 326 234
f 326 320 234
f 320 326 321
f 322 323 327
f 327 323 328
f 327 242 237
f 327 237 322
f 245 329 246
f 329 330 246
f 246 330 239
f 330 331 239
f 331 324 239
f 324 331 325
f 327 328 332
f 332 328 333
f 334 247 242
f 327 334 242
f 332 334 327
f 334 249 247
f 253 335 254
f 335 336 254
f 254 336 245
f 336 337 245
f 337 329 245
f 329 337 330
f 333 338 332
f 340 339 338
f 339 332 338
f 339 334 332
f 341 255 249
f 334 341 249
f 339 341 334
f 342 256 255
f 342 255 341
f 343 257 256
f 343 256 342
f 344 258 257
f 344 257 343
f 344 345 258
f 258 345 253
f 345 346 253
f 346 335 253
f 335 346 336
f 340 347 339
f 339 347 341
f 341 347 348
f 341 348 342
f 342 348 349
f 342 349 343
f 343 349 350
f 343 350 344
f 344 350 351
f 344 351 345
f 354 353 352
f 356 355 352
f 352 355 354
f 356 357 355
f 360 359 358
f 360 358 353
f 353 358 352
f 358 260 352
f 260 261 352
f 352 261 262
f 352 262 356
f 361 357 356
f 262 361 356
f 263 361 262
f 362 263 265
f 362 361 263
f 363 265 267
f 363 362 265
f 364 267 269
f 364 363 267
f 366 365 271
f 365 269 271
f 365 364 269
f 366 367 365
f 358 359 274
f 359 273 274
f 359 368 273
f 358 274 260
f 277 366 271
f 277 279 366
f 279 367 366
f 279 369 367
f 372 371 370
f 374 373 370
f 370 373 372
f 368 373 374
f 281 368 374
f 273 368 281
f 284 369 279
f 284 375 369
f 370 371 376
f 376 371 377
f 370 378 374
f 370 376 378
f 378 286 281
f 378 281 374
f 287 375 284
f 287 379 375
f 376 377 380
f 380 377 381
f 376 382 378
f 376 380 382
f 382 288 286
f 382 286 378
f 383 379 287
f 383 287 291
f 291 293 383
f 383 293 384
f 380 381 385
f 385 381 386
f 385 294 295
f 382 385 295
f 380 385 382
f 382 295 288
f 297 384 293
f 297 387 384
f 385 386 299
f 386 298 299
f 386 388 298
f 385 299 294
f 300 387 297
f 300 389 387
f 388 301 298
f 390 301 388
f 393 392 391
f 392 389 391
f 389 303 391
f 389 300 303
f 390 305 301
f 394 305 390
f 393 391 306
f 307 393 306
f 395 393 307
f 306 391 303
f 308 305 396
f 305 397 396
f 305 394 397
f 396 309 308
f 310 395 307
f 310 398 395
f 396 397 313
f 397 312 313
f 397 399 312
f 396 313 309
f 314 398 310
f 314 400 398
f 403 402 401
f 399 403 401
f 316 399 401
f 312 399 316
f 317 400 314
f 317 404 400
f 401 402 405
f 405 402 406
f 405 319 316
f 405 316 401
f 321 404 317
f 321 407 404
f 405 406 408
f 408 406 409
f 408 323 319
f 408 319 405
f 411 410 326
f 411 326 325
f 321 326 407
f 407 326 410
f 408 409 412
f 412 409 413
f 412 328 323
f 412 323 408
f 330 414 331
f 414 415 331
f 415 325 331
f 415 411 325
f 412 413 416
f 416 413 417
f 416 333 328
f 416 328 412
f 336 418 337
f 418 419 337
f 337 419 330
f 419 420 330
f 420 414 330
f 414 420 415
f 417 421 416
f 421 423 422
f 421 422 338
f 416 421 338
f 333 416 338
f 422 340 338
f 345 424 346
f 424 425 346
f 346 425 336
f 425 426 336
f 426 418 336
f 418 426 419
f 423 427 422
f 422 427 340
f 427 347 340
f 427 428 347
f 428 430 429
f 348 428 429
f 347 428 348
f 431 349 348
f 431 348 429
f 432 350 349
f 432 349 431
f 433 351 350
f 433 350 432
f 433 434 351
f 351 434 345
f 434 435 345
f 435 424 345
f 424 435 425
f 430 436 429
f 429 436 431
f 431 436 437
f 431 437 432
f 432 437 438
f 432 438 433
f 433 438 439
f 433 439 434
f 440 353 354
f 355 441 354
f 354 441 440
f 357 441 355
f 442 359 360
f 443 442 360
f 443 360 353
f 444 443 353
f 440 444 353
f 444 440 441
f 444 441 445
f 445 441 357
f 361 445 357
f 446 445 361
f 447 361 362
f 447 446 361
f 448 362 363
f 448 447 362
f 450 448 449
f 448 364 449
f 448 363 364
f 365 451 364
f 364 451 449
f 367 451 365
f 454 453 452
f 456 455 452
f 452 455 454
f 457 455 442
f 455 368 442
f 368 359 442
f 455 456 368
f 457 442 443
f 458 450 449
f 460 459 458
f 449 460 458
f 451 460 449
f 369 460 367
f 367 460 451
f 452 453 372
f 453 371 372
f 453 461 371
f 452 372 373
f 452 373 456
f 456 373 368
f 459 460 462
f 459 462 463
f 375 462 369
f 369 462 460
f 466 465 464
f 461 466 464
f 377 461 464
f 371 461 377
f 467 463 462
f 462 375 467
f 375 468 467
f 375 379 468
f 464 465 469
f 469 465 470
f 469 381 377
f 469 377 464
f 379 383 471
f 472 379 471
f 468 379 472
f 384 471 383
f 469 470 473
f 473 470 474
f 473 386 381
f 473 381 469
f 475 472 471
f 471 384 475
f 384 476 475
f 384 387 476
f 473 474 477
f 477 474 478
f 477 388 386
f 477 386 473
f 389 476 387
f 389 479 476
f 477 478 480
f 480 478 481
f 480 390 388
f 480 388 477
f 393 482 392
f 482 483 392
f 483 389 392
f 483 479 389
f 481 484 480
f 390 480 484
f 485 390 484
f 394 390 485
f 487 486 482
f 393 487 482
f 395 487 393
f 482 486 483
f 485 397 394
f 488 397 485
f 398 487 395
f 398 489 487
f 492 491 490
f 488 492 490
f 399 488 490
f 397 488 399
f 400 489 398
f 400 493 489
f 496 495 494
f 496 494 491
f 491 494 490
f 494 402 490
f 402 403 490
f 490 403 399
f 404 493 400
f 404 497 493
f 494 495 498
f 498 495 499
f 498 406 402
f 498 402 494
f 407 497 404
f 407 500 497
f 498 499 501
f 501 499 502
f 501 409 406
f 501 406 498
f 504 503 410
f 504 410 411
f 407 410 500
f 500 410 503
f 501 502 505
f 505 502 506
f 505 413 409
f 505 409 501
f 415 504 411
f 415 507 504
f 506 508 505
f 413 505 508
f 509 413 508
f 417 413 509
f 511 510 420
f 511 420 419
f 415 420 507
f 507 420 510
f 421 417 512
f 417 513 512
f 417 509 513
f 512 423 421
f 515 514 426
f 515 426 425
f 419 426 511
f 511 426 514
f 513 516 512
f 516 518 517
f 516 517 427
f 512 516 427
f 423 512 427
f 519 428 427
f 519 427 517
f 519 430 428
f 521 520 435
f 521 435 434
f 425 435 515
f 515 435 520
f 518 522 517
f 517 522 519
f 519 522 523
f 523 525 524
f 523 524 436
f 519 523 436
f 430 519 436
f 526 437 436
f 526 436 524
f 527 438 437
f 527 437 526
f 438 527 528
f 529 438 528
f 439 438 529
f 434 439 521
f 521 439 529
f 525 530 524
f 524 530 526
f 526 530 531
f 526 531 527
f 527 531 532
f 527 532 528
f 533 443 444
f 445 534 444
f 444 534 533
f 446 535 445
f 445 535 534
f 447 536 446
f 446 536 535
f 448 537 447
f 447 537 536
f 450 537 448
f 540 539 538
f 453 454 538
f 454 540 538
f 454 541 540
f 542 454 455
f 542 541 454
f 543 455 457
f 543 542 455
f 457 443 533
f 544 457 533
f 543 457 544
f 544 533 534
f 544 534 545
f 547 546 545
f 534 547 545
f 535 547 534
f 548 535 536
f 547 535 548
f 549 536 537
f 548 536 549
f 458 550 450
f 550 537 450
f 550 549 537
f 459 550 458
f 538 539 551
f 551 539 552
f 551 461 453
f 551 453 538
f 553 546 547
f 555 554 553
f 547 555 553
f 548 555 547
f 556 548 549
f 555 548 556
f 557 549 550
f 556 549 557
f 463 557 459
f 459 557 550
f 551 552 466
f 552 465 466
f 552 558 465
f 551 466 461
f 559 554 555
f 561 560 559
f 555 561 559
f 556 561 555
f 562 556 557
f 561 556 562
f 467 563 463
f 563 557 463
f 563 562 557
f 468 563 467
f 558 470 465
f 564 470 558
f 560 561 565
f 560 565 566
f 567 561 562
f 565 561 567
f 568 562 563
f 567 562 568
f 472 568 468
f 468 568 563
f 564 474 470
f 569 474 564
f 570 566 565
f 572 571 570
f 565 572 570
f 567 572 565
f 573 567 568
f 572 567 573
f 475 574 472
f 574 568 472
f 574 573 568
f 476 574 475
f 569 478 474
f 575 478 569
f 576 571 572
f 578 577 576
f 572 578 576
f 573 578 572
f 579 573 574
f 578 573 579
f 479 579 476
f 476 579 574
f 575 481 478
f 580 481 575
f 577 578 581
f 577 581 582
f 583 578 579
f 581 578 583
f 483 583 479
f 479 583 579
f 484 481 584
f 481 585 584
f 481 580 585
f 584 485 484
f 582 581 586
f 582 586 587
f 487 586 486
f 586 583 486
f 586 581 583
f 486 583 483
f 584 585 588
f 588 585 589
f 588 488 485
f 588 485 584
f 590 587 586
f 586 487 590
f 487 591 590
f 487 489 591
f 594 593 592
f 594 592 589
f 589 592 588
f 592 491 588
f 491 492 588
f 588 492 488
f 493 591 489
f 493 595 591
f 598 597 596
f 598 596 593
f 593 596 592
f 596 495 592
f 495 496 592
f 592 496 491
f 497 595 493
f 497 599 595
f 596 597 600
f 600 597 601
f 600 499 495
f 600 495 596
f 604 603 602
f 603 599 602
f 599 500 602
f 599 497 500
f 600 601 605
f 605 601 606
f 605 502 499
f 605 499 600
f 604 602 503
f 504 604 503
f 607 604 504
f 503 602 500
f 606 608 605
f 502 605 608
f 609 502 608
f 506 502 609
f 507 607 504
f 507 610 607
f 508 506 611
f 506 612 611
f 506 609 612
f 611 509 508
f 614 613 510
f 614 510 511
f 507 510 610
f 610 510 613
f 611 612 615
f 615 612 616
f 615 513 509
f 615 509 611
f 618 617 514
f 618 514 515
f 511 514 614
f 614 514 617
f 616 619 615
f 619 621 620
f 619 620 516
f 615 619 516
f 513 615 516
f 620 518 516
f 623 622 520
f 623 520 521
f 515 520 618
f 618 520 622
f 621 624 620
f 624 626 625
f 624 625 522
f 620 624 522
f 518 620 522
f 627 523 522
f 627 522 625
f 627 525 523
f 629 628 529
f 629 529 528
f 521 529 623
f 623 529 628
f 626 630 625
f 625 630 627
f 627 630 631
f 627 631 525
f 631 530 525
f 631 632 530
f 530 633 531
f 632 633 530
f 531 634 532
f 633 634 531
f 528 532 629
f 629 532 634
f 636 635 540
f 540 635 539
f 638 636 637
f 636 541 637
f 636 540 541
f 542 639 541
f 541 639 637
f 543 640 542
f 542 640 639
f 544 641 543
f 543 641 640
f 545 642 544
f 544 642 641
f 546 642 545
f 635 552 539
f 643 552 635
f 644 638 637
f 644 637 639
f 644 639 645
f 645 639 640
f 645 640 646
f 646 640 641
f 646 641 647
f 647 641 642
f 647 642 648
f 650 648 649
f 649 648 553
f 648 642 553
f 642 546 553
f 554 649 553
f 643 558 552
f 651 558 643
f 650 649 652
f 650 652 653
f 559 654 554
f 654 649 554
f 654 652 649
f 560 654 559
f 651 564 558
f 655 564 651
f 656 653 652
f 658 657 656
f 652 658 656
f 654 658 652
f 566 658 560
f 560 658 654
f 655 569 564
f 659 569 655
f 657 658 660
f 657 660 661
f 570 662 566
f 662 658 566
f 662 660 658
f 571 662 570
f 659 575 569
f 663 575 659
f 664 661 660
f 664 660 662
f 664 662 665
f 667 665 666
f 666 665 576
f 665 662 576
f 662 571 576
f 577 666 576
f 663 580 575
f 668 580 663
f 669 667 666
f 666 577 669
f 577 670 669
f 577 582 670
f 668 585 580
f 671 585 668
f 587 670 582
f 587 672 670
f 671 589 585
f 673 589 671
f 587 590 674
f 675 587 674
f 672 587 675
f 591 674 590
f 678 677 676
f 593 594 676
f 594 678 676
f 594 679 678
f 594 589 673
f 594 673 679
f 675 674 680
f 675 680 681
f 595 680 591
f 591 680 674
f 676 677 598
f 677 597 598
f 677 682 597
f 676 598 593
f 681 680 683
f 681 683 684
f 599 683 595
f 595 683 680
f 682 601 597
f 685 601 682
f 684 683 603
f 604 684 603
f 686 684 604
f 603 683 599
f 685 606 601
f 687 606 685
f 607 686 604
f 607 688 686
f 608 606 689
f 606 690 689
f 606 687 690
f 689 609 608
f 610 688 607
f 610 691 688
f 690 692 689
f 609 689 692
f 693 609 692
f 612 609 693
f 695 694 613
f 695 613 614
f 610 613 691
f 691 613 694
f 693 616 612
f 696 616 693
f 618 697 617
f 697 698 617
f 698 614 617
f 698 695 614
f 696 699 616
f 616 699 619
f 621 619 699
f 621 699 700
f 623 701 622
f 701 702 622
f 622 702 618
f 702 703 618
f 703 697 618
f 697 703 698
f 624 621 704
f 621 705 704
f 621 700 705
f 704 626 624
f 629 706 628
f 706 707 628
f 628 707 623
f 707 708 623
f 708 701 623
f 701 708 702
f 705 709 704
f 704 709 626
f 709 630 626
f 709 710 630
f 710 712 711
f 631 710 711
f 630 710 631
f 713 632 631
f 713 631 711
f 714 633 632
f 714 632 713
f 715 634 633
f 715 633 714
f 715 716 634
f 634 716 629
f 716 717 629
f 717 706 629
f 706 717 707
f 712 718 711
f 711 718 713
f 713 718 719
f 713 719 714
f 714 719 720
f 714 720 715
f 715 720 721
f 715 721 716
f 722 635 636
f 638 722 636
f 724 723 722
f 723 635 722
f 723 643 635
f 724 722 638
f 644 724 638
f 725 724 644
f 726 644 645
f 726 725 644
f 728 726 727
f 726 646 727
f 726 645 646
f 647 729 646
f 646 729 727
f 648 730 647
f 647 730 729
f 650 730 648
f 723 651 643
f 731 651 723
f 732 728 727
f 734 733 732
f 727 734 732
f 729 734 727
f 735 729 730
f 734 729 735
f 653 735 650
f 650 735 730
f 731 655 651
f 736 655 731
f 733 734 737
f 733 737 738
f 739 734 735
f 737 734 739
f 656 740 653
f 740 735 653
f 740 739 735
f 657 740 656
f 736 659 655
f 741 659 736
f 742 738 737
f 742 737 739
f 742 739 743
f 745 744 743
f 739 745 743
f 740 745 739
f 661 745 657
f 657 745 740
f 741 663 659
f 746 663 741
f 747 744 745
f 749 747 748
f 748 747 664
f 747 745 664
f 745 661 664
f 665 750 664
f 664 750 748
f 667 750 665
f 746 668 663
f 751 668 746
f 752 749 748
f 754 753 752
f 748 754 752
f 750 754 748
f 669 755 667
f 755 750 667
f 755 754 750
f 670 755 669
f 751 671 668
f 756 671 751
f 757 753 754
f 759 758 757
f 754 759 757
f 755 759 754
f 672 759 670
f 670 759 755
f 762 761 760
f 756 762 760
f 673 756 760
f 671 756 673
f 758 759 763
f 758 763 764
f 675 763 672
f 672 763 759
f 765 677 678
f 761 766 760
f 766 678 760
f 678 679 760
f 678 766 765
f 760 679 673
f 764 763 767
f 764 767 768
f 681 767 675
f 675 767 763
f 770 769 765
f 769 677 765
f 769 682 677
f 770 765 766
f 768 767 771
f 768 771 772
f 684 771 681
f 681 771 767
f 769 685 682
f 773 685 769
f 772 771 774
f 772 774 775
f 686 774 684
f 684 774 771
f 773 687 685
f 776 687 773
f 775 774 777
f 775 777 778
f 688 777 686
f 686 777 774
f 776 690 687
f 779 690 776
f 778 777 780
f 778 780 781
f 691 780 688
f 688 780 777
f 692 690 782
f 690 783 782
f 690 779 783
f 782 693 692
f 781 780 694
f 695 781 694
f 784 781 695
f 694 780 691
f 783 785 782
f 693 782 785
f 786 693 785
f 696 693 786
f 698 784 695
f 698 787 784
f 699 696 788
f 696 789 788
f 696 786 789
f 788 700 699
f 791 790 703
f 791 703 702
f 698 703 787
f 787 703 790
f 789 792 788
f 700 788 792
f 793 700 792
f 705 700 793
f 707 794 708
f 794 795 708
f 795 702 708
f 795 791 702
f 793 796 705
f 705 796 709
f 796 798 797
f 710 796 797
f 709 796 710
f 797 712 710
f 716 799 717
f 799 800 717
f 717 800 707
f 800 801 707
f 801 794 707
f 794 801 795
f 798 802 797
f 797 802 712
f 802 718 712
f 802 803 718
f 718 804 719
f 803 804 718
f 719 805 720
f 804 805 719
f 720 806 721
f 805 806 720
f 716 721 799
f 721 807 799
f 721 806 807
f 799 807 800
f 808 723 724
f 725 809 724
f 724 809 808
f 726 810 725
f 725 810 809
f 728 810 726
f 811 731 808
f 808 731 723
f 809 813 812
f 811 809 812
f 808 809 811
f 813 809 810
f 813 810 814
f 816 814 815
f 815 814 732
f 814 810 732
f 810 728 732
f 733 815 732
f 817 736 811
f 811 736 731
f 811 812 818
f 811 818 817
f 816 815 819
f 816 819 820
f 738 819 733
f 733 819 815
f 821 741 817
f 817 741 736
f 817 818 822
f 817 822 821
f 820 819 823
f 820 823 824
f 742 825 738
f 825 819 738
f 825 823 819
f 743 826 742
f 742 826 825
f 744 826 743
f 828 827 821
f 827 741 821
f 827 746 741
f 828 821 822
f 829 824 823
f 831 830 829
f 823 831 829
f 825 831 823
f 832 825 826
f 831 825 832
f 747 833 744
f 833 826 744
f 833 832 826
f 749 833 747
f 827 751 746
f 834 751 827
f 835 830 831
f 835 831 832
f 835 832 836
f 838 837 836
f 832 838 836
f 833 838 832
f 752 839 749
f 839 833 749
f 839 838 833
f 753 839 752
f 834 756 751
f 840 756 834
f 841 837 838
f 843 842 841
f 838 843 841
f 839 843 838
f 757 844 753
f 844 839 753
f 844 843 839
f 758 844 757
f 846 845 762
f 762 845 761
f 762 756 840
f 762 840 846
f 847 842 843
f 849 848 847
f 843 849 847
f 844 849 843
f 764 849 758
f 758 849 844
f 845 766 761
f 850 766 845
f 848 849 851
f 848 851 852
f 768 851 764
f 764 851 849
f 854 853 770
f 770 853 769
f 770 766 850
f 770 850 854
f 855 852 851
f 851 768 855
f 768 856 855
f 768 772 856
f 853 773 769
f 857 773 853
f 775 856 772
f 775 858 856
f 857 776 773
f 859 776 857
f 778 858 775
f 778 860 858
f 859 779 776
f 861 779 859
f 781 860 778
f 781 862 860
f 861 783 779
f 863 783 861
f 784 862 781
f 784 864 862
f 863 865 783
f 783 865 785
f 786 785 865
f 786 865 866
f 787 864 784
f 787 867 864
f 866 789 786
f 868 789 866
f 870 869 790
f 870 790 791
f 787 790 867
f 867 790 869
f 868 871 789
f 789 871 792
f 793 792 871
f 793 871 872
f 795 870 791
f 795 873 870
f 796 793 874
f 793 875 874
f 793 872 875
f 874 798 796
f 877 876 801
f 877 801 800
f 795 801 873
f 873 801 876
f 875 878 874
f 874 878 798
f 878 802 798
f 878 879 802
f 879 881 880
f 803 879 880
f 802 879 803
f 882 804 803
f 882 803 880
f 883 805 804
f 883 804 882
f 884 806 805
f 884 805 883
f 806 884 885
f 886 806 885
f 807 806 886
f 800 807 877
f 877 807 886
f 881 887 880
f 880 887 882
f 882 887 888
f 890 889 888
f 889 882 888
f 889 883 882
f 892 884 891
f 884 889 891
f 884 883 889
f 884 892 885
f 890 893 889
f 889 893 891
f 894 812 813
f 814 895 813
f 813 895 894
f 816 895 814
f 896 818 894
f 894 818 812
f 897 894 895
f 896 894 897
f 820 897 816
f 816 897 895
f 898 822 896
f 896 822 818
f 899 896 897
f 898 896 899
f 824 899 820
f 820 899 897
f 900 827 828
f 822 898 828
f 898 900 828
f 898 901 900
f 902 898 899
f 901 898 902
f 829 903 824
f 903 899 824
f 903 902 899
f 830 903 829
f 904 834 900
f 900 834 827
f 905 900 901
f 904 900 905
f 906 901 902
f 905 901 906
f 907 902 903
f 906 902 907
f 835 908 830
f 908 903 830
f 908 907 903
f 836 909 835
f 835 909 908
f 837 909 836
f 910 840 904
f 904 840 834
f 905 912 911
f 910 905 911
f 904 905 910
f 912 905 906
f 912 906 913
f 915 914 913
f 906 915 913
f 907 915 906
f 916 907 908
f 915 907 916
f 917 908 909
f 916 908 917
f 841 918 837
f 918 909 837
f 918 917 909
f 842 918 841
f 920 919 846
f 846 919 845
f 846 840 910
f 921 846 910
f 920 846 921
f 921 910 911
f 922 914 915
f 924 923 922
f 915 924 922
f 916 924 915
f 925 916 917
f 924 916 925
f 926 917 918
f 925 917 926
f 847 927 842
f 927 918 842
f 927 926 918
f 848 927 847
f 919 850 845
f 928 850 919
f 929 923 924
f 931 930 929
f 924 931 929
f 925 931 924
f 932 925 926
f 931 925 932
f 933 926 927
f 932 926 933
f 852 933 848
f 848 933 927
f 935 934 854
f 854 934 853
f 854 850 928
f 854 928 935
f 936 930 931
f 936 931 932
f 936 932 937
f 939 938 937
f 932 939 937
f 933 939 932
f 855 940 852
f 940 933 852
f 940 939 933
f 856 940 855
f 934 857 853
f 941 857 934
f 942 938 939
f 944 943 942
f 939 944 942
f 940 944 939
f 858 944 856
f 856 944 940
f 941 859 857
f 945 859 941
f 946 943 944
f 944 858 946
f 858 947 946
f 858 860 947
f 945 861 859
f 948 861 945
f 862 947 860
f 862 949 947
f 948 863 861
f 950 863 948
f 864 949 862
f 864 951 949
f 950 952 863
f 863 952 865
f 866 865 952
f 866 952 953
f 956 955 954
f 955 951 954
f 951 867 954
f 951 864 867
f 953 868 866
f 957 868 953
f 956 954 869
f 870 956 869
f 958 956 870
f 869 954 867
f 957 959 868
f 868 959 871
f 872 871 959
f 872 959 960
f 873 958 870
f 873 961 958
f 960 875 872
f 962 875 960
f 964 963 876
f 964 876 877
f 873 876 961
f 961 876 963
f 962 965 875
f 875 965 878
f 878 966 879
f 965 966 878
f 881 879 966
f 881 966 967
f 969 968 886
f 969 886 885
f 877 886 964
f 964 886 968
f 887 881 970
f 881 971 970
f 881 967 971
f 972 888 887
f 972 887 970
f 972 890 888
f 974 973 892
f 974 892 891
f 885 892 969
f 969 892 973
f 971 975 970
f 970 975 972
f 972 975 976
f 972 976 890
f 976 893 890
f 976 977 893
f 891 893 974
f 974 893 977
f 978 911 912
f 913 979 912
f 912 979 978
f 914 979 913
f 980 919 920
f 921 981 920
f 920 981 980
f 911 978 921
f 978 981 921
f 978 982 981
f 983 978 979
f 982 978 983
f 922 984 914
f 984 979 914
f 984 983 979
f 923 984 922
f 985 928 980
f 980 928 919
f 981 987 986
f 985 981 986
f 980 981 985
f 989 988 987
f 981 989 987
f 982 989 981
f 990 982 983
f 989 982 990
f 991 983 984
f 990 983 991
f 929 992 923
f 992 984 923
f 992 991 984
f 930 992 929
f 993 934 935
f 994 993 935
f 994 935 928
f 995 994 928
f 985 995 928
f 995 985 986
f 996 988 989
f 998 997 996
f 989 998 996
f 990 998 989
f 999 990 991
f 998 990 999
f 1000 991 992
f 999 991 1000
f 936 1001 930
f 1001 992 930
f 1001 1000 992
f 937 1002 936
f 936 1002 1001
f 938 1002 937
f 1004 1003 993
f 1003 934 993
f 1003 941 934
f 1004 993 994
f 1005 997 998
f 1005 998 999
f 1005 999 1006
f 1006 999 1000
f 1006 1000 1007
f 1007 1000 1001
f 1007 1001 1008
f 1008 1001 1002
f 1008 1002 1009
f 1011 1009 1010
f 1010 1009 942
f 1009 1002 942
f 1002 938 942
f 943 1010 942
f 1003 945 941
f 1012 945 1003
f 1013 1011 1010
f 1015 1013 1014
f 1014 1013 946
f 1013 1010 946
f 1010 943 946
f 947 1014 946
f 1012 948 945
f 1016 948 1012
f 1015 1014 1017
f 1015 1017 1018
f 949 1017 947
f 947 1017 1014
f 1016 950 948
f 1019 950 1016
f 1018 1017 1020
f 1018 1020 1021
f 951 1020 949
f 949 1020 1017
f 1019 1022 950
f 950 1022 952
f 953 952 1022
f 953 1022 1023
f 1021 1020 955
f 956 1021 955
f 1024 1021 956
f 955 1020 951
f 1026 957 1025
f 957 1023 1025
f 957 953 1023
f 1027 1026 1025
f 958 1024 956
f 958 1028 1024
f 1026 959 957
f 960 959 1026
f 1027 960 1026
f 1029 960 1027
f 961 1028 958
f 961 1030 1028
f 1032 962 1031
f 962 1029 1031
f 962 960 1029
f 1033 1032 1031
f 1035 1034 963
f 1035 963 964
f 961 963 1030
f 1030 963 1034
f 1032 965 962
f 1033 1036 1032
f 1036 965 1032
f 1036 966 965
f 967 966 1036
f 967 1036 1037
f 1039 1038 968
f 1039 968 969
f 964 968 1035
f 1035 968 1038
f 1041 971 1040
f 971 1037 1040
f 971 967 1037
f 1043 1042 1041
f 1043 1041 1040
f 1045 1044 1042
f 1045 1042 1043
f 973 974 1044
f 1045 973 1044
f 1046 973 1045
f 969 973 1039
f 1039 973 1046
f 1041 975 971
f 975 1041 976
f 976 1041 1042
f 976 1042 977
f 977 1042 1044
f 977 1044 974
f 1047 986 987
f 988 1047 987
f 1048 994 995
f 986 1047 995
f 1047 1048 995
f 1047 1049 1048
f 996 1050 988
f 1050 1047 988
f 1050 1049 1047
f 997 1050 996
f 1051 1003 1004
f 994 1048 1004
f 1048 1051 1004
f 1048 1052 1051
f 1053 1048 1049
f 1052 1048 1053
f 1054 1049 1050
f 1053 1049 1054
f 1005 1055 997
f 1055 1050 997
f 1055 1054 1050
f 1006 1056 1005
f 1005 1056 1055
f 1007 1057 1006
f 1006 1057 1056
f 1008 1058 1007
f 1007 1058 1057
f 1009 1059 1008
f 1008 1059 1058
f 1011 1059 1009
f 1060 1012 1051
f 1051 1012 1003
f 1052 1062 1061
f 1060 1052 1061
f 1051 1052 1060
f 1062 1052 1053
f 1062 1053 1063
f 1065 1064 1063
f 1053 1065 1063
f 1054 1065 1053
f 1066 1054 1055
f 1065 1054 1066
f 1067 1055 1056
f 1066 1055 1067
f 1068 1056 1057
f 1067 1056 1068
f 1069 1057 1058
f 1068 1057 1069
f 1070 1058 1059
f 1069 1058 1070
f 1013 1071 1011
f 1071 1059 1011
f 1071 1070 1059
f 1015 1071 1013
f 1072 1016 1060
f 1060 1016 1012
f 1060 1061 1073
f 1060 1073 1072
f 1074 1064 1065
f 1074 1065 1066
f 1074 1066 1075
f 1075 1066 1067
f 1075 1067 1076
f 1076 1067 1068
f 1076 1068 1077
f 1079 1078 1077
f 1068 1079 1077
f 1069 1079 1068
f 1080 1069 1070
f 1079 1069 1080
f 1081 1070 1071
f 1080 1070 1081
f 1018 1081 1015
f 1015 1081 1071
f 1082 1019 1072
f 1072 1019 1016
f 1072 1073 1083
f 1072 1083 1082
f 1084 1078 1079
f 1084 1079 1080
f 1084 1080 1085
f 1085 1080 1081
f 1085 1081 1086
f 1081 1018 1086
f 1018 1087 1086
f 1018 1021 1087
f 1082 1022 1019
f 1089 1088 1023
f 1089 1023 1022
f 1083 1089 1022
f 1082 1083 1022
f 1090 1088 1089
f 1024 1087 1021
f 1024 1091 1087
f 1088 1025 1023
f 1027 1025 1088
f 1090 1027 1088
f 1092 1027 1090
f 1028 1091 1024
f 1028 1093 1091
f 1095 1029 1094
f 1029 1092 1094
f 1029 1027 1092
f 1097 1096 1095
f 1097 1095 1094
f 1098 1096 1097
f 1030 1093 1028
f 1030 1099 1093
f 1095 1031 1029
f 1031 1095 1033
f 1095 1100 1033
f 1095 1096 1100
f 1096 1098 1101
f 1102 1096 1101
f 1100 1096 1102
f 1103 1102 1101
f 1106 1105 1104
f 1034 1035 1104
f 1105 1034 1104
f 1107 1034 1105
f 1030 1034 1099
f 1099 1034 1107
f 1100 1036 1033
f 1036 1100 1037
f 1100 1108 1037
f 1100 1102 1108
f 1102 1103 1109
f 1110 1102 1109
f 1108 1102 1110
f 1112 1111 1110
f 1112 1110 1109
f 1114 1113 1111
f 1114 1111 1112
f 1113 1114 1106
f 1113 1106 1104
f 1039 1113 1104
f 1038 1039 1104
f 1038 1104 1035
f 1108 1040 1037
f 1040 1108 1043
f 1043 1108 1110
f 1043 1110 1045
f 1045 1110 1111
f 1045 1111 1046
f 1046 1111 1113
f 1046 1113 1039
f 1115 1061 1062
f 1063 1116 1062
f 1062 1116 1115
f 1064 1116 1063
f 1117 1073 1115
f 1115 1073 1061
f 1118 1115 1116
f 1117 1115 1118
f 1074 1119 1064
f 1119 1116 1064
f 1119 1118 1116
f 1075 1120 1074
f 1074 1120 1119
f 1076 1121 1075
f 1075 1121 1120
f 1077 1122 1076
f 1076 1122 1121
f 1078 1122 1077
f 1123 1083 1117
f 1117 1083 1073
f 1124 1117 1118
f 1123 1117 1124
f 1125 1118 1119
f 1124 1118 1125
f 1126 1119 1120
f 1125 1119 1126
f 1127 1120 1121
f 1126 1120 1127
f 1128 1121 1122
f 1127 1121 1128
f 1084 1129 1078
f 1129 1122 1078
f 1129 1128 1122
f 1085 1130 1084
f 1084 1130 1129
f 1086 1131 1085
f 1085 1131 1130
f 1087 1131 1086
f 1123 1089 1083
f 1089 1123 1090
f 1123 1132 1090
f 1123 1124 1132
f 1125 1134 1133
f 1132 1125 1133
f 1124 1125 1132
f 1136 1135 1134
f 1125 1136 1134
f 1126 1136 1125
f 1137 1126 1127
f 1136 1126 1137
f 1138 1127 1128
f 1137 1127 1138
f 1129 1140 1139
f 1138 1129 1139
f 1128 1129 1138
f 1142 1141 1140
f 1129 1142 1140
f 1130 1142 1129
f 1143 1130 1131
f 1142 1130 1143
f 1091 1143 1087
f 1087 1143 1131
f 1144 1092 1132
f 1132 1092 1090
f 1132 1133 1145
f 1132 1145 1144
f 1146 1135 1136
f 1146 1136 1137
f 1146 1137 1147
f 1147 1137 1138
f 1147 1138 1148
f 1148 1138 1139
f 1149 1141 1142
f 1151 1150 1149
f 1142 1151 1149
f 1143 1151 1142
f 1093 1151 1091
f 1091 1151 1143
f 1144 1094 1092
f 1145 1152 1144
f 1152 1094 1144
f 1152 1097 1094
f 1098 1097 1152
f 1098 1152 1153
f 1156 1155 1154
f 1154 1155 1150
f 1151 1154 1150
f 1157 1154 1151
f 1099 1157 1093
f 1093 1157 1151
f 1153 1158 1098
f 1098 1158 1101
f 1160 1159 1103
f 1101 1160 1103
f 1158 1160 1101
f 1162 1161 1159
f 1162 1159 1160
f 1164 1163 1161
f 1164 1161 1162
f 1163 1164 1156
f 1163 1156 1154
f 1106 1163 1154
f 1105 1106 1154
f 1105 1154 1107
f 1107 1154 1157
f 1107 1157 1099
f 1159 1109 1103
f 1109 1159 1112
f 1112 1159 1161
f 1112 1161 1114
f 1114 1161 1163
f 1114 1163 1106
f 1165 1133 1134
f 1135 1165 1134
f 1166 1139 1140
f 1141 1166 1140
f 1167 1145 1165
f 1165 1145 1133
f 1146 1168 1135
f 1168 1165 1135
f 1168 1167 1165
f 1147 1169 1146
f 1146 1169 1168
f 1148 1170 1147
f 1147 1170 1169
f 1139 1166 1148
f 1166 1170 1148
f 1166 1171 1170
f 1149 1172 1141
f 1172 1166 1141
f 1172 1171 1166
f 1150 1172 1149
f 1167 1152 1145
f 1152 1167 1153
f 1167 1173 1153
f 1167 1168 1173
f 1174 1168 1169
f 1173 1168 1174
f 1175 1169 1170
f 1174 1169 1175
f 1176 1170 1171
f 1175 1170 1176
f 1156 1176 1155
f 1176 1172 1155
f 1176 1171 1172
f 1155 1172 1150
f 1173 1158 1153
f 1158 1173 1160
f 1160 1173 1174
f 1160 1174 1162
f 1162 1174 1175
f 1162 1175 1164
f 1164 1175 1176
f 1164 1176 1156
