v -25.1 -58.0 -10.0
v -25.0 -58.0 -10.7
v -25.0 -58.1 -10.0
v -25.0 -58.0 -9.9
v -25.0 -57.9 -10.0
v -24.3 -59.0 -11.0
v -24.0 -59.0 -11.3
v -24.0 -59.2 -11.0
v -24.0 -59.4 -10.0
v -24.4 -59.0 -10.0
v -24.0 -59.2 -9.0
v -24.2 -59.0 -9.0
v -24.0 -59.0 -8.8
v -24.9 -58.0 -11.0
v -24.0 -58.0 -11.5
v -24.4 -58.0 -9.0
v -24.0 -58.0 -8.6
v -24.0 -57.4 -11.0
v -24.5 -57.0 -10.0
v -24.0 -57.0 -10.6
v -24.3 -57.0 -9.0
v -24.0 -57.0 -8.7
v -24.0 -56.0 -10.0
v -24.0 -56.0 -10.0
v -24.0 -56.0 -10.0
v -24.0 -56.6 -9.0
v -24.0 -56.0 -10.0
v -23.3 -59.0 -12.0
v -23.0 -59.0 -12.2
v -23.0 -59.2 -12.0
v -23.0 -59.5 -11.0
v -23.0 -59.5 -10.0
v -23.0 -59.4 -9.0
v -23.0 -59.0 -8.5
v -23.3 -58.0 -12.0
v -23.0 -58.0 -12.3
v -23.0 -58.2 -8.0
v -23.2 -58.0 -8.0
v -23.0 -58.0 -7.9
v -23.0 -57.6 -12.0
v -23.6 -57.0 -11.0
v -23.0 -57.0 -11.5
v -23.0 -57.8 -8.0
v -23.0 -57.0 -8.4
v -23.0 -56.5 -11.0
v -23.0 -56.0 -10.6
v -23.4 -56.0 -9.0
v -23.0 -56.0 -8.7
v -23.0 -55.5 -10.0
v -23.0 -55.7 -9.0
v -23.2 -45.0 -16.0
v -23.0 -45.0 -16.3
v -23.0 -45.3 -16.0
v -23.0 -45.2 -15.0
v -23.2 -45.0 -15.0
v -23.0 -45.0 -14.8
v -23.2 -44.0 -17.0
v -23.0 -44.0 -17.2
v -23.0 -44.2 -17.0
v -23.4 -44.0 -16.0
v -23.2 -44.0 -15.0
v -23.0 -44.0 -14.8
v -23.0 -43.0 -17.0
v -23.0 -43.5 -16.0
v -23.0 -43.8 -15.0
v -22.0 -59.0 -12.4
v -22.0 -59.4 -12.0
v -22.0 -59.5 -11.0
v -22.0 -59.5 -10.0
v -22.0 -59.5 -9.0
v -22.0 -59.3 -8.0
v -22.4 -59.0 -8.0
v -22.0 -59.0 -7.7
v -22.0 -58.0 -12.5
v -22.0 -58.0 -7.6
v -22.4 -57.0 -12.0
v -22.0 -57.0 -12.3
v -22.0 -57.5 -8.0
v -22.0 -57.0 -8.4
v -22.0 -56.7 -12.0
v -22.5 -56.0 -11.0
v -22.0 -56.0 -11.4
v -22.0 -56.0 -8.6
v -22.0 -55.6 -11.0
v -22.3 -55.0 -10.0
v -22.0 -55.0 -10.3
v -22.0 -55.0 -9.0
v -22.0 -55.0 -9.0
v -22.0 -54.8 -10.0
v -22.0 -55.0 -9.0
v -22.0 -45.0 -16.6
v -22.0 -45.8 -16.0
v -22.0 -45.4 -15.0
v -22.0 -45.0 -14.6
v -22.0 -44.0 -17.3
v -22.0 -44.5 -17.0
v -22.0 -44.0 -14.6
v -23.0 -43.0 -17.0
v -22.0 -43.0 -17.2
v -22.5 -43.0 -16.0
v -22.0 -43.0 -15.5
v -22.0 -43.4 -15.0
v -22.0 -42.8 -17.0
v -22.0 -42.6 -16.0
v -21.1 -63.0 -12.0
v -21.0 -63.0 -12.0
v -21.0 -63.0 -12.0
v -21.0 -63.0 -12.0
v -21.1 -62.0 -13.0
v -21.0 -62.0 -13.1
v -21.0 -62.2 -13.0
v -21.3 -62.0 -12.0
v -21.0 -62.0 -11.6
v -21.0 -61.8 -13.0
v -21.0 -61.4 -12.0
v -21.3 -60.0 -12.0
v -21.0 -60.0 -12.3
v -21.0 -60.5 -12.0
v -21.0 -60.0 -11.3
v -21.0 -59.0 -12.6
v -21.0 -59.9 -11.0
v -21.0 -59.7 -10.0
v -21.0 -59.7 -9.0
v -21.0 -59.6 -8.0
v -21.0 -59.4 -7.0
v -21.3 -59.0 -7.0
v -21.0 -59.0 -6.7
v -21.0 -58.0 -12.6
v -21.3 -58.0 -7.0
v -21.0 -58.0 -6.7
v -21.0 -57.0 -12.5
v -21.0 -57.3 -8.0
v -21.0 -57.0 -8.3
v -21.0 -57.7 -7.0
v -21.0 -56.4 -12.0
v -21.0 -56.0 -11.6
v -21.1 -56.0 -9.0
v -21.0 -56.1 -9.0
v -21.0 -56.0 -9.1
v -21.0 -55.4 -11.0
v -21.0 -55.0 -10.5
v -22.0 -55.0 -9.0
v -21.0 -55.0 -9.5
v -21.0 -54.6 -10.0
v -21.0 -45.0 -16.4
v -21.0 -45.3 -16.0
v -21.0 -45.2 -15.0
v -21.0 -45.0 -14.8
v -21.0 -44.0 -17.3
v -21.0 -44.4 -17.0
v -21.0 -44.0 -14.6
v -21.0 -43.5 -17.0
v -21.6 -43.0 -17.0
v -21.0 -43.0 -16.7
v -21.6 -43.0 -15.0
v -21.0 -43.0 -14.6
v -21.0 -42.0 -16.2
v -21.3 -42.0 -16.0
v -21.2 -42.0 -15.0
v -21.0 -42.0 -14.8
v -21.0 -41.8 -16.0
v -21.0 -41.8 -15.0
v -21.0 -63.0 -12.0
v -20.0 -62.0 -14.0
v -20.0 -62.0 -14.0
v -20.0 -62.0 -14.0
v -20.0 -62.4 -13.0
v -20.0 -62.5 -12.0
v -20.0 -62.4 -11.0
v -20.5 -62.0 -11.0
v -20.0 -62.1 -10.0
v -20.1 -62.0 -10.0
v -20.0 -62.0 -9.9
v -20.2 -61.0 -14.0
v -20.0 -61.0 -14.2
v -20.6 -61.0 -13.0
v -20.8 -61.0 -12.0
v -21.0 -61.0 -11.0
v -20.5 -61.0 -10.0
v -20.0 -61.4 -9.0
v -20.4 -61.0 -9.0
v -20.0 -61.3 -8.0
v -20.3 -61.0 -8.0
v -20.0 -61.3 -7.0
v -20.3 -61.0 -7.0
v -20.0 -61.0 -6.0
v -20.0 -61.0 -6.0
v -20.0 -61.0 -6.0
v -20.2 -60.0 -14.0
v -20.0 -60.0 -14.2
v -20.6 -60.0 -13.0
v -20.9 -60.0 -11.0
v -20.7 -60.0 -10.0
v -20.7 -60.0 -9.0
v -20.6 -60.0 -8.0
v -20.6 -60.0 -7.0
v -20.3 -60.0 -6.0
v -20.0 -60.0 -5.7
v -20.2 -59.0 -14.0
v -20.0 -59.0 -14.2
v -20.6 -59.0 -13.0
v -20.3 -59.0 -6.0
v -20.0 -59.0 -5.7
v -20.2 -58.0 -14.0
v -20.0 -58.0 -14.2
v -20.6 -58.0 -13.0
v -20.0 -58.5 -6.0
v -20.0 -58.0 -6.3
v -20.0 -57.1 -14.0
v -20.5 -57.0 -13.0
v -20.0 -57.0 -14.0
v -20.7 -57.0 -8.0
v -20.3 -57.0 -7.0
v -20.0 -57.0 -6.7
v -20.0 -56.4 -13.0
v -20.6 -56.0 -12.0
v -20.0 -56.0 -12.5
v -20.9 -56.0 -9.0
v -20.0 -56.0 -8.3
v -20.0 -56.3 -8.0
v -20.0 -56.7 -7.0
v -20.0 -55.5 -12.0
v -20.5 -55.0 -11.0
v -20.0 -55.0 -11.5
v -20.6 -55.0 -9.0
v -20.0 -55.0 -8.5
v -20.0 -54.5 -11.0
v -20.3 -54.0 -10.0
v -20.0 -54.0 -10.4
v -20.2 -54.0 -9.0
v -20.0 -54.0 -8.7
v -20.0 -53.7 -10.0
v -20.0 -53.8 -9.0
v -20.6 -45.0 -16.0
v -20.8 -45.0 -15.0
v -20.0 -44.0 -17.1
v -20.0 -44.4 -17.0
v -20.0 -44.4 -16.0
v -20.0 -44.0 -15.6
v -20.5 -44.0 -15.0
v -20.0 -43.8 -17.0
v -20.0 -43.0 -16.4
v -20.0 -43.4 -15.0
v -20.0 -43.0 -14.8
v -20.0 -42.0 -16.2
v -20.0 -42.0 -14.8
v -20.0 -41.8 -16.0
v -20.0 -41.8 -15.0
v -20.0 -62.0 -14.0
v -19.0 -62.0 -13.4
v -19.0 -62.4 -13.0
v -19.0 -62.5 -12.0
v -19.0 -62.4 -11.0
v -19.7 -62.0 -10.0
v -19.0 -62.0 -10.2
v -19.7 -61.0 -14.0
v -19.0 -61.0 -13.6
v -19.0 -61.8 -10.0
v -19.0 -61.5 -9.0
v -19.0 -61.5 -8.0
v -19.0 -61.4 -7.0
v -20.0 -61.0 -6.0
v -19.0 -61.0 -6.4
v -19.7 -60.0 -14.0
v -19.0 -60.0 -13.6
v -19.0 -60.6 -6.0
v -19.0 -60.0 -5.6
v -19.7 -59.0 -14.0
v -19.0 -59.0 -13.6
v -19.0 -59.0 -5.4
v -19.7 -58.0 -14.0
v -19.0 -58.0 -13.6
v -19.5 -58.0 -6.0
v -19.0 -58.0 -5.7
v -19.0 -57.0 -13.6
v -19.0 -57.4 -6.0
v -19.0 -57.0 -6.3
v -19.4 -56.0 -13.0
v -19.0 -56.0 -13.3
v -19.8 -56.0 -8.0
v -19.5 -56.0 -7.0
v -19.0 -56.0 -6.3
v -19.0 -55.7 -13.0
v -19.4 -55.0 -12.0
v -19.0 -55.0 -12.4
v -19.6 -55.0 -8.0
v -19.5 -55.0 -7.0
v -19.0 -55.5 -6.0
v -19.3 -55.0 -6.0
v -19.0 -55.0 -5.6
v -19.0 -54.6 -12.0
v -19.4 -54.0 -11.0
v -19.0 -54.0 -11.3
v -19.5 -54.0 -8.0
v -19.4 -54.0 -7.0
v -19.2 -54.0 -6.0
v -19.0 -54.0 -5.7
v -19.0 -53.7 -11.0
v -19.0 -53.5 -10.0
v -19.0 -53.4 -9.0
v -19.0 -53.5 -8.0
v -19.0 -53.5 -7.0
v -19.0 -53.7 -6.0
v -19.2 -50.0 -8.0
v -19.0 -50.0 -8.2
v -19.0 -50.2 -8.0
v -19.0 -50.0 -7.7
v -19.8 -49.0 -8.0
v -19.0 -49.0 -8.7
v -19.0 -49.2 -7.0
v -19.1 -49.0 -7.0
v -19.0 -49.0 -6.9
v -19.3 -48.0 -9.0
v -19.0 -48.0 -9.3
v -19.0 -48.5 -9.0
v -19.3 -48.0 -8.0
v -19.0 -48.0 -7.7
v -19.0 -48.9 -7.0
v -19.3 -47.0 -9.0
v -19.0 -47.0 -9.5
v -19.0 -47.0 -8.6
v -19.0 -47.6 -8.0
v -19.3 -46.0 -10.0
v -19.0 -46.0 -10.4
v -19.0 -46.5 -10.0
v -19.4 -46.0 -9.0
v -19.0 -46.0 -8.2
v -19.0 -45.0 -14.0
v -19.0 -45.0 -14.0
v -19.0 -45.1 -14.0
v -19.0 -45.0 -14.0
v -19.2 -45.0 -10.0
v -19.0 -45.0 -10.3
v -19.2 -45.0 -9.0
v -19.0 -45.0 -8.7
v -19.9 -44.0 -17.0
v -19.7 -44.0 -16.0
v -19.0 -45.0 -14.0
v -19.0 -44.7 -10.0
v -19.0 -44.8 -9.0
v -19.7 -43.0 -16.0
v -19.8 -43.0 -15.0
v -19.8 -42.0 -16.0
v -19.8 -42.0 -15.0
v -18.0 -62.0 -13.2
v -18.0 -62.2 -13.0
v -18.0 -62.5 -12.0
v -18.0 -62.5 -11.0
v -18.0 -62.3 -10.0
v -18.7 -62.0 -10.0
v -18.0 -62.0 -9.6
v -18.0 -61.0 -13.5
v -18.0 -61.6 -9.0
v -18.0 -61.5 -8.0
v -18.0 -61.3 -7.0
v -18.0 -61.0 -6.6
v -18.0 -60.0 -13.4
v -18.0 -60.5 -6.0
v -18.0 -60.0 -5.4
v -18.0 -59.0 -13.4
v -18.0 -59.4 -5.0
v -18.3 -59.0 -5.0
v -18.0 -59.0 -4.7
v -18.0 -58.0 -13.4
v -18.0 -58.3 -5.0
v -18.0 -58.0 -5.1
v -18.0 -57.0 -13.4
v -18.7 -57.0 -6.0
v -18.0 -57.7 -5.0
v -18.3 -57.0 -5.0
v -18.0 -57.0 -4.7
v -18.0 -56.0 -13.2
v -18.7 -56.0 -6.0
v -18.4 -56.0 -5.0
v -18.0 -56.0 -4.6
v -18.0 -55.7 -13.0
v -18.0 -55.0 -12.5
v -18.4 -55.0 -5.0
v -18.0 -55.0 -4.6
v -18.0 -54.5 -12.0
v -18.0 -54.0 -11.5
v -18.4 -54.0 -5.0
v -18.0 -54.0 -4.7
v -18.0 -53.6 -11.0
v -18.0 -53.3 -10.0
v -18.4 -53.0 -9.0
v -18.0 -53.0 -9.6
v -18.6 -53.0 -8.0
v -18.6 -53.0 -7.0
v -18.5 -53.0 -6.0
v -18.0 -53.0 -5.0
v -18.0 -53.0 -5.0
v -18.0 -52.3 -9.0
v -18.4 -52.0 -8.0
v -18.0 -52.0 -8.8
v -18.4 -52.0 -7.0
v -18.0 -52.0 -6.5
v -18.0 -52.5 -6.0
v -18.0 -53.0 -5.0
v -18.3 -51.0 -9.0
v -18.0 -51.0 -9.4
v -18.0 -51.7 -9.0
v -18.6 -51.0 -8.0
v -18.4 -51.0 -7.0
v -18.0 -51.0 -6.6
v -18.5 -50.0 -9.0
v -18.0 -50.0 -9.6
v -18.5 -50.0 -7.0
v -18.0 -50.0 -6.6
v -18.3 -49.0 -10.0
v -18.0 -49.0 -10.3
v -18.0 -49.5 -10.0
v -18.7 -49.0 -9.0
v -18.0 -49.0 -6.6
v -18.5 -48.0 -10.0
v -18.0 -48.0 -10.7
v -18.0 -48.5 -7.0
v -18.0 -48.0 -7.5
v -18.3 -47.0 -13.0
v -18.0 -47.0 -13.4
v -18.0 -47.3 -13.0
v -18.0 -47.5 -12.0
v -18.4 -47.0 -12.0
v -18.0 -47.6 -11.0
v -18.4 -47.0 -11.0
v -18.7 -47.0 -10.0
v -18.0 -47.3 -8.0
v -18.0 -47.0 -8.3
v -19.0 -46.0 -14.0
v -18.0 -46.0 -14.5
v -18.0 -46.5 -14.0
v -18.6 -46.0 -13.0
v -18.5 -46.0 -12.0
v -18.6 -46.0 -11.0
v -18.0 -46.0 -8.3
v -18.0 -45.0 -15.0
v -18.0 -45.0 -15.0
v -18.0 -45.0 -15.0
v -18.5 -45.0 -13.0
v -18.4 -45.0 -12.0
v -18.5 -45.0 -11.0
v -18.0 -45.1 -8.0
v -18.1 -45.0 -8.0
v -18.0 -45.0 -7.9
v -18.0 -45.0 -15.0
v -18.0 -44.4 -14.0
v -18.0 -44.5 -13.0
v -18.0 -44.5 -12.0
v -18.0 -44.4 -11.0
v -18.1 -44.0 -10.0
v -18.0 -44.0 -10.2
v -18.0 -44.0 -9.8
v -18.0 -44.4 -9.0
v -18.0 -44.9 -8.0
v -18.0 -43.9 -10.0
v -17.6 -62.0 -13.0
v -17.0 -62.0 -12.5
v -17.0 -62.4 -12.0
v -17.0 -62.5 -11.0
v -17.0 -62.4 -10.0
v -17.0 -62.0 -9.5
v -17.0 -61.0 -13.2
v -17.0 -61.3 -13.0
v -17.0 -61.6 -9.0
v -17.0 -61.3 -8.0
v -17.5 -61.0 -7.0
v -17.0 -61.0 -7.5
v -17.1 -61.0 -4.0
v -17.0 -61.0 -4.1
v -17.0 -61.1 -4.0
v -17.0 -61.0 -3.9
v -17.0 -60.7 -13.0
v -17.4 -60.0 -13.0
v -17.0 -60.0 -12.7
v -17.0 -60.7 -7.0
v -17.0 -60.6 -6.0
v -17.0 -60.6 -5.0
v -17.6 -60.0 -5.0
v -17.5 -60.0 -4.0
v -17.0 -60.0 -3.0
v -17.0 -60.0 -3.0
v -17.0 -60.0 -3.0
v -17.5 -59.0 -13.0
v -17.0 -59.0 -12.6
v -17.5 -59.0 -4.0
v -17.0 -59.0 -3.5
v -17.0 -60.0 -3.0
v -17.5 -58.0 -13.0
v -17.0 -58.0 -12.6
v -17.9 -58.0 -5.0
v -17.4 -58.0 -4.0
v -17.0 -58.0 -3.6
v -17.5 -57.0 -13.0
v -17.0 -57.0 -12.5
v -17.3 -57.0 -4.0
v -17.0 -57.0 -3.8
v -17.7 -56.0 -13.0
v -17.0 -56.0 -12.5
v -17.0 -56.7 -4.0
v -17.0 -56.0 -4.4
v -17.0 -55.0 -12.4
v -17.0 -55.0 -4.5
v -17.0 -54.4 -12.0
v -17.0 -54.0 -11.7
v -17.0 -54.0 -4.6
v -17.0 -53.1 -11.0
v -17.7 -53.0 -10.0
v -17.0 -53.0 -10.9
v -18.0 -53.0 -5.0
v -17.0 -53.4 -5.0
v -17.0 -53.0 -5.4
v -17.3 -52.0 -11.0
v -17.0 -52.0 -11.4
v -17.0 -52.7 -11.0
v -17.5 -52.0 -10.0
v -17.8 -52.0 -9.0
v -17.0 -52.3 -6.0
v -17.0 -52.0 -6.3
v -17.3 -51.0 -11.0
v -17.0 -51.0 -11.4
v -17.6 -51.0 -10.0
v -17.0 -51.0 -6.5
v -17.0 -50.3 -11.0
v -17.6 -50.0 -10.0
v -17.0 -50.0 -10.8
v -17.0 -50.0 -6.4
v -17.4 -49.0 -11.0
v -17.0 -49.0 -11.5
v -17.0 -49.7 -11.0
v -17.0 -49.0 -6.6
v -17.4 -48.0 -12.0
v -17.0 -48.0 -12.6
v -17.0 -48.5 -12.0
v -17.7 -48.0 -11.0
v -17.0 -48.4 -7.0
v -17.0 -48.0 -7.3
v -17.1 -47.0 -14.0
v -17.0 -47.0 -14.1
v -17.0 -47.1 -14.0
v -17.0 -47.7 -13.0
v -17.6 -47.0 -8.0
v -17.0 -47.0 -7.7
v -17.0 -46.0 -14.5
v -17.0 -46.2 -8.0
v -17.0 -46.0 -8.1
v -17.0 -45.0 -15.1
v -17.0 -45.1 -15.0
v -17.0 -45.6 -8.0
v -17.0 -45.0 -7.8
v -17.0 -44.9 -15.0
v -17.5 -44.0 -14.0
v -17.0 -44.0 -14.6
v -17.6 -44.0 -13.0
v -17.6 -44.0 -12.0
v -17.6 -44.0 -11.0
v -17.0 -44.4 -9.0
v -17.0 -44.0 -9.5
v -17.0 -44.8 -8.0
v -17.1 -43.0 -15.0
v -17.0 -43.0 -15.1
v -17.0 -43.1 -15.0
v -17.5 -43.0 -14.0
v -17.5 -43.0 -13.0
v -17.3 -43.0 -12.0
v -17.0 -43.0 -11.6
v -17.0 -43.4 -11.0
v -17.0 -43.6 -10.0
v -17.0 -42.9 -15.0
v -17.4 -42.0 -14.0
v -17.0 -42.0 -14.5
v -17.4 -42.0 -13.0
v -17.0 -42.0 -12.6
v -17.0 -42.7 -12.0
v -17.1 -41.0 -14.0
v -17.0 -41.0 -14.1
v -17.0 -41.0 -13.0
v -17.0 -41.0 -13.0
v -17.0 -40.9 -14.0
v -16.0 -62.0 -12.3
v -16.0 -62.3 -12.0
v -16.0 -62.5 -11.0
v -16.0 -62.4 -10.0
v -16.0 -62.0 -9.6
v -16.8 -61.0 -13.0
v -16.0 -61.0 -12.5
v -16.0 -61.4 -9.0
v -16.5 -61.0 -8.0
v -16.0 -61.0 -8.5
v -16.4 -61.0 -6.0
v -16.0 -61.0 -6.4
v -16.0 -61.3 -6.0
v -16.0 -61.5 -5.0
v -16.6 -61.0 -5.0
v -16.0 -61.4 -4.0
v -16.0 -61.0 -3.6
v -16.0 -60.0 -12.4
v -16.0 -60.7 -8.0
v -16.0 -60.6 -7.0
v -16.0 -60.1 -3.0
v -16.0 -60.0 -2.9
v -16.0 -59.0 -12.4
v -16.0 -59.9 -3.0
v -16.0 -59.0 -3.4
v -16.0 -58.0 -12.3
v -16.0 -58.0 -3.5
v -16.0 -57.5 -12.0
v -16.4 -57.0 -12.0
v -16.0 -57.0 -11.7
v -16.0 -57.0 -3.6
v -16.4 -56.0 -12.0
v -16.0 -56.0 -11.7
v -16.0 -56.5 -4.0
v -16.0 -56.0 -4.4
v -16.0 -55.0 -12.2
v -16.0 -55.5 -12.0
v -16.0 -55.0 -4.5
v -16.4 -54.0 -12.0
v -16.0 -54.0 -12.2
v -16.0 -54.0 -4.6
v -16.2 -53.0 -12.0
v -16.0 -53.0 -12.2
v -16.9 -53.0 -11.0
v -16.0 -53.5 -5.0
v -16.0 -53.0 -5.4
v -16.3 -52.0 -12.0
v -16.0 -52.0 -12.2
v -16.5 -52.0 -6.0
v -16.0 -52.0 -5.7
v -16.3 -51.0 -12.0
v -16.0 -51.0 -12.2
v -16.0 -51.2 -6.0
v -16.0 -51.0 -6.1
v -16.3 -50.0 -12.0
v -16.0 -50.0 -12.3
v -16.8 -50.0 -11.0
v -16.0 -50.7 -6.0
v -16.3 -50.0 -6.0
v -16.0 -50.0 -5.8
v -16.0 -49.0 -13.0
v -16.0 -49.0 -13.0
v -16.0 -49.0 -13.0
v -16.6 -49.0 -12.0
v -16.0 -49.6 -6.0
v -16.0 -49.0 -6.3
v -16.5 -48.0 -13.0
v -16.0 -48.0 -13.3
v -16.5 -48.0 -7.0
v -16.0 -48.0 -6.7
v -16.9 -47.0 -14.0
v -16.0 -47.0 -13.5
v -16.0 -47.5 -7.0
v -16.0 -47.0 -7.3
v -16.4 -46.0 -14.0
v -16.0 -46.0 -13.7
v -16.8 -46.0 -8.0
v -16.0 -46.0 -7.5
v -16.9 -45.0 -15.0
v -16.0 -45.0 -14.4
v -16.0 -45.6 -14.0
v -16.0 -45.0 -7.8
v -16.0 -44.0 -14.6
v -16.0 -44.4 -9.0
v -16.0 -44.0 -9.5
v -16.0 -44.8 -8.0
v -16.0 -43.0 -15.2
v -16.0 -43.3 -15.0
v -16.2 -43.0 -11.0
v -16.0 -43.0 -10.8
v -16.0 -43.5 -10.0
v -16.1 -42.0 -15.0
v -16.0 -42.0 -15.1
v -16.0 -42.5 -12.0
v -16.0 -42.0 -12.6
v -16.0 -42.9 -11.0
v -16.0 -41.9 -15.0
v -16.0 -41.0 -14.1
v -16.0 -41.6 -13.0
v -16.0 -41.0 -13.9
v -16.0 -41.0 -14.0
v -15.1 -62.0 -12.0
v -15.0 -62.0 -11.9
v -15.0 -62.2 -11.0
v -15.0 -62.1 -10.0
v -15.0 -62.0 -9.9
v -15.1 -62.0 -5.0
v -15.0 -62.0 -5.1
v -15.0 -62.1 -5.0
v -15.0 -62.0 -4.9
v -15.5 -61.0 -12.0
v -15.0 -61.4 -11.0
v -15.1 -61.0 -11.0
v -15.0 -61.0 -10.7
v -15.4 -61.0 -9.0
v -15.0 -61.0 -9.5
v -15.0 -61.0 -6.5
v -15.0 -61.5 -6.0
v -15.0 -61.4 -4.0
v -15.0 -61.0 -3.6
v -15.5 -60.0 -12.0
v -15.0 -60.0 -11.4
v -15.0 -60.7 -11.0
v -15.0 -60.7 -9.0
v -15.0 -60.5 -8.0
v -15.0 -60.6 -7.0
v -15.9 -60.0 -3.0
v -15.0 -60.0 -3.5
v -15.5 -59.0 -12.0
v -15.0 -59.0 -11.5
v -15.0 -59.0 -3.6
v -15.6 -58.0 -12.0
v -15.0 -58.0 -11.4
v -15.0 -58.0 -3.6
v -15.0 -57.0 -11.4
v -15.0 -57.0 -3.8
v -15.0 -56.0 -11.4
v -15.0 -56.7 -4.0
v -15.0 -56.0 -4.4
v -15.7 -55.0 -12.0
v -15.0 -55.0 -11.4
v -15.0 -55.0 -4.5
v -15.7 -54.0 -12.0
v -15.0 -54.0 -11.5
v -15.0 -54.0 -4.6
v -15.7 -53.0 -12.0
v -15.0 -53.0 -11.5
v -15.0 -53.3 -5.0
v -15.0 -53.0 -5.2
v -15.7 -52.0 -12.0
v -15.0 -52.0 -11.5
v -15.0 -52.0 -5.2
v -15.7 -51.0 -12.0
v -15.0 -51.0 -11.5
v -15.9 -51.0 -6.0
v -15.0 -51.7 -5.0
v -15.4 -51.0 -5.0
v -15.0 -51.0 -4.0
v -15.0 -51.0 -4.0
v -15.0 -51.0 -4.0
v -15.6 -50.0 -12.0
v -15.0 -50.0 -11.6
v -15.3 -50.0 -5.0
v -15.0 -50.0 -4.7
v -15.0 -51.0 -4.0
v -16.0 -49.0 -13.0
v -15.0 -49.0 -12.3
v -15.0 -49.5 -12.0
v -15.5 -49.0 -6.0
v -15.0 -49.0 -5.6
v -15.0 -49.7 -5.0
v -15.7 -48.0 -13.0
v -15.0 -48.0 -12.5
v -15.0 -48.6 -6.0
v -15.0 -48.0 -6.5
v -15.4 -47.0 -13.0
v -15.0 -47.0 -12.6
v -15.5 -47.0 -7.0
v -15.0 -47.0 -6.7
v -15.0 -46.0 -13.3
v -15.0 -46.5 -13.0
v -15.0 -46.0 -7.0
v -15.0 -46.0 -7.0
v -15.5 -45.0 -14.0
v -15.0 -45.0 -13.6
v -15.6 -45.0 -8.0
v -15.0 -45.4 -8.0
v -15.0 -45.0 -8.5
v -15.0 -46.0 -7.0
v -15.0 -44.0 -14.3
v -15.0 -44.4 -14.0
v -15.0 -44.6 -9.0
v -15.0 -44.0 -9.7
v -15.7 -43.0 -15.0
v -15.0 -43.0 -14.3
v -15.4 -43.0 -12.0
v -15.0 -43.3 -12.0
v -15.0 -43.0 -12.5
v -15.8 -43.0 -11.0
v -15.0 -43.5 -11.0
v -15.0 -43.8 -10.0
v -15.9 -42.0 -15.0
v -15.0 -42.7 -14.0
v -15.5 -42.0 -14.0
v -15.6 -42.0 -13.0
v -15.0 -42.7 -13.0
v -16.0 -41.0 -14.0
v -14.8 -62.0 -11.0
v -14.9 -62.0 -10.0
v -14.0 -62.0 -5.1
v -14.0 -62.1 -5.0
v -14.0 -62.0 -4.9
v -14.7 -61.0 -10.0
v -14.0 -61.0 -6.5
v -14.0 -61.5 -6.0
v -14.0 -61.1 -4.0
v -14.0 -61.0 -3.9
v -14.7 -60.0 -11.0
v -14.4 -60.0 -10.0
v -14.0 -60.3 -9.0
v -14.0 -60.0 -9.3
v -14.0 -60.4 -8.0
v -14.0 -60.6 -7.0
v -14.4 -60.0 -4.0
v -14.0 -60.8 -4.0
v -14.0 -60.0 -4.3
v -14.6 -59.0 -11.0
v -14.4 -59.0 -10.0
v -14.0 -59.0 -9.6
v -14.5 -59.0 -4.0
v -14.0 -59.0 -4.4
v -14.6 -58.0 -11.0
v -14.4 -58.0 -10.0
v -14.0 -58.0 -9.6
v -14.5 -58.0 -4.0
v -14.0 -58.0 -4.4
v -14.6 -57.0 -11.0
v -14.4 -57.0 -10.0
v -14.0 -57.0 -9.6
v -14.7 -57.0 -4.0
v -14.0 -57.0 -4.4
v -14.6 -56.0 -11.0
v -14.4 -56.0 -10.0
v -14.0 -56.0 -9.6
v -14.0 -56.0 -4.5
v -14.6 -55.0 -11.0
v -14.4 -55.0 -10.0
v -14.0 -55.0 -9.5
v -14.0 -55.0 -4.5
v -14.6 -54.0 -11.0
v -14.3 -54.0 -10.0
v -14.0 -54.0 -9.6
v -14.0 -54.0 -4.6
v -14.5 -53.0 -11.0
v -14.0 -53.0 -10.4
v -14.0 -53.5 -10.0
v -14.6 -53.0 -5.0
v -14.0 -53.0 -4.6
v -14.5 -52.0 -11.0
v -14.0 -52.0 -10.5
v -14.8 -52.0 -5.0
v -14.0 -52.3 -4.0
v -14.3 -52.0 -4.0
v -14.0 -52.0 -3.7
v -14.5 -51.0 -11.0
v -14.0 -51.0 -10.5
v -14.0 -51.0 -3.6
v -14.5 -50.0 -11.0
v -14.0 -50.0 -10.5
v -14.0 -50.6 -4.0
v -14.0 -50.0 -4.6
v -14.7 -49.0 -12.0
v -14.3 -49.0 -11.0
v -14.0 -49.0 -10.6
v -14.0 -49.7 -5.0
v -14.0 -49.0 -5.7
v -14.5 -48.0 -12.0
v -14.0 -48.0 -11.4
v -14.0 -48.5 -11.0
v -14.1 -48.0 -7.0
v -14.0 -48.0 -7.0
v -14.0 -48.0 -7.0
v -14.0 -48.7 -6.0
v -14.4 -47.0 -12.0
v -14.0 -47.0 -11.5
v -14.5 -47.0 -7.0
v -14.0 -47.0 -7.4
v -14.7 -46.0 -13.0
v -14.1 -46.0 -12.0
v -14.0 -46.4 -11.0
v -14.2 -46.0 -11.0
v -14.0 -46.0 -10.6
v -15.0 -46.0 -7.0
v -14.0 -46.0 -7.7
v -14.6 -45.0 -13.0
v -14.3 -45.0 -12.0
v -14.4 -45.0 -11.0
v -14.0 -45.6 -10.0
v -14.4 -45.0 -10.0
v -14.6 -45.0 -9.0
v -14.0 -45.6 -9.0
v -14.0 -45.8 -8.0
v -14.8 -44.0 -14.0
v -14.5 -44.0 -13.0
v -14.2 -44.0 -12.0
v -14.6 -44.0 -11.0
v -14.8 -44.0 -10.0
v -14.8 -43.0 -14.0
v -14.7 -43.0 -13.0
v -13.9 -62.0 -5.0
v -13.0 -61.0 -6.4
v -13.0 -61.4 -6.0
v -13.0 -61.3 -5.0
v -13.9 -61.0 -4.0
v -13.0 -61.0 -4.7
v -13.7 -60.0 -9.0
v -13.4 -60.0 -8.0
v -13.0 -60.0 -7.7
v -13.0 -60.5 -7.0
v -13.0 -60.0 -4.6
v -13.0 -59.0 -9.4
v -13.0 -59.4 -9.0
v -13.0 -59.7 -8.0
v -13.0 -59.0 -4.6
v -13.0 -58.0 -9.4
v -13.0 -58.0 -4.6
v -13.0 -57.0 -9.2
v -13.0 -57.0 -4.5
v -13.0 -56.6 -9.0
v -13.4 -56.0 -9.0
v -13.0 -56.0 -8.6
v -13.0 -56.0 -4.5
v -13.5 -55.0 -9.0
v -13.0 -55.0 -8.5
v -13.0 -55.0 -4.6
v -13.5 -54.0 -9.0
v -13.0 -54.0 -8.5
v -13.2 -54.0 -5.0
v -13.0 -54.2 -5.0
v -13.0 -54.0 -5.1
v -13.7 -53.0 -10.0
v -13.4 -53.0 -9.0
v -13.0 -53.0 -8.5
v -13.3 -53.0 -5.0
v -13.0 -53.0 -5.2
v -13.6 -52.0 -10.0
v -13.4 -52.0 -9.0
v -13.0 -52.0 -8.5
v -13.0 -52.8 -5.0
v -13.0 -52.4 -4.0
v -13.0 -52.0 -3.1
v -13.6 -51.0 -10.0
v -13.4 -51.0 -9.0
v -13.0 -51.0 -8.5
v -13.0 -51.0 -3.7
v -13.6 -50.0 -10.0
v -13.4 -50.0 -9.0
v -13.0 -50.0 -8.5
v -13.0 -50.0 -6.0
v -13.0 -50.0 -6.0
v -13.0 -50.0 -6.0
v -13.6 -50.0 -5.0
v -13.0 -50.5 -5.0
v -13.0 -50.8 -4.0
v -13.6 -49.0 -10.0
v -13.4 -49.0 -9.0
v -13.0 -49.0 -8.5
v -13.5 -49.0 -6.0
v -13.0 -49.0 -6.4
v -13.7 -48.0 -11.0
v -13.5 -48.0 -10.0
v -13.4 -48.0 -9.0
v -13.0 -48.0 -8.4
v -13.9 -48.0 -7.0
v -13.0 -48.0 -6.6
v -13.7 -47.0 -11.0
v -13.5 -47.0 -10.0
v -13.5 -47.0 -9.0
v -13.0 -47.6 -8.0
v -13.4 -47.0 -8.0
v -13.0 -47.3 -7.0
v -13.7 -46.0 -10.0
v -13.6 -46.0 -9.0
v -13.8 -46.0 -8.0
v -12.0 -61.0 -6.0
v -12.0 -61.0 -6.0
v -12.7 -61.0 -5.0
v -12.0 -61.0 -6.0
v -12.0 -60.0 -7.3
v -12.0 -60.3 -7.0
v -12.5 -60.0 -5.0
v -12.0 -60.0 -5.6
v -12.0 -59.0 -9.0
v -12.0 -59.0 -9.0
v -12.0 -59.4 -8.0
v -12.5 -59.0 -5.0
v -12.0 -59.0 -5.5
v -12.0 -59.0 -9.0
v -12.5 -58.0 -9.0
v -12.0 -58.0 -8.5
v -12.4 -58.0 -5.0
v -12.0 -58.0 -5.4
v -12.7 -57.0 -9.0
v -12.0 -57.4 -8.0
v -12.3 -57.0 -8.0
v -12.0 -57.0 -7.6
v -12.0 -57.4 -5.0
v -12.0 -57.0 -4.8
v -12.5 -56.0 -8.0
v -12.0 -56.0 -7.4
v -12.0 -56.0 -4.8
v -12.5 -55.0 -8.0
v -12.0 -55.0 -7.4
v -12.0 -55.0 -4.7
v -12.5 -54.0 -8.0
v -12.0 -54.0 -7.5
v -12.3 -54.0 -5.0
v -12.0 -54.0 -4.9
v -12.5 -53.0 -8.0
v -12.0 -53.0 -7.5
v -12.0 -53.9 -5.0
v -12.0 -53.0 -5.4
v -12.5 -52.0 -8.0
v -12.0 -52.0 -7.5
v -12.0 -52.2 -5.0
v -12.5 -52.0 -4.0
v -12.0 -52.0 -4.8
v -12.5 -51.0 -8.0
v -12.0 -51.0 -7.5
v -12.4 -51.0 -5.0
v -12.0 -51.8 -5.0
v -12.0 -51.0 -5.5
v -12.8 -51.0 -4.0
v -12.5 -50.0 -8.0
v -12.0 -50.0 -7.3
v -13.0 -50.0 -6.0
v -12.0 -50.0 -5.8
v -12.6 -49.0 -8.0
v -12.0 -49.5 -7.0
v -12.3 -49.0 -7.0
v -12.0 -49.0 -6.1
v -12.0 -49.0 -6.0
v -12.0 -49.0 -6.0
v -12.7 -48.0 -8.0
v -12.0 -48.0 -7.1
v -12.0 -48.1 -7.0
v -12.0 -48.8 -6.0
v -12.0 -48.0 -6.6
v -12.0 -47.9 -7.0
v -12.0 -61.0 -6.0
v -11.8 -60.0 -7.0
v -11.7 -60.0 -6.0
v -12.0 -59.0 -9.0
v -11.6 -59.0 -8.0
v -11.5 -59.0 -7.0
v -11.6 -59.0 -6.0
v -11.6 -58.0 -8.0
v -11.1 -58.0 -7.0
v -11.5 -58.0 -6.0
v -11.5 -57.0 -7.0
v -11.6 -57.0 -6.0
v -11.8 -57.0 -5.0
v -11.7 -56.0 -7.0
v -11.9 -56.0 -6.0
v -11.8 -56.0 -5.0
v -11.6 -55.0 -7.0
v -11.6 -55.0 -6.0
v -11.7 -55.0 -5.0
v -11.6 -54.0 -7.0
v -11.5 -54.0 -6.0
v -11.9 -54.0 -5.0
v -11.6 -53.0 -7.0
v -11.6 -53.0 -6.0
v -11.6 -52.0 -7.0
v -11.5 -52.0 -6.0
v -11.9 -52.0 -5.0
v -11.6 -51.0 -7.0
v -11.6 -51.0 -6.0
v -11.8 -50.0 -7.0
v -11.8 -50.0 -6.0
v -12.0 -49.0 -6.0
v -12.0 -48.0 -7.0
f 3 2 1
f 1 4 3
f 2 5 1
f 1 5 4
f 8 7 6
f 10 9 6
f 6 9 8
f 12 11 10
f 10 11 9
f 12 13 11
f 6 7 14
f 14 7 15
f 14 2 3
f 10 14 3
f 6 14 10
f 10 3 4
f 16 10 4
f 12 10 16
f 13 12 17
f 17 12 16
f 15 18 14
f 18 20 19
f 18 19 5
f 14 18 5
f 2 14 5
f 16 4 5
f 19 16 5
f 21 16 19
f 17 16 22
f 22 16 21
f 19 20 23
f 23 20 24
f 26 21 25
f 21 23 25
f 21 19 23
f 21 26 22
f 24 27 23
f 23 27 25
f 30 29 28
f 7 8 28
f 8 30 28
f 8 31 30
f 32 8 9
f 32 31 8
f 33 9 11
f 33 32 9
f 11 13 33
f 33 13 34
f 28 29 35
f 35 29 36
f 35 15 7
f 35 7 28
f 17 38 37
f 34 17 37
f 13 17 34
f 38 39 37
f 36 40 35
f 40 42 41
f 40 41 18
f 35 40 18
f 15 35 18
f 41 20 18
f 44 43 38
f 17 44 38
f 22 44 17
f 38 43 39
f 42 45 41
f 20 41 45
f 46 20 45
f 24 20 46
f 25 47 26
f 47 48 26
f 48 22 26
f 48 44 22
f 46 49 24
f 24 49 27
f 25 27 47
f 27 50 47
f 27 49 50
f 47 50 48
f 53 52 51
f 55 54 51
f 51 54 53
f 55 56 54
f 59 58 57
f 59 57 52
f 57 51 52
f 57 60 51
f 51 61 55
f 51 60 61
f 56 55 62
f 62 55 61
f 58 63 57
f 57 63 60
f 60 63 64
f 60 64 61
f 61 64 65
f 61 65 62
f 67 66 30
f 30 66 29
f 68 30 31
f 68 67 30
f 69 31 32
f 69 68 31
f 70 32 33
f 70 69 32
f 72 71 34
f 71 33 34
f 71 70 33
f 72 73 71
f 66 36 29
f 74 36 66
f 37 72 34
f 37 39 72
f 39 73 72
f 39 75 73
f 40 36 76
f 36 77 76
f 36 74 77
f 76 42 40
f 79 78 43
f 79 43 44
f 39 43 75
f 75 43 78
f 77 80 76
f 80 82 81
f 80 81 45
f 76 80 45
f 42 76 45
f 81 46 45
f 48 79 44
f 48 83 79
f 82 84 81
f 84 86 85
f 84 85 49
f 81 84 49
f 46 81 49
f 87 50 49
f 87 49 85
f 87 88 50
f 88 48 50
f 88 83 48
f 86 89 85
f 85 89 87
f 87 89 90
f 87 90 88
f 92 91 53
f 53 91 52
f 93 53 54
f 93 92 53
f 54 56 93
f 93 56 94
f 96 95 59
f 59 95 58
f 59 52 91
f 59 91 96
f 62 94 56
f 62 97 94
f 63 58 98
f 58 99 98
f 58 95 99
f 100 64 63
f 100 63 98
f 64 100 101
f 102 64 101
f 65 64 102
f 62 65 97
f 97 65 102
f 99 103 98
f 98 103 100
f 100 103 104
f 100 104 101
f 107 106 105
f 105 108 107
f 111 110 109
f 111 109 106
f 109 105 106
f 109 112 105
f 108 105 113
f 113 105 112
f 110 114 109
f 109 114 112
f 112 114 115
f 112 115 113
f 118 117 116
f 116 119 118
f 116 117 67
f 117 66 67
f 117 120 66
f 121 119 116
f 67 121 116
f 68 121 67
f 122 68 69
f 122 121 68
f 123 69 70
f 123 122 69
f 124 70 71
f 124 123 70
f 126 125 73
f 125 71 73
f 125 124 71
f 126 127 125
f 120 74 66
f 128 74 120
f 75 129 126
f 75 126 73
f 127 126 130
f 130 126 129
f 128 77 74
f 131 77 128
f 133 132 78
f 133 78 79
f 75 78 129
f 78 134 129
f 78 132 134
f 129 134 130
f 131 135 77
f 77 135 80
f 82 80 135
f 82 135 136
f 139 138 137
f 138 133 137
f 133 83 137
f 133 79 83
f 136 140 82
f 82 140 84
f 86 84 140
f 86 140 141
f 139 137 142
f 139 142 143
f 88 142 83
f 83 142 137
f 141 144 86
f 86 144 89
f 142 90 143
f 90 144 143
f 90 89 144
f 90 142 88
f 146 145 92
f 92 145 91
f 147 92 93
f 147 146 92
f 93 94 147
f 147 94 148
f 150 149 96
f 96 149 95
f 96 91 145
f 96 145 150
f 97 148 94
f 97 151 148
f 153 99 152
f 99 149 152
f 99 95 149
f 154 153 152
f 101 155 102
f 155 156 102
f 156 97 102
f 156 151 97
f 153 103 99
f 104 103 153
f 157 104 153
f 154 157 153
f 158 104 157
f 155 101 104
f 158 155 104
f 159 155 158
f 156 155 160
f 160 155 159
f 157 161 158
f 158 161 159
f 159 161 162
f 159 162 160
f 163 106 107
f 108 163 107
f 166 165 164
f 110 111 164
f 111 166 164
f 111 167 166
f 111 106 163
f 168 111 163
f 167 111 168
f 108 113 163
f 113 169 163
f 169 168 163
f 169 113 170
f 172 171 170
f 170 171 169
f 172 173 171
f 164 165 174
f 174 165 175
f 176 114 110
f 164 176 110
f 174 176 164
f 177 115 114
f 177 114 176
f 170 113 115
f 177 170 115
f 178 170 177
f 170 179 172
f 170 178 179
f 173 172 180
f 172 181 180
f 172 179 181
f 183 182 181
f 181 182 180
f 185 184 183
f 183 184 182
f 187 186 185
f 185 186 184
f 187 188 186
f 174 175 189
f 189 175 190
f 174 191 176
f 174 189 191
f 191 117 118
f 177 191 118
f 176 191 177
f 177 118 119
f 192 177 119
f 178 177 192
f 178 193 179
f 178 192 193
f 179 194 181
f 179 193 194
f 181 195 183
f 181 194 195
f 183 196 185
f 183 195 196
f 185 197 187
f 185 196 197
f 188 187 198
f 198 187 197
f 189 190 199
f 199 190 200
f 189 201 191
f 189 199 201
f 201 120 117
f 201 117 191
f 121 192 119
f 192 121 122
f 192 122 193
f 193 122 123
f 193 123 194
f 194 123 124
f 194 124 195
f 195 124 125
f 195 125 196
f 196 125 127
f 202 196 127
f 197 196 202
f 198 197 203
f 203 197 202
f 199 200 204
f 204 200 205
f 199 206 201
f 199 204 206
f 206 128 120
f 206 120 201
f 208 207 202
f 127 208 202
f 130 208 127
f 202 207 203
f 205 209 204
f 211 210 209
f 210 204 209
f 210 206 204
f 210 131 128
f 210 128 206
f 133 212 132
f 213 134 132
f 213 132 212
f 213 214 134
f 214 130 134
f 214 208 130
f 211 215 210
f 215 217 216
f 215 216 135
f 210 215 135
f 131 210 135
f 216 136 135
f 139 218 138
f 218 219 138
f 138 219 133
f 219 220 133
f 220 212 133
f 212 220 213
f 213 220 221
f 213 221 214
f 217 222 216
f 222 224 223
f 222 223 140
f 216 222 140
f 136 216 140
f 223 141 140
f 143 225 218
f 143 218 139
f 219 218 226
f 226 218 225
f 224 227 223
f 227 229 228
f 227 228 144
f 223 227 144
f 141 223 144
f 225 143 144
f 228 225 144
f 230 225 228
f 226 225 231
f 231 225 230
f 229 232 228
f 228 232 230
f 230 232 233
f 230 233 231
f 234 145 146
f 147 235 146
f 146 235 234
f 148 235 147
f 237 236 150
f 150 236 149
f 150 145 234
f 238 150 234
f 237 150 238
f 240 239 238
f 234 240 238
f 235 240 234
f 151 240 148
f 148 240 235
f 236 241 149
f 149 241 152
f 154 152 241
f 154 241 242
f 243 239 240
f 240 151 243
f 151 244 243
f 151 156 244
f 242 157 154
f 245 157 242
f 160 244 156
f 160 246 244
f 245 247 157
f 157 247 161
f 161 248 162
f 247 248 161
f 160 162 246
f 246 162 248
f 249 165 166
f 249 166 250
f 166 251 250
f 166 167 251
f 252 167 168
f 252 251 167
f 253 168 169
f 253 252 168
f 255 253 254
f 253 171 254
f 253 169 171
f 173 254 171
f 256 175 249
f 249 175 165
f 249 250 257
f 249 257 256
f 258 255 254
f 258 254 173
f 180 258 173
f 259 258 180
f 260 180 182
f 260 259 180
f 261 182 184
f 261 260 182
f 263 261 262
f 261 186 262
f 261 184 186
f 188 262 186
f 264 190 256
f 256 190 175
f 256 257 265
f 256 265 264
f 266 263 262
f 262 188 266
f 188 267 266
f 188 198 267
f 268 200 264
f 264 200 190
f 264 265 269
f 264 269 268
f 203 267 198
f 203 270 267
f 271 205 268
f 268 205 200
f 268 269 272
f 268 272 271
f 208 273 207
f 273 274 207
f 274 203 207
f 274 270 203
f 271 209 205
f 211 209 271
f 272 211 271
f 275 211 272
f 277 276 273
f 208 277 273
f 214 277 208
f 273 276 274
f 215 211 278
f 211 279 278
f 211 275 279
f 278 217 215
f 219 280 220
f 281 221 220
f 281 220 280
f 281 282 221
f 282 214 221
f 282 277 214
f 279 283 278
f 283 285 284
f 283 284 222
f 278 283 222
f 217 278 222
f 284 224 222
f 226 286 280
f 226 280 219
f 280 287 281
f 280 286 287
f 282 281 288
f 281 289 288
f 281 287 289
f 289 290 288
f 285 291 284
f 291 293 292
f 291 292 227
f 284 291 227
f 224 284 227
f 292 229 227
f 231 294 286
f 231 286 226
f 286 295 287
f 286 294 295
f 287 296 289
f 287 295 296
f 290 289 297
f 297 289 296
f 293 298 292
f 292 298 229
f 298 232 229
f 298 299 232
f 232 300 233
f 299 300 232
f 231 233 294
f 233 301 294
f 233 300 301
f 294 301 295
f 295 301 302
f 295 302 296
f 296 302 303
f 296 303 297
f 306 305 304
f 304 307 306
f 304 305 308
f 308 305 309
f 307 304 310
f 304 311 310
f 304 308 311
f 311 312 310
f 315 314 313
f 315 313 309
f 313 308 309
f 313 316 308
f 318 311 317
f 311 316 317
f 311 308 316
f 311 318 312
f 313 314 319
f 319 314 320
f 322 316 321
f 316 319 321
f 316 313 319
f 316 322 317
f 325 324 323
f 325 323 320
f 323 319 320
f 323 326 319
f 321 319 327
f 327 319 326
f 330 329 328
f 328 331 330
f 323 324 332
f 332 324 333
f 323 334 326
f 323 332 334
f 327 326 335
f 335 326 334
f 336 236 237
f 238 337 237
f 237 337 336
f 239 337 238
f 329 338 328
f 328 338 331
f 333 339 332
f 332 339 334
f 334 339 340
f 334 340 335
f 336 241 236
f 241 336 242
f 336 341 242
f 336 337 341
f 243 342 239
f 342 337 239
f 342 341 337
f 244 342 243
f 343 245 341
f 341 245 242
f 344 341 342
f 343 341 344
f 246 344 244
f 244 344 342
f 343 247 245
f 247 343 248
f 248 343 344
f 248 344 246
f 346 345 251
f 251 345 250
f 347 251 252
f 347 346 251
f 348 252 253
f 348 347 252
f 350 349 255
f 349 253 255
f 349 348 253
f 350 351 349
f 345 257 250
f 352 257 345
f 258 350 255
f 353 351 350
f 258 353 350
f 259 353 258
f 354 259 260
f 354 353 259
f 355 260 261
f 355 354 260
f 261 263 355
f 355 263 356
f 352 265 257
f 357 265 352
f 358 356 263
f 358 263 266
f 266 267 358
f 358 267 359
f 357 269 265
f 360 269 357
f 270 362 361
f 359 270 361
f 267 270 359
f 362 363 361
f 360 272 269
f 364 272 360
f 366 365 362
f 270 366 362
f 274 366 270
f 362 365 363
f 364 275 272
f 367 275 364
f 277 368 276
f 366 274 369
f 274 368 369
f 368 370 369
f 274 276 368
f 370 371 369
f 367 279 275
f 372 279 367
f 282 373 368
f 282 368 277
f 368 374 370
f 368 373 374
f 371 370 375
f 375 370 374
f 372 376 279
f 279 376 283
f 285 283 376
f 285 376 377
f 288 373 282
f 373 288 290
f 378 373 290
f 374 373 378
f 375 374 379
f 379 374 378
f 377 380 285
f 285 380 291
f 293 291 380
f 293 380 381
f 297 382 378
f 297 378 290
f 379 378 383
f 383 378 382
f 381 384 293
f 293 384 298
f 298 385 299
f 384 385 298
f 385 387 386
f 300 385 386
f 299 385 300
f 388 301 300
f 388 300 386
f 389 302 301
f 389 301 388
f 390 303 302
f 390 302 389
f 382 297 303
f 390 382 303
f 391 382 390
f 383 382 392
f 392 382 391
f 387 393 386
f 395 394 393
f 394 386 393
f 394 388 386
f 388 396 389
f 388 394 396
f 398 390 397
f 390 396 397
f 390 389 396
f 390 398 391
f 391 398 399
f 391 399 392
f 402 401 400
f 402 400 395
f 400 394 395
f 400 403 394
f 394 404 396
f 394 403 404
f 397 396 405
f 405 396 404
f 400 401 406
f 406 401 407
f 406 305 306
f 403 406 306
f 400 406 403
f 403 306 307
f 408 403 307
f 404 403 408
f 405 404 409
f 409 404 408
f 412 411 410
f 412 410 407
f 410 406 407
f 410 413 406
f 413 309 305
f 413 305 406
f 310 408 307
f 310 312 408
f 312 409 408
f 312 414 409
f 410 411 415
f 415 411 416
f 415 314 315
f 413 415 315
f 410 415 413
f 413 315 309
f 418 417 318
f 418 318 317
f 312 318 414
f 414 318 417
f 421 420 419
f 423 422 419
f 419 422 421
f 425 424 423
f 423 424 422
f 424 425 416
f 425 415 416
f 425 426 415
f 426 320 314
f 426 314 415
f 428 427 322
f 428 322 321
f 317 322 418
f 418 322 427
f 431 430 429
f 431 429 420
f 429 419 420
f 429 432 419
f 419 433 423
f 419 432 433
f 423 434 425
f 423 433 434
f 434 324 325
f 426 434 325
f 425 434 426
f 426 325 320
f 327 428 321
f 327 435 428
f 438 437 436
f 438 436 430
f 430 436 429
f 436 329 429
f 329 330 429
f 429 330 331
f 439 429 331
f 432 429 439
f 432 440 433
f 432 439 440
f 433 441 434
f 433 440 441
f 441 333 324
f 441 324 434
f 335 443 442
f 435 335 442
f 327 335 435
f 443 444 442
f 437 445 436
f 436 445 329
f 445 338 329
f 445 446 338
f 331 338 439
f 338 447 439
f 338 446 447
f 439 447 440
f 440 447 448
f 440 448 441
f 441 448 449
f 449 451 450
f 449 450 339
f 441 449 339
f 333 441 339
f 339 450 452
f 453 339 452
f 340 339 453
f 335 340 443
f 340 454 443
f 340 453 454
f 443 454 444
f 451 455 450
f 450 455 452
f 456 345 346
f 456 346 457
f 346 458 457
f 346 347 458
f 459 347 348
f 459 458 347
f 460 348 349
f 460 459 348
f 349 351 460
f 460 351 461
f 463 462 456
f 462 345 456
f 462 352 345
f 463 456 457
f 464 461 351
f 464 351 353
f 465 353 354
f 465 464 353
f 467 465 466
f 465 355 466
f 465 354 355
f 356 466 355
f 470 469 468
f 468 471 470
f 473 357 472
f 357 462 472
f 357 352 462
f 474 473 472
f 475 467 466
f 475 466 356
f 358 475 356
f 476 475 358
f 478 477 359
f 477 358 359
f 477 476 358
f 477 478 469
f 478 468 469
f 478 479 468
f 471 468 480
f 468 481 480
f 468 479 481
f 481 482 480
f 483 360 473
f 473 360 357
f 473 474 484
f 473 484 483
f 361 478 359
f 478 361 363
f 485 478 363
f 479 478 485
f 487 481 486
f 481 485 486
f 481 479 485
f 481 487 482
f 488 364 483
f 483 364 360
f 483 484 489
f 483 489 488
f 366 490 365
f 485 363 365
f 490 485 365
f 491 485 490
f 486 485 492
f 492 485 491
f 493 367 488
f 488 367 364
f 488 489 494
f 488 494 493
f 369 490 366
f 490 369 371
f 495 490 371
f 491 490 495
f 492 491 496
f 496 491 495
f 497 372 493
f 493 372 367
f 493 494 498
f 493 498 497
f 500 499 495
f 371 500 495
f 375 500 371
f 495 499 496
f 497 376 372
f 377 376 497
f 498 377 497
f 501 377 498
f 379 500 375
f 379 502 500
f 501 503 377
f 377 503 380
f 381 380 503
f 381 503 504
f 383 502 379
f 383 505 502
f 504 506 381
f 381 506 384
f 506 508 507
f 385 506 507
f 384 506 385
f 507 387 385
f 511 510 509
f 510 505 509
f 505 392 509
f 505 383 392
f 514 513 512
f 514 512 508
f 512 507 508
f 512 515 507
f 516 393 387
f 507 516 387
f 515 516 507
f 516 395 393
f 518 517 398
f 518 398 397
f 509 399 511
f 399 517 511
f 399 398 517
f 399 509 392
f 512 513 519
f 519 513 520
f 512 521 515
f 512 519 521
f 521 401 402
f 516 521 402
f 515 521 516
f 516 402 395
f 405 518 397
f 405 522 518
f 520 523 519
f 525 524 523
f 524 519 523
f 524 521 519
f 524 407 401
f 524 401 521
f 409 522 405
f 409 526 522
f 529 528 527
f 529 527 525
f 525 527 524
f 527 411 524
f 411 412 524
f 524 412 407
f 414 526 409
f 414 530 526
f 533 532 531
f 533 531 528
f 531 527 528
f 531 534 527
f 534 416 411
f 534 411 527
f 536 535 417
f 536 417 418
f 414 417 530
f 530 417 535
f 539 538 537
f 420 421 537
f 421 539 537
f 421 540 539
f 422 531 532
f 540 422 532
f 421 422 540
f 531 422 424
f 531 424 534
f 534 424 416
f 428 541 427
f 541 542 427
f 542 418 427
f 542 536 418
f 537 538 431
f 538 430 431
f 538 543 430
f 537 431 420
f 545 544 541
f 428 545 541
f 435 545 428
f 541 544 542
f 547 546 438
f 438 546 437
f 438 430 543
f 438 543 547
f 548 545 435
f 548 435 442
f 442 444 548
f 548 444 549
f 546 550 437
f 437 550 445
f 550 552 551
f 446 550 551
f 445 550 446
f 553 447 446
f 553 446 551
f 554 448 447
f 554 447 553
f 555 449 448
f 555 448 554
f 555 451 449
f 557 556 453
f 557 453 452
f 453 558 454
f 556 558 453
f 444 454 549
f 549 454 558
f 561 560 559
f 561 559 552
f 559 551 552
f 559 562 551
f 551 563 553
f 551 562 563
f 553 564 554
f 553 563 564
f 566 555 565
f 555 564 565
f 555 554 564
f 555 566 451
f 566 455 451
f 566 567 455
f 452 455 557
f 557 455 567
f 560 568 559
f 570 569 568
f 569 559 568
f 569 562 559
f 562 571 563
f 562 569 571
f 573 564 572
f 564 571 572
f 564 563 571
f 564 573 565
f 569 570 574
f 574 570 575
f 577 571 576
f 571 574 576
f 571 569 574
f 571 577 572
f 575 578 574
f 574 578 576
f 580 579 458
f 458 579 457
f 581 458 459
f 581 580 458
f 582 459 460
f 582 581 459
f 460 461 582
f 582 461 583
f 584 462 463
f 585 584 463
f 457 585 463
f 579 585 457
f 586 583 461
f 586 461 464
f 588 586 587
f 586 465 587
f 586 464 465
f 467 587 465
f 591 590 589
f 593 592 589
f 589 592 591
f 469 470 593
f 470 592 593
f 470 594 592
f 470 471 594
f 594 471 595
f 584 472 462
f 474 472 584
f 585 474 584
f 596 474 585
f 597 588 587
f 597 587 467
f 475 597 467
f 598 597 475
f 476 589 590
f 598 476 590
f 475 476 598
f 589 476 477
f 589 477 593
f 593 477 469
f 599 595 471
f 599 471 480
f 480 482 599
f 599 482 600
f 596 484 474
f 601 484 596
f 603 602 487
f 603 487 486
f 482 487 600
f 600 487 602
f 601 489 484
f 604 489 601
f 492 603 486
f 492 605 603
f 607 494 606
f 494 604 606
f 494 489 604
f 608 607 606
f 496 605 492
f 496 609 605
f 610 498 607
f 607 498 494
f 607 608 611
f 607 611 610
f 613 612 499
f 613 499 500
f 496 499 609
f 609 499 612
f 615 614 610
f 614 498 610
f 614 501 498
f 615 610 611
f 502 613 500
f 502 616 613
f 503 501 617
f 501 618 617
f 501 614 618
f 617 504 503
f 505 616 502
f 505 619 616
f 617 618 620
f 620 618 621
f 622 506 504
f 617 622 504
f 620 622 617
f 622 508 506
f 624 623 510
f 624 510 511
f 505 510 619
f 619 510 623
f 620 621 625
f 625 621 626
f 625 513 514
f 622 625 514
f 620 625 622
f 622 514 508
f 518 627 517
f 627 628 517
f 628 511 517
f 628 624 511
f 625 626 629
f 629 626 630
f 629 520 513
f 629 513 625
f 632 631 627
f 518 632 627
f 522 632 518
f 627 631 628
f 629 630 633
f 633 630 634
f 635 523 520
f 629 635 520
f 633 635 629
f 635 525 523
f 526 637 636
f 632 526 636
f 522 526 632
f 637 638 636
f 641 640 639
f 641 639 634
f 639 633 634
f 639 642 633
f 642 528 529
f 635 642 529
f 633 642 635
f 635 529 525
f 644 643 637
f 526 644 637
f 530 644 526
f 637 643 638
f 639 640 645
f 645 640 646
f 645 532 533
f 642 645 533
f 639 645 642
f 642 533 528
f 536 647 535
f 647 648 535
f 648 530 535
f 648 644 530
f 649 538 539
f 646 650 645
f 650 539 645
f 539 540 645
f 539 650 649
f 645 540 532
f 652 651 647
f 536 652 647
f 542 652 536
f 647 651 648
f 653 543 649
f 649 543 538
f 649 650 654
f 649 654 653
f 545 655 544
f 655 656 544
f 656 542 544
f 656 652 542
f 657 546 547
f 658 657 547
f 658 547 543
f 659 658 543
f 653 659 543
f 659 653 654
f 548 655 545
f 548 549 655
f 549 656 655
f 549 660 656
f 657 550 546
f 552 550 657
f 658 552 657
f 661 552 658
f 663 662 556
f 663 556 557
f 556 664 558
f 662 664 556
f 549 558 660
f 660 558 664
f 666 665 561
f 561 665 560
f 561 552 661
f 561 661 666
f 565 667 566
f 566 667 668
f 669 566 668
f 567 566 669
f 557 567 663
f 663 567 669
f 568 560 670
f 560 671 670
f 560 665 671
f 670 570 568
f 673 672 573
f 673 573 572
f 565 573 667
f 573 674 667
f 573 672 674
f 667 674 668
f 671 675 670
f 570 670 675
f 676 570 675
f 575 570 676
f 678 677 577
f 678 577 576
f 572 577 673
f 673 577 677
f 676 679 575
f 575 679 578
f 576 578 678
f 678 578 679
f 680 579 580
f 680 580 681
f 580 682 681
f 580 581 682
f 683 581 582
f 683 682 581
f 582 583 683
f 683 583 684
f 687 686 685
f 685 688 687
f 689 585 680
f 680 585 579
f 680 681 690
f 691 680 690
f 689 680 691
f 692 691 690
f 583 586 693
f 694 583 693
f 684 583 694
f 588 693 586
f 696 695 591
f 591 695 590
f 592 685 686
f 696 592 686
f 591 592 696
f 697 688 685
f 592 697 685
f 594 697 592
f 594 595 697
f 697 595 698
f 699 596 689
f 689 596 585
f 691 701 700
f 699 691 700
f 689 691 699
f 701 691 692
f 702 694 693
f 702 693 588
f 597 702 588
f 703 702 597
f 704 597 598
f 704 703 597
f 598 590 695
f 598 695 704
f 595 599 705
f 706 595 705
f 698 595 706
f 600 705 599
f 707 601 699
f 699 601 596
f 699 700 708
f 699 708 707
f 706 705 602
f 603 706 602
f 709 706 603
f 602 705 600
f 710 604 707
f 707 604 601
f 707 708 711
f 707 711 710
f 605 709 603
f 605 712 709
f 710 606 604
f 608 606 710
f 711 608 710
f 713 608 711
f 609 712 605
f 609 714 712
f 713 611 608
f 715 611 713
f 717 716 612
f 717 612 613
f 609 612 714
f 714 612 716
f 718 614 615
f 719 718 615
f 611 719 615
f 715 719 611
f 616 717 613
f 616 720 717
f 721 618 718
f 718 618 614
f 718 719 722
f 718 722 721
f 619 720 616
f 619 723 720
f 724 621 721
f 721 621 618
f 721 722 725
f 721 725 724
f 727 726 623
f 727 623 624
f 619 623 723
f 723 623 726
f 728 626 724
f 724 626 621
f 724 725 729
f 724 729 728
f 628 727 624
f 628 730 727
f 731 630 728
f 728 630 626
f 728 729 732
f 728 732 731
f 632 733 631
f 730 628 734
f 628 733 734
f 733 735 734
f 628 631 733
f 737 736 735
f 735 736 734
f 737 738 736
f 739 634 731
f 731 634 630
f 731 732 740
f 731 740 739
f 636 733 632
f 733 636 638
f 741 733 638
f 735 733 741
f 743 737 742
f 737 741 742
f 737 735 741
f 737 743 738
f 744 640 641
f 745 744 641
f 745 641 634
f 746 745 634
f 739 746 634
f 746 739 740
f 644 747 643
f 747 748 643
f 643 748 638
f 748 749 638
f 749 741 638
f 741 749 742
f 750 646 744
f 744 646 640
f 744 745 751
f 744 751 750
f 753 752 747
f 644 753 747
f 648 753 644
f 747 752 748
f 754 650 750
f 750 650 646
f 750 751 755
f 750 755 754
f 652 756 651
f 756 757 651
f 757 648 651
f 757 753 648
f 759 758 754
f 758 650 754
f 758 654 650
f 759 754 755
f 656 760 756
f 656 756 652
f 757 756 761
f 761 756 760
f 762 658 659
f 763 762 659
f 654 763 659
f 758 763 654
f 766 765 764
f 765 767 760
f 660 765 760
f 656 660 760
f 764 765 660
f 760 767 761
f 769 768 762
f 768 658 762
f 768 661 658
f 769 762 763
f 771 770 662
f 771 662 663
f 764 664 766
f 664 770 766
f 664 662 770
f 664 764 660
f 772 665 666
f 773 772 666
f 661 773 666
f 768 773 661
f 776 775 774
f 778 777 774
f 778 774 775
f 669 668 777
f 778 669 777
f 779 669 778
f 663 669 771
f 771 669 779
f 780 671 772
f 772 671 665
f 772 773 781
f 782 772 781
f 780 772 782
f 784 783 782
f 784 782 781
f 783 784 776
f 783 776 774
f 673 783 774
f 672 673 774
f 672 774 674
f 674 774 777
f 674 777 668
f 780 675 671
f 675 780 676
f 780 785 676
f 780 782 785
f 678 785 677
f 785 783 677
f 785 782 783
f 677 783 673
f 785 679 676
f 679 785 678
f 786 681 682
f 683 787 682
f 682 787 786
f 684 787 683
f 789 788 687
f 687 788 686
f 687 688 789
f 789 688 790
f 786 690 681
f 690 786 692
f 786 791 692
f 786 787 791
f 694 791 684
f 684 791 787
f 793 792 696
f 696 792 695
f 696 686 788
f 696 788 793
f 794 790 688
f 794 688 697
f 697 698 794
f 794 698 795
f 796 700 701
f 692 791 701
f 791 796 701
f 791 797 796
f 797 791 694
f 798 797 694
f 702 798 694
f 799 797 798
f 800 702 703
f 800 798 702
f 801 703 704
f 801 800 703
f 704 695 792
f 704 792 801
f 804 803 802
f 803 795 802
f 795 706 802
f 795 698 706
f 805 708 796
f 796 708 700
f 806 796 797
f 805 796 806
f 797 799 807
f 797 807 806
f 804 802 808
f 804 808 809
f 709 808 706
f 706 808 802
f 810 711 805
f 805 711 708
f 811 805 806
f 810 805 811
f 806 807 812
f 806 812 811
f 809 808 813
f 809 813 814
f 712 813 709
f 709 813 808
f 815 713 810
f 810 713 711
f 816 810 811
f 815 810 816
f 811 812 817
f 811 817 816
f 814 813 818
f 814 818 819
f 714 818 712
f 712 818 813
f 820 715 815
f 815 715 713
f 821 815 816
f 820 815 821
f 816 817 822
f 816 822 821
f 819 818 716
f 717 819 716
f 823 819 717
f 716 818 714
f 824 719 820
f 820 719 715
f 825 820 821
f 824 820 825
f 821 822 826
f 821 826 825
f 720 823 717
f 720 827 823
f 828 722 824
f 824 722 719
f 829 824 825
f 828 824 829
f 825 826 830
f 825 830 829
f 723 827 720
f 723 831 827
f 832 725 828
f 828 725 722
f 829 834 833
f 832 829 833
f 828 829 832
f 834 829 830
f 727 835 726
f 835 836 726
f 836 723 726
f 836 831 723
f 837 729 832
f 832 729 725
f 832 833 838
f 832 838 837
f 730 839 835
f 730 835 727
f 836 835 840
f 835 841 840
f 835 839 841
f 841 842 840
f 843 732 837
f 837 732 729
f 837 838 844
f 837 844 843
f 734 839 730
f 839 734 736
f 839 736 841
f 736 738 841
f 738 842 841
f 738 845 842
f 846 740 843
f 843 740 732
f 843 844 847
f 843 847 846
f 849 848 743
f 849 743 742
f 738 743 845
f 845 743 848
f 850 745 746
f 740 846 746
f 846 850 746
f 846 851 850
f 846 847 852
f 846 852 851
f 854 853 749
f 854 749 748
f 742 749 849
f 849 749 853
f 855 751 850
f 850 751 745
f 851 857 856
f 855 851 856
f 850 851 855
f 857 851 852
f 860 859 858
f 752 753 858
f 859 752 858
f 861 752 859
f 748 752 854
f 854 752 861
f 862 755 855
f 855 755 751
f 855 856 863
f 855 863 862
f 860 858 864
f 860 864 865
f 757 864 753
f 753 864 858
f 866 758 759
f 755 862 759
f 862 866 759
f 862 867 866
f 862 863 868
f 869 862 868
f 867 862 869
f 870 869 868
f 865 864 871
f 865 871 872
f 761 871 757
f 757 871 864
f 873 763 866
f 866 763 758
f 874 866 867
f 873 866 874
f 875 867 869
f 874 867 875
f 869 870 876
f 877 869 876
f 875 869 877
f 879 878 877
f 879 877 876
f 765 766 878
f 879 765 878
f 880 765 879
f 871 767 872
f 767 880 872
f 767 765 880
f 767 871 761
f 881 768 769
f 763 873 769
f 873 881 769
f 873 882 881
f 883 873 874
f 882 873 883
f 884 874 875
f 883 874 884
f 885 875 877
f 884 875 885
f 771 885 770
f 885 878 770
f 885 877 878
f 770 878 766
f 886 773 881
f 881 773 768
f 887 881 882
f 886 881 887
f 776 887 775
f 887 883 775
f 887 882 883
f 775 883 778
f 778 883 884
f 778 884 779
f 779 884 885
f 779 885 771
f 886 781 773
f 781 886 784
f 784 886 887
f 784 887 776
f 888 788 789
f 790 888 789
f 890 889 793
f 793 889 792
f 793 788 888
f 891 793 888
f 890 793 891
f 893 891 892
f 892 891 794
f 891 888 794
f 888 790 794
f 795 892 794
f 894 799 798
f 800 895 798
f 798 895 894
f 895 800 896
f 800 897 896
f 800 801 897
f 801 792 889
f 801 889 897
f 893 892 803
f 804 893 803
f 898 893 804
f 803 892 795
f 900 899 894
f 899 799 894
f 899 807 799
f 900 894 895
f 900 895 901
f 901 895 896
f 809 898 804
f 809 902 898
f 899 812 807
f 903 812 899
f 814 902 809
f 814 904 902
f 903 817 812
f 905 817 903
f 819 904 814
f 819 906 904
f 908 822 907
f 822 905 907
f 822 817 905
f 909 908 907
f 823 906 819
f 823 910 906
f 911 826 908
f 908 826 822
f 908 909 912
f 908 912 911
f 827 910 823
f 827 913 910
f 914 830 911
f 911 830 826
f 911 912 915
f 911 915 914
f 918 917 916
f 917 913 916
f 913 831 916
f 913 827 831
f 919 833 834
f 830 914 834
f 914 919 834
f 914 920 919
f 914 915 921
f 914 921 920
f 918 916 922
f 918 922 923
f 836 922 831
f 831 922 916
f 924 838 919
f 919 838 833
f 925 919 920
f 924 919 925
f 920 921 926
f 920 926 925
f 927 923 922
f 927 922 836
f 840 927 836
f 928 927 840
f 840 842 928
f 928 842 929
f 930 844 924
f 924 844 838
f 931 924 925
f 930 924 931
f 925 926 932
f 925 932 931
f 845 929 842
f 845 933 929
f 934 847 930
f 930 847 844
f 935 930 931
f 934 930 935
f 931 932 936
f 931 936 935
f 939 938 937
f 941 940 937
f 941 937 938
f 848 849 940
f 941 848 940
f 942 848 941
f 845 848 933
f 933 848 942
f 943 852 934
f 934 852 847
f 944 934 935
f 943 934 944
f 935 936 945
f 935 945 944
f 939 937 946
f 939 946 947
f 854 946 853
f 946 940 853
f 946 937 940
f 853 940 849
f 948 856 857
f 852 943 857
f 943 948 857
f 943 949 948
f 950 943 944
f 949 943 950
f 944 945 951
f 944 951 950
f 860 952 859
f 953 947 946
f 859 953 946
f 861 859 946
f 953 859 952
f 861 946 854
f 954 863 948
f 948 863 856
f 955 948 949
f 954 948 955
f 956 949 950
f 955 949 956
f 950 951 957
f 958 950 957
f 956 950 958
f 957 959 952
f 865 957 952
f 860 865 952
f 958 957 865
f 952 959 953
f 954 868 863
f 868 954 870
f 954 960 870
f 954 955 960
f 961 955 956
f 960 955 961
f 962 956 958
f 961 956 962
f 872 962 865
f 865 962 958
f 960 876 870
f 876 960 879
f 879 960 961
f 879 961 880
f 880 961 962
f 880 962 872
f 964 963 890
f 890 963 889
f 966 964 965
f 964 891 965
f 964 890 891
f 893 965 891
f 968 967 897
f 897 967 896
f 897 889 963
f 897 963 968
f 966 965 969
f 966 969 970
f 898 969 893
f 893 969 965
f 972 971 900
f 900 971 899
f 973 900 901
f 973 972 900
f 901 896 967
f 901 967 973
f 970 969 974
f 970 974 975
f 902 974 898
f 898 974 969
f 977 903 976
f 903 971 976
f 903 899 971
f 978 977 976
f 975 974 979
f 975 979 980
f 904 979 902
f 902 979 974
f 981 905 977
f 977 905 903
f 977 978 982
f 983 977 982
f 981 977 983
f 984 983 982
f 985 980 979
f 979 904 985
f 904 986 985
f 904 906 986
f 981 907 905
f 907 981 909
f 981 987 909
f 981 983 987
f 983 984 988
f 983 988 987
f 910 986 906
f 910 989 986
f 990 912 987
f 987 912 909
f 987 988 991
f 987 991 990
f 913 989 910
f 913 992 989
f 993 915 990
f 990 915 912
f 990 991 994
f 990 994 993
f 918 995 917
f 995 996 917
f 996 913 917
f 996 992 913
f 997 921 993
f 993 921 915
f 993 994 998
f 993 998 997
f 1000 999 995
f 918 1000 995
f 923 1000 918
f 995 999 996
f 1001 926 997
f 997 926 921
f 997 998 1002
f 997 1002 1001
f 1003 1000 923
f 1003 923 927
f 1005 1003 1004
f 1003 928 1004
f 1003 927 928
f 929 1004 928
f 1006 932 1001
f 1001 932 926
f 1001 1002 1007
f 1001 1007 1006
f 1010 1009 1008
f 1008 1009 1005
f 1004 1008 1005
f 1011 1008 1004
f 933 1011 929
f 929 1011 1004
f 1012 936 1006
f 1006 936 932
f 1006 1007 1013
f 1006 1013 1012
f 939 1014 938
f 1015 1010 1008
f 938 1015 1008
f 941 938 1008
f 1015 938 1014
f 941 1008 942
f 942 1008 1011
f 942 1011 933
f 1016 945 1012
f 1012 945 936
f 1012 1013 1017
f 1018 1012 1017
f 1016 1012 1018
f 947 1018 939
f 1017 939 1018
f 939 1017 1014
f 1019 1014 1017
f 1014 1019 1020
f 1015 1014 1021
f 1021 1014 1020
f 1022 951 1016
f 1016 951 945
f 1018 1024 1023
f 1022 1018 1023
f 1016 1018 1022
f 1019 1025 1020
f 1024 1018 1026
f 947 1026 1018
f 1026 947 953
f 1020 1025 1021
f 1022 957 951
f 1023 1027 1022
f 1027 957 1022
f 1027 959 957
f 953 959 1026
f 1026 959 1027
f 1028 963 964
f 966 1028 964
f 1029 967 968
f 963 1028 968
f 1028 1029 968
f 1028 1030 1029
f 970 1030 966
f 966 1030 1028
f 1031 971 972
f 973 1032 972
f 972 1032 1031
f 967 1029 973
f 1029 1032 973
f 1029 1033 1032
f 1034 1029 1030
f 1033 1029 1034
f 975 1034 970
f 970 1034 1030
f 1031 976 971
f 976 1031 978
f 1031 1035 978
f 1031 1032 1035
f 1036 1032 1033
f 1035 1032 1036
f 1037 1033 1034
f 1036 1033 1037
f 980 1037 975
f 975 1037 1034
f 1035 982 978
f 982 1035 984
f 1035 1038 984
f 1035 1036 1038
f 1039 1036 1037
f 1038 1036 1039
f 985 1040 980
f 1040 1037 980
f 1040 1039 1037
f 986 1040 985
f 1041 988 1038
f 1038 988 984
f 1042 1038 1039
f 1041 1038 1042
f 1043 1039 1040
f 1042 1039 1043
f 989 1043 986
f 986 1043 1040
f 1044 991 1041
f 1041 991 988
f 1045 1041 1042
f 1044 1041 1045
f 1046 1042 1043
f 1045 1042 1046
f 992 1046 989
f 989 1046 1043
f 1047 994 1044
f 1044 994 991
f 1048 1044 1045
f 1047 1044 1048
f 1049 1045 1046
f 1048 1045 1049
f 996 1049 992
f 992 1049 1046
f 1050 998 1047
f 1047 998 994
f 1051 1047 1048
f 1050 1047 1051
f 1000 1051 999
f 1051 1049 999
f 1051 1048 1049
f 999 1049 996
f 1052 1002 1050
f 1050 1002 998
f 1053 1050 1051
f 1052 1050 1053
f 1003 1054 1000
f 1054 1051 1000
f 1054 1053 1051
f 1005 1054 1003
f 1055 1007 1052
f 1052 1007 1002
f 1056 1052 1053
f 1055 1052 1056
f 1010 1056 1009
f 1056 1054 1009
f 1056 1053 1054
f 1009 1054 1005
f 1057 1013 1055
f 1055 1013 1007
f 1058 1055 1056
f 1057 1055 1058
f 1015 1058 1010
f 1010 1058 1056
f 1057 1017 1013
f 1017 1057 1019
f 1057 1059 1019
f 1057 1058 1059
f 1021 1059 1015
f 1015 1059 1058
f 1060 1023 1024
f 1019 1059 1025
f 1060 1024 1026
f 1025 1059 1021
f 1060 1027 1023
f 1027 1060 1026
