v 30.8 -11.0 13.0
v 31.0 -11.0 12.7
v 31.0 -11.2 13.0
v 31.0 -11.0 13.9
v 30.8 -10.0 13.0
v 31.0 -10.0 12.7
v 31.0 -10.8 14.0
v 30.8 -10.0 14.0
v 31.0 -10.0 14.2
v 31.0 -9.6 13.0
v 31.0 -9.0 14.0
v 31.0 -9.0 14.0
v 31.0 -9.0 14.0
v 31.0 -9.0 14.0
v 31.7 -11.0 11.0
v 32.0 -11.0 10.5
v 32.0 -11.3 11.0
v 32.0 -11.5 12.0
v 31.5 -11.0 12.0
v 32.0 -11.7 13.0
v 32.0 -11.0 13.4
v 31.8 -10.0 8.0
v 32.0 -10.0 7.8
v 32.0 -10.3 8.0
v 32.0 -10.5 9.0
v 31.6 -10.0 9.0
v 32.0 -10.6 10.0
v 31.6 -10.0 10.0
v 31.5 -10.0 11.0
v 31.4 -10.0 12.0
v 31.3 -10.0 14.0
v 32.0 -10.0 13.6
v 31.7 -9.0 8.0
v 32.0 -9.0 7.7
v 31.5 -9.0 9.0
v 31.5 -9.0 10.0
v 31.5 -9.0 11.0
v 31.5 -9.0 12.0
v 31.3 -9.0 13.0
v 32.0 -9.6 14.0
v 32.0 -9.0 14.4
v 31.6 -8.0 8.0
v 32.0 -8.0 7.6
v 31.5 -8.0 9.0
v 31.5 -8.0 10.0
v 31.5 -8.0 11.0
v 31.5 -8.0 12.0
v 31.5 -8.0 13.0
v 31.5 -8.0 14.0
v 32.0 -8.0 14.6
v 31.7 -7.0 8.0
v 32.0 -7.0 7.6
v 31.6 -7.0 9.0
v 31.5 -7.0 10.0
v 31.5 -7.0 11.0
v 31.5 -7.0 12.0
v 31.5 -7.0 13.0
v 31.5 -7.0 14.0
v 32.0 -7.4 15.0
v 31.7 -7.0 15.0
v 32.0 -7.0 15.3
v 31.9 -6.0 8.0
v 32.0 -6.0 7.9
v 32.0 -6.0 8.3
v 32.0 -6.2 9.0
v 31.7 -6.0 10.0
v 32.0 -6.0 9.3
v 31.6 -6.0 11.0
v 31.6 -6.0 12.0
v 31.5 -6.0 13.0
v 31.5 -6.0 14.0
v 31.6 -6.0 15.0
v 32.0 -6.3 16.0
v 31.8 -6.0 16.0
v 32.0 -6.0 16.4
v 32.0 -5.9 8.0
v 32.0 -5.6 10.0
v 32.0 -5.5 11.0
v 32.0 -5.2 12.0
v 31.6 -5.0 13.0
v 32.0 -5.0 12.2
v 31.6 -5.0 14.0
v 31.9 -5.0 15.0
v 31.6 -5.0 16.0
v 32.0 -5.3 17.0
v 31.9 -5.0 17.0
v 32.0 -5.0 17.2
v 31.8 -4.0 12.0
v 32.0 -4.0 11.8
v 32.0 -4.6 12.0
v 31.5 -4.0 13.0
v 31.5 -4.0 14.0
v 31.6 -4.0 15.0
v 31.6 -4.0 16.0
v 32.0 -4.0 16.6
v 32.0 -4.7 17.0
v 32.0 -3.5 12.0
v 31.6 -3.0 13.0
v 32.0 -3.0 12.2
v 31.5 -3.0 14.0
v 31.5 -3.0 15.0
v 31.6 -3.0 16.0
v 32.0 -3.0 16.5
v 31.8 -2.0 12.0
v 32.0 -2.0 11.8
v 32.0 -2.5 12.0
v 31.5 -2.0 13.0
v 31.5 -2.0 14.0
v 31.5 -2.0 15.0
v 31.7 -2.0 16.0
v 32.0 -2.0 16.4
v 32.0 -1.7 12.0
v 31.8 -1.0 13.0
v 32.0 -1.0 12.6
v 31.6 -1.0 14.0
v 31.7 -1.0 15.0
v 32.0 -1.0 15.4
v 32.0 -1.6 16.0
v 32.0 -0.7 13.0
v 32.0 -0.5 14.0
v 32.0 -0.7 15.0
v 32.7 -12.0 11.0
v 33.0 -12.0 10.6
v 33.0 -12.3 11.0
v 33.0 -12.1 12.0
v 32.8 -12.0 12.0
v 33.0 -12.0 12.1
v 32.7 -11.0 8.0
v 33.0 -11.0 7.8
v 33.0 -11.2 8.0
v 33.0 -11.5 9.0
v 32.5 -11.0 9.0
v 33.0 -11.6 10.0
v 32.4 -11.0 10.0
v 33.0 -11.0 12.4
v 32.4 -11.0 13.0
v 33.0 -10.0 7.5
v 32.7 -10.0 13.0
v 33.0 -10.0 12.7
v 33.0 -9.0 7.5
v 33.0 -9.7 13.0
v 33.0 -9.4 14.0
v 33.0 -9.0 14.5
v 33.0 -8.0 7.5
v 33.0 -8.4 15.0
v 32.6 -8.0 15.0
v 33.0 -8.0 15.3
v 32.9 -7.0 7.0
v 33.0 -7.0 6.9
v 33.0 -7.1 7.0
v 33.0 -7.0 15.7
v 32.7 -6.0 7.0
v 33.0 -6.0 6.8
v 32.2 -6.0 9.0
v 33.0 -6.7 16.0
v 33.0 -6.4 17.0
v 32.5 -6.0 17.0
v 33.0 -6.2 18.0
v 32.8 -6.0 18.0
v 33.0 -6.0 18.2
v 32.8 -5.0 7.0
v 33.0 -5.0 6.8
v 32.9 -5.0 8.0
v 32.6 -5.0 9.0
v 32.4 -5.0 10.0
v 32.4 -5.0 11.0
v 32.1 -5.0 12.0
v 32.6 -5.0 18.0
v 33.0 -5.0 18.5
v 32.8 -4.0 7.0
v 33.0 -4.0 6.7
v 32.8 -4.0 8.0
v 33.0 -4.0 8.8
v 33.0 -4.1 9.0
v 32.7 -4.0 10.0
v 33.0 -4.0 9.1
v 32.4 -4.0 11.0
v 32.3 -4.0 17.0
v 32.7 -4.0 18.0
v 33.0 -4.0 18.3
v 33.0 -3.7 7.0
v 33.0 -3.6 8.0
v 33.0 -3.5 9.0
v 33.0 -3.0 9.0
v 33.0 -3.0 8.9
v 33.0 -3.0 10.0
v 32.5 -3.0 11.0
v 32.2 -3.0 12.0
v 32.5 -3.0 17.0
v 33.0 -3.0 17.6
v 33.0 -3.5 18.0
v 33.0 -2.9 9.0
v 32.8 -2.0 10.0
v 33.0 -2.0 9.7
v 32.5 -2.0 11.0
v 32.5 -2.0 17.0
v 33.0 -2.0 17.5
v 33.0 -1.7 10.0
v 32.7 -1.0 11.0
v 33.0 -1.0 10.6
v 32.4 -1.0 12.0
v 32.4 -1.0 16.0
v 32.7 -1.0 17.0
v 33.0 -1.0 17.3
v 33.0 -0.7 11.0
v 33.0 -0.5 12.0
v 33.0 -0.2 13.0
v 32.5 0.0 14.0
v 33.0 0.0 13.3
v 32.6 0.0 15.0
v 33.0 0.0 15.6
v 33.0 -0.3 16.0
v 33.0 -0.7 17.0
v 32.8 1.0 14.0
v 33.0 1.0 13.7
v 33.0 1.0 14.5
v 33.0 0.5 15.0
v 32.9 2.0 14.0
v 33.0 2.0 13.9
v 33.0 2.0 14.1
v 33.0 2.1 14.0
v 33.8 -13.0 11.0
v 34.0 -13.0 10.7
v 34.0 -13.2 11.0
v 34.0 -13.0 11.5
v 33.7 -12.0 9.0
v 34.0 -12.0 8.7
v 34.0 -12.3 9.0
v 34.0 -12.5 10.0
v 33.4 -12.0 10.0
v 34.0 -12.0 11.4
v 33.2 -12.0 12.0
v 34.0 -11.0 7.8
v 34.0 -11.3 8.0
v 34.0 -11.0 10.7
v 33.7 -11.0 11.0
v 34.0 -11.5 11.0
v 33.4 -11.0 12.0
v 34.0 -10.0 7.6
v 33.8 -10.0 11.0
v 34.0 -10.0 10.8
v 33.6 -10.0 12.0
v 34.0 -9.0 7.8
v 34.0 -9.8 11.0
v 34.0 -9.6 12.0
v 34.0 -9.5 13.0
v 34.0 -9.3 14.0
v 34.0 -9.0 14.4
v 34.0 -8.4 8.0
v 33.8 -8.0 8.0
v 34.0 -8.0 8.2
v 34.0 -8.5 15.0
v 34.0 -8.0 15.5
v 33.1 -7.0 7.0
v 34.0 -7.0 7.6
v 34.0 -7.7 8.0
v 34.0 -7.4 16.0
v 33.4 -7.0 16.0
v 34.0 -7.0 16.5
v 33.4 -6.0 7.0
v 34.0 -6.0 7.3
v 34.0 -6.7 17.0
v 34.0 -6.4 18.0
v 34.0 -6.0 18.4
v 34.0 -5.0 6.5
v 34.0 -5.6 7.0
v 34.0 -5.3 19.0
v 33.7 -5.0 19.0
v 34.0 -5.0 19.2
v 33.7 -4.0 6.0
v 34.0 -4.0 5.8
v 34.0 -4.3 6.0
v 33.0 -4.0 9.0
v 33.7 -4.0 19.0
v 34.0 -4.0 19.3
v 33.7 -3.0 6.0
v 34.0 -3.0 5.8
v 33.4 -3.0 7.0
v 33.3 -3.0 8.0
v 33.4 -3.0 18.0
v 34.0 -3.0 18.6
v 34.0 -3.6 19.0
v 34.0 -2.6 6.0
v 33.6 -2.0 7.0
v 34.0 -2.0 6.5
v 33.5 -2.0 8.0
v 33.3 -2.0 9.0
v 33.5 -2.0 18.0
v 34.0 -2.0 18.4
v 33.8 -1.0 7.0
v 34.0 -1.0 6.8
v 33.6 -1.0 8.0
v 33.6 -1.0 9.0
v 33.4 -1.0 10.0
v 33.7 -1.0 18.0
v 34.0 -1.0 18.3
v 34.0 -0.8 7.0
v 34.0 -0.6 8.0
v 34.0 -0.5 9.0
v 34.0 -0.4 10.0
v 33.6 0.0 11.0
v 34.0 0.0 10.5
v 33.5 0.0 12.0
v 33.2 0.0 13.0
v 33.3 0.0 16.0
v 33.6 0.0 17.0
v 34.0 0.0 17.4
v 34.0 -0.6 18.0
v 34.0 0.4 11.0
v 34.0 0.7 12.0
v 33.5 1.0 13.0
v 34.0 1.0 12.3
v 33.3 1.0 15.0
v 33.7 1.0 16.0
v 34.0 1.0 16.3
v 34.0 0.4 17.0
v 33.6 2.0 13.0
v 34.0 2.0 12.6
v 33.7 2.0 15.0
v 34.0 2.0 15.3
v 34.0 1.3 16.0
v 34.0 2.5 13.0
v 33.9 3.0 14.0
v 34.0 3.0 13.8
v 34.0 3.0 14.1
v 34.0 2.3 15.0
v 34.0 3.1 14.0
v 34.6 -13.0 10.0
v 35.0 -13.0 9.7
v 35.0 -13.2 10.0
v 35.0 -13.2 11.0
v 35.0 -13.0 11.2
v 35.0 -12.0 8.6
v 35.0 -12.4 9.0
v 35.0 -12.6 11.0
v 35.0 -12.0 10.7
v 34.5 -12.0 11.0
v 34.3 -11.0 8.0
v 35.0 -11.0 8.6
v 35.0 -11.0 10.3
v 34.4 -10.0 8.0
v 35.0 -10.0 8.8
v 34.8 -10.0 10.0
v 35.0 -10.4 10.0
v 35.0 -10.0 9.4
v 34.3 -9.0 8.0
v 35.0 -9.7 9.0
v 34.7 -9.0 9.0
v 35.0 -9.0 9.5
v 35.0 -9.6 10.0
v 35.0 -9.4 11.0
v 35.0 -9.4 12.0
v 35.0 -9.3 13.0
v 34.5 -9.0 14.0
v 35.0 -9.0 13.5
v 34.7 -8.0 9.0
v 35.0 -8.0 9.3
v 35.0 -8.7 14.0
v 35.0 -8.4 15.0
v 35.0 -8.0 15.5
v 34.5 -7.0 8.0
v 35.0 -7.0 8.4
v 35.0 -7.7 9.0
v 35.0 -7.6 16.0
v 35.0 -7.1 17.0
v 34.8 -7.0 17.0
v 35.0 -7.0 17.1
v 35.0 -6.0 7.5
v 35.0 -6.6 8.0
v 35.0 -6.3 18.0
v 35.0 -6.0 18.3
v 35.0 -5.0 6.5
v 35.0 -5.5 7.0
v 35.0 -5.3 19.0
v 35.0 -5.0 19.2
v 35.0 -4.0 5.6
v 35.0 -4.5 6.0
v 35.0 -4.0 19.4
v 35.0 -3.0 5.5
v 34.7 -3.0 19.0
v 35.0 -3.0 19.2
v 34.5 -2.0 6.0
v 35.0 -2.0 5.7
v 35.0 -2.7 19.0
v 35.0 -2.0 18.7
v 35.0 -1.5 6.0
v 35.0 -1.0 6.4
v 35.0 -1.0 18.5
v 35.0 -0.5 7.0
v 35.0 -0.2 8.0
v 34.6 0.0 9.0
v 35.0 0.0 8.4
v 34.4 0.0 10.0
v 34.6 0.0 18.0
v 35.0 0.0 18.2
v 35.0 0.4 9.0
v 35.0 0.9 10.0
v 34.5 1.0 11.0
v 35.0 1.0 10.2
v 34.3 1.0 12.0
v 35.0 0.6 17.0
v 35.0 1.0 16.4
v 35.0 0.2 18.0
v 34.9 2.0 10.0
v 35.0 2.0 9.9
v 35.0 1.5 10.0
v 34.5 2.0 11.0
v 34.4 2.0 12.0
v 35.0 1.4 16.0
v 35.0 2.0 15.5
v 35.0 2.1 10.0
v 34.8 3.0 11.0
v 35.0 3.0 10.7
v 34.6 3.0 12.0
v 34.4 3.0 13.0
v 35.0 2.5 15.0
v 35.0 3.0 14.5
v 35.0 3.2 11.0
v 35.0 3.4 12.0
v 35.0 3.8 13.0
v 35.0 3.4 14.0
v 36.0 -13.0 9.7
v 36.0 -13.3 10.0
v 36.0 -13.0 11.0
v 36.0 -13.0 11.0
v 36.0 -12.0 9.0
v 36.0 -12.0 9.0
v 36.0 -12.0 10.3
v 36.0 -12.0 9.0
v 35.4 -11.0 9.0
v 35.3 -11.0 10.0
v 36.0 -11.7 10.0
v 35.2 -10.0 9.0
v 35.4 -9.0 10.0
v 35.5 -9.0 11.0
v 35.5 -9.0 12.0
v 35.4 -9.0 13.0
v 36.0 -8.0 9.5
v 36.0 -8.5 10.0
v 36.0 -8.6 11.0
v 36.0 -8.6 12.0
v 36.0 -8.6 13.0
v 36.0 -8.5 14.0
v 36.0 -8.3 15.0
v 36.0 -8.0 15.3
v 36.0 -7.0 8.6
v 36.0 -7.4 9.0
v 36.0 -7.3 16.0
v 35.1 -7.0 17.0
v 36.0 -7.0 16.3
v 36.0 -6.0 7.5
v 36.0 -6.5 8.0
v 35.8 -6.0 17.0
v 36.0 -6.0 16.7
v 35.4 -6.0 18.0
v 36.0 -5.0 6.5
v 36.0 -5.5 7.0
v 36.0 -5.8 17.0
v 36.0 -5.5 18.0
v 35.3 -5.0 19.0
v 36.0 -5.0 18.5
v 36.0 -4.0 5.7
v 36.0 -4.4 6.0
v 35.6 -4.0 19.0
v 36.0 -4.0 18.7
v 36.0 -3.0 5.5
v 35.6 -3.0 19.0
v 36.0 -3.0 18.9
v 36.0 -2.0 5.5
v 36.0 -2.5 19.0
v 35.7 -2.0 19.0
v 36.0 -2.0 19.2
v 35.5 -1.0 6.0
v 36.0 -1.0 5.6
v 36.0 -1.8 19.0
v 36.0 -1.0 18.6
v 36.0 -0.5 6.0
v 35.6 0.0 7.0
v 36.0 0.0 6.5
v 35.3 0.0 8.0
v 36.0 0.0 18.2
v 36.0 0.4 7.0
v 35.7 1.0 8.0
v 36.0 1.0 7.7
v 35.4 1.0 9.0
v 35.1 1.0 10.0
v 35.6 1.0 16.0
v 36.0 0.8 16.0
v 36.0 1.0 15.7
v 36.0 0.5 17.0
v 36.0 0.2 18.0
v 36.0 1.3 8.0
v 35.7 2.0 9.0
v 36.0 2.0 8.7
v 36.0 2.0 15.3
v 36.0 2.2 9.0
v 36.0 2.6 10.0
v 36.0 3.0 10.5
v 36.0 2.4 15.0
v 36.0 3.0 14.4
v 36.0 3.4 11.0
v 36.0 3.5 12.0
v 36.0 3.6 13.0
v 36.0 3.4 14.0
v 36.9 -13.0 10.0
v 36.0 -12.0 9.0
v 36.3 -12.0 10.0
v 37.0 -8.0 9.6
v 37.0 -8.4 10.0
v 37.0 -8.5 11.0
v 37.0 -8.5 12.0
v 37.0 -8.4 13.0
v 37.0 -8.2 14.0
v 36.4 -8.0 15.0
v 37.0 -8.0 14.4
v 36.6 -7.0 9.0
v 37.0 -7.0 9.2
v 37.0 -7.4 15.0
v 36.3 -7.0 16.0
v 37.0 -7.0 15.3
v 37.0 -6.0 7.5
v 37.0 -6.4 8.0
v 37.0 -6.8 9.0
v 36.7 -6.0 16.0
v 37.0 -6.0 15.7
v 37.0 -5.0 6.6
v 37.0 -5.5 7.0
v 37.0 -5.8 16.0
v 37.0 -5.5 17.0
v 37.0 -5.4 18.0
v 37.0 -5.0 18.4
v 36.5 -4.0 6.0
v 37.0 -4.0 6.3
v 37.0 -4.1 19.0
v 36.8 -4.0 19.0
v 37.0 -4.0 19.1
v 37.0 -3.0 5.6
v 37.0 -3.6 6.0
v 36.3 -3.0 19.0
v 37.0 -3.0 19.2
v 37.0 -2.0 5.3
v 37.0 -2.0 19.2
v 36.6 -1.0 5.0
v 37.0 -1.0 4.6
v 37.0 -1.5 5.0
v 37.0 -1.7 19.0
v 37.0 -1.0 18.4
v 37.0 0.0 4.0
v 37.0 0.0 4.0
v 37.0 -0.0 4.0
v 36.7 0.0 5.0
v 36.4 0.0 6.0
v 36.4 0.0 18.0
v 37.0 -0.5 18.0
v 37.0 0.0 17.4
v 37.0 0.0 4.0
v 37.0 0.3 5.0
v 37.0 0.4 6.0
v 37.0 0.7 7.0
v 37.0 1.0 7.4
v 37.0 0.6 16.0
v 37.0 1.0 15.4
v 37.0 0.3 17.0
v 37.0 1.5 8.0
v 37.0 2.0 8.6
v 36.5 2.0 15.0
v 37.0 1.5 15.0
v 37.0 2.0 14.7
v 37.0 2.3 9.0
v 37.0 2.6 10.0
v 37.0 3.0 10.6
v 37.0 3.0 14.2
v 37.0 3.3 11.0
v 37.0 3.5 12.0
v 37.0 3.4 13.0
v 37.0 3.2 14.0
v 38.0 -8.0 9.7
v 38.0 -8.3 10.0
v 38.0 -8.5 11.0
v 38.0 -8.4 12.0
v 37.5 -8.0 13.0
v 38.0 -8.0 12.5
v 37.2 -8.0 14.0
v 38.0 -7.0 9.3
v 37.8 -7.0 13.0
v 38.0 -7.0 12.8
v 37.6 -7.0 14.0
v 37.3 -7.0 15.0
v 38.0 -6.0 7.5
v 38.0 -6.4 8.0
v 38.0 -6.7 9.0
v 38.0 -6.8 13.0
v 38.0 -6.5 14.0
v 38.0 -6.0 14.6
v 37.7 -6.0 15.0
v 38.0 -5.0 6.6
v 38.0 -5.5 7.0
v 38.0 -5.7 15.0
v 38.0 -5.4 16.0
v 38.0 -5.4 17.0
v 38.0 -5.2 18.0
v 38.0 -5.0 18.2
v 38.0 -4.0 6.3
v 37.1 -4.0 19.0
v 38.0 -4.0 18.5
v 38.0 -3.0 5.5
v 38.0 -3.6 6.0
v 37.3 -3.0 19.0
v 38.0 -3.0 18.5
v 37.5 -2.0 5.0
v 38.0 -2.0 4.7
v 38.0 -2.4 5.0
v 37.3 -2.0 19.0
v 38.0 -2.0 18.3
v 38.0 -1.0 4.3
v 37.5 -1.0 18.0
v 38.0 -1.6 18.0
v 38.0 -1.0 17.4
v 38.0 0.0 3.4
v 38.0 -0.6 4.0
v 37.4 0.0 17.0
v 38.0 -0.6 17.0
v 38.0 0.0 16.4
v 37.9 1.0 3.0
v 38.0 1.0 2.9
v 38.0 0.9 3.0
v 37.7 1.0 4.0
v 38.0 1.0 4.5
v 38.0 0.7 5.0
v 38.0 0.7 6.0
v 37.5 1.0 7.0
v 38.0 1.0 6.5
v 37.6 1.0 15.0
v 38.0 0.7 15.0
v 38.0 1.0 14.7
v 38.0 0.3 16.0
v 38.0 1.1 3.0
v 38.0 1.2 4.0
v 38.0 1.3 7.0
v 38.0 1.5 8.0
v 37.5 2.0 9.0
v 38.0 1.7 9.0
v 38.0 2.0 9.4
v 38.0 2.0 14.3
v 38.0 2.4 10.0
v 37.5 3.0 11.0
v 38.0 2.7 11.0
v 38.0 3.0 11.7
v 37.6 3.0 13.0
v 38.0 2.7 13.0
v 38.0 3.0 12.3
v 37.3 3.0 14.0
v 38.0 2.3 14.0
v 38.0 3.2 12.0
v 39.0 -8.0 9.7
v 39.0 -8.3 10.0
v 39.0 -8.5 11.0
v 39.0 -8.3 12.0
v 39.0 -8.0 12.3
v 39.0 -7.0 9.4
v 39.0 -7.0 12.6
v 39.0 -6.0 7.5
v 39.0 -6.4 8.0
v 39.0 -6.6 9.0
v 39.0 -6.6 13.0
v 39.0 -6.2 14.0
v 39.0 -6.0 14.2
v 39.0 -5.0 6.5
v 39.0 -5.5 7.0
v 38.7 -5.0 15.0
v 39.0 -5.0 14.8
v 38.5 -5.0 16.0
v 38.4 -5.0 17.0
v 38.2 -5.0 18.0
v 38.5 -4.0 6.0
v 39.0 -4.0 5.7
v 39.0 -4.4 6.0
v 39.0 -4.8 15.0
v 39.0 -4.6 16.0
v 39.0 -4.4 17.0
v 39.0 -4.0 17.4
v 38.5 -4.0 18.0
v 39.0 -3.0 5.3
v 38.5 -3.0 18.0
v 39.0 -3.0 17.5
v 39.0 -2.0 4.5
v 39.0 -2.6 5.0
v 38.7 -2.0 17.0
v 39.0 -2.3 17.0
v 39.0 -2.0 16.7
v 38.3 -2.0 18.0
v 38.5 -1.0 4.0
v 39.0 -1.0 3.6
v 39.0 -1.4 4.0
v 38.8 -1.0 16.0
v 39.0 -1.3 16.0
v 39.0 -1.0 15.8
v 38.3 -1.0 17.0
v 38.5 0.0 3.0
v 39.0 0.0 2.6
v 39.0 -0.4 3.0
v 38.3 0.0 16.0
v 39.0 0.0 15.3
v 38.9 1.0 2.0
v 39.0 1.0 1.9
v 39.0 0.9 2.0
v 38.4 1.0 5.0
v 38.4 1.0 6.0
v 38.7 1.0 14.0
v 39.0 0.7 14.0
v 39.0 1.0 13.7
v 39.0 0.3 15.0
v 39.0 1.1 2.0
v 39.0 1.5 3.0
v 39.0 1.5 4.0
v 39.0 1.4 5.0
v 39.0 1.4 6.0
v 39.0 1.5 7.0
v 39.0 1.6 8.0
v 39.0 1.8 9.0
v 39.0 2.0 9.3
v 38.3 2.0 14.0
v 39.0 2.0 13.3
v 39.0 2.4 10.0
v 39.0 2.5 11.0
v 38.2 3.0 12.0
v 39.0 2.5 12.0
v 39.0 2.2 13.0
v 40.0 -8.0 9.8
v 40.0 -8.2 10.0
v 40.0 -8.3 11.0
v 40.0 -8.2 12.0
v 40.0 -8.0 12.2
v 40.0 -7.0 9.4
v 40.0 -7.0 12.4
v 40.0 -6.0 7.7
v 40.0 -6.3 8.0
v 40.0 -6.5 9.0
v 39.7 -6.0 13.0
v 40.0 -6.0 12.8
v 39.3 -6.0 14.0
v 40.0 -5.0 6.5
v 40.0 -5.5 7.0
v 40.0 -5.8 13.0
v 40.0 -5.3 14.0
v 40.0 -5.0 14.4
v 40.0 -4.0 5.5
v 40.0 -4.5 6.0
v 40.0 -4.5 15.0
v 40.0 -4.2 16.0
v 39.4 -4.0 17.0
v 40.0 -4.0 16.4
v 39.5 -3.0 5.0
v 40.0 -3.0 4.7
v 40.0 -3.4 5.0
v 40.0 -3.1 17.0
v 40.0 -3.0 17.1
v 40.0 -2.0 4.3
v 40.0 -2.9 17.0
v 40.0 -2.0 16.3
v 40.0 -1.0 3.4
v 40.0 -1.7 4.0
v 40.0 -1.6 16.0
v 40.0 -1.0 15.5
v 40.0 0.0 2.5
v 40.0 -0.6 3.0
v 39.7 0.0 14.0
v 40.0 -0.3 14.0
v 40.0 0.0 13.6
v 39.3 0.0 15.0
v 40.0 -0.5 15.0
v 40.0 1.0 1.6
v 40.0 0.6 2.0
v 39.6 1.0 13.0
v 40.0 0.6 13.0
v 40.0 1.0 12.6
v 39.7 2.0 2.0
v 40.0 2.0 1.1
v 40.0 2.0 2.4
v 40.0 1.7 3.0
v 40.0 1.5 4.0
v 40.0 1.5 5.0
v 40.0 1.6 6.0
v 40.0 1.7 7.0
v 39.6 2.0 8.0
v 40.0 2.0 7.5
v 39.3 2.0 9.0
v 39.6 2.0 12.0
v 40.0 1.7 12.0
v 40.0 2.0 11.6
v 39.2 2.0 13.0
v 40.0 2.2 2.0
v 40.0 2.3 8.0
v 40.0 2.4 9.0
v 40.0 2.5 10.0
v 40.0 2.4 11.0
v 40.2 -8.0 10.0
v 40.4 -8.0 11.0
v 40.2 -8.0 12.0
v 41.0 -7.0 9.9
v 41.0 -7.2 10.0
v 41.0 -7.0 10.3
v 40.7 -7.0 11.0
v 40.5 -7.0 12.0
v 40.4 -6.0 8.0
v 40.9 -6.0 9.0
v 41.0 -6.0 9.1
v 41.0 -6.7 11.0
v 41.0 -6.4 12.0
v 41.0 -6.0 12.3
v 41.0 -5.0 6.5
v 41.0 -5.4 7.0
v 41.0 -5.6 8.0
v 41.0 -5.9 9.0
v 41.0 -5.3 13.0
v 40.3 -5.0 14.0
v 41.0 -5.0 13.3
v 41.0 -4.0 5.6
v 41.0 -4.4 6.0
v 40.8 -4.0 14.0
v 41.0 -4.0 13.8
v 40.5 -4.0 15.0
v 40.3 -4.0 16.0
v 41.0 -3.0 4.5
v 41.0 -3.5 5.0
v 41.0 -3.7 14.0
v 41.0 -3.3 15.0
v 41.0 -3.0 15.3
v 40.6 -3.0 16.0
v 40.1 -3.0 17.0
v 40.5 -2.0 4.0
v 41.0 -2.0 3.6
v 41.0 -2.4 4.0
v 40.4 -2.0 16.0
v 41.0 -2.0 15.5
v 40.5 -1.0 3.0
v 41.0 -1.0 2.7
v 41.0 -1.3 3.0
v 41.0 -1.0 15.2
v 41.0 0.0 2.4
v 40.6 0.0 13.0
v 41.0 -0.3 13.0
v 41.0 0.0 12.6
v 41.0 -0.5 14.0
v 41.0 -0.8 15.0
v 41.0 1.0 1.4
v 41.0 0.5 2.0
v 41.0 1.0 12.3
v 40.1 2.0 1.0
v 41.0 2.0 0.8
v 41.0 1.6 1.0
v 40.5 2.0 3.0
v 41.0 2.0 3.5
v 41.0 1.7 4.0
v 41.0 1.7 5.0
v 40.6 2.0 6.0
v 41.0 2.0 5.5
v 40.4 2.0 7.0
v 41.0 1.3 12.0
v 41.0 2.0 11.4
v 41.0 2.2 1.0
v 41.0 2.5 2.0
v 41.0 2.3 3.0
v 41.0 2.3 6.0
v 41.0 2.4 7.0
v 41.0 2.5 8.0
v 41.0 2.4 9.0
v 41.0 2.5 10.0
v 41.0 2.4 11.0
v 41.2 -7.0 10.0
v 41.2 -6.0 9.0
v 42.0 -6.0 8.6
v 42.0 -6.3 9.0
v 42.0 -6.4 10.0
v 42.0 -6.2 11.0
v 41.3 -6.0 12.0
v 42.0 -6.0 11.3
v 42.0 -5.0 6.8
v 42.0 -5.2 7.0
v 42.0 -5.6 8.0
v 41.8 -5.0 12.0
v 42.0 -5.0 11.7
v 41.3 -5.0 13.0
v 41.5 -4.0 6.0
v 42.0 -4.0 6.3
v 42.0 -4.8 12.0
v 42.0 -4.3 13.0
v 42.0 -4.0 13.3
v 42.0 -3.0 4.5
v 42.0 -3.4 5.0
v 42.0 -3.7 6.0
v 41.6 -3.0 14.0
v 42.0 -3.0 13.6
v 41.3 -3.0 15.0
v 42.0 -2.0 3.5
v 42.0 -2.5 4.0
v 42.0 -2.5 14.0
v 42.0 -2.0 14.3
v 41.5 -2.0 15.0
v 42.0 -1.0 2.8
v 42.0 -1.3 3.0
v 41.9 -1.0 12.0
v 42.0 -1.1 12.0
v 42.0 -1.0 11.9
v 42.0 -1.0 12.2
v 41.3 -1.0 15.0
v 42.0 -1.0 14.2
v 42.0 0.0 2.5
v 41.5 0.0 12.0
v 42.0 0.0 11.5
v 42.0 -0.7 13.0
v 42.0 -0.8 14.0
v 41.8 1.0 1.0
v 42.0 1.0 0.9
v 42.0 0.9 1.0
v 42.0 0.4 2.0
v 41.3 1.0 12.0
v 42.0 1.0 11.5
v 42.0 2.0 0.7
v 41.4 2.0 4.0
v 41.4 2.0 5.0
v 41.8 2.0 9.0
v 42.0 1.9 9.0
v 42.0 2.0 8.7
v 42.0 2.0 9.2
v 42.0 2.0 11.2
v 42.0 2.3 1.0
v 42.0 2.5 2.0
v 42.0 2.5 3.0
v 42.0 2.4 4.0
v 42.0 2.4 5.0
v 42.0 2.5 6.0
v 42.0 2.4 7.0
v 42.0 2.3 8.0
v 42.0 2.4 10.0
v 42.0 2.2 11.0
v 43.0 -6.0 8.9
v 43.0 -6.1 9.0
v 42.5 -6.0 10.0
v 43.0 -6.0 9.1
v 42.2 -6.0 11.0
v 42.3 -5.0 7.0
v 43.0 -5.0 7.7
v 43.0 -5.3 8.0
v 43.0 -5.5 10.0
v 43.0 -5.0 10.6
v 42.7 -5.0 11.0
v 42.7 -4.0 7.0
v 43.0 -4.0 7.4
v 43.0 -4.7 11.0
v 43.0 -4.3 12.0
v 42.3 -4.0 13.0
v 43.0 -4.0 12.3
v 43.0 -3.0 4.7
v 43.0 -3.2 5.0
v 43.0 -3.4 6.0
v 43.0 -3.6 7.0
v 42.5 -3.0 13.0
v 43.0 -3.0 12.5
v 43.0 -2.0 3.6
v 43.0 -2.4 4.0
v 42.6 -2.0 13.0
v 43.0 -2.0 12.3
v 42.3 -2.0 14.0
v 42.3 -1.0 3.0
v 43.0 -1.0 3.4
v 42.7 -1.0 11.0
v 43.0 -1.3 11.0
v 43.0 -1.0 10.7
v 43.0 -1.7 12.0
v 42.3 -1.0 13.0
v 42.2 -1.0 14.0
v 42.7 0.0 3.0
v 43.0 0.0 3.2
v 42.5 0.0 11.0
v 43.0 0.0 10.5
v 42.2 1.0 1.0
v 43.0 1.0 1.4
v 43.0 0.6 2.0
v 43.0 0.2 3.0
v 42.5 1.0 11.0
v 43.0 1.0 10.5
v 43.0 2.0 0.7
v 43.0 1.6 1.0
v 42.6 2.0 7.0
v 43.0 1.7 7.0
v 43.0 2.0 6.5
v 42.5 2.0 8.0
v 43.0 1.7 8.0
v 43.0 1.7 9.0
v 43.0 2.0 9.8
v 42.3 2.0 11.0
v 43.0 2.0 10.1
v 43.0 2.4 1.0
v 43.0 2.6 2.0
v 43.0 2.5 3.0
v 43.0 2.5 4.0
v 43.0 2.4 5.0
v 43.0 2.3 6.0
v 43.0 2.1 10.0
v 43.1 -6.0 9.0
v 43.3 -5.0 8.0
v 43.6 -5.0 9.0
v 43.4 -5.0 10.0
v 43.5 -4.0 8.0
v 44.0 -4.0 8.7
v 44.0 -4.3 9.0
v 44.0 -4.4 10.0
v 44.0 -4.2 11.0
v 43.3 -4.0 12.0
v 44.0 -4.0 11.3
v 43.3 -3.0 5.0
v 43.5 -3.0 6.0
v 43.5 -3.0 7.0
v 43.6 -3.0 8.0
v 44.0 -3.0 8.5
v 43.5 -3.0 12.0
v 44.0 -3.0 11.3
v 44.0 -2.0 3.8
v 44.0 -2.2 4.0
v 44.0 -2.4 5.0
v 44.0 -2.5 6.0
v 44.0 -2.4 7.0
v 44.0 -2.0 7.7
v 43.8 -2.0 8.0
v 44.0 -2.0 8.3
v 43.6 -2.0 11.0
v 44.0 -2.5 11.0
v 44.0 -2.0 10.6
v 43.2 -2.0 12.0
v 44.0 -1.0 3.6
v 44.0 -1.7 8.0
v 44.0 -1.0 10.1
v 44.0 0.0 3.4
v 43.6 0.0 10.0
v 44.0 -0.8 10.0
v 44.0 0.0 9.5
v 44.0 1.0 1.7
v 44.0 0.7 2.0
v 44.0 0.4 3.0
v 43.5 1.0 10.0
v 44.0 1.0 9.4
v 44.0 2.0 0.6
v 44.0 1.6 1.0
v 43.6 2.0 5.0
v 44.0 1.6 5.0
v 44.0 2.0 4.4
v 43.4 2.0 6.0
v 44.0 1.5 6.0
v 44.0 1.4 7.0
v 44.0 2.0 8.0
v 44.0 2.0 8.0
v 44.0 2.0 9.0
v 44.0 2.0 9.0
v 43.1 2.0 10.0
v 43.7 3.0 0.0
v 44.0 3.0 -0.1
v 44.0 2.9 0.0
v 43.6 3.0 1.0
v 43.9 3.0 2.0
v 44.0 3.0 2.1
v 44.0 2.5 3.0
v 44.0 2.2 4.0
v 44.0 2.0 8.0
v 44.0 2.0 9.0
v 44.0 3.1 0.0
v 44.0 3.2 1.0
v 44.0 3.1 2.0
v 44.2 -4.0 9.0
v 44.4 -4.0 10.0
v 44.2 -4.0 11.0
v 44.4 -3.0 9.0
v 44.5 -3.0 10.0
v 44.3 -3.0 11.0
v 44.2 -2.0 4.0
v 44.4 -2.0 5.0
v 44.4 -2.0 6.0
v 44.3 -2.0 7.0
v 44.3 -2.0 9.0
v 44.4 -2.0 10.0
v 44.4 -1.0 4.0
v 44.6 -1.0 5.0
v 44.5 -1.0 6.0
v 44.5 -1.0 7.0
v 44.3 -1.0 8.0
v 44.0 -1.0 9.0
v 44.1 -1.0 10.0
v 45.0 0.0 3.9
v 45.0 -0.1 4.0
v 45.0 -0.1 5.0
v 45.0 0.0 5.1
v 44.6 0.0 6.0
v 44.5 0.0 7.0
v 44.5 0.0 8.0
v 44.3 0.0 9.0
v 44.4 1.0 2.0
v 44.9 1.0 3.0
v 45.0 0.1 4.0
v 44.6 1.0 4.0
v 44.5 1.0 5.0
v 45.0 0.1 5.0
v 44.4 1.0 6.0
v 44.4 1.0 7.0
v 44.5 1.0 8.0
v 44.3 1.0 9.0
v 45.0 2.0 1.0
v 45.0 2.0 1.0
v 45.0 1.8 2.0
v 45.0 2.0 2.2
v 44.5 2.0 3.0
v 44.3 2.0 4.0
v 44.0 2.0 8.0
v 44.0 2.0 9.0
v 44.3 3.0 0.0
v 45.0 2.0 1.0
v 44.4 3.0 1.0
v 44.1 3.0 2.0
v 45.0 2.1 2.0
v 45.1 0.0 4.0
v 45.1 0.0 5.0
v 45.0 2.0 1.0
v 45.1 2.0 2.0
f 3 2 1
f 1 4 3
f 1 2 5
f 5 2 6
f 4 1 7
f 1 8 7
f 1 5 8
f 8 9 7
f 6 10 5
f 12 11 10
f 11 5 10
f 11 8 5
f 9 8 13
f 13 8 11
f 12 14 11
f 11 14 13
f 17 16 15
f 19 18 15
f 15 18 17
f 2 3 19
f 3 18 19
f 3 20 18
f 3 4 20
f 20 4 21
f 24 23 22
f 26 25 22
f 22 25 24
f 28 27 26
f 26 27 25
f 27 28 16
f 28 15 16
f 28 29 15
f 15 30 19
f 15 29 30
f 30 6 2
f 30 2 19
f 4 7 31
f 32 4 31
f 21 4 32
f 9 31 7
f 22 23 33
f 33 23 34
f 22 35 26
f 22 33 35
f 26 36 28
f 26 35 36
f 28 37 29
f 28 36 37
f 29 38 30
f 29 37 38
f 39 10 6
f 30 39 6
f 38 39 30
f 31 40 32
f 12 10 39
f 31 9 40
f 9 41 40
f 9 13 41
f 33 34 42
f 42 34 43
f 33 44 35
f 33 42 44
f 35 45 36
f 35 44 45
f 36 46 37
f 36 45 46
f 37 47 38
f 37 46 47
f 38 48 39
f 38 47 48
f 49 14 12
f 39 49 12
f 48 49 39
f 49 50 14
f 50 13 14
f 50 41 13
f 42 43 51
f 51 43 52
f 42 53 44
f 42 51 53
f 44 54 45
f 44 53 54
f 45 55 46
f 45 54 55
f 46 56 47
f 46 55 56
f 47 57 48
f 47 56 57
f 48 58 49
f 48 57 58
f 50 49 59
f 49 60 59
f 49 58 60
f 60 61 59
f 51 52 62
f 62 52 63
f 65 53 64
f 53 62 64
f 53 51 62
f 67 66 65
f 66 53 65
f 66 54 53
f 54 68 55
f 54 66 68
f 55 69 56
f 55 68 69
f 56 70 57
f 56 69 70
f 57 71 58
f 57 70 71
f 58 72 60
f 58 71 72
f 61 60 73
f 60 74 73
f 60 72 74
f 74 75 73
f 63 76 62
f 62 76 64
f 67 77 66
f 66 77 68
f 68 77 78
f 68 78 69
f 69 78 79
f 81 80 79
f 80 69 79
f 80 70 69
f 70 82 71
f 70 80 82
f 71 83 72
f 71 82 83
f 72 84 74
f 72 83 84
f 75 74 85
f 74 86 85
f 74 84 86
f 86 87 85
f 90 89 88
f 90 88 81
f 88 80 81
f 88 91 80
f 80 92 82
f 80 91 92
f 82 93 83
f 82 92 93
f 83 94 84
f 83 93 94
f 96 86 95
f 86 94 95
f 86 84 94
f 86 96 87
f 89 97 88
f 99 98 97
f 98 88 97
f 98 91 88
f 91 100 92
f 91 98 100
f 92 101 93
f 92 100 101
f 93 102 94
f 93 101 102
f 95 94 103
f 103 94 102
f 106 105 104
f 106 104 99
f 104 98 99
f 104 107 98
f 98 108 100
f 98 107 108
f 100 109 101
f 100 108 109
f 101 110 102
f 101 109 110
f 103 102 111
f 111 102 110
f 105 112 104
f 114 113 112
f 113 104 112
f 113 107 104
f 107 115 108
f 107 113 115
f 108 116 109
f 108 115 116
f 118 110 117
f 110 116 117
f 110 109 116
f 110 118 111
f 114 119 113
f 113 119 115
f 115 119 120
f 115 120 116
f 116 120 121
f 116 121 117
f 124 123 122
f 126 125 122
f 122 125 124
f 126 127 125
f 130 129 128
f 132 131 128
f 128 131 130
f 134 133 132
f 132 133 131
f 133 134 123
f 123 134 122
f 134 16 122
f 16 17 122
f 122 17 18
f 122 18 126
f 18 20 126
f 20 135 126
f 135 127 126
f 20 136 135
f 21 136 20
f 128 129 24
f 129 23 24
f 129 137 23
f 128 24 25
f 128 25 132
f 132 25 27
f 132 27 134
f 134 27 16
f 135 136 138
f 135 138 139
f 32 138 21
f 21 138 136
f 137 34 23
f 140 34 137
f 141 139 138
f 141 138 32
f 40 141 32
f 142 141 40
f 40 41 142
f 142 41 143
f 140 43 34
f 144 43 140
f 50 146 145
f 143 50 145
f 41 50 143
f 146 147 145
f 150 149 148
f 144 150 148
f 52 144 148
f 43 144 52
f 59 146 50
f 59 61 146
f 61 147 146
f 61 151 147
f 148 149 152
f 152 149 153
f 152 63 52
f 152 52 148
f 64 154 65
f 154 67 65
f 155 151 61
f 155 61 73
f 157 156 75
f 156 73 75
f 156 155 73
f 159 158 157
f 157 158 156
f 159 160 158
f 152 153 161
f 161 153 162
f 163 76 63
f 152 163 63
f 161 163 152
f 154 64 76
f 163 154 76
f 164 154 163
f 165 77 67
f 154 165 67
f 164 165 154
f 166 78 77
f 166 77 165
f 167 79 78
f 167 78 166
f 167 81 79
f 85 157 75
f 157 85 87
f 168 157 87
f 159 157 168
f 160 159 169
f 169 159 168
f 161 162 170
f 170 162 171
f 161 172 163
f 161 170 172
f 174 164 173
f 164 172 173
f 164 163 172
f 176 175 174
f 175 164 174
f 175 165 164
f 165 177 166
f 165 175 177
f 177 89 90
f 167 177 90
f 166 177 167
f 167 90 81
f 95 178 96
f 168 87 96
f 178 168 96
f 179 168 178
f 169 168 180
f 180 168 179
f 171 181 170
f 170 181 172
f 172 181 182
f 185 184 183
f 172 182 173
f 183 184 176
f 184 175 176
f 184 186 175
f 175 187 177
f 175 186 187
f 188 97 89
f 177 188 89
f 187 188 177
f 188 99 97
f 103 189 178
f 103 178 95
f 191 179 190
f 179 189 190
f 179 178 189
f 179 191 180
f 185 192 184
f 194 193 192
f 193 184 192
f 193 186 184
f 186 195 187
f 186 193 195
f 195 105 106
f 188 195 106
f 187 195 188
f 188 106 99
f 111 196 189
f 111 189 103
f 190 189 197
f 197 189 196
f 194 198 193
f 200 199 198
f 199 193 198
f 199 195 193
f 201 112 105
f 195 201 105
f 199 201 195
f 201 114 112
f 117 202 118
f 196 111 118
f 202 196 118
f 203 196 202
f 197 196 204
f 204 196 203
f 200 205 199
f 199 205 201
f 201 205 206
f 201 206 114
f 206 119 114
f 206 207 119
f 207 209 208
f 120 207 208
f 119 207 120
f 210 121 120
f 210 120 208
f 210 211 121
f 121 211 117
f 211 212 117
f 212 202 117
f 202 212 203
f 203 212 213
f 203 213 204
f 208 209 214
f 214 209 215
f 217 210 216
f 210 214 216
f 210 208 214
f 210 217 211
f 214 215 218
f 218 215 219
f 216 214 220
f 220 214 218
f 219 221 218
f 218 221 220
f 224 223 222
f 222 225 224
f 228 227 226
f 230 229 226
f 226 229 228
f 229 230 223
f 223 230 222
f 230 123 222
f 123 124 222
f 124 125 222
f 125 231 222
f 231 225 222
f 125 232 231
f 127 232 125
f 234 233 130
f 130 233 129
f 131 226 227
f 234 131 227
f 130 131 234
f 226 131 133
f 226 133 230
f 123 230 133
f 237 236 235
f 236 237 231
f 232 236 231
f 238 236 232
f 135 238 127
f 127 238 232
f 233 137 129
f 239 137 233
f 235 236 240
f 235 240 241
f 242 236 238
f 240 236 242
f 139 242 135
f 135 242 238
f 239 140 137
f 243 140 239
f 244 241 240
f 244 240 242
f 244 242 245
f 245 242 139
f 141 245 139
f 246 245 141
f 247 141 142
f 247 246 141
f 142 143 247
f 247 143 248
f 250 144 249
f 144 243 249
f 144 140 243
f 251 250 249
f 252 248 143
f 252 143 145
f 145 147 252
f 252 147 253
f 254 149 150
f 255 254 150
f 255 150 144
f 256 255 144
f 250 256 144
f 256 250 251
f 151 258 257
f 253 151 257
f 147 151 253
f 258 259 257
f 260 153 254
f 254 153 149
f 254 255 261
f 254 261 260
f 155 258 151
f 262 259 258
f 155 262 258
f 156 262 155
f 263 156 158
f 263 262 156
f 158 160 263
f 263 160 264
f 266 265 260
f 265 153 260
f 265 162 153
f 266 260 261
f 169 268 267
f 264 169 267
f 160 169 264
f 268 269 267
f 272 271 270
f 265 272 270
f 171 265 270
f 162 265 171
f 173 273 174
f 273 176 174
f 180 274 268
f 180 268 169
f 269 268 275
f 275 268 274
f 270 271 276
f 276 271 277
f 278 181 171
f 270 278 171
f 276 278 270
f 279 182 181
f 279 181 278
f 279 173 182
f 279 273 173
f 279 185 183
f 273 279 183
f 273 183 176
f 190 280 191
f 280 281 191
f 191 281 180
f 281 282 180
f 282 274 180
f 274 282 275
f 277 283 276
f 285 284 283
f 284 276 283
f 284 278 276
f 278 286 279
f 278 284 286
f 287 192 185
f 279 287 185
f 286 287 279
f 287 194 192
f 197 288 280
f 197 280 190
f 281 280 289
f 289 280 288
f 284 285 290
f 290 285 291
f 284 292 286
f 284 290 292
f 286 293 287
f 286 292 293
f 294 198 194
f 287 294 194
f 293 294 287
f 294 200 198
f 204 295 288
f 204 288 197
f 289 288 296
f 296 288 295
f 291 297 290
f 290 297 292
f 292 297 298
f 292 298 293
f 293 298 299
f 293 299 294
f 294 299 300
f 300 302 301
f 300 301 205
f 294 300 205
f 200 294 205
f 303 206 205
f 303 205 301
f 304 207 206
f 304 206 303
f 304 209 207
f 211 305 212
f 306 213 212
f 306 212 305
f 306 307 213
f 213 307 204
f 307 308 204
f 308 295 204
f 295 308 296
f 302 309 301
f 301 309 303
f 303 309 310
f 312 311 310
f 311 303 310
f 311 304 303
f 311 215 209
f 311 209 304
f 216 313 217
f 305 211 217
f 313 305 217
f 314 305 313
f 316 306 315
f 306 314 315
f 306 305 314
f 306 316 307
f 311 312 317
f 317 312 318
f 317 219 215
f 317 215 311
f 220 319 313
f 220 313 216
f 321 314 320
f 314 319 320
f 314 313 319
f 314 321 315
f 318 322 317
f 322 324 323
f 322 323 221
f 317 322 221
f 219 317 221
f 323 325 221
f 221 325 220
f 325 326 220
f 326 319 220
f 319 326 320
f 324 327 323
f 323 327 325
f 330 329 328
f 223 224 328
f 224 330 328
f 224 331 330
f 224 225 331
f 331 225 332
f 334 333 228
f 228 333 227
f 229 328 329
f 334 229 329
f 228 229 334
f 328 335 223
f 335 328 336
f 229 336 328
f 336 229 337
f 223 337 229
f 337 223 335
f 335 332 337
f 332 231 337
f 332 225 231
f 338 233 234
f 339 338 234
f 227 339 234
f 333 339 227
f 336 337 237
f 235 336 237
f 340 336 235
f 237 337 231
f 341 239 338
f 338 239 233
f 338 339 342
f 338 342 341
f 345 344 343
f 344 340 343
f 340 241 343
f 340 235 241
f 346 243 341
f 341 243 239
f 341 342 347
f 348 341 347
f 346 341 348
f 348 350 349
f 348 343 350
f 348 347 345
f 343 348 345
f 350 343 241
f 244 350 241
f 351 350 244
f 352 244 245
f 352 351 244
f 353 245 246
f 353 352 245
f 355 353 354
f 353 247 354
f 353 246 247
f 248 354 247
f 346 249 243
f 249 346 251
f 346 356 251
f 346 348 356
f 348 349 357
f 348 357 356
f 358 355 354
f 358 354 248
f 252 358 248
f 359 358 252
f 252 253 359
f 359 253 360
f 361 255 256
f 362 361 256
f 362 256 251
f 363 362 251
f 356 363 251
f 363 356 357
f 364 360 253
f 364 253 257
f 366 365 259
f 365 257 259
f 365 364 257
f 366 367 365
f 369 368 361
f 368 255 361
f 368 261 255
f 369 361 362
f 262 366 259
f 370 367 366
f 262 370 366
f 263 370 262
f 263 264 370
f 370 264 371
f 373 372 266
f 266 372 265
f 266 261 368
f 266 368 373
f 374 371 264
f 374 264 267
f 267 269 374
f 374 269 375
f 377 376 272
f 272 376 271
f 272 265 372
f 272 372 377
f 275 375 269
f 275 378 375
f 376 277 271
f 379 277 376
f 281 380 282
f 380 381 282
f 381 275 282
f 381 378 275
f 283 277 382
f 277 383 382
f 277 379 383
f 382 285 283
f 385 384 380
f 281 385 380
f 289 385 281
f 380 384 381
f 383 386 382
f 285 382 386
f 387 285 386
f 291 285 387
f 296 385 289
f 296 388 385
f 387 389 291
f 291 389 297
f 297 390 298
f 389 390 297
f 390 392 391
f 299 390 391
f 298 390 299
f 393 300 299
f 393 299 391
f 393 302 300
f 307 394 308
f 394 395 308
f 395 296 308
f 395 388 296
f 392 396 391
f 391 396 393
f 393 396 397
f 397 399 398
f 397 398 309
f 393 397 309
f 302 393 309
f 400 310 309
f 400 309 398
f 400 312 310
f 402 401 316
f 402 316 315
f 307 316 394
f 316 403 394
f 316 401 403
f 394 403 395
f 406 405 404
f 406 404 399
f 404 398 399
f 404 407 398
f 398 408 400
f 398 407 408
f 408 318 312
f 408 312 400
f 410 409 321
f 410 321 320
f 315 321 402
f 402 321 409
f 405 411 404
f 413 412 411
f 412 404 411
f 412 407 404
f 407 414 408
f 407 412 414
f 415 322 318
f 408 415 318
f 414 415 408
f 415 324 322
f 417 416 326
f 417 326 325
f 320 326 410
f 410 326 416
f 413 418 412
f 412 418 414
f 414 418 419
f 414 419 415
f 415 419 420
f 415 420 324
f 420 327 324
f 420 421 327
f 325 327 417
f 417 327 421
f 423 422 330
f 330 422 329
f 425 423 424
f 423 331 424
f 423 330 331
f 332 424 331
f 427 426 334
f 334 426 333
f 334 329 422
f 334 422 427
f 425 424 335
f 336 425 335
f 428 425 336
f 335 424 332
f 430 339 429
f 339 426 429
f 339 333 426
f 432 431 430
f 432 430 429
f 432 428 431
f 428 340 431
f 428 336 340
f 433 342 430
f 430 342 339
f 345 433 344
f 433 431 344
f 433 430 431
f 344 431 340
f 433 347 342
f 347 433 345
f 434 349 350
f 351 435 350
f 350 435 434
f 352 436 351
f 351 436 435
f 353 437 352
f 352 437 436
f 355 437 353
f 439 438 434
f 438 349 434
f 438 357 349
f 439 434 435
f 439 435 440
f 440 435 436
f 440 436 441
f 441 436 437
f 441 437 442
f 442 437 355
f 358 442 355
f 443 442 358
f 444 358 359
f 444 443 358
f 359 360 444
f 444 360 445
f 447 446 363
f 363 446 362
f 363 357 438
f 363 438 447
f 448 445 360
f 448 360 364
f 450 448 449
f 448 365 449
f 448 364 365
f 367 449 365
f 452 451 369
f 369 451 368
f 369 362 446
f 369 446 452
f 450 449 453
f 450 453 454
f 370 455 367
f 455 449 367
f 455 453 449
f 371 455 370
f 457 456 373
f 373 456 372
f 373 368 451
f 373 451 457
f 458 454 453
f 458 453 455
f 458 455 459
f 461 459 460
f 460 459 374
f 459 455 374
f 455 371 374
f 375 460 374
f 463 462 377
f 377 462 376
f 377 372 456
f 377 456 463
f 461 460 464
f 461 464 465
f 378 464 375
f 375 464 460
f 462 379 376
f 466 379 462
f 465 464 467
f 465 467 468
f 381 467 378
f 378 467 464
f 466 383 379
f 469 383 466
f 468 471 470
f 468 385 471
f 468 467 384
f 385 468 384
f 467 381 384
f 472 470 471
f 386 383 473
f 383 474 473
f 383 469 474
f 473 387 386
f 476 475 471
f 385 476 471
f 388 476 385
f 471 475 472
f 474 477 473
f 477 479 478
f 477 478 389
f 473 477 389
f 387 473 389
f 480 390 389
f 480 389 478
f 480 392 390
f 395 476 388
f 395 481 476
f 479 482 478
f 484 483 482
f 483 478 482
f 483 480 478
f 485 396 392
f 480 485 392
f 483 485 480
f 486 397 396
f 486 396 485
f 486 399 397
f 489 488 487
f 401 402 487
f 488 401 487
f 490 401 488
f 401 491 403
f 490 491 401
f 395 403 481
f 481 403 491
f 484 492 483
f 494 493 492
f 493 483 492
f 493 485 483
f 493 405 406
f 486 493 406
f 485 493 486
f 486 406 399
f 489 487 409
f 410 489 409
f 495 489 410
f 409 487 402
f 494 496 493
f 493 496 405
f 496 411 405
f 496 497 411
f 413 411 497
f 413 497 498
f 500 499 416
f 500 416 417
f 410 416 495
f 495 416 499
f 498 501 413
f 413 501 418
f 418 502 419
f 501 502 418
f 419 503 420
f 502 503 419
f 420 504 421
f 503 504 420
f 417 421 500
f 500 421 504
f 505 422 423
f 425 505 423
f 506 426 427
f 422 505 427
f 505 506 427
f 505 507 506
f 428 507 425
f 425 507 505
f 506 429 426
f 429 506 432
f 432 506 507
f 432 507 428
f 509 508 439
f 439 508 438
f 510 439 440
f 510 509 439
f 511 440 441
f 511 510 440
f 512 441 442
f 512 511 441
f 513 442 443
f 513 512 442
f 515 513 514
f 513 444 514
f 513 443 444
f 445 514 444
f 516 446 447
f 517 516 447
f 438 517 447
f 508 517 438
f 518 515 514
f 520 518 519
f 519 518 448
f 518 514 448
f 514 445 448
f 450 519 448
f 522 521 452
f 452 521 451
f 452 446 516
f 523 452 516
f 522 452 523
f 523 516 517
f 520 519 524
f 520 524 525
f 454 524 450
f 450 524 519
f 527 526 457
f 457 526 456
f 457 451 521
f 457 521 527
f 528 525 524
f 528 524 454
f 458 528 454
f 529 528 458
f 530 458 459
f 530 529 458
f 459 461 530
f 530 461 531
f 532 462 463
f 533 532 463
f 456 533 463
f 526 533 456
f 465 535 534
f 531 465 534
f 461 465 531
f 535 536 534
f 538 537 532
f 537 462 532
f 537 466 462
f 538 532 533
f 468 539 535
f 468 535 465
f 536 535 540
f 540 535 539
f 537 469 466
f 541 469 537
f 470 539 468
f 470 472 539
f 472 540 539
f 472 542 540
f 545 544 543
f 541 545 543
f 474 541 543
f 469 541 474
f 547 546 475
f 547 475 476
f 472 475 542
f 542 475 546
f 550 549 548
f 550 548 544
f 548 543 544
f 548 551 543
f 552 477 474
f 543 552 474
f 551 552 543
f 552 479 477
f 555 554 553
f 554 547 553
f 547 481 553
f 547 476 481
f 549 556 548
f 548 556 551
f 551 556 557
f 551 557 552
f 552 557 558
f 552 558 479
f 558 482 479
f 558 559 482
f 484 482 559
f 484 559 560
f 562 561 488
f 562 488 489
f 488 563 490
f 561 563 488
f 553 491 555
f 491 563 555
f 491 490 563
f 491 553 481
f 560 564 484
f 484 564 492
f 494 492 564
f 494 564 565
f 568 567 566
f 567 562 566
f 562 495 566
f 562 489 495
f 565 569 494
f 494 569 496
f 496 570 497
f 569 570 496
f 498 497 570
f 498 570 571
f 568 566 499
f 500 568 499
f 572 568 500
f 499 566 495
f 571 573 498
f 498 573 501
f 501 574 502
f 573 574 501
f 502 575 503
f 574 575 502
f 503 576 504
f 575 576 503
f 500 504 572
f 572 504 576
f 578 577 509
f 509 577 508
f 579 509 510
f 579 578 509
f 580 510 511
f 580 579 510
f 582 580 581
f 580 512 581
f 580 511 512
f 513 583 512
f 512 583 581
f 515 583 513
f 577 517 508
f 584 517 577
f 582 581 585
f 582 585 586
f 587 581 583
f 585 581 587
f 518 588 515
f 588 583 515
f 588 587 583
f 520 588 518
f 590 589 522
f 522 589 521
f 591 522 523
f 591 590 522
f 523 517 584
f 523 584 591
f 592 586 585
f 592 585 587
f 592 587 593
f 595 594 593
f 587 595 593
f 588 595 587
f 525 595 520
f 520 595 588
f 597 596 527
f 527 596 526
f 527 521 589
f 527 589 597
f 598 594 595
f 598 595 525
f 528 598 525
f 599 598 528
f 600 528 529
f 600 599 528
f 601 529 530
f 601 600 529
f 530 531 601
f 601 531 602
f 596 533 526
f 603 533 596
f 531 534 604
f 605 531 604
f 602 531 605
f 536 604 534
f 607 606 538
f 538 606 537
f 538 533 603
f 538 603 607
f 605 604 608
f 605 608 609
f 540 608 536
f 536 608 604
f 612 611 610
f 606 612 610
f 541 606 610
f 537 606 541
f 609 608 613
f 609 613 614
f 542 613 540
f 540 613 608
f 610 611 545
f 611 544 545
f 611 615 544
f 610 545 541
f 618 617 616
f 616 617 614
f 616 614 613
f 547 616 613
f 546 547 613
f 546 613 542
f 620 619 550
f 550 619 549
f 550 544 615
f 550 615 620
f 623 622 621
f 621 622 618
f 621 618 616
f 555 621 616
f 554 555 616
f 554 616 547
f 626 625 624
f 624 627 556
f 619 624 556
f 549 619 556
f 624 619 626
f 556 627 628
f 629 556 628
f 557 556 629
f 557 630 558
f 629 630 557
f 630 632 631
f 559 630 631
f 558 630 559
f 631 560 559
f 635 634 633
f 561 562 633
f 634 561 633
f 636 561 634
f 621 563 623
f 563 636 623
f 563 561 636
f 563 621 555
f 625 637 624
f 624 637 627
f 627 637 638
f 627 638 628
f 632 639 631
f 631 639 560
f 639 564 560
f 639 640 564
f 642 641 565
f 564 642 565
f 640 642 564
f 643 641 642
f 635 633 567
f 568 635 567
f 644 635 568
f 567 633 562
f 641 569 565
f 643 645 641
f 645 569 641
f 645 570 569
f 647 646 571
f 570 647 571
f 645 647 570
f 648 646 647
f 651 650 649
f 653 652 649
f 653 649 650
f 653 644 652
f 644 572 652
f 644 568 572
f 646 573 571
f 648 654 646
f 654 573 646
f 654 574 573
f 649 575 651
f 575 654 651
f 575 574 654
f 575 649 576
f 576 649 652
f 576 652 572
f 656 655 578
f 578 655 577
f 657 578 579
f 657 656 578
f 658 579 580
f 658 657 579
f 580 582 658
f 658 582 659
f 655 584 577
f 660 584 655
f 586 659 582
f 586 661 659
f 663 662 590
f 590 662 589
f 664 590 591
f 664 663 590
f 591 584 660
f 591 660 664
f 665 661 586
f 665 586 592
f 666 592 593
f 666 665 592
f 593 594 666
f 666 594 667
f 669 668 597
f 597 668 596
f 597 589 662
f 597 662 669
f 594 598 670
f 671 594 670
f 667 594 671
f 599 672 598
f 598 672 670
f 600 673 599
f 599 673 672
f 601 674 600
f 600 674 673
f 602 674 601
f 677 676 675
f 668 677 675
f 603 668 675
f 596 668 603
f 678 671 670
f 678 670 672
f 678 672 679
f 679 672 673
f 679 673 680
f 682 681 680
f 673 682 680
f 674 682 673
f 605 682 602
f 602 682 674
f 675 676 607
f 676 606 607
f 676 683 606
f 675 607 603
f 681 682 684
f 681 684 685
f 609 684 605
f 605 684 682
f 687 686 612
f 612 686 611
f 612 606 683
f 612 683 687
f 690 689 688
f 688 689 685
f 684 688 685
f 691 688 684
f 614 691 609
f 609 691 684
f 694 693 692
f 686 694 692
f 615 686 692
f 611 686 615
f 697 696 695
f 695 696 690
f 688 695 690
f 698 695 688
f 618 698 617
f 698 691 617
f 698 688 691
f 617 691 614
f 701 700 699
f 701 699 693
f 693 699 692
f 699 619 692
f 619 620 692
f 692 620 615
f 697 695 702
f 697 702 703
f 623 702 622
f 702 698 622
f 702 695 698
f 622 698 618
f 706 705 704
f 706 704 700
f 700 704 699
f 704 625 699
f 625 626 699
f 699 626 619
f 628 707 629
f 708 630 629
f 708 629 707
f 708 632 630
f 711 710 709
f 634 635 709
f 710 634 709
f 712 634 710
f 702 636 703
f 636 712 703
f 636 634 712
f 636 702 623
f 705 713 704
f 704 713 625
f 713 637 625
f 713 714 637
f 637 715 638
f 714 715 637
f 628 638 707
f 638 716 707
f 638 715 716
f 707 716 708
f 708 716 717
f 708 717 632
f 717 639 632
f 717 718 639
f 639 719 640
f 718 719 639
f 640 720 642
f 719 720 640
f 643 642 720
f 643 720 721
f 711 709 722
f 711 722 723
f 644 722 635
f 635 722 709
f 721 724 643
f 643 724 645
f 645 725 647
f 724 725 645
f 727 726 648
f 647 727 648
f 725 727 647
f 650 651 726
f 727 650 726
f 728 650 727
f 722 653 723
f 653 728 723
f 653 650 728
f 653 722 644
f 726 654 648
f 654 726 651
f 730 729 656
f 656 729 655
f 731 656 657
f 731 730 656
f 732 657 658
f 732 731 657
f 658 659 732
f 732 659 733
f 729 660 655
f 734 660 729
f 661 733 659
f 661 735 733
f 737 736 663
f 663 736 662
f 738 663 664
f 738 737 663
f 664 660 734
f 664 734 738
f 661 665 739
f 740 661 739
f 735 661 740
f 666 741 665
f 665 741 739
f 667 741 666
f 743 742 669
f 669 742 668
f 669 662 736
f 669 736 743
f 744 740 739
f 744 739 741
f 744 741 745
f 741 667 745
f 667 746 745
f 667 671 746
f 748 747 677
f 677 747 676
f 677 668 742
f 677 742 748
f 749 746 671
f 749 671 678
f 750 678 679
f 750 749 678
f 752 750 751
f 750 680 751
f 750 679 680
f 681 751 680
f 755 754 753
f 747 755 753
f 683 747 753
f 676 747 683
f 756 752 751
f 751 681 756
f 681 757 756
f 681 685 757
f 753 754 687
f 754 686 687
f 754 758 686
f 753 687 683
f 760 759 689
f 760 689 690
f 685 689 757
f 757 689 759
f 762 761 694
f 694 761 693
f 694 686 758
f 694 758 762
f 764 763 696
f 764 696 697
f 690 696 760
f 760 696 763
f 766 765 701
f 701 765 700
f 701 693 761
f 701 761 766
f 769 768 767
f 771 770 767
f 771 767 768
f 771 764 770
f 764 703 770
f 764 697 703
f 773 772 706
f 706 772 705
f 706 700 765
f 706 765 773
f 776 775 774
f 774 775 769
f 774 769 767
f 711 774 767
f 710 711 767
f 710 767 712
f 712 767 770
f 712 770 703
f 713 705 777
f 705 778 777
f 705 772 778
f 713 777 779
f 780 713 779
f 714 713 780
f 714 781 715
f 780 781 714
f 715 782 716
f 781 782 715
f 716 783 717
f 782 783 716
f 717 784 718
f 783 784 717
f 784 786 785
f 719 784 785
f 718 784 719
f 787 720 719
f 787 719 785
f 787 721 720
f 790 789 788
f 788 789 776
f 774 788 776
f 791 788 774
f 723 791 711
f 711 791 774
f 778 792 777
f 777 792 779
f 786 793 785
f 785 793 787
f 787 793 794
f 787 794 721
f 794 724 721
f 794 795 724
f 724 796 725
f 795 796 724
f 788 727 790
f 727 796 790
f 727 725 796
f 727 788 728
f 728 788 791
f 728 791 723
f 797 729 730
f 731 798 730
f 730 798 797
f 732 799 731
f 731 799 798
f 733 799 732
f 801 800 797
f 800 729 797
f 800 734 729
f 803 802 801
f 797 803 801
f 798 803 797
f 804 798 799
f 803 798 804
f 735 804 733
f 733 804 799
f 805 736 737
f 738 806 737
f 737 806 805
f 807 806 738
f 734 807 738
f 800 807 734
f 808 802 803
f 808 803 804
f 808 804 809
f 804 735 809
f 735 810 809
f 735 740 810
f 812 811 743
f 743 811 742
f 743 736 805
f 813 743 805
f 812 743 813
f 813 805 806
f 813 806 814
f 814 806 807
f 815 810 740
f 815 740 744
f 817 815 816
f 815 745 816
f 815 744 745
f 746 816 745
f 819 818 748
f 748 818 747
f 748 742 811
f 748 811 819
f 817 816 820
f 817 820 821
f 749 822 746
f 822 816 746
f 822 820 816
f 750 823 749
f 749 823 822
f 752 823 750
f 825 824 755
f 755 824 754
f 755 747 818
f 755 818 825
f 826 821 820
f 826 820 822
f 826 822 827
f 829 828 827
f 822 829 827
f 823 829 822
f 756 830 752
f 830 823 752
f 830 829 823
f 757 830 756
f 833 832 831
f 824 833 831
f 758 824 831
f 754 824 758
f 828 829 834
f 828 834 835
f 760 834 759
f 834 830 759
f 834 829 830
f 759 830 757
f 838 837 836
f 838 836 832
f 832 836 831
f 836 761 831
f 761 762 831
f 831 762 758
f 835 834 763
f 764 835 763
f 839 835 764
f 763 834 760
f 836 837 766
f 837 765 766
f 837 840 765
f 836 766 761
f 843 842 841
f 768 769 841
f 842 768 841
f 844 768 842
f 768 845 771
f 844 845 768
f 764 771 839
f 839 771 845
f 847 846 773
f 773 846 772
f 773 765 840
f 773 840 847
f 843 841 775
f 776 843 775
f 848 843 776
f 775 841 769
f 851 850 849
f 846 851 849
f 778 846 849
f 772 846 778
f 779 852 780
f 780 852 853
f 854 780 853
f 781 780 854
f 781 855 782
f 854 855 781
f 855 857 856
f 783 855 856
f 782 855 783
f 858 784 783
f 858 783 856
f 858 786 784
f 860 859 789
f 860 789 790
f 776 789 848
f 848 789 859
f 850 861 849
f 849 861 778
f 861 792 778
f 861 862 792
f 779 792 852
f 792 863 852
f 792 862 863
f 852 863 853
f 857 864 856
f 856 864 858
f 858 864 865
f 858 865 786
f 865 793 786
f 865 866 793
f 793 867 794
f 866 867 793
f 794 868 795
f 867 868 794
f 795 869 796
f 868 869 795
f 790 796 860
f 860 796 869
f 870 800 801
f 802 870 801
f 873 872 871
f 874 873 870
f 873 807 870
f 807 800 870
f 873 871 807
f 874 870 802
f 808 874 802
f 875 874 808
f 877 875 876
f 875 809 876
f 875 808 809
f 810 876 809
f 879 878 812
f 812 878 811
f 880 812 813
f 880 879 812
f 814 871 872
f 880 814 872
f 813 814 880
f 871 814 807
f 877 876 881
f 877 881 882
f 815 883 810
f 883 876 810
f 883 881 876
f 817 883 815
f 884 818 819
f 885 884 819
f 811 885 819
f 878 885 811
f 886 882 881
f 886 881 883
f 886 883 887
f 883 817 887
f 817 888 887
f 817 821 888
f 890 889 825
f 825 889 824
f 825 818 884
f 891 825 884
f 890 825 891
f 891 884 885
f 821 826 892
f 893 821 892
f 888 821 893
f 827 894 826
f 826 894 892
f 828 894 827
f 896 895 833
f 833 895 832
f 833 824 889
f 833 889 896
f 897 893 892
f 899 898 897
f 892 899 897
f 894 899 892
f 835 899 828
f 828 899 894
f 901 900 838
f 838 900 837
f 838 832 895
f 838 895 901
f 904 903 902
f 905 902 903
f 898 899 906
f 898 906 907
f 839 906 835
f 835 906 899
f 900 840 837
f 908 840 900
f 904 902 909
f 904 909 910
f 911 842 843
f 902 911 843
f 909 902 843
f 911 902 905
f 842 912 844
f 911 912 842
f 906 845 907
f 845 912 907
f 845 844 912
f 845 906 839
f 915 914 913
f 846 847 913
f 847 915 913
f 847 916 915
f 847 840 908
f 847 908 916
f 910 909 917
f 910 917 918
f 848 917 843
f 843 917 909
f 913 914 851
f 914 850 851
f 914 919 850
f 913 851 846
f 853 920 854
f 921 855 854
f 921 854 920
f 921 857 855
f 924 923 922
f 925 922 923
f 918 917 859
f 860 918 859
f 926 918 860
f 859 917 848
f 919 927 850
f 850 927 861
f 861 928 862
f 927 928 861
f 862 929 863
f 928 929 862
f 853 863 920
f 863 930 920
f 863 929 930
f 920 930 921
f 921 930 931
f 921 931 857
f 931 864 857
f 931 932 864
f 864 933 865
f 932 933 864
f 865 934 866
f 933 934 865
f 922 867 924
f 867 934 924
f 867 866 934
f 925 935 922
f 935 867 922
f 935 868 867
f 868 936 869
f 935 936 868
f 860 869 926
f 926 869 936
f 938 937 873
f 873 937 872
f 940 938 939
f 938 874 939
f 938 873 874
f 875 941 874
f 874 941 939
f 877 941 875
f 942 878 879
f 942 879 943
f 879 944 943
f 879 880 944
f 880 872 937
f 880 937 944
f 945 940 939
f 947 946 945
f 939 947 945
f 941 947 939
f 882 947 877
f 877 947 941
f 948 885 942
f 942 885 878
f 942 943 949
f 942 949 948
f 950 946 947
f 950 947 882
f 886 950 882
f 951 950 886
f 953 951 952
f 951 887 952
f 951 886 887
f 888 952 887
f 955 954 890
f 890 954 889
f 956 890 891
f 956 955 890
f 891 885 948
f 957 891 948
f 956 891 957
f 957 948 949
f 953 952 958
f 953 958 959
f 893 958 888
f 888 958 952
f 961 960 896
f 896 960 895
f 896 889 954
f 896 954 961
f 959 958 962
f 959 962 963
f 897 964 893
f 964 958 893
f 964 962 958
f 898 964 897
f 965 900 901
f 966 965 901
f 895 966 901
f 960 966 895
f 969 968 967
f 903 904 967
f 968 903 967
f 970 903 968
f 962 971 905
f 970 962 905
f 903 970 905
f 963 962 970
f 972 962 964
f 971 962 972
f 907 972 898
f 898 972 964
f 973 908 965
f 965 908 900
f 965 966 974
f 965 974 973
f 969 967 975
f 969 975 976
f 910 975 904
f 904 975 967
f 971 911 905
f 911 971 912
f 912 971 972
f 912 972 907
f 977 914 915
f 977 915 978
f 915 979 978
f 915 916 979
f 916 908 973
f 980 916 973
f 979 916 980
f 980 973 974
f 976 975 981
f 976 981 982
f 918 981 910
f 910 981 975
f 984 983 977
f 983 914 977
f 983 919 914
f 984 977 978
f 987 986 985
f 989 988 985
f 989 985 986
f 923 924 988
f 989 923 988
f 990 923 989
f 925 923 990
f 925 990 991
f 982 981 992
f 982 992 993
f 926 992 918
f 918 992 981
f 983 994 919
f 919 994 927
f 927 995 928
f 994 995 927
f 928 996 929
f 995 996 928
f 929 997 930
f 996 997 929
f 930 998 931
f 997 998 930
f 931 999 932
f 998 999 931
f 985 933 987
f 933 999 987
f 933 932 999
f 933 985 934
f 934 985 988
f 934 988 924
f 991 1000 925
f 925 1000 935
f 992 936 993
f 936 1000 993
f 936 935 1000
f 936 992 926
f 1001 937 938
f 940 1001 938
f 1002 943 944
f 937 1001 944
f 1001 1002 944
f 1001 1003 1002
f 945 1004 940
f 1004 1001 940
f 1004 1003 1001
f 946 1004 945
f 1005 949 1002
f 1002 949 943
f 1003 1007 1006
f 1005 1003 1006
f 1002 1003 1005
f 1007 1003 1004
f 1007 1004 1008
f 1008 1004 946
f 950 1008 946
f 1009 1008 950
f 1011 1009 1010
f 1009 951 1010
f 1009 950 951
f 953 1010 951
f 1012 954 955
f 956 1013 955
f 955 1013 1012
f 957 1014 956
f 956 1014 1013
f 949 1005 957
f 1005 1014 957
f 1005 1015 1014
f 1005 1006 1016
f 1005 1016 1015
f 1011 1010 1017
f 1011 1017 1018
f 959 1017 953
f 953 1017 1010
f 1020 1019 961
f 961 1019 960
f 961 954 1012
f 1021 961 1012
f 1020 961 1021
f 1021 1012 1013
f 1021 1013 1022
f 1022 1013 1014
f 1022 1014 1023
f 1025 1024 1023
f 1014 1025 1023
f 1015 1025 1014
f 1015 1016 1026
f 1015 1026 1025
f 1029 1028 1027
f 1027 1028 1018
f 1017 1027 1018
f 1030 1027 1017
f 963 1030 959
f 959 1030 1017
f 1019 966 960
f 1031 966 1019
f 1032 1024 1025
f 1032 1025 1026
f 1029 1027 968
f 969 1029 968
f 1033 1029 969
f 968 1027 970
f 970 1027 1030
f 970 1030 963
f 1031 974 966
f 1034 974 1031
f 1037 1036 1035
f 1036 1033 1035
f 1033 976 1035
f 1033 969 976
f 1039 1038 979
f 979 1038 978
f 1040 979 980
f 1040 1039 979
f 980 974 1034
f 980 1034 1040
f 1037 1035 1041
f 1037 1041 1042
f 982 1041 976
f 976 1041 1035
f 1044 1043 984
f 984 1043 983
f 984 978 1038
f 984 1038 1044
f 1047 1046 1045
f 1049 1048 1045
f 1049 1045 1046
f 986 987 1048
f 1049 986 1048
f 1050 986 1049
f 1050 1052 1051
f 989 1050 1051
f 986 1050 989
f 1053 990 989
f 1053 989 1051
f 1042 1053 1054
f 1053 1042 990
f 1041 990 1042
f 990 1041 991
f 1055 991 1041
f 993 1055 982
f 982 1055 1041
f 1058 1057 1056
f 1056 1059 994
f 1043 1056 994
f 983 1043 994
f 1056 1043 1058
f 1060 995 994
f 1060 994 1059
f 995 1060 1061
f 1062 995 1061
f 996 995 1062
f 996 1063 997
f 1062 1063 996
f 1045 998 1047
f 998 1063 1047
f 998 997 1063
f 998 1045 999
f 999 1045 1048
f 999 1048 987
f 1052 1064 1051
f 1051 1064 1053
f 1053 1064 1065
f 1055 1000 991
f 1065 1054 1053
f 1000 1055 993
f 1057 1066 1056
f 1056 1066 1059
f 1059 1066 1067
f 1059 1067 1060
f 1060 1067 1068
f 1060 1068 1061
f 1069 1006 1007
f 1008 1070 1007
f 1007 1070 1069
f 1009 1071 1008
f 1008 1071 1070
f 1011 1071 1009
f 1072 1016 1069
f 1069 1016 1006
f 1073 1069 1070
f 1072 1069 1073
f 1074 1070 1071
f 1073 1070 1074
f 1018 1074 1011
f 1011 1074 1071
f 1075 1019 1020
f 1021 1076 1020
f 1020 1076 1075
f 1022 1077 1021
f 1021 1077 1076
f 1023 1078 1022
f 1022 1078 1077
f 1024 1078 1023
f 1079 1026 1072
f 1072 1026 1016
f 1080 1072 1073
f 1079 1072 1080
f 1029 1080 1028
f 1080 1074 1028
f 1080 1073 1074
f 1028 1074 1018
f 1081 1031 1075
f 1075 1031 1019
f 1082 1075 1076
f 1081 1075 1082
f 1083 1076 1077
f 1082 1076 1083
f 1084 1077 1078
f 1083 1077 1084
f 1032 1085 1024
f 1085 1078 1024
f 1085 1084 1078
f 1026 1079 1032
f 1079 1085 1032
f 1079 1086 1085
f 1087 1079 1080
f 1086 1079 1087
f 1033 1087 1029
f 1029 1087 1080
f 1089 1088 1081
f 1088 1031 1081
f 1088 1034 1031
f 1089 1081 1082
f 1089 1082 1090
f 1092 1091 1090
f 1082 1092 1090
f 1083 1092 1082
f 1093 1083 1084
f 1092 1083 1093
f 1094 1084 1085
f 1093 1084 1094
f 1095 1085 1086
f 1094 1085 1095
f 1037 1095 1036
f 1095 1087 1036
f 1095 1086 1087
f 1036 1087 1033
f 1096 1038 1039
f 1040 1097 1039
f 1039 1097 1096
f 1034 1088 1098
f 1097 1034 1098
f 1099 1097 1098
f 1040 1034 1097
f 1101 1100 1099
f 1101 1099 1098
f 1100 1101 1091
f 1092 1100 1091
f 1102 1100 1092
f 1103 1092 1093
f 1102 1092 1103
f 1104 1093 1094
f 1103 1093 1104
f 1105 1094 1095
f 1104 1094 1105
f 1042 1105 1037
f 1037 1105 1095
f 1107 1106 1044
f 1044 1106 1043
f 1044 1038 1096
f 1108 1044 1096
f 1107 1044 1108
f 1110 1109 1108
f 1096 1110 1108
f 1097 1110 1096
f 1111 1097 1099
f 1110 1097 1111
f 1047 1111 1046
f 1111 1100 1046
f 1111 1099 1100
f 1046 1100 1049
f 1049 1100 1102
f 1049 1102 1050
f 1050 1102 1103
f 1050 1103 1052
f 1103 1112 1052
f 1103 1104 1112
f 1113 1104 1105
f 1112 1104 1113
f 1054 1113 1042
f 1042 1113 1105
f 1114 1057 1058
f 1043 1106 1115
f 1114 1043 1115
f 1116 1114 1115
f 1058 1043 1114
f 1118 1117 1116
f 1118 1116 1115
f 1117 1118 1109
f 1117 1109 1110
f 1061 1117 1110
f 1062 1061 1110
f 1062 1110 1063
f 1063 1110 1111
f 1063 1111 1047
f 1112 1064 1052
f 1064 1112 1065
f 1065 1112 1113
f 1065 1113 1054
f 1114 1066 1057
f 1066 1114 1067
f 1067 1114 1116
f 1067 1116 1068
f 1068 1116 1117
f 1068 1117 1061
f 1119 1088 1089
f 1090 1120 1089
f 1089 1120 1119
f 1091 1120 1090
f 1119 1098 1088
f 1098 1119 1101
f 1101 1119 1120
f 1101 1120 1091
f 1121 1106 1107
f 1108 1122 1107
f 1107 1122 1121
f 1109 1122 1108
f 1121 1115 1106
f 1115 1121 1118
f 1118 1121 1122
f 1118 1122 1109
