v -38.3 48.0 13.0
v -38.0 48.0 12.1
v -38.0 47.8 13.0
v -38.0 47.7 14.0
v -38.6 48.0 14.0
v -38.0 48.0 14.4
v -38.0 48.4 13.0
v -38.2 49.0 14.0
v -38.0 49.0 13.7
v -38.0 49.0 14.2
v -38.0 49.2 14.0
v -37.7 48.0 12.0
v -37.0 48.0 11.9
v -37.0 47.9 12.0
v -37.0 47.7 13.0
v -37.0 47.7 14.0
v -37.0 48.0 14.9
v -37.0 49.0 12.0
v -37.0 49.0 12.0
v -37.6 49.0 13.0
v -37.0 48.2 15.0
v -37.3 49.0 15.0
v -37.0 49.0 15.2
v -37.0 49.0 12.0
v -37.2 50.0 13.0
v -37.0 50.0 12.8
v -37.4 50.0 14.0
v -37.2 50.0 15.0
v -37.0 50.0 15.2
v -37.0 50.3 13.0
v -37.0 50.5 14.0
v -37.0 50.2 15.0
v -36.9 48.0 12.0
v -36.7 48.0 13.0
v -36.7 48.0 14.0
v -37.0 49.0 12.0
v -36.5 49.0 13.0
v -36.4 49.0 14.0
v -36.7 49.0 15.0
v -36.0 49.8 13.0
v -36.0 50.0 12.8
v -36.0 49.5 14.0
v -36.0 49.7 15.0
v -36.0 50.0 15.3
v -36.0 51.0 13.0
v -36.4 51.0 14.0
v -36.0 51.0 13.0
v -36.3 51.0 15.0
v -36.0 50.9 16.0
v -36.0 51.0 16.0
v -36.0 51.0 16.1
v -36.0 51.8 14.0
v -36.0 51.4 15.0
v -36.0 51.1 16.0
v -35.1 49.0 17.0
v -35.0 49.0 16.9
v -35.0 48.7 17.0
v -35.0 49.0 17.2
v -35.8 50.0 13.0
v -35.7 50.0 14.0
v -35.8 50.0 15.0
v -35.4 50.0 17.0
v -35.0 50.0 16.5
v -35.0 49.7 18.0
v -35.2 50.0 18.0
v -35.0 50.0 18.2
v -35.7 51.0 14.0
v -35.4 51.0 15.0
v -35.0 50.5 16.0
v -35.0 51.0 15.2
v -35.5 51.0 17.0
v -35.2 51.0 18.0
v -35.0 51.0 18.2
v -35.5 52.0 15.0
v -35.0 52.0 14.5
v -35.0 51.3 15.0
v -35.6 52.0 16.0
v -35.4 52.0 17.0
v -35.0 52.0 17.6
v -35.0 51.4 18.0
v -35.3 53.0 15.0
v -35.0 53.0 14.3
v -35.4 53.0 16.0
v -35.3 53.0 17.0
v -35.0 53.0 17.3
v -35.0 53.4 15.0
v -35.0 53.8 16.0
v -35.0 53.4 17.0
v -34.0 49.0 16.7
v -34.0 48.7 17.0
v -34.0 49.0 17.4
v -34.0 50.0 16.3
v -34.0 49.4 18.0
v -34.0 50.0 18.4
v -34.6 51.0 15.0
v -34.0 51.0 14.8
v -34.0 50.7 15.0
v -34.0 50.3 16.0
v -34.0 51.0 18.5
v -34.0 52.0 14.5
v -34.6 52.0 18.0
v -34.0 52.0 18.4
v -34.0 53.0 14.6
v -34.3 53.0 18.0
v -34.0 53.0 18.2
v -34.0 53.4 15.0
v -34.0 53.8 16.0
v -34.0 54.0 17.0
v -34.0 53.3 18.0
v -33.0 49.0 16.6
v -33.0 48.6 17.0
v -33.0 48.7 18.0
v -33.5 49.0 18.0
v -33.0 49.0 18.4
v -33.6 50.0 16.0
v -33.0 50.0 15.6
v -33.0 49.6 16.0
v -33.0 50.0 18.6
v -33.0 51.0 14.6
v -33.0 50.6 15.0
v -33.0 51.0 18.5
v -33.0 52.0 14.5
v -33.0 52.0 18.5
v -33.0 53.0 14.6
v -33.0 53.0 18.2
v -33.0 53.5 15.0
v -33.4 54.0 16.0
v -33.0 54.0 15.8
v -33.0 54.0 16.3
v -33.0 53.7 17.0
v -33.0 53.3 18.0
v -33.0 54.2 16.0
v -32.2 48.0 18.0
v -32.0 48.0 17.7
v -32.0 47.8 18.0
v -32.0 48.0 18.3
v -32.0 49.0 12.0
v -32.0 49.0 12.0
v -32.0 48.9 12.0
v -32.0 49.0 12.1
v -32.0 49.0 16.3
v -32.0 48.4 17.0
v -32.0 48.5 19.0
v -32.4 49.0 19.0
v -32.0 49.0 19.5
v -32.2 50.0 12.0
v -32.0 50.0 11.8
v -32.0 49.6 13.0
v -32.2 50.0 13.0
v -32.0 50.0 13.3
v -32.0 50.0 15.3
v -32.0 49.3 16.0
v -32.5 50.0 19.0
v -32.0 50.0 20.0
v -32.0 50.0 20.0
v -32.0 50.0 20.0
v -32.0 50.3 12.0
v -32.1 51.0 13.0
v -32.0 51.0 12.8
v -32.0 51.0 13.2
v -32.0 51.0 14.4
v -32.0 50.3 15.0
v -32.0 50.5 19.0
v -32.0 51.0 18.6
v -32.0 50.0 20.0
v -32.0 51.1 13.0
v -32.0 52.0 14.4
v -32.0 52.0 18.5
v -32.0 53.0 14.6
v -32.3 53.0 18.0
v -32.0 52.9 18.0
v -32.0 53.0 17.9
v -32.0 53.6 15.0
v -32.0 54.0 15.4
v -32.0 53.8 17.0
v -32.0 54.0 16.7
v -32.3 55.0 16.0
v -32.0 55.0 15.7
v -32.0 55.0 16.4
v -32.1 56.0 16.0
v -32.0 56.0 15.9
v -32.0 56.0 16.1
v -32.0 56.1 16.0
v -32.1 59.0 15.0
v -32.0 59.0 14.0
v -32.0 58.8 15.0
v -32.0 59.0 15.1
v -32.0 59.4 15.0
v -31.0 47.0 19.0
v -31.0 47.0 19.0
v -31.0 47.0 19.0
v -31.0 47.0 19.0
v -31.1 48.0 12.0
v -31.0 48.0 12.0
v -31.0 48.0 12.0
v -31.0 48.0 12.1
v -31.3 48.0 16.0
v -31.0 48.0 15.6
v -31.0 47.7 16.0
v -31.0 47.5 17.0
v -31.6 48.0 17.0
v -31.0 47.4 18.0
v -31.6 48.0 19.0
v -31.0 48.0 19.6
v -31.0 49.0 11.6
v -31.0 48.5 13.0
v -31.5 49.0 13.0
v -31.0 49.0 13.8
v -31.3 49.0 15.0
v -31.0 49.0 14.3
v -31.0 48.5 15.0
v -31.7 49.0 16.0
v -31.0 48.7 20.0
v -31.2 49.0 20.0
v -31.0 49.0 20.1
v -31.0 50.0 11.5
v -31.0 49.2 14.0
v -31.5 50.0 14.0
v -31.7 50.0 15.0
v -31.0 50.0 20.2
v -31.4 51.0 12.0
v -31.0 51.0 11.7
v -31.7 51.0 14.0
v -31.0 50.9 19.0
v -31.0 51.0 18.9
v -31.0 50.2 20.0
v -31.0 51.3 12.0
v -31.1 52.0 13.0
v -31.0 52.0 12.9
v -31.0 52.0 13.5
v -31.0 51.9 14.0
v -31.0 52.0 14.1
v -31.0 51.2 19.0
v -31.4 52.0 19.0
v -31.0 52.0 19.3
v -31.0 52.1 13.0
v -31.0 53.0 14.5
v -31.9 53.0 18.0
v -31.4 53.0 19.0
v -31.0 53.0 19.6
v -31.6 54.0 15.0
v -31.0 54.0 14.6
v -31.8 54.0 17.0
v -31.5 54.0 18.0
v -31.5 54.0 19.0
v -31.0 53.5 20.0
v -31.3 54.0 20.0
v -31.0 54.0 20.4
v -31.3 55.0 15.0
v -31.0 55.0 14.8
v -31.6 55.0 17.0
v -31.5 55.0 18.0
v -31.5 55.0 19.0
v -31.5 55.0 20.0
v -31.0 54.6 21.0
v -31.2 55.0 21.0
v -31.0 55.0 21.2
v -31.1 56.0 15.0
v -31.0 56.0 14.9
v -31.4 56.0 17.0
v -31.4 56.0 18.0
v -31.5 56.0 19.0
v -31.4 56.0 20.0
v -31.2 56.0 21.0
v -31.0 56.0 21.2
v -31.0 56.2 15.0
v -31.2 57.0 16.0
v -31.0 57.0 15.6
v -31.0 57.0 16.2
v -31.0 56.4 17.0
v -31.0 56.5 18.0
v -31.1 57.0 19.0
v -31.0 57.0 18.8
v -31.0 57.0 19.2
v -31.0 56.5 20.0
v -31.0 56.2 21.0
v -31.3 58.0 14.0
v -31.0 58.0 13.8
v -31.0 57.7 14.0
v -31.0 57.4 15.0
v -31.4 58.0 15.0
v -31.0 57.2 16.0
v -31.0 58.0 15.4
v -31.0 57.1 19.0
v -32.0 59.0 14.0
v -31.0 59.0 13.7
v -31.0 59.0 15.4
v -31.0 59.3 14.0
v -31.0 59.4 15.0
v -30.4 47.0 16.0
v -30.0 47.0 15.5
v -30.0 46.6 16.0
v -30.0 46.7 17.0
v -30.4 47.0 17.0
v -30.0 47.0 17.8
v -30.0 47.0 18.2
v -30.0 46.6 19.0
v -30.0 47.0 20.0
v -30.0 47.0 20.0
v -30.0 47.0 20.0
v -30.0 48.0 11.8
v -30.0 47.8 12.0
v -30.0 47.6 13.0
v -30.5 48.0 13.0
v -30.0 47.6 14.0
v -30.4 48.0 14.0
v -30.0 47.4 15.0
v -30.6 48.0 15.0
v -30.0 47.1 18.0
v -30.2 48.0 20.0
v -30.0 48.0 20.1
v -30.0 49.0 11.6
v -30.9 49.0 14.0
v -30.7 49.0 20.0
v -30.0 49.0 19.7
v -30.0 48.2 20.0
v -30.0 50.0 11.6
v -30.7 50.0 20.0
v -30.0 50.0 19.6
v -30.0 51.0 11.8
v -30.9 51.0 19.0
v -30.0 51.0 19.4
v -30.0 51.3 12.0
v -30.0 52.0 12.7
v -30.8 52.0 14.0
v -30.0 52.0 19.6
v -30.0 52.2 13.0
v -30.0 52.5 14.0
v -30.0 53.0 14.4
v -30.0 52.6 20.0
v -30.5 53.0 20.0
v -30.0 53.0 20.3
v -30.0 54.0 14.7
v -30.0 53.8 21.0
v -30.2 54.0 21.0
v -30.0 54.0 21.1
v -30.0 54.4 15.0
v -30.7 55.0 15.0
v -30.0 55.0 16.0
v -30.0 55.0 16.0
v -30.0 55.0 16.0
v -30.0 55.0 21.5
v -30.9 56.0 15.0
v -30.3 56.0 16.0
v -30.0 56.0 17.0
v -30.1 56.0 17.0
v -30.0 56.0 17.0
v -30.0 56.0 21.5
v -30.3 57.0 14.0
v -30.0 57.0 13.8
v -30.0 56.8 14.0
v -30.0 56.5 15.0
v -30.7 57.0 15.0
v -30.0 56.3 16.0
v -30.0 57.0 16.5
v -30.0 57.0 17.8
v -30.2 57.0 18.0
v -30.5 57.0 20.0
v -30.0 57.0 20.5
v -30.0 56.6 21.0
v -30.0 58.0 13.5
v -30.4 58.0 16.0
v -30.0 58.0 16.3
v -30.0 57.1 18.0
v -30.0 57.5 19.0
v -30.0 57.4 20.0
v -30.0 59.0 13.7
v -30.0 58.3 16.0
v -30.0 59.0 15.4
v -30.0 59.3 14.0
v -30.0 59.4 15.0
v -29.3 42.0 18.0
v -29.0 42.0 17.5
v -29.0 41.7 18.0
v -29.0 41.9 19.0
v -29.4 42.0 19.0
v -29.0 42.0 19.1
v -29.3 43.0 18.0
v -29.0 43.0 17.6
v -29.1 43.0 19.0
v -29.0 43.0 19.0
v -29.0 44.0 18.0
v -29.0 44.0 18.0
v -29.0 44.0 18.0
v -29.0 43.1 19.0
v -29.1 45.0 16.0
v -29.0 45.0 15.8
v -29.0 44.8 16.0
v -29.0 45.0 16.2
v -29.0 44.3 18.0
v -29.3 46.0 15.0
v -29.0 46.0 14.7
v -29.0 45.6 15.0
v -29.5 46.0 16.0
v -29.0 46.0 16.7
v -29.2 46.0 18.0
v -29.0 46.0 17.5
v -29.0 45.1 18.0
v -29.0 46.0 18.3
v -29.6 47.0 15.0
v -29.0 47.0 14.5
v -29.0 46.2 17.0
v -29.9 47.0 18.0
v -29.0 46.7 19.0
v -30.0 47.0 20.0
v -29.0 47.0 19.3
v -29.8 48.0 12.0
v -29.0 48.0 12.7
v -29.0 47.7 13.0
v -29.0 47.4 14.0
v -29.8 48.0 20.0
v -29.0 48.0 19.5
v -29.5 49.0 12.0
v -29.0 49.0 12.4
v -29.0 49.0 19.5
v -29.6 50.0 12.0
v -29.0 50.0 12.6
v -29.0 50.0 19.5
v -29.8 51.0 12.0
v -29.0 50.6 13.0
v -29.3 51.0 13.0
v -29.0 51.0 13.3
v -29.0 51.0 19.5
v -29.7 52.0 13.0
v -29.0 52.0 13.6
v -29.0 52.0 19.6
v -29.0 52.4 14.0
v -29.0 53.0 14.5
v -29.0 52.6 20.0
v -29.0 53.0 20.3
v -29.0 53.8 15.0
v -29.3 54.0 15.0
v -29.0 54.0 15.1
v -29.7 54.0 21.0
v -29.0 54.0 20.7
v -29.0 55.0 15.5
v -30.0 55.0 16.0
v -29.0 54.4 21.0
v -29.0 55.0 21.5
v -29.2 56.0 12.0
v -29.0 56.0 11.2
v -29.0 55.8 12.0
v -29.0 56.0 13.0
v -29.0 56.0 13.0
v -29.0 56.0 13.1
v -29.7 56.0 16.0
v -29.0 56.0 15.5
v -29.9 56.0 17.0
v -29.0 55.9 22.0
v -29.1 56.0 22.0
v -29.0 56.0 22.1
v -29.0 56.2 12.0
v -29.0 56.0 13.0
v -29.0 57.0 13.5
v -29.0 56.4 14.0
v -29.0 56.3 15.0
v -29.0 56.4 17.0
v -29.0 57.0 16.6
v -29.0 56.6 18.0
v -29.8 57.0 18.0
v -29.0 57.0 18.4
v -29.5 57.0 21.0
v -29.0 57.0 21.4
v -29.0 56.1 22.0
v -29.0 58.0 13.5
v -29.0 58.0 16.4
v -29.0 57.6 19.0
v -29.2 58.0 20.0
v -29.0 58.0 19.7
v -29.0 58.0 20.2
v -29.0 57.4 21.0
v -29.0 59.0 13.7
v -29.0 58.5 16.0
v -29.0 59.0 15.5
v -29.0 58.2 20.0
v -29.0 59.3 14.0
v -29.0 59.4 15.0
v -28.3 42.0 15.0
v -28.0 42.0 14.7
v -28.0 41.8 15.0
v -28.0 41.5 16.0
v -28.8 42.0 16.0
v -28.0 41.6 17.0
v -28.6 42.0 17.0
v -28.0 41.8 18.0
v -28.8 42.0 19.0
v -28.0 42.0 18.3
v -28.4 43.0 15.0
v -28.0 43.0 14.4
v -28.6 43.0 16.0
v -28.6 43.0 17.0
v -28.9 43.0 19.0
v -28.0 43.0 18.3
v -28.2 44.0 14.0
v -28.0 44.0 13.8
v -28.0 43.6 14.0
v -28.5 44.0 15.0
v -28.6 44.0 16.0
v -28.4 44.0 17.0
v -29.0 44.0 18.0
v -28.0 43.4 18.0
v -28.0 44.0 17.4
v -28.2 45.0 14.0
v -28.0 45.0 13.8
v -28.7 45.0 15.0
v -28.4 45.0 17.0
v -28.0 45.0 17.3
v -28.0 45.3 14.0
v -28.0 46.0 14.4
v -28.3 46.0 17.0
v -28.0 45.8 18.0
v -28.0 46.0 18.2
v -28.0 47.0 14.4
v -28.7 47.0 19.0
v -28.0 47.0 18.6
v -28.6 48.0 13.0
v -28.0 48.0 13.4
v -28.0 47.4 14.0
v -28.4 48.0 19.0
v -28.0 48.0 18.7
v -28.0 49.0 12.7
v -28.0 48.5 13.0
v -28.0 48.6 19.0
v -28.0 49.0 19.2
v -28.0 49.7 13.0
v -28.3 50.0 13.0
v -28.0 50.0 13.2
v -28.0 50.0 19.4
v -28.0 51.0 13.6
v -28.0 51.0 19.4
v -28.0 51.6 14.0
v -28.5 52.0 14.0
v -28.0 52.0 14.3
v -28.0 52.0 19.4
v -28.0 53.0 14.5
v -28.5 53.0 20.0
v -28.0 53.0 19.7
v -28.8 54.0 15.0
v -28.0 54.0 14.6
v -28.0 53.4 20.0
v -28.0 54.0 20.5
v -28.1 55.0 11.0
v -28.0 55.0 10.9
v -28.0 54.9 11.0
v -28.0 54.7 12.0
v -28.3 55.0 12.0
v -28.0 55.0 12.5
v -28.3 55.0 15.0
v -28.0 55.0 14.6
v -28.0 54.5 21.0
v -28.0 55.0 21.6
v -28.9 56.0 11.0
v -28.0 56.0 10.7
v -28.0 55.4 13.0
v -28.0 55.5 14.0
v -28.5 56.0 14.0
v -28.2 56.0 15.0
v -28.5 56.0 17.0
v -28.0 55.1 17.0
v -28.0 56.0 16.6
v -28.1 56.0 18.0
v -28.0 55.9 18.0
v -28.0 56.0 18.1
v -28.0 55.6 22.0
v -28.0 56.0 22.2
v -28.0 56.3 11.0
v -28.0 56.6 12.0
v -28.0 56.7 13.0
v -28.0 57.0 13.2
v -28.0 57.0 16.5
v -28.0 57.0 18.4
v -28.0 56.3 22.0
v -28.0 57.0 21.5
v -28.0 58.0 13.4
v -28.0 58.0 16.4
v -28.6 58.0 19.0
v -28.0 58.0 18.6
v -28.0 57.7 21.0
v -28.0 58.0 20.7
v -28.0 59.0 13.6
v -28.0 58.5 16.0
v -28.0 59.0 15.5
v -28.2 59.0 19.0
v -28.0 59.0 18.8
v -28.3 59.0 20.0
v -28.0 59.0 20.3
v -28.0 59.4 14.0
v -28.0 59.4 15.0
v -28.0 59.2 19.0
v -28.0 59.2 20.0
v -27.0 42.0 14.0
v -27.0 42.0 14.0
v -27.0 42.0 14.0
v -27.0 41.7 15.0
v -27.0 41.7 16.0
v -27.0 41.8 17.0
v -27.7 42.0 18.0
v -27.0 42.0 17.2
v -27.5 43.0 14.0
v -27.0 43.0 13.6
v -27.7 43.0 18.0
v -27.0 43.0 17.3
v -27.0 44.0 13.5
v -27.5 44.0 17.0
v -27.0 43.5 17.0
v -27.0 44.0 16.6
v -27.0 45.0 13.5
v -27.6 45.0 17.0
v -27.0 45.0 16.7
v -27.0 45.7 14.0
v -27.0 46.0 14.2
v -27.0 45.6 17.0
v -27.8 46.0 18.0
v -27.0 46.0 17.3
v -27.0 47.0 14.3
v -27.0 46.7 18.0
v -27.0 47.0 18.2
v -27.0 48.0 13.5
v -27.0 47.4 14.0
v -27.0 48.0 18.3
v -27.0 49.0 12.6
v -27.0 48.5 13.0
v -27.3 49.0 18.0
v -27.0 48.5 18.0
v -27.0 49.0 17.8
v -27.7 49.0 19.0
v -27.7 50.0 13.0
v -27.0 50.0 12.7
v -27.2 50.0 18.0
v -27.0 50.0 17.8
v -27.6 50.0 19.0
v -27.0 50.4 13.0
v -27.0 51.0 13.5
v -27.0 50.3 18.0
v -27.0 51.0 18.5
v -27.5 51.0 19.0
v -27.0 51.6 14.0
v -27.0 52.0 14.3
v -27.3 52.0 19.0
v -27.0 52.0 18.8
v -27.0 53.0 14.5
v -27.0 52.3 19.0
v -27.0 53.0 19.5
v -27.1 54.0 12.0
v -27.0 54.0 11.9
v -27.0 53.9 12.0
v -27.0 54.0 12.2
v -27.0 54.0 14.3
v -27.0 53.6 20.0
v -27.0 54.0 20.4
v -27.9 55.0 11.0
v -27.0 55.0 11.3
v -27.0 54.4 13.0
v -27.7 55.0 13.0
v -27.0 54.4 14.0
v -27.5 55.0 14.0
v -27.0 54.5 21.0
v -27.0 54.9 22.0
v -27.1 55.0 22.0
v -27.0 55.0 22.1
v -27.0 56.0 10.8
v -27.0 55.6 11.0
v -27.0 55.3 17.0
v -27.0 56.0 16.8
v -27.9 56.0 18.0
v -27.0 56.0 17.2
v -27.0 56.0 22.4
v -27.0 56.3 11.0
v -27.5 57.0 12.0
v -27.0 57.0 11.5
v -27.8 57.0 13.0
v -27.0 57.0 16.8
v -27.5 57.0 18.0
v -27.0 57.0 17.4
v -27.0 56.5 22.0
v -27.0 57.0 21.6
v -27.2 58.0 12.0
v -27.0 58.0 11.8
v -27.5 58.0 13.0
v -27.0 58.0 16.5
v -27.0 57.5 18.0
v -27.0 58.0 18.3
v -27.5 58.0 21.0
v -27.0 58.0 21.3
v -27.0 58.2 12.0
v -27.0 58.6 13.0
v -27.0 59.0 13.4
v -27.0 58.5 16.0
v -27.0 59.0 15.5
v -27.0 59.0 18.8
v -27.0 58.9 21.0
v -27.0 59.0 20.9
v -27.0 59.4 14.0
v -27.0 59.4 15.0
v -27.0 59.2 19.0
v -27.0 59.3 20.0
v -27.0 42.0 14.0
v -26.6 42.0 15.0
v -26.6 42.0 16.0
v -26.8 42.0 17.0
v -26.0 43.0 13.8
v -26.0 42.7 14.0
v -26.0 42.7 15.0
v -26.0 43.0 15.3
v -26.4 43.0 16.0
v -26.7 43.0 17.0
v -26.0 44.0 13.5
v -26.4 44.0 16.0
v -26.0 44.0 15.6
v -26.2 45.0 13.0
v -26.0 45.0 12.9
v -26.0 44.8 13.0
v -26.0 44.5 16.0
v -26.0 45.0 16.3
v -26.2 46.0 13.0
v -26.0 46.0 12.7
v -26.7 46.0 14.0
v -26.7 46.0 17.0
v -26.0 46.0 16.6
v -26.0 46.3 13.0
v -26.0 47.0 14.0
v -26.0 47.0 14.0
v -26.3 47.0 17.0
v -26.0 47.0 16.8
v -26.8 47.0 18.0
v -26.0 48.0 13.3
v -26.0 47.0 14.0
v -26.0 47.4 17.0
v -26.0 48.0 17.4
v -26.7 48.0 18.0
v -26.1 49.0 9.0
v -26.0 49.0 8.9
v -26.0 48.6 9.0
v -26.0 49.0 9.1
v -26.0 49.0 12.4
v -26.0 48.3 13.0
v -26.0 49.0 17.5
v -26.2 50.0 9.0
v -26.0 50.0 8.8
v -26.0 49.6 10.0
v -26.2 50.0 10.0
v -26.0 50.0 10.3
v -26.0 50.0 12.4
v -26.0 50.0 17.7
v -26.0 50.2 9.0
v -26.1 51.0 10.0
v -26.0 51.0 9.9
v -26.0 51.0 10.2
v -26.0 50.8 13.0
v -26.0 51.0 13.2
v -26.0 50.4 18.0
v -26.0 51.0 18.4
v -26.0 51.1 10.0
v -26.0 51.6 11.0
v -26.2 52.0 11.0
v -26.0 52.0 10.7
v -26.0 51.6 12.0
v -26.3 52.0 12.0
v -26.0 52.0 12.5
v -26.6 52.0 14.0
v -26.0 52.0 13.4
v -26.0 52.0 18.7
v -26.2 53.0 11.0
v -26.0 53.0 10.8
v -26.4 53.0 12.0
v -26.0 53.0 12.7
v -26.0 52.9 14.0
v -26.0 53.0 14.1
v -26.0 52.4 19.0
v -26.0 53.0 19.4
v -26.0 53.3 11.0
v -26.0 54.0 11.4
v -26.0 53.3 13.0
v -26.6 54.0 13.0
v -26.0 53.1 14.0
v -26.6 54.0 14.0
v -26.4 54.0 20.0
v -26.0 54.0 19.7
v -26.0 55.0 11.3
v -26.0 54.3 20.0
v -26.2 55.0 21.0
v -26.0 55.0 20.9
v -26.9 55.0 22.0
v -26.0 56.0 10.8
v -26.0 55.5 11.0
v -26.8 56.0 17.0
v -26.0 55.1 21.0
v -26.0 55.5 22.0
v -26.0 56.0 22.9
v -26.0 56.4 11.0
v -26.0 57.0 11.4
v -26.8 57.0 17.0
v -26.0 56.5 22.0
v -26.0 57.0 21.6
v -26.0 58.0 11.7
v -26.5 58.0 17.0
v -26.6 58.0 18.0
v -26.4 58.0 21.0
v -26.0 57.7 21.0
v -26.0 58.0 20.7
v -26.0 58.3 12.0
v -26.4 59.0 13.0
v -26.0 59.0 12.7
v -26.0 58.6 16.0
v -26.0 59.0 15.5
v -26.0 58.4 17.0
v -26.0 58.5 18.0
v -26.0 58.6 19.0
v -26.7 59.0 19.0
v -26.6 59.0 20.0
v -26.0 58.4 20.0
v -26.0 59.3 13.0
v -26.0 59.5 14.0
v -26.0 59.4 15.0
v -25.7 43.0 14.0
v -25.7 43.0 15.0
v -25.0 44.0 13.9
v -25.0 43.9 14.0
v -25.0 44.0 14.2
v -25.4 44.0 15.0
v -25.7 45.0 13.0
v -25.0 45.0 13.3
v -25.0 44.5 15.0
v -25.6 45.0 16.0
v -25.0 45.0 15.5
v -25.1 46.0 12.0
v -25.0 46.0 11.9
v -25.0 45.9 12.0
v -25.0 45.4 13.0
v -25.0 45.6 16.0
v -25.0 46.0 16.3
v -25.2 47.0 11.0
v -25.0 47.0 10.7
v -25.0 46.7 11.0
v -25.5 47.0 12.0
v -25.6 47.0 13.0
v -26.0 47.0 14.0
v -25.0 47.0 16.5
v -25.7 48.0 9.0
v -25.0 48.0 8.8
v -25.0 47.8 9.0
v -25.0 47.6 10.0
v -25.4 48.0 10.0
v -25.5 48.0 11.0
v -25.5 48.0 12.0
v -25.8 48.0 13.0
v -25.4 48.0 17.0
v -25.0 48.0 16.7
v -25.7 49.0 9.0
v -25.0 48.5 9.0
v -25.0 49.0 9.2
v -25.6 49.0 10.0
v -25.5 49.0 11.0
v -25.6 49.0 12.0
v -25.0 48.4 17.0
v -25.0 49.0 17.5
v -25.0 50.0 8.5
v -25.0 49.3 9.0
v -25.6 50.0 11.0
v -25.6 50.0 12.0
v -25.0 49.6 18.0
v -25.5 50.0 18.0
v -25.0 50.0 18.3
v -25.0 50.3 9.0
v -25.0 51.0 9.5
v -25.7 51.0 11.0
v -25.6 51.0 12.0
v -25.8 51.0 13.0
v -25.0 51.0 18.6
v -25.0 51.5 10.0
v -25.0 52.0 10.4
v -25.7 52.0 13.0
v -25.0 51.7 19.0
v -25.4 52.0 19.0
v -25.0 52.0 19.2
v -25.0 53.0 10.6
v -25.8 53.0 13.0
v -25.9 53.0 14.0
v -25.0 53.0 19.5
v -25.0 53.8 11.0
v -25.0 54.0 11.1
v -25.0 54.0 19.8
v -25.5 55.0 11.0
v -25.0 55.0 10.7
v -25.0 54.2 11.0
v -25.0 54.2 20.0
v -25.0 54.6 21.0
v -25.8 55.0 21.0
v -25.0 55.0 21.5
v -25.0 56.0 10.6
v -25.0 55.5 22.0
v -25.0 55.8 23.0
v -25.8 56.0 23.0
v -25.0 56.0 23.2
v -25.0 56.4 11.0
v -25.0 57.0 11.5
v -25.0 56.4 22.0
v -25.0 57.0 21.5
v -25.0 56.2 23.0
v -25.0 57.6 12.0
v -25.5 58.0 12.0
v -25.0 58.0 12.4
v -25.3 58.0 20.0
v -25.0 57.8 20.0
v -25.0 58.0 19.8
v -25.0 57.8 21.0
v -25.0 59.0 12.8
v -25.0 58.6 16.0
v -25.0 59.0 15.3
v -25.0 58.6 17.0
v -25.0 58.9 18.0
v -25.0 58.6 19.0
v -25.0 59.2 13.0
v -25.0 59.4 14.0
v -25.0 59.2 15.0
v -24.9 44.0 14.0
v -24.0 45.0 13.9
v -24.0 44.9 14.0
v -24.5 45.0 15.0
v -24.0 45.0 14.2
v -24.9 46.0 12.0
v -24.4 46.0 13.0
v -24.0 46.0 13.3
v -24.0 45.5 15.0
v -24.6 46.0 16.0
v -24.0 46.0 15.5
v -24.0 47.0 10.7
v -24.0 46.8 11.0
v -24.0 46.5 12.0
v -24.0 46.3 13.0
v -24.0 46.6 16.0
v -24.0 47.0 16.3
v -24.1 48.0 9.0
v -24.0 48.0 9.1
v -24.0 47.6 10.0
v -24.0 48.0 16.6
v -24.0 49.0 9.4
v -24.0 48.5 17.0
v -24.0 49.0 17.5
v -24.7 50.0 9.0
v -24.0 50.0 9.5
v -24.0 49.5 18.0
v -24.0 50.0 18.5
v -24.0 51.0 9.6
v -24.0 50.8 19.0
v -24.3 51.0 19.0
v -24.0 51.0 19.2
v -24.0 51.6 10.0
v -24.0 52.0 10.3
v -24.0 52.0 19.1
v -24.0 53.0 10.4
v -24.0 53.0 19.7
v -24.8 54.0 11.0
v -24.0 54.0 10.5
v -24.0 53.3 20.0
v -24.7 54.0 20.0
v -24.0 53.6 21.0
v -24.4 54.0 21.0
v -24.0 54.0 21.7
v -24.1 54.0 23.0
v -24.0 54.0 22.7
v -24.0 53.9 23.0
v -24.0 54.0 23.1
v -24.0 55.0 10.6
v -24.0 54.3 22.0
v -24.6 55.0 22.0
v -24.4 55.0 23.0
v -24.0 55.0 23.5
v -24.0 56.0 10.8
v -24.0 56.0 21.7
v -24.4 56.0 22.0
v -24.0 55.7 22.0
v -24.0 56.0 22.5
v -24.0 56.0 23.7
v -24.0 56.3 11.0
v -24.0 57.0 11.7
v -24.5 57.0 21.0
v -24.0 56.5 21.0
v -24.0 57.0 20.5
v -24.0 56.2 23.0
v -24.0 57.3 12.0
v -24.3 58.0 13.0
v -24.0 57.7 13.0
v -24.0 58.0 13.5
v -24.0 57.4 20.0
v -24.0 58.0 19.5
v -24.8 59.0 13.0
v -24.0 58.4 14.0
v -24.6 59.0 14.0
v -24.7 59.0 15.0
v -24.0 58.5 15.0
v -24.0 58.4 16.0
v -24.0 58.4 17.0
v -24.0 58.6 18.0
v -24.0 58.8 19.0
v -23.9 45.0 14.0
v -23.0 46.0 13.9
v -23.0 45.9 14.0
v -23.5 46.0 15.0
v -23.0 46.0 14.2
v -23.8 47.0 11.0
v -23.5 47.0 12.0
v -23.1 47.0 13.0
v -23.0 47.0 13.1
v -23.0 46.5 15.0
v -23.5 47.0 16.0
v -23.0 47.0 15.5
v -23.6 48.0 10.0
v -23.2 48.0 11.0
v -23.0 48.0 11.3
v -23.0 47.5 12.0
v -23.0 47.1 13.0
v -23.0 47.4 16.0
v -23.0 48.0 16.5
v -23.0 49.0 9.9
v -23.0 48.8 10.0
v -23.0 48.2 11.0
v -23.0 48.6 17.0
v -23.0 49.0 17.4
v -23.0 49.5 10.0
v -23.2 50.0 10.0
v -23.0 50.0 10.1
v -23.0 49.5 18.0
v -23.0 50.0 18.5
v -23.0 51.0 9.6
v -23.0 50.2 10.0
v -23.0 50.5 19.0
v -23.0 51.0 19.5
v -23.6 52.0 10.0
v -23.0 52.0 9.6
v -23.0 52.0 19.7
v -23.5 53.0 10.0
v -23.0 53.0 9.7
v -23.0 52.3 20.0
v -23.7 53.0 20.0
v -23.0 52.5 21.0
v -23.5 53.0 21.0
v -23.0 52.6 22.0
v -23.4 53.0 22.0
v -23.0 52.8 23.0
v -23.2 53.0 23.0
v -23.0 53.0 23.2
v -23.0 54.0 10.0
v -23.0 54.0 10.0
v -23.8 54.0 22.0
v -23.0 54.0 23.9
v -23.1 54.0 25.0
v -23.0 54.0 24.7
v -23.0 53.9 25.0
v -23.0 54.0 25.1
v -23.0 54.0 10.0
v -23.0 54.6 11.0
v -23.4 55.0 11.0
v -23.0 55.0 11.5
v -23.0 54.2 24.0
v -23.5 55.0 24.0
v -23.5 55.0 25.0
v -23.0 54.8 26.0
v -23.2 55.0 26.0
v -23.0 55.0 26.2
v -23.8 56.0 11.0
v -23.0 55.6 12.0
v -23.3 56.0 12.0
v -23.0 56.0 12.4
v -23.2 56.0 20.0
v -23.0 55.8 20.0
v -23.0 56.0 19.7
v -23.5 56.0 21.0
v -23.0 55.6 21.0
v -23.0 55.6 22.0
v -23.6 56.0 23.0
v -23.0 55.7 23.0
v -23.0 55.8 24.0
v -23.5 56.0 25.0
v -23.0 56.0 24.1
v -23.3 56.0 26.0
v -23.0 56.0 26.3
v -23.7 57.0 12.0
v -23.0 57.0 12.7
v -23.6 57.0 20.0
v -23.0 57.0 19.4
v -23.2 57.0 25.0
v -23.0 57.0 24.7
v -23.2 57.0 26.0
v -23.0 57.0 26.2
v -23.0 57.2 13.0
v -23.6 58.0 14.0
v -23.0 57.5 14.0
v -23.5 58.0 15.0
v -23.0 57.6 15.0
v -23.5 58.0 16.0
v -23.0 57.5 16.0
v -23.4 58.0 17.0
v -23.0 57.7 17.0
v -23.0 58.0 17.7
v -23.5 58.0 19.0
v -23.0 57.5 19.0
v -23.0 58.0 18.3
v -23.0 57.2 25.0
v -23.0 57.2 26.0
v -23.0 58.2 18.0
v -22.9 46.0 14.0
v -22.6 47.0 13.0
v -22.0 47.0 12.8
v -22.0 46.9 13.0
v -22.0 46.7 14.0
v -22.5 47.0 15.0
v -22.0 47.0 14.4
v -22.0 48.0 11.5
v -22.0 47.5 12.0
v -22.0 47.4 15.0
v -22.0 47.8 16.0
v -22.0 48.0 16.2
v -22.8 49.0 10.0
v -22.0 49.0 10.5
v -22.0 48.5 11.0
v -22.4 49.0 17.0
v -22.0 49.0 16.7
v -22.0 50.0 10.4
v -22.0 49.2 17.0
v -22.0 49.6 18.0
v -22.0 50.0 18.5
v -22.0 51.0 9.6
v -22.0 50.5 10.0
v -22.0 50.4 19.0
v -22.0 50.7 20.0
v -22.3 51.0 20.0
v -22.0 51.0 20.4
v -22.0 52.0 9.5
v -22.7 52.0 20.0
v -22.0 51.6 21.0
v -22.4 52.0 21.0
v -22.0 52.0 21.4
v -22.0 53.0 9.7
v -22.0 52.4 22.0
v -22.0 52.6 23.0
v -22.0 53.0 23.5
v -22.0 53.3 10.0
v -23.0 54.0 10.0
v -22.4 54.0 11.0
v -22.0 53.7 11.0
v -22.0 54.0 11.5
v -22.0 53.5 24.0
v -22.8 54.0 24.0
v -22.0 53.8 25.0
v -22.0 54.0 25.3
v -22.6 55.0 12.0
v -22.0 54.4 12.0
v -22.2 55.0 13.0
v -22.0 54.7 13.0
v -22.0 55.0 13.2
v -22.0 54.7 26.0
v -22.0 55.0 26.2
v -22.5 56.0 13.0
v -22.0 56.0 13.6
v -22.3 56.0 19.0
v -22.0 55.8 19.0
v -22.0 56.0 18.7
v -22.0 55.5 20.0
v -22.0 55.7 21.0
v -22.4 56.0 22.0
v -22.0 56.0 21.5
v -22.7 56.0 23.0
v -22.9 56.0 24.0
v -22.0 56.0 26.4
v -22.8 57.0 13.0
v -22.0 56.5 14.0
v -22.4 57.0 14.0
v -22.0 57.0 14.7
v -22.2 57.0 16.0
v -22.0 56.8 16.0
v -22.0 57.0 15.5
v -22.0 57.0 16.3
v -22.6 57.0 19.0
v -22.0 57.0 18.3
v -22.0 56.3 22.0
v -22.0 56.5 23.0
v -22.3 57.0 24.0
v -22.0 57.0 23.7
v -22.0 57.0 26.2
v -22.0 57.1 15.0
v -22.0 57.3 17.0
v -22.8 58.0 18.0
v -22.0 57.3 18.0
v -22.0 57.5 24.0
v -22.0 57.4 25.0
v -22.0 57.2 26.0
v -21.8 47.0 13.0
v -21.7 47.0 14.0
v -21.0 48.0 11.7
v -21.0 47.8 12.0
v -21.0 47.6 13.0
v -21.0 47.6 14.0
v -21.3 48.0 15.0
v -21.0 48.0 14.5
v -21.7 48.0 16.0
v -21.0 49.0 10.8
v -21.0 48.7 11.0
v -21.0 48.3 15.0
v -21.0 48.5 16.0
v -21.0 49.0 16.5
v -21.0 50.0 10.6
v -21.0 49.4 17.0
v -21.0 49.6 18.0
v -21.0 50.0 18.5
v -21.0 51.0 9.8
v -21.0 50.7 10.0
v -21.0 50.4 19.0
v -21.0 50.5 20.0
v -21.0 50.7 21.0
v -21.4 51.0 21.0
v -21.0 51.0 21.3
v -21.0 52.0 9.8
v -21.0 52.0 21.7
v -21.0 52.3 10.0
v -21.6 53.0 10.0
v -21.0 53.0 10.6
v -21.0 52.3 22.0
v -21.0 52.7 23.0
v -21.0 53.0 23.3
v -21.0 53.3 11.0
v -21.6 54.0 12.0
v -21.0 53.5 12.0
v -21.3 54.0 13.0
v -21.0 53.7 13.0
v -21.0 54.0 13.3
v -21.0 53.7 24.0
v -21.6 54.0 25.0
v -21.0 54.0 24.4
v -21.0 55.0 13.7
v -21.0 54.6 25.0
v -21.7 55.0 26.0
v -21.0 55.0 25.3
v -21.0 55.5 14.0
v -21.5 56.0 14.0
v -21.0 56.0 14.4
v -21.4 56.0 18.0
v -21.0 55.6 18.0
v -21.0 56.0 17.5
v -21.0 55.4 19.0
v -21.0 55.6 20.0
v -21.3 56.0 21.0
v -21.0 56.0 20.8
v -21.6 56.0 26.0
v -21.0 56.0 25.3
v -21.8 57.0 15.0
v -21.0 56.5 15.0
v -21.0 56.6 16.0
v -21.6 57.0 17.0
v -21.0 56.4 17.0
v -21.7 57.0 18.0
v -21.0 56.1 21.0
v -21.0 56.4 22.0
v -21.0 56.4 23.0
v -21.7 57.0 24.0
v -21.0 56.5 24.0
v -21.6 57.0 25.0
v -21.0 56.3 25.0
v -21.8 57.0 26.0
v -20.8 48.0 12.0
v -20.6 48.0 13.0
v -20.6 48.0 14.0
v -20.8 49.0 11.0
v -20.5 49.0 12.0
v -20.3 49.0 13.0
v -20.0 49.0 13.5
v -20.0 48.7 14.0
v -20.0 48.6 15.0
v -20.0 48.8 16.0
v -20.0 49.0 16.3
v -20.6 50.0 11.0
v -20.4 50.0 12.0
v -20.0 50.0 12.6
v -20.0 49.5 13.0
v -20.0 49.4 17.0
v -20.0 49.7 18.0
v -20.0 50.0 18.4
v -20.8 51.0 10.0
v -20.5 51.0 11.0
v -20.4 51.0 12.0
v -20.0 51.0 12.5
v -20.0 50.5 19.0
v -20.0 50.5 20.0
v -20.0 50.5 21.0
v -20.0 50.9 22.0
v -20.1 51.0 22.0
v -20.0 51.0 22.1
v -20.8 52.0 10.0
v -20.5 52.0 11.0
v -20.4 52.0 12.0
v -20.0 52.0 12.6
v -20.6 52.0 22.0
v -20.0 52.0 22.4
v -20.8 53.0 11.0
v -20.6 53.0 12.0
v -20.0 52.5 13.0
v -20.4 53.0 13.0
v -20.0 53.0 13.4
v -20.0 53.0 22.5
v -20.7 53.0 23.0
v -20.0 54.0 13.7
v -20.2 54.0 19.0
v -20.0 53.1 19.0
v -20.0 54.0 18.6
v -20.0 54.0 19.4
v -20.4 54.0 23.0
v -20.0 54.0 22.4
v -20.7 54.0 24.0
v -20.0 54.5 14.0
v -20.5 55.0 14.0
v -20.0 55.0 14.3
v -20.4 55.0 18.0
v -20.0 54.5 18.0
v -20.0 55.0 17.5
v -20.5 55.0 19.0
v -20.0 55.0 19.7
v -20.2 55.0 22.0
v -20.0 54.6 22.0
v -20.0 55.0 21.6
v -20.5 55.0 23.0
v -20.5 55.0 24.0
v -20.7 55.0 25.0
v -20.0 56.0 14.6
v -20.5 56.0 17.0
v -20.0 55.6 17.0
v -20.0 56.0 16.7
v -20.0 55.2 20.0
v -20.8 56.0 21.0
v -20.0 55.4 21.0
v -20.2 56.0 22.0
v -20.6 56.0 23.0
v -20.6 56.0 24.0
v -20.8 56.0 25.0
v -20.0 56.5 15.0
v -20.1 57.0 16.0
v -20.0 57.0 15.9
v -20.0 57.0 16.1
v -20.0 57.1 16.0
v -19.7 49.0 14.0
v -19.6 49.0 15.0
v -19.7 49.0 16.0
v -19.7 50.0 13.0
v -19.4 50.0 14.0
v -19.3 50.0 15.0
v -19.0 50.0 15.5
v -19.0 49.7 16.0
v -19.0 49.7 17.0
v -19.6 50.0 18.0
v -19.0 50.0 17.4
v -19.5 51.0 13.0
v -19.0 51.0 13.7
v -19.0 50.7 14.0
v -19.0 50.4 15.0
v -19.0 50.6 18.0
v -19.2 51.0 19.0
v -19.0 51.0 18.6
v -19.0 51.0 19.4
v -19.0 50.7 20.0
v -19.0 50.7 21.0
v -19.9 51.0 22.0
v -19.0 51.0 21.4
v -19.6 52.0 13.0
v -19.0 52.0 13.7
v -19.0 51.4 19.0
v -19.0 51.6 22.0
v -19.0 52.0 22.3
v -19.4 53.0 14.0
v -19.0 52.5 14.0
v -19.0 53.0 14.4
v -20.0 53.0 19.0
v -19.0 52.4 19.0
v -19.0 53.0 18.5
v -19.5 53.0 20.0
v -19.0 52.5 20.0
v -19.7 53.0 21.0
v -19.0 52.6 21.0
v -19.0 53.0 21.7
v -19.0 53.0 22.2
v -19.6 54.0 14.0
v -19.0 54.0 14.5
v -19.5 54.0 18.0
v -19.0 53.6 18.0
v -19.0 54.0 17.6
v -19.6 54.0 20.0
v -19.6 54.0 21.0
v -19.0 53.2 22.0
v -19.7 54.0 22.0
v -19.0 55.0 14.6
v -19.4 55.0 17.0
v -19.0 54.6 17.0
v -19.0 55.0 16.7
v -19.8 55.0 20.0
v -19.7 55.0 21.0
v -19.0 56.0 14.6
v -19.0 56.0 16.5
v -19.1 57.0 15.0
v -19.0 57.0 14.9
v -19.0 57.0 16.3
v -19.0 57.1 15.0
v -19.0 57.3 16.0
v -18.7 50.0 16.0
v -18.8 50.0 17.0
v -18.8 51.0 14.0
v -18.6 51.0 15.0
v -18.5 51.0 16.0
v -18.5 51.0 17.0
v -18.7 51.0 18.0
v -18.7 51.0 20.0
v -18.7 51.0 21.0
v -18.7 52.0 14.0
v -18.5 52.0 15.0
v -18.5 52.0 16.0
v -18.4 52.0 17.0
v -18.4 52.0 18.0
v -18.6 52.0 19.0
v -18.0 52.0 20.0
v -18.0 52.0 20.0
v -18.0 51.9 21.0
v -18.6 52.0 22.0
v -18.0 52.0 21.1
v -18.6 53.0 15.0
v -18.4 53.0 16.0
v -18.0 53.0 16.7
v -18.0 52.7 17.0
v -18.0 53.0 18.0
v -18.0 53.0 18.0
v -18.0 52.0 20.0
v -18.0 52.1 21.0
v -18.5 53.0 22.0
v -18.6 54.0 15.0
v -18.3 54.0 16.0
v -18.0 54.0 16.9
v -18.0 53.0 18.0
v -18.0 54.0 17.1
v -18.6 55.0 15.0
v -18.0 55.0 15.9
v -18.0 54.9 16.0
v -18.0 55.0 16.1
v -18.0 54.1 17.0
v -18.6 56.0 15.0
v -18.0 56.0 15.7
v -18.0 56.0 16.2
v -18.9 57.0 15.0
v -18.0 57.0 15.8
v -18.0 57.0 16.1
v -18.0 57.1 16.0
v -18.0 52.0 20.0
v -17.9 52.0 21.0
v -17.8 53.0 17.0
v -18.0 53.0 18.0
v -17.9 54.0 17.0
v -17.9 55.0 16.0
v -17.8 56.0 16.0
v -17.7 57.0 16.0
f 3 2 1
f 5 4 1
f 1 4 3
f 5 6 4
f 2 7 1
f 9 8 7
f 8 1 7
f 8 5 1
f 6 5 10
f 10 5 8
f 9 11 8
f 8 11 10
f 14 13 12
f 2 3 12
f 3 14 12
f 3 15 14
f 16 3 4
f 16 15 3
f 4 6 16
f 16 6 17
f 12 13 18
f 18 13 19
f 20 7 2
f 12 20 2
f 18 20 12
f 20 9 7
f 10 22 21
f 17 10 21
f 6 10 17
f 22 23 21
f 19 24 18
f 26 25 24
f 25 18 24
f 25 20 18
f 27 11 9
f 20 27 9
f 25 27 20
f 22 10 11
f 27 22 11
f 28 22 27
f 23 22 29
f 29 22 28
f 26 30 25
f 25 30 27
f 27 30 31
f 27 31 28
f 28 31 32
f 28 32 29
f 33 13 14
f 15 34 14
f 14 34 33
f 16 35 15
f 15 35 34
f 17 35 16
f 36 19 33
f 33 19 13
f 37 33 34
f 36 33 37
f 38 34 35
f 37 34 38
f 21 39 17
f 39 35 17
f 39 38 35
f 23 39 21
f 36 24 19
f 36 37 40
f 26 36 40
f 41 26 40
f 36 26 24
f 40 37 38
f 40 38 42
f 42 38 39
f 42 39 43
f 39 23 43
f 23 44 43
f 23 29 44
f 41 45 26
f 26 45 30
f 45 47 46
f 31 45 46
f 30 45 31
f 48 32 31
f 48 31 46
f 44 29 49
f 29 48 49
f 48 50 49
f 29 32 48
f 50 51 49
f 47 52 46
f 46 52 48
f 48 52 53
f 48 53 50
f 50 53 54
f 50 54 51
f 57 56 55
f 55 58 57
f 59 41 40
f 42 60 40
f 40 60 59
f 43 61 42
f 42 61 60
f 44 61 43
f 55 56 62
f 62 56 63
f 58 55 64
f 55 65 64
f 55 62 65
f 65 66 64
f 59 45 41
f 45 59 47
f 59 67 47
f 59 60 67
f 68 60 61
f 67 60 68
f 68 61 44
f 69 68 44
f 49 69 44
f 70 68 69
f 71 62 51
f 62 69 51
f 69 49 51
f 62 63 69
f 62 72 65
f 62 71 72
f 66 65 73
f 73 65 72
f 67 52 47
f 52 74 53
f 74 52 75
f 67 75 52
f 75 67 76
f 68 76 67
f 70 76 68
f 54 53 77
f 74 77 53
f 71 51 54
f 77 71 54
f 78 71 77
f 80 72 79
f 72 78 79
f 72 71 78
f 72 80 73
f 74 75 81
f 81 75 82
f 74 83 77
f 74 81 83
f 77 84 78
f 77 83 84
f 79 78 85
f 85 78 84
f 82 86 81
f 81 86 83
f 83 86 87
f 83 87 84
f 84 87 88
f 84 88 85
f 90 89 57
f 57 89 56
f 57 58 90
f 90 58 91
f 89 63 56
f 92 63 89
f 93 91 58
f 93 58 64
f 64 66 93
f 93 66 94
f 97 96 95
f 70 69 95
f 69 97 95
f 69 98 97
f 69 63 92
f 69 92 98
f 73 94 66
f 73 99 94
f 95 96 76
f 96 75 76
f 96 100 75
f 95 76 70
f 79 101 80
f 101 102 80
f 102 73 80
f 102 99 73
f 100 82 75
f 103 82 100
f 85 104 101
f 85 101 79
f 102 101 105
f 105 101 104
f 103 106 82
f 82 106 86
f 86 107 87
f 106 107 86
f 87 108 88
f 107 108 87
f 85 88 104
f 88 109 104
f 88 108 109
f 104 109 105
f 111 110 90
f 90 110 89
f 113 112 91
f 112 90 91
f 112 111 90
f 113 114 112
f 117 116 115
f 110 117 115
f 92 110 115
f 89 110 92
f 93 113 91
f 93 94 113
f 94 114 113
f 94 118 114
f 120 119 97
f 97 119 96
f 98 115 116
f 120 98 116
f 97 98 120
f 115 98 92
f 99 118 94
f 99 121 118
f 119 100 96
f 122 100 119
f 102 121 99
f 102 123 121
f 122 103 100
f 124 103 122
f 105 123 102
f 105 125 123
f 124 126 103
f 103 126 106
f 126 128 127
f 107 126 127
f 106 126 107
f 107 127 129
f 130 107 129
f 108 107 130
f 108 131 109
f 130 131 108
f 105 109 125
f 125 109 131
f 128 132 127
f 127 132 129
f 135 134 133
f 133 136 135
f 139 138 137
f 137 140 139
f 142 141 111
f 111 141 110
f 112 133 134
f 142 112 134
f 111 112 142
f 144 143 114
f 114 143 112
f 143 136 112
f 136 133 112
f 144 145 143
f 137 138 146
f 146 138 147
f 140 137 148
f 137 149 148
f 137 146 149
f 149 150 148
f 152 151 117
f 117 151 116
f 117 110 141
f 117 141 152
f 118 153 144
f 118 144 114
f 145 144 154
f 144 155 154
f 144 153 155
f 155 156 154
f 147 157 146
f 159 158 157
f 158 146 157
f 158 149 146
f 150 149 160
f 160 149 158
f 162 161 120
f 120 161 119
f 120 116 151
f 120 151 162
f 164 163 153
f 118 164 153
f 121 164 118
f 153 163 155
f 155 163 165
f 155 165 156
f 159 166 158
f 158 166 160
f 161 122 119
f 167 122 161
f 123 164 121
f 123 168 164
f 167 124 122
f 169 124 167
f 172 171 170
f 171 168 170
f 168 125 170
f 168 123 125
f 169 173 124
f 124 173 126
f 128 126 173
f 128 173 174
f 176 175 130
f 176 130 129
f 170 131 172
f 131 175 172
f 131 130 175
f 131 170 125
f 132 128 177
f 128 178 177
f 128 174 178
f 177 179 132
f 179 129 132
f 179 176 129
f 177 178 180
f 180 178 181
f 179 177 182
f 182 177 180
f 181 183 180
f 180 183 182
f 186 185 184
f 184 187 186
f 185 188 184
f 184 188 187
f 191 190 189
f 189 192 191
f 195 194 193
f 193 196 195
f 199 198 197
f 201 200 197
f 197 200 199
f 134 135 201
f 135 200 201
f 135 202 200
f 203 189 136
f 189 202 136
f 202 135 136
f 189 190 202
f 192 189 204
f 204 189 203
f 193 194 139
f 194 138 139
f 194 205 138
f 207 206 140
f 140 206 139
f 206 196 139
f 196 193 139
f 207 208 206
f 211 210 209
f 211 209 198
f 209 197 198
f 209 212 197
f 212 141 142
f 201 212 142
f 197 212 201
f 201 142 134
f 143 203 136
f 214 213 145
f 145 213 143
f 213 204 143
f 204 203 143
f 214 215 213
f 205 147 138
f 216 147 205
f 148 207 140
f 218 217 150
f 150 217 148
f 217 208 148
f 208 207 148
f 217 218 210
f 218 209 210
f 218 219 209
f 219 151 152
f 212 219 152
f 209 219 212
f 212 152 141
f 154 214 145
f 154 156 214
f 156 215 214
f 156 220 215
f 157 147 221
f 147 222 221
f 147 216 222
f 221 159 157
f 160 223 218
f 160 218 150
f 223 161 162
f 219 223 162
f 218 223 219
f 219 162 151
f 225 224 163
f 225 163 164
f 163 226 165
f 224 226 163
f 156 165 220
f 220 165 226
f 222 227 221
f 227 229 228
f 227 228 166
f 221 227 166
f 159 221 166
f 228 230 166
f 166 230 160
f 230 231 160
f 231 223 160
f 161 223 231
f 232 161 231
f 167 161 232
f 168 234 233
f 225 168 233
f 164 168 225
f 234 235 233
f 229 236 228
f 228 236 230
f 232 169 167
f 237 169 232
f 172 238 171
f 234 168 171
f 238 234 171
f 239 234 238
f 235 234 240
f 240 234 239
f 173 169 241
f 169 242 241
f 169 237 242
f 241 174 173
f 176 243 175
f 238 172 175
f 243 238 175
f 244 238 243
f 238 245 239
f 238 244 245
f 240 239 246
f 239 247 246
f 239 245 247
f 247 248 246
f 241 242 249
f 249 242 250
f 249 178 174
f 249 174 241
f 179 251 243
f 179 243 176
f 243 252 244
f 243 251 252
f 244 253 245
f 244 252 253
f 245 254 247
f 245 253 254
f 248 247 255
f 247 256 255
f 247 254 256
f 256 257 255
f 249 250 258
f 258 250 259
f 258 181 178
f 258 178 249
f 182 260 251
f 182 251 179
f 251 261 252
f 251 260 261
f 252 262 253
f 252 261 262
f 253 263 254
f 253 262 263
f 254 264 256
f 254 263 264
f 257 256 265
f 265 256 264
f 259 266 258
f 266 268 267
f 266 267 183
f 258 266 183
f 181 258 183
f 267 269 183
f 183 269 182
f 269 270 182
f 270 260 182
f 260 270 261
f 261 270 271
f 273 272 271
f 272 261 271
f 272 262 261
f 275 263 274
f 263 272 274
f 263 262 272
f 263 275 264
f 264 275 276
f 264 276 265
f 279 278 277
f 281 280 277
f 277 280 279
f 282 267 268
f 281 283 280
f 267 282 269
f 273 284 272
f 272 284 274
f 277 278 285
f 285 278 286
f 285 185 186
f 281 285 186
f 277 285 281
f 186 187 281
f 187 283 281
f 187 287 283
f 286 288 285
f 285 288 185
f 288 188 185
f 288 289 188
f 187 188 287
f 287 188 289
f 292 291 290
f 294 293 290
f 290 293 292
f 294 295 293
f 297 296 191
f 191 296 190
f 299 298 192
f 298 191 192
f 298 297 191
f 299 300 298
f 302 301 195
f 195 301 194
f 304 303 196
f 303 195 196
f 303 302 195
f 306 305 304
f 304 305 303
f 308 307 306
f 306 307 305
f 307 308 291
f 291 308 290
f 308 198 290
f 198 199 290
f 290 199 200
f 290 200 294
f 309 295 294
f 200 309 294
f 202 309 200
f 202 190 296
f 202 296 309
f 204 310 299
f 204 299 192
f 300 299 311
f 311 299 310
f 301 205 194
f 312 205 301
f 206 304 196
f 304 206 208
f 313 304 208
f 306 304 313
f 313 210 211
f 308 313 211
f 306 313 308
f 308 211 198
f 315 213 314
f 315 204 213
f 310 204 315
f 310 315 316
f 316 311 310
f 215 314 213
f 312 216 205
f 317 216 312
f 217 313 208
f 313 217 210
f 315 314 318
f 315 318 319
f 220 318 215
f 215 318 314
f 317 222 216
f 320 222 317
f 225 321 224
f 322 319 318
f 224 322 318
f 226 224 318
f 322 224 321
f 226 318 220
f 320 323 222
f 222 323 227
f 229 227 323
f 229 323 324
f 230 325 231
f 325 232 231
f 233 321 225
f 233 235 321
f 235 322 321
f 235 326 322
f 324 327 229
f 229 327 236
f 230 236 325
f 236 328 325
f 236 327 328
f 232 325 328
f 329 232 328
f 237 232 329
f 240 331 330
f 326 240 330
f 235 240 326
f 331 332 330
f 329 242 237
f 333 242 329
f 246 331 240
f 335 334 248
f 248 334 246
f 334 332 246
f 332 331 246
f 335 336 334
f 338 250 337
f 250 333 337
f 250 242 333
f 340 339 338
f 340 338 337
f 341 339 340
f 255 335 248
f 255 257 335
f 257 336 335
f 257 342 336
f 343 259 338
f 338 259 250
f 344 338 339
f 343 338 344
f 339 341 345
f 346 339 345
f 344 339 346
f 347 346 345
f 265 342 257
f 265 348 342
f 351 350 349
f 343 266 259
f 349 352 351
f 352 349 353
f 352 353 354
f 268 354 353
f 354 268 344
f 266 344 268
f 344 266 343
f 269 355 270
f 355 344 270
f 344 346 270
f 355 354 344
f 271 270 346
f 356 271 346
f 347 356 346
f 357 271 356
f 357 273 271
f 274 358 275
f 275 358 359
f 360 275 359
f 276 275 360
f 265 276 348
f 348 276 360
f 349 350 279
f 350 278 279
f 350 361 278
f 349 279 280
f 349 280 353
f 362 280 283
f 362 353 280
f 362 282 268
f 353 362 268
f 362 363 282
f 363 269 282
f 363 355 269
f 356 364 357
f 357 364 273
f 364 284 273
f 364 365 284
f 274 284 358
f 284 366 358
f 284 365 366
f 358 366 359
f 361 286 278
f 367 286 361
f 369 368 362
f 283 369 362
f 287 369 283
f 362 368 363
f 367 370 286
f 286 370 288
f 288 371 289
f 370 371 288
f 287 289 369
f 369 289 371
f 374 373 372
f 376 375 372
f 372 375 374
f 376 377 375
f 372 373 378
f 378 373 379
f 372 380 376
f 372 378 380
f 377 376 381
f 381 376 380
f 378 379 382
f 382 379 383
f 385 380 384
f 380 382 384
f 380 378 382
f 380 385 381
f 388 387 386
f 386 389 388
f 383 390 382
f 382 390 384
f 393 392 391
f 393 391 387
f 391 386 387
f 391 394 386
f 389 386 395
f 395 386 394
f 398 397 396
f 396 399 398
f 391 392 400
f 400 392 401
f 400 291 292
f 394 400 292
f 391 400 394
f 402 395 394
f 292 402 394
f 293 402 292
f 403 396 295
f 396 402 295
f 402 293 295
f 396 397 402
f 297 404 296
f 404 396 296
f 396 403 296
f 396 404 399
f 406 404 405
f 404 298 405
f 404 297 298
f 300 405 298
f 407 301 302
f 407 302 408
f 302 409 408
f 302 303 409
f 410 303 305
f 410 409 303
f 307 400 401
f 410 307 401
f 305 307 410
f 400 307 291
f 309 403 295
f 403 309 296
f 406 405 411
f 406 411 412
f 311 411 300
f 300 411 405
f 413 312 407
f 407 312 301
f 407 408 414
f 407 414 413
f 412 411 316
f 315 412 316
f 415 412 315
f 316 411 311
f 416 317 413
f 413 317 312
f 413 414 417
f 413 417 416
f 319 415 315
f 319 418 415
f 419 320 416
f 416 320 317
f 416 417 420
f 421 416 420
f 419 416 421
f 422 421 420
f 322 418 319
f 322 423 418
f 419 323 320
f 323 419 324
f 419 424 324
f 419 421 424
f 421 422 425
f 421 425 424
f 326 423 322
f 326 426 423
f 424 327 324
f 425 427 424
f 427 327 424
f 427 328 327
f 329 328 427
f 329 427 428
f 429 426 326
f 429 326 330
f 330 332 429
f 429 332 430
f 432 333 431
f 333 428 431
f 333 329 428
f 433 432 431
f 332 334 434
f 435 332 434
f 430 332 435
f 336 434 334
f 432 337 333
f 340 337 432
f 436 340 432
f 433 436 432
f 437 340 436
f 437 341 340
f 438 435 434
f 434 336 438
f 336 439 438
f 336 342 439
f 442 441 440
f 444 443 440
f 440 443 442
f 444 445 443
f 437 436 446
f 446 436 447
f 448 345 341
f 437 448 341
f 446 448 437
f 448 347 345
f 348 450 449
f 439 348 449
f 342 348 439
f 450 451 449
f 441 452 440
f 440 452 444
f 444 452 453
f 453 445 444
f 351 454 350
f 454 351 455
f 456 351 352
f 456 455 351
f 354 446 447
f 456 354 447
f 352 354 456
f 448 446 457
f 446 355 457
f 355 458 457
f 355 446 354
f 356 347 448
f 459 356 448
f 457 459 448
f 356 459 460
f 461 460 459
f 359 462 360
f 462 463 360
f 360 463 348
f 463 464 348
f 464 450 348
f 450 464 451
f 454 361 350
f 465 361 454
f 363 458 355
f 363 466 458
f 460 364 356
f 461 467 460
f 467 364 460
f 467 365 364
f 467 469 468
f 366 467 468
f 365 467 366
f 468 470 366
f 366 470 359
f 470 471 359
f 471 462 359
f 462 471 463
f 465 367 361
f 472 367 465
f 474 473 368
f 474 368 369
f 363 368 466
f 466 368 473
f 469 475 468
f 468 475 470
f 472 476 367
f 367 476 370
f 370 477 371
f 476 477 370
f 369 371 474
f 474 371 477
f 480 479 478
f 482 481 478
f 478 481 480
f 484 483 482
f 482 483 481
f 373 374 484
f 374 483 484
f 374 485 483
f 487 485 486
f 485 375 486
f 485 374 375
f 377 486 375
f 478 479 488
f 488 479 489
f 478 490 482
f 478 488 490
f 482 491 484
f 482 490 491
f 491 379 373
f 491 373 484
f 487 486 492
f 487 492 493
f 381 492 377
f 377 492 486
f 496 495 494
f 496 494 489
f 494 488 489
f 494 497 488
f 488 498 490
f 488 497 498
f 490 499 491
f 490 498 499
f 379 500 383
f 500 379 501
f 491 501 379
f 501 491 502
f 499 502 491
f 500 501 493
f 500 493 492
f 384 500 492
f 385 384 492
f 385 492 381
f 494 495 503
f 503 495 504
f 494 505 497
f 494 503 505
f 505 387 388
f 498 505 388
f 497 505 498
f 498 388 389
f 506 498 389
f 499 498 506
f 390 383 500
f 507 502 506
f 499 506 502
f 390 500 384
f 504 508 503
f 509 392 393
f 503 509 393
f 505 503 393
f 508 509 503
f 505 393 387
f 395 510 506
f 395 506 389
f 398 511 397
f 511 506 397
f 506 510 397
f 506 511 507
f 398 399 511
f 511 399 512
f 509 401 392
f 513 401 509
f 402 510 395
f 510 402 397
f 399 404 514
f 515 399 514
f 512 399 515
f 406 514 404
f 516 408 409
f 516 409 517
f 409 518 517
f 409 410 518
f 410 401 513
f 410 513 518
f 515 514 519
f 515 519 520
f 412 519 406
f 406 519 514
f 522 521 516
f 521 408 516
f 521 414 408
f 522 516 517
f 523 520 519
f 519 412 523
f 412 524 523
f 412 415 524
f 526 417 525
f 417 521 525
f 417 414 521
f 527 526 525
f 418 524 415
f 418 528 524
f 526 420 417
f 422 420 526
f 527 422 526
f 529 422 527
f 423 528 418
f 423 530 528
f 532 425 531
f 425 529 531
f 425 422 529
f 533 532 531
f 426 530 423
f 426 534 530
f 532 427 425
f 428 427 532
f 533 428 532
f 535 428 533
f 426 429 536
f 537 426 536
f 534 426 537
f 430 536 429
f 431 428 538
f 428 539 538
f 428 535 539
f 538 433 431
f 540 537 536
f 536 430 540
f 430 541 540
f 430 435 541
f 544 543 542
f 546 545 542
f 542 545 544
f 546 547 545
f 538 539 548
f 548 539 549
f 548 436 433
f 548 433 538
f 550 541 435
f 550 435 438
f 438 439 550
f 550 439 551
f 542 543 552
f 552 543 553
f 552 441 442
f 546 552 442
f 542 552 546
f 554 547 546
f 442 554 546
f 443 554 442
f 556 555 445
f 555 443 445
f 555 554 443
f 555 556 549
f 556 548 549
f 556 557 548
f 557 447 436
f 557 436 548
f 560 559 558
f 562 561 558
f 562 558 559
f 563 561 562
f 564 551 439
f 564 439 449
f 449 451 564
f 564 451 565
f 553 566 552
f 552 566 441
f 566 452 441
f 566 567 452
f 452 568 453
f 567 568 452
f 568 445 453
f 445 568 556
f 569 556 568
f 556 569 455
f 454 455 569
f 556 455 456
f 556 456 557
f 557 456 447
f 560 558 457
f 458 560 457
f 570 560 458
f 457 558 459
f 459 558 561
f 461 459 561
f 563 461 561
f 571 461 563
f 573 572 464
f 573 464 463
f 451 464 565
f 565 464 572
f 569 465 454
f 574 465 569
f 466 570 458
f 466 575 570
f 467 461 576
f 461 577 576
f 461 571 577
f 576 469 467
f 579 578 471
f 579 471 470
f 463 471 573
f 573 471 578
f 574 472 465
f 580 472 574
f 582 581 473
f 582 473 474
f 466 473 575
f 575 473 581
f 576 577 583
f 583 577 584
f 585 475 469
f 576 585 469
f 583 585 576
f 585 586 475
f 586 470 475
f 586 579 470
f 580 587 472
f 472 587 476
f 476 588 477
f 587 588 476
f 474 477 582
f 582 477 588
f 584 589 583
f 583 589 585
f 585 589 590
f 585 590 586
f 593 592 591
f 479 480 591
f 480 593 591
f 480 594 593
f 595 480 481
f 595 594 480
f 596 481 483
f 596 595 481
f 598 596 597
f 596 485 597
f 596 483 485
f 487 597 485
f 591 592 599
f 599 592 600
f 599 489 479
f 599 479 591
f 598 597 601
f 598 601 602
f 493 601 487
f 487 601 597
f 599 600 496
f 600 495 496
f 600 603 495
f 599 496 489
f 606 605 604
f 604 605 602
f 604 602 601
f 502 604 601
f 501 502 601
f 501 601 493
f 603 504 495
f 607 504 603
f 606 604 608
f 606 608 609
f 507 608 502
f 502 608 604
f 607 610 504
f 504 610 508
f 509 508 610
f 509 610 611
f 612 609 608
f 614 612 613
f 613 612 511
f 612 608 511
f 608 507 511
f 512 613 511
f 611 513 509
f 615 513 611
f 616 614 613
f 613 512 616
f 512 617 616
f 512 515 617
f 619 618 518
f 518 618 517
f 518 513 615
f 518 615 619
f 520 617 515
f 520 620 617
f 622 621 522
f 522 621 521
f 522 517 618
f 522 618 622
f 625 624 623
f 626 623 523
f 623 620 523
f 620 520 523
f 620 623 624
f 524 626 523
f 525 521 627
f 521 628 627
f 521 621 628
f 627 527 525
f 625 623 629
f 625 629 630
f 631 623 626
f 629 623 631
f 528 631 524
f 524 631 626
f 628 632 627
f 527 627 632
f 633 527 632
f 529 527 633
f 634 630 629
f 636 635 634
f 629 636 634
f 631 636 629
f 530 636 528
f 528 636 631
f 633 637 529
f 529 637 531
f 533 531 637
f 533 637 638
f 635 636 639
f 635 639 640
f 534 639 530
f 530 639 636
f 638 535 533
f 641 535 638
f 642 640 639
f 639 534 642
f 534 643 642
f 534 537 643
f 646 645 644
f 644 647 646
f 641 539 535
f 648 539 641
f 649 643 537
f 649 537 540
f 540 541 649
f 649 541 650
f 651 543 544
f 645 652 644
f 652 544 644
f 544 545 644
f 544 652 651
f 654 653 547
f 547 653 545
f 653 647 545
f 647 644 545
f 656 655 654
f 654 655 653
f 648 655 656
f 549 648 656
f 539 648 549
f 657 650 541
f 657 541 550
f 659 658 551
f 658 550 551
f 658 657 550
f 659 660 658
f 662 661 651
f 661 543 651
f 661 553 543
f 662 651 652
f 554 654 547
f 654 554 555
f 654 555 656
f 656 555 549
f 664 663 559
f 664 559 560
f 663 666 665
f 562 663 665
f 559 663 562
f 665 563 562
f 564 659 551
f 564 565 659
f 565 660 659
f 565 667 660
f 661 668 553
f 553 668 566
f 668 670 669
f 567 668 669
f 566 668 567
f 671 568 567
f 671 567 669
f 671 569 568
f 570 664 560
f 570 672 664
f 665 666 673
f 673 666 674
f 673 571 563
f 673 563 665
f 676 675 572
f 676 572 573
f 565 572 667
f 667 572 675
f 669 670 677
f 677 670 678
f 669 679 671
f 669 677 679
f 679 574 569
f 679 569 671
f 575 672 570
f 575 680 672
f 674 681 673
f 571 673 681
f 682 571 681
f 577 571 682
f 579 683 578
f 683 684 578
f 684 573 578
f 684 676 573
f 678 685 677
f 677 685 679
f 679 685 686
f 574 679 686
f 687 574 686
f 580 574 687
f 689 688 581
f 689 581 582
f 575 581 680
f 680 581 688
f 682 584 577
f 690 584 682
f 692 691 683
f 579 692 683
f 586 692 579
f 683 691 684
f 687 693 580
f 580 693 587
f 587 694 588
f 693 694 587
f 582 588 689
f 689 588 694
f 690 695 584
f 584 695 589
f 589 696 590
f 695 696 589
f 586 590 692
f 692 590 696
f 697 592 593
f 594 698 593
f 593 698 697
f 595 699 594
f 594 699 698
f 596 700 595
f 595 700 699
f 598 700 596
f 702 701 697
f 701 592 697
f 701 600 592
f 702 697 698
f 702 698 703
f 705 704 703
f 698 705 703
f 699 705 698
f 706 699 700
f 705 699 706
f 602 706 598
f 598 706 700
f 701 603 600
f 707 603 701
f 704 705 708
f 704 708 709
f 606 708 605
f 708 706 605
f 708 705 706
f 605 706 602
f 712 711 710
f 707 712 710
f 607 707 710
f 603 707 607
f 713 709 708
f 708 606 713
f 606 714 713
f 606 609 714
f 710 711 715
f 715 711 716
f 717 610 607
f 710 717 607
f 715 717 710
f 717 611 610
f 609 612 718
f 719 609 718
f 714 609 719
f 614 718 612
f 716 720 715
f 715 720 717
f 717 720 721
f 611 717 721
f 722 611 721
f 615 611 722
f 719 718 723
f 719 723 724
f 616 725 614
f 725 718 614
f 725 723 718
f 617 725 616
f 727 726 619
f 619 726 618
f 619 615 722
f 619 722 727
f 728 724 723
f 730 729 728
f 723 730 728
f 725 730 723
f 620 730 617
f 617 730 725
f 733 732 731
f 731 734 733
f 736 735 622
f 622 735 621
f 622 618 726
f 622 726 736
f 729 730 624
f 625 729 624
f 737 729 625
f 624 730 620
f 731 732 738
f 738 732 739
f 734 731 740
f 731 741 740
f 731 738 741
f 741 742 740
f 735 628 621
f 743 628 735
f 630 737 625
f 630 744 737
f 739 745 738
f 747 746 745
f 746 738 745
f 746 741 738
f 742 741 748
f 748 741 746
f 743 749 628
f 628 749 632
f 633 632 749
f 633 749 750
f 751 744 630
f 751 630 634
f 634 635 751
f 751 635 752
f 747 753 746
f 756 755 754
f 746 753 748
f 758 757 755
f 755 757 754
f 758 759 757
f 637 633 760
f 633 761 760
f 633 750 761
f 760 638 637
f 640 752 635
f 640 762 752
f 755 756 763
f 763 756 764
f 755 765 758
f 755 763 765
f 759 758 766
f 766 758 765
f 761 767 760
f 638 760 767
f 768 638 767
f 641 638 768
f 769 762 640
f 769 640 642
f 642 643 769
f 769 643 770
f 764 771 763
f 772 645 646
f 763 772 646
f 765 763 646
f 771 772 763
f 774 773 647
f 647 773 646
f 773 766 646
f 766 765 646
f 776 775 774
f 774 775 773
f 768 775 776
f 648 768 776
f 641 768 648
f 643 649 777
f 778 643 777
f 770 643 778
f 650 777 649
f 772 652 645
f 779 652 772
f 653 774 647
f 774 653 655
f 774 655 776
f 776 655 648
f 780 778 777
f 782 780 781
f 781 780 657
f 780 777 657
f 777 650 657
f 658 783 657
f 657 783 781
f 660 783 658
f 785 784 662
f 662 784 661
f 662 652 779
f 662 779 785
f 664 786 663
f 786 666 663
f 787 782 781
f 787 781 783
f 787 783 788
f 783 660 788
f 660 789 788
f 660 667 789
f 784 790 661
f 661 790 668
f 670 668 790
f 670 790 791
f 672 792 786
f 672 786 664
f 792 674 666
f 792 666 786
f 794 793 675
f 794 675 676
f 667 675 789
f 789 675 793
f 791 678 670
f 795 678 791
f 680 796 792
f 680 792 672
f 797 681 674
f 792 797 674
f 796 797 792
f 797 682 681
f 800 799 798
f 799 794 798
f 794 684 798
f 794 676 684
f 795 801 678
f 678 801 685
f 801 803 802
f 686 801 802
f 685 801 686
f 802 687 686
f 805 804 688
f 805 688 689
f 680 688 796
f 688 806 796
f 688 804 806
f 796 806 797
f 797 806 807
f 690 682 797
f 808 690 797
f 807 808 797
f 690 808 809
f 811 810 809
f 811 809 808
f 810 811 800
f 810 800 798
f 692 810 798
f 691 692 798
f 691 798 684
f 803 812 802
f 802 812 687
f 812 693 687
f 812 813 693
f 693 814 694
f 813 814 693
f 689 694 805
f 805 694 814
f 809 695 690
f 695 809 696
f 696 809 810
f 696 810 692
f 815 701 702
f 703 816 702
f 702 816 815
f 704 816 703
f 818 817 815
f 817 701 815
f 817 707 701
f 820 819 818
f 815 820 818
f 816 820 815
f 709 820 704
f 704 820 816
f 821 711 712
f 822 821 712
f 707 822 712
f 817 822 707
f 823 819 820
f 825 823 824
f 824 823 713
f 823 820 713
f 820 709 713
f 714 824 713
f 828 827 826
f 829 828 821
f 828 716 821
f 716 711 821
f 828 826 716
f 829 821 822
f 830 825 824
f 824 714 830
f 714 831 830
f 714 719 831
f 834 833 832
f 834 832 827
f 832 826 827
f 832 835 826
f 836 720 716
f 826 836 716
f 835 836 826
f 837 721 720
f 837 720 836
f 837 722 721
f 724 831 719
f 724 838 831
f 841 840 839
f 843 842 839
f 839 842 841
f 842 843 833
f 843 832 833
f 843 844 832
f 832 845 835
f 832 844 845
f 835 846 836
f 835 845 846
f 846 726 727
f 837 846 727
f 836 846 837
f 837 727 722
f 724 728 847
f 848 724 847
f 838 724 848
f 729 847 728
f 849 732 733
f 840 850 839
f 733 734 849
f 852 850 851
f 850 852 839
f 843 839 852
f 843 853 844
f 843 852 853
f 844 854 845
f 844 853 854
f 854 735 736
f 846 854 736
f 845 854 846
f 846 736 726
f 855 848 847
f 847 729 855
f 729 856 855
f 729 737 856
f 858 857 849
f 857 732 849
f 857 739 732
f 858 852 851
f 858 740 852
f 858 849 734
f 740 858 734
f 852 740 742
f 859 852 742
f 853 852 859
f 853 860 854
f 853 859 860
f 860 743 735
f 860 735 854
f 744 862 861
f 856 744 861
f 737 744 856
f 862 863 861
f 857 864 739
f 739 864 745
f 747 745 864
f 747 864 865
f 748 866 859
f 748 859 742
f 859 867 860
f 859 866 867
f 868 749 743
f 860 868 743
f 867 868 860
f 868 750 749
f 751 862 744
f 751 752 862
f 752 863 862
f 752 869 863
f 865 870 747
f 747 870 753
f 870 748 753
f 748 870 866
f 871 866 870
f 866 871 754
f 756 754 871
f 866 754 757
f 866 757 867
f 867 757 759
f 872 867 759
f 868 867 872
f 872 761 750
f 872 750 868
f 762 874 873
f 869 762 873
f 752 762 869
f 874 875 873
f 871 764 756
f 876 764 871
f 766 877 872
f 766 872 759
f 878 767 761
f 872 878 761
f 877 878 872
f 878 768 767
f 769 874 762
f 769 770 874
f 770 875 874
f 770 879 875
f 876 880 764
f 764 880 771
f 772 771 880
f 772 880 881
f 773 877 766
f 877 773 775
f 877 775 878
f 878 775 768
f 778 879 770
f 778 882 879
f 885 884 883
f 881 885 883
f 779 881 883
f 772 881 779
f 886 882 778
f 886 778 780
f 888 887 782
f 887 780 782
f 887 886 780
f 888 889 887
f 883 884 785
f 884 784 785
f 884 890 784
f 883 785 779
f 787 888 782
f 891 889 888
f 787 891 888
f 788 891 787
f 893 892 789
f 892 788 789
f 892 891 788
f 893 894 892
f 890 895 784
f 784 895 790
f 791 790 895
f 791 895 896
f 898 897 793
f 898 793 794
f 789 793 893
f 793 899 893
f 793 897 899
f 893 899 894
f 901 795 900
f 795 896 900
f 795 791 896
f 902 901 900
f 905 904 903
f 799 800 903
f 904 799 903
f 906 799 904
f 794 799 898
f 898 799 906
f 901 801 795
f 803 801 901
f 902 803 901
f 907 803 902
f 909 908 804
f 909 804 805
f 804 910 806
f 908 910 804
f 806 911 807
f 910 911 806
f 807 912 808
f 911 912 807
f 903 811 905
f 811 912 905
f 811 808 912
f 811 903 800
f 907 913 803
f 803 913 812
f 812 914 813
f 913 914 812
f 813 915 814
f 914 915 813
f 805 814 909
f 909 814 915
f 916 817 818
f 819 916 818
f 918 917 916
f 917 817 916
f 917 822 817
f 920 918 919
f 919 918 823
f 918 916 823
f 916 819 823
f 825 919 823
f 921 827 828
f 829 922 828
f 828 922 921
f 923 922 829
f 822 923 829
f 917 923 822
f 924 920 919
f 926 924 925
f 925 924 830
f 924 919 830
f 919 825 830
f 831 925 830
f 928 927 834
f 834 927 833
f 834 827 921
f 929 834 921
f 928 834 929
f 929 921 922
f 929 922 930
f 930 922 923
f 931 926 925
f 925 831 931
f 831 932 931
f 831 838 932
f 933 840 841
f 933 841 934
f 841 935 934
f 841 842 935
f 842 833 927
f 842 927 935
f 848 932 838
f 848 936 932
f 933 850 840
f 851 850 933
f 934 851 933
f 937 851 934
f 938 936 848
f 938 848 855
f 855 856 938
f 938 856 939
f 940 857 858
f 941 940 858
f 851 941 858
f 937 941 851
f 942 939 856
f 942 856 861
f 861 863 942
f 942 863 943
f 940 864 857
f 865 864 940
f 941 865 940
f 944 865 941
f 869 946 945
f 943 869 945
f 863 869 943
f 946 947 945
f 944 948 865
f 865 948 870
f 871 870 948
f 871 948 949
f 873 946 869
f 873 875 946
f 875 947 946
f 875 950 947
f 949 876 871
f 951 876 949
f 879 950 875
f 879 952 950
f 880 876 953
f 876 954 953
f 876 951 954
f 953 881 880
f 882 956 955
f 952 882 955
f 879 882 952
f 958 957 956
f 956 957 955
f 958 959 957
f 962 961 960
f 960 963 962
f 953 954 885
f 954 884 885
f 954 964 884
f 953 885 881
f 886 956 882
f 956 886 887
f 956 887 958
f 966 965 889
f 889 965 887
f 965 959 887
f 959 958 887
f 965 966 961
f 966 960 961
f 966 967 960
f 963 960 968
f 968 960 967
f 964 890 884
f 969 890 964
f 966 889 891
f 972 971 970
f 971 972 973
f 967 891 892
f 891 967 966
f 892 894 967
f 894 968 967
f 894 974 968
f 969 975 890
f 890 975 895
f 896 895 975
f 896 975 976
f 979 978 977
f 977 978 970
f 977 970 971
f 898 977 971
f 897 898 971
f 973 980 971
f 980 897 971
f 980 899 897
f 894 899 974
f 974 899 980
f 976 981 896
f 896 981 900
f 983 982 902
f 900 983 902
f 981 983 900
f 984 982 983
f 986 985 904
f 986 904 905
f 977 906 979
f 906 985 979
f 906 904 985
f 906 977 898
f 987 907 982
f 982 907 902
f 982 984 988
f 989 982 988
f 987 982 989
f 991 990 989
f 991 989 988
f 908 909 990
f 991 908 990
f 992 908 991
f 908 993 910
f 992 993 908
f 910 994 911
f 993 994 910
f 911 995 912
f 994 995 911
f 905 912 986
f 986 912 995
f 987 913 907
f 913 987 914
f 914 987 989
f 914 989 915
f 915 989 990
f 915 990 909
f 996 917 918
f 920 996 918
f 998 997 996
f 997 917 996
f 997 923 917
f 1000 998 999
f 999 998 924
f 998 996 924
f 996 920 924
f 926 999 924
f 1001 927 928
f 929 1002 928
f 928 1002 1001
f 930 1003 929
f 929 1003 1002
f 1004 1003 930
f 923 1004 930
f 997 1004 923
f 1005 1000 999
f 1007 1005 1006
f 1006 1005 931
f 1005 999 931
f 999 926 931
f 932 1006 931
f 1008 934 935
f 927 1001 935
f 1001 1008 935
f 1001 1009 1008
f 1002 1011 1010
f 1009 1002 1010
f 1001 1002 1009
f 1011 1002 1003
f 1011 1003 1012
f 1012 1003 1004
f 1013 1007 1006
f 1006 932 1013
f 932 1014 1013
f 932 936 1014
f 1016 1015 1008
f 1015 934 1008
f 1015 937 934
f 1016 1008 1009
f 1016 1009 1017
f 1017 1009 1010
f 1018 1014 936
f 1018 936 938
f 938 939 1018
f 1018 939 1019
f 1021 941 1020
f 941 1015 1020
f 941 937 1015
f 1022 1021 1020
f 1023 1019 939
f 1023 939 942
f 942 943 1023
f 1023 943 1024
f 1026 1025 1021
f 1025 941 1021
f 1025 944 941
f 1026 1021 1022
f 1027 1024 943
f 1027 943 945
f 945 947 1027
f 1027 947 1028
f 948 944 1029
f 944 1030 1029
f 944 1025 1030
f 1029 949 948
f 950 1028 947
f 950 1031 1028
f 1029 1030 1032
f 1032 1030 1033
f 1032 951 949
f 1032 949 1029
f 952 1035 1034
f 1031 952 1034
f 950 952 1031
f 1037 1036 1035
f 1035 1036 1034
f 1039 1038 1037
f 1037 1038 1036
f 1041 1040 1039
f 1039 1040 1038
f 1041 1042 1040
f 1032 1033 1043
f 1043 1033 1044
f 1043 954 951
f 1043 951 1032
f 955 1035 952
f 1035 955 957
f 1035 957 1037
f 1037 957 959
f 1045 1037 959
f 1039 1037 1045
f 1045 961 962
f 1041 1045 962
f 1039 1045 1041
f 962 963 1041
f 963 1042 1041
f 963 1046 1042
f 1049 1048 1047
f 1047 1050 1049
f 1044 1051 1043
f 964 954 1043
f 1052 964 1043
f 1051 1052 1043
f 964 1052 1053
f 1054 1053 1052
f 965 1045 959
f 1045 965 961
f 968 1056 1055
f 1046 968 1055
f 963 968 1046
f 1055 1056 1048
f 1056 1047 1048
f 1056 1057 1047
f 1050 1047 1058
f 1047 1059 1058
f 1047 1057 1059
f 1059 1060 1058
f 1061 969 1053
f 1053 969 964
f 1053 1054 1062
f 1063 1053 1062
f 1061 1053 1063
f 1064 1063 1062
f 1067 1066 1065
f 1069 1068 1065
f 1069 1065 1066
f 972 970 1068
f 1069 972 1068
f 1070 972 1069
f 1072 1071 973
f 972 1072 973
f 1070 1072 972
f 1072 1073 1056
f 974 1072 1056
f 968 974 1056
f 1071 1072 974
f 1075 1074 1073
f 1074 1056 1073
f 1074 1057 1056
f 1057 1076 1059
f 1057 1074 1076
f 1060 1059 1077
f 1077 1059 1076
f 1061 975 969
f 975 1061 976
f 1061 1078 976
f 1061 1063 1078
f 1063 1064 1079
f 1063 1079 1078
f 1067 1065 1080
f 1067 1080 1081
f 979 1080 978
f 1080 1068 978
f 1080 1065 1068
f 978 1068 970
f 1071 980 973
f 980 1071 974
f 1074 1075 1082
f 1082 1075 1083
f 1074 1084 1076
f 1074 1082 1084
f 1077 1076 1085
f 1085 1076 1084
f 1078 981 976
f 1079 1086 1078
f 1086 981 1078
f 1086 983 981
f 1088 1087 984
f 983 1088 984
f 1086 1088 983
f 1090 1089 1087
f 1090 1087 1088
f 1092 1091 1089
f 1092 1089 1090
f 1094 1093 1091
f 1094 1091 1092
f 1095 1093 1094
f 1098 1097 1096
f 1096 1097 1081
f 1096 1081 1080
f 986 1096 1080
f 985 986 1080
f 985 1080 979
f 1083 1099 1082
f 1082 1099 1084
f 1084 1099 1100
f 1084 1100 1085
f 1087 988 984
f 988 1087 991
f 991 1087 1089
f 991 1089 992
f 992 1089 1091
f 992 1091 993
f 993 1091 1093
f 1095 1101 1093
f 1101 993 1093
f 1101 994 993
f 1096 995 1098
f 995 1101 1098
f 995 994 1101
f 995 1096 986
f 1102 997 998
f 1000 1102 998
f 1105 1104 1103
f 1106 1105 1102
f 1105 1004 1102
f 1004 997 1102
f 1105 1103 1004
f 1108 1106 1107
f 1107 1106 1005
f 1106 1102 1005
f 1102 1000 1005
f 1007 1107 1005
f 1110 1109 1011
f 1011 1109 1010
f 1012 1103 1104
f 1110 1012 1104
f 1011 1012 1110
f 1103 1012 1004
f 1111 1108 1107
f 1111 1107 1007
f 1013 1111 1007
f 1112 1111 1013
f 1013 1014 1112
f 1112 1014 1113
f 1114 1015 1016
f 1114 1016 1115
f 1016 1116 1115
f 1016 1017 1116
f 1017 1010 1109
f 1017 1109 1116
f 1014 1018 1117
f 1118 1014 1117
f 1113 1014 1118
f 1019 1117 1018
f 1114 1020 1015
f 1022 1020 1114
f 1115 1022 1114
f 1119 1022 1115
f 1120 1118 1117
f 1120 1117 1019
f 1023 1120 1019
f 1121 1120 1023
f 1023 1024 1121
f 1121 1024 1122
f 1124 1123 1026
f 1026 1123 1025
f 1026 1022 1119
f 1026 1119 1124
f 1125 1122 1024
f 1125 1024 1027
f 1127 1126 1028
f 1126 1027 1028
f 1126 1125 1027
f 1127 1128 1126
f 1123 1030 1025
f 1129 1030 1123
f 1031 1130 1127
f 1031 1127 1028
f 1128 1127 1131
f 1127 1132 1131
f 1127 1130 1132
f 1132 1133 1131
f 1129 1033 1030
f 1134 1033 1129
f 1034 1130 1031
f 1130 1034 1036
f 1130 1036 1132
f 1135 1133 1132
f 1036 1135 1132
f 1038 1135 1036
f 1136 1038 1040
f 1136 1135 1038
f 1040 1042 1136
f 1136 1042 1137
f 1139 1044 1138
f 1044 1134 1138
f 1044 1033 1134
f 1141 1140 1139
f 1141 1139 1138
f 1142 1140 1141
f 1046 1144 1143
f 1137 1046 1143
f 1042 1046 1137
f 1048 1049 1144
f 1049 1143 1144
f 1049 1145 1143
f 1049 1050 1145
f 1145 1050 1146
f 1139 1051 1044
f 1051 1139 1052
f 1052 1139 1140
f 1148 1147 1054
f 1148 1054 1052
f 1142 1148 1052
f 1140 1142 1052
f 1150 1149 1147
f 1150 1147 1148
f 1151 1149 1150
f 1055 1144 1046
f 1144 1055 1048
f 1152 1146 1050
f 1152 1050 1058
f 1058 1060 1152
f 1152 1060 1153
f 1147 1062 1054
f 1062 1147 1064
f 1147 1154 1064
f 1147 1149 1154
f 1149 1151 1155
f 1149 1155 1154
f 1158 1157 1156
f 1066 1067 1156
f 1157 1066 1156
f 1159 1066 1157
f 1066 1160 1069
f 1159 1160 1066
f 1160 1162 1161
f 1070 1160 1161
f 1069 1160 1070
f 1163 1072 1070
f 1163 1070 1161
f 1164 1073 1072
f 1164 1072 1163
f 1164 1075 1073
f 1077 1153 1060
f 1077 1165 1153
f 1166 1079 1154
f 1154 1079 1064
f 1154 1155 1167
f 1168 1154 1167
f 1166 1154 1168
f 1169 1168 1167
f 1172 1171 1170
f 1173 1170 1171
f 1158 1156 1174
f 1158 1174 1175
f 1081 1174 1067
f 1067 1174 1156
f 1162 1176 1161
f 1161 1176 1163
f 1163 1176 1177
f 1179 1178 1177
f 1178 1163 1177
f 1178 1164 1163
f 1178 1083 1075
f 1178 1075 1164
f 1085 1165 1077
f 1085 1180 1165
f 1166 1086 1079
f 1086 1166 1088
f 1088 1166 1168
f 1169 1181 1168
f 1181 1088 1168
f 1181 1090 1088
f 1170 1092 1172
f 1092 1181 1172
f 1092 1090 1181
f 1173 1182 1170
f 1182 1092 1170
f 1182 1094 1092
f 1184 1183 1095
f 1094 1184 1095
f 1182 1184 1094
f 1183 1184 1175
f 1183 1175 1174
f 1098 1183 1174
f 1097 1098 1174
f 1097 1174 1081
f 1179 1185 1178
f 1178 1185 1083
f 1185 1099 1083
f 1185 1186 1099
f 1099 1187 1100
f 1186 1187 1099
f 1085 1100 1180
f 1180 1100 1187
f 1183 1101 1095
f 1101 1183 1098
f 1188 1104 1105
f 1106 1189 1105
f 1105 1189 1188
f 1108 1189 1106
f 1191 1190 1110
f 1110 1190 1109
f 1110 1104 1188
f 1192 1110 1188
f 1191 1110 1192
f 1192 1188 1189
f 1192 1189 1193
f 1195 1193 1194
f 1194 1193 1111
f 1193 1189 1111
f 1189 1108 1111
f 1112 1196 1111
f 1111 1196 1194
f 1113 1196 1112
f 1198 1197 1116
f 1116 1197 1115
f 1116 1109 1190
f 1116 1190 1198
f 1199 1195 1194
f 1199 1194 1196
f 1199 1196 1200
f 1196 1113 1200
f 1113 1201 1200
f 1113 1118 1201
f 1197 1119 1115
f 1202 1119 1197
f 1203 1201 1118
f 1203 1118 1120
f 1204 1120 1121
f 1204 1203 1120
f 1121 1122 1204
f 1204 1122 1205
f 1207 1206 1124
f 1124 1206 1123
f 1124 1119 1202
f 1124 1202 1207
f 1208 1205 1122
f 1208 1122 1125
f 1209 1125 1126
f 1209 1208 1125
f 1211 1210 1128
f 1210 1126 1128
f 1210 1209 1126
f 1211 1212 1210
f 1206 1129 1123
f 1213 1129 1206
f 1131 1211 1128
f 1131 1133 1211
f 1133 1212 1211
f 1133 1214 1212
f 1216 1134 1215
f 1134 1213 1215
f 1134 1129 1213
f 1217 1216 1215
f 1218 1214 1133
f 1218 1133 1135
f 1219 1135 1136
f 1219 1218 1135
f 1136 1137 1219
f 1219 1137 1220
f 1216 1138 1134
f 1217 1221 1216
f 1221 1138 1216
f 1221 1141 1138
f 1223 1222 1142
f 1141 1223 1142
f 1221 1223 1141
f 1225 1224 1222
f 1225 1222 1223
f 1226 1224 1225
f 1227 1220 1137
f 1227 1137 1143
f 1229 1227 1228
f 1227 1145 1228
f 1227 1143 1145
f 1146 1228 1145
f 1222 1148 1142
f 1148 1222 1150
f 1150 1222 1224
f 1151 1150 1224
f 1226 1151 1224
f 1230 1151 1226
f 1231 1229 1228
f 1233 1231 1232
f 1232 1231 1152
f 1231 1228 1152
f 1228 1146 1152
f 1153 1232 1152
f 1235 1155 1234
f 1155 1230 1234
f 1155 1151 1230
f 1236 1235 1234
f 1239 1238 1237
f 1157 1158 1237
f 1238 1157 1237
f 1240 1157 1238
f 1157 1241 1159
f 1240 1241 1157
f 1241 1243 1242
f 1160 1241 1242
f 1159 1241 1160
f 1242 1162 1160
f 1233 1232 1244
f 1233 1244 1245
f 1165 1244 1153
f 1153 1244 1232
f 1235 1167 1155
f 1247 1246 1169
f 1247 1169 1167
f 1236 1247 1167
f 1235 1236 1167
f 1171 1172 1246
f 1247 1171 1246
f 1248 1171 1247
f 1250 1249 1173
f 1171 1250 1173
f 1248 1250 1171
f 1249 1250 1239
f 1237 1249 1239
f 1251 1249 1237
f 1175 1251 1158
f 1158 1251 1237
f 1243 1252 1242
f 1242 1252 1162
f 1252 1176 1162
f 1252 1253 1176
f 1176 1254 1177
f 1253 1254 1176
f 1256 1255 1179
f 1177 1256 1179
f 1254 1256 1177
f 1258 1257 1255
f 1258 1255 1256
f 1257 1258 1245
f 1244 1257 1245
f 1259 1257 1244
f 1180 1259 1165
f 1165 1259 1244
f 1246 1181 1169
f 1181 1246 1172
f 1249 1182 1173
f 1182 1249 1184
f 1184 1249 1251
f 1184 1251 1175
f 1255 1185 1179
f 1185 1255 1186
f 1186 1255 1257
f 1186 1257 1187
f 1187 1257 1259
f 1187 1259 1180
f 1260 1190 1191
f 1192 1261 1191
f 1191 1261 1260
f 1193 1262 1192
f 1192 1262 1261
f 1195 1262 1193
f 1263 1197 1198
f 1190 1260 1198
f 1260 1263 1198
f 1260 1264 1263
f 1265 1260 1261
f 1264 1260 1265
f 1262 1267 1266
f 1265 1262 1266
f 1261 1262 1265
f 1267 1262 1195
f 1199 1267 1195
f 1268 1267 1199
f 1269 1199 1200
f 1269 1268 1199
f 1200 1201 1269
f 1269 1201 1270
f 1271 1202 1263
f 1263 1202 1197
f 1272 1263 1264
f 1271 1263 1272
f 1265 1274 1273
f 1272 1265 1273
f 1264 1265 1272
f 1274 1265 1266
f 1275 1270 1201
f 1275 1201 1203
f 1276 1203 1204
f 1276 1275 1203
f 1204 1205 1276
f 1276 1205 1277
f 1278 1206 1207
f 1202 1271 1207
f 1271 1278 1207
f 1271 1279 1278
f 1280 1271 1272
f 1279 1271 1280
f 1272 1273 1281
f 1272 1281 1280
f 1282 1277 1205
f 1282 1205 1208
f 1283 1208 1209
f 1283 1282 1208
f 1284 1209 1210
f 1284 1283 1209
f 1286 1285 1212
f 1285 1210 1212
f 1285 1284 1210
f 1286 1287 1285
f 1288 1213 1278
f 1278 1213 1206
f 1289 1278 1279
f 1288 1278 1289
f 1290 1279 1280
f 1289 1279 1290
f 1280 1281 1291
f 1280 1291 1290
f 1214 1292 1286
f 1214 1286 1212
f 1287 1286 1293
f 1293 1286 1292
f 1288 1215 1213
f 1215 1288 1217
f 1288 1294 1217
f 1288 1289 1294
f 1295 1289 1290
f 1294 1289 1295
f 1290 1291 1296
f 1297 1290 1296
f 1295 1290 1297
f 1298 1297 1296
f 1218 1292 1214
f 1218 1219 1292
f 1219 1299 1292
f 1299 1293 1292
f 1219 1300 1299
f 1220 1300 1219
f 1294 1221 1217
f 1221 1294 1223
f 1223 1294 1295
f 1223 1295 1225
f 1225 1295 1297
f 1226 1225 1297
f 1298 1226 1297
f 1301 1226 1298
f 1304 1303 1302
f 1305 1302 1303
f 1299 1300 1306
f 1299 1306 1307
f 1227 1308 1220
f 1308 1300 1220
f 1308 1306 1300
f 1229 1308 1227
f 1310 1230 1309
f 1230 1301 1309
f 1230 1226 1301
f 1311 1310 1309
f 1314 1313 1312
f 1312 1313 1304
f 1302 1312 1304
f 1315 1312 1302
f 1302 1305 1316
f 1302 1316 1315
f 1319 1318 1317
f 1317 1318 1307
f 1306 1317 1307
f 1320 1317 1306
f 1321 1306 1308
f 1320 1306 1321
f 1231 1322 1229
f 1322 1308 1229
f 1322 1321 1308
f 1233 1322 1231
f 1310 1234 1230
f 1236 1234 1310
f 1311 1236 1310
f 1323 1236 1311
f 1326 1325 1324
f 1324 1325 1314
f 1324 1314 1312
f 1239 1324 1312
f 1238 1239 1312
f 1238 1312 1240
f 1240 1312 1315
f 1316 1327 1315
f 1327 1240 1315
f 1327 1241 1240
f 1329 1328 1243
f 1241 1329 1243
f 1327 1329 1241
f 1328 1329 1319
f 1317 1328 1319
f 1330 1328 1317
f 1331 1317 1320
f 1330 1317 1331
f 1332 1320 1321
f 1331 1320 1332
f 1333 1321 1322
f 1332 1321 1333
f 1245 1333 1233
f 1233 1333 1322
f 1323 1334 1236
f 1236 1334 1247
f 1334 1336 1335
f 1248 1334 1335
f 1247 1334 1248
f 1337 1326 1324
f 1248 1337 1324
f 1250 1248 1324
f 1337 1248 1335
f 1250 1324 1239
f 1328 1252 1243
f 1252 1328 1253
f 1253 1328 1330
f 1253 1330 1254
f 1254 1330 1331
f 1254 1331 1256
f 1256 1331 1332
f 1256 1332 1258
f 1258 1332 1333
f 1258 1333 1245
f 1336 1338 1335
f 1335 1338 1337
f 1339 1266 1267
f 1268 1340 1267
f 1267 1340 1339
f 1269 1341 1268
f 1268 1341 1340
f 1270 1341 1269
f 1342 1273 1274
f 1266 1339 1274
f 1339 1342 1274
f 1339 1343 1342
f 1344 1339 1340
f 1343 1339 1344
f 1341 1346 1345
f 1344 1341 1345
f 1340 1341 1344
f 1346 1341 1270
f 1275 1346 1270
f 1347 1346 1275
f 1349 1347 1348
f 1347 1276 1348
f 1347 1275 1276
f 1277 1348 1276
f 1350 1281 1342
f 1342 1281 1273
f 1343 1352 1351
f 1350 1343 1351
f 1342 1343 1350
f 1352 1343 1344
f 1352 1344 1353
f 1353 1344 1345
f 1354 1349 1348
f 1356 1354 1355
f 1355 1354 1282
f 1354 1348 1282
f 1348 1277 1282
f 1355 1282 1357
f 1282 1358 1357
f 1282 1283 1358
f 1359 1283 1284
f 1359 1358 1283
f 1361 1359 1360
f 1359 1285 1360
f 1359 1284 1285
f 1287 1360 1285
f 1362 1291 1350
f 1350 1291 1281
f 1350 1351 1363
f 1350 1363 1362
f 1364 1356 1355
f 1364 1355 1357
f 1365 1361 1360
f 1360 1287 1365
f 1287 1366 1365
f 1287 1293 1366
f 1362 1296 1291
f 1368 1367 1298
f 1368 1298 1296
f 1363 1368 1296
f 1362 1363 1296
f 1369 1367 1368
f 1372 1371 1370
f 1374 1373 1370
f 1374 1370 1371
f 1376 1375 1373
f 1376 1373 1374
f 1377 1375 1376
f 1299 1366 1293
f 1299 1378 1366
f 1379 1301 1367
f 1367 1301 1298
f 1367 1369 1380
f 1367 1380 1379
f 1383 1382 1381
f 1381 1382 1372
f 1381 1372 1370
f 1304 1381 1370
f 1303 1304 1370
f 1303 1370 1305
f 1370 1384 1305
f 1370 1373 1384
f 1385 1373 1375
f 1384 1373 1385
f 1375 1377 1386
f 1387 1375 1386
f 1385 1375 1387
f 1386 1378 1387
f 1378 1307 1387
f 1378 1299 1307
f 1379 1309 1301
f 1311 1309 1379
f 1380 1311 1379
f 1388 1311 1380
f 1391 1390 1389
f 1389 1390 1383
f 1389 1383 1381
f 1314 1389 1381
f 1313 1314 1381
f 1313 1381 1304
f 1392 1316 1384
f 1384 1316 1305
f 1393 1384 1385
f 1392 1384 1393
f 1319 1393 1318
f 1393 1387 1318
f 1393 1385 1387
f 1318 1387 1307
f 1388 1323 1311
f 1394 1323 1388
f 1391 1389 1325
f 1326 1391 1325
f 1395 1391 1326
f 1325 1389 1314
f 1392 1327 1316
f 1327 1392 1329
f 1329 1392 1393
f 1329 1393 1319
f 1334 1323 1396
f 1323 1397 1396
f 1323 1394 1397
f 1396 1336 1334
f 1337 1395 1326
f 1337 1398 1395
f 1397 1399 1396
f 1396 1399 1336
f 1399 1338 1336
f 1399 1400 1338
f 1337 1338 1398
f 1398 1338 1400
f 1401 1345 1346
f 1347 1402 1346
f 1346 1402 1401
f 1349 1402 1347
f 1403 1351 1352
f 1353 1404 1352
f 1352 1404 1403
f 1345 1401 1353
f 1401 1404 1353
f 1401 1405 1404
f 1406 1401 1402
f 1405 1401 1406
f 1354 1407 1349
f 1407 1402 1349
f 1407 1406 1402
f 1356 1407 1354
f 1408 1357 1358
f 1359 1409 1358
f 1358 1409 1408
f 1361 1409 1359
f 1410 1363 1403
f 1403 1363 1351
f 1411 1403 1404
f 1410 1403 1411
f 1412 1404 1405
f 1411 1404 1412
f 1413 1405 1406
f 1412 1405 1413
f 1414 1406 1407
f 1413 1406 1414
f 1364 1415 1356
f 1415 1407 1356
f 1415 1414 1407
f 1416 1415 1364
f 1416 1364 1357
f 1417 1416 1357
f 1408 1417 1357
f 1417 1408 1409
f 1417 1409 1418
f 1420 1418 1419
f 1419 1418 1365
f 1418 1409 1365
f 1409 1361 1365
f 1366 1419 1365
f 1410 1368 1363
f 1368 1410 1369
f 1410 1421 1369
f 1410 1411 1421
f 1422 1411 1412
f 1421 1411 1422
f 1413 1424 1423
f 1422 1413 1423
f 1412 1413 1422
f 1424 1413 1414
f 1424 1414 1425
f 1372 1426 1371
f 1426 1414 1371
f 1414 1415 1371
f 1426 1425 1414
f 1416 1427 1415
f 1427 1371 1415
f 1427 1374 1371
f 1374 1428 1376
f 1427 1428 1374
f 1419 1429 1377
f 1428 1419 1377
f 1376 1428 1377
f 1420 1419 1428
f 1378 1429 1366
f 1366 1429 1419
f 1430 1380 1421
f 1421 1380 1369
f 1431 1421 1422
f 1430 1421 1431
f 1422 1423 1432
f 1422 1432 1431
f 1434 1433 1382
f 1434 1382 1383
f 1372 1382 1426
f 1426 1382 1433
f 1429 1386 1377
f 1386 1429 1378
f 1435 1388 1430
f 1430 1388 1380
f 1431 1437 1436
f 1435 1431 1436
f 1430 1431 1435
f 1438 1437 1391
f 1431 1391 1437
f 1391 1431 1390
f 1432 1390 1431
f 1390 1432 1439
f 1383 1390 1434
f 1434 1390 1439
f 1440 1394 1435
f 1435 1394 1388
f 1435 1436 1441
f 1435 1441 1440
f 1395 1438 1391
f 1395 1442 1438
f 1443 1397 1440
f 1440 1397 1394
f 1440 1441 1444
f 1440 1444 1443
f 1398 1442 1395
f 1398 1445 1442
f 1443 1399 1397
f 1444 1446 1443
f 1446 1399 1443
f 1446 1400 1399
f 1398 1400 1445
f 1445 1400 1446
f 1447 1416 1417
f 1418 1448 1417
f 1417 1448 1447
f 1420 1448 1418
f 1449 1423 1424
f 1425 1450 1424
f 1424 1450 1449
f 1426 1450 1425
f 1447 1427 1416
f 1427 1447 1428
f 1428 1447 1448
f 1428 1448 1420
f 1451 1432 1449
f 1449 1432 1423
f 1434 1451 1433
f 1451 1450 1433
f 1451 1449 1450
f 1433 1450 1426
f 1452 1436 1437
f 1432 1451 1439
f 1452 1437 1438
f 1439 1451 1434
f 1453 1441 1452
f 1452 1441 1436
f 1442 1453 1438
f 1438 1453 1452
f 1454 1444 1453
f 1453 1444 1441
f 1445 1454 1442
f 1442 1454 1453
f 1454 1446 1444
f 1446 1454 1445
