v 23.9 -1.0 -17.0
v 24.0 -1.0 -17.2
v 24.0 -1.2 -17.0
v 24.0 -1.0 -16.8
v 23.7 0.0 -18.0
v 24.0 0.0 -18.5
v 24.0 -0.5 -18.0
v 23.7 0.0 -17.0
v 24.0 0.0 -16.7
v 23.7 1.0 -19.0
v 24.0 1.0 -19.5
v 24.0 0.5 -19.0
v 23.5 1.0 -18.0
v 23.8 1.0 -17.0
v 24.0 1.0 -16.8
v 23.9 2.0 -20.0
v 24.0 2.0 -20.1
v 24.0 1.9 -20.0
v 23.7 2.0 -19.0
v 23.8 2.0 -18.0
v 24.0 2.0 -17.7
v 24.0 1.3 -17.0
v 24.0 2.1 -20.0
v 24.0 2.4 -19.0
v 24.0 2.2 -18.0
v 24.6 -3.0 -16.0
v 25.0 -3.0 -16.5
v 25.0 -3.4 -16.0
v 25.0 -3.7 -15.0
v 24.7 -3.0 -15.0
v 25.0 -3.0 -14.7
v 24.5 -2.0 -17.0
v 25.0 -2.0 -17.6
v 25.0 -2.5 -17.0
v 24.1 -2.0 -16.0
v 24.7 -2.0 -15.0
v 25.0 -2.0 -14.8
v 24.7 -1.0 -19.0
v 25.0 -1.0 -19.3
v 25.0 -1.3 -19.0
v 25.0 -1.7 -18.0
v 24.4 -1.0 -18.0
v 24.6 -1.0 -16.0
v 25.0 -1.0 -15.6
v 25.0 -1.7 -15.0
v 24.8 0.0 -20.0
v 25.0 0.0 -20.2
v 25.0 -0.3 -20.0
v 24.3 0.0 -19.0
v 25.0 -0.6 -16.0
v 25.0 0.0 -16.4
v 24.5 1.0 -20.0
v 25.0 1.0 -20.4
v 25.0 1.0 -16.6
v 25.0 2.0 -20.5
v 25.0 1.5 -17.0
v 25.0 2.0 -17.5
v 24.7 3.0 -20.0
v 25.0 3.0 -20.3
v 24.7 3.0 -19.0
v 25.0 3.0 -18.7
v 25.0 2.5 -18.0
v 25.0 3.2 -20.0
v 25.0 3.2 -19.0
v 26.0 -4.0 -17.0
v 26.0 -4.0 -17.0
v 26.0 -4.0 -17.0
v 26.0 -4.1 -16.0
v 25.9 -4.0 -16.0
v 26.0 -4.0 -15.9
v 25.7 -3.0 -18.0
v 26.0 -3.0 -18.3
v 26.0 -3.3 -18.0
v 25.4 -3.0 -17.0
v 26.0 -3.4 -15.0
v 26.0 -3.0 -14.7
v 25.7 -2.0 -19.0
v 26.0 -2.0 -19.3
v 26.0 -2.3 -19.0
v 25.3 -2.0 -18.0
v 26.0 -2.0 -14.6
v 26.0 -1.0 -19.7
v 26.0 -1.4 -15.0
v 26.0 -1.0 -15.4
v 26.0 0.0 -20.4
v 26.0 -0.6 -20.0
v 26.0 -0.3 -16.0
v 26.0 0.0 -16.3
v 26.0 1.0 -20.6
v 26.0 1.0 -16.6
v 26.0 2.0 -20.7
v 26.0 1.5 -17.0
v 26.0 2.0 -17.5
v 25.7 3.0 -21.0
v 26.0 3.0 -21.2
v 26.0 2.6 -21.0
v 26.0 2.5 -18.0
v 26.0 3.0 -18.5
v 26.0 3.5 -21.0
v 26.0 3.5 -20.0
v 26.0 3.4 -19.0
v 26.0 -4.0 -17.0
v 26.1 -4.0 -16.0
v 27.0 -3.0 -18.6
v 27.0 -3.4 -18.0
v 27.0 -3.4 -17.0
v 27.0 -3.0 -16.5
v 26.7 -3.0 -16.0
v 26.3 -3.0 -15.0
v 27.0 -2.0 -19.6
v 27.0 -2.6 -19.0
v 27.0 -2.6 -16.0
v 27.0 -2.2 -15.0
v 27.0 -2.0 -14.8
v 26.5 -1.0 -20.0
v 27.0 -1.0 -20.3
v 27.0 -1.5 -20.0
v 26.8 -1.0 -15.0
v 27.0 -1.0 -14.9
v 27.0 0.0 -20.7
v 26.5 0.0 -16.0
v 27.0 0.0 -15.7
v 27.0 -0.9 -15.0
v 26.6 1.0 -21.0
v 27.0 1.0 -21.3
v 27.0 0.5 -21.0
v 27.0 0.4 -16.0
v 27.0 1.0 -16.5
v 26.4 2.0 -21.0
v 27.0 2.0 -21.4
v 27.0 1.5 -17.0
v 27.0 2.0 -17.6
v 27.0 3.0 -21.3
v 27.0 2.4 -18.0
v 27.0 3.0 -18.7
v 27.0 3.4 -21.0
v 27.0 3.5 -20.0
v 27.0 3.3 -19.0
v 27.5 -3.0 -19.0
v 28.0 -3.0 -19.3
v 28.0 -3.3 -19.0
v 28.0 -3.4 -18.0
v 27.5 -3.0 -17.0
v 28.0 -3.0 -17.4
v 27.6 -2.0 -20.0
v 28.0 -2.0 -20.3
v 28.0 -2.3 -20.0
v 28.0 -2.6 -17.0
v 27.6 -2.0 -16.0
v 28.0 -2.0 -16.4
v 27.2 -2.0 -15.0
v 28.0 -1.0 -20.7
v 28.0 -1.5 -16.0
v 28.0 -1.0 -15.6
v 27.1 -1.0 -15.0
v 27.5 0.0 -21.0
v 28.0 0.0 -21.3
v 28.0 -0.5 -21.0
v 28.0 0.0 -15.7
v 28.0 1.0 -21.5
v 28.0 0.3 -16.0
v 28.0 1.0 -16.7
v 28.0 2.0 -21.6
v 27.5 2.0 -18.0
v 28.0 1.7 -18.0
v 28.0 2.0 -18.4
v 28.0 1.3 -17.0
v 28.0 3.0 -21.4
v 27.4 3.0 -19.0
v 28.0 2.5 -19.0
v 28.0 3.0 -19.6
v 28.0 3.4 -21.0
v 28.0 3.3 -20.0
v 29.0 -3.0 -19.4
v 29.0 -3.4 -19.0
v 29.0 -3.3 -18.0
v 29.0 -3.0 -17.7
v 29.0 -2.0 -20.5
v 29.0 -2.5 -20.0
v 29.0 -2.3 -17.0
v 29.0 -2.0 -16.7
v 28.5 -1.0 -21.0
v 29.0 -1.0 -21.3
v 29.0 -1.4 -21.0
v 28.4 -1.0 -16.0
v 29.0 -1.0 -16.5
v 29.0 0.0 -21.5
v 28.3 0.0 -16.0
v 29.0 0.0 -16.7
v 29.0 1.0 -21.6
v 28.4 1.0 -17.0
v 29.0 0.4 -17.0
v 29.0 1.0 -17.6
v 28.7 2.0 -22.0
v 29.0 2.0 -22.2
v 29.0 1.7 -22.0
v 28.6 2.0 -19.0
v 29.0 1.7 -19.0
v 29.0 2.0 -19.4
v 29.0 1.3 -18.0
v 29.0 3.0 -22.0
v 29.0 3.0 -22.0
v 28.4 3.0 -20.0
v 29.0 2.5 -20.0
v 29.0 3.0 -20.6
v 29.0 3.0 -22.0
v 29.0 3.2 -21.0
v 30.0 -3.0 -19.1
v 30.0 -3.1 -19.0
v 29.4 -3.0 -18.0
v 30.0 -3.0 -18.8
v 30.0 -2.0 -20.4
v 30.0 -2.4 -20.0
v 30.0 -2.4 -18.0
v 29.3 -2.0 -17.0
v 30.0 -2.0 -17.6
v 30.0 -1.0 -21.3
v 30.0 -1.3 -21.0
v 29.5 -1.0 -17.0
v 30.0 -1.0 -17.6
v 30.0 0.0 -21.5
v 29.7 0.0 -18.0
v 30.0 -0.5 -18.0
v 30.0 0.0 -18.3
v 29.3 0.0 -17.0
v 30.0 1.0 -21.6
v 29.3 1.0 -18.0
v 30.0 1.0 -18.7
v 30.0 2.0 -22.1
v 30.0 1.9 -22.0
v 29.5 2.0 -20.0
v 30.0 1.6 -20.0
v 30.0 2.0 -20.6
v 30.0 1.2 -19.0
v 30.0 2.1 -22.0
v 29.0 3.0 -22.0
v 29.3 3.0 -21.0
v 30.0 2.3 -21.0
v 30.1 -3.0 -19.0
v 30.4 -2.0 -20.0
v 31.0 -2.0 -19.2
v 31.0 -2.1 -19.0
v 30.4 -2.0 -18.0
v 31.0 -2.0 -18.9
v 30.4 -1.0 -21.0
v 31.0 -1.0 -20.4
v 31.0 -1.4 -20.0
v 30.4 -1.0 -18.0
v 31.0 -1.0 -18.7
v 31.0 0.0 -21.3
v 31.0 -0.4 -21.0
v 30.6 0.0 -19.0
v 31.0 -0.6 -19.0
v 31.0 0.0 -19.6
v 31.0 1.0 -21.6
v 30.6 1.0 -20.0
v 31.0 0.4 -20.0
v 31.0 1.0 -20.7
v 30.2 1.0 -19.0
v 30.1 2.0 -22.0
v 31.0 1.2 -21.0
v 30.3 2.0 -21.0
v 31.1 -2.0 -19.0
v 31.3 -1.0 -20.0
v 31.2 -1.0 -19.0
v 31.2 0.0 -21.0
v 31.3 0.0 -20.0
v 31.2 1.0 -21.0
f 3 2 1
f 1 4 3
f 7 6 5
f 7 5 2
f 5 1 2
f 5 8 1
f 4 1 9
f 9 1 8
f 12 11 10
f 12 10 6
f 10 5 6
f 10 13 5
f 5 14 8
f 5 13 14
f 9 8 15
f 15 8 14
f 18 17 16
f 18 16 11
f 16 10 11
f 16 19 10
f 10 20 13
f 10 19 20
f 22 14 21
f 14 20 21
f 14 13 20
f 14 22 15
f 17 23 16
f 16 23 19
f 19 23 24
f 19 24 20
f 20 24 25
f 20 25 21
f 28 27 26
f 30 29 26
f 26 29 28
f 30 31 29
f 34 33 32
f 34 32 27
f 32 26 27
f 32 35 26
f 26 36 30
f 26 35 36
f 31 30 37
f 37 30 36
f 40 39 38
f 42 41 38
f 38 41 40
f 41 42 33
f 33 42 32
f 42 2 32
f 2 3 32
f 32 3 4
f 43 32 4
f 35 32 43
f 45 36 44
f 36 43 44
f 36 35 43
f 36 45 37
f 48 47 46
f 48 46 39
f 46 38 39
f 46 49 38
f 49 6 7
f 42 49 7
f 38 49 42
f 42 7 2
f 51 50 43
f 4 51 43
f 9 51 4
f 43 50 44
f 46 47 52
f 52 47 53
f 52 11 12
f 49 52 12
f 46 52 49
f 49 12 6
f 15 51 9
f 15 54 51
f 52 53 18
f 53 17 18
f 53 55 17
f 52 18 11
f 57 56 22
f 57 22 21
f 15 22 54
f 54 22 56
f 23 17 58
f 17 59 58
f 17 55 59
f 60 24 23
f 60 23 58
f 24 60 61
f 62 24 61
f 25 24 62
f 21 25 57
f 57 25 62
f 59 63 58
f 58 63 60
f 60 63 64
f 60 64 61
f 67 66 65
f 69 68 65
f 65 68 67
f 69 70 68
f 73 72 71
f 73 71 66
f 71 65 66
f 71 74 65
f 74 27 28
f 69 74 28
f 65 74 69
f 75 70 69
f 28 75 69
f 29 75 28
f 29 31 75
f 75 31 76
f 79 78 77
f 79 77 72
f 77 71 72
f 77 80 71
f 80 33 34
f 74 80 34
f 71 80 74
f 74 34 27
f 37 76 31
f 37 81 76
f 77 78 40
f 78 39 40
f 78 82 39
f 77 40 41
f 77 41 80
f 80 41 33
f 84 83 45
f 84 45 44
f 37 45 81
f 81 45 83
f 86 85 48
f 48 85 47
f 48 39 82
f 48 82 86
f 88 87 50
f 88 50 51
f 44 50 84
f 84 50 87
f 85 53 47
f 89 53 85
f 54 88 51
f 54 90 88
f 89 55 53
f 91 55 89
f 93 92 56
f 93 56 57
f 54 56 90
f 90 56 92
f 96 95 94
f 91 96 94
f 59 91 94
f 55 91 59
f 98 97 62
f 98 62 61
f 57 62 93
f 93 62 97
f 95 99 94
f 94 99 59
f 99 63 59
f 99 100 63
f 63 101 64
f 100 101 63
f 61 64 98
f 98 64 101
f 102 66 67
f 68 103 67
f 67 103 102
f 70 103 68
f 105 104 73
f 73 104 72
f 73 66 102
f 106 73 102
f 105 73 106
f 108 107 106
f 102 108 106
f 103 108 102
f 75 109 70
f 109 103 70
f 109 108 103
f 76 109 75
f 111 110 79
f 79 110 78
f 79 72 104
f 79 104 111
f 112 107 108
f 112 108 109
f 112 109 113
f 109 76 113
f 76 114 113
f 76 81 114
f 117 116 115
f 110 117 115
f 82 110 115
f 78 110 82
f 84 118 83
f 118 119 83
f 119 81 83
f 119 114 81
f 115 116 86
f 116 85 86
f 116 120 85
f 115 86 82
f 88 121 87
f 121 122 87
f 87 122 84
f 122 123 84
f 123 118 84
f 118 123 119
f 126 125 124
f 120 126 124
f 89 120 124
f 85 120 89
f 128 127 121
f 88 128 121
f 90 128 88
f 121 127 122
f 124 125 129
f 129 125 130
f 129 91 89
f 129 89 124
f 132 131 92
f 132 92 93
f 90 92 128
f 128 92 131
f 129 130 96
f 130 95 96
f 130 133 95
f 129 96 91
f 135 134 97
f 135 97 98
f 93 97 132
f 132 97 134
f 133 136 95
f 95 136 99
f 99 137 100
f 136 137 99
f 100 138 101
f 137 138 100
f 98 101 135
f 135 101 138
f 141 140 139
f 104 105 139
f 105 141 139
f 105 142 141
f 144 142 143
f 142 106 143
f 142 105 106
f 107 143 106
f 147 146 145
f 147 145 140
f 140 145 139
f 145 110 139
f 110 111 139
f 139 111 104
f 148 144 143
f 150 148 149
f 149 148 112
f 148 143 112
f 143 107 112
f 113 151 112
f 112 151 149
f 114 151 113
f 145 146 117
f 146 116 117
f 146 152 116
f 145 117 110
f 153 150 149
f 155 154 153
f 149 155 153
f 151 155 149
f 119 155 114
f 114 155 151
f 158 157 156
f 152 158 156
f 120 152 156
f 116 152 120
f 154 155 123
f 122 154 123
f 159 154 122
f 123 155 119
f 156 157 126
f 157 125 126
f 157 160 125
f 156 126 120
f 162 161 127
f 162 127 128
f 122 127 159
f 159 127 161
f 160 130 125
f 163 130 160
f 166 165 164
f 131 132 164
f 165 131 164
f 167 131 165
f 128 131 162
f 162 131 167
f 163 133 130
f 168 133 163
f 171 170 169
f 169 170 166
f 169 166 164
f 135 169 164
f 134 135 164
f 134 164 132
f 168 172 133
f 133 172 136
f 136 173 137
f 172 173 136
f 169 138 171
f 138 173 171
f 138 137 173
f 138 169 135
f 175 174 141
f 141 174 140
f 176 141 142
f 176 175 141
f 142 144 176
f 176 144 177
f 179 178 147
f 147 178 146
f 147 140 174
f 147 174 179
f 180 177 144
f 180 144 148
f 148 150 180
f 180 150 181
f 184 183 182
f 178 184 182
f 152 178 182
f 146 178 152
f 150 153 185
f 186 150 185
f 181 150 186
f 154 185 153
f 182 183 158
f 183 157 158
f 183 187 157
f 182 158 152
f 186 185 188
f 186 188 189
f 159 188 154
f 154 188 185
f 187 160 157
f 190 160 187
f 193 192 191
f 191 192 189
f 191 189 188
f 162 191 188
f 161 162 188
f 161 188 159
f 196 195 194
f 190 196 194
f 163 190 194
f 160 190 163
f 199 198 197
f 165 166 197
f 198 165 197
f 200 165 198
f 191 167 193
f 167 200 193
f 167 165 200
f 167 191 162
f 194 195 201
f 201 195 202
f 201 168 163
f 201 163 194
f 205 204 203
f 203 204 199
f 203 199 197
f 171 203 197
f 170 171 197
f 170 197 166
f 202 206 201
f 201 206 168
f 206 172 168
f 206 207 172
f 203 173 205
f 173 207 205
f 173 172 207
f 173 203 171
f 209 208 175
f 175 208 174
f 211 209 210
f 209 176 210
f 209 175 176
f 177 210 176
f 213 212 179
f 179 212 178
f 179 174 208
f 179 208 213
f 214 211 210
f 216 214 215
f 215 214 180
f 214 210 180
f 210 177 180
f 181 215 180
f 218 217 184
f 184 217 183
f 184 178 212
f 184 212 218
f 216 215 219
f 216 219 220
f 186 219 181
f 181 219 215
f 217 187 183
f 221 187 217
f 224 223 222
f 222 223 220
f 219 222 220
f 225 222 219
f 189 225 186
f 186 225 219
f 221 190 187
f 226 190 221
f 224 222 227
f 224 227 228
f 193 227 192
f 227 225 192
f 227 222 225
f 192 225 189
f 230 229 196
f 196 229 195
f 196 190 226
f 196 226 230
f 233 232 231
f 198 199 231
f 232 198 231
f 234 198 232
f 227 200 228
f 200 234 228
f 200 198 234
f 200 227 193
f 236 202 235
f 202 229 235
f 202 195 229
f 238 237 236
f 238 236 235
f 237 238 233
f 237 233 231
f 205 237 231
f 204 205 231
f 204 231 199
f 236 206 202
f 206 236 207
f 207 236 237
f 207 237 205
f 239 208 209
f 211 239 209
f 240 212 213
f 241 240 213
f 241 213 208
f 242 241 208
f 239 242 208
f 244 242 243
f 243 242 214
f 242 239 214
f 239 211 214
f 216 243 214
f 245 217 218
f 246 245 218
f 246 218 212
f 247 246 212
f 240 247 212
f 247 240 241
f 244 243 248
f 244 248 249
f 220 248 216
f 216 248 243
f 251 250 245
f 250 217 245
f 250 221 217
f 251 245 246
f 254 253 252
f 252 253 249
f 252 249 248
f 224 252 248
f 223 224 248
f 223 248 220
f 250 226 221
f 255 226 250
f 258 257 256
f 256 257 254
f 252 256 254
f 259 256 252
f 228 259 224
f 224 259 252
f 260 229 230
f 226 255 261
f 260 226 261
f 262 260 261
f 230 226 260
f 262 261 258
f 262 258 256
f 233 262 256
f 232 233 256
f 232 256 234
f 234 256 259
f 234 259 228
f 260 235 229
f 235 260 238
f 238 260 262
f 238 262 233
f 263 241 242
f 244 263 242
f 264 246 247
f 241 263 247
f 263 264 247
f 263 265 264
f 249 265 244
f 244 265 263
f 266 250 251
f 246 264 251
f 264 266 251
f 264 267 266
f 254 267 253
f 267 265 253
f 267 264 265
f 253 265 249
f 268 255 266
f 266 255 250
f 258 268 257
f 268 267 257
f 268 266 267
f 257 267 254
f 268 261 255
f 261 268 258
