v -47.1 2.0 -21.0
v -47.0 2.0 -21.1
v -47.0 1.9 -21.0
v -47.0 2.0 -20.9
v -47.0 3.0 -21.0
v -47.0 3.0 -21.0
v -47.0 3.0 -21.0
v -47.0 3.0 -21.0
v -46.2 -1.0 -20.0
v -46.0 -1.0 -20.3
v -46.0 -1.3 -20.0
v -46.0 -1.2 -19.0
v -46.2 -1.0 -19.0
v -46.0 -1.0 -18.8
v -46.4 0.0 -20.0
v -46.0 0.0 -20.6
v -46.3 0.0 -19.0
v -46.0 0.0 -18.7
v -46.4 1.0 -21.0
v -46.0 1.0 -21.5
v -46.0 0.5 -21.0
v -46.5 1.0 -20.0
v -46.2 1.0 -19.0
v -46.0 1.0 -18.8
v -46.2 2.0 -22.0
v -46.0 2.0 -22.2
v -46.0 1.7 -22.0
v -46.5 2.0 -20.0
v -46.0 2.0 -19.4
v -46.0 1.4 -19.0
v -46.0 2.4 -22.0
v -46.0 3.0 -21.7
v -46.3 3.0 -20.0
v -46.0 3.0 -19.7
v -46.1 4.0 -21.0
v -46.0 4.0 -21.1
v -46.0 4.0 -20.9
v -46.0 3.3 -20.0
v -46.0 4.1 -21.0
v -45.4 -1.0 -21.0
v -45.0 -1.0 -21.5
v -45.0 -1.4 -21.0
v -45.0 -1.9 -20.0
v -45.0 -1.4 -19.0
v -45.0 -1.0 -18.6
v -45.3 0.0 -22.0
v -45.0 0.0 -22.4
v -45.0 -0.4 -22.0
v -45.7 0.0 -21.0
v -45.0 0.0 -18.4
v -45.3 1.0 -23.0
v -45.0 1.0 -23.3
v -45.0 0.6 -23.0
v -45.7 1.0 -22.0
v -45.0 1.0 -18.4
v -45.3 2.0 -23.0
v -45.0 2.0 -23.3
v -45.5 2.0 -19.0
v -45.0 2.0 -18.7
v -45.0 2.5 -23.0
v -45.7 3.0 -22.0
v -45.0 3.0 -22.6
v -45.0 2.5 -19.0
v -45.0 3.0 -19.4
v -45.3 4.0 -22.0
v -45.0 4.0 -22.3
v -45.0 3.6 -20.0
v -45.0 4.0 -20.4
v -45.0 4.3 -22.0
v -45.0 4.4 -21.0
v -44.3 -2.0 -21.0
v -44.0 -2.0 -21.2
v -44.0 -2.2 -21.0
v -44.0 -2.0 -20.5
v -44.4 -1.0 -22.0
v -44.0 -1.0 -22.4
v -44.0 -1.4 -22.0
v -44.0 -1.8 -20.0
v -44.0 -1.4 -19.0
v -44.0 -1.0 -18.4
v -44.4 0.0 -23.0
v -44.0 0.0 -23.3
v -44.0 -0.3 -23.0
v -44.0 -0.4 -18.0
v -44.3 0.0 -18.0
v -44.0 0.0 -17.8
v -44.0 1.0 -23.7
v -44.2 1.0 -18.0
v -44.0 1.0 -17.9
v -44.1 2.0 -24.0
v -44.0 2.0 -24.1
v -44.0 1.8 -24.0
v -44.0 1.2 -18.0
v -44.0 2.0 -18.4
v -44.0 2.2 -24.0
v -44.6 3.0 -23.0
v -44.0 3.0 -23.5
v -44.4 3.0 -19.0
v -44.0 3.0 -18.7
v -44.3 4.0 -23.0
v -44.0 4.0 -23.3
v -44.5 4.0 -20.0
v -44.0 4.0 -19.7
v -44.0 3.3 -19.0
v -44.0 4.4 -23.0
v -44.0 4.9 -22.0
v -44.0 4.6 -21.0
v -44.0 4.3 -20.0
v -43.0 -3.0 -21.0
v -43.0 -3.0 -21.0
v -43.0 -3.0 -21.0
v -43.0 -3.0 -21.0
v -43.0 -2.0 -21.6
v -43.0 -2.4 -20.0
v -43.7 -2.0 -20.0
v -43.0 -2.0 -19.5
v -43.0 -1.0 -22.5
v -43.0 -1.5 -22.0
v -43.0 -1.7 -19.0
v -43.0 -1.2 -18.0
v -43.3 -1.0 -18.0
v -43.0 -1.0 -17.8
v -43.0 0.0 -23.5
v -43.0 -0.5 -23.0
v -43.0 0.0 -17.7
v -43.4 1.0 -24.0
v -43.0 1.0 -24.2
v -43.0 0.7 -24.0
v -43.8 1.0 -18.0
v -43.0 0.4 -18.0
v -43.0 1.0 -18.4
v -43.0 2.0 -24.3
v -43.0 2.0 -18.6
v -43.0 2.5 -24.0
v -43.0 3.0 -23.7
v -43.0 3.0 -18.7
v -43.0 4.0 -23.6
v -43.0 3.4 -19.0
v -43.0 4.0 -19.5
v -43.2 5.0 -23.0
v -43.0 5.0 -23.1
v -43.0 5.0 -22.7
v -43.0 4.8 -22.0
v -43.0 4.5 -21.0
v -43.0 4.4 -20.0
v -43.0 5.1 -23.0
v -43.0 -3.0 -21.0
v -42.0 -2.0 -21.5
v -42.0 -2.9 -21.0
v -42.0 -2.6 -20.0
v -42.0 -2.3 -19.0
v -42.5 -2.0 -19.0
v -42.0 -2.0 -18.6
v -42.0 -1.0 -22.4
v -42.0 -1.4 -22.0
v -42.0 -1.2 -18.0
v -42.0 -1.0 -17.9
v -42.0 0.0 -23.4
v -42.0 -0.4 -23.0
v -42.6 0.0 -18.0
v -42.0 -0.7 -18.0
v -42.0 0.0 -18.4
v -42.0 1.0 -24.2
v -42.0 0.7 -24.0
v -42.3 1.0 -19.0
v -42.0 0.7 -19.0
v -42.0 1.0 -19.3
v -42.0 1.7 -24.0
v -42.3 2.0 -24.0
v -42.0 2.0 -23.9
v -42.5 2.0 -19.0
v -42.0 2.0 -19.5
v -42.0 3.0 -24.3
v -42.5 3.0 -24.0
v -42.0 2.3 -24.0
v -42.5 3.0 -19.0
v -42.0 3.0 -19.3
v -42.3 4.0 -24.0
v -42.0 4.0 -24.2
v -42.0 4.0 -19.2
v -42.0 4.3 -24.0
v -42.0 5.0 -23.3
v -42.4 5.0 -22.0
v -42.0 5.0 -21.8
v -42.0 4.6 -21.0
v -42.0 4.4 -20.0
v -42.0 5.2 -23.0
v -42.0 5.1 -22.0
v -41.4 -2.0 -21.0
v -41.0 -2.0 -20.4
v -41.0 -2.3 -20.0
v -41.0 -2.3 -19.0
v -41.0 -2.0 -18.0
v -41.0 -2.0 -18.0
v -41.0 -2.0 -18.0
v -41.6 -1.0 -22.0
v -41.0 -1.0 -21.5
v -41.0 -1.5 -21.0
v -41.7 -1.0 -18.0
v -41.0 -1.0 -18.3
v -41.0 -2.0 -18.0
v -41.5 0.0 -23.0
v -41.0 0.0 -22.6
v -41.0 -0.5 -22.0
v -41.0 0.0 -18.6
v -41.0 1.0 -24.0
v -41.0 1.0 -24.0
v -41.0 0.3 -23.0
v -41.0 0.5 -19.0
v -41.0 1.0 -19.5
v -41.0 1.1 -24.0
v -41.0 2.0 -23.7
v -41.1 2.0 -20.0
v -41.0 1.9 -20.0
v -41.0 2.0 -20.1
v -41.0 3.0 -24.4
v -41.0 2.4 -24.0
v -41.0 2.1 -20.0
v -41.0 3.0 -19.6
v -41.0 4.0 -24.4
v -41.0 4.0 -19.7
v -41.0 4.5 -24.0
v -41.6 5.0 -23.0
v -41.0 4.7 -23.0
v -41.7 5.0 -22.0
v -41.0 4.7 -22.0
v -41.0 4.5 -21.0
v -41.0 4.3 -20.0
v -40.6 -2.0 -20.0
v -40.4 -2.0 -19.0
v -40.0 -2.0 -18.1
v -40.0 -2.1 -18.0
v -40.0 -2.0 -17.9
v -40.4 -1.0 -21.0
v -40.0 -1.0 -20.6
v -40.0 -1.5 -20.0
v -40.0 -1.6 -19.0
v -40.0 -1.0 -18.5
v -40.0 -1.9 -18.0
v -40.4 0.0 -22.0
v -40.0 0.0 -21.7
v -40.0 -0.6 -21.0
v -40.0 0.0 -18.6
v -41.0 1.0 -24.0
v -40.0 1.0 -23.3
v -40.0 0.7 -23.0
v -40.0 0.3 -22.0
v -40.0 0.5 -19.0
v -40.0 1.0 -19.5
v -40.0 2.0 -23.6
v -40.0 1.7 -20.0
v -40.0 2.0 -20.2
v -40.0 3.0 -24.4
v -40.0 2.5 -24.0
v -40.0 2.5 -20.0
v -40.0 3.0 -19.8
v -40.0 4.0 -24.5
v -40.6 4.0 -20.0
v -40.0 3.4 -20.0
v -40.0 4.0 -20.5
v -40.0 5.0 -24.0
v -40.0 5.0 -24.0
v -40.5 5.0 -23.0
v -40.2 5.0 -22.0
v -40.0 5.0 -21.9
v -40.0 4.4 -21.0
v -40.0 5.0 -24.0
v -40.0 5.2 -23.0
v -40.0 5.1 -22.0
v -39.0 -2.0 -18.1
v -39.0 -2.3 -18.0
v -39.0 -2.0 -17.7
v -39.0 -1.0 -20.3
v -39.0 -1.2 -20.0
v -39.0 -1.3 -19.0
v -39.0 -1.0 -18.7
v -39.0 -1.9 -18.0
v -39.0 0.0 -21.4
v -39.0 -0.4 -21.0
v -39.0 0.0 -18.8
v -39.6 1.0 -23.0
v -39.0 1.0 -22.4
v -39.0 0.6 -22.0
v -39.0 0.3 -19.0
v -39.0 1.0 -19.5
v -39.0 2.0 -23.3
v -39.0 1.6 -23.0
v -39.0 1.6 -20.0
v -39.0 2.0 -20.3
v -39.0 3.0 -24.2
v -39.0 2.7 -24.0
v -39.0 3.0 -20.0
v -39.0 3.0 -20.0
v -39.0 4.0 -24.2
v -39.5 4.0 -21.0
v -39.0 3.5 -21.0
v -39.0 4.0 -21.5
v -39.0 4.3 -24.0
v -40.0 5.0 -24.0
v -39.7 5.0 -23.0
v -39.0 4.6 -23.0
v -39.9 5.0 -22.0
v -39.0 4.4 -22.0
v -38.9 -2.0 -18.0
v -38.7 -1.0 -20.0
v -38.8 -1.0 -19.0
v -38.6 0.0 -21.0
v -38.0 0.0 -20.2
v -38.0 -0.1 -20.0
v -38.0 0.0 -19.9
v -38.7 0.0 -19.0
v -38.6 1.0 -22.0
v -38.0 1.0 -21.3
v -38.0 0.6 -21.0
v -38.0 1.0 -19.8
v -38.7 2.0 -23.0
v -38.4 2.0 -22.0
v -38.0 2.0 -21.1
v -38.0 1.2 -20.0
v -38.0 2.0 -20.9
v -38.8 3.0 -24.0
v -38.5 3.0 -23.0
v -38.5 3.0 -22.0
v -38.0 2.1 -21.0
v -38.6 3.0 -21.0
v -38.7 4.0 -24.0
v -38.2 4.0 -23.0
v -38.7 4.0 -22.0
v -37.9 0.0 -20.0
v -37.8 1.0 -21.0
v -37.8 1.0 -20.0
v -37.9 2.0 -21.0
f 3 2 1
f 1 4 3
f 1 2 5
f 5 2 6
f 4 1 7
f 7 1 5
f 6 8 5
f 5 8 7
f 11 10 9
f 13 12 9
f 9 12 11
f 13 14 12
f 9 10 15
f 15 10 16
f 9 17 13
f 9 15 17
f 14 13 18
f 18 13 17
f 21 20 19
f 21 19 16
f 19 15 16
f 19 22 15
f 15 23 17
f 15 22 23
f 18 17 24
f 24 17 23
f 27 26 25
f 27 25 20
f 20 25 19
f 25 2 19
f 2 3 19
f 19 3 4
f 28 19 4
f 22 19 28
f 30 23 29
f 23 28 29
f 23 22 28
f 23 30 24
f 26 31 25
f 2 25 31
f 32 2 31
f 6 2 32
f 7 33 28
f 7 28 4
f 29 28 34
f 34 28 33
f 8 6 35
f 6 36 35
f 6 32 36
f 35 37 8
f 8 37 7
f 37 38 7
f 38 33 7
f 33 38 34
f 36 39 35
f 35 39 37
f 42 41 40
f 10 11 40
f 11 42 40
f 11 43 42
f 44 11 12
f 44 43 11
f 12 14 44
f 44 14 45
f 48 47 46
f 48 46 41
f 46 40 41
f 46 49 40
f 49 16 10
f 49 10 40
f 18 45 14
f 18 50 45
f 53 52 51
f 53 51 47
f 51 46 47
f 51 54 46
f 54 20 21
f 49 54 21
f 46 54 49
f 49 21 16
f 24 50 18
f 24 55 50
f 51 52 56
f 56 52 57
f 56 26 27
f 54 56 27
f 51 56 54
f 54 27 20
f 29 58 30
f 58 59 30
f 59 24 30
f 59 55 24
f 57 60 56
f 60 62 61
f 60 61 31
f 56 60 31
f 26 56 31
f 61 32 31
f 64 63 58
f 29 64 58
f 34 64 29
f 58 63 59
f 61 62 65
f 65 62 66
f 65 36 32
f 65 32 61
f 68 67 38
f 68 38 37
f 34 38 64
f 64 38 67
f 66 69 65
f 65 69 36
f 69 39 36
f 69 70 39
f 37 39 68
f 68 39 70
f 73 72 71
f 71 74 73
f 77 76 75
f 77 75 72
f 72 75 71
f 75 41 71
f 41 42 71
f 78 74 71
f 42 78 71
f 43 78 42
f 79 43 44
f 79 78 43
f 44 45 79
f 79 45 80
f 83 82 81
f 83 81 76
f 76 81 75
f 81 47 75
f 47 48 75
f 75 48 41
f 50 85 84
f 80 50 84
f 45 50 80
f 85 86 84
f 81 82 53
f 82 52 53
f 82 87 52
f 81 53 47
f 55 88 85
f 55 85 50
f 86 85 89
f 89 85 88
f 92 91 90
f 87 92 90
f 57 87 90
f 52 87 57
f 94 93 88
f 55 94 88
f 59 94 55
f 88 93 89
f 91 95 90
f 95 97 96
f 95 96 60
f 90 95 60
f 57 90 60
f 96 62 60
f 64 98 63
f 98 99 63
f 99 59 63
f 99 94 59
f 96 97 100
f 100 97 101
f 100 66 62
f 100 62 96
f 68 102 67
f 102 103 67
f 67 103 64
f 103 104 64
f 104 98 64
f 98 104 99
f 101 105 100
f 100 105 66
f 105 69 66
f 105 106 69
f 69 107 70
f 106 107 69
f 68 70 102
f 70 108 102
f 70 107 108
f 102 108 103
f 111 110 109
f 109 112 111
f 109 110 73
f 110 72 73
f 110 113 72
f 115 114 74
f 74 114 73
f 114 112 73
f 112 109 73
f 115 116 114
f 118 117 77
f 77 117 76
f 77 72 113
f 77 113 118
f 78 115 74
f 119 116 115
f 78 119 115
f 79 119 78
f 121 120 80
f 120 79 80
f 120 119 79
f 121 122 120
f 124 123 83
f 83 123 82
f 83 76 117
f 83 117 124
f 84 121 80
f 84 86 121
f 86 122 121
f 86 125 122
f 128 127 126
f 123 128 126
f 87 123 126
f 82 123 87
f 131 130 129
f 130 125 129
f 125 89 129
f 125 86 89
f 126 127 92
f 127 91 92
f 127 132 91
f 126 92 87
f 131 129 93
f 94 131 93
f 133 131 94
f 93 129 89
f 132 134 91
f 91 134 95
f 97 95 134
f 97 134 135
f 99 133 94
f 99 136 133
f 135 101 97
f 137 101 135
f 139 138 104
f 139 104 103
f 99 104 136
f 136 104 138
f 105 101 140
f 101 141 140
f 101 137 141
f 105 140 142
f 143 105 142
f 106 105 143
f 106 144 107
f 143 144 106
f 107 145 108
f 144 145 107
f 103 108 139
f 139 108 145
f 141 146 140
f 140 146 142
f 147 110 111
f 112 147 111
f 149 148 147
f 148 110 147
f 148 113 110
f 149 147 112
f 114 149 112
f 150 149 114
f 152 151 116
f 151 114 116
f 151 150 114
f 152 153 151
f 155 154 118
f 118 154 117
f 118 113 148
f 118 148 155
f 119 152 116
f 156 153 152
f 119 156 152
f 120 156 119
f 120 122 156
f 156 122 157
f 159 158 124
f 124 158 123
f 124 117 154
f 124 154 159
f 162 161 160
f 161 157 160
f 157 125 160
f 157 122 125
f 164 163 128
f 128 163 127
f 128 123 158
f 128 158 164
f 167 166 165
f 165 166 162
f 165 162 160
f 131 165 160
f 130 131 160
f 130 160 125
f 169 132 168
f 132 163 168
f 132 127 163
f 170 169 168
f 167 165 171
f 167 171 172
f 133 171 131
f 131 171 165
f 174 134 173
f 134 132 173
f 173 132 169
f 175 173 169
f 169 170 175
f 134 174 135
f 172 171 176
f 172 176 177
f 136 176 133
f 133 176 171
f 174 173 178
f 178 173 179
f 178 137 135
f 178 135 174
f 177 176 138
f 139 177 138
f 180 177 139
f 138 176 136
f 179 181 178
f 137 178 181
f 182 137 181
f 141 137 182
f 142 183 143
f 143 183 184
f 185 143 184
f 144 143 185
f 144 186 145
f 185 186 144
f 139 145 180
f 180 145 186
f 182 187 141
f 141 187 146
f 142 146 183
f 146 188 183
f 146 187 188
f 183 188 184
f 189 148 149
f 189 149 190
f 149 191 190
f 149 150 191
f 192 150 151
f 192 191 150
f 194 193 153
f 193 151 153
f 193 192 151
f 194 195 193
f 196 154 155
f 197 196 155
f 197 155 148
f 198 197 148
f 189 198 148
f 198 189 190
f 200 156 199
f 200 153 156
f 194 153 200
f 194 200 201
f 201 195 194
f 157 199 156
f 202 158 159
f 203 202 159
f 203 159 154
f 204 203 154
f 196 204 154
f 204 196 197
f 200 199 161
f 162 200 161
f 205 200 162
f 161 199 157
f 207 206 164
f 164 206 163
f 164 158 202
f 208 164 202
f 207 164 208
f 208 202 203
f 210 209 166
f 210 166 167
f 162 166 205
f 205 166 209
f 206 211 163
f 163 211 168
f 170 168 211
f 170 211 212
f 215 214 213
f 214 210 213
f 210 172 213
f 210 167 172
f 217 216 175
f 175 216 173
f 175 170 212
f 175 212 217
f 218 215 213
f 213 172 218
f 172 219 218
f 172 177 219
f 216 179 173
f 220 179 216
f 180 219 177
f 180 221 219
f 220 222 179
f 179 222 181
f 224 223 182
f 181 224 182
f 222 224 181
f 226 225 223
f 226 223 224
f 185 184 225
f 226 185 225
f 227 185 226
f 185 228 186
f 227 228 185
f 180 186 221
f 221 186 228
f 223 187 182
f 187 223 188
f 188 223 225
f 188 225 184
f 229 190 191
f 192 230 191
f 191 230 229
f 230 192 231
f 192 232 231
f 192 193 232
f 193 195 232
f 232 195 233
f 234 197 198
f 235 234 198
f 235 198 190
f 236 235 190
f 229 236 190
f 236 229 230
f 236 230 237
f 238 237 200
f 230 200 237
f 200 230 201
f 231 201 230
f 201 231 239
f 195 201 233
f 233 201 239
f 240 203 204
f 241 240 204
f 241 204 197
f 242 241 197
f 234 242 197
f 242 234 235
f 205 238 200
f 205 243 238
f 244 206 207
f 244 207 245
f 207 246 245
f 207 208 246
f 208 203 240
f 247 208 240
f 246 208 247
f 247 240 241
f 249 248 209
f 249 209 210
f 205 209 243
f 243 209 248
f 244 211 206
f 212 211 244
f 245 212 244
f 250 212 245
f 252 251 214
f 252 214 215
f 210 214 249
f 249 214 251
f 254 253 217
f 217 253 216
f 217 212 250
f 217 250 254
f 255 252 215
f 255 215 218
f 218 219 255
f 255 219 256
f 253 220 216
f 257 220 253
f 260 259 258
f 259 256 258
f 256 221 258
f 256 219 221
f 222 220 261
f 220 262 261
f 220 257 262
f 263 224 222
f 263 222 261
f 264 226 224
f 264 224 263
f 226 264 265
f 266 226 265
f 227 226 266
f 258 228 260
f 228 266 260
f 228 227 266
f 228 258 221
f 262 267 261
f 261 267 263
f 263 267 268
f 263 268 264
f 264 268 269
f 264 269 265
f 271 270 232
f 232 270 231
f 232 233 271
f 271 233 272
f 274 273 236
f 236 273 235
f 275 236 237
f 275 274 236
f 237 238 275
f 276 275 238
f 270 239 231
f 239 270 277
f 233 239 272
f 272 239 277
f 279 278 242
f 242 278 241
f 242 235 273
f 242 273 279
f 243 276 238
f 243 280 276
f 281 245 246
f 281 246 282
f 246 283 282
f 246 247 283
f 247 241 278
f 247 278 283
f 285 284 248
f 285 248 249
f 243 248 280
f 280 248 284
f 287 286 281
f 286 245 281
f 286 250 245
f 287 281 282
f 289 288 251
f 289 251 252
f 249 251 285
f 285 251 288
f 291 290 254
f 254 290 253
f 254 250 286
f 254 286 291
f 252 255 292
f 293 252 292
f 289 252 293
f 256 292 255
f 290 257 253
f 294 257 290
f 297 296 295
f 295 296 293
f 295 293 292
f 260 295 292
f 259 260 292
f 259 292 256
f 299 262 298
f 262 294 298
f 262 257 294
f 301 300 299
f 301 299 298
f 303 302 300
f 303 300 301
f 302 303 297
f 302 297 295
f 265 302 295
f 266 265 295
f 266 295 260
f 299 267 262
f 267 299 268
f 268 299 300
f 268 300 269
f 269 300 302
f 269 302 265
f 304 270 271
f 272 304 271
f 305 273 274
f 275 306 274
f 274 306 305
f 270 304 277
f 306 275 276
f 277 304 272
f 307 278 279
f 308 307 279
f 308 279 273
f 309 308 273
f 305 309 273
f 311 310 309
f 305 311 309
f 306 311 305
f 280 311 276
f 276 311 306
f 312 282 283
f 313 312 283
f 313 283 278
f 314 313 278
f 307 314 278
f 314 307 308
f 310 311 284
f 285 310 284
f 315 310 285
f 284 311 280
f 316 286 287
f 282 312 287
f 312 316 287
f 312 317 316
f 312 313 318
f 312 318 317
f 320 319 288
f 320 288 289
f 285 288 315
f 315 288 319
f 321 290 291
f 286 316 291
f 316 321 291
f 316 322 321
f 323 316 317
f 322 316 323
f 317 318 324
f 325 317 324
f 323 317 325
f 324 320 325
f 320 293 325
f 320 289 293
f 326 294 321
f 321 294 290
f 327 321 322
f 326 321 327
f 328 322 323
f 327 322 328
f 297 328 296
f 328 325 296
f 328 323 325
f 296 325 293
f 326 298 294
f 298 326 301
f 301 326 327
f 301 327 303
f 303 327 328
f 303 328 297
f 329 308 309
f 310 329 309
f 330 313 314
f 308 329 314
f 329 330 314
f 329 331 330
f 315 331 310
f 310 331 329
f 332 318 330
f 330 318 313
f 320 332 319
f 332 331 319
f 332 330 331
f 319 331 315
f 332 324 318
f 324 332 320
