v 31.9 -33.0 -23.0
v 32.0 -33.0 -23.4
v 32.0 -33.2 -23.0
v 32.0 -33.0 -22.8
v 31.9 -32.0 -23.0
v 32.0 -32.0 -23.1
v 32.0 -32.0 -22.8
v 31.4 -31.0 -23.0
v 32.0 -31.0 -23.3
v 32.0 -31.1 -22.0
v 31.9 -31.0 -22.0
v 32.0 -31.0 -21.9
v 32.0 -30.0 -23.0
v 32.0 -30.9 -22.0
v 33.0 -35.0 -23.0
v 33.0 -35.0 -23.1
v 33.0 -35.0 -23.0
v 33.0 -35.0 -22.9
v 32.6 -34.0 -23.0
v 33.0 -34.0 -23.4
v 33.0 -34.4 -22.0
v 32.7 -34.0 -22.0
v 33.0 -34.0 -21.6
v 33.0 -33.0 -23.4
v 32.5 -33.0 -22.0
v 33.0 -33.0 -21.4
v 33.0 -32.4 -23.0
v 32.2 -32.0 -23.0
v 33.0 -32.0 -22.6
v 32.4 -32.0 -22.0
v 33.0 -32.3 -21.0
v 32.8 -32.0 -21.0
v 33.0 -32.0 -20.8
v 32.4 -31.0 -23.0
v 33.0 -31.0 -22.5
v 33.0 -31.7 -21.0
v 33.0 -31.0 -21.5
v 33.0 -30.0 -23.1
v 32.0 -30.0 -23.0
v 33.0 -30.1 -23.0
v 33.0 -30.0 -22.8
v 32.0 -30.0 -23.0
v 33.0 -30.5 -22.0
v 33.0 -29.3 -23.0
v 34.0 -35.0 -23.8
v 34.0 -35.5 -23.0
v 34.0 -35.5 -22.0
v 33.4 -35.0 -22.0
v 34.0 -35.3 -21.0
v 33.8 -35.0 -21.0
v 34.0 -35.0 -20.8
v 34.0 -34.0 -23.6
v 33.5 -34.0 -21.0
v 34.0 -34.0 -20.4
v 34.0 -33.0 -23.4
v 33.3 -33.0 -21.0
v 34.0 -33.5 -20.0
v 33.7 -33.0 -20.0
v 34.0 -33.0 -19.5
v 34.0 -32.4 -23.0
v 34.0 -32.0 -22.7
v 33.4 -32.0 -20.0
v 34.0 -32.6 -19.0
v 33.6 -32.0 -19.0
v 34.0 -32.3 -18.0
v 33.8 -32.0 -18.0
v 34.0 -32.0 -17.8
v 34.0 -31.0 -22.5
v 33.3 -31.0 -21.0
v 33.5 -31.0 -20.0
v 33.5 -31.0 -19.0
v 33.8 -31.0 -18.0
v 34.0 -31.0 -17.8
v 33.1 -30.0 -23.0
v 33.4 -30.0 -22.0
v 34.0 -30.0 -22.6
v 33.5 -30.0 -21.0
v 33.5 -30.0 -20.0
v 33.6 -30.0 -19.0
v 34.0 -30.0 -18.4
v 34.0 -30.6 -18.0
v 34.0 -29.2 -23.0
v 33.2 -29.0 -23.0
v 34.0 -29.0 -23.1
v 33.5 -29.0 -22.0
v 33.5 -29.0 -21.0
v 33.5 -29.0 -20.0
v 33.7 -29.0 -19.0
v 34.0 -29.0 -18.6
v 34.0 -28.6 -23.0
v 33.6 -28.0 -22.0
v 34.0 -28.0 -22.7
v 33.6 -28.0 -21.0
v 33.7 -28.0 -20.0
v 34.0 -28.0 -19.5
v 34.0 -28.5 -19.0
v 33.8 -27.0 -24.0
v 34.0 -27.0 -24.3
v 34.0 -27.2 -24.0
v 34.0 -27.7 -23.0
v 33.6 -27.0 -23.0
v 33.7 -27.0 -22.0
v 34.0 -27.0 -21.5
v 34.0 -27.4 -21.0
v 34.0 -27.6 -20.0
v 33.7 -26.0 -25.0
v 34.0 -26.0 -25.3
v 34.0 -26.3 -25.0
v 33.5 -26.0 -24.0
v 33.7 -26.0 -23.0
v 34.0 -26.0 -22.5
v 34.0 -26.5 -22.0
v 33.5 -25.0 -26.0
v 34.0 -25.0 -26.2
v 34.0 -25.2 -26.0
v 33.5 -25.0 -25.0
v 33.6 -25.0 -24.0
v 34.0 -25.0 -23.2
v 34.0 -25.2 -23.0
v 33.9 -24.0 -26.0
v 34.0 -24.0 -26.1
v 33.5 -24.0 -25.0
v 33.5 -24.0 -24.0
v 34.0 -24.8 -23.0
v 33.6 -24.0 -23.0
v 34.0 -24.1 -22.0
v 34.0 -24.0 -22.0
v 34.0 -24.0 -22.0
v 34.0 -23.9 -26.0
v 33.7 -23.0 -25.0
v 34.0 -23.0 -25.4
v 33.6 -23.0 -24.0
v 33.8 -23.0 -23.0
v 34.0 -23.0 -22.7
v 34.0 -24.0 -22.0
v 34.0 -22.0 -25.0
v 34.0 -22.5 -24.0
v 34.0 -22.8 -23.0
v 34.7 -36.0 -23.0
v 35.0 -36.0 -23.2
v 35.0 -36.2 -23.0
v 35.0 -36.5 -22.0
v 34.5 -36.0 -22.0
v 35.0 -36.4 -21.0
v 34.7 -36.0 -21.0
v 35.0 -36.0 -20.6
v 35.0 -35.0 -23.5
v 35.0 -35.0 -20.2
v 35.0 -34.0 -23.5
v 35.0 -34.7 -20.0
v 34.4 -34.0 -20.0
v 35.0 -34.4 -19.0
v 34.7 -34.0 -19.0
v 35.0 -34.0 -18.6
v 35.0 -33.0 -23.5
v 34.3 -33.0 -19.0
v 35.0 -33.4 -18.0
v 34.7 -33.0 -18.0
v 35.0 -33.0 -17.7
v 34.5 -32.0 -23.0
v 35.0 -32.0 -23.3
v 35.0 -32.0 -17.5
v 35.0 -31.6 -23.0
v 35.0 -31.0 -22.6
v 35.0 -31.0 -17.4
v 35.0 -30.0 -22.5
v 34.4 -30.0 -18.0
v 35.0 -30.0 -17.5
v 34.2 -29.0 -23.0
v 35.0 -29.0 -22.7
v 34.5 -29.0 -18.0
v 35.0 -29.0 -17.6
v 35.0 -28.5 -23.0
v 34.3 -28.0 -23.0
v 35.0 -28.0 -23.4
v 34.3 -28.0 -19.0
v 34.7 -28.0 -18.0
v 35.0 -28.0 -17.8
v 35.0 -27.0 -24.4
v 35.0 -27.4 -24.0
v 34.3 -27.0 -21.0
v 34.4 -27.0 -20.0
v 34.7 -27.0 -19.0
v 35.0 -27.0 -18.6
v 35.0 -27.6 -18.0
v 35.0 -26.0 -25.3
v 35.0 -26.3 -25.0
v 34.3 -26.0 -22.0
v 34.5 -26.0 -21.0
v 34.7 -26.0 -20.0
v 35.0 -26.0 -19.6
v 35.0 -26.6 -19.0
v 34.2 -25.0 -26.0
v 35.0 -25.0 -25.5
v 34.1 -25.0 -23.0
v 34.4 -25.0 -22.0
v 34.7 -25.0 -21.0
v 35.0 -25.0 -20.6
v 35.0 -25.6 -20.0
v 34.1 -24.0 -26.0
v 35.0 -24.0 -25.5
v 35.0 -24.5 -21.0
v 35.0 -24.0 -21.4
v 35.0 -23.0 -25.4
v 35.0 -23.3 -22.0
v 35.0 -23.0 -22.3
v 34.0 -22.0 -25.0
v 35.0 -22.0 -25.1
v 34.8 -22.0 -24.0
v 35.0 -22.0 -23.9
v 35.0 -22.5 -23.0
v 35.0 -21.9 -25.0
v 35.0 -21.9 -24.0
v 35.9 -38.0 -21.0
v 36.0 -38.0 -21.1
v 36.0 -38.0 -21.0
v 36.0 -38.3 -20.0
v 35.7 -38.0 -20.0
v 36.0 -38.3 -19.0
v 35.8 -38.0 -19.0
v 36.0 -38.0 -18.6
v 35.8 -37.0 -22.0
v 36.0 -37.0 -22.2
v 36.0 -37.2 -22.0
v 35.5 -37.0 -21.0
v 35.5 -37.0 -20.0
v 35.5 -37.0 -19.0
v 36.0 -37.6 -18.0
v 35.6 -37.0 -18.0
v 36.0 -37.3 -17.0
v 35.8 -37.0 -17.0
v 36.0 -37.0 -16.8
v 36.0 -36.0 -23.2
v 36.0 -36.3 -23.0
v 35.4 -36.0 -20.0
v 35.5 -36.0 -19.0
v 35.5 -36.0 -18.0
v 35.8 -36.0 -17.0
v 36.0 -36.0 -16.7
v 36.0 -35.0 -23.4
v 35.2 -35.0 -20.0
v 35.4 -35.0 -19.0
v 35.6 -35.0 -18.0
v 36.0 -35.0 -17.4
v 36.0 -35.6 -17.0
v 36.0 -34.0 -23.5
v 35.4 -34.0 -18.0
v 36.0 -34.0 -17.5
v 36.0 -33.0 -23.4
v 36.0 -33.0 -17.4
v 36.0 -32.0 -23.2
v 36.0 -32.0 -17.1
v 35.9 -32.0 -16.0
v 36.0 -32.0 -16.4
v 36.0 -32.1 -16.0
v 36.0 -32.0 -15.9
v 36.0 -31.7 -23.0
v 36.0 -31.0 -22.6
v 36.0 -31.9 -17.0
v 35.5 -31.0 -17.0
v 35.8 -31.0 -16.0
v 36.0 -31.0 -15.8
v 36.0 -30.0 -22.5
v 35.6 -30.0 -17.0
v 36.0 -30.0 -16.6
v 36.0 -30.8 -16.0
v 36.0 -29.0 -22.6
v 36.0 -29.5 -17.0
v 36.0 -29.0 -17.3
v 36.0 -28.0 -23.4
v 36.0 -28.5 -23.0
v 36.0 -28.0 -17.5
v 35.5 -27.0 -24.0
v 36.0 -27.0 -23.7
v 35.6 -27.0 -18.0
v 36.0 -27.0 -17.7
v 35.3 -26.0 -25.0
v 36.0 -26.0 -24.4
v 36.0 -26.5 -24.0
v 35.5 -26.0 -19.0
v 36.0 -26.0 -18.5
v 36.0 -26.6 -18.0
v 35.5 -25.0 -25.0
v 36.0 -25.0 -24.5
v 35.5 -25.0 -20.0
v 36.0 -25.0 -19.5
v 36.0 -25.5 -19.0
v 35.5 -24.0 -25.0
v 36.0 -24.0 -24.5
v 35.4 -24.0 -21.0
v 36.0 -24.0 -20.4
v 36.0 -24.5 -20.0
v 35.4 -23.0 -25.0
v 36.0 -23.0 -24.3
v 35.4 -23.0 -22.0
v 36.0 -23.0 -21.0
v 36.0 -23.0 -21.0
v 35.1 -22.0 -25.0
v 36.0 -22.7 -24.0
v 35.1 -22.0 -24.0
v 36.0 -22.6 -23.0
v 36.0 -22.3 -22.0
v 36.0 -23.0 -21.0
v 36.8 -39.0 -18.0
v 37.0 -39.0 -18.3
v 37.0 -39.2 -18.0
v 37.0 -39.2 -17.0
v 36.8 -39.0 -17.0
v 37.0 -39.0 -16.6
v 36.1 -38.0 -21.0
v 37.0 -38.0 -20.4
v 37.0 -38.3 -20.0
v 37.0 -38.6 -19.0
v 36.3 -38.0 -18.0
v 36.4 -38.0 -17.0
v 37.0 -38.2 -16.0
v 36.8 -38.0 -16.0
v 37.0 -38.0 -15.8
v 36.2 -37.0 -22.0
v 37.0 -37.0 -21.5
v 37.0 -37.5 -21.0
v 37.0 -37.6 -16.0
v 37.0 -37.0 -16.3
v 36.3 -36.0 -23.0
v 37.0 -36.0 -22.4
v 37.0 -36.5 -22.0
v 37.0 -36.0 -16.3
v 36.6 -35.0 -23.0
v 37.0 -35.0 -22.7
v 36.3 -35.0 -17.0
v 37.0 -35.4 -16.0
v 36.8 -35.0 -16.0
v 37.0 -35.0 -15.8
v 37.0 -34.0 -23.2
v 37.0 -34.3 -23.0
v 36.5 -34.0 -17.0
v 37.0 -34.0 -16.4
v 37.0 -34.7 -16.0
v 37.0 -33.7 -23.0
v 36.6 -33.0 -23.0
v 37.0 -33.0 -22.7
v 36.4 -33.0 -17.0
v 37.0 -33.0 -16.3
v 36.3 -32.0 -23.0
v 37.0 -32.0 -22.5
v 36.1 -32.0 -17.0
v 37.0 -32.7 -16.0
v 37.0 -32.1 -15.0
v 36.9 -32.0 -15.0
v 37.0 -32.0 -14.9
v 37.0 -31.0 -22.4
v 37.0 -31.9 -15.0
v 37.0 -31.0 -15.5
v 37.0 -30.0 -22.5
v 37.0 -30.5 -16.0
v 37.0 -30.0 -16.4
v 37.0 -29.0 -22.6
v 36.5 -29.0 -17.0
v 37.0 -29.0 -16.7
v 37.0 -28.0 -23.3
v 37.0 -28.4 -23.0
v 37.0 -28.6 -17.0
v 37.0 -28.0 -17.4
v 37.0 -27.0 -23.5
v 37.0 -27.0 -17.6
v 36.4 -26.0 -24.0
v 37.0 -26.0 -23.6
v 36.7 -26.0 -18.0
v 37.0 -26.0 -17.8
v 36.5 -25.0 -24.0
v 37.0 -25.0 -23.4
v 36.8 -25.0 -19.0
v 37.0 -25.0 -18.9
v 37.0 -25.8 -18.0
v 36.4 -24.0 -24.0
v 37.0 -24.5 -23.0
v 36.7 -24.0 -23.0
v 37.0 -24.0 -22.5
v 36.9 -24.0 -20.0
v 37.0 -24.0 -19.9
v 37.0 -24.9 -19.0
v 36.2 -23.0 -24.0
v 36.4 -23.0 -23.0
v 37.0 -23.6 -22.0
v 36.4 -23.0 -22.0
v 36.0 -23.0 -21.0
v 37.0 -23.6 -21.0
v 37.0 -23.9 -20.0
v 38.0 -39.0 -18.3
v 38.0 -39.3 -18.0
v 38.0 -39.4 -17.0
v 38.0 -39.3 -16.0
v 37.6 -39.0 -16.0
v 38.0 -39.0 -15.7
v 37.4 -38.0 -20.0
v 38.0 -38.0 -19.5
v 38.0 -38.4 -19.0
v 38.0 -38.3 -15.0
v 37.7 -38.0 -15.0
v 38.0 -38.0 -14.7
v 37.5 -37.0 -21.0
v 38.0 -37.0 -20.5
v 38.0 -37.5 -20.0
v 37.2 -37.0 -16.0
v 37.6 -37.0 -15.0
v 38.0 -37.0 -14.4
v 37.5 -36.0 -22.0
v 38.0 -36.0 -21.5
v 38.0 -36.5 -21.0
v 37.2 -36.0 -16.0
v 37.5 -36.0 -15.0
v 38.0 -36.5 -14.0
v 37.7 -36.0 -14.0
v 38.0 -36.0 -13.6
v 38.0 -35.0 -22.3
v 38.0 -35.4 -22.0
v 37.4 -35.0 -15.0
v 37.7 -35.0 -14.0
v 38.0 -35.0 -13.6
v 37.2 -34.0 -23.0
v 38.0 -34.0 -22.5
v 37.3 -34.0 -16.0
v 37.6 -34.0 -15.0
v 38.0 -34.0 -14.4
v 38.0 -34.5 -14.0
v 38.0 -33.0 -22.3
v 37.3 -33.0 -16.0
v 37.6 -33.0 -15.0
v 38.0 -33.0 -14.6
v 38.0 -32.5 -22.0
v 37.6 -32.0 -22.0
v 38.0 -32.0 -21.7
v 38.0 -32.0 -14.6
v 37.6 -31.0 -22.0
v 38.0 -31.0 -21.6
v 38.0 -31.5 -15.0
v 38.0 -31.0 -15.5
v 38.0 -30.0 -22.2
v 38.0 -30.4 -22.0
v 38.0 -30.6 -16.0
v 38.0 -30.0 -16.5
v 38.0 -29.0 -22.4
v 38.0 -29.0 -16.8
v 37.4 -28.0 -23.0
v 38.0 -28.0 -22.5
v 38.0 -28.7 -17.0
v 38.0 -28.0 -17.7
v 38.0 -27.0 -23.2
v 38.0 -27.4 -23.0
v 37.7 -27.0 -18.0
v 38.0 -27.5 -18.0
v 38.0 -27.0 -18.4
v 38.0 -26.0 -23.2
v 37.7 -26.0 -21.0
v 38.0 -26.4 -21.0
v 38.0 -26.0 -21.5
v 37.6 -26.0 -20.0
v 38.0 -26.5 -20.0
v 37.6 -26.0 -19.0
v 38.0 -26.5 -19.0
v 37.6 -26.0 -18.0
v 38.0 -25.7 -23.0
v 37.4 -25.0 -23.0
v 37.6 -25.0 -22.0
v 38.0 -25.6 -22.0
v 37.5 -25.0 -21.0
v 37.4 -25.0 -20.0
v 37.1 -25.0 -19.0
v 37.3 -24.0 -22.0
v 37.3 -24.0 -21.0
v 37.1 -24.0 -20.0
v 38.3 -39.0 -18.0
v 38.7 -39.0 -17.0
v 39.0 -39.0 -16.3
v 39.0 -39.1 -16.0
v 39.0 -39.0 -15.9
v 38.5 -38.0 -19.0
v 39.0 -38.0 -18.4
v 39.0 -38.3 -18.0
v 39.0 -38.7 -17.0
v 39.0 -38.5 -15.0
v 39.0 -38.0 -14.4
v 38.5 -37.0 -20.0
v 39.0 -37.0 -19.4
v 39.0 -37.4 -19.0
v 39.0 -37.6 -14.0
v 38.4 -37.0 -14.0
v 39.0 -37.4 -13.0
v 38.6 -37.0 -13.0
v 39.0 -37.2 -12.0
v 38.8 -37.0 -12.0
v 39.0 -37.0 -11.7
v 38.5 -36.0 -21.0
v 39.0 -36.0 -20.4
v 39.0 -36.4 -20.0
v 38.4 -36.0 -13.0
v 38.5 -36.0 -12.0
v 39.0 -36.2 -11.0
v 38.8 -36.0 -11.0
v 39.0 -36.0 -10.8
v 38.3 -35.0 -22.0
v 39.0 -35.0 -21.3
v 39.0 -35.4 -21.0
v 38.4 -35.0 -13.0
v 38.5 -35.0 -12.0
v 38.8 -35.0 -11.0
v 39.0 -35.0 -10.8
v 38.5 -34.0 -22.0
v 39.0 -34.0 -21.5
v 39.0 -34.0 -16.0
v 39.0 -34.0 -16.0
v 39.0 -34.0 -16.0
v 39.0 -34.0 -16.0
v 38.3 -34.0 -14.0
v 38.7 -34.0 -13.0
v 39.0 -34.0 -12.0
v 39.0 -34.0 -12.0
v 39.0 -34.8 -11.0
v 38.4 -33.0 -22.0
v 39.0 -33.0 -21.5
v 38.8 -33.0 -16.0
v 39.0 -33.0 -16.2
v 39.0 -33.0 -15.8
v 38.8 -33.0 -14.0
v 39.0 -33.0 -13.8
v 39.0 -33.7 -13.0
v 39.0 -34.0 -12.0
v 39.0 -32.0 -21.3
v 38.8 -32.0 -16.0
v 39.0 -32.0 -16.3
v 39.0 -32.0 -15.7
v 39.0 -32.8 -14.0
v 39.0 -32.0 -14.6
v 39.0 -31.6 -21.0
v 38.6 -31.0 -21.0
v 39.0 -31.0 -20.5
v 38.5 -31.0 -16.0
v 39.0 -31.0 -16.5
v 39.0 -31.0 -15.0
v 39.0 -31.0 -15.0
v 39.0 -31.0 -15.0
v 38.2 -30.0 -22.0
v 38.5 -30.0 -21.0
v 39.0 -30.5 -20.0
v 38.7 -30.0 -20.0
v 39.0 -30.0 -19.5
v 38.6 -30.0 -17.0
v 39.0 -30.6 -17.0
v 39.0 -30.0 -17.6
v 39.0 -31.0 -15.0
v 38.4 -29.0 -22.0
v 38.5 -29.0 -21.0
v 38.5 -29.0 -20.0
v 39.0 -29.6 -19.0
v 38.6 -29.0 -19.0
v 38.6 -29.0 -18.0
v 39.0 -29.6 -18.0
v 38.2 -29.0 -17.0
v 38.4 -28.0 -22.0
v 38.5 -28.0 -21.0
v 38.5 -28.0 -20.0
v 38.5 -28.0 -19.0
v 38.3 -28.0 -18.0
v 38.2 -27.0 -23.0
v 38.5 -27.0 -22.0
v 38.4 -27.0 -21.0
v 38.4 -27.0 -20.0
v 38.3 -27.0 -19.0
v 38.2 -26.0 -23.0
v 38.3 -26.0 -22.0
v 39.1 -39.0 -16.0
v 39.3 -38.0 -18.0
v 39.4 -38.0 -17.0
v 39.7 -38.0 -16.0
v 40.0 -38.2 -15.0
v 40.0 -38.0 -15.4
v 40.0 -38.2 -14.0
v 39.6 -38.0 -14.0
v 40.0 -38.0 -13.0
v 40.0 -38.0 -13.0
v 40.0 -38.0 -13.0
v 39.3 -37.0 -19.0
v 39.5 -37.0 -18.0
v 39.6 -37.0 -17.0
v 40.0 -37.0 -16.2
v 40.0 -37.3 -16.0
v 40.0 -37.3 -12.0
v 40.0 -37.0 -11.7
v 39.3 -36.0 -20.0
v 39.6 -36.0 -19.0
v 39.6 -36.0 -18.0
v 39.5 -36.0 -17.0
v 40.0 -36.7 -16.0
v 39.7 -36.0 -16.0
v 40.0 -36.0 -15.6
v 40.0 -36.2 -11.0
v 40.0 -36.0 -10.8
v 39.3 -35.0 -21.0
v 39.6 -35.0 -20.0
v 40.0 -35.0 -19.3
v 40.0 -35.3 -19.0
v 40.0 -35.3 -18.0
v 40.0 -35.0 -17.7
v 39.6 -35.0 -17.0
v 39.5 -35.0 -16.0
v 40.0 -35.0 -15.5
v 40.0 -35.0 -10.8
v 39.4 -34.0 -21.0
v 39.7 -34.0 -20.0
v 40.0 -34.0 -19.6
v 39.5 -34.0 -17.0
v 40.0 -34.0 -17.5
v 40.0 -34.0 -15.4
v 39.4 -34.0 -13.0
v 40.0 -34.4 -13.0
v 40.0 -34.0 -13.5
v 39.0 -34.0 -12.0
v 40.0 -34.6 -12.0
v 40.0 -34.8 -11.0
v 39.4 -33.0 -21.0
v 40.0 -33.0 -20.2
v 40.0 -33.3 -20.0
v 39.5 -33.0 -17.0
v 40.0 -33.0 -17.5
v 40.0 -33.0 -15.2
v 39.3 -33.0 -14.0
v 40.0 -33.6 -14.0
v 40.0 -33.0 -14.7
v 39.3 -32.0 -21.0
v 40.0 -32.7 -20.0
v 39.7 -32.0 -20.0
v 40.0 -32.0 -19.6
v 39.5 -32.0 -17.0
v 40.0 -32.0 -17.6
v 40.0 -32.0 -15.1
v 40.0 -32.0 -14.9
v 39.4 -31.0 -20.0
v 40.0 -31.0 -19.1
v 39.7 -31.0 -18.0
v 40.0 -31.5 -18.0
v 40.0 -31.0 -18.8
v 39.3 -31.0 -17.0
v 40.0 -31.4 -15.0
v 39.0 -31.0 -15.0
v 39.3 -30.0 -19.0
v 40.0 -30.9 -19.0
v 39.3 -30.0 -18.0
v 40.2 -38.0 -15.0
v 40.2 -38.0 -14.0
v 40.0 -38.0 -13.0
v 40.2 -37.0 -16.0
v 40.5 -37.0 -15.0
v 40.5 -37.0 -14.0
v 40.5 -37.0 -13.0
v 40.2 -37.0 -12.0
v 40.4 -36.0 -15.0
v 40.5 -36.0 -14.0
v 40.5 -36.0 -13.0
v 40.5 -36.0 -12.0
v 40.2 -36.0 -11.0
v 40.2 -35.0 -19.0
v 40.2 -35.0 -18.0
v 40.4 -35.0 -15.0
v 40.5 -35.0 -14.0
v 40.4 -35.0 -13.0
v 40.4 -35.0 -12.0
v 40.2 -35.0 -11.0
v 40.4 -34.0 -19.0
v 40.4 -34.0 -18.0
v 40.3 -34.0 -15.0
v 40.3 -34.0 -14.0
v 40.2 -33.0 -20.0
v 40.5 -33.0 -19.0
v 40.4 -33.0 -18.0
v 40.2 -33.0 -15.0
v 40.4 -32.0 -19.0
v 40.3 -32.0 -18.0
v 40.1 -32.0 -15.0
v 40.1 -31.0 -19.0
f 3 2 1
f 1 4 3
f 1 2 5
f 5 2 6
f 4 1 7
f 7 1 5
f 5 6 8
f 8 6 9
f 7 5 10
f 5 11 10
f 5 8 11
f 11 12 10
f 9 13 8
f 8 13 11
f 11 13 14
f 11 14 12
f 17 16 15
f 15 18 17
f 15 16 19
f 19 16 20
f 18 15 21
f 15 22 21
f 15 19 22
f 22 23 21
f 19 20 3
f 20 2 3
f 20 24 2
f 19 3 4
f 25 19 4
f 22 19 25
f 23 22 26
f 26 22 25
f 28 6 27
f 6 24 27
f 6 2 24
f 7 28 4
f 27 4 28
f 4 27 25
f 29 25 27
f 25 29 30
f 26 25 31
f 25 32 31
f 25 30 32
f 32 33 31
f 34 9 28
f 28 9 6
f 35 30 29
f 30 35 10
f 34 10 35
f 10 34 7
f 28 7 34
f 32 30 36
f 30 12 36
f 12 37 36
f 12 30 10
f 32 36 33
f 39 13 38
f 13 9 38
f 38 9 34
f 40 38 34
f 42 41 40
f 42 40 34
f 42 34 35
f 42 35 43
f 42 43 14
f 42 14 13
f 42 13 39
f 42 39 41
f 12 14 37
f 37 14 43
f 38 44 39
f 39 44 41
f 46 45 17
f 17 45 16
f 48 47 18
f 47 17 18
f 47 46 17
f 50 49 48
f 48 49 47
f 50 51 49
f 45 20 16
f 52 20 45
f 21 48 18
f 48 21 23
f 53 48 23
f 50 48 53
f 51 50 54
f 54 50 53
f 52 24 20
f 55 24 52
f 26 56 53
f 26 53 23
f 54 53 57
f 53 58 57
f 53 56 58
f 58 59 57
f 55 60 24
f 24 60 27
f 29 27 60
f 29 60 61
f 31 56 26
f 56 31 33
f 62 56 33
f 58 56 62
f 59 58 63
f 58 64 63
f 58 62 64
f 66 65 64
f 64 65 63
f 66 67 65
f 61 35 29
f 68 35 61
f 37 69 36
f 62 33 36
f 69 62 36
f 70 62 69
f 62 71 64
f 62 70 71
f 64 72 66
f 64 71 72
f 67 66 73
f 73 66 72
f 74 38 40
f 74 40 41
f 35 75 43
f 75 35 76
f 68 76 35
f 69 37 43
f 75 69 43
f 77 69 75
f 69 78 70
f 69 77 78
f 70 79 71
f 70 78 79
f 81 72 80
f 72 79 80
f 72 71 79
f 72 81 73
f 44 38 74
f 84 83 82
f 41 44 74
f 83 76 82
f 76 83 75
f 85 75 83
f 75 86 77
f 75 85 86
f 77 87 78
f 77 86 87
f 78 88 79
f 78 87 88
f 80 79 89
f 89 79 88
f 84 90 83
f 92 91 90
f 91 83 90
f 91 85 83
f 85 93 86
f 85 91 93
f 86 94 87
f 86 93 94
f 96 88 95
f 88 94 95
f 88 87 94
f 88 96 89
f 99 98 97
f 101 100 97
f 97 100 99
f 100 101 92
f 101 91 92
f 101 102 91
f 104 93 103
f 93 102 103
f 93 91 102
f 93 104 94
f 94 104 105
f 94 105 95
f 108 107 106
f 108 106 98
f 106 97 98
f 106 109 97
f 97 110 101
f 97 109 110
f 112 102 111
f 102 110 111
f 102 101 110
f 102 112 103
f 115 114 113
f 115 113 107
f 113 106 107
f 113 116 106
f 106 117 109
f 106 116 117
f 119 110 118
f 110 117 118
f 110 109 117
f 110 119 111
f 113 114 120
f 120 114 121
f 113 122 116
f 113 120 122
f 116 123 117
f 116 122 123
f 118 117 124
f 117 125 124
f 117 123 125
f 127 126 125
f 125 126 124
f 127 128 126
f 121 129 120
f 131 130 129
f 130 120 129
f 130 122 120
f 122 132 123
f 122 130 132
f 123 133 125
f 123 132 133
f 135 127 134
f 127 133 134
f 127 125 133
f 127 135 128
f 131 136 130
f 130 136 132
f 132 136 137
f 132 137 133
f 133 137 138
f 133 138 134
f 141 140 139
f 143 142 139
f 139 142 141
f 145 144 143
f 143 144 142
f 145 146 144
f 139 140 46
f 140 45 46
f 140 147 45
f 139 46 47
f 139 47 143
f 143 47 49
f 143 49 145
f 49 51 145
f 51 146 145
f 51 148 146
f 147 52 45
f 149 52 147
f 54 151 150
f 148 54 150
f 51 54 148
f 153 152 151
f 151 152 150
f 153 154 152
f 149 55 52
f 155 55 149
f 57 151 54
f 151 57 59
f 156 151 59
f 153 151 156
f 154 153 157
f 153 158 157
f 153 156 158
f 158 159 157
f 60 55 160
f 55 161 160
f 55 155 161
f 160 61 60
f 63 156 59
f 156 63 65
f 156 65 158
f 65 67 158
f 67 159 158
f 67 162 159
f 161 163 160
f 61 160 163
f 164 61 163
f 68 61 164
f 73 162 67
f 73 165 162
f 164 76 68
f 166 76 164
f 80 167 81
f 167 168 81
f 168 73 81
f 168 165 73
f 169 84 82
f 170 169 82
f 76 170 82
f 166 170 76
f 89 171 167
f 89 167 80
f 168 167 172
f 172 167 171
f 90 84 169
f 175 174 173
f 92 173 174
f 92 170 173
f 92 90 169
f 170 92 169
f 95 176 96
f 171 89 96
f 176 171 96
f 177 171 176
f 172 171 178
f 178 171 177
f 180 179 99
f 99 179 98
f 100 174 175
f 180 100 175
f 99 100 180
f 174 100 92
f 103 181 104
f 182 105 104
f 182 104 181
f 176 95 105
f 182 176 105
f 183 176 182
f 185 177 184
f 177 183 184
f 177 176 183
f 177 185 178
f 187 186 108
f 108 186 107
f 108 98 179
f 108 179 187
f 111 188 112
f 181 103 112
f 188 181 112
f 189 181 188
f 181 190 182
f 181 189 190
f 192 183 191
f 183 190 191
f 183 182 190
f 183 192 184
f 193 114 115
f 194 193 115
f 107 194 115
f 186 194 107
f 118 195 119
f 188 111 119
f 195 188 119
f 196 188 195
f 188 197 189
f 188 196 197
f 199 190 198
f 190 197 198
f 190 189 197
f 190 199 191
f 200 121 193
f 193 121 114
f 193 194 201
f 193 201 200
f 124 195 118
f 195 124 126
f 195 126 196
f 197 196 202
f 196 128 202
f 128 203 202
f 128 196 126
f 197 202 198
f 200 129 121
f 131 129 200
f 201 131 200
f 204 131 201
f 206 205 135
f 206 135 134
f 128 135 203
f 203 135 205
f 136 131 207
f 131 208 207
f 131 204 208
f 209 137 136
f 209 136 207
f 137 209 210
f 211 137 210
f 138 137 211
f 134 138 206
f 206 138 211
f 208 212 207
f 207 212 209
f 209 212 213
f 209 213 210
f 216 215 214
f 218 217 214
f 214 217 216
f 220 219 218
f 218 219 217
f 220 221 219
f 224 223 222
f 224 222 215
f 222 214 215
f 222 225 214
f 214 226 218
f 214 225 226
f 218 227 220
f 218 226 227
f 221 220 228
f 220 229 228
f 220 227 229
f 231 230 229
f 229 230 228
f 231 232 230
f 234 233 141
f 141 233 140
f 142 222 223
f 234 142 223
f 141 142 234
f 222 142 144
f 222 144 225
f 225 144 146
f 235 225 146
f 226 225 235
f 226 236 227
f 226 235 236
f 227 237 229
f 227 236 237
f 229 238 231
f 229 237 238
f 232 231 239
f 239 231 238
f 233 147 140
f 240 147 233
f 148 241 235
f 148 235 146
f 235 242 236
f 235 241 242
f 236 243 237
f 236 242 243
f 245 238 244
f 238 243 244
f 238 237 243
f 238 245 239
f 240 149 147
f 246 149 240
f 150 241 148
f 241 150 152
f 241 152 242
f 242 152 154
f 247 242 154
f 243 242 247
f 244 243 248
f 248 243 247
f 246 155 149
f 249 155 246
f 157 247 154
f 157 159 247
f 159 248 247
f 159 250 248
f 249 161 155
f 251 161 249
f 162 250 159
f 162 252 250
f 255 254 253
f 253 256 255
f 251 257 161
f 161 257 163
f 164 163 257
f 164 257 258
f 165 260 259
f 252 165 259
f 162 165 252
f 259 260 254
f 260 253 254
f 260 261 253
f 256 253 262
f 262 253 261
f 258 166 164
f 263 166 258
f 168 264 260
f 168 260 165
f 266 261 265
f 261 264 265
f 261 260 264
f 261 266 262
f 263 170 166
f 267 170 263
f 269 268 264
f 168 269 264
f 172 269 168
f 264 268 265
f 271 270 173
f 173 270 175
f 173 170 267
f 173 267 271
f 178 269 172
f 178 272 269
f 273 179 180
f 274 273 180
f 175 274 180
f 270 274 175
f 184 275 185
f 275 276 185
f 276 178 185
f 276 272 178
f 277 186 187
f 278 277 187
f 278 187 179
f 279 278 179
f 273 279 179
f 279 273 274
f 191 280 192
f 280 281 192
f 192 281 184
f 281 282 184
f 282 275 184
f 275 282 276
f 283 194 277
f 277 194 186
f 277 278 284
f 277 284 283
f 198 285 199
f 285 286 199
f 199 286 191
f 286 287 191
f 287 280 191
f 280 287 281
f 288 201 283
f 283 201 194
f 283 284 289
f 283 289 288
f 203 290 202
f 290 291 202
f 202 291 198
f 291 292 198
f 292 285 198
f 285 292 286
f 293 204 288
f 288 204 201
f 288 289 294
f 288 294 293
f 206 295 205
f 290 203 205
f 295 290 205
f 296 290 295
f 291 290 297
f 297 290 296
f 298 208 293
f 293 208 204
f 293 294 299
f 300 293 299
f 298 293 300
f 211 210 300
f 299 211 300
f 301 211 299
f 206 211 295
f 211 302 295
f 211 301 302
f 295 302 296
f 296 302 303
f 296 303 297
f 298 212 208
f 212 298 213
f 213 298 300
f 213 300 210
f 306 305 304
f 308 307 304
f 304 307 306
f 308 309 307
f 310 215 216
f 310 216 311
f 216 312 311
f 216 217 312
f 313 217 219
f 313 312 217
f 314 304 221
f 304 313 221
f 313 219 221
f 304 305 313
f 304 315 308
f 304 314 315
f 309 308 316
f 308 317 316
f 308 315 317
f 317 318 316
f 319 223 224
f 320 319 224
f 320 224 215
f 321 320 215
f 310 321 215
f 321 310 311
f 228 314 221
f 314 228 230
f 314 230 315
f 317 315 322
f 315 232 322
f 232 323 322
f 232 315 230
f 317 322 318
f 324 233 234
f 325 324 234
f 325 234 223
f 326 325 223
f 319 326 223
f 326 319 320
f 239 323 232
f 239 327 323
f 328 240 324
f 324 240 233
f 324 325 329
f 324 329 328
f 244 330 245
f 327 239 331
f 239 330 331
f 330 332 331
f 239 245 330
f 332 333 331
f 335 334 328
f 334 240 328
f 334 246 240
f 335 328 329
f 248 336 330
f 248 330 244
f 338 332 337
f 332 336 337
f 332 330 336
f 332 338 333
f 340 249 339
f 249 334 339
f 249 246 334
f 341 340 339
f 250 342 336
f 250 336 248
f 337 336 343
f 343 336 342
f 344 251 340
f 340 251 249
f 340 341 345
f 340 345 344
f 252 346 342
f 252 342 250
f 255 347 254
f 347 342 254
f 342 346 254
f 342 347 343
f 349 348 256
f 348 255 256
f 348 347 255
f 349 350 348
f 344 257 251
f 258 257 344
f 345 258 344
f 351 258 345
f 259 346 252
f 346 259 254
f 353 352 349
f 256 353 349
f 262 353 256
f 349 352 350
f 351 263 258
f 354 263 351
f 356 355 266
f 356 266 265
f 262 266 353
f 353 266 355
f 354 267 263
f 357 267 354
f 269 358 268
f 358 359 268
f 359 265 268
f 359 356 265
f 361 360 271
f 271 360 270
f 271 267 357
f 271 357 361
f 363 362 358
f 269 363 358
f 272 363 269
f 358 362 359
f 360 274 270
f 364 274 360
f 276 363 272
f 276 365 363
f 366 278 279
f 367 366 279
f 274 367 279
f 364 367 274
f 281 368 282
f 368 369 282
f 369 276 282
f 369 365 276
f 370 284 366
f 366 284 278
f 366 367 371
f 366 371 370
f 286 372 287
f 372 373 287
f 287 373 281
f 373 374 281
f 374 368 281
f 368 374 369
f 375 289 370
f 370 289 284
f 370 371 376
f 377 370 376
f 375 370 377
f 378 377 376
f 291 379 292
f 379 380 292
f 292 380 286
f 380 381 286
f 381 372 286
f 372 381 373
f 382 294 375
f 375 294 289
f 383 375 377
f 382 375 383
f 377 378 384
f 385 377 384
f 383 377 385
f 387 386 385
f 387 385 384
f 387 388 379
f 297 387 379
f 291 297 379
f 386 387 297
f 379 388 380
f 382 299 294
f 299 382 301
f 301 382 383
f 301 383 302
f 302 383 385
f 302 385 303
f 303 385 386
f 303 386 297
f 390 389 306
f 306 389 305
f 391 306 307
f 391 390 306
f 393 392 309
f 392 307 309
f 392 391 307
f 393 394 392
f 395 311 312
f 395 312 396
f 312 397 396
f 312 313 397
f 313 305 389
f 313 389 397
f 316 393 309
f 399 398 318
f 318 398 316
f 398 394 316
f 394 393 316
f 399 400 398
f 401 320 321
f 402 401 321
f 402 321 311
f 403 402 311
f 395 403 311
f 403 395 396
f 323 404 322
f 399 318 322
f 404 399 322
f 405 399 404
f 400 399 406
f 406 399 405
f 407 325 326
f 408 407 326
f 408 326 320
f 409 408 320
f 401 409 320
f 409 401 402
f 327 410 404
f 327 404 323
f 404 411 405
f 404 410 411
f 406 405 412
f 405 413 412
f 405 411 413
f 413 414 412
f 416 415 407
f 415 325 407
f 415 329 325
f 416 407 408
f 331 410 327
f 410 331 333
f 417 410 333
f 411 410 417
f 411 418 413
f 411 417 418
f 414 413 419
f 419 413 418
f 420 334 335
f 421 420 335
f 329 421 335
f 415 421 329
f 337 422 338
f 417 333 338
f 422 417 338
f 423 417 422
f 425 418 424
f 418 423 424
f 418 417 423
f 418 425 419
f 420 339 334
f 341 339 420
f 421 341 420
f 426 341 421
f 343 427 422
f 343 422 337
f 422 428 423
f 422 427 428
f 424 423 429
f 429 423 428
f 431 345 430
f 345 426 430
f 345 341 426
f 432 431 430
f 347 427 343
f 427 347 348
f 427 348 428
f 348 350 428
f 350 429 428
f 350 433 429
f 434 351 431
f 431 351 345
f 431 432 435
f 431 435 434
f 437 436 352
f 437 352 353
f 350 352 433
f 433 352 436
f 439 438 434
f 438 351 434
f 438 354 351
f 439 434 435
f 441 440 355
f 441 355 356
f 353 355 437
f 437 355 440
f 438 357 354
f 442 357 438
f 359 441 356
f 359 443 441
f 444 360 361
f 445 444 361
f 357 445 361
f 442 445 357
f 447 446 362
f 447 362 363
f 359 362 443
f 443 362 446
f 449 448 444
f 448 360 444
f 448 364 360
f 449 444 445
f 452 451 450
f 451 447 450
f 447 365 450
f 447 363 365
f 448 367 364
f 453 367 448
f 456 455 454
f 458 457 454
f 458 454 455
f 460 459 457
f 460 457 458
f 459 460 452
f 450 459 452
f 461 459 450
f 369 461 365
f 365 461 450
f 463 371 462
f 371 453 462
f 371 367 453
f 465 464 463
f 465 463 462
f 464 465 456
f 454 464 456
f 466 464 454
f 467 454 457
f 466 454 467
f 468 457 459
f 467 457 468
f 373 468 374
f 468 461 374
f 468 459 461
f 374 461 369
f 463 376 371
f 376 463 378
f 463 469 378
f 463 464 469
f 470 464 466
f 469 464 470
f 471 466 467
f 470 466 471
f 380 471 381
f 471 468 381
f 471 467 468
f 381 468 373
f 469 384 378
f 384 469 387
f 387 469 470
f 387 470 388
f 388 470 471
f 388 471 380
f 472 389 390
f 391 473 390
f 390 473 472
f 473 391 474
f 391 475 474
f 391 392 475
f 392 394 475
f 475 394 476
f 477 396 397
f 478 477 397
f 478 397 389
f 479 478 389
f 472 479 389
f 479 472 473
f 479 473 480
f 480 473 474
f 481 476 394
f 481 394 398
f 398 400 481
f 481 400 482
f 483 402 403
f 484 483 403
f 484 403 396
f 485 484 396
f 477 485 396
f 485 477 478
f 406 487 486
f 482 406 486
f 400 406 482
f 489 488 487
f 487 488 486
f 491 490 489
f 489 490 488
f 491 492 490
f 493 408 409
f 494 493 409
f 494 409 402
f 495 494 402
f 483 495 402
f 495 483 484
f 412 487 406
f 487 412 414
f 496 487 414
f 489 487 496
f 489 497 491
f 489 496 497
f 492 491 498
f 491 499 498
f 491 497 499
f 499 500 498
f 501 415 416
f 502 501 416
f 502 416 408
f 503 502 408
f 493 503 408
f 503 493 494
f 419 504 496
f 419 496 414
f 496 505 497
f 496 504 505
f 497 506 499
f 497 505 506
f 500 499 507
f 507 499 506
f 508 421 501
f 501 421 415
f 501 502 509
f 501 509 508
f 512 511 510
f 513 510 511
f 424 514 425
f 504 419 425
f 514 504 425
f 515 504 514
f 504 516 505
f 504 515 516
f 518 506 517
f 506 516 517
f 506 505 516
f 506 518 507
f 519 426 508
f 508 426 421
f 508 509 520
f 508 520 519
f 512 510 521
f 512 521 522
f 510 513 523
f 510 523 521
f 429 524 514
f 429 514 424
f 526 515 525
f 515 524 525
f 515 514 524
f 515 526 516
f 516 526 527
f 516 527 517
f 519 430 426
f 432 430 519
f 520 432 519
f 528 432 520
f 522 521 529
f 522 529 530
f 521 523 531
f 521 531 529
f 533 532 524
f 429 533 524
f 433 533 429
f 524 532 525
f 535 435 534
f 435 528 534
f 435 432 528
f 536 535 534
f 530 529 537
f 530 537 538
f 540 539 531
f 436 531 539
f 531 436 529
f 437 529 436
f 529 437 537
f 539 541 436
f 541 433 436
f 541 533 433
f 542 438 439
f 435 535 439
f 535 542 439
f 535 543 542
f 535 536 544
f 545 535 544
f 543 535 545
f 546 545 544
f 549 548 547
f 547 548 538
f 547 538 537
f 441 547 537
f 440 441 537
f 540 550 539
f 440 537 437
f 539 550 541
f 551 442 542
f 542 442 438
f 552 542 543
f 551 542 552
f 553 543 545
f 552 543 553
f 545 546 554
f 555 545 554
f 553 545 555
f 557 556 555
f 557 555 554
f 556 557 549
f 547 556 549
f 558 556 547
f 443 558 441
f 441 558 547
f 559 445 551
f 551 445 442
f 560 551 552
f 559 551 560
f 561 552 553
f 560 552 561
f 562 553 555
f 561 553 562
f 563 555 556
f 562 555 563
f 447 563 446
f 563 558 446
f 563 556 558
f 446 558 443
f 564 448 449
f 445 559 449
f 559 564 449
f 559 565 564
f 566 559 560
f 565 559 566
f 567 560 561
f 566 560 567
f 568 561 562
f 567 561 568
f 452 568 451
f 568 563 451
f 568 562 563
f 451 563 447
f 569 453 564
f 564 453 448
f 570 564 565
f 569 564 570
f 456 570 455
f 570 566 455
f 570 565 566
f 455 566 458
f 458 566 567
f 458 567 460
f 460 567 568
f 460 568 452
f 569 462 453
f 462 569 465
f 465 569 570
f 465 570 456
f 571 474 475
f 476 571 475
f 572 478 479
f 480 573 479
f 479 573 572
f 474 571 480
f 571 573 480
f 571 574 573
f 574 571 476
f 575 574 476
f 481 575 476
f 576 574 575
f 578 577 482
f 577 481 482
f 577 575 481
f 580 579 578
f 578 579 577
f 580 581 579
f 582 484 485
f 478 572 485
f 572 582 485
f 572 583 582
f 584 572 573
f 583 572 584
f 574 586 585
f 584 574 585
f 573 574 584
f 586 574 576
f 486 578 482
f 578 486 488
f 578 488 580
f 587 581 580
f 488 587 580
f 490 587 488
f 490 492 587
f 587 492 588
f 589 494 495
f 484 582 495
f 582 589 495
f 582 590 589
f 591 582 583
f 590 582 591
f 592 583 584
f 591 583 592
f 584 585 593
f 594 584 593
f 592 584 594
f 595 594 593
f 596 588 492
f 596 492 498
f 498 500 596
f 596 500 597
f 598 502 503
f 494 589 503
f 589 598 503
f 589 599 598
f 590 601 600
f 599 590 600
f 589 590 599
f 601 590 591
f 601 591 602
f 604 603 602
f 591 604 602
f 592 604 591
f 605 592 594
f 604 592 605
f 594 595 606
f 594 606 605
f 507 597 500
f 507 607 597
f 608 509 598
f 598 509 502
f 609 598 599
f 608 598 609
f 599 600 610
f 599 610 609
f 603 604 611
f 603 611 612
f 512 611 511
f 611 605 511
f 611 604 605
f 513 511 605
f 606 513 605
f 613 513 606
f 616 615 614
f 618 617 614
f 618 614 615
f 518 517 617
f 618 518 617
f 619 518 618
f 507 518 607
f 607 518 619
f 620 520 608
f 608 520 509
f 609 622 621
f 620 609 621
f 608 609 620
f 622 609 610
f 612 611 623
f 612 623 624
f 522 623 512
f 512 623 611
f 613 523 513
f 625 523 613
f 628 627 626
f 626 627 616
f 626 616 614
f 525 626 614
f 526 525 614
f 526 614 527
f 527 614 617
f 527 617 517
f 629 528 620
f 620 528 520
f 620 621 630
f 631 620 630
f 629 620 631
f 632 631 630
f 624 623 633
f 624 633 634
f 530 633 522
f 522 633 623
f 625 531 523
f 635 531 625
f 628 626 532
f 533 628 532
f 636 628 533
f 532 626 525
f 629 534 528
f 534 629 536
f 629 637 536
f 629 631 637
f 631 632 638
f 631 638 637
f 641 640 639
f 639 640 634
f 633 639 634
f 642 639 633
f 538 642 530
f 530 642 633
f 644 540 643
f 540 635 643
f 540 531 635
f 643 636 644
f 636 541 644
f 636 533 541
f 637 544 536
f 646 645 546
f 646 546 544
f 638 646 544
f 637 638 544
f 645 646 641
f 639 645 641
f 647 645 639
f 549 647 548
f 647 642 548
f 647 639 642
f 548 642 538
f 644 550 540
f 550 644 541
f 645 554 546
f 554 645 557
f 557 645 647
f 557 647 549
f 648 576 575
f 577 649 575
f 575 649 648
f 579 650 577
f 577 650 649
f 581 650 579
f 651 585 586
f 576 648 586
f 648 651 586
f 648 652 651
f 653 648 649
f 652 648 653
f 654 649 650
f 653 649 654
f 587 655 581
f 655 650 581
f 655 654 650
f 588 655 587
f 651 593 585
f 593 651 595
f 651 656 595
f 651 652 656
f 657 652 653
f 656 652 657
f 658 653 654
f 657 653 658
f 659 654 655
f 658 654 659
f 596 660 588
f 660 655 588
f 660 659 655
f 597 660 596
f 661 600 601
f 602 662 601
f 601 662 661
f 603 662 602
f 663 606 656
f 656 606 595
f 664 656 657
f 663 656 664
f 665 657 658
f 664 657 665
f 666 658 659
f 665 658 666
f 667 659 660
f 666 659 667
f 607 667 597
f 597 667 660
f 668 610 661
f 661 610 600
f 669 661 662
f 668 661 669
f 612 669 603
f 603 669 662
f 670 613 663
f 663 613 606
f 671 663 664
f 670 663 671
f 616 671 615
f 671 665 615
f 671 664 665
f 615 665 618
f 618 665 666
f 618 666 619
f 619 666 667
f 619 667 607
f 672 621 622
f 610 668 622
f 668 672 622
f 668 673 672
f 674 668 669
f 673 668 674
f 624 674 612
f 612 674 669
f 675 625 670
f 670 625 613
f 628 675 627
f 675 671 627
f 675 670 671
f 627 671 616
f 672 630 621
f 630 672 632
f 672 676 632
f 672 673 676
f 677 673 674
f 676 673 677
f 634 677 624
f 624 677 674
f 678 635 675
f 675 635 625
f 636 678 628
f 628 678 675
f 679 638 676
f 676 638 632
f 641 679 640
f 679 677 640
f 679 676 677
f 640 677 634
f 678 643 635
f 643 678 636
f 679 646 638
f 646 679 641
